<svg height="32" width="32" viewBox="0 0 32 32"><defs /><path d="M 0.00,25.17 L 0.00,32.00 L 22.88,32.00 L 22.88,29.75 L 2.32,29.75 L 2.29,29.71 L 2.29,25.17 Z" fill="#824b30" stroke="none" /><path d="M 0.00,16.02 L 0.00,22.88 L 2.29,22.88 L 2.29,16.02 Z" fill="#824b30" stroke="none" /><path d="M 0.00,6.86 L 0.00,13.73 L 2.29,13.73 L 2.29,6.86 Z" fill="#824b30" stroke="none" /><path d="M 0.00,0.00 L 0.00,4.58 L 2.29,4.58 L 2.29,0.00 Z" fill="#824b30" stroke="none" /><path d="M 0.00,22.88 L 0.00,25.17 L 2.29,25.17 L 2.29,22.88 Z" fill="#353535" stroke="none" /><path d="M 16.02,13.73 L 16.02,16.02 L 18.31,16.02 L 18.31,13.73 Z" fill="#353535" stroke="none" /><path d="M 0.00,13.73 L 0.00,16.02 L 2.29,16.02 L 2.29,13.73 Z" fill="#353535" stroke="none" /><path d="M 0.00,4.58 L 0.00,6.86 L 2.29,6.86 L 2.29,4.58 Z" fill="#353535" stroke="none" /><path d="M 2.29,0.00 L 2.29,29.75 L 22.88,29.75 L 22.88,0.00 Z" fill="#b16640" stroke="none" /><path d="M 18.31,13.73 L 18.31,16.02 L 20.59,16.02 L 20.59,13.73 Z" fill="#515151" stroke="none" /></svg>