<svg height="32" width="32" viewBox="0 0 32 32"><defs /><path d="M 21.97,24.02 L 20.98,24.51 L 20.98,25.18 L 21.97,25.18 Z" fill="#1e1609" stroke="none" /><path d="M 22.99,23.52 L 22.92,23.52 L 22.15,23.91 L 22.15,23.95 L 22.99,23.95 Z" fill="#1e1609" stroke="none" /><path d="M 14.02,27.27 L 14.02,27.55 L 14.59,27.55 L 14.59,27.51 L 14.09,27.27 Z" fill="#241b0b" stroke="none" /><path d="M 15.05,26.53 L 15.05,27.55 L 16.00,27.55 L 16.00,26.98 Z" fill="#241b0b" stroke="none" /><path d="M 17.98,27.27 L 17.91,27.27 L 17.41,27.51 L 17.41,27.55 L 17.98,27.55 Z" fill="#2a200f" stroke="none" /><path d="M 16.95,25.32 L 16.88,25.32 L 16.00,25.78 L 16.00,27.55 L 16.95,27.55 Z" fill="#2a200f" stroke="none" /><path d="M 16.95,21.62 L 16.88,21.62 L 16.00,22.08 L 16.00,24.55 L 16.95,24.09 Z" fill="#1d250f" stroke="none" /><path d="M 4.98,21.51 L 4.98,22.71 L 6.08,22.71 L 6.08,22.04 L 5.05,21.51 Z" fill="#1d250f" stroke="none" /><path d="M 19.96,21.33 L 18.97,21.83 L 18.97,23.03 L 18.90,23.10 L 17.98,23.56 L 17.98,24.79 L 18.97,24.30 L 18.97,23.10 L 19.04,23.03 L 19.96,22.57 Z" fill="#1d250f" stroke="none" /><path d="M 28.01,19.78 L 27.90,19.81 L 27.90,20.27 L 28.01,20.27 Z" fill="#1d250f" stroke="none" /><path d="M 31.01,19.50 L 30.02,19.99 L 30.02,21.23 L 31.01,20.73 Z" fill="#1d250f" stroke="none" /><path d="M 0.21,17.91 L 0.21,19.04 L 0.99,19.04 L 0.99,18.26 L 0.28,17.91 Z" fill="#1d250f" stroke="none" /><path d="M 17.98,17.41 L 17.91,17.41 L 16.95,17.91 L 16.95,19.14 L 17.98,18.65 Z" fill="#1d250f" stroke="none" /><path d="M 16.95,15.51 L 16.88,15.51 L 16.00,15.96 L 16.00,17.17 L 16.95,16.71 Z" fill="#1d250f" stroke="none" /><path d="M 32.00,15.33 L 31.93,15.33 L 31.01,15.79 L 31.01,17.02 L 31.08,17.02 L 32.00,16.57 Z" fill="#1d250f" stroke="none" /><path d="M 23.98,11.97 L 22.99,12.47 L 22.99,14.87 L 23.06,14.87 L 23.98,14.41 Z" fill="#1d250f" stroke="none" /><path d="M 32.00,11.62 L 31.01,12.11 L 31.01,13.32 L 30.94,13.39 L 30.02,13.85 L 30.02,15.05 L 29.99,15.08 L 29.07,15.54 L 29.03,15.51 L 29.03,14.34 L 28.01,14.83 L 28.01,16.07 L 29.00,15.58 L 29.03,15.61 L 29.03,16.78 L 29.10,16.78 L 30.02,16.32 L 30.02,15.08 L 31.01,14.59 L 31.01,13.39 L 31.08,13.32 L 32.00,12.86 Z" fill="#1d250f" stroke="none" /><path d="M 30.02,10.17 L 29.95,10.17 L 29.07,10.63 L 29.03,10.60 L 29.03,9.47 L 28.96,9.47 L 27.06,10.42 L 27.02,10.45 L 27.02,11.62 L 26.95,11.69 L 25.01,12.64 L 25.01,13.88 L 25.96,13.42 L 26.00,13.46 L 26.00,14.62 L 27.02,14.13 L 27.02,12.89 L 28.01,12.40 L 28.01,11.20 L 28.08,11.13 L 29.00,10.67 L 29.03,10.70 L 29.03,13.10 L 29.99,12.64 L 30.02,12.61 Z" fill="#1d250f" stroke="none" /><path d="M 20.98,25.75 L 19.96,26.24 L 19.96,27.44 L 20.98,26.95 Z" fill="#202911" stroke="none" /><path d="M 17.94,24.79 L 16.95,25.29 L 16.95,27.76 L 17.94,27.27 L 17.98,27.30 L 17.98,28.43 L 18.01,28.43 L 18.97,27.94 L 18.97,26.77 L 18.90,26.77 L 18.01,27.23 L 17.98,27.20 L 17.98,24.79 Z" fill="#202911" stroke="none" /><path d="M 23.98,23.03 L 23.91,23.03 L 22.99,23.49 L 22.99,24.72 L 23.06,24.72 L 23.98,24.26 Z" fill="#202911" stroke="none" /><path d="M 21.97,22.82 L 21.90,22.82 L 20.98,23.28 L 20.98,24.51 L 21.97,24.02 Z" fill="#202911" stroke="none" /><path d="M 26.00,22.00 L 25.01,22.50 L 25.01,23.74 L 26.00,23.24 Z" fill="#202911" stroke="none" /><path d="M 20.98,20.84 L 20.91,20.84 L 19.96,21.33 L 19.96,22.53 L 19.89,22.60 L 18.97,23.06 L 18.97,25.50 L 19.04,25.50 L 19.96,25.04 L 19.96,22.60 L 20.03,22.53 L 20.98,22.08 Z" fill="#202911" stroke="none" /><path d="M 25.01,17.59 L 24.94,17.59 L 23.98,18.08 L 23.98,19.32 L 25.01,18.83 Z" fill="#202911" stroke="none" /><path d="M 22.99,17.38 L 22.92,17.38 L 21.97,17.87 L 21.97,20.31 L 22.04,20.31 L 22.99,19.81 Z" fill="#202911" stroke="none" /><path d="M 17.98,16.18 L 16.95,16.67 L 16.95,17.87 L 16.88,17.94 L 16.00,18.37 L 16.00,22.08 L 16.95,21.62 L 16.95,20.42 L 17.02,20.34 L 17.94,19.89 L 17.98,19.92 L 17.98,22.29 L 17.91,22.36 L 16.95,22.82 L 16.95,24.05 L 17.02,24.05 L 17.98,23.56 L 17.98,22.36 L 18.05,22.29 L 18.97,21.83 L 18.97,18.15 L 18.90,18.15 L 17.02,19.11 L 16.95,19.07 L 16.95,17.94 L 17.02,17.87 L 17.98,17.41 Z" fill="#202911" stroke="none" /><path d="M 21.97,15.40 L 20.98,15.89 L 20.98,17.09 L 20.91,17.17 L 19.96,17.62 L 19.96,20.10 L 20.98,19.60 L 20.98,17.17 L 21.05,17.09 L 21.97,16.64 Z" fill="#202911" stroke="none" /><path d="M 23.98,14.41 L 23.91,14.41 L 22.99,14.87 L 22.99,16.11 L 23.06,16.11 L 23.98,15.65 Z" fill="#202911" stroke="none" /><path d="M 19.96,13.99 L 18.97,14.48 L 18.97,15.68 L 19.96,15.19 Z" fill="#202911" stroke="none" /><path d="M 32.00,12.86 L 31.01,13.35 L 31.01,14.55 L 30.02,15.05 L 30.02,16.28 L 29.99,16.32 L 29.07,16.78 L 29.03,16.74 L 29.03,15.58 L 28.96,15.58 L 28.01,16.07 L 28.01,17.27 L 27.94,17.34 L 26.00,18.30 L 26.00,20.77 L 26.07,20.77 L 27.02,20.27 L 27.02,19.07 L 27.09,19.00 L 28.01,18.54 L 28.01,17.34 L 28.08,17.27 L 29.00,16.81 L 29.03,16.85 L 29.03,19.25 L 29.10,19.25 L 30.02,18.79 L 30.02,16.32 L 31.01,15.82 L 31.01,14.59 L 32.00,14.09 Z" fill="#202911" stroke="none" /><path d="M 22.99,12.47 L 21.97,12.96 L 21.97,14.16 L 22.04,14.16 L 22.99,13.67 Z" fill="#202911" stroke="none" /><path d="M 28.01,12.40 L 27.94,12.40 L 27.02,12.86 L 27.02,14.09 L 26.00,14.62 L 26.00,15.86 L 27.02,15.36 L 27.02,14.13 L 28.01,13.63 Z" fill="#202911" stroke="none" /><path d="M 27.02,10.45 L 26.00,10.95 L 26.00,12.15 L 26.07,12.15 L 27.02,11.66 Z" fill="#202911" stroke="none" /><path d="M 31.01,8.48 L 30.94,8.48 L 29.03,9.43 L 29.03,10.63 L 29.10,10.63 L 31.01,9.68 Z" fill="#202911" stroke="none" /><path d="M 16.95,24.09 L 16.88,24.09 L 16.00,24.55 L 16.00,25.78 L 16.95,25.32 Z" fill="#1a2212" stroke="none" /><path d="M 6.08,22.04 L 6.08,22.71 L 6.99,22.71 L 6.99,22.50 L 6.96,22.46 Z" fill="#1a2212" stroke="none" /><path d="M 21.90,21.58 L 20.98,22.04 L 20.98,23.28 L 21.05,23.28 L 21.93,22.82 L 21.97,22.85 L 21.97,24.02 L 22.00,24.02 L 22.99,23.52 L 22.99,22.29 L 22.00,22.78 L 21.97,22.75 L 21.97,21.58 Z" fill="#1a2212" stroke="none" /><path d="M 28.01,18.54 L 27.02,19.04 L 27.02,20.24 L 26.95,20.31 L 26.00,20.77 L 26.00,22.00 L 27.02,21.51 L 27.02,20.31 L 27.09,20.24 L 28.01,19.78 Z" fill="#1a2212" stroke="none" /><path d="M 20.98,24.51 L 19.96,25.01 L 19.96,26.24 L 19.00,26.74 L 18.97,26.70 L 18.97,24.30 L 18.01,24.76 L 17.98,24.79 L 17.98,27.23 L 18.05,27.23 L 18.93,26.77 L 18.97,26.81 L 18.97,27.94 L 19.92,27.48 L 19.96,27.44 L 19.96,26.28 L 20.98,25.75 Z" fill="#2c3a12" stroke="none" /><path d="M 19.96,20.10 L 18.97,20.59 L 18.97,21.79 L 18.90,21.86 L 18.05,22.29 L 17.98,22.25 L 17.98,19.89 L 17.91,19.89 L 16.99,20.34 L 16.95,20.38 L 16.95,22.82 L 17.02,22.82 L 17.94,22.36 L 17.98,22.39 L 17.98,23.56 L 18.93,23.10 L 18.97,23.06 L 18.97,21.86 L 19.04,21.79 L 19.96,21.33 Z" fill="#2c3a12" stroke="none" /><path d="M 27.90,19.85 L 27.83,19.85 L 27.06,20.24 L 27.06,20.27 L 27.90,20.27 Z" fill="#2c3a12" stroke="none" /><path d="M 20.98,19.57 L 20.98,22.04 L 21.05,22.04 L 21.93,21.58 L 21.97,21.62 L 21.97,22.78 L 22.04,22.78 L 22.96,22.32 L 22.99,22.36 L 22.99,23.49 L 23.06,23.49 L 23.95,23.03 L 23.98,23.06 L 23.98,24.23 L 24.05,24.23 L 24.97,23.77 L 25.01,23.74 L 25.01,22.53 L 25.08,22.46 L 26.00,22.00 L 26.00,19.57 L 25.92,19.57 L 25.01,20.03 L 25.01,22.46 L 24.94,22.53 L 24.02,22.99 L 23.98,22.96 L 23.98,21.79 L 23.06,22.25 L 22.99,22.22 L 22.99,21.09 L 23.06,21.02 L 23.98,20.56 L 23.98,19.32 L 22.99,19.81 L 22.99,21.02 L 22.92,21.09 L 22.00,21.55 L 21.97,21.51 L 21.97,19.11 L 21.90,19.11 Z" fill="#2c3a12" stroke="none" /><path d="M 31.01,17.06 L 30.94,17.06 L 30.02,17.52 L 30.02,19.96 L 29.95,20.03 L 29.07,20.45 L 29.03,20.42 L 29.03,19.28 L 28.96,19.28 L 28.01,19.78 L 28.01,20.98 L 28.08,20.98 L 29.00,20.52 L 29.03,20.56 L 29.03,21.72 L 30.02,21.23 L 30.02,20.03 L 30.09,19.96 L 31.01,19.50 Z" fill="#2c3a12" stroke="none" /><path d="M 20.98,15.89 L 19.96,16.39 L 19.96,17.62 L 19.00,18.12 L 18.97,18.08 L 18.97,15.68 L 18.01,16.14 L 17.98,16.18 L 17.98,18.61 L 18.05,18.61 L 18.93,18.15 L 18.97,18.19 L 18.97,19.36 L 19.04,19.36 L 19.96,18.90 L 19.96,17.66 L 20.98,17.13 Z" fill="#2c3a12" stroke="none" /><path d="M 22.92,14.91 L 21.97,15.40 L 21.97,17.87 L 22.96,17.38 L 22.99,17.41 L 22.99,18.58 L 23.03,18.58 L 23.98,18.08 L 23.98,16.88 L 23.91,16.88 L 23.03,17.34 L 22.99,17.31 L 22.99,14.91 Z" fill="#2c3a12" stroke="none" /><path d="M 25.96,14.62 L 25.01,15.12 L 25.01,17.55 L 25.08,17.55 L 25.96,17.09 L 26.00,17.13 L 26.00,18.30 L 26.07,18.30 L 27.02,17.80 L 27.02,16.57 L 26.03,17.06 L 26.00,17.02 L 26.00,14.62 Z" fill="#2c3a12" stroke="none" /><path d="M 20.98,13.49 L 20.91,13.49 L 19.96,13.99 L 19.96,15.19 L 20.98,14.69 Z" fill="#2c3a12" stroke="none" /><path d="M 25.01,11.48 L 24.94,11.48 L 23.98,11.97 L 23.98,13.17 L 25.01,12.68 Z" fill="#2c3a12" stroke="none" /><path d="M 32.00,10.38 L 31.01,10.88 L 31.01,12.08 L 30.94,12.15 L 30.02,12.61 L 30.02,13.81 L 29.95,13.88 L 29.10,14.30 L 29.03,14.27 L 29.03,11.87 L 28.01,12.36 L 28.01,14.83 L 28.08,14.83 L 29.00,14.38 L 29.03,14.41 L 29.03,15.54 L 29.10,15.54 L 30.02,15.08 L 30.02,13.88 L 30.09,13.81 L 31.01,13.35 L 31.01,12.15 L 31.08,12.08 L 32.00,11.62 Z" fill="#2c3a12" stroke="none" /><path d="M 32.00,7.98 L 31.93,7.98 L 31.01,8.44 L 31.01,9.64 L 31.08,9.64 L 32.00,9.18 Z" fill="#2c3a12" stroke="none" /><path d="M 17.98,23.56 L 16.95,24.05 L 16.95,25.29 L 17.02,25.29 L 17.98,24.79 Z" fill="#2b3313" stroke="none" /><path d="M 20.98,23.31 L 20.91,23.31 L 19.96,23.81 L 19.96,25.01 L 18.97,25.50 L 18.97,26.74 L 19.04,26.74 L 19.96,26.28 L 19.96,25.04 L 20.98,24.51 Z" fill="#2b3313" stroke="none" /><path d="M 23.95,20.56 L 22.99,21.05 L 22.99,22.29 L 23.95,21.83 L 23.98,21.86 L 23.98,22.99 L 24.05,22.99 L 25.01,22.50 L 25.01,21.30 L 24.94,21.30 L 24.02,21.76 L 23.98,21.72 L 23.98,20.56 Z" fill="#2b3313" stroke="none" /><path d="M 23.98,18.08 L 22.99,18.58 L 22.99,19.81 L 23.98,19.32 Z" fill="#2b3313" stroke="none" /><path d="M 26.00,17.09 L 25.92,17.09 L 25.01,17.55 L 25.01,20.03 L 25.08,20.03 L 26.00,19.57 Z" fill="#2b3313" stroke="none" /><path d="M 21.97,16.64 L 20.98,17.13 L 20.98,18.37 L 21.97,17.87 Z" fill="#2b3313" stroke="none" /><path d="M 31.01,15.82 L 30.94,15.82 L 30.02,16.28 L 30.02,17.52 L 30.09,17.52 L 31.01,17.06 Z" fill="#2b3313" stroke="none" /><path d="M 27.94,14.87 L 27.02,15.33 L 27.02,17.80 L 27.94,17.34 L 28.01,17.38 L 28.01,19.78 L 28.04,19.78 L 29.03,19.28 L 29.03,16.81 L 28.96,16.81 L 28.08,17.27 L 28.01,17.24 L 28.01,14.87 Z" fill="#2b3313" stroke="none" /><path d="M 18.97,14.48 L 16.95,15.47 L 16.95,16.67 L 16.00,17.17 L 16.00,18.37 L 16.07,18.37 L 16.95,17.91 L 16.95,16.71 L 16.99,16.67 L 18.97,15.68 Z" fill="#2b3313" stroke="none" /><path d="M 25.01,13.88 L 23.98,14.38 L 23.98,16.85 L 24.05,16.85 L 25.01,16.35 Z" fill="#2b3313" stroke="none" /><path d="M 22.99,13.67 L 22.00,14.16 L 21.97,14.13 L 21.97,13.00 L 21.90,13.00 L 20.98,13.46 L 20.98,14.66 L 19.96,15.19 L 19.96,16.39 L 18.97,16.88 L 18.97,18.12 L 19.04,18.12 L 19.96,17.66 L 19.96,16.42 L 20.98,15.89 L 20.98,14.69 L 21.02,14.66 L 21.93,14.20 L 21.97,14.23 L 21.97,15.40 L 22.99,14.91 Z" fill="#2b3313" stroke="none" /><path d="M 31.01,10.88 L 30.02,11.37 L 30.02,12.61 L 31.01,12.11 Z" fill="#2b3313" stroke="none" /><path d="M 29.03,10.67 L 28.96,10.67 L 28.01,11.16 L 28.01,12.36 L 28.08,12.36 L 29.03,11.87 Z" fill="#2b3313" stroke="none" /><path d="M 20.98,22.08 L 20.91,22.08 L 19.96,22.57 L 19.96,23.81 L 20.98,23.31 Z" fill="#272d14" stroke="none" /><path d="M 22.99,19.81 L 21.97,20.31 L 21.97,21.55 L 22.04,21.55 L 22.99,21.05 Z" fill="#272d14" stroke="none" /><path d="M 25.01,18.83 L 24.94,18.83 L 23.98,19.32 L 23.98,21.79 L 25.01,21.30 Z" fill="#272d14" stroke="none" /><path d="M 30.02,18.79 L 29.95,18.79 L 29.03,19.25 L 29.03,20.49 L 30.02,19.99 Z" fill="#272d14" stroke="none" /><path d="M 21.97,17.87 L 20.98,18.37 L 20.98,19.57 L 20.03,20.06 L 19.96,20.03 L 19.96,18.90 L 19.89,18.90 L 18.97,19.36 L 18.97,20.59 L 19.92,20.13 L 19.96,20.17 L 19.96,21.33 L 20.98,20.84 L 20.98,19.60 L 21.97,19.11 Z" fill="#272d14" stroke="none" /><path d="M 0.04,17.80 L 0.04,19.00 L 0.11,19.00 L 0.21,18.93 L 0.21,17.87 Z" fill="#272d14" stroke="none" /><path d="M 32.00,16.57 L 31.93,16.57 L 31.01,17.02 L 31.01,20.27 L 31.79,20.27 L 31.79,19.14 L 31.86,19.07 L 32.00,19.00 Z" fill="#272d14" stroke="none" /><path d="M 23.91,15.65 L 22.99,16.11 L 22.99,17.34 L 23.06,17.34 L 23.95,16.88 L 23.98,16.92 L 23.98,18.08 L 24.02,18.08 L 25.01,17.59 L 25.01,16.35 L 24.02,16.85 L 23.98,16.81 L 23.98,15.65 Z" fill="#272d14" stroke="none" /><path d="M 19.96,15.19 L 18.97,15.68 L 18.97,16.88 L 19.04,16.88 L 19.96,16.42 Z" fill="#272d14" stroke="none" /><path d="M 21.97,14.20 L 21.90,14.20 L 20.98,14.66 L 20.98,15.89 L 21.97,15.40 Z" fill="#272d14" stroke="none" /><path d="M 32.00,14.09 L 31.93,14.09 L 31.01,14.55 L 31.01,15.79 L 31.08,15.79 L 32.00,15.33 Z" fill="#272d14" stroke="none" /><path d="M 28.01,13.63 L 27.94,13.63 L 27.02,14.09 L 27.02,15.33 L 26.00,15.86 L 26.00,17.06 L 26.07,17.06 L 27.02,16.57 L 27.02,15.36 L 28.01,14.87 Z" fill="#272d14" stroke="none" /><path d="M 30.02,12.61 L 29.03,13.10 L 29.03,14.34 L 30.02,13.85 Z" fill="#272d14" stroke="none" /><path d="M 26.00,10.98 L 25.92,10.98 L 25.01,11.44 L 25.01,12.64 L 23.98,13.17 L 23.98,14.38 L 24.05,14.38 L 24.97,13.92 L 25.01,13.95 L 25.01,15.12 L 26.00,14.62 L 26.00,13.39 L 25.08,13.85 L 25.01,13.81 L 25.01,12.68 L 26.00,12.19 Z" fill="#272d14" stroke="none" /><path d="M 32.00,9.18 L 31.93,9.18 L 30.02,10.14 L 30.02,11.37 L 32.00,10.38 Z" fill="#272d14" stroke="none" /><path d="M 14.02,26.03 L 14.02,27.27 L 15.05,27.76 L 15.05,26.53 L 14.09,26.03 Z" fill="#2f3c19" stroke="none" /><path d="M 15.05,22.85 L 15.05,24.09 L 16.00,24.55 L 16.00,23.31 L 15.12,22.85 Z" fill="#2f3c19" stroke="none" /><path d="M 12.04,18.90 L 12.04,20.10 L 12.96,20.56 L 13.03,20.63 L 13.03,21.83 L 13.99,22.32 L 14.02,22.32 L 14.02,21.16 L 14.06,21.12 L 14.98,21.58 L 15.05,21.58 L 15.05,20.45 L 15.08,20.42 L 15.93,20.84 L 16.00,20.84 L 16.00,19.60 L 15.08,19.14 L 15.05,19.14 L 15.05,20.31 L 14.98,20.34 L 14.09,19.89 L 14.02,19.89 L 14.02,21.02 L 13.95,21.05 L 13.10,20.63 L 13.03,20.56 L 13.03,19.36 L 12.11,18.90 Z" fill="#2f3c19" stroke="none" /><path d="M 3.04,16.81 L 2.97,16.81 L 2.97,17.98 L 2.93,18.01 L 2.05,17.55 L 1.98,17.55 L 1.98,18.79 L 2.90,19.25 L 2.97,19.25 L 2.97,18.08 L 3.00,18.05 L 3.99,18.54 L 3.99,17.31 Z" fill="#2f3c19" stroke="none" /><path d="M 0.00,14.09 L 0.00,16.57 L 0.92,17.02 L 0.99,17.02 L 0.99,14.55 L 0.07,14.09 Z" fill="#2f3c19" stroke="none" /><path d="M 9.01,13.67 L 9.01,14.91 L 9.96,15.36 L 10.03,15.43 L 10.03,16.64 L 10.07,16.67 L 11.02,17.13 L 11.02,15.96 L 11.09,15.93 L 11.97,16.39 L 12.04,16.39 L 12.04,15.26 L 12.11,15.22 L 12.96,15.65 L 13.03,15.72 L 13.03,18.15 L 13.95,18.61 L 14.02,18.61 L 14.02,16.18 L 13.10,15.72 L 13.03,15.65 L 13.03,14.48 L 13.00,14.45 L 11.09,13.49 L 11.02,13.49 L 11.02,14.62 L 10.98,14.66 Z" fill="#2f3c19" stroke="none" /><path d="M 6.99,11.48 L 6.99,13.88 L 7.95,14.38 L 8.02,14.38 L 8.02,11.97 L 7.06,11.48 Z" fill="#2f3c19" stroke="none" /><path d="M 0.99,10.88 L 0.99,12.11 L 1.98,12.61 L 1.98,11.37 Z" fill="#2f3c19" stroke="none" /><path d="M 0.00,7.98 L 0.00,9.18 L 0.92,9.64 L 0.99,9.64 L 0.99,8.44 L 0.07,7.98 Z" fill="#2f3c19" stroke="none" /><path d="M 9.01,23.52 L 9.01,24.76 L 10.03,25.25 L 10.03,24.02 L 9.08,23.52 Z" fill="#33431c" stroke="none" /><path d="M 6.99,22.50 L 6.99,23.74 L 7.95,24.23 L 8.02,24.23 L 8.02,22.99 Z" fill="#33431c" stroke="none" /><path d="M 3.99,22.25 L 3.99,23.42 L 4.98,23.91 L 4.98,22.71 L 4.06,22.25 Z" fill="#33431c" stroke="none" /><path d="M 4.98,20.27 L 4.98,21.51 L 6.00,22.00 L 6.00,20.77 Z" fill="#33431c" stroke="none" /><path d="M 10.03,20.34 L 10.03,22.82 L 10.95,23.28 L 11.02,23.28 L 11.02,22.11 L 11.06,22.08 L 12.04,22.57 L 12.04,21.40 L 12.11,21.37 L 12.96,21.79 L 13.03,21.86 L 13.03,24.30 L 13.99,24.79 L 14.02,24.79 L 14.02,22.39 L 14.09,22.36 L 14.98,22.82 L 15.05,22.82 L 15.05,21.65 L 15.08,21.62 L 16.00,22.08 L 16.00,20.84 L 15.08,20.38 L 15.05,20.38 L 15.05,21.55 L 15.01,21.58 L 14.02,21.09 L 14.02,22.25 L 13.95,22.29 L 13.10,21.86 L 13.03,21.79 L 13.03,20.59 L 12.08,20.10 L 12.04,20.10 L 12.04,21.26 L 12.01,21.30 L 10.10,20.34 Z" fill="#33431c" stroke="none" /><path d="M 0.99,18.30 L 0.99,20.73 L 1.91,21.19 L 1.98,21.26 L 1.98,22.43 L 2.90,22.89 L 2.97,22.89 L 2.97,21.72 L 2.05,21.26 L 1.98,21.19 L 1.98,18.75 L 1.06,18.30 Z" fill="#33431c" stroke="none" /><path d="M 8.02,18.08 L 8.02,19.32 L 9.01,19.81 L 9.01,18.58 Z" fill="#33431c" stroke="none" /><path d="M 4.03,17.31 L 3.99,17.31 L 3.99,18.47 L 3.96,18.51 L 3.04,18.05 L 2.97,18.05 L 2.97,20.49 L 3.92,20.98 L 3.99,20.98 L 3.99,18.61 L 4.06,18.58 L 4.98,19.04 L 4.98,17.80 Z" fill="#33431c" stroke="none" /><path d="M 11.06,15.89 L 11.02,15.89 L 11.02,17.06 L 10.98,17.09 L 10.03,16.64 L 10.03,17.87 L 10.98,18.37 L 11.02,18.37 L 11.02,17.20 L 11.06,17.17 L 11.97,17.62 L 12.04,17.62 L 12.04,16.39 Z" fill="#33431c" stroke="none" /><path d="M 6.00,15.86 L 6.00,18.33 L 6.92,18.79 L 6.99,18.79 L 6.99,16.35 Z" fill="#33431c" stroke="none" /><path d="M 13.03,14.48 L 13.03,15.68 L 14.98,16.67 L 15.05,16.67 L 15.05,15.47 Z" fill="#33431c" stroke="none" /><path d="M 6.99,13.88 L 6.99,15.12 L 7.95,15.61 L 8.02,15.61 L 8.02,14.38 Z" fill="#33431c" stroke="none" /><path d="M 10.03,13.00 L 10.03,14.20 L 10.95,14.66 L 11.02,14.66 L 11.02,13.46 L 10.10,13.00 Z" fill="#33431c" stroke="none" /><path d="M 5.05,12.89 L 4.98,12.89 L 4.98,14.06 L 4.94,14.09 L 4.06,13.63 L 3.99,13.63 L 3.99,16.07 L 4.94,16.57 L 4.98,16.57 L 4.98,14.16 L 5.02,14.13 L 6.00,14.62 L 6.00,13.39 Z" fill="#33431c" stroke="none" /><path d="M 6.00,10.98 L 6.00,12.19 L 6.92,12.64 L 6.99,12.64 L 6.99,11.44 L 6.08,10.98 Z" fill="#33431c" stroke="none" /><path d="M 0.99,9.68 L 0.99,10.81 L 0.95,10.84 L 0.00,10.38 L 0.00,14.09 L 0.92,14.55 L 0.99,14.55 L 0.99,13.42 L 1.02,13.39 L 1.91,13.81 L 1.98,13.88 L 1.98,16.25 L 1.94,16.28 L 1.06,15.82 L 0.99,15.82 L 0.99,17.06 L 1.91,17.52 L 1.98,17.52 L 1.98,16.35 L 2.01,16.32 L 2.90,16.78 L 2.97,16.78 L 2.97,13.10 L 1.06,12.15 L 0.99,12.08 L 0.99,10.95 L 1.02,10.91 L 1.98,11.37 L 1.98,10.14 L 1.06,9.68 Z" fill="#33431c" stroke="none" /><path d="M 2.97,9.47 L 2.97,10.67 L 3.99,11.16 L 3.99,9.96 L 3.04,9.47 Z" fill="#33431c" stroke="none" /><path d="M 11.09,22.08 L 11.02,22.08 L 11.02,23.24 L 10.98,23.28 L 10.10,22.82 L 10.03,22.82 L 10.03,24.02 L 10.98,24.51 L 11.02,24.51 L 11.02,23.35 L 11.06,23.31 L 12.04,23.81 L 12.04,22.57 Z" fill="#2a361d" stroke="none" /><path d="M 4.98,19.04 L 4.98,20.27 L 6.00,20.80 L 6.00,22.00 L 6.99,22.50 L 6.99,21.26 L 6.00,20.77 L 6.00,19.53 Z" fill="#2a361d" stroke="none" /><path d="M 0.00,16.57 L 0.00,17.80 L 0.92,18.26 L 0.99,18.26 L 0.99,17.02 L 0.07,16.57 Z" fill="#2a361d" stroke="none" /><path d="M 12.04,23.81 L 12.04,25.04 L 13.03,25.54 L 13.03,26.77 L 13.95,27.23 L 14.02,27.23 L 14.02,26.07 L 14.06,26.03 L 15.05,26.53 L 15.05,24.05 L 14.02,23.56 L 14.02,25.96 L 13.99,26.00 L 13.03,25.50 L 13.03,24.30 Z" fill="#485e1d" stroke="none" /><path d="M 1.98,18.79 L 1.98,21.23 L 2.90,21.69 L 2.97,21.76 L 2.97,22.92 L 3.99,23.42 L 3.99,22.29 L 4.03,22.25 L 4.91,22.71 L 4.98,22.71 L 4.98,21.47 L 4.06,21.02 L 3.99,21.02 L 3.99,22.18 L 3.96,22.22 L 3.04,21.76 L 2.97,21.69 L 2.97,19.25 L 2.05,18.79 Z" fill="#485e1d" stroke="none" /><path d="M 4.98,16.57 L 4.98,19.04 L 6.00,19.57 L 6.00,20.80 L 6.99,21.30 L 6.99,22.50 L 8.02,23.03 L 8.02,24.26 L 8.94,24.72 L 9.01,24.72 L 9.01,23.56 L 9.04,23.52 L 10.03,24.02 L 10.03,21.55 L 9.01,21.05 L 9.01,23.45 L 8.97,23.49 L 8.05,23.03 L 8.02,22.99 L 8.02,21.79 L 6.99,21.26 L 6.99,20.10 L 7.03,20.06 L 8.02,20.56 L 8.02,19.32 L 7.06,18.83 L 6.99,18.83 L 6.99,19.99 L 6.96,20.03 L 6.04,19.57 L 6.00,19.53 L 6.00,17.06 Z" fill="#485e1d" stroke="none" /><path d="M 12.04,16.42 L 12.04,18.90 L 13.03,19.39 L 13.03,20.59 L 13.07,20.63 L 14.02,21.09 L 14.02,19.92 L 14.06,19.89 L 15.05,20.38 L 15.05,19.21 L 15.08,19.18 L 15.93,19.60 L 16.00,19.60 L 16.00,18.37 L 15.08,17.91 L 15.05,17.91 L 15.05,19.07 L 15.01,19.11 L 14.09,18.65 L 14.02,18.65 L 14.02,19.81 L 13.99,19.85 L 13.07,19.39 L 13.03,19.36 L 13.03,16.88 L 12.11,16.42 Z" fill="#485e1d" stroke="none" /><path d="M 9.01,16.14 L 9.01,18.58 L 10.03,19.11 L 10.03,20.34 L 10.95,20.80 L 11.02,20.80 L 11.02,19.57 L 10.03,19.07 L 10.03,16.64 L 9.08,16.14 Z" fill="#485e1d" stroke="none" /><path d="M 15.05,15.51 L 15.05,16.71 L 16.00,17.17 L 16.00,15.96 L 15.12,15.51 Z" fill="#485e1d" stroke="none" /><path d="M 6.00,13.39 L 6.00,15.86 L 6.92,16.32 L 6.99,16.39 L 6.99,17.59 L 8.02,18.08 L 8.02,16.85 L 7.06,16.39 L 6.99,16.32 L 6.99,13.88 Z" fill="#485e1d" stroke="none" /><path d="M 0.99,13.35 L 0.99,15.82 L 1.98,16.32 L 1.98,17.55 L 2.90,18.01 L 2.97,18.01 L 2.97,16.85 L 3.00,16.81 L 3.99,17.31 L 3.99,16.07 L 3.04,15.58 L 2.97,15.58 L 2.97,16.74 L 2.93,16.78 L 2.01,16.32 L 1.98,16.28 L 1.98,13.85 Z" fill="#485e1d" stroke="none" /><path d="M 8.02,11.97 L 8.02,13.17 L 9.01,13.67 L 9.01,12.47 Z" fill="#485e1d" stroke="none" /><path d="M 1.98,10.17 L 1.98,12.61 L 2.90,13.07 L 2.97,13.14 L 2.97,14.34 L 3.92,14.83 L 3.99,14.83 L 3.99,13.67 L 4.03,13.63 L 4.91,14.09 L 4.98,14.09 L 4.98,12.86 L 4.06,12.40 L 3.99,12.40 L 3.99,13.56 L 3.96,13.60 L 3.04,13.14 L 2.97,13.07 L 2.97,10.63 L 2.05,10.17 Z" fill="#485e1d" stroke="none" /><path d="M 3.99,9.96 L 3.99,11.16 L 4.98,11.66 L 4.98,10.45 Z" fill="#485e1d" stroke="none" /><path d="M 14.02,22.32 L 14.02,23.56 L 14.98,24.05 L 15.05,24.05 L 15.05,22.82 Z" fill="#45521f" stroke="none" /><path d="M 6.99,20.06 L 6.99,21.30 L 7.95,21.76 L 8.02,21.83 L 8.02,23.03 L 8.94,23.49 L 9.01,23.49 L 9.01,22.29 L 8.09,21.83 L 8.02,21.76 L 8.02,20.56 L 7.06,20.06 Z" fill="#45521f" stroke="none" /><path d="M 4.03,19.78 L 3.99,19.78 L 3.99,20.94 L 3.96,20.98 L 2.97,20.49 L 2.97,21.72 L 3.92,22.22 L 3.99,22.22 L 3.99,21.05 L 4.03,21.02 L 4.91,21.47 L 4.98,21.47 L 4.98,20.27 Z" fill="#45521f" stroke="none" /><path d="M 9.01,18.58 L 9.01,21.05 L 9.96,21.55 L 10.03,21.55 L 10.03,19.07 Z" fill="#45521f" stroke="none" /><path d="M 11.02,18.37 L 11.02,20.84 L 11.97,21.30 L 12.04,21.37 L 12.04,23.81 L 13.03,24.30 L 13.03,21.83 L 12.11,21.37 L 12.04,21.30 L 12.04,18.86 Z" fill="#45521f" stroke="none" /><path d="M 6.99,17.59 L 6.99,18.83 L 8.02,19.32 L 8.02,18.08 L 7.06,17.59 Z" fill="#45521f" stroke="none" /><path d="M 14.02,17.41 L 14.02,18.65 L 15.05,19.14 L 15.05,17.91 L 14.09,17.41 Z" fill="#45521f" stroke="none" /><path d="M 0.99,17.06 L 0.99,18.30 L 1.91,18.75 L 1.98,18.75 L 1.98,17.52 L 1.06,17.06 Z" fill="#45521f" stroke="none" /><path d="M 12.04,15.19 L 12.04,16.42 L 12.96,16.88 L 13.03,16.88 L 13.03,15.68 Z" fill="#45521f" stroke="none" /><path d="M 8.02,14.41 L 8.02,16.88 L 8.94,17.34 L 9.01,17.34 L 9.01,14.87 L 8.09,14.41 Z" fill="#45521f" stroke="none" /><path d="M 4.98,14.13 L 4.98,15.36 L 6.00,15.86 L 6.00,14.62 L 5.05,14.13 Z" fill="#45521f" stroke="none" /><path d="M 2.97,11.87 L 2.97,13.10 L 3.00,13.14 L 3.92,13.60 L 3.99,13.60 L 3.99,12.43 L 4.03,12.40 L 4.91,12.86 L 4.98,12.86 L 4.98,11.73 L 5.05,11.69 L 6.00,12.19 L 6.00,13.39 L 6.99,13.88 L 6.99,12.64 L 6.00,12.15 L 6.00,10.95 L 4.98,10.45 L 4.98,11.58 L 4.94,11.62 L 3.99,11.16 L 3.99,12.33 L 3.96,12.36 Z" fill="#45521f" stroke="none" /><path d="M 0.00,9.18 L 0.00,10.38 L 0.95,10.88 L 0.99,10.88 L 0.99,9.71 L 1.02,9.68 L 2.90,10.63 L 2.97,10.63 L 2.97,9.43 L 1.06,8.48 L 0.99,8.48 L 0.99,9.61 L 0.95,9.64 L 0.07,9.18 Z" fill="#45521f" stroke="none" /><path d="M 13.03,24.30 L 13.03,25.54 L 13.95,26.00 L 14.02,26.00 L 14.02,24.79 Z" fill="#404921" stroke="none" /><path d="M 15.05,24.09 L 15.05,26.53 L 15.93,26.98 L 16.00,26.98 L 16.00,24.55 L 15.12,24.09 Z" fill="#404921" stroke="none" /><path d="M 15.05,21.62 L 15.05,22.85 L 16.00,23.31 L 16.00,22.08 L 15.12,21.62 Z" fill="#404921" stroke="none" /><path d="M 8.02,19.32 L 8.02,21.79 L 9.01,22.29 L 9.01,19.81 Z" fill="#404921" stroke="none" /><path d="M 3.99,18.54 L 3.99,19.78 L 4.98,20.27 L 4.98,19.04 Z" fill="#404921" stroke="none" /><path d="M 6.00,18.33 L 6.00,19.57 L 6.92,20.03 L 6.99,20.03 L 6.99,18.79 L 6.08,18.33 Z" fill="#404921" stroke="none" /><path d="M 13.03,18.15 L 13.03,19.39 L 13.95,19.85 L 14.02,19.85 L 14.02,18.61 L 13.10,18.15 Z" fill="#404921" stroke="none" /><path d="M 11.06,17.13 L 11.02,17.13 L 11.02,18.30 L 10.98,18.33 L 10.03,17.87 L 10.03,19.11 L 10.95,19.57 L 11.02,19.57 L 11.02,18.44 L 11.06,18.40 L 11.97,18.86 L 12.04,18.86 L 12.04,17.62 Z" fill="#404921" stroke="none" /><path d="M 14.02,16.18 L 14.02,17.41 L 15.93,18.37 L 16.00,18.37 L 16.00,17.17 Z" fill="#404921" stroke="none" /><path d="M 6.99,15.12 L 6.99,16.35 L 8.02,16.88 L 8.02,18.08 L 9.01,18.58 L 9.01,17.34 L 8.02,16.85 L 8.02,15.61 Z" fill="#404921" stroke="none" /><path d="M 2.97,14.34 L 2.97,15.58 L 3.92,16.04 L 3.99,16.11 L 3.99,17.31 L 4.03,17.34 L 4.98,17.80 L 4.98,16.64 L 5.02,16.60 L 5.93,17.06 L 6.00,17.06 L 6.00,15.86 L 5.97,15.82 L 5.05,15.36 L 4.98,15.36 L 4.98,16.49 L 4.91,16.53 L 4.06,16.11 L 3.99,16.04 L 3.99,14.83 Z" fill="#404921" stroke="none" /><path d="M 9.01,12.47 L 9.01,13.60 L 8.97,13.63 L 8.02,13.17 L 8.02,14.41 L 9.01,14.91 L 9.01,16.14 L 10.03,16.64 L 10.03,15.40 L 9.01,14.87 L 9.01,13.74 L 9.04,13.70 L 9.96,14.16 L 10.03,14.16 L 10.03,12.96 Z" fill="#404921" stroke="none" /><path d="M 4.98,11.66 L 4.98,12.89 L 6.00,13.39 L 6.00,12.15 Z" fill="#404921" stroke="none" /><path d="M 2.97,10.67 L 2.97,11.87 L 3.92,12.36 L 3.99,12.36 L 3.99,11.16 L 3.04,10.67 Z" fill="#404921" stroke="none" /><path d="M 1.94,6.99 L 0.99,7.49 L 0.99,7.52 L 1.80,7.91 L 1.87,7.98 L 1.02,8.41 L 0.99,8.48 L 1.91,8.94 L 2.05,8.94 L 2.90,8.51 L 2.90,8.44 L 1.98,7.98 L 2.05,7.91 L 2.93,7.49 L 2.93,7.45 L 2.01,6.99 Z" fill="#485d27" stroke="none" /><path d="M 17.94,14.98 L 17.06,14.52 L 16.95,14.52 L 15.05,15.47 L 15.05,15.51 L 15.96,15.96 L 16.04,15.96 L 17.94,15.01 Z" fill="#4f682b" stroke="none" /><path d="M 12.04,13.95 L 12.08,14.02 L 13.00,14.48 L 13.07,14.48 L 13.99,14.02 L 13.99,13.99 L 13.00,13.49 Z" fill="#4f682b" stroke="none" /><path d="M 17.02,12.47 L 17.06,12.54 L 18.97,13.49 L 19.07,13.49 L 19.99,13.03 L 19.99,12.96 L 18.08,12.01 L 17.94,12.01 Z" fill="#4f682b" stroke="none" /><path d="M 6.99,10.45 L 6.99,10.53 L 7.91,10.98 L 8.02,10.98 L 8.94,10.53 L 8.94,10.45 L 8.02,10.00 L 7.91,10.00 Z" fill="#4f682b" stroke="none" /><path d="M 29.00,9.43 L 28.04,8.97 L 27.06,9.47 L 27.06,9.50 L 27.97,9.96 L 28.04,9.96 L 28.96,9.50 Z" fill="#4f682b" stroke="none" /><path d="M 5.97,8.97 L 5.97,9.01 L 6.89,9.47 L 7.03,9.47 L 7.95,9.01 L 7.91,8.94 L 6.99,8.48 L 6.92,8.48 Z" fill="#4f682b" stroke="none" /><path d="M 2.97,8.44 L 2.97,8.51 L 3.89,8.97 L 3.99,8.97 L 4.91,8.51 L 4.91,8.44 L 3.99,7.98 L 3.89,7.98 Z" fill="#4f682b" stroke="none" /><path d="M 29.07,7.45 L 29.07,7.49 L 30.98,8.44 L 31.08,8.44 L 31.96,7.98 L 31.96,7.95 L 30.06,6.99 L 29.99,6.99 Z" fill="#4f682b" stroke="none" /><path d="M 4.91,6.43 L 4.06,6.00 L 3.92,6.00 L 2.01,6.96 L 2.01,7.03 L 2.86,7.45 L 3.00,7.45 L 4.91,6.50 Z" fill="#4f682b" stroke="none" /><path d="M 27.02,6.43 L 26.10,5.97 L 26.00,5.97 L 24.05,6.96 L 23.06,6.46 L 22.04,6.96 L 22.04,6.99 L 22.96,7.45 L 23.10,7.45 L 23.98,6.99 L 24.09,6.99 L 24.97,7.45 L 24.94,7.52 L 24.05,7.95 L 24.05,7.98 L 25.01,8.48 L 23.03,9.47 L 23.03,9.50 L 24.05,10.00 L 26.03,9.01 L 26.00,8.94 L 25.08,8.48 L 26.03,7.98 L 26.03,7.95 L 25.15,7.52 L 25.11,7.45 L 27.02,6.50 Z" fill="#4f682b" stroke="none" /><path d="M 13.00,7.45 L 13.03,7.52 L 13.95,7.98 L 14.02,7.98 L 14.98,7.49 L 15.93,7.95 L 15.96,7.98 L 15.93,8.02 L 13.99,8.97 L 13.99,9.01 L 15.96,10.00 L 16.04,10.00 L 17.02,9.50 L 17.87,9.92 L 17.94,10.00 L 17.02,10.45 L 17.02,10.53 L 17.94,10.98 L 18.05,10.98 L 18.97,10.53 L 18.97,10.45 L 18.05,10.00 L 18.12,9.92 L 18.97,9.50 L 19.04,9.50 L 19.99,10.00 L 21.02,9.50 L 21.02,9.47 L 18.05,7.98 L 17.98,7.98 L 17.02,8.48 L 16.07,8.02 L 16.04,7.98 L 16.07,7.95 L 18.01,6.99 L 18.01,6.96 L 16.04,5.97 L 15.96,5.97 L 15.01,6.46 L 15.01,6.50 L 15.93,6.96 L 15.89,7.03 L 15.05,7.45 L 14.94,7.45 L 14.06,6.99 L 13.92,6.99 Z" fill="#4f682b" stroke="none" /><path d="M 7.91,5.97 L 6.99,6.43 L 6.99,6.50 L 7.91,6.96 L 7.84,7.03 L 6.96,7.45 L 6.96,7.49 L 7.98,7.98 L 8.97,7.49 L 8.97,7.45 L 8.09,7.03 L 8.02,6.96 L 8.94,6.50 L 8.94,6.46 L 7.98,5.97 Z" fill="#4f682b" stroke="none" /><path d="M 23.06,5.44 L 23.10,5.51 L 24.02,5.97 L 24.09,5.97 L 25.04,5.47 L 25.04,5.44 L 24.12,4.98 L 23.98,4.98 Z" fill="#4f682b" stroke="none" /><path d="M 10.00,3.92 L 10.00,3.99 L 11.90,4.94 L 12.04,4.94 L 12.93,4.49 L 13.03,4.49 L 13.92,4.94 L 14.06,4.94 L 14.94,4.49 L 15.05,4.49 L 15.93,4.94 L 16.07,4.94 L 16.99,4.49 L 16.95,4.42 L 16.04,3.96 L 15.96,3.96 L 15.01,4.45 L 14.06,3.99 L 14.02,3.96 L 14.06,3.92 L 14.94,3.50 L 14.98,3.43 L 13.00,2.44 L 11.97,2.93 L 11.97,2.97 L 13.95,3.96 L 13.00,4.45 L 11.02,3.46 L 10.91,3.46 Z" fill="#4f682b" stroke="none" /><path d="M 18.05,1.91 L 18.05,1.98 L 18.97,2.44 L 19.07,2.44 L 19.96,1.98 L 19.96,1.94 L 19.04,1.48 L 18.90,1.48 Z" fill="#4f682b" stroke="none" /><path d="M 16.92,0.42 L 16.07,0.00 L 15.93,0.00 L 14.09,0.92 L 14.06,0.99 L 15.01,1.45 L 16.92,0.49 Z" fill="#4f682b" stroke="none" /><path d="M 17.02,13.49 L 17.02,13.53 L 18.93,14.48 L 19.00,14.48 L 19.96,13.99 L 19.96,13.95 L 18.05,13.00 L 17.98,13.00 Z" fill="#6f902c" stroke="none" /><path d="M 16.99,11.48 L 16.04,10.98 L 15.96,10.98 L 14.02,11.97 L 13.95,11.97 L 13.07,11.51 L 12.93,11.51 L 12.04,11.97 L 11.94,11.97 L 11.06,11.51 L 10.91,11.51 L 9.08,12.43 L 9.04,12.50 L 9.96,12.96 L 10.10,12.96 L 11.97,12.01 L 12.96,12.50 L 13.95,12.01 L 14.02,12.01 L 15.01,12.50 L 16.99,11.51 Z" fill="#6f902c" stroke="none" /><path d="M 5.02,10.45 L 5.02,10.49 L 5.93,10.95 L 6.08,10.95 L 6.92,10.53 L 6.92,10.45 L 6.00,10.00 L 5.90,10.00 Z" fill="#6f902c" stroke="none" /><path d="M 15.96,9.96 L 15.05,9.50 L 14.94,9.50 L 13.03,10.45 L 13.03,10.53 L 13.95,10.98 L 14.06,10.98 L 15.96,10.03 Z" fill="#6f902c" stroke="none" /><path d="M 5.93,8.97 L 4.98,8.48 L 4.91,8.48 L 3.00,9.43 L 3.00,9.47 L 3.96,9.96 L 4.03,9.96 L 5.93,9.01 Z" fill="#6f902c" stroke="none" /><path d="M 28.08,7.95 L 28.11,8.02 L 29.03,8.48 L 28.11,8.94 L 28.08,9.01 L 29.00,9.47 L 31.01,8.48 L 30.98,8.41 L 29.14,7.49 L 29.00,7.49 Z" fill="#6f902c" stroke="none" /><path d="M 17.02,7.45 L 17.06,7.52 L 17.98,7.98 L 18.05,7.98 L 19.00,7.49 L 19.00,7.45 L 18.08,6.99 L 17.94,6.99 Z" fill="#6f902c" stroke="none" /><path d="M 5.97,7.95 L 6.00,8.02 L 6.92,8.48 L 6.99,8.48 L 7.98,7.98 L 9.92,8.97 L 9.85,9.04 L 8.97,9.47 L 8.97,9.50 L 9.85,9.92 L 9.92,10.00 L 9.89,10.03 L 7.03,11.44 L 7.06,11.51 L 7.98,11.97 L 8.05,11.97 L 10.95,10.53 L 10.95,10.45 L 10.03,10.00 L 10.10,9.92 L 10.95,9.50 L 11.02,9.50 L 11.87,9.92 L 11.94,10.00 L 11.02,10.45 L 11.02,10.53 L 11.94,10.98 L 12.04,10.98 L 12.96,10.53 L 12.96,10.45 L 12.04,10.00 L 12.11,9.92 L 13.99,9.01 L 13.99,8.97 L 12.96,8.48 L 11.02,9.47 L 10.95,9.47 L 10.10,9.04 L 10.03,8.97 L 10.07,8.94 L 10.95,8.51 L 10.95,8.44 L 9.08,7.52 L 9.04,7.45 L 9.92,6.99 L 10.00,6.99 L 10.98,7.49 L 11.97,6.99 L 11.97,6.96 L 10.98,6.46 L 10.00,6.96 L 9.92,6.96 L 8.94,6.46 L 7.98,6.96 L 7.98,6.99 L 8.87,7.42 L 8.90,7.45 L 8.87,7.52 L 8.02,7.95 L 7.91,7.95 L 7.03,7.49 L 6.89,7.49 Z" fill="#6f902c" stroke="none" /><path d="M 29.00,6.46 L 28.08,6.00 L 27.94,6.00 L 26.10,6.92 L 26.07,6.99 L 26.98,7.45 L 27.13,7.45 L 28.96,6.53 Z" fill="#6f902c" stroke="none" /><path d="M 25.08,5.44 L 25.11,5.51 L 26.03,5.97 L 26.98,5.51 L 26.95,5.44 L 26.03,4.98 Z" fill="#6f902c" stroke="none" /><path d="M 6.00,4.98 L 6.00,5.02 L 7.91,5.97 L 7.98,5.97 L 8.94,5.47 L 8.94,5.44 L 7.03,4.49 L 6.96,4.49 Z" fill="#6f902c" stroke="none" /><path d="M 8.02,3.96 L 8.05,4.03 L 10.95,5.47 L 11.94,4.98 L 12.01,4.98 L 12.86,5.40 L 12.93,5.47 L 12.89,5.51 L 12.01,5.93 L 12.01,6.00 L 12.93,6.46 L 13.03,6.46 L 13.95,6.00 L 13.95,5.93 L 13.03,5.47 L 13.10,5.40 L 13.95,4.98 L 14.02,4.98 L 15.96,5.97 L 16.04,5.97 L 16.99,5.47 L 16.99,5.44 L 15.01,4.45 L 14.02,4.94 L 13.95,4.94 L 13.00,4.45 L 12.01,4.94 L 11.94,4.94 L 9.08,3.50 L 8.94,3.50 Z" fill="#6f902c" stroke="none" /><path d="M 10.03,3.00 L 10.98,3.46 L 11.97,2.97 L 11.97,2.93 L 11.06,2.47 L 10.98,2.47 L 10.07,2.93 Z" fill="#6f902c" stroke="none" /><path d="M 16.00,2.93 L 16.00,2.97 L 16.99,3.46 L 17.98,2.97 L 18.05,2.97 L 18.90,3.39 L 18.97,3.46 L 18.05,3.92 L 18.05,3.99 L 18.97,4.45 L 18.90,4.52 L 18.01,4.94 L 18.01,4.98 L 18.90,5.40 L 18.97,5.47 L 18.05,5.93 L 18.05,6.00 L 19.96,6.96 L 20.10,6.96 L 20.98,6.50 L 21.09,6.50 L 21.97,6.96 L 21.93,7.03 L 20.06,7.95 L 20.06,8.02 L 20.98,8.48 L 21.05,8.48 L 22.99,7.49 L 23.06,7.49 L 23.91,7.91 L 23.98,7.98 L 22.04,8.97 L 22.04,9.01 L 22.96,9.47 L 22.92,9.54 L 22.04,9.96 L 22.08,10.03 L 22.96,10.45 L 22.99,10.49 L 22.96,10.53 L 22.00,10.98 L 20.06,10.00 L 19.96,10.00 L 19.04,10.45 L 19.04,10.53 L 20.91,11.44 L 20.94,11.51 L 20.06,11.97 L 19.96,11.97 L 19.07,11.51 L 18.93,11.51 L 18.01,11.97 L 18.01,12.01 L 19.00,12.50 L 20.03,12.01 L 20.98,12.50 L 20.06,12.96 L 20.06,13.03 L 20.91,13.46 L 21.05,13.46 L 21.97,13.00 L 21.97,12.96 L 21.09,12.54 L 21.05,12.50 L 21.09,12.47 L 22.00,12.01 L 22.92,12.47 L 23.03,12.47 L 23.95,12.01 L 23.95,11.94 L 23.13,11.55 L 23.10,11.51 L 23.13,11.44 L 23.98,11.02 L 24.09,11.02 L 25.01,11.48 L 26.00,10.98 L 26.00,10.95 L 25.08,10.49 L 25.01,10.49 L 24.05,10.98 L 23.06,10.49 L 24.02,10.00 L 24.02,9.96 L 23.13,9.54 L 23.10,9.47 L 25.01,8.51 L 25.01,8.44 L 24.09,7.98 L 24.16,7.91 L 25.04,7.49 L 25.04,7.45 L 24.05,6.96 L 23.06,7.45 L 22.99,7.45 L 22.11,6.99 L 22.15,6.92 L 23.03,6.50 L 22.99,6.43 L 22.11,6.00 L 22.08,5.97 L 22.11,5.93 L 24.97,4.52 L 24.97,4.45 L 24.05,3.99 L 23.95,3.99 L 22.08,4.94 L 22.00,4.94 L 21.16,4.52 L 21.09,4.45 L 22.99,3.50 L 22.99,3.46 L 21.97,2.97 L 20.06,3.92 L 20.06,3.99 L 20.98,4.45 L 20.91,4.52 L 20.06,4.94 L 19.99,4.94 L 19.14,4.52 L 19.07,4.45 L 19.99,3.99 L 19.99,3.92 L 19.07,3.46 L 19.14,3.39 L 20.03,2.97 L 20.03,2.93 L 19.04,2.44 L 18.05,2.93 L 17.98,2.93 L 17.02,2.44 Z" fill="#6f902c" stroke="none" /><path d="M 12.04,1.94 L 12.08,2.01 L 13.92,2.93 L 14.06,2.93 L 14.98,2.47 L 14.94,2.40 L 13.10,1.48 L 12.96,1.48 Z" fill="#6f902c" stroke="none" /><path d="M 10.03,12.96 L 10.03,13.00 L 10.95,13.46 L 11.09,13.46 L 11.94,13.03 L 11.94,12.96 L 11.02,12.50 L 10.95,12.50 Z" fill="#6b7e30" stroke="none" /><path d="M 18.01,14.02 L 18.01,13.99 L 17.13,13.56 L 17.06,13.49 L 17.98,13.03 L 17.98,12.96 L 16.07,12.01 L 15.93,12.01 L 13.99,13.00 L 13.03,12.50 L 12.93,12.50 L 12.01,12.96 L 12.01,13.03 L 13.92,13.99 L 13.88,14.06 L 13.07,14.45 L 13.07,14.52 L 14.98,15.47 L 15.12,15.47 Z" fill="#6b7e30" stroke="none" /><path d="M 8.97,11.48 L 8.97,11.51 L 9.96,12.01 L 10.95,11.51 L 11.02,11.51 L 11.97,12.01 L 12.96,11.51 L 13.03,11.51 L 13.92,11.97 L 14.06,11.97 L 14.98,11.51 L 14.94,11.44 L 14.02,10.98 L 13.03,11.48 L 12.96,11.48 L 12.01,10.98 L 11.02,11.48 L 10.95,11.48 L 10.00,10.98 Z" fill="#6b7e30" stroke="none" /><path d="M 23.06,10.45 L 23.06,10.53 L 23.98,10.98 L 24.09,10.98 L 25.01,10.53 L 25.01,10.45 L 24.09,10.00 L 23.98,10.00 Z" fill="#6b7e30" stroke="none" /><path d="M 18.01,9.96 L 18.05,10.03 L 18.97,10.49 L 19.04,10.49 L 19.99,10.00 L 19.99,9.96 L 19.07,9.50 L 18.93,9.50 Z" fill="#6b7e30" stroke="none" /><path d="M 12.01,9.96 L 12.04,10.03 L 12.96,10.49 L 13.03,10.49 L 13.99,10.00 L 13.99,9.96 L 13.07,9.50 L 12.93,9.50 Z" fill="#6b7e30" stroke="none" /><path d="M 28.04,8.97 L 27.09,8.48 L 27.02,8.48 L 25.04,9.47 L 25.04,9.50 L 25.92,9.92 L 26.00,10.00 L 25.08,10.45 L 25.08,10.53 L 25.92,10.95 L 26.07,10.95 L 26.98,10.49 L 26.95,10.42 L 26.10,10.00 L 26.17,9.92 L 28.04,9.01 Z" fill="#6b7e30" stroke="none" /><path d="M 23.03,9.47 L 21.05,8.48 L 20.98,8.48 L 20.03,8.97 L 20.03,9.01 L 21.90,9.92 L 21.97,10.00 L 21.05,10.45 L 21.05,10.53 L 21.97,10.98 L 21.90,11.06 L 21.05,11.48 L 20.98,11.48 L 20.03,10.98 L 19.04,11.48 L 18.97,11.48 L 17.02,10.49 L 16.95,10.49 L 16.04,10.95 L 16.04,11.02 L 17.94,11.97 L 18.08,11.97 L 18.97,11.51 L 19.04,11.51 L 19.89,11.94 L 19.96,12.01 L 19.04,12.47 L 19.04,12.50 L 19.99,13.00 L 20.06,13.00 L 20.98,12.54 L 20.98,12.47 L 20.10,12.04 L 20.06,12.01 L 20.13,11.94 L 20.98,11.51 L 21.05,11.51 L 22.04,12.01 L 23.03,11.51 L 23.03,11.48 L 22.15,11.06 L 22.08,10.98 L 22.99,10.53 L 22.99,10.45 L 22.08,10.00 L 22.15,9.92 L 23.03,9.50 Z" fill="#6b7e30" stroke="none" /><path d="M 1.98,8.94 L 1.98,8.97 L 2.97,9.47 L 3.92,9.01 L 3.89,8.94 L 2.97,8.48 L 2.90,8.48 Z" fill="#6b7e30" stroke="none" /><path d="M 13.00,8.48 L 13.00,8.51 L 13.92,8.97 L 14.06,8.97 L 14.98,8.51 L 14.94,8.44 L 14.02,7.98 L 13.95,7.98 Z" fill="#6b7e30" stroke="none" /><path d="M 9.96,8.97 L 8.02,7.98 L 7.91,7.98 L 6.99,8.44 L 6.99,8.51 L 8.87,9.43 L 8.90,9.47 L 8.87,9.54 L 8.02,9.96 L 7.91,9.96 L 7.03,9.50 L 6.89,9.50 L 6.00,9.96 L 5.90,9.96 L 5.02,9.50 L 4.87,9.50 L 4.03,9.92 L 4.03,10.00 L 4.94,10.45 L 5.05,10.45 L 5.97,10.00 L 6.92,10.49 L 6.99,10.49 L 7.98,10.00 L 8.94,10.49 L 9.01,10.49 L 9.96,10.00 L 9.96,9.96 L 9.04,9.50 L 9.08,9.43 L 9.96,9.01 Z" fill="#6b7e30" stroke="none" /><path d="M 22.04,7.95 L 22.08,8.02 L 22.99,8.48 L 23.06,8.48 L 24.02,7.98 L 24.02,7.95 L 23.10,7.49 L 22.96,7.49 Z" fill="#6b7e30" stroke="none" /><path d="M 8.97,7.45 L 8.97,7.49 L 9.96,7.98 L 10.95,7.49 L 11.94,7.98 L 12.01,7.98 L 12.96,7.49 L 12.96,7.45 L 12.04,6.99 L 11.90,6.99 L 11.02,7.45 L 10.91,7.45 L 10.03,6.99 L 9.89,6.99 Z" fill="#6b7e30" stroke="none" /><path d="M 27.06,7.45 L 27.06,7.49 L 28.04,7.98 L 29.07,7.49 L 29.07,7.45 L 28.08,6.96 Z" fill="#6b7e30" stroke="none" /><path d="M 24.09,5.93 L 24.09,6.00 L 25.01,6.46 L 25.08,6.46 L 26.03,5.97 L 26.03,5.93 L 25.11,5.47 L 25.01,5.47 Z" fill="#6b7e30" stroke="none" /><path d="M 22.08,5.93 L 22.08,6.00 L 22.99,6.46 L 23.10,6.46 L 24.02,6.00 L 24.02,5.93 L 23.10,5.47 L 22.99,5.47 Z" fill="#6b7e30" stroke="none" /><path d="M 16.04,5.93 L 16.04,6.00 L 16.95,6.46 L 17.06,6.46 L 17.98,6.00 L 17.98,5.93 L 17.06,5.47 L 16.95,5.47 Z" fill="#6b7e30" stroke="none" /><path d="M 13.92,4.98 L 13.00,5.44 L 13.03,5.51 L 13.95,5.97 L 13.03,6.43 L 13.00,6.50 L 13.92,6.96 L 14.06,6.96 L 14.98,6.50 L 14.94,6.43 L 14.02,5.97 L 14.94,5.51 L 14.98,5.44 L 14.06,4.98 Z" fill="#6b7e30" stroke="none" /><path d="M 6.00,4.98 L 5.02,5.47 L 5.02,5.51 L 5.83,5.90 L 5.90,5.97 L 5.86,6.00 L 3.96,6.96 L 3.96,6.99 L 5.83,7.91 L 5.90,7.98 L 4.98,8.44 L 4.98,8.51 L 5.90,8.97 L 6.00,8.97 L 6.92,8.51 L 6.92,8.44 L 6.00,7.98 L 6.08,7.91 L 6.96,7.49 L 6.96,7.45 L 6.08,7.03 L 6.00,6.96 L 6.92,6.50 L 6.92,6.43 L 6.00,5.97 L 6.08,5.90 L 6.89,5.51 L 6.92,5.44 Z" fill="#6b7e30" stroke="none" /><path d="M 7.95,4.94 L 7.95,4.98 L 10.91,6.46 L 11.02,6.46 L 11.94,6.00 L 11.94,5.93 L 8.97,4.45 Z" fill="#6b7e30" stroke="none" /><path d="M 17.02,4.45 L 17.02,4.49 L 17.94,4.94 L 18.08,4.94 L 18.97,4.49 L 19.07,4.49 L 19.92,4.91 L 19.96,4.94 L 19.92,5.02 L 19.04,5.44 L 19.04,5.47 L 20.98,6.46 L 20.91,6.53 L 20.06,6.96 L 19.99,6.96 L 19.04,6.46 L 18.01,6.96 L 18.01,6.99 L 19.00,7.49 L 19.99,6.99 L 20.06,6.99 L 21.02,7.49 L 22.04,6.99 L 22.04,6.96 L 21.16,6.53 L 21.09,6.46 L 22.00,6.00 L 22.00,5.93 L 20.13,5.02 L 20.10,4.94 L 20.98,4.49 L 21.09,4.49 L 21.97,4.94 L 22.11,4.94 L 23.03,4.49 L 22.99,4.42 L 22.08,3.96 L 22.00,3.96 L 21.05,4.45 L 20.06,3.96 L 19.99,3.96 L 19.04,4.45 L 18.05,3.96 L 17.98,3.96 Z" fill="#6b7e30" stroke="none" /><path d="M 10.98,3.43 L 11.02,3.50 L 11.94,3.96 L 12.01,3.96 L 12.96,3.46 L 12.96,3.43 L 12.04,2.97 L 11.90,2.97 Z" fill="#6b7e30" stroke="none" /><path d="M 20.03,2.93 L 20.03,2.97 L 21.02,3.46 L 21.97,3.00 L 21.93,2.93 L 21.02,2.47 L 20.94,2.47 Z" fill="#6b7e30" stroke="none" /><path d="M 18.97,1.45 L 16.99,0.46 L 16.92,0.46 L 14.02,1.91 L 14.02,1.98 L 14.94,2.44 L 14.87,2.51 L 13.99,2.93 L 13.99,2.97 L 14.87,3.39 L 14.94,3.46 L 14.02,3.92 L 14.02,3.99 L 14.94,4.45 L 15.05,4.45 L 15.96,3.99 L 15.96,3.92 L 15.05,3.46 L 15.12,3.39 L 16.00,2.97 L 16.00,2.93 L 15.12,2.51 L 15.05,2.44 L 15.08,2.40 L 17.02,1.45 L 17.98,1.94 L 17.06,2.40 L 17.02,2.47 L 17.94,2.93 L 18.08,2.93 L 19.00,2.47 L 18.97,2.40 L 18.05,1.94 L 18.97,1.48 Z" fill="#6b7e30" stroke="none" /><path d="M 17.02,14.48 L 17.06,14.55 L 17.91,14.98 L 18.01,14.98 L 18.93,14.52 L 18.93,14.45 L 18.08,14.02 L 17.94,14.02 Z" fill="#637132" stroke="none" /><path d="M 19.04,13.53 L 19.99,13.99 L 20.98,13.49 L 20.98,13.46 L 20.06,13.00 L 19.99,13.00 L 19.07,13.46 Z" fill="#637132" stroke="none" /><path d="M 16.99,13.49 L 16.04,13.00 L 15.96,13.00 L 13.99,13.99 L 13.99,14.02 L 15.01,14.52 L 16.99,13.53 Z" fill="#637132" stroke="none" /><path d="M 21.05,12.47 L 21.05,12.54 L 21.90,12.96 L 22.04,12.96 L 22.96,12.50 L 22.92,12.43 L 22.08,12.01 L 21.97,12.01 Z" fill="#637132" stroke="none" /><path d="M 11.02,13.49 L 12.04,13.99 L 12.96,13.53 L 12.93,13.46 L 12.04,13.03 L 12.01,13.00 L 12.04,12.96 L 13.00,12.50 L 13.95,13.00 L 14.02,13.00 L 14.94,12.54 L 14.98,12.47 L 14.06,12.01 L 13.92,12.01 L 13.03,12.47 L 12.93,12.47 L 12.04,12.01 L 11.94,12.01 L 11.02,12.47 L 11.02,12.54 L 11.94,13.00 L 11.02,13.46 Z" fill="#637132" stroke="none" /><path d="M 8.05,11.94 L 8.05,12.01 L 8.97,12.47 L 9.08,12.47 L 9.96,12.01 L 9.96,11.97 L 9.04,11.51 L 8.90,11.51 Z" fill="#637132" stroke="none" /><path d="M 16.00,11.97 L 16.00,12.01 L 16.99,12.50 L 18.01,12.01 L 18.01,11.97 L 17.02,11.48 Z" fill="#637132" stroke="none" /><path d="M 24.97,11.44 L 24.02,10.98 L 23.03,11.48 L 23.03,11.51 L 23.95,11.97 L 24.02,11.97 L 24.94,11.51 Z" fill="#637132" stroke="none" /><path d="M 18.01,10.98 L 18.01,11.02 L 18.93,11.48 L 19.07,11.48 L 19.99,11.02 L 19.96,10.95 L 19.04,10.49 L 18.97,10.49 Z" fill="#637132" stroke="none" /><path d="M 6.00,10.95 L 6.00,10.98 L 6.99,11.48 L 7.95,11.02 L 7.91,10.95 L 6.99,10.49 L 6.92,10.49 Z" fill="#637132" stroke="none" /><path d="M 24.05,9.96 L 24.09,10.03 L 25.01,10.49 L 25.08,10.49 L 26.03,10.00 L 26.95,10.45 L 27.06,10.45 L 27.97,10.00 L 27.97,9.92 L 27.13,9.50 L 26.98,9.50 L 26.10,9.96 L 26.00,9.96 L 25.11,9.50 L 24.97,9.50 Z" fill="#637132" stroke="none" /><path d="M 20.03,9.96 L 20.06,10.03 L 20.98,10.49 L 21.05,10.49 L 22.00,10.00 L 22.00,9.96 L 21.09,9.50 L 20.94,9.50 Z" fill="#637132" stroke="none" /><path d="M 13.00,9.47 L 13.00,9.50 L 13.99,10.00 L 14.98,9.50 L 14.98,9.47 L 14.06,9.01 L 13.92,9.01 Z" fill="#637132" stroke="none" /><path d="M 4.94,9.47 L 4.94,9.50 L 5.93,10.00 L 6.92,9.50 L 6.99,9.50 L 7.95,10.00 L 8.97,9.50 L 8.97,9.47 L 7.98,8.97 L 6.99,9.47 L 6.92,9.47 L 5.97,8.97 Z" fill="#637132" stroke="none" /><path d="M 21.05,8.44 L 21.05,8.51 L 21.97,8.97 L 22.08,8.97 L 22.99,8.51 L 22.99,8.44 L 22.08,7.98 L 21.97,7.98 Z" fill="#637132" stroke="none" /><path d="M 21.02,7.45 L 20.10,6.99 L 19.96,6.99 L 18.05,7.95 L 18.05,8.02 L 19.96,8.97 L 20.06,8.97 L 20.98,8.51 L 20.98,8.44 L 20.06,7.98 L 20.98,7.52 Z" fill="#637132" stroke="none" /><path d="M 25.04,7.45 L 25.04,7.49 L 25.92,7.91 L 26.00,7.98 L 25.08,8.44 L 25.08,8.51 L 26.00,8.97 L 26.10,8.97 L 27.06,8.48 L 28.01,8.97 L 28.11,8.97 L 29.03,8.51 L 29.03,8.44 L 26.07,6.96 Z" fill="#637132" stroke="none" /><path d="M 5.93,7.95 L 3.92,6.96 L 1.98,7.95 L 1.87,7.95 L 0.95,7.49 L 0.04,7.95 L 0.04,7.98 L 0.92,8.44 L 1.02,8.44 L 1.94,7.98 L 2.90,8.48 L 2.97,8.48 L 3.96,7.98 L 4.91,8.48 L 4.98,8.48 L 5.90,8.02 Z" fill="#637132" stroke="none" /><path d="M 28.08,6.96 L 28.08,6.99 L 29.00,7.45 L 29.14,7.45 L 29.99,7.03 L 29.99,6.96 L 29.07,6.50 L 28.96,6.50 Z" fill="#637132" stroke="none" /><path d="M 23.06,6.46 L 23.06,6.50 L 23.98,6.96 L 24.09,6.96 L 25.01,6.50 L 25.01,6.43 L 24.09,5.97 L 24.02,5.97 Z" fill="#637132" stroke="none" /><path d="M 26.07,5.93 L 26.10,6.00 L 27.02,6.46 L 27.09,6.46 L 28.01,6.00 L 28.01,5.97 L 27.02,5.47 Z" fill="#637132" stroke="none" /><path d="M 3.99,5.97 L 3.99,6.00 L 4.91,6.46 L 4.98,6.46 L 5.93,5.97 L 6.89,6.43 L 6.92,6.46 L 6.89,6.50 L 5.97,6.96 L 5.97,6.99 L 6.89,7.45 L 7.03,7.45 L 7.95,6.99 L 7.91,6.92 L 6.99,6.46 L 7.91,6.00 L 7.91,5.93 L 6.99,5.47 L 6.89,5.47 L 6.00,5.93 L 5.90,5.93 L 4.98,5.47 Z" fill="#637132" stroke="none" /><path d="M 7.98,5.93 L 7.98,6.00 L 9.89,6.96 L 10.03,6.96 L 10.91,6.50 L 11.02,6.50 L 12.86,7.42 L 12.93,7.49 L 11.97,7.98 L 11.02,7.49 L 10.91,7.49 L 10.00,7.95 L 10.03,8.02 L 10.95,8.48 L 10.00,8.97 L 10.00,9.01 L 10.91,9.47 L 10.88,9.54 L 10.00,9.96 L 10.00,10.00 L 10.95,10.49 L 10.03,10.95 L 10.00,11.02 L 10.91,11.48 L 11.06,11.48 L 11.94,11.02 L 12.04,11.02 L 12.93,11.48 L 13.07,11.48 L 13.95,11.02 L 14.06,11.02 L 14.94,11.48 L 15.05,11.48 L 17.98,10.00 L 17.98,9.96 L 17.06,9.50 L 17.13,9.43 L 18.01,9.01 L 18.01,8.97 L 17.13,8.55 L 17.06,8.48 L 17.98,8.02 L 17.98,7.95 L 17.06,7.49 L 16.95,7.49 L 16.04,7.95 L 16.04,8.02 L 16.95,8.48 L 16.88,8.55 L 16.00,8.97 L 16.00,9.01 L 16.88,9.43 L 16.95,9.50 L 16.92,9.54 L 14.02,10.98 L 13.03,10.49 L 12.96,10.49 L 11.97,10.98 L 11.02,10.49 L 11.97,10.00 L 11.97,9.96 L 11.09,9.54 L 11.06,9.47 L 13.95,8.02 L 13.95,7.95 L 13.03,7.49 L 13.10,7.42 L 13.95,6.99 L 14.02,6.99 L 14.87,7.42 L 14.94,7.49 L 14.02,7.95 L 14.02,8.02 L 14.94,8.48 L 15.05,8.48 L 15.96,8.02 L 15.96,7.95 L 15.05,7.49 L 15.12,7.42 L 16.00,6.99 L 16.00,6.96 L 15.12,6.53 L 15.05,6.46 L 15.96,6.00 L 15.96,5.93 L 15.05,5.47 L 14.94,5.47 L 14.02,5.93 L 14.02,6.00 L 14.94,6.46 L 14.87,6.53 L 14.02,6.96 L 13.95,6.96 L 12.04,6.00 L 12.01,5.97 L 12.04,5.93 L 12.96,5.47 L 12.96,5.44 L 12.04,4.98 L 11.90,4.98 L 10.98,5.44 L 11.02,5.51 L 11.94,5.97 L 10.98,6.46 L 9.01,5.47 L 8.90,5.47 Z" fill="#637132" stroke="none" /><path d="M 24.05,4.94 L 24.05,4.98 L 25.04,5.47 L 26.00,5.02 L 25.96,4.94 L 25.04,4.49 L 24.97,4.49 Z" fill="#637132" stroke="none" /><path d="M 7.03,4.45 L 7.03,4.52 L 7.88,4.94 L 8.02,4.94 L 8.94,4.49 L 8.90,4.42 L 8.05,3.99 L 7.95,3.99 Z" fill="#637132" stroke="none" /><path d="M 22.08,3.92 L 22.08,3.99 L 22.99,4.45 L 23.10,4.45 L 23.98,3.99 L 23.98,3.96 L 23.06,3.50 L 22.92,3.50 Z" fill="#637132" stroke="none" /><path d="M 12.01,3.92 L 12.01,3.99 L 12.93,4.45 L 13.03,4.45 L 13.95,3.99 L 13.95,3.92 L 13.03,3.46 L 12.93,3.46 Z" fill="#637132" stroke="none" /><path d="M 10.95,3.43 L 10.00,2.97 L 9.01,3.46 L 9.01,3.50 L 9.92,3.96 L 10.00,3.96 L 10.91,3.50 Z" fill="#637132" stroke="none" /><path d="M 11.06,2.44 L 11.06,2.51 L 11.90,2.93 L 12.04,2.93 L 12.96,2.47 L 12.93,2.40 L 12.08,1.98 L 11.97,1.98 Z" fill="#637132" stroke="none" /><path d="M 16.95,1.45 L 15.01,2.44 L 15.01,2.47 L 15.93,2.93 L 15.89,3.00 L 15.01,3.43 L 15.01,3.46 L 16.95,4.45 L 16.88,4.52 L 16.00,4.94 L 16.00,4.98 L 17.94,5.93 L 17.98,5.97 L 17.94,6.00 L 17.06,6.43 L 17.02,6.50 L 17.94,6.96 L 18.08,6.96 L 19.00,6.50 L 18.97,6.43 L 18.05,5.97 L 18.97,5.51 L 19.00,5.44 L 17.13,4.52 L 17.06,4.45 L 19.00,3.46 L 19.99,3.96 L 20.06,3.96 L 20.98,3.50 L 21.02,3.43 L 20.10,2.97 L 20.13,2.90 L 20.94,2.51 L 20.94,2.44 L 20.03,1.98 L 19.92,1.98 L 19.04,2.44 L 19.04,2.47 L 19.96,2.93 L 19.92,3.00 L 19.07,3.43 L 18.97,3.43 L 18.08,2.97 L 17.94,2.97 L 17.06,3.43 L 16.95,3.43 L 16.11,3.00 L 16.07,2.93 L 17.98,1.98 L 17.98,1.91 L 17.06,1.45 Z" fill="#637132" stroke="none" /><path d="M 14.98,1.41 L 14.02,0.95 L 13.03,1.45 L 13.03,1.48 L 13.95,1.94 L 14.02,1.94 L 14.94,1.48 Z" fill="#637132" stroke="none" /></svg>