<svg height="32" width="32" viewBox="0 0 32 32"><defs /><path d="M 4.29,22.57 L 2.87,23.27 L 2.87,25.04 L 4.29,24.33 Z" fill="#48441d" stroke="none" /><path d="M 17.10,21.43 L 15.65,22.13 L 15.65,23.86 L 17.10,23.15 Z" fill="#48441d" stroke="none" /><path d="M 11.40,20.76 L 9.99,21.46 L 9.99,23.19 L 11.40,22.49 Z" fill="#48441d" stroke="none" /><path d="M 24.22,19.62 L 22.76,20.32 L 22.76,22.01 L 22.84,22.01 L 24.22,21.31 Z" fill="#48441d" stroke="none" /><path d="M 14.23,17.61 L 14.15,17.61 L 12.82,18.28 L 12.82,20.05 L 12.89,20.05 L 14.23,19.38 Z" fill="#48441d" stroke="none" /><path d="M 17.10,16.16 L 15.65,16.86 L 15.65,18.63 L 15.72,18.63 L 17.10,17.93 Z" fill="#48441d" stroke="none" /><path d="M 17.10,12.66 L 15.65,13.37 L 15.65,15.14 L 17.10,14.43 Z" fill="#48441d" stroke="none" /><path d="M 17.10,7.47 L 17.02,7.47 L 15.65,8.18 L 15.65,11.64 L 17.10,10.93 Z" fill="#48441d" stroke="none" /><path d="M 22.76,4.64 L 22.68,4.64 L 21.35,5.31 L 21.35,7.04 L 21.43,7.04 L 22.72,6.37 L 22.76,6.41 L 22.76,8.06 L 22.68,8.14 L 21.35,8.81 L 21.35,10.54 L 21.43,10.54 L 22.76,9.87 L 22.76,8.10 L 24.22,7.35 L 24.22,5.58 L 22.80,6.29 L 22.76,6.25 Z" fill="#48441d" stroke="none" /><path d="M 4.29,29.60 L 4.21,29.60 L 2.87,30.27 L 2.87,31.96 L 2.95,31.96 L 4.29,31.29 Z" fill="#4a421e" stroke="none" /><path d="M 7.12,26.38 L 5.70,27.09 L 5.70,28.82 L 5.78,28.82 L 7.12,28.15 Z" fill="#4a421e" stroke="none" /><path d="M 4.29,24.33 L 2.87,25.04 L 2.87,26.77 L 2.95,26.77 L 4.29,26.10 Z" fill="#4a421e" stroke="none" /><path d="M 11.40,24.26 L 11.32,24.26 L 8.53,25.67 L 8.53,27.40 L 8.61,27.40 L 11.40,25.99 Z" fill="#4a421e" stroke="none" /><path d="M 7.12,22.92 L 7.04,22.92 L 5.70,23.59 L 5.70,25.32 L 5.78,25.32 L 7.12,24.65 Z" fill="#4a421e" stroke="none" /><path d="M 18.52,17.22 L 18.44,17.22 L 17.10,17.89 L 17.10,19.62 L 17.18,19.62 L 18.52,18.95 Z" fill="#4a421e" stroke="none" /><path d="M 4.29,15.57 L 4.21,15.57 L 2.87,16.24 L 2.87,19.77 L 4.29,19.07 Z" fill="#4a421e" stroke="none" /><path d="M 22.76,15.10 L 22.68,15.10 L 19.93,16.47 L 19.93,18.20 L 20.01,18.20 L 22.76,16.83 Z" fill="#4a421e" stroke="none" /><path d="M 7.12,12.46 L 7.04,12.46 L 5.70,13.13 L 5.70,14.86 L 5.78,14.86 L 7.12,14.19 Z" fill="#4a421e" stroke="none" /><path d="M 4.29,12.11 L 2.87,12.82 L 2.87,14.51 L 4.29,13.80 Z" fill="#4a421e" stroke="none" /><path d="M 24.22,10.85 L 22.76,11.56 L 22.76,13.33 L 24.22,12.62 Z" fill="#4a421e" stroke="none" /><path d="M 11.40,10.30 L 8.53,11.71 L 8.53,13.44 L 8.61,13.44 L 11.40,12.03 Z" fill="#4a421e" stroke="none" /><path d="M 24.22,7.35 L 22.76,8.06 L 22.76,9.83 L 24.22,9.12 Z" fill="#4a421e" stroke="none" /><path d="M 18.52,6.76 L 18.44,6.76 L 17.10,7.43 L 17.10,9.16 L 17.18,9.16 L 18.52,8.49 Z" fill="#4a421e" stroke="none" /><path d="M 21.35,5.35 L 21.27,5.35 L 19.93,6.01 L 19.93,7.74 L 20.01,7.74 L 21.35,7.08 Z" fill="#4a421e" stroke="none" /><path d="M 4.29,26.10 L 4.21,26.10 L 2.87,26.77 L 2.87,30.27 L 2.95,30.27 L 4.29,29.60 Z" fill="#4f461e" stroke="none" /><path d="M 8.53,25.67 L 7.12,26.38 L 7.12,28.11 L 7.19,28.11 L 8.53,27.44 Z" fill="#4f461e" stroke="none" /><path d="M 19.93,19.97 L 17.10,21.39 L 17.10,23.12 L 17.18,23.12 L 19.93,21.74 Z" fill="#4f461e" stroke="none" /><path d="M 14.23,19.38 L 14.15,19.38 L 12.82,20.05 L 12.82,23.55 L 12.89,23.55 L 14.23,22.88 Z" fill="#4f461e" stroke="none" /><path d="M 4.29,19.07 L 2.87,19.77 L 2.87,21.50 L 2.95,21.50 L 4.29,20.84 Z" fill="#4f461e" stroke="none" /><path d="M 22.76,18.56 L 21.35,19.26 L 21.35,20.99 L 21.43,20.99 L 22.76,20.32 Z" fill="#4f461e" stroke="none" /><path d="M 19.93,16.51 L 19.85,16.51 L 18.52,17.18 L 18.52,18.91 L 18.59,18.91 L 19.93,18.24 Z" fill="#4f461e" stroke="none" /><path d="M 8.53,15.21 L 5.70,16.63 L 5.70,18.36 L 5.78,18.36 L 8.53,16.98 Z" fill="#4f461e" stroke="none" /><path d="M 11.40,13.80 L 11.32,13.80 L 9.99,14.47 L 9.99,16.24 L 11.40,15.53 Z" fill="#4f461e" stroke="none" /><path d="M 4.29,13.80 L 2.87,14.51 L 2.87,16.24 L 2.95,16.24 L 4.29,15.57 Z" fill="#4f461e" stroke="none" /><path d="M 24.22,12.62 L 24.14,12.62 L 22.76,13.33 L 22.76,16.83 L 22.84,16.83 L 24.22,16.12 Z" fill="#4f461e" stroke="none" /><path d="M 8.53,11.75 L 8.45,11.75 L 7.12,12.42 L 7.12,14.15 L 7.19,14.15 L 8.53,13.48 Z" fill="#4f461e" stroke="none" /><path d="M 24.22,9.12 L 24.14,9.12 L 22.76,9.83 L 22.76,11.56 L 22.84,11.56 L 24.22,10.85 Z" fill="#4f461e" stroke="none" /><path d="M 14.23,8.88 L 12.82,9.59 L 12.82,13.05 L 14.23,12.34 Z" fill="#4f461e" stroke="none" /><path d="M 21.35,8.81 L 18.52,10.22 L 18.52,11.95 L 18.59,11.95 L 21.35,10.57 Z" fill="#4f461e" stroke="none" /><path d="M 19.93,6.05 L 19.85,6.05 L 18.52,6.72 L 18.52,8.45 L 18.59,8.45 L 19.93,7.78 Z" fill="#4f461e" stroke="none" /><path d="M 24.22,2.16 L 24.14,2.16 L 22.76,2.87 L 22.76,4.56 L 24.22,3.85 Z" fill="#4f461e" stroke="none" /><path d="M 9.99,21.46 L 7.12,22.88 L 7.12,24.61 L 7.19,24.61 L 9.99,23.19 Z" fill="#4d481f" stroke="none" /><path d="M 17.10,17.93 L 15.65,18.63 L 15.65,22.13 L 15.72,22.13 L 17.10,21.43 Z" fill="#4d481f" stroke="none" /><path d="M 17.10,10.93 L 17.02,10.93 L 15.65,11.64 L 15.65,13.37 L 15.72,13.37 L 17.10,12.66 Z" fill="#4d481f" stroke="none" /><path d="M 14.23,22.88 L 14.15,22.88 L 12.82,23.55 L 12.82,25.28 L 14.23,24.57 Z" fill="#534a20" stroke="none" /><path d="M 5.70,21.86 L 4.29,22.57 L 4.29,24.33 L 5.70,23.63 Z" fill="#534a20" stroke="none" /><path d="M 21.35,19.26 L 19.93,19.97 L 19.93,21.70 L 20.01,21.70 L 21.35,21.03 Z" fill="#534a20" stroke="none" /><path d="M 25.63,18.91 L 24.22,19.62 L 24.22,21.31 L 25.63,20.60 Z" fill="#534a20" stroke="none" /><path d="M 9.99,14.51 L 9.91,14.51 L 8.53,15.21 L 8.53,16.94 L 8.61,16.94 L 9.99,16.24 Z" fill="#534a20" stroke="none" /><path d="M 14.23,12.34 L 12.82,13.05 L 12.82,16.55 L 14.23,15.84 Z" fill="#534a20" stroke="none" /><path d="M 18.52,10.22 L 17.10,10.93 L 17.10,12.66 L 17.18,12.66 L 18.52,11.99 Z" fill="#534a20" stroke="none" /><path d="M 22.76,6.37 L 22.68,6.37 L 21.35,7.04 L 21.35,8.81 L 22.76,8.10 Z" fill="#534a20" stroke="none" /><path d="M 25.63,4.87 L 24.22,5.58 L 24.22,7.35 L 25.63,6.64 Z" fill="#534a20" stroke="none" /><path d="M 5.70,23.63 L 4.29,24.33 L 4.29,26.06 L 4.36,26.06 L 5.66,25.40 L 5.70,25.43 L 5.70,27.09 L 5.62,27.16 L 4.29,27.83 L 4.29,31.25 L 4.36,31.25 L 5.70,30.58 L 5.70,27.13 L 5.78,27.05 L 7.12,26.38 L 7.12,24.65 L 7.04,24.65 L 5.74,25.32 L 5.70,25.28 Z" fill="#564d25" stroke="none" /><path d="M 15.65,20.40 L 14.23,21.11 L 14.23,24.57 L 15.65,23.86 Z" fill="#564d25" stroke="none" /><path d="M 18.52,18.95 L 18.44,18.95 L 17.10,19.62 L 17.10,21.39 L 18.52,20.68 Z" fill="#564d25" stroke="none" /><path d="M 12.82,18.32 L 12.74,18.32 L 11.40,18.99 L 11.40,22.45 L 11.32,22.53 L 9.99,23.19 L 9.99,24.92 L 10.06,24.92 L 11.40,24.26 L 11.40,22.57 L 11.48,22.49 L 12.82,21.82 Z" fill="#564d25" stroke="none" /><path d="M 15.65,16.90 L 15.57,16.90 L 14.23,17.57 L 14.23,19.34 L 14.31,19.34 L 15.65,18.67 Z" fill="#564d25" stroke="none" /><path d="M 25.63,13.68 L 25.55,13.68 L 24.22,14.35 L 24.22,16.08 L 24.14,16.16 L 22.80,16.83 L 22.68,16.83 L 21.35,17.49 L 21.35,19.26 L 22.68,18.59 L 22.80,18.59 L 24.22,17.89 L 24.22,16.16 L 24.29,16.08 L 25.63,15.41 Z" fill="#564d25" stroke="none" /><path d="M 15.65,11.64 L 14.23,12.34 L 14.23,14.07 L 14.31,14.07 L 15.65,13.41 Z" fill="#564d25" stroke="none" /><path d="M 5.66,11.40 L 4.29,12.11 L 4.29,15.53 L 4.36,15.53 L 5.66,14.86 L 5.70,14.90 L 5.70,16.63 L 5.74,16.63 L 7.12,15.92 L 7.12,14.19 L 7.04,14.19 L 5.74,14.86 L 5.70,14.82 L 5.70,11.40 Z" fill="#564d25" stroke="none" /><path d="M 12.82,11.28 L 11.44,11.95 L 11.32,12.07 L 9.99,12.74 L 9.99,14.47 L 10.06,14.47 L 11.36,13.80 L 11.40,13.84 L 11.40,15.49 L 11.48,15.49 L 12.82,14.82 Z" fill="#564d25" stroke="none" /><path d="M 18.52,8.49 L 18.44,8.49 L 17.10,9.16 L 17.10,10.93 L 18.52,10.22 Z" fill="#564d25" stroke="none" /><path d="M 15.65,8.18 L 14.23,8.88 L 14.23,10.57 L 15.65,9.87 Z" fill="#564d25" stroke="none" /><path d="M 25.63,6.64 L 24.22,7.35 L 24.22,10.85 L 25.63,10.14 Z" fill="#564d25" stroke="none" /><path d="M 5.70,25.40 L 5.62,25.40 L 4.29,26.06 L 4.29,27.83 L 5.70,27.13 Z" fill="#5a512a" stroke="none" /><path d="M 9.99,23.19 L 7.12,24.61 L 7.12,26.38 L 9.99,24.96 Z" fill="#5a512a" stroke="none" /><path d="M 12.82,21.82 L 11.40,22.53 L 11.40,25.99 L 12.82,25.28 Z" fill="#5a512a" stroke="none" /><path d="M 15.65,18.67 L 15.57,18.67 L 14.23,19.34 L 14.23,21.11 L 15.65,20.40 Z" fill="#5a512a" stroke="none" /><path d="M 21.35,17.53 L 21.27,17.53 L 18.52,18.91 L 18.52,20.68 L 21.35,19.26 Z" fill="#5a512a" stroke="none" /><path d="M 25.63,15.41 L 24.22,16.12 L 24.22,17.85 L 22.76,18.59 L 22.76,20.32 L 22.84,20.32 L 24.22,19.62 L 24.22,17.89 L 25.63,17.18 Z" fill="#5a512a" stroke="none" /><path d="M 5.70,14.86 L 5.62,14.86 L 4.29,15.53 L 4.29,20.80 L 2.87,21.50 L 2.87,23.27 L 4.29,22.57 L 4.29,20.84 L 5.70,20.13 Z" fill="#5a512a" stroke="none" /><path d="M 17.10,14.43 L 17.02,14.43 L 15.69,15.10 L 15.65,15.06 L 15.65,13.41 L 15.57,13.41 L 14.23,14.07 L 14.23,15.80 L 14.15,15.88 L 12.86,16.51 L 12.82,16.47 L 12.82,14.82 L 12.74,14.82 L 11.40,15.49 L 11.40,17.26 L 12.78,16.59 L 12.82,16.63 L 12.82,18.28 L 12.89,18.28 L 14.23,17.61 L 14.23,15.88 L 14.31,15.80 L 15.61,15.17 L 15.65,15.21 L 15.65,16.86 L 15.72,16.86 L 17.06,16.20 L 17.10,16.16 Z" fill="#5a512a" stroke="none" /><path d="M 9.99,12.74 L 7.12,14.15 L 7.12,15.92 L 9.99,14.51 Z" fill="#5a512a" stroke="none" /><path d="M 25.63,10.14 L 24.22,10.85 L 24.22,14.35 L 24.29,14.35 L 25.63,13.68 Z" fill="#5a512a" stroke="none" /><path d="M 15.65,9.87 L 14.23,10.57 L 14.23,12.34 L 15.65,11.64 Z" fill="#5a512a" stroke="none" /><path d="M 12.82,9.59 L 11.40,10.30 L 11.40,11.99 L 12.82,11.28 Z" fill="#5a512a" stroke="none" /><path d="M 21.35,7.08 L 21.27,7.08 L 18.52,8.45 L 18.52,10.22 L 21.35,8.81 Z" fill="#5a512a" stroke="none" /><path d="M 25.63,1.45 L 25.55,1.45 L 24.22,2.12 L 24.22,3.81 L 22.76,4.56 L 22.76,6.29 L 22.84,6.29 L 24.22,5.58 L 24.22,3.85 L 25.63,3.14 Z" fill="#5a512a" stroke="none" /><path d="M 0.00,28.89 L 0.00,30.58 L 1.34,31.25 L 1.42,31.25 L 1.42,29.56 L 0.08,28.89 Z" fill="#756e2f" stroke="none" /><path d="M 21.03,21.15 L 21.03,21.19 L 21.27,21.31 L 21.35,21.31 L 21.35,21.03 L 21.27,21.03 Z" fill="#756e2f" stroke="none" /><path d="M 9.99,18.32 L 9.99,20.05 L 11.40,20.76 L 11.40,19.03 Z" fill="#756e2f" stroke="none" /><path d="M 11.40,15.53 L 10.02,16.20 L 9.99,16.24 L 9.99,16.59 L 11.32,17.26 L 11.40,17.26 Z" fill="#756e2f" stroke="none" /><path d="M 0.00,14.86 L 0.00,16.63 L 1.34,17.30 L 1.42,17.30 L 1.42,15.53 L 0.08,14.86 Z" fill="#756e2f" stroke="none" /><path d="M 0.00,20.13 L 0.00,21.86 L 1.42,22.57 L 1.42,20.80 L 0.08,20.13 Z" fill="#786c31" stroke="none" /><path d="M 0.00,16.63 L 0.00,18.36 L 1.42,19.07 L 1.42,17.30 L 0.08,16.63 Z" fill="#786c31" stroke="none" /><path d="M 19.93,11.24 L 19.93,11.91 L 21.27,12.58 L 21.35,12.58 L 21.35,10.85 L 21.31,10.81 L 21.03,10.69 Z" fill="#786c31" stroke="none" /><path d="M 0.00,21.86 L 0.00,25.40 L 1.34,26.06 L 1.42,26.06 L 1.42,22.57 Z" fill="#807131" stroke="none" /><path d="M 0.00,18.36 L 0.00,20.13 L 1.34,20.80 L 1.42,20.80 L 1.42,19.07 Z" fill="#807131" stroke="none" /><path d="M 19.93,11.91 L 19.93,13.64 L 21.35,14.35 L 21.35,12.58 L 20.01,11.91 Z" fill="#807131" stroke="none" /><path d="M 0.00,11.40 L 0.00,13.09 L 1.42,13.80 L 1.42,12.11 Z" fill="#807131" stroke="none" /><path d="M 21.07,10.69 L 21.07,10.73 L 21.35,10.85 L 21.35,10.57 L 21.27,10.57 Z" fill="#807131" stroke="none" /><path d="M 19.93,1.45 L 19.93,3.14 L 21.27,3.81 L 21.35,3.81 L 21.35,2.12 L 20.01,1.45 Z" fill="#807131" stroke="none" /><path d="M 5.70,20.13 L 5.62,20.13 L 4.29,20.80 L 4.29,22.57 L 5.70,21.86 Z" fill="#5e5632" stroke="none" /><path d="M 25.63,17.18 L 25.55,17.18 L 24.22,17.85 L 24.22,19.62 L 25.63,18.91 Z" fill="#5e5632" stroke="none" /><path d="M 12.82,16.55 L 11.40,17.26 L 11.40,18.99 L 11.48,18.99 L 12.82,18.32 Z" fill="#5e5632" stroke="none" /><path d="M 15.65,15.14 L 14.23,15.84 L 14.23,17.57 L 14.31,17.57 L 15.65,16.90 Z" fill="#5e5632" stroke="none" /><path d="M 25.63,3.14 L 25.55,3.14 L 24.22,3.81 L 24.22,5.58 L 25.63,4.87 Z" fill="#5e5632" stroke="none" /><path d="M 1.42,29.60 L 1.42,31.29 L 2.87,32.00 L 2.87,30.31 L 1.49,29.60 Z" fill="#877833" stroke="none" /><path d="M 21.35,20.99 L 21.35,21.35 L 22.68,22.01 L 22.76,22.01 L 22.76,20.32 L 22.68,20.32 Z" fill="#877833" stroke="none" /><path d="M 1.42,15.57 L 1.42,17.34 L 2.87,18.04 L 2.87,16.28 L 1.49,15.57 Z" fill="#877833" stroke="none" /><path d="M 1.49,24.33 L 1.42,24.33 L 1.42,26.02 L 1.38,26.06 L 0.08,25.40 L 0.00,25.40 L 0.00,27.13 L 1.38,27.83 L 1.42,27.83 L 1.42,26.14 L 1.45,26.10 L 2.87,26.81 L 2.87,25.04 Z" fill="#8b7c3c" stroke="none" /><path d="M 8.53,17.61 L 8.53,19.34 L 9.99,20.05 L 9.99,18.32 L 8.61,17.61 Z" fill="#8b7c3c" stroke="none" /><path d="M 1.42,17.34 L 1.42,20.84 L 2.87,21.54 L 2.87,18.04 L 1.49,17.34 Z" fill="#8b7c3c" stroke="none" /><path d="M 21.35,10.54 L 21.35,10.85 L 21.39,10.89 L 22.76,11.56 L 22.76,9.87 L 22.68,9.87 Z" fill="#8b7c3c" stroke="none" /><path d="M 1.49,26.10 L 1.42,26.10 L 1.42,27.75 L 1.38,27.79 L 0.00,27.13 L 0.00,28.89 L 1.34,29.56 L 1.42,29.56 L 1.42,27.91 L 1.45,27.87 L 2.79,28.54 L 2.87,28.54 L 2.87,26.81 Z" fill="#928344" stroke="none" /><path d="M 1.42,20.84 L 1.42,24.33 L 2.87,25.04 L 2.87,21.54 L 1.49,20.84 Z" fill="#928344" stroke="none" /><path d="M 9.71,16.35 L 9.67,16.43 L 9.99,16.59 L 9.99,18.32 L 11.40,19.03 L 11.40,17.26 L 10.02,16.59 L 9.99,16.55 L 9.99,16.24 Z" fill="#928344" stroke="none" /><path d="M 1.45,12.11 L 1.42,12.11 L 1.42,13.72 L 1.38,13.76 L 0.00,13.09 L 0.00,14.86 L 1.34,15.53 L 1.42,15.53 L 1.42,13.88 L 1.45,13.84 L 2.79,14.51 L 2.87,14.51 L 2.87,12.82 Z" fill="#928344" stroke="none" /><path d="M 21.35,10.85 L 21.35,14.35 L 22.76,15.06 L 22.76,11.56 Z" fill="#928344" stroke="none" /><path d="M 19.93,3.14 L 19.97,3.22 L 21.31,3.89 L 21.39,3.85 L 22.68,4.52 L 22.76,4.52 L 22.76,2.83 L 21.43,2.16 L 21.35,2.16 L 21.35,3.77 L 21.31,3.81 L 20.01,3.14 Z" fill="#928344" stroke="none" /><path d="M 5.70,22.21 L 5.70,23.59 L 5.78,23.59 L 7.12,22.92 L 7.12,22.88 L 5.78,22.21 Z" fill="#b9a64b" stroke="none" /><path d="M 17.10,16.51 L 17.10,17.89 L 17.18,17.89 L 18.48,17.22 L 18.48,17.18 Z" fill="#b9a64b" stroke="none" /><path d="M 5.70,11.75 L 5.70,13.13 L 5.78,13.13 L 7.12,12.46 L 7.12,12.42 L 5.78,11.75 Z" fill="#b9a64b" stroke="none" /><path d="M 1.45,12.11 L 1.45,12.15 L 2.79,12.82 L 2.91,12.82 L 4.25,12.15 L 4.25,12.07 L 2.91,11.40 L 2.83,11.40 Z" fill="#b9a64b" stroke="none" /><path d="M 11.40,8.85 L 11.44,8.92 L 12.78,9.59 L 12.86,9.59 L 14.23,8.88 L 14.23,8.85 L 12.89,8.18 L 12.74,8.18 Z" fill="#b9a64b" stroke="none" /><path d="M 18.52,6.72 L 17.06,6.01 L 14.23,7.43 L 14.23,7.47 L 15.69,8.18 L 18.52,6.76 Z" fill="#b9a64b" stroke="none" /><path d="M 21.39,2.12 L 21.43,2.20 L 22.76,2.87 L 24.18,2.16 L 24.18,2.12 L 22.84,1.45 L 22.72,1.45 Z" fill="#b9a64b" stroke="none" /><path d="M 8.57,20.72 L 8.61,20.80 L 9.95,21.46 L 10.02,21.46 L 11.36,20.80 L 11.36,20.72 L 10.02,20.05 L 9.91,20.05 Z" fill="#c6af4c" stroke="none" /><path d="M 19.97,15.02 L 19.97,15.10 L 21.31,15.76 L 21.43,15.76 L 22.76,15.10 L 22.72,15.02 L 21.39,14.35 L 21.31,14.35 Z" fill="#c6af4c" stroke="none" /><path d="M 2.91,11.36 L 2.91,11.44 L 4.25,12.11 L 4.32,12.11 L 5.66,11.44 L 5.66,11.36 L 4.32,10.69 L 4.25,10.69 Z" fill="#c6af4c" stroke="none" /><path d="M 12.78,9.55 L 11.44,8.88 L 11.32,8.88 L 8.57,10.26 L 8.57,10.30 L 9.95,11.01 L 10.02,11.01 L 12.78,9.63 Z" fill="#c6af4c" stroke="none" /><path d="M 12.82,8.14 L 12.82,8.18 L 14.23,8.88 L 15.65,8.18 L 15.65,8.14 L 14.31,7.47 L 14.15,7.47 Z" fill="#c6af4c" stroke="none" /><path d="M 19.97,4.56 L 19.97,4.64 L 21.31,5.31 L 21.43,5.31 L 22.76,4.64 L 22.72,4.56 L 21.39,3.89 L 21.31,3.89 Z" fill="#c6af4c" stroke="none" /><path d="M 22.80,1.42 L 22.84,1.49 L 24.18,2.16 L 25.63,1.45 L 25.63,1.42 L 24.29,0.75 L 24.14,0.75 Z" fill="#c6af4c" stroke="none" /><path d="M 9.95,21.43 L 8.61,20.76 L 8.49,20.76 L 5.74,22.13 L 5.70,22.21 L 7.04,22.88 L 7.19,22.88 L 9.95,21.50 Z" fill="#c0b34d" stroke="none" /><path d="M 21.35,15.76 L 19.97,15.06 L 19.89,15.06 L 17.14,16.43 L 17.10,16.51 L 18.52,17.22 L 21.35,15.80 Z" fill="#c0b34d" stroke="none" /><path d="M 9.95,10.97 L 8.61,10.30 L 8.49,10.30 L 5.74,11.68 L 5.70,11.75 L 7.04,12.42 L 7.19,12.42 L 9.95,11.05 Z" fill="#c0b34d" stroke="none" /><path d="M 1.45,10.65 L 1.49,10.73 L 2.83,11.40 L 2.91,11.40 L 4.25,10.73 L 4.25,10.65 L 2.91,9.99 L 2.79,9.99 Z" fill="#c0b34d" stroke="none" /><path d="M 8.57,8.85 L 8.61,8.92 L 9.95,9.59 L 11.36,8.88 L 11.36,8.85 L 10.02,8.18 L 9.91,8.18 Z" fill="#c0b34d" stroke="none" /><path d="M 11.40,7.43 L 11.40,7.47 L 12.74,8.14 L 12.89,8.14 L 14.23,7.47 L 14.23,7.43 L 12.89,6.76 L 12.74,6.76 Z" fill="#c0b34d" stroke="none" /><path d="M 21.35,5.31 L 19.97,4.60 L 19.89,4.60 L 17.14,5.98 L 17.10,6.05 L 18.44,6.72 L 18.59,6.72 L 21.35,5.35 Z" fill="#c0b34d" stroke="none" /><path d="M 21.35,0.71 L 21.35,0.75 L 22.76,1.45 L 24.22,0.75 L 24.22,0.71 L 22.80,0.00 Z" fill="#c0b34d" stroke="none" /><path d="M 0.04,11.36 L 0.04,11.44 L 1.38,12.11 L 1.49,12.11 L 2.83,11.44 L 2.83,11.36 L 1.49,10.69 L 1.38,10.69 Z" fill="#d0b94f" stroke="none" /><path d="M 9.99,8.14 L 10.02,8.22 L 11.36,8.88 L 12.82,8.18 L 12.82,8.14 L 11.48,7.47 L 11.32,7.47 Z" fill="#d0b94f" stroke="none" /><path d="M 15.65,6.72 L 14.23,6.01 L 12.82,6.72 L 12.82,6.76 L 14.15,7.43 L 14.31,7.43 L 15.65,6.76 Z" fill="#d0b94f" stroke="none" /><path d="M 19.93,1.42 L 19.93,1.45 L 21.35,2.16 L 22.76,1.45 L 22.76,1.42 L 21.43,0.75 L 21.27,0.75 Z" fill="#d0b94f" stroke="none" /><path d="M 1.42,27.83 L 1.42,29.60 L 2.87,30.31 L 2.87,28.54 Z" fill="#998b51" stroke="none" /><path d="M 8.53,16.94 L 8.53,17.61 L 9.99,18.32 L 9.99,16.55 L 9.63,16.39 Z" fill="#998b51" stroke="none" /><path d="M 1.42,13.80 L 1.42,15.57 L 2.87,16.28 L 2.87,14.51 Z" fill="#998b51" stroke="none" /><path d="M 21.35,3.85 L 21.39,3.93 L 22.76,4.60 L 22.76,4.52 L 21.43,3.85 Z" fill="#998b51" stroke="none" /><path d="M 5.70,20.76 L 5.70,22.17 L 7.08,21.50 L 7.08,21.43 Z" fill="#d6c05d" stroke="none" /><path d="M 7.15,20.01 L 7.19,20.09 L 8.53,20.76 L 9.95,20.05 L 9.95,20.01 L 8.61,19.34 L 8.49,19.34 Z" fill="#d6c05d" stroke="none" /><path d="M 17.10,15.10 L 17.10,16.47 L 18.48,15.80 L 18.44,15.72 L 17.18,15.10 Z" fill="#d6c05d" stroke="none" /><path d="M 18.56,14.31 L 18.56,14.39 L 19.89,15.06 L 19.97,15.06 L 21.31,14.39 L 21.31,14.31 L 19.97,13.64 L 19.89,13.64 Z" fill="#d6c05d" stroke="none" /><path d="M 4.64,10.81 L 4.64,10.89 L 5.62,11.36 L 5.70,11.44 L 5.70,11.71 L 7.08,11.05 L 7.08,10.97 L 5.74,10.30 L 5.66,10.30 Z" fill="#d6c05d" stroke="none" /><path d="M 7.15,9.55 L 7.19,9.63 L 8.53,10.30 L 9.95,9.59 L 9.95,9.55 L 8.61,8.88 L 8.49,8.88 Z" fill="#d6c05d" stroke="none" /><path d="M 18.48,5.31 L 17.06,4.60 L 14.31,5.98 L 14.27,6.05 L 15.61,6.72 L 15.72,6.72 L 18.48,5.35 Z" fill="#d6c05d" stroke="none" /><path d="M 18.56,3.85 L 18.56,3.93 L 19.89,4.60 L 19.97,4.60 L 21.31,3.93 L 21.31,3.85 L 19.97,3.18 L 19.89,3.18 Z" fill="#d6c05d" stroke="none" /><path d="M 5.74,20.72 L 5.74,20.80 L 7.08,21.46 L 7.15,21.46 L 8.53,20.76 L 8.53,20.72 L 7.19,20.05 L 7.08,20.05 Z" fill="#e0ca69" stroke="none" /><path d="M 17.10,15.06 L 17.10,15.10 L 18.44,15.76 L 18.56,15.76 L 19.89,15.10 L 19.89,15.02 L 18.56,14.35 L 18.48,14.35 Z" fill="#e0ca69" stroke="none" /><path d="M 5.74,10.26 L 5.74,10.34 L 7.08,11.01 L 7.15,11.01 L 8.53,10.30 L 8.53,10.26 L 7.19,9.59 L 7.08,9.59 Z" fill="#e0ca69" stroke="none" /><path d="M 17.10,4.60 L 17.10,4.64 L 18.44,5.31 L 18.56,5.31 L 19.89,4.64 L 19.89,4.56 L 18.56,3.89 L 18.48,3.89 Z" fill="#e0ca69" stroke="none" /></svg>