<svg height="32" width="32" viewBox="0 0 32 32"><defs /><path d="M 18.97,23.10 L 18.90,23.10 L 16.95,24.09 L 16.95,25.29 L 18.97,24.30 Z" fill="#3a3317" stroke="none" /><path d="M 21.97,21.58 L 19.96,22.57 L 19.96,23.77 L 20.03,23.77 L 21.97,22.78 Z" fill="#3a3317" stroke="none" /><path d="M 23.98,20.59 L 23.91,20.59 L 22.99,21.05 L 22.99,22.25 L 23.06,22.25 L 23.98,21.79 Z" fill="#3a3317" stroke="none" /><path d="M 28.01,18.58 L 27.94,18.58 L 27.02,19.04 L 27.02,20.24 L 27.09,20.24 L 28.01,19.78 Z" fill="#3a3317" stroke="none" /><path d="M 20.98,17.17 L 20.91,17.17 L 18.01,18.61 L 17.98,18.65 L 17.98,19.89 L 20.98,18.40 Z" fill="#3a3317" stroke="none" /><path d="M 23.98,15.65 L 22.99,16.14 L 22.99,17.38 L 23.98,16.88 Z" fill="#3a3317" stroke="none" /><path d="M 32.00,15.33 L 31.01,15.82 L 31.01,18.26 L 32.00,17.77 Z" fill="#3a3317" stroke="none" /><path d="M 28.01,13.63 L 27.02,14.13 L 27.02,16.57 L 27.09,16.57 L 28.01,16.11 Z" fill="#3a3317" stroke="none" /><path d="M 28.01,10.00 L 27.94,10.00 L 27.02,10.45 L 27.02,12.89 L 28.01,12.40 Z" fill="#3a3317" stroke="none" /><path d="M 32.00,7.98 L 31.01,8.48 L 31.01,13.35 L 31.08,13.35 L 32.00,12.89 Z" fill="#3a3317" stroke="none" /><path d="M 16.95,24.09 L 16.00,24.55 L 16.00,25.75 L 16.07,25.75 L 16.95,25.29 Z" fill="#3c351a" stroke="none" /><path d="M 19.96,22.60 L 19.89,22.60 L 18.97,23.06 L 18.97,24.26 L 19.04,24.26 L 19.96,23.81 Z" fill="#3c351a" stroke="none" /><path d="M 22.99,21.09 L 22.92,21.09 L 21.97,21.58 L 21.97,22.78 L 22.99,22.29 Z" fill="#3c351a" stroke="none" /><path d="M 17.98,18.65 L 16.00,19.64 L 16.00,20.87 L 17.98,19.89 Z" fill="#3c351a" stroke="none" /><path d="M 22.99,16.14 L 20.98,17.13 L 20.98,18.37 L 21.05,18.37 L 22.99,17.38 Z" fill="#3c351a" stroke="none" /><path d="M 28.01,16.11 L 27.94,16.11 L 27.02,16.57 L 27.02,19.04 L 27.09,19.04 L 28.01,18.58 Z" fill="#3c351a" stroke="none" /><path d="M 32.00,12.89 L 31.93,12.89 L 31.01,13.35 L 31.01,15.82 L 32.00,15.33 Z" fill="#3c351a" stroke="none" /><path d="M 28.01,12.40 L 27.02,12.89 L 27.02,14.13 L 28.01,13.63 Z" fill="#3c351a" stroke="none" /><path d="M 23.98,19.36 L 23.91,19.36 L 22.99,19.81 L 22.99,21.05 L 23.06,21.05 L 23.98,20.59 Z" fill="#48441d" stroke="none" /><path d="M 23.98,16.88 L 22.99,17.38 L 22.99,18.58 L 23.06,18.58 L 23.98,18.12 Z" fill="#48441d" stroke="none" /><path d="M 23.98,14.41 L 22.99,14.91 L 22.99,16.14 L 23.98,15.65 Z" fill="#48441d" stroke="none" /><path d="M 21.97,13.00 L 17.98,14.98 L 17.98,16.18 L 18.05,16.18 L 21.93,14.23 L 21.97,14.20 Z" fill="#48441d" stroke="none" /><path d="M 23.98,12.01 L 23.91,12.01 L 22.99,12.47 L 22.99,13.67 L 23.06,13.67 L 23.98,13.21 Z" fill="#48441d" stroke="none" /><path d="M 27.02,10.49 L 26.95,10.49 L 26.00,10.98 L 26.00,12.19 L 27.02,11.69 Z" fill="#48441d" stroke="none" /><path d="M 29.03,9.47 L 28.01,9.96 L 28.01,11.16 L 28.08,11.16 L 29.03,10.67 Z" fill="#48441d" stroke="none" /><path d="M 31.01,8.48 L 30.02,8.97 L 30.02,11.37 L 30.09,11.37 L 31.01,10.91 Z" fill="#48441d" stroke="none" /><path d="M 19.96,18.90 L 17.98,19.89 L 17.98,21.09 L 18.05,21.09 L 19.96,20.13 Z" fill="#4a421e" stroke="none" /><path d="M 25.01,17.59 L 23.98,18.08 L 23.98,20.56 L 24.05,20.56 L 25.01,20.06 Z" fill="#4a421e" stroke="none" /><path d="M 22.99,17.38 L 20.98,18.37 L 20.98,19.60 L 22.99,18.61 Z" fill="#4a421e" stroke="none" /><path d="M 29.03,13.14 L 28.96,13.14 L 28.01,13.63 L 28.01,16.07 L 28.08,16.07 L 29.03,15.58 Z" fill="#4a421e" stroke="none" /><path d="M 25.01,11.48 L 23.98,11.97 L 23.98,15.65 L 25.01,15.15 Z" fill="#4a421e" stroke="none" /><path d="M 19.96,21.37 L 19.89,21.37 L 16.99,22.82 L 16.95,22.85 L 16.95,24.09 L 19.96,22.60 Z" fill="#4f461e" stroke="none" /><path d="M 25.01,20.06 L 23.98,20.56 L 23.98,21.76 L 24.05,21.76 L 25.01,21.26 Z" fill="#4f461e" stroke="none" /><path d="M 17.98,19.89 L 16.00,20.87 L 16.00,22.08 L 16.07,22.08 L 17.98,21.12 Z" fill="#4f461e" stroke="none" /><path d="M 20.98,18.40 L 20.91,18.40 L 19.96,18.90 L 19.96,20.10 L 20.03,20.10 L 20.98,19.60 Z" fill="#4f461e" stroke="none" /><path d="M 16.95,17.94 L 16.88,17.94 L 16.00,18.40 L 16.00,19.64 L 16.95,19.18 Z" fill="#4f461e" stroke="none" /><path d="M 29.03,15.58 L 28.01,16.07 L 28.01,19.74 L 28.08,19.74 L 29.03,19.25 Z" fill="#4f461e" stroke="none" /><path d="M 25.01,15.15 L 24.94,15.15 L 23.98,15.65 L 23.98,18.08 L 22.99,18.58 L 22.99,19.81 L 23.06,19.81 L 23.98,19.36 L 23.98,18.12 L 25.01,17.59 Z" fill="#4f461e" stroke="none" /><path d="M 31.01,14.59 L 30.02,15.08 L 30.02,17.55 L 31.01,17.06 Z" fill="#4f461e" stroke="none" /><path d="M 23.98,13.21 L 23.91,13.21 L 22.99,13.67 L 22.99,14.87 L 22.92,14.94 L 20.98,15.89 L 20.98,17.13 L 21.05,17.13 L 22.99,16.14 L 22.99,14.94 L 23.06,14.87 L 23.98,14.41 Z" fill="#4f461e" stroke="none" /><path d="M 27.02,11.69 L 26.95,11.69 L 26.00,12.19 L 26.00,20.77 L 27.02,20.27 Z" fill="#4f461e" stroke="none" /><path d="M 31.01,10.91 L 30.94,10.91 L 30.02,11.37 L 30.02,12.61 L 30.09,12.61 L 31.01,12.15 Z" fill="#4f461e" stroke="none" /><path d="M 29.03,10.67 L 28.01,11.16 L 28.01,13.63 L 29.03,13.14 Z" fill="#4f461e" stroke="none" /><path d="M 17.98,15.01 L 17.91,15.01 L 16.00,15.96 L 16.00,17.17 L 16.07,17.17 L 17.98,16.21 Z" fill="#4d481f" stroke="none" /><path d="M 22.99,12.50 L 22.92,12.50 L 21.97,13.00 L 21.97,14.20 L 22.99,13.70 Z" fill="#4d481f" stroke="none" /><path d="M 31.01,12.15 L 30.94,12.15 L 30.02,12.61 L 30.02,13.85 L 30.09,13.85 L 31.01,13.39 Z" fill="#4d481f" stroke="none" /><path d="M 16.95,22.85 L 16.00,23.31 L 16.00,24.55 L 16.07,24.55 L 16.95,24.09 Z" fill="#534a20" stroke="none" /><path d="M 22.99,19.85 L 22.92,19.85 L 19.96,21.33 L 19.96,22.57 L 20.03,22.57 L 22.99,21.09 Z" fill="#534a20" stroke="none" /><path d="M 31.01,17.06 L 30.02,17.55 L 30.02,18.75 L 31.01,18.26 Z" fill="#534a20" stroke="none" /><path d="M 20.98,15.93 L 20.91,15.93 L 16.95,17.91 L 16.95,19.14 L 17.02,19.14 L 20.98,17.17 Z" fill="#534a20" stroke="none" /><path d="M 31.01,13.39 L 30.94,13.39 L 30.02,13.85 L 30.02,15.08 L 31.01,14.59 Z" fill="#534a20" stroke="none" /><path d="M 26.00,10.98 L 25.01,11.48 L 25.01,12.68 L 26.00,12.19 Z" fill="#534a20" stroke="none" /><path d="M 30.02,8.97 L 29.03,9.47 L 29.03,10.67 L 30.02,10.17 Z" fill="#534a20" stroke="none" /><path d="M 18.97,20.63 L 18.90,20.63 L 16.00,22.08 L 16.00,23.31 L 16.07,23.31 L 18.97,21.86 Z" fill="#564d25" stroke="none" /><path d="M 22.99,18.61 L 22.92,18.61 L 21.97,19.11 L 21.97,20.34 L 22.99,19.85 Z" fill="#564d25" stroke="none" /><path d="M 26.00,18.33 L 25.01,18.83 L 25.01,20.06 L 26.00,19.57 Z" fill="#564d25" stroke="none" /><path d="M 30.02,17.55 L 29.03,18.05 L 29.03,19.25 L 30.02,18.75 Z" fill="#564d25" stroke="none" /><path d="M 17.98,16.21 L 17.91,16.21 L 16.95,16.71 L 16.95,17.91 L 17.02,17.91 L 17.98,17.41 Z" fill="#564d25" stroke="none" /><path d="M 26.00,15.89 L 25.92,15.89 L 25.01,16.35 L 25.01,17.59 L 26.00,17.09 Z" fill="#564d25" stroke="none" /><path d="M 21.97,14.20 L 19.96,15.19 L 19.96,16.42 L 21.97,15.43 Z" fill="#564d25" stroke="none" /><path d="M 30.02,13.88 L 29.95,13.88 L 29.03,14.34 L 29.03,16.81 L 30.02,16.32 Z" fill="#564d25" stroke="none" /><path d="M 26.00,12.19 L 25.01,12.68 L 25.01,13.88 L 25.08,13.88 L 26.00,13.42 Z" fill="#564d25" stroke="none" /><path d="M 30.02,10.17 L 29.03,10.67 L 29.03,11.87 L 29.10,11.87 L 30.02,11.41 Z" fill="#564d25" stroke="none" /><path d="M 15.05,22.85 L 15.05,25.29 L 15.93,25.75 L 16.00,25.75 L 16.00,23.31 Z" fill="#5e5226" stroke="none" /><path d="M 11.02,22.08 L 11.02,23.28 L 11.97,23.77 L 12.04,23.77 L 12.04,22.57 Z" fill="#5e5226" stroke="none" /><path d="M 6.99,20.06 L 6.99,21.26 L 7.95,21.76 L 8.02,21.76 L 8.02,20.56 Z" fill="#5e5226" stroke="none" /><path d="M 3.99,18.58 L 3.99,19.78 L 6.00,20.77 L 6.00,19.57 L 4.06,18.58 Z" fill="#5e5226" stroke="none" /><path d="M 11.02,17.17 L 11.02,19.60 L 11.97,20.10 L 12.04,20.10 L 12.04,17.66 L 11.09,17.17 Z" fill="#5e5226" stroke="none" /><path d="M 0.99,17.06 L 0.99,18.26 L 2.97,19.25 L 2.97,18.05 Z" fill="#5e5226" stroke="none" /><path d="M 15.05,15.51 L 15.05,20.42 L 16.00,20.87 L 16.00,15.96 Z" fill="#5e5226" stroke="none" /><path d="M 6.99,15.15 L 6.99,16.39 L 8.02,16.88 L 8.02,15.65 L 7.06,15.15 Z" fill="#5e5226" stroke="none" /><path d="M 11.02,13.49 L 11.02,15.93 L 12.04,16.42 L 12.04,13.99 Z" fill="#5e5226" stroke="none" /><path d="M 1.98,12.64 L 1.98,13.88 L 4.98,15.36 L 4.98,14.13 L 4.94,14.09 L 2.05,12.64 Z" fill="#5e5226" stroke="none" /><path d="M 26.00,19.57 L 25.01,20.06 L 25.01,21.26 L 26.00,20.77 Z" fill="#5a512a" stroke="none" /><path d="M 21.97,19.11 L 18.97,20.59 L 18.97,21.83 L 19.04,21.83 L 21.93,20.38 L 21.97,20.34 Z" fill="#5a512a" stroke="none" /><path d="M 26.00,17.09 L 25.01,17.59 L 25.01,18.83 L 26.00,18.33 Z" fill="#5a512a" stroke="none" /><path d="M 16.95,16.71 L 16.00,17.17 L 16.00,18.40 L 16.95,17.94 Z" fill="#5a512a" stroke="none" /><path d="M 30.02,16.32 L 29.03,16.81 L 29.03,18.05 L 30.02,17.55 Z" fill="#5a512a" stroke="none" /><path d="M 19.96,15.22 L 19.89,15.22 L 17.98,16.18 L 17.98,17.41 L 19.96,16.42 Z" fill="#5a512a" stroke="none" /><path d="M 22.99,13.70 L 22.92,13.70 L 21.97,14.20 L 21.97,15.40 L 22.04,15.40 L 22.99,14.91 Z" fill="#5a512a" stroke="none" /><path d="M 26.00,13.42 L 25.92,13.42 L 25.01,13.88 L 25.01,16.35 L 25.08,16.35 L 26.00,15.89 Z" fill="#5a512a" stroke="none" /><path d="M 30.02,11.41 L 29.95,11.41 L 29.03,11.87 L 29.03,14.34 L 29.10,14.34 L 30.02,13.88 Z" fill="#5a512a" stroke="none" /><path d="M 15.05,20.42 L 15.05,22.85 L 15.93,23.31 L 16.00,23.31 L 16.00,20.87 L 15.12,20.42 Z" fill="#62572a" stroke="none" /><path d="M 11.02,19.60 L 11.02,22.08 L 11.97,22.57 L 12.04,22.57 L 12.04,20.10 Z" fill="#62572a" stroke="none" /><path d="M 6.00,19.57 L 6.00,20.77 L 6.99,21.26 L 6.99,20.06 Z" fill="#62572a" stroke="none" /><path d="M 2.97,18.05 L 2.97,19.25 L 3.92,19.74 L 3.99,19.74 L 3.99,18.54 Z" fill="#62572a" stroke="none" /><path d="M 0.00,16.57 L 0.00,17.77 L 0.99,18.26 L 0.99,17.06 Z" fill="#62572a" stroke="none" /><path d="M 11.02,15.93 L 11.02,17.17 L 12.04,17.66 L 12.04,16.42 L 11.09,15.93 Z" fill="#62572a" stroke="none" /><path d="M 4.98,14.13 L 4.98,15.36 L 6.92,16.35 L 6.99,16.35 L 6.99,15.12 Z" fill="#62572a" stroke="none" /><path d="M 0.00,11.66 L 0.00,12.89 L 1.91,13.85 L 1.98,13.85 L 1.98,12.61 L 0.07,11.66 Z" fill="#62572a" stroke="none" /><path d="M 6.99,18.83 L 6.99,20.06 L 7.95,20.56 L 8.02,20.56 L 8.02,19.32 Z" fill="#756e2f" stroke="none" /><path d="M 6.99,16.39 L 6.99,17.59 L 7.95,18.08 L 8.02,18.08 L 8.02,16.88 L 7.06,16.39 Z" fill="#756e2f" stroke="none" /><path d="M 14.02,15.01 L 14.02,17.41 L 14.98,17.91 L 15.05,17.91 L 15.05,15.51 L 14.09,15.01 Z" fill="#756e2f" stroke="none" /><path d="M 12.04,14.02 L 12.04,15.22 L 12.96,15.68 L 13.03,15.68 L 13.03,14.48 L 12.11,14.02 Z" fill="#756e2f" stroke="none" /><path d="M 6.99,13.92 L 6.99,15.15 L 8.02,15.65 L 8.02,14.41 L 7.06,13.92 Z" fill="#756e2f" stroke="none" /><path d="M 10.03,13.00 L 10.03,14.20 L 11.02,14.69 L 11.02,13.49 Z" fill="#756e2f" stroke="none" /><path d="M 6.99,11.48 L 6.99,12.68 L 7.95,13.17 L 8.02,13.17 L 8.02,11.97 Z" fill="#756e2f" stroke="none" /><path d="M 1.98,8.97 L 1.98,10.17 L 2.01,10.21 L 6.00,12.19 L 6.00,10.98 L 5.97,10.95 Z" fill="#756e2f" stroke="none" /><path d="M 8.02,18.12 L 8.02,20.59 L 8.94,21.05 L 9.01,21.05 L 9.01,18.58 L 8.09,18.12 Z" fill="#786c31" stroke="none" /><path d="M 12.04,17.66 L 12.04,20.13 L 12.96,20.59 L 13.03,20.59 L 13.03,18.15 Z" fill="#786c31" stroke="none" /><path d="M 4.98,15.36 L 4.98,16.60 L 6.99,17.59 L 6.99,16.35 Z" fill="#786c31" stroke="none" /><path d="M 1.98,13.88 L 1.98,15.08 L 3.92,16.07 L 3.99,16.07 L 3.99,14.87 L 2.05,13.88 Z" fill="#786c31" stroke="none" /><path d="M 8.02,12.01 L 8.02,15.65 L 9.01,16.14 L 9.01,12.47 L 8.09,12.01 Z" fill="#786c31" stroke="none" /><path d="M 14.02,21.12 L 14.02,23.59 L 15.05,24.09 L 15.05,21.62 L 14.09,21.12 Z" fill="#807131" stroke="none" /><path d="M 8.02,20.59 L 8.02,21.79 L 8.94,22.25 L 9.01,22.25 L 9.01,21.05 L 8.09,20.59 Z" fill="#807131" stroke="none" /><path d="M 12.04,20.13 L 12.04,23.81 L 12.96,24.26 L 13.03,24.26 L 13.03,20.59 L 12.11,20.13 Z" fill="#807131" stroke="none" /><path d="M 14.02,17.41 L 14.02,18.65 L 14.98,19.14 L 15.05,19.14 L 15.05,17.91 Z" fill="#807131" stroke="none" /><path d="M 0.99,15.82 L 0.99,17.06 L 1.02,17.09 L 3.92,18.54 L 3.99,18.54 L 3.99,17.31 Z" fill="#807131" stroke="none" /><path d="M 8.05,15.65 L 8.02,15.65 L 8.02,18.05 L 7.98,18.08 L 6.99,17.59 L 6.99,18.83 L 7.95,19.32 L 8.02,19.32 L 8.02,18.15 L 8.05,18.12 L 8.94,18.58 L 9.01,18.58 L 9.01,16.14 Z" fill="#807131" stroke="none" /><path d="M 12.04,15.22 L 12.04,17.66 L 13.03,18.15 L 13.03,15.68 L 12.11,15.22 Z" fill="#807131" stroke="none" /><path d="M 3.99,14.87 L 3.99,16.11 L 4.91,16.57 L 4.98,16.57 L 4.98,15.36 Z" fill="#807131" stroke="none" /><path d="M 10.03,14.20 L 10.03,22.78 L 11.02,23.28 L 11.02,14.69 Z" fill="#807131" stroke="none" /><path d="M 0.00,12.89 L 0.00,14.09 L 1.98,15.08 L 1.98,13.85 L 0.07,12.89 Z" fill="#807131" stroke="none" /><path d="M 8.02,13.17 L 6.99,12.68 L 6.99,13.85 L 6.96,13.88 L 4.98,12.89 L 4.98,14.13 L 6.92,15.12 L 6.99,15.12 L 6.99,13.95 L 7.03,13.92 L 8.02,14.41 Z" fill="#807131" stroke="none" /><path d="M 0.00,10.42 L 0.00,11.66 L 0.92,12.11 L 0.99,12.11 L 0.99,10.88 L 0.07,10.42 Z" fill="#807131" stroke="none" /><path d="M 14.02,18.65 L 14.02,19.89 L 14.98,20.38 L 15.05,20.38 L 15.05,19.14 Z" fill="#7c7432" stroke="none" /><path d="M 6.00,10.98 L 6.00,12.19 L 6.99,12.68 L 6.99,11.48 Z" fill="#7c7432" stroke="none" /><path d="M 0.00,7.98 L 0.00,9.18 L 1.98,10.17 L 1.98,8.97 Z" fill="#7c7432" stroke="none" /><path d="M 14.02,23.59 L 14.02,24.79 L 15.05,25.29 L 15.05,24.09 L 14.09,23.59 Z" fill="#877833" stroke="none" /><path d="M 14.02,19.89 L 14.02,21.12 L 15.05,21.62 L 15.05,20.38 Z" fill="#877833" stroke="none" /><path d="M 3.99,17.34 L 3.99,18.58 L 6.99,20.06 L 6.99,18.83 L 6.96,18.79 L 4.06,17.34 Z" fill="#877833" stroke="none" /><path d="M 0.00,15.33 L 0.00,16.57 L 0.99,17.06 L 0.99,15.82 Z" fill="#877833" stroke="none" /><path d="M 13.03,14.52 L 13.03,15.72 L 13.95,16.18 L 14.02,16.18 L 14.02,14.98 L 13.10,14.52 Z" fill="#877833" stroke="none" /><path d="M 9.01,12.50 L 9.01,13.70 L 10.03,14.20 L 10.03,13.00 L 9.08,12.50 Z" fill="#877833" stroke="none" /><path d="M 0.99,10.91 L 0.99,12.15 L 4.98,14.13 L 4.98,12.89 L 4.94,12.86 L 1.06,10.91 Z" fill="#877833" stroke="none" /><path d="M 24.97,11.44 L 24.02,10.98 L 23.03,11.48 L 23.03,11.51 L 23.95,11.97 L 24.05,11.97 L 24.97,11.51 Z" fill="#907e3a" stroke="none" /><path d="M 19.04,10.49 L 19.04,10.53 L 19.96,10.98 L 20.10,10.98 L 21.02,10.53 L 20.98,10.45 L 20.06,10.00 L 19.99,10.00 Z" fill="#907e3a" stroke="none" /><path d="M 3.99,9.96 L 3.99,10.00 L 7.95,11.97 L 8.05,11.97 L 8.97,11.51 L 8.97,11.48 L 5.02,9.50 L 4.87,9.50 Z" fill="#907e3a" stroke="none" /><path d="M 29.00,9.43 L 28.04,8.97 L 27.06,9.47 L 27.06,9.50 L 27.97,9.96 L 28.08,9.96 L 29.00,9.50 Z" fill="#907e3a" stroke="none" /><path d="M 9.96,8.97 L 9.96,9.01 L 11.94,10.00 L 10.98,10.49 L 10.98,10.53 L 11.90,10.98 L 12.04,10.98 L 14.98,9.50 L 14.98,9.47 L 14.06,9.01 L 13.92,9.01 L 13.03,9.47 L 12.93,9.47 L 10.98,8.48 Z" fill="#907e3a" stroke="none" /><path d="M 17.98,7.95 L 17.06,7.49 L 16.95,7.49 L 15.05,8.44 L 15.01,8.51 L 15.93,8.97 L 16.07,8.97 L 17.98,8.02 Z" fill="#907e3a" stroke="none" /><path d="M 0.04,7.95 L 0.04,8.02 L 1.94,8.97 L 2.01,8.97 L 2.93,8.51 L 2.90,8.44 L 0.99,7.49 Z" fill="#907e3a" stroke="none" /><path d="M 6.96,7.45 L 6.99,7.52 L 8.90,8.48 L 9.01,8.48 L 9.92,8.02 L 9.92,7.95 L 8.02,6.99 L 7.88,6.99 Z" fill="#907e3a" stroke="none" /><path d="M 3.99,5.97 L 4.03,6.04 L 4.87,6.46 L 5.02,6.46 L 5.93,6.00 L 5.90,5.93 L 5.05,5.51 L 4.91,5.51 Z" fill="#907e3a" stroke="none" /><path d="M 20.06,5.93 L 20.06,6.00 L 20.98,6.46 L 21.09,6.46 L 22.00,6.00 L 22.00,5.93 L 21.09,5.47 L 20.98,5.47 Z" fill="#907e3a" stroke="none" /><path d="M 12.01,5.93 L 12.01,6.00 L 12.93,6.46 L 13.03,6.46 L 13.95,6.00 L 13.95,5.93 L 13.03,5.47 L 12.93,5.47 Z" fill="#907e3a" stroke="none" /><path d="M 8.02,3.96 L 8.05,4.03 L 8.90,4.45 L 9.04,4.45 L 9.96,3.99 L 9.92,3.92 L 9.08,3.50 L 8.94,3.50 Z" fill="#907e3a" stroke="none" /><path d="M 18.97,3.43 L 18.05,2.97 L 17.94,2.97 L 15.05,4.42 L 15.01,4.49 L 15.93,4.94 L 16.07,4.94 L 18.97,3.50 Z" fill="#907e3a" stroke="none" /><path d="M 13.00,2.44 L 12.08,1.98 L 11.97,1.98 L 10.07,2.93 L 10.03,3.00 L 10.95,3.46 L 11.02,3.46 L 13.00,2.47 Z" fill="#907e3a" stroke="none" /><path d="M 15.96,0.92 L 15.01,0.46 L 13.03,1.45 L 13.03,1.48 L 13.95,1.94 L 14.06,1.94 L 15.96,0.99 Z" fill="#907e3a" stroke="none" /><path d="M 13.03,23.10 L 13.03,24.30 L 13.95,24.76 L 14.02,24.76 L 14.02,23.56 L 13.10,23.10 Z" fill="#8b7c3c" stroke="none" /><path d="M 9.01,19.85 L 9.01,21.09 L 10.03,21.58 L 10.03,20.34 L 9.08,19.85 Z" fill="#8b7c3c" stroke="none" /><path d="M 13.03,19.39 L 13.03,21.86 L 13.95,22.32 L 14.02,22.32 L 14.02,19.89 Z" fill="#8b7c3c" stroke="none" /><path d="M 9.01,17.38 L 9.01,18.61 L 10.03,19.11 L 10.03,17.87 Z" fill="#8b7c3c" stroke="none" /><path d="M 6.00,17.09 L 6.00,18.33 L 6.99,18.83 L 6.99,17.59 Z" fill="#8b7c3c" stroke="none" /><path d="M 13.03,15.72 L 13.03,16.92 L 14.02,17.41 L 14.02,16.18 L 13.10,15.72 Z" fill="#8b7c3c" stroke="none" /><path d="M 0.00,14.09 L 0.00,15.33 L 0.04,15.36 L 2.97,16.81 L 2.97,15.58 L 2.93,15.54 Z" fill="#8b7c3c" stroke="none" /><path d="M 9.01,13.70 L 9.01,14.91 L 9.96,15.40 L 10.03,15.40 L 10.03,14.20 L 9.08,13.70 Z" fill="#8b7c3c" stroke="none" /><path d="M 3.99,11.20 L 3.99,12.40 L 5.93,13.39 L 6.00,13.39 L 6.00,12.19 L 4.06,11.20 Z" fill="#8b7c3c" stroke="none" /><path d="M 0.99,9.68 L 0.99,10.91 L 1.91,11.37 L 1.98,11.37 L 1.98,10.17 Z" fill="#8b7c3c" stroke="none" /><path d="M 20.03,10.98 L 19.00,10.49 L 12.08,13.95 L 12.04,14.02 L 12.96,14.48 L 13.10,14.48 L 20.03,11.02 Z" fill="#978540" stroke="none" /><path d="M 11.97,10.98 L 10.95,10.49 L 8.05,11.94 L 8.02,12.01 L 8.94,12.47 L 9.08,12.47 L 11.97,11.02 Z" fill="#978540" stroke="none" /><path d="M 13.99,8.97 L 13.99,9.01 L 14.98,9.50 L 16.00,9.01 L 16.00,8.97 L 15.01,8.48 Z" fill="#978540" stroke="none" /><path d="M 2.01,8.94 L 2.01,9.01 L 3.92,9.96 L 4.03,9.96 L 4.94,9.50 L 4.94,9.47 L 2.97,8.48 Z" fill="#978540" stroke="none" /><path d="M 17.02,8.48 L 17.02,8.51 L 22.96,11.48 L 23.10,11.48 L 24.02,11.02 L 23.98,10.95 L 18.05,7.98 L 17.98,7.98 Z" fill="#978540" stroke="none" /><path d="M 8.97,8.48 L 8.97,8.51 L 9.89,8.97 L 10.03,8.97 L 10.95,8.51 L 10.91,8.44 L 10.00,7.98 L 9.92,7.98 Z" fill="#978540" stroke="none" /><path d="M 21.05,6.46 L 21.05,6.50 L 26.98,9.47 L 27.13,9.47 L 28.04,9.01 L 28.01,8.94 L 22.08,5.97 L 22.00,5.97 Z" fill="#978540" stroke="none" /><path d="M 4.94,6.46 L 4.94,6.50 L 6.92,7.49 L 7.95,6.99 L 7.95,6.96 L 5.97,5.97 Z" fill="#978540" stroke="none" /><path d="M 16.00,4.94 L 14.98,4.45 L 13.00,5.44 L 13.00,5.47 L 13.95,5.97 L 14.02,5.97 L 16.00,4.98 Z" fill="#978540" stroke="none" /><path d="M 10.95,3.43 L 10.00,2.97 L 9.01,3.46 L 9.01,3.50 L 9.92,3.96 L 10.03,3.96 L 10.95,3.50 Z" fill="#978540" stroke="none" /><path d="M 20.94,2.44 L 20.03,1.98 L 19.92,1.98 L 18.01,2.93 L 18.01,2.97 L 18.97,3.46 L 19.04,3.46 L 20.94,2.51 Z" fill="#978540" stroke="none" /><path d="M 12.04,1.94 L 12.08,2.01 L 12.93,2.44 L 13.07,2.44 L 13.99,1.98 L 13.95,1.91 L 13.10,1.48 L 12.96,1.48 Z" fill="#978540" stroke="none" /><path d="M 15.05,0.46 L 15.05,0.49 L 15.96,0.95 L 16.04,0.95 L 16.95,0.49 L 16.92,0.42 L 16.07,0.00 L 15.93,0.00 Z" fill="#978540" stroke="none" /><path d="M 13.03,21.86 L 13.03,23.10 L 13.95,23.56 L 14.02,23.56 L 14.02,22.32 L 13.10,21.86 Z" fill="#928344" stroke="none" /><path d="M 9.01,21.09 L 9.01,22.29 L 10.03,22.78 L 10.03,21.58 L 9.08,21.09 Z" fill="#928344" stroke="none" /><path d="M 9.01,18.61 L 9.01,19.85 L 10.03,20.34 L 10.03,19.11 L 9.08,18.61 Z" fill="#928344" stroke="none" /><path d="M 13.03,16.92 L 13.03,19.39 L 14.02,19.89 L 14.02,17.41 Z" fill="#928344" stroke="none" /><path d="M 2.97,15.58 L 2.97,16.81 L 3.00,16.85 L 6.00,18.33 L 6.00,17.09 L 5.97,17.06 Z" fill="#928344" stroke="none" /><path d="M 9.01,14.91 L 9.01,17.38 L 9.96,17.87 L 10.03,17.87 L 10.03,15.40 Z" fill="#928344" stroke="none" /><path d="M 6.00,12.19 L 6.00,13.42 L 6.92,13.88 L 6.99,13.88 L 6.99,12.68 Z" fill="#928344" stroke="none" /><path d="M 1.98,10.17 L 1.98,11.41 L 3.99,12.40 L 3.99,11.16 Z" fill="#928344" stroke="none" /><path d="M 0.00,9.18 L 0.00,10.42 L 0.92,10.88 L 0.99,10.88 L 0.99,9.68 Z" fill="#928344" stroke="none" /><path d="M 15.05,15.47 L 15.08,15.54 L 15.93,15.96 L 16.07,15.96 L 16.95,15.51 L 16.95,15.47 L 16.04,15.01 L 15.96,15.01 Z" fill="#b5a948" stroke="none" /><path d="M 19.96,13.99 L 19.07,13.53 L 18.93,13.53 L 17.02,14.48 L 17.02,14.52 L 17.91,14.98 L 18.05,14.98 L 19.96,14.02 Z" fill="#b5a948" stroke="none" /><path d="M 22.04,11.97 L 22.08,12.04 L 22.92,12.47 L 23.06,12.47 L 23.98,12.01 L 23.95,11.94 L 23.10,11.51 L 22.96,11.51 Z" fill="#b5a948" stroke="none" /><path d="M 22.00,10.98 L 21.02,10.49 L 20.03,10.98 L 20.03,11.02 L 20.94,11.48 L 21.09,11.48 L 22.00,11.02 Z" fill="#b5a948" stroke="none" /><path d="M 6.99,10.45 L 6.99,10.53 L 8.90,11.48 L 9.04,11.48 L 9.96,11.02 L 9.92,10.95 L 8.02,10.00 L 7.91,10.00 Z" fill="#b5a948" stroke="none" /><path d="M 18.05,9.96 L 18.05,10.03 L 18.97,10.49 L 19.07,10.49 L 19.99,10.03 L 19.99,9.96 L 19.07,9.50 L 18.97,9.50 Z" fill="#b5a948" stroke="none" /><path d="M 10.00,9.96 L 10.00,10.03 L 10.91,10.49 L 11.02,10.49 L 11.94,10.03 L 11.94,9.96 L 11.02,9.50 L 10.91,9.50 Z" fill="#b5a948" stroke="none" /><path d="M 18.01,8.97 L 16.99,8.48 L 15.01,9.47 L 15.01,9.50 L 15.96,10.00 L 16.04,10.00 L 18.01,9.01 Z" fill="#b5a948" stroke="none" /><path d="M 11.97,8.97 L 11.97,9.01 L 12.96,9.50 L 13.99,9.01 L 13.99,8.97 L 13.00,8.48 Z" fill="#b5a948" stroke="none" /><path d="M 13.00,6.46 L 13.00,6.50 L 13.92,6.96 L 14.06,6.96 L 14.98,6.50 L 14.94,6.43 L 14.02,5.97 L 13.95,5.97 Z" fill="#b5a948" stroke="none" /><path d="M 10.98,5.44 L 11.02,5.51 L 11.94,5.97 L 12.01,5.97 L 12.96,5.47 L 12.96,5.44 L 12.04,4.98 L 11.90,4.98 Z" fill="#b5a948" stroke="none" /><path d="M 22.99,5.44 L 21.09,4.49 L 20.94,4.49 L 17.06,6.43 L 17.02,6.50 L 17.91,6.92 L 17.94,6.96 L 17.91,7.03 L 17.06,7.45 L 16.95,7.45 L 16.07,6.99 L 15.93,6.99 L 15.01,7.45 L 15.01,7.49 L 15.96,7.98 L 16.04,7.98 L 16.99,7.49 L 17.98,7.98 L 18.05,7.98 L 19.00,7.49 L 19.00,7.45 L 18.12,7.03 L 18.08,6.96 L 18.97,6.50 L 19.07,6.50 L 22.00,7.98 L 22.08,7.98 L 22.99,7.52 L 23.03,7.45 L 20.06,5.97 L 21.02,5.47 L 22.00,5.97 L 22.08,5.97 L 22.99,5.51 Z" fill="#b5a948" stroke="none" /><path d="M 23.03,4.45 L 23.03,4.49 L 25.01,5.47 L 25.08,5.47 L 26.00,5.02 L 25.96,4.94 L 24.05,3.99 L 23.95,3.99 Z" fill="#b5a948" stroke="none" /><path d="M 8.97,4.45 L 8.97,4.49 L 9.96,4.98 L 10.98,4.49 L 10.98,4.45 L 10.00,3.96 Z" fill="#b5a948" stroke="none" /><path d="M 11.06,13.46 L 11.06,13.53 L 11.97,13.99 L 12.08,13.99 L 13.00,13.53 L 13.00,13.49 L 12.01,13.00 Z" fill="#b9a64b" stroke="none" /><path d="M 14.02,11.97 L 14.02,12.04 L 14.94,12.50 L 15.05,12.50 L 15.96,12.04 L 15.96,11.97 L 15.05,11.51 L 14.94,11.51 Z" fill="#b9a64b" stroke="none" /><path d="M 19.00,10.49 L 18.05,10.00 L 17.98,10.00 L 16.00,10.98 L 16.00,11.02 L 17.02,11.51 L 19.00,10.53 Z" fill="#b9a64b" stroke="none" /><path d="M 25.04,9.47 L 25.04,9.50 L 26.95,10.45 L 27.09,10.45 L 28.01,10.00 L 27.97,9.92 L 26.07,8.97 Z" fill="#b9a64b" stroke="none" /><path d="M 22.08,7.95 L 22.08,8.02 L 22.99,8.48 L 23.10,8.48 L 24.02,8.02 L 24.02,7.95 L 23.10,7.49 L 22.99,7.49 Z" fill="#b9a64b" stroke="none" /><path d="M 5.97,7.95 L 5.97,8.02 L 7.88,8.97 L 8.02,8.97 L 8.94,8.51 L 8.90,8.44 L 6.99,7.49 L 6.89,7.49 Z" fill="#b9a64b" stroke="none" /><path d="M 28.08,6.96 L 28.11,7.03 L 31.01,8.48 L 31.96,8.02 L 31.96,7.95 L 29.07,6.50 L 29.00,6.50 Z" fill="#b9a64b" stroke="none" /><path d="M 11.97,6.96 L 11.97,6.99 L 14.94,8.48 L 15.05,8.48 L 15.96,8.02 L 15.96,7.95 L 13.00,6.46 Z" fill="#b9a64b" stroke="none" /><path d="M 25.08,5.44 L 25.08,5.51 L 26.98,6.46 L 27.13,6.46 L 28.01,6.00 L 28.01,5.97 L 26.03,4.98 Z" fill="#b9a64b" stroke="none" /><path d="M 7.98,4.94 L 8.02,5.02 L 9.92,5.97 L 10.00,5.97 L 10.95,5.47 L 10.95,5.44 L 9.04,4.49 L 8.90,4.49 Z" fill="#b9a64b" stroke="none" /><path d="M 14.98,4.45 L 14.02,3.96 L 13.95,3.96 L 11.97,4.94 L 11.97,4.98 L 13.00,5.47 L 14.98,4.49 Z" fill="#b9a64b" stroke="none" /><path d="M 17.98,2.93 L 17.06,2.47 L 16.92,2.47 L 15.01,3.43 L 15.01,3.46 L 15.96,3.96 L 16.04,3.96 L 17.94,3.00 Z" fill="#b9a64b" stroke="none" /><path d="M 16.00,13.99 L 15.08,13.53 L 14.94,13.53 L 13.03,14.48 L 13.03,14.52 L 13.95,14.98 L 14.09,14.98 L 16.00,14.02 Z" fill="#c6af4c" stroke="none" /><path d="M 14.98,12.50 L 14.02,12.01 L 13.95,12.01 L 12.04,12.96 L 12.01,13.03 L 12.93,13.49 L 13.07,13.49 L 14.98,12.54 Z" fill="#c6af4c" stroke="none" /><path d="M 21.02,11.48 L 20.10,11.02 L 19.96,11.02 L 18.05,11.97 L 18.05,12.04 L 18.97,12.50 L 19.04,12.50 L 21.02,11.51 Z" fill="#c6af4c" stroke="none" /><path d="M 15.01,11.48 L 15.05,11.55 L 15.96,12.01 L 16.04,12.01 L 16.99,11.51 L 16.99,11.48 L 16.07,11.02 L 15.93,11.02 Z" fill="#c6af4c" stroke="none" /><path d="M 12.96,11.48 L 12.04,11.02 L 11.90,11.02 L 9.01,12.47 L 9.01,12.50 L 10.03,13.00 L 12.93,11.55 Z" fill="#c6af4c" stroke="none" /><path d="M 23.06,10.45 L 23.06,10.53 L 24.97,11.48 L 25.04,11.48 L 26.00,10.98 L 26.00,10.95 L 24.09,10.00 L 23.98,10.00 Z" fill="#c6af4c" stroke="none" /><path d="M 14.02,9.96 L 14.02,10.03 L 14.94,10.49 L 15.05,10.49 L 15.96,10.03 L 15.96,9.96 L 15.05,9.50 L 14.94,9.50 Z" fill="#c6af4c" stroke="none" /><path d="M 5.97,9.96 L 6.00,10.03 L 6.92,10.49 L 6.99,10.49 L 7.95,10.00 L 7.95,9.96 L 7.03,9.50 L 6.89,9.50 Z" fill="#c6af4c" stroke="none" /><path d="M 21.05,9.47 L 21.09,9.54 L 22.00,10.00 L 22.08,10.00 L 23.03,9.50 L 23.03,9.47 L 22.11,9.01 L 21.97,9.01 Z" fill="#c6af4c" stroke="none" /><path d="M 7.95,8.97 L 7.95,9.01 L 9.92,10.00 L 10.00,10.00 L 10.95,9.50 L 10.95,9.47 L 8.97,8.48 Z" fill="#c6af4c" stroke="none" /><path d="M 23.06,8.48 L 23.06,8.51 L 24.97,9.47 L 25.11,9.47 L 26.03,9.01 L 26.00,8.94 L 24.09,7.98 L 24.02,7.98 Z" fill="#c6af4c" stroke="none" /><path d="M 26.10,7.95 L 26.10,8.02 L 29.00,9.47 L 29.07,9.47 L 29.99,9.01 L 29.99,8.94 L 27.09,7.49 L 27.02,7.49 Z" fill="#c6af4c" stroke="none" /><path d="M 18.05,7.95 L 18.05,8.02 L 18.97,8.48 L 19.07,8.48 L 19.99,8.02 L 19.99,7.95 L 19.07,7.49 L 18.97,7.49 Z" fill="#c6af4c" stroke="none" /><path d="M 1.98,7.95 L 1.98,8.02 L 3.89,8.97 L 3.99,8.97 L 4.91,8.51 L 4.91,8.44 L 3.00,7.49 L 2.90,7.49 Z" fill="#c6af4c" stroke="none" /><path d="M 27.06,6.46 L 27.06,6.50 L 28.04,6.99 L 29.00,6.53 L 29.00,6.46 L 28.08,6.00 L 27.97,6.00 Z" fill="#c6af4c" stroke="none" /><path d="M 3.00,6.46 L 3.00,6.53 L 5.90,7.98 L 5.97,7.98 L 6.92,7.49 L 6.92,7.45 L 4.03,6.00 L 3.92,6.00 Z" fill="#c6af4c" stroke="none" /><path d="M 22.08,5.93 L 22.08,6.00 L 22.99,6.46 L 23.10,6.46 L 24.02,6.00 L 23.98,5.93 L 23.06,5.47 L 22.99,5.47 Z" fill="#c6af4c" stroke="none" /><path d="M 16.99,5.44 L 16.07,4.98 L 15.93,4.98 L 14.02,5.93 L 14.02,6.00 L 14.94,6.46 L 14.87,6.53 L 13.99,6.96 L 13.99,6.99 L 14.98,7.49 L 16.00,6.99 L 16.00,6.96 L 15.12,6.53 L 15.05,6.46 L 16.95,5.51 Z" fill="#c6af4c" stroke="none" /><path d="M 4.98,5.47 L 4.98,5.51 L 11.90,8.97 L 12.04,8.97 L 12.96,8.51 L 12.93,8.44 L 6.00,4.98 Z" fill="#c6af4c" stroke="none" /><path d="M 10.00,4.94 L 10.03,5.02 L 10.84,5.40 L 10.91,5.47 L 10.00,5.93 L 10.00,6.00 L 11.90,6.96 L 12.04,6.96 L 12.96,6.50 L 12.93,6.43 L 11.02,5.47 L 11.09,5.40 L 11.97,4.98 L 11.97,4.94 L 11.06,4.49 L 10.91,4.49 Z" fill="#c6af4c" stroke="none" /><path d="M 7.03,4.45 L 7.03,4.52 L 7.95,4.98 L 8.97,4.49 L 8.97,4.45 L 8.05,3.99 L 7.95,3.99 Z" fill="#c6af4c" stroke="none" /><path d="M 14.02,3.92 L 14.02,3.99 L 14.94,4.45 L 15.05,4.45 L 15.96,3.99 L 15.96,3.92 L 15.05,3.46 L 14.94,3.46 Z" fill="#c6af4c" stroke="none" /><path d="M 20.03,2.93 L 20.06,3.00 L 20.98,3.46 L 21.05,3.46 L 21.97,3.00 L 21.93,2.93 L 21.02,2.47 L 20.94,2.47 Z" fill="#c6af4c" stroke="none" /><path d="M 19.96,1.94 L 19.04,1.48 L 18.90,1.48 L 16.99,2.44 L 16.99,2.47 L 18.01,2.97 L 19.92,2.01 Z" fill="#c6af4c" stroke="none" /><path d="M 16.99,1.45 L 16.04,0.95 L 15.96,0.95 L 13.00,2.44 L 13.00,2.47 L 14.02,2.97 L 16.99,1.48 Z" fill="#c6af4c" stroke="none" /><path d="M 16.04,14.98 L 16.04,15.05 L 16.95,15.51 L 17.98,15.01 L 17.98,14.98 L 17.06,14.52 L 16.95,14.52 Z" fill="#c0b34d" stroke="none" /><path d="M 22.99,12.47 L 22.08,12.01 L 21.97,12.01 L 19.00,13.49 L 19.00,13.53 L 19.92,13.99 L 20.03,13.99 L 22.99,12.50 Z" fill="#c0b34d" stroke="none" /><path d="M 4.94,9.47 L 4.94,9.50 L 5.93,10.00 L 6.96,9.50 L 6.96,9.47 L 5.97,8.97 Z" fill="#c0b34d" stroke="none" /><path d="M 16.00,6.96 L 16.00,6.99 L 16.99,7.49 L 18.01,6.99 L 18.01,6.96 L 17.02,6.46 Z" fill="#c0b34d" stroke="none" /><path d="M 23.98,3.96 L 23.06,3.50 L 22.92,3.50 L 21.02,4.45 L 21.02,4.49 L 22.04,4.98 L 23.95,4.03 Z" fill="#c0b34d" stroke="none" /><path d="M 18.97,12.47 L 18.05,12.01 L 17.98,12.01 L 15.01,13.49 L 15.01,13.53 L 15.93,13.99 L 16.07,13.99 L 18.97,12.54 Z" fill="#d0b94f" stroke="none" /><path d="M 21.02,11.48 L 21.02,11.51 L 22.00,12.01 L 23.03,11.51 L 23.03,11.48 L 22.04,10.98 Z" fill="#d0b94f" stroke="none" /><path d="M 14.98,10.49 L 14.02,10.00 L 13.95,10.00 L 11.97,10.98 L 11.97,11.02 L 13.00,11.51 L 14.98,10.53 Z" fill="#d0b94f" stroke="none" /><path d="M 9.01,10.45 L 9.01,10.53 L 9.92,10.98 L 10.03,10.98 L 10.95,10.53 L 10.91,10.45 L 10.00,10.00 L 9.92,10.00 Z" fill="#d0b94f" stroke="none" /><path d="M 22.08,9.96 L 22.08,10.03 L 22.99,10.49 L 23.06,10.49 L 24.02,10.00 L 24.02,9.96 L 23.10,9.50 L 22.99,9.50 Z" fill="#d0b94f" stroke="none" /><path d="M 17.02,9.47 L 17.06,9.54 L 17.98,10.00 L 18.05,10.00 L 19.00,9.50 L 19.00,9.47 L 18.08,9.01 L 17.94,9.01 Z" fill="#d0b94f" stroke="none" /><path d="M 3.96,8.97 L 3.96,9.01 L 4.87,9.47 L 5.02,9.47 L 5.93,9.01 L 5.90,8.94 L 4.98,8.48 L 4.91,8.48 Z" fill="#d0b94f" stroke="none" /><path d="M 19.04,8.48 L 19.04,8.51 L 21.02,9.50 L 22.04,9.01 L 22.04,8.97 L 20.06,7.98 L 19.99,7.98 Z" fill="#d0b94f" stroke="none" /><path d="M 13.00,8.48 L 13.00,8.51 L 13.92,8.97 L 14.06,8.97 L 14.98,8.51 L 14.94,8.44 L 14.02,7.98 L 13.95,7.98 Z" fill="#d0b94f" stroke="none" /><path d="M 0.99,7.52 L 1.91,7.98 L 1.98,7.98 L 2.90,7.52 L 2.93,7.45 L 2.01,6.99 L 1.94,6.99 L 1.02,7.45 Z" fill="#d0b94f" stroke="none" /><path d="M 18.01,6.96 L 18.01,6.99 L 19.00,7.49 L 20.03,6.99 L 20.03,6.96 L 19.04,6.46 Z" fill="#d0b94f" stroke="none" /><path d="M 23.06,6.46 L 23.06,6.50 L 26.03,7.98 L 26.10,7.98 L 27.02,7.52 L 27.02,7.45 L 24.05,5.97 Z" fill="#d0b94f" stroke="none" /><path d="M 22.04,4.94 L 22.08,5.02 L 22.99,5.47 L 23.06,5.47 L 24.02,4.98 L 24.02,4.94 L 23.10,4.49 L 22.96,4.49 Z" fill="#d0b94f" stroke="none" /><path d="M 20.98,3.43 L 20.06,2.97 L 19.96,2.97 L 16.00,4.94 L 16.00,4.98 L 17.02,5.47 L 20.98,3.50 Z" fill="#d0b94f" stroke="none" /><path d="M 13.99,2.93 L 13.07,2.47 L 12.93,2.47 L 10.03,3.92 L 10.00,3.99 L 10.91,4.45 L 11.06,4.45 L 13.95,3.00 Z" fill="#d0b94f" stroke="none" /><path d="M 16.04,0.92 L 16.04,0.99 L 16.95,1.45 L 17.06,1.45 L 17.98,0.99 L 17.98,0.95 L 16.99,0.46 Z" fill="#d0b94f" stroke="none" /><path d="M 17.98,13.99 L 17.06,13.53 L 16.92,13.53 L 14.02,14.98 L 14.02,15.01 L 15.05,15.51 L 17.94,14.06 Z" fill="#d6c05d" stroke="none" /><path d="M 12.96,12.47 L 12.04,12.01 L 11.94,12.01 L 10.03,12.96 L 10.03,13.00 L 10.98,13.49 L 11.06,13.49 L 12.96,12.54 Z" fill="#d6c05d" stroke="none" /><path d="M 20.03,11.97 L 20.06,12.04 L 20.98,12.50 L 21.05,12.50 L 22.00,12.01 L 22.00,11.97 L 21.09,11.51 L 20.94,11.51 Z" fill="#d6c05d" stroke="none" /><path d="M 24.05,9.96 L 24.09,10.03 L 26.00,10.98 L 27.02,10.49 L 27.02,10.45 L 25.11,9.50 L 24.97,9.50 Z" fill="#d6c05d" stroke="none" /><path d="M 17.98,9.96 L 17.06,9.50 L 16.95,9.50 L 15.05,10.45 L 15.01,10.53 L 15.93,10.98 L 16.07,10.98 L 17.98,10.03 Z" fill="#d6c05d" stroke="none" /><path d="M 7.98,9.96 L 8.02,10.03 L 8.94,10.49 L 9.01,10.49 L 9.92,10.03 L 9.92,9.96 L 9.01,9.50 L 8.90,9.50 Z" fill="#d6c05d" stroke="none" /><path d="M 29.07,8.51 L 29.99,8.97 L 30.06,8.97 L 30.98,8.51 L 31.01,8.44 L 30.09,7.98 L 30.02,7.98 L 29.10,8.44 Z" fill="#d6c05d" stroke="none" /><path d="M 12.01,7.95 L 12.01,8.02 L 12.93,8.48 L 13.03,8.48 L 13.95,8.02 L 13.95,7.95 L 13.03,7.49 L 12.93,7.49 Z" fill="#d6c05d" stroke="none" /><path d="M 3.99,7.95 L 3.99,8.02 L 5.90,8.97 L 6.00,8.97 L 6.92,8.51 L 6.89,8.44 L 4.98,7.49 L 4.91,7.49 Z" fill="#d6c05d" stroke="none" /><path d="M 19.04,7.45 L 19.07,7.52 L 20.98,8.48 L 21.09,8.48 L 22.00,8.02 L 22.00,7.95 L 20.10,6.99 L 19.96,6.99 Z" fill="#d6c05d" stroke="none" /><path d="M 2.01,6.96 L 2.01,7.03 L 2.93,7.49 L 3.92,6.99 L 3.92,6.96 L 3.00,6.50 L 2.93,6.50 Z" fill="#d6c05d" stroke="none" /><path d="M 25.04,6.46 L 25.04,6.50 L 28.01,7.98 L 28.08,7.98 L 29.03,7.49 L 29.03,7.45 L 26.07,5.97 Z" fill="#d6c05d" stroke="none" /><path d="M 8.97,6.46 L 8.97,6.50 L 9.89,6.96 L 10.03,6.96 L 10.95,6.50 L 10.91,6.43 L 10.00,5.97 L 9.92,5.97 Z" fill="#d6c05d" stroke="none" /><path d="M 19.00,5.44 L 18.08,4.98 L 17.94,4.98 L 16.04,5.93 L 16.04,6.00 L 16.95,6.46 L 17.06,6.46 L 18.97,5.51 Z" fill="#d6c05d" stroke="none" /><path d="M 6.99,5.44 L 6.99,5.51 L 7.91,5.97 L 8.02,5.97 L 8.94,5.51 L 8.94,5.44 L 8.02,4.98 L 7.91,4.98 Z" fill="#d6c05d" stroke="none" /><path d="M 12.96,4.45 L 11.97,3.96 L 10.98,4.45 L 10.98,4.49 L 11.90,4.94 L 12.04,4.94 L 12.96,4.49 Z" fill="#d6c05d" stroke="none" /><path d="M 20.03,3.96 L 20.03,3.99 L 20.94,4.45 L 21.09,4.45 L 22.00,3.99 L 21.97,3.92 L 21.05,3.46 L 20.98,3.46 Z" fill="#d6c05d" stroke="none" /><path d="M 18.97,1.45 L 18.05,0.99 L 17.91,0.99 L 15.01,2.44 L 15.01,2.47 L 15.93,2.93 L 16.07,2.93 L 18.97,1.48 Z" fill="#d6c05d" stroke="none" /><path d="M 20.98,12.47 L 20.06,12.01 L 19.96,12.01 L 16.99,13.49 L 16.99,13.53 L 18.01,14.02 L 20.98,12.54 Z" fill="#e0ca69" stroke="none" /><path d="M 16.00,10.98 L 14.98,10.49 L 12.01,11.97 L 12.01,12.01 L 12.96,12.50 L 13.03,12.50 L 16.00,11.02 Z" fill="#e0ca69" stroke="none" /><path d="M 5.97,8.97 L 5.97,9.01 L 7.95,10.00 L 8.94,9.50 L 8.94,9.47 L 6.96,8.48 Z" fill="#e0ca69" stroke="none" /><path d="M 21.05,8.48 L 21.05,8.51 L 24.02,10.00 L 25.04,9.50 L 25.04,9.47 L 22.08,7.98 L 22.00,7.98 Z" fill="#e0ca69" stroke="none" /><path d="M 28.08,7.95 L 28.08,8.02 L 29.00,8.48 L 29.10,8.48 L 30.02,8.02 L 30.02,7.95 L 29.10,7.49 L 29.00,7.49 Z" fill="#e0ca69" stroke="none" /><path d="M 2.97,7.45 L 3.00,7.52 L 3.92,7.98 L 3.99,7.98 L 4.91,7.52 L 4.91,7.45 L 3.99,6.99 L 3.89,6.99 Z" fill="#e0ca69" stroke="none" /><path d="M 9.96,6.96 L 9.96,6.99 L 11.94,7.98 L 12.01,7.98 L 12.96,7.49 L 12.96,7.45 L 10.98,6.46 Z" fill="#e0ca69" stroke="none" /><path d="M 15.01,6.46 L 15.01,6.50 L 15.93,6.96 L 16.07,6.96 L 16.99,6.50 L 16.95,6.43 L 16.04,5.97 L 15.96,5.97 Z" fill="#e0ca69" stroke="none" /><path d="M 7.98,5.97 L 7.98,6.00 L 8.90,6.46 L 9.01,6.46 L 9.92,6.00 L 9.92,5.93 L 9.01,5.47 L 8.94,5.47 Z" fill="#e0ca69" stroke="none" /><path d="M 23.06,5.44 L 23.06,5.51 L 24.97,6.46 L 25.11,6.46 L 26.03,6.00 L 26.00,5.93 L 24.09,4.98 L 23.98,4.98 Z" fill="#e0ca69" stroke="none" /><path d="M 6.00,5.02 L 6.92,5.47 L 6.99,5.47 L 7.91,5.02 L 7.95,4.94 L 7.03,4.49 L 6.96,4.49 L 6.04,4.94 Z" fill="#e0ca69" stroke="none" /><path d="M 21.02,4.45 L 19.99,3.96 L 18.01,4.94 L 18.01,4.98 L 19.04,5.47 L 21.02,4.49 Z" fill="#e0ca69" stroke="none" /><path d="M 21.05,3.43 L 21.05,3.50 L 21.97,3.96 L 22.08,3.96 L 22.99,3.50 L 22.99,3.46 L 22.00,2.97 Z" fill="#e0ca69" stroke="none" /><path d="M 16.00,2.93 L 15.08,2.47 L 14.94,2.47 L 12.04,3.92 L 12.01,3.99 L 12.93,4.45 L 13.03,4.45 L 16.00,2.97 Z" fill="#e0ca69" stroke="none" /></svg>