<svg height="32" width="32" viewBox="0 0 32 32"><defs /><path d="M 16.00,26.33 L 15.77,26.33 L 12.82,27.80 L 12.82,31.77 L 16.00,30.18 Z" fill="#393217" stroke="none" /><path d="M 25.65,21.45 L 19.18,24.62 L 19.18,28.60 L 25.65,25.42 Z" fill="#393217" stroke="none" /><path d="M 32.00,18.27 L 28.82,19.86 L 28.82,23.72 L 29.05,23.72 L 32.00,22.24 Z" fill="#393217" stroke="none" /><path d="M 19.18,24.74 L 18.95,24.74 L 16.00,26.21 L 16.00,30.18 L 19.18,28.60 Z" fill="#3c351a" stroke="none" /><path d="M 28.82,19.86 L 25.65,21.45 L 25.65,25.30 L 25.87,25.30 L 28.82,23.83 Z" fill="#3c351a" stroke="none" /><path d="M 32.00,14.30 L 28.82,15.89 L 28.82,19.86 L 32.00,18.27 Z" fill="#48441d" stroke="none" /><path d="M 32.00,6.47 L 28.82,8.06 L 28.82,11.91 L 32.00,10.33 Z" fill="#48441d" stroke="none" /><path d="M 16.00,14.52 L 15.77,14.52 L 12.82,16.00 L 12.82,19.86 L 13.05,19.86 L 16.00,18.38 Z" fill="#4a421e" stroke="none" /><path d="M 22.47,19.06 L 12.82,23.83 L 12.82,27.80 L 13.05,27.80 L 22.35,23.15 L 22.47,23.04 Z" fill="#4f461e" stroke="none" /><path d="M 28.82,8.06 L 22.47,11.23 L 22.47,15.09 L 28.82,11.91 Z" fill="#4f461e" stroke="none" /><path d="M 28.82,15.89 L 22.47,19.06 L 22.47,23.04 L 28.82,19.86 Z" fill="#4d481f" stroke="none" /><path d="M 22.47,11.23 L 16.00,14.41 L 16.00,18.27 L 16.23,18.27 L 22.47,15.09 Z" fill="#4d481f" stroke="none" /><path d="M 32.00,10.33 L 28.82,11.91 L 28.82,15.89 L 32.00,14.30 Z" fill="#534a20" stroke="none" /><path d="M 28.82,11.91 L 19.18,16.68 L 19.18,20.65 L 19.40,20.65 L 28.71,16.00 L 28.82,15.89 Z" fill="#564d25" stroke="none" /><path d="M 3.18,23.04 L 3.18,27.01 L 9.65,30.18 L 9.65,26.21 Z" fill="#5c5125" stroke="none" /><path d="M 19.18,16.79 L 18.95,16.79 L 12.82,19.86 L 12.82,23.83 L 13.05,23.83 L 19.18,20.77 Z" fill="#5a512a" stroke="none" /><path d="M 9.65,26.33 L 9.65,30.18 L 12.82,31.77 L 12.82,27.80 L 9.87,26.33 Z" fill="#62572a" stroke="none" /><path d="M 0.00,21.45 L 0.00,25.42 L 2.95,26.89 L 3.18,26.89 L 3.18,23.04 Z" fill="#62572a" stroke="none" /><path d="M 0.00,17.59 L 0.00,21.45 L 6.35,24.62 L 6.35,20.65 L 0.23,17.59 Z" fill="#807131" stroke="none" /><path d="M 6.35,12.82 L 6.35,16.79 L 12.82,19.97 L 12.82,16.00 Z" fill="#807131" stroke="none" /><path d="M 6.35,20.77 L 6.35,24.62 L 12.60,27.80 L 12.82,27.80 L 12.82,23.94 L 6.58,20.77 Z" fill="#7c7432" stroke="none" /><path d="M 0.00,9.65 L 0.00,13.62 L 6.13,16.68 L 6.35,16.68 L 6.35,12.82 Z" fill="#7c7432" stroke="none" /><path d="M 16.00,7.94 L 13.05,6.47 L 12.60,6.47 L 3.29,11.12 L 3.29,11.35 L 6.24,12.82 L 6.47,12.82 L 16.00,8.06 Z" fill="#8e7d39" stroke="none" /><path d="M 3.18,15.21 L 3.18,19.18 L 12.82,23.94 L 12.82,19.97 L 12.71,19.86 L 3.40,15.21 Z" fill="#8b7c3c" stroke="none" /><path d="M 25.53,3.18 L 22.35,1.59 L 12.82,6.35 L 12.82,6.47 L 15.77,7.94 L 16.23,7.94 L 25.53,3.29 Z" fill="#978540" stroke="none" /><path d="M 0.00,13.62 L 0.00,17.59 L 2.95,19.06 L 3.18,19.06 L 3.18,15.09 L 0.23,13.62 Z" fill="#928344" stroke="none" /><path d="M 12.82,9.53 L 12.94,9.76 L 15.89,11.23 L 16.11,11.23 L 19.18,9.65 L 19.18,9.53 L 16.23,8.06 L 15.77,8.06 Z" fill="#b9a64b" stroke="none" /><path d="M 28.82,4.77 L 25.53,3.18 L 19.18,6.35 L 19.18,6.47 L 22.47,8.06 L 28.82,4.88 Z" fill="#b9a64b" stroke="none" /><path d="M 15.89,11.12 L 12.94,9.65 L 12.60,9.65 L 6.47,12.71 L 6.47,12.94 L 9.42,14.41 L 9.76,14.41 L 15.89,11.35 Z" fill="#c6af4c" stroke="none" /><path d="M 16.00,7.94 L 16.00,8.06 L 19.18,9.65 L 22.35,8.06 L 22.35,7.94 L 19.40,6.47 L 18.95,6.47 Z" fill="#c6af4c" stroke="none" /><path d="M 16.00,4.77 L 12.71,3.18 L 6.35,6.35 L 6.35,6.47 L 9.65,8.06 L 16.00,4.88 Z" fill="#c6af4c" stroke="none" /><path d="M 9.53,7.94 L 6.58,6.47 L 6.13,6.47 L 0.00,9.53 L 0.00,9.65 L 3.06,11.23 L 3.29,11.23 L 9.42,8.17 Z" fill="#c0b34d" stroke="none" /><path d="M 22.35,1.59 L 19.29,0.00 L 19.06,0.00 L 12.94,3.06 L 12.82,3.29 L 15.77,4.77 L 16.23,4.77 L 22.35,1.70 Z" fill="#d0b94f" stroke="none" /><path d="M 25.53,9.53 L 22.58,8.06 L 22.24,8.06 L 9.76,14.30 L 9.65,14.52 L 12.60,16.00 L 13.05,16.00 L 25.53,9.76 Z" fill="#d6c05d" stroke="none" /><path d="M 32.00,6.35 L 29.05,4.88 L 28.60,4.88 L 22.47,7.94 L 22.47,8.06 L 25.53,9.65 L 25.76,9.65 L 31.89,6.58 Z" fill="#e0ca69" stroke="none" /></svg>