<svg height="32" width="32" viewBox="0 0 32 32"><defs /><path d="M 16.95,15.51 L 16.00,15.96 L 16.00,17.20 L 16.95,16.74 Z" fill="#3c351a" stroke="none" /><path d="M 22.99,12.50 L 22.92,12.50 L 21.97,13.00 L 21.97,14.20 L 22.04,14.20 L 22.99,13.70 Z" fill="#3c351a" stroke="none" /><path d="M 26.00,10.98 L 25.01,11.48 L 25.01,12.68 L 25.08,12.68 L 26.00,12.22 Z" fill="#3c351a" stroke="none" /><path d="M 32.00,7.98 L 30.02,8.97 L 30.02,10.17 L 30.09,10.17 L 30.98,9.71 L 31.01,9.75 L 31.01,10.91 L 31.08,10.91 L 32.00,10.45 Z" fill="#3c351a" stroke="none" /><path d="M 18.97,16.95 L 17.98,17.45 L 17.98,18.65 L 18.05,18.65 L 18.97,18.19 Z" fill="#433c1c" stroke="none" /><path d="M 19.96,14.02 L 19.89,14.02 L 16.95,15.51 L 16.95,16.71 L 16.00,17.20 L 16.00,18.44 L 16.95,17.98 L 16.95,16.74 L 16.99,16.71 L 19.96,15.22 Z" fill="#433c1c" stroke="none" /><path d="M 21.97,13.00 L 20.98,13.49 L 20.98,14.69 L 21.05,14.69 L 21.97,14.23 Z" fill="#433c1c" stroke="none" /><path d="M 30.02,11.44 L 29.95,11.44 L 29.03,11.90 L 29.03,13.14 L 30.02,12.64 Z" fill="#433c1c" stroke="none" /><path d="M 27.02,10.49 L 26.95,10.49 L 26.00,10.98 L 26.00,12.19 L 26.07,12.19 L 27.02,11.69 Z" fill="#433c1c" stroke="none" /><path d="M 32.00,10.45 L 31.93,10.45 L 31.01,10.91 L 31.01,12.15 L 32.00,11.66 Z" fill="#433c1c" stroke="none" /><path d="M 30.02,8.97 L 29.03,9.47 L 29.03,10.67 L 29.10,10.67 L 30.02,10.21 Z" fill="#433c1c" stroke="none" /><path d="M 23.98,14.45 L 20.98,15.93 L 20.98,17.17 L 23.98,15.68 Z" fill="#48441d" stroke="none" /><path d="M 27.02,12.93 L 26.00,13.42 L 26.00,14.66 L 27.02,14.16 Z" fill="#48441d" stroke="none" /><path d="M 16.95,17.98 L 16.88,17.98 L 16.00,18.44 L 16.00,19.64 L 16.07,19.64 L 16.95,19.18 Z" fill="#4a421e" stroke="none" /><path d="M 20.98,13.49 L 19.96,13.99 L 19.96,15.22 L 20.98,14.73 Z" fill="#4a421e" stroke="none" /><path d="M 29.03,9.47 L 27.02,10.45 L 27.02,11.69 L 29.03,10.70 Z" fill="#4a421e" stroke="none" /><path d="M 19.96,16.46 L 18.97,16.95 L 18.97,18.15 L 19.04,18.15 L 19.96,17.70 Z" fill="#4f461e" stroke="none" /><path d="M 17.98,16.21 L 16.95,16.71 L 16.95,17.94 L 17.02,17.94 L 17.98,17.45 Z" fill="#4f461e" stroke="none" /><path d="M 26.00,13.46 L 25.92,13.46 L 23.98,14.45 L 23.98,15.65 L 24.05,15.65 L 26.00,14.66 Z" fill="#4f461e" stroke="none" /><path d="M 29.03,11.94 L 28.96,11.94 L 28.01,12.43 L 28.01,13.63 L 28.08,13.63 L 29.03,13.14 Z" fill="#4f461e" stroke="none" /><path d="M 31.01,9.71 L 30.94,9.71 L 30.02,10.17 L 30.02,11.41 L 30.09,11.41 L 31.01,10.95 Z" fill="#4f461e" stroke="none" /><path d="M 21.97,14.23 L 21.90,14.23 L 20.98,14.69 L 20.98,15.93 L 21.05,15.93 L 21.97,15.47 Z" fill="#534a20" stroke="none" /><path d="M 27.02,11.69 L 26.00,12.19 L 26.00,13.42 L 26.07,13.42 L 27.02,12.93 Z" fill="#534a20" stroke="none" /><path d="M 17.98,17.45 L 16.95,17.94 L 16.95,19.18 L 17.98,18.68 Z" fill="#564d25" stroke="none" /><path d="M 22.99,13.70 L 21.97,14.20 L 21.97,15.43 L 22.04,15.43 L 22.99,14.94 Z" fill="#564d25" stroke="none" /><path d="M 26.00,12.22 L 25.92,12.22 L 25.01,12.68 L 25.01,13.92 L 25.08,13.92 L 26.00,13.46 Z" fill="#564d25" stroke="none" /><path d="M 31.01,10.95 L 30.94,10.95 L 30.02,11.41 L 30.02,12.64 L 31.01,12.15 Z" fill="#564d25" stroke="none" /><path d="M 20.98,15.96 L 20.91,15.96 L 19.99,16.42 L 19.96,16.39 L 19.96,15.22 L 19.92,15.22 L 17.98,16.21 L 17.98,17.45 L 19.92,16.49 L 19.96,16.53 L 19.96,17.66 L 20.03,17.66 L 20.98,17.17 Z" fill="#5a512a" stroke="none" /><path d="M 25.01,12.72 L 24.94,12.72 L 23.98,13.21 L 23.98,14.45 L 25.01,13.95 Z" fill="#5a512a" stroke="none" /><path d="M 30.02,10.21 L 29.95,10.21 L 28.01,11.20 L 28.01,12.40 L 27.94,12.47 L 27.02,12.93 L 27.02,14.13 L 27.09,14.13 L 28.01,13.67 L 28.01,12.47 L 28.08,12.40 L 30.02,11.44 Z" fill="#5a512a" stroke="none" /><path d="M 14.02,15.01 L 14.02,16.21 L 15.05,16.74 L 15.05,17.98 L 16.00,18.44 L 16.00,15.96 L 14.09,15.01 Z" fill="#62572a" stroke="none" /><path d="M 9.01,12.50 L 9.01,13.70 L 9.96,14.20 L 10.03,14.20 L 10.03,13.00 L 9.08,12.50 Z" fill="#62572a" stroke="none" /><path d="M 6.00,10.98 L 6.00,12.22 L 6.92,12.68 L 6.99,12.68 L 6.99,11.48 Z" fill="#62572a" stroke="none" /><path d="M 0.00,7.98 L 0.00,9.22 L 0.92,9.68 L 0.99,9.68 L 0.99,8.48 Z" fill="#62572a" stroke="none" /><path d="M 15.05,17.98 L 15.05,19.18 L 15.93,19.64 L 16.00,19.64 L 16.00,18.44 L 15.12,17.98 Z" fill="#6c612d" stroke="none" /><path d="M 13.03,16.95 L 13.03,18.19 L 13.95,18.65 L 14.02,18.65 L 14.02,17.45 Z" fill="#6c612d" stroke="none" /><path d="M 13.03,14.52 L 13.03,15.72 L 14.02,16.21 L 14.02,14.98 L 13.10,14.52 Z" fill="#6c612d" stroke="none" /><path d="M 10.03,13.00 L 10.03,14.23 L 10.95,14.69 L 11.02,14.69 L 11.02,13.49 Z" fill="#6c612d" stroke="none" /><path d="M 1.98,11.44 L 1.98,12.64 L 2.97,13.14 L 2.97,11.90 L 2.05,11.44 Z" fill="#6c612d" stroke="none" /><path d="M 4.98,10.49 L 4.98,11.69 L 5.93,12.19 L 6.00,12.19 L 6.00,10.98 L 5.05,10.49 Z" fill="#6c612d" stroke="none" /><path d="M 0.00,9.22 L 0.00,10.45 L 0.92,10.91 L 0.99,10.91 L 0.99,9.75 L 1.02,9.71 L 3.99,11.20 L 3.99,9.96 L 1.02,8.48 L 0.99,8.48 L 0.99,9.64 L 0.95,9.68 L 0.07,9.22 Z" fill="#6c612d" stroke="none" /><path d="M 10.03,15.47 L 10.03,16.67 L 11.02,17.17 L 11.02,15.93 L 10.10,15.47 Z" fill="#756e2f" stroke="none" /><path d="M 4.98,12.93 L 4.98,14.16 L 7.95,15.65 L 8.02,15.65 L 8.02,14.45 L 7.98,14.41 Z" fill="#756e2f" stroke="none" /><path d="M 11.02,13.49 L 11.02,14.73 L 13.03,15.72 L 13.03,14.48 Z" fill="#786c31" stroke="none" /><path d="M 0.00,10.45 L 0.00,11.66 L 0.99,12.15 L 0.99,10.91 L 0.07,10.45 Z" fill="#786c31" stroke="none" /><path d="M 3.99,10.00 L 3.99,11.20 L 4.98,11.69 L 4.98,10.45 L 4.06,10.00 Z" fill="#786c31" stroke="none" /><path d="M 12.04,16.46 L 12.04,17.70 L 12.96,18.15 L 13.03,18.15 L 13.03,16.95 Z" fill="#807131" stroke="none" /><path d="M 14.02,16.21 L 14.02,17.45 L 14.98,17.94 L 15.05,17.94 L 15.05,16.71 Z" fill="#807131" stroke="none" /><path d="M 8.02,14.45 L 8.02,15.68 L 10.03,16.67 L 10.03,15.43 Z" fill="#807131" stroke="none" /><path d="M 2.97,11.94 L 2.97,13.14 L 3.92,13.63 L 3.99,13.63 L 3.99,12.43 L 3.04,11.94 Z" fill="#807131" stroke="none" /><path d="M 0.99,9.71 L 0.99,10.95 L 1.91,11.41 L 1.98,11.41 L 1.98,10.17 L 1.06,9.71 Z" fill="#807131" stroke="none" /><path d="M 20.98,14.73 L 20.91,14.73 L 19.96,15.22 L 19.96,16.46 L 20.98,15.96 Z" fill="#5e5632" stroke="none" /><path d="M 25.01,11.48 L 23.98,11.97 L 23.98,13.17 L 23.91,13.25 L 22.99,13.70 L 22.99,14.94 L 23.98,14.45 L 23.98,13.25 L 24.05,13.17 L 25.01,12.72 Z" fill="#5e5632" stroke="none" /><path d="M 28.01,11.20 L 27.02,11.69 L 27.02,12.93 L 28.01,12.43 Z" fill="#5e5632" stroke="none" /><path d="M 10.03,14.23 L 10.03,15.47 L 10.95,15.93 L 11.02,15.93 L 11.02,14.69 L 10.10,14.23 Z" fill="#877833" stroke="none" /><path d="M 4.98,11.69 L 4.98,12.93 L 5.93,13.42 L 6.00,13.42 L 6.00,12.19 Z" fill="#877833" stroke="none" /><path d="M 14.02,17.45 L 14.02,18.68 L 15.05,19.18 L 15.05,17.94 Z" fill="#8b7c3c" stroke="none" /><path d="M 9.01,13.70 L 9.01,14.94 L 9.96,15.43 L 10.03,15.43 L 10.03,14.20 Z" fill="#8b7c3c" stroke="none" /><path d="M 6.00,12.22 L 6.00,13.46 L 6.92,13.92 L 6.99,13.92 L 6.99,12.68 L 6.08,12.22 Z" fill="#8b7c3c" stroke="none" /><path d="M 0.99,10.95 L 0.99,12.15 L 1.98,12.64 L 1.98,11.41 L 1.06,10.95 Z" fill="#8b7c3c" stroke="none" /><path d="M 23.98,12.01 L 23.91,12.01 L 22.99,12.47 L 22.99,13.70 L 23.98,13.21 Z" fill="#625b40" stroke="none" /><path d="M 18.97,14.48 L 18.05,14.02 L 17.98,14.02 L 16.04,15.01 L 15.96,15.01 L 15.01,14.52 L 14.06,14.98 L 14.06,15.01 L 15.93,15.96 L 16.07,15.96 L 18.97,14.52 Z" fill="#978540" stroke="none" /><path d="M 21.97,12.96 L 21.02,12.50 L 20.03,13.00 L 20.03,13.03 L 20.94,13.49 L 21.02,13.49 L 21.93,13.03 Z" fill="#978540" stroke="none" /><path d="M 26.98,10.45 L 26.03,10.00 L 25.04,10.49 L 25.04,10.53 L 25.96,10.98 L 26.03,10.98 L 26.95,10.53 Z" fill="#978540" stroke="none" /><path d="M 3.00,9.47 L 3.00,9.50 L 3.92,9.96 L 4.06,9.96 L 4.91,9.54 L 4.91,9.47 L 3.99,9.01 L 3.89,9.01 Z" fill="#978540" stroke="none" /><path d="M 2.93,8.51 L 2.93,8.48 L 2.05,8.05 L 1.98,7.98 L 2.90,7.52 L 2.90,7.45 L 2.05,7.03 L 1.91,7.03 L 0.04,7.98 L 0.04,8.02 L 1.94,8.97 L 2.01,8.97 Z" fill="#978540" stroke="none" /><path d="M 29.00,6.50 L 28.08,6.96 L 28.08,6.99 L 30.02,7.98 L 29.95,8.05 L 28.08,8.97 L 28.11,9.04 L 28.96,9.47 L 29.07,9.47 L 31.01,8.48 L 31.01,8.44 L 30.20,8.05 L 30.13,7.98 L 30.98,7.56 L 31.01,7.49 Z" fill="#978540" stroke="none" /><path d="M 7.95,4.94 L 6.99,4.49 L 6.00,4.98 L 6.00,5.02 L 6.92,5.47 L 6.99,5.47 L 7.91,5.02 Z" fill="#978540" stroke="none" /><path d="M 9.04,3.46 L 9.04,3.53 L 9.89,3.96 L 10.03,3.96 L 10.95,3.50 L 10.91,3.43 L 10.07,3.00 L 9.96,3.00 Z" fill="#978540" stroke="none" /><path d="M 20.06,2.93 L 20.06,3.00 L 22.96,4.45 L 23.10,4.45 L 23.95,4.03 L 23.95,3.96 L 21.05,2.51 L 20.91,2.51 Z" fill="#978540" stroke="none" /><path d="M 15.05,0.46 L 15.05,0.49 L 15.96,0.95 L 16.04,0.95 L 16.95,0.49 L 16.95,0.46 L 16.04,0.00 L 15.96,0.00 Z" fill="#978540" stroke="none" /><path d="M 11.02,15.96 L 11.02,17.17 L 11.97,17.66 L 12.04,17.66 L 12.04,16.53 L 12.08,16.49 L 14.02,17.45 L 14.02,16.21 L 12.08,15.22 L 12.04,15.22 L 12.04,16.39 L 12.01,16.42 L 11.09,15.96 Z" fill="#928344" stroke="none" /><path d="M 8.02,13.21 L 8.02,14.45 L 9.01,14.94 L 9.01,13.70 Z" fill="#928344" stroke="none" /><path d="M 1.98,10.21 L 1.98,11.44 L 3.92,12.40 L 3.99,12.47 L 3.99,13.67 L 4.91,14.13 L 4.98,14.13 L 4.98,12.93 L 4.06,12.47 L 3.99,12.40 L 3.99,11.20 L 2.05,10.21 Z" fill="#928344" stroke="none" /><path d="M 18.05,13.99 L 18.05,14.06 L 18.90,14.48 L 19.04,14.48 L 19.96,14.02 L 19.92,13.95 L 19.07,13.53 L 18.97,13.53 Z" fill="#a79645" stroke="none" /><path d="M 15.01,13.49 L 15.05,13.56 L 15.96,14.02 L 16.04,14.02 L 16.99,13.53 L 16.99,13.49 L 16.07,13.03 L 15.93,13.03 Z" fill="#a79645" stroke="none" /><path d="M 11.06,13.46 L 11.06,13.53 L 14.02,15.01 L 14.98,14.55 L 14.94,14.48 L 12.04,13.03 L 11.90,13.03 Z" fill="#a79645" stroke="none" /><path d="M 21.05,12.54 L 22.00,13.00 L 22.99,12.50 L 22.99,12.47 L 22.08,12.01 L 22.00,12.01 L 21.09,12.47 Z" fill="#a79645" stroke="none" /><path d="M 25.96,10.95 L 25.11,10.53 L 24.97,10.53 L 23.06,11.48 L 23.06,11.51 L 23.95,11.97 L 24.05,11.97 L 25.96,11.02 Z" fill="#a79645" stroke="none" /><path d="M 6.04,10.95 L 6.04,11.02 L 7.95,11.97 L 8.05,11.97 L 8.94,11.51 L 8.94,11.48 L 7.03,10.53 L 6.89,10.53 Z" fill="#a79645" stroke="none" /><path d="M 3.99,9.96 L 3.99,10.00 L 4.98,10.49 L 5.93,10.03 L 5.90,9.96 L 4.98,9.50 L 4.91,9.50 Z" fill="#a79645" stroke="none" /><path d="M 27.09,9.47 L 27.09,9.54 L 27.94,9.96 L 28.08,9.96 L 29.00,9.50 L 28.96,9.43 L 28.11,9.01 L 28.01,9.01 Z" fill="#a79645" stroke="none" /><path d="M 2.01,8.94 L 2.01,9.01 L 2.93,9.47 L 3.04,9.47 L 3.92,9.01 L 3.92,8.97 L 3.00,8.51 L 2.86,8.51 Z" fill="#a79645" stroke="none" /><path d="M 30.09,7.98 L 30.09,8.02 L 31.01,8.48 L 31.96,8.02 L 31.93,7.95 L 31.08,7.52 L 30.98,7.52 Z" fill="#a79645" stroke="none" /><path d="M 26.07,7.98 L 26.07,8.02 L 26.98,8.48 L 27.13,8.48 L 28.04,8.02 L 28.01,7.95 L 27.09,7.49 L 27.02,7.49 Z" fill="#a79645" stroke="none" /><path d="M 3.96,7.98 L 3.96,8.02 L 4.87,8.48 L 5.02,8.48 L 5.93,8.02 L 5.90,7.95 L 4.98,7.49 L 4.91,7.49 Z" fill="#a79645" stroke="none" /><path d="M 3.92,6.96 L 2.97,6.50 L 1.98,6.99 L 1.98,7.03 L 2.90,7.49 L 2.97,7.49 L 3.89,7.03 Z" fill="#a79645" stroke="none" /><path d="M 27.06,6.46 L 27.06,6.50 L 28.04,6.99 L 29.00,6.53 L 28.96,6.46 L 28.04,6.00 L 27.97,6.00 Z" fill="#a79645" stroke="none" /><path d="M 5.02,5.47 L 5.05,5.55 L 5.90,5.97 L 6.00,5.97 L 6.92,5.51 L 6.92,5.44 L 6.08,5.02 L 5.93,5.02 Z" fill="#a79645" stroke="none" /><path d="M 23.03,4.45 L 23.03,4.49 L 24.02,4.98 L 24.97,4.52 L 24.94,4.45 L 24.02,3.99 L 23.95,3.99 Z" fill="#a79645" stroke="none" /><path d="M 10.03,2.97 L 10.07,3.04 L 10.91,3.46 L 11.02,3.46 L 11.94,3.00 L 11.94,2.93 L 11.09,2.51 L 10.95,2.51 Z" fill="#a79645" stroke="none" /><path d="M 19.04,2.44 L 19.07,2.51 L 19.99,2.97 L 20.06,2.97 L 20.98,2.51 L 20.98,2.47 L 19.99,1.98 Z" fill="#a79645" stroke="none" /><path d="M 15.01,2.44 L 15.05,2.51 L 15.96,2.97 L 16.04,2.97 L 16.99,2.47 L 16.99,2.44 L 16.07,1.98 L 15.93,1.98 Z" fill="#a79645" stroke="none" /><path d="M 16.04,0.92 L 16.04,0.99 L 16.95,1.45 L 17.06,1.45 L 17.94,0.99 L 17.94,0.95 L 17.02,0.49 L 16.88,0.49 Z" fill="#a79645" stroke="none" /><path d="M 15.96,0.92 L 15.12,0.49 L 14.98,0.49 L 12.08,1.94 L 12.04,2.01 L 13.00,2.47 L 15.96,0.99 Z" fill="#a79645" stroke="none" /><path d="M 13.99,13.00 L 13.99,13.03 L 14.98,13.53 L 15.96,13.03 L 16.04,13.03 L 16.99,13.53 L 18.01,13.03 L 18.01,13.00 L 17.02,12.50 L 16.04,13.00 L 15.96,13.00 L 15.01,12.50 Z" fill="#b5a948" stroke="none" /><path d="M 18.05,11.97 L 18.05,12.04 L 18.97,12.50 L 19.07,12.50 L 19.99,12.04 L 19.99,11.97 L 19.07,11.51 L 18.97,11.51 Z" fill="#b5a948" stroke="none" /><path d="M 10.98,11.48 L 11.02,11.55 L 11.94,12.01 L 12.01,12.01 L 12.96,11.51 L 12.96,11.48 L 12.04,11.02 L 11.90,11.02 Z" fill="#b5a948" stroke="none" /><path d="M 20.03,10.98 L 20.03,11.02 L 21.02,11.51 L 22.04,11.02 L 22.04,10.98 L 21.05,10.49 Z" fill="#b5a948" stroke="none" /><path d="M 13.99,10.98 L 13.99,11.02 L 14.98,11.51 L 16.00,11.02 L 16.00,10.98 L 15.01,10.49 Z" fill="#b5a948" stroke="none" /><path d="M 23.06,9.47 L 23.06,9.54 L 23.98,10.00 L 24.09,10.00 L 25.01,9.54 L 25.01,9.47 L 24.09,9.01 L 23.98,9.01 Z" fill="#b5a948" stroke="none" /><path d="M 11.02,9.47 L 11.02,9.54 L 11.94,10.00 L 12.01,10.00 L 12.96,9.50 L 12.96,9.47 L 12.04,9.01 L 11.94,9.01 Z" fill="#b5a948" stroke="none" /><path d="M 6.99,9.47 L 6.99,9.54 L 8.90,10.49 L 9.04,10.49 L 9.96,10.03 L 9.92,9.96 L 8.02,9.01 L 7.91,9.01 Z" fill="#b5a948" stroke="none" /><path d="M 21.05,7.45 L 21.05,7.52 L 21.97,7.98 L 22.08,7.98 L 22.99,7.52 L 22.99,7.45 L 22.08,6.99 L 21.97,6.99 Z" fill="#b5a948" stroke="none" /><path d="M 24.05,6.96 L 24.09,7.03 L 26.00,7.98 L 26.10,7.98 L 27.02,7.52 L 27.02,7.45 L 25.11,6.50 L 24.97,6.50 Z" fill="#b5a948" stroke="none" /><path d="M 7.95,5.97 L 6.96,6.46 L 6.96,6.50 L 7.84,6.92 L 7.91,6.99 L 6.99,7.45 L 6.99,7.52 L 7.91,7.98 L 8.02,7.98 L 8.94,7.52 L 8.94,7.45 L 8.02,6.99 L 8.09,6.92 L 8.97,6.50 L 8.97,6.46 Z" fill="#b5a948" stroke="none" /><path d="M 19.99,5.97 L 19.00,5.47 L 18.01,5.97 L 18.01,6.00 L 18.93,6.46 L 19.07,6.46 L 19.99,6.00 Z" fill="#b5a948" stroke="none" /><path d="M 20.06,4.94 L 20.06,5.02 L 21.97,5.97 L 22.08,5.97 L 22.99,5.51 L 22.99,5.44 L 21.09,4.49 L 20.98,4.49 Z" fill="#b5a948" stroke="none" /><path d="M 18.01,3.96 L 18.01,3.99 L 19.00,4.49 L 20.03,3.99 L 20.03,3.96 L 19.04,3.46 Z" fill="#b5a948" stroke="none" /><path d="M 16.00,3.96 L 15.01,3.46 L 14.02,3.96 L 13.95,3.96 L 12.96,3.46 L 10.00,4.94 L 10.00,4.98 L 10.95,5.47 L 11.02,5.47 L 13.95,3.99 L 14.02,3.99 L 15.01,4.49 L 16.00,3.99 Z" fill="#b5a948" stroke="none" /><path d="M 19.04,13.49 L 19.07,13.56 L 19.92,13.99 L 20.03,13.99 L 20.94,13.53 L 20.94,13.46 L 20.10,13.03 L 19.96,13.03 Z" fill="#b9a64b" stroke="none" /><path d="M 22.08,11.97 L 22.08,12.04 L 22.92,12.47 L 23.06,12.47 L 23.98,12.01 L 23.95,11.94 L 23.10,11.51 L 22.99,11.51 Z" fill="#b9a64b" stroke="none" /><path d="M 8.02,11.97 L 8.02,12.01 L 10.98,13.49 L 11.06,13.49 L 11.97,13.03 L 11.97,13.00 L 9.01,11.51 L 8.90,11.51 Z" fill="#b9a64b" stroke="none" /><path d="M 5.02,10.45 L 5.05,10.53 L 5.97,10.98 L 6.04,10.98 L 6.96,10.53 L 6.96,10.49 L 5.97,10.00 Z" fill="#b9a64b" stroke="none" /><path d="M 26.07,10.03 L 27.02,10.49 L 28.01,10.00 L 28.01,9.96 L 27.09,9.50 L 27.02,9.50 L 26.10,9.96 Z" fill="#b9a64b" stroke="none" /><path d="M 5.93,5.97 L 5.05,5.51 L 4.94,5.51 L 3.04,6.46 L 3.00,6.53 L 3.96,6.99 L 5.93,6.00 Z" fill="#b9a64b" stroke="none" /><path d="M 24.05,4.94 L 24.09,5.02 L 26.98,6.46 L 27.13,6.46 L 27.97,6.04 L 27.97,5.97 L 25.01,4.49 Z" fill="#b9a64b" stroke="none" /><path d="M 12.96,2.44 L 12.01,1.98 L 11.02,2.47 L 11.02,2.51 L 11.94,2.97 L 12.01,2.97 L 12.93,2.51 Z" fill="#b9a64b" stroke="none" /><path d="M 17.02,1.45 L 17.02,1.48 L 19.00,2.47 L 19.96,2.01 L 19.92,1.94 L 18.01,0.99 L 17.91,0.99 Z" fill="#b9a64b" stroke="none" /><path d="M 15.01,14.52 L 15.01,14.55 L 15.93,15.01 L 16.07,15.01 L 16.99,14.55 L 16.95,14.48 L 16.04,14.02 L 15.96,14.02 Z" fill="#c6af4c" stroke="none" /><path d="M 19.04,11.48 L 19.07,11.55 L 19.99,12.01 L 20.06,12.01 L 21.02,11.51 L 21.02,11.48 L 20.10,11.02 L 19.96,11.02 Z" fill="#c6af4c" stroke="none" /><path d="M 21.05,10.49 L 21.05,10.53 L 21.97,10.98 L 22.11,10.98 L 23.03,10.53 L 23.03,10.49 L 22.04,10.00 Z" fill="#c6af4c" stroke="none" /><path d="M 8.97,10.49 L 8.97,10.53 L 10.95,11.51 L 11.97,11.02 L 11.97,10.98 L 10.00,10.00 Z" fill="#c6af4c" stroke="none" /><path d="M 28.08,7.98 L 28.08,8.02 L 29.00,8.48 L 29.14,8.48 L 30.06,8.02 L 30.02,7.95 L 29.10,7.49 L 29.03,7.49 Z" fill="#c6af4c" stroke="none" /><path d="M 1.94,7.98 L 1.94,8.02 L 2.86,8.48 L 3.00,8.48 L 3.92,8.02 L 3.89,7.95 L 2.97,7.49 L 2.90,7.49 Z" fill="#c6af4c" stroke="none" /><path d="M 4.98,7.45 L 4.98,7.52 L 5.90,7.98 L 6.00,7.98 L 6.92,7.52 L 6.92,7.45 L 6.00,6.99 L 5.90,6.99 Z" fill="#c6af4c" stroke="none" /><path d="M 10.95,5.44 L 10.03,4.98 L 9.92,4.98 L 8.02,5.93 L 7.98,6.00 L 8.90,6.46 L 9.04,6.46 L 10.95,5.51 Z" fill="#c6af4c" stroke="none" /><path d="M 14.02,2.93 L 14.02,3.00 L 14.94,3.46 L 15.05,3.46 L 15.96,3.00 L 15.96,2.93 L 15.05,2.47 L 14.94,2.47 Z" fill="#c6af4c" stroke="none" /><path d="M 15.01,1.45 L 15.01,1.48 L 15.93,1.94 L 16.07,1.94 L 16.99,1.48 L 16.95,1.41 L 16.04,0.95 L 15.96,0.95 Z" fill="#c6af4c" stroke="none" /><path d="M 12.01,11.97 L 12.01,12.04 L 13.92,13.00 L 14.06,13.00 L 14.98,12.54 L 14.94,12.47 L 13.03,11.51 L 12.93,11.51 Z" fill="#c0b34d" stroke="none" /><path d="M 15.01,11.48 L 15.05,11.55 L 16.95,12.50 L 17.06,12.50 L 17.98,12.04 L 17.98,11.97 L 16.07,11.02 L 15.93,11.02 Z" fill="#c0b34d" stroke="none" /><path d="M 12.01,9.96 L 12.01,10.03 L 12.93,10.49 L 13.03,10.49 L 13.95,10.03 L 13.95,9.96 L 13.03,9.50 L 12.93,9.50 Z" fill="#c0b34d" stroke="none" /><path d="M 4.94,8.48 L 4.94,8.51 L 6.92,9.50 L 6.99,9.50 L 7.95,9.01 L 7.95,8.97 L 5.97,7.98 Z" fill="#c0b34d" stroke="none" /><path d="M 22.04,7.98 L 22.04,8.02 L 24.02,9.01 L 25.04,8.51 L 25.04,8.48 L 23.06,7.49 L 22.99,7.49 Z" fill="#c0b34d" stroke="none" /><path d="M 7.98,7.98 L 7.98,8.02 L 9.96,9.01 L 10.98,8.51 L 10.98,8.48 L 9.01,7.49 L 8.94,7.49 Z" fill="#c0b34d" stroke="none" /><path d="M 19.00,6.46 L 19.00,6.50 L 19.99,6.99 L 21.02,6.50 L 21.02,6.46 L 20.03,5.97 Z" fill="#c0b34d" stroke="none" /><path d="M 22.04,5.97 L 22.04,6.00 L 24.02,6.99 L 25.04,6.50 L 25.04,6.46 L 23.06,5.47 L 22.99,5.47 Z" fill="#c0b34d" stroke="none" /><path d="M 19.04,4.45 L 19.07,4.52 L 19.99,4.98 L 20.06,4.98 L 21.02,4.49 L 21.02,4.45 L 20.10,3.99 L 19.96,3.99 Z" fill="#c0b34d" stroke="none" /><path d="M 15.01,4.45 L 15.05,4.52 L 16.95,5.47 L 17.06,5.47 L 17.98,5.02 L 17.98,4.94 L 16.07,3.99 L 15.93,3.99 Z" fill="#c0b34d" stroke="none" /><path d="M 16.04,2.93 L 16.04,3.00 L 17.94,3.96 L 18.08,3.96 L 19.00,3.50 L 18.97,3.43 L 17.06,2.47 L 16.95,2.47 Z" fill="#c0b34d" stroke="none" /><path d="M 19.04,12.50 L 19.04,12.54 L 19.96,13.00 L 20.10,13.00 L 21.02,12.54 L 20.98,12.47 L 20.06,12.01 L 19.99,12.01 Z" fill="#d0b94f" stroke="none" /><path d="M 14.02,11.97 L 14.02,12.04 L 14.94,12.50 L 15.05,12.50 L 15.96,12.04 L 15.96,11.97 L 15.05,11.51 L 14.94,11.51 Z" fill="#d0b94f" stroke="none" /><path d="M 16.00,10.98 L 16.00,11.02 L 16.99,11.51 L 18.01,11.02 L 18.01,10.98 L 17.02,10.49 Z" fill="#d0b94f" stroke="none" /><path d="M 22.04,10.00 L 22.04,10.03 L 22.96,10.49 L 23.10,10.49 L 23.98,10.03 L 24.09,10.03 L 24.97,10.49 L 25.11,10.49 L 26.03,10.03 L 26.00,9.96 L 25.08,9.50 L 25.01,9.50 L 24.05,10.00 L 23.06,9.50 L 22.99,9.50 Z" fill="#d0b94f" stroke="none" /><path d="M 20.98,9.47 L 20.06,9.01 L 19.96,9.01 L 18.05,9.96 L 18.05,10.03 L 18.97,10.49 L 19.07,10.49 L 20.98,9.54 Z" fill="#d0b94f" stroke="none" /><path d="M 25.04,8.48 L 25.04,8.51 L 26.03,9.01 L 27.06,8.51 L 27.06,8.48 L 26.07,7.98 Z" fill="#d0b94f" stroke="none" /><path d="M 21.02,8.48 L 21.02,8.51 L 22.00,9.01 L 23.03,8.51 L 23.03,8.48 L 22.04,7.98 Z" fill="#d0b94f" stroke="none" /><path d="M 6.96,8.48 L 6.96,8.51 L 7.95,9.01 L 8.97,8.51 L 8.97,8.48 L 7.98,7.98 Z" fill="#d0b94f" stroke="none" /><path d="M 23.06,7.45 L 23.06,7.52 L 23.98,7.98 L 24.09,7.98 L 25.01,7.52 L 25.01,7.45 L 24.09,6.99 L 23.98,6.99 Z" fill="#d0b94f" stroke="none" /><path d="M 9.01,7.45 L 9.01,7.52 L 9.92,7.98 L 10.03,7.98 L 10.95,7.52 L 10.95,7.45 L 10.03,6.99 L 9.92,6.99 Z" fill="#d0b94f" stroke="none" /><path d="M 13.99,5.97 L 12.96,5.47 L 10.98,6.46 L 10.98,6.50 L 12.01,6.99 L 13.99,6.00 Z" fill="#d0b94f" stroke="none" /><path d="M 5.97,5.97 L 5.97,6.00 L 6.89,6.46 L 7.03,6.46 L 7.95,6.00 L 7.91,5.93 L 6.99,5.47 L 6.92,5.47 Z" fill="#d0b94f" stroke="none" /><path d="M 14.02,4.94 L 14.02,5.02 L 14.94,5.47 L 15.05,5.47 L 15.96,5.02 L 15.96,4.94 L 15.05,4.49 L 14.94,4.49 Z" fill="#d0b94f" stroke="none" /><path d="M 16.00,3.96 L 16.00,3.99 L 16.99,4.49 L 18.01,3.99 L 18.01,3.96 L 17.02,3.46 Z" fill="#d0b94f" stroke="none" /><path d="M 10.98,3.46 L 10.98,3.50 L 11.90,3.96 L 12.04,3.96 L 12.96,3.50 L 12.93,3.43 L 12.01,2.97 L 11.94,2.97 Z" fill="#d0b94f" stroke="none" /><path d="M 11.02,14.73 L 11.02,15.96 L 12.04,16.46 L 12.04,15.22 L 11.09,14.73 Z" fill="#998b51" stroke="none" /><path d="M 8.09,12.01 L 8.02,12.01 L 8.02,13.14 L 7.98,13.17 L 7.06,12.72 L 6.99,12.72 L 6.99,13.95 L 7.98,14.45 L 8.02,14.45 L 8.02,13.28 L 8.05,13.25 L 9.01,13.70 L 9.01,12.47 Z" fill="#998b51" stroke="none" /><path d="M 3.99,11.20 L 3.99,12.43 L 4.98,12.93 L 4.98,11.69 Z" fill="#998b51" stroke="none" /><path d="M 16.04,13.99 L 16.04,14.06 L 16.95,14.52 L 17.06,14.52 L 17.98,14.06 L 17.98,13.99 L 17.06,13.53 L 16.95,13.53 Z" fill="#d6c05d" stroke="none" /><path d="M 13.00,13.49 L 13.03,13.56 L 14.94,14.52 L 15.05,14.52 L 15.96,14.06 L 15.96,13.99 L 14.06,13.03 L 13.92,13.03 Z" fill="#d6c05d" stroke="none" /><path d="M 20.06,11.97 L 20.06,12.04 L 20.98,12.50 L 21.09,12.50 L 22.00,12.04 L 22.00,11.97 L 21.09,11.51 L 20.98,11.51 Z" fill="#d6c05d" stroke="none" /><path d="M 8.97,11.48 L 9.01,11.55 L 10.91,12.50 L 11.02,12.50 L 11.94,12.04 L 11.94,11.97 L 10.03,11.02 L 9.89,11.02 Z" fill="#d6c05d" stroke="none" /><path d="M 18.01,10.98 L 18.01,11.02 L 19.00,11.51 L 20.03,11.02 L 20.03,10.98 L 19.04,10.49 Z" fill="#d6c05d" stroke="none" /><path d="M 11.97,10.98 L 11.97,11.02 L 12.96,11.51 L 13.99,11.02 L 13.99,10.98 L 13.00,10.49 Z" fill="#d6c05d" stroke="none" /><path d="M 21.05,9.47 L 21.05,9.54 L 21.97,10.00 L 22.08,10.00 L 22.99,9.54 L 22.99,9.47 L 22.08,9.01 L 21.97,9.01 Z" fill="#d6c05d" stroke="none" /><path d="M 9.01,9.47 L 9.01,9.54 L 9.92,10.00 L 10.03,10.00 L 10.95,9.54 L 10.95,9.47 L 10.03,9.01 L 9.92,9.01 Z" fill="#d6c05d" stroke="none" /><path d="M 2.93,8.48 L 2.93,8.51 L 4.91,9.50 L 4.98,9.50 L 5.93,9.01 L 5.93,8.97 L 3.96,7.98 Z" fill="#d6c05d" stroke="none" /><path d="M 25.04,6.46 L 25.04,6.50 L 27.02,7.49 L 27.09,7.49 L 28.04,6.99 L 28.04,6.96 L 26.07,5.97 Z" fill="#d6c05d" stroke="none" /><path d="M 21.02,6.46 L 21.02,6.50 L 22.00,6.99 L 23.03,6.50 L 23.03,6.46 L 22.04,5.97 Z" fill="#d6c05d" stroke="none" /><path d="M 8.97,6.46 L 8.97,6.50 L 9.96,6.99 L 10.98,6.50 L 10.98,6.46 L 10.00,5.97 Z" fill="#d6c05d" stroke="none" /><path d="M 6.99,5.44 L 6.99,5.51 L 7.91,5.97 L 8.02,5.97 L 8.94,5.51 L 8.94,5.44 L 8.02,4.98 L 7.91,4.98 Z" fill="#d6c05d" stroke="none" /><path d="M 18.05,4.94 L 18.05,5.02 L 18.97,5.47 L 19.07,5.47 L 19.99,5.02 L 19.99,4.94 L 19.07,4.49 L 18.97,4.49 Z" fill="#d6c05d" stroke="none" /><path d="M 12.01,4.94 L 12.01,5.02 L 12.93,5.47 L 13.03,5.47 L 13.95,5.02 L 13.95,4.94 L 13.03,4.49 L 12.93,4.49 Z" fill="#d6c05d" stroke="none" /><path d="M 20.03,3.96 L 20.03,3.99 L 22.99,5.47 L 23.06,5.47 L 24.02,4.98 L 24.02,4.94 L 21.05,3.46 Z" fill="#d6c05d" stroke="none" /><path d="M 9.96,3.96 L 9.96,3.99 L 10.95,4.49 L 11.97,3.99 L 11.97,3.96 L 10.98,3.46 Z" fill="#d6c05d" stroke="none" /><path d="M 16.00,1.94 L 16.00,1.98 L 16.99,2.47 L 18.01,1.98 L 18.01,1.94 L 17.02,1.45 Z" fill="#d6c05d" stroke="none" /><path d="M 6.99,11.48 L 6.99,12.72 L 8.02,13.21 L 8.02,11.97 Z" fill="#9f9468" stroke="none" /><path d="M 17.98,12.01 L 17.02,12.50 L 17.02,12.54 L 17.94,13.00 L 17.91,13.07 L 17.02,13.49 L 17.02,13.53 L 17.98,14.02 L 18.05,14.02 L 19.00,13.53 L 19.00,13.49 L 18.08,13.03 L 18.12,12.96 L 19.00,12.54 L 19.00,12.50 L 18.05,12.01 Z" fill="#e0ca69" stroke="none" /><path d="M 10.98,12.50 L 10.98,12.54 L 12.96,13.53 L 13.99,13.03 L 13.99,13.00 L 12.01,12.01 L 11.94,12.01 Z" fill="#e0ca69" stroke="none" /><path d="M 25.04,10.49 L 24.02,10.00 L 21.05,11.48 L 21.05,11.51 L 22.00,12.01 L 22.08,12.01 L 25.04,10.53 Z" fill="#e0ca69" stroke="none" /><path d="M 16.04,9.96 L 16.04,10.03 L 17.94,10.98 L 18.08,10.98 L 19.00,10.53 L 18.97,10.45 L 17.06,9.50 L 16.95,9.50 Z" fill="#e0ca69" stroke="none" /><path d="M 15.96,9.96 L 15.05,9.50 L 14.94,9.50 L 13.03,10.45 L 13.00,10.53 L 13.92,10.98 L 14.06,10.98 L 15.96,10.03 Z" fill="#e0ca69" stroke="none" /><path d="M 4.98,9.47 L 4.98,9.54 L 8.94,11.51 L 9.96,11.02 L 9.96,10.98 L 6.00,9.01 L 5.90,9.01 Z" fill="#e0ca69" stroke="none" /><path d="M 29.03,7.45 L 28.11,6.99 L 28.01,6.99 L 27.09,7.45 L 27.09,7.52 L 27.97,7.95 L 28.01,7.98 L 27.94,8.05 L 26.10,8.97 L 26.00,8.97 L 25.11,8.51 L 24.97,8.51 L 24.05,8.97 L 24.05,9.01 L 25.01,9.50 L 25.08,9.50 L 26.03,9.01 L 27.02,9.50 L 27.09,9.50 L 29.07,8.51 L 29.07,8.48 L 28.19,8.05 L 28.11,7.98 L 29.03,7.52 Z" fill="#e0ca69" stroke="none" /><path d="M 20.94,6.50 L 19.04,7.45 L 19.04,7.52 L 19.96,7.98 L 19.89,8.05 L 19.00,8.48 L 19.00,8.51 L 20.98,9.50 L 21.05,9.50 L 21.97,9.04 L 22.00,8.97 L 20.13,8.05 L 20.06,7.98 L 21.97,7.03 L 22.00,6.96 L 21.09,6.50 Z" fill="#e0ca69" stroke="none" /><path d="M 10.91,6.50 L 10.00,6.96 L 10.00,6.99 L 11.94,7.98 L 11.87,8.05 L 10.00,8.97 L 10.00,9.01 L 10.95,9.50 L 11.02,9.50 L 13.00,8.51 L 13.00,8.48 L 12.11,8.05 L 12.04,7.98 L 12.96,7.52 L 12.96,7.45 L 11.06,6.50 Z" fill="#e0ca69" stroke="none" /><path d="M 2.97,7.52 L 3.89,7.98 L 3.99,7.98 L 5.93,6.99 L 6.92,7.49 L 6.99,7.49 L 7.91,7.03 L 7.95,6.96 L 7.03,6.50 L 6.89,6.50 L 6.00,6.96 L 5.90,6.96 L 5.02,6.50 L 4.87,6.50 L 2.97,7.45 Z" fill="#e0ca69" stroke="none" /><path d="M 23.06,5.44 L 23.06,5.51 L 24.97,6.46 L 25.11,6.46 L 26.03,6.00 L 26.00,5.93 L 24.09,4.98 L 23.98,4.98 Z" fill="#e0ca69" stroke="none" /><path d="M 13.00,5.47 L 13.00,5.51 L 14.98,6.50 L 15.96,6.00 L 16.04,6.00 L 17.02,6.50 L 19.00,5.51 L 18.97,5.44 L 18.05,4.98 L 17.98,4.98 L 16.04,5.97 L 15.96,5.97 L 14.02,4.98 L 13.95,4.98 Z" fill="#e0ca69" stroke="none" /><path d="M 7.98,4.94 L 8.02,5.02 L 8.94,5.47 L 9.01,5.47 L 9.96,4.98 L 9.96,4.94 L 9.04,4.49 L 8.90,4.49 Z" fill="#e0ca69" stroke="none" /><path d="M 17.02,2.44 L 17.06,2.51 L 19.96,3.96 L 20.10,3.96 L 21.02,3.50 L 20.98,3.43 L 18.08,1.98 L 17.94,1.98 Z" fill="#e0ca69" stroke="none" /><path d="M 16.00,1.94 L 14.98,1.45 L 13.00,2.44 L 13.03,2.51 L 13.95,2.97 L 13.03,3.43 L 13.00,3.50 L 13.92,3.96 L 14.06,3.96 L 14.98,3.50 L 14.94,3.43 L 14.02,2.97 L 16.00,1.98 Z" fill="#e0ca69" stroke="none" /><path d="M 18.01,13.00 L 18.01,13.03 L 19.00,13.53 L 20.03,13.03 L 20.03,13.00 L 19.04,12.50 Z" fill="#ecd67d" stroke="none" /><path d="M 25.08,9.47 L 25.08,9.54 L 26.00,10.00 L 26.10,10.00 L 27.02,9.54 L 27.02,9.47 L 26.10,9.01 L 26.00,9.01 Z" fill="#ecd67d" stroke="none" /><path d="M 15.01,9.47 L 15.05,9.54 L 15.96,10.00 L 16.04,10.00 L 16.99,9.50 L 16.99,9.47 L 16.07,9.01 L 15.93,9.01 Z" fill="#ecd67d" stroke="none" /><path d="M 18.01,7.98 L 18.01,8.02 L 18.93,8.48 L 19.07,8.48 L 19.99,8.02 L 19.96,7.95 L 19.04,7.49 L 18.97,7.49 Z" fill="#ecd67d" stroke="none" /><path d="M 12.01,7.98 L 12.01,8.02 L 12.93,8.48 L 13.07,8.48 L 13.99,8.02 L 13.95,7.95 L 13.03,7.49 L 12.96,7.49 Z" fill="#ecd67d" stroke="none" /><path d="M 15.01,6.46 L 15.05,6.53 L 15.96,6.99 L 16.04,6.99 L 16.99,6.50 L 16.99,6.46 L 16.07,6.00 L 15.93,6.00 Z" fill="#ecd67d" stroke="none" /><path d="M 4.94,6.46 L 4.94,6.50 L 5.93,6.99 L 6.96,6.50 L 6.96,6.46 L 5.97,5.97 Z" fill="#ecd67d" stroke="none" /><path d="M 7.03,4.52 L 7.98,4.98 L 8.94,4.49 L 9.01,4.49 L 10.00,4.98 L 10.91,4.52 L 10.95,4.45 L 10.03,3.99 L 9.89,3.99 L 9.01,4.45 L 8.94,4.45 L 8.05,3.99 L 7.98,3.99 L 7.06,4.45 Z" fill="#ecd67d" stroke="none" /><path d="M 12.01,2.93 L 12.01,3.00 L 12.93,3.46 L 13.03,3.46 L 13.95,3.00 L 13.95,2.93 L 13.03,2.47 L 12.93,2.47 Z" fill="#ecd67d" stroke="none" /><path d="M 8.05,3.96 L 8.05,4.03 L 8.90,4.45 L 9.04,4.45 L 9.96,3.99 L 9.96,3.96 L 9.04,3.50 L 8.97,3.50 Z" fill="#f5e4a0" stroke="none" /></svg>