<svg height="32" width="32" viewBox="0 0 32 32"><defs /><path d="M 21.70,13.13 L 18.26,14.83 L 18.26,16.24 L 21.70,14.55 Z" fill="#393217" stroke="none" /><path d="M 25.13,11.43 L 25.05,11.43 L 22.87,12.53 L 22.87,13.94 L 25.13,12.81 Z" fill="#393217" stroke="none" /><path d="M 27.43,10.26 L 26.30,10.83 L 26.30,12.20 L 26.38,12.20 L 27.43,11.68 Z" fill="#393217" stroke="none" /><path d="M 18.26,14.87 L 18.18,14.87 L 16.00,15.96 L 16.00,17.37 L 18.26,16.24 Z" fill="#3c351a" stroke="none" /><path d="M 22.87,12.57 L 22.79,12.57 L 21.70,13.13 L 21.70,14.51 L 21.78,14.51 L 22.87,13.94 Z" fill="#3c351a" stroke="none" /><path d="M 26.30,10.83 L 25.13,11.39 L 25.13,12.81 L 26.30,12.24 Z" fill="#3c351a" stroke="none" /><path d="M 32.00,8.00 L 31.92,8.00 L 28.61,9.66 L 28.61,11.07 L 31.96,9.41 L 32.00,9.37 Z" fill="#3c351a" stroke="none" /><path d="M 28.61,9.70 L 28.53,9.70 L 27.43,10.26 L 27.43,11.64 L 27.52,11.64 L 28.61,11.07 Z" fill="#4a421e" stroke="none" /><path d="M 10.30,13.13 L 10.30,14.55 L 11.35,15.07 L 11.43,15.07 L 11.43,13.70 Z" fill="#5c5125" stroke="none" /><path d="M 6.87,11.43 L 6.87,12.81 L 9.13,13.94 L 9.13,12.53 L 6.95,11.43 Z" fill="#5c5125" stroke="none" /><path d="M 2.26,9.13 L 2.26,10.51 L 2.30,10.55 L 5.62,12.20 L 5.70,12.20 L 5.70,10.83 L 5.66,10.79 L 2.34,9.13 Z" fill="#5c5125" stroke="none" /><path d="M 12.61,14.30 L 12.61,15.68 L 12.65,15.72 L 16.00,17.37 L 16.00,15.96 L 12.69,14.30 Z" fill="#62572a" stroke="none" /><path d="M 9.13,12.57 L 9.13,13.94 L 10.22,14.51 L 10.30,14.51 L 10.30,13.13 L 9.21,12.57 Z" fill="#62572a" stroke="none" /><path d="M 5.70,10.83 L 5.70,12.24 L 6.87,12.81 L 6.87,11.39 Z" fill="#62572a" stroke="none" /><path d="M 0.00,8.00 L 0.00,9.37 L 2.26,10.51 L 2.26,9.09 L 0.08,8.00 Z" fill="#62572a" stroke="none" /><path d="M 11.43,13.70 L 11.43,15.11 L 12.61,15.68 L 12.61,14.26 Z" fill="#786c31" stroke="none" /><path d="M 19.39,11.96 L 18.34,11.43 L 18.26,11.43 L 14.87,13.13 L 14.87,13.17 L 15.92,13.70 L 16.08,13.70 L 19.39,12.04 Z" fill="#8e7d39" stroke="none" /><path d="M 10.26,10.83 L 10.26,10.87 L 11.39,11.43 L 12.53,10.87 L 12.53,10.83 L 11.47,10.30 L 11.31,10.30 Z" fill="#8e7d39" stroke="none" /><path d="M 6.79,9.09 L 5.74,8.57 L 5.58,8.57 L 3.39,9.66 L 3.39,9.70 L 4.57,10.26 L 6.75,9.17 Z" fill="#8e7d39" stroke="none" /><path d="M 26.34,8.53 L 25.29,8.00 L 25.13,8.00 L 22.95,9.09 L 22.95,9.17 L 24.00,9.70 L 24.08,9.70 L 26.34,8.57 Z" fill="#8e7d39" stroke="none" /><path d="M 17.13,8.53 L 16.08,8.00 L 15.92,8.00 L 12.61,9.66 L 12.57,9.74 L 13.62,10.26 L 13.78,10.26 L 17.09,8.61 Z" fill="#8e7d39" stroke="none" /><path d="M 27.52,6.83 L 27.52,6.87 L 28.57,7.39 L 28.69,7.39 L 29.74,6.87 L 29.74,6.83 L 28.69,6.30 L 28.53,6.30 Z" fill="#8e7d39" stroke="none" /><path d="M 11.35,6.79 L 10.30,6.26 L 10.18,6.26 L 8.00,7.35 L 7.96,7.43 L 9.01,7.96 L 9.17,7.96 L 11.35,6.87 Z" fill="#8e7d39" stroke="none" /><path d="M 25.13,4.53 L 24.08,4.00 L 23.92,4.00 L 21.82,5.05 L 21.78,5.13 L 22.83,5.66 L 22.99,5.66 L 25.09,4.61 Z" fill="#8e7d39" stroke="none" /><path d="M 17.17,2.79 L 17.17,2.83 L 18.22,3.35 L 18.38,3.35 L 19.43,2.83 L 19.43,2.79 L 18.30,2.22 Z" fill="#8e7d39" stroke="none" /><path d="M 12.61,14.26 L 12.61,14.30 L 13.66,14.83 L 13.82,14.83 L 14.83,14.30 L 14.83,14.26 L 13.78,13.74 L 13.66,13.74 Z" fill="#978540" stroke="none" /><path d="M 8.00,11.96 L 8.00,12.00 L 9.13,12.57 L 10.22,12.04 L 10.22,11.96 L 9.17,11.43 L 9.05,11.43 Z" fill="#978540" stroke="none" /><path d="M 22.87,10.26 L 21.74,9.70 L 18.34,11.39 L 18.34,11.47 L 19.39,12.00 L 19.47,12.00 L 22.87,10.30 Z" fill="#978540" stroke="none" /><path d="M 11.39,10.26 L 11.39,10.30 L 12.53,10.87 L 13.70,10.30 L 13.70,10.26 L 12.57,9.70 Z" fill="#978540" stroke="none" /><path d="M 5.66,8.53 L 5.66,8.57 L 6.79,9.13 L 7.92,8.57 L 7.92,8.53 L 6.87,8.00 L 6.71,8.00 Z" fill="#978540" stroke="none" /><path d="M 28.61,7.39 L 27.47,6.83 L 25.21,7.96 L 25.21,8.00 L 26.26,8.53 L 26.42,8.53 L 28.61,7.43 Z" fill="#978540" stroke="none" /><path d="M 21.74,6.22 L 20.69,5.70 L 20.53,5.70 L 16.00,7.96 L 16.00,8.00 L 17.17,8.57 L 21.70,6.30 Z" fill="#978540" stroke="none" /><path d="M 17.13,3.92 L 16.08,3.39 L 15.92,3.39 L 10.26,6.22 L 10.26,6.26 L 11.35,6.83 L 11.43,6.83 L 17.09,4.00 Z" fill="#978540" stroke="none" /><path d="M 18.30,2.22 L 18.30,2.26 L 19.35,2.79 L 19.52,2.79 L 20.53,2.26 L 20.53,2.22 L 19.47,1.70 L 19.31,1.70 Z" fill="#978540" stroke="none" /><path d="M 13.74,12.57 L 13.74,12.61 L 14.79,13.13 L 14.95,13.13 L 16.00,12.61 L 16.00,12.57 L 14.87,12.00 Z" fill="#b5a948" stroke="none" /><path d="M 11.43,11.39 L 11.47,11.47 L 12.53,12.00 L 12.61,12.00 L 13.66,11.47 L 13.66,11.39 L 12.61,10.87 L 12.48,10.87 Z" fill="#b5a948" stroke="none" /><path d="M 24.08,9.66 L 24.08,9.74 L 25.13,10.26 L 25.25,10.26 L 26.30,9.74 L 26.30,9.66 L 25.25,9.13 L 25.13,9.13 Z" fill="#b5a948" stroke="none" /><path d="M 6.83,6.79 L 6.83,6.87 L 7.88,7.39 L 8.00,7.39 L 9.05,6.87 L 9.05,6.79 L 8.00,6.26 L 7.88,6.26 Z" fill="#b5a948" stroke="none" /><path d="M 4.57,5.74 L 5.62,6.26 L 5.70,6.26 L 6.75,5.74 L 6.79,5.66 L 5.74,5.13 L 5.66,5.13 L 4.61,5.66 Z" fill="#b5a948" stroke="none" /><path d="M 20.65,4.48 L 20.65,4.57 L 21.70,5.09 L 21.82,5.09 L 22.87,4.57 L 22.83,4.48 L 21.78,3.96 L 21.70,3.96 Z" fill="#b5a948" stroke="none" /><path d="M 18.30,3.35 L 18.30,3.39 L 19.43,3.96 L 20.57,3.39 L 20.57,3.35 L 19.52,2.83 L 19.35,2.83 Z" fill="#b5a948" stroke="none" /><path d="M 13.74,13.70 L 13.78,13.78 L 14.83,14.30 L 16.00,13.74 L 16.00,13.70 L 14.95,13.17 L 14.79,13.17 Z" fill="#b9a64b" stroke="none" /><path d="M 14.87,12.00 L 14.87,12.04 L 15.92,12.57 L 16.08,12.57 L 17.13,12.04 L 17.09,11.96 L 16.04,11.43 L 15.96,11.43 Z" fill="#b9a64b" stroke="none" /><path d="M 11.39,10.26 L 10.22,9.70 L 6.91,11.35 L 6.87,11.43 L 7.92,11.96 L 8.08,11.96 L 9.13,11.43 L 10.22,12.00 L 10.30,12.00 L 11.39,11.43 L 11.39,11.39 L 10.34,10.87 L 10.38,10.79 L 11.39,10.30 Z" fill="#b9a64b" stroke="none" /><path d="M 24.04,8.53 L 22.99,8.00 L 22.83,8.00 L 20.65,9.09 L 20.65,9.17 L 22.83,10.26 L 22.95,10.26 L 24.00,9.74 L 24.00,9.66 L 22.95,9.13 L 24.00,8.61 Z" fill="#b9a64b" stroke="none" /><path d="M 5.66,8.53 L 4.48,7.96 L 2.30,9.05 L 2.26,9.13 L 3.31,9.66 L 3.47,9.66 L 5.66,8.57 Z" fill="#b9a64b" stroke="none" /><path d="M 13.70,7.96 L 13.70,8.00 L 14.83,8.57 L 16.00,8.00 L 16.00,7.96 L 14.87,7.39 Z" fill="#b9a64b" stroke="none" /><path d="M 6.79,7.96 L 6.79,8.00 L 7.92,8.57 L 9.09,8.00 L 9.09,7.96 L 7.96,7.39 Z" fill="#b9a64b" stroke="none" /><path d="M 28.61,6.26 L 27.43,5.70 L 25.25,6.79 L 25.25,6.87 L 26.30,7.39 L 26.42,7.39 L 28.61,6.30 Z" fill="#b9a64b" stroke="none" /><path d="M 19.43,6.22 L 18.38,5.70 L 18.22,5.70 L 16.04,6.79 L 16.04,6.87 L 17.09,7.39 L 17.21,7.39 L 19.39,6.30 Z" fill="#b9a64b" stroke="none" /><path d="M 20.61,5.66 L 20.61,5.70 L 21.74,6.26 L 22.91,5.70 L 22.91,5.66 L 21.78,5.09 Z" fill="#b9a64b" stroke="none" /><path d="M 21.78,3.92 L 21.78,4.00 L 22.83,4.53 L 22.95,4.53 L 24.00,4.00 L 24.00,3.96 L 22.87,3.39 Z" fill="#b9a64b" stroke="none" /><path d="M 18.30,3.35 L 16.04,2.22 L 15.96,2.22 L 12.57,3.92 L 12.57,3.96 L 13.66,4.53 L 13.74,4.53 L 15.96,3.39 L 16.04,3.39 L 17.17,3.96 L 18.30,3.39 Z" fill="#b9a64b" stroke="none" /><path d="M 18.26,13.70 L 17.21,13.17 L 17.05,13.17 L 13.74,14.83 L 13.74,14.87 L 14.91,15.43 L 18.22,13.78 Z" fill="#c6af4c" stroke="none" /><path d="M 11.47,13.70 L 11.47,13.74 L 12.53,14.26 L 12.69,14.26 L 13.70,13.74 L 13.70,13.70 L 12.65,13.17 L 12.48,13.17 Z" fill="#c6af4c" stroke="none" /><path d="M 12.57,10.83 L 12.61,10.91 L 13.66,11.43 L 13.74,11.43 L 14.83,10.87 L 14.83,10.83 L 13.78,10.30 L 13.62,10.30 Z" fill="#c6af4c" stroke="none" /><path d="M 21.74,9.70 L 20.65,9.13 L 20.57,9.13 L 16.04,11.39 L 16.04,11.47 L 17.09,12.00 L 17.21,12.00 L 21.74,9.74 Z" fill="#c6af4c" stroke="none" /><path d="M 9.05,9.09 L 8.00,8.57 L 7.88,8.57 L 4.57,10.22 L 4.57,10.26 L 5.66,10.83 L 5.74,10.83 L 9.05,9.17 Z" fill="#c6af4c" stroke="none" /><path d="M 19.43,8.53 L 18.38,8.00 L 18.22,8.00 L 16.04,9.09 L 16.04,9.17 L 17.09,9.70 L 17.21,9.70 L 19.39,8.61 Z" fill="#c6af4c" stroke="none" /><path d="M 14.83,8.53 L 13.78,8.00 L 13.62,8.00 L 10.30,9.66 L 10.26,9.74 L 11.31,10.26 L 11.47,10.26 L 14.79,8.61 Z" fill="#c6af4c" stroke="none" /><path d="M 4.53,7.96 L 4.53,8.00 L 5.58,8.53 L 5.74,8.53 L 6.79,8.00 L 6.79,7.96 L 5.66,7.39 Z" fill="#c6af4c" stroke="none" /><path d="M 30.87,7.39 L 29.82,6.87 L 29.66,6.87 L 27.56,7.92 L 27.52,8.00 L 28.57,8.53 L 28.73,8.53 L 30.83,7.47 Z" fill="#c6af4c" stroke="none" /><path d="M 26.34,7.39 L 25.25,6.83 L 25.17,6.83 L 22.91,7.96 L 22.91,8.00 L 24.08,8.57 L 26.34,7.43 Z" fill="#c6af4c" stroke="none" /><path d="M 14.87,7.39 L 14.87,7.43 L 15.92,7.96 L 16.08,7.96 L 17.13,7.43 L 17.09,7.35 L 16.04,6.83 L 15.96,6.83 Z" fill="#c6af4c" stroke="none" /><path d="M 10.26,7.39 L 10.26,7.43 L 11.31,7.96 L 11.47,7.96 L 12.53,7.43 L 12.48,7.35 L 11.43,6.83 L 11.35,6.83 Z" fill="#c6af4c" stroke="none" /><path d="M 22.91,5.66 L 22.91,5.70 L 24.04,6.26 L 25.17,5.70 L 25.17,5.66 L 24.12,5.13 L 23.96,5.13 Z" fill="#c6af4c" stroke="none" /><path d="M 18.30,5.66 L 18.30,5.70 L 19.43,6.26 L 20.61,5.70 L 20.61,5.66 L 19.47,5.09 Z" fill="#c6af4c" stroke="none" /><path d="M 13.70,5.66 L 13.70,5.70 L 14.83,6.26 L 16.00,5.70 L 16.00,5.66 L 14.87,5.09 Z" fill="#c6af4c" stroke="none" /><path d="M 11.39,5.66 L 10.22,5.09 L 7.96,6.22 L 7.96,6.26 L 9.05,6.83 L 9.13,6.83 L 11.39,5.70 Z" fill="#c6af4c" stroke="none" /><path d="M 12.57,2.79 L 11.52,2.26 L 11.39,2.26 L 8.00,3.96 L 8.00,4.00 L 9.05,4.53 L 9.17,4.53 L 12.57,2.83 Z" fill="#c6af4c" stroke="none" /><path d="M 19.39,1.66 L 18.22,1.09 L 16.04,2.18 L 16.04,2.26 L 17.09,2.79 L 17.21,2.79 L 19.39,1.70 Z" fill="#c6af4c" stroke="none" /><path d="M 14.91,0.53 L 14.91,0.57 L 15.96,1.09 L 16.04,1.09 L 17.09,0.57 L 17.05,0.48 L 16.08,0.00 L 15.92,0.00 Z" fill="#c6af4c" stroke="none" /><path d="M 17.13,9.70 L 16.04,9.13 L 15.96,9.13 L 13.70,10.26 L 13.70,10.30 L 14.87,10.87 L 17.13,9.74 Z" fill="#c0b34d" stroke="none" /><path d="M 14.83,6.22 L 13.78,5.70 L 13.62,5.70 L 11.43,6.79 L 11.43,6.87 L 12.48,7.39 L 12.61,7.39 L 14.79,6.30 Z" fill="#c0b34d" stroke="none" /><path d="M 9.09,4.53 L 8.08,4.00 L 7.92,4.00 L 5.74,5.09 L 5.74,5.17 L 6.83,5.70 L 9.09,4.57 Z" fill="#c0b34d" stroke="none" /><path d="M 13.66,4.48 L 12.61,3.96 L 12.48,3.96 L 10.30,5.05 L 10.26,5.13 L 11.31,5.66 L 11.47,5.66 L 13.66,4.57 Z" fill="#c0b34d" stroke="none" /><path d="M 19.43,2.79 L 19.43,2.83 L 20.57,3.39 L 21.66,2.87 L 21.66,2.79 L 20.61,2.26 L 20.48,2.26 Z" fill="#c0b34d" stroke="none" /><path d="M 12.61,11.96 L 12.61,12.04 L 13.66,12.57 L 13.78,12.57 L 14.83,12.04 L 14.79,11.96 L 13.74,11.43 L 13.66,11.43 Z" fill="#d0b94f" stroke="none" /><path d="M 22.87,11.39 L 21.82,10.87 L 21.66,10.87 L 17.13,13.13 L 17.13,13.17 L 18.30,13.74 L 22.83,11.47 Z" fill="#d0b94f" stroke="none" /><path d="M 28.65,8.53 L 27.47,7.96 L 25.21,9.09 L 25.25,9.17 L 26.30,9.70 L 25.25,10.22 L 25.21,10.30 L 26.26,10.83 L 26.34,10.83 L 27.39,10.30 L 27.43,10.22 L 26.38,9.70 L 28.65,8.57 Z" fill="#d0b94f" stroke="none" /><path d="M 11.39,7.96 L 10.22,7.39 L 7.96,8.53 L 7.96,8.57 L 9.05,9.13 L 9.13,9.13 L 11.39,8.00 Z" fill="#d0b94f" stroke="none" /><path d="M 3.35,7.39 L 2.34,6.87 L 2.18,6.87 L 0.00,7.96 L 0.00,8.00 L 1.05,8.53 L 1.17,8.53 L 3.35,7.43 Z" fill="#d0b94f" stroke="none" /><path d="M 24.04,6.22 L 22.99,5.70 L 22.83,5.70 L 18.30,7.96 L 18.30,8.00 L 19.47,8.57 L 24.00,6.30 Z" fill="#d0b94f" stroke="none" /><path d="M 5.70,6.22 L 5.70,6.30 L 6.75,6.83 L 6.83,6.83 L 7.92,6.26 L 7.92,6.22 L 6.87,5.70 L 6.75,5.70 Z" fill="#d0b94f" stroke="none" /><path d="M 24.04,5.09 L 24.04,5.13 L 25.17,5.70 L 26.26,5.17 L 26.26,5.09 L 25.21,4.57 L 25.09,4.57 Z" fill="#d0b94f" stroke="none" /><path d="M 14.87,5.09 L 14.87,5.13 L 15.92,5.66 L 16.08,5.66 L 17.13,5.13 L 17.09,5.05 L 16.04,4.53 L 15.96,4.53 Z" fill="#d0b94f" stroke="none" /><path d="M 19.47,3.92 L 19.52,4.00 L 20.57,4.53 L 20.65,4.53 L 21.70,4.00 L 21.70,3.92 L 20.65,3.39 L 20.53,3.39 Z" fill="#d0b94f" stroke="none" /><path d="M 15.96,1.05 L 14.87,0.53 L 11.47,2.22 L 11.47,2.26 L 12.48,2.79 L 12.65,2.79 L 15.96,1.13 Z" fill="#d0b94f" stroke="none" /><path d="M 18.26,14.83 L 17.21,14.30 L 17.09,14.30 L 14.91,15.39 L 14.91,15.43 L 15.92,15.96 L 16.08,15.96 L 18.26,14.87 Z" fill="#d6c05d" stroke="none" /><path d="M 22.83,12.53 L 21.78,12.00 L 21.70,12.00 L 19.43,13.13 L 19.43,13.17 L 20.48,13.70 L 20.61,13.70 L 22.79,12.61 Z" fill="#d6c05d" stroke="none" /><path d="M 9.17,12.53 L 9.21,12.61 L 10.26,13.13 L 10.34,13.13 L 11.39,12.61 L 11.35,12.53 L 10.30,12.00 L 10.22,12.00 Z" fill="#d6c05d" stroke="none" /><path d="M 17.13,10.83 L 16.08,10.30 L 15.92,10.30 L 13.74,11.39 L 13.74,11.47 L 14.79,12.00 L 14.91,12.00 L 17.09,10.91 Z" fill="#d6c05d" stroke="none" /><path d="M 21.74,10.83 L 21.74,10.87 L 22.87,11.43 L 24.04,10.87 L 24.04,10.83 L 22.91,10.26 Z" fill="#d6c05d" stroke="none" /><path d="M 5.74,10.79 L 5.74,10.87 L 6.79,11.39 L 6.91,11.39 L 7.96,10.87 L 7.96,10.83 L 6.83,10.26 Z" fill="#d6c05d" stroke="none" /><path d="M 21.74,8.53 L 20.69,8.00 L 20.53,8.00 L 18.34,9.09 L 18.34,9.17 L 19.39,9.70 L 19.52,9.70 L 21.70,8.61 Z" fill="#d6c05d" stroke="none" /><path d="M 29.78,7.96 L 29.78,8.00 L 30.83,8.53 L 30.95,8.53 L 32.00,8.00 L 32.00,7.96 L 30.95,7.43 L 30.83,7.43 Z" fill="#d6c05d" stroke="none" /><path d="M 4.48,6.83 L 3.47,6.30 L 3.31,6.30 L 2.26,6.83 L 2.26,6.87 L 3.31,7.39 L 3.23,7.47 L 1.17,8.48 L 1.13,8.57 L 2.18,9.09 L 2.30,9.09 L 4.48,8.00 L 4.44,7.92 L 3.52,7.47 L 3.43,7.39 L 4.48,6.87 Z" fill="#d6c05d" stroke="none" /><path d="M 15.96,6.79 L 14.91,6.26 L 14.79,6.26 L 9.13,9.09 L 9.13,9.17 L 10.18,9.70 L 10.30,9.70 L 15.96,6.87 Z" fill="#d6c05d" stroke="none" /><path d="M 27.43,5.70 L 26.34,5.13 L 26.26,5.13 L 22.95,6.79 L 22.95,6.87 L 24.00,7.39 L 24.12,7.39 L 27.43,5.74 Z" fill="#d6c05d" stroke="none" /><path d="M 16.04,4.48 L 16.04,4.57 L 17.09,5.09 L 17.21,5.09 L 18.26,4.57 L 18.26,4.48 L 17.21,3.96 L 17.09,3.96 Z" fill="#d6c05d" stroke="none" /><path d="M 11.35,4.48 L 10.30,3.96 L 10.22,3.96 L 6.83,5.66 L 6.83,5.70 L 7.96,6.26 L 11.35,4.57 Z" fill="#d6c05d" stroke="none" /><path d="M 20.61,3.35 L 20.65,3.43 L 21.70,3.96 L 21.78,3.96 L 22.83,3.43 L 22.79,3.35 L 21.74,2.83 L 21.66,2.83 Z" fill="#d6c05d" stroke="none" /><path d="M 18.22,1.09 L 17.09,0.53 L 13.78,2.18 L 13.74,2.26 L 14.79,2.79 L 14.91,2.79 L 18.22,1.13 Z" fill="#d6c05d" stroke="none" /><path d="M 20.53,13.70 L 19.52,13.17 L 19.35,13.17 L 17.17,14.26 L 17.17,14.30 L 18.18,14.83 L 18.34,14.83 L 20.53,13.74 Z" fill="#e0ca69" stroke="none" /><path d="M 10.30,11.96 L 10.30,12.04 L 11.35,12.57 L 11.27,12.65 L 10.34,13.09 L 10.34,13.17 L 11.39,13.70 L 11.52,13.70 L 12.53,13.17 L 12.61,13.17 L 13.74,13.74 L 14.87,13.17 L 14.87,13.13 L 13.74,12.57 L 12.61,13.13 L 12.53,13.13 L 11.56,12.65 L 11.47,12.57 L 11.52,12.53 L 12.53,12.04 L 12.53,11.96 L 11.47,11.43 L 11.35,11.43 Z" fill="#e0ca69" stroke="none" /><path d="M 25.17,10.26 L 24.08,9.70 L 24.00,9.70 L 22.95,10.22 L 22.91,10.30 L 23.92,10.79 L 23.96,10.87 L 21.78,11.96 L 21.78,12.04 L 22.87,12.57 L 25.13,11.43 L 25.09,11.35 L 24.16,10.91 L 24.12,10.83 L 25.17,10.30 Z" fill="#e0ca69" stroke="none" /><path d="M 19.43,9.70 L 18.34,9.13 L 18.26,9.13 L 16.00,10.26 L 16.00,10.30 L 17.17,10.87 L 19.43,9.74 Z" fill="#e0ca69" stroke="none" /><path d="M 10.22,9.70 L 9.13,9.13 L 9.05,9.13 L 6.87,10.22 L 6.83,10.30 L 7.88,10.83 L 8.04,10.83 L 10.22,9.74 Z" fill="#e0ca69" stroke="none" /><path d="M 30.87,8.53 L 29.86,8.00 L 29.70,8.00 L 26.38,9.66 L 26.38,9.74 L 27.47,10.26 L 30.87,8.57 Z" fill="#e0ca69" stroke="none" /><path d="M 24.04,7.39 L 22.95,6.83 L 22.87,6.83 L 20.61,7.96 L 20.61,8.00 L 21.78,8.57 L 24.04,7.43 Z" fill="#e0ca69" stroke="none" /><path d="M 3.39,6.26 L 3.39,6.30 L 4.44,6.83 L 4.36,6.91 L 3.43,7.35 L 3.39,7.43 L 4.44,7.96 L 4.57,7.96 L 5.58,7.43 L 5.70,7.43 L 6.71,7.96 L 6.87,7.96 L 7.92,7.43 L 7.88,7.35 L 6.83,6.83 L 6.75,6.83 L 5.66,7.39 L 4.65,6.91 L 4.57,6.83 L 4.61,6.79 L 5.62,6.30 L 5.62,6.22 L 4.57,5.70 Z" fill="#e0ca69" stroke="none" /><path d="M 21.74,5.09 L 20.65,4.53 L 20.57,4.53 L 19.43,5.09 L 18.34,4.53 L 19.39,4.00 L 19.43,3.92 L 18.38,3.39 L 18.22,3.39 L 17.17,3.92 L 17.21,4.00 L 18.22,4.48 L 18.26,4.53 L 18.22,4.57 L 14.87,6.22 L 14.87,6.26 L 15.96,6.83 L 16.04,6.83 L 19.39,5.13 L 19.52,5.13 L 20.53,5.66 L 20.69,5.66 L 21.74,5.13 Z" fill="#e0ca69" stroke="none" /><path d="M 14.83,2.79 L 13.70,2.22 L 10.30,3.92 L 10.30,4.00 L 11.35,4.53 L 11.43,4.53 L 14.83,2.83 Z" fill="#e0ca69" stroke="none" /><path d="M 11.43,12.57 L 11.43,12.61 L 12.48,13.13 L 12.65,13.13 L 13.70,12.61 L 13.66,12.53 L 12.61,12.00 L 12.53,12.00 Z" fill="#ecd67d" stroke="none" /><path d="M 26.26,10.79 L 25.17,10.26 L 24.04,10.83 L 24.04,10.87 L 25.09,11.39 L 25.21,11.39 L 26.26,10.87 Z" fill="#ecd67d" stroke="none" /><path d="M 4.53,6.83 L 4.53,6.87 L 5.58,7.39 L 5.70,7.39 L 6.75,6.87 L 6.75,6.79 L 5.70,6.26 L 5.62,6.26 Z" fill="#ecd67d" stroke="none" /><path d="M 18.34,4.48 L 18.34,4.57 L 19.39,5.09 L 19.52,5.09 L 20.57,4.57 L 20.57,4.48 L 19.52,3.96 L 19.39,3.96 Z" fill="#ecd67d" stroke="none" /></svg>