<svg height="32" width="32" viewBox="0 0 32 32"><defs /><path d="M 17.08,27.71 L 16.19,28.15 L 16.19,29.20 L 16.25,29.20 L 17.08,28.79 Z" fill="#000000" stroke="none" /><path d="M 21.63,25.45 L 21.57,25.45 L 20.71,25.89 L 20.71,26.94 L 20.77,26.94 L 21.63,26.50 Z" fill="#000000" stroke="none" /><path d="M 18.89,24.68 L 18.83,24.68 L 18.00,25.10 L 18.00,26.18 L 18.89,25.73 Z" fill="#000000" stroke="none" /><path d="M 23.44,23.48 L 23.38,23.48 L 22.52,23.92 L 22.52,24.97 L 22.58,24.97 L 23.44,24.52 Z" fill="#000000" stroke="none" /><path d="M 25.19,21.53 L 25.13,21.53 L 24.33,21.95 L 24.33,24.08 L 25.19,23.67 Z" fill="#000000" stroke="none" /><path d="M 11.74,27.42 L 11.74,27.71 L 11.77,27.74 L 12.63,28.15 L 12.63,27.83 L 11.80,27.42 Z" fill="#000001" stroke="none" /><path d="M 9.92,26.82 L 9.92,27.86 L 10.82,28.31 L 10.82,27.23 L 9.99,26.82 Z" fill="#000001" stroke="none" /><path d="M 17.11,24.65 L 15.30,25.54 L 15.30,25.57 L 16.16,26.02 L 16.22,26.02 L 17.05,25.61 L 17.08,25.54 L 16.25,25.13 L 17.08,24.72 Z" fill="#000001" stroke="none" /><path d="M 5.38,24.52 L 5.38,25.61 L 6.30,26.05 L 6.30,24.97 Z" fill="#000001" stroke="none" /><path d="M 9.89,23.76 L 9.89,23.79 L 10.72,24.21 L 10.69,24.27 L 9.96,24.62 L 9.92,24.68 L 10.75,25.10 L 10.88,25.10 L 11.67,24.68 L 11.67,24.65 L 10.82,24.24 L 10.78,24.17 L 9.96,23.76 Z" fill="#000001" stroke="none" /><path d="M 3.63,23.67 L 3.63,24.72 L 4.42,25.13 L 4.49,25.13 L 4.49,24.08 L 3.69,23.67 Z" fill="#000001" stroke="none" /><path d="M 7.19,23.32 L 7.19,24.37 L 8.05,24.81 L 8.11,24.81 L 8.11,23.76 L 7.25,23.32 Z" fill="#000001" stroke="none" /><path d="M 20.77,22.84 L 20.77,22.90 L 21.60,23.32 L 22.52,22.87 L 22.52,22.84 L 21.69,22.43 L 21.60,22.43 Z" fill="#000001" stroke="none" /><path d="M 3.63,21.50 L 3.63,21.53 L 4.45,21.95 L 4.52,21.95 L 5.34,21.53 L 5.31,21.47 L 4.55,21.09 L 4.42,21.09 Z" fill="#000001" stroke="none" /><path d="M 18.00,25.13 L 17.94,25.13 L 15.27,26.47 L 15.27,28.60 L 15.33,28.60 L 16.19,28.15 L 16.19,27.10 L 17.05,26.66 L 17.08,26.69 L 17.08,28.76 L 17.15,28.76 L 18.00,28.31 Z" fill="#020104" stroke="none" /><path d="M 20.71,24.84 L 20.64,24.84 L 18.89,25.73 L 18.89,26.78 L 18.96,26.78 L 20.71,25.89 Z" fill="#020104" stroke="none" /><path d="M 24.33,21.95 L 21.63,23.28 L 21.63,24.37 L 23.41,23.48 L 23.44,23.51 L 23.44,24.49 L 23.38,24.56 L 21.63,25.42 L 21.63,26.50 L 25.19,24.72 L 25.19,23.67 L 25.13,23.67 L 24.40,24.05 L 24.33,24.02 Z" fill="#020104" stroke="none" /><path d="M 10.82,25.13 L 10.82,26.18 L 10.85,26.21 L 11.67,26.62 L 11.74,26.62 L 11.74,26.34 L 11.77,26.31 L 12.63,26.75 L 12.63,28.09 L 12.60,28.12 L 11.74,27.71 L 11.74,28.47 L 11.71,28.50 L 10.85,28.06 L 10.85,27.26 L 10.82,27.26 L 10.82,28.31 L 13.55,29.68 L 13.55,26.47 L 10.88,25.13 Z" fill="#040207" stroke="none" /><path d="M 8.11,24.84 L 8.11,25.89 L 9.86,26.78 L 9.92,26.78 L 9.92,25.73 L 8.17,24.84 Z" fill="#040207" stroke="none" /><path d="M 4.49,21.95 L 4.49,22.97 L 4.45,23.00 L 3.63,22.58 L 3.63,23.67 L 5.34,24.52 L 5.38,24.52 L 5.38,23.51 L 5.41,23.48 L 6.23,23.89 L 6.30,23.95 L 6.30,26.05 L 7.19,26.50 L 7.19,23.28 Z" fill="#040207" stroke="none" /><path d="M 15.27,25.57 L 15.27,25.61 L 15.30,25.61 L 15.30,25.57 Z" fill="#06030b" stroke="none" /><path d="M 10.78,24.21 L 10.78,24.24 L 11.58,24.62 L 11.64,24.68 L 10.82,25.10 L 10.82,25.13 L 12.60,26.02 L 12.66,26.02 L 13.46,25.61 L 13.55,25.61 L 13.52,25.54 L 10.85,24.21 Z" fill="#06030b" stroke="none" /><path d="M 18.93,23.76 L 18.86,23.76 L 18.04,24.17 L 18.04,24.21 L 18.10,24.21 L 18.93,23.79 Z" fill="#06030b" stroke="none" /><path d="M 19.82,23.28 L 19.85,23.35 L 20.68,23.76 L 20.74,23.76 L 21.60,23.32 L 21.60,23.28 L 20.77,22.87 L 20.64,22.87 Z" fill="#06030b" stroke="none" /><path d="M 8.11,22.87 L 8.11,22.90 L 8.94,23.32 L 9.00,23.32 L 9.00,23.28 L 8.17,22.87 Z" fill="#06030b" stroke="none" /><path d="M 6.30,22.84 L 6.30,22.87 L 7.19,23.32 L 8.05,22.90 L 8.05,22.84 L 7.22,22.43 L 7.13,22.43 Z" fill="#06030b" stroke="none" /><path d="M 5.41,20.61 L 4.49,21.06 L 4.49,21.09 L 5.31,21.50 L 5.41,21.50 Z" fill="#06030b" stroke="none" /><path d="M 18.89,26.82 L 18.83,26.82 L 18.00,27.23 L 18.00,28.31 L 18.89,27.86 Z" fill="#06050b" stroke="none" /><path d="M 17.08,26.66 L 17.02,26.66 L 16.19,27.07 L 16.19,28.12 L 16.13,28.18 L 15.27,28.60 L 15.27,29.68 L 16.19,29.23 L 16.19,28.18 L 16.25,28.12 L 17.08,27.71 Z" fill="#06050b" stroke="none" /><path d="M 21.63,23.32 L 21.57,23.32 L 18.89,24.65 L 18.89,25.73 L 20.68,24.84 L 20.71,24.87 L 20.71,25.86 L 20.64,25.92 L 19.82,26.34 L 19.82,27.39 L 19.88,27.39 L 20.71,26.97 L 20.71,25.92 L 20.77,25.86 L 22.52,25.00 L 22.52,23.92 L 21.66,24.33 L 21.63,24.30 Z" fill="#06050b" stroke="none" /><path d="M 7.19,25.45 L 7.19,26.50 L 8.05,26.94 L 8.11,26.94 L 8.11,25.89 L 7.25,25.45 Z" fill="#0a0812" stroke="none" /><path d="M 8.11,23.76 L 8.11,24.84 L 9.86,25.70 L 9.92,25.77 L 9.92,26.75 L 9.89,26.78 L 9.00,26.34 L 9.00,27.42 L 9.92,27.86 L 9.92,26.85 L 9.96,26.82 L 10.82,27.26 L 10.85,27.26 L 10.85,27.01 L 10.88,26.97 L 11.67,27.39 L 11.74,27.39 L 11.74,26.62 L 10.88,26.21 L 10.82,26.15 L 10.82,25.10 Z" fill="#0a0812" stroke="none" /><path d="M 5.44,23.48 L 5.38,23.48 L 5.38,24.46 L 5.34,24.49 L 4.49,24.08 L 4.49,25.16 L 5.31,25.57 L 5.38,25.57 L 5.38,24.59 L 5.41,24.56 L 6.23,24.97 L 6.30,24.97 L 6.30,23.92 Z" fill="#0a0812" stroke="none" /><path d="M 3.63,21.53 L 3.63,22.58 L 4.42,23.00 L 4.49,23.00 L 4.49,21.95 L 3.69,21.53 Z" fill="#0a0812" stroke="none" /><path d="M 18.86,25.73 L 18.00,26.18 L 18.00,27.23 L 18.07,27.23 L 18.86,26.82 L 18.89,26.85 L 18.89,27.86 L 18.93,27.86 L 19.82,27.42 L 19.82,26.34 L 18.93,26.78 L 18.89,26.75 L 18.89,25.73 Z" fill="#0f0c18" stroke="none" /><path d="M 15.27,25.61 L 15.27,26.47 L 15.33,26.47 L 16.16,26.05 L 16.16,25.99 L 15.33,25.57 Z" fill="#100c1c" stroke="none" /><path d="M 13.55,25.61 L 13.49,25.57 L 12.66,25.99 L 12.66,26.05 L 13.49,26.47 L 13.55,26.47 Z" fill="#100c1c" stroke="none" /><path d="M 18.89,24.65 L 18.04,24.21 L 17.97,24.21 L 17.15,24.62 L 17.05,24.72 L 16.25,25.10 L 16.25,25.16 L 17.11,25.57 L 18.89,24.68 Z" fill="#100c1c" stroke="none" /><path d="M 19.82,23.32 L 19.75,23.32 L 18.93,23.73 L 18.93,23.76 L 18.99,23.76 L 19.82,23.35 Z" fill="#100c1c" stroke="none" /><path d="M 23.44,21.50 L 23.38,21.50 L 21.66,22.36 L 21.63,22.43 L 23.44,21.53 Z" fill="#100c1c" stroke="none" /><path d="M 5.38,21.50 L 5.38,21.53 L 6.20,21.95 L 6.17,22.01 L 5.44,22.36 L 5.41,22.43 L 6.23,22.84 L 6.36,22.84 L 7.19,22.43 L 8.05,22.87 L 7.22,23.28 L 7.22,23.32 L 8.97,24.21 L 9.03,24.21 L 9.86,23.79 L 9.83,23.73 L 8.14,22.90 L 8.11,22.84 L 5.44,21.50 Z" fill="#100c1c" stroke="none" /><path d="M 7.19,24.37 L 7.19,25.45 L 8.05,25.86 L 8.11,25.92 L 8.11,26.97 L 8.94,27.39 L 9.00,27.39 L 9.00,26.34 L 8.17,25.92 L 8.11,25.86 L 8.11,24.81 Z" fill="#191327" stroke="none" /><path d="M 20.68,23.73 L 19.82,23.32 L 18.04,24.21 L 18.04,24.24 L 18.86,24.65 L 18.96,24.65 L 20.68,23.79 Z" fill="#271e3c" stroke="none" /><path d="M 9.00,23.32 L 9.00,23.35 L 9.83,23.76 L 9.89,23.76 L 9.89,23.73 L 9.07,23.32 Z" fill="#271e3c" stroke="none" /><path d="M 23.41,22.39 L 22.62,21.98 L 22.49,21.98 L 21.69,22.39 L 21.60,22.39 L 20.71,22.84 L 20.71,22.87 L 20.77,22.87 L 21.63,22.43 L 22.46,22.84 L 22.58,22.84 L 23.41,22.43 Z" fill="#271e3c" stroke="none" /><path d="M 23.41,20.61 L 23.41,21.50 L 23.51,21.50 L 24.33,21.09 L 24.33,21.06 Z" fill="#271e3c" stroke="none" /><path d="M 28.82,13.77 L 27.93,14.22 L 27.93,15.33 L 28.82,14.89 Z" fill="#314548" stroke="none" /><path d="M 28.82,9.35 L 28.76,9.35 L 27.93,9.77 L 27.93,13.11 L 28.82,12.66 Z" fill="#314548" stroke="none" /><path d="M 15.27,24.49 L 15.27,25.57 L 15.30,25.57 L 15.30,24.49 Z" fill="#11504c" stroke="none" /><path d="M 23.41,20.45 L 23.35,20.45 L 22.52,20.87 L 22.52,21.95 L 23.41,21.50 Z" fill="#11504c" stroke="none" /><path d="M 15.27,15.01 L 15.27,15.62 L 15.30,15.62 L 15.30,15.01 Z" fill="#11504c" stroke="none" /><path d="M 23.41,10.94 L 22.52,11.39 L 22.52,11.99 L 22.58,11.99 L 23.41,11.58 Z" fill="#11504c" stroke="none" /><path d="M 17.08,29.61 L 16.19,30.06 L 16.19,31.11 L 16.25,31.11 L 17.08,30.70 Z" fill="#374c51" stroke="none" /><path d="M 27.04,24.65 L 26.97,24.65 L 18.00,29.14 L 17.97,29.17 L 17.97,30.22 L 18.04,30.22 L 27.01,25.73 L 27.04,25.70 Z" fill="#374c51" stroke="none" /><path d="M 28.82,14.89 L 27.93,15.33 L 27.93,23.09 L 28.82,22.65 Z" fill="#374c51" stroke="none" /><path d="M 28.82,12.66 L 27.93,13.11 L 27.93,14.22 L 28.82,13.77 Z" fill="#374c51" stroke="none" /><path d="M 15.27,21.18 L 15.27,24.49 L 15.30,24.52 L 15.30,25.54 L 15.36,25.54 L 18.89,23.76 L 18.89,22.71 L 18.83,22.71 L 17.15,23.57 L 17.11,23.54 L 17.11,22.49 L 17.05,22.49 L 16.22,22.90 L 16.19,22.87 L 16.19,21.82 L 15.33,22.23 L 15.30,22.20 L 15.30,21.18 Z" fill="#1d5451" stroke="none" /><path d="M 23.41,16.00 L 22.52,16.45 L 22.52,18.64 L 21.63,19.09 L 21.63,20.20 L 20.71,20.68 L 20.71,21.76 L 20.64,21.82 L 19.82,22.23 L 19.82,23.28 L 19.88,23.28 L 22.49,21.98 L 22.52,21.95 L 22.52,20.90 L 23.41,20.45 Z" fill="#1d5451" stroke="none" /><path d="M 18.00,13.65 L 15.30,14.98 L 15.30,15.59 L 15.27,15.62 L 15.27,20.07 L 15.30,20.07 L 15.30,17.88 L 15.36,17.81 L 16.19,17.40 L 16.19,16.32 L 16.25,16.25 L 17.11,15.84 L 17.11,14.73 L 18.00,14.28 Z" fill="#1d5451" stroke="none" /><path d="M 23.41,11.58 L 23.35,11.58 L 22.55,11.99 L 22.52,11.96 L 22.52,11.39 L 22.49,11.39 L 18.93,13.17 L 18.89,13.20 L 18.89,13.81 L 18.96,13.81 L 20.68,12.95 L 20.71,12.98 L 20.71,14.03 L 21.60,13.58 L 21.63,13.61 L 21.63,14.66 L 21.69,14.66 L 22.49,14.25 L 22.52,14.28 L 22.52,15.33 L 22.55,15.33 L 23.41,14.89 Z" fill="#1d5451" stroke="none" /><path d="M 9.03,24.17 L 9.03,24.24 L 9.86,24.65 L 9.96,24.65 L 10.78,24.24 L 10.78,24.21 L 9.89,23.76 Z" fill="#3a2753" stroke="none" /><path d="M 4.52,21.92 L 4.52,21.98 L 5.34,22.39 L 5.44,22.39 L 6.27,21.98 L 6.27,21.95 L 5.38,21.50 Z" fill="#3a2753" stroke="none" /><path d="M 25.19,21.50 L 24.40,21.09 L 24.27,21.09 L 22.55,21.95 L 22.55,21.98 L 23.38,22.39 L 23.48,22.39 L 25.19,21.53 Z" fill="#3a2753" stroke="none" /><path d="M 15.27,29.42 L 14.41,29.84 L 14.41,32.00 L 14.47,32.00 L 16.19,31.14 L 16.19,30.06 L 15.30,30.50 L 15.27,30.47 Z" fill="#425256" stroke="none" /><path d="M 17.97,29.17 L 17.08,29.61 L 17.08,30.66 L 17.15,30.66 L 17.97,30.25 Z" fill="#425256" stroke="none" /><path d="M 15.27,27.20 L 14.41,27.61 L 14.41,28.72 L 14.47,28.72 L 15.27,28.31 Z" fill="#425256" stroke="none" /><path d="M 28.82,22.65 L 27.93,23.09 L 27.93,24.17 L 27.04,24.62 L 27.04,25.70 L 28.82,24.81 Z" fill="#425256" stroke="none" /><path d="M 17.08,17.43 L 16.19,17.88 L 16.19,18.96 L 16.25,18.96 L 17.08,18.54 Z" fill="#425256" stroke="none" /><path d="M 28.82,7.19 L 28.76,7.19 L 27.93,7.60 L 27.93,9.77 L 27.99,9.77 L 28.82,9.35 Z" fill="#425256" stroke="none" /><path d="M 20.71,12.91 L 18.93,13.81 L 18.89,13.77 L 18.89,13.20 L 18.04,13.61 L 18.00,13.65 L 18.00,14.25 L 17.11,14.70 L 17.11,15.81 L 16.19,16.29 L 16.19,17.37 L 16.13,17.43 L 15.30,17.84 L 15.30,20.04 L 15.27,20.07 L 15.27,21.18 L 15.30,21.22 L 15.30,22.27 L 16.16,21.85 L 16.19,21.88 L 16.19,22.93 L 17.08,22.49 L 17.11,22.52 L 17.11,23.57 L 17.18,23.57 L 18.86,22.71 L 18.89,22.74 L 18.89,23.76 L 19.82,23.32 L 19.82,22.27 L 19.88,22.20 L 20.71,21.79 L 20.71,20.71 L 20.77,20.64 L 21.63,20.23 L 21.63,19.12 L 22.52,18.67 L 22.52,16.48 L 22.58,16.41 L 23.41,16.00 L 23.41,14.89 L 22.55,15.30 L 22.52,15.27 L 22.52,14.25 L 22.46,14.25 L 21.66,14.66 L 21.63,14.63 L 21.63,13.58 L 21.57,13.58 L 20.74,14.00 L 20.71,13.96 Z" fill="#2c5a57" stroke="none" /><path d="M 15.27,28.31 L 14.41,28.72 L 14.41,29.84 L 14.47,29.84 L 15.27,29.42 Z" fill="#525c5c" stroke="none" /><path d="M 27.04,21.31 L 26.15,21.76 L 26.15,22.84 L 26.08,22.90 L 25.22,23.32 L 25.22,24.43 L 25.29,24.43 L 26.15,23.98 L 26.15,22.90 L 26.21,22.84 L 27.04,22.43 Z" fill="#525c5c" stroke="none" /><path d="M 18.89,14.31 L 18.83,14.31 L 17.97,14.76 L 17.97,15.84 L 17.91,15.90 L 17.08,16.32 L 17.08,17.43 L 17.97,16.99 L 17.97,15.90 L 18.04,15.84 L 18.89,15.43 Z" fill="#525c5c" stroke="none" /><path d="M 27.93,7.63 L 27.86,7.63 L 14.41,14.38 L 14.41,27.61 L 14.47,27.61 L 15.27,27.20 L 15.27,15.05 L 15.33,14.98 L 27.90,8.72 L 27.93,8.68 Z" fill="#525c5c" stroke="none" /><path d="M 17.08,20.26 L 16.19,20.71 L 16.19,21.82 L 17.08,21.38 L 17.11,21.41 L 17.11,22.46 L 17.18,22.46 L 18.00,22.04 L 18.00,20.93 L 17.94,20.93 L 17.15,21.34 L 17.11,21.31 L 17.11,20.26 Z" fill="#3e605e" stroke="none" /><path d="M 21.63,18.00 L 20.71,18.45 L 20.71,19.53 L 20.64,19.59 L 19.82,20.01 L 19.82,21.12 L 20.71,20.68 L 20.71,19.59 L 20.77,19.53 L 21.63,19.12 Z" fill="#3e605e" stroke="none" /><path d="M 17.08,16.95 L 16.19,17.40 L 16.19,17.88 L 17.05,17.46 L 17.08,17.50 L 17.08,18.04 L 17.11,18.04 L 17.11,17.43 L 17.08,17.40 Z" fill="#3e605e" stroke="none" /><path d="M 17.97,15.40 L 17.11,15.81 L 17.11,16.29 L 17.18,16.29 L 17.94,15.90 L 17.97,15.94 L 17.97,16.51 L 18.00,16.51 L 18.00,15.87 L 17.97,15.84 Z" fill="#3e605e" stroke="none" /><path d="M 20.68,14.03 L 19.82,14.47 L 19.82,15.59 L 20.68,15.17 L 20.71,15.20 L 20.71,16.22 L 20.77,16.22 L 21.63,15.78 L 21.63,14.70 L 21.57,14.70 L 20.74,15.11 L 20.71,15.08 L 20.71,14.03 Z" fill="#3e605e" stroke="none" /><path d="M 19.82,14.47 L 18.89,14.92 L 18.89,15.40 L 18.00,15.84 L 18.00,16.48 L 17.97,16.51 L 17.97,16.95 L 17.91,17.02 L 17.11,17.40 L 17.11,18.00 L 17.08,18.04 L 17.08,18.51 L 16.19,18.96 L 16.19,20.71 L 16.25,20.71 L 17.08,20.29 L 17.11,20.33 L 17.11,21.34 L 17.18,21.34 L 17.97,20.93 L 18.00,20.96 L 18.00,22.01 L 18.07,22.01 L 19.82,21.12 L 19.82,20.04 L 19.88,19.98 L 20.71,19.56 L 20.71,18.48 L 21.63,18.00 L 21.63,15.78 L 20.74,16.22 L 20.71,16.19 L 20.71,15.14 L 19.88,15.55 L 19.82,15.52 Z" fill="#4d6564" stroke="none" /><path d="M 19.82,15.59 L 18.00,16.48 L 18.00,17.56 L 17.94,17.62 L 17.11,18.04 L 17.11,20.26 L 17.97,19.85 L 18.00,19.88 L 18.00,20.90 L 18.07,20.90 L 19.79,20.04 L 19.82,20.01 L 19.82,18.93 L 20.71,18.48 L 20.71,16.25 L 20.64,16.25 L 19.85,16.67 L 19.82,16.64 Z" fill="#556564" stroke="none" /><path d="M 19.82,16.70 L 19.75,16.70 L 18.00,17.59 L 18.00,19.82 L 19.82,18.93 Z" fill="#5e6565" stroke="none" /><path d="M 13.55,20.55 L 13.55,21.66 L 14.35,22.08 L 14.41,22.08 L 14.41,20.96 Z" fill="#4f7075" stroke="none" /><path d="M 13.55,16.13 L 13.55,19.44 L 14.35,19.85 L 14.41,19.85 L 14.41,16.54 L 13.61,16.13 Z" fill="#4f7075" stroke="none" /><path d="M 13.52,24.49 L 13.52,25.57 L 13.55,25.57 L 13.55,24.49 Z" fill="#1c827b" stroke="none" /><path d="M 5.41,20.45 L 5.41,21.50 L 6.30,21.95 L 6.30,20.87 L 5.47,20.45 Z" fill="#1c827b" stroke="none" /><path d="M 13.52,15.01 L 13.52,15.62 L 13.55,15.62 L 13.55,15.01 Z" fill="#1c827b" stroke="none" /><path d="M 5.41,10.94 L 5.41,11.58 L 6.23,11.99 L 6.30,11.99 L 6.30,11.39 Z" fill="#1c827b" stroke="none" /><path d="M 3.59,25.54 L 3.59,26.62 L 12.56,31.11 L 12.63,31.11 L 12.63,30.06 L 12.60,30.03 Z" fill="#597c83" stroke="none" /><path d="M 1.78,24.65 L 1.78,25.70 L 2.67,26.15 L 2.67,25.07 L 1.84,24.65 Z" fill="#597c83" stroke="none" /><path d="M 13.55,21.66 L 13.55,29.42 L 14.35,29.84 L 14.41,29.84 L 14.41,22.08 Z" fill="#597c83" stroke="none" /><path d="M 13.55,19.44 L 13.55,20.55 L 14.35,20.96 L 14.41,20.96 L 14.41,19.85 Z" fill="#597c83" stroke="none" /><path d="M 13.55,20.07 L 13.52,20.07 L 13.52,22.20 L 13.46,22.23 L 12.63,21.82 L 12.63,22.87 L 12.60,22.90 L 11.77,22.49 L 11.71,22.49 L 11.71,23.54 L 11.67,23.57 L 10.88,23.16 L 10.82,23.16 L 10.82,24.21 L 10.85,24.24 L 13.46,25.54 L 13.52,25.54 L 13.52,24.52 L 13.55,24.49 Z" fill="#2f8983" stroke="none" /><path d="M 5.41,17.11 L 5.41,20.45 L 6.30,20.90 L 6.30,21.95 L 9.92,23.76 L 9.92,22.68 L 8.17,21.82 L 8.11,21.76 L 8.11,20.68 L 7.19,20.20 L 7.19,19.09 L 6.30,18.64 L 6.30,17.56 Z" fill="#2f8983" stroke="none" /><path d="M 9.92,13.20 L 9.92,13.84 L 11.71,14.73 L 11.71,15.84 L 12.56,16.25 L 12.63,16.32 L 12.63,17.40 L 13.46,17.81 L 13.52,17.88 L 13.52,18.96 L 13.55,18.96 L 13.55,15.62 L 13.52,15.59 L 13.52,14.98 Z" fill="#2f8983" stroke="none" /><path d="M 6.33,11.39 L 6.30,11.39 L 6.30,11.96 L 6.27,11.99 L 5.47,11.58 L 5.41,11.58 L 5.41,16.00 L 6.27,16.45 L 6.30,16.45 L 6.30,14.28 L 6.33,14.25 L 7.13,14.66 L 7.19,14.66 L 7.19,13.61 L 7.22,13.58 L 8.11,14.03 L 8.11,12.98 L 8.14,12.95 L 9.00,13.36 L 9.00,12.72 Z" fill="#2f8983" stroke="none" /><path d="M 13.55,29.42 L 13.55,30.47 L 13.52,30.50 L 12.63,30.06 L 12.63,31.14 L 14.35,32.00 L 14.41,32.00 L 14.41,29.84 Z" fill="#6c858b" stroke="none" /><path d="M 2.67,25.10 L 2.67,26.15 L 3.53,26.59 L 3.59,26.59 L 3.59,25.54 L 2.74,25.10 Z" fill="#6c858b" stroke="none" /><path d="M 0.00,22.65 L 0.00,24.81 L 1.78,25.70 L 1.78,24.62 L 0.89,24.17 L 0.89,23.09 Z" fill="#6c858b" stroke="none" /><path d="M 0.00,20.42 L 0.00,21.53 L 0.89,21.98 L 0.89,20.87 Z" fill="#6c858b" stroke="none" /><path d="M 13.55,13.96 L 13.55,16.13 L 14.41,16.54 L 14.41,14.38 L 13.61,13.96 Z" fill="#6c858b" stroke="none" /><path d="M 1.78,12.47 L 1.78,13.55 L 2.67,14.00 L 2.67,12.88 L 1.84,12.47 Z" fill="#6c858b" stroke="none" /><path d="M 8.11,12.91 L 8.11,13.96 L 8.08,14.00 L 7.25,13.58 L 7.19,13.58 L 7.19,14.63 L 7.16,14.66 L 6.36,14.25 L 6.30,14.25 L 6.30,16.38 L 6.23,16.41 L 5.41,16.00 L 5.41,17.11 L 6.23,17.53 L 6.30,17.59 L 6.30,18.67 L 7.19,19.12 L 7.19,20.23 L 8.05,20.64 L 8.11,20.71 L 8.11,21.79 L 9.89,22.68 L 9.92,22.71 L 9.92,23.76 L 10.82,24.21 L 10.82,23.19 L 10.85,23.16 L 11.64,23.57 L 11.71,23.57 L 11.71,22.52 L 11.74,22.49 L 12.63,22.93 L 12.63,21.88 L 12.66,21.85 L 13.52,22.27 L 13.52,20.10 L 13.55,20.07 L 13.52,17.84 L 12.69,17.43 L 12.63,17.37 L 12.63,16.29 L 11.71,15.81 L 11.71,14.70 L 9.96,13.84 L 9.92,13.81 L 9.92,13.20 L 9.07,12.76 L 9.00,12.76 L 9.00,13.30 L 8.97,13.33 Z" fill="#47928d" stroke="none" /><path d="M 11.80,26.31 L 11.74,26.31 L 11.74,27.36 L 11.71,27.39 L 10.91,26.97 L 10.85,26.97 L 10.85,28.09 L 11.67,28.50 L 11.74,28.50 L 11.74,27.45 L 11.77,27.42 L 12.56,27.83 L 12.63,27.83 L 12.63,26.72 Z" fill="#859695" stroke="none" /><path d="M 0.00,21.53 L 0.00,22.65 L 0.89,23.09 L 0.89,21.98 Z" fill="#859695" stroke="none" /><path d="M 3.63,11.13 L 3.59,11.13 L 3.59,12.18 L 3.56,12.21 L 2.74,11.80 L 2.67,11.80 L 2.67,12.91 L 3.56,13.36 L 3.59,13.36 L 3.59,12.31 L 3.63,12.28 L 4.49,12.69 L 4.49,11.58 Z" fill="#859695" stroke="none" /><path d="M 0.00,7.19 L 0.00,20.42 L 0.03,20.45 L 0.89,20.87 L 0.89,8.75 L 0.92,8.72 L 13.55,15.01 L 13.55,13.93 L 0.06,7.19 Z" fill="#859695" stroke="none" /><path d="M 11.74,20.26 L 11.71,20.26 L 11.71,21.31 L 11.67,21.34 L 10.88,20.93 L 10.82,20.93 L 10.82,22.04 L 11.64,22.46 L 11.71,22.46 L 11.71,21.41 L 11.74,21.38 L 12.63,21.82 L 12.63,20.71 Z" fill="#649b98" stroke="none" /><path d="M 7.19,18.00 L 7.19,19.12 L 8.05,19.53 L 8.11,19.59 L 8.11,20.68 L 9.00,21.12 L 9.00,20.01 L 8.17,19.59 L 8.11,19.53 L 8.11,18.45 Z" fill="#649b98" stroke="none" /><path d="M 10.82,15.40 L 10.82,16.51 L 11.71,16.95 L 11.71,18.04 L 12.56,18.48 L 12.63,18.48 L 12.63,17.40 L 11.71,16.92 L 11.71,15.81 L 10.88,15.40 Z" fill="#649b98" stroke="none" /><path d="M 8.14,14.03 L 8.11,14.03 L 8.11,15.08 L 8.08,15.11 L 7.25,14.70 L 7.19,14.70 L 7.19,15.78 L 8.05,16.22 L 8.11,16.22 L 8.11,15.20 L 8.14,15.17 L 9.00,15.59 L 9.00,14.47 Z" fill="#649b98" stroke="none" /><path d="M 9.00,14.47 L 9.00,15.52 L 8.94,15.55 L 8.11,15.14 L 8.11,16.19 L 8.08,16.22 L 7.19,15.78 L 7.19,18.00 L 8.11,18.48 L 8.11,19.56 L 8.94,19.98 L 9.00,20.04 L 9.00,21.12 L 10.75,22.01 L 10.82,22.01 L 10.82,20.96 L 10.85,20.93 L 11.64,21.34 L 11.71,21.34 L 11.71,20.33 L 11.74,20.29 L 12.56,20.71 L 12.63,20.71 L 12.63,18.48 L 11.77,18.07 L 11.71,18.00 L 11.71,16.92 L 10.82,16.48 L 10.82,15.36 Z" fill="#7ea4a3" stroke="none" /><path d="M 9.00,15.59 L 9.00,16.64 L 8.97,16.67 L 8.17,16.25 L 8.11,16.25 L 8.11,18.48 L 9.00,18.93 L 9.00,20.01 L 9.03,20.04 L 10.75,20.90 L 10.82,20.90 L 10.82,19.88 L 10.85,19.85 L 11.71,20.26 L 11.71,18.04 L 10.88,17.62 L 10.82,17.56 L 10.82,16.48 Z" fill="#89a4a3" stroke="none" /><path d="M 9.00,16.70 L 9.00,18.93 L 10.82,19.82 L 10.82,17.59 L 9.07,16.70 Z" fill="#99a4a4" stroke="none" /><path d="M 9.92,12.12 L 9.92,12.15 L 12.60,13.49 L 12.69,13.49 L 13.49,13.07 L 13.49,13.04 L 10.82,11.71 L 10.75,11.71 Z" fill="#7aacb5" stroke="none" /><path d="M 8.14,11.23 L 8.14,11.26 L 8.97,11.67 L 9.10,11.67 L 9.86,11.29 L 9.86,11.23 L 9.03,10.82 L 8.94,10.82 Z" fill="#7aacb5" stroke="none" /><path d="M 13.93,13.23 L 13.93,13.30 L 14.38,13.52 L 14.44,13.52 L 14.89,13.30 L 14.89,13.23 L 14.44,13.01 L 14.38,13.01 Z" fill="#2ac9be" stroke="none" /><path d="M 23.03,9.19 L 22.52,8.94 L 21.69,9.35 L 21.66,9.42 L 22.11,9.64 L 22.20,9.64 L 23.03,9.22 Z" fill="#2ac9be" stroke="none" /><path d="M 5.79,9.19 L 5.79,9.22 L 6.62,9.64 L 6.71,9.64 L 7.16,9.42 L 7.13,9.35 L 6.30,8.94 Z" fill="#2ac9be" stroke="none" /><path d="M 13.52,5.31 L 13.52,5.34 L 14.35,5.76 L 14.47,5.76 L 15.30,5.34 L 15.30,5.31 L 14.47,4.90 L 14.35,4.90 Z" fill="#2ac9be" stroke="none" /><path d="M 18.51,11.42 L 18.07,11.20 L 18.00,11.20 L 16.25,12.09 L 16.19,12.09 L 15.33,11.64 L 14.44,12.09 L 14.38,12.09 L 13.52,11.64 L 12.63,12.09 L 12.56,12.09 L 11.71,11.64 L 11.23,11.86 L 11.20,11.93 L 13.87,13.26 L 13.93,13.26 L 14.41,13.01 L 14.89,13.26 L 14.95,13.26 L 18.51,11.48 Z" fill="#48d2ca" stroke="none" /><path d="M 6.30,8.94 L 6.30,8.97 L 7.13,9.38 L 7.06,9.45 L 6.71,9.61 L 6.68,9.67 L 10.24,11.45 L 10.31,11.45 L 10.75,11.23 L 10.75,11.17 L 9.03,10.31 L 9.07,10.24 L 9.86,9.86 L 9.83,9.80 L 9.10,9.45 L 9.03,9.38 L 9.86,8.97 L 9.86,8.91 L 9.03,8.49 L 9.10,8.43 L 9.89,8.05 L 9.89,8.02 L 9.07,7.60 L 8.94,7.60 Z" fill="#48d2ca" stroke="none" /><path d="M 18.04,7.57 L 18.04,7.60 L 19.72,8.43 L 19.79,8.49 L 18.96,8.91 L 18.96,8.97 L 19.79,9.38 L 19.72,9.45 L 18.96,9.83 L 18.96,9.86 L 19.79,10.27 L 19.75,10.34 L 18.96,10.72 L 18.99,10.78 L 19.44,11.01 L 22.14,9.67 L 22.11,9.61 L 21.76,9.45 L 21.69,9.38 L 22.52,8.97 L 22.49,8.91 L 18.93,7.13 Z" fill="#48d2ca" stroke="none" /><path d="M 9.92,7.16 L 10.75,7.57 L 10.85,7.57 L 12.60,6.68 L 13.46,7.13 L 13.55,7.13 L 14.41,6.68 L 15.27,7.13 L 15.33,7.13 L 15.49,7.03 L 15.55,7.03 L 16.22,6.68 L 17.08,7.13 L 17.15,7.13 L 17.97,6.71 L 17.97,6.65 L 15.36,5.34 L 15.24,5.34 L 14.44,5.76 L 14.38,5.76 L 13.58,5.34 L 13.46,5.34 L 9.96,7.09 Z" fill="#48d2ca" stroke="none" /><path d="M 9.03,11.67 L 9.03,11.71 L 9.86,12.12 L 9.99,12.12 L 10.75,11.74 L 10.75,11.67 L 9.92,11.26 L 9.86,11.26 Z" fill="#89bfcb" stroke="none" /><path d="M 1.78,8.05 L 1.78,8.08 L 8.08,11.23 L 8.17,11.23 L 8.97,10.82 L 8.97,10.78 L 2.67,7.63 L 2.61,7.63 Z" fill="#89bfcb" stroke="none" /><path d="M 11.67,2.19 L 10.88,1.78 L 10.78,1.78 L 1.81,6.27 L 1.81,6.33 L 2.58,6.71 L 2.70,6.71 L 11.67,2.23 Z" fill="#89bfcb" stroke="none" /><path d="M 13.49,1.27 L 12.63,0.86 L 11.74,1.30 L 11.74,1.34 L 12.56,1.75 L 12.63,1.75 L 13.46,1.34 Z" fill="#89bfcb" stroke="none" /><path d="M 12.66,13.49 L 12.66,13.52 L 14.38,14.38 L 14.44,14.38 L 15.27,13.96 L 15.27,13.93 L 13.55,13.07 L 13.46,13.07 Z" fill="#a6ced6" stroke="none" /><path d="M 2.64,6.71 L 1.81,6.30 L 1.75,6.30 L 0.03,7.16 L 0.03,7.19 L 1.72,8.05 L 1.84,8.05 L 2.61,7.67 L 2.61,7.60 L 1.78,7.19 L 1.84,7.13 L 2.64,6.74 Z" fill="#a6ced6" stroke="none" /><path d="M 21.66,6.27 L 21.66,6.30 L 22.49,6.71 L 22.62,6.71 L 23.44,6.30 L 23.41,6.23 L 22.58,5.82 L 22.52,5.82 Z" fill="#a6ced6" stroke="none" /><path d="M 16.25,1.72 L 16.25,1.78 L 17.08,2.19 L 17.18,2.19 L 17.97,1.78 L 17.97,1.75 L 17.15,1.34 L 17.02,1.34 Z" fill="#a6ced6" stroke="none" /><path d="M 10.85,1.75 L 10.88,1.81 L 11.64,2.19 L 11.74,2.19 L 12.56,1.78 L 12.56,1.72 L 11.80,1.34 L 11.67,1.34 Z" fill="#a6ced6" stroke="none" /><path d="M 12.66,0.86 L 12.66,0.89 L 13.49,1.30 L 14.38,0.86 L 14.44,0.86 L 15.30,1.30 L 16.16,0.89 L 16.13,0.83 L 14.47,0.00 L 14.35,0.00 Z" fill="#a6ced6" stroke="none" /><path d="M 9.00,7.57 L 9.00,7.60 L 9.83,8.02 L 9.80,8.08 L 9.00,8.46 L 9.00,8.49 L 9.86,8.94 L 9.00,9.38 L 9.00,9.42 L 9.83,9.83 L 9.77,9.89 L 8.97,10.27 L 8.97,10.31 L 10.72,11.17 L 10.75,11.20 L 10.72,11.23 L 10.31,11.42 L 10.31,11.48 L 11.13,11.90 L 11.23,11.90 L 11.64,11.67 L 11.74,11.67 L 12.53,12.09 L 12.66,12.09 L 13.46,11.67 L 13.55,11.67 L 14.35,12.09 L 14.47,12.09 L 15.27,11.67 L 15.36,11.67 L 16.16,12.09 L 16.29,12.09 L 18.04,11.20 L 18.51,11.45 L 18.58,11.45 L 19.44,11.01 L 19.44,10.97 L 19.02,10.78 L 18.99,10.75 L 19.05,10.69 L 19.85,10.31 L 19.85,10.27 L 19.05,9.89 L 18.99,9.83 L 19.82,9.42 L 19.82,9.38 L 18.96,8.94 L 19.79,8.52 L 19.82,8.46 L 18.13,7.63 L 18.07,7.57 L 18.10,7.54 L 18.89,7.16 L 18.89,7.13 L 18.04,6.68 L 17.97,6.68 L 17.11,7.13 L 16.25,6.68 L 16.19,6.68 L 15.52,7.03 L 15.46,7.03 L 15.33,7.09 L 15.33,7.16 L 18.86,8.91 L 18.89,8.94 L 18.86,8.97 L 18.07,9.35 L 18.07,9.42 L 18.89,9.83 L 18.83,9.89 L 15.33,11.64 L 14.44,11.20 L 14.38,11.20 L 13.49,11.64 L 9.99,9.89 L 9.92,9.83 L 10.75,9.42 L 10.75,9.35 L 9.96,8.97 L 9.92,8.94 L 9.96,8.91 L 13.46,7.16 L 13.65,7.19 L 14.38,7.57 L 14.44,7.57 L 15.27,7.16 L 15.27,7.09 L 14.44,6.68 L 14.38,6.68 L 13.49,7.13 L 12.63,6.68 L 12.56,6.68 L 10.82,7.57 L 9.92,7.13 Z" fill="#6ee0d9" stroke="none" /><path d="M 22.49,6.74 L 21.66,7.16 L 21.69,7.22 L 22.52,7.63 L 21.69,8.05 L 21.66,8.11 L 22.49,8.52 L 22.62,8.52 L 23.44,8.11 L 23.41,8.05 L 22.58,7.63 L 23.41,7.22 L 23.44,7.16 L 22.62,6.74 Z" fill="#cee7e6" stroke="none" /><path d="M 5.34,6.27 L 4.45,6.71 L 4.45,6.74 L 5.25,7.13 L 5.31,7.19 L 4.49,7.60 L 4.49,7.67 L 5.31,8.08 L 5.41,8.08 L 6.23,7.67 L 6.23,7.60 L 5.41,7.19 L 5.47,7.13 L 6.27,6.74 L 6.27,6.71 Z" fill="#cee7e6" stroke="none" /><path d="M 28.79,7.16 L 18.04,1.78 L 17.94,1.78 L 17.18,2.16 L 17.15,2.23 L 26.97,7.13 L 27.04,7.19 L 14.44,13.49 L 14.44,13.55 L 15.20,13.93 L 15.33,13.93 L 28.76,7.22 Z" fill="#cee7e6" stroke="none" /><path d="M 15.33,1.27 L 15.36,1.34 L 16.19,1.75 L 16.25,1.75 L 17.08,1.34 L 17.08,1.30 L 16.19,0.86 Z" fill="#cee7e6" stroke="none" /><path d="M 14.44,11.17 L 14.44,11.23 L 15.27,11.64 L 15.36,11.64 L 16.19,11.23 L 16.19,11.17 L 15.36,10.75 L 15.27,10.75 Z" fill="#9aefea" stroke="none" /><path d="M 12.63,11.17 L 12.63,11.23 L 13.46,11.64 L 13.55,11.64 L 14.38,11.23 L 14.38,11.17 L 13.55,10.75 L 13.46,10.75 Z" fill="#9aefea" stroke="none" /><path d="M 17.97,8.49 L 17.15,8.91 L 17.18,8.97 L 18.00,9.38 L 17.18,9.80 L 17.15,9.86 L 17.97,10.27 L 18.10,10.27 L 18.93,9.86 L 18.89,9.80 L 18.07,9.38 L 18.89,8.97 L 18.89,8.91 L 18.07,8.49 Z" fill="#9aefea" stroke="none" /><path d="M 10.75,8.49 L 9.92,8.91 L 9.92,8.97 L 10.75,9.38 L 9.92,9.80 L 9.89,9.86 L 10.72,10.27 L 10.85,10.27 L 11.67,9.86 L 11.64,9.80 L 10.82,9.38 L 11.64,8.97 L 11.67,8.91 L 10.85,8.49 Z" fill="#9aefea" stroke="none" /><path d="M 14.44,7.54 L 14.44,7.60 L 15.27,8.02 L 15.36,8.02 L 16.19,7.60 L 16.16,7.54 L 15.33,7.13 L 15.27,7.13 Z" fill="#9aefea" stroke="none" /><path d="M 12.63,7.57 L 12.63,7.60 L 13.46,8.02 L 13.55,8.02 L 14.38,7.60 L 14.38,7.54 L 13.68,7.19 L 13.61,7.19 L 13.52,7.13 Z" fill="#9aefea" stroke="none" /><path d="M 10.82,8.46 L 10.85,8.52 L 11.58,8.87 L 11.64,8.94 L 10.82,9.35 L 10.82,9.42 L 11.64,9.83 L 11.58,9.89 L 10.78,10.27 L 10.78,10.31 L 12.56,11.20 L 12.63,11.20 L 13.49,10.75 L 14.38,11.20 L 14.44,11.20 L 15.30,10.75 L 16.19,11.20 L 16.25,11.20 L 18.04,10.31 L 18.04,10.27 L 17.24,9.89 L 17.18,9.83 L 18.00,9.42 L 18.00,9.35 L 17.18,8.94 L 17.24,8.87 L 17.97,8.52 L 18.00,8.46 L 16.22,7.57 L 15.33,8.02 L 14.44,7.57 L 14.38,7.57 L 13.52,8.02 L 12.60,7.57 Z" fill="#c2fcfb" stroke="none" /><path d="M 11.71,8.91 L 11.74,8.97 L 12.56,9.38 L 11.74,9.80 L 11.71,9.86 L 13.49,10.75 L 14.38,10.31 L 14.44,10.31 L 15.33,10.75 L 17.11,9.86 L 17.08,9.80 L 16.25,9.38 L 17.08,8.97 L 17.11,8.91 L 15.33,8.02 L 14.44,8.46 L 14.38,8.46 L 13.49,8.02 Z" fill="#d3fcfb" stroke="none" /><path d="M 12.63,9.35 L 12.63,9.42 L 14.35,10.27 L 14.47,10.27 L 16.19,9.42 L 16.19,9.35 L 14.47,8.49 L 14.35,8.49 Z" fill="#ebfcfc" stroke="none" /></svg>