<svg height="32" width="32" viewBox="0 0 32 32"><defs /><path d="M 16.19,30.06 L 14.41,30.95 L 14.41,32.00 L 14.47,32.00 L 16.19,31.14 Z" fill="#292011" stroke="none" /><path d="M 17.97,29.17 L 17.08,29.61 L 17.08,30.66 L 17.15,30.66 L 17.97,30.25 Z" fill="#292011" stroke="none" /><path d="M 15.27,28.31 L 14.41,28.72 L 14.41,29.84 L 14.47,29.84 L 15.27,29.42 Z" fill="#292011" stroke="none" /><path d="M 23.41,26.47 L 23.35,26.47 L 19.79,28.25 L 19.79,29.33 L 23.38,27.55 L 23.41,27.51 Z" fill="#292011" stroke="none" /><path d="M 26.15,25.10 L 26.08,25.10 L 25.22,25.54 L 25.22,26.59 L 25.29,26.59 L 26.15,26.15 Z" fill="#292011" stroke="none" /><path d="M 15.27,23.89 L 15.20,23.89 L 14.41,24.30 L 14.41,25.42 L 15.27,25.00 Z" fill="#292011" stroke="none" /><path d="M 28.82,23.76 L 28.76,23.76 L 27.04,24.62 L 27.04,25.70 L 28.82,24.81 Z" fill="#292011" stroke="none" /><path d="M 28.82,21.53 L 27.93,21.98 L 27.93,23.09 L 28.82,22.65 Z" fill="#292011" stroke="none" /><path d="M 23.41,20.93 L 23.35,20.93 L 19.79,22.71 L 19.79,23.83 L 19.85,23.83 L 23.41,22.04 Z" fill="#292011" stroke="none" /><path d="M 28.82,17.11 L 28.76,17.11 L 27.93,17.53 L 27.93,19.75 L 27.99,19.75 L 28.82,19.34 Z" fill="#292011" stroke="none" /><path d="M 16.19,16.76 L 14.41,17.65 L 14.41,20.96 L 14.47,20.96 L 15.27,20.55 L 15.27,18.35 L 16.19,17.88 Z" fill="#292011" stroke="none" /><path d="M 19.79,14.98 L 19.72,14.98 L 17.11,16.29 L 17.08,16.32 L 17.08,17.43 L 19.79,16.10 Z" fill="#292011" stroke="none" /><path d="M 23.41,13.17 L 23.35,13.17 L 21.60,14.06 L 21.60,15.17 L 23.41,14.28 Z" fill="#292011" stroke="none" /><path d="M 28.82,10.47 L 28.76,10.47 L 25.26,12.21 L 25.22,12.25 L 25.22,13.36 L 27.90,12.02 L 27.93,12.06 L 27.93,14.22 L 28.79,13.81 L 28.82,13.77 Z" fill="#292011" stroke="none" /><path d="M 17.08,29.61 L 16.19,30.06 L 16.19,31.11 L 16.25,31.11 L 17.08,30.70 Z" fill="#322716" stroke="none" /><path d="M 15.27,29.42 L 14.41,29.84 L 14.41,30.95 L 15.27,30.54 Z" fill="#322716" stroke="none" /><path d="M 19.79,28.28 L 19.72,28.28 L 17.97,29.17 L 17.97,30.22 L 18.04,30.22 L 19.79,29.33 Z" fill="#322716" stroke="none" /><path d="M 25.22,25.54 L 23.41,26.43 L 23.41,27.51 L 25.22,26.62 Z" fill="#322716" stroke="none" /><path d="M 15.27,25.00 L 15.20,25.00 L 14.41,25.42 L 14.41,28.72 L 14.47,28.72 L 15.27,28.31 Z" fill="#322716" stroke="none" /><path d="M 27.04,24.65 L 26.97,24.65 L 26.15,25.07 L 26.15,26.15 L 27.04,25.70 Z" fill="#322716" stroke="none" /><path d="M 28.82,22.65 L 27.93,23.09 L 27.93,24.17 L 27.99,24.17 L 28.82,23.76 Z" fill="#322716" stroke="none" /><path d="M 15.27,20.55 L 14.41,20.96 L 14.41,24.30 L 15.27,23.89 Z" fill="#322716" stroke="none" /><path d="M 28.82,19.34 L 28.76,19.34 L 27.93,19.75 L 27.93,21.98 L 28.82,21.53 Z" fill="#322716" stroke="none" /><path d="M 17.08,16.32 L 16.19,16.76 L 16.19,17.88 L 17.08,17.43 Z" fill="#322716" stroke="none" /><path d="M 21.60,14.06 L 19.79,14.95 L 19.79,16.06 L 19.85,16.06 L 21.60,15.17 Z" fill="#322716" stroke="none" /><path d="M 28.82,13.77 L 27.93,14.22 L 27.93,17.53 L 27.99,17.53 L 28.82,17.11 Z" fill="#322716" stroke="none" /><path d="M 25.22,12.25 L 23.41,13.14 L 23.41,14.25 L 23.48,14.25 L 25.22,13.36 Z" fill="#322716" stroke="none" /><path d="M 21.60,26.27 L 21.53,26.27 L 20.71,26.69 L 20.71,27.80 L 21.60,27.36 Z" fill="#3b2e1a" stroke="none" /><path d="M 16.19,23.41 L 15.27,23.86 L 15.27,24.97 L 15.33,24.97 L 16.19,24.52 Z" fill="#3b2e1a" stroke="none" /><path d="M 19.79,22.74 L 19.72,22.74 L 18.89,23.16 L 18.89,24.27 L 18.96,24.27 L 19.79,23.86 Z" fill="#3b2e1a" stroke="none" /><path d="M 24.33,20.45 L 23.41,20.90 L 23.41,22.01 L 23.48,22.01 L 24.33,21.57 Z" fill="#3b2e1a" stroke="none" /><path d="M 27.93,17.56 L 27.86,17.56 L 27.04,17.97 L 27.04,19.09 L 27.10,19.09 L 27.93,18.67 Z" fill="#3b2e1a" stroke="none" /><path d="M 15.27,15.01 L 14.41,15.43 L 14.41,17.65 L 15.27,17.24 Z" fill="#3b2e1a" stroke="none" /><path d="M 27.93,12.02 L 27.86,12.02 L 15.27,18.32 L 15.27,20.55 L 17.05,19.66 L 17.08,19.69 L 17.08,20.74 L 17.15,20.74 L 17.97,20.33 L 17.97,19.21 L 18.00,19.18 L 27.90,14.25 L 27.93,14.22 Z" fill="#3b2e1a" stroke="none" /><path d="M 28.82,8.24 L 27.93,8.68 L 27.93,10.88 L 27.99,10.88 L 28.82,10.47 Z" fill="#3b2e1a" stroke="none" /><path d="M 12.63,30.06 L 12.63,31.14 L 14.35,32.00 L 14.41,32.00 L 14.41,30.95 Z" fill="#42331c" stroke="none" /><path d="M 10.85,29.17 L 10.85,30.25 L 11.67,30.66 L 11.74,30.66 L 11.74,29.61 Z" fill="#42331c" stroke="none" /><path d="M 13.55,28.31 L 13.55,29.42 L 14.35,29.84 L 14.41,29.84 L 14.41,28.72 Z" fill="#42331c" stroke="none" /><path d="M 5.41,26.47 L 5.41,27.51 L 5.44,27.55 L 9.03,29.33 L 9.03,28.25 L 5.47,26.47 Z" fill="#42331c" stroke="none" /><path d="M 2.67,25.10 L 2.67,26.15 L 3.53,26.59 L 3.59,26.59 L 3.59,25.54 L 2.74,25.10 Z" fill="#42331c" stroke="none" /><path d="M 13.55,23.89 L 13.55,26.12 L 14.41,26.53 L 14.41,24.30 L 13.61,23.89 Z" fill="#42331c" stroke="none" /><path d="M 0.00,23.76 L 0.00,24.81 L 1.78,25.70 L 1.78,24.62 L 0.06,23.76 Z" fill="#42331c" stroke="none" /><path d="M 0.00,21.53 L 0.00,22.65 L 0.89,23.09 L 0.89,21.98 Z" fill="#42331c" stroke="none" /><path d="M 0.00,17.11 L 0.00,18.23 L 0.83,18.64 L 0.89,18.64 L 0.89,17.53 L 0.06,17.11 Z" fill="#42331c" stroke="none" /><path d="M 10.85,15.87 L 10.85,16.99 L 10.88,17.02 L 13.55,18.35 L 13.55,20.55 L 14.35,20.96 L 14.41,20.96 L 14.41,17.65 Z" fill="#42331c" stroke="none" /><path d="M 7.22,14.06 L 7.22,15.17 L 8.97,16.06 L 9.03,16.06 L 9.03,14.95 Z" fill="#42331c" stroke="none" /><path d="M 2.67,11.80 L 2.67,12.91 L 5.34,14.25 L 5.41,14.25 L 5.41,13.14 L 2.74,11.80 Z" fill="#42331c" stroke="none" /><path d="M 0.00,10.47 L 0.00,13.77 L 0.89,14.22 L 0.89,12.06 L 0.92,12.02 L 1.72,12.44 L 1.78,12.44 L 1.78,11.32 L 0.06,10.47 Z" fill="#42331c" stroke="none" /><path d="M 27.93,19.79 L 27.86,19.79 L 15.27,26.08 L 15.27,27.20 L 20.68,24.49 L 20.71,24.52 L 20.71,26.69 L 20.77,26.69 L 21.60,26.27 L 21.60,24.05 L 27.90,20.90 L 27.93,20.87 Z" fill="#3f341e" stroke="none" /><path d="M 26.15,15.11 L 25.22,15.55 L 25.22,18.86 L 25.16,18.93 L 18.04,22.49 L 17.97,22.46 L 17.97,20.33 L 17.91,20.33 L 17.08,20.74 L 17.08,22.93 L 17.02,23.00 L 16.19,23.41 L 16.19,24.52 L 27.04,19.12 L 27.04,18.00 L 26.97,18.00 L 26.18,18.42 L 26.15,18.39 Z" fill="#3f341e" stroke="none" /><path d="M 17.08,28.53 L 17.02,28.53 L 15.27,29.42 L 15.27,30.50 L 15.33,30.50 L 17.08,29.61 Z" fill="#453822" stroke="none" /><path d="M 20.71,25.61 L 20.64,25.61 L 18.89,26.50 L 18.89,27.61 L 19.75,27.20 L 19.79,27.23 L 19.79,28.25 L 19.85,28.25 L 20.71,27.80 Z" fill="#453822" stroke="none" /><path d="M 27.93,23.09 L 27.07,23.51 L 27.04,23.48 L 27.04,22.43 L 26.18,22.84 L 26.15,22.87 L 26.15,23.95 L 26.08,24.02 L 22.52,25.80 L 22.52,26.88 L 22.58,26.88 L 27.93,24.21 Z" fill="#453822" stroke="none" /><path d="M 24.33,16.03 L 24.27,16.03 L 17.97,19.18 L 17.97,21.41 L 18.04,21.41 L 19.79,20.52 L 19.79,19.44 L 19.85,19.37 L 24.33,17.15 Z" fill="#453822" stroke="none" /><path d="M 19.79,13.87 L 19.72,13.87 L 18.93,14.28 L 18.89,14.25 L 18.89,13.20 L 18.86,13.20 L 16.19,14.54 L 16.19,15.65 L 17.05,15.24 L 17.08,15.27 L 17.08,16.32 L 17.11,16.32 L 19.79,14.98 Z" fill="#453822" stroke="none" /><path d="M 27.04,9.13 L 24.33,10.47 L 24.33,11.55 L 24.27,11.61 L 23.41,12.02 L 23.41,13.14 L 23.48,13.14 L 25.22,12.25 L 25.22,11.17 L 25.29,11.10 L 27.04,10.24 Z" fill="#453822" stroke="none" /><path d="M 11.74,29.61 L 11.74,30.70 L 12.56,31.11 L 12.63,31.11 L 12.63,30.06 Z" fill="#513f23" stroke="none" /><path d="M 13.55,29.42 L 13.55,30.54 L 14.41,30.95 L 14.41,29.84 Z" fill="#513f23" stroke="none" /><path d="M 9.03,28.28 L 9.03,29.33 L 10.78,30.22 L 10.85,30.22 L 10.85,29.17 L 9.10,28.28 Z" fill="#513f23" stroke="none" /><path d="M 13.55,26.12 L 13.55,28.31 L 14.35,28.72 L 14.41,28.72 L 14.41,26.53 L 13.61,26.12 Z" fill="#513f23" stroke="none" /><path d="M 3.59,25.54 L 3.59,26.62 L 5.41,27.51 L 5.41,26.43 Z" fill="#513f23" stroke="none" /><path d="M 1.78,24.65 L 1.78,25.70 L 2.67,26.15 L 2.67,25.07 L 1.84,24.65 Z" fill="#513f23" stroke="none" /><path d="M 0.00,22.65 L 0.00,23.76 L 0.83,24.17 L 0.89,24.17 L 0.89,23.09 Z" fill="#513f23" stroke="none" /><path d="M 13.55,20.55 L 13.55,23.89 L 14.41,24.30 L 14.41,20.96 Z" fill="#513f23" stroke="none" /><path d="M 0.00,18.23 L 0.00,21.53 L 0.89,21.98 L 0.89,18.64 L 0.06,18.23 Z" fill="#513f23" stroke="none" /><path d="M 9.03,14.98 L 9.03,16.10 L 10.85,16.99 L 10.85,15.87 L 9.10,14.98 Z" fill="#513f23" stroke="none" /><path d="M 0.00,13.77 L 0.00,17.11 L 0.83,17.53 L 0.89,17.53 L 0.89,14.22 Z" fill="#513f23" stroke="none" /><path d="M 5.41,13.17 L 5.41,14.28 L 7.22,15.17 L 7.22,14.06 L 5.47,13.17 Z" fill="#513f23" stroke="none" /><path d="M 1.78,11.36 L 1.78,12.47 L 2.61,12.88 L 2.67,12.88 L 2.67,11.77 L 1.84,11.36 Z" fill="#513f23" stroke="none" /><path d="M 6.30,25.80 L 6.30,26.91 L 7.22,27.36 L 7.22,26.24 Z" fill="#584324" stroke="none" /><path d="M 12.63,25.64 L 12.63,26.75 L 13.55,27.20 L 13.55,26.08 Z" fill="#584324" stroke="none" /><path d="M 0.89,19.79 L 0.89,20.87 L 1.78,21.31 L 1.78,20.20 L 0.95,19.79 Z" fill="#584324" stroke="none" /><path d="M 2.67,17.34 L 2.67,18.45 L 3.59,18.89 L 3.59,17.78 Z" fill="#584324" stroke="none" /><path d="M 13.55,15.01 L 13.55,17.24 L 14.41,17.65 L 14.41,15.43 Z" fill="#584324" stroke="none" /><path d="M 0.89,12.02 L 0.89,14.22 L 6.23,16.89 L 6.30,16.95 L 6.30,18.04 L 6.33,18.07 L 7.16,18.48 L 7.22,18.48 L 7.22,17.43 L 7.25,17.40 L 13.55,20.55 L 13.55,18.32 L 0.95,12.02 Z" fill="#584324" stroke="none" /><path d="M 0.00,8.24 L 0.00,10.47 L 0.83,10.88 L 0.89,10.88 L 0.89,8.68 Z" fill="#584324" stroke="none" /><path d="M 19.79,27.17 L 18.93,27.58 L 18.89,27.55 L 18.89,26.50 L 18.86,26.50 L 16.19,27.83 L 16.19,28.95 L 16.25,28.95 L 17.05,28.53 L 17.08,28.56 L 17.08,29.61 L 17.11,29.61 L 19.79,28.28 Z" fill="#493a26" stroke="none" /><path d="M 16.19,24.52 L 15.27,24.97 L 15.27,26.08 L 15.33,26.08 L 16.19,25.64 Z" fill="#493a26" stroke="none" /><path d="M 26.15,22.87 L 21.60,25.13 L 21.60,27.36 L 22.52,26.91 L 22.52,25.83 L 22.58,25.77 L 26.12,24.02 L 26.15,23.98 Z" fill="#493a26" stroke="none" /><path d="M 17.08,19.66 L 17.02,19.66 L 15.27,20.55 L 15.27,21.66 L 16.16,21.22 L 16.19,21.25 L 16.19,22.30 L 15.27,22.78 L 15.27,23.86 L 15.33,23.86 L 17.08,22.97 Z" fill="#493a26" stroke="none" /><path d="M 27.93,18.67 L 27.86,18.67 L 27.04,19.09 L 27.04,20.20 L 27.10,20.20 L 27.93,19.79 Z" fill="#493a26" stroke="none" /><path d="M 23.41,17.59 L 19.82,19.37 L 19.79,19.40 L 19.79,20.49 L 19.72,20.55 L 17.97,21.41 L 17.97,22.52 L 21.57,20.74 L 21.60,20.71 L 21.60,19.63 L 23.41,18.70 Z" fill="#493a26" stroke="none" /><path d="M 25.22,15.59 L 25.16,15.59 L 24.33,16.00 L 24.33,17.11 L 24.40,17.11 L 25.22,16.70 Z" fill="#493a26" stroke="none" /><path d="M 27.93,14.22 L 26.15,15.11 L 26.15,18.42 L 26.21,18.42 L 27.93,17.56 L 27.93,16.45 L 27.10,16.86 L 27.04,16.83 L 27.04,15.81 L 27.10,15.75 L 27.93,15.33 Z" fill="#493a26" stroke="none" /><path d="M 15.20,13.96 L 14.41,14.38 L 14.41,15.43 L 14.47,15.43 L 15.20,15.05 L 15.27,15.08 L 15.27,17.21 L 15.33,17.21 L 17.08,16.32 L 17.08,15.20 L 16.22,15.62 L 16.19,15.59 L 16.19,14.57 L 16.13,14.57 L 15.30,14.98 L 15.27,14.95 L 15.27,13.96 Z" fill="#493a26" stroke="none" /><path d="M 24.33,10.50 L 24.27,10.50 L 18.93,13.17 L 18.89,13.20 L 18.89,14.28 L 18.96,14.28 L 19.75,13.87 L 19.79,13.90 L 19.79,14.95 L 19.85,14.95 L 23.41,13.17 L 23.41,12.06 L 24.33,11.58 Z" fill="#493a26" stroke="none" /><path d="M 28.82,7.19 L 28.76,7.19 L 27.93,7.60 L 27.93,8.65 L 27.86,8.72 L 27.04,9.13 L 27.04,10.21 L 25.22,11.13 L 25.22,12.25 L 27.93,10.91 L 27.93,8.72 L 27.99,8.65 L 28.82,8.24 Z" fill="#493a26" stroke="none" /><path d="M 20.71,24.49 L 20.64,24.49 L 15.30,27.17 L 15.27,27.20 L 15.27,28.31 L 20.71,25.61 Z" fill="#4d3e27" stroke="none" /><path d="M 18.89,23.19 L 18.83,23.19 L 16.22,24.49 L 16.19,24.52 L 16.19,25.64 L 18.89,24.30 Z" fill="#4d3e27" stroke="none" /><path d="M 27.93,20.87 L 21.60,24.02 L 21.60,25.13 L 21.66,25.13 L 27.90,22.01 L 27.93,21.98 Z" fill="#4d3e27" stroke="none" /><path d="M 27.04,19.12 L 26.97,19.12 L 24.37,20.42 L 24.33,20.45 L 24.33,21.57 L 27.04,20.23 Z" fill="#4d3e27" stroke="none" /><path d="M 25.22,16.70 L 25.16,16.70 L 23.41,17.59 L 23.41,18.67 L 23.35,18.74 L 21.60,19.59 L 21.60,20.71 L 25.22,18.89 Z" fill="#4d3e27" stroke="none" /><path d="M 27.93,7.63 L 27.86,7.63 L 15.27,13.93 L 15.27,15.01 L 27.90,8.72 L 27.93,8.68 Z" fill="#4d3e27" stroke="none" /><path d="M 0.89,15.33 L 0.89,16.45 L 0.92,16.48 L 10.85,21.44 L 10.85,24.68 L 10.78,24.72 L 3.66,21.15 L 3.59,21.09 L 3.59,18.89 L 2.74,18.45 L 2.67,18.45 L 2.67,20.61 L 2.64,20.64 L 1.84,20.23 L 1.78,20.23 L 1.78,21.31 L 6.23,23.54 L 6.30,23.60 L 6.30,25.80 L 6.33,25.83 L 7.16,26.24 L 7.22,26.24 L 7.22,24.08 L 7.25,24.05 L 12.56,26.72 L 12.63,26.72 L 12.63,25.64 L 11.80,25.22 L 11.74,25.16 L 11.74,21.92 L 11.77,21.88 L 13.55,22.78 L 13.55,21.66 L 13.52,21.63 Z" fill="#61512e" stroke="none" /><path d="M 8.11,26.72 L 8.11,27.80 L 8.14,27.83 L 13.49,30.50 L 13.55,30.50 L 13.55,29.42 L 12.63,28.95 L 12.63,27.83 L 11.80,27.42 L 11.74,27.42 L 11.74,28.47 L 11.71,28.50 L 8.17,26.72 Z" fill="#705c36" stroke="none" /><path d="M 4.49,23.79 L 4.49,24.91 L 5.34,25.32 L 5.41,25.38 L 5.41,26.47 L 6.23,26.88 L 6.30,26.88 L 6.30,24.68 L 4.55,23.79 Z" fill="#705c36" stroke="none" /><path d="M 0.89,23.09 L 0.89,24.21 L 2.61,25.07 L 2.67,25.07 L 2.67,23.98 Z" fill="#705c36" stroke="none" /><path d="M 3.59,17.81 L 3.59,20.01 L 3.63,20.04 L 5.34,20.90 L 5.41,20.90 L 5.41,19.85 L 5.44,19.82 L 9.86,22.04 L 9.92,22.04 L 9.92,20.96 L 9.89,20.93 L 3.66,17.81 Z" fill="#705c36" stroke="none" /><path d="M 7.22,17.40 L 7.22,18.51 L 13.55,21.66 L 13.55,20.55 L 13.52,20.52 L 7.28,17.40 Z" fill="#705c36" stroke="none" /><path d="M 0.89,14.22 L 0.89,15.33 L 0.92,15.36 L 6.30,18.04 L 6.30,16.92 L 6.27,16.89 Z" fill="#705c36" stroke="none" /><path d="M 9.03,13.87 L 9.03,14.98 L 10.82,15.87 L 10.85,15.87 L 10.85,14.82 L 10.88,14.79 L 12.63,15.65 L 12.63,14.54 L 9.96,13.20 L 9.92,13.20 L 9.92,14.25 L 9.89,14.28 L 9.10,13.87 Z" fill="#705c36" stroke="none" /><path d="M 1.78,9.13 L 1.78,10.24 L 2.67,10.69 L 2.67,11.80 L 5.34,13.14 L 5.41,13.14 L 5.41,12.02 L 4.55,11.61 L 4.49,11.55 L 4.49,10.47 Z" fill="#705c36" stroke="none" /><path d="M 16.19,27.86 L 16.13,27.86 L 15.27,28.31 L 15.27,29.42 L 16.19,28.98 Z" fill="#373737" stroke="none" /><path d="M 27.93,21.98 L 27.04,22.43 L 27.04,23.54 L 27.93,23.09 Z" fill="#373737" stroke="none" /><path d="M 16.19,21.22 L 16.13,21.22 L 15.27,21.66 L 15.27,22.78 L 16.19,22.33 Z" fill="#373737" stroke="none" /><path d="M 27.93,15.33 L 27.04,15.78 L 27.04,16.89 L 27.93,16.45 Z" fill="#373737" stroke="none" /><path d="M 12.63,26.75 L 12.63,27.86 L 13.55,28.31 L 13.55,27.20 L 12.69,26.75 Z" fill="#765f3d" stroke="none" /><path d="M 7.22,25.16 L 7.22,27.36 L 7.25,27.39 L 8.11,27.80 L 8.11,26.75 L 8.14,26.72 L 11.67,28.50 L 11.74,28.50 L 11.74,27.39 L 7.28,25.16 Z" fill="#765f3d" stroke="none" /><path d="M 11.74,21.88 L 11.74,25.19 L 13.49,26.08 L 13.55,26.08 L 13.55,24.97 L 12.69,24.56 L 12.63,24.49 L 12.63,23.48 L 12.66,23.44 L 13.49,23.86 L 13.55,23.86 L 13.55,22.78 L 11.80,21.88 Z" fill="#765f3d" stroke="none" /><path d="M 9.92,20.96 L 9.92,22.08 L 10.85,22.52 L 10.85,21.41 Z" fill="#765f3d" stroke="none" /><path d="M 0.89,20.87 L 0.89,21.98 L 1.72,22.39 L 1.78,22.46 L 1.78,23.54 L 2.61,23.95 L 2.67,24.02 L 2.67,25.10 L 5.34,26.43 L 5.41,26.43 L 5.41,25.35 L 4.49,24.87 L 4.49,23.76 L 1.84,22.46 L 1.78,22.39 L 1.78,21.31 Z" fill="#765f3d" stroke="none" /><path d="M 3.59,20.01 L 3.59,21.12 L 3.63,21.15 L 7.19,22.93 L 7.22,22.93 L 7.22,21.88 L 7.25,21.85 L 8.97,22.71 L 9.03,22.71 L 9.03,21.60 L 5.47,19.82 L 5.41,19.82 L 5.41,20.87 L 5.38,20.90 Z" fill="#765f3d" stroke="none" /><path d="M 0.89,16.45 L 0.89,17.56 L 1.78,18.00 L 1.78,19.05 L 1.75,19.09 L 0.95,18.67 L 0.89,18.67 L 0.89,19.79 L 2.61,20.64 L 2.67,20.64 L 2.67,17.34 Z" fill="#765f3d" stroke="none" /><path d="M 14.41,14.38 L 13.61,13.96 L 13.55,13.96 L 13.55,14.95 L 13.52,14.98 L 12.69,14.57 L 12.63,14.57 L 12.63,15.59 L 12.60,15.62 L 10.85,14.76 L 10.85,15.87 L 13.49,17.21 L 13.55,17.21 L 13.55,15.08 L 13.61,15.05 L 14.35,15.43 L 14.41,15.43 Z" fill="#765f3d" stroke="none" /><path d="M 4.49,10.50 L 4.49,11.58 L 5.41,12.06 L 5.41,13.17 L 8.97,14.95 L 9.03,14.95 L 9.03,13.90 L 9.07,13.87 L 9.86,14.28 L 9.92,14.28 L 9.92,13.20 L 9.89,13.17 L 4.55,10.50 Z" fill="#765f3d" stroke="none" /><path d="M 0.00,7.19 L 0.00,8.24 L 0.83,8.65 L 0.89,8.72 L 0.89,10.91 L 2.61,11.77 L 2.67,11.77 L 2.67,10.66 L 1.78,10.21 L 1.78,9.13 L 0.95,8.72 L 0.89,8.65 L 0.89,7.60 L 0.06,7.19 Z" fill="#765f3d" stroke="none" /><path d="M 7.22,24.05 L 7.22,25.16 L 12.56,27.83 L 12.63,27.83 L 12.63,26.72 L 7.28,24.05 Z" fill="#7c653f" stroke="none" /><path d="M 7.22,21.82 L 7.22,22.93 L 7.25,22.97 L 10.85,24.75 L 10.85,22.52 L 10.82,22.49 L 9.10,21.63 L 9.03,21.63 L 9.03,22.68 L 9.00,22.71 Z" fill="#7c653f" stroke="none" /><path d="M 1.78,21.31 L 1.78,22.43 L 1.81,22.46 L 6.30,24.68 L 6.30,23.57 L 6.27,23.54 Z" fill="#7c653f" stroke="none" /><path d="M 0.89,7.63 L 0.89,8.68 L 0.92,8.72 L 13.55,15.01 L 13.55,13.93 L 0.95,7.63 Z" fill="#7c653f" stroke="none" /><path d="M 14.38,9.86 L 13.55,9.45 L 13.49,9.45 L 10.82,10.78 L 10.82,10.82 L 11.71,11.26 L 14.38,9.92 Z" fill="#947340" stroke="none" /><path d="M 9.86,7.60 L 9.03,7.19 L 8.94,7.19 L 7.22,8.05 L 7.19,8.11 L 8.02,8.52 L 8.14,8.52 L 9.86,7.67 Z" fill="#947340" stroke="none" /><path d="M 19.82,7.16 L 18.99,6.74 L 18.89,6.74 L 17.18,7.60 L 17.15,7.67 L 17.97,8.08 L 18.07,8.08 L 19.79,7.22 Z" fill="#947340" stroke="none" /><path d="M 23.44,5.34 L 22.62,4.93 L 22.52,4.93 L 20.80,5.79 L 20.77,5.85 L 21.60,6.27 L 21.69,6.27 L 23.41,5.41 Z" fill="#947340" stroke="none" /><path d="M 14.38,5.34 L 13.55,4.93 L 13.46,4.93 L 9.89,6.71 L 9.89,6.74 L 10.75,7.19 L 10.82,7.19 L 14.38,5.41 Z" fill="#947340" stroke="none" /><path d="M 18.93,3.09 L 18.10,2.67 L 17.97,2.67 L 16.25,3.53 L 16.25,3.59 L 17.08,4.01 L 17.18,4.01 L 18.89,3.15 Z" fill="#947340" stroke="none" /><path d="M 9.92,11.23 L 9.92,11.29 L 10.75,11.71 L 10.82,11.71 L 11.67,11.26 L 11.67,11.23 L 10.85,10.82 L 10.75,10.82 Z" fill="#9d824c" stroke="none" /><path d="M 22.55,8.52 L 21.63,8.08 L 19.85,8.97 L 19.88,9.03 L 20.71,9.45 L 19.88,9.86 L 19.85,9.92 L 20.68,10.34 L 20.80,10.34 L 22.52,9.48 L 22.52,9.42 L 21.69,9.00 L 21.76,8.94 L 22.55,8.56 Z" fill="#9d824c" stroke="none" /><path d="M 5.38,8.97 L 5.41,9.03 L 6.23,9.45 L 6.30,9.45 L 7.16,9.00 L 8.05,9.45 L 8.11,9.45 L 8.97,9.00 L 8.97,8.97 L 7.19,8.08 Z" fill="#9d824c" stroke="none" /><path d="M 18.00,8.08 L 17.11,7.63 L 13.55,9.42 L 13.55,9.48 L 14.38,9.89 L 14.44,9.89 L 18.00,8.11 Z" fill="#9d824c" stroke="none" /><path d="M 9.00,7.16 L 9.03,7.22 L 9.86,7.63 L 9.92,7.63 L 10.75,7.22 L 10.75,7.16 L 9.92,6.74 L 9.83,6.74 Z" fill="#9d824c" stroke="none" /><path d="M 1.75,7.16 L 1.78,7.22 L 3.50,8.08 L 3.59,8.08 L 4.42,7.67 L 4.42,7.60 L 2.70,6.74 L 2.58,6.74 Z" fill="#9d824c" stroke="none" /><path d="M 21.63,6.27 L 20.74,5.82 L 18.96,6.71 L 18.96,6.74 L 19.85,7.19 L 21.63,6.30 Z" fill="#9d824c" stroke="none" /><path d="M 17.15,5.82 L 17.15,5.85 L 17.97,6.27 L 18.10,6.27 L 18.93,5.85 L 18.89,5.79 L 18.07,5.38 L 18.00,5.38 Z" fill="#9d824c" stroke="none" /><path d="M 11.67,4.90 L 10.85,4.49 L 10.72,4.49 L 9.00,5.34 L 9.00,5.41 L 9.83,5.82 L 9.92,5.82 L 11.64,4.96 Z" fill="#9d824c" stroke="none" /><path d="M 17.11,4.01 L 16.25,3.56 L 16.19,3.56 L 13.52,4.90 L 13.52,4.93 L 14.38,5.38 L 14.44,5.38 L 17.11,4.04 Z" fill="#9d824c" stroke="none" /><path d="M 18.07,3.53 L 18.07,3.59 L 18.89,4.01 L 18.99,4.01 L 19.82,3.59 L 19.82,3.53 L 18.99,3.12 L 18.89,3.12 Z" fill="#9d824c" stroke="none" /><path d="M 16.19,1.72 L 15.36,1.30 L 15.27,1.30 L 13.52,2.19 L 12.63,1.75 L 12.56,1.75 L 11.74,2.16 L 11.71,2.23 L 12.53,2.64 L 12.66,2.64 L 13.46,2.23 L 13.55,2.23 L 14.35,2.64 L 14.47,2.64 L 16.19,1.78 Z" fill="#9d824c" stroke="none" /><path d="M 16.22,12.60 L 15.30,12.15 L 13.52,13.04 L 13.52,13.07 L 14.38,13.52 L 14.44,13.52 L 16.22,12.63 Z" fill="#ad8d54" stroke="none" /><path d="M 17.11,10.34 L 16.22,9.89 L 15.33,10.34 L 14.44,9.89 L 14.38,9.89 L 12.60,10.78 L 12.60,10.82 L 13.39,11.20 L 13.46,11.26 L 11.74,12.12 L 11.71,12.18 L 12.53,12.60 L 12.66,12.60 L 14.38,11.74 L 14.38,11.67 L 13.58,11.29 L 13.55,11.26 L 13.61,11.20 L 15.27,10.37 L 15.36,10.37 L 16.16,10.78 L 16.29,10.78 L 17.11,10.37 Z" fill="#ad8d54" stroke="none" /><path d="M 19.79,9.00 L 18.96,9.42 L 18.96,9.48 L 19.79,9.89 L 19.72,9.96 L 18.93,10.34 L 18.93,10.37 L 19.85,10.82 L 20.74,10.37 L 20.74,10.34 L 19.94,9.96 L 19.88,9.89 L 20.71,9.48 L 20.71,9.42 L 19.88,9.00 Z" fill="#ad8d54" stroke="none" /><path d="M 3.56,8.08 L 3.56,8.11 L 4.39,8.52 L 4.52,8.52 L 5.34,8.11 L 5.31,8.05 L 4.49,7.63 L 4.42,7.63 Z" fill="#ad8d54" stroke="none" /><path d="M 13.49,6.71 L 12.66,6.30 L 12.53,6.30 L 8.08,8.52 L 8.08,8.56 L 8.87,8.94 L 8.94,9.00 L 8.91,9.03 L 8.08,9.45 L 7.22,9.00 L 7.13,9.00 L 6.30,9.42 L 6.30,9.48 L 9.00,10.82 L 9.89,10.37 L 9.89,10.34 L 9.10,9.96 L 9.03,9.89 L 9.86,9.48 L 9.86,9.42 L 9.07,9.03 L 9.03,9.00 L 9.10,8.94 L 13.46,6.78 Z" fill="#ad8d54" stroke="none" /><path d="M 16.22,6.27 L 16.22,6.30 L 17.11,6.74 L 18.04,6.30 L 18.04,6.27 L 17.15,5.82 Z" fill="#ad8d54" stroke="none" /><path d="M 5.34,6.27 L 4.49,5.82 L 4.42,5.82 L 2.64,6.71 L 2.64,6.74 L 3.56,7.19 L 5.34,6.30 Z" fill="#ad8d54" stroke="none" /><path d="M 27.07,7.16 L 25.26,6.27 L 23.48,7.16 L 23.51,7.22 L 24.33,7.63 L 23.44,8.08 L 21.69,7.19 L 21.76,7.13 L 24.33,5.85 L 24.33,5.79 L 23.51,5.38 L 23.41,5.38 L 20.74,6.71 L 20.74,6.74 L 21.53,7.13 L 21.60,7.19 L 19.88,8.05 L 19.85,8.11 L 20.68,8.52 L 20.80,8.52 L 21.60,8.11 L 21.69,8.11 L 22.46,8.49 L 22.49,8.56 L 21.66,8.97 L 21.66,9.00 L 22.52,9.45 L 22.58,9.45 L 23.44,9.00 L 23.44,8.97 L 22.65,8.59 L 22.62,8.56 L 22.65,8.49 L 23.41,8.11 L 23.51,8.11 L 24.30,8.52 L 24.43,8.52 L 27.04,7.22 Z" fill="#ad8d54" stroke="none" /><path d="M 18.07,5.34 L 18.07,5.41 L 18.89,5.82 L 18.99,5.82 L 19.82,5.41 L 19.82,5.34 L 18.99,4.93 L 18.89,4.93 Z" fill="#ad8d54" stroke="none" /><path d="M 9.86,4.90 L 9.03,4.49 L 8.91,4.49 L 7.19,5.34 L 7.19,5.41 L 8.02,5.82 L 7.95,5.88 L 7.22,6.23 L 7.19,6.30 L 8.02,6.71 L 8.14,6.71 L 9.86,5.85 L 9.83,5.79 L 9.00,5.38 L 9.83,4.96 Z" fill="#ad8d54" stroke="none" /><path d="M 10.78,4.45 L 10.78,4.49 L 11.67,4.93 L 12.60,4.49 L 12.60,4.45 L 11.71,4.01 Z" fill="#ad8d54" stroke="none" /><path d="M 15.33,4.93 L 16.19,5.38 L 16.25,5.38 L 18.89,4.04 L 18.99,4.04 L 20.74,4.93 L 21.66,4.49 L 21.66,4.45 L 19.88,3.56 L 19.82,3.56 L 18.96,4.01 L 18.07,3.56 L 18.00,3.56 L 15.33,4.90 Z" fill="#ad8d54" stroke="none" /><path d="M 15.33,2.19 L 15.33,2.23 L 16.16,2.64 L 16.29,2.64 L 17.11,2.23 L 17.08,2.16 L 16.25,1.75 L 16.19,1.75 Z" fill="#ad8d54" stroke="none" /><path d="M 15.30,1.27 L 14.47,0.86 L 14.35,0.86 L 12.63,1.72 L 12.63,1.78 L 13.42,2.16 L 13.46,2.19 L 13.39,2.26 L 12.63,2.64 L 12.56,2.64 L 11.67,2.19 L 10.78,2.64 L 10.78,2.67 L 11.67,3.12 L 12.56,2.67 L 12.63,2.67 L 13.52,3.12 L 14.41,2.67 L 14.41,2.64 L 13.61,2.26 L 13.55,2.19 L 15.27,1.34 Z" fill="#ad8d54" stroke="none" /><path d="M 12.63,27.86 L 12.63,28.98 L 13.55,29.42 L 13.55,28.31 L 12.69,27.86 Z" fill="#595958" stroke="none" /><path d="M 12.63,23.41 L 12.63,24.52 L 13.49,24.97 L 13.55,24.97 L 13.55,23.86 Z" fill="#595958" stroke="none" /><path d="M 0.89,21.98 L 0.89,23.09 L 1.78,23.54 L 1.78,22.43 Z" fill="#595958" stroke="none" /><path d="M 0.89,17.56 L 0.89,18.67 L 1.72,19.09 L 1.78,19.09 L 1.78,17.97 L 0.95,17.56 Z" fill="#595958" stroke="none" /><path d="M 13.55,13.93 L 13.55,13.96 L 14.38,14.38 L 14.44,14.38 L 15.27,13.96 L 15.27,13.93 L 14.44,13.52 L 14.38,13.52 Z" fill="#b6925e" stroke="none" /><path d="M 27.10,7.16 L 27.13,7.22 L 27.90,7.60 L 27.99,7.60 L 28.79,7.19 L 28.79,7.16 L 27.96,6.74 Z" fill="#b6925e" stroke="none" /><path d="M 0.03,7.16 L 0.06,7.22 L 0.83,7.60 L 0.92,7.60 L 1.72,7.19 L 1.72,7.16 L 0.89,6.74 Z" fill="#b6925e" stroke="none" /><path d="M 25.26,6.27 L 24.40,5.82 L 24.33,5.82 L 21.69,7.16 L 21.60,7.16 L 20.80,6.74 L 20.68,6.74 L 14.44,9.86 L 14.44,9.92 L 15.24,10.31 L 15.27,10.34 L 15.20,10.40 L 13.55,11.23 L 13.46,11.23 L 12.66,10.82 L 12.53,10.82 L 10.82,11.67 L 10.82,11.74 L 11.64,12.15 L 11.74,12.15 L 13.52,11.26 L 14.38,11.71 L 12.60,12.60 L 12.60,12.63 L 13.49,13.07 L 15.27,12.18 L 15.36,12.18 L 16.16,12.60 L 16.29,12.60 L 19.82,10.82 L 19.82,10.78 L 18.99,10.37 L 19.02,10.31 L 19.82,9.92 L 19.82,9.89 L 18.96,9.45 L 20.74,8.56 L 20.74,8.52 L 19.94,8.14 L 19.88,8.08 L 19.91,8.05 L 21.66,7.19 L 23.38,8.05 L 23.41,8.08 L 23.35,8.14 L 22.55,8.52 L 22.55,8.56 L 23.48,9.00 L 24.37,8.56 L 24.37,8.52 L 23.57,8.14 L 23.51,8.08 L 24.33,7.67 L 24.33,7.60 L 23.51,7.19 L 23.57,7.13 L 25.26,6.30 Z" fill="#b6925e" stroke="none" /><path d="M 12.56,5.34 L 11.74,4.93 L 11.64,4.93 L 8.97,6.27 L 8.97,6.30 L 9.89,6.74 L 12.56,5.41 Z" fill="#b6925e" stroke="none" /><path d="M 22.55,4.90 L 21.73,4.49 L 21.60,4.49 L 20.80,4.90 L 20.71,4.90 L 18.93,4.01 L 16.22,5.38 L 15.36,4.93 L 15.27,4.93 L 12.60,6.27 L 12.60,6.30 L 13.39,6.68 L 13.46,6.74 L 13.42,6.78 L 9.00,8.97 L 9.03,9.03 L 9.86,9.45 L 9.00,9.89 L 9.00,9.92 L 9.83,10.34 L 9.80,10.40 L 9.00,10.78 L 9.00,10.82 L 9.86,11.26 L 9.92,11.26 L 10.78,10.82 L 10.78,10.78 L 9.99,10.40 L 9.96,10.37 L 9.99,10.31 L 17.11,6.74 L 18.00,7.19 L 18.07,7.19 L 19.85,6.30 L 19.85,6.27 L 18.96,5.82 L 17.18,6.71 L 17.08,6.71 L 16.29,6.30 L 16.32,6.23 L 18.93,4.93 L 19.82,5.38 L 19.88,5.38 L 20.74,4.93 L 21.63,5.38 L 21.69,5.38 L 22.52,4.96 Z" fill="#b6925e" stroke="none" /><path d="M 18.04,2.64 L 17.15,2.19 L 16.25,2.64 L 16.19,2.64 L 15.30,2.19 L 13.55,3.09 L 13.46,3.09 L 12.66,2.67 L 12.53,2.67 L 11.74,3.09 L 11.64,3.09 L 10.85,2.67 L 10.72,2.67 L 4.49,5.79 L 4.49,5.85 L 5.31,6.27 L 5.25,6.33 L 3.56,7.16 L 3.56,7.19 L 5.28,8.05 L 5.31,8.08 L 5.25,8.14 L 4.45,8.52 L 4.45,8.56 L 5.38,9.00 L 6.27,8.56 L 6.27,8.52 L 5.47,8.14 L 5.41,8.08 L 5.44,8.05 L 8.08,6.74 L 8.08,6.71 L 7.28,6.33 L 7.22,6.27 L 8.05,5.85 L 8.02,5.79 L 7.22,5.41 L 7.19,5.38 L 7.22,5.34 L 8.94,4.49 L 9.00,4.49 L 9.89,4.93 L 11.64,4.04 L 11.74,4.04 L 12.53,4.45 L 12.66,4.45 L 16.19,2.67 L 16.25,2.67 L 17.15,3.12 L 18.04,2.67 Z" fill="#b6925e" stroke="none" /><path d="M 13.58,0.38 L 13.58,0.45 L 14.35,0.83 L 14.47,0.83 L 15.24,0.45 L 15.24,0.38 L 14.47,0.00 L 14.35,0.00 Z" fill="#b6925e" stroke="none" /><path d="M 18.00,7.16 L 17.18,6.74 L 17.08,6.74 L 9.89,10.34 L 9.89,10.37 L 10.82,10.82 L 18.00,7.22 Z" fill="#c09b61" stroke="none" /><path d="M 9.86,6.71 L 9.03,6.30 L 8.91,6.30 L 5.41,8.05 L 5.38,8.11 L 6.20,8.52 L 6.33,8.52 L 9.83,6.78 Z" fill="#c09b61" stroke="none" /><path d="M 21.63,5.34 L 20.80,4.93 L 20.71,4.93 L 18.99,5.79 L 18.96,5.85 L 19.79,6.27 L 19.91,6.27 L 21.63,5.41 Z" fill="#c09b61" stroke="none" /><path d="M 17.11,3.09 L 16.29,2.67 L 16.16,2.67 L 11.71,4.90 L 11.71,4.93 L 12.56,5.38 L 12.63,5.38 L 17.08,3.15 Z" fill="#c09b61" stroke="none" /><path d="M 0.89,6.74 L 0.89,6.78 L 1.62,7.13 L 1.69,7.19 L 0.92,7.57 L 0.89,7.63 L 13.49,13.93 L 13.61,13.93 L 14.38,13.55 L 14.38,13.49 L 1.78,7.19 L 1.84,7.13 L 14.38,0.86 L 14.44,0.86 L 26.97,7.13 L 27.04,7.19 L 14.44,13.49 L 14.44,13.55 L 15.20,13.93 L 15.33,13.93 L 27.93,7.63 L 27.90,7.57 L 27.13,7.19 L 27.20,7.13 L 27.93,6.78 L 27.90,6.71 L 15.30,0.41 L 15.24,0.41 L 14.44,0.83 L 14.38,0.83 L 13.58,0.41 L 13.52,0.41 Z" fill="#c09b61" stroke="none" /></svg>