<svg height="32" width="32" viewBox="0 0 32 32"><defs /><path d="M 27.08,2.46 L 27.08,4.92 L 29.54,4.92 L 29.54,2.46 Z" fill="#33190e" stroke="none" /><path d="M 22.15,2.46 L 22.15,4.92 L 24.62,4.92 L 24.62,2.46 Z" fill="#33190e" stroke="none" /><path d="M 7.38,2.46 L 7.38,4.92 L 14.77,4.92 L 14.77,2.46 Z" fill="#33190e" stroke="none" /><path d="M 4.92,2.46 L 4.92,4.92 L 7.38,4.92 L 7.38,2.46 Z" fill="#402114" stroke="none" /><path d="M 0.00,2.46 L 0.00,4.92 L 2.46,4.92 L 2.46,2.46 Z" fill="#402114" stroke="none" /><path d="M 9.85,0.00 L 9.85,2.46 L 14.73,2.46 L 14.77,2.50 L 14.77,4.92 L 22.15,4.92 L 22.15,2.50 L 22.19,2.46 L 24.58,2.46 L 24.62,2.50 L 24.62,4.92 L 27.08,4.92 L 27.08,2.50 L 27.12,2.46 L 29.54,2.46 L 29.54,0.00 L 27.08,0.00 L 27.08,2.42 L 27.04,2.46 L 24.65,2.46 L 24.62,2.42 L 24.62,0.00 L 22.15,0.00 L 22.15,2.42 L 22.12,2.46 L 14.81,2.46 L 14.77,2.42 L 14.77,0.00 Z" fill="#402114" stroke="none" /><path d="M 27.08,27.08 L 24.62,27.08 L 24.62,29.50 L 24.58,29.54 L 4.92,29.54 L 4.92,32.00 L 24.62,32.00 L 24.62,29.58 L 24.65,29.54 L 27.08,29.54 Z" fill="#9c4f16" stroke="none" /><path d="M 22.15,7.38 L 22.15,24.62 L 24.62,24.62 L 24.62,7.38 Z" fill="#9c4f16" stroke="none" /><path d="M 24.62,0.00 L 24.62,2.46 L 27.08,2.46 L 27.08,0.00 Z" fill="#5f3523" stroke="none" /><path d="M 14.77,0.00 L 14.77,2.46 L 22.15,2.46 L 22.15,0.00 Z" fill="#5f3523" stroke="none" /><path d="M 0.00,0.00 L 0.00,2.46 L 2.42,2.46 L 2.46,2.50 L 2.46,4.92 L 4.92,4.92 L 4.92,2.50 L 4.96,2.46 L 9.85,2.46 L 9.85,0.00 L 4.92,0.00 L 4.92,2.42 L 4.88,2.46 L 2.50,2.46 L 2.46,2.42 L 2.46,0.00 Z" fill="#5f3523" stroke="none" /><path d="M 7.38,7.38 L 7.38,9.85 L 9.85,9.85 L 9.85,7.38 Z" fill="#f5cc27" stroke="none" /><path d="M 2.46,27.08 L 2.46,29.54 L 4.92,29.54 L 4.92,27.08 Z" fill="#b4652a" stroke="none" /><path d="M 24.62,24.62 L 24.62,27.08 L 27.08,27.08 L 27.08,24.62 Z" fill="#b4652a" stroke="none" /><path d="M 4.92,22.15 L 4.92,24.62 L 7.38,24.62 L 7.38,22.15 Z" fill="#b4652a" stroke="none" /><path d="M 4.92,17.23 L 4.92,19.69 L 7.38,19.69 L 7.38,17.23 Z" fill="#b4652a" stroke="none" /><path d="M 19.69,4.92 L 19.69,7.38 L 22.15,7.38 L 22.15,4.92 Z" fill="#b4652a" stroke="none" /><path d="M 9.85,4.92 L 7.38,4.92 L 7.38,7.35 L 7.35,7.38 L 4.92,7.38 L 4.92,9.85 L 7.38,9.85 L 7.38,7.42 L 7.42,7.38 L 9.85,7.38 Z" fill="#b4652a" stroke="none" /><path d="M 22.15,27.08 L 22.15,29.54 L 24.62,29.54 L 24.62,27.08 Z" fill="#d39632" stroke="none" /><path d="M 2.46,24.62 L 2.46,27.08 L 4.92,27.08 L 4.92,24.62 Z" fill="#d39632" stroke="none" /><path d="M 19.69,22.15 L 19.69,24.62 L 22.15,24.62 L 22.15,22.15 Z" fill="#d39632" stroke="none" /><path d="M 4.92,19.69 L 4.92,22.15 L 7.35,22.15 L 7.38,22.19 L 7.38,24.62 L 9.85,24.62 L 9.85,22.15 L 7.42,22.15 L 7.38,22.12 L 7.38,19.69 Z" fill="#d39632" stroke="none" /><path d="M 4.92,9.85 L 4.92,17.23 L 7.38,17.23 L 7.38,9.85 Z" fill="#d39632" stroke="none" /><path d="M 9.85,4.92 L 9.85,7.38 L 19.65,7.38 L 19.69,7.42 L 19.69,9.85 L 22.15,9.85 L 22.15,7.38 L 19.73,7.38 L 19.69,7.35 L 19.69,4.92 Z" fill="#d39632" stroke="none" /><path d="M 9.85,27.08 L 9.85,29.54 L 17.23,29.54 L 17.23,27.08 Z" fill="#fed639" stroke="none" /><path d="M 4.92,27.08 L 4.92,29.54 L 7.38,29.54 L 7.38,27.08 Z" fill="#fed639" stroke="none" /><path d="M 9.85,22.15 L 9.85,24.62 L 19.69,24.62 L 19.69,22.15 Z" fill="#fed639" stroke="none" /><path d="M 17.23,7.38 L 17.23,9.85 L 19.65,9.85 L 19.69,9.88 L 19.69,19.69 L 22.15,19.69 L 22.15,9.85 L 19.73,9.85 L 19.69,9.81 L 19.69,7.38 Z" fill="#fed639" stroke="none" /><path d="M 12.31,7.38 L 9.85,7.38 L 9.85,9.81 L 9.81,9.85 L 7.38,9.85 L 7.38,19.69 L 9.85,19.69 L 9.85,9.88 L 9.88,9.85 L 12.31,9.85 Z" fill="#fed639" stroke="none" /><path d="M 2.46,0.00 L 2.46,2.46 L 4.92,2.46 L 4.92,0.00 Z" fill="#835b4a" stroke="none" /><path d="M 17.23,27.08 L 17.23,29.54 L 22.15,29.54 L 22.15,27.08 Z" fill="#ffec4f" stroke="none" /><path d="M 7.38,27.08 L 7.38,29.54 L 9.85,29.54 L 9.85,27.08 Z" fill="#ffec4f" stroke="none" /><path d="M 12.31,7.38 L 12.31,9.81 L 12.27,9.85 L 9.85,9.85 L 9.85,12.31 L 12.31,12.31 L 12.31,9.88 L 12.35,9.85 L 14.73,9.85 L 14.77,9.88 L 14.77,19.69 L 19.69,19.69 L 19.69,9.85 L 17.27,9.85 L 17.23,9.81 L 17.23,7.38 Z" fill="#ffec4f" stroke="none" /><path d="M 17.23,24.62 L 17.23,27.08 L 24.62,27.08 L 24.62,24.62 Z" fill="#fff68d" stroke="none" /><path d="M 4.92,24.62 L 4.92,27.08 L 7.38,27.08 L 7.38,24.62 Z" fill="#fff68d" stroke="none" /><path d="M 12.31,9.85 L 12.31,12.27 L 12.27,12.31 L 9.85,12.31 L 9.85,19.65 L 9.81,19.69 L 7.38,19.69 L 7.38,22.15 L 9.85,22.15 L 9.85,19.73 L 9.88,19.69 L 14.73,19.69 L 14.77,19.73 L 14.77,22.15 L 22.15,22.15 L 22.15,19.69 L 14.81,19.69 L 14.77,19.65 L 14.77,9.85 Z" fill="#fff68d" stroke="none" /><path d="M 7.38,24.62 L 7.38,27.08 L 17.23,27.08 L 17.23,24.62 Z" fill="#feffbd" stroke="none" /><path d="M 9.85,19.69 L 9.85,22.15 L 14.77,22.15 L 14.77,19.69 Z" fill="#feffbd" stroke="none" /></svg>