<svg height="32" width="32" viewBox="0 0 32 32"><defs /><path d="M 16.19,28.98 L 16.13,28.98 L 15.27,29.42 L 15.27,30.50 L 15.33,30.50 L 16.19,30.06 Z" fill="#161c0f" stroke="none" /><path d="M 23.41,26.47 L 23.35,26.47 L 22.52,26.88 L 22.52,27.96 L 23.41,27.51 Z" fill="#161c0f" stroke="none" /><path d="M 27.04,24.65 L 26.97,24.65 L 25.22,25.54 L 25.22,26.59 L 25.29,26.59 L 27.04,25.70 Z" fill="#161c0f" stroke="none" /><path d="M 16.19,23.41 L 15.27,23.86 L 15.27,24.97 L 15.33,24.97 L 16.19,24.52 Z" fill="#161c0f" stroke="none" /><path d="M 18.83,22.08 L 17.97,22.52 L 17.97,23.60 L 17.91,23.67 L 17.08,24.08 L 17.08,25.16 L 17.02,25.22 L 16.19,25.64 L 16.19,27.83 L 16.25,27.83 L 17.94,26.97 L 17.97,27.01 L 17.97,28.06 L 18.04,28.06 L 18.86,27.64 L 18.89,27.67 L 18.89,28.69 L 18.96,28.69 L 19.79,28.28 L 19.79,27.20 L 19.85,27.13 L 21.60,26.27 L 21.60,24.05 L 21.53,24.05 L 20.71,24.46 L 20.71,25.57 L 19.79,26.05 L 19.79,27.13 L 19.72,27.20 L 18.93,27.58 L 18.89,27.55 L 18.89,26.50 L 18.00,26.94 L 17.97,26.91 L 17.97,25.86 L 17.91,25.86 L 17.11,26.27 L 17.08,26.24 L 17.08,25.22 L 17.15,25.16 L 18.89,24.30 L 18.89,22.08 Z" fill="#161c0f" stroke="none" /><path d="M 20.71,20.07 L 20.64,20.07 L 19.79,20.52 L 19.79,21.60 L 19.85,21.60 L 20.71,21.15 Z" fill="#161c0f" stroke="none" /><path d="M 22.52,19.15 L 21.60,19.59 L 21.60,21.82 L 23.41,20.93 L 23.41,19.82 L 23.35,19.82 L 22.55,20.23 L 22.52,20.20 Z" fill="#161c0f" stroke="none" /><path d="M 16.19,17.88 L 15.27,18.32 L 15.27,20.55 L 16.16,20.10 L 16.19,20.14 L 16.19,21.18 L 15.27,21.66 L 15.27,22.78 L 17.08,21.88 L 17.08,19.66 L 17.02,19.66 L 16.22,20.07 L 16.19,20.04 Z" fill="#161c0f" stroke="none" /><path d="M 19.79,16.10 L 19.72,16.10 L 18.89,16.51 L 18.89,17.59 L 18.83,17.65 L 17.97,18.07 L 17.97,19.18 L 18.04,19.18 L 18.89,18.74 L 18.89,17.65 L 18.96,17.59 L 19.79,17.18 Z" fill="#161c0f" stroke="none" /><path d="M 28.82,16.00 L 27.93,16.45 L 27.93,18.64 L 25.26,19.98 L 25.22,20.01 L 25.22,22.20 L 23.41,23.13 L 23.41,25.35 L 24.33,24.91 L 24.33,23.79 L 25.22,23.35 L 25.22,22.23 L 25.26,22.20 L 26.12,21.79 L 26.15,21.82 L 26.15,22.87 L 26.18,22.87 L 27.93,21.98 L 27.93,18.67 L 28.82,18.23 Z" fill="#161c0f" stroke="none" /><path d="M 25.16,15.59 L 24.33,16.00 L 24.33,17.11 L 24.40,17.11 L 25.19,16.70 L 25.22,16.73 L 25.22,17.78 L 25.29,17.78 L 26.15,17.34 L 26.15,16.22 L 25.26,16.67 L 25.22,16.64 L 25.22,15.59 Z" fill="#161c0f" stroke="none" /><path d="M 22.52,14.73 L 22.46,14.73 L 21.60,15.17 L 21.60,16.25 L 20.71,16.70 L 20.71,17.81 L 20.77,17.81 L 22.52,16.92 Z" fill="#161c0f" stroke="none" /><path d="M 16.19,14.57 L 16.13,14.57 L 15.27,15.01 L 15.27,16.10 L 15.33,16.10 L 16.19,15.65 Z" fill="#161c0f" stroke="none" /><path d="M 19.79,12.76 L 18.00,13.65 L 17.97,13.61 L 17.97,12.60 L 17.08,13.04 L 17.08,14.09 L 17.15,14.09 L 17.94,13.68 L 17.97,13.71 L 17.97,14.73 L 17.91,14.79 L 17.08,15.20 L 17.08,16.32 L 18.89,15.43 L 18.89,14.31 L 19.79,13.87 Z" fill="#161c0f" stroke="none" /><path d="M 27.93,12.02 L 27.86,12.02 L 27.07,12.44 L 27.04,12.41 L 27.04,11.36 L 26.97,11.36 L 26.18,11.77 L 26.15,11.74 L 26.15,10.69 L 26.08,10.69 L 24.33,11.58 L 24.33,12.66 L 24.27,12.72 L 23.41,13.14 L 23.41,14.25 L 23.48,14.25 L 24.33,13.81 L 24.33,12.72 L 24.40,12.66 L 26.12,11.80 L 26.15,11.83 L 26.15,12.88 L 26.21,12.88 L 27.01,12.47 L 27.04,12.50 L 27.04,13.52 L 26.97,13.58 L 26.15,14.00 L 26.15,15.11 L 26.18,15.11 L 27.93,14.22 Z" fill="#161c0f" stroke="none" /><path d="M 23.41,9.89 L 23.35,9.89 L 21.63,10.75 L 21.60,10.78 L 21.60,11.83 L 20.71,12.28 L 20.71,14.50 L 21.60,14.06 L 21.60,11.86 L 23.41,10.94 Z" fill="#161c0f" stroke="none" /><path d="M 26.15,8.52 L 26.08,8.52 L 25.22,8.97 L 25.22,10.02 L 25.29,10.02 L 26.15,9.57 Z" fill="#161c0f" stroke="none" /><path d="M 28.82,7.19 L 28.76,7.19 L 27.04,8.05 L 27.04,9.13 L 27.86,8.72 L 27.93,8.75 L 27.93,10.88 L 27.99,10.88 L 28.82,10.47 Z" fill="#161c0f" stroke="none" /><path d="M 19.79,28.28 L 19.72,28.28 L 17.97,29.17 L 17.97,30.22 L 18.04,30.22 L 19.79,29.33 Z" fill="#1b2312" stroke="none" /><path d="M 16.13,26.75 L 15.27,27.20 L 15.27,28.31 L 16.16,27.86 L 16.19,27.90 L 16.19,28.95 L 16.25,28.95 L 17.08,28.53 L 17.08,27.42 L 17.02,27.42 L 16.22,27.83 L 16.19,27.80 L 16.19,26.75 Z" fill="#1b2312" stroke="none" /><path d="M 21.60,26.27 L 21.53,26.27 L 20.71,26.69 L 20.71,27.80 L 21.60,27.36 Z" fill="#1b2312" stroke="none" /><path d="M 25.22,25.54 L 24.33,25.99 L 24.33,27.04 L 24.40,27.04 L 25.22,26.62 Z" fill="#1b2312" stroke="none" /><path d="M 15.27,23.89 L 15.20,23.89 L 14.41,24.30 L 14.41,25.42 L 15.27,25.00 Z" fill="#1b2312" stroke="none" /><path d="M 28.82,23.76 L 28.76,23.76 L 27.93,24.17 L 27.93,25.26 L 28.82,24.81 Z" fill="#1b2312" stroke="none" /><path d="M 23.41,23.13 L 22.52,23.57 L 22.52,24.68 L 23.41,24.24 Z" fill="#1b2312" stroke="none" /><path d="M 19.79,22.74 L 19.72,22.74 L 18.89,23.16 L 18.89,24.27 L 17.97,24.75 L 17.97,25.83 L 18.04,25.83 L 18.89,25.38 L 18.89,24.30 L 19.79,23.86 Z" fill="#1b2312" stroke="none" /><path d="M 21.57,20.71 L 20.71,21.15 L 20.71,22.27 L 21.57,21.85 L 21.60,21.88 L 21.60,22.93 L 21.63,22.93 L 22.52,22.49 L 22.52,21.38 L 22.46,21.38 L 21.63,21.79 L 21.60,21.76 L 21.60,20.71 Z" fill="#1b2312" stroke="none" /><path d="M 17.97,20.33 L 17.91,20.33 L 17.08,20.74 L 17.08,21.85 L 16.19,22.30 L 16.19,23.41 L 17.97,22.52 Z" fill="#1b2312" stroke="none" /><path d="M 26.15,18.45 L 26.08,18.45 L 25.22,18.89 L 25.22,19.98 L 25.16,20.04 L 24.33,20.45 L 24.33,21.57 L 25.22,21.12 L 25.22,20.04 L 25.29,19.98 L 26.15,19.56 Z" fill="#1b2312" stroke="none" /><path d="M 27.86,17.56 L 27.04,17.97 L 27.04,19.09 L 27.10,19.09 L 27.90,18.67 L 27.93,18.70 L 27.93,19.75 L 27.99,19.75 L 28.82,19.34 L 28.82,18.23 L 28.76,18.23 L 27.96,18.64 L 27.93,18.61 L 27.93,17.56 Z" fill="#1b2312" stroke="none" /><path d="M 17.05,17.43 L 16.19,17.88 L 16.19,18.96 L 16.25,18.96 L 17.05,18.54 L 17.08,18.58 L 17.08,19.63 L 17.15,19.63 L 17.97,19.21 L 17.97,18.10 L 17.91,18.10 L 17.11,18.51 L 17.08,18.48 L 17.08,17.43 Z" fill="#1b2312" stroke="none" /><path d="M 15.27,17.24 L 15.20,17.24 L 14.41,17.65 L 14.41,19.85 L 14.47,19.85 L 15.27,19.44 Z" fill="#1b2312" stroke="none" /><path d="M 25.22,16.70 L 25.16,16.70 L 24.33,17.11 L 24.33,18.23 L 24.40,18.23 L 25.22,17.81 Z" fill="#1b2312" stroke="none" /><path d="M 18.89,15.43 L 18.83,15.43 L 17.97,15.87 L 17.97,16.99 L 18.89,16.54 Z" fill="#1b2312" stroke="none" /><path d="M 15.27,13.96 L 15.20,13.96 L 14.41,14.38 L 14.41,15.43 L 14.47,15.43 L 15.27,15.01 Z" fill="#1b2312" stroke="none" /><path d="M 24.33,13.81 L 23.41,14.25 L 23.41,16.45 L 23.35,16.51 L 21.60,17.37 L 21.60,18.48 L 19.79,19.40 L 19.79,20.52 L 21.60,19.63 L 21.60,18.51 L 23.41,17.59 L 23.41,16.51 L 23.48,16.45 L 24.33,16.03 Z" fill="#1b2312" stroke="none" /><path d="M 28.82,13.77 L 27.04,14.66 L 27.04,15.78 L 28.82,14.89 Z" fill="#1b2312" stroke="none" /><path d="M 20.68,13.39 L 19.79,13.84 L 19.79,14.95 L 19.85,14.95 L 20.68,14.54 L 20.71,14.57 L 20.71,15.62 L 20.74,15.62 L 21.60,15.17 L 21.60,14.06 L 20.74,14.47 L 20.71,14.44 L 20.71,13.39 Z" fill="#1b2312" stroke="none" /><path d="M 18.89,12.15 L 18.83,12.15 L 17.97,12.60 L 17.97,13.65 L 17.08,14.09 L 17.08,15.17 L 17.02,15.24 L 16.19,15.65 L 16.19,16.76 L 17.08,16.32 L 17.08,15.24 L 17.15,15.17 L 17.97,14.76 L 17.97,13.68 L 18.89,13.20 Z" fill="#1b2312" stroke="none" /><path d="M 24.33,9.42 L 23.41,9.86 L 23.41,10.91 L 23.35,10.97 L 22.52,11.39 L 22.52,12.47 L 22.58,12.47 L 23.41,12.06 L 23.41,10.97 L 23.48,10.91 L 24.33,10.50 Z" fill="#1b2312" stroke="none" /><path d="M 27.93,8.68 L 27.04,9.13 L 27.04,10.21 L 27.10,10.21 L 27.93,9.80 Z" fill="#1b2312" stroke="none" /><path d="M 15.27,30.54 L 15.20,30.54 L 14.41,30.95 L 14.41,32.00 L 14.47,32.00 L 15.27,31.59 Z" fill="#1e2814" stroke="none" /><path d="M 16.19,27.86 L 16.13,27.86 L 15.27,28.31 L 15.27,29.42 L 16.19,28.98 Z" fill="#1e2814" stroke="none" /><path d="M 18.89,27.61 L 17.97,28.06 L 17.97,29.14 L 17.91,29.20 L 17.08,29.61 L 17.08,30.66 L 17.15,30.66 L 17.97,30.25 L 17.97,29.20 L 18.04,29.14 L 18.89,28.72 Z" fill="#1e2814" stroke="none" /><path d="M 15.27,25.00 L 15.20,25.00 L 14.41,25.42 L 14.41,26.53 L 15.27,26.12 Z" fill="#1e2814" stroke="none" /><path d="M 22.52,24.68 L 21.60,25.13 L 21.60,26.24 L 21.66,26.24 L 22.52,25.80 Z" fill="#1e2814" stroke="none" /><path d="M 26.15,23.98 L 24.33,24.87 L 24.33,25.99 L 26.15,25.10 Z" fill="#1e2814" stroke="none" /><path d="M 21.60,21.82 L 20.71,22.27 L 20.71,23.38 L 21.60,22.93 Z" fill="#1e2814" stroke="none" /><path d="M 24.33,21.57 L 22.52,22.46 L 22.52,23.57 L 24.33,22.68 Z" fill="#1e2814" stroke="none" /><path d="M 28.82,20.42 L 27.93,20.87 L 27.93,21.95 L 27.86,22.01 L 27.04,22.43 L 27.04,23.54 L 27.93,23.09 L 27.93,22.01 L 27.99,21.95 L 28.82,21.53 Z" fill="#1e2814" stroke="none" /><path d="M 20.71,17.84 L 20.64,17.84 L 19.79,18.29 L 19.79,19.37 L 19.72,19.44 L 18.89,19.85 L 18.89,20.96 L 19.79,20.52 L 19.79,19.44 L 19.85,19.37 L 20.71,18.96 Z" fill="#1e2814" stroke="none" /><path d="M 24.27,17.15 L 23.41,17.59 L 23.41,18.70 L 24.30,18.26 L 24.33,18.29 L 24.33,20.45 L 24.37,20.45 L 25.22,20.01 L 25.22,17.81 L 25.16,17.81 L 24.37,18.23 L 24.33,18.19 L 24.33,17.15 Z" fill="#1e2814" stroke="none" /><path d="M 16.19,16.76 L 15.27,17.21 L 15.27,18.32 L 15.33,18.32 L 16.19,17.88 Z" fill="#1e2814" stroke="none" /><path d="M 18.89,16.54 L 18.83,16.54 L 17.97,16.99 L 17.97,18.07 L 18.04,18.07 L 18.89,17.62 Z" fill="#1e2814" stroke="none" /><path d="M 23.41,15.36 L 22.52,15.81 L 22.52,16.92 L 23.41,16.48 Z" fill="#1e2814" stroke="none" /><path d="M 20.71,14.50 L 19.79,14.95 L 19.79,16.06 L 19.85,16.06 L 20.71,15.62 Z" fill="#1e2814" stroke="none" /><path d="M 17.08,14.12 L 17.02,14.12 L 16.19,14.54 L 16.19,15.65 L 17.08,15.20 Z" fill="#1e2814" stroke="none" /><path d="M 28.82,12.66 L 27.93,13.11 L 27.93,14.22 L 28.82,13.77 Z" fill="#1e2814" stroke="none" /><path d="M 26.15,11.80 L 26.08,11.80 L 25.22,12.25 L 25.22,13.33 L 25.16,13.39 L 24.33,13.81 L 24.33,14.89 L 24.40,14.89 L 25.22,14.47 L 25.22,13.39 L 25.29,13.33 L 26.15,12.91 Z" fill="#1e2814" stroke="none" /><path d="M 24.33,10.50 L 24.27,10.50 L 23.41,10.94 L 23.41,12.02 L 23.48,12.02 L 24.33,11.58 Z" fill="#1e2814" stroke="none" /><path d="M 10.85,29.17 L 10.85,30.25 L 12.56,31.11 L 12.63,31.11 L 12.63,30.06 Z" fill="#242e18" stroke="none" /><path d="M 8.11,27.80 L 8.11,28.88 L 9.03,29.33 L 9.03,28.25 Z" fill="#242e18" stroke="none" /><path d="M 0.89,23.09 L 0.89,24.21 L 1.72,24.62 L 1.78,24.62 L 1.78,23.54 Z" fill="#242e18" stroke="none" /><path d="M 14.41,23.19 L 13.55,22.78 L 13.55,24.94 L 13.52,24.97 L 10.88,23.63 L 10.85,23.63 L 10.85,25.80 L 10.82,25.83 L 9.03,24.94 L 9.03,27.17 L 9.92,27.61 L 9.92,26.56 L 9.99,26.53 L 10.78,26.94 L 10.85,26.94 L 10.85,25.89 L 10.88,25.86 L 11.74,26.31 L 11.74,27.42 L 13.55,28.31 L 13.55,25.03 L 13.58,25.00 L 14.41,25.42 Z" fill="#242e18" stroke="none" /><path d="M 7.22,19.63 L 7.22,21.82 L 8.97,22.71 L 9.03,22.71 L 9.03,21.60 L 8.17,21.18 L 8.11,21.12 L 8.11,20.04 L 7.28,19.63 Z" fill="#242e18" stroke="none" /><path d="M 3.59,18.89 L 3.59,19.94 L 3.56,19.98 L 2.74,19.56 L 2.67,19.56 L 2.67,20.61 L 2.64,20.64 L 1.84,20.23 L 1.78,20.23 L 1.78,22.43 L 3.59,23.35 L 3.59,24.46 L 4.49,24.91 L 4.49,25.99 L 4.52,26.02 L 5.34,26.43 L 5.41,26.43 L 5.41,25.42 L 5.47,25.38 L 7.16,26.24 L 7.22,26.24 L 7.22,24.02 L 6.30,23.57 L 6.30,24.62 L 6.27,24.65 L 5.41,24.24 L 5.41,25.29 L 5.38,25.32 L 4.52,24.91 L 4.49,24.87 L 4.49,23.76 L 3.59,23.32 L 3.59,22.20 L 2.74,21.79 L 2.67,21.73 L 2.67,20.71 L 2.70,20.68 L 4.49,21.57 L 4.49,19.34 Z" fill="#242e18" stroke="none" /><path d="M 9.92,18.74 L 9.92,19.85 L 10.85,20.33 L 10.85,21.44 L 11.67,21.85 L 11.74,21.85 L 11.74,20.74 L 10.85,20.29 L 10.85,19.18 Z" fill="#242e18" stroke="none" /><path d="M 5.41,18.70 L 5.41,19.82 L 6.23,20.23 L 6.30,20.23 L 6.30,19.15 Z" fill="#242e18" stroke="none" /><path d="M 0.89,17.56 L 0.89,18.67 L 1.72,19.09 L 1.78,19.09 L 1.78,17.97 L 0.95,17.56 Z" fill="#242e18" stroke="none" /><path d="M 7.22,15.17 L 7.22,16.22 L 7.19,16.25 L 6.30,15.81 L 6.30,16.92 L 8.05,17.81 L 8.11,17.81 L 8.11,15.62 Z" fill="#242e18" stroke="none" /><path d="M 9.92,14.31 L 9.92,15.36 L 9.89,15.40 L 9.10,14.98 L 9.03,14.98 L 9.03,16.10 L 9.86,16.51 L 9.92,16.51 L 9.92,15.46 L 9.96,15.43 L 11.67,16.29 L 11.74,16.35 L 11.74,17.43 L 12.56,17.84 L 12.63,17.91 L 12.63,18.93 L 12.60,18.96 L 11.80,18.54 L 11.74,18.54 L 11.74,19.66 L 13.55,20.55 L 13.55,18.32 L 12.69,17.91 L 12.63,17.84 L 12.63,16.76 L 11.80,16.35 L 11.74,16.29 L 11.74,15.20 L 9.99,14.31 Z" fill="#242e18" stroke="none" /><path d="M 4.52,13.81 L 4.49,13.81 L 4.49,14.85 L 4.45,14.89 L 3.66,14.47 L 3.59,14.47 L 3.59,15.59 L 4.42,16.00 L 4.49,16.00 L 4.49,14.95 L 4.52,14.92 L 5.41,15.36 L 5.41,14.25 Z" fill="#242e18" stroke="none" /><path d="M 12.63,13.49 L 12.63,14.57 L 13.49,14.98 L 13.55,15.05 L 13.55,17.24 L 14.41,17.65 L 14.41,14.38 Z" fill="#242e18" stroke="none" /><path d="M 10.85,12.60 L 10.85,13.68 L 11.67,14.09 L 11.74,14.09 L 11.74,13.04 Z" fill="#242e18" stroke="none" /><path d="M 0.89,12.02 L 0.89,14.22 L 1.72,14.63 L 1.78,14.70 L 1.78,15.71 L 1.75,15.75 L 0.89,15.33 L 0.89,16.45 L 2.67,17.34 L 2.67,15.11 L 1.84,14.70 L 1.78,14.63 L 1.78,12.44 L 0.95,12.02 Z" fill="#242e18" stroke="none" /><path d="M 7.25,10.78 L 7.22,10.78 L 7.22,11.80 L 7.19,11.83 L 6.30,11.39 L 6.30,13.61 L 7.19,14.06 L 7.22,14.06 L 7.22,11.90 L 7.25,11.86 L 9.03,12.76 L 9.03,11.67 Z" fill="#242e18" stroke="none" /><path d="M 0.89,8.68 L 0.89,9.80 L 1.72,10.21 L 1.78,10.21 L 1.78,9.13 Z" fill="#242e18" stroke="none" /><path d="M 2.67,8.52 L 2.67,9.57 L 3.59,10.05 L 3.59,11.07 L 3.56,11.10 L 2.74,10.69 L 2.67,10.69 L 2.67,11.80 L 4.49,12.69 L 4.49,11.64 L 4.52,11.61 L 5.34,12.02 L 5.41,12.02 L 5.41,10.94 L 3.63,10.05 L 3.59,10.02 L 3.59,8.97 L 2.74,8.52 Z" fill="#242e18" stroke="none" /><path d="M 17.97,28.09 L 17.91,28.09 L 17.08,28.50 L 17.08,29.61 L 17.97,29.17 Z" fill="#243018" stroke="none" /><path d="M 22.52,25.80 L 21.60,26.24 L 21.60,27.36 L 22.52,26.91 Z" fill="#243018" stroke="none" /><path d="M 19.79,23.86 L 19.72,23.86 L 18.89,24.27 L 18.89,25.38 L 19.79,24.94 Z" fill="#243018" stroke="none" /><path d="M 28.82,21.53 L 27.93,21.98 L 27.93,23.09 L 28.82,22.65 Z" fill="#243018" stroke="none" /><path d="M 19.79,18.29 L 18.89,18.74 L 18.89,19.85 L 19.79,19.40 Z" fill="#243018" stroke="none" /><path d="M 24.33,18.26 L 24.27,18.26 L 23.41,18.70 L 23.41,19.79 L 23.48,19.79 L 24.33,19.34 Z" fill="#243018" stroke="none" /><path d="M 17.97,16.99 L 17.08,17.43 L 17.08,18.51 L 17.15,18.51 L 17.97,18.10 Z" fill="#243018" stroke="none" /><path d="M 25.22,12.25 L 24.33,12.69 L 24.33,13.81 L 25.22,13.36 Z" fill="#243018" stroke="none" /><path d="M 13.55,30.54 L 13.55,31.59 L 14.35,32.00 L 14.41,32.00 L 14.41,30.95 L 13.61,30.54 Z" fill="#2c391d" stroke="none" /><path d="M 9.92,28.72 L 9.92,29.77 L 10.78,30.22 L 10.85,30.22 L 10.85,29.17 L 9.99,28.72 Z" fill="#2c391d" stroke="none" /><path d="M 6.30,25.80 L 6.30,26.91 L 7.22,27.36 L 7.22,26.24 Z" fill="#2c391d" stroke="none" /><path d="M 3.59,25.54 L 3.59,26.62 L 5.41,27.51 L 5.41,26.43 Z" fill="#2c391d" stroke="none" /><path d="M 8.11,24.49 L 8.11,25.61 L 9.03,26.05 L 9.03,24.94 L 8.17,24.49 Z" fill="#2c391d" stroke="none" /><path d="M 12.63,23.41 L 12.63,24.52 L 13.55,25.00 L 13.55,26.12 L 14.41,26.53 L 14.41,25.42 L 13.55,24.97 L 13.55,23.86 Z" fill="#2c391d" stroke="none" /><path d="M 10.88,22.52 L 10.85,22.52 L 10.85,23.57 L 10.82,23.60 L 9.99,23.19 L 9.92,23.19 L 9.92,24.30 L 10.82,24.75 L 10.85,24.75 L 10.85,23.70 L 10.88,23.67 L 11.74,24.08 L 11.74,22.97 Z" fill="#2c391d" stroke="none" /><path d="M 0.89,20.87 L 0.89,21.98 L 1.72,22.39 L 1.78,22.46 L 1.78,23.54 L 2.67,23.98 L 2.67,22.87 L 1.84,22.46 L 1.78,22.39 L 1.78,21.31 Z" fill="#2c391d" stroke="none" /><path d="M 4.52,20.45 L 4.49,20.45 L 4.49,21.50 L 4.45,21.53 L 3.59,21.12 L 3.59,22.23 L 4.42,22.65 L 4.49,22.65 L 4.49,21.63 L 4.52,21.60 L 5.34,22.01 L 5.41,22.01 L 5.41,20.90 Z" fill="#2c391d" stroke="none" /><path d="M 6.30,20.26 L 6.30,21.38 L 7.16,21.79 L 7.22,21.85 L 7.22,22.93 L 8.11,23.38 L 8.11,22.27 L 7.28,21.85 L 7.22,21.79 L 7.22,20.71 L 6.36,20.26 Z" fill="#2c391d" stroke="none" /><path d="M 12.63,20.10 L 12.63,21.22 L 14.35,22.08 L 14.41,22.08 L 14.41,20.96 L 12.69,20.10 Z" fill="#2c391d" stroke="none" /><path d="M 9.92,19.85 L 9.92,20.96 L 10.78,21.41 L 10.85,21.41 L 10.85,20.29 Z" fill="#2c391d" stroke="none" /><path d="M 0.00,17.11 L 0.00,18.23 L 0.83,18.64 L 0.89,18.64 L 0.89,17.53 L 0.06,17.11 Z" fill="#2c391d" stroke="none" /><path d="M 2.67,16.22 L 2.67,17.27 L 2.64,17.30 L 1.78,16.89 L 1.78,18.00 L 3.59,18.89 L 3.59,16.67 Z" fill="#2c391d" stroke="none" /><path d="M 9.92,16.51 L 9.10,16.10 L 9.03,16.10 L 9.03,18.23 L 9.00,18.26 L 7.28,17.40 L 7.22,17.40 L 7.22,18.45 L 7.19,18.48 L 5.41,17.59 L 5.41,18.70 L 7.16,19.59 L 7.22,19.59 L 7.22,18.54 L 7.25,18.51 L 9.03,19.40 L 9.03,18.35 L 9.07,18.32 L 9.92,18.74 Z" fill="#2c391d" stroke="none" /><path d="M 12.63,14.57 L 12.63,15.65 L 13.49,16.10 L 13.55,16.10 L 13.55,15.01 L 12.69,14.57 Z" fill="#2c391d" stroke="none" /><path d="M 1.78,12.47 L 1.78,13.55 L 2.61,13.96 L 2.67,14.03 L 2.67,15.11 L 3.53,15.55 L 3.59,15.55 L 3.59,14.44 L 2.74,14.03 L 2.67,13.96 L 2.67,12.88 L 1.84,12.47 Z" fill="#2c391d" stroke="none" /><path d="M 3.59,12.25 L 3.59,13.36 L 4.49,13.81 L 4.49,12.69 Z" fill="#2c391d" stroke="none" /><path d="M 5.41,12.06 L 5.41,13.17 L 6.30,13.61 L 6.30,14.73 L 7.22,15.17 L 7.22,14.06 L 6.30,13.58 L 6.30,12.47 L 5.47,12.06 Z" fill="#2c391d" stroke="none" /><path d="M 9.10,11.71 L 9.03,11.71 L 9.03,12.69 L 9.00,12.72 L 8.17,12.31 L 8.11,12.31 L 8.11,13.39 L 8.97,13.84 L 9.03,13.84 L 9.03,12.82 L 9.07,12.79 L 9.92,13.20 L 9.92,12.12 Z" fill="#2c391d" stroke="none" /><path d="M 0.00,10.47 L 0.00,12.66 L 0.89,13.11 L 0.89,10.88 L 0.06,10.47 Z" fill="#2c391d" stroke="none" /><path d="M 4.49,9.42 L 3.59,8.97 L 3.59,9.99 L 3.56,10.02 L 2.67,9.57 L 2.67,10.62 L 2.64,10.66 L 1.84,10.24 L 1.78,10.24 L 1.78,11.36 L 2.61,11.77 L 2.67,11.77 L 2.67,10.72 L 2.70,10.69 L 3.59,11.13 L 3.59,10.08 L 3.63,10.05 L 4.42,10.47 L 4.49,10.47 Z" fill="#2c391d" stroke="none" /><path d="M 0.00,7.19 L 0.00,8.24 L 0.89,8.68 L 0.89,7.60 L 0.06,7.19 Z" fill="#2c391d" stroke="none" /><path d="M 9.92,27.61 L 9.92,28.72 L 11.74,29.61 L 11.74,28.50 Z" fill="#314020" stroke="none" /><path d="M 13.58,27.20 L 13.55,27.20 L 13.55,28.25 L 13.52,28.28 L 12.69,27.86 L 12.63,27.86 L 12.63,28.98 L 13.52,29.42 L 13.55,29.42 L 13.55,28.37 L 13.58,28.34 L 14.35,28.72 L 14.41,28.72 L 14.41,27.61 Z" fill="#314020" stroke="none" /><path d="M 7.22,25.16 L 7.22,26.27 L 8.05,26.69 L 8.11,26.69 L 8.11,25.57 L 7.28,25.16 Z" fill="#314020" stroke="none" /><path d="M 3.66,24.46 L 3.59,24.46 L 3.59,25.48 L 3.56,25.51 L 2.74,25.10 L 2.67,25.10 L 2.67,26.15 L 3.53,26.59 L 3.59,26.59 L 3.59,25.61 L 3.63,25.57 L 4.49,25.99 L 4.49,24.87 Z" fill="#314020" stroke="none" /><path d="M 0.00,23.76 L 0.00,24.81 L 0.89,25.26 L 0.89,24.17 L 0.06,23.76 Z" fill="#314020" stroke="none" /><path d="M 8.11,23.38 L 8.11,24.49 L 9.92,25.38 L 9.92,24.27 Z" fill="#314020" stroke="none" /><path d="M 0.89,21.98 L 0.89,23.09 L 1.78,23.54 L 1.78,22.43 Z" fill="#314020" stroke="none" /><path d="M 6.30,21.38 L 6.30,22.49 L 7.22,22.93 L 7.22,21.82 L 6.36,21.38 Z" fill="#314020" stroke="none" /><path d="M 13.55,19.44 L 13.55,20.55 L 14.35,20.96 L 14.41,20.96 L 14.41,19.85 Z" fill="#314020" stroke="none" /><path d="M 9.03,19.40 L 9.03,20.52 L 9.86,20.93 L 9.92,20.99 L 9.92,23.19 L 10.85,23.63 L 10.85,21.41 L 9.99,20.99 L 9.92,20.93 L 9.92,19.85 Z" fill="#314020" stroke="none" /><path d="M 0.00,18.23 L 0.00,19.34 L 0.83,19.75 L 0.89,19.75 L 0.89,18.64 L 0.06,18.23 Z" fill="#314020" stroke="none" /><path d="M 8.11,16.73 L 8.11,17.84 L 9.03,18.29 L 9.03,17.18 L 8.17,16.73 Z" fill="#314020" stroke="none" /><path d="M 5.44,16.48 L 5.41,16.48 L 5.41,17.53 L 5.38,17.56 L 4.55,17.15 L 4.49,17.15 L 4.49,18.26 L 5.38,18.70 L 5.41,18.70 L 5.41,17.65 L 5.44,17.62 L 6.30,18.04 L 6.30,16.92 Z" fill="#314020" stroke="none" /><path d="M 10.88,15.87 L 10.85,15.87 L 10.85,16.92 L 10.82,16.95 L 9.99,16.54 L 9.92,16.54 L 9.92,17.62 L 10.78,18.07 L 10.85,18.07 L 10.85,17.05 L 10.88,17.02 L 11.74,17.43 L 11.74,16.32 Z" fill="#314020" stroke="none" /><path d="M 3.59,13.36 L 3.59,14.47 L 4.42,14.89 L 4.49,14.89 L 4.49,13.81 Z" fill="#314020" stroke="none" /><path d="M 5.41,13.17 L 5.41,14.28 L 6.23,14.70 L 6.30,14.70 L 6.30,13.58 L 5.47,13.17 Z" fill="#314020" stroke="none" /><path d="M 9.03,12.76 L 9.03,13.87 L 9.86,14.28 L 9.92,14.28 L 9.92,13.20 Z" fill="#314020" stroke="none" /><path d="M 0.89,10.91 L 0.89,12.02 L 1.72,12.44 L 1.78,12.44 L 1.78,11.32 L 0.95,10.91 Z" fill="#314020" stroke="none" /><path d="M 1.78,9.13 L 1.78,10.24 L 2.61,10.66 L 2.67,10.66 L 2.67,9.57 Z" fill="#314020" stroke="none" /><path d="M 11.77,13.01 L 11.77,13.07 L 14.38,14.38 L 14.44,14.38 L 16.16,13.52 L 16.13,13.46 L 15.36,13.07 L 15.27,13.07 L 14.41,13.52 L 12.66,12.63 L 12.53,12.63 Z" fill="#384725" stroke="none" /><path d="M 17.97,12.56 L 17.11,12.15 L 16.22,12.60 L 16.22,12.63 L 17.05,13.04 L 17.11,13.04 L 17.94,12.63 Z" fill="#384725" stroke="none" /><path d="M 12.63,11.67 L 12.63,11.74 L 13.46,12.15 L 13.55,12.15 L 14.38,11.74 L 14.38,11.67 L 13.55,11.26 L 13.46,11.26 Z" fill="#384725" stroke="none" /><path d="M 12.60,10.78 L 11.77,10.37 L 11.64,10.37 L 9.92,11.23 L 9.92,11.29 L 11.64,12.15 L 11.74,12.15 L 12.56,11.74 L 12.56,11.67 L 11.74,11.26 L 11.80,11.20 L 12.60,10.82 Z" fill="#384725" stroke="none" /><path d="M 17.11,10.34 L 16.22,9.89 L 15.36,10.31 L 15.33,10.37 L 16.13,10.75 L 16.16,10.82 L 14.44,11.67 L 14.44,11.74 L 15.27,12.15 L 15.36,12.15 L 17.08,11.29 L 17.11,11.23 L 16.32,10.85 L 16.29,10.78 L 17.11,10.37 Z" fill="#384725" stroke="none" /><path d="M 19.88,9.00 L 19.79,9.00 L 18.96,9.42 L 18.96,9.48 L 20.68,10.34 L 20.64,10.40 L 18.96,11.23 L 18.96,11.29 L 19.72,11.67 L 19.85,11.67 L 21.57,10.82 L 21.57,10.75 L 20.83,10.40 L 20.80,10.34 L 21.63,9.92 L 21.60,9.86 Z" fill="#384725" stroke="none" /><path d="M 11.74,9.42 L 11.74,9.48 L 12.56,9.89 L 12.66,9.89 L 13.49,9.48 L 13.49,9.42 L 12.66,9.00 L 12.56,9.00 Z" fill="#384725" stroke="none" /><path d="M 9.92,9.42 L 9.92,9.48 L 10.75,9.89 L 10.85,9.89 L 11.67,9.48 L 11.67,9.42 L 10.85,9.00 L 10.75,9.00 Z" fill="#384725" stroke="none" /><path d="M 18.00,8.08 L 17.11,7.63 L 15.33,8.52 L 15.33,8.56 L 17.08,9.45 L 17.15,9.45 L 18.00,9.00 L 18.00,8.97 L 17.18,8.56 L 17.21,8.49 L 18.00,8.11 Z" fill="#384725" stroke="none" /><path d="M 21.66,9.00 L 22.52,9.45 L 22.58,9.45 L 24.33,8.56 L 24.40,8.56 L 25.19,8.97 L 25.26,8.97 L 26.08,8.56 L 26.12,8.49 L 25.26,8.08 L 24.40,8.52 L 24.33,8.52 L 23.57,8.14 L 23.51,8.08 L 24.33,7.67 L 24.33,7.60 L 23.51,7.19 L 23.41,7.19 L 21.66,8.08 L 21.66,8.11 L 22.49,8.52 L 22.46,8.59 L 21.66,8.97 Z" fill="#384725" stroke="none" /><path d="M 25.29,7.16 L 25.32,7.22 L 26.15,7.63 L 26.21,7.63 L 27.07,7.19 L 27.07,7.16 L 26.24,6.74 L 26.12,6.74 Z" fill="#384725" stroke="none" /><path d="M 19.79,6.30 L 18.96,6.71 L 18.99,6.78 L 19.72,7.13 L 19.79,7.19 L 18.96,7.60 L 18.96,7.67 L 19.79,8.08 L 19.88,8.08 L 20.71,7.67 L 20.71,7.60 L 19.88,7.19 L 19.94,7.13 L 20.74,6.74 L 20.74,6.71 L 19.91,6.30 Z" fill="#384725" stroke="none" /><path d="M 10.82,7.16 L 10.82,7.22 L 11.64,7.63 L 11.74,7.63 L 12.60,7.19 L 13.46,7.63 L 13.55,7.63 L 14.38,7.22 L 14.38,7.16 L 12.66,6.30 L 12.53,6.30 Z" fill="#384725" stroke="none" /><path d="M 14.41,6.27 L 14.41,6.30 L 15.30,6.74 L 16.22,6.30 L 16.22,6.27 L 15.33,5.82 Z" fill="#384725" stroke="none" /><path d="M 4.42,5.79 L 3.66,5.41 L 3.53,5.41 L 1.81,6.27 L 1.81,6.33 L 2.58,6.71 L 2.70,6.71 L 4.42,5.85 Z" fill="#384725" stroke="none" /><path d="M 7.13,5.38 L 6.30,5.79 L 6.30,5.85 L 7.13,6.27 L 7.06,6.33 L 6.27,6.71 L 6.27,6.74 L 7.06,7.13 L 7.13,7.19 L 6.30,7.60 L 6.30,7.67 L 7.09,8.05 L 7.13,8.08 L 7.06,8.14 L 6.30,8.52 L 6.23,8.52 L 5.47,8.14 L 5.41,8.08 L 5.44,8.05 L 6.23,7.67 L 6.23,7.60 L 5.41,7.19 L 5.31,7.19 L 3.59,8.05 L 3.56,8.11 L 6.20,9.42 L 6.23,9.45 L 6.20,9.48 L 5.41,9.86 L 5.41,9.89 L 7.19,10.78 L 7.25,10.78 L 8.08,10.37 L 8.08,10.34 L 6.30,9.45 L 8.97,8.11 L 8.94,8.05 L 7.22,7.19 L 7.28,7.13 L 8.97,6.30 L 8.97,6.27 L 7.19,5.38 Z" fill="#384725" stroke="none" /><path d="M 21.69,5.34 L 21.69,5.41 L 23.41,6.27 L 23.51,6.27 L 24.33,5.85 L 24.33,5.79 L 22.62,4.93 L 22.52,4.93 Z" fill="#384725" stroke="none" /><path d="M 5.41,4.52 L 6.27,4.93 L 7.16,4.49 L 7.16,4.45 L 6.33,4.04 L 6.27,4.04 L 5.44,4.45 Z" fill="#384725" stroke="none" /><path d="M 21.66,4.45 L 20.74,4.01 L 18.96,4.90 L 18.96,4.93 L 20.71,5.82 L 20.80,5.82 L 21.63,5.41 L 21.63,5.34 L 20.80,4.93 L 20.87,4.87 L 21.66,4.49 Z" fill="#384725" stroke="none" /><path d="M 18.07,3.53 L 18.07,3.59 L 18.89,4.01 L 18.99,4.01 L 19.82,3.59 L 19.82,3.53 L 18.99,3.12 L 18.89,3.12 Z" fill="#384725" stroke="none" /><path d="M 17.11,3.09 L 15.33,2.19 L 13.55,3.09 L 13.46,3.09 L 12.66,2.67 L 12.53,2.67 L 11.74,3.09 L 11.64,3.09 L 10.85,2.67 L 10.72,2.67 L 9.89,3.09 L 9.89,3.12 L 10.75,3.56 L 8.97,4.45 L 8.97,4.49 L 10.75,5.38 L 10.82,5.38 L 11.67,4.93 L 11.67,4.90 L 10.85,4.49 L 10.88,4.42 L 11.67,4.04 L 11.64,3.98 L 10.85,3.59 L 10.82,3.56 L 10.85,3.53 L 11.71,3.12 L 12.56,3.56 L 12.63,3.56 L 13.52,3.12 L 14.38,3.56 L 14.44,3.56 L 15.33,3.12 L 16.19,3.56 L 14.41,4.45 L 14.41,4.49 L 16.19,5.38 L 16.25,5.38 L 17.11,4.93 L 17.11,4.90 L 16.29,4.49 L 16.32,4.42 L 17.11,4.04 L 17.11,4.01 L 16.25,3.56 L 17.08,3.15 Z" fill="#384725" stroke="none" /><path d="M 13.52,1.27 L 13.55,1.34 L 14.38,1.75 L 14.44,1.75 L 15.30,1.30 L 15.30,1.27 L 14.47,0.86 L 14.35,0.86 Z" fill="#384725" stroke="none" /><path d="M 13.55,28.31 L 13.55,29.42 L 14.35,29.84 L 14.41,29.84 L 14.41,28.72 Z" fill="#3b4e27" stroke="none" /><path d="M 7.22,26.27 L 7.22,27.36 L 8.11,27.80 L 8.11,26.69 L 7.28,26.27 Z" fill="#3b4e27" stroke="none" /><path d="M 2.67,23.98 L 2.67,25.10 L 3.59,25.54 L 3.59,24.43 Z" fill="#3b4e27" stroke="none" /><path d="M 4.49,21.57 L 4.49,22.68 L 5.41,23.13 L 5.41,22.01 Z" fill="#3b4e27" stroke="none" /><path d="M 9.03,20.52 L 9.03,21.63 L 9.86,22.04 L 9.92,22.04 L 9.92,20.96 Z" fill="#3b4e27" stroke="none" /><path d="M 4.49,16.03 L 4.49,17.15 L 5.41,17.59 L 5.41,16.48 L 4.55,16.03 Z" fill="#3b4e27" stroke="none" /><path d="M 9.92,15.43 L 9.92,16.54 L 10.85,16.99 L 10.85,15.87 L 9.99,15.43 Z" fill="#3b4e27" stroke="none" /><path d="M 2.67,12.91 L 2.67,14.00 L 3.53,14.44 L 3.59,14.44 L 3.59,13.36 L 2.74,12.91 Z" fill="#3b4e27" stroke="none" /><path d="M 13.52,13.04 L 13.55,13.11 L 14.38,13.52 L 14.44,13.52 L 15.30,13.07 L 15.30,13.04 L 14.47,12.63 L 14.35,12.63 Z" fill="#43572c" stroke="none" /><path d="M 18.86,10.37 L 18.04,10.78 L 18.07,10.85 L 18.89,11.26 L 18.07,11.67 L 18.07,11.74 L 18.83,12.12 L 18.96,12.12 L 19.79,11.71 L 19.79,11.67 L 18.96,11.26 L 19.79,10.85 L 19.82,10.78 L 18.99,10.37 Z" fill="#43572c" stroke="none" /><path d="M 10.78,10.78 L 9.96,10.37 L 9.83,10.37 L 8.17,11.20 L 8.14,11.26 L 8.97,11.67 L 9.10,11.67 L 10.75,10.85 Z" fill="#43572c" stroke="none" /><path d="M 6.30,9.42 L 6.30,9.48 L 7.13,9.89 L 7.22,9.89 L 8.05,9.48 L 8.05,9.42 L 7.22,9.00 L 7.13,9.00 Z" fill="#43572c" stroke="none" /><path d="M 4.52,9.42 L 4.52,9.45 L 5.34,9.86 L 5.47,9.86 L 6.23,9.48 L 6.23,9.42 L 5.41,9.00 L 5.31,9.00 Z" fill="#43572c" stroke="none" /><path d="M 18.04,8.97 L 18.07,9.03 L 18.89,9.45 L 18.96,9.45 L 19.82,9.00 L 20.71,9.45 L 20.77,9.45 L 21.63,9.00 L 21.63,8.97 L 20.80,8.56 L 20.68,8.56 L 19.88,8.97 L 19.79,8.97 L 18.99,8.56 L 18.86,8.56 Z" fill="#43572c" stroke="none" /><path d="M 10.82,8.97 L 10.85,9.03 L 11.67,9.45 L 11.74,9.45 L 12.60,9.00 L 12.60,8.97 L 11.77,8.56 L 11.64,8.56 Z" fill="#43572c" stroke="none" /><path d="M 20.77,7.60 L 20.77,7.67 L 21.60,8.08 L 21.69,8.08 L 22.52,7.67 L 22.52,7.60 L 21.69,7.19 L 21.60,7.19 Z" fill="#43572c" stroke="none" /><path d="M 8.94,7.19 L 8.11,7.60 L 8.11,7.67 L 8.94,8.08 L 8.87,8.14 L 8.08,8.52 L 8.08,8.56 L 9.00,9.00 L 9.89,8.56 L 9.89,8.52 L 9.10,8.14 L 9.03,8.08 L 9.86,7.67 L 9.86,7.60 L 9.03,7.19 Z" fill="#43572c" stroke="none" /><path d="M 27.10,7.16 L 27.13,7.22 L 27.90,7.60 L 27.99,7.60 L 28.79,7.19 L 28.79,7.16 L 27.96,6.74 Z" fill="#43572c" stroke="none" /><path d="M 24.43,6.74 L 24.30,6.74 L 23.48,7.16 L 23.51,7.22 L 24.33,7.63 L 23.48,8.08 L 23.48,8.11 L 24.30,8.52 L 24.27,8.59 L 23.48,8.97 L 23.51,9.03 L 24.27,9.42 L 24.37,9.42 L 25.19,9.00 L 25.19,8.94 L 24.46,8.59 L 24.43,8.52 L 25.26,8.11 L 25.22,8.05 L 24.40,7.63 L 25.22,7.22 L 25.26,7.16 Z" fill="#43572c" stroke="none" /><path d="M 0.03,7.16 L 0.06,7.22 L 0.83,7.60 L 0.92,7.60 L 1.72,7.19 L 1.72,7.16 L 0.89,6.74 Z" fill="#43572c" stroke="none" /><path d="M 16.29,6.30 L 16.16,6.30 L 14.44,7.16 L 14.44,7.22 L 15.27,7.63 L 15.20,7.70 L 13.52,8.52 L 13.55,8.59 L 14.38,9.00 L 13.55,9.42 L 13.55,9.48 L 15.27,10.34 L 15.36,10.34 L 16.19,9.92 L 16.16,9.86 L 14.44,9.00 L 16.22,8.11 L 16.22,8.08 L 15.43,7.70 L 15.36,7.63 L 17.11,6.74 L 17.11,6.71 Z" fill="#43572c" stroke="none" /><path d="M 19.85,6.27 L 19.85,6.30 L 20.68,6.71 L 20.80,6.71 L 21.60,6.30 L 21.69,6.30 L 22.49,6.71 L 22.62,6.71 L 23.44,6.30 L 23.41,6.23 L 22.58,5.82 L 22.52,5.82 L 21.66,6.27 L 20.74,5.82 Z" fill="#43572c" stroke="none" /><path d="M 10.78,6.27 L 10.78,6.30 L 11.67,6.74 L 12.56,6.30 L 12.63,6.30 L 13.49,6.74 L 14.41,6.30 L 14.41,6.27 L 13.52,5.82 L 12.63,6.27 L 12.56,6.27 L 11.71,5.82 Z" fill="#43572c" stroke="none" /><path d="M 8.08,5.82 L 8.08,5.85 L 8.91,6.27 L 9.03,6.27 L 9.86,5.85 L 9.83,5.79 L 9.00,5.38 L 8.94,5.38 Z" fill="#43572c" stroke="none" /><path d="M 23.48,5.34 L 23.51,5.41 L 25.22,6.27 L 25.32,6.27 L 26.12,5.85 L 26.12,5.82 L 24.33,4.93 Z" fill="#43572c" stroke="none" /><path d="M 5.34,5.34 L 4.49,4.93 L 3.59,5.38 L 3.59,5.41 L 4.42,5.82 L 4.49,5.82 L 5.31,5.41 Z" fill="#43572c" stroke="none" /><path d="M 19.85,4.45 L 18.93,4.01 L 17.15,4.90 L 17.15,4.93 L 18.89,5.82 L 18.99,5.82 L 19.82,5.41 L 19.82,5.34 L 18.99,4.93 L 19.05,4.87 L 19.85,4.49 Z" fill="#43572c" stroke="none" /><path d="M 14.38,3.56 L 13.52,4.01 L 13.52,4.04 L 14.35,4.45 L 14.31,4.52 L 13.52,4.90 L 13.52,4.93 L 14.38,5.38 L 14.44,5.38 L 15.30,4.93 L 15.30,4.90 L 14.47,4.49 L 14.50,4.42 L 15.30,4.04 L 15.30,4.01 L 14.44,3.56 Z" fill="#43572c" stroke="none" /><path d="M 8.08,4.01 L 8.08,4.04 L 8.91,4.45 L 9.03,4.45 L 9.86,4.04 L 9.83,3.98 L 9.00,3.56 L 8.94,3.56 Z" fill="#43572c" stroke="none" /><path d="M 18.96,3.09 L 18.99,3.15 L 19.82,3.56 L 19.88,3.56 L 20.71,3.15 L 20.71,3.12 L 19.82,2.67 Z" fill="#43572c" stroke="none" /><path d="M 11.67,2.19 L 10.88,1.78 L 10.78,1.78 L 9.07,2.64 L 9.03,2.70 L 9.89,3.12 L 11.67,2.23 Z" fill="#43572c" stroke="none" /><path d="M 13.52,2.19 L 13.52,2.23 L 14.35,2.64 L 14.47,2.64 L 15.27,2.23 L 15.36,2.23 L 16.16,2.64 L 16.29,2.64 L 17.11,2.23 L 17.08,2.16 L 16.25,1.75 L 16.19,1.75 L 15.33,2.19 L 14.44,1.75 L 14.38,1.75 Z" fill="#43572c" stroke="none" /><path d="M 9.03,11.67 L 9.03,11.71 L 9.86,12.12 L 9.99,12.12 L 10.75,11.74 L 10.75,11.67 L 9.92,11.26 L 9.86,11.26 Z" fill="#4b6332" stroke="none" /><path d="M 17.15,11.23 L 17.18,11.29 L 18.00,11.71 L 18.07,11.71 L 18.89,11.29 L 18.89,11.23 L 18.07,10.82 L 17.97,10.82 Z" fill="#4b6332" stroke="none" /><path d="M 14.38,9.89 L 13.52,10.34 L 13.52,10.37 L 14.35,10.78 L 14.31,10.85 L 13.52,11.23 L 13.52,11.26 L 14.38,11.71 L 14.44,11.71 L 15.30,11.26 L 15.30,11.23 L 14.47,10.82 L 14.50,10.75 L 15.30,10.37 L 15.30,10.34 L 14.44,9.89 Z" fill="#4b6332" stroke="none" /><path d="M 14.44,8.97 L 14.44,9.03 L 15.27,9.45 L 15.33,9.45 L 16.19,9.00 L 16.19,8.97 L 15.36,8.56 L 15.27,8.56 Z" fill="#4b6332" stroke="none" /><path d="M 18.93,8.52 L 18.93,8.56 L 19.82,9.00 L 20.74,8.56 L 20.74,8.52 L 19.85,8.08 Z" fill="#4b6332" stroke="none" /><path d="M 9.00,8.08 L 9.00,8.11 L 10.78,9.00 L 11.67,8.56 L 11.74,8.56 L 12.63,9.00 L 13.49,8.56 L 13.49,8.52 L 12.66,8.11 L 12.53,8.11 L 11.74,8.52 L 11.67,8.52 L 9.92,7.63 L 9.86,7.63 Z" fill="#4b6332" stroke="none" /><path d="M 24.40,7.60 L 24.40,7.67 L 25.22,8.08 L 25.32,8.08 L 26.15,7.67 L 26.15,7.60 L 25.32,7.19 L 25.22,7.19 Z" fill="#4b6332" stroke="none" /><path d="M 3.50,7.19 L 2.67,7.60 L 2.67,7.67 L 3.50,8.08 L 3.44,8.14 L 2.70,8.49 L 2.70,8.52 L 3.56,8.97 L 3.63,8.97 L 4.45,8.56 L 4.45,8.52 L 3.66,8.14 L 3.59,8.08 L 4.42,7.67 L 4.42,7.60 L 3.59,7.19 Z" fill="#4b6332" stroke="none" /><path d="M 19.85,7.16 L 19.88,7.22 L 20.71,7.63 L 20.77,7.63 L 21.63,7.19 L 21.63,7.16 L 20.80,6.74 L 20.68,6.74 Z" fill="#4b6332" stroke="none" /><path d="M 23.48,6.27 L 23.48,6.30 L 24.30,6.71 L 24.43,6.71 L 25.26,6.30 L 25.22,6.23 L 24.40,5.82 L 24.33,5.82 Z" fill="#4b6332" stroke="none" /><path d="M 17.11,5.82 L 16.22,6.27 L 16.22,6.30 L 17.02,6.68 L 17.08,6.74 L 16.25,7.16 L 16.25,7.22 L 17.08,7.63 L 17.18,7.63 L 18.00,7.22 L 18.00,7.16 L 17.18,6.74 L 17.24,6.68 L 18.04,6.30 L 18.04,6.27 Z" fill="#4b6332" stroke="none" /><path d="M 10.78,6.27 L 9.86,5.82 L 8.08,6.71 L 8.08,6.74 L 9.00,7.19 L 10.78,6.30 Z" fill="#4b6332" stroke="none" /><path d="M 11.71,5.82 L 11.71,5.85 L 12.53,6.27 L 12.66,6.27 L 13.49,5.85 L 13.46,5.79 L 12.63,5.38 L 12.56,5.38 Z" fill="#4b6332" stroke="none" /><path d="M 6.23,5.79 L 5.41,5.38 L 5.31,5.38 L 3.59,6.23 L 3.56,6.30 L 4.39,6.71 L 4.52,6.71 L 6.23,5.85 Z" fill="#4b6332" stroke="none" /><path d="M 8.08,4.90 L 8.11,4.96 L 8.94,5.38 L 9.00,5.38 L 9.86,4.93 L 9.86,4.90 L 9.03,4.49 L 8.91,4.49 Z" fill="#4b6332" stroke="none" /><path d="M 18.04,2.64 L 18.04,2.67 L 18.93,3.12 L 19.79,2.70 L 19.75,2.64 L 18.93,2.23 L 18.86,2.23 Z" fill="#4b6332" stroke="none" /><path d="M 11.80,1.34 L 11.67,1.34 L 10.85,1.75 L 10.88,1.81 L 11.64,2.19 L 11.58,2.26 L 10.78,2.64 L 10.78,2.67 L 11.67,3.12 L 12.60,2.67 L 12.60,2.64 L 11.80,2.26 L 11.74,2.19 L 12.56,1.78 L 12.56,1.72 Z" fill="#4b6332" stroke="none" /><path d="M 14.44,1.72 L 14.44,1.78 L 15.27,2.19 L 15.36,2.19 L 16.19,1.78 L 16.19,1.72 L 15.36,1.30 L 15.27,1.30 Z" fill="#4b6332" stroke="none" /><path d="M 13.58,0.38 L 13.58,0.45 L 14.35,0.83 L 14.47,0.83 L 15.24,0.45 L 15.24,0.38 L 14.47,0.00 L 14.35,0.00 Z" fill="#4b6332" stroke="none" /><path d="M 14.41,10.78 L 14.41,10.82 L 15.30,11.26 L 16.22,10.82 L 16.22,10.78 L 15.33,10.34 Z" fill="#5b783c" stroke="none" /><path d="M 10.82,8.08 L 10.82,8.11 L 11.64,8.52 L 11.77,8.52 L 12.60,8.11 L 12.60,8.08 L 11.71,7.63 Z" fill="#5b783c" stroke="none" /><path d="M 1.78,8.05 L 1.78,8.08 L 2.67,8.52 L 3.53,8.11 L 3.50,8.05 L 2.67,7.63 L 2.61,7.63 Z" fill="#5b783c" stroke="none" /><path d="M 17.15,6.71 L 17.18,6.78 L 18.00,7.19 L 18.07,7.19 L 18.93,6.74 L 18.93,6.71 L 18.10,6.30 L 17.97,6.30 Z" fill="#5b783c" stroke="none" /><path d="M 20.74,6.71 L 20.74,6.74 L 21.63,7.19 L 22.55,6.74 L 22.55,6.71 L 21.66,6.27 Z" fill="#5b783c" stroke="none" /><path d="M 12.60,4.45 L 12.60,4.49 L 13.49,4.93 L 14.41,4.49 L 14.41,4.45 L 13.52,4.01 Z" fill="#5b783c" stroke="none" /><path d="M 7.16,4.45 L 7.16,4.49 L 8.05,4.93 L 8.97,4.49 L 8.97,4.45 L 8.08,4.01 Z" fill="#5b783c" stroke="none" /><path d="M 11.71,2.19 L 11.71,2.23 L 12.53,2.64 L 12.66,2.64 L 13.49,2.23 L 13.46,2.16 L 12.63,1.75 L 12.56,1.75 Z" fill="#5b783c" stroke="none" /></svg>