<svg height="32" width="32" viewBox="0 0 32 32"><defs /><path d="M 0.62,29.28 L 0.62,29.94 L 0.72,30.07 L 0.72,30.11 L 0.83,30.21 L 0.83,30.25 L 0.86,30.25 L 0.86,29.56 L 0.69,29.35 L 0.69,29.32 Z" fill="#111114" stroke="none" /><path d="M 0.62,29.94 L 0.62,30.62 L 0.76,30.80 L 0.76,30.83 L 0.83,30.90 L 0.86,30.90 L 0.86,30.25 L 0.72,30.07 L 0.65,29.94 Z" fill="#121214" stroke="none" /><path d="M 0.58,27.87 L 0.58,28.22 L 0.62,28.25 L 0.62,29.28 L 0.79,29.49 L 0.79,29.52 L 0.86,29.56 L 0.86,28.22 L 0.72,28.04 L 0.65,27.91 Z" fill="#121214" stroke="none" /><path d="M 0.55,8.19 L 0.55,9.53 L 0.65,9.67 L 0.65,9.70 L 0.76,9.81 L 0.76,9.84 L 0.83,9.88 L 0.83,8.84 L 0.79,8.81 L 0.79,8.46 L 0.69,8.36 L 0.62,8.22 Z" fill="#121214" stroke="none" /><path d="M 0.52,3.41 L 0.52,5.92 L 0.55,5.95 L 0.55,7.50 L 0.65,7.64 L 0.65,7.67 L 0.76,7.78 L 0.76,7.81 L 0.79,7.81 L 0.79,3.75 L 0.69,3.61 L 0.69,3.58 L 0.58,3.48 L 0.58,3.44 Z" fill="#121214" stroke="none" /><path d="M 0.58,25.15 L 0.58,27.87 L 0.65,27.94 L 0.72,28.08 L 0.83,28.18 L 0.83,28.22 L 0.86,28.22 L 0.86,25.50 L 0.79,25.43 L 0.72,25.29 L 0.62,25.19 L 0.62,25.15 Z" fill="#121215" stroke="none" /><path d="M 0.55,9.53 L 0.55,10.91 L 0.72,11.11 L 0.72,11.15 L 0.79,11.22 L 0.83,11.22 L 0.83,9.88 L 0.65,9.67 L 0.58,9.53 Z" fill="#121215" stroke="none" /><path d="M 0.55,7.50 L 0.55,8.19 L 0.62,8.26 L 0.69,8.40 L 0.76,8.46 L 0.79,8.46 L 0.79,7.81 L 0.65,7.64 L 0.58,7.50 Z" fill="#121215" stroke="none" /><path d="M 15.55,27.60 L 15.48,27.63 L 15.31,27.63 L 15.28,27.66 L 15.14,27.66 L 15.11,27.70 L 14.93,27.70 L 14.90,27.73 L 14.83,27.73 L 14.83,28.42 L 15.55,28.28 Z" fill="#131315" stroke="none" /><path d="M 0.58,23.12 L 0.58,25.15 L 0.72,25.32 L 0.79,25.46 L 0.86,25.50 L 0.86,23.47 L 0.79,23.40 L 0.72,23.26 L 0.62,23.16 L 0.62,23.12 Z" fill="#131315" stroke="none" /><path d="M 0.58,21.78 L 0.58,22.47 L 0.69,22.57 L 0.69,22.61 L 0.79,22.71 L 0.79,22.74 L 0.86,22.78 L 0.86,22.12 L 0.76,21.99 L 0.76,21.95 L 0.65,21.85 L 0.65,21.82 Z" fill="#131315" stroke="none" /><path d="M 0.58,19.06 L 0.58,19.75 L 0.76,19.96 L 0.76,19.99 L 0.83,20.06 L 0.86,20.06 L 0.86,19.99 L 0.83,19.96 L 0.83,19.34 L 0.72,19.23 L 0.72,19.20 L 0.62,19.10 L 0.62,19.06 Z" fill="#131315" stroke="none" /><path d="M 0.55,14.97 L 0.55,16.31 L 0.69,16.48 L 0.69,16.52 L 0.79,16.62 L 0.79,16.65 L 0.83,16.65 L 0.83,15.28 L 0.72,15.17 L 0.72,15.14 L 0.62,15.04 L 0.62,15.00 Z" fill="#131315" stroke="none" /><path d="M 0.55,13.63 L 0.55,14.28 L 0.69,14.45 L 0.69,14.49 L 0.79,14.59 L 0.79,14.62 L 0.83,14.62 L 0.83,13.94 L 0.65,13.73 L 0.65,13.69 L 0.58,13.63 Z" fill="#131315" stroke="none" /><path d="M 0.55,12.25 L 0.55,12.94 L 0.72,13.14 L 0.72,13.18 L 0.79,13.25 L 0.83,13.25 L 0.83,12.59 L 0.69,12.42 L 0.69,12.39 L 0.58,12.28 L 0.58,12.25 Z" fill="#131315" stroke="none" /><path d="M 0.55,10.91 L 0.55,11.60 L 0.65,11.70 L 0.65,11.73 L 0.76,11.84 L 0.76,11.87 L 0.83,11.91 L 0.83,11.22 L 0.72,11.11 L 0.72,11.08 L 0.62,10.98 L 0.62,10.94 Z" fill="#131315" stroke="none" /><path d="M 1.62,28.11 L 1.45,28.11 L 1.41,28.15 L 1.07,28.18 L 1.03,28.22 L 0.89,28.22 L 0.86,28.25 L 0.86,30.97 L 0.93,30.93 L 1.10,30.93 L 1.14,30.90 L 1.27,30.90 L 1.31,30.86 L 1.48,30.86 L 1.51,30.83 L 1.65,30.83 L 1.69,30.80 L 1.86,30.80 L 1.89,30.76 L 2.03,30.76 L 2.06,30.73 L 2.24,30.73 L 2.27,30.69 L 2.34,30.69 L 2.34,30.04 L 2.48,29.97 L 2.65,29.97 L 2.68,29.94 L 3.03,29.90 L 3.06,29.87 L 3.06,29.21 L 2.89,29.21 L 2.86,29.25 L 2.68,29.25 L 2.65,29.28 L 2.34,29.32 L 2.34,29.97 L 2.24,30.04 L 1.89,30.07 L 1.86,30.11 L 1.69,30.11 L 1.65,30.14 L 1.62,30.11 Z" fill="#131316" stroke="none" /><path d="M 15.55,24.88 L 14.83,25.02 L 14.83,27.01 L 14.76,27.08 L 14.59,27.08 L 14.55,27.11 L 14.42,27.11 L 14.38,27.15 L 14.21,27.15 L 14.18,27.18 L 14.11,27.18 L 14.11,27.87 L 14.18,27.87 L 14.21,27.84 L 14.38,27.84 L 14.42,27.80 L 14.55,27.80 L 14.59,27.77 L 14.76,27.77 L 14.80,27.73 L 14.93,27.73 L 14.97,27.70 L 15.14,27.70 L 15.17,27.66 L 15.31,27.66 L 15.35,27.63 L 15.52,27.63 L 15.55,27.60 Z" fill="#131316" stroke="none" /><path d="M 0.58,22.47 L 0.58,23.12 L 0.72,23.29 L 0.79,23.43 L 0.86,23.47 L 0.86,22.78 L 0.69,22.57 L 0.69,22.54 L 0.62,22.47 Z" fill="#131316" stroke="none" /><path d="M 0.58,19.75 L 0.58,21.78 L 0.76,21.99 L 0.83,22.12 L 0.86,22.12 L 0.86,20.06 L 0.76,19.96 L 0.76,19.92 L 0.65,19.82 L 0.65,19.78 Z" fill="#131316" stroke="none" /><path d="M 0.55,16.31 L 0.55,17.07 L 0.58,17.10 L 0.58,19.06 L 0.72,19.23 L 0.72,19.27 L 0.79,19.34 L 0.83,19.34 L 0.83,16.65 L 0.69,16.48 L 0.69,16.45 L 0.58,16.34 L 0.58,16.31 Z" fill="#131316" stroke="none" /><path d="M 0.55,14.28 L 0.55,14.97 L 0.72,15.17 L 0.72,15.21 L 0.79,15.28 L 0.83,15.28 L 0.83,14.62 L 0.69,14.45 L 0.69,14.42 L 0.58,14.31 L 0.58,14.28 Z" fill="#131316" stroke="none" /><path d="M 0.55,12.94 L 0.55,13.63 L 0.65,13.73 L 0.65,13.76 L 0.76,13.87 L 0.76,13.90 L 0.83,13.94 L 0.83,13.25 L 0.72,13.14 L 0.72,13.11 L 0.62,13.01 L 0.62,12.97 Z" fill="#131316" stroke="none" /><path d="M 0.55,11.60 L 0.55,12.25 L 0.69,12.42 L 0.69,12.46 L 0.79,12.56 L 0.79,12.59 L 0.83,12.59 L 0.83,11.91 L 0.65,11.70 L 0.65,11.66 L 0.58,11.60 Z" fill="#131316" stroke="none" /><path d="M 1.51,3.65 L 1.31,3.65 L 1.27,3.68 L 1.14,3.68 L 1.10,3.72 L 0.93,3.72 L 0.89,3.75 L 0.79,3.75 L 0.79,5.78 L 1.00,5.78 L 1.03,5.75 L 1.17,5.75 L 1.20,5.71 L 1.55,5.68 L 1.55,4.82 L 1.51,4.78 Z" fill="#131316" stroke="none" /><path d="M 15.48,1.10 L 15.31,1.10 L 15.28,1.14 L 15.11,1.14 L 15.07,1.17 L 14.76,1.20 L 14.76,2.58 L 14.83,2.58 L 14.86,2.55 L 15.04,2.55 L 15.07,2.51 L 15.21,2.51 L 15.24,2.48 L 15.42,2.48 L 15.48,2.44 Z" fill="#131316" stroke="none" /><path d="M 1.62,28.77 L 1.62,30.14 L 1.69,30.14 L 1.72,30.11 L 1.89,30.11 L 1.93,30.07 L 2.06,30.07 L 2.10,30.04 L 2.27,30.04 L 2.31,30.00 L 2.34,30.04 L 2.34,30.69 L 3.10,30.55 L 3.10,30.18 L 3.06,30.14 L 3.06,29.87 L 2.99,29.90 L 2.65,29.94 L 2.62,29.97 L 2.44,29.97 L 2.41,30.00 L 2.34,29.97 L 2.34,28.66 L 2.17,28.66 L 2.13,28.70 L 1.96,28.70 L 1.93,28.73 Z" fill="#141416" stroke="none" /><path d="M 14.83,27.73 L 14.76,27.73 L 14.73,27.77 L 14.55,27.77 L 14.52,27.80 L 14.38,27.80 L 14.35,27.84 L 14.18,27.84 L 14.11,27.87 L 14.11,28.56 L 14.18,28.52 L 14.31,28.52 L 14.35,28.49 L 14.52,28.49 L 14.55,28.46 L 14.83,28.42 Z" fill="#141416" stroke="none" /><path d="M 1.58,26.08 L 1.41,26.08 L 1.38,26.12 L 1.20,26.12 L 1.17,26.15 L 0.86,26.18 L 0.86,26.87 L 0.96,26.87 L 1.00,26.84 L 1.17,26.84 L 1.20,26.80 L 1.34,26.80 L 1.38,26.77 L 1.55,26.77 L 1.58,26.74 Z" fill="#141416" stroke="none" /><path d="M 1.55,5.68 L 1.38,5.68 L 1.34,5.71 L 1.17,5.71 L 1.14,5.75 L 1.00,5.75 L 0.96,5.78 L 0.79,5.78 L 0.79,6.47 L 0.96,6.47 L 1.00,6.43 L 1.34,6.40 L 1.38,6.37 L 1.51,6.37 L 1.55,6.33 Z" fill="#141416" stroke="none" /><path d="M 15.48,2.44 L 15.42,2.44 L 15.38,2.48 L 15.21,2.48 L 15.17,2.51 L 15.04,2.51 L 15.00,2.55 L 14.83,2.55 L 14.76,2.58 L 14.76,3.27 L 14.83,3.23 L 15.00,3.23 L 15.04,3.20 L 15.17,3.20 L 15.21,3.17 L 15.38,3.17 L 15.42,3.13 L 15.48,3.13 Z" fill="#141416" stroke="none" /><path d="M 11.15,28.42 L 10.77,28.46 L 10.74,28.49 L 10.60,28.49 L 10.56,28.52 L 10.39,28.52 L 10.36,28.56 L 10.22,28.56 L 10.18,28.59 L 10.01,28.59 L 9.98,28.63 L 9.84,28.63 L 9.81,28.66 L 9.63,28.66 L 9.60,28.70 L 9.46,28.70 L 9.43,28.73 L 9.26,28.73 L 9.22,28.77 L 9.08,28.77 L 9.05,28.80 L 8.88,28.80 L 8.84,28.83 L 8.71,28.83 L 8.67,28.87 L 8.50,28.87 L 8.46,28.90 L 8.33,28.90 L 8.29,28.94 L 8.12,28.94 L 8.09,28.97 L 7.95,28.97 L 7.91,29.01 L 7.74,29.01 L 7.71,29.04 L 7.57,29.04 L 7.54,29.08 L 7.36,29.08 L 7.33,29.11 L 7.19,29.11 L 7.16,29.14 L 6.98,29.14 L 6.95,29.18 L 6.81,29.18 L 6.78,29.21 L 6.61,29.21 L 6.57,29.25 L 6.43,29.25 L 6.40,29.28 L 6.23,29.28 L 6.19,29.32 L 6.06,29.32 L 6.02,29.35 L 5.85,29.35 L 5.82,29.38 L 5.68,29.38 L 5.64,29.42 L 5.47,29.42 L 5.44,29.45 L 5.09,29.49 L 5.06,29.52 L 4.71,29.56 L 4.68,29.59 L 4.34,29.63 L 4.30,29.66 L 3.96,29.69 L 3.92,29.73 L 3.85,29.73 L 3.82,29.69 L 3.82,29.08 L 3.65,29.08 L 3.61,29.11 L 3.44,29.11 L 3.41,29.14 L 3.27,29.14 L 3.23,29.18 L 3.06,29.18 L 3.06,30.18 L 3.10,30.21 L 3.10,30.55 L 3.17,30.55 L 3.20,30.52 L 3.37,30.52 L 3.41,30.49 L 3.54,30.49 L 3.58,30.45 L 3.75,30.45 L 3.78,30.42 L 3.92,30.42 L 3.96,30.38 L 4.13,30.38 L 4.16,30.35 L 4.30,30.35 L 4.34,30.31 L 4.51,30.31 L 4.54,30.28 L 4.68,30.28 L 4.71,30.25 L 4.89,30.25 L 4.92,30.21 L 5.06,30.21 L 5.09,30.18 L 5.26,30.18 L 5.30,30.14 L 5.44,30.14 L 5.47,30.11 L 5.64,30.11 L 5.68,30.07 L 5.82,30.07 L 5.85,30.04 L 6.02,30.04 L 6.06,30.00 L 6.19,30.00 L 6.23,29.97 L 6.40,29.97 L 6.43,29.94 L 6.57,29.94 L 6.61,29.90 L 6.78,29.90 L 6.81,29.87 L 6.95,29.87 L 6.98,29.83 L 7.16,29.83 L 7.19,29.80 L 7.33,29.80 L 7.36,29.76 L 7.54,29.76 L 7.57,29.73 L 7.71,29.73 L 7.74,29.69 L 7.91,29.69 L 7.95,29.66 L 8.09,29.66 L 8.12,29.63 L 8.29,29.63 L 8.33,29.59 L 8.46,29.59 L 8.50,29.56 L 8.67,29.56 L 8.71,29.52 L 8.84,29.52 L 8.88,29.49 L 9.02,29.49 L 9.05,29.45 L 9.22,29.45 L 9.26,29.42 L 9.39,29.42 L 9.43,29.38 L 9.60,29.38 L 9.63,29.35 L 9.77,29.35 L 9.81,29.32 L 9.98,29.32 L 10.01,29.28 L 10.15,29.28 L 10.18,29.25 L 10.36,29.25 L 10.39,29.21 L 10.53,29.21 L 10.56,29.18 L 10.74,29.18 L 10.77,29.14 L 10.91,29.14 L 10.94,29.11 L 11.11,29.11 L 11.15,29.08 Z" fill="#141417" stroke="none" /><path d="M 0.86,26.87 L 0.86,28.25 L 0.93,28.22 L 1.07,28.22 L 1.10,28.18 L 1.27,28.18 L 1.31,28.15 L 1.58,28.11 L 1.62,28.15 L 1.62,28.77 L 1.79,28.77 L 1.82,28.73 L 1.96,28.73 L 2.00,28.70 L 2.17,28.70 L 2.20,28.66 L 2.34,28.66 L 2.37,28.63 L 2.55,28.63 L 2.58,28.59 L 2.72,28.59 L 2.75,28.56 L 2.92,28.56 L 2.96,28.52 L 3.06,28.52 L 3.06,27.84 L 2.79,27.87 L 2.75,27.91 L 2.58,27.91 L 2.55,27.94 L 2.41,27.94 L 2.37,27.97 L 2.20,27.97 L 2.17,28.01 L 2.03,28.01 L 2.00,28.04 L 1.65,28.08 L 1.62,28.04 L 1.62,27.11 L 1.58,27.08 L 1.58,26.74 L 1.51,26.77 L 1.34,26.77 L 1.31,26.80 L 1.17,26.80 L 1.14,26.84 L 0.96,26.84 L 0.93,26.87 Z" fill="#141417" stroke="none" /><path d="M 14.83,25.70 L 14.49,25.74 L 14.45,25.77 L 14.31,25.77 L 14.28,25.81 L 14.11,25.81 L 14.11,27.15 L 14.00,27.22 L 13.83,27.22 L 13.80,27.25 L 13.66,27.25 L 13.63,27.29 L 13.45,27.29 L 13.42,27.32 L 13.35,27.32 L 13.35,28.70 L 13.42,28.66 L 13.56,28.66 L 13.59,28.63 L 13.76,28.63 L 13.80,28.59 L 14.11,28.56 L 14.11,27.22 L 14.25,27.15 L 14.42,27.15 L 14.45,27.11 L 14.80,27.08 L 14.83,27.05 Z" fill="#141417" stroke="none" /><path d="M 15.55,21.47 L 15.48,21.51 L 15.31,21.51 L 15.28,21.54 L 15.14,21.54 L 15.11,21.57 L 14.93,21.57 L 14.90,21.61 L 14.83,21.61 L 14.83,25.02 L 15.11,24.98 L 15.14,24.95 L 15.31,24.95 L 15.35,24.91 L 15.48,24.91 L 15.55,24.88 Z" fill="#141417" stroke="none" /><path d="M 1.58,21.30 L 1.51,21.30 L 1.48,21.33 L 1.31,21.33 L 1.27,21.37 L 1.14,21.37 L 1.10,21.40 L 0.93,21.40 L 0.86,21.44 L 0.86,26.18 L 1.03,26.18 L 1.07,26.15 L 1.20,26.15 L 1.24,26.12 L 1.58,26.08 Z" fill="#141417" stroke="none" /><path d="M 15.52,16.03 L 15.45,16.07 L 15.31,16.07 L 15.28,16.10 L 15.11,16.10 L 15.07,16.14 L 14.80,16.17 L 14.80,18.89 L 15.14,18.86 L 15.17,18.82 L 15.31,18.82 L 15.35,18.79 L 15.48,18.79 L 15.55,18.75 L 15.55,17.38 L 15.52,17.34 Z" fill="#141417" stroke="none" /><path d="M 1.55,15.17 L 1.48,15.21 L 1.34,15.21 L 1.31,15.24 L 1.14,15.24 L 1.10,15.28 L 0.83,15.31 L 0.83,19.99 L 0.86,20.06 L 1.03,20.06 L 1.07,20.03 L 1.20,20.03 L 1.24,19.99 L 1.58,19.96 L 1.58,15.97 L 1.55,15.93 Z" fill="#141417" stroke="none" /><path d="M 1.55,6.33 L 1.48,6.37 L 1.34,6.37 L 1.31,6.40 L 1.14,6.40 L 1.10,6.43 L 0.79,6.47 L 0.79,8.84 L 0.83,8.88 L 0.83,14.62 L 1.00,14.62 L 1.03,14.59 L 1.20,14.59 L 1.24,14.55 L 1.55,14.52 Z" fill="#141417" stroke="none" /><path d="M 3.72,3.23 L 3.58,3.23 L 3.54,3.27 L 3.41,3.27 L 3.37,3.30 L 3.20,3.30 L 3.17,3.34 L 3.03,3.34 L 2.99,3.37 L 2.82,3.37 L 2.79,3.41 L 2.65,3.41 L 2.62,3.44 L 2.44,3.44 L 2.41,3.48 L 2.27,3.48 L 2.24,3.51 L 2.06,3.51 L 2.03,3.54 L 1.89,3.54 L 1.86,3.58 L 1.51,3.61 L 1.51,4.30 L 1.65,4.30 L 1.69,4.27 L 1.82,4.27 L 1.86,4.23 L 2.03,4.23 L 2.06,4.20 L 2.20,4.20 L 2.24,4.16 L 2.41,4.16 L 2.44,4.13 L 2.58,4.13 L 2.62,4.09 L 2.79,4.09 L 2.82,4.06 L 2.96,4.06 L 2.99,4.03 L 3.17,4.03 L 3.20,3.99 L 3.34,3.99 L 3.37,3.96 L 3.72,3.92 L 3.75,3.89 L 3.72,3.82 Z" fill="#141417" stroke="none" /><path d="M 15.48,3.13 L 15.38,3.13 L 15.35,3.17 L 15.17,3.17 L 15.14,3.20 L 15.00,3.20 L 14.97,3.23 L 14.80,3.23 L 14.76,3.27 L 14.76,10.25 L 14.80,10.29 L 14.80,14.83 L 14.86,14.80 L 15.00,14.80 L 15.04,14.76 L 15.21,14.76 L 15.24,14.73 L 15.52,14.69 L 15.52,6.23 L 15.48,6.19 Z" fill="#141417" stroke="none" /><path d="M 10.36,2.03 L 10.18,2.03 L 10.15,2.06 L 9.81,2.10 L 9.77,2.13 L 9.63,2.13 L 9.60,2.17 L 9.43,2.17 L 9.39,2.20 L 9.26,2.20 L 9.22,2.24 L 9.05,2.24 L 9.02,2.27 L 8.88,2.27 L 8.84,2.31 L 8.67,2.31 L 8.64,2.34 L 8.50,2.34 L 8.46,2.37 L 8.33,2.37 L 8.29,2.41 L 8.12,2.41 L 8.09,2.44 L 7.95,2.44 L 7.91,2.48 L 7.74,2.48 L 7.71,2.51 L 7.57,2.51 L 7.54,2.55 L 7.36,2.55 L 7.33,2.58 L 7.19,2.58 L 7.16,2.62 L 6.98,2.62 L 6.95,2.65 L 6.81,2.65 L 6.78,2.68 L 6.61,2.68 L 6.57,2.72 L 6.43,2.72 L 6.40,2.75 L 6.23,2.75 L 6.19,2.79 L 6.06,2.79 L 6.02,2.82 L 5.85,2.82 L 5.82,2.86 L 5.68,2.86 L 5.64,2.89 L 5.30,2.92 L 5.26,2.96 L 5.20,2.96 L 5.20,3.65 L 5.26,3.61 L 5.61,3.58 L 5.64,3.54 L 5.99,3.51 L 6.02,3.48 L 6.19,3.48 L 6.23,3.44 L 6.37,3.44 L 6.40,3.41 L 6.57,3.41 L 6.61,3.37 L 6.74,3.37 L 6.78,3.34 L 6.95,3.34 L 6.98,3.30 L 7.12,3.30 L 7.16,3.27 L 7.33,3.27 L 7.36,3.23 L 7.50,3.23 L 7.54,3.20 L 7.71,3.20 L 7.74,3.17 L 7.88,3.17 L 7.91,3.13 L 8.09,3.13 L 8.12,3.10 L 8.26,3.10 L 8.29,3.06 L 8.46,3.06 L 8.50,3.03 L 8.64,3.03 L 8.67,2.99 L 8.84,2.99 L 8.88,2.96 L 9.02,2.96 L 9.05,2.92 L 9.22,2.92 L 9.26,2.89 L 9.39,2.89 L 9.43,2.86 L 9.60,2.86 L 9.63,2.82 L 9.77,2.82 L 9.81,2.79 L 9.98,2.79 L 10.01,2.75 L 10.15,2.75 L 10.18,2.72 L 10.36,2.72 Z" fill="#141417" stroke="none" /><path d="M 14.76,1.20 L 14.69,1.24 L 14.55,1.24 L 14.52,1.27 L 14.35,1.27 L 14.31,1.31 L 14.18,1.31 L 14.14,1.34 L 13.97,1.34 L 13.94,1.38 L 13.80,1.38 L 13.76,1.41 L 13.59,1.41 L 13.56,1.45 L 13.28,1.48 L 13.28,2.17 L 13.56,2.13 L 13.59,2.10 L 13.76,2.10 L 13.80,2.06 L 13.94,2.06 L 13.97,2.03 L 14.14,2.03 L 14.18,2.00 L 14.31,2.00 L 14.35,1.96 L 14.52,1.96 L 14.55,1.93 L 14.69,1.93 L 14.76,1.89 Z" fill="#141417" stroke="none" /><path d="M 3.06,28.52 L 2.72,28.56 L 2.68,28.59 L 2.55,28.59 L 2.51,28.63 L 2.34,28.63 L 2.34,29.32 L 2.51,29.32 L 2.55,29.28 L 2.68,29.28 L 2.72,29.25 L 3.06,29.21 Z" fill="#151517" stroke="none" /><path d="M 11.91,28.28 L 11.73,28.28 L 11.70,28.32 L 11.53,28.32 L 11.49,28.35 L 11.35,28.35 L 11.32,28.39 L 11.15,28.39 L 11.15,29.08 L 11.49,29.04 L 11.53,29.01 L 11.87,28.97 L 11.91,28.94 Z" fill="#151517" stroke="none" /><path d="M 13.35,27.32 L 13.28,27.32 L 13.25,27.35 L 13.08,27.35 L 13.04,27.39 L 12.90,27.39 L 12.87,27.42 L 12.70,27.42 L 12.63,27.46 L 12.63,28.15 L 12.70,28.11 L 12.87,28.11 L 12.90,28.08 L 13.04,28.08 L 13.08,28.04 L 13.25,28.04 L 13.28,28.01 L 13.35,28.01 Z" fill="#151517" stroke="none" /><path d="M 2.34,25.94 L 2.17,25.94 L 2.13,25.98 L 1.96,25.98 L 1.93,26.01 L 1.79,26.01 L 1.75,26.05 L 1.58,26.05 L 1.58,27.11 L 1.62,27.15 L 1.62,28.11 L 1.69,28.08 L 1.82,28.08 L 1.86,28.04 L 2.03,28.04 L 2.06,28.01 L 2.34,27.97 Z" fill="#151517" stroke="none" /><path d="M 14.83,25.02 L 14.73,25.02 L 14.69,25.05 L 14.55,25.05 L 14.52,25.08 L 14.35,25.08 L 14.31,25.12 L 14.18,25.12 L 14.14,25.15 L 14.07,25.15 L 14.07,25.43 L 14.11,25.46 L 14.11,25.81 L 14.31,25.81 L 14.35,25.77 L 14.49,25.77 L 14.52,25.74 L 14.69,25.74 L 14.73,25.70 L 14.83,25.70 Z" fill="#151517" stroke="none" /><path d="M 15.55,20.82 L 15.38,20.82 L 15.35,20.85 L 15.17,20.85 L 15.14,20.89 L 15.00,20.89 L 14.97,20.92 L 14.80,20.92 L 14.80,21.40 L 14.83,21.44 L 14.83,21.61 L 14.93,21.61 L 14.97,21.57 L 15.14,21.57 L 15.17,21.54 L 15.31,21.54 L 15.35,21.51 L 15.52,21.51 L 15.55,21.47 Z" fill="#151517" stroke="none" /><path d="M 15.55,18.75 L 15.48,18.75 L 15.45,18.79 L 15.31,18.79 L 15.28,18.82 L 15.14,18.82 L 15.11,18.86 L 14.93,18.86 L 14.90,18.89 L 14.80,18.89 L 14.80,19.58 L 14.90,19.58 L 14.93,19.54 L 15.07,19.54 L 15.11,19.51 L 15.28,19.51 L 15.31,19.48 L 15.45,19.48 L 15.48,19.44 L 15.55,19.44 Z" fill="#151517" stroke="none" /><path d="M 15.52,14.69 L 15.38,14.69 L 15.35,14.73 L 15.21,14.73 L 15.17,14.76 L 15.00,14.76 L 14.97,14.80 L 14.83,14.80 L 14.80,14.83 L 14.80,15.48 L 14.97,15.48 L 15.00,15.45 L 15.14,15.45 L 15.17,15.42 L 15.52,15.38 Z" fill="#151517" stroke="none" /><path d="M 4.47,3.10 L 4.34,3.10 L 4.30,3.13 L 3.96,3.17 L 3.92,3.20 L 3.78,3.20 L 3.72,3.23 L 3.72,3.85 L 3.75,3.89 L 3.92,3.89 L 3.96,3.85 L 4.09,3.85 L 4.13,3.82 L 4.47,3.78 Z" fill="#151517" stroke="none" /><path d="M 13.28,1.48 L 12.56,1.62 L 12.56,2.31 L 13.28,2.17 Z" fill="#151517" stroke="none" /><path d="M 14.76,1.89 L 14.69,1.89 L 14.66,1.93 L 14.52,1.93 L 14.49,1.96 L 14.14,2.00 L 14.11,2.03 L 13.94,2.03 L 13.90,2.06 L 13.76,2.06 L 13.73,2.10 L 13.56,2.10 L 13.52,2.13 L 13.38,2.13 L 13.35,2.17 L 13.18,2.17 L 13.14,2.20 L 13.01,2.20 L 12.97,2.24 L 12.80,2.24 L 12.77,2.27 L 12.63,2.27 L 12.59,2.31 L 12.56,2.27 L 12.56,1.62 L 12.46,1.62 L 12.42,1.65 L 12.28,1.65 L 12.25,1.69 L 12.08,1.69 L 12.04,1.72 L 11.91,1.72 L 11.87,1.75 L 11.70,1.75 L 11.66,1.79 L 11.53,1.79 L 11.49,1.82 L 11.32,1.82 L 11.29,1.86 L 11.15,1.86 L 11.11,1.89 L 10.94,1.89 L 10.91,1.93 L 10.77,1.93 L 10.74,1.96 L 10.39,2.00 L 10.36,2.03 L 10.36,2.68 L 10.32,2.72 L 10.15,2.72 L 10.12,2.75 L 9.98,2.75 L 9.94,2.79 L 9.77,2.79 L 9.74,2.82 L 9.60,2.82 L 9.57,2.86 L 9.39,2.86 L 9.36,2.89 L 9.22,2.89 L 9.19,2.92 L 9.02,2.92 L 8.98,2.96 L 8.84,2.96 L 8.81,2.99 L 8.64,2.99 L 8.60,3.03 L 8.46,3.03 L 8.43,3.06 L 8.26,3.06 L 8.22,3.10 L 8.09,3.10 L 8.05,3.13 L 7.88,3.13 L 7.85,3.17 L 7.71,3.17 L 7.67,3.20 L 7.50,3.20 L 7.47,3.23 L 7.33,3.23 L 7.29,3.27 L 7.12,3.27 L 7.09,3.30 L 6.74,3.34 L 6.71,3.37 L 6.57,3.37 L 6.54,3.41 L 6.37,3.41 L 6.33,3.44 L 6.19,3.44 L 6.16,3.48 L 5.99,3.48 L 5.95,3.51 L 5.82,3.51 L 5.78,3.54 L 5.61,3.54 L 5.57,3.58 L 5.44,3.58 L 5.40,3.61 L 5.23,3.61 L 5.20,3.58 L 5.20,2.96 L 5.09,2.96 L 5.06,2.99 L 4.71,3.03 L 4.68,3.06 L 4.54,3.06 L 4.47,3.10 L 4.47,3.75 L 4.44,3.78 L 4.09,3.82 L 4.06,3.85 L 3.92,3.85 L 3.89,3.89 L 3.72,3.89 L 3.68,3.92 L 3.54,3.92 L 3.51,3.96 L 3.34,3.96 L 3.30,3.99 L 3.17,3.99 L 3.13,4.03 L 2.96,4.03 L 2.92,4.06 L 2.79,4.06 L 2.75,4.09 L 2.58,4.09 L 2.55,4.13 L 2.41,4.13 L 2.37,4.16 L 2.20,4.16 L 2.17,4.20 L 2.03,4.20 L 2.00,4.23 L 1.82,4.23 L 1.79,4.27 L 1.51,4.30 L 1.51,4.82 L 1.55,4.85 L 1.55,14.49 L 1.51,14.52 L 1.38,14.52 L 1.34,14.55 L 1.20,14.55 L 1.17,14.59 L 0.83,14.62 L 0.83,15.31 L 0.96,15.31 L 1.00,15.28 L 1.14,15.28 L 1.17,15.24 L 1.34,15.24 L 1.38,15.21 L 1.51,15.21 L 1.55,15.24 L 1.55,15.97 L 1.58,16.00 L 1.58,19.92 L 1.55,19.96 L 1.41,19.96 L 1.38,19.99 L 1.20,19.99 L 1.17,20.03 L 0.86,20.06 L 0.86,21.44 L 0.93,21.44 L 0.96,21.40 L 1.14,21.40 L 1.17,21.37 L 1.31,21.37 L 1.34,21.33 L 1.51,21.33 L 1.55,21.30 L 1.58,21.33 L 1.58,26.05 L 1.79,26.05 L 1.82,26.01 L 2.17,25.98 L 2.20,25.94 L 2.31,25.94 L 2.34,25.98 L 2.34,27.97 L 2.41,27.97 L 2.44,27.94 L 2.58,27.94 L 2.62,27.91 L 2.96,27.87 L 2.99,27.84 L 3.06,27.87 L 3.06,29.18 L 3.27,29.18 L 3.30,29.14 L 3.44,29.14 L 3.48,29.11 L 3.65,29.11 L 3.68,29.08 L 3.78,29.08 L 3.82,29.11 L 3.82,29.73 L 4.16,29.69 L 4.20,29.66 L 4.34,29.66 L 4.37,29.63 L 4.54,29.63 L 4.58,29.59 L 4.71,29.59 L 4.75,29.56 L 4.92,29.56 L 4.95,29.52 L 5.09,29.52 L 5.13,29.49 L 5.30,29.49 L 5.33,29.45 L 5.47,29.45 L 5.51,29.42 L 5.68,29.42 L 5.71,29.38 L 5.85,29.38 L 5.88,29.35 L 6.06,29.35 L 6.09,29.32 L 6.23,29.32 L 6.26,29.28 L 6.43,29.28 L 6.47,29.25 L 6.61,29.25 L 6.64,29.21 L 6.81,29.21 L 6.85,29.18 L 6.98,29.18 L 7.02,29.14 L 7.19,29.14 L 7.23,29.11 L 7.36,29.11 L 7.40,29.08 L 7.57,29.08 L 7.60,29.04 L 7.74,29.04 L 7.78,29.01 L 7.95,29.01 L 7.98,28.97 L 8.12,28.97 L 8.15,28.94 L 8.33,28.94 L 8.36,28.90 L 8.50,28.90 L 8.53,28.87 L 8.71,28.87 L 8.74,28.83 L 8.88,28.83 L 8.91,28.80 L 9.08,28.80 L 9.12,28.77 L 9.26,28.77 L 9.29,28.73 L 9.46,28.73 L 9.50,28.70 L 9.63,28.70 L 9.67,28.66 L 9.84,28.66 L 9.88,28.63 L 10.01,28.63 L 10.05,28.59 L 10.22,28.59 L 10.25,28.56 L 10.60,28.52 L 10.63,28.49 L 10.98,28.46 L 11.01,28.42 L 11.35,28.39 L 11.39,28.35 L 11.73,28.32 L 11.77,28.28 L 11.87,28.28 L 11.91,28.32 L 11.91,28.94 L 12.04,28.94 L 12.08,28.90 L 12.25,28.90 L 12.28,28.87 L 12.42,28.87 L 12.46,28.83 L 12.63,28.83 L 12.66,28.80 L 12.80,28.80 L 12.83,28.77 L 13.01,28.77 L 13.04,28.73 L 13.35,28.70 L 13.35,28.01 L 13.25,28.01 L 13.21,28.04 L 13.04,28.04 L 13.01,28.08 L 12.87,28.08 L 12.83,28.11 L 12.66,28.11 L 12.63,28.08 L 12.63,27.49 L 12.73,27.42 L 12.90,27.42 L 12.94,27.39 L 13.28,27.35 L 13.32,27.32 L 13.66,27.29 L 13.69,27.25 L 13.83,27.25 L 13.87,27.22 L 14.04,27.22 L 14.11,27.18 L 14.11,25.43 L 14.07,25.39 L 14.07,25.19 L 14.21,25.12 L 14.35,25.12 L 14.38,25.08 L 14.55,25.08 L 14.59,25.05 L 14.73,25.05 L 14.76,25.02 L 14.83,25.02 L 14.83,21.40 L 14.80,21.37 L 14.80,20.95 L 14.83,20.92 L 15.00,20.92 L 15.04,20.89 L 15.17,20.89 L 15.21,20.85 L 15.55,20.82 L 15.55,19.44 L 15.28,19.48 L 15.24,19.51 L 15.07,19.51 L 15.04,19.54 L 14.90,19.54 L 14.86,19.58 L 14.80,19.54 L 14.80,16.21 L 14.83,16.17 L 14.93,16.17 L 14.97,16.14 L 15.31,16.10 L 15.35,16.07 L 15.48,16.07 L 15.52,16.03 L 15.52,15.38 L 15.14,15.42 L 15.11,15.45 L 14.97,15.45 L 14.93,15.48 L 14.83,15.48 L 14.80,15.45 L 14.80,10.25 L 14.76,10.22 Z" fill="#151518" stroke="none" /><path d="M 6.95,29.83 L 6.92,29.87 L 6.61,29.90 L 6.68,30.04 L 6.88,30.28 L 6.88,30.86 L 6.85,30.90 L 6.71,30.73 L 6.71,30.69 L 6.64,30.62 L 6.61,30.62 L 6.61,31.28 L 6.74,31.45 L 6.74,31.48 L 6.85,31.59 L 6.92,31.72 L 7.02,31.83 L 7.02,31.86 L 7.09,31.93 L 7.12,31.93 L 7.12,29.83 Z" fill="#3c2f1c" stroke="none" /><path d="M 5.20,2.92 L 4.95,2.62 L 4.71,2.62 L 4.68,2.65 L 4.54,2.65 L 4.51,2.68 L 4.34,2.68 L 4.30,2.72 L 3.96,2.75 L 3.92,2.79 L 3.78,2.79 L 3.75,2.82 L 3.61,2.82 L 3.58,2.86 L 3.41,2.86 L 3.37,2.89 L 3.23,2.89 L 3.20,2.92 L 2.86,2.96 L 2.82,2.99 L 2.75,2.99 L 2.75,3.06 L 2.86,3.17 L 2.86,3.20 L 2.96,3.30 L 2.96,3.34 L 3.03,3.37 L 3.06,3.34 L 3.20,3.34 L 3.23,3.30 L 3.41,3.30 L 3.44,3.27 L 3.58,3.27 L 3.61,3.23 L 3.78,3.23 L 3.82,3.20 L 3.96,3.20 L 3.99,3.17 L 4.16,3.17 L 4.20,3.13 L 4.34,3.13 L 4.37,3.10 L 4.54,3.10 L 4.58,3.06 L 4.71,3.06 L 4.75,3.03 L 5.09,2.99 L 5.13,2.96 L 5.20,2.96 Z" fill="#1a1a1e" stroke="none" /><path d="M 14.00,1.31 L 13.76,1.00 L 13.63,1.00 L 13.59,1.03 L 13.42,1.03 L 13.38,1.07 L 13.04,1.10 L 13.01,1.14 L 12.87,1.14 L 12.83,1.17 L 12.66,1.17 L 12.63,1.20 L 12.49,1.20 L 12.46,1.24 L 12.28,1.24 L 12.25,1.27 L 12.11,1.27 L 12.08,1.31 L 11.91,1.31 L 11.87,1.34 L 11.73,1.34 L 11.70,1.38 L 11.53,1.38 L 11.49,1.41 L 11.35,1.41 L 11.32,1.45 L 11.15,1.45 L 11.11,1.48 L 10.98,1.48 L 10.94,1.51 L 10.77,1.51 L 10.74,1.55 L 10.60,1.55 L 10.56,1.58 L 10.39,1.58 L 10.36,1.62 L 10.22,1.62 L 10.18,1.65 L 10.01,1.65 L 9.98,1.69 L 9.84,1.69 L 9.81,1.72 L 9.63,1.72 L 9.60,1.75 L 9.46,1.75 L 9.43,1.79 L 9.26,1.79 L 9.22,1.82 L 9.08,1.82 L 9.05,1.86 L 8.88,1.86 L 8.84,1.89 L 8.71,1.89 L 8.67,1.93 L 8.50,1.93 L 8.46,1.96 L 8.33,1.96 L 8.29,2.00 L 8.12,2.00 L 8.09,2.03 L 7.95,2.03 L 7.91,2.06 L 7.74,2.06 L 7.71,2.10 L 7.57,2.10 L 7.54,2.13 L 7.36,2.13 L 7.33,2.17 L 7.19,2.17 L 7.16,2.20 L 6.98,2.20 L 6.95,2.24 L 6.81,2.24 L 6.78,2.27 L 6.61,2.27 L 6.57,2.31 L 6.43,2.31 L 6.43,2.41 L 6.54,2.51 L 6.54,2.55 L 6.64,2.65 L 6.64,2.68 L 6.81,2.68 L 6.85,2.65 L 7.19,2.62 L 7.23,2.58 L 7.36,2.58 L 7.40,2.55 L 7.57,2.55 L 7.60,2.51 L 7.74,2.51 L 7.78,2.48 L 7.95,2.48 L 7.98,2.44 L 8.12,2.44 L 8.15,2.41 L 8.33,2.41 L 8.36,2.37 L 8.50,2.37 L 8.53,2.34 L 8.67,2.34 L 8.71,2.31 L 8.88,2.31 L 8.91,2.27 L 9.05,2.27 L 9.08,2.24 L 9.26,2.24 L 9.29,2.20 L 9.43,2.20 L 9.46,2.17 L 9.63,2.17 L 9.67,2.13 L 9.81,2.13 L 9.84,2.10 L 10.01,2.10 L 10.05,2.06 L 10.18,2.06 L 10.22,2.03 L 10.39,2.03 L 10.43,2.00 L 10.56,2.00 L 10.60,1.96 L 10.77,1.96 L 10.80,1.93 L 10.94,1.93 L 10.98,1.89 L 11.15,1.89 L 11.18,1.86 L 11.32,1.86 L 11.35,1.82 L 11.53,1.82 L 11.56,1.79 L 11.70,1.79 L 11.73,1.75 L 11.91,1.75 L 11.94,1.72 L 12.08,1.72 L 12.11,1.69 L 12.28,1.69 L 12.32,1.65 L 12.46,1.65 L 12.49,1.62 L 12.66,1.62 L 12.70,1.58 L 12.83,1.58 L 12.87,1.55 L 13.04,1.55 L 13.08,1.51 L 13.21,1.51 L 13.25,1.48 L 13.42,1.48 L 13.45,1.45 L 13.59,1.45 L 13.63,1.41 L 13.80,1.41 L 13.83,1.38 L 13.97,1.38 Z" fill="#1a1a1e" stroke="none" /><path d="M 15.48,1.10 L 15.45,1.00 L 15.35,0.89 L 15.35,0.86 L 15.24,0.76 L 15.24,0.72 L 15.14,0.72 L 15.11,0.76 L 14.93,0.76 L 14.90,0.79 L 14.76,0.79 L 14.73,0.83 L 14.55,0.83 L 14.49,0.86 L 14.49,0.89 L 14.59,1.00 L 14.59,1.03 L 14.73,1.20 L 14.93,1.20 L 14.97,1.17 L 15.11,1.17 L 15.14,1.14 Z" fill="#1a1a1e" stroke="none" /><path d="M 2.99,3.34 L 2.86,3.17 L 2.86,3.13 L 2.75,3.03 L 2.75,2.99 L 2.65,2.99 L 2.62,3.03 L 2.48,3.03 L 2.44,3.06 L 2.27,3.06 L 2.24,3.10 L 2.10,3.10 L 2.06,3.13 L 1.89,3.13 L 1.86,3.17 L 1.72,3.17 L 1.69,3.20 L 1.51,3.20 L 1.48,3.23 L 1.34,3.23 L 1.31,3.27 L 1.14,3.27 L 1.10,3.30 L 0.96,3.30 L 0.93,3.34 L 0.58,3.37 L 0.55,3.44 L 0.69,3.61 L 0.76,3.75 L 0.93,3.75 L 0.96,3.72 L 1.14,3.72 L 1.17,3.68 L 1.51,3.65 L 1.55,3.61 L 1.69,3.61 L 1.72,3.58 L 1.89,3.58 L 1.93,3.54 L 2.06,3.54 L 2.10,3.51 L 2.27,3.51 L 2.31,3.48 L 2.44,3.48 L 2.48,3.44 L 2.65,3.44 L 2.68,3.41 L 2.99,3.37 Z" fill="#1b1b1e" stroke="none" /><path d="M 6.64,2.68 L 6.64,2.62 L 6.54,2.51 L 6.54,2.48 L 6.43,2.37 L 6.43,2.34 L 6.23,2.34 L 6.19,2.37 L 6.06,2.37 L 6.02,2.41 L 5.85,2.41 L 5.82,2.44 L 5.68,2.44 L 5.64,2.48 L 5.47,2.48 L 5.44,2.51 L 5.30,2.51 L 5.26,2.55 L 4.92,2.58 L 4.92,2.62 L 5.20,2.96 L 5.47,2.92 L 5.51,2.89 L 5.68,2.89 L 5.71,2.86 L 5.85,2.86 L 5.88,2.82 L 6.06,2.82 L 6.09,2.79 L 6.23,2.79 L 6.26,2.75 L 6.43,2.75 L 6.47,2.72 L 6.61,2.72 Z" fill="#1b1b1e" stroke="none" /><path d="M 14.73,1.24 L 14.69,1.10 L 14.49,0.86 L 14.38,0.86 L 14.35,0.89 L 14.18,0.89 L 14.14,0.93 L 14.00,0.93 L 13.97,0.96 L 13.80,0.96 L 13.76,1.00 L 13.83,1.14 L 14.00,1.34 L 14.18,1.34 L 14.21,1.31 L 14.35,1.31 L 14.38,1.27 Z" fill="#1b1b1e" stroke="none" /><path d="M 6.61,29.94 L 6.61,30.62 L 6.71,30.73 L 6.71,30.76 L 6.81,30.86 L 6.81,30.90 L 6.88,30.93 L 6.88,30.25 L 6.78,30.14 L 6.78,30.11 L 6.68,30.00 L 6.68,29.97 Z" fill="#40321f" stroke="none" /><path d="M 8.60,29.56 L 8.46,29.56 L 8.43,29.59 L 8.29,29.59 L 8.26,29.63 L 8.09,29.63 L 8.05,29.66 L 7.91,29.66 L 7.88,29.69 L 7.88,30.49 L 8.05,30.49 L 8.09,30.45 L 8.22,30.45 L 8.26,30.42 L 8.60,30.38 Z" fill="#483924" stroke="none" /><path d="M 5.68,2.44 L 5.47,2.20 L 5.47,2.17 L 5.20,1.82 L 5.20,1.79 L 5.13,1.72 L 5.09,1.72 L 5.06,1.75 L 4.92,1.75 L 4.89,1.79 L 4.71,1.79 L 4.68,1.82 L 4.40,1.86 L 4.44,1.96 L 4.65,2.20 L 4.61,2.24 L 4.54,2.24 L 4.51,2.27 L 4.37,2.27 L 4.34,2.31 L 4.16,2.31 L 4.13,2.34 L 3.99,2.34 L 3.96,2.37 L 3.78,2.37 L 3.75,2.41 L 3.61,2.41 L 3.58,2.44 L 3.41,2.44 L 3.37,2.48 L 3.23,2.48 L 3.20,2.51 L 3.03,2.51 L 2.99,2.55 L 2.86,2.55 L 2.82,2.58 L 2.65,2.58 L 2.62,2.62 L 2.27,2.65 L 2.24,2.68 L 1.89,2.72 L 1.86,2.75 L 1.51,2.79 L 1.48,2.82 L 1.14,2.86 L 1.10,2.89 L 1.00,2.89 L 0.86,2.72 L 0.86,2.68 L 0.76,2.58 L 0.76,2.55 L 0.55,2.55 L 0.52,2.58 L 0.38,2.58 L 0.34,2.62 L 0.00,2.65 L 0.00,2.72 L 0.21,2.96 L 0.21,2.99 L 0.48,3.34 L 0.48,3.37 L 0.52,3.41 L 0.58,3.41 L 0.62,3.37 L 0.76,3.37 L 0.79,3.34 L 0.96,3.34 L 1.00,3.30 L 1.14,3.30 L 1.17,3.27 L 1.34,3.27 L 1.38,3.23 L 1.51,3.23 L 1.55,3.20 L 1.72,3.20 L 1.75,3.17 L 1.89,3.17 L 1.93,3.13 L 2.10,3.13 L 2.13,3.10 L 2.27,3.10 L 2.31,3.06 L 2.48,3.06 L 2.51,3.03 L 2.65,3.03 L 2.68,2.99 L 2.86,2.99 L 2.89,2.96 L 3.03,2.96 L 3.06,2.92 L 3.23,2.92 L 3.27,2.89 L 3.41,2.89 L 3.44,2.86 L 3.61,2.86 L 3.65,2.82 L 3.78,2.82 L 3.82,2.79 L 3.96,2.79 L 3.99,2.75 L 4.16,2.75 L 4.20,2.72 L 4.34,2.72 L 4.37,2.68 L 4.54,2.68 L 4.58,2.65 L 4.71,2.65 L 4.75,2.62 L 4.92,2.62 L 4.95,2.58 L 5.09,2.58 L 5.13,2.55 L 5.30,2.55 L 5.33,2.51 L 5.47,2.51 L 5.51,2.48 L 5.68,2.48 Z" fill="#544227" stroke="none" /><path d="M 8.33,1.58 L 8.33,1.51 L 8.22,1.41 L 8.22,1.38 L 8.09,1.20 L 7.74,1.24 L 7.71,1.27 L 7.57,1.27 L 7.54,1.31 L 7.36,1.31 L 7.33,1.34 L 7.19,1.34 L 7.16,1.38 L 6.98,1.38 L 6.95,1.41 L 6.81,1.41 L 6.78,1.45 L 6.61,1.45 L 6.64,1.55 L 6.85,1.82 L 7.02,1.82 L 7.05,1.79 L 7.19,1.79 L 7.23,1.75 L 7.40,1.75 L 7.43,1.72 L 7.57,1.72 L 7.60,1.69 L 7.78,1.69 L 7.81,1.65 L 7.95,1.65 L 7.98,1.62 Z" fill="#544227" stroke="none" /><path d="M 14.93,0.31 L 14.69,0.00 L 14.55,0.00 L 14.52,0.03 L 14.38,0.03 L 14.35,0.07 L 14.18,0.07 L 14.14,0.10 L 14.00,0.10 L 13.97,0.14 L 13.80,0.14 L 13.76,0.17 L 13.63,0.17 L 13.59,0.21 L 13.42,0.21 L 13.38,0.24 L 13.25,0.24 L 13.21,0.28 L 13.04,0.28 L 13.01,0.31 L 12.87,0.31 L 12.83,0.34 L 12.49,0.38 L 12.49,0.45 L 12.70,0.69 L 12.70,0.76 L 12.66,0.79 L 12.49,0.79 L 12.46,0.83 L 12.32,0.83 L 12.28,0.86 L 12.11,0.86 L 12.08,0.89 L 11.94,0.89 L 11.91,0.93 L 11.73,0.93 L 11.70,0.96 L 11.56,0.96 L 11.53,1.00 L 11.35,1.00 L 11.32,1.03 L 11.18,1.03 L 11.15,1.07 L 10.98,1.07 L 10.94,1.10 L 10.80,1.10 L 10.77,1.14 L 10.60,1.14 L 10.56,1.17 L 10.43,1.17 L 10.39,1.20 L 10.22,1.20 L 10.18,1.24 L 10.05,1.24 L 10.01,1.27 L 9.84,1.27 L 9.84,1.38 L 9.94,1.48 L 9.94,1.51 L 10.05,1.65 L 10.22,1.65 L 10.25,1.62 L 10.39,1.62 L 10.43,1.58 L 10.60,1.58 L 10.63,1.55 L 10.77,1.55 L 10.80,1.51 L 10.98,1.51 L 11.01,1.48 L 11.15,1.48 L 11.18,1.45 L 11.35,1.45 L 11.39,1.41 L 11.53,1.41 L 11.56,1.38 L 11.73,1.38 L 11.77,1.34 L 11.91,1.34 L 11.94,1.31 L 12.11,1.31 L 12.15,1.27 L 12.28,1.27 L 12.32,1.24 L 12.49,1.24 L 12.52,1.20 L 12.66,1.20 L 12.70,1.17 L 12.87,1.17 L 12.90,1.14 L 13.01,1.14 L 13.01,1.10 L 12.87,0.93 L 12.87,0.89 L 12.77,0.79 L 12.80,0.76 L 12.87,0.76 L 12.90,0.72 L 13.08,0.72 L 13.11,0.69 L 13.25,0.69 L 13.28,0.65 L 13.45,0.65 L 13.49,0.62 L 13.63,0.62 L 13.66,0.58 L 13.83,0.58 L 13.87,0.55 L 14.00,0.55 L 14.04,0.52 L 14.21,0.52 L 14.25,0.48 L 14.38,0.48 L 14.42,0.45 L 14.59,0.45 L 14.62,0.41 L 14.76,0.41 L 14.80,0.38 L 14.93,0.38 Z" fill="#544227" stroke="none" /><path d="M 4.65,2.17 L 4.54,2.06 L 4.54,2.03 L 4.44,1.93 L 4.44,1.89 L 4.40,1.86 L 4.34,1.86 L 4.30,1.89 L 4.16,1.89 L 4.13,1.93 L 3.96,1.93 L 3.92,1.96 L 3.78,1.96 L 3.75,2.00 L 3.58,2.00 L 3.54,2.03 L 3.41,2.03 L 3.37,2.06 L 3.20,2.06 L 3.17,2.10 L 3.03,2.10 L 2.99,2.13 L 2.82,2.13 L 2.79,2.17 L 2.65,2.17 L 2.62,2.20 L 2.44,2.20 L 2.41,2.24 L 2.27,2.24 L 2.24,2.27 L 2.06,2.27 L 2.03,2.31 L 1.89,2.31 L 1.86,2.34 L 1.69,2.34 L 1.65,2.37 L 1.51,2.37 L 1.48,2.41 L 1.31,2.41 L 1.27,2.44 L 1.14,2.44 L 1.10,2.48 L 0.76,2.51 L 0.76,2.62 L 0.86,2.72 L 0.86,2.75 L 0.96,2.86 L 0.96,2.89 L 1.14,2.89 L 1.17,2.86 L 1.34,2.86 L 1.38,2.82 L 1.51,2.82 L 1.55,2.79 L 1.72,2.79 L 1.75,2.75 L 1.89,2.75 L 1.93,2.72 L 2.10,2.72 L 2.13,2.68 L 2.27,2.68 L 2.31,2.65 L 2.48,2.65 L 2.51,2.62 L 2.65,2.62 L 2.68,2.58 L 2.86,2.58 L 2.89,2.55 L 3.03,2.55 L 3.06,2.51 L 3.23,2.51 L 3.27,2.48 L 3.41,2.48 L 3.44,2.44 L 3.61,2.44 L 3.65,2.41 L 3.78,2.41 L 3.82,2.37 L 3.99,2.37 L 4.03,2.34 L 4.16,2.34 L 4.20,2.31 L 4.54,2.27 L 4.58,2.24 L 4.65,2.24 Z" fill="#59462b" stroke="none" /><path d="M 8.60,1.93 L 8.60,1.89 L 8.50,1.79 L 8.50,1.75 L 8.36,1.58 L 8.15,1.58 L 8.12,1.62 L 7.95,1.62 L 7.91,1.65 L 7.78,1.65 L 7.74,1.69 L 7.57,1.69 L 7.54,1.72 L 7.40,1.72 L 7.36,1.75 L 7.19,1.75 L 7.16,1.79 L 6.88,1.82 L 6.92,1.93 L 7.12,2.20 L 7.19,2.20 L 7.23,2.17 L 7.36,2.17 L 7.40,2.13 L 7.57,2.13 L 7.60,2.10 L 7.95,2.06 L 7.98,2.03 L 8.12,2.03 L 8.15,2.00 L 8.33,2.00 L 8.36,1.96 L 8.50,1.96 L 8.53,1.93 Z" fill="#59462b" stroke="none" /><path d="M 15.21,0.69 L 14.97,0.38 L 14.76,0.38 L 14.73,0.41 L 14.59,0.41 L 14.55,0.45 L 14.38,0.45 L 14.35,0.48 L 14.21,0.48 L 14.18,0.52 L 14.00,0.52 L 13.97,0.55 L 13.83,0.55 L 13.80,0.58 L 13.63,0.58 L 13.59,0.62 L 13.45,0.62 L 13.42,0.65 L 13.25,0.65 L 13.21,0.69 L 13.08,0.69 L 13.04,0.72 L 12.87,0.72 L 12.83,0.76 L 12.77,0.76 L 12.49,0.41 L 12.28,0.41 L 12.25,0.45 L 12.11,0.45 L 12.08,0.48 L 11.91,0.48 L 11.87,0.52 L 11.73,0.52 L 11.70,0.55 L 11.53,0.55 L 11.49,0.58 L 11.35,0.58 L 11.32,0.62 L 11.15,0.62 L 11.11,0.65 L 10.98,0.65 L 10.94,0.69 L 10.77,0.69 L 10.74,0.72 L 10.60,0.72 L 10.56,0.76 L 10.39,0.76 L 10.36,0.79 L 10.22,0.79 L 10.18,0.83 L 10.01,0.83 L 9.98,0.86 L 9.84,0.86 L 9.81,0.89 L 9.63,0.89 L 9.57,0.93 L 9.57,1.00 L 9.67,1.10 L 9.74,1.24 L 9.81,1.31 L 9.84,1.31 L 9.88,1.27 L 10.05,1.27 L 10.08,1.24 L 10.22,1.24 L 10.25,1.20 L 10.43,1.20 L 10.46,1.17 L 10.60,1.17 L 10.63,1.14 L 10.80,1.14 L 10.84,1.10 L 10.98,1.10 L 11.01,1.07 L 11.18,1.07 L 11.22,1.03 L 11.56,1.00 L 11.60,0.96 L 11.94,0.93 L 11.97,0.89 L 12.32,0.86 L 12.35,0.83 L 12.70,0.79 L 12.73,0.76 L 12.87,0.93 L 12.87,0.96 L 12.97,1.07 L 12.97,1.10 L 13.04,1.14 L 13.08,1.10 L 13.25,1.10 L 13.28,1.07 L 13.63,1.03 L 13.66,1.00 L 13.80,1.00 L 13.83,0.96 L 14.00,0.96 L 14.04,0.93 L 14.18,0.93 L 14.21,0.89 L 14.38,0.89 L 14.42,0.86 L 14.55,0.86 L 14.59,0.83 L 14.76,0.83 L 14.80,0.79 L 14.93,0.79 L 14.97,0.76 L 15.14,0.76 L 15.21,0.72 Z" fill="#59462b" stroke="none" /><path d="M 8.60,31.04 L 8.53,31.07 L 8.36,31.07 L 8.33,31.11 L 8.19,31.11 L 8.15,31.14 L 7.98,31.14 L 7.95,31.17 L 7.81,31.17 L 7.78,31.21 L 7.60,31.21 L 7.57,31.24 L 7.43,31.24 L 7.40,31.28 L 7.23,31.28 L 7.19,31.31 L 7.12,31.31 L 7.12,32.00 L 7.19,31.97 L 7.36,31.97 L 7.40,31.93 L 7.54,31.93 L 7.57,31.90 L 7.74,31.90 L 7.78,31.86 L 7.91,31.86 L 7.95,31.83 L 8.12,31.83 L 8.15,31.79 L 8.29,31.79 L 8.33,31.76 L 8.50,31.76 L 8.53,31.72 L 8.60,31.72 Z" fill="#56462f" stroke="none" /><path d="M 7.88,29.69 L 7.71,29.69 L 7.67,29.73 L 7.54,29.73 L 7.50,29.76 L 7.16,29.80 L 7.12,29.83 L 7.12,29.97 L 7.19,29.94 L 7.36,29.94 L 7.40,29.90 L 7.54,29.90 L 7.57,29.87 L 7.74,29.87 L 7.78,29.83 L 7.88,29.83 Z" fill="#56462f" stroke="none" /><path d="M 8.60,30.38 L 8.43,30.38 L 8.40,30.42 L 8.22,30.42 L 8.19,30.45 L 7.88,30.49 L 7.88,31.17 L 7.98,31.17 L 8.02,31.14 L 8.19,31.14 L 8.22,31.11 L 8.36,31.11 L 8.40,31.07 L 8.57,31.07 L 8.60,31.04 Z" fill="#57472f" stroke="none" /><path d="M 7.88,29.83 L 7.54,29.87 L 7.50,29.90 L 7.16,29.94 L 7.12,29.97 L 7.12,30.62 L 7.29,30.62 L 7.33,30.59 L 7.67,30.55 L 7.71,30.52 L 7.85,30.52 L 7.88,30.49 Z" fill="#5d4c33" stroke="none" /><path d="M 0.31,3.10 L 0.28,3.10 L 0.28,3.65 L 0.24,3.68 L 0.14,3.54 L 0.14,3.51 L 0.03,3.41 L 0.03,3.37 L 0.00,3.37 L 0.00,4.06 L 0.17,4.27 L 0.24,4.40 L 0.28,4.40 L 0.28,3.85 L 0.31,3.82 L 0.41,3.92 L 0.48,4.06 L 0.52,4.06 L 0.52,3.37 Z" fill="#5b4b34" stroke="none" /><path d="M 7.88,30.49 L 7.81,30.52 L 7.67,30.52 L 7.64,30.55 L 7.47,30.55 L 7.43,30.59 L 7.12,30.62 L 7.12,31.31 L 7.23,31.31 L 7.26,31.28 L 7.43,31.28 L 7.47,31.24 L 7.60,31.24 L 7.64,31.21 L 7.81,31.21 L 7.88,31.17 Z" fill="#5d4c34" stroke="none" /><path d="M 0.00,2.72 L 0.00,3.37 L 0.28,3.75 L 0.28,4.44 L 0.45,4.65 L 0.45,4.68 L 0.52,4.71 L 0.52,4.06 L 0.28,3.72 L 0.28,3.03 L 0.10,2.82 L 0.10,2.79 L 0.03,2.72 Z" fill="#765f3a" stroke="none" /><path d="M 5.88,1.58 L 5.88,1.65 L 5.95,1.72 L 5.95,1.75 L 6.06,1.86 L 6.06,1.89 L 6.16,2.00 L 6.23,2.13 L 6.40,2.34 L 6.47,2.31 L 6.61,2.31 L 6.64,2.27 L 6.81,2.27 L 6.85,2.24 L 7.12,2.20 L 7.09,2.10 L 6.98,2.00 L 6.92,1.86 L 6.71,1.62 L 6.64,1.48 L 6.43,1.48 L 6.40,1.51 L 6.23,1.51 L 6.19,1.55 Z" fill="#6a603f" stroke="none" /><path d="M 8.81,1.07 L 8.81,1.10 L 8.91,1.20 L 8.98,1.34 L 9.08,1.45 L 9.08,1.48 L 9.19,1.58 L 9.19,1.62 L 9.32,1.79 L 9.46,1.79 L 9.50,1.75 L 9.63,1.75 L 9.67,1.72 L 9.84,1.72 L 9.88,1.69 L 10.01,1.69 L 10.05,1.65 L 10.01,1.55 L 9.74,1.20 L 9.74,1.17 L 9.57,0.96 L 9.57,0.93 L 9.46,0.93 L 9.43,0.96 L 9.26,0.96 L 9.22,1.00 L 9.08,1.00 L 9.05,1.03 L 8.88,1.03 Z" fill="#6a603f" stroke="none" /><path d="M 5.13,1.72 L 5.20,1.86 L 5.30,1.96 L 5.30,2.00 L 5.40,2.10 L 5.47,2.24 L 5.64,2.44 L 5.85,2.44 L 5.88,2.41 L 6.06,2.41 L 6.09,2.37 L 6.40,2.34 L 6.33,2.20 L 6.23,2.10 L 6.16,1.96 L 5.95,1.72 L 5.88,1.58 L 5.82,1.62 L 5.68,1.62 L 5.64,1.65 L 5.47,1.65 L 5.44,1.69 Z" fill="#797050" stroke="none" /><path d="M 8.09,1.20 L 8.22,1.45 L 8.33,1.55 L 8.33,1.58 L 8.43,1.69 L 8.50,1.82 L 8.60,1.93 L 8.88,1.89 L 8.91,1.86 L 9.08,1.86 L 9.12,1.82 L 9.26,1.82 L 9.32,1.79 L 9.19,1.55 L 9.08,1.45 L 9.08,1.41 L 8.98,1.31 L 8.91,1.17 L 8.81,1.07 L 8.71,1.07 L 8.67,1.10 L 8.50,1.10 L 8.46,1.14 L 8.33,1.14 L 8.29,1.17 L 8.12,1.17 Z" fill="#797050" stroke="none" /></svg>