<svg height="32" width="32" viewBox="0 0 32 32"><defs /><path d="M 17.97,25.86 L 17.91,25.86 L 17.11,26.27 L 17.08,26.24 L 17.08,25.19 L 17.05,25.19 L 15.30,26.08 L 15.27,26.05 L 15.27,25.00 L 15.20,25.00 L 14.44,25.38 L 14.41,25.42 L 14.41,28.72 L 14.47,28.72 L 15.27,28.31 L 15.27,27.23 L 15.33,27.17 L 17.05,26.31 L 17.08,26.34 L 17.08,27.39 L 17.15,27.39 L 17.97,26.97 Z" fill="#2a3e63" stroke="none" /><path d="M 23.41,20.93 L 23.35,20.93 L 22.52,21.34 L 22.52,22.46 L 21.60,22.93 L 21.60,25.13 L 20.74,25.57 L 20.71,25.54 L 20.71,24.49 L 20.64,24.49 L 19.79,24.94 L 19.79,26.05 L 20.68,25.61 L 20.71,25.64 L 20.71,28.85 L 20.77,28.85 L 21.60,28.44 L 21.60,27.39 L 21.66,27.32 L 22.52,26.91 L 22.52,24.72 L 22.58,24.65 L 23.41,24.24 L 23.41,23.16 L 23.48,23.09 L 24.33,22.68 L 24.33,21.57 L 23.44,22.01 L 23.41,21.98 Z" fill="#2a3e63" stroke="none" /><path d="M 28.82,20.42 L 27.93,20.87 L 27.93,23.09 L 28.82,22.65 Z" fill="#2a3e63" stroke="none" /><path d="M 15.20,13.96 L 14.41,14.38 L 14.41,17.65 L 15.24,17.24 L 15.27,17.27 L 15.27,18.32 L 15.33,18.32 L 16.13,17.91 L 16.19,17.94 L 16.19,20.07 L 15.27,20.55 L 15.27,23.86 L 15.33,23.86 L 16.19,23.41 L 16.19,21.22 L 17.08,20.77 L 17.08,18.54 L 17.97,18.10 L 17.97,15.87 L 17.08,16.32 L 17.08,17.40 L 17.02,17.46 L 16.22,17.84 L 16.19,17.81 L 16.19,14.57 L 16.13,14.57 L 15.30,14.98 L 15.27,14.95 L 15.27,13.96 Z" fill="#2a3e63" stroke="none" /><path d="M 27.93,9.80 L 27.86,9.80 L 27.04,10.21 L 27.04,11.32 L 26.15,11.77 L 26.15,13.96 L 26.08,14.03 L 25.22,14.44 L 25.22,15.55 L 24.37,16.00 L 24.33,15.97 L 24.33,14.92 L 24.27,14.92 L 23.48,15.33 L 23.41,15.30 L 23.41,10.94 L 22.55,11.36 L 22.52,11.32 L 22.52,10.34 L 22.46,10.34 L 20.71,11.23 L 20.71,13.39 L 22.49,12.50 L 22.52,12.53 L 22.52,18.04 L 23.38,17.62 L 23.41,17.65 L 23.41,18.70 L 23.44,18.70 L 25.19,17.81 L 25.22,17.84 L 25.22,21.12 L 26.12,20.68 L 26.15,20.71 L 26.15,21.76 L 27.04,21.31 L 27.04,19.12 L 26.97,19.12 L 26.18,19.53 L 26.15,19.50 L 26.15,17.34 L 25.26,17.78 L 25.22,17.75 L 25.22,15.59 L 26.15,15.11 L 26.15,14.03 L 26.21,13.96 L 27.04,13.55 L 27.04,12.47 L 27.93,12.02 Z" fill="#2a3e63" stroke="none" /><path d="M 28.82,23.76 L 28.76,23.76 L 27.93,24.17 L 27.93,25.26 L 28.82,24.81 Z" fill="#2b4064" stroke="none" /><path d="M 15.24,21.66 L 14.41,22.08 L 14.41,25.42 L 15.24,25.00 L 15.27,25.03 L 15.27,26.08 L 15.33,26.08 L 16.19,25.64 L 16.19,23.41 L 15.30,23.86 L 15.27,23.83 L 15.27,21.66 Z" fill="#2b4064" stroke="none" /><path d="M 17.08,20.77 L 17.02,20.77 L 16.19,21.18 L 16.19,22.30 L 16.25,22.30 L 17.08,21.88 Z" fill="#2b4064" stroke="none" /><path d="M 25.22,20.01 L 24.33,20.45 L 24.33,22.65 L 23.41,23.13 L 23.41,24.21 L 23.35,24.27 L 22.52,24.68 L 22.52,25.80 L 23.41,25.35 L 23.41,24.27 L 23.48,24.21 L 24.33,23.79 L 24.33,22.68 L 26.15,21.76 L 26.15,20.68 L 26.08,20.68 L 25.26,21.09 L 25.22,21.06 Z" fill="#2b4064" stroke="none" /><path d="M 17.97,18.10 L 17.91,18.10 L 17.08,18.51 L 17.08,19.63 L 17.15,19.63 L 17.97,19.21 Z" fill="#2b4064" stroke="none" /><path d="M 27.04,18.00 L 26.97,18.00 L 26.15,18.42 L 26.15,19.53 L 26.21,19.53 L 27.04,19.12 Z" fill="#2b4064" stroke="none" /><path d="M 25.22,17.81 L 25.16,17.81 L 24.33,18.23 L 24.33,19.34 L 25.22,18.89 Z" fill="#2b4064" stroke="none" /><path d="M 23.41,17.59 L 21.60,18.48 L 21.60,22.90 L 21.53,22.97 L 20.71,23.38 L 20.71,25.57 L 19.85,26.02 L 19.79,25.99 L 19.79,21.63 L 19.72,21.63 L 18.89,22.04 L 18.89,25.35 L 18.83,25.42 L 18.00,25.83 L 17.97,25.80 L 17.97,23.63 L 17.08,24.08 L 17.08,26.27 L 15.30,27.17 L 15.27,27.20 L 15.27,28.28 L 15.20,28.34 L 14.41,28.72 L 14.41,32.00 L 14.47,32.00 L 16.19,31.14 L 16.19,30.09 L 16.25,30.03 L 17.08,29.61 L 17.08,28.53 L 17.97,28.09 L 17.97,26.97 L 18.00,26.94 L 19.72,26.08 L 19.79,26.12 L 19.79,27.17 L 20.71,26.72 L 20.71,25.61 L 21.60,25.16 L 21.60,22.97 L 21.66,22.90 L 22.52,22.49 L 22.52,21.38 L 23.41,20.93 Z" fill="#2b4064" stroke="none" /><path d="M 28.82,17.11 L 28.76,17.11 L 27.93,17.53 L 27.93,19.75 L 27.04,20.20 L 27.04,22.43 L 27.93,21.98 L 27.93,20.90 L 27.99,20.83 L 28.82,20.42 Z" fill="#2b4064" stroke="none" /><path d="M 22.52,12.50 L 22.46,12.50 L 21.60,12.95 L 21.60,14.06 L 22.52,13.61 Z" fill="#2b4064" stroke="none" /><path d="M 20.71,11.23 L 19.79,11.67 L 19.79,12.72 L 19.72,12.79 L 18.89,13.20 L 18.89,14.28 L 18.04,14.73 L 17.97,14.70 L 17.97,13.68 L 17.91,13.68 L 17.11,14.09 L 17.08,14.06 L 17.08,13.04 L 15.27,13.93 L 15.27,15.01 L 16.16,14.57 L 16.19,14.60 L 16.19,17.84 L 16.13,17.91 L 15.30,18.32 L 15.27,18.29 L 15.27,17.24 L 15.20,17.24 L 14.41,17.65 L 14.41,19.85 L 14.47,19.85 L 15.24,19.47 L 15.27,19.50 L 15.27,20.55 L 16.19,20.10 L 16.19,17.91 L 16.25,17.84 L 17.08,17.43 L 17.08,16.35 L 17.15,16.29 L 17.94,15.90 L 17.97,15.94 L 17.97,16.99 L 18.89,16.54 L 18.89,15.43 L 20.71,14.50 Z" fill="#2b4064" stroke="none" /><path d="M 28.82,7.19 L 28.76,7.19 L 27.04,8.05 L 27.04,9.10 L 26.97,9.16 L 26.15,9.57 L 26.15,11.77 L 25.22,12.25 L 25.22,14.44 L 24.37,14.89 L 24.33,14.85 L 24.33,12.69 L 23.41,13.14 L 23.41,15.36 L 24.30,14.92 L 24.33,14.95 L 24.33,16.00 L 24.40,16.00 L 25.22,15.59 L 25.22,14.47 L 26.15,14.00 L 26.15,11.80 L 27.04,11.36 L 27.04,10.24 L 27.07,10.21 L 27.90,9.80 L 27.93,9.83 L 27.93,11.99 L 27.04,12.44 L 27.04,13.55 L 27.93,13.11 L 27.93,12.02 L 28.82,11.58 Z" fill="#2b4064" stroke="none" /><path d="M 20.71,26.72 L 20.64,26.72 L 19.82,27.13 L 19.79,27.10 L 19.79,26.05 L 19.75,26.05 L 17.97,26.94 L 17.97,28.06 L 17.08,28.50 L 17.08,29.58 L 17.02,29.65 L 16.19,30.06 L 16.19,31.11 L 16.25,31.11 L 17.08,30.70 L 17.08,29.65 L 17.15,29.58 L 17.97,29.17 L 17.97,28.09 L 19.72,27.20 L 19.79,27.23 L 19.79,28.25 L 18.89,28.69 L 18.89,29.77 L 20.71,28.88 Z" fill="#2e4464" stroke="none" /><path d="M 17.02,21.88 L 16.19,22.30 L 16.19,25.64 L 17.08,25.19 L 17.08,24.11 L 17.15,24.05 L 17.94,23.67 L 17.97,23.70 L 17.97,25.83 L 18.04,25.83 L 18.89,25.38 L 18.89,23.19 L 18.83,23.19 L 18.00,23.60 L 17.97,23.57 L 17.97,22.52 L 17.11,22.93 L 17.08,22.90 L 17.08,21.88 Z" fill="#2e4464" stroke="none" /><path d="M 28.82,22.65 L 27.96,23.06 L 27.93,23.03 L 27.93,21.98 L 27.10,22.39 L 27.04,22.36 L 27.04,21.31 L 24.33,22.65 L 24.33,23.76 L 23.41,24.24 L 23.41,25.32 L 23.35,25.38 L 22.52,25.80 L 22.52,26.88 L 21.60,27.36 L 21.60,28.41 L 21.66,28.41 L 22.52,27.96 L 22.52,26.91 L 22.55,26.88 L 23.38,26.47 L 23.41,26.50 L 23.41,27.51 L 23.44,27.51 L 25.22,26.62 L 25.22,25.57 L 25.29,25.51 L 27.01,24.65 L 27.04,24.68 L 27.04,25.70 L 27.90,25.29 L 27.93,25.26 L 27.93,24.21 L 28.82,23.76 Z" fill="#2e4464" stroke="none" /><path d="M 15.27,19.44 L 14.41,19.85 L 14.41,22.08 L 14.47,22.08 L 15.27,21.66 Z" fill="#2e4464" stroke="none" /><path d="M 17.97,19.21 L 17.91,19.21 L 17.08,19.63 L 17.08,20.74 L 17.15,20.74 L 17.97,20.33 Z" fill="#2e4464" stroke="none" /><path d="M 24.33,18.26 L 24.27,18.26 L 23.41,18.70 L 23.41,22.01 L 23.48,22.01 L 24.33,21.57 L 24.33,20.49 L 24.40,20.42 L 25.22,20.01 L 25.22,18.89 L 24.37,19.31 L 24.33,19.28 Z" fill="#2e4464" stroke="none" /><path d="M 27.93,17.56 L 27.86,17.56 L 27.04,17.97 L 27.04,20.20 L 27.10,20.20 L 27.93,19.79 Z" fill="#2e4464" stroke="none" /><path d="M 26.15,16.22 L 25.22,16.67 L 25.22,17.78 L 25.29,17.78 L 26.15,17.34 Z" fill="#2e4464" stroke="none" /><path d="M 19.79,14.98 L 19.72,14.98 L 18.89,15.40 L 18.89,16.51 L 17.97,16.99 L 17.97,18.07 L 18.04,18.07 L 18.89,17.62 L 18.89,16.54 L 19.79,16.10 Z" fill="#2e4464" stroke="none" /><path d="M 25.22,13.36 L 24.33,13.81 L 24.33,14.89 L 24.40,14.89 L 25.22,14.47 Z" fill="#2e4464" stroke="none" /><path d="M 21.60,12.95 L 20.71,13.39 L 20.71,14.50 L 21.53,14.09 L 21.60,14.12 L 21.60,15.14 L 21.53,15.20 L 20.71,15.62 L 20.71,16.70 L 20.77,16.70 L 21.57,16.29 L 21.60,16.32 L 21.60,17.37 L 20.71,17.81 L 20.71,18.93 L 19.79,19.40 L 19.79,20.49 L 19.72,20.55 L 18.89,20.96 L 18.89,22.04 L 18.96,22.04 L 19.75,21.63 L 19.79,21.66 L 19.79,24.94 L 20.71,24.49 L 20.71,23.41 L 20.77,23.35 L 21.60,22.93 L 21.60,17.40 L 22.52,16.92 L 22.52,13.61 L 22.46,13.61 L 21.63,14.03 L 21.60,14.00 Z" fill="#2e4464" stroke="none" /><path d="M 19.79,11.71 L 19.72,11.71 L 17.11,13.01 L 17.08,13.04 L 17.08,14.09 L 17.15,14.09 L 17.94,13.68 L 17.97,13.71 L 17.97,14.76 L 18.89,14.31 L 18.89,13.23 L 18.96,13.17 L 19.79,12.76 Z" fill="#2e4464" stroke="none" /><path d="M 28.82,11.58 L 28.76,11.58 L 27.93,11.99 L 27.93,13.07 L 27.86,13.14 L 26.15,14.00 L 26.15,15.11 L 27.01,14.70 L 27.04,14.73 L 27.04,15.78 L 27.86,15.36 L 27.93,15.40 L 27.93,16.45 L 28.82,16.00 Z" fill="#2e4464" stroke="none" /><path d="M 24.33,11.58 L 23.41,12.02 L 23.41,13.14 L 23.48,13.14 L 24.33,12.69 Z" fill="#2e4464" stroke="none" /><path d="M 23.41,9.89 L 23.35,9.89 L 22.52,10.31 L 22.52,11.39 L 23.41,10.94 Z" fill="#2e4464" stroke="none" /><path d="M 27.04,8.08 L 26.97,8.08 L 26.15,8.49 L 26.15,9.54 L 26.08,9.61 L 25.22,10.02 L 25.22,12.25 L 26.15,11.80 L 26.15,9.61 L 26.21,9.54 L 27.04,9.13 Z" fill="#2e4464" stroke="none" /><path d="M 19.79,27.17 L 17.97,28.06 L 17.97,29.14 L 17.91,29.20 L 17.08,29.61 L 17.08,30.66 L 17.15,30.66 L 18.89,29.77 L 18.89,28.72 L 19.79,28.28 Z" fill="#384964" stroke="none" /><path d="M 23.41,26.47 L 23.35,26.47 L 22.52,26.88 L 22.52,27.96 L 23.41,27.51 Z" fill="#384964" stroke="none" /><path d="M 27.93,23.09 L 27.04,23.54 L 27.04,24.62 L 27.01,24.65 L 25.22,25.54 L 25.22,26.59 L 25.29,26.59 L 27.04,25.70 L 27.04,24.65 L 27.93,24.21 Z" fill="#384964" stroke="none" /><path d="M 27.04,14.66 L 25.22,15.55 L 25.22,16.67 L 25.29,16.67 L 26.97,15.81 L 27.04,15.84 L 27.04,16.86 L 26.97,16.92 L 26.15,17.34 L 26.15,18.42 L 26.21,18.42 L 27.04,18.00 L 27.04,16.92 L 27.10,16.86 L 27.86,16.48 L 27.93,16.51 L 27.93,17.53 L 27.99,17.53 L 28.82,17.11 L 28.82,16.00 L 27.96,16.41 L 27.93,16.38 L 27.93,15.33 L 27.10,15.75 L 27.04,15.71 Z" fill="#384964" stroke="none" /><path d="M 21.60,14.06 L 19.79,14.95 L 19.79,17.15 L 19.72,17.21 L 17.97,18.07 L 17.97,20.29 L 17.08,20.74 L 17.08,22.97 L 17.94,22.55 L 17.97,22.58 L 17.97,23.63 L 18.89,23.19 L 18.89,20.99 L 18.96,20.93 L 19.79,20.52 L 19.79,19.44 L 19.85,19.37 L 20.71,18.96 L 20.71,17.84 L 21.57,17.40 L 21.60,17.43 L 21.60,18.48 L 21.66,18.48 L 22.52,18.04 L 22.52,16.92 L 21.63,17.37 L 21.60,17.34 L 21.60,16.29 L 21.53,16.29 L 20.74,16.70 L 20.71,16.67 L 20.71,15.65 L 20.77,15.59 L 21.60,15.17 Z" fill="#384964" stroke="none" /><path d="M 26.15,8.52 L 26.08,8.52 L 25.22,8.97 L 25.22,10.02 L 24.37,10.47 L 24.33,10.43 L 24.33,9.42 L 23.41,9.86 L 23.41,10.94 L 24.30,10.50 L 24.33,10.53 L 24.33,13.81 L 25.22,13.36 L 25.22,10.05 L 26.15,9.57 Z" fill="#384964" stroke="none" /><path d="M 19.72,16.10 L 18.89,16.51 L 18.89,17.62 L 19.75,17.21 L 19.79,17.24 L 19.79,18.29 L 19.82,18.29 L 20.71,17.84 L 20.71,16.73 L 20.64,16.73 L 19.82,17.15 L 19.79,17.11 L 19.79,16.10 Z" fill="#434f65" stroke="none" /><path d="M 27.01,15.78 L 26.15,16.22 L 26.15,17.34 L 27.01,16.92 L 27.04,16.95 L 27.04,17.97 L 27.10,17.97 L 27.93,17.56 L 27.93,16.45 L 27.07,16.86 L 27.04,16.83 L 27.04,15.78 Z" fill="#434f65" stroke="none" /><path d="M 25.22,8.97 L 24.33,9.42 L 24.33,10.47 L 23.41,10.94 L 23.41,12.02 L 23.48,12.02 L 24.33,11.58 L 24.33,10.50 L 25.22,10.05 Z" fill="#434f65" stroke="none" /><path d="M 13.55,27.20 L 13.55,29.42 L 14.35,29.84 L 14.41,29.84 L 14.41,27.61 Z" fill="#4565a1" stroke="none" /><path d="M 8.14,22.27 L 8.11,22.27 L 8.11,23.32 L 8.08,23.35 L 7.22,22.93 L 7.22,25.10 L 7.19,25.13 L 6.36,24.72 L 6.30,24.65 L 6.30,23.57 L 5.41,23.13 L 5.41,24.24 L 6.23,24.65 L 6.30,24.72 L 6.30,27.96 L 7.16,28.41 L 7.22,28.41 L 7.22,27.42 L 7.25,27.39 L 8.11,27.80 L 8.11,25.64 L 8.14,25.61 L 9.03,26.05 L 9.03,25.00 L 9.07,24.97 L 9.92,25.38 L 9.92,24.27 L 9.03,23.83 L 9.03,22.71 Z" fill="#4565a1" stroke="none" /><path d="M 0.00,18.23 L 0.00,21.53 L 0.89,21.98 L 0.89,20.93 L 0.95,20.90 L 2.61,21.73 L 2.67,21.79 L 2.67,22.87 L 3.53,23.32 L 3.59,23.32 L 3.59,22.20 L 2.74,21.79 L 2.67,21.73 L 2.67,20.64 L 0.92,19.79 L 0.89,19.75 L 0.89,18.64 L 0.06,18.23 Z" fill="#4565a1" stroke="none" /><path d="M 6.30,10.34 L 6.30,12.50 L 8.05,13.36 L 8.11,13.42 L 8.11,18.96 L 8.97,19.37 L 9.03,19.44 L 9.03,20.52 L 9.07,20.55 L 10.85,21.44 L 10.85,24.75 L 11.67,25.16 L 11.74,25.22 L 11.74,26.31 L 12.56,26.72 L 12.63,26.72 L 12.63,24.52 L 11.80,24.11 L 11.74,24.05 L 11.74,21.85 L 10.85,21.41 L 10.85,19.24 L 10.88,19.21 L 11.67,19.63 L 11.74,19.63 L 11.74,18.58 L 11.77,18.54 L 12.56,18.96 L 12.63,18.96 L 12.63,17.94 L 12.66,17.91 L 13.49,18.32 L 13.55,18.32 L 13.55,16.10 L 12.63,15.65 L 12.63,16.70 L 12.60,16.73 L 11.74,16.32 L 11.74,18.48 L 11.71,18.51 L 10.91,18.10 L 10.85,18.10 L 10.85,19.15 L 10.82,19.18 L 9.99,18.77 L 9.92,18.70 L 9.92,17.62 L 9.10,17.21 L 9.03,17.15 L 9.03,12.76 L 8.11,12.28 L 8.11,11.23 L 8.08,11.20 L 6.36,10.34 Z" fill="#4565a1" stroke="none" /><path d="M 0.00,7.19 L 0.00,10.47 L 0.89,10.91 L 0.89,12.02 L 1.78,12.47 L 1.78,14.60 L 1.72,14.63 L 0.89,14.22 L 0.89,17.56 L 1.72,17.97 L 1.78,17.97 L 1.78,15.84 L 1.84,15.81 L 2.67,16.22 L 2.67,14.06 L 2.74,14.03 L 3.53,14.44 L 3.59,14.44 L 3.59,12.25 L 2.74,11.80 L 2.67,11.80 L 2.67,12.85 L 2.64,12.88 L 1.78,12.44 L 1.78,9.13 L 0.95,8.72 L 0.89,8.65 L 0.89,7.60 L 0.06,7.19 Z" fill="#4565a1" stroke="none" /><path d="M 13.55,30.54 L 13.55,31.59 L 14.35,32.00 L 14.41,32.00 L 14.41,30.95 L 13.61,30.54 Z" fill="#4569a2" stroke="none" /><path d="M 13.61,23.89 L 13.55,23.89 L 13.55,26.05 L 13.52,26.08 L 12.63,25.64 L 12.63,27.86 L 13.52,28.31 L 13.55,28.31 L 13.55,27.26 L 13.58,27.23 L 14.35,27.61 L 14.41,27.61 L 14.41,24.30 Z" fill="#4569a2" stroke="none" /><path d="M 9.99,23.19 L 9.92,23.19 L 9.92,25.32 L 9.86,25.35 L 9.03,24.94 L 9.03,25.99 L 9.00,26.02 L 8.17,25.61 L 8.11,25.61 L 8.11,26.72 L 9.00,27.17 L 9.03,27.17 L 9.03,26.12 L 9.07,26.08 L 9.92,26.50 L 9.92,25.45 L 9.96,25.42 L 11.67,26.27 L 11.74,26.27 L 11.74,25.19 L 10.91,24.78 L 10.85,24.72 L 10.85,23.63 Z" fill="#4569a2" stroke="none" /><path d="M 11.74,22.97 L 11.74,24.08 L 12.63,24.52 L 12.63,23.41 Z" fill="#4569a2" stroke="none" /><path d="M 9.92,20.96 L 9.92,22.08 L 10.85,22.52 L 10.85,21.41 Z" fill="#4569a2" stroke="none" /><path d="M 9.03,19.40 L 7.28,18.51 L 7.22,18.51 L 7.22,22.87 L 7.16,22.90 L 6.36,22.49 L 6.30,22.49 L 6.30,24.62 L 6.27,24.65 L 5.47,24.27 L 5.41,24.21 L 5.41,19.79 L 4.49,19.34 L 4.49,22.62 L 4.45,22.65 L 3.59,22.20 L 3.59,20.01 L 2.74,19.56 L 2.67,19.56 L 2.67,21.69 L 2.64,21.73 L 0.92,20.87 L 0.89,20.87 L 0.89,21.92 L 0.86,21.95 L 0.00,21.53 L 0.00,24.81 L 1.78,25.70 L 1.78,24.68 L 1.81,24.65 L 2.61,25.07 L 2.67,25.07 L 2.67,24.05 L 2.70,24.02 L 3.53,24.43 L 3.59,24.43 L 3.59,23.38 L 3.63,23.35 L 5.34,24.21 L 5.41,24.27 L 5.41,25.35 L 6.30,25.80 L 6.30,24.75 L 6.33,24.72 L 7.16,25.13 L 7.22,25.13 L 7.22,23.00 L 7.28,22.97 L 8.11,23.38 L 8.11,22.33 L 8.14,22.30 L 8.97,22.71 L 9.03,22.71 Z" fill="#4569a2" stroke="none" /><path d="M 1.78,15.78 L 1.78,16.89 L 2.67,17.34 L 2.67,16.22 Z" fill="#4569a2" stroke="none" /><path d="M 0.00,14.89 L 0.00,18.23 L 0.89,18.67 L 0.89,19.79 L 1.72,20.20 L 1.78,20.20 L 1.78,17.97 L 0.89,17.53 L 0.89,15.33 Z" fill="#4569a2" stroke="none" /><path d="M 2.67,14.00 L 2.67,15.11 L 3.53,15.55 L 3.59,15.55 L 3.59,14.44 Z" fill="#4569a2" stroke="none" /><path d="M 9.03,14.98 L 9.03,17.18 L 9.86,17.59 L 9.92,17.65 L 9.92,18.74 L 9.96,18.77 L 10.78,19.18 L 10.85,19.18 L 10.85,18.13 L 10.88,18.10 L 11.67,18.51 L 11.74,18.51 L 11.74,16.38 L 11.80,16.35 L 12.63,16.76 L 12.63,15.71 L 12.66,15.68 L 13.55,16.13 L 13.55,18.29 L 13.52,18.32 L 12.63,17.88 L 12.63,18.99 L 13.55,19.44 L 13.55,18.39 L 13.58,18.35 L 14.41,18.77 L 14.41,14.38 L 14.38,14.35 L 12.66,13.49 L 12.63,13.49 L 12.63,14.50 L 12.60,14.54 L 11.80,14.12 L 11.74,14.12 L 11.74,16.25 L 11.67,16.29 L 10.85,15.87 L 10.85,18.04 L 10.82,18.07 L 9.99,17.65 L 9.92,17.59 L 9.92,15.40 L 9.10,14.98 Z" fill="#4569a2" stroke="none" /><path d="M 7.22,12.95 L 7.22,14.06 L 8.11,14.50 L 8.11,13.39 Z" fill="#4569a2" stroke="none" /><path d="M 0.89,7.63 L 0.89,8.68 L 1.72,9.10 L 1.78,9.16 L 1.78,12.41 L 1.75,12.44 L 0.89,11.99 L 0.89,10.88 L 0.06,10.47 L 0.00,10.47 L 0.00,12.66 L 0.83,13.07 L 0.89,13.14 L 0.89,14.22 L 1.78,14.66 L 1.78,12.50 L 1.81,12.47 L 2.61,12.88 L 2.67,12.88 L 2.67,11.83 L 2.70,11.80 L 3.53,12.21 L 3.59,12.28 L 3.59,13.36 L 4.45,13.81 L 4.49,13.81 L 4.49,12.76 L 4.52,12.72 L 6.23,13.58 L 6.30,13.58 L 6.30,10.31 L 5.47,9.89 L 5.41,9.89 L 5.41,10.88 L 5.38,10.91 L 4.55,10.50 L 4.49,10.50 L 4.49,11.51 L 4.42,11.55 L 3.66,11.17 L 3.59,11.10 L 3.59,10.02 L 2.74,9.61 L 2.67,9.54 L 2.67,8.49 L 0.95,7.63 Z" fill="#4569a2" stroke="none" /><path d="M 7.22,27.36 L 7.22,28.44 L 8.05,28.85 L 8.11,28.85 L 8.11,27.86 L 8.17,27.83 L 9.03,28.28 L 9.03,29.33 L 9.07,29.36 L 10.78,30.22 L 10.85,30.22 L 10.85,29.23 L 10.91,29.20 L 12.56,30.03 L 12.63,30.09 L 12.63,31.14 L 13.52,31.59 L 13.55,31.59 L 13.55,30.57 L 13.58,30.54 L 14.41,30.95 L 14.41,29.84 L 13.61,29.46 L 13.55,29.39 L 13.55,28.31 L 12.63,27.83 L 12.63,26.72 L 9.92,25.38 L 9.92,26.43 L 9.86,26.47 L 9.03,26.05 L 9.03,27.10 L 9.00,27.13 L 8.17,26.72 L 8.11,26.72 L 8.11,27.74 L 8.08,27.77 Z" fill="#4a6ea3" stroke="none" /><path d="M 12.63,23.41 L 12.63,25.64 L 13.49,26.08 L 13.55,26.08 L 13.55,23.86 Z" fill="#4a6ea3" stroke="none" /><path d="M 1.78,24.65 L 1.78,25.70 L 2.64,26.15 L 2.67,26.15 L 2.67,25.13 L 2.70,25.10 L 3.59,25.54 L 3.59,24.49 L 3.63,24.46 L 5.34,25.32 L 5.41,25.38 L 5.41,26.40 L 5.38,26.43 L 4.49,25.99 L 4.49,27.07 L 6.30,27.96 L 6.30,25.80 L 5.47,25.38 L 5.41,25.32 L 5.41,24.24 L 5.38,24.21 L 3.66,23.35 L 3.59,23.35 L 3.59,24.40 L 3.56,24.43 L 2.67,23.98 L 2.67,25.03 L 2.64,25.07 L 1.84,24.65 Z" fill="#4a6ea3" stroke="none" /><path d="M 9.03,20.52 L 9.03,23.86 L 9.86,24.27 L 9.92,24.27 L 9.92,23.22 L 9.96,23.19 L 10.85,23.63 L 10.85,22.52 L 9.92,22.04 L 9.92,20.96 Z" fill="#4a6ea3" stroke="none" /><path d="M 10.85,20.33 L 10.85,21.44 L 11.67,21.85 L 11.74,21.85 L 11.74,20.74 L 10.91,20.33 Z" fill="#4a6ea3" stroke="none" /><path d="M 11.74,18.54 L 11.74,19.66 L 12.63,20.10 L 12.63,21.22 L 13.49,21.63 L 13.55,21.69 L 13.55,22.78 L 14.35,23.19 L 14.41,23.19 L 14.41,18.77 L 13.61,18.35 L 13.55,18.35 L 13.55,19.37 L 13.49,19.40 L 11.80,18.54 Z" fill="#4a6ea3" stroke="none" /><path d="M 1.78,16.89 L 1.78,20.23 L 2.61,20.64 L 2.67,20.64 L 2.67,19.59 L 2.70,19.56 L 3.53,19.98 L 3.59,20.04 L 3.59,22.23 L 4.42,22.65 L 4.49,22.65 L 4.49,20.45 L 3.66,20.04 L 3.59,19.98 L 3.59,18.89 L 2.67,18.42 L 2.67,17.34 Z" fill="#4a6ea3" stroke="none" /><path d="M 9.92,16.54 L 9.92,17.62 L 10.78,18.07 L 10.85,18.07 L 10.85,16.99 L 9.99,16.54 Z" fill="#4a6ea3" stroke="none" /><path d="M 2.67,15.11 L 2.67,16.22 L 3.53,16.67 L 3.59,16.67 L 3.59,15.55 Z" fill="#4a6ea3" stroke="none" /><path d="M 9.03,13.87 L 9.03,14.98 L 9.86,15.40 L 9.92,15.40 L 9.92,14.28 L 9.10,13.87 Z" fill="#4a6ea3" stroke="none" /><path d="M 11.77,13.04 L 11.74,13.04 L 11.74,14.06 L 11.71,14.09 L 10.91,13.68 L 10.85,13.68 L 10.85,15.87 L 11.71,16.32 L 11.74,16.32 L 11.74,14.16 L 11.77,14.12 L 12.56,14.54 L 12.63,14.54 L 12.63,13.49 Z" fill="#4a6ea3" stroke="none" /><path d="M 4.52,12.69 L 4.49,12.69 L 4.49,13.74 L 4.45,13.77 L 3.59,13.36 L 3.59,14.47 L 4.42,14.89 L 4.49,14.89 L 4.49,13.87 L 4.52,13.84 L 5.34,14.25 L 5.41,14.25 L 5.41,13.14 Z" fill="#4a6ea3" stroke="none" /><path d="M 0.00,12.66 L 0.00,14.89 L 0.89,15.33 L 0.89,13.11 Z" fill="#4a6ea3" stroke="none" /><path d="M 6.36,12.50 L 6.30,12.50 L 6.30,13.61 L 7.16,14.03 L 7.22,14.09 L 7.22,15.11 L 7.16,15.14 L 6.36,14.73 L 6.30,14.73 L 6.30,15.81 L 7.22,16.29 L 7.22,17.34 L 7.19,17.37 L 6.30,16.92 L 6.30,17.97 L 6.23,18.00 L 5.41,17.59 L 5.41,18.64 L 5.38,18.67 L 4.55,18.26 L 4.49,18.26 L 4.49,19.34 L 5.41,19.82 L 5.41,23.13 L 6.27,23.57 L 6.30,23.57 L 6.30,22.52 L 6.33,22.49 L 7.22,22.93 L 7.22,17.43 L 7.25,17.40 L 8.05,17.81 L 8.11,17.81 L 8.11,14.50 L 7.28,14.09 L 7.22,14.03 L 7.22,12.95 Z" fill="#4a6ea3" stroke="none" /><path d="M 8.11,11.23 L 8.11,12.31 L 9.03,12.76 L 9.03,11.67 Z" fill="#4a6ea3" stroke="none" /><path d="M 2.67,8.52 L 2.67,9.57 L 3.59,10.05 L 3.59,11.13 L 3.63,11.17 L 4.49,11.58 L 4.49,10.53 L 4.52,10.50 L 5.41,10.94 L 5.41,9.86 L 2.74,8.52 Z" fill="#4a6ea3" stroke="none" /><path d="M 13.55,29.42 L 12.69,28.98 L 12.63,28.98 L 12.63,30.00 L 12.56,30.03 L 10.85,29.17 L 10.85,30.25 L 12.56,31.11 L 12.63,31.11 L 12.63,30.12 L 12.66,30.09 L 13.49,30.50 L 13.55,30.50 Z" fill="#5b76a3" stroke="none" /><path d="M 8.11,27.80 L 8.11,28.88 L 9.03,29.33 L 9.03,28.25 Z" fill="#5b76a3" stroke="none" /><path d="M 3.59,24.46 L 3.59,25.48 L 3.56,25.51 L 2.74,25.10 L 2.67,25.10 L 2.67,26.15 L 4.42,27.04 L 4.49,27.04 L 4.49,26.05 L 4.52,26.02 L 5.34,26.43 L 5.41,26.43 L 5.41,25.35 L 3.66,24.46 Z" fill="#5b76a3" stroke="none" /><path d="M 10.85,19.21 L 10.85,20.33 L 12.63,21.22 L 12.63,22.27 L 12.60,22.30 L 11.80,21.88 L 11.74,21.88 L 11.74,22.97 L 12.63,23.41 L 12.63,22.36 L 12.66,22.33 L 13.49,22.74 L 13.55,22.81 L 13.55,23.89 L 14.41,24.30 L 14.41,23.19 L 13.61,22.81 L 13.55,22.74 L 13.55,21.66 L 12.63,21.18 L 12.63,20.07 L 10.91,19.21 Z" fill="#5b76a3" stroke="none" /><path d="M 5.47,13.17 L 5.41,13.17 L 5.41,15.30 L 5.34,15.33 L 3.66,14.47 L 3.59,14.47 L 3.59,16.64 L 3.56,16.67 L 2.67,16.22 L 2.67,18.45 L 3.53,18.86 L 3.59,18.93 L 3.59,20.01 L 4.45,20.45 L 4.49,20.45 L 4.49,18.29 L 4.52,18.26 L 5.41,18.70 L 5.41,17.65 L 5.47,17.62 L 6.30,18.04 L 6.30,16.99 L 6.33,16.95 L 7.22,17.40 L 7.22,18.51 L 8.05,18.93 L 8.11,18.93 L 8.11,17.81 L 7.22,17.37 L 7.22,16.25 L 6.36,15.84 L 6.30,15.78 L 6.30,14.76 L 6.33,14.73 L 7.22,15.17 L 7.22,14.06 Z" fill="#5b76a3" stroke="none" /><path d="M 9.03,11.71 L 9.03,12.76 L 9.86,13.17 L 9.92,13.23 L 9.92,16.54 L 10.85,16.99 L 10.85,13.71 L 10.88,13.68 L 11.67,14.09 L 11.74,14.09 L 11.74,13.04 L 10.85,12.60 L 10.85,13.61 L 10.82,13.65 L 9.99,13.23 L 9.92,13.17 L 9.92,12.12 L 9.10,11.71 Z" fill="#5b76a3" stroke="none" /><path d="M 11.74,20.77 L 11.74,21.88 L 12.63,22.33 L 12.63,23.41 L 13.49,23.86 L 13.55,23.86 L 13.55,22.78 L 12.63,22.30 L 12.63,21.18 L 11.80,20.77 Z" fill="#6c80a4" stroke="none" /><path d="M 4.49,13.81 L 4.49,14.92 L 5.34,15.33 L 5.41,15.40 L 5.41,16.48 L 6.30,16.92 L 6.30,15.81 L 5.47,15.40 L 5.41,15.33 L 5.41,14.25 Z" fill="#6c80a4" stroke="none" /><path d="M 9.99,12.15 L 9.92,12.15 L 9.92,13.14 L 9.89,13.17 L 9.03,12.76 L 9.03,13.87 L 9.86,14.28 L 9.92,14.28 L 9.92,13.26 L 9.96,13.23 L 10.78,13.65 L 10.85,13.65 L 10.85,12.60 Z" fill="#6c80a4" stroke="none" /><path d="M 5.38,8.08 L 5.38,8.11 L 7.16,9.00 L 8.05,8.56 L 8.11,8.56 L 9.86,9.45 L 9.92,9.45 L 10.82,9.00 L 12.53,9.86 L 12.56,9.89 L 12.50,9.96 L 11.71,10.34 L 11.71,10.37 L 12.50,10.75 L 12.53,10.82 L 11.71,11.23 L 11.71,11.26 L 12.56,11.71 L 11.74,12.12 L 11.71,12.18 L 13.49,13.07 L 14.41,12.63 L 14.41,12.60 L 13.61,12.21 L 13.55,12.15 L 14.38,11.74 L 14.38,11.67 L 12.66,10.82 L 12.69,10.75 L 13.49,10.37 L 13.46,10.31 L 12.72,9.96 L 12.66,9.89 L 13.52,9.45 L 14.38,9.89 L 14.44,9.89 L 15.30,9.45 L 18.89,11.26 L 18.96,11.26 L 19.82,10.82 L 20.64,11.23 L 20.74,11.23 L 22.49,10.34 L 22.49,10.31 L 20.77,9.45 L 20.71,9.45 L 18.96,10.34 L 18.89,10.34 L 14.47,8.11 L 14.35,8.11 L 13.55,8.52 L 13.46,8.52 L 12.66,8.11 L 12.53,8.11 L 10.85,8.97 L 10.75,8.97 L 8.11,7.63 L 8.05,7.63 L 7.19,8.08 L 6.30,7.63 L 6.23,7.63 Z" fill="#6a9bf8" stroke="none" /><path d="M 1.78,8.05 L 1.78,8.08 L 3.56,8.97 L 3.63,8.97 L 4.45,8.56 L 4.45,8.52 L 2.67,7.63 L 2.61,7.63 Z" fill="#6a9bf8" stroke="none" /><path d="M 18.96,4.01 L 18.96,4.04 L 20.64,4.87 L 20.71,4.93 L 19.88,5.34 L 19.88,5.41 L 21.60,6.27 L 21.53,6.33 L 20.74,6.71 L 20.74,6.74 L 22.52,7.63 L 22.58,7.63 L 23.44,7.19 L 23.44,7.16 L 22.62,6.74 L 22.65,6.68 L 23.41,6.30 L 23.51,6.30 L 26.15,7.63 L 26.21,7.63 L 27.07,7.19 L 27.90,7.60 L 27.99,7.60 L 28.79,7.19 L 28.79,7.16 L 26.18,5.85 L 26.08,5.85 L 25.26,6.27 L 24.40,5.82 L 24.33,5.82 L 23.44,6.27 L 21.69,5.38 L 22.52,4.96 L 22.55,4.90 L 19.88,3.56 L 19.82,3.56 Z" fill="#6a9bf8" stroke="none" /><path d="M 7.22,3.56 L 7.25,3.63 L 8.02,4.01 L 7.95,4.07 L 7.16,4.45 L 7.16,4.49 L 8.94,5.38 L 8.08,5.82 L 8.08,5.85 L 8.91,6.27 L 8.87,6.33 L 8.08,6.71 L 8.08,6.74 L 8.97,7.19 L 9.86,6.74 L 10.75,7.19 L 10.82,7.19 L 11.67,6.74 L 11.67,6.71 L 10.85,6.30 L 10.88,6.23 L 11.67,5.85 L 11.67,5.82 L 9.92,4.93 L 9.99,4.87 L 10.75,4.49 L 10.82,4.49 L 11.71,4.93 L 12.60,4.49 L 12.60,4.45 L 11.71,4.01 L 10.82,4.45 L 10.75,4.45 L 8.17,3.15 L 8.05,3.15 Z" fill="#6a9bf8" stroke="none" /><path d="M 19.79,2.67 L 17.15,1.34 L 17.02,1.34 L 16.25,1.72 L 16.25,1.78 L 17.05,2.16 L 17.08,2.19 L 17.02,2.26 L 15.36,3.09 L 15.27,3.09 L 14.47,2.67 L 14.35,2.67 L 13.52,3.09 L 13.52,3.12 L 14.38,3.56 L 14.44,3.56 L 15.30,3.12 L 16.19,3.56 L 16.25,3.56 L 18.00,2.67 L 18.07,2.67 L 18.93,3.12 L 19.79,2.70 Z" fill="#6a9bf8" stroke="none" /><path d="M 18.04,9.89 L 18.04,9.92 L 18.86,10.34 L 18.99,10.34 L 19.82,9.92 L 19.79,9.86 L 18.96,9.45 L 18.89,9.45 Z" fill="#6ba1fa" stroke="none" /><path d="M 14.44,9.86 L 14.44,9.92 L 16.16,10.78 L 16.29,10.78 L 17.11,10.37 L 17.11,10.34 L 15.33,9.45 L 15.27,9.45 Z" fill="#6ba1fa" stroke="none" /><path d="M 13.49,9.45 L 12.63,9.89 L 12.63,9.92 L 13.46,10.34 L 13.39,10.40 L 12.60,10.78 L 12.60,10.82 L 14.38,11.71 L 13.52,12.15 L 13.52,12.18 L 14.31,12.56 L 14.35,12.63 L 13.55,13.04 L 13.46,13.04 L 11.80,12.21 L 11.74,12.15 L 11.77,12.12 L 12.56,11.74 L 12.56,11.67 L 11.74,11.26 L 11.64,11.26 L 10.82,11.67 L 10.82,11.74 L 11.64,12.15 L 11.58,12.21 L 10.85,12.56 L 10.85,12.60 L 14.38,14.38 L 14.44,14.38 L 16.16,13.52 L 16.13,13.46 L 15.36,13.07 L 15.43,13.01 L 16.22,12.63 L 16.22,12.60 L 14.44,11.71 L 15.27,11.29 L 15.30,11.23 L 13.61,10.40 L 13.55,10.34 L 13.58,10.31 L 14.38,9.92 L 14.38,9.86 L 13.55,9.45 Z" fill="#6ba1fa" stroke="none" /><path d="M 7.19,8.97 L 7.22,9.03 L 8.05,9.45 L 8.11,9.45 L 8.97,9.00 L 8.97,8.97 L 8.14,8.56 L 8.02,8.56 Z" fill="#6ba1fa" stroke="none" /><path d="M 9.89,8.52 L 9.89,8.56 L 10.78,9.00 L 11.71,8.56 L 11.71,8.52 L 10.82,8.08 Z" fill="#6ba1fa" stroke="none" /><path d="M 3.56,8.08 L 3.56,8.11 L 4.39,8.52 L 4.36,8.59 L 3.63,8.94 L 3.63,9.00 L 6.30,10.34 L 7.16,9.92 L 7.13,9.86 L 5.41,9.00 L 5.47,8.94 L 6.27,8.56 L 6.27,8.52 L 4.49,7.63 L 4.42,7.63 Z" fill="#6ba1fa" stroke="none" /><path d="M 0.03,7.16 L 0.06,7.22 L 0.83,7.60 L 0.92,7.60 L 1.72,7.19 L 1.72,7.16 L 0.89,6.74 Z" fill="#6ba1fa" stroke="none" /><path d="M 21.63,6.27 L 20.74,5.82 L 19.85,6.27 L 19.85,6.30 L 20.68,6.71 L 20.80,6.71 L 21.63,6.30 Z" fill="#6ba1fa" stroke="none" /><path d="M 19.85,9.00 L 22.52,10.34 L 23.41,9.89 L 23.41,9.86 L 22.58,9.45 L 23.44,9.00 L 23.44,8.97 L 22.65,8.59 L 22.62,8.56 L 22.65,8.49 L 23.41,8.11 L 23.51,8.11 L 24.30,8.52 L 24.43,8.52 L 25.22,8.11 L 25.32,8.11 L 26.15,8.52 L 27.93,7.63 L 27.93,7.60 L 27.13,7.19 L 27.04,7.19 L 26.18,7.63 L 23.57,6.33 L 23.51,6.27 L 24.37,5.82 L 25.22,6.27 L 25.32,6.27 L 26.08,5.88 L 26.12,5.82 L 24.33,4.93 L 23.51,5.34 L 23.41,5.34 L 22.62,4.93 L 22.52,4.93 L 21.69,5.34 L 21.69,5.41 L 23.41,6.27 L 23.35,6.33 L 22.55,6.71 L 22.55,6.74 L 23.35,7.13 L 23.41,7.19 L 22.55,7.63 L 21.69,7.19 L 21.60,7.19 L 20.77,7.60 L 20.77,7.67 L 21.60,8.08 L 21.53,8.14 L 19.85,8.97 Z" fill="#6ba1fa" stroke="none" /><path d="M 8.02,4.93 L 7.19,5.34 L 7.19,5.41 L 8.02,5.82 L 7.95,5.88 L 7.22,6.23 L 7.19,6.30 L 7.98,6.68 L 8.02,6.74 L 6.30,7.60 L 6.30,7.67 L 7.13,8.08 L 7.22,8.08 L 8.08,7.63 L 8.94,8.08 L 9.03,8.08 L 9.86,7.67 L 9.86,7.60 L 8.14,6.74 L 8.17,6.68 L 8.97,6.30 L 8.97,6.27 L 8.17,5.88 L 8.11,5.82 L 8.94,5.41 L 8.94,5.34 L 8.11,4.93 Z" fill="#6ba1fa" stroke="none" /><path d="M 18.96,4.90 L 18.99,4.96 L 19.82,5.38 L 19.88,5.38 L 20.74,4.93 L 20.74,4.90 L 19.91,4.49 L 19.79,4.49 Z" fill="#6ba1fa" stroke="none" /><path d="M 17.15,3.09 L 17.18,3.15 L 18.89,4.01 L 18.99,4.01 L 19.85,3.56 L 21.60,4.45 L 21.73,4.45 L 22.49,4.07 L 22.49,4.01 L 19.82,2.67 L 18.99,3.09 L 18.89,3.09 L 18.10,2.67 L 17.97,2.67 Z" fill="#6ba1fa" stroke="none" /><path d="M 14.47,0.00 L 14.35,0.00 L 12.66,0.86 L 12.66,0.89 L 13.39,1.24 L 13.46,1.30 L 12.63,1.72 L 12.63,1.78 L 13.46,2.19 L 13.39,2.26 L 12.60,2.64 L 12.60,2.67 L 13.39,3.05 L 13.46,3.12 L 13.42,3.15 L 11.71,4.01 L 10.82,3.56 L 10.75,3.56 L 9.89,4.01 L 9.89,4.04 L 10.72,4.45 L 10.69,4.52 L 9.89,4.90 L 9.89,4.93 L 11.64,5.82 L 11.58,5.88 L 10.78,6.27 L 10.78,6.30 L 11.58,6.68 L 11.64,6.74 L 10.82,7.16 L 10.82,7.22 L 13.49,8.56 L 15.30,7.67 L 15.30,7.63 L 11.80,5.88 L 11.74,5.82 L 11.77,5.79 L 12.56,5.41 L 12.56,5.34 L 10.88,4.52 L 10.85,4.45 L 11.64,4.04 L 11.74,4.04 L 15.27,5.82 L 15.36,5.82 L 16.19,5.41 L 16.19,5.34 L 13.61,4.07 L 13.55,4.01 L 14.38,3.59 L 14.38,3.53 L 13.55,3.12 L 13.61,3.05 L 14.38,2.67 L 14.44,2.67 L 15.20,3.05 L 15.27,3.12 L 14.44,3.53 L 14.44,3.59 L 16.16,4.45 L 16.29,4.45 L 17.11,4.04 L 17.08,3.98 L 15.36,3.12 L 15.43,3.05 L 17.11,2.23 L 17.08,2.16 L 16.25,1.75 L 17.08,1.34 L 17.08,1.30 Z" fill="#6ba1fa" stroke="none" /><path d="M 14.44,11.67 L 14.44,11.74 L 16.16,12.60 L 16.13,12.66 L 15.33,13.04 L 15.36,13.11 L 16.13,13.49 L 16.22,13.49 L 17.05,13.07 L 17.05,13.01 L 16.32,12.66 L 16.29,12.60 L 17.11,12.18 L 17.08,12.12 L 15.36,11.26 L 15.27,11.26 Z" fill="#73a9fb" stroke="none" /><path d="M 18.96,11.23 L 18.96,11.29 L 19.72,11.67 L 19.85,11.67 L 20.68,11.26 L 20.64,11.20 L 19.88,10.82 L 19.79,10.82 Z" fill="#73a9fb" stroke="none" /><path d="M 16.22,10.78 L 16.22,10.82 L 17.11,11.26 L 18.00,10.82 L 18.00,10.78 L 17.18,10.37 L 17.05,10.37 Z" fill="#73a9fb" stroke="none" /><path d="M 7.25,10.75 L 7.25,10.82 L 10.82,12.60 L 11.67,12.18 L 11.64,12.12 L 10.82,11.71 L 12.60,10.82 L 12.60,10.78 L 11.77,10.37 L 11.64,10.37 L 10.85,10.78 L 10.75,10.78 L 9.96,10.37 L 9.83,10.37 L 9.03,10.78 L 8.94,10.78 L 8.14,10.37 L 8.02,10.37 Z" fill="#73a9fb" stroke="none" /><path d="M 13.52,10.34 L 13.52,10.37 L 14.35,10.78 L 14.47,10.78 L 15.30,10.37 L 15.27,10.31 L 14.44,9.89 L 14.38,9.89 Z" fill="#73a9fb" stroke="none" /><path d="M 18.96,9.42 L 18.96,9.48 L 19.79,9.89 L 19.88,9.89 L 20.71,9.48 L 20.71,9.42 L 19.88,9.00 L 19.79,9.00 Z" fill="#73a9fb" stroke="none" /><path d="M 9.92,9.42 L 9.92,9.48 L 10.75,9.89 L 10.85,9.89 L 11.67,9.48 L 11.67,9.42 L 10.85,9.00 L 10.75,9.00 Z" fill="#73a9fb" stroke="none" /><path d="M 5.38,8.97 L 5.41,9.03 L 7.13,9.89 L 7.22,9.89 L 8.05,9.48 L 8.05,9.42 L 6.33,8.56 L 6.20,8.56 Z" fill="#73a9fb" stroke="none" /><path d="M 22.58,9.48 L 23.35,9.86 L 23.48,9.86 L 26.08,8.56 L 26.12,8.49 L 25.26,8.08 L 24.40,8.52 L 24.33,8.52 L 23.44,8.08 L 22.55,8.52 L 22.55,8.56 L 23.35,8.94 L 23.41,9.00 L 22.58,9.42 Z" fill="#73a9fb" stroke="none" /><path d="M 20.68,6.74 L 19.85,7.16 L 19.88,7.22 L 20.71,7.63 L 19.88,8.05 L 19.85,8.11 L 20.68,8.52 L 20.80,8.52 L 21.63,8.11 L 21.60,8.05 L 20.77,7.63 L 21.60,7.22 L 21.63,7.16 L 20.80,6.74 Z" fill="#73a9fb" stroke="none" /><path d="M 9.00,7.16 L 9.03,7.22 L 9.86,7.63 L 9.03,8.05 L 9.00,8.11 L 9.83,8.52 L 9.96,8.52 L 10.75,8.11 L 10.85,8.11 L 11.64,8.52 L 11.77,8.52 L 12.60,8.11 L 12.60,8.08 L 9.92,6.74 L 9.83,6.74 Z" fill="#73a9fb" stroke="none" /><path d="M 18.96,5.82 L 18.96,5.85 L 19.79,6.27 L 19.91,6.27 L 20.74,5.85 L 20.71,5.79 L 19.88,5.38 L 19.82,5.38 Z" fill="#73a9fb" stroke="none" /><path d="M 11.71,4.90 L 11.74,4.96 L 12.56,5.38 L 11.74,5.79 L 11.71,5.85 L 16.16,8.08 L 16.13,8.14 L 15.33,8.52 L 15.36,8.59 L 17.97,9.89 L 18.07,9.89 L 18.89,9.48 L 18.89,9.42 L 18.07,9.00 L 18.13,8.94 L 18.93,8.56 L 18.93,8.52 L 18.04,8.08 L 17.15,8.52 L 17.08,8.52 L 16.29,8.11 L 16.32,8.05 L 17.11,7.67 L 17.08,7.60 L 16.25,7.19 L 17.11,6.74 L 17.11,6.71 L 16.29,6.30 L 16.32,6.23 L 17.11,5.85 L 17.08,5.79 L 16.25,5.38 L 16.19,5.38 L 15.30,5.82 L 12.66,4.49 L 12.53,4.49 Z" fill="#73a9fb" stroke="none" /><path d="M 21.66,4.45 L 21.66,4.49 L 23.44,5.38 L 24.30,4.96 L 24.27,4.90 L 22.55,4.04 L 22.49,4.04 Z" fill="#73a9fb" stroke="none" /><path d="M 8.05,4.01 L 7.25,3.59 L 7.16,3.59 L 6.33,4.01 L 6.33,4.07 L 7.06,4.42 L 7.09,4.45 L 7.06,4.52 L 6.30,4.90 L 6.20,4.90 L 5.38,4.49 L 3.59,5.38 L 3.59,5.41 L 4.39,5.79 L 4.42,5.82 L 4.39,5.85 L 2.67,6.71 L 2.61,6.71 L 1.81,6.30 L 1.75,6.30 L 0.92,6.71 L 0.89,6.78 L 1.62,7.13 L 1.69,7.19 L 0.92,7.57 L 0.89,7.63 L 1.72,8.05 L 1.84,8.05 L 2.61,7.67 L 2.61,7.60 L 1.78,7.19 L 1.84,7.13 L 2.61,6.74 L 2.67,6.74 L 3.44,7.13 L 3.50,7.19 L 2.67,7.60 L 2.67,7.67 L 3.50,8.08 L 3.59,8.08 L 4.45,7.63 L 5.31,8.08 L 5.41,8.08 L 8.08,6.74 L 8.08,6.71 L 7.28,6.33 L 7.22,6.27 L 8.05,5.85 L 8.05,5.82 L 7.19,5.38 L 8.05,4.93 L 8.05,4.90 L 7.22,4.49 L 7.25,4.42 L 8.05,4.04 Z" fill="#73a9fb" stroke="none" /><path d="M 19.85,4.49 L 19.85,4.45 L 17.18,3.12 L 17.08,3.12 L 16.25,3.53 L 16.25,3.59 L 17.08,4.01 L 17.02,4.07 L 16.25,4.45 L 16.19,4.45 L 14.44,3.56 L 14.38,3.56 L 13.52,4.01 L 13.52,4.04 L 15.30,4.93 L 16.19,4.49 L 16.25,4.49 L 17.11,4.93 L 18.00,4.49 L 18.07,4.49 L 18.93,4.93 Z" fill="#73a9fb" stroke="none" /><path d="M 10.78,2.64 L 9.96,2.23 L 9.89,2.23 L 8.11,3.12 L 8.11,3.15 L 9.83,4.01 L 9.92,4.01 L 10.75,3.59 L 10.75,3.53 L 9.92,3.12 L 9.99,3.05 L 10.78,2.67 Z" fill="#73a9fb" stroke="none" /><path d="M 12.66,0.86 L 11.74,1.30 L 11.74,1.34 L 12.56,1.75 L 11.71,2.19 L 11.71,2.23 L 12.50,2.61 L 12.53,2.67 L 10.82,3.53 L 10.82,3.59 L 11.64,4.01 L 11.74,4.01 L 13.49,3.12 L 13.49,3.09 L 12.66,2.67 L 12.69,2.61 L 13.49,2.23 L 13.49,2.19 L 12.63,1.75 L 13.46,1.34 L 13.49,1.27 Z" fill="#73a9fb" stroke="none" /><path d="M 18.07,11.67 L 18.07,11.74 L 18.83,12.12 L 18.96,12.12 L 19.79,11.71 L 19.79,11.67 L 18.96,11.26 L 18.89,11.26 Z" fill="#8cb6fb" stroke="none" /><path d="M 14.41,10.78 L 14.41,10.82 L 17.08,12.15 L 17.02,12.21 L 16.22,12.60 L 16.22,12.63 L 17.05,13.04 L 17.11,13.04 L 17.97,12.60 L 17.97,12.56 L 17.24,12.21 L 17.18,12.15 L 18.00,11.74 L 18.00,11.67 L 15.33,10.34 Z" fill="#8cb6fb" stroke="none" /><path d="M 6.33,10.34 L 7.19,10.78 L 7.25,10.78 L 8.05,10.37 L 8.11,10.37 L 9.00,10.82 L 9.86,10.37 L 9.92,10.37 L 10.82,10.82 L 12.60,9.92 L 12.60,9.89 L 11.74,9.45 L 11.67,9.45 L 9.92,10.34 L 9.86,10.34 L 9.10,9.96 L 9.03,9.89 L 9.86,9.48 L 9.86,9.42 L 9.03,9.00 L 8.94,9.00 L 8.11,9.42 L 8.11,9.48 L 8.91,9.86 L 8.94,9.89 L 8.87,9.96 L 8.11,10.34 L 8.05,10.34 L 7.16,9.89 L 6.33,10.31 Z" fill="#8cb6fb" stroke="none" /><path d="M 4.42,5.79 L 3.66,5.41 L 3.53,5.41 L 1.81,6.27 L 1.81,6.33 L 2.54,6.68 L 2.58,6.74 L 1.75,7.16 L 1.75,7.19 L 2.61,7.63 L 2.67,7.63 L 3.50,7.22 L 3.53,7.16 L 2.74,6.78 L 2.70,6.71 L 4.42,5.85 Z" fill="#8cb6fb" stroke="none" /><path d="M 15.33,4.90 L 15.36,4.96 L 17.08,5.82 L 17.02,5.88 L 16.22,6.27 L 16.22,6.30 L 17.02,6.68 L 17.08,6.74 L 16.25,7.16 L 16.25,7.22 L 17.08,7.63 L 17.02,7.70 L 16.25,8.08 L 16.19,8.08 L 15.30,7.63 L 14.41,8.08 L 14.41,8.11 L 15.30,8.56 L 16.19,8.11 L 16.25,8.11 L 17.05,8.52 L 17.18,8.52 L 17.97,8.11 L 18.07,8.11 L 18.83,8.49 L 18.86,8.56 L 18.04,8.97 L 18.04,9.00 L 18.89,9.45 L 18.96,9.45 L 20.74,8.56 L 20.74,8.52 L 18.96,7.63 L 20.74,6.74 L 20.74,6.71 L 19.05,5.88 L 18.99,5.82 L 19.82,5.41 L 19.82,5.34 L 18.10,4.49 L 17.97,4.49 L 17.18,4.90 L 17.08,4.90 L 16.29,4.49 L 16.16,4.49 Z" fill="#8cb6fb" stroke="none" /><path d="M 5.41,4.52 L 6.27,4.93 L 7.16,4.49 L 7.16,4.45 L 6.33,4.04 L 6.27,4.04 L 5.44,4.45 Z" fill="#8cb6fb" stroke="none" /><path d="M 12.56,1.72 L 11.80,1.34 L 11.67,1.34 L 9.96,2.19 L 9.96,2.26 L 10.69,2.61 L 10.72,2.67 L 9.89,3.09 L 9.89,3.12 L 10.75,3.56 L 10.82,3.56 L 12.60,2.67 L 12.60,2.64 L 11.80,2.26 L 11.74,2.19 L 12.56,1.78 Z" fill="#8cb6fb" stroke="none" /><path d="M 18.07,10.82 L 17.97,10.82 L 17.15,11.23 L 17.18,11.29 L 18.00,11.71 L 17.18,12.12 L 17.15,12.18 L 17.97,12.60 L 18.89,12.15 L 18.89,12.12 L 18.07,11.71 L 18.89,11.29 L 18.89,11.23 Z" fill="#a7c6fc" stroke="none" /><path d="M 7.19,9.89 L 7.19,9.92 L 8.02,10.34 L 8.14,10.34 L 8.94,9.92 L 9.03,9.92 L 9.83,10.34 L 9.96,10.34 L 10.78,9.92 L 10.75,9.86 L 9.92,9.45 L 9.86,9.45 L 9.00,9.89 L 8.11,9.45 L 8.05,9.45 Z" fill="#a7c6fc" stroke="none" /><path d="M 18.96,7.60 L 18.96,7.67 L 19.79,8.08 L 19.88,8.08 L 20.71,7.67 L 20.71,7.60 L 19.88,7.19 L 19.79,7.19 Z" fill="#a7c6fc" stroke="none" /><path d="M 17.15,7.63 L 17.15,7.67 L 17.97,8.08 L 18.07,8.08 L 18.89,7.67 L 18.89,7.60 L 18.07,7.19 L 18.00,7.19 Z" fill="#a7c6fc" stroke="none" /></svg>