<svg height="32" width="32" viewBox="0 0 32 32"><defs /><path d="M 17.97,28.09 L 17.91,28.09 L 17.08,28.50 L 17.08,30.66 L 17.15,30.66 L 17.97,30.25 Z" fill="#382920" stroke="none" /><path d="M 15.27,27.20 L 14.41,27.61 L 14.41,29.84 L 14.47,29.84 L 15.27,29.42 Z" fill="#382920" stroke="none" /><path d="M 19.79,22.74 L 19.72,22.74 L 18.89,23.16 L 18.89,24.27 L 18.96,24.27 L 19.79,23.86 Z" fill="#382920" stroke="none" /><path d="M 24.30,21.57 L 23.41,22.01 L 23.41,24.24 L 24.30,23.79 L 24.33,23.83 L 24.33,25.99 L 24.37,25.99 L 25.22,25.54 L 25.22,22.23 L 25.16,22.23 L 24.37,22.65 L 24.33,22.62 L 24.33,21.57 Z" fill="#382920" stroke="none" /><path d="M 26.15,19.56 L 26.08,19.56 L 25.22,20.01 L 25.22,21.12 L 26.15,20.68 Z" fill="#382920" stroke="none" /><path d="M 16.19,18.99 L 16.13,18.99 L 15.27,19.44 L 15.27,20.55 L 16.19,20.10 Z" fill="#382920" stroke="none" /><path d="M 22.52,18.04 L 21.60,18.48 L 21.60,19.59 L 20.71,20.04 L 20.71,22.27 L 21.60,21.82 L 21.60,19.63 L 22.52,19.15 Z" fill="#382920" stroke="none" /><path d="M 27.01,14.66 L 26.15,15.11 L 26.15,16.22 L 27.01,15.81 L 27.04,15.84 L 27.04,16.89 L 27.07,16.89 L 27.93,16.45 L 27.93,15.33 L 27.07,15.75 L 27.04,15.71 L 27.04,14.66 Z" fill="#382920" stroke="none" /><path d="M 19.79,13.87 L 19.72,13.87 L 18.89,14.28 L 18.89,15.40 L 18.96,15.40 L 19.79,14.98 Z" fill="#382920" stroke="none" /><path d="M 17.08,13.04 L 16.19,13.49 L 16.19,14.54 L 15.27,15.01 L 15.27,16.10 L 15.33,16.10 L 16.19,15.65 L 16.19,14.57 L 17.08,14.12 Z" fill="#382920" stroke="none" /><path d="M 28.82,11.58 L 28.76,11.58 L 27.93,11.99 L 27.93,13.11 L 28.82,12.66 Z" fill="#382920" stroke="none" /><path d="M 24.27,10.50 L 23.41,10.94 L 23.41,12.02 L 23.48,12.02 L 24.30,11.61 L 24.33,11.64 L 24.33,12.69 L 24.37,12.69 L 25.22,12.25 L 25.22,11.13 L 24.37,11.55 L 24.33,11.51 L 24.33,10.50 Z" fill="#382920" stroke="none" /><path d="M 21.60,27.36 L 20.71,27.80 L 20.71,28.85 L 20.77,28.85 L 21.60,28.44 Z" fill="#3a2b20" stroke="none" /><path d="M 17.08,25.19 L 16.19,25.64 L 16.19,26.72 L 16.25,26.72 L 17.08,26.31 Z" fill="#3a2b20" stroke="none" /><path d="M 15.27,25.00 L 15.20,25.00 L 14.41,25.42 L 14.41,27.61 L 14.47,27.61 L 15.27,27.20 Z" fill="#3a2b20" stroke="none" /><path d="M 24.33,24.91 L 24.27,24.91 L 23.41,25.35 L 23.41,26.43 L 23.48,26.43 L 24.33,25.99 Z" fill="#3a2b20" stroke="none" /><path d="M 26.97,20.23 L 26.15,20.64 L 26.15,21.76 L 26.97,21.34 L 27.04,21.38 L 27.04,23.51 L 26.97,23.57 L 26.15,23.98 L 26.15,25.07 L 26.21,25.07 L 27.01,24.65 L 27.04,24.68 L 27.04,25.70 L 27.07,25.70 L 28.82,24.81 L 28.82,23.76 L 28.76,23.76 L 27.96,24.17 L 27.93,24.14 L 27.93,20.87 L 27.07,21.28 L 27.04,21.25 L 27.04,20.23 Z" fill="#3a2b20" stroke="none" /><path d="M 24.33,17.15 L 24.27,17.15 L 23.41,17.59 L 23.41,20.90 L 22.52,21.34 L 22.52,22.46 L 22.49,22.49 L 21.63,22.90 L 21.60,22.87 L 21.60,21.82 L 21.57,21.82 L 20.71,22.27 L 20.71,23.35 L 20.64,23.41 L 18.93,24.27 L 18.89,24.24 L 18.89,23.19 L 19.79,22.74 L 19.79,21.63 L 19.72,21.63 L 18.89,22.04 L 18.89,23.16 L 17.97,23.63 L 17.97,24.75 L 18.86,24.30 L 18.89,24.33 L 18.89,25.35 L 18.83,25.42 L 17.97,25.83 L 17.97,26.94 L 17.08,27.39 L 17.08,28.50 L 16.22,28.95 L 16.19,28.91 L 16.19,27.86 L 16.13,27.86 L 15.27,28.31 L 15.27,30.50 L 15.33,30.50 L 16.16,30.09 L 16.19,30.12 L 16.19,31.11 L 16.25,31.11 L 17.08,30.70 L 17.08,28.53 L 17.11,28.50 L 17.94,28.09 L 17.97,28.12 L 17.97,29.17 L 18.89,28.72 L 18.89,27.64 L 18.96,27.58 L 19.79,27.17 L 19.79,24.97 L 19.85,24.91 L 21.57,24.05 L 21.60,24.08 L 21.60,25.13 L 21.66,25.13 L 22.52,24.68 L 22.52,23.60 L 22.58,23.54 L 23.41,23.13 L 23.41,20.93 L 23.44,20.90 L 24.27,20.49 L 24.33,20.52 L 24.33,22.65 L 24.40,22.65 L 25.22,22.23 L 25.22,18.89 L 24.40,19.31 L 24.33,19.28 Z" fill="#3a2b20" stroke="none" /><path d="M 22.52,16.92 L 21.60,17.37 L 21.60,18.48 L 20.71,18.93 L 20.71,20.04 L 20.77,20.04 L 21.57,19.63 L 21.60,19.66 L 21.60,20.71 L 22.52,20.26 L 22.52,19.15 L 21.63,19.59 L 21.60,19.56 L 21.60,18.51 L 22.52,18.04 Z" fill="#3a2b20" stroke="none" /><path d="M 27.04,15.78 L 26.15,16.22 L 26.15,17.34 L 26.97,16.92 L 27.04,16.95 L 27.04,17.97 L 26.15,18.42 L 26.15,19.53 L 26.21,19.53 L 27.04,19.12 L 27.04,18.00 L 27.93,17.56 L 27.93,16.45 L 27.07,16.86 L 27.04,16.83 Z" fill="#3a2b20" stroke="none" /><path d="M 15.20,13.96 L 14.41,14.38 L 14.41,22.08 L 14.47,22.08 L 15.20,21.69 L 15.27,21.73 L 15.27,23.86 L 15.33,23.86 L 16.19,23.41 L 16.19,20.10 L 17.08,19.66 L 17.08,18.54 L 17.02,18.54 L 16.19,18.96 L 16.19,20.07 L 15.33,20.52 L 15.27,20.49 L 15.27,18.35 L 16.19,17.88 L 16.19,16.76 L 15.30,17.21 L 15.27,17.18 L 15.27,13.96 Z" fill="#3a2b20" stroke="none" /><path d="M 28.82,12.66 L 27.93,13.11 L 27.93,14.22 L 28.82,13.77 Z" fill="#3a2b20" stroke="none" /><path d="M 17.97,12.60 L 17.08,13.04 L 17.08,14.09 L 16.19,14.54 L 16.19,15.65 L 17.97,14.76 Z" fill="#3a2b20" stroke="none" /><path d="M 24.33,11.58 L 22.52,12.47 L 22.52,13.58 L 22.58,13.58 L 23.38,13.17 L 23.41,13.20 L 23.41,14.25 L 23.48,14.25 L 24.27,13.84 L 24.33,13.87 L 24.33,14.89 L 23.41,15.36 L 23.41,16.48 L 24.33,16.03 L 24.33,14.92 L 24.37,14.89 L 25.19,14.47 L 25.22,14.50 L 25.22,15.55 L 25.29,15.55 L 26.15,15.11 L 26.15,12.91 L 26.08,12.91 L 25.26,13.33 L 25.22,13.30 L 25.22,12.25 L 24.40,12.66 L 24.33,12.63 Z" fill="#3a2b20" stroke="none" /><path d="M 20.71,11.23 L 19.79,11.67 L 19.79,12.72 L 19.72,12.79 L 18.89,13.20 L 18.89,14.28 L 18.96,14.28 L 19.75,13.87 L 19.79,13.90 L 19.79,14.95 L 18.89,15.40 L 18.89,16.51 L 18.96,16.51 L 19.79,16.10 L 19.79,14.98 L 20.71,14.50 Z" fill="#3a2b20" stroke="none" /><path d="M 22.52,10.34 L 22.46,10.34 L 21.60,10.78 L 21.60,11.83 L 21.66,11.83 L 22.52,11.39 Z" fill="#3a2b20" stroke="none" /><path d="M 27.04,10.24 L 26.97,10.24 L 26.15,10.66 L 26.15,11.77 L 26.21,11.77 L 27.04,11.36 Z" fill="#3a2b20" stroke="none" /><path d="M 24.33,9.42 L 23.41,9.86 L 23.41,10.94 L 24.33,10.50 Z" fill="#3a2b20" stroke="none" /><path d="M 26.15,8.52 L 26.08,8.52 L 25.22,8.97 L 25.22,10.02 L 25.29,10.02 L 26.15,9.57 Z" fill="#3a2b20" stroke="none" /><path d="M 15.27,29.42 L 14.41,29.84 L 14.41,32.00 L 14.47,32.00 L 16.19,31.14 L 16.19,30.06 L 15.30,30.50 L 15.27,30.47 Z" fill="#3c2d20" stroke="none" /><path d="M 16.19,13.49 L 15.27,13.93 L 15.27,15.01 L 16.19,14.57 Z" fill="#3c2d20" stroke="none" /><path d="M 28.82,7.19 L 28.76,7.19 L 26.15,8.49 L 26.15,9.54 L 26.08,9.61 L 25.26,10.02 L 25.22,9.99 L 25.22,8.97 L 24.33,9.42 L 24.33,11.58 L 25.16,11.17 L 25.22,11.20 L 25.22,13.36 L 26.12,12.91 L 26.15,12.95 L 26.15,15.08 L 26.08,15.14 L 23.48,16.45 L 23.41,16.41 L 23.41,15.40 L 23.48,15.33 L 24.33,14.92 L 24.33,13.81 L 23.44,14.25 L 23.41,14.22 L 23.41,13.17 L 23.35,13.17 L 22.55,13.58 L 22.52,13.55 L 22.52,12.50 L 23.41,12.06 L 23.41,9.89 L 23.35,9.89 L 22.52,10.31 L 22.52,11.36 L 22.46,11.42 L 21.63,11.83 L 21.60,11.80 L 21.60,10.78 L 20.71,11.23 L 20.71,14.47 L 20.64,14.54 L 19.79,14.95 L 19.79,16.06 L 19.75,16.10 L 18.93,16.51 L 18.89,16.48 L 18.89,13.23 L 18.96,13.17 L 19.79,12.76 L 19.79,11.71 L 19.72,11.71 L 17.97,12.60 L 17.97,14.73 L 17.91,14.79 L 15.27,16.10 L 15.27,17.21 L 15.33,17.21 L 16.13,16.80 L 16.19,16.83 L 16.19,17.84 L 16.13,17.91 L 15.27,18.32 L 15.27,19.44 L 17.05,18.54 L 17.08,18.58 L 17.08,19.63 L 16.19,20.07 L 16.19,23.38 L 16.13,23.44 L 15.30,23.86 L 15.27,23.83 L 15.27,21.66 L 14.41,22.08 L 14.41,25.42 L 15.24,25.00 L 15.27,25.03 L 15.27,28.31 L 16.16,27.86 L 16.19,27.90 L 16.19,28.95 L 16.25,28.95 L 17.08,28.53 L 17.08,27.42 L 17.97,26.97 L 17.97,25.86 L 18.89,25.38 L 18.89,24.30 L 18.83,24.30 L 18.04,24.72 L 17.97,24.68 L 17.97,23.67 L 18.04,23.60 L 18.89,23.19 L 18.89,22.08 L 19.75,21.63 L 19.79,21.66 L 19.79,23.83 L 19.85,23.83 L 20.71,23.38 L 20.71,18.96 L 21.60,18.51 L 21.60,17.40 L 21.63,17.37 L 22.46,16.95 L 22.52,16.99 L 22.52,20.23 L 21.60,20.71 L 21.60,22.93 L 22.52,22.49 L 22.52,21.38 L 22.55,21.34 L 23.38,20.93 L 23.41,20.96 L 23.41,22.01 L 23.48,22.01 L 24.33,21.57 L 24.33,20.45 L 23.44,20.90 L 23.41,20.87 L 23.41,17.62 L 23.48,17.56 L 24.30,17.15 L 24.33,17.18 L 24.33,19.34 L 25.19,18.93 L 25.22,18.96 L 25.22,20.01 L 26.12,19.56 L 26.15,19.59 L 26.15,20.64 L 25.22,21.12 L 25.22,25.51 L 25.16,25.57 L 23.44,26.43 L 23.41,26.40 L 23.41,25.38 L 23.48,25.32 L 24.33,24.91 L 24.33,23.79 L 24.27,23.79 L 23.44,24.21 L 23.41,24.17 L 23.41,23.13 L 22.52,23.57 L 22.52,24.65 L 22.46,24.72 L 21.63,25.13 L 21.60,25.10 L 21.60,24.05 L 21.53,24.05 L 19.82,24.91 L 19.79,24.94 L 19.79,27.13 L 19.72,27.20 L 18.89,27.61 L 18.89,28.69 L 17.97,29.17 L 17.97,30.22 L 18.04,30.22 L 19.75,29.36 L 19.79,29.33 L 19.79,28.28 L 21.53,27.39 L 21.60,27.42 L 21.60,28.41 L 21.66,28.41 L 27.01,25.73 L 27.04,25.70 L 27.04,24.65 L 26.97,24.65 L 26.18,25.07 L 26.15,25.03 L 26.15,24.02 L 26.21,23.95 L 27.04,23.54 L 27.04,21.34 L 27.10,21.28 L 27.86,20.90 L 27.93,20.93 L 27.93,24.17 L 27.99,24.17 L 28.82,23.76 L 28.82,13.77 L 27.99,14.19 L 27.93,14.16 L 27.93,12.02 L 28.82,11.58 Z" fill="#3c2d20" stroke="none" /><path d="M 20.71,27.80 L 19.79,28.25 L 19.79,29.33 L 20.71,28.88 Z" fill="#3e3024" stroke="none" /><path d="M 22.52,25.80 L 21.60,26.24 L 21.60,27.36 L 22.52,26.91 Z" fill="#3e3024" stroke="none" /><path d="M 17.97,24.75 L 17.08,25.19 L 17.08,26.27 L 17.15,26.27 L 17.97,25.86 Z" fill="#3e3024" stroke="none" /><path d="M 19.79,19.40 L 18.89,19.85 L 18.89,20.96 L 19.79,20.52 Z" fill="#3e3024" stroke="none" /><path d="M 18.89,16.54 L 18.83,16.54 L 17.97,16.99 L 17.97,18.07 L 18.04,18.07 L 18.89,17.62 Z" fill="#3e3024" stroke="none" /><path d="M 25.22,14.47 L 25.16,14.47 L 24.33,14.89 L 24.33,16.00 L 24.40,16.00 L 25.22,15.59 Z" fill="#3e3024" stroke="none" /><path d="M 27.93,8.68 L 27.04,9.13 L 27.04,10.21 L 27.10,10.21 L 27.93,9.80 Z" fill="#3e3024" stroke="none" /><path d="M 2.67,23.98 L 2.67,26.15 L 3.53,26.59 L 3.59,26.59 L 3.59,24.43 Z" fill="#5a4333" stroke="none" /><path d="M 9.03,23.86 L 9.03,26.05 L 9.86,26.47 L 9.92,26.53 L 9.92,28.72 L 10.85,29.17 L 10.85,25.83 L 9.99,25.42 L 9.92,25.35 L 9.92,24.27 L 9.10,23.86 Z" fill="#5a4333" stroke="none" /><path d="M 10.85,23.63 L 10.85,24.75 L 11.74,25.19 L 11.74,24.08 Z" fill="#5a4333" stroke="none" /><path d="M 4.49,20.45 L 4.49,21.57 L 5.34,22.01 L 5.41,22.01 L 5.41,20.90 Z" fill="#5a4333" stroke="none" /><path d="M 0.00,20.42 L 0.00,22.65 L 0.89,23.09 L 0.89,20.87 Z" fill="#5a4333" stroke="none" /><path d="M 11.74,19.66 L 11.74,20.77 L 12.63,21.22 L 12.63,22.33 L 13.55,22.78 L 13.55,21.66 L 12.63,21.18 L 12.63,20.07 L 11.80,19.66 Z" fill="#5a4333" stroke="none" /><path d="M 7.28,18.51 L 7.22,18.51 L 7.22,19.56 L 7.19,19.59 L 6.30,19.15 L 6.30,21.38 L 7.19,21.82 L 7.22,21.82 L 7.22,19.66 L 7.25,19.63 L 8.05,20.04 L 8.11,20.04 L 8.11,18.93 Z" fill="#5a4333" stroke="none" /><path d="M 13.55,18.35 L 13.55,19.44 L 14.35,19.85 L 14.41,19.85 L 14.41,18.77 L 13.61,18.35 Z" fill="#5a4333" stroke="none" /><path d="M 0.89,13.11 L 0.89,14.22 L 1.78,14.66 L 1.78,13.55 Z" fill="#5a4333" stroke="none" /><path d="M 9.03,12.76 L 9.03,13.87 L 9.92,14.31 L 9.92,15.43 L 10.85,15.87 L 10.85,14.76 L 9.92,14.28 L 9.92,13.20 Z" fill="#5a4333" stroke="none" /><path d="M 4.49,11.58 L 4.49,12.69 L 5.34,13.14 L 5.41,13.14 L 5.41,12.02 Z" fill="#5a4333" stroke="none" /><path d="M 1.84,8.08 L 1.78,8.08 L 1.78,9.07 L 1.75,9.10 L 0.89,8.68 L 0.89,9.80 L 1.72,10.21 L 1.78,10.21 L 1.78,9.19 L 1.81,9.16 L 2.67,9.57 L 2.67,8.49 Z" fill="#5a4333" stroke="none" /><path d="M 0.00,22.65 L 0.00,24.81 L 1.78,25.70 L 1.78,24.62 L 0.89,24.17 L 0.89,23.09 Z" fill="#614934" stroke="none" /><path d="M 0.89,9.80 L 0.89,10.91 L 1.78,11.36 L 1.78,12.41 L 1.75,12.44 L 0.95,12.02 L 0.89,12.02 L 0.89,13.11 L 2.61,13.96 L 2.67,14.03 L 2.67,15.05 L 2.64,15.08 L 1.78,14.66 L 1.78,17.94 L 1.75,17.97 L 0.89,17.53 L 0.89,15.33 L 0.00,14.89 L 0.00,18.23 L 0.89,18.67 L 0.89,21.98 L 1.72,22.39 L 1.78,22.46 L 1.78,23.54 L 2.67,23.98 L 2.67,22.93 L 2.70,22.90 L 3.53,23.32 L 3.59,23.32 L 3.59,22.27 L 3.63,22.23 L 4.42,22.65 L 4.49,22.65 L 4.49,21.57 L 3.66,21.15 L 3.59,21.09 L 3.59,20.07 L 3.66,20.04 L 4.49,20.45 L 4.49,19.40 L 4.52,19.37 L 5.41,19.82 L 5.41,22.04 L 6.23,22.46 L 6.30,22.46 L 6.30,18.10 L 6.36,18.07 L 7.16,18.48 L 7.22,18.48 L 7.22,17.43 L 7.25,17.40 L 8.11,17.84 L 8.11,21.09 L 8.05,21.12 L 7.22,20.71 L 7.22,22.93 L 8.11,23.38 L 8.11,22.33 L 8.17,22.30 L 9.03,22.74 L 9.03,23.86 L 9.86,24.27 L 9.92,24.27 L 9.92,23.16 L 9.03,22.71 L 9.03,19.47 L 9.10,19.44 L 9.86,19.82 L 9.92,19.88 L 9.92,22.08 L 10.78,22.49 L 10.85,22.55 L 10.85,23.63 L 11.67,24.05 L 11.74,24.11 L 11.74,25.13 L 11.71,25.16 L 10.85,24.75 L 10.85,29.11 L 10.82,29.14 L 9.03,28.25 L 9.03,27.23 L 9.07,27.20 L 9.92,27.61 L 9.92,26.50 L 9.10,26.08 L 9.03,26.02 L 9.03,24.94 L 8.17,24.49 L 8.11,24.49 L 8.11,25.54 L 8.08,25.57 L 7.25,25.16 L 7.22,25.13 L 7.22,24.02 L 5.44,23.13 L 5.41,23.13 L 5.41,25.29 L 5.34,25.32 L 4.55,24.91 L 4.49,24.91 L 4.49,25.92 L 4.45,25.96 L 3.59,25.54 L 3.59,26.62 L 5.41,27.51 L 5.41,26.50 L 5.44,26.47 L 7.16,27.32 L 7.22,27.39 L 7.22,28.44 L 12.56,31.11 L 12.63,31.11 L 12.63,30.06 L 11.80,29.65 L 11.74,29.58 L 11.74,28.56 L 11.77,28.53 L 12.56,28.95 L 12.63,28.95 L 12.63,26.78 L 12.66,26.75 L 13.49,27.17 L 13.55,27.23 L 13.55,30.54 L 14.41,30.95 L 14.41,20.96 L 13.61,20.58 L 13.55,20.52 L 13.55,18.39 L 13.58,18.35 L 14.41,18.77 L 14.41,14.38 L 11.77,13.04 L 11.74,13.04 L 11.74,14.06 L 11.71,14.09 L 10.85,13.65 L 10.85,12.60 L 9.99,12.15 L 9.92,12.15 L 9.92,14.31 L 10.78,14.73 L 10.85,14.79 L 10.85,16.99 L 11.67,17.40 L 11.74,17.46 L 11.74,19.59 L 11.71,19.63 L 9.10,18.32 L 9.03,18.26 L 9.03,17.24 L 9.07,17.21 L 9.92,17.62 L 9.92,16.51 L 9.03,16.06 L 9.03,14.95 L 8.17,14.54 L 8.11,14.47 L 8.11,13.46 L 8.14,13.42 L 8.97,13.84 L 9.03,13.84 L 9.03,11.67 L 8.11,11.23 L 8.11,12.25 L 8.08,12.28 L 7.22,11.83 L 7.22,10.78 L 6.36,10.34 L 6.30,10.34 L 6.30,13.55 L 6.27,13.58 L 5.47,13.17 L 5.41,13.17 L 5.41,14.22 L 5.38,14.25 L 4.55,13.84 L 4.49,13.77 L 4.49,10.53 L 4.52,10.50 L 5.41,10.94 L 5.41,9.86 L 3.59,8.97 L 3.59,11.07 L 3.53,11.10 L 0.95,9.80 Z" fill="#614934" stroke="none" /><path d="M 0.89,7.63 L 0.89,8.68 L 1.78,9.13 L 1.78,8.05 L 0.95,7.63 Z" fill="#614934" stroke="none" /><path d="M 9.03,27.17 L 9.03,28.28 L 9.86,28.69 L 9.92,28.69 L 9.92,27.61 Z" fill="#5f4635" stroke="none" /><path d="M 6.30,26.91 L 6.30,27.96 L 7.16,28.41 L 7.22,28.41 L 7.22,27.36 L 6.36,26.91 Z" fill="#5f4635" stroke="none" /><path d="M 11.74,25.19 L 11.74,26.31 L 12.63,26.75 L 12.63,28.91 L 12.60,28.95 L 11.80,28.53 L 11.74,28.53 L 11.74,29.61 L 12.56,30.03 L 12.63,30.09 L 12.63,31.14 L 14.35,32.00 L 14.41,32.00 L 14.41,30.95 L 13.55,30.50 L 13.55,27.20 L 12.63,26.72 L 12.63,25.64 Z" fill="#5f4635" stroke="none" /><path d="M 11.74,20.77 L 11.74,21.88 L 12.63,22.33 L 12.63,23.35 L 12.60,23.38 L 11.74,22.97 L 11.74,24.08 L 12.63,24.52 L 12.63,23.48 L 12.66,23.44 L 13.49,23.86 L 13.55,23.86 L 13.55,22.78 L 12.63,22.30 L 12.63,21.18 L 11.80,20.77 Z" fill="#5f4635" stroke="none" /><path d="M 1.78,20.23 L 1.78,21.31 L 2.67,21.76 L 2.67,20.64 L 1.84,20.23 Z" fill="#5f4635" stroke="none" /><path d="M 13.55,19.44 L 13.55,20.55 L 14.35,20.96 L 14.41,20.96 L 14.41,19.85 Z" fill="#5f4635" stroke="none" /><path d="M 0.89,21.98 L 0.89,24.21 L 1.78,24.65 L 1.78,25.70 L 2.64,26.15 L 2.67,26.15 L 2.67,24.05 L 2.70,24.02 L 3.59,24.46 L 3.59,25.54 L 4.45,25.99 L 4.49,25.99 L 4.49,24.94 L 4.52,24.91 L 5.41,25.35 L 5.41,23.19 L 5.44,23.16 L 7.19,24.02 L 7.22,24.05 L 7.22,25.16 L 8.05,25.57 L 8.11,25.57 L 8.11,24.52 L 8.14,24.49 L 9.03,24.94 L 9.03,22.78 L 9.07,22.74 L 9.92,23.19 L 9.92,25.38 L 10.78,25.83 L 10.85,25.83 L 10.85,22.52 L 9.92,22.04 L 9.92,19.85 L 9.07,19.40 L 9.03,19.40 L 9.03,22.68 L 9.00,22.71 L 8.11,22.27 L 8.11,23.32 L 8.08,23.35 L 7.28,22.97 L 7.22,22.90 L 7.22,21.82 L 7.19,21.79 L 6.36,21.38 L 6.30,21.38 L 6.30,22.43 L 6.27,22.46 L 4.55,21.60 L 4.49,21.53 L 4.49,20.52 L 4.52,20.49 L 5.34,20.90 L 5.41,20.90 L 5.41,19.79 L 4.52,19.34 L 4.49,19.34 L 4.49,20.39 L 4.45,20.42 L 3.59,20.01 L 3.59,21.12 L 4.42,21.53 L 4.49,21.60 L 4.49,22.62 L 4.45,22.65 L 3.66,22.23 L 3.59,22.23 L 3.59,23.28 L 3.56,23.32 L 2.67,22.87 L 2.67,23.92 L 2.61,23.95 L 1.84,23.57 L 1.78,23.51 L 1.78,22.43 Z" fill="#5f4635" stroke="none" /><path d="M 0.00,18.23 L 0.00,20.42 L 0.89,20.87 L 0.89,18.64 L 0.06,18.23 Z" fill="#5f4635" stroke="none" /><path d="M 7.22,17.40 L 7.22,18.45 L 7.19,18.48 L 6.30,18.04 L 6.30,19.15 L 7.22,19.63 L 7.22,20.71 L 8.11,21.15 L 8.11,20.04 L 7.22,19.59 L 7.22,18.54 L 7.25,18.51 L 8.05,18.93 L 8.11,18.93 L 8.11,17.81 L 7.28,17.40 Z" fill="#5f4635" stroke="none" /><path d="M 11.74,15.20 L 11.74,16.32 L 12.63,16.76 L 12.63,15.65 Z" fill="#5f4635" stroke="none" /><path d="M 8.11,13.39 L 8.11,14.50 L 9.03,14.98 L 9.03,16.10 L 9.92,16.54 L 9.92,17.56 L 9.89,17.59 L 9.03,17.18 L 9.03,18.29 L 9.92,18.74 L 9.92,17.69 L 9.99,17.65 L 10.85,18.10 L 10.85,19.21 L 11.67,19.63 L 11.74,19.63 L 11.74,17.43 L 10.91,17.02 L 10.85,16.95 L 10.85,15.87 L 9.92,15.40 L 9.92,14.28 Z" fill="#5f4635" stroke="none" /><path d="M 10.85,12.60 L 10.85,13.68 L 11.67,14.09 L 11.74,14.09 L 11.74,13.04 Z" fill="#5f4635" stroke="none" /><path d="M 9.03,11.71 L 9.03,12.76 L 9.92,13.20 L 9.92,12.12 L 9.10,11.71 Z" fill="#5f4635" stroke="none" /><path d="M 7.22,10.78 L 7.22,11.86 L 8.05,12.28 L 8.11,12.28 L 8.11,11.23 Z" fill="#5f4635" stroke="none" /><path d="M 5.47,9.89 L 5.41,9.89 L 5.41,10.88 L 5.38,10.91 L 4.55,10.50 L 4.49,10.50 L 4.49,11.58 L 5.41,12.06 L 5.41,13.11 L 5.38,13.14 L 4.49,12.69 L 4.49,13.81 L 5.34,14.25 L 5.41,14.25 L 5.41,13.20 L 5.44,13.17 L 6.23,13.58 L 6.30,13.58 L 6.30,10.31 Z" fill="#5f4635" stroke="none" /><path d="M 2.67,8.52 L 2.67,9.51 L 2.64,9.54 L 1.78,9.13 L 1.78,10.24 L 3.59,11.13 L 3.59,8.97 L 2.74,8.52 Z" fill="#5f4635" stroke="none" /><path d="M 0.00,7.19 L 0.00,14.89 L 0.83,15.30 L 0.89,15.36 L 0.89,17.56 L 1.72,17.97 L 1.78,17.97 L 1.78,14.73 L 1.84,14.70 L 2.67,15.11 L 2.67,14.00 L 1.78,13.55 L 1.78,14.60 L 1.75,14.63 L 0.95,14.25 L 0.89,14.19 L 0.89,12.06 L 0.92,12.02 L 1.72,12.44 L 1.78,12.44 L 1.78,11.32 L 0.89,10.88 L 0.89,7.60 L 0.06,7.19 Z" fill="#5f4635" stroke="none" /><path d="M 5.41,26.47 L 5.41,27.51 L 6.30,27.96 L 6.30,26.88 L 5.47,26.47 Z" fill="#644e3a" stroke="none" /><path d="M 7.22,26.27 L 7.22,27.36 L 8.11,27.80 L 8.11,26.69 L 7.28,26.27 Z" fill="#644e3a" stroke="none" /><path d="M 2.67,20.68 L 2.67,21.76 L 3.53,22.20 L 3.59,22.20 L 3.59,21.12 L 2.74,20.68 Z" fill="#644e3a" stroke="none" /><path d="M 9.92,17.62 L 9.92,18.74 L 10.78,19.18 L 10.85,19.18 L 10.85,18.07 Z" fill="#644e3a" stroke="none" /><path d="M 4.49,17.15 L 4.49,18.26 L 5.41,18.70 L 5.41,17.59 L 4.55,17.15 Z" fill="#644e3a" stroke="none" /><path d="M 12.63,14.57 L 12.63,15.65 L 13.49,16.10 L 13.55,16.10 L 13.55,15.01 L 12.69,14.57 Z" fill="#644e3a" stroke="none" /><path d="M 3.59,13.36 L 3.59,14.47 L 4.42,14.89 L 4.49,14.89 L 4.49,13.81 Z" fill="#644e3a" stroke="none" /><path d="M 9.92,12.12 L 9.92,12.15 L 10.82,12.60 L 11.67,12.18 L 11.64,12.12 L 10.82,11.71 L 10.75,11.71 Z" fill="#8b674f" stroke="none" /><path d="M 15.33,11.23 L 15.36,11.29 L 16.19,11.71 L 16.25,11.71 L 17.11,11.26 L 18.00,11.71 L 18.07,11.71 L 18.89,11.29 L 18.89,11.23 L 18.07,10.82 L 17.97,10.82 L 17.18,11.23 L 17.08,11.23 L 16.29,10.82 L 16.16,10.82 Z" fill="#8b674f" stroke="none" /><path d="M 8.08,10.34 L 8.08,10.37 L 8.97,10.82 L 9.86,10.37 L 9.92,10.37 L 10.78,10.82 L 11.71,10.37 L 11.71,10.34 L 10.82,9.89 L 9.92,10.34 L 9.86,10.34 L 9.00,9.89 Z" fill="#8b674f" stroke="none" /><path d="M 20.74,8.52 L 20.74,8.56 L 21.63,9.00 L 22.55,8.56 L 22.55,8.52 L 21.66,8.08 Z" fill="#8b674f" stroke="none" /><path d="M 7.19,8.08 L 7.19,8.11 L 8.02,8.52 L 8.14,8.52 L 8.97,8.11 L 8.94,8.05 L 8.11,7.63 L 8.05,7.63 Z" fill="#8b674f" stroke="none" /><path d="M 26.24,6.74 L 26.12,6.74 L 25.29,7.16 L 25.32,7.22 L 26.15,7.63 L 25.32,8.05 L 25.29,8.11 L 26.12,8.52 L 27.04,8.08 L 27.04,8.05 L 26.21,7.63 L 27.04,7.22 L 27.07,7.16 Z" fill="#8b674f" stroke="none" /><path d="M 12.60,6.27 L 12.60,6.30 L 14.38,7.19 L 13.55,7.60 L 13.52,7.67 L 14.35,8.08 L 14.47,8.08 L 15.30,7.67 L 15.27,7.60 L 14.44,7.19 L 15.27,6.78 L 15.30,6.71 L 13.52,5.82 Z" fill="#8b674f" stroke="none" /><path d="M 4.49,5.79 L 4.49,5.85 L 7.16,7.19 L 8.05,6.74 L 8.11,6.74 L 9.00,7.19 L 9.86,6.74 L 9.86,6.71 L 8.08,5.82 L 7.16,6.27 L 5.41,5.38 L 5.31,5.38 Z" fill="#8b674f" stroke="none" /><path d="M 21.69,5.34 L 21.69,5.41 L 22.52,5.82 L 22.58,5.82 L 23.44,5.38 L 23.44,5.34 L 22.62,4.93 L 22.52,4.93 Z" fill="#8b674f" stroke="none" /><path d="M 13.52,4.90 L 13.55,4.96 L 14.38,5.38 L 14.44,5.38 L 15.30,4.93 L 15.30,4.90 L 14.47,4.49 L 14.35,4.49 Z" fill="#8b674f" stroke="none" /><path d="M 10.85,1.75 L 10.88,1.81 L 12.53,2.64 L 12.66,2.64 L 13.49,2.23 L 13.46,2.16 L 11.80,1.34 L 11.67,1.34 Z" fill="#8b674f" stroke="none" /><path d="M 15.33,1.27 L 15.36,1.34 L 17.08,2.19 L 17.18,2.19 L 17.97,1.78 L 17.97,1.75 L 16.19,0.86 Z" fill="#8b674f" stroke="none" /><path d="M 26.21,7.60 L 26.21,7.67 L 26.97,8.05 L 27.10,8.05 L 27.93,7.63 L 27.90,7.57 L 27.13,7.19 L 27.04,7.19 Z" fill="#957150" stroke="none" /><path d="M 9.00,7.16 L 9.03,7.22 L 9.86,7.63 L 9.92,7.63 L 10.75,7.22 L 10.75,7.16 L 9.92,6.74 L 9.83,6.74 Z" fill="#957150" stroke="none" /><path d="M 26.18,6.71 L 25.29,6.27 L 24.40,6.71 L 24.33,6.71 L 23.57,6.33 L 23.51,6.27 L 24.33,5.85 L 24.33,5.79 L 23.51,5.38 L 23.41,5.38 L 21.63,6.27 L 20.87,5.88 L 20.80,5.82 L 21.63,5.41 L 21.63,5.34 L 19.05,4.07 L 18.99,4.01 L 19.85,3.56 L 21.60,4.45 L 21.73,4.45 L 22.49,4.07 L 22.49,4.01 L 19.82,2.67 L 18.99,3.09 L 18.89,3.09 L 16.25,1.75 L 16.19,1.75 L 15.33,2.19 L 14.44,1.75 L 14.38,1.75 L 13.52,2.19 L 13.52,2.23 L 14.35,2.64 L 14.31,2.70 L 13.52,3.09 L 13.52,3.12 L 14.38,3.56 L 13.55,3.98 L 13.52,4.04 L 14.35,4.45 L 14.47,4.45 L 15.27,4.04 L 15.36,4.04 L 16.13,4.42 L 16.16,4.49 L 15.33,4.90 L 15.33,4.93 L 16.19,5.38 L 15.30,5.82 L 13.55,4.93 L 13.46,4.93 L 12.63,5.34 L 12.63,5.41 L 16.16,7.16 L 16.19,7.19 L 16.16,7.22 L 15.33,7.63 L 15.33,7.67 L 16.13,8.05 L 16.16,8.11 L 15.36,8.52 L 15.27,8.52 L 12.66,7.22 L 12.63,7.19 L 12.66,7.16 L 13.46,6.78 L 13.49,6.71 L 11.67,5.82 L 10.78,6.27 L 10.78,6.30 L 11.58,6.68 L 11.64,6.74 L 10.82,7.16 L 10.82,7.22 L 13.39,8.49 L 13.46,8.56 L 13.42,8.59 L 12.66,8.97 L 12.56,8.97 L 10.82,8.08 L 9.92,8.52 L 9.86,8.52 L 9.00,8.08 L 8.11,8.52 L 8.05,8.52 L 7.28,8.14 L 7.22,8.08 L 8.05,7.67 L 8.05,7.60 L 4.49,5.82 L 6.27,4.93 L 7.13,5.38 L 6.30,5.79 L 6.30,5.85 L 7.13,6.27 L 7.22,6.27 L 8.02,5.85 L 8.11,5.85 L 8.91,6.27 L 9.03,6.27 L 9.86,5.85 L 9.83,5.79 L 9.03,5.41 L 9.00,5.38 L 9.03,5.34 L 9.89,4.93 L 10.75,5.38 L 10.82,5.38 L 12.60,4.49 L 12.60,4.45 L 10.82,3.56 L 11.67,3.12 L 11.67,3.09 L 10.85,2.67 L 10.88,2.61 L 11.67,2.23 L 11.67,2.19 L 10.88,1.78 L 10.78,1.78 L 9.03,2.67 L 9.03,2.70 L 9.77,3.05 L 9.83,3.12 L 9.80,3.15 L 8.08,4.01 L 7.25,3.59 L 7.16,3.59 L 1.81,6.27 L 1.81,6.33 L 2.58,6.71 L 2.70,6.71 L 3.50,6.30 L 3.59,6.30 L 4.36,6.68 L 4.39,6.71 L 4.36,6.78 L 3.56,7.16 L 3.56,7.19 L 5.28,8.05 L 5.31,8.08 L 5.25,8.14 L 4.49,8.52 L 4.42,8.52 L 1.78,7.19 L 1.69,7.19 L 0.92,7.57 L 0.89,7.63 L 8.97,11.67 L 9.10,11.67 L 9.89,11.26 L 11.64,12.15 L 11.58,12.21 L 10.85,12.56 L 10.88,12.63 L 14.38,14.38 L 14.44,14.38 L 17.05,13.07 L 17.05,13.01 L 16.32,12.66 L 16.29,12.63 L 16.32,12.56 L 17.08,12.18 L 17.18,12.18 L 18.00,12.60 L 18.89,12.15 L 18.89,12.12 L 17.18,11.26 L 17.08,11.26 L 16.22,11.71 L 14.47,10.82 L 14.35,10.82 L 13.55,11.23 L 13.46,11.23 L 11.80,10.40 L 11.77,10.37 L 11.80,10.31 L 14.41,9.00 L 15.27,9.45 L 14.44,9.86 L 14.44,9.92 L 15.27,10.34 L 15.36,10.34 L 16.16,9.92 L 16.25,9.92 L 17.05,10.34 L 17.18,10.34 L 17.97,9.92 L 18.07,9.92 L 18.86,10.34 L 18.83,10.40 L 18.04,10.78 L 18.07,10.85 L 19.72,11.67 L 19.85,11.67 L 20.68,11.26 L 20.64,11.20 L 19.91,10.85 L 19.88,10.82 L 19.94,10.75 L 20.71,10.37 L 20.77,10.37 L 21.57,10.78 L 21.63,10.78 L 22.49,10.34 L 22.49,10.31 L 19.88,9.00 L 19.94,8.94 L 20.74,8.56 L 20.74,8.52 L 19.94,8.14 L 19.88,8.08 L 20.71,7.67 L 20.71,7.60 L 19.91,7.22 L 19.88,7.19 L 19.94,7.13 L 20.71,6.74 L 20.77,6.74 L 21.53,7.13 L 21.60,7.19 L 21.57,7.22 L 20.77,7.60 L 20.77,7.67 L 23.35,8.94 L 23.41,9.00 L 23.38,9.03 L 22.58,9.42 L 22.58,9.48 L 23.35,9.86 L 23.48,9.86 L 25.19,9.00 L 25.19,8.94 L 23.57,8.14 L 23.51,8.08 L 26.18,6.74 Z" fill="#957150" stroke="none" /><path d="M 12.66,0.86 L 12.66,0.89 L 13.49,1.30 L 14.38,0.86 L 14.44,0.86 L 15.30,1.30 L 16.16,0.89 L 16.13,0.83 L 14.47,0.00 L 14.35,0.00 Z" fill="#957150" stroke="none" /><path d="M 17.97,12.56 L 17.11,12.15 L 16.22,12.60 L 16.22,12.63 L 17.05,13.04 L 17.11,13.04 L 17.94,12.63 Z" fill="#926c51" stroke="none" /><path d="M 13.52,12.15 L 13.52,12.18 L 14.35,12.60 L 14.47,12.60 L 15.30,12.18 L 15.27,12.12 L 14.44,11.71 L 14.38,11.71 Z" fill="#926c51" stroke="none" /><path d="M 18.07,11.67 L 18.07,11.74 L 18.83,12.12 L 18.96,12.12 L 19.79,11.71 L 19.79,11.67 L 18.96,11.26 L 18.89,11.26 Z" fill="#926c51" stroke="none" /><path d="M 9.03,11.67 L 9.03,11.71 L 9.86,12.12 L 9.99,12.12 L 10.75,11.74 L 10.75,11.67 L 9.92,11.26 L 9.86,11.26 Z" fill="#926c51" stroke="none" /><path d="M 19.85,10.78 L 19.88,10.85 L 20.64,11.23 L 20.74,11.23 L 21.57,10.82 L 21.57,10.75 L 20.80,10.37 L 20.68,10.37 Z" fill="#926c51" stroke="none" /><path d="M 11.71,10.34 L 11.71,10.37 L 13.49,11.26 L 14.38,10.82 L 14.44,10.82 L 15.30,11.26 L 16.19,10.82 L 16.25,10.82 L 17.15,11.26 L 18.93,10.37 L 18.93,10.34 L 18.04,9.89 L 17.15,10.34 L 17.08,10.34 L 16.22,9.89 L 15.30,10.34 L 14.44,9.89 L 15.27,9.48 L 15.27,9.42 L 14.44,9.00 L 14.38,9.00 L 13.55,9.42 L 13.55,9.48 L 14.38,9.89 L 13.52,10.34 L 12.63,9.89 Z" fill="#926c51" stroke="none" /><path d="M 7.19,8.97 L 7.22,9.03 L 8.05,9.45 L 7.22,9.86 L 7.19,9.92 L 8.02,10.34 L 8.14,10.34 L 8.94,9.92 L 9.03,9.92 L 9.83,10.34 L 9.96,10.34 L 10.78,9.92 L 10.75,9.86 L 9.92,9.45 L 9.86,9.45 L 9.00,9.89 L 8.14,9.48 L 8.11,9.45 L 8.14,9.42 L 8.97,9.00 L 8.97,8.97 L 8.14,8.56 L 8.02,8.56 Z" fill="#926c51" stroke="none" /><path d="M 19.85,8.08 L 19.85,8.11 L 20.68,8.52 L 20.64,8.59 L 19.85,8.97 L 19.88,9.03 L 22.49,10.34 L 23.41,9.89 L 23.41,9.86 L 22.58,9.45 L 23.41,9.03 L 23.44,8.97 L 22.62,8.56 L 22.49,8.56 L 21.69,8.97 L 21.60,8.97 L 20.83,8.59 L 20.80,8.52 L 21.63,8.11 L 21.63,8.08 L 20.77,7.63 L 20.71,7.63 Z" fill="#926c51" stroke="none" /><path d="M 26.15,7.60 L 25.32,7.19 L 25.22,7.19 L 23.51,8.05 L 23.48,8.11 L 25.19,8.97 L 25.26,8.97 L 26.12,8.52 L 26.12,8.49 L 25.38,8.14 L 25.32,8.08 L 26.15,7.67 Z" fill="#926c51" stroke="none" /><path d="M 15.27,6.74 L 14.44,7.16 L 14.44,7.22 L 15.27,7.63 L 15.20,7.70 L 14.41,8.08 L 14.41,8.11 L 15.33,8.56 L 16.22,8.11 L 16.22,8.08 L 15.43,7.70 L 15.36,7.63 L 16.19,7.22 L 16.19,7.16 L 15.36,6.74 Z" fill="#926c51" stroke="none" /><path d="M 12.63,7.16 L 12.63,7.22 L 13.46,7.63 L 13.55,7.63 L 14.38,7.22 L 14.38,7.16 L 13.55,6.74 L 13.46,6.74 Z" fill="#926c51" stroke="none" /><path d="M 0.03,7.16 L 0.06,7.22 L 0.83,7.60 L 0.92,7.60 L 1.75,7.19 L 4.39,8.52 L 4.52,8.52 L 5.31,8.11 L 5.41,8.11 L 6.20,8.52 L 6.33,8.52 L 7.16,8.11 L 7.13,8.05 L 6.30,7.63 L 6.23,7.63 L 5.34,8.08 L 3.63,7.22 L 3.59,7.19 L 3.66,7.13 L 4.45,6.74 L 4.45,6.71 L 3.56,6.27 L 2.67,6.71 L 2.61,6.71 L 1.81,6.30 L 1.75,6.30 Z" fill="#926c51" stroke="none" /><path d="M 5.38,5.34 L 5.41,5.41 L 6.23,5.82 L 6.30,5.82 L 7.13,5.41 L 7.13,5.34 L 6.30,4.93 L 6.20,4.93 Z" fill="#926c51" stroke="none" /><path d="M 18.96,4.01 L 18.96,4.04 L 21.60,5.34 L 21.63,5.38 L 21.60,5.41 L 20.77,5.82 L 20.77,5.85 L 21.60,6.27 L 21.69,6.27 L 22.52,5.85 L 22.52,5.79 L 21.69,5.38 L 22.58,4.93 L 24.33,5.82 L 23.48,6.27 L 23.48,6.30 L 24.30,6.71 L 24.43,6.71 L 25.22,6.30 L 25.32,6.30 L 27.90,7.60 L 27.99,7.60 L 28.79,7.19 L 28.79,7.16 L 22.55,4.04 L 22.49,4.04 L 21.69,4.45 L 21.63,4.45 L 19.88,3.56 L 19.82,3.56 Z" fill="#926c51" stroke="none" /><path d="M 7.22,3.56 L 7.25,3.63 L 8.02,4.01 L 8.11,4.01 L 8.94,3.59 L 8.94,3.53 L 8.17,3.15 L 8.05,3.15 Z" fill="#926c51" stroke="none" /><path d="M 15.33,3.09 L 15.36,3.15 L 16.19,3.56 L 16.25,3.56 L 17.11,3.12 L 17.11,3.09 L 16.29,2.67 L 16.16,2.67 Z" fill="#926c51" stroke="none" /><path d="M 17.15,2.19 L 17.15,2.23 L 18.93,3.12 L 19.79,2.70 L 19.75,2.64 L 18.04,1.78 L 17.94,1.78 Z" fill="#926c51" stroke="none" /><path d="M 16.19,1.72 L 14.47,0.86 L 14.35,0.86 L 13.55,1.27 L 13.46,1.27 L 12.63,0.86 L 11.74,1.30 L 11.74,1.34 L 13.46,2.19 L 13.39,2.26 L 12.63,2.64 L 12.56,2.64 L 11.71,2.19 L 10.78,2.64 L 10.78,2.67 L 11.58,3.05 L 11.64,3.12 L 10.82,3.53 L 10.82,3.59 L 12.50,4.42 L 12.53,4.49 L 10.78,5.38 L 9.92,4.93 L 9.83,4.93 L 9.00,5.34 L 9.00,5.41 L 9.83,5.82 L 9.77,5.88 L 8.97,6.27 L 8.97,6.30 L 10.75,7.19 L 9.89,7.63 L 8.14,6.74 L 8.02,6.74 L 7.19,7.16 L 7.19,7.19 L 9.83,8.52 L 9.96,8.52 L 10.75,8.11 L 10.85,8.11 L 12.60,9.00 L 13.46,8.59 L 13.49,8.52 L 10.85,7.22 L 10.82,7.19 L 10.85,7.16 L 11.67,6.74 L 11.67,6.71 L 10.88,6.33 L 10.85,6.27 L 11.64,5.85 L 11.74,5.85 L 12.53,6.27 L 12.66,6.27 L 13.49,5.85 L 13.46,5.79 L 12.63,5.38 L 14.38,4.49 L 14.44,4.49 L 15.20,4.87 L 15.27,4.93 L 14.44,5.34 L 14.44,5.41 L 15.27,5.82 L 15.36,5.82 L 16.19,5.41 L 16.19,5.34 L 15.36,4.93 L 15.43,4.87 L 16.22,4.49 L 16.22,4.45 L 15.33,4.01 L 14.44,4.45 L 14.38,4.45 L 13.61,4.07 L 13.55,4.01 L 14.38,3.59 L 14.38,3.53 L 13.55,3.12 L 13.61,3.05 L 14.41,2.67 L 14.41,2.64 L 13.61,2.26 L 13.55,2.19 L 13.58,2.16 L 14.41,1.75 L 15.27,2.19 L 15.36,2.19 L 16.19,1.78 Z" fill="#926c51" stroke="none" /><path d="M 13.52,13.04 L 13.55,13.11 L 14.38,13.52 L 14.44,13.52 L 15.30,13.07 L 15.30,13.04 L 14.47,12.63 L 14.35,12.63 Z" fill="#9a7859" stroke="none" /><path d="M 12.63,9.89 L 12.63,9.92 L 13.46,10.34 L 13.55,10.34 L 14.38,9.92 L 14.38,9.86 L 13.55,9.45 L 13.49,9.45 Z" fill="#9a7859" stroke="none" /><path d="M 19.85,7.16 L 19.88,7.22 L 20.71,7.63 L 20.77,7.63 L 21.63,7.19 L 21.63,7.16 L 20.80,6.74 L 20.68,6.74 Z" fill="#9a7859" stroke="none" /><path d="M 16.22,6.27 L 16.22,6.30 L 17.11,6.74 L 18.04,6.30 L 18.04,6.27 L 17.15,5.82 Z" fill="#9a7859" stroke="none" /><path d="M 7.16,4.45 L 7.16,4.49 L 8.05,4.93 L 8.97,4.49 L 8.97,4.45 L 8.08,4.01 Z" fill="#9a7859" stroke="none" /><path d="M 14.44,3.53 L 14.44,3.59 L 15.27,4.01 L 15.36,4.01 L 16.19,3.59 L 16.19,3.53 L 15.36,3.12 L 15.27,3.12 Z" fill="#9a7859" stroke="none" /><path d="M 9.86,3.09 L 9.00,2.67 L 8.11,3.12 L 8.11,3.15 L 8.94,3.56 L 9.00,3.56 L 9.83,3.15 Z" fill="#9a7859" stroke="none" /></svg>