<svg height="32" width="32" viewBox="0 0 32 32"><defs /><path d="M 15.27,29.42 L 14.41,29.84 L 14.41,32.00 L 14.47,32.00 L 15.27,31.59 Z" fill="#26170c" stroke="none" /><path d="M 17.08,25.19 L 16.19,25.64 L 16.19,27.83 L 16.25,27.83 L 17.08,27.42 Z" fill="#26170c" stroke="none" /><path d="M 16.19,23.41 L 15.27,23.86 L 15.27,24.97 L 14.41,25.42 L 14.41,28.72 L 14.47,28.72 L 15.27,28.31 L 15.27,25.00 L 16.19,24.52 Z" fill="#26170c" stroke="none" /><path d="M 25.22,15.59 L 25.16,15.59 L 23.41,16.48 L 23.41,17.59 L 25.22,16.70 Z" fill="#26170c" stroke="none" /><path d="M 15.27,13.96 L 15.20,13.96 L 14.41,14.38 L 14.41,15.43 L 14.47,15.43 L 15.27,15.01 Z" fill="#26170c" stroke="none" /><path d="M 27.04,13.55 L 26.15,14.00 L 26.15,16.22 L 27.04,15.78 Z" fill="#26170c" stroke="none" /><path d="M 22.52,10.34 L 22.46,10.34 L 21.60,10.78 L 21.60,11.83 L 20.74,12.28 L 20.71,12.25 L 20.71,11.23 L 18.89,12.12 L 18.89,13.20 L 20.68,12.31 L 20.71,12.34 L 20.71,13.36 L 20.64,13.42 L 18.04,14.73 L 17.97,14.70 L 17.97,12.60 L 16.19,13.49 L 16.19,14.54 L 16.25,14.54 L 17.05,14.12 L 17.08,14.16 L 17.08,15.17 L 17.02,15.24 L 15.27,16.10 L 15.27,17.21 L 15.33,17.21 L 16.13,16.80 L 16.19,16.83 L 16.19,18.96 L 15.30,19.40 L 15.27,19.37 L 15.27,18.35 L 15.20,18.35 L 14.41,18.77 L 14.41,19.85 L 14.47,19.85 L 15.20,19.47 L 15.27,19.50 L 15.27,20.52 L 15.20,20.58 L 14.41,20.96 L 14.41,22.08 L 14.47,22.08 L 15.27,21.66 L 15.27,20.58 L 15.33,20.52 L 16.16,20.10 L 16.19,20.14 L 16.19,21.18 L 16.25,21.18 L 17.08,20.77 L 17.08,19.66 L 17.02,19.66 L 16.22,20.07 L 16.19,20.04 L 16.19,18.99 L 16.22,18.96 L 18.83,17.65 L 18.89,17.69 L 18.89,18.70 L 18.83,18.77 L 17.97,19.18 L 17.97,20.29 L 18.04,20.29 L 18.83,19.88 L 18.89,19.91 L 18.89,20.93 L 18.83,20.99 L 17.97,21.41 L 17.97,23.63 L 18.86,23.19 L 18.89,23.22 L 18.89,24.27 L 17.97,24.75 L 17.97,28.06 L 17.08,28.50 L 17.08,29.58 L 17.02,29.65 L 16.19,30.06 L 16.19,31.11 L 16.25,31.11 L 17.97,30.25 L 17.97,29.20 L 18.04,29.14 L 19.75,28.28 L 19.79,28.31 L 19.79,29.33 L 20.71,28.88 L 20.71,27.83 L 20.77,27.77 L 21.60,27.36 L 21.60,26.27 L 21.53,26.27 L 20.74,26.69 L 20.71,26.66 L 20.71,25.61 L 20.64,25.61 L 19.79,26.05 L 19.79,27.13 L 19.72,27.20 L 18.93,27.58 L 18.89,27.55 L 18.89,25.42 L 18.96,25.35 L 22.49,23.60 L 22.52,23.63 L 22.52,25.80 L 24.30,24.91 L 24.33,24.94 L 24.33,25.99 L 25.19,25.57 L 25.22,25.61 L 25.22,26.59 L 25.29,26.59 L 27.04,25.70 L 27.04,24.65 L 27.93,24.21 L 27.93,23.13 L 27.99,23.06 L 28.82,22.65 L 28.82,19.34 L 28.76,19.34 L 27.96,19.75 L 27.93,19.72 L 27.93,18.67 L 28.82,18.23 L 28.82,17.11 L 28.76,17.11 L 27.96,17.53 L 27.93,17.50 L 27.93,16.48 L 27.99,16.41 L 28.82,16.00 L 28.82,14.89 L 27.93,15.33 L 27.93,16.41 L 27.86,16.48 L 27.04,16.89 L 27.04,20.20 L 27.01,20.23 L 25.29,21.09 L 25.22,21.06 L 25.22,20.04 L 25.29,19.98 L 26.15,19.56 L 26.15,17.34 L 26.12,17.34 L 25.22,17.78 L 25.22,19.98 L 25.16,20.04 L 23.44,20.90 L 23.41,20.87 L 23.41,19.82 L 24.33,19.34 L 24.33,18.26 L 24.27,18.26 L 23.41,18.70 L 23.41,19.79 L 22.55,20.23 L 22.52,20.20 L 22.52,18.04 L 21.60,18.48 L 21.60,19.59 L 21.57,19.63 L 19.85,20.49 L 19.79,20.45 L 19.79,19.44 L 19.85,19.37 L 20.71,18.96 L 20.71,17.84 L 20.64,17.84 L 19.85,18.26 L 19.79,18.23 L 19.79,16.10 L 20.68,15.65 L 20.71,15.68 L 20.71,16.70 L 20.77,16.70 L 21.57,16.29 L 21.60,16.32 L 21.60,17.37 L 21.66,17.37 L 22.52,16.92 L 22.52,15.84 L 22.58,15.78 L 25.22,14.47 L 25.22,12.25 L 25.19,12.25 L 23.41,13.14 L 23.41,14.25 L 23.38,14.28 L 20.77,15.59 L 20.71,15.55 L 20.71,13.42 L 20.77,13.36 L 22.52,12.50 Z" fill="#26170c" stroke="none" /><path d="M 26.15,9.57 L 23.44,10.91 L 23.41,10.94 L 23.41,12.02 L 23.48,12.02 L 26.15,10.69 Z" fill="#26170c" stroke="none" /><path d="M 28.82,7.19 L 28.76,7.19 L 27.93,7.60 L 27.93,10.88 L 26.15,11.77 L 26.15,12.88 L 26.21,12.88 L 27.90,12.02 L 27.93,12.06 L 27.93,14.22 L 28.82,13.77 Z" fill="#26170c" stroke="none" /><path d="M 19.79,28.28 L 19.72,28.28 L 17.97,29.17 L 17.97,30.22 L 18.04,30.22 L 19.79,29.33 Z" fill="#26180d" stroke="none" /><path d="M 25.22,22.23 L 25.16,22.23 L 24.33,22.65 L 24.33,24.87 L 22.58,25.77 L 22.52,25.73 L 22.52,23.60 L 22.58,23.54 L 23.41,23.13 L 23.41,22.04 L 23.35,22.04 L 22.52,22.46 L 22.52,23.54 L 22.46,23.60 L 18.93,25.35 L 18.89,25.38 L 18.89,27.61 L 19.79,27.17 L 19.79,26.08 L 19.85,26.02 L 20.68,25.61 L 20.71,25.64 L 20.71,26.69 L 20.77,26.69 L 21.57,26.27 L 21.60,26.31 L 21.60,27.32 L 21.53,27.39 L 20.71,27.80 L 20.71,28.85 L 20.77,28.85 L 25.22,26.62 L 25.22,25.54 L 24.40,25.96 L 24.33,25.92 L 24.33,24.91 L 25.22,24.46 Z" fill="#26180d" stroke="none" /><path d="M 27.93,20.87 L 26.15,21.76 L 26.15,22.87 L 27.01,22.46 L 27.04,22.49 L 27.04,23.54 L 27.86,23.13 L 27.93,23.16 L 27.93,24.17 L 27.04,24.62 L 27.04,25.70 L 28.82,24.81 L 28.82,22.65 L 27.99,23.06 L 27.93,23.03 Z" fill="#26180d" stroke="none" /><path d="M 28.82,18.23 L 28.76,18.23 L 27.93,18.64 L 27.93,19.75 L 27.99,19.75 L 28.82,19.34 Z" fill="#26180d" stroke="none" /><path d="M 18.89,15.43 L 18.83,15.43 L 17.97,15.87 L 17.97,16.99 L 18.89,16.54 Z" fill="#26180d" stroke="none" /><path d="M 27.93,7.63 L 27.86,7.63 L 22.52,10.31 L 22.52,12.47 L 20.77,13.36 L 20.71,13.33 L 20.71,12.31 L 21.60,11.86 L 21.60,10.78 L 20.71,11.23 L 20.71,12.28 L 20.68,12.31 L 18.96,13.17 L 18.89,13.14 L 18.89,12.15 L 18.83,12.15 L 17.97,12.60 L 17.97,14.76 L 20.64,13.42 L 20.71,13.46 L 20.71,15.59 L 20.64,15.65 L 19.79,16.06 L 19.79,18.26 L 19.72,18.32 L 18.93,18.70 L 18.89,18.67 L 18.89,17.62 L 18.86,17.62 L 16.22,18.96 L 16.19,18.93 L 16.19,16.76 L 15.30,17.21 L 15.27,17.18 L 15.27,16.13 L 17.08,15.20 L 17.08,14.12 L 17.02,14.12 L 16.22,14.54 L 16.19,14.50 L 16.19,13.49 L 15.27,13.93 L 15.27,14.98 L 15.20,15.05 L 14.41,15.43 L 14.41,18.77 L 15.24,18.35 L 15.27,18.39 L 15.27,19.40 L 15.20,19.47 L 14.41,19.85 L 14.41,20.96 L 14.47,20.96 L 15.20,20.58 L 15.27,20.61 L 15.27,21.63 L 15.20,21.69 L 14.41,22.08 L 14.41,25.42 L 15.24,25.00 L 15.27,25.03 L 15.27,28.28 L 15.20,28.34 L 14.41,28.72 L 14.41,29.84 L 14.47,29.84 L 15.20,29.46 L 15.27,29.49 L 15.27,31.59 L 16.19,31.14 L 16.19,30.09 L 16.25,30.03 L 17.08,29.61 L 17.08,28.53 L 17.97,28.09 L 17.97,24.78 L 18.04,24.72 L 18.89,24.30 L 18.89,23.19 L 19.75,22.74 L 19.79,22.78 L 19.79,23.83 L 19.85,23.83 L 20.71,23.38 L 20.71,21.15 L 19.82,21.60 L 19.79,21.57 L 19.79,20.55 L 19.85,20.49 L 21.60,19.63 L 21.60,18.51 L 22.46,18.07 L 22.52,18.10 L 22.52,20.23 L 22.58,20.23 L 23.38,19.82 L 23.41,19.85 L 23.41,20.90 L 23.48,20.90 L 25.19,20.04 L 25.22,20.07 L 25.22,21.12 L 25.26,21.12 L 27.04,20.23 L 27.04,16.92 L 27.10,16.86 L 27.90,16.48 L 27.93,16.51 L 27.93,17.53 L 27.99,17.53 L 28.82,17.11 L 28.82,16.00 L 27.99,16.41 L 27.93,16.38 L 27.93,15.36 L 27.99,15.30 L 28.82,14.89 L 28.82,13.77 L 27.99,14.19 L 27.93,14.16 L 27.93,12.02 L 27.86,12.02 L 26.18,12.88 L 26.15,12.85 L 26.15,11.80 L 27.93,10.91 Z" fill="#26180d" stroke="none" /><path d="M 4.49,24.91 L 4.49,25.99 L 5.41,26.47 L 5.41,27.51 L 5.44,27.55 L 6.30,27.96 L 6.30,26.94 L 6.33,26.91 L 7.22,27.36 L 7.22,26.24 L 6.30,25.80 L 6.30,26.85 L 6.27,26.88 L 5.41,26.43 L 5.41,25.35 L 4.55,24.91 Z" fill="#3d2614" stroke="none" /><path d="M 9.92,24.30 L 9.92,25.38 L 10.78,25.83 L 10.85,25.83 L 10.85,24.75 L 9.99,24.30 Z" fill="#3d2614" stroke="none" /><path d="M 6.30,22.49 L 6.30,23.57 L 7.16,24.02 L 7.22,24.02 L 7.22,22.93 L 6.36,22.49 Z" fill="#3d2614" stroke="none" /><path d="M 12.63,22.33 L 12.63,23.41 L 13.49,23.86 L 13.55,23.86 L 13.55,22.78 L 12.69,22.33 Z" fill="#3d2614" stroke="none" /><path d="M 4.49,21.57 L 4.49,22.68 L 5.41,23.13 L 5.41,22.01 Z" fill="#3d2614" stroke="none" /><path d="M 8.11,21.15 L 8.11,23.38 L 8.97,23.83 L 9.03,23.83 L 9.03,21.60 Z" fill="#3d2614" stroke="none" /><path d="M 13.55,19.44 L 13.55,20.55 L 14.35,20.96 L 14.41,20.96 L 14.41,19.85 Z" fill="#3d2614" stroke="none" /><path d="M 5.41,18.70 L 5.41,19.82 L 6.23,20.23 L 6.30,20.23 L 6.30,19.15 Z" fill="#3d2614" stroke="none" /><path d="M 7.22,18.51 L 7.22,19.63 L 8.05,20.04 L 8.11,20.04 L 8.11,18.93 L 7.28,18.51 Z" fill="#3d2614" stroke="none" /><path d="M 12.63,16.76 L 12.63,17.88 L 13.49,18.32 L 13.55,18.32 L 13.55,17.21 Z" fill="#3d2614" stroke="none" /><path d="M 5.41,12.06 L 5.41,13.11 L 5.38,13.14 L 4.49,12.69 L 4.49,13.81 L 6.23,14.70 L 6.30,14.70 L 6.30,12.47 L 5.47,12.06 Z" fill="#3d2614" stroke="none" /><path d="M 7.22,10.78 L 7.22,11.86 L 8.05,12.28 L 8.11,12.28 L 8.11,11.23 Z" fill="#3d2614" stroke="none" /><path d="M 1.78,10.24 L 1.78,11.36 L 2.61,11.77 L 2.67,11.77 L 2.67,10.66 L 1.84,10.24 Z" fill="#3d2614" stroke="none" /><path d="M 0.00,7.19 L 0.00,8.24 L 0.89,8.68 L 0.89,7.60 L 0.06,7.19 Z" fill="#3d2614" stroke="none" /><path d="M 0.89,7.63 L 0.89,8.62 L 0.86,8.65 L 0.00,8.24 L 0.00,17.11 L 0.89,17.56 L 0.89,18.61 L 0.86,18.64 L 0.06,18.23 L 0.00,18.23 L 0.00,24.81 L 0.89,25.26 L 0.89,24.24 L 0.92,24.21 L 1.78,24.65 L 1.78,25.70 L 1.81,25.73 L 5.38,27.51 L 5.41,27.51 L 5.41,26.50 L 5.44,26.47 L 6.30,26.91 L 6.30,27.96 L 6.33,27.99 L 12.56,31.11 L 12.63,31.11 L 12.63,30.12 L 12.69,30.09 L 13.55,30.54 L 13.55,31.59 L 14.35,32.00 L 14.41,32.00 L 14.41,20.96 L 13.61,20.58 L 13.55,20.52 L 13.55,19.50 L 13.58,19.47 L 14.35,19.85 L 14.41,19.85 L 14.41,14.38 L 13.61,13.96 L 13.55,13.96 L 13.55,14.95 L 13.49,14.98 L 11.74,14.09 L 11.74,13.04 L 11.71,13.01 L 10.85,12.60 L 10.85,13.61 L 10.82,13.65 L 9.99,13.23 L 9.92,13.17 L 9.92,12.12 L 8.11,11.23 L 8.11,12.25 L 8.08,12.28 L 7.22,11.83 L 7.22,10.78 L 7.19,10.75 L 0.95,7.63 Z" fill="#3e2614" stroke="none" /><path d="M 0.89,24.21 L 0.89,25.26 L 1.78,25.70 L 1.78,24.62 L 0.95,24.21 Z" fill="#3e2615" stroke="none" /><path d="M 8.14,23.38 L 8.11,23.38 L 8.11,24.43 L 8.08,24.46 L 7.28,24.05 L 7.22,24.05 L 7.22,25.16 L 8.05,25.57 L 8.11,25.57 L 8.11,24.52 L 8.14,24.49 L 9.03,24.94 L 9.03,23.83 Z" fill="#3e2615" stroke="none" /><path d="M 2.67,21.76 L 2.67,22.87 L 3.53,23.32 L 3.59,23.32 L 3.59,22.20 Z" fill="#3e2615" stroke="none" /><path d="M 12.63,21.22 L 12.63,22.33 L 13.55,22.78 L 13.55,21.66 L 12.69,21.22 Z" fill="#3e2615" stroke="none" /><path d="M 10.85,19.21 L 10.85,20.33 L 11.67,20.74 L 11.74,20.74 L 11.74,19.63 L 10.91,19.21 Z" fill="#3e2615" stroke="none" /><path d="M 2.67,18.45 L 2.67,19.56 L 3.59,20.01 L 3.59,18.89 L 2.74,18.45 Z" fill="#3e2615" stroke="none" /><path d="M 6.30,16.92 L 6.30,18.04 L 7.16,18.48 L 7.22,18.48 L 7.22,17.37 Z" fill="#3e2615" stroke="none" /><path d="M 4.49,16.03 L 4.49,17.15 L 5.41,17.59 L 5.41,16.48 L 4.55,16.03 Z" fill="#3e2615" stroke="none" /><path d="M 0.89,14.22 L 0.89,15.33 L 1.78,15.78 L 1.78,14.66 Z" fill="#3e2615" stroke="none" /><path d="M 11.74,13.04 L 11.74,14.12 L 13.55,15.01 L 13.55,13.93 Z" fill="#3e2615" stroke="none" /><path d="M 9.92,12.15 L 9.92,13.20 L 10.78,13.65 L 10.85,13.65 L 10.85,12.60 L 9.99,12.15 Z" fill="#3e2615" stroke="none" /><path d="M 12.63,30.06 L 12.63,31.14 L 13.55,31.59 L 13.55,30.50 Z" fill="#3e2715" stroke="none" /><path d="M 2.67,22.87 L 2.67,23.98 L 3.53,24.43 L 3.59,24.43 L 3.59,23.32 Z" fill="#3e2715" stroke="none" /><path d="M 9.92,22.08 L 9.92,23.19 L 10.85,23.63 L 10.85,22.52 L 9.99,22.08 Z" fill="#3e2715" stroke="none" /><path d="M 0.89,20.87 L 0.89,21.98 L 1.78,22.43 L 1.78,21.31 Z" fill="#3e2715" stroke="none" /><path d="M 8.11,18.96 L 8.11,20.07 L 9.03,20.52 L 9.03,19.40 L 8.17,18.96 Z" fill="#3e2715" stroke="none" /><path d="M 0.00,17.11 L 0.00,18.23 L 0.83,18.64 L 0.89,18.64 L 0.89,17.53 L 0.06,17.11 Z" fill="#3e2715" stroke="none" /><path d="M 11.71,12.15 L 11.71,12.18 L 12.53,12.60 L 12.66,12.60 L 13.49,12.18 L 13.46,12.12 L 12.63,11.71 L 12.56,11.71 Z" fill="#5e3a1f" stroke="none" /><path d="M 9.03,11.67 L 9.03,11.71 L 9.86,12.12 L 9.99,12.12 L 10.75,11.74 L 10.75,11.67 L 9.92,11.26 L 9.86,11.26 Z" fill="#5e3a1f" stroke="none" /><path d="M 19.85,10.78 L 19.88,10.85 L 20.64,11.23 L 20.74,11.23 L 21.57,10.82 L 21.57,10.75 L 20.80,10.37 L 20.68,10.37 Z" fill="#5e3a1f" stroke="none" /><path d="M 7.19,9.89 L 7.19,9.92 L 8.02,10.34 L 8.14,10.34 L 8.97,9.92 L 8.94,9.86 L 8.11,9.45 L 8.05,9.45 Z" fill="#5e3a1f" stroke="none" /><path d="M 21.63,8.08 L 20.77,7.63 L 20.71,7.63 L 18.93,8.52 L 18.93,8.56 L 20.71,9.45 L 20.77,9.45 L 21.63,9.00 L 21.63,8.97 L 20.80,8.56 L 20.83,8.49 L 21.63,8.11 Z" fill="#5e3a1f" stroke="none" /><path d="M 13.52,7.63 L 13.52,7.67 L 14.35,8.08 L 14.47,8.08 L 15.30,7.67 L 15.27,7.60 L 14.44,7.19 L 14.38,7.19 Z" fill="#5e3a1f" stroke="none" /><path d="M 27.10,7.16 L 27.13,7.22 L 27.90,7.60 L 27.99,7.60 L 28.79,7.19 L 28.79,7.16 L 27.96,6.74 Z" fill="#5e3a1f" stroke="none" /><path d="M 23.48,7.16 L 23.51,7.22 L 24.33,7.63 L 24.40,7.63 L 25.26,7.19 L 25.26,7.16 L 24.43,6.74 L 24.30,6.74 Z" fill="#5e3a1f" stroke="none" /><path d="M 7.19,7.16 L 7.22,7.22 L 8.05,7.63 L 8.11,7.63 L 8.97,7.19 L 8.97,7.16 L 8.14,6.74 L 8.02,6.74 Z" fill="#5e3a1f" stroke="none" /><path d="M 9.89,6.71 L 9.92,6.78 L 11.64,7.63 L 11.74,7.63 L 12.56,7.22 L 12.56,7.16 L 10.85,6.30 L 10.72,6.30 Z" fill="#5e3a1f" stroke="none" /><path d="M 14.41,6.27 L 14.41,6.30 L 15.30,6.74 L 16.22,6.30 L 16.22,6.27 L 15.33,5.82 Z" fill="#5e3a1f" stroke="none" /><path d="M 10.82,5.34 L 10.82,5.41 L 11.64,5.82 L 11.74,5.82 L 12.56,5.41 L 12.56,5.34 L 11.74,4.93 L 11.64,4.93 Z" fill="#5e3a1f" stroke="none" /><path d="M 12.60,4.45 L 12.60,4.49 L 13.49,4.93 L 14.41,4.49 L 14.41,4.45 L 13.52,4.01 Z" fill="#5e3a1f" stroke="none" /><path d="M 8.08,4.04 L 8.91,4.45 L 9.03,4.45 L 9.86,4.04 L 9.83,3.98 L 9.03,3.59 L 9.00,3.56 L 9.03,3.53 L 9.89,3.12 L 10.75,3.56 L 10.82,3.56 L 11.64,3.15 L 11.67,3.09 L 10.85,2.67 L 10.72,2.67 L 9.92,3.09 L 9.83,3.09 L 9.00,2.67 L 8.11,3.12 L 8.11,3.15 L 8.94,3.56 L 8.11,3.98 Z" fill="#5e3a1f" stroke="none" /><path d="M 9.92,12.12 L 9.92,12.15 L 14.38,14.38 L 14.44,14.38 L 15.27,13.96 L 15.27,13.93 L 10.82,11.71 L 10.75,11.71 Z" fill="#5f3a1f" stroke="none" /><path d="M 12.63,11.67 L 12.63,11.74 L 13.46,12.15 L 13.55,12.15 L 14.38,11.74 L 14.38,11.67 L 13.55,11.26 L 13.46,11.26 Z" fill="#5f3a1f" stroke="none" /><path d="M 18.89,11.23 L 18.07,10.82 L 17.97,10.82 L 15.36,12.12 L 15.33,12.18 L 16.16,12.60 L 16.29,12.60 L 18.89,11.29 Z" fill="#5f3a1f" stroke="none" /><path d="M 7.25,10.75 L 7.25,10.82 L 8.08,11.23 L 8.17,11.23 L 8.97,10.82 L 8.97,10.78 L 8.14,10.37 L 8.02,10.37 Z" fill="#5f3a1f" stroke="none" /><path d="M 9.89,10.34 L 9.89,10.37 L 11.67,11.26 L 12.60,10.82 L 12.60,10.78 L 10.82,9.89 Z" fill="#5f3a1f" stroke="none" /><path d="M 24.30,9.42 L 23.51,9.00 L 23.41,9.00 L 21.66,9.89 L 20.77,9.45 L 20.71,9.45 L 18.93,10.34 L 18.93,10.37 L 19.85,10.82 L 21.60,9.92 L 21.69,9.92 L 22.52,10.34 L 24.30,9.45 Z" fill="#5f3a1f" stroke="none" /><path d="M 14.38,8.97 L 13.55,8.56 L 13.46,8.56 L 11.74,9.42 L 11.74,9.48 L 12.56,9.89 L 12.66,9.89 L 14.38,9.03 Z" fill="#5f3a1f" stroke="none" /><path d="M 18.93,8.52 L 18.04,8.08 L 17.15,8.52 L 17.08,8.52 L 16.29,8.11 L 16.16,8.11 L 15.33,8.52 L 15.36,8.59 L 16.10,8.94 L 16.16,9.00 L 16.13,9.03 L 13.55,10.31 L 13.52,10.37 L 15.33,11.26 L 17.11,10.37 L 17.11,10.34 L 16.32,9.96 L 16.25,9.89 L 16.29,9.86 L 18.93,8.56 Z" fill="#5f3a1f" stroke="none" /><path d="M 10.82,8.08 L 10.82,8.11 L 11.64,8.52 L 11.77,8.52 L 12.60,8.11 L 12.60,8.08 L 11.71,7.63 Z" fill="#5f3a1f" stroke="none" /><path d="M 1.81,6.27 L 1.81,6.33 L 2.54,6.68 L 2.58,6.74 L 1.75,7.16 L 1.75,7.19 L 2.61,7.63 L 1.78,8.05 L 1.78,8.08 L 4.45,9.42 L 4.55,9.42 L 5.38,9.00 L 6.23,9.45 L 5.41,9.86 L 5.41,9.89 L 6.30,10.34 L 8.05,9.48 L 8.05,9.42 L 6.33,8.56 L 6.36,8.49 L 8.05,7.67 L 8.05,7.60 L 5.47,6.33 L 5.41,6.27 L 5.44,6.23 L 6.23,5.85 L 6.23,5.79 L 5.41,5.38 L 5.31,5.38 L 4.45,5.82 L 3.66,5.41 L 3.53,5.41 Z" fill="#5f3a1f" stroke="none" /><path d="M 19.88,5.34 L 19.88,5.41 L 20.71,5.82 L 20.80,5.82 L 21.63,5.41 L 21.63,5.34 L 20.80,4.93 L 20.71,4.93 Z" fill="#5f3a1f" stroke="none" /><path d="M 9.00,3.53 L 9.00,3.59 L 10.72,4.45 L 10.85,4.45 L 11.67,4.04 L 11.64,3.98 L 9.92,3.12 L 9.83,3.12 Z" fill="#5f3a1f" stroke="none" /><path d="M 14.41,2.64 L 14.41,2.67 L 16.19,3.56 L 16.25,3.56 L 17.11,3.12 L 17.11,3.09 L 15.33,2.19 Z" fill="#5f3a1f" stroke="none" /><path d="M 16.25,1.72 L 16.25,1.78 L 18.83,3.05 L 18.89,3.12 L 18.07,3.53 L 18.07,3.59 L 18.89,4.01 L 18.99,4.01 L 19.82,3.59 L 19.82,3.53 L 18.99,3.12 L 19.05,3.05 L 19.79,2.70 L 19.75,2.64 L 17.15,1.34 L 17.02,1.34 Z" fill="#5f3a1f" stroke="none" /><path d="M 6.30,5.79 L 6.30,5.85 L 8.87,7.13 L 8.94,7.19 L 8.11,7.60 L 8.11,7.67 L 8.94,8.08 L 8.87,8.14 L 8.08,8.52 L 8.08,8.56 L 9.86,9.45 L 9.92,9.45 L 10.75,9.03 L 10.78,8.97 L 9.10,8.14 L 9.03,8.08 L 10.75,7.22 L 10.75,7.16 L 9.07,6.33 L 9.03,6.27 L 9.83,5.85 L 9.92,5.85 L 13.46,7.63 L 13.55,7.63 L 15.27,6.78 L 15.30,6.71 L 12.66,5.41 L 12.63,5.38 L 12.66,5.34 L 13.49,4.93 L 14.38,5.38 L 14.44,5.38 L 15.33,4.93 L 17.05,5.79 L 17.08,5.82 L 17.02,5.88 L 16.22,6.27 L 16.22,6.30 L 17.02,6.68 L 17.08,6.74 L 16.25,7.16 L 16.25,7.22 L 17.08,7.63 L 17.18,7.63 L 18.00,7.22 L 18.00,7.16 L 17.18,6.74 L 17.24,6.68 L 18.00,6.30 L 18.07,6.30 L 18.83,6.68 L 18.89,6.74 L 18.07,7.16 L 18.07,7.22 L 19.79,8.08 L 19.88,8.08 L 21.66,7.19 L 22.52,7.63 L 20.74,8.52 L 20.74,8.56 L 21.63,9.00 L 23.41,8.11 L 23.51,8.11 L 25.19,8.97 L 25.26,8.97 L 27.04,8.08 L 27.04,8.05 L 26.21,7.63 L 26.15,7.63 L 25.26,8.08 L 23.54,7.22 L 23.51,7.19 L 23.57,7.13 L 24.33,6.74 L 24.40,6.74 L 25.29,7.19 L 26.18,6.74 L 26.18,6.71 L 25.29,6.27 L 24.40,6.71 L 24.33,6.71 L 22.62,5.85 L 22.58,5.82 L 22.62,5.79 L 23.44,5.38 L 24.33,5.82 L 24.40,5.82 L 25.22,5.41 L 25.22,5.38 L 24.33,4.93 L 23.51,5.34 L 23.41,5.34 L 22.62,4.93 L 22.68,4.87 L 23.41,4.52 L 23.41,4.49 L 22.55,4.04 L 22.49,4.04 L 21.66,4.45 L 21.66,4.49 L 22.46,4.87 L 22.52,4.93 L 21.69,5.34 L 21.69,5.41 L 22.52,5.82 L 19.88,7.16 L 19.79,7.16 L 18.99,6.74 L 19.05,6.68 L 19.85,6.30 L 19.85,6.27 L 18.96,5.82 L 18.07,6.27 L 18.00,6.27 L 17.24,5.88 L 17.18,5.82 L 18.00,5.41 L 18.00,5.34 L 16.29,4.49 L 16.16,4.49 L 15.36,4.90 L 15.27,4.90 L 14.50,4.52 L 14.47,4.49 L 14.50,4.42 L 15.30,4.04 L 15.30,4.01 L 12.66,2.67 L 12.69,2.61 L 13.49,2.23 L 13.46,2.16 L 12.63,1.75 L 13.46,1.34 L 13.49,1.27 L 12.66,0.86 L 10.85,1.75 L 10.88,1.81 L 11.64,2.19 L 11.58,2.26 L 10.78,2.64 L 10.78,2.67 L 14.31,4.42 L 14.35,4.45 L 14.31,4.52 L 13.55,4.90 L 13.46,4.90 L 12.66,4.49 L 12.53,4.49 L 11.71,4.90 L 11.71,4.93 L 12.56,5.38 L 11.71,5.82 L 10.82,5.38 L 10.75,5.38 L 9.86,5.82 L 8.11,4.93 L 8.02,4.93 Z" fill="#5f3a1f" stroke="none" /><path d="M 13.58,0.38 L 13.58,0.45 L 15.30,1.30 L 16.16,0.89 L 16.13,0.83 L 14.47,0.00 L 14.35,0.00 Z" fill="#5f3a1f" stroke="none" /><path d="M 6.33,10.31 L 6.36,10.37 L 7.19,10.78 L 7.25,10.78 L 8.08,10.37 L 8.08,10.34 L 7.19,9.89 Z" fill="#603b20" stroke="none" /><path d="M 4.52,9.42 L 4.52,9.45 L 5.34,9.86 L 5.47,9.86 L 6.23,9.48 L 6.23,9.42 L 5.41,9.00 L 5.31,9.00 Z" fill="#603b20" stroke="none" /><path d="M 25.19,8.94 L 23.44,8.08 L 20.77,9.42 L 20.77,9.48 L 21.60,9.89 L 21.53,9.96 L 20.74,10.34 L 20.74,10.37 L 21.57,10.78 L 21.63,10.78 L 22.49,10.34 L 22.49,10.31 L 21.76,9.96 L 21.69,9.89 L 21.73,9.86 L 23.44,9.00 L 24.27,9.42 L 24.37,9.42 L 25.19,9.00 Z" fill="#603b20" stroke="none" /><path d="M 20.77,7.60 L 20.77,7.67 L 21.60,8.08 L 21.69,8.08 L 22.52,7.67 L 22.52,7.60 L 21.69,7.19 L 21.60,7.19 Z" fill="#603b20" stroke="none" /><path d="M 2.67,7.60 L 2.67,7.67 L 4.39,8.52 L 4.52,8.52 L 6.23,7.67 L 6.23,7.60 L 5.41,7.19 L 5.31,7.19 L 4.45,7.63 L 3.59,7.19 L 3.50,7.19 Z" fill="#603b20" stroke="none" /><path d="M 0.03,7.16 L 0.06,7.22 L 1.72,8.05 L 1.84,8.05 L 2.61,7.67 L 2.61,7.60 L 0.89,6.74 Z" fill="#603b20" stroke="none" /><path d="M 22.58,4.90 L 22.62,4.96 L 23.35,5.31 L 23.41,5.38 L 22.58,5.79 L 22.58,5.85 L 24.30,6.71 L 24.43,6.71 L 25.22,6.30 L 25.32,6.30 L 26.12,6.71 L 26.08,6.78 L 24.40,7.60 L 24.40,7.67 L 25.22,8.08 L 25.32,8.08 L 26.18,7.63 L 26.97,8.05 L 27.10,8.05 L 27.93,7.63 L 27.90,7.57 L 27.13,7.19 L 27.20,7.13 L 27.93,6.78 L 27.90,6.71 L 25.29,5.41 L 25.16,5.41 L 24.37,5.82 L 23.51,5.38 L 23.57,5.31 L 24.30,4.96 L 24.30,4.93 L 23.44,4.49 Z" fill="#603b20" stroke="none" /><path d="M 13.49,4.01 L 11.74,3.12 L 11.64,3.12 L 10.82,3.53 L 10.82,3.59 L 11.64,4.01 L 11.58,4.07 L 10.82,4.45 L 10.75,4.45 L 9.89,4.01 L 9.00,4.45 L 8.94,4.45 L 8.17,4.07 L 8.11,4.01 L 8.94,3.59 L 8.94,3.53 L 8.17,3.15 L 8.05,3.15 L 3.59,5.38 L 3.59,5.41 L 4.42,5.82 L 4.49,5.82 L 5.38,5.38 L 6.23,5.82 L 5.41,6.23 L 5.38,6.30 L 7.19,7.19 L 8.08,6.74 L 8.08,6.71 L 6.33,5.85 L 6.30,5.82 L 6.33,5.79 L 8.05,4.93 L 8.94,5.38 L 9.00,5.38 L 9.86,4.93 L 10.75,5.38 L 10.82,5.38 L 13.49,4.04 Z" fill="#603b20" stroke="none" /><path d="M 22.49,4.01 L 20.77,3.15 L 20.64,3.15 L 18.93,4.01 L 18.07,3.56 L 18.89,3.15 L 18.93,3.09 L 17.11,2.19 L 16.22,2.64 L 16.22,2.67 L 17.02,3.05 L 17.08,3.12 L 17.05,3.15 L 16.22,3.56 L 15.36,3.12 L 15.27,3.12 L 14.44,3.53 L 14.44,3.59 L 15.27,4.01 L 15.20,4.07 L 14.41,4.45 L 14.41,4.49 L 15.20,4.87 L 15.27,4.93 L 15.24,4.96 L 14.41,5.38 L 13.55,4.93 L 13.46,4.93 L 12.63,5.34 L 12.63,5.41 L 14.35,6.27 L 14.47,6.27 L 15.27,5.85 L 15.36,5.85 L 16.13,6.23 L 16.16,6.27 L 16.13,6.33 L 14.44,7.16 L 14.44,7.22 L 15.24,7.60 L 15.27,7.63 L 15.20,7.70 L 13.55,8.52 L 13.46,8.52 L 12.69,8.14 L 12.66,8.08 L 13.49,7.67 L 13.49,7.63 L 12.63,7.19 L 12.56,7.19 L 11.71,7.63 L 10.82,7.19 L 10.75,7.19 L 9.92,7.60 L 9.92,7.67 L 10.75,8.08 L 10.69,8.14 L 9.89,8.52 L 9.89,8.56 L 10.69,8.94 L 10.75,9.00 L 9.89,9.45 L 8.14,8.56 L 8.17,8.49 L 8.97,8.11 L 8.97,8.08 L 8.11,7.63 L 8.05,7.63 L 6.27,8.52 L 6.27,8.56 L 9.83,10.34 L 9.80,10.40 L 8.14,11.23 L 8.14,11.26 L 8.97,11.67 L 9.10,11.67 L 9.89,11.26 L 11.64,12.15 L 11.74,12.15 L 13.52,11.26 L 14.38,11.71 L 12.60,12.60 L 12.60,12.63 L 14.38,13.52 L 14.44,13.52 L 16.19,12.63 L 16.25,12.63 L 17.05,13.04 L 17.11,13.04 L 17.94,12.63 L 17.97,12.56 L 17.11,12.15 L 16.25,12.60 L 16.19,12.60 L 15.43,12.21 L 15.36,12.15 L 18.00,10.82 L 18.89,11.26 L 18.07,11.67 L 18.07,11.74 L 18.83,12.12 L 18.96,12.12 L 20.68,11.26 L 20.64,11.20 L 19.02,10.40 L 18.99,10.34 L 20.71,9.48 L 20.71,9.42 L 19.02,8.59 L 18.99,8.56 L 19.02,8.49 L 19.82,8.11 L 19.82,8.08 L 18.07,7.19 L 18.00,7.19 L 16.25,8.08 L 16.19,8.08 L 15.43,7.70 L 15.36,7.63 L 17.11,6.74 L 17.11,6.71 L 16.29,6.30 L 16.32,6.23 L 17.08,5.85 L 17.18,5.85 L 17.97,6.27 L 18.10,6.27 L 18.89,5.85 L 18.99,5.85 L 19.75,6.23 L 19.79,6.30 L 18.96,6.71 L 18.96,6.74 L 19.82,7.19 L 22.52,5.85 L 22.52,5.79 L 21.69,5.38 L 21.63,5.38 L 20.77,5.82 L 19.88,5.38 L 22.49,4.07 Z" fill="#603b20" stroke="none" /><path d="M 11.67,2.19 L 10.88,1.78 L 10.78,1.78 L 9.07,2.64 L 9.03,2.70 L 9.89,3.12 L 11.67,2.23 Z" fill="#603b20" stroke="none" /><path d="M 12.63,1.78 L 14.35,2.64 L 14.47,2.64 L 17.08,1.34 L 17.08,1.30 L 16.19,0.86 L 15.36,1.27 L 15.27,1.27 L 14.47,0.86 L 14.35,0.86 L 12.63,1.72 Z" fill="#603b20" stroke="none" /><path d="M 17.05,13.01 L 16.29,12.63 L 16.16,12.63 L 14.44,13.49 L 14.44,13.55 L 15.20,13.93 L 15.33,13.93 L 17.05,13.07 Z" fill="#603b21" stroke="none" /><path d="M 17.15,12.18 L 18.00,12.60 L 18.89,12.15 L 18.89,12.12 L 18.07,11.71 L 18.00,11.71 L 17.18,12.12 Z" fill="#603b21" stroke="none" /><path d="M 8.08,10.34 L 8.08,10.37 L 8.97,10.82 L 9.89,10.37 L 9.89,10.34 L 9.00,9.89 Z" fill="#603b21" stroke="none" /><path d="M 10.82,9.89 L 10.82,9.92 L 11.64,10.34 L 11.77,10.34 L 12.60,9.92 L 12.56,9.86 L 11.74,9.45 L 11.67,9.45 Z" fill="#603b21" stroke="none" /><path d="M 15.33,7.63 L 15.33,7.67 L 16.16,8.08 L 16.29,8.08 L 17.11,7.67 L 17.08,7.60 L 16.25,7.19 L 16.19,7.19 Z" fill="#603b21" stroke="none" /><path d="M 17.15,6.71 L 17.18,6.78 L 18.00,7.19 L 18.07,7.19 L 18.93,6.74 L 18.93,6.71 L 18.10,6.30 L 17.97,6.30 Z" fill="#603b21" stroke="none" /><path d="M 9.83,4.93 L 9.00,5.34 L 9.00,5.41 L 9.83,5.82 L 9.77,5.88 L 8.97,6.27 L 8.97,6.30 L 9.89,6.74 L 10.78,6.30 L 10.78,6.27 L 9.99,5.88 L 9.92,5.82 L 10.75,5.41 L 10.75,5.34 L 9.92,4.93 Z" fill="#603b21" stroke="none" /><path d="M 20.77,4.90 L 20.80,4.96 L 21.63,5.38 L 21.69,5.38 L 22.55,4.93 L 22.55,4.90 L 21.73,4.49 L 21.60,4.49 Z" fill="#603b21" stroke="none" /><path d="M 16.22,4.45 L 16.22,4.49 L 17.11,4.93 L 18.04,4.49 L 18.04,4.45 L 17.15,4.01 Z" fill="#603b21" stroke="none" /><path d="M 13.52,3.09 L 13.55,3.15 L 14.38,3.56 L 14.44,3.56 L 15.30,3.12 L 15.30,3.09 L 14.47,2.67 L 14.35,2.67 Z" fill="#603b21" stroke="none" /><path d="M 12.66,0.89 L 13.52,1.30 L 14.41,0.86 L 14.41,0.83 L 13.58,0.41 L 13.52,0.41 L 12.69,0.83 Z" fill="#603b21" stroke="none" /><path d="M 12.60,8.08 L 12.60,8.11 L 13.49,8.56 L 14.41,8.11 L 14.41,8.08 L 13.52,7.63 Z" fill="#603c21" stroke="none" /><path d="M 9.00,8.08 L 9.00,8.11 L 9.83,8.52 L 9.96,8.52 L 10.78,8.11 L 10.75,8.05 L 9.92,7.63 L 9.86,7.63 Z" fill="#603c21" stroke="none" /><path d="M 0.89,6.78 L 1.75,7.19 L 2.64,6.74 L 2.64,6.71 L 1.81,6.30 L 1.75,6.30 L 0.92,6.71 Z" fill="#603c21" stroke="none" /><path d="M 18.96,3.09 L 18.99,3.15 L 19.82,3.56 L 19.88,3.56 L 20.71,3.15 L 20.71,3.12 L 19.82,2.67 Z" fill="#603c21" stroke="none" /><path d="M 12.60,2.64 L 12.60,2.67 L 13.49,3.12 L 14.41,2.67 L 14.41,2.64 L 13.52,2.19 Z" fill="#603c21" stroke="none" /><path d="M 15.33,2.19 L 15.33,2.23 L 16.16,2.64 L 16.29,2.64 L 17.11,2.23 L 17.08,2.16 L 16.25,1.75 L 16.19,1.75 Z" fill="#603c21" stroke="none" /></svg>