<svg height="32" width="32" viewBox="0 0 32 32"><defs /><path d="M 15.18,28.10 L 15.11,28.10 L 14.23,28.53 L 14.23,32.00 L 14.37,31.97 L 15.18,31.56 Z" fill="#16230a" stroke="none" /><path d="M 23.79,26.15 L 23.72,26.15 L 22.85,26.58 L 22.85,27.69 L 22.91,27.69 L 23.79,27.26 Z" fill="#16230a" stroke="none" /><path d="M 19.01,23.82 L 18.07,24.29 L 18.07,30.08 L 18.14,30.08 L 19.01,29.64 Z" fill="#16230a" stroke="none" /><path d="M 27.63,19.52 L 26.68,19.99 L 26.68,25.77 L 26.75,25.77 L 27.63,25.34 Z" fill="#16230a" stroke="none" /><path d="M 19.01,16.79 L 18.07,17.26 L 18.07,20.76 L 18.14,20.76 L 19.01,20.32 Z" fill="#16230a" stroke="none" /><path d="M 15.18,16.39 L 15.11,16.39 L 14.23,16.82 L 14.23,25.03 L 15.18,24.56 Z" fill="#16230a" stroke="none" /><path d="M 27.63,13.66 L 26.68,14.13 L 26.68,16.45 L 26.75,16.45 L 27.63,16.02 Z" fill="#16230a" stroke="none" /><path d="M 19.01,13.29 L 18.94,13.29 L 18.07,13.73 L 18.07,16.08 L 19.01,15.61 Z" fill="#16230a" stroke="none" /><path d="M 23.79,13.22 L 22.85,13.70 L 22.85,23.08 L 23.79,22.61 Z" fill="#16230a" stroke="none" /><path d="M 15.18,12.95 L 15.11,12.95 L 14.23,13.39 L 14.23,14.47 L 14.37,14.44 L 15.18,14.03 Z" fill="#16230a" stroke="none" /><path d="M 27.63,11.31 L 26.68,11.78 L 26.68,12.95 L 27.63,12.48 Z" fill="#16230a" stroke="none" /><path d="M 27.63,8.98 L 27.56,8.98 L 26.68,9.42 L 26.68,10.60 L 26.75,10.60 L 27.63,10.16 Z" fill="#16230a" stroke="none" /><path d="M 23.79,8.65 L 23.72,8.65 L 22.85,9.09 L 22.85,11.34 L 22.91,11.34 L 23.79,10.90 Z" fill="#16230a" stroke="none" /><path d="M 27.63,6.73 L 27.56,6.73 L 26.68,7.17 L 26.68,8.24 L 26.75,8.24 L 27.63,7.81 Z" fill="#16230a" stroke="none" /><path d="M 15.18,24.56 L 14.23,25.03 L 14.23,27.39 L 15.18,26.92 L 15.18,26.65 L 15.14,26.62 L 14.27,26.18 L 14.27,25.07 L 14.30,25.03 L 15.18,25.47 Z" fill="#1a280d" stroke="none" /><path d="M 23.79,22.61 L 22.85,23.08 L 22.85,25.40 L 22.91,25.40 L 23.79,24.97 Z" fill="#1a280d" stroke="none" /><path d="M 19.01,20.32 L 18.94,20.32 L 18.07,20.76 L 18.07,23.12 L 19.01,22.65 Z" fill="#1a280d" stroke="none" /><path d="M 27.63,16.02 L 27.56,16.02 L 26.68,16.45 L 26.68,18.81 L 27.63,18.34 Z" fill="#1a280d" stroke="none" /><path d="M 19.01,15.61 L 18.07,16.08 L 18.07,17.26 L 19.01,16.79 Z" fill="#1a280d" stroke="none" /><path d="M 15.18,14.03 L 15.11,14.03 L 14.23,14.47 L 14.23,15.65 L 14.37,15.61 L 15.18,15.21 Z" fill="#1a280d" stroke="none" /><path d="M 27.63,10.16 L 27.56,10.16 L 26.68,10.60 L 26.68,11.78 L 27.63,11.31 Z" fill="#1a280d" stroke="none" /><path d="M 19.01,11.04 L 18.94,11.04 L 18.07,11.47 L 18.07,12.55 L 18.14,12.55 L 19.01,12.11 Z" fill="#1d2d0d" stroke="none" /><path d="M 23.79,10.90 L 23.72,10.90 L 22.85,11.34 L 22.85,12.52 L 22.91,12.52 L 23.79,12.08 Z" fill="#1d2d0d" stroke="none" /><path d="M 19.99,26.85 L 19.01,27.32 L 19.01,29.61 L 19.08,29.61 L 20.93,28.67 L 20.93,27.56 L 20.02,28.00 L 19.99,27.96 Z" fill="#20310f" stroke="none" /><path d="M 18.07,26.65 L 18.00,26.65 L 17.09,27.12 L 17.09,28.30 L 18.07,27.83 Z" fill="#20310f" stroke="none" /><path d="M 24.77,25.64 L 23.79,26.11 L 23.79,27.22 L 23.86,27.22 L 24.77,26.75 Z" fill="#20310f" stroke="none" /><path d="M 22.85,24.26 L 22.78,24.26 L 21.87,24.73 L 21.87,25.91 L 22.85,25.44 Z" fill="#20310f" stroke="none" /><path d="M 16.15,22.91 L 15.18,23.39 L 15.18,25.47 L 15.21,25.51 L 15.21,26.62 L 15.18,26.65 L 15.18,30.42 L 15.24,30.42 L 16.15,29.95 Z" fill="#20310f" stroke="none" /><path d="M 18.07,20.79 L 18.00,20.79 L 17.09,21.27 L 17.09,22.44 L 18.07,21.97 Z" fill="#20310f" stroke="none" /><path d="M 18.07,18.44 L 17.09,18.91 L 17.09,20.09 L 18.07,19.62 Z" fill="#20310f" stroke="none" /><path d="M 26.68,16.49 L 26.62,16.49 L 25.71,16.96 L 25.71,20.46 L 24.77,20.93 L 24.77,22.11 L 24.83,22.11 L 25.67,21.67 L 25.71,21.70 L 25.71,26.28 L 26.68,25.81 Z" fill="#20310f" stroke="none" /><path d="M 22.85,13.70 L 21.87,14.17 L 21.87,18.84 L 21.80,18.91 L 20.93,19.35 L 20.93,21.67 L 21.00,21.67 L 21.84,21.23 L 21.87,21.27 L 21.87,23.55 L 21.94,23.55 L 22.85,23.08 Z" fill="#20310f" stroke="none" /><path d="M 16.15,13.53 L 15.18,14.00 L 15.18,16.35 L 15.24,16.35 L 16.15,15.88 Z" fill="#20310f" stroke="none" /><path d="M 24.77,12.75 L 24.70,12.75 L 23.79,13.22 L 23.79,16.72 L 23.86,16.72 L 24.77,16.25 Z" fill="#20310f" stroke="none" /><path d="M 18.07,12.58 L 18.00,12.58 L 17.09,13.06 L 17.09,15.41 L 18.07,14.94 Z" fill="#20310f" stroke="none" /><path d="M 26.68,10.63 L 26.62,10.63 L 25.71,11.10 L 25.71,13.43 L 25.77,13.43 L 26.68,12.95 Z" fill="#20310f" stroke="none" /><path d="M 19.99,10.53 L 19.01,11.00 L 19.01,22.65 L 19.99,22.17 L 19.99,14.00 L 20.05,13.93 L 20.93,13.49 L 20.93,12.32 L 20.05,12.75 L 19.99,12.72 Z" fill="#20310f" stroke="none" /><path d="M 26.68,7.20 L 26.62,7.20 L 25.71,7.67 L 25.71,8.75 L 26.68,8.28 Z" fill="#20310f" stroke="none" /><path d="M 16.15,29.95 L 15.18,30.42 L 15.18,31.53 L 15.24,31.53 L 16.15,31.06 Z" fill="#243711" stroke="none" /><path d="M 18.07,27.83 L 18.00,27.83 L 17.09,28.30 L 17.09,29.48 L 18.07,29.01 Z" fill="#243711" stroke="none" /><path d="M 19.92,22.17 L 19.01,22.65 L 19.01,27.32 L 19.08,27.32 L 19.95,26.89 L 19.99,26.92 L 19.99,28.03 L 20.90,27.59 L 20.93,27.63 L 20.93,28.67 L 20.96,28.67 L 22.85,27.73 L 22.85,25.44 L 22.78,25.44 L 21.87,25.91 L 21.87,27.05 L 21.80,27.12 L 21.00,27.52 L 20.93,27.49 L 20.93,26.38 L 20.05,26.82 L 19.99,26.78 L 19.99,22.17 Z" fill="#243711" stroke="none" /><path d="M 18.07,21.97 L 18.00,21.97 L 17.09,22.44 L 17.09,24.77 L 16.15,25.24 L 16.15,27.59 L 18.07,26.65 Z" fill="#243711" stroke="none" /><path d="M 16.15,21.74 L 15.18,22.21 L 15.18,23.39 L 15.24,23.39 L 16.15,22.91 Z" fill="#243711" stroke="none" /><path d="M 25.71,21.67 L 25.64,21.67 L 24.77,22.11 L 24.77,24.43 L 24.70,24.50 L 23.79,24.93 L 23.79,26.11 L 23.86,26.11 L 25.71,25.17 Z" fill="#243711" stroke="none" /><path d="M 21.80,21.23 L 20.93,21.67 L 20.93,24.03 L 21.00,24.03 L 21.84,23.59 L 21.87,23.62 L 21.87,24.73 L 21.91,24.73 L 22.85,24.26 L 22.85,23.08 L 21.91,23.55 L 21.87,23.52 L 21.87,21.23 Z" fill="#243711" stroke="none" /><path d="M 18.07,19.62 L 18.00,19.62 L 17.09,20.09 L 17.09,21.27 L 18.07,20.79 Z" fill="#243711" stroke="none" /><path d="M 25.71,19.31 L 25.64,19.31 L 24.77,19.75 L 24.77,20.93 L 24.83,20.93 L 25.71,20.49 Z" fill="#243711" stroke="none" /><path d="M 21.87,17.70 L 20.93,18.17 L 20.93,19.31 L 20.86,19.38 L 19.99,19.82 L 19.99,21.00 L 20.93,20.53 L 20.93,19.38 L 21.00,19.31 L 21.87,18.88 Z" fill="#243711" stroke="none" /><path d="M 18.07,17.26 L 17.09,17.73 L 17.09,18.91 L 17.16,18.91 L 18.07,18.44 Z" fill="#243711" stroke="none" /><path d="M 24.77,16.25 L 23.79,16.72 L 23.79,17.90 L 23.86,17.90 L 24.77,17.43 Z" fill="#243711" stroke="none" /><path d="M 20.93,13.49 L 19.99,13.96 L 19.99,15.11 L 20.05,15.11 L 20.93,14.67 Z" fill="#243711" stroke="none" /><path d="M 24.73,11.58 L 23.79,12.05 L 23.79,13.22 L 24.73,12.75 L 24.77,12.79 L 24.77,15.07 L 24.83,15.07 L 25.67,14.64 L 25.71,14.67 L 25.71,16.96 L 25.74,16.96 L 26.68,16.49 L 26.68,12.95 L 25.74,13.43 L 25.71,13.39 L 25.71,12.28 L 25.64,12.28 L 24.80,12.72 L 24.77,12.69 L 24.77,11.58 Z" fill="#243711" stroke="none" /><path d="M 18.07,11.51 L 18.00,11.51 L 17.09,11.98 L 17.09,13.02 L 17.03,13.09 L 16.22,13.49 L 16.15,13.46 L 16.15,12.45 L 15.18,12.92 L 15.18,14.00 L 15.24,14.00 L 16.08,13.56 L 16.15,13.59 L 16.15,15.85 L 16.08,15.92 L 15.18,16.35 L 15.18,18.71 L 16.15,18.24 L 16.15,17.06 L 16.19,17.03 L 18.07,16.08 L 18.07,14.94 L 18.00,14.94 L 17.16,15.38 L 17.09,15.34 L 17.09,13.09 L 17.16,13.02 L 18.07,12.58 Z" fill="#243711" stroke="none" /><path d="M 20.93,11.14 L 19.99,11.61 L 19.99,12.79 L 20.93,12.32 Z" fill="#243711" stroke="none" /><path d="M 22.85,9.12 L 22.78,9.12 L 21.87,9.59 L 21.87,14.17 L 21.94,14.17 L 22.85,13.70 Z" fill="#243711" stroke="none" /><path d="M 26.68,8.28 L 26.62,8.28 L 25.71,8.75 L 25.71,11.10 L 26.68,10.63 Z" fill="#243711" stroke="none" /><path d="M 24.77,8.14 L 23.79,8.61 L 23.79,9.69 L 23.86,9.69 L 24.77,9.22 Z" fill="#243711" stroke="none" /><path d="M 9.52,28.53 L 9.52,29.64 L 10.40,30.08 L 10.46,30.08 L 10.46,28.97 L 9.59,28.53 Z" fill="#253811" stroke="none" /><path d="M 13.36,25.74 L 13.36,27.83 L 14.23,27.39 L 14.27,27.42 L 14.27,28.53 L 13.36,28.97 L 13.36,31.56 L 14.17,31.97 L 14.30,32.00 L 14.30,26.21 Z" fill="#253811" stroke="none" /><path d="M 0.91,21.87 L 0.91,25.34 L 1.78,25.77 L 1.85,25.77 L 1.85,22.31 L 0.98,21.87 Z" fill="#253811" stroke="none" /><path d="M 4.74,21.43 L 4.74,27.26 L 5.62,27.69 L 5.69,27.69 L 5.69,21.91 Z" fill="#253811" stroke="none" /><path d="M 13.36,19.89 L 13.36,20.79 L 14.23,20.36 L 14.27,20.39 L 14.27,21.50 L 13.36,21.94 L 13.36,22.24 L 14.17,22.65 L 14.30,22.68 L 14.30,20.36 Z" fill="#253811" stroke="none" /><path d="M 13.36,17.53 L 13.36,18.71 L 14.30,19.18 L 14.30,18.00 Z" fill="#253811" stroke="none" /><path d="M 9.52,15.61 L 9.52,25.00 L 10.46,25.47 L 10.46,16.08 Z" fill="#253811" stroke="none" /><path d="M 13.36,15.21 L 13.36,16.08 L 13.43,16.08 L 14.20,15.68 L 14.27,15.71 L 14.27,16.82 L 14.30,16.82 L 14.30,15.65 L 13.43,15.21 Z" fill="#253811" stroke="none" /><path d="M 4.74,14.40 L 4.74,17.93 L 5.62,18.37 L 5.69,18.37 L 5.69,14.87 Z" fill="#253811" stroke="none" /><path d="M 13.36,12.95 L 13.36,14.03 L 14.17,14.44 L 14.30,14.47 L 14.30,13.39 L 13.43,12.95 Z" fill="#253811" stroke="none" /><path d="M 9.52,11.04 L 9.52,13.29 L 10.40,13.73 L 10.46,13.73 L 10.46,11.47 L 9.59,11.04 Z" fill="#253811" stroke="none" /><path d="M 4.74,10.90 L 4.74,13.22 L 5.69,13.70 L 5.69,11.34 L 4.81,10.90 Z" fill="#253811" stroke="none" /><path d="M 0.91,10.16 L 0.91,18.34 L 1.85,18.81 L 1.85,10.60 L 0.98,10.16 Z" fill="#253811" stroke="none" /><path d="M 0.91,6.73 L 0.91,7.81 L 1.78,8.24 L 1.85,8.24 L 1.85,7.17 L 0.98,6.73 Z" fill="#253811" stroke="none" /><path d="M 17.09,27.12 L 16.15,27.59 L 16.15,31.06 L 18.07,30.12 L 18.07,29.01 L 18.00,29.01 L 17.16,29.44 L 17.09,29.41 Z" fill="#273c14" stroke="none" /><path d="M 25.71,25.17 L 24.77,25.64 L 24.77,26.75 L 25.71,26.28 Z" fill="#273c14" stroke="none" /><path d="M 20.90,20.53 L 19.99,21.00 L 19.99,26.85 L 20.90,26.41 L 20.93,26.45 L 20.93,27.56 L 20.96,27.56 L 21.87,27.09 L 21.87,23.59 L 21.80,23.59 L 20.96,24.03 L 20.93,23.99 L 20.93,20.53 Z" fill="#273c14" stroke="none" /><path d="M 18.07,16.08 L 16.15,17.03 L 16.15,18.20 L 15.18,18.71 L 15.18,22.21 L 15.24,22.21 L 16.08,21.77 L 16.15,21.80 L 16.15,25.24 L 16.22,25.24 L 17.09,24.80 L 17.09,17.77 L 18.07,17.26 Z" fill="#273c14" stroke="none" /><path d="M 25.71,14.64 L 25.64,14.64 L 24.77,15.07 L 24.77,17.40 L 24.70,17.46 L 23.79,17.90 L 23.79,24.93 L 23.86,24.93 L 24.77,24.46 L 24.77,19.79 L 25.71,19.31 Z" fill="#273c14" stroke="none" /><path d="M 17.09,11.98 L 16.15,12.45 L 16.15,13.53 L 17.09,13.06 Z" fill="#273c14" stroke="none" /><path d="M 21.87,9.59 L 19.99,10.53 L 19.99,11.61 L 20.86,11.17 L 20.93,11.21 L 20.93,14.64 L 19.99,15.11 L 19.99,17.46 L 20.05,17.46 L 20.90,17.03 L 20.93,17.06 L 20.93,18.14 L 20.86,18.20 L 19.99,18.64 L 19.99,19.82 L 20.93,19.35 L 20.93,18.20 L 21.00,18.14 L 21.87,17.70 Z" fill="#273c14" stroke="none" /><path d="M 25.71,7.67 L 24.77,8.14 L 24.77,9.19 L 24.70,9.25 L 23.79,9.69 L 23.79,12.05 L 23.86,12.05 L 24.73,11.61 L 24.77,11.64 L 24.77,12.72 L 24.83,12.72 L 25.71,12.28 Z" fill="#273c14" stroke="none" /><path d="M 9.52,25.00 L 9.52,27.36 L 10.40,27.79 L 10.46,27.79 L 10.46,25.47 Z" fill="#2a4114" stroke="none" /><path d="M 13.36,22.24 L 13.36,24.56 L 14.30,25.03 L 14.30,22.68 L 13.43,22.24 Z" fill="#2a4114" stroke="none" /><path d="M 0.91,18.34 L 0.91,20.69 L 1.85,21.17 L 1.85,18.81 Z" fill="#2a4114" stroke="none" /><path d="M 4.74,17.93 L 4.74,20.26 L 5.69,20.73 L 5.69,18.37 L 4.81,17.93 Z" fill="#2a4114" stroke="none" /><path d="M 13.36,17.26 L 13.36,17.53 L 13.39,17.56 L 14.30,18.00 L 14.30,16.82 L 14.17,16.86 Z" fill="#2a4114" stroke="none" /><path d="M 4.74,13.22 L 4.74,14.40 L 5.69,14.87 L 5.69,13.70 Z" fill="#2a4114" stroke="none" /><path d="M 0.91,7.81 L 0.91,8.98 L 1.78,9.42 L 1.85,9.42 L 1.85,8.24 L 0.98,7.81 Z" fill="#2a4114" stroke="none" /><path d="M 9.52,13.29 L 9.52,14.47 L 10.40,14.91 L 10.46,14.91 L 10.46,13.73 L 9.59,13.29 Z" fill="#2f4816" stroke="none" /><path d="M 4.74,8.65 L 4.74,9.72 L 5.62,10.16 L 5.69,10.16 L 5.69,9.09 L 4.81,8.65 Z" fill="#2f4816" stroke="none" /><path d="M 10.46,29.01 L 10.46,30.12 L 11.44,30.59 L 11.44,29.48 L 10.53,29.01 Z" fill="#355018" stroke="none" /><path d="M 8.55,25.67 L 8.55,26.85 L 9.46,27.32 L 9.52,27.32 L 9.52,26.15 Z" fill="#355018" stroke="none" /><path d="M 5.69,25.44 L 5.69,27.73 L 7.60,28.67 L 7.60,27.56 L 6.73,27.12 L 6.66,27.05 L 6.66,25.91 L 5.75,25.44 Z" fill="#355018" stroke="none" /><path d="M 3.77,23.28 L 3.77,24.46 L 4.68,24.93 L 4.74,24.93 L 4.74,23.76 Z" fill="#355018" stroke="none" /><path d="M 12.38,21.74 L 12.38,25.20 L 12.35,25.24 L 11.51,24.80 L 11.44,24.80 L 11.44,25.98 L 12.38,26.45 L 12.38,31.06 L 13.29,31.53 L 13.36,31.53 L 13.36,29.01 L 13.32,28.97 L 13.32,27.86 L 13.36,27.83 L 13.36,22.21 Z" fill="#355018" stroke="none" /><path d="M 1.85,17.67 L 1.85,24.70 L 2.83,25.17 L 2.83,18.14 L 1.92,17.67 Z" fill="#355018" stroke="none" /><path d="M 3.77,17.43 L 3.77,18.61 L 4.68,19.08 L 4.74,19.08 L 4.74,17.90 Z" fill="#355018" stroke="none" /><path d="M 10.46,16.08 L 10.46,19.62 L 11.44,20.09 L 11.44,16.56 Z" fill="#355018" stroke="none" /><path d="M 12.38,15.88 L 12.38,18.24 L 13.36,18.71 L 13.36,17.30 L 13.32,17.26 L 13.32,16.35 Z" fill="#355018" stroke="none" /><path d="M 8.55,15.14 L 8.55,19.75 L 8.48,19.79 L 7.60,19.35 L 7.60,21.70 L 8.55,22.17 L 8.55,24.53 L 9.52,25.00 L 9.52,15.61 L 8.61,15.14 Z" fill="#355018" stroke="none" /><path d="M 3.77,15.11 L 3.77,16.25 L 4.68,16.72 L 4.74,16.72 L 4.74,15.58 L 3.84,15.11 Z" fill="#355018" stroke="none" /><path d="M 12.38,12.45 L 12.38,13.53 L 13.29,14.00 L 13.36,14.00 L 13.36,12.92 Z" fill="#355018" stroke="none" /><path d="M 3.77,9.22 L 3.77,11.58 L 4.68,12.05 L 4.74,12.05 L 4.74,9.69 Z" fill="#355018" stroke="none" /><path d="M 5.69,9.12 L 5.69,20.73 L 6.60,21.20 L 6.66,21.20 L 6.66,13.09 L 6.73,13.06 L 7.60,13.49 L 7.60,12.32 L 6.73,11.88 L 6.66,11.81 L 6.66,9.59 L 5.75,9.12 Z" fill="#355018" stroke="none" /><path d="M 1.85,8.28 L 1.85,10.63 L 2.83,11.10 L 2.83,8.75 L 1.92,8.28 Z" fill="#355018" stroke="none" /><path d="M 12.35,12.42 L 12.35,12.45 L 14.23,13.39 L 14.30,13.39 L 16.19,12.45 L 16.19,12.42 L 15.24,11.95 L 14.30,12.42 L 14.23,12.42 L 13.32,11.95 Z" fill="#38571a" stroke="none" /><path d="M 17.16,10.97 L 17.19,11.04 L 18.07,11.47 L 18.14,11.47 L 19.01,11.04 L 19.01,10.97 L 18.14,10.53 L 18.04,10.53 Z" fill="#38571a" stroke="none" /><path d="M 9.52,10.97 L 9.52,11.04 L 10.40,11.47 L 10.46,11.47 L 11.37,11.00 L 11.37,10.97 L 10.50,10.53 L 10.40,10.53 Z" fill="#38571a" stroke="none" /><path d="M 21.94,8.58 L 21.97,8.65 L 22.85,9.09 L 22.91,9.09 L 23.82,8.61 L 23.82,8.58 L 22.95,8.14 L 22.81,8.14 Z" fill="#38571a" stroke="none" /><path d="M 4.71,8.58 L 4.74,8.65 L 5.62,9.09 L 5.69,9.09 L 6.60,8.61 L 6.60,8.58 L 5.72,8.14 L 5.59,8.14 Z" fill="#38571a" stroke="none" /><path d="M 25.77,6.66 L 25.81,6.73 L 26.68,7.17 L 26.75,7.17 L 27.66,6.70 L 27.66,6.66 L 26.78,6.23 L 26.65,6.23 Z" fill="#38571a" stroke="none" /><path d="M 3.74,6.19 L 2.76,5.72 L 0.87,6.66 L 0.87,6.70 L 2.73,7.64 L 2.83,7.64 L 3.70,7.20 L 3.70,7.13 L 2.83,6.70 L 2.89,6.63 L 3.74,6.23 Z" fill="#38571a" stroke="none" /><path d="M 21.97,4.74 L 21.97,4.81 L 22.85,5.25 L 22.91,5.25 L 23.82,4.78 L 23.82,4.74 L 22.95,4.31 L 22.85,4.31 Z" fill="#38571a" stroke="none" /><path d="M 4.71,4.74 L 4.74,4.81 L 5.62,5.25 L 5.69,5.25 L 6.56,4.81 L 6.56,4.74 L 5.69,4.31 L 5.59,4.31 Z" fill="#38571a" stroke="none" /><path d="M 17.16,2.36 L 17.19,2.42 L 18.07,2.86 L 18.14,2.86 L 19.05,2.39 L 19.05,2.36 L 18.17,1.92 L 18.04,1.92 Z" fill="#38571a" stroke="none" /><path d="M 10.36,1.92 L 9.49,2.36 L 9.52,2.42 L 10.40,2.86 L 9.52,3.30 L 9.49,3.36 L 10.36,3.80 L 10.50,3.80 L 11.37,3.36 L 11.34,3.30 L 10.46,2.86 L 11.34,2.42 L 11.37,2.36 L 10.50,1.92 Z" fill="#38571a" stroke="none" /><path d="M 12.38,0.91 L 12.38,0.98 L 13.26,1.41 L 13.36,1.41 L 14.27,0.94 L 15.18,1.41 L 15.28,1.41 L 16.15,0.98 L 16.15,0.91 L 14.33,0.00 L 14.20,0.00 Z" fill="#38571a" stroke="none" /><path d="M 11.44,25.98 L 11.44,28.23 L 11.37,28.26 L 10.53,27.83 L 10.46,27.83 L 10.46,29.01 L 12.38,29.95 L 12.38,26.41 L 11.51,25.98 Z" fill="#3a5a1c" stroke="none" /><path d="M 1.85,24.70 L 1.85,25.81 L 2.83,26.28 L 2.83,25.17 L 1.92,24.70 Z" fill="#3a5a1c" stroke="none" /><path d="M 3.77,24.46 L 3.77,25.64 L 4.68,26.11 L 4.74,26.11 L 4.74,24.93 Z" fill="#3a5a1c" stroke="none" /><path d="M 11.44,23.62 L 11.44,24.80 L 12.32,25.24 L 12.38,25.24 L 12.38,24.06 L 11.51,23.62 Z" fill="#3a5a1c" stroke="none" /><path d="M 7.60,21.70 L 7.60,24.06 L 8.55,24.53 L 8.55,25.67 L 9.46,26.15 L 9.52,26.15 L 9.52,25.00 L 8.55,24.50 L 8.55,22.14 L 7.67,21.70 Z" fill="#3a5a1c" stroke="none" /><path d="M 5.69,20.73 L 5.69,25.44 L 6.60,25.88 L 6.66,25.94 L 6.66,27.09 L 7.54,27.52 L 7.60,27.59 L 7.60,28.67 L 9.46,29.61 L 9.52,29.61 L 9.52,27.32 L 8.55,26.85 L 8.55,27.96 L 8.51,28.00 L 7.67,27.59 L 7.60,27.52 L 7.60,26.38 L 6.73,25.94 L 6.66,25.88 L 6.66,21.20 Z" fill="#3a5a1c" stroke="none" /><path d="M 10.46,19.62 L 10.46,20.79 L 11.44,21.27 L 11.44,20.09 L 10.53,19.62 Z" fill="#3a5a1c" stroke="none" /><path d="M 3.77,18.61 L 3.77,20.90 L 3.74,20.93 L 2.89,20.49 L 2.83,20.49 L 2.83,22.81 L 4.68,23.76 L 4.74,23.76 L 4.74,19.08 Z" fill="#3a5a1c" stroke="none" /><path d="M 7.64,18.17 L 7.60,18.17 L 7.60,19.28 L 7.57,19.31 L 6.66,18.88 L 6.66,20.05 L 7.57,20.53 L 7.60,20.53 L 7.60,19.42 L 7.64,19.38 L 8.55,19.82 L 8.55,18.64 Z" fill="#3a5a1c" stroke="none" /><path d="M 1.85,16.49 L 1.85,17.67 L 2.83,18.14 L 2.83,16.96 L 1.92,16.49 Z" fill="#3a5a1c" stroke="none" /><path d="M 3.77,16.25 L 3.77,17.43 L 4.68,17.90 L 4.74,17.90 L 4.74,16.72 Z" fill="#3a5a1c" stroke="none" /><path d="M 10.46,14.94 L 10.46,16.08 L 11.44,16.59 L 11.44,18.94 L 12.38,19.42 L 12.38,21.74 L 13.29,22.21 L 13.36,22.21 L 13.36,21.97 L 13.32,21.94 L 13.32,20.83 L 13.36,20.79 L 13.36,18.71 L 12.38,18.20 L 12.38,17.03 L 11.44,16.56 L 11.44,15.41 L 10.53,14.94 Z" fill="#3a5a1c" stroke="none" /><path d="M 3.77,13.93 L 3.77,15.11 L 4.74,15.58 L 4.74,14.40 L 3.84,13.93 Z" fill="#3a5a1c" stroke="none" /><path d="M 12.38,13.53 L 12.38,15.88 L 13.32,16.35 L 13.32,16.15 L 13.36,16.12 L 13.36,14.00 Z" fill="#3a5a1c" stroke="none" /><path d="M 6.66,13.02 L 6.66,14.20 L 7.54,14.64 L 7.60,14.64 L 7.60,13.49 Z" fill="#3a5a1c" stroke="none" /><path d="M 10.46,11.51 L 10.46,12.58 L 11.44,13.06 L 11.44,11.98 L 10.53,11.51 Z" fill="#3a5a1c" stroke="none" /><path d="M 6.66,10.67 L 6.66,11.84 L 7.60,12.32 L 7.60,11.14 Z" fill="#3a5a1c" stroke="none" /><path d="M 8.55,10.53 L 8.55,15.14 L 9.52,15.61 L 9.52,11.00 Z" fill="#3a5a1c" stroke="none" /><path d="M 1.85,7.20 L 1.85,8.28 L 2.76,8.72 L 2.83,8.78 L 2.83,11.04 L 2.76,11.07 L 1.92,10.63 L 1.85,10.63 L 1.85,12.95 L 2.76,13.43 L 2.83,13.43 L 2.83,12.32 L 2.86,12.28 L 4.74,13.22 L 4.74,12.05 L 3.84,11.61 L 3.77,11.54 L 3.77,9.29 L 3.84,9.25 L 4.68,9.69 L 4.74,9.69 L 4.74,8.61 L 3.77,8.14 L 3.77,9.15 L 3.70,9.19 L 2.89,8.78 L 2.83,8.72 L 2.83,7.67 L 1.92,7.20 Z" fill="#3a5a1c" stroke="none" /><path d="M 5.69,5.22 L 5.69,5.28 L 6.56,5.72 L 6.66,5.72 L 7.54,5.28 L 7.50,5.22 L 6.63,4.78 L 6.56,4.78 Z" fill="#40631e" stroke="none" /><path d="M 11.44,29.48 L 11.44,30.59 L 12.38,31.06 L 12.38,29.95 Z" fill="#406120" stroke="none" /><path d="M 2.83,22.81 L 2.83,26.28 L 4.68,27.22 L 4.74,27.22 L 4.74,26.11 L 3.84,25.67 L 3.77,25.61 L 3.77,23.28 Z" fill="#406120" stroke="none" /><path d="M 6.66,20.05 L 6.66,25.91 L 7.54,26.35 L 7.60,26.41 L 7.60,27.56 L 8.55,28.03 L 8.55,24.50 L 7.60,24.03 L 7.60,20.53 Z" fill="#406120" stroke="none" /><path d="M 11.51,18.94 L 11.44,18.94 L 11.44,21.20 L 11.37,21.23 L 10.53,20.79 L 10.46,20.79 L 10.46,27.83 L 11.41,28.30 L 11.44,28.30 L 11.44,23.66 L 11.47,23.62 L 12.32,24.06 L 12.38,24.06 L 12.38,19.38 Z" fill="#406120" stroke="none" /><path d="M 2.83,12.28 L 2.83,13.39 L 2.79,13.43 L 1.85,12.95 L 1.85,16.49 L 2.76,16.93 L 2.83,16.99 L 2.83,20.49 L 3.70,20.93 L 3.77,20.93 L 3.77,13.96 L 3.80,13.93 L 4.74,14.40 L 4.74,13.22 L 2.89,12.28 Z" fill="#406120" stroke="none" /><path d="M 11.44,11.98 L 11.44,12.99 L 11.41,13.02 L 10.53,12.58 L 10.46,12.58 L 10.46,14.94 L 11.37,15.38 L 11.44,15.44 L 11.44,16.59 L 12.32,17.03 L 12.38,17.03 L 12.38,12.45 Z" fill="#406120" stroke="none" /><path d="M 6.66,9.59 L 6.66,10.67 L 7.54,11.10 L 7.60,11.17 L 7.60,14.60 L 7.57,14.64 L 6.73,14.20 L 6.66,14.20 L 6.66,16.56 L 7.60,17.03 L 7.60,18.10 L 7.54,18.14 L 6.66,17.70 L 6.66,18.88 L 7.60,19.35 L 7.60,18.24 L 7.64,18.20 L 8.55,18.64 L 8.55,10.53 Z" fill="#406120" stroke="none" /><path d="M 2.83,7.67 L 2.83,8.75 L 3.77,9.22 L 3.77,8.14 Z" fill="#406120" stroke="none" /><path d="M 18.07,11.44 L 17.19,11.00 L 17.09,11.00 L 15.28,11.91 L 15.24,11.98 L 16.12,12.42 L 16.25,12.42 L 18.07,11.51 Z" fill="#416420" stroke="none" /><path d="M 10.46,11.44 L 10.46,11.51 L 12.28,12.42 L 12.42,12.42 L 13.29,11.98 L 13.26,11.91 L 11.44,11.00 L 11.34,11.00 Z" fill="#416420" stroke="none" /><path d="M 18.10,10.50 L 18.14,10.57 L 19.01,11.00 L 19.08,11.00 L 19.99,10.53 L 19.99,10.50 L 19.11,10.06 L 18.98,10.06 Z" fill="#416420" stroke="none" /><path d="M 15.24,10.03 L 15.24,10.06 L 16.12,10.50 L 16.25,10.50 L 17.13,10.06 L 17.13,10.03 L 16.19,9.56 Z" fill="#416420" stroke="none" /><path d="M 5.69,9.05 L 5.69,9.12 L 9.46,11.00 L 9.52,11.00 L 10.43,10.53 L 10.43,10.50 L 6.66,8.61 L 6.56,8.61 Z" fill="#416420" stroke="none" /><path d="M 2.79,7.64 L 2.79,7.67 L 4.68,8.61 L 5.65,8.14 L 5.65,8.11 L 3.77,7.17 L 3.70,7.17 Z" fill="#416420" stroke="none" /><path d="M 6.63,5.72 L 6.63,5.75 L 7.50,6.19 L 7.64,6.19 L 8.51,5.75 L 8.51,5.72 L 7.57,5.25 Z" fill="#416420" stroke="none" /><path d="M 26.72,6.19 L 23.89,4.78 L 23.79,4.78 L 22.91,5.22 L 22.91,5.28 L 25.64,6.63 L 25.71,6.70 L 22.91,8.11 L 22.85,8.11 L 21.00,7.17 L 20.93,7.17 L 20.05,7.60 L 20.02,7.67 L 21.80,8.55 L 21.87,8.61 L 20.05,9.52 L 20.02,9.59 L 20.90,10.03 L 21.03,10.03 L 22.85,9.12 L 22.85,9.05 L 22.01,8.65 L 21.97,8.61 L 22.04,8.55 L 22.85,8.14 L 22.91,8.14 L 23.86,8.61 L 26.68,7.20 L 26.68,7.13 L 25.81,6.70 L 25.88,6.63 L 26.72,6.23 Z" fill="#416420" stroke="none" /><path d="M 5.62,5.22 L 4.74,4.78 L 4.64,4.78 L 2.83,5.69 L 2.79,5.75 L 3.67,6.19 L 3.80,6.19 L 5.62,5.28 Z" fill="#416420" stroke="none" /><path d="M 18.14,2.83 L 18.14,2.89 L 21.87,4.74 L 21.91,4.78 L 21.87,4.81 L 21.03,5.22 L 21.00,5.28 L 21.87,5.72 L 21.97,5.72 L 22.85,5.28 L 22.85,5.22 L 21.97,4.78 L 22.85,4.34 L 22.88,4.27 L 19.11,2.39 L 19.01,2.39 Z" fill="#416420" stroke="none" /><path d="M 10.40,2.83 L 9.52,2.39 L 9.42,2.39 L 5.65,4.27 L 5.65,4.31 L 6.56,4.78 L 6.63,4.78 L 10.40,2.89 Z" fill="#416420" stroke="none" /><path d="M 15.24,1.41 L 15.24,1.45 L 17.13,2.39 L 18.10,1.92 L 18.10,1.88 L 16.22,0.94 L 16.15,0.94 Z" fill="#416420" stroke="none" /><path d="M 13.29,1.41 L 12.38,0.94 L 12.32,0.94 L 10.43,1.88 L 10.43,1.92 L 11.27,2.32 L 11.34,2.39 L 10.46,2.83 L 10.46,2.89 L 11.34,3.33 L 11.44,3.33 L 12.32,2.89 L 12.32,2.83 L 11.44,2.39 L 11.51,2.32 L 13.29,1.45 Z" fill="#416420" stroke="none" /><path d="M 14.30,9.52 L 14.30,9.59 L 15.18,10.03 L 15.28,10.03 L 16.15,9.59 L 16.12,9.52 L 15.24,9.09 L 15.18,9.09 Z" fill="#517c26" stroke="none" /><path d="M 19.08,7.13 L 19.08,7.20 L 19.95,7.64 L 20.05,7.64 L 20.93,7.20 L 20.93,7.13 L 20.05,6.70 L 19.95,6.70 Z" fill="#517c26" stroke="none" /><path d="M 20.02,5.72 L 20.02,5.75 L 20.90,6.19 L 21.03,6.19 L 21.87,5.75 L 21.97,5.75 L 23.72,6.63 L 23.79,6.70 L 23.76,6.73 L 21.94,7.64 L 21.94,7.67 L 22.81,8.11 L 22.95,8.11 L 25.74,6.70 L 25.74,6.66 L 22.91,5.25 L 22.85,5.25 L 21.94,5.72 L 20.96,5.25 Z" fill="#517c26" stroke="none" /><path d="M 14.27,5.72 L 14.27,5.75 L 16.15,6.70 L 16.22,6.70 L 18.10,5.75 L 18.10,5.72 L 17.16,5.25 L 16.22,5.72 L 16.15,5.72 L 15.24,5.25 Z" fill="#517c26" stroke="none" /><path d="M 2.79,6.66 L 2.83,6.73 L 14.20,12.42 L 14.33,12.42 L 21.91,8.61 L 21.91,8.58 L 21.03,8.14 L 20.90,8.14 L 14.27,11.47 L 12.42,10.53 L 12.45,10.46 L 14.23,9.59 L 14.23,9.52 L 13.36,9.09 L 13.29,9.09 L 11.44,10.03 L 11.37,10.03 L 7.64,8.14 L 7.67,8.08 L 8.48,7.67 L 8.58,7.67 L 9.42,8.11 L 9.56,8.11 L 10.43,7.67 L 10.40,7.60 L 8.58,6.70 L 8.65,6.63 L 9.46,6.23 L 9.46,6.19 L 8.58,5.75 L 8.45,5.75 L 7.57,6.19 L 7.57,6.23 L 8.41,6.63 L 8.48,6.70 L 8.45,6.73 L 6.63,7.64 L 4.74,6.70 L 4.81,6.63 L 6.60,5.75 L 6.56,5.69 L 5.69,5.25 L 5.62,5.25 Z" fill="#517c26" stroke="none" /><path d="M 10.43,3.80 L 9.46,3.33 L 6.63,4.74 L 6.63,4.81 L 7.50,5.25 L 7.60,5.25 L 10.43,3.84 Z" fill="#517c26" stroke="none" /><path d="M 11.41,2.36 L 11.44,2.42 L 12.32,2.86 L 11.44,3.30 L 11.41,3.36 L 13.29,4.31 L 14.27,3.84 L 14.27,3.80 L 12.38,2.86 L 14.23,1.92 L 14.30,1.92 L 16.12,2.83 L 16.15,2.86 L 16.12,2.89 L 15.24,3.33 L 15.24,3.36 L 16.12,3.80 L 16.25,3.80 L 17.09,3.36 L 17.19,3.36 L 19.99,4.78 L 20.05,4.78 L 20.96,4.31 L 20.96,4.27 L 14.30,0.94 L 14.23,0.94 Z" fill="#517c26" stroke="none" /><path d="M 12.35,10.50 L 12.35,10.53 L 14.23,11.47 L 14.30,11.47 L 16.19,10.53 L 16.19,10.50 L 15.24,10.03 L 14.30,10.50 L 14.23,10.50 L 13.32,10.03 Z" fill="#5a8a2a" stroke="none" /><path d="M 14.30,8.58 L 14.30,8.65 L 17.06,10.03 L 17.19,10.03 L 18.07,9.59 L 18.04,9.52 L 15.28,8.14 L 15.18,8.14 Z" fill="#5a8a2a" stroke="none" /><path d="M 14.23,8.58 L 13.36,8.14 L 13.26,8.14 L 10.50,9.52 L 10.46,9.59 L 11.34,10.03 L 11.47,10.03 L 14.23,8.65 Z" fill="#5a8a2a" stroke="none" /><path d="M 8.55,8.58 L 8.58,8.65 L 9.46,9.09 L 9.52,9.09 L 10.43,8.61 L 10.43,8.58 L 9.56,8.14 L 9.42,8.14 Z" fill="#5a8a2a" stroke="none" /><path d="M 5.65,6.19 L 5.65,6.23 L 6.49,6.63 L 6.56,6.70 L 5.69,7.13 L 5.69,7.20 L 6.56,7.64 L 6.66,7.64 L 8.51,6.70 L 10.40,7.64 L 10.50,7.64 L 11.34,7.20 L 11.44,7.20 L 12.28,7.64 L 12.42,7.64 L 13.29,7.20 L 13.26,7.13 L 12.38,6.70 L 12.32,6.70 L 11.37,7.17 L 9.52,6.23 L 9.42,6.23 L 8.58,6.66 L 8.48,6.66 L 6.63,5.72 Z" fill="#5a8a2a" stroke="none" /><path d="M 23.82,6.66 L 21.94,5.72 L 21.00,6.19 L 20.93,6.19 L 20.12,5.79 L 20.09,5.72 L 20.96,5.28 L 20.96,5.25 L 20.05,4.78 L 19.99,4.78 L 19.08,5.25 L 19.08,5.28 L 19.92,5.69 L 19.95,5.72 L 19.92,5.79 L 19.11,6.19 L 19.01,6.19 L 18.17,5.75 L 18.04,5.75 L 16.22,6.66 L 16.22,6.73 L 17.09,7.17 L 17.03,7.23 L 16.19,7.64 L 16.19,7.67 L 17.06,8.11 L 17.19,8.11 L 18.04,7.67 L 18.14,7.67 L 18.94,8.08 L 18.98,8.14 L 18.10,8.58 L 18.10,8.61 L 19.01,9.09 L 19.08,9.09 L 20.96,8.14 L 20.96,8.11 L 19.08,7.17 L 19.01,7.17 L 18.07,7.64 L 17.26,7.23 L 17.19,7.17 L 17.23,7.13 L 19.05,6.23 L 19.99,6.70 L 20.93,6.23 L 21.00,6.23 L 22.85,7.17 L 22.91,7.17 L 23.79,6.73 Z" fill="#5a8a2a" stroke="none" /><path d="M 7.57,5.25 L 7.57,5.28 L 8.45,5.72 L 8.58,5.72 L 10.43,4.78 L 12.28,5.72 L 12.42,5.72 L 13.29,5.28 L 13.26,5.22 L 12.38,4.78 L 13.26,4.34 L 13.29,4.27 L 12.42,3.84 L 12.28,3.84 L 11.44,4.27 L 11.34,4.27 L 10.50,3.84 L 10.36,3.84 Z" fill="#5a8a2a" stroke="none" /><path d="M 12.38,2.83 L 12.38,2.89 L 13.26,3.33 L 13.36,3.33 L 14.27,2.86 L 15.14,3.30 L 15.18,3.33 L 15.11,3.40 L 14.27,3.80 L 14.27,3.84 L 15.21,4.31 L 16.15,3.84 L 16.22,3.84 L 17.13,4.31 L 18.10,3.84 L 18.10,3.80 L 17.16,3.33 L 16.22,3.80 L 16.15,3.80 L 15.34,3.40 L 15.28,3.33 L 15.31,3.30 L 16.15,2.89 L 16.15,2.83 L 14.33,1.92 L 14.20,1.92 Z" fill="#5a8a2a" stroke="none" /><path d="M 15.18,26.92 L 14.23,27.39 L 14.23,28.53 L 14.37,28.50 L 15.18,28.10 Z" fill="#3f422b" stroke="none" /><path d="M 19.01,22.65 L 18.07,23.12 L 18.07,24.29 L 19.01,23.82 Z" fill="#3f422b" stroke="none" /><path d="M 27.63,18.34 L 26.68,18.81 L 26.68,19.99 L 27.63,19.52 Z" fill="#3f422b" stroke="none" /><path d="M 15.18,15.21 L 15.11,15.21 L 14.23,15.65 L 14.23,16.82 L 14.37,16.79 L 15.18,16.39 Z" fill="#3f422b" stroke="none" /><path d="M 23.79,12.08 L 23.72,12.08 L 22.85,12.52 L 22.85,13.70 L 23.79,13.22 Z" fill="#3f422b" stroke="none" /><path d="M 13.32,10.03 L 13.32,10.06 L 14.20,10.50 L 14.33,10.50 L 15.21,10.06 L 15.18,9.99 L 14.30,9.56 L 14.23,9.56 Z" fill="#639631" stroke="none" /><path d="M 8.51,5.72 L 8.51,5.75 L 10.40,6.70 L 10.46,6.70 L 11.41,6.23 L 13.26,7.17 L 13.19,7.23 L 12.38,7.64 L 12.32,7.64 L 11.37,7.17 L 9.49,8.11 L 9.49,8.14 L 10.33,8.55 L 10.40,8.61 L 9.52,9.05 L 9.52,9.12 L 10.40,9.56 L 10.50,9.56 L 13.29,8.14 L 14.23,8.61 L 14.30,8.61 L 15.24,8.14 L 18.04,9.56 L 18.14,9.56 L 19.01,9.12 L 19.01,9.05 L 16.29,7.71 L 16.25,7.67 L 16.29,7.60 L 17.09,7.20 L 17.19,7.20 L 18.04,7.64 L 18.14,7.64 L 19.99,6.70 L 20.93,7.17 L 21.00,7.17 L 21.91,6.70 L 21.91,6.66 L 21.03,6.23 L 20.90,6.23 L 20.05,6.66 L 19.95,6.66 L 19.11,6.23 L 19.18,6.16 L 20.02,5.75 L 20.02,5.72 L 19.18,5.32 L 19.11,5.25 L 19.99,4.81 L 19.99,4.74 L 18.17,3.84 L 18.04,3.84 L 17.19,4.27 L 17.09,4.27 L 16.25,3.84 L 16.12,3.84 L 15.28,4.27 L 15.18,4.27 L 14.37,3.87 L 14.33,3.80 L 15.21,3.36 L 15.21,3.33 L 14.30,2.86 L 14.23,2.86 L 13.32,3.33 L 13.32,3.36 L 14.17,3.77 L 14.20,3.84 L 12.38,4.74 L 12.38,4.81 L 13.26,5.25 L 13.19,5.32 L 12.38,5.72 L 12.32,5.72 L 10.46,4.78 L 10.40,4.78 Z" fill="#639631" stroke="none" /><path d="M 14.23,27.39 L 13.32,27.83 L 13.32,29.01 L 14.23,28.57 Z" fill="#4a4b3b" stroke="none" /><path d="M 23.79,24.97 L 23.72,24.97 L 22.85,25.40 L 22.85,26.58 L 22.91,26.58 L 23.79,26.15 Z" fill="#4a4b3b" stroke="none" /><path d="M 14.23,20.36 L 13.32,20.79 L 13.32,21.97 L 14.23,21.54 Z" fill="#4a4b3b" stroke="none" /><path d="M 28.53,17.90 L 28.47,17.90 L 27.63,18.34 L 27.63,19.52 L 28.53,19.08 Z" fill="#4a4b3b" stroke="none" /><path d="M 20.93,17.03 L 20.86,17.03 L 19.99,17.46 L 19.99,18.64 L 20.93,18.17 Z" fill="#4a4b3b" stroke="none" /><path d="M 14.23,15.68 L 14.17,15.68 L 13.32,16.12 L 13.32,17.30 L 14.23,16.86 Z" fill="#4a4b3b" stroke="none" /><path d="M 27.63,12.48 L 26.68,12.95 L 26.68,14.13 L 27.63,13.66 Z" fill="#4a4b3b" stroke="none" /><path d="M 19.01,12.11 L 18.94,12.11 L 18.07,12.55 L 18.07,13.73 L 18.14,13.73 L 19.01,13.29 Z" fill="#4a4b3b" stroke="none" /><path d="M 27.63,7.81 L 27.56,7.81 L 26.68,8.24 L 26.68,9.42 L 26.75,9.42 L 27.63,8.98 Z" fill="#4a4b3b" stroke="none" /><path d="M 13.36,24.56 L 13.36,25.74 L 14.30,26.21 L 14.30,25.03 Z" fill="#666b46" stroke="none" /><path d="M 0.91,20.69 L 0.91,21.87 L 1.78,22.31 L 1.85,22.31 L 1.85,21.17 Z" fill="#666b46" stroke="none" /><path d="M 4.74,20.26 L 4.74,21.43 L 5.69,21.91 L 5.69,20.73 Z" fill="#666b46" stroke="none" /><path d="M 9.52,14.47 L 9.52,15.61 L 10.46,16.08 L 10.46,14.91 L 9.59,14.47 Z" fill="#666b46" stroke="none" /><path d="M 0.91,8.98 L 0.91,10.16 L 1.78,10.60 L 1.85,10.60 L 1.85,9.42 L 0.98,8.98 Z" fill="#666b46" stroke="none" /><path d="M 9.52,27.36 L 9.52,28.53 L 10.40,28.97 L 10.46,28.97 L 10.46,27.79 L 9.59,27.36 Z" fill="#777a60" stroke="none" /><path d="M 14.30,25.03 L 14.30,26.21 L 15.14,26.65 L 15.21,26.65 L 15.21,25.47 Z" fill="#777a60" stroke="none" /><path d="M 0.00,20.26 L 0.00,21.40 L 0.84,21.84 L 0.91,21.84 L 0.91,20.69 L 0.07,20.26 Z" fill="#777a60" stroke="none" /><path d="M 13.36,18.71 L 13.36,19.89 L 14.30,20.36 L 14.30,19.18 Z" fill="#777a60" stroke="none" /><path d="M 6.66,16.56 L 6.66,17.70 L 7.60,18.17 L 7.60,16.99 L 6.73,16.56 Z" fill="#777a60" stroke="none" /><path d="M 13.36,14.03 L 13.36,15.21 L 14.17,15.61 L 14.30,15.65 L 14.30,14.47 L 13.43,14.03 Z" fill="#777a60" stroke="none" /><path d="M 0.00,13.22 L 0.00,14.37 L 0.84,14.81 L 0.91,14.81 L 0.91,13.66 L 0.07,13.22 Z" fill="#777a60" stroke="none" /><path d="M 4.74,9.72 L 4.74,10.90 L 5.62,11.34 L 5.69,11.34 L 5.69,10.16 L 4.81,9.72 Z" fill="#777a60" stroke="none" /><path d="M 0.00,8.51 L 0.00,9.69 L 0.84,10.13 L 0.91,10.13 L 0.91,8.95 Z" fill="#777a60" stroke="none" /><path d="M 19.05,10.03 L 19.05,10.06 L 19.99,10.53 L 20.96,10.06 L 20.96,10.03 L 20.02,9.56 Z" fill="#9da56c" stroke="none" /><path d="M 7.57,8.11 L 7.57,8.14 L 8.51,8.61 L 9.49,8.14 L 9.49,8.11 L 8.55,7.64 Z" fill="#9da56c" stroke="none" /><path d="M 21.00,7.13 L 21.00,7.20 L 21.87,7.64 L 21.97,7.64 L 22.85,7.20 L 22.85,7.13 L 21.97,6.70 L 21.87,6.70 Z" fill="#9da56c" stroke="none" /><path d="M 4.71,6.66 L 4.74,6.73 L 5.62,7.17 L 5.69,7.17 L 6.60,6.70 L 6.60,6.66 L 5.72,6.23 L 5.59,6.23 Z" fill="#9da56c" stroke="none" /><path d="M 20.05,4.74 L 20.05,4.81 L 20.93,5.25 L 21.03,5.25 L 21.91,4.81 L 21.91,4.74 L 21.03,4.31 L 20.93,4.31 Z" fill="#9da56c" stroke="none" /><path d="M 10.43,3.80 L 10.43,3.84 L 11.37,4.31 L 12.35,3.84 L 12.35,3.80 L 11.41,3.33 Z" fill="#9da56c" stroke="none" /><path d="M 13.36,9.05 L 13.36,9.12 L 14.23,9.56 L 14.30,9.56 L 15.18,9.12 L 15.18,9.05 L 14.30,8.61 L 14.23,8.61 Z" fill="#b8bd93" stroke="none" /><path d="M 17.13,8.11 L 17.13,8.14 L 18.07,8.61 L 19.05,8.14 L 19.05,8.11 L 18.10,7.64 Z" fill="#b8bd93" stroke="none" /><path d="M 10.46,6.66 L 10.46,6.73 L 11.34,7.17 L 11.44,7.17 L 12.32,6.73 L 12.32,6.66 L 11.44,6.23 L 11.34,6.23 Z" fill="#b8bd93" stroke="none" /><path d="M 15.24,5.25 L 15.24,5.28 L 16.12,5.72 L 16.25,5.72 L 17.13,5.28 L 17.09,5.22 L 16.22,4.78 L 16.15,4.78 Z" fill="#b8bd93" stroke="none" /></svg>