<svg height="32" width="32" viewBox="0 0 32 32"><defs /><path d="M 22.49,16.94 L 21.59,17.37 L 21.59,18.48 L 21.66,18.48 L 22.49,18.04 Z" fill="#451413" stroke="none" /><path d="M 21.59,25.10 L 20.69,25.54 L 20.69,26.64 L 20.75,26.64 L 21.59,26.21 Z" fill="#121a17" stroke="none" /><path d="M 23.40,24.20 L 22.49,24.64 L 22.49,25.74 L 22.56,25.74 L 23.40,25.31 Z" fill="#121a17" stroke="none" /><path d="M 17.97,22.53 L 17.91,22.53 L 17.10,22.93 L 17.10,24.03 L 17.17,24.03 L 17.97,23.63 Z" fill="#121a17" stroke="none" /><path d="M 17.97,20.32 L 17.91,20.32 L 17.10,20.72 L 17.10,21.82 L 17.17,21.82 L 17.97,21.42 Z" fill="#121a17" stroke="none" /><path d="M 26.98,18.01 L 26.08,18.44 L 26.08,19.55 L 26.14,19.55 L 26.98,19.11 Z" fill="#121a17" stroke="none" /><path d="M 26.98,15.80 L 26.08,16.23 L 26.08,17.34 L 26.14,17.34 L 26.98,16.90 Z" fill="#121a17" stroke="none" /><path d="M 21.59,14.09 L 20.69,14.53 L 20.69,15.63 L 20.75,15.63 L 21.59,15.20 Z" fill="#121a17" stroke="none" /><path d="M 23.40,13.19 L 22.49,13.62 L 22.49,14.73 L 22.56,14.73 L 23.40,14.29 Z" fill="#121a17" stroke="none" /><path d="M 17.97,21.42 L 17.91,21.42 L 17.10,21.82 L 17.10,22.93 L 17.17,22.93 L 17.97,22.53 Z" fill="#141e19" stroke="none" /><path d="M 22.49,13.66 L 22.43,13.66 L 21.59,14.09 L 21.59,15.20 L 22.49,14.76 Z" fill="#15201b" stroke="none" /><path d="M 24.30,18.24 L 23.40,18.68 L 23.40,19.78 L 23.46,19.78 L 24.30,19.35 Z" fill="#6d1f1d" stroke="none" /><path d="M 22.49,24.67 L 22.43,24.67 L 21.59,25.10 L 21.59,26.21 L 22.49,25.77 Z" fill="#1a2521" stroke="none" /><path d="M 26.98,16.90 L 26.08,17.34 L 26.08,18.44 L 26.14,18.44 L 26.98,18.01 Z" fill="#1a2521" stroke="none" /><path d="M 22.49,21.36 L 21.59,21.79 L 21.59,22.90 L 22.49,22.46 Z" fill="#344821" stroke="none" /><path d="M 20.69,20.05 L 19.78,20.49 L 19.78,21.59 L 19.85,21.59 L 20.69,21.15 Z" fill="#674821" stroke="none" /><path d="M 17.97,23.60 L 17.97,24.70 L 18.85,24.27 L 18.88,24.30 L 18.88,25.34 L 18.95,25.34 L 19.72,24.94 L 19.78,24.97 L 19.78,26.01 L 20.69,25.57 L 20.69,24.47 L 20.62,24.47 L 19.82,24.87 L 19.78,24.84 L 19.78,23.80 L 18.91,24.23 L 18.88,24.20 L 18.88,23.16 Z" fill="#252d29" stroke="none" /><path d="M 26.08,19.58 L 26.01,19.58 L 25.17,20.02 L 25.17,21.09 L 24.30,21.52 L 24.30,22.63 L 23.40,23.10 L 23.40,24.20 L 24.30,23.77 L 24.30,22.66 L 25.17,22.23 L 25.17,21.12 L 26.08,20.65 Z" fill="#252d29" stroke="none" /><path d="M 20.69,15.67 L 20.62,15.67 L 19.78,16.10 L 19.78,17.17 L 18.88,17.64 L 18.88,18.71 L 18.81,18.78 L 17.97,19.18 L 17.97,20.28 L 18.04,20.28 L 18.88,19.85 L 18.88,18.78 L 18.95,18.71 L 19.78,18.31 L 19.78,17.21 L 20.69,16.74 Z" fill="#252d29" stroke="none" /><path d="M 23.40,14.29 L 23.40,15.36 L 23.46,15.36 L 24.27,14.96 L 24.30,15.00 L 24.30,16.03 L 25.10,15.63 L 25.17,15.67 L 25.17,16.70 L 26.08,16.27 L 26.08,15.16 L 26.01,15.16 L 25.21,15.56 L 25.17,15.53 L 25.17,14.49 L 24.33,14.90 L 24.30,14.86 L 24.30,13.86 L 24.23,13.86 Z" fill="#252d29" stroke="none" /><path d="M 7.20,25.10 L 7.20,26.21 L 8.03,26.64 L 8.10,26.64 L 8.10,25.54 Z" fill="#22312a" stroke="none" /><path d="M 5.39,24.20 L 5.39,25.31 L 6.23,25.74 L 6.29,25.74 L 6.29,24.64 Z" fill="#22312a" stroke="none" /><path d="M 10.81,22.53 L 10.81,23.63 L 11.62,24.03 L 11.68,24.03 L 11.68,22.93 L 10.88,22.53 Z" fill="#22312a" stroke="none" /><path d="M 10.81,20.32 L 10.81,21.42 L 11.62,21.82 L 11.68,21.82 L 11.68,20.72 L 10.88,20.32 Z" fill="#22312a" stroke="none" /><path d="M 1.81,18.01 L 1.81,19.11 L 2.64,19.55 L 2.71,19.55 L 2.71,18.44 Z" fill="#22312a" stroke="none" /><path d="M 1.81,15.80 L 1.81,16.90 L 2.64,17.34 L 2.71,17.34 L 2.71,16.23 Z" fill="#22312a" stroke="none" /><path d="M 7.20,14.09 L 7.20,15.20 L 8.03,15.63 L 8.10,15.63 L 8.10,14.53 Z" fill="#22312a" stroke="none" /><path d="M 5.39,13.19 L 5.39,14.29 L 6.23,14.73 L 6.29,14.73 L 6.29,13.62 Z" fill="#22312a" stroke="none" /><path d="M 16.20,9.87 L 16.20,9.91 L 17.07,10.34 L 17.97,9.91 L 17.94,9.84 L 17.14,9.44 L 17.04,9.44 Z" fill="#22312a" stroke="none" /><path d="M 9.00,9.87 L 9.00,9.91 L 9.87,10.34 L 10.78,9.91 L 10.74,9.84 L 9.94,9.44 L 9.84,9.44 Z" fill="#22312a" stroke="none" /><path d="M 18.01,8.97 L 18.01,9.00 L 18.88,9.44 L 19.78,9.00 L 19.78,8.97 L 18.91,8.54 L 18.85,8.54 Z" fill="#22312a" stroke="none" /><path d="M 7.20,8.97 L 7.20,9.00 L 8.07,9.44 L 8.13,9.44 L 9.00,9.00 L 9.00,8.97 L 8.13,8.54 L 8.07,8.54 Z" fill="#22312a" stroke="none" /><path d="M 18.01,5.36 L 18.04,5.42 L 18.85,5.82 L 18.95,5.82 L 19.75,5.42 L 19.75,5.36 L 18.95,4.95 L 18.81,4.95 Z" fill="#22312a" stroke="none" /><path d="M 7.23,5.36 L 7.23,5.42 L 8.03,5.82 L 8.17,5.82 L 8.97,5.42 L 8.97,5.36 L 8.17,4.95 L 8.03,4.95 Z" fill="#22312a" stroke="none" /><path d="M 16.20,4.49 L 16.20,4.52 L 16.60,4.72 L 16.67,4.72 L 17.04,4.92 L 17.17,4.92 L 17.97,4.52 L 17.94,4.45 L 17.14,4.05 L 17.04,4.05 Z" fill="#22312a" stroke="none" /><path d="M 9.04,4.45 L 9.04,4.52 L 9.84,4.92 L 9.97,4.92 L 10.78,4.52 L 10.74,4.45 L 9.94,4.05 L 9.84,4.05 Z" fill="#22312a" stroke="none" /><path d="M 6.29,13.66 L 6.29,14.76 L 7.20,15.20 L 7.20,14.09 L 6.36,13.66 Z" fill="#26382f" stroke="none" /><path d="M 17.10,4.92 L 17.10,4.95 L 17.97,5.39 L 18.88,4.95 L 18.88,4.92 L 18.01,4.49 Z" fill="#26382f" stroke="none" /><path d="M 6.29,24.67 L 6.29,25.77 L 7.20,26.21 L 7.20,25.10 L 6.36,24.67 Z" fill="#31453d" stroke="none" /><path d="M 1.81,16.90 L 1.81,18.01 L 2.64,18.44 L 2.71,18.44 L 2.71,17.34 Z" fill="#31453d" stroke="none" /><path d="M 8.13,9.41 L 8.13,9.47 L 8.94,9.87 L 9.04,9.87 L 9.87,9.44 L 9.87,9.41 L 9.07,9.00 L 8.94,9.00 Z" fill="#31453d" stroke="none" /><path d="M 8.10,4.92 L 8.10,4.95 L 8.97,5.39 L 9.04,5.39 L 9.91,4.95 L 9.91,4.92 L 9.04,4.49 L 8.97,4.49 Z" fill="#31453d" stroke="none" /><path d="M 4.49,20.45 L 4.49,21.56 L 5.39,21.99 L 5.39,20.89 Z" fill="#61853d" stroke="none" /><path d="M 9.00,7.16 L 9.04,7.23 L 9.84,7.63 L 9.94,7.63 L 10.78,7.20 L 10.78,7.16 L 9.91,6.73 Z" fill="#61853d" stroke="none" /><path d="M 6.29,16.94 L 6.29,18.04 L 7.13,18.48 L 7.20,18.48 L 7.20,17.37 Z" fill="#c0853d" stroke="none" /><path d="M 14.43,6.26 L 14.43,6.33 L 15.23,6.73 L 15.33,6.73 L 16.17,6.29 L 16.17,6.26 L 15.36,5.86 L 15.23,5.86 Z" fill="#c0853d" stroke="none" /><path d="M 22.49,19.15 L 21.59,19.58 L 21.59,20.69 L 21.66,20.69 L 22.49,20.25 Z" fill="#6d413f" stroke="none" /><path d="M 6.29,19.15 L 6.29,20.25 L 7.13,20.69 L 7.20,20.69 L 7.20,19.58 Z" fill="#844240" stroke="none" /><path d="M 4.49,18.24 L 4.49,19.35 L 5.32,19.78 L 5.39,19.78 L 5.39,18.68 Z" fill="#844240" stroke="none" /><path d="M 12.62,7.16 L 12.65,7.23 L 13.46,7.63 L 13.52,7.63 L 14.39,7.20 L 14.39,7.16 L 13.52,6.73 Z" fill="#844240" stroke="none" /><path d="M 10.81,6.26 L 10.85,6.33 L 11.65,6.73 L 11.75,6.73 L 12.59,6.29 L 12.59,6.26 L 11.72,5.82 Z" fill="#844240" stroke="none" /><path d="M 20.69,26.68 L 20.62,26.68 L 19.78,27.11 L 19.78,28.18 L 19.72,28.25 L 18.88,28.65 L 18.88,29.76 L 19.78,29.32 L 19.78,28.25 L 19.85,28.18 L 20.69,27.78 Z" fill="#324c41" stroke="none" /><path d="M 24.23,24.87 L 23.40,25.31 L 23.40,26.41 L 24.27,25.97 L 24.30,26.01 L 24.30,27.05 L 24.33,27.05 L 25.17,26.61 L 25.17,25.54 L 25.10,25.54 L 24.33,25.94 L 24.30,25.91 L 24.30,24.87 Z" fill="#324c41" stroke="none" /><path d="M 17.04,24.07 L 16.20,24.50 L 16.20,25.57 L 15.30,26.04 L 15.30,27.11 L 15.23,27.18 L 14.39,27.58 L 14.39,28.69 L 14.46,28.69 L 15.26,28.28 L 15.30,28.32 L 15.30,29.36 L 16.17,28.92 L 16.20,28.95 L 16.20,29.99 L 16.27,29.99 L 17.07,29.59 L 17.10,29.62 L 17.10,30.63 L 17.17,30.63 L 17.97,30.23 L 17.97,29.12 L 17.14,29.52 L 17.10,29.49 L 17.10,28.45 L 16.23,28.89 L 16.20,28.85 L 16.20,27.82 L 16.13,27.82 L 15.36,28.22 L 15.30,28.18 L 15.30,27.18 L 15.36,27.11 L 16.20,26.71 L 16.20,25.61 L 17.10,25.14 L 17.10,24.07 Z" fill="#324c41" stroke="none" /><path d="M 11.68,21.86 L 11.68,22.96 L 12.59,23.40 L 12.59,22.29 L 11.75,21.86 Z" fill="#324c41" stroke="none" /><path d="M 28.79,21.52 L 28.72,21.52 L 27.88,21.96 L 27.88,23.03 L 27.82,23.10 L 26.98,23.50 L 26.98,24.60 L 26.08,25.07 L 26.08,26.14 L 26.14,26.14 L 26.98,25.71 L 26.98,24.64 L 27.88,24.17 L 27.88,23.10 L 27.95,23.03 L 28.79,22.63 Z" fill="#324c41" stroke="none" /><path d="M 27.82,18.68 L 26.98,19.11 L 26.98,20.18 L 27.05,20.18 L 27.85,19.78 L 27.88,19.82 L 27.88,20.85 L 27.92,20.85 L 28.79,20.42 L 28.79,19.31 L 28.72,19.31 L 27.92,19.72 L 27.88,19.68 L 27.88,18.68 Z" fill="#324c41" stroke="none" /><path d="M 28.79,12.69 L 27.88,13.12 L 27.88,14.23 L 26.98,14.69 L 26.98,15.80 L 27.88,15.36 L 27.88,14.26 L 28.79,13.79 Z" fill="#324c41" stroke="none" /><path d="M 18.88,12.15 L 18.81,12.15 L 17.97,12.59 L 17.97,13.66 L 17.91,13.72 L 17.10,14.13 L 17.10,15.20 L 17.04,15.26 L 16.20,15.67 L 16.20,16.77 L 15.30,17.24 L 15.30,18.31 L 15.23,18.38 L 14.39,18.78 L 14.39,19.88 L 15.26,19.45 L 15.30,19.48 L 15.30,20.52 L 15.36,20.52 L 16.13,20.12 L 16.20,20.15 L 16.20,21.19 L 17.10,20.75 L 17.10,19.65 L 17.04,19.65 L 16.23,20.05 L 16.20,20.02 L 16.20,18.98 L 15.33,19.41 L 15.30,19.38 L 15.30,18.38 L 15.36,18.31 L 16.20,17.91 L 16.20,16.80 L 17.10,16.33 L 17.10,15.26 L 17.17,15.20 L 17.97,14.79 L 17.97,13.72 L 18.04,13.66 L 18.85,13.26 L 18.88,13.29 L 18.88,14.33 L 18.95,14.33 L 19.72,13.92 L 19.78,13.96 L 19.78,15.00 L 20.69,14.56 L 20.69,13.46 L 20.62,13.46 L 19.82,13.86 L 19.78,13.82 L 19.78,12.79 L 18.91,13.22 L 18.88,13.19 Z" fill="#324c41" stroke="none" /><path d="M 18.01,9.87 L 18.01,9.91 L 18.88,10.34 L 19.78,9.91 L 19.75,9.84 L 18.95,9.44 L 18.85,9.44 Z" fill="#324c41" stroke="none" /><path d="M 28.79,10.51 L 28.72,10.51 L 27.92,10.91 L 27.88,10.88 L 27.88,9.84 L 27.01,10.28 L 26.98,10.24 L 26.98,9.21 L 26.91,9.21 L 26.11,9.61 L 26.08,9.57 L 26.08,8.54 L 26.04,8.54 L 25.17,8.97 L 25.17,10.08 L 24.30,10.51 L 24.30,11.62 L 23.40,12.08 L 23.40,13.19 L 24.30,12.75 L 24.30,11.65 L 25.17,11.21 L 25.17,10.11 L 26.01,9.67 L 26.08,9.71 L 26.08,10.74 L 26.95,10.31 L 26.98,10.34 L 26.98,11.38 L 27.05,11.38 L 27.82,10.98 L 27.88,11.01 L 27.88,12.05 L 28.79,11.62 Z" fill="#324c41" stroke="none" /><path d="M 26.08,17.37 L 26.01,17.37 L 25.17,17.81 L 25.17,19.98 L 25.10,20.05 L 24.30,20.45 L 24.30,21.52 L 23.40,21.99 L 23.40,23.06 L 23.33,23.13 L 21.59,24.00 L 21.59,25.10 L 23.36,24.23 L 23.40,24.20 L 23.40,23.13 L 23.46,23.06 L 24.30,22.66 L 24.30,21.56 L 25.17,21.12 L 25.17,20.05 L 25.24,19.98 L 26.08,19.58 Z" fill="#3f3d44" stroke="none" /><path d="M 1.81,14.69 L 1.81,15.80 L 2.64,16.23 L 2.71,16.23 L 2.71,15.13 Z" fill="#3d5148" stroke="none" /><path d="M 9.91,4.02 L 9.94,4.08 L 10.74,4.49 L 10.85,4.49 L 11.68,4.05 L 11.68,4.02 L 10.81,3.58 Z" fill="#3d5148" stroke="none" /><path d="M 14.39,28.69 L 14.39,29.79 L 14.46,29.79 L 15.26,29.39 L 15.30,29.42 L 15.30,30.46 L 16.17,30.03 L 16.20,30.06 L 16.20,31.10 L 17.10,30.66 L 17.10,29.56 L 16.23,29.99 L 16.20,29.96 L 16.20,28.92 L 16.13,28.92 L 15.36,29.32 L 15.30,29.29 L 15.30,28.25 Z" fill="#365648" stroke="none" /><path d="M 24.30,25.97 L 24.23,25.97 L 23.43,26.38 L 23.40,26.34 L 23.40,25.31 L 23.36,25.31 L 20.69,26.64 L 20.69,27.75 L 19.78,28.22 L 19.78,29.29 L 19.85,29.29 L 20.69,28.85 L 20.69,27.78 L 20.72,27.75 L 23.33,26.44 L 23.40,26.48 L 23.40,27.48 L 23.46,27.48 L 24.27,27.08 L 24.30,27.05 Z" fill="#365648" stroke="none" /><path d="M 28.79,22.63 L 28.72,22.63 L 27.88,23.06 L 27.88,24.13 L 27.82,24.20 L 26.98,24.60 L 26.98,25.71 L 27.88,25.27 L 27.88,24.20 L 27.95,24.13 L 28.79,23.73 Z" fill="#365648" stroke="none" /><path d="M 14.39,19.88 L 14.39,20.99 L 15.26,20.55 L 15.30,20.59 L 15.30,21.62 L 15.36,21.62 L 16.13,21.22 L 16.20,21.26 L 16.20,22.29 L 17.10,21.86 L 17.10,20.75 L 17.04,20.75 L 16.23,21.15 L 16.20,21.12 L 16.20,20.08 L 15.33,20.52 L 15.30,20.49 L 15.30,19.45 L 15.23,19.45 Z" fill="#365648" stroke="none" /><path d="M 28.79,13.79 L 27.88,14.23 L 27.88,15.33 L 26.98,15.80 L 26.98,16.90 L 27.88,16.47 L 27.88,15.36 L 28.79,14.90 Z" fill="#365648" stroke="none" /><path d="M 10.81,23.60 L 9.91,23.16 L 9.91,24.20 L 9.87,24.23 L 9.00,23.80 L 9.00,24.84 L 8.97,24.87 L 8.17,24.47 L 8.10,24.47 L 8.10,25.57 L 9.00,26.01 L 9.00,24.97 L 9.07,24.94 L 9.84,25.34 L 9.91,25.34 L 9.91,24.30 L 9.94,24.27 L 10.81,24.70 Z" fill="#45544d" stroke="none" /><path d="M 1.81,19.11 L 1.81,22.43 L 2.64,22.83 L 2.71,22.90 L 2.71,23.97 L 2.74,24.00 L 5.39,25.31 L 5.39,24.20 L 5.36,24.17 L 2.78,22.90 L 2.71,22.83 L 2.71,19.55 Z" fill="#45544d" stroke="none" /><path d="M 8.10,15.67 L 8.10,16.74 L 9.00,17.21 L 9.00,18.31 L 9.84,18.71 L 9.91,18.78 L 9.91,19.85 L 10.74,20.28 L 10.81,20.28 L 10.81,19.18 L 9.97,18.78 L 9.91,18.71 L 9.91,17.64 L 9.00,17.17 L 9.00,16.10 L 8.17,15.67 Z" fill="#45544d" stroke="none" /><path d="M 1.81,12.52 L 1.81,14.69 L 2.64,15.13 L 2.71,15.13 L 2.71,13.02 L 2.74,12.99 L 5.39,14.29 L 5.39,13.19 L 5.36,13.15 L 2.74,11.85 L 2.71,11.85 L 2.71,12.89 L 2.68,12.92 L 1.87,12.52 Z" fill="#45544d" stroke="none" /><path d="M 10.81,9.87 L 10.81,9.91 L 11.68,10.34 L 12.55,9.91 L 12.65,9.91 L 13.49,10.34 L 14.36,9.91 L 14.43,9.91 L 15.26,10.34 L 16.17,9.91 L 16.13,9.84 L 15.33,9.44 L 15.26,9.44 L 14.43,9.87 L 14.36,9.87 L 13.52,9.44 L 13.46,9.44 L 12.62,9.87 L 11.75,9.44 L 11.65,9.44 Z" fill="#45544d" stroke="none" /><path d="M 18.91,5.82 L 18.01,6.26 L 18.04,6.33 L 18.85,6.73 L 18.78,6.79 L 18.01,7.16 L 18.04,7.23 L 18.85,7.63 L 18.78,7.70 L 18.01,8.07 L 18.01,8.10 L 18.85,8.54 L 18.91,8.54 L 19.78,8.10 L 19.78,8.07 L 19.01,7.70 L 18.95,7.63 L 19.78,7.20 L 19.78,7.16 L 19.01,6.79 L 18.95,6.73 L 19.75,6.33 L 19.78,6.26 Z" fill="#45544d" stroke="none" /><path d="M 7.16,5.39 L 4.55,6.69 L 4.52,6.76 L 5.29,7.13 L 5.36,7.20 L 4.55,7.60 L 4.52,7.67 L 7.13,8.97 L 7.26,8.97 L 8.07,8.57 L 8.07,8.50 L 5.46,7.20 L 5.52,7.13 L 8.10,5.86 L 8.10,5.82 L 7.23,5.39 Z" fill="#45544d" stroke="none" /><path d="M 13.52,3.11 L 13.52,3.18 L 16.13,4.49 L 16.23,4.49 L 17.07,4.05 L 17.07,4.02 L 14.46,2.71 L 14.33,2.71 Z" fill="#45544d" stroke="none" /><path d="M 13.46,3.11 L 12.65,2.71 L 12.52,2.71 L 10.85,3.55 L 10.81,3.62 L 11.72,4.05 L 13.46,3.18 Z" fill="#45544d" stroke="none" /><path d="M 18.88,24.27 L 18.81,24.27 L 17.97,24.70 L 17.97,25.81 L 18.85,25.37 L 18.88,25.41 L 18.88,26.44 L 18.95,26.44 L 19.75,26.04 L 19.78,26.08 L 19.78,27.08 L 19.72,27.15 L 18.88,27.55 L 18.88,28.65 L 17.97,29.12 L 17.97,30.19 L 18.04,30.19 L 18.88,29.76 L 18.88,28.69 L 19.78,28.22 L 19.78,27.15 L 19.85,27.08 L 20.69,26.68 L 20.69,25.57 L 20.62,25.57 L 19.82,25.97 L 19.78,25.94 L 19.78,24.90 L 18.91,25.34 L 18.88,25.31 Z" fill="#45604d" stroke="none" /><path d="M 26.08,20.65 L 25.17,21.09 L 25.17,22.19 L 24.30,22.63 L 24.30,23.73 L 23.40,24.20 L 23.40,25.31 L 24.27,24.87 L 24.30,24.90 L 24.30,25.94 L 24.37,25.94 L 25.14,25.54 L 25.17,25.57 L 25.17,26.61 L 26.08,26.18 L 26.08,25.07 L 25.21,25.51 L 25.17,25.47 L 25.17,24.44 L 25.10,24.44 L 24.33,24.84 L 24.30,24.80 L 24.30,23.77 L 25.17,23.33 L 25.17,22.23 L 26.08,21.76 Z" fill="#45604d" stroke="none" /><path d="M 17.04,18.54 L 16.20,18.98 L 16.20,20.08 L 17.07,19.65 L 17.10,19.68 L 17.10,20.72 L 17.17,20.72 L 17.97,20.32 L 17.97,19.21 L 17.91,19.21 L 17.14,19.62 L 17.10,19.58 L 17.10,18.54 Z" fill="#45604d" stroke="none" /><path d="M 27.88,13.15 L 27.82,13.15 L 26.98,13.59 L 26.98,14.66 L 26.91,14.73 L 26.08,15.13 L 26.08,16.23 L 26.14,16.23 L 26.98,15.80 L 26.98,14.73 L 27.05,14.66 L 27.88,14.26 Z" fill="#45604d" stroke="none" /><path d="M 15.30,29.36 L 14.39,29.79 L 14.39,32.00 L 16.20,31.10 L 16.20,30.03 L 16.13,30.03 L 15.33,30.43 L 15.30,30.39 Z" fill="#3f5e50" stroke="none" /><path d="M 23.40,26.41 L 20.69,27.75 L 20.69,28.85 L 23.40,27.51 Z" fill="#3f5e50" stroke="none" /><path d="M 28.79,23.73 L 28.72,23.73 L 27.88,24.17 L 27.88,25.24 L 27.95,25.24 L 28.79,24.80 Z" fill="#3f5e50" stroke="none" /><path d="M 15.30,20.55 L 15.23,20.55 L 14.39,20.99 L 14.39,26.48 L 14.46,26.48 L 15.30,26.04 L 15.30,24.97 L 16.20,24.50 L 16.20,23.43 L 16.27,23.36 L 17.10,22.96 L 17.10,21.86 L 17.04,21.86 L 16.23,22.26 L 16.20,22.23 L 16.20,21.19 L 15.33,21.62 L 15.30,21.59 Z" fill="#3f5e50" stroke="none" /><path d="M 28.79,14.90 L 27.88,15.33 L 27.88,16.44 L 26.98,16.90 L 26.98,18.01 L 27.85,17.57 L 27.88,17.61 L 27.88,18.64 L 27.95,18.64 L 28.79,18.21 Z" fill="#3f5e50" stroke="none" /><path d="M 17.10,13.02 L 14.39,14.36 L 14.39,17.67 L 14.46,17.67 L 15.30,17.24 L 15.30,16.17 L 15.36,16.10 L 16.20,15.70 L 16.20,14.59 L 17.10,14.13 Z" fill="#3f5e50" stroke="none" /><path d="M 24.30,9.44 L 24.23,9.44 L 19.82,11.65 L 19.78,11.68 L 19.78,12.79 L 20.65,12.35 L 20.69,12.38 L 20.69,13.42 L 20.75,13.42 L 23.36,12.12 L 23.40,12.08 L 23.40,11.01 L 23.46,10.95 L 24.30,10.54 Z" fill="#3f5e50" stroke="none" /><path d="M 28.79,7.20 L 28.72,7.20 L 26.98,8.07 L 26.98,9.17 L 27.05,9.17 L 27.85,8.77 L 27.88,8.80 L 27.88,9.84 L 28.79,9.41 Z" fill="#3f5e50" stroke="none" /><path d="M 20.62,23.36 L 19.78,23.80 L 19.78,24.90 L 20.65,24.47 L 20.69,24.50 L 20.69,25.54 L 20.75,25.54 L 21.59,25.10 L 21.59,24.00 L 20.72,24.44 L 20.69,24.40 L 20.69,23.36 Z" fill="#4d4c51" stroke="none" /><path d="M 25.14,15.60 L 24.30,16.03 L 24.30,17.14 L 25.14,16.74 L 25.17,16.77 L 25.17,17.81 L 25.21,17.81 L 26.08,17.37 L 26.08,16.27 L 26.01,16.27 L 25.21,16.67 L 25.17,16.64 L 25.17,15.60 Z" fill="#4d4c51" stroke="none" /><path d="M 8.10,20.05 L 8.10,21.15 L 8.94,21.59 L 9.00,21.59 L 9.00,20.49 Z" fill="#c65351" stroke="none" /><path d="M 4.49,16.03 L 4.49,17.14 L 5.32,17.57 L 5.39,17.57 L 5.39,16.47 Z" fill="#c65351" stroke="none" /><path d="M 14.39,8.07 L 14.39,8.10 L 15.26,8.54 L 15.33,8.54 L 16.20,8.10 L 16.20,8.07 L 15.33,7.63 L 15.26,7.63 Z" fill="#c65351" stroke="none" /><path d="M 12.62,5.36 L 12.62,5.42 L 13.42,5.82 L 13.56,5.82 L 14.36,5.42 L 14.36,5.36 L 13.56,4.95 L 13.42,4.95 Z" fill="#c65351" stroke="none" /><path d="M 19.78,22.73 L 19.72,22.73 L 18.88,23.16 L 18.88,24.23 L 18.95,24.23 L 19.78,23.80 Z" fill="#545359" stroke="none" /><path d="M 24.30,14.93 L 23.40,15.36 L 23.40,16.47 L 23.46,16.47 L 24.30,16.03 Z" fill="#545359" stroke="none" /><path d="M 17.10,22.96 L 17.04,22.96 L 16.20,23.40 L 16.20,24.47 L 16.13,24.54 L 15.30,24.94 L 15.30,26.01 L 15.23,26.08 L 14.39,26.48 L 14.39,27.58 L 14.46,27.58 L 15.30,27.15 L 15.30,26.08 L 15.36,26.01 L 16.20,25.61 L 16.20,24.54 L 16.27,24.47 L 17.10,24.07 Z" fill="#486659" stroke="none" /><path d="M 27.82,17.57 L 26.98,18.01 L 26.98,19.11 L 27.85,18.68 L 27.88,18.71 L 27.88,19.75 L 27.92,19.75 L 28.79,19.31 L 28.79,18.21 L 27.92,18.64 L 27.88,18.61 L 27.88,17.57 Z" fill="#486659" stroke="none" /><path d="M 17.97,12.59 L 17.10,13.02 L 17.10,14.09 L 17.04,14.16 L 16.20,14.56 L 16.20,15.67 L 15.30,16.13 L 15.30,17.21 L 15.23,17.27 L 14.39,17.67 L 14.39,18.78 L 14.46,18.78 L 15.30,18.34 L 15.30,17.27 L 15.36,17.21 L 16.20,16.80 L 16.20,15.70 L 17.10,15.23 L 17.10,14.16 L 17.17,14.09 L 17.97,13.69 Z" fill="#486659" stroke="none" /><path d="M 25.17,9.00 L 25.10,9.00 L 24.30,9.41 L 24.30,10.51 L 23.40,10.98 L 23.40,12.05 L 23.33,12.12 L 20.72,13.42 L 20.69,13.39 L 20.69,12.35 L 20.62,12.35 L 19.82,12.75 L 19.78,12.72 L 19.78,11.68 L 19.75,11.68 L 18.88,12.12 L 18.88,13.22 L 18.95,13.22 L 19.75,12.82 L 19.78,12.85 L 19.78,13.89 L 20.65,13.46 L 20.69,13.49 L 20.69,14.53 L 20.75,14.53 L 23.36,13.22 L 23.40,13.19 L 23.40,12.12 L 23.46,12.05 L 24.30,11.65 L 24.30,10.54 L 25.17,10.11 Z" fill="#486659" stroke="none" /><path d="M 26.08,8.54 L 26.08,9.64 L 26.95,9.21 L 26.98,9.24 L 26.98,10.28 L 27.05,10.28 L 27.82,9.87 L 27.88,9.91 L 27.88,10.95 L 28.79,10.51 L 28.79,9.41 L 28.72,9.41 L 27.92,9.81 L 27.88,9.77 L 27.88,8.74 L 27.01,9.17 L 26.98,9.14 L 26.98,8.10 L 26.91,8.10 Z" fill="#486659" stroke="none" /><path d="M 6.29,21.36 L 6.29,22.46 L 7.20,22.90 L 7.20,21.79 Z" fill="#f05f5b" stroke="none" /><path d="M 10.81,8.07 L 10.85,8.13 L 11.65,8.54 L 11.72,8.54 L 12.59,8.10 L 12.59,8.07 L 11.72,7.63 Z" fill="#f05f5b" stroke="none" /><path d="M 17.97,24.70 L 17.10,25.14 L 17.10,26.21 L 17.04,26.28 L 16.20,26.68 L 16.20,28.89 L 16.27,28.89 L 17.07,28.49 L 17.10,28.52 L 17.10,29.56 L 18.88,28.69 L 18.88,27.58 L 19.78,27.11 L 19.78,26.01 L 18.91,26.44 L 18.88,26.41 L 18.88,25.37 L 18.81,25.37 L 18.04,25.77 L 17.97,25.74 Z" fill="#55675f" stroke="none" /><path d="M 26.98,20.22 L 26.91,20.22 L 26.08,20.65 L 26.08,21.72 L 26.01,21.79 L 25.17,22.19 L 25.17,23.30 L 24.30,23.73 L 24.30,24.84 L 24.37,24.84 L 25.14,24.44 L 25.17,24.47 L 25.17,25.51 L 25.24,25.51 L 26.98,24.64 L 26.98,23.53 L 27.88,23.06 L 27.88,20.85 L 27.01,21.29 L 26.98,21.26 Z" fill="#55675f" stroke="none" /><path d="M 18.88,14.36 L 18.81,14.36 L 17.97,14.79 L 17.97,15.87 L 17.91,15.93 L 17.10,16.33 L 17.10,17.41 L 17.04,17.47 L 16.20,17.87 L 16.20,18.98 L 17.07,18.54 L 17.10,18.58 L 17.10,19.62 L 17.17,19.62 L 18.85,18.78 L 18.88,18.74 L 18.88,17.67 L 18.95,17.61 L 19.78,17.21 L 19.78,15.00 L 18.91,15.43 L 18.88,15.40 Z" fill="#55675f" stroke="none" /><path d="M 26.08,10.74 L 25.17,11.18 L 25.17,12.28 L 24.30,12.72 L 24.30,14.93 L 25.14,14.53 L 25.17,14.56 L 25.17,15.60 L 26.95,14.73 L 26.98,14.69 L 26.98,13.62 L 27.05,13.56 L 27.88,13.15 L 27.88,12.05 L 27.01,12.49 L 26.98,12.45 L 26.98,11.41 L 26.91,11.41 L 26.14,11.82 L 26.08,11.78 Z" fill="#55675f" stroke="none" /><path d="M 23.40,15.40 L 23.33,15.40 L 20.72,16.70 L 20.69,16.74 L 20.69,17.81 L 20.62,17.87 L 19.78,18.28 L 19.78,19.38 L 18.88,19.85 L 18.88,23.16 L 19.75,22.73 L 19.78,22.76 L 19.78,23.80 L 20.65,23.36 L 20.69,23.40 L 20.69,24.44 L 20.75,24.44 L 23.36,23.13 L 23.40,23.10 L 23.40,22.03 L 23.46,21.96 L 24.30,21.56 L 24.30,20.49 L 24.37,20.42 L 25.17,20.02 L 25.17,16.70 L 24.33,17.10 L 24.30,17.07 L 24.30,16.03 L 23.43,16.47 L 23.40,16.44 Z" fill="#5f5d62" stroke="none" /><path d="M 17.97,23.63 L 17.91,23.63 L 17.10,24.03 L 17.10,25.10 L 17.04,25.17 L 16.20,25.57 L 16.20,26.68 L 15.30,27.15 L 15.30,28.25 L 16.20,27.82 L 16.20,26.71 L 17.10,26.24 L 17.10,25.17 L 17.17,25.10 L 17.97,24.70 Z" fill="#596f65" stroke="none" /><path d="M 26.08,19.55 L 26.08,20.65 L 26.95,20.22 L 26.98,20.25 L 26.98,21.29 L 27.05,21.29 L 27.82,20.89 L 27.88,20.92 L 27.88,21.96 L 28.79,21.52 L 28.79,20.42 L 28.72,20.42 L 27.92,20.82 L 27.88,20.79 L 27.88,19.75 L 27.01,20.18 L 26.98,20.15 L 26.98,19.11 Z" fill="#596f65" stroke="none" /><path d="M 20.69,14.56 L 20.62,14.56 L 19.82,14.96 L 19.78,14.93 L 19.78,13.89 L 18.91,14.33 L 18.88,14.29 L 18.88,13.26 L 18.81,13.26 L 18.01,13.66 L 17.97,13.69 L 17.97,14.76 L 17.91,14.83 L 17.10,15.23 L 17.10,16.30 L 17.04,16.37 L 16.20,16.77 L 16.20,17.87 L 15.30,18.34 L 15.30,19.41 L 15.36,19.41 L 16.20,18.98 L 16.20,17.91 L 17.10,17.44 L 17.10,16.37 L 17.17,16.30 L 17.97,15.90 L 17.97,14.83 L 18.04,14.76 L 18.85,14.36 L 18.88,14.39 L 18.88,15.43 L 18.95,15.43 L 19.75,15.03 L 19.78,15.06 L 19.78,16.10 L 19.82,16.10 L 20.69,15.67 Z" fill="#596f65" stroke="none" /><path d="M 28.79,11.62 L 28.72,11.62 L 27.92,12.02 L 27.88,11.98 L 27.88,10.95 L 27.01,11.38 L 26.98,11.35 L 26.98,10.31 L 26.91,10.31 L 26.11,10.71 L 26.08,10.68 L 26.08,9.64 L 26.04,9.64 L 25.17,10.08 L 25.17,11.18 L 24.30,11.62 L 24.30,12.72 L 23.40,13.19 L 23.40,14.29 L 24.30,13.86 L 24.30,12.75 L 25.17,12.32 L 25.17,11.21 L 26.01,10.78 L 26.08,10.81 L 26.08,11.85 L 26.95,11.41 L 26.98,11.45 L 26.98,12.49 L 27.05,12.49 L 27.82,12.08 L 27.88,12.12 L 27.88,13.12 L 27.95,13.12 L 28.79,12.69 Z" fill="#596f65" stroke="none" /><path d="M 23.40,14.29 L 22.49,14.73 L 22.49,15.83 L 23.40,15.40 Z" fill="#68676d" stroke="none" /><path d="M 18.88,20.95 L 17.97,21.39 L 17.97,23.60 L 18.04,23.60 L 18.88,23.16 Z" fill="#6d6b71" stroke="none" /><path d="M 22.49,14.76 L 22.43,14.76 L 21.59,15.20 L 21.59,16.27 L 21.66,16.27 L 22.49,15.83 Z" fill="#6d6b71" stroke="none" /><path d="M 20.69,16.74 L 19.78,17.17 L 19.78,18.28 L 18.88,18.74 L 18.88,19.85 L 19.78,19.41 L 19.78,18.31 L 20.69,17.84 Z" fill="#6d6c71" stroke="none" /><path d="M 18.88,19.85 L 17.97,20.28 L 17.97,21.39 L 18.04,21.39 L 18.88,20.95 Z" fill="#6f6e74" stroke="none" /><path d="M 21.59,15.20 L 20.69,15.63 L 20.69,16.74 L 21.59,16.30 Z" fill="#6f6e74" stroke="none" /><path d="M 8.10,26.68 L 8.10,27.78 L 8.94,28.18 L 9.00,28.25 L 9.00,29.32 L 9.91,29.76 L 9.91,28.65 L 9.07,28.25 L 9.00,28.18 L 9.00,27.11 L 8.17,26.68 Z" fill="#5e8d79" stroke="none" /><path d="M 4.55,24.87 L 4.49,24.87 L 4.49,25.91 L 4.45,25.94 L 3.68,25.54 L 3.62,25.54 L 3.62,26.61 L 4.45,27.05 L 4.49,27.05 L 4.49,26.01 L 4.52,25.97 L 5.39,26.41 L 5.39,25.31 Z" fill="#5e8d79" stroke="none" /><path d="M 11.75,24.07 L 11.68,24.07 L 11.68,25.14 L 12.59,25.61 L 12.59,26.71 L 13.42,27.11 L 13.49,27.18 L 13.49,28.18 L 13.42,28.22 L 12.65,27.82 L 12.59,27.82 L 12.59,28.85 L 12.55,28.89 L 11.68,28.45 L 11.68,29.49 L 11.65,29.52 L 10.81,29.12 L 10.81,30.23 L 11.62,30.63 L 11.68,30.63 L 11.68,29.62 L 11.72,29.59 L 12.52,29.99 L 12.59,29.99 L 12.59,28.95 L 12.62,28.92 L 13.49,29.36 L 13.49,28.32 L 13.52,28.28 L 14.33,28.69 L 14.39,28.69 L 14.39,27.58 L 13.56,27.18 L 13.49,27.11 L 13.49,26.04 L 12.59,25.57 L 12.59,24.50 Z" fill="#5e8d79" stroke="none" /><path d="M 0.00,21.52 L 0.00,22.63 L 0.84,23.03 L 0.90,23.10 L 0.90,24.17 L 1.81,24.64 L 1.81,25.71 L 2.64,26.14 L 2.71,26.14 L 2.71,25.07 L 1.81,24.60 L 1.81,23.50 L 0.97,23.10 L 0.90,23.03 L 0.90,21.96 L 0.07,21.52 Z" fill="#5e8d79" stroke="none" /><path d="M 0.97,18.68 L 0.90,18.68 L 0.90,19.68 L 0.87,19.72 L 0.07,19.31 L 0.00,19.31 L 0.00,20.42 L 0.87,20.85 L 0.90,20.85 L 0.90,19.82 L 0.94,19.78 L 1.74,20.18 L 1.81,20.18 L 1.81,19.11 Z" fill="#5e8d79" stroke="none" /><path d="M 0.00,12.69 L 0.00,13.79 L 0.90,14.26 L 0.90,15.36 L 1.81,15.80 L 1.81,14.69 L 0.90,14.23 L 0.90,13.12 Z" fill="#5e8d79" stroke="none" /><path d="M 14.43,12.55 L 14.43,12.62 L 15.23,13.02 L 15.36,13.02 L 16.17,12.62 L 16.17,12.55 L 15.36,12.15 L 15.23,12.15 Z" fill="#5e8d79" stroke="none" /><path d="M 12.62,12.55 L 12.62,12.62 L 13.42,13.02 L 13.56,13.02 L 14.36,12.62 L 14.36,12.55 L 13.56,12.15 L 13.42,12.15 Z" fill="#5e8d79" stroke="none" /><path d="M 17.04,10.34 L 16.20,10.78 L 16.20,10.81 L 16.97,11.18 L 17.04,11.25 L 16.23,11.65 L 16.23,11.72 L 17.04,12.12 L 17.00,12.18 L 16.23,12.55 L 16.23,12.62 L 17.04,13.02 L 17.14,13.02 L 17.97,12.59 L 17.97,12.55 L 17.17,12.15 L 17.21,12.08 L 17.97,11.72 L 17.97,11.68 L 17.14,11.25 L 17.21,11.18 L 17.97,10.81 L 17.97,10.78 L 17.14,10.34 Z" fill="#5e8d79" stroke="none" /><path d="M 9.84,10.34 L 9.04,10.74 L 9.00,10.81 L 9.77,11.18 L 9.84,11.25 L 9.04,11.65 L 9.04,11.72 L 9.91,12.15 L 9.91,13.19 L 9.87,13.22 L 9.00,12.79 L 9.00,13.82 L 8.97,13.86 L 8.17,13.46 L 8.10,13.46 L 8.10,14.56 L 9.00,15.00 L 9.00,13.96 L 9.07,13.92 L 9.84,14.33 L 9.91,14.33 L 9.91,13.29 L 9.94,13.26 L 10.74,13.66 L 10.81,13.72 L 10.81,14.79 L 11.62,15.20 L 11.68,15.26 L 11.68,16.33 L 12.59,16.80 L 12.59,17.91 L 13.42,18.31 L 13.49,18.38 L 13.49,19.38 L 13.46,19.41 L 12.59,18.98 L 12.59,20.02 L 12.55,20.05 L 11.75,19.65 L 11.68,19.65 L 11.68,20.75 L 12.59,21.19 L 12.59,20.15 L 12.65,20.12 L 13.42,20.52 L 13.49,20.52 L 13.49,19.48 L 13.52,19.45 L 14.39,19.88 L 14.39,18.78 L 13.56,18.38 L 13.49,18.31 L 13.49,17.24 L 12.59,16.77 L 12.59,15.67 L 11.75,15.26 L 11.68,15.20 L 11.68,14.13 L 10.88,13.72 L 10.81,13.66 L 10.81,12.65 L 10.85,12.62 L 11.65,13.02 L 11.75,13.02 L 12.55,12.62 L 12.55,12.55 L 11.75,12.15 L 11.62,12.15 L 10.85,12.55 L 10.74,12.55 L 10.01,12.18 L 9.97,12.15 L 10.01,12.08 L 10.78,11.72 L 10.78,11.68 L 9.94,11.25 L 10.01,11.18 L 10.78,10.81 L 10.78,10.78 L 9.94,10.34 Z" fill="#5e8d79" stroke="none" /><path d="M 2.64,5.86 L 1.84,6.26 L 1.84,6.33 L 2.64,6.73 L 2.58,6.79 L 1.81,7.16 L 1.84,7.23 L 2.64,7.63 L 2.58,7.70 L 1.81,8.07 L 1.81,8.10 L 2.64,8.50 L 2.71,8.57 L 2.71,9.57 L 2.64,9.61 L 1.87,9.21 L 1.81,9.21 L 1.81,10.24 L 1.77,10.28 L 0.90,9.84 L 0.90,10.88 L 0.87,10.91 L 0.07,10.51 L 0.00,10.51 L 0.00,11.62 L 0.90,12.05 L 0.90,11.01 L 0.97,10.98 L 1.74,11.38 L 1.81,11.38 L 1.81,10.34 L 1.84,10.31 L 2.71,10.74 L 2.71,9.71 L 2.78,9.67 L 3.62,10.11 L 3.62,11.21 L 4.49,11.65 L 4.49,12.75 L 5.39,13.19 L 5.39,12.08 L 4.49,11.62 L 4.49,10.51 L 3.62,10.08 L 3.62,9.04 L 3.65,9.00 L 4.52,9.44 L 5.36,9.00 L 5.42,9.00 L 6.26,9.44 L 6.33,9.44 L 7.20,9.00 L 7.20,8.97 L 6.33,8.54 L 6.26,8.54 L 5.42,8.97 L 5.36,8.97 L 4.52,8.54 L 4.45,8.54 L 3.62,8.97 L 2.78,8.57 L 2.74,8.54 L 2.78,8.50 L 3.55,8.13 L 3.58,8.07 L 2.81,7.70 L 2.74,7.63 L 3.55,7.23 L 3.58,7.16 L 2.81,6.79 L 2.74,6.73 L 3.55,6.33 L 3.58,6.26 L 2.78,5.86 Z" fill="#5e8d79" stroke="none" /><path d="M 25.14,5.36 L 24.33,4.95 L 24.23,4.95 L 23.43,5.36 L 23.43,5.42 L 24.23,5.82 L 24.17,5.89 L 23.40,6.26 L 23.40,6.29 L 24.23,6.73 L 24.17,6.79 L 23.40,7.16 L 23.40,7.20 L 24.23,7.63 L 24.17,7.70 L 23.40,8.07 L 23.40,8.10 L 24.23,8.50 L 24.27,8.54 L 24.23,8.57 L 23.43,8.97 L 23.36,8.97 L 22.53,8.54 L 22.46,8.54 L 21.62,8.97 L 21.56,8.97 L 20.72,8.54 L 20.65,8.54 L 19.78,8.97 L 19.78,9.00 L 20.65,9.44 L 20.72,9.44 L 21.56,9.00 L 21.62,9.00 L 22.46,9.44 L 22.53,9.44 L 23.36,9.00 L 23.43,9.00 L 24.30,9.44 L 25.17,9.00 L 25.14,8.94 L 24.33,8.54 L 25.17,8.10 L 25.17,8.07 L 24.40,7.70 L 24.33,7.63 L 25.17,7.20 L 25.17,7.16 L 24.40,6.79 L 24.33,6.73 L 25.17,6.29 L 25.17,6.26 L 24.40,5.89 L 24.33,5.82 L 25.14,5.42 Z" fill="#5e8d79" stroke="none" /><path d="M 21.62,5.36 L 21.62,5.42 L 22.43,5.82 L 22.56,5.82 L 23.36,5.42 L 23.36,5.36 L 22.56,4.95 L 22.43,4.95 Z" fill="#5e8d79" stroke="none" /><path d="M 19.82,5.36 L 19.82,5.42 L 20.62,5.82 L 20.75,5.82 L 21.56,5.42 L 21.56,5.36 L 20.75,4.95 L 20.62,4.95 Z" fill="#5e8d79" stroke="none" /><path d="M 5.42,5.36 L 5.42,5.42 L 6.23,5.82 L 6.36,5.82 L 7.16,5.42 L 7.16,5.36 L 6.36,4.95 L 6.23,4.95 Z" fill="#5e8d79" stroke="none" /><path d="M 3.65,5.36 L 3.65,5.42 L 4.45,5.82 L 4.55,5.82 L 5.36,5.42 L 5.36,5.36 L 4.55,4.95 L 4.45,4.95 Z" fill="#5e8d79" stroke="none" /><path d="M 9.94,2.24 L 9.87,2.24 L 9.00,2.68 L 9.00,2.71 L 9.77,3.08 L 9.84,3.15 L 9.04,3.55 L 9.00,3.62 L 9.87,4.05 L 10.78,3.62 L 10.74,3.55 L 9.94,3.15 L 10.01,3.08 L 10.78,2.71 L 10.78,2.68 Z" fill="#5e8d79" stroke="none" /><path d="M 10.81,1.77 L 10.85,1.84 L 11.65,2.24 L 11.72,2.24 L 12.55,1.81 L 12.62,1.81 L 13.46,2.24 L 13.52,2.24 L 14.36,1.81 L 14.43,1.81 L 15.26,2.24 L 15.33,2.24 L 16.17,1.81 L 16.23,1.81 L 16.97,2.18 L 17.04,2.24 L 16.23,2.64 L 16.20,2.71 L 16.97,3.08 L 17.04,3.15 L 16.23,3.55 L 16.20,3.62 L 17.07,4.05 L 17.97,3.62 L 17.94,3.55 L 17.14,3.15 L 17.21,3.08 L 17.97,2.71 L 17.94,2.64 L 17.14,2.24 L 17.21,2.18 L 17.97,1.81 L 17.97,1.77 L 17.10,1.34 L 16.23,1.77 L 16.17,1.77 L 15.33,1.34 L 15.26,1.34 L 14.43,1.77 L 14.36,1.77 L 13.52,1.34 L 13.46,1.34 L 12.62,1.77 L 12.55,1.77 L 11.68,1.34 Z" fill="#5e8d79" stroke="none" /><path d="M 2.71,17.37 L 2.71,22.86 L 7.20,25.10 L 7.20,24.00 L 7.16,23.97 L 3.62,22.19 L 3.62,17.81 L 2.78,17.37 Z" fill="#76737e" stroke="none" /><path d="M 10.78,5.36 L 9.97,4.95 L 9.84,4.95 L 5.42,7.16 L 5.42,7.20 L 9.91,9.44 L 10.78,9.00 L 10.74,8.94 L 7.30,7.23 L 7.26,7.16 L 10.74,5.42 Z" fill="#76737e" stroke="none" /><path d="M 7.20,26.21 L 7.20,27.31 L 8.10,27.78 L 8.10,28.85 L 8.94,29.29 L 9.00,29.29 L 9.00,28.22 L 8.10,27.75 L 8.10,26.64 Z" fill="#65a186" stroke="none" /><path d="M 0.00,13.79 L 0.00,14.90 L 0.90,15.36 L 0.90,18.61 L 0.87,18.64 L 0.00,18.21 L 0.00,19.31 L 0.90,19.75 L 0.90,18.71 L 0.94,18.68 L 1.81,19.11 L 1.81,15.80 L 0.90,15.33 L 0.90,14.23 Z" fill="#65a186" stroke="none" /><path d="M 9.00,9.87 L 8.10,10.31 L 8.13,10.38 L 8.94,10.78 L 8.87,10.85 L 8.10,11.21 L 8.10,11.25 L 8.94,11.65 L 9.00,11.72 L 9.00,12.72 L 8.94,12.75 L 8.17,12.35 L 8.10,12.35 L 8.10,13.39 L 8.07,13.42 L 7.20,12.99 L 7.20,14.09 L 8.03,14.53 L 8.10,14.53 L 8.10,13.49 L 8.13,13.46 L 9.00,13.89 L 9.00,12.85 L 9.04,12.82 L 9.84,13.22 L 9.91,13.22 L 9.91,12.12 L 9.04,11.68 L 9.87,11.25 L 9.87,11.21 L 9.10,10.85 L 9.04,10.78 L 9.84,10.38 L 9.87,10.31 Z" fill="#65a186" stroke="none" /><path d="M 2.71,8.54 L 1.87,8.10 L 1.81,8.10 L 1.81,9.14 L 1.77,9.17 L 0.90,8.74 L 0.90,9.77 L 0.87,9.81 L 0.07,9.41 L 0.00,9.41 L 0.00,10.51 L 0.90,10.95 L 0.90,9.91 L 0.97,9.87 L 1.74,10.28 L 1.81,10.28 L 1.81,9.24 L 1.84,9.21 L 2.71,9.64 Z" fill="#65a186" stroke="none" /><path d="M 18.88,4.92 L 18.88,4.95 L 19.75,5.39 L 19.82,5.39 L 20.65,4.95 L 20.72,4.95 L 21.56,5.39 L 21.62,5.39 L 22.46,4.95 L 22.53,4.95 L 23.36,5.39 L 23.43,5.39 L 24.27,4.95 L 24.27,4.92 L 23.40,4.49 L 22.53,4.92 L 22.46,4.92 L 21.62,4.49 L 21.56,4.49 L 20.72,4.92 L 20.65,4.92 L 19.82,4.49 L 19.75,4.49 Z" fill="#65a186" stroke="none" /><path d="M 9.87,3.11 L 9.07,2.71 L 8.94,2.71 L 8.13,3.11 L 8.13,3.18 L 8.90,3.55 L 8.94,3.58 L 8.87,3.65 L 6.33,4.92 L 6.26,4.92 L 5.39,4.49 L 4.52,4.92 L 4.52,4.95 L 5.36,5.39 L 5.42,5.39 L 6.26,4.95 L 6.33,4.95 L 7.16,5.39 L 7.23,5.39 L 9.84,4.08 L 9.87,4.02 L 9.10,3.65 L 9.04,3.58 L 9.84,3.18 Z" fill="#65a186" stroke="none" /><path d="M 15.33,1.31 L 15.33,1.37 L 16.13,1.77 L 16.27,1.77 L 17.07,1.37 L 17.04,1.31 L 16.23,0.90 L 16.13,0.90 Z" fill="#65a186" stroke="none" /><path d="M 13.52,1.31 L 13.52,1.37 L 14.33,1.77 L 14.46,1.77 L 15.26,1.37 L 15.26,1.31 L 14.46,0.90 L 14.33,0.90 Z" fill="#65a186" stroke="none" /><path d="M 11.72,1.34 L 11.72,1.37 L 12.52,1.77 L 12.65,1.77 L 13.46,1.37 L 13.46,1.31 L 12.65,0.90 L 12.55,0.90 Z" fill="#65a186" stroke="none" /><path d="M 9.97,24.27 L 9.91,24.27 L 9.91,25.31 L 9.87,25.34 L 9.00,24.90 L 9.00,25.94 L 8.97,25.97 L 8.17,25.57 L 8.10,25.57 L 8.10,26.68 L 8.94,27.08 L 9.00,27.15 L 9.00,28.22 L 9.84,28.65 L 9.91,28.65 L 9.91,27.55 L 9.07,27.15 L 9.00,27.08 L 9.00,26.08 L 9.07,26.04 L 9.84,26.44 L 9.91,26.44 L 9.91,25.41 L 9.94,25.37 L 10.81,25.81 L 10.81,24.70 Z" fill="#81b38f" stroke="none" /><path d="M 0.90,19.75 L 0.90,20.79 L 0.87,20.82 L 0.07,20.42 L 0.00,20.42 L 0.00,21.52 L 1.77,22.39 L 1.81,22.43 L 1.81,23.53 L 2.71,23.97 L 2.71,22.86 L 1.81,22.39 L 1.81,20.18 Z" fill="#81b38f" stroke="none" /><path d="M 9.00,13.89 L 9.00,14.93 L 8.97,14.96 L 8.17,14.56 L 8.10,14.56 L 8.10,15.67 L 8.94,16.07 L 9.00,16.13 L 9.00,17.21 L 9.84,17.61 L 9.91,17.67 L 9.91,18.74 L 10.74,19.18 L 10.81,19.18 L 10.81,18.08 L 9.97,17.67 L 9.91,17.61 L 9.91,16.54 L 9.07,16.13 L 9.00,16.07 L 9.00,15.06 L 9.04,15.03 L 9.84,15.43 L 9.91,15.43 L 9.91,14.33 Z" fill="#81b38f" stroke="none" /><path d="M 0.00,11.62 L 0.00,12.69 L 0.90,13.15 L 0.90,14.26 L 1.81,14.69 L 1.81,12.55 L 1.84,12.52 L 2.71,12.95 L 2.71,11.85 L 1.87,11.41 L 1.81,11.41 L 1.81,12.45 L 1.77,12.49 L 0.07,11.62 Z" fill="#81b38f" stroke="none" /><path d="M 9.91,11.25 L 10.74,11.68 L 10.85,11.68 L 11.68,11.25 L 11.68,11.21 L 10.91,10.85 L 10.85,10.78 L 11.68,10.34 L 12.55,10.78 L 12.65,10.78 L 13.49,10.34 L 14.36,10.78 L 14.43,10.78 L 15.23,10.38 L 15.26,10.31 L 14.46,9.91 L 14.33,9.91 L 13.56,10.31 L 13.46,10.31 L 12.62,9.87 L 11.75,10.31 L 11.65,10.31 L 10.78,9.87 L 9.91,10.31 L 9.94,10.38 L 10.74,10.78 L 10.68,10.85 L 9.91,11.21 Z" fill="#81b38f" stroke="none" /><path d="M 18.91,7.67 L 19.72,8.07 L 19.85,8.07 L 20.65,7.67 L 20.65,7.60 L 19.85,7.20 L 19.92,7.13 L 20.69,6.76 L 20.65,6.69 L 19.88,6.33 L 19.85,6.29 L 19.92,6.23 L 20.65,5.86 L 20.72,5.86 L 21.56,6.29 L 21.62,6.29 L 22.49,5.86 L 22.49,5.82 L 21.62,5.39 L 21.56,5.39 L 20.72,5.82 L 20.65,5.82 L 19.82,5.39 L 19.75,5.39 L 18.95,5.79 L 18.91,5.86 L 19.68,6.23 L 19.75,6.29 L 18.95,6.69 L 18.91,6.76 L 19.68,7.13 L 19.75,7.20 L 18.95,7.60 Z" fill="#81b38f" stroke="none" /><path d="M 2.71,5.82 L 2.71,5.86 L 4.45,6.73 L 4.38,6.79 L 3.62,7.16 L 3.65,7.23 L 4.45,7.63 L 4.55,7.63 L 5.39,7.20 L 5.39,7.16 L 4.62,6.79 L 4.55,6.73 L 4.59,6.69 L 6.29,5.86 L 6.29,5.82 L 5.42,5.39 L 5.36,5.39 L 4.52,5.82 L 3.65,5.39 L 3.58,5.39 Z" fill="#81b38f" stroke="none" /><path d="M 9.91,3.15 L 10.74,3.58 L 10.85,3.58 L 12.55,2.71 L 12.62,2.71 L 13.46,3.15 L 13.52,3.15 L 14.39,2.71 L 14.39,2.68 L 13.52,2.24 L 13.46,2.24 L 12.62,2.68 L 12.55,2.68 L 10.85,1.81 L 10.74,1.81 L 9.94,2.21 L 9.94,2.28 L 10.74,2.68 L 10.68,2.74 L 9.91,3.11 Z" fill="#81b38f" stroke="none" /><path d="M 13.49,29.36 L 13.49,30.39 L 13.46,30.43 L 12.65,30.03 L 12.59,30.03 L 12.59,31.10 L 14.39,32.00 L 14.39,29.79 Z" fill="#75b095" stroke="none" /><path d="M 5.39,26.41 L 5.39,27.51 L 8.10,28.85 L 8.10,27.75 L 7.26,27.35 L 7.20,27.28 L 7.20,26.21 L 7.16,26.18 L 6.36,25.77 L 6.29,25.77 L 6.29,26.81 L 6.26,26.85 Z" fill="#75b095" stroke="none" /><path d="M 0.00,22.63 L 0.00,24.80 L 1.81,25.71 L 1.81,24.60 L 0.97,24.20 L 0.90,24.13 L 0.90,23.06 L 0.07,22.63 Z" fill="#75b095" stroke="none" /><path d="M 13.49,20.55 L 13.49,21.59 L 13.46,21.62 L 12.59,21.19 L 12.59,22.29 L 13.49,22.76 L 13.49,23.80 L 13.46,23.83 L 12.59,23.40 L 12.59,24.50 L 13.49,24.97 L 13.49,26.04 L 14.33,26.48 L 14.39,26.48 L 14.39,20.99 L 13.56,20.55 Z" fill="#75b095" stroke="none" /><path d="M 0.00,14.90 L 0.00,18.21 L 0.84,18.64 L 0.90,18.64 L 0.90,15.33 Z" fill="#75b095" stroke="none" /><path d="M 11.68,13.02 L 11.68,14.13 L 12.59,14.59 L 12.59,15.70 L 13.42,16.10 L 13.49,16.17 L 13.49,17.24 L 14.33,17.67 L 14.39,17.67 L 14.39,14.39 L 16.13,13.52 L 16.17,13.46 L 15.36,13.05 L 15.23,13.05 L 14.39,13.49 L 13.56,13.05 L 13.42,13.05 L 12.65,13.46 L 12.55,13.46 Z" fill="#75b095" stroke="none" /><path d="M 23.36,9.87 L 22.53,9.44 L 22.46,9.44 L 21.62,9.87 L 21.56,9.87 L 20.72,9.44 L 20.65,9.44 L 19.82,9.87 L 19.82,9.91 L 20.59,10.28 L 20.65,10.34 L 20.62,10.38 L 19.82,10.78 L 18.95,10.34 L 18.85,10.34 L 18.04,10.74 L 18.01,10.81 L 18.78,11.18 L 18.85,11.25 L 18.04,11.65 L 18.01,11.72 L 18.81,12.12 L 18.95,12.12 L 23.36,9.91 Z" fill="#75b095" stroke="none" /><path d="M 4.49,9.44 L 4.49,10.54 L 5.32,10.95 L 5.39,11.01 L 5.39,12.08 L 6.29,12.55 L 6.29,13.66 L 7.20,14.09 L 7.20,13.05 L 7.26,13.02 L 8.03,13.42 L 8.10,13.42 L 8.10,12.38 L 8.13,12.35 L 9.00,12.79 L 9.00,11.68 L 8.17,11.25 L 8.20,11.18 L 8.97,10.81 L 8.97,10.78 L 8.13,10.34 L 8.20,10.28 L 8.97,9.91 L 8.94,9.84 L 8.13,9.44 L 8.07,9.44 L 7.23,9.87 L 7.16,9.87 L 6.33,9.44 L 6.26,9.44 L 5.39,9.87 L 4.55,9.44 Z" fill="#75b095" stroke="none" /><path d="M 1.84,6.29 L 1.77,6.29 L 0.00,7.20 L 0.00,9.41 L 0.87,9.84 L 0.90,9.84 L 0.90,8.80 L 0.97,8.77 L 1.74,9.17 L 1.81,9.17 L 1.81,8.10 L 2.68,7.67 L 2.64,7.60 L 1.84,7.20 L 1.91,7.13 L 2.68,6.76 L 2.68,6.73 Z" fill="#75b095" stroke="none" /><path d="M 25.21,6.26 L 25.24,6.33 L 26.04,6.73 L 25.97,6.79 L 25.21,7.16 L 25.24,7.23 L 26.04,7.63 L 25.97,7.70 L 25.21,8.07 L 25.21,8.10 L 26.04,8.54 L 26.11,8.54 L 28.75,7.20 L 28.75,7.16 L 26.14,5.86 L 26.01,5.86 Z" fill="#75b095" stroke="none" /><path d="M 8.97,3.58 L 8.13,3.15 L 8.07,3.15 L 5.46,4.45 L 5.42,4.52 L 6.23,4.92 L 6.36,4.92 L 8.97,3.62 Z" fill="#75b095" stroke="none" /><path d="M 18.01,2.68 L 18.01,2.71 L 18.78,3.08 L 18.85,3.15 L 18.01,3.58 L 18.01,3.62 L 18.78,3.98 L 18.85,4.05 L 18.04,4.45 L 18.01,4.52 L 18.81,4.92 L 18.95,4.92 L 19.78,4.49 L 20.62,4.92 L 20.75,4.92 L 21.59,4.49 L 22.43,4.92 L 22.56,4.92 L 23.36,4.52 L 23.33,4.45 L 18.91,2.24 L 18.85,2.24 Z" fill="#75b095" stroke="none" /><path d="M 12.62,0.87 L 12.65,0.94 L 13.46,1.34 L 13.52,1.34 L 14.36,0.90 L 14.43,0.90 L 15.26,1.34 L 15.33,1.34 L 16.17,0.90 L 16.17,0.87 L 14.43,0.00 L 14.36,0.00 Z" fill="#75b095" stroke="none" /><path d="M 7.20,24.00 L 7.20,25.10 L 8.03,25.54 L 8.10,25.54 L 8.10,24.44 Z" fill="#8f8d97" stroke="none" /><path d="M 2.71,16.27 L 2.71,17.37 L 3.62,17.81 L 3.62,16.70 L 2.78,16.27 Z" fill="#8f8d97" stroke="none" /><path d="M 9.91,9.41 L 9.94,9.47 L 10.74,9.87 L 10.85,9.87 L 11.68,9.44 L 11.68,9.41 L 10.81,8.97 Z" fill="#8f8d97" stroke="none" /><path d="M 9.91,4.92 L 9.91,4.95 L 10.78,5.39 L 11.68,4.95 L 11.68,4.92 L 10.81,4.49 Z" fill="#8f8d97" stroke="none" /><path d="M 8.10,23.36 L 8.10,24.47 L 9.00,24.90 L 9.00,23.80 L 8.17,23.36 Z" fill="#9d9ba5" stroke="none" /><path d="M 2.71,15.16 L 2.71,16.27 L 3.62,16.70 L 3.62,15.60 L 2.78,15.16 Z" fill="#9d9ba5" stroke="none" /><path d="M 11.72,9.41 L 11.75,9.47 L 12.55,9.87 L 12.65,9.87 L 13.46,9.47 L 13.46,9.41 L 12.65,9.00 L 12.52,9.00 Z" fill="#9d9ba5" stroke="none" /><path d="M 10.81,4.49 L 10.81,4.52 L 11.62,4.92 L 11.75,4.92 L 12.55,4.52 L 12.55,4.45 L 11.75,4.05 L 11.65,4.05 Z" fill="#9d9ba5" stroke="none" /><path d="M 14.39,28.69 L 13.49,28.25 L 13.49,29.29 L 13.42,29.32 L 12.65,28.92 L 12.59,28.92 L 12.59,29.96 L 12.55,29.99 L 11.68,29.56 L 11.68,30.66 L 12.59,31.10 L 12.59,30.06 L 12.62,30.03 L 13.49,30.46 L 13.49,29.42 L 13.52,29.39 L 14.33,29.79 L 14.39,29.79 Z" fill="#86bea5" stroke="none" /><path d="M 5.42,25.31 L 5.39,25.31 L 5.39,26.34 L 5.36,26.38 L 4.55,25.97 L 4.49,25.97 L 4.49,27.05 L 5.32,27.48 L 5.39,27.48 L 5.39,26.48 L 5.42,26.44 L 6.23,26.85 L 6.29,26.85 L 6.29,25.74 Z" fill="#86bea5" stroke="none" /><path d="M 13.49,19.45 L 13.49,20.49 L 13.46,20.52 L 12.59,20.08 L 12.59,21.12 L 12.55,21.15 L 11.75,20.75 L 11.68,20.75 L 11.68,21.86 L 12.52,22.26 L 12.59,22.33 L 12.59,23.33 L 12.55,23.36 L 11.75,22.96 L 11.68,22.96 L 11.68,24.07 L 12.52,24.47 L 12.59,24.54 L 12.59,25.61 L 13.42,26.01 L 13.49,26.08 L 13.49,27.15 L 14.33,27.58 L 14.39,27.58 L 14.39,26.48 L 13.56,26.08 L 13.49,26.01 L 13.49,24.94 L 12.65,24.54 L 12.59,24.47 L 12.59,23.46 L 12.62,23.43 L 13.42,23.83 L 13.49,23.83 L 13.49,22.73 L 12.65,22.33 L 12.59,22.26 L 12.59,21.26 L 12.65,21.22 L 13.42,21.62 L 13.49,21.62 L 13.49,20.59 L 13.52,20.55 L 14.39,20.99 L 14.39,19.88 L 13.56,19.45 Z" fill="#86bea5" stroke="none" /><path d="M 10.81,12.59 L 10.81,13.69 L 11.62,14.09 L 11.68,14.16 L 11.68,15.23 L 12.59,15.70 L 12.59,16.80 L 13.42,17.21 L 13.49,17.27 L 13.49,18.34 L 14.33,18.78 L 14.39,18.78 L 14.39,17.67 L 13.56,17.27 L 13.49,17.21 L 13.49,16.13 L 12.59,15.67 L 12.59,14.56 L 11.75,14.16 L 11.68,14.09 L 11.68,13.09 L 11.75,13.05 L 12.62,13.49 L 13.46,13.05 L 13.52,13.05 L 14.36,13.49 L 14.43,13.49 L 15.26,13.05 L 15.33,13.05 L 16.20,13.49 L 17.07,13.05 L 17.07,13.02 L 16.23,12.59 L 16.17,12.59 L 15.33,13.02 L 15.26,13.02 L 14.43,12.59 L 14.36,12.59 L 13.52,13.02 L 13.46,13.02 L 12.62,12.59 L 12.55,12.59 L 11.68,13.02 Z" fill="#86bea5" stroke="none" /><path d="M 22.53,9.41 L 22.53,9.47 L 23.33,9.87 L 23.43,9.87 L 24.27,9.44 L 24.27,9.41 L 23.46,9.00 L 23.33,9.00 Z" fill="#86bea5" stroke="none" /><path d="M 20.72,9.41 L 20.72,9.47 L 21.52,9.87 L 21.66,9.87 L 22.46,9.47 L 22.46,9.41 L 21.66,9.00 L 21.52,9.00 Z" fill="#86bea5" stroke="none" /><path d="M 20.65,9.41 L 19.85,9.00 L 19.72,9.00 L 18.91,9.41 L 18.95,9.47 L 19.72,9.84 L 19.75,9.87 L 19.68,9.94 L 18.95,10.31 L 18.85,10.31 L 17.97,9.87 L 17.10,10.31 L 17.14,10.38 L 17.94,10.78 L 17.87,10.85 L 17.10,11.21 L 17.14,11.28 L 17.94,11.68 L 17.87,11.75 L 17.10,12.12 L 17.10,12.15 L 17.97,12.59 L 18.88,12.15 L 18.88,12.12 L 18.11,11.75 L 18.04,11.68 L 18.85,11.28 L 18.88,11.21 L 18.11,10.85 L 18.04,10.78 L 18.88,10.34 L 19.75,10.78 L 19.85,10.78 L 20.65,10.38 L 20.69,10.31 L 19.92,9.94 L 19.85,9.87 L 20.65,9.47 Z" fill="#86bea5" stroke="none" /><path d="M 6.33,9.41 L 6.33,9.47 L 7.13,9.87 L 7.26,9.87 L 8.07,9.47 L 8.07,9.41 L 7.26,9.00 L 7.13,9.00 Z" fill="#86bea5" stroke="none" /><path d="M 3.62,9.00 L 3.62,10.11 L 4.49,10.54 L 4.49,11.65 L 5.32,12.05 L 5.39,12.12 L 5.39,13.19 L 6.23,13.62 L 6.29,13.62 L 6.29,12.52 L 5.46,12.12 L 5.39,12.05 L 5.39,10.98 L 4.49,10.51 L 4.49,9.47 L 4.52,9.44 L 5.36,9.87 L 5.46,9.87 L 6.26,9.47 L 6.26,9.41 L 5.46,9.00 L 5.32,9.00 L 4.55,9.41 L 4.45,9.41 L 3.68,9.00 Z" fill="#86bea5" stroke="none" /><path d="M 25.14,5.39 L 24.30,5.82 L 24.30,5.86 L 25.07,6.23 L 25.14,6.29 L 24.30,6.73 L 24.30,6.76 L 25.07,7.13 L 25.14,7.20 L 24.33,7.60 L 24.30,7.67 L 25.07,8.03 L 25.14,8.10 L 24.33,8.50 L 24.33,8.57 L 25.14,8.97 L 25.24,8.97 L 26.04,8.57 L 26.04,8.50 L 25.24,8.10 L 25.31,8.03 L 26.08,7.67 L 26.04,7.60 L 25.24,7.20 L 25.31,7.13 L 26.08,6.76 L 26.08,6.73 L 25.24,6.29 L 25.31,6.23 L 26.08,5.86 L 26.08,5.82 L 25.21,5.39 Z" fill="#86bea5" stroke="none" /><path d="M 17.91,1.81 L 17.10,2.21 L 17.14,2.28 L 17.94,2.68 L 17.87,2.74 L 17.10,3.11 L 17.10,3.15 L 17.94,3.58 L 17.87,3.65 L 17.10,4.02 L 17.10,4.05 L 17.94,4.49 L 18.04,4.49 L 18.88,4.05 L 18.88,4.02 L 18.11,3.65 L 18.04,3.58 L 18.88,3.15 L 18.88,3.11 L 18.11,2.74 L 18.04,2.68 L 18.85,2.28 L 18.85,2.21 L 18.04,1.81 Z" fill="#86bea5" stroke="none" /><path d="M 2.71,14.06 L 2.71,15.16 L 3.62,15.60 L 3.62,14.49 L 2.78,14.06 Z" fill="#a6a3ad" stroke="none" /><path d="M 11.72,4.02 L 11.75,4.08 L 12.55,4.49 L 12.62,4.49 L 13.49,4.05 L 13.49,4.02 L 12.62,3.58 Z" fill="#a6a3ad" stroke="none" /><path d="M 10.85,24.70 L 10.81,24.70 L 10.81,25.74 L 10.78,25.77 L 9.97,25.37 L 9.91,25.37 L 9.91,26.41 L 9.87,26.44 L 9.00,26.01 L 9.00,27.11 L 9.91,27.58 L 9.91,28.69 L 10.78,29.12 L 10.81,29.12 L 10.81,28.08 L 10.85,28.05 L 11.68,28.45 L 11.68,27.41 L 11.72,27.38 L 12.52,27.78 L 12.59,27.78 L 12.59,26.68 L 11.75,26.28 L 11.68,26.21 L 11.68,25.14 Z" fill="#9fc1b2" stroke="none" /><path d="M 0.90,21.96 L 0.90,23.06 L 1.81,23.53 L 1.81,24.64 L 3.55,25.51 L 3.62,25.51 L 3.62,24.40 L 1.84,23.53 L 1.81,23.50 L 1.81,22.39 Z" fill="#9fc1b2" stroke="none" /><path d="M 9.91,14.36 L 9.91,15.40 L 9.87,15.43 L 9.00,15.00 L 9.00,16.10 L 9.91,16.57 L 9.91,17.64 L 10.81,18.11 L 10.81,19.21 L 11.62,19.62 L 11.68,19.62 L 11.68,18.58 L 11.72,18.54 L 12.59,18.98 L 12.59,17.87 L 11.75,17.47 L 11.68,17.41 L 11.68,16.33 L 10.88,15.93 L 10.81,15.87 L 10.81,14.79 L 9.97,14.36 Z" fill="#9fc1b2" stroke="none" /><path d="M 10.81,10.78 L 10.81,10.81 L 11.58,11.18 L 11.65,11.25 L 10.85,11.65 L 10.81,11.72 L 11.62,12.12 L 11.75,12.12 L 12.59,11.68 L 13.42,12.12 L 13.56,12.12 L 14.39,11.68 L 15.23,12.12 L 15.36,12.12 L 16.17,11.72 L 16.17,11.65 L 15.36,11.25 L 15.40,11.18 L 16.17,10.81 L 16.17,10.78 L 15.33,10.34 L 15.23,10.34 L 14.39,10.78 L 13.56,10.34 L 13.46,10.34 L 12.62,10.78 L 11.75,10.34 L 11.65,10.34 Z" fill="#9fc1b2" stroke="none" /><path d="M 0.90,10.95 L 0.90,12.05 L 1.74,12.49 L 1.81,12.49 L 1.81,11.45 L 1.84,11.41 L 3.55,12.28 L 3.62,12.28 L 3.62,11.18 L 1.87,10.31 L 1.81,10.31 L 1.81,11.35 L 1.77,11.38 Z" fill="#9fc1b2" stroke="none" /><path d="M 2.71,6.73 L 2.71,6.76 L 3.48,7.13 L 3.55,7.20 L 2.74,7.60 L 2.71,7.67 L 4.45,8.54 L 4.52,8.54 L 5.39,8.10 L 5.39,8.07 L 3.65,7.20 L 3.72,7.13 L 4.49,6.76 L 4.45,6.69 L 3.65,6.29 L 3.55,6.29 Z" fill="#9fc1b2" stroke="none" /><path d="M 19.82,6.26 L 19.85,6.33 L 20.65,6.73 L 20.59,6.79 L 19.82,7.16 L 19.82,7.20 L 20.65,7.63 L 19.78,8.07 L 19.78,8.10 L 20.65,8.54 L 20.72,8.54 L 21.56,8.10 L 21.62,8.10 L 22.46,8.54 L 22.53,8.54 L 23.40,8.10 L 23.40,8.07 L 22.53,7.63 L 23.36,7.20 L 23.36,7.16 L 22.59,6.79 L 22.53,6.73 L 23.33,6.33 L 23.36,6.26 L 22.56,5.86 L 22.43,5.86 L 21.59,6.29 L 20.75,5.86 L 20.62,5.86 Z" fill="#9fc1b2" stroke="none" /><path d="M 13.52,2.21 L 13.52,2.28 L 15.26,3.15 L 16.17,2.71 L 16.13,2.64 L 14.46,1.81 L 14.33,1.81 Z" fill="#9fc1b2" stroke="none" /><path d="M 11.72,2.21 L 11.72,2.28 L 12.52,2.68 L 12.65,2.68 L 13.46,2.28 L 13.46,2.21 L 12.65,1.81 L 12.52,1.81 Z" fill="#9fc1b2" stroke="none" /><path d="M 3.62,14.49 L 3.62,22.23 L 8.03,24.44 L 8.10,24.44 L 8.10,23.40 L 8.13,23.36 L 9.00,23.80 L 9.00,22.76 L 9.04,22.73 L 9.91,23.16 L 9.91,22.13 L 9.94,22.09 L 10.74,22.49 L 10.81,22.49 L 10.81,21.39 L 9.97,20.99 L 9.91,20.92 L 9.91,19.85 L 9.00,19.38 L 9.00,18.28 L 8.17,17.87 L 8.10,17.81 L 8.10,16.74 L 8.07,16.70 Z" fill="#b1aeb7" stroke="none" /><path d="M 17.97,9.00 L 17.94,8.94 L 17.14,8.54 L 17.97,8.10 L 17.97,8.07 L 17.21,7.70 L 17.14,7.63 L 17.97,7.20 L 17.97,7.16 L 17.21,6.79 L 17.14,6.73 L 17.94,6.33 L 17.97,6.26 L 13.56,4.05 L 13.42,4.05 L 7.20,7.16 L 7.20,7.20 L 11.68,9.44 L 12.55,9.00 L 12.62,9.00 L 13.46,9.44 L 13.52,9.44 L 14.36,9.00 L 14.43,9.00 L 15.26,9.44 L 15.33,9.44 L 16.17,9.00 L 16.23,9.00 L 17.10,9.44 Z" fill="#b1aeb7" stroke="none" /><path d="M 3.68,24.44 L 3.62,24.44 L 3.62,25.47 L 3.58,25.51 L 2.71,25.07 L 2.71,26.18 L 3.58,26.61 L 3.62,26.61 L 3.62,25.57 L 3.65,25.54 L 4.42,25.94 L 4.49,25.94 L 4.49,24.84 Z" fill="#a6cfbd" stroke="none" /><path d="M 10.88,23.63 L 10.81,23.63 L 10.81,24.70 L 11.62,25.10 L 11.68,25.17 L 11.68,26.24 L 12.59,26.71 L 12.59,27.75 L 12.55,27.78 L 11.68,27.35 L 11.68,28.38 L 11.62,28.42 L 10.81,28.02 L 10.81,29.05 L 10.78,29.09 L 9.97,28.69 L 9.91,28.69 L 9.91,29.76 L 10.74,30.19 L 10.81,30.19 L 10.81,29.19 L 10.85,29.15 L 11.68,29.56 L 11.68,28.52 L 11.72,28.49 L 12.52,28.89 L 12.59,28.89 L 12.59,27.85 L 12.62,27.82 L 13.49,28.25 L 13.49,27.15 L 12.59,26.68 L 12.59,25.57 L 11.75,25.17 L 11.68,25.10 L 11.68,24.03 Z" fill="#a6cfbd" stroke="none" /><path d="M 9.91,13.26 L 9.91,14.36 L 10.74,14.76 L 10.81,14.83 L 10.81,15.90 L 11.62,16.30 L 11.68,16.37 L 11.68,17.44 L 12.59,17.91 L 12.59,18.91 L 12.55,18.95 L 11.75,18.54 L 11.68,18.54 L 11.68,19.58 L 11.65,19.62 L 10.88,19.21 L 10.81,19.21 L 10.81,20.32 L 11.62,20.72 L 11.68,20.72 L 11.68,19.68 L 11.72,19.65 L 12.59,20.08 L 12.59,19.05 L 12.62,19.01 L 13.42,19.41 L 13.49,19.41 L 13.49,18.34 L 12.59,17.87 L 12.59,16.77 L 11.75,16.37 L 11.68,16.30 L 11.68,15.23 L 10.88,14.83 L 10.81,14.76 L 10.81,13.69 L 9.97,13.26 Z" fill="#a6cfbd" stroke="none" /><path d="M 17.07,10.31 L 16.20,9.87 L 15.30,10.31 L 15.33,10.38 L 16.13,10.78 L 16.07,10.85 L 15.30,11.21 L 15.30,11.25 L 16.17,11.68 L 15.33,12.12 L 15.26,12.12 L 14.43,11.68 L 14.36,11.68 L 13.52,12.12 L 13.46,12.12 L 12.62,11.68 L 12.55,11.68 L 11.72,12.12 L 11.65,12.12 L 10.78,11.68 L 9.91,12.12 L 9.91,12.15 L 10.78,12.59 L 11.65,12.15 L 11.72,12.15 L 12.55,12.59 L 12.62,12.59 L 13.46,12.15 L 13.52,12.15 L 14.36,12.59 L 14.43,12.59 L 15.26,12.15 L 15.33,12.15 L 16.17,12.59 L 16.23,12.59 L 17.10,12.15 L 17.10,12.12 L 16.23,11.68 L 17.07,11.25 L 17.07,11.21 L 16.30,10.85 L 16.23,10.78 L 17.04,10.38 Z" fill="#a6cfbd" stroke="none" /><path d="M 2.71,9.64 L 2.71,10.74 L 3.62,11.21 L 3.62,12.32 L 4.42,12.72 L 4.49,12.72 L 4.49,11.62 L 3.62,11.18 L 3.62,10.08 Z" fill="#a6cfbd" stroke="none" /><path d="M 20.72,8.50 L 20.72,8.57 L 21.52,8.97 L 21.66,8.97 L 22.46,8.57 L 22.46,8.50 L 21.66,8.10 L 21.52,8.10 Z" fill="#a6cfbd" stroke="none" /><path d="M 18.91,8.50 L 18.91,8.57 L 19.72,8.97 L 19.85,8.97 L 20.65,8.57 L 20.65,8.50 L 19.85,8.10 L 19.72,8.10 Z" fill="#a6cfbd" stroke="none" /><path d="M 4.52,8.50 L 4.52,8.57 L 5.32,8.97 L 5.46,8.97 L 6.26,8.57 L 6.26,8.50 L 5.46,8.10 L 5.32,8.10 Z" fill="#a6cfbd" stroke="none" /><path d="M 2.74,8.50 L 2.74,8.57 L 3.55,8.97 L 3.65,8.97 L 4.45,8.57 L 4.45,8.50 L 3.65,8.10 L 3.55,8.10 Z" fill="#a6cfbd" stroke="none" /><path d="M 23.36,5.39 L 22.49,5.82 L 22.49,5.86 L 23.26,6.23 L 23.33,6.29 L 22.49,6.73 L 22.49,6.76 L 23.26,7.13 L 23.33,7.20 L 22.53,7.60 L 22.53,7.67 L 23.33,8.07 L 23.30,8.13 L 22.53,8.50 L 22.53,8.57 L 23.33,8.97 L 23.46,8.97 L 24.27,8.57 L 24.27,8.50 L 23.46,8.10 L 23.50,8.03 L 24.27,7.67 L 24.27,7.63 L 23.43,7.20 L 23.50,7.13 L 24.27,6.76 L 24.27,6.73 L 23.43,6.29 L 23.50,6.23 L 24.27,5.86 L 24.27,5.82 L 23.43,5.39 Z" fill="#a6cfbd" stroke="none" /><path d="M 16.13,1.81 L 15.33,2.21 L 15.33,2.28 L 16.13,2.68 L 16.07,2.74 L 15.30,3.11 L 15.30,3.15 L 16.13,3.58 L 16.23,3.58 L 17.07,3.15 L 17.07,3.11 L 16.30,2.74 L 16.23,2.68 L 17.04,2.28 L 17.07,2.21 L 16.27,1.81 Z" fill="#a6cfbd" stroke="none" /><path d="M 9.94,22.06 L 9.91,22.06 L 9.91,23.10 L 9.87,23.13 L 9.07,22.73 L 9.00,22.73 L 9.00,23.80 L 9.84,24.23 L 9.91,24.23 L 9.91,23.23 L 9.94,23.20 L 10.74,23.60 L 10.81,23.60 L 10.81,22.49 Z" fill="#c3c0cb" stroke="none" /><path d="M 2.71,12.95 L 2.71,14.06 L 5.32,15.36 L 5.39,15.36 L 5.39,14.29 L 5.36,14.26 Z" fill="#c3c0cb" stroke="none" /><path d="M 15.33,9.41 L 15.33,9.47 L 16.13,9.87 L 16.23,9.87 L 17.07,9.44 L 17.07,9.41 L 16.27,9.00 L 16.13,9.00 Z" fill="#c3c0cb" stroke="none" /><path d="M 13.52,9.41 L 13.52,9.47 L 14.33,9.87 L 14.46,9.87 L 15.26,9.47 L 15.26,9.41 L 14.46,9.00 L 14.33,9.00 Z" fill="#c3c0cb" stroke="none" /><path d="M 12.62,3.58 L 12.62,3.62 L 15.23,4.92 L 15.36,4.92 L 16.17,4.52 L 16.13,4.45 L 13.52,3.15 L 13.46,3.15 Z" fill="#c3c0cb" stroke="none" /><path d="M 10.81,21.42 L 10.81,22.53 L 11.62,22.93 L 11.68,22.93 L 11.68,21.82 L 10.88,21.42 Z" fill="#cbc8d2" stroke="none" /><path d="M 5.39,14.29 L 5.39,15.40 L 7.13,16.27 L 7.20,16.27 L 7.20,15.20 Z" fill="#cbc8d2" stroke="none" /><path d="M 17.10,9.41 L 17.14,9.47 L 17.94,9.87 L 18.04,9.87 L 18.88,9.44 L 18.88,9.41 L 18.01,8.97 Z" fill="#cbc8d2" stroke="none" /><path d="M 15.30,4.92 L 15.30,4.95 L 17.04,5.82 L 17.14,5.82 L 17.97,5.39 L 17.97,5.36 L 16.70,4.72 L 16.64,4.72 L 16.20,4.49 Z" fill="#cbc8d2" stroke="none" /><path d="M 9.91,19.85 L 9.91,20.95 L 10.74,21.39 L 10.81,21.39 L 10.81,20.28 Z" fill="#cfcdd7" stroke="none" /><path d="M 7.20,15.20 L 7.20,16.30 L 8.10,16.74 L 8.10,15.63 Z" fill="#cfcdd7" stroke="none" /><path d="M 17.14,8.50 L 17.14,8.57 L 17.94,8.97 L 18.04,8.97 L 18.85,8.57 L 18.85,8.50 L 18.04,8.10 L 17.94,8.10 Z" fill="#cfcdd7" stroke="none" /><path d="M 17.10,5.82 L 17.10,5.86 L 17.97,6.29 L 18.88,5.86 L 18.85,5.79 L 18.04,5.39 L 17.94,5.39 Z" fill="#cfcdd7" stroke="none" /><path d="M 8.10,16.74 L 8.10,17.84 L 9.00,18.31 L 9.00,19.41 L 9.91,19.85 L 9.91,18.74 L 9.00,18.28 L 9.00,17.17 Z" fill="#d2cfda" stroke="none" /><path d="M 17.94,6.29 L 17.10,6.73 L 17.10,6.76 L 17.87,7.13 L 17.94,7.20 L 17.14,7.60 L 17.10,7.67 L 18.01,8.10 L 18.88,7.67 L 18.85,7.60 L 18.04,7.20 L 18.11,7.13 L 18.88,6.76 L 18.88,6.73 L 18.04,6.29 Z" fill="#d2cfda" stroke="none" /></svg>