<svg height="32" width="32" viewBox="0 0 32 32"><defs /><path d="M 0.00,25.17 L 0.00,32.00 L 22.88,32.00 L 22.88,29.75 L 2.32,29.75 L 2.29,29.71 L 2.29,25.17 Z" fill="#cb817c" stroke="none" /><path d="M 0.00,16.02 L 0.00,22.88 L 2.29,22.88 L 2.29,16.02 Z" fill="#cb817c" stroke="none" /><path d="M 0.00,6.86 L 0.00,13.73 L 2.29,13.73 L 2.29,6.86 Z" fill="#cb817c" stroke="none" /><path d="M 0.00,0.00 L 0.00,4.58 L 2.29,4.58 L 2.29,0.00 Z" fill="#cb817c" stroke="none" /><path d="M 11.44,13.73 L 11.44,16.02 L 13.73,16.02 L 13.73,13.73 Z" fill="#cd8580" stroke="none" /><path d="M 16.02,9.15 L 16.02,11.44 L 18.31,11.44 L 18.31,9.15 Z" fill="#cd8580" stroke="none" /><path d="M 6.86,9.15 L 6.86,11.44 L 9.15,11.44 L 9.15,9.15 Z" fill="#cd8580" stroke="none" /><path d="M 11.44,4.58 L 11.44,6.86 L 13.73,6.86 L 13.73,4.58 Z" fill="#cd8580" stroke="none" /><path d="M 16.02,20.59 L 16.02,22.85 L 15.98,22.88 L 13.73,22.88 L 13.73,25.17 L 16.02,25.17 L 16.02,22.92 L 16.05,22.88 L 18.27,22.88 L 18.31,22.92 L 18.31,29.75 L 20.59,29.75 L 20.59,22.88 L 18.34,22.88 L 18.31,22.85 L 18.31,20.59 Z" fill="#d89791" stroke="none" /><path d="M 9.15,20.59 L 6.86,20.59 L 6.86,22.85 L 6.83,22.88 L 4.58,22.88 L 4.58,29.75 L 6.86,29.75 L 6.86,22.92 L 6.90,22.88 L 9.12,22.88 L 9.15,22.92 L 9.15,25.17 L 11.44,25.17 L 11.44,22.88 L 9.19,22.88 L 9.15,22.85 Z" fill="#d89791" stroke="none" /><path d="M 2.29,2.29 L 2.29,4.58 L 4.54,4.58 L 4.58,4.61 L 4.58,16.02 L 6.86,16.02 L 6.86,4.61 L 6.90,4.58 L 18.27,4.58 L 18.31,4.61 L 18.31,16.02 L 20.59,16.02 L 20.59,4.61 L 20.63,4.58 L 22.88,4.58 L 22.88,2.29 Z" fill="#d89791" stroke="none" /><path d="M 18.31,20.59 L 18.31,22.88 L 20.59,22.88 L 20.59,20.59 Z" fill="#dd9d97" stroke="none" /><path d="M 4.58,20.59 L 4.58,22.88 L 6.86,22.88 L 6.86,20.59 Z" fill="#dd9d97" stroke="none" /><path d="M 13.73,25.17 L 13.73,29.75 L 16.02,29.75 L 16.02,25.17 Z" fill="#dfa39b" stroke="none" /><path d="M 9.15,25.17 L 9.15,29.75 L 11.44,29.75 L 11.44,25.17 Z" fill="#dfa39b" stroke="none" /><path d="M 20.59,4.58 L 20.59,6.86 L 22.88,6.86 L 22.88,4.58 Z" fill="#e5aea8" stroke="none" /><path d="M 2.29,4.58 L 2.29,6.86 L 4.58,6.86 L 4.58,4.58 Z" fill="#e5aea8" stroke="none" /><path d="M 20.59,27.46 L 20.59,29.75 L 22.88,29.75 L 22.88,27.46 Z" fill="#e6b3ad" stroke="none" /><path d="M 11.44,27.46 L 11.44,29.75 L 13.73,29.75 L 13.73,27.46 Z" fill="#e6b3ad" stroke="none" /><path d="M 2.29,27.46 L 2.29,29.75 L 4.58,29.75 L 4.58,27.46 Z" fill="#e6b3ad" stroke="none" /><path d="M 16.02,22.88 L 16.02,25.17 L 18.31,25.17 L 18.31,22.88 Z" fill="#e6b3ad" stroke="none" /><path d="M 11.44,22.88 L 11.44,25.17 L 13.73,25.17 L 13.73,22.88 Z" fill="#e6b3ad" stroke="none" /><path d="M 6.86,22.88 L 6.86,25.17 L 9.15,25.17 L 9.15,22.88 Z" fill="#e6b3ad" stroke="none" /><path d="M 2.29,20.59 L 2.29,25.17 L 4.58,25.17 L 4.58,20.59 Z" fill="#e6b3ad" stroke="none" /><path d="M 6.86,18.31 L 6.86,20.59 L 9.15,20.59 L 9.15,18.31 Z" fill="#e6b3ad" stroke="none" /><path d="M 6.86,11.44 L 6.86,13.73 L 9.12,13.73 L 9.15,13.77 L 9.15,16.02 L 11.44,16.02 L 11.44,13.73 L 9.19,13.73 L 9.15,13.69 L 9.15,11.44 Z" fill="#e6b3ad" stroke="none" /><path d="M 20.59,6.86 L 20.59,9.15 L 22.88,9.15 L 22.88,6.86 Z" fill="#e6b3ad" stroke="none" /><path d="M 13.73,4.58 L 13.73,6.86 L 15.98,6.86 L 16.02,6.90 L 16.02,9.15 L 18.31,9.15 L 18.31,6.86 L 16.05,6.86 L 16.02,6.83 L 16.02,4.58 Z" fill="#e6b3ad" stroke="none" /><path d="M 6.86,4.58 L 6.86,6.86 L 9.12,6.86 L 9.15,6.90 L 9.15,9.15 L 11.41,9.15 L 11.44,9.19 L 11.44,11.44 L 13.69,11.44 L 13.73,11.48 L 13.73,13.73 L 15.98,13.73 L 16.02,13.77 L 16.02,16.02 L 18.27,16.02 L 18.31,16.05 L 18.31,20.59 L 20.56,20.59 L 20.59,20.63 L 20.59,22.88 L 22.88,22.88 L 22.88,18.31 L 20.63,18.31 L 20.59,18.27 L 20.59,16.02 L 18.34,16.02 L 18.31,15.98 L 18.31,13.73 L 16.05,13.73 L 16.02,13.69 L 16.02,11.44 L 13.77,11.44 L 13.73,11.41 L 13.73,9.15 L 11.48,9.15 L 11.44,9.12 L 11.44,6.86 L 9.19,6.86 L 9.15,6.83 L 9.15,4.58 Z" fill="#e6b3ad" stroke="none" /><path d="M 18.31,0.00 L 18.31,2.29 L 22.88,2.29 L 22.88,0.00 Z" fill="#e6b3ad" stroke="none" /><path d="M 6.86,0.00 L 6.86,2.29 L 13.73,2.29 L 13.73,0.00 Z" fill="#e6b3ad" stroke="none" /><path d="M 16.02,25.17 L 16.02,29.75 L 18.31,29.75 L 18.31,25.17 Z" fill="#e7bab4" stroke="none" /><path d="M 11.44,25.17 L 11.44,27.46 L 13.73,27.46 L 13.73,25.17 Z" fill="#e7bab4" stroke="none" /><path d="M 6.86,25.17 L 6.86,29.75 L 9.15,29.75 L 9.15,25.17 Z" fill="#e7bab4" stroke="none" /><path d="M 2.29,25.17 L 2.29,27.46 L 4.58,27.46 L 4.58,25.17 Z" fill="#e7bab4" stroke="none" /><path d="M 20.59,22.88 L 20.59,27.46 L 22.88,27.46 L 22.88,22.88 Z" fill="#e7bab4" stroke="none" /><path d="M 16.02,18.31 L 16.02,20.59 L 18.31,20.59 L 18.31,18.31 Z" fill="#e7bab4" stroke="none" /><path d="M 11.44,18.31 L 11.44,20.59 L 13.73,20.59 L 13.73,18.31 Z" fill="#e7bab4" stroke="none" /><path d="M 20.59,9.15 L 20.59,18.31 L 22.88,18.31 L 22.88,9.15 Z" fill="#e7bab4" stroke="none" /><path d="M 2.29,6.86 L 2.29,20.59 L 4.58,20.59 L 4.58,6.86 Z" fill="#e7bab4" stroke="none" /><path d="M 13.73,0.00 L 13.73,2.29 L 18.31,2.29 L 18.31,0.00 Z" fill="#e7bab4" stroke="none" /><path d="M 2.29,0.00 L 2.29,2.29 L 6.86,2.29 L 6.86,0.00 Z" fill="#e7bab4" stroke="none" /><path d="M 4.58,20.59 L 6.86,20.59 L 6.86,18.34 L 6.90,18.31 L 18.31,18.31 L 18.31,16.02 L 6.86,16.02 L 6.86,18.27 L 6.83,18.31 L 4.58,18.31 Z" fill="#e7c2bb" stroke="none" /><path d="M 4.58,16.02 L 4.58,18.31 L 6.86,18.31 L 6.86,16.02 Z" fill="#e7cac5" stroke="none" /><path d="M 0.00,22.88 L 0.00,25.17 L 2.29,25.17 L 2.29,22.88 Z" fill="#ddd9cb" stroke="none" /><path d="M 9.15,18.31 L 9.15,22.88 L 13.73,22.88 L 13.73,20.59 L 11.48,20.59 L 11.44,20.56 L 11.44,18.31 Z" fill="#ddd9cb" stroke="none" /><path d="M 0.00,13.73 L 0.00,16.02 L 2.29,16.02 L 2.29,13.73 Z" fill="#ddd9cb" stroke="none" /><path d="M 13.73,18.31 L 13.73,22.88 L 16.02,22.88 L 16.02,18.31 Z" fill="#eee6de" stroke="none" /><path d="M 0.00,4.58 L 0.00,6.86 L 2.29,6.86 L 2.29,4.58 Z" fill="#eee6de" stroke="none" /></svg>