<svg height="32" width="32" viewBox="0 0 32 32"><defs /><path d="M 23.41,26.47 L 23.35,26.47 L 22.52,26.88 L 22.52,27.96 L 23.41,27.51 Z" fill="#4e452d" stroke="none" /><path d="M 17.97,24.75 L 17.08,25.19 L 17.08,26.27 L 16.19,26.72 L 16.19,27.83 L 16.25,27.83 L 17.08,27.42 L 17.08,26.31 L 17.97,25.86 Z" fill="#4e452d" stroke="none" /><path d="M 21.60,22.93 L 19.79,23.83 L 19.79,24.94 L 21.60,24.05 Z" fill="#4e452d" stroke="none" /><path d="M 27.04,20.23 L 26.97,20.23 L 24.37,21.53 L 24.33,21.57 L 24.33,22.65 L 24.40,22.65 L 26.08,21.79 L 26.15,21.82 L 26.15,22.87 L 27.01,22.46 L 27.04,22.43 Z" fill="#4e452d" stroke="none" /><path d="M 20.71,15.62 L 18.89,16.51 L 18.89,17.62 L 19.75,17.21 L 19.79,17.24 L 19.79,18.29 L 20.68,17.84 L 20.71,17.88 L 20.71,18.93 L 19.79,19.40 L 19.79,21.60 L 19.85,21.60 L 20.71,21.15 L 20.71,20.07 L 20.74,20.04 L 22.46,19.18 L 22.52,19.21 L 22.52,20.23 L 22.58,20.23 L 23.41,19.82 L 23.41,17.59 L 22.55,18.00 L 22.52,17.97 L 22.52,16.92 L 22.49,16.92 L 20.74,17.81 L 20.71,17.78 Z" fill="#4e452d" stroke="none" /><path d="M 24.33,13.81 L 22.52,14.70 L 22.52,15.81 L 23.38,15.40 L 23.41,15.43 L 23.41,16.48 L 24.33,16.03 Z" fill="#4e452d" stroke="none" /><path d="M 25.22,11.13 L 24.33,11.58 L 24.33,12.69 L 25.22,12.25 Z" fill="#4e452d" stroke="none" /><path d="M 28.82,9.35 L 28.76,9.35 L 26.15,10.66 L 26.15,11.77 L 26.21,11.77 L 27.90,10.91 L 27.93,10.94 L 27.93,17.53 L 24.33,19.34 L 24.33,20.45 L 24.37,20.45 L 27.90,18.67 L 27.93,18.70 L 27.93,24.17 L 24.37,25.96 L 24.33,25.99 L 24.33,27.04 L 24.40,27.04 L 28.82,24.81 Z" fill="#4e452d" stroke="none" /><path d="M 16.19,27.86 L 16.13,27.86 L 15.27,28.31 L 15.27,29.42 L 16.19,28.98 Z" fill="#534a37" stroke="none" /><path d="M 22.52,26.91 L 22.46,26.91 L 14.44,30.92 L 14.41,30.95 L 14.41,32.00 L 14.47,32.00 L 22.49,27.99 L 22.52,27.96 Z" fill="#534a37" stroke="none" /><path d="M 24.33,25.99 L 23.41,26.43 L 23.41,27.51 L 24.33,27.07 Z" fill="#534a37" stroke="none" /><path d="M 19.79,24.94 L 17.97,25.83 L 17.97,26.94 L 17.08,27.39 L 17.08,28.50 L 17.15,28.50 L 17.97,28.09 L 17.97,26.97 L 18.00,26.94 L 19.79,26.05 Z" fill="#534a37" stroke="none" /><path d="M 22.52,23.57 L 20.71,24.46 L 20.71,26.69 L 20.77,26.69 L 21.60,26.27 L 21.60,25.16 L 22.52,24.68 Z" fill="#534a37" stroke="none" /><path d="M 24.33,22.68 L 24.27,22.68 L 23.41,23.13 L 23.41,25.35 L 24.33,24.91 Z" fill="#534a37" stroke="none" /><path d="M 27.04,22.43 L 26.15,22.87 L 26.15,23.98 L 27.04,23.54 Z" fill="#534a37" stroke="none" /><path d="M 24.33,19.34 L 15.27,23.86 L 15.27,24.97 L 15.33,24.97 L 24.30,20.49 L 24.33,20.45 Z" fill="#534a37" stroke="none" /><path d="M 19.79,17.18 L 18.89,17.62 L 18.89,18.74 L 19.79,18.29 Z" fill="#534a37" stroke="none" /><path d="M 16.19,15.65 L 15.27,16.10 L 15.27,17.21 L 15.33,17.21 L 16.19,16.76 Z" fill="#534a37" stroke="none" /><path d="M 23.41,15.36 L 22.52,15.81 L 22.52,16.92 L 23.41,16.48 Z" fill="#534a37" stroke="none" /><path d="M 24.33,11.58 L 17.11,15.17 L 17.08,15.20 L 17.08,16.32 L 24.30,12.72 L 24.33,12.69 Z" fill="#534a37" stroke="none" /><path d="M 26.15,10.69 L 26.08,10.69 L 25.22,11.13 L 25.22,12.25 L 26.15,11.80 Z" fill="#534a37" stroke="none" /><path d="M 17.97,25.86 L 17.91,25.86 L 17.08,26.27 L 17.08,27.39 L 17.15,27.39 L 17.97,26.97 Z" fill="#544d3b" stroke="none" /><path d="M 23.41,25.35 L 21.60,26.24 L 21.60,27.36 L 23.41,26.47 Z" fill="#544d3b" stroke="none" /><path d="M 20.71,24.49 L 20.64,24.49 L 19.79,24.94 L 19.79,26.05 L 20.71,25.61 Z" fill="#544d3b" stroke="none" /><path d="M 26.15,23.98 L 25.22,24.43 L 25.22,25.54 L 26.15,25.10 Z" fill="#544d3b" stroke="none" /><path d="M 15.27,23.89 L 15.20,23.89 L 14.41,24.30 L 14.41,25.42 L 15.27,25.00 Z" fill="#544d3b" stroke="none" /><path d="M 23.41,23.13 L 22.52,23.57 L 22.52,24.68 L 23.41,24.24 Z" fill="#544d3b" stroke="none" /><path d="M 27.93,23.09 L 27.04,23.54 L 27.04,24.62 L 27.10,24.62 L 27.93,24.21 Z" fill="#544d3b" stroke="none" /><path d="M 27.93,20.87 L 27.04,21.31 L 27.04,22.43 L 27.93,21.98 Z" fill="#544d3b" stroke="none" /><path d="M 15.27,16.13 L 15.20,16.13 L 14.41,16.54 L 14.41,17.65 L 15.27,17.24 Z" fill="#544d3b" stroke="none" /><path d="M 17.08,15.20 L 16.19,15.65 L 16.19,16.76 L 17.08,16.32 Z" fill="#544d3b" stroke="none" /><path d="M 27.04,12.47 L 26.97,12.47 L 26.15,12.88 L 26.15,15.11 L 26.97,14.70 L 27.04,14.73 L 27.04,15.75 L 26.97,15.81 L 26.15,16.22 L 26.15,18.42 L 26.21,18.42 L 27.93,17.56 L 27.93,13.11 L 27.07,13.52 L 27.04,13.49 Z" fill="#544d3b" stroke="none" /><path d="M 20.71,12.31 L 20.64,12.31 L 18.89,13.20 L 18.89,14.28 L 18.96,14.28 L 20.71,13.39 Z" fill="#544d3b" stroke="none" /><path d="M 28.82,8.24 L 27.93,8.68 L 27.93,9.77 L 27.99,9.77 L 28.82,9.35 Z" fill="#544d3b" stroke="none" /><path d="M 16.19,28.98 L 16.13,28.98 L 15.27,29.42 L 15.27,30.50 L 15.33,30.50 L 16.19,30.06 Z" fill="#565340" stroke="none" /><path d="M 21.60,26.27 L 21.53,26.27 L 19.85,27.13 L 19.79,27.10 L 19.79,26.05 L 18.93,26.47 L 18.89,26.50 L 18.89,27.58 L 18.83,27.64 L 17.97,28.06 L 17.97,29.17 L 21.57,27.39 L 21.60,27.36 Z" fill="#565340" stroke="none" /><path d="M 17.08,25.19 L 15.27,26.08 L 15.27,28.31 L 16.19,27.86 L 16.19,26.75 L 17.08,26.31 Z" fill="#565340" stroke="none" /><path d="M 19.79,23.86 L 19.72,23.86 L 17.97,24.75 L 17.97,25.83 L 18.04,25.83 L 19.79,24.94 Z" fill="#565340" stroke="none" /><path d="M 27.93,21.98 L 27.04,22.43 L 27.04,23.51 L 26.97,23.57 L 26.21,23.95 L 26.15,23.92 L 26.15,22.87 L 24.33,23.76 L 24.33,24.87 L 23.48,25.32 L 23.41,25.29 L 23.41,24.24 L 22.55,24.65 L 22.52,24.68 L 22.52,25.80 L 23.38,25.38 L 23.41,25.42 L 23.41,26.43 L 23.48,26.43 L 25.22,25.54 L 25.22,24.46 L 25.26,24.43 L 26.12,24.02 L 26.15,24.05 L 26.15,25.07 L 26.21,25.07 L 27.04,24.65 L 27.04,23.57 L 27.10,23.51 L 27.93,23.09 Z" fill="#565340" stroke="none" /><path d="M 24.33,21.57 L 21.63,22.90 L 21.60,22.93 L 21.60,24.02 L 21.66,24.02 L 24.33,22.68 Z" fill="#565340" stroke="none" /><path d="M 18.89,16.54 L 18.83,16.54 L 17.11,17.40 L 17.08,17.43 L 17.08,18.51 L 16.22,18.96 L 16.19,18.93 L 16.19,17.88 L 15.27,18.32 L 15.27,22.78 L 16.16,22.33 L 16.19,22.36 L 16.19,23.41 L 17.94,22.55 L 17.97,22.52 L 17.97,21.44 L 19.79,20.52 L 19.79,19.40 L 18.96,19.82 L 18.89,19.79 Z" fill="#565340" stroke="none" /><path d="M 22.52,14.73 L 22.46,14.73 L 20.71,15.62 L 20.71,17.81 L 20.77,17.81 L 22.52,16.92 Z" fill="#565340" stroke="none" /><path d="M 18.89,13.20 L 15.30,14.98 L 15.27,15.01 L 15.27,16.10 L 15.33,16.10 L 18.89,14.31 Z" fill="#565340" stroke="none" /><path d="M 26.15,12.91 L 26.08,12.91 L 24.33,13.81 L 24.33,17.11 L 23.41,17.59 L 23.41,19.79 L 23.48,19.79 L 24.33,19.34 L 24.33,18.26 L 25.19,17.81 L 25.22,17.84 L 25.22,18.89 L 26.15,18.45 L 26.15,16.25 L 26.21,16.19 L 27.04,15.78 L 27.04,14.66 L 26.21,15.08 L 26.15,15.05 Z" fill="#565340" stroke="none" /><path d="M 27.93,12.02 L 27.86,12.02 L 27.04,12.44 L 27.04,13.55 L 27.93,13.11 Z" fill="#565340" stroke="none" /><path d="M 27.93,8.68 L 20.71,12.28 L 20.71,13.39 L 27.93,9.80 Z" fill="#565340" stroke="none" /><path d="M 15.27,27.20 L 14.41,27.61 L 14.41,30.95 L 15.27,30.54 Z" fill="#5a5746" stroke="none" /><path d="M 18.89,26.50 L 17.97,26.94 L 17.97,28.06 L 17.11,28.50 L 17.08,28.47 L 17.08,27.42 L 17.02,27.42 L 16.19,27.83 L 16.19,30.06 L 17.97,29.17 L 17.97,28.09 L 18.89,27.61 Z" fill="#5a5746" stroke="none" /><path d="M 20.71,25.61 L 20.64,25.61 L 19.79,26.05 L 19.79,27.17 L 20.71,26.72 Z" fill="#5a5746" stroke="none" /><path d="M 22.52,24.68 L 21.60,25.13 L 21.60,26.24 L 21.66,26.24 L 22.52,25.80 Z" fill="#5a5746" stroke="none" /><path d="M 26.15,21.76 L 24.33,22.65 L 24.33,23.76 L 24.40,23.76 L 26.15,22.87 Z" fill="#5a5746" stroke="none" /><path d="M 15.27,20.55 L 14.41,20.96 L 14.41,22.08 L 14.47,22.08 L 15.27,21.66 Z" fill="#5a5746" stroke="none" /><path d="M 19.79,20.52 L 17.97,21.41 L 17.97,22.52 L 19.79,21.63 Z" fill="#5a5746" stroke="none" /><path d="M 26.15,19.56 L 26.08,19.56 L 25.22,20.01 L 25.22,21.12 L 26.15,20.68 Z" fill="#5a5746" stroke="none" /><path d="M 17.97,19.21 L 17.91,19.21 L 16.19,20.07 L 16.19,22.30 L 14.41,23.19 L 14.41,24.30 L 16.19,23.41 L 16.19,22.33 L 17.08,21.88 L 17.08,20.77 L 17.97,20.33 Z" fill="#5a5746" stroke="none" /><path d="M 22.52,19.15 L 20.71,20.04 L 20.71,21.15 L 22.52,20.26 Z" fill="#5a5746" stroke="none" /><path d="M 27.93,18.67 L 27.86,18.67 L 27.04,19.09 L 27.04,21.31 L 27.93,20.87 Z" fill="#5a5746" stroke="none" /><path d="M 20.71,17.84 L 20.64,17.84 L 18.89,18.74 L 18.89,19.85 L 20.71,18.96 Z" fill="#5a5746" stroke="none" /><path d="M 25.22,17.81 L 25.16,17.81 L 24.33,18.23 L 24.33,19.34 L 25.22,18.89 Z" fill="#5a5746" stroke="none" /><path d="M 17.08,17.43 L 16.19,17.88 L 16.19,18.96 L 16.25,18.96 L 17.08,18.54 Z" fill="#5a5746" stroke="none" /><path d="M 24.33,16.03 L 24.27,16.03 L 22.52,16.92 L 22.52,18.04 L 24.33,17.15 Z" fill="#5a5746" stroke="none" /><path d="M 15.27,15.01 L 14.41,15.43 L 14.41,16.54 L 15.27,16.13 Z" fill="#5a5746" stroke="none" /><path d="M 8.11,27.80 L 8.11,28.88 L 9.03,29.33 L 9.03,28.25 Z" fill="#7f7048" stroke="none" /><path d="M 9.92,24.30 L 9.92,25.38 L 11.71,26.27 L 11.74,26.31 L 11.74,27.42 L 12.56,27.83 L 12.63,27.83 L 12.63,25.64 L 9.99,24.30 Z" fill="#7f7048" stroke="none" /><path d="M 5.41,22.04 L 5.41,23.13 L 7.16,24.02 L 7.22,24.02 L 7.22,22.93 L 5.47,22.04 Z" fill="#7f7048" stroke="none" /><path d="M 2.74,20.68 L 2.67,20.68 L 2.67,21.69 L 2.64,21.73 L 1.78,21.31 L 1.78,22.43 L 2.64,22.87 L 2.67,22.87 L 2.67,21.82 L 2.70,21.79 L 3.53,22.20 L 3.59,22.20 L 3.59,21.12 Z" fill="#7f7048" stroke="none" /><path d="M 8.11,15.62 L 8.11,16.73 L 8.97,17.15 L 9.03,17.21 L 9.03,18.29 L 9.92,18.74 L 9.92,16.51 Z" fill="#7f7048" stroke="none" /><path d="M 11.74,15.20 L 11.74,16.32 L 13.55,17.24 L 13.55,23.83 L 13.52,23.86 L 9.99,22.08 L 9.92,22.08 L 9.92,23.19 L 13.55,25.00 L 13.55,30.47 L 13.52,30.50 L 9.99,28.72 L 9.92,28.72 L 9.92,29.77 L 14.35,32.00 L 14.41,32.00 L 14.41,16.54 Z" fill="#7f7048" stroke="none" /><path d="M 9.92,14.31 L 9.92,15.43 L 10.85,15.87 L 10.85,14.76 L 9.99,14.31 Z" fill="#7f7048" stroke="none" /><path d="M 4.49,13.81 L 4.49,14.92 L 5.34,15.33 L 5.41,15.40 L 5.41,16.48 L 6.23,16.89 L 6.30,16.95 L 6.30,17.97 L 6.27,18.00 L 5.41,17.59 L 5.41,19.82 L 6.23,20.23 L 6.30,20.23 L 6.30,19.21 L 6.36,19.18 L 8.08,20.04 L 8.11,20.07 L 8.11,21.15 L 8.97,21.60 L 9.03,21.60 L 9.03,19.40 L 8.11,18.93 L 8.11,17.81 L 6.36,16.95 L 6.30,16.89 L 6.30,14.70 Z" fill="#7f7048" stroke="none" /><path d="M 15.27,21.66 L 14.41,22.08 L 14.41,23.19 L 14.47,23.19 L 15.27,22.78 Z" fill="#5b5a4a" stroke="none" /><path d="M 25.22,20.01 L 14.44,25.38 L 14.41,25.42 L 14.41,27.61 L 14.47,27.61 L 15.27,27.20 L 15.27,26.12 L 15.30,26.08 L 25.19,21.15 L 25.22,21.12 Z" fill="#5b5a4a" stroke="none" /><path d="M 15.27,19.44 L 14.41,19.85 L 14.41,20.96 L 14.47,20.96 L 15.27,20.55 Z" fill="#5b5a4a" stroke="none" /><path d="M 27.04,19.12 L 26.97,19.12 L 26.15,19.53 L 26.15,20.64 L 26.21,20.64 L 27.04,20.23 Z" fill="#5b5a4a" stroke="none" /><path d="M 19.79,11.71 L 19.72,11.71 L 18.89,12.12 L 18.89,13.20 L 19.79,12.76 Z" fill="#5b5a4a" stroke="none" /><path d="M 27.93,10.91 L 27.86,10.91 L 19.79,14.95 L 19.79,16.06 L 19.85,16.06 L 27.93,12.02 Z" fill="#5b5a4a" stroke="none" /><path d="M 24.33,9.42 L 21.63,10.75 L 21.60,10.78 L 21.60,11.83 L 21.66,11.83 L 24.33,10.50 Z" fill="#5b5a4a" stroke="none" /><path d="M 28.82,7.19 L 28.76,7.19 L 25.26,8.94 L 25.22,8.97 L 25.22,10.02 L 25.29,10.02 L 28.79,8.27 L 28.82,8.24 Z" fill="#5b5a4a" stroke="none" /><path d="M 19.79,14.98 L 19.72,14.98 L 14.44,17.62 L 14.41,17.65 L 14.41,19.85 L 14.47,19.85 L 15.27,19.44 L 15.27,18.35 L 15.30,18.32 L 19.79,16.10 Z" fill="#5e5d50" stroke="none" /><path d="M 18.89,12.15 L 18.83,12.15 L 14.44,14.35 L 14.41,14.38 L 14.41,15.43 L 14.47,15.43 L 18.86,13.23 L 18.89,13.20 Z" fill="#5e5d50" stroke="none" /><path d="M 21.60,10.78 L 19.79,11.67 L 19.79,12.76 L 21.60,11.86 Z" fill="#5e5d50" stroke="none" /><path d="M 25.22,8.97 L 24.33,9.42 L 24.33,10.47 L 24.40,10.47 L 25.22,10.05 Z" fill="#5e5d50" stroke="none" /><path d="M 9.03,28.28 L 9.03,29.33 L 9.92,29.77 L 9.92,28.69 L 9.10,28.28 Z" fill="#867758" stroke="none" /><path d="M 11.74,27.42 L 11.74,28.53 L 12.56,28.95 L 12.63,28.95 L 12.63,27.83 L 11.80,27.42 Z" fill="#867758" stroke="none" /><path d="M 9.03,24.94 L 9.03,27.17 L 9.92,27.61 L 9.92,25.38 Z" fill="#867758" stroke="none" /><path d="M 0.00,23.76 L 0.00,24.81 L 0.03,24.84 L 8.05,28.85 L 8.11,28.85 L 8.11,27.80 L 8.08,27.77 L 0.06,23.76 Z" fill="#867758" stroke="none" /><path d="M 6.30,23.57 L 6.30,25.80 L 7.16,26.24 L 7.22,26.24 L 7.22,25.19 L 7.25,25.16 L 8.05,25.57 L 8.11,25.57 L 8.11,24.46 Z" fill="#867758" stroke="none" /><path d="M 2.67,22.87 L 2.67,23.98 L 2.70,24.02 L 3.53,24.43 L 3.59,24.43 L 3.59,23.38 L 3.63,23.35 L 5.41,24.24 L 5.41,23.13 L 5.38,23.09 L 3.66,22.23 L 3.59,22.23 L 3.59,23.28 L 3.56,23.32 Z" fill="#867758" stroke="none" /><path d="M 0.89,21.98 L 0.89,23.09 L 1.78,23.54 L 1.78,22.43 Z" fill="#867758" stroke="none" /><path d="M 0.89,17.56 L 0.89,18.67 L 9.86,23.16 L 9.92,23.16 L 9.92,22.04 L 0.95,17.56 Z" fill="#867758" stroke="none" /><path d="M 8.11,16.73 L 8.11,17.84 L 9.03,18.29 L 9.03,17.18 L 8.17,16.73 Z" fill="#867758" stroke="none" /><path d="M 4.49,14.92 L 4.49,16.03 L 5.41,16.48 L 5.41,15.36 L 4.55,14.92 Z" fill="#867758" stroke="none" /><path d="M 10.85,14.76 L 10.85,15.87 L 11.74,16.32 L 11.74,15.20 Z" fill="#867758" stroke="none" /><path d="M 2.67,10.69 L 2.67,11.80 L 9.86,15.40 L 9.92,15.40 L 9.92,14.28 L 2.74,10.69 Z" fill="#867758" stroke="none" /><path d="M 0.89,9.80 L 0.89,10.91 L 1.72,11.32 L 1.78,11.32 L 1.78,10.21 L 0.95,9.80 Z" fill="#867758" stroke="none" /><path d="M 12.63,28.98 L 12.63,30.06 L 13.49,30.50 L 13.55,30.50 L 13.55,29.42 L 12.69,28.98 Z" fill="#897e60" stroke="none" /><path d="M 10.85,28.09 L 10.85,29.17 L 11.74,29.61 L 11.74,28.50 L 10.91,28.09 Z" fill="#897e60" stroke="none" /><path d="M 12.63,26.75 L 12.63,27.86 L 13.55,28.31 L 13.55,27.20 L 12.69,26.75 Z" fill="#897e60" stroke="none" /><path d="M 7.22,26.27 L 7.22,27.36 L 8.97,28.25 L 9.03,28.25 L 9.03,27.17 L 7.28,26.27 Z" fill="#897e60" stroke="none" /><path d="M 8.11,24.49 L 8.11,25.61 L 9.03,26.05 L 9.03,24.94 L 8.17,24.49 Z" fill="#897e60" stroke="none" /><path d="M 5.41,23.13 L 5.41,24.24 L 6.30,24.68 L 6.30,23.57 Z" fill="#897e60" stroke="none" /><path d="M 2.67,21.76 L 2.67,22.87 L 3.53,23.32 L 3.59,23.32 L 3.59,22.20 Z" fill="#897e60" stroke="none" /><path d="M 11.74,17.43 L 11.74,19.66 L 12.63,20.10 L 12.63,21.15 L 12.60,21.18 L 11.80,20.77 L 11.74,20.77 L 11.74,22.97 L 13.49,23.86 L 13.55,23.86 L 13.55,19.44 L 12.63,18.96 L 12.63,17.88 Z" fill="#897e60" stroke="none" /><path d="M 0.00,17.11 L 0.00,18.23 L 0.83,18.64 L 0.89,18.64 L 0.89,17.53 L 0.06,17.11 Z" fill="#897e60" stroke="none" /><path d="M 13.55,15.01 L 13.55,16.13 L 14.41,16.54 L 14.41,15.43 Z" fill="#897e60" stroke="none" /><path d="M 4.49,10.50 L 4.49,11.58 L 6.23,12.47 L 6.30,12.47 L 6.30,11.39 L 4.55,10.50 Z" fill="#897e60" stroke="none" /><path d="M 1.78,10.24 L 1.78,11.36 L 2.61,11.77 L 2.67,11.77 L 2.67,10.66 L 1.84,10.24 Z" fill="#897e60" stroke="none" /><path d="M 0.00,9.35 L 0.00,10.47 L 0.83,10.88 L 0.89,10.88 L 0.89,9.77 L 0.06,9.35 Z" fill="#897e60" stroke="none" /><path d="M 8.11,25.61 L 8.11,26.72 L 8.97,27.13 L 9.03,27.20 L 9.03,28.28 L 10.85,29.17 L 10.85,28.12 L 10.88,28.09 L 11.74,28.53 L 11.74,29.61 L 12.60,30.06 L 12.63,30.06 L 12.63,29.01 L 12.66,28.98 L 13.55,29.42 L 13.55,28.31 L 13.52,28.28 L 12.69,27.86 L 12.63,27.86 L 12.63,28.91 L 12.60,28.95 L 11.74,28.50 L 11.74,27.39 L 9.92,26.50 L 9.92,27.55 L 9.86,27.58 L 9.10,27.20 L 9.03,27.13 L 9.03,26.05 L 8.17,25.61 Z" fill="#8c8769" stroke="none" /><path d="M 3.59,24.46 L 3.59,25.54 L 3.63,25.57 L 7.22,27.36 L 7.22,26.24 L 5.47,25.38 L 5.41,25.32 L 5.41,24.24 L 5.38,24.21 L 4.55,23.79 L 4.49,23.79 L 4.49,24.84 L 4.45,24.87 L 3.66,24.46 Z" fill="#8c8769" stroke="none" /><path d="M 0.89,23.09 L 0.89,24.21 L 1.72,24.62 L 1.78,24.62 L 1.78,23.54 Z" fill="#8c8769" stroke="none" /><path d="M 7.22,22.93 L 7.22,24.05 L 9.92,25.38 L 9.92,24.27 Z" fill="#8c8769" stroke="none" /><path d="M 3.59,21.12 L 3.59,22.23 L 5.41,23.13 L 5.41,22.01 Z" fill="#8c8769" stroke="none" /><path d="M 0.89,19.79 L 0.89,21.98 L 1.78,22.43 L 1.78,21.38 L 1.81,21.34 L 2.67,21.76 L 2.67,20.64 L 0.95,19.79 Z" fill="#8c8769" stroke="none" /><path d="M 12.63,17.88 L 12.63,18.99 L 13.55,19.44 L 13.55,18.32 Z" fill="#8c8769" stroke="none" /><path d="M 9.92,16.54 L 9.92,19.79 L 9.86,19.82 L 9.03,19.40 L 9.03,21.63 L 9.86,22.04 L 9.92,22.04 L 9.92,21.03 L 9.99,20.99 L 10.85,21.44 L 10.85,22.52 L 11.74,22.97 L 11.74,20.80 L 11.77,20.77 L 12.56,21.18 L 12.63,21.18 L 12.63,20.07 L 11.74,19.63 L 11.74,17.43 L 9.99,16.54 Z" fill="#8c8769" stroke="none" /><path d="M 6.30,14.73 L 6.30,16.92 L 8.05,17.81 L 8.11,17.81 L 8.11,15.62 L 6.36,14.73 Z" fill="#8c8769" stroke="none" /><path d="M 0.89,12.02 L 0.89,16.45 L 1.72,16.86 L 1.78,16.92 L 1.78,18.00 L 3.56,18.89 L 3.59,18.89 L 3.59,17.84 L 3.63,17.81 L 5.41,18.70 L 5.41,17.59 L 4.49,17.11 L 4.49,13.81 L 2.74,12.91 L 2.67,12.91 L 2.67,13.93 L 2.61,13.96 L 1.84,13.58 L 1.78,13.52 L 1.78,12.44 L 0.95,12.02 Z" fill="#8c8769" stroke="none" /><path d="M 6.30,11.39 L 6.30,12.50 L 13.49,16.10 L 13.55,16.10 L 13.55,15.01 L 13.52,14.98 Z" fill="#8c8769" stroke="none" /><path d="M 0.89,8.68 L 0.89,9.80 L 4.49,11.58 L 4.49,10.47 Z" fill="#8c8769" stroke="none" /><path d="M 9.92,25.38 L 9.92,26.50 L 11.67,27.39 L 11.74,27.39 L 11.74,26.27 Z" fill="#928c71" stroke="none" /><path d="M 7.22,25.16 L 7.22,26.27 L 8.05,26.69 L 8.11,26.69 L 8.11,25.57 L 7.28,25.16 Z" fill="#928c71" stroke="none" /><path d="M 12.63,24.52 L 12.63,26.75 L 13.55,27.20 L 13.55,24.97 Z" fill="#928c71" stroke="none" /><path d="M 5.41,24.24 L 5.41,25.35 L 6.30,25.80 L 6.30,24.68 Z" fill="#928c71" stroke="none" /><path d="M 10.85,23.63 L 10.85,24.75 L 11.74,25.19 L 11.74,24.08 Z" fill="#928c71" stroke="none" /><path d="M 1.78,22.43 L 1.78,24.65 L 3.56,25.54 L 3.59,25.54 L 3.59,24.49 L 3.63,24.46 L 4.42,24.87 L 4.49,24.87 L 4.49,23.76 L 3.66,23.35 L 3.59,23.35 L 3.59,24.40 L 3.56,24.43 L 2.74,24.02 L 2.67,23.95 L 2.67,22.87 Z" fill="#928c71" stroke="none" /><path d="M 9.92,20.96 L 9.92,22.08 L 10.85,22.52 L 10.85,21.41 Z" fill="#928c71" stroke="none" /><path d="M 0.00,20.42 L 0.00,23.76 L 0.83,24.17 L 0.89,24.17 L 0.89,20.87 Z" fill="#928c71" stroke="none" /><path d="M 6.30,19.15 L 6.30,20.26 L 8.11,21.15 L 8.11,20.04 Z" fill="#928c71" stroke="none" /><path d="M 8.11,17.84 L 8.11,18.96 L 9.92,19.85 L 9.92,18.74 L 8.17,17.84 Z" fill="#928c71" stroke="none" /><path d="M 3.59,17.81 L 3.59,18.89 L 5.34,19.79 L 5.41,19.79 L 5.41,18.70 L 3.66,17.81 Z" fill="#928c71" stroke="none" /><path d="M 4.49,16.03 L 4.49,17.15 L 6.30,18.04 L 6.30,16.92 L 4.55,16.03 Z" fill="#928c71" stroke="none" /><path d="M 1.81,14.66 L 1.78,14.66 L 1.78,16.83 L 1.75,16.86 L 0.00,16.00 L 0.00,17.11 L 1.72,17.97 L 1.78,17.97 L 1.78,16.95 L 1.81,16.92 L 2.67,17.34 L 2.67,16.29 L 2.70,16.25 L 3.53,16.67 L 3.59,16.67 L 3.59,15.55 Z" fill="#928c71" stroke="none" /><path d="M 0.00,13.77 L 0.00,14.89 L 0.89,15.33 L 0.89,14.22 Z" fill="#928c71" stroke="none" /><path d="M 1.78,12.47 L 1.78,13.55 L 2.67,14.00 L 2.67,12.88 L 1.84,12.47 Z" fill="#928c71" stroke="none" /><path d="M 0.00,8.24 L 0.00,9.35 L 0.83,9.77 L 0.89,9.77 L 0.89,8.68 Z" fill="#928c71" stroke="none" /><path d="M 11.74,24.08 L 11.74,25.19 L 12.63,25.64 L 12.63,24.52 Z" fill="#949278" stroke="none" /><path d="M 0.00,18.23 L 0.00,20.42 L 0.03,20.45 L 0.89,20.87 L 0.89,19.82 L 0.92,19.79 L 10.85,24.75 L 10.85,23.63 L 10.82,23.60 L 0.06,18.23 Z" fill="#949278" stroke="none" /><path d="M 0.00,14.89 L 0.00,16.00 L 0.89,16.45 L 0.89,15.33 Z" fill="#949278" stroke="none" /><path d="M 5.41,13.17 L 5.41,14.28 L 13.49,18.32 L 13.55,18.32 L 13.55,17.21 L 5.47,13.17 Z" fill="#949278" stroke="none" /><path d="M 0.00,12.66 L 0.00,13.77 L 0.89,14.22 L 0.89,13.11 Z" fill="#949278" stroke="none" /><path d="M 10.85,12.60 L 10.85,13.68 L 14.35,15.43 L 14.41,15.43 L 14.41,14.38 L 14.38,14.35 Z" fill="#949278" stroke="none" /><path d="M 7.22,10.78 L 7.22,11.86 L 9.92,13.20 L 9.92,12.12 Z" fill="#949278" stroke="none" /><path d="M 4.49,9.42 L 4.49,10.50 L 5.41,10.94 L 5.41,9.86 Z" fill="#949278" stroke="none" /><path d="M 9.92,12.15 L 9.92,13.20 L 10.78,13.65 L 10.85,13.65 L 10.85,12.60 L 9.99,12.15 Z" fill="#989782" stroke="none" /><path d="M 0.00,10.47 L 0.00,12.66 L 0.03,12.69 L 0.89,13.11 L 0.89,12.06 L 0.92,12.02 L 5.34,14.25 L 5.41,14.25 L 5.41,13.14 L 0.06,10.47 Z" fill="#989782" stroke="none" /><path d="M 5.41,9.89 L 5.41,10.94 L 7.16,11.83 L 7.22,11.83 L 7.22,10.78 L 5.47,9.89 Z" fill="#989782" stroke="none" /><path d="M 0.00,7.19 L 0.00,8.24 L 0.03,8.27 L 4.42,10.47 L 4.49,10.47 L 4.49,9.42 L 4.45,9.38 L 0.06,7.19 Z" fill="#989782" stroke="none" /><path d="M 14.44,11.67 L 14.44,11.74 L 15.27,12.15 L 15.36,12.15 L 16.19,11.74 L 16.19,11.67 L 15.36,11.26 L 15.27,11.26 Z" fill="#d2c294" stroke="none" /><path d="M 27.10,7.16 L 27.13,7.22 L 27.90,7.60 L 27.99,7.60 L 28.79,7.19 L 28.79,7.16 L 27.96,6.74 Z" fill="#d2c294" stroke="none" /><path d="M 18.89,6.74 L 18.07,7.16 L 18.07,7.22 L 18.89,7.63 L 18.07,8.05 L 18.04,8.11 L 18.86,8.52 L 18.99,8.52 L 19.82,8.11 L 19.79,8.05 L 18.96,7.63 L 19.79,7.22 L 19.82,7.16 L 18.99,6.74 Z" fill="#d2c294" stroke="none" /><path d="M 11.67,4.01 L 10.78,4.45 L 10.78,4.49 L 11.58,4.87 L 11.64,4.93 L 10.82,5.34 L 10.82,5.41 L 11.64,5.82 L 11.74,5.82 L 12.56,5.41 L 12.56,5.34 L 11.74,4.93 L 11.80,4.87 L 12.60,4.49 L 12.60,4.45 Z" fill="#d2c294" stroke="none" /><path d="M 17.15,4.01 L 17.15,4.04 L 18.93,4.93 L 19.82,4.49 L 19.88,4.49 L 20.74,4.93 L 21.66,4.49 L 21.66,4.45 L 20.77,4.01 L 19.88,4.45 L 19.82,4.45 L 18.07,3.56 L 18.00,3.56 Z" fill="#d2c294" stroke="none" /><path d="M 12.66,0.89 L 13.52,1.30 L 14.41,0.86 L 14.41,0.83 L 13.58,0.41 L 13.52,0.41 L 12.69,0.83 Z" fill="#d2c294" stroke="none" /><path d="M 12.66,13.49 L 12.66,13.52 L 14.38,14.38 L 14.44,14.38 L 15.27,13.96 L 15.27,13.93 L 13.55,13.07 L 13.46,13.07 Z" fill="#d7cda1" stroke="none" /><path d="M 15.33,11.23 L 15.36,11.29 L 17.08,12.15 L 17.18,12.15 L 18.00,11.74 L 18.00,11.67 L 16.29,10.82 L 16.16,10.82 Z" fill="#d7cda1" stroke="none" /><path d="M 18.86,10.37 L 18.04,10.78 L 18.07,10.85 L 18.89,11.26 L 18.07,11.67 L 18.07,11.74 L 18.83,12.12 L 18.96,12.12 L 19.79,11.71 L 19.79,11.67 L 18.96,11.26 L 19.79,10.85 L 19.82,10.78 L 18.99,10.37 Z" fill="#d7cda1" stroke="none" /><path d="M 5.41,9.86 L 5.41,9.89 L 8.08,11.23 L 8.17,11.23 L 9.00,10.82 L 9.86,11.26 L 9.92,11.26 L 10.82,10.82 L 12.56,11.71 L 11.71,12.15 L 11.71,12.18 L 12.53,12.60 L 12.66,12.60 L 13.49,12.18 L 13.46,12.12 L 12.63,11.71 L 13.49,11.26 L 13.49,11.23 L 12.66,10.82 L 12.69,10.75 L 13.49,10.37 L 13.49,10.34 L 12.63,9.89 L 10.85,10.78 L 10.75,10.78 L 9.96,10.37 L 9.83,10.37 L 9.03,10.78 L 8.94,10.78 L 8.17,10.40 L 8.14,10.34 L 8.97,9.92 L 8.97,9.89 L 8.11,9.45 L 8.05,9.45 L 7.19,9.89 L 6.30,9.45 L 6.23,9.45 Z" fill="#d7cda1" stroke="none" /><path d="M 10.82,8.97 L 10.85,9.03 L 11.67,9.45 L 11.74,9.45 L 12.60,9.00 L 12.60,8.97 L 11.77,8.56 L 11.64,8.56 Z" fill="#d7cda1" stroke="none" /><path d="M 5.34,8.08 L 4.49,7.63 L 4.42,7.63 L 2.70,8.49 L 2.70,8.52 L 3.56,8.97 L 3.63,8.97 L 5.34,8.11 Z" fill="#d7cda1" stroke="none" /><path d="M 18.96,7.60 L 18.96,7.67 L 19.79,8.08 L 19.88,8.08 L 20.71,7.67 L 20.71,7.60 L 19.88,7.19 L 19.79,7.19 Z" fill="#d7cda1" stroke="none" /><path d="M 15.33,8.56 L 16.22,9.00 L 17.11,8.56 L 17.11,8.52 L 16.32,8.14 L 16.29,8.11 L 16.32,8.05 L 17.08,7.67 L 17.18,7.67 L 17.97,8.08 L 18.07,8.08 L 18.89,7.67 L 18.89,7.60 L 18.07,7.19 L 18.00,7.19 L 17.11,7.63 L 16.25,7.19 L 16.19,7.19 L 15.33,7.63 L 15.33,7.67 L 16.16,8.08 L 16.13,8.14 L 15.33,8.52 Z" fill="#d7cda1" stroke="none" /><path d="M 23.48,7.16 L 23.51,7.22 L 24.33,7.63 L 24.40,7.63 L 25.26,7.19 L 25.26,7.16 L 24.43,6.74 L 24.30,6.74 Z" fill="#d7cda1" stroke="none" /><path d="M 10.82,7.16 L 10.82,7.22 L 13.49,8.56 L 14.41,8.11 L 14.41,8.08 L 13.61,7.70 L 13.55,7.63 L 14.38,7.22 L 14.38,7.16 L 13.55,6.74 L 13.46,6.74 L 12.60,7.19 L 11.74,6.74 L 11.64,6.74 Z" fill="#d7cda1" stroke="none" /><path d="M 6.27,6.71 L 6.27,6.74 L 7.16,7.19 L 8.08,6.74 L 8.08,6.71 L 7.19,6.27 Z" fill="#d7cda1" stroke="none" /><path d="M 18.96,4.01 L 18.96,4.04 L 19.79,4.45 L 19.91,4.45 L 20.71,4.04 L 20.80,4.04 L 21.57,4.42 L 21.60,4.45 L 21.57,4.52 L 20.77,4.90 L 20.77,4.93 L 21.63,5.38 L 21.69,5.38 L 22.55,4.93 L 22.55,4.90 L 21.73,4.49 L 21.76,4.42 L 22.49,4.07 L 22.49,4.01 L 21.66,3.59 L 21.57,3.59 L 20.74,4.01 L 19.88,3.56 L 19.82,3.56 Z" fill="#d7cda1" stroke="none" /><path d="M 13.49,5.85 L 13.46,5.79 L 12.63,5.38 L 13.49,4.93 L 13.49,4.90 L 12.66,4.49 L 12.69,4.42 L 13.49,4.04 L 13.49,4.01 L 12.63,3.56 L 12.56,3.56 L 11.71,4.01 L 11.71,4.04 L 12.53,4.45 L 12.50,4.52 L 11.74,4.90 L 11.64,4.90 L 10.85,4.49 L 10.72,4.49 L 9.89,4.90 L 9.92,4.96 L 10.75,5.38 L 10.82,5.38 L 11.67,4.93 L 12.53,5.34 L 12.56,5.38 L 12.53,5.41 L 11.71,5.82 L 11.71,5.85 L 12.53,6.27 L 12.66,6.27 Z" fill="#d7cda1" stroke="none" /><path d="M 18.00,3.53 L 17.18,3.12 L 17.08,3.12 L 15.36,3.98 L 15.33,4.04 L 16.16,4.45 L 16.29,4.45 L 18.00,3.59 Z" fill="#d7cda1" stroke="none" /><path d="M 9.96,2.19 L 9.96,2.26 L 11.67,3.12 L 12.60,2.67 L 12.60,2.64 L 10.88,1.78 L 10.78,1.78 Z" fill="#d7cda1" stroke="none" /><path d="M 13.52,2.19 L 13.52,2.23 L 14.35,2.64 L 14.47,2.64 L 15.27,2.23 L 15.36,2.23 L 16.16,2.64 L 16.29,2.64 L 17.11,2.23 L 17.08,2.16 L 16.25,1.75 L 16.19,1.75 L 15.33,2.19 L 14.44,1.75 L 14.38,1.75 Z" fill="#d7cda1" stroke="none" /><path d="M 14.44,13.49 L 14.44,13.55 L 15.20,13.93 L 15.33,13.93 L 16.16,13.52 L 16.13,13.46 L 15.36,13.07 L 15.27,13.07 Z" fill="#dcd1a5" stroke="none" /><path d="M 23.41,9.86 L 22.58,9.45 L 22.52,9.45 L 18.96,11.23 L 18.96,11.29 L 19.72,11.67 L 19.85,11.67 L 23.41,9.89 Z" fill="#dcd1a5" stroke="none" /><path d="M 19.82,9.89 L 18.07,9.00 L 17.97,9.00 L 17.15,9.42 L 17.15,9.48 L 17.94,9.86 L 17.97,9.89 L 17.91,9.96 L 17.15,10.34 L 17.08,10.34 L 16.19,9.89 L 15.36,10.31 L 15.33,10.37 L 17.15,11.26 L 19.82,9.92 Z" fill="#dcd1a5" stroke="none" /><path d="M 3.63,8.94 L 3.63,9.00 L 4.45,9.42 L 4.55,9.42 L 5.34,9.00 L 5.34,8.97 L 4.52,8.56 L 4.39,8.56 Z" fill="#dcd1a5" stroke="none" /><path d="M 8.11,9.42 L 8.11,9.48 L 8.94,9.89 L 8.87,9.96 L 8.08,10.34 L 8.08,10.37 L 8.87,10.75 L 8.94,10.82 L 8.17,11.20 L 8.14,11.26 L 11.71,13.04 L 11.77,13.04 L 12.56,12.63 L 12.63,12.63 L 13.52,13.07 L 15.27,12.18 L 15.36,12.18 L 16.16,12.60 L 16.29,12.60 L 17.08,12.18 L 17.18,12.18 L 18.00,12.60 L 18.89,12.15 L 18.89,12.12 L 18.07,11.71 L 18.00,11.71 L 17.15,12.15 L 16.25,11.71 L 16.19,11.71 L 15.30,12.15 L 13.55,11.26 L 13.46,11.26 L 12.63,11.67 L 12.63,11.74 L 13.42,12.12 L 13.46,12.15 L 13.39,12.21 L 12.63,12.60 L 12.56,12.60 L 11.80,12.21 L 11.74,12.15 L 11.77,12.12 L 12.56,11.74 L 12.56,11.67 L 10.85,10.82 L 10.91,10.75 L 12.60,9.92 L 12.56,9.86 L 10.85,9.00 L 10.91,8.94 L 12.60,8.11 L 12.60,8.08 L 11.71,7.63 L 9.89,8.52 L 9.89,8.56 L 10.69,8.94 L 10.75,9.00 L 9.92,9.42 L 9.92,9.48 L 10.75,9.89 L 10.69,9.96 L 9.92,10.34 L 9.86,10.34 L 9.10,9.96 L 9.03,9.89 L 9.86,9.48 L 9.86,9.42 L 9.03,9.00 L 8.94,9.00 Z" fill="#dcd1a5" stroke="none" /><path d="M 5.38,8.08 L 5.38,8.11 L 7.06,8.94 L 7.13,9.00 L 6.30,9.42 L 6.30,9.48 L 7.13,9.89 L 7.22,9.89 L 8.05,9.48 L 8.05,9.42 L 7.22,9.00 L 7.28,8.94 L 8.08,8.56 L 8.08,8.52 L 6.30,7.63 L 6.23,7.63 Z" fill="#dcd1a5" stroke="none" /><path d="M 1.78,8.05 L 1.78,8.08 L 2.67,8.52 L 3.53,8.11 L 3.50,8.05 L 2.67,7.63 L 2.61,7.63 Z" fill="#dcd1a5" stroke="none" /><path d="M 14.38,7.19 L 13.52,7.63 L 13.52,7.67 L 14.35,8.08 L 14.31,8.14 L 13.52,8.52 L 13.52,8.56 L 14.38,9.00 L 14.44,9.00 L 15.30,8.56 L 15.30,8.52 L 14.47,8.11 L 14.50,8.05 L 15.30,7.67 L 15.30,7.63 L 14.44,7.19 Z" fill="#dcd1a5" stroke="none" /><path d="M 18.93,8.56 L 19.82,9.00 L 20.71,8.56 L 20.77,8.56 L 21.63,9.00 L 22.52,8.56 L 22.58,8.56 L 23.44,9.00 L 24.33,8.56 L 24.40,8.56 L 25.19,8.97 L 25.26,8.97 L 27.04,8.08 L 27.04,8.05 L 25.32,7.19 L 25.22,7.19 L 22.58,8.52 L 22.52,8.52 L 21.76,8.14 L 21.69,8.08 L 22.52,7.67 L 22.52,7.60 L 20.80,6.74 L 20.68,6.74 L 19.85,7.16 L 19.85,7.19 L 20.71,7.63 L 18.93,8.52 Z" fill="#dcd1a5" stroke="none" /><path d="M 0.03,7.16 L 0.06,7.22 L 0.83,7.60 L 0.92,7.60 L 1.72,7.19 L 1.72,7.16 L 0.89,6.74 Z" fill="#dcd1a5" stroke="none" /><path d="M 26.18,6.71 L 26.18,6.74 L 27.07,7.19 L 27.93,6.78 L 27.90,6.71 L 27.07,6.30 L 27.01,6.30 Z" fill="#dcd1a5" stroke="none" /><path d="M 23.48,6.27 L 23.48,6.30 L 24.30,6.71 L 24.43,6.71 L 25.26,6.30 L 25.22,6.23 L 24.40,5.82 L 24.33,5.82 Z" fill="#dcd1a5" stroke="none" /><path d="M 13.49,6.71 L 12.66,6.30 L 12.53,6.30 L 11.74,6.71 L 11.64,6.71 L 10.88,6.33 L 10.85,6.27 L 11.67,5.85 L 11.67,5.82 L 10.82,5.38 L 10.75,5.38 L 9.89,5.82 L 9.89,5.85 L 10.72,6.27 L 10.69,6.33 L 9.92,6.71 L 9.83,6.71 L 8.08,5.82 L 7.19,6.27 L 6.30,5.82 L 6.23,5.82 L 5.38,6.27 L 4.49,5.82 L 4.42,5.82 L 2.64,6.71 L 2.64,6.74 L 3.53,7.19 L 4.42,6.74 L 4.49,6.74 L 5.38,7.19 L 7.13,6.30 L 7.22,6.30 L 8.97,7.19 L 9.86,6.74 L 10.75,7.19 L 10.82,7.19 L 11.67,6.74 L 12.56,7.19 L 12.63,7.19 L 13.46,6.78 Z" fill="#dcd1a5" stroke="none" /><path d="M 21.66,4.45 L 21.66,4.49 L 22.46,4.87 L 22.52,4.93 L 21.69,5.34 L 21.69,5.41 L 22.52,5.82 L 22.58,5.82 L 24.30,4.96 L 24.27,4.90 L 22.55,4.04 L 22.49,4.04 Z" fill="#dcd1a5" stroke="none" /><path d="M 16.22,4.45 L 16.22,4.49 L 17.02,4.87 L 17.08,4.93 L 16.25,5.34 L 16.25,5.41 L 17.08,5.82 L 17.02,5.88 L 16.22,6.27 L 16.22,6.30 L 17.02,6.68 L 17.08,6.74 L 16.25,7.16 L 16.25,7.22 L 17.08,7.63 L 17.18,7.63 L 18.00,7.22 L 18.00,7.16 L 17.18,6.74 L 17.24,6.68 L 18.04,6.30 L 18.04,6.27 L 17.24,5.88 L 17.18,5.82 L 18.04,5.38 L 19.79,6.27 L 19.91,6.27 L 20.74,5.85 L 20.71,5.79 L 19.88,5.38 L 20.71,4.96 L 20.74,4.90 L 19.91,4.49 L 19.79,4.49 L 18.99,4.90 L 18.89,4.90 L 17.15,4.01 Z" fill="#dcd1a5" stroke="none" /><path d="M 19.88,3.53 L 19.88,3.59 L 20.71,4.01 L 20.80,4.01 L 21.60,3.59 L 21.60,3.56 L 20.77,3.15 L 20.64,3.15 Z" fill="#dcd1a5" stroke="none" /><path d="M 18.07,3.53 L 18.07,3.59 L 18.89,4.01 L 18.99,4.01 L 19.82,3.59 L 19.82,3.53 L 18.99,3.12 L 18.89,3.12 Z" fill="#dcd1a5" stroke="none" /><path d="M 11.67,3.09 L 10.85,2.67 L 10.72,2.67 L 9.89,3.09 L 9.92,3.15 L 10.75,3.56 L 9.00,4.45 L 8.94,4.45 L 8.17,4.07 L 8.11,4.01 L 8.94,3.59 L 8.94,3.53 L 8.17,3.15 L 8.05,3.15 L 5.44,4.45 L 5.41,4.52 L 6.27,4.93 L 7.13,4.49 L 7.19,4.49 L 8.08,4.93 L 8.94,4.49 L 9.00,4.49 L 9.89,4.93 L 11.67,4.04 L 11.64,3.98 L 10.82,3.56 L 11.64,3.15 Z" fill="#dcd1a5" stroke="none" /><path d="M 14.44,3.59 L 15.27,4.01 L 15.36,4.01 L 16.19,3.59 L 16.19,3.53 L 15.40,3.15 L 15.36,3.12 L 15.43,3.05 L 16.19,2.67 L 16.25,2.67 L 17.15,3.12 L 18.04,2.67 L 18.04,2.64 L 17.15,2.19 L 16.25,2.64 L 16.19,2.64 L 15.30,2.19 L 14.41,2.64 L 14.41,2.67 L 15.20,3.05 L 15.27,3.12 L 14.44,3.53 Z" fill="#dcd1a5" stroke="none" /><path d="M 16.16,0.86 L 14.47,0.00 L 14.35,0.00 L 13.58,0.38 L 13.58,0.45 L 14.31,0.80 L 14.35,0.83 L 14.31,0.89 L 13.55,1.27 L 13.46,1.27 L 12.63,0.86 L 11.74,1.30 L 11.74,1.34 L 12.56,1.75 L 12.63,1.75 L 13.52,1.30 L 14.38,1.75 L 14.44,1.75 L 16.16,0.89 Z" fill="#dcd1a5" stroke="none" /><path d="M 17.97,12.56 L 17.11,12.15 L 16.25,12.60 L 16.19,12.60 L 15.30,12.15 L 13.55,13.04 L 13.46,13.04 L 12.66,12.63 L 12.53,12.63 L 11.77,13.01 L 11.77,13.07 L 12.60,13.49 L 12.69,13.49 L 13.49,13.07 L 14.38,13.52 L 14.44,13.52 L 15.30,13.07 L 16.13,13.49 L 16.22,13.49 L 17.94,12.63 Z" fill="#e0d8ae" stroke="none" /><path d="M 17.15,11.23 L 17.18,11.29 L 18.00,11.71 L 18.07,11.71 L 18.89,11.29 L 18.89,11.23 L 18.07,10.82 L 17.97,10.82 Z" fill="#e0d8ae" stroke="none" /><path d="M 27.93,7.60 L 26.27,6.78 L 26.24,6.74 L 26.27,6.68 L 27.01,6.33 L 27.01,6.27 L 26.18,5.85 L 26.08,5.85 L 24.40,6.71 L 24.33,6.71 L 23.57,6.33 L 23.51,6.27 L 23.54,6.23 L 25.22,5.41 L 25.22,5.38 L 24.33,4.93 L 22.55,5.82 L 20.80,4.93 L 20.71,4.93 L 19.88,5.34 L 19.88,5.41 L 20.71,5.82 L 20.64,5.88 L 19.88,6.27 L 19.82,6.27 L 18.07,5.38 L 18.00,5.38 L 17.15,5.82 L 16.29,5.41 L 16.25,5.38 L 16.29,5.34 L 17.08,4.96 L 17.11,4.90 L 14.47,3.59 L 14.44,3.56 L 14.47,3.53 L 15.33,3.12 L 16.19,3.56 L 16.25,3.56 L 17.15,3.12 L 18.00,3.56 L 18.07,3.56 L 18.96,3.12 L 19.82,3.56 L 19.88,3.56 L 20.71,3.15 L 20.71,3.12 L 16.19,0.86 L 14.44,1.72 L 14.44,1.78 L 15.27,2.19 L 15.36,2.19 L 16.22,1.75 L 17.97,2.64 L 17.94,2.70 L 17.18,3.09 L 17.08,3.09 L 16.29,2.67 L 16.16,2.67 L 15.36,3.09 L 15.27,3.09 L 11.80,1.34 L 11.67,1.34 L 10.85,1.75 L 10.88,1.81 L 12.50,2.61 L 12.53,2.67 L 10.82,3.53 L 10.82,3.59 L 11.64,4.01 L 11.74,4.01 L 12.60,3.56 L 13.46,4.01 L 13.39,4.07 L 12.60,4.45 L 12.60,4.49 L 13.39,4.87 L 13.46,4.93 L 12.63,5.34 L 12.63,5.41 L 13.46,5.82 L 13.39,5.88 L 12.63,6.27 L 12.56,6.27 L 11.71,5.82 L 10.82,6.27 L 10.75,6.27 L 9.99,5.88 L 9.92,5.82 L 10.75,5.41 L 10.75,5.34 L 9.03,4.49 L 9.07,4.42 L 10.75,3.59 L 10.75,3.53 L 9.92,3.12 L 9.99,3.05 L 10.78,2.67 L 10.78,2.64 L 9.96,2.23 L 9.89,2.23 L 8.11,3.12 L 8.11,3.15 L 8.94,3.56 L 8.08,4.01 L 8.08,4.04 L 8.91,4.45 L 8.87,4.52 L 8.11,4.90 L 8.02,4.90 L 7.22,4.49 L 7.09,4.49 L 6.30,4.90 L 6.20,4.90 L 5.38,4.49 L 4.55,4.90 L 4.52,4.96 L 5.25,5.31 L 5.31,5.38 L 4.49,5.79 L 4.49,5.85 L 5.31,6.27 L 5.41,6.27 L 6.27,5.82 L 7.13,6.27 L 7.22,6.27 L 8.02,5.85 L 8.11,5.85 L 9.77,6.68 L 9.83,6.74 L 9.03,7.16 L 8.94,7.16 L 8.14,6.74 L 8.02,6.74 L 6.30,7.60 L 6.30,7.67 L 8.02,8.52 L 7.98,8.59 L 7.22,8.97 L 7.13,8.97 L 5.47,8.14 L 5.41,8.08 L 5.44,8.05 L 6.23,7.67 L 6.23,7.60 L 4.52,6.74 L 4.39,6.74 L 3.59,7.16 L 3.50,7.16 L 2.74,6.78 L 2.70,6.74 L 2.74,6.68 L 4.42,5.85 L 4.42,5.79 L 3.66,5.41 L 3.53,5.41 L 0.89,6.74 L 0.89,6.78 L 1.62,7.13 L 1.69,7.19 L 0.92,7.57 L 0.89,7.63 L 1.72,8.05 L 1.84,8.05 L 2.64,7.63 L 3.50,8.08 L 3.59,8.08 L 4.45,7.63 L 5.28,8.05 L 5.31,8.08 L 5.25,8.14 L 4.45,8.52 L 4.45,8.56 L 5.25,8.94 L 5.31,9.00 L 4.55,9.38 L 4.52,9.45 L 5.34,9.86 L 5.47,9.86 L 7.16,9.00 L 8.05,9.45 L 8.11,9.45 L 9.00,9.00 L 9.86,9.45 L 9.03,9.86 L 9.00,9.92 L 9.83,10.34 L 9.96,10.34 L 10.78,9.92 L 10.75,9.86 L 9.92,9.45 L 10.78,9.00 L 10.78,8.97 L 9.99,8.59 L 9.96,8.52 L 11.67,7.67 L 11.67,7.63 L 9.92,6.74 L 9.99,6.68 L 10.75,6.30 L 10.82,6.30 L 11.67,6.74 L 12.56,6.30 L 12.63,6.30 L 15.27,7.63 L 15.20,7.70 L 14.41,8.08 L 14.41,8.11 L 15.20,8.49 L 15.27,8.56 L 14.44,8.97 L 14.44,9.03 L 15.27,9.45 L 14.41,9.89 L 13.55,9.45 L 14.38,9.03 L 14.38,8.97 L 12.66,8.11 L 12.53,8.11 L 11.71,8.52 L 11.71,8.56 L 12.50,8.94 L 12.56,9.00 L 11.74,9.42 L 11.74,9.48 L 13.46,10.34 L 13.39,10.40 L 12.60,10.78 L 12.60,10.82 L 14.38,11.71 L 14.44,11.71 L 16.22,10.82 L 16.22,10.78 L 15.43,10.40 L 15.36,10.34 L 16.16,9.92 L 16.25,9.92 L 17.05,10.34 L 17.18,10.34 L 18.00,9.92 L 17.97,9.86 L 17.15,9.45 L 18.00,9.00 L 18.89,9.45 L 18.96,9.45 L 19.82,9.00 L 20.68,9.42 L 20.71,9.45 L 20.68,9.48 L 18.93,10.34 L 18.93,10.37 L 19.82,10.82 L 23.44,9.00 L 24.27,9.42 L 24.37,9.42 L 25.19,9.00 L 25.19,8.94 L 24.43,8.56 L 24.30,8.56 L 23.51,8.97 L 23.41,8.97 L 22.62,8.56 L 22.65,8.49 L 24.33,7.67 L 24.33,7.60 L 23.51,7.19 L 23.57,7.13 L 24.33,6.74 L 24.40,6.74 L 26.97,8.05 L 27.10,8.05 L 27.93,7.63 Z" fill="#e0d8ae" stroke="none" /><path d="M 22.58,9.42 L 22.58,9.48 L 23.35,9.86 L 23.48,9.86 L 24.30,9.45 L 24.27,9.38 L 23.51,9.00 L 23.41,9.00 Z" fill="#e4e1b9" stroke="none" /><path d="M 18.96,9.42 L 18.96,9.48 L 19.79,9.89 L 19.88,9.89 L 20.71,9.48 L 20.71,9.42 L 19.88,9.00 L 19.79,9.00 Z" fill="#e4e1b9" stroke="none" /><path d="M 13.55,9.42 L 13.55,9.48 L 14.38,9.89 L 14.44,9.89 L 15.27,9.48 L 15.27,9.42 L 14.44,9.00 L 14.38,9.00 Z" fill="#e4e1b9" stroke="none" /><path d="M 5.38,7.16 L 5.41,7.22 L 6.23,7.63 L 6.30,7.63 L 7.16,7.19 L 7.16,7.16 L 6.33,6.74 L 6.20,6.74 Z" fill="#e4e1b9" stroke="none" /><path d="M 14.41,6.27 L 14.41,6.30 L 15.30,6.74 L 16.22,6.30 L 16.22,6.27 L 15.33,5.82 Z" fill="#e4e1b9" stroke="none" /><path d="M 24.40,5.79 L 24.40,5.85 L 25.22,6.27 L 25.32,6.27 L 26.12,5.85 L 26.12,5.82 L 25.29,5.41 L 25.16,5.41 Z" fill="#e4e1b9" stroke="none" /><path d="M 5.34,5.34 L 4.49,4.93 L 3.59,5.38 L 3.59,5.41 L 4.42,5.82 L 4.49,5.82 L 5.31,5.41 Z" fill="#e4e1b9" stroke="none" /><path d="M 13.52,4.90 L 13.55,4.96 L 14.38,5.38 L 14.44,5.38 L 15.30,4.93 L 15.30,4.90 L 14.47,4.49 L 14.35,4.49 Z" fill="#e4e1b9" stroke="none" /><path d="M 12.63,1.72 L 12.63,1.78 L 13.46,2.19 L 13.55,2.19 L 14.38,1.78 L 14.38,1.72 L 13.55,1.30 L 13.46,1.30 Z" fill="#e4e1b9" stroke="none" /></svg>