<svg height="32" width="32" viewBox="0 0 32 32"><defs /><path d="M 15.27,25.00 L 15.20,25.00 L 14.41,25.42 L 14.41,28.72 L 14.47,28.72 L 15.27,28.31 L 15.27,27.23 L 15.33,27.17 L 16.19,26.75 L 16.19,25.64 L 15.30,26.08 L 15.27,26.05 Z" fill="#0e0e0e" stroke="none" /><path d="M 15.27,22.78 L 14.41,23.19 L 14.41,24.30 L 15.27,23.89 Z" fill="#0e0e0e" stroke="none" /><path d="M 28.82,18.23 L 28.76,18.23 L 27.93,18.64 L 27.93,24.17 L 27.90,24.21 L 15.30,30.50 L 15.27,30.47 L 15.27,29.42 L 14.41,29.84 L 14.41,32.00 L 14.47,32.00 L 28.79,24.84 L 28.82,24.81 Z" fill="#0e0e0e" stroke="none" /><path d="M 18.89,16.54 L 18.83,16.54 L 15.27,18.32 L 15.27,20.55 L 18.89,18.74 Z" fill="#0e0e0e" stroke="none" /><path d="M 23.41,16.48 L 19.79,18.29 L 19.79,21.60 L 19.85,21.60 L 23.41,19.82 Z" fill="#0e0e0e" stroke="none" /><path d="M 28.82,16.00 L 27.93,16.45 L 27.93,17.53 L 27.99,17.53 L 28.82,17.11 Z" fill="#0e0e0e" stroke="none" /><path d="M 27.93,12.02 L 27.86,12.02 L 24.33,13.81 L 24.33,16.00 L 24.40,16.00 L 27.93,14.22 Z" fill="#0e0e0e" stroke="none" /><path d="M 28.82,7.19 L 28.76,7.19 L 14.44,14.35 L 14.41,14.38 L 14.41,15.43 L 14.47,15.43 L 27.86,8.72 L 27.93,8.75 L 27.93,10.88 L 27.99,10.88 L 28.82,10.47 Z" fill="#0e0e0e" stroke="none" /><path d="M 17.08,28.53 L 17.02,28.53 L 15.27,29.42 L 15.27,30.50 L 15.33,30.50 L 17.08,29.61 Z" fill="#121212" stroke="none" /><path d="M 20.71,26.72 L 20.64,26.72 L 17.97,28.06 L 17.97,29.17 L 20.68,27.83 L 20.71,27.80 Z" fill="#121212" stroke="none" /><path d="M 23.41,25.35 L 22.52,25.80 L 22.52,26.88 L 22.58,26.88 L 23.41,26.47 Z" fill="#121212" stroke="none" /><path d="M 15.20,23.89 L 14.41,24.30 L 14.41,25.42 L 15.24,25.00 L 15.27,25.03 L 15.27,26.08 L 15.33,26.08 L 16.19,25.64 L 16.19,24.52 L 15.30,24.97 L 15.27,24.94 L 15.27,23.89 Z" fill="#121212" stroke="none" /><path d="M 27.93,23.09 L 27.04,23.54 L 27.04,24.62 L 27.10,24.62 L 27.93,24.21 Z" fill="#121212" stroke="none" /><path d="M 26.15,22.87 L 25.22,23.32 L 25.22,25.54 L 26.15,25.10 Z" fill="#121212" stroke="none" /><path d="M 15.27,21.66 L 14.41,22.08 L 14.41,23.19 L 14.47,23.19 L 15.27,22.78 Z" fill="#121212" stroke="none" /><path d="M 19.79,19.40 L 18.89,19.85 L 18.89,20.96 L 19.79,20.52 Z" fill="#121212" stroke="none" /><path d="M 26.97,19.12 L 26.15,19.53 L 26.15,20.64 L 26.21,20.64 L 27.01,20.23 L 27.04,20.26 L 27.04,21.31 L 27.07,21.31 L 27.93,20.87 L 27.93,19.79 L 27.86,19.79 L 27.07,20.20 L 27.04,20.17 L 27.04,19.12 Z" fill="#121212" stroke="none" /><path d="M 19.79,17.18 L 18.89,17.62 L 18.89,18.74 L 19.79,18.29 Z" fill="#121212" stroke="none" /><path d="M 24.33,17.15 L 24.27,17.15 L 23.41,17.59 L 23.41,19.79 L 18.89,22.04 L 18.89,23.16 L 18.96,23.16 L 19.75,22.74 L 19.79,22.78 L 19.79,23.83 L 19.85,23.83 L 23.41,22.04 L 23.41,19.82 L 24.33,19.34 Z" fill="#121212" stroke="none" /><path d="M 28.82,17.11 L 28.76,17.11 L 27.93,17.53 L 27.93,18.64 L 27.99,18.64 L 28.82,18.23 Z" fill="#121212" stroke="none" /><path d="M 18.89,15.43 L 18.83,15.43 L 14.41,17.65 L 14.41,20.96 L 14.47,20.96 L 15.27,20.55 L 15.27,18.35 L 18.89,16.54 Z" fill="#121212" stroke="none" /><path d="M 24.33,14.92 L 24.27,14.92 L 23.41,15.36 L 23.41,16.48 L 24.33,16.03 Z" fill="#121212" stroke="none" /><path d="M 28.82,14.89 L 27.93,15.33 L 27.93,16.45 L 28.82,16.00 Z" fill="#121212" stroke="none" /><path d="M 28.82,10.47 L 28.76,10.47 L 24.37,12.66 L 24.33,12.69 L 24.33,13.81 L 27.90,12.02 L 27.93,12.06 L 27.93,14.22 L 28.79,13.81 L 28.82,13.77 Z" fill="#121212" stroke="none" /><path d="M 17.97,28.09 L 17.91,28.09 L 17.08,28.50 L 17.08,29.61 L 17.97,29.17 Z" fill="#161616" stroke="none" /><path d="M 17.08,26.31 L 17.02,26.31 L 15.27,27.20 L 15.27,28.28 L 15.20,28.34 L 14.41,28.72 L 14.41,29.84 L 14.47,29.84 L 16.19,28.98 L 16.19,27.86 L 17.08,27.42 Z" fill="#161616" stroke="none" /><path d="M 22.52,24.68 L 21.60,25.13 L 21.60,26.24 L 20.71,26.69 L 20.71,27.80 L 22.52,26.91 Z" fill="#161616" stroke="none" /><path d="M 27.04,23.54 L 26.15,23.98 L 26.15,25.07 L 26.21,25.07 L 27.04,24.65 Z" fill="#161616" stroke="none" /><path d="M 19.79,22.74 L 19.72,22.74 L 18.89,23.16 L 18.89,24.27 L 18.96,24.27 L 19.79,23.86 Z" fill="#161616" stroke="none" /><path d="M 26.15,21.76 L 25.22,22.20 L 25.22,23.32 L 24.33,23.76 L 24.33,24.87 L 23.41,25.35 L 23.41,26.43 L 23.48,26.43 L 25.22,25.54 L 25.22,23.35 L 26.15,22.87 Z" fill="#161616" stroke="none" /><path d="M 24.33,19.34 L 23.41,19.79 L 23.41,22.01 L 23.48,22.01 L 24.33,21.57 Z" fill="#161616" stroke="none" /><path d="M 15.27,15.01 L 14.41,15.43 L 14.41,17.65 L 16.19,16.76 L 16.19,15.65 L 15.30,16.10 L 15.27,16.06 Z" fill="#161616" stroke="none" /><path d="M 27.93,15.33 L 24.37,17.11 L 24.33,17.08 L 24.33,16.03 L 24.27,16.03 L 23.44,16.45 L 23.41,16.41 L 23.41,15.40 L 23.48,15.33 L 24.33,14.92 L 24.33,12.69 L 24.30,12.69 L 23.41,13.14 L 23.41,15.33 L 23.35,15.40 L 19.85,17.15 L 19.79,17.11 L 19.79,14.98 L 19.72,14.98 L 18.89,15.40 L 18.89,17.62 L 19.75,17.21 L 19.79,17.24 L 19.79,18.26 L 19.72,18.32 L 18.89,18.74 L 18.89,19.82 L 18.83,19.88 L 15.27,21.66 L 15.27,23.86 L 15.33,23.86 L 16.19,23.41 L 16.19,22.33 L 16.22,22.30 L 18.83,20.99 L 18.89,21.03 L 18.89,22.04 L 18.96,22.04 L 19.79,21.63 L 19.79,20.52 L 18.96,20.93 L 18.89,20.90 L 18.89,19.88 L 18.96,19.82 L 19.79,19.40 L 19.79,18.32 L 19.85,18.26 L 23.35,16.51 L 23.41,16.54 L 23.41,17.59 L 24.30,17.15 L 24.33,17.18 L 24.33,18.23 L 24.40,18.23 L 27.01,16.92 L 27.04,16.95 L 27.04,17.97 L 26.15,18.42 L 26.15,19.53 L 26.21,19.53 L 27.04,19.12 L 27.04,18.00 L 27.93,17.56 Z" fill="#161616" stroke="none" /><path d="M 27.93,9.80 L 27.86,9.80 L 27.04,10.21 L 27.04,11.32 L 27.10,11.32 L 27.93,10.91 Z" fill="#161616" stroke="none" /><path d="M 13.55,22.78 L 13.55,23.89 L 14.41,24.30 L 14.41,23.19 Z" fill="#171717" stroke="none" /><path d="M 0.00,22.65 L 0.00,24.81 L 0.03,24.84 L 14.35,32.00 L 14.41,32.00 L 14.41,25.42 L 14.38,25.38 L 13.61,25.00 L 13.55,25.00 L 13.55,30.47 L 13.52,30.50 L 0.92,24.21 L 0.89,24.17 L 0.89,23.09 Z" fill="#171717" stroke="none" /><path d="M 0.00,18.23 L 0.00,21.53 L 0.89,21.98 L 0.89,20.93 L 0.92,20.90 L 1.78,21.31 L 1.78,20.20 L 0.89,19.75 L 0.89,18.64 L 0.06,18.23 Z" fill="#171717" stroke="none" /><path d="M 9.92,16.54 L 9.92,18.74 L 13.55,20.55 L 13.55,18.32 L 9.99,16.54 Z" fill="#171717" stroke="none" /><path d="M 5.41,16.48 L 5.41,19.82 L 8.97,21.60 L 9.03,21.60 L 9.03,18.29 Z" fill="#171717" stroke="none" /><path d="M 0.00,16.00 L 0.00,17.11 L 0.83,17.53 L 0.89,17.53 L 0.89,16.45 Z" fill="#171717" stroke="none" /><path d="M 0.89,12.02 L 0.89,14.22 L 4.42,16.00 L 4.49,16.00 L 4.49,13.81 L 0.95,12.02 Z" fill="#171717" stroke="none" /><path d="M 0.00,7.19 L 0.00,8.24 L 0.03,8.27 L 13.49,14.98 L 13.55,15.05 L 13.55,17.24 L 14.41,17.65 L 14.41,14.38 L 14.38,14.35 L 0.06,7.19 Z" fill="#171717" stroke="none" /><path d="M 21.60,24.05 L 21.53,24.05 L 19.82,24.91 L 19.79,24.87 L 19.79,23.86 L 19.72,23.86 L 18.00,24.72 L 17.97,24.75 L 17.97,25.83 L 17.08,26.27 L 17.08,27.39 L 16.19,27.83 L 16.19,28.95 L 16.25,28.95 L 17.97,28.09 L 17.97,25.86 L 19.72,24.97 L 19.79,25.00 L 19.79,26.05 L 20.68,25.61 L 20.71,25.64 L 20.71,26.69 L 20.77,26.69 L 21.60,26.27 Z" fill="#1a1a1a" stroke="none" /><path d="M 18.89,22.08 L 18.83,22.08 L 17.97,22.52 L 17.97,23.63 L 18.89,23.19 Z" fill="#1a1a1a" stroke="none" /><path d="M 27.93,21.98 L 27.04,22.43 L 27.04,23.54 L 27.93,23.09 Z" fill="#1a1a1a" stroke="none" /><path d="M 17.08,21.88 L 17.02,21.88 L 16.19,22.30 L 16.19,23.38 L 16.13,23.44 L 15.27,23.86 L 15.27,24.97 L 15.33,24.97 L 16.19,24.52 L 16.19,23.44 L 16.25,23.38 L 17.08,22.97 Z" fill="#1a1a1a" stroke="none" /><path d="M 27.04,16.89 L 26.15,17.34 L 26.15,18.42 L 26.21,18.42 L 27.01,18.00 L 27.04,18.04 L 27.04,20.20 L 25.29,21.09 L 25.22,21.06 L 25.22,20.01 L 24.33,20.45 L 24.33,21.57 L 25.19,21.15 L 25.22,21.18 L 25.22,22.20 L 24.33,22.65 L 24.33,23.76 L 24.30,23.79 L 22.52,24.68 L 22.52,25.80 L 24.33,24.91 L 24.33,23.79 L 25.22,23.35 L 25.22,22.23 L 27.01,21.34 L 27.04,21.31 L 27.04,20.23 L 27.93,19.79 L 27.93,17.56 L 27.86,17.56 L 27.07,17.97 L 27.04,17.94 Z" fill="#1a1a1a" stroke="none" /><path d="M 16.13,14.57 L 15.27,15.01 L 15.27,16.10 L 15.33,16.10 L 16.16,15.68 L 16.19,15.71 L 16.19,16.76 L 16.22,16.76 L 17.08,16.32 L 17.08,15.20 L 16.22,15.62 L 16.19,15.59 L 16.19,14.57 Z" fill="#1a1a1a" stroke="none" /><path d="M 21.60,11.86 L 21.53,11.86 L 20.71,12.28 L 20.71,13.36 L 20.64,13.42 L 18.89,14.28 L 18.89,15.40 L 18.96,15.40 L 19.75,14.98 L 19.79,15.01 L 19.79,17.18 L 23.41,15.36 L 23.41,13.17 L 23.35,13.17 L 21.63,14.03 L 21.60,14.00 Z" fill="#1a1a1a" stroke="none" /><path d="M 27.93,8.68 L 26.18,9.54 L 26.15,9.57 L 26.15,10.66 L 24.33,11.58 L 24.33,12.69 L 27.04,11.36 L 27.04,10.24 L 27.93,9.80 Z" fill="#1a1a1a" stroke="none" /><path d="M 12.63,28.98 L 12.63,30.06 L 13.49,30.50 L 13.55,30.50 L 13.55,29.42 L 12.69,28.98 Z" fill="#1d1d1d" stroke="none" /><path d="M 10.85,26.97 L 10.85,29.17 L 11.74,29.61 L 11.74,27.39 L 10.91,26.97 Z" fill="#1d1d1d" stroke="none" /><path d="M 8.11,26.72 L 8.11,27.80 L 8.97,28.25 L 9.03,28.25 L 9.03,27.17 L 8.17,26.72 Z" fill="#1d1d1d" stroke="none" /><path d="M 3.59,24.46 L 3.59,25.54 L 3.63,25.57 L 6.23,26.88 L 6.30,26.88 L 6.30,25.80 L 6.27,25.77 L 3.66,24.46 Z" fill="#1d1d1d" stroke="none" /><path d="M 11.74,24.08 L 11.74,25.19 L 12.56,25.61 L 12.63,25.67 L 12.63,26.75 L 13.55,27.20 L 13.55,26.08 L 12.69,25.67 L 12.63,25.61 L 12.63,24.52 Z" fill="#1d1d1d" stroke="none" /><path d="M 13.55,23.89 L 13.55,25.00 L 14.41,25.42 L 14.41,24.30 L 13.61,23.89 Z" fill="#1d1d1d" stroke="none" /><path d="M 0.89,23.09 L 0.89,24.21 L 2.61,25.07 L 2.67,25.07 L 2.67,23.98 Z" fill="#1d1d1d" stroke="none" /><path d="M 13.55,21.66 L 13.55,22.78 L 14.35,23.19 L 14.41,23.19 L 14.41,22.08 Z" fill="#1d1d1d" stroke="none" /><path d="M 4.49,19.34 L 4.49,20.45 L 5.41,20.93 L 5.41,22.04 L 8.97,23.83 L 9.03,23.83 L 9.03,21.66 L 9.07,21.63 L 9.86,22.04 L 9.92,22.04 L 9.92,19.85 L 9.89,19.82 L 9.03,19.40 L 9.03,21.57 L 9.00,21.60 Z" fill="#1d1d1d" stroke="none" /><path d="M 9.03,17.18 L 9.03,18.29 L 9.92,18.74 L 9.92,17.62 Z" fill="#1d1d1d" stroke="none" /><path d="M 4.49,17.15 L 4.49,18.26 L 5.41,18.70 L 5.41,17.59 L 4.55,17.15 Z" fill="#1d1d1d" stroke="none" /><path d="M 0.00,17.11 L 0.00,18.23 L 0.89,18.67 L 0.89,19.79 L 1.72,20.20 L 1.78,20.20 L 1.78,19.09 L 0.89,18.64 L 0.89,17.53 L 0.06,17.11 Z" fill="#1d1d1d" stroke="none" /><path d="M 9.92,15.43 L 9.92,16.54 L 13.55,18.35 L 13.55,20.55 L 14.35,20.96 L 14.41,20.96 L 14.41,17.65 L 9.99,15.43 Z" fill="#1d1d1d" stroke="none" /><path d="M 4.49,14.92 L 4.49,16.03 L 5.41,16.48 L 5.41,15.36 L 4.55,14.92 Z" fill="#1d1d1d" stroke="none" /><path d="M 0.00,14.89 L 0.00,16.00 L 0.89,16.45 L 0.89,15.33 Z" fill="#1d1d1d" stroke="none" /><path d="M 0.00,10.47 L 0.00,13.77 L 0.03,13.81 L 0.89,14.22 L 0.89,12.06 L 0.92,12.02 L 4.49,13.81 L 4.49,12.69 L 4.45,12.66 L 0.06,10.47 Z" fill="#1d1d1d" stroke="none" /><path d="M 18.89,20.96 L 17.08,21.85 L 17.08,22.93 L 17.02,23.00 L 16.19,23.41 L 16.19,26.72 L 16.25,26.72 L 17.94,25.86 L 17.97,25.89 L 17.97,28.06 L 18.04,28.06 L 20.71,26.72 L 20.71,25.61 L 20.64,25.61 L 19.85,26.02 L 19.79,25.99 L 19.79,24.97 L 19.85,24.91 L 20.71,24.49 L 20.71,23.38 L 19.79,23.83 L 19.79,24.91 L 19.72,24.97 L 18.00,25.83 L 17.97,25.80 L 17.97,24.78 L 18.04,24.72 L 18.89,24.30 L 18.89,23.19 L 18.83,23.19 L 18.04,23.60 L 17.97,23.57 L 17.97,22.55 L 18.04,22.49 L 18.89,22.08 Z" fill="#1e1e1f" stroke="none" /><path d="M 27.93,20.87 L 26.15,21.76 L 26.15,23.98 L 27.04,23.54 L 27.04,22.46 L 27.10,22.39 L 27.93,21.98 Z" fill="#1e1e1f" stroke="none" /><path d="M 15.27,20.55 L 14.41,20.96 L 14.41,22.08 L 14.47,22.08 L 15.27,21.66 Z" fill="#1e1e1f" stroke="none" /><path d="M 18.89,18.74 L 17.97,19.18 L 17.97,20.29 L 18.04,20.29 L 18.89,19.85 Z" fill="#1e1e1f" stroke="none" /><path d="M 26.15,17.34 L 24.33,18.23 L 24.33,20.45 L 25.19,20.04 L 25.22,20.07 L 25.22,21.09 L 25.16,21.15 L 22.52,22.46 L 22.52,23.54 L 22.46,23.60 L 21.60,24.02 L 21.60,25.13 L 21.66,25.13 L 24.33,23.79 L 24.33,22.68 L 25.22,22.23 L 25.22,21.15 L 25.29,21.09 L 26.15,20.68 Z" fill="#1e1e1f" stroke="none" /><path d="M 25.22,15.59 L 25.16,15.59 L 24.33,16.00 L 24.33,17.11 L 24.40,17.11 L 25.22,16.70 Z" fill="#1e1e1f" stroke="none" /><path d="M 28.82,13.77 L 27.93,14.22 L 27.93,15.33 L 28.82,14.89 Z" fill="#1e1e1f" stroke="none" /><path d="M 20.71,12.31 L 20.64,12.31 L 16.19,14.54 L 16.19,15.65 L 17.05,15.24 L 17.08,15.27 L 17.08,16.32 L 17.11,16.32 L 18.89,15.43 L 18.89,14.31 L 20.71,13.39 Z" fill="#1e1e1f" stroke="none" /><path d="M 26.15,9.57 L 21.60,11.83 L 21.60,14.06 L 24.30,12.72 L 24.33,12.69 L 24.33,11.61 L 24.40,11.55 L 26.15,10.69 Z" fill="#1e1e1f" stroke="none" /><path d="M 22.52,22.49 L 22.46,22.49 L 20.71,23.38 L 20.71,24.46 L 20.77,24.46 L 22.52,23.57 Z" fill="#232323" stroke="none" /><path d="M 17.97,19.21 L 17.91,19.21 L 15.30,20.52 L 15.27,20.55 L 15.27,21.66 L 17.97,20.33 Z" fill="#232323" stroke="none" /><path d="M 27.93,14.22 L 25.22,15.55 L 25.22,16.67 L 25.29,16.67 L 27.90,15.36 L 27.93,15.33 Z" fill="#232323" stroke="none" /><path d="M 11.74,28.53 L 11.74,29.61 L 12.63,30.06 L 12.63,28.95 L 11.80,28.53 Z" fill="#242323" stroke="none" /><path d="M 10.91,25.86 L 10.85,25.86 L 10.85,26.91 L 10.82,26.94 L 9.92,26.50 L 9.92,27.55 L 9.89,27.58 L 9.03,27.17 L 9.03,28.28 L 10.82,29.17 L 10.85,29.17 L 10.85,27.01 L 10.88,26.97 L 11.67,27.39 L 11.74,27.39 L 11.74,26.27 Z" fill="#242323" stroke="none" /><path d="M 7.22,25.16 L 7.22,26.21 L 7.19,26.24 L 6.30,25.80 L 6.30,26.91 L 8.11,27.80 L 8.11,25.57 L 7.28,25.16 Z" fill="#242323" stroke="none" /><path d="M 2.67,23.98 L 2.67,25.10 L 3.59,25.54 L 3.59,24.43 Z" fill="#242323" stroke="none" /><path d="M 9.03,21.63 L 9.03,23.86 L 9.86,24.27 L 9.92,24.27 L 9.92,22.04 L 9.10,21.63 Z" fill="#242323" stroke="none" /><path d="M 0.89,20.87 L 0.89,21.92 L 0.86,21.95 L 0.00,21.53 L 0.00,22.65 L 1.78,23.54 L 1.78,22.49 L 1.81,22.46 L 2.67,22.87 L 2.67,21.76 Z" fill="#242323" stroke="none" /><path d="M 4.49,20.45 L 4.49,21.57 L 5.34,22.01 L 5.41,22.01 L 5.41,20.90 Z" fill="#242323" stroke="none" /><path d="M 12.63,15.65 L 12.63,16.76 L 13.49,17.21 L 13.55,17.21 L 13.55,16.10 Z" fill="#242323" stroke="none" /><path d="M 0.89,15.33 L 0.89,17.56 L 1.72,17.97 L 1.78,17.97 L 1.78,16.95 L 1.84,16.92 L 4.45,18.23 L 4.49,18.26 L 4.49,19.34 L 5.34,19.79 L 5.41,19.79 L 5.41,18.70 L 4.49,18.23 L 4.49,17.18 L 4.52,17.15 L 5.41,17.59 L 5.41,16.54 L 5.44,16.51 L 8.97,18.26 L 9.03,18.32 L 9.03,19.40 L 9.86,19.82 L 9.92,19.88 L 9.92,20.96 L 12.63,22.33 L 12.63,23.35 L 12.60,23.38 L 11.74,22.97 L 11.74,24.08 L 12.63,24.52 L 12.63,23.48 L 12.66,23.44 L 13.49,23.86 L 13.55,23.86 L 13.55,21.66 L 9.99,19.88 L 9.92,19.82 L 9.92,18.74 L 9.10,18.32 L 9.03,18.26 L 9.03,17.24 L 9.07,17.21 L 9.92,17.62 L 9.92,15.40 L 9.10,14.98 L 9.03,14.98 L 9.03,17.11 L 8.97,17.15 L 5.47,15.40 L 5.41,15.33 L 5.41,13.14 L 4.52,12.69 L 4.49,12.69 L 4.49,14.92 L 5.34,15.33 L 5.41,15.40 L 5.41,16.41 L 5.38,16.45 L 4.55,16.03 L 4.49,16.03 L 4.49,17.08 L 4.45,17.11 Z" fill="#242323" stroke="none" /><path d="M 0.00,8.24 L 0.00,10.47 L 1.72,11.32 L 1.78,11.32 L 1.78,10.21 L 0.89,9.77 L 0.89,8.68 Z" fill="#242323" stroke="none" /><path d="M 6.33,10.31 L 6.36,10.37 L 7.19,10.78 L 7.25,10.78 L 8.08,10.37 L 8.08,10.34 L 7.19,9.89 Z" fill="#242424" stroke="none" /><path d="M 15.30,10.34 L 13.55,9.45 L 13.49,9.45 L 9.92,11.23 L 9.92,11.29 L 11.64,12.15 L 11.74,12.15 L 15.30,10.37 Z" fill="#242424" stroke="none" /><path d="M 28.79,7.16 L 27.93,6.74 L 14.41,13.52 L 12.66,12.63 L 12.53,12.63 L 11.77,13.01 L 11.77,13.07 L 14.38,14.38 L 14.44,14.38 L 28.76,7.22 Z" fill="#242424" stroke="none" /><path d="M 18.00,7.16 L 15.30,5.82 L 11.74,7.60 L 11.71,7.67 L 14.38,9.00 L 14.44,9.00 L 18.00,7.22 Z" fill="#242424" stroke="none" /><path d="M 24.33,5.79 L 22.62,4.93 L 22.52,4.93 L 18.96,6.71 L 18.96,6.74 L 20.71,7.63 L 20.77,7.63 L 24.33,5.85 Z" fill="#242424" stroke="none" /><path d="M 19.88,3.53 L 19.88,3.59 L 20.71,4.01 L 20.80,4.01 L 21.60,3.59 L 21.60,3.56 L 20.77,3.15 L 20.64,3.15 Z" fill="#242424" stroke="none" /><path d="M 16.25,1.72 L 16.25,1.78 L 17.08,2.19 L 17.02,2.26 L 16.22,2.64 L 16.22,2.67 L 17.11,3.12 L 18.00,2.67 L 18.07,2.67 L 18.93,3.12 L 19.79,2.70 L 19.75,2.64 L 17.15,1.34 L 17.02,1.34 Z" fill="#242424" stroke="none" /><path d="M 16.16,0.86 L 14.47,0.00 L 14.35,0.00 L 0.03,7.16 L 0.03,7.19 L 5.34,9.86 L 5.47,9.86 L 6.23,9.48 L 6.23,9.42 L 1.81,7.22 L 1.78,7.19 L 1.84,7.13 L 14.38,0.86 L 14.44,0.86 L 15.30,1.30 L 16.16,0.89 Z" fill="#242424" stroke="none" /><path d="M 12.63,27.86 L 12.63,28.98 L 13.55,29.42 L 13.55,28.31 L 12.69,27.86 Z" fill="#2a2a2a" stroke="none" /><path d="M 12.63,22.30 L 11.80,21.88 L 11.74,21.88 L 11.74,22.97 L 12.56,23.38 L 12.63,23.44 L 12.63,25.57 L 12.60,25.61 L 10.91,24.78 L 10.85,24.72 L 10.85,23.63 L 9.99,23.19 L 9.92,23.19 L 9.92,24.30 L 10.78,24.72 L 10.85,24.78 L 10.85,25.80 L 10.82,25.83 L 9.92,25.38 L 9.92,26.43 L 9.86,26.47 L 8.17,25.61 L 8.11,25.61 L 8.11,26.72 L 9.92,27.61 L 9.92,26.56 L 9.99,26.53 L 10.78,26.94 L 10.85,26.94 L 10.85,25.89 L 10.88,25.86 L 12.56,26.72 L 12.63,26.72 L 12.63,25.70 L 12.66,25.67 L 13.49,26.08 L 13.55,26.08 L 13.55,23.86 L 12.69,23.44 L 12.63,23.38 Z" fill="#2a2a2a" stroke="none" /><path d="M 1.78,22.43 L 1.78,23.54 L 3.53,24.43 L 3.59,24.43 L 3.59,22.27 L 3.63,22.23 L 5.34,23.09 L 5.41,23.16 L 5.41,24.24 L 6.23,24.65 L 6.30,24.72 L 6.30,25.80 L 7.16,26.24 L 7.22,26.24 L 7.22,24.02 L 5.47,23.16 L 5.41,23.09 L 5.41,22.01 L 3.59,21.12 L 3.59,22.17 L 3.56,22.20 L 2.67,21.76 L 2.67,22.81 L 2.64,22.84 Z" fill="#2a2a2a" stroke="none" /><path d="M 3.59,18.89 L 3.59,20.01 L 4.49,20.45 L 4.49,19.34 Z" fill="#2a2a2a" stroke="none" /><path d="M 1.81,16.89 L 1.78,16.89 L 1.78,17.94 L 1.75,17.97 L 0.95,17.56 L 0.89,17.56 L 0.89,18.67 L 1.72,19.09 L 1.78,19.09 L 1.78,18.04 L 1.81,18.00 L 2.61,18.42 L 2.67,18.42 L 2.67,17.34 Z" fill="#2a2a2a" stroke="none" /><path d="M 9.92,14.31 L 9.92,15.43 L 12.60,16.76 L 12.63,16.76 L 12.63,15.71 L 12.66,15.68 L 13.49,16.10 L 13.55,16.10 L 13.55,15.01 L 11.80,14.12 L 11.74,14.12 L 11.74,15.14 L 11.71,15.17 L 9.99,14.31 Z" fill="#2a2a2a" stroke="none" /><path d="M 4.49,11.58 L 4.49,12.69 L 5.41,13.17 L 5.41,15.36 L 9.03,17.18 L 9.03,14.95 L 7.28,14.09 L 7.22,14.03 L 7.22,11.83 L 6.30,11.39 L 6.30,12.44 L 6.27,12.47 Z" fill="#2a2a2a" stroke="none" /><path d="M 0.89,8.68 L 0.89,9.80 L 1.78,10.24 L 1.78,11.36 L 2.61,11.77 L 2.67,11.77 L 2.67,10.66 L 1.78,10.21 L 1.78,9.13 Z" fill="#2a2a2a" stroke="none" /><path d="M 7.25,10.75 L 7.25,10.82 L 8.08,11.23 L 8.17,11.23 L 8.97,10.82 L 8.97,10.78 L 8.14,10.37 L 8.02,10.37 Z" fill="#2c2c2c" stroke="none" /><path d="M 16.22,10.78 L 15.30,10.34 L 11.71,12.15 L 9.92,11.26 L 9.86,11.26 L 9.03,11.67 L 9.03,11.71 L 11.71,13.04 L 11.77,13.04 L 16.22,10.82 Z" fill="#2c2c2c" stroke="none" /><path d="M 5.41,9.86 L 5.41,9.89 L 6.30,10.34 L 7.16,9.92 L 7.13,9.86 L 6.30,9.45 L 6.23,9.45 Z" fill="#2c2c2c" stroke="none" /><path d="M 13.55,9.42 L 13.55,9.48 L 14.38,9.89 L 14.44,9.89 L 15.27,9.48 L 15.27,9.42 L 14.44,9.00 L 14.38,9.00 Z" fill="#2c2c2c" stroke="none" /><path d="M 4.45,8.52 L 4.45,8.56 L 5.34,9.00 L 6.23,8.56 L 6.30,8.56 L 7.16,9.00 L 8.08,8.56 L 8.08,8.52 L 7.19,8.08 L 6.30,8.52 L 6.23,8.52 L 5.38,8.08 Z" fill="#2c2c2c" stroke="none" /><path d="M 18.07,7.16 L 18.07,7.22 L 18.89,7.63 L 18.96,7.63 L 19.82,7.19 L 19.82,7.16 L 18.99,6.74 L 18.89,6.74 Z" fill="#2c2c2c" stroke="none" /><path d="M 1.75,7.16 L 1.78,7.22 L 2.61,7.63 L 2.67,7.63 L 3.53,7.19 L 3.53,7.16 L 2.70,6.74 L 2.58,6.74 Z" fill="#2c2c2c" stroke="none" /><path d="M 16.22,6.27 L 16.22,6.30 L 17.11,6.74 L 18.04,6.30 L 18.04,6.27 L 17.15,5.82 Z" fill="#2c2c2c" stroke="none" /><path d="M 3.56,6.27 L 3.56,6.30 L 5.34,7.19 L 6.27,6.74 L 6.27,6.71 L 4.49,5.82 L 4.42,5.82 Z" fill="#2c2c2c" stroke="none" /><path d="M 16.19,5.34 L 15.36,4.93 L 15.27,4.93 L 14.41,5.38 L 13.55,4.93 L 13.46,4.93 L 9.89,6.71 L 9.89,6.74 L 11.64,7.63 L 11.58,7.70 L 10.85,8.05 L 10.82,8.11 L 12.63,9.00 L 13.46,8.59 L 13.49,8.52 L 11.80,7.70 L 11.74,7.63 L 16.19,5.41 Z" fill="#2c2c2c" stroke="none" /><path d="M 26.12,5.82 L 23.41,4.49 L 22.58,4.90 L 22.58,4.93 L 24.33,5.82 L 20.77,7.60 L 20.77,7.67 L 21.60,8.08 L 21.69,8.08 L 26.08,5.88 Z" fill="#2c2c2c" stroke="none" /><path d="M 6.27,4.90 L 6.30,4.96 L 7.13,5.38 L 7.19,5.38 L 8.05,4.93 L 8.05,4.90 L 7.22,4.49 L 7.09,4.49 Z" fill="#2c2c2c" stroke="none" /><path d="M 20.77,4.01 L 20.77,4.04 L 21.60,4.45 L 21.73,4.45 L 22.49,4.07 L 22.49,4.01 L 21.66,3.59 L 21.57,3.59 Z" fill="#2c2c2c" stroke="none" /><path d="M 17.15,3.09 L 17.18,3.15 L 18.00,3.56 L 18.07,3.56 L 18.93,3.12 L 19.82,3.56 L 19.88,3.56 L 20.71,3.15 L 20.71,3.12 L 19.82,2.67 L 18.99,3.09 L 18.89,3.09 L 18.10,2.67 L 17.97,2.67 Z" fill="#2c2c2c" stroke="none" /><path d="M 12.60,2.64 L 11.67,2.19 L 9.00,3.53 L 9.00,3.59 L 9.83,4.01 L 9.92,4.01 L 12.60,2.67 Z" fill="#2c2c2c" stroke="none" /><path d="M 15.30,1.27 L 14.47,0.86 L 14.35,0.86 L 12.63,1.72 L 12.63,1.78 L 13.46,2.19 L 13.55,2.19 L 15.27,1.34 Z" fill="#2c2c2c" stroke="none" /><path d="M 11.74,26.31 L 11.74,28.53 L 12.56,28.95 L 12.63,28.95 L 12.63,27.90 L 12.66,27.86 L 13.55,28.31 L 13.55,27.20 L 11.80,26.31 Z" fill="#303133" stroke="none" /><path d="M 9.96,20.96 L 9.92,20.96 L 9.92,23.19 L 10.78,23.60 L 10.85,23.67 L 10.85,24.68 L 10.78,24.72 L 8.14,23.38 L 8.11,23.38 L 8.11,24.43 L 8.08,24.46 L 7.28,24.05 L 7.22,24.05 L 7.22,25.16 L 9.89,26.50 L 9.92,26.50 L 9.92,25.45 L 9.96,25.42 L 10.78,25.83 L 10.85,25.83 L 10.85,24.81 L 10.88,24.78 L 11.74,25.19 L 11.74,21.85 Z" fill="#303133" stroke="none" /><path d="M 13.55,20.55 L 13.55,21.66 L 14.35,22.08 L 14.41,22.08 L 14.41,20.96 Z" fill="#303133" stroke="none" /><path d="M 9.92,18.74 L 9.92,19.85 L 10.78,20.29 L 10.85,20.29 L 10.85,19.18 Z" fill="#303133" stroke="none" /><path d="M 2.67,17.34 L 2.67,18.39 L 2.64,18.42 L 1.84,18.00 L 1.78,18.00 L 1.78,21.31 L 3.59,22.23 L 3.59,24.46 L 6.30,25.80 L 6.30,24.68 L 5.47,24.27 L 5.41,24.21 L 5.41,23.19 L 5.44,23.16 L 6.30,23.57 L 6.30,22.46 L 5.47,22.04 L 5.41,22.04 L 5.41,23.06 L 5.34,23.09 L 3.59,22.20 L 3.59,21.18 L 3.63,21.15 L 4.49,21.57 L 4.49,20.45 L 3.66,20.04 L 3.59,19.98 L 3.59,18.96 L 3.63,18.93 L 4.49,19.34 L 4.49,18.23 Z" fill="#303133" stroke="none" /><path d="M 3.59,15.59 L 3.59,16.70 L 4.42,17.11 L 4.49,17.11 L 4.49,16.00 L 3.66,15.59 Z" fill="#303133" stroke="none" /><path d="M 0.00,13.77 L 0.00,14.89 L 0.89,15.33 L 0.89,14.22 Z" fill="#303133" stroke="none" /><path d="M 7.22,11.86 L 7.22,14.06 L 7.25,14.09 L 9.86,15.40 L 9.92,15.40 L 9.92,14.35 L 9.96,14.31 L 11.74,15.20 L 11.74,14.09 L 7.28,11.86 Z" fill="#303133" stroke="none" /><path d="M 1.78,9.13 L 1.78,10.24 L 2.67,10.69 L 2.67,11.80 L 4.45,12.69 L 4.49,12.69 L 4.49,11.64 L 4.52,11.61 L 6.23,12.47 L 6.30,12.47 L 6.30,11.39 L 6.27,11.36 Z" fill="#303133" stroke="none" /><path d="M 12.60,12.60 L 12.60,12.63 L 13.49,13.07 L 14.41,12.63 L 14.41,12.60 L 13.52,12.15 Z" fill="#373636" stroke="none" /><path d="M 7.19,9.92 L 9.00,10.82 L 12.60,9.00 L 13.49,9.45 L 13.55,9.45 L 14.38,9.03 L 14.38,8.97 L 13.55,8.56 L 13.46,8.56 L 12.66,8.97 L 12.56,8.97 L 11.77,8.56 L 11.64,8.56 L 8.97,9.89 L 8.11,9.45 L 8.94,9.03 L 8.97,8.97 L 8.14,8.56 L 8.02,8.56 L 7.19,8.97 L 7.22,9.03 L 8.05,9.45 L 7.22,9.86 Z" fill="#373636" stroke="none" /><path d="M 18.96,7.60 L 18.96,7.67 L 20.68,8.52 L 20.80,8.52 L 21.63,8.11 L 21.60,8.05 L 19.88,7.19 L 19.79,7.19 Z" fill="#373636" stroke="none" /><path d="M 9.00,7.16 L 9.03,7.22 L 10.75,8.08 L 10.85,8.08 L 11.67,7.67 L 11.64,7.60 L 9.92,6.74 L 9.83,6.74 Z" fill="#373636" stroke="none" /><path d="M 2.64,6.71 L 2.64,6.74 L 3.53,7.19 L 4.45,6.74 L 4.45,6.71 L 3.56,6.27 Z" fill="#373636" stroke="none" /><path d="M 24.37,6.71 L 24.37,6.74 L 25.26,7.19 L 26.15,6.74 L 26.21,6.74 L 27.07,7.19 L 27.93,6.78 L 27.90,6.71 L 26.18,5.85 L 26.08,5.85 Z" fill="#373636" stroke="none" /><path d="M 6.20,4.93 L 4.49,5.79 L 4.49,5.85 L 6.17,6.68 L 6.20,6.71 L 6.17,6.78 L 5.38,7.16 L 5.38,7.19 L 6.23,7.63 L 6.30,7.63 L 7.16,7.19 L 7.16,7.16 L 6.33,6.74 L 6.36,6.68 L 7.16,6.30 L 7.16,6.27 L 6.30,5.82 L 7.13,5.41 L 7.13,5.34 L 6.30,4.93 Z" fill="#373636" stroke="none" /><path d="M 13.52,4.90 L 13.55,4.96 L 14.38,5.38 L 14.44,5.38 L 15.30,4.93 L 15.30,4.90 L 14.47,4.49 L 14.35,4.49 Z" fill="#373636" stroke="none" /><path d="M 21.66,4.45 L 19.88,3.56 L 19.82,3.56 L 18.96,4.01 L 18.96,4.04 L 19.75,4.42 L 19.79,4.45 L 19.75,4.52 L 17.15,5.82 L 16.25,5.38 L 16.19,5.38 L 15.36,5.79 L 15.33,5.85 L 16.16,6.27 L 16.29,6.27 L 17.08,5.85 L 17.18,5.85 L 17.94,6.23 L 17.97,6.27 L 17.94,6.33 L 17.15,6.71 L 17.15,6.74 L 18.00,7.19 L 14.44,8.97 L 14.44,9.03 L 15.27,9.45 L 14.44,9.86 L 14.44,9.92 L 16.16,10.78 L 16.29,10.78 L 17.11,10.37 L 17.11,10.34 L 15.33,9.45 L 18.89,7.67 L 18.89,7.60 L 18.07,7.19 L 18.89,6.78 L 18.93,6.71 L 18.13,6.33 L 18.10,6.27 L 21.66,4.49 Z" fill="#373636" stroke="none" /><path d="M 9.86,4.01 L 9.00,3.56 L 8.94,3.56 L 7.16,4.45 L 7.16,4.49 L 8.94,5.38 L 9.00,5.38 L 9.86,4.93 L 9.86,4.90 L 9.03,4.49 L 9.07,4.42 L 9.86,4.04 Z" fill="#373636" stroke="none" /><path d="M 11.71,2.19 L 11.71,2.23 L 12.53,2.64 L 12.66,2.64 L 13.49,2.23 L 13.46,2.16 L 12.63,1.75 L 12.56,1.75 Z" fill="#373636" stroke="none" /><path d="M 17.08,1.30 L 16.16,0.86 L 14.44,1.72 L 14.44,1.78 L 15.27,2.19 L 15.20,2.26 L 14.41,2.64 L 14.41,2.67 L 15.33,3.12 L 17.11,2.23 L 17.08,2.16 L 16.25,1.75 L 17.08,1.34 Z" fill="#373636" stroke="none" /><path d="M 6.30,22.49 L 6.30,23.57 L 8.05,24.46 L 8.11,24.46 L 8.11,23.38 L 6.36,22.49 Z" fill="#383838" stroke="none" /><path d="M 10.85,19.21 L 10.85,20.33 L 13.55,21.66 L 13.55,20.55 L 13.52,20.52 L 10.91,19.21 Z" fill="#383838" stroke="none" /><path d="M 0.89,14.22 L 0.89,15.33 L 0.92,15.36 L 3.53,16.67 L 3.59,16.67 L 3.59,15.55 Z" fill="#383838" stroke="none" /><path d="M 17.11,11.23 L 16.29,10.82 L 16.16,10.82 L 13.55,12.12 L 13.52,12.18 L 14.31,12.56 L 14.35,12.63 L 13.52,13.04 L 13.52,13.07 L 14.38,13.52 L 14.44,13.52 L 16.22,12.63 L 16.22,12.60 L 15.43,12.21 L 15.36,12.15 L 17.08,11.29 Z" fill="#404040" stroke="none" /><path d="M 8.11,9.42 L 8.11,9.48 L 8.94,9.89 L 9.03,9.89 L 9.86,9.48 L 9.86,9.42 L 9.03,9.00 L 8.94,9.00 Z" fill="#404040" stroke="none" /><path d="M 22.55,8.52 L 21.66,8.08 L 20.77,8.52 L 20.71,8.52 L 18.96,7.63 L 18.89,7.63 L 15.33,9.42 L 15.33,9.48 L 17.05,10.34 L 17.18,10.34 L 18.93,9.45 L 20.68,10.34 L 20.80,10.34 L 21.63,9.92 L 21.63,9.89 L 20.77,9.45 L 22.55,8.56 Z" fill="#404040" stroke="none" /><path d="M 8.11,7.60 L 8.11,7.67 L 8.94,8.08 L 9.03,8.08 L 9.86,7.67 L 9.86,7.60 L 9.03,7.19 L 8.94,7.19 Z" fill="#404040" stroke="none" /><path d="M 2.67,7.60 L 2.67,7.67 L 3.50,8.08 L 3.59,8.08 L 4.42,7.67 L 4.42,7.60 L 3.59,7.19 L 3.50,7.19 Z" fill="#404040" stroke="none" /><path d="M 23.48,7.16 L 23.51,7.22 L 24.33,7.63 L 24.40,7.63 L 25.26,7.19 L 26.15,7.63 L 26.21,7.63 L 27.07,7.19 L 27.07,7.16 L 26.24,6.74 L 26.12,6.74 L 25.32,7.16 L 25.22,7.16 L 24.43,6.74 L 24.30,6.74 Z" fill="#404040" stroke="none" /><path d="M 8.11,4.93 L 8.02,4.93 L 6.30,5.79 L 6.30,5.85 L 7.13,6.27 L 7.06,6.33 L 6.27,6.71 L 6.27,6.74 L 7.06,7.13 L 7.13,7.19 L 5.38,8.08 L 5.38,8.11 L 6.20,8.52 L 6.17,8.59 L 5.38,8.97 L 5.38,9.00 L 7.13,9.89 L 7.22,9.89 L 8.05,9.48 L 8.05,9.42 L 6.36,8.59 L 6.33,8.52 L 8.05,7.67 L 8.05,7.60 L 7.22,7.19 L 7.28,7.13 L 8.08,6.74 L 8.08,6.71 L 7.28,6.33 L 7.22,6.27 L 8.94,5.41 L 8.94,5.34 Z" fill="#404040" stroke="none" /><path d="M 15.33,4.90 L 15.36,4.96 L 16.19,5.38 L 16.25,5.38 L 17.11,4.93 L 17.11,4.90 L 16.29,4.49 L 16.16,4.49 Z" fill="#404040" stroke="none" /><path d="M 18.89,3.12 L 18.07,3.53 L 18.07,3.59 L 18.89,4.01 L 18.83,4.07 L 18.04,4.45 L 18.04,4.49 L 18.96,4.93 L 19.85,4.49 L 19.85,4.45 L 19.05,4.07 L 18.99,4.01 L 19.82,3.59 L 19.82,3.53 L 18.99,3.12 Z" fill="#404040" stroke="none" /><path d="M 15.30,2.19 L 14.44,1.75 L 14.38,1.75 L 12.60,2.64 L 12.60,2.67 L 14.38,3.56 L 12.63,4.45 L 12.56,4.45 L 11.71,4.01 L 10.82,4.45 L 10.75,4.45 L 9.86,4.01 L 8.97,4.45 L 8.97,4.49 L 10.75,5.38 L 10.82,5.38 L 12.56,4.49 L 12.63,4.49 L 13.52,4.93 L 15.30,4.04 L 15.27,3.98 L 14.44,3.56 L 15.30,3.12 L 15.30,3.09 L 14.47,2.67 L 14.50,2.61 L 15.30,2.23 Z" fill="#404040" stroke="none" /><path d="M 8.14,11.23 L 8.14,11.26 L 8.97,11.67 L 9.10,11.67 L 9.86,11.29 L 9.86,11.23 L 9.03,10.82 L 8.94,10.82 Z" fill="#4a4b4e" stroke="none" /><path d="M 20.74,10.34 L 18.96,9.45 L 18.89,9.45 L 16.22,10.78 L 16.22,10.82 L 17.02,11.20 L 17.08,11.26 L 15.36,12.12 L 15.33,12.18 L 16.16,12.60 L 16.29,12.60 L 20.74,10.37 Z" fill="#4a4b4e" stroke="none" /><path d="M 11.74,9.42 L 11.74,9.48 L 12.56,9.89 L 12.66,9.89 L 13.49,9.48 L 13.49,9.42 L 12.66,9.00 L 12.56,9.00 Z" fill="#4a4b4e" stroke="none" /><path d="M 26.15,7.60 L 25.32,7.19 L 25.22,7.19 L 24.37,7.63 L 23.51,7.19 L 23.41,7.19 L 21.69,8.05 L 21.66,8.11 L 22.46,8.49 L 22.49,8.56 L 20.77,9.42 L 20.77,9.48 L 21.60,9.89 L 21.69,9.89 L 26.15,7.67 Z" fill="#4a4b4e" stroke="none" /><path d="M 3.56,7.16 L 3.59,7.22 L 4.42,7.63 L 3.59,8.05 L 3.56,8.11 L 4.39,8.52 L 4.52,8.52 L 6.23,7.67 L 6.23,7.60 L 4.52,6.74 L 4.39,6.74 Z" fill="#4a4b4e" stroke="none" /><path d="M 18.04,6.27 L 18.04,6.30 L 18.93,6.74 L 19.85,6.30 L 19.85,6.27 L 18.96,5.82 Z" fill="#4a4b4e" stroke="none" /><path d="M 9.83,4.93 L 7.19,6.27 L 7.19,6.30 L 8.02,6.71 L 7.98,6.78 L 7.19,7.16 L 7.19,7.19 L 8.05,7.63 L 7.22,8.05 L 7.19,8.11 L 9.86,9.45 L 9.92,9.45 L 11.71,8.56 L 11.71,8.52 L 9.92,7.63 L 9.86,7.63 L 9.00,8.08 L 8.11,7.63 L 10.78,6.30 L 10.78,6.27 L 9.99,5.88 L 9.92,5.82 L 10.75,5.41 L 10.75,5.34 L 9.92,4.93 Z" fill="#4a4b4e" stroke="none" /><path d="M 21.66,4.45 L 21.66,4.49 L 22.55,4.93 L 23.41,4.52 L 23.38,4.45 L 22.55,4.04 L 22.49,4.04 Z" fill="#4a4b4e" stroke="none" /><path d="M 14.44,3.53 L 14.44,3.59 L 15.27,4.01 L 15.20,4.07 L 14.41,4.45 L 14.41,4.49 L 15.30,4.93 L 16.19,4.49 L 16.25,4.49 L 17.02,4.87 L 17.08,4.93 L 16.25,5.34 L 16.25,5.41 L 17.08,5.82 L 17.18,5.82 L 18.93,4.93 L 18.93,4.90 L 18.10,4.49 L 18.13,4.42 L 18.93,4.04 L 18.89,3.98 L 16.29,2.67 L 16.16,2.67 Z" fill="#4a4b4e" stroke="none" /><path d="M 14.38,3.53 L 12.66,2.67 L 12.53,2.67 L 9.92,3.98 L 9.89,4.04 L 10.72,4.45 L 10.85,4.45 L 11.64,4.04 L 11.74,4.04 L 12.50,4.42 L 12.53,4.49 L 11.71,4.90 L 11.71,4.93 L 12.56,5.38 L 12.63,5.38 L 13.49,4.93 L 13.49,4.90 L 12.69,4.52 L 12.66,4.45 L 14.38,3.59 Z" fill="#4a4b4e" stroke="none" /><path d="M 12.60,9.89 L 11.74,9.45 L 11.67,9.45 L 9.00,10.78 L 9.00,10.82 L 9.86,11.26 L 9.92,11.26 L 12.60,9.92 Z" fill="#575757" stroke="none" /><path d="M 12.56,5.34 L 11.74,4.93 L 11.64,4.93 L 9.92,5.79 L 9.89,5.85 L 10.72,6.27 L 10.85,6.27 L 12.56,5.41 Z" fill="#575757" stroke="none" /><path d="M 22.55,4.90 L 21.73,4.49 L 21.60,4.49 L 18.99,5.79 L 18.96,5.85 L 19.79,6.27 L 19.91,6.27 L 22.52,4.96 Z" fill="#575757" stroke="none" /></svg>