<svg height="32" width="32" viewBox="0 0 32 32"><defs /><path d="M 20.71,24.49 L 20.64,24.49 L 19.79,24.94 L 19.79,28.25 L 19.85,28.25 L 20.71,27.80 Z" fill="#0a0704" stroke="none" /><path d="M 25.22,22.23 L 25.16,22.23 L 24.33,22.65 L 24.33,25.99 L 25.22,25.54 Z" fill="#0a0704" stroke="none" /><path d="M 27.93,17.56 L 27.86,17.56 L 15.27,23.86 L 15.27,30.50 L 15.33,30.50 L 16.19,30.06 L 16.19,24.56 L 16.25,24.49 L 27.01,19.12 L 27.04,19.15 L 27.04,20.20 L 27.10,20.20 L 27.93,19.79 Z" fill="#0a0704" stroke="none" /><path d="M 20.71,15.62 L 19.79,16.06 L 19.79,19.40 L 20.71,18.96 Z" fill="#0a0704" stroke="none" /><path d="M 25.22,13.36 L 24.33,13.81 L 24.33,17.11 L 24.40,17.11 L 25.22,16.70 Z" fill="#0a0704" stroke="none" /><path d="M 27.93,8.68 L 15.27,15.01 L 15.27,21.66 L 16.19,21.22 L 16.19,15.68 L 16.25,15.62 L 27.01,10.24 L 27.04,10.27 L 27.04,11.32 L 27.10,11.32 L 27.93,10.91 Z" fill="#0a0704" stroke="none" /><path d="M 17.08,24.08 L 16.19,24.52 L 16.19,25.64 L 17.08,25.19 Z" fill="#0b0905" stroke="none" /><path d="M 17.08,15.20 L 16.19,15.65 L 16.19,16.76 L 17.08,16.32 Z" fill="#0b0905" stroke="none" /><path d="M 19.79,26.05 L 18.89,26.50 L 18.89,28.69 L 18.96,28.69 L 19.79,28.28 Z" fill="#0f0c07" stroke="none" /><path d="M 24.33,23.79 L 24.27,23.79 L 23.41,24.24 L 23.41,26.43 L 23.48,26.43 L 24.33,25.99 Z" fill="#0f0c07" stroke="none" /><path d="M 27.93,19.79 L 27.86,19.79 L 27.07,20.20 L 27.04,20.17 L 27.04,19.12 L 26.97,19.12 L 17.11,24.05 L 17.08,24.08 L 17.08,25.16 L 17.02,25.22 L 16.19,25.64 L 16.19,30.06 L 17.08,29.61 L 17.08,25.22 L 17.15,25.16 L 19.75,23.86 L 19.79,23.89 L 19.79,24.94 L 19.82,24.94 L 20.71,24.49 L 20.71,23.41 L 20.77,23.35 L 24.27,21.60 L 24.33,21.63 L 24.33,22.65 L 24.40,22.65 L 25.22,22.23 L 25.22,21.15 L 25.29,21.09 L 27.01,20.23 L 27.04,20.26 L 27.04,24.62 L 27.10,24.62 L 27.93,24.21 Z" fill="#0f0c07" stroke="none" /><path d="M 19.79,17.18 L 18.89,17.62 L 18.89,19.85 L 19.79,19.40 Z" fill="#0f0c07" stroke="none" /><path d="M 24.33,14.92 L 24.27,14.92 L 23.41,15.36 L 23.41,17.59 L 24.33,17.15 Z" fill="#0f0c07" stroke="none" /><path d="M 27.93,10.91 L 27.86,10.91 L 27.07,11.32 L 27.04,11.29 L 27.04,10.24 L 26.97,10.24 L 17.11,15.17 L 17.08,15.20 L 17.08,16.29 L 17.02,16.35 L 16.19,16.76 L 16.19,21.18 L 16.25,21.18 L 17.08,20.77 L 17.08,16.35 L 17.15,16.29 L 19.75,14.98 L 19.79,15.01 L 19.79,16.06 L 19.85,16.06 L 20.71,15.62 L 20.71,14.54 L 20.77,14.47 L 24.27,12.72 L 24.33,12.76 L 24.33,13.81 L 24.37,13.81 L 25.22,13.36 L 25.22,12.28 L 25.29,12.21 L 27.01,11.36 L 27.04,11.39 L 27.04,15.78 L 27.90,15.36 L 27.93,15.33 Z" fill="#0f0c07" stroke="none" /><path d="M 18.89,24.30 L 18.83,24.30 L 17.08,25.19 L 17.08,29.61 L 18.89,28.72 Z" fill="#1a130a" stroke="none" /><path d="M 23.41,22.04 L 23.35,22.04 L 20.71,23.38 L 20.71,27.80 L 23.41,26.47 Z" fill="#1a130a" stroke="none" /><path d="M 27.04,20.23 L 26.97,20.23 L 25.22,21.12 L 25.22,25.54 L 27.04,24.65 Z" fill="#1a130a" stroke="none" /><path d="M 18.89,15.43 L 18.83,15.43 L 17.08,16.32 L 17.08,20.74 L 17.15,20.74 L 18.89,19.85 Z" fill="#1a130a" stroke="none" /><path d="M 23.41,13.17 L 23.35,13.17 L 20.71,14.50 L 20.71,18.93 L 20.77,18.93 L 23.41,17.59 Z" fill="#1a130a" stroke="none" /><path d="M 27.04,11.36 L 26.97,11.36 L 25.22,12.25 L 25.22,16.67 L 25.29,16.67 L 27.04,15.78 Z" fill="#1a130a" stroke="none" /><path d="M 19.79,23.86 L 19.72,23.86 L 18.89,24.27 L 18.89,26.50 L 19.79,26.05 Z" fill="#261d11" stroke="none" /><path d="M 24.33,21.57 L 23.41,22.01 L 23.41,24.24 L 24.33,23.79 Z" fill="#261d11" stroke="none" /><path d="M 19.79,14.98 L 19.72,14.98 L 18.89,15.40 L 18.89,17.62 L 19.79,17.18 Z" fill="#261d11" stroke="none" /><path d="M 24.33,12.69 L 23.41,13.14 L 23.41,15.36 L 24.33,14.92 Z" fill="#261d11" stroke="none" /><path d="M 15.27,20.55 L 14.41,20.96 L 14.41,22.08 L 14.47,22.08 L 15.27,21.66 Z" fill="#312718" stroke="none" /><path d="M 28.82,17.11 L 28.76,17.11 L 27.93,17.53 L 27.93,18.64 L 27.99,18.64 L 28.82,18.23 Z" fill="#312718" stroke="none" /><path d="M 28.82,13.77 L 27.93,14.22 L 27.93,15.33 L 28.82,14.89 Z" fill="#312718" stroke="none" /><path d="M 28.82,8.24 L 27.93,8.68 L 27.93,10.88 L 27.99,10.88 L 28.82,10.47 Z" fill="#312718" stroke="none" /><path d="M 27.04,24.65 L 26.97,24.65 L 26.15,25.07 L 26.15,26.15 L 27.04,25.70 Z" fill="#3d2f1a" stroke="none" /><path d="M 15.27,23.89 L 15.20,23.89 L 14.41,24.30 L 14.41,25.42 L 15.27,25.00 Z" fill="#3d2f1a" stroke="none" /><path d="M 28.82,22.65 L 27.93,23.09 L 27.93,24.17 L 27.99,24.17 L 28.82,23.76 Z" fill="#3d2f1a" stroke="none" /><path d="M 17.97,21.44 L 17.91,21.44 L 16.19,22.30 L 16.19,23.41 L 17.97,22.52 Z" fill="#3d2f1a" stroke="none" /><path d="M 28.82,18.23 L 28.76,18.23 L 27.93,18.64 L 27.93,19.75 L 27.99,19.75 L 28.82,19.34 Z" fill="#3d2f1a" stroke="none" /><path d="M 28.82,16.00 L 25.22,17.78 L 25.22,18.89 L 28.82,17.11 Z" fill="#3d2f1a" stroke="none" /><path d="M 28.82,10.47 L 28.76,10.47 L 27.93,10.88 L 27.93,14.22 L 28.82,13.77 Z" fill="#3d2f1a" stroke="none" /><path d="M 15.27,29.42 L 14.41,29.84 L 14.41,30.95 L 15.27,30.54 Z" fill="#3f341e" stroke="none" /><path d="M 20.71,20.07 L 20.64,20.07 L 17.97,21.41 L 17.97,22.52 L 20.68,21.18 L 20.71,21.15 Z" fill="#3f341e" stroke="none" /><path d="M 25.22,17.81 L 25.16,17.81 L 22.55,19.12 L 22.52,19.15 L 22.52,20.23 L 22.58,20.23 L 25.19,18.93 L 25.22,18.89 Z" fill="#3f341e" stroke="none" /><path d="M 15.27,15.01 L 14.41,15.43 L 14.41,16.54 L 15.27,16.13 Z" fill="#3f341e" stroke="none" /><path d="M 28.82,14.89 L 26.18,16.19 L 26.15,16.22 L 26.15,17.34 L 28.79,16.03 L 28.82,16.00 Z" fill="#3f341e" stroke="none" /><path d="M 26.15,8.52 L 26.08,8.52 L 23.41,9.86 L 23.41,10.94 L 26.12,9.61 L 26.15,9.57 Z" fill="#3f341e" stroke="none" /><path d="M 28.82,7.19 L 28.76,7.19 L 27.93,7.60 L 27.93,8.68 L 28.82,8.24 Z" fill="#3f341e" stroke="none" /><path d="M 15.27,30.54 L 15.20,30.54 L 14.41,30.95 L 14.41,32.00 L 14.47,32.00 L 15.27,31.59 Z" fill="#473720" stroke="none" /><path d="M 15.27,27.20 L 14.41,27.61 L 14.41,29.84 L 14.47,29.84 L 15.27,29.42 Z" fill="#473720" stroke="none" /><path d="M 22.52,26.91 L 22.46,26.91 L 20.71,27.80 L 20.71,28.85 L 20.77,28.85 L 22.52,27.96 Z" fill="#473720" stroke="none" /><path d="M 28.82,23.76 L 28.76,23.76 L 27.04,24.62 L 27.04,25.70 L 28.82,24.81 Z" fill="#473720" stroke="none" /><path d="M 17.08,20.77 L 17.02,20.77 L 15.27,21.66 L 15.27,22.74 L 15.20,22.81 L 14.41,23.19 L 14.41,24.30 L 16.19,23.41 L 16.19,22.33 L 17.08,21.88 Z" fill="#473720" stroke="none" /><path d="M 28.82,19.34 L 28.76,19.34 L 27.93,19.75 L 27.93,23.09 L 28.82,22.65 Z" fill="#473720" stroke="none" /><path d="M 22.52,19.15 L 20.71,20.04 L 20.71,21.15 L 22.52,20.26 Z" fill="#473720" stroke="none" /><path d="M 15.27,17.24 L 15.20,17.24 L 14.41,17.65 L 14.41,20.96 L 14.47,20.96 L 15.27,20.55 Z" fill="#473720" stroke="none" /><path d="M 26.15,16.22 L 24.33,17.11 L 24.33,18.23 L 24.40,18.23 L 26.15,17.34 Z" fill="#473720" stroke="none" /><path d="M 18.89,12.15 L 18.83,12.15 L 17.08,13.04 L 17.08,14.09 L 17.15,14.09 L 18.89,13.20 Z" fill="#473720" stroke="none" /><path d="M 27.93,7.63 L 27.86,7.63 L 26.15,8.49 L 26.15,9.57 L 27.93,8.68 Z" fill="#473720" stroke="none" /><path d="M 17.08,29.61 L 15.27,30.50 L 15.27,31.59 L 17.08,30.70 Z" fill="#4a3c27" stroke="none" /><path d="M 20.71,27.80 L 19.79,28.25 L 19.79,29.33 L 20.71,28.88 Z" fill="#4a3c27" stroke="none" /><path d="M 26.15,25.10 L 26.08,25.10 L 22.52,26.88 L 22.52,27.96 L 26.12,26.18 L 26.15,26.15 Z" fill="#4a3c27" stroke="none" /><path d="M 15.27,21.66 L 14.41,22.08 L 14.41,23.19 L 14.47,23.19 L 15.27,22.78 Z" fill="#4a3c27" stroke="none" /><path d="M 18.89,19.85 L 17.08,20.74 L 17.08,21.85 L 17.15,21.85 L 18.89,20.96 Z" fill="#4a3c27" stroke="none" /><path d="M 24.33,17.15 L 24.27,17.15 L 21.60,18.48 L 21.60,19.59 L 21.66,19.59 L 24.33,18.26 Z" fill="#4a3c27" stroke="none" /><path d="M 15.27,16.13 L 15.20,16.13 L 14.41,16.54 L 14.41,17.65 L 15.27,17.24 Z" fill="#4a3c27" stroke="none" /><path d="M 12.63,26.75 L 12.63,28.91 L 12.60,28.95 L 10.91,28.09 L 10.85,28.09 L 10.85,29.17 L 13.49,30.50 L 13.55,30.50 L 13.55,27.20 L 12.69,26.75 Z" fill="#604a2a" stroke="none" /><path d="M 7.22,26.27 L 7.22,27.36 L 7.25,27.39 L 9.86,28.69 L 9.92,28.69 L 9.92,27.61 L 9.89,27.58 L 7.28,26.27 Z" fill="#604a2a" stroke="none" /><path d="M 0.89,23.09 L 0.89,24.21 L 5.34,26.43 L 5.41,26.43 L 5.41,24.24 L 5.38,24.21 L 4.55,23.79 L 4.49,23.79 L 4.49,24.84 L 4.45,24.87 Z" fill="#604a2a" stroke="none" /><path d="M 8.11,21.15 L 8.11,22.27 L 9.03,22.74 L 9.03,24.94 L 9.92,25.38 L 9.92,23.22 L 9.96,23.19 L 10.85,23.63 L 10.85,22.52 Z" fill="#604a2a" stroke="none" /><path d="M 3.59,18.89 L 3.59,20.01 L 4.42,20.42 L 4.49,20.49 L 4.49,22.68 L 5.41,23.13 L 5.41,19.79 Z" fill="#604a2a" stroke="none" /><path d="M 0.89,18.67 L 0.89,21.98 L 1.78,22.43 L 1.78,19.09 L 0.95,18.67 Z" fill="#604a2a" stroke="none" /><path d="M 12.63,17.88 L 12.63,20.04 L 12.60,20.07 L 10.91,19.21 L 10.85,19.21 L 10.85,20.33 L 13.55,21.66 L 13.55,18.32 Z" fill="#604a2a" stroke="none" /><path d="M 11.74,14.12 L 11.74,15.20 L 13.49,16.10 L 13.55,16.10 L 13.55,15.01 L 11.80,14.12 Z" fill="#604a2a" stroke="none" /><path d="M 0.89,10.91 L 0.89,14.22 L 1.72,14.63 L 1.78,14.70 L 1.78,15.78 L 5.41,17.59 L 5.41,14.25 L 4.49,13.81 L 4.49,15.97 L 4.45,16.00 L 1.84,14.70 L 1.78,14.63 L 1.78,11.32 L 0.95,10.91 Z" fill="#604a2a" stroke="none" /><path d="M 3.59,10.05 L 3.59,11.13 L 3.63,11.17 L 9.03,13.87 L 9.03,18.23 L 8.97,18.26 L 7.28,17.40 L 7.22,17.40 L 7.22,18.51 L 9.92,19.85 L 9.92,13.20 L 3.66,10.05 Z" fill="#604a2a" stroke="none" /><path d="M 19.79,28.28 L 19.72,28.28 L 17.11,29.58 L 17.08,29.61 L 17.08,30.66 L 17.15,30.66 L 19.75,29.36 L 19.79,29.33 Z" fill="#51422b" stroke="none" /><path d="M 15.27,25.00 L 15.20,25.00 L 14.41,25.42 L 14.41,27.61 L 14.47,27.61 L 15.27,27.20 Z" fill="#51422b" stroke="none" /><path d="M 21.60,18.51 L 21.53,18.51 L 18.93,19.82 L 18.89,19.85 L 18.89,20.96 L 21.60,19.63 Z" fill="#51422b" stroke="none" /><path d="M 17.08,13.04 L 14.44,14.35 L 14.41,14.38 L 14.41,15.43 L 14.47,15.43 L 17.08,14.12 Z" fill="#51422b" stroke="none" /><path d="M 23.41,9.89 L 23.35,9.89 L 18.89,12.12 L 18.89,13.20 L 23.38,10.97 L 23.41,10.94 Z" fill="#51422b" stroke="none" /><path d="M 11.74,27.42 L 11.74,28.53 L 12.56,28.95 L 12.63,28.95 L 12.63,27.83 L 11.80,27.42 Z" fill="#665531" stroke="none" /><path d="M 8.11,25.61 L 8.11,26.72 L 9.86,27.58 L 9.92,27.64 L 9.92,28.72 L 10.78,29.14 L 10.85,29.20 L 10.85,30.25 L 14.35,32.00 L 14.41,32.00 L 14.41,29.84 L 13.55,29.42 L 13.55,30.47 L 13.52,30.50 L 10.91,29.20 L 10.85,29.14 L 10.85,28.06 L 9.99,27.64 L 9.92,27.58 L 9.92,25.38 L 9.03,24.94 L 9.03,25.99 L 9.00,26.02 L 8.17,25.61 Z" fill="#665531" stroke="none" /><path d="M 1.78,24.65 L 1.78,25.70 L 1.81,25.73 L 5.38,27.51 L 5.41,27.51 L 5.41,26.50 L 5.44,26.47 L 7.22,27.36 L 7.22,26.24 L 5.44,25.35 L 5.41,25.35 L 5.41,26.40 L 5.38,26.43 L 1.84,24.65 Z" fill="#665531" stroke="none" /><path d="M 4.55,22.68 L 4.49,22.68 L 4.49,23.73 L 4.45,23.76 L 3.66,23.35 L 3.59,23.35 L 3.59,24.46 L 4.42,24.87 L 4.49,24.87 L 4.49,23.83 L 4.52,23.79 L 5.41,24.24 L 5.41,23.13 Z" fill="#665531" stroke="none" /><path d="M 10.85,22.52 L 10.85,23.63 L 12.56,24.49 L 12.63,24.56 L 12.63,26.75 L 13.55,27.20 L 13.55,23.86 Z" fill="#665531" stroke="none" /><path d="M 0.89,21.98 L 0.89,23.09 L 1.78,23.54 L 1.78,22.43 Z" fill="#665531" stroke="none" /><path d="M 5.41,19.82 L 5.41,20.93 L 8.11,22.27 L 8.11,21.15 L 8.08,21.12 L 5.47,19.82 Z" fill="#665531" stroke="none" /><path d="M 9.92,18.74 L 9.92,19.85 L 10.78,20.29 L 10.85,20.29 L 10.85,19.18 Z" fill="#665531" stroke="none" /><path d="M 11.74,18.54 L 11.74,19.66 L 12.56,20.07 L 12.63,20.07 L 12.63,18.96 L 11.80,18.54 Z" fill="#665531" stroke="none" /><path d="M 0.89,17.56 L 0.89,18.67 L 3.59,20.01 L 3.59,18.89 L 3.56,18.86 L 0.95,17.56 Z" fill="#665531" stroke="none" /><path d="M 8.11,16.73 L 8.11,17.84 L 9.03,18.29 L 9.03,17.18 L 8.17,16.73 Z" fill="#665531" stroke="none" /><path d="M 5.41,16.48 L 5.41,17.59 L 7.16,18.48 L 7.22,18.48 L 7.22,17.37 Z" fill="#665531" stroke="none" /><path d="M 12.63,15.65 L 12.63,17.88 L 13.49,18.32 L 13.55,18.32 L 13.55,16.10 Z" fill="#665531" stroke="none" /><path d="M 3.59,14.47 L 3.59,15.59 L 4.42,16.00 L 4.49,16.00 L 4.49,14.89 L 3.66,14.47 Z" fill="#665531" stroke="none" /><path d="M 0.89,14.22 L 0.89,15.33 L 1.78,15.78 L 1.78,14.66 Z" fill="#665531" stroke="none" /><path d="M 9.92,13.20 L 9.92,14.31 L 11.74,15.20 L 11.74,14.09 Z" fill="#665531" stroke="none" /><path d="M 4.49,11.58 L 4.49,13.81 L 5.34,14.25 L 5.41,14.25 L 5.41,12.02 Z" fill="#665531" stroke="none" /><path d="M 0.89,8.68 L 0.89,10.91 L 1.72,11.32 L 1.78,11.32 L 1.78,10.27 L 1.81,10.24 L 3.59,11.13 L 3.59,10.02 Z" fill="#665531" stroke="none" /><path d="M 13.55,27.20 L 13.55,29.42 L 14.35,29.84 L 14.41,29.84 L 14.41,27.61 Z" fill="#705c36" stroke="none" /><path d="M 5.41,26.47 L 5.41,27.51 L 5.44,27.55 L 10.78,30.22 L 10.85,30.22 L 10.85,29.17 L 10.82,29.14 L 5.47,26.47 Z" fill="#705c36" stroke="none" /><path d="M 11.77,25.19 L 11.74,25.19 L 11.74,27.36 L 11.71,27.39 L 10.91,26.97 L 10.85,26.97 L 10.85,28.09 L 11.67,28.50 L 11.74,28.50 L 11.74,27.45 L 11.77,27.42 L 12.56,27.83 L 12.63,27.83 L 12.63,25.64 Z" fill="#705c36" stroke="none" /><path d="M 0.00,23.76 L 0.00,24.81 L 1.78,25.70 L 1.78,24.62 L 0.06,23.76 Z" fill="#705c36" stroke="none" /><path d="M 8.14,23.38 L 8.11,23.38 L 8.11,25.54 L 8.08,25.57 L 6.30,24.68 L 6.30,25.80 L 8.05,26.69 L 8.11,26.69 L 8.11,25.64 L 8.14,25.61 L 9.03,26.05 L 9.03,23.83 Z" fill="#705c36" stroke="none" /><path d="M 3.63,21.12 L 3.59,21.12 L 3.59,23.28 L 3.56,23.32 L 2.67,22.87 L 2.67,23.98 L 3.53,24.43 L 3.59,24.43 L 3.59,23.38 L 3.63,23.35 L 4.42,23.76 L 4.49,23.76 L 4.49,21.57 Z" fill="#705c36" stroke="none" /><path d="M 7.22,19.63 L 7.22,20.71 L 7.25,20.74 L 11.74,22.97 L 11.74,21.85 L 7.28,19.63 Z" fill="#705c36" stroke="none" /><path d="M 0.89,16.45 L 0.89,17.56 L 2.61,18.42 L 2.67,18.42 L 2.67,17.34 Z" fill="#705c36" stroke="none" /><path d="M 11.77,16.32 L 11.74,16.32 L 11.74,18.48 L 11.71,18.51 L 10.91,18.10 L 10.85,18.10 L 10.85,19.21 L 11.67,19.63 L 11.74,19.63 L 11.74,18.58 L 11.77,18.54 L 12.56,18.96 L 12.63,18.96 L 12.63,16.76 Z" fill="#705c36" stroke="none" /><path d="M 8.14,14.50 L 8.11,14.50 L 8.11,16.67 L 8.08,16.70 L 6.30,15.81 L 6.30,16.92 L 8.05,17.81 L 8.11,17.81 L 8.11,16.76 L 8.14,16.73 L 9.03,17.18 L 9.03,14.95 Z" fill="#705c36" stroke="none" /><path d="M 3.63,12.25 L 3.59,12.25 L 3.59,14.41 L 3.56,14.44 L 2.67,14.00 L 2.67,15.11 L 3.53,15.55 L 3.59,15.55 L 3.59,14.50 L 3.63,14.47 L 4.42,14.89 L 4.49,14.89 L 4.49,12.69 Z" fill="#705c36" stroke="none" /><path d="M 10.88,24.75 L 10.85,24.75 L 10.85,26.91 L 10.82,26.94 L 9.92,26.50 L 9.92,27.61 L 10.78,28.06 L 10.85,28.06 L 10.85,27.01 L 10.88,26.97 L 11.67,27.39 L 11.74,27.39 L 11.74,25.19 Z" fill="#765f3d" stroke="none" /><path d="M 9.03,22.71 L 8.11,22.27 L 8.11,23.32 L 8.05,23.35 L 6.36,22.49 L 6.30,22.49 L 6.30,24.62 L 6.23,24.65 L 5.41,24.24 L 5.41,25.35 L 6.30,25.80 L 6.30,24.75 L 6.36,24.72 L 8.05,25.57 L 8.11,25.57 L 8.11,23.44 L 8.17,23.41 L 8.97,23.83 L 9.03,23.83 Z" fill="#765f3d" stroke="none" /><path d="M 11.74,21.88 L 11.74,22.97 L 13.55,23.89 L 13.55,27.20 L 14.35,27.61 L 14.41,27.61 L 14.41,23.19 L 11.80,21.88 Z" fill="#765f3d" stroke="none" /><path d="M 2.74,20.68 L 2.67,20.68 L 2.67,22.81 L 2.61,22.84 L 1.78,22.43 L 1.78,23.54 L 2.64,23.98 L 2.67,23.98 L 2.67,22.93 L 2.70,22.90 L 3.53,23.32 L 3.59,23.32 L 3.59,21.12 Z" fill="#765f3d" stroke="none" /><path d="M 8.11,18.96 L 8.11,20.07 L 10.78,21.41 L 10.85,21.41 L 10.85,20.29 L 8.17,18.96 Z" fill="#765f3d" stroke="none" /><path d="M 2.67,17.34 L 2.67,18.45 L 7.22,20.71 L 7.22,19.59 Z" fill="#765f3d" stroke="none" /><path d="M 13.55,16.13 L 13.55,18.35 L 14.41,18.77 L 14.41,16.54 L 13.61,16.13 Z" fill="#765f3d" stroke="none" /><path d="M 10.88,15.87 L 10.85,15.87 L 10.85,18.04 L 10.82,18.07 L 9.92,17.62 L 9.92,18.74 L 10.78,19.18 L 10.85,19.18 L 10.85,18.13 L 10.88,18.10 L 11.67,18.51 L 11.74,18.51 L 11.74,16.32 Z" fill="#765f3d" stroke="none" /><path d="M 9.03,13.84 L 8.11,13.39 L 8.11,14.44 L 8.05,14.47 L 6.36,13.61 L 6.30,13.61 L 6.30,15.75 L 6.23,15.78 L 5.41,15.36 L 5.41,16.48 L 6.30,16.92 L 6.30,15.87 L 6.36,15.84 L 8.05,16.70 L 8.11,16.70 L 8.11,14.57 L 8.17,14.54 L 8.97,14.95 L 9.03,14.95 Z" fill="#765f3d" stroke="none" /><path d="M 2.74,11.80 L 2.67,11.80 L 2.67,13.93 L 2.61,13.96 L 1.78,13.55 L 1.78,14.66 L 2.64,15.11 L 2.67,15.11 L 2.67,14.06 L 2.70,14.03 L 3.53,14.44 L 3.59,14.44 L 3.59,12.25 Z" fill="#765f3d" stroke="none" /><path d="M 9.92,24.30 L 9.92,26.50 L 10.78,26.94 L 10.85,26.94 L 10.85,24.75 L 9.99,24.30 Z" fill="#7c653f" stroke="none" /><path d="M 11.74,24.08 L 11.74,25.19 L 12.63,25.64 L 12.63,24.52 Z" fill="#7c653f" stroke="none" /><path d="M 5.41,22.04 L 5.41,24.24 L 6.30,24.68 L 6.30,22.46 L 5.47,22.04 Z" fill="#7c653f" stroke="none" /><path d="M 7.22,21.82 L 7.22,22.93 L 8.11,23.38 L 8.11,22.27 Z" fill="#7c653f" stroke="none" /><path d="M 0.00,20.42 L 0.00,23.76 L 0.83,24.17 L 0.89,24.17 L 0.89,20.87 Z" fill="#7c653f" stroke="none" /><path d="M 1.78,20.23 L 1.78,22.43 L 2.67,22.87 L 2.67,20.64 L 1.84,20.23 Z" fill="#7c653f" stroke="none" /><path d="M 3.59,20.01 L 3.59,21.12 L 4.49,21.57 L 4.49,20.45 Z" fill="#7c653f" stroke="none" /><path d="M 13.61,18.35 L 13.55,18.35 L 13.55,21.60 L 13.52,21.63 L 10.91,20.33 L 10.85,20.33 L 10.85,21.44 L 13.52,22.78 L 13.55,22.78 L 13.55,21.73 L 13.58,21.69 L 14.35,22.08 L 14.41,22.08 L 14.41,18.77 Z" fill="#7c653f" stroke="none" /><path d="M 6.30,18.04 L 6.30,19.15 L 8.05,20.04 L 8.11,20.04 L 8.11,18.93 Z" fill="#7c653f" stroke="none" /><path d="M 0.00,16.00 L 0.00,17.11 L 0.83,17.53 L 0.89,17.53 L 0.89,16.45 Z" fill="#7c653f" stroke="none" /><path d="M 1.78,15.78 L 1.78,16.89 L 3.53,17.78 L 3.59,17.78 L 3.59,16.67 Z" fill="#7c653f" stroke="none" /><path d="M 9.92,15.43 L 9.92,17.62 L 10.78,18.07 L 10.85,18.07 L 10.85,15.87 L 9.99,15.43 Z" fill="#7c653f" stroke="none" /><path d="M 11.74,15.20 L 11.74,16.32 L 12.63,16.76 L 12.63,15.65 Z" fill="#7c653f" stroke="none" /><path d="M 5.41,13.17 L 5.41,15.36 L 6.30,15.81 L 6.30,13.58 L 5.47,13.17 Z" fill="#7c653f" stroke="none" /><path d="M 11.74,13.04 L 11.74,14.12 L 13.49,14.98 L 13.55,15.05 L 13.55,16.13 L 14.41,16.54 L 14.41,14.38 Z" fill="#7c653f" stroke="none" /><path d="M 7.22,12.95 L 7.22,14.06 L 8.11,14.50 L 8.11,13.39 Z" fill="#7c653f" stroke="none" /><path d="M 0.00,11.58 L 0.00,14.89 L 0.89,15.33 L 0.89,11.99 L 0.06,11.58 Z" fill="#7c653f" stroke="none" /><path d="M 1.78,11.36 L 1.78,13.55 L 2.67,14.00 L 2.67,11.77 L 1.84,11.36 Z" fill="#7c653f" stroke="none" /><path d="M 3.59,11.13 L 3.59,12.25 L 4.49,12.69 L 4.49,11.58 Z" fill="#7c653f" stroke="none" /><path d="M 7.22,10.78 L 7.22,11.86 L 9.92,13.20 L 9.92,12.12 Z" fill="#7c653f" stroke="none" /><path d="M 2.67,8.52 L 2.67,9.57 L 4.42,10.47 L 4.49,10.47 L 4.49,9.42 L 2.74,8.52 Z" fill="#7c653f" stroke="none" /><path d="M 13.49,10.34 L 12.60,9.89 L 9.92,11.23 L 9.92,11.29 L 11.64,12.15 L 11.74,12.15 L 12.56,11.74 L 12.56,11.67 L 11.74,11.26 L 11.80,11.20 L 13.49,10.37 Z" fill="#947340" stroke="none" /><path d="M 20.71,7.60 L 18.99,6.74 L 18.89,6.74 L 14.44,8.97 L 14.44,9.03 L 15.27,9.45 L 14.44,9.86 L 14.44,9.92 L 16.16,10.78 L 16.29,10.78 L 17.11,10.37 L 17.11,10.34 L 15.36,9.48 L 15.33,9.45 L 15.36,9.42 L 18.93,7.63 L 19.79,8.08 L 19.88,8.08 L 20.71,7.67 Z" fill="#947340" stroke="none" /><path d="M 1.75,7.16 L 1.78,7.22 L 5.34,9.00 L 6.27,8.56 L 6.27,8.52 L 3.63,7.22 L 3.59,7.19 L 3.66,7.13 L 4.45,6.74 L 4.45,6.71 L 3.56,6.27 Z" fill="#947340" stroke="none" /><path d="M 21.69,5.34 L 21.69,5.41 L 23.41,6.27 L 23.51,6.27 L 24.33,5.85 L 24.33,5.79 L 22.62,4.93 L 22.52,4.93 Z" fill="#947340" stroke="none" /><path d="M 14.38,5.34 L 13.55,4.93 L 13.46,4.93 L 9.92,6.71 L 9.83,6.71 L 9.03,6.30 L 8.91,6.30 L 8.08,6.71 L 8.08,6.74 L 10.75,8.08 L 10.85,8.08 L 11.67,7.67 L 11.64,7.60 L 10.85,7.22 L 10.82,7.19 L 10.85,7.16 L 14.38,5.41 Z" fill="#947340" stroke="none" /><path d="M 18.93,3.09 L 18.10,2.67 L 17.97,2.67 L 16.25,3.53 L 16.25,3.59 L 17.08,4.01 L 17.18,4.01 L 18.89,3.15 Z" fill="#947340" stroke="none" /><path d="M 9.89,3.09 L 9.92,3.15 L 12.53,4.45 L 12.66,4.45 L 13.49,4.04 L 13.46,3.98 L 11.74,3.12 L 11.80,3.05 L 12.60,2.67 L 12.60,2.64 L 11.71,2.19 Z" fill="#947340" stroke="none" /><path d="M 9.92,23.19 L 9.92,24.30 L 11.74,25.19 L 11.74,24.08 L 9.99,23.19 Z" fill="#846d48" stroke="none" /><path d="M 13.55,21.66 L 13.55,22.78 L 14.35,23.19 L 14.41,23.19 L 14.41,22.08 Z" fill="#846d48" stroke="none" /><path d="M 5.41,20.93 L 5.41,22.04 L 7.22,22.93 L 7.22,21.82 L 5.47,20.93 Z" fill="#846d48" stroke="none" /><path d="M 1.78,19.12 L 1.78,20.23 L 3.59,21.12 L 3.59,20.01 L 1.84,19.12 Z" fill="#846d48" stroke="none" /><path d="M 0.00,17.11 L 0.00,20.42 L 0.89,20.87 L 0.89,17.53 L 0.06,17.11 Z" fill="#846d48" stroke="none" /><path d="M 3.59,16.70 L 3.59,17.81 L 6.30,19.15 L 6.30,18.04 L 6.27,18.00 L 3.66,16.70 Z" fill="#846d48" stroke="none" /><path d="M 0.00,14.89 L 0.00,16.00 L 1.78,16.89 L 1.78,15.78 Z" fill="#846d48" stroke="none" /><path d="M 9.92,14.31 L 9.92,15.43 L 11.74,16.32 L 11.74,15.20 L 9.99,14.31 Z" fill="#846d48" stroke="none" /><path d="M 9.92,12.15 L 9.92,13.20 L 11.67,14.09 L 11.74,14.09 L 11.74,13.04 L 9.99,12.15 Z" fill="#846d48" stroke="none" /><path d="M 5.41,12.06 L 5.41,13.17 L 7.22,14.06 L 7.22,12.95 L 5.47,12.06 Z" fill="#846d48" stroke="none" /><path d="M 1.78,10.24 L 1.78,11.36 L 3.59,12.25 L 3.59,11.13 L 1.84,10.24 Z" fill="#846d48" stroke="none" /><path d="M 4.49,9.42 L 4.49,10.50 L 7.16,11.83 L 7.22,11.83 L 7.22,10.78 L 7.19,10.75 Z" fill="#846d48" stroke="none" /><path d="M 0.00,7.19 L 0.00,11.58 L 0.83,11.99 L 0.89,11.99 L 0.89,8.75 L 0.95,8.72 L 2.67,9.57 L 2.67,8.49 L 0.06,7.19 Z" fill="#846d48" stroke="none" /><path d="M 18.89,11.23 L 17.18,10.37 L 17.05,10.37 L 16.22,10.78 L 16.22,10.82 L 17.02,11.20 L 17.08,11.26 L 17.05,11.29 L 14.44,12.60 L 14.38,12.60 L 12.66,11.74 L 12.63,11.71 L 12.66,11.67 L 13.46,11.29 L 13.49,11.23 L 12.66,10.82 L 12.53,10.82 L 11.71,11.23 L 11.74,11.29 L 12.56,11.71 L 11.74,12.12 L 11.71,12.18 L 14.38,13.52 L 14.44,13.52 L 18.89,11.29 Z" fill="#9d824c" stroke="none" /><path d="M 15.33,9.42 L 15.33,9.48 L 16.16,9.89 L 16.25,9.89 L 17.08,9.48 L 17.08,9.42 L 16.25,9.00 L 16.16,9.00 Z" fill="#9d824c" stroke="none" /><path d="M 9.86,7.60 L 9.03,7.19 L 8.94,7.19 L 5.38,8.97 L 5.38,9.00 L 6.23,9.45 L 6.30,9.45 L 9.86,7.67 Z" fill="#9d824c" stroke="none" /><path d="M 10.82,7.16 L 10.82,7.22 L 11.64,7.63 L 11.58,7.70 L 10.85,8.05 L 10.82,8.11 L 13.49,9.45 L 12.66,9.86 L 12.63,9.92 L 13.46,10.34 L 13.55,10.34 L 15.27,9.48 L 15.27,9.42 L 11.80,7.70 L 11.74,7.63 L 11.77,7.60 L 12.56,7.22 L 12.56,7.16 L 11.74,6.74 L 11.64,6.74 Z" fill="#9d824c" stroke="none" /><path d="M 8.97,6.27 L 6.30,4.93 L 6.20,4.93 L 3.59,6.23 L 3.56,6.30 L 4.36,6.68 L 4.39,6.74 L 3.56,7.16 L 3.56,7.19 L 4.42,7.63 L 4.49,7.63 L 5.31,7.22 L 5.34,7.16 L 4.55,6.78 L 4.52,6.71 L 6.27,5.82 L 8.02,6.71 L 8.14,6.71 L 8.97,6.30 Z" fill="#9d824c" stroke="none" /><path d="M 12.60,4.45 L 12.60,4.49 L 18.00,7.19 L 18.07,7.19 L 18.96,6.74 L 20.68,7.60 L 20.71,7.63 L 20.68,7.67 L 19.88,8.05 L 19.85,8.11 L 22.52,9.45 L 22.58,9.45 L 27.07,7.19 L 27.07,7.16 L 24.40,5.82 L 24.33,5.82 L 23.51,6.23 L 23.48,6.30 L 25.16,7.13 L 25.22,7.19 L 22.58,8.52 L 22.52,8.52 L 20.77,7.63 L 21.63,7.19 L 21.63,7.16 L 20.83,6.78 L 20.80,6.71 L 22.52,5.85 L 22.52,5.79 L 21.69,5.38 L 21.63,5.38 L 18.99,6.71 L 18.89,6.71 L 15.36,4.93 L 15.43,4.87 L 17.11,4.04 L 17.08,3.98 L 16.25,3.56 L 16.19,3.56 L 14.44,4.45 L 14.38,4.45 L 13.52,4.01 Z" fill="#9d824c" stroke="none" /><path d="M 18.07,3.53 L 18.07,3.59 L 18.89,4.01 L 18.99,4.01 L 19.82,3.59 L 19.82,3.53 L 18.99,3.12 L 18.89,3.12 Z" fill="#9d824c" stroke="none" /><path d="M 11.71,2.19 L 11.71,2.23 L 12.53,2.64 L 12.50,2.70 L 11.71,3.09 L 11.71,3.12 L 12.56,3.56 L 12.63,3.56 L 13.49,3.12 L 13.49,3.09 L 12.69,2.70 L 12.66,2.67 L 12.69,2.61 L 14.41,1.75 L 17.11,3.12 L 18.04,2.67 L 18.04,2.64 L 14.47,0.86 L 14.35,0.86 Z" fill="#9d824c" stroke="none" /><path d="M 12.60,10.78 L 12.60,10.82 L 13.39,11.20 L 13.46,11.26 L 12.63,11.67 L 12.63,11.74 L 13.46,12.15 L 13.55,12.15 L 15.30,11.26 L 15.30,11.23 L 13.52,10.34 Z" fill="#ad8d54" stroke="none" /><path d="M 18.00,8.08 L 16.22,8.97 L 16.25,9.03 L 17.08,9.45 L 16.25,9.86 L 16.22,9.92 L 18.04,10.82 L 18.93,10.37 L 18.93,10.34 L 17.15,9.45 L 18.93,8.56 L 18.93,8.52 Z" fill="#ad8d54" stroke="none" /><path d="M 9.89,8.52 L 8.97,8.08 L 6.30,9.42 L 6.30,9.48 L 9.00,10.82 L 9.89,10.37 L 9.89,10.34 L 8.11,9.45 L 9.89,8.56 Z" fill="#ad8d54" stroke="none" /><path d="M 20.74,6.71 L 20.74,6.74 L 21.53,7.13 L 21.60,7.19 L 20.77,7.60 L 20.77,7.67 L 21.60,8.08 L 21.69,8.08 L 23.44,7.19 L 23.44,7.16 L 21.66,6.27 Z" fill="#ad8d54" stroke="none" /><path d="M 4.45,6.71 L 4.45,6.74 L 5.25,7.13 L 5.31,7.19 L 4.49,7.60 L 4.49,7.67 L 5.31,8.08 L 5.41,8.08 L 7.16,7.19 L 7.16,7.16 L 5.38,6.27 Z" fill="#ad8d54" stroke="none" /><path d="M 11.71,6.71 L 11.74,6.78 L 12.56,7.19 L 11.74,7.60 L 11.71,7.67 L 13.49,8.56 L 16.19,7.22 L 16.19,7.16 L 13.52,5.82 Z" fill="#ad8d54" stroke="none" /><path d="M 7.19,5.34 L 7.19,5.41 L 8.91,6.27 L 9.03,6.27 L 10.75,5.41 L 10.75,5.34 L 9.03,4.49 L 8.91,4.49 Z" fill="#ad8d54" stroke="none" /><path d="M 15.33,4.93 L 17.97,6.27 L 18.10,6.27 L 18.93,5.85 L 18.93,5.82 L 17.21,4.96 L 17.18,4.93 L 17.24,4.87 L 18.89,4.04 L 18.99,4.04 L 20.74,4.93 L 21.66,4.49 L 21.66,4.45 L 19.88,3.56 L 19.82,3.56 L 18.96,4.01 L 18.07,3.56 L 18.00,3.56 L 15.33,4.90 Z" fill="#ad8d54" stroke="none" /><path d="M 12.60,2.64 L 12.60,2.67 L 13.39,3.05 L 13.46,3.12 L 12.63,3.53 L 12.63,3.59 L 13.46,4.01 L 13.55,4.01 L 15.30,3.12 L 15.30,3.09 L 13.52,2.19 Z" fill="#ad8d54" stroke="none" /><path d="M 11.77,13.01 L 11.77,13.07 L 13.49,13.93 L 13.61,13.93 L 14.38,13.55 L 14.38,13.49 L 12.66,12.63 L 12.53,12.63 Z" fill="#b6925e" stroke="none" /><path d="M 13.52,10.34 L 13.52,10.37 L 14.35,10.78 L 14.47,10.78 L 15.30,10.37 L 15.27,10.31 L 14.44,9.89 L 14.38,9.89 Z" fill="#b6925e" stroke="none" /><path d="M 20.77,9.42 L 20.77,9.48 L 21.60,9.89 L 21.69,9.89 L 22.52,9.48 L 22.52,9.42 L 21.69,9.00 L 21.60,9.00 Z" fill="#b6925e" stroke="none" /><path d="M 4.52,9.42 L 4.52,9.45 L 7.19,10.78 L 7.25,10.78 L 8.08,10.37 L 8.08,10.34 L 5.41,9.00 L 5.31,9.00 Z" fill="#b6925e" stroke="none" /><path d="M 18.89,7.63 L 18.04,8.08 L 18.04,8.11 L 18.83,8.49 L 18.86,8.56 L 17.15,9.42 L 17.15,9.48 L 18.83,10.31 L 18.86,10.34 L 18.83,10.40 L 18.04,10.78 L 18.04,10.82 L 18.89,11.26 L 18.96,11.26 L 19.82,10.82 L 19.82,10.78 L 19.02,10.40 L 18.99,10.34 L 20.71,9.48 L 20.71,9.42 L 19.02,8.59 L 18.99,8.56 L 19.02,8.49 L 19.82,8.11 L 19.82,8.08 L 18.96,7.63 Z" fill="#b6925e" stroke="none" /><path d="M 9.86,7.63 L 9.00,8.08 L 9.00,8.11 L 9.80,8.49 L 9.83,8.56 L 8.11,9.42 L 8.11,9.48 L 9.80,10.31 L 9.83,10.34 L 9.80,10.40 L 9.00,10.78 L 9.00,10.82 L 9.86,11.26 L 9.92,11.26 L 10.78,10.82 L 10.78,10.78 L 9.99,10.40 L 9.96,10.34 L 11.67,9.48 L 11.67,9.42 L 9.99,8.59 L 9.96,8.56 L 9.99,8.49 L 10.78,8.11 L 10.78,8.08 L 9.92,7.63 Z" fill="#b6925e" stroke="none" /><path d="M 0.03,7.16 L 0.06,7.22 L 2.67,8.52 L 3.53,8.11 L 3.50,8.05 L 0.89,6.74 Z" fill="#b6925e" stroke="none" /><path d="M 21.66,6.27 L 21.66,6.30 L 22.49,6.71 L 22.62,6.71 L 23.44,6.30 L 23.41,6.23 L 22.58,5.82 L 22.52,5.82 Z" fill="#b6925e" stroke="none" /><path d="M 5.38,6.27 L 5.38,6.30 L 6.20,6.71 L 6.33,6.71 L 7.16,6.30 L 7.13,6.23 L 6.30,5.82 L 6.23,5.82 Z" fill="#b6925e" stroke="none" /><path d="M 13.52,5.82 L 13.52,5.85 L 14.35,6.27 L 14.47,6.27 L 15.30,5.85 L 15.27,5.79 L 14.44,5.38 L 14.38,5.38 Z" fill="#b6925e" stroke="none" /><path d="M 18.93,4.01 L 17.15,4.90 L 17.15,4.93 L 18.86,5.79 L 18.89,5.82 L 18.83,5.88 L 18.04,6.27 L 18.04,6.30 L 18.96,6.74 L 19.85,6.30 L 19.85,6.27 L 19.05,5.88 L 18.99,5.82 L 20.71,4.96 L 20.74,4.90 Z" fill="#b6925e" stroke="none" /><path d="M 11.67,4.90 L 9.99,4.07 L 9.92,4.01 L 9.96,3.98 L 10.75,3.59 L 10.75,3.53 L 9.92,3.12 L 9.83,3.12 L 6.27,4.90 L 6.27,4.93 L 7.13,5.38 L 7.19,5.38 L 8.94,4.49 L 9.00,4.49 L 10.75,5.38 L 10.82,5.38 L 11.64,4.96 Z" fill="#b6925e" stroke="none" /><path d="M 13.52,2.19 L 13.52,2.23 L 14.35,2.64 L 14.47,2.64 L 15.30,2.23 L 15.27,2.16 L 14.44,1.75 L 14.38,1.75 Z" fill="#b6925e" stroke="none" /><path d="M 13.58,0.38 L 13.58,0.45 L 14.35,0.83 L 14.47,0.83 L 15.24,0.45 L 15.24,0.38 L 14.47,0.00 L 14.35,0.00 Z" fill="#b6925e" stroke="none" /><path d="M 18.89,12.12 L 18.07,11.71 L 18.00,11.71 L 13.55,13.93 L 13.55,13.96 L 14.38,14.38 L 14.44,14.38 L 18.89,12.15 Z" fill="#c09b61" stroke="none" /><path d="M 13.52,12.15 L 13.52,12.18 L 14.35,12.60 L 14.47,12.60 L 15.30,12.18 L 15.27,12.12 L 14.44,11.71 L 14.38,11.71 Z" fill="#c09b61" stroke="none" /><path d="M 7.25,10.75 L 7.25,10.82 L 11.71,13.04 L 11.77,13.04 L 12.60,12.63 L 12.60,12.60 L 8.14,10.37 L 8.02,10.37 Z" fill="#c09b61" stroke="none" /><path d="M 14.41,10.78 L 14.41,10.82 L 15.30,11.26 L 16.22,10.82 L 16.22,10.78 L 15.33,10.34 Z" fill="#c09b61" stroke="none" /><path d="M 9.89,10.34 L 9.89,10.37 L 10.78,10.82 L 11.71,10.37 L 11.71,10.34 L 10.82,9.89 Z" fill="#c09b61" stroke="none" /><path d="M 18.93,10.37 L 19.85,10.82 L 21.60,9.92 L 21.69,9.92 L 22.52,10.34 L 25.19,9.00 L 25.19,8.94 L 24.43,8.56 L 24.30,8.56 L 21.63,9.89 L 20.77,9.45 L 21.60,9.03 L 21.63,8.97 L 19.82,8.08 L 18.93,8.52 L 18.93,8.56 L 20.71,9.45 L 18.93,10.34 Z" fill="#c09b61" stroke="none" /><path d="M 9.89,8.52 L 9.89,8.56 L 11.67,9.45 L 11.74,9.45 L 12.60,9.00 L 12.60,8.97 L 10.82,8.08 Z" fill="#c09b61" stroke="none" /><path d="M 2.70,8.49 L 2.74,8.56 L 4.45,9.42 L 4.55,9.42 L 5.34,9.00 L 5.34,8.97 L 3.56,8.08 Z" fill="#c09b61" stroke="none" /><path d="M 21.66,8.08 L 21.66,8.11 L 22.49,8.52 L 22.62,8.52 L 23.44,8.11 L 23.41,8.05 L 22.58,7.63 L 22.52,7.63 Z" fill="#c09b61" stroke="none" /><path d="M 16.22,8.08 L 15.30,7.63 L 13.52,8.52 L 13.52,8.56 L 14.38,9.00 L 14.44,9.00 L 16.22,8.11 Z" fill="#c09b61" stroke="none" /><path d="M 5.38,8.08 L 5.38,8.11 L 6.20,8.52 L 6.33,8.52 L 7.16,8.11 L 7.13,8.05 L 6.30,7.63 L 6.23,7.63 Z" fill="#c09b61" stroke="none" /><path d="M 22.55,6.71 L 22.55,6.74 L 23.44,7.19 L 24.37,6.74 L 24.37,6.71 L 23.48,6.27 Z" fill="#c09b61" stroke="none" /><path d="M 6.27,6.71 L 6.27,6.74 L 7.16,7.19 L 8.08,6.74 L 8.08,6.71 L 7.19,6.27 Z" fill="#c09b61" stroke="none" /><path d="M 14.41,6.27 L 14.41,6.30 L 16.19,7.19 L 16.25,7.19 L 17.11,6.74 L 17.11,6.71 L 15.33,5.82 Z" fill="#c09b61" stroke="none" /><path d="M 18.96,5.82 L 18.96,5.85 L 19.79,6.27 L 19.91,6.27 L 20.74,5.85 L 20.71,5.79 L 19.88,5.38 L 19.82,5.38 Z" fill="#c09b61" stroke="none" /><path d="M 11.67,5.82 L 10.82,5.38 L 10.75,5.38 L 8.97,6.27 L 8.97,6.30 L 9.89,6.74 L 11.67,5.85 Z" fill="#c09b61" stroke="none" /><path d="M 13.52,4.01 L 13.52,4.04 L 14.35,4.45 L 14.47,4.45 L 15.30,4.04 L 15.27,3.98 L 14.44,3.56 L 14.38,3.56 Z" fill="#c09b61" stroke="none" /><path d="M 9.89,4.01 L 9.89,4.04 L 11.67,4.93 L 12.60,4.49 L 12.60,4.45 L 10.82,3.56 L 10.75,3.56 Z" fill="#c09b61" stroke="none" /><path d="M 18.96,3.09 L 18.99,3.15 L 22.55,4.93 L 23.41,4.52 L 23.38,4.45 L 19.82,2.67 Z" fill="#c09b61" stroke="none" /><path d="M 14.41,2.64 L 14.41,2.67 L 15.30,3.12 L 16.22,2.67 L 16.22,2.64 L 15.33,2.19 Z" fill="#c09b61" stroke="none" /><path d="M 17.08,1.30 L 15.30,0.41 L 15.24,0.41 L 14.44,0.83 L 14.38,0.83 L 13.58,0.41 L 13.52,0.41 L 0.92,6.71 L 0.89,6.78 L 1.75,7.19 L 14.38,0.86 L 14.44,0.86 L 16.19,1.75 L 16.25,1.75 L 17.08,1.34 Z" fill="#c09b61" stroke="none" /><path d="M 17.11,11.23 L 16.29,10.82 L 16.16,10.82 L 14.44,11.67 L 14.44,11.74 L 15.27,12.15 L 15.36,12.15 L 17.08,11.29 Z" fill="#cca870" stroke="none" /><path d="M 22.49,10.31 L 21.63,9.89 L 18.07,11.67 L 18.07,11.74 L 18.83,12.12 L 18.96,12.12 L 22.46,10.37 Z" fill="#cca870" stroke="none" /><path d="M 13.49,9.42 L 12.66,9.00 L 12.56,9.00 L 10.85,9.86 L 10.82,9.92 L 11.64,10.34 L 11.77,10.34 L 13.49,9.48 Z" fill="#cca870" stroke="none" /><path d="M 25.26,7.16 L 24.43,6.74 L 24.30,6.74 L 22.58,7.60 L 22.58,7.67 L 23.41,8.08 L 23.51,8.08 L 25.22,7.22 Z" fill="#cca870" stroke="none" /><path d="M 18.00,7.16 L 17.18,6.74 L 17.08,6.74 L 15.36,7.60 L 15.33,7.67 L 16.16,8.08 L 16.29,8.08 L 18.00,7.22 Z" fill="#cca870" stroke="none" /><path d="M 8.97,7.16 L 8.14,6.74 L 8.02,6.74 L 6.30,7.60 L 6.30,7.67 L 7.13,8.08 L 7.22,8.08 L 8.94,7.22 Z" fill="#cca870" stroke="none" /><path d="M 19.88,5.34 L 19.88,5.41 L 20.71,5.82 L 20.80,5.82 L 22.58,4.93 L 26.97,7.13 L 27.04,7.19 L 27.01,7.22 L 24.37,8.52 L 24.37,8.56 L 25.19,8.97 L 25.26,8.97 L 28.79,7.19 L 28.79,7.16 L 23.44,4.49 L 22.62,4.90 L 22.52,4.90 L 21.73,4.49 L 21.60,4.49 Z" fill="#cca870" stroke="none" /><path d="M 13.49,4.90 L 12.66,4.49 L 12.53,4.49 L 10.82,5.34 L 10.82,5.41 L 11.64,5.82 L 11.74,5.82 L 13.46,4.96 Z" fill="#cca870" stroke="none" /><path d="M 17.11,3.09 L 16.29,2.67 L 16.16,2.67 L 14.44,3.53 L 14.44,3.59 L 15.27,4.01 L 15.36,4.01 L 17.08,3.15 Z" fill="#cca870" stroke="none" /><path d="M 16.25,1.72 L 16.25,1.78 L 18.93,3.12 L 19.79,2.70 L 19.75,2.64 L 17.15,1.34 L 17.02,1.34 Z" fill="#cca870" stroke="none" /></svg>