<svg height="32" width="32" viewBox="0 0 32 32"><defs /><path d="M 18.88,28.69 L 18.81,28.69 L 17.10,29.56 L 17.10,30.63 L 17.17,30.63 L 18.88,29.76 Z" fill="#252723" stroke="none" /><path d="M 22.49,26.88 L 22.43,26.88 L 21.59,27.31 L 21.59,28.38 L 21.66,28.38 L 22.49,27.95 Z" fill="#252723" stroke="none" /><path d="M 15.30,26.04 L 14.39,26.48 L 14.39,27.58 L 14.46,27.58 L 15.30,27.15 Z" fill="#252723" stroke="none" /><path d="M 26.08,25.07 L 24.30,25.94 L 24.30,27.05 L 26.08,26.18 Z" fill="#252723" stroke="none" /><path d="M 18.88,24.27 L 18.81,24.27 L 17.97,24.70 L 17.97,25.81 L 18.88,25.37 Z" fill="#252723" stroke="none" /><path d="M 24.30,21.56 L 24.23,21.56 L 22.49,22.43 L 22.49,23.53 L 22.56,23.53 L 24.30,22.66 Z" fill="#252723" stroke="none" /><path d="M 28.79,19.31 L 28.72,19.31 L 26.98,20.18 L 26.98,21.29 L 27.05,21.29 L 28.79,20.42 Z" fill="#252723" stroke="none" /><path d="M 18.88,15.46 L 18.81,15.46 L 17.10,16.33 L 17.10,17.44 L 18.88,16.57 Z" fill="#252723" stroke="none" /><path d="M 22.49,13.66 L 22.43,13.66 L 21.59,14.09 L 21.59,15.20 L 22.49,14.76 Z" fill="#252723" stroke="none" /><path d="M 26.08,11.85 L 24.30,12.72 L 24.30,13.82 L 24.37,13.82 L 26.08,12.95 Z" fill="#252723" stroke="none" /><path d="M 17.10,29.56 L 16.23,29.99 L 16.20,29.96 L 16.20,28.92 L 16.13,28.92 L 15.33,29.32 L 15.30,29.36 L 15.30,30.43 L 15.23,30.49 L 14.39,30.90 L 14.39,32.00 L 17.10,30.66 Z" fill="#282b25" stroke="none" /><path d="M 21.59,27.31 L 19.85,28.18 L 19.78,28.15 L 19.78,27.11 L 18.88,27.55 L 18.88,29.76 L 21.59,28.42 Z" fill="#282b25" stroke="none" /><path d="M 23.40,25.31 L 22.49,25.74 L 22.49,27.95 L 24.30,27.05 L 24.30,25.97 L 24.23,25.97 L 23.43,26.38 L 23.40,26.34 Z" fill="#282b25" stroke="none" /><path d="M 17.97,24.70 L 15.33,26.01 L 15.30,26.04 L 15.30,27.15 L 17.04,26.28 L 17.10,26.31 L 17.10,27.35 L 17.94,26.95 L 17.97,26.91 Z" fill="#282b25" stroke="none" /><path d="M 28.79,23.73 L 28.72,23.73 L 27.01,24.60 L 26.98,24.57 L 26.98,23.53 L 26.91,23.53 L 26.11,23.93 L 26.08,23.97 L 26.08,26.14 L 26.14,26.14 L 28.75,24.84 L 28.79,24.80 Z" fill="#282b25" stroke="none" /><path d="M 22.49,22.46 L 22.43,22.46 L 18.88,24.23 L 18.88,25.34 L 18.95,25.34 L 20.65,24.47 L 20.69,24.50 L 20.69,25.54 L 20.75,25.54 L 21.56,25.14 L 21.59,25.10 L 21.59,24.03 L 21.66,23.97 L 22.49,23.56 Z" fill="#282b25" stroke="none" /><path d="M 28.79,20.42 L 28.72,20.42 L 27.88,20.85 L 27.88,21.96 L 28.79,21.52 Z" fill="#282b25" stroke="none" /><path d="M 26.98,20.22 L 26.91,20.22 L 24.30,21.52 L 24.30,23.73 L 24.37,23.73 L 25.17,23.33 L 25.17,22.23 L 25.21,22.19 L 26.98,21.32 Z" fill="#282b25" stroke="none" /><path d="M 17.10,16.33 L 15.36,17.21 L 15.30,17.17 L 15.30,16.13 L 14.39,16.57 L 14.39,18.78 L 14.46,18.78 L 17.07,17.47 L 17.10,17.44 Z" fill="#282b25" stroke="none" /><path d="M 28.79,14.90 L 27.88,15.33 L 27.88,16.44 L 26.98,16.90 L 26.98,19.11 L 27.85,18.68 L 27.88,18.71 L 27.88,19.75 L 28.79,19.31 Z" fill="#282b25" stroke="none" /><path d="M 17.10,13.02 L 16.20,13.46 L 16.20,14.56 L 16.27,14.56 L 17.10,14.13 Z" fill="#282b25" stroke="none" /><path d="M 24.30,12.75 L 24.23,12.75 L 22.53,13.62 L 22.49,13.59 L 22.49,12.55 L 22.43,12.55 L 21.59,12.99 L 21.59,14.06 L 21.52,14.13 L 18.91,15.43 L 18.88,15.40 L 18.88,14.36 L 18.81,14.36 L 18.01,14.76 L 17.97,14.79 L 17.97,15.90 L 18.85,15.46 L 18.88,15.50 L 18.88,16.54 L 18.95,16.54 L 21.56,15.23 L 21.59,15.20 L 21.59,14.13 L 21.66,14.06 L 22.46,13.66 L 22.49,13.69 L 22.49,14.73 L 22.56,14.73 L 24.30,13.86 Z" fill="#282b25" stroke="none" /><path d="M 20.69,11.25 L 20.62,11.25 L 19.78,11.68 L 19.78,12.79 L 20.69,12.35 Z" fill="#282b25" stroke="none" /><path d="M 28.79,10.51 L 28.72,10.51 L 26.14,11.82 L 26.08,11.78 L 26.08,10.74 L 26.04,10.74 L 25.17,11.18 L 25.17,12.28 L 25.24,12.28 L 26.04,11.88 L 26.08,11.92 L 26.08,12.95 L 26.11,12.95 L 28.79,11.62 Z" fill="#282b25" stroke="none" /><path d="M 24.30,9.44 L 24.23,9.44 L 23.40,9.87 L 23.40,10.98 L 24.30,10.54 Z" fill="#282b25" stroke="none" /><path d="M 27.88,7.63 L 26.98,8.07 L 26.98,9.17 L 27.05,9.17 L 27.88,8.74 Z" fill="#282b25" stroke="none" /><path d="M 16.20,27.82 L 16.13,27.82 L 15.30,28.25 L 15.30,29.36 L 16.20,28.92 Z" fill="#2b302b" stroke="none" /><path d="M 17.97,26.91 L 17.10,27.35 L 17.10,28.45 L 17.97,28.02 Z" fill="#2b302b" stroke="none" /><path d="M 19.78,26.01 L 18.88,26.44 L 18.88,27.55 L 18.95,27.55 L 19.78,27.11 Z" fill="#2b302b" stroke="none" /><path d="M 21.59,25.10 L 20.69,25.54 L 20.69,26.64 L 20.75,26.64 L 21.59,26.21 Z" fill="#2b302b" stroke="none" /><path d="M 23.40,24.20 L 22.49,24.64 L 22.49,25.74 L 22.56,25.74 L 23.40,25.31 Z" fill="#2b302b" stroke="none" /><path d="M 25.17,23.33 L 25.10,23.33 L 24.30,23.73 L 24.30,24.84 L 24.37,24.84 L 25.17,24.44 Z" fill="#2b302b" stroke="none" /><path d="M 17.97,22.53 L 17.91,22.53 L 16.20,23.40 L 16.20,24.47 L 16.13,24.54 L 15.30,24.94 L 15.30,26.04 L 17.10,25.14 L 17.10,24.07 L 17.97,23.63 Z" fill="#2b302b" stroke="none" /><path d="M 26.98,22.43 L 26.91,22.43 L 26.08,22.86 L 26.08,23.97 L 26.98,23.53 Z" fill="#2b302b" stroke="none" /><path d="M 28.79,21.52 L 28.72,21.52 L 27.88,21.96 L 27.88,23.06 L 28.79,22.63 Z" fill="#2b302b" stroke="none" /><path d="M 24.30,19.35 L 20.72,21.12 L 20.69,21.15 L 20.69,22.23 L 20.62,22.29 L 19.78,22.69 L 19.78,23.80 L 23.36,22.03 L 23.40,21.99 L 23.40,20.92 L 24.30,20.45 Z" fill="#2b302b" stroke="none" /><path d="M 27.88,18.68 L 27.82,18.68 L 26.08,19.55 L 26.08,20.65 L 27.88,19.75 Z" fill="#2b302b" stroke="none" /><path d="M 15.30,15.03 L 14.39,15.46 L 14.39,16.57 L 14.46,16.57 L 15.30,16.13 Z" fill="#2b302b" stroke="none" /><path d="M 17.10,14.13 L 16.20,14.56 L 16.20,15.67 L 16.27,15.67 L 17.10,15.23 Z" fill="#2b302b" stroke="none" /><path d="M 18.88,13.26 L 18.81,13.26 L 17.97,13.69 L 17.97,14.79 L 18.88,14.36 Z" fill="#2b302b" stroke="none" /><path d="M 28.79,12.69 L 27.88,13.12 L 27.88,14.23 L 26.98,14.69 L 26.98,16.90 L 27.88,16.47 L 27.88,15.36 L 28.79,14.90 Z" fill="#2b302b" stroke="none" /><path d="M 20.69,12.35 L 20.62,12.35 L 19.78,12.79 L 19.78,13.89 L 20.69,13.46 Z" fill="#2b302b" stroke="none" /><path d="M 22.49,11.45 L 22.43,11.45 L 21.59,11.88 L 21.59,12.99 L 22.49,12.55 Z" fill="#2b302b" stroke="none" /><path d="M 24.30,10.54 L 24.23,10.54 L 23.40,10.98 L 23.40,12.08 L 24.30,11.65 Z" fill="#2b302b" stroke="none" /><path d="M 26.08,9.64 L 25.17,10.08 L 25.17,11.18 L 25.24,11.18 L 26.08,10.74 Z" fill="#2b302b" stroke="none" /><path d="M 27.88,8.74 L 26.98,9.17 L 26.98,10.28 L 27.05,10.28 L 27.88,9.84 Z" fill="#2b302b" stroke="none" /><path d="M 20.69,21.15 L 17.97,22.49 L 17.97,23.60 L 17.10,24.03 L 17.10,25.14 L 19.78,23.80 L 19.78,22.73 L 20.69,22.26 Z" fill="#303432" stroke="none" /><path d="M 26.98,18.01 L 24.30,19.35 L 24.30,20.42 L 24.23,20.49 L 23.40,20.89 L 23.40,21.99 L 26.08,20.65 L 26.08,19.58 L 26.98,19.11 Z" fill="#303432" stroke="none" /><path d="M 28.79,11.62 L 28.72,11.62 L 27.88,12.05 L 27.88,13.12 L 26.98,13.59 L 26.98,14.69 L 27.88,14.26 L 27.88,13.15 L 28.79,12.69 Z" fill="#303432" stroke="none" /><path d="M 17.10,21.86 L 17.04,21.86 L 16.20,22.29 L 16.20,23.36 L 16.13,23.43 L 15.30,23.83 L 15.30,24.94 L 14.39,25.41 L 14.39,26.48 L 14.46,26.48 L 15.30,26.04 L 15.30,24.97 L 16.20,24.50 L 16.20,23.43 L 16.27,23.36 L 17.10,22.96 Z" fill="#393c39" stroke="none" /><path d="M 17.91,19.21 L 17.10,19.62 L 17.10,20.72 L 17.17,20.72 L 17.94,20.32 L 17.97,20.35 L 17.97,22.49 L 18.04,22.49 L 19.78,21.62 L 19.78,20.52 L 19.72,20.52 L 18.91,20.92 L 18.88,20.89 L 18.88,19.85 L 18.01,20.28 L 17.97,20.25 L 17.97,19.21 Z" fill="#393c39" stroke="none" /><path d="M 26.08,15.16 L 26.01,15.16 L 25.17,15.60 L 25.17,16.67 L 25.10,16.74 L 24.37,17.10 L 24.30,17.07 L 24.30,16.03 L 24.27,16.03 L 19.78,18.28 L 19.78,19.38 L 19.85,19.38 L 21.56,18.51 L 21.59,18.54 L 21.59,19.58 L 21.66,19.58 L 22.49,19.15 L 22.49,18.08 L 22.56,18.01 L 24.23,17.17 L 24.30,17.21 L 24.30,18.21 L 24.23,18.28 L 23.40,18.68 L 23.40,19.78 L 23.46,19.78 L 24.27,19.38 L 24.30,19.35 L 24.30,18.28 L 24.37,18.21 L 25.17,17.81 L 25.17,16.74 L 25.24,16.67 L 26.08,16.27 Z" fill="#393c39" stroke="none" /><path d="M 17.10,27.35 L 16.20,27.78 L 16.20,29.99 L 16.27,29.99 L 17.10,29.56 Z" fill="#34393a" stroke="none" /><path d="M 20.69,25.57 L 20.62,25.57 L 19.78,26.01 L 19.78,28.22 L 20.69,27.78 Z" fill="#34393a" stroke="none" /><path d="M 24.30,23.77 L 24.23,23.77 L 23.40,24.20 L 23.40,26.41 L 24.30,25.97 Z" fill="#34393a" stroke="none" /><path d="M 27.88,21.96 L 26.98,22.39 L 26.98,24.60 L 27.05,24.60 L 27.88,24.17 Z" fill="#34393a" stroke="none" /><path d="M 23.40,18.71 L 23.33,18.71 L 21.62,19.58 L 21.59,19.55 L 21.59,18.51 L 21.52,18.51 L 19.82,19.38 L 19.78,19.35 L 19.78,18.31 L 19.72,18.31 L 17.97,19.18 L 17.97,20.28 L 17.94,20.32 L 17.14,20.72 L 17.10,20.69 L 17.10,19.65 L 17.04,19.65 L 16.20,20.08 L 16.20,22.29 L 17.07,21.86 L 17.10,21.89 L 17.10,22.93 L 17.17,22.93 L 17.97,22.53 L 17.97,20.32 L 18.01,20.28 L 18.85,19.88 L 18.88,19.92 L 18.88,20.95 L 19.75,20.52 L 19.78,20.55 L 19.78,21.59 L 19.85,21.59 L 23.40,19.82 Z" fill="#34393a" stroke="none" /><path d="M 25.17,15.60 L 24.30,16.03 L 24.30,17.14 L 25.17,16.70 Z" fill="#34393a" stroke="none" /><path d="M 26.98,14.69 L 26.08,15.13 L 26.08,16.23 L 26.14,16.23 L 26.98,15.80 Z" fill="#34393a" stroke="none" /><path d="M 16.20,14.59 L 16.13,14.59 L 15.30,15.03 L 15.30,17.24 L 16.20,16.80 Z" fill="#34393a" stroke="none" /><path d="M 19.78,12.79 L 18.88,13.22 L 18.88,15.43 L 18.95,15.43 L 19.78,15.00 Z" fill="#34393a" stroke="none" /><path d="M 23.40,10.98 L 22.49,11.41 L 22.49,13.62 L 22.56,13.62 L 23.40,13.19 Z" fill="#34393a" stroke="none" /><path d="M 28.79,9.41 L 28.72,9.41 L 27.88,9.84 L 27.88,10.95 L 28.79,10.51 Z" fill="#34393a" stroke="none" /><path d="M 26.98,9.21 L 26.91,9.21 L 26.08,9.64 L 26.08,11.85 L 26.98,11.41 Z" fill="#34393a" stroke="none" /><path d="M 17.10,26.24 L 15.33,27.11 L 15.30,27.15 L 15.30,28.22 L 15.23,28.28 L 14.39,28.69 L 14.39,30.90 L 14.46,30.90 L 15.30,30.46 L 15.30,28.28 L 15.36,28.22 L 17.10,27.35 Z" fill="#3f3f3b" stroke="none" /><path d="M 20.69,24.47 L 20.62,24.47 L 18.88,25.34 L 18.88,26.44 L 17.97,26.91 L 17.97,27.98 L 17.91,28.05 L 17.10,28.45 L 17.10,29.56 L 18.88,28.69 L 18.88,26.48 L 20.69,25.57 Z" fill="#3f3f3b" stroke="none" /><path d="M 24.30,22.66 L 24.23,22.66 L 22.49,23.53 L 22.49,24.64 L 21.59,25.10 L 21.59,26.18 L 21.52,26.24 L 20.69,26.64 L 20.69,27.75 L 20.75,27.75 L 22.49,26.88 L 22.49,24.67 L 24.30,23.77 Z" fill="#3f3f3b" stroke="none" /><path d="M 28.79,22.63 L 28.72,22.63 L 27.88,23.06 L 27.88,24.17 L 28.79,23.73 Z" fill="#3f3f3b" stroke="none" /><path d="M 15.30,21.66 L 15.23,21.66 L 14.39,22.09 L 14.39,25.41 L 15.30,24.97 Z" fill="#3f3f3b" stroke="none" /><path d="M 27.88,20.85 L 26.08,21.76 L 26.08,22.83 L 26.01,22.90 L 25.17,23.30 L 25.17,24.40 L 24.30,24.84 L 24.30,25.94 L 24.37,25.94 L 26.08,25.07 L 26.08,22.90 L 26.14,22.83 L 27.88,21.96 Z" fill="#3f3f3b" stroke="none" /><path d="M 26.98,15.80 L 25.21,16.67 L 25.17,16.70 L 25.17,17.77 L 25.10,17.84 L 24.37,18.21 L 24.30,18.18 L 24.30,17.14 L 22.53,18.01 L 22.49,18.04 L 22.49,19.15 L 24.23,18.28 L 24.30,18.31 L 24.30,19.35 L 26.08,18.48 L 26.08,17.37 L 26.98,16.90 Z" fill="#3f3f3b" stroke="none" /><path d="M 22.49,14.76 L 22.43,14.76 L 21.59,15.20 L 21.59,16.27 L 20.69,16.74 L 20.69,17.84 L 21.59,17.41 L 21.59,16.30 L 22.49,15.83 Z" fill="#3f3f3b" stroke="none" /><path d="M 16.20,13.49 L 16.13,13.49 L 14.39,14.36 L 14.39,15.46 L 14.46,15.46 L 16.20,14.59 Z" fill="#3f3f3b" stroke="none" /><path d="M 26.08,12.95 L 24.30,13.82 L 24.30,14.90 L 24.23,14.96 L 23.40,15.36 L 23.40,16.47 L 23.46,16.47 L 25.17,15.60 L 25.17,14.53 L 25.24,14.46 L 26.08,14.06 Z" fill="#3f3f3b" stroke="none" /><path d="M 19.78,11.68 L 17.97,12.59 L 17.97,13.66 L 17.91,13.72 L 17.10,14.13 L 17.10,15.20 L 17.04,15.26 L 16.20,15.67 L 16.20,16.77 L 16.27,16.77 L 17.97,15.90 L 17.97,13.72 L 18.04,13.66 L 19.78,12.79 Z" fill="#3f3f3b" stroke="none" /><path d="M 23.40,9.87 L 21.59,10.78 L 21.59,11.85 L 21.52,11.92 L 20.69,12.32 L 20.69,13.42 L 19.78,13.89 L 19.78,15.00 L 21.59,14.09 L 21.59,11.92 L 21.66,11.85 L 23.40,10.98 Z" fill="#3f3f3b" stroke="none" /><path d="M 28.79,8.30 L 28.72,8.30 L 27.88,8.74 L 27.88,9.81 L 27.82,9.87 L 26.98,10.28 L 26.98,11.38 L 27.05,11.38 L 27.88,10.95 L 27.88,9.87 L 27.95,9.81 L 28.79,9.41 Z" fill="#3f3f3b" stroke="none" /><path d="M 26.98,8.10 L 26.91,8.10 L 25.17,8.97 L 25.17,10.08 L 24.30,10.51 L 24.30,11.62 L 23.40,12.08 L 23.40,13.19 L 25.17,12.32 L 25.17,10.11 L 26.98,9.21 Z" fill="#3f3f3b" stroke="none" /><path d="M 15.30,27.15 L 14.39,27.58 L 14.39,28.69 L 14.46,28.69 L 15.30,28.25 Z" fill="#464541" stroke="none" /><path d="M 18.88,25.37 L 18.81,25.37 L 17.97,25.81 L 17.97,26.91 L 18.88,26.48 Z" fill="#464541" stroke="none" /><path d="M 22.49,23.56 L 22.43,23.56 L 21.59,24.00 L 21.59,25.10 L 22.49,24.67 Z" fill="#464541" stroke="none" /><path d="M 26.08,21.76 L 25.17,22.19 L 25.17,23.30 L 25.24,23.30 L 26.08,22.86 Z" fill="#464541" stroke="none" /><path d="M 26.98,16.90 L 26.08,17.34 L 26.08,18.44 L 26.14,18.44 L 26.98,18.01 Z" fill="#464541" stroke="none" /><path d="M 24.30,13.86 L 24.23,13.86 L 22.49,14.73 L 22.49,15.80 L 22.43,15.87 L 21.62,16.27 L 21.59,16.23 L 21.59,15.20 L 21.56,15.20 L 15.30,18.34 L 15.30,19.41 L 14.39,19.88 L 14.39,22.09 L 15.26,21.66 L 15.30,21.69 L 15.30,23.83 L 15.36,23.83 L 16.20,23.40 L 16.20,21.19 L 15.33,21.62 L 15.30,21.59 L 15.30,19.45 L 17.07,18.54 L 17.10,18.58 L 17.10,19.62 L 17.17,19.62 L 20.65,17.87 L 20.69,17.84 L 20.69,16.77 L 20.75,16.70 L 21.56,16.30 L 21.59,16.33 L 21.59,17.37 L 21.66,17.37 L 23.40,16.50 L 23.40,15.40 L 24.30,14.93 Z" fill="#464541" stroke="none" /><path d="M 17.97,12.59 L 17.10,13.02 L 17.10,14.13 L 17.97,13.69 Z" fill="#464541" stroke="none" /><path d="M 27.88,12.05 L 26.08,12.95 L 26.08,14.03 L 25.17,14.49 L 25.17,15.60 L 26.98,14.69 L 26.98,13.62 L 27.05,13.56 L 27.88,13.15 Z" fill="#464541" stroke="none" /><path d="M 21.59,10.78 L 20.69,11.21 L 20.69,12.32 L 20.75,12.32 L 21.59,11.88 Z" fill="#464541" stroke="none" /><path d="M 25.17,9.00 L 25.10,9.00 L 24.30,9.41 L 24.30,10.51 L 24.37,10.51 L 25.17,10.11 Z" fill="#464541" stroke="none" /><path d="M 28.79,7.20 L 28.72,7.20 L 27.88,7.63 L 27.88,8.74 L 28.79,8.30 Z" fill="#464541" stroke="none" /><path d="M 9.91,28.69 L 9.91,29.76 L 11.62,30.63 L 11.68,30.63 L 11.68,29.56 L 9.97,28.69 Z" fill="#444941" stroke="none" /><path d="M 7.20,27.31 L 7.20,28.42 L 8.10,28.85 L 8.10,27.75 Z" fill="#444941" stroke="none" /><path d="M 12.59,25.61 L 12.59,26.71 L 14.33,27.58 L 14.39,27.58 L 14.39,26.48 L 12.65,25.61 Z" fill="#444941" stroke="none" /><path d="M 2.71,25.07 L 2.71,26.18 L 4.49,27.05 L 4.49,25.94 Z" fill="#444941" stroke="none" /><path d="M 8.10,23.36 L 8.10,24.47 L 9.84,25.34 L 9.91,25.34 L 9.91,24.23 L 8.17,23.36 Z" fill="#444941" stroke="none" /><path d="M 3.62,21.12 L 3.62,22.23 L 4.42,22.63 L 4.49,22.63 L 4.49,21.52 L 3.68,21.12 Z" fill="#444941" stroke="none" /><path d="M 0.00,19.31 L 0.00,20.42 L 0.90,20.85 L 0.90,19.75 L 0.07,19.31 Z" fill="#444941" stroke="none" /><path d="M 9.91,15.46 L 9.91,16.57 L 11.68,17.44 L 11.68,16.33 L 9.97,15.46 Z" fill="#444941" stroke="none" /><path d="M 7.20,14.09 L 7.20,15.20 L 8.03,15.63 L 8.10,15.63 L 8.10,14.53 Z" fill="#444941" stroke="none" /><path d="M 2.71,11.85 L 2.71,12.95 L 4.42,13.82 L 4.49,13.82 L 4.49,12.72 Z" fill="#444941" stroke="none" /><path d="M 17.10,18.54 L 17.04,18.54 L 15.33,19.41 L 15.30,19.38 L 15.30,18.34 L 14.39,18.78 L 14.39,19.88 L 15.26,19.45 L 15.30,19.48 L 15.30,21.62 L 15.36,21.62 L 16.20,21.19 L 16.20,20.12 L 16.27,20.05 L 17.10,19.65 Z" fill="#4d4b44" stroke="none" /><path d="M 11.68,28.45 L 11.68,30.66 L 14.39,32.00 L 14.39,30.90 L 12.62,30.03 L 12.59,29.99 L 12.59,28.89 Z" fill="#4a5044" stroke="none" /><path d="M 13.49,27.15 L 13.49,28.25 L 14.33,28.69 L 14.39,28.69 L 14.39,27.58 Z" fill="#4a5044" stroke="none" /><path d="M 8.10,26.68 L 8.10,28.85 L 9.91,29.76 L 9.91,28.65 L 9.07,28.25 L 9.00,28.18 L 9.00,27.11 L 8.17,26.68 Z" fill="#4a5044" stroke="none" /><path d="M 4.49,24.87 L 4.49,27.05 L 7.13,28.38 L 7.20,28.38 L 7.20,27.31 L 5.46,26.44 L 5.39,26.38 L 5.39,25.31 L 4.55,24.87 Z" fill="#4a5044" stroke="none" /><path d="M 9.91,24.27 L 9.91,26.48 L 10.81,26.91 L 10.81,25.87 L 10.88,25.84 L 12.52,26.68 L 12.59,26.68 L 12.59,25.57 L 9.97,24.27 Z" fill="#4a5044" stroke="none" /><path d="M 0.00,23.73 L 0.00,24.80 L 0.03,24.84 L 2.64,26.14 L 2.71,26.14 L 2.71,25.07 L 1.81,24.60 L 1.81,23.50 L 0.90,23.06 L 0.90,24.10 L 0.87,24.13 L 0.07,23.73 Z" fill="#4a5044" stroke="none" /><path d="M 13.49,21.66 L 13.49,22.69 L 13.46,22.73 L 12.59,22.29 L 12.59,24.50 L 13.49,24.97 L 13.49,26.04 L 14.33,26.48 L 14.39,26.48 L 14.39,22.09 L 13.56,21.66 Z" fill="#4a5044" stroke="none" /><path d="M 4.49,21.56 L 4.49,22.66 L 6.29,23.56 L 6.29,24.67 L 7.20,25.10 L 7.20,24.07 L 7.23,24.03 L 8.03,24.44 L 8.10,24.44 L 8.10,23.33 L 4.55,21.56 Z" fill="#4a5044" stroke="none" /><path d="M 0.90,19.75 L 0.90,20.85 L 2.64,21.72 L 2.71,21.79 L 2.71,22.86 L 3.55,23.30 L 3.62,23.30 L 3.62,21.09 Z" fill="#4a5044" stroke="none" /><path d="M 10.81,14.79 L 10.81,15.90 L 11.62,16.30 L 11.68,16.37 L 11.68,17.44 L 14.33,18.78 L 14.39,18.78 L 14.39,17.67 L 11.75,16.37 L 11.68,16.30 L 11.68,15.23 Z" fill="#4a5044" stroke="none" /><path d="M 12.59,13.49 L 12.59,14.59 L 13.49,15.03 L 13.49,13.92 L 12.65,13.49 Z" fill="#4a5044" stroke="none" /><path d="M 9.00,11.68 L 9.00,12.79 L 9.84,13.22 L 9.91,13.22 L 9.91,12.12 Z" fill="#4a5044" stroke="none" /><path d="M 3.62,11.21 L 3.62,12.32 L 4.49,12.75 L 4.49,13.86 L 7.16,15.20 L 7.20,15.20 L 7.20,14.16 L 7.26,14.13 L 8.10,14.56 L 8.10,15.67 L 9.84,16.54 L 9.91,16.54 L 9.91,15.43 L 8.10,14.53 L 8.10,13.42 L 7.20,12.99 L 7.20,14.03 L 7.13,14.06 L 4.52,12.75 L 4.49,12.72 L 4.49,11.62 L 3.68,11.21 Z" fill="#4a5044" stroke="none" /><path d="M 5.39,9.87 L 5.39,10.98 L 6.23,11.41 L 6.29,11.41 L 6.29,10.31 Z" fill="#4a5044" stroke="none" /><path d="M 0.00,9.41 L 0.00,11.62 L 2.71,12.95 L 2.71,11.85 L 0.97,10.98 L 0.90,10.91 L 0.90,9.84 L 0.07,9.41 Z" fill="#4a5044" stroke="none" /><path d="M 1.81,8.10 L 1.81,9.21 L 2.71,9.64 L 2.71,8.54 L 1.87,8.10 Z" fill="#4a5044" stroke="none" /><path d="M 25.17,7.16 L 24.30,6.73 L 23.43,7.16 L 23.33,7.16 L 22.59,6.79 L 22.53,6.73 L 23.33,6.33 L 23.36,6.26 L 22.56,5.86 L 22.43,5.86 L 21.62,6.26 L 21.62,6.33 L 22.39,6.69 L 22.43,6.73 L 22.36,6.79 L 16.23,9.84 L 16.20,9.91 L 16.97,10.28 L 17.04,10.34 L 16.23,10.74 L 16.20,10.81 L 17.10,11.25 L 17.97,10.81 L 17.94,10.74 L 17.17,10.38 L 17.14,10.34 L 17.21,10.28 L 17.94,9.91 L 18.04,9.91 L 18.91,10.34 L 25.14,7.23 Z" fill="#4a5044" stroke="none" /><path d="M 19.82,6.26 L 19.85,6.33 L 20.65,6.73 L 20.75,6.73 L 21.56,6.33 L 21.56,6.26 L 20.75,5.86 L 20.62,5.86 Z" fill="#4a5044" stroke="none" /><path d="M 13.49,28.25 L 13.49,29.36 L 14.33,29.79 L 14.39,29.79 L 14.39,28.69 Z" fill="#515950" stroke="none" /><path d="M 11.68,27.35 L 11.68,28.45 L 12.52,28.89 L 12.59,28.89 L 12.59,27.78 Z" fill="#515950" stroke="none" /><path d="M 9.91,26.48 L 9.91,27.58 L 10.81,28.02 L 10.81,26.91 L 9.97,26.48 Z" fill="#515950" stroke="none" /><path d="M 8.10,25.57 L 8.10,26.68 L 9.00,27.11 L 9.00,26.01 L 8.17,25.57 Z" fill="#515950" stroke="none" /><path d="M 6.29,24.67 L 6.29,25.77 L 7.20,26.21 L 7.20,25.10 L 6.36,24.67 Z" fill="#515950" stroke="none" /><path d="M 11.68,24.07 L 11.68,25.14 L 13.49,26.04 L 13.49,24.94 L 11.75,24.07 Z" fill="#515950" stroke="none" /><path d="M 4.49,23.77 L 4.49,24.87 L 5.39,25.31 L 5.39,24.20 L 4.55,23.77 Z" fill="#515950" stroke="none" /><path d="M 2.71,22.86 L 2.71,23.97 L 3.55,24.40 L 3.62,24.40 L 3.62,23.30 Z" fill="#515950" stroke="none" /><path d="M 0.90,21.96 L 0.90,23.06 L 1.74,23.50 L 1.81,23.50 L 1.81,22.39 Z" fill="#515950" stroke="none" /><path d="M 5.39,20.92 L 5.39,21.99 L 5.42,22.03 L 8.97,23.80 L 9.00,23.80 L 9.00,22.76 L 9.04,22.73 L 9.91,23.16 L 9.91,22.06 L 9.87,22.03 L 6.33,20.25 L 6.29,20.25 L 6.29,21.29 L 6.26,21.32 L 5.46,20.92 Z" fill="#515950" stroke="none" /><path d="M 13.56,19.45 L 13.49,19.45 L 13.49,20.49 L 13.46,20.52 L 12.59,20.08 L 12.59,22.29 L 13.42,22.73 L 13.49,22.73 L 13.49,21.69 L 13.52,21.66 L 14.39,22.09 L 14.39,19.88 Z" fill="#515950" stroke="none" /><path d="M 1.81,18.01 L 1.81,19.05 L 1.77,19.08 L 0.97,18.68 L 0.90,18.68 L 0.90,19.75 L 2.71,20.65 L 2.71,19.62 L 2.74,19.58 L 3.62,20.02 L 3.62,18.91 Z" fill="#515950" stroke="none" /><path d="M 12.59,14.59 L 12.59,15.70 L 13.49,16.13 L 13.49,15.03 L 12.65,14.59 Z" fill="#515950" stroke="none" /><path d="M 10.81,13.69 L 10.81,14.79 L 11.68,15.23 L 11.68,14.13 Z" fill="#515950" stroke="none" /><path d="M 9.00,12.79 L 9.00,13.89 L 9.84,14.33 L 9.91,14.33 L 9.91,13.22 Z" fill="#515950" stroke="none" /><path d="M 7.20,11.88 L 7.20,12.99 L 8.03,13.42 L 8.10,13.42 L 8.10,12.32 Z" fill="#515950" stroke="none" /><path d="M 5.39,10.98 L 5.39,12.08 L 6.23,12.52 L 6.29,12.52 L 6.29,11.41 Z" fill="#515950" stroke="none" /><path d="M 3.62,10.11 L 3.62,11.21 L 4.42,11.62 L 4.49,11.62 L 4.49,10.51 L 3.68,10.11 Z" fill="#515950" stroke="none" /><path d="M 14.43,11.72 L 15.23,12.12 L 15.36,12.12 L 17.07,11.25 L 17.07,11.21 L 16.30,10.85 L 16.23,10.78 L 16.27,10.74 L 17.10,10.34 L 17.94,10.78 L 18.04,10.78 L 18.85,10.38 L 18.88,10.31 L 18.01,9.87 L 17.14,10.31 L 17.04,10.31 L 16.17,9.87 L 14.43,10.74 L 14.43,10.81 L 15.23,11.21 L 15.20,11.28 L 14.43,11.65 Z" fill="#515950" stroke="none" /><path d="M 1.81,9.21 L 1.81,10.31 L 2.71,10.74 L 2.71,9.64 L 1.87,9.21 Z" fill="#515950" stroke="none" /><path d="M 0.00,8.30 L 0.00,9.41 L 0.90,9.84 L 0.90,8.74 L 0.07,8.30 Z" fill="#515950" stroke="none" /><path d="M 15.30,3.11 L 15.33,3.18 L 16.13,3.58 L 16.07,3.65 L 15.30,4.02 L 15.33,4.08 L 16.13,4.49 L 16.23,4.49 L 17.10,4.05 L 17.94,4.49 L 17.87,4.55 L 17.10,4.92 L 17.10,4.95 L 19.78,6.29 L 20.65,5.86 L 20.72,5.86 L 21.56,6.29 L 20.72,6.73 L 20.72,6.76 L 21.52,7.16 L 21.66,7.16 L 22.43,6.76 L 22.53,6.76 L 23.40,7.20 L 24.27,6.76 L 24.23,6.69 L 23.43,6.29 L 23.33,6.29 L 22.49,6.73 L 21.66,6.33 L 21.62,6.29 L 21.66,6.26 L 22.49,5.86 L 22.49,5.82 L 16.20,2.68 Z" fill="#515950" stroke="none" /><path d="M 9.00,22.73 L 9.00,23.80 L 9.04,23.83 L 11.65,25.14 L 11.68,25.14 L 11.68,24.10 L 11.72,24.07 L 12.59,24.50 L 12.59,23.40 L 12.55,23.36 L 9.94,22.06 L 9.91,22.06 L 9.91,23.10 L 9.87,23.13 L 9.07,22.73 Z" fill="#5a615d" stroke="none" /><path d="M 2.71,19.58 L 2.71,20.65 L 2.74,20.69 L 5.36,21.99 L 5.39,21.99 L 5.39,20.95 L 5.42,20.92 L 6.29,21.36 L 6.29,20.25 L 6.26,20.22 L 3.65,18.91 L 3.62,18.91 L 3.62,19.95 L 3.58,19.98 L 2.78,19.58 Z" fill="#5a615d" stroke="none" /><path d="M 13.52,18.34 L 13.49,18.34 L 13.49,19.38 L 13.46,19.41 L 12.59,18.98 L 12.59,20.08 L 13.42,20.52 L 13.49,20.52 L 13.49,19.48 L 13.52,19.45 L 14.39,19.88 L 14.39,18.78 Z" fill="#5a615d" stroke="none" /><path d="M 16.20,4.49 L 16.20,4.52 L 16.60,4.72 L 16.67,4.72 L 17.04,4.92 L 17.17,4.92 L 17.97,4.52 L 17.94,4.45 L 17.14,4.05 L 17.04,4.05 Z" fill="#5a615d" stroke="none" /><path d="M 14.39,3.58 L 14.39,3.62 L 15.26,4.05 L 16.17,3.62 L 16.13,3.55 L 15.33,3.15 L 15.23,3.15 Z" fill="#5a615d" stroke="none" /><path d="M 15.33,2.21 L 15.33,2.28 L 25.07,7.13 L 25.14,7.20 L 15.30,12.12 L 15.30,12.15 L 16.17,12.59 L 16.23,12.59 L 26.08,7.67 L 26.04,7.60 L 25.24,7.20 L 25.31,7.13 L 26.08,6.76 L 26.04,6.69 L 16.27,1.81 L 16.13,1.81 Z" fill="#5a615d" stroke="none" /><path d="M 2.71,17.34 L 1.81,16.90 L 1.81,17.94 L 1.74,17.97 L 0.97,17.57 L 0.90,17.57 L 0.90,18.61 L 0.87,18.64 L 0.00,18.21 L 0.00,19.31 L 0.90,19.75 L 0.90,18.71 L 0.94,18.68 L 1.81,19.11 L 1.81,18.08 L 1.84,18.04 L 2.64,18.44 L 2.71,18.44 Z" fill="#6b706a" stroke="none" /><path d="M 5.39,16.50 L 5.39,17.61 L 7.20,18.51 L 7.20,19.62 L 8.10,20.05 L 8.10,19.01 L 8.17,18.98 L 9.84,19.82 L 9.91,19.88 L 9.91,20.89 L 9.87,20.92 L 9.07,20.52 L 9.00,20.52 L 9.00,21.62 L 9.91,22.06 L 9.91,21.02 L 9.94,20.99 L 10.74,21.39 L 10.81,21.39 L 10.81,20.35 L 10.85,20.32 L 11.62,20.72 L 11.68,20.72 L 11.68,19.62 L 10.88,19.21 L 10.81,19.21 L 10.81,20.25 L 10.78,20.28 L 9.97,19.88 L 9.91,19.82 L 9.91,18.74 L 9.87,18.71 L 5.46,16.50 Z" fill="#6b706a" stroke="none" /><path d="M 2.71,15.16 L 2.71,16.27 L 3.55,16.67 L 3.62,16.74 L 3.62,18.91 L 5.32,19.78 L 5.39,19.78 L 5.39,18.68 L 4.55,18.28 L 4.49,18.21 L 4.49,17.14 L 3.68,16.74 L 3.62,16.67 L 3.62,15.60 L 2.78,15.16 Z" fill="#6b706a" stroke="none" /><path d="M 15.30,12.12 L 14.43,11.68 L 14.36,11.68 L 12.62,12.55 L 12.62,12.62 L 13.42,13.02 L 13.56,13.02 L 15.30,12.15 Z" fill="#6b706a" stroke="none" /><path d="M 9.87,5.82 L 9.00,6.26 L 9.04,6.33 L 9.84,6.73 L 9.77,6.79 L 9.00,7.16 L 9.04,7.23 L 9.84,7.63 L 9.77,7.70 L 9.00,8.07 L 9.00,8.10 L 9.87,8.54 L 9.94,8.54 L 10.78,8.10 L 10.78,8.07 L 10.01,7.70 L 9.94,7.63 L 10.78,7.20 L 10.78,7.16 L 10.01,6.79 L 9.94,6.73 L 10.74,6.33 L 10.78,6.26 Z" fill="#6b706a" stroke="none" /><path d="M 17.94,5.39 L 17.10,5.82 L 17.10,5.86 L 17.87,6.23 L 17.94,6.29 L 17.10,6.73 L 17.10,6.76 L 17.87,7.13 L 17.94,7.20 L 17.14,7.60 L 17.10,7.67 L 17.87,8.03 L 17.94,8.10 L 17.14,8.50 L 17.14,8.57 L 17.94,8.97 L 18.04,8.97 L 18.85,8.57 L 18.85,8.50 L 18.04,8.10 L 18.11,8.03 L 18.88,7.67 L 18.85,7.60 L 18.08,7.23 L 18.04,7.20 L 18.11,7.13 L 18.85,6.76 L 18.95,6.76 L 19.82,7.20 L 20.69,6.76 L 20.69,6.73 L 19.85,6.29 L 19.75,6.29 L 18.88,6.73 L 18.04,6.29 L 18.11,6.23 L 18.88,5.86 L 18.88,5.82 L 18.04,5.39 Z" fill="#6b706a" stroke="none" /><path d="M 2.71,6.73 L 2.71,6.76 L 3.48,7.13 L 3.55,7.20 L 2.74,7.60 L 2.71,7.67 L 6.26,9.44 L 6.33,9.44 L 7.20,9.00 L 7.20,8.97 L 3.65,7.20 L 3.72,7.13 L 7.16,5.42 L 7.16,5.36 L 6.36,4.95 L 6.23,4.95 Z" fill="#6b706a" stroke="none" /><path d="M 7.23,4.45 L 7.23,4.52 L 8.03,4.92 L 8.17,4.92 L 8.97,4.52 L 8.97,4.45 L 8.17,4.05 L 8.03,4.05 Z" fill="#6b706a" stroke="none" /><path d="M 14.33,0.90 L 13.52,1.31 L 13.52,1.37 L 14.33,1.77 L 14.29,1.84 L 13.52,2.21 L 13.52,2.28 L 14.33,2.68 L 14.29,2.74 L 13.52,3.11 L 13.52,3.18 L 14.33,3.58 L 14.26,3.65 L 11.68,4.92 L 11.68,4.95 L 12.55,5.39 L 11.72,5.82 L 11.72,5.86 L 12.49,6.23 L 12.55,6.29 L 11.72,6.73 L 11.72,6.76 L 12.49,7.13 L 12.55,7.20 L 11.72,7.63 L 11.72,7.67 L 12.52,8.07 L 12.49,8.13 L 11.72,8.50 L 11.72,8.57 L 12.52,8.97 L 12.49,9.04 L 11.72,9.41 L 11.72,9.44 L 14.36,10.78 L 14.43,10.78 L 16.17,9.91 L 16.13,9.84 L 14.46,9.00 L 14.49,8.94 L 15.26,8.57 L 15.26,8.50 L 14.46,8.10 L 14.49,8.03 L 15.26,7.67 L 15.26,7.60 L 14.46,7.20 L 14.49,7.13 L 15.26,6.76 L 15.26,6.73 L 14.43,6.29 L 15.30,5.86 L 15.30,5.82 L 14.43,5.39 L 15.30,4.95 L 15.30,4.92 L 14.43,4.49 L 15.26,4.05 L 15.26,4.02 L 14.49,3.65 L 14.43,3.58 L 16.17,2.71 L 16.17,2.68 L 14.49,1.84 L 14.46,1.81 L 14.49,1.74 L 15.26,1.37 L 15.26,1.31 L 14.46,0.90 Z" fill="#6b706a" stroke="none" /><path d="M 12.59,27.82 L 12.59,30.03 L 13.49,30.46 L 13.49,28.25 L 12.65,27.82 Z" fill="#626b6c" stroke="none" /><path d="M 9.00,26.01 L 9.00,28.22 L 9.84,28.65 L 9.91,28.65 L 9.91,26.44 Z" fill="#626b6c" stroke="none" /><path d="M 5.39,24.20 L 5.39,26.41 L 6.23,26.85 L 6.29,26.85 L 6.29,24.64 Z" fill="#626b6c" stroke="none" /><path d="M 1.81,22.43 L 1.81,24.64 L 2.71,25.07 L 2.71,22.86 L 1.87,22.43 Z" fill="#626b6c" stroke="none" /><path d="M 11.68,19.65 L 11.68,20.75 L 12.59,21.19 L 12.59,20.08 L 11.75,19.65 Z" fill="#626b6c" stroke="none" /><path d="M 9.91,18.74 L 9.91,19.85 L 10.74,20.28 L 10.81,20.28 L 10.81,19.18 Z" fill="#626b6c" stroke="none" /><path d="M 13.49,16.13 L 13.49,17.24 L 14.33,17.67 L 14.39,17.67 L 14.39,16.57 Z" fill="#626b6c" stroke="none" /><path d="M 1.81,14.69 L 1.81,16.90 L 2.71,17.37 L 2.71,18.48 L 3.62,18.91 L 3.62,16.77 L 3.68,16.74 L 4.42,17.10 L 4.49,17.17 L 4.49,18.24 L 5.39,18.71 L 5.39,19.82 L 8.94,21.59 L 9.00,21.59 L 9.00,20.49 L 7.20,19.58 L 7.20,18.48 L 5.39,17.57 L 5.39,16.47 L 3.62,15.60 L 3.62,16.64 L 3.55,16.67 L 2.71,16.23 L 2.71,15.13 Z" fill="#626b6c" stroke="none" /><path d="M 11.68,14.13 L 11.68,16.33 L 12.52,16.77 L 12.59,16.77 L 12.59,14.56 Z" fill="#626b6c" stroke="none" /><path d="M 8.10,12.35 L 8.10,14.56 L 9.00,15.00 L 9.00,12.79 L 8.17,12.35 Z" fill="#626b6c" stroke="none" /><path d="M 14.43,12.55 L 14.43,12.62 L 15.23,13.02 L 15.36,13.02 L 16.17,12.62 L 16.17,12.55 L 15.36,12.15 L 15.23,12.15 Z" fill="#626b6c" stroke="none" /><path d="M 4.49,10.54 L 4.49,12.75 L 5.39,13.19 L 5.39,10.98 L 4.55,10.54 Z" fill="#626b6c" stroke="none" /><path d="M 6.33,9.41 L 6.33,9.47 L 12.55,12.59 L 12.62,12.59 L 13.49,12.15 L 13.49,12.12 L 7.26,9.00 L 7.13,9.00 Z" fill="#626b6c" stroke="none" /><path d="M 0.90,8.74 L 0.90,10.95 L 1.74,11.38 L 1.81,11.38 L 1.81,9.17 Z" fill="#626b6c" stroke="none" /><path d="M 25.21,7.16 L 25.24,7.23 L 26.04,7.63 L 26.14,7.63 L 26.98,7.20 L 26.98,7.16 L 26.11,6.73 Z" fill="#626b6c" stroke="none" /><path d="M 18.88,5.82 L 18.01,6.26 L 18.04,6.33 L 18.85,6.73 L 18.78,6.79 L 18.01,7.16 L 18.01,7.20 L 18.85,7.63 L 18.95,7.63 L 19.78,7.20 L 19.78,7.16 L 19.01,6.79 L 18.95,6.73 L 19.75,6.33 L 19.78,6.26 Z" fill="#626b6c" stroke="none" /><path d="M 11.62,4.95 L 9.91,5.82 L 9.91,5.86 L 10.68,6.23 L 10.74,6.29 L 9.91,6.73 L 9.91,6.76 L 10.68,7.13 L 10.74,7.20 L 9.94,7.60 L 9.91,7.67 L 10.68,8.03 L 10.74,8.10 L 9.94,8.50 L 9.94,8.57 L 11.72,9.44 L 12.59,9.00 L 12.59,8.97 L 11.72,8.54 L 12.59,8.10 L 12.59,8.07 L 11.82,7.70 L 11.75,7.63 L 12.59,7.20 L 12.59,7.16 L 11.82,6.79 L 11.75,6.73 L 12.55,6.33 L 12.59,6.26 L 11.82,5.89 L 11.75,5.82 L 12.55,5.42 L 12.55,5.36 L 11.75,4.95 Z" fill="#626b6c" stroke="none" /><path d="M 6.29,4.92 L 6.29,4.95 L 7.16,5.39 L 7.23,5.39 L 8.10,4.95 L 8.10,4.92 L 7.23,4.49 L 7.16,4.49 Z" fill="#626b6c" stroke="none" /><path d="M 16.20,1.77 L 15.33,1.34 L 15.26,1.34 L 14.43,1.77 L 14.36,1.77 L 13.52,1.34 L 13.46,1.34 L 8.10,4.02 L 8.10,4.05 L 8.97,4.49 L 9.04,4.49 L 14.36,1.81 L 14.43,1.81 L 15.26,2.24 L 15.33,2.24 L 16.20,1.81 Z" fill="#626b6c" stroke="none" /><path d="M 13.49,29.36 L 13.49,30.46 L 14.33,30.90 L 14.39,30.90 L 14.39,29.79 Z" fill="#75766e" stroke="none" /><path d="M 11.72,26.24 L 11.68,26.24 L 11.68,27.28 L 11.65,27.31 L 10.81,26.91 L 10.81,27.95 L 10.78,27.98 L 9.97,27.58 L 9.91,27.58 L 9.91,28.69 L 11.65,29.56 L 11.68,29.56 L 11.68,27.41 L 11.72,27.38 L 13.49,28.25 L 13.49,27.15 Z" fill="#75766e" stroke="none" /><path d="M 8.17,24.47 L 8.10,24.47 L 8.10,25.51 L 8.07,25.54 L 7.20,25.10 L 7.20,26.14 L 7.16,26.18 L 6.36,25.77 L 6.29,25.77 L 6.29,26.88 L 8.03,27.75 L 8.10,27.75 L 8.10,25.61 L 8.13,25.57 L 9.84,26.44 L 9.91,26.44 L 9.91,25.34 Z" fill="#75766e" stroke="none" /><path d="M 4.55,22.66 L 4.49,22.66 L 4.49,23.70 L 4.45,23.73 L 3.68,23.33 L 3.62,23.33 L 3.62,24.37 L 3.58,24.40 L 2.71,23.97 L 2.71,25.07 L 4.42,25.94 L 4.49,25.94 L 4.49,23.80 L 4.52,23.77 L 6.23,24.64 L 6.29,24.64 L 6.29,23.53 Z" fill="#75766e" stroke="none" /><path d="M 0.94,20.85 L 0.90,20.85 L 0.90,21.89 L 0.87,21.92 L 0.07,21.52 L 0.00,21.52 L 0.00,23.73 L 0.87,24.17 L 0.90,24.17 L 0.90,22.03 L 0.94,21.99 L 2.71,22.86 L 2.71,21.76 Z" fill="#75766e" stroke="none" /><path d="M 8.10,18.95 L 8.10,20.05 L 9.84,20.92 L 9.91,20.99 L 9.91,22.06 L 9.94,22.09 L 11.62,22.93 L 11.68,22.93 L 11.68,21.89 L 11.72,21.86 L 12.59,22.29 L 12.59,21.19 L 12.55,21.15 L 10.88,20.32 L 10.81,20.32 L 10.81,21.36 L 10.78,21.39 L 9.97,20.99 L 9.91,20.92 L 9.91,19.85 L 9.87,19.82 Z" fill="#75766e" stroke="none" /><path d="M 9.91,16.57 L 9.91,17.57 L 9.87,17.61 L 9.07,17.21 L 9.00,17.21 L 9.00,18.31 L 10.74,19.18 L 10.81,19.18 L 10.81,18.14 L 10.85,18.11 L 11.62,18.51 L 11.68,18.51 L 11.68,17.44 L 9.97,16.57 Z" fill="#75766e" stroke="none" /><path d="M 7.23,15.20 L 7.20,15.20 L 7.20,16.23 L 7.16,16.27 L 6.29,15.83 L 6.29,16.94 L 7.13,17.37 L 7.20,17.37 L 7.20,16.33 L 7.23,16.30 L 8.10,16.74 L 8.10,15.63 Z" fill="#75766e" stroke="none" /><path d="M 13.52,15.03 L 13.49,15.03 L 13.49,16.07 L 13.46,16.10 L 12.65,15.70 L 12.59,15.70 L 12.59,16.80 L 13.46,17.24 L 13.49,17.24 L 13.49,16.20 L 13.52,16.17 L 14.33,16.57 L 14.39,16.57 L 14.39,15.46 Z" fill="#75766e" stroke="none" /><path d="M 0.00,14.90 L 0.00,18.21 L 0.84,18.64 L 0.90,18.64 L 0.90,15.33 Z" fill="#75766e" stroke="none" /><path d="M 9.00,15.00 L 10.81,15.90 L 10.81,13.76 L 10.85,13.72 L 12.52,14.56 L 12.59,14.56 L 12.59,13.52 L 12.62,13.49 L 14.33,14.36 L 14.46,14.36 L 15.26,13.96 L 15.26,13.92 L 14.43,13.49 L 15.30,13.05 L 15.30,13.02 L 14.43,12.59 L 14.36,12.59 L 12.65,13.46 L 12.55,13.46 L 11.82,13.09 L 11.75,13.02 L 12.55,12.62 L 12.55,12.55 L 11.75,12.15 L 11.62,12.15 L 10.81,12.55 L 10.81,13.62 L 10.78,13.66 L 9.97,13.26 L 9.91,13.26 L 9.91,14.29 L 9.87,14.33 L 9.00,13.89 Z" fill="#75766e" stroke="none" /><path d="M 20.69,11.21 L 19.78,10.78 L 17.10,12.12 L 17.10,12.15 L 18.01,12.59 L 20.69,11.25 Z" fill="#75766e" stroke="none" /><path d="M 13.49,11.21 L 13.49,11.25 L 14.36,11.68 L 14.43,11.68 L 15.30,11.25 L 15.30,11.21 L 14.43,10.78 L 14.36,10.78 Z" fill="#75766e" stroke="none" /><path d="M 8.97,10.78 L 8.13,10.34 L 8.03,10.34 L 7.23,10.74 L 7.20,10.78 L 7.20,11.82 L 7.13,11.85 L 6.36,11.45 L 6.29,11.45 L 6.29,12.49 L 6.26,12.52 L 5.39,12.08 L 5.39,13.19 L 7.20,14.09 L 7.20,11.95 L 7.26,11.92 L 9.00,12.79 L 9.00,11.68 L 8.17,11.25 L 8.20,11.18 L 8.97,10.81 Z" fill="#75766e" stroke="none" /><path d="M 26.04,8.50 L 25.24,8.10 L 25.14,8.10 L 22.53,9.41 L 22.53,9.47 L 23.33,9.87 L 23.43,9.87 L 26.04,8.57 Z" fill="#75766e" stroke="none" /><path d="M 27.01,7.16 L 27.05,7.23 L 27.85,7.63 L 27.92,7.63 L 28.75,7.20 L 28.75,7.16 L 27.95,6.76 L 27.82,6.76 Z" fill="#75766e" stroke="none" /><path d="M 9.87,7.67 L 9.84,7.60 L 9.04,7.20 L 9.10,7.13 L 9.87,6.76 L 9.87,6.73 L 9.04,6.29 L 8.94,6.29 L 7.20,7.16 L 7.20,7.20 L 8.94,8.07 L 9.07,8.07 Z" fill="#75766e" stroke="none" /><path d="M 1.77,6.29 L 0.90,6.73 L 0.90,6.76 L 1.67,7.13 L 1.74,7.20 L 1.71,7.23 L 0.90,7.63 L 0.07,7.20 L 0.00,7.20 L 0.00,8.30 L 1.74,9.17 L 1.81,9.17 L 1.81,8.13 L 1.84,8.10 L 3.62,9.00 L 3.62,10.04 L 3.58,10.08 L 2.71,9.64 L 2.71,10.68 L 2.68,10.71 L 1.87,10.31 L 1.81,10.31 L 1.81,11.41 L 3.55,12.28 L 3.62,12.28 L 3.62,10.14 L 3.65,10.11 L 5.39,10.98 L 5.39,9.87 L 3.72,9.04 L 3.65,8.97 L 3.68,8.94 L 4.45,8.57 L 4.45,8.50 L 2.81,7.70 L 2.74,7.63 L 3.55,7.23 L 3.58,7.16 L 1.84,6.29 Z" fill="#75766e" stroke="none" /><path d="M 22.49,4.92 L 22.49,4.95 L 25.17,6.29 L 26.08,5.86 L 26.08,5.82 L 23.40,4.49 Z" fill="#75766e" stroke="none" /><path d="M 6.29,4.92 L 5.39,4.49 L 3.65,5.36 L 3.65,5.42 L 4.45,5.82 L 4.55,5.82 L 6.29,4.95 Z" fill="#75766e" stroke="none" /><path d="M 14.43,4.45 L 14.43,4.52 L 15.23,4.92 L 15.20,4.99 L 14.43,5.36 L 14.43,5.42 L 15.23,5.82 L 15.20,5.89 L 14.43,6.26 L 14.43,6.33 L 15.23,6.73 L 15.16,6.79 L 14.39,7.16 L 14.39,7.20 L 15.26,7.63 L 14.39,8.07 L 14.39,8.10 L 15.26,8.54 L 14.39,8.97 L 14.39,9.00 L 16.13,9.87 L 16.23,9.87 L 17.97,9.00 L 17.94,8.94 L 17.17,8.57 L 17.14,8.54 L 17.17,8.50 L 18.01,8.10 L 18.85,8.54 L 18.91,8.54 L 19.78,8.10 L 19.78,8.07 L 18.91,7.63 L 18.04,8.07 L 17.94,8.07 L 17.21,7.70 L 17.14,7.63 L 17.97,7.20 L 17.97,7.16 L 17.21,6.79 L 17.14,6.73 L 17.97,6.29 L 17.97,6.26 L 17.21,5.89 L 17.14,5.82 L 17.94,5.42 L 17.97,5.36 L 16.70,4.72 L 16.64,4.72 L 15.33,4.05 L 15.23,4.05 Z" fill="#75766e" stroke="none" /><path d="M 18.01,2.68 L 18.01,2.71 L 19.75,3.58 L 19.85,3.58 L 20.65,3.18 L 20.65,3.11 L 18.91,2.24 L 18.85,2.24 Z" fill="#75766e" stroke="none" /><path d="M 14.39,2.68 L 13.52,2.24 L 13.46,2.24 L 11.72,3.11 L 11.75,3.18 L 12.52,3.55 L 12.55,3.58 L 12.49,3.65 L 11.75,4.02 L 11.65,4.02 L 10.78,3.58 L 9.91,4.02 L 9.91,4.05 L 10.74,4.49 L 10.85,4.49 L 11.68,4.05 L 12.55,4.49 L 12.62,4.49 L 14.36,3.62 L 14.33,3.55 L 13.52,3.15 L 14.39,2.71 Z" fill="#75766e" stroke="none" /><path d="M 10.78,2.68 L 9.94,2.24 L 9.87,2.24 L 7.26,3.55 L 7.23,3.62 L 8.03,4.02 L 8.17,4.02 L 10.78,2.71 Z" fill="#75766e" stroke="none" /><path d="M 15.33,1.31 L 15.33,1.37 L 16.13,1.77 L 16.27,1.77 L 17.07,1.37 L 17.04,1.31 L 16.23,0.90 L 16.13,0.90 Z" fill="#75766e" stroke="none" /><path d="M 15.26,0.44 L 14.43,0.00 L 14.36,0.00 L 12.62,0.87 L 12.62,0.90 L 13.46,1.34 L 13.52,1.34 L 15.26,0.47 Z" fill="#75766e" stroke="none" /><path d="M 10.81,25.81 L 10.81,26.91 L 11.68,27.35 L 11.68,26.24 Z" fill="#838179" stroke="none" /><path d="M 7.20,24.00 L 7.20,25.10 L 8.03,25.54 L 8.10,25.54 L 8.10,24.44 Z" fill="#838179" stroke="none" /><path d="M 3.62,22.23 L 3.62,23.33 L 4.42,23.73 L 4.49,23.73 L 4.49,22.63 L 3.68,22.23 Z" fill="#838179" stroke="none" /><path d="M 11.68,21.86 L 11.68,22.96 L 12.59,23.40 L 12.59,22.29 L 11.75,21.86 Z" fill="#838179" stroke="none" /><path d="M 0.00,20.42 L 0.00,21.52 L 0.90,21.96 L 0.90,20.85 L 0.07,20.42 Z" fill="#838179" stroke="none" /><path d="M 11.68,17.44 L 11.68,18.48 L 11.65,18.51 L 10.88,18.11 L 10.81,18.11 L 10.81,19.21 L 12.59,20.08 L 12.59,19.05 L 12.62,19.01 L 13.42,19.41 L 13.49,19.41 L 13.49,18.34 Z" fill="#838179" stroke="none" /><path d="M 13.49,13.92 L 13.49,15.03 L 14.33,15.46 L 14.39,15.46 L 14.39,14.36 Z" fill="#838179" stroke="none" /><path d="M 11.72,13.02 L 11.72,13.05 L 12.59,13.49 L 13.49,13.05 L 13.49,13.02 L 12.62,12.59 L 12.55,12.59 Z" fill="#838179" stroke="none" /><path d="M 17.97,12.55 L 17.17,12.15 L 17.04,12.15 L 14.43,13.46 L 14.43,13.52 L 15.23,13.92 L 15.33,13.92 L 17.94,12.62 Z" fill="#838179" stroke="none" /><path d="M 0.00,12.69 L 0.00,14.90 L 0.90,15.36 L 0.90,17.57 L 1.81,18.01 L 1.81,15.80 L 0.90,15.33 L 0.90,13.19 L 0.94,13.15 L 2.71,14.06 L 2.71,15.16 L 6.26,16.94 L 6.29,16.94 L 6.29,15.90 L 6.36,15.87 L 7.20,16.30 L 7.20,17.41 L 8.94,18.28 L 9.00,18.28 L 9.00,17.24 L 9.04,17.21 L 9.91,17.64 L 9.91,16.54 L 8.17,15.67 L 8.10,15.67 L 8.10,16.67 L 8.03,16.70 L 7.20,16.27 L 7.20,15.20 L 7.16,15.16 L 0.94,12.05 L 0.90,12.05 L 0.90,13.09 L 0.87,13.12 Z" fill="#838179" stroke="none" /><path d="M 8.10,11.21 L 8.10,11.25 L 9.87,12.12 L 9.91,12.15 L 9.91,13.26 L 10.78,13.69 L 10.81,13.69 L 10.81,12.59 L 11.68,12.15 L 11.68,12.12 L 9.00,10.78 Z" fill="#838179" stroke="none" /><path d="M 9.91,10.31 L 9.94,10.38 L 13.42,12.12 L 13.56,12.12 L 14.36,11.72 L 14.36,11.65 L 13.56,11.25 L 13.59,11.18 L 14.36,10.81 L 14.36,10.74 L 13.56,10.34 L 13.46,10.34 L 12.59,10.78 L 10.81,9.87 Z" fill="#838179" stroke="none" /><path d="M 23.36,9.87 L 22.53,9.44 L 22.46,9.44 L 19.85,10.74 L 19.82,10.81 L 20.62,11.21 L 20.75,11.21 L 23.36,9.91 Z" fill="#838179" stroke="none" /><path d="M 2.71,8.54 L 2.71,9.64 L 2.74,9.67 L 3.55,10.08 L 3.62,10.08 L 3.62,9.04 L 3.65,9.00 L 6.26,10.31 L 6.29,10.34 L 6.29,11.45 L 7.16,11.88 L 7.20,11.88 L 7.20,10.81 L 7.26,10.74 L 8.07,10.34 L 8.07,10.31 L 4.52,8.54 L 4.45,8.54 L 3.62,8.97 Z" fill="#838179" stroke="none" /><path d="M 0.03,7.16 L 0.07,7.23 L 0.87,7.63 L 0.94,7.63 L 1.77,7.20 L 1.77,7.16 L 0.97,6.76 L 0.84,6.76 Z" fill="#838179" stroke="none" /><path d="M 21.59,7.16 L 20.69,6.73 L 18.95,7.60 L 18.91,7.67 L 19.72,8.07 L 19.85,8.07 L 21.59,7.20 Z" fill="#838179" stroke="none" /><path d="M 26.01,5.86 L 25.21,6.26 L 25.21,6.29 L 26.88,7.13 L 26.95,7.20 L 25.21,8.07 L 25.21,8.10 L 26.04,8.54 L 26.11,8.54 L 27.85,7.67 L 27.85,7.60 L 27.05,7.20 L 27.11,7.13 L 27.88,6.76 L 27.88,6.73 L 26.14,5.86 Z" fill="#838179" stroke="none" /><path d="M 4.49,5.82 L 3.65,5.39 L 3.58,5.39 L 1.84,6.26 L 1.84,6.33 L 2.64,6.73 L 2.74,6.73 L 4.49,5.86 Z" fill="#838179" stroke="none" /><path d="M 8.10,4.02 L 7.20,3.58 L 5.46,4.45 L 5.42,4.52 L 6.23,4.92 L 6.36,4.92 L 8.10,4.05 Z" fill="#838179" stroke="none" /><path d="M 19.82,3.58 L 19.82,3.62 L 22.43,4.92 L 22.56,4.92 L 23.36,4.52 L 23.33,4.45 L 20.72,3.15 L 20.65,3.15 Z" fill="#838179" stroke="none" /><path d="M 12.59,3.58 L 11.75,3.15 L 11.65,3.15 L 10.81,3.58 L 10.81,3.62 L 11.58,3.98 L 11.65,4.05 L 11.62,4.08 L 10.78,4.49 L 9.94,4.05 L 9.84,4.05 L 4.55,6.69 L 4.52,6.76 L 5.39,7.20 L 6.26,6.76 L 6.36,6.76 L 7.13,7.16 L 7.26,7.16 L 12.55,4.52 L 12.55,4.45 L 11.75,4.05 L 11.82,3.98 L 12.59,3.62 Z" fill="#838179" stroke="none" /><path d="M 16.20,1.77 L 16.20,1.81 L 17.94,2.68 L 18.04,2.68 L 18.85,2.28 L 18.85,2.21 L 17.10,1.34 Z" fill="#838179" stroke="none" /><path d="M 13.46,1.31 L 12.65,0.90 L 12.55,0.90 L 9.94,2.21 L 9.94,2.28 L 10.74,2.68 L 10.85,2.68 L 13.46,1.37 Z" fill="#838179" stroke="none" /><path d="M 14.39,0.87 L 14.39,0.90 L 15.26,1.34 L 15.33,1.34 L 16.17,0.90 L 16.17,0.87 L 15.30,0.44 Z" fill="#838179" stroke="none" /><path d="M 0.00,11.62 L 0.00,12.69 L 0.90,13.15 L 0.90,15.36 L 1.81,15.80 L 1.81,14.76 L 1.84,14.73 L 2.64,15.13 L 2.71,15.13 L 2.71,14.03 L 0.94,13.15 L 0.90,13.12 L 0.90,12.05 L 0.07,11.62 Z" fill="#8f8c7e" stroke="none" /><path d="M 3.62,7.16 L 3.65,7.23 L 9.87,10.34 L 10.74,9.91 L 10.85,9.91 L 12.55,10.78 L 12.65,10.78 L 13.49,10.34 L 13.49,10.31 L 6.33,6.73 L 5.46,7.16 L 5.36,7.16 L 4.52,6.73 Z" fill="#8f8c7e" stroke="none" /></svg>