<svg height="32" width="32" viewBox="0 0 32 32"><defs /><path d="M 19.22,15.36 L 19.15,15.36 L 17.18,16.36 L 17.18,17.61 L 19.22,16.61 Z" fill="#170817" stroke="none" /><path d="M 19.22,14.14 L 17.18,15.14 L 17.18,16.36 L 19.22,15.36 Z" fill="#190a19" stroke="none" /><path d="M 17.18,11.88 L 15.14,12.89 L 15.14,14.14 L 15.21,14.14 L 17.18,13.14 Z" fill="#190a19" stroke="none" /><path d="M 28.35,10.77 L 27.38,11.24 L 27.38,12.49 L 27.45,12.49 L 28.35,12.03 Z" fill="#190a19" stroke="none" /><path d="M 27.35,8.05 L 26.38,8.52 L 26.34,8.59 L 27.28,9.06 L 27.35,9.06 Z" fill="#190a19" stroke="none" /><path d="M 17.18,27.60 L 17.11,27.60 L 16.21,28.06 L 16.21,29.32 L 17.18,28.85 Z" fill="#1c0d1c" stroke="none" /><path d="M 20.22,27.31 L 18.18,28.31 L 18.18,29.53 L 20.22,28.53 Z" fill="#1c0d1c" stroke="none" /><path d="M 14.17,27.06 L 13.17,27.56 L 13.17,28.81 L 14.17,28.31 Z" fill="#1c0d1c" stroke="none" /><path d="M 20.22,13.64 L 19.22,14.14 L 19.22,15.32 L 19.29,15.32 L 20.22,14.85 Z" fill="#1c0d1c" stroke="none" /><path d="M 18.22,11.38 L 18.15,11.38 L 17.18,11.88 L 17.18,13.14 L 18.22,12.64 Z" fill="#1c0d1c" stroke="none" /><path d="M 27.38,11.28 L 27.31,11.28 L 26.34,11.78 L 26.34,13.03 L 27.38,12.53 Z" fill="#1c0d1c" stroke="none" /><path d="M 16.18,11.17 L 16.11,11.17 L 15.14,11.67 L 15.14,12.89 L 15.21,12.89 L 16.18,12.38 Z" fill="#1c0d1c" stroke="none" /><path d="M 20.26,28.49 L 19.22,28.99 L 19.22,29.46 L 19.29,29.46 L 20.22,28.99 L 20.26,28.96 Z" fill="#221222" stroke="none" /><path d="M 18.18,28.35 L 18.11,28.35 L 16.21,29.32 L 16.21,30.46 L 16.18,30.50 L 15.53,30.17 L 15.39,30.17 L 15.14,30.32 L 15.14,31.50 L 15.21,31.50 L 17.15,30.53 L 17.18,30.50 L 17.18,30.07 L 17.25,30.00 L 18.18,29.53 Z" fill="#221222" stroke="none" /><path d="M 14.17,25.81 L 13.17,26.31 L 13.17,27.53 L 13.10,27.60 L 12.13,28.06 L 12.13,29.32 L 12.21,29.32 L 13.14,28.85 L 13.17,28.89 L 13.17,30.00 L 13.24,30.00 L 14.17,29.53 L 14.17,28.31 L 13.24,28.78 L 13.17,28.74 L 13.17,27.60 L 13.24,27.53 L 14.17,27.06 Z" fill="#221222" stroke="none" /><path d="M 25.34,24.77 L 25.27,24.77 L 24.30,25.27 L 24.30,26.45 L 23.30,26.95 L 23.30,27.42 L 23.37,27.42 L 24.30,26.95 L 24.34,26.92 L 24.34,26.49 L 24.41,26.42 L 25.34,25.95 Z" fill="#221222" stroke="none" /><path d="M 28.35,23.27 L 28.28,23.27 L 27.38,23.73 L 27.38,24.91 L 27.45,24.91 L 28.35,24.45 Z" fill="#221222" stroke="none" /><path d="M 17.18,21.37 L 17.11,21.37 L 16.21,21.83 L 16.21,23.09 L 17.18,22.62 Z" fill="#221222" stroke="none" /><path d="M 14.17,17.11 L 14.10,17.11 L 13.17,17.57 L 13.17,18.79 L 13.10,18.86 L 12.13,19.33 L 12.13,20.58 L 12.21,20.58 L 13.14,20.12 L 13.17,20.15 L 13.17,21.33 L 14.17,20.83 Z" fill="#221222" stroke="none" /><path d="M 21.26,13.14 L 21.19,13.14 L 20.22,13.64 L 20.22,14.82 L 20.30,14.82 L 21.26,14.32 Z" fill="#221222" stroke="none" /><path d="M 28.35,12.03 L 27.38,12.49 L 27.38,13.74 L 28.35,13.28 Z" fill="#221222" stroke="none" /><path d="M 15.14,11.67 L 14.17,12.13 L 14.17,13.39 L 15.14,12.92 Z" fill="#221222" stroke="none" /><path d="M 20.26,10.34 L 18.26,11.35 L 18.22,11.31 L 18.22,10.13 L 18.18,10.13 L 16.18,11.13 L 16.18,12.38 L 18.18,11.38 L 18.22,11.42 L 18.22,12.60 L 18.29,12.60 L 20.26,11.60 Z" fill="#221222" stroke="none" /><path d="M 28.35,9.59 L 28.28,9.59 L 27.38,10.06 L 27.38,11.24 L 27.45,11.24 L 28.35,10.77 Z" fill="#221222" stroke="none" /><path d="M 28.35,7.55 L 27.35,8.05 L 27.35,9.09 L 27.49,9.16 L 27.56,9.16 L 28.35,8.77 Z" fill="#221222" stroke="none" /><path d="M 26.31,7.34 L 26.24,7.34 L 25.34,7.80 L 25.34,9.06 L 26.31,8.59 Z" fill="#221222" stroke="none" /><path d="M 14.17,29.53 L 14.17,30.78 L 14.25,30.78 L 15.11,30.35 L 15.14,30.32 L 15.14,30.00 L 14.25,29.53 Z" fill="#241524" stroke="none" /><path d="M 13.17,28.81 L 12.13,29.32 L 12.13,30.53 L 13.17,30.03 Z" fill="#241524" stroke="none" /><path d="M 23.30,26.99 L 23.23,26.99 L 21.30,27.96 L 21.26,27.99 L 21.26,28.46 L 23.30,27.45 Z" fill="#241524" stroke="none" /><path d="M 17.18,22.62 L 17.11,22.62 L 16.21,23.09 L 16.21,24.30 L 16.29,24.30 L 17.18,23.84 Z" fill="#241524" stroke="none" /><path d="M 13.17,22.59 L 13.10,22.59 L 12.13,23.09 L 12.13,24.34 L 13.14,23.84 L 13.17,23.87 L 13.17,25.06 L 12.13,25.59 L 12.13,28.06 L 12.21,28.06 L 13.17,27.56 L 13.17,26.34 L 13.24,26.27 L 14.17,25.81 L 14.17,23.34 L 14.10,23.34 L 13.21,23.80 L 13.17,23.77 Z" fill="#241524" stroke="none" /><path d="M 28.35,22.01 L 28.28,22.01 L 27.38,22.48 L 27.38,23.70 L 27.31,23.77 L 25.34,24.73 L 25.34,25.91 L 25.27,25.99 L 24.38,26.42 L 24.34,26.45 L 24.34,26.92 L 26.31,25.95 L 26.31,25.49 L 26.34,25.45 L 27.38,24.95 L 27.38,23.77 L 27.45,23.70 L 28.35,23.27 Z" fill="#241524" stroke="none" /><path d="M 13.17,20.08 L 12.13,20.58 L 12.13,21.83 L 12.21,21.83 L 13.17,21.33 Z" fill="#241524" stroke="none" /><path d="M 28.35,15.79 L 28.28,15.79 L 27.38,16.25 L 27.38,18.72 L 27.45,18.72 L 28.35,18.26 Z" fill="#241524" stroke="none" /><path d="M 17.18,15.18 L 17.11,15.18 L 16.21,15.64 L 16.21,18.08 L 16.29,18.08 L 17.18,17.61 Z" fill="#241524" stroke="none" /><path d="M 13.17,15.14 L 12.13,15.64 L 12.13,18.11 L 13.17,17.61 Z" fill="#241524" stroke="none" /><path d="M 15.14,12.92 L 15.07,12.92 L 14.17,13.39 L 14.17,14.64 L 15.14,14.17 Z" fill="#241524" stroke="none" /><path d="M 24.30,11.60 L 23.30,12.10 L 23.30,13.28 L 23.37,13.28 L 24.30,12.81 Z" fill="#241524" stroke="none" /><path d="M 27.38,10.06 L 26.34,10.56 L 26.34,11.78 L 27.38,11.28 Z" fill="#241524" stroke="none" /><path d="M 19.22,9.63 L 18.22,10.13 L 18.22,11.35 L 18.29,11.35 L 19.22,10.88 Z" fill="#241524" stroke="none" /><path d="M 28.35,8.77 L 28.28,8.77 L 27.56,9.13 L 27.56,9.20 L 28.28,9.56 L 28.35,9.56 Z" fill="#241524" stroke="none" /><path d="M 25.34,7.80 L 24.38,8.27 L 24.34,8.23 L 24.34,7.09 L 24.27,7.09 L 22.34,8.05 L 22.30,8.09 L 22.30,9.31 L 21.26,9.84 L 21.26,11.10 L 22.30,10.60 L 22.30,9.34 L 22.34,9.31 L 24.27,8.34 L 24.34,8.38 L 24.34,9.56 L 25.31,9.09 L 25.34,9.06 Z" fill="#241524" stroke="none" /><path d="M 0.97,11.28 L 0.97,12.53 L 3.01,13.53 L 3.01,12.28 L 1.04,11.28 Z" fill="#250d25" stroke="none" /><path d="M 14.17,20.83 L 12.13,21.83 L 12.13,23.09 L 14.17,22.09 Z" fill="#271b26" stroke="none" /><path d="M 21.26,8.63 L 21.19,8.63 L 20.26,9.09 L 20.26,11.60 L 21.26,11.10 Z" fill="#271b26" stroke="none" /><path d="M 11.17,16.36 L 11.17,17.61 L 12.06,18.08 L 12.13,18.08 L 12.13,16.82 Z" fill="#291129" stroke="none" /><path d="M 14.17,14.64 L 14.17,17.11 L 15.11,17.57 L 15.18,17.57 L 15.18,15.14 Z" fill="#291129" stroke="none" /><path d="M 0.97,10.06 L 0.97,11.28 L 3.01,12.28 L 3.01,11.06 Z" fill="#291129" stroke="none" /><path d="M 3.01,7.80 L 3.01,9.06 L 4.98,10.06 L 5.05,10.06 L 5.05,8.81 Z" fill="#291129" stroke="none" /><path d="M 2.00,24.27 L 2.00,25.45 L 3.97,26.45 L 4.04,26.45 L 4.04,25.27 L 2.08,24.27 Z" fill="#2e152e" stroke="none" /><path d="M 0.00,22.01 L 0.00,23.27 L 0.97,23.73 L 0.97,22.48 L 0.07,22.01 Z" fill="#2e152e" stroke="none" /><path d="M 14.17,17.11 L 14.17,18.33 L 15.18,18.83 L 15.18,17.57 L 14.25,17.11 Z" fill="#2e152e" stroke="none" /><path d="M 10.17,15.86 L 10.17,17.11 L 11.17,17.61 L 11.17,16.36 Z" fill="#2e152e" stroke="none" /><path d="M 3.01,11.10 L 3.01,12.28 L 3.97,12.78 L 4.04,12.78 L 4.04,11.60 L 3.08,11.10 Z" fill="#2e152e" stroke="none" /><path d="M 5.05,8.84 L 5.05,10.09 L 5.98,10.56 L 6.05,10.56 L 6.05,9.31 L 5.12,8.84 Z" fill="#2e152e" stroke="none" /><path d="M 3.01,6.59 L 3.01,7.80 L 4.01,8.30 L 4.01,7.05 L 3.08,6.59 Z" fill="#2e152e" stroke="none" /><path d="M 15.14,30.32 L 14.17,30.78 L 14.17,32.00 L 15.14,31.53 Z" fill="#312431" stroke="none" /><path d="M 18.22,29.53 L 18.15,29.53 L 17.22,30.00 L 17.18,30.03 L 17.18,30.50 L 18.22,30.00 Z" fill="#312431" stroke="none" /><path d="M 21.26,27.99 L 20.30,28.46 L 20.26,28.49 L 20.26,28.96 L 21.23,28.49 L 21.26,28.46 Z" fill="#312431" stroke="none" /><path d="M 17.18,26.34 L 16.21,26.81 L 16.21,28.06 L 17.18,27.60 Z" fill="#312431" stroke="none" /><path d="M 14.17,22.09 L 14.10,22.09 L 13.17,22.55 L 13.17,23.80 L 12.13,24.34 L 12.13,25.59 L 13.17,25.09 L 13.17,23.84 L 14.17,23.34 Z" fill="#312431" stroke="none" /><path d="M 28.35,20.76 L 27.38,21.23 L 27.38,22.48 L 28.35,22.01 Z" fill="#312431" stroke="none" /><path d="M 13.17,17.61 L 13.10,17.61 L 12.13,18.11 L 12.13,19.33 L 12.21,19.33 L 13.17,18.83 Z" fill="#312431" stroke="none" /><path d="M 25.34,11.10 L 25.27,11.10 L 24.30,11.60 L 24.30,12.78 L 24.38,12.78 L 25.34,12.28 Z" fill="#312431" stroke="none" /><path d="M 20.26,9.13 L 20.19,9.13 L 19.22,9.63 L 19.22,10.85 L 19.29,10.85 L 20.26,10.34 Z" fill="#312431" stroke="none" /><path d="M 22.26,8.09 L 21.26,8.59 L 21.26,9.84 L 22.26,9.34 L 22.30,9.38 L 22.30,10.56 L 22.37,10.56 L 23.30,10.09 L 23.30,8.84 L 23.23,8.84 L 22.34,9.31 L 22.30,9.27 L 22.30,8.09 Z" fill="#312431" stroke="none" /><path d="M 13.21,30.00 L 12.89,30.14 L 12.89,30.17 L 13.21,30.32 Z" fill="#371d37" stroke="none" /><path d="M 11.17,28.85 L 11.17,30.50 L 12.17,31.00 L 12.17,30.53 L 12.13,30.50 L 12.13,29.32 L 11.24,28.85 Z" fill="#371d37" stroke="none" /><path d="M 7.09,27.99 L 7.09,28.46 L 8.05,28.96 L 8.09,28.96 L 8.09,28.56 L 8.16,28.53 L 9.06,28.99 L 9.13,28.99 L 9.13,27.81 L 8.16,27.31 L 8.13,27.31 L 8.13,28.46 L 8.09,28.49 Z" fill="#371d37" stroke="none" /><path d="M 3.01,25.95 L 3.01,26.42 L 3.04,26.45 L 4.98,27.42 L 5.05,27.42 L 5.05,26.95 Z" fill="#371d37" stroke="none" /><path d="M 14.17,25.81 L 14.17,27.06 L 15.11,27.53 L 15.18,27.60 L 15.18,28.81 L 16.14,29.32 L 16.21,29.32 L 16.21,28.06 L 15.25,27.60 L 15.18,27.53 L 15.18,26.31 Z" fill="#371d37" stroke="none" /><path d="M 14.17,23.34 L 14.17,24.59 L 15.11,25.06 L 15.18,25.06 L 15.18,23.80 L 14.25,23.34 Z" fill="#371d37" stroke="none" /><path d="M 0.00,23.27 L 0.00,24.45 L 2.00,25.45 L 2.00,24.23 L 0.07,23.27 Z" fill="#371d37" stroke="none" /><path d="M 11.17,17.61 L 11.17,18.86 L 12.13,19.33 L 12.13,18.08 Z" fill="#371d37" stroke="none" /><path d="M 0.00,15.79 L 0.00,17.04 L 0.97,17.50 L 0.97,16.25 L 0.07,15.79 Z" fill="#371d37" stroke="none" /><path d="M 11.17,15.18 L 11.17,16.36 L 12.06,16.82 L 12.13,16.82 L 12.13,15.64 L 11.24,15.18 Z" fill="#371d37" stroke="none" /><path d="M 15.18,15.14 L 15.18,16.36 L 16.21,16.86 L 16.21,15.64 Z" fill="#371d37" stroke="none" /><path d="M 13.21,12.92 L 13.21,14.17 L 14.17,14.64 L 14.17,13.39 L 13.28,12.92 Z" fill="#371d37" stroke="none" /><path d="M 4.04,11.60 L 4.04,12.81 L 4.98,13.28 L 5.05,13.28 L 5.05,12.10 Z" fill="#371d37" stroke="none" /><path d="M 4.01,7.09 L 4.01,8.30 L 6.05,9.34 L 6.05,10.60 L 8.09,11.60 L 8.09,10.34 L 6.05,9.31 L 6.05,8.09 L 6.01,8.05 L 4.08,7.09 Z" fill="#371d37" stroke="none" /><path d="M 2.04,6.09 L 2.04,7.34 L 3.01,7.80 L 3.01,6.55 Z" fill="#371d37" stroke="none" /><path d="M 15.14,30.00 L 15.14,30.32 L 15.46,30.17 L 15.46,30.14 Z" fill="#382d38" stroke="none" /><path d="M 19.22,29.03 L 19.15,29.03 L 18.22,29.49 L 18.22,29.96 L 18.29,29.96 L 19.22,29.49 Z" fill="#382d38" stroke="none" /><path d="M 14.17,14.64 L 13.17,15.14 L 13.17,17.57 L 13.24,17.57 L 14.17,17.11 Z" fill="#382d38" stroke="none" /><path d="M 26.31,6.09 L 24.34,7.05 L 24.34,8.27 L 24.27,8.34 L 23.30,8.81 L 23.30,10.06 L 23.37,10.06 L 24.34,9.56 L 24.34,8.34 L 24.41,8.27 L 26.31,7.34 Z" fill="#382d38" stroke="none" /><path d="M 24.34,6.05 L 23.41,5.58 L 23.27,5.58 L 21.33,6.55 L 21.33,6.62 L 22.26,7.09 L 22.37,7.09 L 24.30,6.12 Z" fill="#391439" stroke="none" /><path d="M 12.17,30.50 L 12.17,31.00 L 12.21,31.03 L 14.17,32.00 L 14.17,29.53 L 14.10,29.53 L 13.24,29.96 L 13.21,30.00 L 13.21,30.25 L 13.17,30.28 L 12.96,30.17 L 12.81,30.17 Z" fill="#3a213a" stroke="none" /><path d="M 15.18,28.81 L 15.18,30.03 L 16.21,30.53 L 16.21,29.32 Z" fill="#3a213a" stroke="none" /><path d="M 9.13,27.81 L 9.13,29.49 L 11.17,30.50 L 11.17,28.89 L 11.20,28.85 L 12.13,29.32 L 12.13,28.06 L 11.24,27.60 L 11.17,27.60 L 11.17,28.78 L 11.13,28.81 Z" fill="#3a213a" stroke="none" /><path d="M 14.17,22.09 L 14.17,23.34 L 15.18,23.84 L 15.18,25.02 L 15.14,25.06 L 14.25,24.59 L 14.17,24.59 L 14.17,25.81 L 15.18,26.31 L 15.18,25.13 L 15.21,25.09 L 16.21,25.59 L 16.21,23.09 L 14.25,22.09 Z" fill="#3a213a" stroke="none" /><path d="M 11.17,21.37 L 11.17,23.84 L 12.06,24.30 L 12.13,24.30 L 12.13,21.83 L 11.24,21.37 Z" fill="#3a213a" stroke="none" /><path d="M 14.17,18.33 L 14.17,19.58 L 15.11,20.04 L 15.18,20.12 L 15.18,21.33 L 16.14,21.83 L 16.21,21.83 L 16.21,20.58 L 15.25,20.12 L 15.18,20.04 L 15.18,18.83 Z" fill="#3a213a" stroke="none" /><path d="M 0.00,17.04 L 0.00,18.26 L 0.89,18.72 L 0.97,18.72 L 0.97,17.50 L 0.07,17.04 Z" fill="#3a213a" stroke="none" /><path d="M 15.18,16.36 L 15.18,17.61 L 16.21,18.11 L 16.21,16.86 L 15.25,16.36 Z" fill="#3a213a" stroke="none" /><path d="M 10.17,14.68 L 10.17,15.86 L 11.17,16.36 L 11.17,15.14 L 10.24,14.68 Z" fill="#3a213a" stroke="none" /><path d="M 7.09,13.14 L 7.09,14.32 L 8.05,14.82 L 8.13,14.82 L 8.13,13.64 L 7.16,13.14 Z" fill="#3a213a" stroke="none" /><path d="M 9.13,10.88 L 9.13,12.13 L 10.06,12.60 L 10.13,12.60 L 10.13,11.42 L 10.17,11.38 L 12.10,12.35 L 12.17,12.42 L 12.17,13.64 L 13.14,14.14 L 13.21,14.14 L 13.21,12.89 L 12.24,12.42 L 12.17,12.35 L 12.17,11.13 L 10.17,10.13 L 10.13,10.13 L 10.13,11.31 L 10.09,11.35 L 9.20,10.88 Z" fill="#3a213a" stroke="none" /><path d="M 6.05,8.09 L 6.05,9.34 L 7.09,9.84 L 7.09,8.59 Z" fill="#3a213a" stroke="none" /><path d="M 0.00,7.55 L 0.00,12.03 L 0.89,12.49 L 0.97,12.49 L 0.97,10.06 L 0.11,9.63 L 0.07,9.56 L 1.00,9.09 L 1.00,8.05 Z" fill="#3a213a" stroke="none" /><path d="M 2.04,7.34 L 2.04,8.59 L 3.01,9.06 L 3.01,7.80 L 2.11,7.34 Z" fill="#3a213a" stroke="none" /><path d="M 26.34,10.60 L 26.27,10.60 L 25.34,11.06 L 25.34,13.53 L 26.34,13.03 Z" fill="#3c313c" stroke="none" /><path d="M 15.18,25.09 L 15.18,26.31 L 16.14,26.81 L 16.21,26.81 L 16.21,25.59 L 15.25,25.09 Z" fill="#3f2c3e" stroke="none" /><path d="M 14.17,20.83 L 14.17,22.09 L 16.21,23.09 L 16.21,21.83 Z" fill="#3f2c3e" stroke="none" /><path d="M 8.09,9.13 L 8.09,11.60 L 9.06,12.10 L 9.13,12.10 L 9.13,9.63 L 8.16,9.13 Z" fill="#3f2c3e" stroke="none" /><path d="M 11.20,14.10 L 11.20,14.17 L 13.14,15.14 L 13.21,15.14 L 14.14,14.68 L 14.14,14.60 L 12.21,13.64 L 12.13,13.64 Z" fill="#3f1a3f" stroke="none" /><path d="M 12.17,11.13 L 12.17,11.17 L 13.17,11.67 L 14.14,11.20 L 14.14,11.13 L 13.21,10.67 L 13.10,10.67 Z" fill="#3f1a3f" stroke="none" /><path d="M 26.31,9.52 L 25.38,9.06 L 25.31,9.06 L 23.30,10.06 L 23.30,10.09 L 24.23,10.56 L 24.38,10.56 L 26.31,9.59 Z" fill="#3f1a3f" stroke="none" /><path d="M 25.34,6.55 L 24.41,6.09 L 24.30,6.09 L 22.37,7.05 L 22.34,7.12 L 23.27,7.59 L 23.34,7.59 L 25.34,6.59 Z" fill="#3f1a3f" stroke="none" /><path d="M 21.26,24.30 L 20.22,24.81 L 20.22,26.06 L 21.26,25.56 Z" fill="#402f40" stroke="none" /><path d="M 20.26,19.79 L 20.22,19.83 L 20.22,21.08 L 21.23,20.58 L 21.26,20.62 L 21.26,23.05 L 22.23,22.59 L 22.26,22.62 L 22.26,23.80 L 23.27,23.30 L 23.30,23.34 L 23.30,24.52 L 24.27,24.05 L 24.30,24.02 L 24.30,22.80 L 24.23,22.80 L 23.34,23.27 L 23.30,23.23 L 23.30,20.80 L 23.23,20.80 L 22.30,21.26 L 22.26,21.23 L 22.26,20.08 L 22.19,20.08 L 21.30,20.55 L 21.26,20.51 L 21.26,19.33 L 21.19,19.33 Z" fill="#402f40" stroke="none" /><path d="M 24.30,17.79 L 23.30,18.29 L 23.30,19.54 L 24.30,19.04 Z" fill="#402f40" stroke="none" /><path d="M 20.22,14.85 L 20.15,14.85 L 19.22,15.32 L 19.22,16.57 L 19.29,16.57 L 20.22,16.11 Z" fill="#402f40" stroke="none" /><path d="M 18.18,27.10 L 18.11,27.10 L 17.18,27.56 L 17.18,28.81 L 17.25,28.81 L 18.18,28.35 Z" fill="#443744" stroke="none" /><path d="M 22.26,22.55 L 21.26,23.05 L 21.26,24.30 L 22.26,23.80 Z" fill="#443744" stroke="none" /><path d="M 27.38,22.48 L 26.34,22.98 L 26.34,24.23 L 26.42,24.23 L 27.38,23.73 Z" fill="#443744" stroke="none" /><path d="M 18.18,22.12 L 18.11,22.12 L 17.18,22.59 L 17.18,23.80 L 17.11,23.87 L 16.21,24.30 L 16.21,25.56 L 16.29,25.56 L 17.18,25.09 L 17.18,23.87 L 17.25,23.80 L 18.18,23.34 Z" fill="#443744" stroke="none" /><path d="M 18.18,19.58 L 18.18,20.83 L 18.26,20.83 L 19.19,20.37 L 19.22,20.40 L 19.22,21.58 L 20.19,21.12 L 20.22,21.15 L 20.22,22.30 L 20.30,22.30 L 21.26,21.80 L 21.26,20.58 L 21.19,20.58 L 20.26,21.05 L 20.22,21.01 L 20.22,19.83 L 19.29,20.30 L 19.22,20.26 L 19.22,19.08 Z" fill="#443744" stroke="none" /><path d="M 17.18,17.61 L 16.21,18.08 L 16.21,19.33 L 17.18,18.86 Z" fill="#443744" stroke="none" /><path d="M 27.35,17.50 L 26.34,18.00 L 26.34,19.26 L 27.35,18.76 L 27.38,18.79 L 27.38,19.97 L 27.45,19.97 L 28.35,19.51 L 28.35,18.26 L 27.42,18.72 L 27.38,18.68 L 27.38,17.50 Z" fill="#443744" stroke="none" /><path d="M 20.22,16.11 L 20.15,16.11 L 19.22,16.57 L 19.22,17.83 L 20.22,17.32 Z" fill="#443744" stroke="none" /><path d="M 26.34,15.53 L 26.27,15.53 L 25.34,16.00 L 25.34,17.25 L 24.30,17.79 L 24.30,19.01 L 24.23,19.08 L 22.26,20.04 L 22.26,21.30 L 24.30,20.30 L 24.30,19.08 L 24.38,19.01 L 25.34,18.54 L 25.34,17.29 L 26.34,16.79 Z" fill="#443744" stroke="none" /><path d="M 25.34,12.28 L 24.30,12.78 L 24.30,15.28 L 25.34,14.78 Z" fill="#443744" stroke="none" /><path d="M 10.17,13.60 L 10.20,13.67 L 11.13,14.14 L 11.20,14.14 L 12.13,13.67 L 12.13,13.60 L 11.20,13.14 L 11.10,13.14 Z" fill="#462146" stroke="none" /><path d="M 13.17,10.63 L 13.21,10.70 L 14.14,11.17 L 14.21,11.17 L 15.18,10.67 L 15.18,10.63 L 14.25,10.17 L 14.10,10.17 Z" fill="#462146" stroke="none" /><path d="M 22.30,10.56 L 22.30,10.60 L 23.23,11.06 L 23.37,11.06 L 24.30,10.60 L 24.30,10.56 L 23.37,10.09 L 23.23,10.09 Z" fill="#462146" stroke="none" /><path d="M 25.34,10.06 L 25.34,10.09 L 26.27,10.56 L 26.42,10.56 L 27.35,10.09 L 27.31,10.02 L 26.38,9.56 L 26.31,9.56 Z" fill="#462146" stroke="none" /><path d="M 23.27,7.55 L 22.30,7.09 L 21.30,7.59 L 21.30,7.62 L 22.23,8.09 L 22.34,8.09 L 23.27,7.62 Z" fill="#462146" stroke="none" /><path d="M 13.14,1.47 L 12.21,1.00 L 12.13,1.00 L 10.13,2.00 L 10.13,2.04 L 11.06,2.51 L 11.17,2.51 L 13.10,1.54 Z" fill="#462146" stroke="none" /><path d="M 14.17,0.97 L 14.17,1.00 L 15.18,1.50 L 16.14,1.04 L 16.14,0.97 L 15.21,0.50 L 15.11,0.50 Z" fill="#462146" stroke="none" /><path d="M 8.09,28.49 L 8.09,28.96 L 8.13,28.99 L 9.06,29.46 L 9.13,29.46 L 9.13,28.99 Z" fill="#503a50" stroke="none" /><path d="M 5.05,26.99 L 5.05,27.45 L 5.98,27.92 L 6.05,27.92 L 6.05,27.45 L 5.12,26.99 Z" fill="#503a50" stroke="none" /><path d="M 11.17,26.34 L 11.17,27.60 L 12.13,28.06 L 12.13,26.81 Z" fill="#503a50" stroke="none" /><path d="M 15.18,26.31 L 15.18,27.56 L 16.14,28.06 L 16.21,28.06 L 16.21,26.81 Z" fill="#503a50" stroke="none" /><path d="M 2.04,25.49 L 2.04,25.95 L 3.01,26.42 L 3.01,25.95 L 2.97,25.91 L 2.11,25.49 Z" fill="#503a50" stroke="none" /><path d="M 0.00,20.76 L 0.00,22.01 L 0.97,22.48 L 0.97,21.23 Z" fill="#503a50" stroke="none" /><path d="M 15.25,17.61 L 15.18,17.61 L 15.18,20.01 L 15.11,20.04 L 14.17,19.58 L 14.17,20.83 L 15.14,21.33 L 15.18,21.33 L 15.18,20.15 L 15.21,20.12 L 16.14,20.58 L 16.21,20.58 L 16.21,18.11 Z" fill="#503a50" stroke="none" /><path d="M 8.13,13.64 L 8.13,14.85 L 9.06,15.32 L 9.13,15.32 L 9.13,14.14 Z" fill="#503a50" stroke="none" /><path d="M 9.13,9.63 L 9.13,10.88 L 10.13,11.38 L 10.13,12.64 L 11.17,13.14 L 11.17,11.88 L 10.13,11.35 L 10.13,10.13 Z" fill="#503a50" stroke="none" /><path d="M 7.09,8.63 L 7.09,9.84 L 8.09,10.34 L 8.09,9.09 L 7.16,8.63 Z" fill="#503a50" stroke="none" /><path d="M 13.14,15.11 L 12.17,14.64 L 11.17,15.14 L 11.17,15.18 L 12.10,15.64 L 12.21,15.64 L 13.14,15.18 Z" fill="#552d55" stroke="none" /><path d="M 14.21,14.60 L 14.21,14.68 L 15.14,15.14 L 15.21,15.14 L 16.14,14.68 L 16.11,14.60 L 15.18,14.14 Z" fill="#552d55" stroke="none" /><path d="M 13.21,11.63 L 13.24,11.70 L 14.10,12.13 L 14.25,12.13 L 15.14,11.67 L 15.14,11.63 L 14.21,11.17 L 14.14,11.17 Z" fill="#552d55" stroke="none" /><path d="M 5.05,11.06 L 5.05,11.10 L 6.05,11.60 L 7.05,11.10 L 7.05,11.06 L 6.12,10.60 L 5.98,10.60 Z" fill="#552d55" stroke="none" /><path d="M 11.17,10.63 L 11.17,10.67 L 12.10,11.13 L 12.24,11.13 L 13.14,10.67 L 13.14,10.63 L 12.21,10.17 L 12.06,10.17 Z" fill="#552d55" stroke="none" /><path d="M 26.34,10.56 L 25.31,10.06 L 23.34,11.06 L 23.27,11.06 L 22.37,10.60 L 22.23,10.60 L 20.30,11.56 L 20.30,11.63 L 21.23,12.10 L 21.30,12.10 L 23.27,11.10 L 23.34,11.10 L 24.34,11.60 L 26.34,10.60 Z" fill="#552d55" stroke="none" /><path d="M 1.00,10.06 L 1.00,10.09 L 1.93,10.56 L 2.08,10.56 L 2.97,10.09 L 3.08,10.09 L 3.97,10.56 L 4.12,10.56 L 5.05,10.09 L 5.05,10.06 L 4.04,9.56 L 3.04,10.06 L 2.04,9.56 L 1.97,9.56 Z" fill="#552d55" stroke="none" /><path d="M 26.38,9.52 L 26.38,9.59 L 27.31,10.06 L 27.42,10.06 L 28.35,9.59 L 28.35,9.56 L 27.35,9.06 Z" fill="#552d55" stroke="none" /><path d="M 20.30,8.09 L 20.33,8.16 L 21.19,8.59 L 21.33,8.59 L 22.26,8.13 L 22.23,8.05 L 21.37,7.62 L 21.23,7.62 Z" fill="#552d55" stroke="none" /><path d="M 2.00,7.55 L 2.00,7.59 L 2.04,7.59 L 2.04,7.55 Z" fill="#552d55" stroke="none" /><path d="M 2.04,6.05 L 2.08,6.12 L 2.94,6.55 L 3.08,6.55 L 3.97,6.09 L 3.97,6.05 L 3.04,5.58 L 2.97,5.58 Z" fill="#552d55" stroke="none" /><path d="M 5.05,4.55 L 5.05,4.58 L 5.98,5.05 L 6.09,5.05 L 7.02,4.58 L 6.98,4.51 L 6.12,4.08 L 5.98,4.08 Z" fill="#552d55" stroke="none" /><path d="M 19.29,3.51 L 19.33,3.58 L 20.26,4.04 L 20.33,4.04 L 21.26,3.58 L 21.23,3.51 L 20.30,3.04 L 20.22,3.04 Z" fill="#552d55" stroke="none" /><path d="M 15.14,0.47 L 14.21,0.00 L 14.14,0.00 L 12.21,0.97 L 12.21,1.04 L 13.17,1.50 L 15.11,0.54 Z" fill="#552d55" stroke="none" /><path d="M 20.19,26.06 L 19.22,26.56 L 19.22,27.81 L 20.19,27.35 L 20.22,27.38 L 20.22,28.49 L 20.30,28.49 L 21.26,27.99 L 21.26,26.81 L 21.19,26.81 L 20.26,27.28 L 20.22,27.24 L 20.22,26.06 Z" fill="#554a55" stroke="none" /><path d="M 17.18,25.09 L 16.21,25.56 L 16.21,26.81 L 16.29,26.81 L 17.18,26.34 Z" fill="#554a55" stroke="none" /><path d="M 25.34,23.52 L 25.27,23.52 L 24.30,24.02 L 24.30,25.23 L 24.23,25.31 L 23.30,25.77 L 23.30,26.95 L 23.37,26.95 L 24.30,26.49 L 24.30,25.31 L 24.38,25.23 L 25.34,24.77 Z" fill="#554a55" stroke="none" /><path d="M 23.30,23.30 L 23.23,23.30 L 21.26,24.30 L 21.26,25.52 L 21.33,25.52 L 23.30,24.52 Z" fill="#554a55" stroke="none" /><path d="M 28.35,19.51 L 27.38,19.97 L 27.38,21.23 L 27.45,21.23 L 28.35,20.76 Z" fill="#554a55" stroke="none" /><path d="M 20.19,17.32 L 19.22,17.83 L 19.22,20.30 L 19.15,20.37 L 18.18,20.83 L 18.18,22.09 L 18.26,22.09 L 19.19,21.62 L 19.22,21.66 L 19.22,22.80 L 19.29,22.80 L 20.19,22.34 L 20.22,22.37 L 20.22,23.55 L 20.30,23.55 L 21.26,23.05 L 21.26,21.80 L 20.26,22.30 L 20.22,22.26 L 20.22,21.08 L 19.29,21.55 L 19.22,21.51 L 19.22,20.37 L 19.29,20.30 L 20.22,19.83 L 20.22,17.32 Z" fill="#554a55" stroke="none" /><path d="M 25.34,14.78 L 25.27,14.78 L 24.30,15.28 L 24.30,17.79 L 25.31,17.29 L 25.34,17.32 L 25.34,18.51 L 24.30,19.04 L 24.30,20.26 L 23.30,20.76 L 23.30,22.01 L 23.37,22.01 L 24.30,21.55 L 24.30,20.30 L 25.34,19.76 L 25.34,18.54 L 26.34,18.04 L 26.34,16.79 L 26.27,16.79 L 25.38,17.25 L 25.34,17.22 Z" fill="#554a55" stroke="none" /><path d="M 10.17,14.64 L 10.17,14.68 L 11.10,15.14 L 11.24,15.14 L 12.17,14.68 L 12.13,14.60 L 11.20,14.14 L 11.13,14.14 Z" fill="#5a335a" stroke="none" /><path d="M 15.18,14.14 L 15.18,14.17 L 16.11,14.64 L 16.21,14.64 L 17.15,14.17 L 17.15,14.10 L 16.21,13.64 L 16.14,13.64 Z" fill="#5a335a" stroke="none" /><path d="M 7.09,13.10 L 7.09,13.14 L 8.09,13.64 L 9.09,13.14 L 9.16,13.14 L 10.17,13.64 L 11.13,13.14 L 11.13,13.10 L 10.20,12.64 L 10.06,12.64 L 9.16,13.10 L 9.09,13.10 L 8.13,12.60 Z" fill="#5a335a" stroke="none" /><path d="M 20.22,12.60 L 19.26,12.10 L 18.22,12.60 L 18.22,12.64 L 19.11,13.06 L 19.15,13.14 L 17.22,14.10 L 17.22,14.17 L 18.15,14.64 L 18.26,14.64 L 20.19,13.67 L 20.22,13.60 L 19.33,13.17 L 19.29,13.10 L 20.22,12.64 Z" fill="#5a335a" stroke="none" /><path d="M 22.30,11.56 L 22.34,11.63 L 23.27,12.10 L 23.34,12.10 L 24.30,11.60 L 24.30,11.56 L 23.37,11.10 L 23.23,11.10 Z" fill="#5a335a" stroke="none" /><path d="M 14.21,11.13 L 14.21,11.20 L 15.14,11.67 L 16.18,11.17 L 16.18,11.13 L 15.25,10.67 L 15.14,10.67 Z" fill="#5a335a" stroke="none" /><path d="M 4.04,10.56 L 4.04,10.60 L 4.98,11.06 L 4.94,11.13 L 4.04,11.56 L 4.04,11.60 L 6.01,12.60 L 6.12,12.60 L 8.05,11.63 L 8.05,11.56 L 7.12,11.10 L 7.02,11.10 L 6.12,11.56 L 6.01,11.56 L 5.15,11.13 L 5.12,11.10 L 5.15,11.02 L 6.05,10.60 L 6.05,10.56 L 5.12,10.09 L 4.98,10.09 Z" fill="#5a335a" stroke="none" /><path d="M 19.19,9.59 L 18.22,9.13 L 17.22,9.63 L 17.22,9.66 L 18.15,10.13 L 18.26,10.13 L 19.19,9.66 Z" fill="#5a335a" stroke="none" /><path d="M 1.97,9.52 L 1.00,9.06 L 0.00,9.56 L 0.00,9.59 L 0.93,10.06 L 1.04,10.06 L 1.97,9.59 Z" fill="#5a335a" stroke="none" /><path d="M 25.38,9.02 L 25.38,9.09 L 26.31,9.56 L 26.38,9.56 L 27.31,9.09 L 27.28,9.02 L 26.34,8.55 Z" fill="#5a335a" stroke="none" /><path d="M 7.09,8.59 L 7.09,8.63 L 9.09,9.63 L 9.16,9.63 L 10.09,9.16 L 10.06,9.09 L 8.13,8.13 L 8.02,8.13 Z" fill="#5a335a" stroke="none" /><path d="M 26.31,6.55 L 26.31,7.55 L 27.31,8.05 L 27.38,8.05 L 28.31,7.59 L 28.31,7.52 L 26.38,6.55 Z" fill="#5a335a" stroke="none" /><path d="M 2.04,6.55 L 1.97,6.55 L 0.04,7.52 L 0.04,7.59 L 1.97,8.55 L 2.04,8.55 Z" fill="#5a335a" stroke="none" /><path d="M 23.34,5.55 L 23.34,5.58 L 25.27,6.55 L 25.41,6.55 L 26.31,6.09 L 26.31,6.05 L 24.38,5.08 L 24.27,5.08 Z" fill="#5a335a" stroke="none" /><path d="M 6.01,5.05 L 5.12,4.58 L 4.98,4.58 L 3.04,5.55 L 3.04,5.62 L 3.87,6.01 L 3.94,6.09 L 3.01,6.55 L 3.01,6.59 L 4.01,7.09 L 4.98,6.62 L 4.98,6.55 L 4.04,6.09 L 4.12,6.01 L 6.01,5.08 Z" fill="#5a335a" stroke="none" /><path d="M 18.26,3.01 L 18.26,3.04 L 19.26,3.54 L 20.22,3.08 L 20.22,3.01 L 19.29,2.54 L 19.19,2.54 Z" fill="#5a335a" stroke="none" /><path d="M 6.05,27.49 L 6.05,27.96 L 7.09,28.46 L 7.09,27.99 L 7.05,27.96 L 6.12,27.49 Z" fill="#5c485c" stroke="none" /><path d="M 14.17,27.06 L 14.17,29.53 L 15.11,30.00 L 15.18,30.00 L 15.18,27.56 Z" fill="#5c485c" stroke="none" /><path d="M 11.17,11.88 L 11.17,13.14 L 11.20,13.17 L 12.17,13.64 L 12.17,12.46 L 12.24,12.42 L 14.17,13.39 L 14.17,12.13 L 12.24,11.17 L 12.17,11.17 L 12.17,12.31 L 12.13,12.35 Z" fill="#5c485c" stroke="none" /><path d="M 1.00,8.05 L 1.00,9.06 L 1.07,9.06 L 2.00,8.59 L 1.97,8.52 Z" fill="#5c485c" stroke="none" /><path d="M 21.26,23.05 L 20.22,23.55 L 20.22,24.81 L 19.22,25.31 L 19.22,26.52 L 19.15,26.60 L 18.18,27.06 L 18.18,28.31 L 18.26,28.31 L 19.22,27.81 L 19.22,26.60 L 19.29,26.52 L 20.15,26.09 L 20.22,26.13 L 20.22,27.31 L 21.26,26.81 L 21.26,25.56 L 21.19,25.56 L 20.30,26.02 L 20.22,25.99 L 20.22,24.84 L 21.26,24.30 Z" fill="#5e555e" stroke="none" /><path d="M 24.30,21.55 L 24.23,21.55 L 23.30,22.01 L 23.30,23.27 L 23.37,23.27 L 24.27,22.80 L 24.30,22.84 L 24.30,23.98 L 24.23,24.05 L 23.30,24.52 L 23.30,25.77 L 24.30,25.27 L 24.30,24.05 L 24.38,23.98 L 25.31,23.52 L 25.34,23.55 L 25.34,24.73 L 25.41,24.73 L 26.34,24.27 L 26.34,23.02 L 26.27,23.02 L 25.38,23.48 L 25.34,23.45 L 25.34,22.26 L 24.34,22.77 L 24.30,22.73 Z" fill="#5e555e" stroke="none" /><path d="M 16.21,20.58 L 16.21,21.83 L 17.15,21.37 L 17.18,21.40 L 17.18,22.59 L 17.25,22.59 L 18.15,22.12 L 18.18,22.16 L 18.18,23.34 L 19.22,22.84 L 19.22,21.58 L 18.22,22.09 L 18.18,22.05 L 18.18,20.87 L 18.11,20.87 L 17.22,21.33 L 17.18,21.30 L 17.18,20.12 L 17.11,20.12 Z" fill="#5e555e" stroke="none" /><path d="M 19.22,16.61 L 19.15,16.61 L 18.18,17.11 L 18.18,19.58 L 18.26,19.58 L 19.22,19.08 Z" fill="#5e555e" stroke="none" /><path d="M 24.30,16.54 L 23.30,17.04 L 23.30,18.26 L 23.23,18.33 L 21.30,19.29 L 21.26,19.26 L 21.26,18.08 L 21.19,18.08 L 20.26,18.54 L 20.22,18.58 L 20.22,19.83 L 21.23,19.33 L 21.26,19.36 L 21.26,20.55 L 21.33,20.55 L 23.27,19.58 L 23.30,19.54 L 23.30,18.33 L 23.37,18.26 L 24.30,17.79 Z" fill="#5e555e" stroke="none" /><path d="M 28.35,14.53 L 28.28,14.53 L 27.38,15.00 L 27.38,16.21 L 27.31,16.29 L 26.34,16.75 L 26.34,18.00 L 25.34,18.51 L 25.34,19.76 L 26.34,19.26 L 26.34,18.04 L 27.38,17.50 L 27.38,16.29 L 27.45,16.21 L 28.35,15.79 Z" fill="#5e555e" stroke="none" /><path d="M 26.34,13.03 L 25.34,13.53 L 25.34,16.00 L 25.41,16.00 L 26.34,15.53 Z" fill="#5e555e" stroke="none" /><path d="M 24.30,12.81 L 24.23,12.81 L 23.34,13.28 L 23.30,13.24 L 23.30,12.10 L 23.27,12.10 L 21.26,13.10 L 21.26,14.28 L 21.19,14.35 L 20.22,14.82 L 20.22,16.07 L 20.30,16.07 L 21.26,15.57 L 21.26,14.35 L 21.33,14.28 L 23.27,13.32 L 23.30,13.35 L 23.30,14.53 L 23.37,14.53 L 24.30,14.07 Z" fill="#5e555e" stroke="none" /><path d="M 19.26,12.10 L 19.26,12.13 L 21.19,13.10 L 21.33,13.10 L 22.26,12.64 L 22.23,12.56 L 20.30,11.60 L 20.22,11.60 Z" fill="#624460" stroke="none" /><path d="M 9.09,12.10 L 8.13,11.60 L 8.05,11.60 L 6.12,12.56 L 6.09,12.64 L 7.02,13.10 L 7.16,13.10 L 9.09,12.13 Z" fill="#624460" stroke="none" /><path d="M 3.04,11.06 L 3.08,11.13 L 4.01,11.60 L 5.05,11.10 L 5.05,11.06 L 4.12,10.60 L 3.97,10.60 Z" fill="#624460" stroke="none" /><path d="M 9.13,14.14 L 9.13,16.61 L 10.17,17.11 L 10.17,14.64 Z" fill="#625062" stroke="none" /><path d="M 23.30,24.52 L 21.26,25.52 L 21.26,27.99 L 23.30,26.99 Z" fill="#636064" stroke="none" /><path d="M 20.22,22.34 L 20.15,22.34 L 17.18,23.84 L 17.18,27.56 L 17.25,27.56 L 19.19,26.60 L 19.22,26.56 L 19.22,25.34 L 20.22,24.84 Z" fill="#636064" stroke="none" /><path d="M 27.38,18.76 L 27.31,18.76 L 24.30,20.26 L 24.30,22.77 L 24.38,22.77 L 25.31,22.30 L 25.34,22.34 L 25.34,23.48 L 25.41,23.48 L 27.38,22.48 Z" fill="#636064" stroke="none" /><path d="M 18.18,17.11 L 17.18,17.61 L 17.18,18.83 L 16.21,19.33 L 16.21,20.58 L 17.15,20.12 L 17.18,20.15 L 17.18,21.33 L 17.25,21.33 L 18.18,20.87 Z" fill="#636064" stroke="none" /><path d="M 23.30,13.32 L 23.23,13.32 L 21.30,14.28 L 21.26,14.32 L 21.26,15.53 L 21.19,15.61 L 20.22,16.07 L 20.22,18.58 L 21.23,18.08 L 21.26,18.11 L 21.26,19.29 L 21.33,19.29 L 23.27,18.33 L 23.30,18.29 L 23.30,17.07 L 23.37,17.00 L 24.30,16.54 L 24.30,14.07 L 24.23,14.07 L 23.34,14.53 L 23.30,14.50 Z" fill="#636064" stroke="none" /><path d="M 27.38,12.53 L 27.31,12.53 L 26.34,13.03 L 26.34,16.75 L 26.42,16.75 L 27.38,16.25 L 27.38,15.03 L 27.45,14.96 L 28.35,14.53 L 28.35,13.28 L 28.28,13.28 L 27.42,13.71 L 27.38,13.67 Z" fill="#636064" stroke="none" /><path d="M 4.04,22.80 L 4.04,24.02 L 5.05,24.52 L 5.05,23.27 L 4.12,22.80 Z" fill="#674d67" stroke="none" /><path d="M 7.09,19.33 L 7.09,20.58 L 8.13,21.08 L 8.13,19.83 L 7.16,19.33 Z" fill="#674d67" stroke="none" /><path d="M 4.04,17.79 L 4.04,19.04 L 4.98,19.51 L 5.05,19.58 L 5.05,22.05 L 6.01,22.51 L 6.09,22.59 L 6.09,23.80 L 7.02,24.27 L 7.09,24.34 L 7.09,25.56 L 8.13,26.06 L 8.13,24.81 L 7.16,24.34 L 7.09,24.27 L 7.09,21.80 L 6.16,21.33 L 6.09,21.26 L 6.09,20.04 L 5.12,19.58 L 5.05,19.51 L 5.05,18.29 Z" fill="#674d67" stroke="none" /><path d="M 3.01,12.28 L 3.01,13.53 L 3.97,14.03 L 4.04,14.03 L 4.04,12.78 Z" fill="#674d67" stroke="none" /><path d="M 10.17,27.10 L 10.17,28.35 L 11.10,28.81 L 11.17,28.81 L 11.17,27.56 L 10.24,27.10 Z" fill="#6e586e" stroke="none" /><path d="M 0.97,22.48 L 0.97,23.73 L 1.93,24.23 L 2.00,24.23 L 2.00,22.98 Z" fill="#6e586e" stroke="none" /><path d="M 10.17,22.12 L 10.17,23.34 L 11.10,23.80 L 11.17,23.87 L 11.17,25.09 L 12.06,25.56 L 12.13,25.56 L 12.13,24.30 L 11.24,23.87 L 11.17,23.80 L 11.17,22.59 L 10.24,22.12 Z" fill="#6e586e" stroke="none" /><path d="M 5.05,22.05 L 5.05,23.30 L 6.09,23.80 L 6.09,22.55 L 5.12,22.05 Z" fill="#6e586e" stroke="none" /><path d="M 10.17,19.58 L 9.13,19.08 L 9.13,20.26 L 9.06,20.30 L 8.13,19.83 L 8.13,21.01 L 8.09,21.05 L 6.16,20.08 L 6.09,20.08 L 6.09,21.30 L 8.05,22.30 L 8.13,22.30 L 8.13,21.15 L 8.16,21.12 L 9.13,21.58 L 9.13,20.40 L 9.16,20.37 L 10.09,20.83 L 10.17,20.83 Z" fill="#6e586e" stroke="none" /><path d="M 1.00,17.50 L 0.97,17.50 L 0.97,18.68 L 0.93,18.72 L 0.00,18.26 L 0.00,19.51 L 0.89,19.97 L 0.97,19.97 L 0.97,18.79 L 1.00,18.76 L 2.00,19.26 L 2.00,18.00 Z" fill="#6e586e" stroke="none" /><path d="M 2.00,15.53 L 2.00,16.79 L 3.01,17.29 L 3.01,18.54 L 3.97,19.01 L 4.04,19.08 L 4.04,20.30 L 4.98,20.76 L 5.05,20.76 L 5.05,19.54 L 4.12,19.08 L 4.04,19.01 L 4.04,17.79 L 3.01,17.25 L 3.01,16.00 L 2.08,15.53 Z" fill="#6e586e" stroke="none" /><path d="M 8.13,14.85 L 8.13,17.32 L 9.13,17.83 L 9.13,15.32 L 8.20,14.85 Z" fill="#6e586e" stroke="none" /><path d="M 3.01,13.53 L 3.01,14.78 L 4.04,15.28 L 4.04,14.03 Z" fill="#6e586e" stroke="none" /><path d="M 0.00,12.03 L 0.00,13.28 L 0.97,13.74 L 0.97,12.49 Z" fill="#6e586e" stroke="none" /><path d="M 21.26,13.10 L 20.22,12.60 L 19.26,13.10 L 19.19,13.10 L 18.29,12.64 L 18.15,12.64 L 17.22,13.10 L 17.22,13.14 L 18.18,13.64 L 19.19,13.14 L 19.26,13.14 L 20.26,13.64 L 21.26,13.14 Z" fill="#7b5a7b" stroke="none" /><path d="M 8.13,12.60 L 8.13,12.64 L 9.06,13.10 L 9.02,13.17 L 8.13,13.60 L 8.16,13.67 L 10.09,14.64 L 10.20,14.64 L 11.13,14.17 L 11.13,14.10 L 9.20,13.14 L 9.23,13.06 L 10.13,12.64 L 10.13,12.60 L 9.13,12.10 Z" fill="#7b5a7b" stroke="none" /><path d="M 21.30,12.06 L 21.30,12.13 L 22.23,12.60 L 22.34,12.60 L 23.27,12.13 L 23.27,12.06 L 22.34,11.60 L 22.23,11.60 Z" fill="#7b5a7b" stroke="none" /><path d="M 2.00,10.56 L 2.00,10.60 L 3.01,11.10 L 4.04,10.60 L 4.04,10.56 L 3.04,10.06 Z" fill="#7b5a7b" stroke="none" /><path d="M 16.21,10.13 L 16.21,10.17 L 17.15,10.63 L 17.25,10.63 L 18.18,10.17 L 18.15,10.09 L 17.29,9.66 L 17.15,9.66 Z" fill="#7b5a7b" stroke="none" /><path d="M 4.04,7.05 L 4.08,7.12 L 5.01,7.59 L 5.08,7.59 L 6.01,7.12 L 5.98,7.05 L 5.05,6.59 L 4.98,6.59 Z" fill="#7b5a7b" stroke="none" /><path d="M 15.21,1.47 L 15.25,1.54 L 16.18,2.00 L 16.25,2.00 L 17.18,1.54 L 17.15,1.47 L 16.21,1.00 L 16.14,1.00 Z" fill="#7b5a7b" stroke="none" /><path d="M 8.16,26.06 L 8.13,26.06 L 8.13,27.24 L 8.09,27.28 L 7.16,26.81 L 7.09,26.81 L 7.09,27.99 L 8.05,28.49 L 8.13,28.49 L 8.13,27.38 L 8.16,27.35 L 9.13,27.81 L 9.13,26.56 Z" fill="#897889" stroke="none" /><path d="M 11.17,25.09 L 11.17,26.34 L 12.06,26.81 L 12.13,26.81 L 12.13,25.56 Z" fill="#897889" stroke="none" /><path d="M 3.01,23.52 L 3.01,24.77 L 3.97,25.23 L 4.04,25.31 L 4.04,26.49 L 4.98,26.95 L 5.05,26.95 L 5.05,25.77 L 4.12,25.31 L 4.04,25.23 L 4.04,24.02 L 3.08,23.52 Z" fill="#897889" stroke="none" /><path d="M 5.05,23.30 L 5.05,24.52 L 7.02,25.52 L 7.09,25.52 L 7.09,24.30 L 5.12,23.30 Z" fill="#897889" stroke="none" /><path d="M 0.00,19.51 L 0.00,20.76 L 0.89,21.23 L 0.97,21.23 L 0.97,19.97 Z" fill="#897889" stroke="none" /><path d="M 8.16,17.32 L 8.13,17.32 L 8.13,19.83 L 9.06,20.30 L 9.13,20.37 L 9.13,21.51 L 9.06,21.55 L 8.13,21.08 L 8.13,22.26 L 8.09,22.30 L 7.09,21.80 L 7.09,23.05 L 8.05,23.55 L 8.13,23.55 L 8.13,22.37 L 8.16,22.34 L 9.06,22.80 L 9.13,22.80 L 9.13,21.66 L 9.16,21.62 L 10.09,22.09 L 10.17,22.09 L 10.17,20.83 L 9.20,20.37 L 9.13,20.30 L 9.13,17.83 Z" fill="#897889" stroke="none" /><path d="M 3.01,14.78 L 3.01,17.22 L 2.97,17.25 L 2.08,16.79 L 2.00,16.79 L 2.00,18.04 L 3.01,18.54 L 3.01,19.76 L 4.04,20.30 L 4.04,21.55 L 4.98,22.01 L 5.05,22.01 L 5.05,20.76 L 4.04,20.26 L 4.04,19.04 L 3.01,18.51 L 3.01,17.32 L 3.04,17.29 L 4.04,17.79 L 4.04,15.28 L 3.08,14.78 Z" fill="#897889" stroke="none" /><path d="M 18.18,13.60 L 17.25,13.14 L 17.15,13.14 L 16.21,13.60 L 16.21,13.67 L 17.15,14.14 L 15.21,15.11 L 15.21,15.18 L 16.14,15.64 L 16.25,15.64 L 18.18,14.68 L 18.15,14.60 L 17.22,14.14 L 18.15,13.67 Z" fill="#8d708d" stroke="none" /><path d="M 1.04,9.06 L 1.04,9.09 L 2.97,10.06 L 3.08,10.06 L 4.01,9.59 L 3.97,9.52 L 2.04,8.55 Z" fill="#8d708d" stroke="none" /><path d="M 26.31,7.55 L 26.31,8.55 L 26.38,8.55 L 27.31,8.09 L 27.31,8.02 L 26.38,7.55 Z" fill="#8d708d" stroke="none" /><path d="M 14.17,10.13 L 14.17,10.17 L 16.11,11.13 L 16.25,11.13 L 17.18,10.67 L 17.15,10.60 L 15.21,9.63 Z" fill="#977b97" stroke="none" /><path d="M 7.09,23.05 L 7.09,24.30 L 8.13,24.84 L 8.13,25.99 L 8.09,26.02 L 7.16,25.56 L 7.09,25.56 L 7.09,26.81 L 8.13,27.31 L 8.13,26.13 L 8.20,26.09 L 9.06,26.52 L 9.13,26.60 L 9.13,27.81 L 10.09,28.31 L 10.17,28.31 L 10.17,27.06 L 9.20,26.60 L 9.13,26.52 L 9.13,25.31 L 8.13,24.81 L 8.13,23.55 Z" fill="#998999" stroke="none" /><path d="M 4.04,21.55 L 4.04,22.73 L 4.01,22.77 L 3.01,22.26 L 3.01,23.45 L 2.97,23.48 L 2.08,23.02 L 2.00,23.02 L 2.00,24.27 L 2.94,24.73 L 3.01,24.73 L 3.01,23.55 L 3.04,23.52 L 3.97,23.98 L 4.04,24.05 L 4.04,25.27 L 5.05,25.77 L 5.05,24.52 L 4.12,24.05 L 4.04,23.98 L 4.04,22.84 L 4.08,22.80 L 4.98,23.27 L 5.05,23.27 L 5.05,22.01 L 4.12,21.55 Z" fill="#998999" stroke="none" /><path d="M 12.13,20.58 L 11.24,20.12 L 11.17,20.12 L 11.17,21.30 L 11.13,21.33 L 10.24,20.87 L 10.17,20.87 L 10.17,22.05 L 10.13,22.09 L 9.13,21.58 L 9.13,22.84 L 10.17,23.34 L 10.17,22.16 L 10.20,22.12 L 11.10,22.59 L 11.17,22.59 L 11.17,21.40 L 11.20,21.37 L 12.13,21.83 Z" fill="#998999" stroke="none" /><path d="M 9.13,16.61 L 9.13,19.08 L 10.09,19.58 L 10.17,19.58 L 10.17,17.11 L 9.20,16.61 Z" fill="#998999" stroke="none" /><path d="M 4.04,16.54 L 4.04,17.79 L 4.98,18.26 L 5.05,18.33 L 5.05,19.54 L 5.08,19.58 L 7.02,20.55 L 7.09,20.55 L 7.09,19.36 L 7.12,19.33 L 8.13,19.83 L 8.13,18.58 L 8.09,18.54 L 7.16,18.08 L 7.09,18.08 L 7.09,19.26 L 7.05,19.29 L 5.12,18.33 L 5.05,18.26 L 5.05,17.04 Z" fill="#998999" stroke="none" /><path d="M 0.00,14.53 L 0.00,15.79 L 0.89,16.21 L 0.97,16.29 L 0.97,17.50 L 2.00,18.04 L 2.00,19.26 L 3.01,19.76 L 3.01,18.51 L 2.00,18.00 L 2.00,16.75 L 1.04,16.29 L 0.97,16.21 L 0.97,15.00 L 0.07,14.53 Z" fill="#998999" stroke="none" /><path d="M 2.00,13.03 L 2.00,15.53 L 2.94,16.00 L 3.01,16.00 L 3.01,13.53 Z" fill="#998999" stroke="none" /><path d="M 4.04,12.81 L 4.04,14.07 L 4.98,14.53 L 5.05,14.53 L 5.05,13.35 L 5.08,13.32 L 7.02,14.28 L 7.09,14.35 L 7.09,15.57 L 8.05,16.07 L 8.13,16.07 L 8.13,14.82 L 7.16,14.35 L 7.09,14.28 L 7.09,13.10 L 5.08,12.10 L 5.05,12.10 L 5.05,13.24 L 5.01,13.28 L 4.12,12.81 Z" fill="#998999" stroke="none" /><path d="M 20.30,7.09 L 20.30,7.12 L 21.23,7.59 L 21.37,7.59 L 22.30,7.12 L 22.26,7.05 L 21.33,6.59 L 21.26,6.59 Z" fill="#9f779f" stroke="none" /><path d="M 12.13,7.09 L 12.13,7.12 L 13.14,7.62 L 14.17,7.12 L 14.17,7.09 L 13.17,6.59 Z" fill="#9f779f" stroke="none" /><path d="M 8.05,5.05 L 8.05,5.08 L 9.06,5.58 L 10.06,5.08 L 10.13,5.08 L 12.10,6.09 L 12.17,6.09 L 13.14,5.58 L 14.14,6.09 L 14.21,6.09 L 15.18,5.58 L 16.18,6.09 L 16.25,6.09 L 17.22,5.58 L 17.22,5.55 L 16.29,5.08 L 16.14,5.08 L 15.25,5.55 L 15.14,5.55 L 13.17,4.55 L 12.17,5.05 L 12.10,5.05 L 11.13,4.55 L 10.13,5.05 L 10.06,5.05 L 9.09,4.55 Z" fill="#9f779f" stroke="none" /><path d="M 11.13,3.51 L 11.17,3.58 L 12.10,4.04 L 12.17,4.04 L 13.14,3.54 L 13.14,3.51 L 12.21,3.04 L 12.06,3.04 Z" fill="#9f779f" stroke="none" /><path d="M 5.05,24.52 L 5.05,26.99 L 7.09,27.99 L 7.09,25.52 Z" fill="#a19ca3" stroke="none" /><path d="M 8.13,22.34 L 8.13,24.84 L 9.13,25.34 L 9.13,26.56 L 9.16,26.60 L 11.10,27.56 L 11.17,27.56 L 11.17,23.84 L 8.20,22.34 Z" fill="#a19ca3" stroke="none" /><path d="M 0.97,18.76 L 0.97,22.48 L 2.94,23.48 L 3.01,23.48 L 3.01,22.34 L 3.04,22.30 L 3.97,22.77 L 4.04,22.77 L 4.04,20.26 L 1.04,18.76 Z" fill="#a19ca3" stroke="none" /><path d="M 10.17,17.11 L 10.17,20.87 L 11.10,21.33 L 11.17,21.33 L 11.17,20.15 L 11.20,20.12 L 12.13,20.58 L 12.13,19.33 L 11.17,18.83 L 11.17,17.61 Z" fill="#a19ca3" stroke="none" /><path d="M 5.05,13.32 L 5.05,14.50 L 5.01,14.53 L 4.12,14.07 L 4.04,14.07 L 4.04,16.54 L 4.98,17.00 L 5.05,17.07 L 5.05,18.29 L 5.08,18.33 L 7.02,19.29 L 7.09,19.29 L 7.09,18.11 L 7.12,18.08 L 8.13,18.58 L 8.13,16.07 L 7.16,15.61 L 7.09,15.53 L 7.09,14.32 L 7.05,14.28 L 5.12,13.32 Z" fill="#a19ca3" stroke="none" /><path d="M 0.97,12.53 L 0.97,13.67 L 0.93,13.71 L 0.07,13.28 L 0.00,13.28 L 0.00,14.53 L 0.89,14.96 L 0.97,15.03 L 0.97,16.25 L 1.93,16.75 L 2.00,16.75 L 2.00,13.03 L 1.04,12.53 Z" fill="#a19ca3" stroke="none" /><path d="M 14.21,9.09 L 14.21,9.16 L 16.14,10.13 L 16.29,10.13 L 17.22,9.66 L 17.22,9.63 L 15.21,8.63 L 15.14,8.63 Z" fill="#a988a9" stroke="none" /><path d="M 6.09,8.09 L 6.09,8.13 L 7.02,8.59 L 7.16,8.59 L 8.09,8.13 L 9.06,8.63 L 9.13,8.63 L 10.09,8.13 L 10.09,8.09 L 9.16,7.62 L 9.02,7.62 L 8.13,8.09 L 8.02,8.09 L 7.12,7.62 L 6.98,7.62 Z" fill="#a988a9" stroke="none" /><path d="M 19.29,6.55 L 19.29,6.62 L 20.22,7.09 L 20.33,7.09 L 21.26,6.62 L 21.26,6.55 L 20.33,6.09 L 20.22,6.09 Z" fill="#a988a9" stroke="none" /><path d="M 13.21,5.58 L 13.10,5.58 L 11.13,6.59 L 11.13,6.62 L 12.06,7.09 L 12.03,7.16 L 11.13,7.59 L 11.13,7.62 L 12.03,8.05 L 12.10,8.13 L 11.17,8.59 L 11.17,8.66 L 12.10,9.13 L 12.21,9.13 L 13.14,8.66 L 13.14,8.59 L 12.21,8.13 L 12.28,8.05 L 13.10,7.66 L 13.14,7.59 L 12.24,7.16 L 12.21,7.09 L 14.14,6.12 L 14.14,6.05 Z" fill="#a988a9" stroke="none" /><path d="M 4.01,6.05 L 4.04,6.12 L 4.98,6.59 L 5.05,6.59 L 6.01,6.09 L 6.01,6.05 L 5.08,5.58 L 4.94,5.58 Z" fill="#a988a9" stroke="none" /><path d="M 22.34,5.05 L 22.34,5.08 L 23.27,5.55 L 23.41,5.55 L 24.30,5.08 L 24.30,5.05 L 23.37,4.58 L 23.23,4.58 Z" fill="#a988a9" stroke="none" /><path d="M 14.17,5.05 L 14.17,5.08 L 15.18,5.58 L 16.18,5.08 L 16.25,5.08 L 17.22,5.58 L 18.22,5.08 L 18.29,5.08 L 19.26,5.58 L 20.30,5.08 L 20.30,5.05 L 19.29,4.55 L 18.29,5.05 L 18.22,5.05 L 17.25,4.55 L 16.25,5.05 L 16.18,5.05 L 15.21,4.55 Z" fill="#a988a9" stroke="none" /><path d="M 11.13,4.55 L 11.13,4.58 L 12.06,5.05 L 12.21,5.05 L 13.14,4.58 L 13.10,4.51 L 12.17,4.04 L 12.10,4.04 Z" fill="#a988a9" stroke="none" /><path d="M 18.15,2.04 L 17.29,2.47 L 17.25,2.54 L 18.15,2.97 L 18.18,3.04 L 17.25,3.51 L 17.25,3.54 L 18.22,4.04 L 18.29,4.04 L 19.26,3.54 L 19.26,3.51 L 18.33,3.04 L 18.36,2.97 L 19.19,2.58 L 19.22,2.51 L 18.29,2.04 Z" fill="#a988a9" stroke="none" /><path d="M 13.17,1.47 L 13.21,1.54 L 14.14,2.00 L 14.21,2.00 L 15.18,1.50 L 15.18,1.47 L 14.25,1.00 L 14.10,1.00 Z" fill="#a988a9" stroke="none" /><path d="M 5.08,7.55 L 5.08,7.62 L 6.01,8.09 L 6.12,8.09 L 7.05,7.62 L 7.05,7.59 L 6.05,7.09 Z" fill="#d3b9d3" stroke="none" /><path d="M 10.13,6.05 L 10.13,6.12 L 11.06,6.59 L 10.99,6.66 L 10.13,7.09 L 10.13,7.12 L 11.06,7.59 L 11.02,7.66 L 10.13,8.09 L 10.17,8.16 L 11.10,8.63 L 11.17,8.63 L 12.17,8.13 L 14.14,9.13 L 14.21,9.13 L 15.14,8.66 L 15.14,8.59 L 13.21,7.62 L 13.10,7.62 L 12.21,8.09 L 12.10,8.09 L 11.24,7.66 L 11.20,7.62 L 11.24,7.55 L 12.13,7.12 L 12.13,7.09 L 11.24,6.66 L 11.17,6.59 L 12.10,6.12 L 12.10,6.05 L 11.17,5.58 L 11.06,5.58 Z" fill="#d3b9d3" stroke="none" /><path d="M 13.17,4.55 L 13.17,4.58 L 14.10,5.05 L 14.25,5.05 L 15.14,4.58 L 15.25,4.58 L 16.14,5.05 L 16.29,5.05 L 17.18,4.58 L 17.29,4.58 L 18.18,5.05 L 18.15,5.12 L 17.25,5.55 L 17.29,5.62 L 19.22,6.59 L 19.29,6.59 L 20.26,6.09 L 20.26,6.05 L 18.33,5.08 L 18.36,5.01 L 19.26,4.58 L 19.26,4.55 L 18.29,4.04 L 18.22,4.04 L 17.25,4.55 L 16.25,4.04 L 16.18,4.04 L 15.21,4.55 L 14.21,4.04 L 14.14,4.04 Z" fill="#d3b9d3" stroke="none" /><path d="M 12.10,4.01 L 11.17,3.54 L 11.06,3.54 L 9.13,4.51 L 9.09,4.58 L 10.02,5.05 L 10.17,5.05 L 12.10,4.08 Z" fill="#d3b9d3" stroke="none" /><path d="M 7.09,3.54 L 6.05,4.04 L 6.05,4.08 L 6.98,4.55 L 6.91,4.62 L 6.09,5.01 L 6.05,5.08 L 6.98,5.55 L 7.12,5.55 L 8.05,5.08 L 8.05,5.05 L 7.16,4.62 L 7.09,4.55 L 8.02,4.08 L 8.02,4.01 Z" fill="#d3b9d3" stroke="none" /><path d="M 13.14,2.51 L 12.17,2.00 L 12.10,2.00 L 11.13,2.51 L 10.20,2.04 L 10.06,2.04 L 9.13,2.51 L 9.13,2.54 L 10.02,3.01 L 10.17,3.01 L 11.06,2.54 L 11.17,2.54 L 12.06,3.01 L 12.21,3.01 L 13.14,2.54 Z" fill="#d3b9d3" stroke="none" /><path d="M 16.25,1.97 L 16.25,2.04 L 17.18,2.51 L 17.29,2.51 L 18.22,2.04 L 18.22,2.00 L 17.22,1.50 Z" fill="#d3b9d3" stroke="none" /><path d="M 12.17,9.13 L 12.17,9.16 L 14.10,10.13 L 14.25,10.13 L 15.18,9.66 L 15.14,9.59 L 13.21,8.63 L 13.14,8.63 Z" fill="#ebd3eb" stroke="none" /><path d="M 21.30,7.59 L 20.26,7.09 L 19.26,7.59 L 19.26,7.62 L 20.15,8.05 L 20.22,8.13 L 20.19,8.16 L 18.26,9.13 L 17.25,8.63 L 17.18,8.63 L 16.25,9.09 L 16.21,9.16 L 17.15,9.63 L 17.29,9.63 L 18.18,9.16 L 18.29,9.16 L 19.19,9.63 L 19.26,9.63 L 21.26,8.63 L 21.26,8.59 L 20.33,8.13 L 20.40,8.05 L 21.30,7.62 Z" fill="#ebd3eb" stroke="none" /><path d="M 10.09,7.09 L 9.09,7.59 L 9.09,7.62 L 9.99,8.05 L 10.06,8.13 L 9.13,8.59 L 9.13,8.66 L 10.06,9.13 L 9.99,9.20 L 9.16,9.59 L 9.16,9.66 L 10.09,10.13 L 10.20,10.13 L 11.13,9.66 L 11.13,9.63 L 10.24,9.20 L 10.17,9.13 L 11.10,8.66 L 11.10,8.59 L 10.17,8.13 L 10.24,8.05 L 11.13,7.62 L 11.13,7.59 Z" fill="#ebd3eb" stroke="none" /><path d="M 16.25,6.05 L 16.25,6.12 L 17.18,6.59 L 17.29,6.59 L 18.22,6.12 L 18.22,6.05 L 17.29,5.58 L 17.18,5.58 Z" fill="#ebd3eb" stroke="none" /><path d="M 16.18,6.05 L 15.25,5.58 L 15.14,5.58 L 13.21,6.55 L 13.17,6.62 L 14.07,7.05 L 14.10,7.12 L 13.17,7.59 L 13.17,7.62 L 14.14,8.13 L 14.21,8.13 L 15.14,7.66 L 15.18,7.59 L 14.28,7.16 L 14.25,7.09 L 16.18,6.12 Z" fill="#ebd3eb" stroke="none" /><path d="M 19.29,5.55 L 19.33,5.62 L 21.26,6.59 L 21.33,6.59 L 22.30,6.09 L 22.30,6.05 L 20.37,5.08 L 20.22,5.08 Z" fill="#ebd3eb" stroke="none" /><path d="M 5.01,5.55 L 5.01,5.58 L 6.01,6.09 L 7.02,5.58 L 7.09,5.58 L 8.05,6.09 L 9.06,5.58 L 10.06,6.09 L 10.13,6.09 L 11.10,5.58 L 11.10,5.55 L 10.17,5.08 L 10.02,5.08 L 9.13,5.55 L 9.02,5.55 L 8.16,5.12 L 8.13,5.08 L 8.16,5.01 L 9.06,4.58 L 9.06,4.55 L 8.09,4.04 L 8.02,4.04 L 7.05,4.55 L 7.05,4.58 L 7.98,5.05 L 7.95,5.12 L 7.09,5.55 L 7.02,5.55 L 6.05,5.05 Z" fill="#ebd3eb" stroke="none" /><path d="M 20.33,4.01 L 20.33,4.08 L 21.26,4.55 L 21.37,4.55 L 22.30,4.08 L 22.30,4.04 L 21.30,3.54 Z" fill="#ebd3eb" stroke="none" /><path d="M 18.29,4.01 L 18.29,4.08 L 19.22,4.55 L 19.33,4.55 L 20.26,4.08 L 20.26,4.01 L 19.33,3.54 L 19.22,3.54 Z" fill="#ebd3eb" stroke="none" /><path d="M 16.25,4.01 L 16.25,4.08 L 17.18,4.55 L 17.29,4.55 L 18.22,4.08 L 18.22,4.01 L 17.29,3.54 L 17.18,3.54 Z" fill="#ebd3eb" stroke="none" /><path d="M 14.14,1.97 L 13.21,1.50 L 13.10,1.50 L 12.17,1.97 L 12.17,2.04 L 13.06,2.47 L 13.10,2.51 L 13.03,2.58 L 12.17,3.01 L 12.10,3.01 L 11.10,2.51 L 10.09,3.01 L 10.09,3.04 L 11.10,3.54 L 12.10,3.04 L 12.17,3.04 L 13.03,3.47 L 13.10,3.54 L 12.17,4.01 L 12.17,4.08 L 13.10,4.55 L 13.21,4.55 L 14.14,4.08 L 14.14,4.01 L 13.21,3.54 L 13.28,3.47 L 14.17,3.04 L 14.17,3.01 L 13.28,2.58 L 13.21,2.51 L 14.14,2.04 Z" fill="#ebd3eb" stroke="none" /><path d="M 10.13,9.13 L 10.13,9.16 L 11.06,9.63 L 11.02,9.70 L 10.20,10.09 L 10.17,10.17 L 11.10,10.63 L 11.20,10.63 L 12.10,10.17 L 12.17,10.17 L 13.17,10.67 L 14.17,10.17 L 14.17,10.13 L 11.17,8.63 L 11.10,8.63 Z" fill="#f8f0fb" stroke="none" /><path d="M 14.17,7.09 L 14.17,7.12 L 15.07,7.55 L 15.14,7.62 L 14.21,8.09 L 14.21,8.16 L 16.14,9.13 L 16.25,9.13 L 17.22,8.63 L 18.18,9.13 L 18.29,9.13 L 20.26,8.13 L 20.26,8.09 L 19.33,7.62 L 19.36,7.55 L 20.26,7.12 L 20.26,7.09 L 18.29,6.09 L 18.22,6.09 L 17.25,6.59 L 16.25,6.09 L 16.18,6.09 Z" fill="#f8f0fb" stroke="none" /><path d="M 5.05,6.55 L 5.05,6.62 L 8.05,8.13 L 11.10,6.62 L 11.06,6.55 L 9.13,5.58 L 9.02,5.58 L 8.13,6.05 L 8.02,6.05 L 7.12,5.58 L 6.98,5.58 Z" fill="#f8f0fb" stroke="none" /><path d="M 19.29,4.55 L 19.29,4.58 L 22.30,6.09 L 23.34,5.58 L 23.34,5.55 L 22.44,5.12 L 22.37,5.05 L 23.30,4.58 L 23.30,4.55 L 22.37,4.08 L 22.23,4.08 L 21.30,4.55 L 20.33,4.04 L 20.26,4.04 Z" fill="#f8f0fb" stroke="none" /><path d="M 7.09,3.58 L 9.02,4.55 L 9.13,4.55 L 11.06,3.58 L 11.10,3.51 L 9.16,2.54 L 9.06,2.54 L 7.12,3.51 Z" fill="#f8f0fb" stroke="none" /><path d="M 13.17,2.51 L 13.17,2.54 L 14.10,3.01 L 14.07,3.08 L 13.17,3.51 L 13.17,3.54 L 15.14,4.55 L 15.25,4.55 L 18.26,3.04 L 18.26,3.01 L 15.25,1.50 L 15.14,1.50 Z" fill="#f8f0fb" stroke="none" /></svg>