<svg height="32" width="32" viewBox="0 0 32 32"><defs /><path d="M 28.79,17.10 L 27.88,17.54 L 27.88,24.13 L 27.82,24.20 L 22.49,26.85 L 22.49,27.95 L 28.79,24.80 Z" fill="#4c271a" stroke="none" /><path d="M 28.79,14.90 L 27.88,15.33 L 27.88,16.44 L 27.95,16.44 L 28.79,16.00 Z" fill="#4c271a" stroke="none" /><path d="M 19.78,28.22 L 18.88,28.65 L 18.88,29.76 L 19.78,29.32 Z" fill="#522a1e" stroke="none" /><path d="M 22.49,26.88 L 22.43,26.88 L 20.69,27.75 L 20.69,28.85 L 22.49,27.95 Z" fill="#522a1e" stroke="none" /><path d="M 22.49,19.15 L 21.59,19.58 L 21.59,20.69 L 21.66,20.69 L 22.49,20.25 Z" fill="#522a1e" stroke="none" /><path d="M 28.79,16.00 L 27.88,16.44 L 27.88,17.54 L 27.95,17.54 L 28.79,17.10 Z" fill="#522a1e" stroke="none" /><path d="M 25.17,14.49 L 24.30,14.93 L 24.30,16.03 L 25.17,15.60 Z" fill="#522a1e" stroke="none" /><path d="M 28.79,12.69 L 27.88,13.12 L 27.88,15.33 L 27.95,15.33 L 28.79,14.90 Z" fill="#522a1e" stroke="none" /><path d="M 28.79,10.51 L 28.72,10.51 L 27.88,10.95 L 27.88,12.05 L 28.79,11.62 Z" fill="#522a1e" stroke="none" /><path d="M 16.20,28.92 L 16.13,28.92 L 15.30,29.36 L 15.30,30.46 L 16.20,30.03 Z" fill="#593022" stroke="none" /><path d="M 18.88,28.69 L 18.81,28.69 L 17.10,29.56 L 17.10,30.63 L 17.17,30.63 L 18.88,29.76 Z" fill="#593022" stroke="none" /><path d="M 20.69,27.78 L 20.62,27.78 L 19.78,28.22 L 19.78,29.29 L 19.85,29.29 L 20.69,28.85 Z" fill="#593022" stroke="none" /><path d="M 18.88,25.37 L 18.81,25.37 L 17.97,25.81 L 17.97,26.91 L 18.88,26.48 Z" fill="#593022" stroke="none" /><path d="M 24.30,14.93 L 23.40,15.36 L 23.40,16.47 L 23.46,16.47 L 24.27,16.07 L 24.30,16.10 L 24.30,17.10 L 24.23,17.17 L 23.40,17.57 L 23.40,18.68 L 23.36,18.71 L 22.53,19.11 L 22.49,19.08 L 22.49,18.04 L 21.59,18.48 L 21.59,19.58 L 21.66,19.58 L 22.46,19.18 L 22.49,19.21 L 22.49,20.22 L 22.43,20.28 L 20.69,21.15 L 20.69,22.23 L 20.62,22.29 L 19.78,22.69 L 19.78,23.80 L 20.69,23.36 L 20.69,22.29 L 20.75,22.23 L 22.49,21.36 L 22.49,20.28 L 22.56,20.22 L 23.40,19.82 L 23.40,18.71 L 24.30,18.24 L 24.30,17.17 L 24.37,17.10 L 25.17,16.70 L 25.17,15.60 L 24.33,16.00 L 24.30,15.97 Z" fill="#593022" stroke="none" /><path d="M 28.79,11.62 L 28.72,11.62 L 27.88,12.05 L 27.88,13.12 L 27.95,13.12 L 28.79,12.69 Z" fill="#593022" stroke="none" /><path d="M 26.98,11.41 L 26.91,11.41 L 26.08,11.85 L 26.08,12.95 L 26.98,12.52 Z" fill="#593022" stroke="none" /><path d="M 28.79,9.41 L 28.72,9.41 L 27.88,9.84 L 27.88,10.95 L 28.79,10.51 Z" fill="#593022" stroke="none" /><path d="M 17.10,29.56 L 15.30,30.46 L 15.30,31.53 L 15.36,31.53 L 17.10,30.66 Z" fill="#5e3426" stroke="none" /><path d="M 21.59,21.82 L 21.52,21.82 L 20.69,22.26 L 20.69,23.33 L 20.75,23.33 L 21.59,22.90 Z" fill="#5e3426" stroke="none" /><path d="M 22.49,23.56 L 22.43,23.56 L 21.59,24.00 L 21.59,25.07 L 21.52,25.14 L 20.69,25.54 L 20.69,26.64 L 18.91,27.55 L 18.88,27.51 L 18.88,26.48 L 18.81,26.48 L 18.04,26.88 L 17.97,26.85 L 17.97,25.84 L 18.04,25.77 L 19.78,24.90 L 19.78,21.62 L 19.72,21.62 L 18.91,22.03 L 18.88,22.06 L 18.88,24.23 L 17.97,24.70 L 17.97,25.77 L 17.91,25.84 L 16.20,26.68 L 16.20,27.78 L 15.30,28.25 L 15.30,29.36 L 17.07,28.49 L 17.10,28.45 L 17.10,27.38 L 17.17,27.31 L 17.91,26.95 L 17.97,26.98 L 17.97,28.02 L 18.85,27.58 L 18.88,27.62 L 18.88,28.65 L 18.95,28.65 L 20.69,27.78 L 20.69,26.68 L 21.59,26.21 L 21.59,25.14 L 21.66,25.07 L 22.49,24.67 Z" fill="#5e3426" stroke="none" /><path d="M 27.88,13.15 L 27.82,13.15 L 26.98,13.59 L 26.98,14.66 L 26.91,14.73 L 26.08,15.13 L 26.08,17.34 L 26.14,17.34 L 26.98,16.90 L 26.98,14.73 L 27.05,14.66 L 27.88,14.26 Z" fill="#5e3426" stroke="none" /><path d="M 28.79,8.30 L 28.72,8.30 L 26.98,9.17 L 26.98,10.28 L 26.08,10.74 L 26.08,11.85 L 26.95,11.41 L 26.98,11.45 L 26.98,12.49 L 27.05,12.49 L 27.88,12.05 L 27.88,10.95 L 27.01,11.38 L 26.98,11.35 L 26.98,10.31 L 28.79,9.41 Z" fill="#5e3426" stroke="none" /><path d="M 19.78,26.01 L 18.88,26.44 L 18.88,27.55 L 18.95,27.55 L 19.78,27.11 Z" fill="#673928" stroke="none" /><path d="M 17.10,25.14 L 16.20,25.57 L 16.20,26.68 L 16.27,26.68 L 17.10,26.24 Z" fill="#673928" stroke="none" /><path d="M 22.49,22.46 L 22.43,22.46 L 20.69,23.33 L 20.69,24.44 L 20.75,24.44 L 22.49,23.56 Z" fill="#673928" stroke="none" /><path d="M 18.88,22.06 L 17.97,22.49 L 17.97,23.60 L 18.04,23.60 L 18.88,23.16 Z" fill="#673928" stroke="none" /><path d="M 27.88,21.96 L 26.98,22.39 L 26.98,23.50 L 26.08,23.97 L 26.08,25.07 L 26.98,24.64 L 26.98,23.53 L 27.88,23.06 Z" fill="#673928" stroke="none" /><path d="M 17.10,16.33 L 15.30,17.24 L 15.30,18.34 L 17.10,17.44 Z" fill="#673928" stroke="none" /><path d="M 18.88,13.26 L 18.81,13.26 L 17.97,13.69 L 17.97,14.79 L 18.88,14.36 Z" fill="#673928" stroke="none" /><path d="M 27.88,12.05 L 26.98,12.49 L 26.98,13.56 L 26.91,13.62 L 26.08,14.03 L 26.08,15.13 L 25.17,15.60 L 25.17,16.67 L 25.10,16.74 L 24.30,17.14 L 24.30,18.21 L 24.23,18.28 L 23.40,18.68 L 23.40,20.89 L 23.46,20.89 L 25.17,20.02 L 25.17,18.91 L 24.33,19.31 L 24.30,19.28 L 24.30,18.28 L 24.37,18.21 L 25.17,17.81 L 25.17,16.74 L 25.24,16.67 L 26.08,16.27 L 26.08,15.16 L 26.98,14.69 L 26.98,13.62 L 27.05,13.56 L 27.88,13.15 Z" fill="#673928" stroke="none" /><path d="M 26.98,9.21 L 26.91,9.21 L 26.08,9.64 L 26.08,10.71 L 26.01,10.78 L 24.30,11.62 L 24.30,12.72 L 23.40,13.19 L 23.40,14.26 L 23.33,14.33 L 22.49,14.73 L 22.49,15.80 L 22.43,15.87 L 21.59,16.27 L 21.59,17.37 L 20.69,17.84 L 20.69,20.05 L 21.59,19.62 L 21.59,17.41 L 22.49,16.94 L 22.49,15.87 L 22.56,15.80 L 24.30,14.93 L 24.30,13.86 L 25.17,13.42 L 25.17,12.32 L 26.08,11.85 L 26.08,10.78 L 26.14,10.71 L 26.98,10.31 Z" fill="#673928" stroke="none" /><path d="M 15.30,30.46 L 14.39,30.90 L 14.39,32.00 L 15.30,31.56 Z" fill="#6a3d2e" stroke="none" /><path d="M 27.88,20.85 L 26.98,21.29 L 26.98,22.39 L 26.08,22.86 L 26.08,23.93 L 26.01,24.00 L 25.17,24.40 L 25.17,25.51 L 25.24,25.51 L 26.08,25.07 L 26.08,24.00 L 26.14,23.93 L 26.98,23.53 L 26.98,22.43 L 27.88,21.96 Z" fill="#6a3d2e" stroke="none" /><path d="M 27.88,15.36 L 27.82,15.36 L 26.98,15.80 L 26.98,17.97 L 26.91,18.04 L 26.08,18.44 L 26.08,19.55 L 26.04,19.58 L 24.30,20.45 L 24.30,21.52 L 23.40,21.99 L 23.40,23.06 L 23.33,23.13 L 22.49,23.53 L 22.49,24.64 L 21.59,25.10 L 21.59,26.18 L 21.52,26.24 L 20.69,26.64 L 20.69,27.75 L 20.75,27.75 L 21.59,27.31 L 21.59,26.24 L 21.66,26.18 L 22.49,25.77 L 22.49,24.67 L 24.30,23.77 L 24.30,22.66 L 25.17,22.23 L 25.17,21.12 L 26.08,20.65 L 26.08,19.58 L 26.98,19.11 L 26.98,18.04 L 27.05,17.97 L 27.88,17.57 Z" fill="#6a3d2e" stroke="none" /><path d="M 17.10,14.13 L 15.30,15.03 L 15.30,17.24 L 16.20,16.80 L 16.20,15.70 L 17.10,15.23 Z" fill="#6a3d2e" stroke="none" /><path d="M 22.49,13.66 L 22.43,13.66 L 21.59,14.09 L 21.59,16.27 L 20.69,16.74 L 20.69,17.81 L 20.62,17.87 L 18.88,18.74 L 18.88,19.82 L 18.81,19.88 L 17.97,20.28 L 17.97,21.39 L 17.10,21.82 L 17.10,22.93 L 16.20,23.40 L 16.20,24.47 L 16.13,24.54 L 15.30,24.94 L 15.30,27.15 L 16.20,26.71 L 16.20,24.54 L 16.27,24.47 L 17.10,24.07 L 17.10,22.96 L 18.88,22.06 L 18.88,20.99 L 18.95,20.92 L 19.78,20.52 L 19.78,19.41 L 20.69,18.95 L 20.69,17.87 L 20.75,17.81 L 21.59,17.41 L 21.59,16.30 L 22.49,15.83 Z" fill="#6a3d2e" stroke="none" /><path d="M 19.78,12.79 L 18.88,13.22 L 18.88,15.43 L 17.97,15.90 L 17.97,16.97 L 17.91,17.04 L 16.20,17.87 L 16.20,18.95 L 16.13,19.01 L 15.30,19.41 L 15.30,21.62 L 15.36,21.62 L 16.20,21.19 L 16.20,20.12 L 16.27,20.05 L 17.10,19.65 L 17.10,18.54 L 17.97,18.11 L 17.97,17.04 L 18.04,16.97 L 18.88,16.57 L 18.88,15.46 L 19.78,15.00 Z" fill="#6a3d2e" stroke="none" /><path d="M 28.79,7.20 L 28.72,7.20 L 27.88,7.63 L 27.88,8.74 L 28.79,8.30 Z" fill="#6a3d2e" stroke="none" /><path d="M 25.17,23.33 L 25.10,23.33 L 23.40,24.20 L 23.40,25.31 L 24.27,24.87 L 24.30,24.90 L 24.30,25.94 L 24.37,25.94 L 25.17,25.54 Z" fill="#714130" stroke="none" /><path d="M 16.20,21.19 L 14.39,22.09 L 14.39,23.20 L 16.13,22.33 L 16.20,22.36 L 16.20,23.36 L 16.13,23.43 L 14.39,24.30 L 14.39,30.90 L 14.46,30.90 L 15.30,30.46 L 15.30,24.97 L 16.20,24.50 L 16.20,23.43 L 16.27,23.36 L 17.10,22.96 L 17.10,21.86 L 17.04,21.86 L 16.23,22.26 L 16.20,22.23 Z" fill="#714130" stroke="none" /><path d="M 27.88,17.57 L 27.82,17.57 L 26.98,18.01 L 26.98,19.08 L 26.91,19.15 L 26.08,19.55 L 26.08,21.76 L 27.88,20.85 L 27.88,19.75 L 27.01,20.18 L 26.98,20.15 L 26.98,19.15 L 27.05,19.08 L 27.88,18.68 Z" fill="#714130" stroke="none" /><path d="M 22.49,10.34 L 22.43,10.34 L 21.59,10.78 L 21.59,11.85 L 21.52,11.92 L 20.69,12.32 L 20.69,13.42 L 19.78,13.89 L 19.78,14.96 L 19.72,15.03 L 18.88,15.43 L 18.88,16.54 L 17.97,17.00 L 17.97,19.18 L 18.04,19.18 L 19.78,18.31 L 19.78,17.21 L 19.72,17.21 L 18.95,17.61 L 18.88,17.57 L 18.88,16.57 L 19.78,16.10 L 19.78,15.03 L 19.85,14.96 L 20.65,14.56 L 20.69,14.59 L 20.69,15.63 L 20.75,15.63 L 21.59,15.20 L 21.59,14.09 L 20.72,14.53 L 20.69,14.49 L 20.69,13.46 L 21.59,12.99 L 21.59,11.92 L 21.66,11.85 L 22.49,11.45 Z" fill="#714130" stroke="none" /><path d="M 27.88,7.63 L 23.43,9.84 L 23.40,9.87 L 23.40,12.08 L 25.17,11.21 L 25.17,10.11 L 25.21,10.08 L 27.85,8.77 L 27.88,8.74 Z" fill="#714130" stroke="none" /><path d="M 13.49,23.87 L 13.49,30.39 L 13.46,30.43 L 8.17,27.78 L 8.10,27.78 L 8.10,28.85 L 14.39,32.00 L 14.39,24.30 L 13.56,23.87 Z" fill="#8e4830" stroke="none" /><path d="M 13.49,21.66 L 13.49,22.76 L 14.39,23.20 L 14.39,22.09 L 13.56,21.66 Z" fill="#8e4830" stroke="none" /><path d="M 7.23,10.74 L 7.23,10.81 L 8.03,11.21 L 8.17,11.21 L 8.97,10.81 L 8.94,10.74 L 8.13,10.34 L 8.03,10.34 Z" fill="#8e4830" stroke="none" /><path d="M 7.20,9.91 L 7.20,9.87 L 1.84,7.20 L 1.91,7.13 L 7.16,4.52 L 7.16,4.45 L 6.36,4.05 L 6.26,4.05 L 0.03,7.16 L 0.07,7.23 L 6.29,10.34 Z" fill="#8e4830" stroke="none" /><path d="M 6.29,26.88 L 6.29,27.95 L 8.10,28.85 L 8.10,27.75 L 6.36,26.88 Z" fill="#984f37" stroke="none" /><path d="M 4.49,25.97 L 4.49,27.05 L 5.32,27.48 L 5.39,27.48 L 5.39,26.41 L 4.55,25.97 Z" fill="#984f37" stroke="none" /><path d="M 13.49,22.76 L 13.49,23.87 L 14.39,24.30 L 14.39,23.20 L 13.56,22.76 Z" fill="#984f37" stroke="none" /><path d="M 7.20,19.62 L 7.20,20.72 L 8.10,21.15 L 8.10,20.05 L 7.26,19.62 Z" fill="#984f37" stroke="none" /><path d="M 13.49,19.45 L 13.49,21.66 L 14.39,22.09 L 14.39,19.88 L 13.56,19.45 Z" fill="#984f37" stroke="none" /><path d="M 9.91,17.64 L 9.91,18.74 L 10.74,19.18 L 10.81,19.18 L 10.81,18.08 Z" fill="#984f37" stroke="none" /><path d="M 13.49,17.24 L 13.49,18.34 L 14.33,18.78 L 14.39,18.78 L 14.39,17.67 Z" fill="#984f37" stroke="none" /><path d="M 10.81,12.55 L 10.85,12.62 L 11.65,13.02 L 11.75,13.02 L 12.55,12.62 L 12.55,12.55 L 11.75,12.15 L 11.62,12.15 Z" fill="#984f37" stroke="none" /><path d="M 8.10,11.21 L 8.10,11.25 L 9.84,12.12 L 9.97,12.12 L 10.78,11.72 L 10.74,11.65 L 9.00,10.78 Z" fill="#984f37" stroke="none" /><path d="M 6.33,10.31 L 6.36,10.38 L 7.16,10.78 L 7.23,10.78 L 8.07,10.34 L 8.07,10.31 L 7.26,9.91 L 7.13,9.91 Z" fill="#984f37" stroke="none" /><path d="M 12.62,9.87 L 12.62,9.91 L 13.49,10.34 L 14.39,9.91 L 14.39,9.87 L 13.52,9.44 L 13.46,9.44 Z" fill="#984f37" stroke="none" /><path d="M 12.62,7.16 L 12.65,7.23 L 13.46,7.63 L 13.52,7.63 L 14.39,7.20 L 14.39,7.16 L 13.52,6.73 Z" fill="#984f37" stroke="none" /><path d="M 8.97,3.58 L 8.13,3.15 L 8.07,3.15 L 6.33,4.02 L 6.33,4.05 L 7.16,4.49 L 7.23,4.49 L 8.97,3.62 Z" fill="#984f37" stroke="none" /><path d="M 9.00,2.68 L 9.00,2.71 L 9.87,3.15 L 10.78,2.71 L 10.74,2.64 L 9.94,2.24 L 9.87,2.24 Z" fill="#984f37" stroke="none" /><path d="M 15.30,22.76 L 15.23,22.76 L 14.39,23.20 L 14.39,24.30 L 15.30,23.87 Z" fill="#784539" stroke="none" /><path d="M 17.10,20.75 L 17.04,20.75 L 16.20,21.19 L 16.20,22.29 L 17.10,21.86 Z" fill="#784539" stroke="none" /><path d="M 23.40,9.87 L 22.49,10.31 L 22.49,11.41 L 21.66,11.85 L 21.59,11.82 L 21.59,10.78 L 21.56,10.78 L 14.39,14.36 L 14.39,22.09 L 15.30,21.66 L 15.30,15.06 L 15.36,15.00 L 21.52,11.92 L 21.59,11.95 L 21.59,12.95 L 21.52,13.02 L 20.69,13.42 L 20.69,14.53 L 20.75,14.53 L 21.56,14.13 L 21.59,14.09 L 21.59,13.02 L 21.66,12.95 L 22.49,12.55 L 22.49,11.45 L 23.40,10.98 Z" fill="#784539" stroke="none" /><path d="M 5.39,26.41 L 5.39,27.51 L 6.29,27.95 L 6.29,26.85 Z" fill="#a5593f" stroke="none" /><path d="M 2.71,25.07 L 2.71,26.18 L 4.49,27.05 L 4.49,25.94 Z" fill="#a5593f" stroke="none" /><path d="M 0.90,23.06 L 0.90,24.17 L 1.74,24.60 L 1.81,24.60 L 1.81,23.50 Z" fill="#a5593f" stroke="none" /><path d="M 3.62,22.23 L 3.62,23.33 L 4.42,23.73 L 4.49,23.73 L 4.49,22.63 L 3.68,22.23 Z" fill="#a5593f" stroke="none" /><path d="M 13.49,18.34 L 13.49,19.45 L 14.39,19.88 L 14.39,18.78 Z" fill="#a5593f" stroke="none" /><path d="M 9.91,17.64 L 9.07,17.21 L 9.00,17.21 L 9.00,18.31 L 9.84,18.71 L 9.91,18.78 L 9.91,19.78 L 9.87,19.82 L 9.07,19.41 L 9.00,19.41 L 9.00,20.45 L 8.97,20.49 L 8.17,20.08 L 8.10,20.02 L 8.10,18.95 L 7.26,18.51 L 7.20,18.51 L 7.20,19.62 L 8.03,20.02 L 8.10,20.08 L 8.10,21.09 L 8.03,21.12 L 6.29,20.25 L 6.29,21.29 L 6.26,21.32 L 5.46,20.92 L 5.39,20.92 L 5.39,21.99 L 6.23,22.43 L 6.29,22.43 L 6.29,21.42 L 6.36,21.39 L 8.10,22.26 L 8.10,21.22 L 8.17,21.19 L 8.94,21.59 L 9.00,21.59 L 9.00,20.55 L 9.04,20.52 L 9.91,20.95 L 9.91,19.92 L 9.94,19.88 L 10.74,20.28 L 10.81,20.28 L 10.81,19.18 L 9.97,18.78 L 9.91,18.71 Z" fill="#a5593f" stroke="none" /><path d="M 11.68,16.33 L 11.68,17.44 L 12.52,17.87 L 12.59,17.87 L 12.59,16.77 Z" fill="#a5593f" stroke="none" /><path d="M 13.49,16.13 L 13.49,17.24 L 14.33,17.67 L 14.39,17.67 L 14.39,16.57 Z" fill="#a5593f" stroke="none" /><path d="M 11.72,13.02 L 11.72,13.05 L 12.59,13.49 L 13.49,13.05 L 13.49,13.02 L 12.62,12.59 L 12.55,12.59 Z" fill="#a5593f" stroke="none" /><path d="M 9.91,12.12 L 9.91,12.15 L 10.78,12.59 L 11.68,12.15 L 11.68,12.12 L 10.81,11.68 Z" fill="#a5593f" stroke="none" /><path d="M 12.62,11.65 L 12.62,11.72 L 13.42,12.12 L 13.56,12.12 L 14.36,11.72 L 14.36,11.65 L 13.56,11.25 L 13.42,11.25 Z" fill="#a5593f" stroke="none" /><path d="M 13.52,9.41 L 13.52,9.47 L 14.33,9.87 L 14.46,9.87 L 15.26,9.47 L 15.26,9.41 L 14.46,9.00 L 14.33,9.00 Z" fill="#a5593f" stroke="none" /><path d="M 13.52,7.60 L 13.52,7.67 L 14.33,8.07 L 14.46,8.07 L 15.26,7.67 L 15.26,7.60 L 14.46,7.20 L 14.33,7.20 Z" fill="#a5593f" stroke="none" /><path d="M 13.56,4.95 L 13.42,4.95 L 12.62,5.36 L 12.62,5.42 L 13.39,5.79 L 13.42,5.82 L 13.39,5.89 L 11.72,6.73 L 11.72,6.76 L 12.49,7.13 L 12.55,7.20 L 11.72,7.63 L 11.72,7.67 L 12.52,8.07 L 12.49,8.13 L 11.72,8.50 L 11.72,8.57 L 12.52,8.97 L 12.49,9.04 L 11.72,9.41 L 11.72,9.44 L 12.55,9.87 L 12.65,9.87 L 13.46,9.47 L 13.46,9.41 L 12.65,9.00 L 12.69,8.94 L 13.46,8.57 L 13.46,8.50 L 12.65,8.10 L 12.69,8.03 L 13.46,7.67 L 13.46,7.60 L 12.65,7.20 L 12.72,7.13 L 14.36,6.33 L 14.36,6.26 L 13.56,5.86 L 13.59,5.79 L 14.36,5.42 L 14.36,5.36 Z" fill="#a5593f" stroke="none" /><path d="M 12.62,3.58 L 12.62,3.62 L 13.42,4.02 L 13.56,4.02 L 14.36,3.62 L 14.33,3.55 L 13.52,3.15 L 13.46,3.15 Z" fill="#a5593f" stroke="none" /><path d="M 8.13,3.11 L 8.13,3.18 L 8.94,3.58 L 9.04,3.58 L 9.87,3.15 L 9.87,3.11 L 9.07,2.71 L 8.94,2.71 Z" fill="#a5593f" stroke="none" /><path d="M 12.59,1.77 L 11.68,1.34 L 9.94,2.21 L 9.94,2.28 L 10.74,2.68 L 10.85,2.68 L 12.59,1.81 Z" fill="#a5593f" stroke="none" /><path d="M 13.52,1.31 L 13.52,1.37 L 14.33,1.77 L 14.46,1.77 L 15.26,1.37 L 15.26,1.31 L 14.46,0.90 L 14.33,0.90 Z" fill="#a5593f" stroke="none" /><path d="M 0.90,24.17 L 0.90,25.27 L 2.64,26.14 L 2.71,26.14 L 2.71,25.07 Z" fill="#b06146" stroke="none" /><path d="M 6.29,21.36 L 6.29,22.46 L 7.20,22.90 L 7.20,21.79 Z" fill="#b06146" stroke="none" /><path d="M 4.49,19.35 L 4.49,21.49 L 4.45,21.52 L 3.68,21.12 L 3.62,21.12 L 3.62,22.16 L 3.58,22.19 L 1.87,21.32 L 1.81,21.32 L 1.81,22.36 L 1.77,22.39 L 0.90,21.96 L 0.90,23.06 L 2.68,23.97 L 2.71,23.97 L 2.71,22.93 L 2.74,22.90 L 3.58,23.30 L 3.62,23.33 L 3.62,24.44 L 4.49,24.87 L 4.49,25.97 L 6.23,26.85 L 6.29,26.85 L 6.29,25.81 L 6.33,25.77 L 7.20,26.21 L 7.20,25.17 L 7.23,25.14 L 8.03,25.54 L 8.10,25.54 L 8.10,24.44 L 7.20,24.00 L 7.20,25.04 L 7.13,25.07 L 6.36,24.67 L 6.29,24.67 L 6.29,25.71 L 6.26,25.74 L 4.49,24.84 L 4.49,23.73 L 3.62,23.30 L 3.62,22.26 L 3.65,22.23 L 5.39,23.10 L 5.39,19.78 Z" fill="#b06146" stroke="none" /><path d="M 12.62,18.98 L 12.59,18.98 L 12.59,20.02 L 12.55,20.05 L 11.75,19.65 L 11.68,19.65 L 11.68,21.86 L 12.55,22.29 L 12.59,22.29 L 12.59,20.15 L 12.65,20.12 L 13.42,20.52 L 13.49,20.52 L 13.49,19.41 Z" fill="#b06146" stroke="none" /><path d="M 12.59,14.59 L 12.59,15.63 L 12.55,15.67 L 11.68,15.23 L 11.68,16.33 L 12.59,16.80 L 12.59,17.91 L 13.49,18.34 L 13.49,17.24 L 12.59,16.77 L 12.59,15.73 L 12.62,15.70 L 14.33,16.57 L 14.39,16.57 L 14.39,15.46 L 12.65,14.59 Z" fill="#b06146" stroke="none" /><path d="M 11.68,12.12 L 11.68,12.15 L 12.55,12.59 L 12.62,12.59 L 13.46,12.15 L 13.52,12.15 L 14.36,12.59 L 12.62,13.46 L 12.65,13.52 L 13.46,13.92 L 13.56,13.92 L 15.30,13.05 L 15.30,13.02 L 14.43,12.59 L 15.30,12.15 L 15.30,12.12 L 14.43,11.68 L 14.36,11.68 L 13.52,12.12 L 13.46,12.12 L 12.62,11.68 L 12.55,11.68 Z" fill="#b06146" stroke="none" /><path d="M 9.00,9.87 L 9.00,9.91 L 10.74,10.78 L 10.68,10.85 L 9.91,11.21 L 9.94,11.28 L 10.74,11.68 L 10.85,11.68 L 11.68,11.25 L 11.68,11.21 L 10.91,10.85 L 10.85,10.78 L 11.65,10.38 L 11.68,10.31 L 9.94,9.44 L 9.84,9.44 Z" fill="#b06146" stroke="none" /><path d="M 11.72,5.82 L 11.72,5.86 L 12.59,6.29 L 13.49,5.86 L 13.49,5.82 L 12.62,5.39 L 12.55,5.39 Z" fill="#b06146" stroke="none" /><path d="M 13.46,3.11 L 12.65,2.71 L 12.52,2.71 L 11.75,3.11 L 11.65,3.11 L 10.78,2.68 L 9.04,3.55 L 9.00,3.62 L 9.77,3.98 L 9.84,4.05 L 9.04,4.45 L 9.04,4.52 L 9.84,4.92 L 9.81,4.99 L 9.04,5.36 L 9.04,5.42 L 9.84,5.82 L 9.94,5.82 L 10.78,5.39 L 10.78,5.36 L 9.97,4.95 L 10.01,4.89 L 10.78,4.52 L 10.74,4.45 L 9.97,4.08 L 9.94,4.05 L 10.01,3.98 L 11.68,3.15 L 12.55,3.58 L 12.65,3.58 L 13.46,3.18 Z" fill="#b06146" stroke="none" /><path d="M 15.26,1.34 L 13.52,2.21 L 13.52,2.28 L 14.33,2.68 L 14.29,2.74 L 13.52,3.11 L 13.52,3.18 L 14.33,3.58 L 14.26,3.65 L 12.62,4.45 L 12.62,4.52 L 15.23,5.82 L 15.36,5.82 L 16.17,5.42 L 16.17,5.36 L 14.43,4.49 L 15.26,4.05 L 15.26,4.02 L 14.49,3.65 L 14.43,3.58 L 16.17,2.71 L 16.13,2.64 L 15.33,2.24 L 16.20,1.81 L 16.20,1.77 L 15.33,1.34 Z" fill="#b06146" stroke="none" /><path d="M 14.39,0.87 L 13.49,0.44 L 11.75,1.31 L 11.72,1.37 L 12.52,1.77 L 12.65,1.77 L 14.39,0.90 Z" fill="#b06146" stroke="none" /><path d="M 12.65,27.82 L 12.59,27.82 L 12.59,28.85 L 12.55,28.89 L 11.68,28.45 L 11.68,29.56 L 12.52,29.99 L 12.59,29.99 L 12.59,28.95 L 12.62,28.92 L 13.49,29.36 L 13.49,28.25 Z" fill="#c06a4b" stroke="none" /><path d="M 4.49,23.77 L 4.49,24.87 L 5.39,25.31 L 5.39,24.20 L 4.55,23.77 Z" fill="#c06a4b" stroke="none" /><path d="M 6.29,22.46 L 6.29,23.56 L 8.03,24.44 L 8.10,24.44 L 8.10,23.33 L 6.36,22.46 Z" fill="#c06a4b" stroke="none" /><path d="M 1.81,20.22 L 1.81,21.32 L 2.71,21.76 L 2.71,20.65 L 1.87,20.22 Z" fill="#c06a4b" stroke="none" /><path d="M 3.62,18.91 L 3.62,20.02 L 4.49,20.45 L 4.49,19.35 Z" fill="#c06a4b" stroke="none" /><path d="M 13.49,18.34 L 12.65,17.91 L 12.59,17.91 L 12.59,18.91 L 12.55,18.95 L 11.75,18.54 L 11.68,18.54 L 11.68,19.58 L 11.65,19.62 L 10.88,19.21 L 10.81,19.21 L 10.81,20.25 L 10.78,20.28 L 9.91,19.85 L 9.91,20.89 L 9.87,20.92 L 9.07,20.52 L 9.00,20.52 L 9.00,22.73 L 10.74,23.60 L 10.81,23.60 L 10.81,22.49 L 9.97,22.09 L 9.91,22.03 L 9.91,21.02 L 9.97,20.99 L 10.74,21.39 L 10.81,21.39 L 10.81,20.35 L 10.85,20.32 L 11.62,20.72 L 11.68,20.72 L 11.68,19.68 L 11.72,19.65 L 12.59,20.08 L 12.59,19.05 L 12.62,19.01 L 13.42,19.41 L 13.49,19.41 Z" fill="#c06a4b" stroke="none" /><path d="M 12.59,14.56 L 11.68,14.13 L 11.68,15.16 L 11.62,15.20 L 9.97,14.36 L 9.91,14.36 L 9.91,15.40 L 9.87,15.43 L 9.00,15.00 L 9.00,16.03 L 8.94,16.07 L 8.17,15.67 L 8.10,15.67 L 8.10,16.67 L 8.07,16.70 L 7.26,16.30 L 7.20,16.30 L 7.20,17.34 L 7.16,17.37 L 6.29,16.94 L 6.29,19.15 L 7.13,19.58 L 7.20,19.58 L 7.20,17.44 L 7.23,17.41 L 8.10,17.84 L 8.10,16.80 L 8.13,16.77 L 9.87,17.64 L 9.91,17.64 L 9.91,16.60 L 9.94,16.57 L 10.81,17.00 L 10.81,15.97 L 10.88,15.93 L 11.68,16.33 L 11.68,15.30 L 11.72,15.26 L 12.52,15.67 L 12.59,15.67 Z" fill="#c06a4b" stroke="none" /><path d="M 0.90,10.95 L 0.90,12.05 L 2.71,12.95 L 2.71,11.85 Z" fill="#c06a4b" stroke="none" /><path d="M 3.62,10.11 L 3.62,11.21 L 4.42,11.62 L 4.49,11.62 L 4.49,10.51 L 3.68,10.11 Z" fill="#c06a4b" stroke="none" /><path d="M 22.53,8.50 L 22.53,8.57 L 23.33,8.97 L 23.46,8.97 L 24.27,8.57 L 24.23,8.50 L 23.43,8.10 L 23.33,8.10 Z" fill="#c06a4b" stroke="none" /><path d="M 10.74,7.20 L 9.00,8.07 L 9.00,8.10 L 9.87,8.54 L 9.94,8.54 L 10.81,8.10 L 11.65,8.54 L 10.81,8.97 L 10.81,9.00 L 11.58,9.37 L 11.65,9.44 L 10.81,9.87 L 10.81,9.91 L 11.58,10.28 L 11.65,10.34 L 10.81,10.78 L 10.81,10.81 L 11.58,11.18 L 11.65,11.25 L 10.85,11.65 L 10.81,11.72 L 11.62,12.12 L 11.75,12.12 L 12.55,11.72 L 12.55,11.65 L 11.75,11.25 L 11.82,11.18 L 12.59,10.81 L 12.55,10.74 L 11.75,10.34 L 11.82,10.28 L 12.59,9.91 L 12.59,9.87 L 11.75,9.44 L 11.82,9.37 L 12.59,9.00 L 12.59,8.97 L 11.72,8.54 L 12.59,8.10 L 12.59,8.07 L 10.85,7.20 Z" fill="#c06a4b" stroke="none" /><path d="M 15.26,6.73 L 14.39,7.16 L 14.39,7.20 L 16.13,8.07 L 16.10,8.13 L 15.33,8.50 L 15.33,8.57 L 16.10,8.94 L 16.13,9.00 L 14.39,9.87 L 14.39,9.91 L 15.16,10.28 L 15.23,10.34 L 14.43,10.74 L 14.43,10.81 L 15.23,11.21 L 15.20,11.28 L 14.43,11.65 L 14.43,11.72 L 15.23,12.12 L 15.20,12.18 L 14.43,12.55 L 14.43,12.62 L 15.23,13.02 L 15.36,13.02 L 16.17,12.62 L 16.17,12.55 L 15.40,12.18 L 15.36,12.12 L 17.07,11.25 L 17.07,11.21 L 16.30,10.85 L 16.23,10.78 L 17.07,10.34 L 17.07,10.31 L 16.30,9.94 L 16.23,9.87 L 17.07,9.44 L 17.07,9.41 L 16.27,9.00 L 16.30,8.94 L 17.07,8.57 L 17.07,8.50 L 16.27,8.10 L 16.30,8.03 L 17.07,7.67 L 17.07,7.63 Z" fill="#c06a4b" stroke="none" /><path d="M 3.55,6.29 L 2.71,6.73 L 2.71,6.76 L 3.48,7.13 L 3.55,7.20 L 2.74,7.60 L 2.71,7.67 L 3.62,8.10 L 4.49,7.67 L 4.45,7.60 L 3.65,7.20 L 3.72,7.13 L 4.49,6.76 L 4.49,6.73 L 3.65,6.29 Z" fill="#c06a4b" stroke="none" /><path d="M 25.17,6.26 L 24.27,5.82 L 22.53,6.69 L 22.49,6.76 L 23.40,7.20 L 25.14,6.33 Z" fill="#c06a4b" stroke="none" /><path d="M 12.55,5.36 L 11.75,4.95 L 11.62,4.95 L 9.94,5.79 L 9.91,5.86 L 10.81,6.29 L 12.55,5.42 Z" fill="#c06a4b" stroke="none" /><path d="M 15.30,4.92 L 15.30,4.95 L 16.17,5.39 L 16.23,5.39 L 17.10,4.95 L 17.10,4.92 L 16.70,4.72 L 16.64,4.72 L 16.20,4.49 Z" fill="#c06a4b" stroke="none" /><path d="M 10.81,3.58 L 10.81,3.62 L 11.68,4.05 L 12.59,3.62 L 12.55,3.55 L 11.75,3.15 L 11.65,3.15 Z" fill="#c06a4b" stroke="none" /><path d="M 15.30,3.11 L 15.33,3.18 L 16.13,3.58 L 16.23,3.58 L 17.07,3.15 L 17.07,3.11 L 16.20,2.68 Z" fill="#c06a4b" stroke="none" /><path d="M 13.49,27.15 L 12.65,26.71 L 12.59,26.71 L 12.59,27.75 L 12.55,27.78 L 11.68,27.35 L 11.68,28.38 L 11.65,28.42 L 10.81,28.02 L 10.81,29.12 L 11.68,29.56 L 11.68,28.52 L 11.75,28.49 L 12.52,28.89 L 12.59,28.89 L 12.59,27.85 L 12.62,27.82 L 13.49,28.25 Z" fill="#c67355" stroke="none" /><path d="M 0.00,23.73 L 0.00,24.80 L 0.84,25.24 L 0.90,25.24 L 0.90,24.17 L 0.07,23.73 Z" fill="#c67355" stroke="none" /><path d="M 13.49,21.62 L 12.59,21.19 L 12.59,23.33 L 12.52,23.36 L 11.75,22.96 L 11.68,22.96 L 11.68,24.00 L 11.65,24.03 L 9.91,23.16 L 9.91,24.20 L 9.87,24.23 L 9.00,23.80 L 9.00,24.84 L 8.94,24.87 L 8.17,24.47 L 8.10,24.47 L 8.10,25.51 L 8.07,25.54 L 7.20,25.10 L 7.20,26.14 L 7.16,26.18 L 6.36,25.77 L 6.29,25.77 L 6.29,26.88 L 7.20,27.31 L 7.20,26.28 L 7.26,26.24 L 8.03,26.64 L 8.10,26.64 L 8.10,25.61 L 8.13,25.57 L 9.84,26.44 L 9.91,26.44 L 9.91,25.41 L 9.94,25.37 L 10.81,25.81 L 10.81,24.77 L 10.88,24.74 L 11.68,25.14 L 11.68,24.10 L 11.72,24.07 L 12.59,24.50 L 12.59,23.46 L 12.62,23.43 L 13.42,23.83 L 13.49,23.83 Z" fill="#c67355" stroke="none" /><path d="M 8.10,14.53 L 7.20,14.09 L 7.20,16.23 L 7.16,16.27 L 6.29,15.83 L 6.29,16.87 L 6.26,16.90 L 4.49,16.03 L 4.49,17.07 L 4.42,17.10 L 3.62,16.70 L 3.62,17.74 L 3.58,17.77 L 2.78,17.37 L 2.71,17.37 L 2.71,18.41 L 2.68,18.44 L 1.81,18.01 L 1.81,19.05 L 1.77,19.08 L 0.97,18.68 L 0.90,18.68 L 0.90,20.85 L 1.74,21.29 L 1.81,21.29 L 1.81,19.18 L 1.87,19.15 L 2.64,19.55 L 2.71,19.55 L 2.71,18.51 L 2.74,18.48 L 4.49,19.35 L 4.49,18.31 L 4.55,18.28 L 5.32,18.68 L 5.39,18.68 L 5.39,17.64 L 5.42,17.61 L 6.29,18.04 L 6.29,17.00 L 6.36,16.97 L 7.13,17.37 L 7.20,17.37 L 7.20,16.33 L 7.23,16.30 L 8.10,16.74 Z" fill="#c67355" stroke="none" /><path d="M 14.43,13.49 L 14.36,13.49 L 13.49,13.92 L 13.49,15.03 L 14.33,15.46 L 14.39,15.46 L 14.39,14.39 L 15.26,13.96 L 15.23,13.89 Z" fill="#c67355" stroke="none" /><path d="M 5.39,10.98 L 4.55,10.54 L 4.49,10.54 L 4.49,12.69 L 4.45,12.72 L 3.68,12.32 L 3.62,12.32 L 3.62,13.36 L 3.58,13.39 L 1.87,12.52 L 1.81,12.52 L 1.81,13.52 L 1.77,13.56 L 0.97,13.15 L 0.90,13.15 L 0.90,15.36 L 1.81,15.80 L 1.81,14.76 L 1.87,14.73 L 2.64,15.13 L 2.71,15.13 L 2.71,14.09 L 2.74,14.06 L 3.62,14.49 L 3.62,13.46 L 3.65,13.42 L 4.42,13.82 L 4.49,13.82 L 4.49,12.79 L 4.52,12.75 L 5.39,13.19 Z" fill="#c67355" stroke="none" /><path d="M 0.90,8.74 L 0.90,10.95 L 1.74,11.38 L 1.81,11.38 L 1.81,10.34 L 1.84,10.31 L 2.71,10.74 L 2.71,9.64 Z" fill="#c67355" stroke="none" /><path d="M 24.30,6.73 L 24.30,6.76 L 25.07,7.13 L 25.14,7.20 L 24.33,7.60 L 24.30,7.67 L 25.17,8.10 L 26.98,7.20 L 26.98,7.16 L 25.24,6.29 L 25.14,6.29 Z" fill="#c67355" stroke="none" /><path d="M 4.52,5.82 L 3.62,6.26 L 3.65,6.33 L 4.45,6.73 L 4.38,6.79 L 3.62,7.16 L 3.65,7.23 L 4.45,7.63 L 4.38,7.70 L 3.62,8.07 L 3.62,8.10 L 4.45,8.54 L 4.52,8.54 L 5.39,8.10 L 5.39,8.07 L 4.62,7.70 L 4.55,7.63 L 5.39,7.20 L 5.39,7.16 L 4.62,6.79 L 4.55,6.73 L 5.36,6.33 L 5.39,6.26 Z" fill="#c67355" stroke="none" /><path d="M 21.56,4.49 L 20.69,4.92 L 20.69,4.95 L 21.56,5.39 L 20.69,5.82 L 20.69,5.86 L 21.56,6.29 L 20.72,6.73 L 20.72,6.76 L 21.52,7.16 L 21.49,7.23 L 20.72,7.60 L 20.72,7.67 L 21.52,8.07 L 21.49,8.13 L 20.72,8.50 L 20.72,8.57 L 22.46,9.44 L 22.53,9.44 L 23.40,9.00 L 23.40,8.97 L 21.69,8.13 L 21.66,8.10 L 21.69,8.03 L 22.46,7.67 L 22.46,7.63 L 21.62,7.20 L 21.69,7.13 L 23.36,6.29 L 23.36,6.26 L 22.56,5.86 L 22.59,5.79 L 23.36,5.42 L 23.36,5.36 L 21.62,4.49 Z" fill="#c67355" stroke="none" /><path d="M 8.97,3.58 L 8.10,4.02 L 8.10,4.05 L 8.97,4.49 L 8.10,4.92 L 8.10,4.95 L 8.97,5.39 L 7.23,6.26 L 7.23,6.33 L 8.03,6.73 L 7.97,6.79 L 7.20,7.16 L 7.20,7.20 L 8.07,7.63 L 7.20,8.07 L 7.20,8.10 L 8.07,8.54 L 7.20,8.97 L 7.20,9.00 L 8.07,9.44 L 7.20,9.87 L 7.20,9.91 L 8.94,10.78 L 9.04,10.78 L 9.84,10.38 L 9.87,10.31 L 8.13,9.44 L 9.00,9.00 L 9.00,8.97 L 8.13,8.54 L 9.87,7.67 L 9.84,7.60 L 9.04,7.20 L 9.10,7.13 L 9.87,6.76 L 9.84,6.69 L 9.04,6.29 L 9.10,6.23 L 9.87,5.86 L 9.87,5.82 L 9.04,5.39 L 9.91,4.95 L 9.91,4.92 L 9.04,4.49 L 9.84,4.08 L 9.87,4.02 Z" fill="#c67355" stroke="none" /><path d="M 17.04,2.24 L 16.23,2.64 L 16.20,2.71 L 17.94,3.58 L 17.87,3.65 L 17.10,4.02 L 17.14,4.08 L 17.94,4.49 L 17.87,4.55 L 16.23,5.36 L 16.23,5.42 L 17.04,5.82 L 16.97,5.89 L 16.20,6.26 L 16.20,6.29 L 17.04,6.73 L 16.97,6.79 L 16.20,7.16 L 16.20,7.20 L 17.04,7.63 L 16.97,7.70 L 16.20,8.07 L 16.20,8.10 L 17.07,8.54 L 16.20,8.97 L 16.20,9.00 L 17.94,9.87 L 18.04,9.87 L 18.85,9.47 L 18.88,9.41 L 17.14,8.54 L 17.97,8.10 L 17.97,8.07 L 17.21,7.70 L 17.14,7.63 L 18.88,6.76 L 18.85,6.69 L 18.04,6.29 L 18.11,6.23 L 18.88,5.86 L 18.85,5.79 L 18.04,5.39 L 18.11,5.32 L 18.88,4.95 L 18.88,4.92 L 18.11,4.55 L 18.04,4.49 L 18.88,4.05 L 18.88,4.02 L 18.11,3.65 L 18.04,3.58 L 18.85,3.18 L 18.88,3.11 L 17.14,2.24 Z" fill="#c67355" stroke="none" /><path d="M 13.52,0.44 L 13.52,0.47 L 14.33,0.87 L 14.46,0.87 L 15.26,0.47 L 15.23,0.40 L 14.43,0.00 L 14.36,0.00 Z" fill="#c67355" stroke="none" /><path d="M 9.00,26.01 L 9.00,27.11 L 9.91,27.58 L 9.91,28.69 L 10.81,29.12 L 10.81,26.91 Z" fill="#d37a5a" stroke="none" /><path d="M 12.59,23.40 L 12.59,24.44 L 12.55,24.47 L 11.75,24.07 L 11.68,24.07 L 11.68,26.24 L 13.49,27.15 L 13.49,26.04 L 12.59,25.57 L 12.59,24.57 L 12.62,24.54 L 13.42,24.94 L 13.49,24.94 L 13.49,23.83 Z" fill="#d37a5a" stroke="none" /><path d="M 0.00,14.90 L 0.00,16.00 L 1.74,16.87 L 1.81,16.94 L 1.81,17.94 L 1.77,17.97 L 0.00,17.10 L 0.00,23.73 L 0.90,24.17 L 0.90,18.71 L 0.94,18.68 L 1.81,19.11 L 1.81,18.08 L 1.84,18.04 L 2.64,18.44 L 2.71,18.44 L 2.71,17.34 L 1.87,16.94 L 1.81,16.87 L 1.81,15.80 L 1.77,15.77 Z" fill="#d37a5a" stroke="none" /><path d="M 9.00,11.68 L 9.00,13.89 L 9.04,13.92 L 10.81,14.79 L 10.81,13.76 L 10.88,13.72 L 13.49,15.03 L 13.49,13.92 L 13.46,13.89 Z" fill="#d37a5a" stroke="none" /><path d="M 19.75,11.65 L 17.97,10.78 L 16.23,11.65 L 16.23,11.72 L 17.00,12.08 L 17.04,12.12 L 17.00,12.18 L 14.43,13.46 L 14.43,13.52 L 15.23,13.92 L 15.33,13.92 L 19.75,11.72 Z" fill="#d37a5a" stroke="none" /><path d="M 8.10,11.21 L 7.20,10.78 L 7.20,11.82 L 7.13,11.85 L 6.36,11.45 L 6.29,11.45 L 6.29,12.49 L 6.26,12.52 L 5.39,12.08 L 5.39,13.12 L 5.36,13.15 L 4.55,12.75 L 4.49,12.75 L 4.49,13.79 L 4.45,13.82 L 3.68,13.42 L 3.62,13.42 L 3.62,15.60 L 5.32,16.47 L 5.39,16.47 L 5.39,15.36 L 4.55,14.96 L 4.49,14.90 L 4.49,13.89 L 4.52,13.86 L 5.39,14.29 L 5.39,13.26 L 5.42,13.22 L 6.29,13.66 L 6.29,14.76 L 7.20,15.20 L 7.20,14.09 L 6.29,13.62 L 6.29,12.59 L 6.33,12.55 L 7.20,12.99 L 7.20,11.95 L 7.23,11.92 L 8.03,12.32 L 8.10,12.32 Z" fill="#d37a5a" stroke="none" /><path d="M 4.52,8.50 L 4.52,8.57 L 5.32,8.97 L 5.46,8.97 L 6.29,8.54 L 7.10,8.94 L 7.13,8.97 L 7.10,9.04 L 6.33,9.41 L 6.33,9.47 L 7.13,9.87 L 7.26,9.87 L 8.07,9.47 L 8.07,9.41 L 7.26,9.00 L 7.30,8.94 L 8.07,8.57 L 8.07,8.50 L 6.33,7.63 L 6.26,7.63 Z" fill="#d37a5a" stroke="none" /><path d="M 19.75,6.29 L 18.01,7.16 L 18.01,7.20 L 18.85,7.63 L 18.95,7.63 L 19.78,7.20 L 20.62,7.60 L 20.65,7.63 L 20.62,7.67 L 19.78,8.07 L 19.78,8.10 L 20.65,8.54 L 19.82,8.97 L 19.75,8.97 L 18.91,8.54 L 18.85,8.54 L 18.04,8.94 L 18.01,9.00 L 18.88,9.44 L 19.75,9.00 L 19.82,9.00 L 20.62,9.41 L 20.65,9.44 L 20.62,9.47 L 19.85,9.84 L 19.82,9.91 L 20.59,10.28 L 20.65,10.34 L 19.85,10.74 L 19.82,10.81 L 20.62,11.21 L 20.75,11.21 L 21.56,10.81 L 21.56,10.74 L 20.75,10.34 L 20.82,10.28 L 21.59,9.91 L 21.59,9.87 L 20.72,9.44 L 21.59,9.00 L 21.59,8.97 L 20.72,8.54 L 21.59,8.10 L 21.59,8.07 L 20.72,7.63 L 21.59,7.20 L 21.59,7.16 L 19.85,6.29 Z" fill="#d37a5a" stroke="none" /><path d="M 4.52,5.82 L 4.52,5.86 L 6.26,6.73 L 6.36,6.73 L 8.10,5.86 L 8.10,5.82 L 7.23,5.39 L 7.16,5.39 L 6.33,5.82 L 6.26,5.82 L 5.42,5.39 L 5.36,5.39 Z" fill="#d37a5a" stroke="none" /><path d="M 22.46,4.02 L 21.56,3.58 L 19.82,4.45 L 19.82,4.52 L 20.62,4.92 L 20.75,4.92 L 22.43,4.08 Z" fill="#d37a5a" stroke="none" /><path d="M 14.39,0.87 L 14.39,0.90 L 18.78,3.08 L 18.85,3.15 L 18.81,3.18 L 18.04,3.55 L 18.01,3.62 L 18.78,3.98 L 18.85,4.05 L 18.04,4.45 L 18.01,4.52 L 18.81,4.92 L 18.95,4.92 L 19.75,4.52 L 19.75,4.45 L 18.98,4.08 L 18.95,4.05 L 19.01,3.98 L 20.65,3.18 L 20.65,3.11 L 15.30,0.44 Z" fill="#d37a5a" stroke="none" /><path d="M 0.00,16.00 L 0.00,17.10 L 0.84,17.54 L 0.90,17.54 L 0.90,16.44 Z" fill="#e0806b" stroke="none" /><path d="M 1.81,15.80 L 1.81,16.90 L 2.64,17.34 L 2.71,17.34 L 2.71,16.23 Z" fill="#e0806b" stroke="none" /><path d="M 0.00,7.20 L 0.00,14.90 L 0.03,14.93 L 0.84,15.33 L 0.90,15.33 L 0.90,8.80 L 0.94,8.77 L 7.13,11.85 L 7.20,11.92 L 7.20,12.92 L 7.13,12.95 L 6.36,12.55 L 6.29,12.55 L 6.29,13.66 L 7.16,14.09 L 7.20,14.09 L 7.20,13.05 L 7.23,13.02 L 8.03,13.42 L 8.10,13.42 L 8.10,12.38 L 8.13,12.35 L 9.00,12.79 L 9.00,11.68 L 8.97,11.65 L 8.17,11.25 L 8.10,11.25 L 8.10,12.28 L 8.07,12.32 L 7.26,11.92 L 7.20,11.85 L 7.20,10.78 L 7.16,10.74 L 0.07,7.20 Z" fill="#e0806b" stroke="none" /><path d="M 18.88,4.92 L 18.88,4.95 L 19.75,5.39 L 19.82,5.39 L 20.69,4.95 L 20.69,4.92 L 19.82,4.49 L 19.75,4.49 Z" fill="#e0806b" stroke="none" /><path d="M 28.75,7.16 L 22.53,4.05 L 22.43,4.05 L 21.62,4.45 L 21.62,4.52 L 26.88,7.13 L 26.95,7.20 L 20.75,10.31 L 20.65,10.31 L 19.92,9.94 L 19.85,9.87 L 20.65,9.47 L 20.65,9.41 L 19.85,9.00 L 19.72,9.00 L 18.91,9.41 L 18.95,9.47 L 19.75,9.87 L 19.68,9.94 L 18.91,10.31 L 18.95,10.38 L 19.75,10.78 L 19.68,10.85 L 18.91,11.21 L 18.91,11.25 L 19.75,11.68 L 19.82,11.68 L 20.69,11.25 L 20.69,11.21 L 19.92,10.85 L 19.85,10.78 L 19.88,10.74 L 20.72,10.34 L 21.56,10.78 L 21.62,10.78 L 28.72,7.23 Z" fill="#e0806b" stroke="none" /><path d="M 19.82,3.58 L 19.82,3.62 L 20.62,4.02 L 20.75,4.02 L 21.56,3.62 L 21.52,3.55 L 20.72,3.15 L 20.65,3.15 Z" fill="#e0806b" stroke="none" /></svg>