<svg height="32" width="32" viewBox="0 0 32 32"><defs /><path d="M 21.60,25.16 L 21.53,25.16 L 20.71,25.57 L 20.71,26.69 L 20.77,26.69 L 21.60,26.27 Z" fill="#0e0e0e" stroke="none" /><path d="M 15.27,23.89 L 15.20,23.89 L 14.41,24.30 L 14.41,25.42 L 15.27,25.00 Z" fill="#0e0e0e" stroke="none" /><path d="M 17.97,22.52 L 17.08,22.97 L 17.08,24.08 L 17.91,23.67 L 17.97,23.70 L 17.97,24.72 L 17.91,24.78 L 17.08,25.19 L 17.08,26.27 L 17.15,26.27 L 17.94,25.86 L 17.97,25.89 L 17.97,26.94 L 15.30,28.28 L 15.27,28.25 L 15.27,26.12 L 15.20,26.12 L 14.44,26.50 L 14.41,26.53 L 14.41,29.84 L 14.47,29.84 L 17.97,28.09 L 17.97,26.97 L 18.89,26.50 L 18.89,23.19 L 18.83,23.19 L 18.00,23.60 L 17.97,23.57 Z" fill="#0e0e0e" stroke="none" /><path d="M 25.22,22.23 L 25.16,22.23 L 24.33,22.65 L 24.33,23.76 L 23.41,24.24 L 23.41,25.32 L 23.35,25.38 L 22.52,25.80 L 22.52,26.88 L 21.60,27.36 L 21.60,28.41 L 21.66,28.41 L 22.52,27.96 L 22.52,26.91 L 23.41,26.47 L 23.41,25.38 L 23.48,25.32 L 25.19,24.46 L 25.22,24.49 L 25.22,25.54 L 26.15,25.10 L 26.15,23.98 L 25.26,24.43 L 25.22,24.40 Z" fill="#0e0e0e" stroke="none" /><path d="M 28.82,21.53 L 27.04,22.43 L 27.04,23.54 L 28.82,22.65 Z" fill="#0e0e0e" stroke="none" /><path d="M 23.41,14.28 L 23.35,14.28 L 22.52,14.70 L 22.52,15.78 L 22.46,15.84 L 20.71,16.70 L 20.71,17.81 L 20.77,17.81 L 21.57,17.40 L 21.60,17.43 L 21.60,18.48 L 20.71,18.93 L 20.71,21.15 L 21.57,20.74 L 21.60,20.77 L 21.60,21.82 L 22.52,21.38 L 22.52,20.26 L 22.46,20.26 L 21.66,20.68 L 21.60,20.64 L 21.60,18.51 L 22.52,18.04 L 22.52,16.95 L 22.58,16.89 L 23.41,16.48 Z" fill="#0e0e0e" stroke="none" /><path d="M 17.97,12.60 L 15.27,13.93 L 15.27,15.01 L 17.05,14.12 L 17.08,14.16 L 17.08,17.40 L 17.02,17.46 L 16.22,17.84 L 16.19,17.81 L 16.19,16.76 L 15.27,17.21 L 15.27,18.32 L 15.33,18.32 L 16.16,17.91 L 16.19,17.94 L 16.19,18.96 L 14.41,19.85 L 14.41,20.96 L 14.47,20.96 L 18.89,18.74 L 18.89,17.62 L 18.00,18.07 L 17.97,18.04 Z" fill="#0e0e0e" stroke="none" /><path d="M 28.82,11.58 L 28.76,11.58 L 27.93,11.99 L 27.93,13.07 L 27.86,13.14 L 26.15,14.00 L 26.15,15.08 L 26.08,15.14 L 25.26,15.55 L 25.22,15.52 L 25.22,14.47 L 25.16,14.47 L 24.33,14.89 L 24.33,16.00 L 24.40,16.00 L 25.19,15.59 L 25.22,15.62 L 25.22,17.78 L 25.29,17.78 L 26.08,17.37 L 26.15,17.40 L 26.15,18.42 L 25.22,18.89 L 25.22,20.01 L 28.82,18.23 L 28.82,16.00 L 27.93,16.45 L 27.93,17.53 L 27.07,17.97 L 27.04,17.94 L 27.04,16.89 L 26.21,17.30 L 26.15,17.27 L 26.15,15.14 L 26.21,15.08 L 28.82,13.77 Z" fill="#0e0e0e" stroke="none" /><path d="M 22.52,10.34 L 22.46,10.34 L 19.79,11.67 L 19.79,12.76 L 22.49,11.42 L 22.52,11.39 Z" fill="#0e0e0e" stroke="none" /><path d="M 26.15,8.52 L 26.08,8.52 L 23.41,9.86 L 23.41,10.94 L 24.30,10.50 L 24.33,10.53 L 24.33,11.58 L 25.19,11.17 L 25.22,11.13 L 25.22,10.05 L 26.15,9.57 Z" fill="#0e0e0e" stroke="none" /><path d="M 28.82,7.19 L 28.76,7.19 L 27.93,7.60 L 27.93,8.68 L 28.82,8.24 Z" fill="#0e0e0e" stroke="none" /><path d="M 17.08,28.53 L 17.02,28.53 L 16.19,28.95 L 16.19,30.03 L 16.13,30.09 L 15.27,30.50 L 15.27,31.59 L 16.19,31.14 L 16.19,30.09 L 16.25,30.03 L 17.08,29.61 Z" fill="#121212" stroke="none" /><path d="M 26.15,25.10 L 26.08,25.10 L 25.22,25.54 L 25.22,26.59 L 25.29,26.59 L 26.15,26.15 Z" fill="#121212" stroke="none" /><path d="M 24.33,21.57 L 23.41,22.01 L 23.41,23.13 L 24.33,22.68 Z" fill="#121212" stroke="none" /><path d="M 28.82,19.34 L 28.76,19.34 L 27.93,19.75 L 27.93,20.83 L 27.86,20.90 L 27.04,21.31 L 27.04,22.39 L 26.97,22.46 L 25.22,23.32 L 25.22,24.43 L 25.29,24.43 L 27.01,23.57 L 27.04,23.54 L 27.04,22.46 L 27.10,22.39 L 28.82,21.53 Z" fill="#121212" stroke="none" /><path d="M 15.27,13.96 L 15.20,13.96 L 14.41,14.38 L 14.41,16.54 L 15.24,16.13 L 15.27,16.16 L 15.27,17.21 L 15.33,17.21 L 16.16,16.80 L 16.19,16.83 L 16.19,17.84 L 16.13,17.91 L 14.41,18.77 L 14.41,19.85 L 14.47,19.85 L 16.19,18.99 L 16.19,17.91 L 16.25,17.84 L 17.08,17.43 L 17.08,15.20 L 15.30,16.10 L 15.27,16.06 Z" fill="#121212" stroke="none" /><path d="M 28.82,13.77 L 27.93,14.22 L 27.93,16.41 L 27.86,16.48 L 27.07,16.86 L 27.04,16.83 L 27.04,15.78 L 26.18,16.19 L 26.15,16.22 L 26.15,17.30 L 26.08,17.37 L 25.26,17.78 L 25.22,17.75 L 25.22,15.59 L 26.15,15.11 L 26.15,14.00 L 25.22,14.44 L 25.22,15.55 L 25.19,15.59 L 24.37,16.00 L 24.33,15.97 L 24.33,14.92 L 24.27,14.92 L 23.41,15.36 L 23.41,16.48 L 24.30,16.03 L 24.33,16.06 L 24.33,17.11 L 23.41,17.59 L 23.41,18.70 L 25.19,17.81 L 25.22,17.84 L 25.22,18.86 L 25.16,18.93 L 22.55,20.23 L 22.52,20.20 L 22.52,18.04 L 21.63,18.48 L 21.60,18.45 L 21.60,17.40 L 21.53,17.40 L 20.74,17.81 L 20.71,17.78 L 20.71,16.73 L 20.64,16.73 L 18.96,17.59 L 18.89,17.56 L 18.89,16.54 L 18.83,16.54 L 17.97,16.99 L 17.97,18.07 L 18.04,18.07 L 18.86,17.65 L 18.89,17.69 L 18.89,18.74 L 20.68,17.84 L 20.71,17.88 L 20.71,18.93 L 20.77,18.93 L 21.57,18.51 L 21.60,18.54 L 21.60,20.68 L 21.53,20.74 L 20.74,21.12 L 20.71,21.09 L 20.71,20.07 L 20.64,20.07 L 19.82,20.49 L 19.79,20.52 L 19.79,21.60 L 17.97,22.52 L 17.97,23.60 L 17.91,23.67 L 17.11,24.05 L 17.08,24.02 L 17.08,22.97 L 17.05,22.97 L 15.27,23.86 L 15.27,24.97 L 14.41,25.42 L 14.41,26.53 L 15.27,26.12 L 15.27,25.00 L 15.30,24.97 L 17.02,24.11 L 17.08,24.14 L 17.08,25.16 L 17.02,25.22 L 16.19,25.64 L 16.19,26.72 L 15.27,27.20 L 15.27,28.31 L 17.94,26.97 L 17.97,27.01 L 17.97,28.06 L 18.04,28.06 L 20.68,26.72 L 20.71,26.75 L 20.71,27.77 L 20.64,27.83 L 19.79,28.25 L 19.79,29.33 L 19.82,29.33 L 21.60,28.44 L 21.60,26.27 L 23.35,25.38 L 23.41,25.42 L 23.41,26.43 L 22.52,26.88 L 22.52,27.96 L 23.41,27.51 L 23.41,26.47 L 24.33,25.99 L 24.33,24.91 L 24.27,24.91 L 23.44,25.32 L 23.41,25.29 L 23.41,24.24 L 21.60,25.13 L 21.60,26.24 L 20.74,26.69 L 20.71,26.66 L 20.71,25.61 L 20.64,25.61 L 18.00,26.94 L 17.97,26.91 L 17.97,25.86 L 17.91,25.86 L 17.11,26.27 L 17.08,26.24 L 17.08,25.22 L 17.15,25.16 L 17.97,24.75 L 17.97,23.67 L 18.04,23.60 L 21.57,21.85 L 21.60,21.82 L 21.60,20.74 L 21.66,20.68 L 22.49,20.26 L 22.52,20.29 L 22.52,21.34 L 22.58,21.34 L 25.19,20.04 L 25.22,20.01 L 25.22,18.93 L 25.29,18.86 L 26.15,18.45 L 26.15,17.37 L 26.21,17.30 L 27.01,16.92 L 27.04,16.95 L 27.04,17.97 L 27.10,17.97 L 27.93,17.56 L 27.93,16.48 L 27.99,16.41 L 28.82,16.00 Z" fill="#121212" stroke="none" /><path d="M 19.79,11.71 L 19.72,11.71 L 17.97,12.60 L 17.97,13.65 L 18.04,13.65 L 19.79,12.76 Z" fill="#121212" stroke="none" /><path d="M 24.33,11.58 L 23.41,12.02 L 23.41,13.14 L 22.52,13.58 L 22.52,14.70 L 22.58,14.70 L 23.41,14.28 L 23.41,13.17 L 24.33,12.69 Z" fill="#121212" stroke="none" /><path d="M 23.41,9.89 L 23.35,9.89 L 22.52,10.31 L 22.52,11.39 L 23.41,10.94 Z" fill="#121212" stroke="none" /><path d="M 27.86,7.63 L 26.15,8.49 L 26.15,9.57 L 27.86,8.72 L 27.93,8.75 L 27.93,11.99 L 27.99,11.99 L 28.82,11.58 L 28.82,8.24 L 27.96,8.65 L 27.93,8.62 L 27.93,7.63 Z" fill="#121212" stroke="none" /><path d="M 15.27,29.42 L 14.41,29.84 L 14.41,30.95 L 15.27,30.54 Z" fill="#161616" stroke="none" /><path d="M 20.71,26.72 L 20.64,26.72 L 19.79,27.17 L 19.79,28.25 L 19.75,28.28 L 17.08,29.61 L 17.08,30.66 L 17.15,30.66 L 19.79,29.33 L 19.79,28.28 L 20.71,27.80 Z" fill="#161616" stroke="none" /><path d="M 22.52,25.80 L 21.60,26.24 L 21.60,27.36 L 22.52,26.91 Z" fill="#161616" stroke="none" /><path d="M 25.22,24.46 L 25.16,24.46 L 24.33,24.87 L 24.33,25.96 L 24.27,26.02 L 23.41,26.43 L 23.41,27.51 L 25.22,26.62 Z" fill="#161616" stroke="none" /><path d="M 17.08,24.08 L 15.27,24.97 L 15.27,27.20 L 16.19,26.75 L 16.19,25.67 L 16.25,25.61 L 17.08,25.19 Z" fill="#161616" stroke="none" /><path d="M 24.33,22.68 L 24.27,22.68 L 22.52,23.57 L 22.52,24.68 L 24.33,23.79 Z" fill="#161616" stroke="none" /><path d="M 28.82,22.65 L 27.93,23.09 L 27.93,24.17 L 27.04,24.62 L 27.04,25.70 L 28.82,24.81 Z" fill="#161616" stroke="none" /><path d="M 28.82,18.23 L 28.76,18.23 L 27.93,18.64 L 27.93,19.75 L 27.90,19.79 L 26.15,20.64 L 26.15,21.73 L 26.08,21.79 L 25.22,22.20 L 25.22,23.32 L 25.29,23.32 L 27.04,22.43 L 27.04,21.34 L 27.10,21.28 L 27.93,20.87 L 27.93,19.79 L 28.82,19.34 Z" fill="#161616" stroke="none" /><path d="M 20.71,17.84 L 20.64,17.84 L 19.79,18.29 L 19.79,19.37 L 19.72,19.44 L 18.89,19.85 L 18.89,20.93 L 18.83,20.99 L 17.97,21.41 L 17.97,22.52 L 19.79,21.63 L 19.79,20.55 L 19.85,20.49 L 20.71,20.07 Z" fill="#161616" stroke="none" /><path d="M 15.27,16.13 L 15.20,16.13 L 14.41,16.54 L 14.41,18.77 L 15.27,18.35 Z" fill="#161616" stroke="none" /><path d="M 19.79,16.10 L 19.72,16.10 L 18.89,16.51 L 18.89,17.62 L 19.79,17.18 Z" fill="#161616" stroke="none" /><path d="M 24.33,16.03 L 24.27,16.03 L 22.52,16.92 L 22.52,20.23 L 22.58,20.23 L 25.22,18.89 L 25.22,17.81 L 25.16,17.81 L 23.48,18.67 L 23.41,18.64 L 23.41,17.62 L 23.48,17.56 L 24.33,17.15 Z" fill="#161616" stroke="none" /><path d="M 22.52,14.73 L 22.46,14.73 L 21.60,15.17 L 21.60,16.25 L 21.66,16.25 L 22.52,15.81 Z" fill="#161616" stroke="none" /><path d="M 27.93,14.22 L 26.15,15.11 L 26.15,16.22 L 27.01,15.81 L 27.04,15.84 L 27.04,16.89 L 27.93,16.45 Z" fill="#161616" stroke="none" /><path d="M 17.08,14.12 L 17.02,14.12 L 16.19,14.54 L 16.19,15.65 L 17.08,15.20 Z" fill="#161616" stroke="none" /><path d="M 27.93,9.80 L 27.86,9.80 L 26.18,10.66 L 26.15,10.62 L 26.15,9.57 L 25.22,10.02 L 25.22,11.13 L 26.12,10.69 L 26.15,10.72 L 26.15,11.77 L 26.21,11.77 L 27.01,11.36 L 27.04,11.39 L 27.04,12.44 L 23.41,14.25 L 23.41,15.36 L 27.93,13.11 Z" fill="#161616" stroke="none" /><path d="M 12.63,27.86 L 12.63,28.98 L 14.35,29.84 L 14.41,29.84 L 14.41,28.72 L 12.69,27.86 Z" fill="#171717" stroke="none" /><path d="M 7.22,27.36 L 7.22,28.44 L 8.05,28.85 L 8.11,28.85 L 8.11,27.86 L 8.17,27.83 L 8.97,28.25 L 9.03,28.25 L 9.03,27.23 L 9.10,27.20 L 10.82,28.06 L 10.85,28.09 L 10.85,29.17 L 11.74,29.61 L 11.74,28.50 L 10.85,28.06 L 10.85,25.83 L 9.92,25.38 L 9.92,26.43 L 9.86,26.47 L 9.03,26.05 L 9.03,27.10 L 9.00,27.13 L 8.17,26.72 L 8.11,26.72 L 8.11,27.74 L 8.08,27.77 Z" fill="#171717" stroke="none" /><path d="M 6.30,24.68 L 6.30,25.80 L 7.16,26.24 L 7.22,26.24 L 7.22,25.13 Z" fill="#171717" stroke="none" /><path d="M 0.00,19.34 L 0.00,22.65 L 0.03,22.68 L 3.53,24.43 L 3.59,24.43 L 3.59,23.38 L 3.63,23.35 L 4.42,23.76 L 4.49,23.76 L 4.49,20.45 L 3.66,20.04 L 3.59,19.98 L 3.59,18.89 L 3.56,18.86 L 2.74,18.45 L 2.67,18.45 L 2.67,19.56 L 3.53,19.98 L 3.59,20.04 L 3.59,21.06 L 3.56,21.09 L 2.74,20.68 L 2.67,20.68 L 2.67,21.76 L 3.59,22.23 L 3.59,23.28 L 3.56,23.32 L 0.95,22.01 L 0.89,21.95 L 0.89,19.75 L 0.06,19.34 Z" fill="#171717" stroke="none" /><path d="M 9.92,17.62 L 9.92,18.74 L 10.85,19.21 L 10.85,21.44 L 11.74,21.88 L 11.74,22.90 L 11.71,22.93 L 10.85,22.52 L 10.85,23.63 L 14.41,25.42 L 14.41,23.19 L 13.55,22.78 L 13.55,23.83 L 13.52,23.86 L 12.69,23.44 L 12.63,23.38 L 12.63,22.30 L 11.74,21.85 L 11.74,19.69 L 11.77,19.66 L 14.35,20.96 L 14.41,20.96 L 14.41,18.77 L 13.61,18.35 L 13.55,18.35 L 13.55,19.37 L 13.49,19.40 L 11.80,18.54 L 11.74,18.54 L 11.74,19.59 L 11.71,19.63 L 10.85,19.18 L 10.85,18.07 Z" fill="#171717" stroke="none" /><path d="M 0.00,17.11 L 0.00,18.23 L 0.83,18.64 L 0.89,18.64 L 0.89,17.53 L 0.06,17.11 Z" fill="#171717" stroke="none" /><path d="M 6.30,15.81 L 6.30,16.92 L 7.22,17.40 L 7.22,18.45 L 7.19,18.48 L 6.30,18.04 L 6.30,20.26 L 7.16,20.68 L 7.22,20.74 L 7.22,21.82 L 8.11,22.27 L 8.11,21.15 L 7.28,20.74 L 7.22,20.68 L 7.22,18.54 L 7.25,18.51 L 8.05,18.93 L 8.11,18.93 L 8.11,17.88 L 8.14,17.84 L 9.03,18.29 L 9.03,16.06 L 8.11,15.62 L 8.11,16.67 L 8.08,16.70 Z" fill="#171717" stroke="none" /><path d="M 13.55,13.96 L 13.55,15.01 L 14.35,15.43 L 14.41,15.43 L 14.41,14.38 L 13.61,13.96 Z" fill="#171717" stroke="none" /><path d="M 9.03,11.71 L 9.03,12.76 L 9.86,13.17 L 9.92,13.23 L 9.92,14.31 L 10.85,14.76 L 10.85,13.71 L 10.88,13.68 L 11.67,14.09 L 11.74,14.09 L 11.74,13.04 L 11.71,13.01 L 9.10,11.71 Z" fill="#171717" stroke="none" /><path d="M 5.41,9.89 L 5.41,10.94 L 5.44,10.97 L 8.05,12.28 L 8.11,12.28 L 8.11,11.23 L 8.08,11.20 L 5.47,9.89 Z" fill="#171717" stroke="none" /><path d="M 0.89,7.63 L 0.89,8.68 L 2.61,9.54 L 2.67,9.61 L 2.67,12.85 L 2.64,12.88 L 1.78,12.44 L 1.78,11.32 L 0.95,10.91 L 0.89,10.91 L 0.89,12.02 L 1.78,12.47 L 1.78,13.49 L 1.72,13.52 L 0.00,12.66 L 0.00,13.77 L 4.42,16.00 L 4.49,16.00 L 4.49,14.89 L 3.59,14.44 L 3.59,8.97 L 0.95,7.63 Z" fill="#171717" stroke="none" /><path d="M 19.79,27.17 L 17.08,28.50 L 17.08,29.58 L 17.02,29.65 L 16.25,30.03 L 16.19,30.00 L 16.19,28.98 L 16.13,28.98 L 15.30,29.39 L 15.27,29.42 L 15.27,30.50 L 14.41,30.95 L 14.41,32.00 L 14.47,32.00 L 15.27,31.59 L 15.27,30.54 L 15.30,30.50 L 16.16,30.09 L 16.19,30.12 L 16.19,31.11 L 16.25,31.11 L 17.08,30.70 L 17.08,29.65 L 17.15,29.58 L 19.79,28.28 Z" fill="#1a1a1a" stroke="none" /><path d="M 27.93,23.09 L 26.15,23.98 L 26.15,26.15 L 27.04,25.70 L 27.04,24.65 L 27.93,24.21 Z" fill="#1a1a1a" stroke="none" /><path d="M 15.27,22.78 L 14.41,23.19 L 14.41,24.30 L 15.27,23.89 Z" fill="#1a1a1a" stroke="none" /><path d="M 27.93,18.67 L 27.86,18.67 L 26.15,19.53 L 26.15,20.64 L 26.12,20.68 L 24.37,21.53 L 24.33,21.50 L 24.33,20.45 L 24.30,20.45 L 23.41,20.90 L 23.41,22.01 L 23.38,22.04 L 19.79,23.83 L 19.79,24.91 L 19.72,24.97 L 18.89,25.38 L 18.89,26.50 L 22.49,24.72 L 22.52,24.68 L 22.52,23.60 L 22.58,23.54 L 23.41,23.13 L 23.41,22.04 L 23.44,22.01 L 24.30,21.60 L 24.33,21.63 L 24.33,22.65 L 24.40,22.65 L 26.12,21.79 L 26.15,21.76 L 26.15,20.68 L 27.93,19.79 Z" fill="#1a1a1a" stroke="none" /><path d="M 19.79,18.29 L 18.89,18.74 L 18.89,19.82 L 18.83,19.88 L 17.97,20.29 L 17.97,21.41 L 17.94,21.44 L 17.11,21.85 L 17.08,21.82 L 17.08,20.77 L 17.02,20.77 L 16.19,21.18 L 16.19,22.30 L 16.25,22.30 L 17.05,21.88 L 17.08,21.92 L 17.08,22.97 L 17.97,22.52 L 17.97,21.44 L 18.89,20.96 L 18.89,19.88 L 18.96,19.82 L 19.79,19.40 Z" fill="#1a1a1a" stroke="none" /><path d="M 16.19,14.57 L 16.13,14.57 L 15.27,15.01 L 15.27,16.10 L 15.33,16.10 L 16.19,15.65 Z" fill="#1a1a1a" stroke="none" /><path d="M 27.04,11.36 L 26.97,11.36 L 26.18,11.77 L 26.15,11.74 L 26.15,10.69 L 26.08,10.69 L 24.40,11.55 L 24.33,11.51 L 24.33,10.50 L 24.27,10.50 L 23.44,10.91 L 23.41,10.94 L 23.41,12.02 L 21.60,12.95 L 21.60,14.03 L 21.53,14.09 L 20.71,14.50 L 20.71,15.59 L 20.64,15.65 L 19.79,16.06 L 19.79,17.18 L 21.60,16.29 L 21.60,14.09 L 21.66,14.03 L 23.38,13.17 L 23.41,13.20 L 23.41,14.25 L 23.48,14.25 L 27.04,12.47 Z" fill="#1a1a1a" stroke="none" /><path d="M 27.93,8.68 L 27.04,9.13 L 27.04,10.21 L 27.10,10.21 L 27.93,9.80 Z" fill="#1a1a1a" stroke="none" /><path d="M 10.85,29.17 L 10.85,30.25 L 11.67,30.66 L 11.74,30.66 L 11.74,29.61 Z" fill="#1d1d1d" stroke="none" /><path d="M 14.41,26.53 L 13.61,26.12 L 13.55,26.12 L 13.55,27.13 L 13.52,27.17 L 12.69,26.75 L 12.63,26.75 L 12.63,27.80 L 12.60,27.83 L 10.91,26.97 L 10.85,26.97 L 10.85,28.09 L 12.56,28.95 L 12.63,28.95 L 12.63,27.90 L 12.66,27.86 L 14.35,28.72 L 14.41,28.72 Z" fill="#1d1d1d" stroke="none" /><path d="M 9.03,23.86 L 9.03,24.94 L 9.92,25.38 L 9.92,24.27 L 9.10,23.86 Z" fill="#1d1d1d" stroke="none" /><path d="M 1.81,23.54 L 1.78,23.54 L 1.78,24.59 L 1.75,24.62 L 0.95,24.21 L 0.89,24.21 L 0.89,25.26 L 1.75,25.70 L 1.78,25.70 L 1.78,24.68 L 1.81,24.65 L 2.61,25.07 L 2.67,25.07 L 2.67,23.98 Z" fill="#1d1d1d" stroke="none" /><path d="M 9.10,13.87 L 9.03,13.87 L 9.03,14.92 L 9.00,14.95 L 8.11,14.50 L 8.11,15.62 L 8.97,16.06 L 9.03,16.06 L 9.03,15.01 L 9.07,14.98 L 9.86,15.40 L 9.92,15.40 L 9.92,14.28 Z" fill="#1d1d1d" stroke="none" /><path d="M 3.59,13.36 L 3.59,14.47 L 4.49,14.92 L 4.49,16.03 L 6.23,16.89 L 6.30,16.95 L 6.30,18.04 L 7.22,18.51 L 7.22,20.64 L 7.16,20.68 L 6.30,20.23 L 6.30,19.15 L 5.44,18.70 L 5.41,18.70 L 5.41,19.75 L 5.38,19.79 L 3.59,18.89 L 3.59,19.94 L 3.53,19.98 L 2.67,19.53 L 2.67,18.42 L 0.95,17.56 L 0.89,17.56 L 0.89,18.61 L 0.86,18.64 L 0.06,18.23 L 0.00,18.23 L 0.00,19.34 L 0.83,19.75 L 0.89,19.75 L 0.89,18.70 L 0.92,18.67 L 2.67,19.56 L 2.67,20.61 L 2.64,20.64 L 1.84,20.23 L 1.78,20.23 L 1.78,21.25 L 1.75,21.28 L 0.89,20.87 L 0.89,21.98 L 3.56,23.32 L 3.59,23.35 L 3.59,24.46 L 6.23,25.77 L 6.30,25.83 L 6.30,26.85 L 6.27,26.88 L 5.47,26.47 L 5.41,26.47 L 5.41,27.51 L 5.44,27.55 L 7.16,28.41 L 7.22,28.41 L 7.22,26.31 L 7.25,26.27 L 8.97,27.13 L 9.03,27.20 L 9.03,28.21 L 9.00,28.25 L 8.11,27.80 L 8.11,28.88 L 9.03,29.33 L 9.03,28.31 L 9.07,28.28 L 9.86,28.69 L 9.92,28.69 L 9.92,27.61 L 9.10,27.20 L 9.03,27.13 L 9.03,26.05 L 7.28,25.16 L 7.22,25.16 L 7.22,26.21 L 7.19,26.24 L 6.36,25.83 L 6.30,25.77 L 6.30,24.68 L 6.27,24.65 L 3.59,23.32 L 3.59,22.20 L 2.74,21.79 L 2.67,21.73 L 2.67,20.71 L 2.70,20.68 L 3.59,21.12 L 3.59,20.07 L 3.66,20.04 L 7.19,21.82 L 7.22,21.82 L 7.22,20.77 L 7.28,20.74 L 8.05,21.12 L 8.11,21.18 L 8.11,22.27 L 8.14,22.30 L 10.82,23.63 L 10.85,23.63 L 10.85,22.58 L 10.88,22.55 L 11.74,22.97 L 11.74,21.92 L 11.77,21.88 L 12.63,22.33 L 12.63,23.41 L 13.49,23.86 L 13.55,23.86 L 13.55,22.84 L 13.58,22.81 L 14.35,23.19 L 14.41,23.19 L 14.41,20.96 L 13.55,20.55 L 13.55,22.71 L 13.52,22.74 L 12.63,22.30 L 12.63,21.18 L 11.80,20.77 L 11.74,20.77 L 11.74,21.82 L 11.71,21.85 L 10.88,21.44 L 10.85,21.41 L 10.85,19.24 L 10.88,19.21 L 11.67,19.63 L 11.74,19.63 L 11.74,18.51 L 10.91,18.10 L 10.85,18.10 L 10.85,19.15 L 10.82,19.18 L 9.99,18.77 L 9.92,18.70 L 9.92,17.62 L 9.03,17.18 L 9.03,18.29 L 9.86,18.70 L 9.92,18.77 L 9.92,19.79 L 9.89,19.82 L 9.03,19.40 L 9.03,20.52 L 10.85,21.44 L 10.85,22.46 L 10.78,22.49 L 8.17,21.18 L 8.11,21.12 L 8.11,18.93 L 7.22,18.48 L 7.22,17.37 L 6.36,16.95 L 6.30,16.89 L 6.30,15.81 L 4.52,14.92 L 4.49,14.89 L 4.49,13.81 Z" fill="#1d1d1d" stroke="none" /><path d="M 11.74,13.04 L 11.74,14.12 L 13.49,14.98 L 13.55,15.05 L 13.55,18.35 L 14.41,18.77 L 14.41,15.43 L 13.61,15.05 L 13.55,14.98 L 13.55,13.93 Z" fill="#1d1d1d" stroke="none" /><path d="M 8.11,11.23 L 8.11,12.31 L 9.03,12.76 L 9.03,11.67 Z" fill="#1d1d1d" stroke="none" /><path d="M 3.59,8.97 L 3.59,10.05 L 5.41,10.94 L 5.41,9.86 Z" fill="#1d1d1d" stroke="none" /><path d="M 0.00,7.19 L 0.00,9.35 L 0.89,9.80 L 0.89,10.91 L 1.78,11.36 L 1.78,12.41 L 1.75,12.44 L 0.06,11.58 L 0.00,11.58 L 0.00,12.66 L 1.78,13.55 L 1.78,12.50 L 1.81,12.47 L 2.61,12.88 L 2.67,12.88 L 2.67,10.66 L 0.89,9.77 L 0.89,7.60 L 0.06,7.19 Z" fill="#1d1d1d" stroke="none" /><path d="M 19.79,22.74 L 19.72,22.74 L 18.89,23.16 L 18.89,25.38 L 19.79,24.94 Z" fill="#1e1e1f" stroke="none" /><path d="M 22.52,21.38 L 22.46,21.38 L 21.60,21.82 L 21.60,22.93 L 22.52,22.49 Z" fill="#1e1e1f" stroke="none" /><path d="M 26.15,19.56 L 26.08,19.56 L 25.22,20.01 L 25.22,21.12 L 26.15,20.68 Z" fill="#1e1e1f" stroke="none" /><path d="M 18.89,18.74 L 17.97,19.18 L 17.97,20.29 L 17.11,20.74 L 17.08,20.71 L 17.08,19.66 L 17.02,19.66 L 16.19,20.07 L 16.19,21.18 L 14.41,22.08 L 14.41,23.19 L 14.47,23.19 L 15.24,22.81 L 15.27,22.84 L 15.27,23.86 L 15.33,23.86 L 17.05,23.00 L 17.08,22.97 L 17.08,21.88 L 17.97,21.44 L 17.97,20.33 L 18.89,19.85 Z" fill="#1e1e1f" stroke="none" /><path d="M 22.52,13.61 L 22.46,13.61 L 21.63,14.03 L 21.60,14.00 L 21.60,12.95 L 20.74,13.36 L 20.71,13.33 L 20.71,12.31 L 20.64,12.31 L 19.82,12.72 L 19.79,12.76 L 19.79,13.84 L 18.89,14.28 L 18.89,15.40 L 17.97,15.87 L 17.97,16.99 L 20.68,15.65 L 20.71,15.62 L 20.71,14.54 L 20.77,14.47 L 21.53,14.09 L 21.60,14.12 L 21.60,15.17 L 22.52,14.73 Z" fill="#1e1e1f" stroke="none" /><path d="M 27.04,9.13 L 26.15,9.57 L 26.15,10.66 L 26.21,10.66 L 27.04,10.24 Z" fill="#1e1e1f" stroke="none" /><path d="M 21.60,21.82 L 19.79,22.71 L 19.79,23.83 L 19.85,23.83 L 21.60,22.93 Z" fill="#232323" stroke="none" /><path d="M 23.41,20.93 L 23.35,20.93 L 22.52,21.34 L 22.52,22.46 L 22.58,22.46 L 23.41,22.04 Z" fill="#232323" stroke="none" /><path d="M 16.19,20.10 L 16.13,20.10 L 14.41,20.96 L 14.41,22.08 L 14.47,22.08 L 16.19,21.22 Z" fill="#232323" stroke="none" /><path d="M 25.22,20.01 L 24.33,20.45 L 24.33,21.57 L 25.22,21.12 Z" fill="#232323" stroke="none" /><path d="M 17.97,19.21 L 17.91,19.21 L 17.08,19.63 L 17.08,20.74 L 17.15,20.74 L 17.97,20.33 Z" fill="#232323" stroke="none" /><path d="M 19.79,12.76 L 17.97,13.65 L 17.97,15.87 L 18.89,15.43 L 18.89,14.31 L 19.79,13.87 Z" fill="#232323" stroke="none" /><path d="M 23.41,10.94 L 20.71,12.28 L 20.71,13.39 L 23.41,12.06 Z" fill="#232323" stroke="none" /><path d="M 13.55,29.42 L 13.55,30.47 L 13.52,30.50 L 12.63,30.06 L 12.63,31.14 L 14.35,32.00 L 14.41,32.00 L 14.41,29.84 Z" fill="#242323" stroke="none" /><path d="M 9.92,27.61 L 9.92,28.66 L 9.89,28.69 L 9.10,28.28 L 9.03,28.28 L 9.03,29.33 L 10.78,30.22 L 10.85,30.22 L 10.85,28.06 Z" fill="#242323" stroke="none" /><path d="M 7.22,26.27 L 7.22,27.36 L 8.11,27.80 L 8.11,26.69 L 7.28,26.27 Z" fill="#242323" stroke="none" /><path d="M 2.67,25.10 L 2.67,26.15 L 2.70,26.18 L 5.38,27.51 L 5.41,27.51 L 5.41,26.50 L 5.44,26.47 L 6.23,26.88 L 6.30,26.88 L 6.30,25.80 L 5.44,25.35 L 5.41,25.35 L 5.41,26.40 L 5.38,26.43 L 2.74,25.10 Z" fill="#242323" stroke="none" /><path d="M 14.41,25.42 L 13.61,25.00 L 13.55,25.00 L 13.55,26.05 L 13.52,26.08 L 11.74,25.19 L 11.74,26.24 L 11.71,26.27 L 10.91,25.86 L 10.85,25.86 L 10.85,26.97 L 12.56,27.83 L 12.63,27.83 L 12.63,26.78 L 12.66,26.75 L 13.55,27.20 L 13.55,26.15 L 13.58,26.12 L 14.41,26.53 Z" fill="#242323" stroke="none" /><path d="M 8.11,24.49 L 8.11,25.61 L 9.92,26.50 L 9.92,25.38 L 8.17,24.49 Z" fill="#242323" stroke="none" /><path d="M 0.00,22.65 L 0.00,23.76 L 0.83,24.17 L 0.89,24.17 L 0.89,23.09 Z" fill="#242323" stroke="none" /><path d="M 11.74,19.66 L 11.74,20.77 L 12.63,21.22 L 12.63,22.33 L 13.55,22.78 L 13.55,20.55 L 11.80,19.66 Z" fill="#242323" stroke="none" /><path d="M 0.89,18.67 L 0.89,20.87 L 1.78,21.31 L 1.78,20.26 L 1.81,20.23 L 2.61,20.64 L 2.67,20.64 L 2.67,19.53 L 0.95,18.67 Z" fill="#242323" stroke="none" /><path d="M 8.11,17.84 L 8.11,21.15 L 10.85,22.52 L 10.85,21.41 L 9.10,20.55 L 9.03,20.49 L 9.03,19.47 L 9.07,19.44 L 9.92,19.85 L 9.92,18.74 L 8.17,17.84 Z" fill="#242323" stroke="none" /><path d="M 5.44,16.48 L 5.41,16.48 L 5.41,17.53 L 5.38,17.56 L 4.55,17.15 L 4.49,17.15 L 4.49,18.19 L 4.45,18.23 L 3.66,17.81 L 3.59,17.81 L 3.59,18.89 L 5.34,19.79 L 5.41,19.79 L 5.41,18.77 L 5.44,18.74 L 6.30,19.15 L 6.30,16.92 Z" fill="#242323" stroke="none" /><path d="M 7.22,15.17 L 7.22,16.29 L 8.05,16.70 L 8.11,16.70 L 8.11,15.62 Z" fill="#242323" stroke="none" /><path d="M 4.49,13.81 L 4.49,14.92 L 5.41,15.36 L 5.41,14.25 Z" fill="#242323" stroke="none" /><path d="M 10.85,13.68 L 10.85,14.76 L 11.67,15.17 L 11.74,15.24 L 11.74,16.32 L 12.56,16.73 L 12.63,16.80 L 12.63,17.81 L 12.56,17.84 L 9.10,16.10 L 9.03,16.10 L 9.03,17.18 L 13.55,19.44 L 13.55,16.10 L 11.80,15.24 L 11.74,15.17 L 11.74,14.09 L 10.91,13.68 Z" fill="#242323" stroke="none" /><path d="M 0.00,9.35 L 0.00,11.58 L 0.83,11.99 L 0.89,11.99 L 0.89,9.77 L 0.06,9.35 Z" fill="#242323" stroke="none" /><path d="M 1.78,9.13 L 1.78,10.24 L 2.61,10.66 L 2.67,10.66 L 2.67,9.57 Z" fill="#242323" stroke="none" /><path d="M 13.55,13.93 L 13.55,13.96 L 14.38,14.38 L 14.44,14.38 L 15.27,13.96 L 15.27,13.93 L 14.44,13.52 L 14.38,13.52 Z" fill="#242424" stroke="none" /><path d="M 16.22,12.63 L 17.05,13.04 L 17.11,13.04 L 19.79,11.71 L 19.79,11.67 L 18.96,11.26 L 18.89,11.26 L 18.04,11.71 L 17.18,11.26 L 17.08,11.26 L 16.25,11.67 L 16.25,11.74 L 17.08,12.15 L 17.02,12.21 L 16.22,12.60 Z" fill="#242424" stroke="none" /><path d="M 23.41,9.86 L 22.58,9.45 L 22.52,9.45 L 19.85,10.78 L 19.85,10.82 L 20.64,11.23 L 20.74,11.23 L 23.41,9.89 Z" fill="#242424" stroke="none" /><path d="M 9.03,11.71 L 10.85,12.60 L 11.67,12.18 L 11.67,12.15 L 10.82,11.71 L 12.60,10.82 L 12.60,10.78 L 11.80,10.40 L 11.77,10.37 L 11.80,10.31 L 12.56,9.92 L 12.66,9.92 L 13.46,10.34 L 13.55,10.34 L 14.38,9.92 L 14.38,9.86 L 13.55,9.45 L 13.49,9.45 L 12.60,9.89 L 10.85,9.00 L 10.75,9.00 L 9.92,9.42 L 9.92,9.48 L 11.61,10.31 L 11.64,10.37 L 9.03,11.67 Z" fill="#242424" stroke="none" /><path d="M 9.89,8.52 L 8.97,8.08 L 5.41,9.86 L 5.41,9.89 L 7.19,10.78 L 7.25,10.78 L 8.08,10.37 L 8.08,10.34 L 7.28,9.96 L 7.22,9.89 L 7.25,9.86 L 8.08,9.45 L 8.94,9.89 L 9.03,9.89 L 9.86,9.48 L 9.86,9.42 L 9.03,9.00 L 9.10,8.94 L 9.89,8.56 Z" fill="#242424" stroke="none" /><path d="M 4.42,7.60 L 3.59,7.19 L 3.50,7.19 L 1.78,8.05 L 1.78,8.08 L 2.70,8.52 L 4.42,7.67 Z" fill="#242424" stroke="none" /><path d="M 11.71,6.71 L 11.74,6.78 L 12.56,7.19 L 12.63,7.19 L 13.52,6.74 L 15.24,7.60 L 15.27,7.63 L 15.20,7.70 L 14.41,8.08 L 14.41,8.11 L 15.20,8.49 L 15.27,8.56 L 14.44,8.97 L 14.44,9.03 L 16.16,9.89 L 16.25,9.89 L 17.08,9.48 L 17.08,9.42 L 16.29,9.03 L 16.25,9.00 L 16.32,8.94 L 18.00,8.11 L 17.97,8.05 L 17.15,7.63 L 16.25,8.08 L 16.19,8.08 L 15.43,7.70 L 15.36,7.63 L 15.40,7.60 L 16.19,7.22 L 16.19,7.16 L 14.47,6.30 L 14.35,6.30 L 13.55,6.71 L 13.46,6.71 L 12.66,6.30 L 12.53,6.30 Z" fill="#242424" stroke="none" /><path d="M 18.96,6.71 L 18.99,6.78 L 19.82,7.19 L 20.71,6.74 L 20.77,6.74 L 25.19,8.97 L 25.26,8.97 L 27.93,7.63 L 27.90,7.57 L 27.13,7.19 L 27.04,7.19 L 25.26,8.08 L 22.65,6.78 L 22.62,6.74 L 22.65,6.68 L 23.41,6.30 L 23.51,6.30 L 24.30,6.71 L 24.43,6.71 L 25.26,6.30 L 25.22,6.23 L 24.40,5.82 L 24.33,5.82 L 23.48,6.27 L 22.62,5.85 L 22.58,5.82 L 22.62,5.79 L 24.30,4.96 L 24.27,4.90 L 23.44,4.49 Z" fill="#242424" stroke="none" /><path d="M 8.97,4.45 L 8.97,4.49 L 9.86,4.93 L 10.78,4.49 L 10.78,4.45 L 9.89,4.01 Z" fill="#242424" stroke="none" /><path d="M 8.05,4.01 L 7.25,3.59 L 7.16,3.59 L 6.33,4.01 L 6.33,4.07 L 7.06,4.42 L 7.09,4.49 L 6.27,4.90 L 6.27,4.93 L 7.09,5.34 L 7.13,5.38 L 7.09,5.41 L 5.38,6.27 L 4.49,5.82 L 4.42,5.82 L 3.59,6.23 L 3.56,6.30 L 4.39,6.71 L 4.52,6.71 L 5.31,6.30 L 5.41,6.30 L 7.16,7.19 L 8.08,6.74 L 8.08,6.71 L 7.28,6.33 L 7.22,6.27 L 8.05,5.85 L 8.05,5.82 L 7.19,5.38 L 8.05,4.93 L 8.05,4.90 L 7.22,4.49 L 7.25,4.42 L 8.05,4.04 Z" fill="#242424" stroke="none" /><path d="M 18.96,3.09 L 18.99,3.15 L 19.82,3.56 L 19.88,3.56 L 20.71,3.15 L 20.71,3.12 L 19.82,2.67 Z" fill="#242424" stroke="none" /><path d="M 18.86,2.19 L 16.16,0.86 L 12.60,2.64 L 12.60,2.67 L 13.39,3.05 L 13.46,3.12 L 12.63,3.53 L 12.63,3.59 L 15.30,4.93 L 16.19,4.49 L 16.25,4.49 L 17.15,4.93 L 18.04,4.49 L 18.04,4.45 L 17.15,4.01 L 16.25,4.45 L 16.19,4.45 L 15.43,4.07 L 15.36,4.01 L 16.19,3.59 L 16.19,3.53 L 15.36,3.12 L 15.27,3.12 L 14.41,3.56 L 13.55,3.12 L 13.61,3.05 L 16.22,1.75 L 17.97,2.64 L 18.10,2.64 L 18.86,2.26 Z" fill="#242424" stroke="none" /><path d="M 11.74,28.53 L 11.74,30.70 L 12.56,31.11 L 12.63,31.11 L 12.63,30.12 L 12.66,30.09 L 13.49,30.50 L 13.55,30.50 L 13.55,29.42 L 11.80,28.53 Z" fill="#2a2a2a" stroke="none" /><path d="M 0.00,23.76 L 0.00,24.81 L 0.03,24.84 L 0.89,25.26 L 0.89,24.24 L 0.92,24.21 L 1.78,24.65 L 1.78,25.70 L 2.64,26.15 L 2.67,26.15 L 2.67,25.13 L 2.70,25.10 L 5.34,26.43 L 5.41,26.43 L 5.41,25.35 L 5.38,25.32 L 2.70,23.98 L 2.67,23.98 L 2.67,25.03 L 2.64,25.07 L 1.78,24.62 L 1.78,23.54 L 0.92,23.09 L 0.89,23.09 L 0.89,24.14 L 0.86,24.17 L 0.06,23.76 Z" fill="#2a2a2a" stroke="none" /><path d="M 4.49,22.68 L 4.49,23.79 L 8.05,25.57 L 8.11,25.57 L 8.11,24.52 L 8.14,24.49 L 9.03,24.94 L 9.03,23.89 L 9.07,23.86 L 9.92,24.30 L 9.92,25.38 L 9.96,25.42 L 11.67,26.27 L 11.74,26.27 L 11.74,25.26 L 11.77,25.22 L 13.49,26.08 L 13.55,26.08 L 13.55,24.97 L 11.74,24.08 L 11.74,25.13 L 11.67,25.16 L 9.96,24.30 L 9.92,24.27 L 9.92,23.16 L 9.10,22.74 L 9.03,22.74 L 9.03,23.79 L 9.00,23.83 L 5.47,22.04 L 5.41,22.04 L 5.41,23.06 L 5.38,23.09 L 4.55,22.68 Z" fill="#2a2a2a" stroke="none" /><path d="M 0.00,16.00 L 0.00,17.11 L 0.83,17.53 L 0.89,17.53 L 0.89,16.45 Z" fill="#2a2a2a" stroke="none" /><path d="M 1.78,15.78 L 1.78,16.89 L 2.61,17.30 L 2.67,17.37 L 2.67,18.45 L 3.59,18.89 L 3.59,17.84 L 3.63,17.81 L 4.42,18.23 L 4.49,18.23 L 4.49,17.18 L 4.52,17.15 L 5.41,17.59 L 5.41,16.48 L 5.38,16.45 L 4.55,16.03 L 4.49,16.03 L 4.49,17.08 L 4.45,17.11 L 3.66,16.70 L 3.59,16.70 L 3.59,17.75 L 3.56,17.78 L 2.74,17.37 L 2.67,17.30 L 2.67,16.22 Z" fill="#2a2a2a" stroke="none" /><path d="M 12.63,14.57 L 12.63,15.65 L 13.49,16.10 L 13.55,16.10 L 13.55,15.01 L 12.69,14.57 Z" fill="#2a2a2a" stroke="none" /><path d="M 5.41,14.28 L 5.41,15.36 L 7.16,16.25 L 7.22,16.25 L 7.22,14.12 L 7.28,14.09 L 9.03,14.98 L 9.03,16.10 L 12.63,17.88 L 12.63,16.76 L 11.80,16.35 L 11.74,16.29 L 11.74,15.20 L 9.96,14.31 L 9.92,14.28 L 9.92,13.20 L 9.07,12.76 L 9.03,12.76 L 9.03,13.81 L 9.00,13.84 L 7.22,12.95 L 7.22,14.00 L 7.19,14.03 L 6.36,13.61 L 6.30,13.61 L 6.30,14.66 L 6.27,14.70 L 5.47,14.28 Z" fill="#2a2a2a" stroke="none" /><path d="M 0.89,8.68 L 0.89,9.80 L 1.72,10.21 L 1.78,10.21 L 1.78,9.13 Z" fill="#2a2a2a" stroke="none" /><path d="M 17.05,13.01 L 16.29,12.63 L 16.16,12.63 L 14.44,13.49 L 14.44,13.55 L 15.20,13.93 L 15.33,13.93 L 17.05,13.07 Z" fill="#2c2c2c" stroke="none" /><path d="M 10.85,12.56 L 10.88,12.63 L 13.49,13.93 L 13.61,13.93 L 14.38,13.55 L 14.38,13.49 L 11.71,12.15 Z" fill="#2c2c2c" stroke="none" /><path d="M 18.96,11.23 L 18.96,11.29 L 19.72,11.67 L 19.85,11.67 L 20.68,11.26 L 20.64,11.20 L 19.88,10.82 L 19.79,10.82 Z" fill="#2c2c2c" stroke="none" /><path d="M 17.08,9.45 L 16.22,9.89 L 16.22,9.92 L 17.05,10.34 L 17.02,10.40 L 16.22,10.78 L 16.22,10.82 L 17.15,11.26 L 18.00,10.82 L 18.00,10.78 L 17.18,10.37 L 17.21,10.31 L 18.00,9.92 L 18.00,9.89 L 17.15,9.45 Z" fill="#2c2c2c" stroke="none" /><path d="M 13.55,9.42 L 13.55,9.48 L 14.38,9.89 L 14.44,9.89 L 15.27,9.48 L 15.27,9.42 L 14.44,9.00 L 14.38,9.00 Z" fill="#2c2c2c" stroke="none" /><path d="M 25.19,8.94 L 24.43,8.56 L 24.30,8.56 L 22.58,9.42 L 22.58,9.48 L 23.35,9.86 L 23.48,9.86 L 25.19,9.00 Z" fill="#2c2c2c" stroke="none" /><path d="M 13.49,8.52 L 12.66,8.11 L 12.53,8.11 L 10.85,8.97 L 10.75,8.97 L 9.99,8.59 L 9.96,8.56 L 9.99,8.49 L 12.56,7.22 L 12.56,7.16 L 11.74,6.74 L 11.64,6.74 L 9.03,8.05 L 9.00,8.11 L 9.80,8.49 L 9.83,8.56 L 9.00,8.97 L 9.00,9.00 L 9.86,9.45 L 9.00,9.89 L 8.11,9.45 L 8.05,9.45 L 7.22,9.86 L 7.19,9.92 L 8.02,10.34 L 7.98,10.40 L 7.25,10.75 L 7.25,10.82 L 8.97,11.67 L 9.10,11.67 L 9.86,11.29 L 9.86,11.23 L 8.17,10.40 L 8.14,10.34 L 8.94,9.92 L 9.03,9.92 L 9.83,10.34 L 9.96,10.34 L 10.78,9.92 L 10.75,9.86 L 9.92,9.45 L 10.78,9.00 L 12.53,9.86 L 12.56,9.89 L 12.50,9.96 L 11.71,10.34 L 11.71,10.37 L 12.53,10.78 L 12.66,10.78 L 13.49,10.37 L 13.46,10.31 L 12.72,9.96 L 12.66,9.89 L 13.49,9.48 L 13.49,9.42 L 12.66,9.00 L 12.72,8.94 L 13.46,8.59 Z" fill="#2c2c2c" stroke="none" /><path d="M 8.08,6.71 L 8.08,6.74 L 8.97,7.19 L 9.86,6.74 L 9.86,6.71 L 9.03,6.30 L 8.91,6.30 Z" fill="#2c2c2c" stroke="none" /><path d="M 6.27,6.71 L 5.34,6.27 L 3.56,7.16 L 3.59,7.22 L 4.42,7.63 L 2.70,8.49 L 2.70,8.52 L 4.45,9.42 L 4.55,9.42 L 5.31,9.03 L 5.34,8.97 L 4.55,8.59 L 4.52,8.52 L 5.34,8.11 L 5.34,8.08 L 4.49,7.63 L 6.27,6.74 Z" fill="#2c2c2c" stroke="none" /><path d="M 2.70,5.82 L 2.74,5.88 L 3.50,6.27 L 3.59,6.27 L 4.42,5.85 L 4.42,5.79 L 3.66,5.41 L 3.53,5.41 Z" fill="#2c2c2c" stroke="none" /><path d="M 22.58,5.79 L 22.58,5.85 L 23.41,6.27 L 23.35,6.33 L 22.55,6.71 L 22.55,6.74 L 24.33,7.63 L 24.40,7.63 L 26.15,6.74 L 26.21,6.74 L 27.90,7.60 L 27.99,7.60 L 28.79,7.19 L 28.79,7.16 L 27.07,6.30 L 27.01,6.30 L 26.21,6.71 L 26.15,6.71 L 25.29,6.27 L 24.40,6.71 L 24.33,6.71 L 23.57,6.33 L 23.51,6.27 L 23.54,6.23 L 25.22,5.41 L 25.22,5.38 L 24.33,4.93 Z" fill="#2c2c2c" stroke="none" /><path d="M 6.33,4.04 L 6.27,4.04 L 5.41,4.49 L 5.41,4.52 L 6.14,4.87 L 6.20,4.93 L 5.38,5.34 L 5.38,5.38 L 6.23,5.82 L 6.30,5.82 L 7.13,5.41 L 7.13,5.34 L 6.30,4.93 L 6.36,4.87 L 7.16,4.49 L 7.16,4.45 Z" fill="#2c2c2c" stroke="none" /><path d="M 21.63,7.19 L 21.63,7.16 L 20.80,6.74 L 20.68,6.74 L 19.88,7.16 L 19.79,7.16 L 18.99,6.74 L 18.89,6.74 L 17.15,7.63 L 16.25,7.19 L 16.19,7.19 L 15.30,7.63 L 13.55,6.74 L 13.61,6.68 L 14.38,6.30 L 14.44,6.30 L 15.30,6.74 L 16.22,6.30 L 16.22,6.27 L 15.43,5.88 L 15.36,5.82 L 17.11,4.93 L 17.11,4.90 L 16.32,4.52 L 16.29,4.49 L 16.32,4.42 L 17.08,4.04 L 17.18,4.04 L 17.97,4.45 L 18.10,4.45 L 19.82,3.59 L 19.82,3.53 L 18.99,3.12 L 19.05,3.05 L 19.79,2.70 L 19.79,2.67 L 18.93,2.23 L 18.86,2.23 L 18.04,2.64 L 18.04,2.67 L 18.83,3.05 L 18.89,3.12 L 17.15,4.01 L 16.25,3.56 L 17.11,3.12 L 17.11,3.09 L 16.29,2.67 L 16.32,2.61 L 17.11,2.23 L 17.11,2.19 L 16.25,1.75 L 16.19,1.75 L 13.55,3.09 L 13.46,3.09 L 12.66,2.67 L 12.53,2.67 L 9.89,4.01 L 9.00,3.56 L 9.86,3.12 L 9.86,3.09 L 9.03,2.67 L 7.22,3.56 L 7.25,3.63 L 8.91,4.45 L 8.87,4.52 L 7.19,5.34 L 7.19,5.41 L 8.02,5.82 L 8.11,5.82 L 9.86,4.93 L 9.86,4.90 L 9.03,4.49 L 9.07,4.42 L 9.83,4.04 L 9.92,4.04 L 10.72,4.45 L 10.85,4.45 L 13.49,3.12 L 14.38,3.56 L 14.44,3.56 L 15.30,3.12 L 16.16,3.53 L 16.19,3.56 L 16.16,3.59 L 15.33,4.01 L 15.33,4.04 L 16.13,4.42 L 16.16,4.45 L 16.13,4.52 L 12.60,6.27 L 12.60,6.30 L 13.39,6.68 L 13.46,6.74 L 12.63,7.16 L 12.63,7.22 L 14.35,8.08 L 14.47,8.08 L 15.27,7.67 L 15.36,7.67 L 16.16,8.08 L 16.29,8.08 L 17.08,7.67 L 17.18,7.67 L 17.97,8.08 L 18.07,8.08 L 19.82,7.19 L 20.71,7.63 L 20.77,7.63 Z" fill="#2c2c2c" stroke="none" /><path d="M 13.58,0.41 L 13.52,0.41 L 12.66,0.86 L 12.66,0.89 L 13.39,1.24 L 13.46,1.30 L 12.63,1.72 L 12.63,1.78 L 13.46,2.19 L 13.55,2.19 L 14.38,1.78 L 14.38,1.72 L 13.55,1.30 L 13.61,1.24 L 14.41,0.86 L 14.41,0.83 Z" fill="#2c2c2c" stroke="none" /><path d="M 10.85,23.63 L 10.85,24.75 L 11.74,25.19 L 11.74,24.08 Z" fill="#303133" stroke="none" /><path d="M 7.22,21.82 L 7.22,22.93 L 8.11,23.38 L 8.11,22.27 Z" fill="#303133" stroke="none" /><path d="M 4.49,20.45 L 4.49,22.68 L 5.41,23.13 L 5.41,20.90 Z" fill="#303133" stroke="none" /><path d="M 0.00,14.89 L 0.00,16.00 L 0.83,16.41 L 0.89,16.48 L 0.89,17.56 L 2.61,18.42 L 2.67,18.42 L 2.67,17.40 L 2.70,17.37 L 3.53,17.78 L 3.59,17.78 L 3.59,16.73 L 3.63,16.70 L 4.42,17.11 L 4.49,17.11 L 4.49,16.00 L 3.66,15.59 L 3.59,15.59 L 3.59,16.64 L 3.56,16.67 L 2.74,16.25 L 2.67,16.19 L 2.67,15.11 L 1.81,14.66 L 1.78,14.66 L 1.78,15.71 L 1.75,15.75 Z" fill="#303133" stroke="none" /><path d="M 11.74,14.12 L 11.74,15.20 L 12.63,15.65 L 12.63,14.54 L 11.80,14.12 Z" fill="#303133" stroke="none" /><path d="M 3.59,12.25 L 3.59,13.36 L 3.63,13.39 L 6.23,14.70 L 6.30,14.70 L 6.30,13.65 L 6.33,13.61 L 7.16,14.03 L 7.22,14.09 L 7.22,15.17 L 8.11,15.62 L 8.11,14.50 L 7.28,14.09 L 7.22,14.03 L 7.22,12.95 L 6.30,12.47 L 6.30,11.39 L 6.27,11.36 L 5.41,10.94 L 5.41,11.99 L 5.38,12.02 L 4.49,11.58 L 4.49,12.63 L 4.45,12.66 Z" fill="#303133" stroke="none" /><path d="M 8.08,10.34 L 8.08,10.37 L 9.86,11.26 L 9.92,11.26 L 11.71,10.37 L 11.71,10.34 L 10.82,9.89 L 9.92,10.34 L 9.86,10.34 L 9.00,9.89 Z" fill="#373636" stroke="none" /><path d="M 17.11,12.18 L 17.08,12.12 L 16.25,11.71 L 16.19,11.71 L 15.33,12.15 L 14.44,11.71 L 14.38,11.71 L 13.49,12.15 L 12.63,11.71 L 16.19,9.92 L 16.16,9.86 L 15.33,9.45 L 15.27,9.45 L 10.82,11.67 L 10.82,11.74 L 13.49,13.07 L 15.27,12.18 L 15.36,12.18 L 16.16,12.60 L 16.29,12.60 Z" fill="#373636" stroke="none" /><path d="M 16.22,8.97 L 16.25,9.03 L 17.08,9.45 L 17.15,9.45 L 18.00,9.00 L 18.00,8.97 L 17.18,8.56 L 17.05,8.56 Z" fill="#373636" stroke="none" /><path d="M 24.40,7.60 L 24.40,7.67 L 25.22,8.08 L 25.32,8.08 L 26.15,7.67 L 26.15,7.60 L 25.32,7.19 L 25.22,7.19 Z" fill="#373636" stroke="none" /><path d="M 18.96,7.60 L 18.96,7.67 L 19.79,8.08 L 19.88,8.08 L 20.71,7.67 L 20.71,7.60 L 19.88,7.19 L 19.79,7.19 Z" fill="#373636" stroke="none" /><path d="M 9.89,8.52 L 9.89,8.56 L 10.82,9.00 L 12.56,8.11 L 12.63,8.11 L 13.39,8.49 L 13.46,8.56 L 12.63,8.97 L 12.63,9.00 L 13.49,9.45 L 13.55,9.45 L 15.30,8.56 L 15.30,8.52 L 12.63,7.19 L 12.56,7.19 Z" fill="#373636" stroke="none" /><path d="M 6.33,6.74 L 6.20,6.74 L 4.49,7.60 L 4.49,7.67 L 5.31,8.08 L 5.25,8.14 L 4.45,8.52 L 4.45,8.56 L 5.25,8.94 L 5.31,9.00 L 4.55,9.38 L 4.52,9.45 L 5.34,9.86 L 5.47,9.86 L 6.23,9.48 L 6.23,9.42 L 5.44,9.03 L 5.41,9.00 L 5.47,8.94 L 7.16,8.11 L 7.13,8.05 L 6.30,7.63 L 7.13,7.22 L 7.16,7.16 Z" fill="#373636" stroke="none" /><path d="M 2.64,6.71 L 1.81,6.30 L 1.75,6.30 L 0.03,7.16 L 0.03,7.19 L 1.72,8.05 L 1.84,8.05 L 2.61,7.67 L 2.61,7.60 L 1.78,7.19 L 1.84,7.13 L 2.64,6.74 Z" fill="#373636" stroke="none" /><path d="M 24.40,5.79 L 24.40,5.85 L 26.12,6.71 L 26.24,6.71 L 27.01,6.33 L 27.01,6.27 L 25.29,5.41 L 25.16,5.41 Z" fill="#373636" stroke="none" /><path d="M 9.86,5.82 L 9.00,5.38 L 8.94,5.38 L 7.22,6.23 L 7.19,6.30 L 8.02,6.71 L 8.14,6.71 L 9.86,5.85 Z" fill="#373636" stroke="none" /><path d="M 17.08,4.93 L 15.33,5.82 L 15.33,5.85 L 16.16,6.27 L 16.13,6.33 L 15.33,6.71 L 15.33,6.74 L 17.08,7.63 L 17.18,7.63 L 18.00,7.22 L 18.00,7.16 L 17.18,6.74 L 17.24,6.68 L 18.04,6.30 L 18.04,6.27 L 17.24,5.88 L 17.18,5.82 L 18.00,5.41 L 18.00,5.34 L 17.18,4.93 Z" fill="#373636" stroke="none" /><path d="M 6.23,4.90 L 5.38,4.49 L 3.59,5.38 L 3.59,5.41 L 5.31,6.27 L 5.41,6.27 L 6.23,5.85 L 6.23,5.79 L 5.41,5.38 L 5.47,5.31 L 6.20,4.96 Z" fill="#373636" stroke="none" /><path d="M 7.16,4.45 L 7.16,4.49 L 8.05,4.93 L 8.97,4.49 L 8.97,4.45 L 8.08,4.01 Z" fill="#373636" stroke="none" /><path d="M 16.22,2.64 L 16.22,2.67 L 17.02,3.05 L 17.08,3.12 L 16.25,3.53 L 16.25,3.59 L 17.08,4.01 L 17.18,4.01 L 18.93,3.12 L 18.93,3.09 L 17.15,2.19 Z" fill="#373636" stroke="none" /><path d="M 12.56,1.72 L 11.80,1.34 L 11.67,1.34 L 9.07,2.64 L 9.03,2.70 L 9.77,3.05 L 9.83,3.12 L 9.00,3.53 L 9.00,3.59 L 9.83,4.01 L 9.92,4.01 L 10.75,3.59 L 10.75,3.53 L 9.92,3.12 L 9.99,3.05 L 12.56,1.78 Z" fill="#373636" stroke="none" /><path d="M 14.41,0.83 L 14.41,0.86 L 15.30,1.30 L 16.16,0.89 L 16.13,0.83 L 15.30,0.41 L 15.24,0.41 Z" fill="#373636" stroke="none" /><path d="M 9.92,23.19 L 9.92,24.30 L 10.85,24.75 L 10.85,23.63 L 9.99,23.19 Z" fill="#383838" stroke="none" /><path d="M 8.11,22.27 L 8.11,23.38 L 8.97,23.83 L 9.03,23.83 L 9.03,22.71 Z" fill="#383838" stroke="none" /><path d="M 5.41,20.93 L 5.41,22.04 L 7.22,22.93 L 7.22,21.82 L 5.47,20.93 Z" fill="#383838" stroke="none" /><path d="M 2.67,15.11 L 2.67,16.22 L 3.53,16.67 L 3.59,16.67 L 3.59,15.55 Z" fill="#383838" stroke="none" /><path d="M 0.00,13.77 L 0.00,14.89 L 1.78,15.78 L 1.78,14.66 Z" fill="#383838" stroke="none" /><path d="M 6.30,11.39 L 6.30,12.50 L 8.97,13.84 L 9.03,13.84 L 9.03,12.76 L 9.00,12.72 Z" fill="#383838" stroke="none" /><path d="M 3.59,10.05 L 3.59,12.25 L 4.49,12.69 L 4.49,11.64 L 4.52,11.61 L 5.34,12.02 L 5.41,12.02 L 5.41,10.94 L 3.66,10.05 Z" fill="#383838" stroke="none" /><path d="M 13.52,13.04 L 13.55,13.11 L 14.38,13.52 L 14.44,13.52 L 15.30,13.07 L 15.30,13.04 L 14.47,12.63 L 14.35,12.63 Z" fill="#404040" stroke="none" /><path d="M 19.82,8.08 L 18.96,7.63 L 18.89,7.63 L 17.11,8.52 L 17.11,8.56 L 18.86,9.42 L 18.89,9.45 L 18.86,9.48 L 17.15,10.34 L 17.08,10.34 L 16.19,9.89 L 12.63,11.67 L 12.63,11.74 L 13.46,12.15 L 13.55,12.15 L 14.41,11.71 L 15.27,12.15 L 15.36,12.15 L 17.11,11.26 L 18.00,11.71 L 18.07,11.71 L 18.89,11.29 L 18.89,11.23 L 18.07,10.82 L 18.13,10.75 L 19.82,9.92 L 19.79,9.86 L 18.96,9.45 L 19.82,9.00 L 19.82,8.97 L 18.99,8.56 L 19.02,8.49 L 19.82,8.11 Z" fill="#404040" stroke="none" /><path d="M 25.29,7.16 L 25.32,7.22 L 26.15,7.63 L 26.21,7.63 L 27.07,7.19 L 27.07,7.16 L 26.24,6.74 L 26.12,6.74 Z" fill="#404040" stroke="none" /><path d="M 1.75,7.19 L 2.61,7.63 L 2.67,7.63 L 4.45,6.74 L 4.45,6.71 L 2.74,5.85 L 2.64,5.85 L 1.81,6.27 L 1.81,6.33 L 2.54,6.68 L 2.58,6.74 L 1.75,7.16 Z" fill="#404040" stroke="none" /><path d="M 17.15,6.74 L 18.00,7.19 L 18.07,7.19 L 18.89,6.78 L 18.93,6.71 L 18.13,6.33 L 18.10,6.27 L 18.93,5.85 L 18.93,5.82 L 18.07,5.38 L 18.93,4.93 L 19.82,5.38 L 19.88,5.38 L 20.71,4.96 L 20.74,4.90 L 19.91,4.49 L 19.79,4.49 L 18.99,4.90 L 18.89,4.90 L 18.10,4.49 L 17.97,4.49 L 17.15,4.90 L 17.18,4.96 L 18.00,5.38 L 17.15,5.82 L 17.15,5.85 L 17.97,6.27 L 17.94,6.33 L 17.15,6.71 Z" fill="#404040" stroke="none" /><path d="M 13.49,4.01 L 12.63,3.56 L 12.56,3.56 L 9.00,5.34 L 9.00,5.41 L 9.83,5.82 L 9.77,5.88 L 8.97,6.27 L 8.97,6.30 L 9.77,6.68 L 9.83,6.74 L 9.03,7.16 L 8.94,7.16 L 8.14,6.74 L 8.02,6.74 L 6.30,7.60 L 6.30,7.67 L 7.13,8.08 L 7.06,8.14 L 5.38,8.97 L 5.38,9.00 L 6.23,9.45 L 6.30,9.45 L 8.08,8.56 L 8.08,8.52 L 7.28,8.14 L 7.22,8.08 L 7.25,8.05 L 8.97,7.19 L 9.86,7.63 L 9.92,7.63 L 10.75,7.22 L 10.75,7.16 L 9.92,6.74 L 9.99,6.68 L 13.46,4.96 L 13.49,4.90 L 12.69,4.52 L 12.66,4.45 L 13.49,4.04 Z" fill="#404040" stroke="none" /><path d="M 19.88,3.53 L 19.88,3.59 L 20.71,4.01 L 20.80,4.01 L 21.60,3.59 L 21.60,3.56 L 20.77,3.15 L 20.64,3.15 Z" fill="#404040" stroke="none" /><path d="M 15.24,0.38 L 14.47,0.00 L 14.35,0.00 L 13.58,0.38 L 13.58,0.45 L 14.31,0.80 L 14.35,0.83 L 14.31,0.89 L 13.55,1.27 L 13.46,1.27 L 12.63,0.86 L 11.74,1.30 L 11.74,1.34 L 12.53,1.72 L 12.56,1.75 L 12.53,1.78 L 9.89,3.09 L 9.89,3.12 L 10.75,3.56 L 10.82,3.56 L 13.49,2.23 L 13.46,2.16 L 12.66,1.78 L 12.63,1.75 L 12.66,1.72 L 13.49,1.30 L 14.38,1.75 L 14.44,1.75 L 15.27,1.34 L 15.30,1.27 L 14.47,0.86 L 14.50,0.80 L 15.24,0.45 Z" fill="#404040" stroke="none" /><path d="M 14.41,12.60 L 14.41,12.63 L 15.30,13.07 L 16.22,12.63 L 16.22,12.60 L 15.33,12.15 Z" fill="#4a4b4e" stroke="none" /><path d="M 17.15,9.42 L 17.15,9.48 L 17.97,9.89 L 18.07,9.89 L 18.89,9.48 L 18.89,9.42 L 18.07,9.00 L 17.97,9.00 Z" fill="#4a4b4e" stroke="none" /><path d="M 7.19,8.08 L 7.19,8.11 L 8.02,8.52 L 8.14,8.52 L 8.97,8.11 L 8.94,8.05 L 8.11,7.63 L 8.05,7.63 Z" fill="#4a4b4e" stroke="none" /><path d="M 22.52,7.60 L 21.69,7.19 L 21.60,7.19 L 18.93,8.52 L 18.93,8.56 L 19.72,8.94 L 19.79,9.00 L 18.96,9.42 L 18.96,9.48 L 19.79,9.89 L 19.88,9.89 L 20.74,9.45 L 21.60,9.89 L 21.69,9.89 L 22.52,9.48 L 22.52,9.42 L 21.69,9.00 L 21.76,8.94 L 22.55,8.56 L 22.55,8.52 L 21.76,8.14 L 21.69,8.08 L 22.52,7.67 Z" fill="#4a4b4e" stroke="none" /><path d="M 10.78,6.27 L 10.78,6.30 L 11.67,6.74 L 12.60,6.30 L 12.60,6.27 L 11.71,5.82 Z" fill="#4a4b4e" stroke="none" /><path d="M 12.60,4.45 L 12.60,4.49 L 14.38,5.38 L 14.44,5.38 L 15.30,4.93 L 15.30,4.90 L 13.52,4.01 Z" fill="#4a4b4e" stroke="none" /><path d="M 22.49,4.01 L 21.66,3.59 L 21.57,3.59 L 20.74,4.01 L 19.88,3.56 L 19.82,3.56 L 18.04,4.45 L 18.04,4.49 L 18.83,4.87 L 18.89,4.93 L 18.07,5.34 L 18.07,5.41 L 18.89,5.82 L 18.83,5.88 L 18.04,6.27 L 18.04,6.30 L 18.93,6.74 L 19.85,6.30 L 19.85,6.27 L 19.05,5.88 L 18.99,5.82 L 19.82,5.41 L 19.82,5.34 L 18.99,4.93 L 19.05,4.87 L 19.82,4.49 L 19.88,4.49 L 20.64,4.87 L 20.71,4.93 L 19.88,5.34 L 19.88,5.41 L 20.71,5.82 L 20.80,5.82 L 21.63,5.41 L 21.63,5.34 L 20.80,4.93 L 20.87,4.87 L 22.49,4.07 Z" fill="#4a4b4e" stroke="none" /><path d="M 21.63,9.89 L 20.77,9.45 L 20.71,9.45 L 18.04,10.78 L 18.04,10.82 L 18.89,11.26 L 18.96,11.26 L 21.63,9.92 Z" fill="#575757" stroke="none" /><path d="M 21.66,8.08 L 21.66,8.11 L 22.49,8.52 L 22.46,8.59 L 21.66,8.97 L 21.66,9.00 L 22.52,9.45 L 22.58,9.45 L 24.37,8.56 L 24.37,8.52 L 22.58,7.63 L 22.52,7.63 Z" fill="#575757" stroke="none" /><path d="M 8.11,7.60 L 8.11,7.67 L 8.94,8.08 L 9.03,8.08 L 9.86,7.67 L 9.86,7.60 L 9.03,7.19 L 8.94,7.19 Z" fill="#575757" stroke="none" /><path d="M 9.89,6.71 L 9.92,6.78 L 10.75,7.19 L 10.82,7.19 L 11.67,6.74 L 11.67,6.71 L 10.85,6.30 L 10.72,6.30 Z" fill="#575757" stroke="none" /><path d="M 18.96,5.82 L 18.96,5.85 L 19.79,6.27 L 19.91,6.27 L 20.74,5.85 L 20.71,5.79 L 19.88,5.38 L 19.82,5.38 Z" fill="#575757" stroke="none" /><path d="M 14.38,5.34 L 13.55,4.93 L 13.46,4.93 L 11.74,5.79 L 11.71,5.85 L 12.53,6.27 L 12.66,6.27 L 14.38,5.41 Z" fill="#575757" stroke="none" /><path d="M 23.41,4.49 L 22.55,4.04 L 22.49,4.04 L 20.77,4.90 L 20.77,4.93 L 21.63,5.38 L 21.69,5.38 L 23.41,4.52 Z" fill="#575757" stroke="none" /></svg>