<svg height="32" width="32" viewBox="0 0 32 32"><defs /><path d="M 17.97,20.33 L 17.91,20.33 L 17.08,20.74 L 17.08,21.85 L 17.15,21.85 L 17.97,21.44 Z" fill="#0a0a0a" stroke="none" /><path d="M 23.41,17.59 L 19.82,19.37 L 19.79,19.40 L 19.79,20.52 L 20.68,20.07 L 20.71,20.10 L 20.71,21.15 L 21.57,20.74 L 21.60,20.71 L 21.60,19.63 L 23.41,18.70 Z" fill="#0a0a0a" stroke="none" /><path d="M 27.04,15.78 L 26.15,16.22 L 26.15,17.34 L 27.04,16.89 Z" fill="#0a0a0a" stroke="none" /><path d="M 16.19,27.86 L 16.13,27.86 L 15.27,28.31 L 15.27,31.59 L 17.08,30.70 L 17.08,29.61 L 16.25,30.03 L 16.19,30.00 Z" fill="#0e0e0e" stroke="none" /><path d="M 21.60,20.71 L 20.71,21.15 L 20.71,27.77 L 20.64,27.83 L 19.79,28.25 L 19.79,29.33 L 23.41,27.51 L 23.41,26.47 L 23.35,26.47 L 21.66,27.32 L 21.60,27.29 Z" fill="#0e0e0e" stroke="none" /><path d="M 19.79,19.40 L 18.89,19.85 L 18.89,20.96 L 19.79,20.52 Z" fill="#0e0e0e" stroke="none" /><path d="M 18.89,16.54 L 18.83,16.54 L 17.97,16.99 L 17.97,18.07 L 17.08,18.51 L 17.08,20.74 L 16.19,21.18 L 16.19,22.30 L 16.25,22.30 L 17.08,21.88 L 17.08,20.77 L 17.97,20.33 L 17.97,18.10 L 18.89,17.62 Z" fill="#0e0e0e" stroke="none" /><path d="M 28.82,7.19 L 28.76,7.19 L 27.93,7.60 L 27.93,15.30 L 27.86,15.36 L 27.10,15.75 L 27.04,15.71 L 27.04,13.55 L 26.18,13.96 L 26.15,13.93 L 26.15,12.91 L 26.08,12.91 L 25.22,13.36 L 25.22,14.44 L 25.19,14.47 L 23.41,15.36 L 23.41,16.45 L 23.35,16.51 L 22.55,16.89 L 22.52,16.86 L 22.52,15.81 L 22.49,15.81 L 20.71,16.70 L 20.71,17.81 L 20.77,17.81 L 22.46,16.95 L 22.52,16.99 L 22.52,18.04 L 23.38,17.62 L 23.41,17.59 L 23.41,16.51 L 23.48,16.45 L 25.22,15.59 L 25.22,14.47 L 26.08,14.03 L 26.15,14.06 L 26.15,16.19 L 26.08,16.25 L 25.22,16.67 L 25.22,17.78 L 25.29,17.78 L 26.15,17.34 L 26.15,16.25 L 26.21,16.19 L 26.97,15.81 L 27.04,15.84 L 27.04,16.89 L 27.93,16.45 L 27.93,15.36 L 27.99,15.30 L 28.82,14.89 Z" fill="#0e0e0e" stroke="none" /><path d="M 11.74,20.77 L 11.74,21.88 L 12.56,22.30 L 12.63,22.30 L 12.63,21.18 L 11.80,20.77 Z" fill="#111111" stroke="none" /><path d="M 5.41,17.59 L 5.41,18.70 L 6.23,19.12 L 6.30,19.18 L 6.30,20.26 L 7.22,20.71 L 7.22,19.66 L 7.25,19.63 L 9.03,20.52 L 9.03,19.40 L 9.00,19.37 Z" fill="#111111" stroke="none" /><path d="M 2.67,16.22 L 2.67,17.34 L 3.53,17.78 L 3.59,17.78 L 3.59,16.67 Z" fill="#111111" stroke="none" /><path d="M 15.27,30.54 L 15.20,30.54 L 14.41,30.95 L 14.41,32.00 L 14.47,32.00 L 15.27,31.59 Z" fill="#121212" stroke="none" /><path d="M 19.79,28.28 L 19.72,28.28 L 17.15,29.58 L 17.08,29.55 L 17.08,28.53 L 17.02,28.53 L 16.19,28.95 L 16.19,30.06 L 17.05,29.65 L 17.08,29.68 L 17.08,30.66 L 17.15,30.66 L 19.75,29.36 L 19.79,29.33 Z" fill="#121212" stroke="none" /><path d="M 20.71,24.49 L 20.64,24.49 L 19.79,24.94 L 19.79,26.05 L 20.71,25.61 Z" fill="#121212" stroke="none" /><path d="M 17.08,24.08 L 16.19,24.52 L 16.19,25.61 L 16.13,25.67 L 15.27,26.08 L 15.27,28.31 L 16.19,27.86 L 16.19,25.67 L 16.25,25.61 L 17.08,25.19 Z" fill="#121212" stroke="none" /><path d="M 28.82,23.76 L 28.76,23.76 L 23.41,26.43 L 23.41,27.51 L 28.79,24.84 L 28.82,24.81 Z" fill="#121212" stroke="none" /><path d="M 26.12,21.76 L 25.22,22.20 L 25.22,23.32 L 25.29,23.32 L 26.12,22.90 L 26.15,22.93 L 26.15,23.98 L 26.18,23.98 L 27.04,23.54 L 27.04,22.43 L 26.18,22.84 L 26.15,22.81 L 26.15,21.76 Z" fill="#121212" stroke="none" /><path d="M 24.33,21.57 L 23.41,22.01 L 23.41,23.09 L 23.35,23.16 L 22.52,23.57 L 22.52,24.68 L 23.41,24.24 L 23.41,23.16 L 23.48,23.09 L 24.33,22.68 Z" fill="#121212" stroke="none" /><path d="M 16.19,21.22 L 16.13,21.22 L 14.41,22.08 L 14.41,23.19 L 14.47,23.19 L 16.19,22.33 Z" fill="#121212" stroke="none" /><path d="M 18.89,19.85 L 17.97,20.29 L 17.97,21.41 L 18.04,21.41 L 18.89,20.96 Z" fill="#121212" stroke="none" /><path d="M 20.71,17.84 L 20.64,17.84 L 19.79,18.29 L 19.79,19.40 L 20.71,18.96 Z" fill="#121212" stroke="none" /><path d="M 24.33,16.03 L 24.27,16.03 L 23.41,16.48 L 23.41,18.70 L 25.22,17.81 L 25.22,16.70 L 25.16,16.70 L 24.37,17.11 L 24.33,17.08 Z" fill="#121212" stroke="none" /><path d="M 28.82,14.89 L 27.93,15.33 L 27.93,16.45 L 28.82,16.00 Z" fill="#121212" stroke="none" /><path d="M 27.93,13.11 L 27.04,13.55 L 27.04,14.66 L 27.93,14.22 Z" fill="#121212" stroke="none" /><path d="M 27.93,7.63 L 27.86,7.63 L 27.04,8.05 L 27.04,10.21 L 27.10,10.21 L 27.93,9.80 Z" fill="#121212" stroke="none" /><path d="M 15.27,28.31 L 14.41,28.72 L 14.41,30.95 L 15.27,30.54 Z" fill="#161616" stroke="none" /><path d="M 20.71,25.61 L 20.64,25.61 L 19.79,26.05 L 19.79,27.13 L 19.72,27.20 L 17.11,28.50 L 17.08,28.47 L 17.08,27.42 L 17.02,27.42 L 16.19,27.83 L 16.19,28.95 L 16.25,28.95 L 17.05,28.53 L 17.08,28.56 L 17.08,29.61 L 17.11,29.61 L 20.68,27.83 L 20.71,27.80 Z" fill="#161616" stroke="none" /><path d="M 22.52,23.57 L 21.60,24.02 L 21.60,25.13 L 21.66,25.13 L 22.52,24.68 Z" fill="#161616" stroke="none" /><path d="M 17.97,23.63 L 17.97,24.75 L 18.86,24.30 L 18.89,24.33 L 18.89,25.38 L 20.71,24.49 L 20.71,23.38 L 18.93,24.27 L 18.89,24.24 L 18.89,23.19 L 18.83,23.19 Z" fill="#161616" stroke="none" /><path d="M 28.82,22.65 L 24.37,24.87 L 24.33,24.84 L 24.33,23.79 L 24.27,23.79 L 23.44,24.21 L 23.41,24.24 L 23.41,25.32 L 23.35,25.38 L 21.60,26.24 L 21.60,27.36 L 28.82,23.76 Z" fill="#161616" stroke="none" /><path d="M 17.97,21.44 L 17.91,21.44 L 17.08,21.85 L 17.08,22.97 L 17.97,22.52 Z" fill="#161616" stroke="none" /><path d="M 19.75,20.52 L 18.89,20.96 L 18.89,22.04 L 18.96,22.04 L 19.75,21.63 L 19.79,21.66 L 19.79,22.71 L 19.85,22.71 L 20.71,22.27 L 20.71,21.15 L 19.82,21.60 L 19.79,21.57 L 19.79,20.52 Z" fill="#161616" stroke="none" /><path d="M 23.41,18.70 L 22.52,19.15 L 22.52,20.23 L 21.60,20.71 L 21.60,21.82 L 22.52,21.38 L 22.52,20.26 L 23.41,19.82 Z" fill="#161616" stroke="none" /><path d="M 16.19,17.88 L 15.27,18.32 L 15.27,19.44 L 16.16,18.99 L 16.19,19.02 L 16.19,20.07 L 14.41,20.96 L 14.41,22.08 L 14.47,22.08 L 17.08,20.77 L 17.08,18.54 L 17.02,18.54 L 16.22,18.96 L 16.19,18.93 Z" fill="#161616" stroke="none" /><path d="M 19.79,17.18 L 18.89,17.62 L 18.89,18.70 L 18.83,18.77 L 17.97,19.18 L 17.97,20.29 L 18.04,20.29 L 19.79,19.40 Z" fill="#161616" stroke="none" /><path d="M 22.52,16.92 L 20.71,17.81 L 20.71,18.93 L 20.77,18.93 L 22.52,18.04 Z" fill="#161616" stroke="none" /><path d="M 26.15,15.11 L 24.33,16.00 L 24.33,17.11 L 24.40,17.11 L 26.15,16.22 Z" fill="#161616" stroke="none" /><path d="M 27.93,14.22 L 27.04,14.66 L 27.04,15.78 L 27.93,15.33 Z" fill="#161616" stroke="none" /><path d="M 27.04,12.47 L 26.97,12.47 L 26.15,12.88 L 26.15,14.00 L 27.04,13.55 Z" fill="#161616" stroke="none" /><path d="M 26.15,10.69 L 26.08,10.69 L 25.22,11.13 L 25.22,12.21 L 25.16,12.28 L 24.37,12.66 L 24.33,12.63 L 24.33,11.58 L 24.30,11.58 L 21.63,12.91 L 21.60,12.95 L 21.60,14.03 L 21.53,14.09 L 18.93,15.40 L 18.89,15.36 L 18.89,14.31 L 18.83,14.31 L 18.00,14.73 L 17.97,14.70 L 17.97,13.68 L 17.91,13.68 L 17.08,14.09 L 17.08,15.20 L 17.94,14.79 L 17.97,14.82 L 17.97,15.87 L 18.86,15.43 L 18.89,15.46 L 18.89,16.51 L 18.96,16.51 L 21.57,15.20 L 21.60,15.17 L 21.60,14.09 L 21.66,14.03 L 24.27,12.72 L 24.33,12.76 L 24.33,13.81 L 25.19,13.39 L 25.22,13.36 L 25.22,12.28 L 25.29,12.21 L 26.15,11.80 Z" fill="#161616" stroke="none" /><path d="M 27.04,8.08 L 26.97,8.08 L 26.15,8.49 L 26.15,9.57 L 27.04,9.13 Z" fill="#161616" stroke="none" /><path d="M 0.89,21.98 L 0.89,25.26 L 2.67,26.15 L 2.67,25.07 L 1.78,24.62 L 1.78,22.43 Z" fill="#171717" stroke="none" /><path d="M 6.30,20.26 L 6.30,26.85 L 6.27,26.88 L 5.47,26.47 L 5.41,26.47 L 5.41,27.51 L 9.03,29.33 L 9.03,28.25 L 7.28,27.39 L 7.22,27.32 L 7.22,20.71 L 6.36,20.26 Z" fill="#171717" stroke="none" /><path d="M 4.49,17.15 L 4.49,18.26 L 5.41,18.70 L 5.41,17.59 L 4.55,17.15 Z" fill="#171717" stroke="none" /><path d="M 6.30,15.81 L 6.30,16.92 L 8.11,17.84 L 8.11,18.96 L 9.03,19.40 L 9.03,18.35 L 9.07,18.32 L 10.78,19.18 L 10.85,19.18 L 10.85,18.13 L 10.88,18.10 L 11.74,18.54 L 11.74,20.71 L 11.71,20.74 L 10.91,20.33 L 10.85,20.33 L 10.85,21.44 L 11.67,21.85 L 11.74,21.85 L 11.74,20.80 L 11.77,20.77 L 12.63,21.22 L 12.63,22.33 L 13.52,22.78 L 13.55,22.78 L 13.55,21.73 L 13.58,21.69 L 14.35,22.08 L 14.41,22.08 L 14.41,14.38 L 14.38,14.35 L 13.61,13.96 L 13.55,13.96 L 13.55,21.60 L 13.52,21.63 L 12.63,21.18 L 12.63,18.96 L 11.74,18.51 L 11.74,17.43 L 11.71,17.40 L 10.85,16.99 L 10.85,18.04 L 10.82,18.07 L 9.03,17.18 L 9.03,18.23 L 8.97,18.26 L 8.11,17.81 L 8.11,16.70 Z" fill="#171717" stroke="none" /><path d="M 3.63,13.36 L 3.59,13.36 L 3.59,14.41 L 3.56,14.44 L 2.67,14.00 L 2.67,16.16 L 2.61,16.19 L 1.78,15.78 L 1.78,16.89 L 2.64,17.34 L 2.67,17.34 L 2.67,16.29 L 2.70,16.25 L 3.53,16.67 L 3.59,16.67 L 3.59,14.50 L 3.63,14.47 L 4.42,14.89 L 4.49,14.89 L 4.49,13.81 Z" fill="#171717" stroke="none" /><path d="M 19.79,26.05 L 18.00,26.94 L 17.97,26.91 L 17.97,25.86 L 17.91,25.86 L 16.19,26.72 L 16.19,27.83 L 16.25,27.83 L 17.05,27.42 L 17.08,27.45 L 17.08,28.50 L 17.15,28.50 L 19.75,27.20 L 19.79,27.17 Z" fill="#1a1a1a" stroke="none" /><path d="M 15.27,25.00 L 15.20,25.00 L 14.41,25.42 L 14.41,26.53 L 15.27,26.12 Z" fill="#1a1a1a" stroke="none" /><path d="M 17.97,22.52 L 17.08,22.97 L 17.08,24.08 L 17.97,23.63 Z" fill="#1a1a1a" stroke="none" /><path d="M 19.72,21.63 L 18.89,22.04 L 18.89,23.16 L 18.96,23.16 L 19.75,22.74 L 19.79,22.78 L 19.79,23.83 L 19.85,23.83 L 20.71,23.38 L 20.71,22.27 L 19.82,22.71 L 19.79,22.68 L 19.79,21.63 Z" fill="#1a1a1a" stroke="none" /><path d="M 28.82,21.53 L 27.93,21.98 L 27.93,23.09 L 28.82,22.65 Z" fill="#1a1a1a" stroke="none" /><path d="M 25.22,21.12 L 24.33,21.57 L 24.33,22.65 L 23.41,23.13 L 23.41,24.21 L 23.35,24.27 L 22.52,24.68 L 22.52,25.80 L 23.41,25.35 L 23.41,24.27 L 23.48,24.21 L 24.33,23.79 L 24.33,22.68 L 25.22,22.23 Z" fill="#1a1a1a" stroke="none" /><path d="M 27.04,20.23 L 26.97,20.23 L 26.15,20.64 L 26.15,21.76 L 27.04,21.31 Z" fill="#1a1a1a" stroke="none" /><path d="M 28.82,17.11 L 28.76,17.11 L 27.04,17.97 L 27.04,19.09 L 27.10,19.09 L 28.82,18.23 Z" fill="#1a1a1a" stroke="none" /><path d="M 16.19,16.76 L 15.27,17.21 L 15.27,18.32 L 15.33,18.32 L 16.19,17.88 Z" fill="#1a1a1a" stroke="none" /><path d="M 21.60,15.17 L 20.71,15.62 L 20.71,16.70 L 19.85,17.15 L 19.79,17.11 L 19.79,16.10 L 19.72,16.10 L 18.89,16.51 L 18.89,17.59 L 18.83,17.65 L 18.00,18.07 L 17.97,18.04 L 17.97,16.99 L 17.11,17.40 L 17.08,17.43 L 17.08,18.51 L 17.15,18.51 L 17.94,18.10 L 17.97,18.13 L 17.97,19.18 L 18.04,19.18 L 18.89,18.74 L 18.89,17.65 L 18.96,17.59 L 19.75,17.21 L 19.79,17.24 L 19.79,18.29 L 20.71,17.84 L 20.71,16.73 L 21.60,16.29 Z" fill="#1a1a1a" stroke="none" /><path d="M 9.00,9.89 L 9.00,9.92 L 9.83,10.34 L 9.96,10.34 L 10.78,9.92 L 10.75,9.86 L 9.92,9.45 L 9.86,9.45 Z" fill="#1a1a1a" stroke="none" /><path d="M 26.15,8.52 L 26.08,8.52 L 25.22,8.97 L 25.22,10.02 L 25.29,10.02 L 26.08,9.61 L 26.15,9.64 L 26.15,11.77 L 25.22,12.25 L 25.22,13.33 L 25.16,13.39 L 23.41,14.25 L 23.41,15.33 L 23.35,15.40 L 22.52,15.81 L 22.52,16.92 L 23.41,16.48 L 23.41,15.40 L 23.48,15.33 L 25.19,14.47 L 25.22,14.50 L 25.22,15.55 L 25.29,15.55 L 26.15,15.11 L 26.15,14.00 L 25.26,14.44 L 25.22,14.41 L 25.22,13.39 L 25.29,13.33 L 26.15,12.91 L 26.15,11.80 L 26.18,11.77 L 27.01,11.36 L 27.04,11.39 L 27.04,13.55 L 27.93,13.11 L 27.93,9.80 L 27.86,9.80 L 27.07,10.21 L 27.04,10.18 L 27.04,9.13 L 26.18,9.54 L 26.15,9.51 Z" fill="#1a1a1a" stroke="none" /><path d="M 12.60,8.11 L 13.52,8.56 L 17.08,6.78 L 17.11,6.71 L 16.29,6.30 L 16.16,6.30 L 15.36,6.71 L 15.27,6.71 L 14.47,6.30 L 14.35,6.30 L 13.52,6.71 L 13.52,6.74 L 14.38,7.19 L 12.60,8.08 Z" fill="#1a1a1a" stroke="none" /><path d="M 18.07,5.34 L 18.07,5.41 L 18.89,5.82 L 18.99,5.82 L 19.82,5.41 L 19.82,5.34 L 18.99,4.93 L 18.89,4.93 Z" fill="#1a1a1a" stroke="none" /><path d="M 9.03,28.28 L 9.03,29.33 L 9.07,29.36 L 14.35,32.00 L 14.41,32.00 L 14.41,30.95 L 14.38,30.92 L 9.10,28.28 Z" fill="#1d1d1d" stroke="none" /><path d="M 10.85,25.86 L 10.85,26.97 L 11.74,27.42 L 11.74,28.53 L 12.56,28.95 L 12.63,28.95 L 12.63,27.83 L 11.74,27.39 L 11.74,26.27 L 10.91,25.86 Z" fill="#1d1d1d" stroke="none" /><path d="M 9.10,23.86 L 9.03,23.86 L 9.03,24.87 L 9.00,24.91 L 8.17,24.49 L 8.11,24.49 L 8.11,25.61 L 9.00,26.05 L 9.03,26.05 L 9.03,25.00 L 9.07,24.97 L 9.92,25.38 L 9.92,24.27 Z" fill="#1d1d1d" stroke="none" /><path d="M 0.00,23.76 L 0.00,24.81 L 0.89,25.26 L 0.89,24.17 L 0.06,23.76 Z" fill="#1d1d1d" stroke="none" /><path d="M 1.78,23.54 L 1.78,24.65 L 2.67,25.10 L 2.67,26.15 L 5.41,27.51 L 5.41,26.43 L 2.70,25.10 L 2.67,25.07 L 2.67,23.98 Z" fill="#1d1d1d" stroke="none" /><path d="M 5.41,23.13 L 5.41,24.24 L 6.30,24.68 L 6.30,23.57 Z" fill="#1d1d1d" stroke="none" /><path d="M 13.55,21.66 L 13.55,22.78 L 14.35,23.19 L 14.41,23.19 L 14.41,22.08 Z" fill="#1d1d1d" stroke="none" /><path d="M 1.84,19.12 L 1.78,19.12 L 1.78,20.17 L 1.75,20.20 L 0.95,19.79 L 0.89,19.79 L 0.89,21.98 L 1.75,22.43 L 1.78,22.43 L 1.78,20.26 L 1.81,20.23 L 2.61,20.64 L 2.67,20.64 L 2.67,19.53 Z" fill="#1d1d1d" stroke="none" /><path d="M 12.63,18.99 L 12.63,20.10 L 13.55,20.55 L 13.55,19.44 L 12.69,18.99 Z" fill="#1d1d1d" stroke="none" /><path d="M 9.03,18.29 L 9.03,20.52 L 10.78,21.41 L 10.85,21.41 L 10.85,20.29 L 9.99,19.88 L 9.92,19.82 L 9.92,18.74 Z" fill="#1d1d1d" stroke="none" /><path d="M 3.59,16.70 L 3.59,17.81 L 4.42,18.23 L 4.49,18.23 L 4.49,17.11 L 3.66,16.70 Z" fill="#1d1d1d" stroke="none" /><path d="M 5.41,16.48 L 5.41,17.59 L 6.30,18.04 L 6.30,16.92 Z" fill="#1d1d1d" stroke="none" /><path d="M 0.00,14.89 L 0.00,16.00 L 1.78,16.89 L 1.78,15.78 Z" fill="#1d1d1d" stroke="none" /><path d="M 12.63,13.49 L 12.63,15.65 L 13.49,16.10 L 13.55,16.10 L 13.55,13.93 Z" fill="#1d1d1d" stroke="none" /><path d="M 15.27,27.20 L 14.41,27.61 L 14.41,28.72 L 14.47,28.72 L 15.27,28.31 Z" fill="#1e1e1f" stroke="none" /><path d="M 17.05,22.97 L 16.19,23.41 L 16.19,24.49 L 16.13,24.56 L 15.27,24.97 L 15.27,26.08 L 15.33,26.08 L 16.16,25.67 L 16.19,25.70 L 16.19,26.72 L 16.25,26.72 L 17.94,25.86 L 17.97,25.89 L 17.97,26.94 L 18.04,26.94 L 18.89,26.50 L 18.89,25.38 L 18.00,25.83 L 17.97,25.80 L 17.97,24.75 L 17.94,24.75 L 16.25,25.61 L 16.19,25.57 L 16.19,24.56 L 16.25,24.49 L 17.08,24.08 L 17.08,22.97 Z" fill="#1e1e1f" stroke="none" /><path d="M 19.79,22.74 L 19.72,22.74 L 18.89,23.16 L 18.89,24.27 L 18.96,24.27 L 19.79,23.86 Z" fill="#1e1e1f" stroke="none" /><path d="M 22.52,22.49 L 22.46,22.49 L 21.60,22.93 L 21.60,24.02 L 21.66,24.02 L 22.52,23.57 Z" fill="#1e1e1f" stroke="none" /><path d="M 20.71,20.07 L 20.64,20.07 L 19.79,20.52 L 19.79,21.60 L 19.85,21.60 L 20.71,21.15 Z" fill="#1e1e1f" stroke="none" /><path d="M 22.52,19.15 L 21.60,19.59 L 21.60,20.71 L 22.52,20.26 Z" fill="#1e1e1f" stroke="none" /><path d="M 16.19,18.99 L 16.13,18.99 L 15.27,19.44 L 15.27,20.55 L 16.19,20.10 Z" fill="#1e1e1f" stroke="none" /><path d="M 27.04,16.89 L 26.15,17.34 L 26.15,19.53 L 25.22,20.01 L 25.22,22.20 L 25.29,22.20 L 26.08,21.79 L 26.15,21.82 L 26.15,22.84 L 26.08,22.90 L 25.22,23.32 L 25.22,24.43 L 25.29,24.43 L 26.15,23.98 L 26.15,22.90 L 26.21,22.84 L 26.97,22.46 L 27.04,22.49 L 27.04,23.54 L 27.93,23.09 L 27.93,21.98 L 27.07,22.39 L 27.04,22.36 L 27.04,21.31 L 26.21,21.73 L 26.15,21.69 L 26.15,19.56 L 27.04,19.12 Z" fill="#1e1e1f" stroke="none" /><path d="M 17.08,16.32 L 16.19,16.76 L 16.19,17.88 L 17.08,17.43 Z" fill="#1e1e1f" stroke="none" /><path d="M 20.71,15.62 L 19.79,16.06 L 19.79,17.18 L 20.71,16.73 Z" fill="#1e1e1f" stroke="none" /><path d="M 20.71,13.39 L 18.89,14.28 L 18.89,15.40 L 17.97,15.87 L 17.97,16.99 L 18.89,16.54 L 18.89,15.43 L 18.93,15.40 L 20.71,14.50 Z" fill="#1e1e1f" stroke="none" /><path d="M 24.33,12.69 L 22.52,13.58 L 22.52,14.70 L 21.60,15.17 L 21.60,16.25 L 21.66,16.25 L 23.41,15.36 L 23.41,14.28 L 24.33,13.81 Z" fill="#1e1e1f" stroke="none" /><path d="M 17.97,12.60 L 17.08,13.04 L 17.08,14.09 L 17.15,14.09 L 17.97,13.68 Z" fill="#1e1e1f" stroke="none" /><path d="M 22.52,11.39 L 21.60,11.83 L 21.60,12.95 L 22.52,12.50 Z" fill="#1e1e1f" stroke="none" /><path d="M 27.04,11.36 L 26.97,11.36 L 26.15,11.77 L 26.15,12.88 L 26.21,12.88 L 27.04,12.47 Z" fill="#1e1e1f" stroke="none" /><path d="M 15.27,26.12 L 15.20,26.12 L 14.41,26.53 L 14.41,27.61 L 14.47,27.61 L 15.27,27.20 Z" fill="#232323" stroke="none" /><path d="M 22.52,24.68 L 21.60,25.13 L 21.60,26.24 L 21.66,26.24 L 22.52,25.80 Z" fill="#232323" stroke="none" /><path d="M 25.22,22.23 L 25.16,22.23 L 24.33,22.65 L 24.33,24.87 L 24.40,24.87 L 25.22,24.46 Z" fill="#232323" stroke="none" /><path d="M 18.83,22.08 L 17.97,22.52 L 17.97,23.60 L 17.91,23.67 L 17.08,24.08 L 17.08,25.19 L 17.94,24.78 L 17.97,24.81 L 17.97,25.83 L 18.04,25.83 L 18.86,25.42 L 18.89,25.45 L 18.89,26.50 L 18.93,26.50 L 19.79,26.05 L 19.79,24.94 L 18.93,25.35 L 18.89,25.32 L 18.89,24.30 L 18.83,24.30 L 18.04,24.72 L 17.97,24.68 L 17.97,23.67 L 18.04,23.60 L 18.89,23.19 L 18.89,22.08 Z" fill="#232323" stroke="none" /><path d="M 17.08,21.88 L 17.02,21.88 L 16.19,22.30 L 16.19,23.38 L 16.13,23.44 L 14.41,24.30 L 14.41,25.42 L 16.19,24.52 L 16.19,23.44 L 16.25,23.38 L 17.08,22.97 Z" fill="#232323" stroke="none" /><path d="M 15.27,19.44 L 14.41,19.85 L 14.41,20.96 L 14.47,20.96 L 15.27,20.55 Z" fill="#232323" stroke="none" /><path d="M 28.82,18.23 L 28.76,18.23 L 26.18,19.53 L 26.15,19.50 L 26.15,18.45 L 26.08,18.45 L 23.41,19.79 L 23.41,20.90 L 22.52,21.34 L 22.52,23.57 L 23.41,23.13 L 23.41,22.04 L 23.44,22.01 L 25.22,21.12 L 25.22,20.04 L 25.29,19.98 L 26.12,19.56 L 26.15,19.59 L 26.15,20.64 L 26.21,20.64 L 27.01,20.23 L 27.04,20.26 L 27.04,22.43 L 28.79,21.57 L 28.82,21.53 Z" fill="#232323" stroke="none" /><path d="M 27.93,16.45 L 27.04,16.89 L 27.04,17.97 L 27.10,17.97 L 27.93,17.56 Z" fill="#232323" stroke="none" /><path d="M 21.60,11.86 L 21.53,11.86 L 17.97,13.65 L 17.97,14.73 L 17.91,14.79 L 17.15,15.17 L 17.08,15.14 L 17.08,14.12 L 17.02,14.12 L 15.33,14.98 L 15.27,14.95 L 15.27,13.96 L 15.20,13.96 L 14.41,14.38 L 14.41,15.43 L 14.47,15.43 L 15.20,15.05 L 15.27,15.08 L 15.27,17.21 L 15.33,17.21 L 17.02,16.35 L 17.08,16.38 L 17.08,17.40 L 17.02,17.46 L 16.19,17.88 L 16.19,18.96 L 16.25,18.96 L 17.08,18.54 L 17.08,17.46 L 17.15,17.40 L 17.97,16.99 L 17.97,14.79 L 18.04,14.73 L 20.64,13.42 L 20.71,13.46 L 20.71,14.50 L 21.53,14.09 L 21.60,14.12 L 21.60,15.17 L 22.52,14.73 L 22.52,13.61 L 22.46,13.61 L 21.66,14.03 L 21.60,14.00 Z" fill="#232323" stroke="none" /><path d="M 26.15,9.57 L 25.26,10.02 L 25.22,9.99 L 25.22,8.97 L 24.37,9.38 L 24.33,9.42 L 24.33,10.47 L 22.52,11.39 L 22.52,12.47 L 22.58,12.47 L 24.27,11.61 L 24.33,11.64 L 24.33,12.69 L 25.19,12.28 L 25.22,12.25 L 25.22,11.17 L 25.29,11.10 L 26.15,10.69 Z" fill="#232323" stroke="none" /><path d="M 7.22,26.27 L 7.22,27.36 L 7.25,27.39 L 14.41,30.95 L 14.41,29.84 L 9.99,27.64 L 9.92,27.58 L 9.92,26.50 L 9.89,26.47 L 9.03,26.05 L 9.03,27.10 L 8.97,27.13 L 7.28,26.27 Z" fill="#242323" stroke="none" /><path d="M 7.22,24.05 L 7.22,25.16 L 8.05,25.57 L 8.11,25.57 L 8.11,24.46 L 7.28,24.05 Z" fill="#242323" stroke="none" /><path d="M 1.78,22.43 L 1.78,23.54 L 2.61,23.95 L 2.67,24.02 L 2.67,25.10 L 6.23,26.88 L 6.30,26.88 L 6.30,24.68 L 6.27,24.65 L 5.41,24.24 L 5.41,25.29 L 5.34,25.32 L 2.74,24.02 L 2.67,23.95 L 2.67,22.87 Z" fill="#242323" stroke="none" /><path d="M 0.00,21.53 L 0.00,23.76 L 0.83,24.17 L 0.89,24.17 L 0.89,21.98 Z" fill="#242323" stroke="none" /><path d="M 12.63,20.10 L 12.63,21.22 L 13.55,21.66 L 13.55,20.55 L 12.69,20.10 Z" fill="#242323" stroke="none" /><path d="M 8.17,20.07 L 8.11,20.07 L 8.11,21.09 L 8.08,21.12 L 7.22,20.71 L 7.22,21.82 L 8.08,22.27 L 8.11,22.27 L 8.11,21.22 L 8.14,21.18 L 8.97,21.60 L 9.03,21.60 L 9.03,20.52 Z" fill="#242323" stroke="none" /><path d="M 3.59,20.01 L 3.59,21.12 L 4.42,21.53 L 4.49,21.60 L 4.49,22.68 L 6.30,23.57 L 6.30,22.46 L 4.55,21.60 L 4.49,21.53 L 4.49,20.45 Z" fill="#242323" stroke="none" /><path d="M 9.92,18.74 L 9.92,19.85 L 11.67,20.74 L 11.74,20.74 L 11.74,19.63 Z" fill="#242323" stroke="none" /><path d="M 4.49,18.26 L 4.49,19.34 L 5.41,19.82 L 5.41,20.93 L 6.23,21.34 L 6.30,21.34 L 6.30,20.23 L 5.41,19.79 L 5.41,18.70 L 4.55,18.26 Z" fill="#242323" stroke="none" /><path d="M 11.74,17.43 L 11.74,18.54 L 12.56,18.96 L 12.63,18.96 L 12.63,17.88 Z" fill="#242323" stroke="none" /><path d="M 2.67,17.34 L 2.67,18.45 L 3.59,18.89 L 3.59,17.78 Z" fill="#242323" stroke="none" /><path d="M 6.30,16.92 L 6.30,18.04 L 8.05,18.93 L 8.11,18.93 L 8.11,17.81 Z" fill="#242323" stroke="none" /><path d="M 4.49,14.92 L 4.49,15.97 L 4.45,16.00 L 3.66,15.59 L 3.59,15.59 L 3.59,16.70 L 5.41,17.59 L 5.41,15.36 L 4.55,14.92 Z" fill="#242323" stroke="none" /><path d="M 11.74,13.04 L 11.74,14.12 L 12.56,14.54 L 12.63,14.54 L 12.63,13.49 Z" fill="#242323" stroke="none" /><path d="M 0.89,12.02 L 0.89,13.11 L 1.72,13.52 L 1.78,13.58 L 1.78,14.60 L 1.72,14.63 L 0.00,13.77 L 0.00,14.89 L 2.67,16.22 L 2.67,14.00 L 1.84,13.58 L 1.78,13.52 L 1.78,12.44 L 0.95,12.02 Z" fill="#242323" stroke="none" /><path d="M 2.67,9.57 L 2.67,10.69 L 3.53,11.10 L 3.59,11.17 L 3.59,12.25 L 4.42,12.66 L 4.49,12.72 L 4.49,13.81 L 4.52,13.84 L 7.19,15.17 L 7.22,15.17 L 7.22,14.12 L 7.28,14.09 L 9.89,15.40 L 9.92,15.43 L 9.92,16.54 L 10.82,16.99 L 10.85,16.99 L 10.85,15.94 L 10.88,15.90 L 11.74,16.32 L 11.74,15.20 L 11.71,15.17 L 10.85,14.76 L 10.85,15.81 L 10.78,15.84 L 9.92,15.40 L 9.92,14.28 L 7.25,12.95 L 7.22,12.95 L 7.22,14.00 L 7.16,14.03 L 4.55,12.72 L 4.49,12.66 L 4.49,11.58 L 3.66,11.17 L 3.59,11.10 L 3.59,10.02 Z" fill="#242323" stroke="none" /><path d="M 18.00,8.08 L 17.11,7.63 L 15.36,8.52 L 15.27,8.52 L 14.47,8.11 L 14.35,8.11 L 13.52,8.52 L 13.55,8.59 L 14.38,9.00 L 12.63,9.89 L 12.63,9.92 L 13.46,10.34 L 13.39,10.40 L 12.63,10.78 L 12.56,10.78 L 10.91,9.96 L 10.85,9.89 L 10.88,9.86 L 11.67,9.48 L 11.67,9.42 L 10.85,9.00 L 10.75,9.00 L 9.92,9.42 L 9.92,9.48 L 10.72,9.86 L 10.75,9.89 L 10.69,9.96 L 9.92,10.34 L 9.86,10.34 L 8.97,9.89 L 8.08,10.34 L 8.08,10.37 L 8.87,10.75 L 8.94,10.82 L 8.17,11.20 L 8.14,11.26 L 14.38,14.38 L 14.44,14.38 L 15.27,13.96 L 15.27,13.93 L 9.03,10.82 L 9.10,10.75 L 9.86,10.37 L 9.92,10.37 L 11.67,11.26 L 12.56,10.82 L 12.63,10.82 L 13.52,11.26 L 14.41,10.82 L 14.41,10.78 L 13.61,10.40 L 13.55,10.34 L 15.27,9.48 L 15.27,9.42 L 14.47,9.03 L 14.44,9.00 L 14.47,8.97 L 15.33,8.56 L 16.22,9.00 L 18.00,8.11 Z" fill="#242424" stroke="none" /><path d="M 16.22,6.27 L 16.22,6.30 L 17.11,6.74 L 18.04,6.30 L 18.04,6.27 L 17.15,5.82 Z" fill="#242424" stroke="none" /><path d="M 19.79,4.49 L 18.96,4.90 L 18.99,4.96 L 19.82,5.38 L 18.99,5.79 L 18.96,5.85 L 20.64,6.68 L 20.68,6.71 L 20.64,6.78 L 19.85,7.16 L 19.85,7.19 L 20.71,7.63 L 20.77,7.63 L 21.63,7.19 L 21.63,7.16 L 20.80,6.74 L 20.83,6.68 L 21.63,6.30 L 21.63,6.27 L 19.91,5.41 L 19.88,5.38 L 19.91,5.34 L 20.71,4.96 L 20.74,4.90 L 19.91,4.49 Z" fill="#242424" stroke="none" /><path d="M 5.41,4.49 L 5.41,4.52 L 6.27,4.93 L 8.02,4.04 L 8.11,4.04 L 13.49,6.74 L 14.41,6.30 L 14.41,6.27 L 9.03,3.59 L 9.00,3.56 L 9.03,3.53 L 9.86,3.12 L 9.86,3.09 L 9.03,2.67 Z" fill="#242424" stroke="none" /><path d="M 11.74,1.30 L 11.74,1.34 L 12.56,1.75 L 12.63,1.75 L 13.52,1.30 L 15.27,2.19 L 15.36,2.19 L 16.19,1.78 L 16.19,1.72 L 13.58,0.41 L 13.52,0.41 Z" fill="#242424" stroke="none" /><path d="M 13.55,28.31 L 13.55,29.42 L 14.35,29.84 L 14.41,29.84 L 14.41,28.72 Z" fill="#2a2a2a" stroke="none" /><path d="M 11.74,25.19 L 11.74,26.31 L 12.56,26.72 L 12.63,26.72 L 12.63,25.64 Z" fill="#2a2a2a" stroke="none" /><path d="M 10.85,24.75 L 9.99,24.30 L 9.92,24.30 L 9.92,25.32 L 9.89,25.35 L 9.03,24.94 L 9.03,25.99 L 9.00,26.02 L 8.17,25.61 L 8.11,25.61 L 8.11,26.72 L 9.03,27.17 L 9.03,26.12 L 9.10,26.08 L 9.92,26.50 L 9.92,25.45 L 9.96,25.42 L 10.78,25.83 L 10.85,25.83 Z" fill="#2a2a2a" stroke="none" /><path d="M 12.63,23.41 L 12.63,24.52 L 14.41,25.42 L 14.41,24.30 Z" fill="#2a2a2a" stroke="none" /><path d="M 1.78,21.31 L 1.78,22.43 L 2.61,22.84 L 2.67,22.90 L 2.67,23.98 L 5.41,25.35 L 5.41,24.24 L 3.59,23.32 L 3.59,22.20 Z" fill="#2a2a2a" stroke="none" /><path d="M 4.49,19.34 L 4.49,20.45 L 5.41,20.93 L 5.41,22.04 L 6.23,22.46 L 6.30,22.46 L 6.30,21.34 L 5.41,20.90 L 5.41,19.79 Z" fill="#2a2a2a" stroke="none" /><path d="M 2.67,18.45 L 2.67,19.56 L 3.59,20.01 L 3.59,18.89 L 2.74,18.45 Z" fill="#2a2a2a" stroke="none" /><path d="M 0.00,18.23 L 0.00,19.34 L 0.83,19.75 L 0.89,19.75 L 0.89,18.64 L 0.06,18.23 Z" fill="#2a2a2a" stroke="none" /><path d="M 2.67,12.91 L 2.67,14.00 L 3.59,14.47 L 3.59,15.59 L 4.42,16.00 L 4.49,16.00 L 4.49,14.95 L 4.52,14.92 L 5.34,15.33 L 5.41,15.40 L 5.41,16.48 L 6.27,16.92 L 6.30,16.92 L 6.30,15.87 L 6.33,15.84 L 7.16,16.25 L 7.22,16.25 L 7.22,15.17 L 7.19,15.14 L 6.36,14.73 L 6.30,14.73 L 6.30,15.75 L 6.23,15.78 L 5.47,15.40 L 5.41,15.33 L 5.41,14.25 L 4.49,13.81 L 4.49,14.85 L 4.45,14.89 L 3.59,14.44 L 3.59,13.36 L 2.74,12.91 Z" fill="#2a2a2a" stroke="none" /><path d="M 10.85,12.60 L 10.85,13.68 L 11.74,14.12 L 11.74,16.25 L 11.67,16.29 L 10.85,15.87 L 10.85,16.92 L 10.78,16.95 L 9.10,16.10 L 9.03,16.10 L 9.03,17.11 L 9.00,17.15 L 8.17,16.73 L 8.11,16.73 L 8.11,17.84 L 9.03,18.29 L 9.03,17.24 L 9.10,17.21 L 10.82,18.07 L 10.85,18.10 L 10.85,19.21 L 11.67,19.63 L 11.74,19.63 L 11.74,18.51 L 10.85,18.07 L 10.85,17.05 L 10.91,17.02 L 11.74,17.43 L 11.74,16.38 L 11.80,16.35 L 12.56,16.73 L 12.63,16.80 L 12.63,18.99 L 13.55,19.44 L 13.55,16.10 L 12.69,15.68 L 12.63,15.62 L 12.63,14.54 L 11.74,14.09 L 11.74,13.04 Z" fill="#2a2a2a" stroke="none" /><path d="M 0.89,10.91 L 0.89,12.02 L 1.72,12.44 L 1.78,12.44 L 1.78,11.32 L 0.95,10.91 Z" fill="#2a2a2a" stroke="none" /><path d="M 16.19,22.33 L 16.13,22.33 L 14.41,23.19 L 14.41,24.30 L 16.19,23.41 Z" fill="#2b2b2b" stroke="none" /><path d="M 18.89,20.96 L 17.97,21.41 L 17.97,22.52 L 18.89,22.08 Z" fill="#2b2b2b" stroke="none" /><path d="M 26.15,17.34 L 23.41,18.70 L 23.41,19.79 L 22.52,20.23 L 22.52,21.34 L 21.60,21.82 L 21.60,22.93 L 22.52,22.49 L 22.52,21.38 L 23.41,20.93 L 23.41,19.82 L 23.44,19.79 L 26.15,18.45 Z" fill="#2b2b2b" stroke="none" /><path d="M 28.82,16.00 L 27.93,16.45 L 27.93,17.53 L 27.99,17.53 L 28.82,17.11 Z" fill="#2b2b2b" stroke="none" /><path d="M 17.08,13.04 L 15.27,13.93 L 15.27,14.98 L 15.20,15.05 L 14.41,15.43 L 14.41,19.85 L 14.47,19.85 L 15.27,19.44 L 15.27,15.05 L 15.33,14.98 L 17.08,14.12 Z" fill="#2b2b2b" stroke="none" /><path d="M 24.33,9.42 L 18.00,12.56 L 17.97,12.60 L 17.97,13.65 L 18.04,13.65 L 24.33,10.50 Z" fill="#2b2b2b" stroke="none" /><path d="M 13.52,13.04 L 13.55,13.11 L 15.20,13.93 L 15.33,13.93 L 16.16,13.52 L 16.13,13.46 L 14.47,12.63 L 14.35,12.63 Z" fill="#2c2c2c" stroke="none" /><path d="M 9.92,11.23 L 9.92,11.29 L 10.75,11.71 L 10.82,11.71 L 11.67,11.26 L 11.67,11.23 L 10.85,10.82 L 10.75,10.82 Z" fill="#2c2c2c" stroke="none" /><path d="M 7.25,10.75 L 7.25,10.82 L 8.08,11.23 L 8.17,11.23 L 8.97,10.82 L 8.97,10.78 L 8.14,10.37 L 8.02,10.37 Z" fill="#2c2c2c" stroke="none" /><path d="M 10.82,8.97 L 10.85,9.03 L 11.67,9.45 L 11.74,9.45 L 12.60,9.00 L 13.49,9.45 L 13.55,9.45 L 14.38,9.03 L 14.38,8.97 L 12.66,8.11 L 12.53,8.11 Z" fill="#2c2c2c" stroke="none" /><path d="M 16.25,7.16 L 16.25,7.22 L 17.08,7.63 L 17.18,7.63 L 18.00,7.22 L 18.00,7.16 L 17.18,6.74 L 17.08,6.74 Z" fill="#2c2c2c" stroke="none" /><path d="M 3.56,7.16 L 3.59,7.22 L 4.42,7.63 L 4.49,7.63 L 5.34,7.19 L 6.23,7.63 L 6.30,7.63 L 7.16,7.19 L 7.16,7.16 L 6.33,6.74 L 6.20,6.74 L 5.41,7.16 L 5.31,7.16 L 4.52,6.74 L 4.39,6.74 Z" fill="#2c2c2c" stroke="none" /><path d="M 17.15,5.82 L 17.15,5.85 L 17.97,6.27 L 18.10,6.27 L 18.93,5.85 L 18.89,5.79 L 18.07,5.38 L 18.00,5.38 Z" fill="#2c2c2c" stroke="none" /><path d="M 8.94,5.38 L 8.08,5.82 L 8.08,5.85 L 8.91,6.27 L 8.87,6.33 L 8.08,6.71 L 8.08,6.74 L 9.00,7.19 L 9.86,6.74 L 9.86,6.71 L 9.03,6.30 L 9.07,6.23 L 9.86,5.85 L 9.86,5.82 L 9.00,5.38 Z" fill="#2c2c2c" stroke="none" /><path d="M 6.23,4.90 L 5.38,4.49 L 0.03,7.16 L 0.03,7.19 L 0.83,7.60 L 0.92,7.60 L 6.20,4.96 Z" fill="#2c2c2c" stroke="none" /><path d="M 10.78,4.45 L 10.78,4.49 L 11.67,4.93 L 12.60,4.49 L 12.60,4.45 L 11.71,4.01 Z" fill="#2c2c2c" stroke="none" /><path d="M 22.49,4.01 L 21.66,3.59 L 21.57,3.59 L 19.85,4.45 L 19.85,4.49 L 20.77,4.93 L 22.49,4.07 Z" fill="#2c2c2c" stroke="none" /><path d="M 15.33,2.19 L 15.33,2.23 L 17.02,3.05 L 17.08,3.12 L 16.25,3.53 L 16.25,3.59 L 17.08,4.01 L 17.18,4.01 L 18.00,3.59 L 18.00,3.53 L 17.18,3.12 L 17.24,3.05 L 18.04,2.67 L 18.04,2.64 L 16.25,1.75 L 16.19,1.75 Z" fill="#2c2c2c" stroke="none" /><path d="M 12.56,1.72 L 11.80,1.34 L 11.67,1.34 L 9.07,2.64 L 9.03,2.70 L 9.89,3.12 L 12.56,1.78 Z" fill="#2c2c2c" stroke="none" /><path d="M 12.63,1.72 L 12.63,1.78 L 13.46,2.19 L 13.55,2.19 L 14.38,1.78 L 14.38,1.72 L 13.55,1.30 L 13.46,1.30 Z" fill="#2c2c2c" stroke="none" /><path d="M 13.58,0.38 L 13.58,0.45 L 14.35,0.83 L 14.47,0.83 L 15.24,0.45 L 15.24,0.38 L 14.47,0.00 L 14.35,0.00 Z" fill="#2c2c2c" stroke="none" /><path d="M 7.22,22.93 L 7.22,24.05 L 8.05,24.46 L 8.11,24.46 L 8.11,23.38 Z" fill="#303133" stroke="none" /><path d="M 11.74,21.88 L 11.74,24.02 L 11.67,24.05 L 10.85,23.63 L 10.85,25.86 L 11.74,26.31 L 11.74,27.36 L 11.71,27.39 L 10.91,26.97 L 10.85,26.97 L 10.85,28.09 L 11.67,28.50 L 11.74,28.50 L 11.74,27.45 L 11.77,27.42 L 12.63,27.86 L 12.63,28.98 L 13.55,29.42 L 13.55,28.31 L 12.63,27.83 L 12.63,26.72 L 11.74,26.27 L 11.74,24.14 L 11.80,24.11 L 12.63,24.52 L 12.63,22.30 L 11.80,21.88 Z" fill="#303133" stroke="none" /><path d="M 4.49,20.45 L 4.49,21.57 L 5.34,22.01 L 5.41,22.01 L 5.41,20.90 Z" fill="#303133" stroke="none" /><path d="M 0.00,20.42 L 0.00,21.53 L 0.89,21.98 L 0.89,20.87 Z" fill="#303133" stroke="none" /><path d="M 7.22,19.63 L 7.22,20.71 L 8.11,21.15 L 8.11,20.04 L 7.28,19.63 Z" fill="#303133" stroke="none" /><path d="M 5.41,18.70 L 5.41,19.82 L 6.23,20.23 L 6.30,20.23 L 6.30,19.15 Z" fill="#303133" stroke="none" /><path d="M 1.78,18.00 L 1.78,19.05 L 1.75,19.09 L 0.95,18.67 L 0.89,18.67 L 0.89,19.79 L 1.78,20.23 L 1.78,21.31 L 1.81,21.34 L 3.59,22.23 L 3.59,23.35 L 4.42,23.76 L 4.49,23.76 L 4.49,22.65 L 3.59,22.20 L 3.59,21.12 L 1.78,20.20 L 1.78,19.15 L 1.81,19.12 L 2.61,19.53 L 2.67,19.53 L 2.67,18.42 L 1.84,18.00 Z" fill="#303133" stroke="none" /><path d="M 11.74,16.32 L 11.74,17.43 L 12.63,17.88 L 12.63,16.76 Z" fill="#303133" stroke="none" /><path d="M 8.11,14.50 L 8.11,15.55 L 8.08,15.59 L 7.22,15.17 L 7.22,16.29 L 9.03,17.18 L 9.03,16.13 L 9.07,16.10 L 9.86,16.51 L 9.92,16.51 L 9.92,15.40 Z" fill="#303133" stroke="none" /><path d="M 5.41,14.28 L 5.41,15.36 L 6.30,15.81 L 6.30,14.70 L 5.47,14.28 Z" fill="#303133" stroke="none" /><path d="M 0.89,13.11 L 0.89,14.22 L 1.78,14.66 L 1.78,13.55 Z" fill="#303133" stroke="none" /><path d="M 7.22,11.86 L 7.22,12.95 L 8.11,13.39 L 8.11,12.28 L 7.28,11.86 Z" fill="#303133" stroke="none" /><path d="M 3.59,12.25 L 3.59,13.36 L 4.45,13.81 L 4.49,13.81 L 4.49,12.76 L 4.52,12.72 L 6.23,13.58 L 6.30,13.58 L 6.30,12.47 L 4.52,11.58 L 4.49,11.58 L 4.49,12.63 L 4.45,12.66 Z" fill="#303133" stroke="none" /><path d="M 1.78,11.36 L 1.78,12.47 L 2.61,12.88 L 2.67,12.88 L 2.67,11.77 L 1.84,11.36 Z" fill="#303133" stroke="none" /><path d="M 2.67,8.52 L 2.67,9.57 L 3.53,10.02 L 3.59,10.02 L 3.59,8.97 L 2.74,8.52 Z" fill="#303133" stroke="none" /><path d="M 15.33,13.04 L 15.36,13.11 L 16.13,13.49 L 16.22,13.49 L 17.05,13.07 L 17.05,13.01 L 16.29,12.63 L 16.16,12.63 Z" fill="#373636" stroke="none" /><path d="M 11.71,11.23 L 11.74,11.29 L 12.56,11.71 L 12.63,11.71 L 13.49,11.26 L 13.49,11.23 L 12.66,10.82 L 12.53,10.82 Z" fill="#373636" stroke="none" /><path d="M 9.00,10.78 L 9.03,10.85 L 9.86,11.26 L 9.92,11.26 L 10.78,10.82 L 10.78,10.78 L 9.96,10.37 L 9.83,10.37 Z" fill="#373636" stroke="none" /><path d="M 13.49,9.42 L 12.66,9.00 L 12.56,9.00 L 10.85,9.86 L 10.82,9.92 L 11.64,10.34 L 11.77,10.34 L 13.49,9.48 Z" fill="#373636" stroke="none" /><path d="M 25.26,8.08 L 24.40,7.63 L 24.33,7.63 L 23.48,8.08 L 22.58,7.63 L 22.52,7.63 L 21.66,8.08 L 20.77,7.63 L 20.71,7.63 L 18.04,8.97 L 18.07,9.03 L 18.86,9.42 L 18.89,9.45 L 18.86,9.48 L 16.25,10.78 L 16.19,10.78 L 15.33,10.34 L 14.41,10.78 L 14.41,10.82 L 15.20,11.20 L 15.27,11.26 L 14.44,11.67 L 14.44,11.74 L 15.27,12.15 L 15.36,12.15 L 16.19,11.74 L 16.19,11.67 L 15.40,11.29 L 15.36,11.26 L 15.43,11.20 L 16.19,10.82 L 16.25,10.82 L 17.15,11.26 L 19.82,9.92 L 19.79,9.86 L 18.96,9.45 L 21.60,8.11 L 21.69,8.11 L 22.49,8.52 L 22.62,8.52 L 23.41,8.11 L 23.51,8.11 L 24.30,8.52 L 24.43,8.52 L 25.26,8.11 Z" fill="#373636" stroke="none" /><path d="M 17.11,7.63 L 16.25,7.19 L 16.19,7.19 L 14.41,8.08 L 14.41,8.11 L 15.33,8.56 L 17.11,7.67 Z" fill="#373636" stroke="none" /><path d="M 12.53,6.30 L 11.71,6.71 L 11.74,6.78 L 12.56,7.19 L 11.74,7.60 L 11.71,7.67 L 12.53,8.08 L 12.66,8.08 L 13.49,7.67 L 13.46,7.60 L 12.63,7.19 L 13.46,6.78 L 13.49,6.71 L 12.66,6.30 Z" fill="#373636" stroke="none" /><path d="M 19.85,6.27 L 18.93,5.82 L 17.15,6.71 L 17.15,6.74 L 18.89,7.63 L 18.96,7.63 L 19.82,7.19 L 19.82,7.16 L 18.99,6.74 L 19.05,6.68 L 19.85,6.30 Z" fill="#373636" stroke="none" /><path d="M 22.58,5.79 L 22.58,5.85 L 23.41,6.27 L 23.51,6.27 L 24.33,5.85 L 24.33,5.79 L 23.51,5.38 L 23.41,5.38 Z" fill="#373636" stroke="none" /><path d="M 13.52,5.82 L 13.52,5.85 L 14.35,6.27 L 14.47,6.27 L 15.27,5.85 L 15.36,5.85 L 16.16,6.27 L 16.29,6.27 L 17.11,5.85 L 17.08,5.79 L 16.25,5.38 L 16.19,5.38 L 15.33,5.82 L 14.44,5.38 L 14.38,5.38 Z" fill="#373636" stroke="none" /><path d="M 9.00,5.34 L 9.00,5.41 L 9.83,5.82 L 9.92,5.82 L 10.75,5.41 L 10.75,5.34 L 9.92,4.93 L 9.83,4.93 Z" fill="#373636" stroke="none" /><path d="M 17.15,4.90 L 17.18,4.96 L 18.00,5.38 L 18.07,5.38 L 18.93,4.93 L 18.93,4.90 L 18.10,4.49 L 17.97,4.49 Z" fill="#373636" stroke="none" /><path d="M 23.41,4.49 L 22.55,4.04 L 22.49,4.04 L 19.88,5.34 L 19.88,5.41 L 21.60,6.27 L 21.69,6.27 L 22.52,5.85 L 22.52,5.79 L 21.69,5.38 L 23.41,4.52 Z" fill="#373636" stroke="none" /><path d="M 11.71,4.93 L 12.56,5.38 L 12.63,5.38 L 14.38,4.49 L 14.44,4.49 L 15.33,4.93 L 16.22,4.49 L 16.22,4.45 L 15.33,4.01 L 14.44,4.45 L 14.38,4.45 L 13.49,4.01 L 11.71,4.90 Z" fill="#373636" stroke="none" /><path d="M 8.97,4.45 L 8.05,4.01 L 0.92,7.57 L 0.89,7.63 L 1.72,8.05 L 1.84,8.05 L 6.27,5.82 L 7.13,6.27 L 7.22,6.27 L 8.05,5.85 L 8.05,5.82 L 7.19,5.38 L 8.97,4.49 Z" fill="#373636" stroke="none" /><path d="M 15.30,2.19 L 14.44,1.75 L 14.38,1.75 L 13.52,2.19 L 12.63,1.75 L 12.56,1.75 L 9.00,3.53 L 9.00,3.59 L 10.72,4.45 L 10.85,4.45 L 11.67,4.04 L 11.64,3.98 L 10.85,3.59 L 10.82,3.56 L 10.85,3.53 L 13.46,2.23 L 13.55,2.23 L 14.35,2.64 L 14.47,2.64 L 15.30,2.23 Z" fill="#373636" stroke="none" /><path d="M 14.41,0.83 L 14.41,0.86 L 16.19,1.75 L 16.25,1.75 L 17.08,1.34 L 17.08,1.30 L 15.30,0.41 L 15.24,0.41 Z" fill="#373636" stroke="none" /><path d="M 9.92,25.38 L 9.92,27.61 L 10.78,28.06 L 10.85,28.06 L 10.85,25.83 Z" fill="#383838" stroke="none" /><path d="M 7.22,25.16 L 7.22,26.27 L 8.05,26.69 L 8.11,26.69 L 8.11,25.57 L 7.28,25.16 Z" fill="#383838" stroke="none" /><path d="M 12.63,22.33 L 12.63,23.41 L 13.49,23.86 L 13.55,23.86 L 13.55,22.78 L 12.69,22.33 Z" fill="#383838" stroke="none" /><path d="M 8.11,22.27 L 8.11,24.49 L 9.03,24.94 L 9.03,23.89 L 9.07,23.86 L 10.85,24.75 L 10.85,23.70 L 10.88,23.67 L 11.67,24.05 L 11.74,24.11 L 11.74,25.19 L 12.56,25.61 L 12.63,25.67 L 12.63,27.86 L 14.35,28.72 L 14.41,28.72 L 14.41,25.42 L 11.80,24.11 L 11.74,24.05 L 11.74,22.97 L 11.71,22.93 L 9.10,21.63 L 9.03,21.63 L 9.03,22.68 L 9.00,22.71 Z" fill="#383838" stroke="none" /><path d="M 0.00,19.34 L 0.00,20.42 L 0.89,20.87 L 0.89,19.75 L 0.06,19.34 Z" fill="#383838" stroke="none" /><path d="M 3.59,18.89 L 3.59,19.94 L 3.56,19.98 L 2.74,19.56 L 2.67,19.56 L 2.67,20.68 L 3.53,21.09 L 3.59,21.15 L 3.59,22.23 L 4.49,22.68 L 4.49,23.79 L 5.41,24.24 L 5.41,23.13 L 4.49,22.65 L 4.49,21.57 L 3.66,21.15 L 3.59,21.09 L 3.59,20.07 L 3.63,20.04 L 4.49,20.45 L 4.49,19.34 Z" fill="#383838" stroke="none" /><path d="M 2.67,17.34 L 1.78,16.89 L 1.78,17.94 L 1.75,17.97 L 0.06,17.11 L 0.00,17.11 L 0.00,18.23 L 1.72,19.09 L 1.78,19.09 L 1.78,18.04 L 1.81,18.00 L 2.61,18.42 L 2.67,18.42 Z" fill="#383838" stroke="none" /><path d="M 0.00,12.66 L 0.00,13.77 L 0.89,14.22 L 0.89,13.11 Z" fill="#383838" stroke="none" /><path d="M 8.11,12.31 L 8.11,13.39 L 9.92,14.31 L 9.92,15.43 L 10.85,15.87 L 10.85,14.82 L 10.88,14.79 L 11.74,15.20 L 11.74,14.09 L 10.85,13.65 L 10.85,12.60 L 10.82,12.56 L 9.99,12.15 L 9.92,12.15 L 9.92,13.14 L 9.86,13.17 L 8.17,12.31 Z" fill="#383838" stroke="none" /><path d="M 0.00,7.19 L 0.00,8.24 L 0.83,8.65 L 0.89,8.72 L 0.89,10.91 L 2.67,11.80 L 2.67,12.85 L 2.64,12.88 L 1.84,12.47 L 1.78,12.47 L 1.78,13.55 L 2.67,14.00 L 2.67,12.95 L 2.70,12.91 L 3.59,13.36 L 3.59,11.20 L 3.66,11.17 L 6.27,12.47 L 6.30,12.50 L 6.30,13.61 L 7.16,14.03 L 7.22,14.09 L 7.22,15.17 L 8.11,15.62 L 8.11,14.50 L 7.28,14.09 L 7.22,14.03 L 7.22,11.83 L 3.66,10.05 L 3.59,10.05 L 3.59,11.07 L 3.56,11.10 L 2.70,10.69 L 2.67,10.66 L 2.67,9.57 L 0.95,8.72 L 0.89,8.65 L 0.89,7.60 L 0.06,7.19 Z" fill="#383838" stroke="none" /><path d="M 8.05,9.42 L 7.22,9.00 L 7.13,9.00 L 5.41,9.86 L 5.41,9.89 L 6.33,10.34 L 8.05,9.48 Z" fill="#404040" stroke="none" /><path d="M 17.97,12.60 L 17.97,12.56 L 17.15,12.15 L 16.25,12.60 L 16.19,12.60 L 14.44,11.71 L 15.30,11.26 L 15.30,11.23 L 14.50,10.85 L 14.47,10.78 L 16.19,9.92 L 16.16,9.86 L 15.33,9.45 L 16.16,9.03 L 16.19,8.97 L 15.36,8.56 L 15.27,8.56 L 14.44,8.97 L 14.44,9.03 L 15.24,9.42 L 15.27,9.45 L 15.24,9.48 L 13.52,10.34 L 12.63,9.89 L 11.71,10.34 L 11.71,10.37 L 12.53,10.78 L 12.66,10.78 L 13.46,10.37 L 13.55,10.37 L 14.31,10.75 L 14.35,10.78 L 14.31,10.85 L 13.52,11.23 L 13.52,11.26 L 14.35,11.67 L 14.38,11.71 L 14.35,11.74 L 13.49,12.15 L 11.74,11.26 L 11.64,11.26 L 10.82,11.67 L 10.82,11.74 L 13.49,13.07 L 14.38,12.63 L 14.44,12.63 L 15.30,13.07 L 16.19,12.63 L 16.25,12.63 L 17.05,13.04 L 17.11,13.04 Z" fill="#404040" stroke="none" /><path d="M 5.38,8.08 L 5.38,8.11 L 6.20,8.52 L 6.33,8.52 L 7.16,8.11 L 7.13,8.05 L 6.30,7.63 L 6.23,7.63 Z" fill="#404040" stroke="none" /><path d="M 1.78,8.05 L 1.78,8.08 L 2.67,8.52 L 3.53,8.11 L 3.50,8.05 L 2.67,7.63 L 2.61,7.63 Z" fill="#404040" stroke="none" /><path d="M 18.07,7.19 L 18.00,7.19 L 17.15,7.63 L 17.15,7.67 L 17.97,8.08 L 17.91,8.14 L 17.11,8.52 L 17.11,8.56 L 18.00,9.00 L 18.93,8.56 L 18.93,8.52 L 18.13,8.14 L 18.07,8.08 L 18.89,7.67 L 18.89,7.60 Z" fill="#404040" stroke="none" /><path d="M 22.55,6.71 L 21.66,6.27 L 20.77,6.71 L 20.71,6.71 L 19.91,6.30 L 19.79,6.30 L 18.96,6.71 L 18.99,6.78 L 19.72,7.13 L 19.79,7.19 L 18.96,7.60 L 18.96,7.67 L 19.79,8.08 L 19.88,8.08 L 20.71,7.67 L 20.71,7.60 L 19.91,7.22 L 19.88,7.19 L 19.94,7.13 L 20.71,6.74 L 20.77,6.74 L 21.66,7.19 L 22.55,6.74 Z" fill="#404040" stroke="none" /><path d="M 23.48,6.27 L 23.48,6.30 L 24.30,6.71 L 24.43,6.71 L 25.26,6.30 L 25.22,6.23 L 24.40,5.82 L 24.33,5.82 Z" fill="#404040" stroke="none" /><path d="M 14.44,5.34 L 14.44,5.41 L 15.27,5.82 L 15.36,5.82 L 16.19,5.41 L 16.19,5.34 L 15.36,4.93 L 15.27,4.93 Z" fill="#404040" stroke="none" /><path d="M 12.63,5.34 L 12.63,5.41 L 13.46,5.82 L 13.55,5.82 L 14.38,5.41 L 14.38,5.34 L 13.55,4.93 L 13.46,4.93 Z" fill="#404040" stroke="none" /><path d="M 8.02,4.93 L 7.19,5.34 L 7.19,5.41 L 8.02,5.82 L 7.95,5.88 L 7.19,6.27 L 7.19,6.30 L 8.02,6.71 L 7.98,6.78 L 7.19,7.16 L 7.19,7.19 L 8.05,7.63 L 8.11,7.63 L 8.97,7.19 L 8.97,7.16 L 8.14,6.74 L 8.17,6.68 L 8.97,6.30 L 8.97,6.27 L 8.17,5.88 L 8.11,5.82 L 8.94,5.41 L 8.94,5.34 L 8.11,4.93 Z" fill="#404040" stroke="none" /><path d="M 16.22,4.45 L 16.22,4.49 L 17.11,4.93 L 18.04,4.49 L 18.04,4.45 L 17.15,4.01 Z" fill="#404040" stroke="none" /><path d="M 18.04,2.64 L 18.04,2.67 L 18.93,3.12 L 19.79,2.70 L 19.75,2.64 L 18.93,2.23 L 18.86,2.23 Z" fill="#404040" stroke="none" /><path d="M 16.22,2.64 L 15.33,2.19 L 14.44,2.64 L 14.38,2.64 L 13.49,2.19 L 10.82,3.53 L 10.82,3.59 L 11.64,4.01 L 11.74,4.01 L 13.49,3.12 L 14.38,3.56 L 14.44,3.56 L 16.22,2.67 Z" fill="#404040" stroke="none" /><path d="M 13.55,22.78 L 13.55,23.89 L 14.41,24.30 L 14.41,23.19 Z" fill="#474747" stroke="none" /><path d="M 7.22,21.82 L 7.22,22.93 L 8.08,23.38 L 8.11,23.38 L 8.11,22.33 L 8.14,22.30 L 8.97,22.71 L 9.03,22.71 L 9.03,21.66 L 9.07,21.63 L 11.74,22.97 L 11.74,21.85 L 9.07,20.52 L 9.03,20.52 L 9.03,21.57 L 9.00,21.60 L 8.11,21.15 L 8.11,22.20 L 8.08,22.23 Z" fill="#474747" stroke="none" /><path d="M 3.59,17.81 L 3.59,18.89 L 4.49,19.34 L 4.49,18.23 L 3.66,17.81 Z" fill="#474747" stroke="none" /><path d="M 0.00,16.00 L 0.00,17.11 L 1.72,17.97 L 1.78,17.97 L 1.78,16.89 Z" fill="#474747" stroke="none" /><path d="M 3.59,8.97 L 3.59,10.05 L 9.92,13.20 L 9.92,12.12 Z" fill="#474747" stroke="none" /><path d="M 0.95,7.63 L 0.89,7.63 L 0.89,8.62 L 0.86,8.65 L 0.00,8.24 L 0.00,12.66 L 0.86,13.11 L 0.89,13.11 L 0.89,8.75 L 0.95,8.72 L 2.67,9.57 L 2.67,8.49 Z" fill="#474747" stroke="none" /><path d="M 12.63,11.67 L 12.63,11.74 L 13.46,12.15 L 13.55,12.15 L 14.38,11.74 L 14.38,11.67 L 13.55,11.26 L 13.46,11.26 Z" fill="#4a4b4e" stroke="none" /><path d="M 18.93,10.34 L 18.93,10.37 L 19.82,10.82 L 20.74,10.37 L 20.74,10.34 L 19.85,9.89 Z" fill="#4a4b4e" stroke="none" /><path d="M 18.00,8.97 L 17.18,8.56 L 17.05,8.56 L 15.33,9.42 L 15.33,9.48 L 16.16,9.89 L 16.10,9.96 L 15.36,10.31 L 15.33,10.37 L 16.16,10.78 L 16.29,10.78 L 18.00,9.92 L 17.97,9.86 L 17.15,9.45 L 17.97,9.03 Z" fill="#4a4b4e" stroke="none" /><path d="M 26.12,8.49 L 25.26,8.08 L 24.37,8.52 L 24.37,8.56 L 25.19,8.97 L 25.26,8.97 L 26.08,8.56 Z" fill="#4a4b4e" stroke="none" /><path d="M 18.04,8.08 L 18.04,8.11 L 18.86,8.52 L 18.99,8.52 L 19.82,8.11 L 19.79,8.05 L 18.96,7.63 L 18.89,7.63 Z" fill="#4a4b4e" stroke="none" /><path d="M 22.52,7.60 L 21.69,7.19 L 21.60,7.19 L 20.77,7.60 L 20.77,7.67 L 21.60,8.08 L 21.53,8.14 L 19.85,8.97 L 19.85,9.00 L 20.71,9.45 L 20.77,9.45 L 22.55,8.56 L 22.55,8.52 L 21.76,8.14 L 21.69,8.08 L 22.52,7.67 Z" fill="#4a4b4e" stroke="none" /><path d="M 6.30,7.60 L 6.30,7.67 L 8.02,8.52 L 7.98,8.59 L 7.19,8.97 L 7.22,9.03 L 8.94,9.89 L 9.03,9.89 L 9.86,9.48 L 9.86,9.42 L 8.14,8.56 L 8.17,8.49 L 8.97,8.11 L 8.94,8.05 L 7.22,7.19 L 7.13,7.19 Z" fill="#4a4b4e" stroke="none" /><path d="M 2.67,7.60 L 2.67,7.67 L 3.50,8.08 L 3.59,8.08 L 4.42,7.67 L 4.42,7.60 L 3.59,7.19 L 3.50,7.19 Z" fill="#4a4b4e" stroke="none" /><path d="M 12.63,7.16 L 12.63,7.22 L 13.46,7.63 L 13.55,7.63 L 14.38,7.22 L 14.38,7.16 L 13.55,6.74 L 13.46,6.74 Z" fill="#4a4b4e" stroke="none" /><path d="M 22.55,6.71 L 22.55,6.74 L 23.44,7.19 L 24.37,6.74 L 24.37,6.71 L 23.48,6.27 Z" fill="#4a4b4e" stroke="none" /><path d="M 5.34,6.27 L 4.45,6.71 L 4.45,6.74 L 5.25,7.13 L 5.31,7.19 L 4.49,7.60 L 4.49,7.67 L 5.31,8.08 L 5.41,8.08 L 6.23,7.67 L 6.23,7.60 L 5.41,7.19 L 5.47,7.13 L 6.27,6.74 L 6.27,6.71 Z" fill="#4a4b4e" stroke="none" /><path d="M 14.41,6.27 L 14.41,6.30 L 15.30,6.74 L 16.22,6.30 L 16.22,6.27 L 15.33,5.82 Z" fill="#4a4b4e" stroke="none" /><path d="M 9.89,5.82 L 9.89,5.85 L 10.72,6.27 L 10.85,6.27 L 11.67,5.85 L 11.64,5.79 L 10.82,5.38 L 10.75,5.38 Z" fill="#4a4b4e" stroke="none" /><path d="M 21.69,5.34 L 21.69,5.41 L 22.52,5.82 L 22.58,5.82 L 23.44,5.38 L 23.44,5.34 L 22.62,4.93 L 22.52,4.93 Z" fill="#4a4b4e" stroke="none" /><path d="M 13.52,4.90 L 13.55,4.96 L 14.38,5.38 L 14.44,5.38 L 15.30,4.93 L 15.30,4.90 L 14.47,4.49 L 14.35,4.49 Z" fill="#4a4b4e" stroke="none" /><path d="M 12.63,3.53 L 12.63,3.59 L 13.46,4.01 L 13.55,4.01 L 14.38,3.59 L 14.38,3.53 L 13.55,3.12 L 13.46,3.12 Z" fill="#4a4b4e" stroke="none" /><path d="M 14.44,3.53 L 14.44,3.59 L 15.27,4.01 L 15.36,4.01 L 17.15,3.12 L 18.00,3.56 L 17.18,3.98 L 17.15,4.04 L 17.97,4.45 L 18.10,4.45 L 18.93,4.04 L 18.89,3.98 L 18.07,3.56 L 18.89,3.15 L 18.93,3.09 L 18.10,2.67 L 17.97,2.67 L 17.18,3.09 L 17.08,3.09 L 16.29,2.67 L 16.16,2.67 Z" fill="#4a4b4e" stroke="none" /><path d="M 16.25,1.72 L 16.25,1.78 L 17.08,2.19 L 17.18,2.19 L 17.97,1.78 L 17.97,1.75 L 17.15,1.34 L 17.02,1.34 Z" fill="#4a4b4e" stroke="none" /><path d="M 19.82,10.78 L 18.99,10.37 L 18.86,10.37 L 17.18,11.23 L 17.08,11.23 L 16.29,10.82 L 16.16,10.82 L 15.33,11.23 L 15.36,11.29 L 16.19,11.71 L 15.36,12.12 L 15.33,12.18 L 16.16,12.60 L 16.29,12.60 L 17.08,12.18 L 17.18,12.18 L 18.00,12.60 L 18.89,12.15 L 18.89,12.12 L 18.07,11.71 L 19.79,10.85 Z" fill="#575757" stroke="none" /><path d="M 7.19,9.89 L 7.19,9.92 L 8.02,10.34 L 8.14,10.34 L 8.97,9.92 L 8.94,9.86 L 8.11,9.45 L 8.05,9.45 Z" fill="#575757" stroke="none" /><path d="M 17.15,9.42 L 17.15,9.48 L 17.97,9.89 L 18.07,9.89 L 18.89,9.48 L 18.89,9.42 L 18.07,9.00 L 17.97,9.00 Z" fill="#575757" stroke="none" /><path d="M 18.96,9.48 L 20.68,10.34 L 20.80,10.34 L 24.37,8.56 L 24.37,8.52 L 23.57,8.14 L 23.51,8.08 L 24.37,7.63 L 25.22,8.08 L 25.32,8.08 L 27.07,7.19 L 27.90,7.60 L 27.99,7.60 L 28.76,7.22 L 28.79,7.16 L 27.96,6.74 L 27.13,7.16 L 27.04,7.16 L 25.29,6.27 L 23.51,7.16 L 23.41,7.16 L 22.65,6.78 L 22.62,6.71 L 23.44,6.30 L 23.44,6.27 L 22.58,5.82 L 22.52,5.82 L 21.66,6.27 L 21.66,6.30 L 22.49,6.71 L 22.46,6.78 L 21.66,7.16 L 21.66,7.19 L 23.41,8.08 L 23.35,8.14 L 20.74,9.45 L 19.88,9.00 L 19.79,9.00 L 18.96,9.42 Z" fill="#575757" stroke="none" /><path d="M 11.67,6.71 L 9.86,5.82 L 8.97,6.27 L 8.97,6.30 L 9.77,6.68 L 9.83,6.74 L 8.11,7.60 L 8.11,7.67 L 8.94,8.08 L 8.87,8.14 L 8.11,8.52 L 8.05,8.52 L 7.19,8.08 L 6.30,8.52 L 6.23,8.52 L 4.49,7.63 L 4.42,7.63 L 2.70,8.49 L 2.70,8.52 L 5.34,9.86 L 5.47,9.86 L 8.05,8.56 L 8.11,8.56 L 9.00,9.00 L 11.67,7.67 L 11.64,7.60 L 10.82,7.19 L 11.64,6.78 Z" fill="#575757" stroke="none" /><path d="M 5.38,6.27 L 5.38,6.30 L 7.16,7.19 L 8.08,6.74 L 8.08,6.71 L 6.30,5.82 L 6.23,5.82 Z" fill="#575757" stroke="none" /><path d="M 22.58,4.90 L 22.62,4.96 L 23.44,5.38 L 24.30,4.96 L 24.27,4.90 L 23.44,4.49 Z" fill="#575757" stroke="none" /><path d="M 8.08,4.90 L 8.11,4.96 L 8.94,5.38 L 9.00,5.38 L 9.86,4.93 L 9.86,4.90 L 9.03,4.49 L 8.91,4.49 Z" fill="#575757" stroke="none" /><path d="M 11.71,4.01 L 11.71,4.04 L 12.53,4.45 L 12.66,4.45 L 13.46,4.04 L 13.55,4.04 L 14.35,4.45 L 14.47,4.45 L 15.27,4.04 L 15.36,4.04 L 16.13,4.42 L 16.16,4.49 L 15.33,4.90 L 15.33,4.93 L 16.19,5.38 L 16.25,5.38 L 17.11,4.93 L 17.11,4.90 L 16.29,4.49 L 16.32,4.42 L 17.11,4.04 L 17.11,4.01 L 16.25,3.56 L 16.19,3.56 L 15.33,4.01 L 14.44,3.56 L 14.38,3.56 L 13.52,4.01 L 12.63,3.56 L 12.56,3.56 Z" fill="#575757" stroke="none" /><path d="M 20.71,3.12 L 19.79,2.67 L 18.07,3.53 L 18.07,3.59 L 18.89,4.01 L 18.83,4.07 L 18.04,4.45 L 18.04,4.49 L 18.93,4.93 L 19.85,4.49 L 19.85,4.45 L 19.05,4.07 L 18.99,4.01 L 20.71,3.15 Z" fill="#575757" stroke="none" /><path d="M 17.15,2.19 L 17.15,2.23 L 17.97,2.64 L 18.10,2.64 L 18.86,2.26 L 18.86,2.19 L 18.04,1.78 L 17.94,1.78 Z" fill="#575757" stroke="none" /><path d="M 6.33,10.31 L 6.36,10.37 L 7.19,10.78 L 7.25,10.78 L 8.08,10.37 L 8.08,10.34 L 7.19,9.89 Z" fill="#6d6d6d" stroke="none" /><path d="M 25.19,8.94 L 24.43,8.56 L 24.30,8.56 L 18.07,11.67 L 18.07,11.74 L 18.83,12.12 L 18.96,12.12 L 25.19,9.00 Z" fill="#6d6d6d" stroke="none" /><path d="M 12.60,6.27 L 11.71,5.82 L 10.78,6.27 L 10.78,6.30 L 11.58,6.68 L 11.64,6.74 L 10.82,7.16 L 10.82,7.22 L 11.64,7.63 L 11.58,7.70 L 9.00,8.97 L 9.00,9.00 L 9.86,9.45 L 9.92,9.45 L 12.60,8.11 L 12.60,8.08 L 11.80,7.70 L 11.74,7.63 L 12.56,7.22 L 12.56,7.16 L 11.74,6.74 L 11.80,6.68 L 12.60,6.30 Z" fill="#6d6d6d" stroke="none" /><path d="M 23.48,5.34 L 23.51,5.41 L 26.97,7.13 L 27.04,7.19 L 25.32,8.05 L 25.29,8.11 L 26.15,8.52 L 27.93,7.63 L 27.90,7.57 L 27.13,7.19 L 27.20,7.13 L 27.93,6.78 L 27.90,6.71 L 24.33,4.93 Z" fill="#6d6d6d" stroke="none" /><path d="M 16.25,5.34 L 16.25,5.41 L 17.08,5.82 L 17.18,5.82 L 18.00,5.41 L 18.00,5.34 L 17.18,4.93 L 17.08,4.93 Z" fill="#6d6d6d" stroke="none" /><path d="M 21.60,3.56 L 20.77,3.15 L 20.64,3.15 L 18.99,3.98 L 18.96,4.04 L 19.79,4.45 L 19.91,4.45 L 21.57,3.63 Z" fill="#6d6d6d" stroke="none" /></svg>