<svg height="32" width="32" viewBox="0 0 32 32"><defs /><path d="M 18.88,16.57 L 18.81,16.57 L 17.97,17.00 L 17.97,19.18 L 18.04,19.18 L 18.88,18.74 Z" fill="#1f170a" stroke="none" /><path d="M 25.17,13.42 L 25.10,13.42 L 24.30,13.82 L 24.30,16.03 L 25.17,15.60 Z" fill="#1f170a" stroke="none" /><path d="M 9.00,16.10 L 9.00,17.21 L 10.81,18.11 L 10.81,22.53 L 11.62,22.93 L 11.68,22.93 L 11.68,17.44 Z" fill="#19140c" stroke="none" /><path d="M 9.00,17.21 L 9.00,18.31 L 10.74,19.18 L 10.81,19.18 L 10.81,18.08 L 9.07,17.21 Z" fill="#2c200c" stroke="none" /><path d="M 1.81,7.16 L 1.84,7.23 L 2.64,7.63 L 2.74,7.63 L 3.58,7.20 L 3.58,7.16 L 2.71,6.73 Z" fill="#1a0a0d" stroke="none" /><path d="M 13.52,1.31 L 13.52,1.37 L 14.33,1.77 L 14.46,1.77 L 15.26,1.37 L 15.26,1.31 L 14.46,0.90 L 14.33,0.90 Z" fill="#1a0a0d" stroke="none" /><path d="M 0.90,8.74 L 0.90,9.84 L 1.74,10.28 L 1.81,10.28 L 1.81,9.17 Z" fill="#200b0e" stroke="none" /><path d="M 17.97,20.32 L 17.91,20.32 L 17.10,20.72 L 17.10,21.82 L 16.20,22.29 L 16.20,23.40 L 17.10,22.96 L 17.10,21.86 L 17.97,21.42 Z" fill="#2a2010" stroke="none" /><path d="M 26.01,16.27 L 25.17,16.70 L 25.17,17.81 L 26.04,17.37 L 26.08,17.41 L 26.08,18.44 L 26.14,18.44 L 26.98,18.01 L 26.98,16.90 L 26.11,17.34 L 26.08,17.31 L 26.08,16.27 Z" fill="#2a2010" stroke="none" /><path d="M 19.78,15.00 L 17.97,15.90 L 17.97,17.00 L 19.78,16.10 Z" fill="#2a2010" stroke="none" /><path d="M 25.17,12.32 L 25.10,12.32 L 23.40,13.19 L 23.40,14.29 L 25.17,13.42 Z" fill="#2a2010" stroke="none" /><path d="M 12.62,10.78 L 12.62,10.81 L 14.36,11.68 L 14.43,11.68 L 16.17,10.81 L 16.13,10.74 L 15.33,10.34 L 15.23,10.34 L 14.39,10.78 L 13.56,10.34 L 13.46,10.34 Z" fill="#2f0e11" stroke="none" /><path d="M 17.10,9.41 L 17.14,9.47 L 17.94,9.87 L 18.04,9.87 L 18.88,9.44 L 18.88,9.41 L 18.01,8.97 Z" fill="#2f0e11" stroke="none" /><path d="M 9.00,8.97 L 9.00,9.00 L 9.87,9.44 L 10.78,9.00 L 10.74,8.94 L 9.94,8.54 L 9.87,8.54 Z" fill="#2f0e11" stroke="none" /><path d="M 20.72,6.73 L 20.72,6.76 L 21.52,7.16 L 21.49,7.23 L 20.72,7.60 L 20.72,7.67 L 21.52,8.07 L 21.66,8.07 L 23.36,7.20 L 23.36,7.16 L 21.62,6.29 L 21.56,6.29 Z" fill="#2f0e11" stroke="none" /><path d="M 8.07,7.67 L 8.07,7.60 L 7.26,7.20 L 7.30,7.13 L 8.07,6.76 L 8.07,6.73 L 7.23,6.29 L 7.16,6.29 L 5.42,7.16 L 5.46,7.23 L 7.13,8.07 L 7.26,8.07 Z" fill="#2f0e11" stroke="none" /><path d="M 18.01,5.36 L 18.04,5.42 L 18.85,5.82 L 18.95,5.82 L 19.75,5.42 L 19.75,5.36 L 18.95,4.95 L 18.81,4.95 Z" fill="#2f0e11" stroke="none" /><path d="M 9.91,4.92 L 9.91,4.95 L 10.78,5.39 L 11.68,4.95 L 11.68,4.92 L 10.81,4.49 Z" fill="#2f0e11" stroke="none" /><path d="M 12.62,3.58 L 12.62,3.62 L 13.42,4.02 L 13.56,4.02 L 14.39,3.58 L 15.23,4.02 L 15.36,4.02 L 16.17,3.62 L 16.13,3.55 L 14.46,2.71 L 14.33,2.71 Z" fill="#2f0e11" stroke="none" /><path d="M 9.91,18.74 L 9.91,22.06 L 10.74,22.49 L 10.81,22.49 L 10.81,19.18 Z" fill="#3a2a12" stroke="none" /><path d="M 17.97,9.87 L 17.14,9.44 L 17.04,9.44 L 15.30,10.31 L 15.30,10.34 L 16.13,10.78 L 16.23,10.78 L 17.97,9.91 Z" fill="#3e1216" stroke="none" /><path d="M 9.91,9.41 L 9.94,9.47 L 12.55,10.78 L 12.65,10.78 L 13.49,10.34 L 13.49,10.31 L 12.72,9.94 L 12.65,9.87 L 13.46,9.47 L 13.46,9.41 L 12.65,9.00 L 12.52,9.00 L 11.75,9.41 L 11.65,9.41 L 10.78,8.97 Z" fill="#3e1216" stroke="none" /><path d="M 18.01,9.00 L 18.91,9.44 L 21.59,8.10 L 21.59,8.07 L 20.72,7.63 L 20.65,7.63 L 19.82,8.07 L 19.75,8.07 L 18.88,7.63 L 18.01,8.07 L 18.04,8.13 L 18.85,8.54 L 18.04,8.94 Z" fill="#3e1216" stroke="none" /><path d="M 7.20,8.07 L 7.20,8.10 L 8.94,8.97 L 9.07,8.97 L 9.87,8.57 L 9.87,8.50 L 8.13,7.63 L 8.07,7.63 Z" fill="#3e1216" stroke="none" /><path d="M 1.84,6.29 L 1.77,6.29 L 0.90,6.73 L 0.90,6.76 L 1.67,7.13 L 1.74,7.20 L 0.90,7.63 L 0.90,8.67 L 0.84,8.70 L 0.07,8.30 L 0.00,8.30 L 0.00,9.41 L 0.87,9.84 L 0.90,9.84 L 0.90,8.80 L 0.97,8.77 L 1.74,9.17 L 1.81,9.17 L 1.81,8.10 L 2.68,7.67 L 2.64,7.60 L 1.84,7.20 L 1.91,7.13 L 2.68,6.76 L 2.68,6.73 Z" fill="#3e1216" stroke="none" /><path d="M 18.91,5.82 L 18.91,5.86 L 20.65,6.73 L 20.75,6.73 L 21.56,6.33 L 21.56,6.26 L 19.82,5.39 L 19.75,5.39 Z" fill="#3e1216" stroke="none" /><path d="M 10.78,5.36 L 9.97,4.95 L 9.84,4.95 L 7.23,6.26 L 7.23,6.33 L 8.03,6.73 L 8.13,6.73 L 9.00,6.29 L 9.84,6.73 L 9.94,6.73 L 10.78,6.29 L 10.78,6.26 L 10.01,5.89 L 9.94,5.82 L 10.74,5.42 Z" fill="#3e1216" stroke="none" /><path d="M 15.30,4.02 L 15.30,4.05 L 16.17,4.49 L 15.30,4.92 L 15.30,4.95 L 16.17,5.39 L 16.23,5.39 L 17.07,4.95 L 17.14,4.95 L 18.01,5.39 L 18.88,4.95 L 18.88,4.92 L 16.20,3.58 Z" fill="#3e1216" stroke="none" /><path d="M 13.49,4.02 L 12.59,3.58 L 10.85,4.45 L 10.81,4.52 L 11.62,4.92 L 11.75,4.92 L 13.49,4.05 Z" fill="#3e1216" stroke="none" /><path d="M 12.62,0.87 L 12.65,0.94 L 13.46,1.34 L 13.52,1.34 L 14.36,0.90 L 14.43,0.90 L 15.26,1.34 L 15.33,1.34 L 16.17,0.90 L 16.17,0.87 L 15.30,0.44 L 14.43,0.87 L 14.36,0.87 L 13.52,0.44 Z" fill="#3e1216" stroke="none" /><path d="M 17.97,15.90 L 17.10,16.33 L 17.10,17.44 L 17.97,17.00 Z" fill="#372a17" stroke="none" /><path d="M 26.98,11.41 L 26.91,11.41 L 25.17,12.28 L 25.17,13.39 L 25.24,13.39 L 26.98,12.52 Z" fill="#372a17" stroke="none" /><path d="M 15.33,9.41 L 15.33,9.47 L 16.13,9.87 L 16.23,9.87 L 17.07,9.44 L 17.07,9.41 L 16.27,9.00 L 16.13,9.00 Z" fill="#4b151a" stroke="none" /><path d="M 13.46,7.63 L 12.59,8.07 L 12.59,8.10 L 13.46,8.54 L 12.59,8.97 L 12.59,9.00 L 13.46,9.44 L 13.52,9.44 L 14.39,9.00 L 14.39,8.97 L 13.52,8.54 L 14.39,8.10 L 14.39,8.07 L 13.52,7.63 Z" fill="#4b151a" stroke="none" /><path d="M 9.00,8.07 L 9.00,8.10 L 9.87,8.54 L 9.94,8.54 L 10.78,8.10 L 10.78,8.07 L 9.91,7.63 Z" fill="#4b151a" stroke="none" /><path d="M 15.33,7.60 L 15.33,7.67 L 16.13,8.07 L 16.27,8.07 L 17.04,7.67 L 17.14,7.67 L 18.01,8.10 L 18.88,7.67 L 18.85,7.60 L 18.04,7.20 L 17.94,7.20 L 17.10,7.63 L 16.23,7.20 L 16.13,7.20 Z" fill="#4b151a" stroke="none" /><path d="M 9.91,6.73 L 9.91,6.76 L 10.78,7.20 L 11.65,6.76 L 11.75,6.76 L 12.59,7.20 L 13.49,6.76 L 13.46,6.69 L 12.65,6.29 L 12.55,6.29 L 11.72,6.73 L 10.85,6.29 L 10.74,6.29 Z" fill="#4b151a" stroke="none" /><path d="M 18.01,6.26 L 18.04,6.33 L 18.85,6.73 L 18.95,6.73 L 19.78,6.29 L 19.78,6.26 L 18.91,5.82 Z" fill="#4b151a" stroke="none" /><path d="M 15.23,4.95 L 14.43,5.36 L 14.43,5.42 L 15.23,5.82 L 15.20,5.89 L 14.43,6.26 L 14.43,6.33 L 15.23,6.73 L 15.33,6.73 L 16.17,6.29 L 16.17,6.26 L 15.36,5.86 L 15.40,5.79 L 16.17,5.42 L 16.17,5.36 L 15.36,4.95 Z" fill="#4b151a" stroke="none" /><path d="M 11.68,4.92 L 11.68,4.95 L 12.55,5.39 L 12.62,5.39 L 13.49,4.95 L 13.49,4.92 L 12.62,4.49 L 12.55,4.49 Z" fill="#4b151a" stroke="none" /><path d="M 16.20,8.07 L 15.33,7.63 L 15.26,7.63 L 13.52,8.50 L 13.52,8.57 L 15.26,9.44 L 15.33,9.44 L 16.20,9.00 L 16.20,8.97 L 15.33,8.54 L 16.20,8.10 Z" fill="#5a171c" stroke="none" /><path d="M 0.97,6.76 L 0.84,6.76 L 0.00,7.20 L 0.00,8.30 L 0.87,8.74 L 0.90,8.74 L 0.90,7.67 L 0.97,7.60 L 1.77,7.20 L 1.77,7.16 Z" fill="#5a171c" stroke="none" /><path d="M 13.46,7.60 L 11.68,6.73 L 9.94,7.60 L 9.91,7.67 L 10.78,8.10 L 11.65,7.67 L 11.75,7.67 L 12.52,8.07 L 12.65,8.07 L 13.46,7.67 Z" fill="#5a171c" stroke="none" /><path d="M 15.30,6.73 L 15.30,6.76 L 17.04,7.63 L 17.14,7.63 L 18.88,6.76 L 18.85,6.69 L 18.04,6.29 L 17.94,6.29 L 17.10,6.73 L 16.23,6.29 L 16.13,6.29 Z" fill="#5a171c" stroke="none" /><path d="M 12.62,5.36 L 12.62,5.42 L 13.42,5.82 L 13.39,5.89 L 12.62,6.26 L 12.62,6.29 L 13.46,6.73 L 13.56,6.73 L 15.30,5.86 L 15.30,5.82 L 13.56,4.95 L 13.42,4.95 Z" fill="#5a171c" stroke="none" /><path d="M 13.52,0.44 L 13.52,0.47 L 14.33,0.87 L 14.46,0.87 L 15.26,0.47 L 15.23,0.40 L 14.43,0.00 L 14.36,0.00 Z" fill="#5a171c" stroke="none" /><path d="M 17.10,20.75 L 17.04,20.75 L 16.20,21.19 L 16.20,22.29 L 17.10,21.86 Z" fill="#43341d" stroke="none" /><path d="M 17.10,16.33 L 16.20,16.77 L 16.20,17.87 L 16.27,17.87 L 17.10,17.44 Z" fill="#43341d" stroke="none" /><path d="M 19.78,16.10 L 18.88,16.54 L 18.88,17.64 L 19.78,17.21 Z" fill="#43341d" stroke="none" /><path d="M 26.98,15.80 L 26.08,16.23 L 26.08,17.34 L 26.14,17.34 L 26.98,16.90 Z" fill="#43341d" stroke="none" /><path d="M 24.30,13.86 L 24.23,13.86 L 23.40,14.29 L 23.40,15.36 L 23.46,15.36 L 24.30,14.93 Z" fill="#43341d" stroke="none" /><path d="M 25.17,25.54 L 25.10,25.54 L 21.62,27.28 L 21.59,27.31 L 21.59,28.38 L 21.66,28.38 L 25.14,26.64 L 25.17,26.61 Z" fill="#1e1e1e" stroke="none" /><path d="M 19.78,24.90 L 18.88,25.34 L 18.88,26.44 L 18.95,26.44 L 19.78,26.01 Z" fill="#1e1e1e" stroke="none" /><path d="M 17.10,22.96 L 17.04,22.96 L 16.20,23.40 L 16.20,27.78 L 16.27,27.78 L 17.10,27.35 Z" fill="#1e1e1e" stroke="none" /><path d="M 24.30,22.66 L 24.23,22.66 L 23.40,23.10 L 23.40,24.20 L 24.30,23.77 Z" fill="#1e1e1e" stroke="none" /><path d="M 18.88,19.85 L 17.97,20.28 L 17.97,21.39 L 18.04,21.39 L 18.88,20.95 Z" fill="#1e1e1e" stroke="none" /><path d="M 26.98,18.01 L 26.08,18.44 L 26.08,22.86 L 26.98,22.43 Z" fill="#1e1e1e" stroke="none" /><path d="M 25.17,16.70 L 24.30,17.14 L 24.30,18.24 L 25.17,17.81 Z" fill="#1e1e1e" stroke="none" /><path d="M 20.69,14.56 L 20.62,14.56 L 19.78,15.00 L 19.78,17.17 L 19.85,17.17 L 21.59,16.30 L 21.59,15.20 L 20.72,15.63 L 20.69,15.60 Z" fill="#1e1e1e" stroke="none" /><path d="M 18.88,14.36 L 18.81,14.36 L 17.10,15.23 L 17.10,16.33 L 18.88,15.46 Z" fill="#1e1e1e" stroke="none" /><path d="M 28.79,9.41 L 28.72,9.41 L 26.11,10.71 L 26.08,10.74 L 26.08,11.85 L 28.79,10.51 Z" fill="#1e1e1e" stroke="none" /><path d="M 20.69,17.84 L 17.10,19.62 L 17.10,20.72 L 17.17,20.72 L 20.65,18.98 L 20.69,18.95 Z" fill="#503d22" stroke="none" /><path d="M 26.98,14.69 L 22.53,16.90 L 22.49,16.94 L 22.49,18.04 L 26.95,15.83 L 26.98,15.80 Z" fill="#503d22" stroke="none" /><path d="M 17.97,29.12 L 16.20,29.99 L 16.20,31.10 L 17.97,30.23 Z" fill="#262626" stroke="none" /><path d="M 21.59,27.31 L 20.69,27.75 L 20.69,28.85 L 21.59,28.42 Z" fill="#262626" stroke="none" /><path d="M 17.97,25.81 L 17.10,26.24 L 17.10,27.35 L 17.97,26.91 Z" fill="#262626" stroke="none" /><path d="M 16.20,25.61 L 16.13,25.61 L 14.39,26.48 L 14.39,27.58 L 14.46,27.58 L 16.20,26.71 Z" fill="#262626" stroke="none" /><path d="M 26.98,24.64 L 26.91,24.64 L 25.17,25.51 L 25.17,26.61 L 26.98,25.71 Z" fill="#262626" stroke="none" /><path d="M 21.59,24.00 L 19.78,24.90 L 19.78,26.01 L 21.59,25.10 Z" fill="#262626" stroke="none" /><path d="M 26.08,21.76 L 25.17,22.19 L 25.17,23.30 L 25.24,23.30 L 26.08,22.86 Z" fill="#262626" stroke="none" /><path d="M 28.79,19.31 L 28.72,19.31 L 26.98,20.18 L 26.98,21.29 L 27.05,21.29 L 28.79,20.42 Z" fill="#262626" stroke="none" /><path d="M 17.10,15.23 L 14.39,16.57 L 14.39,18.78 L 14.46,18.78 L 16.20,17.91 L 16.20,16.80 L 17.10,16.33 Z" fill="#262626" stroke="none" /><path d="M 22.49,14.76 L 22.43,14.76 L 21.59,15.20 L 21.59,16.27 L 21.66,16.27 L 22.49,15.83 Z" fill="#262626" stroke="none" /><path d="M 19.78,13.89 L 18.88,14.33 L 18.88,15.43 L 18.95,15.43 L 19.78,15.00 Z" fill="#262626" stroke="none" /><path d="M 26.08,10.74 L 25.17,11.18 L 25.17,12.28 L 25.24,12.28 L 26.08,11.85 Z" fill="#262626" stroke="none" /><path d="M 28.79,10.51 L 28.72,10.51 L 26.98,11.38 L 26.98,12.49 L 27.05,12.49 L 28.79,11.62 Z" fill="#262626" stroke="none" /><path d="M 17.10,19.65 L 17.04,19.65 L 16.20,20.08 L 16.20,21.19 L 17.10,20.75 Z" fill="#544629" stroke="none" /><path d="M 17.10,17.44 L 16.20,17.87 L 16.20,18.98 L 17.10,18.54 Z" fill="#544629" stroke="none" /><path d="M 19.78,17.21 L 19.72,17.21 L 18.88,17.64 L 18.88,18.74 L 19.78,18.31 Z" fill="#544629" stroke="none" /><path d="M 22.49,16.94 L 20.69,17.84 L 20.69,18.95 L 22.49,18.04 Z" fill="#544629" stroke="none" /><path d="M 24.30,14.93 L 23.40,15.36 L 23.40,16.47 L 23.46,16.47 L 24.30,16.03 Z" fill="#544629" stroke="none" /><path d="M 26.98,12.52 L 26.91,12.52 L 26.08,12.95 L 26.08,14.03 L 26.14,14.03 L 26.98,13.59 Z" fill="#544629" stroke="none" /><path d="M 5.39,21.99 L 5.39,23.10 L 5.42,23.13 L 8.03,24.44 L 8.10,24.44 L 8.10,23.33 Z" fill="#664f2b" stroke="none" /><path d="M 11.68,20.75 L 11.68,21.86 L 12.59,22.29 L 12.59,21.19 L 11.75,20.75 Z" fill="#664f2b" stroke="none" /><path d="M 5.39,17.61 L 5.39,18.71 L 8.94,20.49 L 9.00,20.49 L 9.00,19.38 L 5.46,17.61 Z" fill="#664f2b" stroke="none" /><path d="M 10.81,15.90 L 10.81,17.00 L 12.52,17.87 L 12.59,17.87 L 12.59,16.77 Z" fill="#664f2b" stroke="none" /><path d="M 1.81,11.41 L 1.81,12.52 L 3.55,13.39 L 3.62,13.39 L 3.62,12.28 L 1.87,11.41 Z" fill="#664f2b" stroke="none" /><path d="M 15.30,29.36 L 14.39,29.79 L 14.39,32.00 L 16.20,31.10 L 16.20,30.03 L 16.13,30.03 L 15.33,30.43 L 15.30,30.39 Z" fill="#2d2d2d" stroke="none" /><path d="M 20.69,27.78 L 20.62,27.78 L 18.01,29.09 L 17.97,29.12 L 17.97,30.19 L 18.04,30.19 L 20.65,28.89 L 20.69,28.85 Z" fill="#2d2d2d" stroke="none" /><path d="M 28.79,22.63 L 28.72,22.63 L 26.98,23.50 L 26.98,25.71 L 28.79,24.80 Z" fill="#2d2d2d" stroke="none" /><path d="M 19.78,21.62 L 19.72,21.62 L 18.88,22.06 L 18.88,25.34 L 17.97,25.81 L 17.97,26.91 L 18.88,26.48 L 18.88,25.37 L 19.78,24.90 Z" fill="#2d2d2d" stroke="none" /><path d="M 17.97,21.42 L 17.91,21.42 L 17.10,21.82 L 17.10,22.93 L 17.17,22.93 L 17.97,22.53 Z" fill="#2d2d2d" stroke="none" /><path d="M 24.30,19.35 L 23.40,19.78 L 23.40,23.06 L 23.33,23.13 L 21.59,24.00 L 21.59,25.10 L 23.36,24.23 L 23.40,24.20 L 23.40,23.13 L 23.46,23.06 L 24.27,22.66 L 24.30,22.69 L 24.30,23.73 L 24.37,23.73 L 25.17,23.33 L 25.17,22.23 L 25.10,22.23 L 24.33,22.63 L 24.30,22.59 Z" fill="#2d2d2d" stroke="none" /><path d="M 26.08,17.37 L 26.01,17.37 L 25.17,17.81 L 25.17,18.91 L 26.08,18.48 Z" fill="#2d2d2d" stroke="none" /><path d="M 24.30,17.14 L 18.91,19.82 L 18.88,19.85 L 18.88,20.95 L 24.27,18.28 L 24.30,18.24 Z" fill="#2d2d2d" stroke="none" /><path d="M 25.17,11.21 L 25.10,11.21 L 22.49,12.52 L 22.49,15.83 L 23.40,15.40 L 23.40,13.22 L 23.46,13.15 L 25.17,12.32 Z" fill="#2d2d2d" stroke="none" /><path d="M 17.97,17.00 L 17.10,17.44 L 17.10,18.51 L 16.20,18.98 L 16.20,20.08 L 17.10,19.65 L 17.10,18.54 L 17.97,18.11 Z" fill="#5d4c2d" stroke="none" /><path d="M 20.69,16.74 L 19.78,17.17 L 19.78,18.28 L 19.85,18.28 L 20.69,17.84 Z" fill="#5d4c2d" stroke="none" /><path d="M 26.04,12.95 L 25.17,13.39 L 25.17,14.49 L 26.04,14.06 L 26.08,14.09 L 26.08,15.13 L 26.14,15.13 L 26.98,14.69 L 26.98,13.59 L 26.11,14.03 L 26.08,13.99 L 26.08,12.95 Z" fill="#5d4c2d" stroke="none" /><path d="M 21.59,14.09 L 20.69,14.53 L 20.69,15.63 L 20.75,15.63 L 21.59,15.20 Z" fill="#333333" stroke="none" /><path d="M 17.97,18.11 L 17.91,18.11 L 17.10,18.51 L 17.10,19.62 L 17.17,19.62 L 17.97,19.21 Z" fill="#675334" stroke="none" /><path d="M 23.40,15.40 L 23.33,15.40 L 20.72,16.70 L 20.69,16.74 L 20.69,17.84 L 23.40,16.50 Z" fill="#675334" stroke="none" /><path d="M 26.08,14.06 L 26.01,14.06 L 25.17,14.49 L 25.17,15.60 L 26.08,15.16 Z" fill="#675334" stroke="none" /><path d="M 8.10,23.36 L 8.10,24.47 L 9.00,24.90 L 9.00,23.80 L 8.17,23.36 Z" fill="#7d6136" stroke="none" /><path d="M 3.62,21.12 L 3.62,22.23 L 5.39,23.10 L 5.39,21.99 L 3.68,21.12 Z" fill="#7d6136" stroke="none" /><path d="M 1.81,20.22 L 1.81,21.32 L 2.71,21.76 L 2.71,20.65 L 1.87,20.22 Z" fill="#7d6136" stroke="none" /><path d="M 9.00,19.41 L 9.00,20.52 L 9.91,20.95 L 9.91,19.85 L 9.07,19.41 Z" fill="#7d6136" stroke="none" /><path d="M 3.62,16.70 L 3.62,17.81 L 5.32,18.68 L 5.39,18.68 L 5.39,17.57 Z" fill="#7d6136" stroke="none" /><path d="M 1.81,15.80 L 1.81,16.90 L 2.64,17.34 L 2.71,17.34 L 2.71,16.23 Z" fill="#7d6136" stroke="none" /><path d="M 8.10,14.56 L 8.10,15.67 L 10.81,17.00 L 10.81,15.90 L 10.78,15.87 L 8.17,14.56 Z" fill="#7d6136" stroke="none" /><path d="M 3.62,12.32 L 3.62,13.42 L 6.23,14.73 L 6.29,14.73 L 6.29,13.62 L 3.68,12.32 Z" fill="#7d6136" stroke="none" /><path d="M 10.81,29.12 L 10.81,30.23 L 12.59,31.10 L 12.59,29.99 Z" fill="#373737" stroke="none" /><path d="M 4.49,25.97 L 4.49,27.05 L 4.52,27.08 L 7.13,28.38 L 7.20,28.38 L 7.20,27.31 L 7.16,27.28 L 4.55,25.97 Z" fill="#373737" stroke="none" /><path d="M 9.91,22.06 L 9.91,23.16 L 11.62,24.03 L 11.68,24.03 L 11.68,22.93 Z" fill="#373737" stroke="none" /><path d="M 11.68,15.23 L 11.68,16.33 L 11.72,16.37 L 14.33,17.67 L 14.39,17.67 L 14.39,16.57 Z" fill="#373737" stroke="none" /><path d="M 5.39,12.08 L 5.39,13.19 L 5.42,13.22 L 8.03,14.53 L 8.10,14.53 L 8.10,13.42 Z" fill="#373737" stroke="none" /><path d="M 17.10,28.45 L 15.30,29.36 L 15.30,30.46 L 17.10,29.56 Z" fill="#383838" stroke="none" /><path d="M 22.49,25.77 L 22.43,25.77 L 19.82,27.08 L 19.78,27.11 L 19.78,28.22 L 22.49,26.88 Z" fill="#383838" stroke="none" /><path d="M 16.20,24.50 L 15.30,24.94 L 15.30,26.04 L 16.20,25.61 Z" fill="#383838" stroke="none" /><path d="M 26.98,23.53 L 26.91,23.53 L 24.30,24.84 L 24.30,25.94 L 24.37,25.94 L 26.98,24.64 Z" fill="#383838" stroke="none" /><path d="M 17.97,22.53 L 17.91,22.53 L 17.10,22.93 L 17.10,26.24 L 18.88,25.37 L 18.88,24.27 L 18.81,24.27 L 18.04,24.67 L 17.97,24.64 Z" fill="#383838" stroke="none" /><path d="M 20.69,22.26 L 19.78,22.69 L 19.78,24.90 L 20.69,24.47 Z" fill="#383838" stroke="none" /><path d="M 27.88,18.68 L 27.82,18.68 L 26.98,19.11 L 26.98,20.18 L 27.05,20.18 L 27.88,19.75 Z" fill="#383838" stroke="none" /><path d="M 26.08,18.48 L 26.01,18.48 L 25.17,18.91 L 25.17,21.09 L 24.30,21.52 L 24.30,22.63 L 24.37,22.63 L 26.08,21.76 Z" fill="#383838" stroke="none" /><path d="M 24.30,18.24 L 23.40,18.68 L 23.40,19.78 L 23.46,19.78 L 24.30,19.35 Z" fill="#383838" stroke="none" /><path d="M 16.20,17.91 L 16.13,17.91 L 15.30,18.34 L 15.30,19.41 L 15.36,19.41 L 16.20,18.98 Z" fill="#383838" stroke="none" /><path d="M 20.69,13.46 L 20.62,13.46 L 19.78,13.89 L 19.78,15.00 L 20.69,14.56 Z" fill="#383838" stroke="none" /><path d="M 22.49,12.55 L 22.43,12.55 L 21.59,12.99 L 21.59,15.20 L 22.49,14.76 Z" fill="#383838" stroke="none" /><path d="M 27.88,12.05 L 26.98,12.49 L 26.98,13.59 L 27.88,13.15 Z" fill="#383838" stroke="none" /><path d="M 25.17,10.11 L 25.10,10.11 L 23.40,10.98 L 23.40,12.08 L 25.17,11.21 Z" fill="#383838" stroke="none" /><path d="M 11.68,25.14 L 11.68,26.24 L 12.52,26.68 L 12.59,26.68 L 12.59,25.57 Z" fill="#947340" stroke="none" /><path d="M 2.71,20.65 L 2.71,21.76 L 3.55,22.19 L 3.62,22.19 L 3.62,21.09 Z" fill="#947340" stroke="none" /><path d="M 2.71,16.27 L 2.71,17.37 L 3.62,17.81 L 3.62,16.70 L 2.78,16.27 Z" fill="#947340" stroke="none" /><path d="M 6.29,13.66 L 6.29,14.76 L 8.03,15.63 L 8.10,15.63 L 8.10,14.53 L 6.36,13.66 Z" fill="#947340" stroke="none" /><path d="M 16.20,27.82 L 16.13,27.82 L 14.39,28.69 L 14.39,29.79 L 14.46,29.79 L 16.20,28.92 Z" fill="#414141" stroke="none" /><path d="M 19.78,27.11 L 17.14,28.42 L 17.10,28.45 L 17.10,29.56 L 19.75,28.25 L 19.78,28.22 Z" fill="#414141" stroke="none" /><path d="M 24.30,24.87 L 24.23,24.87 L 22.49,25.74 L 22.49,26.85 L 22.56,26.85 L 24.30,25.97 Z" fill="#414141" stroke="none" /><path d="M 21.59,22.90 L 20.69,23.33 L 20.69,24.44 L 20.75,24.44 L 21.59,24.00 Z" fill="#414141" stroke="none" /><path d="M 28.79,21.52 L 28.72,21.52 L 26.98,22.39 L 26.98,23.50 L 27.05,23.50 L 28.79,22.63 Z" fill="#414141" stroke="none" /><path d="M 19.78,20.52 L 19.72,20.52 L 18.88,20.95 L 18.88,22.03 L 18.81,22.09 L 17.97,22.49 L 17.97,24.70 L 18.88,24.27 L 18.88,22.09 L 18.95,22.03 L 19.75,21.62 L 19.78,21.66 L 19.78,22.69 L 19.85,22.69 L 20.69,22.26 L 20.69,21.15 L 19.82,21.59 L 19.78,21.56 Z" fill="#414141" stroke="none" /><path d="M 25.17,18.91 L 24.30,19.35 L 24.30,21.52 L 24.37,21.52 L 25.17,21.12 Z" fill="#414141" stroke="none" /><path d="M 23.40,18.71 L 23.33,18.71 L 22.49,19.15 L 22.49,23.53 L 22.56,23.53 L 23.40,23.10 Z" fill="#414141" stroke="none" /><path d="M 15.26,18.34 L 14.39,18.78 L 14.39,20.99 L 15.26,20.55 L 15.30,20.59 L 15.30,24.94 L 15.36,24.94 L 16.20,24.50 L 16.20,18.98 L 15.33,19.41 L 15.30,19.38 L 15.30,18.34 Z" fill="#414141" stroke="none" /><path d="M 15.30,15.03 L 14.39,15.46 L 14.39,16.57 L 14.46,16.57 L 15.30,16.13 Z" fill="#414141" stroke="none" /><path d="M 27.82,13.15 L 26.98,13.59 L 26.98,19.11 L 27.85,18.68 L 27.88,18.71 L 27.88,19.75 L 27.92,19.75 L 28.79,19.31 L 28.79,17.10 L 27.92,17.54 L 27.88,17.51 L 27.88,13.15 Z" fill="#414141" stroke="none" /><path d="M 23.40,10.98 L 22.49,11.41 L 22.49,12.52 L 22.56,12.52 L 23.40,12.08 Z" fill="#414141" stroke="none" /><path d="M 26.08,9.64 L 25.17,10.08 L 25.17,11.18 L 25.24,11.18 L 26.08,10.74 Z" fill="#414141" stroke="none" /><path d="M 12.59,30.03 L 12.59,31.10 L 13.42,31.53 L 13.49,31.53 L 13.49,30.46 L 12.65,30.03 Z" fill="#464646" stroke="none" /><path d="M 9.00,28.22 L 9.00,29.32 L 10.74,30.19 L 10.81,30.19 L 10.81,29.12 Z" fill="#464646" stroke="none" /><path d="M 7.20,27.31 L 7.20,28.42 L 8.10,28.85 L 8.10,27.75 Z" fill="#464646" stroke="none" /><path d="M 2.71,25.07 L 2.71,26.18 L 4.49,27.05 L 4.49,25.94 Z" fill="#464646" stroke="none" /><path d="M 9.00,22.73 L 9.00,24.90 L 10.81,25.81 L 10.81,24.70 L 9.91,24.23 L 9.91,23.16 L 9.07,22.73 Z" fill="#464646" stroke="none" /><path d="M 0.90,19.75 L 0.90,20.85 L 1.74,21.29 L 1.81,21.29 L 1.81,20.18 Z" fill="#464646" stroke="none" /><path d="M 13.49,17.24 L 13.49,18.34 L 14.33,18.78 L 14.39,18.78 L 14.39,17.67 Z" fill="#464646" stroke="none" /><path d="M 9.91,14.36 L 9.91,15.46 L 11.68,16.33 L 11.68,15.23 L 9.97,14.36 Z" fill="#464646" stroke="none" /><path d="M 8.10,13.46 L 8.10,14.56 L 9.00,15.00 L 9.00,13.89 L 8.17,13.46 Z" fill="#464646" stroke="none" /><path d="M 3.62,11.21 L 3.62,12.32 L 5.39,13.19 L 5.39,12.08 L 3.68,11.21 Z" fill="#464646" stroke="none" /><path d="M 0.00,9.41 L 0.00,11.62 L 1.74,12.49 L 1.81,12.49 L 1.81,11.38 L 0.97,10.98 L 0.90,10.91 L 0.90,9.84 L 0.07,9.41 Z" fill="#464646" stroke="none" /><path d="M 15.30,27.15 L 15.30,28.25 L 16.17,27.82 L 16.20,27.85 L 16.20,28.89 L 16.27,28.89 L 17.97,28.02 L 17.97,26.91 L 16.23,27.78 L 16.20,27.75 L 16.20,26.71 L 16.13,26.71 Z" fill="#4c4c4c" stroke="none" /><path d="M 18.88,20.95 L 17.97,21.39 L 17.97,22.49 L 18.04,22.49 L 18.88,22.06 Z" fill="#4c4c4c" stroke="none" /><path d="M 27.88,20.85 L 26.98,21.29 L 26.98,22.39 L 26.08,22.86 L 26.08,23.97 L 26.98,23.53 L 26.98,22.43 L 27.88,21.96 Z" fill="#4c4c4c" stroke="none" /><path d="M 15.30,20.55 L 15.23,20.55 L 14.39,20.99 L 14.39,26.48 L 14.46,26.48 L 15.30,26.04 Z" fill="#4c4c4c" stroke="none" /><path d="M 22.49,20.25 L 20.69,21.15 L 20.69,23.33 L 20.75,23.33 L 21.56,22.93 L 21.59,22.96 L 21.59,24.00 L 22.49,23.56 Z" fill="#4c4c4c" stroke="none" /><path d="M 25.17,17.81 L 24.30,18.24 L 24.30,19.35 L 25.17,18.91 Z" fill="#4c4c4c" stroke="none" /><path d="M 28.79,16.00 L 27.88,16.44 L 27.88,17.54 L 27.95,17.54 L 28.79,17.10 Z" fill="#4c4c4c" stroke="none" /><path d="M 28.79,11.62 L 28.72,11.62 L 27.88,12.05 L 27.88,14.23 L 27.95,14.23 L 28.79,13.79 Z" fill="#4c4c4c" stroke="none" /><path d="M 22.49,11.45 L 22.43,11.45 L 18.04,13.66 L 17.97,13.62 L 17.97,12.59 L 16.20,13.46 L 16.20,14.56 L 15.30,15.03 L 15.30,16.13 L 20.65,13.46 L 20.69,13.49 L 20.69,14.53 L 20.75,14.53 L 21.56,14.13 L 21.59,14.09 L 21.59,13.02 L 21.66,12.95 L 22.49,12.55 Z" fill="#4c4c4c" stroke="none" /><path d="M 24.30,9.44 L 24.23,9.44 L 23.40,9.87 L 23.40,10.98 L 24.30,10.54 Z" fill="#4c4c4c" stroke="none" /><path d="M 28.79,8.30 L 28.72,8.30 L 27.01,9.17 L 26.98,9.14 L 26.98,8.10 L 26.91,8.10 L 25.17,8.97 L 25.17,10.08 L 25.24,10.08 L 26.04,9.67 L 26.08,9.71 L 26.08,10.74 L 26.11,10.74 L 28.79,9.41 Z" fill="#4c4c4c" stroke="none" /><path d="M 11.68,26.24 L 11.68,27.35 L 12.52,27.78 L 12.59,27.78 L 12.59,26.68 Z" fill="#9d824c" stroke="none" /><path d="M 11.68,21.86 L 11.68,22.96 L 12.59,23.40 L 12.59,22.29 L 11.75,21.86 Z" fill="#9d824c" stroke="none" /><path d="M 1.81,21.32 L 1.81,22.43 L 7.20,25.10 L 7.20,24.00 L 7.16,23.97 L 1.87,21.32 Z" fill="#9d824c" stroke="none" /><path d="M 4.49,20.45 L 4.49,21.56 L 8.03,23.33 L 8.10,23.33 L 8.10,22.26 L 8.07,22.23 Z" fill="#9d824c" stroke="none" /><path d="M 11.68,19.65 L 11.68,20.75 L 12.59,21.19 L 12.59,20.08 L 11.75,19.65 Z" fill="#9d824c" stroke="none" /><path d="M 11.68,17.44 L 11.68,18.54 L 12.59,18.98 L 12.59,17.87 Z" fill="#9d824c" stroke="none" /><path d="M 1.81,16.90 L 1.81,18.01 L 1.84,18.04 L 7.13,20.69 L 7.20,20.69 L 7.20,19.58 Z" fill="#9d824c" stroke="none" /><path d="M 1.81,12.52 L 1.81,13.59 L 2.71,14.06 L 2.71,15.16 L 4.42,16.00 L 4.49,16.07 L 4.49,17.14 L 4.52,17.17 L 9.91,19.85 L 9.91,18.74 L 9.87,18.71 L 4.55,16.07 L 4.49,16.00 L 4.49,15.00 L 4.55,14.96 L 7.13,16.27 L 7.20,16.27 L 7.20,15.20 L 7.16,15.16 L 1.87,12.52 Z" fill="#9d824c" stroke="none" /><path d="M 12.59,28.92 L 12.59,30.03 L 13.42,30.43 L 13.49,30.49 L 13.49,31.56 L 14.39,32.00 L 14.39,29.79 L 12.65,28.92 Z" fill="#535353" stroke="none" /><path d="M 8.10,27.78 L 8.10,28.85 L 8.94,29.29 L 9.00,29.29 L 9.00,28.22 L 8.17,27.78 Z" fill="#535353" stroke="none" /><path d="M 13.49,26.04 L 13.49,27.15 L 14.33,27.58 L 14.39,27.58 L 14.39,26.48 Z" fill="#535353" stroke="none" /><path d="M 10.81,24.70 L 10.81,25.81 L 11.68,26.24 L 11.68,25.14 Z" fill="#535353" stroke="none" /><path d="M 0.00,22.63 L 0.00,24.80 L 2.64,26.14 L 2.71,26.14 L 2.71,25.07 L 0.97,24.20 L 0.90,24.13 L 0.90,23.06 L 0.07,22.63 Z" fill="#535353" stroke="none" /><path d="M 0.00,19.31 L 0.00,20.42 L 0.90,20.85 L 0.90,19.75 L 0.07,19.31 Z" fill="#535353" stroke="none" /><path d="M 12.59,16.80 L 12.59,17.91 L 13.49,18.34 L 13.49,17.24 L 12.65,16.80 Z" fill="#535353" stroke="none" /><path d="M 9.00,13.89 L 9.00,15.00 L 9.84,15.43 L 9.91,15.43 L 9.91,14.33 Z" fill="#535353" stroke="none" /><path d="M 17.10,12.12 L 16.23,11.68 L 16.17,11.68 L 14.43,12.55 L 14.43,12.62 L 15.23,13.02 L 15.36,13.02 L 17.10,12.15 Z" fill="#535353" stroke="none" /><path d="M 10.81,11.68 L 10.81,11.72 L 13.42,13.02 L 13.56,13.02 L 14.36,12.62 L 14.36,12.55 L 11.75,11.25 L 11.65,11.25 Z" fill="#535353" stroke="none" /><path d="M 0.90,9.84 L 0.90,10.95 L 0.94,10.98 L 3.55,12.28 L 3.62,12.28 L 3.62,11.18 L 2.78,10.78 L 2.71,10.71 L 2.71,9.64 L 2.68,9.61 L 1.87,9.21 L 1.81,9.21 L 1.81,10.24 L 1.77,10.28 Z" fill="#535353" stroke="none" /><path d="M 26.08,6.73 L 24.30,5.82 L 23.40,6.26 L 23.43,6.33 L 25.07,7.13 L 25.14,7.20 L 22.53,8.50 L 22.53,8.57 L 23.33,8.97 L 23.46,8.97 L 26.08,7.67 L 26.04,7.60 L 25.24,7.20 L 25.31,7.13 L 26.08,6.76 Z" fill="#535353" stroke="none" /><path d="M 5.39,6.26 L 4.49,5.82 L 2.74,6.69 L 2.71,6.76 L 3.48,7.13 L 3.55,7.20 L 2.74,7.60 L 2.71,7.67 L 3.58,8.10 L 4.49,7.67 L 4.45,7.60 L 3.65,7.20 L 3.72,7.13 L 5.36,6.33 Z" fill="#535353" stroke="none" /><path d="M 16.20,1.77 L 15.33,1.34 L 15.26,1.34 L 14.43,1.77 L 14.36,1.77 L 13.52,1.34 L 13.46,1.34 L 10.85,2.64 L 10.81,2.71 L 11.72,3.15 L 14.36,1.81 L 14.43,1.81 L 15.26,2.24 L 15.33,2.24 L 16.20,1.81 Z" fill="#535353" stroke="none" /><path d="M 7.20,24.00 L 7.20,25.10 L 8.03,25.54 L 8.10,25.54 L 8.10,24.44 Z" fill="#ad8d54" stroke="none" /><path d="M 8.10,22.26 L 8.10,23.36 L 9.00,23.80 L 9.00,22.69 Z" fill="#ad8d54" stroke="none" /><path d="M 1.81,19.11 L 1.81,20.22 L 4.42,21.52 L 4.49,21.52 L 4.49,20.45 L 4.45,20.42 Z" fill="#ad8d54" stroke="none" /><path d="M 11.68,18.54 L 11.68,19.65 L 12.59,20.08 L 12.59,18.98 L 11.75,18.54 Z" fill="#ad8d54" stroke="none" /><path d="M 7.20,15.20 L 7.20,16.30 L 8.94,17.17 L 9.00,17.17 L 9.00,16.10 Z" fill="#ad8d54" stroke="none" /><path d="M 1.81,14.69 L 1.81,15.80 L 1.84,15.83 L 4.45,17.14 L 4.49,17.14 L 4.49,16.10 L 4.52,16.07 L 5.32,16.47 L 5.39,16.47 L 5.39,15.36 L 4.52,14.93 L 4.49,14.93 L 4.49,15.97 L 4.42,16.00 Z" fill="#ad8d54" stroke="none" /><path d="M 15.30,27.15 L 14.39,27.58 L 14.39,28.69 L 14.46,28.69 L 15.30,28.25 Z" fill="#555555" stroke="none" /><path d="M 26.08,22.86 L 18.01,26.88 L 17.97,26.91 L 17.97,28.02 L 26.04,24.00 L 26.08,23.97 Z" fill="#555555" stroke="none" /><path d="M 28.79,20.42 L 28.72,20.42 L 27.88,20.85 L 27.88,21.96 L 28.79,21.52 Z" fill="#555555" stroke="none" /><path d="M 22.49,19.15 L 19.78,20.49 L 19.78,21.59 L 19.85,21.59 L 22.46,20.28 L 22.49,20.25 Z" fill="#555555" stroke="none" /><path d="M 28.79,13.79 L 27.88,14.23 L 27.88,16.44 L 27.95,16.44 L 28.79,16.00 Z" fill="#555555" stroke="none" /><path d="M 16.20,13.49 L 16.13,13.49 L 14.39,14.36 L 14.39,15.46 L 14.46,15.46 L 16.20,14.59 Z" fill="#555555" stroke="none" /><path d="M 23.40,9.87 L 18.01,12.55 L 17.97,12.59 L 17.97,13.69 L 23.36,11.01 L 23.40,10.98 Z" fill="#555555" stroke="none" /><path d="M 25.17,9.00 L 25.10,9.00 L 24.30,9.41 L 24.30,10.51 L 24.37,10.51 L 25.17,10.11 Z" fill="#555555" stroke="none" /><path d="M 28.79,7.20 L 28.72,7.20 L 26.98,8.07 L 26.98,9.17 L 27.05,9.17 L 28.79,8.30 Z" fill="#555555" stroke="none" /><path d="M 8.10,24.47 L 8.10,25.57 L 11.68,27.35 L 11.68,26.24 L 11.65,26.21 L 8.17,24.47 Z" fill="#b6925e" stroke="none" /><path d="M 11.68,22.96 L 11.68,25.14 L 12.52,25.57 L 12.59,25.57 L 12.59,23.40 L 11.75,22.96 Z" fill="#b6925e" stroke="none" /><path d="M 7.20,19.62 L 7.20,20.72 L 8.94,21.59 L 9.00,21.59 L 9.00,20.49 L 7.26,19.62 Z" fill="#b6925e" stroke="none" /><path d="M 1.81,13.59 L 1.81,14.69 L 2.64,15.13 L 2.71,15.13 L 2.71,14.03 Z" fill="#b6925e" stroke="none" /><path d="M 9.00,10.78 L 9.00,10.81 L 10.74,11.68 L 10.85,11.68 L 11.68,11.25 L 11.68,11.21 L 9.94,10.34 L 9.84,10.34 Z" fill="#5f5f5f" stroke="none" /><path d="M 23.40,8.97 L 22.53,8.54 L 22.46,8.54 L 20.72,9.41 L 20.72,9.47 L 21.52,9.87 L 21.66,9.87 L 23.40,9.00 Z" fill="#5f5f5f" stroke="none" /><path d="M 3.62,8.07 L 3.65,8.13 L 4.45,8.54 L 4.52,8.54 L 5.39,8.10 L 5.39,8.07 L 4.52,7.63 Z" fill="#5f5f5f" stroke="none" /><path d="M 22.49,5.82 L 22.49,5.86 L 23.36,6.29 L 24.27,5.86 L 24.23,5.79 L 23.43,5.39 L 23.36,5.39 Z" fill="#5f5f5f" stroke="none" /><path d="M 9.91,3.11 L 9.94,3.18 L 10.74,3.58 L 10.85,3.58 L 11.68,3.15 L 11.68,3.11 L 10.81,2.68 Z" fill="#5f5f5f" stroke="none" /><path d="M 9.00,20.52 L 9.00,22.73 L 9.91,23.16 L 9.91,20.95 L 9.07,20.52 Z" fill="#c09b61" stroke="none" /><path d="M 4.49,19.35 L 4.49,20.45 L 5.32,20.89 L 5.39,20.89 L 5.39,19.78 Z" fill="#c09b61" stroke="none" /><path d="M 1.81,18.01 L 1.81,19.11 L 3.62,20.02 L 3.62,18.91 Z" fill="#c09b61" stroke="none" /><path d="M 8.10,16.74 L 8.10,17.84 L 8.94,18.28 L 9.00,18.28 L 9.00,17.17 Z" fill="#c09b61" stroke="none" /><path d="M 5.39,15.40 L 5.39,16.50 L 6.29,16.94 L 6.29,15.83 L 5.46,15.40 Z" fill="#c09b61" stroke="none" /><path d="M 12.59,25.61 L 12.59,26.71 L 13.49,27.15 L 13.49,26.04 L 12.65,25.61 Z" fill="#696969" stroke="none" /><path d="M 9.91,23.16 L 9.91,24.27 L 11.68,25.14 L 11.68,24.03 Z" fill="#696969" stroke="none" /><path d="M 0.90,23.06 L 0.90,24.17 L 0.94,24.20 L 3.55,25.51 L 3.62,25.51 L 3.62,24.40 Z" fill="#696969" stroke="none" /><path d="M 0.90,18.68 L 0.90,19.75 L 1.74,20.18 L 1.81,20.18 L 1.81,19.11 L 0.97,18.68 Z" fill="#696969" stroke="none" /><path d="M 12.59,17.91 L 12.59,18.98 L 13.42,19.41 L 13.49,19.41 L 13.49,18.34 L 12.65,17.91 Z" fill="#696969" stroke="none" /><path d="M 0.90,12.05 L 0.90,13.15 L 1.81,13.59 L 1.81,12.49 Z" fill="#696969" stroke="none" /><path d="M 14.36,11.68 L 13.49,12.12 L 13.49,12.15 L 14.36,12.59 L 13.49,13.02 L 13.49,13.05 L 14.36,13.49 L 14.43,13.49 L 15.30,13.05 L 15.30,13.02 L 14.43,12.59 L 15.30,12.15 L 15.30,12.12 L 14.43,11.68 Z" fill="#696969" stroke="none" /><path d="M 16.23,11.65 L 16.23,11.72 L 17.04,12.12 L 17.17,12.12 L 17.97,11.72 L 17.94,11.65 L 17.14,11.25 L 17.04,11.25 Z" fill="#696969" stroke="none" /><path d="M 21.59,9.87 L 20.72,9.44 L 20.65,9.44 L 18.04,10.74 L 18.01,10.81 L 18.91,11.25 L 21.59,9.91 Z" fill="#696969" stroke="none" /><path d="M 7.20,9.87 L 7.20,9.91 L 8.94,10.78 L 9.04,10.78 L 9.87,10.34 L 9.87,10.31 L 8.13,9.44 L 8.07,9.44 Z" fill="#696969" stroke="none" /><path d="M 4.52,8.50 L 4.52,8.57 L 5.32,8.97 L 5.46,8.97 L 6.26,8.57 L 6.26,8.50 L 5.46,8.10 L 5.32,8.10 Z" fill="#696969" stroke="none" /><path d="M 1.81,8.10 L 1.81,9.21 L 2.71,9.64 L 2.71,8.54 L 1.87,8.10 Z" fill="#696969" stroke="none" /><path d="M 23.40,7.16 L 23.43,7.23 L 24.23,7.63 L 24.33,7.63 L 25.17,7.20 L 26.04,7.63 L 26.14,7.63 L 26.98,7.20 L 26.98,7.16 L 26.11,6.73 L 25.24,7.16 L 25.14,7.16 L 24.30,6.73 Z" fill="#696969" stroke="none" /><path d="M 3.62,7.16 L 3.65,7.23 L 4.45,7.63 L 4.55,7.63 L 5.39,7.20 L 5.39,7.16 L 4.52,6.73 Z" fill="#696969" stroke="none" /><path d="M 21.62,5.36 L 21.62,5.42 L 22.43,5.82 L 22.56,5.82 L 23.36,5.42 L 23.36,5.36 L 22.56,4.95 L 22.43,4.95 Z" fill="#696969" stroke="none" /><path d="M 7.16,5.36 L 6.36,4.95 L 6.23,4.95 L 4.55,5.79 L 4.52,5.86 L 5.42,6.29 L 7.16,5.42 Z" fill="#696969" stroke="none" /><path d="M 10.78,3.58 L 9.94,3.15 L 9.84,3.15 L 8.10,4.02 L 8.10,4.05 L 8.97,4.49 L 9.04,4.49 L 10.78,3.62 Z" fill="#696969" stroke="none" /><path d="M 15.33,2.21 L 15.33,2.28 L 17.07,3.15 L 17.97,2.71 L 17.94,2.64 L 16.27,1.81 L 16.13,1.81 Z" fill="#696969" stroke="none" /><path d="M 13.52,2.21 L 13.52,2.28 L 14.33,2.68 L 14.46,2.68 L 15.26,2.28 L 15.26,2.21 L 14.46,1.81 L 14.33,1.81 Z" fill="#696969" stroke="none" /><path d="M 5.39,19.82 L 5.39,20.92 L 8.94,22.69 L 9.00,22.69 L 9.00,21.59 L 5.46,19.82 Z" fill="#d3aa6c" stroke="none" /><path d="M 3.62,18.91 L 3.62,20.02 L 4.49,20.45 L 4.49,19.35 Z" fill="#d3aa6c" stroke="none" /><path d="M 6.29,15.83 L 6.29,16.94 L 8.10,17.84 L 8.10,16.74 Z" fill="#d3aa6c" stroke="none" /><path d="M 11.68,28.45 L 11.68,29.56 L 12.52,29.99 L 12.59,29.99 L 12.59,28.89 Z" fill="#7a7a7a" stroke="none" /><path d="M 13.49,28.25 L 13.49,29.36 L 14.33,29.79 L 14.39,29.79 L 14.39,28.69 Z" fill="#7a7a7a" stroke="none" /><path d="M 9.00,27.11 L 9.00,28.22 L 9.84,28.65 L 9.91,28.65 L 9.91,27.55 Z" fill="#7a7a7a" stroke="none" /><path d="M 12.59,24.50 L 12.59,25.61 L 13.49,26.04 L 13.49,24.94 Z" fill="#7a7a7a" stroke="none" /><path d="M 3.62,24.44 L 3.62,25.54 L 5.39,26.41 L 5.39,25.31 L 3.68,24.44 Z" fill="#7a7a7a" stroke="none" /><path d="M 0.00,21.52 L 0.00,22.63 L 1.74,23.50 L 1.81,23.50 L 1.81,22.39 L 0.07,21.52 Z" fill="#7a7a7a" stroke="none" /><path d="M 12.59,18.98 L 12.59,20.08 L 13.42,20.52 L 13.49,20.52 L 13.49,19.41 Z" fill="#7a7a7a" stroke="none" /><path d="M 11.68,14.13 L 11.68,15.23 L 11.72,15.26 L 14.33,16.57 L 14.39,16.57 L 14.39,15.46 Z" fill="#7a7a7a" stroke="none" /><path d="M 9.91,13.26 L 9.91,14.36 L 10.81,14.79 L 10.81,13.69 L 9.97,13.26 Z" fill="#7a7a7a" stroke="none" /><path d="M 0.00,11.62 L 0.00,13.79 L 0.90,14.26 L 0.90,18.68 L 1.81,19.11 L 1.81,13.59 L 0.90,13.12 L 0.90,12.05 L 0.07,11.62 Z" fill="#7a7a7a" stroke="none" /><path d="M 12.62,11.65 L 12.62,11.72 L 13.42,12.12 L 13.56,12.12 L 14.36,11.72 L 14.36,11.65 L 13.56,11.25 L 13.42,11.25 Z" fill="#7a7a7a" stroke="none" /><path d="M 21.56,10.74 L 20.75,10.34 L 20.65,10.34 L 18.95,11.21 L 18.85,11.21 L 17.97,10.78 L 17.10,11.21 L 17.14,11.28 L 17.94,11.68 L 17.87,11.75 L 16.23,12.55 L 16.23,12.62 L 17.04,13.02 L 17.14,13.02 L 21.56,10.81 Z" fill="#7a7a7a" stroke="none" /><path d="M 2.71,9.64 L 2.71,10.74 L 2.74,10.78 L 6.23,12.52 L 6.29,12.52 L 6.29,11.41 Z" fill="#7a7a7a" stroke="none" /><path d="M 12.62,9.87 L 12.62,9.91 L 13.49,10.34 L 14.39,9.91 L 14.39,9.87 L 13.52,9.44 L 13.46,9.44 Z" fill="#7a7a7a" stroke="none" /><path d="M 5.39,8.97 L 5.39,9.00 L 7.13,9.87 L 7.26,9.87 L 8.07,9.47 L 8.07,9.41 L 6.33,8.54 L 6.26,8.54 Z" fill="#7a7a7a" stroke="none" /><path d="M 15.33,8.50 L 15.33,8.57 L 16.13,8.97 L 16.27,8.97 L 17.07,8.57 L 17.07,8.50 L 16.27,8.10 L 16.13,8.10 Z" fill="#7a7a7a" stroke="none" /><path d="M 9.94,8.50 L 9.94,8.57 L 10.74,8.97 L 10.85,8.97 L 11.65,8.57 L 11.65,8.50 L 10.85,8.10 L 10.74,8.10 Z" fill="#7a7a7a" stroke="none" /><path d="M 1.81,8.07 L 1.81,8.10 L 3.55,8.97 L 3.65,8.97 L 4.45,8.57 L 4.45,8.50 L 2.71,7.63 Z" fill="#7a7a7a" stroke="none" /><path d="M 18.01,7.16 L 18.04,7.23 L 18.85,7.63 L 18.95,7.63 L 19.78,7.20 L 19.78,7.16 L 18.91,6.73 Z" fill="#7a7a7a" stroke="none" /><path d="M 12.62,7.16 L 12.65,7.23 L 13.46,7.63 L 13.52,7.63 L 14.39,7.20 L 14.39,7.16 L 13.52,6.73 Z" fill="#7a7a7a" stroke="none" /><path d="M 7.20,7.16 L 7.20,7.20 L 8.07,7.63 L 8.13,7.63 L 8.97,7.20 L 8.97,7.16 L 8.10,6.73 Z" fill="#7a7a7a" stroke="none" /><path d="M 4.52,6.73 L 4.52,6.76 L 5.39,7.20 L 6.29,6.76 L 6.26,6.69 L 5.46,6.29 L 5.36,6.29 Z" fill="#7a7a7a" stroke="none" /><path d="M 25.21,6.26 L 25.24,6.33 L 26.04,6.73 L 26.14,6.73 L 26.95,6.33 L 26.95,6.26 L 26.14,5.86 L 26.01,5.86 Z" fill="#7a7a7a" stroke="none" /><path d="M 21.62,6.26 L 21.62,6.33 L 23.26,7.13 L 23.33,7.20 L 22.53,7.60 L 22.53,7.67 L 23.33,8.07 L 23.46,8.07 L 24.27,7.67 L 24.23,7.60 L 23.43,7.20 L 23.50,7.13 L 24.27,6.76 L 24.23,6.69 L 22.56,5.86 L 22.43,5.86 Z" fill="#7a7a7a" stroke="none" /><path d="M 15.30,5.82 L 15.30,5.86 L 16.17,6.29 L 17.07,5.86 L 17.04,5.79 L 16.23,5.39 L 16.17,5.39 Z" fill="#7a7a7a" stroke="none" /><path d="M 9.91,5.82 L 9.91,5.86 L 10.78,6.29 L 11.68,5.86 L 11.65,5.79 L 10.85,5.39 L 10.74,5.39 Z" fill="#7a7a7a" stroke="none" /><path d="M 5.36,5.36 L 4.55,4.95 L 4.45,4.95 L 1.84,6.26 L 1.84,6.33 L 2.64,6.73 L 2.74,6.73 L 5.36,5.42 Z" fill="#7a7a7a" stroke="none" /><path d="M 12.62,4.45 L 12.62,4.52 L 13.42,4.92 L 13.56,4.92 L 14.36,4.52 L 14.36,4.45 L 13.56,4.05 L 13.42,4.05 Z" fill="#7a7a7a" stroke="none" /><path d="M 5.42,4.49 L 5.42,4.52 L 7.16,5.39 L 7.23,5.39 L 8.97,4.52 L 8.97,4.45 L 8.17,4.05 L 8.03,4.05 L 7.20,4.49 L 6.36,4.05 L 6.26,4.05 Z" fill="#7a7a7a" stroke="none" /><path d="M 17.10,3.11 L 17.14,3.18 L 21.56,5.39 L 21.62,5.39 L 22.46,4.95 L 22.53,4.95 L 24.23,5.82 L 24.33,5.82 L 25.14,5.42 L 25.14,5.36 L 22.53,4.05 L 22.43,4.05 L 21.59,4.49 L 18.01,2.68 Z" fill="#7a7a7a" stroke="none" /><path d="M 14.39,2.68 L 14.39,2.71 L 15.26,3.15 L 16.17,2.71 L 16.13,2.64 L 15.33,2.24 L 15.26,2.24 Z" fill="#7a7a7a" stroke="none" /><path d="M 15.33,1.31 L 15.33,1.37 L 16.13,1.77 L 16.27,1.77 L 17.07,1.37 L 17.04,1.31 L 16.23,0.90 L 16.13,0.90 Z" fill="#7a7a7a" stroke="none" /><path d="M 11.72,1.34 L 11.72,1.37 L 12.52,1.77 L 12.65,1.77 L 13.46,1.37 L 13.46,1.31 L 12.65,0.90 L 12.55,0.90 Z" fill="#7a7a7a" stroke="none" /><path d="M 9.91,27.58 L 9.91,28.69 L 11.68,29.56 L 11.68,28.45 L 9.97,27.58 Z" fill="#8d8d8d" stroke="none" /><path d="M 12.59,26.71 L 12.59,28.92 L 13.49,29.36 L 13.49,27.15 L 12.65,26.71 Z" fill="#8d8d8d" stroke="none" /><path d="M 5.39,24.20 L 5.39,26.41 L 9.00,28.22 L 9.00,27.11 L 6.33,25.77 L 6.29,25.74 L 6.29,24.64 Z" fill="#8d8d8d" stroke="none" /><path d="M 0.90,20.85 L 0.90,21.96 L 1.81,22.43 L 1.81,23.53 L 4.42,24.84 L 4.49,24.84 L 4.49,23.73 L 1.84,22.43 L 1.81,22.39 L 1.81,21.29 Z" fill="#8d8d8d" stroke="none" /><path d="M 12.59,20.08 L 12.59,24.50 L 13.49,24.97 L 13.49,26.04 L 14.33,26.48 L 14.39,26.48 L 14.39,25.41 L 13.49,24.94 L 13.49,20.52 Z" fill="#8d8d8d" stroke="none" /><path d="M 13.49,18.34 L 13.49,19.45 L 14.39,19.88 L 14.39,18.78 Z" fill="#8d8d8d" stroke="none" /><path d="M 0.00,13.79 L 0.00,19.31 L 0.90,19.75 L 0.90,14.23 Z" fill="#8d8d8d" stroke="none" /><path d="M 10.81,13.69 L 10.81,14.79 L 11.68,15.23 L 11.68,14.13 Z" fill="#8d8d8d" stroke="none" /><path d="M 10.81,10.78 L 10.81,10.81 L 12.55,11.68 L 12.62,11.68 L 13.49,11.25 L 13.49,11.21 L 11.75,10.34 L 11.65,10.34 Z" fill="#8d8d8d" stroke="none" /><path d="M 18.88,10.31 L 17.97,9.87 L 14.43,11.65 L 14.43,11.72 L 15.23,12.12 L 15.36,12.12 L 18.85,10.38 Z" fill="#8d8d8d" stroke="none" /><path d="M 13.52,9.41 L 13.52,9.47 L 14.33,9.87 L 14.46,9.87 L 15.26,9.47 L 15.26,9.41 L 14.46,9.00 L 14.33,9.00 Z" fill="#8d8d8d" stroke="none" /><path d="M 2.71,8.54 L 2.71,9.64 L 2.74,9.67 L 5.36,10.98 L 5.39,10.98 L 5.39,9.94 L 5.42,9.91 L 6.26,10.31 L 6.29,10.34 L 6.29,12.55 L 9.84,14.33 L 9.91,14.33 L 9.91,13.22 L 7.26,11.92 L 7.20,11.85 L 7.20,10.85 L 7.23,10.81 L 14.33,14.36 L 14.46,14.36 L 17.07,13.05 L 17.04,12.99 L 16.23,12.59 L 16.17,12.59 L 14.39,13.49 L 4.52,8.54 L 4.45,8.54 L 3.62,8.97 Z" fill="#8d8d8d" stroke="none" /><path d="M 23.40,8.07 L 22.53,7.63 L 22.46,7.63 L 20.72,8.50 L 20.72,8.57 L 21.52,8.97 L 21.66,8.97 L 23.40,8.10 Z" fill="#8d8d8d" stroke="none" /><path d="M 16.20,8.07 L 16.20,8.10 L 17.07,8.54 L 17.14,8.54 L 17.97,8.10 L 17.97,8.07 L 17.10,7.63 Z" fill="#8d8d8d" stroke="none" /><path d="M 10.81,8.07 L 10.85,8.13 L 11.65,8.54 L 11.72,8.54 L 12.59,8.10 L 12.59,8.07 L 11.72,7.63 Z" fill="#8d8d8d" stroke="none" /><path d="M 4.52,7.63 L 4.52,7.67 L 8.07,9.44 L 8.13,9.44 L 9.00,9.00 L 9.00,8.97 L 5.46,7.20 L 5.36,7.20 Z" fill="#8d8d8d" stroke="none" /><path d="M 28.75,7.16 L 27.01,6.29 L 26.95,6.29 L 26.11,6.73 L 26.11,6.76 L 26.88,7.13 L 26.95,7.20 L 26.91,7.23 L 20.72,10.31 L 20.72,10.34 L 21.56,10.78 L 21.62,10.78 L 28.72,7.23 Z" fill="#8d8d8d" stroke="none" /><path d="M 19.75,6.29 L 18.91,6.73 L 18.91,6.76 L 19.68,7.13 L 19.75,7.20 L 18.95,7.60 L 18.91,7.67 L 19.72,8.07 L 19.85,8.07 L 20.65,7.67 L 20.65,7.60 L 19.85,7.20 L 19.92,7.13 L 20.69,6.76 L 20.69,6.73 L 19.85,6.29 Z" fill="#8d8d8d" stroke="none" /><path d="M 13.52,6.73 L 13.52,6.76 L 14.33,7.16 L 14.46,7.16 L 15.26,6.76 L 15.23,6.69 L 14.43,6.29 L 14.36,6.29 Z" fill="#8d8d8d" stroke="none" /><path d="M 8.94,6.29 L 8.10,6.73 L 8.10,6.76 L 8.87,7.13 L 8.94,7.20 L 8.13,7.60 L 8.13,7.67 L 8.94,8.07 L 9.07,8.07 L 9.87,7.67 L 9.84,7.60 L 9.04,7.20 L 9.10,7.13 L 9.87,6.76 L 9.87,6.73 L 9.04,6.29 Z" fill="#8d8d8d" stroke="none" /><path d="M 24.30,5.82 L 24.30,5.86 L 25.17,6.29 L 26.08,5.86 L 26.08,5.82 L 25.21,5.39 L 25.14,5.39 Z" fill="#8d8d8d" stroke="none" /><path d="M 19.82,5.36 L 19.82,5.42 L 21.56,6.29 L 21.62,6.29 L 22.49,5.86 L 22.49,5.82 L 20.75,4.95 L 20.62,4.95 Z" fill="#8d8d8d" stroke="none" /><path d="M 16.23,5.36 L 16.23,5.42 L 17.04,5.82 L 17.14,5.82 L 17.97,5.39 L 17.97,5.36 L 17.17,4.95 L 17.04,4.95 Z" fill="#8d8d8d" stroke="none" /><path d="M 10.81,5.36 L 10.85,5.42 L 11.65,5.82 L 11.75,5.82 L 12.55,5.42 L 12.55,5.36 L 11.75,4.95 L 11.62,4.95 Z" fill="#8d8d8d" stroke="none" /><path d="M 9.91,4.92 L 9.04,4.49 L 8.97,4.49 L 5.42,6.26 L 5.42,6.29 L 6.26,6.73 L 6.36,6.73 L 9.91,4.95 Z" fill="#8d8d8d" stroke="none" /><path d="M 4.52,4.92 L 4.55,4.99 L 5.36,5.39 L 5.42,5.39 L 6.29,4.95 L 6.29,4.92 L 5.42,4.49 Z" fill="#8d8d8d" stroke="none" /><path d="M 14.36,3.58 L 13.49,4.02 L 13.49,4.05 L 14.36,4.49 L 13.49,4.92 L 13.49,4.95 L 14.36,5.39 L 14.43,5.39 L 15.30,4.95 L 15.30,4.92 L 14.43,4.49 L 15.30,4.05 L 15.30,4.02 L 14.43,3.58 Z" fill="#8d8d8d" stroke="none" /><path d="M 15.30,3.11 L 15.33,3.18 L 16.13,3.58 L 16.23,3.58 L 17.07,3.15 L 17.07,3.11 L 16.20,2.68 Z" fill="#8d8d8d" stroke="none" /><path d="M 12.62,2.68 L 12.62,2.71 L 13.49,3.15 L 14.39,2.71 L 14.39,2.68 L 13.52,2.24 L 13.46,2.24 Z" fill="#8d8d8d" stroke="none" /><path d="M 16.20,1.77 L 16.20,1.81 L 21.56,4.49 L 21.62,4.49 L 22.46,4.05 L 22.46,4.02 L 17.10,1.34 Z" fill="#8d8d8d" stroke="none" /><path d="M 12.59,1.77 L 11.68,1.34 L 6.33,4.02 L 6.33,4.05 L 7.16,4.49 L 7.23,4.49 L 12.59,1.81 Z" fill="#8d8d8d" stroke="none" /><path d="M 13.49,27.15 L 13.49,28.25 L 14.33,28.69 L 14.39,28.69 L 14.39,27.58 Z" fill="#9f9f9f" stroke="none" /><path d="M 6.29,24.67 L 6.29,25.77 L 12.52,28.89 L 12.59,28.89 L 12.59,27.78 L 6.36,24.67 Z" fill="#9f9f9f" stroke="none" /><path d="M 4.49,23.77 L 4.49,24.87 L 5.39,25.31 L 5.39,24.20 L 4.55,23.77 Z" fill="#9f9f9f" stroke="none" /><path d="M 0.00,20.42 L 0.00,21.52 L 0.90,21.96 L 0.90,20.85 L 0.07,20.42 Z" fill="#9f9f9f" stroke="none" /><path d="M 13.49,19.45 L 13.49,24.97 L 14.39,25.41 L 14.39,19.88 L 13.56,19.45 Z" fill="#9f9f9f" stroke="none" /><path d="M 7.20,10.78 L 7.20,11.88 L 7.23,11.92 L 14.33,15.46 L 14.39,15.46 L 14.39,14.36 Z" fill="#9f9f9f" stroke="none" /><path d="M 5.39,9.87 L 5.39,10.98 L 6.23,11.41 L 6.29,11.41 L 6.29,10.31 Z" fill="#9f9f9f" stroke="none" /><path d="M 16.17,9.87 L 15.33,9.44 L 15.26,9.44 L 13.52,10.31 L 13.52,10.34 L 14.36,10.78 L 14.43,10.78 L 16.17,9.91 Z" fill="#9f9f9f" stroke="none" /><path d="M 8.13,9.41 L 8.13,9.47 L 10.74,10.78 L 10.85,10.78 L 11.68,10.34 L 11.68,10.31 L 9.07,9.00 L 8.94,9.00 Z" fill="#9f9f9f" stroke="none" /><path d="M 21.59,8.97 L 20.72,8.54 L 20.65,8.54 L 18.04,9.84 L 18.01,9.91 L 18.91,10.34 L 21.59,9.00 Z" fill="#9f9f9f" stroke="none" /><path d="M 18.85,8.50 L 18.04,8.10 L 17.94,8.10 L 16.20,8.97 L 16.20,9.00 L 17.10,9.44 L 18.85,8.57 Z" fill="#9f9f9f" stroke="none" /><path d="M 13.46,8.50 L 12.65,8.10 L 12.52,8.10 L 10.85,8.94 L 10.81,9.00 L 11.72,9.44 L 13.46,8.57 Z" fill="#9f9f9f" stroke="none" /><path d="M 19.82,7.16 L 19.85,7.23 L 20.65,7.63 L 20.72,7.63 L 21.59,7.20 L 21.59,7.16 L 20.72,6.73 Z" fill="#9f9f9f" stroke="none" /><path d="M 16.17,7.16 L 15.26,6.73 L 13.52,7.60 L 13.52,7.67 L 14.33,8.07 L 14.46,8.07 L 16.13,7.23 Z" fill="#9f9f9f" stroke="none" /><path d="M 9.00,7.16 L 9.04,7.23 L 9.84,7.63 L 9.94,7.63 L 10.78,7.20 L 10.78,7.16 L 9.91,6.73 Z" fill="#9f9f9f" stroke="none" /><path d="M 18.88,5.82 L 18.04,5.39 L 17.94,5.39 L 16.20,6.26 L 16.20,6.29 L 17.04,6.73 L 17.14,6.73 L 18.88,5.86 Z" fill="#9f9f9f" stroke="none" /><path d="M 13.49,5.82 L 12.62,5.39 L 12.55,5.39 L 10.81,6.26 L 10.81,6.29 L 11.65,6.73 L 11.75,6.73 L 13.49,5.86 Z" fill="#9f9f9f" stroke="none" /><path d="M 14.43,4.45 L 14.43,4.52 L 15.23,4.92 L 15.36,4.92 L 16.17,4.52 L 16.17,4.45 L 15.36,4.05 L 15.23,4.05 Z" fill="#9f9f9f" stroke="none" /><path d="M 16.20,3.58 L 16.20,3.62 L 19.75,5.39 L 19.82,5.39 L 20.69,4.95 L 20.69,4.92 L 17.14,3.15 L 17.04,3.15 Z" fill="#9f9f9f" stroke="none" /><path d="M 13.49,3.11 L 12.59,2.68 L 9.04,4.45 L 9.04,4.52 L 9.84,4.92 L 9.97,4.92 L 13.46,3.18 Z" fill="#9f9f9f" stroke="none" /></svg>