<svg height="32" width="32" viewBox="0 0 32 32"><defs /><path d="M 25.16,22.22 L 23.41,23.10 L 23.37,23.06 L 23.37,20.91 L 23.33,20.91 L 19.84,22.66 L 19.80,22.70 L 19.80,24.88 L 17.97,25.80 L 17.97,28.02 L 25.16,24.45 Z" fill="#000000" stroke="none" /><path d="M 19.80,18.33 L 19.72,18.33 L 17.97,19.20 L 17.97,21.39 L 18.05,21.39 L 19.80,20.51 Z" fill="#000000" stroke="none" /><path d="M 25.16,15.62 L 23.37,16.50 L 23.37,18.68 L 23.45,18.68 L 25.16,17.81 Z" fill="#000000" stroke="none" /><path d="M 5.41,18.72 L 5.41,23.14 L 7.20,24.01 L 7.20,19.60 L 5.49,18.72 Z" fill="#006a00" stroke="none" /><path d="M 14.39,10.77 L 14.39,10.81 L 17.97,12.60 L 19.76,11.73 L 19.72,11.65 L 16.22,9.90 L 16.14,9.90 Z" fill="#00a300" stroke="none" /><path d="M 17.97,12.60 L 16.18,13.48 L 16.18,15.70 L 17.97,14.83 Z" fill="#074306" stroke="none" /><path d="M 19.80,27.11 L 17.97,28.02 L 17.97,30.21 L 18.05,30.21 L 19.80,29.34 Z" fill="#091708" stroke="none" /><path d="M 26.99,14.71 L 25.16,15.62 L 25.16,17.81 L 26.99,16.89 Z" fill="#091708" stroke="none" /><path d="M 21.59,19.60 L 19.80,20.47 L 19.80,22.70 L 21.59,21.82 Z" fill="#0b1f08" stroke="none" /><path d="M 25.16,24.45 L 25.08,24.45 L 23.37,25.32 L 23.37,27.51 L 23.45,27.51 L 25.16,26.63 Z" fill="#0b1e09" stroke="none" /><path d="M 23.37,18.72 L 23.29,18.72 L 21.59,19.60 L 21.59,21.78 L 21.66,21.78 L 23.37,20.91 Z" fill="#0b1e09" stroke="none" /><path d="M 17.97,19.24 L 17.89,19.24 L 16.18,20.11 L 16.18,22.30 L 17.97,21.43 Z" fill="#0c1f09" stroke="none" /><path d="M 25.16,13.44 L 25.08,13.44 L 23.37,14.31 L 23.37,16.50 L 23.45,16.50 L 25.16,15.62 Z" fill="#0c1f09" stroke="none" /><path d="M 17.97,17.01 L 16.18,17.89 L 16.18,20.11 L 17.97,19.24 Z" fill="#0c2109" stroke="none" /><path d="M 25.16,20.03 L 25.08,20.03 L 23.37,20.91 L 23.37,23.10 L 23.45,23.10 L 25.16,22.22 Z" fill="#0c2209" stroke="none" /><path d="M 18.01,10.77 L 18.05,10.85 L 19.72,11.69 L 19.84,11.69 L 21.59,10.81 L 21.59,10.77 L 19.84,9.90 L 19.76,9.90 Z" fill="#0b9f0b" stroke="none" /><path d="M 7.20,21.82 L 7.20,24.01 L 8.90,24.88 L 8.98,24.88 L 8.98,22.70 L 7.27,21.82 Z" fill="#0c6d0c" stroke="none" /><path d="M 16.18,15.70 L 14.39,16.58 L 14.39,18.80 L 16.18,17.93 Z" fill="#103a0f" stroke="none" /><path d="M 19.80,22.70 L 17.97,23.61 L 17.97,25.80 L 18.05,25.80 L 19.80,24.92 Z" fill="#162313" stroke="none" /><path d="M 19.80,16.10 L 17.97,17.01 L 17.97,19.20 L 18.05,19.20 L 19.80,18.33 Z" fill="#162313" stroke="none" /><path d="M 26.99,12.52 L 26.91,12.52 L 25.16,13.40 L 25.16,15.62 L 26.99,14.71 Z" fill="#162313" stroke="none" /><path d="M 19.80,13.91 L 19.72,13.91 L 17.97,14.79 L 17.97,17.01 L 19.80,16.10 Z" fill="#1a4815" stroke="none" /><path d="M 16.18,17.93 L 16.10,17.93 L 14.39,18.80 L 14.39,20.99 L 14.47,20.99 L 16.18,20.11 Z" fill="#1c4e15" stroke="none" /><path d="M 26.99,23.53 L 26.91,23.53 L 25.16,24.41 L 25.16,26.63 L 26.99,25.72 Z" fill="#173816" stroke="none" /><path d="M 23.37,16.54 L 23.29,16.54 L 21.59,17.41 L 21.59,19.60 L 23.37,18.72 Z" fill="#1c4616" stroke="none" /><path d="M 16.18,20.11 L 14.39,20.99 L 14.39,23.18 L 14.47,23.18 L 16.18,22.30 Z" fill="#1e5018" stroke="none" /><path d="M 19.80,11.69 L 17.97,12.60 L 17.97,14.79 L 18.05,14.79 L 19.80,13.91 Z" fill="#1e471a" stroke="none" /><path d="M 26.99,16.89 L 25.16,17.81 L 25.16,20.00 L 25.24,20.00 L 26.99,19.12 Z" fill="#1c371b" stroke="none" /><path d="M 23.37,12.12 L 23.29,12.12 L 21.59,13.00 L 21.59,15.19 L 21.66,15.19 L 23.37,14.31 Z" fill="#1e391c" stroke="none" /><path d="M 28.78,7.20 L 26.99,8.07 L 26.99,10.30 L 28.78,9.42 Z" fill="#1e391d" stroke="none" /><path d="M 28.78,20.43 L 28.70,20.43 L 26.99,21.31 L 26.99,23.49 L 27.07,23.49 L 28.78,22.62 Z" fill="#203c1e" stroke="none" /><path d="M 28.78,16.02 L 28.70,16.02 L 26.99,16.89 L 26.99,19.08 L 27.07,19.08 L 28.78,18.21 Z" fill="#25521e" stroke="none" /><path d="M 17.97,23.61 L 16.18,24.49 L 16.18,26.71 L 17.97,25.84 Z" fill="#203c1f" stroke="none" /><path d="M 26.99,21.31 L 25.16,22.22 L 25.16,24.41 L 25.24,24.41 L 26.99,23.53 Z" fill="#264a20" stroke="none" /><path d="M 8.98,24.92 L 8.98,27.11 L 10.81,28.02 L 10.81,25.80 L 9.06,24.92 Z" fill="#287021" stroke="none" /><path d="M 7.20,19.60 L 7.20,21.82 L 8.98,22.70 L 8.98,20.47 Z" fill="#247521" stroke="none" /><path d="M 23.37,14.31 L 21.59,15.19 L 21.59,17.41 L 23.37,16.54 Z" fill="#223c22" stroke="none" /><path d="M 17.97,21.43 L 17.89,21.43 L 16.18,22.30 L 16.18,24.49 L 16.26,24.49 L 17.97,23.61 Z" fill="#284822" stroke="none" /><path d="M 26.99,10.30 L 25.16,11.21 L 25.16,13.40 L 25.24,13.40 L 26.99,12.52 Z" fill="#284a22" stroke="none" /><path d="M 28.78,22.62 L 26.99,23.49 L 26.99,25.72 L 28.78,24.84 Z" fill="#295222" stroke="none" /><path d="M 21.59,17.41 L 19.80,18.29 L 19.80,20.47 L 19.88,20.47 L 21.59,19.60 Z" fill="#295222" stroke="none" /><path d="M 16.18,28.94 L 16.10,28.94 L 14.39,29.81 L 14.39,32.00 L 14.47,32.00 L 16.18,31.13 Z" fill="#295522" stroke="none" /><path d="M 26.99,19.12 L 26.91,19.12 L 25.16,20.00 L 25.16,22.22 L 26.99,21.31 Z" fill="#295522" stroke="none" /><path d="M 10.81,23.61 L 10.81,25.84 L 12.60,26.71 L 12.60,24.49 Z" fill="#297222" stroke="none" /><path d="M 17.97,14.83 L 17.89,14.83 L 16.18,15.70 L 16.18,17.89 L 16.26,17.89 L 17.97,17.01 Z" fill="#264e23" stroke="none" /><path d="M 0.00,20.43 L 0.00,22.62 L 1.71,23.49 L 1.79,23.49 L 1.79,21.31 L 0.08,20.43 Z" fill="#285f24" stroke="none" /><path d="M 5.41,23.14 L 5.41,25.32 L 7.12,26.20 L 7.20,26.20 L 7.20,24.01 L 5.49,23.14 Z" fill="#256124" stroke="none" /><path d="M 25.16,11.21 L 23.37,12.08 L 23.37,14.31 L 25.16,13.44 Z" fill="#2c5725" stroke="none" /><path d="M 10.81,17.01 L 10.81,19.24 L 12.60,20.11 L 12.60,17.89 Z" fill="#295c25" stroke="none" /><path d="M 10.81,14.83 L 10.81,17.01 L 12.52,17.89 L 12.60,17.89 L 12.60,15.70 L 10.89,14.83 Z" fill="#2d7725" stroke="none" /><path d="M 10.81,21.43 L 10.81,23.61 L 12.52,24.49 L 12.60,24.49 L 12.60,22.30 L 10.89,21.43 Z" fill="#308326" stroke="none" /><path d="M 0.00,7.20 L 0.00,9.42 L 1.79,10.30 L 1.79,8.07 Z" fill="#308527" stroke="none" /><path d="M 17.97,25.84 L 17.89,25.84 L 16.18,26.71 L 16.18,28.90 L 16.26,28.90 L 17.97,28.02 Z" fill="#294028" stroke="none" /><path d="M 21.59,13.00 L 19.80,13.87 L 19.80,16.10 L 21.59,15.22 Z" fill="#2b4f28" stroke="none" /><path d="M 8.98,16.10 L 8.98,18.33 L 10.73,19.20 L 10.81,19.20 L 10.81,17.01 Z" fill="#295628" stroke="none" /><path d="M 3.62,20.03 L 3.62,22.22 L 5.33,23.10 L 5.41,23.10 L 5.41,20.91 L 3.70,20.03 Z" fill="#2a5d28" stroke="none" /><path d="M 7.20,13.00 L 7.20,15.22 L 8.98,16.10 L 8.98,13.87 Z" fill="#317728" stroke="none" /><path d="M 28.78,13.83 L 28.70,13.83 L 26.99,14.71 L 26.99,16.89 L 28.78,16.02 Z" fill="#2f5129" stroke="none" /><path d="M 26.99,8.11 L 26.91,8.11 L 25.16,8.98 L 25.16,11.21 L 26.99,10.30 Z" fill="#31512b" stroke="none" /><path d="M 1.79,8.11 L 1.79,10.30 L 3.62,11.21 L 3.62,8.98 L 1.87,8.11 Z" fill="#33772b" stroke="none" /><path d="M 17.97,28.02 L 16.18,28.90 L 16.18,31.13 L 17.97,30.25 Z" fill="#33582c" stroke="none" /><path d="M 5.41,12.12 L 5.41,14.31 L 7.12,15.19 L 7.20,15.19 L 7.20,13.00 L 5.49,12.12 Z" fill="#2e602c" stroke="none" /><path d="M 8.98,27.11 L 8.98,29.34 L 10.73,30.21 L 10.81,30.21 L 10.81,28.02 Z" fill="#35782c" stroke="none" /><path d="M 12.60,28.94 L 12.60,31.13 L 14.31,32.00 L 14.39,32.00 L 14.39,29.81 L 12.68,28.94 Z" fill="#2e5e2d" stroke="none" /><path d="M 25.16,9.02 L 25.08,9.02 L 23.37,9.90 L 23.37,12.08 L 23.45,12.08 L 25.16,11.21 Z" fill="#35572e" stroke="none" /><path d="M 0.00,9.42 L 0.00,11.61 L 1.71,12.48 L 1.79,12.48 L 1.79,10.30 L 0.08,9.42 Z" fill="#37792e" stroke="none" /><path d="M 3.62,15.62 L 3.62,17.81 L 5.33,18.68 L 5.41,18.68 L 5.41,16.50 Z" fill="#38852e" stroke="none" /><path d="M 7.20,10.81 L 7.20,13.00 L 8.90,13.87 L 8.98,13.87 L 8.98,11.69 L 7.27,10.81 Z" fill="#39762f" stroke="none" /><path d="M 8.98,20.51 L 8.98,22.70 L 10.81,23.61 L 10.81,21.39 L 9.06,20.51 Z" fill="#3c8730" stroke="none" /><path d="M 5.41,16.54 L 5.41,18.72 L 7.20,19.60 L 7.20,17.41 L 5.49,16.54 Z" fill="#3a8830" stroke="none" /><path d="M 1.83,8.07 L 1.87,8.15 L 3.54,8.98 L 3.66,8.98 L 5.37,8.11 L 5.37,8.07 L 3.62,7.20 Z" fill="#368a30" stroke="none" /><path d="M 0.04,7.16 L 0.04,7.23 L 1.79,8.11 L 3.58,7.23 L 3.54,7.16 L 1.87,6.32 L 1.71,6.32 Z" fill="#3daa30" stroke="none" /><path d="M 8.98,22.70 L 8.98,24.92 L 10.73,25.80 L 10.81,25.80 L 10.81,23.61 Z" fill="#3e8231" stroke="none" /><path d="M 1.79,10.30 L 1.79,12.52 L 3.54,13.40 L 3.62,13.40 L 3.62,11.21 Z" fill="#335832" stroke="none" /><path d="M 0.00,11.61 L 0.00,13.83 L 1.79,14.71 L 1.79,12.48 Z" fill="#335e32" stroke="none" /><path d="M 0.00,22.62 L 0.00,24.84 L 1.79,25.72 L 1.79,23.49 Z" fill="#3e8232" stroke="none" /><path d="M 16.18,22.30 L 14.39,23.18 L 14.39,25.40 L 16.18,24.53 Z" fill="#365333" stroke="none" /><path d="M 12.60,13.52 L 12.60,15.70 L 14.31,16.58 L 14.39,16.58 L 14.39,14.39 L 12.68,13.52 Z" fill="#3c7c33" stroke="none" /><path d="M 5.41,9.90 L 5.41,12.12 L 7.20,13.00 L 7.20,10.77 Z" fill="#3d7e33" stroke="none" /><path d="M 21.59,26.24 L 21.51,26.24 L 19.80,27.11 L 19.80,29.30 L 19.88,29.30 L 21.59,28.42 Z" fill="#3a5334" stroke="none" /><path d="M 0.00,18.21 L 0.00,20.43 L 1.79,21.31 L 1.79,19.08 Z" fill="#3e7d34" stroke="none" /><path d="M 3.62,8.98 L 3.62,9.02 L 5.37,9.90 L 5.45,9.90 L 7.20,9.02 L 7.20,8.98 L 5.45,8.11 L 5.33,8.11 Z" fill="#46bd34" stroke="none" /><path d="M 7.20,24.01 L 7.20,26.24 L 8.98,27.11 L 8.98,24.88 Z" fill="#365e35" stroke="none" /><path d="M 0.00,16.02 L 0.00,18.21 L 1.71,19.08 L 1.79,19.08 L 1.79,16.89 L 0.08,16.02 Z" fill="#3d7335" stroke="none" /><path d="M 9.02,9.86 L 9.02,9.94 L 10.77,10.81 L 12.56,9.94 L 12.56,9.86 L 10.81,8.98 Z" fill="#42b135" stroke="none" /><path d="M 21.59,15.22 L 21.51,15.22 L 19.80,16.10 L 19.80,18.29 L 19.88,18.29 L 21.59,17.41 Z" fill="#3a5537" stroke="none" /><path d="M 10.81,12.60 L 10.81,14.83 L 12.60,15.70 L 12.60,13.48 Z" fill="#417f37" stroke="none" /><path d="M 9.02,11.69 L 9.02,11.73 L 10.77,12.60 L 12.56,11.73 L 12.52,11.65 L 10.85,10.81 L 10.73,10.81 Z" fill="#3e8537" stroke="none" /><path d="M 19.80,20.51 L 19.72,20.51 L 17.97,21.39 L 17.97,23.61 L 19.80,22.70 Z" fill="#3a5538" stroke="none" /><path d="M 8.98,11.69 L 8.98,13.91 L 10.73,14.79 L 10.81,14.79 L 10.81,12.60 Z" fill="#3a5939" stroke="none" /><path d="M 3.62,7.20 L 3.62,7.23 L 5.37,8.11 L 7.16,7.23 L 7.16,7.16 L 5.49,6.32 L 5.33,6.32 Z" fill="#3e8b39" stroke="none" /><path d="M 5.41,8.07 L 5.45,8.15 L 7.12,8.98 L 7.27,8.98 L 8.98,8.11 L 8.98,8.07 L 7.23,7.20 L 7.16,7.20 Z" fill="#49c439" stroke="none" /><path d="M 3.62,17.81 L 3.62,20.03 L 5.41,20.91 L 5.41,18.68 Z" fill="#43823a" stroke="none" /><path d="M 16.18,24.53 L 16.10,24.53 L 14.39,25.40 L 14.39,27.59 L 14.47,27.59 L 16.18,26.71 Z" fill="#41533d" stroke="none" /><path d="M 21.59,10.81 L 21.51,10.81 L 19.80,11.69 L 19.80,13.87 L 19.88,13.87 L 21.59,13.00 Z" fill="#3e4f3e" stroke="none" /><path d="M 16.18,13.52 L 16.10,13.52 L 14.39,14.39 L 14.39,16.58 L 14.47,16.58 L 16.18,15.70 Z" fill="#41513f" stroke="none" /><path d="M 0.00,13.83 L 0.00,16.02 L 1.79,16.89 L 1.79,14.71 L 0.08,13.83 Z" fill="#4c8241" stroke="none" /><path d="M 7.20,10.77 L 7.20,10.81 L 8.94,11.69 L 9.06,11.69 L 10.77,10.81 L 10.77,10.77 L 9.02,9.90 L 8.94,9.90 Z" fill="#50b941" stroke="none" /><path d="M 23.37,25.32 L 21.59,26.20 L 21.59,28.42 L 23.37,27.55 Z" fill="#455242" stroke="none" /><path d="M 9.02,2.66 L 9.02,2.74 L 10.77,3.62 L 12.56,2.74 L 12.56,2.66 L 10.81,1.79 Z" fill="#478e43" stroke="none" /><path d="M 3.62,22.22 L 3.62,24.45 L 5.41,25.32 L 5.41,23.10 Z" fill="#478244" stroke="none" /><path d="M 10.81,3.58 L 10.85,3.66 L 12.52,4.49 L 12.64,4.49 L 14.39,3.62 L 14.39,3.58 L 12.64,2.70 L 12.56,2.70 Z" fill="#4a8b48" stroke="none" /><path d="M 28.78,18.21 L 26.99,19.08 L 26.99,21.31 L 28.78,20.43 Z" fill="#4b534a" stroke="none" /><path d="M 16.18,26.71 L 14.39,27.59 L 14.39,29.81 L 16.18,28.94 Z" fill="#4d594a" stroke="none" /><path d="M 12.60,17.93 L 12.60,20.11 L 14.31,20.99 L 14.39,20.99 L 14.39,18.80 L 12.68,17.93 Z" fill="#53844a" stroke="none" /><path d="M 7.23,7.16 L 7.23,7.23 L 8.98,8.11 L 10.77,7.23 L 10.73,7.16 L 9.06,6.32 L 8.90,6.32 Z" fill="#4f984b" stroke="none" /><path d="M 25.20,7.20 L 25.20,7.23 L 26.95,8.11 L 28.74,7.23 L 28.74,7.16 L 27.07,6.32 L 26.91,6.32 Z" fill="#509a4b" stroke="none" /><path d="M 16.22,9.86 L 16.22,9.94 L 17.97,10.81 L 19.76,9.94 L 19.76,9.86 L 18.01,8.98 Z" fill="#4cb84b" stroke="none" /><path d="M 12.60,13.48 L 12.60,13.52 L 14.35,14.39 L 14.43,14.39 L 16.18,13.52 L 16.18,13.48 L 14.43,12.60 L 14.35,12.60 Z" fill="#4fba4b" stroke="none" /><path d="M 25.16,17.81 L 23.37,18.68 L 23.37,20.91 L 25.16,20.03 Z" fill="#4d534c" stroke="none" /><path d="M 12.60,15.70 L 12.60,17.93 L 14.39,18.80 L 14.39,16.58 Z" fill="#53854c" stroke="none" /><path d="M 10.81,25.84 L 10.81,28.02 L 12.52,28.90 L 12.60,28.90 L 12.60,26.71 L 10.89,25.84 Z" fill="#54854c" stroke="none" /><path d="M 12.60,6.28 L 12.60,6.32 L 14.35,7.20 L 14.43,7.20 L 16.18,6.32 L 16.18,6.28 L 14.43,5.41 L 14.35,5.41 Z" fill="#5bb44c" stroke="none" /><path d="M 10.81,10.77 L 10.85,10.85 L 12.52,11.69 L 12.64,11.69 L 14.39,10.81 L 14.39,10.77 L 12.64,9.90 L 12.56,9.90 Z" fill="#5bbe4d" stroke="none" /><path d="M 7.20,8.98 L 7.20,9.02 L 8.94,9.90 L 9.02,9.90 L 10.77,9.02 L 10.73,8.94 L 9.06,8.11 L 8.94,8.11 Z" fill="#5cc24d" stroke="none" /><path d="M 10.81,7.20 L 10.81,7.23 L 12.56,8.11 L 14.35,7.23 L 14.35,7.16 L 12.68,6.32 L 12.52,6.32 Z" fill="#5fca4d" stroke="none" /><path d="M 12.60,22.30 L 12.60,24.53 L 14.39,25.40 L 14.39,23.18 Z" fill="#548750" stroke="none" /><path d="M 14.39,1.79 L 14.39,1.83 L 16.14,2.70 L 16.22,2.70 L 17.97,1.83 L 17.93,1.75 L 16.26,0.91 L 16.14,0.91 Z" fill="#519450" stroke="none" /><path d="M 7.23,5.37 L 7.23,5.45 L 8.90,6.28 L 9.06,6.28 L 10.77,5.41 L 10.77,5.37 L 9.02,4.49 Z" fill="#63d550" stroke="none" /><path d="M 3.62,11.21 L 3.62,13.44 L 5.41,14.31 L 5.41,12.08 Z" fill="#5a8751" stroke="none" /><path d="M 14.39,8.98 L 14.39,9.02 L 16.14,9.90 L 16.22,9.90 L 17.97,9.02 L 17.93,8.94 L 16.26,8.11 L 16.14,8.11 Z" fill="#549351" stroke="none" /><path d="M 14.43,12.56 L 14.43,12.64 L 16.10,13.48 L 16.26,13.48 L 17.97,12.60 L 17.97,12.56 L 16.22,11.69 Z" fill="#60c252" stroke="none" /><path d="M 23.37,9.90 L 21.59,10.77 L 21.59,13.00 L 23.37,12.12 Z" fill="#535353" stroke="none" /><path d="M 28.78,9.42 L 28.70,9.42 L 26.99,10.30 L 26.99,12.48 L 27.07,12.48 L 28.78,11.61 Z" fill="#535353" stroke="none" /><path d="M 8.98,13.91 L 8.98,16.10 L 10.81,17.01 L 10.81,14.79 L 9.06,13.91 Z" fill="#598753" stroke="none" /><path d="M 9.02,8.07 L 9.06,8.15 L 10.73,8.98 L 10.85,8.98 L 12.56,8.11 L 12.56,8.07 L 10.81,7.20 Z" fill="#549153" stroke="none" /><path d="M 18.01,3.58 L 18.05,3.66 L 19.72,4.49 L 19.84,4.49 L 21.59,3.62 L 21.59,3.58 L 19.84,2.70 L 19.76,2.70 Z" fill="#64be54" stroke="none" /><path d="M 5.45,9.86 L 5.45,9.94 L 7.12,10.77 L 7.27,10.77 L 8.94,9.94 L 8.94,9.86 L 7.27,9.02 L 7.12,9.02 Z" fill="#65cb54" stroke="none" /><path d="M 12.60,26.71 L 12.60,28.94 L 14.39,29.81 L 14.39,27.59 Z" fill="#5d8455" stroke="none" /><path d="M 21.62,5.37 L 21.62,5.45 L 23.29,6.28 L 23.45,6.28 L 25.16,5.41 L 25.16,5.37 L 23.41,4.49 Z" fill="#63b155" stroke="none" /><path d="M 12.60,0.87 L 12.64,0.95 L 14.31,1.79 L 14.47,1.79 L 16.18,0.91 L 16.18,0.87 L 14.43,0.00 L 14.35,0.00 Z" fill="#67c656" stroke="none" /><path d="M 28.78,11.61 L 26.99,12.48 L 26.99,14.71 L 28.78,13.83 Z" fill="#575757" stroke="none" /><path d="M 19.80,8.07 L 19.84,8.15 L 23.33,9.90 L 23.41,9.90 L 25.16,9.02 L 25.12,8.94 L 21.62,7.20 L 21.55,7.20 Z" fill="#588e58" stroke="none" /><path d="M 14.43,7.16 L 14.43,7.23 L 16.18,8.11 L 17.97,7.23 L 17.93,7.16 L 16.26,6.32 L 16.10,6.32 Z" fill="#66b758" stroke="none" /><path d="M 5.41,14.31 L 5.41,16.54 L 7.20,17.41 L 7.20,15.19 Z" fill="#61875a" stroke="none" /><path d="M 10.81,19.24 L 10.81,21.43 L 12.60,22.30 L 12.60,20.11 L 10.89,19.24 Z" fill="#608a5a" stroke="none" /><path d="M 21.62,7.16 L 21.62,7.23 L 23.37,8.11 L 25.16,7.23 L 25.12,7.16 L 23.45,6.32 L 23.29,6.32 Z" fill="#5a8e5a" stroke="none" /><path d="M 1.79,19.12 L 1.79,21.31 L 3.62,22.22 L 3.62,20.00 L 1.87,19.12 Z" fill="#618a5c" stroke="none" /><path d="M 12.60,20.11 L 12.60,22.30 L 14.31,23.18 L 14.39,23.18 L 14.39,20.99 Z" fill="#638a5c" stroke="none" /><path d="M 19.80,4.49 L 19.80,4.53 L 21.55,5.41 L 21.62,5.41 L 23.37,4.53 L 23.33,4.45 L 21.66,3.62 L 21.51,3.62 Z" fill="#6ab55c" stroke="none" /><path d="M 16.22,2.66 L 16.22,2.74 L 17.97,3.62 L 19.76,2.74 L 19.76,2.66 L 18.01,1.79 Z" fill="#6ed75c" stroke="none" /><path d="M 1.79,21.31 L 1.79,23.53 L 3.54,24.41 L 3.62,24.41 L 3.62,22.22 Z" fill="#65875e" stroke="none" /><path d="M 23.37,6.28 L 23.37,6.32 L 25.12,7.20 L 25.24,7.20 L 26.99,6.32 L 26.99,6.28 L 25.24,5.41 L 25.12,5.41 Z" fill="#5e935e" stroke="none" /><path d="M 3.62,9.02 L 3.62,11.21 L 5.33,12.08 L 5.41,12.08 L 5.41,9.90 L 3.70,9.02 Z" fill="#65855f" stroke="none" /><path d="M 5.41,25.32 L 5.41,27.55 L 7.20,28.42 L 7.20,26.20 Z" fill="#678960" stroke="none" /><path d="M 7.20,15.22 L 7.20,17.41 L 8.90,18.29 L 8.98,18.29 L 8.98,16.10 L 7.27,15.22 Z" fill="#638a60" stroke="none" /><path d="M 7.20,26.24 L 7.20,28.42 L 8.90,29.30 L 8.98,29.30 L 8.98,27.11 L 7.27,26.24 Z" fill="#658a60" stroke="none" /><path d="M 18.01,7.20 L 18.01,7.23 L 19.76,8.11 L 21.55,7.23 L 21.55,7.16 L 19.88,6.32 L 19.72,6.32 Z" fill="#629a62" stroke="none" /><path d="M 10.81,5.37 L 10.85,5.45 L 12.52,6.28 L 12.68,6.28 L 14.35,5.45 L 14.35,5.37 L 12.60,4.49 Z" fill="#6fb662" stroke="none" /><path d="M 8.98,6.28 L 8.98,6.32 L 10.73,7.20 L 10.85,7.20 L 12.60,6.32 L 12.60,6.28 L 10.85,5.41 L 10.73,5.41 Z" fill="#73cf62" stroke="none" /><path d="M 12.60,24.53 L 12.60,26.71 L 14.31,27.59 L 14.39,27.59 L 14.39,25.40 L 12.68,24.53 Z" fill="#6a8c63" stroke="none" /><path d="M 16.22,4.49 L 16.22,4.53 L 17.97,5.41 L 19.76,4.53 L 19.72,4.45 L 18.05,3.62 L 17.93,3.62 Z" fill="#75ce63" stroke="none" /><path d="M 9.02,4.49 L 9.02,4.53 L 10.77,5.41 L 12.56,4.53 L 12.52,4.45 L 10.85,3.62 L 10.73,3.62 Z" fill="#76d963" stroke="none" /><path d="M 14.39,3.58 L 14.39,3.62 L 16.14,4.49 L 16.26,4.49 L 17.97,3.62 L 17.97,3.58 L 16.22,2.70 L 16.14,2.70 Z" fill="#78d366" stroke="none" /><path d="M 3.62,13.44 L 3.62,15.62 L 5.33,16.50 L 5.41,16.50 L 5.41,14.31 L 3.70,13.44 Z" fill="#6e8d67" stroke="none" /><path d="M 7.20,17.41 L 7.20,19.60 L 8.90,20.47 L 8.98,20.47 L 8.98,18.29 Z" fill="#6d8d69" stroke="none" /><path d="M 18.01,5.37 L 18.05,5.45 L 19.72,6.28 L 19.88,6.28 L 21.55,5.45 L 21.55,5.37 L 19.80,4.49 Z" fill="#77c469" stroke="none" /><path d="M 10.81,28.02 L 10.81,30.25 L 12.60,31.13 L 12.60,28.90 Z" fill="#70856c" stroke="none" /><path d="M 8.98,18.33 L 8.98,20.51 L 10.73,21.39 L 10.81,21.39 L 10.81,19.20 L 9.06,18.33 Z" fill="#758a70" stroke="none" /><path d="M 1.79,16.89 L 1.79,19.12 L 3.54,20.00 L 3.62,20.00 L 3.62,17.81 Z" fill="#778f71" stroke="none" /><path d="M 5.41,6.28 L 5.41,6.32 L 7.16,7.20 L 7.23,7.20 L 8.98,6.32 L 8.98,6.28 L 7.23,5.41 L 7.16,5.41 Z" fill="#7dce76" stroke="none" /><path d="M 1.79,6.28 L 1.79,6.32 L 3.54,7.20 L 3.66,7.20 L 5.41,6.32 L 5.41,6.28 L 3.66,5.41 L 3.54,5.41 Z" fill="#80ce76" stroke="none" /><path d="M 3.62,24.45 L 3.62,26.63 L 5.33,27.51 L 5.41,27.51 L 5.41,25.32 L 3.70,24.45 Z" fill="#828f80" stroke="none" /><path d="M 1.79,23.53 L 1.79,25.72 L 3.62,26.63 L 3.62,24.41 L 1.87,23.53 Z" fill="#878787" stroke="none" /><path d="M 1.79,12.52 L 1.79,14.71 L 3.62,15.62 L 3.62,13.40 L 1.87,12.52 Z" fill="#898989" stroke="none" /><path d="M 12.64,9.86 L 12.64,9.94 L 14.31,10.77 L 14.47,10.77 L 16.14,9.94 L 16.14,9.86 L 14.47,9.02 L 14.31,9.02 Z" fill="#98d48c" stroke="none" /><path d="M 1.79,14.71 L 1.79,16.89 L 3.62,17.81 L 3.62,15.62 Z" fill="#8e918e" stroke="none" /><path d="M 5.41,4.49 L 5.41,4.53 L 7.16,5.41 L 7.23,5.41 L 8.98,4.53 L 8.94,4.45 L 7.27,3.62 L 7.12,3.62 Z" fill="#99d493" stroke="none" /><path d="M 12.60,11.69 L 12.60,11.73 L 14.35,12.60 L 14.43,12.60 L 16.18,11.73 L 16.14,11.65 L 14.47,10.81 L 14.31,10.81 Z" fill="#a1ce9c" stroke="none" /><path d="M 10.81,12.56 L 10.85,12.64 L 12.52,13.48 L 12.68,13.48 L 14.35,12.64 L 14.35,12.56 L 12.60,11.69 Z" fill="#a8d09e" stroke="none" /><path d="M 3.62,5.37 L 3.66,5.45 L 5.33,6.28 L 5.49,6.28 L 7.16,5.45 L 7.16,5.37 L 5.41,4.49 Z" fill="#aacfa3" stroke="none" /><path d="M 7.20,3.58 L 7.20,3.62 L 8.94,4.49 L 9.06,4.49 L 10.77,3.62 L 10.77,3.58 L 9.02,2.70 L 8.94,2.70 Z" fill="#aecfa8" stroke="none" /><path d="M 12.60,8.07 L 12.64,8.15 L 14.31,8.98 L 14.47,8.98 L 16.18,8.11 L 16.18,8.07 L 14.43,7.20 L 14.35,7.20 Z" fill="#b7dcae" stroke="none" /><path d="M 10.81,1.79 L 10.81,1.83 L 12.56,2.70 L 12.64,2.70 L 14.39,1.83 L 14.39,1.79 L 12.64,0.91 L 12.52,0.91 Z" fill="#badcb2" stroke="none" /><path d="M 10.81,8.98 L 10.81,9.02 L 12.56,9.90 L 12.64,9.90 L 14.39,9.02 L 14.39,8.98 L 12.64,8.11 L 12.52,8.11 Z" fill="#bed2bc" stroke="none" /><path d="M 23.41,8.07 L 23.45,8.15 L 25.12,8.98 L 25.24,8.98 L 26.95,8.11 L 26.95,8.07 L 25.20,7.20 Z" fill="#c1d4bc" stroke="none" /><path d="M 14.43,5.37 L 14.43,5.45 L 16.10,6.28 L 16.26,6.28 L 17.97,5.41 L 17.97,5.37 L 16.22,4.49 Z" fill="#c2dcbe" stroke="none" /><path d="M 12.64,2.66 L 12.64,2.74 L 14.31,3.58 L 14.47,3.58 L 16.14,2.74 L 16.14,2.66 L 14.47,1.83 L 14.31,1.83 Z" fill="#c5e1c0" stroke="none" /><path d="M 18.01,8.98 L 18.01,9.02 L 19.76,9.90 L 19.84,9.90 L 21.59,9.02 L 21.59,8.98 L 19.84,8.11 L 19.72,8.11 Z" fill="#c9dcc5" stroke="none" /><path d="M 16.18,6.28 L 16.18,6.32 L 17.93,7.20 L 18.05,7.20 L 19.80,6.32 L 19.80,6.28 L 18.05,5.41 L 17.93,5.41 Z" fill="#cfcfcf" stroke="none" /><path d="M 19.84,9.86 L 19.84,9.94 L 21.51,10.77 L 21.66,10.77 L 23.33,9.94 L 23.33,9.86 L 21.66,9.02 L 21.51,9.02 Z" fill="#d8dfd5" stroke="none" /><path d="M 19.80,6.28 L 19.80,6.32 L 21.55,7.20 L 21.62,7.20 L 23.37,6.32 L 23.37,6.28 L 21.62,5.41 L 21.55,5.41 Z" fill="#d7d7d7" stroke="none" /><path d="M 12.60,4.49 L 12.60,4.53 L 14.35,5.41 L 14.43,5.41 L 16.18,4.53 L 16.14,4.45 L 14.47,3.62 L 14.31,3.62 Z" fill="#d9d9d9" stroke="none" /><path d="M 16.22,8.07 L 16.26,8.15 L 17.93,8.98 L 18.05,8.98 L 19.76,8.11 L 19.76,8.07 L 18.01,7.20 Z" fill="#e1e1e1" stroke="none" /></svg>