<svg height="32" width="32" viewBox="0 0 32 32"><defs /><path d="M 16.19,28.98 L 16.13,28.98 L 15.27,29.42 L 15.27,30.50 L 15.33,30.50 L 16.19,30.06 Z" fill="#141516" stroke="none" /><path d="M 24.33,19.34 L 23.41,19.79 L 23.41,20.90 L 23.48,20.90 L 24.33,20.45 Z" fill="#141516" stroke="none" /><path d="M 21.60,16.29 L 21.53,16.29 L 19.79,17.18 L 19.79,18.29 L 21.60,17.40 Z" fill="#141516" stroke="none" /><path d="M 19.79,14.98 L 19.72,14.98 L 18.89,15.40 L 18.89,16.51 L 18.96,16.51 L 19.79,16.10 Z" fill="#141516" stroke="none" /><path d="M 24.33,13.81 L 23.41,14.25 L 23.41,15.36 L 24.33,14.92 Z" fill="#141516" stroke="none" /><path d="M 16.19,27.86 L 16.13,27.86 L 15.27,28.31 L 15.27,29.39 L 15.20,29.46 L 14.41,29.84 L 14.41,30.95 L 15.27,30.54 L 15.27,29.46 L 15.33,29.39 L 16.19,28.98 Z" fill="#151618" stroke="none" /><path d="M 24.33,18.26 L 24.27,18.26 L 23.41,18.70 L 23.41,19.79 L 22.52,20.23 L 22.52,22.46 L 22.58,22.46 L 24.30,21.60 L 24.33,21.57 L 24.33,20.49 L 24.40,20.42 L 25.22,20.01 L 25.22,18.89 L 24.37,19.31 L 24.33,19.28 Z" fill="#151618" stroke="none" /><path d="M 20.71,15.62 L 18.93,16.51 L 18.89,16.48 L 18.89,15.43 L 18.83,15.43 L 17.08,16.32 L 17.08,18.51 L 17.15,18.51 L 18.83,17.65 L 18.89,17.69 L 18.89,20.93 L 18.83,20.99 L 16.19,22.30 L 16.19,24.52 L 18.89,23.19 L 18.89,22.08 L 19.79,21.63 L 19.79,20.55 L 19.85,20.49 L 21.60,19.63 L 21.60,18.51 L 22.52,18.04 L 22.52,16.92 L 22.49,16.92 L 19.85,18.26 L 19.79,18.23 L 19.79,17.21 L 19.85,17.15 L 20.71,16.73 Z" fill="#151618" stroke="none" /><path d="M 25.22,11.13 L 22.52,12.47 L 22.52,14.70 L 22.58,14.70 L 25.22,13.36 Z" fill="#151618" stroke="none" /><path d="M 27.04,8.08 L 26.97,8.08 L 26.15,8.49 L 26.15,10.66 L 26.21,10.66 L 27.93,9.80 L 27.93,8.68 L 27.07,9.10 L 27.04,9.07 Z" fill="#151618" stroke="none" /><path d="M 15.27,28.31 L 14.41,28.72 L 14.41,29.84 L 14.47,29.84 L 15.27,29.42 Z" fill="#17181a" stroke="none" /><path d="M 20.71,20.07 L 20.64,20.07 L 19.79,20.52 L 19.79,21.60 L 18.89,22.04 L 18.89,23.16 L 18.96,23.16 L 19.79,22.74 L 19.79,21.63 L 20.71,21.15 Z" fill="#17181a" stroke="none" /><path d="M 25.22,20.01 L 24.33,20.45 L 24.33,21.57 L 25.22,21.12 Z" fill="#17181a" stroke="none" /><path d="M 18.89,19.85 L 17.97,20.29 L 17.97,21.41 L 18.04,21.41 L 18.89,20.96 Z" fill="#17181a" stroke="none" /><path d="M 25.22,17.81 L 25.16,17.81 L 24.33,18.23 L 24.33,19.34 L 25.22,18.89 Z" fill="#17181a" stroke="none" /><path d="M 18.89,17.62 L 17.97,18.07 L 17.97,19.18 L 18.04,19.18 L 18.89,18.74 Z" fill="#17181a" stroke="none" /><path d="M 17.08,16.32 L 16.19,16.76 L 16.19,18.96 L 16.25,18.96 L 17.08,18.54 Z" fill="#17181a" stroke="none" /><path d="M 20.71,14.50 L 19.79,14.95 L 19.79,16.06 L 19.85,16.06 L 20.71,15.62 Z" fill="#17181a" stroke="none" /><path d="M 23.41,14.28 L 23.35,14.28 L 22.52,14.70 L 22.52,15.78 L 22.46,15.84 L 21.60,16.25 L 21.60,17.37 L 21.66,17.37 L 22.52,16.92 L 22.52,15.84 L 22.58,15.78 L 23.41,15.36 Z" fill="#17181a" stroke="none" /><path d="M 25.22,13.36 L 24.33,13.81 L 24.33,14.89 L 24.40,14.89 L 25.22,14.47 Z" fill="#17181a" stroke="none" /><path d="M 27.93,7.63 L 27.86,7.63 L 27.04,8.05 L 27.04,9.13 L 27.93,8.68 Z" fill="#17181a" stroke="none" /><path d="M 20.71,21.15 L 19.79,21.60 L 19.79,22.71 L 19.85,22.71 L 20.71,22.27 Z" fill="#181a1b" stroke="none" /><path d="M 18.89,18.74 L 17.97,19.18 L 17.97,20.29 L 18.04,20.29 L 18.89,19.85 Z" fill="#181a1b" stroke="none" /><path d="M 22.49,18.04 L 21.60,18.48 L 21.60,19.59 L 21.66,19.59 L 22.49,19.18 L 22.52,19.21 L 22.52,20.23 L 22.58,20.23 L 23.41,19.82 L 23.41,18.70 L 22.55,19.12 L 22.52,19.09 L 22.52,18.04 Z" fill="#181a1b" stroke="none" /><path d="M 18.89,28.72 L 18.83,28.72 L 17.08,29.61 L 17.08,30.66 L 17.15,30.66 L 18.89,29.77 Z" fill="#1c1f20" stroke="none" /><path d="M 19.79,24.94 L 19.79,26.05 L 20.68,25.61 L 20.71,25.64 L 20.71,26.69 L 20.77,26.69 L 21.57,26.27 L 21.60,26.31 L 21.60,27.36 L 22.49,26.91 L 22.52,26.94 L 22.52,27.96 L 24.33,27.07 L 24.33,25.99 L 23.44,26.43 L 23.41,26.40 L 23.41,25.35 L 22.58,25.77 L 22.52,25.73 L 22.52,24.68 L 21.63,25.13 L 21.60,25.10 L 21.60,24.05 L 21.53,24.05 Z" fill="#1c1f20" stroke="none" /><path d="M 15.20,18.35 L 14.41,18.77 L 14.41,20.96 L 14.47,20.96 L 15.24,20.58 L 15.27,20.61 L 15.27,21.66 L 15.30,21.66 L 16.19,21.22 L 16.19,18.99 L 16.13,18.99 L 15.30,19.40 L 15.27,19.37 L 15.27,18.35 Z" fill="#1c1f20" stroke="none" /><path d="M 24.33,16.00 L 24.33,17.11 L 24.40,17.11 L 25.19,16.70 L 25.22,16.73 L 25.22,17.78 L 25.29,17.78 L 26.12,17.37 L 26.15,17.40 L 26.15,18.42 L 26.21,18.42 L 27.01,18.00 L 27.04,18.04 L 27.04,19.09 L 27.10,19.09 L 27.90,18.67 L 27.93,18.70 L 27.93,19.75 L 27.99,19.75 L 28.82,19.34 L 28.82,17.11 L 28.76,17.11 L 27.96,17.53 L 27.93,17.50 L 27.93,16.45 L 27.07,16.86 L 27.04,16.83 L 27.04,15.78 L 26.21,16.19 L 26.15,16.16 L 26.15,15.11 Z" fill="#1c1f20" stroke="none" /><path d="M 19.79,11.71 L 19.72,11.71 L 17.97,12.60 L 17.97,13.65 L 18.04,13.65 L 18.86,13.23 L 18.89,13.26 L 18.89,14.28 L 18.96,14.28 L 20.71,13.39 L 20.71,12.31 L 20.64,12.31 L 19.82,12.72 L 19.79,12.69 Z" fill="#1c1f20" stroke="none" /><path d="M 28.82,10.47 L 28.76,10.47 L 27.93,10.88 L 27.93,13.11 L 28.82,12.66 Z" fill="#1c1f20" stroke="none" /><path d="M 9.92,23.19 L 9.92,24.30 L 10.85,24.75 L 10.85,23.63 L 9.99,23.19 Z" fill="#202224" stroke="none" /><path d="M 5.41,20.93 L 5.41,22.04 L 6.23,22.46 L 6.30,22.46 L 6.30,21.34 L 5.47,20.93 Z" fill="#202224" stroke="none" /><path d="M 9.03,18.29 L 9.03,20.52 L 9.92,20.96 L 9.92,18.74 Z" fill="#202224" stroke="none" /><path d="M 10.85,18.10 L 10.85,19.21 L 11.67,19.63 L 11.74,19.63 L 11.74,18.51 L 10.91,18.10 Z" fill="#202224" stroke="none" /><path d="M 0.89,8.68 L 0.89,9.80 L 1.72,10.21 L 1.78,10.21 L 1.78,9.13 Z" fill="#202224" stroke="none" /><path d="M 12.63,27.86 L 12.63,30.06 L 13.49,30.50 L 13.55,30.50 L 13.55,29.49 L 13.58,29.46 L 14.35,29.84 L 14.41,29.84 L 14.41,28.72 L 12.69,27.86 Z" fill="#232527" stroke="none" /><path d="M 10.85,22.52 L 10.85,25.86 L 12.56,26.72 L 12.63,26.72 L 12.63,23.41 Z" fill="#232527" stroke="none" /><path d="M 4.49,19.34 L 4.49,21.57 L 5.41,22.04 L 5.41,23.13 L 6.30,23.57 L 6.30,22.52 L 6.33,22.49 L 7.22,22.93 L 7.22,21.82 L 6.30,21.34 L 6.30,20.23 Z" fill="#232527" stroke="none" /><path d="M 5.41,12.06 L 5.41,15.36 L 6.23,15.78 L 6.30,15.84 L 6.30,16.92 L 7.22,17.40 L 7.22,19.63 L 8.11,20.07 L 8.11,21.15 L 8.97,21.60 L 9.03,21.60 L 9.03,18.35 L 9.10,18.32 L 9.86,18.70 L 9.92,18.77 L 9.92,19.85 L 10.78,20.29 L 10.85,20.29 L 10.85,18.13 L 10.88,18.10 L 11.67,18.51 L 11.74,18.51 L 11.74,16.32 L 9.99,15.43 L 9.92,15.43 L 9.92,17.56 L 9.86,17.59 L 7.25,16.29 L 7.22,16.25 L 7.22,12.95 L 5.47,12.06 Z" fill="#232527" stroke="none" /><path d="M 0.89,7.63 L 0.89,8.68 L 1.72,9.10 L 1.78,9.16 L 1.78,10.24 L 2.61,10.66 L 2.67,10.66 L 2.67,9.57 L 1.84,9.16 L 1.78,9.10 L 1.78,8.05 L 0.95,7.63 Z" fill="#232527" stroke="none" /><path d="M 13.55,29.42 L 13.55,30.54 L 14.41,30.95 L 14.41,29.84 Z" fill="#25282b" stroke="none" /><path d="M 9.92,24.30 L 9.92,25.38 L 10.78,25.83 L 10.85,25.83 L 10.85,24.75 L 9.99,24.30 Z" fill="#25282b" stroke="none" /><path d="M 6.30,22.49 L 6.30,23.57 L 7.16,24.02 L 7.22,24.02 L 7.22,22.93 L 6.36,22.49 Z" fill="#25282b" stroke="none" /><path d="M 4.49,21.57 L 4.49,22.68 L 5.41,23.13 L 5.41,22.01 Z" fill="#25282b" stroke="none" /><path d="M 9.03,20.52 L 9.03,21.63 L 9.92,22.08 L 9.92,23.19 L 10.85,23.63 L 10.85,22.52 L 9.92,22.04 L 9.92,20.96 Z" fill="#25282b" stroke="none" /><path d="M 10.85,19.21 L 10.85,20.33 L 11.67,20.74 L 11.74,20.74 L 11.74,19.63 L 10.91,19.21 Z" fill="#25282b" stroke="none" /><path d="M 9.03,16.10 L 9.03,17.18 L 9.92,17.62 L 9.92,16.51 L 9.10,16.10 Z" fill="#25282b" stroke="none" /><path d="M 5.41,15.36 L 5.41,16.48 L 6.23,16.89 L 6.30,16.95 L 6.30,18.04 L 7.16,18.48 L 7.22,18.48 L 7.22,17.37 L 6.36,16.95 L 6.30,16.89 L 6.30,15.81 Z" fill="#25282b" stroke="none" /><path d="M 7.22,15.17 L 7.22,16.29 L 8.05,16.70 L 8.11,16.70 L 8.11,15.62 Z" fill="#25282b" stroke="none" /><path d="M 9.92,14.31 L 9.92,15.43 L 11.74,16.32 L 11.74,15.20 L 9.99,14.31 Z" fill="#25282b" stroke="none" /><path d="M 1.78,8.08 L 1.78,9.13 L 2.67,9.57 L 2.67,8.49 L 1.84,8.08 Z" fill="#25282b" stroke="none" /><path d="M 7.28,19.63 L 7.22,19.63 L 7.22,20.64 L 7.19,20.68 L 6.36,20.26 L 6.30,20.26 L 6.30,21.38 L 7.19,21.82 L 7.22,21.82 L 7.22,20.77 L 7.25,20.74 L 8.11,21.15 L 8.11,20.04 Z" fill="#272a2c" stroke="none" /><path d="M 5.41,16.48 L 5.41,17.59 L 6.30,18.04 L 6.30,16.92 Z" fill="#272a2c" stroke="none" /><path d="M 8.11,15.62 L 8.11,16.73 L 9.03,17.18 L 9.03,16.06 Z" fill="#272a2c" stroke="none" /><path d="M 28.82,23.76 L 28.76,23.76 L 27.93,24.17 L 27.93,25.26 L 28.82,24.81 Z" fill="#072a30" stroke="none" /><path d="M 17.97,23.63 L 17.08,24.08 L 17.08,25.16 L 17.02,25.22 L 16.19,25.64 L 16.19,26.72 L 16.25,26.72 L 17.08,26.31 L 17.08,25.22 L 17.15,25.16 L 17.97,24.75 Z" fill="#072a30" stroke="none" /><path d="M 20.71,23.38 L 20.71,24.46 L 20.77,24.46 L 21.57,24.05 L 21.60,24.08 L 21.60,25.13 L 21.66,25.13 L 22.49,24.72 L 22.52,24.75 L 22.52,25.80 L 23.38,25.38 L 23.41,25.42 L 23.41,26.43 L 23.48,26.43 L 24.30,26.02 L 24.33,26.05 L 24.33,27.04 L 24.40,27.04 L 25.22,26.62 L 25.22,25.54 L 24.37,25.96 L 24.33,25.92 L 24.33,24.91 L 24.27,24.91 L 23.44,25.32 L 23.41,25.29 L 23.41,24.24 L 22.58,24.65 L 22.52,24.62 L 22.52,23.57 L 21.63,24.02 L 21.60,23.98 L 21.60,22.93 Z" fill="#072a30" stroke="none" /><path d="M 17.97,18.10 L 17.91,18.10 L 17.08,18.51 L 17.08,19.63 L 17.15,19.63 L 17.97,19.21 Z" fill="#072a30" stroke="none" /><path d="M 15.20,17.24 L 14.41,17.65 L 14.41,18.77 L 15.24,18.35 L 15.27,18.39 L 15.27,19.44 L 15.30,19.44 L 16.19,18.99 L 16.19,17.88 L 15.30,18.32 L 15.27,18.29 L 15.27,17.24 Z" fill="#072a30" stroke="none" /><path d="M 24.33,17.11 L 24.33,18.23 L 24.40,18.23 L 25.19,17.81 L 25.22,17.84 L 25.22,18.89 L 26.12,18.45 L 26.15,18.48 L 26.15,19.53 L 26.21,19.53 L 27.01,19.12 L 27.04,19.15 L 27.04,20.20 L 27.10,20.20 L 27.90,19.79 L 27.93,19.82 L 27.93,21.98 L 28.82,21.53 L 28.82,19.34 L 28.76,19.34 L 27.96,19.75 L 27.93,19.72 L 27.93,18.67 L 27.86,18.67 L 27.07,19.09 L 27.04,19.05 L 27.04,18.00 L 26.97,18.00 L 26.18,18.42 L 26.15,18.39 L 26.15,17.34 L 25.26,17.78 L 25.22,17.75 L 25.22,16.70 L 25.16,16.70 Z" fill="#072a30" stroke="none" /><path d="M 23.41,15.36 L 22.52,15.81 L 22.52,16.92 L 23.41,16.48 Z" fill="#072a30" stroke="none" /><path d="M 17.94,12.60 L 17.08,13.04 L 17.08,14.09 L 17.15,14.09 L 17.94,13.68 L 17.97,13.71 L 17.97,14.76 L 18.00,14.76 L 18.89,14.31 L 18.89,13.20 L 18.00,13.65 L 17.97,13.61 L 17.97,12.60 Z" fill="#072a30" stroke="none" /><path d="M 26.15,25.10 L 26.08,25.10 L 25.22,25.54 L 25.22,26.59 L 25.29,26.59 L 26.15,26.15 Z" fill="#082d33" stroke="none" /><path d="M 9.92,28.72 L 9.92,29.77 L 11.67,30.66 L 11.74,30.66 L 11.74,29.61 L 9.99,28.72 Z" fill="#2e3335" stroke="none" /><path d="M 9.03,23.83 L 8.11,23.38 L 8.11,24.43 L 8.08,24.46 L 7.28,24.05 L 7.22,24.05 L 7.22,25.10 L 7.19,25.13 L 6.30,24.68 L 6.30,25.73 L 6.23,25.77 L 5.41,25.35 L 5.41,26.40 L 5.38,26.43 L 4.49,25.99 L 4.49,27.07 L 6.27,27.96 L 6.30,27.96 L 6.30,26.94 L 6.33,26.91 L 7.22,27.36 L 7.22,26.31 L 7.25,26.27 L 8.05,26.69 L 8.11,26.69 L 8.11,25.64 L 8.14,25.61 L 9.03,26.05 Z" fill="#2e3335" stroke="none" /><path d="M 13.61,18.35 L 13.55,18.35 L 13.55,19.37 L 13.52,19.40 L 12.69,18.99 L 12.63,18.99 L 12.63,21.22 L 13.52,21.66 L 13.55,21.66 L 13.55,20.61 L 13.58,20.58 L 14.35,20.96 L 14.41,20.96 L 14.41,18.77 Z" fill="#2e3335" stroke="none" /><path d="M 3.59,15.55 L 2.67,15.11 L 2.67,16.16 L 2.64,16.19 L 1.78,15.78 L 1.78,16.83 L 1.75,16.86 L 0.89,16.45 L 0.89,17.50 L 0.86,17.53 L 0.06,17.11 L 0.00,17.11 L 0.00,19.34 L 0.83,19.75 L 0.89,19.75 L 0.89,18.70 L 0.92,18.67 L 1.72,19.09 L 1.78,19.09 L 1.78,18.04 L 1.81,18.00 L 2.61,18.42 L 2.67,18.42 L 2.67,17.40 L 2.70,17.37 L 3.53,17.78 L 3.59,17.78 Z" fill="#2e3335" stroke="none" /><path d="M 9.03,11.71 L 9.03,12.69 L 9.00,12.72 L 8.17,12.31 L 8.11,12.31 L 8.11,13.39 L 9.86,14.28 L 9.92,14.28 L 9.92,13.26 L 9.96,13.23 L 10.78,13.65 L 10.85,13.65 L 10.85,12.60 L 9.10,11.71 Z" fill="#2e3335" stroke="none" /><path d="M 0.00,10.47 L 0.00,12.66 L 0.89,13.11 L 0.89,10.88 L 0.06,10.47 Z" fill="#2e3335" stroke="none" /><path d="M 15.27,30.54 L 15.20,30.54 L 14.41,30.95 L 14.41,32.00 L 14.47,32.00 L 15.27,31.59 Z" fill="#082f36" stroke="none" /><path d="M 18.89,23.19 L 18.83,23.19 L 17.97,23.63 L 17.97,24.72 L 17.91,24.78 L 17.08,25.19 L 17.08,26.27 L 16.19,26.72 L 16.19,27.83 L 16.25,27.83 L 17.08,27.42 L 17.08,26.31 L 17.97,25.86 L 17.97,24.78 L 18.04,24.72 L 18.89,24.30 Z" fill="#082f36" stroke="none" /><path d="M 17.97,20.33 L 17.91,20.33 L 16.19,21.18 L 16.19,22.30 L 16.25,22.30 L 17.97,21.44 Z" fill="#082f36" stroke="none" /><path d="M 17.08,18.54 L 17.02,18.54 L 16.19,18.96 L 16.19,20.07 L 16.25,20.07 L 17.08,19.66 Z" fill="#082f36" stroke="none" /><path d="M 26.15,18.45 L 26.08,18.45 L 25.22,18.89 L 25.22,20.01 L 26.12,19.56 L 26.15,19.59 L 26.15,20.64 L 23.41,22.01 L 23.41,23.09 L 23.35,23.16 L 22.58,23.54 L 22.52,23.51 L 22.52,21.38 L 22.46,21.38 L 21.60,21.82 L 21.60,24.02 L 21.66,24.02 L 22.49,23.60 L 22.52,23.63 L 22.52,24.68 L 23.35,24.27 L 23.41,24.30 L 23.41,25.35 L 24.30,24.91 L 24.33,24.94 L 24.33,25.99 L 26.15,25.10 L 26.15,23.98 L 25.26,24.43 L 25.22,24.40 L 25.22,23.35 L 26.15,22.87 L 26.15,21.79 L 26.21,21.73 L 27.93,20.87 L 27.93,19.79 L 27.86,19.79 L 27.07,20.20 L 27.04,20.17 L 27.04,19.12 L 26.97,19.12 L 26.18,19.53 L 26.15,19.50 Z" fill="#082f36" stroke="none" /><path d="M 20.71,13.39 L 19.79,13.84 L 19.79,14.95 L 19.85,14.95 L 20.71,14.50 Z" fill="#082f36" stroke="none" /><path d="M 17.08,13.04 L 15.27,13.93 L 15.27,14.98 L 15.20,15.05 L 14.41,15.43 L 14.41,17.65 L 15.24,17.24 L 15.27,17.27 L 15.27,18.32 L 15.33,18.32 L 16.19,17.88 L 16.19,16.80 L 16.25,16.73 L 18.89,15.43 L 18.89,14.31 L 18.83,14.31 L 18.00,14.73 L 17.97,14.70 L 17.97,13.68 L 17.91,13.68 L 17.11,14.09 L 17.08,14.06 Z" fill="#082f36" stroke="none" /><path d="M 22.52,12.50 L 22.46,12.50 L 21.60,12.95 L 21.60,14.06 L 22.52,13.61 Z" fill="#082f36" stroke="none" /><path d="M 26.15,10.69 L 26.08,10.69 L 25.22,11.13 L 25.22,12.25 L 26.15,11.80 Z" fill="#082f36" stroke="none" /><path d="M 28.82,7.19 L 28.76,7.19 L 27.93,7.60 L 27.93,9.77 L 27.99,9.77 L 28.82,9.35 Z" fill="#082f36" stroke="none" /><path d="M 17.08,24.08 L 16.19,24.52 L 16.19,25.64 L 17.08,25.19 Z" fill="#083037" stroke="none" /><path d="M 26.15,22.87 L 25.22,23.32 L 25.22,24.43 L 25.29,24.43 L 26.15,23.98 Z" fill="#083037" stroke="none" /><path d="M 24.33,22.68 L 24.27,22.68 L 23.41,23.13 L 23.41,24.24 L 24.33,23.79 Z" fill="#083037" stroke="none" /><path d="M 26.15,19.56 L 26.08,19.56 L 25.22,20.01 L 25.22,21.12 L 26.15,20.68 Z" fill="#083037" stroke="none" /><path d="M 17.97,19.21 L 17.91,19.21 L 17.08,19.63 L 17.08,20.74 L 17.15,20.74 L 17.97,20.33 Z" fill="#083037" stroke="none" /><path d="M 22.52,14.73 L 22.46,14.73 L 21.60,15.17 L 21.60,16.25 L 21.66,16.25 L 22.52,15.81 Z" fill="#083037" stroke="none" /><path d="M 14.44,8.97 L 14.44,9.03 L 15.27,9.45 L 15.33,9.45 L 16.19,9.00 L 16.19,8.97 L 15.36,8.56 L 15.27,8.56 Z" fill="#313437" stroke="none" /><path d="M 1.75,7.16 L 1.78,7.22 L 2.61,7.63 L 2.67,7.63 L 3.53,7.19 L 3.53,7.16 L 2.70,6.74 L 2.58,6.74 Z" fill="#313437" stroke="none" /><path d="M 18.96,6.71 L 18.99,6.78 L 19.82,7.19 L 20.74,6.74 L 20.74,6.71 L 19.91,6.30 L 19.79,6.30 Z" fill="#313437" stroke="none" /><path d="M 14.44,5.34 L 14.44,5.41 L 16.16,6.27 L 16.29,6.27 L 17.11,5.85 L 17.08,5.79 L 15.36,4.93 L 15.27,4.93 Z" fill="#313437" stroke="none" /><path d="M 15.33,4.01 L 15.33,4.04 L 16.16,4.45 L 16.29,4.45 L 17.11,4.04 L 17.08,3.98 L 16.25,3.56 L 16.19,3.56 Z" fill="#313437" stroke="none" /><path d="M 16.19,30.06 L 15.27,30.50 L 15.27,31.59 L 16.19,31.14 Z" fill="#083239" stroke="none" /><path d="M 23.41,22.04 L 23.35,22.04 L 22.52,22.46 L 22.52,23.57 L 23.41,23.13 Z" fill="#083239" stroke="none" /><path d="M 27.93,20.87 L 26.15,21.76 L 26.15,22.87 L 27.93,21.98 Z" fill="#083239" stroke="none" /><path d="M 17.08,19.66 L 17.02,19.66 L 16.19,20.07 L 16.19,21.18 L 16.25,21.18 L 17.08,20.77 Z" fill="#083239" stroke="none" /><path d="M 15.27,13.96 L 15.20,13.96 L 14.41,14.38 L 14.41,15.43 L 14.47,15.43 L 15.27,15.01 Z" fill="#083239" stroke="none" /><path d="M 19.79,13.87 L 19.72,13.87 L 18.89,14.28 L 18.89,15.40 L 18.96,15.40 L 19.79,14.98 Z" fill="#083239" stroke="none" /><path d="M 21.60,12.95 L 20.71,13.39 L 20.71,16.70 L 20.77,16.70 L 21.60,16.29 L 21.60,15.20 L 21.66,15.14 L 22.52,14.73 L 22.52,13.61 L 22.46,13.61 L 21.63,14.03 L 21.60,14.00 Z" fill="#083239" stroke="none" /><path d="M 12.63,8.97 L 12.66,9.03 L 14.38,9.89 L 14.44,9.89 L 15.27,9.48 L 15.27,9.42 L 14.44,9.00 L 15.33,8.56 L 16.10,8.94 L 16.16,9.00 L 15.33,9.42 L 15.33,9.48 L 16.16,9.89 L 16.25,9.89 L 17.08,9.48 L 17.08,9.42 L 16.25,9.00 L 16.32,8.94 L 17.11,8.56 L 17.11,8.52 L 16.29,8.11 L 16.16,8.11 L 15.36,8.52 L 15.27,8.52 L 14.47,8.11 L 14.35,8.11 Z" fill="#35383c" stroke="none" /><path d="M 4.45,6.71 L 3.53,6.27 L 2.67,6.71 L 2.61,6.71 L 1.81,6.30 L 1.75,6.30 L 0.92,6.71 L 0.89,6.78 L 1.75,7.19 L 2.61,6.74 L 2.67,6.74 L 3.56,7.19 L 4.45,6.74 Z" fill="#35383c" stroke="none" /><path d="M 27.07,7.19 L 27.07,7.16 L 26.24,6.74 L 26.27,6.68 L 27.01,6.33 L 27.01,6.27 L 26.18,5.85 L 26.08,5.85 L 24.37,6.71 L 24.37,6.74 L 26.15,7.63 L 26.21,7.63 Z" fill="#35383c" stroke="none" /><path d="M 18.96,5.82 L 18.96,5.85 L 21.63,7.19 L 23.44,6.30 L 23.41,6.23 L 20.80,4.93 L 20.71,4.93 Z" fill="#35383c" stroke="none" /><path d="M 17.11,6.74 L 17.11,6.71 L 14.44,5.38 L 15.30,4.93 L 16.19,5.38 L 16.25,5.38 L 17.11,4.93 L 17.11,4.90 L 15.43,4.07 L 15.36,4.01 L 16.19,3.59 L 16.19,3.53 L 14.47,2.67 L 14.35,2.67 L 12.63,3.53 L 12.63,3.59 L 14.31,4.42 L 14.35,4.49 L 11.71,5.82 L 9.03,4.49 L 8.91,4.49 L 7.19,5.34 L 7.19,5.41 L 9.86,6.74 L 10.75,6.30 L 10.82,6.30 L 11.67,6.74 L 12.56,6.30 L 12.63,6.30 L 14.38,7.19 L 14.44,7.19 L 15.30,6.74 L 16.19,7.19 L 16.25,7.19 Z" fill="#35383c" stroke="none" /><path d="M 16.19,24.52 L 14.41,25.42 L 14.41,28.72 L 14.47,28.72 L 15.27,28.31 L 15.27,27.23 L 15.33,27.17 L 16.19,26.75 Z" fill="#093e3e" stroke="none" /><path d="M 27.04,23.54 L 26.15,23.98 L 26.15,26.15 L 27.04,25.70 Z" fill="#093e3e" stroke="none" /><path d="M 28.82,9.35 L 28.76,9.35 L 26.15,10.66 L 26.15,11.77 L 25.22,12.25 L 25.22,14.44 L 23.41,15.36 L 23.41,17.56 L 23.35,17.62 L 22.52,18.04 L 22.52,19.12 L 22.46,19.18 L 21.60,19.59 L 21.60,20.68 L 21.53,20.74 L 20.71,21.15 L 20.71,22.23 L 20.64,22.30 L 19.79,22.71 L 19.79,23.83 L 17.97,24.75 L 17.97,25.83 L 17.08,26.27 L 17.08,27.39 L 16.19,27.83 L 16.19,31.11 L 16.25,31.11 L 17.08,30.70 L 17.08,28.53 L 17.97,28.09 L 17.97,26.97 L 18.89,26.50 L 18.89,25.42 L 18.96,25.35 L 20.71,24.49 L 20.71,23.41 L 20.77,23.35 L 21.60,22.93 L 21.60,20.74 L 21.66,20.68 L 22.52,20.26 L 22.52,19.18 L 22.58,19.12 L 24.33,18.26 L 24.33,16.03 L 25.22,15.59 L 25.22,14.47 L 26.15,14.00 L 26.15,12.91 L 27.04,12.47 L 27.04,11.36 L 28.82,10.47 Z" fill="#093e3e" stroke="none" /><path d="M 25.22,8.97 L 23.41,9.86 L 23.41,12.02 L 23.48,12.02 L 25.22,11.13 Z" fill="#093e3e" stroke="none" /><path d="M 16.19,26.75 L 16.13,26.75 L 15.27,27.20 L 15.27,28.31 L 16.19,27.86 Z" fill="#094040" stroke="none" /><path d="M 16.19,23.41 L 15.27,23.86 L 15.27,24.97 L 15.33,24.97 L 16.19,24.52 Z" fill="#094040" stroke="none" /><path d="M 19.79,22.74 L 19.72,22.74 L 18.89,23.16 L 18.89,24.27 L 18.96,24.27 L 19.79,23.86 Z" fill="#094040" stroke="none" /><path d="M 27.01,22.43 L 26.15,22.87 L 26.15,23.98 L 27.01,23.57 L 27.04,23.60 L 27.04,24.62 L 27.10,24.62 L 27.93,24.21 L 27.93,23.09 L 27.07,23.51 L 27.04,23.48 L 27.04,22.43 Z" fill="#094040" stroke="none" /><path d="M 21.53,19.63 L 20.71,20.04 L 20.71,21.15 L 21.57,20.74 L 21.60,20.77 L 21.60,21.82 L 21.63,21.82 L 22.52,21.38 L 22.52,20.26 L 22.46,20.26 L 21.63,20.68 L 21.60,20.64 L 21.60,19.63 Z" fill="#094040" stroke="none" /><path d="M 23.41,16.48 L 22.52,16.92 L 22.52,18.04 L 23.41,17.59 Z" fill="#094040" stroke="none" /><path d="M 26.15,8.52 L 26.08,8.52 L 25.22,8.97 L 25.22,11.13 L 26.15,10.69 Z" fill="#094040" stroke="none" /><path d="M 14.44,9.86 L 14.44,9.92 L 15.27,10.34 L 15.36,10.34 L 16.19,9.92 L 16.16,9.86 L 15.33,9.45 L 15.27,9.45 Z" fill="#393d42" stroke="none" /><path d="M 16.22,8.97 L 16.25,9.03 L 17.08,9.45 L 17.15,9.45 L 18.00,9.00 L 18.00,8.97 L 17.18,8.56 L 17.05,8.56 Z" fill="#393d42" stroke="none" /><path d="M 19.85,7.16 L 19.88,7.22 L 20.71,7.63 L 20.77,7.63 L 21.63,7.19 L 21.63,7.16 L 20.80,6.74 L 20.68,6.74 Z" fill="#393d42" stroke="none" /><path d="M 26.18,6.71 L 26.18,6.74 L 27.07,7.19 L 27.93,6.78 L 27.90,6.71 L 27.07,6.30 L 27.01,6.30 Z" fill="#393d42" stroke="none" /><path d="M 9.89,6.71 L 9.92,6.78 L 10.75,7.19 L 10.82,7.19 L 11.67,6.74 L 12.56,7.19 L 12.63,7.19 L 13.49,6.74 L 13.49,6.71 L 12.66,6.30 L 12.53,6.30 L 11.74,6.71 L 11.64,6.71 L 10.85,6.30 L 10.72,6.30 Z" fill="#393d42" stroke="none" /><path d="M 1.81,6.27 L 1.81,6.33 L 2.58,6.71 L 2.70,6.71 L 3.53,6.30 L 3.50,6.23 L 2.74,5.85 L 2.64,5.85 Z" fill="#393d42" stroke="none" /><path d="M 16.22,6.27 L 16.22,6.30 L 17.11,6.74 L 18.00,6.30 L 18.07,6.30 L 18.93,6.74 L 19.85,6.30 L 19.85,6.27 L 18.96,5.82 L 18.07,6.27 L 18.00,6.27 L 17.15,5.82 Z" fill="#393d42" stroke="none" /><path d="M 10.82,5.34 L 10.82,5.41 L 11.64,5.82 L 11.74,5.82 L 12.56,5.41 L 12.56,5.34 L 11.74,4.93 L 11.64,4.93 Z" fill="#393d42" stroke="none" /><path d="M 16.22,4.45 L 16.22,4.49 L 17.11,4.93 L 18.04,4.49 L 18.04,4.45 L 17.15,4.01 Z" fill="#393d42" stroke="none" /><path d="M 12.60,4.45 L 12.60,4.49 L 13.49,4.93 L 14.41,4.49 L 14.41,4.45 L 13.52,4.01 Z" fill="#393d42" stroke="none" /><path d="M 14.41,2.64 L 13.49,2.19 L 11.71,3.09 L 11.71,3.12 L 12.56,3.56 L 12.63,3.56 L 14.41,2.67 Z" fill="#393d42" stroke="none" /><path d="M 15.27,23.89 L 15.20,23.89 L 14.41,24.30 L 14.41,25.42 L 15.27,25.00 Z" fill="#094242" stroke="none" /><path d="M 28.82,21.53 L 27.04,22.43 L 27.04,23.54 L 28.82,22.65 Z" fill="#094242" stroke="none" /><path d="M 23.41,9.89 L 23.35,9.89 L 22.52,10.31 L 22.52,12.47 L 22.58,12.47 L 23.41,12.06 Z" fill="#094242" stroke="none" /><path d="M 15.27,6.74 L 14.44,7.16 L 14.44,7.22 L 15.27,7.63 L 15.20,7.70 L 14.41,8.08 L 14.41,8.11 L 15.33,8.56 L 16.22,8.11 L 16.22,8.08 L 15.43,7.70 L 15.36,7.63 L 16.19,7.22 L 16.19,7.16 L 15.36,6.74 Z" fill="#3c4044" stroke="none" /><path d="M 10.82,7.16 L 10.82,7.22 L 11.64,7.63 L 11.74,7.63 L 12.56,7.22 L 12.56,7.16 L 11.74,6.74 L 11.64,6.74 Z" fill="#3c4044" stroke="none" /><path d="M 11.71,4.90 L 11.74,4.96 L 12.56,5.38 L 12.63,5.38 L 13.49,4.93 L 13.49,4.90 L 12.66,4.49 L 12.53,4.49 Z" fill="#3c4044" stroke="none" /><path d="M 19.79,24.94 L 18.89,25.38 L 18.89,26.47 L 18.83,26.53 L 17.97,26.94 L 17.97,28.06 L 17.08,28.50 L 17.08,29.61 L 17.97,29.17 L 17.97,28.09 L 18.89,27.61 L 18.89,26.53 L 18.96,26.47 L 19.79,26.05 Z" fill="#094444" stroke="none" /><path d="M 28.82,22.65 L 27.93,23.09 L 27.93,24.17 L 27.04,24.62 L 27.04,25.70 L 27.93,25.26 L 27.93,24.21 L 28.82,23.76 Z" fill="#094444" stroke="none" /><path d="M 27.93,10.91 L 27.86,10.91 L 27.04,11.32 L 27.04,12.44 L 26.15,12.88 L 26.15,13.96 L 26.08,14.03 L 25.22,14.44 L 25.22,15.55 L 25.29,15.55 L 26.15,15.11 L 26.15,14.03 L 26.21,13.96 L 27.04,13.55 L 27.04,12.47 L 27.93,12.02 Z" fill="#094444" stroke="none" /><path d="M 19.79,26.05 L 19.79,27.17 L 20.68,26.72 L 20.71,26.75 L 20.71,27.80 L 21.57,27.39 L 21.60,27.42 L 21.60,28.41 L 21.66,28.41 L 22.52,27.96 L 22.52,26.91 L 22.46,26.91 L 21.63,27.32 L 21.60,27.29 L 21.60,26.27 L 21.53,26.27 L 20.74,26.69 L 20.71,26.66 L 20.71,25.61 L 20.64,25.61 Z" fill="#0b4a4a" stroke="none" /><path d="M 26.15,15.11 L 26.15,16.22 L 27.01,15.81 L 27.04,15.84 L 27.04,16.89 L 27.90,16.48 L 27.93,16.51 L 27.93,17.53 L 27.99,17.53 L 28.82,17.11 L 28.82,16.00 L 27.96,16.41 L 27.93,16.38 L 27.93,15.33 L 27.10,15.75 L 27.04,15.71 L 27.04,14.66 Z" fill="#0b4a4a" stroke="none" /><path d="M 0.00,23.76 L 0.00,24.81 L 0.89,25.26 L 0.89,24.17 L 0.06,23.76 Z" fill="#0c444e" stroke="none" /><path d="M 8.11,23.38 L 7.22,22.93 L 7.22,23.98 L 7.19,24.02 L 6.30,23.57 L 6.30,24.62 L 6.23,24.65 L 5.41,24.24 L 5.41,25.29 L 5.34,25.32 L 4.55,24.91 L 4.49,24.91 L 4.49,25.92 L 4.45,25.96 L 2.74,25.10 L 2.67,25.10 L 2.67,26.15 L 4.42,27.04 L 4.49,27.04 L 4.49,26.05 L 4.52,26.02 L 5.34,26.43 L 5.41,26.43 L 5.41,25.42 L 5.44,25.38 L 6.30,25.80 L 6.30,24.75 L 6.33,24.72 L 7.16,25.13 L 7.22,25.13 L 7.22,24.08 L 7.25,24.05 L 8.05,24.46 L 8.11,24.46 Z" fill="#0c444e" stroke="none" /><path d="M 9.03,21.63 L 9.03,22.74 L 9.86,23.16 L 9.92,23.16 L 9.92,22.04 L 9.10,21.63 Z" fill="#0c444e" stroke="none" /><path d="M 13.61,17.24 L 13.55,17.24 L 13.55,18.29 L 13.52,18.32 L 12.63,17.88 L 12.63,18.99 L 13.52,19.44 L 13.55,19.44 L 13.55,18.39 L 13.58,18.35 L 14.41,18.77 L 14.41,17.65 Z" fill="#0c444e" stroke="none" /><path d="M 4.49,17.11 L 3.66,16.70 L 3.59,16.70 L 3.59,17.75 L 3.56,17.78 L 2.67,17.34 L 2.67,18.39 L 2.64,18.42 L 1.84,18.00 L 1.78,18.00 L 1.78,19.05 L 1.75,19.09 L 0.95,18.67 L 0.89,18.67 L 0.89,19.72 L 0.86,19.75 L 0.06,19.34 L 0.00,19.34 L 0.00,20.42 L 0.89,20.87 L 0.89,19.82 L 0.92,19.79 L 1.72,20.20 L 1.78,20.20 L 1.78,19.15 L 1.81,19.12 L 2.61,19.53 L 2.67,19.53 L 2.67,18.48 L 2.70,18.45 L 3.59,18.89 L 3.59,17.84 L 3.63,17.81 L 4.42,18.23 L 4.49,18.23 Z" fill="#0c444e" stroke="none" /><path d="M 9.03,14.98 L 9.03,16.10 L 9.86,16.51 L 9.92,16.51 L 9.92,15.40 L 9.10,14.98 Z" fill="#0c444e" stroke="none" /><path d="M 10.88,12.60 L 10.85,12.60 L 10.85,13.61 L 10.82,13.65 L 9.92,13.20 L 9.92,14.31 L 10.82,14.76 L 10.85,14.76 L 10.85,13.71 L 10.88,13.68 L 11.67,14.09 L 11.74,14.09 L 11.74,13.04 Z" fill="#0c444e" stroke="none" /><path d="M 3.59,11.13 L 3.59,12.25 L 4.42,12.66 L 4.49,12.72 L 4.49,13.81 L 5.34,14.25 L 5.41,14.25 L 5.41,13.14 L 4.55,12.72 L 4.49,12.66 L 4.49,11.58 Z" fill="#0c444e" stroke="none" /><path d="M 26.12,8.49 L 25.26,8.08 L 23.48,8.97 L 23.48,9.00 L 24.27,9.42 L 24.37,9.42 L 26.08,8.56 Z" fill="#464e51" stroke="none" /><path d="M 8.97,8.08 L 8.08,8.52 L 8.08,8.56 L 8.87,8.94 L 8.94,9.00 L 8.11,9.42 L 8.11,9.48 L 8.94,9.89 L 8.87,9.96 L 8.08,10.34 L 8.08,10.37 L 8.87,10.75 L 8.94,10.82 L 8.17,11.20 L 8.14,11.26 L 9.86,12.12 L 9.99,12.12 L 10.75,11.74 L 10.75,11.67 L 9.92,11.26 L 10.75,10.85 L 10.78,10.78 L 9.99,10.40 L 9.96,10.34 L 10.78,9.92 L 10.78,9.89 L 9.92,9.45 L 10.75,9.03 L 10.78,8.97 Z" fill="#464e51" stroke="none" /><path d="M 2.70,8.49 L 2.74,8.56 L 4.45,9.42 L 4.55,9.42 L 5.34,9.00 L 5.34,8.97 L 3.56,8.08 Z" fill="#464e51" stroke="none" /><path d="M 18.96,7.63 L 18.89,7.63 L 18.04,8.08 L 18.04,8.11 L 18.86,8.52 L 18.83,8.59 L 18.04,8.97 L 18.07,9.03 L 18.89,9.45 L 18.04,9.89 L 18.04,9.92 L 18.86,10.34 L 18.83,10.40 L 18.04,10.78 L 18.07,10.85 L 18.89,11.26 L 18.07,11.67 L 18.07,11.74 L 18.83,12.12 L 18.96,12.12 L 20.68,11.26 L 20.64,11.20 L 19.88,10.82 L 19.94,10.75 L 20.74,10.37 L 20.74,10.34 L 19.94,9.96 L 19.88,9.89 L 20.71,9.48 L 20.71,9.42 L 19.88,9.00 L 19.94,8.94 L 20.74,8.56 L 20.74,8.52 Z" fill="#464e51" stroke="none" /><path d="M 17.15,2.19 L 17.15,2.23 L 17.97,2.64 L 17.94,2.70 L 17.15,3.09 L 17.18,3.15 L 18.89,4.01 L 18.99,4.01 L 19.82,3.59 L 19.82,3.53 L 18.99,3.12 L 19.05,3.05 L 19.79,2.70 L 19.75,2.64 L 18.04,1.78 L 17.94,1.78 Z" fill="#464e51" stroke="none" /><path d="M 11.67,2.19 L 10.88,1.78 L 10.78,1.78 L 9.07,2.64 L 9.03,2.70 L 9.77,3.05 L 9.83,3.12 L 9.00,3.53 L 9.00,3.59 L 9.83,4.01 L 9.92,4.01 L 11.64,3.15 L 11.67,3.09 L 10.88,2.70 L 10.85,2.64 L 11.67,2.23 Z" fill="#464e51" stroke="none" /><path d="M 0.00,20.42 L 0.00,21.53 L 0.89,21.98 L 0.89,20.87 Z" fill="#0d4853" stroke="none" /><path d="M 19.79,26.05 L 18.89,26.50 L 18.89,27.58 L 18.83,27.64 L 17.97,28.06 L 17.97,29.17 L 18.86,28.72 L 18.89,28.76 L 18.89,29.77 L 19.79,29.33 L 19.79,28.28 L 20.71,27.80 L 20.71,26.72 L 20.64,26.72 L 19.82,27.13 L 19.79,27.10 Z" fill="#505253" stroke="none" /><path d="M 15.27,20.55 L 14.41,20.96 L 14.41,22.08 L 14.47,22.08 L 15.20,21.69 L 15.27,21.73 L 15.27,22.74 L 15.20,22.81 L 14.41,23.19 L 14.41,24.30 L 16.19,23.41 L 16.19,21.22 L 16.13,21.22 L 15.30,21.63 L 15.27,21.60 Z" fill="#505253" stroke="none" /><path d="M 27.93,12.02 L 27.86,12.02 L 27.04,12.44 L 27.04,13.52 L 26.97,13.58 L 26.15,14.00 L 26.15,15.11 L 27.93,14.22 Z" fill="#505253" stroke="none" /><path d="M 22.52,10.34 L 22.46,10.34 L 19.79,11.67 L 19.79,12.76 L 20.68,12.31 L 20.71,12.34 L 20.71,13.39 L 21.57,12.98 L 21.60,12.95 L 21.60,11.86 L 22.52,11.39 Z" fill="#505253" stroke="none" /><path d="M 15.27,21.66 L 14.41,22.08 L 14.41,23.19 L 14.47,23.19 L 15.27,22.78 Z" fill="#515253" stroke="none" /><path d="M 28.82,13.77 L 27.93,14.22 L 27.93,15.33 L 28.82,14.89 Z" fill="#515253" stroke="none" /><path d="M 18.89,27.61 L 18.89,28.69 L 18.96,28.69 L 19.75,28.28 L 19.79,28.31 L 19.79,29.33 L 21.60,28.44 L 21.60,27.36 L 19.82,28.25 L 19.79,28.21 L 19.79,27.17 Z" fill="#525555" stroke="none" /><path d="M 28.82,12.66 L 27.93,13.11 L 27.93,14.19 L 27.86,14.25 L 27.04,14.66 L 27.04,15.78 L 27.90,15.36 L 27.93,15.40 L 27.93,16.45 L 28.82,16.00 L 28.82,14.89 L 27.99,15.30 L 27.93,15.27 L 27.93,14.25 L 27.99,14.19 L 28.82,13.77 Z" fill="#525555" stroke="none" /><path d="M 22.52,11.39 L 21.60,11.83 L 21.60,12.95 L 22.52,12.50 Z" fill="#525555" stroke="none" /><path d="M 12.63,30.06 L 12.63,31.14 L 14.35,32.00 L 14.41,32.00 L 14.41,30.95 Z" fill="#0d4c57" stroke="none" /><path d="M 11.74,26.31 L 11.74,27.42 L 12.56,27.83 L 12.63,27.83 L 12.63,26.72 L 11.80,26.31 Z" fill="#0d4c57" stroke="none" /><path d="M 11.74,21.88 L 11.74,22.97 L 12.63,23.41 L 12.63,22.30 L 11.80,21.88 Z" fill="#0d4c57" stroke="none" /><path d="M 11.74,19.66 L 11.74,20.77 L 12.56,21.18 L 12.63,21.18 L 12.63,20.07 L 11.80,19.66 Z" fill="#0d4c57" stroke="none" /><path d="M 3.59,17.81 L 3.59,18.83 L 3.56,18.86 L 2.74,18.45 L 2.67,18.45 L 2.67,19.50 L 2.64,19.53 L 1.84,19.12 L 1.78,19.12 L 1.78,20.17 L 1.75,20.20 L 0.95,19.79 L 0.89,19.79 L 0.89,21.98 L 1.78,22.43 L 1.78,21.38 L 1.81,21.34 L 2.61,21.73 L 2.67,21.79 L 2.67,22.87 L 3.59,23.35 L 3.59,25.54 L 4.49,25.99 L 4.49,24.94 L 4.52,24.91 L 5.41,25.35 L 5.41,24.30 L 5.44,24.27 L 6.30,24.68 L 6.30,23.57 L 5.41,23.13 L 5.41,24.17 L 5.38,24.21 L 4.49,23.76 L 4.49,20.45 L 3.66,20.04 L 3.59,19.98 L 3.59,18.96 L 3.66,18.93 L 5.34,19.79 L 5.41,19.79 L 5.41,18.70 L 3.66,17.81 Z" fill="#0d4c57" stroke="none" /><path d="M 9.03,13.87 L 9.03,14.98 L 9.86,15.40 L 9.92,15.40 L 9.92,14.28 L 9.10,13.87 Z" fill="#0d4c57" stroke="none" /><path d="M 11.74,13.04 L 11.74,14.06 L 11.71,14.09 L 10.91,13.68 L 10.85,13.68 L 10.85,14.76 L 11.67,15.17 L 11.74,15.24 L 11.74,18.54 L 12.56,18.96 L 12.63,18.96 L 12.63,17.94 L 12.66,17.91 L 13.49,18.32 L 13.55,18.32 L 13.55,17.27 L 13.58,17.24 L 14.41,17.65 L 14.41,15.43 L 13.61,15.05 L 13.55,14.98 L 13.55,13.93 Z" fill="#0d4c57" stroke="none" /><path d="M 7.22,12.95 L 7.22,15.17 L 8.11,15.62 L 8.11,13.39 Z" fill="#0d4c57" stroke="none" /><path d="M 2.67,10.69 L 2.67,11.80 L 3.53,12.21 L 3.59,12.28 L 3.59,13.36 L 4.42,13.77 L 4.49,13.84 L 4.49,14.92 L 5.41,15.36 L 5.41,14.25 L 4.55,13.84 L 4.49,13.77 L 4.49,12.69 L 3.66,12.28 L 3.59,12.21 L 3.59,11.13 L 2.74,10.69 Z" fill="#0d4c57" stroke="none" /><path d="M 0.00,7.19 L 0.00,8.24 L 0.89,8.68 L 0.89,7.60 L 0.06,7.19 Z" fill="#0d4c57" stroke="none" /><path d="M 4.49,22.68 L 4.49,23.79 L 5.41,24.24 L 5.41,23.13 L 4.55,22.68 Z" fill="#0d4e5a" stroke="none" /><path d="M 1.78,21.31 L 1.78,22.43 L 2.67,22.87 L 2.67,21.76 Z" fill="#0d4e5a" stroke="none" /><path d="M 9.92,20.96 L 9.92,22.08 L 10.85,22.52 L 10.85,21.41 Z" fill="#0d4e5a" stroke="none" /><path d="M 2.67,19.56 L 2.67,20.68 L 3.59,21.12 L 3.59,20.01 L 2.74,19.56 Z" fill="#0d4e5a" stroke="none" /><path d="M 8.11,14.50 L 8.11,15.62 L 8.97,16.06 L 9.03,16.06 L 9.03,14.95 Z" fill="#0d4e5a" stroke="none" /><path d="M 4.49,11.58 L 4.49,12.69 L 5.34,13.14 L 5.41,13.14 L 5.41,12.02 Z" fill="#0d4e5a" stroke="none" /><path d="M 2.67,22.87 L 2.67,25.10 L 3.59,25.54 L 3.59,23.32 Z" fill="#0d515d" stroke="none" /><path d="M 9.92,19.85 L 9.92,20.96 L 10.85,21.44 L 10.85,22.52 L 10.88,22.55 L 11.74,22.97 L 11.74,21.92 L 11.77,21.88 L 12.56,22.30 L 12.63,22.30 L 12.63,21.18 Z" fill="#0d515d" stroke="none" /><path d="M 3.59,18.89 L 3.59,20.01 L 4.49,20.45 L 4.49,19.34 Z" fill="#0d515d" stroke="none" /><path d="M 11.74,18.54 L 11.74,19.66 L 12.56,20.07 L 12.63,20.07 L 12.63,18.96 L 11.80,18.54 Z" fill="#0d515d" stroke="none" /><path d="M 13.55,13.96 L 13.55,15.01 L 14.35,15.43 L 14.41,15.43 L 14.41,14.38 L 13.61,13.96 Z" fill="#0d515d" stroke="none" /><path d="M 8.11,13.39 L 8.11,14.50 L 8.97,14.95 L 9.03,14.95 L 9.03,13.84 Z" fill="#0d515d" stroke="none" /><path d="M 0.00,8.24 L 0.00,9.35 L 0.83,9.77 L 0.89,9.77 L 0.89,8.68 Z" fill="#0d515d" stroke="none" /><path d="M 12.63,24.52 L 12.63,26.75 L 14.35,27.61 L 14.41,27.61 L 14.41,25.42 Z" fill="#0e6464" stroke="none" /><path d="M 0.00,21.53 L 0.00,22.65 L 1.78,23.54 L 1.78,22.43 Z" fill="#0e6464" stroke="none" /><path d="M 0.00,9.35 L 0.00,10.47 L 1.78,11.36 L 1.78,12.47 L 2.67,12.91 L 2.67,14.00 L 3.59,14.47 L 3.59,16.70 L 4.49,17.15 L 4.49,18.26 L 6.23,19.12 L 6.30,19.18 L 6.30,20.26 L 7.16,20.68 L 7.22,20.74 L 7.22,22.93 L 9.03,23.86 L 9.03,24.94 L 9.86,25.35 L 9.92,25.42 L 9.92,26.50 L 10.85,26.97 L 10.85,28.09 L 11.74,28.53 L 11.74,30.70 L 12.56,31.11 L 12.63,31.11 L 12.63,27.83 L 11.74,27.39 L 11.74,26.27 L 9.99,25.42 L 9.92,25.35 L 9.92,23.16 L 8.17,22.30 L 8.11,22.23 L 8.11,21.15 L 7.28,20.74 L 7.22,20.68 L 7.22,19.59 L 6.36,19.18 L 6.30,19.12 L 6.30,18.04 L 5.47,17.62 L 5.41,17.56 L 5.41,16.48 L 4.49,16.00 L 4.49,13.81 L 3.66,13.39 L 3.59,13.33 L 3.59,12.25 L 2.67,11.77 L 2.67,10.66 L 0.06,9.35 Z" fill="#0e6464" stroke="none" /><path d="M 2.67,8.52 L 2.67,9.57 L 3.59,10.05 L 3.59,11.13 L 5.34,12.02 L 5.41,12.02 L 5.41,9.86 L 2.74,8.52 Z" fill="#0e6464" stroke="none" /><path d="M 12.63,26.75 L 12.63,27.86 L 14.35,28.72 L 14.41,28.72 L 14.41,27.61 L 12.69,26.75 Z" fill="#0e6969" stroke="none" /><path d="M 1.81,22.43 L 1.78,22.43 L 1.78,23.48 L 1.75,23.51 L 0.89,23.09 L 0.89,24.21 L 1.72,24.62 L 1.78,24.62 L 1.78,23.60 L 1.81,23.57 L 2.67,23.98 L 2.67,22.87 Z" fill="#0e6969" stroke="none" /><path d="M 8.11,21.15 L 8.11,22.27 L 8.97,22.71 L 9.03,22.71 L 9.03,21.60 Z" fill="#0e6969" stroke="none" /><path d="M 6.33,18.04 L 6.30,18.04 L 6.30,19.09 L 6.27,19.12 L 5.41,18.70 L 5.41,19.82 L 6.23,20.23 L 6.30,20.23 L 6.30,19.21 L 6.33,19.18 L 7.16,19.59 L 7.22,19.59 L 7.22,18.48 Z" fill="#0e6969" stroke="none" /><path d="M 4.49,14.92 L 4.49,16.03 L 5.41,16.48 L 5.41,15.36 L 4.55,14.92 Z" fill="#0e6969" stroke="none" /><path d="M 5.41,10.94 L 5.41,12.06 L 6.23,12.47 L 6.30,12.47 L 6.30,11.39 Z" fill="#0e6969" stroke="none" /><path d="M 2.67,9.57 L 2.67,10.69 L 3.59,11.13 L 3.59,10.02 Z" fill="#0e6969" stroke="none" /><path d="M 1.78,23.54 L 1.78,25.70 L 2.67,26.15 L 2.67,23.98 Z" fill="#0f6c6c" stroke="none" /><path d="M 12.63,23.41 L 12.63,24.52 L 14.41,25.42 L 14.41,24.30 Z" fill="#0f6c6c" stroke="none" /><path d="M 5.41,9.89 L 5.41,10.94 L 6.30,11.39 L 6.30,10.31 L 5.47,9.89 Z" fill="#0f6c6c" stroke="none" /><path d="M 9.03,24.94 L 9.03,26.05 L 9.86,26.47 L 9.92,26.53 L 9.92,27.61 L 10.85,28.09 L 10.85,29.17 L 11.74,29.61 L 11.74,28.50 L 10.85,28.06 L 10.85,26.94 L 9.99,26.53 L 9.92,26.47 L 9.92,25.38 Z" fill="#0f6e6e" stroke="none" /><path d="M 0.00,22.65 L 0.00,23.76 L 0.89,24.21 L 0.89,25.26 L 1.78,25.70 L 1.78,24.62 L 0.89,24.17 L 0.89,23.09 Z" fill="#0f6e6e" stroke="none" /><path d="M 0.89,10.91 L 0.89,12.02 L 1.78,12.47 L 1.78,13.55 L 2.61,13.96 L 2.67,14.03 L 2.67,15.11 L 3.53,15.55 L 3.59,15.55 L 3.59,14.44 L 2.74,14.03 L 2.67,13.96 L 2.67,12.88 L 1.78,12.44 L 1.78,11.32 L 0.95,10.91 Z" fill="#0f6e6e" stroke="none" /><path d="M 9.03,26.05 L 8.17,25.61 L 8.11,25.61 L 8.11,26.66 L 8.08,26.69 L 7.28,26.27 L 7.22,26.27 L 7.22,27.29 L 7.19,27.32 L 6.36,26.91 L 6.30,26.91 L 6.30,27.96 L 7.16,28.41 L 7.22,28.41 L 7.22,27.42 L 7.25,27.39 L 8.11,27.80 L 8.11,26.75 L 8.14,26.72 L 9.03,27.17 Z" fill="#117777" stroke="none" /><path d="M 2.67,15.11 L 1.78,14.66 L 1.78,15.71 L 1.75,15.75 L 0.89,15.33 L 0.89,16.38 L 0.86,16.41 L 0.00,16.00 L 0.00,17.11 L 0.83,17.53 L 0.89,17.53 L 0.89,16.51 L 0.92,16.48 L 1.78,16.89 L 1.78,15.84 L 1.81,15.81 L 2.67,16.22 Z" fill="#117777" stroke="none" /><path d="M 13.55,13.93 L 13.55,13.96 L 14.38,14.38 L 14.44,14.38 L 15.27,13.96 L 15.27,13.93 L 14.44,13.52 L 14.38,13.52 Z" fill="#136978" stroke="none" /><path d="M 18.04,8.08 L 17.11,8.52 L 17.11,8.56 L 17.91,8.94 L 17.97,9.00 L 17.15,9.42 L 17.15,9.48 L 17.97,9.89 L 17.91,9.96 L 17.11,10.34 L 17.11,10.37 L 17.91,10.75 L 17.97,10.82 L 17.15,11.23 L 17.15,11.26 L 18.00,11.71 L 16.22,12.60 L 16.22,12.63 L 17.05,13.04 L 17.11,13.04 L 18.89,12.15 L 18.89,12.12 L 18.07,11.71 L 18.89,11.29 L 18.89,11.23 L 18.07,10.82 L 18.13,10.75 L 18.93,10.37 L 18.93,10.34 L 18.13,9.96 L 18.07,9.89 L 18.89,9.48 L 18.89,9.42 L 18.07,9.00 L 18.13,8.94 L 18.93,8.56 L 18.93,8.52 Z" fill="#136978" stroke="none" /><path d="M 10.78,8.08 L 9.89,8.52 L 9.89,8.56 L 10.69,8.94 L 10.75,9.00 L 9.92,9.42 L 9.92,9.48 L 10.75,9.89 L 10.69,9.96 L 9.89,10.34 L 9.89,10.37 L 10.69,10.75 L 10.75,10.82 L 9.92,11.23 L 9.92,11.29 L 10.75,11.71 L 9.92,12.12 L 9.92,12.15 L 10.85,12.60 L 11.67,12.18 L 11.64,12.12 L 10.82,11.71 L 11.64,11.29 L 11.67,11.23 L 10.85,10.82 L 10.91,10.75 L 11.71,10.37 L 11.71,10.34 L 10.91,9.96 L 10.85,9.89 L 11.67,9.48 L 11.67,9.42 L 10.85,9.00 L 10.91,8.94 L 11.71,8.56 L 11.71,8.52 Z" fill="#136978" stroke="none" /><path d="M 17.15,6.71 L 17.18,6.78 L 18.00,7.19 L 18.07,7.19 L 18.93,6.74 L 18.93,6.71 L 18.10,6.30 L 17.97,6.30 Z" fill="#136978" stroke="none" /><path d="M 5.38,6.27 L 5.38,6.30 L 6.20,6.71 L 6.33,6.71 L 7.13,6.30 L 7.22,6.30 L 8.02,6.71 L 8.14,6.71 L 8.97,6.30 L 8.97,6.27 L 8.08,5.82 L 7.19,6.27 L 6.30,5.82 L 6.23,5.82 Z" fill="#136978" stroke="none" /><path d="M 11.71,4.01 L 11.71,4.04 L 12.53,4.45 L 12.66,4.45 L 13.49,4.04 L 13.46,3.98 L 12.63,3.56 L 12.56,3.56 Z" fill="#136978" stroke="none" /><path d="M 17.02,1.34 L 16.25,1.72 L 16.25,1.78 L 17.08,2.19 L 17.02,2.26 L 16.22,2.64 L 16.22,2.67 L 17.15,3.12 L 18.04,2.67 L 18.04,2.64 L 17.24,2.26 L 17.18,2.19 L 17.94,1.81 L 17.97,1.75 L 17.15,1.34 Z" fill="#136978" stroke="none" /><path d="M 11.80,1.34 L 11.67,1.34 L 10.85,1.75 L 10.88,1.81 L 11.64,2.19 L 11.58,2.26 L 10.78,2.64 L 10.78,2.67 L 11.67,3.12 L 12.60,2.67 L 12.60,2.64 L 11.80,2.26 L 11.74,2.19 L 12.56,1.78 L 12.56,1.72 Z" fill="#136978" stroke="none" /><path d="M 10.85,12.56 L 10.88,12.63 L 11.71,13.04 L 11.77,13.04 L 12.60,12.63 L 12.60,12.60 L 11.71,12.15 Z" fill="#14707f" stroke="none" /><path d="M 10.82,8.97 L 10.85,9.03 L 11.67,9.45 L 10.82,9.89 L 10.82,9.92 L 11.64,10.34 L 11.61,10.40 L 10.82,10.78 L 10.85,10.85 L 11.58,11.20 L 11.64,11.26 L 10.82,11.67 L 10.82,11.74 L 12.53,12.60 L 12.66,12.60 L 13.49,12.18 L 13.46,12.12 L 12.63,11.71 L 13.49,11.26 L 14.38,11.71 L 14.44,11.71 L 15.33,11.26 L 17.08,12.15 L 17.18,12.15 L 18.00,11.74 L 18.00,11.67 L 17.18,11.26 L 17.24,11.20 L 18.00,10.82 L 18.00,10.78 L 17.18,10.37 L 17.21,10.31 L 18.00,9.92 L 18.00,9.89 L 17.15,9.45 L 17.08,9.45 L 16.22,9.89 L 16.22,9.92 L 17.02,10.31 L 17.05,10.37 L 16.25,10.78 L 16.19,10.78 L 13.55,9.45 L 13.49,9.45 L 12.63,9.89 L 11.77,9.48 L 11.74,9.45 L 11.77,9.42 L 13.49,8.56 L 13.49,8.52 L 12.66,8.11 L 12.53,8.11 Z" fill="#157686" stroke="none" /><path d="M 28.79,7.16 L 27.93,6.74 L 26.21,7.60 L 26.21,7.67 L 26.97,8.05 L 27.10,8.05 L 28.76,7.22 Z" fill="#157686" stroke="none" /><path d="M 0.03,7.16 L 0.06,7.22 L 0.83,7.60 L 0.92,7.60 L 1.72,7.19 L 1.72,7.16 L 0.89,6.74 Z" fill="#157686" stroke="none" /><path d="M 22.55,6.71 L 22.55,6.74 L 23.44,7.19 L 24.37,6.74 L 24.37,6.71 L 23.48,6.27 Z" fill="#157686" stroke="none" /><path d="M 4.45,6.71 L 4.45,6.74 L 5.34,7.19 L 6.23,6.74 L 6.30,6.74 L 7.16,7.19 L 8.05,6.74 L 8.11,6.74 L 9.00,7.19 L 9.86,6.74 L 9.86,6.71 L 9.03,6.30 L 8.91,6.30 L 8.11,6.71 L 8.05,6.71 L 7.19,6.27 L 6.30,6.71 L 6.23,6.71 L 5.38,6.27 Z" fill="#157686" stroke="none" /><path d="M 18.96,4.90 L 18.99,4.96 L 19.82,5.38 L 19.88,5.38 L 20.74,4.93 L 20.74,4.90 L 19.91,4.49 L 19.79,4.49 Z" fill="#157686" stroke="none" /><path d="M 8.97,4.45 L 8.97,4.49 L 10.75,5.38 L 10.82,5.38 L 11.67,4.93 L 11.67,4.90 L 9.89,4.01 Z" fill="#157686" stroke="none" /><path d="M 17.15,4.01 L 17.15,4.04 L 17.97,4.45 L 18.10,4.45 L 18.93,4.04 L 18.89,3.98 L 18.07,3.56 L 18.00,3.56 Z" fill="#157686" stroke="none" /><path d="M 10.82,3.53 L 10.82,3.59 L 11.64,4.01 L 11.74,4.01 L 12.56,3.59 L 12.56,3.53 L 11.74,3.12 L 11.64,3.12 Z" fill="#157686" stroke="none" /><path d="M 11.74,1.30 L 11.74,1.34 L 12.56,1.75 L 11.74,2.16 L 11.71,2.23 L 12.53,2.64 L 12.66,2.64 L 13.46,2.23 L 13.55,2.23 L 16.19,3.56 L 16.25,3.56 L 17.11,3.12 L 17.11,3.09 L 16.29,2.67 L 16.32,2.61 L 17.11,2.23 L 17.11,2.19 L 16.25,1.75 L 17.08,1.34 L 17.08,1.30 L 15.30,0.41 L 15.24,0.41 L 14.44,0.83 L 14.38,0.83 L 13.58,0.41 L 13.52,0.41 Z" fill="#157686" stroke="none" /><path d="M 9.03,26.05 L 9.03,28.28 L 10.85,29.17 L 10.85,28.06 L 9.99,27.64 L 9.92,27.58 L 9.92,26.50 Z" fill="#828586" stroke="none" /><path d="M 13.55,20.55 L 13.55,21.60 L 13.52,21.63 L 12.69,21.22 L 12.63,21.22 L 12.63,22.33 L 13.49,22.74 L 13.55,22.81 L 13.55,23.89 L 14.41,24.30 L 14.41,20.96 Z" fill="#828586" stroke="none" /><path d="M 0.89,12.02 L 0.89,13.04 L 0.86,13.07 L 0.00,12.66 L 0.00,13.77 L 0.83,14.19 L 0.89,14.25 L 0.89,15.33 L 1.78,15.78 L 1.78,14.73 L 1.81,14.70 L 2.67,15.11 L 2.67,14.00 L 1.84,13.58 L 1.78,13.52 L 1.78,12.44 L 0.95,12.02 Z" fill="#828586" stroke="none" /><path d="M 6.30,10.34 L 6.30,12.50 L 8.08,13.39 L 8.11,13.39 L 8.11,12.34 L 8.14,12.31 L 9.03,12.76 L 9.03,11.67 L 8.11,11.23 L 8.11,12.25 L 8.08,12.28 L 7.22,11.83 L 7.22,10.78 L 6.36,10.34 Z" fill="#828586" stroke="none" /><path d="M 8.11,27.80 L 8.11,28.88 L 9.03,29.33 L 9.03,28.25 Z" fill="#838587" stroke="none" /><path d="M 7.22,10.78 L 7.22,11.86 L 8.05,12.28 L 8.11,12.28 L 8.11,11.23 Z" fill="#838587" stroke="none" /><path d="M 12.63,11.67 L 12.63,11.74 L 13.46,12.15 L 13.55,12.15 L 14.38,11.74 L 14.38,11.67 L 13.55,11.26 L 13.46,11.26 Z" fill="#15798a" stroke="none" /><path d="M 15.33,10.34 L 15.33,10.37 L 16.16,10.78 L 16.29,10.78 L 17.11,10.37 L 17.11,10.34 L 16.22,9.89 Z" fill="#15798a" stroke="none" /><path d="M 13.49,10.34 L 12.60,9.89 L 11.71,10.34 L 11.71,10.37 L 12.53,10.78 L 12.66,10.78 L 13.49,10.37 Z" fill="#15798a" stroke="none" /><path d="M 17.15,5.82 L 17.15,5.85 L 17.97,6.27 L 18.10,6.27 L 18.93,5.85 L 18.89,5.79 L 18.07,5.38 L 18.00,5.38 Z" fill="#15798a" stroke="none" /><path d="M 6.30,5.79 L 6.30,5.85 L 7.13,6.27 L 7.22,6.27 L 8.05,5.85 L 8.02,5.79 L 7.19,5.38 L 7.13,5.38 Z" fill="#15798a" stroke="none" /><path d="M 10.78,4.45 L 10.78,4.49 L 11.67,4.93 L 12.60,4.49 L 12.60,4.45 L 11.71,4.01 Z" fill="#15798a" stroke="none" /><path d="M 7.22,27.36 L 7.22,28.44 L 8.05,28.85 L 8.11,28.85 L 8.11,27.86 L 8.17,27.83 L 9.03,28.28 L 9.03,29.33 L 9.92,29.77 L 9.92,28.69 L 9.03,28.25 L 9.03,27.17 L 9.00,27.13 L 8.17,26.72 L 8.11,26.72 L 8.11,27.74 L 8.08,27.77 Z" fill="#85898a" stroke="none" /><path d="M 12.63,22.33 L 12.63,23.41 L 13.49,23.86 L 13.55,23.86 L 13.55,22.78 L 12.69,22.33 Z" fill="#85898a" stroke="none" /><path d="M 0.92,13.11 L 0.89,13.11 L 0.89,14.16 L 0.86,14.19 L 0.00,13.77 L 0.00,16.00 L 0.86,16.45 L 0.89,16.45 L 0.89,14.28 L 0.95,14.25 L 1.78,14.66 L 1.78,13.55 Z" fill="#85898a" stroke="none" /><path d="M 14.44,11.67 L 14.44,11.74 L 16.16,12.60 L 16.29,12.60 L 17.11,12.18 L 17.08,12.12 L 15.36,11.26 L 15.27,11.26 Z" fill="#157d8f" stroke="none" /><path d="M 11.74,9.42 L 11.74,9.48 L 12.56,9.89 L 12.66,9.89 L 13.49,9.48 L 13.49,9.42 L 12.66,9.00 L 12.56,9.00 Z" fill="#157d8f" stroke="none" /><path d="M 0.89,7.60 L 0.89,7.63 L 1.72,8.05 L 1.84,8.05 L 2.61,7.67 L 2.61,7.60 L 1.78,7.19 L 1.69,7.19 Z" fill="#157d8f" stroke="none" /><path d="M 19.85,4.45 L 18.93,4.01 L 16.25,5.34 L 16.25,5.41 L 17.08,5.82 L 17.18,5.82 L 18.04,5.38 L 18.89,5.82 L 18.99,5.82 L 19.82,5.41 L 19.82,5.34 L 18.99,4.93 L 19.05,4.87 L 19.85,4.49 Z" fill="#157d8f" stroke="none" /><path d="M 9.89,4.01 L 9.89,4.04 L 10.72,4.45 L 10.85,4.45 L 11.67,4.04 L 11.64,3.98 L 10.82,3.56 L 10.75,3.56 Z" fill="#157d8f" stroke="none" /><path d="M 16.25,3.53 L 16.25,3.59 L 17.08,4.01 L 17.18,4.01 L 18.00,3.59 L 18.00,3.53 L 17.18,3.12 L 17.08,3.12 Z" fill="#157d8f" stroke="none" /><path d="M 13.58,0.38 L 13.58,0.45 L 14.35,0.83 L 14.47,0.83 L 15.24,0.45 L 15.24,0.38 L 14.47,0.00 L 14.35,0.00 Z" fill="#157d8f" stroke="none" /><path d="M 14.41,12.60 L 13.49,12.15 L 11.77,13.01 L 11.77,13.07 L 12.60,13.49 L 12.69,13.49 L 14.41,12.63 Z" fill="#169a9a" stroke="none" /><path d="M 20.77,7.60 L 20.77,7.67 L 21.60,8.08 L 21.69,8.08 L 22.55,7.63 L 23.41,8.08 L 23.51,8.08 L 24.37,7.63 L 26.12,8.52 L 27.04,8.08 L 27.04,8.05 L 24.43,6.74 L 24.30,6.74 L 23.51,7.16 L 23.41,7.16 L 22.62,6.74 L 22.49,6.74 Z" fill="#169a9a" stroke="none" /><path d="M 1.78,8.08 L 2.70,8.52 L 4.45,7.63 L 5.31,8.08 L 5.41,8.08 L 6.27,7.63 L 7.13,8.08 L 7.22,8.08 L 8.08,7.63 L 9.83,8.52 L 9.96,8.52 L 10.75,8.11 L 10.85,8.11 L 11.64,8.52 L 11.77,8.52 L 13.46,7.67 L 13.55,7.67 L 14.35,8.08 L 14.47,8.08 L 15.27,7.67 L 15.36,7.67 L 17.05,8.52 L 17.18,8.52 L 18.93,7.63 L 19.79,8.08 L 19.88,8.08 L 20.71,7.67 L 20.71,7.60 L 18.99,6.74 L 18.89,6.74 L 17.15,7.63 L 16.25,7.19 L 16.19,7.19 L 15.33,7.63 L 14.44,7.19 L 14.38,7.19 L 13.52,7.63 L 12.63,7.19 L 12.56,7.19 L 11.71,7.63 L 10.82,7.19 L 10.75,7.19 L 9.89,7.63 L 8.14,6.74 L 8.02,6.74 L 7.22,7.16 L 7.13,7.16 L 6.33,6.74 L 6.20,6.74 L 5.41,7.16 L 5.31,7.16 L 4.52,6.74 L 4.39,6.74 L 1.78,8.05 Z" fill="#169a9a" stroke="none" /><path d="M 21.69,5.34 L 21.69,5.41 L 23.41,6.27 L 23.51,6.27 L 25.22,5.41 L 25.22,5.38 L 23.44,4.49 Z" fill="#169a9a" stroke="none" /><path d="M 7.13,5.34 L 5.38,4.49 L 2.70,5.82 L 2.70,5.85 L 3.50,6.27 L 3.59,6.27 L 4.45,5.82 L 5.31,6.27 L 5.41,6.27 L 7.13,5.41 Z" fill="#169a9a" stroke="none" /><path d="M 14.38,11.71 L 13.52,12.15 L 13.52,12.18 L 14.35,12.60 L 14.31,12.66 L 13.52,13.04 L 13.52,13.07 L 14.38,13.52 L 14.44,13.52 L 15.30,13.07 L 15.30,13.04 L 14.47,12.63 L 14.50,12.56 L 15.30,12.18 L 15.30,12.15 L 14.44,11.71 Z" fill="#16a1a1" stroke="none" /><path d="M 16.25,7.16 L 16.25,7.22 L 17.08,7.63 L 17.18,7.63 L 18.00,7.22 L 18.00,7.16 L 17.18,6.74 L 17.08,6.74 Z" fill="#16a1a1" stroke="none" /><path d="M 13.46,6.74 L 12.63,7.16 L 12.63,7.22 L 13.46,7.63 L 13.39,7.70 L 12.60,8.08 L 12.60,8.11 L 13.52,8.56 L 14.41,8.11 L 14.41,8.08 L 13.61,7.70 L 13.55,7.63 L 14.38,7.22 L 14.38,7.16 L 13.55,6.74 Z" fill="#16a1a1" stroke="none" /><path d="M 9.00,7.16 L 9.03,7.22 L 9.86,7.63 L 9.92,7.63 L 10.75,7.22 L 10.75,7.16 L 9.92,6.74 L 9.83,6.74 Z" fill="#16a1a1" stroke="none" /><path d="M 3.56,6.27 L 3.56,6.30 L 4.39,6.71 L 4.52,6.71 L 5.34,6.30 L 5.31,6.23 L 4.49,5.82 L 4.42,5.82 Z" fill="#16a1a1" stroke="none" /><path d="M 26.12,5.82 L 25.29,5.41 L 25.16,5.41 L 23.51,6.23 L 23.48,6.30 L 24.30,6.71 L 24.43,6.71 L 26.08,5.88 Z" fill="#16a1a1" stroke="none" /><path d="M 6.27,4.90 L 6.30,4.96 L 7.13,5.38 L 7.19,5.38 L 8.05,4.93 L 8.05,4.90 L 7.22,4.49 L 7.09,4.49 Z" fill="#16a1a1" stroke="none" /><path d="M 14.41,12.60 L 14.41,12.63 L 16.13,13.49 L 16.22,13.49 L 17.05,13.07 L 17.05,13.01 L 15.33,12.15 Z" fill="#17a6a6" stroke="none" /><path d="M 23.41,4.49 L 22.55,4.04 L 22.49,4.04 L 20.77,4.90 L 20.77,4.93 L 21.63,5.38 L 21.69,5.38 L 23.41,4.52 Z" fill="#17a6a6" stroke="none" /><path d="M 5.41,4.52 L 6.27,4.93 L 7.16,4.49 L 7.16,4.45 L 6.33,4.04 L 6.27,4.04 L 5.44,4.45 Z" fill="#17a6a6" stroke="none" /><path d="M 19.85,8.08 L 19.85,8.11 L 20.68,8.52 L 20.80,8.52 L 21.60,8.11 L 21.69,8.11 L 22.49,8.52 L 22.62,8.52 L 23.41,8.11 L 23.51,8.11 L 24.30,8.52 L 24.43,8.52 L 25.26,8.11 L 25.22,8.05 L 24.40,7.63 L 24.33,7.63 L 23.48,8.08 L 22.58,7.63 L 22.52,7.63 L 21.66,8.08 L 20.77,7.63 L 20.71,7.63 Z" fill="#18a9a9" stroke="none" /><path d="M 3.56,8.08 L 3.56,8.11 L 4.39,8.52 L 4.52,8.52 L 5.31,8.11 L 5.41,8.11 L 6.20,8.52 L 6.33,8.52 L 7.13,8.11 L 7.22,8.11 L 8.02,8.52 L 8.14,8.52 L 8.97,8.11 L 8.94,8.05 L 8.11,7.63 L 8.05,7.63 L 7.19,8.08 L 6.30,7.63 L 6.23,7.63 L 5.38,8.08 L 4.49,7.63 L 4.42,7.63 Z" fill="#18a9a9" stroke="none" /><path d="M 14.44,13.49 L 14.44,13.55 L 15.20,13.93 L 15.33,13.93 L 16.16,13.52 L 16.13,13.46 L 15.36,13.07 L 15.27,13.07 Z" fill="#17aaaa" stroke="none" /><path d="M 12.66,13.49 L 12.66,13.52 L 13.49,13.93 L 13.61,13.93 L 14.38,13.55 L 14.38,13.49 L 13.55,13.07 L 13.46,13.07 Z" fill="#17aaaa" stroke="none" /><path d="M 20.80,8.56 L 20.68,8.56 L 19.85,8.97 L 19.88,9.03 L 20.71,9.45 L 19.85,9.89 L 19.85,9.92 L 20.68,10.34 L 20.64,10.40 L 19.85,10.78 L 19.88,10.85 L 20.64,11.23 L 20.74,11.23 L 21.57,10.82 L 21.57,10.75 L 20.83,10.40 L 20.80,10.34 L 21.63,9.92 L 21.60,9.86 L 20.77,9.45 L 21.60,9.03 L 21.63,8.97 Z" fill="#1bb8b8" stroke="none" /><path d="M 8.02,8.56 L 7.19,8.97 L 7.22,9.03 L 8.05,9.45 L 7.22,9.86 L 7.19,9.92 L 8.02,10.34 L 7.98,10.40 L 7.25,10.75 L 7.25,10.82 L 8.08,11.23 L 8.17,11.23 L 8.94,10.85 L 8.97,10.78 L 8.17,10.40 L 8.14,10.34 L 8.97,9.92 L 8.97,9.89 L 8.11,9.45 L 8.94,9.03 L 8.97,8.97 L 8.14,8.56 Z" fill="#1bb8b8" stroke="none" /><path d="M 20.74,8.52 L 20.74,8.56 L 22.52,9.45 L 22.58,9.45 L 24.37,8.56 L 24.37,8.52 L 23.48,8.08 L 22.58,8.52 L 22.52,8.52 L 21.66,8.08 Z" fill="#c9cdcf" stroke="none" /><path d="M 4.45,8.52 L 4.45,8.56 L 5.25,8.94 L 5.31,9.00 L 4.55,9.38 L 4.52,9.45 L 5.34,9.86 L 5.47,9.86 L 6.23,9.48 L 6.23,9.42 L 5.41,9.00 L 5.47,8.94 L 6.23,8.56 L 6.30,8.56 L 7.06,8.94 L 7.13,9.00 L 6.30,9.42 L 6.30,9.48 L 7.13,9.89 L 7.22,9.89 L 8.05,9.48 L 8.05,9.42 L 7.22,9.00 L 7.28,8.94 L 8.08,8.56 L 8.08,8.52 L 7.19,8.08 L 6.30,8.52 L 6.23,8.52 L 5.38,8.08 Z" fill="#c9cdcf" stroke="none" /><path d="M 18.96,3.09 L 18.99,3.15 L 19.82,3.56 L 18.99,3.98 L 18.96,4.04 L 19.79,4.45 L 19.91,4.45 L 20.71,4.04 L 20.80,4.04 L 21.60,4.45 L 21.73,4.45 L 22.49,4.07 L 22.49,4.01 L 19.82,2.67 Z" fill="#c9cdcf" stroke="none" /><path d="M 9.86,3.09 L 9.00,2.67 L 8.11,3.12 L 8.11,3.15 L 8.91,3.53 L 8.94,3.56 L 8.91,3.59 L 8.08,4.01 L 7.25,3.59 L 7.16,3.59 L 6.33,4.01 L 6.33,4.07 L 8.08,4.93 L 9.86,4.04 L 9.83,3.98 L 9.00,3.56 L 9.83,3.15 Z" fill="#c9cdcf" stroke="none" /><path d="M 21.66,9.92 L 22.52,10.34 L 23.41,9.89 L 23.41,9.86 L 22.58,9.45 L 22.52,9.45 L 21.69,9.86 Z" fill="#cacecf" stroke="none" /><path d="M 7.22,3.56 L 7.25,3.63 L 8.02,4.01 L 8.11,4.01 L 8.94,3.59 L 8.94,3.53 L 8.17,3.15 L 8.05,3.15 Z" fill="#cacecf" stroke="none" /><path d="M 22.58,9.42 L 22.58,9.48 L 23.35,9.86 L 23.48,9.86 L 24.30,9.45 L 24.27,9.38 L 23.51,9.00 L 23.41,9.00 Z" fill="#ced3d4" stroke="none" /><path d="M 21.69,9.00 L 21.60,9.00 L 20.77,9.42 L 20.77,9.48 L 21.60,9.89 L 21.53,9.96 L 20.74,10.34 L 20.74,10.37 L 21.57,10.78 L 21.63,10.78 L 22.49,10.34 L 22.49,10.31 L 21.76,9.96 L 21.69,9.89 L 22.52,9.48 L 22.52,9.42 Z" fill="#ced3d4" stroke="none" /><path d="M 5.38,8.97 L 5.41,9.03 L 6.23,9.45 L 5.41,9.86 L 5.41,9.89 L 7.19,10.78 L 7.25,10.78 L 8.08,10.37 L 8.08,10.34 L 6.30,9.45 L 7.13,9.03 L 7.16,8.97 L 6.33,8.56 L 6.20,8.56 Z" fill="#ced3d4" stroke="none" /><path d="M 19.85,4.45 L 19.85,4.49 L 20.74,4.93 L 21.66,4.49 L 21.66,4.45 L 20.77,4.01 Z" fill="#ced3d4" stroke="none" /></svg>