<svg height="32" width="32" viewBox="0 0 32 32"><defs /><path d="M 18.31,13.73 L 18.31,16.02 L 20.59,16.02 L 20.59,13.73 Z" fill="#cc9400" stroke="none" /><path d="M 0.00,25.17 L 0.00,32.00 L 22.88,32.00 L 22.88,29.75 L 2.32,29.75 L 2.29,29.71 L 2.29,25.17 Z" fill="#32210f" stroke="none" /><path d="M 20.59,16.02 L 13.73,16.02 L 13.73,27.46 L 16.02,27.46 L 16.02,18.34 L 16.05,18.31 L 20.59,18.31 Z" fill="#32210f" stroke="none" /><path d="M 11.44,16.02 L 4.58,16.02 L 4.58,27.46 L 6.86,27.46 L 6.86,18.34 L 6.90,18.31 L 11.44,18.31 Z" fill="#32210f" stroke="none" /><path d="M 0.00,16.02 L 0.00,22.88 L 2.29,22.88 L 2.29,16.02 Z" fill="#32210f" stroke="none" /><path d="M 0.00,6.86 L 0.00,13.73 L 2.29,13.73 L 2.29,6.86 Z" fill="#32210f" stroke="none" /><path d="M 20.59,2.29 L 13.73,2.29 L 13.73,13.73 L 16.02,13.73 L 16.02,4.61 L 16.05,4.58 L 20.59,4.58 Z" fill="#32210f" stroke="none" /><path d="M 11.44,2.29 L 4.58,2.29 L 4.58,13.73 L 6.86,13.73 L 6.86,4.61 L 6.90,4.58 L 11.44,4.58 Z" fill="#32210f" stroke="none" /><path d="M 0.00,0.00 L 0.00,4.58 L 2.29,4.58 L 2.29,0.00 Z" fill="#32210f" stroke="none" /><path d="M 16.02,18.31 L 16.02,27.46 L 20.59,27.46 L 20.59,18.31 Z" fill="#442c16" stroke="none" /><path d="M 6.86,18.31 L 6.86,27.46 L 11.44,27.46 L 11.44,18.31 Z" fill="#442c16" stroke="none" /><path d="M 16.02,4.58 L 16.02,13.73 L 20.59,13.73 L 20.59,4.58 Z" fill="#442c16" stroke="none" /><path d="M 6.86,4.58 L 6.86,13.73 L 11.44,13.73 L 11.44,4.58 Z" fill="#442c16" stroke="none" /><path d="M 2.29,0.00 L 2.29,29.75 L 22.88,29.75 L 22.88,0.00 Z" fill="#51341a" stroke="none" /><path d="M 16.02,13.73 L 16.02,16.02 L 18.31,16.02 L 18.31,13.73 Z" fill="#ffdb59" stroke="none" /><path d="M 0.00,22.88 L 0.00,25.17 L 2.29,25.17 L 2.29,22.88 Z" fill="#6f6f6f" stroke="none" /><path d="M 0.00,13.73 L 0.00,16.02 L 2.29,16.02 L 2.29,13.73 Z" fill="#6f6f6f" stroke="none" /><path d="M 0.00,4.58 L 0.00,6.86 L 2.29,6.86 L 2.29,4.58 Z" fill="#6f6f6f" stroke="none" /></svg>