<svg height="32" width="32" viewBox="0 0 32 32"><defs /><path d="M 22.52,26.91 L 22.46,26.91 L 20.71,27.80 L 20.71,28.85 L 20.77,28.85 L 22.52,27.96 Z" fill="#0c1f04" stroke="none" /><path d="M 20.71,25.61 L 20.64,25.61 L 18.89,26.50 L 18.89,27.61 L 20.71,26.72 Z" fill="#0c1f04" stroke="none" /><path d="M 25.22,22.23 L 25.16,22.23 L 23.41,23.13 L 23.41,24.21 L 23.35,24.27 L 22.52,24.68 L 22.52,25.80 L 23.41,25.35 L 23.41,24.27 L 23.48,24.21 L 25.22,23.35 Z" fill="#0c1f04" stroke="none" /><path d="M 17.97,19.21 L 17.91,19.21 L 17.08,19.63 L 17.08,20.74 L 17.05,20.77 L 15.27,21.66 L 15.27,22.78 L 17.05,21.88 L 17.08,21.92 L 17.08,22.97 L 17.91,22.55 L 17.97,22.58 L 17.97,24.72 L 17.91,24.78 L 16.19,25.64 L 16.19,26.72 L 16.25,26.72 L 17.97,25.86 L 17.97,24.78 L 18.04,24.72 L 18.89,24.30 L 18.89,23.19 L 20.71,22.27 L 20.71,21.15 L 18.93,22.04 L 18.89,22.01 L 18.89,20.96 L 17.11,21.85 L 17.08,21.82 L 17.08,20.77 L 17.97,20.33 Z" fill="#0c1f04" stroke="none" /><path d="M 23.41,17.59 L 21.60,18.48 L 21.60,19.59 L 21.66,19.59 L 23.41,18.70 Z" fill="#0c1f04" stroke="none" /><path d="M 27.04,16.89 L 26.15,17.34 L 26.15,19.53 L 25.22,20.01 L 25.22,21.12 L 26.12,20.68 L 26.15,20.71 L 26.15,21.76 L 27.04,21.31 L 27.04,20.23 L 27.93,19.79 L 27.93,18.67 L 27.86,18.67 L 27.07,19.09 L 27.04,19.05 Z" fill="#0c1f04" stroke="none" /><path d="M 18.89,15.43 L 18.83,15.43 L 17.08,16.32 L 17.08,17.43 L 18.89,16.54 Z" fill="#0c1f04" stroke="none" /><path d="M 16.19,13.49 L 14.41,14.38 L 14.41,15.43 L 14.47,15.43 L 16.19,14.57 Z" fill="#0c1f04" stroke="none" /><path d="M 26.15,14.00 L 24.37,14.89 L 24.33,14.85 L 24.33,13.81 L 23.44,14.25 L 23.41,14.22 L 23.41,13.17 L 23.35,13.17 L 22.52,13.58 L 22.52,14.70 L 22.58,14.70 L 23.38,14.28 L 23.41,14.31 L 23.41,15.33 L 23.35,15.40 L 20.71,16.70 L 20.71,17.81 L 20.77,17.81 L 23.38,16.51 L 23.41,16.48 L 23.41,15.40 L 23.48,15.33 L 24.30,14.92 L 24.33,14.95 L 24.33,16.00 L 24.40,16.00 L 26.12,15.14 L 26.15,15.11 Z" fill="#0c1f04" stroke="none" /><path d="M 19.79,12.76 L 17.97,13.65 L 17.97,14.76 L 19.79,13.87 Z" fill="#0c1f04" stroke="none" /><path d="M 18.89,26.50 L 17.97,26.94 L 17.97,28.06 L 18.04,28.06 L 18.89,27.61 Z" fill="#0e2205" stroke="none" /><path d="M 23.41,26.47 L 23.35,26.47 L 22.52,26.88 L 22.52,27.96 L 23.41,27.51 Z" fill="#0e2205" stroke="none" /><path d="M 16.19,25.64 L 15.27,26.08 L 15.27,27.17 L 15.20,27.23 L 14.41,27.61 L 14.41,28.72 L 14.47,28.72 L 15.27,28.31 L 15.27,27.23 L 15.33,27.17 L 16.19,26.75 Z" fill="#0e2205" stroke="none" /><path d="M 26.12,21.76 L 25.22,22.20 L 25.22,23.32 L 25.29,23.32 L 26.12,22.90 L 26.15,22.93 L 26.15,23.98 L 26.18,23.98 L 27.04,23.54 L 27.04,22.43 L 26.18,22.84 L 26.15,22.81 L 26.15,21.76 Z" fill="#0e2205" stroke="none" /><path d="M 15.27,21.66 L 14.41,22.08 L 14.41,23.19 L 14.47,23.19 L 15.27,22.78 Z" fill="#0e2205" stroke="none" /><path d="M 21.57,20.71 L 20.71,21.15 L 20.71,22.27 L 21.57,21.85 L 21.60,21.88 L 21.60,22.93 L 21.63,22.93 L 22.52,22.49 L 22.52,21.38 L 22.46,21.38 L 21.63,21.79 L 21.60,21.76 L 21.60,20.71 Z" fill="#0e2205" stroke="none" /><path d="M 24.33,17.15 L 24.27,17.15 L 23.41,17.59 L 23.41,18.70 L 24.33,18.26 Z" fill="#0e2205" stroke="none" /><path d="M 20.71,16.73 L 20.64,16.73 L 19.79,17.18 L 19.79,18.29 L 20.71,17.84 Z" fill="#0e2205" stroke="none" /><path d="M 17.08,16.32 L 16.19,16.76 L 16.19,17.88 L 17.08,17.43 Z" fill="#0e2205" stroke="none" /><path d="M 27.01,13.55 L 26.15,14.00 L 26.15,15.11 L 26.97,14.70 L 27.04,14.73 L 27.04,16.89 L 27.90,16.48 L 27.93,16.51 L 27.93,17.53 L 27.99,17.53 L 28.82,17.11 L 28.82,16.00 L 27.99,16.41 L 27.93,16.38 L 27.93,14.22 L 27.07,14.63 L 27.04,14.60 L 27.04,13.55 Z" fill="#0e2205" stroke="none" /><path d="M 20.64,12.31 L 19.79,12.76 L 19.79,13.84 L 19.85,13.84 L 20.68,13.42 L 20.71,13.46 L 20.71,14.50 L 20.74,14.50 L 21.60,14.06 L 21.60,12.95 L 20.74,13.36 L 20.71,13.33 L 20.71,12.31 Z" fill="#0e2205" stroke="none" /><path d="M 24.33,9.42 L 23.41,9.86 L 23.41,10.94 L 24.33,10.50 Z" fill="#0e2205" stroke="none" /><path d="M 28.82,7.19 L 28.76,7.19 L 27.93,7.60 L 27.93,8.68 L 28.82,8.24 Z" fill="#0e2205" stroke="none" /><path d="M 15.27,30.54 L 15.20,30.54 L 14.41,30.95 L 14.41,32.00 L 14.47,32.00 L 15.27,31.59 Z" fill="#112b06" stroke="none" /><path d="M 17.97,28.09 L 17.91,28.09 L 17.08,28.50 L 17.08,29.61 L 17.97,29.17 Z" fill="#112b06" stroke="none" /><path d="M 19.79,27.17 L 18.89,27.61 L 18.89,28.69 L 18.96,28.69 L 19.79,28.28 Z" fill="#112b06" stroke="none" /><path d="M 24.33,25.99 L 23.44,26.43 L 23.41,26.40 L 23.41,25.35 L 23.38,25.35 L 21.60,26.24 L 21.60,27.36 L 23.38,26.47 L 23.41,26.50 L 23.41,27.51 L 23.44,27.51 L 24.33,27.07 Z" fill="#112b06" stroke="none" /><path d="M 19.79,24.94 L 17.97,25.83 L 17.97,26.94 L 18.04,26.94 L 19.79,26.05 Z" fill="#112b06" stroke="none" /><path d="M 17.08,24.08 L 15.27,24.97 L 15.27,26.08 L 14.41,26.53 L 14.41,27.61 L 14.47,27.61 L 15.20,27.23 L 15.27,27.26 L 15.27,28.28 L 15.20,28.34 L 14.41,28.72 L 14.41,29.84 L 14.47,29.84 L 15.27,29.42 L 15.27,28.34 L 15.33,28.28 L 17.08,27.42 L 17.08,26.31 L 17.02,26.31 L 15.33,27.17 L 15.27,27.13 L 15.27,26.12 L 17.08,25.19 Z" fill="#112b06" stroke="none" /><path d="M 28.82,23.76 L 28.76,23.76 L 27.93,24.17 L 27.93,25.26 L 28.82,24.81 Z" fill="#112b06" stroke="none" /><path d="M 25.22,23.35 L 25.16,23.35 L 24.33,23.76 L 24.33,24.87 L 24.40,24.87 L 25.22,24.46 Z" fill="#112b06" stroke="none" /><path d="M 16.19,22.33 L 16.13,22.33 L 15.27,22.78 L 15.27,23.86 L 15.33,23.86 L 16.19,23.41 Z" fill="#112b06" stroke="none" /><path d="M 26.15,20.68 L 26.08,20.68 L 24.33,21.57 L 24.33,22.65 L 24.40,22.65 L 26.15,21.76 Z" fill="#112b06" stroke="none" /><path d="M 28.82,20.42 L 27.93,20.87 L 27.93,21.95 L 27.86,22.01 L 27.04,22.43 L 27.04,23.51 L 26.97,23.57 L 26.15,23.98 L 26.15,25.07 L 26.21,25.07 L 27.04,24.65 L 27.04,23.57 L 27.10,23.51 L 27.93,23.09 L 27.93,22.01 L 27.99,21.95 L 28.82,21.53 Z" fill="#112b06" stroke="none" /><path d="M 16.19,20.10 L 16.13,20.10 L 14.41,20.96 L 14.41,22.08 L 14.47,22.08 L 16.19,21.22 Z" fill="#112b06" stroke="none" /><path d="M 23.41,18.70 L 22.52,19.15 L 22.52,20.23 L 22.49,20.26 L 21.63,20.68 L 21.60,20.64 L 21.60,19.63 L 21.53,19.63 L 19.79,20.52 L 19.79,21.60 L 19.85,21.60 L 21.53,20.74 L 21.60,20.77 L 21.60,21.79 L 21.53,21.85 L 19.79,22.71 L 19.79,23.83 L 19.85,23.83 L 21.53,22.97 L 21.60,23.00 L 21.60,24.02 L 21.66,24.02 L 22.52,23.57 L 22.52,22.49 L 22.46,22.49 L 21.63,22.90 L 21.60,22.87 L 21.60,21.85 L 21.66,21.79 L 22.52,21.38 L 22.52,20.26 L 23.41,19.82 Z" fill="#112b06" stroke="none" /><path d="M 19.79,18.29 L 18.89,18.74 L 18.89,19.85 L 19.79,19.40 Z" fill="#112b06" stroke="none" /><path d="M 16.19,17.88 L 15.27,18.32 L 15.27,19.44 L 16.19,18.99 Z" fill="#112b06" stroke="none" /><path d="M 25.22,17.81 L 25.16,17.81 L 24.33,18.23 L 24.33,19.34 L 25.22,18.89 Z" fill="#112b06" stroke="none" /><path d="M 21.60,17.40 L 21.53,17.40 L 20.71,17.81 L 20.71,18.93 L 20.77,18.93 L 21.60,18.51 Z" fill="#112b06" stroke="none" /><path d="M 17.97,16.99 L 17.08,17.43 L 17.08,18.51 L 17.15,18.51 L 17.97,18.10 Z" fill="#112b06" stroke="none" /><path d="M 24.33,16.03 L 24.27,16.03 L 22.52,16.92 L 22.52,18.04 L 24.33,17.15 Z" fill="#112b06" stroke="none" /><path d="M 15.27,15.01 L 14.41,15.43 L 14.41,16.54 L 15.27,16.13 Z" fill="#112b06" stroke="none" /><path d="M 28.82,14.89 L 27.93,15.33 L 27.93,16.41 L 27.86,16.48 L 27.04,16.89 L 27.04,17.97 L 27.10,17.97 L 27.90,17.56 L 27.93,17.59 L 27.93,18.64 L 27.99,18.64 L 28.82,18.23 L 28.82,17.11 L 28.76,17.11 L 27.96,17.53 L 27.93,17.50 L 27.93,16.48 L 27.99,16.41 L 28.82,16.00 Z" fill="#112b06" stroke="none" /><path d="M 17.97,14.76 L 16.19,15.65 L 16.19,16.76 L 17.97,15.87 Z" fill="#112b06" stroke="none" /><path d="M 27.04,12.47 L 26.97,12.47 L 25.22,13.36 L 25.22,14.44 L 25.29,14.44 L 26.97,13.58 L 27.04,13.61 L 27.04,14.63 L 26.97,14.70 L 25.22,15.55 L 25.22,16.67 L 25.29,16.67 L 27.01,15.81 L 27.04,15.78 L 27.04,14.70 L 27.10,14.63 L 27.93,14.22 L 27.93,13.11 L 27.07,13.52 L 27.04,13.49 Z" fill="#112b06" stroke="none" /><path d="M 24.33,10.50 L 24.27,10.50 L 23.41,10.94 L 23.41,12.02 L 23.48,12.02 L 24.33,11.58 Z" fill="#112b06" stroke="none" /><path d="M 22.52,10.34 L 22.46,10.34 L 21.60,10.78 L 21.60,11.83 L 20.74,12.28 L 20.71,12.25 L 20.71,11.23 L 18.89,12.12 L 18.89,13.20 L 20.68,12.31 L 20.71,12.34 L 20.71,13.36 L 20.64,13.42 L 18.89,14.28 L 18.89,15.40 L 18.96,15.40 L 20.64,14.54 L 20.71,14.57 L 20.71,15.59 L 20.64,15.65 L 19.79,16.06 L 19.79,17.18 L 20.71,16.73 L 20.71,15.65 L 20.77,15.59 L 21.60,15.17 L 21.60,14.06 L 20.74,14.47 L 20.71,14.44 L 20.71,13.42 L 20.77,13.36 L 21.60,12.95 L 21.60,11.86 L 22.52,11.39 Z" fill="#112b06" stroke="none" /><path d="M 27.93,8.68 L 27.04,9.13 L 27.04,10.21 L 27.10,10.21 L 27.93,9.80 Z" fill="#112b06" stroke="none" /><path d="M 6.30,26.91 L 6.30,27.96 L 8.05,28.85 L 8.11,28.85 L 8.11,27.80 L 6.36,26.91 Z" fill="#143207" stroke="none" /><path d="M 8.11,25.61 L 8.11,26.72 L 9.00,27.17 L 9.03,27.17 L 9.03,26.12 L 9.07,26.08 L 10.78,26.94 L 10.85,26.94 L 10.85,25.83 L 9.07,24.94 L 9.03,24.94 L 9.03,25.99 L 9.00,26.02 L 8.17,25.61 Z" fill="#143207" stroke="none" /><path d="M 4.49,23.79 L 4.49,24.91 L 6.30,25.80 L 6.30,24.68 L 4.55,23.79 Z" fill="#143207" stroke="none" /><path d="M 11.74,21.88 L 11.74,24.02 L 11.67,24.05 L 10.85,23.63 L 10.85,24.75 L 11.67,25.16 L 11.74,25.22 L 11.74,26.31 L 12.56,26.72 L 12.63,26.72 L 12.63,25.70 L 12.66,25.67 L 13.49,26.08 L 13.55,26.08 L 13.55,24.97 L 12.69,24.56 L 12.63,24.49 L 12.63,22.30 L 11.80,21.88 Z" fill="#143207" stroke="none" /><path d="M 7.22,18.51 L 7.22,19.63 L 9.03,20.52 L 9.03,19.40 L 7.28,18.51 Z" fill="#143207" stroke="none" /><path d="M 0.89,15.33 L 0.89,16.45 L 2.61,17.30 L 2.67,17.37 L 2.67,18.45 L 3.53,18.86 L 3.59,18.93 L 3.59,21.06 L 3.53,21.09 L 1.84,20.23 L 1.78,20.23 L 1.78,21.31 L 3.53,22.20 L 3.59,22.20 L 3.59,21.18 L 3.63,21.15 L 4.49,21.57 L 4.49,20.52 L 4.52,20.49 L 6.23,21.34 L 6.30,21.34 L 6.30,20.23 L 4.55,19.37 L 4.49,19.31 L 4.49,18.23 L 2.74,17.37 L 2.67,17.30 L 2.67,16.29 L 2.70,16.25 L 3.53,16.67 L 3.59,16.67 L 3.59,15.55 L 2.67,15.11 L 2.67,16.16 L 2.61,16.19 Z" fill="#143207" stroke="none" /><path d="M 6.30,15.81 L 6.30,16.92 L 6.33,16.95 L 9.00,18.29 L 9.03,18.29 L 9.03,17.24 L 9.10,17.21 L 9.86,17.59 L 9.92,17.65 L 9.92,18.74 L 9.96,18.77 L 11.67,19.63 L 11.74,19.63 L 11.74,18.51 L 9.99,17.65 L 9.92,17.59 L 9.92,16.51 L 9.03,16.06 L 9.03,14.95 L 8.11,14.50 L 8.11,15.62 L 9.03,16.10 L 9.03,17.11 L 9.00,17.15 Z" fill="#143207" stroke="none" /><path d="M 2.67,11.80 L 2.67,12.91 L 4.49,13.81 L 4.49,12.69 L 2.74,11.80 Z" fill="#143207" stroke="none" /><path d="M 3.59,10.05 L 3.59,11.13 L 5.34,12.02 L 5.41,12.02 L 5.41,10.94 L 3.66,10.05 Z" fill="#143207" stroke="none" /><path d="M 0.00,7.19 L 0.00,8.24 L 1.78,9.13 L 1.78,8.05 L 0.06,7.19 Z" fill="#143207" stroke="none" /><path d="M 18.89,27.61 L 18.00,28.06 L 17.97,28.02 L 17.97,26.97 L 17.91,26.97 L 17.08,27.39 L 17.08,28.50 L 16.22,28.95 L 16.19,28.91 L 16.19,27.86 L 16.13,27.86 L 15.30,28.28 L 15.27,28.31 L 15.27,29.39 L 15.20,29.46 L 14.41,29.84 L 14.41,30.95 L 15.27,30.54 L 15.27,29.46 L 15.33,29.39 L 16.16,28.98 L 16.19,29.01 L 16.19,31.11 L 16.25,31.11 L 18.86,29.81 L 18.89,29.77 Z" fill="#143407" stroke="none" /><path d="M 15.27,22.78 L 14.41,23.19 L 14.41,25.42 L 15.27,25.00 Z" fill="#143407" stroke="none" /><path d="M 28.82,21.53 L 27.93,21.98 L 27.93,23.06 L 27.86,23.13 L 27.04,23.54 L 27.04,24.62 L 26.18,25.07 L 26.15,25.03 L 26.15,22.90 L 26.21,22.84 L 27.04,22.43 L 27.04,21.31 L 26.15,21.76 L 26.15,22.84 L 26.08,22.90 L 25.22,23.32 L 25.22,25.54 L 26.12,25.10 L 26.15,25.13 L 26.15,26.15 L 27.04,25.70 L 27.04,24.65 L 27.93,24.21 L 27.93,23.13 L 27.99,23.06 L 28.82,22.65 Z" fill="#143407" stroke="none" /><path d="M 27.86,17.56 L 27.04,17.97 L 27.04,19.09 L 27.10,19.09 L 27.90,18.67 L 27.93,18.70 L 27.93,19.75 L 27.99,19.75 L 28.82,19.34 L 28.82,18.23 L 28.76,18.23 L 27.96,18.64 L 27.93,18.61 L 27.93,17.56 Z" fill="#143407" stroke="none" /><path d="M 19.79,17.18 L 18.89,17.62 L 18.89,18.70 L 18.83,18.77 L 17.97,19.18 L 17.97,21.41 L 18.04,21.41 L 18.86,20.99 L 18.89,21.03 L 18.89,22.04 L 18.96,22.04 L 19.79,21.63 L 19.79,20.55 L 19.85,20.49 L 20.71,20.07 L 20.71,17.84 L 20.64,17.84 L 19.82,18.26 L 19.79,18.23 Z" fill="#143407" stroke="none" /><path d="M 16.19,16.76 L 15.27,17.21 L 15.27,18.32 L 14.41,18.77 L 14.41,20.96 L 14.47,20.96 L 17.08,19.66 L 17.08,17.43 L 16.22,17.84 L 16.19,17.81 Z" fill="#143407" stroke="none" /><path d="M 27.04,15.78 L 26.15,16.22 L 26.15,17.30 L 26.08,17.37 L 25.26,17.78 L 25.22,17.75 L 25.22,16.70 L 25.16,16.70 L 24.33,17.11 L 24.33,18.23 L 23.41,18.70 L 23.41,20.90 L 22.52,21.34 L 22.52,23.54 L 22.46,23.60 L 21.63,24.02 L 21.60,23.98 L 21.60,22.93 L 20.71,23.38 L 20.71,24.46 L 20.77,24.46 L 21.57,24.05 L 21.60,24.08 L 21.60,25.13 L 21.66,25.13 L 22.52,24.68 L 22.52,23.60 L 22.58,23.54 L 23.41,23.13 L 23.41,20.93 L 24.30,20.49 L 24.33,20.52 L 24.33,21.57 L 24.37,21.57 L 25.22,21.12 L 25.22,20.04 L 25.29,19.98 L 26.15,19.56 L 26.15,17.37 L 26.21,17.30 L 27.04,16.89 Z" fill="#143407" stroke="none" /><path d="M 28.82,13.77 L 27.93,14.22 L 27.93,15.33 L 28.82,14.89 Z" fill="#143407" stroke="none" /><path d="M 17.97,12.60 L 17.08,13.04 L 17.08,14.09 L 17.15,14.09 L 17.97,13.68 Z" fill="#143407" stroke="none" /><path d="M 25.22,8.97 L 24.33,9.42 L 24.33,11.55 L 24.27,11.61 L 23.44,12.02 L 23.41,11.99 L 23.41,9.89 L 23.35,9.89 L 22.52,10.31 L 22.52,12.47 L 21.60,12.95 L 21.60,15.14 L 21.53,15.20 L 20.74,15.59 L 20.71,15.55 L 20.71,14.50 L 19.79,14.95 L 19.79,16.06 L 19.85,16.06 L 20.68,15.65 L 20.71,15.68 L 20.71,16.70 L 20.77,16.70 L 21.60,16.29 L 21.60,15.20 L 21.66,15.14 L 22.52,14.73 L 22.52,12.50 L 23.38,12.06 L 23.41,12.09 L 23.41,13.14 L 23.48,13.14 L 24.33,12.69 L 24.33,11.61 L 24.40,11.55 L 25.22,11.13 Z" fill="#143407" stroke="none" /><path d="M 27.93,7.63 L 27.86,7.63 L 27.04,8.05 L 27.04,9.10 L 26.97,9.16 L 26.15,9.57 L 26.15,11.77 L 26.21,11.77 L 27.01,11.36 L 27.04,11.39 L 27.04,12.44 L 27.10,12.44 L 27.93,12.02 L 27.93,10.91 L 28.82,10.47 L 28.82,8.24 L 27.96,8.65 L 27.93,8.62 Z" fill="#143407" stroke="none" /><path d="M 8.11,27.80 L 8.11,28.88 L 9.03,29.33 L 9.03,28.25 Z" fill="#173808" stroke="none" /><path d="M 10.85,25.86 L 10.85,26.97 L 11.74,27.42 L 11.74,28.53 L 12.56,28.95 L 12.63,28.95 L 12.63,27.83 L 11.74,27.39 L 11.74,26.27 L 10.91,25.86 Z" fill="#173808" stroke="none" /><path d="M 3.59,23.35 L 3.59,24.46 L 4.42,24.87 L 4.49,24.87 L 4.49,23.76 L 3.66,23.35 Z" fill="#173808" stroke="none" /><path d="M 6.30,20.26 L 6.30,21.38 L 7.16,21.79 L 7.22,21.85 L 7.22,22.93 L 8.11,23.38 L 8.11,22.27 L 7.28,21.85 L 7.22,21.79 L 7.22,20.71 L 6.36,20.26 Z" fill="#173808" stroke="none" /><path d="M 0.95,19.79 L 0.89,19.79 L 0.89,20.80 L 0.86,20.83 L 0.00,20.42 L 0.00,21.53 L 0.86,21.98 L 0.89,21.98 L 0.89,20.93 L 0.92,20.90 L 1.78,21.31 L 1.78,20.20 Z" fill="#173808" stroke="none" /><path d="M 9.03,19.40 L 9.03,20.52 L 9.92,20.96 L 9.92,19.85 Z" fill="#173808" stroke="none" /><path d="M 11.74,18.54 L 11.74,19.66 L 12.63,20.10 L 12.63,22.33 L 13.49,22.74 L 13.55,22.81 L 13.55,23.89 L 14.41,24.30 L 14.41,23.19 L 13.61,22.81 L 13.55,22.74 L 13.55,20.55 L 12.63,20.07 L 12.63,18.96 L 11.80,18.54 Z" fill="#173808" stroke="none" /><path d="M 5.41,15.36 L 5.41,16.48 L 6.30,16.92 L 6.30,15.81 Z" fill="#173808" stroke="none" /><path d="M 0.00,14.89 L 0.00,16.00 L 0.89,16.45 L 0.89,15.33 Z" fill="#173808" stroke="none" /><path d="M 13.55,13.96 L 13.55,15.01 L 14.35,15.43 L 14.41,15.43 L 14.41,14.38 L 13.61,13.96 Z" fill="#173808" stroke="none" /><path d="M 9.03,11.71 L 9.03,12.76 L 9.92,13.20 L 9.92,12.12 L 9.10,11.71 Z" fill="#173808" stroke="none" /><path d="M 1.78,11.36 L 1.78,12.47 L 2.61,12.88 L 2.67,12.88 L 2.67,11.77 L 1.84,11.36 Z" fill="#173808" stroke="none" /><path d="M 5.41,10.94 L 5.41,12.06 L 6.30,12.50 L 6.30,13.61 L 7.22,14.06 L 7.22,12.95 L 6.30,12.47 L 6.30,11.39 Z" fill="#173808" stroke="none" /><path d="M 13.55,30.54 L 13.55,31.59 L 14.35,32.00 L 14.41,32.00 L 14.41,30.95 L 13.61,30.54 Z" fill="#1c4609" stroke="none" /><path d="M 14.41,27.61 L 13.55,27.20 L 13.55,28.25 L 13.52,28.28 L 12.69,27.86 L 12.63,27.86 L 12.63,28.91 L 12.60,28.95 L 11.80,28.53 L 11.74,28.53 L 11.74,29.61 L 12.63,30.06 L 12.63,29.01 L 12.66,28.98 L 13.55,29.42 L 13.55,28.37 L 13.58,28.34 L 14.35,28.72 L 14.41,28.72 Z" fill="#1c4609" stroke="none" /><path d="M 9.92,26.50 L 9.92,27.61 L 10.78,28.06 L 10.85,28.06 L 10.85,26.94 Z" fill="#1c4609" stroke="none" /><path d="M 7.22,26.27 L 7.22,27.36 L 9.00,28.25 L 9.03,28.28 L 9.03,29.33 L 9.92,29.77 L 9.92,28.69 L 9.03,28.25 L 9.03,27.17 L 7.28,26.27 Z" fill="#1c4609" stroke="none" /><path d="M 4.49,24.91 L 4.49,25.99 L 5.34,26.43 L 5.41,26.43 L 5.41,25.35 L 4.55,24.91 Z" fill="#1c4609" stroke="none" /><path d="M 9.92,24.30 L 9.92,25.38 L 11.67,26.27 L 11.74,26.27 L 11.74,25.19 L 9.99,24.30 Z" fill="#1c4609" stroke="none" /><path d="M 2.67,23.98 L 2.67,25.10 L 3.59,25.54 L 3.59,24.43 Z" fill="#1c4609" stroke="none" /><path d="M 0.00,23.76 L 0.00,24.81 L 0.89,25.26 L 0.89,24.17 L 0.06,23.76 Z" fill="#1c4609" stroke="none" /><path d="M 3.59,22.23 L 3.59,23.35 L 5.41,24.24 L 5.41,23.13 L 3.66,22.23 Z" fill="#1c4609" stroke="none" /><path d="M 13.55,21.66 L 13.55,22.71 L 13.52,22.74 L 12.69,22.33 L 12.63,22.33 L 12.63,23.41 L 13.55,23.89 L 13.55,25.00 L 14.41,25.42 L 14.41,24.30 L 13.55,23.86 L 13.55,22.84 L 13.58,22.81 L 14.35,23.19 L 14.41,23.19 L 14.41,22.08 Z" fill="#1c4609" stroke="none" /><path d="M 9.92,20.96 L 9.92,22.08 L 10.85,22.52 L 10.85,21.41 Z" fill="#1c4609" stroke="none" /><path d="M 5.41,18.70 L 5.41,19.82 L 7.16,20.68 L 7.22,20.74 L 7.22,21.76 L 7.19,21.79 L 5.47,20.93 L 5.41,20.93 L 5.41,22.04 L 7.16,22.90 L 7.22,22.97 L 7.22,24.05 L 8.05,24.46 L 8.11,24.46 L 8.11,23.38 L 7.28,22.97 L 7.22,22.90 L 7.22,21.88 L 7.28,21.85 L 8.11,22.27 L 8.11,21.22 L 8.14,21.18 L 8.97,21.60 L 9.03,21.60 L 9.03,20.52 L 8.17,20.07 L 8.11,20.07 L 8.11,21.09 L 8.05,21.12 L 7.28,20.74 L 7.22,20.68 L 7.22,19.59 Z" fill="#1c4609" stroke="none" /><path d="M 0.89,18.67 L 0.89,19.72 L 0.86,19.75 L 0.06,19.34 L 0.00,19.34 L 0.00,20.42 L 0.83,20.83 L 0.89,20.90 L 0.89,21.92 L 0.86,21.95 L 0.00,21.53 L 0.00,22.65 L 0.89,23.09 L 0.89,22.04 L 0.95,22.01 L 2.67,22.87 L 2.67,21.76 L 0.95,20.90 L 0.89,20.83 L 0.89,19.82 L 0.92,19.79 L 2.61,20.64 L 2.67,20.64 L 2.67,19.53 L 0.95,18.67 Z" fill="#1c4609" stroke="none" /><path d="M 8.11,17.84 L 8.11,18.96 L 9.92,19.85 L 9.92,18.74 L 8.17,17.84 Z" fill="#1c4609" stroke="none" /><path d="M 10.85,16.99 L 10.85,18.10 L 12.63,18.99 L 12.63,20.04 L 12.60,20.07 L 10.91,19.21 L 10.85,19.21 L 10.85,20.33 L 12.56,21.18 L 12.63,21.18 L 12.63,20.14 L 12.66,20.10 L 13.55,20.55 L 13.55,19.44 L 12.63,18.96 L 12.63,17.88 L 12.60,17.84 Z" fill="#1c4609" stroke="none" /><path d="M 6.30,16.92 L 6.30,18.04 L 7.16,18.48 L 7.22,18.48 L 7.22,17.37 Z" fill="#1c4609" stroke="none" /><path d="M 0.89,16.45 L 0.89,17.56 L 1.72,17.97 L 1.78,17.97 L 1.78,16.89 Z" fill="#1c4609" stroke="none" /><path d="M 4.49,16.03 L 4.49,17.15 L 5.41,17.59 L 5.41,16.48 L 4.55,16.03 Z" fill="#1c4609" stroke="none" /><path d="M 12.63,14.57 L 12.63,15.65 L 13.49,16.10 L 13.55,16.10 L 13.55,15.01 L 12.69,14.57 Z" fill="#1c4609" stroke="none" /><path d="M 0.00,13.77 L 0.00,14.89 L 1.78,15.78 L 1.78,14.66 Z" fill="#1c4609" stroke="none" /><path d="M 2.67,12.91 L 2.67,14.00 L 3.53,14.44 L 3.59,14.44 L 3.59,13.36 L 2.74,12.91 Z" fill="#1c4609" stroke="none" /><path d="M 9.03,12.76 L 9.03,13.87 L 9.86,14.28 L 9.92,14.28 L 9.92,13.20 Z" fill="#1c4609" stroke="none" /><path d="M 0.89,12.02 L 0.89,13.11 L 1.78,13.55 L 1.78,12.44 L 0.95,12.02 Z" fill="#1c4609" stroke="none" /><path d="M 1.78,10.24 L 1.78,11.36 L 3.59,12.25 L 3.59,11.13 L 1.84,10.24 Z" fill="#1c4609" stroke="none" /><path d="M 4.49,9.42 L 4.49,10.50 L 6.23,11.36 L 6.30,11.42 L 6.30,12.44 L 6.27,12.47 L 4.49,11.58 L 4.49,12.69 L 6.30,13.61 L 6.30,14.66 L 6.27,14.70 L 5.47,14.28 L 5.41,14.28 L 5.41,15.36 L 6.30,15.81 L 6.30,14.76 L 6.33,14.73 L 7.22,15.17 L 7.22,14.06 L 6.30,13.58 L 6.30,12.53 L 6.33,12.50 L 7.22,12.95 L 7.22,11.90 L 7.25,11.86 L 8.05,12.28 L 8.11,12.28 L 8.11,11.23 L 7.22,10.78 L 7.22,11.80 L 7.19,11.83 L 6.36,11.42 L 6.30,11.36 L 6.30,10.31 Z" fill="#1c4609" stroke="none" /><path d="M 0.00,8.24 L 0.00,9.35 L 0.83,9.77 L 0.89,9.77 L 0.89,8.68 Z" fill="#1c4609" stroke="none" /><path d="M 14.38,9.86 L 13.55,9.45 L 13.49,9.45 L 11.71,10.34 L 11.71,10.37 L 12.53,10.78 L 12.66,10.78 L 14.38,9.92 Z" fill="#1f4c0a" stroke="none" /><path d="M 24.37,8.52 L 23.44,8.08 L 21.66,8.97 L 21.66,9.00 L 22.52,9.45 L 22.58,9.45 L 24.37,8.56 Z" fill="#1f4c0a" stroke="none" /><path d="M 18.00,8.08 L 17.11,7.63 L 14.44,8.97 L 14.44,9.03 L 15.27,9.45 L 14.44,9.86 L 14.44,9.92 L 15.27,10.34 L 15.36,10.34 L 16.16,9.92 L 16.25,9.92 L 17.05,10.34 L 17.18,10.34 L 18.00,9.92 L 17.97,9.86 L 17.15,9.45 L 17.08,9.45 L 16.22,9.89 L 15.33,9.45 L 18.00,8.11 Z" fill="#1f4c0a" stroke="none" /><path d="M 5.38,8.08 L 5.38,8.11 L 6.20,8.52 L 6.17,8.59 L 5.38,8.97 L 5.38,9.00 L 6.23,9.45 L 6.30,9.45 L 7.19,9.00 L 8.94,9.89 L 9.03,9.89 L 9.86,9.48 L 9.86,9.42 L 8.14,8.56 L 8.17,8.49 L 8.97,8.11 L 8.97,8.08 L 8.11,7.63 L 8.05,7.63 L 7.19,8.08 L 6.30,7.63 L 6.23,7.63 Z" fill="#1f4c0a" stroke="none" /><path d="M 15.30,7.63 L 14.44,7.19 L 14.38,7.19 L 12.60,8.08 L 12.60,8.11 L 13.52,8.56 L 15.30,7.67 Z" fill="#1f4c0a" stroke="none" /><path d="M 28.79,7.16 L 27.93,6.74 L 26.21,7.60 L 26.21,7.67 L 26.97,8.05 L 27.10,8.05 L 28.76,7.22 Z" fill="#1f4c0a" stroke="none" /><path d="M 23.44,7.16 L 22.62,6.74 L 22.49,6.74 L 20.77,7.60 L 20.77,7.67 L 21.60,8.08 L 21.69,8.08 L 23.41,7.22 Z" fill="#1f4c0a" stroke="none" /><path d="M 8.94,5.34 L 8.11,4.93 L 8.02,4.93 L 7.19,5.34 L 7.19,5.41 L 8.02,5.82 L 7.95,5.88 L 6.27,6.71 L 6.27,6.74 L 7.19,7.19 L 8.97,6.30 L 8.97,6.27 L 8.17,5.88 L 8.11,5.82 L 8.94,5.41 Z" fill="#1f4c0a" stroke="none" /><path d="M 8.94,3.53 L 8.17,3.15 L 8.05,3.15 L 6.33,4.01 L 6.33,4.07 L 7.09,4.45 L 7.22,4.45 L 8.94,3.59 Z" fill="#1f4c0a" stroke="none" /><path d="M 12.56,3.53 L 11.74,3.12 L 11.64,3.12 L 9.92,3.98 L 9.89,4.04 L 10.72,4.45 L 10.85,4.45 L 12.56,3.59 Z" fill="#1f4c0a" stroke="none" /><path d="M 13.52,5.85 L 14.35,6.27 L 14.47,6.27 L 16.22,5.38 L 17.08,5.82 L 17.18,5.82 L 18.96,4.93 L 19.82,5.38 L 18.99,5.79 L 18.96,5.85 L 19.79,6.27 L 19.91,6.27 L 20.74,5.85 L 20.74,5.82 L 19.88,5.38 L 21.66,4.49 L 21.66,4.45 L 20.74,4.01 L 18.99,4.90 L 18.89,4.90 L 18.10,4.49 L 17.97,4.49 L 17.18,4.90 L 17.08,4.90 L 15.43,4.07 L 15.36,4.01 L 17.11,3.12 L 17.11,3.09 L 16.29,2.67 L 16.16,2.67 L 14.44,3.53 L 14.44,3.59 L 15.27,4.01 L 15.20,4.07 L 14.41,4.45 L 14.41,4.49 L 15.20,4.87 L 15.27,4.93 L 13.55,5.79 Z" fill="#1f4c0a" stroke="none" /><path d="M 11.74,26.31 L 11.74,27.36 L 11.71,27.39 L 10.91,26.97 L 10.85,26.97 L 10.85,29.17 L 11.67,29.58 L 11.74,29.65 L 11.74,30.70 L 12.56,31.11 L 12.63,31.11 L 12.63,30.12 L 12.66,30.09 L 13.49,30.50 L 13.55,30.50 L 13.55,29.49 L 13.58,29.46 L 14.35,29.84 L 14.41,29.84 L 14.41,28.72 L 13.55,28.31 L 13.55,29.36 L 13.52,29.39 L 12.69,28.98 L 12.63,28.98 L 12.63,30.00 L 12.60,30.03 L 11.80,29.65 L 11.74,29.58 L 11.74,27.45 L 11.77,27.42 L 12.56,27.83 L 12.63,27.83 L 12.63,26.72 L 11.80,26.31 Z" fill="#21540b" stroke="none" /><path d="M 12.63,23.41 L 12.63,24.52 L 13.55,25.00 L 13.55,26.12 L 14.41,26.53 L 14.41,25.42 L 13.55,24.97 L 13.55,23.86 Z" fill="#21540b" stroke="none" /><path d="M 0.00,22.65 L 0.00,23.76 L 0.83,24.17 L 0.89,24.17 L 0.89,23.16 L 0.92,23.13 L 1.72,23.51 L 1.78,23.57 L 1.78,25.70 L 1.81,25.73 L 4.42,27.04 L 4.49,27.04 L 4.49,24.87 L 3.59,24.43 L 3.59,23.32 L 2.67,22.87 L 2.67,23.92 L 2.61,23.95 L 1.84,23.57 L 1.78,23.51 L 1.78,22.43 L 0.92,21.98 L 0.89,21.98 L 0.89,23.03 L 0.86,23.06 Z" fill="#21540b" stroke="none" /><path d="M 13.55,20.55 L 13.55,21.66 L 14.35,22.08 L 14.41,22.08 L 14.41,20.96 Z" fill="#21540b" stroke="none" /><path d="M 12.63,21.18 L 11.80,20.77 L 11.74,20.77 L 11.74,21.82 L 11.71,21.85 L 10.85,21.41 L 10.85,20.29 L 9.92,19.85 L 9.92,20.90 L 9.89,20.93 L 9.03,20.52 L 9.03,22.68 L 9.00,22.71 L 8.11,22.27 L 8.11,24.43 L 8.08,24.46 L 7.22,24.02 L 7.22,22.93 L 6.36,22.49 L 6.30,22.49 L 6.30,23.57 L 7.22,24.05 L 7.22,25.16 L 8.05,25.57 L 8.11,25.57 L 8.11,24.52 L 8.14,24.49 L 9.03,24.94 L 9.03,22.78 L 9.07,22.74 L 9.92,23.19 L 9.92,24.30 L 10.85,24.75 L 10.85,23.70 L 10.88,23.67 L 11.74,24.08 L 11.74,21.92 L 11.77,21.88 L 12.56,22.30 L 12.63,22.30 Z" fill="#21540b" stroke="none" /><path d="M 0.00,16.00 L 0.00,18.23 L 0.83,18.64 L 0.89,18.64 L 0.89,16.45 Z" fill="#21540b" stroke="none" /><path d="M 4.49,14.92 L 4.49,15.97 L 4.45,16.00 L 3.66,15.59 L 3.59,15.59 L 3.59,17.81 L 4.49,18.26 L 4.49,19.34 L 5.34,19.79 L 5.41,19.79 L 5.41,18.77 L 5.44,18.74 L 6.30,19.15 L 6.30,16.92 L 5.47,16.51 L 5.41,16.45 L 5.41,15.36 L 4.55,14.92 Z" fill="#21540b" stroke="none" /><path d="M 12.63,13.49 L 12.63,14.50 L 12.60,14.54 L 11.80,14.12 L 11.74,14.12 L 11.74,16.32 L 12.56,16.73 L 12.63,16.80 L 12.63,17.88 L 13.49,18.32 L 13.55,18.32 L 13.55,17.27 L 13.58,17.24 L 14.41,17.65 L 14.41,15.43 L 13.61,15.05 L 13.55,14.98 L 13.55,13.93 Z" fill="#21540b" stroke="none" /><path d="M 10.85,12.60 L 9.99,12.15 L 9.92,12.15 L 9.92,14.25 L 9.89,14.28 L 9.03,13.84 L 9.03,11.67 L 8.11,11.23 L 8.11,13.33 L 8.05,13.36 L 7.22,12.95 L 7.22,15.11 L 7.16,15.14 L 6.30,14.70 L 6.30,13.58 L 5.47,13.17 L 5.41,13.17 L 5.41,14.28 L 6.30,14.73 L 6.30,15.81 L 7.16,16.25 L 7.22,16.25 L 7.22,15.24 L 7.25,15.20 L 8.11,15.62 L 8.11,13.46 L 8.14,13.42 L 9.03,13.87 L 9.03,14.98 L 9.86,15.40 L 9.92,15.40 L 9.92,14.35 L 9.96,14.31 L 10.85,14.76 Z" fill="#21540b" stroke="none" /><path d="M 0.89,10.91 L 0.89,11.96 L 0.86,11.99 L 0.06,11.58 L 0.00,11.58 L 0.00,13.77 L 2.67,15.11 L 2.67,12.88 L 1.78,12.44 L 1.78,11.32 L 0.95,10.91 Z" fill="#21540b" stroke="none" /><path d="M 2.67,8.52 L 2.67,9.57 L 3.53,10.02 L 3.59,10.02 L 3.59,8.97 L 2.74,8.52 Z" fill="#21540b" stroke="none" /><path d="M 13.55,13.93 L 13.55,13.96 L 14.38,14.38 L 14.44,14.38 L 15.27,13.96 L 15.27,13.93 L 14.44,13.52 L 14.38,13.52 Z" fill="#23560c" stroke="none" /><path d="M 18.07,11.67 L 18.07,11.74 L 18.83,12.12 L 18.96,12.12 L 19.79,11.71 L 19.79,11.67 L 18.96,11.26 L 18.89,11.26 Z" fill="#23560c" stroke="none" /><path d="M 6.33,10.31 L 6.36,10.37 L 7.19,10.78 L 7.25,10.78 L 8.05,10.37 L 8.11,10.37 L 9.86,11.26 L 9.92,11.26 L 10.78,10.82 L 11.71,11.26 L 12.60,10.82 L 12.60,10.78 L 11.77,10.37 L 11.64,10.37 L 10.85,10.78 L 10.75,10.78 L 9.00,9.89 L 8.11,10.34 L 8.05,10.34 L 7.19,9.89 Z" fill="#23560c" stroke="none" /><path d="M 20.77,9.42 L 20.77,9.48 L 21.60,9.89 L 21.69,9.89 L 22.52,9.48 L 22.52,9.42 L 21.69,9.00 L 21.60,9.00 Z" fill="#23560c" stroke="none" /><path d="M 18.96,9.42 L 18.96,9.48 L 19.79,9.89 L 19.88,9.89 L 20.71,9.48 L 20.71,9.42 L 19.88,9.00 L 19.79,9.00 Z" fill="#23560c" stroke="none" /><path d="M 11.71,8.52 L 11.71,8.56 L 12.60,9.00 L 13.49,8.56 L 13.49,8.52 L 12.66,8.11 L 12.53,8.11 Z" fill="#23560c" stroke="none" /><path d="M 17.15,7.63 L 17.15,7.67 L 17.97,8.08 L 18.07,8.08 L 18.89,7.67 L 18.89,7.60 L 18.07,7.19 L 18.00,7.19 Z" fill="#23560c" stroke="none" /><path d="M 3.56,7.16 L 3.59,7.22 L 4.42,7.63 L 4.49,7.63 L 5.34,7.19 L 6.23,7.63 L 6.30,7.63 L 7.16,7.19 L 7.16,7.16 L 6.33,6.74 L 6.20,6.74 L 5.41,7.16 L 5.31,7.16 L 4.52,6.74 L 4.39,6.74 Z" fill="#23560c" stroke="none" /><path d="M 22.55,6.71 L 22.55,6.74 L 23.44,7.19 L 24.37,6.74 L 24.37,6.71 L 23.48,6.27 Z" fill="#23560c" stroke="none" /><path d="M 10.78,6.27 L 10.78,6.30 L 11.67,6.74 L 12.56,6.30 L 12.63,6.30 L 13.49,6.74 L 14.41,6.30 L 14.41,6.27 L 13.52,5.82 L 12.63,6.27 L 12.56,6.27 L 11.71,5.82 Z" fill="#23560c" stroke="none" /><path d="M 5.41,4.52 L 6.27,4.93 L 7.16,4.49 L 7.16,4.45 L 6.33,4.04 L 6.27,4.04 L 5.44,4.45 Z" fill="#23560c" stroke="none" /><path d="M 20.77,4.01 L 20.77,4.04 L 21.60,4.45 L 21.73,4.45 L 22.49,4.07 L 22.49,4.01 L 21.66,3.59 L 21.57,3.59 Z" fill="#23560c" stroke="none" /><path d="M 11.71,3.09 L 11.74,3.15 L 12.56,3.56 L 12.63,3.56 L 13.49,3.12 L 13.49,3.09 L 12.66,2.67 L 12.53,2.67 Z" fill="#23560c" stroke="none" /><path d="M 17.02,1.34 L 16.25,1.72 L 16.25,1.78 L 17.08,2.19 L 17.02,2.26 L 16.22,2.64 L 16.22,2.67 L 17.15,3.12 L 18.04,2.67 L 18.04,2.64 L 17.24,2.26 L 17.18,2.19 L 17.94,1.81 L 17.97,1.75 L 17.15,1.34 Z" fill="#23560c" stroke="none" /><path d="M 13.52,13.04 L 13.55,13.11 L 14.38,13.52 L 14.44,13.52 L 15.30,13.07 L 15.30,13.04 L 14.47,12.63 L 14.35,12.63 Z" fill="#2a6b0e" stroke="none" /><path d="M 17.15,11.23 L 17.18,11.29 L 18.00,11.71 L 18.07,11.71 L 18.89,11.29 L 18.89,11.23 L 18.07,10.82 L 17.97,10.82 Z" fill="#2a6b0e" stroke="none" /><path d="M 9.89,10.34 L 9.89,10.37 L 10.69,10.75 L 10.75,10.82 L 9.92,11.23 L 9.92,11.29 L 10.75,11.71 L 10.82,11.71 L 11.67,11.26 L 12.56,11.71 L 12.63,11.71 L 14.41,10.82 L 14.41,10.78 L 13.49,10.34 L 11.74,11.23 L 11.64,11.23 L 10.88,10.85 L 10.85,10.82 L 10.91,10.75 L 12.60,9.92 L 12.56,9.86 L 11.74,9.45 L 11.67,9.45 Z" fill="#2a6b0e" stroke="none" /><path d="M 5.41,9.86 L 5.41,9.89 L 6.30,10.34 L 7.13,9.92 L 7.22,9.92 L 7.98,10.31 L 8.02,10.34 L 7.98,10.40 L 7.25,10.75 L 7.25,10.82 L 8.08,11.23 L 8.17,11.23 L 8.97,10.82 L 8.97,10.78 L 8.14,10.37 L 8.17,10.31 L 8.97,9.92 L 8.97,9.89 L 8.11,9.45 L 8.05,9.45 L 7.19,9.89 L 6.30,9.45 L 6.23,9.45 Z" fill="#2a6b0e" stroke="none" /><path d="M 15.30,8.52 L 14.47,8.11 L 14.35,8.11 L 12.63,8.97 L 12.63,9.00 L 13.49,9.45 L 13.55,9.45 L 15.27,8.59 Z" fill="#2a6b0e" stroke="none" /><path d="M 9.89,8.52 L 9.89,8.56 L 10.78,9.00 L 11.71,8.56 L 11.71,8.52 L 10.82,8.08 Z" fill="#2a6b0e" stroke="none" /><path d="M 18.04,8.08 L 18.04,8.11 L 18.86,8.52 L 18.83,8.59 L 18.04,8.97 L 18.07,9.03 L 18.89,9.45 L 18.96,9.45 L 19.85,9.00 L 20.71,9.45 L 19.85,9.89 L 19.85,9.92 L 20.68,10.34 L 20.64,10.40 L 19.85,10.78 L 19.88,10.85 L 20.64,11.23 L 20.74,11.23 L 21.57,10.82 L 21.57,10.75 L 20.83,10.40 L 20.80,10.34 L 21.60,9.92 L 21.69,9.92 L 22.52,10.34 L 24.30,9.45 L 24.27,9.38 L 23.51,9.00 L 23.41,9.00 L 21.63,9.89 L 20.77,9.45 L 22.55,8.56 L 22.55,8.52 L 21.63,8.08 L 19.88,8.97 L 19.79,8.97 L 18.99,8.56 L 19.02,8.49 L 19.82,8.11 L 19.79,8.05 L 18.96,7.63 L 18.89,7.63 Z" fill="#2a6b0e" stroke="none" /><path d="M 15.33,7.63 L 15.33,7.67 L 16.16,8.08 L 16.29,8.08 L 17.11,7.67 L 17.08,7.60 L 16.25,7.19 L 16.19,7.19 Z" fill="#2a6b0e" stroke="none" /><path d="M 25.26,7.16 L 24.43,6.74 L 24.30,6.74 L 22.58,7.60 L 22.58,7.67 L 23.41,8.08 L 23.51,8.08 L 25.22,7.22 Z" fill="#2a6b0e" stroke="none" /><path d="M 8.97,7.16 L 8.14,6.74 L 8.02,6.74 L 6.30,7.60 L 6.30,7.67 L 7.13,8.08 L 7.22,8.08 L 8.94,7.22 Z" fill="#2a6b0e" stroke="none" /><path d="M 0.03,7.16 L 0.06,7.22 L 0.83,7.60 L 0.92,7.60 L 1.72,7.19 L 1.72,7.16 L 0.89,6.74 Z" fill="#2a6b0e" stroke="none" /><path d="M 26.18,6.71 L 26.18,6.74 L 27.07,7.19 L 27.93,6.78 L 27.90,6.71 L 27.07,6.30 L 27.01,6.30 Z" fill="#2a6b0e" stroke="none" /><path d="M 17.15,6.71 L 17.18,6.78 L 18.00,7.19 L 18.07,7.19 L 18.93,6.74 L 18.93,6.71 L 18.10,6.30 L 17.97,6.30 Z" fill="#2a6b0e" stroke="none" /><path d="M 20.74,6.71 L 20.74,6.74 L 21.63,7.19 L 22.55,6.74 L 22.55,6.71 L 21.66,6.27 Z" fill="#2a6b0e" stroke="none" /><path d="M 3.53,6.27 L 2.64,6.71 L 2.64,6.74 L 3.44,7.13 L 3.50,7.19 L 2.67,7.60 L 2.67,7.67 L 3.50,8.08 L 3.44,8.14 L 2.70,8.49 L 2.70,8.52 L 3.56,8.97 L 3.63,8.97 L 4.45,8.56 L 4.45,8.52 L 3.66,8.14 L 3.59,8.08 L 4.42,7.67 L 4.42,7.60 L 3.59,7.19 L 3.66,7.13 L 4.45,6.74 L 4.45,6.71 Z" fill="#2a6b0e" stroke="none" /><path d="M 5.38,6.27 L 5.38,6.30 L 6.20,6.71 L 6.33,6.71 L 7.16,6.30 L 7.13,6.23 L 6.30,5.82 L 6.23,5.82 Z" fill="#2a6b0e" stroke="none" /><path d="M 22.58,5.79 L 22.58,5.85 L 23.41,6.27 L 23.51,6.27 L 24.33,5.85 L 24.33,5.79 L 23.51,5.38 L 23.41,5.38 Z" fill="#2a6b0e" stroke="none" /><path d="M 16.22,6.30 L 16.22,6.27 L 15.30,5.82 L 13.55,6.71 L 13.46,6.71 L 12.69,6.33 L 12.66,6.30 L 12.69,6.23 L 14.38,5.41 L 14.38,5.34 L 13.55,4.93 L 13.46,4.93 L 11.71,5.82 L 10.82,5.38 L 10.75,5.38 L 9.89,5.82 L 9.89,5.85 L 10.72,6.27 L 10.85,6.27 L 11.64,5.85 L 11.74,5.85 L 12.50,6.23 L 12.53,6.27 L 12.50,6.33 L 11.71,6.71 L 11.71,6.74 L 12.56,7.19 L 11.74,7.60 L 11.71,7.67 L 12.53,8.08 L 12.66,8.08 L 13.49,7.67 L 13.46,7.60 L 12.63,7.19 L 13.49,6.74 L 14.38,7.19 L 14.44,7.19 Z" fill="#2a6b0e" stroke="none" /><path d="M 23.41,4.49 L 22.55,4.04 L 22.49,4.04 L 20.77,4.90 L 20.77,4.93 L 21.63,5.38 L 21.69,5.38 L 23.41,4.52 Z" fill="#2a6b0e" stroke="none" /><path d="M 8.97,4.45 L 8.05,4.01 L 6.30,4.90 L 6.20,4.90 L 5.38,4.49 L 4.55,4.90 L 4.52,4.96 L 5.38,5.38 L 6.27,4.93 L 7.13,5.38 L 7.19,5.38 L 8.97,4.49 Z" fill="#2a6b0e" stroke="none" /><path d="M 18.96,4.01 L 18.96,4.04 L 19.79,4.45 L 19.91,4.45 L 20.74,4.04 L 20.71,3.98 L 19.88,3.56 L 19.82,3.56 Z" fill="#2a6b0e" stroke="none" /><path d="M 14.38,3.53 L 13.55,3.12 L 13.46,3.12 L 11.74,3.98 L 11.71,4.04 L 12.53,4.45 L 12.66,4.45 L 14.38,3.59 Z" fill="#2a6b0e" stroke="none" /><path d="M 9.89,3.09 L 9.92,3.15 L 10.75,3.56 L 10.82,3.56 L 11.67,3.12 L 11.67,3.09 L 10.85,2.67 L 10.72,2.67 Z" fill="#2a6b0e" stroke="none" /><path d="M 11.71,2.19 L 11.71,2.23 L 12.53,2.64 L 12.66,2.64 L 13.49,2.23 L 13.46,2.16 L 12.63,1.75 L 12.56,1.75 Z" fill="#2a6b0e" stroke="none" /><path d="M 14.41,2.64 L 14.41,2.67 L 15.33,3.12 L 17.08,2.23 L 17.18,2.23 L 17.94,2.61 L 17.97,2.64 L 17.94,2.70 L 16.25,3.53 L 16.25,3.59 L 17.08,4.01 L 17.18,4.01 L 18.93,3.12 L 18.93,3.09 L 18.10,2.67 L 18.13,2.61 L 18.86,2.26 L 18.86,2.19 L 18.04,1.78 L 17.94,1.78 L 17.11,2.19 L 16.25,1.75 L 17.08,1.34 L 17.08,1.30 L 16.19,0.86 L 15.33,1.27 L 15.36,1.34 L 16.19,1.75 Z" fill="#2a6b0e" stroke="none" /><path d="M 13.58,0.38 L 13.58,0.45 L 14.35,0.83 L 14.47,0.83 L 15.24,0.45 L 15.24,0.38 L 14.47,0.00 L 14.35,0.00 Z" fill="#2a6b0e" stroke="none" /><path d="M 11.71,12.15 L 11.71,12.18 L 12.53,12.60 L 12.50,12.66 L 11.77,13.01 L 11.77,13.07 L 13.49,13.93 L 13.61,13.93 L 14.38,13.55 L 14.38,13.49 L 13.55,13.07 L 13.61,13.01 L 14.38,12.63 L 14.44,12.63 L 15.20,13.01 L 15.27,13.07 L 14.44,13.49 L 14.44,13.55 L 15.20,13.93 L 15.33,13.93 L 16.16,13.52 L 16.13,13.46 L 15.36,13.07 L 15.43,13.01 L 16.22,12.63 L 16.22,12.60 L 14.44,11.71 L 14.38,11.71 L 13.52,12.15 L 12.63,11.71 L 12.56,11.71 Z" fill="#338211" stroke="none" /><path d="M 8.14,11.23 L 8.14,11.26 L 8.97,11.67 L 9.10,11.67 L 9.86,11.29 L 9.86,11.23 L 9.03,10.82 L 8.94,10.82 Z" fill="#338211" stroke="none" /><path d="M 6.30,9.42 L 6.30,9.48 L 7.13,9.89 L 7.22,9.89 L 8.05,9.48 L 8.05,9.42 L 7.22,9.00 L 7.13,9.00 Z" fill="#338211" stroke="none" /><path d="M 4.52,9.42 L 4.52,9.45 L 5.34,9.86 L 5.47,9.86 L 6.23,9.48 L 6.23,9.42 L 5.41,9.00 L 5.31,9.00 Z" fill="#338211" stroke="none" /><path d="M 26.12,8.49 L 25.26,8.08 L 24.37,8.52 L 24.37,8.56 L 25.19,8.97 L 25.26,8.97 L 26.08,8.56 Z" fill="#338211" stroke="none" /><path d="M 20.74,8.52 L 19.85,8.08 L 18.96,8.52 L 18.89,8.52 L 18.04,8.08 L 17.11,8.52 L 17.11,8.56 L 17.91,8.94 L 17.97,9.00 L 17.15,9.42 L 17.15,9.48 L 18.83,10.31 L 18.86,10.37 L 18.07,10.78 L 17.97,10.78 L 17.18,10.37 L 17.05,10.37 L 16.22,10.78 L 16.22,10.82 L 17.02,11.20 L 17.08,11.26 L 16.25,11.67 L 16.25,11.74 L 18.00,12.60 L 18.89,12.15 L 18.89,12.12 L 17.21,11.29 L 17.18,11.26 L 17.24,11.20 L 18.04,10.82 L 19.72,11.67 L 19.85,11.67 L 20.68,11.26 L 20.64,11.20 L 18.99,10.37 L 19.02,10.31 L 19.82,9.92 L 19.79,9.86 L 18.07,9.00 L 18.13,8.94 L 18.89,8.56 L 18.96,8.56 L 19.85,9.00 L 20.74,8.56 Z" fill="#338211" stroke="none" /><path d="M 6.27,6.71 L 4.49,5.82 L 4.42,5.82 L 3.56,6.27 L 2.74,5.85 L 2.64,5.85 L 1.81,6.27 L 1.81,6.33 L 2.54,6.68 L 2.58,6.74 L 1.75,7.16 L 1.75,7.19 L 2.61,7.63 L 1.78,8.05 L 1.78,8.08 L 2.67,8.52 L 3.53,8.11 L 3.50,8.05 L 2.67,7.63 L 3.53,7.19 L 3.53,7.16 L 2.70,6.74 L 2.74,6.68 L 3.50,6.30 L 3.59,6.30 L 5.25,7.13 L 5.31,7.19 L 5.28,7.22 L 4.49,7.60 L 4.49,7.67 L 5.31,8.08 L 5.41,8.08 L 6.23,7.67 L 6.23,7.60 L 5.41,7.19 L 5.47,7.13 L 6.27,6.74 Z" fill="#338211" stroke="none" /><path d="M 15.33,5.82 L 15.33,5.85 L 16.16,6.27 L 16.13,6.33 L 15.33,6.71 L 15.33,6.74 L 17.08,7.63 L 17.18,7.63 L 18.00,7.22 L 18.00,7.16 L 17.18,6.74 L 17.24,6.68 L 18.00,6.30 L 18.07,6.30 L 18.83,6.68 L 18.89,6.74 L 18.07,7.16 L 18.07,7.22 L 18.89,7.63 L 18.96,7.63 L 19.82,7.19 L 19.82,7.16 L 18.99,6.74 L 19.05,6.68 L 19.85,6.30 L 19.85,6.27 L 18.07,5.38 L 18.00,5.38 L 17.15,5.82 L 16.25,5.38 L 16.19,5.38 Z" fill="#338211" stroke="none" /><path d="M 10.82,5.34 L 10.82,5.41 L 11.64,5.82 L 11.74,5.82 L 12.56,5.41 L 12.56,5.34 L 11.74,4.93 L 11.64,4.93 Z" fill="#338211" stroke="none" /><path d="M 9.83,4.93 L 9.00,5.34 L 9.00,5.41 L 9.83,5.82 L 9.77,5.88 L 8.97,6.27 L 8.97,6.30 L 10.75,7.19 L 9.89,7.63 L 9.03,7.19 L 8.94,7.19 L 8.11,7.60 L 8.11,7.67 L 8.94,8.08 L 8.87,8.14 L 8.08,8.52 L 8.08,8.56 L 9.83,9.42 L 9.86,9.45 L 9.83,9.48 L 9.03,9.86 L 9.00,9.92 L 9.83,10.34 L 9.96,10.34 L 10.78,9.92 L 10.75,9.86 L 9.96,9.48 L 9.92,9.45 L 9.96,9.42 L 10.78,9.00 L 11.67,9.45 L 11.74,9.45 L 12.56,9.03 L 12.60,8.97 L 11.80,8.59 L 11.77,8.52 L 12.60,8.11 L 12.60,8.08 L 10.82,7.19 L 11.64,6.78 L 11.67,6.71 L 9.99,5.88 L 9.92,5.82 L 9.96,5.79 L 10.75,5.41 L 10.75,5.34 L 9.92,4.93 Z" fill="#338211" stroke="none" /><path d="M 25.26,6.30 L 25.22,6.23 L 24.40,5.82 L 25.22,5.41 L 25.22,5.38 L 23.44,4.49 L 20.77,5.82 L 20.77,5.85 L 22.49,6.71 L 22.62,6.71 L 23.41,6.30 L 23.51,6.30 L 24.30,6.71 L 24.43,6.71 Z" fill="#338211" stroke="none" /><path d="M 18.96,3.09 L 18.99,3.15 L 20.71,4.01 L 20.80,4.01 L 21.60,3.59 L 21.60,3.56 L 19.82,2.67 Z" fill="#338211" stroke="none" /><path d="M 14.41,2.67 L 14.41,2.64 L 13.61,2.26 L 13.55,2.19 L 14.38,1.78 L 14.38,1.72 L 12.66,0.86 L 9.96,2.19 L 9.96,2.26 L 11.67,3.12 L 12.56,2.67 L 12.63,2.67 L 13.49,3.12 Z" fill="#338211" stroke="none" /><path d="M 15.24,0.41 L 14.41,0.83 L 14.41,0.86 L 15.20,1.24 L 15.27,1.30 L 14.44,1.72 L 14.44,1.78 L 15.27,2.19 L 15.36,2.19 L 16.19,1.78 L 16.19,1.72 L 15.36,1.30 L 15.43,1.24 L 16.16,0.89 L 16.16,0.86 L 15.30,0.41 Z" fill="#338211" stroke="none" /></svg>