<svg height="32" width="32" viewBox="0 0 32 32"><defs /><path d="M 16.49,24.15 L 15.40,24.69 L 15.40,26.01 L 15.48,26.01 L 16.49,25.51 Z" fill="#0e0e0e" stroke="none" /><path d="M 7.66,22.05 L 7.58,22.05 L 6.61,22.55 L 6.61,23.87 L 6.69,23.87 L 7.66,23.37 Z" fill="#0e0e0e" stroke="none" /><path d="M 20.88,21.97 L 20.80,21.97 L 18.70,23.02 L 18.70,24.38 L 20.84,23.33 L 20.88,23.37 L 20.88,24.85 L 20.92,24.85 L 20.92,22.16 L 20.88,22.12 Z" fill="#0e0e0e" stroke="none" /><path d="M 13.18,21.74 L 12.09,22.28 L 12.09,26.32 L 12.17,26.32 L 13.18,25.82 Z" fill="#0e0e0e" stroke="none" /><path d="M 10.96,20.37 L 9.88,20.92 L 9.88,22.24 L 9.95,22.24 L 10.93,21.74 L 10.96,21.77 L 10.96,25.78 L 7.70,27.41 L 7.66,27.37 L 7.66,24.73 L 6.61,25.23 L 6.61,29.32 L 10.96,27.14 L 10.96,25.82 L 11.00,25.78 L 11.00,21.70 L 10.96,21.66 Z" fill="#0e0e0e" stroke="none" /><path d="M 24.18,19.21 L 24.11,19.21 L 22.05,20.26 L 22.05,21.58 L 22.12,21.58 L 24.18,20.53 Z" fill="#0e0e0e" stroke="none" /><path d="M 17.61,18.16 L 16.49,18.70 L 16.49,20.06 L 16.56,20.06 L 17.61,19.52 Z" fill="#0e0e0e" stroke="none" /><path d="M 17.61,12.75 L 17.54,12.75 L 15.40,13.84 L 15.40,15.20 L 16.45,14.70 L 16.49,14.74 L 16.49,16.02 L 17.61,15.48 Z" fill="#0e0e0e" stroke="none" /><path d="M 24.18,12.40 L 23.13,12.91 L 23.13,14.27 L 23.10,14.31 L 20.88,15.40 L 20.88,16.76 L 24.18,15.13 Z" fill="#0e0e0e" stroke="none" /><path d="M 10.96,12.29 L 9.88,12.83 L 9.88,15.48 L 6.61,17.11 L 6.61,18.47 L 6.69,18.47 L 10.96,16.33 Z" fill="#0e0e0e" stroke="none" /><path d="M 24.18,7.00 L 24.11,7.00 L 23.13,7.50 L 23.13,8.83 L 23.06,8.90 L 20.92,9.95 L 20.92,11.08 L 19.79,11.63 L 19.79,12.99 L 19.87,12.99 L 20.88,12.48 L 20.88,11.35 L 20.92,11.31 L 21.00,11.31 L 24.18,9.72 Z" fill="#0e0e0e" stroke="none" /><path d="M 16.49,6.61 L 16.41,6.61 L 14.27,7.70 L 14.27,8.98 L 16.49,7.89 Z" fill="#0e0e0e" stroke="none" /><path d="M 20.88,4.39 L 18.70,5.48 L 18.70,6.77 L 20.88,5.68 Z" fill="#0e0e0e" stroke="none" /><path d="M 20.88,23.29 L 19.79,23.83 L 19.79,25.16 L 19.71,25.23 L 18.70,25.74 L 18.70,27.02 L 18.78,27.02 L 20.88,25.97 Z" fill="#121212" stroke="none" /><path d="M 18.70,23.06 L 18.62,23.06 L 16.52,24.11 L 16.49,24.15 L 16.49,25.47 L 15.44,26.01 L 15.40,25.97 L 15.40,24.69 L 15.36,24.69 L 12.09,26.32 L 12.09,27.68 L 15.36,26.05 L 15.40,26.09 L 15.40,28.70 L 16.45,28.19 L 16.49,28.15 L 16.49,25.51 L 18.70,24.38 Z" fill="#121212" stroke="none" /><path d="M 11.00,20.37 L 10.96,20.37 L 10.96,21.70 L 10.93,21.74 L 9.91,22.24 L 9.88,22.20 L 9.88,20.92 L 9.84,20.92 L 7.66,22.01 L 7.66,23.33 L 7.58,23.41 L 6.61,23.87 L 6.61,25.23 L 6.69,25.23 L 7.66,24.73 L 7.66,23.41 L 7.74,23.33 L 9.84,22.28 L 9.88,22.32 L 9.88,23.60 L 8.75,24.18 L 8.75,25.51 L 8.67,25.58 L 7.66,26.09 L 7.66,27.45 L 10.93,25.82 L 10.96,25.86 L 10.96,27.14 L 11.00,27.14 L 11.00,25.78 L 10.96,25.74 L 10.96,21.74 L 11.00,21.70 Z" fill="#121212" stroke="none" /><path d="M 24.18,16.49 L 24.11,16.49 L 23.13,16.99 L 23.13,18.31 L 23.06,18.39 L 22.05,18.90 L 22.05,20.22 L 21.97,20.30 L 20.88,20.84 L 20.88,22.16 L 20.96,22.16 L 22.05,21.62 L 22.05,20.30 L 22.12,20.22 L 24.18,19.21 Z" fill="#121212" stroke="none" /><path d="M 20.88,16.52 L 17.65,18.12 L 17.61,18.08 L 17.61,15.48 L 17.54,15.48 L 16.52,15.98 L 16.49,16.02 L 16.49,18.70 L 12.13,20.88 L 12.09,20.92 L 12.09,22.28 L 16.49,20.10 L 16.49,18.74 L 17.54,18.20 L 17.61,18.24 L 17.61,19.52 L 17.65,19.52 L 20.84,17.92 L 20.88,17.89 Z" fill="#121212" stroke="none" /><path d="M 10.96,14.93 L 10.96,16.29 L 11.00,16.29 L 11.00,14.93 Z" fill="#121212" stroke="none" /><path d="M 15.40,13.84 L 12.09,15.48 L 12.09,16.84 L 12.17,16.84 L 15.36,15.24 L 15.40,15.20 Z" fill="#121212" stroke="none" /><path d="M 9.88,12.83 L 7.66,13.92 L 7.66,15.20 L 7.58,15.28 L 6.61,15.75 L 6.61,17.11 L 6.69,17.11 L 9.88,15.51 Z" fill="#121212" stroke="none" /><path d="M 20.88,9.99 L 20.88,11.35 L 20.92,11.35 L 20.92,9.99 Z" fill="#121212" stroke="none" /><path d="M 24.18,9.72 L 24.11,9.72 L 23.13,10.23 L 23.13,12.91 L 22.09,13.45 L 22.05,13.41 L 22.05,12.13 L 21.97,12.13 L 20.92,12.68 L 20.88,12.64 L 20.88,12.48 L 20.80,12.48 L 19.83,12.99 L 19.79,12.95 L 19.79,11.66 L 19.71,11.66 L 17.61,12.71 L 17.61,14.08 L 17.69,14.08 L 19.75,13.03 L 19.79,13.06 L 19.79,14.35 L 18.70,14.89 L 18.70,16.25 L 20.80,15.20 L 20.88,15.24 L 20.88,15.40 L 20.96,15.40 L 23.13,14.31 L 23.13,12.95 L 24.18,12.40 Z" fill="#121212" stroke="none" /><path d="M 14.27,7.70 L 12.09,8.79 L 12.09,10.07 L 14.27,8.98 Z" fill="#121212" stroke="none" /><path d="M 24.18,5.68 L 23.13,6.18 L 23.13,7.50 L 24.18,7.00 Z" fill="#121212" stroke="none" /><path d="M 18.70,5.48 L 16.49,6.57 L 16.49,7.85 L 16.56,7.85 L 18.70,6.77 Z" fill="#121212" stroke="none" /><path d="M 7.66,28.81 L 7.58,28.81 L 6.61,29.32 L 6.61,30.68 L 7.66,30.17 Z" fill="#161616" stroke="none" /><path d="M 11.00,28.50 L 10.93,28.50 L 9.88,29.04 L 9.88,30.33 L 9.95,30.33 L 11.00,29.78 Z" fill="#161616" stroke="none" /><path d="M 15.40,27.41 L 15.32,27.41 L 12.13,29.01 L 12.09,29.04 L 12.09,30.33 L 12.17,30.33 L 15.36,28.73 L 15.40,28.70 Z" fill="#161616" stroke="none" /><path d="M 19.79,23.83 L 16.49,25.47 L 16.49,28.15 L 18.70,27.06 L 18.70,25.78 L 18.78,25.70 L 19.79,25.20 Z" fill="#161616" stroke="none" /><path d="M 9.88,22.28 L 9.80,22.28 L 7.66,23.37 L 7.66,26.09 L 8.75,25.55 L 8.75,24.22 L 8.83,24.15 L 9.88,23.64 Z" fill="#161616" stroke="none" /><path d="M 24.18,20.53 L 23.13,21.04 L 23.13,22.40 L 22.05,22.94 L 22.05,24.26 L 24.18,23.21 Z" fill="#161616" stroke="none" /><path d="M 16.49,16.02 L 14.27,17.11 L 14.27,19.83 L 16.49,18.74 Z" fill="#161616" stroke="none" /><path d="M 24.18,15.13 L 24.11,15.13 L 23.13,15.63 L 23.13,16.95 L 23.06,17.03 L 20.92,18.08 L 20.92,19.44 L 20.88,19.48 L 20.88,20.57 L 17.61,22.20 L 17.61,23.56 L 17.69,23.56 L 20.88,21.97 L 20.88,20.88 L 20.96,20.80 L 22.05,20.26 L 22.05,18.94 L 22.12,18.86 L 23.13,18.35 L 23.13,17.03 L 23.21,16.95 L 24.18,16.49 Z" fill="#161616" stroke="none" /><path d="M 7.66,13.96 L 7.58,13.96 L 6.61,14.46 L 6.61,15.75 L 6.69,15.75 L 7.66,15.24 Z" fill="#161616" stroke="none" /><path d="M 19.79,13.03 L 19.71,13.03 L 17.61,14.08 L 17.61,18.16 L 20.88,16.52 L 20.88,15.16 L 18.78,16.21 L 18.70,16.17 L 18.70,14.93 L 19.79,14.39 Z" fill="#161616" stroke="none" /><path d="M 23.13,10.23 L 20.88,11.35 L 20.88,12.68 L 20.96,12.68 L 22.01,12.13 L 22.05,12.17 L 22.05,13.45 L 22.12,13.45 L 23.13,12.95 Z" fill="#161616" stroke="none" /><path d="M 23.13,6.22 L 23.06,6.22 L 22.05,6.73 L 22.05,8.01 L 21.97,8.09 L 20.88,8.63 L 20.88,9.72 L 20.80,9.80 L 16.49,11.94 L 16.49,13.30 L 20.88,11.12 L 20.88,10.03 L 20.96,9.95 L 23.13,8.87 Z" fill="#161616" stroke="none" /><path d="M 5.52,27.45 L 5.52,28.81 L 6.53,29.32 L 6.61,29.32 L 6.61,27.96 L 5.60,27.45 Z" fill="#171717" stroke="none" /><path d="M 11.00,25.82 L 11.00,27.14 L 12.09,27.68 L 12.09,26.32 L 11.08,25.82 Z" fill="#171717" stroke="none" /><path d="M 2.18,25.78 L 2.18,27.14 L 3.30,27.68 L 3.30,26.32 L 2.26,25.78 Z" fill="#171717" stroke="none" /><path d="M 3.30,20.92 L 3.30,22.28 L 4.32,22.78 L 4.39,22.78 L 4.39,21.46 Z" fill="#171717" stroke="none" /><path d="M 11.00,14.97 L 11.00,16.33 L 12.01,16.84 L 12.09,16.84 L 12.09,15.48 L 11.08,14.97 Z" fill="#171717" stroke="none" /><path d="M 2.18,14.93 L 2.18,16.29 L 3.30,16.87 L 3.30,18.20 L 4.39,18.74 L 4.39,16.02 Z" fill="#171717" stroke="none" /><path d="M 9.91,7.70 L 9.91,8.98 L 12.09,10.07 L 12.09,8.79 Z" fill="#171717" stroke="none" /><path d="M 5.48,5.48 L 5.48,6.77 L 7.62,7.85 L 7.70,7.85 L 7.70,6.57 Z" fill="#171717" stroke="none" /><path d="M 11.00,27.14 L 10.93,27.14 L 7.66,28.77 L 7.66,30.13 L 6.61,30.68 L 6.61,31.96 L 6.69,31.96 L 9.88,30.37 L 9.88,29.08 L 9.95,29.01 L 11.00,28.50 Z" fill="#1a1a1a" stroke="none" /><path d="M 15.40,26.05 L 15.32,26.05 L 12.13,27.65 L 12.09,27.68 L 12.09,29.04 L 15.40,27.41 Z" fill="#1a1a1a" stroke="none" /><path d="M 23.13,21.07 L 23.06,21.07 L 20.92,22.16 L 20.92,24.81 L 21.00,24.81 L 22.05,24.26 L 22.05,22.98 L 23.13,22.43 Z" fill="#1a1a1a" stroke="none" /><path d="M 11.00,17.65 L 10.96,17.65 L 10.96,18.97 L 10.89,19.05 L 9.95,19.52 L 9.88,19.48 L 9.88,18.20 L 8.75,18.74 L 8.75,20.10 L 7.66,20.65 L 7.66,22.01 L 7.74,22.01 L 8.75,21.50 L 8.75,20.14 L 9.80,19.60 L 9.88,19.64 L 9.88,20.92 L 11.00,20.37 Z" fill="#1a1a1a" stroke="none" /><path d="M 14.27,17.15 L 14.19,17.15 L 12.09,18.20 L 12.09,20.92 L 14.27,19.83 Z" fill="#1a1a1a" stroke="none" /><path d="M 23.13,15.63 L 20.92,16.72 L 20.92,18.08 L 20.88,18.12 L 20.88,19.21 L 20.84,19.25 L 14.27,22.51 L 14.27,23.87 L 13.18,24.42 L 13.18,25.78 L 13.26,25.78 L 17.61,23.60 L 17.61,22.24 L 17.65,22.20 L 20.88,20.61 L 20.88,19.52 L 20.92,19.48 L 20.92,18.12 L 23.13,16.99 Z" fill="#1a1a1a" stroke="none" /><path d="M 16.49,14.66 L 15.40,15.20 L 15.40,16.56 L 16.49,16.02 Z" fill="#1a1a1a" stroke="none" /><path d="M 22.05,6.77 L 21.97,6.77 L 20.92,7.31 L 20.88,7.27 L 20.88,7.04 L 20.84,7.04 L 16.49,9.22 L 16.49,10.58 L 15.40,11.12 L 15.40,12.48 L 13.18,13.61 L 13.18,14.93 L 13.26,14.93 L 16.49,13.30 L 16.49,10.61 L 16.52,10.58 L 17.57,10.07 L 17.61,10.11 L 17.61,11.39 L 17.65,11.39 L 20.84,9.80 L 20.88,9.76 L 20.88,8.67 L 20.96,8.59 L 22.05,8.05 Z" fill="#1a1a1a" stroke="none" /><path d="M 5.52,30.17 L 5.52,31.46 L 6.61,32.00 L 6.61,30.68 L 5.60,30.17 Z" fill="#1d1d1d" stroke="none" /><path d="M 11.00,27.14 L 11.00,29.82 L 12.01,30.33 L 12.09,30.33 L 12.09,27.68 Z" fill="#1d1d1d" stroke="none" /><path d="M 0.00,24.69 L 0.00,26.05 L 2.18,27.14 L 2.18,29.78 L 2.22,29.82 L 3.23,30.33 L 3.30,30.33 L 3.30,27.76 L 3.34,27.72 L 5.44,28.77 L 5.52,28.77 L 5.52,27.41 L 3.30,26.32 L 3.30,27.61 L 3.23,27.65 L 2.18,27.10 L 2.18,25.74 L 0.08,24.69 Z" fill="#1d1d1d" stroke="none" /><path d="M 11.00,20.37 L 11.00,21.74 L 12.09,22.28 L 12.09,20.92 Z" fill="#1d1d1d" stroke="none" /><path d="M 5.52,19.32 L 5.52,20.69 L 6.53,21.19 L 6.61,21.19 L 6.61,19.83 L 5.60,19.32 Z" fill="#1d1d1d" stroke="none" /><path d="M 0.00,19.29 L 0.00,20.61 L 0.04,20.65 L 3.23,22.24 L 3.30,22.24 L 3.30,21.00 L 3.38,20.96 L 4.32,21.42 L 4.39,21.50 L 4.39,22.82 L 6.61,23.91 L 6.61,22.55 L 4.47,21.50 L 4.39,21.42 L 4.39,18.74 L 4.35,18.70 L 3.30,18.20 L 3.30,20.84 L 3.27,20.88 L 0.08,19.29 Z" fill="#1d1d1d" stroke="none" /><path d="M 11.00,16.33 L 11.00,19.01 L 12.09,19.56 L 12.09,16.84 L 11.08,16.33 Z" fill="#1d1d1d" stroke="none" /><path d="M 4.39,16.06 L 4.39,17.42 L 6.61,18.51 L 6.61,17.15 L 4.47,16.06 Z" fill="#1d1d1d" stroke="none" /><path d="M 0.00,13.84 L 0.00,15.20 L 2.18,16.29 L 2.18,14.93 Z" fill="#1d1d1d" stroke="none" /><path d="M 7.70,6.61 L 7.70,7.89 L 9.91,8.98 L 9.91,7.70 L 7.78,6.61 Z" fill="#1d1d1d" stroke="none" /><path d="M 3.30,4.39 L 3.30,5.68 L 5.48,6.77 L 5.48,5.48 Z" fill="#1d1d1d" stroke="none" /><path d="M 14.27,21.19 L 13.18,21.74 L 13.18,24.42 L 13.26,24.42 L 14.27,23.91 Z" fill="#1e1e1f" stroke="none" /><path d="M 17.61,19.52 L 16.49,20.06 L 16.49,21.42 L 17.61,20.88 Z" fill="#1e1e1f" stroke="none" /><path d="M 20.88,16.76 L 20.88,18.12 L 20.92,18.12 L 20.92,16.76 Z" fill="#1e1e1f" stroke="none" /><path d="M 11.00,16.29 L 10.96,16.29 L 10.96,17.61 L 10.89,17.69 L 9.91,18.16 L 9.88,18.12 L 9.88,16.87 L 9.80,16.87 L 8.75,17.42 L 8.75,18.74 L 8.71,18.78 L 6.61,19.83 L 6.61,22.55 L 7.66,22.05 L 7.66,20.69 L 7.70,20.65 L 8.71,20.14 L 8.75,20.18 L 8.75,21.46 L 8.83,21.46 L 9.88,20.92 L 9.88,19.60 L 9.95,19.52 L 10.96,19.01 Z" fill="#1e1e1f" stroke="none" /><path d="M 15.40,15.20 L 12.09,16.84 L 12.09,18.20 L 12.17,18.20 L 15.36,16.60 L 15.40,16.56 Z" fill="#1e1e1f" stroke="none" /><path d="M 10.96,13.57 L 10.96,14.93 L 11.00,14.93 L 11.00,13.57 Z" fill="#1e1e1f" stroke="none" /><path d="M 15.40,8.44 L 15.32,8.44 L 14.27,8.98 L 14.27,10.30 L 14.19,10.38 L 13.18,10.89 L 13.18,13.57 L 13.10,13.65 L 12.09,14.15 L 12.09,15.48 L 12.17,15.48 L 13.18,14.97 L 13.18,13.65 L 13.26,13.57 L 15.40,12.52 L 15.40,11.16 L 15.44,11.12 L 16.45,10.61 L 16.49,10.65 L 16.49,11.94 L 16.56,11.94 L 17.61,11.39 L 17.61,10.03 L 16.52,10.58 L 16.49,10.54 L 16.49,9.25 L 16.41,9.25 L 15.44,9.76 L 15.40,9.72 Z" fill="#1e1e1f" stroke="none" /><path d="M 20.88,5.68 L 19.79,6.22 L 19.79,7.58 L 20.88,7.04 Z" fill="#1e1e1f" stroke="none" /><path d="M 16.49,20.10 L 16.41,20.10 L 14.27,21.19 L 14.27,22.51 L 14.35,22.51 L 16.49,21.42 Z" fill="#232323" stroke="none" /><path d="M 20.88,17.89 L 17.65,19.48 L 17.61,19.52 L 17.61,20.84 L 17.69,20.84 L 20.88,19.25 Z" fill="#232323" stroke="none" /><path d="M 8.75,17.42 L 6.61,18.47 L 6.61,19.83 L 8.75,18.78 Z" fill="#232323" stroke="none" /><path d="M 10.96,16.33 L 10.89,16.33 L 9.88,16.84 L 9.88,18.20 L 10.96,17.65 Z" fill="#232323" stroke="none" /><path d="M 10.96,12.29 L 10.96,13.57 L 11.00,13.57 L 11.00,12.29 Z" fill="#232323" stroke="none" /><path d="M 14.27,8.98 L 12.09,10.07 L 12.09,14.15 L 13.18,13.61 L 13.18,10.93 L 13.26,10.85 L 14.27,10.34 Z" fill="#232323" stroke="none" /><path d="M 19.79,6.22 L 15.40,8.40 L 15.40,9.76 L 15.48,9.76 L 19.75,7.62 L 19.79,7.58 Z" fill="#232323" stroke="none" /><path d="M 3.30,27.68 L 3.30,30.37 L 5.48,31.46 L 5.52,31.46 L 5.52,30.21 L 5.56,30.17 L 6.53,30.68 L 6.61,30.68 L 6.61,29.32 Z" fill="#242323" stroke="none" /><path d="M 0.00,27.41 L 0.00,28.70 L 2.18,29.78 L 2.18,28.46 L 0.08,27.41 Z" fill="#242323" stroke="none" /><path d="M 4.39,25.55 L 4.39,26.87 L 6.53,27.96 L 6.61,27.96 L 6.61,26.63 L 4.47,25.55 Z" fill="#242323" stroke="none" /><path d="M 11.00,24.46 L 11.00,25.82 L 12.01,26.32 L 12.09,26.32 L 12.09,24.96 L 11.08,24.46 Z" fill="#242323" stroke="none" /><path d="M 11.00,19.01 L 11.00,20.37 L 12.09,20.92 L 12.09,19.56 Z" fill="#242323" stroke="none" /><path d="M 4.39,17.42 L 4.39,21.46 L 6.53,22.55 L 6.61,22.55 L 6.61,21.19 L 5.52,20.65 L 5.52,19.36 L 5.56,19.32 L 6.53,19.83 L 6.61,19.83 L 6.61,18.51 L 4.47,17.42 Z" fill="#242323" stroke="none" /><path d="M 1.09,17.11 L 1.09,19.83 L 3.30,20.92 L 3.30,18.20 L 1.17,17.11 Z" fill="#242323" stroke="none" /><path d="M 3.30,14.15 L 3.30,15.51 L 6.61,17.15 L 6.61,15.79 L 6.57,15.75 L 3.38,14.15 Z" fill="#242323" stroke="none" /><path d="M 11.00,13.61 L 11.00,14.97 L 12.01,15.48 L 12.09,15.48 L 12.09,14.15 Z" fill="#242323" stroke="none" /><path d="M 3.34,12.79 L 3.34,12.87 L 5.44,13.92 L 5.56,13.92 L 6.53,13.41 L 6.53,13.38 L 4.43,12.33 L 4.28,12.33 Z" fill="#242424" stroke="none" /><path d="M 0.00,11.16 L 0.00,11.20 L 1.01,11.70 L 1.17,11.70 L 2.10,11.24 L 2.10,11.16 L 1.09,10.65 L 1.01,10.65 Z" fill="#242424" stroke="none" /><path d="M 10.96,4.94 L 9.91,4.39 L 9.84,4.39 L 7.74,5.44 L 7.70,5.52 L 9.91,6.61 L 10.96,6.07 L 10.96,6.03 L 9.95,5.52 L 9.99,5.44 L 10.96,4.98 Z" fill="#242424" stroke="none" /><path d="M 20.88,4.35 L 19.87,3.85 L 19.75,3.85 L 17.65,4.90 L 17.65,4.98 L 18.66,5.48 L 18.74,5.48 L 20.84,4.43 Z" fill="#242424" stroke="none" /><path d="M 4.39,3.81 L 4.43,3.89 L 5.44,4.39 L 6.53,3.85 L 6.53,3.81 L 5.52,3.30 L 5.40,3.30 Z" fill="#242424" stroke="none" /><path d="M 12.09,3.27 L 12.09,3.30 L 13.18,3.85 L 14.31,3.30 L 14.31,3.27 L 13.22,2.72 Z" fill="#242424" stroke="none" /><path d="M 0.00,26.05 L 0.00,27.41 L 2.10,28.46 L 2.18,28.46 L 2.18,27.10 L 0.08,26.05 Z" fill="#2a2a2a" stroke="none" /><path d="M 11.00,23.10 L 11.00,24.46 L 12.01,24.96 L 12.09,24.96 L 12.09,23.60 L 11.08,23.10 Z" fill="#2a2a2a" stroke="none" /><path d="M 0.00,23.33 L 0.00,24.69 L 4.35,26.87 L 4.39,26.87 L 4.39,25.58 L 4.43,25.55 L 6.61,26.63 L 6.61,25.27 L 6.57,25.23 L 1.13,22.51 L 1.09,22.51 L 1.09,23.80 L 1.05,23.83 Z" fill="#2a2a2a" stroke="none" /><path d="M 0.00,16.56 L 0.00,19.29 L 1.01,19.79 L 1.09,19.79 L 1.09,17.07 L 0.08,16.56 Z" fill="#2a2a2a" stroke="none" /><path d="M 2.18,16.29 L 2.18,17.65 L 3.30,18.20 L 3.30,16.84 Z" fill="#2a2a2a" stroke="none" /><path d="M 4.39,13.38 L 4.39,14.70 L 6.61,15.79 L 6.61,14.46 Z" fill="#2a2a2a" stroke="none" /><path d="M 0.00,12.48 L 0.00,13.84 L 0.04,13.88 L 3.23,15.48 L 3.30,15.48 L 3.30,12.83 L 3.27,12.79 L 2.26,12.29 L 2.18,12.29 L 2.18,13.49 L 2.10,13.53 Z" fill="#2a2a2a" stroke="none" /><path d="M 6.57,10.03 L 6.61,10.11 L 7.62,10.61 L 7.74,10.61 L 8.75,11.12 L 8.79,11.20 L 10.93,12.25 L 11.00,12.33 L 11.00,13.61 L 12.09,14.15 L 12.09,11.43 L 12.05,11.39 L 7.78,9.25 L 7.70,9.25 L 7.70,10.54 L 7.66,10.58 Z" fill="#2a2a2a" stroke="none" /><path d="M 5.52,13.92 L 5.52,13.96 L 6.53,14.46 L 6.65,14.46 L 7.62,13.96 L 7.62,13.92 L 6.61,13.41 L 6.49,13.41 Z" fill="#2c2c2c" stroke="none" /><path d="M 1.09,11.70 L 1.09,11.74 L 3.27,12.83 L 3.34,12.83 L 4.35,12.33 L 4.35,12.29 L 2.18,11.20 L 2.10,11.20 Z" fill="#2c2c2c" stroke="none" /><path d="M 20.88,6.18 L 20.88,7.31 L 20.96,7.31 L 22.01,6.77 L 22.01,6.73 Z" fill="#2c2c2c" stroke="none" /><path d="M 9.91,6.57 L 9.95,6.65 L 13.14,8.24 L 13.22,8.24 L 14.23,7.74 L 14.23,7.66 L 11.04,6.07 L 10.93,6.07 Z" fill="#2c2c2c" stroke="none" /><path d="M 20.57,4.20 L 20.57,4.24 L 20.88,4.39 L 20.88,5.13 L 21.97,4.59 L 21.97,4.55 L 20.96,4.04 L 20.84,4.04 Z" fill="#2c2c2c" stroke="none" /><path d="M 17.26,2.53 L 17.30,2.61 L 18.31,3.11 L 18.66,2.96 L 18.62,2.88 L 17.61,2.37 Z" fill="#2c2c2c" stroke="none" /><path d="M 7.66,2.18 L 5.48,3.27 L 5.52,3.34 L 6.42,3.77 L 6.49,3.85 L 5.48,4.35 L 5.48,4.39 L 7.62,5.48 L 7.74,5.48 L 8.75,4.98 L 8.75,4.94 L 6.61,3.85 L 6.69,3.77 L 7.62,3.30 L 7.70,3.30 L 8.79,3.85 L 9.88,3.30 L 9.88,3.27 Z" fill="#2c2c2c" stroke="none" /><path d="M 8.83,1.59 L 8.83,1.67 L 12.01,3.27 L 11.98,3.34 L 9.91,4.35 L 9.91,4.43 L 10.93,4.94 L 11.04,4.94 L 13.22,3.85 L 17.54,6.03 L 17.65,6.03 L 18.66,5.52 L 18.66,5.44 L 14.39,3.30 L 14.23,3.30 L 13.26,3.81 L 13.14,3.81 L 12.21,3.34 L 12.17,3.30 L 12.21,3.23 L 13.18,2.76 L 13.18,2.72 L 9.95,1.09 L 9.84,1.09 Z" fill="#2c2c2c" stroke="none" /><path d="M 3.30,22.28 L 3.30,23.64 L 4.32,24.15 L 4.39,24.15 L 4.39,22.78 L 3.38,22.28 Z" fill="#303133" stroke="none" /><path d="M 0.00,20.61 L 0.00,23.33 L 1.09,23.87 L 1.09,21.15 Z" fill="#303133" stroke="none" /><path d="M 0.00,15.20 L 0.00,16.56 L 2.10,17.61 L 2.18,17.61 L 2.18,16.29 Z" fill="#303133" stroke="none" /><path d="M 3.30,12.83 L 3.30,14.15 L 4.32,14.66 L 4.39,14.66 L 4.39,13.38 Z" fill="#303133" stroke="none" /><path d="M 0.00,11.20 L 0.00,12.48 L 2.18,13.57 L 2.18,12.25 L 0.08,11.20 Z" fill="#303133" stroke="none" /><path d="M 11.00,9.53 L 11.00,10.89 L 12.09,11.43 L 12.09,10.07 Z" fill="#303133" stroke="none" /><path d="M 4.39,7.58 L 4.39,8.98 L 4.43,9.02 L 6.53,10.07 L 6.65,10.07 L 7.66,10.58 L 7.70,10.65 L 8.71,11.16 L 8.79,11.16 L 8.79,11.12 L 7.70,10.58 L 7.70,9.22 L 6.65,8.71 L 6.57,8.63 L 6.57,7.31 L 6.53,7.27 L 5.48,6.77 L 5.48,8.05 L 5.44,8.09 Z" fill="#303133" stroke="none" /><path d="M 4.39,8.98 L 4.39,9.02 L 7.70,10.65 L 7.70,10.61 Z" fill="#373636" stroke="none" /><path d="M 20.96,5.09 L 20.96,5.13 L 23.06,6.18 L 23.21,6.18 L 24.15,5.72 L 24.15,5.64 L 22.05,4.59 L 21.93,4.59 Z" fill="#373636" stroke="none" /><path d="M 11.00,4.94 L 11.00,4.98 L 13.18,6.07 L 15.40,4.98 L 15.36,4.90 L 13.26,3.85 L 13.14,3.85 Z" fill="#373636" stroke="none" /><path d="M 3.30,4.35 L 3.34,4.43 L 7.62,6.57 L 7.78,6.57 L 8.79,6.07 L 8.79,6.03 L 4.43,3.85 L 4.32,3.85 Z" fill="#373636" stroke="none" /><path d="M 18.35,3.07 L 18.39,3.15 L 20.49,4.20 L 20.61,4.20 L 20.88,4.04 L 20.88,4.00 L 18.70,2.92 Z" fill="#373636" stroke="none" /><path d="M 6.57,3.85 L 8.71,4.94 L 8.83,4.94 L 12.09,3.30 L 12.09,3.27 L 8.83,1.63 L 8.75,1.63 L 7.74,2.14 L 7.70,2.22 L 9.76,3.23 L 9.80,3.30 L 8.83,3.81 L 8.71,3.81 L 7.74,3.30 L 7.58,3.30 L 6.57,3.81 Z" fill="#373636" stroke="none" /><path d="M 4.39,22.82 L 4.39,24.18 L 6.61,25.27 L 6.61,23.91 L 4.47,22.82 Z" fill="#383838" stroke="none" /><path d="M 11.00,21.74 L 11.00,23.10 L 12.01,23.60 L 12.09,23.60 L 12.09,22.28 Z" fill="#383838" stroke="none" /><path d="M 1.09,21.15 L 1.09,22.51 L 3.23,23.60 L 3.30,23.60 L 3.30,22.24 Z" fill="#383838" stroke="none" /><path d="M 6.57,7.31 L 6.57,8.67 L 6.61,8.71 L 11.00,10.89 L 11.00,9.53 L 10.96,9.49 Z" fill="#383838" stroke="none" /><path d="M 3.30,5.68 L 3.30,9.53 L 3.34,9.53 L 4.39,8.98 L 4.39,7.66 L 4.43,7.62 L 5.48,8.13 L 5.48,6.77 Z" fill="#383838" stroke="none" /><path d="M 6.61,11.16 L 6.61,11.24 L 7.62,11.74 L 7.70,11.74 L 8.79,11.20 L 10.96,12.29 L 10.96,12.25 L 7.78,10.65 L 7.62,10.65 Z" fill="#404040" stroke="none" /><path d="M 2.18,10.07 L 2.22,10.15 L 5.40,11.74 L 5.52,11.74 L 6.53,11.24 L 6.53,11.16 L 5.52,10.65 L 5.60,10.58 L 6.57,10.11 L 6.57,10.07 L 4.39,8.98 Z" fill="#404040" stroke="none" /><path d="M 7.70,6.57 L 7.70,6.61 L 10.96,8.24 L 11.04,8.24 L 12.05,7.74 L 12.05,7.66 L 8.87,6.07 L 8.71,6.07 Z" fill="#404040" stroke="none" /><path d="M 20.88,5.13 L 20.88,6.18 L 22.01,6.77 L 23.13,6.22 L 23.13,6.18 L 20.96,5.09 Z" fill="#404040" stroke="none" /><path d="M 17.57,6.03 L 15.40,4.94 L 13.22,6.03 L 13.22,6.07 L 15.40,7.15 L 17.57,6.07 Z" fill="#404040" stroke="none" /><path d="M 9.88,5.48 L 9.88,5.52 L 10.96,6.07 L 12.09,5.52 L 12.09,5.48 L 11.00,4.94 Z" fill="#404040" stroke="none" /><path d="M 11.00,0.51 L 11.00,0.54 L 17.61,3.85 L 18.70,3.30 L 18.70,3.27 L 12.17,0.00 L 12.01,0.00 Z" fill="#404040" stroke="none" /><path d="M 5.48,10.61 L 5.52,10.69 L 6.53,11.20 L 5.48,11.74 L 5.48,11.78 L 6.49,12.29 L 6.42,12.36 L 5.44,12.83 L 5.44,12.87 L 6.53,13.41 L 7.62,12.87 L 7.70,12.87 L 8.67,13.38 L 8.83,13.38 L 10.93,12.33 L 10.93,12.25 L 8.83,11.20 L 8.71,11.20 L 7.66,11.74 L 6.65,11.24 L 6.61,11.20 L 6.65,11.16 L 7.66,10.65 L 7.66,10.61 L 6.65,10.11 L 6.49,10.11 Z" fill="#4a4b4e" stroke="none" /><path d="M 11.04,8.20 L 11.04,8.28 L 12.05,8.79 L 12.13,8.79 L 13.14,8.28 L 13.14,8.20 L 12.13,7.70 L 12.05,7.70 Z" fill="#4a4b4e" stroke="none" /><path d="M 11.00,6.03 L 11.04,6.10 L 14.23,7.70 L 14.31,7.70 L 15.36,7.15 L 15.36,7.12 L 12.17,5.52 L 12.01,5.52 Z" fill="#4a4b4e" stroke="none" /><path d="M 19.79,3.81 L 18.78,3.30 L 18.66,3.30 L 16.56,4.35 L 16.56,4.43 L 17.57,4.94 L 17.65,4.94 L 19.75,3.89 Z" fill="#4a4b4e" stroke="none" /><path d="M 13.22,2.72 L 13.22,2.76 L 14.23,3.27 L 14.39,3.27 L 15.40,2.76 L 15.36,2.68 L 14.35,2.18 L 14.27,2.18 Z" fill="#4a4b4e" stroke="none" /><path d="M 6.57,13.38 L 6.61,13.45 L 7.62,13.96 L 8.75,13.41 L 8.75,13.38 L 7.74,12.87 L 7.58,12.87 Z" fill="#575757" stroke="none" /><path d="M 1.09,10.61 L 1.09,10.69 L 5.37,12.83 L 5.52,12.83 L 6.53,12.33 L 6.49,12.25 L 2.22,10.11 L 2.10,10.11 Z" fill="#575757" stroke="none" /><path d="M 14.31,3.27 L 14.31,3.30 L 16.49,4.39 L 16.56,4.39 L 17.61,3.85 L 17.61,3.81 L 15.44,2.72 Z" fill="#575757" stroke="none" /><path d="M 9.91,1.05 L 9.95,1.13 L 13.14,2.72 L 13.26,2.72 L 14.27,2.22 L 14.27,2.14 L 11.08,0.54 L 10.93,0.54 Z" fill="#575757" stroke="none" /></svg>