<svg height="32" width="32" viewBox="0 0 32 32"><defs /><path d="M 10.96,17.65 L 8.75,18.74 L 8.75,20.10 L 8.83,20.10 L 10.96,19.01 Z" fill="#0e0e0e" stroke="none" /><path d="M 17.61,15.48 L 17.54,15.48 L 14.27,17.11 L 14.27,18.47 L 15.36,17.92 L 15.40,17.96 L 15.40,27.37 L 14.27,27.96 L 14.27,29.24 L 14.35,29.24 L 18.70,27.06 L 18.70,25.74 L 16.52,26.83 L 16.49,26.79 L 16.49,17.38 L 17.61,16.80 Z" fill="#0e0e0e" stroke="none" /><path d="M 24.18,5.68 L 23.13,6.18 L 23.13,11.55 L 20.88,12.68 L 20.88,14.04 L 20.96,14.04 L 23.13,12.95 L 23.13,11.59 L 24.18,11.04 Z" fill="#0e0e0e" stroke="none" /><path d="M 11.00,28.50 L 10.93,28.50 L 6.65,30.64 L 6.61,30.68 L 6.61,31.96 L 6.69,31.96 L 10.96,29.82 L 11.00,29.78 Z" fill="#121212" stroke="none" /><path d="M 14.27,27.96 L 12.09,29.04 L 12.09,30.33 L 12.17,30.33 L 14.27,29.28 Z" fill="#121212" stroke="none" /><path d="M 24.18,21.89 L 20.88,23.52 L 20.88,24.61 L 20.80,24.69 L 18.70,25.74 L 18.70,27.02 L 18.78,27.02 L 20.88,25.97 L 20.88,24.88 L 20.96,24.81 L 24.18,23.21 Z" fill="#121212" stroke="none" /><path d="M 8.75,18.78 L 8.67,18.78 L 6.61,19.83 L 6.61,21.19 L 8.75,20.14 Z" fill="#121212" stroke="none" /><path d="M 10.96,17.65 L 10.96,19.01 L 11.00,19.01 L 11.00,17.65 Z" fill="#121212" stroke="none" /><path d="M 14.27,17.15 L 14.19,17.15 L 12.09,18.20 L 12.09,19.56 L 14.27,18.47 Z" fill="#121212" stroke="none" /><path d="M 20.88,13.84 L 20.80,13.84 L 19.83,14.35 L 19.79,14.31 L 19.79,13.03 L 19.71,13.03 L 18.70,13.53 L 18.70,14.89 L 17.61,15.44 L 17.61,16.80 L 20.84,15.20 L 20.88,15.16 Z" fill="#121212" stroke="none" /><path d="M 24.18,11.04 L 23.13,11.55 L 23.13,12.91 L 23.21,12.91 L 24.18,12.40 Z" fill="#121212" stroke="none" /><path d="M 23.13,8.87 L 22.05,9.41 L 22.05,10.73 L 21.97,10.81 L 20.92,11.31 L 20.92,12.68 L 22.05,12.13 L 22.05,10.81 L 22.12,10.73 L 23.13,10.23 Z" fill="#121212" stroke="none" /><path d="M 11.00,27.14 L 10.93,27.14 L 9.91,27.65 L 9.88,27.61 L 9.88,26.36 L 9.80,26.36 L 8.83,26.87 L 8.75,26.83 L 8.75,25.55 L 7.70,26.05 L 7.66,26.09 L 7.66,27.41 L 7.58,27.49 L 6.61,27.96 L 6.61,30.68 L 11.00,28.50 Z" fill="#161616" stroke="none" /><path d="M 15.40,21.97 L 14.27,22.51 L 14.27,26.56 L 14.19,26.63 L 12.09,27.68 L 12.09,29.04 L 15.40,27.41 Z" fill="#161616" stroke="none" /><path d="M 24.18,20.53 L 20.88,22.16 L 20.88,23.25 L 20.80,23.33 L 19.87,23.80 L 19.79,23.76 L 19.79,22.51 L 19.71,22.51 L 18.70,23.02 L 18.70,24.34 L 18.62,24.42 L 16.49,25.47 L 16.49,26.83 L 16.56,26.83 L 20.84,24.69 L 20.88,24.65 L 20.88,23.56 L 20.92,23.52 L 24.18,21.89 Z" fill="#161616" stroke="none" /><path d="M 15.40,19.29 L 15.32,19.29 L 14.27,19.83 L 14.27,21.19 L 15.40,20.65 Z" fill="#161616" stroke="none" /><path d="M 11.00,13.57 L 10.96,13.57 L 10.96,14.93 L 10.93,14.97 L 8.83,16.02 L 8.75,15.98 L 8.75,14.70 L 7.66,15.24 L 7.66,16.60 L 8.71,16.10 L 8.75,16.14 L 8.75,17.38 L 8.67,17.46 L 6.61,18.47 L 6.61,19.83 L 11.00,17.65 L 11.00,16.29 L 10.96,16.25 L 10.96,14.97 L 11.00,14.93 Z" fill="#161616" stroke="none" /><path d="M 22.05,8.05 L 20.92,8.59 L 20.92,11.31 L 20.88,11.35 L 20.88,12.44 L 20.84,12.48 L 19.83,12.99 L 19.79,12.95 L 19.79,11.66 L 19.71,11.66 L 18.70,12.17 L 18.70,13.53 L 18.66,13.57 L 14.31,15.75 L 14.27,15.71 L 14.27,14.43 L 14.19,14.43 L 13.22,14.93 L 13.18,14.89 L 13.18,13.61 L 12.09,14.15 L 12.09,15.48 L 12.17,15.48 L 13.14,14.97 L 13.18,15.01 L 13.18,16.29 L 12.09,16.84 L 12.09,18.20 L 12.17,18.20 L 18.70,14.93 L 18.70,13.57 L 19.75,13.03 L 19.79,13.06 L 19.79,14.35 L 19.87,14.35 L 20.88,13.84 L 20.88,12.71 L 20.92,12.68 L 20.92,11.35 L 20.96,11.31 L 22.01,10.81 L 22.05,10.85 L 22.05,12.09 L 22.12,12.09 L 23.13,11.59 L 23.13,10.23 L 22.12,10.73 L 22.05,10.69 Z" fill="#161616" stroke="none" /><path d="M 1.09,17.11 L 1.09,18.47 L 2.18,19.01 L 2.18,28.42 L 2.14,28.46 L 1.17,27.96 L 1.09,27.96 L 1.09,29.24 L 5.52,31.46 L 5.52,30.13 L 3.38,29.08 L 3.30,29.01 L 3.30,19.64 L 3.38,19.60 L 4.39,20.10 L 4.39,18.74 L 1.17,17.11 Z" fill="#171717" stroke="none" /><path d="M 14.27,25.27 L 14.19,25.27 L 12.09,26.32 L 12.09,27.68 L 14.27,26.60 Z" fill="#1a1a1a" stroke="none" /><path d="M 10.96,24.46 L 10.89,24.46 L 8.75,25.55 L 8.75,26.91 L 9.84,26.36 L 9.88,26.40 L 9.88,27.68 L 11.00,27.14 L 11.00,25.78 L 10.96,25.74 Z" fill="#1a1a1a" stroke="none" /><path d="M 19.79,21.15 L 19.71,21.15 L 18.70,21.66 L 18.70,23.02 L 17.61,23.56 L 17.61,24.92 L 18.70,24.38 L 18.70,23.06 L 19.79,22.51 Z" fill="#1a1a1a" stroke="none" /><path d="M 22.05,20.26 L 20.92,20.80 L 20.92,22.16 L 22.05,21.62 Z" fill="#1a1a1a" stroke="none" /><path d="M 14.23,19.83 L 13.18,20.37 L 13.18,21.74 L 14.23,21.23 L 14.27,21.27 L 14.27,22.51 L 14.35,22.51 L 15.40,21.97 L 15.40,20.65 L 15.32,20.65 L 14.31,21.15 L 14.27,21.11 L 14.27,19.83 Z" fill="#1a1a1a" stroke="none" /><path d="M 24.18,19.21 L 24.11,19.21 L 23.13,19.71 L 23.13,21.04 L 23.21,21.04 L 24.18,20.53 Z" fill="#1a1a1a" stroke="none" /><path d="M 20.88,16.76 L 20.88,18.12 L 20.92,18.16 L 20.92,19.44 L 21.00,19.44 L 22.05,18.90 L 22.05,17.54 L 20.96,18.08 L 20.92,18.04 L 20.92,16.76 Z" fill="#1a1a1a" stroke="none" /><path d="M 10.89,13.61 L 9.88,14.11 L 9.88,15.48 L 9.95,15.48 L 10.93,14.97 L 10.96,15.01 L 10.96,16.29 L 11.00,16.29 L 11.00,14.93 L 10.96,14.89 L 10.96,13.61 Z" fill="#1a1a1a" stroke="none" /><path d="M 8.75,13.41 L 8.67,13.41 L 7.66,13.92 L 7.66,15.24 L 8.75,14.70 Z" fill="#1a1a1a" stroke="none" /><path d="M 15.40,11.16 L 15.32,11.16 L 13.18,12.25 L 13.18,14.93 L 12.09,15.48 L 12.09,16.84 L 12.17,16.84 L 13.18,16.33 L 13.18,14.97 L 14.23,14.43 L 14.27,14.46 L 14.27,15.75 L 14.35,15.75 L 16.49,14.66 L 16.49,11.98 L 16.41,11.98 L 15.44,12.48 L 15.40,12.44 Z" fill="#1a1a1a" stroke="none" /><path d="M 20.88,9.76 L 18.70,10.85 L 18.70,12.17 L 17.61,12.71 L 17.61,14.08 L 17.69,14.08 L 18.70,13.57 L 18.70,12.21 L 19.75,11.66 L 19.79,11.70 L 19.79,12.99 L 19.87,12.99 L 20.88,12.48 L 20.88,11.39 L 20.92,11.35 L 20.92,9.99 L 20.88,9.95 Z" fill="#1a1a1a" stroke="none" /><path d="M 20.88,7.31 L 20.88,8.63 L 20.92,8.63 L 20.92,7.31 Z" fill="#1a1a1a" stroke="none" /><path d="M 23.13,6.22 L 23.06,6.22 L 22.05,6.73 L 22.05,9.41 L 23.13,8.87 Z" fill="#1a1a1a" stroke="none" /><path d="M 5.52,30.17 L 5.52,31.46 L 6.61,32.00 L 6.61,30.68 L 5.60,30.17 Z" fill="#1d1d1d" stroke="none" /><path d="M 11.00,28.50 L 11.00,29.82 L 12.01,30.33 L 12.09,30.33 L 12.09,29.04 Z" fill="#1d1d1d" stroke="none" /><path d="M 0.00,27.41 L 0.00,28.70 L 1.09,29.24 L 1.09,27.92 L 0.08,27.41 Z" fill="#1d1d1d" stroke="none" /><path d="M 5.52,17.96 L 5.52,19.25 L 5.48,19.29 L 4.39,18.74 L 4.39,20.10 L 6.53,21.19 L 6.61,21.19 L 6.61,18.51 Z" fill="#1d1d1d" stroke="none" /><path d="M 11.00,17.69 L 11.00,19.01 L 12.09,19.56 L 12.09,18.20 L 11.08,17.69 Z" fill="#1d1d1d" stroke="none" /><path d="M 0.00,16.56 L 0.00,17.92 L 1.01,18.43 L 1.09,18.43 L 1.09,17.07 L 0.08,16.56 Z" fill="#1d1d1d" stroke="none" /><path d="M 13.18,24.46 L 13.10,24.46 L 12.09,24.96 L 12.09,26.32 L 12.17,26.32 L 13.18,25.82 Z" fill="#1e1e1f" stroke="none" /><path d="M 14.27,21.19 L 13.18,21.74 L 13.18,23.06 L 13.26,23.06 L 14.27,22.55 Z" fill="#1e1e1f" stroke="none" /><path d="M 9.88,20.92 L 8.75,21.46 L 8.75,22.78 L 8.67,22.86 L 7.66,23.37 L 7.66,26.05 L 7.58,26.13 L 6.61,26.60 L 6.61,27.96 L 6.69,27.96 L 7.66,27.45 L 7.66,26.13 L 7.74,26.05 L 10.93,24.46 L 10.96,24.50 L 10.96,25.78 L 11.00,25.78 L 11.00,24.42 L 10.96,24.38 L 10.96,23.10 L 10.89,23.10 L 9.91,23.60 L 9.88,23.56 Z" fill="#1e1e1f" stroke="none" /><path d="M 19.79,19.79 L 19.71,19.79 L 18.70,20.30 L 18.70,21.66 L 17.61,22.20 L 17.61,23.56 L 17.69,23.56 L 18.70,23.06 L 18.70,21.70 L 19.79,21.15 Z" fill="#1e1e1f" stroke="none" /><path d="M 20.88,18.12 L 20.88,19.48 L 20.92,19.52 L 20.88,22.16 L 20.92,22.16 L 20.92,20.84 L 21.97,20.30 L 22.05,20.34 L 22.05,21.58 L 22.12,21.58 L 23.13,21.07 L 23.13,19.71 L 22.09,20.22 L 22.05,20.18 L 22.05,18.90 L 20.96,19.44 L 20.92,19.40 L 20.92,18.12 Z" fill="#1e1e1f" stroke="none" /><path d="M 8.75,16.06 L 7.66,16.60 L 7.66,17.96 L 8.75,17.42 Z" fill="#1e1e1f" stroke="none" /><path d="M 22.05,14.85 L 21.97,14.85 L 20.92,15.40 L 20.92,16.72 L 21.00,16.72 L 22.05,16.17 Z" fill="#1e1e1f" stroke="none" /><path d="M 9.88,12.83 L 8.75,13.38 L 8.75,14.70 L 9.88,14.15 Z" fill="#1e1e1f" stroke="none" /><path d="M 15.40,12.52 L 15.32,12.52 L 14.27,13.06 L 14.27,14.39 L 14.35,14.39 L 15.40,13.84 Z" fill="#1e1e1f" stroke="none" /><path d="M 10.96,12.29 L 10.96,13.57 L 11.00,13.57 L 11.00,12.29 Z" fill="#1e1e1f" stroke="none" /><path d="M 15.40,9.80 L 15.32,9.80 L 13.18,10.89 L 13.18,12.21 L 13.10,12.29 L 12.09,12.79 L 12.09,14.15 L 13.18,13.61 L 13.18,12.29 L 13.26,12.21 L 15.40,11.16 Z" fill="#1e1e1f" stroke="none" /><path d="M 19.79,8.94 L 17.65,9.99 L 17.61,10.03 L 17.61,11.35 L 17.54,11.43 L 16.49,11.94 L 16.49,14.66 L 17.61,14.11 L 17.61,12.75 L 18.70,12.21 L 18.70,10.89 L 18.78,10.81 L 19.79,10.30 Z" fill="#1e1e1f" stroke="none" /><path d="M 17.61,7.31 L 16.49,7.85 L 16.49,9.22 L 16.56,9.22 L 17.61,8.67 Z" fill="#1e1e1f" stroke="none" /><path d="M 22.05,6.77 L 21.97,6.77 L 20.92,7.31 L 20.92,8.59 L 20.88,8.63 L 20.88,9.99 L 20.92,9.99 L 20.92,8.63 L 22.05,8.05 Z" fill="#1e1e1f" stroke="none" /><path d="M 13.14,20.37 L 12.09,20.92 L 12.09,24.96 L 12.17,24.96 L 13.14,24.46 L 13.18,24.50 L 13.18,25.78 L 13.26,25.78 L 14.27,25.27 L 14.27,22.55 L 14.19,22.55 L 13.22,23.06 L 13.18,23.02 L 13.18,20.37 Z" fill="#232323" stroke="none" /><path d="M 10.96,19.01 L 8.75,20.10 L 8.75,21.46 L 6.61,22.55 L 6.61,26.60 L 6.69,26.60 L 7.66,26.09 L 7.66,23.41 L 7.74,23.33 L 8.75,22.82 L 8.75,21.50 L 9.80,20.96 L 9.88,21.00 L 9.88,23.60 L 9.95,23.60 L 10.93,23.10 L 10.96,23.13 L 10.96,24.42 L 11.00,24.42 L 11.00,20.37 L 10.96,20.34 Z" fill="#232323" stroke="none" /><path d="M 15.40,17.92 L 15.32,17.92 L 14.27,18.47 L 14.27,19.83 L 15.40,19.29 Z" fill="#232323" stroke="none" /><path d="M 7.66,16.60 L 6.61,17.11 L 6.61,18.47 L 6.69,18.47 L 7.66,17.96 Z" fill="#232323" stroke="none" /><path d="M 24.18,13.76 L 22.05,14.81 L 22.05,16.14 L 21.97,16.21 L 20.96,16.72 L 20.92,16.68 L 20.92,15.40 L 20.88,15.40 L 20.88,16.49 L 20.80,16.56 L 17.69,18.12 L 17.61,18.08 L 17.61,16.80 L 16.49,17.34 L 16.49,18.70 L 16.56,18.70 L 17.54,18.20 L 17.61,18.24 L 17.61,22.20 L 16.49,22.78 L 16.49,25.47 L 16.56,25.47 L 17.61,24.92 L 17.61,22.24 L 18.70,21.70 L 18.70,20.34 L 19.75,19.79 L 19.79,19.83 L 19.79,23.83 L 20.88,23.29 L 20.88,20.88 L 20.92,20.84 L 20.88,18.12 L 20.92,18.08 L 21.00,18.08 L 21.97,17.57 L 22.05,17.61 L 22.05,20.26 L 24.18,19.21 Z" fill="#232323" stroke="none" /><path d="M 10.96,12.29 L 9.88,12.83 L 9.88,14.11 L 8.75,14.70 L 8.75,16.06 L 9.88,15.51 L 9.88,14.15 L 10.96,13.61 Z" fill="#232323" stroke="none" /><path d="M 20.88,5.68 L 17.65,7.27 L 17.61,7.31 L 17.61,8.63 L 17.54,8.71 L 16.52,9.22 L 16.49,9.18 L 16.49,7.89 L 16.41,7.89 L 12.13,10.03 L 12.09,10.07 L 12.09,12.79 L 13.18,12.25 L 13.18,10.93 L 13.26,10.85 L 15.36,9.80 L 15.40,9.84 L 15.40,12.48 L 15.48,12.48 L 17.57,11.43 L 17.61,11.39 L 17.61,10.07 L 17.69,9.99 L 19.71,8.98 L 19.79,9.02 L 19.79,10.30 L 20.84,9.80 L 20.88,9.76 Z" fill="#232323" stroke="none" /><path d="M 3.30,27.68 L 3.30,29.04 L 3.34,29.08 L 6.53,30.68 L 6.61,30.68 L 6.61,27.96 L 5.60,27.45 L 5.52,27.45 L 5.52,28.73 L 5.48,28.77 Z" fill="#242323" stroke="none" /><path d="M 11.00,27.14 L 11.00,28.50 L 12.09,29.04 L 12.09,27.68 Z" fill="#242323" stroke="none" /><path d="M 1.09,22.51 L 1.09,26.52 L 1.05,26.56 L 0.08,26.05 L 0.00,26.05 L 0.00,27.41 L 2.10,28.46 L 2.18,28.46 L 2.18,23.06 Z" fill="#242323" stroke="none" /><path d="M 1.09,19.83 L 1.09,21.15 L 2.18,21.70 L 2.18,20.34 L 1.17,19.83 Z" fill="#242323" stroke="none" /><path d="M 11.00,16.33 L 11.00,17.69 L 12.01,18.20 L 12.09,18.20 L 12.09,16.84 L 11.08,16.33 Z" fill="#242323" stroke="none" /><path d="M 0.00,13.84 L 0.00,16.56 L 5.44,19.29 L 5.52,19.29 L 5.52,18.04 L 5.56,18.00 L 6.61,18.51 L 6.61,17.15 L 6.57,17.11 L 5.52,16.60 L 5.52,17.89 L 5.44,17.92 L 1.17,15.79 L 1.09,15.71 L 1.09,14.39 Z" fill="#242323" stroke="none" /><path d="M 18.35,3.07 L 18.39,3.15 L 20.84,4.35 L 20.88,4.39 L 20.88,5.13 L 21.00,5.13 L 21.97,5.64 L 22.12,5.64 L 23.06,5.17 L 23.06,5.09 L 18.70,2.92 Z" fill="#242424" stroke="none" /><path d="M 17.61,2.72 L 16.49,2.18 L 12.09,4.39 L 11.04,3.85 L 10.93,3.85 L 9.91,4.35 L 9.91,4.43 L 13.22,6.07 L 14.31,5.52 L 14.31,5.48 L 13.34,5.02 L 13.26,4.94 L 13.30,4.90 L 17.61,2.76 Z" fill="#242424" stroke="none" /><path d="M 5.56,26.09 L 5.52,26.09 L 5.52,27.37 L 5.48,27.41 L 4.39,26.87 L 4.39,28.23 L 5.44,28.77 L 5.52,28.77 L 5.52,27.49 L 5.56,27.45 L 6.53,27.96 L 6.61,27.96 L 6.61,26.63 Z" fill="#2a2a2a" stroke="none" /><path d="M 0.00,24.69 L 0.00,26.05 L 1.01,26.56 L 1.09,26.56 L 1.09,25.20 L 0.08,24.69 Z" fill="#2a2a2a" stroke="none" /><path d="M 0.00,19.29 L 0.00,20.61 L 1.01,21.11 L 1.09,21.19 L 1.09,22.51 L 2.18,23.06 L 2.18,21.70 L 1.17,21.19 L 1.09,21.11 L 1.09,19.79 L 0.08,19.29 Z" fill="#2a2a2a" stroke="none" /><path d="M 5.56,15.24 L 5.52,15.24 L 5.52,16.52 L 5.48,16.56 L 4.47,16.06 L 4.39,16.06 L 4.39,17.42 L 5.48,17.96 L 5.52,17.96 L 5.52,16.68 L 5.56,16.64 L 6.61,17.15 L 6.61,15.79 Z" fill="#2a2a2a" stroke="none" /><path d="M 11.00,13.61 L 11.00,16.33 L 12.01,16.84 L 12.09,16.84 L 12.09,14.15 Z" fill="#2a2a2a" stroke="none" /><path d="M 0.00,11.20 L 0.00,13.84 L 1.01,14.35 L 1.09,14.43 L 1.09,15.75 L 3.23,16.84 L 3.30,16.84 L 3.30,14.11 L 2.26,13.61 L 2.18,13.53 L 2.18,12.25 L 0.08,11.20 Z" fill="#2a2a2a" stroke="none" /><path d="M 4.39,8.94 L 4.43,9.02 L 6.57,10.07 L 6.53,9.99 Z" fill="#2a2a2a" stroke="none" /><path d="M 8.75,20.14 L 8.67,20.14 L 6.61,21.19 L 6.61,22.55 L 8.75,21.50 Z" fill="#2b2b2b" stroke="none" /><path d="M 10.96,19.01 L 10.96,20.37 L 11.00,20.37 L 11.00,19.01 Z" fill="#2b2b2b" stroke="none" /><path d="M 14.27,18.47 L 12.09,19.56 L 12.09,20.92 L 14.27,19.83 Z" fill="#2b2b2b" stroke="none" /><path d="M 7.66,13.96 L 7.58,13.96 L 6.61,14.46 L 6.61,17.11 L 6.69,17.11 L 7.66,16.60 Z" fill="#2b2b2b" stroke="none" /><path d="M 24.18,12.40 L 20.88,14.04 L 20.88,15.13 L 20.80,15.20 L 17.61,16.80 L 17.61,18.12 L 17.54,18.20 L 16.49,18.70 L 16.49,22.78 L 17.61,22.24 L 17.61,18.20 L 17.69,18.12 L 20.84,16.56 L 20.88,16.52 L 20.88,15.44 L 20.92,15.40 L 24.15,13.80 L 24.18,13.76 Z" fill="#2b2b2b" stroke="none" /><path d="M 20.88,4.39 L 12.13,8.75 L 12.09,8.79 L 12.09,10.07 L 20.84,5.72 L 20.88,5.68 Z" fill="#2b2b2b" stroke="none" /><path d="M 13.22,6.03 L 13.26,6.10 L 15.36,7.15 L 16.49,6.61 L 16.49,6.57 L 14.39,5.52 L 14.23,5.52 Z" fill="#2c2c2c" stroke="none" /><path d="M 22.05,5.64 L 22.05,5.68 L 23.06,6.18 L 23.21,6.18 L 24.15,5.72 L 24.15,5.64 L 23.13,5.13 L 23.06,5.13 Z" fill="#2c2c2c" stroke="none" /><path d="M 17.26,2.53 L 17.30,2.61 L 18.31,3.11 L 18.66,2.96 L 18.62,2.88 L 17.61,2.37 Z" fill="#2c2c2c" stroke="none" /><path d="M 6.57,2.72 L 6.57,2.76 L 7.58,3.27 L 7.54,3.34 L 6.57,3.81 L 6.57,3.85 L 7.62,4.39 L 7.70,4.39 L 8.75,3.85 L 9.84,4.39 L 9.91,4.39 L 10.96,3.85 L 10.96,3.81 L 7.70,2.18 Z" fill="#2c2c2c" stroke="none" /><path d="M 5.56,24.73 L 5.52,24.73 L 5.52,26.01 L 5.48,26.05 L 4.47,25.55 L 4.39,25.55 L 4.39,26.87 L 5.44,27.41 L 5.52,27.41 L 5.52,26.17 L 5.56,26.13 L 6.61,26.63 L 6.61,25.27 Z" fill="#303133" stroke="none" /><path d="M 0.00,20.61 L 0.00,21.97 L 1.09,22.51 L 1.09,21.15 Z" fill="#303133" stroke="none" /><path d="M 4.43,13.38 L 4.39,13.38 L 4.39,14.62 L 4.35,14.66 L 3.38,14.15 L 3.30,14.15 L 3.30,16.87 L 4.32,17.38 L 4.39,17.38 L 4.39,16.10 L 4.43,16.06 L 5.52,16.60 L 5.52,15.32 L 5.56,15.28 L 6.61,15.79 L 6.61,14.46 Z" fill="#303133" stroke="none" /><path d="M 1.09,13.03 L 1.09,14.39 L 2.18,14.93 L 2.18,13.57 Z" fill="#303133" stroke="none" /><path d="M 8.79,11.16 L 8.79,11.20 L 11.00,12.29 L 10.96,12.21 L 8.87,11.16 Z" fill="#303133" stroke="none" /><path d="M 7.70,7.89 L 7.70,9.25 L 8.71,9.76 L 8.79,9.76 L 8.79,8.40 L 7.78,7.89 Z" fill="#303133" stroke="none" /><path d="M 3.30,8.40 L 3.30,9.53 L 4.39,8.98 L 4.47,8.98 L 6.57,10.03 L 6.57,8.67 L 6.53,8.63 L 4.43,7.58 L 4.39,7.58 L 4.39,8.87 L 4.35,8.90 Z" fill="#303133" stroke="none" /><path d="M 20.88,5.13 L 20.88,6.22 L 20.96,6.22 L 22.01,6.77 L 23.13,6.22 L 23.13,6.18 L 20.96,5.09 Z" fill="#373636" stroke="none" /><path d="M 14.35,4.35 L 14.35,4.43 L 15.36,4.94 L 15.48,4.94 L 16.49,4.43 L 16.49,4.35 L 15.48,3.85 L 15.36,3.85 Z" fill="#373636" stroke="none" /><path d="M 7.70,4.35 L 7.70,4.43 L 12.05,6.61 L 11.04,7.12 L 11.04,7.19 L 12.05,7.70 L 11.04,8.20 L 11.04,8.28 L 12.05,8.79 L 12.13,8.79 L 13.14,8.28 L 13.14,8.20 L 12.13,7.70 L 13.18,7.15 L 14.23,7.70 L 14.31,7.70 L 15.36,7.15 L 15.36,7.12 L 8.83,3.85 L 8.71,3.85 Z" fill="#373636" stroke="none" /><path d="M 16.52,3.27 L 16.52,3.30 L 17.61,3.85 L 18.70,3.30 L 18.70,3.27 L 17.69,2.76 L 17.54,2.76 Z" fill="#373636" stroke="none" /><path d="M 6.49,2.76 L 5.48,3.27 L 5.52,3.34 L 6.42,3.77 L 6.49,3.85 L 5.48,4.35 L 5.48,4.39 L 6.53,4.94 L 6.61,4.94 L 7.62,4.43 L 7.62,4.35 L 6.61,3.85 L 6.69,3.77 L 7.66,3.30 L 7.66,3.27 L 6.65,2.76 Z" fill="#373636" stroke="none" /><path d="M 0.00,21.97 L 0.00,24.69 L 1.01,25.20 L 1.09,25.20 L 1.09,22.51 Z" fill="#383838" stroke="none" /><path d="M 11.00,20.37 L 11.00,27.14 L 12.09,27.68 L 12.09,20.92 Z" fill="#383838" stroke="none" /><path d="M 3.30,19.56 L 3.30,20.92 L 4.32,21.42 L 4.39,21.50 L 4.39,25.47 L 4.35,25.51 L 3.38,25.00 L 3.30,25.00 L 3.30,27.68 L 4.39,28.23 L 4.39,25.58 L 4.43,25.55 L 5.52,26.09 L 5.52,24.81 L 5.56,24.77 L 6.61,25.27 L 6.61,22.55 L 4.47,21.50 L 4.39,21.42 L 4.39,20.10 Z" fill="#383838" stroke="none" /><path d="M 1.09,18.47 L 1.09,19.83 L 2.10,20.34 L 2.18,20.34 L 2.18,18.97 L 1.17,18.47 Z" fill="#383838" stroke="none" /><path d="M 2.18,12.29 L 2.18,13.57 L 4.32,14.66 L 4.39,14.66 L 4.39,13.38 L 2.26,12.29 Z" fill="#383838" stroke="none" /><path d="M 3.30,5.68 L 3.30,8.40 L 3.34,8.44 L 4.39,8.94 L 4.39,7.66 L 4.47,7.62 L 6.49,8.63 L 6.57,8.71 L 6.57,10.07 L 6.61,10.11 L 8.71,11.16 L 8.83,11.16 L 10.93,12.21 L 11.00,12.29 L 11.00,13.61 L 12.09,14.15 L 12.09,10.07 L 12.05,10.03 L 8.87,8.44 L 8.79,8.44 L 8.79,9.72 L 8.75,9.76 L 7.70,9.22 L 7.70,7.85 Z" fill="#383838" stroke="none" /><path d="M 7.74,10.65 L 7.74,10.69 L 8.63,11.12 L 8.71,11.20 L 7.70,11.70 L 7.70,11.78 L 9.80,12.83 L 9.91,12.83 L 10.96,12.29 L 10.96,12.25 L 9.95,11.74 L 9.88,11.74 L 8.87,11.24 L 8.79,11.16 Z" fill="#404040" stroke="none" /><path d="M 4.39,8.98 L 4.39,9.02 L 5.44,9.53 L 5.44,9.49 Z" fill="#404040" stroke="none" /><path d="M 12.13,7.66 L 12.13,7.74 L 13.14,8.24 L 13.22,8.24 L 14.23,7.74 L 14.23,7.66 L 13.22,7.15 L 13.14,7.15 Z" fill="#404040" stroke="none" /><path d="M 20.88,6.22 L 20.88,7.31 L 20.96,7.31 L 22.01,6.77 L 22.01,6.73 L 21.00,6.22 Z" fill="#404040" stroke="none" /><path d="M 7.70,6.57 L 7.70,6.61 L 8.79,7.15 L 9.88,6.61 L 10.93,7.12 L 10.96,7.15 L 10.93,7.19 L 9.95,7.66 L 9.95,7.74 L 10.96,8.24 L 11.04,8.24 L 12.05,7.74 L 12.05,7.66 L 11.04,7.15 L 12.05,6.65 L 12.05,6.57 L 9.95,5.52 L 9.80,5.52 Z" fill="#404040" stroke="none" /><path d="M 6.61,4.90 L 6.61,4.98 L 7.62,5.48 L 7.74,5.48 L 8.75,4.98 L 8.71,4.90 L 7.70,4.39 L 7.62,4.39 Z" fill="#404040" stroke="none" /><path d="M 16.45,3.30 L 15.44,3.81 L 15.48,3.89 L 16.49,4.39 L 15.48,4.90 L 15.44,4.98 L 16.45,5.48 L 16.56,5.48 L 17.57,4.98 L 17.57,4.90 L 16.56,4.39 L 17.57,3.89 L 17.61,3.81 L 16.60,3.30 Z" fill="#404040" stroke="none" /><path d="M 6.53,4.98 L 6.53,4.90 L 5.52,4.39 L 5.60,4.32 L 6.49,3.89 L 6.53,3.81 L 5.52,3.30 L 5.40,3.30 L 3.30,4.35 L 3.34,4.43 L 5.44,5.48 L 5.52,5.48 Z" fill="#404040" stroke="none" /><path d="M 4.43,20.10 L 4.39,20.10 L 4.39,21.39 L 4.35,21.42 L 3.30,20.92 L 3.30,25.00 L 4.32,25.51 L 4.39,25.51 L 4.39,21.54 L 4.47,21.50 L 6.53,22.55 L 6.61,22.55 L 6.61,21.19 Z" fill="#474747" stroke="none" /><path d="M 11.00,19.01 L 11.00,20.37 L 12.09,20.92 L 12.09,19.56 Z" fill="#474747" stroke="none" /><path d="M 0.00,17.92 L 0.00,19.29 L 1.01,19.79 L 1.09,19.79 L 1.09,18.43 L 0.08,17.92 Z" fill="#474747" stroke="none" /><path d="M 3.30,4.39 L 3.30,5.68 L 3.34,5.72 L 12.09,10.07 L 12.09,8.79 L 12.05,8.75 Z" fill="#474747" stroke="none" /><path d="M 6.57,12.29 L 6.57,12.33 L 8.67,13.38 L 8.83,13.38 L 9.84,12.87 L 9.80,12.79 L 7.70,11.74 L 7.62,11.74 Z" fill="#4a4b4e" stroke="none" /><path d="M 8.83,11.20 L 8.83,11.24 L 9.88,11.74 L 9.88,11.70 Z" fill="#4a4b4e" stroke="none" /><path d="M 3.27,11.74 L 3.27,11.78 L 4.28,12.29 L 4.43,12.29 L 5.44,11.78 L 5.40,11.70 L 4.39,11.20 L 4.32,11.20 Z" fill="#4a4b4e" stroke="none" /><path d="M 3.27,9.53 L 3.27,9.57 L 5.44,10.65 L 6.53,10.11 L 6.61,10.11 L 7.70,10.65 L 7.70,10.61 L 5.52,9.53 L 5.44,9.53 L 4.39,8.98 Z" fill="#4a4b4e" stroke="none" /><path d="M 8.83,7.12 L 8.87,7.19 L 9.88,7.70 L 9.95,7.70 L 10.96,7.19 L 10.96,7.12 L 9.95,6.61 L 9.84,6.61 Z" fill="#4a4b4e" stroke="none" /><path d="M 5.52,5.44 L 5.52,5.52 L 7.62,6.57 L 7.78,6.57 L 9.88,5.52 L 9.88,5.48 L 8.79,4.94 L 7.70,5.48 L 6.61,4.94 L 6.53,4.94 Z" fill="#4a4b4e" stroke="none" /><path d="M 16.56,4.35 L 16.56,4.43 L 17.57,4.94 L 17.65,4.94 L 18.70,4.39 L 18.70,4.35 L 17.69,3.85 L 17.57,3.85 Z" fill="#4a4b4e" stroke="none" /><path d="M 12.09,1.05 L 12.09,1.09 L 13.18,1.63 L 14.27,1.09 L 14.27,1.05 L 13.26,0.54 L 13.10,0.54 Z" fill="#4a4b4e" stroke="none" /><path d="M 1.09,10.61 L 1.09,10.69 L 3.19,11.74 L 3.30,11.74 L 4.35,11.20 L 5.37,11.70 L 5.40,11.74 L 5.33,11.82 L 4.35,12.29 L 4.35,12.33 L 7.62,13.96 L 8.75,13.41 L 8.75,13.38 L 6.69,12.36 L 6.61,12.29 L 8.71,11.24 L 8.75,11.16 L 6.65,10.11 L 6.49,10.11 L 5.52,10.61 L 5.40,10.61 L 3.34,9.57 L 3.19,9.57 Z" fill="#575757" stroke="none" /><path d="M 13.22,4.94 L 13.22,4.98 L 14.23,5.48 L 14.39,5.48 L 15.40,4.98 L 15.36,4.90 L 14.35,4.39 L 14.27,4.39 Z" fill="#575757" stroke="none" /><path d="M 20.88,4.35 L 18.78,3.30 L 18.66,3.30 L 17.65,3.81 L 17.69,3.89 L 18.59,4.32 L 18.66,4.39 L 16.56,5.44 L 16.52,5.52 L 17.54,6.03 L 17.65,6.03 L 20.84,4.43 Z" fill="#575757" stroke="none" /><path d="M 12.01,0.00 L 8.83,1.59 L 8.83,1.67 L 11.98,3.23 L 12.01,3.27 L 11.98,3.34 L 11.00,3.81 L 11.00,3.85 L 12.05,4.39 L 12.13,4.39 L 13.18,3.85 L 13.18,3.81 L 12.21,3.34 L 12.17,3.30 L 12.21,3.23 L 15.36,1.67 L 15.36,1.59 L 14.35,1.09 L 14.23,1.09 L 13.26,1.59 L 13.14,1.59 L 12.21,1.13 L 12.17,1.05 L 13.18,0.54 L 13.18,0.51 L 12.17,0.00 Z" fill="#575757" stroke="none" /><path d="M 0.00,11.16 L 0.00,11.20 L 6.53,14.46 L 6.65,14.46 L 7.62,13.96 L 7.62,13.92 L 1.09,10.65 L 1.01,10.65 Z" fill="#6d6d6d" stroke="none" /><path d="M 14.31,5.48 L 14.31,5.52 L 16.41,6.57 L 16.56,6.57 L 17.57,6.07 L 17.54,5.99 L 15.44,4.94 Z" fill="#6d6d6d" stroke="none" /><path d="M 7.70,2.18 L 7.70,2.22 L 10.96,3.85 L 12.05,3.30 L 12.13,3.30 L 13.22,3.85 L 16.49,2.22 L 16.45,2.14 L 15.44,1.63 L 15.36,1.63 L 12.13,3.27 L 12.05,3.27 L 8.83,1.63 L 8.75,1.63 Z" fill="#6d6d6d" stroke="none" /></svg>