<svg height="32" width="32" viewBox="0 0 32 32"><defs /><path d="M 21.60,19.63 L 21.53,19.63 L 20.71,20.04 L 20.71,27.77 L 19.79,28.25 L 19.79,29.33 L 23.41,27.51 L 23.41,26.43 L 21.63,27.32 L 21.60,27.29 Z" fill="#0e0e0e" stroke="none" /><path d="M 10.78,16.73 L 8.97,17.62 L 8.97,18.70 L 9.03,18.70 L 10.78,17.81 Z" fill="#0e0e0e" stroke="none" /><path d="M 15.30,14.47 L 12.60,15.81 L 12.60,16.89 L 12.66,16.89 L 15.27,15.59 L 15.30,15.55 Z" fill="#0e0e0e" stroke="none" /><path d="M 21.60,3.59 L 20.74,4.01 L 20.74,11.74 L 18.07,13.07 L 18.04,13.11 L 18.04,14.19 L 20.74,12.85 L 20.74,11.77 L 21.60,11.32 Z" fill="#0e0e0e" stroke="none" /><path d="M 19.79,28.25 L 14.41,30.92 L 14.41,32.00 L 14.47,32.00 L 19.75,29.36 L 19.79,29.33 Z" fill="#121212" stroke="none" /><path d="M 28.82,23.73 L 23.44,26.40 L 23.41,26.43 L 23.41,27.51 L 28.79,24.84 L 28.82,24.81 Z" fill="#121212" stroke="none" /><path d="M 8.97,17.65 L 8.91,17.65 L 7.22,18.51 L 7.22,19.59 L 8.97,18.74 Z" fill="#121212" stroke="none" /><path d="M 12.60,15.84 L 12.53,15.84 L 10.78,16.73 L 10.78,17.81 L 12.60,16.92 Z" fill="#121212" stroke="none" /><path d="M 18.04,13.11 L 17.15,13.55 L 17.11,13.52 L 17.11,12.47 L 17.05,12.47 L 16.22,12.88 L 16.22,14.00 L 15.30,14.47 L 15.30,15.55 L 18.00,14.22 L 18.04,14.19 Z" fill="#121212" stroke="none" /><path d="M 21.60,11.32 L 20.74,11.74 L 20.74,12.82 L 20.80,12.82 L 21.60,12.41 Z" fill="#121212" stroke="none" /><path d="M 20.74,9.54 L 19.85,9.99 L 19.85,11.07 L 18.93,11.55 L 18.93,12.66 L 19.85,12.21 L 19.85,11.10 L 20.74,10.66 Z" fill="#121212" stroke="none" /><path d="M 20.71,23.35 L 19.79,23.79 L 19.79,27.10 L 19.72,27.17 L 17.11,28.47 L 17.08,28.44 L 17.08,27.39 L 17.02,27.39 L 16.22,27.80 L 16.19,27.77 L 16.19,26.72 L 15.27,27.17 L 15.27,28.25 L 15.20,28.31 L 14.41,28.69 L 14.41,30.92 L 14.47,30.92 L 20.71,27.80 Z" fill="#161616" stroke="none" /><path d="M 28.82,22.62 L 24.37,24.84 L 24.33,24.81 L 24.33,23.76 L 24.27,23.76 L 23.44,24.17 L 23.41,24.21 L 23.41,25.29 L 23.35,25.35 L 21.60,26.21 L 21.60,27.32 L 21.66,27.32 L 28.79,23.76 L 28.82,23.73 Z" fill="#161616" stroke="none" /><path d="M 20.71,21.15 L 20.64,21.15 L 19.79,21.60 L 19.79,22.68 L 19.85,22.68 L 20.71,22.23 Z" fill="#161616" stroke="none" /><path d="M 19.85,8.87 L 18.93,9.32 L 18.93,11.51 L 18.86,11.58 L 17.15,12.44 L 17.11,12.41 L 17.11,11.36 L 17.08,11.36 L 16.22,11.80 L 16.22,12.88 L 16.19,12.91 L 12.63,14.70 L 12.60,14.66 L 12.60,13.61 L 11.74,14.03 L 11.71,14.00 L 11.71,12.95 L 11.67,12.95 L 10.78,13.39 L 10.78,14.50 L 10.75,14.54 L 9.03,15.40 L 8.97,15.36 L 8.97,14.31 L 8.11,14.73 L 8.08,14.76 L 8.08,15.87 L 8.94,15.46 L 8.97,15.49 L 8.97,16.51 L 7.22,17.40 L 7.22,18.51 L 16.22,14.03 L 16.22,12.91 L 17.08,12.47 L 17.11,12.50 L 17.11,13.55 L 17.18,13.55 L 18.89,12.69 L 18.93,12.66 L 18.93,11.58 L 18.99,11.51 L 19.82,11.10 L 19.85,11.13 L 19.85,12.18 L 19.91,12.18 L 20.74,11.77 L 20.74,10.66 L 20.68,10.66 L 19.88,11.07 L 19.85,11.04 Z" fill="#161616" stroke="none" /><path d="M 20.74,5.12 L 20.68,5.12 L 19.85,5.53 L 19.85,6.65 L 20.74,6.20 Z" fill="#161616" stroke="none" /><path d="M 5.41,17.62 L 5.41,18.70 L 5.44,18.70 L 5.50,18.77 L 5.57,18.77 L 5.69,18.86 L 5.76,18.86 L 5.82,18.93 L 5.88,18.93 L 6.01,19.02 L 6.08,19.02 L 6.14,19.09 L 6.20,19.09 L 6.30,19.18 L 6.30,26.82 L 6.23,26.85 L 5.41,26.43 L 5.41,27.51 L 9.03,29.33 L 9.03,28.25 L 7.22,27.32 L 7.22,18.51 L 5.47,17.62 Z" fill="#171717" stroke="none" /><path d="M 1.81,15.81 L 1.81,16.92 L 3.63,17.81 L 3.63,16.70 Z" fill="#171717" stroke="none" /><path d="M 19.79,26.02 L 18.00,26.91 L 17.97,26.88 L 17.97,25.83 L 17.94,25.83 L 16.19,26.72 L 16.19,27.80 L 16.25,27.80 L 17.05,27.39 L 17.08,27.42 L 17.08,28.47 L 17.15,28.47 L 19.75,27.17 L 19.79,27.13 Z" fill="#1a1a1a" stroke="none" /><path d="M 24.33,22.65 L 23.41,23.09 L 23.41,24.17 L 23.35,24.24 L 22.52,24.65 L 22.52,25.77 L 23.41,25.32 L 23.41,24.24 L 23.48,24.17 L 24.33,23.76 Z" fill="#1a1a1a" stroke="none" /><path d="M 27.04,22.39 L 26.15,22.84 L 26.15,23.95 L 27.04,23.51 Z" fill="#1a1a1a" stroke="none" /><path d="M 19.75,21.60 L 18.89,22.04 L 18.89,23.13 L 18.96,23.13 L 19.75,22.71 L 19.79,22.74 L 19.79,23.79 L 19.85,23.79 L 20.71,23.35 L 20.71,22.23 L 19.82,22.68 L 19.79,22.65 L 19.79,21.60 Z" fill="#1a1a1a" stroke="none" /><path d="M 28.82,21.50 L 27.93,21.95 L 27.93,23.06 L 28.82,22.62 Z" fill="#1a1a1a" stroke="none" /><path d="M 26.08,19.53 L 25.22,19.98 L 25.22,21.09 L 26.12,20.64 L 26.15,20.68 L 26.15,21.73 L 26.21,21.73 L 27.04,21.31 L 27.04,20.20 L 26.97,20.20 L 26.18,20.61 L 26.15,20.58 L 26.15,19.53 Z" fill="#1a1a1a" stroke="none" /><path d="M 8.97,13.20 L 8.08,13.65 L 8.08,14.76 L 8.97,14.31 Z" fill="#1a1a1a" stroke="none" /><path d="M 13.52,10.94 L 13.46,10.94 L 11.71,11.83 L 11.71,14.03 L 11.64,14.09 L 10.82,14.50 L 10.78,14.47 L 10.78,13.42 L 10.72,13.42 L 9.89,13.84 L 9.89,14.95 L 9.96,14.95 L 10.75,14.54 L 10.78,14.57 L 10.78,15.62 L 11.71,15.17 L 11.71,14.09 L 11.77,14.03 L 12.56,13.65 L 12.60,13.68 L 12.60,14.70 L 12.66,14.70 L 14.41,13.81 L 14.41,11.61 L 14.35,11.61 L 13.55,12.02 L 13.52,11.99 Z" fill="#1a1a1a" stroke="none" /><path d="M 20.74,4.04 L 20.68,4.04 L 19.85,4.45 L 19.85,5.53 L 18.93,6.01 L 18.93,8.21 L 18.04,8.65 L 18.04,9.77 L 18.00,9.80 L 16.22,10.69 L 16.22,11.77 L 16.16,11.83 L 15.30,12.25 L 15.30,13.36 L 16.22,12.91 L 16.22,11.83 L 16.29,11.77 L 17.08,11.39 L 17.11,11.42 L 17.11,12.44 L 17.18,12.44 L 18.93,11.55 L 18.93,10.47 L 18.86,10.47 L 18.07,10.88 L 18.04,10.85 L 18.04,9.80 L 18.93,9.35 L 18.93,8.24 L 18.96,8.21 L 19.79,7.79 L 19.85,7.83 L 19.85,9.99 L 20.74,9.54 L 20.74,6.20 L 19.91,6.62 L 19.85,6.58 L 19.85,5.57 L 20.74,5.12 Z" fill="#1a1a1a" stroke="none" /><path d="M 9.03,28.25 L 9.03,29.33 L 9.07,29.36 L 14.35,32.00 L 14.41,32.00 L 14.41,30.92 Z" fill="#1d1d1d" stroke="none" /><path d="M 0.00,23.73 L 0.00,24.81 L 0.03,24.84 L 5.41,27.51 L 5.41,26.43 L 5.38,26.40 Z" fill="#1d1d1d" stroke="none" /><path d="M 3.63,16.73 L 3.63,17.81 L 5.41,18.70 L 5.41,17.59 L 3.69,16.73 Z" fill="#1d1d1d" stroke="none" /><path d="M 0.00,14.92 L 0.00,16.00 L 1.75,16.89 L 1.81,16.89 L 1.81,15.81 L 0.06,14.92 Z" fill="#1d1d1d" stroke="none" /><path d="M 17.08,22.97 L 17.02,22.97 L 16.19,23.38 L 16.19,24.46 L 16.13,24.52 L 15.27,24.94 L 15.27,27.17 L 14.41,27.61 L 14.41,28.69 L 14.47,28.69 L 15.27,28.28 L 15.27,27.20 L 15.30,27.17 L 17.91,25.86 L 17.97,25.89 L 17.97,26.91 L 18.04,26.91 L 18.89,26.47 L 18.89,25.38 L 18.83,25.38 L 18.00,25.80 L 17.97,25.77 L 17.97,24.72 L 17.15,25.13 L 17.08,25.10 Z" fill="#1e1e1f" stroke="none" /><path d="M 19.79,22.71 L 19.72,22.71 L 18.89,23.13 L 18.89,24.24 L 18.96,24.24 L 19.79,23.83 Z" fill="#1e1e1f" stroke="none" /><path d="M 24.33,21.53 L 23.41,21.98 L 23.41,23.09 L 22.52,23.54 L 22.52,24.65 L 23.41,24.21 L 23.41,23.13 L 24.33,22.65 Z" fill="#1e1e1f" stroke="none" /><path d="M 26.15,20.64 L 26.08,20.64 L 25.22,21.09 L 25.22,22.20 L 26.12,21.76 L 26.15,21.79 L 26.15,22.81 L 26.08,22.87 L 25.22,23.28 L 25.22,24.40 L 25.29,24.40 L 26.15,23.95 L 26.15,22.87 L 26.21,22.81 L 26.97,22.43 L 27.04,22.46 L 27.04,23.51 L 27.93,23.06 L 27.93,21.95 L 27.07,22.36 L 27.04,22.33 L 27.04,21.31 L 26.97,21.31 L 26.18,21.73 L 26.15,21.69 Z" fill="#1e1e1f" stroke="none" /><path d="M 27.04,17.97 L 26.15,18.42 L 26.15,19.50 L 26.21,19.50 L 27.04,19.09 Z" fill="#1e1e1f" stroke="none" /><path d="M 8.97,15.43 L 8.08,15.87 L 8.08,16.95 L 8.14,16.95 L 8.97,16.54 Z" fill="#1e1e1f" stroke="none" /><path d="M 9.89,12.76 L 9.83,12.76 L 8.97,13.20 L 8.97,14.31 L 9.89,13.87 Z" fill="#1e1e1f" stroke="none" /><path d="M 13.52,12.06 L 13.46,12.06 L 12.60,12.50 L 12.60,13.61 L 13.52,13.17 Z" fill="#1e1e1f" stroke="none" /><path d="M 13.52,9.83 L 13.46,9.83 L 11.71,10.72 L 11.71,11.80 L 11.64,11.86 L 10.78,12.28 L 10.78,13.39 L 10.85,13.39 L 11.71,12.95 L 11.71,11.86 L 11.77,11.80 L 13.52,10.94 Z" fill="#1e1e1f" stroke="none" /><path d="M 17.11,9.13 L 15.30,10.02 L 15.30,11.13 L 14.41,11.58 L 14.41,13.81 L 15.30,13.36 L 15.30,12.28 L 16.22,11.80 L 16.22,10.72 L 16.29,10.66 L 17.11,10.24 Z" fill="#1e1e1f" stroke="none" /><path d="M 15.30,7.83 L 14.41,8.27 L 14.41,9.35 L 14.47,9.35 L 15.30,8.94 Z" fill="#1e1e1f" stroke="none" /><path d="M 18.93,7.13 L 18.86,7.13 L 18.04,7.54 L 18.04,8.65 L 18.10,8.65 L 18.89,8.24 L 18.93,8.27 L 18.93,9.32 L 18.04,9.77 L 18.04,10.88 L 18.10,10.88 L 18.93,10.47 L 18.93,9.35 L 19.85,8.87 L 19.85,7.76 L 18.96,8.21 L 18.93,8.17 Z" fill="#1e1e1f" stroke="none" /><path d="M 18.89,22.04 L 18.00,22.49 L 17.97,22.46 L 17.97,21.44 L 17.91,21.44 L 16.19,22.30 L 16.19,23.38 L 16.16,23.41 L 14.41,24.27 L 14.41,27.61 L 15.27,27.20 L 15.27,24.97 L 16.19,24.49 L 16.19,23.41 L 17.05,22.97 L 17.08,23.00 L 17.08,25.16 L 17.94,24.75 L 17.97,24.78 L 17.97,25.83 L 18.86,25.38 L 18.89,25.42 L 18.89,26.47 L 19.79,26.02 L 19.79,23.83 L 19.72,23.83 L 18.93,24.24 L 18.89,24.21 Z" fill="#232323" stroke="none" /><path d="M 20.71,20.07 L 20.64,20.07 L 19.79,20.52 L 19.79,21.60 L 20.71,21.15 Z" fill="#232323" stroke="none" /><path d="M 28.82,17.08 L 27.07,17.94 L 27.04,17.97 L 27.04,19.05 L 26.18,19.50 L 26.15,19.47 L 26.15,18.42 L 26.12,18.42 L 22.58,20.20 L 22.52,20.17 L 22.52,19.15 L 21.60,19.59 L 21.60,20.68 L 21.66,20.68 L 22.46,20.26 L 22.52,20.29 L 22.52,23.54 L 21.60,24.02 L 21.60,26.21 L 21.66,26.21 L 22.52,25.77 L 22.52,23.57 L 23.41,23.13 L 23.41,22.01 L 24.27,21.57 L 24.33,21.60 L 24.33,24.84 L 24.40,24.84 L 25.22,24.43 L 25.22,23.32 L 26.15,22.84 L 26.15,21.76 L 26.08,21.76 L 25.29,22.17 L 25.22,22.14 L 25.22,20.01 L 25.29,19.94 L 26.12,19.53 L 26.15,19.56 L 26.15,20.61 L 26.21,20.61 L 27.01,20.20 L 27.04,20.23 L 27.04,22.39 L 28.82,21.50 Z" fill="#232323" stroke="none" /><path d="M 8.08,15.87 L 7.22,16.29 L 7.22,17.40 L 8.08,16.99 Z" fill="#232323" stroke="none" /><path d="M 19.85,4.49 L 19.79,4.49 L 18.04,5.38 L 18.04,6.43 L 17.97,6.49 L 15.33,7.79 L 15.30,7.83 L 15.30,8.91 L 14.44,9.35 L 14.41,9.32 L 14.41,8.27 L 14.38,8.27 L 8.11,11.42 L 8.08,11.39 L 8.08,10.37 L 8.02,10.37 L 7.22,10.78 L 7.22,11.86 L 8.05,11.45 L 8.08,11.48 L 8.08,13.65 L 9.86,12.76 L 9.89,12.79 L 9.89,13.84 L 8.97,14.31 L 8.97,15.43 L 9.89,14.98 L 9.89,13.87 L 10.78,13.42 L 10.78,12.31 L 11.71,11.83 L 11.71,10.75 L 11.77,10.69 L 13.49,9.83 L 13.52,9.86 L 13.52,12.02 L 13.58,12.02 L 15.30,11.17 L 15.30,10.05 L 15.33,10.02 L 17.05,9.16 L 17.11,9.19 L 17.11,10.24 L 18.04,9.80 L 18.04,7.57 L 18.93,7.13 L 18.93,6.04 L 18.99,5.98 L 19.85,5.57 Z" fill="#232323" stroke="none" /><path d="M 7.22,26.24 L 7.22,27.36 L 14.35,30.92 L 14.41,30.92 L 14.41,29.81 L 9.99,27.61 L 9.92,27.55 L 9.92,26.47 L 9.89,26.43 L 9.03,26.02 L 9.03,27.07 L 8.97,27.10 L 7.28,26.24 Z" fill="#242323" stroke="none" /><path d="M 0.00,21.50 L 0.00,23.73 L 0.03,23.76 L 6.30,26.88 L 6.30,22.43 L 5.47,22.01 L 5.41,22.01 L 5.41,25.26 L 5.34,25.29 L 2.74,23.98 L 2.67,23.92 L 2.67,22.84 L 1.84,22.43 L 1.78,22.36 L 1.78,21.28 L 0.95,20.87 L 0.89,20.87 L 0.89,21.88 L 0.86,21.92 Z" fill="#242323" stroke="none" /><path d="M 5.41,19.79 L 5.41,20.90 L 6.23,21.31 L 6.30,21.31 L 6.30,20.23 Z" fill="#242323" stroke="none" /><path d="M 0.89,12.02 L 0.89,13.14 L 1.81,13.61 L 1.81,14.66 L 1.78,14.70 L 0.00,13.81 L 0.00,14.92 L 7.22,18.51 L 7.22,17.40 L 5.47,16.54 L 5.41,16.48 L 5.41,15.40 L 4.58,14.98 L 4.52,14.92 L 4.52,13.84 L 3.63,13.39 L 3.63,14.44 L 3.56,14.47 L 1.84,13.61 L 1.81,13.58 L 1.81,12.47 Z" fill="#242323" stroke="none" /><path d="M 17.15,18.26 L 17.15,18.29 L 18.86,19.15 L 18.99,19.15 L 19.82,18.74 L 19.79,18.67 L 18.07,17.81 L 18.00,17.81 Z" fill="#242424" stroke="none" /><path d="M 23.41,13.30 L 21.66,12.41 L 21.57,12.41 L 13.55,16.41 L 13.52,16.48 L 15.33,17.37 L 16.22,16.92 L 16.22,16.89 L 15.43,16.51 L 15.36,16.45 L 15.40,16.41 L 21.63,13.30 L 22.52,13.74 L 22.58,13.74 L 23.41,13.33 Z" fill="#242424" stroke="none" /><path d="M 12.63,7.19 L 12.63,7.22 L 13.46,7.63 L 13.55,7.63 L 14.38,7.22 L 14.38,7.16 L 13.55,6.74 L 13.49,6.74 Z" fill="#242424" stroke="none" /><path d="M 7.22,4.45 L 7.22,4.52 L 9.83,5.82 L 9.96,5.82 L 10.78,5.41 L 10.75,5.34 L 8.14,4.04 L 8.05,4.04 Z" fill="#242424" stroke="none" /><path d="M 7.16,4.45 L 6.33,4.04 L 6.27,4.04 L 0.03,7.16 L 0.03,7.19 L 0.92,7.63 L 7.16,4.52 Z" fill="#242424" stroke="none" /><path d="M 18.99,3.09 L 18.99,3.15 L 20.71,4.01 L 20.80,4.01 L 21.60,3.59 L 21.60,3.56 L 19.88,2.70 L 19.75,2.70 Z" fill="#242424" stroke="none" /><path d="M 13.55,28.28 L 13.55,29.39 L 14.35,29.81 L 14.41,29.81 L 14.41,28.69 Z" fill="#2a2a2a" stroke="none" /><path d="M 11.74,27.39 L 11.74,28.50 L 12.56,28.91 L 12.63,28.91 L 12.63,27.80 L 11.80,27.39 Z" fill="#2a2a2a" stroke="none" /><path d="M 9.10,24.94 L 9.03,24.94 L 9.03,25.96 L 9.00,25.99 L 8.17,25.57 L 8.11,25.57 L 8.11,26.69 L 9.00,27.13 L 9.03,27.13 L 9.03,26.08 L 9.07,26.05 L 9.92,26.47 L 9.92,25.35 Z" fill="#2a2a2a" stroke="none" /><path d="M 10.85,23.60 L 10.85,24.72 L 11.67,25.13 L 11.74,25.19 L 11.74,26.27 L 12.63,26.72 L 12.63,25.61 L 11.80,25.19 L 11.74,25.13 L 11.74,24.05 Z" fill="#2a2a2a" stroke="none" /><path d="M 1.78,21.31 L 1.78,22.39 L 2.61,22.81 L 2.67,22.87 L 2.67,23.95 L 5.41,25.32 L 5.41,24.21 L 3.59,23.28 L 3.59,22.20 L 3.56,22.17 L 1.84,21.31 Z" fill="#2a2a2a" stroke="none" /><path d="M 4.49,19.34 L 4.49,20.42 L 5.41,20.90 L 5.41,22.01 L 6.23,22.43 L 6.30,22.43 L 6.30,21.31 L 5.41,20.87 L 5.41,19.79 L 4.55,19.34 Z" fill="#2a2a2a" stroke="none" /><path d="M 2.70,12.95 L 2.70,14.06 L 3.56,14.47 L 3.63,14.54 L 3.63,15.62 L 3.66,15.65 L 4.52,16.06 L 4.52,15.01 L 4.58,14.98 L 5.34,15.36 L 5.41,15.43 L 5.41,16.51 L 5.44,16.54 L 7.16,17.40 L 7.22,17.40 L 7.22,15.17 L 6.33,14.73 L 6.33,13.65 L 6.30,13.61 L 4.58,12.76 L 4.52,12.76 L 4.52,14.89 L 4.45,14.92 L 3.69,14.54 L 3.63,14.47 L 3.63,13.39 L 2.77,12.95 Z" fill="#2a2a2a" stroke="none" /><path d="M 0.89,10.94 L 0.89,12.02 L 1.75,12.47 L 1.81,12.47 L 1.81,11.39 L 0.95,10.94 Z" fill="#2a2a2a" stroke="none" /><path d="M 16.19,22.33 L 16.13,22.33 L 14.41,23.19 L 14.41,24.27 L 14.47,24.27 L 16.19,23.41 Z" fill="#2b2b2b" stroke="none" /><path d="M 19.79,20.52 L 17.97,21.41 L 17.97,22.49 L 18.04,22.49 L 19.79,21.60 Z" fill="#2b2b2b" stroke="none" /><path d="M 28.82,16.00 L 22.52,19.15 L 22.52,20.20 L 22.46,20.26 L 21.60,20.68 L 21.60,24.02 L 22.52,23.57 L 22.52,20.26 L 22.58,20.20 L 28.79,17.11 L 28.82,17.08 Z" fill="#2b2b2b" stroke="none" /><path d="M 18.04,5.38 L 8.08,10.34 L 8.08,11.42 L 7.22,11.86 L 7.22,16.29 L 7.28,16.29 L 8.08,15.87 L 8.08,11.45 L 18.00,6.49 L 18.04,6.46 Z" fill="#2b2b2b" stroke="none" /><path d="M 18.93,19.15 L 18.93,19.18 L 20.64,20.04 L 20.77,20.04 L 21.60,19.63 L 21.57,19.56 L 19.85,18.70 Z" fill="#2c2c2c" stroke="none" /><path d="M 15.33,17.34 L 15.36,17.40 L 17.08,18.26 L 17.18,18.26 L 18.00,17.84 L 18.00,17.78 L 16.29,16.92 L 16.16,16.92 Z" fill="#2c2c2c" stroke="none" /><path d="M 22.58,13.71 L 22.58,13.77 L 27.93,16.45 L 28.79,16.03 L 28.79,15.97 L 23.44,13.30 Z" fill="#2c2c2c" stroke="none" /><path d="M 9.89,5.82 L 9.89,5.85 L 10.69,6.23 L 10.75,6.30 L 9.92,6.71 L 9.92,6.78 L 10.75,7.19 L 10.85,7.19 L 11.71,6.74 L 12.56,7.19 L 12.66,7.19 L 13.49,6.78 L 13.49,6.71 L 10.82,5.38 Z" fill="#2c2c2c" stroke="none" /><path d="M 5.41,5.38 L 5.41,5.41 L 6.23,5.82 L 6.36,5.82 L 7.16,5.41 L 7.22,5.41 L 8.08,5.85 L 9.00,5.41 L 9.00,5.38 L 8.11,4.93 L 7.22,5.38 L 7.16,5.38 L 6.27,4.93 Z" fill="#2c2c2c" stroke="none" /><path d="M 6.33,4.01 L 6.33,4.07 L 7.16,4.49 L 7.22,4.49 L 8.08,4.04 L 8.08,4.01 L 7.25,3.59 L 7.16,3.59 Z" fill="#2c2c2c" stroke="none" /><path d="M 13.58,0.38 L 13.58,0.45 L 18.93,3.12 L 18.99,3.12 L 19.82,2.70 L 19.82,2.67 L 14.47,0.00 L 14.35,0.00 Z" fill="#2c2c2c" stroke="none" /><path d="M 10.85,24.72 L 10.85,25.83 L 11.67,26.24 L 11.74,26.31 L 11.74,27.32 L 11.71,27.36 L 10.91,26.94 L 10.85,26.94 L 10.85,28.06 L 11.67,28.47 L 11.74,28.47 L 11.74,27.42 L 11.77,27.39 L 12.63,27.83 L 12.63,28.95 L 13.55,29.39 L 13.55,28.28 L 12.63,27.80 L 12.63,26.72 L 11.80,26.31 L 11.74,26.24 L 11.74,25.16 Z" fill="#303133" stroke="none" /><path d="M 9.10,23.83 L 9.03,23.83 L 9.03,24.87 L 9.00,24.91 L 8.11,24.46 L 8.11,25.57 L 9.00,26.02 L 9.03,26.02 L 9.03,24.97 L 9.07,24.94 L 9.86,25.35 L 9.92,25.35 L 9.92,24.24 Z" fill="#303133" stroke="none" /><path d="M 11.74,22.97 L 11.74,24.05 L 12.63,24.49 L 12.63,23.38 L 11.80,22.97 Z" fill="#303133" stroke="none" /><path d="M 4.49,20.42 L 4.49,21.53 L 5.34,21.98 L 5.41,21.98 L 5.41,20.87 Z" fill="#303133" stroke="none" /><path d="M 1.78,17.97 L 1.78,19.02 L 1.75,19.05 L 0.95,18.64 L 0.89,18.64 L 0.89,20.80 L 0.86,20.83 L 0.06,20.42 L 0.00,20.42 L 0.00,21.50 L 0.89,21.95 L 0.89,20.90 L 0.92,20.87 L 3.53,22.17 L 3.59,22.23 L 3.59,23.32 L 4.42,23.73 L 4.49,23.73 L 4.49,22.65 L 3.66,22.23 L 3.59,22.17 L 3.59,21.09 L 2.67,20.61 L 2.67,18.42 Z" fill="#303133" stroke="none" /><path d="M 5.41,14.28 L 5.41,15.40 L 6.27,15.84 L 6.33,15.84 L 6.33,14.73 Z" fill="#303133" stroke="none" /><path d="M 0.89,13.14 L 0.89,14.25 L 1.75,14.70 L 1.81,14.70 L 1.81,13.58 Z" fill="#303133" stroke="none" /><path d="M 3.63,12.31 L 3.63,13.39 L 4.49,13.84 L 4.52,13.84 L 4.52,12.79 L 4.55,12.76 L 6.33,13.65 L 6.33,12.53 L 4.58,11.64 L 4.52,11.64 L 4.52,12.69 L 4.49,12.72 L 3.69,12.31 Z" fill="#303133" stroke="none" /><path d="M 1.81,11.39 L 1.81,12.50 L 2.64,12.91 L 2.70,12.91 L 2.70,11.83 Z" fill="#303133" stroke="none" /><path d="M 12.60,16.89 L 12.60,16.92 L 14.38,17.81 L 13.52,18.26 L 13.52,18.29 L 14.35,18.70 L 14.31,18.77 L 13.52,19.15 L 13.55,19.21 L 14.38,19.63 L 14.44,19.63 L 15.33,19.18 L 17.08,20.07 L 16.22,20.52 L 16.22,20.55 L 17.05,20.96 L 17.18,20.96 L 18.00,20.55 L 17.97,20.49 L 17.15,20.07 L 18.00,19.63 L 19.79,20.52 L 20.71,20.07 L 20.71,20.04 L 13.52,16.45 Z" fill="#373636" stroke="none" /><path d="M 16.25,15.97 L 16.25,16.03 L 17.08,16.45 L 17.18,16.45 L 18.00,16.03 L 18.00,15.97 L 17.18,15.55 L 17.08,15.55 Z" fill="#373636" stroke="none" /><path d="M 18.04,15.08 L 18.04,15.11 L 18.96,15.55 L 21.60,14.22 L 21.69,14.22 L 24.33,15.55 L 23.51,15.97 L 23.51,16.03 L 24.33,16.45 L 23.48,16.89 L 23.48,16.92 L 24.30,17.34 L 24.43,17.34 L 25.22,16.92 L 25.32,16.92 L 26.12,17.34 L 26.18,17.34 L 27.93,16.45 L 27.93,16.41 L 21.69,13.30 L 21.60,13.30 Z" fill="#373636" stroke="none" /><path d="M 1.78,7.19 L 1.78,7.22 L 2.61,7.63 L 2.74,7.63 L 3.56,7.22 L 3.53,7.16 L 2.70,6.74 L 2.64,6.74 Z" fill="#373636" stroke="none" /><path d="M 5.41,6.27 L 5.44,6.33 L 6.27,6.74 L 6.33,6.74 L 8.11,5.85 L 9.86,6.74 L 9.03,7.16 L 9.03,7.22 L 9.86,7.63 L 9.96,7.63 L 10.75,7.22 L 10.85,7.22 L 12.53,8.08 L 12.66,8.08 L 13.49,7.67 L 13.46,7.60 L 11.74,6.74 L 11.67,6.74 L 10.82,7.19 L 9.96,6.78 L 9.92,6.74 L 9.96,6.71 L 10.75,6.33 L 10.78,6.27 L 9.07,5.41 L 8.94,5.41 L 8.14,5.82 L 8.05,5.82 L 7.28,5.44 L 7.25,5.41 L 7.28,5.34 L 8.08,4.96 L 8.08,4.93 L 7.22,4.49 L 7.16,4.49 L 6.30,4.93 L 6.30,4.96 L 7.09,5.34 L 7.13,5.38 L 7.09,5.44 Z" fill="#373636" stroke="none" /><path d="M 12.66,0.86 L 12.66,0.89 L 17.08,3.09 L 17.11,3.12 L 17.08,3.15 L 16.25,3.56 L 16.25,3.59 L 17.08,4.01 L 17.21,4.01 L 18.00,3.59 L 18.10,3.59 L 19.79,4.45 L 19.91,4.45 L 20.74,4.04 L 20.71,3.98 L 13.58,0.41 L 13.52,0.41 Z" fill="#373636" stroke="none" /><path d="M 7.22,19.63 L 7.22,20.71 L 8.11,21.15 L 8.11,24.40 L 8.05,24.43 L 7.22,24.02 L 7.22,26.24 L 8.05,26.66 L 8.11,26.66 L 8.11,24.52 L 8.17,24.49 L 8.97,24.91 L 9.03,24.91 L 9.03,23.86 L 9.07,23.83 L 9.92,24.27 L 9.92,27.58 L 10.78,28.02 L 10.85,28.02 L 10.85,26.97 L 10.88,26.94 L 11.67,27.36 L 11.74,27.36 L 11.74,26.27 L 10.91,25.86 L 10.85,25.80 L 10.85,23.67 L 10.91,23.63 L 11.67,24.02 L 11.74,24.08 L 11.74,25.16 L 12.56,25.57 L 12.63,25.64 L 12.63,27.83 L 14.35,28.69 L 14.41,28.69 L 14.41,24.27 L 12.69,23.41 L 12.63,23.41 L 12.63,24.43 L 12.60,24.46 L 11.80,24.08 L 11.74,24.02 L 11.74,22.93 L 8.14,21.15 L 8.11,21.12 L 8.11,20.04 L 7.28,19.63 Z" fill="#383838" stroke="none" /><path d="M 5.41,18.70 L 5.41,19.79 L 6.30,20.23 L 6.30,19.15 Z" fill="#383838" stroke="none" /><path d="M 0.00,17.08 L 0.00,20.42 L 0.83,20.83 L 0.89,20.83 L 0.89,18.67 L 0.92,18.64 L 1.72,19.05 L 1.78,19.05 L 1.78,18.04 L 1.81,18.00 L 2.61,18.39 L 2.67,18.45 L 2.67,20.64 L 3.53,21.06 L 3.59,21.12 L 3.59,22.20 L 4.42,22.62 L 4.49,22.68 L 4.49,23.76 L 5.41,24.21 L 5.41,21.98 L 4.55,21.57 L 4.49,21.50 L 4.49,19.31 L 3.59,18.86 L 3.59,17.78 L 1.81,16.89 L 1.78,16.89 L 1.78,17.91 L 1.75,17.94 Z" fill="#383838" stroke="none" /><path d="M 0.00,12.69 L 0.00,13.81 L 0.89,14.25 L 0.89,13.14 Z" fill="#383838" stroke="none" /><path d="M 0.00,7.19 L 0.00,8.27 L 0.89,8.72 L 0.89,10.94 L 2.64,11.80 L 2.70,11.86 L 2.70,12.88 L 2.67,12.91 L 1.88,12.50 L 1.81,12.50 L 1.81,13.61 L 2.64,14.03 L 2.70,14.03 L 2.70,12.98 L 2.74,12.95 L 3.63,13.39 L 3.63,12.34 L 3.66,12.31 L 4.45,12.72 L 4.52,12.72 L 4.52,11.67 L 4.55,11.64 L 6.27,12.50 L 6.33,12.56 L 6.33,14.76 L 7.16,15.17 L 7.22,15.17 L 7.22,11.86 L 0.92,8.72 L 0.89,8.68 L 0.89,7.60 L 0.06,7.19 Z" fill="#383838" stroke="none" /><path d="M 15.30,20.96 L 15.30,20.99 L 16.19,21.44 L 17.11,20.99 L 17.11,20.96 L 16.22,20.52 Z" fill="#404040" stroke="none" /><path d="M 10.82,17.78 L 10.82,17.84 L 11.64,18.26 L 11.58,18.32 L 10.78,18.70 L 10.78,18.74 L 12.56,19.63 L 12.63,19.63 L 14.38,18.74 L 14.44,18.74 L 15.20,19.12 L 15.27,19.18 L 14.44,19.59 L 14.44,19.66 L 15.27,20.07 L 15.36,20.07 L 16.19,19.66 L 16.19,19.59 L 15.36,19.18 L 15.43,19.12 L 16.22,18.74 L 16.22,18.70 L 15.33,18.26 L 14.44,18.70 L 14.38,18.70 L 13.61,18.32 L 13.55,18.26 L 14.38,17.84 L 14.38,17.78 L 12.66,16.92 L 12.53,16.92 Z" fill="#404040" stroke="none" /><path d="M 17.97,15.11 L 17.15,15.52 L 17.18,15.59 L 18.00,16.00 L 17.18,16.41 L 17.15,16.48 L 17.97,16.89 L 18.10,16.89 L 18.93,16.48 L 18.89,16.41 L 18.07,16.00 L 18.89,15.59 L 18.93,15.52 L 18.10,15.11 Z" fill="#404040" stroke="none" /><path d="M 20.77,14.63 L 20.77,14.66 L 22.46,15.49 L 22.52,15.55 L 21.69,15.97 L 21.69,16.03 L 23.41,16.89 L 23.51,16.89 L 24.33,16.48 L 24.33,16.41 L 23.51,16.00 L 24.33,15.59 L 24.33,15.52 L 21.66,14.19 Z" fill="#404040" stroke="none" /><path d="M 7.22,6.27 L 7.25,6.33 L 7.98,6.68 L 8.05,6.74 L 7.22,7.16 L 7.22,7.22 L 8.94,8.08 L 9.07,8.08 L 9.86,7.67 L 9.96,7.67 L 10.75,8.08 L 10.88,8.08 L 11.71,7.67 L 11.71,7.63 L 10.82,7.19 L 9.92,7.63 L 9.07,7.22 L 9.03,7.19 L 9.07,7.16 L 9.86,6.78 L 9.86,6.71 L 8.14,5.85 L 8.05,5.85 Z" fill="#404040" stroke="none" /><path d="M 7.16,7.16 L 6.33,6.74 L 6.27,6.74 L 5.41,7.19 L 4.55,6.78 L 4.52,6.74 L 4.55,6.71 L 6.30,5.85 L 6.30,5.82 L 5.38,5.38 L 2.70,6.71 L 2.70,6.78 L 3.50,7.16 L 3.53,7.19 L 3.47,7.25 L 2.70,7.63 L 2.64,7.63 L 1.75,7.19 L 0.92,7.60 L 0.92,7.63 L 1.78,8.08 L 1.84,8.08 L 2.64,7.67 L 2.70,7.67 L 3.59,8.11 L 5.34,7.22 L 5.44,7.22 L 6.23,7.63 L 6.33,7.63 L 7.16,7.22 Z" fill="#404040" stroke="none" /><path d="M 15.33,4.01 L 15.33,4.04 L 16.22,4.49 L 17.11,4.04 L 17.18,4.04 L 18.04,4.49 L 18.96,4.04 L 18.96,4.01 L 18.07,3.56 L 17.18,4.01 L 17.11,4.01 L 16.25,3.56 Z" fill="#404040" stroke="none" /><path d="M 12.66,2.67 L 12.60,2.67 L 11.74,3.12 L 11.74,3.15 L 12.56,3.56 L 12.53,3.63 L 11.74,4.01 L 11.74,4.04 L 12.60,4.49 L 13.52,4.04 L 13.52,4.01 L 12.69,3.59 L 12.72,3.53 L 13.52,3.15 L 13.52,3.12 Z" fill="#404040" stroke="none" /><path d="M 13.55,2.19 L 13.58,2.26 L 14.41,2.67 L 14.47,2.67 L 15.33,2.23 L 15.33,2.19 L 14.50,1.78 L 14.38,1.78 Z" fill="#404040" stroke="none" /><path d="M 13.52,1.30 L 12.63,0.86 L 11.74,1.30 L 11.74,1.34 L 12.56,1.75 L 12.69,1.75 L 13.52,1.34 Z" fill="#404040" stroke="none" /><path d="M 7.22,20.71 L 7.22,24.02 L 8.08,24.46 L 8.11,24.46 L 8.11,21.18 L 8.14,21.15 L 14.35,24.27 L 14.41,24.27 L 14.41,23.19 L 8.17,20.07 L 8.11,20.07 L 8.11,21.09 L 8.08,21.12 L 7.28,20.71 Z" fill="#474747" stroke="none" /><path d="M 3.59,17.81 L 3.59,18.89 L 5.41,19.79 L 5.41,18.70 L 3.66,17.81 Z" fill="#474747" stroke="none" /><path d="M 0.00,16.00 L 0.00,17.08 L 1.78,17.97 L 1.78,16.89 Z" fill="#474747" stroke="none" /><path d="M 0.00,8.27 L 0.00,12.69 L 0.86,13.14 L 0.89,13.14 L 0.89,8.75 L 0.92,8.72 L 7.22,11.86 L 7.22,10.78 L 7.19,10.75 L 0.95,7.63 L 0.89,7.63 L 0.89,8.65 L 0.86,8.68 L 0.06,8.27 Z" fill="#474747" stroke="none" /><path d="M 16.19,20.52 L 15.30,20.07 L 14.41,20.52 L 14.41,20.55 L 15.24,20.96 L 15.36,20.96 L 16.19,20.55 Z" fill="#4a4b4e" stroke="none" /><path d="M 17.15,20.04 L 17.15,20.10 L 17.97,20.52 L 18.07,20.52 L 18.89,20.10 L 18.89,20.04 L 18.07,19.63 L 17.97,19.63 Z" fill="#4a4b4e" stroke="none" /><path d="M 12.63,19.59 L 12.63,19.66 L 13.46,20.07 L 13.55,20.07 L 14.38,19.66 L 14.38,19.59 L 13.55,19.18 L 13.46,19.18 Z" fill="#4a4b4e" stroke="none" /><path d="M 9.89,19.15 L 9.89,19.18 L 11.67,20.07 L 11.74,20.07 L 12.56,19.66 L 12.56,19.59 L 10.85,18.74 L 10.72,18.74 Z" fill="#4a4b4e" stroke="none" /><path d="M 11.71,18.26 L 11.71,18.29 L 12.53,18.70 L 12.66,18.70 L 13.49,18.29 L 13.46,18.23 L 12.63,17.81 L 12.56,17.81 Z" fill="#4a4b4e" stroke="none" /><path d="M 18.07,15.97 L 18.07,16.03 L 18.89,16.45 L 18.99,16.45 L 19.82,16.03 L 19.82,15.97 L 18.99,15.55 L 18.89,15.55 Z" fill="#4a4b4e" stroke="none" /><path d="M 19.88,17.84 L 20.71,18.26 L 20.77,18.26 L 21.66,17.81 L 22.52,18.26 L 22.58,18.26 L 24.33,17.37 L 24.40,17.37 L 25.19,17.78 L 25.29,17.78 L 26.12,17.37 L 26.12,17.30 L 25.26,16.89 L 24.40,17.34 L 24.33,17.34 L 21.73,16.03 L 21.69,16.00 L 21.73,15.97 L 22.52,15.59 L 22.55,15.52 L 21.73,15.11 L 21.60,15.11 L 20.77,15.52 L 20.80,15.59 L 21.63,16.00 L 20.77,16.45 L 20.77,16.48 L 21.57,16.86 L 21.60,16.92 L 19.88,17.78 Z" fill="#4a4b4e" stroke="none" /><path d="M 8.97,9.89 L 8.08,9.45 L 7.19,9.89 L 7.19,9.92 L 8.02,10.34 L 8.14,10.34 L 8.97,9.92 Z" fill="#4a4b4e" stroke="none" /><path d="M 7.19,8.08 L 7.19,8.11 L 8.97,9.00 L 9.03,9.00 L 9.89,8.56 L 10.82,9.00 L 12.60,8.11 L 12.60,8.08 L 11.77,7.67 L 11.64,7.67 L 10.85,8.08 L 10.78,8.08 L 9.92,7.63 L 9.03,8.08 L 8.97,8.08 L 8.11,7.63 Z" fill="#4a4b4e" stroke="none" /><path d="M 6.33,6.71 L 6.33,6.78 L 7.16,7.19 L 7.22,7.19 L 8.08,6.74 L 8.08,6.71 L 7.25,6.30 L 7.16,6.30 Z" fill="#4a4b4e" stroke="none" /><path d="M 5.34,6.30 L 4.52,6.71 L 4.52,6.78 L 5.34,7.19 L 5.28,7.25 L 4.49,7.63 L 4.49,7.67 L 5.31,8.08 L 5.44,8.08 L 6.27,7.67 L 6.23,7.60 L 5.50,7.25 L 5.44,7.19 L 6.27,6.78 L 6.27,6.71 L 5.44,6.30 Z" fill="#4a4b4e" stroke="none" /><path d="M 14.44,4.45 L 14.47,4.52 L 15.30,4.93 L 15.36,4.93 L 16.22,4.49 L 17.11,4.93 L 17.18,4.93 L 18.04,4.49 L 18.04,4.45 L 17.21,4.04 L 17.08,4.04 L 16.29,4.45 L 16.19,4.45 L 15.40,4.04 L 15.27,4.04 Z" fill="#4a4b4e" stroke="none" /><path d="M 9.92,4.01 L 9.96,4.07 L 10.78,4.49 L 10.85,4.49 L 11.71,4.04 L 11.71,4.01 L 10.88,3.59 L 10.75,3.59 Z" fill="#4a4b4e" stroke="none" /><path d="M 14.47,2.64 L 14.47,2.70 L 15.30,3.12 L 15.36,3.12 L 16.22,2.67 L 16.22,2.64 L 15.40,2.23 L 15.30,2.23 Z" fill="#4a4b4e" stroke="none" /><path d="M 13.55,1.30 L 12.63,1.75 L 12.63,1.78 L 13.42,2.16 L 13.49,2.23 L 12.66,2.64 L 12.66,2.70 L 13.49,3.12 L 13.42,3.18 L 12.63,3.56 L 12.63,3.59 L 13.46,4.01 L 13.58,4.01 L 14.41,3.59 L 14.38,3.53 L 13.65,3.18 L 13.58,3.12 L 14.41,2.70 L 14.41,2.64 L 13.58,2.23 L 13.65,2.16 L 14.44,1.78 L 14.44,1.75 Z" fill="#4a4b4e" stroke="none" /><path d="M 18.04,20.55 L 18.86,20.96 L 18.93,20.96 L 19.75,20.55 L 19.79,20.49 L 18.96,20.07 L 18.89,20.07 L 18.07,20.49 Z" fill="#575757" stroke="none" /><path d="M 8.08,19.15 L 8.08,19.18 L 14.35,22.30 L 14.38,22.33 L 14.35,22.36 L 13.55,22.74 L 13.58,22.81 L 14.35,23.19 L 14.47,23.19 L 15.27,22.78 L 15.27,22.74 L 14.47,22.36 L 14.44,22.33 L 14.47,22.30 L 16.19,21.44 L 16.19,21.41 L 14.50,20.58 L 14.47,20.52 L 15.27,20.10 L 15.36,20.10 L 16.16,20.52 L 16.25,20.52 L 17.08,20.10 L 17.08,20.04 L 16.25,19.63 L 16.19,19.63 L 15.33,20.07 L 14.44,19.63 L 14.38,19.63 L 13.52,20.07 L 12.63,19.63 L 12.56,19.63 L 11.71,20.07 L 9.96,19.18 L 9.99,19.12 L 11.67,18.29 L 11.64,18.23 L 10.82,17.81 L 10.75,17.81 Z" fill="#575757" stroke="none" /><path d="M 25.22,17.78 L 24.43,17.37 L 24.30,17.37 L 22.55,18.26 L 21.69,17.81 L 21.60,17.81 L 20.77,18.23 L 20.77,18.29 L 22.49,19.15 L 22.55,19.15 L 25.22,17.81 Z" fill="#575757" stroke="none" /><path d="M 15.33,16.45 L 15.33,16.48 L 16.16,16.89 L 16.29,16.89 L 17.11,16.48 L 17.08,16.41 L 16.25,16.00 L 16.19,16.00 Z" fill="#575757" stroke="none" /><path d="M 20.77,14.63 L 18.96,15.52 L 18.99,15.59 L 19.82,16.00 L 18.04,16.89 L 18.04,16.92 L 18.83,17.30 L 18.89,17.37 L 18.07,17.78 L 18.07,17.84 L 19.79,18.70 L 19.88,18.70 L 20.71,18.29 L 20.71,18.23 L 19.88,17.81 L 21.66,16.92 L 21.66,16.89 L 20.87,16.51 L 20.80,16.45 L 21.63,16.03 L 21.63,15.97 L 20.80,15.55 L 20.87,15.49 L 21.66,15.11 L 21.66,15.08 Z" fill="#575757" stroke="none" /><path d="M 10.78,9.00 L 10.78,8.97 L 9.96,8.56 L 9.86,8.56 L 9.00,9.00 L 7.28,8.14 L 7.25,8.11 L 7.28,8.05 L 8.08,7.67 L 8.08,7.63 L 7.22,7.19 L 7.16,7.19 L 5.41,8.08 L 5.34,8.08 L 4.55,7.67 L 4.42,7.67 L 3.63,8.08 L 3.53,8.08 L 2.74,7.67 L 2.61,7.67 L 1.84,8.05 L 1.84,8.11 L 3.56,8.97 L 3.66,8.97 L 4.49,8.56 L 7.13,9.89 L 7.25,9.89 L 8.05,9.48 L 8.14,9.48 L 8.94,9.89 L 9.03,9.89 Z" fill="#575757" stroke="none" /><path d="M 19.85,4.45 L 19.02,4.04 L 18.89,4.04 L 17.18,4.90 L 17.18,4.96 L 18.00,5.38 L 18.07,5.38 L 19.85,4.49 Z" fill="#575757" stroke="none" /><path d="M 8.11,3.12 L 8.11,3.15 L 9.89,4.04 L 10.78,3.59 L 10.85,3.59 L 11.61,3.98 L 11.67,4.04 L 11.64,4.07 L 10.85,4.45 L 10.85,4.52 L 14.31,6.23 L 14.38,6.30 L 14.35,6.33 L 13.55,6.71 L 13.55,6.78 L 14.38,7.19 L 14.44,7.19 L 15.30,6.74 L 15.30,6.71 L 14.50,6.33 L 14.47,6.30 L 14.54,6.23 L 17.11,4.96 L 17.11,4.90 L 16.29,4.49 L 16.19,4.49 L 15.33,4.93 L 14.47,4.49 L 14.54,4.42 L 17.11,3.15 L 17.11,3.09 L 16.29,2.67 L 16.19,2.67 L 15.33,3.12 L 14.47,2.67 L 14.41,2.67 L 13.55,3.12 L 13.55,3.15 L 14.38,3.56 L 14.31,3.63 L 12.66,4.45 L 12.56,4.45 L 11.80,4.07 L 11.77,4.04 L 11.83,3.98 L 12.63,3.59 L 12.63,3.56 L 11.83,3.18 L 11.77,3.12 L 13.52,2.23 L 13.52,2.19 L 11.80,1.34 L 11.67,1.34 Z" fill="#575757" stroke="none" /><path d="M 18.86,20.93 L 18.00,20.52 L 14.44,22.30 L 14.44,22.36 L 15.30,22.78 L 18.86,20.99 Z" fill="#6d6d6d" stroke="none" /><path d="M 7.03,19.50 L 7.03,19.53 L 7.06,19.53 L 7.06,19.50 Z" fill="#6d6d6d" stroke="none" /><path d="M 6.84,19.40 L 6.84,19.44 L 6.87,19.44 L 6.87,19.40 Z" fill="#6d6d6d" stroke="none" /><path d="M 6.71,19.34 L 6.71,19.37 L 6.74,19.37 L 6.74,19.34 Z" fill="#6d6d6d" stroke="none" /><path d="M 6.52,19.24 L 6.52,19.28 L 6.55,19.28 L 6.55,19.24 Z" fill="#6d6d6d" stroke="none" /><path d="M 7.16,19.56 L 7.16,19.59 L 13.52,22.78 L 14.38,22.36 L 14.38,22.30 L 8.14,19.18 L 8.02,19.18 L 7.22,19.59 Z" fill="#6d6d6d" stroke="none" /><path d="M 6.39,19.18 L 6.39,19.21 L 6.43,19.21 L 6.43,19.18 Z" fill="#6d6d6d" stroke="none" /><path d="M 6.20,19.09 L 6.20,19.12 L 6.23,19.12 L 6.23,19.09 Z" fill="#6d6d6d" stroke="none" /><path d="M 6.08,19.02 L 6.08,19.05 L 6.11,19.05 L 6.11,19.02 Z" fill="#6d6d6d" stroke="none" /><path d="M 5.88,18.93 L 5.88,18.96 L 5.92,18.96 L 5.92,18.93 Z" fill="#6d6d6d" stroke="none" /><path d="M 5.76,18.86 L 5.76,18.89 L 5.79,18.89 L 5.79,18.86 Z" fill="#6d6d6d" stroke="none" /><path d="M 5.57,18.77 L 5.57,18.80 L 5.60,18.80 L 5.60,18.77 Z" fill="#6d6d6d" stroke="none" /><path d="M 5.44,18.70 L 5.44,18.74 L 5.47,18.74 L 5.47,18.70 Z" fill="#6d6d6d" stroke="none" /><path d="M 5.25,18.61 L 5.25,18.64 L 5.28,18.64 L 5.28,18.61 Z" fill="#6d6d6d" stroke="none" /><path d="M 5.12,18.54 L 5.12,18.58 L 5.15,18.58 L 5.15,18.54 Z" fill="#6d6d6d" stroke="none" /><path d="M 4.80,18.39 L 4.80,18.42 L 4.83,18.42 L 4.83,18.39 Z" fill="#6d6d6d" stroke="none" /><path d="M 19.85,18.70 L 19.85,18.74 L 21.57,19.59 L 21.66,19.59 L 22.49,19.18 L 22.49,19.12 L 20.77,18.26 L 20.71,18.26 Z" fill="#6d6d6d" stroke="none" /><path d="M 4.49,18.23 L 4.49,18.26 L 4.52,18.26 L 4.52,18.23 Z" fill="#6d6d6d" stroke="none" /><path d="M 4.17,18.07 L 4.17,18.10 L 4.20,18.10 L 4.20,18.07 Z" fill="#6d6d6d" stroke="none" /><path d="M 3.85,17.91 L 3.85,17.94 L 3.88,17.94 L 3.88,17.91 Z" fill="#6d6d6d" stroke="none" /><path d="M 16.22,16.89 L 16.22,16.92 L 18.00,17.81 L 18.07,17.81 L 18.93,17.37 L 18.93,17.34 L 17.15,16.45 Z" fill="#6d6d6d" stroke="none" /><path d="M 3.63,8.97 L 3.63,9.00 L 7.19,10.78 L 7.25,10.78 L 8.08,10.37 L 8.08,10.34 L 4.52,8.56 L 4.42,8.56 Z" fill="#6d6d6d" stroke="none" /><path d="M 7.22,3.56 L 7.25,3.63 L 13.49,6.74 L 13.55,6.74 L 14.41,6.30 L 15.33,6.74 L 18.00,5.41 L 18.00,5.34 L 17.18,4.93 L 17.11,4.93 L 14.47,6.27 L 14.38,6.27 L 8.17,3.15 L 8.05,3.15 Z" fill="#6d6d6d" stroke="none" /></svg>