<svg height="32" width="32" viewBox="0 0 32 32"><defs /><path d="M 19.40,19.23 L 19.40,20.05 L 20.09,20.39 L 20.09,19.54 L 19.47,19.23 Z" fill="#050505" stroke="none" /><path d="M 20.09,19.57 L 20.09,20.39 L 20.73,20.73 L 20.80,20.73 L 20.80,19.91 L 20.15,19.57 Z" fill="#060606" stroke="none" /><path d="M 18.11,24.34 L 18.14,24.41 L 18.18,24.41 L 18.28,24.51 L 18.31,24.51 L 18.42,24.61 L 18.45,24.61 L 18.55,24.71 L 18.59,24.71 L 18.69,24.82 L 18.72,24.82 L 18.83,24.92 L 18.86,24.92 L 18.96,25.02 L 19.00,25.02 L 19.10,25.12 L 19.13,25.12 L 19.23,25.23 L 19.27,25.23 L 19.37,25.33 L 19.40,25.33 L 19.51,25.43 L 19.54,25.43 L 19.64,25.53 L 19.68,25.53 L 19.78,25.63 L 19.81,25.63 L 19.91,25.74 L 19.95,25.74 L 20.60,26.25 L 20.66,26.25 L 21.28,25.94 L 21.28,25.91 Z" fill="#080808" stroke="none" /><path d="M 30.26,24.82 L 21.99,28.94 L 21.96,28.97 L 21.96,29.04 L 21.92,29.07 L 21.92,29.21 L 21.89,29.24 L 21.89,29.41 L 21.86,29.45 L 21.86,29.58 L 21.82,29.62 L 21.79,29.99 L 21.75,30.03 L 21.75,30.16 L 21.72,30.20 L 21.72,30.37 L 21.69,30.40 L 21.69,30.54 L 21.65,30.57 L 21.65,30.74 L 21.62,30.77 L 21.62,30.91 L 21.58,30.94 L 21.58,31.11 L 21.55,31.15 L 21.55,31.29 L 21.51,31.32 L 21.51,31.49 L 21.48,31.52 L 21.48,31.66 L 21.45,31.69 L 21.45,31.86 L 21.41,31.90 L 21.41,32.00 L 21.48,32.00 L 29.72,27.88 L 29.75,27.81 L 29.75,27.64 L 29.79,27.61 L 29.82,27.27 L 29.86,27.23 L 29.86,27.06 L 29.89,27.03 L 29.89,26.89 L 29.92,26.86 L 29.92,26.69 L 29.96,26.66 L 29.96,26.52 L 29.99,26.49 L 29.99,26.31 L 30.03,26.28 L 30.03,26.14 L 30.06,26.11 L 30.06,25.94 L 30.09,25.91 L 30.09,25.77 L 30.13,25.74 L 30.13,25.57 L 30.16,25.53 L 30.16,25.40 L 30.20,25.36 L 30.20,25.19 L 30.23,25.16 Z" fill="#090909" stroke="none" /><path d="M 22.88,18.72 L 22.81,18.72 L 21.48,19.40 L 21.48,21.11 L 22.88,20.43 Z" fill="#090909" stroke="none" /><path d="M 30.50,17.97 L 22.20,22.13 L 22.20,26.35 L 22.26,26.35 L 30.50,22.23 Z" fill="#090909" stroke="none" /><path d="M 28.43,15.93 L 27.03,16.61 L 27.03,18.31 L 27.10,18.31 L 28.43,17.63 Z" fill="#090909" stroke="none" /><path d="M 22.16,6.50 L 11.10,12.02 L 11.10,25.60 L 11.17,25.60 L 12.46,24.95 L 12.46,21.92 L 12.53,21.86 L 12.83,21.72 L 12.83,21.69 L 12.53,21.55 L 12.46,21.48 L 12.46,17.29 L 11.85,17.60 L 11.78,17.57 L 11.78,14.26 L 13.11,13.58 L 13.17,13.62 L 13.17,14.37 L 13.24,14.37 L 14.54,13.72 L 14.57,13.75 L 14.57,14.54 L 15.18,14.23 L 15.25,14.26 L 15.25,15.05 L 15.93,14.71 L 15.93,13.86 L 15.32,14.16 L 15.25,14.13 L 15.25,12.53 L 15.18,12.53 L 14.60,12.83 L 14.57,12.80 L 14.57,12.02 L 14.50,12.02 L 11.81,13.38 L 11.78,13.34 L 11.78,12.56 L 15.22,10.83 L 15.25,10.86 L 15.25,11.64 L 15.32,11.64 L 17.97,10.31 L 18.01,10.28 L 18.01,9.46 L 18.08,9.40 L 21.45,7.73 L 21.48,7.76 L 21.48,8.51 L 21.41,8.58 L 19.40,9.57 L 19.40,10.42 L 18.01,11.13 L 18.01,12.80 L 17.33,13.14 L 17.33,13.99 L 17.40,13.99 L 18.01,13.69 L 18.01,12.83 L 18.72,12.46 L 18.72,11.64 L 18.79,11.57 L 20.09,10.93 L 20.09,10.11 L 21.41,9.43 L 21.48,9.46 L 21.48,12.77 L 20.80,13.11 L 20.80,13.14 L 22.09,13.79 L 22.16,13.79 L 22.16,13.72 L 22.20,13.69 L 22.20,13.55 L 22.16,13.51 L 22.20,13.45 L 22.20,13.31 L 22.16,13.28 L 22.16,13.21 L 22.20,13.17 L 22.20,13.07 L 22.16,13.04 L 22.16,12.97 L 22.20,12.94 L 22.20,12.83 L 22.16,12.80 L 22.16,12.70 L 22.20,12.66 L 22.20,12.60 L 22.16,12.56 L 22.16,12.46 L 22.20,12.43 L 22.20,12.32 L 22.16,12.29 L 22.16,12.19 L 22.20,12.15 L 22.20,12.05 L 22.16,12.02 L 22.16,11.95 L 22.20,11.91 L 22.20,11.81 L 22.16,11.78 L 22.16,11.71 L 22.20,11.68 L 22.20,11.54 L 22.16,11.51 L 22.20,11.44 L 22.20,11.30 L 22.16,11.27 L 22.20,11.20 L 22.20,11.06 L 22.16,11.03 L 22.16,10.96 L 22.20,10.93 L 22.20,10.83 L 22.16,10.79 L 22.16,10.72 L 22.20,10.69 L 22.20,10.55 L 22.16,10.52 L 22.20,10.45 L 22.20,10.31 L 22.16,10.28 L 22.20,10.21 L 22.20,10.08 L 22.16,10.04 L 22.16,9.97 L 22.20,9.94 L 22.20,9.84 L 22.16,9.80 L 22.16,9.70 L 22.20,9.67 L 22.20,9.60 L 22.16,9.57 L 22.16,9.46 L 22.20,9.43 L 22.20,9.33 L 22.16,9.29 L 22.16,9.23 L 22.20,9.19 L 22.20,9.06 L 22.16,9.02 L 22.16,8.95 L 22.20,8.92 L 22.20,8.82 L 22.16,8.78 L 22.16,8.71 L 22.20,8.68 L 22.20,8.58 L 22.16,8.54 L 22.16,8.48 L 22.20,8.44 L 22.20,8.31 L 22.16,8.27 L 22.20,8.20 L 22.20,8.07 L 22.16,8.03 L 22.20,7.97 L 22.20,7.83 L 22.16,7.80 L 22.16,7.73 L 22.20,7.69 L 22.20,7.59 L 22.16,7.56 L 22.16,7.49 L 22.20,7.46 L 22.20,7.35 L 22.16,7.32 L 22.16,7.25 L 22.20,7.22 L 22.20,7.08 L 22.16,7.05 L 22.20,6.84 L 22.16,6.81 L 22.16,6.71 L 22.20,6.67 L 22.20,6.60 L 22.16,6.57 Z" fill="#090909" stroke="none" /><path d="M 25.29,28.02 L 25.23,28.02 L 24.58,28.36 L 24.58,28.49 L 24.54,28.53 L 24.51,28.87 L 24.48,28.90 L 24.48,29.04 L 24.44,29.11 L 24.51,29.11 L 25.16,28.77 L 25.16,28.66 L 25.19,28.63 L 25.19,28.46 L 25.23,28.43 L 25.23,28.29 L 25.26,28.26 L 25.26,28.09 Z" fill="#0a0a0a" stroke="none" /><path d="M 28.05,26.62 L 27.37,26.96 L 27.34,27.03 L 27.34,27.17 L 27.30,27.20 L 27.30,27.37 L 27.27,27.40 L 27.27,27.57 L 27.23,27.61 L 27.23,27.74 L 27.20,27.78 L 27.20,27.95 L 27.17,27.98 L 27.17,28.12 L 27.13,28.15 L 27.13,28.32 L 27.10,28.36 L 27.10,28.46 L 27.17,28.46 L 27.78,28.15 L 27.81,28.09 L 27.81,27.91 L 27.85,27.88 L 27.88,27.54 L 27.91,27.51 L 27.91,27.34 L 27.95,27.30 L 27.95,27.17 L 27.98,27.13 L 27.98,26.96 L 28.02,26.93 L 28.02,26.79 L 28.05,26.76 Z" fill="#0a0a0a" stroke="none" /><path d="M 24.20,22.81 L 23.56,23.15 L 23.56,24.00 L 24.24,23.66 L 24.27,23.69 L 24.27,24.48 L 24.34,24.48 L 24.95,24.17 L 24.95,23.32 L 24.89,23.32 L 24.31,23.63 L 24.27,23.59 L 24.27,22.81 Z" fill="#0a0a0a" stroke="none" /><path d="M 29.79,20.05 L 29.72,20.05 L 29.11,20.36 L 29.11,21.21 L 29.07,21.24 L 27.10,22.23 L 27.03,22.20 L 27.03,20.56 L 26.38,20.87 L 26.35,20.90 L 26.35,22.60 L 27.00,22.30 L 27.03,22.33 L 27.03,23.11 L 27.06,23.11 L 29.11,22.09 L 29.11,21.24 L 29.79,20.90 Z" fill="#0a0a0a" stroke="none" /><path d="M 12.46,15.59 L 11.78,15.93 L 11.78,16.78 L 12.46,16.44 Z" fill="#0a0a0a" stroke="none" /><path d="M 14.57,15.39 L 13.86,15.73 L 13.86,16.58 L 13.92,16.58 L 14.57,16.24 Z" fill="#0a0a0a" stroke="none" /><path d="M 13.17,13.55 L 12.46,13.89 L 12.46,14.74 L 13.17,14.40 Z" fill="#0a0a0a" stroke="none" /><path d="M 17.33,13.17 L 17.26,13.17 L 15.93,13.86 L 15.93,14.71 L 16.61,14.37 L 16.65,14.40 L 16.65,15.18 L 16.71,15.18 L 17.33,14.88 Z" fill="#0a0a0a" stroke="none" /><path d="M 20.09,12.63 L 19.40,12.97 L 19.40,13.82 L 20.09,13.48 Z" fill="#0a0a0a" stroke="none" /><path d="M 16.65,10.96 L 15.25,11.64 L 15.25,12.49 L 15.32,12.49 L 16.65,11.81 Z" fill="#0a0a0a" stroke="none" /><path d="M 18.01,10.28 L 17.33,10.62 L 17.33,11.47 L 18.01,11.13 Z" fill="#0a0a0a" stroke="none" /><path d="M 21.48,9.40 L 20.80,9.74 L 20.80,11.40 L 20.87,11.40 L 21.48,11.10 Z" fill="#0a0a0a" stroke="none" /><path d="M 24.44,29.14 L 24.37,29.14 L 23.08,29.79 L 23.05,29.82 L 23.05,29.99 L 23.01,30.03 L 23.01,30.16 L 22.98,30.20 L 22.94,30.54 L 23.01,30.54 L 24.31,29.89 L 24.34,29.86 L 24.34,29.69 L 24.37,29.65 L 24.37,29.48 L 24.41,29.45 Z" fill="#0b0b0b" stroke="none" /><path d="M 28.60,27.06 L 28.53,27.06 L 27.91,27.37 L 27.88,27.64 L 27.85,27.68 L 27.85,27.85 L 27.81,27.88 L 27.81,28.05 L 27.78,28.12 L 27.85,28.12 L 28.49,27.78 L 28.53,27.44 L 28.56,27.40 L 28.56,27.27 L 28.60,27.23 Z" fill="#0b0b0b" stroke="none" /><path d="M 27.37,26.96 L 25.29,27.98 L 25.26,28.05 L 25.23,28.39 L 25.19,28.43 L 25.16,28.77 L 26.45,28.12 L 26.52,28.15 L 26.52,28.22 L 26.49,28.26 L 26.45,28.60 L 26.42,28.63 L 26.42,28.77 L 26.38,28.83 L 27.10,28.49 L 27.10,28.39 L 27.13,28.36 L 27.13,28.19 L 27.17,28.15 L 27.17,28.02 L 27.20,27.98 L 27.20,27.81 L 27.23,27.78 L 27.23,27.64 L 27.27,27.61 L 27.27,27.44 L 27.30,27.40 L 27.30,27.23 L 27.34,27.20 L 27.34,27.06 L 27.37,27.03 Z" fill="#0b0b0b" stroke="none" /><path d="M 30.06,24.65 L 30.06,24.68 L 30.09,24.68 L 30.09,24.65 Z" fill="#0b0b0b" stroke="none" /><path d="M 29.92,24.54 L 29.92,24.58 L 29.96,24.58 L 29.96,24.54 Z" fill="#0b0b0b" stroke="none" /><path d="M 26.35,20.90 L 24.95,21.58 L 24.95,22.43 L 24.27,22.77 L 24.27,23.63 L 24.24,23.66 L 23.59,23.97 L 23.56,23.93 L 23.56,23.15 L 22.91,23.46 L 22.88,23.49 L 22.88,24.34 L 23.52,24.03 L 23.56,24.07 L 23.56,24.85 L 23.59,24.85 L 24.27,24.51 L 24.27,23.66 L 24.31,23.63 L 26.31,22.64 L 26.35,22.60 Z" fill="#0b0b0b" stroke="none" /><path d="M 29.11,20.39 L 29.04,20.39 L 28.46,20.70 L 28.43,20.66 L 28.43,19.88 L 28.36,19.88 L 27.06,20.53 L 27.03,20.56 L 27.03,22.26 L 29.11,21.24 Z" fill="#0b0b0b" stroke="none" /><path d="M 29.82,17.63 L 29.82,17.67 L 30.47,17.97 L 30.47,17.94 Z" fill="#0b0b0b" stroke="none" /><path d="M 28.80,17.12 L 28.80,17.16 L 29.72,17.60 L 29.72,17.57 Z" fill="#0b0b0b" stroke="none" /><path d="M 28.46,16.95 L 28.46,16.99 L 28.70,17.09 L 28.70,17.06 Z" fill="#0b0b0b" stroke="none" /><path d="M 28.29,15.86 L 28.29,15.90 L 28.32,15.90 L 28.32,15.86 Z" fill="#0b0b0b" stroke="none" /><path d="M 13.86,15.76 L 13.79,15.76 L 11.81,16.75 L 11.78,16.78 L 11.78,17.63 L 13.86,16.61 Z" fill="#0b0b0b" stroke="none" /><path d="M 27.95,15.69 L 27.95,15.73 L 27.98,15.73 L 27.98,15.69 Z" fill="#0b0b0b" stroke="none" /><path d="M 27.81,15.63 L 27.81,15.66 L 27.85,15.66 L 27.85,15.63 Z" fill="#0b0b0b" stroke="none" /><path d="M 27.34,15.39 L 27.34,15.42 L 27.37,15.42 L 27.37,15.39 Z" fill="#0b0b0b" stroke="none" /><path d="M 26.86,15.15 L 26.86,15.18 L 26.89,15.18 L 26.89,15.15 Z" fill="#0b0b0b" stroke="none" /><path d="M 26.72,15.08 L 26.72,15.11 L 26.76,15.11 L 26.76,15.08 Z" fill="#0b0b0b" stroke="none" /><path d="M 26.52,14.98 L 26.52,15.01 L 26.55,15.01 L 26.55,14.98 Z" fill="#0b0b0b" stroke="none" /><path d="M 26.38,14.91 L 26.38,14.94 L 26.42,14.94 L 26.42,14.91 Z" fill="#0b0b0b" stroke="none" /><path d="M 26.25,14.84 L 26.25,14.88 L 26.28,14.88 L 26.28,14.84 Z" fill="#0b0b0b" stroke="none" /><path d="M 25.91,14.67 L 25.91,14.71 L 25.94,14.71 L 25.94,14.67 Z" fill="#0b0b0b" stroke="none" /><path d="M 23.90,14.67 L 23.90,14.71 L 24.61,15.05 L 24.61,15.01 Z" fill="#0b0b0b" stroke="none" /><path d="M 25.77,14.60 L 25.77,14.64 L 25.80,14.64 L 25.80,14.60 Z" fill="#0b0b0b" stroke="none" /><path d="M 23.56,14.50 L 23.56,14.54 L 23.80,14.64 L 23.80,14.60 Z" fill="#0b0b0b" stroke="none" /><path d="M 16.65,14.37 L 16.58,14.37 L 14.60,15.35 L 14.57,15.39 L 14.57,16.24 L 16.65,15.22 Z" fill="#0b0b0b" stroke="none" /><path d="M 22.88,14.16 L 22.88,14.20 L 23.46,14.47 L 23.46,14.43 Z" fill="#0b0b0b" stroke="none" /><path d="M 12.46,13.92 L 12.39,13.92 L 11.78,14.23 L 11.78,15.93 L 12.46,15.59 Z" fill="#0b0b0b" stroke="none" /><path d="M 22.16,13.69 L 22.16,13.82 L 22.20,13.86 L 22.77,14.13 L 22.77,14.09 L 22.26,13.86 L 22.20,13.79 L 22.20,13.69 Z" fill="#0b0b0b" stroke="none" /><path d="M 22.16,13.45 L 22.16,13.55 L 22.20,13.55 L 22.20,13.45 Z" fill="#0b0b0b" stroke="none" /><path d="M 21.17,13.31 L 21.17,13.34 L 22.09,13.79 L 22.09,13.75 Z" fill="#0b0b0b" stroke="none" /><path d="M 22.16,13.17 L 22.16,13.31 L 22.20,13.31 L 22.20,13.17 Z" fill="#0b0b0b" stroke="none" /><path d="M 19.40,12.97 L 17.33,13.99 L 17.33,14.84 L 17.40,14.84 L 19.37,13.86 L 19.40,13.82 Z" fill="#0b0b0b" stroke="none" /><path d="M 22.16,12.94 L 22.16,13.07 L 22.20,13.07 L 22.20,12.94 Z" fill="#0b0b0b" stroke="none" /><path d="M 22.16,12.66 L 22.16,12.83 L 22.20,12.83 L 22.20,12.66 Z" fill="#0b0b0b" stroke="none" /><path d="M 22.16,12.43 L 22.16,12.60 L 22.20,12.60 L 22.20,12.43 Z" fill="#0b0b0b" stroke="none" /><path d="M 22.16,12.15 L 22.16,12.32 L 22.20,12.32 L 22.20,12.15 Z" fill="#0b0b0b" stroke="none" /><path d="M 22.16,11.91 L 22.16,12.05 L 22.20,12.05 L 22.20,11.91 Z" fill="#0b0b0b" stroke="none" /><path d="M 22.16,11.68 L 22.16,11.81 L 22.20,11.81 L 22.20,11.68 Z" fill="#0b0b0b" stroke="none" /><path d="M 22.16,11.44 L 22.16,11.54 L 22.20,11.54 L 22.20,11.44 Z" fill="#0b0b0b" stroke="none" /><path d="M 22.16,11.20 L 22.16,11.30 L 22.20,11.30 L 22.20,11.20 Z" fill="#0b0b0b" stroke="none" /><path d="M 21.48,11.10 L 21.41,11.10 L 20.80,11.40 L 20.80,12.26 L 20.09,12.63 L 20.09,13.48 L 20.77,13.14 L 21.07,13.28 L 21.07,13.24 L 20.90,13.17 L 20.87,13.11 L 21.48,12.80 Z" fill="#0b0b0b" stroke="none" /><path d="M 22.16,10.93 L 22.16,11.06 L 22.20,11.06 L 22.20,10.93 Z" fill="#0b0b0b" stroke="none" /><path d="M 15.25,10.83 L 15.18,10.83 L 14.57,11.13 L 14.57,11.98 L 14.64,11.98 L 15.25,11.68 Z" fill="#0b0b0b" stroke="none" /><path d="M 22.16,10.72 L 22.16,10.83 L 22.20,10.83 L 22.20,10.72 Z" fill="#0b0b0b" stroke="none" /><path d="M 17.33,10.62 L 16.65,10.96 L 16.65,11.78 L 16.58,11.85 L 15.93,12.15 L 15.93,13.86 L 17.33,13.17 Z" fill="#0b0b0b" stroke="none" /><path d="M 20.80,9.74 L 20.09,10.08 L 20.09,10.93 L 20.80,10.59 Z" fill="#0b0b0b" stroke="none" /><path d="M 22.16,9.67 L 22.16,9.84 L 22.20,9.84 L 22.20,9.67 Z" fill="#0b0b0b" stroke="none" /><path d="M 22.16,9.43 L 22.16,9.60 L 22.20,9.60 L 22.20,9.43 Z" fill="#0b0b0b" stroke="none" /><path d="M 22.16,9.19 L 22.16,9.33 L 22.20,9.33 L 22.20,9.19 Z" fill="#0b0b0b" stroke="none" /><path d="M 22.16,8.92 L 22.16,9.06 L 22.20,9.06 L 22.20,8.92 Z" fill="#0b0b0b" stroke="none" /><path d="M 19.40,8.75 L 19.34,8.75 L 18.01,9.43 L 18.01,10.28 L 19.40,9.60 Z" fill="#0b0b0b" stroke="none" /><path d="M 22.16,8.68 L 22.16,8.82 L 22.20,8.82 L 22.20,8.68 Z" fill="#0b0b0b" stroke="none" /><path d="M 22.16,8.44 L 22.16,8.58 L 22.20,8.58 L 22.20,8.44 Z" fill="#0b0b0b" stroke="none" /><path d="M 22.16,8.20 L 22.16,8.31 L 22.20,8.31 L 22.20,8.20 Z" fill="#0b0b0b" stroke="none" /><path d="M 22.16,7.97 L 22.16,8.07 L 22.20,8.07 L 22.20,7.97 Z" fill="#0b0b0b" stroke="none" /><path d="M 22.16,7.69 L 22.16,7.83 L 22.20,7.83 L 22.20,7.69 Z" fill="#0b0b0b" stroke="none" /><path d="M 22.16,7.46 L 22.16,7.59 L 22.20,7.59 L 22.20,7.46 Z" fill="#0b0b0b" stroke="none" /><path d="M 22.16,7.22 L 22.16,7.35 L 22.20,7.35 L 22.20,7.22 Z" fill="#0b0b0b" stroke="none" /><path d="M 22.16,6.94 L 22.16,7.08 L 22.20,7.08 L 22.20,6.94 Z" fill="#0b0b0b" stroke="none" /><path d="M 22.16,6.67 L 22.16,6.84 L 22.20,6.84 L 22.20,6.67 Z" fill="#0b0b0b" stroke="none" /><path d="M 22.16,6.50 L 22.16,6.60 L 22.20,6.60 L 22.20,6.50 Z" fill="#0b0b0b" stroke="none" /><path d="M 22.16,10.69 L 22.16,10.72 L 22.20,10.72 L 22.20,10.69 Z" fill="#0c0c0c" stroke="none" /><path d="M 22.16,10.45 L 22.16,10.55 L 22.20,10.55 L 22.20,10.45 Z" fill="#0c0c0c" stroke="none" /><path d="M 22.16,10.21 L 22.16,10.31 L 22.20,10.31 L 22.20,10.21 Z" fill="#0c0c0c" stroke="none" /><path d="M 22.16,9.94 L 22.16,10.08 L 22.20,10.08 L 22.20,9.94 Z" fill="#0c0c0c" stroke="none" /><path d="M 14.57,22.57 L 14.57,22.60 L 14.60,22.60 L 14.71,22.71 L 14.74,22.71 L 14.84,22.81 L 14.88,22.81 L 14.98,22.91 L 15.01,22.91 L 15.11,23.01 L 15.15,23.01 L 15.25,23.11 L 15.29,23.11 L 15.39,23.22 L 15.42,23.22 L 15.52,23.32 L 15.56,23.32 L 16.20,23.83 L 16.34,23.90 L 16.44,24.00 L 16.48,24.00 L 16.58,24.10 L 16.61,24.10 L 16.71,24.20 L 16.75,24.20 L 16.85,24.31 L 16.89,24.31 L 16.99,24.41 L 17.02,24.41 L 17.12,24.51 L 17.16,24.51 L 17.26,24.61 L 17.29,24.61 L 17.40,24.71 L 17.43,24.71 L 17.53,24.82 L 17.57,24.82 L 17.67,24.92 L 17.70,24.92 L 17.80,25.02 L 17.84,25.02 L 17.94,25.12 L 17.97,25.12 L 18.08,25.23 L 18.11,25.23 L 18.21,25.33 L 18.25,25.33 L 18.35,25.43 L 18.38,25.43 L 18.49,25.53 L 18.52,25.53 L 18.62,25.63 L 18.66,25.63 L 18.76,25.74 L 18.79,25.74 L 18.89,25.84 L 18.93,25.84 L 19.03,25.94 L 19.06,25.94 L 19.17,26.04 L 19.20,26.04 L 19.30,26.14 L 19.34,26.14 L 19.44,26.25 L 19.47,26.25 L 19.57,26.35 L 19.61,26.35 L 19.71,26.45 L 19.74,26.45 L 19.85,26.55 L 19.88,26.55 L 19.98,26.66 L 20.02,26.66 L 20.12,26.76 L 20.15,26.76 L 20.26,26.86 L 20.29,26.86 L 20.39,26.96 L 20.43,26.96 L 20.53,27.06 L 20.56,27.06 L 20.66,27.17 L 20.70,27.17 L 20.80,27.27 L 20.83,27.27 L 21.21,27.57 L 21.34,27.64 L 21.45,27.74 L 21.48,27.74 L 21.58,27.85 L 21.62,27.85 L 21.96,28.12 L 28.87,24.68 L 28.87,24.61 L 28.80,24.54 L 28.77,24.54 L 28.26,24.14 L 28.12,24.07 L 28.02,23.97 L 27.98,23.97 L 27.88,23.86 L 27.85,23.86 L 27.74,23.76 L 27.71,23.76 L 27.61,23.66 L 27.57,23.66 L 22.23,26.35 L 22.13,26.35 L 21.34,25.94 L 21.21,25.94 L 20.63,26.25 L 20.53,26.14 L 20.49,26.14 L 20.39,26.04 L 20.36,26.04 L 20.26,25.94 L 20.22,25.94 L 20.12,25.84 L 20.09,25.84 L 19.98,25.74 L 19.95,25.74 L 19.85,25.63 L 19.81,25.63 L 19.71,25.53 L 19.68,25.53 L 19.57,25.43 L 19.54,25.43 L 19.44,25.33 L 19.40,25.33 L 19.30,25.23 L 19.27,25.23 L 19.17,25.12 L 19.13,25.12 L 19.03,25.02 L 19.00,25.02 L 18.89,24.92 L 18.86,24.92 L 18.76,24.82 L 18.72,24.82 L 18.08,24.31 Z" fill="#0d0d0d" stroke="none" /><path d="M 14.50,11.17 L 13.86,11.51 L 13.86,12.36 L 14.54,12.02 L 14.57,12.05 L 14.57,12.83 L 14.64,12.83 L 15.22,12.53 L 15.25,12.56 L 15.25,14.20 L 15.29,14.20 L 15.93,13.86 L 15.93,12.19 L 15.86,12.19 L 15.29,12.49 L 15.25,12.46 L 15.25,11.68 L 15.18,11.68 L 14.60,11.98 L 14.57,11.95 L 14.57,11.17 Z" fill="#0d0d0d" stroke="none" /><path d="M 20.09,8.41 L 20.02,8.41 L 19.40,8.71 L 19.40,9.57 L 19.37,9.60 L 18.01,10.28 L 18.01,11.10 L 17.94,11.17 L 17.33,11.47 L 17.33,12.29 L 17.40,12.29 L 18.01,11.98 L 18.01,11.17 L 18.08,11.10 L 19.40,10.45 L 19.40,9.60 L 20.09,9.26 Z" fill="#0d0d0d" stroke="none" /><path d="M 19.51,29.75 L 19.47,29.82 L 19.47,29.99 L 19.44,30.03 L 19.44,30.16 L 19.40,30.20 L 19.40,30.37 L 19.37,30.40 L 19.37,30.50 L 19.47,30.60 L 19.51,30.60 L 19.88,30.91 L 20.02,30.98 L 20.12,31.08 L 20.15,31.08 L 20.26,31.18 L 20.29,31.18 L 20.39,31.29 L 20.43,31.29 L 20.53,31.39 L 20.56,31.39 L 20.66,31.49 L 20.70,31.49 L 21.34,32.00 L 21.41,32.00 L 21.55,31.25 L 21.21,30.98 L 21.17,30.98 L 20.83,30.71 L 20.80,30.71 L 20.70,30.60 L 20.66,30.60 L 20.56,30.50 L 20.53,30.50 L 20.43,30.40 L 20.39,30.40 L 20.29,30.30 L 20.26,30.30 L 20.15,30.20 L 20.12,30.20 L 20.02,30.09 L 19.98,30.09 L 19.88,29.99 L 19.85,29.99 L 19.74,29.89 L 19.71,29.89 L 19.61,29.79 Z" fill="#0e0e0e" stroke="none" /><path d="M 21.28,28.46 L 21.28,28.53 L 21.24,28.56 L 21.24,28.73 L 21.21,28.77 L 21.21,28.90 L 21.17,28.94 L 21.17,29.11 L 21.14,29.14 L 21.14,29.24 L 21.31,29.38 L 21.34,29.38 L 21.45,29.48 L 21.48,29.48 L 21.58,29.58 L 21.62,29.58 L 21.72,29.69 L 21.82,29.72 L 21.82,29.65 L 21.86,29.62 L 21.86,29.48 L 21.89,29.45 L 21.89,29.28 L 21.92,29.24 L 21.96,28.97 L 21.86,28.87 L 21.82,28.87 L 21.72,28.77 L 21.69,28.77 L 21.58,28.66 L 21.55,28.66 L 21.45,28.56 L 21.41,28.56 L 21.31,28.46 Z" fill="#0e0e0e" stroke="none" /><path d="M 18.55,26.45 L 18.55,26.52 L 18.52,26.55 L 18.52,26.72 L 18.49,26.76 L 18.49,26.93 L 18.45,26.96 L 18.45,27.10 L 18.42,27.13 L 18.42,27.20 L 18.59,27.34 L 18.62,27.34 L 18.72,27.44 L 18.76,27.44 L 18.86,27.54 L 18.89,27.54 L 19.00,27.64 L 19.03,27.64 L 19.13,27.74 L 19.17,27.74 L 19.27,27.85 L 19.30,27.85 L 19.40,27.95 L 19.44,27.95 L 19.54,28.05 L 19.57,28.05 L 19.68,28.15 L 19.71,28.15 L 19.81,28.26 L 19.85,28.26 L 19.95,28.36 L 19.98,28.36 L 20.09,28.46 L 20.12,28.46 L 20.22,28.56 L 20.26,28.56 L 20.36,28.66 L 20.46,28.70 L 20.49,28.63 L 20.49,28.49 L 20.53,28.46 L 20.53,28.29 L 20.56,28.26 L 20.56,28.09 L 20.60,28.05 L 20.60,27.95 L 20.49,27.85 L 20.46,27.85 L 20.36,27.74 L 20.32,27.74 L 19.68,27.23 L 19.54,27.17 L 19.44,27.06 L 19.40,27.06 L 19.30,26.96 L 19.27,26.96 L 18.62,26.45 Z" fill="#0e0e0e" stroke="none" /><path d="M 15.83,24.41 L 15.83,24.54 L 15.80,24.58 L 15.76,24.92 L 15.73,24.95 L 15.73,25.09 L 15.69,25.16 L 16.03,25.43 L 16.07,25.43 L 16.17,25.53 L 16.20,25.53 L 16.31,25.63 L 16.34,25.63 L 16.44,25.74 L 16.48,25.74 L 16.58,25.84 L 16.61,25.84 L 16.71,25.94 L 16.75,25.94 L 16.85,26.04 L 16.89,26.04 L 16.99,26.14 L 17.02,26.14 L 17.12,26.25 L 17.16,26.25 L 17.26,26.35 L 17.29,26.35 L 17.40,26.45 L 17.43,26.45 L 17.53,26.55 L 17.57,26.55 L 17.67,26.66 L 17.74,26.66 L 17.77,26.62 L 17.77,26.49 L 17.80,26.45 L 17.80,26.28 L 17.84,26.25 L 17.84,26.11 L 17.87,26.08 L 17.87,25.91 L 17.53,25.63 L 17.50,25.63 L 17.40,25.53 L 17.36,25.53 L 17.26,25.43 L 17.23,25.43 L 17.12,25.33 L 17.09,25.33 L 16.99,25.23 L 16.95,25.23 L 16.85,25.12 L 16.82,25.12 L 16.71,25.02 L 16.68,25.02 L 16.58,24.92 L 16.54,24.92 L 16.44,24.82 L 16.41,24.82 L 16.31,24.71 L 16.27,24.71 L 16.17,24.61 L 16.14,24.61 L 16.03,24.51 L 16.00,24.51 L 15.90,24.41 Z" fill="#0e0e0e" stroke="none" /><path d="M 12.46,24.48 L 12.46,24.92 L 12.19,25.06 L 12.15,25.12 L 12.19,25.12 L 12.29,25.23 L 12.32,25.23 L 12.43,25.33 L 12.46,25.33 L 12.56,25.43 L 12.60,25.43 L 12.70,25.53 L 12.73,25.53 L 12.83,25.63 L 12.87,25.63 L 13.21,25.91 L 13.28,25.91 L 13.28,25.74 L 13.31,25.70 L 13.31,25.57 L 13.34,25.53 L 13.34,25.36 L 13.38,25.33 L 13.38,25.23 L 13.41,25.19 L 13.48,25.23 L 13.58,25.33 L 13.62,25.33 L 13.72,25.43 L 13.75,25.43 L 13.86,25.53 L 13.89,25.53 L 14.06,25.67 L 14.06,25.80 L 14.03,25.84 L 14.03,25.97 L 13.99,26.01 L 13.99,26.18 L 13.96,26.21 L 13.96,26.38 L 13.92,26.45 L 13.96,26.45 L 14.06,26.55 L 14.09,26.55 L 14.20,26.66 L 14.23,26.66 L 14.33,26.76 L 14.37,26.76 L 15.01,27.27 L 15.15,27.34 L 15.25,27.44 L 15.29,27.44 L 15.93,27.95 L 16.00,27.91 L 16.00,27.74 L 16.03,27.71 L 16.07,27.37 L 16.10,27.34 L 16.10,27.27 L 16.17,27.23 L 16.27,27.34 L 16.31,27.34 L 16.41,27.44 L 16.44,27.44 L 16.78,27.71 L 16.78,27.81 L 16.75,27.85 L 16.75,27.98 L 16.71,28.02 L 16.71,28.19 L 16.68,28.22 L 16.68,28.36 L 16.65,28.39 L 16.65,28.46 L 16.75,28.56 L 16.78,28.56 L 16.89,28.66 L 16.92,28.66 L 17.02,28.77 L 17.06,28.77 L 17.16,28.87 L 17.19,28.87 L 17.29,28.97 L 17.33,28.97 L 17.43,29.07 L 17.46,29.07 L 17.57,29.17 L 17.60,29.17 L 17.70,29.28 L 17.74,29.28 L 17.84,29.38 L 17.87,29.38 L 17.97,29.48 L 18.01,29.48 L 18.11,29.58 L 18.14,29.58 L 18.25,29.69 L 18.28,29.69 L 18.38,29.79 L 18.42,29.79 L 18.52,29.89 L 18.55,29.89 L 18.66,29.99 L 18.69,29.99 L 18.69,29.92 L 18.72,29.89 L 18.72,29.75 L 18.76,29.72 L 18.79,29.38 L 18.83,29.34 L 18.83,29.21 L 16.78,27.68 L 16.82,27.64 L 16.85,27.30 L 16.89,27.27 L 16.89,27.10 L 16.92,27.06 L 16.92,26.93 L 16.85,26.86 L 16.82,26.86 L 16.31,26.45 L 16.24,26.45 L 16.20,26.72 L 16.17,26.76 L 16.17,26.93 L 16.14,26.96 L 16.14,27.10 L 16.07,27.17 L 15.97,27.06 L 15.93,27.06 L 15.83,26.96 L 15.80,26.96 L 15.69,26.86 L 15.66,26.86 L 15.56,26.76 L 15.52,26.76 L 15.42,26.66 L 15.39,26.66 L 15.29,26.55 L 15.25,26.55 L 15.15,26.45 L 15.11,26.45 L 15.01,26.35 L 14.98,26.35 L 14.88,26.25 L 14.84,26.25 L 14.74,26.14 L 14.71,26.14 L 14.60,26.04 L 14.57,26.04 L 14.47,25.94 L 14.43,25.94 L 14.09,25.67 L 14.13,25.29 L 14.16,25.26 L 14.16,25.12 L 14.20,25.09 L 14.20,24.89 L 13.86,24.61 L 13.82,24.61 L 13.72,24.51 L 13.69,24.51 L 13.58,24.41 L 13.51,24.41 L 13.48,24.75 L 13.45,24.78 L 13.45,24.92 L 13.41,24.95 L 13.41,25.09 L 13.38,25.12 L 13.34,25.12 L 13.24,25.02 L 13.21,25.02 L 12.56,24.51 Z" fill="#0e0e0e" stroke="none" /><path d="M 21.48,24.34 L 21.48,25.19 L 22.13,25.53 L 22.20,25.53 L 22.20,24.68 Z" fill="#0e0e0e" stroke="none" /><path d="M 20.15,23.66 L 20.09,23.66 L 20.09,24.44 L 20.05,24.48 L 19.47,24.17 L 19.40,24.17 L 19.40,24.99 L 20.05,25.33 L 20.09,25.33 L 20.09,24.54 L 20.12,24.51 L 20.80,24.85 L 20.80,24.00 Z" fill="#0e0e0e" stroke="none" /><path d="M 9.70,23.25 L 9.70,24.92 L 10.38,25.26 L 10.38,24.48 L 10.42,24.44 L 11.10,24.78 L 11.10,23.93 L 9.77,23.25 Z" fill="#0e0e0e" stroke="none" /><path d="M 13.11,22.40 L 13.07,22.74 L 13.04,22.77 L 13.04,22.91 L 13.00,22.94 L 13.00,23.15 L 13.34,23.42 L 13.38,23.42 L 13.48,23.52 L 13.62,23.59 L 13.72,23.69 L 13.75,23.69 L 13.86,23.80 L 13.89,23.80 L 13.99,23.90 L 14.03,23.90 L 14.13,24.00 L 14.16,24.00 L 14.26,24.10 L 14.30,24.10 L 14.40,24.20 L 14.43,24.20 L 14.54,24.31 L 14.57,24.31 L 14.67,24.41 L 14.71,24.41 L 14.81,24.51 L 14.84,24.51 L 14.94,24.61 L 15.05,24.65 L 15.05,24.48 L 15.08,24.44 L 15.11,24.10 L 15.15,24.07 L 15.15,23.86 L 14.81,23.59 L 14.77,23.59 L 14.67,23.49 L 14.54,23.42 L 14.43,23.32 L 14.40,23.32 L 14.30,23.22 L 14.26,23.22 L 14.16,23.11 L 14.13,23.11 L 14.03,23.01 L 13.99,23.01 L 13.89,22.91 L 13.86,22.91 L 13.75,22.81 L 13.72,22.81 L 13.62,22.71 L 13.58,22.71 L 13.48,22.60 L 13.45,22.60 L 13.34,22.50 L 13.31,22.50 L 13.21,22.40 Z" fill="#0e0e0e" stroke="none" /><path d="M 15.93,21.58 L 15.93,22.43 L 16.58,22.74 L 16.65,22.81 L 16.65,23.63 L 17.26,23.93 L 17.33,23.93 L 17.33,22.26 L 16.00,21.58 Z" fill="#0e0e0e" stroke="none" /><path d="M 6.23,21.51 L 6.23,22.37 L 6.88,22.67 L 6.94,22.74 L 6.94,23.56 L 7.56,23.86 L 7.63,23.86 L 7.63,23.11 L 7.66,23.08 L 8.31,23.39 L 8.31,22.54 L 8.27,22.50 L 6.30,21.51 Z" fill="#0e0e0e" stroke="none" /><path d="M 4.15,21.31 L 4.15,22.16 L 4.87,22.50 L 4.87,21.65 Z" fill="#0e0e0e" stroke="none" /><path d="M 20.09,21.11 L 20.09,21.96 L 20.73,22.26 L 20.80,22.33 L 20.80,23.15 L 20.83,23.18 L 21.48,23.49 L 21.48,22.71 L 21.51,22.67 L 22.13,22.98 L 22.20,22.98 L 22.20,22.13 L 20.15,21.11 Z" fill="#0e0e0e" stroke="none" /><path d="M 10.38,21.04 L 10.38,21.89 L 11.10,22.23 L 11.10,21.38 L 10.45,21.04 Z" fill="#0e0e0e" stroke="none" /><path d="M 13.86,20.53 L 13.86,22.23 L 14.57,22.57 L 14.57,21.79 L 14.60,21.75 L 15.18,22.06 L 15.25,22.06 L 15.25,21.21 Z" fill="#0e0e0e" stroke="none" /><path d="M 17.33,19.71 L 17.33,20.56 L 17.36,20.60 L 19.34,21.58 L 19.40,21.58 L 19.40,20.73 Z" fill="#0e0e0e" stroke="none" /><path d="M 19.40,18.38 L 19.40,19.23 L 20.02,19.54 L 20.09,19.54 L 20.09,18.69 L 19.47,18.38 Z" fill="#0e0e0e" stroke="none" /><path d="M 14.57,18.35 L 14.57,19.20 L 16.65,20.22 L 16.65,19.37 L 16.61,19.34 L 14.64,18.35 Z" fill="#0e0e0e" stroke="none" /><path d="M 9.70,18.14 L 9.70,19.85 L 10.31,20.15 L 10.38,20.15 L 10.38,19.37 L 10.42,19.34 L 11.10,19.68 L 11.10,18.83 L 9.77,18.14 Z" fill="#0e0e0e" stroke="none" /><path d="M 12.46,17.29 L 12.46,18.14 L 13.86,18.83 L 13.86,17.97 L 12.53,17.29 Z" fill="#0e0e0e" stroke="none" /><path d="M 2.76,17.23 L 2.76,18.08 L 4.15,18.76 L 4.15,17.91 L 2.83,17.23 Z" fill="#0e0e0e" stroke="none" /><path d="M 10.38,15.93 L 10.38,16.78 L 11.03,17.12 L 11.10,17.12 L 11.10,16.27 Z" fill="#0e0e0e" stroke="none" /><path d="M 0.00,15.83 L 0.00,18.38 L 0.61,18.69 L 0.68,18.76 L 0.68,19.57 L 1.40,19.95 L 1.40,20.77 L 2.08,21.11 L 2.08,20.32 L 2.11,20.29 L 2.69,20.60 L 2.76,20.60 L 2.76,19.74 L 0.75,18.76 L 0.68,18.69 L 0.68,17.09 L 0.75,17.06 L 1.33,17.36 L 1.40,17.36 L 1.40,16.51 Z" fill="#0e0e0e" stroke="none" /><path d="M 24.27,15.25 L 24.27,16.95 L 24.95,17.29 L 24.95,15.59 Z" fill="#0e0e0e" stroke="none" /><path d="M 5.55,15.22 L 5.55,16.07 L 6.16,16.37 L 6.23,16.37 L 6.23,15.56 Z" fill="#0e0e0e" stroke="none" /><path d="M 7.63,14.57 L 7.63,15.42 L 8.24,15.73 L 8.31,15.73 L 8.31,14.88 L 7.69,14.57 Z" fill="#0e0e0e" stroke="none" /><path d="M 6.23,13.86 L 6.23,14.71 L 6.88,15.05 L 6.94,15.05 L 6.94,14.20 Z" fill="#0e0e0e" stroke="none" /><path d="M 2.76,13.82 L 2.76,14.67 L 3.47,15.01 L 3.47,14.16 Z" fill="#0e0e0e" stroke="none" /><path d="M 9.70,13.04 L 9.70,13.89 L 11.03,14.57 L 11.10,14.57 L 11.10,13.72 Z" fill="#0e0e0e" stroke="none" /><path d="M 18.01,11.98 L 17.94,11.98 L 17.33,12.29 L 17.33,13.14 L 17.40,13.14 L 18.01,12.83 Z" fill="#0e0e0e" stroke="none" /><path d="M 4.15,11.98 L 4.15,12.83 L 4.87,13.17 L 4.87,12.32 L 4.22,11.98 Z" fill="#0e0e0e" stroke="none" /><path d="M 13.86,11.51 L 11.78,12.53 L 11.78,13.38 L 11.85,13.38 L 13.82,12.39 L 13.86,12.36 Z" fill="#0e0e0e" stroke="none" /><path d="M 0.00,10.76 L 0.00,13.28 L 0.68,13.62 L 0.68,11.98 L 0.71,11.95 L 1.40,12.29 L 1.40,11.44 L 0.07,10.76 Z" fill="#0e0e0e" stroke="none" /><path d="M 8.31,10.66 L 8.31,11.51 L 9.02,11.85 L 9.02,11.00 L 8.37,10.66 Z" fill="#0e0e0e" stroke="none" /><path d="M 5.55,9.26 L 5.55,10.96 L 6.23,11.30 L 6.23,9.60 Z" fill="#0e0e0e" stroke="none" /><path d="M 2.76,7.86 L 2.76,9.57 L 3.40,9.91 L 3.47,9.91 L 3.47,8.20 Z" fill="#0e0e0e" stroke="none" /><path d="M 21.48,7.69 L 20.09,8.37 L 20.09,9.23 L 20.15,9.23 L 21.48,8.54 Z" fill="#0e0e0e" stroke="none" /><path d="M 0.00,6.50 L 0.00,8.20 L 0.68,8.54 L 0.68,9.40 L 1.40,9.74 L 1.40,8.89 L 0.68,8.51 L 0.68,6.81 L 0.07,6.50 Z" fill="#0e0e0e" stroke="none" /><path d="M 19.78,28.22 L 19.78,28.29 L 19.74,28.32 L 19.74,28.49 L 19.71,28.53 L 19.71,28.66 L 19.68,28.70 L 19.68,28.87 L 19.64,28.90 L 19.64,29.04 L 19.61,29.07 L 19.61,29.24 L 19.57,29.28 L 19.57,29.41 L 19.54,29.45 L 19.54,29.62 L 19.47,29.69 L 19.44,29.69 L 18.93,29.28 L 18.83,29.24 L 18.83,29.31 L 18.79,29.34 L 18.79,29.48 L 18.76,29.51 L 18.76,29.69 L 18.72,29.72 L 18.69,29.99 L 18.79,30.09 L 18.83,30.09 L 18.93,30.20 L 18.96,30.20 L 19.06,30.30 L 19.10,30.30 L 19.20,30.40 L 19.23,30.40 L 19.34,30.50 L 19.37,30.50 L 19.37,30.43 L 19.40,30.40 L 19.40,30.23 L 19.44,30.20 L 19.44,30.06 L 19.47,30.03 L 19.47,29.86 L 19.54,29.79 L 19.57,29.79 L 20.09,30.20 L 20.19,30.23 L 20.19,30.16 L 20.22,30.13 L 20.22,29.99 L 20.26,29.96 L 20.29,29.62 L 20.36,29.51 L 20.70,29.79 L 20.73,29.79 L 20.83,29.89 L 20.87,29.89 L 21.00,30.03 L 20.97,30.09 L 20.97,30.23 L 20.94,30.26 L 20.94,30.43 L 20.90,30.47 L 20.87,30.77 L 21.04,30.91 L 21.17,30.98 L 21.41,31.18 L 21.55,31.25 L 21.55,31.18 L 21.58,31.15 L 21.58,30.98 L 21.62,30.94 L 21.62,30.81 L 21.65,30.77 L 21.65,30.60 L 21.69,30.57 L 21.69,30.43 L 21.72,30.40 L 21.72,30.23 L 21.75,30.20 L 21.75,30.06 L 21.79,30.03 L 21.79,29.86 L 21.82,29.82 L 21.82,29.72 L 21.14,29.21 L 21.17,29.14 L 21.17,28.97 L 21.21,28.94 L 21.21,28.80 L 21.24,28.77 L 21.24,28.60 L 21.28,28.56 L 21.28,28.46 L 20.63,27.95 L 20.60,27.95 L 20.60,28.02 L 20.56,28.05 L 20.56,28.22 L 20.53,28.26 L 20.49,28.60 L 20.43,28.66 L 20.39,28.66 L 19.88,28.26 Z" fill="#0f0f0f" stroke="none" /><path d="M 17.87,25.94 L 17.87,26.04 L 17.84,26.08 L 17.84,26.21 L 17.80,26.25 L 17.80,26.42 L 17.77,26.45 L 17.77,26.59 L 17.74,26.62 L 17.74,26.69 L 18.08,26.96 L 18.11,26.96 L 18.21,27.06 L 18.25,27.06 L 18.35,27.17 L 18.42,27.17 L 18.45,27.13 L 18.45,27.00 L 18.49,26.96 L 18.49,26.79 L 18.52,26.76 L 18.55,26.42 L 18.21,26.14 L 18.18,26.14 L 18.08,26.04 L 18.04,26.04 L 17.94,25.94 Z" fill="#0f0f0f" stroke="none" /><path d="M 13.38,25.16 L 13.34,25.50 L 13.31,25.53 L 13.31,25.67 L 13.28,25.70 L 13.28,25.87 L 13.24,25.94 L 13.28,25.94 L 13.79,26.35 L 13.82,26.35 L 13.89,26.42 L 13.96,26.42 L 13.96,26.25 L 13.99,26.21 L 13.99,26.04 L 14.03,26.01 L 14.06,25.74 L 14.09,25.70 L 14.16,25.74 L 14.26,25.84 L 14.30,25.84 L 14.40,25.94 L 14.43,25.94 L 14.54,26.04 L 14.57,26.04 L 14.67,26.14 L 14.71,26.14 L 14.81,26.25 L 14.84,26.25 L 14.94,26.35 L 14.98,26.35 L 15.08,26.45 L 15.11,26.45 L 15.22,26.55 L 15.25,26.55 L 15.35,26.66 L 15.39,26.66 L 15.49,26.76 L 15.52,26.76 L 15.63,26.86 L 15.66,26.86 L 15.76,26.96 L 15.80,26.96 L 15.90,27.06 L 15.93,27.06 L 16.10,27.20 L 16.07,27.47 L 16.03,27.51 L 16.03,27.68 L 16.00,27.71 L 16.00,27.88 L 15.97,27.95 L 16.07,28.05 L 16.10,28.05 L 16.20,28.15 L 16.24,28.15 L 16.34,28.26 L 16.37,28.26 L 16.48,28.36 L 16.51,28.36 L 16.61,28.46 L 16.65,28.46 L 16.68,28.39 L 16.68,28.26 L 16.71,28.22 L 16.75,27.88 L 16.78,27.85 L 16.78,27.68 L 16.10,27.17 L 16.14,27.13 L 16.14,27.00 L 16.17,26.96 L 16.17,26.79 L 16.20,26.76 L 16.20,26.62 L 16.24,26.59 L 16.24,26.42 L 15.90,26.14 L 15.86,26.14 L 15.76,26.04 L 15.73,26.04 L 15.63,25.94 L 15.59,25.94 L 15.49,25.84 L 15.46,25.84 L 15.35,25.74 L 15.32,25.74 L 15.22,25.63 L 15.18,25.63 L 15.08,25.53 L 15.05,25.53 L 14.94,25.43 L 14.91,25.43 L 14.81,25.33 L 14.77,25.33 L 14.67,25.23 L 14.64,25.23 L 14.54,25.12 L 14.50,25.12 L 14.40,25.02 L 14.37,25.02 L 14.26,24.92 L 14.20,24.92 L 14.20,25.06 L 14.16,25.09 L 14.16,25.23 L 14.13,25.26 L 14.13,25.43 L 14.09,25.46 L 14.09,25.60 L 14.06,25.63 L 14.03,25.63 L 13.51,25.23 Z" fill="#0f0f0f" stroke="none" /><path d="M 20.09,24.51 L 20.09,25.33 L 20.12,25.36 L 22.20,26.38 L 22.20,25.53 L 20.15,24.51 Z" fill="#0f0f0f" stroke="none" /><path d="M 10.38,24.44 L 10.38,25.26 L 11.03,25.60 L 11.10,25.60 L 11.10,24.78 L 10.45,24.44 Z" fill="#0f0f0f" stroke="none" /><path d="M 15.15,23.90 L 15.11,24.24 L 15.08,24.27 L 15.08,24.41 L 15.05,24.44 L 15.05,24.68 L 15.22,24.82 L 15.25,24.82 L 15.35,24.92 L 15.39,24.92 L 15.49,25.02 L 15.52,25.02 L 15.63,25.12 L 15.73,25.12 L 15.76,24.78 L 15.80,24.75 L 15.80,24.61 L 15.83,24.58 L 15.83,24.37 L 15.49,24.10 L 15.46,24.10 L 15.35,24.00 L 15.32,24.00 L 15.22,23.90 Z" fill="#0f0f0f" stroke="none" /><path d="M 17.33,23.11 L 17.33,23.97 L 19.40,24.99 L 19.40,24.14 Z" fill="#0f0f0f" stroke="none" /><path d="M 21.48,22.64 L 21.48,24.34 L 22.13,24.68 L 22.20,24.68 L 22.20,22.98 Z" fill="#0f0f0f" stroke="none" /><path d="M 7.63,23.05 L 7.63,23.90 L 9.70,24.92 L 9.70,24.07 L 9.02,23.73 L 9.02,22.88 L 8.31,22.54 L 8.31,23.32 L 8.27,23.35 Z" fill="#0f0f0f" stroke="none" /><path d="M 12.46,21.89 L 12.46,22.74 L 12.80,23.01 L 12.83,23.01 L 12.94,23.11 L 13.00,23.11 L 13.00,22.98 L 13.04,22.94 L 13.07,22.60 L 13.11,22.57 L 13.11,22.43 L 13.14,22.37 L 12.80,22.09 L 12.77,22.09 L 12.66,21.99 L 12.63,21.99 L 12.53,21.89 Z" fill="#0f0f0f" stroke="none" /><path d="M 10.38,21.89 L 10.38,23.59 L 11.10,23.93 L 11.10,22.23 L 10.45,21.89 Z" fill="#0f0f0f" stroke="none" /><path d="M 14.57,21.75 L 14.57,22.57 L 14.60,22.60 L 16.58,23.59 L 16.65,23.59 L 16.65,22.77 L 15.93,22.40 L 15.93,21.55 L 15.32,21.24 L 15.25,21.24 L 15.25,22.03 L 15.22,22.06 L 14.64,21.75 Z" fill="#0f0f0f" stroke="none" /><path d="M 4.87,21.69 L 4.87,22.50 L 4.90,22.54 L 6.88,23.52 L 6.94,23.52 L 6.94,22.71 L 6.23,22.33 L 6.23,21.48 L 5.62,21.17 L 5.55,21.17 L 5.55,21.96 L 5.51,21.99 L 4.94,21.69 Z" fill="#0f0f0f" stroke="none" /><path d="M 19.40,20.77 L 19.40,21.62 L 20.09,21.96 L 20.09,22.81 L 20.80,23.15 L 20.80,22.30 L 20.09,21.92 L 20.09,21.07 L 19.47,20.77 Z" fill="#0f0f0f" stroke="none" /><path d="M 12.46,20.70 L 12.46,21.51 L 13.79,22.20 L 13.86,22.20 L 13.86,21.38 L 12.53,20.70 Z" fill="#0f0f0f" stroke="none" /><path d="M 2.08,20.29 L 2.08,21.11 L 2.11,21.14 L 4.09,22.13 L 4.15,22.13 L 4.15,21.31 L 3.54,21.00 L 3.47,20.94 L 3.47,20.12 L 3.44,20.09 L 2.83,19.78 L 2.76,19.78 L 2.76,20.56 L 2.72,20.60 L 2.14,20.29 Z" fill="#0f0f0f" stroke="none" /><path d="M 16.65,19.37 L 16.65,20.22 L 17.33,20.56 L 17.33,19.71 Z" fill="#0f0f0f" stroke="none" /><path d="M 10.38,19.34 L 10.38,21.04 L 11.10,21.38 L 11.10,19.68 L 10.45,19.34 Z" fill="#0f0f0f" stroke="none" /><path d="M 20.09,18.72 L 20.09,19.57 L 20.73,19.88 L 20.80,19.95 L 20.80,20.77 L 21.41,21.07 L 21.48,21.07 L 21.48,19.40 L 20.15,18.72 Z" fill="#0f0f0f" stroke="none" /><path d="M 18.72,18.04 L 18.72,19.71 L 19.40,20.05 L 19.40,18.35 L 18.79,18.04 Z" fill="#0f0f0f" stroke="none" /><path d="M 13.86,17.97 L 13.86,18.83 L 14.50,19.17 L 14.57,19.17 L 14.57,18.31 Z" fill="#0f0f0f" stroke="none" /><path d="M 4.15,17.91 L 4.15,18.76 L 4.19,18.79 L 4.80,19.10 L 4.87,19.10 L 4.87,18.31 L 4.90,18.28 L 6.94,19.30 L 6.94,18.45 L 6.91,18.42 L 4.94,17.43 L 4.87,17.43 L 4.87,18.21 L 4.83,18.25 Z" fill="#0f0f0f" stroke="none" /><path d="M 0.68,17.02 L 0.68,18.66 L 0.61,18.69 L 0.00,18.38 L 0.00,20.09 L 1.40,20.77 L 1.40,19.91 L 0.75,19.61 L 0.68,19.54 L 0.68,18.79 L 0.71,18.76 L 1.33,19.06 L 1.40,19.06 L 1.40,17.36 Z" fill="#0f0f0f" stroke="none" /><path d="M 9.70,16.44 L 9.70,18.14 L 11.10,18.83 L 11.10,17.12 Z" fill="#0f0f0f" stroke="none" /><path d="M 24.95,15.59 L 24.95,17.29 L 26.96,18.31 L 27.03,18.31 L 27.03,16.61 Z" fill="#0f0f0f" stroke="none" /><path d="M 6.23,15.56 L 6.23,16.41 L 8.31,17.43 L 8.31,16.58 Z" fill="#0f0f0f" stroke="none" /><path d="M 10.38,14.23 L 10.38,15.93 L 11.03,16.27 L 11.10,16.27 L 11.10,14.57 Z" fill="#0f0f0f" stroke="none" /><path d="M 6.94,14.23 L 6.94,15.08 L 7.56,15.39 L 7.63,15.39 L 7.63,14.54 L 7.01,14.23 Z" fill="#0f0f0f" stroke="none" /><path d="M 3.47,14.20 L 3.47,15.01 L 3.51,15.05 L 5.48,16.03 L 5.55,16.03 L 5.55,15.22 L 5.51,15.18 L 3.54,14.20 Z" fill="#0f0f0f" stroke="none" /><path d="M 2.08,13.48 L 2.08,14.33 L 2.69,14.64 L 2.76,14.64 L 2.76,13.82 Z" fill="#0f0f0f" stroke="none" /><path d="M 0.00,13.28 L 0.00,15.83 L 0.68,16.17 L 0.68,13.62 Z" fill="#0f0f0f" stroke="none" /><path d="M 4.87,12.32 L 4.87,13.17 L 6.23,13.86 L 6.23,13.00 Z" fill="#0f0f0f" stroke="none" /><path d="M 2.76,11.27 L 2.76,12.12 L 4.09,12.80 L 4.15,12.80 L 4.15,11.95 Z" fill="#0f0f0f" stroke="none" /><path d="M 9.02,11.00 L 9.02,11.85 L 9.63,12.15 L 9.70,12.22 L 9.70,13.04 L 11.03,13.72 L 11.10,13.72 L 11.10,12.02 Z" fill="#0f0f0f" stroke="none" /><path d="M 6.23,9.60 L 6.23,10.45 L 7.59,11.13 L 7.63,11.17 L 7.63,12.02 L 8.24,12.32 L 8.31,12.32 L 8.31,10.62 Z" fill="#0f0f0f" stroke="none" /><path d="M 3.47,8.24 L 3.47,9.94 L 5.55,10.96 L 5.55,9.26 L 3.54,8.24 Z" fill="#0f0f0f" stroke="none" /><path d="M 0.68,6.84 L 0.68,8.48 L 0.65,8.51 L 0.07,8.20 L 0.00,8.20 L 0.00,10.76 L 1.40,11.44 L 1.40,9.74 L 0.68,9.36 L 0.68,8.58 L 0.71,8.54 L 2.08,9.23 L 2.08,8.44 L 2.11,8.41 L 2.76,8.71 L 2.76,7.86 L 0.75,6.84 Z" fill="#0f0f0f" stroke="none" /><path d="M 19.10,27.71 L 19.10,27.78 L 19.06,27.81 L 19.06,27.98 L 19.03,28.02 L 19.03,28.15 L 19.00,28.19 L 19.00,28.36 L 18.96,28.39 L 18.96,28.53 L 18.93,28.56 L 18.93,28.73 L 18.89,28.77 L 18.89,28.94 L 18.86,28.97 L 18.83,29.24 L 19.00,29.38 L 19.03,29.38 L 19.13,29.48 L 19.17,29.48 L 19.27,29.58 L 19.30,29.58 L 19.40,29.69 L 19.51,29.72 L 19.54,29.65 L 19.57,29.31 L 19.61,29.28 L 19.64,28.94 L 19.68,28.90 L 19.68,28.73 L 19.71,28.70 L 19.71,28.56 L 19.74,28.53 L 19.78,28.19 L 19.61,28.05 L 19.57,28.05 L 19.47,27.95 L 19.44,27.95 L 19.34,27.85 L 19.30,27.85 L 19.20,27.74 Z" fill="#111111" stroke="none" /><path d="M 16.37,25.67 L 16.37,25.80 L 16.34,25.84 L 16.34,25.97 L 16.31,26.01 L 16.31,26.18 L 16.27,26.21 L 16.27,26.35 L 16.24,26.38 L 16.24,26.45 L 16.27,26.45 L 16.78,26.86 L 16.92,26.93 L 16.95,26.89 L 16.95,26.72 L 16.99,26.69 L 16.99,26.55 L 17.02,26.52 L 17.06,26.14 L 17.02,26.14 L 16.51,25.74 Z" fill="#111111" stroke="none" /><path d="M 13.65,23.63 L 13.65,23.80 L 13.62,23.83 L 13.58,24.17 L 13.55,24.20 L 13.55,24.41 L 14.06,24.82 L 14.09,24.82 L 14.16,24.89 L 14.23,24.89 L 14.26,24.54 L 14.30,24.51 L 14.30,24.37 L 14.33,24.34 L 14.33,24.10 L 14.30,24.10 L 13.79,23.69 Z" fill="#111111" stroke="none" /><path d="M 20.80,23.15 L 20.80,24.85 L 21.48,25.19 L 21.48,23.49 Z" fill="#111111" stroke="none" /><path d="M 18.01,20.90 L 18.01,22.54 L 17.94,22.57 L 17.33,22.26 L 17.33,23.11 L 20.02,24.48 L 20.09,24.48 L 20.09,23.63 L 18.72,22.94 L 18.72,21.24 Z" fill="#111111" stroke="none" /><path d="M 15.25,19.54 L 15.25,21.24 L 15.86,21.55 L 15.93,21.55 L 15.93,19.85 L 15.32,19.54 Z" fill="#111111" stroke="none" /><path d="M 12.46,18.14 L 12.46,20.70 L 13.86,21.38 L 13.86,20.53 L 13.24,20.22 L 13.17,20.15 L 13.17,18.49 L 12.53,18.14 Z" fill="#111111" stroke="none" /><path d="M 1.40,8.89 L 1.40,12.29 L 2.69,12.94 L 2.76,13.00 L 2.76,13.82 L 2.79,13.86 L 3.40,14.16 L 3.47,14.16 L 3.47,13.38 L 3.51,13.34 L 5.48,14.33 L 5.55,14.40 L 5.55,15.22 L 6.20,15.56 L 6.23,15.56 L 6.23,13.86 L 2.14,11.81 L 2.08,11.74 L 2.08,10.14 L 2.14,10.11 L 4.12,11.10 L 4.15,11.13 L 4.15,11.98 L 4.87,12.32 L 4.87,11.54 L 4.94,11.51 L 6.91,12.49 L 6.94,12.53 L 6.94,14.23 L 7.56,14.54 L 7.63,14.54 L 7.63,12.90 L 7.66,12.87 L 9.63,13.86 L 9.70,13.92 L 9.70,15.52 L 9.67,15.56 L 8.37,14.91 L 8.31,14.91 L 8.31,17.36 L 8.24,17.40 L 0.68,13.62 L 0.68,14.47 L 1.40,14.84 L 1.40,17.40 L 2.76,18.08 L 2.76,19.78 L 3.40,20.09 L 3.47,20.15 L 3.47,20.97 L 5.48,21.99 L 5.55,21.99 L 5.55,21.21 L 5.58,21.17 L 6.16,21.48 L 6.23,21.48 L 6.23,19.85 L 6.26,19.81 L 8.24,20.80 L 8.31,20.87 L 8.31,22.54 L 9.02,22.91 L 9.02,23.76 L 9.63,24.07 L 9.70,24.07 L 9.70,23.22 L 9.02,22.88 L 9.02,21.24 L 9.06,21.21 L 10.31,21.86 L 10.38,21.86 L 10.38,20.15 L 9.77,19.85 L 9.70,19.85 L 9.70,20.63 L 9.67,20.66 L 7.69,19.68 L 7.63,19.61 L 7.63,18.01 L 7.69,17.97 L 9.63,18.96 L 9.70,18.96 L 9.70,18.11 L 9.02,17.77 L 9.02,16.17 L 9.09,16.14 L 10.38,16.78 L 10.38,14.23 L 9.77,13.92 L 9.70,13.86 L 9.70,13.04 L 9.09,12.73 L 9.02,12.66 L 9.02,11.85 L 8.99,11.81 L 8.37,11.51 L 8.31,11.51 L 8.31,12.29 L 8.27,12.32 Z" fill="#111111" stroke="none" /><path d="M 20.32,29.48 L 20.32,29.55 L 20.29,29.58 L 20.29,29.72 L 20.26,29.75 L 20.22,30.09 L 20.19,30.13 L 20.19,30.26 L 20.36,30.40 L 20.39,30.40 L 20.49,30.50 L 20.53,30.50 L 20.63,30.60 L 20.66,30.60 L 20.77,30.71 L 20.87,30.74 L 20.87,30.67 L 20.90,30.64 L 20.90,30.50 L 20.94,30.47 L 20.94,30.30 L 20.97,30.26 L 21.00,29.99 L 20.90,29.89 L 20.87,29.89 L 20.77,29.79 L 20.73,29.79 L 20.63,29.69 L 20.60,29.69 L 20.49,29.58 L 20.46,29.58 L 20.36,29.48 Z" fill="#121212" stroke="none" /><path d="M 17.06,26.18 L 17.06,26.28 L 17.02,26.31 L 17.02,26.49 L 16.99,26.52 L 16.99,26.66 L 16.95,26.69 L 16.95,26.86 L 16.92,26.89 L 16.92,27.03 L 16.89,27.06 L 16.89,27.23 L 16.85,27.27 L 16.85,27.44 L 16.82,27.47 L 16.82,27.61 L 16.78,27.64 L 16.78,27.71 L 16.95,27.85 L 16.99,27.85 L 17.09,27.95 L 17.12,27.95 L 17.23,28.05 L 17.26,28.05 L 17.36,28.15 L 17.40,28.15 L 17.50,28.26 L 17.53,28.26 L 17.63,28.36 L 17.67,28.36 L 17.77,28.46 L 17.80,28.46 L 17.91,28.56 L 17.94,28.56 L 18.04,28.66 L 18.08,28.66 L 18.18,28.77 L 18.21,28.77 L 18.31,28.87 L 18.35,28.87 L 18.45,28.97 L 18.49,28.97 L 18.59,29.07 L 18.62,29.07 L 18.72,29.17 L 18.83,29.21 L 18.86,29.14 L 18.86,29.00 L 18.89,28.97 L 18.89,28.80 L 18.93,28.77 L 18.96,28.43 L 19.00,28.39 L 19.00,28.22 L 19.03,28.19 L 19.03,28.05 L 19.06,28.02 L 19.10,27.68 L 18.93,27.54 L 18.89,27.54 L 18.79,27.44 L 18.76,27.44 L 18.66,27.34 L 18.62,27.34 L 18.52,27.23 L 18.38,27.17 L 18.28,27.06 L 18.25,27.06 L 18.14,26.96 L 18.11,26.96 L 18.01,26.86 L 17.97,26.86 L 17.87,26.76 L 17.84,26.76 L 17.19,26.25 Z" fill="#121212" stroke="none" /><path d="M 14.33,24.14 L 14.33,24.31 L 14.30,24.34 L 14.26,24.68 L 14.23,24.71 L 14.23,24.85 L 14.20,24.92 L 14.23,24.92 L 14.33,25.02 L 14.37,25.02 L 14.47,25.12 L 14.50,25.12 L 14.60,25.23 L 14.64,25.23 L 14.74,25.33 L 14.77,25.33 L 14.88,25.43 L 14.91,25.43 L 15.01,25.53 L 15.05,25.53 L 15.15,25.63 L 15.18,25.63 L 15.29,25.74 L 15.32,25.74 L 15.42,25.84 L 15.46,25.84 L 16.10,26.35 L 16.24,26.42 L 16.27,26.38 L 16.31,26.04 L 16.34,26.01 L 16.34,25.87 L 16.37,25.84 L 16.37,25.63 L 16.34,25.63 L 16.24,25.53 L 16.20,25.53 L 16.10,25.43 L 16.07,25.43 L 15.97,25.33 L 15.93,25.33 L 15.83,25.23 L 15.80,25.23 L 15.69,25.12 L 15.66,25.12 L 15.56,25.02 L 15.52,25.02 L 15.42,24.92 L 15.39,24.92 L 15.29,24.82 L 15.25,24.82 L 15.15,24.71 L 15.11,24.71 L 14.47,24.20 Z" fill="#121212" stroke="none" /><path d="M 12.46,22.74 L 12.46,24.48 L 12.63,24.61 L 12.66,24.61 L 12.77,24.71 L 12.80,24.71 L 12.90,24.82 L 12.94,24.82 L 13.04,24.92 L 13.07,24.92 L 13.17,25.02 L 13.21,25.02 L 13.31,25.12 L 13.41,25.16 L 13.41,24.99 L 13.45,24.95 L 13.48,24.61 L 13.51,24.58 L 13.51,24.44 L 13.55,24.41 L 13.58,24.03 L 13.62,24.00 L 13.62,23.86 L 13.65,23.83 L 13.65,23.59 L 13.51,23.52 L 13.41,23.42 L 13.38,23.42 L 13.28,23.32 L 13.24,23.32 L 12.60,22.81 Z" fill="#121212" stroke="none" /><path d="M 18.72,21.28 L 18.72,22.98 L 20.80,24.00 L 20.80,23.15 L 20.09,22.77 L 20.09,21.92 L 18.79,21.28 Z" fill="#121212" stroke="none" /><path d="M 9.02,21.21 L 9.02,22.91 L 10.31,23.56 L 10.38,23.56 L 10.38,21.86 L 9.09,21.21 Z" fill="#121212" stroke="none" /><path d="M 15.93,19.88 L 15.93,21.58 L 18.01,22.60 L 18.01,20.90 L 16.00,19.88 Z" fill="#121212" stroke="none" /><path d="M 6.23,19.81 L 6.23,21.51 L 8.31,22.54 L 8.31,20.83 L 6.30,19.81 Z" fill="#121212" stroke="none" /><path d="M 13.17,18.49 L 13.17,20.19 L 15.18,21.21 L 15.25,21.21 L 15.25,19.51 Z" fill="#121212" stroke="none" /><path d="M 3.47,18.42 L 3.47,20.12 L 5.48,21.14 L 5.55,21.14 L 5.55,19.44 Z" fill="#121212" stroke="none" /><path d="M 7.63,17.94 L 7.63,19.64 L 9.63,20.66 L 9.70,20.66 L 9.70,18.96 Z" fill="#121212" stroke="none" /><path d="M 1.40,17.40 L 1.40,19.10 L 2.69,19.74 L 2.76,19.74 L 2.76,18.04 L 1.46,17.40 Z" fill="#121212" stroke="none" /><path d="M 4.87,16.58 L 4.87,17.43 L 6.94,18.45 L 6.94,17.60 L 6.91,17.57 L 4.94,16.58 Z" fill="#121212" stroke="none" /><path d="M 9.02,16.10 L 9.02,17.80 L 9.63,18.11 L 9.70,18.11 L 9.70,16.44 Z" fill="#121212" stroke="none" /><path d="M 2.08,15.18 L 2.08,16.89 L 4.15,17.91 L 4.15,16.20 L 2.14,15.18 Z" fill="#121212" stroke="none" /><path d="M 6.23,14.71 L 6.23,15.56 L 6.26,15.59 L 8.24,16.58 L 8.31,16.58 L 8.31,15.73 Z" fill="#121212" stroke="none" /><path d="M 0.68,14.47 L 0.68,16.17 L 1.33,16.51 L 1.40,16.51 L 1.40,14.81 Z" fill="#121212" stroke="none" /><path d="M 3.47,13.34 L 3.47,14.20 L 5.55,15.22 L 5.55,14.37 L 5.51,14.33 L 3.54,13.34 Z" fill="#121212" stroke="none" /><path d="M 7.63,12.87 L 7.63,14.57 L 9.70,15.59 L 9.70,13.89 L 7.69,12.87 Z" fill="#121212" stroke="none" /><path d="M 0.68,11.95 L 0.68,13.62 L 0.71,13.65 L 2.01,14.30 L 2.08,14.30 L 2.08,13.55 L 2.11,13.51 L 2.76,13.82 L 2.76,12.97 L 2.72,12.94 L 0.75,11.95 Z" fill="#121212" stroke="none" /><path d="M 9.02,11.85 L 9.02,12.70 L 9.70,13.04 L 9.70,12.19 Z" fill="#121212" stroke="none" /><path d="M 4.87,11.47 L 4.87,12.32 L 6.16,12.97 L 6.23,13.04 L 6.23,13.86 L 6.88,14.20 L 6.94,14.20 L 6.94,12.49 Z" fill="#121212" stroke="none" /><path d="M 6.23,10.45 L 6.23,11.30 L 7.56,11.98 L 7.63,11.98 L 7.63,11.13 Z" fill="#121212" stroke="none" /><path d="M 2.08,10.08 L 2.08,11.78 L 2.11,11.81 L 2.76,12.12 L 2.76,11.34 L 2.83,11.30 L 4.09,11.95 L 4.15,11.95 L 4.15,11.10 Z" fill="#121212" stroke="none" /><path d="M 2.08,8.37 L 2.08,9.23 L 2.76,9.57 L 2.76,8.71 Z" fill="#121212" stroke="none" /><path d="M 22.67,27.74 L 22.67,27.78 L 22.77,27.88 L 22.91,27.95 L 23.29,28.26 L 23.42,28.26 L 24.03,27.95 L 24.00,27.88 L 23.97,27.88 L 23.86,27.78 L 23.83,27.78 L 23.73,27.68 L 23.69,27.68 L 23.59,27.57 L 23.56,27.57 L 23.39,27.44 L 23.29,27.44 Z" fill="#141414" stroke="none" /><path d="M 25.46,26.35 L 25.46,26.42 L 25.50,26.45 L 25.53,26.45 L 25.63,26.55 L 25.67,26.55 L 25.77,26.66 L 25.80,26.66 L 25.91,26.76 L 25.94,26.76 L 26.11,26.89 L 26.79,26.55 L 26.79,26.52 L 26.72,26.45 L 26.69,26.45 L 26.59,26.35 L 26.55,26.35 L 26.45,26.25 L 26.42,26.25 L 26.14,26.04 L 26.08,26.04 Z" fill="#141414" stroke="none" /><path d="M 17.87,25.91 L 17.87,25.94 L 17.91,25.94 L 18.01,26.04 L 18.04,26.04 L 18.14,26.14 L 18.18,26.14 L 18.28,26.25 L 18.31,26.25 L 18.42,26.35 L 18.45,26.35 L 18.55,26.45 L 18.59,26.45 L 18.69,26.55 L 18.72,26.55 L 18.83,26.66 L 18.86,26.66 L 19.51,27.17 L 19.64,27.23 L 19.88,27.44 L 19.98,27.44 L 20.60,27.13 L 20.60,27.06 L 20.56,27.06 L 20.46,26.96 L 20.43,26.96 L 20.32,26.86 L 20.29,26.86 L 20.19,26.76 L 20.15,26.76 L 20.05,26.66 L 20.02,26.66 L 19.91,26.55 L 19.88,26.55 L 19.78,26.45 L 19.74,26.45 L 19.64,26.35 L 19.61,26.35 L 19.51,26.25 L 19.47,26.25 L 19.37,26.14 L 19.34,26.14 L 19.23,26.04 L 19.20,26.04 L 19.10,25.94 L 19.06,25.94 L 18.96,25.84 L 18.93,25.84 L 18.59,25.57 Z" fill="#141414" stroke="none" /><path d="M 28.22,24.99 L 28.26,25.06 L 28.29,25.06 L 28.39,25.16 L 28.43,25.16 L 28.53,25.26 L 28.56,25.26 L 28.66,25.36 L 28.70,25.36 L 28.87,25.50 L 28.94,25.50 L 29.55,25.19 L 29.55,25.12 L 29.48,25.06 L 29.45,25.06 L 28.94,24.65 L 28.87,24.65 Z" fill="#141414" stroke="none" /><path d="M 28.29,23.32 L 27.61,23.66 L 27.61,23.69 L 27.68,23.76 L 27.71,23.76 L 27.81,23.86 L 27.85,23.86 L 28.19,24.14 L 28.26,24.14 L 28.90,23.80 L 28.90,23.76 L 28.87,23.76 L 28.77,23.66 L 28.73,23.66 L 28.63,23.56 L 28.60,23.56 L 28.49,23.46 L 28.46,23.46 Z" fill="#141414" stroke="none" /><path d="M 13.82,22.84 L 13.82,22.91 L 13.86,22.91 L 14.50,23.42 L 14.64,23.49 L 14.74,23.59 L 14.77,23.59 L 14.88,23.69 L 14.91,23.69 L 15.01,23.80 L 15.05,23.80 L 15.15,23.90 L 15.18,23.90 L 15.83,24.41 L 16.54,24.07 L 16.51,24.00 L 16.48,24.00 L 16.37,23.90 L 16.24,23.83 L 16.14,23.73 L 16.10,23.73 L 16.00,23.63 L 15.97,23.63 L 15.86,23.52 L 15.83,23.52 L 15.73,23.42 L 15.69,23.42 L 15.59,23.32 L 15.56,23.32 L 15.46,23.22 L 15.42,23.22 L 15.32,23.11 L 15.29,23.11 L 15.18,23.01 L 15.15,23.01 L 15.05,22.91 L 15.01,22.91 L 14.91,22.81 L 14.88,22.81 L 14.54,22.54 L 14.43,22.54 Z" fill="#141414" stroke="none" /><path d="M 19.95,27.44 L 19.95,27.47 L 20.02,27.54 L 20.05,27.54 L 20.15,27.64 L 20.19,27.64 L 20.29,27.74 L 20.32,27.74 L 20.43,27.85 L 20.46,27.85 L 20.56,27.95 L 20.60,27.95 L 21.24,28.46 L 21.31,28.46 L 21.96,28.12 L 21.92,28.05 L 21.89,28.05 L 21.79,27.95 L 21.75,27.95 L 21.38,27.64 L 21.24,27.57 L 21.14,27.47 L 21.11,27.47 L 21.00,27.37 L 20.97,27.37 L 20.63,27.10 Z" fill="#151515" stroke="none" /><path d="M 15.86,24.37 L 15.86,24.41 L 15.97,24.51 L 16.00,24.51 L 16.10,24.61 L 16.14,24.61 L 16.24,24.71 L 16.27,24.71 L 16.37,24.82 L 16.41,24.82 L 16.51,24.92 L 16.54,24.92 L 16.65,25.02 L 16.68,25.02 L 16.78,25.12 L 16.82,25.12 L 17.16,25.40 L 17.26,25.40 L 17.87,25.09 L 17.87,25.02 L 17.84,25.02 L 17.74,24.92 L 17.70,24.92 L 17.60,24.82 L 17.57,24.82 L 17.46,24.71 L 17.43,24.71 L 17.33,24.61 L 17.29,24.61 L 17.19,24.51 L 17.16,24.51 L 17.06,24.41 L 17.02,24.41 L 16.92,24.31 L 16.89,24.31 L 16.78,24.20 L 16.75,24.20 L 16.58,24.07 L 16.48,24.07 Z" fill="#151515" stroke="none" /><path d="M 28.26,24.10 L 28.26,24.17 L 28.32,24.24 L 28.36,24.24 L 28.87,24.65 L 28.94,24.65 L 29.58,24.31 L 29.58,24.27 L 29.55,24.27 L 29.45,24.17 L 29.41,24.17 L 29.31,24.07 L 29.28,24.07 L 28.94,23.80 L 28.87,23.80 Z" fill="#151515" stroke="none" /><path d="M 12.49,21.86 L 12.49,21.89 L 12.60,21.99 L 12.63,21.99 L 12.73,22.09 L 12.77,22.09 L 13.11,22.37 L 13.62,22.13 L 13.58,22.06 L 12.90,21.72 L 12.77,21.72 Z" fill="#151515" stroke="none" /><path d="M 23.35,28.26 L 23.32,28.26 L 22.94,27.95 L 22.81,27.88 L 22.71,27.78 L 22.60,27.78 L 21.31,28.43 L 21.31,28.49 L 21.65,28.77 L 21.69,28.77 L 21.79,28.87 L 21.82,28.87 L 21.92,28.97 L 21.99,28.97 L 23.35,28.29 Z" fill="#161616" stroke="none" /><path d="M 26.11,26.86 L 26.08,26.86 L 25.57,26.45 L 25.53,26.45 L 25.46,26.38 L 25.40,26.38 L 23.35,27.40 L 23.35,27.44 L 23.52,27.57 L 23.56,27.57 L 23.66,27.68 L 23.69,27.68 L 23.80,27.78 L 23.83,27.78 L 23.93,27.88 L 24.00,27.91 L 24.10,27.91 L 26.08,26.93 Z" fill="#161616" stroke="none" /><path d="M 17.19,25.40 L 17.19,25.43 L 17.23,25.43 L 17.33,25.53 L 17.36,25.53 L 17.46,25.63 L 17.50,25.63 L 17.84,25.91 L 17.94,25.91 L 18.55,25.60 L 18.55,25.53 L 18.52,25.53 L 18.42,25.43 L 18.38,25.43 L 18.28,25.33 L 18.25,25.33 L 17.91,25.06 Z" fill="#161616" stroke="none" /><path d="M 28.87,25.46 L 28.83,25.46 L 28.32,25.06 L 28.19,24.99 L 26.14,26.01 L 26.14,26.08 L 26.18,26.08 L 26.28,26.18 L 26.42,26.25 L 26.52,26.35 L 26.55,26.35 L 26.66,26.45 L 26.69,26.45 L 26.79,26.55 L 26.83,26.55 L 28.87,25.53 Z" fill="#161616" stroke="none" /><path d="M 28.94,24.61 L 28.94,24.68 L 29.00,24.75 L 29.04,24.75 L 29.55,25.16 L 29.62,25.16 L 30.26,24.82 L 30.23,24.75 L 30.09,24.68 L 29.99,24.58 L 29.96,24.58 L 29.62,24.31 L 29.55,24.31 Z" fill="#161616" stroke="none" /><path d="M 13.14,22.33 L 13.14,22.40 L 13.17,22.40 L 13.28,22.50 L 13.31,22.50 L 13.41,22.60 L 13.45,22.60 L 13.79,22.88 L 14.47,22.54 L 14.47,22.50 L 13.65,22.09 Z" fill="#161616" stroke="none" /><path d="M 20.12,21.07 L 20.15,21.14 L 22.13,22.13 L 22.23,22.13 L 22.84,21.82 L 22.84,21.75 L 20.87,20.77 L 20.73,20.77 Z" fill="#161616" stroke="none" /><path d="M 22.88,19.71 L 22.88,20.39 L 22.94,20.39 L 23.52,20.09 L 23.63,20.09 L 24.89,20.73 L 25.02,20.73 L 25.63,20.43 L 25.63,20.39 L 24.27,19.71 L 23.59,20.05 Z" fill="#161616" stroke="none" /><path d="M 27.03,19.00 L 27.03,19.03 L 27.71,19.37 L 28.39,19.03 L 28.39,19.00 L 27.78,18.69 L 27.64,18.69 Z" fill="#161616" stroke="none" /><path d="M 15.97,19.00 L 16.00,19.06 L 17.97,20.05 L 18.08,20.05 L 18.69,19.74 L 18.69,19.68 L 16.71,18.69 L 16.58,18.69 Z" fill="#161616" stroke="none" /><path d="M 22.88,18.69 L 22.16,18.35 L 20.80,19.03 L 20.80,19.06 L 21.45,19.40 L 21.51,19.40 L 22.88,18.72 Z" fill="#161616" stroke="none" /><path d="M 25.67,18.31 L 25.67,18.35 L 26.28,18.66 L 26.42,18.66 L 27.03,18.35 L 27.03,18.31 L 26.35,17.97 Z" fill="#161616" stroke="none" /><path d="M 18.72,18.01 L 18.72,18.04 L 19.34,18.35 L 19.47,18.35 L 20.09,18.04 L 20.05,17.97 L 19.44,17.67 L 19.37,17.67 Z" fill="#161616" stroke="none" /><path d="M 14.60,17.60 L 14.60,17.67 L 15.22,17.97 L 15.29,17.97 L 15.90,17.67 L 15.90,17.60 L 15.29,17.29 L 15.22,17.29 Z" fill="#161616" stroke="none" /><path d="M 28.43,16.95 L 28.43,17.63 L 29.07,17.33 L 29.07,17.26 L 28.83,17.16 L 28.77,17.09 L 28.70,17.09 Z" fill="#161616" stroke="none" /><path d="M 12.49,17.26 L 12.53,17.33 L 13.82,17.97 L 13.92,17.97 L 14.54,17.67 L 14.54,17.60 L 13.24,16.95 L 13.11,16.95 Z" fill="#161616" stroke="none" /><path d="M 22.88,16.92 L 22.88,16.95 L 23.56,17.29 L 24.24,16.95 L 24.24,16.92 L 23.63,16.61 L 23.49,16.61 Z" fill="#161616" stroke="none" /><path d="M 28.39,15.90 L 28.32,15.90 L 28.26,15.83 L 28.05,15.73 L 27.98,15.73 L 27.91,15.66 L 27.85,15.66 L 27.78,15.59 L 27.68,15.59 L 26.38,16.24 L 26.35,16.31 L 26.96,16.61 L 27.10,16.61 L 28.39,15.97 Z" fill="#161616" stroke="none" /><path d="M 24.61,15.05 L 24.31,14.88 L 24.20,14.88 L 23.59,15.18 L 23.59,15.22 L 24.27,15.56 L 24.27,15.25 L 24.61,15.08 Z" fill="#161616" stroke="none" /><path d="M 24.95,14.88 L 24.95,14.91 L 25.63,15.25 L 26.35,14.91 L 26.35,14.88 L 26.28,14.88 L 26.21,14.81 L 26.01,14.71 L 25.94,14.71 L 25.87,14.64 L 25.80,14.64 L 25.67,14.54 Z" fill="#161616" stroke="none" /><path d="M 22.88,14.88 L 22.88,14.84 L 22.30,14.57 L 22.23,14.50 L 22.84,14.20 L 22.84,14.13 L 22.77,14.13 L 22.20,13.82 L 20.80,14.50 L 20.80,14.54 L 22.16,15.22 Z" fill="#161616" stroke="none" /><path d="M 6.26,9.60 L 6.26,9.63 L 8.31,10.66 L 8.99,10.31 L 8.99,10.28 L 6.94,9.26 Z" fill="#161616" stroke="none" /><path d="M 15.22,9.23 L 14.60,8.92 L 14.54,8.92 L 13.89,9.26 L 13.89,9.29 L 14.47,9.57 L 14.50,9.60 L 14.43,9.67 L 12.53,10.62 L 12.43,10.62 L 11.85,10.31 L 11.74,10.31 L 11.13,10.62 L 11.13,10.69 L 11.74,11.00 L 10.45,11.64 L 10.42,11.71 L 11.03,12.02 L 11.17,12.02 L 12.46,11.37 L 12.43,11.30 L 11.85,11.03 L 11.81,11.00 L 11.85,10.96 L 12.49,10.66 L 13.14,11.00 L 13.21,11.00 L 15.25,9.97 L 15.25,9.94 L 14.67,9.67 L 14.60,9.60 L 15.22,9.29 Z" fill="#161616" stroke="none" /><path d="M 18.01,8.54 L 17.40,8.24 L 17.26,8.24 L 15.29,9.23 L 15.29,9.29 L 15.90,9.60 L 16.00,9.60 L 17.97,8.61 Z" fill="#161616" stroke="none" /><path d="M 10.42,7.52 L 10.38,7.52 L 10.38,8.20 L 10.31,8.27 L 9.74,8.54 L 9.74,8.61 L 10.35,8.92 L 10.42,8.92 L 11.06,8.58 L 11.06,8.54 L 10.45,8.24 L 10.52,8.17 L 11.10,7.90 L 11.10,7.86 Z" fill="#161616" stroke="none" /><path d="M 2.11,7.52 L 2.11,7.56 L 4.15,8.58 L 4.83,8.24 L 5.51,8.58 L 5.58,8.58 L 6.26,8.24 L 7.59,8.92 L 7.66,8.92 L 8.31,8.58 L 8.31,8.54 L 6.26,7.52 L 4.90,8.20 L 4.80,8.20 L 2.79,7.18 Z" fill="#161616" stroke="none" /><path d="M 4.87,6.84 L 4.87,6.16 L 4.80,6.16 L 4.19,6.47 L 4.22,6.54 Z" fill="#161616" stroke="none" /><path d="M 22.16,6.47 L 21.55,6.16 L 21.41,6.16 L 20.83,6.47 L 20.73,6.47 L 19.51,5.86 L 19.47,5.82 L 19.51,5.75 L 20.09,5.48 L 20.09,5.45 L 19.44,5.11 L 19.37,5.11 L 18.08,5.75 L 18.04,5.82 L 19.98,6.77 L 20.05,6.84 L 18.01,7.86 L 18.01,7.90 L 18.72,8.24 L 20.77,7.22 L 20.77,7.15 L 20.19,6.88 L 20.15,6.84 L 20.22,6.77 L 20.80,6.50 L 21.45,6.84 L 21.51,6.84 L 22.13,6.54 Z" fill="#161616" stroke="none" /><path d="M 3.44,5.45 L 2.79,5.11 L 2.72,5.11 L 0.68,6.13 L 0.68,6.16 L 1.36,6.50 L 2.04,6.16 L 2.11,6.16 L 2.79,6.50 L 3.47,6.16 L 3.47,6.13 L 2.89,5.86 L 2.83,5.79 L 3.44,5.48 Z" fill="#161616" stroke="none" /><path d="M 16.00,4.77 L 15.93,4.77 L 15.93,5.45 L 15.25,5.79 L 15.25,5.82 L 15.86,6.13 L 16.00,6.13 L 16.61,5.82 L 16.58,5.75 L 16.07,5.51 L 16.00,5.45 L 16.61,5.14 L 16.61,5.07 Z" fill="#161616" stroke="none" /><path d="M 11.13,5.07 L 11.13,5.14 L 13.11,6.13 L 13.24,6.13 L 13.86,5.82 L 13.86,5.79 L 11.81,4.77 L 11.74,4.77 Z" fill="#161616" stroke="none" /><path d="M 16.65,4.39 L 16.68,4.46 L 17.29,4.77 L 17.36,4.77 L 18.01,4.43 L 18.01,4.39 L 17.40,4.09 L 17.26,4.09 Z" fill="#161616" stroke="none" /><path d="M 4.87,4.05 L 3.47,4.73 L 3.47,4.77 L 4.12,5.11 L 4.19,5.11 L 4.87,4.77 Z" fill="#161616" stroke="none" /><path d="M 10.38,3.40 L 10.31,3.40 L 9.70,3.71 L 9.70,3.74 L 10.31,4.05 L 10.38,4.05 Z" fill="#161616" stroke="none" /><path d="M 8.99,2.66 L 8.37,2.35 L 8.24,2.35 L 6.88,3.03 L 6.88,3.06 L 7.52,3.40 L 7.59,3.40 L 8.95,2.72 Z" fill="#161616" stroke="none" /><path d="M 10.38,1.29 L 9.06,1.94 L 9.02,2.01 L 9.63,2.31 L 9.77,2.31 L 10.38,2.01 Z" fill="#161616" stroke="none" /><path d="M 21.51,21.07 L 21.55,21.14 L 22.16,21.45 L 22.84,21.11 L 22.84,21.07 L 22.23,20.77 L 22.13,20.77 Z" fill="#171717" stroke="none" /><path d="M 18.04,20.05 L 18.04,20.09 L 19.34,20.73 L 19.47,20.73 L 20.09,20.43 L 20.05,20.36 L 18.76,19.71 L 18.69,19.71 Z" fill="#171717" stroke="none" /><path d="M 24.27,19.71 L 24.27,19.74 L 24.89,20.05 L 24.99,20.05 L 25.60,19.74 L 25.60,19.68 L 24.99,19.37 L 24.92,19.37 Z" fill="#171717" stroke="none" /><path d="M 17.33,19.00 L 17.33,19.03 L 18.01,19.37 L 18.69,19.03 L 18.69,19.00 L 18.08,18.69 L 17.94,18.69 Z" fill="#171717" stroke="none" /><path d="M 13.89,17.97 L 13.89,18.01 L 15.18,18.66 L 15.32,18.66 L 16.61,18.01 L 16.58,17.94 L 15.97,17.63 L 15.90,17.63 L 15.25,17.97 L 14.60,17.63 L 14.54,17.63 Z" fill="#171717" stroke="none" /><path d="M 19.40,18.38 L 20.12,18.72 L 21.48,18.04 L 21.48,18.01 L 20.15,17.33 L 20.05,17.33 L 19.44,17.63 L 19.44,17.70 L 20.05,18.01 L 19.98,18.08 L 19.40,18.35 Z" fill="#171717" stroke="none" /><path d="M 29.79,17.60 L 29.72,17.60 L 29.14,17.29 L 29.07,17.29 L 27.78,17.94 L 27.74,18.01 L 28.36,18.31 L 28.46,18.31 L 29.75,17.67 Z" fill="#171717" stroke="none" /><path d="M 23.59,17.26 L 23.63,17.33 L 24.92,17.97 L 24.99,17.97 L 25.60,17.67 L 25.60,17.60 L 24.31,16.95 L 24.20,16.95 Z" fill="#171717" stroke="none" /><path d="M 13.17,16.92 L 13.17,16.95 L 13.86,17.29 L 14.54,16.95 L 14.54,16.92 L 13.92,16.61 L 13.79,16.61 Z" fill="#171717" stroke="none" /><path d="M 22.91,15.52 L 22.91,15.59 L 24.20,16.24 L 24.27,16.24 L 24.27,15.56 L 24.24,15.52 L 23.63,15.22 L 23.52,15.22 Z" fill="#171717" stroke="none" /><path d="M 24.27,15.22 L 24.31,15.29 L 25.60,15.93 L 25.70,15.93 L 27.03,15.25 L 27.03,15.22 L 26.89,15.18 L 26.83,15.11 L 26.76,15.11 L 26.69,15.05 L 26.55,15.01 L 26.49,14.94 L 26.42,14.94 L 26.38,14.91 L 26.28,14.91 L 25.70,15.22 L 25.60,15.22 L 25.02,14.91 L 24.89,14.91 Z" fill="#171717" stroke="none" /><path d="M 22.20,14.50 L 22.20,14.54 L 22.81,14.84 L 22.94,14.84 L 23.56,14.54 L 23.52,14.47 L 23.46,14.47 L 22.88,14.16 Z" fill="#171717" stroke="none" /><path d="M 20.12,13.45 L 20.15,13.51 L 20.77,13.82 L 20.83,13.82 L 21.45,13.51 L 21.45,13.45 L 20.83,13.14 L 20.73,13.14 Z" fill="#171717" stroke="none" /><path d="M 11.81,10.96 L 11.81,11.03 L 12.43,11.34 L 12.53,11.34 L 13.14,11.03 L 13.14,10.96 L 12.53,10.66 L 12.43,10.66 Z" fill="#171717" stroke="none" /><path d="M 8.34,10.62 L 8.37,10.69 L 9.67,11.34 L 9.77,11.34 L 11.06,10.69 L 11.06,10.62 L 10.45,10.31 L 10.35,10.31 L 9.70,10.66 L 9.06,10.31 L 8.95,10.31 Z" fill="#171717" stroke="none" /><path d="M 14.57,9.60 L 14.57,9.63 L 15.18,9.94 L 15.32,9.94 L 15.93,9.63 L 15.90,9.57 L 15.29,9.26 L 15.22,9.26 Z" fill="#171717" stroke="none" /><path d="M 9.06,8.89 L 9.06,8.95 L 9.67,9.26 L 9.74,9.26 L 10.35,8.95 L 10.35,8.89 L 9.74,8.58 L 9.67,8.58 Z" fill="#171717" stroke="none" /><path d="M 7.66,8.89 L 7.66,8.95 L 8.27,9.26 L 8.37,9.26 L 8.99,8.95 L 8.99,8.89 L 8.37,8.58 L 8.27,8.58 Z" fill="#171717" stroke="none" /><path d="M 4.19,8.54 L 4.22,8.61 L 5.51,9.26 L 5.58,9.26 L 6.91,8.58 L 6.91,8.54 L 6.30,8.24 L 6.20,8.24 L 5.55,8.58 L 4.90,8.24 L 4.80,8.24 Z" fill="#171717" stroke="none" /><path d="M 17.33,8.20 L 17.33,8.24 L 18.01,8.58 L 18.69,8.24 L 18.69,8.20 L 18.08,7.90 L 17.94,7.90 Z" fill="#171717" stroke="none" /><path d="M 4.19,7.15 L 4.19,7.22 L 4.80,7.52 L 4.90,7.52 L 5.51,7.22 L 5.51,7.15 L 4.90,6.84 L 4.80,6.84 Z" fill="#171717" stroke="none" /><path d="M 20.12,6.81 L 20.15,6.88 L 20.77,7.18 L 20.83,7.18 L 21.45,6.88 L 21.45,6.81 L 20.83,6.50 L 20.73,6.50 Z" fill="#171717" stroke="none" /><path d="M 0.00,6.47 L 0.00,6.50 L 1.36,7.18 L 1.43,7.18 L 2.76,6.50 L 2.76,6.47 L 2.14,6.16 L 2.01,6.16 L 1.43,6.47 L 1.33,6.47 L 0.75,6.16 L 0.61,6.16 Z" fill="#171717" stroke="none" /><path d="M 13.17,6.13 L 13.17,6.16 L 13.86,6.50 L 14.54,6.16 L 15.22,6.50 L 15.93,6.16 L 15.93,6.13 L 15.32,5.82 L 15.18,5.82 L 14.60,6.13 L 14.50,6.13 L 13.92,5.82 L 13.79,5.82 Z" fill="#171717" stroke="none" /><path d="M 19.40,5.79 L 19.40,5.82 L 20.09,6.16 L 20.80,5.82 L 20.80,5.79 L 20.12,5.45 Z" fill="#171717" stroke="none" /><path d="M 2.79,5.07 L 2.79,5.14 L 3.40,5.45 L 3.34,5.51 L 2.83,5.75 L 2.79,5.82 L 3.40,6.13 L 3.54,6.13 L 4.83,5.48 L 4.80,5.41 L 3.51,4.77 L 3.40,4.77 Z" fill="#171717" stroke="none" /><path d="M 17.36,4.73 L 17.36,4.80 L 17.97,5.11 L 18.04,5.11 L 18.69,4.77 L 18.69,4.73 L 18.08,4.43 L 17.97,4.43 Z" fill="#171717" stroke="none" /><path d="M 9.70,4.39 L 9.70,4.43 L 10.38,4.77 L 11.06,4.43 L 11.06,4.39 L 10.45,4.09 L 10.31,4.09 Z" fill="#171717" stroke="none" /><path d="M 15.93,3.37 L 15.93,4.05 L 16.00,4.05 L 16.61,3.74 L 16.58,3.68 Z" fill="#171717" stroke="none" /><path d="M 8.31,2.31 L 8.31,2.35 L 9.67,3.03 L 9.74,3.03 L 10.38,2.69 L 10.38,2.01 L 10.31,2.01 L 9.74,2.31 L 9.67,2.31 L 8.99,1.97 Z" fill="#171717" stroke="none" /><path d="M 24.95,20.73 L 24.24,20.39 L 22.20,21.41 L 22.20,21.45 L 22.84,21.79 L 22.91,21.79 L 24.95,20.77 Z" fill="#181818" stroke="none" /><path d="M 19.40,20.73 L 19.40,20.77 L 20.09,21.11 L 20.80,20.77 L 20.80,20.73 L 20.12,20.39 Z" fill="#181818" stroke="none" /><path d="M 27.71,19.34 L 27.10,19.03 L 26.96,19.03 L 24.99,20.02 L 24.95,20.09 L 25.57,20.39 L 25.70,20.39 L 27.68,19.40 Z" fill="#181818" stroke="none" /><path d="M 18.72,19.71 L 18.72,19.03 L 18.66,19.03 L 18.04,19.34 L 18.08,19.40 Z" fill="#181818" stroke="none" /><path d="M 15.25,18.66 L 15.25,18.69 L 15.93,19.03 L 16.65,18.69 L 16.65,18.66 L 15.97,18.31 Z" fill="#181818" stroke="none" /><path d="M 22.16,18.35 L 21.48,18.01 L 20.12,18.69 L 20.12,18.72 L 20.80,19.06 L 22.16,18.38 Z" fill="#181818" stroke="none" /><path d="M 30.47,17.97 L 29.82,17.63 L 29.75,17.63 L 27.71,18.66 L 27.71,18.69 L 28.43,19.03 L 30.47,18.01 Z" fill="#181818" stroke="none" /><path d="M 24.99,17.94 L 24.99,18.01 L 25.60,18.31 L 25.70,18.31 L 26.31,18.01 L 26.28,17.94 L 25.67,17.63 L 25.60,17.63 Z" fill="#181818" stroke="none" /><path d="M 13.89,17.26 L 13.92,17.33 L 14.54,17.63 L 14.60,17.63 L 15.22,17.33 L 15.22,17.26 L 14.60,16.95 L 14.50,16.95 Z" fill="#181818" stroke="none" /><path d="M 24.27,16.24 L 23.56,16.58 L 23.56,16.61 L 24.27,16.95 Z" fill="#181818" stroke="none" /><path d="M 27.71,15.56 L 27.44,15.42 L 27.37,15.42 L 27.30,15.35 L 27.10,15.25 L 27.00,15.25 L 25.70,15.90 L 25.67,15.97 L 26.28,16.27 L 26.38,16.27 L 27.68,15.63 Z" fill="#181818" stroke="none" /><path d="M 22.88,14.84 L 22.88,14.88 L 23.56,15.22 L 24.24,14.88 L 24.24,14.84 L 23.63,14.54 L 23.49,14.54 Z" fill="#181818" stroke="none" /><path d="M 22.16,13.79 L 22.09,13.79 L 21.51,13.48 L 21.45,13.48 L 20.15,14.13 L 20.12,14.20 L 20.73,14.50 L 20.87,14.50 L 22.16,13.86 Z" fill="#181818" stroke="none" /><path d="M 11.74,10.96 L 11.13,10.66 L 11.06,10.66 L 9.77,11.30 L 9.74,11.37 L 10.35,11.68 L 10.45,11.68 L 11.74,11.03 Z" fill="#181818" stroke="none" /><path d="M 13.86,9.94 L 13.24,9.63 L 13.11,9.63 L 11.81,10.28 L 11.81,10.31 L 12.49,10.66 L 13.86,9.97 Z" fill="#181818" stroke="none" /><path d="M 5.58,9.23 L 5.58,9.29 L 6.20,9.60 L 6.30,9.60 L 6.91,9.29 L 6.88,9.23 L 6.26,8.92 L 6.20,8.92 Z" fill="#181818" stroke="none" /><path d="M 14.60,8.89 L 14.60,8.95 L 15.22,9.26 L 15.29,9.26 L 15.90,8.95 L 15.90,8.89 L 15.29,8.58 L 15.22,8.58 Z" fill="#181818" stroke="none" /><path d="M 6.23,7.52 L 5.58,7.18 L 5.51,7.18 L 4.15,7.86 L 4.15,7.90 L 4.87,8.24 L 6.23,7.56 Z" fill="#181818" stroke="none" /><path d="M 20.09,6.81 L 19.47,6.50 L 19.37,6.50 L 17.33,7.52 L 17.33,7.56 L 17.94,7.86 L 18.08,7.86 L 20.05,6.88 Z" fill="#181818" stroke="none" /><path d="M 3.44,6.81 L 2.83,6.50 L 2.72,6.50 L 1.43,7.15 L 1.43,7.22 L 2.04,7.52 L 2.14,7.52 L 3.44,6.88 Z" fill="#181818" stroke="none" /><path d="M 20.12,6.13 L 20.15,6.20 L 20.77,6.50 L 21.48,6.16 L 21.48,6.13 L 20.87,5.82 L 20.73,5.82 Z" fill="#181818" stroke="none" /><path d="M 18.04,5.07 L 18.04,5.14 L 18.66,5.45 L 18.76,5.45 L 19.37,5.14 L 19.37,5.07 L 18.76,4.77 L 18.66,4.77 Z" fill="#181818" stroke="none" /><path d="M 10.42,4.73 L 10.45,4.80 L 11.06,5.11 L 11.13,5.11 L 11.74,4.80 L 11.74,4.73 L 11.13,4.43 L 11.03,4.43 Z" fill="#181818" stroke="none" /><path d="M 15.93,4.05 L 15.93,4.09 L 16.61,4.43 L 17.33,4.09 L 17.33,4.05 L 16.65,3.71 Z" fill="#181818" stroke="none" /><path d="M 21.82,18.14 L 21.86,18.21 L 22.47,18.52 L 22.54,18.52 L 22.84,18.35 L 22.91,18.35 L 24.14,18.96 L 24.20,19.03 L 22.91,19.68 L 22.91,19.74 L 23.52,20.05 L 23.63,20.05 L 24.92,19.40 L 24.92,19.34 L 24.31,19.03 L 24.37,18.96 L 24.92,18.69 L 24.99,18.69 L 25.63,19.03 L 26.31,18.69 L 26.38,18.69 L 26.96,19.00 L 27.10,19.00 L 27.71,18.69 L 27.71,18.66 L 27.10,18.35 L 26.96,18.35 L 26.38,18.66 L 26.31,18.66 L 25.67,18.31 L 24.99,18.66 L 24.92,18.66 L 23.69,18.04 L 23.63,17.97 L 24.24,17.67 L 24.24,17.60 L 23.63,17.29 L 23.52,17.29 Z" fill="#1a1a1a" stroke="none" /><path d="M 15.29,15.86 L 15.29,15.93 L 16.58,16.58 L 16.54,16.65 L 15.29,17.26 L 15.29,17.33 L 17.23,18.28 L 17.26,18.31 L 17.23,18.38 L 16.65,18.66 L 16.65,18.69 L 17.26,19.00 L 17.40,19.00 L 18.01,18.69 L 18.01,18.66 L 17.40,18.35 L 17.43,18.28 L 17.97,18.01 L 18.08,18.01 L 18.66,18.31 L 18.72,18.31 L 18.72,18.04 L 18.79,17.97 L 20.09,17.33 L 20.36,17.46 L 20.46,17.46 L 20.73,17.33 L 20.77,17.26 L 20.15,16.95 L 20.22,16.89 L 20.77,16.61 L 20.83,16.61 L 21.41,16.92 L 21.55,16.92 L 22.13,16.61 L 22.23,16.61 L 22.81,16.92 L 22.94,16.92 L 23.56,16.61 L 23.56,16.58 L 22.98,16.31 L 22.91,16.24 L 23.52,15.93 L 23.52,15.86 L 22.91,15.56 L 23.52,15.25 L 23.56,15.18 L 22.94,14.88 L 22.81,14.88 L 22.20,15.18 L 22.23,15.25 L 22.81,15.52 L 22.84,15.56 L 22.81,15.59 L 20.83,16.58 L 20.77,16.58 L 19.44,15.90 L 20.09,15.56 L 20.09,15.52 L 19.47,15.22 L 19.54,15.15 L 20.09,14.88 L 20.80,15.22 L 21.48,14.88 L 21.48,14.84 L 20.87,14.54 L 20.73,14.54 L 20.15,14.84 L 20.05,14.84 L 18.72,14.16 L 18.08,14.47 L 18.04,14.54 L 19.30,15.15 L 19.37,15.22 L 17.36,16.24 L 17.29,16.24 L 15.97,15.56 L 15.90,15.56 Z" fill="#1a1a1a" stroke="none" /><path d="M 6.94,9.26 L 6.94,9.29 L 7.56,9.60 L 7.69,9.60 L 8.31,9.29 L 8.27,9.23 L 7.66,8.92 L 7.59,8.92 Z" fill="#1a1a1a" stroke="none" /><path d="M 11.74,8.89 L 11.13,8.58 L 11.03,8.58 L 10.42,8.89 L 10.42,8.95 L 11.03,9.26 L 10.96,9.33 L 9.02,10.28 L 9.02,10.31 L 9.67,10.66 L 9.74,10.66 L 10.38,10.31 L 11.06,10.66 L 11.13,10.66 L 11.74,10.35 L 11.78,10.28 L 11.20,10.01 L 11.17,9.94 L 11.78,9.63 L 11.78,9.60 L 11.20,9.33 L 11.13,9.26 L 11.74,8.95 Z" fill="#1a1a1a" stroke="none" /><path d="M 10.38,6.84 L 10.38,7.52 L 10.45,7.52 L 11.06,7.22 L 11.06,7.15 L 10.45,6.84 Z" fill="#1a1a1a" stroke="none" /><path d="M 3.40,6.16 L 2.79,6.47 L 2.83,6.54 L 3.44,6.84 L 2.83,7.15 L 2.79,7.22 L 3.40,7.52 L 3.51,7.52 L 4.12,7.22 L 4.12,7.15 L 3.51,6.84 L 4.12,6.54 L 4.15,6.47 L 3.54,6.16 Z" fill="#1a1a1a" stroke="none" /><path d="M 18.72,6.13 L 18.04,5.79 L 17.36,6.13 L 17.29,6.13 L 16.61,5.79 L 15.93,6.13 L 15.93,6.16 L 16.51,6.43 L 16.58,6.50 L 16.54,6.54 L 14.57,7.52 L 13.21,6.84 L 13.86,6.50 L 13.86,6.47 L 13.24,6.16 L 13.11,6.16 L 11.13,7.15 L 11.13,7.22 L 11.74,7.52 L 11.85,7.52 L 12.43,7.22 L 12.53,7.22 L 13.75,7.83 L 13.79,7.86 L 13.75,7.93 L 11.81,8.89 L 11.81,8.95 L 12.43,9.26 L 12.53,9.26 L 13.17,8.92 L 13.82,9.26 L 13.92,9.26 L 14.54,8.95 L 14.54,8.89 L 13.92,8.58 L 13.99,8.51 L 14.54,8.24 L 14.54,8.20 L 13.96,7.93 L 13.92,7.90 L 13.96,7.83 L 14.50,7.56 L 14.60,7.56 L 15.18,7.86 L 15.32,7.86 L 15.90,7.56 L 16.00,7.56 L 17.26,8.20 L 17.40,8.20 L 18.01,7.90 L 18.01,7.86 L 16.75,7.25 L 16.68,7.18 L 17.29,6.88 L 17.29,6.81 L 16.68,6.50 L 16.75,6.43 L 17.29,6.16 L 17.36,6.16 L 18.04,6.50 L 18.72,6.16 Z" fill="#1a1a1a" stroke="none" /><path d="M 10.42,5.45 L 10.42,5.48 L 11.03,5.79 L 11.13,5.79 L 11.74,5.48 L 11.74,5.41 L 11.13,5.11 L 11.06,5.11 Z" fill="#1a1a1a" stroke="none" /><path d="M 15.93,4.09 L 15.93,4.77 L 16.61,4.43 L 16.61,4.39 L 16.00,4.09 Z" fill="#1a1a1a" stroke="none" /><path d="M 7.66,3.34 L 7.66,3.40 L 8.92,4.02 L 8.95,4.05 L 8.95,4.12 L 9.57,4.43 L 9.70,4.43 L 9.70,4.39 L 9.09,4.09 L 9.12,4.02 L 9.70,3.74 L 9.70,3.71 L 8.34,3.03 L 8.27,3.03 Z" fill="#1a1a1a" stroke="none" /><path d="M 24.27,19.00 L 24.31,19.06 L 24.92,19.37 L 24.99,19.37 L 25.63,19.03 L 25.63,19.00 L 25.02,18.69 L 24.89,18.69 Z" fill="#1b1b1b" stroke="none" /><path d="M 18.69,18.31 L 18.01,17.97 L 17.33,18.31 L 17.33,18.35 L 17.94,18.66 L 18.08,18.66 L 18.69,18.35 Z" fill="#1b1b1b" stroke="none" /><path d="M 20.12,16.92 L 20.15,16.99 L 20.77,17.29 L 21.48,16.95 L 21.48,16.92 L 20.87,16.61 L 20.73,16.61 Z" fill="#1b1b1b" stroke="none" /><path d="M 16.65,16.58 L 16.65,16.61 L 17.26,16.92 L 17.40,16.92 L 18.01,16.61 L 18.01,16.58 L 17.40,16.27 L 17.26,16.27 Z" fill="#1b1b1b" stroke="none" /><path d="M 19.44,15.18 L 19.47,15.25 L 20.09,15.56 L 20.77,15.22 L 20.77,15.18 L 20.15,14.88 L 20.05,14.88 Z" fill="#1b1b1b" stroke="none" /><path d="M 11.10,9.26 L 11.10,9.29 L 11.71,9.60 L 11.85,9.60 L 12.46,9.29 L 12.43,9.23 L 11.81,8.92 L 11.74,8.92 Z" fill="#1b1b1b" stroke="none" /><path d="M 13.86,7.86 L 13.86,7.90 L 14.54,8.24 L 15.25,7.90 L 15.25,7.86 L 14.57,7.52 Z" fill="#1b1b1b" stroke="none" /><path d="M 10.42,7.52 L 10.42,7.56 L 11.03,7.86 L 11.17,7.86 L 11.78,7.56 L 11.74,7.49 L 11.13,7.18 L 11.06,7.18 Z" fill="#1b1b1b" stroke="none" /><path d="M 3.51,6.81 L 3.51,6.88 L 4.12,7.18 L 4.19,7.18 L 4.83,6.84 L 4.83,6.81 L 4.22,6.50 L 4.12,6.50 Z" fill="#1b1b1b" stroke="none" /><path d="M 16.65,6.47 L 16.68,6.54 L 17.29,6.84 L 17.36,6.84 L 18.01,6.50 L 18.01,6.47 L 17.40,6.16 L 17.26,6.16 Z" fill="#1b1b1b" stroke="none" /><path d="M 10.38,5.45 L 10.38,6.13 L 10.45,6.13 L 11.06,5.82 L 11.03,5.75 Z" fill="#1b1b1b" stroke="none" /><path d="M 15.97,4.73 L 16.00,4.80 L 16.61,5.11 L 16.68,5.11 L 17.29,4.80 L 17.29,4.73 L 16.68,4.43 L 16.58,4.43 Z" fill="#1b1b1b" stroke="none" /><path d="M 9.02,4.05 L 9.02,4.09 L 9.63,4.39 L 9.77,4.39 L 10.38,4.09 L 10.38,4.05 L 9.77,3.74 L 9.63,3.74 Z" fill="#1b1b1b" stroke="none" /><path d="M 24.24,20.39 L 23.56,20.05 L 22.20,20.73 L 22.20,20.77 L 22.88,21.11 L 24.24,20.43 Z" fill="#1c1c1c" stroke="none" /><path d="M 27.03,19.00 L 26.42,18.69 L 26.28,18.69 L 24.99,19.34 L 24.99,19.40 L 25.60,19.71 L 25.67,19.71 L 27.03,19.03 Z" fill="#1c1c1c" stroke="none" /><path d="M 22.54,18.49 L 22.54,18.55 L 22.88,18.72 L 22.88,19.71 L 24.24,19.03 L 24.24,19.00 L 22.94,18.35 L 22.81,18.35 Z" fill="#1c1c1c" stroke="none" /><path d="M 18.72,18.31 L 18.01,18.66 L 18.01,18.69 L 18.72,19.03 Z" fill="#1c1c1c" stroke="none" /><path d="M 28.39,18.31 L 27.71,17.97 L 27.03,18.31 L 27.03,18.35 L 27.64,18.66 L 27.78,18.66 L 28.39,18.35 Z" fill="#1c1c1c" stroke="none" /><path d="M 15.97,18.31 L 15.97,18.35 L 16.58,18.66 L 16.71,18.66 L 17.33,18.35 L 17.33,18.31 L 16.65,17.97 Z" fill="#1c1c1c" stroke="none" /><path d="M 23.59,17.97 L 23.59,18.01 L 24.89,18.66 L 25.02,18.66 L 25.63,18.35 L 25.60,18.28 L 24.31,17.63 L 24.24,17.63 Z" fill="#1c1c1c" stroke="none" /><path d="M 23.56,17.26 L 22.16,16.58 L 20.46,17.43 L 20.43,17.50 L 21.82,18.18 L 23.52,17.33 Z" fill="#1c1c1c" stroke="none" /><path d="M 20.09,16.92 L 18.69,16.24 L 16.65,17.26 L 16.65,17.29 L 17.97,17.97 L 18.08,17.97 L 20.05,16.99 Z" fill="#1c1c1c" stroke="none" /><path d="M 22.88,16.24 L 22.88,16.27 L 23.49,16.58 L 23.63,16.58 L 24.24,16.27 L 24.20,16.20 L 23.59,15.90 L 23.52,15.90 Z" fill="#1c1c1c" stroke="none" /><path d="M 13.86,16.58 L 13.86,16.61 L 15.22,17.29 L 15.29,17.29 L 16.65,16.61 L 16.65,16.58 L 15.29,15.90 L 15.22,15.90 Z" fill="#1c1c1c" stroke="none" /><path d="M 22.84,15.52 L 21.55,14.88 L 21.41,14.88 L 19.44,15.86 L 19.44,15.93 L 20.73,16.58 L 20.87,16.58 L 22.84,15.59 Z" fill="#1c1c1c" stroke="none" /><path d="M 19.40,15.18 L 18.01,14.50 L 15.97,15.52 L 15.97,15.59 L 17.26,16.24 L 17.40,16.24 L 19.37,15.25 Z" fill="#1c1c1c" stroke="none" /><path d="M 20.80,14.54 L 20.80,14.50 L 20.22,14.23 L 20.15,14.16 L 20.77,13.86 L 20.77,13.79 L 20.15,13.48 L 20.05,13.48 L 18.72,14.16 L 18.72,14.20 L 20.09,14.88 Z" fill="#1c1c1c" stroke="none" /><path d="M 14.54,9.60 L 13.21,8.92 L 13.14,8.92 L 11.10,9.94 L 11.10,9.97 L 11.81,10.31 L 13.14,9.63 L 13.21,9.63 L 13.79,9.94 L 13.92,9.94 L 14.54,9.63 Z" fill="#1c1c1c" stroke="none" /><path d="M 7.63,9.63 L 9.02,10.31 L 11.06,9.29 L 11.06,9.26 L 10.42,8.92 L 10.35,8.92 L 9.70,9.26 L 9.06,8.92 L 8.99,8.92 L 7.63,9.60 Z" fill="#1c1c1c" stroke="none" /><path d="M 6.26,8.89 L 6.26,8.95 L 6.88,9.26 L 6.98,9.26 L 7.59,8.95 L 7.59,8.89 L 6.98,8.58 L 6.88,8.58 Z" fill="#1c1c1c" stroke="none" /><path d="M 17.33,8.20 L 15.93,7.52 L 13.89,8.54 L 13.89,8.58 L 14.54,8.92 L 14.60,8.92 L 15.25,8.58 L 15.90,8.92 L 15.97,8.92 L 17.33,8.24 Z" fill="#1c1c1c" stroke="none" /><path d="M 13.86,7.86 L 12.46,7.18 L 10.42,8.20 L 10.42,8.24 L 11.74,8.92 L 11.81,8.92 L 13.86,7.90 Z" fill="#1c1c1c" stroke="none" /><path d="M 3.47,7.52 L 3.47,7.56 L 4.09,7.86 L 4.22,7.86 L 4.83,7.56 L 4.80,7.49 L 4.19,7.18 L 4.12,7.18 Z" fill="#1c1c1c" stroke="none" /><path d="M 19.40,6.47 L 18.79,6.16 L 18.66,6.16 L 16.68,7.15 L 16.65,7.22 L 17.26,7.52 L 17.40,7.52 L 19.37,6.54 Z" fill="#1c1c1c" stroke="none" /><path d="M 13.21,6.88 L 14.50,7.52 L 14.60,7.52 L 16.58,6.54 L 16.61,6.47 L 16.00,6.16 L 15.86,6.16 L 15.29,6.47 L 15.18,6.47 L 14.60,6.16 L 14.50,6.16 L 13.21,6.81 Z" fill="#1c1c1c" stroke="none" /><path d="M 13.17,6.13 L 11.81,5.45 L 11.74,5.45 L 10.38,6.13 L 10.38,6.84 L 11.06,7.18 L 11.13,7.18 L 13.17,6.16 Z" fill="#1c1c1c" stroke="none" /><path d="M 15.97,5.45 L 15.97,5.48 L 17.26,6.13 L 17.40,6.13 L 18.69,5.48 L 18.66,5.41 L 17.36,4.77 L 17.29,4.77 Z" fill="#1c1c1c" stroke="none" /><path d="M 4.87,4.77 L 4.80,4.77 L 4.19,5.07 L 4.19,5.14 L 4.80,5.45 L 4.73,5.51 L 3.47,6.13 L 3.47,6.16 L 4.15,6.50 L 4.87,6.16 Z" fill="#1c1c1c" stroke="none" /><path d="M 9.63,4.43 L 9.63,4.46 L 10.38,4.83 L 10.38,5.45 L 10.45,5.45 L 11.06,5.14 L 11.06,5.07 L 9.77,4.43 Z" fill="#1c1c1c" stroke="none" /><path d="M 7.59,3.37 L 7.59,3.44 L 8.89,4.09 L 9.02,4.09 L 9.02,4.05 L 7.66,3.37 Z" fill="#1c1c1c" stroke="none" /><path d="M 8.34,3.00 L 8.34,3.06 L 9.63,3.71 L 9.77,3.71 L 10.38,3.40 L 10.38,2.69 L 9.70,3.03 L 9.06,2.69 L 8.95,2.69 Z" fill="#1c1c1c" stroke="none" /><path d="M 10.38,5.69 L 9.70,6.03 L 9.70,7.69 L 9.63,7.76 L 9.02,8.07 L 9.02,8.92 L 9.70,8.58 L 9.70,7.76 L 9.77,7.69 L 10.38,7.39 Z" fill="#222222" stroke="none" /><path d="M 15.18,3.27 L 14.57,3.57 L 14.57,5.28 L 14.64,5.28 L 15.22,4.97 L 15.25,5.00 L 15.25,5.79 L 15.32,5.79 L 15.93,5.48 L 15.93,4.63 L 15.86,4.63 L 15.29,4.94 L 15.25,4.90 L 15.25,3.27 Z" fill="#222222" stroke="none" /><path d="M 10.38,7.39 L 9.70,7.73 L 9.70,8.58 L 10.38,8.24 Z" fill="#252525" stroke="none" /><path d="M 9.70,6.03 L 9.02,6.37 L 9.02,7.22 L 9.70,6.88 Z" fill="#252525" stroke="none" /><path d="M 15.25,4.97 L 15.18,4.97 L 14.57,5.28 L 14.57,6.13 L 14.64,6.13 L 15.25,5.82 Z" fill="#252525" stroke="none" /><path d="M 15.93,2.93 L 15.86,2.93 L 15.25,3.23 L 15.25,4.09 L 15.32,4.09 L 15.93,3.78 Z" fill="#252525" stroke="none" /><path d="M 9.70,6.88 L 9.02,7.22 L 9.02,8.07 L 9.70,7.73 Z" fill="#272727" stroke="none" /><path d="M 15.93,3.78 L 15.86,3.78 L 15.25,4.09 L 15.25,4.94 L 15.32,4.94 L 15.93,4.63 Z" fill="#272727" stroke="none" /><path d="M 10.38,4.83 L 9.02,5.51 L 9.02,6.37 L 10.38,5.69 Z" fill="#2c2c2c" stroke="none" /><path d="M 15.93,2.08 L 15.86,2.08 L 14.57,2.72 L 14.57,3.57 L 14.64,3.57 L 15.93,2.93 Z" fill="#2c2c2c" stroke="none" /><path d="M 8.31,7.73 L 8.31,8.58 L 9.02,8.92 L 9.02,8.07 L 8.37,7.73 Z" fill="#2e2e2e" stroke="none" /><path d="M 4.87,5.99 L 4.87,6.84 L 4.90,6.88 L 6.88,7.86 L 6.94,7.86 L 6.94,7.01 Z" fill="#2e2e2e" stroke="none" /><path d="M 13.86,4.97 L 13.86,5.82 L 14.57,6.16 L 14.57,5.31 L 13.92,4.97 Z" fill="#2e2e2e" stroke="none" /><path d="M 6.23,4.15 L 6.23,5.00 L 8.31,6.03 L 8.31,5.17 L 8.27,5.14 L 6.30,4.15 Z" fill="#2e2e2e" stroke="none" /><path d="M 4.87,3.47 L 4.87,4.32 L 5.48,4.63 L 5.55,4.63 L 5.55,3.78 L 4.94,3.47 Z" fill="#2e2e2e" stroke="none" /><path d="M 10.38,3.23 L 10.38,4.09 L 11.78,4.77 L 11.78,3.98 L 11.85,3.95 L 12.39,4.22 L 12.46,4.29 L 12.46,5.11 L 13.11,5.45 L 13.17,5.45 L 13.17,4.60 L 12.53,4.29 L 12.46,4.22 L 12.46,3.40 L 12.43,3.37 L 11.78,3.06 L 11.78,3.85 L 11.71,3.88 L 10.45,3.23 Z" fill="#2e2e2e" stroke="none" /><path d="M 11.10,1.02 L 11.10,1.87 L 11.13,1.91 L 13.11,2.89 L 13.17,2.89 L 13.17,2.04 Z" fill="#2e2e2e" stroke="none" /><path d="M 6.94,7.05 L 6.94,7.90 L 7.56,8.20 L 7.63,8.20 L 7.63,7.35 L 7.01,7.05 Z" fill="#303030" stroke="none" /><path d="M 8.31,6.03 L 8.31,6.88 L 8.95,7.22 L 9.02,7.22 L 9.02,6.37 Z" fill="#303030" stroke="none" /><path d="M 11.78,3.91 L 11.78,4.77 L 12.46,5.11 L 12.46,4.26 Z" fill="#303030" stroke="none" /><path d="M 5.62,3.81 L 5.55,3.81 L 5.55,4.60 L 5.51,4.63 L 4.94,4.32 L 4.87,4.32 L 4.87,5.17 L 5.48,5.48 L 5.55,5.48 L 5.55,4.70 L 5.58,4.66 L 6.16,4.97 L 6.23,4.97 L 6.23,4.12 Z" fill="#303030" stroke="none" /><path d="M 13.17,2.08 L 13.17,2.93 L 13.86,3.27 L 13.86,4.12 L 14.57,4.46 L 14.57,3.61 L 13.86,3.23 L 13.86,2.38 L 13.24,2.08 Z" fill="#303030" stroke="none" /><path d="M 10.38,0.68 L 10.38,2.38 L 11.10,2.72 L 11.10,1.02 L 10.45,0.68 Z" fill="#303030" stroke="none" /><path d="M 8.31,6.88 L 8.31,7.73 L 9.02,8.07 L 9.02,7.22 Z" fill="#313131" stroke="none" /><path d="M 4.87,5.17 L 4.87,5.99 L 4.90,6.03 L 6.88,7.01 L 6.94,7.01 L 6.94,6.20 L 6.91,6.16 L 4.94,5.17 Z" fill="#313131" stroke="none" /><path d="M 13.86,4.12 L 13.86,4.97 L 14.57,5.31 L 14.57,4.46 L 13.92,4.12 Z" fill="#313131" stroke="none" /><path d="M 10.38,2.38 L 10.38,3.23 L 11.78,3.91 L 11.78,3.06 L 10.45,2.38 Z" fill="#313131" stroke="none" /><path d="M 6.94,5.34 L 6.94,7.05 L 7.63,7.39 L 7.63,8.24 L 8.24,8.54 L 8.31,8.54 L 8.31,7.69 L 7.63,7.35 L 7.63,5.69 Z" fill="#383838" stroke="none" /><path d="M 13.17,4.63 L 13.17,5.48 L 13.79,5.79 L 13.86,5.79 L 13.86,4.94 L 13.24,4.63 Z" fill="#383838" stroke="none" /><path d="M 11.78,2.21 L 11.78,3.06 L 12.46,3.40 L 12.46,2.55 Z" fill="#383838" stroke="none" /><path d="M 7.63,5.69 L 7.63,6.54 L 8.31,6.88 L 8.31,6.03 Z" fill="#3c3c3c" stroke="none" /><path d="M 5.55,4.66 L 5.55,5.51 L 6.94,6.20 L 6.94,5.34 L 5.62,4.66 Z" fill="#3c3c3c" stroke="none" /><path d="M 12.46,2.55 L 12.46,3.40 L 13.79,4.09 L 13.86,4.09 L 13.86,3.23 Z" fill="#3c3c3c" stroke="none" /><path d="M 11.10,1.87 L 11.10,2.72 L 11.78,3.06 L 11.78,2.21 Z" fill="#3c3c3c" stroke="none" /><path d="M 7.63,6.54 L 7.63,7.39 L 8.24,7.69 L 8.31,7.69 L 8.31,6.88 Z" fill="#3f3f3f" stroke="none" /><path d="M 12.46,3.40 L 12.46,4.26 L 13.79,4.94 L 13.86,4.94 L 13.86,4.09 Z" fill="#3f3f3f" stroke="none" /><path d="M 4.87,3.44 L 4.87,3.47 L 5.48,3.78 L 5.62,3.78 L 6.20,3.47 L 6.30,3.47 L 7.52,4.09 L 7.56,4.12 L 7.52,4.19 L 6.94,4.46 L 6.94,4.49 L 7.59,4.83 L 7.66,4.83 L 8.31,4.49 L 8.31,4.46 L 7.69,4.15 L 7.73,4.09 L 8.31,3.81 L 8.27,3.74 L 6.30,2.76 L 6.20,2.76 Z" fill="#464646" stroke="none" /><path d="M 13.21,1.33 L 13.21,1.40 L 13.82,1.70 L 13.92,1.70 L 14.54,1.40 L 14.50,1.33 L 13.89,1.02 L 13.82,1.02 Z" fill="#464646" stroke="none" /><path d="M 10.42,0.65 L 10.45,0.71 L 12.43,1.70 L 12.53,1.70 L 13.14,1.40 L 13.14,1.33 L 11.85,0.68 L 11.91,0.61 L 12.46,0.34 L 12.46,0.31 L 11.85,0.00 L 11.71,0.00 Z" fill="#464646" stroke="none" /><path d="M 13.86,2.42 L 13.86,3.27 L 14.57,3.61 L 14.57,2.76 L 13.92,2.42 Z" fill="#484848" stroke="none" /><path d="M 7.63,4.12 L 7.63,4.15 L 8.31,4.49 L 9.02,4.15 L 9.02,4.12 L 8.34,3.78 Z" fill="#4a4a4a" stroke="none" /><path d="M 6.91,3.78 L 6.23,3.44 L 5.55,3.78 L 5.55,3.81 L 6.16,4.12 L 6.30,4.12 L 6.91,3.81 Z" fill="#4a4a4a" stroke="none" /><path d="M 12.49,1.70 L 12.49,1.74 L 13.11,2.04 L 13.24,2.04 L 13.86,1.74 L 13.82,1.67 L 13.21,1.36 L 13.14,1.36 Z" fill="#4a4a4a" stroke="none" /><path d="M 11.81,0.65 L 11.85,0.71 L 12.46,1.02 L 13.14,0.68 L 13.14,0.65 L 12.53,0.34 L 12.43,0.34 Z" fill="#4a4a4a" stroke="none" /><path d="M 8.31,5.17 L 8.31,6.03 L 8.95,6.37 L 9.02,6.37 L 9.02,5.51 Z" fill="#4c4c4c" stroke="none" /><path d="M 6.23,4.12 L 6.23,4.15 L 6.91,4.49 L 7.63,4.15 L 7.63,4.12 L 6.94,3.78 Z" fill="#4c4c4c" stroke="none" /><path d="M 12.49,0.99 L 12.53,1.06 L 13.14,1.36 L 13.21,1.36 L 13.82,1.06 L 13.82,0.99 L 13.21,0.68 L 13.11,0.68 Z" fill="#4c4c4c" stroke="none" /><path d="M 9.70,4.46 L 9.09,4.15 L 8.95,4.15 L 7.66,4.80 L 7.66,4.87 L 8.27,5.17 L 8.34,5.17 L 9.70,4.49 Z" fill="#5c5c5c" stroke="none" /><path d="M 15.22,1.70 L 14.54,1.36 L 13.17,2.04 L 13.17,2.08 L 13.79,2.38 L 13.92,2.38 L 15.22,1.74 Z" fill="#5c5c5c" stroke="none" /><path d="M 13.86,14.06 L 13.79,14.06 L 13.17,14.37 L 13.17,16.07 L 13.24,16.07 L 14.57,15.39 L 14.57,14.54 L 13.89,14.88 L 13.86,14.84 Z" fill="#510063" stroke="none" /><path d="M 20.09,10.93 L 19.40,11.27 L 19.40,12.09 L 19.34,12.15 L 18.72,12.46 L 18.72,13.31 L 20.09,12.63 Z" fill="#510063" stroke="none" /><path d="M 13.17,14.40 L 13.11,14.40 L 12.46,14.74 L 12.46,16.44 L 13.17,16.10 Z" fill="#593063" stroke="none" /><path d="M 14.54,13.69 L 13.86,14.03 L 13.86,14.88 L 13.92,14.88 L 14.54,14.57 L 14.57,14.60 L 14.57,15.39 L 14.60,15.39 L 15.25,15.05 L 15.25,14.20 L 14.60,14.50 L 14.57,14.47 L 14.57,13.69 Z" fill="#593063" stroke="none" /><path d="M 19.40,11.27 L 18.72,11.61 L 18.72,12.43 L 18.66,12.49 L 18.01,12.80 L 18.01,13.65 L 18.08,13.65 L 18.72,13.31 L 18.72,12.49 L 18.79,12.43 L 19.40,12.12 Z" fill="#593063" stroke="none" /><path d="M 20.80,10.59 L 20.73,10.59 L 20.09,10.93 L 20.09,12.63 L 20.80,12.29 Z" fill="#593063" stroke="none" /><path d="M 10.38,4.80 L 9.77,4.49 L 9.63,4.49 L 8.34,5.14 L 8.34,5.21 L 8.95,5.51 L 9.06,5.51 L 10.35,4.87 Z" fill="#7a7a7a" stroke="none" /><path d="M 15.93,2.04 L 15.22,1.70 L 13.86,2.38 L 13.86,2.42 L 14.57,2.76 L 15.93,2.08 Z" fill="#7a7a7a" stroke="none" /></svg>