<svg height="32" width="32" viewBox="0 0 32 32"><defs /><path d="M 15.27,30.54 L 15.20,30.54 L 14.41,30.95 L 14.41,32.00 L 14.47,32.00 L 15.27,31.59 Z" fill="#080a07" stroke="none" /><path d="M 20.71,21.15 L 19.79,21.60 L 19.79,22.71 L 19.85,22.71 L 20.71,22.27 Z" fill="#080a07" stroke="none" /><path d="M 19.79,28.28 L 19.72,28.28 L 17.11,29.58 L 17.08,29.61 L 17.08,30.66 L 17.15,30.66 L 19.75,29.36 L 19.79,29.33 Z" fill="#070d07" stroke="none" /><path d="M 17.08,27.42 L 17.02,27.42 L 14.41,28.72 L 14.41,29.84 L 14.47,29.84 L 17.08,28.53 Z" fill="#070d07" stroke="none" /><path d="M 23.41,26.47 L 23.35,26.47 L 21.60,27.36 L 21.60,28.41 L 21.66,28.41 L 23.41,27.51 Z" fill="#070d07" stroke="none" /><path d="M 19.79,26.05 L 17.97,26.94 L 17.97,28.06 L 18.04,28.06 L 19.79,27.17 Z" fill="#070d07" stroke="none" /><path d="M 27.93,24.21 L 27.86,24.21 L 26.15,25.07 L 26.15,26.15 L 27.93,25.26 Z" fill="#070d07" stroke="none" /><path d="M 22.52,23.57 L 21.60,24.02 L 21.60,26.24 L 21.66,26.24 L 22.52,25.80 Z" fill="#070d07" stroke="none" /><path d="M 28.82,21.53 L 27.93,21.98 L 27.93,23.09 L 28.82,22.65 Z" fill="#070d07" stroke="none" /><path d="M 19.79,19.40 L 17.97,20.29 L 17.97,21.41 L 18.04,21.41 L 18.86,20.99 L 18.89,21.03 L 18.89,22.04 L 18.96,22.04 L 20.71,21.15 L 20.71,20.07 L 20.64,20.07 L 19.82,20.49 L 19.79,20.45 Z" fill="#070d07" stroke="none" /><path d="M 28.82,19.34 L 28.76,19.34 L 27.04,20.20 L 27.04,21.31 L 28.82,20.42 Z" fill="#070d07" stroke="none" /><path d="M 22.52,19.15 L 21.60,19.59 L 21.60,20.71 L 22.52,20.26 Z" fill="#070d07" stroke="none" /><path d="M 16.19,16.76 L 14.41,17.65 L 14.41,18.77 L 16.19,17.88 Z" fill="#070d07" stroke="none" /><path d="M 27.93,15.33 L 25.22,16.67 L 25.22,17.78 L 25.29,17.78 L 27.90,16.48 L 27.93,16.45 Z" fill="#070d07" stroke="none" /><path d="M 20.71,14.50 L 19.79,14.95 L 19.79,16.06 L 19.85,16.06 L 20.71,15.62 Z" fill="#070d07" stroke="none" /><path d="M 24.33,12.69 L 22.52,13.58 L 22.52,14.70 L 21.60,15.17 L 21.60,16.25 L 21.66,16.25 L 22.52,15.81 L 22.52,14.73 L 22.55,14.70 L 24.33,13.81 Z" fill="#070d07" stroke="none" /><path d="M 24.33,10.50 L 24.27,10.50 L 23.41,10.94 L 23.41,12.02 L 23.48,12.02 L 24.33,11.58 Z" fill="#070d07" stroke="none" /><path d="M 22.52,10.34 L 22.46,10.34 L 21.60,10.78 L 21.60,12.95 L 22.52,12.50 Z" fill="#070d07" stroke="none" /><path d="M 28.82,8.24 L 27.93,8.68 L 27.93,9.77 L 27.90,9.80 L 25.22,11.13 L 25.22,12.25 L 26.12,11.80 L 26.15,11.83 L 26.15,12.88 L 26.21,12.88 L 27.04,12.47 L 27.04,11.36 L 27.93,10.91 L 27.93,9.80 L 28.82,9.35 Z" fill="#070d07" stroke="none" /><path d="M 15.27,26.12 L 15.20,26.12 L 14.41,26.53 L 14.41,27.61 L 14.47,27.61 L 15.27,27.20 Z" fill="#090b08" stroke="none" /><path d="M 20.71,25.61 L 20.64,25.61 L 19.79,26.05 L 19.79,27.13 L 19.72,27.20 L 18.00,28.06 L 17.97,28.02 L 17.97,26.97 L 17.91,26.97 L 17.08,27.39 L 17.08,28.50 L 17.15,28.50 L 17.94,28.09 L 17.97,28.12 L 17.97,29.17 L 19.75,28.28 L 19.79,28.31 L 19.79,29.33 L 20.71,28.88 Z" fill="#090b08" stroke="none" /><path d="M 26.15,25.10 L 26.08,25.10 L 23.41,26.43 L 23.41,27.51 L 26.12,26.18 L 26.15,26.15 Z" fill="#090b08" stroke="none" /><path d="M 15.27,23.89 L 15.20,23.89 L 14.41,24.30 L 14.41,25.42 L 15.27,25.00 Z" fill="#090b08" stroke="none" /><path d="M 28.82,23.76 L 28.76,23.76 L 27.93,24.17 L 27.93,25.26 L 28.82,24.81 Z" fill="#090b08" stroke="none" /><path d="M 15.27,21.66 L 14.41,22.08 L 14.41,23.19 L 14.47,23.19 L 15.27,22.78 Z" fill="#090b08" stroke="none" /><path d="M 20.71,18.96 L 20.64,18.96 L 19.79,19.40 L 19.79,20.52 L 20.71,20.07 Z" fill="#090b08" stroke="none" /><path d="M 22.52,18.04 L 21.60,18.48 L 21.60,19.59 L 21.66,19.59 L 22.52,19.15 Z" fill="#090b08" stroke="none" /><path d="M 28.82,17.11 L 28.76,17.11 L 21.63,20.68 L 21.60,20.71 L 21.60,21.82 L 28.82,18.23 Z" fill="#090b08" stroke="none" /><path d="M 25.22,15.59 L 25.16,15.59 L 24.33,16.00 L 24.33,17.11 L 24.40,17.11 L 25.22,16.70 Z" fill="#090b08" stroke="none" /><path d="M 28.82,14.89 L 27.93,15.33 L 27.93,16.45 L 28.82,16.00 Z" fill="#090b08" stroke="none" /><path d="M 16.19,14.57 L 16.13,14.57 L 14.41,15.43 L 14.41,16.54 L 16.19,15.65 Z" fill="#090b08" stroke="none" /><path d="M 20.71,12.31 L 20.64,12.31 L 19.79,12.76 L 19.79,13.84 L 19.85,13.84 L 20.71,13.39 Z" fill="#090b08" stroke="none" /><path d="M 26.15,11.80 L 26.08,11.80 L 24.33,12.69 L 24.33,13.81 L 26.15,12.91 Z" fill="#090b08" stroke="none" /><path d="M 23.41,10.94 L 22.52,11.39 L 22.52,12.47 L 22.58,12.47 L 23.41,12.06 Z" fill="#090b08" stroke="none" /><path d="M 28.82,10.47 L 28.76,10.47 L 27.04,11.32 L 27.04,12.44 L 27.10,12.44 L 28.82,11.58 Z" fill="#090b08" stroke="none" /><path d="M 22.52,25.80 L 21.60,26.24 L 21.60,27.36 L 22.52,26.91 Z" fill="#0b0d08" stroke="none" /><path d="M 17.08,29.61 L 15.27,30.50 L 15.27,31.59 L 17.08,30.70 Z" fill="#0d1109" stroke="none" /><path d="M 18.89,24.30 L 18.83,24.30 L 16.25,25.61 L 16.19,25.57 L 16.19,24.52 L 16.16,24.52 L 14.41,25.42 L 14.41,26.53 L 15.24,26.12 L 15.27,26.15 L 15.27,27.20 L 15.30,27.20 L 18.86,25.42 L 18.89,25.38 Z" fill="#0d1109" stroke="none" /><path d="M 26.15,23.98 L 25.26,24.43 L 25.22,24.40 L 25.22,23.35 L 25.16,23.35 L 22.55,24.65 L 22.52,24.68 L 22.52,26.88 L 22.58,26.88 L 24.30,26.02 L 24.33,25.99 L 24.33,24.91 L 25.19,24.46 L 25.22,24.49 L 25.22,25.54 L 26.15,25.10 Z" fill="#0d1109" stroke="none" /><path d="M 19.79,21.63 L 19.72,21.63 L 17.97,22.52 L 17.97,23.63 L 19.79,22.74 Z" fill="#0d1109" stroke="none" /><path d="M 24.33,21.57 L 22.55,22.46 L 22.52,22.43 L 22.52,21.38 L 22.46,21.38 L 21.63,21.79 L 21.60,21.82 L 21.60,24.02 L 21.66,24.02 L 24.33,22.68 Z" fill="#0d1109" stroke="none" /><path d="M 20.71,16.73 L 20.64,16.73 L 19.79,17.18 L 19.79,18.26 L 19.72,18.32 L 17.97,19.18 L 17.97,20.29 L 17.94,20.33 L 17.11,20.74 L 17.08,20.71 L 17.08,19.66 L 17.02,19.66 L 15.27,20.55 L 15.27,22.78 L 17.97,21.44 L 17.97,20.33 L 18.00,20.29 L 20.71,18.96 Z" fill="#0d1109" stroke="none" /><path d="M 23.41,16.48 L 21.60,17.37 L 21.60,18.48 L 21.66,18.48 L 22.49,18.07 L 22.52,18.10 L 22.52,19.15 L 24.33,18.26 L 24.33,17.15 L 24.27,17.15 L 23.44,17.56 L 23.41,17.53 Z" fill="#0d1109" stroke="none" /><path d="M 19.79,14.98 L 19.72,14.98 L 16.22,16.73 L 16.19,16.76 L 16.19,17.88 L 19.79,16.10 Z" fill="#0d1109" stroke="none" /><path d="M 27.04,13.55 L 25.26,14.44 L 25.22,14.41 L 25.22,13.36 L 25.19,13.36 L 22.55,14.70 L 22.52,14.66 L 22.52,13.61 L 22.46,13.61 L 21.60,14.06 L 21.60,15.17 L 22.49,14.73 L 22.52,14.76 L 22.52,15.81 L 22.55,15.81 L 24.30,14.92 L 24.33,14.95 L 24.33,16.00 L 24.40,16.00 L 25.19,15.59 L 25.22,15.62 L 25.22,16.67 L 25.29,16.67 L 27.04,15.78 Z" fill="#0d1109" stroke="none" /><path d="M 25.22,8.97 L 22.52,10.31 L 22.52,11.39 L 25.22,10.05 Z" fill="#0d1109" stroke="none" /><path d="M 17.97,28.09 L 17.91,28.09 L 16.19,28.95 L 16.19,30.06 L 17.97,29.17 Z" fill="#0e1309" stroke="none" /><path d="M 17.08,26.31 L 17.02,26.31 L 16.19,26.72 L 16.19,27.83 L 16.25,27.83 L 17.08,27.42 Z" fill="#0e1309" stroke="none" /><path d="M 25.22,24.46 L 25.16,24.46 L 24.33,24.87 L 24.33,25.99 L 25.22,25.54 Z" fill="#0e1309" stroke="none" /><path d="M 23.41,23.13 L 22.52,23.57 L 22.52,24.68 L 23.41,24.24 Z" fill="#0e1309" stroke="none" /><path d="M 15.27,22.78 L 14.41,23.19 L 14.41,24.30 L 15.27,23.89 Z" fill="#0e1309" stroke="none" /><path d="M 20.71,22.27 L 19.79,22.71 L 19.79,23.83 L 19.85,23.83 L 20.71,23.38 Z" fill="#0e1309" stroke="none" /><path d="M 28.82,20.42 L 26.15,21.76 L 26.15,22.87 L 26.97,22.46 L 27.04,22.49 L 27.04,23.51 L 26.97,23.57 L 26.15,23.98 L 26.15,25.07 L 26.21,25.07 L 27.04,24.65 L 27.04,23.57 L 27.10,23.51 L 27.93,23.09 L 27.93,22.01 L 27.99,21.95 L 28.82,21.53 Z" fill="#0e1309" stroke="none" /><path d="M 26.15,19.56 L 26.08,19.56 L 22.52,21.34 L 22.52,22.46 L 22.58,22.46 L 26.15,20.68 Z" fill="#0e1309" stroke="none" /><path d="M 19.79,17.18 L 18.00,18.07 L 17.97,18.04 L 17.97,16.99 L 17.94,16.99 L 16.19,17.88 L 16.19,18.96 L 16.25,18.96 L 17.05,18.54 L 17.08,18.58 L 17.08,20.74 L 17.15,20.74 L 17.97,20.33 L 17.97,19.21 L 18.00,19.18 L 19.79,18.29 Z" fill="#0e1309" stroke="none" /><path d="M 15.27,16.13 L 15.20,16.13 L 14.41,16.54 L 14.41,17.65 L 15.27,17.24 Z" fill="#0e1309" stroke="none" /><path d="M 28.82,16.00 L 27.93,16.45 L 27.93,17.53 L 27.99,17.53 L 28.82,17.11 Z" fill="#0e1309" stroke="none" /><path d="M 24.27,14.92 L 21.60,16.25 L 21.60,17.37 L 21.66,17.37 L 23.35,16.51 L 23.41,16.54 L 23.41,17.59 L 24.30,17.15 L 24.33,17.18 L 24.33,19.34 L 24.37,19.34 L 27.04,18.00 L 27.04,16.89 L 25.26,17.78 L 25.22,17.75 L 25.22,16.70 L 25.16,16.70 L 24.37,17.11 L 24.33,17.08 L 24.33,14.92 Z" fill="#0e1309" stroke="none" /><path d="M 18.89,14.31 L 18.83,14.31 L 17.97,14.76 L 17.97,15.87 L 18.89,15.43 Z" fill="#0e1309" stroke="none" /><path d="M 17.97,12.60 L 14.44,14.35 L 14.41,14.38 L 14.41,15.43 L 14.47,15.43 L 16.16,14.57 L 16.19,14.60 L 16.19,15.65 L 17.05,15.24 L 17.08,15.20 L 17.08,14.12 L 17.97,13.68 Z" fill="#0e1309" stroke="none" /><path d="M 28.82,11.58 L 28.76,11.58 L 25.26,13.33 L 25.22,13.36 L 25.22,14.44 L 25.29,14.44 L 26.97,13.58 L 27.04,13.61 L 27.04,14.66 L 27.90,14.25 L 27.93,14.22 L 27.93,13.14 L 27.99,13.07 L 28.82,12.66 Z" fill="#0e1309" stroke="none" /><path d="M 28.82,7.19 L 28.76,7.19 L 25.26,8.94 L 25.22,8.97 L 25.22,10.02 L 24.33,10.47 L 24.33,11.55 L 24.27,11.61 L 21.63,12.91 L 21.60,12.95 L 21.60,14.06 L 25.19,12.28 L 25.22,12.25 L 25.22,11.17 L 25.29,11.10 L 27.90,9.80 L 27.93,9.83 L 27.93,10.88 L 27.99,10.88 L 28.82,10.47 L 28.82,9.35 L 28.76,9.35 L 27.96,9.77 L 27.93,9.73 L 27.93,8.72 L 27.99,8.65 L 28.82,8.24 Z" fill="#0e1309" stroke="none" /><path d="M 19.79,12.76 L 18.89,13.20 L 18.89,14.28 L 18.96,14.28 L 19.79,13.87 Z" fill="#10110b" stroke="none" /><path d="M 16.19,28.98 L 16.13,28.98 L 14.41,29.84 L 14.41,30.95 L 16.19,30.06 Z" fill="#10150b" stroke="none" /><path d="M 16.19,26.75 L 16.13,26.75 L 14.41,27.61 L 14.41,28.72 L 14.47,28.72 L 16.19,27.86 Z" fill="#10150b" stroke="none" /><path d="M 20.71,24.49 L 20.71,23.38 L 19.82,23.83 L 19.79,23.79 L 19.79,22.74 L 19.72,22.74 L 18.04,23.60 L 17.97,23.57 L 17.97,22.55 L 18.04,22.49 L 18.89,22.08 L 18.89,20.96 L 15.27,22.78 L 15.27,23.86 L 15.33,23.86 L 17.05,23.00 L 17.08,23.03 L 17.08,24.08 L 17.91,23.67 L 17.97,23.70 L 17.97,24.75 L 18.86,24.30 L 18.89,24.33 L 18.89,25.38 Z" fill="#10150b" stroke="none" /><path d="M 15.27,20.55 L 14.41,20.96 L 14.41,22.08 L 14.47,22.08 L 15.27,21.66 Z" fill="#10150b" stroke="none" /><path d="M 24.33,18.26 L 24.27,18.26 L 22.52,19.15 L 22.52,20.23 L 22.58,20.23 L 24.33,19.34 Z" fill="#10150b" stroke="none" /><path d="M 28.82,18.23 L 28.76,18.23 L 26.15,19.53 L 26.15,20.64 L 24.33,21.57 L 24.33,22.65 L 23.41,23.13 L 23.41,24.24 L 25.19,23.35 L 25.22,23.38 L 25.22,24.43 L 25.29,24.43 L 27.04,23.54 L 27.04,22.43 L 26.18,22.84 L 26.15,22.81 L 26.15,21.79 L 26.21,21.73 L 27.04,21.31 L 27.04,20.23 L 27.07,20.20 L 28.82,19.34 Z" fill="#10150b" stroke="none" /><path d="M 27.93,16.45 L 27.04,16.89 L 27.04,17.97 L 27.10,17.97 L 27.93,17.56 Z" fill="#10150b" stroke="none" /><path d="M 19.79,11.71 L 19.72,11.71 L 17.97,12.60 L 17.97,13.65 L 17.08,14.09 L 17.08,15.17 L 17.02,15.24 L 15.27,16.10 L 15.27,17.21 L 15.33,17.21 L 17.94,15.90 L 17.97,15.87 L 17.97,14.79 L 18.04,14.73 L 18.86,14.31 L 18.89,14.35 L 18.89,15.40 L 18.96,15.40 L 20.71,14.50 L 20.71,13.39 L 18.93,14.28 L 18.89,14.25 L 18.89,13.23 L 18.96,13.17 L 19.79,12.76 Z" fill="#10150b" stroke="none" /><path d="M 13.55,30.54 L 13.55,31.59 L 14.35,32.00 L 14.41,32.00 L 14.41,30.95 L 13.61,30.54 Z" fill="#0d110c" stroke="none" /><path d="M 8.11,21.15 L 8.11,22.27 L 8.97,22.71 L 9.03,22.71 L 9.03,21.60 Z" fill="#0d110c" stroke="none" /><path d="M 9.03,28.28 L 9.03,29.33 L 9.07,29.36 L 11.67,30.66 L 11.74,30.66 L 11.74,29.61 L 11.71,29.58 L 9.10,28.28 Z" fill="#0c150c" stroke="none" /><path d="M 11.74,27.42 L 11.74,28.53 L 14.35,29.84 L 14.41,29.84 L 14.41,28.72 L 11.80,27.42 Z" fill="#0c150c" stroke="none" /><path d="M 5.41,26.47 L 5.41,27.51 L 7.16,28.41 L 7.22,28.41 L 7.22,27.36 L 5.47,26.47 Z" fill="#0c150c" stroke="none" /><path d="M 9.03,26.05 L 9.03,27.17 L 10.78,28.06 L 10.85,28.06 L 10.85,26.94 Z" fill="#0c150c" stroke="none" /><path d="M 0.89,24.21 L 0.89,25.26 L 2.67,26.15 L 2.67,25.07 L 0.95,24.21 Z" fill="#0c150c" stroke="none" /><path d="M 6.30,23.57 L 6.30,25.80 L 7.16,26.24 L 7.22,26.24 L 7.22,24.02 Z" fill="#0c150c" stroke="none" /><path d="M 0.00,21.53 L 0.00,22.65 L 0.89,23.09 L 0.89,21.98 Z" fill="#0c150c" stroke="none" /><path d="M 9.03,19.40 L 9.03,20.45 L 9.00,20.49 L 8.17,20.07 L 8.11,20.07 L 8.11,21.15 L 9.86,22.04 L 9.92,22.04 L 9.92,21.03 L 9.96,20.99 L 10.78,21.41 L 10.85,21.41 L 10.85,20.29 Z" fill="#0c150c" stroke="none" /><path d="M 0.00,19.34 L 0.00,20.42 L 1.78,21.31 L 1.78,20.20 L 0.06,19.34 Z" fill="#0c150c" stroke="none" /><path d="M 6.30,19.15 L 6.30,20.26 L 7.22,20.71 L 7.22,19.59 Z" fill="#0c150c" stroke="none" /><path d="M 12.63,16.76 L 12.63,17.88 L 14.41,18.77 L 14.41,17.65 Z" fill="#0c150c" stroke="none" /><path d="M 0.89,15.33 L 0.89,16.45 L 0.92,16.48 L 3.53,17.78 L 3.59,17.78 L 3.59,16.67 Z" fill="#0c150c" stroke="none" /><path d="M 8.11,14.50 L 8.11,15.62 L 8.97,16.06 L 9.03,16.06 L 9.03,14.95 Z" fill="#0c150c" stroke="none" /><path d="M 4.49,12.69 L 4.49,13.81 L 6.27,14.70 L 6.30,14.73 L 6.30,15.81 L 7.16,16.25 L 7.22,16.25 L 7.22,15.17 L 6.30,14.70 L 6.30,13.58 Z" fill="#0c150c" stroke="none" /><path d="M 4.49,10.50 L 4.49,11.58 L 5.34,12.02 L 5.41,12.02 L 5.41,10.94 L 4.55,10.50 Z" fill="#0c150c" stroke="none" /><path d="M 6.30,10.34 L 6.30,12.50 L 7.22,12.95 L 7.22,10.78 L 6.36,10.34 Z" fill="#0c150c" stroke="none" /><path d="M 0.00,8.24 L 0.00,9.35 L 0.89,9.80 L 0.89,10.91 L 1.78,11.36 L 1.78,12.47 L 2.61,12.88 L 2.67,12.88 L 2.67,11.83 L 2.70,11.80 L 3.59,12.25 L 3.59,11.13 L 0.92,9.80 L 0.89,9.77 L 0.89,8.68 Z" fill="#0c150c" stroke="none" /><path d="M 13.55,26.12 L 13.55,27.20 L 14.35,27.61 L 14.41,27.61 L 14.41,26.53 L 13.61,26.12 Z" fill="#0f130d" stroke="none" /><path d="M 8.11,25.61 L 8.11,28.88 L 9.03,29.33 L 9.03,28.31 L 9.07,28.28 L 10.85,29.17 L 10.85,28.12 L 10.88,28.09 L 11.67,28.50 L 11.74,28.50 L 11.74,27.39 L 10.91,26.97 L 10.85,26.97 L 10.85,28.02 L 10.82,28.06 L 9.10,27.20 L 9.03,27.13 L 9.03,26.05 L 8.17,25.61 Z" fill="#0f130d" stroke="none" /><path d="M 2.67,25.10 L 2.67,26.15 L 2.70,26.18 L 5.41,27.51 L 5.41,26.43 L 2.74,25.10 Z" fill="#0f130d" stroke="none" /><path d="M 13.55,23.89 L 13.55,25.00 L 14.41,25.42 L 14.41,24.30 L 13.61,23.89 Z" fill="#0f130d" stroke="none" /><path d="M 0.00,23.76 L 0.00,24.81 L 0.89,25.26 L 0.89,24.17 L 0.06,23.76 Z" fill="#0f130d" stroke="none" /><path d="M 13.55,21.66 L 13.55,22.78 L 14.35,23.19 L 14.41,23.19 L 14.41,22.08 Z" fill="#0f130d" stroke="none" /><path d="M 8.11,18.96 L 8.11,20.07 L 9.03,20.52 L 9.03,19.40 L 8.17,18.96 Z" fill="#0f130d" stroke="none" /><path d="M 6.30,18.04 L 6.30,19.15 L 7.16,19.59 L 7.22,19.59 L 7.22,18.48 Z" fill="#0f130d" stroke="none" /><path d="M 0.00,17.11 L 0.00,18.23 L 7.22,21.82 L 7.22,20.71 L 7.19,20.68 L 0.06,17.11 Z" fill="#0f130d" stroke="none" /><path d="M 3.59,15.59 L 3.59,16.70 L 4.42,17.11 L 4.49,17.11 L 4.49,16.00 L 3.66,15.59 Z" fill="#0f130d" stroke="none" /><path d="M 0.00,14.89 L 0.00,16.00 L 0.89,16.45 L 0.89,15.33 Z" fill="#0f130d" stroke="none" /><path d="M 12.63,14.57 L 12.63,15.65 L 14.41,16.54 L 14.41,15.43 L 12.69,14.57 Z" fill="#0f130d" stroke="none" /><path d="M 8.11,12.31 L 8.11,13.39 L 8.97,13.84 L 9.03,13.84 L 9.03,12.76 L 8.17,12.31 Z" fill="#0f130d" stroke="none" /><path d="M 2.67,11.80 L 2.67,12.91 L 4.49,13.81 L 4.49,12.69 L 2.74,11.80 Z" fill="#0f130d" stroke="none" /><path d="M 5.41,10.94 L 5.41,12.06 L 6.23,12.47 L 6.30,12.47 L 6.30,11.39 Z" fill="#0f130d" stroke="none" /><path d="M 0.00,10.47 L 0.00,11.58 L 1.72,12.44 L 1.78,12.44 L 1.78,11.32 L 0.06,10.47 Z" fill="#0f130d" stroke="none" /><path d="M 6.30,25.80 L 6.30,26.91 L 7.22,27.36 L 7.22,26.24 Z" fill="#11160d" stroke="none" /><path d="M 20.71,24.49 L 20.64,24.49 L 17.08,26.27 L 17.08,27.39 L 17.15,27.39 L 20.71,25.61 Z" fill="#11160d" stroke="none" /><path d="M 17.08,22.97 L 15.27,23.86 L 15.27,24.97 L 15.33,24.97 L 16.16,24.56 L 16.19,24.59 L 16.19,25.64 L 17.97,24.75 L 17.97,23.63 L 17.11,24.05 L 17.08,24.02 Z" fill="#11160d" stroke="none" /><path d="M 28.82,22.65 L 27.04,23.54 L 27.04,24.62 L 27.10,24.62 L 28.82,23.76 Z" fill="#11160d" stroke="none" /><path d="M 17.08,18.54 L 17.02,18.54 L 16.22,18.96 L 16.19,18.93 L 16.19,17.88 L 16.16,17.88 L 14.44,18.74 L 14.41,18.77 L 14.41,20.96 L 14.47,20.96 L 17.08,19.66 Z" fill="#11160d" stroke="none" /><path d="M 20.71,15.62 L 18.00,16.95 L 17.97,16.99 L 17.97,18.07 L 18.04,18.07 L 20.71,16.73 Z" fill="#11160d" stroke="none" /><path d="M 28.82,12.66 L 27.93,13.11 L 27.93,14.19 L 27.86,14.25 L 27.04,14.66 L 27.04,15.78 L 28.82,14.89 Z" fill="#11160d" stroke="none" /><path d="M 20.71,11.23 L 19.79,11.67 L 19.79,12.76 L 20.71,12.31 Z" fill="#11160d" stroke="none" /><path d="M 12.66,0.89 L 13.52,1.30 L 14.41,0.86 L 14.41,0.83 L 13.58,0.41 L 13.52,0.41 L 12.69,0.83 Z" fill="#10140e" stroke="none" /><path d="M 11.74,29.61 L 11.74,30.70 L 13.55,31.59 L 13.55,30.50 Z" fill="#141b0e" stroke="none" /><path d="M 9.92,24.30 L 9.92,25.38 L 9.96,25.42 L 13.52,27.20 L 13.55,27.20 L 13.55,26.15 L 13.58,26.12 L 14.41,26.53 L 14.41,25.42 L 12.66,24.52 L 12.63,24.52 L 12.63,25.57 L 12.56,25.61 L 9.99,24.30 Z" fill="#141b0e" stroke="none" /><path d="M 2.67,23.98 L 2.67,25.10 L 3.59,25.54 L 3.59,24.49 L 3.63,24.46 L 4.49,24.91 L 4.49,25.99 L 4.52,26.02 L 6.23,26.88 L 6.30,26.88 L 6.30,24.68 L 6.27,24.65 L 3.66,23.35 L 3.59,23.35 L 3.59,24.40 L 3.56,24.43 Z" fill="#141b0e" stroke="none" /><path d="M 9.03,21.63 L 9.03,22.74 L 10.85,23.63 L 10.85,22.52 L 9.10,21.63 Z" fill="#141b0e" stroke="none" /><path d="M 4.49,21.57 L 4.49,22.68 L 7.16,24.02 L 7.22,24.02 L 7.22,21.82 L 7.19,21.79 L 6.36,21.38 L 6.30,21.38 L 6.30,22.43 L 6.27,22.46 Z" fill="#141b0e" stroke="none" /><path d="M 8.11,16.73 L 8.11,18.96 L 10.82,20.29 L 10.85,20.33 L 10.85,21.44 L 13.55,22.78 L 13.55,20.55 L 11.80,19.66 L 11.74,19.66 L 11.74,20.71 L 11.71,20.74 L 10.88,20.33 L 10.85,20.29 L 10.85,19.18 L 9.10,18.32 L 9.03,18.26 L 9.03,17.18 L 8.17,16.73 Z" fill="#141b0e" stroke="none" /><path d="M 5.41,16.48 L 5.41,17.53 L 5.38,17.56 L 4.55,17.15 L 4.49,17.15 L 4.49,18.26 L 6.30,19.15 L 6.30,18.10 L 6.33,18.07 L 7.16,18.48 L 7.22,18.48 L 7.22,17.37 Z" fill="#141b0e" stroke="none" /><path d="M 9.03,14.98 L 9.03,16.10 L 12.63,17.88 L 12.63,16.76 L 12.60,16.73 L 9.10,14.98 Z" fill="#141b0e" stroke="none" /><path d="M 1.78,13.55 L 1.78,15.78 L 3.53,16.67 L 3.59,16.67 L 3.59,15.62 L 3.63,15.59 L 4.42,16.00 L 4.49,16.00 L 4.49,14.95 L 4.52,14.92 L 6.27,15.81 L 6.30,15.81 L 6.30,14.76 L 6.33,14.73 L 7.22,15.17 L 7.22,14.06 L 6.36,13.61 L 6.30,13.61 L 6.30,14.66 L 6.27,14.70 L 3.63,13.36 L 3.59,13.36 L 3.59,14.41 L 3.56,14.44 Z" fill="#141b0e" stroke="none" /><path d="M 3.59,8.97 L 3.59,10.05 L 6.30,11.39 L 6.30,10.31 Z" fill="#141b0e" stroke="none" /><path d="M 10.85,28.09 L 10.85,29.17 L 12.63,30.06 L 12.63,28.95 L 10.91,28.09 Z" fill="#161e0f" stroke="none" /><path d="M 11.74,26.31 L 11.74,27.42 L 12.56,27.83 L 12.63,27.83 L 12.63,26.72 L 11.80,26.31 Z" fill="#161e0f" stroke="none" /><path d="M 3.59,24.46 L 3.59,25.54 L 4.49,25.99 L 4.49,24.87 L 3.66,24.46 Z" fill="#161e0f" stroke="none" /><path d="M 5.41,23.13 L 5.41,24.24 L 6.30,24.68 L 6.30,23.57 Z" fill="#161e0f" stroke="none" /><path d="M 13.55,22.78 L 13.55,23.89 L 14.41,24.30 L 14.41,23.19 Z" fill="#161e0f" stroke="none" /><path d="M 8.11,22.27 L 8.11,23.38 L 8.97,23.83 L 9.03,23.83 L 9.03,22.71 Z" fill="#161e0f" stroke="none" /><path d="M 0.00,20.42 L 0.00,21.53 L 0.83,21.95 L 0.89,22.01 L 0.89,23.09 L 1.72,23.51 L 1.78,23.57 L 1.78,24.65 L 2.61,25.07 L 2.67,25.07 L 2.67,23.98 L 1.84,23.57 L 1.78,23.51 L 1.78,22.49 L 1.81,22.46 L 2.67,22.87 L 2.67,21.76 Z" fill="#161e0f" stroke="none" /><path d="M 2.67,19.56 L 2.67,20.68 L 6.23,22.46 L 6.30,22.46 L 6.30,21.34 L 2.74,19.56 Z" fill="#161e0f" stroke="none" /><path d="M 9.03,17.18 L 9.03,18.29 L 10.82,19.18 L 10.85,19.21 L 10.85,20.33 L 11.67,20.74 L 11.74,20.74 L 11.74,18.58 L 11.77,18.54 L 12.56,18.96 L 12.63,18.96 L 12.63,17.88 L 10.88,16.99 L 10.85,16.99 L 10.85,18.04 L 10.82,18.07 Z" fill="#161e0f" stroke="none" /><path d="M 13.55,16.13 L 13.55,17.24 L 14.41,17.65 L 14.41,16.54 L 13.61,16.13 Z" fill="#161e0f" stroke="none" /><path d="M 0.00,16.00 L 0.00,17.11 L 0.83,17.53 L 0.89,17.53 L 0.89,16.45 Z" fill="#161e0f" stroke="none" /><path d="M 4.55,14.92 L 4.49,14.92 L 4.49,17.08 L 4.45,17.11 L 3.66,16.70 L 3.59,16.70 L 3.59,17.75 L 3.56,17.78 L 1.78,16.89 L 1.78,18.00 L 4.45,19.34 L 4.49,19.34 L 4.49,17.18 L 4.52,17.15 L 5.41,17.59 L 5.41,16.54 L 5.47,16.51 L 7.16,17.37 L 7.22,17.37 L 7.22,16.25 Z" fill="#161e0f" stroke="none" /><path d="M 9.92,14.31 L 9.92,15.43 L 10.85,15.87 L 10.85,14.76 L 9.99,14.31 Z" fill="#161e0f" stroke="none" /><path d="M 10.85,12.60 L 10.85,13.68 L 11.74,14.12 L 11.74,15.20 L 11.77,15.24 L 12.63,15.65 L 12.63,14.60 L 12.66,14.57 L 14.35,15.43 L 14.41,15.43 L 14.41,14.38 L 14.38,14.35 Z" fill="#161e0f" stroke="none" /><path d="M 0.00,11.58 L 0.00,12.66 L 0.83,13.07 L 0.89,13.14 L 0.89,14.22 L 0.92,14.25 L 1.78,14.66 L 1.78,13.61 L 1.84,13.58 L 3.53,14.44 L 3.59,14.44 L 3.59,13.36 L 3.56,13.33 L 0.06,11.58 Z" fill="#161e0f" stroke="none" /><path d="M 0.00,7.19 L 0.00,8.24 L 0.83,8.65 L 0.89,8.72 L 0.89,9.73 L 0.86,9.77 L 0.06,9.35 L 0.00,9.35 L 0.00,10.47 L 0.83,10.88 L 0.89,10.88 L 0.89,9.83 L 0.92,9.80 L 3.53,11.10 L 3.59,11.17 L 3.59,12.25 L 3.63,12.28 L 7.22,14.06 L 7.22,12.95 L 7.19,12.91 L 4.55,11.61 L 4.49,11.55 L 4.49,10.47 L 3.59,10.02 L 3.59,8.97 L 3.56,8.94 L 0.06,7.19 Z" fill="#161e0f" stroke="none" /><path d="M 9.92,7.60 L 9.92,7.67 L 10.75,8.08 L 10.85,8.08 L 11.67,7.67 L 11.64,7.60 L 10.82,7.19 L 10.75,7.19 Z" fill="#151811" stroke="none" /><path d="M 15.33,7.63 L 15.33,7.67 L 18.00,9.00 L 18.93,8.56 L 18.93,8.52 L 17.24,7.70 L 17.18,7.63 L 18.00,7.22 L 18.00,7.16 L 17.18,6.74 L 17.08,6.74 Z" fill="#151811" stroke="none" /><path d="M 13.52,5.82 L 13.52,5.85 L 14.35,6.27 L 14.47,6.27 L 15.30,5.85 L 15.27,5.79 L 14.44,5.38 L 14.38,5.38 Z" fill="#151811" stroke="none" /><path d="M 6.30,9.42 L 6.30,9.48 L 7.13,9.89 L 7.22,9.89 L 8.05,9.48 L 8.05,9.42 L 7.22,9.00 L 7.13,9.00 Z" fill="#1d2712" stroke="none" /><path d="M 18.04,8.97 L 18.07,9.03 L 21.57,10.78 L 21.63,10.78 L 22.49,10.34 L 22.49,10.31 L 18.99,8.56 L 18.86,8.56 Z" fill="#1d2712" stroke="none" /><path d="M 13.52,8.52 L 13.55,8.59 L 14.38,9.00 L 14.44,9.00 L 15.30,8.56 L 15.30,8.52 L 14.47,8.11 L 14.35,8.11 Z" fill="#1d2712" stroke="none" /><path d="M 17.15,6.71 L 17.18,6.78 L 18.00,7.19 L 18.07,7.19 L 18.93,6.74 L 18.93,6.71 L 18.10,6.30 L 17.97,6.30 Z" fill="#1d2712" stroke="none" /><path d="M 8.08,5.82 L 8.08,5.85 L 12.53,8.08 L 12.66,8.08 L 13.49,7.67 L 13.46,7.60 L 9.00,5.38 L 8.94,5.38 Z" fill="#1d2712" stroke="none" /><path d="M 18.00,5.34 L 17.18,4.93 L 17.08,4.93 L 15.36,5.79 L 15.33,5.85 L 16.16,6.27 L 16.29,6.27 L 18.00,5.41 Z" fill="#1d2712" stroke="none" /><path d="M 20.74,4.01 L 19.88,3.56 L 19.82,3.56 L 18.04,4.45 L 18.04,4.49 L 18.96,4.93 L 20.74,4.04 Z" fill="#1d2712" stroke="none" /><path d="M 9.03,12.76 L 9.03,13.87 L 9.86,14.28 L 9.92,14.28 L 9.92,13.20 Z" fill="#1a1b13" stroke="none" /><path d="M 12.63,28.98 L 12.63,30.06 L 14.41,30.95 L 14.41,29.84 L 12.69,28.98 Z" fill="#1a2213" stroke="none" /><path d="M 12.63,26.75 L 12.63,27.86 L 14.35,28.72 L 14.41,28.72 L 14.41,27.61 L 12.69,26.75 Z" fill="#1a2213" stroke="none" /><path d="M 8.11,24.49 L 9.92,25.38 L 9.92,24.33 L 9.96,24.30 L 10.85,24.75 L 10.85,23.70 L 10.91,23.67 L 11.74,24.08 L 11.74,23.03 L 11.77,23.00 L 13.49,23.86 L 13.55,23.86 L 13.55,22.78 L 9.92,20.96 L 9.92,22.08 L 10.78,22.49 L 10.85,22.55 L 10.85,23.57 L 10.78,23.60 L 9.10,22.74 L 9.03,22.74 L 9.03,23.79 L 9.00,23.83 L 8.11,23.38 Z" fill="#1a2213" stroke="none" /><path d="M 13.55,20.55 L 13.55,21.66 L 14.35,22.08 L 14.41,22.08 L 14.41,20.96 Z" fill="#1a2213" stroke="none" /><path d="M 4.49,18.26 L 4.49,19.34 L 6.23,20.23 L 6.30,20.23 L 6.30,19.15 L 4.55,18.26 Z" fill="#1a2213" stroke="none" /><path d="M 0.00,18.23 L 0.00,19.34 L 1.75,20.20 L 1.78,20.23 L 1.78,21.31 L 2.61,21.73 L 2.67,21.79 L 2.67,22.81 L 2.64,22.84 L 1.78,22.43 L 1.78,23.54 L 3.53,24.43 L 3.59,24.43 L 3.59,23.38 L 3.63,23.35 L 5.41,24.24 L 5.41,23.13 L 4.49,22.65 L 4.49,21.57 L 4.45,21.53 L 2.67,20.64 L 2.67,19.53 L 0.06,18.23 Z" fill="#1a2213" stroke="none" /><path d="M 0.89,16.45 L 0.89,17.56 L 1.72,17.97 L 1.78,17.97 L 1.78,16.89 Z" fill="#1a2213" stroke="none" /><path d="M 9.03,11.71 L 9.03,12.76 L 9.86,13.17 L 9.92,13.23 L 9.92,14.25 L 9.89,14.28 L 8.11,13.39 L 8.11,14.50 L 9.86,15.40 L 9.92,15.40 L 9.92,14.35 L 9.96,14.31 L 10.78,14.73 L 10.85,14.79 L 10.85,15.87 L 10.88,15.90 L 13.49,17.21 L 13.55,17.21 L 13.55,16.10 L 11.80,15.24 L 11.74,15.17 L 11.74,14.09 L 10.85,13.65 L 10.85,12.60 L 9.10,11.71 Z" fill="#1a2213" stroke="none" /><path d="M 9.00,10.78 L 9.03,10.85 L 10.75,11.71 L 10.82,11.71 L 11.67,11.26 L 12.56,11.71 L 12.63,11.71 L 13.49,11.26 L 13.49,11.23 L 11.77,10.37 L 11.64,10.37 L 10.85,10.78 L 10.75,10.78 L 9.96,10.37 L 9.83,10.37 Z" fill="#181d14" stroke="none" /><path d="M 15.33,10.34 L 15.33,10.37 L 18.83,12.12 L 18.96,12.12 L 19.79,11.71 L 19.79,11.67 L 16.22,9.89 Z" fill="#181d14" stroke="none" /><path d="M 7.19,9.89 L 7.19,9.92 L 8.02,10.34 L 8.14,10.34 L 8.97,9.92 L 8.94,9.86 L 8.11,9.45 L 8.05,9.45 Z" fill="#181d14" stroke="none" /><path d="M 12.63,8.97 L 12.66,9.03 L 14.38,9.89 L 14.44,9.89 L 15.27,9.48 L 15.27,9.42 L 13.55,8.56 L 13.46,8.56 Z" fill="#181d14" stroke="none" /><path d="M 10.82,8.08 L 10.82,8.11 L 11.64,8.52 L 11.77,8.52 L 12.60,8.11 L 12.60,8.08 L 11.71,7.63 Z" fill="#181d14" stroke="none" /><path d="M 17.15,7.63 L 17.15,7.67 L 20.71,9.45 L 20.77,9.45 L 22.55,8.56 L 22.55,8.52 L 18.99,6.74 L 18.89,6.74 Z" fill="#181d14" stroke="none" /><path d="M 14.41,6.27 L 14.41,6.30 L 15.30,6.74 L 16.22,6.30 L 16.22,6.27 L 15.33,5.82 Z" fill="#181d14" stroke="none" /><path d="M 23.48,5.34 L 23.51,5.41 L 26.12,6.71 L 26.24,6.71 L 27.01,6.33 L 27.01,6.27 L 24.33,4.93 Z" fill="#181d14" stroke="none" /><path d="M 11.71,4.90 L 11.74,4.96 L 13.46,5.82 L 13.55,5.82 L 14.38,5.41 L 14.38,5.34 L 12.66,4.49 L 12.53,4.49 Z" fill="#181d14" stroke="none" /><path d="M 1.81,6.27 L 1.81,6.33 L 2.58,6.71 L 2.70,6.71 L 4.45,5.82 L 6.20,6.71 L 6.33,6.71 L 7.13,6.30 L 7.22,6.30 L 9.86,7.63 L 9.92,7.63 L 10.75,7.22 L 10.75,7.16 L 5.41,4.49 Z" fill="#181d14" stroke="none" /><path d="M 8.11,3.12 L 8.11,3.15 L 10.72,4.45 L 10.85,4.45 L 11.67,4.04 L 11.64,3.98 L 9.03,2.67 Z" fill="#181d14" stroke="none" /><path d="M 11.74,1.30 L 11.74,1.34 L 16.19,3.56 L 16.25,3.56 L 17.11,3.12 L 17.11,3.09 L 15.43,2.26 L 15.36,2.19 L 16.19,1.78 L 16.19,1.72 L 14.50,0.89 L 14.47,0.86 L 14.50,0.80 L 15.24,0.45 L 15.24,0.38 L 14.47,0.00 L 14.35,0.00 L 13.58,0.38 L 13.58,0.45 L 14.31,0.80 L 14.35,0.86 L 13.55,1.27 L 13.46,1.27 L 12.63,0.86 Z" fill="#181d14" stroke="none" /><path d="M 8.11,24.49 L 8.11,25.61 L 11.67,27.39 L 11.74,27.39 L 11.74,26.27 L 8.17,24.49 Z" fill="#1c2414" stroke="none" /><path d="M 11.74,22.97 L 11.74,24.02 L 11.71,24.05 L 10.85,23.63 L 10.85,24.75 L 12.63,25.64 L 12.63,24.59 L 12.66,24.56 L 13.49,24.97 L 13.55,24.97 L 13.55,23.86 Z" fill="#1c2414" stroke="none" /><path d="M 0.00,22.65 L 0.00,23.76 L 1.72,24.62 L 1.78,24.62 L 1.78,23.54 Z" fill="#1c2414" stroke="none" /><path d="M 11.74,18.54 L 11.74,19.66 L 14.35,20.96 L 14.41,20.96 L 14.41,18.77 L 14.38,18.74 L 12.66,17.88 L 12.63,17.88 L 12.63,18.93 L 12.60,18.96 L 11.80,18.54 Z" fill="#1c2414" stroke="none" /><path d="M 8.11,15.62 L 8.11,16.73 L 10.78,18.07 L 10.85,18.07 L 10.85,16.99 L 10.82,16.95 Z" fill="#1c2414" stroke="none" /><path d="M 0.00,12.66 L 0.00,14.89 L 1.78,15.78 L 1.78,14.66 L 0.95,14.25 L 0.89,14.19 L 0.89,13.11 Z" fill="#1c2414" stroke="none" /><path d="M 8.11,11.23 L 8.11,12.31 L 9.03,12.76 L 9.03,11.67 Z" fill="#1c2414" stroke="none" /><path d="M 10.82,11.67 L 10.82,11.74 L 12.53,12.60 L 12.66,12.60 L 13.46,12.18 L 13.55,12.18 L 16.13,13.49 L 16.22,13.49 L 17.05,13.07 L 17.05,13.01 L 13.55,11.26 L 13.46,11.26 L 12.60,11.71 L 11.74,11.26 L 11.64,11.26 Z" fill="#232e17" stroke="none" /><path d="M 20.77,9.42 L 20.77,9.48 L 22.49,10.34 L 23.41,9.89 L 23.41,9.86 L 21.69,9.00 L 21.60,9.00 Z" fill="#232e17" stroke="none" /><path d="M 14.44,8.97 L 14.44,9.03 L 15.27,9.45 L 14.44,9.86 L 14.44,9.92 L 15.27,10.34 L 15.36,10.34 L 16.16,9.92 L 16.25,9.92 L 19.72,11.67 L 19.85,11.67 L 20.68,11.26 L 20.64,11.20 L 15.36,8.56 L 15.27,8.56 Z" fill="#232e17" stroke="none" /><path d="M 24.40,7.60 L 24.40,7.67 L 26.12,8.52 L 27.04,8.08 L 27.04,8.05 L 25.32,7.19 L 25.22,7.19 Z" fill="#232e17" stroke="none" /><path d="M 26.18,6.71 L 26.18,6.74 L 27.90,7.60 L 27.99,7.60 L 28.79,7.19 L 28.79,7.16 L 27.07,6.30 L 27.01,6.30 Z" fill="#232e17" stroke="none" /><path d="M 13.52,6.71 L 13.55,6.78 L 14.38,7.19 L 14.44,7.19 L 15.30,6.74 L 15.30,6.71 L 14.47,6.30 L 14.35,6.30 Z" fill="#232e17" stroke="none" /><path d="M 0.89,6.74 L 0.89,6.78 L 2.61,7.63 L 1.78,8.05 L 1.78,8.08 L 4.45,9.42 L 4.55,9.42 L 5.38,9.00 L 6.23,9.45 L 6.30,9.45 L 7.13,9.03 L 7.16,8.97 L 3.63,7.22 L 3.59,7.19 L 3.66,7.13 L 4.42,6.74 L 4.49,6.74 L 6.23,7.63 L 6.30,7.63 L 7.16,7.19 L 8.05,7.63 L 8.11,7.63 L 8.97,7.19 L 8.97,7.16 L 7.19,6.27 L 6.30,6.71 L 6.23,6.71 L 4.49,5.82 L 4.42,5.82 L 2.67,6.71 L 2.61,6.71 L 1.81,6.30 L 1.75,6.30 Z" fill="#232e17" stroke="none" /><path d="M 19.88,5.34 L 19.88,5.41 L 21.60,6.27 L 21.69,6.27 L 22.52,5.85 L 22.52,5.79 L 20.80,4.93 L 20.71,4.93 Z" fill="#232e17" stroke="none" /><path d="M 5.41,4.49 L 5.41,4.52 L 8.02,5.82 L 8.11,5.82 L 8.94,5.41 L 8.94,5.34 L 6.33,4.04 L 6.27,4.04 Z" fill="#232e17" stroke="none" /><path d="M 13.52,3.09 L 13.55,3.15 L 14.38,3.56 L 14.44,3.56 L 15.30,3.12 L 15.30,3.09 L 14.47,2.67 L 14.35,2.67 Z" fill="#232e17" stroke="none" /><path d="M 9.03,2.67 L 9.03,2.70 L 11.61,3.98 L 11.64,4.01 L 11.58,4.07 L 10.78,4.45 L 10.78,4.49 L 11.67,4.93 L 12.56,4.49 L 12.63,4.49 L 15.27,5.82 L 15.36,5.82 L 17.11,4.93 L 17.11,4.90 L 16.29,4.49 L 16.16,4.49 L 15.36,4.90 L 15.27,4.90 L 9.96,2.23 L 9.89,2.23 Z" fill="#232e17" stroke="none" /><path d="M 15.33,2.19 L 15.33,2.23 L 17.02,3.05 L 17.08,3.12 L 16.25,3.53 L 16.25,3.59 L 17.97,4.45 L 18.10,4.45 L 19.82,3.59 L 19.82,3.53 L 18.10,2.67 L 18.13,2.61 L 18.86,2.26 L 18.86,2.19 L 18.04,1.78 L 17.94,1.78 L 17.11,2.19 L 16.25,1.75 L 16.19,1.75 Z" fill="#232e17" stroke="none" /><path d="M 14.41,0.83 L 14.41,0.86 L 15.30,1.30 L 16.16,0.89 L 16.13,0.83 L 15.30,0.41 L 15.24,0.41 Z" fill="#232e17" stroke="none" /><path d="M 5.41,9.86 L 5.41,9.89 L 6.30,10.34 L 7.16,9.92 L 7.13,9.86 L 6.30,9.45 L 6.23,9.45 Z" fill="#242c1b" stroke="none" /><path d="M 10.78,8.08 L 9.92,7.63 L 9.86,7.63 L 8.08,8.52 L 8.08,8.56 L 9.00,9.00 L 10.78,8.11 Z" fill="#242c1b" stroke="none" /><path d="M 21.66,8.97 L 21.69,9.03 L 22.52,9.45 L 22.58,9.45 L 23.44,9.00 L 23.44,8.97 L 22.62,8.56 L 22.49,8.56 Z" fill="#27291d" stroke="none" /><path d="M 8.14,11.23 L 8.14,11.26 L 14.38,14.38 L 14.44,14.38 L 16.16,13.52 L 16.13,13.46 L 13.52,12.15 L 12.63,12.60 L 12.56,12.60 L 9.03,10.82 L 8.94,10.82 Z" fill="#2b3720" stroke="none" /><path d="M 12.60,10.78 L 12.60,10.82 L 17.05,13.04 L 17.11,13.04 L 18.89,12.15 L 18.89,12.12 L 17.18,11.26 L 17.08,11.26 L 16.22,11.71 L 13.52,10.34 Z" fill="#2b3720" stroke="none" /><path d="M 9.89,10.34 L 9.89,10.37 L 10.78,10.82 L 11.71,10.37 L 11.71,10.34 L 10.82,9.89 Z" fill="#2b3720" stroke="none" /><path d="M 6.33,10.31 L 6.36,10.37 L 7.19,10.78 L 7.25,10.78 L 8.08,10.37 L 8.08,10.34 L 7.19,9.89 Z" fill="#2b3720" stroke="none" /><path d="M 4.52,9.42 L 4.52,9.45 L 5.34,9.86 L 5.47,9.86 L 6.23,9.48 L 6.23,9.42 L 5.41,9.00 L 5.31,9.00 Z" fill="#2b3720" stroke="none" /><path d="M 9.89,8.52 L 9.89,8.56 L 10.78,9.00 L 11.71,8.56 L 11.71,8.52 L 10.82,8.08 Z" fill="#2b3720" stroke="none" /><path d="M 3.56,7.16 L 3.59,7.22 L 6.20,8.52 L 6.33,8.52 L 7.13,8.11 L 7.22,8.11 L 8.02,8.52 L 8.14,8.52 L 9.86,7.67 L 9.86,7.60 L 9.03,7.19 L 8.94,7.19 L 8.08,7.63 L 7.22,7.19 L 7.13,7.19 L 6.27,7.63 L 4.52,6.74 L 4.39,6.74 Z" fill="#2b3720" stroke="none" /><path d="M 0.03,7.16 L 0.06,7.22 L 0.83,7.60 L 0.92,7.60 L 1.72,7.19 L 1.72,7.16 L 0.89,6.74 Z" fill="#2b3720" stroke="none" /><path d="M 18.04,6.27 L 18.04,6.30 L 23.35,8.94 L 23.41,9.00 L 23.38,9.03 L 22.58,9.42 L 22.58,9.48 L 23.35,9.86 L 23.48,9.86 L 25.19,9.00 L 25.19,8.94 L 21.73,7.22 L 21.69,7.19 L 21.76,7.13 L 22.52,6.74 L 22.58,6.74 L 24.33,7.63 L 24.40,7.63 L 25.26,7.19 L 26.97,8.05 L 27.10,8.05 L 27.93,7.63 L 27.90,7.57 L 23.54,5.41 L 23.51,5.38 L 23.57,5.31 L 24.30,4.96 L 24.30,4.93 L 23.44,4.49 L 22.62,4.90 L 22.52,4.90 L 21.73,4.49 L 21.60,4.49 L 20.77,4.90 L 20.80,4.96 L 22.52,5.82 L 21.66,6.27 L 19.88,5.38 L 19.82,5.38 Z" fill="#2b3720" stroke="none" /><path d="M 7.22,3.56 L 7.25,3.63 L 13.49,6.74 L 14.41,6.30 L 14.41,6.27 L 8.17,3.15 L 8.05,3.15 Z" fill="#2b3720" stroke="none" /><path d="M 14.44,3.53 L 14.44,3.59 L 15.27,4.01 L 15.20,4.07 L 14.41,4.45 L 14.41,4.49 L 15.30,4.93 L 16.19,4.49 L 16.25,4.49 L 17.11,4.93 L 18.04,4.49 L 18.04,4.45 L 15.36,3.12 L 15.27,3.12 Z" fill="#2b3720" stroke="none" /><path d="M 18.04,2.64 L 18.04,2.67 L 18.93,3.12 L 19.79,2.70 L 19.75,2.64 L 18.93,2.23 L 18.86,2.23 Z" fill="#2b3720" stroke="none" /><path d="M 9.96,2.19 L 9.96,2.26 L 11.67,3.12 L 12.56,2.67 L 12.63,2.67 L 13.49,3.12 L 14.41,2.67 L 14.41,2.64 L 13.52,2.19 L 12.63,2.64 L 12.56,2.64 L 11.80,2.26 L 11.74,2.19 L 11.77,2.16 L 12.56,1.78 L 12.56,1.72 L 11.80,1.34 L 11.67,1.34 Z" fill="#2b3720" stroke="none" /><path d="M 15.33,1.27 L 15.36,1.34 L 17.08,2.19 L 17.18,2.19 L 17.97,1.78 L 17.97,1.75 L 16.19,0.86 Z" fill="#2b3720" stroke="none" /><path d="M 7.19,8.97 L 7.22,9.03 L 8.05,9.45 L 8.11,9.45 L 8.97,9.00 L 8.97,8.97 L 8.14,8.56 L 8.02,8.56 Z" fill="#323c2c" stroke="none" /><path d="M 17.15,4.90 L 17.18,4.96 L 18.00,5.38 L 18.07,5.38 L 18.93,4.93 L 18.93,4.90 L 18.10,4.49 L 17.97,4.49 Z" fill="#323c2c" stroke="none" /><path d="M 19.88,3.53 L 19.88,3.59 L 20.71,4.01 L 20.80,4.01 L 21.60,3.59 L 21.60,3.56 L 20.77,3.15 L 20.64,3.15 Z" fill="#323c2c" stroke="none" /><path d="M 21.60,25.16 L 21.53,25.16 L 20.71,25.57 L 20.71,28.85 L 20.77,28.85 L 21.60,28.44 Z" fill="#33352d" stroke="none" /><path d="M 21.60,14.06 L 20.71,14.50 L 20.71,21.15 L 21.60,20.71 Z" fill="#33352d" stroke="none" /><path d="M 21.60,20.71 L 20.71,21.15 L 20.71,25.57 L 20.77,25.57 L 21.60,25.16 Z" fill="#393b33" stroke="none" /><path d="M 21.60,10.78 L 20.71,11.23 L 20.71,14.50 L 21.60,14.06 Z" fill="#393b33" stroke="none" /><path d="M 10.82,9.89 L 10.82,9.92 L 12.53,10.78 L 12.66,10.78 L 13.46,10.37 L 13.55,10.37 L 16.19,11.71 L 16.25,11.71 L 17.11,11.26 L 17.11,11.23 L 12.66,9.00 L 12.56,9.00 Z" fill="#3f4937" stroke="none" /><path d="M 10.78,8.97 L 9.96,8.56 L 9.83,8.56 L 8.11,9.42 L 8.11,9.48 L 8.94,9.89 L 9.03,9.89 L 10.75,9.03 Z" fill="#3f4937" stroke="none" /><path d="M 6.27,8.52 L 6.27,8.56 L 7.16,9.00 L 8.08,8.56 L 8.08,8.52 L 7.19,8.08 Z" fill="#3f4937" stroke="none" /><path d="M 0.89,7.60 L 0.89,7.63 L 1.72,8.05 L 1.84,8.05 L 2.61,7.67 L 2.61,7.60 L 1.78,7.19 L 1.69,7.19 Z" fill="#3f4937" stroke="none" /><path d="M 21.66,7.16 L 21.69,7.22 L 25.19,8.97 L 25.26,8.97 L 26.12,8.52 L 26.12,8.49 L 22.62,6.74 L 22.49,6.74 Z" fill="#3f4937" stroke="none" /><path d="M 21.66,4.45 L 21.66,4.49 L 22.55,4.93 L 23.41,4.52 L 23.38,4.45 L 22.55,4.04 L 22.49,4.04 Z" fill="#3f4937" stroke="none" /><path d="M 18.96,3.09 L 18.99,3.15 L 19.82,3.56 L 19.88,3.56 L 20.71,3.15 L 20.71,3.12 L 19.82,2.67 Z" fill="#3f4937" stroke="none" /><path d="M 11.71,2.19 L 11.71,2.23 L 12.53,2.64 L 12.50,2.70 L 11.71,3.09 L 11.74,3.15 L 14.35,4.45 L 14.47,4.45 L 15.30,4.04 L 15.27,3.98 L 12.66,2.67 L 12.69,2.61 L 13.49,2.23 L 13.46,2.16 L 12.63,1.75 L 12.56,1.75 Z" fill="#3f4937" stroke="none" /><path d="M 7.22,25.16 L 7.22,28.44 L 8.05,28.85 L 8.11,28.85 L 8.11,25.57 L 7.28,25.16 Z" fill="#53564a" stroke="none" /><path d="M 7.22,14.06 L 7.22,20.71 L 8.11,21.15 L 8.11,14.50 Z" fill="#53564a" stroke="none" /><path d="M 7.22,20.71 L 7.22,25.16 L 8.05,25.57 L 8.11,25.57 L 8.11,21.15 Z" fill="#5c6052" stroke="none" /><path d="M 7.22,10.78 L 7.22,14.06 L 8.11,14.50 L 8.11,11.23 Z" fill="#5c6052" stroke="none" /><path d="M 18.04,6.27 L 17.11,5.82 L 14.44,7.16 L 14.44,7.22 L 15.27,7.63 L 15.36,7.63 L 18.04,6.30 Z" fill="#7e7d68" stroke="none" /><path d="M 13.49,8.52 L 12.66,8.11 L 12.53,8.11 L 10.82,8.97 L 10.82,9.00 L 11.67,9.45 L 11.74,9.45 L 13.46,8.59 Z" fill="#878570" stroke="none" /><path d="M 9.89,5.82 L 9.89,5.85 L 12.56,7.19 L 12.63,7.19 L 13.49,6.74 L 13.49,6.71 L 10.82,5.38 L 10.75,5.38 Z" fill="#878570" stroke="none" /><path d="M 19.82,5.34 L 18.99,4.93 L 18.89,4.93 L 17.18,5.79 L 17.15,5.85 L 17.97,6.27 L 18.10,6.27 L 19.82,5.41 Z" fill="#878570" stroke="none" /><path d="M 18.93,10.34 L 18.93,10.37 L 19.82,10.82 L 20.74,10.37 L 20.74,10.34 L 19.85,9.89 Z" fill="#8e8c75" stroke="none" /><path d="M 11.67,9.42 L 10.85,9.00 L 10.75,9.00 L 8.08,10.34 L 8.08,10.37 L 9.00,10.82 L 11.67,9.48 Z" fill="#8e8c75" stroke="none" /><path d="M 15.33,8.52 L 15.36,8.59 L 17.97,9.89 L 18.07,9.89 L 18.89,9.48 L 18.89,9.42 L 16.29,8.11 L 16.16,8.11 Z" fill="#8e8c75" stroke="none" /><path d="M 15.30,7.63 L 14.44,7.19 L 14.38,7.19 L 12.60,8.08 L 12.60,8.11 L 13.52,8.56 L 15.30,7.67 Z" fill="#8e8c75" stroke="none" /><path d="M 8.08,4.90 L 8.11,4.96 L 9.83,5.82 L 9.92,5.82 L 10.75,5.41 L 10.75,5.34 L 9.03,4.49 L 8.91,4.49 Z" fill="#8e8c75" stroke="none" /><path d="M 19.85,10.78 L 19.88,10.85 L 20.64,11.23 L 20.74,11.23 L 21.57,10.82 L 21.57,10.75 L 20.80,10.37 L 20.68,10.37 Z" fill="#97947d" stroke="none" /><path d="M 7.25,10.75 L 7.25,10.82 L 8.08,11.23 L 8.17,11.23 L 8.97,10.82 L 8.97,10.78 L 8.14,10.37 L 8.02,10.37 Z" fill="#97947d" stroke="none" /><path d="M 18.04,9.89 L 18.04,9.92 L 18.86,10.34 L 18.99,10.34 L 19.82,9.92 L 19.79,9.86 L 18.96,9.45 L 18.89,9.45 Z" fill="#97947d" stroke="none" /><path d="M 14.41,8.08 L 14.41,8.11 L 15.30,8.56 L 16.22,8.11 L 16.22,8.08 L 15.33,7.63 Z" fill="#97947d" stroke="none" /><path d="M 12.63,7.16 L 12.63,7.22 L 13.46,7.63 L 13.55,7.63 L 14.38,7.22 L 14.38,7.16 L 13.55,6.74 L 13.46,6.74 Z" fill="#97947d" stroke="none" /><path d="M 22.49,4.01 L 21.66,3.59 L 21.57,3.59 L 18.96,4.90 L 18.96,4.93 L 19.82,5.38 L 19.88,5.38 L 22.49,4.07 Z" fill="#97947d" stroke="none" /><path d="M 6.33,4.01 L 6.33,4.07 L 8.05,4.93 L 8.97,4.49 L 8.97,4.45 L 7.25,3.59 L 7.16,3.59 Z" fill="#97947d" stroke="none" /></svg>