<svg height="32" width="32" viewBox="0 0 32 32"><defs /><path d="M 16.19,27.86 L 16.13,27.86 L 14.41,28.72 L 14.41,29.84 L 14.47,29.84 L 16.19,28.98 Z" fill="#271d1c" stroke="none" /><path d="M 24.33,23.79 L 24.27,23.79 L 21.60,25.13 L 21.60,26.24 L 21.66,26.24 L 24.33,24.91 Z" fill="#271d1c" stroke="none" /><path d="M 15.27,21.66 L 14.41,22.08 L 14.41,23.19 L 14.47,23.19 L 15.27,22.78 Z" fill="#271d1c" stroke="none" /><path d="M 23.41,20.93 L 23.35,20.93 L 22.55,21.34 L 22.52,21.31 L 22.52,20.26 L 22.46,20.26 L 19.79,21.60 L 19.79,22.71 L 19.85,22.71 L 21.57,21.85 L 21.60,21.88 L 21.60,22.93 L 21.63,22.93 L 23.41,22.04 Z" fill="#271d1c" stroke="none" /><path d="M 19.79,16.10 L 19.72,16.10 L 18.89,16.51 L 18.89,17.62 L 19.79,17.18 Z" fill="#271d1c" stroke="none" /><path d="M 16.19,15.65 L 14.41,16.54 L 14.41,17.65 L 16.19,16.76 Z" fill="#271d1c" stroke="none" /><path d="M 28.82,14.89 L 27.93,15.33 L 27.93,17.53 L 27.04,17.97 L 27.04,19.09 L 27.10,19.09 L 28.82,18.23 Z" fill="#271d1c" stroke="none" /><path d="M 25.22,10.05 L 25.16,10.05 L 23.44,10.91 L 23.41,10.88 L 23.41,9.89 L 23.35,9.89 L 21.60,10.78 L 21.60,11.83 L 21.66,11.83 L 23.35,10.97 L 23.41,11.01 L 23.41,12.02 L 23.48,12.02 L 24.27,11.61 L 24.33,11.64 L 24.33,12.66 L 24.27,12.72 L 23.41,13.14 L 23.41,14.25 L 23.48,14.25 L 24.33,13.81 L 24.33,12.72 L 24.40,12.66 L 25.22,12.25 Z" fill="#271d1c" stroke="none" /><path d="M 17.08,28.53 L 17.02,28.53 L 15.27,29.42 L 15.27,30.50 L 15.33,30.50 L 17.08,29.61 Z" fill="#2d2120" stroke="none" /><path d="M 21.60,26.27 L 21.53,26.27 L 20.71,26.69 L 20.71,27.80 L 21.60,27.36 Z" fill="#2d2120" stroke="none" /><path d="M 15.27,25.00 L 15.20,25.00 L 14.41,25.42 L 14.41,26.53 L 15.27,26.12 Z" fill="#2d2120" stroke="none" /><path d="M 21.60,22.93 L 18.89,24.27 L 18.89,25.38 L 21.60,24.05 Z" fill="#2d2120" stroke="none" /><path d="M 15.27,22.78 L 14.41,23.19 L 14.41,24.30 L 15.27,23.89 Z" fill="#2d2120" stroke="none" /><path d="M 28.82,22.65 L 26.18,23.95 L 26.15,23.98 L 26.15,25.07 L 24.40,25.96 L 24.33,25.92 L 24.33,24.91 L 25.22,24.46 L 25.22,23.35 L 25.16,23.35 L 24.33,23.76 L 24.33,24.87 L 23.41,25.35 L 23.41,26.43 L 22.52,26.88 L 22.52,27.96 L 26.12,26.18 L 26.15,26.15 L 26.15,25.10 L 26.18,25.07 L 28.82,23.76 Z" fill="#2d2120" stroke="none" /><path d="M 19.79,21.63 L 19.72,21.63 L 18.89,22.04 L 18.89,23.16 L 18.96,23.16 L 19.79,22.74 Z" fill="#2d2120" stroke="none" /><path d="M 24.33,21.57 L 22.52,22.46 L 22.52,24.68 L 23.41,24.24 L 23.41,23.16 L 23.48,23.09 L 24.33,22.68 Z" fill="#2d2120" stroke="none" /><path d="M 23.41,19.82 L 23.35,19.82 L 22.52,20.23 L 22.52,21.34 L 22.58,21.34 L 23.41,20.93 Z" fill="#2d2120" stroke="none" /><path d="M 28.82,19.34 L 28.76,19.34 L 27.93,19.75 L 27.93,20.87 L 28.82,20.42 Z" fill="#2d2120" stroke="none" /><path d="M 20.71,18.96 L 20.64,18.96 L 19.79,19.40 L 19.79,20.52 L 20.71,20.07 Z" fill="#2d2120" stroke="none" /><path d="M 16.19,17.88 L 14.41,18.77 L 14.41,19.85 L 14.47,19.85 L 16.19,18.99 Z" fill="#2d2120" stroke="none" /><path d="M 21.60,15.17 L 19.79,16.06 L 19.79,17.15 L 19.72,17.21 L 18.89,17.62 L 18.89,18.70 L 18.83,18.77 L 17.08,19.63 L 17.08,20.74 L 17.15,20.74 L 18.86,19.88 L 18.89,19.85 L 18.89,18.77 L 18.96,18.70 L 20.71,17.84 L 20.71,16.73 L 21.60,16.29 Z" fill="#2d2120" stroke="none" /><path d="M 28.82,13.77 L 27.93,14.22 L 27.93,15.33 L 28.82,14.89 Z" fill="#2d2120" stroke="none" /><path d="M 25.22,13.36 L 23.41,14.25 L 23.41,16.45 L 23.35,16.51 L 22.52,16.92 L 22.52,18.04 L 23.41,17.59 L 23.41,16.51 L 23.48,16.45 L 24.33,16.03 L 24.33,14.92 L 25.22,14.47 Z" fill="#2d2120" stroke="none" /><path d="M 24.33,11.58 L 23.44,12.02 L 23.41,11.99 L 23.41,10.94 L 22.55,11.36 L 22.52,11.39 L 22.52,12.47 L 21.60,12.95 L 21.60,14.06 L 24.30,12.72 L 24.33,12.69 Z" fill="#2d2120" stroke="none" /><path d="M 21.60,10.78 L 20.71,11.23 L 20.71,12.28 L 20.77,12.28 L 21.60,11.86 Z" fill="#2d2120" stroke="none" /><path d="M 28.82,9.35 L 28.76,9.35 L 27.07,10.21 L 27.04,10.18 L 27.04,9.13 L 27.01,9.13 L 25.22,10.02 L 25.22,11.13 L 27.01,10.24 L 27.04,10.27 L 27.04,11.32 L 27.10,11.32 L 28.82,10.47 Z" fill="#2d2120" stroke="none" /><path d="M 15.27,29.42 L 14.41,29.84 L 14.41,32.00 L 14.47,32.00 L 16.19,31.14 L 16.19,30.06 L 15.30,30.50 L 15.27,30.47 Z" fill="#342722" stroke="none" /><path d="M 23.41,25.35 L 22.52,25.80 L 22.52,26.88 L 22.49,26.91 L 20.77,27.77 L 20.71,27.74 L 20.71,26.72 L 20.64,26.72 L 18.93,27.58 L 18.89,27.61 L 18.89,28.69 L 18.96,28.69 L 20.68,27.83 L 20.71,27.86 L 20.71,28.85 L 20.77,28.85 L 22.49,27.99 L 22.52,27.96 L 22.52,26.91 L 23.41,26.47 Z" fill="#342722" stroke="none" /><path d="M 16.19,24.52 L 15.27,24.97 L 15.27,26.08 L 14.41,26.53 L 14.41,27.61 L 14.47,27.61 L 15.27,27.20 L 15.27,26.12 L 16.19,25.64 Z" fill="#342722" stroke="none" /><path d="M 18.89,24.30 L 18.83,24.30 L 17.08,25.19 L 17.08,26.27 L 17.15,26.27 L 18.89,25.38 Z" fill="#342722" stroke="none" /><path d="M 27.04,24.65 L 26.97,24.65 L 26.18,25.07 L 26.15,25.03 L 26.15,23.98 L 26.12,23.98 L 24.33,24.87 L 24.33,25.99 L 26.12,25.10 L 26.15,25.13 L 26.15,26.15 L 26.18,26.15 L 27.04,25.70 Z" fill="#342722" stroke="none" /><path d="M 21.60,21.82 L 20.71,22.27 L 20.71,23.38 L 21.57,22.97 L 21.60,23.00 L 21.60,24.02 L 19.79,24.94 L 19.79,26.05 L 21.60,25.16 L 21.60,24.05 L 22.52,23.57 L 22.52,22.49 L 22.46,22.49 L 21.63,22.90 L 21.60,22.87 Z" fill="#342722" stroke="none" /><path d="M 28.82,21.53 L 27.04,22.43 L 27.04,23.54 L 28.82,22.65 Z" fill="#342722" stroke="none" /><path d="M 16.19,21.22 L 16.13,21.22 L 15.27,21.66 L 15.27,22.78 L 16.19,22.33 Z" fill="#342722" stroke="none" /><path d="M 26.15,20.68 L 26.08,20.68 L 24.33,21.57 L 24.33,22.65 L 24.40,22.65 L 26.15,21.76 Z" fill="#342722" stroke="none" /><path d="M 19.79,20.52 L 17.97,21.41 L 17.97,22.52 L 19.79,21.63 Z" fill="#342722" stroke="none" /><path d="M 15.27,19.44 L 14.41,19.85 L 14.41,20.96 L 14.47,20.96 L 15.27,20.55 Z" fill="#342722" stroke="none" /><path d="M 26.15,18.42 L 26.15,19.53 L 26.21,19.53 L 27.01,19.12 L 27.04,19.15 L 27.04,20.20 L 27.10,20.20 L 28.82,19.34 L 28.82,18.23 L 28.76,18.23 L 27.07,19.09 L 27.04,19.05 L 27.04,18.00 L 26.97,18.00 Z" fill="#342722" stroke="none" /><path d="M 17.08,17.43 L 16.19,17.88 L 16.19,18.96 L 16.25,18.96 L 17.08,18.54 Z" fill="#342722" stroke="none" /><path d="M 15.27,17.24 L 15.20,17.24 L 14.41,17.65 L 14.41,18.77 L 15.27,18.35 Z" fill="#342722" stroke="none" /><path d="M 25.22,15.59 L 25.16,15.59 L 23.44,16.45 L 23.41,16.48 L 23.41,17.56 L 23.35,17.62 L 21.60,18.48 L 21.60,19.59 L 21.66,19.59 L 22.49,19.18 L 22.52,19.21 L 22.52,20.23 L 22.58,20.23 L 23.38,19.82 L 23.41,19.85 L 23.41,20.90 L 23.48,20.90 L 25.22,20.01 L 25.22,18.89 L 23.44,19.79 L 23.41,19.75 L 23.41,18.74 L 23.48,18.67 L 24.33,18.26 L 24.33,17.15 L 25.22,16.70 Z" fill="#342722" stroke="none" /><path d="M 18.89,15.43 L 18.83,15.43 L 17.97,15.87 L 17.97,16.99 L 18.89,16.54 Z" fill="#342722" stroke="none" /><path d="M 27.93,15.33 L 26.15,16.22 L 26.15,17.34 L 27.93,16.45 Z" fill="#342722" stroke="none" /><path d="M 17.08,15.20 L 16.19,15.65 L 16.19,16.76 L 17.08,16.32 Z" fill="#342722" stroke="none" /><path d="M 15.27,13.96 L 15.20,13.96 L 14.41,14.38 L 14.41,15.43 L 14.47,15.43 L 15.27,15.01 Z" fill="#342722" stroke="none" /><path d="M 23.41,13.17 L 23.35,13.17 L 22.52,13.58 L 22.52,14.70 L 21.60,15.17 L 21.60,16.25 L 20.71,16.70 L 20.71,17.81 L 18.93,18.70 L 18.89,18.67 L 18.89,17.62 L 18.86,17.62 L 17.97,18.07 L 17.97,19.18 L 18.04,19.18 L 18.86,18.77 L 18.89,18.80 L 18.89,19.85 L 18.93,19.85 L 20.71,18.96 L 20.71,17.84 L 21.60,17.40 L 21.60,16.29 L 23.41,15.36 Z" fill="#342722" stroke="none" /><path d="M 28.82,12.66 L 27.93,13.11 L 27.93,14.22 L 28.82,13.77 Z" fill="#342722" stroke="none" /><path d="M 24.33,12.69 L 24.33,13.81 L 25.19,13.39 L 25.22,13.42 L 25.22,14.44 L 25.29,14.44 L 27.04,13.55 L 27.04,12.47 L 26.97,12.47 L 25.29,13.33 L 25.22,13.30 L 25.22,12.25 Z" fill="#342722" stroke="none" /><path d="M 22.52,11.39 L 20.74,12.28 L 20.71,12.25 L 20.71,11.23 L 20.68,11.23 L 18.00,12.56 L 17.97,12.60 L 17.97,13.65 L 18.04,13.65 L 18.86,13.23 L 18.89,13.26 L 18.89,14.28 L 18.96,14.28 L 19.79,13.87 L 19.79,12.79 L 19.85,12.72 L 20.68,12.31 L 20.71,12.34 L 20.71,13.39 L 20.74,13.39 L 22.52,12.50 Z" fill="#342722" stroke="none" /><path d="M 28.82,10.47 L 28.76,10.47 L 27.93,10.88 L 27.93,11.99 L 27.99,11.99 L 28.82,11.58 Z" fill="#342722" stroke="none" /><path d="M 24.33,9.42 L 23.41,9.86 L 23.41,10.94 L 24.33,10.50 Z" fill="#342722" stroke="none" /><path d="M 26.15,8.52 L 26.08,8.52 L 25.22,8.97 L 25.22,10.02 L 25.29,10.02 L 26.15,9.57 Z" fill="#342722" stroke="none" /><path d="M 28.82,7.19 L 28.76,7.19 L 27.93,7.60 L 27.93,8.68 L 28.82,8.24 Z" fill="#342722" stroke="none" /><path d="M 17.08,25.19 L 15.27,26.08 L 15.27,28.31 L 16.16,27.86 L 16.19,27.90 L 16.19,28.95 L 16.25,28.95 L 17.05,28.53 L 17.08,28.56 L 17.08,29.58 L 17.02,29.65 L 16.19,30.06 L 16.19,31.11 L 16.25,31.11 L 17.08,30.70 L 17.08,29.65 L 17.15,29.58 L 17.91,29.20 L 17.97,29.23 L 17.97,30.22 L 18.04,30.22 L 18.89,29.77 L 18.89,27.61 L 17.11,28.50 L 17.08,28.47 L 17.08,27.42 L 17.02,27.42 L 16.22,27.83 L 16.19,27.80 L 16.19,26.75 L 17.08,26.31 Z" fill="#3a3028" stroke="none" /><path d="M 19.79,24.94 L 17.97,25.83 L 17.97,26.94 L 18.04,26.94 L 19.79,26.05 Z" fill="#3a3028" stroke="none" /><path d="M 28.82,23.76 L 28.76,23.76 L 27.04,24.62 L 27.04,25.70 L 28.82,24.81 Z" fill="#3a3028" stroke="none" /><path d="M 22.52,23.57 L 21.60,24.02 L 21.60,25.13 L 20.71,25.57 L 20.71,26.69 L 20.77,26.69 L 21.57,26.27 L 21.60,26.31 L 21.60,27.36 L 22.52,26.91 L 22.52,25.80 L 21.63,26.24 L 21.60,26.21 L 21.60,25.16 L 22.52,24.68 Z" fill="#3a3028" stroke="none" /><path d="M 16.19,22.33 L 16.13,22.33 L 15.27,22.78 L 15.27,23.86 L 14.41,24.30 L 14.41,25.42 L 15.27,25.00 L 15.27,23.89 L 16.19,23.41 Z" fill="#3a3028" stroke="none" /><path d="M 20.71,22.27 L 19.79,22.71 L 19.79,23.83 L 19.85,23.83 L 20.71,23.38 Z" fill="#3a3028" stroke="none" /><path d="M 18.89,22.08 L 18.83,22.08 L 17.97,22.52 L 17.97,24.75 L 18.89,24.30 Z" fill="#3a3028" stroke="none" /><path d="M 24.33,20.45 L 23.41,20.90 L 23.41,22.01 L 23.48,22.01 L 24.33,21.57 Z" fill="#3a3028" stroke="none" /><path d="M 16.19,18.99 L 16.13,18.99 L 15.27,19.44 L 15.27,20.52 L 15.20,20.58 L 14.41,20.96 L 14.41,22.08 L 14.47,22.08 L 15.27,21.66 L 15.27,20.58 L 15.33,20.52 L 16.19,20.10 Z" fill="#3a3028" stroke="none" /><path d="M 28.82,20.42 L 27.96,20.83 L 27.93,20.80 L 27.93,19.79 L 27.86,19.79 L 27.07,20.20 L 27.04,20.17 L 27.04,19.12 L 26.97,19.12 L 26.18,19.53 L 26.15,19.50 L 26.15,18.45 L 26.08,18.45 L 25.26,18.86 L 25.22,18.89 L 25.22,20.01 L 26.12,19.56 L 26.15,19.59 L 26.15,21.73 L 26.08,21.79 L 23.44,23.09 L 23.41,23.13 L 23.41,24.24 L 25.19,23.35 L 25.22,23.38 L 25.22,24.43 L 25.29,24.43 L 27.01,23.57 L 27.04,23.54 L 27.04,22.43 L 26.18,22.84 L 26.15,22.81 L 26.15,21.79 L 26.21,21.73 L 27.86,20.90 L 27.93,20.93 L 27.93,21.98 L 28.79,21.57 L 28.82,21.53 Z" fill="#3a3028" stroke="none" /><path d="M 24.33,18.26 L 24.27,18.26 L 23.41,18.70 L 23.41,19.79 L 23.48,19.79 L 24.33,19.34 Z" fill="#3a3028" stroke="none" /><path d="M 27.93,16.45 L 27.04,16.89 L 27.04,17.97 L 27.10,17.97 L 27.93,17.56 Z" fill="#3a3028" stroke="none" /><path d="M 23.41,15.36 L 21.60,16.25 L 21.60,17.37 L 20.71,17.81 L 20.71,20.04 L 19.82,20.49 L 19.79,20.45 L 19.79,19.40 L 19.75,19.40 L 17.08,20.74 L 17.08,21.85 L 17.15,21.85 L 19.72,20.55 L 19.79,20.58 L 19.79,21.60 L 19.85,21.60 L 22.52,20.26 L 22.52,19.15 L 21.63,19.59 L 21.60,19.56 L 21.60,18.51 L 22.52,18.04 L 22.52,16.95 L 22.58,16.89 L 23.41,16.48 Z" fill="#3a3028" stroke="none" /><path d="M 15.27,15.01 L 14.41,15.43 L 14.41,16.54 L 15.27,16.13 Z" fill="#3a3028" stroke="none" /><path d="M 20.71,12.31 L 20.64,12.31 L 19.79,12.76 L 19.79,14.95 L 18.89,15.40 L 18.89,16.51 L 17.15,17.40 L 17.08,17.37 L 17.08,16.35 L 17.15,16.29 L 17.97,15.87 L 17.97,14.79 L 18.04,14.73 L 18.89,14.31 L 18.89,13.20 L 18.00,13.65 L 17.97,13.61 L 17.97,12.60 L 17.08,13.04 L 17.08,14.09 L 17.15,14.09 L 17.94,13.68 L 17.97,13.71 L 17.97,14.73 L 17.91,14.79 L 17.08,15.20 L 17.08,16.29 L 17.02,16.35 L 15.27,17.21 L 15.27,18.32 L 15.33,18.32 L 17.02,17.46 L 17.08,17.50 L 17.08,19.63 L 17.15,19.63 L 17.97,19.21 L 17.97,18.10 L 18.89,17.62 L 18.89,16.54 L 18.93,16.51 L 22.52,14.73 L 22.52,13.61 L 22.46,13.61 L 21.63,14.03 L 21.60,14.00 L 21.60,12.95 L 20.74,13.36 L 20.71,13.33 Z" fill="#3a3028" stroke="none" /><path d="M 25.22,8.97 L 24.33,9.42 L 24.33,10.47 L 24.40,10.47 L 25.22,10.05 Z" fill="#3a3028" stroke="none" /><path d="M 27.93,7.63 L 27.86,7.63 L 26.15,8.49 L 26.15,9.57 L 27.01,9.16 L 27.04,9.19 L 27.04,10.21 L 25.22,11.13 L 25.22,13.36 L 27.01,12.47 L 27.04,12.50 L 27.04,13.52 L 26.97,13.58 L 26.15,14.00 L 26.15,15.08 L 26.08,15.14 L 25.26,15.55 L 25.22,15.52 L 25.22,14.47 L 25.16,14.47 L 24.33,14.89 L 24.33,16.00 L 24.40,16.00 L 25.19,15.59 L 25.22,15.62 L 25.22,16.67 L 25.29,16.67 L 27.93,15.33 L 27.93,14.22 L 27.07,14.63 L 27.04,14.60 L 27.04,13.58 L 27.10,13.52 L 28.82,12.66 L 28.82,11.58 L 28.76,11.58 L 27.96,11.99 L 27.93,11.96 L 27.93,10.91 L 27.86,10.91 L 27.07,11.32 L 27.04,11.29 L 27.04,10.24 L 27.93,9.80 Z" fill="#3a3028" stroke="none" /><path d="M 17.97,29.17 L 17.08,29.61 L 17.08,30.66 L 17.15,30.66 L 17.97,30.25 Z" fill="#3f382d" stroke="none" /><path d="M 20.71,27.80 L 18.89,28.69 L 18.89,29.77 L 20.71,28.88 Z" fill="#3f382d" stroke="none" /><path d="M 15.27,27.20 L 14.41,27.61 L 14.41,28.72 L 14.47,28.72 L 15.27,28.31 Z" fill="#3f382d" stroke="none" /><path d="M 20.71,25.61 L 20.64,25.61 L 18.00,26.94 L 17.97,26.91 L 17.97,25.86 L 17.91,25.86 L 16.19,26.72 L 16.19,27.83 L 16.25,27.83 L 17.05,27.42 L 17.08,27.45 L 17.08,28.50 L 17.15,28.50 L 20.71,26.72 Z" fill="#3f382d" stroke="none" /><path d="M 19.79,22.74 L 19.72,22.74 L 18.89,23.16 L 18.89,24.27 L 18.96,24.27 L 19.79,23.86 Z" fill="#3f382d" stroke="none" /><path d="M 27.93,20.87 L 26.15,21.76 L 26.15,22.87 L 27.93,21.98 Z" fill="#3f382d" stroke="none" /><path d="M 26.15,19.56 L 26.08,19.56 L 24.33,20.45 L 24.33,21.57 L 26.15,20.68 Z" fill="#3f382d" stroke="none" /><path d="M 17.08,18.54 L 17.02,18.54 L 16.19,18.96 L 16.19,20.07 L 15.27,20.55 L 15.27,21.66 L 16.16,21.22 L 16.19,21.25 L 16.19,23.38 L 16.13,23.44 L 15.27,23.86 L 15.27,24.97 L 15.33,24.97 L 16.16,24.56 L 16.19,24.59 L 16.19,25.64 L 17.97,24.75 L 17.97,21.44 L 17.91,21.44 L 17.11,21.85 L 17.08,21.82 Z" fill="#3f382d" stroke="none" /><path d="M 27.04,16.89 L 26.18,17.30 L 26.15,17.27 L 26.15,16.22 L 26.12,16.22 L 24.33,17.11 L 24.33,19.34 L 27.04,18.00 Z" fill="#3f382d" stroke="none" /><path d="M 26.15,14.00 L 25.22,14.44 L 25.22,15.55 L 25.29,15.55 L 26.15,15.11 Z" fill="#3f382d" stroke="none" /><path d="M 27.93,13.11 L 27.04,13.55 L 27.04,14.66 L 27.93,14.22 Z" fill="#3f382d" stroke="none" /><path d="M 19.79,13.87 L 19.72,13.87 L 18.00,14.73 L 17.97,14.70 L 17.97,13.68 L 17.91,13.68 L 17.11,14.09 L 17.08,14.06 L 17.08,13.04 L 17.05,13.04 L 15.27,13.93 L 15.27,16.10 L 15.33,16.10 L 17.94,14.79 L 17.97,14.82 L 17.97,15.84 L 17.91,15.90 L 17.08,16.32 L 17.08,17.43 L 17.11,17.43 L 17.97,16.99 L 17.97,15.90 L 18.04,15.84 L 19.79,14.98 Z" fill="#3f382d" stroke="none" /><path d="M 28.82,8.24 L 27.93,8.68 L 27.93,9.77 L 27.99,9.77 L 28.82,9.35 Z" fill="#3f382d" stroke="none" /><path d="M 7.22,25.16 L 7.22,26.27 L 9.92,27.61 L 9.92,26.50 L 9.89,26.47 L 7.28,25.16 Z" fill="#3f2f2e" stroke="none" /><path d="M 13.55,21.66 L 13.55,23.83 L 13.52,23.86 L 12.63,23.41 L 12.63,24.52 L 14.41,25.42 L 14.41,22.08 Z" fill="#3f2f2e" stroke="none" /><path d="M 0.00,21.53 L 0.00,22.65 L 1.78,23.54 L 1.78,22.43 Z" fill="#3f2f2e" stroke="none" /><path d="M 5.41,19.82 L 5.41,20.93 L 7.16,21.79 L 7.22,21.85 L 7.22,22.93 L 7.25,22.97 L 8.97,23.83 L 9.03,23.83 L 9.03,22.71 L 8.17,22.30 L 8.11,22.23 L 8.11,21.15 L 5.47,19.82 Z" fill="#3f2f2e" stroke="none" /><path d="M 0.00,14.89 L 0.00,16.00 L 0.89,16.45 L 0.89,15.33 Z" fill="#3f2f2e" stroke="none" /><path d="M 4.49,13.81 L 4.49,14.92 L 5.41,15.36 L 5.41,14.25 Z" fill="#3f2f2e" stroke="none" /><path d="M 7.22,10.78 L 7.22,11.86 L 8.97,12.72 L 9.03,12.79 L 9.03,13.87 L 9.92,14.31 L 9.92,15.36 L 9.89,15.40 L 9.10,14.98 L 9.03,14.98 L 9.03,16.10 L 9.86,16.51 L 9.92,16.51 L 9.92,15.46 L 9.96,15.43 L 10.85,15.87 L 10.85,13.65 L 9.10,12.79 L 9.03,12.72 L 9.03,11.67 Z" fill="#3f2f2e" stroke="none" /><path d="M 0.00,9.35 L 0.00,10.47 L 1.72,11.32 L 1.78,11.32 L 1.78,10.21 L 0.06,9.35 Z" fill="#3f2f2e" stroke="none" /><path d="M 8.11,27.80 L 8.11,28.88 L 11.67,30.66 L 11.74,30.66 L 11.74,29.68 L 11.80,29.65 L 14.41,30.95 L 14.41,29.84 L 11.80,28.53 L 11.74,28.53 L 11.74,29.55 L 11.71,29.58 L 9.92,28.69 L 9.92,27.67 L 9.96,27.64 L 10.78,28.06 L 10.85,28.06 L 10.85,26.94 L 9.92,26.50 L 9.92,27.55 L 9.86,27.58 L 9.03,27.17 L 9.03,28.21 L 9.00,28.25 Z" fill="#4a3633" stroke="none" /><path d="M 13.55,26.12 L 13.55,27.20 L 14.35,27.61 L 14.41,27.61 L 14.41,26.53 L 13.61,26.12 Z" fill="#4a3633" stroke="none" /><path d="M 6.30,25.80 L 6.30,26.91 L 7.22,27.36 L 7.22,26.24 Z" fill="#4a3633" stroke="none" /><path d="M 8.11,23.38 L 8.11,25.61 L 9.03,26.05 L 9.03,25.00 L 9.07,24.97 L 9.92,25.38 L 9.92,24.27 Z" fill="#4a3633" stroke="none" /><path d="M 0.89,23.09 L 0.89,24.21 L 2.61,25.07 L 2.67,25.07 L 2.67,23.98 Z" fill="#4a3633" stroke="none" /><path d="M 4.49,21.57 L 4.49,22.68 L 7.16,24.02 L 7.22,24.02 L 7.22,22.93 L 7.19,22.90 Z" fill="#4a3633" stroke="none" /><path d="M 8.11,21.15 L 8.11,22.27 L 8.97,22.71 L 9.03,22.71 L 9.03,21.60 Z" fill="#4a3633" stroke="none" /><path d="M 13.55,20.55 L 13.55,21.66 L 14.35,22.08 L 14.41,22.08 L 14.41,20.96 Z" fill="#4a3633" stroke="none" /><path d="M 4.49,19.34 L 4.49,20.45 L 5.34,20.90 L 5.41,20.90 L 5.41,19.79 Z" fill="#4a3633" stroke="none" /><path d="M 0.00,18.23 L 0.00,19.34 L 0.83,19.75 L 0.89,19.75 L 0.89,18.64 L 0.06,18.23 Z" fill="#4a3633" stroke="none" /><path d="M 5.41,17.59 L 5.41,18.70 L 6.30,19.15 L 6.30,18.04 Z" fill="#4a3633" stroke="none" /><path d="M 9.10,16.10 L 9.03,16.10 L 9.03,18.23 L 8.97,18.26 L 8.17,17.84 L 8.11,17.84 L 8.11,18.96 L 9.00,19.40 L 9.03,19.40 L 9.03,18.35 L 9.07,18.32 L 9.92,18.74 L 9.92,17.69 L 9.96,17.65 L 10.78,18.07 L 10.85,18.07 L 10.85,16.99 Z" fill="#4a3633" stroke="none" /><path d="M 0.00,16.00 L 0.00,17.11 L 0.83,17.53 L 0.89,17.53 L 0.89,16.45 Z" fill="#4a3633" stroke="none" /><path d="M 7.22,15.17 L 5.47,14.28 L 5.41,14.28 L 5.41,15.30 L 5.38,15.33 L 4.55,14.92 L 4.49,14.92 L 4.49,15.97 L 4.45,16.00 L 2.67,15.11 L 2.67,16.22 L 4.42,17.11 L 4.49,17.11 L 4.49,16.06 L 4.52,16.03 L 6.30,16.92 L 6.30,15.87 L 6.33,15.84 L 7.16,16.25 L 7.22,16.25 Z" fill="#4a3633" stroke="none" /><path d="M 10.85,13.68 L 10.85,14.76 L 12.56,15.62 L 12.63,15.68 L 12.63,16.76 L 14.41,17.65 L 14.41,16.54 L 12.69,15.68 L 12.63,15.62 L 12.63,14.54 L 10.91,13.68 Z" fill="#4a3633" stroke="none" /><path d="M 7.22,12.95 L 7.22,14.06 L 7.25,14.09 L 9.86,15.40 L 9.92,15.40 L 9.92,14.28 L 9.03,13.84 L 9.03,12.76 L 9.00,12.72 L 8.17,12.31 L 8.11,12.31 L 8.11,13.33 L 8.08,13.36 Z" fill="#4a3633" stroke="none" /><path d="M 0.00,11.58 L 0.00,12.66 L 1.78,13.55 L 1.78,12.44 L 0.06,11.58 Z" fill="#4a3633" stroke="none" /><path d="M 6.30,10.34 L 6.30,11.39 L 7.16,11.83 L 7.22,11.83 L 7.22,10.78 L 6.36,10.34 Z" fill="#4a3633" stroke="none" /><path d="M 12.63,27.86 L 12.63,28.98 L 14.35,29.84 L 14.41,29.84 L 14.41,28.72 L 12.69,27.86 Z" fill="#543f37" stroke="none" /><path d="M 9.92,27.61 L 9.92,28.72 L 11.67,29.58 L 11.74,29.65 L 11.74,30.70 L 12.56,31.11 L 12.63,31.11 L 12.63,30.06 L 11.80,29.65 L 11.74,29.58 L 11.74,28.50 Z" fill="#543f37" stroke="none" /><path d="M 4.49,24.91 L 4.49,25.99 L 6.30,26.91 L 6.30,27.96 L 6.33,27.99 L 8.05,28.85 L 8.11,28.85 L 8.11,27.86 L 8.14,27.83 L 8.97,28.25 L 9.03,28.25 L 9.03,27.17 L 9.00,27.13 L 8.17,26.72 L 8.11,26.72 L 8.11,27.74 L 8.05,27.77 L 6.30,26.88 L 6.30,25.80 L 6.27,25.77 L 4.55,24.91 Z" fill="#543f37" stroke="none" /><path d="M 9.92,24.30 L 9.92,25.38 L 11.67,26.27 L 11.74,26.27 L 11.74,25.19 L 9.99,24.30 Z" fill="#543f37" stroke="none" /><path d="M 11.74,22.97 L 11.74,24.08 L 12.56,24.49 L 12.63,24.56 L 12.63,25.64 L 14.41,26.53 L 14.41,25.42 L 12.69,24.56 L 12.63,24.49 L 12.63,23.41 Z" fill="#543f37" stroke="none" /><path d="M 0.00,22.65 L 0.00,24.81 L 1.78,25.70 L 1.78,24.62 L 0.89,24.17 L 0.89,23.09 Z" fill="#543f37" stroke="none" /><path d="M 6.30,21.38 L 6.30,22.49 L 7.16,22.90 L 7.22,22.97 L 7.22,23.98 L 7.19,24.02 L 5.41,23.13 L 5.41,24.24 L 7.16,25.13 L 7.22,25.13 L 7.22,24.08 L 7.25,24.05 L 8.05,24.46 L 8.11,24.46 L 8.11,23.38 L 7.28,22.97 L 7.22,22.90 L 7.22,21.82 L 6.36,21.38 Z" fill="#543f37" stroke="none" /><path d="M 11.74,20.77 L 11.74,21.88 L 13.55,22.78 L 13.55,21.66 L 11.80,20.77 Z" fill="#543f37" stroke="none" /><path d="M 2.67,20.68 L 2.67,21.76 L 4.42,22.65 L 4.49,22.65 L 4.49,21.57 L 2.74,20.68 Z" fill="#543f37" stroke="none" /><path d="M 13.55,19.44 L 13.55,20.55 L 14.35,20.96 L 14.41,20.96 L 14.41,19.85 Z" fill="#543f37" stroke="none" /><path d="M 0.95,18.67 L 0.89,18.67 L 0.89,19.72 L 0.86,19.75 L 0.06,19.34 L 0.00,19.34 L 0.00,20.42 L 0.86,20.87 L 0.89,20.87 L 0.89,19.82 L 0.92,19.79 L 1.72,20.20 L 1.78,20.20 L 1.78,19.09 Z" fill="#543f37" stroke="none" /><path d="M 7.22,18.51 L 7.22,19.63 L 8.11,20.07 L 8.11,21.15 L 9.03,21.63 L 9.03,22.74 L 10.85,23.63 L 10.85,22.52 L 9.03,21.60 L 9.03,20.58 L 9.07,20.55 L 9.92,20.96 L 9.92,19.91 L 9.96,19.88 L 10.78,20.29 L 10.85,20.29 L 10.85,19.18 L 9.07,18.29 L 9.03,18.29 L 9.03,19.34 L 9.00,19.37 L 7.28,18.51 Z" fill="#543f37" stroke="none" /><path d="M 3.59,17.81 L 3.59,18.89 L 5.34,19.79 L 5.41,19.79 L 5.41,18.70 L 3.66,17.81 Z" fill="#543f37" stroke="none" /><path d="M 13.55,17.24 L 13.55,18.35 L 14.41,18.77 L 14.41,17.65 L 13.61,17.24 Z" fill="#543f37" stroke="none" /><path d="M 9.92,15.43 L 9.92,16.54 L 10.78,16.95 L 10.85,17.02 L 10.85,18.10 L 12.56,18.96 L 12.63,18.96 L 12.63,17.88 L 10.91,17.02 L 10.85,16.95 L 10.85,15.87 L 9.99,15.43 Z" fill="#543f37" stroke="none" /><path d="M 0.89,15.33 L 0.89,16.45 L 1.78,16.89 L 1.78,15.78 Z" fill="#543f37" stroke="none" /><path d="M 3.59,14.47 L 3.59,15.59 L 4.49,16.03 L 4.49,17.15 L 6.27,18.04 L 6.30,18.04 L 6.30,16.99 L 6.33,16.95 L 7.16,17.37 L 7.22,17.37 L 7.22,16.32 L 7.25,16.29 L 9.03,17.18 L 9.03,14.95 L 8.14,14.50 L 8.11,14.50 L 8.11,15.55 L 8.05,15.59 L 7.22,15.17 L 7.22,16.22 L 7.19,16.25 L 6.30,15.81 L 6.30,16.86 L 6.23,16.89 L 4.52,16.03 L 4.49,16.00 L 4.49,14.89 L 3.66,14.47 Z" fill="#543f37" stroke="none" /><path d="M 13.55,13.96 L 13.55,15.01 L 14.35,15.43 L 14.41,15.43 L 14.41,14.38 L 13.61,13.96 Z" fill="#543f37" stroke="none" /><path d="M 0.00,12.66 L 0.00,13.77 L 0.89,14.22 L 0.89,13.11 Z" fill="#543f37" stroke="none" /><path d="M 10.85,12.60 L 10.85,13.68 L 11.67,14.09 L 11.74,14.09 L 11.74,13.04 Z" fill="#543f37" stroke="none" /><path d="M 1.78,12.47 L 1.78,13.55 L 2.67,14.00 L 2.67,12.88 L 1.84,12.47 Z" fill="#543f37" stroke="none" /><path d="M 3.59,12.25 L 3.59,13.36 L 4.49,13.81 L 4.49,12.69 Z" fill="#543f37" stroke="none" /><path d="M 9.03,11.71 L 9.03,12.76 L 9.92,13.20 L 9.92,12.12 L 9.10,11.71 Z" fill="#543f37" stroke="none" /><path d="M 0.00,10.47 L 0.00,11.58 L 0.83,11.99 L 0.89,11.99 L 0.89,10.88 L 0.06,10.47 Z" fill="#543f37" stroke="none" /><path d="M 1.78,10.24 L 1.78,11.36 L 2.61,11.77 L 2.67,11.77 L 2.67,10.66 L 1.84,10.24 Z" fill="#543f37" stroke="none" /><path d="M 3.59,8.97 L 3.59,10.05 L 4.49,10.50 L 4.49,11.58 L 4.52,11.61 L 5.34,12.02 L 5.41,12.02 L 5.41,11.01 L 5.47,10.97 L 6.23,11.36 L 6.30,11.42 L 6.30,12.50 L 8.11,13.39 L 8.11,12.28 L 6.36,11.42 L 6.30,11.36 L 6.30,10.31 Z" fill="#543f37" stroke="none" /><path d="M 0.00,7.19 L 0.00,8.24 L 0.89,8.68 L 0.89,7.60 L 0.06,7.19 Z" fill="#543f37" stroke="none" /><path d="M 12.63,30.06 L 12.63,31.14 L 14.35,32.00 L 14.41,32.00 L 14.41,30.95 Z" fill="#5e4e41" stroke="none" /><path d="M 7.22,24.05 L 7.22,25.10 L 7.19,25.13 L 6.30,24.68 L 6.30,25.80 L 7.22,26.27 L 7.22,27.36 L 8.11,27.80 L 8.11,26.69 L 7.22,26.24 L 7.22,25.19 L 7.25,25.16 L 8.05,25.57 L 8.11,25.57 L 8.11,24.46 L 7.28,24.05 Z" fill="#5e4e41" stroke="none" /><path d="M 9.03,22.74 L 9.03,23.86 L 9.86,24.27 L 9.92,24.27 L 9.92,23.16 L 9.10,22.74 Z" fill="#5e4e41" stroke="none" /><path d="M 10.85,22.52 L 10.85,23.63 L 11.67,24.05 L 11.74,24.11 L 11.74,26.24 L 11.71,26.27 L 9.07,24.94 L 9.03,24.94 L 9.03,26.05 L 10.82,26.94 L 10.85,26.97 L 10.85,28.09 L 12.56,28.95 L 12.63,28.95 L 12.63,27.83 L 11.74,27.39 L 11.74,26.34 L 11.77,26.31 L 13.49,27.17 L 13.55,27.23 L 13.55,28.31 L 14.35,28.72 L 14.41,28.72 L 14.41,27.61 L 13.61,27.23 L 13.55,27.17 L 13.55,26.08 L 12.69,25.67 L 12.63,25.61 L 12.63,24.52 L 11.80,24.11 L 11.74,24.05 L 11.74,22.97 Z" fill="#5e4e41" stroke="none" /><path d="M 12.63,22.33 L 12.63,23.41 L 13.49,23.86 L 13.55,23.86 L 13.55,22.78 L 12.69,22.33 Z" fill="#5e4e41" stroke="none" /><path d="M 3.59,22.23 L 3.59,23.35 L 5.41,24.24 L 5.41,23.13 L 3.66,22.23 Z" fill="#5e4e41" stroke="none" /><path d="M 5.41,20.93 L 5.41,22.04 L 6.23,22.46 L 6.30,22.46 L 6.30,21.34 L 5.47,20.93 Z" fill="#5e4e41" stroke="none" /><path d="M 9.03,20.52 L 9.03,21.63 L 9.86,22.04 L 9.92,22.04 L 9.92,20.96 Z" fill="#5e4e41" stroke="none" /><path d="M 0.89,19.79 L 0.89,21.98 L 1.72,22.39 L 1.78,22.46 L 1.78,23.54 L 2.61,23.95 L 2.67,24.02 L 2.67,25.03 L 2.64,25.07 L 1.84,24.65 L 1.78,24.65 L 1.78,25.70 L 2.67,26.15 L 2.67,25.13 L 2.70,25.10 L 3.53,25.51 L 3.59,25.57 L 3.59,26.62 L 4.42,27.04 L 4.49,27.04 L 4.49,24.87 L 2.74,24.02 L 2.67,23.95 L 2.67,22.87 L 1.84,22.46 L 1.78,22.39 L 1.78,21.38 L 1.81,21.34 L 2.67,21.76 L 2.67,20.64 L 0.95,19.79 Z" fill="#5e4e41" stroke="none" /><path d="M 3.59,18.89 L 3.59,21.12 L 4.49,21.57 L 4.49,19.34 Z" fill="#5e4e41" stroke="none" /><path d="M 0.92,16.45 L 0.89,16.45 L 0.89,17.50 L 0.86,17.53 L 0.06,17.11 L 0.00,17.11 L 0.00,18.23 L 0.83,18.64 L 0.89,18.64 L 0.89,17.59 L 0.92,17.56 L 1.72,17.97 L 1.78,17.97 L 1.78,16.89 Z" fill="#5e4e41" stroke="none" /><path d="M 2.67,16.22 L 2.67,17.34 L 2.70,17.37 L 5.34,18.67 L 5.41,18.74 L 5.41,19.82 L 8.11,21.15 L 8.11,20.04 L 7.22,19.59 L 7.22,18.54 L 7.25,18.51 L 8.05,18.93 L 8.11,18.93 L 8.11,17.88 L 8.14,17.84 L 9.03,18.29 L 9.03,17.18 L 9.00,17.15 L 7.28,16.29 L 7.22,16.29 L 7.22,17.34 L 7.19,17.37 L 6.30,16.92 L 6.30,19.09 L 6.23,19.12 L 5.47,18.74 L 5.41,18.67 L 5.41,17.59 L 5.38,17.56 Z" fill="#5e4e41" stroke="none" /><path d="M 0.92,13.11 L 0.89,13.11 L 0.89,14.16 L 0.86,14.19 L 0.00,13.77 L 0.00,14.89 L 0.86,15.33 L 0.89,15.33 L 0.89,14.28 L 0.92,14.25 L 1.78,14.66 L 1.78,13.55 Z" fill="#5e4e41" stroke="none" /><path d="M 11.74,13.04 L 11.74,14.12 L 12.63,14.57 L 12.63,15.59 L 12.56,15.62 L 10.85,14.76 L 10.85,16.99 L 12.56,17.84 L 12.63,17.91 L 12.63,18.93 L 12.60,18.96 L 11.80,18.54 L 11.74,18.54 L 11.74,19.59 L 11.71,19.63 L 10.85,19.18 L 10.85,18.07 L 9.96,17.62 L 9.92,17.62 L 9.92,18.74 L 10.85,19.21 L 10.85,20.33 L 13.55,21.66 L 13.55,20.55 L 12.63,20.07 L 12.63,19.02 L 12.66,18.99 L 14.35,19.85 L 14.41,19.85 L 14.41,18.77 L 13.55,18.32 L 13.55,17.21 L 12.69,16.80 L 12.63,16.73 L 12.63,15.71 L 12.66,15.68 L 13.49,16.10 L 13.55,16.10 L 13.55,13.93 Z" fill="#5e4e41" stroke="none" /><path d="M 9.92,12.15 L 9.92,13.20 L 10.78,13.65 L 10.85,13.65 L 10.85,12.60 L 9.99,12.15 Z" fill="#5e4e41" stroke="none" /><path d="M 2.67,8.52 L 2.67,9.57 L 3.59,10.05 L 3.59,11.07 L 3.53,11.10 L 2.74,10.69 L 2.67,10.69 L 2.67,11.74 L 2.64,11.77 L 0.95,10.91 L 0.89,10.91 L 0.89,12.02 L 2.67,12.91 L 2.67,15.11 L 3.53,15.55 L 3.59,15.55 L 3.59,14.50 L 3.63,14.47 L 4.42,14.89 L 4.49,14.89 L 4.49,13.87 L 4.55,13.84 L 8.11,15.62 L 8.11,14.50 L 7.28,14.09 L 7.22,14.03 L 7.22,12.95 L 6.30,12.47 L 6.30,11.39 L 6.27,11.36 L 5.41,10.94 L 5.41,13.11 L 5.38,13.14 L 4.49,12.69 L 4.49,13.74 L 4.45,13.77 L 2.67,12.88 L 2.67,11.83 L 2.70,11.80 L 3.59,12.25 L 3.59,11.20 L 3.63,11.17 L 4.49,11.58 L 4.49,10.47 L 3.59,10.02 L 3.59,8.97 L 2.74,8.52 Z" fill="#5e4e41" stroke="none" /><path d="M 0.00,8.24 L 0.00,9.35 L 0.83,9.77 L 0.89,9.77 L 0.89,8.68 Z" fill="#5e4e41" stroke="none" /><path d="M 21.57,10.75 L 20.80,10.37 L 20.68,10.37 L 18.96,11.23 L 18.96,11.29 L 19.72,11.67 L 19.85,11.67 L 21.57,10.82 Z" fill="#624946" stroke="none" /><path d="M 15.33,10.34 L 15.33,10.37 L 16.16,10.78 L 16.13,10.85 L 15.33,11.23 L 15.33,11.26 L 17.08,12.15 L 17.18,12.15 L 18.89,11.29 L 18.89,11.23 L 18.07,10.82 L 17.97,10.82 L 17.18,11.23 L 17.08,11.23 L 16.32,10.85 L 16.29,10.82 L 16.32,10.75 L 17.11,10.37 L 17.11,10.34 L 16.22,9.89 Z" fill="#624946" stroke="none" /><path d="M 5.41,9.86 L 5.41,9.89 L 8.08,11.23 L 8.17,11.23 L 8.97,10.82 L 8.97,10.78 L 7.28,9.96 L 7.22,9.89 L 8.05,9.48 L 8.05,9.42 L 7.22,9.00 L 7.13,9.00 Z" fill="#624946" stroke="none" /><path d="M 18.96,7.60 L 18.96,7.67 L 19.79,8.08 L 19.88,8.08 L 20.71,7.67 L 20.71,7.60 L 19.88,7.19 L 19.79,7.19 Z" fill="#624946" stroke="none" /><path d="M 27.01,6.27 L 26.18,5.85 L 26.08,5.85 L 24.37,6.71 L 24.37,6.74 L 25.29,7.19 L 27.01,6.33 Z" fill="#624946" stroke="none" /><path d="M 15.30,5.82 L 14.44,5.38 L 14.38,5.38 L 12.63,6.27 L 12.56,6.27 L 11.67,5.82 L 9.89,6.71 L 9.89,6.74 L 10.75,7.19 L 10.82,7.19 L 11.67,6.74 L 12.56,7.19 L 12.63,7.19 L 15.30,5.85 Z" fill="#624946" stroke="none" /><path d="M 9.86,4.90 L 9.03,4.49 L 8.91,4.49 L 6.30,5.79 L 6.30,5.85 L 7.13,6.27 L 7.22,6.27 L 9.83,4.96 Z" fill="#624946" stroke="none" /><path d="M 20.77,4.01 L 20.77,4.04 L 21.60,4.45 L 21.73,4.45 L 22.49,4.07 L 22.49,4.01 L 21.66,3.59 L 21.57,3.59 Z" fill="#624946" stroke="none" /><path d="M 17.08,1.30 L 16.16,0.86 L 14.44,1.72 L 14.44,1.78 L 15.27,2.19 L 15.36,2.19 L 17.08,1.34 Z" fill="#624946" stroke="none" /><path d="M 11.74,26.31 L 11.74,27.42 L 13.55,28.31 L 13.55,27.20 L 11.80,26.31 Z" fill="#675a48" stroke="none" /><path d="M 4.49,25.99 L 4.49,27.07 L 6.30,27.96 L 6.30,26.88 Z" fill="#675a48" stroke="none" /><path d="M 2.67,25.10 L 2.67,26.15 L 3.53,26.59 L 3.59,26.59 L 3.59,25.54 L 2.74,25.10 Z" fill="#675a48" stroke="none" /><path d="M 9.92,23.19 L 9.92,24.30 L 11.74,25.19 L 11.74,24.08 L 9.99,23.19 Z" fill="#675a48" stroke="none" /><path d="M 1.78,21.31 L 1.78,22.43 L 2.61,22.84 L 2.67,22.90 L 2.67,23.98 L 2.70,24.02 L 6.30,25.80 L 6.30,24.68 L 6.27,24.65 L 3.63,23.35 L 3.59,23.32 L 3.59,22.20 Z" fill="#675a48" stroke="none" /><path d="M 4.49,20.45 L 4.49,21.57 L 5.34,22.01 L 5.41,22.01 L 5.41,20.90 Z" fill="#675a48" stroke="none" /><path d="M 0.00,20.42 L 0.00,21.53 L 0.89,21.98 L 0.89,20.87 Z" fill="#675a48" stroke="none" /><path d="M 9.92,19.85 L 9.92,22.08 L 12.63,23.41 L 12.63,22.30 L 11.74,21.85 L 11.74,20.74 Z" fill="#675a48" stroke="none" /><path d="M 12.63,18.99 L 12.63,20.10 L 13.55,20.55 L 13.55,19.44 L 12.69,18.99 Z" fill="#675a48" stroke="none" /><path d="M 10.85,18.10 L 10.85,19.21 L 11.67,19.63 L 11.74,19.63 L 11.74,18.51 L 10.91,18.10 Z" fill="#675a48" stroke="none" /><path d="M 13.55,15.01 L 13.55,16.13 L 14.41,16.54 L 14.41,15.43 Z" fill="#675a48" stroke="none" /><path d="M 1.78,13.55 L 1.78,14.60 L 1.75,14.63 L 0.89,14.22 L 0.89,15.33 L 1.72,15.75 L 1.78,15.81 L 1.78,17.94 L 1.75,17.97 L 0.95,17.56 L 0.89,17.56 L 0.89,18.67 L 1.78,19.12 L 1.78,20.23 L 3.59,21.12 L 3.59,17.78 L 2.74,17.37 L 2.67,17.30 L 2.67,14.00 Z" fill="#675a48" stroke="none" /><path d="M 0.89,7.63 L 0.89,9.80 L 3.53,11.10 L 3.59,11.17 L 3.59,12.18 L 3.56,12.21 L 2.74,11.80 L 2.67,11.80 L 2.67,12.91 L 3.59,13.36 L 3.59,12.31 L 3.66,12.28 L 5.34,13.14 L 5.41,13.14 L 5.41,12.02 L 3.66,11.17 L 3.59,11.10 L 3.59,10.02 L 2.74,9.61 L 2.67,9.54 L 2.67,8.49 L 0.95,7.63 Z" fill="#675a48" stroke="none" /><path d="M 17.11,12.15 L 16.25,11.71 L 16.19,11.71 L 14.44,12.60 L 14.38,12.60 L 13.49,12.15 L 11.77,13.01 L 11.77,13.07 L 12.60,13.49 L 12.69,13.49 L 14.38,12.63 L 14.44,12.63 L 15.33,13.07 L 17.11,12.18 Z" fill="#72534f" stroke="none" /><path d="M 8.14,11.23 L 8.14,11.26 L 8.97,11.67 L 9.10,11.67 L 9.86,11.29 L 9.86,11.23 L 9.03,10.82 L 8.94,10.82 Z" fill="#72534f" stroke="none" /><path d="M 22.49,10.31 L 21.63,9.89 L 20.74,10.34 L 20.74,10.37 L 21.57,10.78 L 21.63,10.78 L 22.46,10.37 Z" fill="#72534f" stroke="none" /><path d="M 19.82,9.89 L 18.96,9.45 L 18.89,9.45 L 16.22,10.78 L 16.22,10.82 L 17.11,11.26 L 18.00,10.82 L 18.89,11.26 L 18.96,11.26 L 19.82,10.82 L 19.82,10.78 L 18.99,10.37 L 19.02,10.31 L 19.82,9.92 Z" fill="#72534f" stroke="none" /><path d="M 3.63,8.94 L 3.63,9.00 L 4.45,9.42 L 4.55,9.42 L 5.34,9.00 L 5.34,8.97 L 4.52,8.56 L 4.39,8.56 Z" fill="#72534f" stroke="none" /><path d="M 14.35,8.11 L 13.52,8.52 L 13.52,8.56 L 14.38,9.00 L 13.55,9.42 L 13.55,9.48 L 14.38,9.89 L 13.55,10.31 L 13.52,10.37 L 14.35,10.78 L 14.47,10.78 L 16.19,9.92 L 16.19,9.89 L 14.47,9.03 L 14.44,9.00 L 14.47,8.97 L 15.27,8.59 L 15.30,8.52 L 14.47,8.11 Z" fill="#72534f" stroke="none" /><path d="M 10.82,7.16 L 10.82,7.22 L 11.64,7.63 L 11.74,7.63 L 12.56,7.22 L 12.56,7.16 L 11.74,6.74 L 11.64,6.74 Z" fill="#72534f" stroke="none" /><path d="M 15.33,6.71 L 15.36,6.78 L 16.19,7.19 L 16.25,7.19 L 17.11,6.74 L 17.11,6.71 L 16.29,6.30 L 16.16,6.30 Z" fill="#72534f" stroke="none" /><path d="M 20.74,5.82 L 19.88,5.38 L 19.82,5.38 L 18.04,6.27 L 18.04,6.30 L 18.83,6.68 L 18.89,6.74 L 17.15,7.63 L 17.15,7.67 L 17.97,8.08 L 17.91,8.14 L 17.11,8.52 L 17.11,8.56 L 18.04,9.00 L 19.82,8.11 L 19.79,8.05 L 18.96,7.63 L 19.79,7.22 L 19.82,7.16 L 18.99,6.74 L 19.05,6.68 L 20.74,5.85 Z" fill="#72534f" stroke="none" /><path d="M 8.08,5.82 L 8.08,5.85 L 8.91,6.27 L 8.87,6.33 L 8.08,6.71 L 8.08,6.74 L 8.97,7.19 L 10.78,6.30 L 10.78,6.27 L 9.00,5.38 L 8.94,5.38 Z" fill="#72534f" stroke="none" /><path d="M 25.22,5.38 L 24.30,4.93 L 22.58,5.79 L 22.58,5.85 L 23.41,6.27 L 23.51,6.27 L 25.22,5.41 Z" fill="#72534f" stroke="none" /><path d="M 14.44,5.34 L 14.44,5.41 L 15.27,5.82 L 15.36,5.82 L 16.19,5.41 L 16.19,5.34 L 15.36,4.93 L 15.27,4.93 Z" fill="#72534f" stroke="none" /><path d="M 7.16,4.45 L 6.33,4.04 L 6.27,4.04 L 2.70,5.82 L 2.74,5.88 L 3.50,6.27 L 3.44,6.33 L 0.92,7.57 L 0.89,7.63 L 1.72,8.05 L 1.84,8.05 L 4.45,6.74 L 4.45,6.71 L 3.66,6.33 L 3.59,6.27 L 5.34,5.38 L 6.23,5.82 L 5.41,6.23 L 5.38,6.30 L 6.20,6.71 L 6.33,6.71 L 7.16,6.30 L 7.13,6.23 L 6.30,5.82 L 7.13,5.41 L 7.13,5.34 L 6.30,4.93 L 6.36,4.87 L 7.16,4.49 Z" fill="#72534f" stroke="none" /><path d="M 14.41,4.45 L 13.49,4.01 L 10.82,5.34 L 10.82,5.41 L 11.64,5.82 L 11.74,5.82 L 14.41,4.49 Z" fill="#72534f" stroke="none" /><path d="M 8.08,4.01 L 8.08,4.04 L 8.91,4.45 L 9.03,4.45 L 9.86,4.04 L 9.83,3.98 L 9.00,3.56 L 8.94,3.56 Z" fill="#72534f" stroke="none" /><path d="M 19.88,3.53 L 19.88,3.59 L 20.71,4.01 L 20.80,4.01 L 21.60,3.59 L 21.60,3.56 L 20.77,3.15 L 20.64,3.15 Z" fill="#72534f" stroke="none" /><path d="M 18.04,2.64 L 18.04,2.67 L 18.93,3.12 L 19.79,2.70 L 19.75,2.64 L 18.93,2.23 L 18.86,2.23 Z" fill="#72534f" stroke="none" /><path d="M 15.30,1.27 L 14.47,0.86 L 14.35,0.86 L 12.63,1.72 L 12.63,1.78 L 13.46,2.19 L 13.55,2.19 L 15.27,1.34 Z" fill="#72534f" stroke="none" /><path d="M 13.55,13.93 L 13.55,13.96 L 14.38,14.38 L 14.44,14.38 L 15.27,13.96 L 15.27,13.93 L 14.44,13.52 L 14.38,13.52 Z" fill="#816255" stroke="none" /><path d="M 17.97,12.56 L 17.11,12.15 L 16.22,12.60 L 16.22,12.63 L 17.05,13.04 L 17.11,13.04 L 17.94,12.63 Z" fill="#816255" stroke="none" /><path d="M 10.85,12.56 L 10.88,12.63 L 11.71,13.04 L 11.77,13.04 L 12.60,12.63 L 12.60,12.60 L 11.71,12.15 Z" fill="#816255" stroke="none" /><path d="M 18.07,11.67 L 18.07,11.74 L 18.83,12.12 L 18.96,12.12 L 19.79,11.71 L 19.79,11.67 L 18.96,11.26 L 18.89,11.26 Z" fill="#816255" stroke="none" /><path d="M 9.03,11.67 L 9.03,11.71 L 9.86,12.12 L 9.99,12.12 L 10.75,11.74 L 10.75,11.67 L 9.92,11.26 L 9.86,11.26 Z" fill="#816255" stroke="none" /><path d="M 11.71,11.26 L 12.56,11.71 L 12.63,11.71 L 14.38,10.82 L 14.44,10.82 L 15.33,11.26 L 16.22,10.82 L 16.22,10.78 L 15.33,10.34 L 14.44,10.78 L 14.38,10.78 L 13.49,10.34 L 11.71,11.23 Z" fill="#816255" stroke="none" /><path d="M 10.78,9.89 L 9.92,9.45 L 9.86,9.45 L 8.08,10.34 L 8.08,10.37 L 9.00,10.82 L 10.78,9.92 Z" fill="#816255" stroke="none" /><path d="M 25.19,8.94 L 24.43,8.56 L 24.30,8.56 L 23.51,8.97 L 23.41,8.97 L 22.62,8.56 L 22.49,8.56 L 21.66,8.97 L 21.69,9.03 L 22.49,9.42 L 22.52,9.45 L 22.49,9.48 L 21.63,9.89 L 20.77,9.45 L 20.71,9.45 L 18.93,10.34 L 18.93,10.37 L 19.85,10.82 L 21.60,9.92 L 21.69,9.92 L 22.52,10.34 L 25.19,9.00 Z" fill="#816255" stroke="none" /><path d="M 4.52,9.45 L 5.34,9.86 L 5.47,9.86 L 7.16,9.00 L 8.05,9.45 L 8.11,9.45 L 8.94,9.03 L 8.97,8.97 L 8.14,8.56 L 8.02,8.56 L 7.22,8.97 L 7.13,8.97 L 6.33,8.56 L 6.20,8.56 L 4.55,9.38 Z" fill="#816255" stroke="none" /><path d="M 20.77,7.60 L 20.77,7.67 L 21.60,8.08 L 21.69,8.08 L 22.52,7.67 L 22.52,7.60 L 21.69,7.19 L 21.60,7.19 Z" fill="#816255" stroke="none" /><path d="M 9.00,8.11 L 9.83,8.52 L 9.96,8.52 L 11.64,7.67 L 11.74,7.67 L 12.50,8.05 L 12.53,8.11 L 11.71,8.52 L 11.71,8.56 L 12.50,8.94 L 12.56,9.00 L 11.74,9.42 L 11.74,9.48 L 12.56,9.89 L 12.66,9.89 L 14.38,9.03 L 14.38,8.97 L 13.55,8.56 L 13.61,8.49 L 15.30,7.67 L 15.30,7.63 L 14.44,7.19 L 14.38,7.19 L 13.52,7.63 L 12.63,7.19 L 12.56,7.19 L 11.71,7.63 L 10.82,7.19 L 10.75,7.19 L 9.03,8.05 Z" fill="#816255" stroke="none" /><path d="M 4.42,7.60 L 3.59,7.19 L 3.50,7.19 L 1.78,8.05 L 1.78,8.08 L 2.70,8.52 L 4.42,7.67 Z" fill="#816255" stroke="none" /><path d="M 27.10,7.16 L 27.13,7.22 L 27.90,7.60 L 27.99,7.60 L 28.79,7.19 L 28.79,7.16 L 27.96,6.74 Z" fill="#816255" stroke="none" /><path d="M 23.48,7.16 L 23.51,7.22 L 24.33,7.63 L 24.40,7.63 L 25.26,7.19 L 25.26,7.16 L 24.43,6.74 L 24.30,6.74 Z" fill="#816255" stroke="none" /><path d="M 8.97,7.16 L 8.14,6.74 L 8.02,6.74 L 6.30,7.60 L 6.30,7.67 L 7.13,8.08 L 7.22,8.08 L 8.94,7.22 Z" fill="#816255" stroke="none" /><path d="M 20.74,6.71 L 19.91,6.30 L 19.79,6.30 L 18.99,6.71 L 18.89,6.71 L 18.10,6.30 L 17.97,6.30 L 16.25,7.16 L 16.25,7.22 L 17.08,7.63 L 17.02,7.70 L 16.22,8.08 L 16.22,8.11 L 17.02,8.49 L 17.05,8.56 L 15.33,9.42 L 15.33,9.48 L 17.05,10.34 L 17.18,10.34 L 18.00,9.92 L 17.97,9.86 L 17.15,9.45 L 18.00,9.00 L 18.00,8.97 L 17.18,8.56 L 17.21,8.49 L 18.00,8.11 L 17.97,8.05 L 17.24,7.70 L 17.18,7.63 L 18.93,6.74 L 19.85,7.19 L 20.74,6.74 Z" fill="#816255" stroke="none" /><path d="M 21.66,6.27 L 21.66,6.30 L 22.49,6.71 L 22.62,6.71 L 23.44,6.30 L 23.41,6.23 L 22.58,5.82 L 22.52,5.82 Z" fill="#816255" stroke="none" /><path d="M 24.40,5.79 L 24.40,5.85 L 25.22,6.27 L 25.32,6.27 L 26.12,5.85 L 26.12,5.82 L 25.29,5.41 L 25.16,5.41 Z" fill="#816255" stroke="none" /><path d="M 6.23,5.79 L 5.41,5.38 L 5.31,5.38 L 3.56,6.27 L 2.74,5.85 L 2.64,5.85 L 1.81,6.27 L 1.81,6.33 L 2.58,6.71 L 2.70,6.71 L 3.50,6.30 L 3.59,6.30 L 4.39,6.71 L 4.52,6.71 L 6.23,5.85 Z" fill="#816255" stroke="none" /><path d="M 18.00,5.34 L 17.18,4.93 L 17.08,4.93 L 15.36,5.79 L 15.33,5.85 L 16.16,6.27 L 16.29,6.27 L 18.00,5.41 Z" fill="#816255" stroke="none" /><path d="M 22.58,4.90 L 22.62,4.96 L 23.44,5.38 L 24.30,4.96 L 24.27,4.90 L 23.44,4.49 Z" fill="#816255" stroke="none" /><path d="M 19.85,4.45 L 19.85,4.49 L 20.74,4.93 L 21.66,4.49 L 21.66,4.45 L 20.77,4.01 Z" fill="#816255" stroke="none" /><path d="M 9.89,4.90 L 9.92,4.96 L 10.75,5.38 L 9.92,5.79 L 9.89,5.85 L 10.72,6.27 L 10.85,6.27 L 11.64,5.85 L 11.74,5.85 L 12.53,6.27 L 12.66,6.27 L 13.49,5.85 L 13.46,5.79 L 12.63,5.38 L 12.56,5.38 L 11.71,5.82 L 10.82,5.38 L 12.60,4.49 L 12.60,4.45 L 11.71,4.01 Z" fill="#816255" stroke="none" /><path d="M 8.94,3.53 L 8.17,3.15 L 8.05,3.15 L 6.33,4.01 L 6.33,4.07 L 7.06,4.42 L 7.09,4.49 L 6.27,4.90 L 6.27,4.93 L 7.13,5.38 L 7.19,5.38 L 8.02,4.96 L 8.05,4.90 L 7.25,4.52 L 7.22,4.45 L 8.94,3.59 Z" fill="#816255" stroke="none" /><path d="M 16.19,3.53 L 15.36,3.12 L 15.27,3.12 L 13.55,3.98 L 13.52,4.04 L 14.35,4.45 L 14.47,4.45 L 16.19,3.59 Z" fill="#816255" stroke="none" /><path d="M 11.67,3.09 L 10.85,2.67 L 10.72,2.67 L 9.00,3.53 L 9.00,3.59 L 9.83,4.01 L 9.92,4.01 L 11.64,3.15 Z" fill="#816255" stroke="none" /><path d="M 17.94,1.78 L 17.18,2.16 L 17.15,2.23 L 17.94,2.61 L 17.97,2.67 L 17.15,3.09 L 17.15,3.12 L 18.00,3.56 L 18.07,3.56 L 18.89,3.15 L 18.93,3.09 L 18.10,2.67 L 18.13,2.61 L 18.86,2.26 L 18.86,2.19 L 18.04,1.78 Z" fill="#816255" stroke="none" /><path d="M 12.66,0.86 L 12.66,0.89 L 13.49,1.30 L 14.38,0.86 L 14.44,0.86 L 15.30,1.30 L 16.16,0.89 L 16.13,0.83 L 14.47,0.00 L 14.35,0.00 Z" fill="#816255" stroke="none" /><path d="M 17.15,12.18 L 18.00,12.60 L 18.89,12.15 L 18.89,12.12 L 18.07,11.71 L 18.00,11.71 L 17.18,12.12 Z" fill="#907864" stroke="none" /><path d="M 9.00,10.78 L 9.03,10.85 L 9.86,11.26 L 9.92,11.26 L 10.78,10.82 L 11.58,11.20 L 11.64,11.26 L 11.61,11.29 L 9.92,12.12 L 9.92,12.15 L 10.82,12.60 L 11.64,12.18 L 11.74,12.18 L 12.53,12.60 L 12.66,12.60 L 13.46,12.18 L 13.55,12.18 L 14.31,12.56 L 14.35,12.60 L 14.31,12.66 L 13.52,13.04 L 13.52,13.07 L 15.20,13.93 L 15.33,13.93 L 17.05,13.07 L 17.05,13.01 L 16.29,12.63 L 16.16,12.63 L 15.36,13.04 L 15.27,13.04 L 14.50,12.66 L 14.47,12.63 L 14.50,12.56 L 16.19,11.74 L 16.19,11.67 L 14.47,10.82 L 14.35,10.82 L 12.60,11.71 L 11.74,11.26 L 11.80,11.20 L 12.60,10.82 L 12.60,10.78 L 11.80,10.40 L 11.77,10.37 L 11.80,10.31 L 12.56,9.92 L 12.66,9.92 L 13.46,10.34 L 13.55,10.34 L 14.38,9.92 L 14.38,9.86 L 13.55,9.45 L 13.49,9.45 L 12.63,9.89 L 11.74,9.45 L 11.67,9.45 Z" fill="#907864" stroke="none" /><path d="M 7.19,9.89 L 7.19,9.92 L 8.02,10.34 L 8.14,10.34 L 8.97,9.92 L 8.94,9.86 L 8.11,9.45 L 8.05,9.45 Z" fill="#907864" stroke="none" /><path d="M 10.82,8.08 L 10.82,8.11 L 11.64,8.52 L 11.77,8.52 L 12.60,8.11 L 12.60,8.08 L 11.71,7.63 Z" fill="#907864" stroke="none" /><path d="M 9.00,7.16 L 9.03,7.22 L 9.86,7.63 L 9.92,7.63 L 10.75,7.22 L 10.75,7.16 L 9.92,6.74 L 9.83,6.74 Z" fill="#907864" stroke="none" /><path d="M 26.18,6.71 L 26.18,6.74 L 27.07,7.19 L 27.93,6.78 L 27.90,6.71 L 27.07,6.30 L 27.01,6.30 Z" fill="#907864" stroke="none" /><path d="M 2.64,6.71 L 1.81,6.30 L 1.75,6.30 L 0.03,7.16 L 0.03,7.19 L 0.83,7.60 L 0.92,7.60 L 2.64,6.74 Z" fill="#907864" stroke="none" /><path d="M 17.15,9.48 L 17.97,9.89 L 18.07,9.89 L 18.93,9.45 L 19.79,9.89 L 19.88,9.89 L 20.74,9.45 L 21.60,9.89 L 21.69,9.89 L 22.52,9.48 L 22.52,9.42 L 20.80,8.56 L 20.83,8.49 L 21.63,8.11 L 21.63,8.08 L 20.77,7.63 L 22.52,6.74 L 22.58,6.74 L 23.35,7.13 L 23.41,7.19 L 22.58,7.60 L 22.58,7.67 L 23.41,8.08 L 23.35,8.14 L 22.55,8.52 L 22.55,8.56 L 23.44,9.00 L 24.33,8.56 L 24.40,8.56 L 25.19,8.97 L 25.26,8.97 L 26.08,8.56 L 26.12,8.49 L 25.26,8.08 L 24.40,8.52 L 24.33,8.52 L 23.57,8.14 L 23.51,8.08 L 24.33,7.67 L 24.33,7.60 L 23.51,7.19 L 23.57,7.13 L 25.26,6.30 L 25.22,6.23 L 24.40,5.82 L 24.33,5.82 L 22.58,6.71 L 22.52,6.71 L 20.74,5.82 L 19.85,6.27 L 19.85,6.30 L 20.68,6.71 L 20.64,6.78 L 19.85,7.16 L 19.85,7.19 L 20.71,7.63 L 17.15,9.42 Z" fill="#907864" stroke="none" /><path d="M 9.89,8.56 L 9.89,8.52 L 9.00,8.08 L 8.11,8.52 L 8.05,8.52 L 6.30,7.63 L 8.97,6.30 L 8.97,6.27 L 8.08,5.82 L 6.30,6.71 L 6.23,6.71 L 5.34,6.27 L 3.56,7.16 L 3.59,7.22 L 4.42,7.63 L 4.49,7.63 L 5.34,7.19 L 6.23,7.63 L 4.49,8.52 L 4.42,8.52 L 3.56,8.08 L 2.70,8.49 L 2.74,8.56 L 3.56,8.97 L 3.63,8.97 L 4.42,8.56 L 4.49,8.56 L 5.34,9.00 L 6.23,8.56 L 6.30,8.56 L 7.16,9.00 L 8.05,8.56 L 8.11,8.56 L 8.97,9.00 Z" fill="#907864" stroke="none" /><path d="M 19.82,5.34 L 18.99,4.93 L 18.89,4.93 L 16.25,6.27 L 16.19,6.27 L 15.30,5.82 L 12.63,7.16 L 12.63,7.22 L 13.46,7.63 L 13.55,7.63 L 14.41,7.19 L 15.24,7.60 L 15.27,7.63 L 15.20,7.70 L 14.41,8.08 L 14.41,8.11 L 15.20,8.49 L 15.27,8.56 L 14.44,8.97 L 14.44,9.03 L 15.27,9.45 L 15.33,9.45 L 17.11,8.56 L 17.11,8.52 L 16.29,8.11 L 16.32,8.05 L 17.11,7.67 L 17.11,7.63 L 15.40,6.78 L 15.36,6.74 L 15.43,6.68 L 16.19,6.30 L 16.25,6.30 L 17.15,6.74 L 19.82,5.41 Z" fill="#907864" stroke="none" /><path d="M 12.63,5.34 L 12.63,5.41 L 13.46,5.82 L 13.55,5.82 L 14.38,5.41 L 14.38,5.34 L 13.55,4.93 L 13.46,4.93 Z" fill="#907864" stroke="none" /><path d="M 22.49,4.04 L 21.66,4.45 L 21.66,4.49 L 22.46,4.87 L 22.52,4.93 L 21.69,5.34 L 21.69,5.41 L 22.52,5.82 L 22.58,5.82 L 23.44,5.38 L 23.44,5.34 L 22.62,4.93 L 22.68,4.87 L 23.41,4.52 L 23.41,4.49 L 22.55,4.04 Z" fill="#907864" stroke="none" /><path d="M 14.41,4.45 L 14.41,4.49 L 16.19,5.38 L 16.25,5.38 L 17.11,4.93 L 17.11,4.90 L 15.33,4.01 Z" fill="#907864" stroke="none" /><path d="M 7.16,4.45 L 7.16,4.49 L 8.05,4.93 L 8.94,4.49 L 9.00,4.49 L 9.77,4.87 L 9.83,4.93 L 9.80,4.96 L 9.00,5.34 L 9.00,5.41 L 9.83,5.82 L 9.92,5.82 L 10.75,5.41 L 10.75,5.34 L 9.92,4.93 L 9.99,4.87 L 10.78,4.49 L 10.78,4.45 L 9.89,4.01 L 9.00,4.45 L 8.94,4.45 L 8.08,4.01 Z" fill="#907864" stroke="none" /><path d="M 14.38,3.53 L 13.55,3.12 L 13.46,3.12 L 11.74,3.98 L 11.71,4.04 L 12.53,4.45 L 12.66,4.45 L 14.38,3.59 Z" fill="#907864" stroke="none" /><path d="M 19.79,2.67 L 18.96,3.09 L 18.99,3.15 L 19.82,3.56 L 18.99,3.98 L 18.96,4.04 L 19.79,4.45 L 19.91,4.45 L 20.74,4.04 L 20.71,3.98 L 19.88,3.56 L 20.71,3.15 L 20.71,3.12 Z" fill="#907864" stroke="none" /><path d="M 9.96,2.19 L 9.96,2.26 L 11.67,3.12 L 13.46,2.23 L 13.55,2.23 L 14.35,2.64 L 14.47,2.64 L 15.27,2.23 L 15.36,2.23 L 16.13,2.61 L 16.16,2.67 L 15.33,3.09 L 15.33,3.12 L 16.19,3.56 L 16.25,3.56 L 18.04,2.67 L 18.04,2.64 L 16.25,1.75 L 16.19,1.75 L 15.33,2.19 L 14.44,1.75 L 14.38,1.75 L 13.49,2.19 L 12.63,1.75 L 13.49,1.30 L 13.49,1.27 L 12.66,0.86 L 11.74,1.30 L 11.74,1.34 L 12.56,1.75 L 11.71,2.19 L 10.88,1.78 L 10.78,1.78 Z" fill="#907864" stroke="none" /><path d="M 12.66,13.49 L 12.66,13.52 L 13.49,13.93 L 13.61,13.93 L 14.38,13.55 L 14.38,13.49 L 13.55,13.07 L 13.46,13.07 Z" fill="#9e8b70" stroke="none" /><path d="M 9.92,11.23 L 9.92,11.29 L 10.75,11.71 L 10.82,11.71 L 11.67,11.26 L 11.67,11.23 L 10.85,10.82 L 10.75,10.82 Z" fill="#9e8b70" stroke="none" /><path d="M 13.49,10.34 L 12.60,9.89 L 11.71,10.34 L 11.71,10.37 L 12.53,10.78 L 12.66,10.78 L 13.49,10.37 Z" fill="#9e8b70" stroke="none" /><path d="M 12.60,8.97 L 10.78,8.08 L 8.11,9.42 L 8.11,9.48 L 8.94,9.89 L 9.03,9.89 L 9.89,9.45 L 10.75,9.89 L 10.85,9.89 L 12.56,9.03 Z" fill="#9e8b70" stroke="none" /><path d="M 9.86,7.60 L 9.03,7.19 L 8.94,7.19 L 7.22,8.05 L 7.19,8.11 L 8.02,8.52 L 8.14,8.52 L 9.86,7.67 Z" fill="#9e8b70" stroke="none" /><path d="M 6.23,7.60 L 5.41,7.19 L 5.31,7.19 L 3.59,8.05 L 3.56,8.11 L 4.39,8.52 L 4.52,8.52 L 6.23,7.67 Z" fill="#9e8b70" stroke="none" /><path d="M 20.74,8.56 L 21.66,9.00 L 23.41,8.11 L 23.51,8.11 L 24.30,8.52 L 24.43,8.52 L 25.22,8.11 L 25.32,8.11 L 26.15,8.52 L 27.93,7.63 L 27.93,7.60 L 26.24,6.74 L 26.12,6.74 L 23.44,8.08 L 22.58,7.63 L 23.41,7.22 L 23.44,7.16 L 22.62,6.74 L 22.49,6.74 L 21.66,7.16 L 21.66,7.19 L 22.52,7.63 L 20.74,8.52 Z" fill="#9e8b70" stroke="none" /><path d="M 13.52,4.90 L 13.55,4.96 L 14.38,5.38 L 14.44,5.38 L 15.30,4.93 L 15.30,4.90 L 14.47,4.49 L 14.35,4.49 Z" fill="#9e8b70" stroke="none" /><path d="M 15.33,4.01 L 15.33,4.04 L 18.00,5.38 L 18.07,5.38 L 18.96,4.93 L 21.60,6.27 L 21.69,6.27 L 22.52,5.85 L 22.52,5.79 L 21.69,5.38 L 22.52,4.96 L 22.55,4.90 L 21.73,4.49 L 21.60,4.49 L 20.80,4.90 L 20.71,4.90 L 19.05,4.07 L 18.99,4.01 L 19.82,3.59 L 19.82,3.53 L 18.99,3.12 L 18.89,3.12 L 18.04,3.56 L 17.18,3.12 L 17.08,3.12 Z" fill="#9e8b70" stroke="none" /><path d="M 10.78,2.64 L 9.96,2.23 L 9.89,2.23 L 8.11,3.12 L 8.11,3.15 L 8.94,3.56 L 9.00,3.56 L 10.78,2.67 Z" fill="#9e8b70" stroke="none" /><path d="M 16.22,2.64 L 15.33,2.19 L 14.44,2.64 L 14.38,2.64 L 13.49,2.19 L 9.92,3.98 L 9.89,4.04 L 10.72,4.45 L 10.85,4.45 L 13.49,3.12 L 14.38,3.56 L 14.44,3.56 L 16.22,2.67 Z" fill="#9e8b70" stroke="none" /><path d="M 16.25,1.72 L 16.25,1.78 L 17.08,2.19 L 17.18,2.19 L 17.97,1.78 L 17.97,1.75 L 17.15,1.34 L 17.02,1.34 Z" fill="#9e8b70" stroke="none" /><path d="M 10.85,1.75 L 10.88,1.81 L 11.64,2.19 L 11.74,2.19 L 12.56,1.78 L 12.56,1.72 L 11.80,1.34 L 11.67,1.34 Z" fill="#9e8b70" stroke="none" /></svg>