<svg height="32" width="32" viewBox="0 0 32 32"><defs /><path d="M 28.82,8.24 L 27.93,8.68 L 27.93,24.17 L 15.27,30.50 L 15.27,31.59 L 27.90,25.29 L 27.93,25.26 L 27.93,24.21 L 28.82,23.76 Z" fill="#0b3c10" stroke="none" /><path d="M 15.27,30.54 L 15.20,30.54 L 14.41,30.95 L 14.41,32.00 L 14.47,32.00 L 15.27,31.59 Z" fill="#0a4515" stroke="none" /><path d="M 17.08,24.08 L 16.19,24.52 L 16.19,26.72 L 16.25,26.72 L 17.08,26.31 Z" fill="#0a4515" stroke="none" /><path d="M 28.82,23.76 L 28.76,23.76 L 27.93,24.17 L 27.93,25.26 L 28.82,24.81 Z" fill="#0a4515" stroke="none" /><path d="M 23.41,18.70 L 22.52,19.15 L 22.52,20.23 L 21.60,20.71 L 21.60,21.82 L 23.41,20.93 Z" fill="#0a4515" stroke="none" /><path d="M 25.22,13.36 L 24.33,13.81 L 24.33,21.53 L 24.27,21.60 L 18.00,24.72 L 17.97,24.75 L 17.97,25.83 L 18.04,25.83 L 25.22,22.23 Z" fill="#0a4515" stroke="none" /><path d="M 22.52,12.50 L 22.46,12.50 L 21.60,12.95 L 21.60,14.06 L 22.52,13.61 Z" fill="#0a4515" stroke="none" /><path d="M 27.04,10.24 L 26.97,10.24 L 26.15,10.66 L 26.15,22.84 L 26.08,22.90 L 16.19,27.83 L 16.19,28.95 L 16.25,28.95 L 27.04,23.54 Z" fill="#0a4515" stroke="none" /><path d="M 28.82,7.19 L 28.76,7.19 L 27.93,7.60 L 27.93,8.68 L 28.82,8.24 Z" fill="#0a4515" stroke="none" /><path d="M 13.58,15.01 L 13.55,15.01 L 13.55,30.47 L 13.52,30.50 L 0.95,24.21 L 0.89,24.21 L 0.89,25.26 L 0.92,25.29 L 13.52,31.59 L 13.55,31.59 L 13.55,30.57 L 13.58,30.54 L 14.41,30.95 L 14.41,15.43 Z" fill="#12611a" stroke="none" /><path d="M 17.08,28.53 L 17.02,28.53 L 16.19,28.95 L 16.19,30.06 L 17.08,29.61 Z" fill="#094e1b" stroke="none" /><path d="M 20.71,26.72 L 20.64,26.72 L 18.89,27.61 L 18.89,28.69 L 18.96,28.69 L 20.71,27.80 Z" fill="#094e1b" stroke="none" /><path d="M 17.08,26.31 L 17.02,26.31 L 16.19,26.72 L 16.19,27.83 L 16.25,27.83 L 17.08,27.42 Z" fill="#094e1b" stroke="none" /><path d="M 25.22,24.46 L 25.16,24.46 L 23.41,25.35 L 23.41,26.43 L 23.48,26.43 L 25.22,25.54 Z" fill="#094e1b" stroke="none" /><path d="M 23.41,23.13 L 19.82,24.91 L 19.79,24.94 L 19.79,26.05 L 23.38,24.27 L 23.41,24.24 Z" fill="#094e1b" stroke="none" /><path d="M 22.52,21.38 L 22.46,21.38 L 21.60,21.82 L 21.60,22.93 L 22.52,22.49 Z" fill="#094e1b" stroke="none" /><path d="M 22.52,19.15 L 21.60,19.59 L 21.60,20.71 L 22.52,20.26 Z" fill="#094e1b" stroke="none" /><path d="M 27.93,18.67 L 27.86,18.67 L 27.04,19.09 L 27.04,21.31 L 27.93,20.87 Z" fill="#094e1b" stroke="none" /><path d="M 24.33,18.26 L 24.27,18.26 L 23.41,18.70 L 23.41,19.79 L 23.48,19.79 L 24.33,19.34 Z" fill="#094e1b" stroke="none" /><path d="M 26.15,17.34 L 25.22,17.78 L 25.22,20.01 L 26.15,19.56 Z" fill="#094e1b" stroke="none" /><path d="M 27.93,14.22 L 27.04,14.66 L 27.04,16.89 L 27.93,16.45 Z" fill="#094e1b" stroke="none" /><path d="M 24.33,13.81 L 17.97,16.99 L 17.97,24.75 L 18.89,24.30 L 18.89,17.65 L 18.96,17.59 L 24.33,14.92 Z" fill="#094e1b" stroke="none" /><path d="M 21.60,12.95 L 16.19,15.65 L 16.19,24.52 L 17.08,24.08 L 17.08,16.35 L 17.15,16.29 L 21.57,14.09 L 21.60,14.06 Z" fill="#094e1b" stroke="none" /><path d="M 26.15,10.69 L 26.08,10.69 L 22.52,12.47 L 22.52,13.58 L 22.58,13.58 L 26.15,11.80 Z" fill="#094e1b" stroke="none" /><path d="M 27.93,7.63 L 27.86,7.63 L 14.41,14.38 L 14.41,30.95 L 15.27,30.54 L 15.27,15.05 L 15.33,14.98 L 27.90,8.72 L 27.93,8.68 Z" fill="#094e1b" stroke="none" /><path d="M 13.55,30.54 L 13.55,31.59 L 14.35,32.00 L 14.41,32.00 L 14.41,30.95 L 13.61,30.54 Z" fill="#117022" stroke="none" /><path d="M 0.00,23.76 L 0.00,24.81 L 0.89,25.26 L 0.89,24.17 L 0.06,23.76 Z" fill="#117022" stroke="none" /><path d="M 8.11,20.07 L 8.11,21.09 L 8.08,21.12 L 7.22,20.71 L 7.22,21.82 L 8.97,22.71 L 9.03,22.71 L 9.03,20.52 L 8.17,20.07 Z" fill="#117022" stroke="none" /><path d="M 1.78,19.12 L 1.78,21.31 L 2.67,21.76 L 2.67,19.53 L 1.84,19.12 Z" fill="#117022" stroke="none" /><path d="M 9.92,16.54 L 9.92,24.24 L 9.89,24.27 L 3.63,21.12 L 3.59,21.12 L 3.59,22.23 L 10.78,25.83 L 10.85,25.83 L 10.85,16.99 L 9.99,16.54 Z" fill="#117022" stroke="none" /><path d="M 11.74,15.20 L 11.74,27.36 L 11.71,27.39 L 1.81,22.43 L 1.78,22.43 L 1.78,23.54 L 12.56,28.95 L 12.63,28.95 L 12.63,15.65 Z" fill="#117022" stroke="none" /><path d="M 13.55,13.96 L 13.55,15.01 L 14.35,15.43 L 14.41,15.43 L 14.41,14.38 L 13.61,13.96 Z" fill="#117022" stroke="none" /><path d="M 7.22,12.95 L 7.22,14.06 L 8.11,14.50 L 8.11,13.39 Z" fill="#117022" stroke="none" /><path d="M 16.19,27.86 L 16.13,27.86 L 15.27,28.31 L 15.27,30.50 L 15.33,30.50 L 16.19,30.06 Z" fill="#095727" stroke="none" /><path d="M 18.89,27.61 L 17.08,28.50 L 17.08,29.61 L 18.89,28.72 Z" fill="#095727" stroke="none" /><path d="M 16.19,25.64 L 15.27,26.08 L 15.27,27.20 L 16.19,26.75 Z" fill="#095727" stroke="none" /><path d="M 23.41,25.35 L 20.71,26.69 L 20.71,27.80 L 23.41,26.47 Z" fill="#095727" stroke="none" /><path d="M 19.79,24.94 L 18.89,25.38 L 18.89,26.50 L 19.79,26.05 Z" fill="#095727" stroke="none" /><path d="M 26.15,23.98 L 25.22,24.43 L 25.22,25.54 L 26.15,25.10 Z" fill="#095727" stroke="none" /><path d="M 17.97,23.63 L 17.08,24.08 L 17.08,26.27 L 17.15,26.27 L 17.97,25.86 Z" fill="#095727" stroke="none" /><path d="M 26.15,21.76 L 25.22,22.20 L 25.22,23.32 L 25.29,23.32 L 26.15,22.87 Z" fill="#095727" stroke="none" /><path d="M 27.93,20.87 L 27.04,21.31 L 27.04,22.43 L 27.93,21.98 Z" fill="#095727" stroke="none" /><path d="M 24.33,19.34 L 23.41,19.79 L 23.41,20.90 L 22.52,21.34 L 22.52,22.46 L 22.58,22.46 L 24.33,21.57 Z" fill="#095727" stroke="none" /><path d="M 23.41,16.48 L 21.60,17.37 L 21.60,19.59 L 19.79,20.52 L 19.79,22.71 L 19.85,22.71 L 20.68,22.30 L 20.71,22.33 L 20.71,23.38 L 21.60,22.93 L 21.60,19.63 L 23.41,18.70 Z" fill="#095727" stroke="none" /><path d="M 27.93,16.45 L 27.04,16.89 L 27.04,19.09 L 27.10,19.09 L 27.93,18.67 Z" fill="#095727" stroke="none" /><path d="M 26.15,14.00 L 25.22,14.44 L 25.22,17.78 L 25.29,17.78 L 26.15,17.34 Z" fill="#095727" stroke="none" /><path d="M 27.93,13.11 L 27.04,13.55 L 27.04,14.66 L 27.93,14.22 Z" fill="#095727" stroke="none" /><path d="M 25.22,12.25 L 21.63,14.03 L 21.60,14.06 L 21.60,15.17 L 25.19,13.39 L 25.22,13.36 Z" fill="#095727" stroke="none" /><path d="M 26.15,9.57 L 24.33,10.47 L 24.33,11.58 L 26.15,10.69 Z" fill="#095727" stroke="none" /><path d="M 14.41,0.83 L 13.58,0.41 L 13.52,0.41 L 0.92,6.71 L 0.89,6.78 L 1.62,7.13 L 1.69,7.19 L 0.92,7.57 L 0.89,7.63 L 13.49,13.93 L 13.61,13.93 L 14.38,13.55 L 14.38,13.49 L 1.78,7.19 L 1.84,7.13 L 14.41,0.86 Z" fill="#1c9628" stroke="none" /><path d="M 9.03,27.17 L 9.03,28.28 L 10.85,29.17 L 10.85,28.06 Z" fill="#0f7e2c" stroke="none" /><path d="M 4.49,24.91 L 4.49,25.99 L 6.23,26.88 L 6.30,26.88 L 6.30,25.80 L 4.55,24.91 Z" fill="#0f7e2c" stroke="none" /><path d="M 12.63,24.52 L 12.63,26.75 L 13.55,27.20 L 13.55,24.97 Z" fill="#0f7e2c" stroke="none" /><path d="M 1.78,23.54 L 1.78,24.65 L 2.61,25.07 L 2.67,25.07 L 2.67,23.98 Z" fill="#0f7e2c" stroke="none" /><path d="M 5.41,23.13 L 5.41,24.24 L 5.44,24.27 L 9.03,26.05 L 9.03,24.94 L 9.00,24.91 Z" fill="#0f7e2c" stroke="none" /><path d="M 7.22,21.82 L 7.22,22.93 L 8.11,23.38 L 8.11,22.27 Z" fill="#0f7e2c" stroke="none" /><path d="M 10.85,21.44 L 10.85,23.63 L 11.74,24.08 L 11.74,21.85 L 10.91,21.44 Z" fill="#0f7e2c" stroke="none" /><path d="M 1.78,21.31 L 1.78,22.43 L 2.67,22.87 L 2.67,21.76 Z" fill="#0f7e2c" stroke="none" /><path d="M 9.03,20.52 L 9.03,21.63 L 9.86,22.04 L 9.92,22.04 L 9.92,20.96 Z" fill="#0f7e2c" stroke="none" /><path d="M 12.63,20.10 L 12.63,22.33 L 13.55,22.78 L 13.55,20.55 L 12.69,20.10 Z" fill="#0f7e2c" stroke="none" /><path d="M 7.22,19.63 L 7.22,20.71 L 8.11,21.15 L 8.11,20.04 L 7.28,19.63 Z" fill="#0f7e2c" stroke="none" /><path d="M 8.11,13.39 L 8.11,14.50 L 8.14,14.54 L 11.74,16.32 L 11.74,15.20 L 11.71,15.17 Z" fill="#0f7e2c" stroke="none" /><path d="M 3.59,13.36 L 3.59,21.12 L 4.49,21.57 L 4.49,14.95 L 4.52,14.92 L 9.89,17.62 L 9.92,17.62 L 9.92,16.51 Z" fill="#0f7e2c" stroke="none" /><path d="M 1.78,10.24 L 1.78,19.12 L 2.61,19.53 L 2.67,19.53 L 2.67,11.83 L 2.70,11.80 L 7.19,14.06 L 7.22,14.06 L 7.22,12.95 L 1.84,10.24 Z" fill="#0f7e2c" stroke="none" /><path d="M 0.00,7.19 L 0.00,23.76 L 0.83,24.17 L 0.89,24.17 L 0.89,8.75 L 0.92,8.72 L 13.52,15.01 L 13.55,15.01 L 13.55,13.93 L 0.06,7.19 Z" fill="#0f7e2c" stroke="none" /><path d="M 16.19,26.75 L 16.13,26.75 L 15.27,27.20 L 15.27,28.31 L 16.19,27.86 Z" fill="#1a6034" stroke="none" /><path d="M 16.19,23.41 L 15.27,23.86 L 15.27,26.08 L 15.33,26.08 L 16.19,25.64 Z" fill="#1a6034" stroke="none" /><path d="M 27.93,21.98 L 27.04,22.43 L 27.04,23.51 L 26.97,23.57 L 26.15,23.98 L 26.15,25.07 L 26.21,25.07 L 27.04,24.65 L 27.04,23.57 L 27.10,23.51 L 27.93,23.09 Z" fill="#1a6034" stroke="none" /><path d="M 17.97,20.33 L 17.91,20.33 L 17.08,20.74 L 17.08,24.08 L 17.97,23.63 Z" fill="#1a6034" stroke="none" /><path d="M 16.19,20.10 L 16.13,20.10 L 15.27,20.55 L 15.27,22.78 L 16.19,22.33 Z" fill="#1a6034" stroke="none" /><path d="M 26.15,19.56 L 26.08,19.56 L 25.22,20.01 L 25.22,22.20 L 23.41,23.13 L 23.41,24.24 L 25.22,23.35 L 25.22,22.23 L 26.15,21.76 Z" fill="#1a6034" stroke="none" /><path d="M 16.19,16.76 L 15.27,17.21 L 15.27,18.32 L 15.33,18.32 L 16.19,17.88 Z" fill="#1a6034" stroke="none" /><path d="M 17.97,15.87 L 17.08,16.32 L 17.08,17.43 L 17.97,16.99 Z" fill="#1a6034" stroke="none" /><path d="M 23.41,15.36 L 21.60,16.25 L 21.60,17.37 L 19.79,18.29 L 19.79,20.49 L 19.72,20.55 L 18.89,20.96 L 18.89,23.16 L 18.96,23.16 L 19.75,22.74 L 19.79,22.78 L 19.79,23.83 L 19.85,23.83 L 20.71,23.38 L 20.71,22.27 L 19.82,22.71 L 19.79,22.68 L 19.79,20.55 L 19.85,20.49 L 20.71,20.07 L 20.71,18.96 L 21.60,18.51 L 21.60,17.40 L 23.38,16.51 L 23.41,16.54 L 23.41,18.70 L 24.33,18.26 L 24.33,16.03 L 24.27,16.03 L 23.44,16.45 L 23.41,16.41 Z" fill="#1a6034" stroke="none" /><path d="M 21.60,14.06 L 20.71,14.50 L 20.71,15.62 L 21.60,15.17 Z" fill="#1a6034" stroke="none" /><path d="M 20.71,12.31 L 20.64,12.31 L 19.79,12.76 L 19.79,13.84 L 19.85,13.84 L 20.71,13.39 Z" fill="#1a6034" stroke="none" /><path d="M 26.15,11.80 L 26.08,11.80 L 25.22,12.25 L 25.22,14.44 L 25.29,14.44 L 26.15,14.00 Z" fill="#1a6034" stroke="none" /><path d="M 22.52,11.39 L 21.60,11.83 L 21.60,12.95 L 22.52,12.50 Z" fill="#1a6034" stroke="none" /><path d="M 27.93,8.68 L 26.15,9.57 L 26.15,10.66 L 26.21,10.66 L 27.01,10.24 L 27.04,10.27 L 27.04,12.44 L 27.10,12.44 L 27.93,12.02 Z" fill="#1a6034" stroke="none" /><path d="M 13.55,13.93 L 13.55,13.96 L 14.38,14.38 L 14.44,14.38 L 15.27,13.96 L 15.27,13.93 L 14.44,13.52 L 14.38,13.52 Z" fill="#1aac34" stroke="none" /><path d="M 18.04,9.89 L 18.04,9.92 L 18.86,10.34 L 18.99,10.34 L 19.82,9.92 L 19.79,9.86 L 18.96,9.45 L 18.89,9.45 Z" fill="#1aac34" stroke="none" /><path d="M 0.03,7.16 L 0.06,7.22 L 0.83,7.60 L 0.92,7.60 L 1.72,7.19 L 1.72,7.16 L 0.89,6.74 Z" fill="#1aac34" stroke="none" /><path d="M 13.49,6.71 L 12.66,6.30 L 12.53,6.30 L 10.82,7.16 L 10.82,7.22 L 12.53,8.08 L 12.66,8.08 L 13.49,7.67 L 13.46,7.60 L 12.63,7.19 L 13.46,6.78 Z" fill="#1aac34" stroke="none" /><path d="M 15.30,10.37 L 15.27,10.31 L 9.03,7.19 L 9.10,7.13 L 15.30,4.04 L 15.27,3.98 L 14.44,3.56 L 14.38,3.56 L 7.19,7.16 L 7.22,7.22 L 14.35,10.78 L 14.47,10.78 Z" fill="#1aac34" stroke="none" /><path d="M 15.33,3.09 L 15.36,3.15 L 17.08,4.01 L 17.18,4.01 L 18.00,3.59 L 18.00,3.53 L 16.29,2.67 L 16.16,2.67 Z" fill="#1aac34" stroke="none" /><path d="M 15.30,12.18 L 15.27,12.12 L 5.41,7.19 L 5.47,7.13 L 15.30,2.23 L 15.27,2.16 L 14.44,1.75 L 14.38,1.75 L 3.56,7.16 L 3.59,7.22 L 14.35,12.60 L 14.47,12.60 Z" fill="#1aac34" stroke="none" /><path d="M 13.58,0.38 L 13.58,0.45 L 14.35,0.83 L 14.47,0.83 L 15.24,0.45 L 15.24,0.38 L 14.47,0.00 L 14.35,0.00 Z" fill="#1aac34" stroke="none" /><path d="M 10.85,28.09 L 10.85,29.17 L 11.74,29.61 L 11.74,28.50 L 10.91,28.09 Z" fill="#0f8e3f" stroke="none" /><path d="M 12.63,26.75 L 12.63,27.86 L 13.55,28.31 L 13.55,27.20 L 12.69,26.75 Z" fill="#0f8e3f" stroke="none" /><path d="M 10.85,25.86 L 10.85,26.97 L 11.67,27.39 L 11.74,27.39 L 11.74,26.27 L 10.91,25.86 Z" fill="#0f8e3f" stroke="none" /><path d="M 6.30,25.80 L 6.30,26.91 L 8.97,28.25 L 9.03,28.25 L 9.03,27.17 L 9.00,27.13 Z" fill="#0f8e3f" stroke="none" /><path d="M 2.67,23.98 L 2.67,25.10 L 4.49,25.99 L 4.49,24.87 Z" fill="#0f8e3f" stroke="none" /><path d="M 4.49,22.68 L 4.49,23.79 L 5.41,24.24 L 5.41,23.13 L 4.55,22.68 Z" fill="#0f8e3f" stroke="none" /><path d="M 12.63,22.33 L 12.63,24.52 L 13.49,24.97 L 13.55,24.97 L 13.55,22.78 L 12.69,22.33 Z" fill="#0f8e3f" stroke="none" /><path d="M 0.89,21.98 L 0.89,24.21 L 1.72,24.62 L 1.78,24.62 L 1.78,22.43 Z" fill="#0f8e3f" stroke="none" /><path d="M 9.03,21.63 L 9.03,22.68 L 9.00,22.71 L 8.11,22.27 L 8.11,23.38 L 9.86,24.27 L 9.92,24.27 L 9.92,22.04 L 9.10,21.63 Z" fill="#0f8e3f" stroke="none" /><path d="M 0.89,19.79 L 0.89,20.87 L 1.78,21.31 L 1.78,20.20 L 0.95,19.79 Z" fill="#0f8e3f" stroke="none" /><path d="M 2.67,19.56 L 2.67,21.76 L 3.53,22.20 L 3.59,22.20 L 3.59,20.01 L 2.74,19.56 Z" fill="#0f8e3f" stroke="none" /><path d="M 12.63,18.99 L 12.63,20.10 L 13.55,20.55 L 13.55,19.44 L 12.69,18.99 Z" fill="#0f8e3f" stroke="none" /><path d="M 10.85,18.10 L 10.85,21.44 L 11.67,21.85 L 11.74,21.85 L 11.74,18.51 L 10.91,18.10 Z" fill="#0f8e3f" stroke="none" /><path d="M 7.28,17.40 L 7.22,17.40 L 7.22,19.56 L 7.19,19.59 L 5.41,18.70 L 5.41,20.93 L 6.30,21.38 L 6.30,22.49 L 7.19,22.93 L 7.22,22.93 L 7.22,19.66 L 7.25,19.63 L 9.03,20.52 L 9.03,18.29 Z" fill="#0f8e3f" stroke="none" /><path d="M 7.22,14.06 L 7.22,15.17 L 7.25,15.20 L 10.85,16.99 L 10.85,15.87 L 10.82,15.84 Z" fill="#0f8e3f" stroke="none" /><path d="M 9.92,13.20 L 9.92,14.31 L 11.74,15.20 L 11.74,14.09 Z" fill="#0f8e3f" stroke="none" /><path d="M 18.93,10.34 L 18.00,9.89 L 14.44,11.67 L 14.44,11.74 L 15.27,12.15 L 15.36,12.15 L 18.93,10.37 Z" fill="#17c343" stroke="none" /><path d="M 8.08,10.34 L 8.08,10.37 L 9.86,11.26 L 9.92,11.26 L 10.78,10.82 L 10.78,10.78 L 9.00,9.89 Z" fill="#17c343" stroke="none" /><path d="M 8.08,8.52 L 8.08,8.56 L 9.86,9.45 L 9.92,9.45 L 10.78,9.00 L 10.78,8.97 L 9.00,8.08 Z" fill="#17c343" stroke="none" /><path d="M 4.45,8.52 L 4.45,8.56 L 6.23,9.45 L 6.30,9.45 L 7.16,9.00 L 7.16,8.97 L 5.38,8.08 Z" fill="#17c343" stroke="none" /><path d="M 10.82,8.08 L 10.82,8.11 L 11.64,8.52 L 11.77,8.52 L 12.60,8.11 L 12.60,8.08 L 11.71,7.63 Z" fill="#17c343" stroke="none" /><path d="M 12.63,7.16 L 12.63,7.22 L 13.46,7.63 L 13.55,7.63 L 14.38,7.22 L 14.38,7.16 L 13.55,6.74 L 13.46,6.74 Z" fill="#17c343" stroke="none" /><path d="M 10.78,6.27 L 10.78,6.30 L 11.67,6.74 L 12.60,6.30 L 12.60,6.27 L 11.71,5.82 Z" fill="#17c343" stroke="none" /><path d="M 7.13,5.34 L 6.30,4.93 L 6.20,4.93 L 4.49,5.79 L 4.49,5.85 L 5.31,6.27 L 5.41,6.27 L 7.13,5.41 Z" fill="#17c343" stroke="none" /><path d="M 14.41,4.45 L 14.41,4.49 L 19.72,7.13 L 19.79,7.19 L 14.44,9.86 L 14.44,9.92 L 15.27,10.34 L 15.36,10.34 L 21.63,7.19 L 21.63,7.16 L 15.33,4.01 Z" fill="#17c343" stroke="none" /><path d="M 12.60,4.45 L 11.67,4.01 L 8.11,5.79 L 8.08,5.85 L 8.91,6.27 L 9.03,6.27 L 12.60,4.49 Z" fill="#17c343" stroke="none" /><path d="M 17.15,4.01 L 17.15,4.04 L 23.35,7.13 L 23.41,7.19 L 18.96,9.42 L 18.96,9.48 L 19.79,9.89 L 19.88,9.89 L 25.26,7.19 L 25.26,7.16 L 18.07,3.56 L 18.00,3.56 Z" fill="#17c343" stroke="none" /><path d="M 11.67,3.09 L 10.85,2.67 L 10.72,2.67 L 9.00,3.53 L 9.00,3.59 L 9.83,4.01 L 9.92,4.01 L 11.64,3.15 Z" fill="#17c343" stroke="none" /><path d="M 14.41,2.64 L 14.41,2.67 L 15.30,3.12 L 16.22,2.67 L 16.22,2.64 L 15.33,2.19 Z" fill="#17c343" stroke="none" /><path d="M 12.63,1.72 L 12.63,1.78 L 13.46,2.19 L 13.55,2.19 L 14.38,1.78 L 14.38,1.72 L 13.55,1.30 L 13.46,1.30 Z" fill="#17c343" stroke="none" /><path d="M 14.41,0.83 L 14.41,0.86 L 26.97,7.13 L 27.04,7.19 L 14.44,13.49 L 14.44,13.55 L 15.20,13.93 L 15.33,13.93 L 28.79,7.19 L 28.79,7.16 L 15.30,0.41 L 15.24,0.41 Z" fill="#17c343" stroke="none" /><path d="M 18.89,25.38 L 17.08,26.27 L 17.08,27.39 L 17.15,27.39 L 18.89,26.50 Z" fill="#336144" stroke="none" /><path d="M 27.93,23.09 L 27.04,23.54 L 27.04,24.62 L 27.10,24.62 L 27.93,24.21 Z" fill="#336144" stroke="none" /><path d="M 19.79,22.74 L 19.72,22.74 L 18.89,23.16 L 18.89,24.27 L 18.96,24.27 L 19.79,23.86 Z" fill="#336144" stroke="none" /><path d="M 16.19,22.33 L 16.13,22.33 L 15.27,22.78 L 15.27,23.86 L 15.33,23.86 L 16.19,23.41 Z" fill="#336144" stroke="none" /><path d="M 21.60,18.51 L 21.53,18.51 L 20.71,18.93 L 20.71,20.04 L 20.77,20.04 L 21.60,19.63 Z" fill="#336144" stroke="none" /><path d="M 16.19,17.88 L 15.27,18.32 L 15.27,20.55 L 16.19,20.10 Z" fill="#336144" stroke="none" /><path d="M 21.60,16.29 L 21.53,16.29 L 18.89,17.62 L 18.89,20.96 L 19.79,20.52 L 19.79,18.32 L 19.85,18.26 L 21.60,17.40 Z" fill="#336144" stroke="none" /><path d="M 24.33,14.92 L 24.27,14.92 L 23.41,15.36 L 23.41,16.48 L 24.33,16.03 Z" fill="#336144" stroke="none" /><path d="M 20.71,14.50 L 17.97,15.87 L 17.97,16.95 L 17.91,17.02 L 17.08,17.43 L 17.08,20.74 L 17.15,20.74 L 17.97,20.33 L 17.97,17.02 L 18.04,16.95 L 20.68,15.65 L 20.71,15.62 Z" fill="#336144" stroke="none" /><path d="M 19.79,12.76 L 15.30,14.98 L 15.27,15.01 L 15.27,17.21 L 15.33,17.21 L 16.19,16.76 L 16.19,15.68 L 16.25,15.62 L 19.79,13.87 Z" fill="#336144" stroke="none" /><path d="M 27.93,12.02 L 27.86,12.02 L 27.04,12.44 L 27.04,13.55 L 27.93,13.11 Z" fill="#336144" stroke="none" /><path d="M 21.60,11.86 L 21.53,11.86 L 20.71,12.28 L 20.71,13.39 L 21.60,12.95 Z" fill="#336144" stroke="none" /><path d="M 24.33,10.50 L 24.27,10.50 L 22.52,11.39 L 22.52,12.47 L 22.58,12.47 L 24.33,11.58 Z" fill="#336144" stroke="none" /><path d="M 12.69,27.86 L 12.63,27.86 L 12.63,28.91 L 12.60,28.95 L 11.80,28.53 L 11.74,28.53 L 11.74,29.61 L 12.60,30.06 L 12.63,30.06 L 12.63,29.01 L 12.66,28.98 L 13.55,29.42 L 13.55,28.31 Z" fill="#2a9c55" stroke="none" /><path d="M 10.88,23.63 L 10.85,23.63 L 10.85,25.80 L 10.82,25.83 L 9.03,24.94 L 9.03,26.05 L 10.78,26.94 L 10.85,26.94 L 10.85,25.89 L 10.88,25.86 L 11.67,26.27 L 11.74,26.27 L 11.74,24.08 Z" fill="#2a9c55" stroke="none" /><path d="M 0.89,20.87 L 0.89,21.98 L 1.78,22.43 L 1.78,21.31 Z" fill="#2a9c55" stroke="none" /><path d="M 0.89,17.56 L 0.89,19.79 L 1.72,20.20 L 1.78,20.20 L 1.78,17.97 L 0.95,17.56 Z" fill="#2a9c55" stroke="none" /><path d="M 7.28,16.29 L 7.22,16.29 L 7.22,17.34 L 7.19,17.37 L 5.41,16.48 L 5.41,18.64 L 5.34,18.67 L 4.55,18.26 L 4.49,18.26 L 4.49,20.45 L 5.41,20.93 L 5.41,22.04 L 6.23,22.46 L 6.30,22.46 L 6.30,21.34 L 5.41,20.90 L 5.41,18.77 L 5.47,18.74 L 6.30,19.15 L 6.30,18.10 L 6.33,18.07 L 7.16,18.48 L 7.22,18.48 L 7.22,17.43 L 7.25,17.40 L 8.97,18.26 L 9.03,18.32 L 9.03,20.52 L 9.92,20.96 L 9.92,18.74 L 9.10,18.32 L 9.03,18.26 L 9.03,17.18 L 9.00,17.15 Z" fill="#2a9c55" stroke="none" /><path d="M 2.67,16.22 L 2.67,19.56 L 3.59,20.01 L 3.59,16.67 Z" fill="#2a9c55" stroke="none" /><path d="M 10.85,15.87 L 10.85,18.10 L 11.67,18.51 L 11.74,18.51 L 11.74,16.32 Z" fill="#2a9c55" stroke="none" /><path d="M 0.89,14.22 L 0.89,16.45 L 1.78,16.89 L 1.78,14.66 Z" fill="#2a9c55" stroke="none" /><path d="M 11.74,14.12 L 11.74,15.20 L 12.56,15.62 L 12.63,15.68 L 12.63,17.88 L 13.49,18.32 L 13.55,18.32 L 13.55,15.01 L 11.80,14.12 Z" fill="#2a9c55" stroke="none" /><path d="M 6.30,13.61 L 6.30,14.73 L 7.22,15.17 L 7.22,14.06 L 6.36,13.61 Z" fill="#2a9c55" stroke="none" /><path d="M 7.22,11.86 L 7.22,12.95 L 8.11,13.39 L 8.11,12.28 L 7.28,11.86 Z" fill="#2a9c55" stroke="none" /><path d="M 2.67,11.80 L 2.67,12.91 L 3.59,13.36 L 3.59,12.25 L 2.74,11.80 Z" fill="#2a9c55" stroke="none" /><path d="M 5.41,10.94 L 5.41,12.06 L 6.23,12.47 L 6.30,12.47 L 6.30,11.39 Z" fill="#2a9c55" stroke="none" /><path d="M 0.89,10.91 L 0.89,12.02 L 1.72,12.44 L 1.78,12.44 L 1.78,11.32 L 0.95,10.91 Z" fill="#2a9c55" stroke="none" /><path d="M 18.00,11.67 L 17.18,11.26 L 17.08,11.26 L 15.36,12.12 L 15.33,12.18 L 16.16,12.60 L 16.29,12.60 L 18.00,11.74 Z" fill="#17da61" stroke="none" /><path d="M 9.92,11.23 L 9.92,11.29 L 10.75,11.71 L 10.82,11.71 L 11.67,11.26 L 11.67,11.23 L 10.85,10.82 L 10.75,10.82 Z" fill="#17da61" stroke="none" /><path d="M 18.89,9.42 L 18.07,9.00 L 17.97,9.00 L 14.41,10.78 L 14.41,10.82 L 15.33,11.26 L 18.89,9.48 Z" fill="#17da61" stroke="none" /><path d="M 9.92,9.42 L 9.92,9.48 L 12.53,10.78 L 12.66,10.78 L 13.49,10.37 L 13.46,10.31 L 10.85,9.00 L 10.75,9.00 Z" fill="#17da61" stroke="none" /><path d="M 6.30,9.42 L 6.30,9.48 L 8.02,10.34 L 8.14,10.34 L 8.97,9.92 L 8.94,9.86 L 7.22,9.00 L 7.13,9.00 Z" fill="#17da61" stroke="none" /><path d="M 3.56,8.08 L 3.56,8.11 L 4.39,8.52 L 4.52,8.52 L 5.34,8.11 L 5.31,8.05 L 4.49,7.63 L 4.42,7.63 Z" fill="#17da61" stroke="none" /><path d="M 5.38,7.16 L 5.41,7.22 L 6.23,7.63 L 6.30,7.63 L 7.16,7.19 L 7.16,7.16 L 6.33,6.74 L 6.20,6.74 Z" fill="#17da61" stroke="none" /><path d="M 11.67,7.67 L 11.64,7.60 L 10.82,7.19 L 11.64,6.78 L 11.67,6.71 L 10.85,6.30 L 10.72,6.30 L 9.00,7.16 L 9.03,7.22 L 10.75,8.08 L 10.85,8.08 Z" fill="#17da61" stroke="none" /><path d="M 3.56,6.27 L 3.56,6.30 L 4.39,6.71 L 4.52,6.71 L 5.34,6.30 L 5.31,6.23 L 4.49,5.82 L 4.42,5.82 Z" fill="#17da61" stroke="none" /><path d="M 11.71,5.82 L 11.71,5.85 L 14.38,7.19 L 12.60,8.08 L 12.60,8.11 L 14.38,9.00 L 14.44,9.00 L 16.22,8.11 L 16.22,8.08 L 14.44,7.19 L 16.22,6.30 L 16.22,6.27 L 14.44,5.38 L 14.38,5.38 L 13.52,5.82 L 12.63,5.38 L 12.56,5.38 Z" fill="#17da61" stroke="none" /><path d="M 11.71,4.01 L 11.71,4.04 L 12.53,4.45 L 12.66,4.45 L 13.49,4.04 L 13.46,3.98 L 12.63,3.56 L 12.56,3.56 Z" fill="#17da61" stroke="none" /><path d="M 9.86,4.01 L 9.00,3.56 L 8.94,3.56 L 6.27,4.90 L 6.27,4.93 L 7.13,5.38 L 7.19,5.38 L 9.86,4.04 Z" fill="#17da61" stroke="none" /><path d="M 14.44,3.53 L 14.44,3.59 L 16.16,4.45 L 16.29,4.45 L 17.11,4.04 L 17.08,3.98 L 15.36,3.12 L 15.27,3.12 Z" fill="#17da61" stroke="none" /><path d="M 16.22,2.64 L 16.22,2.67 L 17.11,3.12 L 18.04,2.67 L 18.04,2.64 L 17.15,2.19 Z" fill="#17da61" stroke="none" /><path d="M 13.49,2.19 L 12.63,1.75 L 12.56,1.75 L 10.78,2.64 L 10.78,2.67 L 11.71,3.12 L 13.49,2.23 Z" fill="#17da61" stroke="none" /><path d="M 13.52,1.27 L 13.55,1.34 L 15.27,2.19 L 15.36,2.19 L 16.19,1.78 L 16.19,1.72 L 14.47,0.86 L 14.35,0.86 Z" fill="#17da61" stroke="none" /><path d="M 12.63,28.98 L 12.63,30.06 L 13.49,30.50 L 13.55,30.50 L 13.55,29.42 L 12.69,28.98 Z" fill="#539e6f" stroke="none" /><path d="M 2.67,21.76 L 2.67,22.87 L 4.42,23.76 L 4.49,23.76 L 4.49,22.65 Z" fill="#539e6f" stroke="none" /><path d="M 4.49,20.45 L 4.49,21.57 L 5.34,22.01 L 5.41,22.01 L 5.41,20.90 Z" fill="#539e6f" stroke="none" /><path d="M 6.30,18.04 L 6.30,19.15 L 7.16,19.59 L 7.22,19.59 L 7.22,18.48 Z" fill="#539e6f" stroke="none" /><path d="M 12.63,17.88 L 12.63,18.99 L 13.55,19.44 L 13.55,18.32 Z" fill="#539e6f" stroke="none" /><path d="M 9.03,17.18 L 9.03,18.29 L 9.92,18.74 L 9.92,17.62 Z" fill="#539e6f" stroke="none" /><path d="M 0.89,16.45 L 0.89,17.56 L 1.72,17.97 L 1.78,17.97 L 1.78,16.89 Z" fill="#539e6f" stroke="none" /><path d="M 4.49,14.92 L 4.49,18.26 L 5.41,18.70 L 5.41,16.54 L 5.47,16.51 L 7.16,17.37 L 7.22,17.37 L 7.22,16.25 L 4.55,14.92 Z" fill="#539e6f" stroke="none" /><path d="M 8.11,12.31 L 8.11,13.39 L 9.86,14.28 L 9.92,14.28 L 9.92,13.20 L 8.17,12.31 Z" fill="#539e6f" stroke="none" /><path d="M 3.63,12.25 L 3.59,12.25 L 3.59,13.30 L 3.56,13.33 L 2.74,12.91 L 2.67,12.91 L 2.67,16.22 L 3.53,16.67 L 3.59,16.67 L 3.59,13.42 L 3.63,13.39 L 6.23,14.70 L 6.30,14.70 L 6.30,13.58 Z" fill="#539e6f" stroke="none" /><path d="M 0.89,12.02 L 0.89,14.22 L 1.78,14.66 L 1.78,12.44 L 0.95,12.02 Z" fill="#539e6f" stroke="none" /><path d="M 6.30,11.39 L 6.30,12.50 L 7.22,12.95 L 7.22,11.83 Z" fill="#539e6f" stroke="none" /><path d="M 0.89,8.68 L 0.89,10.91 L 1.72,11.32 L 1.78,11.32 L 1.78,10.27 L 1.81,10.24 L 5.34,12.02 L 5.41,12.02 L 5.41,10.94 L 5.38,10.91 Z" fill="#539e6f" stroke="none" /><path d="M 11.71,12.15 L 11.71,12.18 L 14.38,13.52 L 14.44,13.52 L 16.22,12.63 L 16.22,12.60 L 15.33,12.15 L 14.44,12.60 L 14.38,12.60 L 12.63,11.71 L 12.56,11.71 Z" fill="#40f082" stroke="none" /><path d="M 12.60,10.78 L 12.60,10.82 L 14.38,11.71 L 14.44,11.71 L 15.30,11.26 L 15.30,11.23 L 13.52,10.34 Z" fill="#40f082" stroke="none" /><path d="M 18.93,10.34 L 18.93,10.37 L 19.82,10.82 L 20.74,10.37 L 20.74,10.34 L 19.85,9.89 Z" fill="#40f082" stroke="none" /><path d="M 20.77,9.42 L 20.77,9.48 L 21.60,9.89 L 21.69,9.89 L 22.52,9.48 L 22.52,9.42 L 21.69,9.00 L 21.60,9.00 Z" fill="#40f082" stroke="none" /><path d="M 18.04,8.97 L 18.07,9.03 L 18.89,9.45 L 18.96,9.45 L 19.82,9.00 L 19.82,8.97 L 18.99,8.56 L 18.86,8.56 Z" fill="#40f082" stroke="none" /><path d="M 11.71,8.52 L 11.71,8.56 L 13.49,9.45 L 13.55,9.45 L 14.38,9.03 L 14.38,8.97 L 12.66,8.11 L 12.53,8.11 Z" fill="#40f082" stroke="none" /><path d="M 21.66,7.16 L 21.69,7.22 L 22.52,7.63 L 22.58,7.63 L 23.44,7.19 L 23.44,7.16 L 22.62,6.74 L 22.49,6.74 Z" fill="#40f082" stroke="none" /><path d="M 3.53,6.27 L 2.64,6.71 L 2.64,6.74 L 3.44,7.13 L 3.50,7.19 L 2.67,7.60 L 2.67,7.67 L 3.50,8.08 L 3.59,8.08 L 4.42,7.67 L 4.42,7.60 L 3.59,7.19 L 3.66,7.13 L 4.45,6.74 L 4.45,6.71 Z" fill="#40f082" stroke="none" /><path d="M 23.48,6.27 L 23.48,6.30 L 24.30,6.71 L 24.43,6.71 L 25.26,6.30 L 25.22,6.23 L 24.40,5.82 L 24.33,5.82 Z" fill="#40f082" stroke="none" /><path d="M 8.05,5.82 L 6.27,6.71 L 6.27,6.74 L 7.06,7.13 L 7.13,7.19 L 6.30,7.60 L 6.30,7.67 L 8.02,8.52 L 8.14,8.52 L 8.97,8.11 L 8.97,8.08 L 7.22,7.19 L 7.28,7.13 L 8.97,6.30 L 8.97,6.27 Z" fill="#40f082" stroke="none" /><path d="M 15.27,4.93 L 14.44,5.34 L 14.44,5.41 L 16.16,6.27 L 16.13,6.33 L 15.33,6.71 L 15.33,6.74 L 16.19,7.19 L 15.33,7.63 L 15.33,7.67 L 16.13,8.05 L 16.16,8.11 L 14.44,8.97 L 14.44,9.03 L 15.27,9.45 L 15.33,9.45 L 17.11,8.56 L 17.11,8.52 L 16.32,8.14 L 16.29,8.08 L 18.00,7.22 L 18.00,7.16 L 16.29,6.30 L 16.32,6.23 L 17.11,5.85 L 17.08,5.79 L 15.36,4.93 Z" fill="#40f082" stroke="none" /><path d="M 12.63,5.34 L 12.63,5.41 L 13.46,5.82 L 13.55,5.82 L 14.38,5.41 L 14.38,5.34 L 13.55,4.93 L 13.46,4.93 Z" fill="#40f082" stroke="none" /><path d="M 19.85,4.45 L 19.85,4.49 L 21.63,5.38 L 21.69,5.38 L 22.55,4.93 L 22.55,4.90 L 20.77,4.01 Z" fill="#40f082" stroke="none" /><path d="M 16.22,4.45 L 16.22,4.49 L 18.89,5.82 L 18.99,5.82 L 19.82,5.41 L 19.82,5.34 L 17.15,4.01 Z" fill="#40f082" stroke="none" /><path d="M 17.15,3.09 L 17.18,3.15 L 18.89,4.01 L 18.99,4.01 L 19.82,3.59 L 19.82,3.53 L 18.10,2.67 L 17.97,2.67 Z" fill="#40f082" stroke="none" /><path d="M 15.33,2.19 L 15.33,2.23 L 16.16,2.64 L 16.29,2.64 L 17.11,2.23 L 17.08,2.16 L 16.25,1.75 L 16.19,1.75 Z" fill="#40f082" stroke="none" /><path d="M 10.82,11.67 L 10.82,11.74 L 11.64,12.15 L 11.74,12.15 L 12.56,11.74 L 12.56,11.67 L 11.74,11.26 L 11.64,11.26 Z" fill="#80f3ab" stroke="none" /><path d="M 19.82,10.78 L 18.99,10.37 L 18.86,10.37 L 17.15,11.23 L 17.15,11.26 L 18.00,11.71 L 18.07,11.71 L 19.79,10.85 Z" fill="#80f3ab" stroke="none" /><path d="M 19.85,9.89 L 19.85,9.92 L 20.68,10.34 L 20.80,10.34 L 21.63,9.92 L 21.60,9.86 L 20.77,9.45 L 20.71,9.45 Z" fill="#80f3ab" stroke="none" /><path d="M 13.55,9.42 L 13.55,9.48 L 14.38,9.89 L 14.44,9.89 L 15.27,9.48 L 15.27,9.42 L 14.44,9.00 L 14.38,9.00 Z" fill="#80f3ab" stroke="none" /><path d="M 14.44,7.16 L 14.44,7.22 L 15.27,7.63 L 15.36,7.63 L 16.19,7.22 L 16.19,7.16 L 15.36,6.74 L 15.27,6.74 Z" fill="#80f3ab" stroke="none" /><path d="M 1.75,7.16 L 1.78,7.22 L 2.61,7.63 L 2.67,7.63 L 3.53,7.19 L 3.53,7.16 L 2.70,6.74 L 2.58,6.74 Z" fill="#80f3ab" stroke="none" /><path d="M 27.07,7.16 L 25.26,6.27 L 24.37,6.71 L 24.37,6.74 L 25.16,7.13 L 25.22,7.19 L 25.19,7.22 L 21.66,8.97 L 21.66,9.00 L 22.52,9.45 L 22.58,9.45 L 27.04,7.22 Z" fill="#80f3ab" stroke="none" /><path d="M 16.22,6.27 L 16.22,6.30 L 18.00,7.19 L 16.22,8.08 L 16.22,8.11 L 17.05,8.52 L 17.18,8.52 L 19.82,7.19 L 19.82,7.16 L 17.15,5.82 Z" fill="#80f3ab" stroke="none" /><path d="M 19.88,5.38 L 19.82,5.38 L 18.99,5.79 L 18.96,5.85 L 21.53,7.13 L 21.60,7.19 L 18.93,8.52 L 18.93,8.56 L 19.82,9.00 L 22.52,7.67 L 22.52,7.60 L 21.69,7.19 L 21.76,7.13 L 22.55,6.74 L 22.55,6.71 Z" fill="#80f3ab" stroke="none" /><path d="M 21.69,5.34 L 21.69,5.41 L 23.41,6.27 L 23.51,6.27 L 24.33,5.85 L 24.33,5.79 L 22.62,4.93 L 22.52,4.93 Z" fill="#80f3ab" stroke="none" /><path d="M 13.52,4.90 L 13.55,4.96 L 14.38,5.38 L 14.44,5.38 L 15.30,4.93 L 15.30,4.90 L 14.47,4.49 L 14.35,4.49 Z" fill="#80f3ab" stroke="none" /><path d="M 18.96,4.01 L 18.96,4.04 L 19.79,4.45 L 19.91,4.45 L 20.74,4.04 L 20.71,3.98 L 19.88,3.56 L 19.82,3.56 Z" fill="#80f3ab" stroke="none" /><path d="M 15.30,3.09 L 14.47,2.67 L 14.35,2.67 L 12.63,3.53 L 12.63,3.59 L 13.46,4.01 L 13.55,4.01 L 15.27,3.15 Z" fill="#80f3ab" stroke="none" /></svg>