<svg height="32" width="32" viewBox="0 0 32 32"><defs /><path d="M 18.97,28.01 L 17.98,28.50 L 17.98,29.67 L 18.05,29.67 L 18.97,29.21 Z" fill="#000000" stroke="none" /><path d="M 16.95,27.80 L 16.88,27.80 L 16.00,28.26 L 16.00,29.49 L 16.95,29.03 Z" fill="#000000" stroke="none" /><path d="M 20.98,27.02 L 20.91,27.02 L 19.96,27.51 L 19.96,28.68 L 20.03,28.68 L 20.98,28.19 Z" fill="#000000" stroke="none" /><path d="M 26.00,24.51 L 25.92,24.51 L 25.01,24.97 L 25.01,26.17 L 26.00,25.68 Z" fill="#000000" stroke="none" /><path d="M 16.95,24.09 L 16.00,24.55 L 16.00,25.78 L 16.95,25.32 Z" fill="#000000" stroke="none" /><path d="M 22.99,23.52 L 21.97,24.02 L 21.97,25.25 L 22.04,25.25 L 22.99,24.76 Z" fill="#000000" stroke="none" /><path d="M 28.01,22.25 L 27.02,22.75 L 27.02,23.98 L 28.01,23.49 Z" fill="#000000" stroke="none" /><path d="M 21.97,21.58 L 20.98,22.08 L 20.98,23.28 L 19.96,23.81 L 19.96,25.04 L 20.98,24.55 L 20.98,23.31 L 21.97,22.82 Z" fill="#000000" stroke="none" /><path d="M 30.02,20.03 L 29.95,20.03 L 29.03,20.49 L 29.03,22.96 L 29.10,22.96 L 31.01,22.00 L 31.01,20.77 L 30.94,20.77 L 30.06,21.23 L 30.02,21.19 Z" fill="#000000" stroke="none" /><path d="M 16.00,20.87 L 16.00,22.08 L 16.07,22.08 L 17.94,21.12 L 17.98,21.16 L 17.98,22.32 L 18.05,22.32 L 18.93,21.86 L 18.97,21.90 L 18.97,23.06 L 19.04,23.06 L 19.96,22.60 L 19.96,20.13 L 19.89,20.13 L 18.01,21.09 L 17.98,21.05 L 17.98,19.89 L 17.94,19.89 Z" fill="#000000" stroke="none" /><path d="M 27.02,16.60 L 26.95,16.60 L 26.00,17.09 L 26.00,19.57 L 28.01,18.58 L 28.01,17.34 L 27.94,17.34 L 27.06,17.80 L 27.02,17.77 Z" fill="#000000" stroke="none" /><path d="M 19.96,16.42 L 19.96,18.90 L 21.93,17.91 L 21.97,17.94 L 21.97,19.11 L 22.99,18.61 L 22.99,17.38 L 22.00,17.87 L 21.97,17.84 L 21.97,16.67 L 21.90,16.67 L 21.02,17.13 L 20.98,17.09 L 20.98,15.93 L 20.91,15.93 Z" fill="#000000" stroke="none" /><path d="M 31.01,15.82 L 30.02,16.32 L 30.02,17.55 L 31.01,17.06 Z" fill="#000000" stroke="none" /><path d="M 28.01,12.40 L 27.02,12.89 L 27.02,14.09 L 26.95,14.16 L 26.00,14.62 L 26.00,15.86 L 26.07,15.86 L 28.01,14.87 Z" fill="#000000" stroke="none" /><path d="M 9.01,26.00 L 9.01,27.20 L 10.03,27.69 L 10.03,26.49 Z" fill="#000001" stroke="none" /><path d="M 11.02,25.78 L 11.02,27.02 L 12.04,27.51 L 12.04,26.28 L 11.09,25.78 Z" fill="#000001" stroke="none" /><path d="M 13.03,25.54 L 13.03,28.01 L 14.98,29.00 L 15.05,29.00 L 15.05,27.76 L 14.09,27.30 L 14.02,27.23 L 14.02,26.03 Z" fill="#000001" stroke="none" /><path d="M 3.99,23.49 L 3.99,24.69 L 4.91,25.15 L 4.98,25.15 L 4.98,23.98 Z" fill="#000001" stroke="none" /><path d="M 1.98,22.50 L 1.98,23.66 L 2.97,24.16 L 2.97,22.96 L 2.05,22.50 Z" fill="#000001" stroke="none" /><path d="M 14.02,22.36 L 14.02,23.59 L 15.05,24.09 L 15.05,22.85 L 14.09,22.36 Z" fill="#000001" stroke="none" /><path d="M 6.00,22.04 L 6.00,23.28 L 6.92,23.74 L 6.99,23.74 L 6.99,22.50 L 6.08,22.04 Z" fill="#000001" stroke="none" /><path d="M 0.00,20.27 L 0.00,21.51 L 0.92,21.97 L 0.99,21.97 L 0.99,20.73 L 0.07,20.27 Z" fill="#000001" stroke="none" /><path d="M 10.03,19.11 L 10.03,21.58 L 11.97,22.57 L 12.04,22.57 L 12.04,21.33 L 11.09,20.87 L 11.02,20.80 L 11.02,19.60 Z" fill="#000001" stroke="none" /><path d="M 5.05,19.07 L 4.98,19.07 L 4.98,20.20 L 4.94,20.24 L 3.99,19.78 L 3.99,21.02 L 4.94,21.51 L 4.98,21.51 L 4.98,20.34 L 5.02,20.31 L 5.93,20.77 L 6.00,20.77 L 6.00,19.57 Z" fill="#000001" stroke="none" /><path d="M 0.00,16.57 L 0.00,17.80 L 0.92,18.26 L 0.99,18.26 L 0.99,17.06 Z" fill="#000001" stroke="none" /><path d="M 11.02,15.93 L 11.02,17.09 L 10.98,17.13 L 10.10,16.67 L 10.03,16.67 L 10.03,17.91 L 12.04,18.90 L 12.04,16.42 L 11.09,15.93 Z" fill="#000001" stroke="none" /><path d="M 0.00,12.89 L 0.00,14.09 L 1.91,15.05 L 1.98,15.12 L 1.98,16.32 L 2.90,16.78 L 2.97,16.85 L 2.97,18.05 L 3.92,18.54 L 3.99,18.54 L 3.99,16.07 L 2.05,15.12 L 1.98,15.05 L 1.98,13.85 L 0.07,12.89 Z" fill="#000001" stroke="none" /><path d="M 3.99,12.40 L 3.99,14.87 L 5.97,15.86 L 6.00,15.89 L 6.00,17.09 L 6.99,17.59 L 6.99,16.35 L 6.00,15.86 L 6.00,14.62 L 5.05,14.16 L 4.98,14.09 L 4.98,12.89 Z" fill="#000001" stroke="none" /><path d="M 16.95,25.32 L 16.88,25.32 L 16.00,25.78 L 16.00,27.02 L 16.95,26.56 Z" fill="#020104" stroke="none" /><path d="M 21.97,24.05 L 21.90,24.05 L 18.97,25.54 L 18.97,26.74 L 18.90,26.81 L 17.98,27.27 L 17.98,28.47 L 17.91,28.54 L 16.95,29.00 L 16.95,30.20 L 17.98,29.70 L 17.98,28.54 L 18.05,28.47 L 19.96,27.51 L 19.96,26.31 L 20.03,26.24 L 20.94,25.78 L 20.98,25.82 L 20.98,28.19 L 21.97,27.69 Z" fill="#020104" stroke="none" /><path d="M 25.01,23.77 L 24.94,23.77 L 22.99,24.76 L 22.99,26.00 L 25.01,25.01 Z" fill="#020104" stroke="none" /><path d="M 22.99,19.85 L 22.92,19.85 L 22.00,20.31 L 21.97,20.27 L 21.97,19.11 L 21.02,19.57 L 20.98,19.60 L 20.98,20.80 L 20.91,20.87 L 19.96,21.33 L 19.96,22.57 L 19.00,23.06 L 18.97,23.03 L 18.97,21.86 L 18.90,21.86 L 16.99,22.82 L 16.95,22.85 L 16.95,24.09 L 17.94,23.59 L 17.98,23.63 L 17.98,24.79 L 18.01,24.79 L 19.96,23.81 L 19.96,22.60 L 19.99,22.57 L 21.90,21.62 L 21.97,21.65 L 21.97,22.78 L 22.04,22.78 L 22.96,22.32 L 22.99,22.29 Z" fill="#020104" stroke="none" /><path d="M 32.00,17.80 L 31.93,17.80 L 31.01,18.26 L 31.01,21.97 L 29.07,22.96 L 29.03,22.92 L 29.03,20.52 L 28.96,20.52 L 28.04,20.98 L 28.01,20.94 L 28.01,19.78 L 27.02,20.27 L 27.02,21.47 L 26.95,21.55 L 26.00,22.00 L 26.00,23.24 L 26.07,23.24 L 27.97,22.29 L 28.01,22.32 L 28.01,23.45 L 27.94,23.52 L 26.00,24.48 L 26.00,25.68 L 32.00,22.68 Z" fill="#020104" stroke="none" /><path d="M 26.00,15.89 L 25.92,15.89 L 25.01,16.35 L 25.01,18.79 L 24.94,18.86 L 23.98,19.32 L 23.98,21.79 L 25.01,21.30 L 25.01,20.10 L 25.08,20.03 L 26.00,19.57 Z" fill="#020104" stroke="none" /><path d="M 32.00,14.09 L 30.06,15.05 L 30.02,15.08 L 30.02,16.28 L 29.95,16.35 L 29.10,16.78 L 29.03,16.74 L 29.03,15.58 L 28.01,16.07 L 28.01,17.31 L 28.08,17.31 L 29.00,16.85 L 29.03,16.88 L 29.03,18.05 L 29.99,17.59 L 30.02,17.55 L 30.02,16.35 L 30.09,16.28 L 32.00,15.33 Z" fill="#020104" stroke="none" /><path d="M 6.99,23.77 L 6.99,25.01 L 9.01,26.00 L 9.01,24.76 L 7.06,23.77 Z" fill="#040207" stroke="none" /><path d="M 10.03,24.05 L 10.03,25.29 L 11.97,26.24 L 12.04,26.31 L 12.04,27.44 L 12.01,27.48 L 10.10,26.53 L 10.03,26.53 L 10.03,27.69 L 15.93,30.66 L 16.00,30.66 L 16.00,25.78 L 15.12,25.32 L 15.05,25.32 L 15.05,28.96 L 15.01,29.00 L 13.10,28.04 L 13.03,27.97 L 13.03,25.54 L 12.11,25.08 L 12.04,25.01 L 12.04,23.81 L 12.01,23.77 L 11.09,23.31 L 11.02,23.31 L 11.02,24.48 L 10.98,24.51 L 10.10,24.05 Z" fill="#040207" stroke="none" /><path d="M 0.99,22.00 L 0.99,23.17 L 1.94,23.66 L 1.98,23.66 L 1.98,22.53 L 2.01,22.50 L 3.96,23.49 L 3.99,23.49 L 3.99,22.32 L 4.03,22.29 L 4.91,22.71 L 4.98,22.78 L 4.98,25.18 L 6.00,25.68 L 6.00,22.00 L 3.04,20.52 L 2.97,20.52 L 2.97,21.69 L 2.93,21.72 L 2.05,21.26 L 1.98,21.26 L 1.98,22.43 L 1.94,22.46 L 1.06,22.00 Z" fill="#040207" stroke="none" /><path d="M 12.04,20.13 L 12.04,21.37 L 13.03,21.86 L 13.03,23.10 L 13.95,23.56 L 14.02,23.56 L 14.02,22.39 L 14.06,22.36 L 15.93,23.31 L 16.00,23.31 L 16.00,22.08 L 14.09,21.12 L 14.02,21.12 L 14.02,22.29 L 13.99,22.32 L 13.03,21.83 L 13.03,20.59 L 12.11,20.13 Z" fill="#040207" stroke="none" /><path d="M 0.00,17.80 L 0.00,19.04 L 0.92,19.50 L 0.99,19.50 L 0.99,18.26 L 0.07,17.80 Z" fill="#040207" stroke="none" /><path d="M 9.04,17.38 L 9.01,17.38 L 9.01,19.78 L 8.97,19.81 L 8.09,19.36 L 8.02,19.36 L 8.02,21.79 L 8.97,22.29 L 9.01,22.29 L 9.01,21.12 L 9.04,21.09 L 10.03,21.58 L 10.03,17.87 Z" fill="#040207" stroke="none" /><path d="M 0.99,15.82 L 0.99,17.06 L 1.91,17.52 L 1.98,17.59 L 1.98,18.79 L 3.99,19.78 L 3.99,18.61 L 4.03,18.58 L 5.93,19.53 L 6.00,19.60 L 6.00,20.80 L 6.92,21.26 L 6.99,21.26 L 6.99,18.83 L 6.08,18.37 L 6.00,18.30 L 6.00,17.09 L 5.97,17.06 L 5.05,16.60 L 4.98,16.60 L 4.98,17.77 L 4.94,17.80 L 4.06,17.34 L 3.99,17.34 L 3.99,18.51 L 3.96,18.54 L 3.04,18.08 L 2.97,18.01 L 2.97,16.81 L 2.93,16.78 Z" fill="#040207" stroke="none" /><path d="M 16.95,29.03 L 16.88,29.03 L 16.00,29.49 L 16.00,30.66 L 16.07,30.66 L 16.95,30.20 Z" fill="#06050b" stroke="none" /><path d="M 22.99,26.00 L 21.97,26.49 L 21.97,27.69 L 22.99,27.20 Z" fill="#06050b" stroke="none" /><path d="M 20.98,25.78 L 20.91,25.78 L 19.96,26.28 L 19.96,27.48 L 19.89,27.55 L 18.97,28.01 L 18.97,29.17 L 19.04,29.17 L 19.96,28.72 L 19.96,27.55 L 20.03,27.48 L 20.98,27.02 Z" fill="#06050b" stroke="none" /><path d="M 21.97,17.91 L 21.90,17.91 L 20.03,18.86 L 19.96,18.83 L 19.96,17.66 L 18.97,18.15 L 18.97,19.36 L 18.90,19.43 L 17.98,19.89 L 17.98,21.09 L 16.95,21.62 L 16.95,22.82 L 16.88,22.89 L 16.00,23.31 L 16.00,24.55 L 16.07,24.55 L 16.92,24.12 L 16.95,24.16 L 16.95,25.29 L 17.02,25.29 L 17.98,24.79 L 17.98,23.59 L 17.91,23.59 L 16.99,24.05 L 16.95,24.02 L 16.95,22.89 L 17.02,22.82 L 17.98,22.36 L 17.98,21.12 L 18.97,20.63 L 18.97,19.43 L 19.04,19.36 L 19.89,18.93 L 19.96,18.97 L 19.96,21.33 L 20.03,21.33 L 20.94,20.87 L 20.98,20.84 L 20.98,19.64 L 21.05,19.57 L 21.97,19.11 Z" fill="#06050b" stroke="none" /><path d="M 25.01,17.59 L 23.98,18.08 L 23.98,19.32 L 22.99,19.81 L 22.99,22.25 L 22.92,22.32 L 21.02,23.28 L 20.98,23.24 L 20.98,22.08 L 19.96,22.57 L 19.96,23.77 L 19.89,23.84 L 18.97,24.30 L 18.97,25.50 L 18.90,25.57 L 17.98,26.03 L 17.98,27.27 L 18.97,26.77 L 18.97,25.57 L 19.04,25.50 L 19.96,25.04 L 19.96,23.84 L 20.03,23.77 L 20.94,23.31 L 20.98,23.35 L 20.98,24.51 L 21.05,24.51 L 22.96,23.56 L 22.99,23.59 L 22.99,24.76 L 24.97,23.77 L 25.01,23.81 L 25.01,24.97 L 23.98,25.50 L 23.98,26.67 L 24.05,26.67 L 25.01,26.17 L 25.01,25.01 L 25.04,24.97 L 27.02,23.98 L 27.02,22.75 L 26.03,23.24 L 26.00,23.21 L 26.00,22.04 L 27.02,21.51 L 27.02,20.27 L 26.00,20.77 L 26.00,22.00 L 25.96,22.04 L 24.05,22.99 L 23.98,22.96 L 23.98,19.36 L 25.01,18.83 Z" fill="#06050b" stroke="none" /><path d="M 32.00,12.89 L 31.93,12.89 L 29.07,14.34 L 29.03,14.30 L 29.03,13.14 L 28.96,13.14 L 28.01,13.63 L 28.01,14.83 L 27.94,14.91 L 26.00,15.86 L 26.00,17.09 L 26.98,16.60 L 27.02,16.64 L 27.02,17.80 L 27.09,17.80 L 27.97,17.34 L 28.01,17.38 L 28.01,21.02 L 29.03,20.52 L 29.03,19.28 L 29.99,18.79 L 30.02,18.83 L 30.02,19.99 L 30.09,19.99 L 31.01,19.53 L 31.01,18.30 L 32.00,17.80 L 32.00,16.57 L 31.96,16.57 L 29.10,18.01 L 29.03,17.98 L 29.03,16.85 L 29.10,16.78 L 30.02,16.32 L 30.02,15.12 L 30.09,15.05 L 32.00,14.09 Z" fill="#06050b" stroke="none" /><path d="M 21.97,14.20 L 20.98,14.69 L 20.98,15.89 L 21.05,15.89 L 21.97,15.43 Z" fill="#320310" stroke="none" /><path d="M 27.02,11.69 L 26.95,11.69 L 26.00,12.19 L 26.00,13.39 L 26.07,13.39 L 27.02,12.89 Z" fill="#320310" stroke="none" /><path d="M 26.00,12.19 L 21.97,14.20 L 21.97,16.64 L 22.04,16.64 L 22.96,16.18 L 22.99,16.21 L 22.99,17.38 L 23.03,17.38 L 25.01,16.39 L 25.01,15.15 L 26.00,14.66 Z" fill="#401010" stroke="none" /><path d="M 6.00,24.51 L 6.00,25.68 L 6.99,26.17 L 6.99,24.97 L 6.08,24.51 Z" fill="#0a0812" stroke="none" /><path d="M 4.03,22.25 L 3.99,22.25 L 3.99,23.42 L 3.96,23.45 L 3.04,22.99 L 2.97,22.99 L 2.97,24.16 L 3.92,24.65 L 3.99,24.65 L 3.99,23.56 L 4.03,23.52 L 4.98,23.98 L 4.98,22.75 Z" fill="#0a0812" stroke="none" /><path d="M 0.00,21.51 L 0.00,22.68 L 0.99,23.17 L 0.99,21.97 L 0.07,21.51 Z" fill="#0a0812" stroke="none" /><path d="M 1.98,20.03 L 1.98,21.26 L 2.90,21.72 L 2.97,21.72 L 2.97,20.56 L 3.00,20.52 L 3.99,21.02 L 3.99,19.85 L 4.03,19.81 L 4.91,20.24 L 4.98,20.31 L 4.98,21.51 L 6.99,22.53 L 6.99,23.77 L 8.94,24.72 L 9.01,24.79 L 9.01,25.92 L 8.97,25.96 L 8.02,25.50 L 8.02,26.70 L 8.94,27.16 L 9.01,27.16 L 9.01,26.07 L 9.08,26.03 L 10.95,26.98 L 11.02,26.98 L 11.02,25.75 L 10.03,25.25 L 10.03,24.09 L 10.07,24.05 L 10.95,24.51 L 11.02,24.51 L 11.02,23.28 L 10.10,22.82 L 10.03,22.82 L 10.03,23.98 L 10.00,24.02 L 8.09,23.06 L 8.02,22.99 L 8.02,19.39 L 8.05,19.36 L 8.94,19.81 L 9.01,19.81 L 9.01,18.58 L 8.09,18.12 L 8.02,18.12 L 8.02,19.28 L 7.98,19.32 L 6.99,18.83 L 6.99,21.23 L 6.96,21.26 L 5.05,20.31 L 4.98,20.24 L 4.98,19.04 L 4.06,18.58 L 3.99,18.58 L 3.99,19.71 L 3.96,19.74 L 3.04,19.28 L 2.97,19.28 L 2.97,20.45 L 2.93,20.49 L 2.05,20.03 Z" fill="#0a0812" stroke="none" /><path d="M 10.03,17.91 L 10.03,19.11 L 10.95,19.57 L 11.02,19.64 L 11.02,20.84 L 12.04,21.37 L 12.04,25.04 L 13.03,25.54 L 13.03,24.37 L 13.10,24.34 L 13.95,24.76 L 14.02,24.83 L 14.02,26.03 L 14.98,26.53 L 15.05,26.53 L 15.05,25.36 L 15.08,25.32 L 16.00,25.78 L 16.00,24.55 L 13.07,23.10 L 13.03,23.06 L 13.03,21.90 L 13.07,21.86 L 13.95,22.32 L 14.02,22.32 L 14.02,21.16 L 14.06,21.12 L 15.93,22.08 L 16.00,22.08 L 16.00,20.87 L 13.10,19.43 L 13.03,19.36 L 13.03,18.15 L 12.08,17.66 L 12.04,17.66 L 12.04,18.83 L 12.01,18.86 L 10.10,17.91 Z" fill="#0a0812" stroke="none" /><path d="M 3.04,13.14 L 2.97,13.14 L 2.97,14.30 L 2.93,14.34 L 2.05,13.88 L 1.98,13.88 L 1.98,15.01 L 1.94,15.05 L 0.99,14.59 L 0.99,15.75 L 0.95,15.79 L 0.00,15.33 L 0.00,16.57 L 0.92,17.02 L 0.99,17.09 L 0.99,18.30 L 1.91,18.75 L 1.98,18.75 L 1.98,17.55 L 1.06,17.09 L 0.99,17.02 L 0.99,15.89 L 1.06,15.86 L 1.98,16.32 L 1.98,15.15 L 2.01,15.12 L 2.97,15.58 L 2.97,14.41 L 3.00,14.38 L 3.92,14.83 L 3.99,14.91 L 3.99,17.34 L 4.91,17.80 L 4.98,17.80 L 4.98,16.64 L 5.02,16.60 L 6.00,17.09 L 6.00,15.86 L 4.06,14.91 L 3.99,14.83 L 3.99,13.63 Z" fill="#0a0812" stroke="none" /><path d="M 28.01,10.00 L 27.94,10.00 L 19.96,13.99 L 19.96,16.42 L 20.94,15.93 L 20.98,15.96 L 20.98,17.13 L 21.05,17.13 L 21.93,16.67 L 21.97,16.71 L 21.97,17.87 L 22.04,17.87 L 22.96,17.41 L 22.99,17.45 L 22.99,18.58 L 23.06,18.58 L 24.97,17.62 L 25.01,17.59 L 25.01,16.39 L 26.00,15.89 L 26.00,14.66 L 27.02,14.13 L 27.02,12.93 L 27.09,12.86 L 28.01,12.40 Z" fill="#2a0013" stroke="none" /><path d="M 17.98,26.03 L 16.00,27.02 L 16.00,28.26 L 16.92,27.80 L 16.95,27.83 L 16.95,29.00 L 17.02,29.00 L 17.98,28.50 Z" fill="#0f0c18" stroke="none" /><path d="M 22.96,24.76 L 21.97,25.25 L 21.97,26.49 L 22.04,26.49 L 22.96,26.03 L 22.99,26.07 L 22.99,27.16 L 23.06,27.16 L 23.98,26.70 L 23.98,25.50 L 23.03,25.96 L 22.99,25.92 L 22.99,24.76 Z" fill="#0f0c18" stroke="none" /><path d="M 16.95,21.62 L 16.00,22.08 L 16.00,23.31 L 16.07,23.31 L 16.95,22.85 Z" fill="#0f0c18" stroke="none" /><path d="M 25.01,21.30 L 24.94,21.30 L 23.98,21.79 L 23.98,23.03 L 25.01,22.53 Z" fill="#0f0c18" stroke="none" /><path d="M 31.01,19.53 L 30.94,19.53 L 30.02,19.99 L 30.02,21.23 L 30.09,21.23 L 31.01,20.77 Z" fill="#0f0c18" stroke="none" /><path d="M 19.96,18.90 L 18.97,19.39 L 18.97,20.59 L 19.04,20.59 L 19.96,20.13 Z" fill="#0f0c18" stroke="none" /><path d="M 28.01,18.58 L 27.94,18.58 L 27.02,19.04 L 27.02,20.27 L 28.01,19.78 Z" fill="#0f0c18" stroke="none" /><path d="M 23.98,18.12 L 23.91,18.12 L 21.97,19.11 L 21.97,20.34 L 23.98,19.36 Z" fill="#0f0c18" stroke="none" /><path d="M 32.00,15.33 L 31.01,15.82 L 31.01,17.06 L 32.00,16.57 Z" fill="#0f0c18" stroke="none" /><path d="M 29.03,14.38 L 28.96,14.38 L 28.01,14.87 L 28.01,16.07 L 28.08,16.07 L 29.03,15.58 Z" fill="#0f0c18" stroke="none" /><path d="M 10.03,14.20 L 10.03,15.43 L 10.95,15.89 L 11.02,15.89 L 11.02,14.69 Z" fill="#51041a" stroke="none" /><path d="M 4.98,11.69 L 4.98,12.89 L 5.93,13.39 L 6.00,13.39 L 6.00,12.19 L 5.05,11.69 Z" fill="#51041a" stroke="none" /><path d="M 6.00,12.19 L 6.00,14.66 L 6.99,15.15 L 6.99,16.39 L 8.97,17.38 L 9.01,17.38 L 9.01,16.21 L 9.04,16.18 L 9.96,16.64 L 10.03,16.64 L 10.03,14.20 Z" fill="#681a1a" stroke="none" /><path d="M 3.99,10.00 L 3.99,12.40 L 4.91,12.86 L 4.98,12.93 L 4.98,14.13 L 6.00,14.66 L 6.00,15.89 L 6.99,16.39 L 6.99,17.59 L 7.03,17.62 L 8.94,18.58 L 9.01,18.58 L 9.01,17.45 L 9.04,17.41 L 9.96,17.87 L 10.03,17.87 L 10.03,16.71 L 10.07,16.67 L 10.95,17.13 L 11.02,17.13 L 11.02,15.96 L 11.06,15.93 L 12.04,16.42 L 12.04,13.99 L 4.06,10.00 Z" fill="#45001e" stroke="none" /><path d="M 18.97,24.30 L 16.95,25.29 L 16.95,26.53 L 17.02,26.53 L 18.97,25.54 Z" fill="#170f21" stroke="none" /><path d="M 27.02,19.07 L 26.95,19.07 L 25.01,20.06 L 25.01,22.50 L 25.08,22.50 L 26.00,22.04 L 26.00,20.80 L 27.02,20.27 Z" fill="#170f21" stroke="none" /><path d="M 30.02,18.79 L 29.95,18.79 L 29.03,19.25 L 29.03,20.49 L 29.10,20.49 L 30.02,20.03 Z" fill="#170f21" stroke="none" /><path d="M 12.01,13.00 L 12.04,13.07 L 12.96,13.53 L 14.94,12.54 L 15.05,12.54 L 15.93,13.00 L 16.07,13.00 L 16.95,12.54 L 17.06,12.54 L 19.00,13.53 L 19.99,13.03 L 19.99,13.00 L 18.01,12.01 L 17.02,12.50 L 16.04,12.01 L 15.96,12.01 L 15.01,12.50 L 13.99,12.01 Z" fill="#7d0727" stroke="none" /><path d="M 26.00,6.00 L 24.09,6.96 L 24.09,7.03 L 25.01,7.49 L 24.05,7.98 L 24.05,8.02 L 24.97,8.48 L 24.94,8.55 L 24.05,8.97 L 24.05,9.01 L 26.00,10.00 L 26.10,10.00 L 27.02,9.54 L 27.02,9.47 L 25.11,8.51 L 25.15,8.44 L 26.03,8.02 L 26.03,7.98 L 25.08,7.49 L 26.98,6.53 L 27.02,6.46 L 26.10,6.00 Z" fill="#7d0727" stroke="none" /><path d="M 5.90,6.00 L 4.98,6.46 L 4.98,6.50 L 6.92,7.49 L 5.97,7.98 L 5.97,8.02 L 6.85,8.44 L 6.89,8.51 L 4.98,9.47 L 4.98,9.54 L 5.90,10.00 L 6.00,10.00 L 7.95,9.01 L 7.95,8.97 L 7.03,8.51 L 7.06,8.44 L 7.95,8.02 L 7.95,7.98 L 6.99,7.49 L 7.91,7.03 L 7.91,6.96 L 6.00,6.00 Z" fill="#7d0727" stroke="none" /><path d="M 12.01,2.97 L 12.01,3.00 L 13.92,3.96 L 14.06,3.96 L 14.94,3.50 L 15.05,3.50 L 15.93,3.96 L 16.07,3.96 L 16.95,3.50 L 17.06,3.50 L 17.94,3.96 L 18.08,3.96 L 19.99,3.00 L 19.96,2.93 L 19.04,2.47 L 18.97,2.47 L 17.02,3.46 L 16.04,2.97 L 15.96,2.97 L 14.98,3.46 L 13.03,2.47 L 12.96,2.47 Z" fill="#7d0727" stroke="none" /><path d="M 14.02,26.03 L 14.02,27.27 L 14.98,27.76 L 15.05,27.76 L 15.05,26.53 Z" fill="#191327" stroke="none" /><path d="M 6.00,23.28 L 6.00,24.51 L 6.99,25.01 L 6.99,26.17 L 7.95,26.67 L 8.02,26.67 L 8.02,25.50 L 6.99,24.97 L 6.99,23.74 L 6.08,23.28 Z" fill="#191327" stroke="none" /><path d="M 15.05,22.85 L 15.05,24.09 L 15.93,24.55 L 16.00,24.55 L 16.00,23.31 Z" fill="#191327" stroke="none" /><path d="M 11.02,22.08 L 11.02,23.31 L 12.04,23.81 L 12.04,22.57 Z" fill="#191327" stroke="none" /><path d="M 8.02,21.79 L 8.02,23.03 L 9.01,23.52 L 9.01,22.29 Z" fill="#191327" stroke="none" /><path d="M 0.00,19.04 L 0.00,20.27 L 0.99,20.77 L 0.99,22.00 L 1.91,22.46 L 1.98,22.46 L 1.98,19.99 L 0.07,19.04 Z" fill="#191327" stroke="none" /><path d="M 12.04,18.90 L 12.04,20.13 L 12.96,20.59 L 13.03,20.59 L 13.03,19.39 Z" fill="#191327" stroke="none" /><path d="M 6.00,17.09 L 6.00,18.33 L 7.95,19.32 L 8.02,19.32 L 8.02,18.08 Z" fill="#191327" stroke="none" /><path d="M 2.97,14.38 L 2.97,15.58 L 3.92,16.07 L 3.99,16.07 L 3.99,14.87 L 3.04,14.38 Z" fill="#191327" stroke="none" /><path d="M 0.00,14.09 L 0.00,15.33 L 0.99,15.82 L 0.99,14.59 Z" fill="#191327" stroke="none" /><path d="M 5.97,5.97 L 6.00,6.04 L 7.91,6.99 L 6.99,7.45 L 6.99,7.52 L 7.91,7.98 L 7.84,8.05 L 6.96,8.48 L 6.96,8.51 L 7.84,8.94 L 7.91,9.01 L 6.00,9.96 L 5.97,10.03 L 11.97,13.03 L 13.95,12.04 L 14.06,12.04 L 14.94,12.50 L 15.05,12.50 L 16.00,12.01 L 16.95,12.50 L 17.06,12.50 L 17.94,12.04 L 18.05,12.04 L 20.03,13.03 L 26.03,10.03 L 26.00,9.96 L 24.09,9.01 L 24.16,8.94 L 25.04,8.51 L 25.04,8.48 L 24.16,8.05 L 24.09,7.98 L 25.01,7.52 L 25.01,7.45 L 24.09,6.99 L 26.00,6.04 L 26.03,5.97 L 20.03,2.97 L 18.05,3.96 L 17.98,3.96 L 17.02,3.46 L 16.04,3.96 L 15.96,3.96 L 15.01,3.46 L 14.02,3.96 L 13.95,3.96 L 11.97,2.97 Z" fill="#a02828" stroke="none" /><path d="M 10.00,6.96 L 10.00,7.03 L 10.91,7.49 L 10.84,7.56 L 9.96,7.98 L 9.96,8.02 L 10.84,8.44 L 10.91,8.51 L 10.00,8.97 L 10.00,9.01 L 13.99,11.02 L 14.98,10.53 L 15.96,11.02 L 16.04,11.02 L 16.99,10.53 L 18.01,11.02 L 22.00,9.01 L 22.00,8.97 L 21.09,8.51 L 21.16,8.44 L 22.04,8.02 L 22.04,7.98 L 21.16,7.56 L 21.09,7.49 L 22.00,7.03 L 22.00,6.96 L 18.05,4.98 L 17.98,4.98 L 17.02,5.47 L 16.04,4.98 L 15.96,4.98 L 15.01,5.47 L 14.02,4.98 L 13.95,4.98 Z" fill="#57162b" stroke="none" /><path d="M 28.01,9.96 L 27.09,9.50 L 27.02,9.50 L 19.04,13.49 L 19.04,13.53 L 19.92,13.99 L 20.03,13.99 L 28.01,10.00 Z" fill="#6a002e" stroke="none" /><path d="M 3.99,9.96 L 3.99,10.00 L 11.97,13.99 L 12.08,13.99 L 12.96,13.53 L 12.96,13.49 L 4.98,9.50 L 4.91,9.50 Z" fill="#6a002e" stroke="none" /><path d="M 19.04,2.44 L 19.04,2.51 L 27.02,6.50 L 27.97,6.04 L 27.97,5.97 L 19.99,1.98 Z" fill="#6a002e" stroke="none" /><path d="M 12.96,2.44 L 12.01,1.98 L 4.03,5.97 L 4.03,6.04 L 4.98,6.50 L 12.96,2.51 Z" fill="#6a002e" stroke="none" /><path d="M 16.04,10.98 L 16.04,11.06 L 16.95,11.51 L 17.02,11.51 L 17.98,11.02 L 17.98,10.98 L 17.06,10.53 L 16.95,10.53 Z" fill="#731d31" stroke="none" /><path d="M 14.02,10.98 L 14.06,11.06 L 14.98,11.51 L 15.05,11.51 L 15.96,11.06 L 15.96,10.98 L 15.05,10.53 L 14.94,10.53 Z" fill="#731d31" stroke="none" /><path d="M 22.00,10.00 L 21.05,9.50 L 20.98,9.50 L 19.00,10.49 L 19.00,10.53 L 20.03,11.02 L 22.00,10.03 Z" fill="#731d31" stroke="none" /><path d="M 10.00,10.00 L 10.00,10.03 L 11.97,11.02 L 13.00,10.53 L 13.00,10.49 L 11.02,9.50 L 10.95,9.50 Z" fill="#731d31" stroke="none" /><path d="M 22.08,6.99 L 22.00,6.99 L 21.05,7.49 L 21.05,7.52 L 21.97,7.98 L 21.93,8.05 L 21.05,8.48 L 21.05,8.51 L 22.00,9.01 L 23.03,8.51 L 23.03,8.48 L 22.11,8.02 L 22.15,7.95 L 23.03,7.52 L 23.03,7.49 Z" fill="#731d31" stroke="none" /><path d="M 9.92,6.99 L 8.97,7.49 L 8.97,7.52 L 9.89,7.98 L 9.85,8.05 L 8.97,8.48 L 8.97,8.51 L 10.00,9.01 L 10.95,8.51 L 10.95,8.48 L 10.03,8.02 L 10.07,7.95 L 10.95,7.52 L 10.95,7.49 L 10.00,6.99 Z" fill="#731d31" stroke="none" /><path d="M 19.04,5.47 L 19.04,5.51 L 21.02,6.50 L 22.04,6.00 L 22.04,5.97 L 20.06,4.98 L 19.99,4.98 Z" fill="#731d31" stroke="none" /><path d="M 12.96,5.47 L 12.01,4.98 L 11.94,4.98 L 9.96,5.97 L 9.96,6.00 L 10.98,6.50 L 12.96,5.51 Z" fill="#731d31" stroke="none" /><path d="M 16.04,4.94 L 16.04,5.02 L 16.95,5.47 L 17.06,5.47 L 17.98,5.02 L 17.98,4.94 L 17.06,4.49 L 16.95,4.49 Z" fill="#731d31" stroke="none" /><path d="M 14.02,4.94 L 14.02,5.02 L 14.94,5.47 L 15.05,5.47 L 15.96,5.02 L 15.96,4.94 L 15.05,4.49 L 14.94,4.49 Z" fill="#731d31" stroke="none" /><path d="M 13.03,24.30 L 13.03,25.54 L 14.02,26.03 L 14.02,24.79 Z" fill="#261936" stroke="none" /><path d="M 9.01,21.09 L 9.01,23.52 L 9.96,24.02 L 10.03,24.02 L 10.03,22.85 L 10.07,22.82 L 10.95,23.28 L 11.02,23.28 L 11.02,22.08 L 9.08,21.09 Z" fill="#261936" stroke="none" /><path d="M 0.99,18.30 L 0.99,19.53 L 2.90,20.49 L 2.97,20.49 L 2.97,19.25 L 1.06,18.30 Z" fill="#261936" stroke="none" /><path d="M 16.95,19.18 L 16.88,19.18 L 16.00,19.64 L 16.00,20.87 L 16.95,20.42 Z" fill="#115146" stroke="none" /><path d="M 19.96,14.02 L 19.89,14.02 L 18.97,14.48 L 18.97,15.68 L 19.04,15.68 L 19.96,15.22 Z" fill="#115146" stroke="none" /><path d="M 32.00,11.66 L 31.93,11.66 L 31.01,12.11 L 31.01,13.35 L 31.08,13.35 L 32.00,12.89 Z" fill="#115146" stroke="none" /><path d="M 29.03,9.47 L 28.01,9.96 L 28.01,11.16 L 28.08,11.16 L 29.03,10.67 Z" fill="#115146" stroke="none" /><path d="M 19.96,15.22 L 19.89,15.22 L 18.97,15.68 L 18.97,18.12 L 18.90,18.19 L 16.95,19.14 L 16.95,20.38 L 17.02,20.38 L 18.97,19.39 L 18.97,18.19 L 19.04,18.12 L 19.96,17.66 Z" fill="#1d5e53" stroke="none" /><path d="M 29.00,10.67 L 28.01,11.16 L 28.01,13.63 L 29.00,13.14 L 29.03,13.17 L 29.03,14.34 L 29.10,14.34 L 31.01,13.39 L 31.01,12.15 L 30.94,12.15 L 29.07,13.10 L 29.03,13.07 L 29.03,10.67 Z" fill="#1d5e53" stroke="none" /><path d="M 18.97,15.72 L 18.90,15.72 L 16.95,16.71 L 16.95,19.14 L 17.02,19.14 L 18.97,18.15 Z" fill="#40615b" stroke="none" /><path d="M 31.01,9.68 L 29.03,10.67 L 29.03,13.10 L 29.10,13.10 L 31.01,12.15 Z" fill="#40615b" stroke="none" /><path d="M 18.97,14.52 L 18.90,14.52 L 16.95,15.51 L 16.95,16.67 L 16.88,16.74 L 16.00,17.17 L 16.00,19.64 L 16.95,19.18 L 16.95,16.74 L 17.02,16.67 L 18.97,15.72 Z" fill="#4d635f" stroke="none" /><path d="M 30.98,8.48 L 29.03,9.47 L 29.03,10.67 L 30.98,9.71 L 31.01,9.75 L 31.01,12.11 L 31.08,12.11 L 32.00,11.66 L 32.00,9.18 L 31.05,9.64 L 31.01,9.61 L 31.01,8.48 Z" fill="#4d635f" stroke="none" /><path d="M 16.95,15.51 L 16.00,15.96 L 16.00,17.17 L 16.07,17.17 L 16.95,16.71 Z" fill="#656565" stroke="none" /><path d="M 32.00,7.98 L 31.01,8.48 L 31.01,9.68 L 32.00,9.18 Z" fill="#656565" stroke="none" /><path d="M 15.05,19.18 L 15.05,20.42 L 16.00,20.87 L 16.00,19.64 L 15.12,19.18 Z" fill="#1c8371" stroke="none" /><path d="M 12.04,14.02 L 12.04,15.22 L 12.96,15.68 L 13.03,15.68 L 13.03,14.48 L 12.11,14.02 Z" fill="#1c8371" stroke="none" /><path d="M 0.00,11.66 L 0.00,12.89 L 0.92,13.35 L 0.99,13.35 L 0.99,12.11 L 0.07,11.66 Z" fill="#1c8371" stroke="none" /><path d="M 2.97,9.47 L 2.97,10.67 L 3.92,11.16 L 3.99,11.16 L 3.99,9.96 Z" fill="#1c8371" stroke="none" /><path d="M 12.04,15.22 L 12.04,17.66 L 12.96,18.12 L 13.03,18.19 L 13.03,19.39 L 14.98,20.38 L 15.05,20.38 L 15.05,19.14 L 13.10,18.19 L 13.03,18.12 L 13.03,15.68 L 12.11,15.22 Z" fill="#2f9886" stroke="none" /><path d="M 3.00,10.67 L 2.97,10.67 L 2.97,13.07 L 2.93,13.10 L 1.06,12.15 L 0.99,12.15 L 0.99,13.39 L 2.90,14.34 L 2.97,14.34 L 2.97,13.17 L 3.00,13.14 L 3.99,13.63 L 3.99,11.16 Z" fill="#2f9886" stroke="none" /><path d="M 13.03,15.72 L 13.03,18.15 L 14.98,19.14 L 15.05,19.14 L 15.05,16.71 L 13.10,15.72 Z" fill="#689e94" stroke="none" /><path d="M 0.99,9.68 L 0.99,12.15 L 2.90,13.10 L 2.97,13.10 L 2.97,10.67 Z" fill="#689e94" stroke="none" /><path d="M 13.03,14.52 L 13.03,15.72 L 14.98,16.67 L 15.05,16.74 L 15.05,19.18 L 16.00,19.64 L 16.00,17.17 L 15.12,16.74 L 15.05,16.67 L 15.05,15.51 L 13.10,14.52 Z" fill="#7da19b" stroke="none" /><path d="M 1.02,8.48 L 0.99,8.48 L 0.99,9.61 L 0.95,9.64 L 0.00,9.18 L 0.00,11.66 L 0.92,12.11 L 0.99,12.11 L 0.99,9.75 L 1.02,9.71 L 2.97,10.67 L 2.97,9.47 Z" fill="#7da19b" stroke="none" /><path d="M 15.05,15.51 L 15.05,16.71 L 15.93,17.17 L 16.00,17.17 L 16.00,15.96 Z" fill="#a4a4a4" stroke="none" /><path d="M 0.00,7.98 L 0.00,9.18 L 0.99,9.68 L 0.99,8.48 Z" fill="#a4a4a4" stroke="none" /><path d="M 18.05,13.99 L 18.05,14.06 L 18.90,14.48 L 19.04,14.48 L 19.96,14.02 L 19.92,13.95 L 19.07,13.53 L 18.97,13.53 Z" fill="#2bcbaf" stroke="none" /><path d="M 12.04,13.99 L 12.04,14.02 L 12.96,14.48 L 13.10,14.48 L 13.95,14.06 L 13.95,13.99 L 13.03,13.53 L 12.93,13.53 Z" fill="#2bcbaf" stroke="none" /><path d="M 27.09,9.47 L 27.09,9.54 L 27.94,9.96 L 28.08,9.96 L 29.00,9.50 L 28.96,9.43 L 28.11,9.01 L 28.01,9.01 Z" fill="#2bcbaf" stroke="none" /><path d="M 3.00,9.47 L 3.00,9.50 L 3.92,9.96 L 4.06,9.96 L 4.91,9.54 L 4.91,9.47 L 3.99,9.01 L 3.89,9.01 Z" fill="#2bcbaf" stroke="none" /><path d="M 27.06,6.46 L 27.09,6.53 L 28.01,6.99 L 28.08,6.99 L 29.00,6.53 L 28.96,6.46 L 28.04,6.00 L 27.97,6.00 Z" fill="#2bcbaf" stroke="none" /><path d="M 3.00,6.53 L 3.92,6.99 L 3.99,6.99 L 4.91,6.53 L 4.94,6.46 L 4.03,6.00 L 3.96,6.00 L 3.04,6.46 Z" fill="#2bcbaf" stroke="none" /><path d="M 18.01,1.94 L 18.05,2.01 L 18.97,2.47 L 19.04,2.47 L 19.96,2.01 L 19.92,1.94 L 19.00,1.48 L 18.93,1.48 Z" fill="#2bcbaf" stroke="none" /><path d="M 12.04,2.01 L 12.96,2.47 L 13.03,2.47 L 13.95,2.01 L 13.99,1.94 L 13.07,1.48 L 13.00,1.48 L 12.08,1.94 Z" fill="#2bcbaf" stroke="none" /><path d="M 13.00,13.49 L 13.03,13.56 L 13.95,14.02 L 14.02,14.02 L 15.96,13.03 L 16.04,13.03 L 17.98,14.02 L 18.05,14.02 L 19.00,13.53 L 19.00,13.49 L 17.02,12.50 L 16.04,13.00 L 15.96,13.00 L 14.98,12.50 Z" fill="#49eacf" stroke="none" /><path d="M 26.98,6.50 L 25.08,7.45 L 25.08,7.52 L 26.00,7.98 L 25.92,8.05 L 25.04,8.48 L 25.04,8.51 L 27.02,9.50 L 27.09,9.50 L 28.01,9.04 L 28.04,8.97 L 26.17,8.05 L 26.10,7.98 L 28.01,7.03 L 28.01,6.96 L 27.09,6.50 Z" fill="#49eacf" stroke="none" /><path d="M 4.91,6.50 L 3.99,6.96 L 3.99,7.03 L 5.90,7.98 L 5.83,8.05 L 3.96,8.97 L 3.96,9.01 L 4.91,9.50 L 4.98,9.50 L 6.96,8.51 L 6.96,8.48 L 6.08,8.05 L 6.00,7.98 L 6.92,7.52 L 6.92,7.45 L 5.02,6.50 Z" fill="#49eacf" stroke="none" /><path d="M 18.97,2.44 L 18.05,1.98 L 17.94,1.98 L 16.04,2.93 L 16.04,3.00 L 16.95,3.46 L 17.06,3.46 L 18.97,2.51 Z" fill="#49eacf" stroke="none" /><path d="M 13.03,2.44 L 13.03,2.51 L 14.94,3.46 L 15.05,3.46 L 15.96,3.00 L 15.96,2.93 L 14.06,1.98 L 13.95,1.98 Z" fill="#49eacf" stroke="none" /><path d="M 14.02,13.99 L 14.02,14.06 L 15.93,15.01 L 16.07,15.01 L 17.98,14.06 L 17.98,13.99 L 16.07,13.03 L 15.93,13.03 Z" fill="#a0f3e4" stroke="none" /><path d="M 26.07,7.98 L 26.07,8.02 L 28.04,9.01 L 30.06,8.02 L 30.06,7.98 L 28.08,6.99 L 28.01,6.99 Z" fill="#a0f3e4" stroke="none" /><path d="M 1.94,7.98 L 1.94,8.02 L 3.92,9.01 L 5.93,8.02 L 5.90,7.95 L 3.99,6.99 L 3.92,6.99 Z" fill="#a0f3e4" stroke="none" /><path d="M 14.02,1.94 L 14.06,2.01 L 15.96,2.97 L 16.04,2.97 L 17.98,1.98 L 17.98,1.94 L 16.07,0.99 L 15.93,0.99 Z" fill="#a0f3e4" stroke="none" /><path d="M 13.03,14.48 L 13.03,14.52 L 15.01,15.51 L 15.08,15.51 L 15.96,15.05 L 16.04,15.05 L 16.92,15.51 L 16.99,15.51 L 18.97,14.52 L 18.97,14.48 L 18.05,14.02 L 17.98,14.02 L 16.04,15.01 L 15.96,15.01 L 14.02,14.02 L 13.95,14.02 Z" fill="#c1f8ee" stroke="none" /><path d="M 29.00,6.50 L 28.08,6.96 L 28.08,7.03 L 29.95,7.95 L 29.99,8.02 L 28.08,8.97 L 28.08,9.01 L 28.96,9.47 L 29.07,9.47 L 30.98,8.51 L 30.98,8.44 L 30.16,8.05 L 30.13,7.98 L 30.98,7.56 L 31.01,7.49 Z" fill="#c1f8ee" stroke="none" /><path d="M 2.97,6.50 L 0.99,7.49 L 0.99,7.52 L 1.87,7.98 L 1.84,8.05 L 1.02,8.44 L 1.02,8.51 L 2.93,9.47 L 3.04,9.47 L 3.89,9.04 L 3.92,8.97 L 2.01,8.02 L 2.05,7.95 L 3.92,7.03 L 3.92,6.96 Z" fill="#c1f8ee" stroke="none" /><path d="M 13.07,1.45 L 13.07,1.52 L 13.99,1.98 L 15.96,0.99 L 16.04,0.99 L 17.98,1.98 L 18.93,1.52 L 18.93,1.45 L 17.02,0.49 L 16.92,0.49 L 16.04,0.95 L 15.96,0.95 L 15.08,0.49 L 14.98,0.49 Z" fill="#c1f8ee" stroke="none" /><path d="M 15.08,15.47 L 15.08,15.54 L 15.93,15.96 L 16.07,15.96 L 16.92,15.54 L 16.92,15.47 L 16.07,15.05 L 15.93,15.05 Z" fill="#fcfcfc" stroke="none" /><path d="M 30.06,7.98 L 30.06,8.02 L 30.98,8.48 L 31.05,8.48 L 31.96,8.02 L 31.93,7.95 L 31.08,7.52 L 30.98,7.52 Z" fill="#fcfcfc" stroke="none" /><path d="M 0.04,7.98 L 0.04,8.02 L 0.95,8.48 L 1.02,8.48 L 1.94,8.02 L 1.94,7.98 L 1.02,7.52 L 0.92,7.52 Z" fill="#fcfcfc" stroke="none" /><path d="M 15.05,0.46 L 15.08,0.53 L 15.93,0.95 L 16.07,0.95 L 16.95,0.49 L 16.95,0.46 L 16.04,0.00 L 15.96,0.00 Z" fill="#fcfcfc" stroke="none" /></svg>