<svg height="32" width="32" viewBox="0 0 32 32"><defs /><path d="M 28.77,12.24 L 28.69,12.24 L 23.65,14.78 L 23.65,16.05 L 23.68,16.05 L 27.71,14.02 L 27.75,14.06 L 27.75,24.05 L 15.44,30.22 L 15.40,30.18 L 15.40,20.20 L 20.56,17.62 L 20.56,16.35 L 20.49,16.35 L 14.38,19.40 L 14.38,32.00 L 28.77,24.81 Z" fill="#010508" stroke="none" /><path d="M 22.59,20.38 L 22.52,20.38 L 20.56,21.36 L 20.56,23.86 L 20.63,23.86 L 22.59,22.88 Z" fill="#02080b" stroke="none" /><path d="M 26.66,18.31 L 25.68,18.81 L 25.68,20.05 L 25.75,20.05 L 26.66,19.58 L 26.70,19.61 L 26.70,20.81 L 26.73,20.81 L 27.75,20.30 L 27.75,19.03 L 26.73,19.54 L 26.70,19.51 L 26.70,18.31 Z" fill="#02080b" stroke="none" /><path d="M 20.56,17.62 L 20.49,17.62 L 19.51,18.12 L 19.51,19.36 L 19.47,19.40 L 17.51,20.38 L 17.47,20.34 L 17.47,19.14 L 16.45,19.65 L 16.45,20.89 L 16.53,20.89 L 17.43,20.41 L 17.47,20.45 L 17.47,22.88 L 17.40,22.96 L 16.49,23.39 L 16.45,23.36 L 16.45,22.16 L 15.40,22.67 L 15.40,23.94 L 15.47,23.94 L 16.38,23.46 L 16.45,23.50 L 16.45,24.66 L 15.40,25.21 L 15.40,26.44 L 15.47,26.44 L 16.42,25.97 L 16.45,26.01 L 16.45,27.17 L 16.53,27.17 L 17.47,26.70 L 17.47,22.96 L 17.54,22.88 L 18.49,22.41 L 18.49,21.18 L 18.56,21.10 L 19.51,20.63 L 19.51,19.40 L 20.56,18.85 Z" fill="#02080b" stroke="none" /><path d="M 24.66,16.82 L 24.59,16.82 L 23.65,17.29 L 23.65,18.56 L 24.66,18.05 Z" fill="#02080b" stroke="none" /><path d="M 27.75,14.02 L 27.68,14.02 L 25.68,15.04 L 25.68,16.27 L 25.75,16.27 L 27.75,15.26 Z" fill="#02080b" stroke="none" /><path d="M 22.59,22.88 L 22.52,22.88 L 20.56,23.86 L 20.56,25.14 L 22.59,24.12 Z" fill="#09130c" stroke="none" /><path d="M 22.59,20.12 L 21.61,20.59 L 21.58,20.63 L 21.58,20.85 L 21.65,20.85 L 22.59,20.38 Z" fill="#09130c" stroke="none" /><path d="M 0.00,12.24 L 0.00,24.81 L 14.38,32.00 L 14.38,19.40 L 0.07,12.24 Z" fill="#01090d" stroke="none" /><path d="M 20.56,26.41 L 19.51,26.91 L 19.51,28.19 L 20.56,27.68 Z" fill="#070d0e" stroke="none" /><path d="M 23.65,24.88 L 23.57,24.88 L 22.59,25.39 L 22.59,26.62 L 22.67,26.62 L 23.65,26.12 Z" fill="#070d0e" stroke="none" /><path d="M 26.70,23.36 L 26.62,23.36 L 25.68,23.83 L 25.68,25.10 L 26.70,24.59 Z" fill="#070d0e" stroke="none" /><path d="M 26.70,19.58 L 26.62,19.58 L 25.68,20.05 L 25.68,22.56 L 25.75,22.56 L 26.70,22.08 Z" fill="#070d0e" stroke="none" /><path d="M 23.65,15.84 L 23.57,15.84 L 22.59,16.35 L 22.59,17.58 L 22.67,17.58 L 23.65,17.07 Z" fill="#52490e" stroke="none" /><path d="M 22.59,18.89 L 22.52,18.89 L 21.58,19.36 L 21.58,20.63 L 22.59,20.12 Z" fill="#4b3d0f" stroke="none" /><path d="M 28.77,8.46 L 27.79,8.94 L 27.75,8.90 L 27.75,7.70 L 27.71,7.70 L 15.44,13.84 L 15.40,13.88 L 15.40,15.11 L 15.33,15.18 L 14.38,15.65 L 14.38,19.40 L 14.46,19.40 L 15.40,18.92 L 15.40,15.18 L 15.47,15.11 L 27.68,9.01 L 27.75,9.04 L 27.75,12.71 L 27.82,12.71 L 28.77,12.24 Z" fill="#0a0e10" stroke="none" /><path d="M 23.65,17.07 L 22.59,17.58 L 22.59,20.12 L 23.65,19.61 Z" fill="#483a10" stroke="none" /><path d="M 22.59,25.39 L 20.56,26.41 L 20.56,27.64 L 20.63,27.64 L 22.59,26.66 Z" fill="#031111" stroke="none" /><path d="M 19.51,20.63 L 18.49,21.14 L 18.49,22.37 L 18.42,22.45 L 17.47,22.92 L 17.47,25.43 L 18.45,24.95 L 18.49,24.99 L 18.49,26.15 L 18.56,26.15 L 19.51,25.68 L 19.51,24.41 L 18.56,24.88 L 18.49,24.84 L 18.49,22.45 L 18.56,22.37 L 19.51,21.90 Z" fill="#031111" stroke="none" /><path d="M 24.66,18.05 L 23.65,18.56 L 23.65,19.83 L 24.59,19.36 L 24.66,19.40 L 24.66,21.79 L 24.59,21.87 L 23.65,22.34 L 23.65,23.57 L 23.72,23.57 L 24.66,23.10 L 24.66,21.87 L 24.74,21.79 L 25.68,21.32 L 25.68,18.81 L 24.70,19.29 L 24.66,19.25 Z" fill="#031111" stroke="none" /><path d="M 12.31,27.21 L 12.31,29.71 L 13.29,30.22 L 13.37,30.22 L 13.37,27.71 L 12.39,27.21 Z" fill="#030d12" stroke="none" /><path d="M 10.28,21.14 L 10.28,23.61 L 10.24,23.65 L 8.21,22.63 L 8.21,23.83 L 8.17,23.86 L 7.26,23.39 L 7.19,23.39 L 7.19,24.55 L 7.16,24.59 L 6.17,24.12 L 6.17,26.66 L 8.14,27.64 L 8.21,27.64 L 8.21,23.94 L 8.25,23.90 L 9.19,24.37 L 9.26,24.44 L 9.26,28.19 L 11.30,29.20 L 11.30,26.66 L 10.28,26.15 L 10.28,23.72 L 10.32,23.68 L 11.30,24.19 L 11.30,25.43 L 12.31,25.93 L 12.31,24.74 L 12.35,24.70 L 13.37,25.21 L 13.37,22.67 L 12.31,22.16 L 12.31,24.63 L 12.28,24.66 L 11.30,24.15 L 11.30,21.65 Z" fill="#030d12" stroke="none" /><path d="M 1.02,20.30 L 1.02,24.08 L 2.07,24.59 L 2.07,20.81 L 1.09,20.30 Z" fill="#030d12" stroke="none" /><path d="M 11.30,19.14 L 11.30,20.41 L 12.24,20.89 L 12.31,20.89 L 12.31,19.65 Z" fill="#030d12" stroke="none" /><path d="M 2.07,18.31 L 2.07,19.58 L 3.01,20.05 L 3.09,20.05 L 3.09,18.81 Z" fill="#030d12" stroke="none" /><path d="M 8.21,17.62 L 8.21,20.12 L 9.26,20.63 L 9.26,19.43 L 9.30,19.40 L 10.21,19.87 L 10.28,19.87 L 10.28,18.63 L 8.28,17.62 Z" fill="#030d12" stroke="none" /><path d="M 4.10,15.55 L 4.10,18.05 L 5.05,18.52 L 5.12,18.60 L 5.12,21.03 L 5.09,21.07 L 4.18,20.59 L 4.10,20.59 L 4.10,21.76 L 4.07,21.79 L 3.09,21.32 L 3.09,25.10 L 5.12,26.12 L 5.12,21.14 L 5.16,21.10 L 6.17,21.61 L 6.17,20.41 L 6.21,20.38 L 7.12,20.85 L 7.19,20.85 L 7.19,17.07 L 6.25,16.60 L 6.17,16.60 L 6.17,19.03 L 6.14,19.07 L 5.19,18.60 L 5.12,18.52 L 5.12,16.05 Z" fill="#030d12" stroke="none" /><path d="M 2.07,14.53 L 2.07,15.80 L 3.01,16.27 L 3.09,16.27 L 3.09,15.04 Z" fill="#030d12" stroke="none" /><path d="M 16.45,25.93 L 15.40,26.44 L 15.40,30.22 L 15.47,30.22 L 16.45,29.71 Z" fill="#060e12" stroke="none" /><path d="M 18.49,24.92 L 17.47,25.43 L 17.47,29.20 L 19.51,28.19 L 19.51,25.68 L 19.43,25.68 L 18.52,26.15 L 18.49,26.12 Z" fill="#060e12" stroke="none" /><path d="M 25.68,21.32 L 24.66,21.83 L 24.66,23.06 L 23.65,23.57 L 23.65,26.12 L 25.68,25.10 Z" fill="#060e12" stroke="none" /><path d="M 27.75,20.30 L 27.68,20.30 L 26.70,20.81 L 26.70,24.59 L 27.75,24.08 Z" fill="#060e12" stroke="none" /><path d="M 19.51,18.12 L 17.51,19.11 L 17.47,19.14 L 17.47,20.38 L 16.49,20.89 L 16.45,20.85 L 16.45,19.65 L 15.40,20.16 L 15.40,22.67 L 15.47,22.67 L 16.38,22.19 L 16.45,22.23 L 16.45,23.39 L 16.38,23.46 L 15.40,23.94 L 15.40,25.21 L 16.45,24.70 L 16.45,23.46 L 16.53,23.39 L 17.47,22.92 L 17.47,20.41 L 19.51,19.40 Z" fill="#060e12" stroke="none" /><path d="M 23.68,16.02 L 23.65,16.05 L 23.65,17.29 L 23.72,17.29 L 24.63,16.82 L 24.66,16.85 L 24.66,19.32 L 26.62,18.34 L 26.70,18.38 L 26.70,19.54 L 26.77,19.54 L 27.75,19.03 L 27.75,15.26 L 25.72,16.27 L 25.68,16.24 L 25.68,15.04 Z" fill="#060e12" stroke="none" /><path d="M 18.49,14.86 L 17.47,15.36 L 17.47,16.60 L 17.54,16.60 L 18.49,16.13 Z" fill="#0c1112" stroke="none" /><path d="M 15.40,13.88 L 14.38,14.38 L 14.38,15.65 L 15.40,15.15 Z" fill="#0c1112" stroke="none" /><path d="M 24.66,11.77 L 23.65,12.28 L 23.65,14.78 L 24.66,14.27 Z" fill="#0c1112" stroke="none" /><path d="M 27.75,11.48 L 26.70,11.99 L 26.70,13.26 L 27.75,12.75 Z" fill="#0c1112" stroke="none" /><path d="M 28.77,7.19 L 27.75,7.70 L 27.75,8.97 L 28.77,8.46 Z" fill="#0c1112" stroke="none" /><path d="M 17.47,27.97 L 17.40,27.97 L 16.45,28.44 L 16.45,29.71 L 17.47,29.20 Z" fill="#0f1513" stroke="none" /><path d="M 26.70,22.08 L 26.62,22.08 L 25.68,22.56 L 25.68,23.83 L 25.75,23.83 L 26.70,23.36 Z" fill="#0f1513" stroke="none" /><path d="M 16.45,15.87 L 15.40,16.38 L 15.40,18.89 L 15.47,18.89 L 16.45,18.38 Z" fill="#0e1314" stroke="none" /><path d="M 22.59,12.82 L 22.52,12.82 L 20.56,13.80 L 20.56,15.04 L 20.49,15.11 L 19.54,15.58 L 19.51,15.55 L 19.51,14.35 L 18.52,14.82 L 18.49,14.86 L 18.49,16.09 L 17.47,16.60 L 17.47,17.87 L 20.56,16.35 L 20.56,15.11 L 20.63,15.04 L 22.59,14.06 Z" fill="#0e1314" stroke="none" /><path d="M 27.75,10.24 L 27.68,10.24 L 24.66,11.77 L 24.66,14.27 L 26.70,13.26 L 26.70,12.02 L 27.75,11.48 Z" fill="#0e1314" stroke="none" /><path d="M 11.30,27.97 L 11.30,29.20 L 12.31,29.71 L 12.31,28.44 L 11.37,27.97 Z" fill="#0c1616" stroke="none" /><path d="M 8.21,26.41 L 8.21,27.68 L 9.26,28.19 L 9.26,26.91 Z" fill="#0c1616" stroke="none" /><path d="M 5.12,24.88 L 5.12,26.12 L 6.10,26.62 L 6.17,26.62 L 6.17,25.39 L 5.19,24.88 Z" fill="#0c1616" stroke="none" /><path d="M 2.07,22.08 L 2.07,24.59 L 3.09,25.10 L 3.09,22.56 L 2.14,22.08 Z" fill="#0c1616" stroke="none" /><path d="M 22.59,24.12 L 20.56,25.14 L 20.56,26.41 L 22.59,25.39 Z" fill="#0f1c16" stroke="none" /><path d="M 19.51,21.90 L 18.49,22.41 L 18.49,24.92 L 19.51,24.41 Z" fill="#0f1c16" stroke="none" /><path d="M 24.66,19.32 L 23.65,19.83 L 23.65,22.34 L 24.66,21.83 Z" fill="#0f1c16" stroke="none" /><path d="M 20.56,16.35 L 20.56,17.62 L 21.50,18.09 L 21.58,18.09 L 21.58,16.85 Z" fill="#857717" stroke="none" /><path d="M 0.00,8.46 L 0.00,12.24 L 0.94,12.71 L 1.02,12.71 L 1.02,9.04 L 1.09,9.01 L 13.29,15.11 L 13.37,15.18 L 13.37,18.92 L 14.31,19.40 L 14.38,19.40 L 14.38,15.65 L 13.44,15.18 L 13.37,15.11 L 13.37,13.88 L 13.33,13.84 L 1.05,7.70 L 1.02,7.70 L 1.02,8.90 L 0.98,8.94 Z" fill="#10161a" stroke="none" /><path d="M 23.65,14.57 L 22.59,15.07 L 22.59,16.35 L 23.65,15.84 Z" fill="#5b531a" stroke="none" /><path d="M 20.56,17.62 L 20.56,20.12 L 21.58,20.63 L 21.58,18.09 L 20.63,17.62 Z" fill="#755e1a" stroke="none" /><path d="M 18.49,13.62 L 18.42,13.62 L 17.47,14.09 L 17.47,15.36 L 18.49,14.86 Z" fill="#131a1c" stroke="none" /><path d="M 21.58,12.06 L 20.56,12.57 L 20.56,13.80 L 20.63,13.80 L 21.58,13.33 Z" fill="#131a1c" stroke="none" /><path d="M 24.66,10.53 L 24.59,10.53 L 23.65,11.01 L 23.65,12.28 L 24.66,11.77 Z" fill="#131a1c" stroke="none" /><path d="M 7.19,17.11 L 7.19,20.81 L 7.16,20.85 L 6.25,20.38 L 6.17,20.38 L 6.17,24.12 L 7.19,24.63 L 7.19,23.43 L 7.23,23.39 L 8.14,23.86 L 8.21,23.86 L 8.21,22.70 L 8.28,22.67 L 10.28,23.68 L 10.28,26.19 L 11.22,26.66 L 11.30,26.66 L 11.30,24.23 L 11.33,24.19 L 12.28,24.66 L 12.31,24.70 L 12.31,27.21 L 13.37,27.71 L 13.37,25.21 L 12.31,24.66 L 12.31,22.23 L 12.39,22.19 L 13.29,22.67 L 13.37,22.67 L 13.37,20.16 L 12.31,19.65 L 12.31,20.85 L 12.28,20.89 L 11.30,20.38 L 11.30,19.14 L 10.28,18.63 L 10.28,19.83 L 10.24,19.87 L 9.33,19.40 L 9.26,19.40 L 9.26,20.56 L 9.19,20.59 L 8.21,20.09 L 8.21,17.58 L 7.26,17.11 Z" fill="#0a161d" stroke="none" /><path d="M 1.02,14.02 L 1.02,20.30 L 2.07,20.81 L 2.07,18.38 L 2.14,18.34 L 3.01,18.78 L 3.09,18.85 L 3.09,21.32 L 4.10,21.83 L 4.10,20.63 L 4.14,20.59 L 5.05,21.07 L 5.12,21.07 L 5.12,18.63 L 5.19,18.60 L 6.10,19.07 L 6.17,19.07 L 6.17,16.56 L 5.12,16.05 L 5.12,18.49 L 5.05,18.52 L 4.18,18.09 L 4.10,18.02 L 4.10,15.55 L 3.09,15.04 L 3.09,16.24 L 3.05,16.27 L 2.07,15.76 L 2.07,14.53 L 1.09,14.02 Z" fill="#0a161d" stroke="none" /><path d="M 9.26,14.35 L 9.26,16.85 L 10.28,17.36 L 10.28,14.86 Z" fill="#131c1d" stroke="none" /><path d="M 6.17,14.06 L 6.17,15.33 L 7.12,15.80 L 7.19,15.80 L 7.19,14.57 Z" fill="#131c1d" stroke="none" /><path d="M 13.37,13.88 L 13.37,15.15 L 14.38,15.65 L 14.38,14.38 Z" fill="#131c1d" stroke="none" /><path d="M 3.09,11.26 L 3.09,12.53 L 4.03,13.00 L 4.10,13.00 L 4.10,11.77 Z" fill="#131c1d" stroke="none" /><path d="M 0.00,7.19 L 0.00,8.46 L 1.02,8.97 L 1.02,7.70 Z" fill="#131c1d" stroke="none" /><path d="M 16.45,14.64 L 16.38,14.64 L 15.40,15.15 L 15.40,16.38 L 15.47,16.38 L 16.45,15.87 Z" fill="#151d1e" stroke="none" /><path d="M 19.51,13.11 L 19.43,13.11 L 18.49,13.58 L 18.49,14.86 L 19.51,14.35 Z" fill="#151d1e" stroke="none" /><path d="M 22.59,11.55 L 21.58,12.06 L 21.58,13.29 L 21.65,13.29 L 22.59,12.82 Z" fill="#151d1e" stroke="none" /><path d="M 25.68,10.02 L 25.61,10.02 L 24.66,10.50 L 24.66,11.77 L 25.68,11.26 Z" fill="#151d1e" stroke="none" /><path d="M 27.75,8.97 L 26.70,9.48 L 26.70,10.75 L 27.75,10.24 Z" fill="#151d1e" stroke="none" /><path d="M 17.47,26.70 L 17.40,26.70 L 16.45,27.17 L 16.45,28.44 L 16.53,28.44 L 17.47,27.97 Z" fill="#181d1e" stroke="none" /><path d="M 17.47,15.36 L 16.45,15.87 L 16.45,17.11 L 16.53,17.11 L 17.47,16.64 Z" fill="#18201e" stroke="none" /><path d="M 23.65,13.55 L 23.57,13.55 L 22.63,14.02 L 22.63,14.09 L 23.57,14.57 L 23.65,14.57 Z" fill="#18201e" stroke="none" /><path d="M 11.30,26.70 L 11.30,27.97 L 12.24,28.44 L 12.31,28.44 L 12.31,27.17 L 11.37,26.70 Z" fill="#18231f" stroke="none" /><path d="M 8.21,23.90 L 8.21,25.14 L 9.19,25.64 L 9.26,25.64 L 9.26,24.41 L 8.28,23.90 Z" fill="#18231f" stroke="none" /><path d="M 5.12,23.61 L 5.12,24.88 L 6.17,25.39 L 6.17,24.12 L 5.19,23.61 Z" fill="#18231f" stroke="none" /><path d="M 5.12,21.10 L 5.12,22.34 L 6.10,22.85 L 6.17,22.85 L 6.17,21.61 L 5.19,21.10 Z" fill="#18231f" stroke="none" /><path d="M 2.07,19.58 L 2.07,22.08 L 3.01,22.56 L 3.09,22.56 L 3.09,20.05 L 2.14,19.58 Z" fill="#18231f" stroke="none" /><path d="M 12.31,15.87 L 12.31,18.38 L 13.29,18.89 L 13.37,18.89 L 13.37,16.38 Z" fill="#161f20" stroke="none" /><path d="M 10.28,14.86 L 10.28,17.36 L 11.30,17.87 L 11.30,15.36 Z" fill="#161f20" stroke="none" /><path d="M 3.09,12.53 L 3.09,13.77 L 3.12,13.80 L 6.10,15.29 L 6.17,15.29 L 6.17,14.13 L 6.25,14.09 L 7.12,14.53 L 7.19,14.60 L 7.19,15.84 L 8.14,16.31 L 8.21,16.31 L 8.21,13.80 L 6.25,12.82 L 6.17,12.82 L 6.17,13.98 L 6.10,14.02 L 5.12,13.51 L 5.12,12.28 L 4.14,11.77 L 4.10,11.77 L 4.10,12.97 L 4.07,13.00 L 3.16,12.53 Z" fill="#161f20" stroke="none" /><path d="M 1.02,10.24 L 1.02,12.75 L 2.07,13.26 L 2.07,10.75 L 1.09,10.24 Z" fill="#161f20" stroke="none" /><path d="M 22.59,17.62 L 22.52,17.62 L 21.58,18.09 L 21.58,19.36 L 21.65,19.36 L 22.59,18.89 Z" fill="#585020" stroke="none" /><path d="M 17.47,16.64 L 17.40,16.64 L 16.45,17.11 L 16.45,18.38 L 17.47,17.87 Z" fill="#1e2724" stroke="none" /><path d="M 20.56,12.57 L 19.51,13.08 L 19.51,15.58 L 19.58,15.58 L 20.56,15.07 Z" fill="#1e2724" stroke="none" /><path d="M 23.65,12.28 L 22.59,12.79 L 22.59,14.06 L 23.65,13.55 Z" fill="#1e2724" stroke="none" /><path d="M 26.70,9.52 L 26.62,9.52 L 25.68,9.99 L 25.68,11.26 L 26.70,10.75 Z" fill="#1e2724" stroke="none" /><path d="M 20.56,20.12 L 20.56,21.36 L 20.63,21.36 L 21.58,20.89 L 21.58,20.63 L 21.54,20.59 Z" fill="#222a25" stroke="none" /><path d="M 20.56,25.14 L 19.51,25.64 L 19.51,26.91 L 19.58,26.91 L 20.56,26.41 Z" fill="#182a26" stroke="none" /><path d="M 23.65,23.61 L 23.57,23.61 L 22.59,24.12 L 22.59,25.39 L 23.65,24.88 Z" fill="#182a26" stroke="none" /><path d="M 20.56,18.85 L 19.51,19.36 L 19.51,20.63 L 20.56,20.12 Z" fill="#182a26" stroke="none" /><path d="M 1.05,6.65 L 1.05,6.72 L 2.00,7.19 L 1.93,7.26 L 1.09,7.66 L 1.05,7.74 L 13.33,13.88 L 13.40,13.88 L 14.35,13.40 L 14.35,13.33 L 2.18,7.26 L 2.11,7.19 L 14.35,1.05 L 14.42,1.05 L 26.66,7.19 L 26.59,7.26 L 14.42,13.33 L 14.42,13.40 L 15.36,13.88 L 15.44,13.88 L 27.71,7.74 L 27.68,7.66 L 26.84,7.26 L 26.77,7.19 L 27.71,6.72 L 27.71,6.65 L 15.44,0.51 L 14.42,1.02 L 14.35,1.02 L 13.33,0.51 Z" fill="#192327" stroke="none" /><path d="M 20.56,23.90 L 20.49,23.90 L 19.51,24.41 L 19.51,25.64 L 19.58,25.64 L 20.56,25.14 Z" fill="#273d2a" stroke="none" /><path d="M 23.65,22.34 L 22.59,22.85 L 22.59,24.12 L 23.65,23.61 Z" fill="#273d2a" stroke="none" /><path d="M 23.65,19.61 L 23.57,19.61 L 22.63,20.09 L 22.59,20.12 L 22.59,20.34 L 22.67,20.34 L 23.61,19.87 L 23.65,19.83 Z" fill="#273d2a" stroke="none" /><path d="M 20.56,21.39 L 20.49,21.39 L 19.51,21.90 L 19.51,24.41 L 20.56,23.90 Z" fill="#2e482a" stroke="none" /><path d="M 23.65,19.83 L 22.59,20.34 L 22.59,22.85 L 22.67,22.85 L 23.65,22.34 Z" fill="#2e482a" stroke="none" /><path d="M 20.56,15.11 L 20.56,16.35 L 21.58,16.85 L 21.58,15.58 L 20.63,15.11 Z" fill="#94862b" stroke="none" /><path d="M 13.40,13.84 L 13.40,13.91 L 14.35,14.38 L 14.42,14.38 L 15.36,13.91 L 15.36,13.84 L 14.42,13.37 L 14.35,13.37 Z" fill="#1e2b2d" stroke="none" /><path d="M 26.73,7.19 L 26.73,7.23 L 27.68,7.70 L 27.79,7.70 L 28.73,7.23 L 28.73,7.16 L 27.79,6.68 L 27.71,6.68 Z" fill="#1e2b2d" stroke="none" /><path d="M 0.04,7.16 L 0.04,7.23 L 0.98,7.70 L 1.09,7.70 L 2.03,7.23 L 2.00,7.16 L 1.05,6.68 L 0.98,6.68 Z" fill="#1e2b2d" stroke="none" /><path d="M 13.37,0.51 L 13.37,0.54 L 14.31,1.02 L 14.46,1.02 L 15.40,0.54 L 15.36,0.47 L 14.42,0.00 L 14.35,0.00 Z" fill="#1e2b2d" stroke="none" /><path d="M 9.26,13.11 L 9.26,14.35 L 10.28,14.86 L 10.28,13.58 L 9.33,13.11 Z" fill="#1f2b2e" stroke="none" /><path d="M 6.17,11.55 L 6.17,12.82 L 7.12,13.29 L 7.19,13.29 L 7.19,12.06 Z" fill="#1f2b2e" stroke="none" /><path d="M 3.09,10.02 L 3.09,11.26 L 4.10,11.77 L 4.10,10.50 L 3.16,10.02 Z" fill="#1f2b2e" stroke="none" /><path d="M 22.59,16.35 L 21.58,16.85 L 21.58,18.09 L 21.65,18.09 L 22.59,17.62 Z" fill="#5b552f" stroke="none" /><path d="M 12.31,14.64 L 12.31,15.87 L 13.29,16.38 L 13.37,16.38 L 13.37,15.15 L 12.39,14.64 Z" fill="#212f30" stroke="none" /><path d="M 10.28,13.62 L 10.28,14.86 L 11.30,15.36 L 11.30,14.09 L 10.35,13.62 Z" fill="#212f30" stroke="none" /><path d="M 7.19,12.06 L 7.19,13.33 L 8.14,13.80 L 8.21,13.80 L 8.21,12.57 Z" fill="#212f30" stroke="none" /><path d="M 4.10,10.53 L 4.10,11.77 L 5.12,12.28 L 5.12,11.01 L 4.18,10.53 Z" fill="#212f30" stroke="none" /><path d="M 1.02,8.97 L 1.02,10.24 L 2.07,10.75 L 2.07,9.48 Z" fill="#212f30" stroke="none" /><path d="M 11.30,25.43 L 11.30,26.70 L 12.24,27.17 L 12.31,27.17 L 12.31,25.93 Z" fill="#282f30" stroke="none" /><path d="M 8.21,25.14 L 8.21,26.41 L 9.19,26.91 L 9.26,26.91 L 9.26,25.64 Z" fill="#282f30" stroke="none" /><path d="M 5.12,22.34 L 5.12,23.61 L 6.17,24.12 L 6.17,22.85 Z" fill="#282f30" stroke="none" /><path d="M 17.47,14.13 L 17.40,14.13 L 16.45,14.60 L 16.45,15.87 L 17.47,15.36 Z" fill="#2c3730" stroke="none" /><path d="M 23.65,11.04 L 23.57,11.04 L 22.59,11.55 L 22.59,12.79 L 22.67,12.79 L 23.65,12.28 Z" fill="#2c3730" stroke="none" /><path d="M 8.21,13.84 L 8.21,15.07 L 9.19,15.58 L 9.26,15.58 L 9.26,14.35 L 8.28,13.84 Z" fill="#283531" stroke="none" /><path d="M 13.37,12.82 L 13.40,12.89 L 14.35,13.37 L 14.42,13.37 L 15.40,12.86 L 15.40,12.82 L 14.46,12.35 L 14.31,12.35 Z" fill="#273638" stroke="none" /><path d="M 11.30,11.80 L 11.30,11.84 L 12.31,12.35 L 13.37,11.84 L 13.37,11.80 L 12.35,11.30 Z" fill="#273638" stroke="none" /><path d="M 18.52,10.24 L 18.52,10.32 L 19.47,10.79 L 19.58,10.79 L 20.52,10.32 L 20.52,10.24 L 19.58,9.77 L 19.47,9.77 Z" fill="#273638" stroke="none" /><path d="M 17.43,9.77 L 16.49,10.24 L 16.49,10.32 L 17.43,10.79 L 16.49,11.26 L 16.45,11.33 L 17.40,11.80 L 17.54,11.80 L 18.49,11.33 L 18.45,11.26 L 17.51,10.79 L 18.45,10.32 L 18.45,10.24 L 17.51,9.77 Z" fill="#273638" stroke="none" /><path d="M 8.25,10.24 L 8.25,10.32 L 9.19,10.79 L 9.30,10.79 L 10.24,10.32 L 10.24,10.24 L 9.30,9.77 L 9.19,9.77 Z" fill="#273638" stroke="none" /><path d="M 5.16,8.72 L 5.19,8.79 L 6.14,9.26 L 7.16,8.75 L 7.23,8.75 L 8.25,9.26 L 9.23,8.75 L 9.23,8.72 L 8.28,8.25 L 8.14,8.25 L 7.23,8.72 L 7.16,8.72 L 6.25,8.25 L 6.10,8.25 Z" fill="#273638" stroke="none" /><path d="M 24.70,7.16 L 24.70,7.23 L 25.64,7.70 L 25.75,7.70 L 26.70,7.23 L 26.66,7.16 L 25.72,6.68 L 25.64,6.68 Z" fill="#273638" stroke="none" /><path d="M 2.07,7.19 L 2.07,7.23 L 3.01,7.70 L 3.12,7.70 L 4.07,7.23 L 4.07,7.16 L 3.12,6.68 L 3.05,6.68 Z" fill="#273638" stroke="none" /><path d="M 23.68,5.67 L 23.57,5.67 L 22.63,6.14 L 22.67,6.21 L 23.57,6.65 L 23.61,6.68 L 23.57,6.72 L 21.58,7.70 L 21.58,7.74 L 22.52,8.21 L 22.48,8.28 L 21.58,8.72 L 21.58,8.75 L 22.59,9.26 L 24.66,8.25 L 24.66,8.21 L 23.75,7.77 L 23.68,7.70 L 24.63,7.23 L 24.63,7.16 L 23.68,6.68 L 24.63,6.21 L 24.63,6.14 Z" fill="#273638" stroke="none" /><path d="M 5.09,5.67 L 4.14,6.14 L 4.14,6.21 L 5.09,6.68 L 4.14,7.16 L 4.14,7.23 L 5.09,7.70 L 5.19,7.70 L 6.14,7.23 L 6.10,7.16 L 5.16,6.68 L 6.10,6.21 L 6.14,6.14 L 5.19,5.67 Z" fill="#273638" stroke="none" /><path d="M 19.54,4.61 L 19.54,4.65 L 20.49,5.12 L 20.63,5.12 L 21.58,4.65 L 21.58,4.61 L 20.56,4.10 Z" fill="#273638" stroke="none" /><path d="M 7.19,4.61 L 7.19,4.65 L 8.14,5.12 L 8.28,5.12 L 9.19,4.65 L 9.30,4.65 L 10.21,5.12 L 10.35,5.12 L 11.30,4.65 L 11.30,4.61 L 10.28,4.10 L 9.26,4.61 L 8.25,4.10 Z" fill="#273638" stroke="none" /><path d="M 15.44,2.54 L 15.47,2.62 L 16.42,3.09 L 15.47,3.56 L 15.44,3.63 L 17.40,4.61 L 17.54,4.61 L 18.49,4.14 L 18.45,4.07 L 17.51,3.60 L 18.45,3.12 L 18.45,3.05 L 16.49,2.07 L 16.38,2.07 Z" fill="#273638" stroke="none" /><path d="M 13.33,2.54 L 12.39,2.07 L 12.28,2.07 L 10.32,3.05 L 10.32,3.12 L 11.26,3.60 L 11.33,3.60 L 13.29,2.62 Z" fill="#273638" stroke="none" /><path d="M 13.37,1.53 L 13.37,1.56 L 14.31,2.03 L 14.46,2.03 L 15.40,1.56 L 15.40,1.53 L 14.46,1.05 L 14.31,1.05 Z" fill="#273638" stroke="none" /><path d="M 11.30,15.36 L 11.30,17.87 L 12.31,18.38 L 12.31,15.87 Z" fill="#30403b" stroke="none" /><path d="M 8.21,15.07 L 8.21,16.35 L 9.26,16.85 L 9.26,15.58 Z" fill="#30403b" stroke="none" /><path d="M 5.12,12.28 L 5.12,13.55 L 6.17,14.06 L 6.17,12.79 Z" fill="#30403b" stroke="none" /><path d="M 2.07,10.75 L 2.07,13.26 L 3.09,13.77 L 3.09,11.26 Z" fill="#30403b" stroke="none" /><path d="M 17.51,9.73 L 17.51,9.81 L 18.45,10.28 L 18.52,10.28 L 19.51,9.77 L 20.52,10.28 L 20.59,10.28 L 21.54,9.81 L 21.54,9.73 L 20.59,9.26 L 20.49,9.26 L 19.58,9.73 L 19.47,9.73 L 18.56,9.26 L 18.45,9.26 Z" fill="#2b3d3f" stroke="none" /><path d="M 7.23,9.73 L 7.23,9.81 L 8.17,10.28 L 8.25,10.28 L 9.23,9.77 L 9.23,9.73 L 8.28,9.26 L 8.17,9.26 Z" fill="#2b3d3f" stroke="none" /><path d="M 4.10,8.21 L 4.10,8.25 L 5.12,8.75 L 6.17,8.25 L 6.17,8.21 L 5.16,7.70 Z" fill="#2b3d3f" stroke="none" /><path d="M 23.61,5.63 L 22.67,5.16 L 22.52,5.16 L 21.61,5.63 L 21.54,5.63 L 20.63,5.16 L 20.49,5.16 L 19.58,5.63 L 19.47,5.63 L 18.60,5.19 L 18.56,5.12 L 20.52,4.14 L 20.49,4.07 L 19.51,3.60 L 17.47,4.61 L 17.47,4.65 L 18.38,5.09 L 18.42,5.16 L 16.49,6.14 L 16.38,6.14 L 15.47,5.67 L 15.36,5.67 L 14.38,6.17 L 13.40,5.67 L 13.29,5.67 L 12.35,6.14 L 12.39,6.21 L 13.33,6.68 L 11.33,7.70 L 11.33,7.74 L 12.24,8.17 L 12.28,8.21 L 12.20,8.28 L 11.33,8.72 L 11.26,8.72 L 10.35,8.25 L 10.21,8.25 L 9.26,8.72 L 9.26,8.75 L 11.26,9.77 L 10.32,10.24 L 10.32,10.32 L 11.26,10.79 L 10.32,11.26 L 10.28,11.33 L 11.22,11.80 L 11.37,11.80 L 12.31,11.33 L 12.31,11.30 L 11.33,10.79 L 12.28,10.32 L 12.28,10.24 L 11.33,9.77 L 13.37,8.75 L 13.37,8.72 L 12.46,8.28 L 12.39,8.21 L 15.40,6.68 L 16.38,7.19 L 16.31,7.26 L 15.44,7.70 L 15.44,7.74 L 16.38,8.21 L 16.31,8.28 L 13.37,9.73 L 13.37,9.77 L 14.35,10.28 L 14.42,10.28 L 15.40,9.77 L 16.38,10.24 L 16.42,10.28 L 16.38,10.32 L 15.44,10.79 L 15.44,10.82 L 16.38,11.30 L 16.31,11.37 L 15.44,11.80 L 15.36,11.80 L 14.46,11.33 L 14.31,11.33 L 13.37,11.80 L 13.37,11.84 L 14.31,12.31 L 14.46,12.31 L 15.36,11.84 L 15.44,11.84 L 16.45,12.35 L 17.47,11.84 L 17.47,11.80 L 16.56,11.37 L 16.49,11.30 L 17.43,10.82 L 17.43,10.75 L 16.49,10.28 L 17.43,9.81 L 17.43,9.73 L 16.49,9.26 L 16.56,9.19 L 18.49,8.25 L 18.49,8.21 L 17.58,7.77 L 17.51,7.70 L 18.45,7.23 L 18.45,7.16 L 17.54,6.72 L 17.51,6.68 L 17.54,6.65 L 18.49,6.17 L 19.47,6.68 L 19.54,6.68 L 20.56,6.17 L 22.56,7.19 L 22.67,7.19 L 23.61,6.72 L 23.61,6.65 L 22.67,6.17 L 22.74,6.10 L 23.57,5.70 Z" fill="#2b3d3f" stroke="none" /><path d="M 12.31,4.10 L 11.33,3.60 L 11.26,3.60 L 10.28,4.10 L 9.23,3.60 L 8.25,4.10 L 8.25,4.14 L 9.15,4.58 L 9.19,4.61 L 9.12,4.69 L 7.23,5.63 L 7.16,5.63 L 6.25,5.16 L 6.10,5.16 L 5.16,5.63 L 5.16,5.67 L 6.14,6.17 L 7.16,5.67 L 7.23,5.67 L 8.21,6.17 L 9.23,5.67 L 10.24,6.17 L 10.32,6.17 L 11.26,5.70 L 11.30,5.63 L 9.37,4.69 L 9.30,4.61 L 10.21,4.14 L 10.32,4.14 L 11.22,4.61 L 11.37,4.61 L 12.31,4.14 Z" fill="#2b3d3f" stroke="none" /><path d="M 13.37,2.54 L 13.40,2.62 L 15.36,3.60 L 15.47,3.60 L 16.42,3.12 L 16.42,3.05 L 14.46,2.07 L 14.31,2.07 Z" fill="#2b3d3f" stroke="none" /><path d="M 8.21,12.57 L 8.21,13.84 L 9.26,14.35 L 9.26,13.08 Z" fill="#39483f" stroke="none" /><path d="M 2.07,9.52 L 2.07,10.75 L 3.09,11.26 L 3.09,9.99 L 2.14,9.52 Z" fill="#39483f" stroke="none" /><path d="M 21.61,14.53 L 21.61,14.60 L 22.56,15.07 L 22.67,15.07 L 23.61,14.60 L 23.57,14.53 L 22.63,14.06 L 22.56,14.06 Z" fill="#e4cf42" stroke="none" /><path d="M 11.33,9.73 L 11.33,9.81 L 12.28,10.28 L 11.33,10.75 L 11.33,10.82 L 13.29,11.80 L 13.44,11.80 L 14.35,11.33 L 14.42,11.33 L 15.33,11.80 L 15.47,11.80 L 16.42,11.33 L 16.38,11.26 L 15.44,10.79 L 14.42,11.30 L 14.35,11.30 L 12.39,10.32 L 12.35,10.28 L 12.39,10.24 L 13.33,9.77 L 13.33,9.73 L 12.39,9.26 L 12.28,9.26 Z" fill="#2f4246" stroke="none" /><path d="M 16.45,9.23 L 16.49,9.30 L 17.43,9.77 L 17.51,9.77 L 18.49,9.26 L 19.54,9.77 L 20.52,9.26 L 20.52,9.23 L 19.58,8.75 L 19.47,8.75 L 18.56,9.23 L 18.45,9.23 L 17.54,8.75 L 17.40,8.75 Z" fill="#2f4246" stroke="none" /><path d="M 19.54,6.65 L 19.54,6.72 L 21.50,7.70 L 21.47,7.77 L 20.56,8.21 L 20.56,8.25 L 21.50,8.72 L 21.65,8.72 L 22.59,8.25 L 22.59,8.21 L 21.65,7.74 L 21.68,7.66 L 22.59,7.23 L 22.56,7.16 L 20.59,6.17 L 20.49,6.17 Z" fill="#2f4246" stroke="none" /><path d="M 18.45,6.17 L 17.51,6.65 L 17.51,6.72 L 18.45,7.19 L 17.51,7.66 L 17.47,7.74 L 18.42,8.21 L 18.56,8.21 L 19.51,7.74 L 19.47,7.66 L 18.52,7.19 L 19.47,6.72 L 19.47,6.65 L 18.52,6.17 Z" fill="#2f4246" stroke="none" /><path d="M 16.42,7.19 L 15.44,6.68 L 15.36,6.68 L 12.35,8.21 L 11.44,7.77 L 11.37,7.70 L 11.41,7.66 L 13.33,6.72 L 13.33,6.65 L 11.37,5.67 L 11.44,5.59 L 12.31,5.16 L 12.31,5.12 L 11.37,4.65 L 11.22,4.65 L 10.28,5.12 L 10.28,5.16 L 11.19,5.59 L 11.26,5.67 L 10.32,6.14 L 10.32,6.21 L 11.26,6.68 L 10.32,7.16 L 10.32,7.23 L 11.26,7.70 L 11.19,7.77 L 10.32,8.21 L 10.24,8.21 L 9.26,7.70 L 8.25,8.21 L 8.17,8.21 L 6.28,7.26 L 6.21,7.19 L 7.19,6.68 L 8.17,7.19 L 8.28,7.19 L 10.24,6.21 L 10.24,6.14 L 9.30,5.67 L 9.19,5.67 L 8.28,6.14 L 8.17,6.14 L 7.26,5.67 L 7.12,5.67 L 5.16,6.65 L 5.16,6.72 L 6.10,7.19 L 6.03,7.26 L 5.19,7.66 L 5.16,7.74 L 7.12,8.72 L 7.26,8.72 L 8.17,8.25 L 8.25,8.25 L 9.12,8.68 L 9.19,8.75 L 8.25,9.23 L 8.25,9.26 L 10.24,10.28 L 10.32,10.28 L 11.26,9.81 L 11.26,9.73 L 9.33,8.79 L 9.30,8.75 L 9.37,8.68 L 10.24,8.25 L 10.32,8.25 L 11.22,8.72 L 11.37,8.72 L 12.28,8.25 L 12.39,8.25 L 14.31,9.23 L 14.46,9.23 L 16.42,8.25 L 16.38,8.17 L 15.55,7.77 L 15.47,7.70 L 16.42,7.23 Z" fill="#2f4246" stroke="none" /><path d="M 13.37,5.67 L 14.35,6.17 L 14.42,6.17 L 15.40,5.67 L 16.45,6.17 L 18.45,5.16 L 18.52,5.16 L 19.54,5.67 L 20.56,5.16 L 20.56,5.12 L 19.54,4.61 L 18.52,5.12 L 18.45,5.12 L 16.42,4.10 L 15.40,4.61 L 15.40,4.65 L 16.31,5.09 L 16.38,5.16 L 16.35,5.19 L 15.47,5.63 L 15.36,5.63 L 14.46,5.16 L 14.31,5.16 L 13.37,5.63 Z" fill="#2f4246" stroke="none" /><path d="M 14.35,3.05 L 13.40,2.58 L 13.29,2.58 L 11.33,3.56 L 11.33,3.63 L 12.28,4.10 L 12.39,4.10 L 14.35,3.12 Z" fill="#2f4246" stroke="none" /><path d="M 22.59,15.11 L 22.52,15.11 L 21.58,15.58 L 21.58,16.85 L 22.59,16.35 Z" fill="#635f48" stroke="none" /><path d="M 12.35,9.23 L 12.39,9.30 L 13.22,9.70 L 13.29,9.77 L 12.35,10.24 L 12.35,10.32 L 14.31,11.30 L 14.46,11.30 L 16.42,10.32 L 16.42,10.24 L 15.47,9.77 L 15.36,9.77 L 14.38,10.28 L 13.44,9.81 L 13.40,9.77 L 13.48,9.70 L 14.38,9.26 L 14.38,9.23 L 13.44,8.75 L 13.29,8.75 Z" fill="#33484a" stroke="none" /><path d="M 17.47,8.72 L 17.47,8.75 L 18.49,9.26 L 19.51,8.75 L 20.56,9.26 L 21.58,8.75 L 21.58,8.72 L 20.63,8.25 L 20.67,8.17 L 21.58,7.74 L 21.58,7.70 L 19.54,6.68 L 19.47,6.68 L 18.52,7.16 L 18.52,7.23 L 19.47,7.70 L 19.40,7.77 Z" fill="#33484a" stroke="none" /><path d="M 11.30,7.74 L 11.26,7.66 L 10.32,7.19 L 11.26,6.72 L 11.26,6.65 L 10.32,6.17 L 10.24,6.17 L 8.25,7.19 L 7.23,6.68 L 7.16,6.68 L 6.17,7.19 L 6.17,7.23 L 8.14,8.21 L 8.28,8.21 L 9.19,7.74 L 9.30,7.74 L 10.21,8.21 L 10.35,8.21 Z" fill="#33484a" stroke="none" /><path d="M 16.42,4.10 L 14.42,3.09 L 14.35,3.09 L 11.30,4.61 L 11.30,4.65 L 12.20,5.09 L 12.28,5.16 L 11.33,5.63 L 11.33,5.67 L 12.31,6.17 L 14.35,5.16 L 14.42,5.16 L 15.44,5.67 L 16.42,5.16 L 16.42,5.12 L 15.47,4.65 L 15.51,4.58 L 16.42,4.14 Z" fill="#33484a" stroke="none" /><path d="M 12.35,12.31 L 12.39,12.39 L 13.33,12.86 L 14.38,12.35 L 14.38,12.31 L 13.44,11.84 L 13.29,11.84 Z" fill="#3d514b" stroke="none" /><path d="M 17.51,10.75 L 17.51,10.82 L 18.45,11.30 L 18.56,11.30 L 19.51,10.82 L 19.47,10.75 L 18.52,10.28 L 18.45,10.28 Z" fill="#3d514b" stroke="none" /><path d="M 6.17,9.23 L 6.21,9.30 L 7.16,9.77 L 7.23,9.77 L 8.21,9.26 L 8.21,9.23 L 7.26,8.75 L 7.12,8.75 Z" fill="#3d514b" stroke="none" /><path d="M 20.56,5.12 L 20.56,5.16 L 21.50,5.63 L 21.65,5.63 L 22.59,5.16 L 22.59,5.12 L 21.65,4.65 L 21.50,4.65 Z" fill="#3d514b" stroke="none" /><path d="M 9.26,3.60 L 9.26,3.63 L 10.21,4.10 L 10.32,4.10 L 11.26,3.63 L 11.26,3.56 L 10.32,3.09 L 10.24,3.09 Z" fill="#3d514b" stroke="none" /><path d="M 14.38,2.03 L 14.38,2.07 L 15.40,2.58 L 16.42,2.07 L 16.42,2.03 L 15.47,1.56 L 15.33,1.56 Z" fill="#3d514b" stroke="none" /><path d="M 11.30,14.13 L 11.30,15.36 L 12.31,15.87 L 12.31,14.60 L 11.37,14.13 Z" fill="#47584e" stroke="none" /><path d="M 5.12,11.04 L 5.12,12.28 L 6.10,12.79 L 6.17,12.79 L 6.17,11.55 L 5.19,11.04 Z" fill="#47584e" stroke="none" /><path d="M 20.56,20.12 L 20.49,20.12 L 19.51,20.63 L 19.51,21.90 L 20.56,21.39 Z" fill="#506457" stroke="none" /><path d="M 14.38,12.31 L 14.38,12.35 L 15.40,12.86 L 16.42,12.35 L 16.42,12.31 L 15.47,11.84 L 15.33,11.84 Z" fill="#4a635b" stroke="none" /><path d="M 3.09,7.70 L 3.09,7.74 L 4.03,8.21 L 4.18,8.21 L 5.12,7.74 L 5.09,7.66 L 4.14,7.19 L 4.07,7.19 Z" fill="#4a635b" stroke="none" /><path d="M 23.68,6.65 L 23.68,6.72 L 24.63,7.19 L 24.70,7.19 L 25.64,6.72 L 25.64,6.65 L 24.70,6.17 L 24.63,6.17 Z" fill="#4a635b" stroke="none" /><path d="M 12.35,2.03 L 12.39,2.11 L 13.33,2.58 L 14.38,2.07 L 14.38,2.03 L 13.44,1.56 L 13.29,1.56 Z" fill="#4a635b" stroke="none" /><path d="M 9.26,10.79 L 9.26,10.82 L 10.21,11.30 L 10.32,11.30 L 11.26,10.82 L 11.26,10.75 L 10.32,10.28 L 10.24,10.28 Z" fill="#587062" stroke="none" /><path d="M 20.56,9.23 L 20.59,9.30 L 21.54,9.77 L 21.61,9.77 L 22.59,9.26 L 22.59,9.23 L 21.65,8.75 L 21.50,8.75 Z" fill="#587062" stroke="none" /><path d="M 23.65,7.70 L 23.65,7.74 L 24.59,8.21 L 24.74,8.21 L 25.68,7.74 L 25.64,7.66 L 24.70,7.19 L 24.63,7.19 Z" fill="#587062" stroke="none" /><path d="M 3.12,6.65 L 3.12,6.72 L 4.07,7.19 L 4.14,7.19 L 5.09,6.72 L 5.09,6.65 L 4.14,6.17 L 4.07,6.17 Z" fill="#587062" stroke="none" /><path d="M 6.17,5.12 L 6.17,5.16 L 7.12,5.63 L 7.26,5.63 L 8.21,5.16 L 8.21,5.12 L 7.26,4.65 L 7.12,4.65 Z" fill="#587062" stroke="none" /><path d="M 17.51,3.56 L 17.51,3.63 L 18.45,4.10 L 18.56,4.10 L 19.51,3.63 L 19.47,3.56 L 18.52,3.09 L 18.45,3.09 Z" fill="#587062" stroke="none" /><path d="M 20.56,15.07 L 20.56,15.11 L 21.50,15.58 L 21.65,15.58 L 22.59,15.11 L 22.56,15.04 L 21.61,14.57 L 21.54,14.57 Z" fill="#f7eeb3" stroke="none" /></svg>