<svg height="32" width="32" viewBox="0 0 32 32"><defs /><path d="M 15.27,30.50 L 14.41,30.92 L 14.41,32.00 L 14.47,32.00 L 15.27,31.59 Z" fill="#43402e" stroke="none" /><path d="M 24.33,25.99 L 24.27,25.99 L 22.58,26.85 L 22.52,26.82 L 22.52,25.77 L 21.60,26.21 L 21.60,27.32 L 20.71,27.77 L 20.71,28.85 L 20.77,28.85 L 24.33,27.07 Z" fill="#43402e" stroke="none" /><path d="M 28.82,23.73 L 26.18,25.03 L 26.15,25.07 L 26.15,26.15 L 28.79,24.84 L 28.82,24.81 Z" fill="#43402e" stroke="none" /><path d="M 22.52,19.15 L 21.60,19.59 L 21.60,20.68 L 21.66,20.68 L 22.52,20.23 Z" fill="#43402e" stroke="none" /><path d="M 8.08,18.10 L 8.02,18.10 L 7.22,18.51 L 7.22,19.59 L 8.08,19.18 Z" fill="#43402e" stroke="none" /><path d="M 16.22,14.03 L 16.16,14.03 L 12.60,15.81 L 12.60,16.89 L 12.66,16.89 L 16.22,15.11 Z" fill="#43402e" stroke="none" /><path d="M 21.60,10.21 L 20.74,10.62 L 20.74,11.74 L 19.85,12.18 L 19.85,13.26 L 19.91,13.26 L 21.60,12.41 Z" fill="#43402e" stroke="none" /><path d="M 21.60,3.59 L 20.74,4.01 L 20.74,5.09 L 20.80,5.09 L 21.60,4.68 Z" fill="#43402e" stroke="none" /><path d="M 17.08,29.61 L 17.02,29.61 L 15.27,30.50 L 15.27,31.59 L 17.08,30.70 Z" fill="#4d4a36" stroke="none" /><path d="M 26.15,25.07 L 24.33,25.96 L 24.33,27.04 L 24.40,27.04 L 26.15,26.15 Z" fill="#4d4a36" stroke="none" /><path d="M 23.41,25.32 L 22.55,25.73 L 22.52,25.70 L 22.52,24.65 L 21.60,25.10 L 21.60,26.21 L 20.71,26.66 L 20.71,27.77 L 18.89,28.69 L 18.89,29.77 L 20.71,28.88 L 20.71,27.80 L 21.60,27.36 L 21.60,26.24 L 21.63,26.21 L 22.49,25.80 L 22.52,25.83 L 22.52,26.88 L 23.38,26.47 L 23.41,26.43 Z" fill="#4d4a36" stroke="none" /><path d="M 23.41,18.70 L 22.52,19.15 L 22.52,20.20 L 22.46,20.26 L 21.63,20.68 L 21.60,20.64 L 21.60,19.63 L 21.53,19.63 L 20.71,20.04 L 20.71,21.12 L 20.77,21.12 L 21.57,20.71 L 21.60,20.74 L 21.60,22.90 L 22.52,22.46 L 22.52,20.26 L 22.58,20.20 L 23.41,19.79 Z" fill="#4d4a36" stroke="none" /><path d="M 8.02,16.99 L 7.22,17.40 L 7.22,18.51 L 8.05,18.10 L 8.08,18.13 L 8.08,19.15 L 8.14,19.15 L 8.97,18.74 L 8.97,17.65 L 8.91,17.65 L 8.11,18.07 L 8.08,18.04 L 8.08,16.99 Z" fill="#4d4a36" stroke="none" /><path d="M 12.60,15.84 L 12.53,15.84 L 9.92,17.15 L 9.89,17.18 L 9.89,18.26 L 12.60,16.92 Z" fill="#4d4a36" stroke="none" /><path d="M 18.04,13.11 L 16.22,14.00 L 16.22,15.08 L 16.29,15.08 L 18.04,14.19 Z" fill="#4d4a36" stroke="none" /><path d="M 8.08,10.37 L 8.02,10.37 L 7.22,10.78 L 7.22,11.86 L 8.08,11.45 Z" fill="#4d4a36" stroke="none" /><path d="M 21.60,8.02 L 21.53,8.02 L 20.74,8.43 L 20.74,10.62 L 19.85,11.07 L 19.85,12.18 L 18.93,12.66 L 18.93,13.74 L 19.85,13.30 L 19.85,12.21 L 20.74,11.77 L 20.74,10.66 L 21.60,10.21 Z" fill="#4d4a36" stroke="none" /><path d="M 20.74,4.04 L 20.68,4.04 L 19.85,4.45 L 19.85,5.53 L 19.91,5.53 L 20.74,5.12 Z" fill="#4d4a36" stroke="none" /><path d="M 18.89,28.69 L 17.08,29.58 L 17.08,30.66 L 17.15,30.66 L 18.89,29.77 Z" fill="#51513b" stroke="none" /><path d="M 22.52,22.46 L 22.46,22.46 L 21.60,22.90 L 21.60,25.10 L 21.66,25.10 L 22.52,24.65 Z" fill="#51513b" stroke="none" /><path d="M 9.89,17.18 L 8.97,17.62 L 8.97,18.70 L 9.03,18.70 L 9.89,18.26 Z" fill="#51513b" stroke="none" /><path d="M 18.93,12.66 L 18.04,13.11 L 18.04,14.19 L 18.93,13.74 Z" fill="#51513b" stroke="none" /><path d="M 21.60,4.68 L 20.74,5.09 L 20.74,8.43 L 21.60,8.02 Z" fill="#51513b" stroke="none" /><path d="M 15.27,28.28 L 14.41,28.69 L 14.41,29.81 L 14.47,29.81 L 15.27,29.39 Z" fill="#55553b" stroke="none" /><path d="M 21.60,24.02 L 20.71,24.46 L 20.71,26.66 L 20.68,26.69 L 18.00,28.02 L 17.97,27.99 L 17.97,26.94 L 19.79,26.02 L 19.79,24.94 L 19.72,24.94 L 17.97,25.83 L 17.97,26.91 L 17.08,27.36 L 17.08,28.47 L 16.19,28.91 L 16.19,30.03 L 16.25,30.03 L 20.71,27.80 L 20.71,26.69 L 21.60,26.24 Z" fill="#55553b" stroke="none" /><path d="M 28.82,21.50 L 27.07,22.36 L 27.04,22.39 L 27.04,23.48 L 26.97,23.54 L 25.26,24.40 L 25.22,24.37 L 25.22,23.32 L 26.15,22.84 L 26.15,21.76 L 26.08,21.76 L 25.26,22.17 L 25.22,22.20 L 25.22,23.28 L 24.33,23.73 L 24.33,24.84 L 23.41,25.32 L 23.41,26.43 L 28.79,23.76 L 28.82,23.73 Z" fill="#55553b" stroke="none" /><path d="M 9.89,12.76 L 9.83,12.76 L 8.97,13.20 L 8.97,14.31 L 9.89,13.87 Z" fill="#55553b" stroke="none" /><path d="M 15.30,12.28 L 15.24,12.28 L 13.52,13.14 L 13.52,14.22 L 13.46,14.28 L 9.00,16.51 L 8.97,16.48 L 8.97,15.43 L 8.11,15.84 L 8.08,15.87 L 8.08,18.07 L 8.14,18.07 L 14.38,14.95 L 14.41,14.92 L 14.41,13.84 L 14.47,13.77 L 15.30,13.36 Z" fill="#55553b" stroke="none" /><path d="M 19.85,11.10 L 19.79,11.10 L 16.22,12.88 L 16.22,14.00 L 16.29,14.00 L 19.85,12.21 Z" fill="#55553b" stroke="none" /><path d="M 18.89,26.47 L 18.00,26.91 L 17.97,26.88 L 17.97,25.83 L 17.94,25.83 L 17.08,26.27 L 17.08,27.36 L 17.05,27.39 L 15.30,28.25 L 15.27,28.21 L 15.27,27.20 L 16.19,26.72 L 16.19,25.61 L 15.27,26.05 L 15.27,27.17 L 14.41,27.61 L 14.41,28.69 L 14.47,28.69 L 15.20,28.31 L 15.27,28.34 L 15.27,29.36 L 15.20,29.42 L 14.41,29.81 L 14.41,30.92 L 14.47,30.92 L 16.19,30.06 L 16.19,28.95 L 17.08,28.50 L 17.08,27.39 L 17.11,27.36 L 17.94,26.94 L 17.97,26.97 L 17.97,28.02 L 18.04,28.02 L 18.86,27.61 L 18.89,27.58 Z" fill="#575a41" stroke="none" /><path d="M 18.89,23.16 L 18.83,23.16 L 17.97,23.60 L 17.97,24.72 L 18.89,24.27 Z" fill="#575a41" stroke="none" /><path d="M 21.60,22.90 L 19.79,23.79 L 19.79,26.02 L 20.71,25.57 L 20.71,24.49 L 20.77,24.43 L 21.60,24.02 Z" fill="#575a41" stroke="none" /><path d="M 25.22,21.09 L 23.41,21.98 L 23.41,23.09 L 22.52,23.54 L 22.52,25.77 L 24.33,24.87 L 24.33,22.68 L 24.40,22.62 L 25.22,22.20 Z" fill="#575a41" stroke="none" /><path d="M 21.60,20.71 L 21.53,20.71 L 20.71,21.12 L 20.71,22.23 L 21.60,21.79 Z" fill="#575a41" stroke="none" /><path d="M 23.41,19.79 L 22.52,20.23 L 22.52,21.31 L 22.58,21.31 L 23.41,20.90 Z" fill="#575a41" stroke="none" /><path d="M 28.82,19.31 L 28.76,19.31 L 27.93,19.72 L 27.93,20.83 L 27.04,21.28 L 27.04,22.36 L 26.97,22.43 L 25.22,23.28 L 25.22,24.40 L 25.29,24.40 L 27.01,23.54 L 27.04,23.51 L 27.04,22.43 L 27.10,22.36 L 28.82,21.50 Z" fill="#575a41" stroke="none" /><path d="M 8.08,11.45 L 8.02,11.45 L 7.22,11.86 L 7.22,12.95 L 7.28,12.95 L 8.08,12.53 Z" fill="#575a41" stroke="none" /><path d="M 15.30,7.83 L 14.41,8.27 L 14.41,9.35 L 14.47,9.35 L 15.30,8.94 Z" fill="#575a41" stroke="none" /><path d="M 20.74,5.12 L 20.68,5.12 L 19.85,5.53 L 19.85,6.62 L 19.79,6.68 L 18.93,7.09 L 18.93,8.21 L 18.99,8.21 L 19.82,7.79 L 19.85,7.83 L 19.85,8.84 L 19.79,8.91 L 18.93,9.32 L 18.93,10.43 L 18.89,10.47 L 16.25,11.77 L 16.22,11.74 L 16.22,10.69 L 15.33,11.13 L 15.30,11.10 L 15.30,10.05 L 15.24,10.05 L 13.52,10.91 L 13.52,12.02 L 12.66,12.47 L 12.60,12.44 L 12.60,11.39 L 9.92,12.72 L 9.89,12.69 L 9.89,11.64 L 9.83,11.64 L 9.00,12.06 L 8.97,12.09 L 8.97,13.17 L 8.91,13.23 L 8.08,13.65 L 8.08,14.73 L 8.02,14.79 L 7.22,15.17 L 7.22,17.40 L 8.08,16.99 L 8.08,15.90 L 8.14,15.84 L 8.94,15.46 L 8.97,15.49 L 8.97,16.51 L 9.03,16.51 L 9.89,16.06 L 9.89,14.98 L 9.83,14.98 L 9.03,15.40 L 8.97,15.36 L 8.97,13.23 L 9.03,13.17 L 9.86,12.76 L 9.89,12.79 L 9.89,13.84 L 9.96,13.84 L 12.53,12.53 L 12.60,12.56 L 12.60,13.58 L 12.53,13.65 L 11.71,14.06 L 11.71,15.14 L 11.77,15.14 L 13.52,14.25 L 13.52,13.17 L 14.41,12.72 L 14.41,11.61 L 15.27,11.17 L 15.30,11.20 L 15.30,13.33 L 15.24,13.39 L 14.41,13.81 L 14.41,14.92 L 14.44,14.92 L 16.22,14.03 L 16.22,12.91 L 16.25,12.88 L 20.74,10.66 L 20.74,7.32 L 19.91,7.73 L 19.85,7.70 L 19.85,6.68 L 19.91,6.62 L 20.74,6.20 Z" fill="#575a41" stroke="none" /><path d="M 16.19,26.72 L 15.27,27.17 L 15.27,28.28 L 16.19,27.83 Z" fill="#5d6345" stroke="none" /><path d="M 20.71,22.23 L 18.89,23.13 L 18.89,24.24 L 17.08,25.16 L 17.08,26.27 L 18.89,25.38 L 18.89,24.27 L 20.71,23.35 Z" fill="#5d6345" stroke="none" /><path d="M 17.97,22.52 L 17.91,22.52 L 17.11,22.93 L 17.08,22.90 L 17.08,21.88 L 17.02,21.88 L 15.27,22.78 L 15.27,23.86 L 17.05,22.97 L 17.08,23.00 L 17.08,24.05 L 17.11,24.05 L 17.97,23.60 Z" fill="#5d6345" stroke="none" /><path d="M 23.41,20.90 L 23.35,20.90 L 22.52,21.31 L 22.52,22.43 L 22.58,22.43 L 23.41,22.01 Z" fill="#5d6345" stroke="none" /><path d="M 27.93,18.64 L 27.86,18.64 L 26.15,19.50 L 26.15,20.61 L 25.22,21.09 L 25.22,22.20 L 27.04,21.31 L 27.04,20.20 L 27.93,19.75 Z" fill="#5d6345" stroke="none" /><path d="M 25.22,17.81 L 25.16,17.81 L 24.33,18.23 L 24.33,19.31 L 24.40,19.31 L 25.22,18.89 Z" fill="#5d6345" stroke="none" /><path d="M 11.71,12.95 L 9.89,13.84 L 9.89,14.95 L 9.96,14.95 L 11.71,14.06 Z" fill="#5d6345" stroke="none" /><path d="M 8.08,12.53 L 7.22,12.95 L 7.22,14.06 L 7.28,14.06 L 8.08,13.65 Z" fill="#5d6345" stroke="none" /><path d="M 9.89,10.53 L 8.97,10.97 L 8.97,12.09 L 9.89,11.64 Z" fill="#5d6345" stroke="none" /><path d="M 18.93,8.24 L 18.86,8.24 L 18.07,8.65 L 18.04,8.62 L 18.04,7.57 L 17.97,7.57 L 17.15,7.98 L 17.11,8.02 L 17.11,9.10 L 17.05,9.16 L 15.30,10.02 L 15.30,11.13 L 15.36,11.13 L 17.05,10.27 L 17.11,10.31 L 17.11,11.36 L 18.04,10.91 L 18.04,9.80 L 18.93,9.35 Z" fill="#5d6345" stroke="none" /><path d="M 16.22,6.30 L 16.16,6.30 L 14.44,7.16 L 14.41,7.19 L 14.41,8.24 L 14.35,8.30 L 12.60,9.16 L 12.60,10.24 L 12.53,10.31 L 11.71,10.72 L 11.71,11.83 L 13.52,10.94 L 13.52,9.83 L 14.41,9.38 L 14.41,8.30 L 14.47,8.24 L 16.22,7.38 Z" fill="#5d6345" stroke="none" /><path d="M 18.93,4.93 L 18.04,5.38 L 18.04,6.46 L 18.93,6.01 Z" fill="#5d6345" stroke="none" /><path d="M 20.71,25.57 L 20.64,25.57 L 18.89,26.47 L 18.89,27.58 L 20.71,26.69 Z" fill="#5c6046" stroke="none" /><path d="M 19.79,23.83 L 19.72,23.83 L 18.89,24.24 L 18.89,25.35 L 18.96,25.35 L 19.79,24.94 Z" fill="#5c6046" stroke="none" /><path d="M 25.22,22.20 L 24.33,22.65 L 24.33,23.73 L 24.40,23.73 L 25.22,23.32 Z" fill="#5c6046" stroke="none" /><path d="M 20.71,20.07 L 20.64,20.07 L 19.79,20.52 L 19.79,21.57 L 19.72,21.63 L 17.97,22.49 L 17.97,23.57 L 17.91,23.63 L 17.11,24.02 L 17.08,23.98 L 17.08,22.97 L 17.02,22.97 L 14.41,24.27 L 14.41,27.61 L 15.27,27.20 L 15.27,26.08 L 16.13,25.64 L 16.19,25.67 L 16.19,27.80 L 16.25,27.80 L 17.08,27.39 L 17.08,25.19 L 17.15,25.13 L 17.97,24.72 L 17.97,23.63 L 18.04,23.57 L 20.64,22.27 L 20.71,22.30 L 20.71,23.35 L 21.60,22.90 L 21.60,21.79 L 20.77,22.20 L 20.71,22.17 Z" fill="#5c6046" stroke="none" /><path d="M 28.82,17.08 L 24.37,19.31 L 24.33,19.28 L 24.33,18.26 L 24.27,18.26 L 23.41,18.70 L 23.41,21.98 L 22.52,22.43 L 22.52,23.54 L 22.58,23.54 L 23.41,23.13 L 23.41,22.01 L 23.44,21.98 L 26.15,20.64 L 26.15,19.53 L 27.90,18.64 L 27.93,18.67 L 27.93,19.72 L 27.04,20.17 L 27.04,21.28 L 26.15,21.73 L 26.15,22.84 L 27.04,22.39 L 27.04,21.31 L 27.93,20.87 L 27.93,19.75 L 28.82,19.31 Z" fill="#5c6046" stroke="none" /><path d="M 15.30,11.17 L 15.24,11.17 L 14.41,11.58 L 14.41,12.69 L 14.47,12.69 L 15.30,12.28 Z" fill="#5c6046" stroke="none" /><path d="M 17.11,10.24 L 16.22,10.69 L 16.22,11.80 L 17.11,11.36 Z" fill="#5c6046" stroke="none" /><path d="M 12.60,9.19 L 12.53,9.19 L 9.96,10.50 L 9.89,10.47 L 9.89,9.45 L 8.08,10.34 L 8.08,13.61 L 8.02,13.68 L 7.22,14.06 L 7.22,15.17 L 7.28,15.17 L 8.08,14.76 L 8.08,13.68 L 8.14,13.61 L 8.97,13.20 L 8.97,11.01 L 9.83,10.56 L 9.89,10.59 L 9.89,12.72 L 9.96,12.72 L 11.71,11.83 L 11.71,10.75 L 11.77,10.69 L 12.60,10.27 Z" fill="#5c6046" stroke="none" /><path d="M 19.85,4.49 L 19.79,4.49 L 18.93,4.93 L 18.93,5.98 L 18.86,6.04 L 15.33,7.79 L 15.30,7.83 L 15.30,8.91 L 13.52,9.80 L 13.52,10.91 L 12.60,11.39 L 12.60,12.47 L 12.53,12.53 L 11.71,12.95 L 11.71,14.03 L 11.64,14.09 L 9.92,14.95 L 9.89,14.92 L 9.89,13.87 L 9.83,13.87 L 9.00,14.28 L 8.97,14.31 L 8.97,15.43 L 9.86,14.98 L 9.89,15.01 L 9.89,16.06 L 9.92,16.06 L 11.71,15.17 L 11.71,14.09 L 11.77,14.03 L 12.60,13.61 L 12.60,12.53 L 12.66,12.47 L 13.52,12.06 L 13.52,10.94 L 17.08,9.16 L 17.11,9.13 L 17.11,8.05 L 17.18,7.98 L 18.00,7.57 L 18.04,7.60 L 18.04,8.65 L 18.10,8.65 L 18.89,8.24 L 18.93,8.27 L 18.93,9.32 L 18.04,9.77 L 18.04,10.88 L 18.10,10.88 L 18.93,10.47 L 18.93,9.35 L 19.85,8.87 L 19.85,7.79 L 19.91,7.73 L 20.74,7.32 L 20.74,6.20 L 19.91,6.62 L 19.85,6.58 Z" fill="#5c6046" stroke="none" /><path d="M 11.74,29.61 L 11.74,30.70 L 14.35,32.00 L 14.41,32.00 L 14.41,30.92 L 11.80,29.61 Z" fill="#6c684a" stroke="none" /><path d="M 6.30,26.88 L 6.30,27.96 L 6.33,27.99 L 9.92,29.77 L 9.92,28.69 L 8.11,27.77 L 8.11,26.66 L 7.28,26.24 L 7.22,26.24 L 7.22,27.29 L 7.19,27.32 Z" fill="#6c684a" stroke="none" /><path d="M 0.00,23.73 L 0.00,24.81 L 0.89,25.26 L 0.89,24.17 Z" fill="#6c684a" stroke="none" /><path d="M 5.41,17.62 L 5.41,18.70 L 5.44,18.70 L 5.50,18.77 L 5.57,18.77 L 5.69,18.86 L 5.76,18.86 L 5.82,18.93 L 5.88,18.93 L 6.01,19.02 L 6.08,19.02 L 6.14,19.09 L 6.20,19.09 L 6.33,19.18 L 6.39,19.18 L 6.46,19.24 L 6.52,19.24 L 6.65,19.34 L 6.71,19.34 L 6.78,19.40 L 6.84,19.40 L 6.97,19.50 L 7.03,19.50 L 7.09,19.56 L 7.16,19.56 L 7.22,19.63 L 7.22,20.71 L 8.05,21.12 L 8.11,21.12 L 8.11,20.04 L 7.22,19.59 L 7.22,18.51 L 5.47,17.62 Z" fill="#6c684a" stroke="none" /><path d="M 0.00,14.92 L 0.00,16.00 L 0.89,16.45 L 0.89,15.33 L 0.06,14.92 Z" fill="#6c684a" stroke="none" /><path d="M 15.27,22.78 L 14.41,23.19 L 14.41,24.27 L 14.47,24.27 L 15.27,23.86 Z" fill="#5e614f" stroke="none" /><path d="M 19.79,20.52 L 17.08,21.85 L 17.08,22.93 L 17.15,22.93 L 19.75,21.63 L 19.79,21.60 Z" fill="#5e614f" stroke="none" /><path d="M 28.82,16.00 L 25.22,17.78 L 25.22,18.86 L 25.29,18.86 L 28.79,17.11 L 28.82,17.08 Z" fill="#5e614f" stroke="none" /><path d="M 14.41,7.19 L 9.92,9.42 L 9.89,9.45 L 9.89,10.53 L 14.38,8.30 L 14.41,8.27 Z" fill="#5e614f" stroke="none" /><path d="M 18.04,5.38 L 16.22,6.27 L 16.22,7.35 L 16.29,7.35 L 18.04,6.46 Z" fill="#5e614f" stroke="none" /><path d="M 9.92,28.69 L 9.92,29.77 L 11.67,30.66 L 11.74,30.66 L 11.74,29.58 Z" fill="#7c7857" stroke="none" /><path d="M 4.49,25.99 L 4.49,27.07 L 6.27,27.96 L 6.30,27.96 L 6.30,26.94 L 6.33,26.91 L 7.16,27.32 L 7.22,27.32 L 7.22,26.27 L 7.25,26.24 L 8.11,26.69 L 8.11,27.80 L 9.03,28.25 L 9.03,27.13 L 8.11,26.66 L 8.11,25.54 L 7.28,25.13 L 7.22,25.13 L 7.22,26.18 L 7.19,26.21 L 6.30,25.77 L 6.30,26.82 L 6.27,26.85 L 4.55,25.99 Z" fill="#7c7857" stroke="none" /><path d="M 0.89,24.17 L 0.89,25.26 L 2.67,26.15 L 2.67,25.07 Z" fill="#7c7857" stroke="none" /><path d="M 6.30,19.15 L 6.30,20.23 L 7.22,20.71 L 7.22,22.90 L 8.11,23.35 L 8.11,21.18 L 8.14,21.15 L 9.03,21.60 L 9.03,20.52 L 8.17,20.07 L 8.11,20.07 L 8.11,21.09 L 8.08,21.12 L 7.22,20.68 L 7.22,19.59 Z" fill="#7c7857" stroke="none" /><path d="M 2.70,16.25 L 2.70,17.37 L 3.79,17.91 L 3.85,17.91 L 3.91,17.97 L 4.10,18.07 L 4.17,18.07 L 4.23,18.13 L 4.42,18.23 L 4.49,18.23 L 4.55,18.29 L 4.74,18.39 L 4.80,18.39 L 4.87,18.45 L 5.06,18.54 L 5.12,18.54 L 5.18,18.61 L 5.25,18.61 L 5.31,18.67 L 5.41,18.70 L 5.41,17.59 Z" fill="#7c7857" stroke="none" /><path d="M 0.00,13.81 L 0.00,14.92 L 0.89,15.36 L 0.89,16.45 L 1.75,16.89 L 1.81,16.89 L 1.81,15.81 L 0.89,15.33 L 0.89,14.25 Z" fill="#7c7857" stroke="none" /><path d="M 0.00,7.19 L 0.00,8.27 L 0.83,8.68 L 0.89,8.68 L 0.89,7.60 L 0.06,7.19 Z" fill="#7c7857" stroke="none" /><path d="M 2.67,25.07 L 2.67,26.15 L 4.42,27.04 L 4.49,27.04 L 4.49,25.96 Z" fill="#848460" stroke="none" /><path d="M 7.22,22.90 L 7.22,25.13 L 8.05,25.54 L 8.11,25.54 L 8.11,23.35 Z" fill="#848460" stroke="none" /><path d="M 1.81,15.81 L 1.81,16.92 L 2.64,17.34 L 2.70,17.34 L 2.70,16.25 Z" fill="#848460" stroke="none" /><path d="M 9.03,27.13 L 9.03,28.25 L 9.07,28.28 L 14.35,30.92 L 14.41,30.92 L 14.41,28.69 L 12.69,27.83 L 12.63,27.83 L 12.63,28.88 L 12.60,28.91 L 10.85,28.02 L 10.85,26.97 L 10.88,26.94 L 11.67,27.36 L 11.74,27.36 L 11.74,26.27 L 11.71,26.24 L 10.85,25.83 L 10.85,26.88 L 10.82,26.91 L 9.92,26.47 L 9.92,27.51 L 9.89,27.55 Z" fill="#898960" stroke="none" /><path d="M 1.78,23.51 L 1.78,24.62 L 1.81,24.65 L 6.27,26.88 L 6.30,26.88 L 6.30,25.83 L 6.33,25.80 L 7.16,26.21 L 7.22,26.21 L 7.22,24.02 L 7.19,23.98 L 6.36,23.57 L 6.30,23.57 L 6.30,25.70 L 6.27,25.73 L 3.59,24.40 L 3.59,23.35 L 3.63,23.32 L 5.41,24.21 L 5.41,23.09 L 3.63,22.20 L 3.59,22.20 L 3.59,23.25 L 3.56,23.28 L 2.67,22.84 L 2.67,23.89 L 2.64,23.92 Z" fill="#898960" stroke="none" /><path d="M 0.00,21.50 L 0.00,22.62 L 0.89,23.06 L 0.89,21.95 Z" fill="#898960" stroke="none" /><path d="M 0.89,13.14 L 0.89,15.36 L 7.22,18.51 L 7.22,16.29 L 6.39,15.87 L 6.33,15.87 L 6.33,16.92 L 6.30,16.95 L 1.84,14.73 L 1.81,14.70 L 1.81,13.58 Z" fill="#898960" stroke="none" /><path d="M 1.81,11.39 L 1.81,12.50 L 2.64,12.91 L 2.70,12.91 L 2.70,11.83 Z" fill="#898960" stroke="none" /><path d="M 14.41,26.50 L 13.61,26.08 L 13.55,26.08 L 13.55,27.13 L 13.52,27.17 L 12.63,26.72 L 12.63,27.77 L 12.60,27.80 L 10.91,26.94 L 10.85,26.94 L 10.85,28.06 L 12.56,28.91 L 12.63,28.91 L 12.63,27.86 L 12.66,27.83 L 14.35,28.69 L 14.41,28.69 Z" fill="#8e926a" stroke="none" /><path d="M 9.03,23.83 L 9.03,24.87 L 9.00,24.91 L 8.11,24.46 L 8.11,26.69 L 9.92,27.58 L 9.92,25.42 L 9.96,25.38 L 10.85,25.83 L 10.85,24.72 L 9.10,23.83 Z" fill="#8e926a" stroke="none" /><path d="M 5.41,22.01 L 5.41,24.21 L 6.30,24.65 L 6.30,23.60 L 6.33,23.57 L 7.22,24.02 L 7.22,22.90 L 5.47,22.01 Z" fill="#8e926a" stroke="none" /><path d="M 8.11,21.15 L 8.11,22.23 L 8.97,22.68 L 9.03,22.68 L 9.03,21.60 L 8.17,21.15 Z" fill="#8e926a" stroke="none" /><path d="M 6.30,20.23 L 6.30,21.34 L 7.22,21.79 L 7.22,20.68 Z" fill="#8e926a" stroke="none" /><path d="M 3.59,19.98 L 3.59,21.09 L 4.49,21.53 L 4.49,20.42 Z" fill="#8e926a" stroke="none" /><path d="M 0.00,20.42 L 0.00,21.50 L 0.83,21.92 L 0.89,21.98 L 0.89,23.00 L 0.86,23.03 L 0.00,22.62 L 0.00,23.73 L 0.03,23.76 L 1.78,24.62 L 1.78,23.57 L 1.84,23.54 L 2.67,23.95 L 2.67,22.90 L 2.74,22.87 L 3.59,23.32 L 3.59,24.43 L 4.42,24.84 L 4.49,24.84 L 4.49,23.73 L 3.59,23.28 L 3.59,22.20 L 3.56,22.17 L 2.74,21.76 L 2.67,21.76 L 2.67,22.78 L 2.61,22.81 L 0.95,21.98 L 0.89,21.92 L 0.89,20.90 L 0.92,20.87 L 1.72,21.28 L 1.78,21.28 L 1.78,20.17 L 0.95,19.75 L 0.89,19.75 L 0.89,20.80 L 0.86,20.83 L 0.06,20.42 Z" fill="#8e926a" stroke="none" /><path d="M 0.00,11.58 L 0.00,13.81 L 0.03,13.84 L 0.89,14.25 L 0.89,13.20 L 0.95,13.17 L 1.81,13.61 L 1.81,14.73 L 2.64,15.14 L 2.70,15.14 L 2.70,14.03 L 1.81,13.58 L 1.81,11.45 L 1.88,11.42 L 2.64,11.80 L 2.70,11.86 L 2.70,12.95 L 5.34,14.25 L 5.41,14.31 L 5.41,15.33 L 5.38,15.36 L 4.52,14.95 L 4.52,16.06 L 4.55,16.10 L 6.27,16.95 L 6.33,16.95 L 6.33,15.90 L 6.36,15.87 L 7.16,16.29 L 7.22,16.29 L 7.22,14.09 L 6.33,13.65 L 6.33,14.70 L 6.30,14.73 L 5.47,14.31 L 5.41,14.25 L 5.41,13.17 L 2.77,11.86 L 2.70,11.80 L 2.70,10.72 L 2.67,10.69 L 1.81,10.27 L 1.81,11.32 L 1.78,11.36 L 0.95,10.94 L 0.89,10.94 L 0.89,11.96 L 0.86,11.99 Z" fill="#8e926a" stroke="none" /><path d="M 0.00,8.27 L 0.00,9.38 L 0.83,9.80 L 0.89,9.80 L 0.89,8.68 L 0.06,8.27 Z" fill="#8e926a" stroke="none" /><path d="M 11.74,24.05 L 11.74,25.10 L 11.71,25.13 L 10.85,24.72 L 10.85,25.83 L 12.63,26.72 L 12.63,25.67 L 12.66,25.64 L 13.49,26.05 L 13.55,26.05 L 13.55,24.94 Z" fill="#97a170" stroke="none" /><path d="M 8.11,22.23 L 8.11,23.35 L 8.97,23.79 L 9.03,23.79 L 9.03,22.68 Z" fill="#97a170" stroke="none" /><path d="M 9.92,20.96 L 9.92,22.04 L 10.78,22.49 L 10.85,22.49 L 10.85,21.41 Z" fill="#97a170" stroke="none" /><path d="M 0.89,20.87 L 0.89,21.95 L 1.78,22.39 L 1.78,21.28 L 0.95,20.87 Z" fill="#97a170" stroke="none" /><path d="M 2.67,20.64 L 2.67,21.76 L 4.45,22.65 L 4.49,22.65 L 4.49,21.60 L 4.52,21.57 L 6.23,22.43 L 6.30,22.43 L 6.30,21.31 L 4.52,20.42 L 4.49,20.42 L 4.49,21.47 L 4.45,21.50 L 2.74,20.64 Z" fill="#97a170" stroke="none" /><path d="M 0.89,16.45 L 0.89,17.53 L 2.61,18.39 L 2.67,18.45 L 2.67,19.53 L 3.59,19.98 L 3.59,18.86 L 2.74,18.45 L 2.67,18.39 L 2.67,17.34 Z" fill="#97a170" stroke="none" /><path d="M 2.70,12.95 L 2.70,14.06 L 4.52,14.95 L 4.52,13.84 L 2.77,12.95 Z" fill="#97a170" stroke="none" /><path d="M 5.41,10.97 L 5.41,12.02 L 5.38,12.06 L 4.58,11.64 L 4.52,11.64 L 4.52,12.76 L 6.33,13.65 L 6.33,12.60 L 6.36,12.56 L 7.22,12.98 L 7.22,11.86 L 5.47,10.97 Z" fill="#97a170" stroke="none" /><path d="M 0.00,9.38 L 0.00,10.50 L 0.83,10.91 L 0.89,10.91 L 0.89,9.80 L 0.06,9.38 Z" fill="#97a170" stroke="none" /><path d="M 1.81,9.16 L 1.81,10.27 L 2.70,10.72 L 2.70,9.61 Z" fill="#97a170" stroke="none" /><path d="M 9.92,25.38 L 9.92,26.47 L 10.78,26.91 L 10.85,26.91 L 10.85,25.83 L 9.99,25.38 Z" fill="#959c72" stroke="none" /><path d="M 4.49,23.76 L 4.49,24.87 L 6.30,25.77 L 6.30,24.65 L 4.55,23.76 Z" fill="#959c72" stroke="none" /><path d="M 4.49,21.53 L 4.49,22.65 L 5.34,23.09 L 5.41,23.09 L 5.41,21.98 Z" fill="#959c72" stroke="none" /><path d="M 9.03,20.52 L 9.03,23.76 L 9.00,23.79 L 8.11,23.35 L 8.11,24.46 L 8.97,24.91 L 9.03,24.91 L 9.03,23.86 L 9.07,23.83 L 11.71,25.16 L 11.74,25.16 L 11.74,24.11 L 11.77,24.08 L 13.52,24.94 L 13.55,24.97 L 13.55,26.02 L 13.52,26.05 L 12.63,25.61 L 12.63,26.66 L 12.60,26.69 L 11.74,26.27 L 11.74,27.39 L 12.56,27.80 L 12.63,27.80 L 12.63,26.78 L 12.66,26.75 L 13.49,27.17 L 13.55,27.17 L 13.55,26.12 L 13.58,26.08 L 14.41,26.50 L 14.41,24.27 L 9.99,22.08 L 9.92,22.01 L 9.92,20.96 Z" fill="#959c72" stroke="none" /><path d="M 0.00,17.08 L 0.00,20.42 L 0.83,20.83 L 0.89,20.83 L 0.89,19.79 L 0.92,19.75 L 1.78,20.20 L 1.78,22.39 L 1.81,22.43 L 2.67,22.84 L 2.67,20.68 L 2.70,20.64 L 3.59,21.09 L 3.59,20.04 L 3.66,20.01 L 6.27,21.31 L 6.30,21.34 L 6.30,22.46 L 7.22,22.90 L 7.22,21.79 L 6.30,21.31 L 6.30,19.15 L 6.27,19.12 L 5.41,18.70 L 5.41,19.72 L 5.34,19.75 L 3.66,18.89 L 3.59,18.89 L 3.59,19.91 L 3.53,19.94 L 2.67,19.50 L 2.67,18.42 L 2.64,18.39 Z" fill="#959c72" stroke="none" /><path d="M 1.81,12.50 L 1.81,13.61 L 2.70,14.06 L 2.70,15.17 L 4.49,16.06 L 4.52,16.06 L 4.52,15.01 L 4.55,14.98 L 5.41,15.40 L 5.41,14.35 L 5.44,14.31 L 6.27,14.73 L 6.33,14.73 L 6.33,13.71 L 6.36,13.68 L 7.22,14.09 L 7.22,12.98 L 6.33,12.53 L 6.33,13.58 L 6.27,13.61 L 5.47,13.20 L 5.41,13.20 L 5.41,14.22 L 5.34,14.25 L 4.52,13.84 L 4.52,14.89 L 4.45,14.92 L 2.74,14.06 L 2.70,14.03 L 2.70,12.91 L 1.88,12.50 Z" fill="#959c72" stroke="none" /><path d="M 0.89,7.63 L 0.89,10.88 L 0.86,10.91 L 0.06,10.50 L 0.00,10.50 L 0.00,11.58 L 0.03,11.61 L 0.89,12.02 L 0.89,10.97 L 0.92,10.94 L 1.81,11.39 L 1.81,9.22 L 1.88,9.19 L 2.64,9.57 L 2.70,9.64 L 2.70,11.83 L 2.74,11.86 L 4.45,12.72 L 4.52,12.72 L 4.52,11.67 L 4.55,11.64 L 5.34,12.06 L 5.41,12.06 L 5.41,10.94 L 2.77,9.64 L 2.70,9.57 L 2.70,8.52 L 0.95,7.63 Z" fill="#959c72" stroke="none" /><path d="M 19.85,19.59 L 19.88,19.66 L 20.64,20.04 L 20.77,20.04 L 21.60,19.63 L 21.57,19.56 L 20.80,19.18 L 20.68,19.18 Z" fill="#a7a073" stroke="none" /><path d="M 13.52,16.45 L 13.52,16.48 L 15.30,17.37 L 16.22,16.92 L 16.22,16.89 L 14.44,16.00 L 14.38,16.00 Z" fill="#a7a073" stroke="none" /><path d="M 27.10,15.97 L 27.10,16.03 L 27.93,16.45 L 28.79,16.03 L 28.79,15.97 L 27.96,15.55 Z" fill="#a7a073" stroke="none" /><path d="M 20.74,12.82 L 20.74,12.85 L 21.63,13.30 L 22.49,12.88 L 22.49,12.82 L 21.66,12.41 L 21.57,12.41 Z" fill="#a7a073" stroke="none" /><path d="M 0.03,7.16 L 0.06,7.22 L 0.89,7.63 L 1.75,7.22 L 1.72,7.16 L 0.89,6.74 Z" fill="#a7a073" stroke="none" /><path d="M 11.74,6.71 L 11.74,6.78 L 13.46,7.63 L 13.55,7.63 L 15.30,6.74 L 15.30,6.71 L 14.47,6.30 L 14.38,6.30 L 13.52,6.74 L 12.66,6.30 L 12.56,6.30 Z" fill="#a7a073" stroke="none" /><path d="M 5.41,4.49 L 5.41,4.52 L 6.23,4.93 L 6.33,4.93 L 7.19,4.49 L 8.05,4.93 L 8.14,4.93 L 8.97,4.52 L 8.97,4.45 L 7.25,3.59 L 7.16,3.59 Z" fill="#a7a073" stroke="none" /><path d="M 18.07,2.64 L 18.10,2.70 L 19.82,3.56 L 19.75,3.63 L 18.96,4.01 L 18.96,4.04 L 19.79,4.45 L 19.91,4.45 L 21.60,3.59 L 21.60,3.56 L 18.93,2.23 Z" fill="#a7a073" stroke="none" /><path d="M 13.58,0.38 L 13.58,0.45 L 16.19,1.75 L 16.32,1.75 L 17.08,1.37 L 17.08,1.30 L 14.47,0.00 L 14.35,0.00 Z" fill="#a7a073" stroke="none" /><path d="M 10.85,21.44 L 10.85,22.52 L 14.35,24.27 L 14.41,24.27 L 14.41,23.19 L 10.91,21.44 Z" fill="#999e81" stroke="none" /><path d="M 2.67,17.34 L 2.67,18.42 L 2.70,18.45 L 5.41,19.79 L 5.41,18.70 L 5.38,18.67 Z" fill="#999e81" stroke="none" /><path d="M 0.00,16.00 L 0.00,17.08 L 0.89,17.53 L 0.89,16.45 Z" fill="#999e81" stroke="none" /><path d="M 2.70,8.52 L 2.70,9.61 L 2.74,9.64 L 7.22,11.86 L 7.22,10.78 L 7.19,10.75 Z" fill="#999e81" stroke="none" /><path d="M 13.55,22.74 L 13.58,22.81 L 14.35,23.19 L 14.47,23.19 L 15.27,22.78 L 15.27,22.74 L 14.44,22.33 L 14.38,22.33 Z" fill="#c0b986" stroke="none" /><path d="M 19.85,18.70 L 18.93,19.15 L 18.93,19.18 L 19.72,19.56 L 19.79,19.63 L 18.96,20.04 L 18.96,20.10 L 19.79,20.52 L 20.71,20.07 L 20.71,20.04 L 19.88,19.63 L 19.94,19.56 L 20.74,19.18 L 20.74,19.15 Z" fill="#c0b986" stroke="none" /><path d="M 15.33,17.34 L 15.36,17.40 L 17.97,18.70 L 18.10,18.70 L 18.93,18.29 L 18.89,18.23 L 16.29,16.92 L 16.16,16.92 Z" fill="#c0b986" stroke="none" /><path d="M 14.44,15.97 L 14.44,16.03 L 15.27,16.45 L 15.36,16.45 L 16.19,16.03 L 16.19,15.97 L 15.36,15.55 L 15.27,15.55 Z" fill="#c0b986" stroke="none" /><path d="M 25.29,15.08 L 25.32,15.14 L 27.04,16.00 L 27.10,16.00 L 27.93,15.59 L 27.90,15.52 L 26.18,14.66 L 26.12,14.66 Z" fill="#c0b986" stroke="none" /><path d="M 19.85,13.26 L 19.88,13.33 L 20.71,13.74 L 20.77,13.74 L 21.66,13.30 L 23.41,14.19 L 23.51,14.19 L 24.33,13.77 L 24.33,13.74 L 22.55,12.85 L 22.49,12.85 L 21.69,13.26 L 21.60,13.26 L 20.80,12.85 L 20.68,12.85 Z" fill="#c0b986" stroke="none" /><path d="M 0.92,7.60 L 0.95,7.67 L 1.78,8.08 L 1.84,8.08 L 2.67,7.67 L 2.67,7.63 L 1.78,7.19 Z" fill="#c0b986" stroke="none" /><path d="M 9.89,5.82 L 9.89,5.85 L 11.67,6.74 L 11.74,6.74 L 12.60,6.30 L 13.49,6.74 L 13.55,6.74 L 14.41,6.30 L 15.33,6.74 L 17.11,5.85 L 17.08,5.79 L 16.25,5.38 L 14.47,6.27 L 14.38,6.27 L 13.58,5.85 L 13.46,5.85 L 12.66,6.27 L 12.56,6.27 L 10.82,5.38 Z" fill="#c0b986" stroke="none" /><path d="M 3.59,5.41 L 4.42,5.82 L 4.55,5.82 L 6.23,4.96 L 6.33,4.96 L 7.13,5.38 L 7.25,5.38 L 8.05,4.96 L 8.14,4.96 L 8.94,5.38 L 9.07,5.38 L 9.89,4.96 L 9.89,4.93 L 9.03,4.49 L 8.97,4.49 L 8.11,4.93 L 7.22,4.49 L 7.16,4.49 L 6.30,4.93 L 5.38,4.49 L 3.59,5.38 Z" fill="#c0b986" stroke="none" /><path d="M 18.99,3.12 L 18.93,3.12 L 18.07,3.56 L 18.07,3.59 L 18.89,4.01 L 18.86,4.07 L 18.07,4.45 L 18.07,4.49 L 18.93,4.93 L 19.85,4.49 L 19.85,4.45 L 19.02,4.04 L 19.05,3.98 L 19.85,3.59 L 19.85,3.56 Z" fill="#c0b986" stroke="none" /><path d="M 16.25,1.75 L 16.25,1.78 L 18.04,2.67 L 18.89,2.26 L 18.86,2.19 L 17.15,1.34 L 17.08,1.34 Z" fill="#c0b986" stroke="none" /><path d="M 16.19,20.52 L 15.30,20.07 L 14.41,20.52 L 14.41,20.55 L 15.24,20.96 L 15.36,20.96 L 16.19,20.55 Z" fill="#d3d393" stroke="none" /><path d="M 27.01,16.86 L 26.15,16.45 L 25.32,16.86 L 25.29,16.92 L 26.12,17.34 L 26.18,17.34 L 27.01,16.92 Z" fill="#d3d393" stroke="none" /><path d="M 11.71,17.34 L 11.74,17.40 L 12.56,17.81 L 12.63,17.81 L 13.52,17.37 L 17.91,19.56 L 17.97,19.63 L 17.94,19.66 L 17.15,20.04 L 17.15,20.10 L 17.97,20.52 L 18.07,20.52 L 19.82,19.63 L 19.82,19.59 L 13.52,16.45 Z" fill="#d3d393" stroke="none" /><path d="M 19.85,15.08 L 19.85,15.11 L 21.63,16.00 L 21.69,16.00 L 22.55,15.55 L 23.44,16.00 L 23.51,16.00 L 24.37,15.55 L 25.22,16.00 L 25.29,16.00 L 26.15,15.55 L 26.15,15.52 L 21.69,13.30 L 21.60,13.30 L 20.77,13.71 L 20.77,13.77 L 23.35,15.05 L 23.41,15.11 L 23.38,15.14 L 22.62,15.52 L 22.52,15.52 L 20.77,14.63 Z" fill="#d3d393" stroke="none" /><path d="M 20.71,13.71 L 19.88,13.30 L 19.79,13.30 L 18.07,14.16 L 18.07,14.22 L 18.89,14.63 L 18.99,14.63 L 20.71,13.77 Z" fill="#d3d393" stroke="none" /><path d="M 10.82,8.08 L 10.82,8.11 L 11.64,8.52 L 11.77,8.52 L 12.60,8.11 L 12.60,8.08 L 11.77,7.67 L 11.64,7.67 Z" fill="#d3d393" stroke="none" /><path d="M 7.19,5.38 L 7.19,5.41 L 10.75,7.19 L 10.85,7.19 L 11.67,6.78 L 11.67,6.71 L 8.11,4.93 Z" fill="#d3d393" stroke="none" /><path d="M 13.55,3.12 L 13.55,3.15 L 14.38,3.56 L 14.47,3.56 L 15.30,3.15 L 15.30,3.09 L 14.47,2.67 L 14.41,2.67 Z" fill="#d3d393" stroke="none" /><path d="M 11.74,1.30 L 11.74,1.34 L 13.52,2.23 L 14.41,1.78 L 14.47,1.78 L 16.13,2.61 L 16.19,2.67 L 16.16,2.70 L 15.36,3.09 L 15.36,3.15 L 16.19,3.56 L 16.29,3.56 L 17.15,3.12 L 18.00,3.56 L 18.10,3.56 L 18.93,3.15 L 18.93,3.09 L 13.58,0.41 L 13.52,0.41 Z" fill="#d3d393" stroke="none" /><path d="M 19.82,18.70 L 18.93,18.26 L 18.04,18.70 L 18.04,18.74 L 18.86,19.15 L 18.99,19.15 L 19.82,18.74 Z" fill="#cccc94" stroke="none" /><path d="M 23.48,14.19 L 23.48,14.22 L 25.26,15.11 L 26.12,14.70 L 26.12,14.63 L 24.40,13.77 L 24.27,13.77 Z" fill="#cccc94" stroke="none" /><path d="M 4.49,5.82 L 3.66,5.41 L 3.53,5.41 L 0.92,6.71 L 0.89,6.78 L 1.72,7.19 L 1.81,7.19 L 4.49,5.85 Z" fill="#cccc94" stroke="none" /><path d="M 10.78,5.38 L 9.89,4.93 L 9.00,5.38 L 9.00,5.41 L 9.83,5.82 L 9.96,5.82 L 10.78,5.41 Z" fill="#cccc94" stroke="none" /><path d="M 18.93,4.90 L 18.10,4.49 L 18.00,4.49 L 16.29,5.34 L 16.25,5.41 L 17.08,5.82 L 17.18,5.82 L 18.89,4.96 Z" fill="#cccc94" stroke="none" /><path d="M 14.44,22.30 L 14.44,22.36 L 15.27,22.78 L 16.19,22.33 L 16.19,22.30 L 15.36,21.88 L 15.27,21.88 Z" fill="#dae1a3" stroke="none" /><path d="M 9.89,18.26 L 9.89,18.29 L 10.72,18.70 L 10.85,18.70 L 11.64,18.29 L 11.74,18.29 L 12.50,18.67 L 12.53,18.70 L 12.50,18.77 L 11.71,19.15 L 11.71,19.18 L 14.31,20.49 L 14.35,20.52 L 14.31,20.58 L 13.52,20.96 L 13.52,20.99 L 14.35,21.41 L 14.47,21.41 L 15.27,20.99 L 15.33,20.99 L 16.19,21.44 L 17.08,20.99 L 17.15,20.99 L 17.94,21.41 L 18.04,21.41 L 19.79,20.52 L 19.79,20.49 L 18.96,20.07 L 18.89,20.07 L 18.00,20.52 L 17.15,20.07 L 17.97,19.66 L 18.00,19.59 L 17.18,19.18 L 17.08,19.18 L 16.25,19.59 L 16.25,19.66 L 17.05,20.04 L 17.08,20.07 L 17.05,20.10 L 15.33,20.96 L 15.27,20.96 L 14.50,20.58 L 14.47,20.55 L 14.50,20.49 L 15.30,20.10 L 15.30,20.07 L 12.69,18.77 L 12.66,18.70 L 13.46,18.29 L 13.55,18.29 L 14.35,18.70 L 14.47,18.70 L 15.30,18.29 L 15.30,18.26 L 13.55,17.37 L 13.46,17.37 L 12.60,17.81 L 11.74,17.37 L 11.64,17.37 Z" fill="#dae1a3" stroke="none" /><path d="M 18.96,16.45 L 18.96,16.48 L 19.79,16.89 L 19.91,16.89 L 20.74,16.48 L 20.71,16.41 L 19.88,16.00 L 19.82,16.00 Z" fill="#dae1a3" stroke="none" /><path d="M 22.55,17.37 L 23.44,17.81 L 24.33,17.37 L 24.40,17.37 L 25.19,17.78 L 25.29,17.78 L 26.12,17.37 L 26.12,17.30 L 25.38,16.95 L 25.32,16.89 L 25.35,16.86 L 26.12,16.48 L 26.21,16.48 L 27.01,16.89 L 27.07,16.89 L 27.90,16.48 L 27.93,16.41 L 26.21,15.55 L 26.12,15.55 L 25.26,16.00 L 24.40,15.55 L 24.33,15.55 L 23.51,15.97 L 23.51,16.03 L 25.22,16.89 L 25.16,16.95 L 24.40,17.34 L 24.33,17.34 L 23.44,16.89 L 22.55,17.34 Z" fill="#dae1a3" stroke="none" /><path d="M 15.33,15.52 L 15.36,15.59 L 16.19,16.00 L 16.25,16.00 L 17.11,15.55 L 17.11,15.52 L 16.29,15.11 L 16.16,15.11 Z" fill="#dae1a3" stroke="none" /><path d="M 22.49,14.66 L 21.66,15.08 L 21.66,15.11 L 22.46,15.49 L 22.52,15.55 L 21.69,15.97 L 21.69,16.03 L 22.52,16.45 L 22.62,16.45 L 23.44,16.03 L 23.44,15.97 L 22.62,15.55 L 22.68,15.49 L 23.41,15.14 L 23.44,15.08 L 22.62,14.66 Z" fill="#dae1a3" stroke="none" /><path d="M 17.15,14.63 L 17.15,14.66 L 18.93,15.55 L 20.74,14.66 L 20.71,14.60 L 19.88,14.19 L 19.82,14.19 L 18.96,14.63 L 18.07,14.19 L 18.00,14.19 Z" fill="#dae1a3" stroke="none" /><path d="M 8.97,9.89 L 8.08,9.45 L 7.19,9.89 L 7.19,9.92 L 8.02,10.34 L 8.14,10.34 L 8.97,9.92 Z" fill="#dae1a3" stroke="none" /><path d="M 13.52,5.82 L 13.52,5.85 L 14.41,6.30 L 15.33,5.85 L 15.33,5.82 L 14.44,5.38 Z" fill="#dae1a3" stroke="none" /><path d="M 1.78,7.19 L 1.78,7.22 L 2.61,7.63 L 2.74,7.63 L 3.53,7.22 L 3.63,7.22 L 4.42,7.63 L 4.55,7.63 L 5.38,7.22 L 5.34,7.16 L 4.55,6.78 L 4.52,6.74 L 4.55,6.71 L 5.41,6.30 L 6.27,6.74 L 6.33,6.74 L 7.22,6.30 L 9.86,7.63 L 9.80,7.70 L 9.00,8.08 L 9.00,8.11 L 9.80,8.49 L 9.86,8.56 L 9.03,8.97 L 9.03,9.03 L 9.86,9.45 L 9.92,9.45 L 10.78,9.00 L 10.78,8.97 L 9.99,8.59 L 9.96,8.56 L 10.02,8.49 L 11.67,7.67 L 11.74,7.67 L 12.53,8.08 L 12.66,8.08 L 13.49,7.67 L 13.46,7.60 L 11.74,6.74 L 11.67,6.74 L 10.78,7.19 L 6.30,4.93 L 3.59,6.27 L 3.63,6.33 L 4.42,6.71 L 4.45,6.74 L 4.42,6.78 L 3.56,7.19 L 2.70,6.74 L 2.64,6.74 Z" fill="#dae1a3" stroke="none" /><path d="M 18.96,4.01 L 17.18,3.12 L 17.11,3.12 L 15.36,4.01 L 15.30,4.01 L 14.41,3.56 L 13.52,4.01 L 13.52,4.04 L 15.30,4.93 L 15.36,4.93 L 16.22,4.49 L 17.11,4.93 L 17.18,4.93 L 18.96,4.04 Z" fill="#dae1a3" stroke="none" /><path d="M 9.96,2.19 L 9.96,2.26 L 10.78,2.67 L 10.85,2.67 L 11.71,2.23 L 12.60,2.67 L 12.66,2.67 L 13.55,2.23 L 15.30,3.12 L 15.36,3.12 L 16.22,2.67 L 16.22,2.64 L 14.50,1.78 L 14.38,1.78 L 13.58,2.19 L 13.49,2.19 L 11.80,1.34 L 11.67,1.34 Z" fill="#dae1a3" stroke="none" /><path d="M 15.33,21.85 L 15.36,21.92 L 16.13,22.30 L 16.25,22.30 L 17.08,21.88 L 17.08,21.85 L 16.25,21.44 L 16.16,21.44 Z" fill="#e9f8ad" stroke="none" /><path d="M 12.63,21.41 L 12.66,21.47 L 13.49,21.88 L 14.41,21.44 L 14.41,21.41 L 13.58,20.99 L 13.46,20.99 Z" fill="#e9f8ad" stroke="none" /><path d="M 7.16,19.56 L 7.16,19.59 L 7.19,19.59 L 7.19,19.56 Z" fill="#e9f8ad" stroke="none" /><path d="M 7.03,19.50 L 7.03,19.53 L 7.06,19.53 L 7.06,19.50 Z" fill="#e9f8ad" stroke="none" /><path d="M 6.84,19.40 L 6.84,19.44 L 6.87,19.44 L 6.87,19.40 Z" fill="#e9f8ad" stroke="none" /><path d="M 6.71,19.34 L 6.71,19.37 L 6.74,19.37 L 6.74,19.34 Z" fill="#e9f8ad" stroke="none" /><path d="M 6.52,19.24 L 6.52,19.28 L 6.55,19.28 L 6.55,19.24 Z" fill="#e9f8ad" stroke="none" /><path d="M 6.39,19.18 L 6.39,19.21 L 6.43,19.21 L 6.43,19.18 Z" fill="#e9f8ad" stroke="none" /><path d="M 6.20,19.09 L 6.20,19.12 L 6.23,19.12 L 6.23,19.09 Z" fill="#e9f8ad" stroke="none" /><path d="M 6.08,19.02 L 6.08,19.05 L 6.11,19.05 L 6.11,19.02 Z" fill="#e9f8ad" stroke="none" /><path d="M 5.88,18.93 L 5.88,18.96 L 5.92,18.96 L 5.92,18.93 Z" fill="#e9f8ad" stroke="none" /><path d="M 5.76,18.86 L 5.76,18.89 L 5.79,18.89 L 5.79,18.86 Z" fill="#e9f8ad" stroke="none" /><path d="M 5.57,18.77 L 5.57,18.80 L 5.60,18.80 L 5.60,18.77 Z" fill="#e9f8ad" stroke="none" /><path d="M 13.52,19.15 L 13.55,19.21 L 15.27,20.07 L 15.36,20.07 L 16.19,19.66 L 16.19,19.59 L 14.47,18.74 L 14.35,18.74 Z" fill="#e9f8ad" stroke="none" /><path d="M 8.08,19.15 L 8.08,19.18 L 9.86,20.07 L 9.92,20.07 L 10.78,19.63 L 11.67,20.07 L 11.74,20.07 L 12.56,19.66 L 12.56,19.59 L 10.85,18.74 L 10.72,18.74 L 9.92,19.15 L 9.86,19.15 L 8.97,18.70 Z" fill="#e9f8ad" stroke="none" /><path d="M 5.44,18.70 L 5.44,18.74 L 5.47,18.74 L 5.47,18.70 Z" fill="#e9f8ad" stroke="none" /><path d="M 18.96,17.34 L 18.99,17.40 L 19.82,17.81 L 18.99,18.23 L 18.96,18.29 L 20.68,19.15 L 20.80,19.15 L 21.63,18.74 L 21.60,18.67 L 19.88,17.81 L 20.71,17.40 L 20.74,17.34 L 19.91,16.92 L 19.79,16.92 Z" fill="#e9f8ad" stroke="none" /><path d="M 23.48,16.89 L 23.48,16.92 L 24.30,17.34 L 24.43,17.34 L 25.26,16.92 L 25.22,16.86 L 24.40,16.45 L 24.33,16.45 Z" fill="#e9f8ad" stroke="none" /><path d="M 19.88,15.97 L 19.88,16.03 L 21.60,16.89 L 21.73,16.89 L 22.55,16.48 L 22.52,16.41 L 20.80,15.55 L 20.71,15.55 Z" fill="#e9f8ad" stroke="none" /><path d="M 17.15,15.52 L 17.18,15.59 L 18.89,16.45 L 18.99,16.45 L 19.82,16.03 L 19.82,15.97 L 18.10,15.11 L 17.97,15.11 Z" fill="#e9f8ad" stroke="none" /><path d="M 5.44,9.86 L 5.47,9.92 L 7.19,10.78 L 7.25,10.78 L 8.08,10.37 L 8.08,10.34 L 6.30,9.45 Z" fill="#e9f8ad" stroke="none" /><path d="M 2.74,8.52 L 2.74,8.56 L 3.56,8.97 L 3.66,8.97 L 4.45,8.56 L 4.45,8.52 L 3.63,8.11 L 3.53,8.11 Z" fill="#e9f8ad" stroke="none" /><path d="M 5.41,7.19 L 5.41,7.22 L 6.23,7.63 L 6.17,7.70 L 5.38,8.08 L 5.38,8.11 L 6.27,8.56 L 7.16,8.11 L 7.22,8.11 L 8.97,9.00 L 9.03,9.00 L 9.89,8.56 L 9.89,8.52 L 8.21,7.70 L 8.14,7.63 L 8.97,7.22 L 8.97,7.16 L 8.14,6.74 L 8.05,6.74 L 7.19,7.19 L 6.33,6.74 L 6.27,6.74 Z" fill="#e9f8ad" stroke="none" /><path d="M 14.44,5.38 L 14.44,5.41 L 15.27,5.82 L 15.40,5.82 L 16.22,5.41 L 16.19,5.34 L 15.36,4.93 L 15.30,4.93 Z" fill="#e9f8ad" stroke="none" /><path d="M 10.82,5.38 L 10.82,5.41 L 11.64,5.82 L 11.77,5.82 L 12.60,5.41 L 12.56,5.34 L 11.74,4.93 L 11.67,4.93 Z" fill="#e9f8ad" stroke="none" /><path d="M 9.92,3.12 L 9.92,3.15 L 11.71,4.04 L 12.60,3.59 L 12.66,3.59 L 13.46,4.01 L 13.58,4.01 L 14.41,3.59 L 14.38,3.53 L 12.66,2.67 L 12.60,2.67 L 11.74,3.12 L 10.85,2.67 L 10.78,2.67 Z" fill="#e9f8ad" stroke="none" /><path d="M 9.92,20.04 L 9.92,20.10 L 12.50,21.38 L 12.56,21.44 L 12.53,21.47 L 11.74,21.85 L 11.74,21.88 L 13.52,22.78 L 16.19,21.44 L 17.02,21.85 L 17.15,21.85 L 17.97,21.44 L 17.94,21.38 L 17.18,20.99 L 17.05,20.99 L 16.25,21.41 L 16.16,21.41 L 15.36,20.99 L 15.24,20.99 L 13.55,21.85 L 13.46,21.85 L 12.66,21.44 L 12.72,21.38 L 14.41,20.55 L 14.41,20.52 L 12.63,19.63 L 12.56,19.63 L 11.71,20.07 L 10.85,19.63 L 10.75,19.63 Z" fill="#e5f1b0" stroke="none" /><path d="M 9.00,18.70 L 9.00,18.74 L 9.83,19.15 L 9.96,19.15 L 10.75,18.74 L 10.82,18.74 L 11.67,19.18 L 12.56,18.74 L 12.63,18.74 L 13.49,19.18 L 14.38,18.74 L 14.44,18.74 L 16.19,19.63 L 15.36,20.04 L 15.33,20.10 L 16.16,20.52 L 16.25,20.52 L 17.08,20.10 L 17.08,20.04 L 16.25,19.63 L 17.08,19.21 L 17.11,19.15 L 15.33,18.26 L 14.44,18.70 L 14.38,18.70 L 13.52,18.26 L 12.63,18.70 L 12.56,18.70 L 11.71,18.26 L 10.82,18.70 L 10.75,18.70 L 9.86,18.26 Z" fill="#e5f1b0" stroke="none" /><path d="M 18.96,15.52 L 18.99,15.59 L 19.82,16.00 L 19.88,16.00 L 20.74,15.55 L 20.74,15.52 L 19.91,15.11 L 19.79,15.11 Z" fill="#e5f1b0" stroke="none" /><path d="M 15.33,16.45 L 15.33,16.48 L 16.16,16.89 L 16.29,16.89 L 17.08,16.48 L 17.18,16.48 L 18.93,17.37 L 19.82,16.92 L 19.88,16.92 L 20.64,17.30 L 20.71,17.37 L 19.88,17.78 L 19.88,17.84 L 22.49,19.15 L 22.55,19.15 L 25.22,17.81 L 25.19,17.75 L 24.43,17.37 L 24.30,17.37 L 23.51,17.78 L 23.41,17.78 L 22.62,17.37 L 22.65,17.30 L 24.33,16.48 L 24.33,16.41 L 23.51,16.00 L 23.44,16.00 L 21.69,16.89 L 21.63,16.89 L 20.77,16.45 L 19.88,16.89 L 19.82,16.89 L 17.21,15.59 L 17.18,15.55 L 17.24,15.49 L 18.04,15.11 L 18.04,15.08 L 17.15,14.63 L 16.22,15.08 L 16.22,15.11 L 17.02,15.49 L 17.08,15.55 Z" fill="#e5f1b0" stroke="none" /><path d="M 19.88,14.16 L 19.88,14.22 L 21.60,15.08 L 21.73,15.08 L 22.55,14.66 L 22.55,14.63 L 20.77,13.74 L 20.71,13.74 Z" fill="#e5f1b0" stroke="none" /><path d="M 9.92,8.52 L 9.96,8.59 L 10.78,9.00 L 11.71,8.56 L 11.71,8.52 L 10.88,8.11 L 10.75,8.11 Z" fill="#e5f1b0" stroke="none" /><path d="M 8.11,7.63 L 8.11,7.67 L 8.94,8.08 L 9.07,8.08 L 9.89,7.67 L 9.86,7.60 L 9.03,7.19 L 8.97,7.19 Z" fill="#e5f1b0" stroke="none" /><path d="M 6.33,6.71 L 6.33,6.78 L 7.16,7.19 L 7.22,7.19 L 8.08,6.74 L 8.08,6.71 L 7.25,6.30 L 7.16,6.30 Z" fill="#e5f1b0" stroke="none" /><path d="M 1.84,8.05 L 1.84,8.11 L 2.67,8.52 L 2.77,8.52 L 3.59,8.11 L 7.13,9.89 L 7.25,9.89 L 8.05,9.48 L 8.14,9.48 L 8.94,9.89 L 9.03,9.89 L 9.86,9.48 L 9.86,9.42 L 7.25,8.11 L 7.13,8.11 L 6.33,8.52 L 6.23,8.52 L 5.47,8.14 L 5.44,8.11 L 5.47,8.05 L 6.27,7.67 L 6.27,7.63 L 5.50,7.25 L 5.44,7.19 L 6.27,6.78 L 6.27,6.71 L 5.44,6.30 L 5.34,6.30 L 4.52,6.71 L 4.52,6.78 L 5.34,7.19 L 5.28,7.25 L 4.52,7.63 L 4.45,7.63 L 3.69,7.25 L 3.63,7.19 L 4.45,6.78 L 4.45,6.71 L 3.63,6.30 L 3.53,6.30 L 2.70,6.71 L 2.70,6.78 L 3.53,7.19 L 3.47,7.25 Z" fill="#e5f1b0" stroke="none" /><path d="M 15.36,4.90 L 15.36,4.96 L 16.19,5.38 L 16.29,5.38 L 17.11,4.96 L 17.11,4.90 L 16.29,4.49 L 16.19,4.49 Z" fill="#e5f1b0" stroke="none" /><path d="M 14.44,3.56 L 14.44,3.59 L 15.27,4.01 L 15.40,4.01 L 16.22,3.59 L 16.19,3.53 L 15.36,3.12 L 15.30,3.12 Z" fill="#e5f1b0" stroke="none" /><path d="M 12.66,2.64 L 12.66,2.70 L 13.49,3.12 L 13.58,3.12 L 14.41,2.70 L 14.41,2.64 L 13.58,2.23 L 13.49,2.23 Z" fill="#e5f1b0" stroke="none" /><path d="M 10.85,2.64 L 10.85,2.70 L 11.67,3.12 L 11.77,3.12 L 12.60,2.70 L 12.60,2.64 L 11.77,2.23 L 11.67,2.23 Z" fill="#e5f1b0" stroke="none" /><path d="M 8.11,3.12 L 8.11,3.15 L 12.53,5.34 L 12.56,5.38 L 12.50,5.44 L 11.71,5.82 L 11.71,5.85 L 12.60,6.30 L 15.30,4.96 L 15.30,4.90 L 12.69,3.59 L 12.56,3.59 L 11.77,4.01 L 11.67,4.01 L 10.02,3.18 L 9.96,3.12 L 9.99,3.09 L 10.78,2.70 L 10.78,2.64 L 9.96,2.23 L 9.89,2.23 Z" fill="#e5f1b0" stroke="none" /><path d="M 7.22,19.59 L 7.22,19.63 L 11.67,21.85 L 11.80,21.85 L 12.60,21.44 L 12.60,21.41 L 8.14,19.18 L 8.02,19.18 Z" fill="#ebf3c7" stroke="none" /><path d="M 22.49,19.12 L 21.63,18.70 L 20.74,19.15 L 20.74,19.18 L 21.57,19.59 L 21.66,19.59 L 22.49,19.18 Z" fill="#ebf3c7" stroke="none" /><path d="M 5.25,18.61 L 5.25,18.64 L 5.28,18.64 L 5.28,18.61 Z" fill="#ebf3c7" stroke="none" /><path d="M 5.12,18.54 L 5.12,18.58 L 5.15,18.58 L 5.15,18.54 Z" fill="#ebf3c7" stroke="none" /><path d="M 4.80,18.39 L 4.80,18.42 L 4.83,18.42 L 4.83,18.39 Z" fill="#ebf3c7" stroke="none" /><path d="M 4.49,18.23 L 4.49,18.26 L 4.52,18.26 L 4.52,18.23 Z" fill="#ebf3c7" stroke="none" /><path d="M 4.17,18.07 L 4.17,18.10 L 4.20,18.10 L 4.20,18.07 Z" fill="#ebf3c7" stroke="none" /><path d="M 3.85,17.91 L 3.85,17.94 L 3.88,17.94 L 3.88,17.91 Z" fill="#ebf3c7" stroke="none" /><path d="M 16.22,16.89 L 16.22,16.92 L 18.89,18.26 L 18.99,18.26 L 19.82,17.84 L 19.82,17.78 L 17.15,16.45 Z" fill="#ebf3c7" stroke="none" /><path d="M 3.63,8.97 L 3.63,9.00 L 5.41,9.89 L 6.27,9.48 L 6.23,9.42 L 4.52,8.56 L 4.42,8.56 Z" fill="#ebf3c7" stroke="none" /><path d="M 7.22,3.56 L 7.25,3.63 L 10.75,5.38 L 10.85,5.38 L 11.67,4.96 L 11.67,4.90 L 8.17,3.15 L 8.05,3.15 Z" fill="#ebf3c7" stroke="none" /></svg>