<svg height="32" width="32" viewBox="0 0 32 32"><defs /><path d="M 15.27,30.54 L 15.20,30.54 L 14.41,30.95 L 14.41,32.00 L 14.47,32.00 L 15.27,31.59 Z" fill="#43402e" stroke="none" /><path d="M 24.33,25.99 L 22.55,26.88 L 22.52,26.85 L 22.52,25.80 L 21.60,26.24 L 21.60,27.32 L 21.53,27.39 L 20.71,27.80 L 20.71,28.85 L 20.77,28.85 L 24.33,27.07 Z" fill="#43402e" stroke="none" /><path d="M 28.82,23.76 L 28.76,23.76 L 26.15,25.07 L 26.15,26.15 L 28.79,24.84 L 28.82,24.81 Z" fill="#43402e" stroke="none" /><path d="M 15.27,21.66 L 14.41,22.08 L 14.41,23.19 L 14.47,23.19 L 15.27,22.78 Z" fill="#43402e" stroke="none" /><path d="M 23.41,17.59 L 19.82,19.37 L 19.79,19.40 L 19.79,20.52 L 21.57,19.63 L 21.60,19.66 L 21.60,20.71 L 22.52,20.26 L 22.52,19.18 L 22.58,19.12 L 23.41,18.70 Z" fill="#43402e" stroke="none" /><path d="M 28.82,13.77 L 27.93,14.22 L 27.93,15.30 L 27.86,15.36 L 27.04,15.78 L 27.04,16.89 L 28.82,16.00 Z" fill="#43402e" stroke="none" /><path d="M 28.82,7.19 L 28.76,7.19 L 27.93,7.60 L 27.93,8.68 L 28.82,8.24 Z" fill="#43402e" stroke="none" /><path d="M 17.08,29.61 L 15.27,30.50 L 15.27,31.59 L 17.08,30.70 Z" fill="#4d4a36" stroke="none" /><path d="M 26.15,25.10 L 26.08,25.10 L 24.33,25.99 L 24.33,27.04 L 24.40,27.04 L 26.15,26.15 Z" fill="#4d4a36" stroke="none" /><path d="M 23.41,25.35 L 22.55,25.77 L 22.52,25.73 L 22.52,24.68 L 21.60,25.13 L 21.60,26.24 L 20.71,26.69 L 20.71,27.77 L 20.64,27.83 L 18.89,28.69 L 18.89,29.77 L 20.71,28.88 L 20.71,27.83 L 20.77,27.77 L 21.60,27.36 L 21.60,26.27 L 21.63,26.24 L 22.49,25.83 L 22.52,25.86 L 22.52,26.88 L 22.58,26.88 L 23.41,26.47 Z" fill="#4d4a36" stroke="none" /><path d="M 15.24,20.55 L 14.41,20.96 L 14.41,22.08 L 14.47,22.08 L 15.24,21.69 L 15.27,21.73 L 15.27,22.78 L 15.30,22.78 L 16.19,22.33 L 16.19,21.22 L 16.13,21.22 L 15.30,21.63 L 15.27,21.60 L 15.27,20.55 Z" fill="#4d4a36" stroke="none" /><path d="M 19.79,19.40 L 17.08,20.74 L 17.08,21.85 L 17.15,21.85 L 19.75,20.55 L 19.79,20.52 Z" fill="#4d4a36" stroke="none" /><path d="M 25.22,16.70 L 25.16,16.70 L 23.41,17.59 L 23.41,18.67 L 23.35,18.74 L 22.52,19.15 L 22.52,20.23 L 22.49,20.26 L 21.63,20.68 L 21.60,20.64 L 21.60,19.63 L 21.53,19.63 L 20.71,20.04 L 20.71,21.15 L 21.53,20.74 L 21.60,20.77 L 21.60,22.93 L 22.52,22.49 L 22.52,20.26 L 23.41,19.82 L 23.41,18.74 L 23.48,18.67 L 25.22,17.81 Z" fill="#4d4a36" stroke="none" /><path d="M 15.27,13.96 L 15.20,13.96 L 14.41,14.38 L 14.41,15.43 L 14.47,15.43 L 15.27,15.01 Z" fill="#4d4a36" stroke="none" /><path d="M 28.82,11.58 L 28.76,11.58 L 27.93,11.99 L 27.93,14.19 L 27.86,14.25 L 27.04,14.66 L 27.04,15.75 L 26.97,15.81 L 26.15,16.22 L 26.15,17.34 L 27.04,16.89 L 27.04,15.81 L 27.10,15.75 L 27.93,15.33 L 27.93,14.25 L 27.99,14.19 L 28.82,13.77 Z" fill="#4d4a36" stroke="none" /><path d="M 27.93,7.63 L 27.86,7.63 L 27.04,8.05 L 27.04,9.13 L 27.93,8.68 Z" fill="#4d4a36" stroke="none" /><path d="M 18.89,28.72 L 18.83,28.72 L 17.08,29.61 L 17.08,30.66 L 17.15,30.66 L 18.89,29.77 Z" fill="#51513b" stroke="none" /><path d="M 22.52,22.49 L 22.46,22.49 L 21.60,22.93 L 21.60,25.13 L 21.66,25.13 L 22.52,24.68 Z" fill="#51513b" stroke="none" /><path d="M 17.08,20.77 L 17.02,20.77 L 16.19,21.18 L 16.19,22.30 L 16.25,22.30 L 17.08,21.88 Z" fill="#51513b" stroke="none" /><path d="M 26.15,16.22 L 25.22,16.67 L 25.22,17.78 L 25.29,17.78 L 26.15,17.34 Z" fill="#51513b" stroke="none" /><path d="M 28.82,8.24 L 27.93,8.68 L 27.93,11.99 L 27.99,11.99 L 28.82,11.58 Z" fill="#51513b" stroke="none" /><path d="M 15.27,28.31 L 14.41,28.72 L 14.41,29.84 L 14.47,29.84 L 15.27,29.42 Z" fill="#55553b" stroke="none" /><path d="M 21.60,24.05 L 21.53,24.05 L 20.71,24.46 L 20.71,26.69 L 18.00,28.06 L 17.97,28.02 L 17.97,26.97 L 19.79,26.05 L 19.79,24.94 L 17.97,25.83 L 17.97,26.94 L 17.08,27.39 L 17.08,28.50 L 16.19,28.95 L 16.19,30.06 L 20.71,27.80 L 20.71,26.72 L 21.60,26.27 Z" fill="#55553b" stroke="none" /><path d="M 28.82,21.53 L 27.07,22.39 L 27.04,22.43 L 27.04,23.51 L 26.97,23.57 L 25.26,24.43 L 25.22,24.40 L 25.22,23.35 L 26.15,22.87 L 26.15,21.76 L 25.22,22.20 L 25.22,23.32 L 24.33,23.76 L 24.33,24.87 L 23.41,25.35 L 23.41,26.43 L 23.48,26.43 L 28.82,23.76 Z" fill="#55553b" stroke="none" /><path d="M 17.08,16.32 L 16.19,16.76 L 16.19,17.88 L 17.08,17.43 Z" fill="#55553b" stroke="none" /><path d="M 22.52,15.81 L 20.71,16.70 L 20.71,17.81 L 20.68,17.84 L 16.22,20.07 L 16.19,20.04 L 16.19,18.99 L 16.13,18.99 L 15.30,19.40 L 15.27,19.44 L 15.27,21.66 L 21.60,18.51 L 21.60,17.40 L 22.52,16.92 Z" fill="#55553b" stroke="none" /><path d="M 27.04,14.66 L 23.44,16.45 L 23.41,16.48 L 23.41,17.59 L 27.01,15.81 L 27.04,15.78 Z" fill="#55553b" stroke="none" /><path d="M 18.89,26.50 L 18.00,26.94 L 17.97,26.91 L 17.97,25.86 L 17.91,25.86 L 17.08,26.27 L 17.08,27.39 L 17.05,27.42 L 15.30,28.28 L 15.27,28.25 L 15.27,27.23 L 15.33,27.17 L 16.19,26.75 L 16.19,25.64 L 15.27,26.08 L 15.27,27.17 L 15.20,27.23 L 14.41,27.61 L 14.41,28.72 L 14.47,28.72 L 15.20,28.34 L 15.27,28.37 L 15.27,29.39 L 15.20,29.46 L 14.41,29.84 L 14.41,30.95 L 16.19,30.06 L 16.19,28.98 L 17.08,28.53 L 17.08,27.42 L 17.11,27.39 L 17.94,26.97 L 17.97,27.01 L 17.97,28.06 L 18.04,28.06 L 18.86,27.64 L 18.89,27.61 Z" fill="#575a41" stroke="none" /><path d="M 18.89,23.19 L 18.83,23.19 L 17.97,23.63 L 17.97,24.75 L 18.89,24.30 Z" fill="#575a41" stroke="none" /><path d="M 21.60,22.93 L 19.79,23.83 L 19.79,26.05 L 20.71,25.61 L 20.71,24.49 L 21.60,24.05 Z" fill="#575a41" stroke="none" /><path d="M 25.22,21.12 L 23.41,22.01 L 23.41,23.09 L 23.35,23.16 L 22.52,23.57 L 22.52,25.80 L 24.33,24.91 L 24.33,22.68 L 25.22,22.23 Z" fill="#575a41" stroke="none" /><path d="M 21.60,20.71 L 20.71,21.15 L 20.71,22.27 L 21.60,21.82 Z" fill="#575a41" stroke="none" /><path d="M 23.41,19.82 L 23.35,19.82 L 22.52,20.23 L 22.52,21.34 L 22.58,21.34 L 23.41,20.93 Z" fill="#575a41" stroke="none" /><path d="M 28.82,19.34 L 28.76,19.34 L 27.93,19.75 L 27.93,20.83 L 27.86,20.90 L 27.04,21.31 L 27.04,22.39 L 26.97,22.46 L 25.22,23.32 L 25.22,24.43 L 25.29,24.43 L 27.01,23.57 L 27.04,23.54 L 27.04,22.46 L 27.10,22.39 L 28.82,21.53 Z" fill="#575a41" stroke="none" /><path d="M 15.27,15.01 L 14.41,15.43 L 14.41,16.54 L 15.27,16.13 Z" fill="#575a41" stroke="none" /><path d="M 22.52,11.39 L 21.60,11.83 L 21.60,12.95 L 22.52,12.50 Z" fill="#575a41" stroke="none" /><path d="M 27.93,8.68 L 27.04,9.13 L 27.04,10.21 L 26.15,10.66 L 26.15,11.77 L 26.21,11.77 L 27.01,11.36 L 27.04,11.39 L 27.04,12.44 L 26.15,12.88 L 26.15,13.96 L 26.08,14.03 L 23.44,15.33 L 23.41,15.30 L 23.41,14.28 L 23.35,14.28 L 22.55,14.70 L 22.52,14.66 L 22.52,13.61 L 22.46,13.61 L 20.74,14.47 L 20.71,14.50 L 20.71,15.59 L 20.64,15.65 L 19.82,16.06 L 19.79,16.03 L 19.79,14.98 L 19.72,14.98 L 17.15,16.29 L 17.08,16.25 L 17.08,15.20 L 16.22,15.62 L 16.19,15.65 L 16.19,16.73 L 16.13,16.80 L 15.27,17.21 L 15.27,18.32 L 14.41,18.77 L 14.41,20.96 L 14.47,20.96 L 15.27,20.55 L 15.27,19.47 L 15.33,19.40 L 16.16,18.99 L 16.19,19.02 L 16.19,20.07 L 16.25,20.07 L 17.08,19.66 L 17.08,18.54 L 17.02,18.54 L 16.22,18.96 L 16.19,18.93 L 16.19,16.80 L 16.25,16.73 L 17.02,16.35 L 17.08,16.38 L 17.08,17.43 L 17.11,17.43 L 19.75,16.10 L 19.79,16.13 L 19.79,17.15 L 19.72,17.21 L 18.89,17.62 L 18.89,18.74 L 18.93,18.74 L 20.71,17.84 L 20.71,16.73 L 21.60,16.29 L 21.60,15.20 L 21.66,15.14 L 22.49,14.73 L 22.52,14.76 L 22.52,16.89 L 22.46,16.95 L 21.60,17.37 L 21.60,18.48 L 21.66,18.48 L 23.41,17.59 L 23.41,16.51 L 23.48,16.45 L 27.90,14.25 L 27.93,14.22 L 27.93,10.91 L 27.86,10.91 L 27.07,11.32 L 27.04,11.29 L 27.04,10.24 L 27.93,9.80 Z" fill="#575a41" stroke="none" /><path d="M 16.19,26.75 L 16.13,26.75 L 15.27,27.20 L 15.27,28.31 L 16.19,27.86 Z" fill="#5d6345" stroke="none" /><path d="M 20.71,22.27 L 18.89,23.16 L 18.89,24.27 L 17.08,25.19 L 17.08,26.27 L 17.15,26.27 L 18.89,25.38 L 18.89,24.30 L 20.71,23.38 Z" fill="#5d6345" stroke="none" /><path d="M 17.97,22.52 L 17.11,22.93 L 17.08,22.90 L 17.08,21.88 L 17.02,21.88 L 15.27,22.78 L 15.27,23.86 L 15.33,23.86 L 17.05,23.00 L 17.08,23.03 L 17.08,24.08 L 17.11,24.08 L 17.97,23.63 Z" fill="#5d6345" stroke="none" /><path d="M 23.41,20.93 L 23.35,20.93 L 22.52,21.34 L 22.52,22.46 L 22.58,22.46 L 23.41,22.04 Z" fill="#5d6345" stroke="none" /><path d="M 27.93,18.67 L 27.86,18.67 L 26.15,19.53 L 26.15,20.64 L 25.22,21.12 L 25.22,22.20 L 25.29,22.20 L 27.04,21.31 L 27.04,20.23 L 27.93,19.79 Z" fill="#5d6345" stroke="none" /><path d="M 25.22,17.81 L 25.16,17.81 L 24.33,18.23 L 24.33,19.34 L 25.22,18.89 Z" fill="#5d6345" stroke="none" /><path d="M 18.89,16.54 L 18.83,16.54 L 17.08,17.43 L 17.08,18.51 L 17.15,18.51 L 18.89,17.62 Z" fill="#5d6345" stroke="none" /><path d="M 15.27,16.13 L 15.20,16.13 L 14.41,16.54 L 14.41,17.65 L 15.27,17.24 Z" fill="#5d6345" stroke="none" /><path d="M 17.08,14.12 L 17.02,14.12 L 16.19,14.54 L 16.19,15.65 L 17.08,15.20 Z" fill="#5d6345" stroke="none" /><path d="M 26.15,11.80 L 26.08,11.80 L 25.26,12.21 L 25.22,12.18 L 25.22,11.13 L 24.37,11.55 L 24.33,11.58 L 24.33,12.66 L 24.27,12.72 L 22.52,13.58 L 22.52,14.70 L 22.58,14.70 L 24.27,13.84 L 24.33,13.87 L 24.33,14.89 L 24.40,14.89 L 25.22,14.47 L 25.22,13.39 L 25.29,13.33 L 26.15,12.91 Z" fill="#5d6345" stroke="none" /><path d="M 23.41,9.89 L 23.35,9.89 L 21.63,10.75 L 21.60,10.78 L 21.60,11.83 L 19.79,12.76 L 19.79,13.84 L 18.89,14.28 L 18.89,15.40 L 18.96,15.40 L 20.71,14.50 L 20.71,13.42 L 20.77,13.36 L 21.60,12.95 L 21.60,11.86 L 23.41,10.94 Z" fill="#5d6345" stroke="none" /><path d="M 26.15,8.52 L 26.08,8.52 L 25.22,8.97 L 25.22,10.02 L 25.29,10.02 L 26.15,9.57 Z" fill="#5d6345" stroke="none" /><path d="M 20.71,25.61 L 20.64,25.61 L 18.89,26.50 L 18.89,27.61 L 20.71,26.72 Z" fill="#5c6046" stroke="none" /><path d="M 19.79,23.86 L 19.72,23.86 L 18.89,24.27 L 18.89,25.38 L 19.79,24.94 Z" fill="#5c6046" stroke="none" /><path d="M 25.22,22.23 L 25.16,22.23 L 24.33,22.65 L 24.33,23.76 L 24.40,23.76 L 25.22,23.35 Z" fill="#5c6046" stroke="none" /><path d="M 20.71,20.07 L 20.64,20.07 L 19.79,20.52 L 19.79,21.60 L 19.75,21.63 L 17.97,22.52 L 17.97,23.60 L 17.91,23.67 L 17.11,24.05 L 17.08,24.02 L 17.08,22.97 L 17.05,22.97 L 14.41,24.30 L 14.41,27.61 L 14.47,27.61 L 15.27,27.20 L 15.27,26.12 L 16.13,25.67 L 16.19,25.70 L 16.19,27.83 L 16.25,27.83 L 17.08,27.42 L 17.08,25.22 L 17.15,25.16 L 17.97,24.75 L 17.97,23.67 L 18.04,23.60 L 20.64,22.30 L 20.71,22.33 L 20.71,23.38 L 21.60,22.93 L 21.60,21.82 L 20.77,22.23 L 20.71,22.20 Z" fill="#5c6046" stroke="none" /><path d="M 28.82,17.11 L 28.76,17.11 L 24.40,19.31 L 24.33,19.28 L 24.33,18.26 L 24.27,18.26 L 23.41,18.70 L 23.41,22.01 L 22.52,22.46 L 22.52,23.57 L 23.41,23.13 L 23.41,22.04 L 23.44,22.01 L 26.15,20.68 L 26.15,19.56 L 27.90,18.67 L 27.93,18.70 L 27.93,19.75 L 27.04,20.20 L 27.04,21.28 L 26.97,21.34 L 26.15,21.76 L 26.15,22.87 L 27.04,22.43 L 27.04,21.34 L 27.10,21.28 L 27.93,20.87 L 27.93,19.79 L 28.82,19.34 Z" fill="#5c6046" stroke="none" /><path d="M 22.52,14.73 L 22.46,14.73 L 21.60,15.17 L 21.60,16.25 L 21.66,16.25 L 22.52,15.81 Z" fill="#5c6046" stroke="none" /><path d="M 24.33,13.81 L 23.41,14.25 L 23.41,15.36 L 24.33,14.92 Z" fill="#5c6046" stroke="none" /><path d="M 19.79,12.76 L 17.11,14.09 L 17.08,14.06 L 17.08,13.04 L 15.27,13.93 L 15.27,17.21 L 14.41,17.65 L 14.41,18.77 L 15.27,18.35 L 15.27,17.24 L 16.19,16.76 L 16.19,14.57 L 17.05,14.12 L 17.08,14.16 L 17.08,16.32 L 18.89,15.43 L 18.89,14.31 L 19.79,13.87 Z" fill="#5c6046" stroke="none" /><path d="M 27.04,8.08 L 26.97,8.08 L 26.15,8.49 L 26.15,9.54 L 26.08,9.61 L 22.55,11.36 L 22.52,11.39 L 22.52,12.47 L 20.71,13.39 L 20.71,14.47 L 20.64,14.54 L 19.79,14.95 L 19.79,16.06 L 18.89,16.51 L 18.89,17.59 L 18.83,17.65 L 17.11,18.51 L 17.08,18.48 L 17.08,17.43 L 16.22,17.84 L 16.19,17.88 L 16.19,18.96 L 16.25,18.96 L 17.05,18.54 L 17.08,18.58 L 17.08,19.63 L 17.15,19.63 L 18.86,18.77 L 18.89,18.74 L 18.89,17.65 L 18.96,17.59 L 19.79,17.18 L 19.79,16.10 L 20.71,15.62 L 20.71,14.54 L 20.77,14.47 L 24.30,12.72 L 24.33,12.69 L 24.33,11.61 L 24.40,11.55 L 25.16,11.17 L 25.22,11.20 L 25.22,12.25 L 26.12,11.80 L 26.15,11.83 L 26.15,12.88 L 25.22,13.36 L 25.22,14.44 L 25.29,14.44 L 26.15,14.00 L 26.15,12.91 L 27.04,12.47 L 27.04,11.36 L 27.93,10.91 L 27.93,9.80 L 27.86,9.80 L 27.07,10.21 L 27.04,10.18 Z" fill="#5c6046" stroke="none" /><path d="M 11.74,29.61 L 11.74,30.70 L 14.35,32.00 L 14.41,32.00 L 14.41,30.95 L 14.38,30.92 Z" fill="#6c684a" stroke="none" /><path d="M 6.30,26.91 L 6.30,27.96 L 6.33,27.99 L 9.92,29.77 L 9.92,28.69 L 8.17,27.83 L 8.11,27.77 L 8.11,26.69 L 7.28,26.27 L 7.22,26.27 L 7.22,27.29 L 7.19,27.32 L 6.36,26.91 Z" fill="#6c684a" stroke="none" /><path d="M 0.00,23.76 L 0.00,24.81 L 0.89,25.26 L 0.89,24.17 L 0.06,23.76 Z" fill="#6c684a" stroke="none" /><path d="M 13.55,20.55 L 13.55,21.60 L 13.52,21.63 L 12.69,21.22 L 12.63,21.22 L 12.63,22.33 L 14.35,23.19 L 14.41,23.19 L 14.41,20.96 Z" fill="#6c684a" stroke="none" /><path d="M 5.41,17.59 L 5.41,18.70 L 7.22,19.63 L 7.22,20.71 L 7.25,20.74 L 8.11,21.15 L 8.11,20.10 L 8.14,20.07 L 9.03,20.52 L 9.03,19.40 L 9.00,19.37 Z" fill="#6c684a" stroke="none" /><path d="M 0.00,14.89 L 0.00,16.00 L 0.89,16.45 L 0.89,15.33 Z" fill="#6c684a" stroke="none" /><path d="M 13.55,13.96 L 13.55,15.01 L 14.35,15.43 L 14.41,15.43 L 14.41,14.38 L 13.61,13.96 Z" fill="#6c684a" stroke="none" /><path d="M 15.27,22.78 L 14.41,23.19 L 14.41,24.30 L 15.27,23.89 Z" fill="#5e614f" stroke="none" /><path d="M 19.79,20.52 L 17.08,21.85 L 17.08,22.97 L 19.79,21.63 Z" fill="#5e614f" stroke="none" /><path d="M 28.82,16.00 L 25.22,17.78 L 25.22,18.89 L 28.82,17.11 Z" fill="#5e614f" stroke="none" /><path d="M 21.60,10.78 L 17.11,13.01 L 17.08,13.04 L 17.08,14.09 L 17.15,14.09 L 21.60,11.86 Z" fill="#5e614f" stroke="none" /><path d="M 25.22,8.97 L 23.41,9.86 L 23.41,10.94 L 25.22,10.05 Z" fill="#5e614f" stroke="none" /><path d="M 9.92,28.72 L 9.92,29.77 L 11.67,30.66 L 11.74,30.66 L 11.74,29.61 L 9.99,28.72 Z" fill="#7c7857" stroke="none" /><path d="M 4.49,25.99 L 4.49,27.07 L 6.27,27.96 L 6.30,27.96 L 6.30,26.94 L 6.33,26.91 L 7.22,27.36 L 7.22,26.31 L 7.25,26.27 L 8.11,26.72 L 8.11,27.80 L 8.97,28.25 L 9.03,28.25 L 9.03,27.17 L 8.11,26.69 L 8.11,25.57 L 7.28,25.16 L 7.22,25.16 L 7.22,26.21 L 7.19,26.24 L 6.30,25.80 L 6.30,26.85 L 6.27,26.88 Z" fill="#7c7857" stroke="none" /><path d="M 0.89,24.21 L 0.89,25.26 L 2.67,26.15 L 2.67,25.07 L 0.95,24.21 Z" fill="#7c7857" stroke="none" /><path d="M 6.30,19.15 L 6.30,20.26 L 7.16,20.68 L 7.22,20.74 L 7.22,22.93 L 8.08,23.38 L 8.11,23.38 L 8.11,21.22 L 8.14,21.18 L 8.97,21.60 L 9.03,21.60 L 9.03,20.58 L 9.10,20.55 L 10.78,21.41 L 10.85,21.41 L 10.85,20.29 L 9.07,19.40 L 9.03,19.40 L 9.03,20.45 L 8.97,20.49 L 8.17,20.07 L 8.11,20.07 L 8.11,21.09 L 8.05,21.12 L 7.28,20.74 L 7.22,20.68 L 7.22,19.59 Z" fill="#7c7857" stroke="none" /><path d="M 13.61,18.35 L 13.55,18.35 L 13.55,20.49 L 13.49,20.52 L 12.69,20.10 L 12.63,20.10 L 12.63,21.15 L 12.60,21.18 L 11.80,20.77 L 11.74,20.77 L 11.74,21.88 L 12.56,22.30 L 12.63,22.30 L 12.63,21.25 L 12.66,21.22 L 13.55,21.66 L 13.55,20.61 L 13.58,20.58 L 14.35,20.96 L 14.41,20.96 L 14.41,18.77 Z" fill="#7c7857" stroke="none" /><path d="M 2.67,16.22 L 2.67,17.34 L 2.70,17.37 L 5.41,18.70 L 5.41,17.59 L 5.38,17.56 Z" fill="#7c7857" stroke="none" /><path d="M 0.00,13.77 L 0.00,14.89 L 0.83,15.30 L 0.89,15.36 L 0.89,16.45 L 1.78,16.89 L 1.78,15.78 L 0.95,15.36 L 0.89,15.30 L 0.89,14.22 Z" fill="#7c7857" stroke="none" /><path d="M 12.63,13.49 L 12.63,14.57 L 13.55,15.01 L 13.55,13.93 Z" fill="#7c7857" stroke="none" /><path d="M 0.00,7.19 L 0.00,8.24 L 0.89,8.68 L 0.89,7.60 L 0.06,7.19 Z" fill="#7c7857" stroke="none" /><path d="M 2.67,25.10 L 2.67,26.15 L 4.42,27.04 L 4.49,27.04 L 4.49,25.99 L 2.74,25.10 Z" fill="#848460" stroke="none" /><path d="M 7.22,22.93 L 7.22,25.16 L 8.05,25.57 L 8.11,25.57 L 8.11,23.38 Z" fill="#848460" stroke="none" /><path d="M 10.85,20.33 L 10.85,21.44 L 11.67,21.85 L 11.74,21.85 L 11.74,20.74 L 10.91,20.33 Z" fill="#848460" stroke="none" /><path d="M 1.78,15.78 L 1.78,16.89 L 2.67,17.34 L 2.67,16.22 Z" fill="#848460" stroke="none" /><path d="M 13.55,15.01 L 13.55,18.35 L 14.41,18.77 L 14.41,15.43 Z" fill="#848460" stroke="none" /><path d="M 9.03,27.17 L 9.03,28.28 L 14.41,30.95 L 14.41,28.72 L 12.69,27.86 L 12.63,27.86 L 12.63,28.91 L 12.60,28.95 L 10.85,28.06 L 10.85,27.01 L 10.88,26.97 L 11.67,27.39 L 11.74,27.39 L 11.74,26.27 L 10.91,25.86 L 10.85,25.86 L 10.85,26.91 L 10.82,26.94 L 9.92,26.50 L 9.92,27.55 L 9.89,27.58 Z" fill="#898960" stroke="none" /><path d="M 1.78,23.54 L 1.78,24.65 L 6.23,26.88 L 6.30,26.88 L 6.30,25.86 L 6.33,25.83 L 7.16,26.24 L 7.22,26.24 L 7.22,24.02 L 6.30,23.57 L 6.30,25.73 L 6.27,25.77 L 3.59,24.43 L 3.59,23.38 L 3.63,23.35 L 5.41,24.24 L 5.41,23.13 L 3.66,22.23 L 3.59,22.23 L 3.59,23.28 L 3.56,23.32 L 2.67,22.87 L 2.67,23.92 L 2.64,23.95 Z" fill="#898960" stroke="none" /><path d="M 0.00,21.53 L 0.00,22.65 L 0.89,23.09 L 0.89,21.98 Z" fill="#898960" stroke="none" /><path d="M 9.03,18.29 L 9.03,19.40 L 9.07,19.44 L 12.56,21.18 L 12.63,21.18 L 12.63,20.07 Z" fill="#898960" stroke="none" /><path d="M 0.89,13.11 L 0.89,15.33 L 0.92,15.36 L 7.16,18.48 L 7.22,18.48 L 7.22,17.43 L 7.25,17.40 L 8.05,17.81 L 8.11,17.81 L 8.11,16.70 L 6.30,15.81 L 6.30,16.86 L 6.23,16.89 L 1.84,14.70 L 1.78,14.63 L 1.78,13.55 Z" fill="#898960" stroke="none" /><path d="M 1.78,11.36 L 1.78,12.47 L 2.61,12.88 L 2.67,12.88 L 2.67,11.77 L 1.84,11.36 Z" fill="#898960" stroke="none" /><path d="M 14.41,26.53 L 13.61,26.12 L 13.55,26.12 L 13.55,27.13 L 13.52,27.17 L 12.69,26.75 L 12.63,26.75 L 12.63,27.80 L 12.60,27.83 L 10.91,26.97 L 10.85,26.97 L 10.85,28.09 L 12.56,28.95 L 12.63,28.95 L 12.63,27.90 L 12.66,27.86 L 14.35,28.72 L 14.41,28.72 Z" fill="#8e926a" stroke="none" /><path d="M 9.03,23.86 L 9.03,24.87 L 9.00,24.91 L 8.17,24.49 L 8.11,24.49 L 8.11,26.72 L 9.92,27.61 L 9.92,25.45 L 9.99,25.42 L 10.78,25.83 L 10.85,25.83 L 10.85,24.75 L 9.10,23.86 Z" fill="#8e926a" stroke="none" /><path d="M 5.41,22.04 L 5.41,24.24 L 6.30,24.68 L 6.30,23.63 L 6.33,23.60 L 7.16,24.02 L 7.22,24.02 L 7.22,22.93 L 5.47,22.04 Z" fill="#8e926a" stroke="none" /><path d="M 8.11,21.15 L 8.11,22.27 L 8.97,22.71 L 9.03,22.71 L 9.03,21.60 Z" fill="#8e926a" stroke="none" /><path d="M 6.30,20.26 L 6.30,21.38 L 7.22,21.82 L 7.22,20.71 L 6.36,20.26 Z" fill="#8e926a" stroke="none" /><path d="M 3.59,20.01 L 3.59,21.12 L 4.49,21.57 L 4.49,20.45 Z" fill="#8e926a" stroke="none" /><path d="M 0.00,20.42 L 0.00,21.53 L 0.83,21.95 L 0.89,22.01 L 0.89,23.03 L 0.86,23.06 L 0.00,22.65 L 0.00,23.76 L 1.72,24.62 L 1.78,24.62 L 1.78,23.60 L 1.84,23.57 L 2.67,23.98 L 2.67,22.93 L 2.74,22.90 L 3.59,23.35 L 3.59,24.46 L 4.42,24.87 L 4.49,24.87 L 4.49,23.76 L 3.59,23.32 L 3.59,22.20 L 2.67,21.76 L 2.67,22.81 L 2.61,22.84 L 0.95,22.01 L 0.89,21.95 L 0.89,20.93 L 0.92,20.90 L 1.78,21.31 L 1.78,20.20 L 0.95,19.79 L 0.89,19.79 L 0.89,20.80 L 0.86,20.83 Z" fill="#8e926a" stroke="none" /><path d="M 7.22,11.86 L 7.22,12.95 L 8.11,13.39 L 8.11,12.28 L 7.28,11.86 Z" fill="#8e926a" stroke="none" /><path d="M 0.00,11.58 L 0.00,13.77 L 0.03,13.81 L 0.89,14.22 L 0.89,13.17 L 0.95,13.14 L 1.72,13.52 L 1.78,13.58 L 1.78,14.66 L 2.67,15.11 L 2.67,14.00 L 1.84,13.58 L 1.78,13.52 L 1.78,11.39 L 1.81,11.36 L 2.67,11.80 L 2.67,12.91 L 5.41,14.28 L 5.41,15.30 L 5.38,15.33 L 4.55,14.92 L 4.49,14.92 L 4.49,16.03 L 6.30,16.92 L 6.30,15.87 L 6.33,15.84 L 7.16,16.25 L 7.22,16.25 L 7.22,15.24 L 7.25,15.20 L 8.05,15.59 L 8.11,15.65 L 8.11,17.78 L 8.08,17.81 L 7.28,17.40 L 7.22,17.40 L 7.22,18.51 L 9.03,19.40 L 9.03,18.35 L 9.10,18.32 L 13.55,20.55 L 13.55,17.21 L 12.69,16.80 L 12.63,16.73 L 12.63,15.71 L 12.66,15.68 L 13.49,16.10 L 13.55,16.10 L 13.55,15.01 L 13.52,14.98 L 12.69,14.57 L 12.63,14.57 L 12.63,15.59 L 12.60,15.62 L 11.74,15.20 L 11.74,16.32 L 12.56,16.73 L 12.63,16.80 L 12.63,17.81 L 12.56,17.84 L 11.74,17.43 L 11.74,18.48 L 11.71,18.51 L 9.10,17.21 L 9.03,17.15 L 9.03,16.06 L 8.17,15.65 L 8.11,15.59 L 8.11,14.50 L 8.08,14.47 L 6.36,13.61 L 6.30,13.61 L 6.30,14.66 L 6.27,14.70 L 5.44,14.28 L 5.41,14.25 L 5.41,13.14 L 2.67,11.77 L 2.67,10.66 L 1.84,10.24 L 1.78,10.24 L 1.78,11.29 L 1.75,11.32 L 0.95,10.91 L 0.89,10.91 L 0.89,11.96 L 0.86,11.99 L 0.06,11.58 Z" fill="#8e926a" stroke="none" /><path d="M 0.00,8.24 L 0.00,9.35 L 0.83,9.77 L 0.89,9.77 L 0.89,8.68 Z" fill="#8e926a" stroke="none" /><path d="M 11.74,24.08 L 11.74,25.13 L 11.71,25.16 L 10.85,24.75 L 10.85,25.86 L 12.56,26.72 L 12.63,26.72 L 12.63,25.70 L 12.66,25.67 L 13.49,26.08 L 13.55,26.08 L 13.55,24.97 Z" fill="#97a170" stroke="none" /><path d="M 8.11,22.27 L 8.11,23.38 L 8.97,23.83 L 9.03,23.83 L 9.03,22.71 Z" fill="#97a170" stroke="none" /><path d="M 9.92,20.96 L 9.92,22.08 L 10.85,22.52 L 10.85,21.41 Z" fill="#97a170" stroke="none" /><path d="M 0.89,20.87 L 0.89,21.98 L 1.78,22.43 L 1.78,21.31 Z" fill="#97a170" stroke="none" /><path d="M 2.67,20.68 L 2.67,21.76 L 4.42,22.65 L 4.49,22.65 L 4.49,21.63 L 4.52,21.60 L 6.23,22.46 L 6.30,22.46 L 6.30,21.34 L 4.52,20.45 L 4.49,20.45 L 4.49,21.50 L 4.45,21.53 L 2.74,20.68 Z" fill="#97a170" stroke="none" /><path d="M 0.89,16.45 L 0.89,17.56 L 2.64,18.42 L 2.67,18.45 L 2.67,19.56 L 3.59,20.01 L 3.59,18.89 L 2.67,18.42 L 2.67,17.34 Z" fill="#97a170" stroke="none" /><path d="M 8.11,14.50 L 8.11,15.62 L 9.92,16.54 L 9.92,17.62 L 9.96,17.65 L 10.78,18.07 L 10.85,18.07 L 10.85,17.05 L 10.88,17.02 L 11.74,17.43 L 11.74,16.32 L 10.91,15.90 L 10.85,15.84 L 10.85,14.76 L 10.82,14.73 L 9.99,14.31 L 9.92,14.31 L 9.92,15.36 L 9.89,15.40 Z" fill="#97a170" stroke="none" /><path d="M 2.67,12.91 L 2.67,14.00 L 4.42,14.89 L 4.49,14.89 L 4.49,13.81 L 2.74,12.91 Z" fill="#97a170" stroke="none" /><path d="M 10.85,12.60 L 10.85,13.68 L 11.67,14.09 L 11.74,14.09 L 11.74,13.04 Z" fill="#97a170" stroke="none" /><path d="M 9.03,11.67 L 7.25,10.78 L 7.22,10.78 L 7.22,11.80 L 7.19,11.83 L 5.41,10.94 L 5.41,11.99 L 5.38,12.02 L 4.49,11.58 L 4.49,12.69 L 6.23,13.58 L 6.30,13.58 L 6.30,12.53 L 6.33,12.50 L 7.22,12.95 L 7.22,11.90 L 7.25,11.86 L 9.03,12.76 Z" fill="#97a170" stroke="none" /><path d="M 0.00,9.35 L 0.00,10.47 L 0.83,10.88 L 0.89,10.88 L 0.89,9.77 L 0.06,9.35 Z" fill="#97a170" stroke="none" /><path d="M 1.78,9.13 L 1.78,10.24 L 2.61,10.66 L 2.67,10.66 L 2.67,9.57 Z" fill="#97a170" stroke="none" /><path d="M 9.92,25.38 L 9.92,26.50 L 10.78,26.94 L 10.85,26.94 L 10.85,25.83 Z" fill="#959c72" stroke="none" /><path d="M 4.49,23.79 L 4.49,24.91 L 6.30,25.80 L 6.30,24.68 L 4.55,23.79 Z" fill="#959c72" stroke="none" /><path d="M 4.49,21.57 L 4.49,22.68 L 5.41,23.13 L 5.41,22.01 Z" fill="#959c72" stroke="none" /><path d="M 9.03,20.52 L 9.03,23.79 L 9.00,23.83 L 8.11,23.38 L 8.11,24.49 L 9.03,24.94 L 9.03,23.89 L 9.07,23.86 L 11.71,25.19 L 11.74,25.19 L 11.74,24.14 L 11.77,24.11 L 13.52,24.97 L 13.55,25.00 L 13.55,26.05 L 13.52,26.08 L 12.63,25.64 L 12.63,26.69 L 12.60,26.72 L 11.80,26.31 L 11.74,26.31 L 11.74,27.42 L 12.56,27.83 L 12.63,27.83 L 12.63,26.78 L 12.66,26.75 L 13.55,27.20 L 13.55,26.15 L 13.58,26.12 L 14.41,26.53 L 14.41,24.30 L 9.96,22.08 L 9.92,22.04 L 9.92,20.96 Z" fill="#959c72" stroke="none" /><path d="M 0.00,17.11 L 0.00,20.42 L 0.89,20.87 L 0.89,19.82 L 0.92,19.79 L 1.78,20.23 L 1.78,22.43 L 1.81,22.46 L 2.67,22.87 L 2.67,20.71 L 2.70,20.68 L 3.59,21.12 L 3.59,20.07 L 3.66,20.04 L 6.27,21.34 L 6.30,21.38 L 6.30,22.49 L 7.22,22.93 L 7.22,21.82 L 6.30,21.34 L 6.30,19.15 L 6.27,19.12 L 5.41,18.70 L 5.41,19.75 L 5.38,19.79 L 3.59,18.89 L 3.59,19.94 L 3.53,19.98 L 2.67,19.53 L 2.67,18.42 L 0.06,17.11 Z" fill="#959c72" stroke="none" /><path d="M 9.03,16.10 L 9.03,17.18 L 9.92,17.62 L 9.92,16.51 L 9.10,16.10 Z" fill="#959c72" stroke="none" /><path d="M 7.22,15.17 L 7.22,16.29 L 8.05,16.70 L 8.11,16.70 L 8.11,15.62 Z" fill="#959c72" stroke="none" /><path d="M 1.78,12.47 L 1.78,13.55 L 2.61,13.96 L 2.67,14.03 L 2.67,15.11 L 4.42,16.00 L 4.49,16.00 L 4.49,14.95 L 4.52,14.92 L 5.41,15.36 L 5.41,14.31 L 5.44,14.28 L 6.23,14.70 L 6.30,14.70 L 6.30,13.65 L 6.33,13.61 L 9.86,15.40 L 9.92,15.40 L 9.92,14.35 L 9.96,14.31 L 10.78,14.73 L 10.85,14.79 L 10.85,15.87 L 11.67,16.29 L 11.74,16.35 L 11.74,17.37 L 11.71,17.40 L 10.85,16.99 L 10.85,18.10 L 11.67,18.51 L 11.74,18.51 L 11.74,17.50 L 11.77,17.46 L 12.63,17.88 L 12.63,16.83 L 12.66,16.80 L 13.49,17.21 L 13.55,17.21 L 13.55,16.10 L 12.69,15.68 L 12.63,15.62 L 12.63,13.49 L 11.77,13.04 L 11.74,13.04 L 11.74,14.06 L 11.71,14.09 L 8.17,12.31 L 8.11,12.31 L 8.11,13.33 L 8.08,13.36 L 6.36,12.50 L 6.30,12.50 L 6.30,13.55 L 6.27,13.58 L 5.47,13.17 L 5.41,13.17 L 5.41,14.22 L 5.38,14.25 L 4.49,13.81 L 4.49,14.85 L 4.45,14.89 L 2.74,14.03 L 2.67,13.96 L 2.67,12.88 L 1.84,12.47 Z" fill="#959c72" stroke="none" /><path d="M 0.89,7.63 L 0.89,10.85 L 0.86,10.88 L 0.06,10.47 L 0.00,10.47 L 0.00,11.58 L 0.83,11.99 L 0.89,11.99 L 0.89,10.94 L 0.92,10.91 L 1.72,11.32 L 1.78,11.32 L 1.78,9.19 L 1.84,9.16 L 2.61,9.54 L 2.67,9.61 L 2.67,11.80 L 4.45,12.69 L 4.49,12.69 L 4.49,11.64 L 4.52,11.61 L 5.34,12.02 L 5.41,12.02 L 5.41,10.94 L 5.38,10.91 L 2.74,9.61 L 2.67,9.54 L 2.67,8.49 L 0.95,7.63 Z" fill="#959c72" stroke="none" /><path d="M 13.55,13.93 L 13.55,13.96 L 14.38,14.38 L 14.44,14.38 L 15.27,13.96 L 15.27,13.93 L 14.44,13.52 L 14.38,13.52 Z" fill="#a7a073" stroke="none" /><path d="M 9.89,10.34 L 8.97,9.89 L 7.25,10.75 L 7.25,10.82 L 8.97,11.67 L 9.10,11.67 L 9.86,11.29 L 9.86,11.23 L 9.03,10.82 L 9.10,10.75 L 9.89,10.37 Z" fill="#a7a073" stroke="none" /><path d="M 17.11,6.71 L 16.29,6.30 L 16.16,6.30 L 14.41,7.19 L 13.55,6.74 L 13.46,6.74 L 12.63,7.16 L 12.63,7.22 L 13.46,7.63 L 13.39,7.70 L 12.60,8.08 L 12.60,8.11 L 13.52,8.56 L 17.08,6.78 Z" fill="#a7a073" stroke="none" /><path d="M 3.53,6.27 L 2.74,5.85 L 2.64,5.85 L 0.03,7.16 L 0.03,7.19 L 0.83,7.60 L 0.92,7.60 L 3.53,6.30 Z" fill="#a7a073" stroke="none" /><path d="M 20.77,4.01 L 20.77,4.04 L 21.60,4.45 L 21.73,4.45 L 22.49,4.07 L 22.49,4.01 L 21.66,3.59 L 21.57,3.59 Z" fill="#a7a073" stroke="none" /><path d="M 8.94,3.53 L 8.17,3.15 L 8.05,3.15 L 4.55,4.90 L 4.52,4.96 L 5.38,5.38 L 7.13,4.49 L 7.19,4.49 L 8.08,4.93 L 8.97,4.49 L 8.97,4.45 L 8.17,4.07 L 8.11,4.01 L 8.94,3.59 Z" fill="#a7a073" stroke="none" /><path d="M 13.58,0.38 L 13.58,0.45 L 14.35,0.83 L 14.47,0.83 L 15.24,0.45 L 15.24,0.38 L 14.47,0.00 L 14.35,0.00 Z" fill="#a7a073" stroke="none" /><path d="M 10.85,21.44 L 10.85,22.52 L 10.88,22.55 L 14.41,24.30 L 14.41,23.19 L 10.91,21.44 Z" fill="#999e81" stroke="none" /><path d="M 2.67,17.34 L 2.67,18.45 L 5.34,19.79 L 5.41,19.79 L 5.41,18.70 L 5.38,18.67 Z" fill="#999e81" stroke="none" /><path d="M 0.00,16.00 L 0.00,17.11 L 0.83,17.53 L 0.89,17.53 L 0.89,16.45 Z" fill="#999e81" stroke="none" /><path d="M 9.03,11.71 L 9.03,12.76 L 10.78,13.65 L 10.85,13.65 L 10.85,12.60 L 9.10,11.71 Z" fill="#999e81" stroke="none" /><path d="M 2.67,8.52 L 2.67,9.57 L 2.70,9.61 L 7.16,11.83 L 7.22,11.83 L 7.22,10.78 L 7.19,10.75 L 2.74,8.52 Z" fill="#999e81" stroke="none" /><path d="M 14.44,13.49 L 14.44,13.55 L 15.20,13.93 L 15.33,13.93 L 16.16,13.52 L 16.13,13.46 L 15.36,13.07 L 15.27,13.07 Z" fill="#c0b986" stroke="none" /><path d="M 9.86,9.45 L 9.00,9.89 L 9.00,9.92 L 9.83,10.34 L 9.80,10.40 L 9.00,10.78 L 9.00,10.82 L 9.86,11.26 L 9.03,11.67 L 9.03,11.71 L 10.85,12.60 L 11.67,12.18 L 11.67,12.15 L 9.92,11.26 L 10.78,10.82 L 10.78,10.78 L 9.96,10.37 L 9.99,10.31 L 10.78,9.92 L 10.78,9.89 L 9.92,9.45 Z" fill="#c0b986" stroke="none" /><path d="M 27.10,7.16 L 27.13,7.22 L 27.90,7.60 L 27.99,7.60 L 28.79,7.19 L 28.79,7.16 L 27.96,6.74 Z" fill="#c0b986" stroke="none" /><path d="M 10.82,9.00 L 11.67,9.45 L 11.74,9.45 L 13.46,8.59 L 13.49,8.52 L 12.69,8.14 L 12.66,8.08 L 13.49,7.67 L 13.49,7.63 L 12.63,7.19 L 13.49,6.74 L 14.38,7.19 L 14.44,7.19 L 15.27,6.78 L 15.30,6.71 L 14.47,6.30 L 14.35,6.30 L 13.55,6.71 L 13.46,6.71 L 11.71,5.82 L 10.78,6.27 L 10.78,6.30 L 12.56,7.19 L 11.71,7.63 L 11.71,7.67 L 12.50,8.05 L 12.53,8.11 L 10.82,8.97 Z" fill="#c0b986" stroke="none" /><path d="M 19.82,5.34 L 18.99,4.93 L 18.89,4.93 L 16.22,6.27 L 16.22,6.30 L 17.15,6.74 L 19.82,5.41 Z" fill="#c0b986" stroke="none" /><path d="M 5.34,5.34 L 4.49,4.93 L 2.70,5.82 L 2.70,5.85 L 3.50,6.27 L 3.59,6.27 L 5.31,5.41 Z" fill="#c0b986" stroke="none" /><path d="M 19.85,4.45 L 19.85,4.49 L 20.74,4.93 L 21.63,4.49 L 21.69,4.49 L 22.55,4.93 L 23.41,4.52 L 23.38,4.45 L 22.55,4.04 L 22.49,4.04 L 21.69,4.45 L 21.63,4.45 L 20.74,4.01 Z" fill="#c0b986" stroke="none" /><path d="M 10.78,2.64 L 9.96,2.23 L 9.89,2.23 L 8.11,3.12 L 8.11,3.15 L 8.94,3.56 L 8.08,4.01 L 8.08,4.04 L 8.87,4.42 L 8.91,4.45 L 8.87,4.52 L 8.11,4.90 L 8.02,4.90 L 7.22,4.49 L 7.09,4.49 L 6.27,4.90 L 6.27,4.93 L 7.13,5.38 L 7.19,5.38 L 8.05,4.93 L 8.94,5.38 L 9.00,5.38 L 9.83,4.96 L 9.86,4.90 L 9.07,4.52 L 9.03,4.45 L 9.86,4.04 L 9.86,4.01 L 9.00,3.56 L 10.78,2.67 Z" fill="#c0b986" stroke="none" /><path d="M 14.41,0.83 L 13.58,0.41 L 13.52,0.41 L 11.74,1.30 L 11.74,1.34 L 12.56,1.75 L 12.63,1.75 L 14.41,0.86 Z" fill="#c0b986" stroke="none" /><path d="M 14.38,8.97 L 13.55,8.56 L 13.46,8.56 L 9.89,10.34 L 9.89,10.37 L 10.82,10.82 L 14.38,9.03 Z" fill="#d3d393" stroke="none" /><path d="M 22.55,6.71 L 22.55,6.74 L 23.44,7.19 L 24.37,6.74 L 24.37,6.71 L 23.48,6.27 Z" fill="#d3d393" stroke="none" /><path d="M 7.13,5.34 L 6.30,4.93 L 6.20,4.93 L 0.92,7.57 L 0.89,7.63 L 2.70,8.52 L 4.42,7.67 L 4.42,7.60 L 3.59,7.19 L 3.66,7.13 L 5.31,6.30 L 5.41,6.30 L 6.20,6.71 L 6.17,6.78 L 5.38,7.16 L 5.38,7.19 L 6.23,7.63 L 6.30,7.63 L 7.16,7.19 L 7.16,7.16 L 6.33,6.74 L 6.36,6.68 L 7.16,6.30 L 7.16,6.27 L 6.30,5.82 L 7.13,5.41 Z" fill="#d3d393" stroke="none" /><path d="M 23.44,5.34 L 21.73,4.49 L 21.60,4.49 L 15.36,7.60 L 15.33,7.67 L 16.13,8.05 L 16.16,8.11 L 15.33,8.52 L 15.33,8.56 L 16.22,9.00 L 18.00,8.11 L 17.97,8.05 L 17.24,7.70 L 17.18,7.63 L 17.21,7.60 L 21.66,5.38 L 22.52,5.82 L 22.58,5.82 L 23.41,5.41 Z" fill="#d3d393" stroke="none" /><path d="M 14.38,1.72 L 13.55,1.30 L 13.46,1.30 L 9.00,3.53 L 9.00,3.59 L 9.83,4.01 L 9.77,4.07 L 8.97,4.45 L 8.97,4.49 L 10.75,5.38 L 10.82,5.38 L 11.64,4.96 L 11.67,4.90 L 9.99,4.07 L 9.92,4.01 L 12.56,2.67 L 12.63,2.67 L 13.39,3.05 L 13.46,3.12 L 11.74,3.98 L 11.71,4.04 L 12.53,4.45 L 12.66,4.45 L 14.38,3.59 L 14.38,3.53 L 13.55,3.12 L 13.61,3.05 L 14.41,2.67 L 14.41,2.64 L 13.61,2.26 L 13.55,2.19 L 14.38,1.78 Z" fill="#d3d393" stroke="none" /><path d="M 15.33,1.27 L 15.36,1.34 L 16.19,1.75 L 16.25,1.75 L 17.08,1.34 L 17.08,1.30 L 16.19,0.86 Z" fill="#d3d393" stroke="none" /><path d="M 10.85,12.56 L 10.88,12.63 L 13.49,13.93 L 13.61,13.93 L 14.38,13.55 L 14.38,13.49 L 11.71,12.15 Z" fill="#cccc94" stroke="none" /><path d="M 9.92,9.42 L 9.92,9.48 L 10.75,9.89 L 10.85,9.89 L 11.67,9.48 L 11.67,9.42 L 10.85,9.00 L 10.75,9.00 Z" fill="#cccc94" stroke="none" /><path d="M 9.00,5.34 L 9.00,5.41 L 10.72,6.27 L 10.85,6.27 L 11.67,5.85 L 11.64,5.79 L 9.92,4.93 L 9.83,4.93 Z" fill="#cccc94" stroke="none" /><path d="M 18.96,4.90 L 18.99,4.96 L 19.82,5.38 L 19.88,5.38 L 20.74,4.93 L 20.74,4.90 L 19.91,4.49 L 19.79,4.49 Z" fill="#cccc94" stroke="none" /><path d="M 12.56,1.72 L 11.80,1.34 L 11.67,1.34 L 9.96,2.19 L 9.96,2.26 L 10.72,2.64 L 10.85,2.64 L 12.56,1.78 Z" fill="#cccc94" stroke="none" /><path d="M 18.93,10.34 L 18.93,10.37 L 19.82,10.82 L 20.74,10.37 L 20.74,10.34 L 19.85,9.89 Z" fill="#dae1a3" stroke="none" /><path d="M 17.08,9.42 L 15.40,8.59 L 15.36,8.56 L 15.43,8.49 L 16.22,8.11 L 16.22,8.08 L 15.30,7.63 L 13.52,8.52 L 13.55,8.59 L 14.35,8.97 L 14.38,9.00 L 14.35,9.03 L 9.92,11.23 L 9.92,11.29 L 12.53,12.60 L 12.66,12.60 L 13.46,12.18 L 13.55,12.18 L 14.31,12.56 L 14.35,12.63 L 13.52,13.04 L 13.52,13.07 L 14.38,13.52 L 14.44,13.52 L 15.30,13.07 L 15.30,13.04 L 14.47,12.63 L 14.50,12.56 L 15.30,12.18 L 15.30,12.15 L 14.44,11.71 L 14.38,11.71 L 13.52,12.15 L 12.66,11.74 L 12.63,11.71 L 12.66,11.67 L 13.49,11.26 L 13.49,11.23 L 12.69,10.85 L 12.66,10.78 L 15.30,9.45 L 16.16,9.89 L 16.25,9.89 L 17.08,9.48 Z" fill="#dae1a3" stroke="none" /><path d="M 10.82,7.16 L 10.82,7.22 L 11.64,7.63 L 11.74,7.63 L 12.56,7.22 L 12.56,7.16 L 11.74,6.74 L 11.64,6.74 Z" fill="#dae1a3" stroke="none" /><path d="M 26.18,6.71 L 26.18,6.74 L 27.07,7.19 L 27.93,6.78 L 27.90,6.71 L 27.07,6.30 L 27.01,6.30 Z" fill="#dae1a3" stroke="none" /><path d="M 6.27,6.71 L 5.34,6.27 L 3.56,7.16 L 3.59,7.22 L 4.42,7.63 L 2.70,8.49 L 2.70,8.52 L 4.45,9.42 L 4.55,9.42 L 5.31,9.03 L 5.34,8.97 L 4.55,8.59 L 4.52,8.52 L 5.34,8.11 L 5.34,8.08 L 4.49,7.63 L 6.27,6.74 Z" fill="#dae1a3" stroke="none" /><path d="M 12.60,6.27 L 12.60,6.30 L 13.49,6.74 L 14.41,6.30 L 14.41,6.27 L 13.52,5.82 Z" fill="#dae1a3" stroke="none" /><path d="M 20.77,5.82 L 20.77,5.85 L 21.60,6.27 L 21.69,6.27 L 22.52,5.85 L 22.52,5.79 L 21.69,5.38 L 21.63,5.38 Z" fill="#dae1a3" stroke="none" /><path d="M 8.02,4.93 L 6.30,5.79 L 6.30,5.85 L 7.98,6.68 L 8.02,6.71 L 7.98,6.78 L 7.19,7.16 L 7.19,7.19 L 8.05,7.63 L 8.11,7.63 L 9.86,6.74 L 9.86,6.71 L 9.03,6.30 L 9.07,6.23 L 9.86,5.85 L 9.86,5.82 L 8.11,4.93 Z" fill="#dae1a3" stroke="none" /><path d="M 25.22,5.38 L 23.41,4.49 L 22.58,4.90 L 22.62,4.96 L 23.35,5.31 L 23.41,5.38 L 22.58,5.79 L 22.58,5.85 L 24.27,6.68 L 24.30,6.71 L 24.27,6.78 L 23.51,7.16 L 23.41,7.16 L 22.62,6.74 L 22.49,6.74 L 19.85,8.08 L 18.96,7.63 L 19.82,7.19 L 19.82,7.16 L 18.99,6.74 L 18.89,6.74 L 17.18,7.60 L 17.15,7.67 L 17.97,8.08 L 17.91,8.14 L 17.11,8.52 L 17.11,8.56 L 17.91,8.94 L 17.97,9.00 L 17.15,9.42 L 17.15,9.48 L 17.97,9.89 L 18.07,9.89 L 19.82,9.00 L 19.82,8.97 L 18.99,8.56 L 19.02,8.49 L 19.79,8.11 L 19.88,8.11 L 20.68,8.52 L 20.80,8.52 L 23.44,7.19 L 24.33,7.63 L 24.40,7.63 L 25.22,7.22 L 25.26,7.16 L 24.46,6.78 L 24.43,6.71 L 25.26,6.30 L 25.26,6.27 L 24.40,5.82 L 25.22,5.41 Z" fill="#dae1a3" stroke="none" /><path d="M 14.41,4.45 L 14.41,4.49 L 15.30,4.93 L 16.22,4.49 L 16.22,4.45 L 15.33,4.01 Z" fill="#dae1a3" stroke="none" /><path d="M 10.78,4.45 L 10.78,4.49 L 11.58,4.87 L 11.64,4.93 L 10.82,5.34 L 10.82,5.41 L 11.64,5.82 L 11.74,5.82 L 13.49,4.93 L 13.49,4.90 L 11.71,4.01 Z" fill="#dae1a3" stroke="none" /><path d="M 17.02,1.34 L 16.25,1.72 L 16.25,1.78 L 17.08,2.19 L 17.02,2.26 L 16.22,2.64 L 16.22,2.67 L 17.15,3.12 L 18.04,2.67 L 18.04,2.64 L 17.24,2.26 L 17.18,2.19 L 17.94,1.81 L 17.97,1.75 L 17.15,1.34 Z" fill="#dae1a3" stroke="none" /><path d="M 16.16,0.86 L 15.30,0.41 L 15.24,0.41 L 13.52,1.27 L 13.55,1.34 L 14.38,1.75 L 13.52,2.19 L 13.52,2.23 L 14.31,2.61 L 14.35,2.67 L 13.55,3.09 L 13.46,3.09 L 12.66,2.67 L 12.53,2.67 L 11.71,3.09 L 11.71,3.12 L 12.56,3.56 L 12.63,3.56 L 13.49,3.12 L 14.38,3.56 L 14.44,3.56 L 15.27,3.15 L 15.30,3.09 L 14.50,2.70 L 14.47,2.64 L 16.19,1.78 L 16.19,1.72 L 15.36,1.30 L 15.43,1.24 L 16.16,0.89 Z" fill="#dae1a3" stroke="none" /><path d="M 17.97,12.56 L 17.11,12.15 L 16.22,12.60 L 16.22,12.63 L 17.05,13.04 L 17.11,13.04 L 17.94,12.63 Z" fill="#e9f8ad" stroke="none" /><path d="M 18.00,9.89 L 17.15,9.45 L 17.08,9.45 L 15.33,10.34 L 14.44,9.89 L 14.38,9.89 L 13.52,10.34 L 13.52,10.37 L 14.35,10.78 L 14.31,10.85 L 13.52,11.23 L 13.52,11.26 L 14.38,11.71 L 14.44,11.71 L 15.30,11.26 L 16.19,11.71 L 16.25,11.71 L 17.11,11.26 L 17.11,11.23 L 16.32,10.85 L 16.29,10.78 L 18.00,9.92 Z" fill="#e9f8ad" stroke="none" /><path d="M 22.55,8.52 L 21.63,8.08 L 19.85,8.97 L 19.88,9.03 L 20.71,9.45 L 19.85,9.89 L 19.85,9.92 L 20.64,10.31 L 20.68,10.37 L 18.96,11.23 L 18.96,11.29 L 19.72,11.67 L 19.85,11.67 L 21.57,10.82 L 21.57,10.75 L 20.83,10.40 L 20.80,10.34 L 22.52,9.48 L 22.52,9.42 L 21.69,9.00 L 21.76,8.94 L 22.55,8.56 Z" fill="#e9f8ad" stroke="none" /><path d="M 9.89,8.52 L 9.89,8.56 L 10.78,9.00 L 11.71,8.56 L 11.71,8.52 L 10.82,8.08 Z" fill="#e9f8ad" stroke="none" /><path d="M 24.40,7.60 L 24.40,7.67 L 25.22,8.08 L 25.32,8.08 L 26.15,7.67 L 26.15,7.60 L 25.32,7.19 L 25.22,7.19 Z" fill="#e9f8ad" stroke="none" /><path d="M 8.05,7.60 L 7.22,7.19 L 7.13,7.19 L 5.41,8.05 L 5.38,8.11 L 6.17,8.49 L 6.20,8.56 L 5.38,8.97 L 5.38,9.00 L 6.23,9.45 L 6.30,9.45 L 8.08,8.56 L 8.08,8.52 L 7.28,8.14 L 7.22,8.08 L 8.05,7.67 Z" fill="#e9f8ad" stroke="none" /><path d="M 9.89,6.71 L 9.92,6.78 L 10.75,7.19 L 10.82,7.19 L 11.67,6.74 L 11.67,6.71 L 10.85,6.30 L 10.72,6.30 Z" fill="#e9f8ad" stroke="none" /><path d="M 22.55,6.71 L 21.63,6.27 L 19.85,7.16 L 19.85,7.19 L 20.71,7.63 L 20.77,7.63 L 22.55,6.74 Z" fill="#e9f8ad" stroke="none" /><path d="M 25.29,6.27 L 25.29,6.30 L 26.12,6.71 L 26.24,6.71 L 27.01,6.33 L 27.01,6.27 L 26.18,5.85 L 26.08,5.85 Z" fill="#e9f8ad" stroke="none" /><path d="M 20.74,4.01 L 19.88,3.56 L 19.82,3.56 L 18.07,4.45 L 18.00,4.45 L 17.11,4.01 L 16.22,4.45 L 16.22,4.49 L 17.11,4.93 L 18.00,4.49 L 18.07,4.49 L 18.96,4.93 L 20.74,4.04 Z" fill="#e9f8ad" stroke="none" /><path d="M 16.19,3.53 L 15.36,3.12 L 15.27,3.12 L 13.55,3.98 L 13.52,4.04 L 14.31,4.42 L 14.35,4.49 L 12.63,5.34 L 12.63,5.41 L 13.46,5.82 L 13.55,5.82 L 15.27,4.96 L 15.30,4.90 L 14.50,4.52 L 14.47,4.45 L 16.19,3.59 Z" fill="#e9f8ad" stroke="none" /><path d="M 15.33,2.19 L 15.33,2.23 L 16.16,2.64 L 16.29,2.64 L 17.11,2.23 L 17.08,2.16 L 16.25,1.75 L 16.19,1.75 Z" fill="#e9f8ad" stroke="none" /><path d="M 14.44,9.86 L 14.44,9.92 L 15.27,10.34 L 15.36,10.34 L 16.19,9.92 L 16.16,9.86 L 15.33,9.45 L 15.27,9.45 Z" fill="#e5f1b0" stroke="none" /><path d="M 16.22,8.97 L 16.25,9.03 L 17.08,9.45 L 17.15,9.45 L 18.00,9.00 L 18.00,8.97 L 17.18,8.56 L 17.05,8.56 Z" fill="#e5f1b0" stroke="none" /><path d="M 6.27,6.71 L 6.27,6.74 L 7.16,7.19 L 8.08,6.74 L 8.08,6.71 L 7.19,6.27 Z" fill="#e5f1b0" stroke="none" /><path d="M 23.44,6.27 L 22.58,5.82 L 22.52,5.82 L 21.66,6.27 L 20.74,5.82 L 18.96,6.71 L 18.99,6.78 L 19.72,7.13 L 19.79,7.19 L 18.96,7.60 L 18.96,7.67 L 19.79,8.08 L 19.72,8.14 L 18.93,8.52 L 18.93,8.56 L 19.72,8.94 L 19.79,9.00 L 19.75,9.03 L 16.22,10.78 L 16.22,10.82 L 17.02,11.20 L 17.08,11.26 L 16.22,11.71 L 15.36,11.26 L 15.27,11.26 L 14.44,11.67 L 14.44,11.74 L 15.27,12.15 L 15.20,12.21 L 14.44,12.60 L 14.38,12.60 L 13.61,12.21 L 13.55,12.15 L 14.38,11.74 L 14.38,11.67 L 13.55,11.26 L 13.61,11.20 L 14.41,10.82 L 14.41,10.78 L 13.52,10.34 L 12.60,10.78 L 12.60,10.82 L 13.39,11.20 L 13.46,11.26 L 12.63,11.67 L 12.63,11.74 L 13.46,12.15 L 13.39,12.21 L 12.60,12.60 L 12.60,12.63 L 13.49,13.07 L 14.38,12.63 L 14.44,12.63 L 16.13,13.49 L 16.22,13.49 L 17.05,13.07 L 17.05,13.01 L 16.32,12.66 L 16.29,12.63 L 16.32,12.56 L 19.79,10.85 L 19.82,10.78 L 19.02,10.40 L 18.99,10.34 L 20.71,9.48 L 20.71,9.42 L 19.88,9.00 L 19.94,8.94 L 20.74,8.56 L 20.74,8.52 L 19.94,8.14 L 19.88,8.08 L 20.71,7.67 L 20.71,7.60 L 19.88,7.19 L 19.94,7.13 L 21.60,6.30 L 21.69,6.30 L 22.49,6.71 L 22.62,6.71 L 23.44,6.30 Z" fill="#e5f1b0" stroke="none" /><path d="M 12.60,8.08 L 9.96,6.78 L 9.92,6.74 L 9.99,6.68 L 10.78,6.30 L 10.78,6.27 L 9.86,5.82 L 8.97,6.27 L 8.97,6.30 L 9.77,6.68 L 9.83,6.74 L 7.22,8.05 L 7.19,8.11 L 7.98,8.49 L 8.02,8.56 L 6.27,9.45 L 5.41,9.00 L 5.47,8.94 L 6.27,8.56 L 6.27,8.52 L 5.47,8.14 L 5.41,8.08 L 6.23,7.67 L 6.23,7.60 L 5.41,7.19 L 5.31,7.19 L 4.49,7.60 L 4.49,7.67 L 5.31,8.08 L 5.25,8.14 L 4.45,8.52 L 4.45,8.56 L 5.25,8.94 L 5.31,9.00 L 4.55,9.38 L 4.52,9.45 L 6.33,10.34 L 10.75,8.11 L 10.85,8.11 L 11.64,8.52 L 11.77,8.52 L 12.60,8.11 Z" fill="#e5f1b0" stroke="none" /><path d="M 27.93,7.60 L 25.38,6.33 L 25.32,6.27 L 25.35,6.23 L 26.08,5.88 L 26.12,5.82 L 25.29,5.41 L 25.16,5.41 L 24.40,5.79 L 24.40,5.85 L 25.22,6.27 L 25.16,6.33 L 24.37,6.71 L 24.37,6.74 L 26.15,7.63 L 25.26,8.08 L 23.51,7.19 L 23.41,7.19 L 21.66,8.08 L 21.66,8.11 L 22.49,8.52 L 22.46,8.59 L 21.66,8.97 L 21.66,9.00 L 22.52,9.45 L 22.58,9.45 L 25.22,8.11 L 25.32,8.11 L 26.15,8.52 L 27.93,7.63 Z" fill="#e5f1b0" stroke="none" /><path d="M 12.60,4.45 L 12.60,4.49 L 13.49,4.93 L 14.41,4.49 L 14.41,4.45 L 13.52,4.01 Z" fill="#e5f1b0" stroke="none" /><path d="M 12.56,3.53 L 11.74,3.12 L 11.64,3.12 L 9.92,3.98 L 9.89,4.04 L 10.72,4.45 L 10.85,4.45 L 12.56,3.59 Z" fill="#e5f1b0" stroke="none" /><path d="M 20.71,3.12 L 18.04,1.78 L 17.94,1.78 L 17.15,2.19 L 17.15,2.23 L 17.97,2.64 L 17.94,2.70 L 17.18,3.09 L 17.08,3.09 L 15.30,2.19 L 14.41,2.64 L 14.41,2.67 L 16.19,3.56 L 15.33,4.01 L 15.33,4.04 L 16.13,4.42 L 16.16,4.49 L 13.52,5.82 L 12.63,5.38 L 12.56,5.38 L 11.74,5.79 L 11.71,5.85 L 12.53,6.27 L 12.66,6.27 L 13.46,5.85 L 13.55,5.85 L 15.33,6.74 L 16.22,6.30 L 16.22,6.27 L 15.43,5.88 L 15.36,5.82 L 17.11,4.93 L 17.11,4.90 L 16.32,4.52 L 16.29,4.49 L 16.32,4.42 L 17.08,4.04 L 17.18,4.04 L 17.97,4.45 L 18.10,4.45 L 20.71,3.15 Z" fill="#e5f1b0" stroke="none" /><path d="M 19.79,11.67 L 18.96,11.26 L 18.89,11.26 L 17.18,12.12 L 17.15,12.18 L 18.00,12.60 L 19.79,11.71 Z" fill="#ebf3c7" stroke="none" /><path d="M 10.78,8.97 L 9.96,8.56 L 9.83,8.56 L 6.33,10.31 L 6.33,10.34 L 7.19,10.78 L 7.25,10.78 L 10.75,9.03 Z" fill="#ebf3c7" stroke="none" /><path d="M 26.12,8.49 L 25.26,8.08 L 20.74,10.34 L 20.74,10.37 L 21.57,10.78 L 21.63,10.78 L 26.08,8.56 Z" fill="#ebf3c7" stroke="none" /><path d="M 18.93,4.90 L 18.10,4.49 L 17.97,4.49 L 15.36,5.79 L 15.33,5.85 L 16.16,6.27 L 16.29,6.27 L 18.89,4.96 Z" fill="#ebf3c7" stroke="none" /><path d="M 19.88,3.53 L 19.88,3.59 L 20.71,4.01 L 20.80,4.01 L 21.60,3.59 L 21.60,3.56 L 20.77,3.15 L 20.64,3.15 Z" fill="#ebf3c7" stroke="none" /></svg>