<svg height="32" width="32" viewBox="0 0 32 32"><defs /><path d="M 15.98,13.70 L 15.98,15.98 L 18.30,15.98 L 18.30,13.70 Z" fill="#424242" stroke="none" /><path d="M 0.00,22.85 L 0.00,25.13 L 2.28,25.13 L 2.28,22.85 Z" fill="#4c4f45" stroke="none" /><path d="M 13.70,15.98 L 13.70,20.57 L 20.57,20.57 L 20.57,15.98 L 18.30,15.98 L 18.30,18.21 L 18.26,18.26 L 16.02,18.26 L 15.98,18.21 L 15.98,15.98 Z" fill="#4c4f45" stroke="none" /><path d="M 0.00,13.70 L 0.00,15.98 L 2.28,15.98 L 2.28,13.70 Z" fill="#4c4f45" stroke="none" /><path d="M 0.00,4.55 L 0.00,6.83 L 2.28,6.83 L 2.28,4.55 Z" fill="#4c4f45" stroke="none" /><path d="M 0.00,25.13 L 0.00,32.00 L 22.85,32.00 L 22.85,29.68 L 2.32,29.68 L 2.28,29.64 L 2.28,25.13 Z" fill="#786353" stroke="none" /><path d="M 0.00,15.98 L 0.00,22.85 L 2.28,22.85 L 2.28,15.98 Z" fill="#786353" stroke="none" /><path d="M 0.00,6.83 L 0.00,13.70 L 2.28,13.70 L 2.28,6.83 Z" fill="#786353" stroke="none" /><path d="M 0.00,0.00 L 0.00,4.55 L 2.28,4.55 L 2.28,0.00 Z" fill="#786353" stroke="none" /><path d="M 15.98,20.57 L 15.98,22.85 L 18.26,22.85 L 18.30,22.89 L 18.30,25.13 L 20.57,25.13 L 20.57,20.57 Z" fill="#7d7156" stroke="none" /><path d="M 15.98,15.98 L 15.98,18.26 L 18.30,18.26 L 18.30,15.98 Z" fill="#7d7156" stroke="none" /><path d="M 13.70,15.98 L 6.87,15.98 L 6.87,18.21 L 6.83,18.26 L 4.55,18.26 L 4.55,27.40 L 6.87,27.40 L 6.87,20.62 L 6.92,20.57 L 9.15,20.57 L 9.15,18.30 L 9.19,18.26 L 13.70,18.26 Z" fill="#7d7156" stroke="none" /><path d="M 15.98,11.43 L 15.98,13.70 L 18.30,13.70 L 18.30,11.43 Z" fill="#a67661" stroke="none" /><path d="M 6.87,11.43 L 6.87,13.70 L 9.15,13.70 L 9.15,11.43 Z" fill="#a67661" stroke="none" /><path d="M 15.98,2.28 L 15.98,4.55 L 18.30,4.55 L 18.30,2.28 Z" fill="#a67661" stroke="none" /><path d="M 6.87,2.28 L 6.87,4.55 L 9.15,4.55 L 9.15,2.28 Z" fill="#a67661" stroke="none" /><path d="M 6.87,20.57 L 6.87,27.40 L 9.15,27.40 L 9.15,25.17 L 9.19,25.13 L 11.38,25.13 L 11.43,25.17 L 11.43,27.40 L 20.57,27.40 L 20.57,25.13 L 18.34,25.13 L 18.30,25.08 L 18.30,22.85 L 16.02,22.85 L 15.98,22.81 L 15.98,20.57 L 13.74,20.57 L 13.70,20.53 L 13.70,18.26 L 9.15,18.26 L 9.15,20.53 L 9.11,20.57 Z" fill="#987663" stroke="none" /><path d="M 15.98,27.40 L 15.98,29.68 L 18.30,29.68 L 18.30,27.40 Z" fill="#968a68" stroke="none" /><path d="M 20.57,25.13 L 20.57,27.40 L 22.85,27.40 L 22.85,25.13 Z" fill="#968a68" stroke="none" /><path d="M 13.70,22.85 L 11.43,22.85 L 11.43,25.08 L 11.38,25.13 L 9.15,25.13 L 9.15,27.40 L 11.43,27.40 L 11.43,25.17 L 11.47,25.13 L 13.70,25.13 Z" fill="#968a68" stroke="none" /><path d="M 18.30,13.70 L 18.30,15.98 L 20.53,15.98 L 20.57,16.02 L 20.57,18.26 L 22.85,18.26 L 22.85,15.98 L 20.62,15.98 L 20.57,15.94 L 20.57,13.70 Z" fill="#968a68" stroke="none" /><path d="M 6.87,13.70 L 4.55,13.70 L 4.55,15.94 L 4.51,15.98 L 2.28,15.98 L 2.28,18.26 L 4.55,18.26 L 4.55,16.02 L 4.60,15.98 L 6.87,15.98 Z" fill="#968a68" stroke="none" /><path d="M 20.57,4.55 L 20.57,6.83 L 22.85,6.83 L 22.85,4.55 Z" fill="#968a68" stroke="none" /><path d="M 18.30,27.40 L 18.30,29.68 L 20.57,29.68 L 20.57,27.40 Z" fill="#799668" stroke="none" /><path d="M 2.28,13.70 L 2.28,15.98 L 4.55,15.98 L 4.55,13.70 Z" fill="#799668" stroke="none" /><path d="M 20.57,6.83 L 20.57,9.15 L 22.85,9.15 L 22.85,6.83 Z" fill="#799668" stroke="none" /><path d="M 20.57,27.40 L 20.57,29.68 L 22.85,29.68 L 22.85,27.40 Z" fill="#b88076" stroke="none" /><path d="M 20.57,18.26 L 20.57,25.13 L 22.85,25.13 L 22.85,18.26 Z" fill="#b88076" stroke="none" /><path d="M 6.87,13.70 L 6.87,15.94 L 6.83,15.98 L 4.55,15.98 L 4.55,18.21 L 4.51,18.26 L 2.28,18.26 L 2.28,29.68 L 15.98,29.68 L 15.98,27.40 L 4.60,27.40 L 4.55,27.36 L 4.55,18.30 L 4.60,18.26 L 6.87,18.26 L 6.87,16.02 L 6.92,15.98 L 15.98,15.98 L 15.98,13.70 Z" fill="#b88076" stroke="none" /><path d="M 20.57,9.15 L 20.57,15.98 L 22.85,15.98 L 22.85,9.15 Z" fill="#b88076" stroke="none" /><path d="M 9.15,4.55 L 9.15,6.83 L 11.38,6.83 L 11.43,6.87 L 11.43,9.11 L 11.38,9.15 L 9.15,9.15 L 9.15,11.43 L 11.43,11.43 L 11.43,9.19 L 11.47,9.15 L 13.66,9.15 L 13.70,9.19 L 13.70,11.43 L 15.98,11.43 L 15.98,9.15 L 13.74,9.15 L 13.70,9.11 L 13.70,6.87 L 13.74,6.83 L 15.98,6.83 L 15.98,4.55 L 13.70,4.55 L 13.70,6.79 L 13.66,6.83 L 11.47,6.83 L 11.43,6.79 L 11.43,4.55 Z" fill="#b88076" stroke="none" /><path d="M 2.28,13.70 L 4.55,13.70 L 4.55,2.32 L 4.60,2.28 L 20.53,2.28 L 20.57,2.32 L 20.57,4.55 L 22.85,4.55 L 22.85,0.00 L 2.28,0.00 Z" fill="#b88076" stroke="none" /></svg>