<svg height="32" width="32" viewBox="0 0 32 32"><defs /><path d="M 17.68,28.41 L 17.61,28.41 L 16.76,28.84 L 16.76,29.99 L 17.68,29.53 Z" fill="#231810" stroke="none" /><path d="M 20.48,27.00 L 19.56,27.46 L 19.56,28.58 L 19.62,28.58 L 20.48,28.15 Z" fill="#231810" stroke="none" /><path d="M 16.76,26.57 L 16.69,26.57 L 15.80,27.03 L 15.80,28.18 L 16.76,27.72 Z" fill="#231810" stroke="none" /><path d="M 22.35,26.07 L 22.29,26.07 L 21.43,26.50 L 21.43,27.65 L 22.35,27.19 Z" fill="#231810" stroke="none" /><path d="M 24.23,23.97 L 23.31,24.43 L 23.31,25.58 L 24.23,25.12 Z" fill="#231810" stroke="none" /><path d="M 29.83,23.47 L 29.76,23.47 L 28.91,23.90 L 28.91,25.02 L 29.83,24.56 Z" fill="#231810" stroke="none" /><path d="M 26.11,23.05 L 26.04,23.05 L 25.19,23.47 L 25.19,24.63 L 25.25,24.63 L 26.11,24.20 Z" fill="#231810" stroke="none" /><path d="M 17.68,22.65 L 16.76,23.11 L 16.76,24.26 L 17.68,23.80 Z" fill="#231810" stroke="none" /><path d="M 23.31,21.00 L 23.24,21.00 L 22.35,21.47 L 22.35,22.58 L 22.42,22.58 L 23.31,22.12 Z" fill="#231810" stroke="none" /><path d="M 26.07,19.59 L 25.19,20.05 L 25.19,21.17 L 25.25,21.17 L 26.07,20.74 L 26.11,20.77 L 26.11,21.86 L 26.17,21.86 L 27.06,21.40 L 27.06,20.25 L 26.14,20.71 L 26.11,20.67 L 26.11,19.59 Z" fill="#231810" stroke="none" /><path d="M 22.35,19.16 L 21.43,19.62 L 21.43,20.74 L 21.37,20.81 L 19.56,21.70 L 19.56,22.85 L 19.62,22.85 L 21.43,21.93 L 21.43,20.81 L 21.50,20.74 L 22.35,20.31 Z" fill="#231810" stroke="none" /><path d="M 29.83,18.86 L 28.91,19.33 L 28.91,20.48 L 29.83,20.02 Z" fill="#231810" stroke="none" /><path d="M 16.76,18.53 L 16.69,18.53 L 15.80,19.00 L 15.80,20.15 L 16.76,19.69 Z" fill="#231810" stroke="none" /><path d="M 24.23,17.09 L 23.31,17.55 L 23.31,18.67 L 23.37,18.67 L 24.23,18.24 Z" fill="#231810" stroke="none" /><path d="M 28.91,15.90 L 28.84,15.90 L 27.98,16.33 L 27.98,17.48 L 28.05,17.48 L 28.91,17.05 Z" fill="#231810" stroke="none" /><path d="M 20.48,14.39 L 20.41,14.39 L 19.56,14.81 L 19.56,15.97 L 18.60,16.46 L 18.60,17.58 L 18.67,17.58 L 19.56,17.12 L 19.56,16.00 L 20.48,15.54 Z" fill="#231810" stroke="none" /><path d="M 26.11,13.86 L 26.04,13.86 L 25.19,14.29 L 25.19,15.44 L 25.25,15.44 L 26.11,15.01 Z" fill="#231810" stroke="none" /><path d="M 24.23,13.66 L 24.16,13.66 L 23.31,14.09 L 23.31,15.21 L 23.24,15.28 L 20.48,16.66 L 20.48,17.81 L 23.31,16.40 L 23.31,15.28 L 23.37,15.21 L 24.23,14.78 Z" fill="#231810" stroke="none" /><path d="M 17.65,13.53 L 16.76,13.99 L 16.76,15.08 L 17.65,14.65 L 17.68,14.68 L 17.68,15.77 L 17.71,15.77 L 18.60,15.31 L 18.60,14.16 L 17.71,14.58 L 17.68,14.55 L 17.68,13.53 Z" fill="#231810" stroke="none" /><path d="M 28.91,11.33 L 28.84,11.33 L 27.98,11.75 L 27.98,12.91 L 28.91,12.44 Z" fill="#231810" stroke="none" /><path d="M 22.35,11.19 L 21.43,11.65 L 21.43,12.74 L 22.35,12.28 Z" fill="#231810" stroke="none" /><path d="M 29.83,7.47 L 29.76,7.47 L 27.98,8.36 L 27.98,9.45 L 26.11,10.40 L 26.11,11.56 L 27.98,10.63 L 27.98,9.48 L 29.83,8.56 Z" fill="#231810" stroke="none" /><path d="M 29.83,8.56 L 29.76,8.56 L 28.91,8.99 L 28.91,12.41 L 28.84,12.48 L 27.13,13.33 L 27.06,13.30 L 27.06,11.09 L 27.00,11.09 L 26.17,11.52 L 26.11,11.49 L 26.11,9.32 L 26.07,9.32 L 25.19,9.78 L 25.19,10.83 L 25.12,10.90 L 23.34,11.79 L 23.31,11.75 L 23.31,10.73 L 23.24,10.73 L 22.35,11.19 L 22.35,12.25 L 22.29,12.31 L 19.59,13.66 L 19.56,13.63 L 19.56,12.61 L 19.49,12.61 L 17.71,13.50 L 17.68,13.53 L 17.68,14.58 L 17.61,14.65 L 15.84,15.54 L 15.80,15.51 L 15.80,14.49 L 15.74,14.49 L 14.91,14.91 L 14.91,16.00 L 15.77,15.57 L 15.80,15.60 L 15.80,16.69 L 15.87,16.69 L 17.65,15.80 L 17.68,15.84 L 17.68,16.92 L 17.71,16.92 L 18.60,16.46 L 18.60,15.31 L 17.71,15.74 L 17.68,15.70 L 17.68,14.65 L 17.74,14.58 L 19.52,13.70 L 19.56,13.73 L 19.56,14.81 L 19.62,14.81 L 20.44,14.39 L 20.48,14.42 L 20.48,16.66 L 20.51,16.66 L 22.35,15.74 L 22.35,14.58 L 21.47,15.01 L 21.43,14.98 L 21.43,13.93 L 21.50,13.86 L 22.35,13.43 L 22.35,12.31 L 22.42,12.25 L 23.28,11.82 L 23.31,11.85 L 23.31,12.94 L 23.37,12.94 L 24.20,12.51 L 24.23,12.54 L 24.23,14.75 L 24.16,14.81 L 23.31,15.24 L 23.31,17.55 L 23.34,17.55 L 24.23,17.09 L 24.23,15.97 L 24.30,15.90 L 25.19,15.47 L 25.19,12.05 L 25.25,11.98 L 26.04,11.59 L 26.11,11.62 L 26.11,17.25 L 26.04,17.32 L 25.19,17.74 L 25.19,18.86 L 25.12,18.93 L 23.34,19.82 L 23.31,19.79 L 23.31,18.70 L 23.24,18.70 L 22.39,19.13 L 22.35,19.09 L 22.35,18.04 L 22.29,18.04 L 21.47,18.47 L 21.43,18.44 L 21.43,17.35 L 21.37,17.35 L 19.59,18.24 L 19.56,18.21 L 19.56,17.12 L 19.52,17.12 L 18.60,17.58 L 18.60,18.73 L 18.57,18.77 L 15.84,20.12 L 15.80,20.08 L 15.80,19.03 L 15.87,18.96 L 16.76,18.53 L 16.76,17.38 L 16.72,17.38 L 15.80,17.84 L 15.80,18.96 L 15.74,19.03 L 14.91,19.42 L 14.91,20.58 L 14.98,20.58 L 15.74,20.18 L 15.80,20.21 L 15.80,21.27 L 15.74,21.33 L 14.91,21.73 L 14.91,22.88 L 15.77,22.45 L 15.80,22.49 L 15.80,23.57 L 14.91,24.03 L 14.91,26.30 L 14.98,26.30 L 15.74,25.91 L 15.80,25.94 L 15.80,27.00 L 15.74,27.06 L 14.91,27.46 L 14.91,29.76 L 14.98,29.76 L 15.74,29.37 L 15.80,29.40 L 15.80,31.57 L 16.76,31.11 L 16.76,28.87 L 18.57,27.95 L 18.60,27.98 L 18.60,29.07 L 19.52,28.61 L 19.56,28.64 L 19.56,29.70 L 20.48,29.23 L 20.48,28.15 L 21.37,27.69 L 21.43,27.72 L 21.43,28.74 L 21.50,28.74 L 22.35,28.31 L 22.35,27.19 L 21.47,27.62 L 21.43,27.59 L 21.43,26.53 L 21.37,26.53 L 20.51,26.96 L 20.48,26.93 L 20.48,25.84 L 19.56,26.30 L 19.56,27.42 L 19.49,27.49 L 18.63,27.92 L 18.60,27.88 L 18.60,25.65 L 18.53,25.65 L 17.71,26.07 L 17.68,26.04 L 17.68,23.84 L 17.74,23.77 L 19.52,22.88 L 19.56,22.91 L 19.56,24.00 L 20.44,23.57 L 20.48,23.60 L 20.48,24.69 L 21.40,24.23 L 21.43,24.26 L 21.43,25.35 L 21.50,25.35 L 22.32,24.92 L 22.35,24.95 L 22.35,26.04 L 22.42,26.04 L 23.31,25.58 L 23.31,24.46 L 23.37,24.40 L 26.07,23.05 L 26.11,23.08 L 26.11,25.28 L 26.04,25.35 L 25.22,25.74 L 25.19,25.71 L 25.19,24.66 L 25.12,24.66 L 24.23,25.12 L 24.23,27.36 L 26.11,26.44 L 26.11,25.35 L 26.17,25.28 L 27.95,24.40 L 27.98,24.43 L 27.98,25.48 L 28.91,25.02 L 28.91,23.93 L 28.84,23.93 L 28.02,24.36 L 27.98,24.33 L 27.98,23.24 L 27.09,23.67 L 27.06,23.64 L 27.06,22.58 L 27.13,22.52 L 27.98,22.09 L 27.98,20.97 L 28.05,20.91 L 28.91,20.48 L 28.91,19.36 L 28.97,19.29 L 29.83,18.86 L 29.83,17.74 L 29.76,17.74 L 28.94,18.17 L 28.91,18.14 L 28.91,17.05 L 29.83,16.59 L 29.83,15.44 L 29.76,15.44 L 28.91,15.87 L 28.91,17.02 L 28.02,17.48 L 27.98,17.45 L 27.98,15.24 L 28.05,15.18 L 28.91,14.75 L 28.91,12.48 L 28.97,12.41 L 29.83,11.98 Z" fill="#302217" stroke="none" /><path d="M 14.02,30.49 L 14.02,31.57 L 14.85,32.00 L 14.91,32.00 L 14.91,30.91 L 14.09,30.49 Z" fill="#39271a" stroke="none" /><path d="M 10.27,26.30 L 10.27,27.46 L 11.16,27.92 L 11.23,27.92 L 11.23,26.77 Z" fill="#39271a" stroke="none" /><path d="M 14.02,25.88 L 14.02,27.03 L 14.85,27.46 L 14.91,27.46 L 14.91,26.30 Z" fill="#39271a" stroke="none" /><path d="M 6.52,25.58 L 6.52,26.73 L 7.47,27.19 L 7.47,26.04 Z" fill="#39271a" stroke="none" /><path d="M 8.40,25.38 L 8.40,26.53 L 9.35,27.00 L 9.35,25.84 L 8.46,25.38 Z" fill="#39271a" stroke="none" /><path d="M 4.64,24.66 L 4.64,25.78 L 5.53,26.24 L 5.60,26.24 L 5.60,25.12 L 4.71,24.66 Z" fill="#39271a" stroke="none" /><path d="M 1.84,23.24 L 1.84,24.40 L 2.70,24.82 L 2.77,24.82 L 2.77,23.70 Z" fill="#39271a" stroke="none" /><path d="M 10.27,22.88 L 10.27,24.00 L 11.23,24.49 L 11.23,25.65 L 12.08,26.07 L 12.15,26.07 L 12.15,24.92 L 11.23,24.46 L 11.23,23.34 L 10.34,22.88 Z" fill="#39271a" stroke="none" /><path d="M 13.07,21.96 L 13.07,23.11 L 13.96,23.57 L 14.02,23.57 L 14.02,22.42 Z" fill="#39271a" stroke="none" /><path d="M 7.47,21.47 L 7.47,22.62 L 8.33,23.05 L 8.40,23.05 L 8.40,21.93 Z" fill="#39271a" stroke="none" /><path d="M 0.92,20.48 L 0.92,21.63 L 1.84,22.09 L 1.84,20.94 Z" fill="#39271a" stroke="none" /><path d="M 7.47,19.16 L 6.58,18.70 L 6.52,18.70 L 6.52,19.79 L 6.49,19.82 L 4.64,18.90 L 4.64,20.05 L 6.45,20.97 L 6.52,20.97 L 6.52,19.88 L 6.55,19.85 L 7.47,20.31 Z" fill="#39271a" stroke="none" /><path d="M 8.40,18.50 L 8.40,19.62 L 9.28,20.08 L 9.35,20.08 L 9.35,18.96 L 8.46,18.50 Z" fill="#39271a" stroke="none" /><path d="M 1.84,17.51 L 1.84,18.67 L 2.70,19.09 L 2.77,19.09 L 2.77,17.94 L 1.91,17.51 Z" fill="#39271a" stroke="none" /><path d="M 13.07,17.38 L 13.07,18.53 L 14.02,19.00 L 14.02,17.84 Z" fill="#39271a" stroke="none" /><path d="M 10.27,17.12 L 10.27,18.27 L 11.16,18.73 L 11.23,18.73 L 11.23,17.58 Z" fill="#39271a" stroke="none" /><path d="M 5.60,14.78 L 5.60,15.93 L 5.63,15.97 L 8.33,17.32 L 8.40,17.32 L 8.40,16.23 L 8.43,16.20 L 9.35,16.66 L 9.35,15.51 L 8.40,15.05 L 8.40,16.13 L 8.36,16.16 Z" fill="#39271a" stroke="none" /><path d="M 11.23,14.16 L 11.23,15.31 L 11.26,15.34 L 13.04,16.23 L 13.07,16.23 L 13.07,15.14 L 13.10,15.11 L 14.91,16.00 L 14.91,14.91 L 14.88,14.88 L 13.10,13.99 L 13.07,13.99 L 13.07,15.01 L 13.04,15.05 Z" fill="#39271a" stroke="none" /><path d="M 0.92,12.44 L 0.92,13.60 L 1.84,14.06 L 1.84,12.91 Z" fill="#39271a" stroke="none" /><path d="M 4.67,12.02 L 4.64,12.02 L 4.64,13.10 L 4.61,13.14 L 3.72,12.71 L 3.72,13.86 L 4.58,14.29 L 4.64,14.29 L 4.64,13.23 L 4.67,13.20 L 5.53,13.63 L 5.60,13.63 L 5.60,12.48 Z" fill="#39271a" stroke="none" /><path d="M 6.52,10.73 L 6.52,11.82 L 7.47,12.28 L 7.47,11.19 L 6.58,10.73 Z" fill="#39271a" stroke="none" /><path d="M 1.84,8.40 L 1.84,9.48 L 2.77,9.94 L 2.77,11.09 L 3.72,11.56 L 3.72,10.40 L 2.77,9.91 L 2.77,8.82 L 1.91,8.40 Z" fill="#39271a" stroke="none" /><path d="M 19.56,26.30 L 18.60,26.77 L 18.60,27.92 L 18.67,27.92 L 19.56,27.46 Z" fill="#2e231b" stroke="none" /><path d="M 19.56,28.61 L 19.49,28.61 L 17.68,29.53 L 17.68,30.62 L 17.74,30.62 L 19.56,29.70 Z" fill="#3b2b1d" stroke="none" /><path d="M 24.23,26.27 L 24.16,26.27 L 22.35,27.19 L 22.35,28.28 L 22.42,28.28 L 24.23,27.36 Z" fill="#3b2b1d" stroke="none" /><path d="M 22.35,24.92 L 22.29,24.92 L 20.51,25.81 L 20.48,25.78 L 20.48,24.69 L 19.62,25.12 L 19.56,25.09 L 19.56,24.00 L 17.68,24.92 L 17.68,26.07 L 16.76,26.53 L 16.76,27.69 L 15.80,28.18 L 15.80,29.30 L 15.74,29.37 L 14.91,29.76 L 14.91,32.00 L 14.98,32.00 L 15.80,31.57 L 15.80,29.37 L 15.87,29.30 L 16.76,28.87 L 16.76,27.72 L 17.68,27.26 L 17.68,26.11 L 17.71,26.07 L 18.57,25.65 L 18.60,25.68 L 18.60,26.77 L 18.67,26.77 L 20.44,25.88 L 20.48,25.91 L 20.48,27.00 L 20.51,27.00 L 22.35,26.07 Z" fill="#3b2b1d" stroke="none" /><path d="M 15.80,22.45 L 15.74,22.45 L 14.91,22.88 L 14.91,24.03 L 15.77,23.60 L 15.80,23.64 L 15.80,25.84 L 15.74,25.91 L 14.91,26.30 L 14.91,27.46 L 14.98,27.46 L 15.80,27.03 L 15.80,25.91 L 15.87,25.84 L 16.76,25.42 L 16.76,23.11 L 15.84,23.57 L 15.80,23.54 Z" fill="#3b2b1d" stroke="none" /><path d="M 22.35,21.47 L 21.43,21.93 L 21.43,24.20 L 21.50,24.20 L 22.35,23.77 Z" fill="#3b2b1d" stroke="none" /><path d="M 25.19,21.20 L 25.12,21.20 L 23.31,22.12 L 23.31,23.28 L 25.19,22.35 Z" fill="#3b2b1d" stroke="none" /><path d="M 29.83,21.17 L 27.98,22.09 L 27.98,24.36 L 27.95,24.40 L 26.14,25.28 L 26.11,25.25 L 26.11,24.20 L 26.04,24.20 L 25.19,24.63 L 25.19,25.78 L 26.07,25.35 L 26.11,25.38 L 26.11,26.40 L 26.17,26.40 L 27.95,25.51 L 27.98,25.48 L 27.98,24.40 L 29.83,23.47 Z" fill="#3b2b1d" stroke="none" /><path d="M 20.48,18.96 L 18.60,19.88 L 18.60,21.00 L 18.53,21.07 L 17.68,21.50 L 17.68,22.65 L 18.60,22.19 L 18.60,21.07 L 18.67,21.00 L 19.52,20.58 L 19.56,20.61 L 19.56,21.70 L 19.62,21.70 L 20.48,21.27 Z" fill="#3b2b1d" stroke="none" /><path d="M 27.98,18.67 L 27.92,18.67 L 26.11,19.59 L 26.11,20.71 L 26.17,20.71 L 27.03,20.28 L 27.06,20.31 L 27.06,21.40 L 27.98,20.94 Z" fill="#3b2b1d" stroke="none" /><path d="M 17.68,16.92 L 16.76,17.38 L 16.76,19.65 L 16.82,19.65 L 18.60,18.77 L 18.60,17.61 L 18.53,17.61 L 17.71,18.04 L 17.68,18.01 Z" fill="#3b2b1d" stroke="none" /><path d="M 15.80,16.72 L 15.74,16.72 L 14.91,17.15 L 14.91,19.42 L 14.98,19.42 L 15.80,19.00 Z" fill="#3b2b1d" stroke="none" /><path d="M 29.83,16.59 L 29.76,16.59 L 28.91,17.02 L 28.91,18.17 L 28.97,18.17 L 29.83,17.74 Z" fill="#3b2b1d" stroke="none" /><path d="M 26.11,16.16 L 26.04,16.16 L 24.26,17.05 L 24.23,17.09 L 24.23,18.21 L 23.34,18.67 L 23.31,18.63 L 23.31,17.55 L 22.35,18.01 L 22.35,19.16 L 23.28,18.70 L 23.31,18.73 L 23.31,19.82 L 23.37,19.82 L 25.15,18.93 L 25.19,18.90 L 25.19,17.78 L 25.25,17.71 L 26.11,17.28 Z" fill="#3b2b1d" stroke="none" /><path d="M 19.49,14.85 L 18.60,15.31 L 18.60,16.46 L 19.52,16.00 L 19.56,16.03 L 19.56,18.27 L 19.59,18.27 L 20.48,17.81 L 20.48,15.54 L 20.41,15.54 L 19.59,15.97 L 19.56,15.93 L 19.56,14.85 Z" fill="#3b2b1d" stroke="none" /><path d="M 16.76,13.99 L 15.80,14.45 L 15.80,15.54 L 15.87,15.54 L 16.76,15.08 Z" fill="#3b2b1d" stroke="none" /><path d="M 29.83,13.14 L 28.91,13.60 L 28.91,14.72 L 28.84,14.78 L 28.05,15.18 L 27.98,15.14 L 27.98,14.06 L 27.09,14.49 L 27.06,14.52 L 27.06,15.67 L 27.95,15.24 L 27.98,15.28 L 27.98,16.33 L 28.05,16.33 L 29.83,15.44 Z" fill="#3b2b1d" stroke="none" /><path d="M 24.23,12.51 L 24.16,12.51 L 22.35,13.43 L 22.35,15.70 L 22.42,15.70 L 23.31,15.24 L 23.31,14.12 L 24.23,13.66 Z" fill="#3b2b1d" stroke="none" /><path d="M 20.48,12.15 L 20.41,12.15 L 19.56,12.58 L 19.56,13.66 L 19.62,13.66 L 20.48,13.23 Z" fill="#3b2b1d" stroke="none" /><path d="M 26.11,11.56 L 25.19,12.02 L 25.19,13.17 L 26.11,12.71 Z" fill="#3b2b1d" stroke="none" /><path d="M 28.91,10.17 L 28.84,10.17 L 27.98,10.60 L 27.98,11.75 L 27.06,12.21 L 27.06,13.37 L 27.98,12.91 L 27.98,11.79 L 28.91,11.33 Z" fill="#3b2b1d" stroke="none" /><path d="M 25.19,9.78 L 24.23,10.24 L 24.23,11.33 L 24.30,11.33 L 25.19,10.86 Z" fill="#3b2b1d" stroke="none" /><path d="M 27.98,8.40 L 27.92,8.40 L 27.06,8.82 L 27.06,9.91 L 27.13,9.91 L 27.98,9.48 Z" fill="#3b2b1d" stroke="none" /><path d="M 18.60,27.95 L 18.53,27.95 L 17.68,28.38 L 17.68,29.50 L 17.61,29.56 L 16.76,29.99 L 16.76,31.08 L 16.82,31.08 L 17.68,30.65 L 17.68,29.56 L 17.74,29.50 L 18.60,29.07 Z" fill="#493524" stroke="none" /><path d="M 25.19,23.51 L 25.12,23.51 L 24.23,23.97 L 24.23,25.09 L 24.16,25.15 L 22.35,26.04 L 22.35,27.19 L 24.23,26.27 L 24.23,25.15 L 24.30,25.09 L 25.19,24.66 Z" fill="#493524" stroke="none" /><path d="M 21.43,21.93 L 20.48,22.39 L 20.48,23.51 L 20.41,23.57 L 19.62,23.97 L 19.56,23.93 L 19.56,22.88 L 19.49,22.88 L 17.71,23.77 L 17.68,23.80 L 17.68,24.92 L 17.74,24.92 L 19.52,24.03 L 19.56,24.07 L 19.56,25.15 L 20.41,24.72 L 20.48,24.76 L 20.48,25.84 L 21.43,25.38 L 21.43,24.23 L 21.37,24.23 L 20.54,24.66 L 20.48,24.63 L 20.48,23.57 L 20.54,23.51 L 21.43,23.08 Z" fill="#493524" stroke="none" /><path d="M 15.80,20.15 L 14.91,20.58 L 14.91,21.73 L 14.98,21.73 L 15.80,21.30 Z" fill="#493524" stroke="none" /><path d="M 25.19,20.05 L 23.31,20.97 L 23.31,22.12 L 25.19,21.20 Z" fill="#493524" stroke="none" /><path d="M 29.83,20.02 L 27.98,20.94 L 27.98,22.06 L 27.92,22.12 L 27.06,22.55 L 27.06,23.70 L 27.98,23.24 L 27.98,22.12 L 28.05,22.06 L 29.83,21.17 Z" fill="#493524" stroke="none" /><path d="M 18.60,19.92 L 18.53,19.92 L 16.76,20.81 L 16.76,21.96 L 18.60,21.04 Z" fill="#493524" stroke="none" /><path d="M 27.98,17.51 L 27.92,17.51 L 26.11,18.44 L 26.11,19.59 L 27.98,18.67 Z" fill="#493524" stroke="none" /><path d="M 23.31,16.40 L 21.43,17.32 L 21.43,18.47 L 21.50,18.47 L 23.31,17.55 Z" fill="#493524" stroke="none" /><path d="M 17.65,15.77 L 16.76,16.23 L 16.76,17.38 L 17.65,16.95 L 17.68,16.99 L 17.68,18.04 L 17.74,18.04 L 18.60,17.61 L 18.60,16.46 L 17.71,16.89 L 17.68,16.86 L 17.68,15.77 Z" fill="#493524" stroke="none" /><path d="M 15.80,15.57 L 15.74,15.57 L 14.91,16.00 L 14.91,17.15 L 15.80,16.72 Z" fill="#493524" stroke="none" /><path d="M 26.11,15.01 L 26.04,15.01 L 24.23,15.93 L 24.23,17.09 L 26.11,16.16 Z" fill="#493524" stroke="none" /><path d="M 19.56,13.70 L 19.49,13.70 L 18.60,14.16 L 18.60,15.31 L 19.56,14.85 Z" fill="#493524" stroke="none" /><path d="M 29.83,11.98 L 28.91,12.44 L 28.91,13.60 L 29.83,13.14 Z" fill="#493524" stroke="none" /><path d="M 24.23,10.27 L 24.16,10.27 L 23.31,10.70 L 23.31,11.79 L 22.35,12.28 L 22.35,13.40 L 22.29,13.47 L 21.43,13.89 L 21.43,15.05 L 22.35,14.58 L 22.35,13.47 L 22.42,13.40 L 23.31,12.97 L 23.31,11.82 L 24.23,11.36 Z" fill="#493524" stroke="none" /><path d="M 28.91,9.02 L 28.84,9.02 L 27.98,9.45 L 27.98,10.60 L 27.06,11.06 L 27.06,12.21 L 27.13,12.21 L 27.98,11.79 L 27.98,10.63 L 28.91,10.17 Z" fill="#493524" stroke="none" /><path d="M 27.06,8.86 L 27.00,8.86 L 26.11,9.32 L 26.11,10.40 L 27.06,9.94 Z" fill="#493524" stroke="none" /><path d="M 0.00,7.47 L 0.00,8.56 L 0.92,9.02 L 0.92,10.17 L 2.77,11.09 L 2.77,12.25 L 3.72,12.71 L 3.72,11.56 L 2.77,11.06 L 2.77,9.98 L 2.80,9.94 L 4.58,10.83 L 4.64,10.90 L 4.64,12.02 L 5.60,12.51 L 5.60,14.78 L 5.63,14.81 L 7.41,15.70 L 7.47,15.70 L 7.47,14.58 L 6.52,14.09 L 6.52,13.00 L 6.55,12.97 L 7.47,13.43 L 7.47,12.35 L 7.51,12.31 L 8.33,12.71 L 8.40,12.77 L 8.40,13.89 L 9.35,14.39 L 9.35,16.59 L 9.28,16.63 L 8.46,16.20 L 8.40,16.20 L 8.40,18.50 L 9.35,18.96 L 9.35,17.88 L 9.38,17.84 L 10.27,18.27 L 10.27,14.88 L 10.30,14.85 L 11.16,15.28 L 11.23,15.34 L 11.23,20.97 L 11.16,21.00 L 10.34,20.58 L 10.27,20.58 L 10.27,21.66 L 10.24,21.70 L 8.46,20.81 L 8.40,20.74 L 8.40,19.62 L 7.54,19.19 L 7.47,19.13 L 7.47,18.01 L 6.58,17.58 L 6.52,17.51 L 6.52,16.40 L 4.64,15.44 L 4.64,14.29 L 3.79,13.86 L 3.72,13.86 L 3.72,14.95 L 3.69,14.98 L 0.99,13.63 L 0.92,13.56 L 0.92,12.51 L 0.95,12.48 L 1.84,12.91 L 1.84,11.75 L 0.99,11.33 L 0.92,11.33 L 0.92,12.38 L 0.89,12.41 L 0.00,11.98 L 0.00,13.14 L 0.86,13.56 L 0.92,13.63 L 0.92,14.68 L 0.89,14.72 L 0.00,14.29 L 0.00,15.44 L 0.92,15.90 L 0.92,16.99 L 0.89,17.02 L 0.07,16.59 L 0.00,16.59 L 0.00,18.86 L 0.86,19.29 L 0.92,19.36 L 0.92,20.41 L 0.89,20.44 L 0.00,20.02 L 0.00,22.32 L 0.86,22.75 L 0.92,22.81 L 0.92,25.02 L 1.84,25.48 L 1.84,23.31 L 1.91,23.28 L 3.72,24.20 L 3.72,25.32 L 4.58,25.74 L 4.64,25.81 L 4.64,26.90 L 5.60,27.36 L 5.60,26.30 L 5.63,26.27 L 6.52,26.73 L 6.52,27.82 L 7.41,28.28 L 7.47,28.28 L 7.47,27.19 L 6.52,26.70 L 6.52,25.58 L 5.66,25.15 L 5.60,25.09 L 5.60,23.97 L 4.71,23.51 L 4.64,23.51 L 4.64,24.59 L 4.61,24.63 L 3.72,24.16 L 3.72,21.86 L 2.83,21.43 L 2.77,21.37 L 2.77,19.16 L 2.80,19.13 L 4.58,20.02 L 4.64,20.08 L 4.64,21.20 L 5.53,21.63 L 5.60,21.70 L 5.60,22.81 L 6.45,23.24 L 6.52,23.31 L 6.52,24.43 L 7.47,24.92 L 7.47,26.07 L 8.33,26.50 L 8.40,26.50 L 8.40,25.42 L 8.43,25.38 L 11.23,26.80 L 11.23,29.00 L 11.19,29.04 L 10.27,28.58 L 10.27,27.46 L 9.35,27.00 L 9.35,29.23 L 11.16,30.16 L 11.23,30.16 L 11.23,29.14 L 11.29,29.10 L 13.00,29.96 L 13.07,30.02 L 13.07,31.11 L 14.02,31.57 L 14.02,30.45 L 13.14,30.02 L 13.07,29.96 L 13.07,28.84 L 12.15,28.38 L 12.15,27.29 L 12.18,27.26 L 13.00,27.69 L 13.07,27.69 L 13.07,26.60 L 13.10,26.57 L 14.02,27.03 L 14.02,25.94 L 14.06,25.91 L 14.85,26.30 L 14.91,26.30 L 14.91,25.19 L 14.02,24.72 L 14.02,23.64 L 14.06,23.60 L 14.91,24.03 L 14.91,22.88 L 14.09,22.45 L 14.02,22.45 L 14.02,23.54 L 13.99,23.57 L 13.14,23.14 L 13.07,23.08 L 13.07,20.87 L 13.10,20.84 L 14.02,21.30 L 14.02,19.06 L 14.09,19.03 L 14.85,19.42 L 14.91,19.42 L 14.91,16.00 L 14.09,15.57 L 14.02,15.57 L 14.02,18.93 L 13.99,18.96 L 12.18,18.07 L 12.15,18.04 L 12.15,15.77 L 11.29,15.34 L 11.23,15.28 L 11.23,13.07 L 11.19,13.04 L 10.34,12.61 L 10.27,12.61 L 10.27,13.63 L 10.24,13.66 L 8.46,12.77 L 8.40,12.71 L 8.40,11.65 L 8.36,11.62 L 7.47,11.19 L 7.47,12.21 L 7.41,12.25 L 4.71,10.90 L 4.64,10.83 L 4.64,9.78 L 4.61,9.74 L 2.83,8.86 L 2.77,8.86 L 2.77,9.88 L 2.73,9.91 L 0.95,9.02 L 0.92,8.99 L 0.92,7.90 L 0.07,7.47 Z" fill="#4e3625" stroke="none" /><path d="M 17.74,12.58 L 17.74,12.64 L 18.60,13.07 L 19.56,12.61 L 19.56,12.58 L 18.70,12.15 L 18.60,12.15 Z" fill="#583c28" stroke="none" /><path d="M 14.95,12.12 L 14.95,12.18 L 16.72,13.07 L 16.82,13.07 L 17.68,12.64 L 17.68,12.58 L 15.90,11.69 L 15.80,11.69 Z" fill="#583c28" stroke="none" /><path d="M 9.32,8.36 L 9.32,8.43 L 13.89,10.70 L 13.93,10.73 L 13.86,10.80 L 13.04,11.19 L 13.04,11.23 L 13.96,11.69 L 14.91,11.23 L 14.91,11.19 L 14.09,10.80 L 14.02,10.73 L 14.88,10.30 L 14.88,10.24 L 10.27,7.93 L 10.17,7.93 Z" fill="#583c28" stroke="none" /><path d="M 21.50,6.02 L 21.50,6.09 L 22.35,6.52 L 22.45,6.52 L 23.31,6.09 L 23.31,6.02 L 22.45,5.60 L 22.35,5.60 Z" fill="#583c28" stroke="none" /><path d="M 3.72,5.60 L 3.72,5.63 L 6.42,6.98 L 6.39,7.05 L 5.56,7.44 L 5.60,7.51 L 8.30,8.86 L 8.40,8.86 L 9.25,8.43 L 9.25,8.36 L 6.55,7.01 L 6.58,6.95 L 7.41,6.55 L 7.37,6.49 L 4.67,5.14 L 4.61,5.14 Z" fill="#583c28" stroke="none" /><path d="M 16.82,4.61 L 16.82,4.67 L 18.60,5.56 L 18.57,5.63 L 17.74,6.02 L 17.78,6.09 L 21.47,7.93 L 22.39,7.47 L 22.45,7.47 L 26.11,9.32 L 27.03,8.86 L 27.03,8.82 L 23.41,7.01 L 23.28,7.01 L 22.45,7.44 L 22.39,7.44 L 18.77,5.63 L 18.73,5.60 L 18.77,5.53 L 19.59,5.14 L 19.59,5.10 L 17.74,4.18 L 17.68,4.18 Z" fill="#583c28" stroke="none" /><path d="M 14.95,4.61 L 14.95,4.67 L 15.80,5.10 L 15.90,5.10 L 16.76,4.67 L 16.76,4.61 L 15.90,4.18 L 15.80,4.18 Z" fill="#583c28" stroke="none" /><path d="M 10.27,2.30 L 10.27,2.34 L 12.05,3.23 L 12.18,3.23 L 13.00,2.80 L 13.10,2.80 L 14.85,3.69 L 14.98,3.69 L 15.84,3.26 L 15.84,3.23 L 13.99,2.30 L 13.07,2.77 L 11.23,1.84 Z" fill="#583c28" stroke="none" /><path d="M 23.31,22.12 L 22.35,22.58 L 22.35,23.74 L 22.42,23.74 L 23.31,23.28 Z" fill="#2b2b2b" stroke="none" /><path d="M 16.76,16.23 L 15.80,16.69 L 15.80,17.84 L 15.87,17.84 L 16.76,17.38 Z" fill="#2b2b2b" stroke="none" /><path d="M 26.11,12.71 L 25.19,13.17 L 25.19,14.29 L 25.25,14.29 L 26.11,13.86 Z" fill="#2b2b2b" stroke="none" /><path d="M 3.72,23.05 L 3.72,24.20 L 4.58,24.63 L 4.64,24.63 L 4.64,23.47 L 3.79,23.05 Z" fill="#4a382c" stroke="none" /><path d="M 10.27,27.46 L 10.27,28.61 L 11.16,29.04 L 11.23,29.10 L 11.23,30.19 L 13.00,31.08 L 13.07,31.08 L 13.07,30.06 L 13.10,30.02 L 14.91,30.91 L 14.91,28.61 L 13.14,27.72 L 13.07,27.72 L 13.07,29.93 L 13.00,29.96 L 11.29,29.10 L 11.23,29.04 L 11.23,27.92 Z" fill="#60452f" stroke="none" /><path d="M 7.47,27.19 L 7.47,28.31 L 9.35,29.23 L 9.35,28.12 Z" fill="#60452f" stroke="none" /><path d="M 2.77,24.86 L 2.77,25.94 L 4.58,26.86 L 4.64,26.86 L 4.64,25.78 L 2.83,24.86 Z" fill="#60452f" stroke="none" /><path d="M 14.02,23.60 L 14.02,24.76 L 14.91,25.19 L 14.91,24.03 L 14.09,23.60 Z" fill="#60452f" stroke="none" /><path d="M 11.23,23.34 L 11.23,24.49 L 12.15,24.95 L 12.15,26.11 L 13.00,26.53 L 13.07,26.53 L 13.07,24.26 Z" fill="#60452f" stroke="none" /><path d="M 8.40,23.08 L 8.40,24.23 L 10.27,25.15 L 10.27,24.00 L 8.46,23.08 Z" fill="#60452f" stroke="none" /><path d="M 6.52,21.00 L 6.52,23.28 L 7.41,23.74 L 7.47,23.74 L 7.47,21.47 L 6.58,21.00 Z" fill="#60452f" stroke="none" /><path d="M 0.00,22.32 L 0.00,24.56 L 0.92,25.02 L 0.92,22.85 L 0.99,22.81 L 1.84,23.24 L 1.84,22.16 L 1.91,22.12 L 2.77,22.55 L 2.77,21.47 L 2.83,21.43 L 3.72,21.89 L 3.72,23.05 L 5.53,23.93 L 5.60,24.00 L 5.60,25.12 L 5.63,25.15 L 7.41,26.04 L 7.47,26.04 L 7.47,24.89 L 5.66,24.00 L 5.60,23.93 L 5.60,22.81 L 4.64,22.32 L 4.64,21.17 L 2.80,20.25 L 2.77,20.25 L 2.77,21.33 L 2.73,21.37 L 1.84,20.94 L 1.84,22.02 L 1.81,22.06 L 0.92,21.63 L 0.92,22.72 L 0.89,22.75 Z" fill="#60452f" stroke="none" /><path d="M 12.15,19.23 L 12.15,20.38 L 13.07,20.84 L 13.07,21.96 L 14.91,22.88 L 14.91,20.58 L 14.02,20.15 L 14.02,21.23 L 13.96,21.27 L 13.07,20.81 L 13.07,19.65 L 12.21,19.23 Z" fill="#60452f" stroke="none" /><path d="M 7.47,18.04 L 7.47,19.16 L 8.33,19.59 L 8.40,19.65 L 8.40,20.77 L 8.43,20.81 L 10.21,21.70 L 10.27,21.70 L 10.27,20.61 L 10.30,20.58 L 11.23,21.04 L 11.23,19.88 L 9.35,18.96 L 9.35,20.05 L 9.32,20.08 L 8.46,19.65 L 8.40,19.59 L 8.40,18.47 L 7.54,18.04 Z" fill="#60452f" stroke="none" /><path d="M 13.10,16.23 L 13.07,16.23 L 13.07,17.32 L 13.04,17.35 L 12.15,16.92 L 12.15,18.07 L 13.00,18.50 L 13.07,18.50 L 13.07,17.45 L 13.10,17.42 L 13.96,17.84 L 14.02,17.84 L 14.02,16.69 Z" fill="#60452f" stroke="none" /><path d="M 2.77,16.82 L 2.77,17.98 L 3.72,18.44 L 3.72,17.35 L 3.79,17.32 L 4.58,17.71 L 4.64,17.78 L 4.64,18.90 L 5.53,19.36 L 5.60,19.36 L 5.60,17.09 L 5.56,17.05 L 3.79,16.16 L 3.72,16.16 L 3.72,17.22 L 3.69,17.25 L 2.83,16.82 Z" fill="#60452f" stroke="none" /><path d="M 0.00,15.44 L 0.00,16.59 L 0.92,17.05 L 0.92,19.26 L 0.86,19.29 L 0.00,18.86 L 0.00,20.02 L 0.92,20.48 L 0.92,19.39 L 0.95,19.36 L 1.84,19.79 L 1.84,17.48 L 0.92,17.02 L 0.92,15.87 L 0.07,15.44 Z" fill="#60452f" stroke="none" /><path d="M 10.27,14.85 L 10.27,16.00 L 11.23,16.46 L 11.23,15.31 L 10.34,14.85 Z" fill="#60452f" stroke="none" /><path d="M 12.15,13.53 L 12.15,14.62 L 13.07,15.08 L 13.07,13.99 Z" fill="#60452f" stroke="none" /><path d="M 7.47,13.43 L 7.47,15.74 L 8.33,16.16 L 8.40,16.16 L 8.40,15.11 L 8.43,15.08 L 9.28,15.51 L 9.35,15.51 L 9.35,14.35 Z" fill="#60452f" stroke="none" /><path d="M 9.35,12.15 L 9.35,13.23 L 10.21,13.66 L 10.27,13.66 L 10.27,12.58 L 9.42,12.15 Z" fill="#60452f" stroke="none" /><path d="M 1.84,11.79 L 1.84,14.06 L 3.65,14.98 L 3.72,14.98 L 3.72,13.83 L 2.83,13.40 L 2.77,13.33 L 2.77,12.21 L 1.91,11.79 Z" fill="#60452f" stroke="none" /><path d="M 3.72,11.56 L 3.72,12.71 L 4.58,13.14 L 4.64,13.20 L 4.64,15.47 L 5.60,15.93 L 5.60,13.63 L 4.71,13.20 L 4.64,13.14 L 4.64,12.02 Z" fill="#60452f" stroke="none" /><path d="M 4.64,9.78 L 4.64,10.86 L 5.53,11.33 L 5.60,11.33 L 5.60,10.24 Z" fill="#60452f" stroke="none" /><path d="M 0.00,9.71 L 0.00,11.98 L 0.92,12.44 L 0.92,10.14 L 0.07,9.71 Z" fill="#60452f" stroke="none" /><path d="M 0.92,7.93 L 0.92,9.02 L 1.78,9.45 L 1.84,9.45 L 1.84,8.36 L 0.99,7.93 Z" fill="#60452f" stroke="none" /><path d="M 21.43,27.65 L 20.48,28.12 L 20.48,29.23 L 21.43,28.77 Z" fill="#353535" stroke="none" /><path d="M 19.56,18.27 L 18.60,18.73 L 18.60,19.88 L 18.67,19.88 L 19.56,19.42 Z" fill="#353535" stroke="none" /><path d="M 28.91,18.21 L 28.84,18.21 L 27.98,18.63 L 27.98,19.79 L 28.91,19.33 Z" fill="#353535" stroke="none" /><path d="M 21.43,11.65 L 20.48,12.12 L 20.48,13.20 L 20.54,13.20 L 21.43,12.74 Z" fill="#353535" stroke="none" /><path d="M 7.47,11.16 L 7.51,11.23 L 8.36,11.65 L 8.43,11.65 L 9.28,11.23 L 9.25,11.16 L 8.40,10.73 L 8.33,10.73 Z" fill="#785439" stroke="none" /><path d="M 26.17,8.36 L 26.17,8.43 L 27.03,8.86 L 27.98,8.40 L 27.98,8.36 L 27.13,7.93 L 27.03,7.93 Z" fill="#785439" stroke="none" /><path d="M 5.56,8.36 L 5.60,8.43 L 6.45,8.86 L 6.52,8.86 L 7.37,8.43 L 7.37,8.36 L 6.52,7.93 L 6.42,7.93 Z" fill="#785439" stroke="none" /><path d="M 16.79,7.44 L 16.79,7.47 L 17.71,7.93 L 18.63,7.47 L 18.70,7.47 L 19.49,7.87 L 19.56,7.93 L 19.52,7.97 L 18.70,8.36 L 18.70,8.43 L 19.56,8.86 L 19.65,8.86 L 20.54,8.40 L 21.43,8.86 L 21.53,8.86 L 22.42,8.40 L 23.31,8.86 L 22.45,9.28 L 22.42,9.35 L 24.20,10.24 L 24.30,10.24 L 26.11,9.32 L 26.11,9.28 L 25.25,8.86 L 25.19,8.86 L 24.30,9.32 L 23.41,8.89 L 23.37,8.86 L 23.41,8.82 L 24.23,8.43 L 24.26,8.36 L 22.49,7.47 L 22.35,7.47 L 21.53,7.90 L 21.43,7.90 L 19.62,6.98 L 18.70,7.44 L 18.63,7.44 L 17.74,6.98 Z" fill="#785439" stroke="none" /><path d="M 2.77,6.06 L 2.77,6.09 L 4.54,6.98 L 4.51,7.05 L 3.69,7.44 L 3.69,7.47 L 4.61,7.93 L 6.45,7.01 L 6.52,7.01 L 9.22,8.36 L 9.25,8.40 L 9.22,8.43 L 8.40,8.82 L 8.36,8.89 L 11.09,10.24 L 11.13,10.27 L 11.09,10.30 L 10.27,10.70 L 10.27,10.77 L 13.96,12.61 L 14.02,12.61 L 15.87,11.69 L 17.65,12.58 L 17.68,12.61 L 17.65,12.64 L 16.82,13.04 L 16.79,13.10 L 17.65,13.53 L 17.71,13.53 L 18.60,13.07 L 18.60,13.04 L 17.78,12.64 L 17.74,12.61 L 17.78,12.58 L 18.63,12.15 L 19.49,12.58 L 19.62,12.58 L 20.48,12.15 L 20.44,12.08 L 19.65,11.69 L 19.52,11.69 L 18.70,12.12 L 18.60,12.12 L 14.98,10.30 L 14.95,10.27 L 14.98,10.24 L 15.80,9.84 L 15.84,9.78 L 14.09,8.92 L 14.02,8.86 L 14.06,8.82 L 14.88,8.43 L 14.88,8.36 L 13.10,7.47 L 12.97,7.47 L 12.15,7.90 L 12.05,7.90 L 10.24,6.98 L 9.32,7.44 L 9.25,7.44 L 7.44,6.52 L 6.52,6.98 L 6.45,6.98 L 3.72,5.60 Z" fill="#785439" stroke="none" /><path d="M 4.67,5.10 L 4.67,5.17 L 5.53,5.60 L 6.49,5.14 L 6.49,5.10 L 5.63,4.67 L 5.53,4.67 Z" fill="#785439" stroke="none" /><path d="M 9.35,2.77 L 9.38,2.83 L 10.17,3.23 L 10.30,3.23 L 11.16,2.80 L 11.13,2.73 L 10.34,2.34 L 10.21,2.34 Z" fill="#785439" stroke="none" /><path d="M 11.23,1.84 L 11.23,1.88 L 13.00,2.77 L 12.94,2.83 L 12.12,3.23 L 12.12,3.26 L 13.86,4.12 L 13.93,4.18 L 13.07,4.61 L 13.07,4.67 L 15.84,6.06 L 16.76,5.60 L 16.82,5.60 L 17.71,6.06 L 18.63,5.60 L 18.70,5.60 L 21.43,6.98 L 21.53,6.98 L 22.35,6.55 L 22.45,6.55 L 24.26,7.47 L 25.22,7.01 L 25.22,6.98 L 23.37,6.06 L 23.31,6.06 L 22.39,6.52 L 19.65,5.14 L 19.52,5.14 L 18.70,5.56 L 18.63,5.56 L 16.86,4.67 L 16.82,4.64 L 16.86,4.61 L 18.60,3.75 L 18.63,3.69 L 17.78,3.26 L 17.65,3.26 L 16.82,3.69 L 16.72,3.69 L 15.93,3.29 L 15.90,3.23 L 16.76,2.80 L 16.76,2.77 L 15.87,2.30 L 14.91,2.77 L 14.91,2.80 L 15.77,3.23 L 15.74,3.29 L 14.95,3.69 L 14.88,3.69 L 13.17,2.83 L 13.10,2.77 L 13.14,2.73 L 13.96,2.34 L 13.96,2.30 L 13.07,1.84 L 13.93,1.42 L 13.96,1.35 L 13.10,0.92 L 13.04,0.92 Z" fill="#785439" stroke="none" /><path d="M 12.15,27.26 L 12.15,28.41 L 13.00,28.84 L 13.07,28.84 L 13.07,27.75 L 13.10,27.72 L 14.85,28.61 L 14.91,28.61 L 14.91,27.46 L 13.14,26.57 L 13.07,26.57 L 13.07,27.65 L 13.04,27.69 L 12.21,27.26 Z" fill="#77553b" stroke="none" /><path d="M 10.27,26.30 L 9.35,25.84 L 9.35,26.93 L 9.28,26.96 L 7.54,26.07 L 7.47,26.07 L 7.47,27.19 L 9.28,28.12 L 9.35,28.12 L 9.35,27.06 L 9.38,27.03 L 10.27,27.46 Z" fill="#77553b" stroke="none" /><path d="M 2.80,23.70 L 2.77,23.70 L 2.77,24.79 L 2.73,24.82 L 1.91,24.40 L 1.84,24.40 L 1.84,25.48 L 2.73,25.94 L 2.77,25.94 L 2.77,24.89 L 2.80,24.86 L 3.72,25.32 L 3.72,24.16 Z" fill="#77553b" stroke="none" /><path d="M 11.23,22.19 L 11.23,23.34 L 13.07,24.26 L 13.07,23.11 Z" fill="#77553b" stroke="none" /><path d="M 8.40,21.93 L 8.40,23.08 L 10.27,24.00 L 10.27,22.85 Z" fill="#77553b" stroke="none" /><path d="M 2.77,19.13 L 2.77,20.25 L 4.64,21.20 L 4.64,22.35 L 5.53,22.78 L 5.60,22.85 L 5.60,23.97 L 6.52,24.43 L 6.52,23.28 L 5.66,22.85 L 5.60,22.78 L 5.60,21.73 L 5.63,21.70 L 6.52,22.12 L 6.52,20.97 L 5.66,20.54 L 5.60,20.54 L 5.60,21.60 L 5.53,21.63 L 4.64,21.17 L 4.64,20.05 L 4.61,20.02 L 2.83,19.13 Z" fill="#77553b" stroke="none" /><path d="M 14.02,19.00 L 14.02,20.15 L 14.85,20.58 L 14.91,20.58 L 14.91,19.42 Z" fill="#77553b" stroke="none" /><path d="M 9.35,17.81 L 9.35,18.96 L 11.16,19.88 L 11.23,19.88 L 11.23,18.73 Z" fill="#77553b" stroke="none" /><path d="M 6.52,16.40 L 6.52,17.55 L 8.33,18.47 L 8.40,18.47 L 8.40,17.32 Z" fill="#77553b" stroke="none" /><path d="M 1.84,15.21 L 1.84,16.36 L 3.72,17.28 L 3.72,16.13 Z" fill="#77553b" stroke="none" /><path d="M 13.10,15.08 L 13.07,15.08 L 13.07,16.16 L 13.04,16.20 L 12.15,15.77 L 12.15,16.92 L 13.04,17.38 L 13.07,17.38 L 13.07,16.30 L 13.10,16.26 L 13.96,16.69 L 14.02,16.69 L 14.02,15.54 Z" fill="#77553b" stroke="none" /><path d="M 0.00,13.14 L 0.00,14.29 L 0.92,14.75 L 0.92,13.60 Z" fill="#77553b" stroke="none" /><path d="M 11.23,13.07 L 11.23,14.16 L 12.15,14.62 L 12.15,13.53 Z" fill="#77553b" stroke="none" /><path d="M 9.35,12.12 L 8.40,11.65 L 8.40,12.67 L 8.36,12.71 L 7.47,12.28 L 7.47,13.37 L 7.44,13.40 L 6.58,12.97 L 6.52,12.97 L 6.52,14.12 L 7.47,14.58 L 7.47,13.50 L 7.54,13.47 L 8.40,13.89 L 8.40,12.81 L 8.43,12.77 L 9.28,13.20 L 9.35,13.20 Z" fill="#77553b" stroke="none" /><path d="M 1.84,10.63 L 1.84,11.79 L 2.77,12.25 L 2.77,13.37 L 3.65,13.83 L 3.72,13.83 L 3.72,12.71 L 2.77,12.21 L 2.77,11.06 L 1.91,10.63 Z" fill="#77553b" stroke="none" /><path d="M 3.72,10.40 L 3.72,11.56 L 4.64,12.02 L 4.64,10.86 Z" fill="#77553b" stroke="none" /><path d="M 0.00,8.56 L 0.00,9.71 L 0.86,10.14 L 0.92,10.14 L 0.92,8.99 L 0.07,8.56 Z" fill="#77553b" stroke="none" /><path d="M 7.47,22.62 L 7.47,23.77 L 8.33,24.20 L 8.40,24.20 L 8.40,23.05 L 7.54,22.62 Z" fill="#454545" stroke="none" /><path d="M 10.27,16.00 L 10.27,17.12 L 11.16,17.58 L 11.23,17.58 L 11.23,16.46 L 10.34,16.00 Z" fill="#454545" stroke="none" /><path d="M 0.92,10.17 L 0.92,11.33 L 1.78,11.75 L 1.84,11.75 L 1.84,10.60 L 0.99,10.17 Z" fill="#454545" stroke="none" /><path d="M 12.18,13.50 L 12.18,13.56 L 13.04,13.99 L 13.10,13.99 L 13.93,13.56 L 14.02,13.56 L 14.85,13.99 L 14.98,13.99 L 15.80,13.56 L 15.90,13.56 L 16.72,13.99 L 16.79,13.99 L 17.65,13.56 L 17.65,13.50 L 14.95,12.15 L 14.88,12.15 L 14.02,12.58 L 14.02,12.64 L 14.88,13.07 L 13.99,13.53 L 13.07,13.07 Z" fill="#946b49" stroke="none" /><path d="M 11.19,12.12 L 11.23,12.18 L 12.08,12.61 L 12.15,12.61 L 13.04,12.15 L 13.04,12.12 L 12.18,11.69 L 12.05,11.69 Z" fill="#946b49" stroke="none" /><path d="M 11.19,10.24 L 11.19,10.30 L 12.05,10.73 L 12.15,10.73 L 13.00,10.30 L 13.00,10.24 L 12.15,9.81 L 12.05,9.81 Z" fill="#946b49" stroke="none" /><path d="M 23.37,8.82 L 23.37,8.89 L 24.23,9.32 L 24.33,9.32 L 25.19,8.89 L 25.19,8.82 L 24.33,8.40 L 24.23,8.40 Z" fill="#946b49" stroke="none" /><path d="M 0.00,7.44 L 0.00,7.47 L 3.69,9.32 L 4.61,8.86 L 6.42,9.78 L 6.55,9.78 L 7.37,9.35 L 7.47,9.35 L 10.17,10.70 L 10.21,10.73 L 10.17,10.77 L 9.32,11.19 L 9.32,11.23 L 10.17,11.65 L 10.30,11.65 L 11.16,11.23 L 11.13,11.16 L 10.27,10.73 L 11.13,10.30 L 11.13,10.24 L 7.44,8.40 L 7.37,8.40 L 6.49,8.86 L 3.79,7.51 L 3.75,7.47 L 3.79,7.41 L 4.61,7.01 L 4.61,6.98 L 3.69,6.52 L 2.77,6.98 L 2.77,7.01 L 3.62,7.44 L 3.59,7.51 L 2.80,7.90 L 2.70,7.90 L 0.95,7.01 L 0.86,7.01 Z" fill="#946b49" stroke="none" /><path d="M 24.30,7.44 L 24.33,7.51 L 26.11,8.40 L 26.17,8.40 L 27.06,7.93 L 27.92,8.36 L 28.05,8.36 L 29.83,7.47 L 29.83,7.44 L 28.97,7.01 L 28.87,7.01 L 28.05,7.44 L 27.98,7.44 L 27.19,7.05 L 27.13,6.98 L 27.16,6.95 L 27.98,6.55 L 27.98,6.52 L 27.13,6.09 L 27.00,6.09 L 26.17,6.52 L 26.17,6.55 L 27.03,6.98 L 26.96,7.05 L 26.17,7.44 L 26.11,7.44 L 25.28,7.01 L 25.15,7.01 Z" fill="#946b49" stroke="none" /><path d="M 12.12,6.02 L 12.15,6.09 L 13.00,6.52 L 13.07,6.52 L 13.96,6.06 L 14.88,6.52 L 13.99,6.98 L 13.99,7.01 L 14.85,7.44 L 14.81,7.51 L 13.99,7.90 L 13.99,7.93 L 14.88,8.40 L 13.99,8.86 L 13.07,8.40 L 13.00,8.40 L 12.12,8.86 L 12.12,8.89 L 12.97,9.32 L 13.10,9.32 L 13.93,8.89 L 14.02,8.89 L 14.85,9.32 L 14.98,9.32 L 15.80,8.89 L 15.90,8.89 L 16.72,9.32 L 16.86,9.32 L 17.68,8.89 L 17.78,8.89 L 18.60,9.32 L 18.73,9.32 L 19.56,8.89 L 19.65,8.89 L 20.44,9.28 L 20.48,9.32 L 20.44,9.38 L 19.62,9.78 L 19.62,9.81 L 20.41,10.21 L 20.48,10.27 L 18.67,11.19 L 17.84,10.80 L 17.78,10.73 L 18.63,10.30 L 18.63,10.24 L 17.78,9.81 L 17.68,9.81 L 16.79,10.27 L 15.90,9.81 L 15.80,9.81 L 14.95,10.24 L 14.95,10.30 L 18.63,12.15 L 19.56,11.69 L 19.62,11.69 L 20.44,12.12 L 20.54,12.12 L 24.23,10.27 L 24.20,10.21 L 22.52,9.38 L 22.45,9.32 L 23.31,8.89 L 23.31,8.82 L 22.45,8.40 L 22.39,8.40 L 21.50,8.86 L 20.58,8.40 L 20.51,8.40 L 19.62,8.86 L 18.73,8.43 L 18.70,8.40 L 18.73,8.36 L 19.59,7.93 L 19.59,7.90 L 18.77,7.51 L 18.73,7.44 L 19.59,7.01 L 19.59,6.98 L 16.86,5.60 L 16.72,5.60 L 15.90,6.02 L 15.80,6.02 L 14.98,5.60 L 14.85,5.60 L 14.02,6.02 L 13.93,6.02 L 13.10,5.60 L 12.97,5.60 Z" fill="#946b49" stroke="none" /><path d="M 15.84,4.15 L 14.98,3.72 L 14.85,3.72 L 14.02,4.15 L 13.93,4.15 L 11.19,2.77 L 10.27,3.23 L 10.21,3.23 L 9.38,2.80 L 9.28,2.80 L 7.47,3.72 L 7.47,3.75 L 9.25,4.64 L 9.19,4.71 L 8.36,5.10 L 8.36,5.14 L 9.19,5.53 L 9.25,5.60 L 9.22,5.63 L 8.36,6.06 L 6.58,5.17 L 6.55,5.14 L 6.58,5.07 L 7.41,4.67 L 7.37,4.61 L 6.58,4.21 L 6.45,4.21 L 5.60,4.64 L 5.63,4.71 L 6.39,5.07 L 6.42,5.14 L 5.56,5.56 L 5.56,5.60 L 9.22,7.44 L 9.35,7.44 L 10.17,7.01 L 10.27,7.01 L 12.12,7.93 L 13.04,7.47 L 13.04,7.44 L 11.19,6.52 L 11.13,6.52 L 10.24,6.98 L 9.32,6.52 L 10.21,6.06 L 10.21,6.02 L 9.35,5.60 L 9.42,5.53 L 10.24,5.14 L 10.24,5.10 L 9.42,4.71 L 9.35,4.64 L 10.21,4.21 L 10.21,4.15 L 9.35,3.72 L 9.42,3.65 L 10.21,3.26 L 10.27,3.26 L 11.06,3.65 L 11.13,3.72 L 11.09,3.75 L 10.27,4.15 L 10.27,4.21 L 11.13,4.64 L 11.23,4.64 L 12.12,4.18 L 13.00,4.64 L 13.07,4.64 L 13.96,4.18 L 14.88,4.64 L 14.95,4.64 L 15.80,4.21 Z" fill="#946b49" stroke="none" /><path d="M 13.07,1.81 L 13.07,1.88 L 14.85,2.77 L 14.98,2.77 L 15.80,2.34 L 15.90,2.34 L 18.53,3.65 L 18.60,3.72 L 18.57,3.75 L 17.74,4.15 L 17.74,4.21 L 21.43,6.06 L 21.50,6.06 L 22.42,5.60 L 24.23,6.52 L 24.33,6.52 L 25.19,6.09 L 25.19,6.02 L 24.33,5.60 L 24.40,5.53 L 25.15,5.17 L 25.15,5.10 L 24.30,4.67 L 24.20,4.67 L 23.37,5.10 L 23.31,5.10 L 21.50,4.18 L 21.43,4.18 L 20.51,4.64 L 18.73,3.75 L 18.70,3.72 L 18.77,3.65 L 19.56,3.26 L 19.62,3.26 L 20.54,3.72 L 21.40,3.29 L 21.40,3.23 L 20.54,2.80 L 20.44,2.80 L 19.62,3.23 L 19.56,3.23 L 18.77,2.83 L 18.70,2.77 L 19.56,2.34 L 19.56,2.30 L 18.63,1.84 L 17.71,2.30 L 16.82,1.84 L 16.76,1.84 L 15.84,2.30 L 14.02,1.38 L 13.93,1.38 Z" fill="#946b49" stroke="none" /><path d="M 14.02,0.43 L 14.06,0.49 L 15.84,1.38 L 16.72,0.95 L 16.72,0.89 L 14.95,0.00 L 14.88,0.00 Z" fill="#946b49" stroke="none" /><path d="M 4.64,7.90 L 4.67,7.97 L 5.53,8.40 L 6.45,7.93 L 6.45,7.90 L 5.60,7.47 L 5.50,7.47 Z" fill="#545454" stroke="none" /><path d="M 21.50,6.98 L 21.50,7.01 L 22.35,7.44 L 22.49,7.44 L 23.34,7.01 L 23.34,6.98 L 22.42,6.52 Z" fill="#545454" stroke="none" /><path d="M 15.84,3.23 L 15.84,3.26 L 16.76,3.72 L 17.71,3.26 L 17.71,3.23 L 16.79,2.77 Z" fill="#545454" stroke="none" /><path d="M 5.60,26.27 L 5.60,27.36 L 6.52,27.82 L 6.52,26.70 L 5.66,26.27 Z" fill="#575757" stroke="none" /><path d="M 13.07,24.26 L 13.07,25.42 L 14.02,25.88 L 14.02,24.72 Z" fill="#575757" stroke="none" /><path d="M 3.72,15.01 L 3.72,16.16 L 4.58,16.59 L 4.64,16.59 L 4.64,15.44 L 3.79,15.01 Z" fill="#575757" stroke="none" /><path d="M 5.60,10.27 L 5.60,11.36 L 6.45,11.79 L 6.52,11.79 L 6.52,10.70 L 5.66,10.27 Z" fill="#575757" stroke="none" /><path d="M 14.91,9.32 L 14.91,9.35 L 16.76,10.27 L 16.82,10.27 L 17.71,9.81 L 18.60,10.24 L 18.63,10.27 L 18.60,10.30 L 17.74,10.73 L 17.74,10.77 L 18.60,11.19 L 18.70,11.19 L 20.51,10.27 L 21.43,10.73 L 21.50,10.73 L 22.39,10.27 L 22.39,10.24 L 21.53,9.81 L 21.40,9.81 L 20.58,10.24 L 20.48,10.24 L 19.69,9.84 L 19.65,9.81 L 19.72,9.74 L 20.54,9.35 L 20.54,9.32 L 19.62,8.86 L 18.70,9.32 L 18.63,9.32 L 17.74,8.86 L 16.82,9.32 L 16.76,9.32 L 15.87,8.86 Z" fill="#b7835b" stroke="none" /><path d="M 3.72,9.28 L 3.75,9.35 L 7.44,11.19 L 8.36,10.73 L 9.22,11.16 L 9.25,11.19 L 9.19,11.26 L 8.43,11.62 L 8.43,11.69 L 12.12,13.53 L 12.18,13.53 L 13.00,13.10 L 13.10,13.10 L 13.89,13.50 L 13.93,13.53 L 13.86,13.60 L 13.10,13.96 L 13.10,14.02 L 14.88,14.91 L 14.95,14.91 L 16.72,14.02 L 16.72,13.96 L 15.87,13.53 L 14.95,13.99 L 14.88,13.99 L 14.09,13.60 L 14.02,13.53 L 14.06,13.50 L 14.88,13.10 L 14.88,13.04 L 13.10,12.15 L 13.00,12.15 L 12.12,12.61 L 11.26,12.18 L 11.23,12.15 L 11.29,12.08 L 12.12,11.69 L 12.12,11.65 L 11.19,11.19 L 10.27,11.65 L 10.21,11.65 L 9.42,11.26 L 9.35,11.19 L 9.38,11.16 L 10.21,10.77 L 10.21,10.70 L 7.44,9.32 L 6.52,9.78 L 6.45,9.78 L 4.64,8.86 L 4.58,8.86 Z" fill="#b7835b" stroke="none" /><path d="M 3.69,7.47 L 3.69,7.44 L 2.86,7.05 L 2.80,6.98 L 3.65,6.55 L 3.62,6.49 L 2.83,6.09 L 2.70,6.09 L 0.92,6.98 L 0.95,7.05 L 2.73,7.93 Z" fill="#b7835b" stroke="none" /><path d="M 24.30,5.56 L 24.33,5.63 L 25.19,6.06 L 24.33,6.49 L 24.30,6.55 L 26.07,7.44 L 26.21,7.44 L 27.03,7.01 L 27.13,7.01 L 27.95,7.44 L 28.08,7.44 L 28.91,7.01 L 28.91,6.98 L 28.05,6.55 L 27.92,6.55 L 27.09,6.98 L 26.27,6.58 L 26.21,6.52 L 26.24,6.49 L 27.06,6.09 L 27.06,6.06 L 25.22,5.14 L 25.15,5.14 Z" fill="#b7835b" stroke="none" /><path d="M 6.52,4.18 L 6.52,4.21 L 7.37,4.64 L 7.31,4.71 L 6.49,5.10 L 6.49,5.14 L 8.33,6.06 L 8.40,6.06 L 9.32,5.60 L 10.11,5.99 L 10.17,6.06 L 9.32,6.49 L 9.32,6.55 L 10.17,6.98 L 10.27,6.98 L 11.16,6.52 L 13.96,7.93 L 14.88,7.47 L 14.95,7.47 L 15.84,7.93 L 16.79,7.47 L 16.79,7.44 L 15.87,6.98 L 14.95,7.44 L 14.88,7.44 L 14.09,7.05 L 14.02,6.98 L 14.06,6.95 L 14.88,6.55 L 14.88,6.49 L 14.02,6.06 L 14.09,5.99 L 14.91,5.60 L 14.91,5.56 L 12.15,4.18 L 12.08,4.18 L 11.16,4.64 L 10.27,4.18 L 11.16,3.72 L 11.16,3.69 L 10.30,3.26 L 10.17,3.26 L 9.32,3.69 L 9.35,3.75 L 10.21,4.18 L 9.32,4.64 L 7.47,3.72 Z" fill="#b7835b" stroke="none" /><path d="M 18.67,2.77 L 18.67,2.80 L 19.52,3.23 L 19.49,3.29 L 18.67,3.69 L 18.67,3.72 L 20.48,4.64 L 20.58,4.64 L 21.47,4.18 L 23.28,5.10 L 23.41,5.10 L 24.23,4.67 L 24.23,4.64 L 21.47,3.26 L 21.40,3.26 L 20.58,3.69 L 20.48,3.69 L 19.69,3.29 L 19.65,3.26 L 19.69,3.19 L 20.44,2.83 L 20.48,2.77 L 19.62,2.34 L 19.49,2.34 Z" fill="#b7835b" stroke="none" /><path d="M 13.10,0.89 L 13.10,0.95 L 15.80,2.30 L 15.90,2.30 L 16.79,1.84 L 17.68,2.30 L 17.74,2.30 L 18.60,1.88 L 18.57,1.81 L 16.79,0.92 L 16.72,0.92 L 15.90,1.35 L 15.80,1.35 L 14.06,0.46 L 13.96,0.46 Z" fill="#b7835b" stroke="none" /><path d="M 14.95,8.36 L 14.95,8.43 L 15.80,8.86 L 15.90,8.86 L 16.76,8.43 L 16.76,8.36 L 15.90,7.93 L 15.80,7.93 Z" fill="#6e6e6e" stroke="none" /></svg>