<svg height="32" width="32" viewBox="0 0 32 32"><defs /><path d="M 7.22,21.82 L 7.22,22.93 L 8.11,23.38 L 8.11,22.27 Z" fill="#4a1602" stroke="none" /><path d="M 2.67,19.56 L 2.67,20.68 L 3.59,21.12 L 3.59,20.01 L 2.74,19.56 Z" fill="#4a1602" stroke="none" /><path d="M 5.44,17.59 L 5.41,17.59 L 5.41,18.64 L 5.38,18.67 L 4.55,18.26 L 4.49,18.26 L 4.49,19.34 L 5.34,19.79 L 5.41,19.79 L 5.41,18.77 L 5.44,18.74 L 6.30,19.15 L 6.30,18.04 Z" fill="#4a1602" stroke="none" /><path d="M 7.22,16.29 L 7.22,17.40 L 8.05,17.81 L 8.11,17.81 L 8.11,16.70 L 7.28,16.29 Z" fill="#4a1602" stroke="none" /><path d="M 2.67,14.00 L 2.67,15.11 L 3.53,15.55 L 3.59,15.55 L 3.59,14.44 Z" fill="#4a1602" stroke="none" /><path d="M 25.22,21.12 L 24.33,21.57 L 24.33,22.65 L 24.40,22.65 L 25.22,22.23 Z" fill="#100c04" stroke="none" /><path d="M 25.22,17.81 L 25.16,17.81 L 24.33,18.23 L 24.33,19.34 L 25.22,18.89 Z" fill="#100c04" stroke="none" /><path d="M 25.22,15.59 L 25.16,15.59 L 24.33,16.00 L 24.33,17.11 L 24.40,17.11 L 25.22,16.70 Z" fill="#100c04" stroke="none" /><path d="M 15.27,21.66 L 14.41,22.08 L 14.41,23.19 L 14.47,23.19 L 15.27,22.78 Z" fill="#0b0905" stroke="none" /><path d="M 28.82,14.89 L 27.93,15.33 L 27.93,16.45 L 28.82,16.00 Z" fill="#0b0905" stroke="none" /><path d="M 10.85,22.52 L 10.85,23.63 L 11.74,24.08 L 11.74,22.97 Z" fill="#1a1307" stroke="none" /><path d="M 10.85,16.99 L 10.85,18.10 L 11.67,18.51 L 11.74,18.51 L 11.74,17.43 Z" fill="#1a1307" stroke="none" /><path d="M 13.55,21.66 L 13.55,22.78 L 14.35,23.19 L 14.41,23.19 L 14.41,22.08 Z" fill="#110e08" stroke="none" /><path d="M 0.00,14.89 L 0.00,16.00 L 0.89,16.45 L 0.89,15.33 Z" fill="#110e08" stroke="none" /><path d="M 19.79,26.05 L 18.89,26.50 L 18.89,27.58 L 18.83,27.64 L 18.00,28.06 L 17.97,28.02 L 17.97,26.97 L 17.91,26.97 L 17.08,27.39 L 17.08,28.50 L 17.15,28.50 L 17.94,28.09 L 17.97,28.12 L 17.97,29.17 L 18.00,29.17 L 19.79,28.28 Z" fill="#1d1508" stroke="none" /><path d="M 17.97,24.75 L 17.08,25.19 L 17.08,26.27 L 17.15,26.27 L 17.97,25.86 Z" fill="#1d1508" stroke="none" /><path d="M 19.79,13.87 L 19.72,13.87 L 17.97,14.76 L 17.97,15.84 L 17.91,15.90 L 17.08,16.32 L 17.08,17.40 L 17.02,17.46 L 16.19,17.88 L 16.19,18.96 L 16.25,18.96 L 17.05,18.54 L 17.08,18.58 L 17.08,19.63 L 17.15,19.63 L 17.97,19.21 L 17.97,18.10 L 17.91,18.10 L 17.11,18.51 L 17.08,18.48 L 17.08,17.46 L 17.15,17.40 L 17.97,16.99 L 17.97,15.90 L 18.04,15.84 L 18.86,15.43 L 18.89,15.46 L 18.89,16.51 L 18.96,16.51 L 19.79,16.10 Z" fill="#1d1508" stroke="none" /><path d="M 17.97,20.33 L 17.91,20.33 L 17.08,20.74 L 17.08,21.85 L 17.15,21.85 L 17.97,21.44 Z" fill="#160d09" stroke="none" /><path d="M 23.41,17.59 L 19.82,19.37 L 19.79,19.40 L 19.79,20.52 L 23.38,18.74 L 23.41,18.70 Z" fill="#160d09" stroke="none" /><path d="M 27.93,15.33 L 25.22,16.67 L 25.22,17.78 L 25.29,17.78 L 27.90,16.48 L 27.93,16.45 Z" fill="#160d09" stroke="none" /><path d="M 17.08,20.77 L 17.02,20.77 L 15.27,21.66 L 15.27,22.78 L 17.08,21.88 Z" fill="#1e1109" stroke="none" /><path d="M 19.79,19.40 L 17.97,20.29 L 17.97,21.41 L 18.04,21.41 L 19.79,20.52 Z" fill="#1e1109" stroke="none" /><path d="M 25.22,16.70 L 25.16,16.70 L 23.41,17.59 L 23.41,18.70 L 25.22,17.81 Z" fill="#1e1109" stroke="none" /><path d="M 16.19,25.64 L 16.19,26.72 L 16.25,26.72 L 17.05,26.31 L 17.08,26.34 L 17.08,27.39 L 17.15,27.39 L 17.94,26.97 L 17.97,27.01 L 17.97,28.06 L 18.04,28.06 L 18.89,27.61 L 18.89,26.50 L 18.00,26.94 L 17.97,26.91 L 17.97,25.86 L 17.91,25.86 L 17.11,26.27 L 17.08,26.24 L 17.08,25.19 Z" fill="#2b1a09" stroke="none" /><path d="M 18.89,15.43 L 18.83,15.43 L 17.97,15.87 L 17.97,16.99 L 18.89,16.54 Z" fill="#2b1a09" stroke="none" /><path d="M 17.08,24.08 L 16.19,24.52 L 16.19,25.64 L 17.08,25.19 Z" fill="#39230c" stroke="none" /><path d="M 17.97,16.99 L 17.08,17.43 L 17.08,18.51 L 16.19,18.96 L 16.19,21.18 L 16.25,21.18 L 17.08,20.77 L 17.08,18.54 L 17.97,18.10 Z" fill="#39230c" stroke="none" /><path d="M 11.74,20.77 L 11.74,21.88 L 13.55,22.78 L 13.55,21.66 L 11.80,20.77 Z" fill="#24150e" stroke="none" /><path d="M 9.03,19.40 L 9.03,20.52 L 9.92,20.96 L 9.92,19.85 Z" fill="#24150e" stroke="none" /><path d="M 0.89,15.33 L 0.89,16.45 L 1.78,16.89 L 1.78,15.78 Z" fill="#24150e" stroke="none" /><path d="M 9.92,19.85 L 9.92,20.96 L 11.67,21.85 L 11.74,21.85 L 11.74,20.74 Z" fill="#301c0f" stroke="none" /><path d="M 25.22,18.89 L 24.33,19.34 L 24.33,21.57 L 25.22,21.12 Z" fill="#36290f" stroke="none" /><path d="M 7.25,20.71 L 7.22,20.71 L 7.22,21.76 L 7.19,21.79 L 6.36,21.38 L 6.30,21.38 L 6.30,22.49 L 7.19,22.93 L 7.22,22.93 L 7.22,21.88 L 7.25,21.85 L 8.11,22.27 L 8.11,21.15 Z" fill="#631611" stroke="none" /><path d="M 5.41,18.70 L 5.41,19.82 L 6.23,20.23 L 6.30,20.23 L 6.30,19.15 Z" fill="#631611" stroke="none" /><path d="M 6.30,15.81 L 6.30,16.92 L 7.22,17.40 L 7.22,19.63 L 8.05,20.04 L 8.11,20.04 L 8.11,17.81 L 7.22,17.37 L 7.22,16.25 Z" fill="#631611" stroke="none" /><path d="M 3.59,14.47 L 3.59,15.52 L 3.56,15.55 L 2.67,15.11 L 2.67,19.56 L 3.53,19.98 L 3.59,20.04 L 3.59,21.12 L 4.49,21.57 L 4.49,20.45 L 3.66,20.04 L 3.59,19.98 L 3.59,15.62 L 3.63,15.59 L 4.42,16.00 L 4.49,16.00 L 4.49,14.89 L 3.66,14.47 Z" fill="#631611" stroke="none" /><path d="M 8.94,5.38 L 8.08,5.82 L 8.08,5.85 L 8.91,6.27 L 8.87,6.33 L 8.08,6.71 L 8.08,6.74 L 9.00,7.19 L 9.86,6.74 L 9.86,6.71 L 9.03,6.30 L 9.07,6.23 L 9.86,5.85 L 9.86,5.82 L 9.00,5.38 Z" fill="#483515" stroke="none" /><path d="M 10.85,21.44 L 10.85,22.52 L 11.74,22.97 L 11.74,21.85 L 10.91,21.44 Z" fill="#584219" stroke="none" /><path d="M 10.85,18.10 L 10.85,20.33 L 11.67,20.74 L 11.74,20.74 L 11.74,18.51 L 10.91,18.10 Z" fill="#584219" stroke="none" /><path d="M 4.49,20.45 L 4.49,21.57 L 6.23,22.46 L 6.30,22.46 L 6.30,21.34 Z" fill="#7a181a" stroke="none" /><path d="M 7.22,19.63 L 7.22,20.71 L 8.11,21.15 L 8.11,20.04 L 7.28,19.63 Z" fill="#7a181a" stroke="none" /><path d="M 4.49,17.15 L 4.49,18.26 L 5.41,18.70 L 5.41,17.59 L 4.55,17.15 Z" fill="#7a181a" stroke="none" /><path d="M 4.49,14.92 L 4.49,16.03 L 6.30,16.92 L 6.30,15.81 L 4.55,14.92 Z" fill="#7a181a" stroke="none" /><path d="M 19.79,24.94 L 18.89,25.38 L 18.89,26.50 L 19.79,26.05 Z" fill="#1b1b1b" stroke="none" /><path d="M 19.79,16.10 L 19.72,16.10 L 18.89,16.51 L 18.89,17.62 L 19.79,17.18 Z" fill="#1b1b1b" stroke="none" /><path d="M 8.02,4.93 L 7.19,5.34 L 7.19,5.41 L 8.02,5.82 L 7.95,5.88 L 7.22,6.23 L 7.19,6.30 L 8.02,6.71 L 8.14,6.71 L 8.97,6.30 L 8.97,6.27 L 8.17,5.88 L 8.11,5.82 L 8.94,5.41 L 8.94,5.34 L 8.11,4.93 Z" fill="#674d1e" stroke="none" /><path d="M 15.27,29.42 L 14.41,29.84 L 14.41,32.00 L 14.47,32.00 L 15.27,31.59 Z" fill="#3e3726" stroke="none" /><path d="M 18.89,28.72 L 18.83,28.72 L 17.97,29.17 L 17.97,30.22 L 18.04,30.22 L 18.89,29.77 Z" fill="#3e3726" stroke="none" /><path d="M 15.27,27.20 L 14.41,27.61 L 14.41,28.72 L 14.47,28.72 L 15.27,28.31 Z" fill="#3e3726" stroke="none" /><path d="M 18.89,25.38 L 17.97,25.83 L 17.97,26.94 L 18.04,26.94 L 18.89,26.50 Z" fill="#3e3726" stroke="none" /><path d="M 26.15,25.10 L 26.08,25.10 L 25.22,25.54 L 25.22,26.59 L 25.29,26.59 L 26.15,26.15 Z" fill="#3e3726" stroke="none" /><path d="M 22.52,23.57 L 20.71,24.46 L 20.71,25.57 L 20.77,25.57 L 22.52,24.68 Z" fill="#3e3726" stroke="none" /><path d="M 28.82,20.42 L 27.04,21.31 L 27.04,22.43 L 28.82,21.53 Z" fill="#3e3726" stroke="none" /><path d="M 26.15,19.56 L 26.08,19.56 L 25.22,20.01 L 25.22,21.12 L 26.15,20.68 Z" fill="#3e3726" stroke="none" /><path d="M 18.89,18.74 L 17.97,19.18 L 17.97,20.29 L 18.04,20.29 L 18.89,19.85 Z" fill="#3e3726" stroke="none" /><path d="M 18.89,16.54 L 18.83,16.54 L 17.97,16.99 L 17.97,18.07 L 18.04,18.07 L 18.89,17.62 Z" fill="#3e3726" stroke="none" /><path d="M 26.15,15.11 L 25.22,15.55 L 25.22,16.67 L 25.29,16.67 L 26.15,16.22 Z" fill="#3e3726" stroke="none" /><path d="M 15.27,15.01 L 14.41,15.43 L 14.41,17.65 L 15.27,17.24 Z" fill="#3e3726" stroke="none" /><path d="M 18.89,13.20 L 17.97,13.65 L 17.97,14.76 L 18.89,14.31 Z" fill="#3e3726" stroke="none" /><path d="M 22.52,11.39 L 21.60,11.83 L 21.60,12.95 L 22.52,12.50 Z" fill="#3e3726" stroke="none" /><path d="M 27.93,10.91 L 27.86,10.91 L 26.15,11.77 L 26.15,12.88 L 26.21,12.88 L 27.93,12.02 Z" fill="#3e3726" stroke="none" /><path d="M 15.27,28.31 L 14.41,28.72 L 14.41,29.84 L 14.47,29.84 L 15.27,29.42 Z" fill="#413a29" stroke="none" /><path d="M 22.52,26.91 L 22.46,26.91 L 21.60,27.36 L 21.60,28.41 L 21.66,28.41 L 22.52,27.96 Z" fill="#413a29" stroke="none" /><path d="M 17.08,26.31 L 17.02,26.31 L 16.19,26.72 L 16.19,27.83 L 16.25,27.83 L 17.08,27.42 Z" fill="#413a29" stroke="none" /><path d="M 20.71,24.49 L 20.64,24.49 L 19.79,24.94 L 19.79,26.05 L 20.71,25.61 Z" fill="#413a29" stroke="none" /><path d="M 15.27,23.89 L 15.20,23.89 L 14.41,24.30 L 14.41,27.61 L 14.47,27.61 L 15.27,27.20 Z" fill="#413a29" stroke="none" /><path d="M 22.46,22.49 L 21.60,22.93 L 21.60,24.02 L 21.66,24.02 L 22.49,23.60 L 22.52,23.63 L 22.52,24.68 L 22.55,24.68 L 23.41,24.24 L 23.41,23.13 L 22.55,23.54 L 22.52,23.51 L 22.52,22.49 Z" fill="#413a29" stroke="none" /><path d="M 27.04,21.31 L 26.15,21.76 L 26.15,22.87 L 27.04,22.43 Z" fill="#413a29" stroke="none" /><path d="M 18.89,20.96 L 17.97,21.41 L 17.97,22.52 L 18.89,22.08 Z" fill="#413a29" stroke="none" /><path d="M 18.89,17.62 L 17.97,18.07 L 17.97,19.18 L 18.04,19.18 L 18.89,18.74 Z" fill="#413a29" stroke="none" /><path d="M 26.15,17.34 L 25.22,17.78 L 25.22,20.01 L 26.15,19.56 Z" fill="#413a29" stroke="none" /><path d="M 15.27,17.24 L 15.20,17.24 L 14.41,17.65 L 14.41,20.96 L 14.47,20.96 L 15.27,20.55 Z" fill="#413a29" stroke="none" /><path d="M 20.71,14.50 L 19.79,14.95 L 19.79,16.06 L 19.85,16.06 L 20.71,15.62 Z" fill="#413a29" stroke="none" /><path d="M 26.15,14.00 L 25.22,14.44 L 25.22,15.55 L 25.29,15.55 L 26.15,15.11 Z" fill="#413a29" stroke="none" /><path d="M 22.52,12.50 L 22.46,12.50 L 21.60,12.95 L 21.60,14.06 L 22.49,13.61 L 22.52,13.65 L 22.52,14.70 L 21.60,15.17 L 21.60,18.48 L 21.66,18.48 L 22.52,18.04 L 22.52,14.73 L 23.41,14.28 L 23.41,13.17 L 23.35,13.17 L 22.55,13.58 L 22.52,13.55 Z" fill="#413a29" stroke="none" /><path d="M 28.82,10.47 L 28.76,10.47 L 27.93,10.88 L 27.93,11.99 L 27.99,11.99 L 28.82,11.58 Z" fill="#413a29" stroke="none" /><path d="M 26.15,9.57 L 25.22,10.02 L 25.22,11.13 L 26.15,10.69 Z" fill="#413a29" stroke="none" /><path d="M 17.08,22.97 L 16.19,23.41 L 16.19,24.52 L 17.08,24.08 Z" fill="#2a2a2a" stroke="none" /><path d="M 19.79,21.63 L 19.72,21.63 L 18.89,22.04 L 18.89,25.38 L 19.79,24.94 Z" fill="#2b2b2b" stroke="none" /><path d="M 19.79,17.18 L 18.89,17.62 L 18.89,18.74 L 19.79,18.29 Z" fill="#2b2b2b" stroke="none" /><path d="M 17.08,28.53 L 17.02,28.53 L 16.19,28.95 L 16.19,30.06 L 17.08,29.61 Z" fill="#49422e" stroke="none" /><path d="M 20.71,26.72 L 20.64,26.72 L 19.79,27.17 L 19.79,28.25 L 18.89,28.69 L 18.89,29.77 L 19.79,29.33 L 19.79,28.28 L 20.71,27.80 Z" fill="#49422e" stroke="none" /><path d="M 25.22,24.46 L 25.16,24.46 L 24.33,24.87 L 24.33,25.99 L 25.22,25.54 Z" fill="#49422e" stroke="none" /><path d="M 20.71,23.38 L 19.79,23.83 L 19.79,24.94 L 20.71,24.49 Z" fill="#49422e" stroke="none" /><path d="M 27.01,22.43 L 26.15,22.87 L 26.15,23.98 L 26.97,23.57 L 27.04,23.60 L 27.04,25.70 L 27.07,25.70 L 27.93,25.26 L 27.93,23.09 L 27.07,23.51 L 27.04,23.48 L 27.04,22.43 Z" fill="#49422e" stroke="none" /><path d="M 17.97,21.44 L 17.91,21.44 L 17.08,21.85 L 17.08,25.19 L 17.97,24.75 Z" fill="#49422e" stroke="none" /><path d="M 24.33,20.45 L 23.41,20.90 L 23.41,22.01 L 23.48,22.01 L 24.33,21.57 Z" fill="#49422e" stroke="none" /><path d="M 20.71,20.07 L 20.64,20.07 L 19.79,20.52 L 19.79,21.60 L 19.85,21.60 L 20.71,21.15 Z" fill="#49422e" stroke="none" /><path d="M 17.97,19.21 L 17.91,19.21 L 17.08,19.63 L 17.08,20.74 L 17.15,20.74 L 17.97,20.33 Z" fill="#49422e" stroke="none" /><path d="M 24.33,18.26 L 24.27,18.26 L 23.41,18.70 L 23.41,19.79 L 23.48,19.79 L 24.33,19.34 Z" fill="#49422e" stroke="none" /><path d="M 27.04,16.89 L 26.15,17.34 L 26.15,21.76 L 27.04,21.31 Z" fill="#49422e" stroke="none" /><path d="M 24.33,14.92 L 24.27,14.92 L 23.41,15.36 L 23.41,17.59 L 24.33,17.15 Z" fill="#49422e" stroke="none" /><path d="M 17.97,13.68 L 17.91,13.68 L 17.08,14.09 L 17.08,15.20 L 17.97,14.76 Z" fill="#49422e" stroke="none" /><path d="M 27.04,12.47 L 26.97,12.47 L 26.15,12.88 L 26.15,16.22 L 27.04,15.78 Z" fill="#49422e" stroke="none" /><path d="M 21.60,11.86 L 21.53,11.86 L 20.71,12.28 L 20.71,14.50 L 21.60,14.06 Z" fill="#49422e" stroke="none" /><path d="M 25.22,11.13 L 24.33,11.58 L 24.33,12.69 L 25.22,12.25 Z" fill="#49422e" stroke="none" /><path d="M 16.19,26.75 L 16.13,26.75 L 15.27,27.20 L 15.27,28.31 L 16.19,27.86 Z" fill="#453f2f" stroke="none" /><path d="M 22.52,24.68 L 21.60,25.13 L 21.60,27.32 L 21.53,27.39 L 19.79,28.25 L 19.79,29.33 L 21.60,28.44 L 21.60,27.39 L 21.66,27.32 L 22.52,26.91 Z" fill="#453f2f" stroke="none" /><path d="M 28.82,23.76 L 28.76,23.76 L 27.93,24.17 L 27.93,25.26 L 28.82,24.81 Z" fill="#453f2f" stroke="none" /><path d="M 26.12,22.87 L 25.22,23.32 L 25.22,25.54 L 26.12,25.10 L 26.15,25.13 L 26.15,26.15 L 26.18,26.15 L 27.04,25.70 L 27.04,24.65 L 26.97,24.65 L 26.18,25.07 L 26.15,25.03 L 26.15,22.87 Z" fill="#453f2f" stroke="none" /><path d="M 15.27,22.78 L 14.41,23.19 L 14.41,24.30 L 15.27,23.89 Z" fill="#453f2f" stroke="none" /><path d="M 18.89,22.08 L 18.83,22.08 L 17.97,22.52 L 17.97,25.83 L 18.04,25.83 L 18.89,25.38 Z" fill="#453f2f" stroke="none" /><path d="M 15.27,20.55 L 14.41,20.96 L 14.41,22.08 L 14.47,22.08 L 15.27,21.66 Z" fill="#453f2f" stroke="none" /><path d="M 22.52,19.15 L 21.60,19.59 L 21.60,22.93 L 22.52,22.49 Z" fill="#453f2f" stroke="none" /><path d="M 17.08,16.32 L 15.27,17.21 L 15.27,18.32 L 15.33,18.32 L 17.08,17.43 Z" fill="#453f2f" stroke="none" /><path d="M 15.27,13.96 L 15.20,13.96 L 14.41,14.38 L 14.41,15.43 L 14.47,15.43 L 15.27,15.01 Z" fill="#453f2f" stroke="none" /><path d="M 22.52,13.61 L 22.46,13.61 L 20.71,14.50 L 20.71,15.62 L 22.52,14.73 Z" fill="#453f2f" stroke="none" /><path d="M 18.89,12.15 L 18.83,12.15 L 17.97,12.60 L 17.97,13.65 L 18.04,13.65 L 18.89,13.20 Z" fill="#453f2f" stroke="none" /><path d="M 22.52,10.34 L 22.46,10.34 L 21.60,10.78 L 21.60,11.83 L 21.66,11.83 L 22.52,11.39 Z" fill="#453f2f" stroke="none" /><path d="M 26.15,8.52 L 26.08,8.52 L 25.22,8.97 L 25.22,10.02 L 25.29,10.02 L 26.15,9.57 Z" fill="#453f2f" stroke="none" /><path d="M 17.08,29.61 L 16.19,30.06 L 16.19,31.11 L 16.25,31.11 L 17.08,30.70 Z" fill="#4f4830" stroke="none" /><path d="M 25.22,25.54 L 24.33,25.99 L 24.33,27.04 L 24.40,27.04 L 25.22,26.62 Z" fill="#4f4830" stroke="none" /><path d="M 23.41,22.04 L 23.35,22.04 L 22.52,22.46 L 22.52,23.57 L 23.41,23.13 Z" fill="#4f4830" stroke="none" /><path d="M 20.71,21.15 L 19.79,21.60 L 19.79,23.83 L 19.85,23.83 L 20.71,23.38 Z" fill="#4f4830" stroke="none" /><path d="M 24.33,19.34 L 23.41,19.79 L 23.41,20.90 L 23.48,20.90 L 24.33,20.45 Z" fill="#4f4830" stroke="none" /><path d="M 27.93,18.67 L 27.86,18.67 L 27.04,19.09 L 27.04,21.31 L 27.93,20.87 Z" fill="#4f4830" stroke="none" /><path d="M 16.19,17.88 L 15.27,18.32 L 15.27,19.44 L 16.19,18.99 Z" fill="#4f4830" stroke="none" /><path d="M 21.60,15.17 L 19.79,16.06 L 19.79,19.40 L 20.71,18.96 L 20.71,16.73 L 21.60,16.29 Z" fill="#4f4830" stroke="none" /><path d="M 23.41,14.28 L 23.35,14.28 L 22.52,14.70 L 22.52,15.81 L 23.41,15.36 Z" fill="#4f4830" stroke="none" /><path d="M 17.08,14.12 L 17.02,14.12 L 16.19,14.54 L 16.19,15.65 L 17.08,15.20 Z" fill="#4f4830" stroke="none" /><path d="M 23.41,12.06 L 23.35,12.06 L 22.52,12.47 L 22.52,13.58 L 22.58,13.58 L 23.41,13.17 Z" fill="#4f4830" stroke="none" /><path d="M 28.82,11.58 L 28.76,11.58 L 27.04,12.44 L 27.04,15.78 L 27.93,15.33 L 27.93,13.14 L 27.99,13.07 L 28.82,12.66 Z" fill="#4f4830" stroke="none" /><path d="M 25.22,10.05 L 25.16,10.05 L 24.33,10.47 L 24.33,11.58 L 25.22,11.13 Z" fill="#4f4830" stroke="none" /><path d="M 28.82,8.24 L 27.93,8.68 L 27.93,9.77 L 27.04,10.21 L 27.04,11.32 L 27.10,11.32 L 27.93,10.91 L 27.93,9.80 L 28.82,9.35 Z" fill="#4f4830" stroke="none" /><path d="M 16.19,28.98 L 16.13,28.98 L 15.27,29.42 L 15.27,31.59 L 16.19,31.14 Z" fill="#554c35" stroke="none" /><path d="M 17.97,28.09 L 17.91,28.09 L 17.08,28.50 L 17.08,30.66 L 17.15,30.66 L 17.97,30.25 Z" fill="#554c35" stroke="none" /><path d="M 20.64,25.61 L 19.79,26.05 L 19.79,27.17 L 20.68,26.72 L 20.71,26.75 L 20.71,27.80 L 20.74,27.80 L 21.60,27.36 L 21.60,26.27 L 21.53,26.27 L 20.74,26.69 L 20.71,26.66 L 20.71,25.61 Z" fill="#554c35" stroke="none" /><path d="M 24.33,24.91 L 24.27,24.91 L 22.52,25.80 L 22.52,27.96 L 24.33,27.07 Z" fill="#554c35" stroke="none" /><path d="M 16.19,24.52 L 15.27,24.97 L 15.27,27.20 L 16.19,26.75 Z" fill="#554c35" stroke="none" /><path d="M 28.82,22.65 L 27.93,23.09 L 27.93,24.17 L 27.99,24.17 L 28.82,23.76 Z" fill="#554c35" stroke="none" /><path d="M 23.41,20.93 L 23.35,20.93 L 22.52,21.34 L 22.52,22.46 L 22.58,22.46 L 23.41,22.04 Z" fill="#554c35" stroke="none" /><path d="M 21.60,19.63 L 21.53,19.63 L 20.71,20.04 L 20.71,24.46 L 20.77,24.46 L 21.60,24.05 Z" fill="#554c35" stroke="none" /><path d="M 28.82,19.34 L 28.76,19.34 L 27.93,19.75 L 27.93,20.87 L 28.82,20.42 Z" fill="#554c35" stroke="none" /><path d="M 16.19,18.99 L 16.13,18.99 L 15.27,19.44 L 15.27,20.55 L 16.19,20.10 Z" fill="#554c35" stroke="none" /><path d="M 23.41,18.70 L 22.52,19.15 L 22.52,20.23 L 22.58,20.23 L 23.41,19.82 Z" fill="#554c35" stroke="none" /><path d="M 21.60,16.29 L 21.53,16.29 L 20.71,16.70 L 20.71,17.81 L 20.77,17.81 L 21.60,17.40 Z" fill="#554c35" stroke="none" /><path d="M 28.82,16.00 L 27.04,16.89 L 27.04,19.09 L 27.10,19.09 L 27.93,18.67 L 27.93,17.56 L 28.82,17.11 Z" fill="#554c35" stroke="none" /><path d="M 23.41,15.36 L 22.52,15.81 L 22.52,16.92 L 23.41,16.48 Z" fill="#554c35" stroke="none" /><path d="M 17.97,14.76 L 16.25,15.62 L 16.19,15.59 L 16.19,14.57 L 16.13,14.57 L 15.30,14.98 L 15.27,15.01 L 15.27,17.21 L 15.33,17.21 L 17.94,15.90 L 17.97,15.87 Z" fill="#554c35" stroke="none" /><path d="M 28.82,12.66 L 27.93,13.11 L 27.93,14.22 L 28.82,13.77 Z" fill="#554c35" stroke="none" /><path d="M 20.71,12.31 L 20.64,12.31 L 18.89,13.20 L 18.89,14.28 L 18.96,14.28 L 19.75,13.87 L 19.79,13.90 L 19.79,14.95 L 19.85,14.95 L 20.71,14.50 Z" fill="#554c35" stroke="none" /><path d="M 24.33,10.50 L 24.27,10.50 L 22.52,11.39 L 22.52,12.47 L 22.58,12.47 L 24.33,11.58 Z" fill="#554c35" stroke="none" /><path d="M 28.82,9.35 L 28.76,9.35 L 27.96,9.77 L 27.93,9.73 L 27.93,8.68 L 27.90,8.68 L 26.18,9.54 L 26.15,9.57 L 26.15,11.77 L 26.21,11.77 L 27.04,11.36 L 27.04,10.24 L 27.90,9.80 L 27.93,9.83 L 27.93,10.88 L 27.99,10.88 L 28.82,10.47 Z" fill="#554c35" stroke="none" /><path d="M 17.08,27.42 L 17.02,27.42 L 15.27,28.31 L 15.27,29.42 L 17.08,28.53 Z" fill="#5a5138" stroke="none" /><path d="M 21.60,25.16 L 21.53,25.16 L 20.71,25.57 L 20.71,26.69 L 20.77,26.69 L 21.60,26.27 Z" fill="#5a5138" stroke="none" /><path d="M 24.33,23.79 L 24.27,23.79 L 22.52,24.68 L 22.52,25.80 L 24.33,24.91 Z" fill="#5a5138" stroke="none" /><path d="M 16.19,22.33 L 16.13,22.33 L 15.27,22.78 L 15.27,24.97 L 15.33,24.97 L 16.19,24.52 Z" fill="#5a5138" stroke="none" /><path d="M 28.82,21.53 L 27.04,22.43 L 27.04,23.51 L 26.97,23.57 L 26.15,23.98 L 26.15,25.07 L 26.21,25.07 L 27.04,24.65 L 27.04,23.57 L 27.10,23.51 L 28.82,22.65 Z" fill="#5a5138" stroke="none" /><path d="M 16.19,20.10 L 16.13,20.10 L 15.27,20.55 L 15.27,21.66 L 16.19,21.22 Z" fill="#5a5138" stroke="none" /><path d="M 23.41,19.82 L 23.35,19.82 L 22.52,20.23 L 22.52,21.34 L 22.58,21.34 L 23.41,20.93 Z" fill="#5a5138" stroke="none" /><path d="M 21.60,17.40 L 21.53,17.40 L 20.71,17.81 L 20.71,18.93 L 20.77,18.93 L 21.60,18.51 Z" fill="#5a5138" stroke="none" /><path d="M 28.82,17.11 L 28.76,17.11 L 27.93,17.53 L 27.93,19.75 L 27.99,19.75 L 28.82,19.34 Z" fill="#5a5138" stroke="none" /><path d="M 23.41,16.48 L 22.52,16.92 L 22.52,18.04 L 23.41,17.59 Z" fill="#5a5138" stroke="none" /><path d="M 28.82,13.77 L 27.93,14.22 L 27.93,15.33 L 28.82,14.89 Z" fill="#5a5138" stroke="none" /><path d="M 17.97,12.60 L 15.27,13.93 L 15.27,15.01 L 17.97,13.68 Z" fill="#5a5138" stroke="none" /><path d="M 21.60,10.78 L 18.89,12.12 L 18.89,13.20 L 21.60,11.86 Z" fill="#5a5138" stroke="none" /><path d="M 25.22,8.97 L 22.52,10.31 L 22.52,11.39 L 25.22,10.05 Z" fill="#5a5138" stroke="none" /><path d="M 28.82,7.19 L 28.76,7.19 L 26.15,8.49 L 26.15,9.57 L 28.79,8.27 L 28.82,8.24 Z" fill="#5a5138" stroke="none" /><path d="M 17.08,21.88 L 17.02,21.88 L 16.19,22.30 L 16.19,23.41 L 17.08,22.97 Z" fill="#3b3b3b" stroke="none" /><path d="M 24.33,21.57 L 23.41,22.01 L 23.41,23.13 L 24.33,22.68 Z" fill="#3b3b3b" stroke="none" /><path d="M 19.79,20.52 L 18.89,20.96 L 18.89,22.04 L 18.96,22.04 L 19.79,21.63 Z" fill="#3b3b3b" stroke="none" /><path d="M 19.79,18.29 L 18.89,18.74 L 18.89,19.85 L 19.79,19.40 Z" fill="#3b3b3b" stroke="none" /><path d="M 10.85,28.09 L 10.85,30.25 L 11.67,30.66 L 11.74,30.66 L 11.74,28.50 L 10.91,28.09 Z" fill="#65593e" stroke="none" /><path d="M 12.63,26.75 L 12.63,27.86 L 14.35,28.72 L 14.41,28.72 L 14.41,27.61 L 12.69,26.75 Z" fill="#65593e" stroke="none" /><path d="M 3.59,24.46 L 3.59,26.62 L 4.42,27.04 L 4.49,27.04 L 4.49,24.87 L 3.66,24.46 Z" fill="#65593e" stroke="none" /><path d="M 6.30,23.57 L 6.30,24.68 L 8.05,25.57 L 8.11,25.57 L 8.11,24.46 Z" fill="#65593e" stroke="none" /><path d="M 0.00,22.65 L 0.00,24.81 L 0.89,25.26 L 0.89,23.09 Z" fill="#65593e" stroke="none" /><path d="M 3.59,22.23 L 3.59,23.35 L 5.41,24.24 L 5.41,23.13 L 3.66,22.23 Z" fill="#65593e" stroke="none" /><path d="M 0.00,20.42 L 0.00,21.53 L 0.89,21.98 L 0.89,20.87 Z" fill="#65593e" stroke="none" /><path d="M 12.63,16.76 L 12.63,17.88 L 13.49,18.32 L 13.55,18.32 L 13.55,17.21 Z" fill="#65593e" stroke="none" /><path d="M 9.03,14.98 L 9.03,16.10 L 9.86,16.51 L 9.92,16.51 L 9.92,15.40 L 9.10,14.98 Z" fill="#65593e" stroke="none" /><path d="M 7.22,11.86 L 7.22,12.95 L 8.11,13.39 L 8.11,12.28 L 7.28,11.86 Z" fill="#65593e" stroke="none" /><path d="M 3.59,10.05 L 3.59,12.25 L 4.42,12.66 L 4.49,12.72 L 4.49,13.81 L 5.34,14.25 L 5.41,14.25 L 5.41,13.14 L 4.55,12.72 L 4.49,12.66 L 4.49,10.47 L 3.66,10.05 Z" fill="#65593e" stroke="none" /><path d="M 0.00,8.24 L 0.00,10.47 L 0.83,10.88 L 0.89,10.88 L 0.89,8.68 Z" fill="#65593e" stroke="none" /><path d="M 7.22,27.36 L 7.22,28.44 L 8.05,28.85 L 8.11,28.85 L 8.11,27.80 Z" fill="#6a5f42" stroke="none" /><path d="M 8.11,24.49 L 8.11,25.61 L 9.92,26.50 L 9.92,25.38 L 8.17,24.49 Z" fill="#6a5f42" stroke="none" /><path d="M 5.41,23.13 L 5.41,24.24 L 6.30,24.68 L 6.30,23.57 Z" fill="#6a5f42" stroke="none" /><path d="M 0.00,21.53 L 0.00,22.65 L 0.89,23.09 L 0.89,21.98 Z" fill="#6a5f42" stroke="none" /><path d="M 1.78,21.31 L 1.78,22.43 L 3.53,23.32 L 3.59,23.32 L 3.59,22.20 Z" fill="#6a5f42" stroke="none" /><path d="M 13.55,17.24 L 13.55,18.35 L 14.41,18.77 L 14.41,17.65 L 13.61,17.24 Z" fill="#6a5f42" stroke="none" /><path d="M 0.00,17.11 L 0.00,20.42 L 0.89,20.87 L 0.89,17.53 L 0.06,17.11 Z" fill="#6a5f42" stroke="none" /><path d="M 10.85,13.68 L 10.85,14.76 L 11.74,15.20 L 11.74,14.09 L 10.91,13.68 Z" fill="#6a5f42" stroke="none" /><path d="M 5.41,13.17 L 5.41,14.28 L 6.23,14.70 L 6.30,14.70 L 6.30,13.58 L 5.47,13.17 Z" fill="#6a5f42" stroke="none" /><path d="M 7.22,12.95 L 7.22,14.06 L 8.05,14.47 L 8.11,14.54 L 8.11,15.62 L 8.97,16.06 L 9.03,16.06 L 9.03,14.95 L 8.17,14.54 L 8.11,14.47 L 8.11,13.39 Z" fill="#6a5f42" stroke="none" /><path d="M 2.67,11.80 L 2.67,12.91 L 4.49,13.81 L 4.49,12.69 L 2.74,11.80 Z" fill="#6a5f42" stroke="none" /><path d="M 0.00,10.47 L 0.00,13.77 L 0.89,14.22 L 0.89,10.88 L 0.06,10.47 Z" fill="#6a5f42" stroke="none" /><path d="M 12.63,28.98 L 12.63,31.14 L 13.55,31.59 L 13.55,29.42 L 12.69,28.98 Z" fill="#766c4b" stroke="none" /><path d="M 9.92,27.61 L 9.92,28.72 L 10.85,29.17 L 10.85,28.06 Z" fill="#766c4b" stroke="none" /><path d="M 5.44,25.35 L 5.41,25.35 L 5.41,26.40 L 5.38,26.43 L 4.49,25.99 L 4.49,27.07 L 5.38,27.51 L 5.41,27.51 L 5.41,26.50 L 5.44,26.47 L 6.23,26.88 L 6.30,26.88 L 6.30,25.80 Z" fill="#766c4b" stroke="none" /><path d="M 1.78,23.54 L 1.78,24.65 L 2.61,25.07 L 2.67,25.07 L 2.67,23.98 Z" fill="#766c4b" stroke="none" /><path d="M 9.03,20.52 L 9.03,21.63 L 9.86,22.04 L 9.92,22.04 L 9.92,20.96 Z" fill="#766c4b" stroke="none" /><path d="M 12.63,18.99 L 12.63,21.22 L 13.55,21.66 L 13.55,19.44 L 12.69,18.99 Z" fill="#766c4b" stroke="none" /><path d="M 9.03,18.29 L 9.03,19.40 L 9.92,19.85 L 9.92,18.74 Z" fill="#766c4b" stroke="none" /><path d="M 9.92,14.31 L 9.92,15.43 L 10.85,15.87 L 10.85,14.76 L 9.99,14.31 Z" fill="#766c4b" stroke="none" /><path d="M 6.30,11.39 L 6.30,13.61 L 7.22,14.06 L 7.22,11.83 Z" fill="#766c4b" stroke="none" /><path d="M 2.67,9.57 L 2.67,10.69 L 3.59,11.13 L 3.59,10.02 Z" fill="#766c4b" stroke="none" /><path d="M 13.55,30.54 L 13.55,31.59 L 14.35,32.00 L 14.41,32.00 L 14.41,30.95 L 13.61,30.54 Z" fill="#70664c" stroke="none" /><path d="M 10.85,26.97 L 10.85,28.09 L 11.74,28.53 L 11.74,29.61 L 11.77,29.65 L 12.63,30.06 L 12.63,29.01 L 12.66,28.98 L 13.55,29.42 L 13.55,28.31 L 13.52,28.28 L 12.69,27.86 L 12.63,27.86 L 12.63,28.91 L 12.60,28.95 L 11.74,28.50 L 11.74,27.39 L 10.91,26.97 Z" fill="#70664c" stroke="none" /><path d="M 7.28,25.16 L 7.22,25.16 L 7.22,27.29 L 7.19,27.32 L 5.47,26.47 L 5.41,26.47 L 5.41,27.51 L 7.16,28.41 L 7.22,28.41 L 7.22,27.42 L 7.25,27.39 L 8.11,27.80 L 8.11,25.57 Z" fill="#70664c" stroke="none" /><path d="M 3.59,23.35 L 3.59,24.46 L 4.42,24.87 L 4.49,24.87 L 4.49,23.76 L 3.66,23.35 Z" fill="#70664c" stroke="none" /><path d="M 0.89,20.87 L 0.89,21.98 L 1.78,22.43 L 1.78,21.31 Z" fill="#70664c" stroke="none" /><path d="M 0.00,16.00 L 0.00,17.11 L 0.83,17.53 L 0.89,17.53 L 0.89,16.45 Z" fill="#70664c" stroke="none" /><path d="M 0.00,13.77 L 0.00,14.89 L 0.89,15.33 L 0.89,14.22 Z" fill="#70664c" stroke="none" /><path d="M 6.30,13.61 L 6.30,14.73 L 8.11,15.62 L 8.11,14.50 L 6.36,13.61 Z" fill="#70664c" stroke="none" /><path d="M 10.85,12.60 L 10.85,13.68 L 11.67,14.09 L 11.74,14.09 L 11.74,13.04 Z" fill="#70664c" stroke="none" /><path d="M 0.89,10.91 L 0.89,12.02 L 2.61,12.88 L 2.67,12.88 L 2.67,11.77 L 0.95,10.91 Z" fill="#70664c" stroke="none" /><path d="M 7.22,10.78 L 7.22,11.86 L 8.05,12.28 L 8.11,12.28 L 8.11,11.23 Z" fill="#70664c" stroke="none" /><path d="M 3.59,8.97 L 3.59,10.05 L 4.42,10.47 L 4.49,10.47 L 4.49,9.42 Z" fill="#70664c" stroke="none" /><path d="M 0.00,7.19 L 0.00,8.24 L 0.89,8.68 L 0.89,7.60 L 0.06,7.19 Z" fill="#70664c" stroke="none" /><path d="M 24.33,11.58 L 23.41,12.02 L 23.41,14.25 L 23.48,14.25 L 24.33,13.81 Z" fill="#4e4e4e" stroke="none" /><path d="M 26.15,10.69 L 26.08,10.69 L 25.22,11.13 L 25.22,12.25 L 26.15,11.80 Z" fill="#4e4e4e" stroke="none" /><path d="M 11.74,29.61 L 11.74,30.70 L 12.56,31.11 L 12.63,31.11 L 12.63,30.06 Z" fill="#80754e" stroke="none" /><path d="M 9.92,28.72 L 9.92,29.77 L 10.78,30.22 L 10.85,30.22 L 10.85,29.17 L 9.99,28.72 Z" fill="#80754e" stroke="none" /><path d="M 1.78,24.65 L 1.78,25.70 L 2.67,26.15 L 2.67,25.07 L 1.84,24.65 Z" fill="#80754e" stroke="none" /><path d="M 11.74,21.88 L 11.74,24.08 L 12.56,24.49 L 12.63,24.56 L 12.63,26.75 L 13.55,27.20 L 13.55,24.97 L 12.69,24.56 L 12.63,24.49 L 12.63,22.30 L 11.80,21.88 Z" fill="#80754e" stroke="none" /><path d="M 9.03,21.63 L 9.03,23.79 L 9.00,23.83 L 8.11,23.38 L 8.11,24.49 L 9.92,25.38 L 9.92,22.04 L 9.10,21.63 Z" fill="#80754e" stroke="none" /><path d="M 11.74,18.54 L 11.74,19.66 L 12.56,20.07 L 12.63,20.07 L 12.63,19.02 L 12.66,18.99 L 14.35,19.85 L 14.41,19.85 L 14.41,18.77 L 12.66,17.88 L 12.63,17.88 L 12.63,18.93 L 12.60,18.96 L 11.80,18.54 Z" fill="#80754e" stroke="none" /><path d="M 8.11,15.62 L 8.11,16.73 L 8.97,17.15 L 9.03,17.21 L 9.03,18.29 L 9.92,18.74 L 9.92,16.51 Z" fill="#80754e" stroke="none" /><path d="M 13.58,15.01 L 13.55,15.01 L 13.55,16.06 L 13.52,16.10 L 12.63,15.65 L 12.63,16.76 L 13.49,17.21 L 13.55,17.21 L 13.55,16.16 L 13.58,16.13 L 14.41,16.54 L 14.41,15.43 Z" fill="#80754e" stroke="none" /><path d="M 8.11,13.39 L 8.11,14.50 L 8.97,14.95 L 9.03,14.95 L 9.03,13.84 Z" fill="#80754e" stroke="none" /><path d="M 9.92,13.20 L 9.92,14.31 L 10.85,14.76 L 10.85,13.65 Z" fill="#80754e" stroke="none" /><path d="M 0.89,12.02 L 0.89,13.11 L 2.67,14.00 L 2.67,12.88 L 0.95,12.02 Z" fill="#80754e" stroke="none" /><path d="M 1.78,9.13 L 1.78,10.24 L 2.61,10.66 L 2.67,10.66 L 2.67,9.57 Z" fill="#80754e" stroke="none" /><path d="M 24.33,22.68 L 24.27,22.68 L 23.41,23.13 L 23.41,24.24 L 24.33,23.79 Z" fill="#555555" stroke="none" /><path d="M 26.15,20.68 L 26.08,20.68 L 25.22,21.12 L 25.22,23.32 L 25.29,23.32 L 26.15,22.87 Z" fill="#555555" stroke="none" /><path d="M 26.15,12.91 L 26.08,12.91 L 25.26,13.33 L 25.22,13.30 L 25.22,12.25 L 24.37,12.66 L 24.33,12.69 L 24.33,13.77 L 24.27,13.84 L 23.41,14.25 L 23.41,15.36 L 24.33,14.92 L 24.33,13.84 L 24.40,13.77 L 25.16,13.39 L 25.22,13.42 L 25.22,14.44 L 25.29,14.44 L 26.12,14.03 L 26.15,14.00 Z" fill="#555555" stroke="none" /><path d="M 13.55,29.42 L 13.55,30.54 L 14.41,30.95 L 14.41,29.84 Z" fill="#8a7c55" stroke="none" /><path d="M 8.11,26.72 L 8.11,28.88 L 9.92,29.77 L 9.92,27.61 L 8.17,26.72 Z" fill="#8a7c55" stroke="none" /><path d="M 13.55,26.12 L 13.55,27.20 L 14.35,27.61 L 14.41,27.61 L 14.41,26.53 L 13.61,26.12 Z" fill="#8a7c55" stroke="none" /><path d="M 6.30,25.80 L 6.30,26.91 L 7.22,27.36 L 7.22,26.24 Z" fill="#8a7c55" stroke="none" /><path d="M 4.49,24.91 L 4.49,25.99 L 5.34,26.43 L 5.41,26.43 L 5.41,25.35 L 4.55,24.91 Z" fill="#8a7c55" stroke="none" /><path d="M 2.67,23.98 L 2.67,26.15 L 3.53,26.59 L 3.59,26.59 L 3.59,24.43 Z" fill="#8a7c55" stroke="none" /><path d="M 0.89,23.09 L 0.89,25.26 L 1.78,25.70 L 1.78,23.54 Z" fill="#8a7c55" stroke="none" /><path d="M 12.63,22.33 L 12.63,24.52 L 13.49,24.97 L 13.55,24.97 L 13.55,23.92 L 13.58,23.89 L 14.41,24.30 L 14.41,23.19 L 12.69,22.33 Z" fill="#8a7c55" stroke="none" /><path d="M 9.92,20.96 L 9.92,24.30 L 10.85,24.75 L 10.85,21.41 Z" fill="#8a7c55" stroke="none" /><path d="M 11.74,19.66 L 11.74,20.77 L 12.56,21.18 L 12.63,21.18 L 12.63,20.07 L 11.80,19.66 Z" fill="#8a7c55" stroke="none" /><path d="M 13.55,19.44 L 13.55,20.55 L 14.35,20.96 L 14.41,20.96 L 14.41,19.85 Z" fill="#8a7c55" stroke="none" /><path d="M 0.89,18.67 L 0.89,20.87 L 2.67,21.76 L 2.67,20.64 L 1.78,20.20 L 1.78,19.09 L 0.95,18.67 Z" fill="#8a7c55" stroke="none" /><path d="M 9.92,17.62 L 9.92,18.74 L 10.78,19.18 L 10.85,19.18 L 10.85,18.07 Z" fill="#8a7c55" stroke="none" /><path d="M 11.74,14.12 L 11.74,16.32 L 12.63,16.76 L 12.63,15.71 L 12.69,15.68 L 13.55,16.13 L 13.55,17.24 L 14.41,17.65 L 14.41,16.54 L 13.55,16.10 L 13.55,15.01 L 11.80,14.12 Z" fill="#8a7c55" stroke="none" /><path d="M 0.89,13.11 L 0.89,14.22 L 1.78,14.66 L 1.78,13.55 Z" fill="#8a7c55" stroke="none" /><path d="M 8.11,12.31 L 8.11,13.39 L 9.03,13.87 L 9.03,14.98 L 9.86,15.40 L 9.92,15.40 L 9.92,13.20 L 8.17,12.31 Z" fill="#8a7c55" stroke="none" /><path d="M 4.49,10.50 L 4.49,11.58 L 5.41,12.06 L 5.41,13.17 L 6.23,13.58 L 6.30,13.58 L 6.30,11.39 L 4.55,10.50 Z" fill="#8a7c55" stroke="none" /><path d="M 0.89,8.68 L 0.89,10.91 L 3.59,12.25 L 3.59,11.13 L 1.81,10.24 L 1.78,10.21 L 1.78,9.13 Z" fill="#8a7c55" stroke="none" /><path d="M 13.55,28.31 L 13.55,29.42 L 14.35,29.84 L 14.41,29.84 L 14.41,28.72 Z" fill="#92835b" stroke="none" /><path d="M 8.11,25.61 L 8.11,26.72 L 9.92,27.61 L 9.92,26.50 L 8.17,25.61 Z" fill="#92835b" stroke="none" /><path d="M 11.74,24.08 L 11.74,25.19 L 12.63,25.64 L 12.63,24.52 Z" fill="#92835b" stroke="none" /><path d="M 13.55,23.89 L 13.55,26.12 L 14.41,26.53 L 14.41,24.30 L 13.61,23.89 Z" fill="#92835b" stroke="none" /><path d="M 4.49,23.79 L 4.49,24.91 L 7.16,26.24 L 7.22,26.24 L 7.22,25.13 L 4.55,23.79 Z" fill="#92835b" stroke="none" /><path d="M 0.89,21.98 L 0.89,23.09 L 0.92,23.13 L 3.53,24.43 L 3.59,24.43 L 3.59,23.32 Z" fill="#92835b" stroke="none" /><path d="M 13.55,20.55 L 13.55,21.66 L 14.35,22.08 L 14.41,22.08 L 14.41,20.96 Z" fill="#92835b" stroke="none" /><path d="M 9.92,18.74 L 9.92,19.85 L 10.78,20.29 L 10.85,20.29 L 10.85,19.18 Z" fill="#92835b" stroke="none" /><path d="M 0.89,16.45 L 0.89,18.67 L 1.72,19.09 L 1.78,19.09 L 1.78,16.89 Z" fill="#92835b" stroke="none" /><path d="M 0.89,14.22 L 0.89,15.33 L 1.78,15.78 L 1.78,14.66 Z" fill="#92835b" stroke="none" /><path d="M 11.74,13.04 L 11.74,14.12 L 14.35,15.43 L 14.41,15.43 L 14.41,14.38 L 14.38,14.35 Z" fill="#92835b" stroke="none" /><path d="M 4.49,11.58 L 4.49,12.69 L 5.34,13.14 L 5.41,13.14 L 5.41,12.02 Z" fill="#92835b" stroke="none" /><path d="M 8.11,11.23 L 8.11,12.31 L 10.78,13.65 L 10.85,13.65 L 10.85,12.60 L 10.82,12.56 Z" fill="#92835b" stroke="none" /><path d="M 4.49,9.42 L 4.49,10.50 L 7.16,11.83 L 7.22,11.83 L 7.22,10.78 L 7.19,10.75 Z" fill="#92835b" stroke="none" /><path d="M 0.89,7.63 L 0.89,8.68 L 0.92,8.72 L 3.53,10.02 L 3.59,10.02 L 3.59,8.97 L 3.56,8.94 L 0.95,7.63 Z" fill="#92835b" stroke="none" /><path d="M 11.74,17.43 L 11.74,18.54 L 12.56,18.96 L 12.63,18.96 L 12.63,17.88 Z" fill="#606060" stroke="none" /><path d="M 10.85,12.56 L 10.88,12.63 L 11.71,13.04 L 11.77,13.04 L 12.60,12.63 L 12.60,12.60 L 11.71,12.15 Z" fill="#9c8960" stroke="none" /><path d="M 3.63,8.94 L 3.63,9.00 L 4.45,9.42 L 4.55,9.42 L 5.34,9.00 L 5.34,8.97 L 4.52,8.56 L 4.39,8.56 Z" fill="#9c8960" stroke="none" /><path d="M 2.64,6.71 L 1.81,6.30 L 1.75,6.30 L 0.03,7.16 L 0.03,7.19 L 0.83,7.60 L 0.92,7.60 L 2.64,6.74 Z" fill="#9c8960" stroke="none" /><path d="M 2.70,5.82 L 2.74,5.88 L 3.50,6.27 L 3.59,6.27 L 4.42,5.85 L 4.42,5.79 L 3.66,5.41 L 3.53,5.41 Z" fill="#9c8960" stroke="none" /><path d="M 20.77,4.01 L 20.77,4.04 L 21.60,4.45 L 21.73,4.45 L 22.49,4.07 L 22.49,4.01 L 21.66,3.59 L 21.57,3.59 Z" fill="#9c8960" stroke="none" /><path d="M 17.15,2.19 L 17.15,2.23 L 17.97,2.64 L 18.10,2.64 L 18.86,2.26 L 18.86,2.19 L 18.04,1.78 L 17.94,1.78 Z" fill="#9c8960" stroke="none" /><path d="M 15.24,0.38 L 14.47,0.00 L 14.35,0.00 L 10.85,1.75 L 10.85,1.78 L 11.64,2.19 L 11.74,2.19 L 15.24,0.45 Z" fill="#9c8960" stroke="none" /><path d="M 25.22,22.23 L 25.16,22.23 L 24.33,22.65 L 24.33,24.87 L 24.40,24.87 L 25.22,24.46 Z" fill="#656565" stroke="none" /><path d="M 26.15,11.80 L 26.08,11.80 L 25.22,12.25 L 25.22,13.33 L 25.16,13.39 L 24.33,13.81 L 24.33,16.00 L 24.40,16.00 L 25.22,15.59 L 25.22,13.39 L 25.29,13.33 L 26.15,12.91 Z" fill="#656565" stroke="none" /><path d="M 7.25,10.75 L 7.25,10.82 L 8.08,11.23 L 8.17,11.23 L 8.97,10.82 L 8.97,10.78 L 8.14,10.37 L 8.02,10.37 Z" fill="#a39266" stroke="none" /><path d="M 1.81,6.27 L 1.81,6.33 L 2.58,6.71 L 2.70,6.71 L 3.53,6.30 L 3.50,6.23 L 2.74,5.85 L 2.64,5.85 Z" fill="#a39266" stroke="none" /><path d="M 7.16,4.45 L 6.33,4.04 L 6.27,4.04 L 3.59,5.38 L 3.59,5.41 L 4.42,5.82 L 4.49,5.82 L 7.16,4.49 Z" fill="#a39266" stroke="none" /><path d="M 11.67,2.19 L 10.88,1.78 L 10.78,1.78 L 9.07,2.64 L 9.03,2.70 L 9.89,3.12 L 11.67,2.23 Z" fill="#a39266" stroke="none" /><path d="M 15.30,13.04 L 14.47,12.63 L 14.35,12.63 L 12.69,13.46 L 12.66,13.52 L 13.49,13.93 L 13.61,13.93 L 15.27,13.11 Z" fill="#b6a674" stroke="none" /><path d="M 16.25,11.67 L 16.25,11.74 L 17.08,12.15 L 17.18,12.15 L 18.00,11.74 L 18.00,11.67 L 17.18,11.26 L 17.08,11.26 Z" fill="#b6a674" stroke="none" /><path d="M 10.82,11.67 L 10.82,11.74 L 12.53,12.60 L 12.66,12.60 L 13.49,12.18 L 13.46,12.12 L 11.74,11.26 L 11.64,11.26 Z" fill="#b6a674" stroke="none" /><path d="M 8.08,10.34 L 8.08,10.37 L 9.86,11.26 L 9.92,11.26 L 10.78,10.82 L 10.78,10.78 L 9.00,9.89 Z" fill="#b6a674" stroke="none" /><path d="M 21.63,9.89 L 20.77,9.45 L 20.71,9.45 L 18.04,10.78 L 18.04,10.82 L 18.89,11.26 L 18.96,11.26 L 21.63,9.92 Z" fill="#b6a674" stroke="none" /><path d="M 18.89,9.42 L 18.07,9.00 L 17.97,9.00 L 16.25,9.86 L 16.22,9.92 L 17.05,10.34 L 17.18,10.34 L 18.89,9.48 Z" fill="#b6a674" stroke="none" /><path d="M 9.00,8.97 L 9.03,9.03 L 12.53,10.78 L 12.66,10.78 L 13.49,10.37 L 13.46,10.31 L 9.96,8.56 L 9.83,8.56 Z" fill="#b6a674" stroke="none" /><path d="M 25.26,8.08 L 24.40,7.63 L 24.33,7.63 L 22.55,8.52 L 22.55,8.56 L 23.48,9.00 L 25.26,8.11 Z" fill="#b6a674" stroke="none" /><path d="M 21.63,8.08 L 20.77,7.63 L 20.71,7.63 L 18.93,8.52 L 18.93,8.56 L 19.85,9.00 L 21.63,8.11 Z" fill="#b6a674" stroke="none" /><path d="M 22.55,6.71 L 22.55,6.74 L 23.44,7.19 L 24.33,6.74 L 24.40,6.74 L 26.15,7.63 L 26.21,7.63 L 27.07,7.19 L 27.07,7.16 L 25.29,6.27 L 24.40,6.71 L 24.33,6.71 L 23.48,6.27 Z" fill="#b6a674" stroke="none" /><path d="M 8.08,6.71 L 7.19,6.27 L 6.27,6.71 L 6.27,6.74 L 7.06,7.13 L 7.13,7.19 L 6.30,7.60 L 6.30,7.67 L 7.13,8.08 L 7.06,8.14 L 6.30,8.52 L 6.23,8.52 L 4.52,7.67 L 4.49,7.63 L 4.52,7.60 L 5.34,7.19 L 5.34,7.16 L 4.52,6.74 L 4.39,6.74 L 2.67,7.60 L 2.67,7.67 L 5.25,8.94 L 5.31,9.00 L 5.28,9.03 L 4.55,9.38 L 4.52,9.45 L 5.34,9.86 L 5.47,9.86 L 8.08,8.56 L 8.08,8.52 L 7.28,8.14 L 7.22,8.08 L 8.05,7.67 L 8.05,7.60 L 7.22,7.19 L 7.28,7.13 L 8.08,6.74 Z" fill="#b6a674" stroke="none" /><path d="M 15.30,4.90 L 13.49,4.01 L 10.82,5.34 L 10.82,5.41 L 11.64,5.82 L 11.74,5.82 L 13.49,4.93 L 14.38,5.38 L 14.44,5.38 L 15.27,4.96 Z" fill="#b6a674" stroke="none" /><path d="M 18.96,4.01 L 18.96,4.04 L 22.52,5.82 L 22.58,5.82 L 23.44,5.38 L 23.44,5.34 L 19.88,3.56 L 19.82,3.56 Z" fill="#b6a674" stroke="none" /><path d="M 11.67,4.01 L 10.82,3.56 L 10.75,3.56 L 9.89,4.01 L 9.00,3.56 L 8.94,3.56 L 8.08,4.01 L 8.08,4.04 L 8.87,4.42 L 8.91,4.45 L 8.87,4.52 L 8.11,4.90 L 8.02,4.90 L 7.22,4.49 L 7.09,4.49 L 5.38,5.34 L 5.38,5.38 L 6.23,5.82 L 6.30,5.82 L 8.08,4.93 L 9.80,5.79 L 9.83,5.82 L 9.77,5.88 L 8.97,6.27 L 8.97,6.30 L 9.89,6.74 L 10.78,6.30 L 10.78,6.27 L 9.99,5.88 L 9.92,5.82 L 10.75,5.41 L 10.75,5.34 L 9.92,4.93 L 9.99,4.87 L 11.67,4.04 Z" fill="#b6a674" stroke="none" /><path d="M 18.04,2.64 L 15.36,1.30 L 15.27,1.30 L 11.71,3.09 L 11.71,3.12 L 12.56,3.56 L 12.63,3.56 L 15.27,2.23 L 15.36,2.23 L 17.11,3.12 L 18.04,2.67 Z" fill="#b6a674" stroke="none" /><path d="M 13.55,13.93 L 13.55,13.96 L 14.38,14.38 L 14.44,14.38 L 15.27,13.96 L 15.27,13.93 L 14.44,13.52 L 14.38,13.52 Z" fill="#ac9d75" stroke="none" /><path d="M 17.11,12.15 L 16.25,11.71 L 16.19,11.71 L 14.44,12.60 L 14.38,12.60 L 13.49,12.15 L 11.77,13.01 L 11.77,13.07 L 12.60,13.49 L 12.69,13.49 L 14.38,12.63 L 14.44,12.63 L 15.33,13.07 L 17.11,12.18 Z" fill="#ac9d75" stroke="none" /><path d="M 17.15,11.23 L 17.18,11.29 L 18.00,11.71 L 18.07,11.71 L 18.89,11.29 L 18.89,11.23 L 18.07,10.82 L 17.97,10.82 Z" fill="#ac9d75" stroke="none" /><path d="M 9.92,11.23 L 9.92,11.29 L 10.75,11.71 L 10.82,11.71 L 11.67,11.26 L 11.67,11.23 L 10.85,10.82 L 10.75,10.82 Z" fill="#ac9d75" stroke="none" /><path d="M 17.11,10.34 L 16.19,9.89 L 14.44,10.78 L 14.38,10.78 L 13.49,10.34 L 12.60,10.78 L 12.60,10.82 L 14.38,11.71 L 14.44,11.71 L 17.11,10.37 Z" fill="#ac9d75" stroke="none" /><path d="M 8.08,10.37 L 8.08,10.34 L 7.28,9.96 L 7.22,9.89 L 8.05,9.48 L 8.05,9.42 L 7.22,9.00 L 7.13,9.00 L 5.41,9.86 L 5.41,9.89 L 7.19,10.78 L 7.25,10.78 Z" fill="#ac9d75" stroke="none" /><path d="M 23.44,8.97 L 22.62,8.56 L 22.49,8.56 L 20.77,9.42 L 20.77,9.48 L 21.60,9.89 L 21.69,9.89 L 23.41,9.03 Z" fill="#ac9d75" stroke="none" /><path d="M 18.04,8.97 L 18.07,9.03 L 18.89,9.45 L 18.96,9.45 L 19.82,9.00 L 19.82,8.97 L 18.99,8.56 L 18.86,8.56 Z" fill="#ac9d75" stroke="none" /><path d="M 24.40,7.60 L 24.40,7.67 L 25.22,8.08 L 25.32,8.08 L 26.15,7.67 L 26.15,7.60 L 25.32,7.19 L 25.22,7.19 Z" fill="#ac9d75" stroke="none" /><path d="M 22.58,5.79 L 22.58,5.85 L 24.30,6.71 L 24.43,6.71 L 26.12,5.85 L 26.12,5.82 L 25.29,5.41 L 25.16,5.41 L 24.37,5.82 L 23.51,5.38 L 23.41,5.38 Z" fill="#ac9d75" stroke="none" /><path d="M 9.89,5.82 L 9.89,5.85 L 10.72,6.27 L 10.85,6.27 L 11.67,5.85 L 11.64,5.79 L 10.82,5.38 L 10.75,5.38 Z" fill="#ac9d75" stroke="none" /><path d="M 8.05,5.82 L 7.19,5.38 L 7.13,5.38 L 4.45,6.71 L 4.45,6.74 L 5.38,7.19 L 8.05,5.85 Z" fill="#ac9d75" stroke="none" /><path d="M 14.44,3.53 L 14.44,3.59 L 15.27,4.01 L 15.20,4.07 L 14.41,4.45 L 14.41,4.49 L 15.20,4.87 L 15.27,4.93 L 14.44,5.34 L 14.44,5.41 L 18.89,7.63 L 18.96,7.63 L 19.82,7.19 L 19.82,7.16 L 15.36,4.93 L 15.43,4.87 L 16.22,4.49 L 16.22,4.45 L 15.43,4.07 L 15.36,4.01 L 16.19,3.59 L 16.19,3.53 L 15.36,3.12 L 15.27,3.12 Z" fill="#ac9d75" stroke="none" /><path d="M 10.82,3.53 L 10.82,3.59 L 11.64,4.01 L 11.74,4.01 L 12.56,3.59 L 12.56,3.53 L 11.74,3.12 L 11.64,3.12 Z" fill="#ac9d75" stroke="none" /><path d="M 16.25,3.53 L 16.25,3.59 L 17.08,4.01 L 17.18,4.01 L 18.04,3.56 L 18.89,4.01 L 18.99,4.01 L 19.82,3.59 L 19.82,3.53 L 18.10,2.67 L 17.97,2.67 Z" fill="#ac9d75" stroke="none" /><path d="M 9.86,3.09 L 9.00,2.67 L 6.33,4.01 L 6.33,4.07 L 7.09,4.45 L 7.22,4.45 L 9.83,3.15 Z" fill="#ac9d75" stroke="none" /><path d="M 9.92,12.12 L 9.92,12.15 L 10.82,12.60 L 11.67,12.18 L 11.64,12.12 L 10.82,11.71 L 10.75,11.71 Z" fill="#c6b579" stroke="none" /><path d="M 12.63,11.67 L 12.63,11.74 L 14.35,12.60 L 14.47,12.60 L 15.30,12.18 L 15.27,12.12 L 13.55,11.26 L 13.46,11.26 Z" fill="#c6b579" stroke="none" /><path d="M 15.33,11.23 L 15.36,11.29 L 16.19,11.71 L 16.25,11.71 L 17.11,11.26 L 17.11,11.23 L 16.29,10.82 L 16.16,10.82 Z" fill="#c6b579" stroke="none" /><path d="M 10.82,10.78 L 10.85,10.85 L 11.67,11.26 L 12.60,10.82 L 12.60,10.78 L 11.77,10.37 L 11.64,10.37 Z" fill="#c6b579" stroke="none" /><path d="M 17.11,10.34 L 17.11,10.37 L 18.00,10.82 L 18.93,10.37 L 18.93,10.34 L 18.04,9.89 Z" fill="#c6b579" stroke="none" /><path d="M 1.78,8.05 L 1.78,8.08 L 2.67,8.52 L 3.53,8.11 L 3.50,8.05 L 2.67,7.63 L 2.61,7.63 Z" fill="#c6b579" stroke="none" /><path d="M 28.79,7.16 L 27.93,6.74 L 26.21,7.60 L 26.21,7.67 L 26.97,8.05 L 27.10,8.05 L 28.76,7.22 Z" fill="#c6b579" stroke="none" /><path d="M 19.88,3.53 L 19.88,3.59 L 20.71,4.01 L 20.80,4.01 L 21.60,3.59 L 21.60,3.56 L 20.77,3.15 L 20.64,3.15 Z" fill="#c6b579" stroke="none" /><path d="M 14.41,2.64 L 14.41,2.67 L 16.19,3.56 L 16.25,3.56 L 17.11,3.12 L 17.11,3.09 L 15.33,2.19 Z" fill="#c6b579" stroke="none" /><path d="M 15.33,1.27 L 15.36,1.34 L 16.19,1.75 L 16.25,1.75 L 17.08,1.34 L 17.08,1.30 L 16.19,0.86 Z" fill="#c6b579" stroke="none" /><path d="M 9.92,26.50 L 9.92,27.61 L 10.78,28.06 L 10.85,28.06 L 10.85,26.94 Z" fill="#7f7f7f" stroke="none" /><path d="M 11.74,26.31 L 11.74,28.53 L 12.56,28.95 L 12.63,28.95 L 12.63,26.72 L 11.80,26.31 Z" fill="#7f7f7f" stroke="none" /><path d="M 18.89,12.12 L 18.07,11.71 L 18.00,11.71 L 14.44,13.49 L 14.44,13.55 L 15.20,13.93 L 15.33,13.93 L 18.89,12.15 Z" fill="#d4bf83" stroke="none" /><path d="M 14.44,11.67 L 14.44,11.74 L 15.27,12.15 L 15.36,12.15 L 16.19,11.74 L 16.19,11.67 L 15.36,11.26 L 15.27,11.26 Z" fill="#d4bf83" stroke="none" /><path d="M 11.71,11.23 L 11.74,11.29 L 12.56,11.71 L 12.63,11.71 L 13.49,11.26 L 13.49,11.23 L 12.66,10.82 L 12.53,10.82 Z" fill="#d4bf83" stroke="none" /><path d="M 8.14,11.23 L 8.14,11.26 L 9.86,12.12 L 9.99,12.12 L 10.75,11.74 L 10.75,11.67 L 9.03,10.82 L 8.94,10.82 Z" fill="#d4bf83" stroke="none" /><path d="M 19.85,10.78 L 19.88,10.85 L 20.64,11.23 L 20.74,11.23 L 21.57,10.82 L 21.57,10.75 L 20.80,10.37 L 20.68,10.37 Z" fill="#d4bf83" stroke="none" /><path d="M 16.22,10.78 L 16.22,10.82 L 17.11,11.26 L 18.00,10.82 L 18.00,10.78 L 17.18,10.37 L 17.05,10.37 Z" fill="#d4bf83" stroke="none" /><path d="M 18.04,9.89 L 18.04,9.92 L 18.86,10.34 L 18.99,10.34 L 19.82,9.92 L 19.79,9.86 L 18.96,9.45 L 18.89,9.45 Z" fill="#d4bf83" stroke="none" /><path d="M 9.00,9.89 L 9.00,9.92 L 10.78,10.82 L 11.71,10.37 L 11.71,10.34 L 9.92,9.45 L 9.86,9.45 Z" fill="#d4bf83" stroke="none" /><path d="M 19.85,8.97 L 19.88,9.03 L 20.71,9.45 L 20.77,9.45 L 21.63,9.00 L 21.63,8.97 L 20.80,8.56 L 20.68,8.56 Z" fill="#d4bf83" stroke="none" /><path d="M 2.70,8.49 L 2.74,8.56 L 3.56,8.97 L 3.63,8.97 L 4.45,8.56 L 4.45,8.52 L 3.56,8.08 Z" fill="#d4bf83" stroke="none" /><path d="M 27.04,8.05 L 26.21,7.63 L 26.15,7.63 L 23.48,8.97 L 23.48,9.00 L 24.27,9.42 L 24.37,9.42 L 27.04,8.08 Z" fill="#d4bf83" stroke="none" /><path d="M 6.20,6.74 L 5.38,7.16 L 5.41,7.22 L 6.23,7.63 L 5.41,8.05 L 5.38,8.11 L 6.20,8.52 L 6.33,8.52 L 7.16,8.11 L 7.13,8.05 L 6.30,7.63 L 7.13,7.22 L 7.16,7.16 L 6.33,6.74 Z" fill="#d4bf83" stroke="none" /><path d="M 25.29,6.27 L 25.29,6.30 L 27.07,7.19 L 27.93,6.78 L 27.90,6.71 L 26.18,5.85 L 26.08,5.85 Z" fill="#d4bf83" stroke="none" /><path d="M 6.23,5.79 L 5.41,5.38 L 5.31,5.38 L 0.92,7.57 L 0.89,7.63 L 1.72,8.05 L 1.84,8.05 L 6.23,5.85 Z" fill="#d4bf83" stroke="none" /><path d="M 9.92,7.60 L 9.92,7.67 L 11.64,8.52 L 11.61,8.59 L 10.82,8.97 L 10.85,9.03 L 14.35,10.78 L 14.47,10.78 L 15.30,10.37 L 15.27,10.31 L 14.47,9.92 L 14.44,9.89 L 14.47,9.86 L 16.19,9.00 L 17.08,9.45 L 17.15,9.45 L 18.00,9.00 L 18.00,8.97 L 17.21,8.59 L 17.18,8.52 L 18.89,7.67 L 18.89,7.60 L 13.55,4.93 L 13.46,4.93 L 12.63,5.34 L 12.63,5.41 L 13.42,5.79 L 13.46,5.82 L 13.39,5.88 L 12.63,6.27 L 12.56,6.27 L 11.67,5.82 L 10.78,6.27 L 10.78,6.30 L 11.58,6.68 L 11.64,6.74 Z" fill="#d4bf83" stroke="none" /><path d="M 21.66,4.45 L 21.66,4.49 L 24.33,5.82 L 24.40,5.82 L 25.22,5.41 L 25.22,5.38 L 22.55,4.04 L 22.49,4.04 Z" fill="#d4bf83" stroke="none" /><path d="M 10.78,4.45 L 10.78,4.49 L 11.67,4.93 L 12.60,4.49 L 12.60,4.45 L 11.71,4.01 Z" fill="#d4bf83" stroke="none" /><path d="M 18.96,3.09 L 18.99,3.15 L 19.82,3.56 L 19.88,3.56 L 20.71,3.15 L 20.71,3.12 L 19.82,2.67 Z" fill="#d4bf83" stroke="none" /><path d="M 16.25,1.72 L 16.25,1.78 L 17.08,2.19 L 17.18,2.19 L 17.97,1.78 L 17.97,1.75 L 17.15,1.34 L 17.02,1.34 Z" fill="#d4bf83" stroke="none" /><path d="M 16.16,0.86 L 15.30,0.41 L 15.24,0.41 L 9.00,3.53 L 9.00,3.59 L 9.83,4.01 L 9.92,4.01 L 16.16,0.89 Z" fill="#d4bf83" stroke="none" /><path d="M 6.30,20.26 L 6.30,21.38 L 7.22,21.82 L 7.22,20.71 L 6.36,20.26 Z" fill="#868a8b" stroke="none" /><path d="M 8.11,20.07 L 8.11,21.15 L 8.97,21.60 L 9.03,21.60 L 9.03,20.52 L 8.17,20.07 Z" fill="#868a8b" stroke="none" /><path d="M 9.92,24.30 L 9.92,25.38 L 10.85,25.86 L 10.85,26.97 L 11.67,27.39 L 11.74,27.39 L 11.74,26.34 L 11.77,26.31 L 12.56,26.72 L 12.63,26.72 L 12.63,25.64 L 12.60,25.61 L 11.74,25.19 L 11.74,26.24 L 11.71,26.27 L 10.85,25.83 L 10.85,24.75 L 9.99,24.30 Z" fill="#8b8b8b" stroke="none" /><path d="M 11.74,16.32 L 11.74,17.43 L 12.63,17.88 L 12.63,16.76 Z" fill="#8b8b8b" stroke="none" /><path d="M 9.92,15.43 L 9.92,17.62 L 10.78,18.07 L 10.85,18.07 L 10.85,15.87 L 9.99,15.43 Z" fill="#8b8b8b" stroke="none" /><path d="M 20.68,11.23 L 19.88,10.82 L 19.79,10.82 L 18.07,11.67 L 18.07,11.74 L 18.83,12.12 L 18.96,12.12 L 20.68,11.26 Z" fill="#e1cb8c" stroke="none" /><path d="M 24.30,9.42 L 23.51,9.00 L 23.41,9.00 L 20.74,10.34 L 20.74,10.37 L 21.57,10.78 L 21.63,10.78 L 24.30,9.45 Z" fill="#e1cb8c" stroke="none" /><path d="M 18.96,9.42 L 18.96,9.48 L 19.79,9.89 L 19.88,9.89 L 20.71,9.48 L 20.71,9.42 L 19.88,9.00 L 19.79,9.00 Z" fill="#e1cb8c" stroke="none" /><path d="M 17.08,9.42 L 16.25,9.00 L 16.16,9.00 L 14.44,9.86 L 14.44,9.92 L 15.27,10.34 L 15.36,10.34 L 17.08,9.48 Z" fill="#e1cb8c" stroke="none" /><path d="M 23.44,8.08 L 22.58,7.63 L 22.52,7.63 L 20.74,8.52 L 20.74,8.56 L 21.66,9.00 L 23.44,8.11 Z" fill="#e1cb8c" stroke="none" /><path d="M 20.71,7.60 L 19.88,7.19 L 19.79,7.19 L 17.11,8.52 L 17.11,8.56 L 18.04,9.00 L 20.71,7.67 Z" fill="#e1cb8c" stroke="none" /><path d="M 4.49,7.60 L 4.49,7.67 L 5.31,8.08 L 5.41,8.08 L 6.23,7.67 L 6.23,7.60 L 5.41,7.19 L 5.31,7.19 Z" fill="#e1cb8c" stroke="none" /><path d="M 23.48,7.16 L 23.51,7.22 L 24.33,7.63 L 24.40,7.63 L 25.26,7.19 L 25.26,7.16 L 24.43,6.74 L 24.30,6.74 Z" fill="#e1cb8c" stroke="none" /><path d="M 10.72,6.30 L 9.00,7.16 L 9.03,7.22 L 9.86,7.63 L 9.03,8.05 L 9.00,8.11 L 10.82,9.00 L 11.71,8.56 L 11.71,8.52 L 9.92,7.63 L 11.64,6.78 L 11.67,6.71 L 10.85,6.30 Z" fill="#e1cb8c" stroke="none" /><path d="M 11.71,5.82 L 11.71,5.85 L 12.53,6.27 L 12.66,6.27 L 13.49,5.85 L 13.46,5.79 L 12.63,5.38 L 12.56,5.38 Z" fill="#e1cb8c" stroke="none" /><path d="M 9.89,4.90 L 9.92,4.96 L 10.75,5.38 L 10.82,5.38 L 11.67,4.93 L 11.67,4.90 L 10.85,4.49 L 10.72,4.49 Z" fill="#e1cb8c" stroke="none" /><path d="M 7.16,4.45 L 7.16,4.49 L 8.05,4.93 L 8.97,4.49 L 8.97,4.45 L 8.08,4.01 Z" fill="#e1cb8c" stroke="none" /><path d="M 15.30,3.09 L 14.47,2.67 L 14.35,2.67 L 11.74,3.98 L 11.71,4.04 L 12.53,4.45 L 12.66,4.45 L 15.27,3.15 Z" fill="#e1cb8c" stroke="none" /><path d="M 18.04,2.64 L 18.04,2.67 L 18.93,3.12 L 19.79,2.70 L 19.75,2.64 L 18.93,2.23 L 18.86,2.23 Z" fill="#e1cb8c" stroke="none" /><path d="M 1.78,18.00 L 1.78,19.12 L 2.61,19.53 L 2.67,19.53 L 2.67,18.42 L 1.84,18.00 Z" fill="#898c8d" stroke="none" /><path d="M 3.59,13.36 L 3.59,14.47 L 4.42,14.89 L 4.49,14.89 L 4.49,13.81 Z" fill="#8a8d8e" stroke="none" /><path d="M 4.49,13.81 L 4.49,14.92 L 5.41,15.36 L 5.41,14.25 Z" fill="#8b8e8f" stroke="none" /><path d="M 5.41,19.82 L 5.41,20.93 L 6.23,21.34 L 6.30,21.34 L 6.30,20.23 L 5.47,19.82 Z" fill="#8c9090" stroke="none" /><path d="M 3.59,17.81 L 3.59,18.89 L 4.49,19.34 L 4.49,18.23 L 3.66,17.81 Z" fill="#8c9090" stroke="none" /><path d="M 7.22,15.17 L 7.22,16.29 L 8.05,16.70 L 8.11,16.70 L 8.11,15.62 Z" fill="#8c9090" stroke="none" /><path d="M 3.59,18.89 L 3.59,20.01 L 4.49,20.45 L 4.49,19.34 Z" fill="#8d9090" stroke="none" /><path d="M 8.11,21.15 L 8.11,22.27 L 8.97,22.71 L 9.03,22.71 L 9.03,21.60 Z" fill="#909292" stroke="none" /><path d="M 2.67,20.68 L 2.67,21.76 L 3.53,22.20 L 3.59,22.20 L 3.59,21.12 L 2.74,20.68 Z" fill="#909292" stroke="none" /><path d="M 2.67,12.91 L 2.67,14.00 L 3.53,14.44 L 3.59,14.44 L 3.59,13.36 L 2.74,12.91 Z" fill="#909292" stroke="none" /><path d="M 6.30,18.04 L 6.30,19.15 L 7.16,19.59 L 7.22,19.59 L 7.22,18.48 Z" fill="#909293" stroke="none" /><path d="M 8.11,16.73 L 8.11,18.96 L 9.03,19.40 L 9.03,17.18 L 8.17,16.73 Z" fill="#929394" stroke="none" /><path d="M 3.59,15.59 L 3.59,16.70 L 4.42,17.11 L 4.49,17.11 L 4.49,16.00 L 3.66,15.59 Z" fill="#929394" stroke="none" /><path d="M 21.63,6.27 L 20.74,5.82 L 19.85,6.27 L 19.85,6.30 L 20.68,6.71 L 20.80,6.71 L 21.63,6.30 Z" fill="#949494" stroke="none" /><path d="M 13.52,4.01 L 13.52,4.04 L 14.35,4.45 L 14.47,4.45 L 15.27,4.04 L 15.36,4.04 L 18.89,5.82 L 18.99,5.82 L 19.82,5.41 L 19.82,5.34 L 16.25,3.56 L 16.19,3.56 L 15.33,4.01 L 14.44,3.56 L 14.38,3.56 Z" fill="#949494" stroke="none" /><path d="M 4.49,16.03 L 4.49,17.15 L 5.41,17.59 L 5.41,16.48 L 4.55,16.03 Z" fill="#939596" stroke="none" /><path d="M 1.78,15.78 L 1.78,16.89 L 2.67,17.34 L 2.67,16.22 Z" fill="#959797" stroke="none" /><path d="M 5.41,14.28 L 5.41,15.36 L 6.30,15.81 L 6.30,14.70 L 5.47,14.28 Z" fill="#959797" stroke="none" /><path d="M 1.78,13.55 L 1.78,14.66 L 2.67,15.11 L 2.67,14.00 Z" fill="#959797" stroke="none" /><path d="M 8.11,22.27 L 8.11,23.38 L 8.97,23.83 L 9.03,23.83 L 9.03,22.71 Z" fill="#979999" stroke="none" /><path d="M 1.78,16.89 L 1.78,18.00 L 2.61,18.42 L 2.67,18.42 L 2.67,17.34 Z" fill="#999b9b" stroke="none" /><path d="M 6.30,22.49 L 6.30,23.57 L 7.16,24.02 L 7.22,24.02 L 7.22,22.93 L 6.36,22.49 Z" fill="#9a9b9b" stroke="none" /><path d="M 5.41,22.04 L 5.41,23.13 L 6.30,23.57 L 6.30,22.46 L 5.47,22.04 Z" fill="#9c9c9d" stroke="none" /><path d="M 6.30,19.15 L 6.30,20.26 L 7.22,20.71 L 7.22,19.59 Z" fill="#9d9e9e" stroke="none" /><path d="M 3.59,16.70 L 3.59,17.81 L 4.42,18.23 L 4.49,18.23 L 4.49,17.11 L 3.66,16.70 Z" fill="#9d9e9e" stroke="none" /><path d="M 6.30,14.73 L 6.30,15.81 L 7.16,16.25 L 7.22,16.25 L 7.22,15.17 L 6.36,14.73 Z" fill="#9d9e9e" stroke="none" /><path d="M 1.78,14.66 L 1.78,15.78 L 2.67,16.22 L 2.67,15.11 Z" fill="#9fa0a0" stroke="none" /><path d="M 7.22,22.93 L 7.22,24.05 L 8.05,24.46 L 8.11,24.46 L 8.11,23.38 Z" fill="#a0a0a0" stroke="none" /><path d="M 4.49,19.34 L 4.49,20.45 L 5.34,20.90 L 5.41,20.90 L 5.41,19.79 Z" fill="#a0a0a0" stroke="none" /><path d="M 8.11,18.96 L 8.11,20.07 L 9.03,20.52 L 9.03,19.40 L 8.17,18.96 Z" fill="#a0a0a0" stroke="none" /><path d="M 6.30,16.92 L 6.30,18.04 L 7.16,18.48 L 7.22,18.48 L 7.22,17.37 Z" fill="#a0a0a0" stroke="none" /><path d="M 5.41,16.48 L 5.41,17.59 L 6.30,18.04 L 6.30,16.92 Z" fill="#a2a2a2" stroke="none" /><path d="M 3.59,21.12 L 3.59,22.23 L 5.41,23.13 L 5.41,22.01 Z" fill="#a3a3a3" stroke="none" /><path d="M 1.78,19.12 L 1.78,20.23 L 2.61,20.64 L 2.67,20.64 L 2.67,19.53 L 1.84,19.12 Z" fill="#a3a3a3" stroke="none" /><path d="M 10.88,23.63 L 10.85,23.63 L 10.85,25.80 L 10.82,25.83 L 9.92,25.38 L 9.92,26.50 L 10.78,26.94 L 10.85,26.94 L 10.85,25.89 L 10.88,25.86 L 11.67,26.27 L 11.74,26.27 L 11.74,24.08 Z" fill="#a4a4a4" stroke="none" /><path d="M 10.85,14.76 L 10.85,16.99 L 11.74,17.43 L 11.74,15.20 Z" fill="#a4a4a4" stroke="none" /><path d="M 20.74,6.71 L 20.74,6.74 L 21.63,7.19 L 22.55,6.74 L 22.55,6.71 L 21.66,6.27 Z" fill="#bcbcbc" stroke="none" /><path d="M 18.96,5.82 L 18.96,5.85 L 19.79,6.27 L 19.91,6.27 L 20.74,5.85 L 20.71,5.79 L 19.88,5.38 L 19.82,5.38 Z" fill="#bcbcbc" stroke="none" /><path d="M 15.33,4.90 L 15.36,4.96 L 16.19,5.38 L 16.25,5.38 L 17.11,4.93 L 17.11,4.90 L 16.29,4.49 L 16.16,4.49 Z" fill="#bcbcbc" stroke="none" /><path d="M 20.77,7.60 L 20.77,7.67 L 21.60,8.08 L 21.69,8.08 L 22.52,7.67 L 22.52,7.60 L 21.69,7.19 L 21.60,7.19 Z" fill="#d0d0d0" stroke="none" /><path d="M 18.96,6.71 L 18.99,6.78 L 19.82,7.19 L 20.74,6.74 L 20.74,6.71 L 19.91,6.30 L 19.79,6.30 Z" fill="#d0d0d0" stroke="none" /><path d="M 17.15,5.82 L 17.15,5.85 L 17.97,6.27 L 18.10,6.27 L 18.93,5.85 L 18.89,5.79 L 18.07,5.38 L 18.00,5.38 Z" fill="#d0d0d0" stroke="none" /><path d="M 19.88,5.34 L 19.88,5.41 L 20.71,5.82 L 20.80,5.82 L 21.63,5.41 L 21.63,5.34 L 20.80,4.93 L 20.71,4.93 Z" fill="#d0d0d0" stroke="none" /><path d="M 17.15,4.01 L 17.15,4.04 L 17.97,4.45 L 18.10,4.45 L 18.93,4.04 L 18.89,3.98 L 18.07,3.56 L 18.00,3.56 Z" fill="#d0d0d0" stroke="none" /><path d="M 8.02,6.74 L 7.19,7.16 L 7.22,7.22 L 8.05,7.63 L 7.19,8.08 L 7.19,8.11 L 8.02,8.52 L 7.98,8.59 L 7.19,8.97 L 7.19,9.00 L 8.05,9.45 L 8.11,9.45 L 8.97,9.00 L 8.97,8.97 L 8.14,8.56 L 8.17,8.49 L 8.97,8.11 L 8.97,8.08 L 8.11,7.63 L 8.94,7.22 L 8.97,7.16 L 8.14,6.74 Z" fill="#d5d5d5" stroke="none" /><path d="M 9.03,7.19 L 8.94,7.19 L 8.11,7.60 L 8.11,7.67 L 8.94,8.08 L 8.87,8.14 L 8.08,8.52 L 8.08,8.56 L 8.87,8.94 L 8.94,9.00 L 7.19,9.89 L 7.19,9.92 L 8.02,10.34 L 8.14,10.34 L 9.86,9.48 L 9.86,9.42 L 9.03,9.00 L 9.10,8.94 L 9.89,8.56 L 9.89,8.52 L 9.10,8.14 L 9.03,8.08 L 9.86,7.67 L 9.86,7.60 Z" fill="#fcfcfc" stroke="none" /><path d="M 18.04,6.27 L 18.04,6.30 L 18.93,6.74 L 19.85,6.30 L 19.85,6.27 L 18.96,5.82 Z" fill="#fcfcfc" stroke="none" /><path d="M 19.85,7.16 L 19.88,7.22 L 20.71,7.63 L 20.77,7.63 L 21.66,7.19 L 23.41,8.08 L 23.51,8.08 L 24.33,7.67 L 24.33,7.60 L 22.62,6.74 L 22.65,6.68 L 23.44,6.30 L 23.41,6.23 L 21.69,5.38 L 21.63,5.38 L 20.80,5.79 L 20.77,5.85 L 22.46,6.68 L 22.49,6.71 L 22.46,6.78 L 21.69,7.16 L 21.60,7.16 L 20.80,6.74 L 20.68,6.74 Z" fill="#fcfcfc" stroke="none" /><path d="M 16.25,5.34 L 16.25,5.41 L 17.08,5.82 L 17.18,5.82 L 18.00,5.41 L 18.00,5.34 L 17.18,4.93 L 17.08,4.93 Z" fill="#fcfcfc" stroke="none" /><path d="M 18.04,4.45 L 18.04,4.49 L 19.82,5.38 L 19.88,5.38 L 20.74,4.93 L 20.74,4.90 L 18.96,4.01 Z" fill="#fcfcfc" stroke="none" /></svg>