<svg height="32" width="32" viewBox="0 0 32 32"><defs /><path d="M 30.12,11.98 L 30.12,14.01 L 32.00,14.01 L 32.00,11.98 Z" fill="#7aacb5" stroke="none" /><path d="M 30.12,3.94 L 30.12,9.98 L 32.00,9.98 L 32.00,3.94 Z" fill="#7aacb5" stroke="none" /><path d="M 7.95,30.12 L 7.95,32.00 L 28.09,32.00 L 28.09,30.12 Z" fill="#89bfcb" stroke="none" /><path d="M 3.94,30.12 L 3.94,32.00 L 5.94,32.00 L 5.94,30.12 Z" fill="#89bfcb" stroke="none" /><path d="M 30.12,14.01 L 30.12,28.09 L 32.00,28.09 L 32.00,14.01 Z" fill="#89bfcb" stroke="none" /><path d="M 30.12,9.98 L 30.12,11.98 L 32.00,11.98 L 32.00,9.98 Z" fill="#89bfcb" stroke="none" /><path d="M 5.94,30.12 L 5.94,32.00 L 7.95,32.00 L 7.95,30.12 Z" fill="#a6ced6" stroke="none" /><path d="M 32.00,28.09 L 30.12,28.09 L 30.12,30.09 L 30.09,30.12 L 28.09,30.12 L 28.09,32.00 L 32.00,32.00 Z" fill="#a6ced6" stroke="none" /><path d="M 0.00,28.09 L 0.00,32.00 L 3.94,32.00 L 3.94,30.12 L 1.94,30.12 L 1.91,30.09 L 1.91,28.09 Z" fill="#a6ced6" stroke="none" /><path d="M 0.00,24.09 L 0.00,26.09 L 1.91,26.09 L 1.91,24.09 Z" fill="#a6ced6" stroke="none" /><path d="M 3.94,7.95 L 3.94,9.98 L 5.94,9.98 L 5.94,7.95 Z" fill="#a6ced6" stroke="none" /><path d="M 30.12,0.00 L 30.12,3.94 L 32.00,3.94 L 32.00,0.00 Z" fill="#a6ced6" stroke="none" /><path d="M 0.00,26.09 L 0.00,28.09 L 1.91,28.09 L 1.91,26.09 Z" fill="#cee7e6" stroke="none" /><path d="M 28.09,24.09 L 26.09,24.09 L 26.09,26.06 L 26.06,26.09 L 24.09,26.09 L 24.09,28.09 L 26.09,28.09 L 26.09,26.12 L 26.12,26.09 L 28.09,26.09 Z" fill="#cee7e6" stroke="none" /><path d="M 9.98,3.94 L 7.95,3.94 L 7.95,5.91 L 7.91,5.94 L 5.94,5.94 L 5.94,7.95 L 7.95,7.95 L 7.95,5.97 L 7.98,5.94 L 9.98,5.94 Z" fill="#cee7e6" stroke="none" /><path d="M 0.00,24.09 L 1.91,24.09 L 1.91,1.94 L 1.94,1.91 L 30.12,1.91 L 30.12,0.00 L 0.00,0.00 Z" fill="#cee7e6" stroke="none" /></svg>