<svg height="32" width="32" viewBox="0 0 32 32"><defs /><path d="M 17.08,28.53 L 17.02,28.53 L 16.19,28.95 L 16.19,30.03 L 16.13,30.09 L 15.27,30.50 L 15.27,31.59 L 16.19,31.14 L 16.19,30.09 L 16.25,30.03 L 17.08,29.61 Z" fill="#151618" stroke="none" /><path d="M 23.41,25.35 L 22.52,25.80 L 22.52,27.96 L 23.41,27.51 Z" fill="#151618" stroke="none" /><path d="M 20.71,24.49 L 20.64,24.49 L 19.79,24.94 L 19.79,26.02 L 19.72,26.08 L 18.96,26.47 L 18.89,26.43 L 18.89,24.30 L 18.83,24.30 L 17.97,24.75 L 17.97,25.83 L 17.08,26.27 L 17.08,27.39 L 17.15,27.39 L 18.83,26.53 L 18.89,26.56 L 18.89,28.69 L 17.97,29.17 L 17.97,30.22 L 18.04,30.22 L 18.89,29.77 L 18.89,28.72 L 19.79,28.28 L 19.79,27.20 L 19.85,27.13 L 20.71,26.72 Z" fill="#151618" stroke="none" /><path d="M 15.20,23.89 L 14.41,24.30 L 14.41,26.53 L 15.24,26.12 L 15.27,26.15 L 15.27,27.20 L 15.30,27.20 L 16.19,26.75 L 16.19,25.64 L 15.30,26.08 L 15.27,26.05 L 15.27,23.89 Z" fill="#151618" stroke="none" /><path d="M 22.52,23.57 L 21.60,24.02 L 21.60,25.13 L 21.66,25.13 L 22.52,24.68 Z" fill="#151618" stroke="none" /><path d="M 18.89,20.96 L 17.08,21.85 L 17.08,24.08 L 17.97,23.63 L 17.97,22.55 L 18.04,22.49 L 18.89,22.08 Z" fill="#151618" stroke="none" /><path d="M 28.82,20.42 L 27.93,20.87 L 27.93,21.95 L 27.86,22.01 L 27.04,22.43 L 27.04,23.51 L 26.97,23.57 L 26.18,23.95 L 26.15,23.92 L 26.15,22.87 L 25.22,23.32 L 25.22,25.54 L 27.04,24.65 L 27.04,23.57 L 27.10,23.51 L 27.93,23.09 L 27.93,22.01 L 27.99,21.95 L 28.82,21.53 Z" fill="#151618" stroke="none" /><path d="M 16.19,17.88 L 15.27,18.32 L 15.27,20.52 L 15.20,20.58 L 14.41,20.96 L 14.41,22.08 L 14.47,22.08 L 15.27,21.66 L 15.27,20.58 L 15.33,20.52 L 16.19,20.10 Z" fill="#151618" stroke="none" /><path d="M 27.93,7.63 L 27.86,7.63 L 27.04,8.05 L 27.04,10.21 L 27.01,10.24 L 24.37,11.55 L 24.33,11.51 L 24.33,10.50 L 24.27,10.50 L 23.44,10.91 L 23.41,10.88 L 23.41,9.89 L 23.35,9.89 L 20.71,11.23 L 20.71,12.28 L 19.79,12.76 L 19.79,14.95 L 19.75,14.98 L 18.93,15.40 L 18.89,15.36 L 18.89,14.31 L 18.83,14.31 L 18.00,14.73 L 17.97,14.70 L 17.97,13.68 L 17.91,13.68 L 17.11,14.09 L 17.08,14.06 L 17.08,13.04 L 17.05,13.04 L 16.19,13.49 L 16.19,14.54 L 15.27,15.01 L 15.27,16.10 L 14.41,16.54 L 14.41,17.65 L 16.16,16.80 L 16.19,16.76 L 16.19,14.57 L 17.05,14.12 L 17.08,14.16 L 17.08,16.32 L 17.91,15.90 L 17.97,15.94 L 17.97,16.95 L 17.91,17.02 L 17.08,17.43 L 17.08,19.63 L 17.15,19.63 L 17.97,19.21 L 17.97,17.02 L 18.04,16.95 L 18.86,16.54 L 18.89,16.57 L 18.89,18.74 L 19.75,18.32 L 19.79,18.35 L 19.79,19.40 L 20.68,18.96 L 20.71,18.99 L 20.71,20.04 L 19.79,20.52 L 19.79,21.60 L 19.85,21.60 L 20.64,21.18 L 20.71,21.22 L 20.71,23.38 L 22.52,22.49 L 22.52,21.38 L 22.46,21.38 L 21.66,21.79 L 21.60,21.76 L 21.60,19.63 L 22.52,19.15 L 22.52,18.07 L 22.58,18.00 L 24.30,17.15 L 24.33,17.18 L 24.33,18.23 L 23.41,18.70 L 23.41,19.79 L 23.48,19.79 L 24.33,19.34 L 24.33,18.26 L 25.19,17.81 L 25.22,17.84 L 25.22,18.89 L 26.12,18.45 L 26.15,18.48 L 26.15,19.53 L 25.22,20.01 L 25.22,21.09 L 25.16,21.15 L 24.37,21.53 L 24.33,21.50 L 24.33,20.45 L 23.41,20.90 L 23.41,23.13 L 26.12,21.79 L 26.15,21.76 L 26.15,19.56 L 28.82,18.23 L 28.82,17.11 L 28.76,17.11 L 27.96,17.53 L 27.93,17.50 L 27.93,16.48 L 27.99,16.41 L 28.82,16.00 L 28.82,12.66 L 27.96,13.07 L 27.93,13.04 L 27.93,10.91 L 27.86,10.91 L 27.07,11.32 L 27.04,11.29 L 27.04,10.24 L 28.82,9.35 L 28.82,8.24 L 27.96,8.65 L 27.93,8.62 Z" fill="#151618" stroke="none" /><path d="M 25.22,14.47 L 25.16,14.47 L 22.55,15.78 L 22.52,15.81 L 22.52,16.92 L 25.22,15.59 Z" fill="#161718" stroke="none" /><path d="M 26.15,11.80 L 26.08,11.80 L 25.22,12.25 L 25.22,13.36 L 26.15,12.91 Z" fill="#161718" stroke="none" /><path d="M 27.93,14.22 L 27.04,14.66 L 27.04,15.75 L 26.97,15.81 L 25.22,16.67 L 25.22,17.78 L 25.19,17.81 L 24.37,18.23 L 24.33,18.19 L 24.33,17.15 L 24.27,17.15 L 22.52,18.04 L 22.52,19.12 L 22.46,19.18 L 21.60,19.59 L 21.60,21.82 L 22.49,21.38 L 22.52,21.41 L 22.52,22.46 L 20.77,23.35 L 20.71,23.32 L 20.71,21.15 L 19.82,21.60 L 19.79,21.57 L 19.79,20.55 L 19.85,20.49 L 20.71,20.07 L 20.71,18.96 L 20.64,18.96 L 19.82,19.37 L 19.79,19.34 L 19.79,18.32 L 19.85,18.26 L 20.71,17.84 L 20.71,16.73 L 21.60,16.29 L 21.60,15.20 L 21.66,15.14 L 22.52,14.73 L 22.52,13.61 L 23.38,13.17 L 23.41,13.20 L 23.41,14.25 L 23.48,14.25 L 24.30,13.84 L 24.33,13.81 L 24.33,12.69 L 23.44,13.14 L 23.41,13.11 L 23.41,12.06 L 23.35,12.06 L 22.55,12.47 L 22.52,12.44 L 22.52,11.39 L 21.60,11.83 L 21.60,12.95 L 22.49,12.50 L 22.52,12.53 L 22.52,13.58 L 20.71,14.50 L 20.71,16.70 L 19.79,17.18 L 19.79,18.26 L 19.72,18.32 L 18.96,18.70 L 18.89,18.67 L 18.89,16.54 L 18.83,16.54 L 18.00,16.95 L 17.97,16.92 L 17.97,15.87 L 17.15,16.29 L 17.08,16.25 L 17.08,14.12 L 17.94,13.68 L 17.97,13.71 L 17.97,14.76 L 18.86,14.31 L 18.89,14.35 L 18.89,15.40 L 18.96,15.40 L 19.79,14.98 L 19.79,12.79 L 19.85,12.72 L 20.71,12.31 L 20.71,11.23 L 17.11,13.01 L 17.08,13.04 L 17.08,14.09 L 17.05,14.12 L 16.22,14.54 L 16.19,14.50 L 16.19,13.49 L 16.16,13.49 L 14.41,14.38 L 14.41,16.54 L 15.27,16.13 L 15.27,15.05 L 15.33,14.98 L 16.16,14.57 L 16.19,14.60 L 16.19,16.73 L 16.13,16.80 L 14.41,17.65 L 14.41,20.96 L 14.47,20.96 L 15.20,20.58 L 15.27,20.61 L 15.27,21.63 L 15.20,21.69 L 14.41,22.08 L 14.41,24.30 L 15.24,23.89 L 15.27,23.92 L 15.27,26.08 L 14.41,26.53 L 14.41,32.00 L 14.47,32.00 L 15.27,31.59 L 15.27,30.54 L 15.30,30.50 L 16.16,30.09 L 16.19,30.12 L 16.19,31.11 L 16.25,31.11 L 17.08,30.70 L 17.08,29.65 L 17.15,29.58 L 18.86,28.72 L 18.89,28.76 L 18.89,29.77 L 18.93,29.77 L 22.49,27.99 L 22.52,27.96 L 22.52,25.83 L 22.58,25.77 L 23.35,25.38 L 23.41,25.42 L 23.41,27.51 L 23.44,27.51 L 24.33,27.07 L 24.33,26.02 L 24.40,25.96 L 25.19,25.57 L 25.22,25.61 L 25.22,26.59 L 25.29,26.59 L 28.82,24.81 L 28.82,22.65 L 27.10,23.51 L 27.04,23.48 L 27.04,22.46 L 27.10,22.39 L 27.93,21.98 L 27.93,20.90 L 27.99,20.83 L 28.82,20.42 L 28.82,18.23 L 28.76,18.23 L 26.18,19.53 L 26.15,19.50 L 26.15,18.45 L 27.04,18.00 L 27.04,16.92 L 27.10,16.86 L 27.90,16.48 L 27.93,16.51 L 27.93,17.53 L 27.99,17.53 L 28.82,17.11 L 28.82,16.00 L 27.99,16.41 L 27.93,16.38 Z" fill="#161718" stroke="none" /><path d="M 28.82,9.35 L 28.76,9.35 L 27.07,10.21 L 27.04,10.18 L 27.04,8.08 L 26.97,8.08 L 23.41,9.86 L 23.41,10.94 L 24.30,10.50 L 24.33,10.53 L 24.33,11.58 L 24.37,11.58 L 27.01,10.24 L 27.04,10.27 L 27.04,11.32 L 27.10,11.32 L 27.90,10.91 L 27.93,10.94 L 27.93,11.99 L 27.99,11.99 L 28.82,11.58 Z" fill="#161718" stroke="none" /><path d="M 28.82,7.19 L 28.76,7.19 L 27.93,7.60 L 27.93,8.68 L 28.82,8.24 Z" fill="#161718" stroke="none" /><path d="M 17.97,29.17 L 17.08,29.61 L 17.08,30.66 L 17.15,30.66 L 17.97,30.25 Z" fill="#161719" stroke="none" /><path d="M 16.19,27.86 L 16.13,27.86 L 15.27,28.31 L 15.27,29.42 L 16.19,28.98 Z" fill="#161719" stroke="none" /><path d="M 25.22,25.54 L 24.33,25.99 L 24.33,27.04 L 24.40,27.04 L 25.22,26.62 Z" fill="#161719" stroke="none" /><path d="M 28.82,21.53 L 27.93,21.98 L 27.93,23.09 L 28.82,22.65 Z" fill="#161719" stroke="none" /><path d="M 26.15,12.91 L 26.08,12.91 L 25.22,13.36 L 25.22,14.44 L 25.29,14.44 L 26.15,14.00 Z" fill="#161719" stroke="none" /><path d="M 28.82,11.58 L 28.76,11.58 L 27.93,11.99 L 27.93,13.11 L 28.82,12.66 Z" fill="#161719" stroke="none" /><path d="M 10.85,26.97 L 10.85,29.17 L 12.60,30.06 L 12.63,30.06 L 12.63,29.01 L 12.66,28.98 L 13.55,29.42 L 13.55,28.37 L 13.58,28.34 L 14.35,28.72 L 14.41,28.72 L 14.41,27.61 L 13.58,27.20 L 13.55,27.20 L 13.55,28.25 L 13.52,28.28 L 12.69,27.86 L 12.63,27.86 L 12.63,28.91 L 12.60,28.95 L 11.74,28.50 L 11.74,27.39 L 10.91,26.97 Z" fill="#232527" stroke="none" /><path d="M 8.11,26.72 L 8.11,28.88 L 9.03,29.33 L 9.03,27.17 L 8.17,26.72 Z" fill="#232527" stroke="none" /><path d="M 7.22,24.05 L 7.22,25.16 L 8.05,25.57 L 8.11,25.57 L 8.11,24.46 L 7.28,24.05 Z" fill="#232527" stroke="none" /><path d="M 1.81,23.54 L 1.78,23.54 L 1.78,24.59 L 1.75,24.62 L 0.95,24.21 L 0.89,24.21 L 0.89,25.26 L 1.75,25.70 L 1.78,25.70 L 1.78,24.68 L 1.81,24.65 L 2.61,25.07 L 2.67,25.07 L 2.67,23.98 Z" fill="#232527" stroke="none" /><path d="M 3.59,21.12 L 3.59,22.17 L 3.56,22.20 L 2.67,21.76 L 2.67,22.87 L 4.49,23.79 L 4.49,25.92 L 4.42,25.96 L 3.59,25.54 L 3.59,26.62 L 4.42,27.04 L 4.49,27.04 L 4.49,26.05 L 4.52,26.02 L 5.34,26.43 L 5.41,26.43 L 5.41,25.42 L 5.44,25.38 L 6.30,25.80 L 6.30,23.57 L 5.41,23.13 L 5.41,24.17 L 5.38,24.21 L 4.52,23.79 L 4.49,23.76 L 4.49,21.57 Z" fill="#232527" stroke="none" /><path d="M 2.67,17.34 L 2.67,19.56 L 3.59,20.01 L 3.59,18.96 L 3.63,18.93 L 4.49,19.34 L 4.49,18.23 Z" fill="#232527" stroke="none" /><path d="M 0.00,17.11 L 0.00,19.34 L 0.89,19.79 L 0.89,20.87 L 1.78,21.31 L 1.78,20.20 L 0.89,19.75 L 0.89,17.53 L 0.06,17.11 Z" fill="#232527" stroke="none" /><path d="M 0.95,12.02 L 0.89,12.02 L 0.89,14.16 L 0.83,14.19 L 0.00,13.77 L 0.00,14.89 L 0.86,15.33 L 0.89,15.33 L 0.89,14.28 L 0.92,14.25 L 1.78,14.66 L 1.78,12.44 Z" fill="#232527" stroke="none" /><path d="M 0.00,9.35 L 0.00,10.47 L 1.72,11.32 L 1.78,11.32 L 1.78,9.19 L 1.84,9.16 L 2.61,9.54 L 2.67,9.61 L 2.67,11.80 L 3.53,12.21 L 3.59,12.28 L 3.59,13.30 L 3.56,13.33 L 2.74,12.91 L 2.67,12.91 L 2.67,15.11 L 3.53,15.55 L 3.59,15.55 L 3.59,13.42 L 3.66,13.39 L 4.42,13.77 L 4.49,13.84 L 4.49,16.03 L 5.34,16.45 L 5.41,16.51 L 5.41,17.59 L 6.23,18.00 L 6.30,18.07 L 6.30,19.09 L 6.27,19.12 L 5.41,18.70 L 5.41,19.82 L 6.30,20.26 L 6.30,22.49 L 8.11,23.38 L 8.11,22.27 L 7.28,21.85 L 7.22,21.79 L 7.22,19.66 L 7.25,19.63 L 8.05,20.04 L 8.11,20.04 L 8.11,18.99 L 8.14,18.96 L 9.86,19.82 L 9.92,19.88 L 9.92,20.90 L 9.89,20.93 L 9.03,20.52 L 9.03,21.63 L 9.86,22.04 L 9.92,22.04 L 9.92,21.03 L 9.96,20.99 L 10.82,21.41 L 10.85,21.44 L 10.85,22.52 L 11.67,22.93 L 11.74,23.00 L 11.74,24.02 L 11.67,24.05 L 10.85,23.63 L 10.85,24.68 L 10.78,24.72 L 9.92,24.27 L 9.92,23.16 L 9.10,22.74 L 9.03,22.74 L 9.03,24.94 L 11.67,26.27 L 11.74,26.27 L 11.74,24.14 L 11.77,24.11 L 14.41,25.42 L 14.41,24.30 L 13.55,23.86 L 13.55,22.84 L 13.58,22.81 L 14.35,23.19 L 14.41,23.19 L 14.41,19.85 L 13.61,19.47 L 13.55,19.40 L 13.55,17.21 L 12.69,16.80 L 12.63,16.73 L 12.63,15.71 L 12.66,15.68 L 14.41,16.54 L 14.41,15.43 L 13.61,15.05 L 13.55,14.98 L 13.55,13.93 L 12.63,13.49 L 12.63,15.59 L 12.56,15.62 L 9.92,14.28 L 9.92,13.20 L 9.10,12.79 L 9.03,12.72 L 9.03,11.67 L 6.36,10.34 L 6.30,10.34 L 6.30,11.32 L 6.27,11.36 L 5.41,10.94 L 5.41,13.11 L 5.38,13.14 L 4.55,12.72 L 4.49,12.66 L 4.49,11.58 L 3.66,11.17 L 3.59,11.10 L 3.59,10.02 L 2.74,9.61 L 2.67,9.54 L 2.67,8.49 L 1.84,8.08 L 1.78,8.08 L 1.78,9.07 L 1.75,9.10 L 0.89,8.68 L 0.89,9.73 L 0.86,9.77 L 0.06,9.35 Z" fill="#232527" stroke="none" /><path d="M 8.11,16.73 L 8.11,17.84 L 10.78,19.18 L 10.85,19.18 L 10.85,18.07 L 8.17,16.73 Z" fill="#232528" stroke="none" /><path d="M 10.85,15.87 L 10.85,16.99 L 11.74,17.43 L 11.74,16.32 Z" fill="#232528" stroke="none" /><path d="M 13.55,13.96 L 13.55,15.01 L 14.35,15.43 L 14.41,15.43 L 14.41,14.38 L 13.61,13.96 Z" fill="#232528" stroke="none" /><path d="M 9.03,11.71 L 9.03,12.76 L 9.86,13.17 L 9.92,13.23 L 9.92,14.31 L 12.56,15.62 L 12.63,15.68 L 12.63,16.76 L 13.55,17.24 L 13.55,18.35 L 14.41,18.77 L 14.41,16.54 L 12.69,15.68 L 12.63,15.62 L 12.63,13.49 L 9.10,11.71 Z" fill="#232528" stroke="none" /><path d="M 0.00,7.19 L 0.00,9.35 L 0.83,9.77 L 0.89,9.77 L 0.89,8.75 L 0.92,8.72 L 1.72,9.10 L 1.78,9.16 L 1.78,11.29 L 1.75,11.32 L 0.06,10.47 L 0.00,10.47 L 0.00,13.77 L 0.83,14.19 L 0.89,14.25 L 0.89,15.27 L 0.86,15.30 L 0.00,14.89 L 0.00,17.11 L 0.89,17.56 L 0.89,19.72 L 0.86,19.75 L 0.06,19.34 L 0.00,19.34 L 0.00,24.81 L 0.89,25.26 L 0.89,24.24 L 0.92,24.21 L 1.78,24.65 L 1.78,25.70 L 1.81,25.73 L 2.67,26.15 L 2.67,25.13 L 2.70,25.10 L 4.42,25.96 L 4.49,26.02 L 4.49,27.07 L 8.05,28.85 L 8.11,28.85 L 8.11,26.75 L 8.14,26.72 L 8.97,27.13 L 9.03,27.20 L 9.03,29.33 L 9.07,29.36 L 9.92,29.77 L 9.92,28.76 L 9.96,28.72 L 10.78,29.14 L 10.85,29.20 L 10.85,30.25 L 14.35,32.00 L 14.41,32.00 L 14.41,29.84 L 12.63,28.95 L 12.63,27.90 L 12.66,27.86 L 13.55,28.31 L 13.55,27.26 L 13.58,27.23 L 14.35,27.61 L 14.41,27.61 L 14.41,25.42 L 11.80,24.11 L 11.74,24.05 L 11.74,23.03 L 11.77,23.00 L 12.63,23.41 L 12.63,22.36 L 12.66,22.33 L 13.49,22.74 L 13.55,22.81 L 13.55,23.89 L 14.41,24.30 L 14.41,23.19 L 13.61,22.81 L 13.55,22.74 L 13.55,20.55 L 12.69,20.10 L 12.63,20.10 L 12.63,21.15 L 12.60,21.18 L 10.91,20.33 L 10.85,20.33 L 10.85,21.38 L 10.82,21.41 L 9.99,20.99 L 9.92,20.93 L 9.92,19.85 L 9.89,19.82 L 8.17,18.96 L 8.11,18.96 L 8.11,20.01 L 8.08,20.04 L 7.28,19.63 L 7.22,19.63 L 7.22,21.82 L 8.05,22.23 L 8.11,22.30 L 8.11,23.32 L 8.05,23.35 L 6.33,22.49 L 6.30,22.46 L 6.30,20.23 L 5.41,19.79 L 5.41,18.77 L 5.44,18.74 L 6.30,19.15 L 6.30,18.04 L 5.47,17.62 L 5.41,17.56 L 5.41,16.54 L 5.47,16.51 L 6.30,16.92 L 6.30,15.87 L 6.36,15.84 L 7.16,16.25 L 7.22,16.25 L 7.22,15.24 L 7.25,15.20 L 8.11,15.62 L 8.11,14.57 L 8.14,14.54 L 9.03,14.98 L 9.03,16.10 L 9.86,16.51 L 9.92,16.51 L 9.92,15.40 L 9.03,14.95 L 9.03,13.84 L 8.17,13.42 L 8.11,13.36 L 8.11,12.28 L 7.28,11.86 L 7.22,11.86 L 7.22,12.95 L 8.05,13.36 L 8.11,13.42 L 8.11,14.44 L 8.05,14.47 L 6.36,13.61 L 6.30,13.61 L 6.30,15.75 L 6.23,15.78 L 5.41,15.36 L 5.41,16.41 L 5.38,16.45 L 4.52,16.03 L 4.49,16.00 L 4.49,13.81 L 3.66,13.39 L 3.59,13.33 L 3.59,12.25 L 2.67,11.77 L 2.67,9.64 L 2.74,9.61 L 3.59,10.05 L 3.59,11.13 L 4.42,11.55 L 4.49,11.61 L 4.49,12.69 L 5.34,13.14 L 5.41,13.14 L 5.41,11.01 L 5.47,10.97 L 6.30,11.39 L 6.30,10.31 L 2.74,8.52 L 2.67,8.52 L 2.67,9.51 L 2.61,9.54 L 1.84,9.16 L 1.78,9.10 L 1.78,8.05 L 0.06,7.19 Z" fill="#232528" stroke="none" /><path d="M 9.92,28.72 L 9.92,29.77 L 10.78,30.22 L 10.85,30.22 L 10.85,29.17 L 9.99,28.72 Z" fill="#242628" stroke="none" /><path d="M 13.55,28.31 L 13.55,29.42 L 14.35,29.84 L 14.41,29.84 L 14.41,28.72 Z" fill="#242628" stroke="none" /><path d="M 2.67,25.10 L 2.67,26.15 L 3.53,26.59 L 3.59,26.59 L 3.59,25.54 L 2.74,25.10 Z" fill="#242628" stroke="none" /><path d="M 0.89,21.98 L 0.89,23.09 L 1.78,23.54 L 1.78,22.43 Z" fill="#242628" stroke="none" /><path d="M 13.55,18.35 L 13.55,19.44 L 14.35,19.85 L 14.41,19.85 L 14.41,18.77 L 13.61,18.35 Z" fill="#242628" stroke="none" /><path d="M 10.85,16.99 L 10.85,18.10 L 11.67,18.51 L 11.74,18.51 L 11.74,17.43 Z" fill="#242628" stroke="none" /><path d="M 6.27,6.71 L 4.49,5.82 L 4.42,5.82 L 2.64,6.71 L 2.64,6.74 L 3.44,7.13 L 3.50,7.19 L 2.67,7.60 L 2.67,7.67 L 3.50,8.08 L 3.44,8.14 L 2.70,8.49 L 2.70,8.52 L 3.56,8.97 L 3.63,8.97 L 4.45,8.56 L 4.45,8.52 L 3.66,8.14 L 3.59,8.08 L 4.42,7.67 L 4.42,7.60 L 3.59,7.19 L 3.66,7.13 L 4.42,6.74 L 4.49,6.74 L 5.38,7.19 L 6.27,6.74 Z" fill="#35383c" stroke="none" /><path d="M 5.41,9.89 L 6.30,10.34 L 7.13,9.92 L 7.22,9.92 L 8.02,10.34 L 7.98,10.40 L 7.25,10.75 L 7.25,10.82 L 9.86,12.12 L 9.99,12.12 L 10.78,11.71 L 12.53,12.60 L 12.66,12.60 L 13.46,12.18 L 13.55,12.18 L 14.31,12.56 L 14.35,12.63 L 12.69,13.46 L 12.66,13.52 L 13.49,13.93 L 13.61,13.93 L 14.41,13.52 L 15.20,13.93 L 15.33,13.93 L 16.16,13.52 L 16.16,13.49 L 14.50,12.66 L 14.47,12.63 L 14.50,12.56 L 17.11,11.26 L 18.00,11.71 L 18.07,11.71 L 18.93,11.26 L 19.72,11.67 L 19.85,11.67 L 22.46,10.37 L 22.49,10.31 L 21.76,9.96 L 21.69,9.89 L 22.52,9.48 L 22.52,9.42 L 20.80,8.56 L 20.83,8.49 L 21.60,8.11 L 21.69,8.11 L 22.49,8.52 L 22.62,8.52 L 23.41,8.11 L 23.51,8.11 L 24.30,8.52 L 24.43,8.52 L 25.22,8.11 L 25.32,8.11 L 26.15,8.52 L 27.04,8.08 L 27.04,8.05 L 26.21,7.63 L 27.07,7.19 L 27.07,7.16 L 26.24,6.74 L 26.27,6.68 L 27.01,6.33 L 27.01,6.27 L 26.18,5.85 L 26.08,5.85 L 24.37,6.71 L 24.37,6.74 L 26.15,7.63 L 25.26,8.08 L 23.51,7.19 L 23.41,7.19 L 22.55,7.63 L 21.69,7.19 L 21.76,7.13 L 22.55,6.74 L 22.55,6.71 L 20.74,5.82 L 19.85,6.27 L 19.85,6.30 L 21.53,7.13 L 21.60,7.19 L 21.57,7.22 L 20.74,7.63 L 18.99,6.74 L 18.89,6.74 L 18.07,7.16 L 18.07,7.22 L 18.89,7.63 L 18.00,8.08 L 17.24,7.70 L 17.18,7.63 L 18.00,7.22 L 18.00,7.16 L 17.18,6.74 L 17.08,6.74 L 16.22,7.19 L 15.36,6.74 L 15.43,6.68 L 16.22,6.30 L 16.22,6.27 L 15.33,5.82 L 14.44,6.27 L 14.38,6.27 L 12.63,5.38 L 12.56,5.38 L 10.78,6.27 L 10.78,6.30 L 11.67,6.74 L 12.56,6.30 L 12.63,6.30 L 14.35,7.16 L 14.38,7.19 L 14.35,7.22 L 13.52,7.63 L 13.52,7.67 L 14.31,8.05 L 14.35,8.08 L 14.31,8.14 L 12.66,8.97 L 12.56,8.97 L 11.80,8.59 L 11.77,8.52 L 12.60,8.11 L 12.60,8.08 L 11.67,7.63 L 10.82,8.08 L 10.82,8.11 L 11.64,8.52 L 11.61,8.59 L 10.85,8.97 L 10.75,8.97 L 9.96,8.56 L 9.83,8.56 L 9.03,8.97 L 8.94,8.97 L 8.17,8.59 L 8.14,8.52 L 8.97,8.11 L 8.97,8.08 L 8.11,7.63 L 8.97,7.19 L 9.86,7.63 L 9.92,7.63 L 10.75,7.22 L 10.75,7.16 L 9.03,6.30 L 8.91,6.30 L 6.30,7.60 L 6.30,7.67 L 7.98,8.49 L 8.02,8.56 L 5.41,9.86 Z" fill="#35383c" stroke="none" /><path d="M 9.00,5.34 L 9.00,5.41 L 9.83,5.82 L 9.92,5.82 L 10.75,5.41 L 10.75,5.34 L 9.92,4.93 L 9.83,4.93 Z" fill="#35383c" stroke="none" /><path d="M 21.66,4.45 L 21.66,4.49 L 22.46,4.87 L 22.52,4.93 L 21.69,5.34 L 21.69,5.41 L 23.41,6.27 L 23.51,6.27 L 24.33,5.85 L 24.33,5.79 L 22.62,4.93 L 22.68,4.87 L 23.41,4.52 L 23.38,4.45 L 22.55,4.04 L 22.49,4.04 Z" fill="#35383c" stroke="none" /><path d="M 5.41,4.49 L 5.41,4.52 L 7.13,5.38 L 7.19,5.38 L 8.05,4.93 L 8.05,4.90 L 6.33,4.04 L 6.27,4.04 Z" fill="#35383c" stroke="none" /><path d="M 16.22,4.45 L 16.22,4.49 L 17.02,4.87 L 17.08,4.93 L 16.25,5.34 L 16.25,5.41 L 17.08,5.82 L 17.18,5.82 L 18.93,4.93 L 18.93,4.90 L 17.15,4.01 Z" fill="#35383c" stroke="none" /><path d="M 15.30,3.09 L 14.47,2.67 L 14.35,2.67 L 12.63,3.53 L 12.63,3.59 L 14.35,4.45 L 14.47,4.45 L 15.30,4.04 L 15.27,3.98 L 14.44,3.56 L 15.27,3.15 Z" fill="#35383c" stroke="none" /><path d="M 16.22,2.64 L 16.22,2.67 L 17.11,3.12 L 18.00,2.67 L 18.07,2.67 L 19.82,3.56 L 19.88,3.56 L 20.71,3.15 L 20.71,3.12 L 18.93,2.23 L 18.86,2.23 L 18.07,2.64 L 18.00,2.64 L 17.11,2.19 Z" fill="#35383c" stroke="none" /><path d="M 10.78,1.78 L 9.96,2.19 L 9.96,2.26 L 10.69,2.61 L 10.72,2.67 L 9.89,3.09 L 9.92,3.15 L 10.75,3.56 L 9.92,3.98 L 9.89,4.04 L 11.71,4.93 L 12.60,4.49 L 12.60,4.45 L 11.80,4.07 L 11.74,4.01 L 12.56,3.59 L 12.56,3.53 L 10.88,2.70 L 10.85,2.67 L 10.88,2.61 L 11.67,2.23 L 11.67,2.19 L 10.88,1.78 Z" fill="#35383c" stroke="none" /><path d="M 13.58,0.41 L 13.52,0.41 L 12.66,0.86 L 12.66,0.89 L 13.39,1.24 L 13.46,1.30 L 12.63,1.72 L 12.63,1.78 L 13.46,2.19 L 13.55,2.19 L 14.38,1.78 L 14.38,1.72 L 13.55,1.30 L 13.61,1.24 L 14.41,0.86 L 14.41,0.83 Z" fill="#35383c" stroke="none" /><path d="M 13.55,13.93 L 13.55,13.96 L 14.38,14.38 L 14.44,14.38 L 15.27,13.96 L 15.27,13.93 L 14.44,13.52 L 14.38,13.52 Z" fill="#36393d" stroke="none" /><path d="M 19.79,11.67 L 18.96,11.26 L 18.89,11.26 L 18.04,11.71 L 17.18,11.26 L 17.08,11.26 L 14.44,12.60 L 14.38,12.60 L 13.52,12.15 L 12.63,12.60 L 12.56,12.60 L 11.67,12.15 L 10.85,12.56 L 10.85,12.60 L 12.60,13.49 L 12.69,13.49 L 14.38,12.63 L 14.44,12.63 L 16.13,13.49 L 16.22,13.49 L 19.79,11.71 Z" fill="#36393d" stroke="none" /><path d="M 13.52,11.23 L 13.55,11.29 L 14.38,11.71 L 14.44,11.71 L 15.30,11.26 L 15.30,11.23 L 14.47,10.82 L 14.35,10.82 Z" fill="#36393d" stroke="none" /><path d="M 16.19,8.97 L 15.36,8.56 L 15.27,8.56 L 12.66,9.86 L 12.63,9.92 L 13.46,10.34 L 13.55,10.34 L 16.16,9.03 Z" fill="#36393d" stroke="none" /><path d="M 26.18,6.71 L 26.18,6.74 L 26.97,7.13 L 27.04,7.19 L 26.21,7.60 L 26.21,7.67 L 26.97,8.05 L 27.10,8.05 L 28.79,7.19 L 28.79,7.16 L 27.07,6.30 L 27.01,6.30 Z" fill="#36393d" stroke="none" /><path d="M 26.15,7.67 L 26.15,7.60 L 24.43,6.74 L 24.46,6.68 L 26.08,5.88 L 26.12,5.82 L 23.44,4.49 L 22.62,4.90 L 22.52,4.90 L 21.73,4.49 L 21.76,4.42 L 22.49,4.07 L 22.49,4.01 L 20.77,3.15 L 20.64,3.15 L 19.85,3.56 L 18.10,2.67 L 18.13,2.61 L 18.86,2.26 L 18.86,2.19 L 14.47,0.00 L 14.35,0.00 L 13.58,0.38 L 13.58,0.45 L 14.31,0.80 L 14.35,0.83 L 14.31,0.89 L 13.55,1.27 L 13.46,1.27 L 12.63,0.86 L 11.74,1.30 L 11.74,1.34 L 12.53,1.72 L 12.56,1.75 L 12.53,1.78 L 10.82,2.64 L 10.75,2.64 L 9.96,2.23 L 9.89,2.23 L 6.33,4.01 L 6.33,4.07 L 7.95,4.87 L 8.02,4.93 L 7.16,5.38 L 5.41,4.49 L 4.55,4.90 L 4.52,4.96 L 5.25,5.31 L 5.31,5.38 L 4.49,5.79 L 4.49,5.85 L 6.20,6.71 L 6.17,6.78 L 5.41,7.16 L 5.31,7.16 L 4.52,6.74 L 4.39,6.74 L 3.59,7.16 L 3.50,7.16 L 2.74,6.78 L 2.70,6.74 L 2.74,6.68 L 4.42,5.85 L 4.42,5.79 L 3.66,5.41 L 3.53,5.41 L 0.03,7.16 L 0.06,7.22 L 1.72,8.05 L 1.84,8.05 L 3.53,7.19 L 4.39,7.60 L 4.42,7.63 L 4.39,7.67 L 3.56,8.08 L 3.56,8.11 L 4.39,8.52 L 4.36,8.59 L 3.63,8.94 L 3.63,9.00 L 5.34,9.86 L 5.47,9.86 L 8.05,8.56 L 8.11,8.56 L 8.87,8.94 L 8.94,9.00 L 8.11,9.42 L 8.11,9.48 L 8.94,9.89 L 8.87,9.96 L 8.11,10.34 L 8.05,10.34 L 7.19,9.89 L 6.33,10.31 L 6.33,10.34 L 7.19,10.78 L 7.25,10.78 L 8.05,10.37 L 8.11,10.37 L 9.86,11.26 L 9.92,11.26 L 10.78,10.82 L 10.78,10.78 L 9.99,10.40 L 9.96,10.37 L 9.99,10.31 L 11.67,9.48 L 11.67,9.42 L 10.88,9.03 L 10.85,9.00 L 10.91,8.94 L 11.67,8.56 L 11.74,8.56 L 12.63,9.00 L 14.41,8.11 L 14.41,8.08 L 13.61,7.70 L 13.55,7.63 L 14.38,7.22 L 14.38,7.16 L 12.66,6.30 L 12.53,6.30 L 11.74,6.71 L 11.64,6.71 L 10.85,6.30 L 10.88,6.23 L 12.60,5.38 L 14.35,6.27 L 14.47,6.27 L 15.27,5.85 L 15.36,5.85 L 16.13,6.23 L 16.16,6.27 L 16.13,6.33 L 15.33,6.71 L 15.33,6.74 L 16.19,7.19 L 16.25,7.19 L 17.11,6.74 L 18.00,7.19 L 17.15,7.63 L 17.15,7.67 L 17.97,8.08 L 17.91,8.14 L 17.11,8.52 L 17.11,8.56 L 17.91,8.94 L 17.97,9.00 L 17.15,9.42 L 17.15,9.48 L 17.97,9.89 L 17.91,9.96 L 17.15,10.34 L 17.08,10.34 L 16.19,9.89 L 15.33,10.34 L 15.33,10.37 L 16.16,10.78 L 16.29,10.78 L 17.08,10.37 L 17.15,10.37 L 18.04,10.82 L 18.89,10.37 L 18.96,10.37 L 19.85,10.82 L 20.74,10.37 L 20.74,10.34 L 19.85,9.89 L 18.96,10.34 L 18.89,10.34 L 18.13,9.96 L 18.07,9.89 L 19.82,9.00 L 19.82,8.97 L 18.13,8.14 L 18.07,8.08 L 18.89,7.67 L 18.89,7.60 L 18.07,7.19 L 18.93,6.74 L 20.71,7.63 L 20.77,7.63 L 21.63,7.19 L 22.52,7.63 L 22.58,7.63 L 23.48,7.19 L 25.22,8.08 L 25.16,8.14 L 24.40,8.52 L 24.33,8.52 L 23.48,8.08 L 22.58,8.52 L 22.52,8.52 L 21.66,8.08 L 20.74,8.52 L 20.74,8.56 L 22.52,9.45 L 21.66,9.89 L 21.66,9.92 L 22.49,10.34 L 26.08,8.56 L 26.12,8.49 L 25.38,8.14 L 25.32,8.08 Z" fill="#36393d" stroke="none" /><path d="M 9.92,12.12 L 9.92,12.15 L 10.82,12.60 L 11.67,12.18 L 11.64,12.12 L 10.82,11.71 L 10.75,11.71 Z" fill="#373a3e" stroke="none" /><path d="M 12.60,10.78 L 12.60,10.82 L 13.49,11.26 L 14.41,10.82 L 14.41,10.78 L 13.52,10.34 Z" fill="#373a3e" stroke="none" /><path d="M 1.78,8.05 L 1.78,8.08 L 2.67,8.52 L 3.53,8.11 L 3.50,8.05 L 2.67,7.63 L 2.61,7.63 Z" fill="#373a3e" stroke="none" /><path d="M 5.34,5.34 L 4.49,4.93 L 3.59,5.38 L 3.59,5.41 L 4.42,5.82 L 4.49,5.82 L 5.31,5.41 Z" fill="#373a3e" stroke="none" /><path d="M 10.85,1.75 L 10.88,1.81 L 11.64,2.19 L 11.74,2.19 L 12.56,1.78 L 12.56,1.72 L 11.80,1.34 L 11.67,1.34 Z" fill="#373a3e" stroke="none" /><path d="M 14.44,1.72 L 14.44,1.78 L 15.27,2.19 L 15.36,2.19 L 16.19,1.78 L 16.19,1.72 L 15.36,1.30 L 15.27,1.30 Z" fill="#373a3e" stroke="none" /></svg>