<svg height="32" width="32" viewBox="0 0 32 32"><defs /><path d="M 7.83,27.37 L 7.75,27.37 L 6.72,27.89 L 6.72,32.00 L 7.83,31.45 Z" fill="#130f07" stroke="none" /><path d="M 19.03,24.88 L 18.95,24.88 L 17.92,25.39 L 17.92,26.38 L 18.00,26.38 L 19.03,25.87 Z" fill="#130f07" stroke="none" /><path d="M 6.72,22.43 L 6.72,23.77 L 7.83,23.22 L 7.83,22.98 L 7.79,22.94 Z" fill="#130f07" stroke="none" /><path d="M 8.94,18.31 L 7.83,18.87 L 7.83,20.25 L 8.86,19.74 L 8.94,19.78 L 8.94,21.04 L 8.86,21.12 L 7.83,21.64 L 7.83,22.98 L 10.09,21.87 L 10.09,19.14 L 10.01,19.14 L 8.98,19.66 L 8.94,19.62 Z" fill="#181007" stroke="none" /><path d="M 3.36,19.38 L 3.36,20.77 L 7.83,22.98 L 7.83,18.87 L 7.79,18.83 L 6.72,18.31 L 6.72,21.00 L 6.68,21.04 Z" fill="#1f1309" stroke="none" /><path d="M 1.11,18.27 L 1.11,19.62 L 2.22,20.17 L 2.22,18.79 L 1.19,18.27 Z" fill="#1f1309" stroke="none" /><path d="M 8.94,15.58 L 8.86,15.58 L 7.83,16.10 L 7.83,17.48 L 8.86,16.97 L 8.94,17.01 L 8.94,19.66 L 8.86,19.74 L 7.83,20.25 L 7.83,21.64 L 8.94,21.08 L 8.94,19.74 L 9.02,19.66 L 10.09,19.14 L 10.09,16.38 L 10.01,16.38 L 8.98,16.89 L 8.94,16.85 Z" fill="#1f1409" stroke="none" /><path d="M 10.09,13.65 L 10.01,13.65 L 7.83,14.75 L 7.83,16.10 L 7.91,16.10 L 8.90,15.58 L 8.94,15.62 L 8.94,16.89 L 8.86,16.97 L 7.83,17.48 L 7.83,18.87 L 8.94,18.31 L 8.94,16.97 L 9.02,16.89 L 10.09,16.38 Z" fill="#231509" stroke="none" /><path d="M 7.79,23.22 L 6.72,23.77 L 6.72,27.89 L 6.80,27.89 L 7.79,27.37 L 7.83,27.41 L 7.83,28.72 L 7.87,28.72 L 8.94,28.16 L 8.94,25.43 L 8.86,25.43 L 7.87,25.95 L 7.83,25.91 L 7.83,23.22 Z" fill="#19130b" stroke="none" /><path d="M 4.47,25.39 L 4.47,29.55 L 5.62,30.10 L 5.62,25.95 Z" fill="#1a140b" stroke="none" /><path d="M 4.47,22.67 L 4.47,24.05 L 5.62,24.60 L 5.62,23.22 L 4.55,22.67 Z" fill="#1a140b" stroke="none" /><path d="M 5.62,19.14 L 5.62,20.53 L 6.65,21.04 L 6.72,21.04 L 6.72,19.70 Z" fill="#25170b" stroke="none" /><path d="M 6.72,16.93 L 6.72,18.31 L 7.83,18.87 L 7.83,17.48 Z" fill="#25170b" stroke="none" /><path d="M 1.11,15.51 L 1.11,18.27 L 2.22,18.83 L 2.22,20.17 L 3.28,20.73 L 3.36,20.73 L 3.36,19.38 L 2.22,18.79 L 2.22,16.06 Z" fill="#25170b" stroke="none" /><path d="M 8.94,28.16 L 7.83,28.72 L 7.83,31.45 L 8.94,30.89 Z" fill="#1d160c" stroke="none" /><path d="M 20.13,24.33 L 20.05,24.33 L 19.03,24.84 L 19.03,25.83 L 19.11,25.83 L 20.13,25.32 Z" fill="#1d160c" stroke="none" /><path d="M 8.94,22.67 L 7.83,23.22 L 7.83,25.95 L 7.91,25.95 L 8.94,25.43 Z" fill="#1d160c" stroke="none" /><path d="M 4.47,24.05 L 4.47,25.39 L 5.54,25.95 L 5.62,25.95 L 5.62,24.60 L 4.55,24.05 Z" fill="#1f180c" stroke="none" /><path d="M 4.47,21.32 L 4.47,22.67 L 5.62,23.22 L 5.62,21.87 L 4.55,21.32 Z" fill="#1f180c" stroke="none" /><path d="M 2.25,20.21 L 2.25,22.94 L 3.28,23.46 L 3.36,23.46 L 3.36,20.73 L 2.33,20.21 Z" fill="#1f180c" stroke="none" /><path d="M 7.83,16.10 L 6.72,15.55 L 6.72,16.85 L 6.65,16.89 L 4.55,15.82 L 4.47,15.82 L 4.47,17.21 L 5.54,17.72 L 5.62,17.80 L 5.62,19.07 L 5.54,19.11 L 3.44,18.04 L 3.36,18.04 L 3.36,19.38 L 5.54,20.49 L 5.62,20.49 L 5.62,19.22 L 5.66,19.18 L 6.72,19.70 L 6.72,17.01 L 6.80,16.97 L 7.83,17.48 Z" fill="#281a0c" stroke="none" /><path d="M 1.11,14.12 L 1.11,15.51 L 2.22,16.06 L 2.22,14.67 Z" fill="#281a0c" stroke="none" /><path d="M 5.62,30.10 L 5.62,31.49 L 6.65,32.00 L 6.72,32.00 L 6.72,30.66 Z" fill="#21190d" stroke="none" /><path d="M 2.25,27.06 L 2.25,29.78 L 3.36,30.34 L 3.36,27.61 Z" fill="#21190d" stroke="none" /><path d="M 17.92,25.43 L 17.84,25.43 L 16.97,25.87 L 16.93,25.95 L 17.92,26.42 Z" fill="#21190d" stroke="none" /><path d="M 2.25,22.94 L 2.25,25.67 L 3.36,26.22 L 3.36,23.46 L 2.33,22.94 Z" fill="#21190d" stroke="none" /><path d="M 3.36,15.27 L 3.36,17.96 L 3.32,18.00 L 2.22,17.44 L 2.22,18.83 L 3.36,19.38 L 3.36,18.08 L 3.40,18.04 L 5.62,19.14 L 5.62,17.76 L 4.47,17.17 L 4.47,15.78 L 3.44,15.27 Z" fill="#33200f" stroke="none" /><path d="M 1.11,11.39 L 1.11,14.12 L 1.15,14.16 L 2.22,14.67 L 2.22,13.37 L 2.29,13.33 L 5.54,14.95 L 5.62,15.03 L 5.62,16.38 L 5.66,16.42 L 6.72,16.93 L 6.72,15.62 L 6.76,15.58 L 7.83,16.10 L 7.83,14.75 L 7.79,14.71 Z" fill="#33200f" stroke="none" /><path d="M 2.22,13.29 L 2.22,17.44 L 3.28,18.00 L 3.36,18.00 L 3.36,15.31 L 3.40,15.27 L 5.62,16.38 L 5.62,14.99 Z" fill="#38230f" stroke="none" /><path d="M 8.94,22.43 L 7.87,22.94 L 7.83,22.98 L 7.83,23.22 L 8.90,22.70 L 8.94,22.67 Z" fill="#231b10" stroke="none" /><path d="M 2.25,25.67 L 2.25,27.06 L 3.28,27.57 L 3.36,27.65 L 3.36,30.34 L 5.54,31.45 L 5.62,31.45 L 5.62,30.18 L 5.66,30.14 L 6.72,30.66 L 6.72,27.89 L 5.70,27.37 L 5.62,27.37 L 5.62,30.02 L 5.54,30.06 L 4.47,29.51 L 4.47,28.16 L 3.44,27.65 L 3.36,27.57 L 3.36,26.22 Z" fill="#281f13" stroke="none" /><path d="M 5.62,24.60 L 5.62,25.99 L 6.65,26.50 L 6.72,26.50 L 6.72,25.16 Z" fill="#281f13" stroke="none" /><path d="M 3.36,20.77 L 3.36,23.50 L 4.39,24.01 L 4.47,24.01 L 4.47,21.28 L 3.44,20.77 Z" fill="#281f13" stroke="none" /><path d="M 5.62,25.99 L 5.62,27.37 L 6.65,27.89 L 6.72,27.89 L 6.72,26.50 L 5.70,25.99 Z" fill="#2f2413" stroke="none" /><path d="M 3.36,23.50 L 3.36,24.84 L 4.47,25.39 L 4.47,24.01 L 3.44,23.50 Z" fill="#2f2413" stroke="none" /><path d="M 5.62,21.87 L 5.62,24.60 L 6.72,25.16 L 6.72,22.43 Z" fill="#2f2413" stroke="none" /><path d="M 5.62,12.50 L 5.62,12.54 L 6.65,13.05 L 6.61,13.13 L 5.62,13.61 L 5.62,13.65 L 6.68,14.20 L 6.76,14.20 L 7.83,13.65 L 8.98,14.20 L 10.05,13.65 L 10.05,13.61 L 9.02,13.09 L 8.90,13.09 L 7.91,13.61 L 7.79,13.61 L 6.84,13.13 L 6.80,13.09 L 6.84,13.01 L 7.83,12.54 L 7.83,12.50 L 6.80,11.99 L 6.65,11.99 Z" fill="#4e3118" stroke="none" /><path d="M 3.40,11.35 L 3.40,11.43 L 4.43,11.95 L 4.55,11.95 L 5.58,11.43 L 5.54,11.35 L 4.51,10.84 L 4.43,10.84 Z" fill="#4e3118" stroke="none" /><path d="M 1.15,11.39 L 1.15,11.43 L 5.58,13.65 L 6.68,13.09 L 6.76,13.09 L 7.71,13.57 L 7.79,13.65 L 7.75,13.69 L 6.76,14.16 L 6.76,14.24 L 7.79,14.75 L 7.87,14.75 L 8.94,14.20 L 8.94,14.16 L 7.91,13.65 L 7.99,13.57 L 8.90,13.13 L 8.94,13.05 L 7.91,12.54 L 7.75,12.54 L 6.76,13.05 L 6.68,13.05 L 5.74,12.58 L 5.70,12.50 L 6.72,11.99 L 6.72,11.95 L 5.62,11.39 L 4.47,11.95 L 3.40,11.39 L 4.43,10.88 L 4.43,10.80 L 3.40,10.28 L 3.32,10.28 Z" fill="#573518" stroke="none" /><path d="M 3.36,24.84 L 3.36,27.61 L 4.47,28.16 L 4.47,25.39 Z" fill="#382c1a" stroke="none" /><path d="M 20.17,17.44 L 19.03,18.00 L 19.03,19.38 L 20.17,18.83 Z" fill="#292929" stroke="none" /><path d="M 15.66,16.93 L 14.52,17.48 L 14.52,18.87 L 14.60,18.87 L 15.66,18.31 Z" fill="#292929" stroke="none" /><path d="M 15.66,12.82 L 15.58,12.82 L 14.52,13.37 L 14.52,14.75 L 15.66,14.20 Z" fill="#292929" stroke="none" /><path d="M 20.17,9.18 L 20.09,9.18 L 19.03,9.73 L 19.03,11.11 L 20.17,10.56 Z" fill="#292929" stroke="none" /><path d="M 15.66,23.85 L 15.58,23.85 L 14.52,24.41 L 14.52,25.75 L 14.60,25.75 L 15.66,25.20 Z" fill="#2e2e2e" stroke="none" /><path d="M 16.77,20.53 L 16.69,20.53 L 15.66,21.04 L 15.66,22.43 L 15.74,22.43 L 16.77,21.91 Z" fill="#2e2e2e" stroke="none" /><path d="M 21.28,19.66 L 21.20,19.66 L 20.17,20.17 L 20.17,22.94 L 21.28,22.39 Z" fill="#2e2e2e" stroke="none" /><path d="M 15.66,18.31 L 14.52,18.87 L 14.52,20.25 L 14.60,20.25 L 15.66,19.70 Z" fill="#2e2e2e" stroke="none" /><path d="M 20.17,14.67 L 19.03,15.23 L 19.03,18.00 L 17.92,18.55 L 17.92,22.70 L 19.03,22.15 L 19.03,18.04 L 20.17,17.44 Z" fill="#2e2e2e" stroke="none" /><path d="M 17.92,14.44 L 17.84,14.44 L 16.77,14.99 L 16.77,17.76 L 17.92,17.21 Z" fill="#2e2e2e" stroke="none" /><path d="M 15.66,14.20 L 15.58,14.20 L 14.52,14.75 L 14.52,17.48 L 14.60,17.48 L 15.66,16.93 Z" fill="#2e2e2e" stroke="none" /><path d="M 15.66,11.43 L 15.58,11.43 L 14.52,11.99 L 14.52,13.37 L 15.66,12.82 Z" fill="#2e2e2e" stroke="none" /><path d="M 20.17,10.56 L 20.09,10.56 L 19.03,11.11 L 19.03,12.50 L 20.17,11.95 Z" fill="#2e2e2e" stroke="none" /><path d="M 19.03,22.15 L 17.92,22.70 L 17.92,24.05 L 18.00,24.05 L 19.03,23.54 Z" fill="#323232" stroke="none" /><path d="M 16.77,21.91 L 16.69,21.91 L 15.66,22.43 L 15.66,25.20 L 16.77,24.64 Z" fill="#323232" stroke="none" /><path d="M 16.77,19.14 L 15.66,19.70 L 15.66,21.04 L 15.74,21.04 L 16.77,20.53 Z" fill="#323232" stroke="none" /><path d="M 20.17,18.83 L 20.09,18.83 L 19.03,19.38 L 19.03,20.77 L 20.17,20.21 Z" fill="#323232" stroke="none" /><path d="M 19.03,16.65 L 18.95,16.65 L 17.92,17.17 L 17.92,18.55 L 18.00,18.55 L 19.03,18.04 Z" fill="#323232" stroke="none" /><path d="M 19.03,9.73 L 17.92,10.28 L 17.92,13.01 L 17.84,13.09 L 16.81,13.61 L 16.77,13.57 L 16.77,12.26 L 16.69,12.26 L 15.66,12.78 L 15.66,14.16 L 15.74,14.16 L 16.73,13.65 L 16.77,13.69 L 16.77,14.95 L 16.69,15.03 L 15.66,15.55 L 15.66,16.93 L 16.77,16.38 L 16.77,15.03 L 16.85,14.95 L 17.92,14.44 L 17.92,13.09 L 18.00,13.01 L 18.95,12.54 L 19.03,12.58 L 19.03,15.23 L 19.11,15.23 L 21.28,14.12 L 21.28,12.74 L 20.21,13.25 L 20.17,13.21 L 20.17,11.95 L 20.09,11.95 L 19.11,12.46 L 19.03,12.42 Z" fill="#323232" stroke="none" /><path d="M 21.28,8.62 L 21.20,8.62 L 20.17,9.14 L 20.17,10.52 L 20.25,10.52 L 21.28,10.01 Z" fill="#323232" stroke="none" /><path d="M 21.28,14.12 L 20.17,14.67 L 20.17,20.17 L 19.03,20.77 L 19.03,23.50 L 19.11,23.50 L 20.17,22.94 L 20.17,20.21 L 21.28,19.66 Z" fill="#383838" stroke="none" /><path d="M 17.92,10.28 L 15.66,11.39 L 15.66,12.78 L 15.74,12.78 L 16.73,12.26 L 16.77,12.30 L 16.77,13.61 L 15.66,14.16 L 15.66,15.55 L 16.77,14.99 L 16.77,13.65 L 17.88,13.09 L 17.92,13.13 L 17.92,17.17 L 16.81,17.72 L 16.77,17.68 L 16.77,16.38 L 15.66,16.93 L 15.66,19.66 L 15.58,19.74 L 14.52,20.25 L 14.52,24.41 L 15.66,23.85 L 15.66,19.74 L 15.74,19.66 L 16.69,19.18 L 16.77,19.22 L 16.77,24.64 L 17.92,24.09 L 17.92,17.21 L 19.03,16.65 L 19.03,12.50 L 18.00,13.01 L 17.92,12.97 Z" fill="#383838" stroke="none" /><path d="M 21.28,10.01 L 21.20,10.01 L 20.17,10.52 L 20.17,13.29 L 21.28,12.74 Z" fill="#383838" stroke="none" /><path d="M 14.52,23.02 L 13.45,23.54 L 13.45,27.65 L 14.52,27.13 Z" fill="#3d3d3d" stroke="none" /><path d="M 20.17,22.94 L 16.81,24.60 L 16.77,24.64 L 16.77,25.99 L 20.13,24.33 L 20.17,24.29 Z" fill="#3d3d3d" stroke="none" /><path d="M 22.39,20.49 L 22.31,20.49 L 21.28,21.00 L 21.28,23.73 L 22.39,23.18 Z" fill="#3d3d3d" stroke="none" /><path d="M 14.52,18.91 L 14.44,18.91 L 13.45,19.42 L 13.45,20.81 L 14.52,20.29 Z" fill="#3d3d3d" stroke="none" /><path d="M 22.39,12.18 L 21.28,12.74 L 21.28,14.12 L 22.39,13.57 Z" fill="#3d3d3d" stroke="none" /><path d="M 14.52,10.68 L 14.44,10.68 L 13.45,11.19 L 13.45,16.65 L 14.52,16.14 Z" fill="#3d3d3d" stroke="none" /><path d="M 16.77,9.53 L 15.66,10.09 L 15.66,11.39 L 15.74,11.39 L 16.77,10.88 Z" fill="#3d3d3d" stroke="none" /><path d="M 20.17,7.83 L 19.03,8.39 L 19.03,9.73 L 20.17,9.18 Z" fill="#3d3d3d" stroke="none" /><path d="M 22.39,6.72 L 21.28,7.28 L 21.28,9.97 L 21.36,9.97 L 22.39,9.45 Z" fill="#3d3d3d" stroke="none" /><path d="M 15.66,25.20 L 14.52,25.75 L 14.52,27.10 L 14.60,27.10 L 15.66,26.54 Z" fill="#424242" stroke="none" /><path d="M 14.52,20.29 L 14.44,20.29 L 13.45,20.81 L 13.45,23.54 L 13.53,23.54 L 14.52,23.02 Z" fill="#424242" stroke="none" /><path d="M 14.52,17.52 L 14.44,17.52 L 13.45,18.04 L 13.45,19.42 L 14.52,18.91 Z" fill="#424242" stroke="none" /><path d="M 22.39,14.95 L 21.28,15.51 L 21.28,21.00 L 21.36,21.00 L 22.39,20.49 Z" fill="#424242" stroke="none" /><path d="M 22.39,9.45 L 22.31,9.45 L 21.28,9.97 L 21.28,12.74 L 22.39,12.18 Z" fill="#424242" stroke="none" /><path d="M 16.77,24.64 L 15.66,25.20 L 15.66,26.54 L 16.77,25.99 Z" fill="#474747" stroke="none" /><path d="M 21.28,22.39 L 20.17,22.94 L 20.17,24.29 L 21.28,23.73 Z" fill="#474747" stroke="none" /><path d="M 14.52,16.14 L 14.44,16.14 L 13.45,16.65 L 13.45,18.04 L 14.52,17.52 Z" fill="#474747" stroke="none" /><path d="M 22.39,13.57 L 21.28,14.12 L 21.28,15.51 L 22.39,14.95 Z" fill="#474747" stroke="none" /><path d="M 15.66,10.09 L 14.52,10.64 L 14.52,11.99 L 15.66,11.43 Z" fill="#474747" stroke="none" /><path d="M 19.03,8.43 L 18.95,8.43 L 16.77,9.53 L 16.77,10.84 L 16.85,10.84 L 19.03,9.73 Z" fill="#474747" stroke="none" /><path d="M 21.28,7.28 L 20.17,7.83 L 20.17,9.14 L 20.25,9.14 L 21.28,8.62 Z" fill="#474747" stroke="none" /><path d="M 11.23,23.85 L 11.23,25.24 L 12.26,25.75 L 12.34,25.75 L 12.34,24.37 L 11.31,23.85 Z" fill="#4a4a4a" stroke="none" /><path d="M 8.94,22.43 L 8.94,22.70 L 8.98,22.70 L 8.98,22.43 Z" fill="#4a4a4a" stroke="none" /><path d="M 2.22,20.17 L 2.22,20.73 L 2.25,20.73 L 2.25,20.17 Z" fill="#4a4a4a" stroke="none" /><path d="M 10.09,14.99 L 10.09,17.76 L 11.23,18.35 L 11.23,22.47 L 12.34,23.02 L 12.34,18.87 L 11.23,18.31 L 11.23,15.55 Z" fill="#4a4a4a" stroke="none" /><path d="M 9.02,13.09 L 9.02,13.13 L 10.09,13.65 L 10.09,13.61 Z" fill="#4a4a4a" stroke="none" /><path d="M 8.98,10.32 L 8.98,11.71 L 11.15,12.78 L 11.23,12.86 L 11.23,14.20 L 12.34,14.75 L 12.34,13.37 L 11.31,12.86 L 11.23,12.78 L 11.23,11.43 L 9.06,10.32 Z" fill="#4a4a4a" stroke="none" /><path d="M 3.40,10.28 L 3.40,10.32 L 4.43,10.84 L 4.51,10.84 L 5.50,11.35 L 5.58,11.35 L 5.58,9.97 L 4.55,9.45 L 4.47,9.45 L 4.47,10.76 L 4.43,10.80 Z" fill="#4a4a4a" stroke="none" /><path d="M 1.11,7.75 L 1.11,10.52 L 1.98,10.96 L 2.06,10.96 L 2.22,10.88 L 2.22,8.31 Z" fill="#4a4a4a" stroke="none" /><path d="M 8.98,22.39 L 8.98,22.67 L 8.94,22.70 L 8.94,24.09 L 8.98,24.09 L 8.98,22.78 L 9.06,22.74 L 10.01,23.22 L 10.09,23.30 L 10.09,24.64 L 11.15,25.20 L 11.23,25.20 L 11.23,23.89 L 11.27,23.85 L 12.26,24.37 L 12.34,24.37 L 12.34,23.02 L 12.30,22.98 L 11.23,22.47 L 11.23,23.77 L 11.19,23.81 L 10.17,23.30 L 10.09,23.22 L 10.09,21.87 L 10.01,21.87 Z" fill="#515151" stroke="none" /><path d="M 1.11,19.62 L 1.11,20.17 L 2.14,20.69 L 2.22,20.69 L 2.22,20.17 L 2.18,20.13 Z" fill="#515151" stroke="none" /><path d="M 10.09,17.76 L 10.09,19.14 L 11.23,19.70 L 11.23,18.31 Z" fill="#515151" stroke="none" /><path d="M 10.09,13.65 L 10.09,14.99 L 11.15,15.55 L 11.23,15.55 L 11.23,14.20 L 10.17,13.65 Z" fill="#515151" stroke="none" /><path d="M 11.23,11.43 L 11.23,12.82 L 12.34,13.37 L 12.34,11.99 Z" fill="#515151" stroke="none" /><path d="M 5.58,10.01 L 5.58,11.39 L 8.98,13.09 L 8.98,13.05 L 7.91,12.54 L 7.83,12.46 L 7.83,11.19 L 7.87,11.15 L 8.90,11.67 L 8.98,11.67 L 8.98,10.28 L 6.76,9.18 L 6.72,9.18 L 6.72,10.48 L 6.68,10.52 L 5.66,10.01 Z" fill="#515151" stroke="none" /><path d="M 1.11,6.37 L 1.11,7.75 L 3.32,8.86 L 3.36,8.90 L 3.36,10.28 L 4.39,10.80 L 4.47,10.80 L 4.47,9.41 L 3.36,8.86 L 3.36,7.48 Z" fill="#515151" stroke="none" /><path d="M 10.17,19.14 L 10.09,19.14 L 10.09,23.18 L 10.01,23.22 L 8.98,22.70 L 8.98,24.09 L 10.05,24.64 L 10.09,24.64 L 10.09,23.34 L 10.13,23.30 L 11.15,23.81 L 11.23,23.81 L 11.23,19.70 Z" fill="#5c5c5c" stroke="none" /><path d="M 7.83,11.11 L 7.83,12.50 L 7.87,12.54 L 11.15,14.16 L 11.23,14.24 L 11.23,18.35 L 12.26,18.87 L 12.34,18.87 L 12.34,14.75 L 11.31,14.24 L 11.23,14.16 L 11.23,12.82 Z" fill="#5c5c5c" stroke="none" /><path d="M 4.51,10.84 L 4.51,10.88 L 6.68,11.95 L 6.68,11.91 Z" fill="#5c5c5c" stroke="none" /><path d="M 1.11,10.52 L 1.11,11.39 L 1.19,11.39 L 1.98,11.00 L 1.98,10.92 L 1.19,10.52 Z" fill="#5c5c5c" stroke="none" /><path d="M 2.22,8.31 L 2.22,10.84 L 2.29,10.84 L 3.36,10.28 L 3.36,8.94 L 3.40,8.90 L 6.72,10.56 L 6.72,9.18 L 6.68,9.14 L 3.44,7.52 L 3.36,7.52 L 3.36,8.82 L 3.32,8.86 Z" fill="#5c5c5c" stroke="none" /><path d="M 8.98,24.09 L 8.98,25.43 L 11.23,26.54 L 11.23,25.20 Z" fill="#636363" stroke="none" /><path d="M 12.34,16.14 L 12.34,20.25 L 13.45,20.81 L 13.45,16.65 L 12.42,16.14 Z" fill="#636363" stroke="none" /><path d="M 0.00,15.47 L 0.00,19.62 L 1.03,20.13 L 1.11,20.13 L 1.11,16.02 Z" fill="#636363" stroke="none" /><path d="M 0.00,12.74 L 0.00,14.08 L 1.11,14.64 L 1.11,13.25 L 0.08,12.74 Z" fill="#636363" stroke="none" /><path d="M 8.98,8.98 L 8.98,10.32 L 12.34,11.99 L 12.34,10.64 Z" fill="#636363" stroke="none" /><path d="M 13.45,8.98 L 13.45,9.02 L 14.48,9.53 L 14.64,9.53 L 15.66,9.02 L 15.62,8.94 L 14.60,8.43 L 14.52,8.43 Z" fill="#676767" stroke="none" /><path d="M 16.85,6.13 L 16.85,6.21 L 17.88,6.72 L 18.00,6.72 L 19.03,6.21 L 19.03,6.13 L 18.00,5.62 L 17.88,5.62 Z" fill="#676767" stroke="none" /><path d="M 6.72,5.58 L 6.72,5.66 L 7.75,6.17 L 7.87,6.17 L 8.90,5.66 L 8.90,5.58 L 7.87,5.06 L 7.75,5.06 Z" fill="#676767" stroke="none" /><path d="M 13.45,4.47 L 13.45,4.51 L 14.56,5.06 L 15.70,4.51 L 15.70,4.47 L 14.60,3.92 Z" fill="#676767" stroke="none" /><path d="M 11.23,25.24 L 11.23,26.54 L 13.45,27.65 L 13.45,26.30 L 11.31,25.24 Z" fill="#6b6b6b" stroke="none" /><path d="M 12.34,21.64 L 12.34,24.41 L 13.37,24.92 L 13.45,24.92 L 13.45,22.19 Z" fill="#6b6b6b" stroke="none" /><path d="M 0.00,19.62 L 0.00,20.92 L 2.22,22.03 L 2.22,20.69 L 0.08,19.62 Z" fill="#6b6b6b" stroke="none" /><path d="M 0.00,14.08 L 0.00,15.47 L 1.11,16.02 L 1.11,14.64 Z" fill="#6b6b6b" stroke="none" /><path d="M 6.72,7.87 L 6.72,9.18 L 8.90,10.28 L 8.98,10.28 L 8.98,8.98 L 6.80,7.87 Z" fill="#6b6b6b" stroke="none" /><path d="M 2.22,5.62 L 2.22,6.92 L 4.39,8.03 L 4.47,8.03 L 4.47,6.72 L 2.29,5.62 Z" fill="#6b6b6b" stroke="none" /><path d="M 0.00,4.51 L 0.00,11.35 L 1.03,11.87 L 1.11,11.87 L 1.11,5.02 L 0.08,4.51 Z" fill="#6b6b6b" stroke="none" /><path d="M 12.34,24.41 L 12.34,25.79 L 13.37,26.30 L 13.45,26.30 L 13.45,24.92 L 12.42,24.41 Z" fill="#737373" stroke="none" /><path d="M 8.94,24.09 L 8.94,25.39 L 8.98,25.39 L 8.98,24.09 Z" fill="#737373" stroke="none" /><path d="M 2.22,20.73 L 2.22,22.03 L 2.25,22.03 L 2.25,20.73 Z" fill="#737373" stroke="none" /><path d="M 12.34,20.25 L 12.34,21.64 L 13.45,22.19 L 13.45,20.81 Z" fill="#737373" stroke="none" /><path d="M 0.00,11.35 L 0.00,12.74 L 1.03,13.25 L 1.11,13.25 L 1.11,11.87 L 0.08,11.35 Z" fill="#737373" stroke="none" /><path d="M 12.34,10.68 L 12.34,16.14 L 13.37,16.65 L 13.45,16.65 L 13.45,11.19 L 12.42,10.68 Z" fill="#737373" stroke="none" /><path d="M 12.34,8.39 L 12.34,8.46 L 13.37,8.98 L 13.49,8.98 L 14.52,8.46 L 14.52,8.39 L 13.49,7.87 L 13.37,7.87 Z" fill="#737373" stroke="none" /><path d="M 4.47,6.72 L 4.47,8.07 L 6.72,9.18 L 6.72,7.83 Z" fill="#737373" stroke="none" /><path d="M 17.96,6.72 L 17.96,6.76 L 18.99,7.28 L 19.14,7.28 L 20.17,6.76 L 20.13,6.68 L 19.11,6.17 L 19.03,6.17 Z" fill="#737373" stroke="none" /><path d="M 11.23,5.58 L 11.23,5.66 L 13.37,6.72 L 13.53,6.72 L 14.56,6.21 L 14.52,6.13 L 12.38,5.06 L 12.26,5.06 Z" fill="#737373" stroke="none" /><path d="M 1.11,5.06 L 1.11,6.37 L 2.22,6.92 L 2.22,5.58 L 1.19,5.06 Z" fill="#737373" stroke="none" /><path d="M 14.60,5.02 L 14.64,5.10 L 16.77,6.17 L 16.85,6.17 L 17.92,5.62 L 17.92,5.58 L 15.78,4.51 L 15.62,4.51 Z" fill="#737373" stroke="none" /><path d="M 2.22,4.47 L 2.22,4.51 L 4.43,5.62 L 5.54,5.06 L 5.54,5.02 L 3.32,3.92 Z" fill="#737373" stroke="none" /><path d="M 12.34,3.92 L 12.34,3.96 L 13.37,4.47 L 13.53,4.47 L 14.56,3.96 L 14.52,3.88 L 13.49,3.36 L 13.41,3.36 Z" fill="#737373" stroke="none" /><path d="M 5.58,3.92 L 5.58,3.96 L 8.90,5.62 L 7.87,6.13 L 7.83,6.21 L 10.05,7.32 L 11.19,6.76 L 11.19,6.72 L 8.98,5.62 L 10.01,5.10 L 10.05,5.02 L 6.72,3.36 L 6.65,3.36 Z" fill="#737373" stroke="none" /><path d="M 8.98,3.32 L 8.98,3.40 L 10.01,3.92 L 10.13,3.92 L 11.15,3.40 L 11.15,3.32 L 10.13,2.81 L 10.01,2.81 Z" fill="#737373" stroke="none" /><path d="M 7.83,1.66 L 7.83,1.70 L 8.86,2.22 L 9.02,2.22 L 10.05,1.70 L 10.01,1.62 L 8.98,1.11 L 8.90,1.11 Z" fill="#737373" stroke="none" /><path d="M 12.34,9.53 L 12.34,9.57 L 13.37,10.09 L 13.53,10.09 L 14.56,9.57 L 14.56,9.53 L 13.45,8.98 Z" fill="#7d7d7d" stroke="none" /><path d="M 17.92,6.72 L 16.85,6.17 L 16.77,6.17 L 15.66,6.72 L 14.71,6.25 L 14.64,6.17 L 15.66,5.66 L 15.66,5.58 L 14.64,5.06 L 14.52,5.06 L 13.49,5.58 L 13.49,5.66 L 14.52,6.17 L 14.44,6.25 L 13.45,6.72 L 13.45,6.76 L 14.44,7.24 L 14.48,7.28 L 14.44,7.36 L 13.49,7.83 L 13.37,7.83 L 11.27,6.76 L 11.11,6.76 L 8.98,7.83 L 8.98,7.87 L 10.05,8.43 L 10.13,8.43 L 11.19,7.87 L 12.26,8.43 L 12.34,8.43 L 13.45,7.87 L 15.62,8.98 L 15.74,8.98 L 16.77,8.46 L 16.77,8.39 L 14.67,7.36 L 14.64,7.28 L 15.62,6.76 L 15.74,6.76 L 16.73,7.28 L 16.89,7.28 L 17.92,6.76 Z" fill="#7d7d7d" stroke="none" /><path d="M 8.98,5.58 L 8.98,5.66 L 10.01,6.17 L 10.13,6.17 L 11.15,5.66 L 11.15,5.58 L 10.13,5.06 L 10.01,5.06 Z" fill="#7d7d7d" stroke="none" /><path d="M 5.58,5.02 L 5.62,5.10 L 6.65,5.62 L 6.72,5.62 L 7.79,5.06 L 7.79,5.02 L 6.76,4.51 L 6.61,4.51 Z" fill="#7d7d7d" stroke="none" /><path d="M 10.09,3.92 L 10.09,3.96 L 11.11,4.47 L 11.27,4.47 L 12.30,3.96 L 12.26,3.88 L 11.23,3.36 L 11.15,3.36 Z" fill="#7d7d7d" stroke="none" /><path d="M 4.47,3.32 L 4.47,3.40 L 5.50,3.92 L 5.62,3.92 L 6.65,3.40 L 6.65,3.32 L 5.62,2.81 L 5.50,2.81 Z" fill="#7d7d7d" stroke="none" /><path d="M 6.68,2.22 L 6.68,2.25 L 8.90,3.36 L 8.98,3.36 L 10.05,2.81 L 10.05,2.77 L 7.83,1.66 Z" fill="#7d7d7d" stroke="none" /><path d="M 10.13,8.39 L 10.13,8.46 L 12.26,9.53 L 12.38,9.53 L 13.41,9.02 L 13.37,8.94 L 11.23,7.87 L 11.15,7.87 Z" fill="#8d8d8d" stroke="none" /><path d="M 3.32,3.92 L 3.32,3.96 L 5.42,4.98 L 5.50,5.06 L 4.47,5.58 L 4.51,5.66 L 8.94,7.87 L 10.05,7.32 L 10.05,7.28 L 5.66,5.10 L 5.62,5.06 L 5.70,4.98 L 6.68,4.51 L 6.68,4.47 L 4.47,3.36 L 4.39,3.36 Z" fill="#8d8d8d" stroke="none" /><path d="M 5.58,2.77 L 5.62,2.85 L 11.11,5.58 L 11.15,5.62 L 11.11,5.66 L 10.13,6.13 L 10.09,6.21 L 13.41,7.87 L 14.52,7.32 L 14.60,7.32 L 16.77,8.43 L 16.85,8.43 L 19.07,7.32 L 19.07,7.28 L 17.96,6.72 L 16.85,7.28 L 16.77,7.28 L 15.82,6.80 L 15.74,6.72 L 15.78,6.68 L 16.77,6.21 L 16.77,6.13 L 15.74,5.62 L 15.66,5.62 L 14.60,6.17 L 14.60,6.21 L 15.62,6.72 L 15.55,6.80 L 14.60,7.28 L 14.52,7.28 L 11.27,5.66 L 11.23,5.62 L 11.27,5.58 L 12.30,5.06 L 13.41,5.62 L 13.49,5.62 L 14.52,5.10 L 14.56,5.02 L 12.46,4.00 L 12.38,3.92 L 13.41,3.40 L 13.41,3.32 L 10.09,1.66 L 8.94,2.22 L 8.94,2.25 L 12.22,3.88 L 12.26,3.92 L 12.18,4.00 L 11.23,4.47 L 11.15,4.47 L 6.76,2.25 L 6.61,2.25 Z" fill="#8d8d8d" stroke="none" /><path d="M 11.23,10.09 L 11.23,10.13 L 13.37,11.19 L 13.49,11.19 L 14.52,10.68 L 14.48,10.60 L 12.34,9.53 Z" fill="#989898" stroke="none" /><path d="M 16.73,9.49 L 15.66,8.98 L 14.56,9.53 L 14.56,9.57 L 15.58,10.09 L 15.70,10.09 L 16.73,9.57 Z" fill="#989898" stroke="none" /><path d="M 7.87,8.39 L 7.91,8.46 L 8.94,8.98 L 9.02,8.98 L 10.05,8.46 L 10.05,8.39 L 9.02,7.87 L 8.90,7.87 Z" fill="#989898" stroke="none" /><path d="M 17.96,7.83 L 18.00,7.91 L 18.95,8.39 L 19.11,8.39 L 20.13,7.87 L 20.09,7.79 L 19.14,7.32 L 18.99,7.32 Z" fill="#989898" stroke="none" /><path d="M 16.85,5.02 L 16.89,5.10 L 21.24,7.28 L 21.32,7.28 L 22.35,6.76 L 22.35,6.68 L 18.00,4.51 L 17.88,4.51 Z" fill="#989898" stroke="none" /><path d="M 0.00,4.47 L 0.00,4.51 L 2.14,5.58 L 2.29,5.58 L 3.32,5.06 L 3.32,5.02 L 1.19,3.96 L 1.03,3.96 Z" fill="#989898" stroke="none" /><path d="M 13.49,3.32 L 13.49,3.40 L 14.52,3.92 L 14.64,3.92 L 15.66,3.40 L 15.62,3.32 L 14.60,2.81 L 14.52,2.81 Z" fill="#989898" stroke="none" /><path d="M 6.68,2.22 L 5.66,1.70 L 5.54,1.70 L 2.22,3.36 L 2.22,3.40 L 3.24,3.92 L 3.36,3.92 L 6.68,2.25 Z" fill="#989898" stroke="none" /><path d="M 7.87,0.55 L 7.87,0.59 L 11.11,2.22 L 11.27,2.22 L 12.30,1.70 L 12.30,1.66 L 8.98,0.00 Z" fill="#989898" stroke="none" /><path d="M 9.02,8.94 L 9.02,9.02 L 11.15,10.09 L 11.27,10.09 L 12.30,9.57 L 12.26,9.49 L 10.13,8.43 L 10.05,8.43 Z" fill="#a5a5a5" stroke="none" /><path d="M 2.22,5.58 L 2.22,5.62 L 6.65,7.83 L 6.80,7.83 L 7.83,7.32 L 7.83,7.28 L 3.40,5.06 L 3.24,5.06 Z" fill="#a5a5a5" stroke="none" /><path d="M 14.60,3.92 L 14.60,3.96 L 15.62,4.47 L 15.78,4.47 L 16.81,3.96 L 16.81,3.92 L 15.70,3.36 Z" fill="#a5a5a5" stroke="none" /><path d="M 11.19,2.22 L 11.19,2.25 L 13.41,3.36 L 13.49,3.36 L 14.52,2.85 L 14.52,2.77 L 12.38,1.70 L 12.22,1.70 Z" fill="#a5a5a5" stroke="none" /><path d="M 8.90,1.07 L 7.83,0.55 L 6.72,1.11 L 6.72,1.15 L 7.75,1.66 L 7.87,1.66 L 8.90,1.15 Z" fill="#a5a5a5" stroke="none" /><path d="M 13.45,10.09 L 13.45,10.13 L 14.48,10.64 L 14.60,10.64 L 15.62,10.13 L 15.58,10.05 L 14.64,9.57 L 14.48,9.57 Z" fill="#b2b2b2" stroke="none" /><path d="M 19.03,8.39 L 18.00,7.87 L 17.88,7.87 L 15.74,8.94 L 15.70,9.02 L 16.73,9.53 L 16.81,9.53 L 19.03,8.43 Z" fill="#b2b2b2" stroke="none" /><path d="M 6.72,7.83 L 6.72,7.87 L 7.83,8.43 L 8.94,7.87 L 8.94,7.83 L 7.91,7.32 L 7.75,7.32 Z" fill="#b2b2b2" stroke="none" /><path d="M 21.24,7.24 L 20.17,6.72 L 19.07,7.28 L 19.07,7.32 L 20.09,7.83 L 20.21,7.83 L 21.24,7.32 Z" fill="#b2b2b2" stroke="none" /><path d="M 15.70,4.47 L 15.70,4.51 L 16.81,5.06 L 17.92,4.51 L 17.92,4.47 L 16.89,3.96 L 16.73,3.96 Z" fill="#b2b2b2" stroke="none" /><path d="M 1.11,3.92 L 1.11,3.96 L 2.14,4.47 L 2.25,4.47 L 3.28,3.96 L 3.24,3.88 L 2.29,3.40 L 2.14,3.40 Z" fill="#b2b2b2" stroke="none" /><path d="M 5.62,1.66 L 5.66,1.74 L 6.61,2.22 L 6.76,2.22 L 7.79,1.70 L 7.75,1.62 L 6.80,1.15 L 6.65,1.15 Z" fill="#b2b2b2" stroke="none" /></svg>