<svg height="32" width="32" viewBox="0 0 32 32"><defs /><path d="M 25.13,11.43 L 25.05,11.43 L 22.87,12.53 L 22.87,13.94 L 25.13,12.81 Z" fill="#494949" stroke="none" /><path d="M 32.00,8.00 L 31.92,8.00 L 26.34,10.79 L 26.30,10.83 L 26.30,12.20 L 26.38,12.20 L 31.96,9.41 L 32.00,9.37 Z" fill="#494949" stroke="none" /><path d="M 22.87,12.57 L 22.79,12.57 L 16.00,15.96 L 16.00,17.37 L 22.83,13.98 L 22.87,13.94 Z" fill="#4c4c4c" stroke="none" /><path d="M 26.30,10.83 L 25.13,11.39 L 25.13,12.81 L 26.30,12.24 Z" fill="#4c4c4c" stroke="none" /><path d="M 10.30,13.13 L 10.30,14.55 L 16.00,17.37 L 16.00,15.96 Z" fill="#777777" stroke="none" /><path d="M 6.87,11.43 L 6.87,12.81 L 9.13,13.94 L 9.13,12.53 L 6.95,11.43 Z" fill="#777777" stroke="none" /><path d="M 9.13,12.57 L 9.13,13.94 L 10.22,14.51 L 10.30,14.51 L 10.30,13.13 L 9.21,12.57 Z" fill="#7c7c7c" stroke="none" /><path d="M 0.00,8.00 L 0.00,9.37 L 0.04,9.41 L 6.87,12.81 L 6.87,11.39 L 0.08,8.00 Z" fill="#7c7c7c" stroke="none" /><path d="M 18.26,12.57 L 17.13,12.00 L 12.61,14.26 L 12.61,14.30 L 13.66,14.83 L 13.82,14.83 L 18.26,12.61 Z" fill="#d3d3d3" stroke="none" /><path d="M 16.00,10.26 L 14.83,9.70 L 9.17,12.53 L 9.17,12.57 L 10.26,13.13 L 10.34,13.13 L 16.00,10.30 Z" fill="#d3d3d3" stroke="none" /><path d="M 10.22,9.70 L 9.13,9.13 L 9.05,9.13 L 5.74,10.79 L 5.74,10.87 L 6.79,11.39 L 6.91,11.39 L 10.22,9.74 Z" fill="#d3d3d3" stroke="none" /><path d="M 7.92,7.39 L 6.83,6.83 L 6.75,6.83 L 2.30,9.05 L 2.26,9.13 L 3.31,9.66 L 3.47,9.66 L 7.92,7.43 Z" fill="#d3d3d3" stroke="none" /><path d="M 29.74,6.83 L 28.69,6.30 L 28.53,6.30 L 20.61,10.26 L 20.61,10.30 L 21.66,10.83 L 21.82,10.83 L 29.74,6.87 Z" fill="#d9d9d9" stroke="none" /><path d="M 26.26,5.09 L 25.21,4.57 L 25.09,4.57 L 19.52,7.35 L 19.47,7.43 L 20.53,7.96 L 20.69,7.96 L 26.26,5.17 Z" fill="#d9d9d9" stroke="none" /><path d="M 22.83,3.39 L 21.74,2.83 L 21.66,2.83 L 12.61,7.35 L 12.57,7.43 L 13.62,7.96 L 13.78,7.96 L 22.83,3.43 Z" fill="#d9d9d9" stroke="none" /><path d="M 19.39,1.66 L 18.22,1.09 L 11.43,4.48 L 11.43,4.57 L 12.48,5.09 L 12.61,5.09 L 19.39,1.70 Z" fill="#d9d9d9" stroke="none" /><path d="M 21.74,10.83 L 20.69,10.30 L 20.53,10.30 L 17.21,11.96 L 17.17,12.04 L 18.22,12.57 L 18.34,12.57 L 21.74,10.87 Z" fill="#dddddd" stroke="none" /><path d="M 20.61,7.96 L 19.43,7.39 L 14.91,9.66 L 14.87,9.74 L 15.92,10.26 L 16.08,10.26 L 20.61,8.00 Z" fill="#dddddd" stroke="none" /><path d="M 13.70,7.96 L 12.53,7.39 L 9.13,9.09 L 9.13,9.17 L 10.18,9.70 L 10.30,9.70 L 13.70,8.00 Z" fill="#dddddd" stroke="none" /><path d="M 12.53,5.09 L 11.43,4.53 L 11.35,4.53 L 6.83,6.79 L 6.83,6.87 L 7.88,7.39 L 8.00,7.39 L 12.53,5.13 Z" fill="#dddddd" stroke="none" /><path d="M 30.87,7.39 L 29.82,6.87 L 29.66,6.87 L 13.74,14.83 L 13.74,14.87 L 15.92,15.96 L 16.08,15.96 L 21.66,13.17 L 21.66,13.09 L 20.73,12.65 L 20.65,12.57 L 20.69,12.53 L 30.83,7.47 Z" fill="#e3e3e3" stroke="none" /><path d="M 27.43,5.70 L 26.34,5.13 L 26.26,5.13 L 10.34,13.09 L 10.34,13.17 L 12.53,14.26 L 12.69,14.26 L 18.26,11.47 L 18.26,11.39 L 17.25,10.91 L 17.21,10.87 L 17.29,10.79 L 27.43,5.74 Z" fill="#e3e3e3" stroke="none" /><path d="M 24.00,3.96 L 22.83,3.39 L 6.91,11.35 L 6.87,11.43 L 9.17,12.57 L 17.09,8.61 L 17.13,8.53 L 16.12,8.04 L 16.08,8.00 L 16.12,7.92 L 24.00,4.00 Z" fill="#e3e3e3" stroke="none" /><path d="M 20.53,2.22 L 19.47,1.70 L 19.31,1.70 L 3.39,9.66 L 3.39,9.70 L 5.66,10.83 L 5.74,10.83 L 10.18,8.61 L 10.22,8.53 L 9.21,8.04 L 9.17,8.00 L 9.21,7.92 L 20.48,2.30 Z" fill="#e3e3e3" stroke="none" /><path d="M 17.09,0.53 L 16.08,0.00 L 15.92,0.00 L 0.00,7.96 L 0.00,8.00 L 2.18,9.09 L 2.30,9.09 L 9.09,5.70 L 9.09,5.66 L 8.08,5.17 L 8.04,5.13 L 8.08,5.05 L 17.09,0.57 Z" fill="#e3e3e3" stroke="none" /><path d="M 20.61,12.61 L 21.66,13.13 L 21.74,13.13 L 22.79,12.61 L 22.83,12.53 L 21.78,12.00 L 21.70,12.00 L 20.65,12.53 Z" fill="#e7e7e7" stroke="none" /><path d="M 26.26,10.79 L 25.17,10.26 L 21.78,11.96 L 21.78,12.04 L 22.87,12.57 L 26.26,10.87 Z" fill="#e9e9e9" stroke="none" /><path d="M 21.74,9.70 L 20.65,9.13 L 20.57,9.13 L 17.17,10.83 L 17.17,10.87 L 18.26,11.43 L 18.34,11.43 L 21.74,9.74 Z" fill="#e9e9e9" stroke="none" /><path d="M 14.83,6.22 L 13.78,5.70 L 13.62,5.70 L 9.09,7.96 L 9.09,8.00 L 10.26,8.57 L 14.79,6.30 Z" fill="#e9e9e9" stroke="none" /><path d="M 22.91,5.66 L 21.74,5.09 L 16.00,7.96 L 16.00,8.00 L 17.17,8.57 L 22.91,5.70 Z" fill="#e9e9e9" stroke="none" /><path d="M 13.70,3.35 L 12.65,2.83 L 12.48,2.83 L 7.96,5.09 L 7.96,5.13 L 9.01,5.66 L 9.17,5.66 L 13.70,3.39 Z" fill="#e9e9e9" stroke="none" /><path d="M 32.00,7.96 L 30.95,7.43 L 30.83,7.43 L 25.25,10.22 L 25.21,10.30 L 26.26,10.83 L 26.34,10.83 L 32.00,8.00 Z" fill="#efefef" stroke="none" /><path d="M 28.61,6.26 L 27.43,5.70 L 20.65,9.09 L 20.65,9.17 L 21.70,9.70 L 21.82,9.70 L 28.61,6.30 Z" fill="#efefef" stroke="none" /><path d="M 25.13,4.53 L 24.08,4.00 L 23.92,4.00 L 21.82,5.05 L 21.78,5.13 L 22.83,5.66 L 22.99,5.66 L 25.09,4.61 Z" fill="#efefef" stroke="none" /><path d="M 21.66,2.79 L 20.61,2.26 L 20.48,2.26 L 13.70,5.66 L 13.70,5.70 L 14.87,6.26 L 21.66,2.87 Z" fill="#efefef" stroke="none" /><path d="M 18.22,1.09 L 17.09,0.53 L 12.57,2.79 L 12.57,2.83 L 13.62,3.35 L 13.78,3.35 L 18.22,1.13 Z" fill="#efefef" stroke="none" /></svg>