<svg height="32" width="32" viewBox="0 0 32 32"><defs /><path d="M 15.27,29.42 L 14.41,29.84 L 14.41,32.00 L 14.47,32.00 L 16.19,31.14 L 16.19,30.06 L 15.30,30.50 L 15.27,30.47 Z" fill="#552f01" stroke="none" /><path d="M 19.79,27.17 L 18.89,27.61 L 18.89,28.69 L 18.96,28.69 L 19.79,28.28 Z" fill="#552f01" stroke="none" /><path d="M 22.49,24.68 L 20.71,25.57 L 20.71,26.69 L 20.77,26.69 L 22.49,25.83 L 22.52,25.86 L 22.52,27.96 L 22.55,27.96 L 23.41,27.51 L 23.41,25.35 L 22.55,25.77 L 22.52,25.73 L 22.52,24.68 Z" fill="#552f01" stroke="none" /><path d="M 19.79,23.86 L 19.72,23.86 L 18.93,24.27 L 18.89,24.24 L 18.89,23.19 L 18.83,23.19 L 18.00,23.60 L 17.97,23.63 L 17.97,24.72 L 17.91,24.78 L 17.08,25.19 L 17.08,26.27 L 16.22,26.72 L 16.19,26.69 L 16.19,25.64 L 15.27,26.08 L 15.27,27.20 L 16.16,26.75 L 16.19,26.78 L 16.19,27.83 L 16.25,27.83 L 18.86,26.53 L 18.89,26.50 L 18.89,25.42 L 18.96,25.35 L 19.79,24.94 Z" fill="#552f01" stroke="none" /><path d="M 17.08,22.97 L 16.19,23.41 L 16.19,24.52 L 17.08,24.08 Z" fill="#552f01" stroke="none" /><path d="M 16.19,21.22 L 16.13,21.22 L 15.27,21.66 L 15.27,22.74 L 15.20,22.81 L 14.41,23.19 L 14.41,24.30 L 15.27,23.89 L 15.27,22.81 L 15.33,22.74 L 16.19,22.33 Z" fill="#552f01" stroke="none" /><path d="M 24.33,20.45 L 23.41,20.90 L 23.41,22.01 L 22.52,22.46 L 22.52,23.57 L 23.41,23.13 L 23.41,22.04 L 24.33,21.57 Z" fill="#552f01" stroke="none" /><path d="M 27.04,20.23 L 26.97,20.23 L 26.15,20.64 L 26.15,21.73 L 26.08,21.79 L 25.22,22.20 L 25.22,23.32 L 25.29,23.32 L 26.15,22.87 L 26.15,21.79 L 26.21,21.73 L 27.04,21.31 Z" fill="#552f01" stroke="none" /><path d="M 23.41,17.59 L 22.52,18.04 L 22.52,19.12 L 22.46,19.18 L 21.60,19.59 L 21.60,20.71 L 22.52,20.26 L 22.52,19.18 L 22.58,19.12 L 23.41,18.70 Z" fill="#552f01" stroke="none" /><path d="M 21.60,16.29 L 21.53,16.29 L 20.71,16.70 L 20.71,17.81 L 19.79,18.29 L 19.79,19.37 L 19.72,19.44 L 18.89,19.85 L 18.89,20.96 L 19.75,20.55 L 19.79,20.58 L 19.79,21.60 L 19.85,21.60 L 20.71,21.15 L 20.71,20.07 L 20.64,20.07 L 19.82,20.49 L 19.79,20.45 L 19.79,19.44 L 19.85,19.37 L 20.71,18.96 L 20.71,17.84 L 21.60,17.40 Z" fill="#552f01" stroke="none" /><path d="M 19.79,14.98 L 19.72,14.98 L 18.89,15.40 L 18.89,16.51 L 17.97,16.99 L 17.97,18.07 L 18.04,18.07 L 18.89,17.62 L 18.89,16.54 L 19.79,16.10 Z" fill="#552f01" stroke="none" /><path d="M 15.27,13.96 L 15.20,13.96 L 14.41,14.38 L 14.41,15.43 L 14.47,15.43 L 15.27,15.01 Z" fill="#552f01" stroke="none" /><path d="M 26.15,11.80 L 26.08,11.80 L 25.22,12.25 L 25.22,13.33 L 25.16,13.39 L 23.41,14.25 L 23.41,15.36 L 25.22,14.47 L 25.22,13.39 L 25.29,13.33 L 26.15,12.91 Z" fill="#552f01" stroke="none" /><path d="M 22.52,10.34 L 22.46,10.34 L 21.60,10.78 L 21.60,11.83 L 21.66,11.83 L 22.52,11.39 Z" fill="#552f01" stroke="none" /><path d="M 28.82,7.19 L 28.76,7.19 L 27.93,7.60 L 27.93,8.68 L 28.82,8.24 Z" fill="#552f01" stroke="none" /><path d="M 11.77,25.19 L 11.74,25.19 L 11.74,26.24 L 11.71,26.27 L 10.91,25.86 L 10.85,25.86 L 10.85,26.97 L 11.67,27.39 L 11.74,27.39 L 11.74,26.34 L 11.77,26.31 L 12.56,26.72 L 12.63,26.72 L 12.63,25.64 Z" fill="#8b4d02" stroke="none" /><path d="M 4.49,24.91 L 4.49,25.99 L 5.34,26.43 L 5.41,26.43 L 5.41,25.35 L 4.55,24.91 Z" fill="#8b4d02" stroke="none" /><path d="M 6.30,24.68 L 6.30,25.80 L 8.11,26.72 L 8.11,28.88 L 9.03,29.33 L 9.03,27.17 L 8.11,26.69 L 8.11,25.57 Z" fill="#8b4d02" stroke="none" /><path d="M 9.10,22.74 L 9.03,22.74 L 9.03,23.79 L 9.00,23.83 L 8.11,23.38 L 8.11,24.49 L 9.00,24.94 L 9.03,24.94 L 9.03,23.89 L 9.07,23.86 L 9.86,24.27 L 9.92,24.27 L 9.92,23.16 Z" fill="#8b4d02" stroke="none" /><path d="M 0.00,22.65 L 0.00,24.81 L 1.78,25.70 L 1.78,24.62 L 0.89,24.17 L 0.89,23.09 Z" fill="#8b4d02" stroke="none" /><path d="M 0.89,19.79 L 0.89,20.87 L 1.72,21.28 L 1.78,21.34 L 1.78,22.43 L 1.81,22.46 L 4.42,23.76 L 4.49,23.76 L 4.49,22.71 L 4.52,22.68 L 5.41,23.13 L 5.41,22.01 L 4.55,21.60 L 4.49,21.53 L 4.49,20.45 L 4.45,20.42 L 3.59,20.01 L 3.59,21.06 L 3.53,21.09 L 2.74,20.68 L 2.67,20.68 L 2.67,21.69 L 2.61,21.73 L 1.84,21.34 L 1.78,21.28 L 1.78,20.20 L 0.95,19.79 Z" fill="#8b4d02" stroke="none" /><path d="M 8.17,18.96 L 8.11,18.96 L 8.11,20.01 L 8.08,20.04 L 7.28,19.63 L 7.22,19.63 L 7.22,20.71 L 8.08,21.15 L 8.11,21.15 L 8.11,20.10 L 8.14,20.07 L 9.03,20.52 L 9.03,19.40 Z" fill="#8b4d02" stroke="none" /><path d="M 1.78,18.00 L 1.78,19.12 L 2.61,19.53 L 2.67,19.53 L 2.67,18.42 L 1.84,18.00 Z" fill="#8b4d02" stroke="none" /><path d="M 11.74,16.32 L 10.85,15.87 L 10.85,16.92 L 10.78,16.95 L 9.10,16.10 L 9.03,16.10 L 9.03,17.18 L 10.78,18.07 L 10.85,18.07 L 10.85,17.05 L 10.88,17.02 L 11.74,17.43 Z" fill="#8b4d02" stroke="none" /><path d="M 6.33,15.81 L 6.30,15.81 L 6.30,16.86 L 6.27,16.89 L 5.41,16.48 L 5.41,17.53 L 5.38,17.56 L 4.55,17.15 L 4.49,17.15 L 4.49,18.26 L 5.34,18.67 L 5.41,18.74 L 5.41,19.82 L 6.23,20.23 L 6.30,20.23 L 6.30,19.15 L 5.47,18.74 L 5.41,18.67 L 5.41,17.65 L 5.47,17.62 L 6.30,18.04 L 6.30,16.99 L 6.33,16.95 L 7.16,17.37 L 7.22,17.37 L 7.22,16.25 Z" fill="#8b4d02" stroke="none" /><path d="M 0.92,15.33 L 0.89,15.33 L 0.89,16.38 L 0.86,16.41 L 0.00,16.00 L 0.00,17.11 L 0.83,17.53 L 0.89,17.53 L 0.89,16.51 L 0.92,16.48 L 1.78,16.89 L 1.78,15.78 Z" fill="#8b4d02" stroke="none" /><path d="M 13.55,13.96 L 13.55,15.01 L 14.35,15.43 L 14.41,15.43 L 14.41,14.38 L 13.61,13.96 Z" fill="#8b4d02" stroke="none" /><path d="M 4.52,12.69 L 4.49,12.69 L 4.49,13.74 L 4.45,13.77 L 3.59,13.36 L 3.59,14.47 L 4.42,14.89 L 4.49,14.89 L 4.49,13.87 L 4.52,13.84 L 5.34,14.25 L 5.41,14.25 L 5.41,13.14 Z" fill="#8b4d02" stroke="none" /><path d="M 7.22,10.78 L 7.22,11.86 L 8.05,12.28 L 8.11,12.28 L 8.11,11.23 Z" fill="#8b4d02" stroke="none" /><path d="M 0.00,7.19 L 0.00,8.24 L 0.89,8.68 L 0.89,7.60 L 0.06,7.19 Z" fill="#8b4d02" stroke="none" /><path d="M 22.52,25.80 L 19.79,27.17 L 19.79,28.25 L 18.89,28.69 L 18.89,29.77 L 22.52,27.96 Z" fill="#4f2a03" stroke="none" /><path d="M 17.97,22.52 L 17.08,22.97 L 17.08,24.05 L 17.02,24.11 L 16.19,24.52 L 16.19,26.72 L 16.25,26.72 L 17.08,26.31 L 17.08,25.22 L 17.15,25.16 L 17.97,24.75 Z" fill="#4f2a03" stroke="none" /><path d="M 28.82,21.53 L 27.93,21.98 L 27.93,23.06 L 27.86,23.13 L 27.04,23.54 L 27.04,24.62 L 26.15,25.07 L 26.15,26.15 L 28.82,24.81 Z" fill="#4f2a03" stroke="none" /><path d="M 15.27,20.55 L 14.41,20.96 L 14.41,23.19 L 14.47,23.19 L 15.27,22.78 Z" fill="#4f2a03" stroke="none" /><path d="M 25.22,18.89 L 24.33,19.34 L 24.33,21.53 L 24.27,21.60 L 23.41,22.01 L 23.41,24.24 L 25.22,23.35 L 25.22,22.23 L 26.15,21.76 L 26.15,19.56 L 26.08,19.56 L 25.26,19.98 L 25.22,19.94 Z" fill="#4f2a03" stroke="none" /><path d="M 22.52,16.92 L 20.71,17.81 L 20.71,18.93 L 19.79,19.40 L 19.79,20.52 L 20.68,20.07 L 20.71,20.10 L 20.71,21.15 L 21.60,20.71 L 21.60,19.63 L 22.52,19.15 Z" fill="#4f2a03" stroke="none" /><path d="M 17.97,13.68 L 17.91,13.68 L 17.08,14.09 L 17.08,15.17 L 17.02,15.24 L 16.19,15.65 L 16.19,16.73 L 16.13,16.80 L 15.27,17.21 L 15.27,18.32 L 15.33,18.32 L 16.16,17.91 L 16.19,17.94 L 16.19,18.96 L 16.25,18.96 L 17.97,18.10 L 17.97,17.02 L 18.04,16.95 L 18.89,16.54 L 18.89,14.31 L 18.83,14.31 L 18.00,14.73 L 17.97,14.70 Z" fill="#4f2a03" stroke="none" /><path d="M 28.82,12.66 L 27.93,13.11 L 27.93,14.19 L 27.86,14.25 L 27.04,14.66 L 27.04,15.75 L 26.97,15.81 L 26.15,16.22 L 26.15,17.34 L 27.01,16.92 L 27.04,16.95 L 27.04,17.97 L 27.10,17.97 L 28.82,17.11 Z" fill="#4f2a03" stroke="none" /><path d="M 21.60,10.78 L 19.79,11.67 L 19.79,12.76 L 21.60,11.86 Z" fill="#4f2a03" stroke="none" /><path d="M 26.15,10.69 L 26.08,10.69 L 25.26,11.10 L 25.22,11.07 L 25.22,10.05 L 25.16,10.05 L 24.33,10.47 L 24.33,11.55 L 24.27,11.61 L 23.41,12.02 L 23.41,13.14 L 22.52,13.58 L 22.52,14.70 L 22.58,14.70 L 25.22,13.36 L 25.22,12.28 L 25.29,12.21 L 26.15,11.80 Z" fill="#4f2a03" stroke="none" /><path d="M 27.93,7.63 L 27.86,7.63 L 27.04,8.05 L 27.04,9.13 L 27.93,8.68 Z" fill="#4f2a03" stroke="none" /><path d="M 20.71,25.61 L 20.64,25.61 L 19.82,26.02 L 19.79,25.99 L 19.79,24.94 L 19.75,24.94 L 18.89,25.38 L 18.89,26.47 L 18.83,26.53 L 16.22,27.83 L 16.19,27.80 L 16.19,26.75 L 16.13,26.75 L 15.30,27.17 L 15.27,27.20 L 15.27,28.28 L 15.20,28.34 L 14.41,28.72 L 14.41,29.84 L 14.47,29.84 L 15.24,29.46 L 15.27,29.49 L 15.27,30.50 L 15.33,30.50 L 16.16,30.09 L 16.19,30.06 L 16.19,28.98 L 18.86,27.64 L 18.89,27.61 L 18.89,26.53 L 18.96,26.47 L 19.75,26.08 L 19.79,26.12 L 19.79,27.17 L 20.71,26.72 Z" fill="#5c3703" stroke="none" /><path d="M 22.52,23.57 L 22.52,24.68 L 23.38,24.27 L 23.41,24.30 L 23.41,25.35 L 25.22,24.46 L 25.22,23.35 L 25.16,23.35 L 23.48,24.21 L 23.41,24.17 L 23.41,23.13 Z" fill="#5c3703" stroke="none" /><path d="M 16.19,22.33 L 16.13,22.33 L 15.27,22.78 L 15.27,23.86 L 14.41,24.30 L 14.41,25.42 L 15.24,25.00 L 15.27,25.03 L 15.27,26.08 L 15.33,26.08 L 16.19,25.64 L 16.19,24.52 L 15.30,24.97 L 15.27,24.94 L 15.27,23.89 L 16.19,23.41 Z" fill="#5c3703" stroke="none" /><path d="M 27.04,21.31 L 26.15,21.76 L 26.15,22.87 L 26.97,22.46 L 27.04,22.49 L 27.04,23.51 L 26.97,23.57 L 26.15,23.98 L 26.15,25.07 L 26.21,25.07 L 27.04,24.65 L 27.04,23.57 L 27.10,23.51 L 27.93,23.09 L 27.93,21.98 L 27.07,22.39 L 27.04,22.36 Z" fill="#5c3703" stroke="none" /><path d="M 24.33,19.34 L 23.44,19.79 L 23.41,19.75 L 23.41,18.70 L 23.38,18.70 L 22.52,19.15 L 22.52,20.23 L 22.49,20.26 L 19.82,21.60 L 19.79,21.57 L 19.79,20.52 L 18.93,20.93 L 18.89,20.96 L 18.89,22.04 L 17.97,22.52 L 17.97,23.63 L 18.86,23.19 L 18.89,23.22 L 18.89,24.27 L 18.96,24.27 L 19.79,23.86 L 19.79,22.74 L 19.82,22.71 L 22.49,21.38 L 22.52,21.41 L 22.52,22.46 L 22.58,22.46 L 23.41,22.04 L 23.41,20.93 L 24.33,20.45 Z" fill="#5c3703" stroke="none" /><path d="M 28.82,17.11 L 28.76,17.11 L 27.07,17.97 L 27.04,17.94 L 27.04,16.89 L 27.01,16.89 L 25.22,17.78 L 25.22,20.01 L 26.12,19.56 L 26.15,19.59 L 26.15,20.64 L 26.21,20.64 L 27.04,20.23 L 27.04,19.12 L 28.82,18.23 Z" fill="#5c3703" stroke="none" /><path d="M 20.71,16.73 L 20.64,16.73 L 19.82,17.15 L 19.79,17.11 L 19.79,16.10 L 19.72,16.10 L 18.89,16.51 L 18.89,17.59 L 18.83,17.65 L 16.22,18.96 L 16.19,18.93 L 16.19,17.88 L 15.27,18.32 L 15.27,19.40 L 15.20,19.47 L 14.41,19.85 L 14.41,20.96 L 14.47,20.96 L 15.24,20.58 L 15.27,20.61 L 15.27,21.66 L 15.30,21.66 L 16.19,21.22 L 16.19,20.10 L 16.22,20.07 L 18.83,18.77 L 18.89,18.80 L 18.89,19.85 L 19.75,19.44 L 19.79,19.40 L 19.79,18.32 L 19.85,18.26 L 20.71,17.84 Z" fill="#5c3703" stroke="none" /><path d="M 16.19,13.49 L 15.27,13.93 L 15.27,14.98 L 15.20,15.05 L 14.41,15.43 L 14.41,16.54 L 15.24,16.13 L 15.27,16.16 L 15.27,17.21 L 15.33,17.21 L 16.19,16.76 L 16.19,15.68 L 16.25,15.62 L 17.08,15.20 L 17.08,14.12 L 17.02,14.12 L 16.22,14.54 L 16.19,14.50 Z" fill="#5c3703" stroke="none" /><path d="M 27.93,13.11 L 27.04,13.55 L 27.04,14.63 L 26.97,14.70 L 26.15,15.11 L 26.15,16.22 L 27.04,15.78 L 27.04,14.70 L 27.10,14.63 L 27.93,14.22 Z" fill="#5c3703" stroke="none" /><path d="M 24.33,10.50 L 24.27,10.50 L 23.44,10.91 L 23.41,10.88 L 23.41,9.89 L 23.35,9.89 L 22.52,10.31 L 22.52,11.36 L 22.46,11.42 L 19.85,12.72 L 19.79,12.69 L 19.79,11.71 L 19.72,11.71 L 18.89,12.12 L 18.89,13.17 L 18.83,13.23 L 17.97,13.65 L 17.97,14.76 L 18.86,14.31 L 18.89,14.35 L 18.89,15.40 L 18.96,15.40 L 19.79,14.98 L 19.79,13.87 L 19.82,13.84 L 22.49,12.50 L 22.52,12.53 L 22.52,13.58 L 22.58,13.58 L 23.41,13.17 L 23.41,12.06 L 24.33,11.58 Z" fill="#5c3703" stroke="none" /><path d="M 28.82,8.24 L 27.10,9.10 L 27.04,9.07 L 27.04,8.08 L 26.97,8.08 L 26.15,8.49 L 26.15,9.54 L 26.08,9.61 L 25.22,10.02 L 25.22,11.13 L 26.12,10.69 L 26.15,10.72 L 26.15,12.88 L 25.22,13.36 L 25.22,14.44 L 25.19,14.47 L 23.48,15.33 L 23.41,15.30 L 23.41,14.28 L 23.35,14.28 L 22.52,14.70 L 22.52,15.78 L 22.46,15.84 L 21.60,16.25 L 21.60,17.37 L 21.66,17.37 L 22.49,16.95 L 22.52,16.99 L 22.52,18.04 L 23.41,17.59 L 23.41,16.51 L 23.48,16.45 L 25.22,15.59 L 25.22,14.47 L 26.15,14.00 L 26.15,12.91 L 27.04,12.47 L 27.04,10.24 L 28.82,9.35 Z" fill="#5c3703" stroke="none" /><path d="M 13.55,13.93 L 13.55,13.96 L 14.38,14.38 L 14.44,14.38 L 15.27,13.96 L 15.27,13.93 L 14.44,13.52 L 14.38,13.52 Z" fill="#d57703" stroke="none" /><path d="M 19.85,10.78 L 19.88,10.85 L 20.64,11.23 L 20.74,11.23 L 21.57,10.82 L 21.57,10.75 L 20.80,10.37 L 20.68,10.37 Z" fill="#d57703" stroke="none" /><path d="M 16.19,9.89 L 15.33,9.45 L 15.27,9.45 L 13.55,10.31 L 13.52,10.37 L 14.31,10.75 L 14.35,10.82 L 13.52,11.23 L 13.52,11.26 L 14.38,11.71 L 14.44,11.71 L 15.27,11.29 L 15.30,11.23 L 14.50,10.85 L 14.47,10.78 L 16.19,9.92 Z" fill="#d57703" stroke="none" /><path d="M 27.10,7.16 L 27.13,7.22 L 27.90,7.60 L 27.99,7.60 L 28.79,7.19 L 28.79,7.16 L 27.96,6.74 Z" fill="#d57703" stroke="none" /><path d="M 20.68,6.74 L 19.85,7.16 L 19.88,7.22 L 20.71,7.63 L 19.88,8.05 L 19.85,8.11 L 20.68,8.52 L 20.80,8.52 L 21.63,8.11 L 21.60,8.05 L 20.77,7.63 L 21.60,7.22 L 21.63,7.16 L 20.80,6.74 Z" fill="#d57703" stroke="none" /><path d="M 13.46,6.74 L 12.63,7.16 L 12.63,7.22 L 13.46,7.63 L 13.39,7.70 L 12.60,8.08 L 12.60,8.11 L 13.52,8.56 L 14.41,8.11 L 14.41,8.08 L 13.61,7.70 L 13.55,7.63 L 14.38,7.22 L 14.38,7.16 L 13.55,6.74 Z" fill="#d57703" stroke="none" /><path d="M 6.20,6.74 L 5.38,7.16 L 5.41,7.22 L 6.23,7.63 L 5.41,8.05 L 5.38,8.11 L 6.20,8.52 L 6.33,8.52 L 7.16,8.11 L 7.13,8.05 L 6.30,7.63 L 7.13,7.22 L 7.16,7.16 L 6.33,6.74 Z" fill="#d57703" stroke="none" /><path d="M 14.41,6.27 L 14.41,6.30 L 15.30,6.74 L 16.19,6.30 L 16.25,6.30 L 17.02,6.68 L 17.08,6.74 L 17.05,6.78 L 16.25,7.16 L 16.25,7.22 L 17.08,7.63 L 17.02,7.70 L 16.22,8.08 L 16.22,8.11 L 17.05,8.52 L 17.18,8.52 L 18.00,8.11 L 17.97,8.05 L 17.24,7.70 L 17.18,7.63 L 18.00,7.22 L 18.00,7.16 L 17.18,6.74 L 17.24,6.68 L 18.04,6.30 L 18.04,6.27 L 17.15,5.82 L 16.25,6.27 L 16.19,6.27 L 15.33,5.82 Z" fill="#d57703" stroke="none" /><path d="M 9.86,5.82 L 8.97,6.27 L 8.97,6.30 L 9.77,6.68 L 9.83,6.74 L 9.00,7.16 L 9.00,7.19 L 9.86,7.63 L 9.92,7.63 L 10.75,7.22 L 10.75,7.16 L 9.92,6.74 L 9.99,6.68 L 10.78,6.30 L 10.78,6.27 Z" fill="#d57703" stroke="none" /><path d="M 10.78,4.45 L 9.86,4.01 L 8.11,4.90 L 8.02,4.90 L 6.33,4.04 L 6.27,4.04 L 5.44,4.45 L 5.41,4.52 L 7.13,5.38 L 7.19,5.38 L 8.05,4.93 L 8.94,5.38 L 9.00,5.38 L 10.78,4.49 Z" fill="#d57703" stroke="none" /><path d="M 17.15,4.01 L 17.15,4.04 L 17.97,4.45 L 18.10,4.45 L 18.93,4.04 L 18.89,3.98 L 18.07,3.56 L 18.00,3.56 Z" fill="#d57703" stroke="none" /><path d="M 20.64,3.15 L 19.88,3.53 L 19.88,3.59 L 20.71,4.01 L 20.64,4.07 L 19.85,4.45 L 19.85,4.49 L 20.77,4.93 L 21.66,4.49 L 21.66,4.45 L 20.87,4.07 L 20.80,4.01 L 21.57,3.63 L 21.60,3.56 L 20.77,3.15 Z" fill="#d57703" stroke="none" /><path d="M 9.89,3.09 L 9.92,3.15 L 10.75,3.56 L 10.82,3.56 L 11.67,3.12 L 11.67,3.09 L 10.85,2.67 L 10.72,2.67 Z" fill="#d57703" stroke="none" /><path d="M 18.04,2.64 L 17.15,2.19 L 16.25,2.64 L 16.19,2.64 L 15.30,2.19 L 12.63,3.53 L 12.63,3.59 L 13.46,4.01 L 13.39,4.07 L 12.60,4.45 L 12.60,4.49 L 13.49,4.93 L 14.38,4.49 L 14.44,4.49 L 15.33,4.93 L 16.22,4.49 L 16.22,4.45 L 15.43,4.07 L 15.36,4.01 L 16.19,3.59 L 16.19,3.53 L 15.40,3.15 L 15.36,3.12 L 15.43,3.05 L 16.19,2.67 L 16.25,2.67 L 17.15,3.12 L 18.04,2.67 Z" fill="#d57703" stroke="none" /><path d="M 12.66,0.86 L 12.66,0.89 L 13.49,1.30 L 14.38,0.86 L 14.44,0.86 L 15.30,1.30 L 16.16,0.89 L 16.13,0.83 L 14.47,0.00 L 14.35,0.00 Z" fill="#d57703" stroke="none" /><path d="M 13.55,28.31 L 13.55,29.36 L 13.52,29.39 L 12.69,28.98 L 12.63,28.98 L 12.63,30.00 L 12.60,30.03 L 11.74,29.61 L 11.74,30.70 L 14.35,32.00 L 14.41,32.00 L 14.41,28.72 Z" fill="#804405" stroke="none" /><path d="M 4.49,25.99 L 4.49,27.07 L 8.05,28.85 L 8.11,28.85 L 8.11,26.69 L 5.44,25.35 L 5.41,25.35 L 5.41,26.40 L 5.38,26.43 Z" fill="#804405" stroke="none" /><path d="M 9.92,22.08 L 9.92,24.24 L 9.89,24.27 L 9.10,23.86 L 9.03,23.86 L 9.03,26.05 L 10.78,26.94 L 10.85,26.94 L 10.85,25.89 L 10.88,25.86 L 11.67,26.27 L 11.74,26.27 L 11.74,24.08 L 10.91,23.67 L 10.85,23.60 L 10.85,22.52 L 9.99,22.08 Z" fill="#804405" stroke="none" /><path d="M 13.55,19.44 L 13.55,20.49 L 13.52,20.52 L 12.69,20.10 L 12.63,20.10 L 12.63,21.15 L 12.60,21.18 L 11.80,20.77 L 11.74,20.77 L 11.74,21.88 L 12.63,22.33 L 12.63,23.41 L 12.66,23.44 L 14.41,24.30 L 14.41,19.85 Z" fill="#804405" stroke="none" /><path d="M 2.74,18.45 L 2.67,18.45 L 2.67,19.50 L 2.64,19.53 L 1.84,19.12 L 1.78,19.12 L 1.78,21.31 L 2.64,21.76 L 2.67,21.76 L 2.67,20.71 L 2.70,20.68 L 3.59,21.12 L 3.59,18.89 Z" fill="#804405" stroke="none" /><path d="M 6.30,16.92 L 6.30,17.97 L 6.27,18.00 L 5.41,17.59 L 5.41,18.70 L 6.23,19.12 L 6.30,19.18 L 6.30,20.26 L 7.22,20.71 L 7.22,19.66 L 7.25,19.63 L 8.05,20.04 L 8.11,20.04 L 8.11,17.81 Z" fill="#804405" stroke="none" /><path d="M 0.00,13.77 L 0.00,16.00 L 0.89,16.45 L 0.89,14.22 Z" fill="#804405" stroke="none" /><path d="M 12.63,13.49 L 12.63,14.57 L 13.55,15.01 L 13.55,13.93 Z" fill="#804405" stroke="none" /><path d="M 9.92,13.20 L 9.92,14.25 L 9.89,14.28 L 9.10,13.87 L 9.03,13.87 L 9.03,14.92 L 9.00,14.95 L 8.11,14.50 L 8.11,15.62 L 10.85,16.99 L 10.85,15.94 L 10.88,15.90 L 11.74,16.32 L 11.74,15.20 L 10.91,14.79 L 10.85,14.73 L 10.85,13.65 Z" fill="#804405" stroke="none" /><path d="M 5.41,9.89 L 5.41,10.94 L 7.16,11.83 L 7.22,11.83 L 7.22,10.78 L 5.47,9.89 Z" fill="#804405" stroke="none" /><path d="M 2.67,9.57 L 2.67,10.62 L 2.64,10.66 L 1.84,10.24 L 1.78,10.24 L 1.78,11.29 L 1.75,11.32 L 0.95,10.91 L 0.89,10.91 L 0.89,12.02 L 1.78,12.47 L 1.78,13.55 L 1.81,13.58 L 3.53,14.44 L 3.59,14.44 L 3.59,13.42 L 3.63,13.39 L 4.49,13.81 L 4.49,11.58 L 3.66,11.17 L 3.59,11.10 L 3.59,10.02 Z" fill="#804405" stroke="none" /><path d="M 11.74,26.31 L 11.74,27.42 L 12.63,27.86 L 12.63,28.91 L 12.60,28.95 L 11.80,28.53 L 11.74,28.53 L 11.74,29.61 L 12.63,30.06 L 12.63,29.01 L 12.66,28.98 L 13.55,29.42 L 13.55,28.31 L 12.63,27.83 L 12.63,26.72 L 11.80,26.31 Z" fill="#955a05" stroke="none" /><path d="M 8.11,24.49 L 8.11,25.61 L 8.97,26.02 L 9.03,26.08 L 9.03,27.17 L 10.78,28.06 L 10.85,28.06 L 10.85,26.94 L 9.10,26.08 L 9.03,26.02 L 9.03,24.94 L 8.17,24.49 Z" fill="#955a05" stroke="none" /><path d="M 10.85,21.44 L 10.85,23.63 L 11.67,24.05 L 11.74,24.11 L 11.74,25.19 L 12.63,25.64 L 12.63,24.59 L 12.69,24.56 L 14.41,25.42 L 14.41,24.30 L 12.69,23.44 L 12.63,23.38 L 12.63,22.30 L 10.91,21.44 Z" fill="#955a05" stroke="none" /><path d="M 0.00,21.53 L 0.00,22.65 L 0.83,23.06 L 0.89,23.13 L 0.89,24.21 L 1.72,24.62 L 1.78,24.62 L 1.78,23.60 L 1.84,23.57 L 4.42,24.87 L 4.49,24.87 L 4.49,23.83 L 4.52,23.79 L 5.34,24.21 L 5.41,24.27 L 5.41,25.35 L 6.30,25.80 L 6.30,24.68 L 5.47,24.27 L 5.41,24.21 L 5.41,23.13 L 5.38,23.09 L 4.55,22.68 L 4.49,22.68 L 4.49,23.73 L 4.45,23.76 L 1.84,22.46 L 1.78,22.39 L 1.78,21.31 L 1.75,21.28 L 0.89,20.87 L 0.89,21.92 L 0.86,21.95 Z" fill="#955a05" stroke="none" /><path d="M 12.69,18.99 L 12.63,18.99 L 12.63,20.04 L 12.60,20.07 L 11.80,19.66 L 11.74,19.66 L 11.74,20.77 L 12.56,21.18 L 12.63,21.18 L 12.63,20.14 L 12.66,20.10 L 13.55,20.55 L 13.55,19.44 Z" fill="#955a05" stroke="none" /><path d="M 3.59,18.89 L 3.59,20.01 L 4.42,20.42 L 4.49,20.49 L 4.49,21.57 L 4.52,21.60 L 5.34,22.01 L 5.41,22.01 L 5.41,20.96 L 5.44,20.93 L 8.05,22.23 L 8.11,22.30 L 8.11,23.38 L 8.97,23.83 L 9.03,23.83 L 9.03,22.78 L 9.07,22.74 L 9.86,23.16 L 9.92,23.16 L 9.92,22.04 L 9.03,21.60 L 9.03,20.52 L 9.00,20.49 L 8.17,20.07 L 8.11,20.07 L 8.11,21.09 L 8.05,21.12 L 5.44,19.82 L 5.41,19.79 L 5.41,18.70 L 5.38,18.67 L 4.55,18.26 L 4.49,18.26 L 4.49,19.28 L 4.45,19.31 Z" fill="#955a05" stroke="none" /><path d="M 0.89,16.45 L 0.89,17.50 L 0.86,17.53 L 0.06,17.11 L 0.00,17.11 L 0.00,18.23 L 0.89,18.67 L 0.89,19.79 L 1.72,20.20 L 1.78,20.20 L 1.78,19.09 L 0.89,18.64 L 0.89,17.59 L 0.92,17.56 L 1.72,17.97 L 1.78,17.97 L 1.78,16.89 Z" fill="#955a05" stroke="none" /><path d="M 14.41,15.43 L 12.66,14.57 L 12.63,14.54 L 12.63,13.49 L 11.74,13.04 L 11.74,14.06 L 11.71,14.09 L 10.91,13.68 L 10.85,13.68 L 10.85,14.76 L 11.67,15.17 L 11.74,15.24 L 11.74,17.37 L 11.71,17.40 L 10.85,16.99 L 10.85,18.04 L 10.82,18.07 L 9.10,17.21 L 9.03,17.15 L 9.03,16.06 L 8.14,15.62 L 8.11,15.62 L 8.11,16.67 L 8.08,16.70 L 7.28,16.29 L 7.22,16.29 L 7.22,17.40 L 8.11,17.84 L 8.11,18.96 L 9.00,19.40 L 9.03,19.40 L 9.03,18.35 L 9.07,18.32 L 10.78,19.18 L 10.85,19.18 L 10.85,18.13 L 10.88,18.10 L 11.67,18.51 L 11.74,18.51 L 11.74,17.50 L 11.77,17.46 L 12.63,17.88 L 12.63,15.71 L 12.69,15.68 L 14.41,16.54 Z" fill="#955a05" stroke="none" /><path d="M 0.00,12.66 L 0.00,13.77 L 0.83,14.19 L 0.89,14.25 L 0.89,15.33 L 0.92,15.36 L 1.78,15.78 L 1.78,14.73 L 1.84,14.70 L 4.45,16.00 L 4.49,16.03 L 4.49,17.15 L 5.41,17.59 L 5.41,16.54 L 5.44,16.51 L 6.30,16.92 L 6.30,15.81 L 5.47,15.40 L 5.41,15.33 L 5.41,14.25 L 4.49,13.81 L 4.49,14.85 L 4.45,14.89 L 1.84,13.58 L 1.78,13.52 L 1.78,12.44 L 0.95,12.02 L 0.89,12.02 L 0.89,13.04 L 0.86,13.07 Z" fill="#955a05" stroke="none" /><path d="M 3.59,10.05 L 3.59,11.13 L 4.42,11.55 L 4.49,11.61 L 4.49,12.69 L 4.52,12.72 L 5.34,13.14 L 5.41,13.14 L 5.41,12.09 L 5.44,12.06 L 8.05,13.36 L 8.11,13.42 L 8.11,14.50 L 8.97,14.95 L 9.03,14.95 L 9.03,13.90 L 9.07,13.87 L 9.86,14.28 L 9.92,14.28 L 9.92,13.20 L 9.10,12.79 L 9.03,12.72 L 9.03,11.67 L 8.11,11.23 L 8.11,12.25 L 8.08,12.28 L 5.47,10.97 L 5.41,10.91 L 5.41,9.86 L 4.52,9.42 L 4.49,9.42 L 4.49,10.43 L 4.45,10.47 L 3.66,10.05 Z" fill="#955a05" stroke="none" /><path d="M 0.89,7.63 L 0.89,8.62 L 0.86,8.65 L 0.00,8.24 L 0.00,9.35 L 0.89,9.80 L 0.89,10.91 L 1.72,11.32 L 1.78,11.32 L 1.78,10.27 L 1.81,10.24 L 2.61,10.66 L 2.67,10.66 L 2.67,9.57 L 1.84,9.16 L 1.78,9.10 L 1.78,8.05 L 0.95,7.63 Z" fill="#955a05" stroke="none" /><path d="M 14.44,13.49 L 14.44,13.55 L 15.20,13.93 L 15.33,13.93 L 16.16,13.52 L 16.13,13.46 L 15.36,13.07 L 15.27,13.07 Z" fill="#c66908" stroke="none" /><path d="M 23.41,9.86 L 22.58,9.45 L 22.52,9.45 L 20.74,10.34 L 20.74,10.37 L 21.57,10.78 L 21.63,10.78 L 23.41,9.89 Z" fill="#c66908" stroke="none" /><path d="M 18.00,9.89 L 17.15,9.45 L 17.08,9.45 L 14.41,10.78 L 14.41,10.82 L 15.20,11.20 L 15.27,11.26 L 14.44,11.67 L 14.44,11.74 L 15.27,12.15 L 15.36,12.15 L 16.22,11.71 L 17.08,12.15 L 17.18,12.15 L 18.00,11.74 L 18.00,11.67 L 17.18,11.26 L 17.24,11.20 L 18.00,10.82 L 18.00,10.78 L 17.18,10.37 L 17.21,10.31 L 18.00,9.92 Z" fill="#c66908" stroke="none" /><path d="M 6.33,10.31 L 6.36,10.37 L 9.86,12.12 L 9.99,12.12 L 10.75,11.74 L 10.75,11.67 L 9.92,11.26 L 10.78,10.82 L 10.78,10.78 L 9.96,10.37 L 9.99,10.31 L 10.78,9.92 L 10.78,9.89 L 9.92,9.45 L 9.86,9.45 L 9.00,9.89 L 8.11,9.45 L 8.05,9.45 Z" fill="#c66908" stroke="none" /><path d="M 13.52,6.71 L 13.55,6.78 L 14.38,7.19 L 13.55,7.60 L 13.52,7.67 L 15.30,8.56 L 17.11,7.67 L 17.08,7.60 L 16.25,7.19 L 17.08,6.78 L 17.11,6.71 L 16.29,6.30 L 16.16,6.30 L 15.36,6.71 L 15.27,6.71 L 14.47,6.30 L 14.35,6.30 Z" fill="#c66908" stroke="none" /><path d="M 3.53,8.11 L 3.50,8.05 L 2.67,7.63 L 3.53,7.19 L 3.53,7.16 L 2.70,6.74 L 2.74,6.68 L 3.53,6.30 L 3.50,6.23 L 2.74,5.85 L 2.64,5.85 L 0.03,7.16 L 0.06,7.22 L 2.67,8.52 Z" fill="#c66908" stroke="none" /><path d="M 20.74,6.71 L 20.74,6.74 L 21.53,7.13 L 21.60,7.19 L 20.77,7.60 L 20.77,7.67 L 22.49,8.52 L 22.62,8.52 L 23.41,8.11 L 23.51,8.11 L 24.30,8.52 L 24.43,8.52 L 25.26,8.11 L 25.22,8.05 L 24.40,7.63 L 25.26,7.19 L 25.26,7.16 L 24.43,6.74 L 24.46,6.68 L 25.26,6.30 L 25.26,6.27 L 24.40,5.82 L 24.33,5.82 L 23.48,6.27 L 22.58,5.82 L 22.52,5.82 Z" fill="#c66908" stroke="none" /><path d="M 6.27,6.71 L 6.27,6.74 L 7.06,7.13 L 7.13,7.19 L 6.30,7.60 L 6.30,7.67 L 8.02,8.52 L 8.14,8.52 L 8.94,8.11 L 9.03,8.11 L 9.83,8.52 L 9.96,8.52 L 10.78,8.11 L 10.75,8.05 L 9.03,7.19 L 9.10,7.13 L 9.83,6.78 L 9.86,6.71 L 8.08,5.82 Z" fill="#c66908" stroke="none" /><path d="M 20.77,4.01 L 20.77,4.04 L 22.55,4.93 L 23.41,4.52 L 23.38,4.45 L 21.66,3.59 L 21.57,3.59 Z" fill="#c66908" stroke="none" /><path d="M 15.33,3.09 L 15.36,3.15 L 16.19,3.56 L 15.36,3.98 L 15.33,4.04 L 17.11,4.93 L 18.04,4.49 L 18.04,4.45 L 17.24,4.07 L 17.18,4.01 L 18.00,3.59 L 18.00,3.53 L 16.29,2.67 L 16.16,2.67 Z" fill="#c66908" stroke="none" /><path d="M 10.78,2.64 L 9.96,2.23 L 9.89,2.23 L 6.33,4.01 L 6.33,4.07 L 8.08,4.93 L 10.75,3.59 L 10.75,3.53 L 9.92,3.12 L 9.99,3.05 L 10.78,2.67 Z" fill="#c66908" stroke="none" /><path d="M 10.82,9.89 L 9.89,10.34 L 9.89,10.37 L 10.69,10.75 L 10.75,10.82 L 9.92,11.23 L 9.92,11.29 L 10.75,11.71 L 10.82,11.71 L 11.67,11.26 L 11.67,11.23 L 10.85,10.82 L 10.91,10.75 L 11.71,10.37 L 11.71,10.34 Z" fill="#e58a08" stroke="none" /><path d="M 17.11,8.52 L 16.29,8.11 L 16.16,8.11 L 15.36,8.52 L 15.27,8.52 L 14.47,8.11 L 14.35,8.11 L 13.52,8.52 L 13.55,8.59 L 14.38,9.00 L 12.63,9.89 L 12.63,9.92 L 13.46,10.34 L 13.39,10.40 L 12.60,10.78 L 12.60,10.82 L 13.39,11.20 L 13.46,11.26 L 12.63,11.67 L 12.63,11.74 L 14.31,12.56 L 14.35,12.63 L 12.69,13.46 L 12.66,13.52 L 13.49,13.93 L 13.61,13.93 L 15.30,13.07 L 16.13,13.49 L 16.22,13.49 L 17.05,13.07 L 17.05,13.01 L 16.32,12.66 L 16.29,12.60 L 17.11,12.18 L 17.08,12.12 L 16.25,11.71 L 16.19,11.71 L 15.30,12.15 L 13.58,11.29 L 13.55,11.26 L 13.61,11.20 L 14.41,10.82 L 14.41,10.78 L 13.61,10.40 L 13.55,10.34 L 15.27,9.48 L 15.27,9.42 L 14.44,9.00 L 15.30,8.56 L 16.10,8.94 L 16.16,9.00 L 15.33,9.42 L 15.33,9.48 L 16.16,9.89 L 16.25,9.89 L 17.08,9.48 L 17.08,9.42 L 16.25,9.00 L 16.32,8.94 L 17.11,8.56 Z" fill="#e58a08" stroke="none" /><path d="M 24.37,8.52 L 23.48,8.08 L 22.58,8.52 L 22.52,8.52 L 21.63,8.08 L 20.74,8.52 L 20.74,8.56 L 21.53,8.94 L 21.60,9.00 L 21.57,9.03 L 18.96,10.34 L 18.89,10.34 L 18.04,9.89 L 17.11,10.34 L 17.11,10.37 L 17.91,10.75 L 17.97,10.82 L 17.15,11.23 L 17.15,11.26 L 18.00,11.71 L 18.07,11.71 L 18.89,11.29 L 18.89,11.23 L 18.07,10.82 L 18.13,10.75 L 18.89,10.37 L 18.96,10.37 L 19.72,10.75 L 19.79,10.82 L 18.96,11.23 L 18.96,11.29 L 19.72,11.67 L 19.85,11.67 L 20.68,11.26 L 20.64,11.20 L 19.91,10.85 L 19.88,10.82 L 19.94,10.75 L 22.52,9.48 L 22.52,9.42 L 21.73,9.03 L 21.69,9.00 L 21.76,8.94 L 22.52,8.56 L 22.58,8.56 L 23.35,8.94 L 23.41,9.00 L 23.38,9.03 L 22.58,9.42 L 22.58,9.48 L 23.35,9.86 L 23.48,9.86 L 24.30,9.45 L 24.27,9.38 L 23.51,9.00 L 23.57,8.94 L 24.37,8.56 Z" fill="#e58a08" stroke="none" /><path d="M 5.41,9.89 L 6.33,10.34 L 8.05,9.48 L 8.05,9.42 L 7.22,9.00 L 7.28,8.94 L 8.05,8.56 L 8.11,8.56 L 8.87,8.94 L 8.94,9.00 L 8.11,9.42 L 8.11,9.48 L 8.94,9.89 L 9.03,9.89 L 10.75,9.03 L 10.78,8.97 L 9.00,8.08 L 8.11,8.52 L 8.05,8.52 L 7.16,8.08 L 6.27,8.52 L 6.27,8.56 L 7.06,8.94 L 7.13,9.00 L 5.41,9.86 Z" fill="#e58a08" stroke="none" /><path d="M 4.49,7.60 L 4.49,7.67 L 5.31,8.08 L 5.41,8.08 L 6.23,7.67 L 6.23,7.60 L 5.41,7.19 L 5.31,7.19 Z" fill="#e58a08" stroke="none" /><path d="M 24.37,6.71 L 24.37,6.74 L 25.16,7.13 L 25.22,7.19 L 24.40,7.60 L 24.40,7.67 L 25.22,8.08 L 25.32,8.08 L 26.15,7.67 L 26.15,7.60 L 25.32,7.19 L 25.38,7.13 L 26.15,6.74 L 26.21,6.74 L 26.97,7.13 L 27.04,7.19 L 26.21,7.60 L 26.21,7.67 L 26.97,8.05 L 27.10,8.05 L 27.93,7.63 L 27.90,7.57 L 27.13,7.19 L 27.20,7.13 L 27.93,6.78 L 27.93,6.74 L 27.07,6.30 L 27.01,6.30 L 26.21,6.71 L 26.15,6.71 L 25.26,6.27 Z" fill="#e58a08" stroke="none" /><path d="M 3.53,6.27 L 2.64,6.71 L 2.64,6.74 L 3.44,7.13 L 3.50,7.19 L 2.67,7.60 L 2.67,7.67 L 3.50,8.08 L 3.59,8.08 L 4.42,7.67 L 4.42,7.60 L 3.59,7.19 L 3.66,7.13 L 4.45,6.74 L 4.45,6.71 Z" fill="#e58a08" stroke="none" /><path d="M 5.38,6.30 L 6.20,6.71 L 6.33,6.71 L 8.02,5.85 L 8.11,5.85 L 8.91,6.27 L 9.03,6.27 L 9.86,5.85 L 9.86,5.82 L 9.00,5.38 L 8.94,5.38 L 8.08,5.82 L 7.19,5.38 L 7.13,5.38 L 5.41,6.23 Z" fill="#e58a08" stroke="none" /><path d="M 24.30,4.93 L 23.44,4.49 L 22.62,4.90 L 22.52,4.90 L 21.73,4.49 L 21.60,4.49 L 20.77,4.90 L 20.80,4.96 L 21.60,5.34 L 21.63,5.38 L 21.60,5.41 L 18.99,6.71 L 18.89,6.71 L 18.10,6.30 L 17.97,6.30 L 17.15,6.71 L 17.18,6.78 L 18.00,7.19 L 17.18,7.60 L 17.15,7.67 L 17.97,8.08 L 18.07,8.08 L 18.89,7.67 L 18.89,7.60 L 18.07,7.19 L 18.96,6.74 L 19.72,7.13 L 19.79,7.19 L 18.96,7.60 L 18.96,7.67 L 19.79,8.08 L 19.88,8.08 L 20.71,7.67 L 20.71,7.60 L 19.91,7.22 L 19.88,7.19 L 19.94,7.13 L 22.52,5.85 L 22.52,5.79 L 21.73,5.41 L 21.69,5.38 L 21.73,5.34 L 22.55,4.93 L 23.35,5.31 L 23.41,5.38 L 23.38,5.41 L 22.58,5.79 L 22.58,5.85 L 23.41,6.27 L 23.51,6.27 L 24.33,5.85 L 24.33,5.79 L 23.51,5.38 L 23.57,5.31 L 24.30,4.96 Z" fill="#e58a08" stroke="none" /><path d="M 17.11,4.90 L 16.29,4.49 L 16.16,4.49 L 15.36,4.90 L 15.27,4.90 L 14.47,4.49 L 14.35,4.49 L 13.52,4.90 L 13.55,4.96 L 14.35,5.34 L 14.38,5.38 L 14.35,5.41 L 11.74,6.71 L 11.64,6.71 L 10.85,6.30 L 10.72,6.30 L 9.89,6.71 L 9.92,6.78 L 10.75,7.19 L 9.92,7.60 L 9.92,7.67 L 10.75,8.08 L 10.85,8.08 L 11.64,7.67 L 11.74,7.67 L 12.53,8.08 L 12.66,8.08 L 13.49,7.67 L 13.46,7.60 L 12.66,7.22 L 12.63,7.19 L 12.66,7.16 L 15.27,5.85 L 15.36,5.85 L 16.16,6.27 L 16.29,6.27 L 17.11,5.85 L 17.08,5.79 L 16.25,5.38 L 17.08,4.96 Z" fill="#e58a08" stroke="none" /><path d="M 17.15,3.09 L 17.18,3.15 L 18.00,3.56 L 18.07,3.56 L 18.93,3.12 L 19.79,3.53 L 19.82,3.56 L 19.79,3.59 L 18.96,4.01 L 18.96,4.04 L 19.79,4.45 L 19.91,4.45 L 20.74,4.04 L 20.71,3.98 L 19.88,3.56 L 20.71,3.15 L 20.71,3.12 L 19.82,2.67 L 18.99,3.09 L 18.89,3.09 L 18.10,2.67 L 17.97,2.67 Z" fill="#e58a08" stroke="none" /><path d="M 17.08,1.30 L 16.19,0.86 L 15.36,1.27 L 15.27,1.27 L 14.47,0.86 L 14.35,0.86 L 13.52,1.27 L 13.55,1.34 L 14.35,1.72 L 14.38,1.75 L 14.35,1.78 L 11.71,3.09 L 11.74,3.15 L 12.53,3.53 L 12.56,3.56 L 12.53,3.59 L 11.67,4.01 L 10.82,3.56 L 10.75,3.56 L 9.92,3.98 L 9.89,4.04 L 10.72,4.45 L 10.85,4.45 L 11.64,4.04 L 11.74,4.04 L 12.53,4.45 L 12.66,4.45 L 13.49,4.04 L 13.46,3.98 L 12.66,3.59 L 12.63,3.56 L 12.66,3.53 L 15.27,2.23 L 15.36,2.23 L 16.16,2.64 L 16.29,2.64 L 17.11,2.23 L 17.08,2.16 L 16.25,1.75 L 17.08,1.34 Z" fill="#e58a08" stroke="none" /><path d="M 18.89,28.72 L 18.83,28.72 L 17.97,29.17 L 17.97,30.22 L 18.04,30.22 L 18.89,29.77 Z" fill="#63440b" stroke="none" /><path d="M 15.20,26.12 L 14.41,26.53 L 14.41,28.72 L 14.47,28.72 L 15.24,28.34 L 15.27,28.37 L 15.27,29.42 L 15.30,29.42 L 16.19,28.98 L 16.19,27.86 L 16.13,27.86 L 15.33,28.28 L 15.27,28.25 L 15.27,26.12 Z" fill="#63440b" stroke="none" /><path d="M 26.15,25.10 L 26.08,25.10 L 24.33,25.99 L 24.33,27.04 L 24.40,27.04 L 26.15,26.15 Z" fill="#63440b" stroke="none" /><path d="M 26.15,22.87 L 25.22,23.32 L 25.22,24.43 L 25.29,24.43 L 26.15,23.98 Z" fill="#63440b" stroke="none" /><path d="M 22.52,22.49 L 22.46,22.49 L 21.60,22.93 L 21.60,24.02 L 20.71,24.46 L 20.71,25.57 L 20.77,25.57 L 22.46,24.72 L 22.52,24.75 L 22.52,25.80 L 23.41,25.35 L 23.41,24.24 L 22.58,24.65 L 22.52,24.62 Z" fill="#63440b" stroke="none" /><path d="M 28.82,20.42 L 27.93,20.87 L 27.93,21.98 L 28.82,21.53 Z" fill="#63440b" stroke="none" /><path d="M 18.89,19.85 L 17.97,20.29 L 17.97,21.41 L 17.94,21.44 L 16.19,22.30 L 16.19,23.38 L 16.13,23.44 L 15.27,23.86 L 15.27,24.97 L 15.33,24.97 L 16.19,24.52 L 16.19,23.44 L 16.25,23.38 L 17.97,22.52 L 17.97,21.44 L 18.89,20.96 Z" fill="#63440b" stroke="none" /><path d="M 23.41,19.82 L 23.35,19.82 L 22.52,20.23 L 22.52,21.34 L 22.58,21.34 L 23.41,20.93 Z" fill="#63440b" stroke="none" /><path d="M 27.04,18.00 L 26.97,18.00 L 26.15,18.42 L 26.15,19.53 L 26.21,19.53 L 27.04,19.12 Z" fill="#63440b" stroke="none" /><path d="M 26.15,16.22 L 25.22,16.67 L 25.22,17.78 L 24.37,18.23 L 24.33,18.19 L 24.33,17.15 L 24.27,17.15 L 23.44,17.56 L 23.41,17.59 L 23.41,18.70 L 24.30,18.26 L 24.33,18.29 L 24.33,19.34 L 25.19,18.93 L 25.22,18.89 L 25.22,17.81 L 26.15,17.34 Z" fill="#63440b" stroke="none" /><path d="M 15.20,16.13 L 14.41,16.54 L 14.41,19.85 L 14.47,19.85 L 15.24,19.47 L 15.27,19.50 L 15.27,20.55 L 15.30,20.55 L 16.19,20.10 L 16.19,18.99 L 16.13,18.99 L 15.33,19.40 L 15.27,19.37 L 15.27,16.13 Z" fill="#63440b" stroke="none" /><path d="M 27.04,12.47 L 26.97,12.47 L 26.15,12.88 L 26.15,13.96 L 26.08,14.03 L 25.22,14.44 L 25.22,15.55 L 25.29,15.55 L 26.15,15.11 L 26.15,14.03 L 26.21,13.96 L 27.04,13.55 Z" fill="#63440b" stroke="none" /><path d="M 19.79,12.76 L 18.93,13.17 L 18.89,13.14 L 18.89,12.15 L 18.83,12.15 L 17.08,13.04 L 17.08,14.09 L 17.15,14.09 L 18.86,13.23 L 18.89,13.26 L 18.89,14.28 L 18.96,14.28 L 19.79,13.87 Z" fill="#63440b" stroke="none" /><path d="M 28.82,11.58 L 28.76,11.58 L 27.93,11.99 L 27.93,13.11 L 28.82,12.66 Z" fill="#63440b" stroke="none" /><path d="M 27.04,9.13 L 26.18,9.54 L 26.15,9.51 L 26.15,8.52 L 26.08,8.52 L 23.41,9.86 L 23.41,10.91 L 23.35,10.97 L 22.52,11.39 L 22.52,12.47 L 21.60,12.95 L 21.60,15.14 L 21.53,15.20 L 20.71,15.62 L 20.71,16.70 L 20.77,16.70 L 22.46,15.84 L 22.52,15.87 L 22.52,16.92 L 23.41,16.48 L 23.41,15.36 L 22.58,15.78 L 22.52,15.75 L 22.52,12.50 L 23.41,12.06 L 23.41,10.97 L 23.48,10.91 L 26.08,9.61 L 26.15,9.64 L 26.15,10.66 L 26.21,10.66 L 27.04,10.24 Z" fill="#63440b" stroke="none" /><path d="M 9.92,28.72 L 9.92,29.77 L 11.67,30.66 L 11.74,30.66 L 11.74,29.61 L 9.99,28.72 Z" fill="#a06e12" stroke="none" /><path d="M 13.55,27.20 L 13.55,28.31 L 14.35,28.72 L 14.41,28.72 L 14.41,27.61 Z" fill="#a06e12" stroke="none" /><path d="M 10.85,26.97 L 10.85,28.09 L 11.67,28.50 L 11.74,28.50 L 11.74,27.39 L 10.91,26.97 Z" fill="#a06e12" stroke="none" /><path d="M 3.59,25.54 L 3.59,26.62 L 4.42,27.04 L 4.49,27.04 L 4.49,25.99 Z" fill="#a06e12" stroke="none" /><path d="M 11.74,22.97 L 11.74,24.08 L 12.63,24.52 L 12.63,23.41 Z" fill="#a06e12" stroke="none" /><path d="M 7.22,22.93 L 7.22,23.98 L 7.19,24.02 L 6.30,23.57 L 6.30,24.68 L 8.08,25.57 L 8.11,25.61 L 8.11,26.72 L 9.03,27.17 L 9.03,26.05 L 8.11,25.57 L 8.11,23.38 Z" fill="#a06e12" stroke="none" /><path d="M 8.11,21.15 L 8.11,22.27 L 8.97,22.71 L 9.03,22.71 L 9.03,21.60 Z" fill="#a06e12" stroke="none" /><path d="M 9.03,19.40 L 9.03,20.52 L 9.86,20.93 L 9.92,20.99 L 9.92,22.08 L 10.85,22.52 L 10.85,21.47 L 10.88,21.44 L 11.67,21.85 L 11.74,21.85 L 11.74,20.74 L 10.91,20.33 L 10.85,20.33 L 10.85,21.38 L 10.82,21.41 L 9.99,20.99 L 9.92,20.93 L 9.92,19.85 Z" fill="#a06e12" stroke="none" /><path d="M 0.00,19.34 L 0.00,21.53 L 0.83,21.95 L 0.89,22.01 L 0.89,23.09 L 1.78,23.54 L 1.78,22.43 L 0.95,22.01 L 0.89,21.95 L 0.89,19.75 L 0.06,19.34 Z" fill="#a06e12" stroke="none" /><path d="M 13.55,18.35 L 13.55,19.44 L 14.35,19.85 L 14.41,19.85 L 14.41,18.77 L 13.61,18.35 Z" fill="#a06e12" stroke="none" /><path d="M 11.77,17.43 L 11.74,17.43 L 11.74,18.48 L 11.71,18.51 L 10.91,18.10 L 10.85,18.10 L 10.85,19.21 L 11.67,19.63 L 11.74,19.63 L 11.74,18.58 L 11.77,18.54 L 12.56,18.96 L 12.63,18.96 L 12.63,17.88 Z" fill="#a06e12" stroke="none" /><path d="M 4.49,17.11 L 3.66,16.70 L 3.59,16.70 L 3.59,17.75 L 3.56,17.78 L 1.78,16.89 L 1.78,17.94 L 1.75,17.97 L 0.95,17.56 L 0.89,17.56 L 0.89,18.67 L 1.72,19.09 L 1.78,19.09 L 1.78,18.04 L 1.81,18.00 L 3.59,18.89 L 3.59,17.84 L 3.63,17.81 L 4.42,18.23 L 4.49,18.23 Z" fill="#a06e12" stroke="none" /><path d="M 9.10,11.71 L 9.03,11.71 L 9.03,12.69 L 9.00,12.72 L 8.17,12.31 L 8.11,12.31 L 8.11,13.33 L 8.08,13.36 L 7.22,12.95 L 7.22,15.11 L 7.16,15.14 L 6.36,14.73 L 6.30,14.73 L 6.30,15.81 L 8.08,16.70 L 8.11,16.73 L 8.11,17.84 L 9.00,18.29 L 9.03,18.29 L 9.03,17.18 L 8.11,16.70 L 8.11,13.46 L 8.14,13.42 L 8.97,13.84 L 9.03,13.84 L 9.03,12.82 L 9.10,12.79 L 11.71,14.09 L 11.74,14.12 L 11.74,15.20 L 12.63,15.65 L 12.63,14.54 L 11.74,14.09 L 11.74,13.04 Z" fill="#a06e12" stroke="none" /><path d="M 0.00,9.35 L 0.00,12.66 L 0.83,13.07 L 0.89,13.14 L 0.89,14.22 L 1.78,14.66 L 1.78,13.55 L 0.95,13.14 L 0.89,13.07 L 0.89,9.77 L 0.06,9.35 Z" fill="#a06e12" stroke="none" /><path d="M 2.67,8.52 L 2.67,9.57 L 4.45,10.47 L 4.49,10.50 L 4.49,11.58 L 5.34,12.02 L 5.41,12.02 L 5.41,10.94 L 4.49,10.47 L 4.49,9.42 L 2.74,8.52 Z" fill="#a06e12" stroke="none" /><path d="M 9.92,12.12 L 9.92,12.15 L 10.82,12.60 L 11.67,12.18 L 11.64,12.12 L 10.82,11.71 L 10.75,11.71 Z" fill="#f7a91c" stroke="none" /><path d="M 12.63,9.89 L 11.71,10.34 L 11.71,10.37 L 12.53,10.78 L 12.50,10.85 L 11.71,11.23 L 11.71,11.26 L 12.56,11.71 L 12.63,11.71 L 13.49,11.26 L 13.49,11.23 L 12.66,10.82 L 12.69,10.75 L 13.49,10.37 L 13.49,10.34 Z" fill="#f7a91c" stroke="none" /><path d="M 7.19,8.97 L 7.22,9.03 L 8.05,9.45 L 8.11,9.45 L 8.97,9.00 L 8.97,8.97 L 8.14,8.56 L 8.02,8.56 Z" fill="#f7a91c" stroke="none" /><path d="M 26.12,8.49 L 25.26,8.08 L 23.51,8.97 L 23.41,8.97 L 22.62,8.56 L 22.49,8.56 L 21.66,8.97 L 21.66,9.00 L 22.52,9.45 L 22.58,9.45 L 23.44,9.00 L 24.27,9.42 L 24.37,9.42 L 26.08,8.56 Z" fill="#f7a91c" stroke="none" /><path d="M 18.93,8.52 L 18.00,8.08 L 16.25,8.97 L 16.16,8.97 L 15.36,8.56 L 15.27,8.56 L 14.44,8.97 L 14.44,9.03 L 15.27,9.45 L 15.33,9.45 L 16.22,9.00 L 18.83,10.31 L 18.86,10.34 L 18.83,10.40 L 18.04,10.78 L 18.04,10.82 L 18.89,11.26 L 16.25,12.60 L 16.19,12.60 L 15.30,12.15 L 14.41,12.60 L 14.41,12.63 L 15.30,13.07 L 16.19,12.63 L 16.25,12.63 L 17.05,13.04 L 17.11,13.04 L 19.79,11.71 L 19.79,11.67 L 18.96,11.26 L 19.82,10.82 L 19.82,10.78 L 18.99,10.37 L 19.02,10.31 L 19.82,9.92 L 19.82,9.89 L 18.07,9.00 L 18.13,8.94 L 18.93,8.56 Z" fill="#f7a91c" stroke="none" /><path d="M 9.92,9.48 L 10.75,9.89 L 10.85,9.89 L 11.67,9.48 L 11.67,9.42 L 10.88,9.03 L 10.85,9.00 L 10.91,8.94 L 11.67,8.56 L 11.74,8.56 L 12.63,9.00 L 13.46,8.59 L 13.49,8.52 L 12.66,8.11 L 12.53,8.11 L 11.74,8.52 L 11.67,8.52 L 10.78,8.08 L 9.89,8.52 L 9.89,8.56 L 10.69,8.94 L 10.75,9.00 L 9.92,9.42 Z" fill="#f7a91c" stroke="none" /><path d="M 2.70,8.49 L 2.74,8.56 L 3.56,8.97 L 3.63,8.97 L 4.45,8.56 L 4.45,8.52 L 3.56,8.08 Z" fill="#f7a91c" stroke="none" /><path d="M 10.82,7.16 L 10.82,7.22 L 11.64,7.63 L 11.74,7.63 L 12.56,7.22 L 12.56,7.16 L 11.74,6.74 L 11.64,6.74 Z" fill="#f7a91c" stroke="none" /><path d="M 4.45,6.71 L 4.45,6.74 L 5.34,7.19 L 6.27,6.74 L 6.27,6.71 L 5.38,6.27 Z" fill="#f7a91c" stroke="none" /><path d="M 21.69,5.34 L 21.69,5.41 L 22.52,5.82 L 22.58,5.82 L 23.48,5.38 L 26.12,6.71 L 26.24,6.71 L 27.01,6.33 L 27.01,6.27 L 24.33,4.93 L 23.51,5.34 L 23.41,5.34 L 22.62,4.93 L 22.52,4.93 Z" fill="#f7a91c" stroke="none" /><path d="M 7.19,5.34 L 7.19,5.41 L 8.02,5.82 L 8.11,5.82 L 8.94,5.41 L 8.94,5.34 L 8.11,4.93 L 8.02,4.93 Z" fill="#f7a91c" stroke="none" /><path d="M 5.34,5.34 L 4.49,4.93 L 2.70,5.82 L 2.70,5.85 L 3.50,6.27 L 3.59,6.27 L 5.31,5.41 Z" fill="#f7a91c" stroke="none" /><path d="M 11.67,4.90 L 10.85,4.49 L 10.72,4.49 L 9.00,5.34 L 9.00,5.41 L 10.72,6.27 L 10.85,6.27 L 11.67,5.85 L 11.64,5.79 L 10.82,5.38 L 11.64,4.96 Z" fill="#f7a91c" stroke="none" /><path d="M 18.99,3.12 L 18.89,3.12 L 18.07,3.53 L 18.07,3.59 L 18.86,3.98 L 18.89,4.01 L 18.83,4.07 L 17.15,4.90 L 17.18,4.96 L 18.00,5.38 L 17.18,5.79 L 17.15,5.85 L 17.97,6.27 L 18.10,6.27 L 18.93,5.85 L 18.89,5.79 L 18.10,5.41 L 18.07,5.38 L 18.10,5.34 L 19.85,4.49 L 19.85,4.45 L 19.05,4.07 L 18.99,4.01 L 19.82,3.59 L 19.82,3.53 Z" fill="#f7a91c" stroke="none" /><path d="M 9.96,2.19 L 9.96,2.26 L 10.72,2.64 L 10.85,2.64 L 11.67,2.23 L 11.64,2.16 L 10.88,1.78 L 10.78,1.78 Z" fill="#f7a91c" stroke="none" /><path d="M 16.25,1.72 L 16.25,1.78 L 17.97,2.64 L 18.10,2.64 L 18.86,2.26 L 18.86,2.19 L 17.15,1.34 L 17.02,1.34 Z" fill="#f7a91c" stroke="none" /><path d="M 14.44,1.72 L 14.44,1.78 L 15.27,2.19 L 15.36,2.19 L 16.19,1.78 L 16.19,1.72 L 15.36,1.30 L 15.27,1.30 Z" fill="#f7a91c" stroke="none" /><path d="M 17.08,28.53 L 17.02,28.53 L 16.19,28.95 L 16.19,31.11 L 16.25,31.11 L 17.97,30.25 L 17.97,29.17 L 17.11,29.58 L 17.08,29.55 Z" fill="#655125" stroke="none" /><path d="M 24.33,25.99 L 23.41,26.43 L 23.41,27.51 L 24.33,27.07 Z" fill="#655125" stroke="none" /><path d="M 15.27,25.00 L 15.20,25.00 L 14.41,25.42 L 14.41,26.53 L 15.27,26.12 Z" fill="#655125" stroke="none" /><path d="M 16.19,20.07 L 16.19,22.30 L 16.25,22.30 L 17.94,21.44 L 17.97,21.47 L 17.97,22.52 L 18.86,22.08 L 18.89,22.11 L 18.89,23.16 L 18.96,23.16 L 19.75,22.74 L 19.79,22.78 L 19.79,23.83 L 19.85,23.83 L 20.68,23.41 L 20.71,23.44 L 20.71,24.46 L 20.77,24.46 L 21.60,24.05 L 21.60,22.97 L 21.66,22.90 L 22.52,22.49 L 22.52,21.38 L 22.46,21.38 L 19.82,22.71 L 19.79,22.68 L 19.79,21.63 L 19.72,21.63 L 18.93,22.04 L 18.89,22.01 L 18.89,20.96 L 18.00,21.41 L 17.97,21.38 L 17.97,20.33 L 17.91,20.33 L 17.11,20.74 L 17.08,20.71 L 17.08,19.66 L 17.02,19.66 Z" fill="#655125" stroke="none" /><path d="M 28.82,18.23 L 28.76,18.23 L 27.04,19.09 L 27.04,20.20 L 27.10,20.20 L 27.90,19.79 L 27.93,19.82 L 27.93,20.87 L 28.82,20.42 Z" fill="#655125" stroke="none" /><path d="M 24.33,16.03 L 24.27,16.03 L 23.41,16.48 L 23.41,17.59 L 24.30,17.15 L 24.33,17.18 L 24.33,18.23 L 23.41,18.70 L 23.41,19.79 L 23.48,19.79 L 24.33,19.34 L 24.33,18.26 L 25.22,17.81 L 25.22,16.70 L 25.16,16.70 L 24.37,17.11 L 24.33,17.08 Z" fill="#655125" stroke="none" /><path d="M 17.08,13.04 L 16.19,13.49 L 16.19,14.54 L 15.27,15.01 L 15.27,16.10 L 15.33,16.10 L 16.19,15.65 L 16.19,14.57 L 17.08,14.12 Z" fill="#655125" stroke="none" /><path d="M 21.60,12.95 L 19.79,13.84 L 19.79,14.95 L 19.85,14.95 L 20.68,14.54 L 20.71,14.57 L 20.71,15.62 L 21.60,15.17 Z" fill="#655125" stroke="none" /><path d="M 28.82,9.35 L 28.76,9.35 L 27.04,10.21 L 27.04,11.32 L 27.10,11.32 L 27.90,10.91 L 27.93,10.94 L 27.93,11.99 L 27.99,11.99 L 28.82,11.58 Z" fill="#655125" stroke="none" /><path d="M 20.71,23.38 L 19.79,23.83 L 19.79,26.02 L 19.72,26.08 L 18.89,26.50 L 18.89,27.58 L 18.83,27.64 L 17.08,28.50 L 17.08,29.61 L 18.89,28.72 L 18.89,27.64 L 18.96,27.58 L 19.79,27.17 L 19.79,26.08 L 19.85,26.02 L 20.71,25.61 Z" fill="#655a32" stroke="none" /><path d="M 27.93,19.79 L 27.86,19.79 L 27.04,20.20 L 27.04,22.39 L 26.97,22.46 L 26.15,22.87 L 26.15,23.95 L 26.08,24.02 L 23.44,25.32 L 23.41,25.35 L 23.41,26.43 L 23.48,26.43 L 26.15,25.10 L 26.15,24.02 L 26.21,23.95 L 27.04,23.54 L 27.04,22.46 L 27.10,22.39 L 27.93,21.98 Z" fill="#655a32" stroke="none" /><path d="M 20.71,14.50 L 19.79,14.95 L 19.79,17.15 L 19.72,17.21 L 18.89,17.62 L 18.89,18.70 L 18.83,18.77 L 17.08,19.63 L 17.08,20.74 L 17.15,20.74 L 18.89,19.85 L 18.89,18.77 L 18.96,18.70 L 19.79,18.29 L 19.79,17.21 L 19.85,17.15 L 20.71,16.73 Z" fill="#655a32" stroke="none" /><path d="M 27.93,10.91 L 27.86,10.91 L 27.04,11.32 L 27.04,13.52 L 26.97,13.58 L 26.15,14.00 L 26.15,15.08 L 26.08,15.14 L 24.33,16.00 L 24.33,17.11 L 24.40,17.11 L 26.15,16.22 L 26.15,15.14 L 26.21,15.08 L 27.04,14.66 L 27.04,13.58 L 27.10,13.52 L 27.93,13.11 Z" fill="#655a32" stroke="none" /><path d="M 9.03,28.28 L 9.03,29.33 L 9.92,29.77 L 9.92,28.69 L 9.10,28.28 Z" fill="#a4843c" stroke="none" /><path d="M 12.63,24.52 L 12.63,25.64 L 13.55,26.12 L 13.55,27.20 L 14.35,27.61 L 14.41,27.61 L 14.41,25.42 Z" fill="#a4843c" stroke="none" /><path d="M 1.78,23.54 L 1.78,25.70 L 3.53,26.59 L 3.59,26.59 L 3.59,25.54 L 2.67,25.07 L 2.67,23.98 Z" fill="#a4843c" stroke="none" /><path d="M 9.03,18.29 L 9.03,19.40 L 9.86,19.82 L 9.92,19.88 L 9.92,20.90 L 9.89,20.93 L 9.03,20.52 L 9.03,21.63 L 9.86,22.04 L 9.92,22.04 L 9.92,21.03 L 9.96,20.99 L 10.78,21.41 L 10.85,21.41 L 10.85,20.29 L 9.99,19.88 L 9.92,19.82 L 9.92,18.74 Z" fill="#a4843c" stroke="none" /><path d="M 0.00,18.23 L 0.00,19.34 L 0.83,19.75 L 0.89,19.75 L 0.89,18.64 L 0.06,18.23 Z" fill="#a4843c" stroke="none" /><path d="M 12.63,15.65 L 12.63,16.76 L 13.55,17.24 L 13.55,18.35 L 14.41,18.77 L 14.41,16.54 Z" fill="#a4843c" stroke="none" /><path d="M 1.78,14.66 L 1.78,16.89 L 3.59,17.81 L 3.59,18.89 L 4.42,19.31 L 4.49,19.37 L 4.49,20.45 L 5.41,20.93 L 5.41,22.04 L 6.30,22.49 L 6.30,23.57 L 7.16,24.02 L 7.22,24.02 L 7.22,23.00 L 7.25,22.97 L 8.11,23.38 L 8.11,22.27 L 5.41,20.90 L 5.41,19.79 L 4.55,19.37 L 4.49,19.31 L 4.49,18.23 L 3.59,17.78 L 3.59,16.67 L 2.74,16.25 L 2.67,16.19 L 2.67,15.11 Z" fill="#a4843c" stroke="none" /><path d="M 5.41,12.06 L 5.41,13.17 L 6.30,13.61 L 6.30,14.73 L 7.22,15.17 L 7.22,12.95 L 5.47,12.06 Z" fill="#a4843c" stroke="none" /><path d="M 1.84,8.08 L 1.78,8.08 L 1.78,9.07 L 1.75,9.10 L 0.89,8.68 L 0.89,9.80 L 1.72,10.21 L 1.78,10.21 L 1.78,9.19 L 1.81,9.16 L 2.67,9.57 L 2.67,8.49 Z" fill="#a4843c" stroke="none" /><path d="M 13.55,26.08 L 12.63,25.64 L 12.63,27.80 L 12.60,27.83 L 11.80,27.42 L 11.74,27.42 L 11.74,28.47 L 11.71,28.50 L 9.07,27.17 L 9.03,27.17 L 9.03,28.28 L 11.74,29.61 L 11.74,28.56 L 11.77,28.53 L 12.56,28.95 L 12.63,28.95 L 12.63,27.90 L 12.66,27.86 L 13.55,28.31 Z" fill="#a49251" stroke="none" /><path d="M 6.30,22.46 L 5.47,22.04 L 5.41,22.04 L 5.41,24.17 L 5.34,24.21 L 4.55,23.79 L 4.49,23.79 L 4.49,24.84 L 4.45,24.87 L 2.67,23.98 L 2.67,25.10 L 4.45,25.99 L 4.49,25.99 L 4.49,24.94 L 4.52,24.91 L 5.41,25.35 L 5.41,24.30 L 5.44,24.27 L 6.30,24.68 Z" fill="#a49251" stroke="none" /><path d="M 13.55,17.21 L 12.63,16.76 L 12.63,18.93 L 12.60,18.96 L 11.80,18.54 L 11.74,18.54 L 11.74,19.59 L 11.71,19.63 L 9.92,18.74 L 9.92,19.85 L 11.67,20.74 L 11.74,20.74 L 11.74,19.69 L 11.77,19.66 L 12.56,20.07 L 12.63,20.07 L 12.63,19.02 L 12.66,18.99 L 13.55,19.44 Z" fill="#a49251" stroke="none" /><path d="M 6.30,13.58 L 5.47,13.17 L 5.41,13.17 L 5.41,15.30 L 5.34,15.33 L 4.55,14.92 L 4.49,14.92 L 4.49,15.97 L 4.45,16.00 L 2.67,15.11 L 2.67,16.22 L 4.42,17.11 L 4.49,17.11 L 4.49,16.06 L 4.52,16.03 L 5.41,16.48 L 5.41,15.43 L 5.44,15.40 L 6.30,15.81 Z" fill="#a49251" stroke="none" /><path d="M 10.85,12.56 L 10.88,12.63 L 12.60,13.49 L 12.69,13.49 L 14.41,12.63 L 14.41,12.60 L 13.52,12.15 L 12.63,12.60 L 12.56,12.60 L 11.71,12.15 Z" fill="#fccc5c" stroke="none" /><path d="M 18.04,8.97 L 18.07,9.03 L 19.79,9.89 L 19.88,9.89 L 21.63,9.00 L 21.63,8.97 L 20.80,8.56 L 20.68,8.56 L 19.88,8.97 L 19.79,8.97 L 18.99,8.56 L 18.86,8.56 Z" fill="#fccc5c" stroke="none" /><path d="M 3.63,8.94 L 3.63,9.00 L 5.34,9.86 L 5.47,9.86 L 7.16,9.00 L 7.16,8.97 L 6.33,8.56 L 6.20,8.56 L 5.41,8.97 L 5.31,8.97 L 4.52,8.56 L 4.39,8.56 Z" fill="#fccc5c" stroke="none" /><path d="M 10.82,8.08 L 10.82,8.11 L 11.64,8.52 L 11.61,8.59 L 10.82,8.97 L 10.82,9.00 L 11.67,9.45 L 11.74,9.45 L 12.60,9.00 L 13.49,9.45 L 13.55,9.45 L 14.38,9.03 L 14.38,8.97 L 13.55,8.56 L 13.46,8.56 L 12.66,8.97 L 12.56,8.97 L 11.80,8.59 L 11.77,8.56 L 11.80,8.49 L 12.60,8.11 L 12.60,8.08 L 11.71,7.63 Z" fill="#fccc5c" stroke="none" /><path d="M 26.24,6.74 L 26.12,6.74 L 25.29,7.16 L 25.32,7.22 L 26.15,7.63 L 25.32,8.05 L 25.29,8.11 L 26.12,8.52 L 27.04,8.08 L 27.04,8.05 L 26.21,7.63 L 27.04,7.22 L 27.07,7.16 Z" fill="#fccc5c" stroke="none" /><path d="M 16.25,5.34 L 16.25,5.41 L 17.08,5.82 L 17.18,5.82 L 18.00,5.41 L 18.00,5.34 L 17.18,4.93 L 17.08,4.93 Z" fill="#fccc5c" stroke="none" /><path d="M 14.44,5.34 L 14.44,5.41 L 15.27,5.82 L 15.36,5.82 L 16.19,5.41 L 16.19,5.34 L 15.36,4.93 L 15.27,4.93 Z" fill="#fccc5c" stroke="none" /><path d="M 10.78,6.30 L 11.71,6.74 L 14.38,5.41 L 14.38,5.34 L 13.55,4.93 L 13.46,4.93 L 12.60,5.38 L 11.74,4.93 L 11.64,4.93 L 10.82,5.34 L 10.82,5.41 L 11.64,5.82 L 11.58,5.88 L 10.78,6.27 Z" fill="#fccc5c" stroke="none" /><path d="M 18.07,5.34 L 18.07,5.41 L 18.89,5.82 L 18.99,5.82 L 19.85,5.38 L 20.71,5.82 L 20.80,5.82 L 21.63,5.41 L 21.63,5.34 L 19.91,4.49 L 19.79,4.49 Z" fill="#fccc5c" stroke="none" /><path d="M 6.23,4.90 L 5.38,4.49 L 4.55,4.90 L 4.52,4.96 L 5.38,5.38 L 6.20,4.96 Z" fill="#fccc5c" stroke="none" /><path d="M 18.04,2.64 L 18.04,2.67 L 18.93,3.12 L 19.79,2.70 L 19.75,2.64 L 18.93,2.23 L 18.86,2.23 Z" fill="#fccc5c" stroke="none" /><path d="M 14.38,1.72 L 12.63,0.86 L 10.85,1.75 L 10.85,1.78 L 11.64,2.19 L 11.74,2.19 L 12.60,1.75 L 13.46,2.19 L 13.55,2.19 L 14.38,1.78 Z" fill="#fccc5c" stroke="none" /><path d="M 12.56,9.00 L 10.82,9.89 L 10.82,9.92 L 11.64,10.34 L 11.61,10.40 L 10.82,10.78 L 10.85,10.85 L 11.58,11.20 L 11.64,11.26 L 10.82,11.67 L 10.82,11.74 L 12.53,12.60 L 12.66,12.60 L 13.49,12.18 L 13.49,12.15 L 11.74,11.26 L 11.80,11.20 L 12.60,10.82 L 12.60,10.78 L 11.80,10.40 L 11.77,10.34 L 13.49,9.48 L 13.49,9.42 L 12.66,9.00 Z" fill="#fce17d" stroke="none" /><path d="M 19.88,5.38 L 19.82,5.38 L 18.04,6.27 L 18.04,6.30 L 18.83,6.68 L 18.89,6.74 L 18.07,7.16 L 18.07,7.22 L 18.89,7.63 L 18.07,8.05 L 18.04,8.11 L 19.82,9.00 L 20.74,8.56 L 20.74,8.52 L 18.96,7.63 L 19.82,7.19 L 19.82,7.16 L 18.99,6.74 L 19.05,6.68 L 20.74,5.85 L 20.71,5.79 Z" fill="#fce17d" stroke="none" /><path d="M 6.30,4.93 L 6.20,4.93 L 3.56,6.27 L 3.56,6.30 L 4.39,6.71 L 4.36,6.78 L 3.56,7.16 L 3.56,7.19 L 4.42,7.63 L 3.59,8.05 L 3.56,8.11 L 5.34,9.00 L 6.27,8.56 L 6.27,8.52 L 4.49,7.63 L 5.34,7.19 L 5.34,7.16 L 4.55,6.78 L 4.52,6.74 L 4.55,6.68 L 7.13,5.41 L 7.13,5.34 Z" fill="#fce17d" stroke="none" /><path d="M 12.56,1.75 L 10.78,2.64 L 10.78,2.67 L 11.58,3.05 L 11.64,3.12 L 10.82,3.53 L 10.82,3.59 L 11.64,4.01 L 11.58,4.07 L 10.78,4.45 L 10.78,4.49 L 12.56,5.38 L 12.63,5.38 L 13.46,4.96 L 13.49,4.90 L 11.80,4.07 L 11.74,4.01 L 12.56,3.59 L 12.56,3.53 L 11.74,3.12 L 11.80,3.05 L 13.49,2.23 L 13.49,2.19 L 12.63,1.75 Z" fill="#fce17d" stroke="none" /></svg>