<svg height="32" width="32" viewBox="0 0 32 32"><defs /><path d="M 15.27,20.55 L 14.41,20.96 L 14.41,24.30 L 15.27,23.89 L 15.27,22.81 L 15.33,22.74 L 16.19,22.33 L 16.19,21.22 L 16.13,21.22 L 15.30,21.63 L 15.27,21.60 Z" fill="#68748c" stroke="none" /><path d="M 21.60,19.63 L 21.53,19.63 L 20.71,20.04 L 20.71,21.12 L 20.64,21.18 L 19.79,21.60 L 19.79,22.71 L 18.89,23.16 L 18.89,25.35 L 18.83,25.42 L 17.97,25.83 L 17.97,28.06 L 17.08,28.50 L 17.08,29.58 L 17.02,29.65 L 15.27,30.50 L 15.27,31.59 L 17.97,30.25 L 17.97,29.20 L 18.04,29.14 L 19.79,28.28 L 19.79,26.08 L 19.85,26.02 L 20.71,25.61 L 20.71,23.41 L 20.77,23.35 L 21.60,22.93 L 21.60,21.85 L 21.66,21.79 L 22.52,21.38 L 22.52,20.26 L 22.46,20.26 L 21.63,20.68 L 21.60,20.64 Z" fill="#68748c" stroke="none" /><path d="M 28.82,16.00 L 27.93,16.45 L 27.93,17.53 L 27.04,17.97 L 27.04,19.09 L 26.15,19.53 L 26.15,20.64 L 26.21,20.64 L 27.01,20.23 L 27.04,20.26 L 27.04,21.31 L 27.93,20.87 L 27.93,18.67 L 28.82,18.23 Z" fill="#68748c" stroke="none" /><path d="M 24.33,13.81 L 21.60,15.17 L 21.60,16.25 L 20.71,16.70 L 20.71,18.93 L 20.77,18.93 L 21.60,18.51 L 21.60,17.40 L 21.63,17.37 L 23.41,16.48 L 23.41,15.40 L 23.48,15.33 L 24.33,14.92 Z" fill="#68748c" stroke="none" /><path d="M 17.08,13.04 L 14.41,14.38 L 14.41,17.65 L 15.27,17.24 L 15.27,16.13 L 16.19,15.65 L 16.19,14.57 L 17.08,14.12 Z" fill="#68748c" stroke="none" /><path d="M 28.82,8.24 L 27.93,8.68 L 27.93,9.77 L 27.04,10.21 L 27.04,12.44 L 27.10,12.44 L 27.93,12.02 L 27.93,10.91 L 28.82,10.47 Z" fill="#68748c" stroke="none" /><path d="M 17.97,26.97 L 17.91,26.97 L 17.08,27.39 L 17.08,28.50 L 16.19,28.95 L 16.19,30.06 L 17.08,29.61 L 17.08,28.53 L 17.97,28.09 Z" fill="#6a768c" stroke="none" /><path d="M 18.89,24.30 L 18.83,24.30 L 17.97,24.75 L 17.97,25.83 L 18.04,25.83 L 18.89,25.38 Z" fill="#6a768c" stroke="none" /><path d="M 21.60,24.05 L 21.53,24.05 L 20.71,24.46 L 20.71,25.57 L 19.79,26.05 L 19.79,27.17 L 20.71,26.72 L 20.71,25.61 L 21.60,25.16 Z" fill="#6a768c" stroke="none" /><path d="M 27.04,20.23 L 26.97,20.23 L 26.15,20.64 L 26.15,21.73 L 26.08,21.79 L 25.22,22.20 L 25.22,23.32 L 24.33,23.76 L 24.33,25.96 L 24.27,26.02 L 23.41,26.43 L 23.41,27.51 L 26.15,26.15 L 26.15,22.90 L 26.21,22.84 L 27.04,22.43 Z" fill="#6a768c" stroke="none" /><path d="M 28.82,18.23 L 28.76,18.23 L 27.93,18.64 L 27.93,19.75 L 27.99,19.75 L 28.82,19.34 Z" fill="#6a768c" stroke="none" /><path d="M 28.82,14.89 L 27.93,15.33 L 27.93,16.45 L 28.82,16.00 Z" fill="#6a768c" stroke="none" /><path d="M 28.82,10.47 L 28.76,10.47 L 27.93,10.88 L 27.93,11.99 L 27.99,11.99 L 28.82,11.58 Z" fill="#6a768c" stroke="none" /><path d="M 27.93,8.68 L 27.04,9.13 L 27.04,10.21 L 26.15,10.66 L 26.15,11.77 L 25.22,12.25 L 25.22,13.33 L 25.16,13.39 L 24.40,13.77 L 24.33,13.74 L 24.33,12.69 L 23.44,13.14 L 23.41,13.11 L 23.41,12.06 L 24.33,11.58 L 24.33,10.50 L 25.22,10.05 L 25.22,8.97 L 23.41,9.86 L 23.41,10.91 L 23.35,10.97 L 22.52,11.39 L 22.52,12.47 L 21.60,12.95 L 21.60,14.03 L 21.53,14.09 L 19.79,14.95 L 19.79,16.06 L 18.89,16.51 L 18.89,18.70 L 18.83,18.77 L 17.97,19.18 L 17.97,20.29 L 17.94,20.33 L 16.22,21.18 L 16.19,21.15 L 16.19,18.99 L 17.08,18.54 L 17.08,16.32 L 16.22,16.73 L 16.19,16.70 L 16.19,15.65 L 15.27,16.10 L 15.27,17.21 L 15.33,17.21 L 16.16,16.80 L 16.19,16.83 L 16.19,17.84 L 16.13,17.91 L 15.27,18.32 L 15.27,19.40 L 15.20,19.47 L 14.41,19.85 L 14.41,20.96 L 14.47,20.96 L 15.24,20.58 L 15.27,20.61 L 15.27,21.66 L 16.16,21.22 L 16.19,21.25 L 16.19,22.30 L 15.27,22.78 L 15.27,23.86 L 14.41,24.30 L 14.41,25.42 L 15.27,25.00 L 15.27,23.89 L 15.30,23.86 L 17.08,22.97 L 17.08,21.88 L 17.11,21.85 L 18.89,20.96 L 18.89,19.88 L 18.96,19.82 L 19.79,19.40 L 19.79,18.32 L 19.85,18.26 L 20.71,17.84 L 20.71,16.73 L 21.60,16.29 L 21.60,15.20 L 21.66,15.14 L 22.52,14.73 L 22.52,13.61 L 22.55,13.58 L 23.38,13.17 L 23.41,13.20 L 23.41,14.25 L 23.48,14.25 L 24.30,13.84 L 24.33,13.87 L 24.33,14.89 L 23.41,15.36 L 23.41,16.45 L 23.35,16.51 L 21.60,17.37 L 21.60,20.71 L 23.41,19.82 L 23.41,18.70 L 22.55,19.12 L 22.52,19.09 L 22.52,18.07 L 22.58,18.00 L 23.41,17.59 L 23.41,16.51 L 23.48,16.45 L 24.33,16.03 L 24.33,14.92 L 27.04,13.55 L 27.04,10.24 L 27.93,9.80 Z" fill="#6a768c" stroke="none" /><path d="M 28.82,19.34 L 28.76,19.34 L 27.93,19.75 L 27.93,20.83 L 27.86,20.90 L 27.04,21.31 L 27.04,22.39 L 26.97,22.46 L 26.15,22.87 L 26.15,25.07 L 26.21,25.07 L 27.04,24.65 L 27.04,23.57 L 27.10,23.51 L 28.82,22.65 Z" fill="#6c778c" stroke="none" /><path d="M 20.71,17.84 L 20.64,17.84 L 19.79,18.29 L 19.79,19.37 L 19.72,19.44 L 18.89,19.85 L 18.89,20.93 L 18.83,20.99 L 17.08,21.85 L 17.08,22.93 L 17.02,23.00 L 15.27,23.86 L 15.27,24.97 L 14.41,25.42 L 14.41,27.61 L 14.47,27.61 L 15.27,27.20 L 15.27,26.12 L 15.30,26.08 L 17.02,25.22 L 17.08,25.26 L 17.08,26.27 L 16.19,26.72 L 16.19,28.95 L 15.27,29.42 L 15.27,30.50 L 14.41,30.95 L 14.41,32.00 L 14.47,32.00 L 15.27,31.59 L 15.27,30.54 L 16.19,30.06 L 16.19,28.98 L 17.08,28.53 L 17.08,27.42 L 17.97,26.97 L 17.97,24.78 L 18.04,24.72 L 18.89,24.30 L 18.89,23.19 L 19.79,22.74 L 19.79,21.63 L 20.71,21.15 L 20.71,20.07 L 21.60,19.63 L 21.60,18.51 L 21.53,18.51 L 20.74,18.93 L 20.71,18.89 Z" fill="#6c778c" stroke="none" /><path d="M 28.82,11.58 L 28.76,11.58 L 27.04,12.44 L 27.04,13.52 L 26.97,13.58 L 24.33,14.89 L 24.33,16.00 L 23.41,16.48 L 23.41,17.56 L 23.35,17.62 L 22.52,18.04 L 22.52,19.15 L 24.33,18.26 L 24.33,17.15 L 25.22,16.70 L 25.22,15.59 L 25.26,15.55 L 27.01,14.70 L 27.04,14.73 L 27.04,16.86 L 26.97,16.92 L 26.15,17.34 L 26.15,18.42 L 25.22,18.89 L 25.22,19.98 L 25.16,20.04 L 23.41,20.90 L 23.41,22.01 L 23.38,22.04 L 22.55,22.46 L 22.52,22.43 L 22.52,21.38 L 22.46,21.38 L 21.60,21.82 L 21.60,22.90 L 21.53,22.97 L 20.71,23.38 L 20.71,24.46 L 20.77,24.46 L 21.57,24.05 L 21.60,24.08 L 21.60,25.13 L 20.71,25.57 L 20.71,26.69 L 19.79,27.17 L 19.79,28.25 L 17.97,29.17 L 17.97,30.22 L 18.04,30.22 L 19.75,29.36 L 19.79,29.33 L 19.79,28.28 L 21.53,27.39 L 21.60,27.42 L 21.60,28.41 L 21.66,28.41 L 23.38,27.55 L 23.41,27.51 L 23.41,26.47 L 24.33,25.99 L 24.33,23.79 L 25.22,23.35 L 25.22,22.23 L 26.15,21.76 L 26.15,19.56 L 27.04,19.12 L 27.04,18.00 L 27.93,17.56 L 27.93,15.36 L 27.99,15.30 L 28.82,14.89 L 28.82,13.77 L 27.07,14.63 L 27.04,14.60 L 27.04,13.58 L 27.10,13.52 L 28.82,12.66 Z" fill="#6c778c" stroke="none" /><path d="M 23.41,9.89 L 23.35,9.89 L 20.74,11.20 L 20.71,11.23 L 20.71,12.28 L 19.79,12.76 L 19.79,13.84 L 18.04,14.73 L 17.97,14.70 L 17.97,13.68 L 18.89,13.20 L 18.89,12.15 L 18.83,12.15 L 17.08,13.04 L 17.08,14.09 L 16.19,14.54 L 16.19,16.73 L 16.13,16.80 L 14.41,17.65 L 14.41,19.85 L 14.47,19.85 L 15.27,19.44 L 15.27,18.35 L 16.19,17.88 L 16.19,16.80 L 16.25,16.73 L 17.05,16.35 L 17.08,16.38 L 17.08,18.51 L 16.19,18.96 L 16.19,21.18 L 16.25,21.18 L 17.97,20.33 L 17.97,19.21 L 18.89,18.74 L 18.89,16.54 L 19.75,16.10 L 19.79,16.13 L 19.79,17.18 L 20.71,16.73 L 20.71,15.62 L 19.82,16.06 L 19.79,16.03 L 19.79,14.98 L 21.60,14.06 L 21.60,12.98 L 21.66,12.91 L 22.52,12.50 L 22.52,11.42 L 22.58,11.36 L 23.41,10.94 Z" fill="#6c778c" stroke="none" /><path d="M 27.04,9.13 L 26.15,9.57 L 26.15,10.66 L 25.29,11.10 L 25.22,11.07 L 25.22,10.05 L 25.16,10.05 L 24.33,10.47 L 24.33,11.55 L 24.27,11.61 L 23.41,12.02 L 23.41,13.14 L 22.52,13.58 L 22.52,14.70 L 22.58,14.70 L 23.41,14.28 L 23.41,13.17 L 24.27,12.72 L 24.33,12.76 L 24.33,13.81 L 25.22,13.36 L 25.22,12.28 L 25.29,12.21 L 26.15,11.80 L 26.15,10.69 L 27.04,10.24 Z" fill="#6c778c" stroke="none" /><path d="M 28.82,7.19 L 28.76,7.19 L 27.93,7.60 L 27.93,8.68 L 28.82,8.24 Z" fill="#6c778c" stroke="none" /><path d="M 22.52,25.80 L 21.60,26.24 L 21.60,27.32 L 21.53,27.39 L 20.71,27.80 L 20.71,28.85 L 20.77,28.85 L 21.60,28.44 L 21.60,27.39 L 21.66,27.32 L 22.52,26.91 Z" fill="#707a8c" stroke="none" /><path d="M 17.97,23.63 L 17.08,24.08 L 17.08,25.16 L 17.02,25.22 L 15.27,26.08 L 15.27,27.17 L 15.20,27.23 L 14.41,27.61 L 14.41,28.72 L 14.47,28.72 L 15.20,28.34 L 15.27,28.37 L 15.27,29.39 L 15.20,29.46 L 14.41,29.84 L 14.41,30.95 L 15.27,30.54 L 15.27,29.46 L 15.33,29.39 L 16.19,28.98 L 16.19,26.75 L 17.08,26.31 L 17.08,25.22 L 17.15,25.16 L 17.97,24.75 Z" fill="#707a8c" stroke="none" /><path d="M 28.82,23.76 L 28.76,23.76 L 27.96,24.17 L 27.93,24.14 L 27.93,23.09 L 27.07,23.51 L 27.04,23.54 L 27.04,24.62 L 26.15,25.07 L 26.15,26.15 L 27.04,25.70 L 27.04,24.65 L 27.90,24.21 L 27.93,24.24 L 27.93,25.26 L 28.79,24.84 L 28.82,24.81 Z" fill="#707a8c" stroke="none" /><path d="M 28.82,12.66 L 27.07,13.52 L 27.04,13.55 L 27.04,14.63 L 26.97,14.70 L 25.22,15.55 L 25.22,16.67 L 24.33,17.11 L 24.33,18.23 L 23.41,18.70 L 23.41,19.79 L 22.52,20.23 L 22.52,22.46 L 21.60,22.93 L 21.60,24.02 L 21.66,24.02 L 22.52,23.57 L 22.52,22.49 L 23.41,22.04 L 23.41,19.82 L 24.30,19.37 L 24.33,19.40 L 24.33,20.45 L 25.22,20.01 L 25.22,18.93 L 25.29,18.86 L 26.15,18.45 L 26.15,17.37 L 26.21,17.30 L 27.04,16.89 L 27.04,14.70 L 27.10,14.63 L 28.82,13.77 Z" fill="#707a8c" stroke="none" /><path d="M 20.71,11.23 L 19.79,11.67 L 19.79,12.72 L 19.72,12.79 L 17.97,13.65 L 17.97,14.76 L 19.79,13.87 L 19.79,12.79 L 19.85,12.72 L 20.71,12.31 Z" fill="#707a8c" stroke="none" /><path d="M 27.93,7.63 L 27.86,7.63 L 25.22,8.97 L 25.22,11.10 L 25.16,11.17 L 24.33,11.58 L 24.33,12.69 L 25.22,12.25 L 25.22,11.17 L 25.29,11.10 L 26.15,10.69 L 26.15,9.61 L 26.21,9.54 L 27.93,8.68 Z" fill="#707a8c" stroke="none" /><path d="M 20.71,27.80 L 19.79,28.25 L 19.79,29.33 L 20.71,28.88 Z" fill="#78808c" stroke="none" /><path d="M 27.93,24.21 L 27.86,24.21 L 27.04,24.62 L 27.04,25.70 L 27.93,25.26 Z" fill="#78808c" stroke="none" /><path d="M 26.15,16.22 L 25.22,16.67 L 25.22,17.78 L 24.33,18.23 L 24.33,19.34 L 25.22,18.89 L 25.22,17.81 L 26.15,17.34 Z" fill="#78808c" stroke="none" /><path d="M 19.79,11.71 L 19.72,11.71 L 18.89,12.12 L 18.89,13.20 L 19.79,12.76 Z" fill="#78808c" stroke="none" /><path d="M 15.27,28.31 L 14.41,28.72 L 14.41,29.84 L 14.47,29.84 L 15.27,29.42 Z" fill="#7c828c" stroke="none" /><path d="M 28.82,22.65 L 27.93,23.09 L 27.93,24.17 L 27.99,24.17 L 28.82,23.76 Z" fill="#7c828c" stroke="none" /><path d="M 24.33,19.34 L 23.41,19.79 L 23.41,20.90 L 23.48,20.90 L 24.33,20.45 Z" fill="#7c828c" stroke="none" /><path d="M 13.58,22.78 L 13.55,22.78 L 13.55,23.83 L 13.52,23.86 L 12.63,23.41 L 12.63,24.46 L 12.60,24.49 L 11.74,24.08 L 11.74,25.19 L 12.56,25.61 L 12.63,25.67 L 12.63,26.75 L 13.52,27.20 L 13.55,27.20 L 13.55,25.03 L 13.58,25.00 L 14.41,25.42 L 14.41,23.19 Z" fill="#8194ba" stroke="none" /><path d="M 7.22,19.59 L 6.30,19.15 L 6.30,20.20 L 6.27,20.23 L 5.47,19.82 L 5.41,19.82 L 5.41,20.87 L 5.38,20.90 L 4.49,20.45 L 4.49,22.62 L 4.45,22.65 L 3.66,22.23 L 3.59,22.23 L 3.59,24.40 L 3.56,24.43 L 2.67,23.98 L 2.67,25.03 L 2.64,25.07 L 0.95,24.21 L 0.89,24.21 L 0.89,25.26 L 3.53,26.59 L 3.59,26.59 L 3.59,25.61 L 3.63,25.57 L 5.34,26.43 L 5.41,26.43 L 5.41,24.30 L 5.47,24.27 L 6.30,24.68 L 6.30,22.52 L 6.33,22.49 L 7.22,22.93 L 7.22,21.88 L 7.25,21.85 L 8.11,22.27 L 8.11,21.15 L 7.28,20.74 L 7.22,20.68 Z" fill="#8194ba" stroke="none" /><path d="M 6.30,15.81 L 6.30,18.04 L 6.33,18.07 L 7.16,18.48 L 7.22,18.48 L 7.22,17.43 L 7.25,17.40 L 9.03,18.29 L 9.03,17.24 L 9.07,17.21 L 9.92,17.62 L 9.92,16.51 L 7.25,15.17 L 7.22,15.17 L 7.22,16.22 L 7.19,16.25 Z" fill="#8194ba" stroke="none" /><path d="M 13.58,15.01 L 13.55,15.01 L 13.55,16.06 L 13.52,16.10 L 12.63,15.65 L 12.63,17.88 L 13.49,18.32 L 13.55,18.32 L 13.55,17.27 L 13.58,17.24 L 14.41,17.65 L 14.41,15.43 Z" fill="#8194ba" stroke="none" /><path d="M 0.00,13.77 L 0.00,17.11 L 0.83,17.53 L 0.89,17.53 L 0.89,16.51 L 0.92,16.48 L 1.78,16.89 L 1.78,15.78 L 0.95,15.36 L 0.89,15.30 L 0.89,14.22 Z" fill="#8194ba" stroke="none" /><path d="M 0.00,7.19 L 0.00,10.47 L 0.83,10.88 L 0.89,10.88 L 0.89,9.83 L 0.92,9.80 L 1.72,10.21 L 1.78,10.21 L 1.78,9.19 L 1.81,9.16 L 2.67,9.57 L 2.67,8.49 L 0.06,7.19 Z" fill="#8194ba" stroke="none" /><path d="M 11.77,25.19 L 11.74,25.19 L 11.74,26.24 L 11.71,26.27 L 10.91,25.86 L 10.85,25.86 L 10.85,26.91 L 10.82,26.94 L 9.92,26.50 L 9.92,28.66 L 9.89,28.69 L 9.10,28.28 L 9.03,28.28 L 9.03,29.33 L 9.07,29.36 L 11.67,30.66 L 11.74,30.66 L 11.74,27.45 L 11.77,27.42 L 12.56,27.83 L 12.63,27.83 L 12.63,25.64 Z" fill="#8497ba" stroke="none" /><path d="M 13.55,25.00 L 13.55,26.12 L 14.41,26.53 L 14.41,25.42 L 13.61,25.00 Z" fill="#8497ba" stroke="none" /><path d="M 6.33,23.57 L 6.30,23.57 L 6.30,24.62 L 6.27,24.65 L 5.41,24.24 L 5.41,25.35 L 6.27,25.80 L 6.30,25.80 L 6.30,24.75 L 6.33,24.72 L 7.16,25.13 L 7.22,25.13 L 7.22,24.02 Z" fill="#8497ba" stroke="none" /><path d="M 2.70,22.87 L 2.67,22.87 L 2.67,23.92 L 2.64,23.95 L 1.78,23.54 L 1.78,24.65 L 2.61,25.07 L 2.67,25.07 L 2.67,24.05 L 2.70,24.02 L 3.53,24.43 L 3.59,24.43 L 3.59,23.32 Z" fill="#8497ba" stroke="none" /><path d="M 13.55,21.66 L 13.55,22.78 L 14.35,23.19 L 14.41,23.19 L 14.41,22.08 Z" fill="#8497ba" stroke="none" /><path d="M 3.59,21.12 L 3.59,22.23 L 4.42,22.65 L 4.49,22.65 L 4.49,21.57 Z" fill="#8497ba" stroke="none" /><path d="M 13.55,17.24 L 13.55,18.35 L 14.41,18.77 L 14.41,17.65 L 13.61,17.24 Z" fill="#8497ba" stroke="none" /><path d="M 0.89,9.80 L 0.89,10.91 L 1.78,11.36 L 1.78,12.41 L 1.75,12.44 L 0.95,12.02 L 0.89,12.02 L 0.89,13.04 L 0.86,13.07 L 0.00,12.66 L 0.00,13.77 L 0.83,14.19 L 0.89,14.25 L 0.89,15.33 L 1.72,15.75 L 1.78,15.81 L 1.78,16.83 L 1.72,16.86 L 0.89,16.45 L 0.89,17.50 L 0.86,17.53 L 0.06,17.11 L 0.00,17.11 L 0.00,18.23 L 0.83,18.64 L 0.89,18.64 L 0.89,17.59 L 0.92,17.56 L 2.61,18.42 L 2.67,18.42 L 2.67,17.40 L 2.70,17.37 L 4.42,18.23 L 4.49,18.23 L 4.49,17.18 L 4.52,17.15 L 5.41,17.59 L 5.41,16.54 L 5.47,16.51 L 6.30,16.92 L 6.30,15.87 L 6.36,15.84 L 7.16,16.25 L 7.22,16.25 L 7.22,15.24 L 7.25,15.20 L 8.11,15.62 L 8.11,14.57 L 8.17,14.54 L 9.03,14.98 L 9.03,16.10 L 9.92,16.54 L 9.92,17.56 L 9.86,17.59 L 9.03,17.18 L 9.03,18.23 L 8.97,18.26 L 7.28,17.40 L 7.22,17.40 L 7.22,20.71 L 7.25,20.74 L 8.97,21.60 L 9.03,21.60 L 9.03,20.52 L 8.11,20.04 L 8.11,18.99 L 8.14,18.96 L 9.03,19.40 L 9.03,18.35 L 9.10,18.32 L 9.92,18.74 L 9.92,17.69 L 9.96,17.65 L 12.56,18.96 L 12.63,18.96 L 12.63,15.71 L 12.69,15.68 L 13.49,16.10 L 13.55,16.10 L 13.55,15.01 L 12.69,14.57 L 12.63,14.57 L 12.63,15.59 L 12.60,15.62 L 11.74,15.20 L 11.74,16.25 L 11.71,16.29 L 10.85,15.87 L 10.85,16.92 L 10.82,16.95 L 9.96,16.54 L 9.92,16.51 L 9.92,15.40 L 9.03,14.95 L 9.03,13.90 L 9.07,13.87 L 9.86,14.28 L 9.92,14.28 L 9.92,13.26 L 9.96,13.23 L 10.78,13.65 L 10.85,13.65 L 10.85,12.60 L 9.10,11.71 L 9.03,11.71 L 9.03,12.69 L 9.00,12.72 L 8.17,12.31 L 8.11,12.31 L 8.11,13.33 L 8.08,13.36 L 7.22,12.95 L 7.22,14.00 L 7.19,14.03 L 5.47,13.17 L 5.41,13.17 L 5.41,14.22 L 5.38,14.25 L 4.49,13.81 L 4.49,15.97 L 4.45,16.00 L 3.66,15.59 L 3.59,15.59 L 3.59,16.64 L 3.56,16.67 L 1.84,15.81 L 1.78,15.75 L 1.78,13.61 L 1.84,13.58 L 2.67,14.00 L 2.67,11.77 L 1.78,11.32 L 1.78,10.21 L 0.95,9.80 Z" fill="#8497ba" stroke="none" /><path d="M 13.61,26.12 L 13.55,26.12 L 13.55,27.13 L 13.52,27.17 L 12.69,26.75 L 12.63,26.75 L 12.63,27.80 L 12.60,27.83 L 11.80,27.42 L 11.74,27.42 L 11.74,29.61 L 12.60,30.06 L 12.63,30.06 L 12.63,29.01 L 12.66,28.98 L 14.35,29.84 L 14.41,29.84 L 14.41,26.53 Z" fill="#879aba" stroke="none" /><path d="M 12.66,17.88 L 12.63,17.88 L 12.63,18.93 L 12.60,18.96 L 9.96,17.62 L 9.92,17.62 L 9.92,18.67 L 9.89,18.70 L 9.03,18.29 L 9.03,19.34 L 9.00,19.37 L 8.17,18.96 L 8.11,18.96 L 8.11,20.07 L 9.89,20.96 L 9.92,20.96 L 9.92,19.91 L 9.96,19.88 L 10.78,20.29 L 10.85,20.29 L 10.85,19.24 L 10.88,19.21 L 12.60,20.07 L 12.63,20.10 L 12.63,22.27 L 12.60,22.30 L 11.80,21.88 L 11.74,21.88 L 11.74,22.90 L 11.71,22.93 L 10.85,22.52 L 10.85,23.57 L 10.82,23.60 L 9.10,22.74 L 9.03,22.74 L 9.03,23.79 L 9.00,23.83 L 8.17,23.41 L 8.11,23.35 L 8.11,22.27 L 7.22,21.82 L 7.22,22.87 L 7.19,22.90 L 6.36,22.49 L 6.30,22.49 L 6.30,23.57 L 7.22,24.05 L 7.22,25.10 L 7.19,25.13 L 6.30,24.68 L 6.30,25.73 L 6.23,25.77 L 5.41,25.35 L 5.41,26.40 L 5.38,26.43 L 3.59,25.54 L 3.59,26.62 L 5.41,27.51 L 5.41,26.50 L 5.44,26.47 L 7.16,27.32 L 7.22,27.39 L 7.22,28.44 L 9.00,29.33 L 9.03,29.33 L 9.03,28.31 L 9.07,28.28 L 9.86,28.69 L 9.92,28.69 L 9.92,26.56 L 9.99,26.53 L 10.78,26.94 L 10.85,26.94 L 10.85,25.89 L 10.88,25.86 L 11.67,26.27 L 11.74,26.27 L 11.74,24.14 L 11.80,24.11 L 12.63,24.52 L 12.63,23.48 L 12.66,23.44 L 13.49,23.86 L 13.55,23.86 L 13.55,21.73 L 13.61,21.69 L 14.35,22.08 L 14.41,22.08 L 14.41,20.96 L 12.63,20.07 L 12.63,19.02 L 12.66,18.99 L 14.35,19.85 L 14.41,19.85 L 14.41,18.77 Z" fill="#879aba" stroke="none" /><path d="M 6.27,16.89 L 5.41,16.48 L 5.41,17.53 L 5.38,17.56 L 4.55,17.15 L 4.49,17.15 L 4.49,18.19 L 4.45,18.23 L 2.70,17.34 L 2.67,17.34 L 2.67,18.39 L 2.64,18.42 L 0.95,17.56 L 0.89,17.56 L 0.89,18.61 L 0.86,18.64 L 0.06,18.23 L 0.00,18.23 L 0.00,20.42 L 0.03,20.45 L 0.89,20.87 L 0.89,19.82 L 0.92,19.79 L 2.67,20.68 L 2.67,21.69 L 2.64,21.73 L 1.78,21.31 L 1.78,23.48 L 1.72,23.51 L 0.89,23.09 L 0.89,24.14 L 0.86,24.17 L 0.06,23.76 L 0.00,23.76 L 0.00,24.81 L 0.03,24.84 L 0.89,25.26 L 0.89,24.24 L 0.92,24.21 L 1.72,24.62 L 1.78,24.62 L 1.78,23.60 L 1.81,23.57 L 2.67,23.98 L 2.67,22.93 L 2.70,22.90 L 3.53,23.32 L 3.59,23.32 L 3.59,21.18 L 3.66,21.15 L 4.49,21.57 L 4.49,20.52 L 4.52,20.49 L 5.34,20.90 L 5.41,20.90 L 5.41,19.85 L 5.44,19.82 L 6.23,20.23 L 6.30,20.23 L 6.30,19.21 L 6.33,19.18 L 7.16,19.59 L 7.22,19.59 L 7.22,18.48 L 6.36,18.07 L 6.30,18.00 L 6.30,16.92 Z" fill="#879aba" stroke="none" /><path d="M 13.55,13.96 L 13.55,15.01 L 14.35,15.43 L 14.41,15.43 L 14.41,14.38 L 13.61,13.96 Z" fill="#879aba" stroke="none" /><path d="M 9.92,13.20 L 9.92,14.25 L 9.89,14.28 L 9.10,13.87 L 9.03,13.87 L 9.03,14.92 L 9.00,14.95 L 8.11,14.50 L 8.11,15.62 L 8.97,16.06 L 9.03,16.06 L 9.03,15.01 L 9.07,14.98 L 9.92,15.43 L 9.92,16.54 L 10.85,16.99 L 10.85,15.94 L 10.88,15.90 L 11.74,16.32 L 11.74,15.27 L 11.77,15.24 L 12.63,15.65 L 12.63,14.54 L 11.80,14.12 L 11.74,14.12 L 11.74,15.14 L 11.67,15.17 L 10.91,14.79 L 10.85,14.73 L 10.85,13.65 Z" fill="#879aba" stroke="none" /><path d="M 2.67,8.52 L 2.67,9.51 L 2.64,9.54 L 1.78,9.13 L 1.78,11.29 L 1.75,11.32 L 0.06,10.47 L 0.00,10.47 L 0.00,12.66 L 0.89,13.11 L 0.89,12.06 L 0.92,12.02 L 1.72,12.44 L 1.78,12.44 L 1.78,11.39 L 1.81,11.36 L 2.67,11.80 L 2.67,13.93 L 2.61,13.96 L 1.78,13.55 L 1.78,15.78 L 3.53,16.67 L 3.59,16.67 L 3.59,15.62 L 3.63,15.59 L 4.42,16.00 L 4.49,16.00 L 4.49,13.87 L 4.52,13.84 L 5.41,14.28 L 5.41,15.36 L 6.30,15.81 L 6.30,14.70 L 5.41,14.25 L 5.41,13.20 L 5.44,13.17 L 7.22,14.06 L 7.22,13.01 L 7.28,12.98 L 8.11,13.39 L 8.11,12.34 L 8.14,12.31 L 9.03,12.76 L 9.03,11.67 L 6.36,10.34 L 6.30,10.34 L 6.30,11.32 L 6.27,11.36 L 5.41,10.94 L 5.41,11.99 L 5.38,12.02 L 3.66,11.17 L 3.59,11.10 L 3.59,10.08 L 3.63,10.05 L 4.42,10.47 L 4.49,10.47 L 4.49,9.42 L 2.74,8.52 Z" fill="#879aba" stroke="none" /><path d="M 11.74,29.61 L 11.74,30.70 L 12.56,31.11 L 12.63,31.11 L 12.63,30.12 L 12.69,30.09 L 13.55,30.54 L 13.55,31.59 L 14.35,32.00 L 14.41,32.00 L 14.41,30.95 L 13.55,30.50 L 13.55,29.42 L 13.52,29.39 L 12.69,28.98 L 12.63,28.98 L 12.63,30.00 L 12.60,30.03 Z" fill="#8d9ebb" stroke="none" /><path d="M 7.28,26.27 L 7.22,26.27 L 7.22,27.29 L 7.19,27.32 L 6.36,26.91 L 6.30,26.91 L 6.30,27.96 L 7.16,28.41 L 7.22,28.41 L 7.22,27.42 L 7.25,27.39 L 8.11,27.80 L 8.11,26.69 Z" fill="#8d9ebb" stroke="none" /><path d="M 3.56,19.98 L 2.74,19.56 L 2.67,19.56 L 2.67,20.61 L 2.64,20.64 L 0.95,19.79 L 0.89,19.79 L 0.89,20.80 L 0.86,20.83 L 0.00,20.42 L 0.00,21.53 L 0.83,21.95 L 0.89,22.01 L 0.89,23.03 L 0.86,23.06 L 0.00,22.65 L 0.00,23.76 L 0.83,24.17 L 0.89,24.17 L 0.89,23.16 L 0.92,23.13 L 1.78,23.54 L 1.78,21.38 L 1.84,21.34 L 2.67,21.76 L 2.67,20.71 L 2.70,20.68 L 3.59,21.12 L 3.59,20.01 Z" fill="#8d9ebb" stroke="none" /><path d="M 14.41,19.85 L 12.69,18.99 L 12.63,18.99 L 12.63,20.04 L 12.60,20.07 L 10.91,19.21 L 10.85,19.21 L 10.85,20.26 L 10.82,20.29 L 9.92,19.85 L 9.92,20.90 L 9.86,20.93 L 9.03,20.52 L 9.03,21.57 L 9.00,21.60 L 8.11,21.15 L 8.11,23.32 L 8.05,23.35 L 7.22,22.93 L 7.22,24.05 L 8.05,24.46 L 8.11,24.46 L 8.11,23.44 L 8.14,23.41 L 8.97,23.83 L 9.03,23.83 L 9.03,21.66 L 9.07,21.63 L 9.92,22.08 L 9.92,23.19 L 10.85,23.63 L 10.85,22.58 L 10.88,22.55 L 11.74,22.97 L 11.74,21.92 L 11.77,21.88 L 12.56,22.30 L 12.63,22.30 L 12.63,20.14 L 12.66,20.10 L 14.35,20.96 L 14.41,20.96 Z" fill="#8d9ebb" stroke="none" /><path d="M 9.92,14.31 L 9.92,15.43 L 10.82,15.87 L 10.85,15.87 L 10.85,14.82 L 10.88,14.79 L 11.74,15.20 L 11.74,14.16 L 11.77,14.12 L 13.55,15.01 L 13.55,13.93 L 10.88,12.60 L 10.85,12.60 L 10.85,14.70 L 10.78,14.73 L 9.99,14.31 Z" fill="#8d9ebb" stroke="none" /><path d="M 6.30,10.31 L 5.47,9.89 L 5.41,9.89 L 5.41,10.88 L 5.34,10.91 L 3.66,10.05 L 3.59,10.05 L 3.59,11.13 L 5.34,12.02 L 5.41,12.02 L 5.41,11.01 L 5.44,10.97 L 6.30,11.39 Z" fill="#8d9ebb" stroke="none" /><path d="M 12.63,30.06 L 12.63,31.14 L 13.55,31.59 L 13.55,30.50 Z" fill="#9ba6bb" stroke="none" /><path d="M 5.41,26.47 L 5.41,27.51 L 6.30,27.96 L 6.30,26.88 L 5.47,26.47 Z" fill="#9ba6bb" stroke="none" /><path d="M 10.91,20.33 L 10.85,20.33 L 10.85,21.38 L 10.82,21.41 L 9.92,20.96 L 9.92,22.08 L 10.82,22.52 L 10.85,22.52 L 10.85,21.47 L 10.88,21.44 L 11.67,21.85 L 11.74,21.85 L 11.74,20.74 Z" fill="#9ba6bb" stroke="none" /><path d="M 4.49,9.42 L 4.49,10.50 L 5.41,10.94 L 5.41,9.86 Z" fill="#9ba6bb" stroke="none" /><path d="M 13.55,29.42 L 13.55,30.54 L 14.41,30.95 L 14.41,29.84 Z" fill="#a0aabb" stroke="none" /><path d="M 9.03,21.63 L 9.03,22.74 L 9.86,23.16 L 9.92,23.16 L 9.92,22.04 L 9.10,21.63 Z" fill="#a0aabb" stroke="none" /><path d="M 0.00,21.53 L 0.00,22.65 L 0.89,23.09 L 0.89,21.98 Z" fill="#a0aabb" stroke="none" /><path d="M 11.71,12.15 L 11.71,12.18 L 12.53,12.60 L 12.50,12.66 L 11.77,13.01 L 11.77,13.07 L 13.49,13.93 L 13.61,13.93 L 14.38,13.55 L 14.38,13.49 L 13.55,13.07 L 13.61,13.01 L 14.41,12.63 L 14.41,12.60 L 12.63,11.71 L 12.56,11.71 Z" fill="#a3c1fb" stroke="none" /><path d="M 4.45,8.52 L 4.45,8.56 L 6.23,9.45 L 5.41,9.86 L 5.41,9.89 L 7.19,10.78 L 7.25,10.78 L 8.08,10.37 L 8.08,10.34 L 7.28,9.96 L 7.22,9.89 L 8.05,9.48 L 8.05,9.42 L 7.22,9.00 L 7.28,8.94 L 8.08,8.56 L 8.08,8.52 L 7.19,8.08 L 6.30,8.52 L 6.23,8.52 L 5.38,8.08 Z" fill="#a3c1fb" stroke="none" /><path d="M 18.00,8.08 L 16.25,7.19 L 16.19,7.19 L 15.36,7.60 L 15.33,7.67 L 16.13,8.05 L 16.16,8.11 L 14.44,8.97 L 14.44,9.03 L 15.27,9.45 L 14.44,9.86 L 14.44,9.92 L 15.27,10.34 L 15.36,10.34 L 17.97,9.03 L 18.00,8.97 L 17.21,8.59 L 17.18,8.52 L 18.00,8.11 Z" fill="#a3c1fb" stroke="none" /><path d="M 25.29,6.27 L 25.29,6.30 L 26.12,6.71 L 26.08,6.78 L 25.29,7.16 L 25.29,7.19 L 26.15,7.63 L 25.32,8.05 L 25.29,8.11 L 26.12,8.52 L 28.79,7.19 L 28.79,7.16 L 26.18,5.85 L 26.08,5.85 Z" fill="#a3c1fb" stroke="none" /><path d="M 19.88,3.53 L 19.88,3.59 L 20.71,4.01 L 20.64,4.07 L 19.85,4.45 L 19.85,4.49 L 20.74,4.93 L 21.63,4.49 L 21.69,4.49 L 22.55,4.93 L 23.41,4.52 L 23.38,4.45 L 20.77,3.15 L 20.64,3.15 Z" fill="#a3c1fb" stroke="none" /><path d="M 13.58,0.41 L 13.52,0.41 L 10.85,1.75 L 10.88,1.81 L 11.64,2.19 L 11.58,2.26 L 9.89,3.09 L 9.92,3.15 L 11.64,4.01 L 11.58,4.07 L 10.78,4.45 L 10.78,4.49 L 12.56,5.38 L 11.71,5.82 L 11.71,5.85 L 12.53,6.27 L 12.50,6.33 L 11.71,6.71 L 11.71,6.74 L 12.56,7.19 L 12.63,7.19 L 13.49,6.74 L 14.38,7.19 L 14.44,7.19 L 15.30,6.74 L 15.30,6.71 L 14.47,6.30 L 14.50,6.23 L 15.30,5.85 L 15.30,5.82 L 14.44,5.38 L 15.27,4.96 L 15.30,4.90 L 13.61,4.07 L 13.55,4.01 L 13.58,3.98 L 14.38,3.59 L 14.38,3.53 L 12.66,2.67 L 12.69,2.61 L 13.49,2.23 L 13.49,2.19 L 12.63,1.75 L 14.41,0.86 L 14.41,0.83 Z" fill="#a3c1fb" stroke="none" /><path d="M 10.85,12.56 L 10.88,12.63 L 11.71,13.04 L 11.77,13.04 L 12.60,12.63 L 12.60,12.60 L 11.71,12.15 Z" fill="#a8c5fc" stroke="none" /><path d="M 7.25,10.75 L 7.25,10.82 L 8.08,11.23 L 8.17,11.23 L 8.97,10.82 L 8.97,10.78 L 8.14,10.37 L 8.02,10.37 Z" fill="#a8c5fc" stroke="none" /><path d="M 4.52,9.42 L 4.52,9.45 L 5.34,9.86 L 5.47,9.86 L 6.23,9.48 L 6.23,9.42 L 5.41,9.00 L 5.31,9.00 Z" fill="#a8c5fc" stroke="none" /><path d="M 2.70,5.82 L 2.74,5.88 L 5.25,7.13 L 5.31,7.19 L 4.49,7.60 L 4.49,7.67 L 6.20,8.52 L 6.33,8.52 L 7.16,8.11 L 7.13,8.05 L 6.30,7.63 L 7.16,7.19 L 7.16,7.16 L 6.33,6.74 L 6.36,6.68 L 7.16,6.30 L 7.16,6.27 L 5.41,5.38 L 5.47,5.31 L 6.20,4.96 L 6.23,4.90 L 5.38,4.49 Z" fill="#a8c5fc" stroke="none" /><path d="M 13.52,4.01 L 13.52,4.04 L 14.35,4.45 L 14.47,4.45 L 15.30,4.04 L 15.27,3.98 L 14.44,3.56 L 14.38,3.56 Z" fill="#a8c5fc" stroke="none" /><path d="M 10.75,3.56 L 9.89,4.01 L 9.89,4.04 L 10.72,4.45 L 10.69,4.52 L 9.89,4.90 L 9.89,4.93 L 10.75,5.38 L 10.82,5.38 L 11.67,4.93 L 11.67,4.90 L 10.85,4.49 L 10.88,4.42 L 11.67,4.04 L 11.67,4.01 L 10.82,3.56 Z" fill="#a8c5fc" stroke="none" /><path d="M 26.18,6.71 L 25.29,6.27 L 24.40,6.71 L 24.33,6.71 L 23.57,6.33 L 23.51,6.27 L 23.54,6.23 L 24.33,5.85 L 24.33,5.79 L 23.51,5.38 L 23.57,5.31 L 24.30,4.96 L 24.30,4.93 L 23.44,4.49 L 22.62,4.90 L 22.52,4.90 L 21.73,4.49 L 21.60,4.49 L 20.80,4.90 L 20.71,4.90 L 19.94,4.52 L 19.91,4.49 L 19.94,4.42 L 20.74,4.04 L 20.74,4.01 L 19.88,3.56 L 20.71,3.15 L 20.71,3.12 L 19.79,2.67 L 18.96,3.09 L 18.96,3.12 L 19.82,3.56 L 18.04,4.45 L 18.04,4.49 L 18.83,4.87 L 18.89,4.93 L 17.15,5.82 L 17.15,5.85 L 17.97,6.27 L 17.94,6.33 L 17.15,6.71 L 17.15,6.74 L 18.00,7.19 L 17.15,7.63 L 17.15,7.67 L 17.97,8.08 L 17.91,8.14 L 17.11,8.52 L 17.11,8.56 L 17.91,8.94 L 17.97,9.00 L 17.15,9.42 L 17.15,9.48 L 17.97,9.89 L 17.91,9.96 L 17.15,10.34 L 17.08,10.34 L 16.22,9.89 L 15.33,10.34 L 14.47,9.92 L 14.44,9.89 L 14.47,9.86 L 15.27,9.48 L 15.27,9.42 L 14.44,9.00 L 16.22,8.11 L 16.22,8.08 L 13.55,6.74 L 13.46,6.74 L 11.74,7.60 L 11.71,7.67 L 12.53,8.08 L 12.66,8.08 L 13.46,7.67 L 13.55,7.67 L 14.31,8.05 L 14.35,8.08 L 14.31,8.14 L 13.52,8.52 L 13.52,8.56 L 14.38,9.00 L 13.55,9.42 L 13.55,9.48 L 14.38,9.89 L 11.71,11.23 L 11.71,11.26 L 14.31,12.56 L 14.35,12.60 L 14.31,12.66 L 13.52,13.04 L 13.52,13.07 L 14.38,13.52 L 14.44,13.52 L 15.30,13.07 L 15.30,13.04 L 14.47,12.63 L 14.50,12.56 L 15.30,12.18 L 15.30,12.15 L 14.44,11.71 L 15.30,11.26 L 15.30,11.23 L 14.47,10.82 L 14.50,10.75 L 15.27,10.37 L 15.36,10.37 L 16.16,10.78 L 16.29,10.78 L 17.08,10.37 L 17.15,10.37 L 17.91,10.75 L 17.97,10.82 L 17.94,10.85 L 17.15,11.23 L 17.15,11.26 L 18.00,11.71 L 17.18,12.12 L 17.15,12.18 L 17.97,12.60 L 19.79,11.71 L 19.79,11.67 L 18.96,11.26 L 19.82,10.82 L 19.82,10.78 L 18.99,10.37 L 19.02,10.31 L 19.82,9.92 L 19.82,9.89 L 18.96,9.45 L 20.74,8.56 L 20.74,8.52 L 19.94,8.14 L 19.88,8.08 L 20.71,7.67 L 20.71,7.60 L 18.99,6.74 L 19.05,6.68 L 19.85,6.30 L 19.85,6.27 L 19.05,5.88 L 18.99,5.82 L 20.74,4.93 L 22.49,5.79 L 22.52,5.82 L 22.49,5.85 L 21.69,6.23 L 21.66,6.30 L 23.44,7.19 L 24.33,6.74 L 24.40,6.74 L 25.29,7.19 L 26.18,6.74 Z" fill="#a8c5fc" stroke="none" /><path d="M 13.46,1.30 L 12.63,1.72 L 12.63,1.78 L 13.46,2.19 L 13.39,2.26 L 12.60,2.64 L 12.60,2.67 L 13.52,3.12 L 14.41,2.67 L 14.41,2.64 L 13.61,2.26 L 13.55,2.19 L 14.38,1.78 L 14.38,1.72 L 13.55,1.30 Z" fill="#a8c5fc" stroke="none" /><path d="M 13.55,13.93 L 13.55,13.96 L 14.38,14.38 L 14.44,14.38 L 15.27,13.96 L 15.27,13.93 L 14.44,13.52 L 14.38,13.52 Z" fill="#acc9fc" stroke="none" /><path d="M 18.00,9.89 L 17.15,9.45 L 17.08,9.45 L 16.22,9.89 L 16.22,9.92 L 17.02,10.31 L 17.05,10.34 L 17.02,10.40 L 16.25,10.78 L 16.19,10.78 L 15.30,10.34 L 14.41,10.78 L 14.41,10.82 L 15.20,11.20 L 15.27,11.26 L 14.44,11.67 L 14.44,11.74 L 15.27,12.15 L 15.20,12.21 L 14.41,12.60 L 14.41,12.63 L 15.30,13.07 L 16.22,12.63 L 16.22,12.60 L 15.43,12.21 L 15.36,12.15 L 16.19,11.74 L 16.19,11.67 L 15.36,11.26 L 15.43,11.20 L 16.19,10.82 L 16.25,10.82 L 17.02,11.20 L 17.08,11.26 L 16.25,11.67 L 16.25,11.74 L 17.08,12.15 L 17.18,12.15 L 18.00,11.74 L 18.00,11.67 L 17.18,11.26 L 17.24,11.20 L 18.00,10.82 L 18.00,10.78 L 17.18,10.37 L 17.21,10.31 L 18.00,9.92 Z" fill="#acc9fc" stroke="none" /><path d="M 3.53,6.27 L 2.64,6.71 L 2.64,6.74 L 3.44,7.13 L 3.50,7.19 L 1.78,8.05 L 1.78,8.08 L 4.45,9.42 L 4.55,9.42 L 5.31,9.03 L 5.34,8.97 L 4.55,8.59 L 4.52,8.52 L 5.34,8.11 L 5.34,8.08 L 4.49,7.63 L 5.31,7.22 L 5.34,7.16 Z" fill="#acc9fc" stroke="none" /><path d="M 26.12,5.82 L 24.30,4.93 L 23.48,5.34 L 23.51,5.41 L 24.33,5.82 L 23.48,6.27 L 23.48,6.30 L 24.27,6.68 L 24.30,6.74 L 23.51,7.16 L 23.41,7.16 L 21.76,6.33 L 21.69,6.27 L 22.52,5.85 L 22.52,5.79 L 20.80,4.93 L 20.71,4.93 L 18.99,5.79 L 18.96,5.85 L 19.75,6.23 L 19.79,6.30 L 18.96,6.71 L 18.96,6.74 L 20.71,7.63 L 19.85,8.08 L 18.96,7.63 L 18.89,7.63 L 18.04,8.08 L 18.04,8.11 L 18.86,8.52 L 18.99,8.52 L 19.79,8.11 L 19.88,8.11 L 20.68,8.52 L 20.64,8.59 L 18.96,9.42 L 18.96,9.48 L 19.79,9.89 L 19.72,9.96 L 18.93,10.34 L 18.93,10.37 L 19.72,10.75 L 19.79,10.82 L 18.96,11.23 L 18.96,11.29 L 19.72,11.67 L 19.85,11.67 L 22.46,10.37 L 22.49,10.31 L 21.76,9.96 L 21.69,9.89 L 22.52,9.48 L 22.52,9.42 L 21.69,9.00 L 21.76,8.94 L 23.41,8.11 L 23.51,8.11 L 24.30,8.52 L 24.27,8.59 L 23.48,8.97 L 23.51,9.03 L 24.27,9.42 L 24.37,9.42 L 26.08,8.56 L 26.12,8.49 L 25.38,8.14 L 25.32,8.08 L 26.15,7.67 L 26.15,7.60 L 24.46,6.78 L 24.43,6.71 L 26.08,5.88 Z" fill="#acc9fc" stroke="none" /><path d="M 10.78,1.78 L 9.03,2.67 L 9.03,2.70 L 9.77,3.05 L 9.83,3.12 L 9.80,3.15 L 8.08,4.01 L 7.25,3.59 L 7.16,3.59 L 5.44,4.45 L 5.41,4.52 L 6.14,4.87 L 6.20,4.93 L 5.38,5.34 L 5.38,5.38 L 7.13,6.27 L 7.06,6.33 L 6.27,6.71 L 6.27,6.74 L 7.06,7.13 L 7.13,7.19 L 6.30,7.60 L 6.30,7.67 L 8.02,8.52 L 7.98,8.59 L 7.19,8.97 L 7.19,9.00 L 8.05,9.45 L 7.22,9.86 L 7.19,9.92 L 8.87,10.75 L 8.94,10.82 L 8.17,11.20 L 8.14,11.26 L 8.97,11.67 L 9.10,11.67 L 10.78,10.82 L 11.58,11.20 L 11.64,11.26 L 9.92,12.12 L 9.92,12.15 L 10.85,12.60 L 12.56,11.74 L 12.56,11.67 L 11.77,11.29 L 11.74,11.26 L 11.80,11.20 L 14.38,9.92 L 14.38,9.86 L 13.55,9.45 L 14.38,9.03 L 14.38,8.97 L 13.55,8.56 L 13.61,8.49 L 14.41,8.11 L 14.41,8.08 L 13.49,7.63 L 11.71,8.52 L 11.71,8.56 L 12.50,8.94 L 12.56,9.00 L 11.74,9.42 L 11.74,9.48 L 12.56,9.89 L 12.50,9.96 L 10.85,10.78 L 10.75,10.78 L 9.10,9.96 L 9.03,9.89 L 9.86,9.48 L 9.86,9.42 L 9.03,9.00 L 9.10,8.94 L 9.89,8.56 L 9.89,8.52 L 9.10,8.14 L 9.03,8.08 L 10.75,7.22 L 10.75,7.16 L 9.92,6.74 L 9.99,6.68 L 10.75,6.30 L 10.82,6.30 L 11.67,6.74 L 12.60,6.30 L 12.60,6.27 L 11.80,5.88 L 11.74,5.82 L 12.56,5.41 L 12.56,5.34 L 11.74,4.93 L 11.64,4.93 L 10.82,5.34 L 10.82,5.41 L 11.64,5.82 L 11.58,5.88 L 10.82,6.27 L 10.75,6.27 L 9.99,5.88 L 9.92,5.82 L 10.75,5.41 L 10.75,5.34 L 9.92,4.93 L 9.99,4.87 L 10.78,4.49 L 10.78,4.45 L 9.99,4.07 L 9.92,4.01 L 10.75,3.59 L 10.75,3.53 L 9.92,3.12 L 9.99,3.05 L 11.67,2.23 L 11.64,2.16 L 10.88,1.78 Z" fill="#acc9fc" stroke="none" /><path d="M 14.35,0.00 L 13.58,0.38 L 13.58,0.45 L 14.31,0.80 L 14.35,0.86 L 13.52,1.27 L 13.55,1.34 L 14.38,1.75 L 13.52,2.19 L 13.52,2.23 L 14.31,2.61 L 14.35,2.67 L 13.52,3.09 L 13.52,3.12 L 15.27,4.01 L 15.20,4.07 L 14.41,4.45 L 14.41,4.49 L 15.20,4.87 L 15.27,4.93 L 14.44,5.34 L 14.44,5.41 L 15.27,5.82 L 15.20,5.88 L 14.41,6.27 L 14.41,6.30 L 15.20,6.68 L 15.27,6.74 L 14.44,7.16 L 14.44,7.22 L 15.27,7.63 L 15.36,7.63 L 16.22,7.19 L 17.08,7.63 L 17.18,7.63 L 18.00,7.22 L 18.00,7.16 L 17.18,6.74 L 17.24,6.68 L 18.04,6.30 L 18.04,6.27 L 17.24,5.88 L 17.18,5.82 L 18.93,4.93 L 18.93,4.90 L 18.13,4.52 L 18.10,4.45 L 19.82,3.59 L 19.82,3.53 L 18.99,3.12 L 19.05,3.05 L 19.79,2.70 L 19.79,2.67 L 18.04,1.78 L 17.94,1.78 L 17.18,2.16 L 17.15,2.23 L 17.94,2.61 L 17.97,2.67 L 16.25,3.53 L 16.25,3.59 L 17.08,4.01 L 17.02,4.07 L 16.25,4.45 L 16.19,4.45 L 15.43,4.07 L 15.36,4.01 L 16.19,3.59 L 16.19,3.53 L 15.36,3.12 L 15.43,3.05 L 16.22,2.67 L 16.22,2.64 L 14.44,1.75 L 15.27,1.34 L 15.30,1.27 L 14.47,0.86 L 14.50,0.80 L 15.24,0.45 L 15.24,0.38 L 14.47,0.00 Z" fill="#acc9fc" stroke="none" /><path d="M 17.11,11.23 L 16.29,10.82 L 16.16,10.82 L 15.33,11.23 L 15.36,11.29 L 16.19,11.71 L 15.33,12.15 L 15.33,12.18 L 16.13,12.56 L 16.16,12.63 L 14.44,13.49 L 14.44,13.55 L 15.20,13.93 L 15.33,13.93 L 17.94,12.63 L 17.97,12.56 L 16.25,11.71 L 17.08,11.29 Z" fill="#b7d1fd" stroke="none" /><path d="M 24.37,8.52 L 23.44,8.08 L 21.66,8.97 L 21.69,9.03 L 22.52,9.45 L 21.69,9.86 L 21.66,9.92 L 22.52,10.34 L 23.41,9.89 L 23.41,9.86 L 22.58,9.45 L 24.37,8.56 Z" fill="#b7d1fd" stroke="none" /><path d="M 3.53,6.27 L 2.74,5.85 L 2.64,5.85 L 1.81,6.27 L 1.81,6.33 L 2.54,6.68 L 2.58,6.71 L 2.54,6.78 L 1.78,7.16 L 1.69,7.16 L 0.86,6.74 L 0.03,7.16 L 0.03,7.19 L 0.83,7.60 L 0.92,7.60 L 1.75,7.19 L 2.61,7.63 L 2.67,7.63 L 3.53,7.19 L 3.53,7.16 L 2.70,6.74 L 2.74,6.68 L 3.53,6.30 Z" fill="#b7d1fd" stroke="none" /><path d="M 10.82,5.38 L 10.75,5.38 L 9.89,5.82 L 9.89,5.85 L 10.72,6.27 L 10.69,6.33 L 9.89,6.71 L 9.89,6.74 L 11.64,7.63 L 11.58,7.70 L 10.82,8.08 L 9.92,7.63 L 9.86,7.63 L 9.00,8.08 L 9.00,8.11 L 9.83,8.52 L 9.80,8.59 L 9.00,8.97 L 9.00,9.00 L 9.86,9.45 L 9.03,9.86 L 9.00,9.92 L 10.69,10.75 L 10.75,10.82 L 9.03,11.67 L 9.03,11.71 L 9.86,12.12 L 9.99,12.12 L 11.64,11.29 L 11.67,11.23 L 10.85,10.82 L 10.91,10.75 L 12.60,9.92 L 12.56,9.86 L 11.74,9.45 L 12.60,9.00 L 12.60,8.97 L 11.77,8.56 L 11.80,8.49 L 12.60,8.11 L 12.60,8.08 L 11.80,7.70 L 11.74,7.63 L 12.56,7.22 L 12.56,7.16 L 10.85,6.30 L 10.88,6.23 L 11.67,5.85 L 11.67,5.82 Z" fill="#b7d1fd" stroke="none" /><path d="M 8.17,3.15 L 8.05,3.15 L 7.22,3.56 L 7.25,3.63 L 8.02,4.01 L 7.95,4.07 L 7.16,4.45 L 7.16,4.49 L 8.05,4.93 L 8.97,4.49 L 8.97,4.45 L 8.17,4.07 L 8.11,4.01 L 8.94,3.59 L 8.94,3.53 Z" fill="#b7d1fd" stroke="none" /><path d="M 15.24,0.41 L 14.41,0.83 L 14.41,0.86 L 15.20,1.24 L 15.27,1.30 L 14.44,1.72 L 14.44,1.78 L 16.16,2.64 L 16.13,2.70 L 15.33,3.09 L 15.33,3.12 L 16.19,3.56 L 15.36,3.98 L 15.33,4.04 L 16.16,4.45 L 16.29,4.45 L 17.11,4.04 L 17.11,4.01 L 16.25,3.56 L 18.04,2.67 L 18.04,2.64 L 17.24,2.26 L 17.18,2.19 L 17.94,1.81 L 17.97,1.75 L 17.15,1.34 L 17.02,1.34 L 16.22,1.75 L 15.36,1.30 L 15.43,1.24 L 16.16,0.89 L 16.16,0.86 L 15.30,0.41 Z" fill="#b7d1fd" stroke="none" /><path d="M 22.58,9.42 L 22.58,9.48 L 23.35,9.86 L 23.48,9.86 L 24.30,9.45 L 24.27,9.38 L 23.51,9.00 L 23.41,9.00 Z" fill="#cbddfd" stroke="none" /><path d="M 10.78,8.08 L 9.89,8.52 L 9.89,8.56 L 10.69,8.94 L 10.75,9.00 L 9.92,9.42 L 9.92,9.48 L 10.75,9.89 L 10.85,9.89 L 11.67,9.48 L 11.67,9.42 L 10.85,9.00 L 10.91,8.94 L 11.71,8.56 L 11.71,8.52 Z" fill="#cbddfd" stroke="none" /><path d="M 0.89,6.78 L 1.75,7.19 L 2.64,6.74 L 2.64,6.71 L 1.81,6.30 L 1.75,6.30 L 0.92,6.71 Z" fill="#cbddfd" stroke="none" /><path d="M 9.86,3.09 L 9.00,2.67 L 8.11,3.12 L 8.11,3.15 L 8.94,3.56 L 9.00,3.56 L 9.83,3.15 Z" fill="#cbddfd" stroke="none" /><path d="M 9.92,7.60 L 9.92,7.67 L 10.75,8.08 L 10.85,8.08 L 11.67,7.67 L 11.64,7.60 L 10.82,7.19 L 10.75,7.19 Z" fill="#d4e3fd" stroke="none" /><path d="M 0.89,7.60 L 0.89,7.63 L 1.72,8.05 L 1.84,8.05 L 2.61,7.67 L 2.61,7.60 L 1.78,7.19 L 1.69,7.19 Z" fill="#d4e3fd" stroke="none" /><path d="M 15.33,1.27 L 15.36,1.34 L 16.19,1.75 L 16.25,1.75 L 17.08,1.34 L 17.08,1.30 L 16.19,0.86 Z" fill="#d4e3fd" stroke="none" /></svg>