<svg height="32" width="32" viewBox="0 0 32 32"><defs /><path d="M 17.97,22.52 L 17.08,22.97 L 17.08,25.19 L 17.97,24.75 Z" fill="#132701" stroke="none" /><path d="M 18.89,19.85 L 17.97,20.29 L 17.97,21.41 L 18.04,21.41 L 18.89,20.96 Z" fill="#132701" stroke="none" /><path d="M 25.22,13.36 L 24.33,13.81 L 24.33,16.00 L 24.40,16.00 L 25.22,15.59 Z" fill="#132701" stroke="none" /><path d="M 27.04,11.36 L 26.97,11.36 L 26.15,11.77 L 26.15,12.88 L 26.21,12.88 L 27.04,12.47 Z" fill="#132701" stroke="none" /><path d="M 17.97,21.44 L 17.91,21.44 L 17.08,21.85 L 17.08,22.97 L 17.97,22.52 Z" fill="#152b01" stroke="none" /><path d="M 19.79,19.40 L 18.89,19.85 L 18.89,20.96 L 19.79,20.52 Z" fill="#152c01" stroke="none" /><path d="M 2.67,18.45 L 2.67,20.68 L 3.59,21.12 L 3.59,18.89 L 2.74,18.45 Z" fill="#1f3f02" stroke="none" /><path d="M 3.59,16.70 L 3.59,17.81 L 4.42,18.23 L 4.49,18.23 L 4.49,17.11 L 3.66,16.70 Z" fill="#1f3f02" stroke="none" /><path d="M 9.92,16.54 L 9.92,18.74 L 10.78,19.18 L 10.85,19.18 L 10.85,16.99 L 9.99,16.54 Z" fill="#1f3f02" stroke="none" /><path d="M 11.74,16.32 L 11.74,17.43 L 12.63,17.88 L 12.63,16.76 Z" fill="#1f3f02" stroke="none" /><path d="M 2.67,17.34 L 2.67,18.45 L 3.59,18.89 L 3.59,17.78 Z" fill="#224702" stroke="none" /><path d="M 4.49,17.15 L 4.49,18.26 L 5.41,18.70 L 5.41,17.59 L 4.55,17.15 Z" fill="#234802" stroke="none" /><path d="M 19.79,21.63 L 19.72,21.63 L 18.89,22.04 L 18.89,23.16 L 17.97,23.63 L 17.97,24.75 L 19.79,23.86 Z" fill="#193603" stroke="none" /><path d="M 27.04,12.47 L 26.97,12.47 L 25.22,13.36 L 25.22,15.55 L 25.29,15.55 L 27.04,14.66 Z" fill="#193603" stroke="none" /><path d="M 12.63,11.67 L 12.63,11.74 L 13.46,12.15 L 13.55,12.15 L 14.38,11.74 L 14.38,11.67 L 13.55,11.26 L 13.46,11.26 Z" fill="#2f6103" stroke="none" /><path d="M 12.63,9.89 L 12.63,9.92 L 14.35,10.78 L 14.47,10.78 L 15.30,10.37 L 15.27,10.31 L 13.55,9.45 L 13.49,9.45 Z" fill="#2f6103" stroke="none" /><path d="M 17.15,5.82 L 17.15,5.85 L 17.97,6.27 L 18.10,6.27 L 18.93,5.85 L 18.89,5.79 L 18.07,5.38 L 18.00,5.38 Z" fill="#2f6103" stroke="none" /><path d="M 15.33,4.01 L 15.33,4.04 L 17.11,4.93 L 18.04,4.49 L 18.04,4.45 L 16.25,3.56 L 16.19,3.56 Z" fill="#2f6103" stroke="none" /><path d="M 17.15,4.90 L 17.18,4.96 L 18.00,5.38 L 18.07,5.38 L 18.93,4.93 L 18.93,4.90 L 18.10,4.49 L 17.97,4.49 Z" fill="#356d03" stroke="none" /><path d="M 19.79,27.17 L 18.89,27.61 L 18.89,29.77 L 19.79,29.33 Z" fill="#0c1f04" stroke="none" /><path d="M 16.19,23.41 L 15.27,23.86 L 15.27,24.97 L 15.33,24.97 L 16.19,24.52 Z" fill="#0c1f04" stroke="none" /><path d="M 22.52,22.49 L 22.46,22.49 L 21.60,22.93 L 21.60,24.02 L 21.66,24.02 L 22.52,23.57 Z" fill="#0c1f04" stroke="none" /><path d="M 26.15,19.56 L 26.08,19.56 L 25.22,20.01 L 25.22,22.20 L 25.29,22.20 L 27.04,21.31 L 27.04,20.23 L 26.97,20.23 L 26.18,20.64 L 26.15,20.61 Z" fill="#0c1f04" stroke="none" /><path d="M 23.41,17.59 L 22.52,18.04 L 22.52,19.15 L 23.41,18.70 Z" fill="#0c1f04" stroke="none" /><path d="M 20.71,15.62 L 19.79,16.06 L 19.79,17.15 L 19.72,17.21 L 18.89,17.62 L 18.89,18.74 L 19.79,18.29 L 19.79,17.21 L 19.85,17.15 L 20.71,16.73 Z" fill="#0c1f04" stroke="none" /><path d="M 17.08,13.04 L 16.19,13.49 L 16.19,15.65 L 17.08,15.20 Z" fill="#0c1f04" stroke="none" /><path d="M 20.71,11.23 L 19.79,11.67 L 19.79,12.76 L 20.71,12.31 Z" fill="#0c1f04" stroke="none" /><path d="M 28.82,8.24 L 27.96,8.65 L 27.93,8.62 L 27.93,7.63 L 27.86,7.63 L 26.15,8.49 L 26.15,9.57 L 27.90,8.72 L 27.93,8.75 L 27.93,9.77 L 27.99,9.77 L 28.82,9.35 Z" fill="#0c1f04" stroke="none" /><path d="M 19.79,20.52 L 18.89,20.96 L 18.89,22.04 L 17.97,22.52 L 17.97,23.63 L 18.89,23.19 L 18.89,22.08 L 19.79,21.63 Z" fill="#193804" stroke="none" /><path d="M 16.22,6.27 L 16.22,6.30 L 17.11,6.74 L 18.04,6.30 L 18.04,6.27 L 17.15,5.82 Z" fill="#366f04" stroke="none" /><path d="M 17.08,29.61 L 16.19,30.06 L 16.19,31.11 L 16.25,31.11 L 17.08,30.70 Z" fill="#0f2605" stroke="none" /><path d="M 18.89,28.72 L 18.83,28.72 L 17.97,29.17 L 17.97,30.22 L 18.04,30.22 L 18.89,29.77 Z" fill="#0f2605" stroke="none" /><path d="M 20.71,27.80 L 19.79,28.25 L 19.79,29.33 L 20.71,28.88 Z" fill="#0f2605" stroke="none" /><path d="M 19.79,26.05 L 18.89,26.50 L 18.89,27.61 L 19.79,27.17 Z" fill="#0f2605" stroke="none" /><path d="M 27.93,24.21 L 27.86,24.21 L 27.04,24.62 L 27.04,25.70 L 27.93,25.26 Z" fill="#0f2605" stroke="none" /><path d="M 23.41,23.13 L 22.52,23.57 L 22.52,24.68 L 23.41,24.24 Z" fill="#0f2605" stroke="none" /><path d="M 16.19,22.33 L 16.13,22.33 L 15.27,22.78 L 15.27,23.86 L 14.41,24.30 L 14.41,26.53 L 15.24,26.12 L 15.27,26.15 L 15.27,27.20 L 16.19,26.75 L 16.19,25.67 L 16.25,25.61 L 17.08,25.19 L 17.08,24.08 L 15.30,24.97 L 15.27,24.94 L 15.27,23.89 L 16.19,23.41 Z" fill="#0f2605" stroke="none" /><path d="M 21.60,21.82 L 20.71,22.27 L 20.71,23.38 L 21.60,22.93 Z" fill="#0f2605" stroke="none" /><path d="M 27.93,19.79 L 27.86,19.79 L 27.04,20.20 L 27.04,21.28 L 26.97,21.34 L 26.15,21.76 L 26.15,22.84 L 26.08,22.90 L 25.22,23.32 L 25.22,25.54 L 26.15,25.10 L 26.15,22.90 L 26.21,22.84 L 27.04,22.43 L 27.04,21.34 L 27.10,21.28 L 27.93,20.87 Z" fill="#0f2605" stroke="none" /><path d="M 22.52,19.15 L 21.60,19.59 L 21.60,20.71 L 22.52,20.26 Z" fill="#0f2605" stroke="none" /><path d="M 18.89,18.74 L 17.97,19.18 L 17.97,20.29 L 17.08,20.74 L 17.08,21.85 L 17.15,21.85 L 17.97,21.44 L 17.97,20.33 L 18.89,19.85 Z" fill="#0f2605" stroke="none" /><path d="M 26.15,18.45 L 26.08,18.45 L 25.22,18.89 L 25.22,19.98 L 25.16,20.04 L 24.33,20.45 L 24.33,22.65 L 24.40,22.65 L 25.22,22.23 L 25.22,20.04 L 25.29,19.98 L 26.15,19.56 Z" fill="#0f2605" stroke="none" /><path d="M 26.15,16.22 L 25.22,16.67 L 25.22,17.78 L 25.29,17.78 L 26.15,17.34 Z" fill="#0f2605" stroke="none" /><path d="M 24.33,16.03 L 24.27,16.03 L 21.60,17.37 L 21.60,18.48 L 21.66,18.48 L 23.35,17.62 L 23.41,17.65 L 23.41,18.70 L 24.33,18.26 Z" fill="#0f2605" stroke="none" /><path d="M 16.19,15.65 L 15.27,16.10 L 15.27,17.21 L 14.41,17.65 L 14.41,18.77 L 15.27,18.35 L 15.27,17.24 L 16.19,16.76 Z" fill="#0f2605" stroke="none" /><path d="M 27.93,14.22 L 27.04,14.66 L 27.04,15.78 L 27.93,15.33 Z" fill="#0f2605" stroke="none" /><path d="M 17.97,12.60 L 17.08,13.04 L 17.08,15.20 L 17.97,14.76 Z" fill="#0f2605" stroke="none" /><path d="M 25.22,12.25 L 24.33,12.69 L 24.33,13.77 L 24.27,13.84 L 23.41,14.25 L 23.41,15.36 L 24.33,14.92 L 24.33,13.84 L 24.40,13.77 L 25.22,13.36 Z" fill="#0f2605" stroke="none" /><path d="M 27.93,12.02 L 27.86,12.02 L 27.04,12.44 L 27.04,13.55 L 27.93,13.11 Z" fill="#0f2605" stroke="none" /><path d="M 22.52,12.50 L 22.46,12.50 L 21.63,12.91 L 21.60,12.88 L 21.60,11.86 L 21.53,11.86 L 20.71,12.28 L 20.71,13.39 L 21.57,12.98 L 21.60,13.01 L 21.60,14.03 L 21.53,14.09 L 19.79,14.95 L 19.79,16.06 L 17.97,16.99 L 17.97,18.07 L 18.04,18.07 L 19.72,17.21 L 19.79,17.24 L 19.79,18.29 L 20.71,17.84 L 20.71,16.73 L 21.60,16.29 L 21.60,14.09 L 21.66,14.03 L 22.52,13.61 Z" fill="#0f2605" stroke="none" /><path d="M 19.79,11.71 L 19.72,11.71 L 18.89,12.12 L 18.89,14.28 L 18.96,14.28 L 19.79,13.87 Z" fill="#0f2605" stroke="none" /><path d="M 28.82,7.19 L 28.76,7.19 L 27.93,7.60 L 27.93,8.65 L 27.86,8.72 L 26.15,9.57 L 26.15,10.66 L 26.21,10.66 L 27.01,10.24 L 27.04,10.27 L 27.04,11.32 L 27.10,11.32 L 27.93,10.91 L 27.93,8.72 L 27.99,8.65 L 28.82,8.24 Z" fill="#0f2605" stroke="none" /><path d="M 15.27,28.31 L 14.41,28.72 L 14.41,30.95 L 15.27,30.54 Z" fill="#112b06" stroke="none" /><path d="M 20.64,26.72 L 19.79,27.17 L 19.79,28.25 L 19.85,28.25 L 20.68,27.83 L 20.71,27.86 L 20.71,28.85 L 20.77,28.85 L 21.60,28.44 L 21.60,27.36 L 20.74,27.77 L 20.71,27.74 L 20.71,26.72 Z" fill="#112b06" stroke="none" /><path d="M 23.41,26.47 L 23.35,26.47 L 22.52,26.88 L 22.52,27.96 L 23.41,27.51 Z" fill="#112b06" stroke="none" /><path d="M 25.22,25.54 L 24.33,25.99 L 24.33,27.04 L 24.40,27.04 L 25.22,26.62 Z" fill="#112b06" stroke="none" /><path d="M 27.04,23.54 L 26.15,23.98 L 26.15,26.15 L 27.04,25.70 Z" fill="#112b06" stroke="none" /><path d="M 21.60,20.71 L 20.71,21.15 L 20.71,22.23 L 20.64,22.30 L 19.79,22.71 L 19.79,24.91 L 19.72,24.97 L 18.89,25.38 L 18.89,26.47 L 18.83,26.53 L 17.97,26.94 L 17.97,29.17 L 18.89,28.72 L 18.89,26.53 L 18.96,26.47 L 19.79,26.05 L 19.79,24.97 L 19.85,24.91 L 20.68,24.49 L 20.71,24.52 L 20.71,25.57 L 20.77,25.57 L 22.49,24.72 L 22.52,24.68 L 22.52,23.60 L 22.58,23.54 L 23.41,23.13 L 23.41,22.04 L 23.35,22.04 L 22.52,22.46 L 22.52,23.54 L 22.46,23.60 L 21.63,24.02 L 21.60,23.98 L 21.60,22.93 L 20.77,23.35 L 20.71,23.32 L 20.71,22.30 L 20.77,22.23 L 21.60,21.82 Z" fill="#112b06" stroke="none" /><path d="M 28.82,20.42 L 27.93,20.87 L 27.93,21.98 L 28.82,21.53 Z" fill="#112b06" stroke="none" /><path d="M 28.82,18.23 L 28.76,18.23 L 26.15,19.53 L 26.15,20.64 L 26.21,20.64 L 28.82,19.34 Z" fill="#112b06" stroke="none" /><path d="M 22.49,18.04 L 20.71,18.93 L 20.71,20.04 L 20.77,20.04 L 22.49,19.18 L 22.52,19.21 L 22.52,21.34 L 22.58,21.34 L 23.41,20.93 L 23.41,18.70 L 22.55,19.12 L 22.52,19.09 L 22.52,18.04 Z" fill="#112b06" stroke="none" /><path d="M 27.93,15.33 L 27.04,15.78 L 27.04,16.89 L 27.93,16.45 Z" fill="#112b06" stroke="none" /><path d="M 26.15,15.11 L 25.22,15.55 L 25.22,16.67 L 25.29,16.67 L 26.15,16.22 Z" fill="#112b06" stroke="none" /><path d="M 17.97,14.76 L 16.25,15.62 L 16.19,15.59 L 16.19,14.57 L 16.13,14.57 L 14.41,15.43 L 14.41,16.54 L 16.13,15.68 L 16.19,15.71 L 16.19,17.84 L 16.13,17.91 L 15.27,18.32 L 15.27,19.40 L 15.20,19.47 L 14.41,19.85 L 14.41,20.96 L 14.47,20.96 L 15.27,20.55 L 15.27,19.47 L 15.33,19.40 L 17.05,18.54 L 17.08,18.58 L 17.08,19.63 L 17.15,19.63 L 18.83,18.77 L 18.89,18.80 L 18.89,19.85 L 19.79,19.40 L 19.79,18.29 L 18.93,18.70 L 18.89,18.67 L 18.89,17.62 L 17.11,18.51 L 17.08,18.48 L 17.08,17.46 L 17.15,17.40 L 17.97,16.99 Z" fill="#112b06" stroke="none" /><path d="M 26.15,11.80 L 26.08,11.80 L 25.22,12.25 L 25.22,13.36 L 26.15,12.91 Z" fill="#112b06" stroke="none" /><path d="M 28.82,11.58 L 28.76,11.58 L 27.93,11.99 L 27.93,13.11 L 28.82,12.66 Z" fill="#112b06" stroke="none" /><path d="M 24.33,9.42 L 23.41,9.86 L 23.41,10.91 L 23.35,10.97 L 21.63,11.83 L 21.60,11.80 L 21.60,10.78 L 20.71,11.23 L 20.71,12.28 L 19.79,12.76 L 19.79,14.95 L 19.85,14.95 L 21.57,14.09 L 21.60,14.06 L 21.60,12.98 L 21.66,12.91 L 23.41,12.06 L 23.41,10.97 L 23.48,10.91 L 24.33,10.50 Z" fill="#112b06" stroke="none" /><path d="M 18.89,20.96 L 17.97,21.41 L 17.97,22.52 L 18.89,22.08 Z" fill="#1a3e06" stroke="none" /><path d="M 4.49,19.34 L 4.49,20.39 L 4.45,20.42 L 3.59,20.01 L 3.59,21.12 L 5.34,22.01 L 5.41,22.01 L 5.41,19.79 Z" fill="#285806" stroke="none" /><path d="M 10.85,16.99 L 10.85,19.21 L 12.56,20.07 L 12.63,20.07 L 12.63,17.88 Z" fill="#285806" stroke="none" /><path d="M 4.49,24.91 L 4.49,27.07 L 5.41,27.51 L 5.41,25.35 L 4.55,24.91 Z" fill="#143207" stroke="none" /><path d="M 10.85,23.63 L 10.85,25.86 L 12.56,26.72 L 12.63,26.72 L 12.63,25.64 L 11.80,25.22 L 11.74,25.16 L 11.74,24.08 Z" fill="#143207" stroke="none" /><path d="M 7.22,22.93 L 7.22,24.05 L 8.05,24.46 L 8.11,24.46 L 8.11,23.38 Z" fill="#143207" stroke="none" /><path d="M 8.11,18.96 L 8.11,20.07 L 9.03,20.52 L 9.03,19.40 L 8.17,18.96 Z" fill="#143207" stroke="none" /><path d="M 0.89,17.56 L 0.89,18.67 L 1.72,19.09 L 1.78,19.09 L 1.78,17.97 L 0.95,17.56 Z" fill="#143207" stroke="none" /><path d="M 5.47,14.28 L 5.41,14.28 L 5.41,15.30 L 5.38,15.33 L 4.55,14.92 L 4.49,14.92 L 4.49,16.03 L 5.38,16.48 L 5.41,16.48 L 5.41,15.43 L 5.44,15.40 L 6.30,15.81 L 6.30,14.70 Z" fill="#143207" stroke="none" /><path d="M 11.74,13.04 L 11.74,14.12 L 13.49,14.98 L 13.55,15.05 L 13.55,16.13 L 14.41,16.54 L 14.41,15.43 L 13.61,15.05 L 13.55,14.98 L 13.55,13.93 Z" fill="#143207" stroke="none" /><path d="M 5.41,9.89 L 5.41,10.94 L 6.30,11.39 L 6.30,10.31 L 5.47,9.89 Z" fill="#143207" stroke="none" /><path d="M 1.78,8.08 L 1.78,10.24 L 2.61,10.66 L 2.67,10.66 L 2.67,8.49 L 1.84,8.08 Z" fill="#143207" stroke="none" /><path d="M 15.27,26.12 L 15.20,26.12 L 14.41,26.53 L 14.41,28.72 L 14.47,28.72 L 15.20,28.34 L 15.27,28.37 L 15.27,30.50 L 14.41,30.95 L 14.41,32.00 L 14.47,32.00 L 15.27,31.59 L 15.27,30.54 L 16.19,30.06 L 16.19,26.75 L 16.13,26.75 L 15.30,27.17 L 15.27,27.13 Z" fill="#143407" stroke="none" /><path d="M 17.97,24.75 L 17.08,25.19 L 17.08,26.27 L 17.15,26.27 L 17.97,25.86 Z" fill="#143407" stroke="none" /><path d="M 26.15,25.10 L 26.08,25.10 L 25.26,25.51 L 25.22,25.48 L 25.22,24.46 L 25.16,24.46 L 23.44,25.32 L 23.41,25.35 L 23.41,27.51 L 24.33,27.07 L 24.33,26.02 L 24.40,25.96 L 25.16,25.57 L 25.22,25.61 L 25.22,26.59 L 25.29,26.59 L 26.12,26.18 L 26.15,26.15 Z" fill="#143407" stroke="none" /><path d="M 22.52,20.26 L 22.46,20.26 L 21.63,20.68 L 21.60,20.64 L 21.60,19.63 L 21.53,19.63 L 19.82,20.49 L 19.79,20.52 L 19.79,22.71 L 19.85,22.71 L 20.71,22.27 L 20.71,21.18 L 20.77,21.12 L 21.53,20.74 L 21.60,20.77 L 21.60,22.93 L 22.52,22.49 Z" fill="#143407" stroke="none" /><path d="M 28.82,19.34 L 28.76,19.34 L 27.93,19.75 L 27.93,20.83 L 27.86,20.90 L 27.04,21.31 L 27.04,23.54 L 27.90,23.13 L 27.93,23.16 L 27.93,24.17 L 27.99,24.17 L 28.82,23.76 L 28.82,21.53 L 27.99,21.95 L 27.93,21.92 L 27.93,20.90 L 27.99,20.83 L 28.82,20.42 Z" fill="#143407" stroke="none" /><path d="M 17.97,19.21 L 17.91,19.21 L 16.19,20.07 L 16.19,24.52 L 17.08,24.08 L 17.08,20.77 L 17.97,20.33 Z" fill="#143407" stroke="none" /><path d="M 15.27,16.13 L 15.20,16.13 L 14.41,16.54 L 14.41,17.65 L 15.24,17.24 L 15.27,17.27 L 15.27,18.32 L 14.41,18.77 L 14.41,19.85 L 14.47,19.85 L 15.27,19.44 L 15.27,18.35 L 16.19,17.88 L 16.19,16.76 L 15.30,17.21 L 15.27,17.18 Z" fill="#143407" stroke="none" /><path d="M 27.93,13.11 L 27.04,13.55 L 27.04,14.63 L 26.97,14.70 L 26.15,15.11 L 26.15,18.42 L 26.21,18.42 L 27.01,18.00 L 27.04,18.04 L 27.04,19.09 L 27.10,19.09 L 27.93,18.67 L 27.93,17.56 L 28.82,17.11 L 28.82,13.77 L 27.96,14.19 L 27.93,14.16 Z" fill="#143407" stroke="none" /><path d="M 28.82,9.35 L 28.76,9.35 L 27.93,9.77 L 27.93,11.99 L 27.99,11.99 L 28.82,11.58 Z" fill="#143407" stroke="none" /><path d="M 26.15,8.52 L 26.08,8.52 L 24.37,9.38 L 24.33,9.42 L 24.33,10.47 L 23.48,10.91 L 23.41,10.88 L 23.41,9.89 L 23.35,9.89 L 22.52,10.31 L 22.52,11.39 L 23.38,10.97 L 23.41,11.01 L 23.41,12.02 L 23.48,12.02 L 25.19,11.17 L 25.22,11.13 L 25.22,10.05 L 26.15,9.57 Z" fill="#143407" stroke="none" /><path d="M 4.55,18.26 L 4.49,18.26 L 4.49,19.28 L 4.45,19.31 L 3.59,18.89 L 3.59,20.01 L 4.45,20.45 L 4.49,20.45 L 4.49,19.40 L 4.52,19.37 L 5.34,19.79 L 5.41,19.79 L 5.41,18.70 Z" fill="#295b07" stroke="none" /><path d="M 12.63,30.06 L 12.63,31.14 L 13.55,31.59 L 13.55,30.50 Z" fill="#193d08" stroke="none" /><path d="M 5.41,26.47 L 5.41,27.51 L 6.30,27.96 L 6.30,26.88 L 5.47,26.47 Z" fill="#193d08" stroke="none" /><path d="M 12.66,25.64 L 12.63,25.64 L 12.63,26.69 L 12.60,26.72 L 11.80,26.31 L 11.74,26.31 L 11.74,27.36 L 11.71,27.39 L 10.91,26.97 L 10.85,26.97 L 10.85,29.17 L 11.71,29.61 L 11.74,29.61 L 11.74,27.45 L 11.77,27.42 L 12.56,27.83 L 12.63,27.83 L 12.63,26.78 L 12.66,26.75 L 13.55,27.20 L 13.55,26.08 Z" fill="#193d08" stroke="none" /><path d="M 3.59,25.54 L 3.59,26.62 L 4.42,27.04 L 4.49,27.04 L 4.49,25.99 Z" fill="#193d08" stroke="none" /><path d="M 1.78,24.65 L 1.78,25.70 L 2.67,26.15 L 2.67,25.07 L 1.84,24.65 Z" fill="#193d08" stroke="none" /><path d="M 8.11,24.49 L 8.11,25.61 L 9.03,26.05 L 9.03,24.94 L 8.17,24.49 Z" fill="#193d08" stroke="none" /><path d="M 4.49,23.79 L 4.49,24.91 L 5.41,25.35 L 5.41,24.24 L 4.55,23.79 Z" fill="#193d08" stroke="none" /><path d="M 10.88,22.52 L 10.85,22.52 L 10.85,23.57 L 10.82,23.60 L 9.99,23.19 L 9.92,23.19 L 9.92,25.38 L 10.78,25.83 L 10.85,25.83 L 10.85,23.70 L 10.91,23.67 L 11.74,24.08 L 11.74,22.97 Z" fill="#193d08" stroke="none" /><path d="M 6.30,21.38 L 6.30,22.49 L 7.22,22.93 L 7.22,21.82 L 6.36,21.38 Z" fill="#193d08" stroke="none" /><path d="M 10.85,20.33 L 10.85,21.44 L 11.67,21.85 L 11.74,21.85 L 11.74,20.74 L 10.91,20.33 Z" fill="#193d08" stroke="none" /><path d="M 12.63,20.10 L 12.63,21.22 L 13.55,21.66 L 13.55,20.55 L 12.69,20.10 Z" fill="#193d08" stroke="none" /><path d="M 7.22,19.63 L 7.22,20.71 L 8.11,21.15 L 8.11,20.04 L 7.28,19.63 Z" fill="#193d08" stroke="none" /><path d="M 12.63,17.88 L 12.63,18.99 L 13.55,19.44 L 13.55,18.32 Z" fill="#193d08" stroke="none" /><path d="M 7.22,17.40 L 7.22,18.51 L 8.97,19.37 L 9.03,19.44 L 9.03,20.52 L 9.92,20.96 L 9.92,18.74 L 7.28,17.40 Z" fill="#193d08" stroke="none" /><path d="M 0.89,16.45 L 0.89,17.50 L 0.86,17.53 L 0.06,17.11 L 0.00,17.11 L 0.00,19.34 L 0.89,19.79 L 0.89,20.87 L 1.78,21.31 L 1.78,20.26 L 1.81,20.23 L 2.61,20.64 L 2.67,20.64 L 2.67,19.53 L 0.89,18.64 L 0.89,17.59 L 0.92,17.56 L 1.72,17.97 L 1.78,17.97 L 1.78,16.89 Z" fill="#193d08" stroke="none" /><path d="M 3.66,15.59 L 3.59,15.59 L 3.59,16.64 L 3.56,16.67 L 2.67,16.22 L 2.67,17.34 L 3.53,17.78 L 3.59,17.78 L 3.59,16.73 L 3.63,16.70 L 4.42,17.11 L 4.49,17.11 L 4.49,16.00 Z" fill="#193d08" stroke="none" /><path d="M 9.99,15.43 L 9.92,15.43 L 9.92,16.48 L 9.89,16.51 L 9.10,16.10 L 9.03,16.10 L 9.03,17.18 L 9.89,17.62 L 9.92,17.62 L 9.92,16.57 L 9.96,16.54 L 10.85,16.99 L 10.85,15.87 Z" fill="#193d08" stroke="none" /><path d="M 11.74,14.12 L 11.74,15.20 L 12.56,15.62 L 12.63,15.68 L 12.63,16.76 L 13.49,17.21 L 13.55,17.21 L 13.55,15.08 L 13.61,15.05 L 14.35,15.43 L 14.41,15.43 L 14.41,14.38 L 13.61,13.96 L 13.55,13.96 L 13.55,14.95 L 13.49,14.98 L 11.80,14.12 Z" fill="#193d08" stroke="none" /><path d="M 6.33,11.39 L 6.30,11.39 L 6.30,12.50 L 7.16,12.91 L 7.22,12.98 L 7.22,14.00 L 7.19,14.03 L 5.47,13.17 L 5.41,13.17 L 5.41,14.22 L 5.38,14.25 L 3.59,13.36 L 3.59,14.47 L 5.34,15.33 L 5.41,15.40 L 5.41,16.48 L 6.27,16.92 L 6.30,16.92 L 6.30,15.87 L 6.33,15.84 L 7.16,16.25 L 7.22,16.25 L 7.22,14.12 L 7.28,14.09 L 8.11,14.50 L 8.11,13.39 L 7.28,12.98 L 7.22,12.91 L 7.22,11.83 Z" fill="#193d08" stroke="none" /><path d="M 0.95,9.80 L 0.89,9.80 L 0.89,10.85 L 0.86,10.88 L 0.06,10.47 L 0.00,10.47 L 0.00,11.58 L 0.83,11.99 L 0.89,11.99 L 0.89,10.94 L 0.92,10.91 L 1.72,11.32 L 1.78,11.32 L 1.78,10.21 Z" fill="#193d08" stroke="none" /><path d="M 4.49,9.42 L 4.49,11.58 L 5.34,12.02 L 5.41,12.02 L 5.41,9.86 Z" fill="#193d08" stroke="none" /><path d="M 2.67,8.52 L 2.67,10.69 L 3.59,11.13 L 3.59,8.97 L 2.74,8.52 Z" fill="#193d08" stroke="none" /><path d="M 9.92,28.72 L 9.92,29.77 L 10.78,30.22 L 10.85,30.22 L 10.85,29.17 L 9.99,28.72 Z" fill="#1c4609" stroke="none" /><path d="M 11.74,28.53 L 11.74,30.70 L 12.56,31.11 L 12.63,31.11 L 12.63,28.95 L 11.80,28.53 Z" fill="#1c4609" stroke="none" /><path d="M 8.11,27.80 L 8.11,28.88 L 9.03,29.33 L 9.03,28.25 Z" fill="#1c4609" stroke="none" /><path d="M 13.55,27.20 L 13.55,28.31 L 14.35,28.72 L 14.41,28.72 L 14.41,27.61 Z" fill="#1c4609" stroke="none" /><path d="M 5.41,25.35 L 5.41,26.47 L 6.30,26.91 L 6.30,27.96 L 7.16,28.41 L 7.22,28.41 L 7.22,27.36 L 6.30,26.88 L 6.30,25.80 Z" fill="#1c4609" stroke="none" /><path d="M 11.74,24.08 L 11.74,25.19 L 11.77,25.22 L 14.41,26.53 L 14.41,25.42 L 14.38,25.38 Z" fill="#1c4609" stroke="none" /><path d="M 0.00,21.53 L 0.00,23.76 L 0.83,24.17 L 0.89,24.17 L 0.89,21.98 Z" fill="#1c4609" stroke="none" /><path d="M 12.63,21.22 L 12.63,22.33 L 13.55,22.78 L 13.55,21.66 L 12.69,21.22 Z" fill="#1c4609" stroke="none" /><path d="M 6.36,20.26 L 6.30,20.26 L 6.30,21.31 L 6.27,21.34 L 5.47,20.93 L 5.41,20.93 L 5.41,23.06 L 5.34,23.09 L 4.55,22.68 L 4.49,22.68 L 4.49,23.73 L 4.45,23.76 L 3.66,23.35 L 3.59,23.35 L 3.59,25.54 L 4.45,25.99 L 4.49,25.99 L 4.49,23.83 L 4.52,23.79 L 5.41,24.24 L 5.41,23.19 L 5.44,23.16 L 6.23,23.54 L 6.30,23.60 L 6.30,24.68 L 6.33,24.72 L 8.05,25.57 L 8.11,25.57 L 8.11,24.52 L 8.14,24.49 L 9.03,24.94 L 9.03,23.83 L 8.11,23.38 L 8.11,24.43 L 8.08,24.46 L 7.22,24.02 L 7.22,22.93 L 6.30,22.46 L 6.30,21.41 L 6.33,21.38 L 7.22,21.82 L 7.22,20.71 Z" fill="#1c4609" stroke="none" /><path d="M 10.85,19.21 L 10.85,20.33 L 11.67,20.74 L 11.74,20.74 L 11.74,19.63 L 10.91,19.21 Z" fill="#1c4609" stroke="none" /><path d="M 13.55,18.35 L 13.55,19.44 L 14.35,19.85 L 14.41,19.85 L 14.41,18.77 L 13.61,18.35 Z" fill="#1c4609" stroke="none" /><path d="M 6.30,18.04 L 6.30,19.15 L 8.11,20.07 L 8.11,22.27 L 8.97,22.71 L 9.03,22.71 L 9.03,20.52 L 8.11,20.04 L 8.11,18.93 Z" fill="#1c4609" stroke="none" /><path d="M 10.85,15.87 L 10.85,16.99 L 11.74,17.43 L 11.74,16.32 Z" fill="#1c4609" stroke="none" /><path d="M 5.41,10.94 L 5.41,13.17 L 7.19,14.06 L 7.22,14.06 L 7.22,13.01 L 7.25,12.98 L 8.97,13.84 L 9.03,13.84 L 9.03,12.82 L 9.07,12.79 L 9.92,13.20 L 9.92,12.12 L 9.10,11.71 L 9.03,11.71 L 9.03,12.69 L 8.97,12.72 L 7.22,11.83 L 7.22,10.78 L 7.19,10.75 L 6.36,10.34 L 6.30,10.34 L 6.30,11.32 L 6.27,11.36 Z" fill="#1c4609" stroke="none" /><path d="M 0.00,8.24 L 0.00,9.35 L 1.78,10.24 L 1.78,12.41 L 1.75,12.44 L 0.95,12.02 L 0.89,12.02 L 0.89,13.04 L 0.86,13.07 L 0.00,12.66 L 0.00,13.77 L 0.89,14.22 L 0.89,13.17 L 0.95,13.14 L 2.61,13.96 L 2.67,14.03 L 2.67,15.11 L 4.45,16.00 L 4.49,16.03 L 4.49,17.15 L 5.41,17.59 L 5.41,16.48 L 4.49,16.00 L 4.49,14.89 L 2.74,14.03 L 2.67,13.96 L 2.67,12.95 L 2.70,12.91 L 3.59,13.36 L 3.59,11.13 L 1.78,10.21 L 1.78,9.13 L 1.75,9.10 Z" fill="#1c4609" stroke="none" /><path d="M 10.82,10.78 L 10.85,10.85 L 12.56,11.71 L 12.63,11.71 L 14.41,10.82 L 14.41,10.78 L 12.63,9.89 Z" fill="#3e8809" stroke="none" /><path d="M 16.22,4.45 L 15.30,4.01 L 13.52,4.90 L 13.52,4.93 L 15.27,5.82 L 15.36,5.82 L 16.19,5.41 L 16.19,5.34 L 15.36,4.93 L 15.43,4.87 L 16.22,4.49 Z" fill="#3e8809" stroke="none" /><path d="M 12.66,13.49 L 12.66,13.52 L 13.49,13.93 L 13.61,13.93 L 14.38,13.55 L 14.38,13.49 L 13.55,13.07 L 13.46,13.07 Z" fill="#1f4c0a" stroke="none" /><path d="M 17.05,13.01 L 16.29,12.63 L 16.16,12.63 L 14.44,13.49 L 14.44,13.55 L 15.20,13.93 L 15.33,13.93 L 17.05,13.07 Z" fill="#1f4c0a" stroke="none" /><path d="M 21.66,9.92 L 22.52,10.34 L 23.41,9.89 L 23.41,9.86 L 22.58,9.45 L 22.52,9.45 L 21.69,9.86 Z" fill="#1f4c0a" stroke="none" /><path d="M 12.60,8.08 L 12.60,8.11 L 13.49,8.56 L 14.41,8.11 L 14.41,8.08 L 13.52,7.63 Z" fill="#1f4c0a" stroke="none" /><path d="M 24.40,7.60 L 24.40,7.67 L 26.12,8.52 L 27.04,8.08 L 27.04,8.05 L 25.32,7.19 L 25.22,7.19 Z" fill="#1f4c0a" stroke="none" /><path d="M 5.38,8.08 L 5.38,8.11 L 6.20,8.52 L 6.33,8.52 L 7.13,8.11 L 7.22,8.11 L 8.02,8.52 L 8.14,8.52 L 8.97,8.11 L 8.94,8.05 L 7.22,7.19 L 7.13,7.19 Z" fill="#1f4c0a" stroke="none" /><path d="M 18.89,6.74 L 18.07,7.16 L 18.07,7.22 L 18.89,7.63 L 18.07,8.05 L 18.04,8.11 L 18.86,8.52 L 18.99,8.52 L 19.82,8.11 L 19.79,8.05 L 18.96,7.63 L 19.79,7.22 L 19.82,7.16 L 18.99,6.74 Z" fill="#1f4c0a" stroke="none" /><path d="M 9.89,5.82 L 9.89,5.85 L 10.72,6.27 L 10.85,6.27 L 11.67,5.85 L 11.64,5.79 L 10.82,5.38 L 10.75,5.38 Z" fill="#1f4c0a" stroke="none" /><path d="M 18.07,3.53 L 18.07,3.59 L 18.89,4.01 L 18.99,4.01 L 19.82,3.59 L 19.82,3.53 L 18.99,3.12 L 18.89,3.12 Z" fill="#1f4c0a" stroke="none" /><path d="M 9.03,2.67 L 9.03,2.70 L 10.75,3.56 L 10.82,3.56 L 11.67,3.12 L 11.67,3.09 L 9.96,2.23 L 9.89,2.23 Z" fill="#1f4c0a" stroke="none" /><path d="M 3.59,17.81 L 3.59,18.89 L 4.49,19.34 L 4.49,18.23 L 3.66,17.81 Z" fill="#2b640a" stroke="none" /><path d="M 16.16,4.49 L 15.33,4.90 L 15.36,4.96 L 16.19,5.38 L 15.36,5.79 L 15.33,5.85 L 16.16,6.27 L 16.29,6.27 L 17.11,5.85 L 17.08,5.79 L 16.25,5.38 L 17.08,4.96 L 17.11,4.90 L 16.29,4.49 Z" fill="#3f8c0a" stroke="none" /><path d="M 9.03,27.17 L 9.03,29.33 L 9.92,29.77 L 9.92,28.76 L 9.96,28.72 L 10.78,29.14 L 10.85,29.20 L 10.85,30.25 L 11.67,30.66 L 11.74,30.66 L 11.74,29.61 L 10.91,29.20 L 10.85,29.14 L 10.85,28.06 Z" fill="#21540b" stroke="none" /><path d="M 13.55,26.12 L 13.55,27.13 L 13.52,27.17 L 12.69,26.75 L 12.63,26.75 L 12.63,28.98 L 13.49,29.39 L 13.55,29.46 L 13.55,30.54 L 14.41,30.95 L 14.41,28.72 L 13.61,28.34 L 13.55,28.28 L 13.55,27.26 L 13.58,27.23 L 14.35,27.61 L 14.41,27.61 L 14.41,26.53 L 13.61,26.12 Z" fill="#21540b" stroke="none" /><path d="M 2.67,20.68 L 2.67,21.76 L 3.53,22.20 L 3.59,22.20 L 3.59,21.12 L 2.74,20.68 Z" fill="#21540b" stroke="none" /><path d="M 0.00,19.34 L 0.00,21.53 L 0.83,21.95 L 0.89,22.01 L 0.89,24.14 L 0.86,24.17 L 0.06,23.76 L 0.00,23.76 L 0.00,24.81 L 0.89,25.26 L 0.89,24.24 L 0.92,24.21 L 1.72,24.62 L 1.78,24.62 L 1.78,21.31 L 0.95,20.90 L 0.89,20.83 L 0.89,19.75 L 0.06,19.34 Z" fill="#21540b" stroke="none" /><path d="M 12.63,18.99 L 12.63,20.04 L 12.60,20.07 L 11.80,19.66 L 11.74,19.66 L 11.74,22.97 L 12.56,23.38 L 12.63,23.44 L 12.63,24.52 L 13.49,24.97 L 13.55,24.97 L 13.55,23.92 L 13.58,23.89 L 14.41,24.30 L 14.41,20.96 L 13.61,20.58 L 13.55,20.52 L 13.55,19.44 L 12.69,18.99 Z" fill="#21540b" stroke="none" /><path d="M 5.41,18.70 L 5.41,20.93 L 6.23,21.34 L 6.30,21.34 L 6.30,20.29 L 6.33,20.26 L 7.16,20.68 L 7.22,20.74 L 7.22,22.93 L 8.11,23.38 L 8.11,21.15 L 7.28,20.74 L 7.22,20.68 L 7.22,19.59 Z" fill="#21540b" stroke="none" /><path d="M 13.55,16.13 L 13.55,18.35 L 14.41,18.77 L 14.41,16.54 L 13.61,16.13 Z" fill="#21540b" stroke="none" /><path d="M 1.78,14.66 L 1.78,19.12 L 2.61,19.53 L 2.67,19.53 L 2.67,16.29 L 2.74,16.25 L 3.53,16.67 L 3.59,16.67 L 3.59,15.55 Z" fill="#21540b" stroke="none" /><path d="M 8.11,11.23 L 8.11,12.31 L 8.97,12.72 L 9.03,12.79 L 9.03,13.87 L 10.82,14.76 L 10.85,14.76 L 10.85,13.71 L 10.88,13.68 L 11.67,14.09 L 11.74,14.09 L 11.74,13.04 L 11.71,13.01 L 9.99,12.15 L 9.92,12.15 L 9.92,13.14 L 9.86,13.17 L 9.10,12.79 L 9.03,12.72 L 9.03,11.67 Z" fill="#21540b" stroke="none" /><path d="M 0.00,9.35 L 0.00,10.47 L 0.89,10.91 L 0.89,11.96 L 0.86,11.99 L 0.06,11.58 L 0.00,11.58 L 0.00,12.66 L 0.89,13.11 L 0.89,12.06 L 0.92,12.02 L 1.72,12.44 L 1.78,12.44 L 1.78,11.32 L 0.89,10.88 L 0.89,9.77 L 0.06,9.35 Z" fill="#21540b" stroke="none" /><path d="M 12.60,12.60 L 12.60,12.63 L 14.35,13.49 L 14.38,13.52 L 14.35,13.55 L 13.55,13.93 L 13.55,13.96 L 14.38,14.38 L 14.44,14.38 L 15.27,13.96 L 15.27,13.93 L 14.47,13.55 L 14.44,13.52 L 14.47,13.49 L 16.22,12.63 L 16.22,12.60 L 15.33,12.15 L 14.44,12.60 L 14.38,12.60 L 13.52,12.15 Z" fill="#265f0d" stroke="none" /><path d="M 10.82,11.67 L 10.82,11.74 L 11.64,12.15 L 11.74,12.15 L 12.56,11.74 L 12.56,11.67 L 11.74,11.26 L 11.64,11.26 Z" fill="#265f0d" stroke="none" /><path d="M 9.00,10.78 L 9.03,10.85 L 9.86,11.26 L 9.92,11.26 L 10.78,10.82 L 10.78,10.78 L 9.96,10.37 L 9.83,10.37 Z" fill="#265f0d" stroke="none" /><path d="M 15.27,9.45 L 14.44,9.86 L 14.44,9.92 L 15.27,10.34 L 15.20,10.40 L 14.41,10.78 L 14.41,10.82 L 15.33,11.26 L 16.22,10.82 L 16.22,10.78 L 15.43,10.40 L 15.36,10.34 L 16.19,9.92 L 16.19,9.89 L 15.33,9.45 Z" fill="#265f0d" stroke="none" /><path d="M 9.92,9.42 L 9.92,9.48 L 10.75,9.89 L 10.85,9.89 L 11.67,9.48 L 11.67,9.42 L 10.85,9.00 L 10.75,9.00 Z" fill="#265f0d" stroke="none" /><path d="M 21.66,8.97 L 21.69,9.03 L 23.35,9.86 L 23.48,9.86 L 24.30,9.45 L 24.27,9.38 L 22.62,8.56 L 22.49,8.56 Z" fill="#265f0d" stroke="none" /><path d="M 23.48,8.08 L 23.48,8.11 L 25.19,8.97 L 25.26,8.97 L 26.12,8.52 L 26.12,8.49 L 24.40,7.63 L 24.33,7.63 Z" fill="#265f0d" stroke="none" /><path d="M 16.22,8.08 L 15.30,7.63 L 13.55,8.52 L 13.46,8.52 L 12.66,8.11 L 12.53,8.11 L 11.71,8.52 L 11.71,8.56 L 13.49,9.45 L 13.55,9.45 L 16.22,8.11 Z" fill="#265f0d" stroke="none" /><path d="M 21.63,7.16 L 20.80,6.74 L 20.68,6.74 L 18.96,7.60 L 18.96,7.67 L 19.79,8.08 L 19.72,8.14 L 18.96,8.52 L 18.89,8.52 L 18.13,8.14 L 18.07,8.08 L 18.89,7.67 L 18.89,7.60 L 18.07,7.19 L 18.00,7.19 L 17.15,7.63 L 17.15,7.67 L 17.97,8.08 L 17.91,8.14 L 17.11,8.52 L 17.11,8.56 L 18.89,9.45 L 18.04,9.89 L 18.04,9.92 L 18.86,10.34 L 18.99,10.34 L 19.79,9.92 L 19.88,9.92 L 20.68,10.34 L 20.80,10.34 L 21.63,9.92 L 21.63,9.89 L 20.77,9.45 L 20.71,9.45 L 19.85,9.89 L 18.96,9.45 L 20.74,8.56 L 20.74,8.52 L 19.94,8.14 L 19.88,8.08 L 21.60,7.22 Z" fill="#265f0d" stroke="none" /><path d="M 12.63,7.16 L 12.63,7.22 L 13.46,7.63 L 13.55,7.63 L 14.38,7.22 L 14.38,7.16 L 13.55,6.74 L 13.46,6.74 Z" fill="#265f0d" stroke="none" /><path d="M 7.19,7.16 L 7.22,7.22 L 8.94,8.08 L 8.87,8.14 L 8.08,8.52 L 8.08,8.56 L 8.97,9.00 L 9.89,8.56 L 9.89,8.52 L 9.10,8.14 L 9.03,8.08 L 9.86,7.67 L 9.86,7.60 L 8.14,6.74 L 8.02,6.74 Z" fill="#265f0d" stroke="none" /><path d="M 0.89,6.78 L 1.75,7.19 L 2.64,6.74 L 2.64,6.71 L 1.81,6.30 L 1.75,6.30 L 0.92,6.71 Z" fill="#265f0d" stroke="none" /><path d="M 4.42,5.82 L 3.59,6.23 L 3.56,6.30 L 5.25,7.13 L 5.31,7.19 L 4.49,7.60 L 4.49,7.67 L 5.31,8.08 L 5.25,8.14 L 4.45,8.52 L 4.45,8.56 L 5.38,9.00 L 6.27,8.56 L 6.27,8.52 L 5.47,8.14 L 5.41,8.08 L 6.23,7.67 L 6.23,7.60 L 5.41,7.19 L 5.47,7.13 L 6.27,6.74 L 6.27,6.71 L 4.49,5.82 Z" fill="#265f0d" stroke="none" /><path d="M 25.16,5.41 L 24.40,5.79 L 24.40,5.85 L 25.22,6.27 L 25.16,6.33 L 24.37,6.71 L 24.37,6.74 L 25.29,7.19 L 26.18,6.74 L 26.18,6.71 L 25.38,6.33 L 25.32,6.27 L 26.08,5.88 L 26.12,5.82 L 25.29,5.41 Z" fill="#265f0d" stroke="none" /><path d="M 11.71,5.82 L 11.71,5.85 L 12.53,6.27 L 12.66,6.27 L 13.49,5.85 L 13.46,5.79 L 12.63,5.38 L 12.56,5.38 Z" fill="#265f0d" stroke="none" /><path d="M 8.08,5.82 L 8.08,5.85 L 8.91,6.27 L 9.03,6.27 L 9.86,5.85 L 9.83,5.79 L 9.00,5.38 L 8.94,5.38 Z" fill="#265f0d" stroke="none" /><path d="M 18.89,4.93 L 18.07,5.34 L 18.07,5.41 L 18.89,5.82 L 18.83,5.88 L 18.04,6.27 L 18.04,6.30 L 18.96,6.74 L 19.85,6.30 L 19.85,6.27 L 19.05,5.88 L 18.99,5.82 L 19.82,5.41 L 19.82,5.34 L 18.99,4.93 Z" fill="#265f0d" stroke="none" /><path d="M 10.82,3.53 L 10.82,3.59 L 11.64,4.01 L 11.74,4.01 L 12.56,3.59 L 12.56,3.53 L 11.74,3.12 L 11.64,3.12 Z" fill="#265f0d" stroke="none" /><path d="M 9.86,3.09 L 9.00,2.67 L 8.11,3.12 L 8.11,3.15 L 8.94,3.56 L 9.00,3.56 L 9.83,3.15 Z" fill="#265f0d" stroke="none" /><path d="M 16.22,2.64 L 16.22,2.67 L 17.02,3.05 L 17.08,3.12 L 16.25,3.53 L 16.25,3.59 L 17.08,4.01 L 17.18,4.01 L 18.96,3.12 L 19.82,3.56 L 18.99,3.98 L 18.96,4.04 L 19.79,4.45 L 19.91,4.45 L 20.74,4.04 L 20.71,3.98 L 19.88,3.56 L 20.71,3.15 L 20.71,3.12 L 18.93,2.23 L 18.86,2.23 L 18.07,2.64 L 18.00,2.64 L 17.11,2.19 Z" fill="#265f0d" stroke="none" /><path d="M 9.96,2.19 L 9.96,2.26 L 10.72,2.64 L 10.85,2.64 L 11.67,2.23 L 11.64,2.16 L 10.88,1.78 L 10.78,1.78 Z" fill="#265f0d" stroke="none" /><path d="M 13.49,1.27 L 12.63,0.86 L 11.74,1.30 L 11.74,1.34 L 12.56,1.75 L 12.63,1.75 L 13.46,1.34 Z" fill="#265f0d" stroke="none" /><path d="M 9.92,12.12 L 9.92,12.15 L 10.82,12.60 L 11.67,12.18 L 11.64,12.12 L 10.82,11.71 L 10.75,11.71 Z" fill="#2a6b0e" stroke="none" /><path d="M 13.52,11.23 L 13.55,11.29 L 14.38,11.71 L 14.44,11.71 L 15.30,11.26 L 15.30,11.23 L 14.47,10.82 L 14.35,10.82 Z" fill="#2a6b0e" stroke="none" /><path d="M 8.08,10.34 L 8.08,10.37 L 8.97,10.82 L 9.89,10.37 L 9.89,10.34 L 9.00,9.89 Z" fill="#2a6b0e" stroke="none" /><path d="M 10.82,9.89 L 10.82,9.92 L 11.64,10.34 L 11.77,10.34 L 12.60,9.92 L 12.56,9.86 L 11.74,9.45 L 11.67,9.45 Z" fill="#2a6b0e" stroke="none" /><path d="M 22.52,9.42 L 20.80,8.56 L 20.68,8.56 L 18.96,9.42 L 18.96,9.48 L 19.79,9.89 L 19.72,9.96 L 18.04,10.78 L 18.07,10.85 L 18.89,11.26 L 18.07,11.67 L 18.07,11.74 L 18.83,12.12 L 18.96,12.12 L 19.79,11.71 L 19.79,11.67 L 18.99,11.29 L 18.96,11.26 L 18.99,11.23 L 20.71,10.37 L 20.77,10.37 L 21.57,10.78 L 21.63,10.78 L 22.46,10.37 L 22.49,10.31 L 21.76,9.96 L 21.69,9.89 L 22.52,9.48 Z" fill="#2a6b0e" stroke="none" /><path d="M 8.08,8.52 L 7.16,8.08 L 4.55,9.38 L 4.52,9.45 L 5.34,9.86 L 5.47,9.86 L 8.08,8.56 Z" fill="#2a6b0e" stroke="none" /><path d="M 2.70,8.49 L 2.74,8.56 L 3.56,8.97 L 3.63,8.97 L 4.45,8.56 L 4.45,8.52 L 3.56,8.08 Z" fill="#2a6b0e" stroke="none" /><path d="M 10.82,7.16 L 10.82,7.22 L 12.53,8.08 L 12.66,8.08 L 13.46,7.67 L 13.55,7.67 L 14.35,8.08 L 14.47,8.08 L 16.19,7.22 L 16.19,7.16 L 15.36,6.74 L 15.27,6.74 L 13.52,7.63 L 11.74,6.74 L 11.64,6.74 Z" fill="#2a6b0e" stroke="none" /><path d="M 1.81,6.27 L 1.81,6.33 L 3.53,7.19 L 4.45,6.74 L 4.45,6.71 L 2.74,5.85 L 2.64,5.85 Z" fill="#2a6b0e" stroke="none" /><path d="M 5.34,5.34 L 4.49,4.93 L 3.59,5.38 L 3.59,5.41 L 4.42,5.82 L 4.49,5.82 L 5.31,5.41 Z" fill="#2a6b0e" stroke="none" /><path d="M 27.93,6.78 L 27.90,6.71 L 27.07,6.30 L 27.01,6.30 L 25.32,7.16 L 25.22,7.16 L 23.57,6.33 L 23.51,6.27 L 23.54,6.23 L 24.33,5.85 L 24.33,5.79 L 23.51,5.38 L 23.57,5.31 L 24.30,4.96 L 24.30,4.93 L 23.44,4.49 L 22.58,4.90 L 22.62,4.96 L 23.35,5.31 L 23.41,5.38 L 21.66,6.27 L 20.74,5.82 L 18.99,6.71 L 18.89,6.71 L 18.10,6.30 L 17.97,6.30 L 17.15,6.71 L 17.18,6.78 L 18.00,7.19 L 18.07,7.19 L 18.93,6.74 L 19.85,7.19 L 21.60,6.30 L 21.69,6.30 L 22.46,6.68 L 22.49,6.74 L 21.66,7.16 L 21.66,7.19 L 23.41,8.08 L 23.51,8.08 L 25.26,7.19 L 26.15,7.63 L 26.21,7.63 Z" fill="#2a6b0e" stroke="none" /><path d="M 5.41,4.52 L 6.27,4.93 L 7.16,4.49 L 7.16,4.45 L 6.33,4.04 L 6.27,4.04 L 5.44,4.45 Z" fill="#2a6b0e" stroke="none" /><path d="M 7.22,3.56 L 7.25,3.63 L 8.02,4.01 L 8.11,4.01 L 8.94,3.59 L 8.94,3.53 L 8.17,3.15 L 8.05,3.15 Z" fill="#2a6b0e" stroke="none" /><path d="M 9.00,3.53 L 9.00,3.59 L 9.83,4.01 L 9.92,4.01 L 10.75,3.59 L 10.75,3.53 L 9.92,3.12 L 9.83,3.12 Z" fill="#2a6b0e" stroke="none" /><path d="M 9.00,5.34 L 9.00,5.41 L 9.83,5.82 L 9.77,5.88 L 8.97,6.27 L 8.97,6.30 L 9.86,6.74 L 10.78,6.30 L 10.78,6.27 L 9.99,5.88 L 9.92,5.82 L 10.78,5.38 L 11.64,5.82 L 11.74,5.82 L 12.60,5.38 L 13.42,5.79 L 13.46,5.82 L 13.39,5.88 L 12.60,6.27 L 12.60,6.30 L 13.49,6.74 L 14.41,6.30 L 14.41,6.27 L 13.61,5.88 L 13.55,5.82 L 14.38,5.41 L 14.38,5.34 L 12.66,4.49 L 12.69,4.42 L 13.49,4.04 L 13.49,4.01 L 12.63,3.56 L 13.46,3.15 L 13.49,3.09 L 11.71,2.19 L 10.78,2.64 L 10.78,2.67 L 12.56,3.56 L 11.71,4.01 L 11.71,4.04 L 12.50,4.42 L 12.53,4.49 L 11.74,4.90 L 11.64,4.90 L 10.85,4.49 L 10.72,4.49 Z" fill="#2a6b0e" stroke="none" /><path d="M 14.41,0.83 L 14.41,0.86 L 16.19,1.75 L 16.25,1.75 L 17.08,1.34 L 17.08,1.30 L 15.30,0.41 L 15.24,0.41 Z" fill="#2a6b0e" stroke="none" /><path d="M 16.25,5.34 L 16.25,5.41 L 17.08,5.82 L 17.18,5.82 L 18.00,5.41 L 18.00,5.34 L 17.18,4.93 L 17.08,4.93 Z" fill="#429a0f" stroke="none" /><path d="M 10.85,12.56 L 10.88,12.63 L 12.60,13.49 L 12.69,13.49 L 13.49,13.07 L 13.49,13.04 L 11.71,12.15 Z" fill="#338211" stroke="none" /><path d="M 18.96,11.23 L 18.96,11.29 L 19.72,11.67 L 19.85,11.67 L 20.68,11.26 L 20.64,11.20 L 19.88,10.82 L 19.79,10.82 Z" fill="#338211" stroke="none" /><path d="M 18.89,11.23 L 18.07,10.82 L 17.97,10.82 L 16.25,11.67 L 16.25,11.74 L 17.08,12.15 L 17.02,12.21 L 16.22,12.60 L 16.22,12.63 L 17.05,13.04 L 17.11,13.04 L 18.89,12.15 L 18.89,12.12 L 18.07,11.71 L 18.89,11.29 Z" fill="#338211" stroke="none" /><path d="M 6.30,9.42 L 6.30,9.48 L 7.13,9.89 L 7.06,9.96 L 6.33,10.31 L 6.36,10.37 L 8.97,11.67 L 9.10,11.67 L 9.86,11.29 L 9.86,11.23 L 8.14,10.37 L 8.17,10.31 L 8.94,9.92 L 9.03,9.92 L 10.69,10.75 L 10.75,10.82 L 10.72,10.85 L 9.92,11.23 L 9.92,11.29 L 10.75,11.71 L 10.82,11.71 L 11.67,11.26 L 11.67,11.23 L 10.85,10.82 L 10.91,10.75 L 11.71,10.37 L 11.71,10.34 L 9.03,9.00 L 8.94,9.00 L 8.08,9.45 L 7.22,9.00 L 7.13,9.00 Z" fill="#338211" stroke="none" /><path d="M 0.89,7.60 L 0.89,7.63 L 2.67,8.52 L 3.50,8.11 L 3.59,8.11 L 4.36,8.49 L 4.39,8.52 L 4.36,8.59 L 3.63,8.94 L 3.63,9.00 L 4.45,9.42 L 4.55,9.42 L 5.34,9.00 L 5.34,8.97 L 4.52,8.56 L 4.55,8.49 L 5.34,8.11 L 5.34,8.08 L 3.59,7.19 L 3.50,7.19 L 2.64,7.63 L 1.78,7.19 L 1.69,7.19 Z" fill="#338211" stroke="none" /><path d="M 2.70,5.82 L 2.74,5.88 L 3.50,6.27 L 3.59,6.27 L 4.42,5.85 L 4.42,5.79 L 3.66,5.41 L 3.53,5.41 Z" fill="#338211" stroke="none" /><path d="M 16.22,6.27 L 14.44,5.38 L 14.38,5.38 L 13.52,5.82 L 13.52,5.85 L 14.35,6.27 L 14.31,6.33 L 13.55,6.71 L 13.46,6.71 L 11.71,5.82 L 10.78,6.27 L 10.78,6.30 L 12.56,7.19 L 12.63,7.19 L 13.49,6.74 L 14.38,7.19 L 14.44,7.19 L 16.22,6.30 Z" fill="#338211" stroke="none" /><path d="M 23.48,5.34 L 23.51,5.41 L 24.33,5.82 L 23.51,6.23 L 23.48,6.30 L 24.30,6.71 L 24.43,6.71 L 25.22,6.30 L 25.32,6.30 L 26.12,6.71 L 26.24,6.71 L 27.01,6.33 L 27.01,6.27 L 26.18,5.85 L 26.08,5.85 L 25.29,6.27 L 24.43,5.85 L 24.40,5.82 L 24.43,5.79 L 25.22,5.41 L 25.22,5.38 L 24.33,4.93 Z" fill="#338211" stroke="none" /><path d="M 4.49,5.85 L 5.31,6.27 L 5.41,6.27 L 7.13,5.41 L 7.13,5.34 L 5.38,4.49 L 4.52,4.93 L 4.52,4.96 L 5.25,5.31 L 5.31,5.38 L 4.49,5.79 Z" fill="#338211" stroke="none" /><path d="M 17.15,4.01 L 17.15,4.04 L 19.79,5.34 L 19.82,5.38 L 19.79,5.41 L 18.96,5.82 L 18.96,5.85 L 19.79,6.27 L 19.91,6.27 L 21.63,5.41 L 21.63,5.34 L 18.07,3.56 L 18.00,3.56 Z" fill="#338211" stroke="none" /><path d="M 14.44,3.53 L 14.44,3.59 L 15.27,4.01 L 15.36,4.01 L 16.19,3.59 L 16.19,3.53 L 15.36,3.12 L 15.27,3.12 Z" fill="#338211" stroke="none" /><path d="M 13.58,0.38 L 13.58,0.45 L 14.31,0.80 L 14.35,0.86 L 13.52,1.27 L 13.55,1.34 L 16.16,2.64 L 16.29,2.64 L 17.08,2.23 L 17.18,2.23 L 17.97,2.64 L 18.10,2.64 L 18.86,2.26 L 18.86,2.19 L 17.15,1.34 L 17.02,1.34 L 16.22,1.75 L 14.50,0.89 L 14.47,0.86 L 14.50,0.80 L 15.24,0.45 L 15.24,0.38 L 14.47,0.00 L 14.35,0.00 Z" fill="#338211" stroke="none" /></svg>