<svg height="32" width="32" viewBox="0 0 32 32"><defs /><path d="M 16.95,17.98 L 16.88,17.98 L 16.00,18.44 L 16.00,19.64 L 16.07,19.64 L 16.95,19.18 Z" fill="#291c13" stroke="none" /><path d="M 19.96,14.02 L 19.89,14.02 L 17.98,14.98 L 17.98,16.21 L 19.96,15.22 Z" fill="#291c13" stroke="none" /><path d="M 23.98,12.01 L 23.91,12.01 L 22.99,12.47 L 22.99,13.70 L 23.98,13.21 Z" fill="#291c13" stroke="none" /><path d="M 29.03,9.47 L 28.01,9.96 L 28.01,11.20 L 29.03,10.70 Z" fill="#291c13" stroke="none" /><path d="M 32.00,9.22 L 31.93,9.22 L 31.01,9.68 L 31.01,12.15 L 32.00,11.66 Z" fill="#291c13" stroke="none" /><path d="M 17.98,15.01 L 17.91,15.01 L 16.00,15.96 L 16.00,18.44 L 16.95,17.98 L 16.95,16.74 L 17.98,16.21 Z" fill="#2d2015" stroke="none" /><path d="M 22.99,12.50 L 22.92,12.50 L 19.96,13.99 L 19.96,15.22 L 22.96,13.74 L 22.99,13.70 Z" fill="#2d2015" stroke="none" /><path d="M 28.01,10.00 L 27.94,10.00 L 23.98,11.97 L 23.98,13.21 L 27.97,11.23 L 28.01,11.20 Z" fill="#2d2015" stroke="none" /><path d="M 32.00,7.98 L 29.07,9.43 L 29.03,9.47 L 29.03,10.67 L 29.10,10.67 L 32.00,9.22 Z" fill="#2d2015" stroke="none" /><path d="M 22.99,14.94 L 21.97,15.43 L 21.97,16.67 L 22.99,16.18 Z" fill="#3c2a1b" stroke="none" /><path d="M 26.00,13.46 L 25.92,13.46 L 25.01,13.92 L 25.01,15.15 L 26.00,14.66 Z" fill="#3c2a1b" stroke="none" /><path d="M 29.03,11.94 L 28.96,11.94 L 28.01,12.43 L 28.01,13.63 L 28.08,13.63 L 29.03,13.14 Z" fill="#3c2a1b" stroke="none" /><path d="M 17.98,16.21 L 16.95,16.71 L 16.95,17.94 L 17.02,17.94 L 17.98,17.45 Z" fill="#3f2d1d" stroke="none" /><path d="M 21.97,15.47 L 21.90,15.47 L 20.98,15.93 L 20.98,17.17 L 21.97,16.67 Z" fill="#3f2d1d" stroke="none" /><path d="M 25.01,13.95 L 24.94,13.95 L 23.98,14.45 L 23.98,15.65 L 24.05,15.65 L 25.01,15.15 Z" fill="#3f2d1d" stroke="none" /><path d="M 28.01,12.43 L 27.02,12.93 L 27.02,14.13 L 27.09,14.13 L 28.01,13.67 Z" fill="#3f2d1d" stroke="none" /><path d="M 31.01,9.71 L 30.94,9.71 L 30.02,10.17 L 30.02,11.41 L 30.09,11.41 L 31.01,10.95 Z" fill="#3f2d1d" stroke="none" /><path d="M 15.05,16.74 L 15.05,19.18 L 15.93,19.64 L 16.00,19.64 L 16.00,17.20 L 15.12,16.74 Z" fill="#432d1e" stroke="none" /><path d="M 12.04,14.02 L 12.04,15.22 L 13.03,15.72 L 13.03,14.48 L 12.11,14.02 Z" fill="#432d1e" stroke="none" /><path d="M 6.99,11.48 L 6.99,12.72 L 8.02,13.21 L 8.02,11.97 Z" fill="#432d1e" stroke="none" /><path d="M 0.00,10.45 L 0.00,11.66 L 0.99,12.15 L 0.99,10.91 L 0.07,10.45 Z" fill="#432d1e" stroke="none" /><path d="M 1.98,8.97 L 1.98,10.21 L 3.99,11.20 L 3.99,9.96 Z" fill="#432d1e" stroke="none" /><path d="M 13.03,14.52 L 13.03,15.72 L 13.07,15.75 L 16.00,17.20 L 16.00,15.96 L 13.10,14.52 Z" fill="#493322" stroke="none" /><path d="M 8.02,12.01 L 8.02,13.21 L 8.05,13.25 L 12.04,15.22 L 12.04,13.99 L 8.09,12.01 Z" fill="#493322" stroke="none" /><path d="M 3.99,10.00 L 3.99,11.20 L 4.03,11.23 L 6.92,12.68 L 6.99,12.68 L 6.99,11.48 L 6.96,11.44 L 4.06,10.00 Z" fill="#493322" stroke="none" /><path d="M 0.00,7.98 L 0.00,10.45 L 0.92,10.91 L 0.99,10.91 L 0.99,9.75 L 1.02,9.71 L 1.91,10.17 L 1.98,10.17 L 1.98,8.97 Z" fill="#493322" stroke="none" /><path d="M 20.98,14.73 L 20.91,14.73 L 19.96,15.22 L 19.96,16.42 L 19.89,16.49 L 17.98,17.45 L 17.98,18.65 L 18.05,18.65 L 20.98,17.17 Z" fill="#463324" stroke="none" /><path d="M 27.02,12.93 L 26.00,13.42 L 26.00,14.66 L 27.02,14.16 Z" fill="#463324" stroke="none" /><path d="M 25.01,12.72 L 24.94,12.72 L 22.99,13.70 L 22.99,16.14 L 23.06,16.14 L 23.98,15.68 L 23.98,14.48 L 24.05,14.41 L 25.01,13.95 Z" fill="#463324" stroke="none" /><path d="M 28.96,10.70 L 28.01,11.20 L 28.01,12.43 L 29.00,11.94 L 29.03,11.97 L 29.03,13.14 L 29.07,13.14 L 30.02,12.64 L 30.02,11.44 L 29.95,11.44 L 29.07,11.90 L 29.03,11.87 L 29.03,10.70 Z" fill="#463324" stroke="none" /><path d="M 19.96,15.22 L 17.98,16.21 L 17.98,17.41 L 17.91,17.48 L 16.95,17.94 L 16.95,19.18 L 17.98,18.68 L 17.98,17.48 L 18.05,17.41 L 19.96,16.46 Z" fill="#493527" stroke="none" /><path d="M 22.99,13.70 L 20.98,14.69 L 20.98,15.93 L 21.05,15.93 L 22.99,14.94 Z" fill="#493527" stroke="none" /><path d="M 28.01,11.20 L 25.01,12.68 L 25.01,13.92 L 25.08,13.92 L 27.97,12.47 L 28.01,12.43 Z" fill="#493527" stroke="none" /><path d="M 29.95,10.21 L 29.03,10.67 L 29.03,11.90 L 29.10,11.90 L 29.99,11.44 L 30.02,11.48 L 30.02,12.64 L 30.06,12.64 L 31.01,12.15 L 31.01,10.95 L 30.94,10.95 L 30.06,11.41 L 30.02,11.37 L 30.02,10.21 Z" fill="#493527" stroke="none" /><path d="M 12.04,16.46 L 12.04,17.70 L 12.96,18.15 L 13.03,18.15 L 13.03,16.95 Z" fill="#61442c" stroke="none" /><path d="M 9.01,14.94 L 9.01,16.18 L 10.03,16.67 L 10.03,15.43 Z" fill="#61442c" stroke="none" /><path d="M 6.00,13.46 L 6.00,14.66 L 6.99,15.15 L 6.99,13.92 L 6.08,13.46 Z" fill="#61442c" stroke="none" /><path d="M 18.97,14.48 L 18.05,14.02 L 17.98,14.02 L 16.00,15.01 L 16.00,15.05 L 16.92,15.51 L 16.99,15.51 L 18.97,14.52 Z" fill="#67452e" stroke="none" /><path d="M 12.04,13.99 L 12.04,14.02 L 12.96,14.48 L 13.10,14.48 L 13.95,14.06 L 13.95,13.99 L 13.03,13.53 L 12.93,13.53 Z" fill="#67452e" stroke="none" /><path d="M 23.98,11.97 L 23.10,11.51 L 22.99,11.51 L 21.09,12.47 L 21.05,12.54 L 22.00,13.00 L 23.98,12.01 Z" fill="#67452e" stroke="none" /><path d="M 24.05,10.98 L 24.09,11.06 L 24.94,11.48 L 25.04,11.48 L 25.96,11.02 L 25.96,10.95 L 25.11,10.53 L 24.97,10.53 Z" fill="#67452e" stroke="none" /><path d="M 28.08,8.97 L 28.11,9.04 L 28.96,9.47 L 29.07,9.47 L 29.99,9.01 L 29.99,8.94 L 29.14,8.51 L 29.00,8.51 Z" fill="#67452e" stroke="none" /><path d="M 0.99,8.44 L 1.02,8.51 L 3.92,9.96 L 4.06,9.96 L 4.91,9.54 L 4.91,9.47 L 1.94,7.98 Z" fill="#67452e" stroke="none" /><path d="M 27.06,6.46 L 27.06,6.50 L 29.03,7.49 L 29.10,7.49 L 30.02,7.03 L 30.02,6.99 L 28.04,6.00 L 27.97,6.00 Z" fill="#67452e" stroke="none" /><path d="M 3.00,6.53 L 3.96,6.99 L 4.94,6.50 L 4.94,6.46 L 4.03,6.00 L 3.96,6.00 L 3.04,6.46 Z" fill="#67452e" stroke="none" /><path d="M 8.05,3.96 L 8.05,4.03 L 8.90,4.45 L 9.04,4.45 L 9.96,3.99 L 9.96,3.96 L 9.04,3.50 L 8.97,3.50 Z" fill="#67452e" stroke="none" /><path d="M 17.02,1.45 L 17.02,1.48 L 19.00,2.47 L 19.96,2.01 L 19.92,1.94 L 18.01,0.99 L 17.91,0.99 Z" fill="#67452e" stroke="none" /><path d="M 14.98,1.45 L 14.09,0.99 L 13.99,0.99 L 12.08,1.94 L 12.04,2.01 L 13.00,2.47 L 14.98,1.48 Z" fill="#67452e" stroke="none" /><path d="M 14.02,16.21 L 14.02,17.45 L 14.98,17.94 L 15.05,17.94 L 15.05,16.71 Z" fill="#66482f" stroke="none" /><path d="M 11.02,15.96 L 11.02,17.17 L 11.97,17.66 L 12.04,17.66 L 12.04,16.46 L 11.09,15.96 Z" fill="#66482f" stroke="none" /><path d="M 8.02,14.45 L 8.02,15.68 L 8.94,16.14 L 9.01,16.14 L 9.01,14.94 Z" fill="#66482f" stroke="none" /><path d="M 4.98,12.93 L 4.98,14.16 L 6.00,14.66 L 6.00,13.42 Z" fill="#66482f" stroke="none" /><path d="M 0.99,9.71 L 0.99,10.95 L 1.91,11.41 L 1.98,11.41 L 1.98,10.17 L 1.06,9.71 Z" fill="#66482f" stroke="none" /><path d="M 19.04,12.50 L 19.04,12.54 L 19.96,13.00 L 20.10,13.00 L 21.02,12.54 L 20.98,12.47 L 20.06,12.01 L 19.99,12.01 Z" fill="#323232" stroke="none" /><path d="M 24.05,10.00 L 24.05,10.03 L 24.97,10.49 L 25.11,10.49 L 26.03,10.03 L 26.00,9.96 L 25.08,9.50 L 25.01,9.50 Z" fill="#323232" stroke="none" /><path d="M 13.03,14.48 L 13.03,14.52 L 15.93,15.96 L 16.07,15.96 L 16.92,15.54 L 16.92,15.47 L 14.02,14.02 L 13.95,14.02 Z" fill="#714f34" stroke="none" /><path d="M 21.97,12.96 L 21.02,12.50 L 18.05,13.99 L 18.05,14.06 L 18.90,14.48 L 19.04,14.48 L 21.93,13.03 Z" fill="#714f34" stroke="none" /><path d="M 23.06,11.48 L 23.10,11.55 L 23.95,11.97 L 24.05,11.97 L 24.97,11.51 L 24.94,11.44 L 24.09,11.02 L 23.98,11.02 Z" fill="#714f34" stroke="none" /><path d="M 3.99,9.96 L 3.99,10.00 L 11.97,13.99 L 12.08,13.99 L 12.96,13.53 L 12.96,13.49 L 4.98,9.50 L 4.91,9.50 Z" fill="#714f34" stroke="none" /><path d="M 29.00,9.47 L 28.11,9.01 L 28.01,9.01 L 25.04,10.49 L 25.04,10.53 L 25.96,10.98 L 26.03,10.98 L 29.00,9.50 Z" fill="#714f34" stroke="none" /><path d="M 29.07,8.51 L 29.99,8.97 L 30.06,8.97 L 31.96,8.02 L 31.96,7.98 L 30.09,7.03 L 29.95,7.03 L 29.10,7.45 L 29.10,7.52 L 30.02,7.98 L 29.95,8.05 L 29.07,8.48 Z" fill="#714f34" stroke="none" /><path d="M 3.92,6.96 L 2.97,6.50 L 0.07,7.95 L 0.04,8.02 L 0.99,8.48 L 3.89,7.03 Z" fill="#714f34" stroke="none" /><path d="M 8.97,4.45 L 8.05,3.99 L 7.98,3.99 L 4.03,5.97 L 4.03,6.04 L 4.87,6.46 L 5.02,6.46 L 8.97,4.49 Z" fill="#714f34" stroke="none" /><path d="M 19.04,2.44 L 19.07,2.51 L 26.98,6.46 L 27.13,6.46 L 27.97,6.04 L 27.97,5.97 L 19.99,1.98 Z" fill="#714f34" stroke="none" /><path d="M 12.96,2.44 L 12.01,1.98 L 9.04,3.46 L 9.04,3.53 L 9.89,3.96 L 10.03,3.96 L 12.93,2.51 Z" fill="#714f34" stroke="none" /><path d="M 14.06,0.95 L 14.09,1.02 L 14.94,1.45 L 15.05,1.45 L 16.00,0.95 L 16.95,1.45 L 17.06,1.45 L 17.94,0.99 L 17.94,0.95 L 16.04,0.00 L 15.96,0.00 Z" fill="#714f34" stroke="none" /><path d="M 10.03,15.47 L 10.03,16.67 L 11.02,17.17 L 11.02,15.93 L 10.10,15.47 Z" fill="#71523b" stroke="none" /><path d="M 12.04,15.22 L 12.04,16.46 L 12.96,16.92 L 13.03,16.99 L 13.03,18.19 L 13.95,18.65 L 14.02,18.65 L 14.02,17.45 L 13.10,16.99 L 13.03,16.92 L 13.03,15.72 Z" fill="#71523b" stroke="none" /><path d="M 6.99,12.72 L 6.99,15.15 L 7.95,15.65 L 8.02,15.65 L 8.02,14.52 L 8.05,14.48 L 9.01,14.94 L 9.01,13.70 L 7.06,12.72 Z" fill="#71523b" stroke="none" /><path d="M 1.98,11.44 L 1.98,12.64 L 2.01,12.68 L 4.91,14.13 L 4.98,14.13 L 4.98,11.69 L 4.94,11.66 L 3.99,11.20 L 3.99,12.36 L 3.92,12.40 L 2.05,11.44 Z" fill="#71523b" stroke="none" /><path d="M 13.03,15.72 L 13.03,16.95 L 13.95,17.41 L 14.02,17.48 L 14.02,18.68 L 15.05,19.18 L 15.05,17.94 L 14.09,17.48 L 14.02,17.41 L 14.02,16.21 Z" fill="#765740" stroke="none" /><path d="M 9.01,13.70 L 9.01,14.94 L 9.04,14.98 L 12.04,16.46 L 12.04,15.22 L 12.01,15.19 Z" fill="#765740" stroke="none" /><path d="M 4.98,11.69 L 4.98,12.93 L 6.92,13.92 L 6.99,13.92 L 6.99,12.68 Z" fill="#765740" stroke="none" /><path d="M 0.99,10.95 L 0.99,12.15 L 1.94,12.64 L 1.98,12.64 L 1.98,11.48 L 2.01,11.44 L 3.99,12.43 L 3.99,11.20 L 2.05,10.21 L 1.98,10.21 L 1.98,11.37 L 1.94,11.41 L 1.06,10.95 Z" fill="#765740" stroke="none" /><path d="M 8.97,11.48 L 9.01,11.55 L 9.92,12.01 L 10.00,12.01 L 10.95,11.51 L 10.95,11.48 L 10.03,11.02 L 9.89,11.02 Z" fill="#956943" stroke="none" /><path d="M 12.01,9.96 L 12.01,10.03 L 12.93,10.49 L 13.03,10.49 L 13.95,10.03 L 13.95,9.96 L 13.03,9.50 L 12.93,9.50 Z" fill="#956943" stroke="none" /><path d="M 13.99,8.97 L 13.99,9.01 L 14.98,9.50 L 16.00,9.01 L 16.00,8.97 L 15.01,8.48 Z" fill="#956943" stroke="none" /><path d="M 17.02,7.45 L 17.02,7.52 L 17.94,7.98 L 18.05,7.98 L 18.97,7.52 L 18.97,7.45 L 18.05,6.99 L 17.94,6.99 Z" fill="#956943" stroke="none" /><path d="M 4.98,7.45 L 4.98,7.52 L 5.90,7.98 L 6.00,7.98 L 6.92,7.52 L 6.92,7.45 L 6.00,6.99 L 5.90,6.99 Z" fill="#956943" stroke="none" /><path d="M 19.00,6.46 L 19.00,6.50 L 19.99,6.99 L 21.02,6.50 L 21.02,6.46 L 20.03,5.97 Z" fill="#956943" stroke="none" /><path d="M 7.98,5.97 L 7.98,6.00 L 8.90,6.46 L 9.04,6.46 L 9.96,6.00 L 9.92,5.93 L 9.01,5.47 L 8.94,5.47 Z" fill="#956943" stroke="none" /><path d="M 22.04,4.94 L 22.08,5.02 L 22.99,5.47 L 23.06,5.47 L 24.02,4.98 L 24.02,4.94 L 23.10,4.49 L 22.96,4.49 Z" fill="#956943" stroke="none" /><path d="M 10.98,4.45 L 11.02,4.52 L 11.94,4.98 L 12.01,4.98 L 12.96,4.49 L 12.96,4.45 L 12.04,3.99 L 11.90,3.99 Z" fill="#956943" stroke="none" /><path d="M 20.06,11.97 L 20.06,12.04 L 20.98,12.50 L 21.09,12.50 L 22.00,12.04 L 22.00,11.97 L 21.09,11.51 L 20.98,11.51 Z" fill="#484848" stroke="none" /><path d="M 25.04,10.49 L 24.02,10.00 L 22.04,10.98 L 22.04,11.02 L 23.06,11.51 L 25.04,10.53 Z" fill="#484848" stroke="none" /><path d="M 18.01,13.00 L 18.01,13.03 L 19.00,13.53 L 20.03,13.03 L 20.03,13.00 L 19.04,12.50 Z" fill="#9d7049" stroke="none" /><path d="M 10.00,11.97 L 10.00,12.04 L 15.93,15.01 L 16.07,15.01 L 17.98,14.06 L 17.98,13.99 L 17.06,13.53 L 16.95,13.53 L 16.00,14.02 L 11.02,11.51 L 10.91,11.51 Z" fill="#9d7049" stroke="none" /><path d="M 15.01,11.48 L 15.05,11.55 L 15.96,12.01 L 16.04,12.01 L 16.99,11.51 L 16.99,11.48 L 16.07,11.02 L 15.93,11.02 Z" fill="#9d7049" stroke="none" /><path d="M 18.01,10.98 L 18.01,11.02 L 19.00,11.51 L 20.03,11.02 L 20.03,10.98 L 19.04,10.49 Z" fill="#9d7049" stroke="none" /><path d="M 25.08,9.47 L 25.08,9.54 L 26.00,10.00 L 26.10,10.00 L 27.02,9.54 L 27.02,9.47 L 26.10,9.01 L 26.00,9.01 Z" fill="#9d7049" stroke="none" /><path d="M 21.05,9.47 L 21.05,9.54 L 21.97,10.00 L 22.08,10.00 L 22.99,9.54 L 22.99,9.47 L 22.08,9.01 L 21.97,9.01 Z" fill="#9d7049" stroke="none" /><path d="M 3.96,8.97 L 3.99,9.04 L 7.95,11.02 L 8.97,10.53 L 8.97,10.49 L 5.02,8.51 L 4.87,8.51 Z" fill="#9d7049" stroke="none" /><path d="M 15.96,7.98 L 15.01,8.48 L 15.01,8.51 L 15.93,8.97 L 15.89,9.04 L 15.01,9.47 L 15.01,9.50 L 15.96,10.00 L 16.04,10.00 L 16.99,9.50 L 16.99,9.47 L 16.07,9.01 L 16.11,8.94 L 16.99,8.51 L 16.99,8.48 L 16.04,7.98 Z" fill="#9d7049" stroke="none" /><path d="M 22.04,7.98 L 22.04,8.02 L 22.96,8.48 L 23.10,8.48 L 24.02,8.02 L 23.98,7.95 L 23.06,7.49 L 22.99,7.49 Z" fill="#9d7049" stroke="none" /><path d="M 12.01,7.98 L 12.01,8.02 L 12.93,8.48 L 13.07,8.48 L 13.99,8.02 L 13.95,7.95 L 13.03,7.49 L 12.96,7.49 Z" fill="#9d7049" stroke="none" /><path d="M 1.94,7.98 L 1.94,8.02 L 2.86,8.48 L 3.00,8.48 L 3.92,8.02 L 3.89,7.95 L 2.97,7.49 L 2.90,7.49 Z" fill="#9d7049" stroke="none" /><path d="M 18.93,6.50 L 18.01,6.96 L 18.05,7.03 L 18.97,7.49 L 18.05,7.95 L 18.01,8.02 L 18.93,8.48 L 19.07,8.48 L 19.99,8.02 L 19.96,7.95 L 19.04,7.49 L 19.96,7.03 L 19.99,6.96 L 19.07,6.50 Z" fill="#9d7049" stroke="none" /><path d="M 5.97,6.96 L 6.00,7.03 L 6.92,7.49 L 6.99,7.49 L 7.95,6.99 L 7.95,6.96 L 7.03,6.50 L 6.89,6.50 Z" fill="#9d7049" stroke="none" /><path d="M 15.01,6.46 L 15.05,6.53 L 15.96,6.99 L 16.04,6.99 L 16.99,6.50 L 16.99,6.46 L 16.07,6.00 L 15.93,6.00 Z" fill="#9d7049" stroke="none" /><path d="M 20.03,5.97 L 20.03,6.00 L 22.00,6.99 L 23.03,6.50 L 23.03,6.46 L 21.05,5.47 L 20.98,5.47 Z" fill="#9d7049" stroke="none" /><path d="M 23.06,5.44 L 23.06,5.51 L 27.97,7.95 L 28.01,7.98 L 27.94,8.05 L 27.06,8.48 L 27.06,8.51 L 28.04,9.01 L 30.06,8.02 L 30.02,7.95 L 24.09,4.98 L 23.98,4.98 Z" fill="#9d7049" stroke="none" /><path d="M 9.92,4.98 L 9.01,5.44 L 9.01,5.51 L 9.92,5.97 L 9.85,6.04 L 8.97,6.46 L 8.97,6.50 L 10.00,6.99 L 10.98,6.50 L 10.98,6.46 L 10.10,6.04 L 10.03,5.97 L 10.95,5.51 L 10.95,5.44 L 10.03,4.98 Z" fill="#9d7049" stroke="none" /><path d="M 12.96,3.46 L 11.97,3.96 L 11.97,3.99 L 12.86,4.42 L 12.93,4.49 L 12.01,4.94 L 12.01,5.02 L 12.93,5.47 L 13.03,5.47 L 13.95,5.02 L 13.95,4.94 L 13.03,4.49 L 13.10,4.42 L 13.99,3.99 L 13.99,3.96 Z" fill="#9d7049" stroke="none" /><path d="M 17.02,2.44 L 17.06,2.51 L 21.02,4.49 L 22.04,3.99 L 22.04,3.96 L 18.08,1.98 L 17.94,1.98 Z" fill="#9d7049" stroke="none" /><path d="M 15.01,1.45 L 15.01,1.48 L 15.93,1.94 L 16.07,1.94 L 16.99,1.48 L 16.95,1.41 L 16.04,0.95 L 15.96,0.95 Z" fill="#9d7049" stroke="none" /><path d="M 17.02,13.49 L 17.06,13.56 L 17.98,14.02 L 18.05,14.02 L 19.00,13.53 L 19.00,13.49 L 18.08,13.03 L 17.94,13.03 Z" fill="#af7e5b" stroke="none" /><path d="M 7.98,10.00 L 7.98,10.03 L 8.90,10.49 L 9.04,10.49 L 9.96,10.03 L 9.92,9.96 L 9.01,9.50 L 8.94,9.50 Z" fill="#af7e5b" stroke="none" /><path d="M 13.00,9.47 L 13.03,9.54 L 13.95,10.00 L 14.02,10.00 L 14.98,9.50 L 14.98,9.47 L 14.06,9.01 L 13.92,9.01 Z" fill="#af7e5b" stroke="none" /><path d="M 16.04,7.95 L 16.04,8.02 L 16.95,8.48 L 17.06,8.48 L 17.98,8.02 L 17.94,7.95 L 17.02,7.49 L 16.95,7.49 Z" fill="#af7e5b" stroke="none" /><path d="M 11.02,7.45 L 11.02,7.52 L 11.94,7.98 L 12.04,7.98 L 12.96,7.52 L 12.96,7.45 L 12.04,6.99 L 11.94,6.99 Z" fill="#af7e5b" stroke="none" /><path d="M 8.97,6.46 L 7.98,5.97 L 6.96,6.46 L 6.96,6.50 L 7.84,6.92 L 7.91,6.99 L 6.99,7.45 L 6.99,7.52 L 7.91,7.98 L 7.84,8.05 L 6.99,8.48 L 6.92,8.48 L 5.02,7.52 L 4.98,7.49 L 5.02,7.45 L 5.93,6.99 L 5.93,6.96 L 5.02,6.50 L 4.87,6.50 L 3.96,6.96 L 3.99,7.03 L 4.91,7.49 L 3.99,7.95 L 3.96,8.02 L 5.93,9.01 L 6.92,8.51 L 6.99,8.51 L 7.98,9.01 L 8.97,8.51 L 8.97,8.48 L 8.09,8.05 L 8.02,7.98 L 8.94,7.52 L 8.94,7.45 L 8.02,6.99 L 8.09,6.92 L 8.97,6.50 Z" fill="#af7e5b" stroke="none" /><path d="M 28.04,8.97 L 25.11,7.52 L 25.08,7.49 L 25.11,7.45 L 26.00,7.03 L 26.03,6.96 L 22.08,4.98 L 21.97,4.98 L 21.05,5.44 L 21.05,5.51 L 22.92,6.43 L 22.96,6.46 L 22.92,6.53 L 22.04,6.96 L 22.04,6.99 L 23.95,7.95 L 23.98,7.98 L 23.91,8.05 L 22.08,8.97 L 21.97,8.97 L 21.09,8.51 L 20.94,8.51 L 20.03,8.97 L 20.03,9.01 L 20.98,9.50 L 19.04,10.49 L 17.06,9.50 L 16.95,9.50 L 16.04,9.96 L 16.04,10.03 L 17.91,10.95 L 17.94,11.02 L 16.00,12.01 L 14.06,11.02 L 13.92,11.02 L 13.03,11.48 L 12.93,11.48 L 10.98,10.49 L 9.96,10.98 L 9.96,11.02 L 13.92,13.00 L 14.06,13.00 L 14.94,12.54 L 15.05,12.54 L 15.93,13.00 L 16.07,13.00 L 19.00,11.51 L 19.99,12.01 L 20.06,12.01 L 23.03,10.53 L 23.03,10.49 L 21.05,9.50 L 22.00,9.01 L 22.99,9.50 L 23.06,9.50 L 25.01,8.51 L 25.08,8.51 L 27.02,9.50 L 27.09,9.50 L 28.01,9.04 Z" fill="#af7e5b" stroke="none" /><path d="M 13.00,5.47 L 13.00,5.51 L 13.92,5.97 L 14.06,5.97 L 14.98,5.51 L 14.94,5.44 L 14.02,4.98 L 13.95,4.98 Z" fill="#af7e5b" stroke="none" /><path d="M 19.04,4.45 L 19.07,4.52 L 19.99,4.98 L 20.06,4.98 L 21.02,4.49 L 21.02,4.45 L 20.10,3.99 L 19.96,3.99 Z" fill="#af7e5b" stroke="none" /><path d="M 7.98,4.94 L 8.02,5.02 L 8.94,5.47 L 9.01,5.47 L 9.96,4.98 L 10.95,5.47 L 11.02,5.47 L 11.94,5.02 L 11.94,4.94 L 10.03,3.99 L 9.89,3.99 Z" fill="#af7e5b" stroke="none" /><path d="M 18.01,3.99 L 18.01,3.96 L 17.13,3.53 L 17.06,3.46 L 17.98,3.00 L 17.98,2.93 L 16.07,1.98 L 15.93,1.98 L 13.99,2.97 L 13.03,2.47 L 12.93,2.47 L 12.01,2.93 L 12.01,3.00 L 14.98,4.49 L 15.96,3.99 L 16.04,3.99 L 16.99,4.49 Z" fill="#af7e5b" stroke="none" /><path d="M 13.99,13.00 L 13.99,13.03 L 15.96,14.02 L 16.04,14.02 L 18.01,13.03 L 18.01,13.00 L 17.02,12.50 L 16.04,13.00 L 15.96,13.00 L 15.01,12.50 Z" fill="#b68563" stroke="none" /><path d="M 11.97,10.98 L 11.97,11.02 L 12.96,11.51 L 13.99,11.02 L 13.99,10.98 L 13.00,10.49 Z" fill="#b68563" stroke="none" /><path d="M 10.95,10.49 L 9.96,10.00 L 7.98,10.98 L 7.98,11.02 L 8.97,11.51 L 10.95,10.53 Z" fill="#b68563" stroke="none" /><path d="M 22.04,10.00 L 22.04,10.03 L 22.96,10.49 L 23.10,10.49 L 24.02,10.03 L 23.98,9.96 L 23.06,9.50 L 22.99,9.50 Z" fill="#b68563" stroke="none" /><path d="M 11.02,9.47 L 11.02,9.54 L 11.94,10.00 L 12.01,10.00 L 12.96,9.50 L 12.96,9.47 L 12.04,9.01 L 11.94,9.01 Z" fill="#b68563" stroke="none" /><path d="M 14.98,8.48 L 13.99,7.98 L 13.00,8.48 L 13.00,8.51 L 13.92,8.97 L 14.06,8.97 L 14.98,8.51 Z" fill="#b68563" stroke="none" /><path d="M 5.97,7.98 L 5.97,8.02 L 6.89,8.48 L 6.85,8.55 L 5.97,8.97 L 6.00,9.04 L 7.91,10.00 L 8.02,10.00 L 8.94,9.54 L 8.94,9.47 L 7.03,8.51 L 7.06,8.44 L 7.95,8.02 L 7.91,7.95 L 6.99,7.49 L 6.92,7.49 Z" fill="#b68563" stroke="none" /><path d="M 25.08,7.45 L 25.08,7.52 L 26.98,8.48 L 27.13,8.48 L 28.04,8.02 L 28.01,7.95 L 26.10,6.99 L 26.00,6.99 Z" fill="#b68563" stroke="none" /><path d="M 3.89,6.99 L 2.97,7.45 L 2.97,7.52 L 3.89,7.98 L 3.81,8.05 L 2.93,8.48 L 2.93,8.51 L 3.96,9.01 L 4.94,8.51 L 4.94,8.48 L 4.06,8.05 L 3.99,7.98 L 4.91,7.52 L 4.91,7.45 L 3.99,6.99 Z" fill="#b68563" stroke="none" /><path d="M 16.04,6.96 L 16.04,7.03 L 16.95,7.49 L 17.02,7.49 L 17.98,6.99 L 17.98,6.96 L 17.06,6.50 L 16.95,6.50 Z" fill="#b68563" stroke="none" /><path d="M 19.99,5.97 L 19.00,5.47 L 18.01,5.97 L 18.01,6.00 L 18.93,6.46 L 19.07,6.46 L 19.99,6.00 Z" fill="#b68563" stroke="none" /><path d="M 8.94,5.44 L 8.02,4.98 L 7.91,4.98 L 4.94,6.46 L 4.94,6.50 L 5.97,6.99 L 8.94,5.51 Z" fill="#b68563" stroke="none" /><path d="M 23.03,4.45 L 22.11,3.99 L 21.97,3.99 L 20.06,4.94 L 20.06,5.02 L 20.98,5.47 L 21.05,5.47 L 23.03,4.49 Z" fill="#b68563" stroke="none" /><path d="M 15.01,3.46 L 15.01,3.50 L 15.93,3.96 L 16.07,3.96 L 16.95,3.50 L 17.06,3.50 L 19.00,4.49 L 20.03,3.99 L 20.03,3.96 L 18.05,2.97 L 17.98,2.97 L 17.02,3.46 L 16.04,2.97 L 15.96,2.97 Z" fill="#b68563" stroke="none" /><path d="M 12.96,3.46 L 12.01,2.97 L 11.94,2.97 L 9.96,3.96 L 9.96,3.99 L 10.98,4.49 L 12.96,3.50 Z" fill="#b68563" stroke="none" /><path d="M 13.00,2.47 L 13.95,2.97 L 14.02,2.97 L 15.96,1.98 L 16.04,1.98 L 17.02,2.47 L 18.01,1.98 L 18.01,1.94 L 17.02,1.45 L 16.04,1.94 L 15.96,1.94 L 14.98,1.45 L 13.00,2.44 Z" fill="#b68563" stroke="none" /><path d="M 21.05,11.48 L 21.09,11.55 L 22.00,12.01 L 22.08,12.01 L 23.03,11.51 L 23.03,11.48 L 22.11,11.02 L 21.97,11.02 Z" fill="#676767" stroke="none" /><path d="M 19.99,11.97 L 19.07,11.51 L 18.97,11.51 L 17.06,12.47 L 17.02,12.54 L 17.94,13.00 L 18.08,13.00 L 19.99,12.04 Z" fill="#bf906a" stroke="none" /><path d="M 10.00,10.00 L 10.00,10.03 L 11.90,10.98 L 12.04,10.98 L 12.96,10.53 L 12.93,10.45 L 11.02,9.50 L 10.95,9.50 Z" fill="#bf906a" stroke="none" /><path d="M 26.03,8.97 L 25.11,8.51 L 24.97,8.51 L 23.06,9.47 L 23.06,9.54 L 23.98,10.00 L 24.09,10.00 L 26.00,9.04 Z" fill="#bf906a" stroke="none" /><path d="M 12.01,8.97 L 12.04,9.04 L 12.96,9.50 L 13.99,9.01 L 13.99,8.97 L 13.07,8.51 L 12.93,8.51 Z" fill="#bf906a" stroke="none" /><path d="M 19.00,8.48 L 19.00,8.51 L 19.99,9.01 L 21.02,8.51 L 21.02,8.48 L 20.03,7.98 Z" fill="#bf906a" stroke="none" /><path d="M 16.95,7.45 L 16.04,6.99 L 15.96,6.99 L 14.06,7.95 L 14.02,8.02 L 14.94,8.48 L 15.05,8.48 L 16.95,7.52 Z" fill="#bf906a" stroke="none" /><path d="M 10.00,6.96 L 10.03,7.03 L 10.95,7.49 L 11.02,7.49 L 11.97,6.99 L 11.97,6.96 L 11.06,6.50 L 10.91,6.50 Z" fill="#bf906a" stroke="none" /><path d="M 17.02,6.46 L 17.06,6.53 L 17.98,6.99 L 19.00,6.50 L 19.00,6.46 L 18.08,6.00 L 17.94,6.00 Z" fill="#bf906a" stroke="none" /><path d="M 13.99,5.97 L 13.99,6.00 L 14.98,6.50 L 16.00,6.00 L 16.00,5.97 L 15.01,5.47 Z" fill="#bf906a" stroke="none" /><path d="M 19.04,5.47 L 19.04,5.51 L 19.96,5.97 L 20.06,5.97 L 20.98,5.51 L 20.98,5.44 L 20.06,4.98 L 19.99,4.98 Z" fill="#bf906a" stroke="none" /></svg>