<svg height="32" width="32" viewBox="0 0 32 32"><defs /><path d="M 18.31,13.73 L 18.31,16.02 L 20.59,16.02 L 20.59,13.73 Z" fill="#333333" stroke="none" /><path d="M 0.00,22.88 L 0.00,25.17 L 2.29,25.17 L 2.29,22.88 Z" fill="#353535" stroke="none" /><path d="M 0.00,13.73 L 0.00,16.02 L 2.29,16.02 L 2.29,13.73 Z" fill="#353535" stroke="none" /><path d="M 0.00,4.58 L 0.00,6.86 L 2.29,6.86 L 2.29,4.58 Z" fill="#353535" stroke="none" /><path d="M 0.00,25.17 L 0.00,32.00 L 22.88,32.00 L 22.88,29.75 L 2.32,29.75 L 2.29,29.71 L 2.29,25.17 Z" fill="#785437" stroke="none" /><path d="M 0.00,16.02 L 0.00,22.88 L 2.29,22.88 L 2.29,16.02 Z" fill="#785437" stroke="none" /><path d="M 0.00,6.86 L 0.00,13.73 L 2.29,13.73 L 2.29,6.86 Z" fill="#785437" stroke="none" /><path d="M 6.86,4.58 L 6.86,6.86 L 9.15,6.86 L 9.15,4.61 L 9.19,4.58 L 15.98,4.58 L 16.02,4.61 L 16.02,6.86 L 18.31,6.86 L 18.31,4.58 L 16.05,4.58 L 16.02,4.54 L 16.02,2.29 L 9.15,2.29 L 9.15,4.54 L 9.12,4.58 Z" fill="#785437" stroke="none" /><path d="M 0.00,0.00 L 0.00,4.58 L 2.29,4.58 L 2.29,0.00 Z" fill="#785437" stroke="none" /><path d="M 22.88,6.86 L 18.31,6.86 L 18.31,9.12 L 18.27,9.15 L 16.02,9.15 L 16.02,13.73 L 18.31,13.73 L 18.31,9.19 L 18.34,9.15 L 22.88,9.15 Z" fill="#976a44" stroke="none" /><path d="M 2.29,6.86 L 2.29,9.15 L 6.83,9.15 L 6.86,9.19 L 6.86,25.14 L 6.83,25.17 L 2.29,25.17 L 2.29,27.46 L 6.83,27.46 L 6.86,27.49 L 6.86,29.75 L 9.15,29.75 L 9.15,22.92 L 9.19,22.88 L 15.98,22.88 L 16.02,22.92 L 16.02,29.75 L 18.31,29.75 L 18.31,27.49 L 18.34,27.46 L 22.88,27.46 L 22.88,25.17 L 18.34,25.17 L 18.31,25.14 L 18.31,16.02 L 16.02,16.02 L 16.02,20.56 L 15.98,20.59 L 9.19,20.59 L 9.15,20.56 L 9.15,9.15 L 6.90,9.15 L 6.86,9.12 L 6.86,6.86 Z" fill="#976a44" stroke="none" /><path d="M 16.02,13.73 L 16.02,16.02 L 18.31,16.02 L 18.31,13.73 Z" fill="#494949" stroke="none" /><path d="M 13.73,4.58 L 13.73,9.15 L 16.02,9.15 L 16.02,4.58 Z" fill="#a07455" stroke="none" /><path d="M 9.15,4.58 L 9.15,9.15 L 11.44,9.15 L 11.44,4.58 Z" fill="#a07455" stroke="none" /><path d="M 18.31,27.46 L 18.31,29.75 L 22.88,29.75 L 22.88,27.46 Z" fill="#b2825e" stroke="none" /><path d="M 2.29,27.46 L 2.29,29.75 L 6.86,29.75 L 6.86,27.46 Z" fill="#b2825e" stroke="none" /><path d="M 9.15,22.88 L 9.15,29.75 L 16.02,29.75 L 16.02,22.88 Z" fill="#b2825e" stroke="none" /><path d="M 9.15,13.73 L 9.15,20.59 L 16.02,20.59 L 16.02,13.73 Z" fill="#b2825e" stroke="none" /><path d="M 18.31,9.15 L 18.31,13.73 L 20.56,13.73 L 20.59,13.77 L 20.59,15.98 L 20.56,16.02 L 18.31,16.02 L 18.31,25.17 L 22.88,25.17 L 22.88,9.15 Z" fill="#b2825e" stroke="none" /><path d="M 9.15,9.15 L 9.15,11.44 L 16.02,11.44 L 16.02,9.15 Z" fill="#b2825e" stroke="none" /><path d="M 2.29,9.15 L 2.29,25.17 L 6.86,25.17 L 6.86,9.15 Z" fill="#b2825e" stroke="none" /><path d="M 2.29,0.00 L 2.29,6.86 L 6.86,6.86 L 6.86,4.61 L 6.90,4.58 L 9.15,4.58 L 9.15,2.32 L 9.19,2.29 L 15.98,2.29 L 16.02,2.32 L 16.02,4.58 L 18.27,4.58 L 18.31,4.61 L 18.31,6.86 L 22.88,6.86 L 22.88,0.00 Z" fill="#b2825e" stroke="none" /></svg>