<svg height="32" width="32" viewBox="0 0 32 32"><defs /><path d="M 24.18,30.12 L 24.18,32.00 L 26.18,32.00 L 26.18,30.12 Z" fill="#392e1e" stroke="none" /><path d="M 4.04,30.12 L 4.04,32.00 L 6.04,32.00 L 6.04,30.12 Z" fill="#392e1e" stroke="none" /><path d="M 24.18,22.05 L 24.18,24.09 L 26.18,24.09 L 26.18,22.05 Z" fill="#392e1e" stroke="none" /><path d="M 4.04,22.05 L 4.04,24.09 L 6.04,24.09 L 6.04,22.05 Z" fill="#392e1e" stroke="none" /><path d="M 24.18,14.01 L 24.18,16.02 L 26.18,16.02 L 26.18,14.01 Z" fill="#392e1e" stroke="none" /><path d="M 4.04,14.01 L 4.04,16.02 L 6.04,16.02 L 6.04,14.01 Z" fill="#392e1e" stroke="none" /><path d="M 24.18,5.94 L 24.18,7.95 L 26.18,7.95 L 26.18,5.94 Z" fill="#392e1e" stroke="none" /><path d="M 4.04,5.94 L 4.04,7.95 L 6.04,7.95 L 6.04,5.94 Z" fill="#392e1e" stroke="none" /><path d="M 2.03,30.12 L 2.03,32.00 L 4.04,32.00 L 4.04,30.12 Z" fill="#503c24" stroke="none" /><path d="M 20.14,28.09 L 20.14,30.12 L 22.15,30.12 L 22.18,30.15 L 22.18,32.00 L 24.18,32.00 L 24.18,30.12 L 22.21,30.12 L 22.18,30.09 L 22.18,28.09 Z" fill="#503c24" stroke="none" /><path d="M 6.04,28.09 L 6.04,30.12 L 8.07,30.12 L 8.07,28.09 Z" fill="#503c24" stroke="none" /><path d="M 2.03,22.05 L 2.03,24.09 L 4.00,24.09 L 4.04,24.12 L 4.04,26.09 L 6.04,26.09 L 6.04,24.09 L 4.07,24.09 L 4.04,24.05 L 4.04,22.05 Z" fill="#503c24" stroke="none" /><path d="M 20.14,20.05 L 20.14,22.05 L 22.15,22.05 L 22.18,22.08 L 22.18,24.09 L 24.15,24.09 L 24.18,24.12 L 24.18,26.09 L 26.18,26.09 L 26.18,24.09 L 24.21,24.09 L 24.18,24.05 L 24.18,22.05 L 22.21,22.05 L 22.18,22.02 L 22.18,20.05 Z" fill="#503c24" stroke="none" /><path d="M 6.04,20.05 L 6.04,22.05 L 8.07,22.05 L 8.07,20.05 Z" fill="#503c24" stroke="none" /><path d="M 2.03,14.01 L 2.03,16.02 L 4.00,16.02 L 4.04,16.05 L 4.04,18.02 L 6.04,18.02 L 6.04,16.02 L 4.07,16.02 L 4.04,15.98 L 4.04,14.01 Z" fill="#503c24" stroke="none" /><path d="M 20.14,11.98 L 20.14,14.01 L 22.15,14.01 L 22.18,14.04 L 22.18,16.02 L 24.15,16.02 L 24.18,16.05 L 24.18,18.02 L 26.18,18.02 L 26.18,16.02 L 24.21,16.02 L 24.18,15.98 L 24.18,14.01 L 22.21,14.01 L 22.18,13.98 L 22.18,11.98 Z" fill="#503c24" stroke="none" /><path d="M 6.04,11.98 L 6.04,14.01 L 8.07,14.01 L 8.07,11.98 Z" fill="#503c24" stroke="none" /><path d="M 2.03,5.94 L 2.03,7.95 L 4.00,7.95 L 4.04,7.98 L 4.04,9.98 L 6.04,9.98 L 6.04,7.95 L 4.07,7.95 L 4.04,7.91 L 4.04,5.94 Z" fill="#503c24" stroke="none" /><path d="M 20.14,3.94 L 20.14,5.94 L 22.15,5.94 L 22.18,5.97 L 22.18,7.95 L 24.15,7.95 L 24.18,7.98 L 24.18,9.98 L 26.18,9.98 L 26.18,7.95 L 24.21,7.95 L 24.18,7.91 L 24.18,5.94 L 22.21,5.94 L 22.18,5.91 L 22.18,3.94 Z" fill="#503c24" stroke="none" /><path d="M 6.04,3.94 L 6.04,5.94 L 8.07,5.94 L 8.07,3.94 Z" fill="#503c24" stroke="none" /><path d="M 24.18,0.00 L 24.18,1.91 L 26.18,1.91 L 26.18,0.00 Z" fill="#503c24" stroke="none" /><path d="M 4.04,0.00 L 4.04,1.91 L 6.04,1.91 L 6.04,0.00 Z" fill="#503c24" stroke="none" /><path d="M 24.18,28.09 L 24.18,30.12 L 28.22,30.12 L 28.22,28.09 Z" fill="#664f2b" stroke="none" /><path d="M 8.07,28.09 L 8.07,30.12 L 20.14,30.12 L 20.14,28.09 Z" fill="#664f2b" stroke="none" /><path d="M 4.04,28.09 L 4.04,30.12 L 6.04,30.12 L 6.04,28.09 Z" fill="#664f2b" stroke="none" /><path d="M 0.00,28.09 L 0.00,30.12 L 2.03,30.12 L 2.03,28.09 Z" fill="#664f2b" stroke="none" /><path d="M 24.18,20.05 L 24.18,22.05 L 28.22,22.05 L 28.22,20.05 Z" fill="#664f2b" stroke="none" /><path d="M 8.07,20.05 L 8.07,22.05 L 20.14,22.05 L 20.14,20.05 Z" fill="#664f2b" stroke="none" /><path d="M 4.04,20.05 L 4.04,22.05 L 6.04,22.05 L 6.04,20.05 Z" fill="#664f2b" stroke="none" /><path d="M 0.00,20.05 L 0.00,22.05 L 2.03,22.05 L 2.03,20.05 Z" fill="#664f2b" stroke="none" /><path d="M 24.18,11.98 L 24.18,14.01 L 28.22,14.01 L 28.22,11.98 Z" fill="#664f2b" stroke="none" /><path d="M 8.07,11.98 L 8.07,14.01 L 20.14,14.01 L 20.14,11.98 Z" fill="#664f2b" stroke="none" /><path d="M 4.04,11.98 L 4.04,14.01 L 6.04,14.01 L 6.04,11.98 Z" fill="#664f2b" stroke="none" /><path d="M 0.00,11.98 L 0.00,14.01 L 2.03,14.01 L 2.03,11.98 Z" fill="#664f2b" stroke="none" /><path d="M 24.18,3.94 L 24.18,5.94 L 28.22,5.94 L 28.22,3.94 Z" fill="#664f2b" stroke="none" /><path d="M 8.07,3.94 L 8.07,5.94 L 20.14,5.94 L 20.14,3.94 Z" fill="#664f2b" stroke="none" /><path d="M 4.04,3.94 L 4.04,5.94 L 6.04,5.94 L 6.04,3.94 Z" fill="#664f2b" stroke="none" /><path d="M 0.00,3.94 L 0.00,5.94 L 2.03,5.94 L 2.03,3.94 Z" fill="#664f2b" stroke="none" /><path d="M 26.18,26.09 L 24.18,26.09 L 24.18,28.06 L 24.15,28.09 L 22.18,28.09 L 22.18,30.12 L 24.18,30.12 L 24.18,28.12 L 24.21,28.09 L 26.18,28.09 Z" fill="#7d6136" stroke="none" /><path d="M 6.04,26.09 L 4.04,26.09 L 4.04,28.06 L 4.00,28.09 L 2.03,28.09 L 2.03,30.12 L 4.04,30.12 L 4.04,28.12 L 4.07,28.09 L 6.04,28.09 Z" fill="#7d6136" stroke="none" /><path d="M 22.18,22.05 L 24.18,22.05 L 24.18,20.08 L 24.21,20.05 L 28.22,20.05 L 28.22,18.02 L 24.18,18.02 L 24.18,20.02 L 24.15,20.05 L 22.18,20.05 Z" fill="#7d6136" stroke="none" /><path d="M 6.04,18.02 L 4.04,18.02 L 4.04,20.02 L 4.00,20.05 L 2.03,20.05 L 2.03,22.05 L 4.04,22.05 L 4.04,20.08 L 4.07,20.05 L 6.04,20.05 Z" fill="#7d6136" stroke="none" /><path d="M 26.18,9.98 L 24.18,9.98 L 24.18,11.95 L 24.15,11.98 L 22.18,11.98 L 22.18,14.01 L 24.18,14.01 L 24.18,12.01 L 24.21,11.98 L 26.18,11.98 Z" fill="#7d6136" stroke="none" /><path d="M 6.04,9.98 L 4.04,9.98 L 4.04,11.95 L 4.00,11.98 L 2.03,11.98 L 2.03,14.01 L 4.04,14.01 L 4.04,12.01 L 4.07,11.98 L 6.04,11.98 Z" fill="#7d6136" stroke="none" /><path d="M 26.18,1.91 L 24.18,1.91 L 24.18,3.91 L 24.15,3.94 L 22.18,3.94 L 22.18,5.94 L 24.18,5.94 L 24.18,3.97 L 24.21,3.94 L 26.18,3.94 Z" fill="#7d6136" stroke="none" /><path d="M 0.00,1.91 L 0.00,3.94 L 2.00,3.94 L 2.03,3.97 L 2.03,5.94 L 4.04,5.94 L 4.04,3.97 L 4.07,3.94 L 6.04,3.94 L 6.04,1.91 L 4.04,1.91 L 4.04,3.91 L 4.00,3.94 L 2.06,3.94 L 2.03,3.91 L 2.03,1.91 Z" fill="#7d6136" stroke="none" /><path d="M 10.07,26.09 L 10.07,28.09 L 12.11,28.09 L 12.11,26.09 Z" fill="#947340" stroke="none" /><path d="M 6.04,26.09 L 6.04,28.09 L 8.07,28.09 L 8.07,26.09 Z" fill="#947340" stroke="none" /><path d="M 24.18,24.09 L 22.18,24.09 L 22.18,26.06 L 22.15,26.09 L 20.14,26.09 L 20.14,28.09 L 22.18,28.09 L 22.18,26.12 L 22.21,26.09 L 24.18,26.09 Z" fill="#947340" stroke="none" /><path d="M 2.03,24.09 L 2.03,26.09 L 4.04,26.09 L 4.04,24.09 Z" fill="#947340" stroke="none" /><path d="M 6.04,18.02 L 6.04,20.05 L 8.07,20.05 L 8.07,18.02 Z" fill="#947340" stroke="none" /><path d="M 24.18,16.02 L 22.18,16.02 L 22.18,17.99 L 22.15,18.02 L 20.14,18.02 L 20.14,20.05 L 22.18,20.05 L 22.18,18.05 L 22.21,18.02 L 24.18,18.02 Z" fill="#947340" stroke="none" /><path d="M 2.03,16.02 L 2.03,18.02 L 4.04,18.02 L 4.04,16.02 Z" fill="#947340" stroke="none" /><path d="M 14.11,9.98 L 14.11,11.98 L 16.11,11.98 L 16.11,9.98 Z" fill="#947340" stroke="none" /><path d="M 6.04,9.98 L 6.04,11.98 L 8.07,11.98 L 8.07,9.98 Z" fill="#947340" stroke="none" /><path d="M 24.18,7.95 L 22.18,7.95 L 22.18,9.95 L 22.15,9.98 L 18.14,9.98 L 18.14,11.98 L 22.18,11.98 L 22.18,10.01 L 22.21,9.98 L 24.18,9.98 Z" fill="#947340" stroke="none" /><path d="M 2.03,7.95 L 2.03,9.98 L 4.04,9.98 L 4.04,7.95 Z" fill="#947340" stroke="none" /><path d="M 10.07,1.91 L 10.07,3.94 L 12.11,3.94 L 12.11,1.91 Z" fill="#947340" stroke="none" /><path d="M 6.04,1.91 L 6.04,3.94 L 8.07,3.94 L 8.07,1.91 Z" fill="#947340" stroke="none" /><path d="M 24.18,0.00 L 22.18,0.00 L 22.18,1.88 L 22.15,1.91 L 20.14,1.91 L 20.14,3.94 L 22.18,3.94 L 22.18,1.94 L 22.21,1.91 L 24.18,1.91 Z" fill="#947340" stroke="none" /><path d="M 2.03,0.00 L 2.03,1.91 L 4.04,1.91 L 4.04,0.00 Z" fill="#947340" stroke="none" /><path d="M 26.18,26.09 L 26.18,28.09 L 28.22,28.09 L 28.22,26.09 Z" fill="#b38b4f" stroke="none" /><path d="M 22.18,26.09 L 22.18,28.09 L 24.18,28.09 L 24.18,26.09 Z" fill="#b38b4f" stroke="none" /><path d="M 12.11,26.09 L 12.11,28.09 L 20.14,28.09 L 20.14,26.09 Z" fill="#b38b4f" stroke="none" /><path d="M 8.07,26.09 L 8.07,28.09 L 10.07,28.09 L 10.07,26.09 Z" fill="#b38b4f" stroke="none" /><path d="M 0.00,26.09 L 0.00,28.09 L 4.04,28.09 L 4.04,26.09 Z" fill="#b38b4f" stroke="none" /><path d="M 22.18,18.02 L 22.18,20.05 L 24.18,20.05 L 24.18,18.02 Z" fill="#b38b4f" stroke="none" /><path d="M 8.07,18.02 L 8.07,20.05 L 20.14,20.05 L 20.14,18.02 Z" fill="#b38b4f" stroke="none" /><path d="M 0.00,18.02 L 0.00,20.05 L 4.04,20.05 L 4.04,18.02 Z" fill="#b38b4f" stroke="none" /><path d="M 26.18,9.98 L 26.18,11.98 L 28.22,11.98 L 28.22,9.98 Z" fill="#b38b4f" stroke="none" /><path d="M 22.18,9.98 L 22.18,11.98 L 24.18,11.98 L 24.18,9.98 Z" fill="#b38b4f" stroke="none" /><path d="M 16.11,9.98 L 16.11,11.98 L 18.14,11.98 L 18.14,9.98 Z" fill="#b38b4f" stroke="none" /><path d="M 8.07,9.98 L 8.07,11.98 L 14.11,11.98 L 14.11,9.98 Z" fill="#b38b4f" stroke="none" /><path d="M 0.00,9.98 L 0.00,11.98 L 4.04,11.98 L 4.04,9.98 Z" fill="#b38b4f" stroke="none" /><path d="M 26.18,1.91 L 26.18,3.94 L 28.22,3.94 L 28.22,1.91 Z" fill="#b38b4f" stroke="none" /><path d="M 22.18,1.91 L 22.18,3.94 L 24.18,3.94 L 24.18,1.91 Z" fill="#b38b4f" stroke="none" /><path d="M 12.11,1.91 L 12.11,3.94 L 20.14,3.94 L 20.14,1.91 Z" fill="#b38b4f" stroke="none" /><path d="M 8.07,1.91 L 8.07,3.94 L 10.07,3.94 L 10.07,1.91 Z" fill="#b38b4f" stroke="none" /><path d="M 2.03,1.91 L 2.03,3.94 L 4.04,3.94 L 4.04,1.91 Z" fill="#b38b4f" stroke="none" /></svg>