<svg height="32" width="32" viewBox="0 0 32 32"><defs /><path d="M 16.95,15.54 L 16.88,15.54 L 16.00,16.00 L 16.00,17.20 L 16.07,17.20 L 16.95,16.74 Z" fill="#0f3950" stroke="none" /><path d="M 20.98,13.53 L 20.91,13.53 L 19.96,14.02 L 19.96,15.22 L 20.03,15.22 L 20.98,14.73 Z" fill="#113d51" stroke="none" /><path d="M 29.03,9.50 L 28.96,9.50 L 28.01,10.00 L 28.01,11.20 L 28.08,11.20 L 29.03,10.70 Z" fill="#113d51" stroke="none" /><path d="M 17.98,15.01 L 16.95,15.51 L 16.95,16.74 L 17.98,16.25 Z" fill="#123e52" stroke="none" /><path d="M 30.02,9.01 L 29.95,9.01 L 29.03,9.47 L 29.03,10.70 L 30.02,10.21 Z" fill="#123e52" stroke="none" /><path d="M 26.00,11.02 L 25.92,11.02 L 25.01,11.48 L 25.01,12.72 L 26.00,12.22 Z" fill="#134153" stroke="none" /><path d="M 21.97,13.03 L 21.90,13.03 L 20.98,13.49 L 20.98,14.73 L 21.97,14.23 Z" fill="#144254" stroke="none" /><path d="M 25.01,11.51 L 24.94,11.51 L 23.98,12.01 L 23.98,13.21 L 24.05,13.21 L 25.01,12.72 Z" fill="#154455" stroke="none" /><path d="M 19.96,14.02 L 18.97,14.52 L 18.97,15.72 L 19.04,15.72 L 19.96,15.26 Z" fill="#174857" stroke="none" /><path d="M 27.02,10.49 L 26.00,10.98 L 26.00,12.22 L 27.02,11.73 Z" fill="#194958" stroke="none" /><path d="M 18.97,14.52 L 17.98,15.01 L 17.98,16.21 L 18.05,16.21 L 18.97,15.75 Z" fill="#1c4c5a" stroke="none" /><path d="M 28.01,10.00 L 27.02,10.49 L 27.02,11.69 L 27.09,11.69 L 28.01,11.23 Z" fill="#1c4c5a" stroke="none" /><path d="M 31.01,8.51 L 30.94,8.51 L 30.02,8.97 L 30.02,10.21 L 31.01,9.71 Z" fill="#1c4c5a" stroke="none" /><path d="M 22.99,12.50 L 21.97,13.00 L 21.97,14.23 L 22.99,13.74 Z" fill="#1d4d5a" stroke="none" /><path d="M 32.00,8.02 L 31.93,8.02 L 31.01,8.48 L 31.01,9.71 L 32.00,9.22 Z" fill="#1d4d5a" stroke="none" /><path d="M 23.98,12.01 L 22.99,12.50 L 22.99,13.70 L 23.06,13.70 L 23.98,13.25 Z" fill="#1e4d5b" stroke="none" /><path d="M 0.00,8.02 L 0.00,9.22 L 0.99,9.71 L 0.99,8.48 L 0.07,8.02 Z" fill="#195d82" stroke="none" /><path d="M 12.04,14.02 L 12.04,15.26 L 12.96,15.72 L 13.03,15.72 L 13.03,14.52 Z" fill="#1c6384" stroke="none" /><path d="M 3.99,10.00 L 3.99,11.23 L 4.91,11.69 L 4.98,11.69 L 4.98,10.49 Z" fill="#1c6384" stroke="none" /><path d="M 13.03,14.52 L 13.03,15.75 L 13.95,16.21 L 14.02,16.21 L 14.02,15.01 Z" fill="#1d6585" stroke="none" /><path d="M 0.99,8.51 L 0.99,9.71 L 1.98,10.21 L 1.98,8.97 L 1.06,8.51 Z" fill="#1d6585" stroke="none" /><path d="M 9.01,12.50 L 9.01,13.74 L 10.03,14.23 L 10.03,13.00 Z" fill="#1f6a87" stroke="none" /><path d="M 4.98,10.49 L 4.98,11.73 L 6.00,12.22 L 6.00,10.98 Z" fill="#206a88" stroke="none" /><path d="M 8.02,12.01 L 8.02,13.25 L 8.94,13.70 L 9.01,13.70 L 9.01,12.50 Z" fill="#236f8a" stroke="none" /><path d="M 2.97,9.50 L 2.97,10.70 L 3.92,11.20 L 3.99,11.20 L 3.99,10.00 L 3.04,9.50 Z" fill="#26748c" stroke="none" /><path d="M 10.03,13.03 L 10.03,14.23 L 11.02,14.73 L 11.02,13.49 L 10.10,13.03 Z" fill="#28778e" stroke="none" /><path d="M 14.02,15.01 L 14.02,16.25 L 15.05,16.74 L 15.05,15.51 Z" fill="#2e7b92" stroke="none" /><path d="M 11.02,13.53 L 11.02,14.73 L 11.97,15.22 L 12.04,15.22 L 12.04,14.02 L 11.09,13.53 Z" fill="#2e7c92" stroke="none" /><path d="M 1.98,9.01 L 1.98,10.21 L 2.97,10.70 L 2.97,9.47 L 2.05,9.01 Z" fill="#2e7c92" stroke="none" /><path d="M 15.05,15.54 L 15.05,16.74 L 15.93,17.20 L 16.00,17.20 L 16.00,16.00 L 15.12,15.54 Z" fill="#2f7c92" stroke="none" /><path d="M 6.00,11.02 L 6.00,12.22 L 6.99,12.72 L 6.99,11.48 L 6.08,11.02 Z" fill="#2f7c92" stroke="none" /><path d="M 6.99,11.51 L 6.99,12.72 L 7.95,13.21 L 8.02,13.21 L 8.02,12.01 L 7.06,11.51 Z" fill="#317e94" stroke="none" /><path d="M 17.02,13.49 L 17.06,13.56 L 17.98,14.02 L 18.05,14.02 L 18.97,13.56 L 18.97,13.49 L 18.05,13.03 L 17.94,13.03 Z" fill="#2388c5" stroke="none" /><path d="M 16.00,10.00 L 16.00,10.03 L 16.99,10.53 L 18.01,10.03 L 18.01,10.00 L 17.02,9.50 Z" fill="#2489c6" stroke="none" /><path d="M 19.04,9.50 L 19.04,9.54 L 19.96,10.00 L 20.10,10.00 L 21.02,9.54 L 20.98,9.47 L 20.06,9.01 L 19.99,9.01 Z" fill="#2489c6" stroke="none" /><path d="M 20.03,7.98 L 20.03,8.02 L 21.02,8.51 L 22.04,8.02 L 22.04,7.98 L 21.05,7.49 Z" fill="#2489c6" stroke="none" /><path d="M 10.98,5.47 L 10.98,5.51 L 11.90,5.97 L 12.04,5.97 L 12.96,5.51 L 12.93,5.44 L 12.01,4.98 L 11.94,4.98 Z" fill="#2489c6" stroke="none" /><path d="M 17.02,5.47 L 17.02,5.51 L 17.94,5.97 L 18.08,5.97 L 19.00,5.51 L 18.97,5.44 L 18.05,4.98 L 17.98,4.98 Z" fill="#248ac6" stroke="none" /><path d="M 10.95,5.47 L 9.96,4.98 L 8.97,5.47 L 8.97,5.51 L 9.89,5.97 L 10.03,5.97 L 10.95,5.51 Z" fill="#248ac6" stroke="none" /><path d="M 16.04,2.93 L 16.04,3.00 L 16.95,3.46 L 17.06,3.46 L 17.98,3.00 L 17.94,2.93 L 17.02,2.47 L 16.95,2.47 Z" fill="#248ac6" stroke="none" /><path d="M 8.94,8.48 L 8.02,8.02 L 7.88,8.02 L 5.97,8.97 L 5.97,9.01 L 6.92,9.50 L 6.99,9.50 L 8.90,8.55 Z" fill="#258bc7" stroke="none" /><path d="M 24.05,5.97 L 24.09,6.04 L 25.01,6.50 L 25.08,6.50 L 26.03,6.00 L 26.03,5.97 L 25.11,5.51 L 24.97,5.51 Z" fill="#258bc7" stroke="none" /><path d="M 11.02,13.49 L 11.02,13.53 L 12.01,14.02 L 12.96,13.56 L 12.96,13.49 L 12.04,13.03 L 11.94,13.03 Z" fill="#268cc7" stroke="none" /><path d="M 20.03,13.00 L 20.06,13.07 L 20.91,13.49 L 21.05,13.49 L 21.97,13.03 L 21.93,12.96 L 21.09,12.54 L 20.94,12.54 Z" fill="#268cc7" stroke="none" /><path d="M 20.06,8.97 L 20.06,9.04 L 20.98,9.50 L 21.09,9.50 L 22.00,9.04 L 22.00,8.97 L 21.09,8.51 L 20.98,8.51 Z" fill="#268cc7" stroke="none" /><path d="M 16.00,5.97 L 16.00,6.00 L 16.99,6.50 L 18.01,6.00 L 18.01,5.97 L 17.02,5.47 Z" fill="#268cc7" stroke="none" /><path d="M 15.01,3.46 L 15.01,3.50 L 15.93,3.96 L 16.07,3.96 L 16.99,3.50 L 16.95,3.43 L 16.04,2.97 L 15.96,2.97 Z" fill="#268cc7" stroke="none" /><path d="M 13.03,11.48 L 13.03,11.55 L 13.95,12.01 L 14.06,12.01 L 14.98,11.55 L 14.94,11.48 L 14.02,11.02 L 13.95,11.02 Z" fill="#278fc8" stroke="none" /><path d="M 10.98,9.50 L 10.98,9.54 L 11.90,10.00 L 12.04,10.00 L 12.96,9.54 L 12.93,9.47 L 12.01,9.01 L 11.94,9.01 Z" fill="#278fc8" stroke="none" /><path d="M 2.97,9.47 L 2.97,9.50 L 3.96,10.00 L 4.91,9.54 L 4.91,9.47 L 3.99,9.01 L 3.89,9.01 Z" fill="#278fc8" stroke="none" /><path d="M 15.05,15.51 L 15.05,15.54 L 15.96,16.00 L 16.04,16.00 L 16.95,15.54 L 16.92,15.47 L 16.07,15.05 L 15.93,15.05 Z" fill="#278fc9" stroke="none" /><path d="M 20.03,12.01 L 20.03,12.04 L 20.94,12.50 L 21.09,12.50 L 22.00,12.04 L 21.97,11.97 L 21.05,11.51 L 20.98,11.51 Z" fill="#278fc9" stroke="none" /><path d="M 15.05,0.46 L 15.08,0.53 L 15.93,0.95 L 16.07,0.95 L 16.95,0.49 L 16.95,0.46 L 16.04,0.00 L 15.96,0.00 Z" fill="#278fc9" stroke="none" /><path d="M 16.04,13.99 L 16.04,14.06 L 16.95,14.52 L 17.06,14.52 L 17.98,14.06 L 17.98,13.99 L 17.06,13.53 L 16.95,13.53 Z" fill="#2791c9" stroke="none" /><path d="M 25.04,5.47 L 25.04,5.51 L 26.03,6.00 L 26.98,5.55 L 26.98,5.47 L 26.07,5.02 L 25.96,5.02 Z" fill="#2791c9" stroke="none" /><path d="M 20.06,4.94 L 20.06,5.02 L 20.98,5.47 L 21.09,5.47 L 22.00,5.02 L 21.97,4.94 L 21.05,4.49 L 20.98,4.49 Z" fill="#2791c9" stroke="none" /><path d="M 15.01,11.51 L 15.01,11.55 L 15.93,12.01 L 16.07,12.01 L 16.99,11.55 L 16.95,11.48 L 16.04,11.02 L 15.96,11.02 Z" fill="#2892ca" stroke="none" /><path d="M 6.99,11.48 L 6.99,11.51 L 7.98,12.01 L 8.94,11.55 L 8.94,11.48 L 8.02,11.02 L 7.91,11.02 Z" fill="#2892ca" stroke="none" /><path d="M 12.01,4.94 L 12.01,5.02 L 12.93,5.47 L 13.03,5.47 L 13.95,5.02 L 13.95,4.94 L 13.03,4.49 L 12.93,4.49 Z" fill="#2892ca" stroke="none" /><path d="M 7.98,10.98 L 8.02,11.06 L 8.94,11.51 L 9.01,11.51 L 9.96,11.02 L 9.96,10.98 L 9.04,10.53 L 8.90,10.53 Z" fill="#2994cb" stroke="none" /><path d="M 28.08,8.97 L 28.11,9.04 L 28.96,9.47 L 29.10,9.47 L 30.02,9.01 L 30.02,8.97 L 29.10,8.51 L 29.00,8.51 Z" fill="#2994cb" stroke="none" /><path d="M 17.94,14.98 L 16.99,14.52 L 16.00,15.01 L 16.00,15.05 L 16.92,15.51 L 17.02,15.51 L 17.94,15.05 Z" fill="#2a96cb" stroke="none" /><path d="M 19.04,13.49 L 19.04,13.56 L 19.96,14.02 L 20.98,13.53 L 20.98,13.49 L 20.06,13.03 L 19.96,13.03 Z" fill="#2a96cb" stroke="none" /><path d="M 12.01,13.00 L 12.04,13.07 L 12.96,13.53 L 13.03,13.53 L 13.99,13.03 L 13.99,13.00 L 13.07,12.54 L 12.93,12.54 Z" fill="#2a96cb" stroke="none" /><path d="M 5.97,10.00 L 5.97,10.03 L 6.89,10.49 L 7.03,10.49 L 7.95,10.03 L 7.91,9.96 L 6.99,9.50 L 6.92,9.50 Z" fill="#2a96cb" stroke="none" /><path d="M 19.04,2.44 L 19.04,2.51 L 19.96,2.97 L 20.06,2.97 L 20.98,2.51 L 20.98,2.47 L 19.99,1.98 Z" fill="#2a96cb" stroke="none" /><path d="M 10.98,12.50 L 10.98,12.54 L 11.97,13.03 L 13.00,12.54 L 13.00,12.50 L 12.01,12.01 Z" fill="#2b98cc" stroke="none" /><path d="M 21.05,11.48 L 21.05,11.55 L 21.97,12.01 L 22.08,12.01 L 22.99,11.55 L 22.99,11.48 L 22.08,11.02 L 21.97,11.02 Z" fill="#2b98cc" stroke="none" /><path d="M 27.09,9.47 L 27.09,9.54 L 28.01,10.00 L 29.03,9.50 L 29.03,9.47 L 28.11,9.01 L 28.01,9.01 Z" fill="#2b98cc" stroke="none" /><path d="M 15.01,8.48 L 15.05,8.55 L 15.96,9.01 L 16.04,9.01 L 16.99,8.51 L 16.99,8.48 L 16.07,8.02 L 15.93,8.02 Z" fill="#2b98cc" stroke="none" /><path d="M 0.99,8.48 L 0.99,8.51 L 1.91,8.97 L 2.05,8.97 L 2.93,8.51 L 2.93,8.48 L 2.01,8.02 L 1.87,8.02 Z" fill="#2b98cc" stroke="none" /><path d="M 10.98,6.46 L 11.02,6.53 L 11.94,6.99 L 12.01,6.99 L 12.96,6.50 L 12.96,6.46 L 12.04,6.00 L 11.90,6.00 Z" fill="#2b98cc" stroke="none" /><path d="M 4.91,6.46 L 3.96,6.00 L 3.04,6.46 L 3.00,6.53 L 3.92,6.99 L 3.99,6.99 L 4.91,6.53 Z" fill="#2b98cc" stroke="none" /><path d="M 12.96,2.44 L 12.01,1.98 L 11.02,2.47 L 11.02,2.51 L 11.94,2.97 L 12.04,2.97 L 12.96,2.51 Z" fill="#2b98cc" stroke="none" /><path d="M 19.04,8.48 L 19.07,8.55 L 19.99,9.01 L 20.06,9.01 L 21.02,8.51 L 21.02,8.48 L 20.10,8.02 L 19.96,8.02 Z" fill="#2b99cd" stroke="none" /><path d="M 30.06,7.98 L 30.06,8.02 L 30.98,8.48 L 31.08,8.48 L 32.00,8.02 L 32.00,7.98 L 31.08,7.52 L 30.98,7.52 Z" fill="#2b99cd" stroke="none" /><path d="M 24.05,10.98 L 24.09,11.06 L 24.94,11.48 L 25.08,11.48 L 26.00,11.02 L 25.96,10.95 L 25.11,10.53 L 24.97,10.53 Z" fill="#2d9cce" stroke="none" /><path d="M 19.04,10.49 L 19.07,10.56 L 19.99,11.02 L 21.02,10.53 L 21.02,10.49 L 20.10,10.03 L 19.96,10.03 Z" fill="#2d9cce" stroke="none" /><path d="M 17.02,9.50 L 17.02,9.54 L 17.94,10.00 L 18.08,10.00 L 19.00,9.54 L 18.97,9.47 L 18.05,9.01 L 17.98,9.01 Z" fill="#2d9cce" stroke="none" /><path d="M 21.05,7.49 L 21.05,7.52 L 21.97,7.98 L 22.11,7.98 L 23.03,7.52 L 22.99,7.45 L 22.08,6.99 L 22.00,6.99 Z" fill="#2d9cce" stroke="none" /><path d="M 13.00,7.49 L 13.00,7.52 L 13.92,7.98 L 14.06,7.98 L 14.98,7.52 L 14.94,7.45 L 14.02,6.99 L 13.95,6.99 Z" fill="#2d9cce" stroke="none" /><path d="M 24.09,6.96 L 24.09,7.03 L 25.01,7.49 L 25.11,7.49 L 26.03,7.03 L 26.00,6.96 L 25.08,6.50 L 25.01,6.50 Z" fill="#2d9cce" stroke="none" /><path d="M 16.04,6.96 L 16.04,7.03 L 16.95,7.49 L 17.06,7.49 L 17.98,7.03 L 17.98,6.96 L 17.06,6.50 L 16.95,6.50 Z" fill="#2d9cce" stroke="none" /><path d="M 10.00,6.96 L 10.00,7.03 L 10.91,7.49 L 11.02,7.49 L 11.94,7.03 L 11.94,6.96 L 11.02,6.50 L 10.91,6.50 Z" fill="#2d9cce" stroke="none" /><path d="M 3.92,6.96 L 2.97,6.50 L 1.98,6.99 L 1.98,7.03 L 2.90,7.49 L 3.00,7.49 L 3.92,7.03 Z" fill="#2d9cce" stroke="none" /><path d="M 18.01,2.97 L 18.01,3.00 L 18.93,3.46 L 19.07,3.46 L 19.99,3.00 L 19.96,2.93 L 19.04,2.47 L 18.97,2.47 Z" fill="#2d9cce" stroke="none" /><path d="M 14.06,0.95 L 14.06,1.02 L 14.98,1.48 L 16.00,0.99 L 16.00,0.95 L 15.08,0.49 L 14.98,0.49 Z" fill="#2d9cce" stroke="none" /><path d="M 23.06,6.46 L 23.10,6.53 L 24.02,6.99 L 24.09,6.99 L 25.01,6.53 L 25.01,6.46 L 24.09,6.00 L 23.98,6.00 Z" fill="#2d9dce" stroke="none" /><path d="M 19.00,12.50 L 19.00,12.54 L 19.99,13.03 L 21.02,12.54 L 21.02,12.50 L 20.03,12.01 Z" fill="#2e9fcf" stroke="none" /><path d="M 12.01,12.01 L 12.01,12.04 L 12.93,12.50 L 13.07,12.50 L 13.99,12.04 L 13.95,11.97 L 13.03,11.51 L 12.96,11.51 Z" fill="#2e9fcf" stroke="none" /><path d="M 23.06,11.48 L 23.06,11.55 L 23.98,12.01 L 25.01,11.51 L 25.01,11.48 L 24.09,11.02 L 23.98,11.02 Z" fill="#2e9fcf" stroke="none" /><path d="M 16.04,10.98 L 16.04,11.06 L 16.95,11.51 L 17.06,11.51 L 17.98,11.06 L 17.98,10.98 L 17.06,10.53 L 16.95,10.53 Z" fill="#2e9fcf" stroke="none" /><path d="M 14.02,8.97 L 14.02,9.04 L 14.94,9.50 L 15.05,9.50 L 15.96,9.04 L 15.96,8.97 L 15.05,8.51 L 14.94,8.51 Z" fill="#2e9fcf" stroke="none" /><path d="M 12.01,8.97 L 12.01,9.04 L 12.93,9.50 L 13.03,9.50 L 13.95,9.04 L 13.95,8.97 L 13.03,8.51 L 12.93,8.51 Z" fill="#2e9fcf" stroke="none" /><path d="M 5.97,5.97 L 6.00,6.04 L 6.92,6.50 L 6.99,6.50 L 7.95,6.00 L 7.95,5.97 L 7.03,5.51 L 6.89,5.51 Z" fill="#2e9fcf" stroke="none" /><path d="M 18.01,10.00 L 18.01,10.03 L 19.00,10.53 L 20.03,10.03 L 20.03,10.00 L 19.04,9.50 Z" fill="#2fa0cf" stroke="none" /><path d="M 13.99,7.98 L 13.99,8.02 L 14.98,8.51 L 16.00,8.02 L 16.00,7.98 L 15.01,7.49 Z" fill="#2fa0cf" stroke="none" /><path d="M 8.97,7.49 L 8.97,7.52 L 9.89,7.98 L 10.03,7.98 L 10.95,7.52 L 10.91,7.45 L 10.00,6.99 L 9.92,6.99 Z" fill="#2fa0cf" stroke="none" /><path d="M 4.98,6.46 L 4.98,6.53 L 5.90,6.99 L 6.00,6.99 L 6.92,6.53 L 6.92,6.46 L 6.00,6.00 L 5.90,6.00 Z" fill="#2fa0cf" stroke="none" /><path d="M 19.04,5.47 L 19.04,5.51 L 19.96,5.97 L 20.10,5.97 L 21.02,5.51 L 20.98,5.44 L 20.06,4.98 L 19.99,4.98 Z" fill="#2fa0cf" stroke="none" /><path d="M 21.02,3.46 L 21.02,3.50 L 22.00,3.99 L 22.96,3.53 L 22.96,3.46 L 22.04,3.00 L 21.93,3.00 Z" fill="#2fa0cf" stroke="none" /><path d="M 15.01,14.52 L 15.01,14.55 L 15.93,15.01 L 16.07,15.01 L 16.99,14.55 L 16.95,14.48 L 16.04,14.02 L 15.96,14.02 Z" fill="#30a3d0" stroke="none" /><path d="M 14.02,13.00 L 14.06,13.07 L 14.98,13.53 L 16.00,13.03 L 16.00,13.00 L 15.08,12.54 L 14.94,12.54 Z" fill="#30a3d0" stroke="none" /><path d="M 15.01,10.49 L 15.05,10.56 L 15.96,11.02 L 16.04,11.02 L 16.99,10.53 L 16.99,10.49 L 16.07,10.03 L 15.93,10.03 Z" fill="#30a3d0" stroke="none" /><path d="M 18.05,8.97 L 18.05,9.04 L 18.97,9.50 L 19.07,9.50 L 19.99,9.04 L 19.99,8.97 L 19.07,8.51 L 18.97,8.51 Z" fill="#30a3d0" stroke="none" /><path d="M 29.07,8.48 L 29.10,8.55 L 29.95,8.97 L 30.09,8.97 L 31.01,8.51 L 30.98,8.44 L 30.13,8.02 L 29.99,8.02 Z" fill="#30a3d0" stroke="none" /><path d="M 26.07,6.99 L 26.07,7.03 L 26.98,7.49 L 27.09,7.49 L 28.01,7.03 L 28.01,6.96 L 27.09,6.50 L 27.02,6.50 Z" fill="#30a3d0" stroke="none" /><path d="M 6.00,4.98 L 6.04,5.05 L 6.89,5.47 L 7.03,5.47 L 7.95,5.02 L 7.91,4.94 L 7.06,4.52 L 6.92,4.52 Z" fill="#30a3d0" stroke="none" /><path d="M 25.01,4.49 L 23.98,3.99 L 22.08,4.94 L 22.04,5.02 L 22.96,5.47 L 23.10,5.47 L 25.01,4.52 Z" fill="#30a3d0" stroke="none" /><path d="M 15.01,4.45 L 15.05,4.52 L 15.96,4.98 L 16.04,4.98 L 16.99,4.49 L 16.99,4.45 L 16.07,3.99 L 15.93,3.99 Z" fill="#30a3d0" stroke="none" /><path d="M 17.02,2.44 L 17.02,2.51 L 17.94,2.97 L 18.05,2.97 L 18.97,2.51 L 18.97,2.44 L 18.05,1.98 L 17.94,1.98 Z" fill="#30a3d0" stroke="none" /><path d="M 22.08,8.97 L 22.08,9.04 L 22.99,9.50 L 23.06,9.50 L 24.02,9.01 L 24.02,8.97 L 23.10,8.51 L 22.99,8.51 Z" fill="#31a4d1" stroke="none" /><path d="M 1.94,7.98 L 1.94,8.02 L 2.93,8.51 L 3.96,8.02 L 3.96,7.98 L 2.97,7.49 Z" fill="#31a4d1" stroke="none" /><path d="M 15.01,7.49 L 15.01,7.52 L 15.93,7.98 L 16.07,7.98 L 16.99,7.52 L 16.95,7.45 L 16.04,6.99 L 15.96,6.99 Z" fill="#31a4d1" stroke="none" /><path d="M 14.02,4.94 L 14.02,5.02 L 14.94,5.47 L 15.05,5.47 L 15.96,5.02 L 15.96,4.94 L 15.05,4.49 L 14.94,4.49 Z" fill="#31a4d1" stroke="none" /><path d="M 10.03,2.97 L 10.07,3.04 L 10.91,3.46 L 11.06,3.46 L 11.97,3.00 L 11.94,2.93 L 11.09,2.51 L 10.95,2.51 Z" fill="#31a4d1" stroke="none" /><path d="M 18.01,1.94 L 18.05,2.01 L 18.97,2.47 L 19.04,2.47 L 19.96,2.01 L 19.92,1.94 L 19.00,1.48 L 18.93,1.48 Z" fill="#31a4d1" stroke="none" /><path d="M 10.03,13.00 L 10.03,13.03 L 10.95,13.49 L 11.09,13.49 L 11.97,13.03 L 11.97,13.00 L 11.06,12.54 L 10.91,12.54 Z" fill="#32a5d1" stroke="none" /><path d="M 4.98,9.47 L 4.98,9.54 L 5.90,10.00 L 6.00,10.00 L 6.92,9.54 L 6.92,9.47 L 6.00,9.01 L 5.90,9.01 Z" fill="#32a5d1" stroke="none" /><path d="M 19.04,4.45 L 19.07,4.52 L 19.99,4.98 L 20.06,4.98 L 20.98,4.52 L 20.98,4.45 L 20.06,3.99 L 19.96,3.99 Z" fill="#32a5d1" stroke="none" /><path d="M 18.01,13.00 L 18.05,13.07 L 18.97,13.53 L 19.04,13.53 L 19.99,13.03 L 19.99,13.00 L 19.07,12.54 L 18.93,12.54 Z" fill="#33a7d2" stroke="none" /><path d="M 14.02,10.98 L 14.02,11.06 L 14.94,11.51 L 15.05,11.51 L 15.96,11.06 L 15.96,10.98 L 15.05,10.53 L 14.94,10.53 Z" fill="#33a7d2" stroke="none" /><path d="M 21.02,10.49 L 21.02,10.53 L 22.99,11.51 L 23.06,11.51 L 24.02,11.02 L 24.02,10.98 L 22.04,10.00 Z" fill="#33a7d2" stroke="none" /><path d="M 23.06,8.48 L 23.10,8.55 L 24.02,9.01 L 25.04,8.51 L 25.04,8.48 L 24.12,8.02 L 23.98,8.02 Z" fill="#33a7d2" stroke="none" /><path d="M 13.00,8.48 L 13.03,8.55 L 13.95,9.01 L 14.02,9.01 L 14.98,8.51 L 14.98,8.48 L 14.06,8.02 L 13.92,8.02 Z" fill="#33a7d2" stroke="none" /><path d="M 26.07,7.98 L 26.07,8.02 L 26.98,8.48 L 27.13,8.48 L 28.04,8.02 L 28.04,7.98 L 27.06,7.49 Z" fill="#33a7d2" stroke="none" /><path d="M 9.96,7.98 L 9.96,8.02 L 10.95,8.51 L 11.97,8.02 L 11.97,7.98 L 10.98,7.49 Z" fill="#33a7d2" stroke="none" /><path d="M 10.00,4.98 L 10.00,5.02 L 10.91,5.47 L 11.02,5.47 L 11.94,5.02 L 11.94,4.94 L 11.02,4.49 L 10.95,4.49 Z" fill="#33a7d2" stroke="none" /><path d="M 18.05,10.98 L 18.05,11.06 L 18.97,11.51 L 19.04,11.51 L 19.99,11.02 L 19.99,10.98 L 19.07,10.53 L 18.97,10.53 Z" fill="#34a9d3" stroke="none" /><path d="M 13.00,10.49 L 13.03,10.56 L 13.95,11.02 L 14.02,11.02 L 14.98,10.53 L 14.98,10.49 L 14.06,10.03 L 13.92,10.03 Z" fill="#34a9d3" stroke="none" /><path d="M 23.03,10.49 L 23.03,10.53 L 24.02,11.02 L 25.04,10.53 L 25.04,10.49 L 24.05,10.00 Z" fill="#34a9d3" stroke="none" /><path d="M 8.97,10.49 L 8.97,10.53 L 9.96,11.02 L 10.98,10.53 L 10.98,10.49 L 10.00,10.00 Z" fill="#34a9d3" stroke="none" /><path d="M 15.01,6.46 L 15.05,6.53 L 15.96,6.99 L 16.04,6.99 L 16.99,6.50 L 16.99,6.46 L 16.07,6.00 L 15.93,6.00 Z" fill="#34a9d3" stroke="none" /><path d="M 20.03,3.96 L 20.06,4.03 L 20.98,4.49 L 21.05,4.49 L 22.00,3.99 L 22.00,3.96 L 21.09,3.50 L 20.94,3.50 Z" fill="#34a9d3" stroke="none" /><path d="M 13.03,2.44 L 13.03,2.51 L 13.95,2.97 L 14.06,2.97 L 14.98,2.51 L 14.98,2.44 L 14.06,1.98 L 13.95,1.98 Z" fill="#34a9d3" stroke="none" /><path d="M 14.06,14.98 L 14.06,15.05 L 14.98,15.51 L 15.08,15.51 L 16.00,15.05 L 16.00,15.01 L 15.01,14.52 Z" fill="#35abd4" stroke="none" /><path d="M 18.01,7.98 L 18.01,8.02 L 19.00,8.51 L 20.03,8.02 L 20.03,7.98 L 19.04,7.49 Z" fill="#35abd4" stroke="none" /><path d="M 4.98,7.49 L 4.98,7.52 L 5.90,7.98 L 6.00,7.98 L 6.92,7.52 L 6.89,7.45 L 5.97,6.99 Z" fill="#35abd4" stroke="none" /><path d="M 25.08,6.46 L 25.08,6.53 L 26.00,6.99 L 26.10,6.99 L 27.02,6.53 L 27.02,6.46 L 26.10,6.00 L 26.00,6.00 Z" fill="#35abd4" stroke="none" /><path d="M 8.94,4.45 L 7.98,3.99 L 6.99,4.49 L 6.99,4.52 L 7.91,4.98 L 8.02,4.98 L 8.94,4.52 Z" fill="#35abd4" stroke="none" /><path d="M 9.01,9.47 L 9.01,9.54 L 9.92,10.00 L 10.03,10.00 L 10.95,9.54 L 10.91,9.47 L 10.00,9.01 L 9.92,9.01 Z" fill="#36acd4" stroke="none" /><path d="M 25.04,8.48 L 25.04,8.51 L 26.03,9.01 L 27.06,8.51 L 27.06,8.48 L 26.07,7.98 Z" fill="#36acd4" stroke="none" /><path d="M 5.93,7.98 L 4.94,7.49 L 3.96,7.98 L 3.96,8.02 L 4.87,8.48 L 5.02,8.48 L 5.93,8.02 Z" fill="#36acd4" stroke="none" /><path d="M 7.98,5.97 L 8.02,6.04 L 8.94,6.50 L 9.96,6.00 L 9.96,5.97 L 9.04,5.51 L 8.90,5.51 Z" fill="#36acd4" stroke="none" /><path d="M 26.07,10.03 L 26.98,10.49 L 27.06,10.49 L 27.97,10.03 L 28.01,9.96 L 27.09,9.50 L 27.02,9.50 L 26.10,9.96 Z" fill="#37aed6" stroke="none" /><path d="M 10.00,10.00 L 10.00,10.03 L 10.91,10.49 L 11.06,10.49 L 11.97,10.03 L 11.97,10.00 L 10.98,9.50 Z" fill="#37aed6" stroke="none" /><path d="M 21.05,9.50 L 21.05,9.54 L 21.97,10.00 L 22.08,10.00 L 22.99,9.54 L 22.99,9.47 L 22.08,9.01 L 22.00,9.01 Z" fill="#37aed6" stroke="none" /><path d="M 6.99,9.47 L 6.99,9.54 L 7.91,10.00 L 8.02,10.00 L 8.94,9.54 L 8.94,9.47 L 8.02,9.01 L 7.91,9.01 Z" fill="#37aed6" stroke="none" /><path d="M 22.00,6.96 L 21.09,6.50 L 20.98,6.50 L 19.07,7.45 L 19.04,7.52 L 19.96,7.98 L 20.10,7.98 L 22.00,7.03 Z" fill="#37aed6" stroke="none" /><path d="M 9.96,5.97 L 9.96,6.00 L 10.95,6.50 L 11.97,6.00 L 11.97,5.97 L 10.98,5.47 Z" fill="#37aed6" stroke="none" /><path d="M 15.01,12.50 L 15.01,12.54 L 15.93,13.00 L 16.07,13.00 L 16.99,12.54 L 16.99,12.50 L 16.07,12.04 L 15.93,12.04 Z" fill="#38afd6" stroke="none" /><path d="M 5.02,10.45 L 5.02,10.53 L 5.93,10.98 L 6.04,10.98 L 6.96,10.53 L 6.96,10.49 L 5.97,10.00 Z" fill="#38afd6" stroke="none" /><path d="M 29.07,7.49 L 29.07,7.52 L 29.99,7.98 L 30.13,7.98 L 31.01,7.52 L 31.01,7.49 L 30.09,7.03 L 29.95,7.03 Z" fill="#38afd6" stroke="none" /><path d="M 23.06,7.49 L 23.06,7.52 L 23.98,7.98 L 24.12,7.98 L 25.04,7.52 L 25.01,7.45 L 24.09,6.99 L 24.02,6.99 Z" fill="#38afd6" stroke="none" /><path d="M 27.09,6.46 L 27.09,6.53 L 28.01,6.99 L 28.08,6.99 L 29.00,6.53 L 28.96,6.46 L 28.04,6.00 Z" fill="#38afd6" stroke="none" /><path d="M 14.02,1.94 L 14.06,2.01 L 14.98,2.47 L 15.05,2.47 L 15.96,2.01 L 15.96,1.94 L 15.05,1.48 L 14.94,1.48 Z" fill="#38afd6" stroke="none" /><path d="M 19.96,13.99 L 19.04,13.53 L 18.97,13.53 L 17.06,14.48 L 17.02,14.55 L 17.94,15.01 L 18.01,15.01 L 19.92,14.06 Z" fill="#39b1d7" stroke="none" /><path d="M 17.02,10.49 L 17.06,10.56 L 17.98,11.02 L 18.05,11.02 L 19.00,10.53 L 19.00,10.49 L 18.08,10.03 L 17.94,10.03 Z" fill="#39b1d7" stroke="none" /><path d="M 17.02,8.48 L 17.06,8.55 L 17.98,9.01 L 18.05,9.01 L 19.00,8.51 L 19.00,8.48 L 18.08,8.02 L 17.94,8.02 Z" fill="#39b1d7" stroke="none" /><path d="M 8.97,8.48 L 9.01,8.55 L 9.92,9.01 L 10.00,9.01 L 10.95,8.51 L 10.95,8.48 L 10.03,8.02 L 9.89,8.02 Z" fill="#39b1d7" stroke="none" /><path d="M 7.98,6.96 L 7.98,7.03 L 8.90,7.49 L 9.01,7.49 L 9.92,7.03 L 9.92,6.96 L 9.01,6.50 L 8.90,6.50 Z" fill="#39b1d7" stroke="none" /><path d="M 12.01,2.97 L 10.98,3.46 L 10.98,3.50 L 11.87,3.92 L 11.94,3.99 L 11.02,4.45 L 11.02,4.52 L 11.94,4.98 L 12.01,4.98 L 12.96,4.49 L 12.96,4.45 L 12.04,3.99 L 12.11,3.92 L 13.00,3.50 L 13.00,3.46 Z" fill="#39b1d7" stroke="none" /><path d="M 9.04,12.47 L 9.04,12.54 L 9.96,13.00 L 10.07,13.00 L 10.98,12.54 L 10.98,12.50 L 10.00,12.01 Z" fill="#3ab3d8" stroke="none" /><path d="M 22.04,10.00 L 22.04,10.03 L 22.96,10.49 L 23.10,10.49 L 24.02,10.03 L 23.98,9.96 L 23.06,9.50 L 22.99,9.50 Z" fill="#3ab3d8" stroke="none" /><path d="M 3.99,6.96 L 3.99,7.03 L 4.91,7.49 L 5.02,7.49 L 5.93,7.03 L 5.90,6.96 L 4.98,6.50 L 4.91,6.50 Z" fill="#3ab3d8" stroke="none" /><path d="M 12.04,2.01 L 12.96,2.47 L 13.03,2.47 L 13.95,2.01 L 13.99,1.94 L 13.07,1.48 L 13.00,1.48 L 12.08,1.94 Z" fill="#3ab3d8" stroke="none" /><path d="M 14.02,6.96 L 14.02,7.03 L 14.94,7.49 L 15.05,7.49 L 15.96,7.03 L 15.96,6.96 L 15.05,6.50 L 14.94,6.50 Z" fill="#3cb5d9" stroke="none" /><path d="M 19.00,3.46 L 17.98,2.97 L 16.00,3.96 L 16.00,3.99 L 17.02,4.49 L 19.00,3.50 Z" fill="#3cb5d9" stroke="none" /><path d="M 13.03,14.48 L 13.07,14.55 L 13.99,15.01 L 14.06,15.01 L 14.98,14.55 L 14.94,14.48 L 14.02,14.02 L 13.95,14.02 Z" fill="#3db6da" stroke="none" /><path d="M 10.00,10.98 L 10.03,11.06 L 10.95,11.51 L 11.02,11.51 L 11.97,11.02 L 11.97,10.98 L 11.06,10.53 L 10.91,10.53 Z" fill="#3db6da" stroke="none" /><path d="M 4.87,8.51 L 3.96,8.97 L 3.99,9.04 L 4.91,9.50 L 3.99,9.96 L 3.99,10.00 L 4.94,10.49 L 5.02,10.49 L 5.93,10.03 L 5.90,9.96 L 4.98,9.50 L 5.90,9.04 L 5.93,8.97 L 5.02,8.51 Z" fill="#3db6da" stroke="none" /><path d="M 28.04,7.98 L 28.04,8.02 L 29.03,8.51 L 30.06,8.02 L 30.06,7.98 L 29.07,7.49 Z" fill="#3db6da" stroke="none" /><path d="M 11.97,7.98 L 11.97,8.02 L 12.96,8.51 L 13.99,8.02 L 13.99,7.98 L 13.00,7.49 Z" fill="#3db6da" stroke="none" /><path d="M 8.94,7.49 L 7.95,7.98 L 7.95,8.02 L 8.83,8.44 L 8.90,8.51 L 7.98,8.97 L 7.98,9.01 L 8.94,9.50 L 9.01,9.50 L 9.92,9.04 L 9.92,8.97 L 9.01,8.51 L 9.08,8.44 L 9.96,8.02 L 9.96,7.98 Z" fill="#3db6da" stroke="none" /><path d="M 26.07,5.97 L 26.10,6.04 L 27.02,6.50 L 27.09,6.50 L 28.01,6.04 L 27.97,5.97 L 27.06,5.51 L 26.98,5.51 Z" fill="#3db6da" stroke="none" /><path d="M 10.00,3.96 L 10.03,4.03 L 10.95,4.49 L 11.02,4.49 L 11.97,3.99 L 11.97,3.96 L 11.06,3.50 L 10.91,3.50 Z" fill="#3db6da" stroke="none" /><path d="M 22.04,12.04 L 22.96,12.50 L 23.03,12.50 L 23.95,12.04 L 23.98,11.97 L 23.06,11.51 L 22.99,11.51 L 22.08,11.97 Z" fill="#3eb7db" stroke="none" /><path d="M 10.98,10.49 L 10.98,10.53 L 11.97,11.02 L 12.96,10.53 L 12.96,10.49 L 12.04,10.03 L 11.90,10.03 Z" fill="#3eb7db" stroke="none" /><path d="M 13.99,10.00 L 13.99,10.03 L 14.98,10.53 L 16.00,10.03 L 16.00,10.00 L 15.01,9.50 Z" fill="#3eb7db" stroke="none" /><path d="M 17.02,6.46 L 17.06,6.53 L 18.97,7.49 L 19.07,7.49 L 19.99,7.03 L 19.99,6.96 L 18.08,6.00 L 17.94,6.00 Z" fill="#3eb7db" stroke="none" /><path d="M 13.00,6.46 L 13.03,6.53 L 13.95,6.99 L 14.02,6.99 L 14.98,6.50 L 14.98,6.46 L 14.06,6.00 L 13.92,6.00 Z" fill="#3eb7db" stroke="none" /><path d="M 5.02,5.47 L 5.02,5.55 L 5.93,6.00 L 6.96,5.51 L 6.96,5.47 L 6.04,5.02 L 5.93,5.02 Z" fill="#3eb7db" stroke="none" /><path d="M 16.04,1.94 L 16.04,2.01 L 16.95,2.47 L 17.02,2.47 L 17.98,1.98 L 17.98,1.94 L 17.06,1.48 L 16.95,1.48 Z" fill="#3eb7db" stroke="none" /><path d="M 19.99,12.01 L 19.04,11.51 L 18.97,11.51 L 16.99,12.50 L 16.99,12.54 L 18.01,13.03 L 19.99,12.04 Z" fill="#40b9dc" stroke="none" /><path d="M 7.98,10.00 L 7.98,10.03 L 8.90,10.49 L 9.04,10.49 L 9.96,10.03 L 9.92,9.96 L 9.01,9.50 L 8.94,9.50 Z" fill="#40b9dc" stroke="none" /><path d="M 2.97,7.49 L 2.97,7.52 L 3.89,7.98 L 4.03,7.98 L 4.94,7.52 L 4.91,7.45 L 3.99,6.99 L 3.92,6.99 Z" fill="#40b9dc" stroke="none" /><path d="M 7.91,6.00 L 6.99,6.46 L 6.99,6.53 L 7.91,6.99 L 6.99,7.45 L 6.96,7.52 L 7.88,7.98 L 8.02,7.98 L 8.94,7.52 L 8.90,7.45 L 7.98,6.99 L 8.90,6.53 L 8.94,6.46 L 8.02,6.00 Z" fill="#40b9dc" stroke="none" /><path d="M 11.97,5.97 L 11.97,6.00 L 12.96,6.50 L 13.99,6.00 L 13.99,5.97 L 13.00,5.47 Z" fill="#40b9dc" stroke="none" /><path d="M 21.05,4.45 L 21.05,4.52 L 21.97,4.98 L 22.08,4.98 L 22.99,4.52 L 22.99,4.45 L 22.08,3.99 L 21.97,3.99 Z" fill="#40b9dc" stroke="none" /><path d="M 17.02,1.45 L 17.06,1.52 L 17.98,1.98 L 18.93,1.52 L 18.93,1.45 L 18.01,0.99 L 17.94,0.99 Z" fill="#40b9dc" stroke="none" /><path d="M 14.02,13.99 L 14.02,14.06 L 14.94,14.52 L 15.05,14.52 L 15.96,14.06 L 15.96,13.99 L 15.05,13.53 L 14.94,13.53 Z" fill="#41badc" stroke="none" /><path d="M 22.96,12.47 L 22.00,12.01 L 21.02,12.50 L 21.02,12.54 L 21.93,13.00 L 22.04,13.00 L 22.96,12.54 Z" fill="#41badc" stroke="none" /><path d="M 10.00,12.01 L 10.00,12.04 L 10.91,12.50 L 11.06,12.50 L 11.97,12.04 L 11.94,11.97 L 11.02,11.51 L 10.95,11.51 Z" fill="#41badc" stroke="none" /><path d="M 20.03,10.98 L 20.06,11.06 L 20.98,11.51 L 21.05,11.51 L 22.00,11.02 L 22.00,10.98 L 21.09,10.53 L 20.94,10.53 Z" fill="#41badc" stroke="none" /><path d="M 24.05,10.00 L 24.05,10.03 L 24.97,10.49 L 25.11,10.49 L 26.03,10.03 L 26.00,9.96 L 25.08,9.50 L 25.01,9.50 Z" fill="#41badc" stroke="none" /><path d="M 19.04,6.46 L 19.07,6.53 L 19.99,6.99 L 20.06,6.99 L 21.02,6.50 L 21.02,6.46 L 20.10,6.00 L 19.96,6.00 Z" fill="#41badc" stroke="none" /><path d="M 13.99,5.97 L 13.99,6.00 L 14.98,6.50 L 16.00,6.00 L 16.00,5.97 L 15.01,5.47 Z" fill="#41badc" stroke="none" /><path d="M 22.04,3.96 L 22.08,4.03 L 22.99,4.49 L 23.06,4.49 L 23.98,4.03 L 23.95,3.96 L 23.03,3.50 L 22.96,3.50 Z" fill="#41badc" stroke="none" /><path d="M 19.99,3.96 L 19.07,3.50 L 18.93,3.50 L 17.02,4.45 L 17.02,4.49 L 17.98,4.98 L 18.05,4.98 L 19.96,4.03 Z" fill="#41badc" stroke="none" /><path d="M 12.01,3.96 L 12.04,4.03 L 12.96,4.49 L 13.99,3.99 L 13.99,3.96 L 13.07,3.50 L 12.93,3.50 Z" fill="#41badc" stroke="none" /><path d="M 13.00,9.50 L 13.00,9.54 L 13.92,10.00 L 14.06,10.00 L 14.98,9.54 L 14.94,9.47 L 14.02,9.01 L 13.95,9.01 Z" fill="#42bbde" stroke="none" /><path d="M 21.05,8.48 L 21.09,8.55 L 22.00,9.01 L 22.08,9.01 L 23.03,8.51 L 23.03,8.48 L 22.11,8.02 L 21.97,8.02 Z" fill="#42bbde" stroke="none" /><path d="M 25.08,7.49 L 25.08,7.52 L 26.00,7.98 L 26.10,7.98 L 27.02,7.52 L 26.98,7.45 L 26.07,6.99 Z" fill="#42bbde" stroke="none" /><path d="M 21.05,6.46 L 21.09,6.53 L 22.00,6.99 L 22.08,6.99 L 23.03,6.50 L 23.03,6.46 L 22.11,6.00 L 21.97,6.00 Z" fill="#42bbde" stroke="none" /><path d="M 9.01,4.45 L 9.01,4.52 L 9.92,4.98 L 10.03,4.98 L 10.95,4.52 L 10.95,4.45 L 10.03,3.99 L 9.92,3.99 Z" fill="#42bbde" stroke="none" /><path d="M 16.00,12.01 L 14.98,11.51 L 13.00,12.50 L 13.00,12.54 L 14.02,13.03 L 16.00,12.04 Z" fill="#43bcde" stroke="none" /><path d="M 26.98,10.45 L 26.03,10.00 L 25.04,10.49 L 25.04,10.53 L 25.96,10.98 L 26.07,10.98 L 26.98,10.53 Z" fill="#43bcde" stroke="none" /><path d="M 22.04,7.98 L 22.04,8.02 L 23.03,8.51 L 24.05,8.02 L 24.05,7.98 L 23.06,7.49 Z" fill="#43bcde" stroke="none" /><path d="M 8.97,6.46 L 9.01,6.53 L 9.92,6.99 L 10.00,6.99 L 10.95,6.50 L 10.95,6.46 L 10.03,6.00 L 9.89,6.00 Z" fill="#43bcde" stroke="none" /><path d="M 13.00,5.47 L 13.00,5.51 L 13.92,5.97 L 14.06,5.97 L 14.98,5.51 L 14.94,5.44 L 14.02,4.98 L 13.95,4.98 Z" fill="#43bcde" stroke="none" /><path d="M 22.04,5.97 L 22.04,6.00 L 23.03,6.50 L 24.02,6.00 L 24.02,5.97 L 23.10,5.51 L 22.96,5.51 Z" fill="#45bddf" stroke="none" /><path d="M 25.08,9.47 L 25.08,9.54 L 26.00,10.00 L 26.10,10.00 L 27.02,9.54 L 27.02,9.47 L 26.10,9.01 L 26.00,9.01 Z" fill="#46bee0" stroke="none" /><path d="M 16.04,8.97 L 16.04,9.04 L 16.95,9.50 L 17.06,9.50 L 17.98,9.04 L 17.98,8.97 L 17.06,8.51 L 16.95,8.51 Z" fill="#46bee0" stroke="none" /><path d="M 0.99,7.49 L 1.02,7.56 L 1.87,7.98 L 2.01,7.98 L 2.93,7.52 L 2.90,7.45 L 2.05,7.03 L 1.91,7.03 Z" fill="#46bee0" stroke="none" /><path d="M 10.98,7.49 L 10.98,7.52 L 11.90,7.98 L 12.04,7.98 L 12.96,7.52 L 12.93,7.45 L 12.01,6.99 L 11.94,6.99 Z" fill="#46bee0" stroke="none" /><path d="M 28.08,6.96 L 28.08,7.03 L 29.00,7.49 L 29.10,7.49 L 30.02,7.03 L 30.02,6.99 L 29.03,6.50 Z" fill="#46bee0" stroke="none" /><path d="M 6.96,5.47 L 6.96,5.51 L 7.95,6.00 L 8.97,5.51 L 8.97,5.47 L 7.98,4.98 Z" fill="#46bee0" stroke="none" /><path d="M 18.05,4.94 L 18.05,5.02 L 18.97,5.47 L 19.07,5.47 L 19.99,5.02 L 19.99,4.94 L 19.07,4.49 L 18.97,4.49 Z" fill="#46bee0" stroke="none" /><path d="M 12.04,13.99 L 12.08,14.06 L 13.00,14.52 L 13.95,14.06 L 13.95,13.99 L 13.03,13.53 L 12.96,13.53 Z" fill="#47bfe1" stroke="none" /><path d="M 8.02,11.97 L 8.05,12.04 L 8.97,12.50 L 9.04,12.50 L 9.96,12.04 L 9.92,11.97 L 9.01,11.51 L 8.94,11.51 Z" fill="#47bfe1" stroke="none" /><path d="M 16.00,7.98 L 16.00,8.02 L 16.99,8.51 L 18.01,8.02 L 18.01,7.98 L 17.02,7.49 Z" fill="#47bfe1" stroke="none" /><path d="M 3.99,6.04 L 4.91,6.50 L 4.98,6.50 L 5.90,6.04 L 5.93,5.97 L 5.02,5.51 L 4.94,5.51 L 4.03,5.97 Z" fill="#47bfe1" stroke="none" /><path d="M 18.01,5.97 L 18.01,6.00 L 19.00,6.50 L 20.03,6.00 L 20.03,5.97 L 19.04,5.47 Z" fill="#47bfe1" stroke="none" /><path d="M 13.00,3.46 L 13.00,3.50 L 14.98,4.49 L 16.00,3.99 L 16.00,3.96 L 14.02,2.97 Z" fill="#47bfe1" stroke="none" /><path d="M 20.03,2.97 L 20.03,3.00 L 20.94,3.46 L 21.09,3.46 L 21.97,3.00 L 21.97,2.97 L 21.05,2.51 L 20.91,2.51 Z" fill="#47bfe1" stroke="none" /><path d="M 13.07,1.45 L 13.07,1.52 L 13.99,1.98 L 14.98,1.48 L 14.98,1.45 L 14.06,0.99 L 13.99,0.99 Z" fill="#47bfe1" stroke="none" /><path d="M 19.04,11.48 L 19.04,11.55 L 19.96,12.01 L 20.06,12.01 L 20.98,11.55 L 20.98,11.48 L 20.06,11.02 L 19.96,11.02 Z" fill="#48c0e1" stroke="none" /><path d="M 18.97,11.48 L 18.05,11.02 L 17.98,11.02 L 16.00,12.01 L 16.00,12.04 L 16.92,12.50 L 17.06,12.50 L 18.97,11.55 Z" fill="#48c0e1" stroke="none" /><path d="M 22.00,10.00 L 21.02,9.50 L 20.03,10.00 L 20.03,10.03 L 20.94,10.49 L 21.09,10.49 L 22.00,10.03 Z" fill="#48c0e1" stroke="none" /><path d="M 11.97,10.00 L 11.97,10.03 L 12.96,10.53 L 13.99,10.03 L 13.99,10.00 L 13.00,9.50 Z" fill="#48c0e1" stroke="none" /><path d="M 23.06,9.47 L 23.06,9.54 L 23.98,10.00 L 24.09,10.00 L 25.01,9.54 L 25.01,9.47 L 24.09,9.01 L 23.98,9.01 Z" fill="#48c0e1" stroke="none" /><path d="M 2.97,8.48 L 3.00,8.55 L 3.92,9.01 L 4.94,8.51 L 4.94,8.48 L 4.03,8.02 L 3.89,8.02 Z" fill="#48c0e1" stroke="none" /><path d="M 0.00,7.98 L 0.00,8.02 L 0.92,8.48 L 1.02,8.48 L 1.94,8.02 L 1.94,7.98 L 1.02,7.52 L 0.92,7.52 Z" fill="#48c0e1" stroke="none" /><path d="M 26.03,7.98 L 25.04,7.49 L 24.05,7.98 L 24.05,8.02 L 24.97,8.48 L 25.11,8.48 L 26.03,8.02 Z" fill="#48c0e1" stroke="none" /><path d="M 27.06,7.49 L 27.06,7.52 L 27.97,7.98 L 28.11,7.98 L 29.03,7.52 L 29.00,7.45 L 28.08,6.99 L 28.01,6.99 Z" fill="#48c0e1" stroke="none" /><path d="M 17.02,7.49 L 17.02,7.52 L 17.94,7.98 L 18.08,7.98 L 19.00,7.52 L 18.97,7.45 L 18.05,6.99 L 17.98,6.99 Z" fill="#48c0e1" stroke="none" /><path d="M 22.08,6.96 L 22.08,7.03 L 22.99,7.49 L 23.10,7.49 L 24.02,7.03 L 24.02,6.96 L 23.10,6.50 L 22.99,6.50 Z" fill="#48c0e1" stroke="none" /><path d="M 5.97,6.99 L 5.97,7.03 L 6.89,7.49 L 6.99,7.49 L 7.91,7.03 L 7.91,6.96 L 6.99,6.50 L 6.92,6.50 Z" fill="#48c0e1" stroke="none" /><path d="M 15.01,5.47 L 15.01,5.51 L 15.93,5.97 L 16.07,5.97 L 16.99,5.51 L 16.95,5.44 L 16.04,4.98 L 15.96,4.98 Z" fill="#48c0e1" stroke="none" /><path d="M 9.04,3.46 L 9.04,3.53 L 9.96,3.99 L 10.98,3.50 L 10.98,3.46 L 10.07,3.00 L 9.96,3.00 Z" fill="#48c0e1" stroke="none" /><path d="M 12.01,2.97 L 12.01,3.00 L 12.93,3.46 L 13.07,3.46 L 13.99,3.00 L 13.95,2.93 L 13.03,2.47 L 12.96,2.47 Z" fill="#48c0e1" stroke="none" /><path d="M 9.01,11.48 L 9.01,11.55 L 9.92,12.01 L 10.03,12.01 L 10.95,11.55 L 10.95,11.48 L 10.03,11.02 L 9.92,11.02 Z" fill="#49c0e2" stroke="none" /><path d="M 12.01,6.96 L 12.01,7.03 L 12.93,7.49 L 13.03,7.49 L 13.95,7.03 L 13.95,6.96 L 13.03,6.50 L 12.93,6.50 Z" fill="#49c0e2" stroke="none" /><path d="M 19.00,3.46 L 19.00,3.50 L 19.99,3.99 L 21.02,3.50 L 21.02,3.46 L 20.03,2.97 Z" fill="#49c0e2" stroke="none" /><path d="M 15.01,1.45 L 15.05,1.52 L 15.96,1.98 L 16.04,1.98 L 16.99,1.48 L 16.99,1.45 L 16.07,0.99 L 15.93,0.99 Z" fill="#4ac1e3" stroke="none" /><path d="M 24.05,8.97 L 24.09,9.04 L 25.01,9.50 L 25.08,9.50 L 26.03,9.01 L 26.03,8.97 L 25.11,8.51 L 24.97,8.51 Z" fill="#4bc2e3" stroke="none" /><path d="M 13.00,4.45 L 13.03,4.52 L 13.95,4.98 L 14.02,4.98 L 14.98,4.49 L 14.98,4.45 L 14.06,3.99 L 13.92,3.99 Z" fill="#4bc2e3" stroke="none" /><path d="M 16.00,0.95 L 16.00,0.99 L 16.99,1.48 L 17.94,1.02 L 17.94,0.95 L 17.02,0.49 L 16.92,0.49 Z" fill="#4bc2e3" stroke="none" /><path d="M 16.00,13.00 L 16.00,13.03 L 16.99,13.53 L 17.98,13.03 L 17.98,13.00 L 17.06,12.54 L 16.92,12.54 Z" fill="#4cc2e4" stroke="none" /><path d="M 8.02,4.03 L 8.94,4.49 L 9.01,4.49 L 9.92,4.03 L 9.96,3.96 L 9.04,3.50 L 8.97,3.50 L 8.05,3.96 Z" fill="#4cc2e4" stroke="none" /><path d="M 15.05,2.44 L 15.05,2.51 L 15.96,2.97 L 16.04,2.97 L 16.95,2.51 L 16.95,2.44 L 16.04,1.98 L 15.96,1.98 Z" fill="#4cc2e4" stroke="none" /><path d="M 13.03,13.49 L 13.03,13.56 L 13.95,14.02 L 14.02,14.02 L 14.98,13.53 L 15.96,14.02 L 16.04,14.02 L 16.99,13.53 L 16.99,13.49 L 16.07,13.03 L 15.93,13.03 L 15.05,13.49 L 14.94,13.49 L 14.06,13.03 L 13.95,13.03 Z" fill="#4dc3e4" stroke="none" /><path d="M 13.95,10.98 L 13.03,10.53 L 12.93,10.53 L 11.02,11.48 L 11.02,11.55 L 11.94,12.01 L 12.04,12.01 L 13.95,11.06 Z" fill="#4dc3e4" stroke="none" /><path d="M 8.97,10.49 L 7.95,10.00 L 6.04,10.95 L 6.00,11.02 L 6.92,11.48 L 7.06,11.48 L 8.97,10.53 Z" fill="#4dc3e4" stroke="none" /><path d="M 15.01,9.50 L 15.01,9.54 L 15.93,10.00 L 16.07,10.00 L 16.99,9.54 L 16.95,9.47 L 16.04,9.01 L 15.96,9.01 Z" fill="#4dc3e4" stroke="none" /><path d="M 1.98,8.97 L 1.98,9.01 L 2.90,9.47 L 3.04,9.47 L 3.92,9.01 L 3.92,8.97 L 3.00,8.51 L 2.90,8.51 Z" fill="#4dc3e4" stroke="none" /><path d="M 29.03,8.48 L 28.11,8.02 L 27.97,8.02 L 26.07,8.97 L 26.07,9.01 L 27.02,9.50 L 27.09,9.50 L 29.00,8.55 Z" fill="#4dc3e4" stroke="none" /><path d="M 12.96,8.48 L 12.04,8.02 L 11.90,8.02 L 10.00,8.97 L 10.00,9.04 L 10.91,9.50 L 11.02,9.50 L 12.93,8.55 Z" fill="#4dc3e4" stroke="none" /><path d="M 7.95,7.98 L 6.92,7.49 L 4.94,8.48 L 4.94,8.51 L 5.97,9.01 L 7.95,8.02 Z" fill="#4dc3e4" stroke="none" /><path d="M 26.00,4.98 L 25.08,4.52 L 24.94,4.52 L 23.06,5.47 L 22.99,5.47 L 22.00,4.98 L 20.03,5.97 L 20.03,6.00 L 21.02,6.50 L 22.99,5.51 L 23.06,5.51 L 24.05,6.00 L 25.96,5.05 Z" fill="#4dc3e4" stroke="none" /><path d="M 16.04,4.94 L 16.04,5.02 L 16.95,5.47 L 17.06,5.47 L 17.98,5.02 L 17.98,4.94 L 17.06,4.49 L 16.95,4.49 Z" fill="#4dc3e4" stroke="none" /><path d="M 7.98,4.98 L 7.98,5.02 L 8.90,5.47 L 9.04,5.47 L 9.96,5.02 L 9.92,4.94 L 9.01,4.49 L 8.94,4.49 Z" fill="#4dc3e4" stroke="none" /><path d="M 14.02,2.97 L 14.02,3.00 L 14.94,3.46 L 15.05,3.46 L 15.96,3.00 L 15.96,2.93 L 15.05,2.47 L 14.98,2.47 Z" fill="#4dc3e4" stroke="none" /></svg>