<svg height="32" width="32" viewBox="0 0 32 32"><defs /><path d="M 20.71,23.38 L 18.89,24.27 L 18.89,25.38 L 20.71,24.49 Z" fill="#254209" stroke="none" /><path d="M 27.01,16.89 L 26.15,17.34 L 26.15,18.42 L 26.21,18.42 L 27.01,18.00 L 27.04,18.04 L 27.04,19.09 L 27.10,19.09 L 27.90,18.67 L 27.93,18.70 L 27.93,19.75 L 27.04,20.20 L 27.04,21.31 L 27.90,20.90 L 27.93,20.93 L 27.93,21.98 L 27.96,21.98 L 28.82,21.53 L 28.82,20.42 L 27.99,20.83 L 27.93,20.80 L 27.93,19.79 L 28.82,19.34 L 28.82,18.23 L 28.76,18.23 L 27.96,18.64 L 27.93,18.61 L 27.93,17.56 L 27.86,17.56 L 27.07,17.97 L 27.04,17.94 L 27.04,16.89 Z" fill="#254209" stroke="none" /><path d="M 15.27,16.13 L 15.20,16.13 L 14.41,16.54 L 14.41,17.65 L 15.27,17.24 Z" fill="#254209" stroke="none" /><path d="M 15.27,13.96 L 15.20,13.96 L 14.41,14.38 L 14.41,15.43 L 14.47,15.43 L 15.27,15.01 Z" fill="#254209" stroke="none" /><path d="M 17.97,13.68 L 17.91,13.68 L 17.08,14.09 L 17.08,15.17 L 17.02,15.24 L 16.19,15.65 L 16.19,16.76 L 17.05,16.35 L 17.08,16.38 L 17.08,17.43 L 17.97,16.99 L 17.97,15.90 L 18.04,15.84 L 18.89,15.43 L 18.89,14.31 L 18.83,14.31 L 18.00,14.73 L 17.97,14.70 Z" fill="#254209" stroke="none" /><path d="M 19.79,11.71 L 19.72,11.71 L 18.89,12.12 L 18.89,13.20 L 19.79,12.76 Z" fill="#254209" stroke="none" /><path d="M 28.82,8.24 L 27.07,9.10 L 27.04,9.13 L 27.04,10.21 L 25.29,11.10 L 25.22,11.07 L 25.22,10.05 L 26.15,9.57 L 26.15,8.52 L 26.08,8.52 L 23.41,9.86 L 23.41,10.94 L 24.30,10.50 L 24.33,10.53 L 24.33,11.55 L 24.27,11.61 L 22.55,12.47 L 22.52,12.44 L 22.52,11.39 L 21.60,11.83 L 21.60,12.95 L 22.49,12.50 L 22.52,12.53 L 22.52,13.58 L 21.60,14.06 L 21.60,15.14 L 21.53,15.20 L 20.71,15.62 L 20.71,17.81 L 20.77,17.81 L 21.57,17.40 L 21.60,17.43 L 21.60,18.48 L 20.71,18.93 L 20.71,20.04 L 20.77,20.04 L 21.57,19.63 L 21.60,19.66 L 21.60,22.93 L 22.49,22.49 L 22.52,22.52 L 22.52,23.54 L 22.46,23.60 L 21.60,24.02 L 21.60,26.24 L 21.57,26.27 L 20.74,26.69 L 20.71,26.66 L 20.71,25.61 L 20.64,25.61 L 19.79,26.05 L 19.79,28.25 L 19.75,28.28 L 18.93,28.69 L 18.89,28.66 L 18.89,26.50 L 18.86,26.50 L 17.97,26.94 L 17.97,28.06 L 17.94,28.09 L 15.30,29.39 L 15.27,29.36 L 15.27,27.23 L 15.33,27.17 L 16.19,26.75 L 16.19,20.10 L 17.05,19.66 L 17.08,19.69 L 17.08,22.97 L 18.89,22.08 L 18.89,20.96 L 18.00,21.41 L 17.97,21.38 L 17.97,20.33 L 18.89,19.85 L 18.89,18.77 L 18.96,18.70 L 19.79,18.29 L 19.79,17.18 L 17.97,18.07 L 17.97,19.18 L 17.11,19.63 L 17.08,19.59 L 17.08,18.54 L 17.02,18.54 L 14.41,19.85 L 14.41,20.96 L 14.47,20.96 L 15.20,20.58 L 15.27,20.61 L 15.27,22.74 L 15.20,22.81 L 14.41,23.19 L 14.41,24.30 L 15.24,23.89 L 15.27,23.92 L 15.27,24.97 L 14.41,25.42 L 14.41,26.53 L 15.24,26.12 L 15.27,26.15 L 15.27,27.17 L 15.20,27.23 L 14.41,27.61 L 14.41,29.84 L 14.47,29.84 L 15.24,29.46 L 15.27,29.49 L 15.27,30.50 L 14.41,30.95 L 14.41,32.00 L 14.47,32.00 L 17.08,30.70 L 17.08,29.65 L 17.15,29.58 L 18.86,28.72 L 18.89,28.76 L 18.89,29.77 L 18.93,29.77 L 21.60,28.44 L 21.60,27.39 L 21.66,27.32 L 22.49,26.91 L 22.52,26.94 L 22.52,27.96 L 23.38,27.55 L 23.41,27.51 L 23.41,26.47 L 24.27,26.02 L 24.33,26.05 L 24.33,27.04 L 24.40,27.04 L 25.22,26.62 L 25.22,25.54 L 24.37,25.96 L 24.33,25.92 L 24.33,24.91 L 24.27,24.91 L 23.44,25.32 L 23.41,25.29 L 23.41,24.24 L 22.55,24.65 L 22.52,24.62 L 22.52,23.60 L 22.58,23.54 L 24.30,22.68 L 24.33,22.71 L 24.33,23.76 L 24.40,23.76 L 25.19,23.35 L 25.22,23.38 L 25.22,24.43 L 25.29,24.43 L 27.04,23.54 L 27.04,22.43 L 25.26,23.32 L 25.22,23.28 L 25.22,22.23 L 26.15,21.76 L 26.15,20.68 L 26.08,20.68 L 22.55,22.46 L 22.52,22.43 L 22.52,20.26 L 23.41,19.82 L 23.41,18.74 L 23.48,18.67 L 25.22,17.81 L 25.22,16.70 L 26.15,16.22 L 26.15,15.14 L 26.21,15.08 L 27.04,14.66 L 27.04,13.58 L 27.10,13.52 L 27.86,13.14 L 27.93,13.17 L 27.93,16.45 L 28.82,16.00 L 28.82,11.58 L 28.76,11.58 L 27.04,12.44 L 27.04,13.52 L 26.97,13.58 L 26.15,14.00 L 26.15,15.08 L 26.08,15.14 L 25.26,15.55 L 25.22,15.52 L 25.22,12.28 L 25.29,12.21 L 27.04,11.36 L 27.04,10.24 L 27.07,10.21 L 27.90,9.80 L 27.93,9.83 L 27.93,10.88 L 27.99,10.88 L 28.82,10.47 Z" fill="#254209" stroke="none" /><path d="M 18.89,28.72 L 18.83,28.72 L 17.08,29.61 L 17.08,30.66 L 17.15,30.66 L 18.89,29.77 Z" fill="#254309" stroke="none" /><path d="M 24.33,22.68 L 24.27,22.68 L 23.41,23.13 L 23.41,25.35 L 24.30,24.91 L 24.33,24.94 L 24.33,25.96 L 24.27,26.02 L 23.41,26.43 L 23.41,27.51 L 24.33,27.07 L 24.33,26.02 L 24.40,25.96 L 25.19,25.57 L 25.22,25.61 L 25.22,26.59 L 25.29,26.59 L 26.15,26.15 L 26.15,25.10 L 26.08,25.10 L 25.26,25.51 L 25.22,25.48 L 25.22,24.46 L 25.16,24.46 L 24.37,24.87 L 24.33,24.84 Z" fill="#254309" stroke="none" /><path d="M 17.08,21.88 L 17.02,21.88 L 16.19,22.30 L 16.19,25.64 L 17.08,25.19 Z" fill="#254309" stroke="none" /><path d="M 21.60,20.71 L 20.71,21.15 L 20.71,22.23 L 20.64,22.30 L 18.89,23.16 L 18.89,24.27 L 17.97,24.75 L 17.97,25.83 L 16.19,26.72 L 16.19,28.95 L 16.25,28.95 L 17.08,28.53 L 17.08,27.42 L 17.97,26.97 L 17.97,25.86 L 18.89,25.38 L 18.89,24.30 L 20.64,23.41 L 20.71,23.44 L 20.71,24.46 L 19.79,24.94 L 19.79,26.05 L 20.68,25.61 L 20.71,25.64 L 20.71,26.69 L 20.77,26.69 L 21.60,26.27 L 21.60,25.16 L 21.53,25.16 L 20.74,25.57 L 20.71,25.54 L 20.71,24.49 L 21.60,24.05 L 21.60,22.93 L 20.77,23.35 L 20.71,23.32 L 20.71,22.30 L 20.77,22.23 L 21.60,21.82 Z" fill="#254309" stroke="none" /><path d="M 15.27,20.55 L 14.41,20.96 L 14.41,23.19 L 14.47,23.19 L 15.27,22.78 Z" fill="#254309" stroke="none" /><path d="M 18.89,19.85 L 17.97,20.29 L 17.97,21.41 L 18.04,21.41 L 18.89,20.96 Z" fill="#254309" stroke="none" /><path d="M 24.33,19.34 L 23.41,19.79 L 23.41,22.01 L 23.48,22.01 L 24.33,21.57 Z" fill="#254309" stroke="none" /><path d="M 20.71,18.96 L 20.64,18.96 L 19.79,19.40 L 19.79,20.52 L 20.71,20.07 Z" fill="#254309" stroke="none" /><path d="M 27.93,18.67 L 27.86,18.67 L 26.15,19.53 L 26.15,21.73 L 26.08,21.79 L 25.22,22.20 L 25.22,23.32 L 25.29,23.32 L 26.97,22.46 L 27.04,22.49 L 27.04,23.54 L 27.93,23.09 L 27.93,20.90 L 27.99,20.83 L 28.82,20.42 L 28.82,19.34 L 28.76,19.34 L 27.96,19.75 L 27.93,19.72 Z" fill="#254309" stroke="none" /><path d="M 28.82,16.00 L 27.93,16.45 L 27.93,17.53 L 27.99,17.53 L 28.82,17.11 Z" fill="#254309" stroke="none" /><path d="M 22.52,14.73 L 22.46,14.73 L 21.60,15.17 L 21.60,16.25 L 21.66,16.25 L 22.52,15.81 Z" fill="#254309" stroke="none" /><path d="M 17.08,14.12 L 17.02,14.12 L 14.41,15.43 L 14.41,16.54 L 15.24,16.13 L 15.27,16.16 L 15.27,17.21 L 15.33,17.21 L 16.13,16.80 L 16.19,16.83 L 16.19,17.84 L 16.13,17.91 L 14.41,18.77 L 14.41,19.85 L 14.47,19.85 L 16.19,18.99 L 16.19,17.91 L 16.25,17.84 L 17.08,17.43 L 17.08,16.32 L 16.25,16.73 L 16.19,16.70 L 16.19,15.68 L 16.25,15.62 L 17.08,15.20 Z" fill="#254309" stroke="none" /><path d="M 26.15,14.00 L 25.22,14.44 L 25.22,15.55 L 25.29,15.55 L 26.15,15.11 Z" fill="#254309" stroke="none" /><path d="M 24.33,13.81 L 23.41,14.25 L 23.41,15.36 L 24.33,14.92 Z" fill="#254309" stroke="none" /><path d="M 20.71,11.23 L 19.79,11.67 L 19.79,12.72 L 19.72,12.79 L 18.93,13.17 L 18.89,13.14 L 18.89,12.15 L 18.83,12.15 L 17.97,12.60 L 17.97,14.76 L 19.75,13.87 L 19.79,13.90 L 19.79,14.95 L 17.97,15.87 L 17.97,18.07 L 17.08,18.51 L 17.08,19.63 L 16.19,20.07 L 16.19,21.18 L 16.25,21.18 L 17.08,20.77 L 17.08,19.66 L 17.97,19.21 L 17.97,18.10 L 18.89,17.62 L 18.89,16.54 L 18.93,16.51 L 19.75,16.10 L 19.79,16.13 L 19.79,18.29 L 20.71,17.84 L 20.71,15.62 L 19.82,16.06 L 19.79,16.03 L 19.79,14.98 L 20.71,14.50 Z" fill="#254309" stroke="none" /><path d="M 23.41,9.89 L 23.35,9.89 L 22.52,10.31 L 22.52,11.39 L 23.41,10.94 Z" fill="#254309" stroke="none" /><path d="M 28.82,7.19 L 28.76,7.19 L 26.15,8.49 L 26.15,9.54 L 26.08,9.61 L 25.22,10.02 L 25.22,11.10 L 25.16,11.17 L 24.33,11.58 L 24.33,12.69 L 25.19,12.28 L 25.22,12.31 L 25.22,13.36 L 27.04,12.47 L 27.04,11.36 L 26.97,11.36 L 25.26,12.21 L 25.22,12.18 L 25.22,11.17 L 25.29,11.10 L 27.04,10.24 L 27.04,9.16 L 27.10,9.10 L 28.82,8.24 Z" fill="#254309" stroke="none" /><path d="M 19.79,27.17 L 18.89,27.61 L 18.89,28.69 L 18.96,28.69 L 19.79,28.28 Z" fill="#26430a" stroke="none" /><path d="M 23.41,25.35 L 22.52,25.80 L 22.52,26.88 L 21.60,27.36 L 21.60,28.41 L 21.66,28.41 L 22.52,27.96 L 22.52,26.91 L 23.41,26.47 Z" fill="#26430a" stroke="none" /><path d="M 15.27,23.89 L 15.20,23.89 L 14.41,24.30 L 14.41,25.42 L 15.27,25.00 Z" fill="#26430a" stroke="none" /><path d="M 28.82,21.53 L 27.93,21.98 L 27.93,23.06 L 27.86,23.13 L 25.26,24.43 L 25.22,24.40 L 25.22,23.35 L 25.16,23.35 L 24.33,23.76 L 24.33,24.87 L 24.40,24.87 L 25.19,24.46 L 25.22,24.49 L 25.22,25.54 L 26.12,25.10 L 26.15,25.13 L 26.15,26.15 L 26.18,26.15 L 28.79,24.84 L 28.82,24.81 L 28.82,23.76 L 28.76,23.76 L 27.96,24.17 L 27.93,24.14 L 27.93,23.13 L 27.99,23.06 L 28.82,22.65 Z" fill="#26430a" stroke="none" /><path d="M 17.08,20.77 L 17.02,20.77 L 16.19,21.18 L 16.19,22.30 L 16.25,22.30 L 17.08,21.88 Z" fill="#26430a" stroke="none" /><path d="M 21.60,17.40 L 21.53,17.40 L 18.89,18.74 L 18.89,22.04 L 17.08,22.97 L 17.08,25.16 L 17.02,25.22 L 16.19,25.64 L 16.19,26.72 L 15.30,27.17 L 15.27,27.13 L 15.27,26.12 L 15.20,26.12 L 14.41,26.53 L 14.41,27.61 L 14.47,27.61 L 15.20,27.23 L 15.27,27.26 L 15.27,29.42 L 16.19,28.98 L 16.19,26.75 L 16.22,26.72 L 17.94,25.86 L 17.97,25.89 L 17.97,26.94 L 17.08,27.39 L 17.08,28.50 L 17.15,28.50 L 17.97,28.09 L 17.97,26.97 L 18.00,26.94 L 19.79,26.05 L 19.79,24.94 L 18.00,25.83 L 17.97,25.80 L 17.97,24.78 L 18.04,24.72 L 18.89,24.30 L 18.89,23.19 L 18.93,23.16 L 20.64,22.30 L 20.71,22.33 L 20.71,23.38 L 21.53,22.97 L 21.60,23.00 L 21.60,24.02 L 20.71,24.46 L 20.71,25.57 L 20.77,25.57 L 21.60,25.16 L 21.60,24.05 L 22.52,23.57 L 22.52,22.49 L 23.41,22.04 L 23.41,19.82 L 23.35,19.82 L 22.52,20.23 L 22.52,22.46 L 21.66,22.90 L 21.60,22.87 L 21.60,21.82 L 20.77,22.23 L 20.71,22.20 L 20.71,21.18 L 20.77,21.12 L 21.60,20.71 L 21.60,19.63 L 21.53,19.63 L 19.85,20.49 L 19.79,20.45 L 19.79,19.44 L 19.85,19.37 L 21.60,18.51 Z" fill="#26430a" stroke="none" /><path d="M 15.27,17.24 L 15.20,17.24 L 14.41,17.65 L 14.41,18.77 L 15.27,18.35 Z" fill="#26430a" stroke="none" /><path d="M 28.82,17.11 L 28.76,17.11 L 27.93,17.53 L 27.93,18.64 L 27.99,18.64 L 28.82,18.23 Z" fill="#26430a" stroke="none" /><path d="M 17.97,16.99 L 17.08,17.43 L 17.08,18.51 L 17.15,18.51 L 17.97,18.10 Z" fill="#26430a" stroke="none" /><path d="M 17.97,14.76 L 17.08,15.20 L 17.08,16.32 L 17.97,15.87 Z" fill="#26430a" stroke="none" /><path d="M 17.97,12.60 L 15.27,13.93 L 15.27,15.01 L 17.97,13.68 Z" fill="#26430a" stroke="none" /><path d="M 27.93,9.80 L 27.86,9.80 L 27.04,10.21 L 27.04,12.44 L 25.22,13.36 L 25.22,14.44 L 25.29,14.44 L 26.97,13.58 L 27.04,13.61 L 27.04,14.63 L 26.97,14.70 L 26.15,15.11 L 26.15,16.19 L 26.08,16.25 L 25.26,16.67 L 25.22,16.64 L 25.22,15.59 L 25.16,15.59 L 23.48,16.45 L 23.41,16.41 L 23.41,14.28 L 24.33,13.81 L 24.33,12.69 L 22.55,13.58 L 22.52,13.55 L 22.52,12.50 L 24.33,11.58 L 24.33,10.50 L 24.27,10.50 L 22.55,11.36 L 22.52,11.32 L 22.52,10.34 L 22.46,10.34 L 20.74,11.20 L 20.71,11.23 L 20.71,14.47 L 20.64,14.54 L 19.82,14.95 L 19.79,14.92 L 19.79,13.87 L 19.72,13.87 L 18.89,14.28 L 18.89,15.40 L 18.96,15.40 L 19.75,14.98 L 19.79,15.01 L 19.79,16.06 L 18.89,16.51 L 18.89,17.62 L 18.93,17.62 L 19.79,17.18 L 19.79,16.10 L 20.71,15.62 L 20.71,14.54 L 20.77,14.47 L 22.49,13.61 L 22.52,13.65 L 22.52,16.92 L 23.35,16.51 L 23.41,16.54 L 23.41,17.56 L 23.35,17.62 L 22.52,18.04 L 22.52,19.15 L 23.41,18.70 L 23.41,17.62 L 23.48,17.56 L 25.19,16.70 L 25.22,16.73 L 25.22,17.78 L 24.33,18.23 L 24.33,21.57 L 26.15,20.68 L 26.15,19.56 L 27.04,19.12 L 27.04,18.00 L 26.97,18.00 L 26.18,18.42 L 26.15,18.39 L 26.15,17.37 L 26.21,17.30 L 27.93,16.45 L 27.93,13.11 L 27.10,13.52 L 27.04,13.49 L 27.04,12.47 L 28.82,11.58 L 28.82,10.47 L 28.76,10.47 L 27.96,10.88 L 27.93,10.85 Z" fill="#26430a" stroke="none" /><path d="M 15.27,29.42 L 14.41,29.84 L 14.41,30.95 L 15.27,30.54 Z" fill="#26430b" stroke="none" /><path d="M 19.79,26.05 L 18.89,26.50 L 18.89,27.61 L 19.79,27.17 Z" fill="#26430b" stroke="none" /><path d="M 23.41,23.13 L 22.52,23.57 L 22.52,24.68 L 23.41,24.24 Z" fill="#26430b" stroke="none" /><path d="M 28.82,22.65 L 27.93,23.09 L 27.93,24.17 L 27.99,24.17 L 28.82,23.76 Z" fill="#26430b" stroke="none" /><path d="M 24.33,18.26 L 24.27,18.26 L 23.41,18.70 L 23.41,19.79 L 23.48,19.79 L 24.33,19.34 Z" fill="#26430b" stroke="none" /><path d="M 16.16,16.76 L 15.27,17.21 L 15.27,18.32 L 15.33,18.32 L 16.16,17.91 L 16.19,17.94 L 16.19,18.96 L 16.25,18.96 L 17.08,18.54 L 17.08,17.43 L 16.22,17.84 L 16.19,17.81 L 16.19,16.76 Z" fill="#26430b" stroke="none" /><path d="M 27.93,16.45 L 27.04,16.89 L 27.04,17.97 L 27.10,17.97 L 27.93,17.56 Z" fill="#26430b" stroke="none" /><path d="M 21.60,14.06 L 20.71,14.50 L 20.71,15.62 L 21.60,15.17 Z" fill="#26430b" stroke="none" /><path d="M 10.85,26.97 L 10.85,28.09 L 11.67,28.50 L 11.74,28.50 L 11.74,27.39 L 10.91,26.97 Z" fill="#3c6b0f" stroke="none" /><path d="M 5.41,26.47 L 5.41,27.51 L 6.30,27.96 L 6.30,26.88 L 5.47,26.47 Z" fill="#3c6b0f" stroke="none" /><path d="M 7.22,25.16 L 7.22,26.27 L 8.97,27.13 L 9.03,27.20 L 9.03,28.28 L 9.92,28.72 L 9.92,29.77 L 10.78,30.22 L 10.85,30.22 L 10.85,29.17 L 9.92,28.69 L 9.92,27.61 L 9.10,27.20 L 9.03,27.13 L 9.03,26.05 L 7.28,25.16 Z" fill="#3c6b0f" stroke="none" /><path d="M 13.55,25.00 L 13.55,26.12 L 14.41,26.53 L 14.41,25.42 L 13.61,25.00 Z" fill="#3c6b0f" stroke="none" /><path d="M 10.85,24.75 L 10.85,25.86 L 11.67,26.27 L 11.74,26.27 L 11.74,25.19 Z" fill="#3c6b0f" stroke="none" /><path d="M 5.41,24.24 L 5.41,25.35 L 6.30,25.80 L 6.30,24.68 Z" fill="#3c6b0f" stroke="none" /><path d="M 0.00,23.76 L 0.00,24.81 L 1.78,25.70 L 1.78,24.62 L 0.06,23.76 Z" fill="#3c6b0f" stroke="none" /><path d="M 8.11,23.38 L 8.11,24.49 L 9.92,25.38 L 9.92,24.27 Z" fill="#3c6b0f" stroke="none" /><path d="M 11.74,21.88 L 11.74,22.97 L 12.63,23.41 L 12.63,22.30 L 11.80,21.88 Z" fill="#3c6b0f" stroke="none" /><path d="M 4.49,21.57 L 4.49,22.68 L 5.41,23.13 L 5.41,22.01 Z" fill="#3c6b0f" stroke="none" /><path d="M 13.55,20.55 L 13.55,22.78 L 14.35,23.19 L 14.41,23.19 L 14.41,20.96 Z" fill="#3c6b0f" stroke="none" /><path d="M 11.74,18.54 L 11.74,19.66 L 12.56,20.07 L 12.63,20.07 L 12.63,18.96 L 11.80,18.54 Z" fill="#3c6b0f" stroke="none" /><path d="M 3.59,17.81 L 3.59,18.89 L 4.49,19.34 L 4.49,18.23 L 3.66,17.81 Z" fill="#3c6b0f" stroke="none" /><path d="M 7.22,16.29 L 7.22,17.40 L 8.11,17.84 L 8.11,18.89 L 8.08,18.93 L 7.28,18.51 L 7.22,18.51 L 7.22,19.63 L 8.05,20.04 L 8.11,20.04 L 8.11,18.99 L 8.14,18.96 L 8.97,19.37 L 9.03,19.44 L 9.03,20.52 L 9.07,20.55 L 10.78,21.41 L 10.85,21.41 L 10.85,20.29 L 9.10,19.44 L 9.03,19.37 L 9.03,18.29 L 8.11,17.81 L 8.11,16.70 L 7.28,16.29 Z" fill="#3c6b0f" stroke="none" /><path d="M 12.69,14.57 L 12.63,14.57 L 12.63,15.59 L 12.60,15.62 L 11.74,15.20 L 11.74,16.32 L 12.60,16.76 L 12.63,16.76 L 12.63,15.71 L 12.66,15.68 L 13.49,16.10 L 13.55,16.10 L 13.55,15.01 Z" fill="#3c6b0f" stroke="none" /><path d="M 3.59,14.47 L 3.59,16.70 L 4.42,17.11 L 4.49,17.11 L 4.49,14.89 L 3.66,14.47 Z" fill="#3c6b0f" stroke="none" /><path d="M 0.00,12.66 L 0.00,13.77 L 0.83,14.19 L 0.89,14.25 L 0.89,16.38 L 0.83,16.41 L 0.00,16.00 L 0.00,17.11 L 1.72,17.97 L 1.78,17.97 L 1.78,14.66 L 0.95,14.25 L 0.89,14.19 L 0.89,13.11 Z" fill="#3c6b0f" stroke="none" /><path d="M 9.92,12.15 L 9.92,13.20 L 11.67,14.09 L 11.74,14.09 L 11.74,13.04 L 9.99,12.15 Z" fill="#3c6b0f" stroke="none" /><path d="M 7.22,11.86 L 7.22,12.95 L 8.05,13.36 L 8.11,13.42 L 8.11,14.50 L 9.89,15.40 L 9.92,15.43 L 9.92,16.54 L 10.85,16.99 L 10.85,15.87 L 9.92,15.40 L 9.92,14.28 L 8.17,13.42 L 8.11,13.36 L 8.11,12.28 L 7.28,11.86 Z" fill="#3c6b0f" stroke="none" /><path d="M 3.59,11.13 L 3.59,12.25 L 4.49,12.69 L 4.49,11.58 Z" fill="#3c6b0f" stroke="none" /><path d="M 1.78,10.24 L 1.78,11.36 L 2.61,11.77 L 2.67,11.77 L 2.67,10.66 L 1.84,10.24 Z" fill="#3c6b0f" stroke="none" /><path d="M 8.11,11.23 L 8.11,12.31 L 9.86,13.17 L 9.92,13.23 L 9.92,15.43 L 10.78,15.84 L 10.85,15.90 L 10.85,16.92 L 10.82,16.95 L 9.10,16.10 L 9.03,16.10 L 9.03,18.29 L 10.82,19.18 L 10.85,19.21 L 10.85,20.33 L 11.67,20.74 L 11.74,20.74 L 11.74,18.51 L 10.85,18.07 L 10.85,17.05 L 10.91,17.02 L 12.56,17.84 L 12.63,17.91 L 12.63,18.99 L 13.49,19.40 L 13.55,19.47 L 13.55,20.55 L 14.35,20.96 L 14.41,20.96 L 14.41,18.77 L 12.69,17.91 L 12.63,17.84 L 12.63,16.76 L 11.80,16.35 L 11.74,16.29 L 11.74,15.27 L 11.77,15.24 L 12.63,15.65 L 12.63,14.60 L 12.66,14.57 L 13.49,14.98 L 13.55,15.05 L 13.55,17.24 L 14.41,17.65 L 14.41,14.38 L 11.77,13.04 L 11.74,13.04 L 11.74,14.06 L 11.71,14.09 L 9.99,13.23 L 9.92,13.17 L 9.92,12.12 Z" fill="#3c6c0f" stroke="none" /><path d="M 0.00,7.19 L 0.00,10.47 L 1.78,11.36 L 1.78,12.41 L 1.75,12.44 L 0.06,11.58 L 0.00,11.58 L 0.00,12.66 L 0.83,13.07 L 0.89,13.14 L 0.89,14.16 L 0.86,14.19 L 0.00,13.77 L 0.00,16.00 L 0.89,16.45 L 0.89,14.28 L 0.95,14.25 L 1.72,14.63 L 1.78,14.70 L 1.78,15.78 L 2.61,16.19 L 2.67,16.25 L 2.67,17.27 L 2.64,17.30 L 1.78,16.89 L 1.78,17.94 L 1.75,17.97 L 0.95,17.56 L 0.89,17.56 L 0.89,18.61 L 0.86,18.64 L 0.06,18.23 L 0.00,18.23 L 0.00,19.34 L 0.89,19.79 L 0.89,20.80 L 0.86,20.83 L 0.00,20.42 L 0.00,22.65 L 0.83,23.06 L 0.89,23.13 L 0.89,24.21 L 1.78,24.65 L 1.78,25.70 L 1.81,25.73 L 5.38,27.51 L 5.41,27.51 L 5.41,26.50 L 5.44,26.47 L 6.30,26.91 L 6.30,27.96 L 6.33,27.99 L 7.16,28.41 L 7.22,28.41 L 7.22,27.42 L 7.28,27.39 L 8.05,27.77 L 8.11,27.83 L 8.11,28.88 L 9.92,29.77 L 9.92,28.76 L 9.96,28.72 L 10.78,29.14 L 10.85,29.20 L 10.85,30.25 L 11.67,30.66 L 11.74,30.66 L 11.74,29.61 L 10.91,29.20 L 10.85,29.14 L 10.85,28.06 L 9.99,27.64 L 9.92,27.58 L 9.92,26.56 L 9.99,26.53 L 11.71,27.39 L 11.74,27.42 L 11.74,28.53 L 13.55,29.42 L 13.55,28.37 L 13.58,28.34 L 14.35,28.72 L 14.41,28.72 L 14.41,26.53 L 13.55,26.08 L 13.55,23.92 L 13.58,23.89 L 14.41,24.30 L 14.41,23.19 L 13.55,22.78 L 13.55,23.83 L 13.52,23.86 L 12.63,23.41 L 12.63,24.46 L 12.60,24.49 L 11.74,24.08 L 11.74,26.24 L 11.71,26.27 L 10.85,25.83 L 10.85,24.75 L 9.92,24.27 L 9.92,22.04 L 9.03,21.60 L 9.03,20.52 L 9.00,20.49 L 7.22,19.59 L 7.22,18.54 L 7.25,18.51 L 8.05,18.93 L 8.11,18.93 L 8.11,17.81 L 7.22,17.37 L 7.22,16.32 L 7.25,16.29 L 8.05,16.70 L 8.11,16.70 L 8.11,14.50 L 7.22,14.06 L 7.22,15.11 L 7.16,15.14 L 5.41,14.25 L 5.41,13.20 L 5.44,13.17 L 6.23,13.58 L 6.30,13.58 L 6.30,10.31 L 3.63,8.97 L 3.59,8.97 L 3.59,9.99 L 3.56,10.02 L 0.95,8.72 L 0.89,8.65 L 0.89,7.60 L 0.06,7.19 Z" fill="#3c6c0f" stroke="none" /><path d="M 8.17,26.72 L 8.11,26.72 L 8.11,27.74 L 8.08,27.77 L 7.22,27.36 L 7.22,28.44 L 8.05,28.85 L 8.11,28.85 L 8.11,27.86 L 8.14,27.83 L 8.97,28.25 L 9.03,28.25 L 9.03,27.17 Z" fill="#3d6d10" stroke="none" /><path d="M 9.92,26.50 L 9.92,27.61 L 10.85,28.09 L 10.85,29.17 L 11.67,29.58 L 11.74,29.65 L 11.74,30.70 L 14.35,32.00 L 14.41,32.00 L 14.41,30.95 L 13.55,30.50 L 13.55,29.42 L 10.88,28.09 L 10.85,28.06 L 10.85,26.94 Z" fill="#3d6d10" stroke="none" /><path d="M 4.49,24.91 L 4.49,25.99 L 5.34,26.43 L 5.41,26.43 L 5.41,25.35 L 4.55,24.91 Z" fill="#3d6d10" stroke="none" /><path d="M 6.30,21.38 L 6.30,22.49 L 7.16,22.90 L 7.22,22.97 L 7.22,24.05 L 8.05,24.46 L 8.11,24.46 L 8.11,23.44 L 8.14,23.41 L 8.97,23.83 L 9.03,23.83 L 9.03,22.71 L 8.11,22.27 L 8.11,23.32 L 8.05,23.35 L 7.28,22.97 L 7.22,22.90 L 7.22,21.82 L 6.36,21.38 Z" fill="#3d6d10" stroke="none" /><path d="M 4.55,18.26 L 4.49,18.26 L 4.49,19.28 L 4.45,19.31 L 3.59,18.89 L 3.59,19.94 L 3.56,19.98 L 2.74,19.56 L 2.67,19.56 L 2.67,20.61 L 2.64,20.64 L 1.84,20.23 L 1.78,20.23 L 1.78,21.25 L 1.75,21.28 L 0.95,20.90 L 0.89,20.83 L 0.89,19.75 L 0.06,19.34 L 0.00,19.34 L 0.00,20.42 L 0.83,20.83 L 0.89,20.90 L 0.89,21.98 L 0.92,22.01 L 1.78,22.43 L 1.78,21.38 L 1.84,21.34 L 3.59,22.23 L 3.59,23.28 L 3.56,23.32 L 2.67,22.87 L 2.67,23.98 L 3.53,24.43 L 3.59,24.43 L 3.59,23.38 L 3.63,23.35 L 5.41,24.24 L 5.41,23.13 L 3.59,22.20 L 3.59,21.18 L 3.66,21.15 L 4.49,21.57 L 4.49,20.52 L 4.52,20.49 L 5.34,20.90 L 5.41,20.90 L 5.41,19.85 L 5.44,19.82 L 6.23,20.23 L 6.30,20.23 L 6.30,19.15 Z" fill="#3d6d10" stroke="none" /><path d="M 0.00,17.11 L 0.00,18.23 L 0.83,18.64 L 0.89,18.64 L 0.89,17.53 L 0.06,17.11 Z" fill="#3d6d10" stroke="none" /><path d="M 6.30,16.92 L 6.30,18.04 L 7.16,18.48 L 7.22,18.48 L 7.22,17.37 Z" fill="#3d6d10" stroke="none" /><path d="M 12.66,15.65 L 12.63,15.65 L 12.63,17.81 L 12.60,17.84 L 10.85,16.99 L 10.85,18.10 L 12.56,18.96 L 12.63,18.96 L 12.63,17.94 L 12.66,17.91 L 13.49,18.32 L 13.55,18.32 L 13.55,16.10 Z" fill="#3d6d10" stroke="none" /><path d="M 2.67,12.91 L 2.67,14.00 L 3.53,14.44 L 3.59,14.44 L 3.59,13.36 L 2.74,12.91 Z" fill="#3d6d10" stroke="none" /><path d="M 9.03,12.76 L 9.03,13.87 L 9.86,14.28 L 9.92,14.28 L 9.92,13.20 Z" fill="#3d6d10" stroke="none" /><path d="M 6.30,12.50 L 6.30,13.55 L 6.27,13.58 L 5.47,13.17 L 5.41,13.17 L 5.41,14.28 L 6.23,14.70 L 6.30,14.70 L 6.30,13.65 L 6.33,13.61 L 8.05,14.47 L 8.11,14.54 L 8.11,17.84 L 8.97,18.26 L 9.03,18.32 L 9.03,19.34 L 9.00,19.37 L 8.17,18.96 L 8.11,18.96 L 8.11,20.07 L 9.03,20.52 L 9.03,19.47 L 9.10,19.44 L 10.85,20.33 L 10.85,21.38 L 10.82,21.41 L 9.92,20.96 L 9.92,24.30 L 11.74,25.19 L 11.74,21.92 L 11.77,21.88 L 13.55,22.78 L 13.55,20.55 L 11.80,19.66 L 11.74,19.66 L 11.74,20.71 L 11.71,20.74 L 10.85,20.29 L 10.85,19.18 L 9.10,18.32 L 9.03,18.26 L 9.03,16.13 L 9.07,16.10 L 9.86,16.51 L 9.92,16.51 L 9.92,15.40 L 8.17,14.54 L 8.11,14.47 L 8.11,13.39 L 8.08,13.36 L 6.36,12.50 Z" fill="#3d6d10" stroke="none" /><path d="M 2.67,10.69 L 2.67,11.80 L 3.59,12.25 L 3.59,11.13 L 2.74,10.69 Z" fill="#3d6d10" stroke="none" /><path d="M 0.00,10.47 L 0.00,11.58 L 0.83,11.99 L 0.89,11.99 L 0.89,10.88 L 0.06,10.47 Z" fill="#3d6d10" stroke="none" /><path d="M 6.30,10.34 L 6.30,11.39 L 8.05,12.28 L 8.11,12.28 L 8.11,11.23 L 6.36,10.34 Z" fill="#3d6d10" stroke="none" /><path d="M 2.67,8.52 L 2.67,9.57 L 3.53,10.02 L 3.59,10.02 L 3.59,8.97 L 2.74,8.52 Z" fill="#3d6d10" stroke="none" /><path d="M 0.89,7.63 L 0.89,8.68 L 1.78,9.13 L 1.78,8.05 L 0.95,7.63 Z" fill="#3d6d10" stroke="none" /><path d="M 0.89,21.98 L 0.89,23.09 L 1.78,23.54 L 1.78,22.43 Z" fill="#3d6d11" stroke="none" /><path d="M 13.55,17.24 L 13.55,18.35 L 14.41,18.77 L 14.41,17.65 L 13.61,17.24 Z" fill="#3d6d11" stroke="none" /><path d="M 4.49,16.03 L 4.49,18.26 L 5.41,18.70 L 5.41,17.65 L 5.44,17.62 L 6.30,18.04 L 6.30,16.92 L 4.55,16.03 Z" fill="#3d6d11" stroke="none" /><path d="M 4.49,13.81 L 4.49,14.92 L 5.41,15.36 L 5.41,14.25 Z" fill="#3d6d11" stroke="none" /><path d="M 8.11,12.31 L 8.11,13.39 L 8.97,13.84 L 9.03,13.84 L 9.03,12.76 L 8.17,12.31 Z" fill="#3d6d11" stroke="none" /><path d="M 6.30,11.39 L 6.30,12.50 L 7.22,12.95 L 7.22,11.83 Z" fill="#3d6d11" stroke="none" /><path d="M 13.55,28.31 L 13.55,30.54 L 14.41,30.95 L 14.41,28.72 Z" fill="#3e6d11" stroke="none" /><path d="M 8.11,24.49 L 8.11,25.61 L 9.03,26.05 L 9.03,24.94 L 8.17,24.49 Z" fill="#3e6d11" stroke="none" /><path d="M 4.49,23.79 L 4.49,24.91 L 5.41,25.35 L 5.41,24.24 L 4.55,23.79 Z" fill="#3e6d11" stroke="none" /><path d="M 6.30,23.57 L 6.30,24.68 L 7.16,25.13 L 7.22,25.13 L 7.22,24.02 Z" fill="#3e6d11" stroke="none" /><path d="M 0.00,22.65 L 0.00,23.76 L 0.83,24.17 L 0.89,24.17 L 0.89,23.09 Z" fill="#3e6d11" stroke="none" /><path d="M 11.74,22.97 L 11.74,24.08 L 11.77,24.11 L 12.63,24.52 L 12.63,23.48 L 12.69,23.44 L 13.55,23.89 L 13.55,25.00 L 14.41,25.42 L 14.41,24.30 L 13.55,23.86 L 13.55,22.78 L 13.52,22.74 L 12.69,22.33 L 12.63,22.33 L 12.63,23.35 L 12.60,23.38 Z" fill="#3e6d11" stroke="none" /><path d="M 9.07,20.52 L 9.03,20.52 L 9.03,21.57 L 9.00,21.60 L 8.11,21.15 L 8.11,22.27 L 8.97,22.71 L 9.03,22.71 L 9.03,21.66 L 9.07,21.63 L 9.86,22.04 L 9.92,22.04 L 9.92,20.96 Z" fill="#3e6d11" stroke="none" /><path d="M 6.33,19.15 L 6.30,19.15 L 6.30,20.20 L 6.27,20.23 L 5.47,19.82 L 5.41,19.82 L 5.41,20.93 L 6.23,21.34 L 6.30,21.34 L 6.30,20.29 L 6.33,20.26 L 7.22,20.71 L 7.22,19.59 Z" fill="#3e6d11" stroke="none" /><path d="M 12.63,18.99 L 12.63,20.10 L 13.55,20.55 L 13.55,19.44 L 12.69,18.99 Z" fill="#3e6d11" stroke="none" /><path d="M 2.67,18.45 L 2.67,19.56 L 3.59,20.01 L 3.59,18.89 L 2.74,18.45 Z" fill="#3e6d11" stroke="none" /><path d="M 1.78,15.78 L 1.78,16.89 L 2.67,17.34 L 2.67,16.22 Z" fill="#3e6d11" stroke="none" /><path d="M 6.30,13.61 L 6.30,14.73 L 7.22,15.17 L 7.22,14.06 L 6.36,13.61 Z" fill="#3e6d11" stroke="none" /><path d="M 4.49,11.58 L 4.49,12.69 L 5.34,13.14 L 5.41,13.14 L 5.41,12.02 Z" fill="#3e6d11" stroke="none" /><path d="M 0.89,10.91 L 0.89,12.02 L 1.78,12.47 L 1.78,13.55 L 2.67,14.00 L 2.67,12.88 L 1.78,12.44 L 1.78,11.32 L 0.95,10.91 Z" fill="#3e6d11" stroke="none" /><path d="M 1.78,8.08 L 1.78,9.13 L 2.67,9.57 L 2.67,8.49 L 1.84,8.08 Z" fill="#3e6d11" stroke="none" /><path d="M 18.89,12.12 L 18.07,11.71 L 18.00,11.71 L 16.22,12.60 L 16.22,12.63 L 17.05,13.04 L 17.11,13.04 L 18.89,12.15 Z" fill="#5ca518" stroke="none" /><path d="M 14.38,11.71 L 13.52,12.15 L 13.52,12.18 L 14.35,12.60 L 14.31,12.66 L 13.52,13.04 L 13.52,13.07 L 14.38,13.52 L 14.44,13.52 L 15.30,13.07 L 15.30,13.04 L 14.47,12.63 L 14.50,12.56 L 15.30,12.18 L 15.30,12.15 L 14.44,11.71 Z" fill="#5ca518" stroke="none" /><path d="M 10.82,10.78 L 10.85,10.85 L 11.67,11.26 L 12.60,10.82 L 12.60,10.78 L 11.77,10.37 L 11.64,10.37 Z" fill="#5ca518" stroke="none" /><path d="M 7.25,10.75 L 7.25,10.82 L 8.97,11.67 L 9.10,11.67 L 9.86,11.29 L 9.86,11.23 L 8.14,10.37 L 8.02,10.37 Z" fill="#5ca518" stroke="none" /><path d="M 20.74,10.34 L 19.85,9.89 L 18.96,10.34 L 18.89,10.34 L 18.00,9.89 L 16.25,10.78 L 16.19,10.78 L 15.30,10.34 L 14.41,10.78 L 14.41,10.82 L 15.30,11.26 L 16.19,10.82 L 16.25,10.82 L 17.15,11.26 L 18.89,10.37 L 18.96,10.37 L 19.85,10.82 L 20.74,10.37 Z" fill="#5ca518" stroke="none" /><path d="M 8.11,9.42 L 8.11,9.48 L 8.94,9.89 L 9.03,9.89 L 9.86,9.48 L 9.86,9.42 L 9.03,9.00 L 8.94,9.00 Z" fill="#5ca518" stroke="none" /><path d="M 4.52,9.42 L 4.52,9.45 L 5.34,9.86 L 5.47,9.86 L 6.23,9.48 L 6.23,9.42 L 5.41,9.00 L 5.31,9.00 Z" fill="#5ca518" stroke="none" /><path d="M 21.66,8.08 L 21.66,8.11 L 22.49,8.52 L 22.62,8.52 L 23.44,8.11 L 23.41,8.05 L 22.58,7.63 L 22.52,7.63 Z" fill="#5ca518" stroke="none" /><path d="M 17.11,8.52 L 16.29,8.11 L 16.16,8.11 L 15.36,8.52 L 15.27,8.52 L 14.50,8.14 L 14.47,8.08 L 15.30,7.67 L 15.30,7.63 L 14.44,7.19 L 14.38,7.19 L 13.52,7.63 L 13.52,7.67 L 14.31,8.05 L 14.35,8.08 L 14.31,8.14 L 13.55,8.52 L 13.46,8.52 L 12.66,8.11 L 12.53,8.11 L 10.82,8.97 L 10.82,9.00 L 11.67,9.45 L 11.74,9.45 L 13.49,8.56 L 14.38,9.00 L 14.44,9.00 L 15.30,8.56 L 16.22,9.00 L 17.11,8.56 Z" fill="#5ca518" stroke="none" /><path d="M 6.30,7.60 L 6.30,7.67 L 7.13,8.08 L 7.22,8.08 L 8.05,7.67 L 8.05,7.60 L 7.22,7.19 L 7.13,7.19 Z" fill="#5ca518" stroke="none" /><path d="M 23.48,7.16 L 23.51,7.22 L 24.33,7.63 L 24.40,7.63 L 25.26,7.19 L 25.26,7.16 L 24.43,6.74 L 24.30,6.74 Z" fill="#5ca518" stroke="none" /><path d="M 4.45,6.71 L 4.45,6.74 L 5.34,7.19 L 6.27,6.74 L 6.27,6.71 L 5.38,6.27 Z" fill="#5ca518" stroke="none" /><path d="M 18.04,6.27 L 18.04,6.30 L 19.82,7.19 L 20.74,6.74 L 20.74,6.71 L 18.96,5.82 Z" fill="#5ca518" stroke="none" /><path d="M 10.78,6.27 L 9.86,5.82 L 8.08,6.71 L 8.08,6.74 L 9.00,7.19 L 10.78,6.30 Z" fill="#5ca518" stroke="none" /><path d="M 16.25,5.34 L 16.25,5.41 L 17.08,5.82 L 17.18,5.82 L 18.00,5.41 L 18.00,5.34 L 17.18,4.93 L 17.08,4.93 Z" fill="#5ca518" stroke="none" /><path d="M 3.59,5.38 L 3.59,5.41 L 4.42,5.82 L 4.49,5.82 L 5.34,5.38 L 6.23,5.82 L 6.30,5.82 L 7.13,5.41 L 7.13,5.34 L 6.30,4.93 L 6.20,4.93 L 5.41,5.34 L 5.31,5.34 L 4.49,4.93 Z" fill="#5ca518" stroke="none" /><path d="M 9.86,4.90 L 9.03,4.49 L 8.91,4.49 L 7.19,5.34 L 7.19,5.41 L 8.02,5.82 L 8.11,5.82 L 9.83,4.96 Z" fill="#5ca518" stroke="none" /><path d="M 12.60,4.45 L 12.60,4.49 L 13.49,4.93 L 14.41,4.49 L 14.41,4.45 L 13.52,4.01 Z" fill="#5ca518" stroke="none" /><path d="M 9.89,4.01 L 9.89,4.04 L 10.72,4.45 L 10.85,4.45 L 11.67,4.04 L 11.64,3.98 L 10.82,3.56 L 10.75,3.56 Z" fill="#5ca518" stroke="none" /><path d="M 18.96,4.01 L 18.96,4.04 L 21.63,5.38 L 21.69,5.38 L 22.55,4.93 L 23.44,5.38 L 24.30,4.96 L 24.27,4.90 L 23.44,4.49 L 22.62,4.90 L 22.52,4.90 L 20.87,4.07 L 20.80,4.01 L 20.83,3.98 L 21.57,3.63 L 21.60,3.56 L 20.77,3.15 L 20.64,3.15 Z" fill="#5ca518" stroke="none" /><path d="M 9.86,3.09 L 9.00,2.67 L 8.11,3.12 L 8.11,3.15 L 8.94,3.56 L 9.00,3.56 L 9.83,3.15 Z" fill="#5ca518" stroke="none" /><path d="M 15.24,0.38 L 14.47,0.00 L 14.35,0.00 L 12.69,0.83 L 12.66,0.89 L 13.52,1.30 L 15.24,0.45 Z" fill="#5ca518" stroke="none" /><path d="M 12.66,13.49 L 12.66,13.52 L 13.49,13.93 L 13.61,13.93 L 14.38,13.55 L 14.38,13.49 L 13.55,13.07 L 13.46,13.07 Z" fill="#5ca618" stroke="none" /><path d="M 18.07,11.67 L 18.07,11.74 L 18.83,12.12 L 18.96,12.12 L 19.79,11.71 L 19.79,11.67 L 18.96,11.26 L 18.89,11.26 Z" fill="#5ca618" stroke="none" /><path d="M 16.25,11.67 L 16.25,11.74 L 17.08,12.15 L 17.18,12.15 L 18.00,11.74 L 18.00,11.67 L 17.18,11.26 L 17.08,11.26 Z" fill="#5ca618" stroke="none" /><path d="M 14.44,11.67 L 14.44,11.74 L 15.27,12.15 L 15.36,12.15 L 16.19,11.74 L 16.19,11.67 L 15.36,11.26 L 15.27,11.26 Z" fill="#5ca618" stroke="none" /><path d="M 9.03,11.67 L 9.03,11.71 L 10.82,12.60 L 12.56,11.74 L 12.56,11.67 L 11.74,11.26 L 11.64,11.26 L 10.78,11.71 L 9.92,11.26 L 9.86,11.26 Z" fill="#5ca618" stroke="none" /><path d="M 10.82,9.89 L 10.82,9.92 L 11.64,10.34 L 11.77,10.34 L 12.60,9.92 L 12.56,9.86 L 11.74,9.45 L 11.67,9.45 Z" fill="#5ca618" stroke="none" /><path d="M 17.15,9.42 L 17.15,9.48 L 17.97,9.89 L 18.07,9.89 L 18.89,9.48 L 18.89,9.42 L 18.07,9.00 L 17.97,9.00 Z" fill="#5ca618" stroke="none" /><path d="M 14.38,9.00 L 13.55,9.42 L 13.55,9.48 L 14.38,9.89 L 13.55,10.31 L 13.52,10.37 L 14.35,10.78 L 14.47,10.78 L 15.30,10.37 L 15.27,10.31 L 14.44,9.89 L 15.27,9.48 L 15.27,9.42 L 14.44,9.00 Z" fill="#5ca618" stroke="none" /><path d="M 2.70,8.49 L 2.74,8.56 L 3.56,8.97 L 3.63,8.97 L 4.45,8.56 L 4.45,8.52 L 3.56,8.08 Z" fill="#5ca618" stroke="none" /><path d="M 23.48,8.08 L 23.48,8.11 L 24.30,8.52 L 24.43,8.52 L 25.26,8.11 L 25.22,8.05 L 24.40,7.63 L 24.33,7.63 Z" fill="#5ca618" stroke="none" /><path d="M 18.00,8.08 L 17.11,7.63 L 16.22,8.08 L 16.22,8.11 L 17.05,8.52 L 17.18,8.52 L 18.00,8.11 Z" fill="#5ca618" stroke="none" /><path d="M 27.10,7.16 L 27.13,7.22 L 27.90,7.60 L 27.99,7.60 L 28.79,7.19 L 28.79,7.16 L 27.96,6.74 Z" fill="#5ca618" stroke="none" /><path d="M 21.66,7.16 L 21.69,7.22 L 22.52,7.63 L 22.58,7.63 L 23.44,7.19 L 23.44,7.16 L 22.62,6.74 L 22.49,6.74 Z" fill="#5ca618" stroke="none" /><path d="M 18.07,7.16 L 18.07,7.22 L 18.89,7.63 L 18.96,7.63 L 19.82,7.19 L 19.82,7.16 L 18.99,6.74 L 18.89,6.74 Z" fill="#5ca618" stroke="none" /><path d="M 14.44,7.16 L 14.44,7.22 L 15.27,7.63 L 15.36,7.63 L 16.19,7.22 L 16.19,7.16 L 15.36,6.74 L 15.27,6.74 Z" fill="#5ca618" stroke="none" /><path d="M 3.56,7.16 L 3.59,7.22 L 4.42,7.63 L 4.49,7.63 L 5.34,7.19 L 5.34,7.16 L 4.52,6.74 L 4.39,6.74 Z" fill="#5ca618" stroke="none" /><path d="M 6.27,6.71 L 6.27,6.74 L 8.05,7.63 L 8.11,7.63 L 8.97,7.19 L 8.97,7.16 L 7.19,6.27 Z" fill="#5ca618" stroke="none" /><path d="M 25.29,6.27 L 25.29,6.30 L 26.12,6.71 L 26.24,6.71 L 27.01,6.33 L 27.01,6.27 L 26.18,5.85 L 26.08,5.85 Z" fill="#5ca618" stroke="none" /><path d="M 10.78,6.27 L 10.78,6.30 L 12.56,7.19 L 11.71,7.63 L 11.71,7.67 L 12.53,8.08 L 12.66,8.08 L 14.38,7.22 L 14.38,7.16 L 11.71,5.82 Z" fill="#5ca618" stroke="none" /><path d="M 23.44,5.34 L 22.62,4.93 L 22.52,4.93 L 20.80,5.79 L 20.77,5.85 L 21.60,6.27 L 21.69,6.27 L 23.41,5.41 Z" fill="#5ca618" stroke="none" /><path d="M 18.07,5.34 L 18.07,5.41 L 18.89,5.82 L 18.99,5.82 L 19.82,5.41 L 19.82,5.34 L 18.99,4.93 L 18.89,4.93 Z" fill="#5ca618" stroke="none" /><path d="M 9.00,5.34 L 9.00,5.41 L 9.83,5.82 L 9.92,5.82 L 10.75,5.41 L 10.75,5.34 L 9.92,4.93 L 9.83,4.93 Z" fill="#5ca618" stroke="none" /><path d="M 11.71,4.90 L 11.74,4.96 L 12.56,5.38 L 12.63,5.38 L 13.49,4.93 L 13.49,4.90 L 12.66,4.49 L 12.53,4.49 Z" fill="#5ca618" stroke="none" /><path d="M 13.49,3.09 L 11.71,2.19 L 10.82,2.64 L 10.75,2.64 L 9.96,2.23 L 9.89,2.23 L 9.03,2.67 L 9.03,2.70 L 9.77,3.05 L 9.83,3.12 L 9.80,3.15 L 8.97,3.56 L 8.17,3.15 L 8.05,3.15 L 7.22,3.56 L 7.25,3.63 L 7.98,3.98 L 8.02,4.01 L 7.95,4.07 L 7.19,4.45 L 7.13,4.45 L 6.33,4.04 L 6.27,4.04 L 5.44,4.45 L 5.41,4.52 L 6.27,4.93 L 7.13,4.49 L 7.19,4.49 L 8.08,4.93 L 10.75,3.59 L 10.75,3.53 L 9.92,3.12 L 9.99,3.05 L 10.75,2.67 L 10.82,2.67 L 12.56,3.56 L 12.63,3.56 L 13.46,3.15 Z" fill="#5ca618" stroke="none" /><path d="M 11.74,1.30 L 11.74,1.34 L 13.46,2.19 L 13.55,2.19 L 15.33,1.30 L 17.08,2.19 L 17.02,2.26 L 16.22,2.64 L 16.22,2.67 L 17.11,3.12 L 18.00,2.67 L 18.07,2.67 L 18.83,3.05 L 18.89,3.12 L 18.07,3.53 L 18.07,3.59 L 18.89,4.01 L 18.99,4.01 L 19.82,3.59 L 19.82,3.53 L 18.99,3.12 L 19.05,3.05 L 19.79,2.70 L 19.75,2.64 L 18.93,2.23 L 18.86,2.23 L 18.07,2.64 L 18.00,2.64 L 17.24,2.26 L 17.18,2.19 L 17.94,1.81 L 17.97,1.75 L 16.19,0.86 L 15.36,1.27 L 15.27,1.27 L 14.47,0.86 L 14.35,0.86 L 13.55,1.27 L 13.46,1.27 L 12.63,0.86 Z" fill="#5ca618" stroke="none" /><path d="M 11.77,13.01 L 11.77,13.07 L 12.60,13.49 L 12.69,13.49 L 13.49,13.07 L 13.49,13.04 L 12.66,12.63 L 12.53,12.63 Z" fill="#5da618" stroke="none" /><path d="M 12.63,9.89 L 12.63,9.92 L 13.46,10.34 L 13.55,10.34 L 14.38,9.92 L 14.38,9.86 L 13.55,9.45 L 13.49,9.45 Z" fill="#5da618" stroke="none" /><path d="M 22.58,9.42 L 22.58,9.48 L 23.35,9.86 L 23.48,9.86 L 24.30,9.45 L 24.27,9.38 L 23.51,9.00 L 23.41,9.00 Z" fill="#5da618" stroke="none" /><path d="M 6.30,9.42 L 6.30,9.48 L 7.13,9.89 L 7.22,9.89 L 8.05,9.48 L 8.05,9.42 L 7.22,9.00 L 7.13,9.00 Z" fill="#5da618" stroke="none" /><path d="M 17.11,8.52 L 17.11,8.56 L 18.00,9.00 L 18.93,8.56 L 18.93,8.52 L 18.04,8.08 Z" fill="#5da618" stroke="none" /><path d="M 4.45,8.52 L 4.45,8.56 L 5.34,9.00 L 6.27,8.56 L 6.27,8.52 L 5.38,8.08 Z" fill="#5da618" stroke="none" /><path d="M 14.41,8.08 L 14.41,8.11 L 15.30,8.56 L 16.22,8.11 L 16.22,8.08 L 15.33,7.63 Z" fill="#5da618" stroke="none" /><path d="M 18.96,5.82 L 18.96,5.85 L 19.79,6.27 L 19.91,6.27 L 20.74,5.85 L 20.71,5.79 L 19.88,5.38 L 19.82,5.38 Z" fill="#5da618" stroke="none" /><path d="M 17.15,4.90 L 17.18,4.96 L 18.00,5.38 L 18.07,5.38 L 18.93,4.93 L 18.93,4.90 L 18.10,4.49 L 17.97,4.49 Z" fill="#5da618" stroke="none" /><path d="M 17.15,3.09 L 17.18,3.15 L 18.00,3.56 L 18.07,3.56 L 18.93,3.12 L 18.93,3.09 L 18.10,2.67 L 17.97,2.67 Z" fill="#5da618" stroke="none" /><path d="M 11.71,2.19 L 11.71,2.23 L 12.53,2.64 L 12.66,2.64 L 13.49,2.23 L 13.46,2.16 L 12.63,1.75 L 12.56,1.75 Z" fill="#5da618" stroke="none" /><path d="M 18.96,11.23 L 18.96,11.29 L 19.72,11.67 L 19.85,11.67 L 20.68,11.26 L 20.64,11.20 L 19.88,10.82 L 19.79,10.82 Z" fill="#5da718" stroke="none" /><path d="M 17.11,11.23 L 16.29,10.82 L 16.16,10.82 L 15.36,11.23 L 15.27,11.23 L 14.47,10.82 L 14.35,10.82 L 12.63,11.67 L 12.63,11.74 L 13.46,12.15 L 13.55,12.15 L 15.30,11.26 L 16.19,11.71 L 14.41,12.60 L 14.41,12.63 L 15.20,13.01 L 15.27,13.07 L 13.55,13.93 L 13.55,13.96 L 14.38,14.38 L 14.44,14.38 L 17.05,13.07 L 17.05,13.01 L 16.32,12.66 L 16.29,12.60 L 17.11,12.18 L 17.11,12.15 L 16.25,11.71 L 17.08,11.29 Z" fill="#5da718" stroke="none" /><path d="M 13.49,10.34 L 12.60,9.89 L 11.71,10.34 L 11.71,10.37 L 12.53,10.78 L 12.66,10.78 L 13.49,10.37 Z" fill="#5da718" stroke="none" /><path d="M 6.33,10.31 L 6.36,10.37 L 7.19,10.78 L 7.25,10.78 L 8.08,10.37 L 8.08,10.34 L 7.19,9.89 Z" fill="#5da718" stroke="none" /><path d="M 14.44,9.86 L 14.44,9.92 L 15.27,10.34 L 15.36,10.34 L 16.19,9.92 L 16.16,9.86 L 15.33,9.45 L 15.27,9.45 Z" fill="#5da718" stroke="none" /><path d="M 16.22,8.97 L 16.25,9.03 L 17.08,9.45 L 17.15,9.45 L 18.00,9.00 L 18.00,8.97 L 17.18,8.56 L 17.05,8.56 Z" fill="#5da718" stroke="none" /><path d="M 9.00,7.16 L 9.03,7.22 L 10.75,8.08 L 10.85,8.08 L 11.67,7.67 L 11.64,7.60 L 9.92,6.74 L 9.83,6.74 Z" fill="#5da718" stroke="none" /><path d="M 8.08,8.56 L 8.08,8.52 L 6.30,7.63 L 7.16,7.19 L 7.16,7.16 L 6.33,6.74 L 6.20,6.74 L 4.45,7.63 L 3.59,7.19 L 3.50,7.19 L 2.67,7.60 L 2.67,7.67 L 4.39,8.52 L 4.36,8.59 L 3.63,8.94 L 3.63,9.00 L 4.45,9.42 L 4.55,9.42 L 5.38,9.00 L 6.23,9.45 L 6.30,9.45 Z" fill="#5da718" stroke="none" /><path d="M 15.33,6.71 L 15.36,6.78 L 16.19,7.19 L 16.25,7.19 L 17.11,6.74 L 17.11,6.71 L 16.29,6.30 L 16.16,6.30 Z" fill="#5da718" stroke="none" /><path d="M 2.70,5.82 L 2.74,5.88 L 3.50,6.27 L 3.59,6.27 L 4.42,5.85 L 4.42,5.79 L 3.66,5.41 L 3.53,5.41 Z" fill="#5da718" stroke="none" /><path d="M 17.15,5.82 L 17.15,5.85 L 17.97,6.27 L 18.10,6.27 L 18.93,5.85 L 18.89,5.79 L 18.07,5.38 L 18.00,5.38 Z" fill="#5da718" stroke="none" /><path d="M 6.30,5.79 L 6.30,5.85 L 8.02,6.71 L 8.14,6.71 L 8.97,6.30 L 8.97,6.27 L 7.19,5.38 L 7.13,5.38 Z" fill="#5da718" stroke="none" /><path d="M 22.58,5.79 L 22.58,5.85 L 23.41,6.27 L 23.35,6.33 L 22.55,6.71 L 22.55,6.74 L 23.44,7.19 L 24.33,6.74 L 24.40,6.74 L 25.16,7.13 L 25.22,7.19 L 24.40,7.60 L 24.40,7.67 L 25.22,8.08 L 25.32,8.08 L 27.93,6.78 L 27.90,6.71 L 27.07,6.30 L 27.01,6.30 L 26.21,6.71 L 26.15,6.71 L 25.29,6.27 L 24.40,6.71 L 24.33,6.71 L 23.57,6.33 L 23.51,6.27 L 23.54,6.23 L 25.22,5.41 L 25.22,5.38 L 24.33,4.93 Z" fill="#5da718" stroke="none" /><path d="M 17.15,7.63 L 17.15,7.67 L 18.86,8.52 L 18.99,8.52 L 19.79,8.11 L 19.88,8.11 L 20.64,8.49 L 20.68,8.52 L 20.64,8.59 L 19.85,8.97 L 19.85,9.00 L 22.49,10.34 L 23.41,9.89 L 23.41,9.86 L 22.58,9.45 L 23.44,9.00 L 24.27,9.42 L 24.37,9.42 L 25.19,9.00 L 25.19,8.94 L 23.48,8.08 L 21.69,8.97 L 21.60,8.97 L 20.83,8.59 L 20.80,8.56 L 20.83,8.49 L 22.52,7.67 L 22.52,7.60 L 20.80,6.74 L 20.83,6.68 L 21.63,6.30 L 21.60,6.23 L 20.87,5.88 L 20.80,5.82 L 21.63,5.41 L 21.63,5.34 L 20.80,4.93 L 20.71,4.93 L 19.88,5.34 L 19.88,5.41 L 20.71,5.82 L 20.64,5.88 L 19.85,6.27 L 19.85,6.30 L 20.68,6.71 L 20.64,6.78 L 19.85,7.16 L 19.88,7.22 L 20.68,7.60 L 20.71,7.63 L 20.68,7.67 L 19.82,8.08 L 18.07,7.19 L 18.00,7.19 Z" fill="#5da718" stroke="none" /><path d="M 5.41,4.49 L 4.52,4.93 L 4.52,4.96 L 5.25,5.31 L 5.31,5.38 L 4.49,5.79 L 4.49,5.85 L 5.31,6.27 L 5.41,6.27 L 6.23,5.85 L 6.23,5.79 L 5.41,5.38 L 5.47,5.31 L 6.20,4.96 L 6.23,4.90 Z" fill="#5da718" stroke="none" /><path d="M 8.97,4.45 L 8.97,4.49 L 9.86,4.93 L 10.75,4.49 L 10.82,4.49 L 11.58,4.87 L 11.64,4.93 L 11.61,4.96 L 10.82,5.34 L 10.82,5.41 L 11.64,5.82 L 11.74,5.82 L 12.56,5.41 L 12.56,5.34 L 11.74,4.93 L 11.80,4.87 L 12.60,4.49 L 12.60,4.45 L 11.71,4.01 L 10.82,4.45 L 10.75,4.45 L 9.89,4.01 Z" fill="#5da718" stroke="none" /><path d="M 20.77,4.01 L 20.77,4.04 L 22.55,4.93 L 23.41,4.52 L 23.38,4.45 L 21.66,3.59 L 21.57,3.59 Z" fill="#5da718" stroke="none" /><path d="M 16.25,3.53 L 16.25,3.59 L 18.93,4.93 L 19.85,4.49 L 19.85,4.45 L 17.18,3.12 L 17.08,3.12 Z" fill="#5da718" stroke="none" /><path d="M 14.44,1.75 L 14.38,1.75 L 13.52,2.19 L 13.52,2.23 L 14.35,2.64 L 14.31,2.70 L 13.52,3.09 L 13.55,3.15 L 14.38,3.56 L 13.52,4.01 L 13.52,4.04 L 14.31,4.42 L 14.35,4.49 L 12.63,5.34 L 12.63,5.41 L 13.46,5.82 L 13.39,5.88 L 12.60,6.27 L 12.60,6.30 L 13.49,6.74 L 14.41,6.30 L 14.41,6.27 L 13.61,5.88 L 13.55,5.82 L 15.30,4.93 L 15.30,4.90 L 14.47,4.49 L 14.50,4.42 L 15.30,4.04 L 15.30,4.01 L 14.44,3.56 L 16.22,2.67 L 16.22,2.64 Z" fill="#5da718" stroke="none" /><path d="M 12.56,1.72 L 11.80,1.34 L 11.67,1.34 L 9.96,2.19 L 9.96,2.26 L 10.72,2.64 L 10.85,2.64 L 12.56,1.78 Z" fill="#5da718" stroke="none" /><path d="M 17.15,11.23 L 17.18,11.29 L 18.00,11.71 L 18.07,11.71 L 18.89,11.29 L 18.89,11.23 L 18.07,10.82 L 17.97,10.82 Z" fill="#5ea819" stroke="none" /><path d="M 13.49,10.34 L 11.71,11.23 L 11.74,11.29 L 12.56,11.71 L 11.74,12.12 L 11.71,12.18 L 13.52,13.07 L 14.41,12.63 L 14.41,12.60 L 12.63,11.71 L 14.41,10.82 L 14.41,10.78 Z" fill="#5ea819" stroke="none" /><path d="M 22.49,10.31 L 21.63,9.89 L 19.85,10.78 L 19.85,10.82 L 20.64,11.23 L 20.74,11.23 L 22.46,10.37 Z" fill="#5ea819" stroke="none" /><path d="M 26.12,8.49 L 25.26,8.08 L 24.37,8.52 L 24.37,8.56 L 25.19,8.97 L 25.26,8.97 L 26.08,8.56 Z" fill="#5ea819" stroke="none" /><path d="M 20.74,8.52 L 19.85,8.08 L 18.93,8.52 L 18.93,8.56 L 19.72,8.94 L 19.79,9.00 L 18.04,9.89 L 15.36,8.56 L 15.27,8.56 L 14.44,8.97 L 14.44,9.03 L 16.13,9.86 L 16.16,9.89 L 16.10,9.96 L 15.36,10.31 L 15.33,10.37 L 16.16,10.78 L 16.29,10.78 L 17.97,9.92 L 18.07,9.92 L 18.86,10.34 L 18.99,10.34 L 20.71,9.48 L 20.71,9.42 L 19.88,9.00 L 19.94,8.94 L 20.74,8.56 Z" fill="#5ea819" stroke="none" /><path d="M 14.41,8.08 L 13.52,7.63 L 12.60,8.08 L 12.60,8.11 L 13.39,8.49 L 13.46,8.56 L 11.74,9.42 L 11.74,9.48 L 12.56,9.89 L 12.66,9.89 L 14.38,9.03 L 14.38,8.97 L 13.55,8.56 L 13.61,8.49 L 14.41,8.11 Z" fill="#5ea819" stroke="none" /><path d="M 26.21,7.60 L 26.21,7.67 L 26.97,8.05 L 27.10,8.05 L 27.93,7.63 L 27.90,7.57 L 27.13,7.19 L 27.04,7.19 Z" fill="#5ea819" stroke="none" /><path d="M 22.58,7.60 L 22.58,7.67 L 23.41,8.08 L 23.51,8.08 L 24.33,7.67 L 24.33,7.60 L 23.51,7.19 L 23.41,7.19 Z" fill="#5ea819" stroke="none" /><path d="M 15.33,7.63 L 15.33,7.67 L 16.16,8.08 L 16.29,8.08 L 17.11,7.67 L 17.08,7.60 L 16.25,7.19 L 16.19,7.19 Z" fill="#5ea819" stroke="none" /><path d="M 7.19,8.08 L 7.19,8.11 L 9.86,9.45 L 8.08,10.34 L 8.08,10.37 L 9.86,11.26 L 9.92,11.26 L 11.71,10.37 L 11.71,10.34 L 10.91,9.96 L 10.85,9.89 L 11.67,9.48 L 11.67,9.42 L 10.85,9.00 L 10.91,8.94 L 11.71,8.56 L 11.71,8.52 L 9.03,7.19 L 8.94,7.19 Z" fill="#5ea819" stroke="none" /><path d="M 20.74,6.71 L 20.74,6.74 L 21.63,7.19 L 22.55,6.74 L 22.55,6.71 L 21.66,6.27 Z" fill="#5ea819" stroke="none" /><path d="M 7.16,6.27 L 6.30,5.82 L 6.23,5.82 L 5.38,6.27 L 4.49,5.82 L 4.42,5.82 L 3.56,6.27 L 2.74,5.85 L 2.64,5.85 L 0.03,7.16 L 0.03,7.19 L 0.83,7.60 L 0.92,7.60 L 1.75,7.19 L 2.61,7.63 L 2.67,7.63 L 5.31,6.30 L 5.41,6.30 L 6.20,6.71 L 6.33,6.71 L 7.16,6.30 Z" fill="#5ea819" stroke="none" /><path d="M 24.40,5.79 L 24.40,5.85 L 25.22,6.27 L 25.32,6.27 L 26.12,5.85 L 26.12,5.82 L 25.29,5.41 L 25.16,5.41 Z" fill="#5ea819" stroke="none" /><path d="M 9.89,6.74 L 10.75,7.19 L 10.82,7.19 L 11.67,6.74 L 11.67,6.71 L 10.88,6.33 L 10.85,6.30 L 10.88,6.23 L 11.64,5.85 L 11.74,5.85 L 12.53,6.27 L 12.66,6.27 L 13.49,5.85 L 13.49,5.82 L 12.63,5.38 L 12.56,5.38 L 11.71,5.82 L 10.82,5.38 L 10.75,5.38 L 9.89,5.82 L 9.89,5.85 L 10.72,6.27 L 10.69,6.33 L 9.89,6.71 Z" fill="#5ea819" stroke="none" /><path d="M 7.25,3.59 L 7.16,3.59 L 6.33,4.01 L 6.33,4.07 L 7.06,4.42 L 7.09,4.49 L 6.27,4.90 L 6.27,4.93 L 7.13,5.38 L 7.19,5.38 L 8.05,4.93 L 8.05,4.90 L 7.22,4.49 L 7.25,4.42 L 8.05,4.04 L 8.02,3.98 Z" fill="#5ea819" stroke="none" /><path d="M 18.96,3.09 L 18.99,3.15 L 19.82,3.56 L 19.88,3.56 L 20.71,3.15 L 20.71,3.12 L 19.82,2.67 Z" fill="#5ea819" stroke="none" /><path d="M 9.89,3.09 L 9.92,3.15 L 10.75,3.56 L 10.82,3.56 L 11.67,3.12 L 11.67,3.09 L 10.85,2.67 L 10.72,2.67 Z" fill="#5ea819" stroke="none" /><path d="M 14.41,2.64 L 13.52,2.19 L 12.60,2.64 L 12.60,2.67 L 13.39,3.05 L 13.46,3.12 L 11.74,3.98 L 11.71,4.04 L 12.53,4.45 L 12.66,4.45 L 14.38,3.59 L 14.38,3.53 L 13.55,3.12 L 13.61,3.05 L 14.41,2.67 Z" fill="#5ea819" stroke="none" /><path d="M 18.86,2.19 L 18.04,1.78 L 17.94,1.78 L 17.11,2.19 L 16.25,1.75 L 16.19,1.75 L 15.36,2.16 L 15.33,2.23 L 16.13,2.61 L 16.16,2.67 L 14.44,3.53 L 14.44,3.59 L 15.27,4.01 L 15.20,4.07 L 14.41,4.45 L 14.41,4.49 L 15.20,4.87 L 15.27,4.93 L 14.44,5.34 L 14.44,5.41 L 15.27,5.82 L 15.20,5.88 L 14.41,6.27 L 14.41,6.30 L 15.33,6.74 L 17.11,5.85 L 17.08,5.79 L 16.25,5.38 L 17.11,4.93 L 17.11,4.90 L 16.29,4.49 L 16.32,4.42 L 17.11,4.04 L 17.08,3.98 L 16.25,3.56 L 17.11,3.12 L 17.11,3.09 L 16.32,2.70 L 16.29,2.64 L 17.08,2.23 L 17.18,2.23 L 17.97,2.64 L 18.10,2.64 L 18.86,2.26 Z" fill="#5ea819" stroke="none" /><path d="M 10.85,12.56 L 10.88,12.63 L 11.71,13.04 L 11.77,13.04 L 12.60,12.63 L 12.60,12.60 L 11.71,12.15 Z" fill="#5ea81a" stroke="none" /><path d="M 18.04,10.78 L 18.07,10.85 L 18.89,11.26 L 18.96,11.26 L 19.82,10.82 L 19.82,10.78 L 18.99,10.37 L 18.86,10.37 Z" fill="#5ea81a" stroke="none" /><path d="M 19.85,9.89 L 19.85,9.92 L 20.68,10.34 L 20.80,10.34 L 21.63,9.92 L 21.60,9.86 L 20.77,9.45 L 20.71,9.45 Z" fill="#5ea81a" stroke="none" /><path d="M 18.96,7.60 L 18.96,7.67 L 19.79,8.08 L 19.88,8.08 L 20.71,7.67 L 20.71,7.60 L 19.88,7.19 L 19.79,7.19 Z" fill="#5ea81a" stroke="none" /><path d="M 16.22,6.27 L 16.22,6.30 L 17.02,6.68 L 17.08,6.74 L 16.25,7.16 L 16.25,7.22 L 17.08,7.63 L 17.18,7.63 L 18.93,6.74 L 18.93,6.71 L 17.15,5.82 Z" fill="#5ea81a" stroke="none" /><path d="M 14.44,1.72 L 14.44,1.78 L 15.27,2.19 L 15.36,2.19 L 16.19,1.78 L 16.19,1.72 L 15.36,1.30 L 15.27,1.30 Z" fill="#5ea81a" stroke="none" /><path d="M 9.92,11.23 L 9.92,11.29 L 10.75,11.71 L 10.82,11.71 L 11.67,11.26 L 11.67,11.23 L 10.85,10.82 L 10.75,10.82 Z" fill="#5fa81a" stroke="none" /><path d="M 5.41,9.86 L 5.41,9.89 L 6.30,10.34 L 7.16,9.92 L 7.13,9.86 L 6.30,9.45 L 6.23,9.45 Z" fill="#5fa81a" stroke="none" /><path d="M 7.19,8.97 L 7.22,9.03 L 8.05,9.45 L 8.11,9.45 L 8.97,9.00 L 8.97,8.97 L 8.14,8.56 L 8.02,8.56 Z" fill="#5fa81a" stroke="none" /><path d="M 20.74,8.52 L 20.74,8.56 L 21.63,9.00 L 22.55,8.56 L 22.55,8.52 L 21.66,8.08 Z" fill="#5fa81a" stroke="none" /><path d="M 25.29,8.11 L 26.15,8.52 L 27.04,8.08 L 27.04,8.05 L 26.21,7.63 L 26.15,7.63 L 25.32,8.05 Z" fill="#5fa81a" stroke="none" /><path d="M 1.78,8.05 L 1.78,8.08 L 2.67,8.52 L 3.53,8.11 L 3.50,8.05 L 2.67,7.63 L 2.61,7.63 Z" fill="#5fa81a" stroke="none" /><path d="M 10.82,7.16 L 10.82,7.22 L 11.64,7.63 L 11.74,7.63 L 12.56,7.22 L 12.56,7.16 L 11.74,6.74 L 11.64,6.74 Z" fill="#5fa81a" stroke="none" /><path d="M 14.38,5.38 L 13.52,5.82 L 13.52,5.85 L 14.35,6.27 L 14.31,6.33 L 13.52,6.71 L 13.52,6.74 L 14.38,7.19 L 14.44,7.19 L 15.30,6.74 L 15.30,6.71 L 14.47,6.30 L 14.50,6.23 L 15.30,5.85 L 15.30,5.82 L 14.44,5.38 Z" fill="#5fa81a" stroke="none" /><path d="M 18.96,4.90 L 18.99,4.96 L 19.82,5.38 L 19.88,5.38 L 20.74,4.93 L 20.74,4.90 L 19.91,4.49 L 19.79,4.49 Z" fill="#5fa81a" stroke="none" /><path d="M 9.89,4.90 L 9.92,4.96 L 10.75,5.38 L 10.82,5.38 L 11.67,4.93 L 11.67,4.90 L 10.85,4.49 L 10.72,4.49 Z" fill="#5fa81a" stroke="none" /><path d="M 16.22,4.45 L 16.22,4.49 L 17.11,4.93 L 18.04,4.49 L 18.04,4.45 L 17.15,4.01 Z" fill="#5fa81a" stroke="none" /><path d="M 7.19,9.89 L 7.19,9.92 L 8.02,10.34 L 8.14,10.34 L 8.97,9.92 L 8.94,9.86 L 8.11,9.45 L 8.05,9.45 Z" fill="#5fa81b" stroke="none" /><path d="M 18.04,8.97 L 18.07,9.03 L 18.89,9.45 L 18.96,9.45 L 19.82,9.00 L 19.82,8.97 L 18.99,8.56 L 18.86,8.56 Z" fill="#5fa81b" stroke="none" /><path d="M 10.82,8.08 L 10.82,8.11 L 11.64,8.52 L 11.77,8.52 L 12.60,8.11 L 12.60,8.08 L 11.71,7.63 Z" fill="#5fa81b" stroke="none" /><path d="M 0.89,7.60 L 0.89,7.63 L 1.72,8.05 L 1.84,8.05 L 2.61,7.67 L 2.61,7.60 L 1.78,7.19 L 1.69,7.19 Z" fill="#5fa81b" stroke="none" /><path d="M 21.66,6.27 L 21.66,6.30 L 22.49,6.71 L 22.62,6.71 L 23.41,6.30 L 23.51,6.30 L 24.30,6.71 L 24.43,6.71 L 25.26,6.30 L 25.22,6.23 L 24.40,5.82 L 24.33,5.82 L 23.48,6.27 L 22.58,5.82 L 22.52,5.82 Z" fill="#5fa81b" stroke="none" /><path d="M 8.08,5.82 L 8.08,5.85 L 8.91,6.27 L 9.03,6.27 L 9.86,5.85 L 9.83,5.79 L 9.00,5.38 L 8.94,5.38 Z" fill="#5fa81b" stroke="none" /><path d="M 10.82,3.53 L 10.82,3.59 L 11.64,4.01 L 11.74,4.01 L 12.56,3.59 L 12.56,3.53 L 11.74,3.12 L 11.64,3.12 Z" fill="#5fa81b" stroke="none" /><path d="M 14.41,0.83 L 14.41,0.86 L 15.30,1.30 L 16.16,0.89 L 16.13,0.83 L 15.30,0.41 L 15.24,0.41 Z" fill="#5fa81b" stroke="none" /></svg>