<svg height="32" width="32" viewBox="0 0 32 32"><defs /><path d="M 22.52,16.92 L 20.71,17.81 L 20.71,18.93 L 19.79,19.40 L 19.79,20.52 L 20.68,20.07 L 20.71,20.10 L 20.71,21.15 L 21.60,20.71 L 21.60,19.63 L 21.63,19.59 L 23.41,18.70 L 23.41,17.59 L 22.55,18.00 L 22.52,17.97 Z" fill="#161619" stroke="none" /><path d="M 18.89,13.20 L 17.08,14.09 L 17.08,15.20 L 18.89,14.31 Z" fill="#161619" stroke="none" /><path d="M 26.15,15.11 L 24.37,16.00 L 24.33,15.97 L 24.33,14.92 L 24.27,14.92 L 23.48,15.33 L 23.41,15.30 L 23.41,13.17 L 23.35,13.17 L 19.79,14.95 L 19.79,17.15 L 19.72,17.21 L 18.89,17.62 L 18.89,18.70 L 18.83,18.77 L 17.08,19.63 L 17.08,21.85 L 17.15,21.85 L 17.97,21.44 L 17.97,20.33 L 18.89,19.85 L 18.89,18.77 L 18.96,18.70 L 19.79,18.29 L 19.79,17.21 L 19.85,17.15 L 20.71,16.73 L 20.71,15.65 L 20.77,15.59 L 22.49,14.73 L 22.52,14.76 L 22.52,15.81 L 23.38,15.40 L 23.41,15.43 L 23.41,16.48 L 24.30,16.03 L 24.33,16.06 L 24.33,17.11 L 24.40,17.11 L 25.19,16.70 L 25.22,16.73 L 25.22,17.78 L 25.29,17.78 L 26.15,17.34 Z" fill="#161619" stroke="none" /><path d="M 27.93,10.91 L 27.86,10.91 L 27.04,11.32 L 27.04,13.55 L 27.93,13.11 Z" fill="#161619" stroke="none" /><path d="M 17.08,21.85 L 17.08,24.08 L 18.86,23.19 L 18.89,23.22 L 18.89,24.27 L 18.96,24.27 L 19.75,23.86 L 19.79,23.89 L 19.79,26.05 L 20.71,25.61 L 20.71,23.38 L 19.82,23.83 L 19.79,23.79 L 19.79,22.74 L 19.72,22.74 L 18.93,23.16 L 18.89,23.13 L 18.89,22.08 L 18.83,22.08 L 18.00,22.49 L 17.97,22.46 L 17.97,21.44 L 17.91,21.44 Z" fill="#1d1d21" stroke="none" /><path d="M 16.19,21.22 L 16.13,21.22 L 15.27,21.66 L 15.27,22.78 L 16.19,22.33 Z" fill="#1d1d21" stroke="none" /><path d="M 23.41,18.70 L 21.60,19.59 L 21.60,20.68 L 21.53,20.74 L 20.77,21.12 L 20.71,21.09 L 20.71,20.07 L 20.64,20.07 L 19.82,20.49 L 19.79,20.52 L 19.79,21.60 L 19.85,21.60 L 20.68,21.18 L 20.71,21.22 L 20.71,22.27 L 20.74,22.27 L 22.52,21.38 L 22.52,20.26 L 23.41,19.82 Z" fill="#1d1d21" stroke="none" /><path d="M 27.93,18.67 L 27.86,18.67 L 27.04,19.09 L 27.04,20.20 L 27.10,20.20 L 27.93,19.79 Z" fill="#1d1d21" stroke="none" /><path d="M 26.15,17.34 L 25.22,17.78 L 25.22,18.86 L 25.16,18.93 L 24.33,19.34 L 24.33,20.42 L 24.27,20.49 L 23.41,20.90 L 23.41,22.01 L 23.48,22.01 L 24.33,21.57 L 24.33,20.49 L 24.40,20.42 L 26.15,19.56 Z" fill="#1d1d21" stroke="none" /><path d="M 17.08,16.32 L 15.27,17.21 L 15.27,20.55 L 16.19,20.10 L 16.19,17.91 L 16.25,17.84 L 17.08,17.43 Z" fill="#1d1d21" stroke="none" /><path d="M 27.93,13.11 L 27.04,13.55 L 27.04,17.97 L 27.10,17.97 L 27.93,17.56 Z" fill="#1d1d21" stroke="none" /><path d="M 21.60,11.86 L 21.53,11.86 L 18.93,13.17 L 18.89,13.20 L 18.89,14.28 L 18.96,14.28 L 21.57,12.98 L 21.60,12.95 Z" fill="#1d1d21" stroke="none" /><path d="M 27.04,11.36 L 26.97,11.36 L 26.15,11.77 L 26.15,12.88 L 26.21,12.88 L 27.04,12.47 Z" fill="#1d1d21" stroke="none" /><path d="M 23.41,10.94 L 22.52,11.39 L 22.52,12.47 L 22.58,12.47 L 23.41,12.06 Z" fill="#1d1d21" stroke="none" /><path d="M 26.15,9.57 L 25.22,10.02 L 25.22,11.13 L 26.15,10.69 Z" fill="#1d1d21" stroke="none" /><path d="M 5.41,17.59 L 5.41,18.70 L 6.23,19.12 L 6.30,19.18 L 6.30,20.26 L 7.22,20.71 L 7.22,19.66 L 7.25,19.63 L 9.03,20.52 L 9.03,19.40 L 8.11,18.93 L 8.11,17.81 L 6.33,16.92 L 6.30,16.92 L 6.30,17.97 L 6.27,18.00 Z" fill="#242428" stroke="none" /><path d="M 12.63,16.76 L 12.63,18.99 L 13.55,19.44 L 13.55,17.21 Z" fill="#242428" stroke="none" /><path d="M 2.67,15.11 L 2.67,17.34 L 3.53,17.78 L 3.59,17.78 L 3.59,16.73 L 3.63,16.70 L 4.42,17.11 L 4.49,17.11 L 4.49,16.06 L 4.52,16.03 L 5.41,16.48 L 5.41,15.43 L 5.44,15.40 L 6.30,15.81 L 6.30,14.76 L 6.33,14.73 L 8.05,15.59 L 8.11,15.65 L 8.11,16.73 L 8.97,17.15 L 9.03,17.21 L 9.03,18.29 L 9.86,18.70 L 9.92,18.77 L 9.92,19.85 L 10.85,20.33 L 10.85,21.44 L 11.67,21.85 L 11.74,21.85 L 11.74,19.63 L 9.99,18.77 L 9.92,18.70 L 9.92,17.62 L 9.10,17.21 L 9.03,17.15 L 9.03,14.95 L 5.47,13.17 L 5.41,13.17 L 5.41,15.30 L 5.34,15.33 L 4.55,14.92 L 4.49,14.92 L 4.49,15.97 L 4.45,16.00 Z" fill="#242428" stroke="none" /><path d="M 2.67,9.57 L 2.67,10.69 L 4.49,11.58 L 4.49,10.47 Z" fill="#242428" stroke="none" /><path d="M 17.97,26.97 L 17.91,26.97 L 17.08,27.39 L 17.08,29.61 L 18.89,28.72 L 18.89,27.61 L 18.00,28.06 L 17.97,28.02 Z" fill="#292929" stroke="none" /><path d="M 24.33,24.91 L 24.27,24.91 L 19.82,27.13 L 19.79,27.17 L 19.79,28.25 L 19.85,28.25 L 24.30,26.02 L 24.33,25.99 Z" fill="#292929" stroke="none" /><path d="M 16.19,22.33 L 16.13,22.33 L 15.27,22.78 L 15.27,28.31 L 16.19,27.86 L 16.19,26.75 L 17.08,26.31 L 17.08,25.19 L 16.25,25.61 L 16.19,25.57 Z" fill="#292929" stroke="none" /><path d="M 23.41,22.04 L 23.35,22.04 L 22.52,22.46 L 22.52,23.54 L 22.46,23.60 L 20.71,24.46 L 20.71,25.57 L 20.77,25.57 L 23.41,24.24 Z" fill="#292929" stroke="none" /><path d="M 16.19,20.10 L 16.13,20.10 L 15.27,20.55 L 15.27,21.66 L 16.19,21.22 Z" fill="#292929" stroke="none" /><path d="M 27.93,19.79 L 27.86,19.79 L 27.04,20.20 L 27.04,21.28 L 26.97,21.34 L 25.22,22.20 L 25.22,25.54 L 26.15,25.10 L 26.15,22.90 L 26.21,22.84 L 27.93,21.98 Z" fill="#292929" stroke="none" /><path d="M 27.93,17.56 L 27.86,17.56 L 27.04,17.97 L 27.04,19.09 L 27.10,19.09 L 27.93,18.67 Z" fill="#292929" stroke="none" /><path d="M 17.97,14.76 L 17.08,15.20 L 17.08,17.43 L 17.97,16.99 Z" fill="#292929" stroke="none" /><path d="M 22.52,11.39 L 21.60,11.83 L 21.60,12.95 L 22.52,12.50 Z" fill="#292929" stroke="none" /><path d="M 26.15,10.69 L 26.08,10.69 L 25.26,11.10 L 25.22,11.07 L 25.22,10.05 L 25.16,10.05 L 23.44,10.91 L 23.41,10.94 L 23.41,13.14 L 23.48,13.14 L 24.33,12.69 L 24.33,11.61 L 24.40,11.55 L 25.16,11.17 L 25.22,11.20 L 25.22,13.36 L 26.15,12.91 Z" fill="#292929" stroke="none" /><path d="M 19.79,21.63 L 19.72,21.63 L 18.89,22.04 L 18.89,23.16 L 18.96,23.16 L 19.79,22.74 Z" fill="#2e2e2e" stroke="none" /><path d="M 25.22,21.12 L 24.33,21.57 L 24.33,22.65 L 24.40,22.65 L 25.22,22.23 Z" fill="#2e2e2e" stroke="none" /><path d="M 17.08,20.77 L 17.02,20.77 L 16.19,21.18 L 16.19,22.30 L 16.25,22.30 L 17.08,21.88 Z" fill="#2e2e2e" stroke="none" /><path d="M 19.79,18.29 L 18.89,18.74 L 18.89,19.82 L 18.83,19.88 L 17.97,20.29 L 17.97,21.41 L 18.04,21.41 L 18.89,20.96 L 18.89,19.88 L 18.96,19.82 L 19.79,19.40 Z" fill="#2e2e2e" stroke="none" /><path d="M 27.04,16.89 L 26.15,17.34 L 26.15,18.42 L 26.21,18.42 L 27.04,18.00 Z" fill="#2e2e2e" stroke="none" /><path d="M 24.33,16.03 L 24.27,16.03 L 23.41,16.48 L 23.41,17.59 L 24.33,17.15 Z" fill="#2e2e2e" stroke="none" /><path d="M 21.57,15.17 L 20.71,15.62 L 20.71,16.70 L 20.77,16.70 L 21.57,16.29 L 21.60,16.32 L 21.60,17.37 L 21.66,17.37 L 22.52,16.92 L 22.52,15.81 L 21.63,16.25 L 21.60,16.22 L 21.60,15.17 Z" fill="#2e2e2e" stroke="none" /><path d="M 20.71,13.39 L 19.79,13.84 L 19.79,14.95 L 19.75,14.98 L 18.93,15.40 L 18.89,15.36 L 18.89,14.31 L 18.83,14.31 L 17.97,14.76 L 17.97,15.87 L 18.86,15.43 L 18.89,15.46 L 18.89,16.51 L 16.22,17.84 L 16.19,17.88 L 16.19,18.96 L 16.25,18.96 L 18.89,17.62 L 18.89,16.54 L 19.79,16.10 L 19.79,14.98 L 20.71,14.50 Z" fill="#2e2e2e" stroke="none" /><path d="M 27.04,12.47 L 26.97,12.47 L 26.15,12.88 L 26.15,14.00 L 27.04,13.55 Z" fill="#2e2e2e" stroke="none" /><path d="M 25.22,12.25 L 24.33,12.69 L 24.33,13.81 L 25.22,13.36 Z" fill="#2e2e2e" stroke="none" /><path d="M 23.41,12.06 L 23.35,12.06 L 21.60,12.95 L 21.60,14.06 L 23.41,13.17 Z" fill="#2e2e2e" stroke="none" /><path d="M 15.27,30.54 L 15.20,30.54 L 14.41,30.95 L 14.41,32.00 L 14.47,32.00 L 15.27,31.59 Z" fill="#323232" stroke="none" /><path d="M 19.79,27.17 L 18.89,27.61 L 18.89,28.69 L 18.96,28.69 L 19.79,28.28 Z" fill="#323232" stroke="none" /><path d="M 18.89,24.30 L 18.83,24.30 L 17.97,24.75 L 17.97,25.83 L 17.94,25.86 L 16.19,26.72 L 16.19,27.83 L 16.25,27.83 L 17.97,26.97 L 17.97,25.86 L 18.89,25.38 Z" fill="#323232" stroke="none" /><path d="M 25.22,23.35 L 25.16,23.35 L 24.33,23.76 L 24.33,25.99 L 25.22,25.54 Z" fill="#323232" stroke="none" /><path d="M 28.82,22.65 L 27.93,23.09 L 27.93,24.17 L 27.99,24.17 L 28.82,23.76 Z" fill="#323232" stroke="none" /><path d="M 17.08,21.88 L 17.02,21.88 L 16.19,22.30 L 16.19,25.64 L 17.08,25.19 Z" fill="#323232" stroke="none" /><path d="M 26.15,20.68 L 26.08,20.68 L 25.22,21.12 L 25.22,22.20 L 25.29,22.20 L 26.15,21.76 Z" fill="#323232" stroke="none" /><path d="M 15.27,19.44 L 14.41,19.85 L 14.41,29.84 L 14.47,29.84 L 15.27,29.42 Z" fill="#323232" stroke="none" /><path d="M 19.79,19.40 L 18.89,19.85 L 18.89,20.93 L 18.83,20.99 L 17.97,21.41 L 17.97,22.52 L 18.89,22.08 L 18.89,20.99 L 18.96,20.93 L 19.79,20.52 Z" fill="#323232" stroke="none" /><path d="M 24.33,19.34 L 23.41,19.79 L 23.41,20.90 L 23.48,20.90 L 24.33,20.45 Z" fill="#323232" stroke="none" /><path d="M 17.97,18.10 L 17.91,18.10 L 17.08,18.51 L 17.08,19.63 L 17.15,19.63 L 17.97,19.21 Z" fill="#323232" stroke="none" /><path d="M 28.82,17.11 L 28.76,17.11 L 27.93,17.53 L 27.93,19.75 L 27.99,19.75 L 28.82,19.34 Z" fill="#323232" stroke="none" /><path d="M 25.22,16.70 L 25.16,16.70 L 24.33,17.11 L 24.33,18.23 L 24.40,18.23 L 25.22,17.81 Z" fill="#323232" stroke="none" /><path d="M 27.04,15.78 L 26.15,16.22 L 26.15,17.34 L 27.04,16.89 Z" fill="#323232" stroke="none" /><path d="M 28.82,14.89 L 27.93,15.33 L 27.93,16.45 L 28.82,16.00 Z" fill="#323232" stroke="none" /><path d="M 17.08,14.12 L 17.02,14.12 L 16.19,14.54 L 16.19,15.62 L 16.13,15.68 L 15.27,16.10 L 15.27,17.21 L 15.33,17.21 L 17.08,16.32 Z" fill="#323232" stroke="none" /><path d="M 19.79,13.87 L 19.72,13.87 L 18.89,14.28 L 18.89,15.40 L 17.97,15.87 L 17.97,16.99 L 18.89,16.54 L 18.89,15.43 L 19.79,14.98 Z" fill="#323232" stroke="none" /><path d="M 21.60,12.95 L 20.71,13.39 L 20.71,14.50 L 21.60,14.06 Z" fill="#323232" stroke="none" /><path d="M 25.22,11.13 L 24.33,11.58 L 24.33,12.66 L 24.27,12.72 L 23.41,13.14 L 23.41,15.33 L 23.35,15.40 L 22.55,15.78 L 22.52,15.75 L 22.52,14.73 L 22.46,14.73 L 21.63,15.14 L 21.60,15.17 L 21.60,16.25 L 19.79,17.18 L 19.79,18.29 L 21.60,17.40 L 21.60,16.29 L 22.46,15.84 L 22.52,15.87 L 22.52,18.04 L 22.55,18.04 L 23.41,17.59 L 23.41,15.40 L 23.48,15.33 L 24.30,14.92 L 24.33,14.95 L 24.33,16.00 L 24.40,16.00 L 26.15,15.11 L 26.15,12.91 L 26.08,12.91 L 25.22,13.36 L 25.22,14.44 L 24.37,14.89 L 24.33,14.85 L 24.33,12.72 L 24.40,12.66 L 25.22,12.25 Z" fill="#323232" stroke="none" /><path d="M 27.04,9.13 L 26.15,9.57 L 26.15,11.77 L 26.21,11.77 L 27.93,10.91 L 27.93,9.80 L 27.86,9.80 L 27.07,10.21 L 27.04,10.18 Z" fill="#323232" stroke="none" /><path d="M 12.63,24.52 L 12.63,25.64 L 13.49,26.08 L 13.55,26.08 L 13.55,24.97 Z" fill="#2f2f35" stroke="none" /><path d="M 11.74,21.85 L 10.91,21.44 L 10.85,21.44 L 10.85,22.46 L 10.82,22.49 L 9.99,22.08 L 9.92,22.08 L 9.92,23.13 L 9.89,23.16 L 9.10,22.74 L 9.03,22.74 L 9.03,23.86 L 9.86,24.27 L 9.92,24.27 L 9.92,23.22 L 9.96,23.19 L 11.74,24.08 Z" fill="#2f2f35" stroke="none" /><path d="M 12.63,18.99 L 12.63,23.41 L 13.49,23.86 L 13.55,23.86 L 13.55,19.44 L 12.69,18.99 Z" fill="#2f2f35" stroke="none" /><path d="M 5.41,18.70 L 5.41,19.82 L 6.30,20.26 L 6.30,21.38 L 8.08,22.27 L 8.11,22.27 L 8.11,21.22 L 8.14,21.18 L 8.97,21.60 L 9.03,21.60 L 9.03,20.52 L 9.00,20.49 L 7.28,19.63 L 7.22,19.63 L 7.22,20.64 L 7.16,20.68 L 6.30,20.23 L 6.30,19.15 Z" fill="#2f2f35" stroke="none" /><path d="M 2.67,17.34 L 2.67,19.56 L 4.42,20.42 L 4.49,20.49 L 4.49,21.57 L 5.41,22.04 L 5.41,24.24 L 6.30,24.68 L 6.30,22.46 L 5.41,22.01 L 5.41,20.90 L 4.55,20.49 L 4.49,20.42 L 4.49,19.34 L 3.66,18.93 L 3.59,18.86 L 3.59,17.78 Z" fill="#2f2f35" stroke="none" /><path d="M 11.74,16.32 L 11.74,17.43 L 12.63,17.88 L 12.63,16.76 Z" fill="#2f2f35" stroke="none" /><path d="M 0.89,15.33 L 0.89,16.45 L 1.78,16.89 L 1.78,15.78 Z" fill="#2f2f35" stroke="none" /><path d="M 10.85,13.68 L 10.85,14.76 L 11.74,15.20 L 11.74,14.09 L 10.91,13.68 Z" fill="#2f2f35" stroke="none" /><path d="M 8.11,12.31 L 8.11,13.39 L 8.97,13.84 L 9.03,13.84 L 9.03,12.76 L 8.17,12.31 Z" fill="#2f2f35" stroke="none" /><path d="M 0.89,10.91 L 0.89,14.22 L 1.78,14.66 L 1.78,12.50 L 1.81,12.47 L 2.61,12.88 L 2.67,12.88 L 2.67,11.77 L 0.95,10.91 Z" fill="#2f2f35" stroke="none" /><path d="M 4.49,10.50 L 4.49,11.58 L 4.52,11.61 L 7.22,12.95 L 7.22,11.83 L 4.55,10.50 Z" fill="#2f2f35" stroke="none" /><path d="M 17.08,28.53 L 17.02,28.53 L 14.41,29.84 L 14.41,30.95 L 15.24,30.54 L 15.27,30.57 L 15.27,31.59 L 15.30,31.59 L 17.08,30.70 Z" fill="#383838" stroke="none" /><path d="M 20.71,27.80 L 19.79,28.25 L 19.79,29.33 L 20.71,28.88 Z" fill="#383838" stroke="none" /><path d="M 24.33,25.99 L 21.63,27.32 L 21.60,27.36 L 21.60,28.41 L 21.66,28.41 L 24.33,27.07 Z" fill="#383838" stroke="none" /><path d="M 19.79,24.94 L 18.00,25.83 L 17.97,25.80 L 17.97,24.75 L 17.08,25.19 L 17.08,26.27 L 17.15,26.27 L 17.94,25.86 L 17.97,25.89 L 17.97,28.06 L 18.04,28.06 L 19.79,27.17 Z" fill="#383838" stroke="none" /><path d="M 25.22,22.23 L 25.16,22.23 L 23.41,23.13 L 23.41,25.35 L 24.33,24.91 L 24.33,23.79 L 25.22,23.35 Z" fill="#383838" stroke="none" /><path d="M 23.41,20.93 L 23.35,20.93 L 22.52,21.34 L 22.52,22.46 L 22.49,22.49 L 20.77,23.35 L 20.71,23.32 L 20.71,22.27 L 19.79,22.71 L 19.79,23.83 L 19.85,23.83 L 20.68,23.41 L 20.71,23.44 L 20.71,24.46 L 20.77,24.46 L 22.49,23.60 L 22.52,23.57 L 22.52,22.49 L 23.41,22.04 Z" fill="#383838" stroke="none" /><path d="M 19.79,20.52 L 18.89,20.96 L 18.89,22.04 L 18.96,22.04 L 19.79,21.63 Z" fill="#383838" stroke="none" /><path d="M 28.82,19.34 L 28.76,19.34 L 27.93,19.75 L 27.93,23.06 L 27.86,23.13 L 27.04,23.54 L 27.04,25.70 L 28.82,24.81 L 28.82,23.76 L 28.76,23.76 L 27.96,24.17 L 27.93,24.14 L 27.93,23.13 L 27.99,23.06 L 28.82,22.65 Z" fill="#383838" stroke="none" /><path d="M 17.08,18.54 L 17.02,18.54 L 16.19,18.96 L 16.19,21.18 L 16.25,21.18 L 17.08,20.77 Z" fill="#383838" stroke="none" /><path d="M 27.04,18.00 L 26.97,18.00 L 26.15,18.42 L 26.15,21.76 L 27.04,21.31 Z" fill="#383838" stroke="none" /><path d="M 20.71,17.84 L 20.64,17.84 L 19.79,18.29 L 19.79,19.40 L 20.71,18.96 Z" fill="#383838" stroke="none" /><path d="M 24.33,17.15 L 24.27,17.15 L 23.41,17.59 L 23.41,19.79 L 23.48,19.79 L 25.22,18.89 L 25.22,17.81 L 25.16,17.81 L 24.37,18.23 L 24.33,18.19 Z" fill="#383838" stroke="none" /><path d="M 19.79,16.10 L 19.72,16.10 L 18.89,16.51 L 18.89,17.59 L 18.83,17.65 L 17.97,18.07 L 17.97,19.18 L 18.04,19.18 L 18.89,18.74 L 18.89,17.65 L 18.96,17.59 L 19.79,17.18 Z" fill="#383838" stroke="none" /><path d="M 28.82,16.00 L 27.93,16.45 L 27.93,17.53 L 27.99,17.53 L 28.82,17.11 Z" fill="#383838" stroke="none" /><path d="M 27.04,13.55 L 26.15,14.00 L 26.15,16.22 L 27.04,15.78 Z" fill="#383838" stroke="none" /><path d="M 25.22,13.36 L 24.33,13.81 L 24.33,14.89 L 24.40,14.89 L 25.22,14.47 Z" fill="#383838" stroke="none" /><path d="M 19.79,11.71 L 19.72,11.71 L 18.89,12.12 L 18.89,13.20 L 19.79,12.76 Z" fill="#383838" stroke="none" /><path d="M 28.82,11.58 L 28.76,11.58 L 27.93,11.99 L 27.93,15.33 L 28.82,14.89 Z" fill="#383838" stroke="none" /><path d="M 24.33,9.42 L 20.74,11.20 L 20.71,11.23 L 20.71,12.28 L 20.77,12.28 L 24.33,10.50 Z" fill="#383838" stroke="none" /><path d="M 26.15,8.52 L 26.08,8.52 L 25.22,8.97 L 25.22,10.02 L 25.29,10.02 L 26.15,9.57 Z" fill="#383838" stroke="none" /><path d="M 12.66,25.64 L 12.63,25.64 L 12.63,26.69 L 12.60,26.72 L 10.91,25.86 L 10.85,25.86 L 10.85,29.17 L 11.71,29.61 L 11.74,29.61 L 11.74,27.45 L 11.77,27.42 L 13.55,28.31 L 13.55,26.08 Z" fill="#434343" stroke="none" /><path d="M 5.41,25.35 L 5.41,26.47 L 9.86,28.69 L 9.92,28.69 L 9.92,27.61 L 9.89,27.58 Z" fill="#434343" stroke="none" /><path d="M 12.63,23.41 L 12.63,24.52 L 13.49,24.97 L 13.55,24.97 L 13.55,23.86 Z" fill="#434343" stroke="none" /><path d="M 6.30,23.57 L 6.30,24.68 L 6.33,24.72 L 9.03,26.05 L 9.03,23.83 L 8.11,23.38 L 8.11,24.43 L 8.08,24.46 Z" fill="#434343" stroke="none" /><path d="M 2.67,22.87 L 2.67,25.10 L 4.49,25.99 L 4.49,24.87 L 3.59,24.43 L 3.59,23.32 Z" fill="#434343" stroke="none" /><path d="M 0.89,16.45 L 0.89,21.98 L 1.78,22.43 L 1.78,21.38 L 1.81,21.34 L 2.67,21.76 L 2.67,20.64 L 1.78,20.20 L 1.78,16.89 Z" fill="#434343" stroke="none" /><path d="M 0.89,14.22 L 0.89,15.33 L 1.78,15.78 L 1.78,14.66 Z" fill="#434343" stroke="none" /><path d="M 9.03,12.76 L 9.03,14.98 L 9.86,15.40 L 9.92,15.40 L 9.92,14.35 L 9.96,14.31 L 10.78,14.73 L 10.85,14.79 L 10.85,16.99 L 11.74,17.43 L 11.74,15.20 L 10.91,14.79 L 10.85,14.73 L 10.85,13.65 Z" fill="#434343" stroke="none" /><path d="M 7.22,11.86 L 7.22,12.95 L 8.11,13.39 L 8.11,12.28 L 7.28,11.86 Z" fill="#434343" stroke="none" /><path d="M 2.67,10.69 L 2.67,12.91 L 3.59,13.36 L 3.59,11.13 L 2.74,10.69 Z" fill="#434343" stroke="none" /><path d="M 19.79,28.28 L 19.72,28.28 L 17.11,29.58 L 17.08,29.61 L 17.08,30.66 L 17.15,30.66 L 19.75,29.36 L 19.79,29.33 Z" fill="#404144" stroke="none" /><path d="M 21.60,27.36 L 20.71,27.80 L 20.71,28.85 L 20.77,28.85 L 21.60,28.44 Z" fill="#404144" stroke="none" /><path d="M 23.41,24.24 L 19.82,26.02 L 19.79,26.05 L 19.79,27.17 L 23.38,25.38 L 23.41,25.35 Z" fill="#404144" stroke="none" /><path d="M 19.79,23.86 L 19.72,23.86 L 18.93,24.27 L 18.89,24.24 L 18.89,23.19 L 18.83,23.19 L 17.08,24.08 L 17.08,25.19 L 18.86,24.30 L 18.89,24.33 L 18.89,25.38 L 18.93,25.38 L 19.79,24.94 Z" fill="#404144" stroke="none" /><path d="M 27.93,21.98 L 26.15,22.87 L 26.15,25.07 L 24.33,25.99 L 24.33,27.04 L 24.40,27.04 L 27.04,25.70 L 27.04,23.57 L 27.10,23.51 L 27.93,23.09 Z" fill="#404144" stroke="none" /><path d="M 23.41,19.82 L 23.35,19.82 L 22.52,20.23 L 22.52,21.34 L 22.49,21.38 L 20.77,22.23 L 20.71,22.20 L 20.71,21.15 L 19.79,21.60 L 19.79,22.71 L 19.85,22.71 L 20.68,22.30 L 20.71,22.33 L 20.71,23.38 L 20.74,23.38 L 22.52,22.49 L 22.52,21.38 L 23.41,20.93 Z" fill="#404144" stroke="none" /><path d="M 26.15,19.56 L 26.08,19.56 L 24.33,20.45 L 24.33,21.53 L 24.27,21.60 L 23.41,22.01 L 23.41,23.13 L 24.33,22.68 L 24.33,21.60 L 24.40,21.53 L 26.15,20.68 Z" fill="#404144" stroke="none" /><path d="M 16.19,13.49 L 15.27,13.93 L 15.27,16.10 L 14.41,16.54 L 14.41,19.85 L 14.47,19.85 L 15.27,19.44 L 15.27,16.13 L 16.19,15.65 Z" fill="#404144" stroke="none" /><path d="M 18.89,12.15 L 18.83,12.15 L 17.97,12.60 L 17.97,13.65 L 18.04,13.65 L 18.89,13.20 Z" fill="#404144" stroke="none" /><path d="M 20.71,11.23 L 19.79,11.67 L 19.79,12.76 L 20.71,12.31 Z" fill="#404144" stroke="none" /><path d="M 25.22,8.97 L 24.33,9.42 L 24.33,10.47 L 24.40,10.47 L 25.22,10.05 Z" fill="#404144" stroke="none" /><path d="M 27.86,7.63 L 26.15,8.49 L 26.15,9.57 L 27.01,9.16 L 27.04,9.19 L 27.04,10.21 L 27.10,10.21 L 27.90,9.80 L 27.93,9.83 L 27.93,11.99 L 27.99,11.99 L 28.82,11.58 L 28.82,8.24 L 27.96,8.65 L 27.93,8.62 L 27.93,7.63 Z" fill="#404144" stroke="none" /><path d="M 17.08,27.42 L 17.02,27.42 L 15.27,28.31 L 15.27,29.42 L 17.08,28.53 Z" fill="#444649" stroke="none" /><path d="M 15.27,13.96 L 15.20,13.96 L 14.41,14.38 L 14.41,16.54 L 15.27,16.13 Z" fill="#444649" stroke="none" /><path d="M 17.97,12.60 L 16.19,13.49 L 16.19,14.54 L 16.25,14.54 L 17.97,13.68 Z" fill="#444649" stroke="none" /><path d="M 28.82,7.19 L 28.76,7.19 L 27.93,7.60 L 27.93,8.68 L 28.82,8.24 Z" fill="#444649" stroke="none" /><path d="M 9.92,24.30 L 9.92,25.38 L 10.78,25.83 L 10.85,25.83 L 10.85,24.75 L 9.99,24.30 Z" fill="#4a4a4a" stroke="none" /><path d="M 11.74,21.88 L 11.74,22.97 L 12.63,23.41 L 12.63,22.30 L 11.80,21.88 Z" fill="#4a4a4a" stroke="none" /><path d="M 4.49,19.34 L 4.49,20.45 L 5.34,20.90 L 5.41,20.90 L 5.41,19.79 Z" fill="#4a4a4a" stroke="none" /><path d="M 9.03,18.29 L 9.03,19.40 L 9.92,19.85 L 9.92,18.74 Z" fill="#4a4a4a" stroke="none" /><path d="M 11.74,17.43 L 11.74,18.54 L 12.56,18.96 L 12.63,18.96 L 12.63,17.88 Z" fill="#4a4a4a" stroke="none" /><path d="M 4.55,16.03 L 4.49,16.03 L 4.49,17.08 L 4.45,17.11 L 3.66,16.70 L 3.59,16.70 L 3.59,17.81 L 4.42,18.23 L 4.49,18.23 L 4.49,17.18 L 4.52,17.15 L 5.41,17.59 L 5.41,16.48 Z" fill="#4a4a4a" stroke="none" /><path d="M 1.78,15.78 L 1.78,16.89 L 2.67,17.34 L 2.67,16.22 Z" fill="#4a4a4a" stroke="none" /><path d="M 9.92,15.43 L 9.92,16.54 L 10.85,16.99 L 10.85,15.87 L 9.99,15.43 Z" fill="#4a4a4a" stroke="none" /><path d="M 6.30,14.73 L 6.30,15.81 L 7.22,16.29 L 7.22,17.40 L 8.05,17.81 L 8.11,17.81 L 8.11,16.70 L 7.22,16.25 L 7.22,15.17 L 6.36,14.73 Z" fill="#4a4a4a" stroke="none" /><path d="M 7.22,12.95 L 7.22,14.06 L 8.97,14.95 L 9.03,14.95 L 9.03,13.84 Z" fill="#4a4a4a" stroke="none" /><path d="M 3.59,11.13 L 3.59,12.25 L 4.42,12.66 L 4.49,12.72 L 4.49,13.74 L 4.42,13.77 L 1.84,12.47 L 1.78,12.47 L 1.78,13.55 L 4.42,14.89 L 4.49,14.89 L 4.49,13.87 L 4.52,13.84 L 5.34,14.25 L 5.41,14.25 L 5.41,13.20 L 5.44,13.17 L 6.23,13.58 L 6.30,13.58 L 6.30,12.47 L 5.47,12.06 L 5.41,12.06 L 5.41,13.11 L 5.38,13.14 L 4.55,12.72 L 4.49,12.66 L 4.49,11.58 Z" fill="#4a4a4a" stroke="none" /><path d="M 13.55,29.42 L 13.55,30.54 L 14.41,30.95 L 14.41,29.84 Z" fill="#515151" stroke="none" /><path d="M 9.92,26.50 L 9.92,28.72 L 10.85,29.17 L 10.85,26.94 Z" fill="#515151" stroke="none" /><path d="M 4.49,24.91 L 4.49,25.99 L 5.34,26.43 L 5.41,26.43 L 5.41,25.35 L 4.55,24.91 Z" fill="#515151" stroke="none" /><path d="M 10.85,24.75 L 10.85,25.86 L 11.67,26.27 L 11.74,26.27 L 11.74,25.19 Z" fill="#515151" stroke="none" /><path d="M 13.55,23.89 L 13.55,26.12 L 14.41,26.53 L 14.41,24.30 L 13.61,23.89 Z" fill="#515151" stroke="none" /><path d="M 0.00,23.76 L 0.00,24.81 L 0.89,25.26 L 0.89,24.17 L 0.06,23.76 Z" fill="#515151" stroke="none" /><path d="M 13.55,21.66 L 13.55,22.78 L 14.35,23.19 L 14.41,23.19 L 14.41,22.08 Z" fill="#515151" stroke="none" /><path d="M 9.03,21.63 L 9.03,22.74 L 9.86,23.16 L 9.92,23.16 L 9.92,22.04 L 9.10,21.63 Z" fill="#515151" stroke="none" /><path d="M 4.49,21.57 L 3.59,21.12 L 3.59,22.17 L 3.56,22.20 L 1.78,21.31 L 1.78,22.43 L 3.53,23.32 L 3.59,23.32 L 3.59,22.27 L 3.63,22.23 L 4.42,22.65 L 4.49,22.65 Z" fill="#515151" stroke="none" /><path d="M 11.74,20.77 L 11.74,21.88 L 12.56,22.30 L 12.63,22.30 L 12.63,21.18 L 11.80,20.77 Z" fill="#515151" stroke="none" /><path d="M 9.92,19.85 L 9.92,20.96 L 10.78,21.41 L 10.85,21.41 L 10.85,20.29 Z" fill="#515151" stroke="none" /><path d="M 4.55,17.15 L 4.49,17.15 L 4.49,18.19 L 4.45,18.23 L 3.66,17.81 L 3.59,17.81 L 3.59,18.89 L 4.45,19.34 L 4.49,19.34 L 4.49,18.29 L 4.52,18.26 L 5.41,18.70 L 5.41,17.59 Z" fill="#515151" stroke="none" /><path d="M 1.78,16.89 L 1.78,20.23 L 2.61,20.64 L 2.67,20.64 L 2.67,17.34 Z" fill="#515151" stroke="none" /><path d="M 5.41,15.36 L 5.41,16.48 L 5.44,16.51 L 7.16,17.37 L 7.22,17.37 L 7.22,16.32 L 7.25,16.29 L 8.11,16.73 L 8.11,18.96 L 9.03,19.40 L 9.03,17.24 L 9.10,17.21 L 9.86,17.59 L 9.92,17.65 L 9.92,18.74 L 9.96,18.77 L 11.67,19.63 L 11.74,19.63 L 11.74,17.43 L 10.85,16.99 L 10.85,18.04 L 10.82,18.07 L 9.99,17.65 L 9.92,17.59 L 9.92,15.46 L 9.96,15.43 L 10.85,15.87 L 10.85,14.76 L 10.82,14.73 L 9.99,14.31 L 9.92,14.31 L 9.92,15.36 L 9.89,15.40 L 9.10,14.98 L 9.03,14.98 L 9.03,17.11 L 9.00,17.15 L 8.11,16.70 L 8.11,15.62 L 7.25,15.17 L 7.22,15.17 L 7.22,16.22 L 7.19,16.25 Z" fill="#515151" stroke="none" /><path d="M 11.74,14.12 L 11.74,16.32 L 13.49,17.21 L 13.55,17.21 L 13.55,16.10 L 12.69,15.68 L 12.63,15.62 L 12.63,14.54 L 11.80,14.12 Z" fill="#515151" stroke="none" /><path d="M 2.67,14.00 L 2.67,15.11 L 3.53,15.55 L 3.59,15.55 L 3.59,14.44 Z" fill="#515151" stroke="none" /><path d="M 0.00,12.66 L 0.00,22.65 L 0.89,23.09 L 0.89,13.11 Z" fill="#515151" stroke="none" /><path d="M 6.30,12.50 L 6.30,13.61 L 7.22,14.06 L 7.22,12.95 L 6.36,12.50 Z" fill="#515151" stroke="none" /><path d="M 4.52,11.58 L 4.49,11.58 L 4.49,12.63 L 4.45,12.66 L 3.59,12.25 L 3.59,13.36 L 4.45,13.81 L 4.49,13.81 L 4.49,12.76 L 4.52,12.72 L 5.34,13.14 L 5.41,13.14 L 5.41,12.02 Z" fill="#515151" stroke="none" /><path d="M 1.78,9.13 L 1.78,10.18 L 1.75,10.21 L 0.95,9.80 L 0.89,9.80 L 0.89,10.91 L 2.61,11.77 L 2.67,11.77 L 2.67,9.57 Z" fill="#515151" stroke="none" /><path d="M 7.22,27.36 L 7.22,28.44 L 9.92,29.77 L 9.92,28.69 Z" fill="#5c5c5c" stroke="none" /><path d="M 5.41,26.47 L 5.41,27.51 L 6.30,27.96 L 6.30,26.88 L 5.47,26.47 Z" fill="#5c5c5c" stroke="none" /><path d="M 13.55,26.12 L 13.55,29.36 L 13.49,29.39 L 12.69,28.98 L 12.63,28.98 L 12.63,31.14 L 14.35,32.00 L 14.41,32.00 L 14.41,30.95 L 13.55,30.50 L 13.55,29.49 L 13.58,29.46 L 14.35,29.84 L 14.41,29.84 L 14.41,26.53 L 13.61,26.12 Z" fill="#5c5c5c" stroke="none" /><path d="M 9.03,24.94 L 9.03,27.17 L 9.92,27.61 L 9.92,26.56 L 9.96,26.53 L 10.78,26.94 L 10.85,26.94 L 10.85,25.83 Z" fill="#5c5c5c" stroke="none" /><path d="M 11.74,22.97 L 11.74,26.31 L 12.56,26.72 L 12.63,26.72 L 12.63,23.41 Z" fill="#5c5c5c" stroke="none" /><path d="M 13.55,22.78 L 13.55,23.89 L 14.41,24.30 L 14.41,23.19 Z" fill="#5c5c5c" stroke="none" /><path d="M 0.00,22.65 L 0.00,23.76 L 0.89,24.21 L 0.89,25.26 L 2.67,26.15 L 2.67,23.98 Z" fill="#5c5c5c" stroke="none" /><path d="M 5.41,20.93 L 5.41,22.04 L 6.30,22.49 L 6.30,23.57 L 6.33,23.60 L 8.05,24.46 L 8.11,24.46 L 8.11,23.44 L 8.14,23.41 L 8.97,23.83 L 9.03,23.83 L 9.03,22.71 L 8.11,22.27 L 8.11,23.32 L 8.05,23.35 L 6.33,22.49 L 6.30,22.46 L 6.30,21.34 L 5.47,20.93 Z" fill="#5c5c5c" stroke="none" /><path d="M 2.67,20.68 L 2.67,21.76 L 3.59,22.23 L 3.59,24.46 L 5.41,25.35 L 5.41,23.13 L 3.63,22.23 L 3.59,22.20 L 3.59,21.12 L 2.74,20.68 Z" fill="#5c5c5c" stroke="none" /><path d="M 9.03,19.40 L 9.03,21.63 L 10.85,22.52 L 10.85,21.41 L 9.99,20.99 L 9.92,20.93 L 9.92,19.85 Z" fill="#5c5c5c" stroke="none" /><path d="M 11.74,18.54 L 11.74,20.77 L 12.56,21.18 L 12.63,21.18 L 12.63,18.96 L 11.80,18.54 Z" fill="#5c5c5c" stroke="none" /><path d="M 13.55,18.35 L 13.55,21.66 L 14.35,22.08 L 14.41,22.08 L 14.41,18.77 L 13.61,18.35 Z" fill="#5c5c5c" stroke="none" /><path d="M 4.49,18.26 L 4.49,19.34 L 5.34,19.79 L 5.41,19.79 L 5.41,18.70 L 4.55,18.26 Z" fill="#5c5c5c" stroke="none" /><path d="M 9.92,16.54 L 9.92,17.62 L 10.78,18.07 L 10.85,18.07 L 10.85,16.99 L 9.99,16.54 Z" fill="#5c5c5c" stroke="none" /><path d="M 5.41,16.48 L 5.41,17.59 L 6.30,18.04 L 6.30,16.92 Z" fill="#5c5c5c" stroke="none" /><path d="M 4.52,13.81 L 4.49,13.81 L 4.49,14.85 L 4.45,14.89 L 3.66,14.47 L 3.59,14.47 L 3.59,15.59 L 4.42,16.00 L 4.49,16.00 L 4.49,14.95 L 4.52,14.92 L 5.41,15.36 L 5.41,14.25 Z" fill="#5c5c5c" stroke="none" /><path d="M 1.78,13.55 L 1.78,15.78 L 2.67,16.22 L 2.67,14.00 Z" fill="#5c5c5c" stroke="none" /><path d="M 10.85,12.60 L 10.85,13.68 L 11.67,14.09 L 11.74,14.09 L 11.74,13.04 Z" fill="#5c5c5c" stroke="none" /><path d="M 6.30,10.34 L 6.30,11.39 L 6.33,11.42 L 9.92,13.20 L 9.92,12.12 L 6.36,10.34 Z" fill="#5c5c5c" stroke="none" /><path d="M 4.49,9.42 L 4.49,10.50 L 5.41,10.94 L 5.41,9.86 Z" fill="#5c5c5c" stroke="none" /><path d="M 11.71,12.15 L 11.71,12.18 L 12.53,12.60 L 12.66,12.60 L 13.49,12.18 L 13.46,12.12 L 12.63,11.71 L 12.56,11.71 Z" fill="#676767" stroke="none" /><path d="M 18.89,11.23 L 18.07,10.82 L 17.97,10.82 L 15.36,12.12 L 15.33,12.18 L 16.16,12.60 L 16.29,12.60 L 18.89,11.29 Z" fill="#676767" stroke="none" /><path d="M 9.92,11.23 L 9.92,11.29 L 10.75,11.71 L 10.82,11.71 L 11.67,11.26 L 11.67,11.23 L 10.85,10.82 L 10.75,10.82 Z" fill="#676767" stroke="none" /><path d="M 19.85,9.89 L 19.85,9.92 L 20.68,10.34 L 20.80,10.34 L 21.63,9.92 L 21.60,9.86 L 20.77,9.45 L 20.71,9.45 Z" fill="#676767" stroke="none" /><path d="M 5.38,8.97 L 5.41,9.03 L 8.02,10.34 L 8.14,10.34 L 8.97,9.92 L 8.94,9.86 L 6.33,8.56 L 6.20,8.56 Z" fill="#676767" stroke="none" /><path d="M 24.37,8.52 L 23.44,8.08 L 21.66,8.97 L 21.66,9.00 L 22.52,9.45 L 22.58,9.45 L 24.37,8.56 Z" fill="#676767" stroke="none" /><path d="M 3.56,8.08 L 3.56,8.11 L 4.39,8.52 L 4.52,8.52 L 5.34,8.11 L 5.31,8.05 L 4.49,7.63 L 4.42,7.63 Z" fill="#676767" stroke="none" /><path d="M 22.58,5.79 L 22.58,5.85 L 23.41,6.27 L 23.51,6.27 L 24.33,5.85 L 24.33,5.79 L 23.51,5.38 L 23.41,5.38 Z" fill="#676767" stroke="none" /><path d="M 4.49,5.79 L 4.49,5.85 L 5.31,6.27 L 5.41,6.27 L 6.23,5.85 L 6.23,5.79 L 5.41,5.38 L 5.31,5.38 Z" fill="#676767" stroke="none" /><path d="M 19.85,4.45 L 19.85,4.49 L 21.63,5.38 L 21.69,5.38 L 22.55,4.93 L 22.55,4.90 L 20.77,4.01 Z" fill="#676767" stroke="none" /><path d="M 8.97,4.45 L 8.05,4.01 L 6.27,4.90 L 6.27,4.93 L 7.13,5.38 L 7.19,5.38 L 8.97,4.49 Z" fill="#676767" stroke="none" /><path d="M 17.15,3.09 L 17.18,3.15 L 18.00,3.56 L 18.07,3.56 L 18.93,3.12 L 18.93,3.09 L 18.10,2.67 L 17.97,2.67 Z" fill="#676767" stroke="none" /><path d="M 15.33,2.19 L 15.33,2.23 L 16.16,2.64 L 16.29,2.64 L 17.11,2.23 L 17.08,2.16 L 16.25,1.75 L 16.19,1.75 Z" fill="#676767" stroke="none" /><path d="M 13.49,2.19 L 12.63,1.75 L 12.56,1.75 L 9.00,3.53 L 9.00,3.59 L 9.83,4.01 L 9.92,4.01 L 13.49,2.23 Z" fill="#676767" stroke="none" /><path d="M 11.74,27.42 L 11.74,29.55 L 11.67,29.58 L 9.99,28.72 L 9.92,28.72 L 9.92,29.77 L 12.56,31.11 L 12.63,31.11 L 12.63,29.01 L 12.66,28.98 L 13.55,29.42 L 13.55,28.31 L 11.80,27.42 Z" fill="#68696e" stroke="none" /><path d="M 6.30,26.91 L 6.30,27.96 L 7.16,28.41 L 7.22,28.41 L 7.22,27.36 L 6.36,26.91 Z" fill="#68696e" stroke="none" /><path d="M 2.67,25.10 L 2.67,26.15 L 2.70,26.18 L 5.41,27.51 L 5.41,26.43 L 2.74,25.10 Z" fill="#68696e" stroke="none" /><path d="M 5.41,24.24 L 5.41,25.35 L 5.44,25.38 L 9.03,27.17 L 9.03,26.05 L 9.00,26.02 Z" fill="#68696e" stroke="none" /><path d="M 9.03,23.86 L 9.03,24.94 L 9.89,25.38 L 9.92,25.38 L 9.92,24.33 L 9.96,24.30 L 11.74,25.19 L 11.74,24.08 L 9.99,23.19 L 9.92,23.19 L 9.92,24.24 L 9.89,24.27 L 9.10,23.86 Z" fill="#68696e" stroke="none" /><path d="M 5.41,19.82 L 5.41,20.93 L 6.30,21.38 L 6.30,22.49 L 8.08,23.38 L 8.11,23.38 L 8.11,22.33 L 8.14,22.30 L 8.97,22.71 L 9.03,22.71 L 9.03,21.60 L 8.11,21.15 L 8.11,22.20 L 8.05,22.23 L 6.33,21.38 L 6.30,21.34 L 6.30,20.23 L 5.47,19.82 Z" fill="#68696e" stroke="none" /><path d="M 2.67,19.56 L 2.67,20.68 L 4.42,21.53 L 4.49,21.60 L 4.49,22.68 L 5.41,23.13 L 5.41,22.01 L 4.55,21.60 L 4.49,21.53 L 4.49,20.45 L 2.74,19.56 Z" fill="#68696e" stroke="none" /><path d="M 11.74,13.04 L 11.74,14.12 L 12.63,14.57 L 12.63,15.65 L 13.55,16.13 L 13.55,18.35 L 14.41,18.77 L 14.41,15.43 L 13.61,15.05 L 13.55,14.98 L 13.55,13.93 Z" fill="#68696e" stroke="none" /><path d="M 9.92,12.15 L 9.92,13.20 L 10.78,13.65 L 10.85,13.65 L 10.85,12.60 L 9.99,12.15 Z" fill="#68696e" stroke="none" /><path d="M 5.41,9.89 L 5.41,10.94 L 6.30,11.39 L 6.30,10.31 L 5.47,9.89 Z" fill="#68696e" stroke="none" /><path d="M 3.59,8.97 L 3.59,10.05 L 4.42,10.47 L 4.49,10.47 L 4.49,9.42 Z" fill="#68696e" stroke="none" /><path d="M 0.95,7.63 L 0.89,7.63 L 0.89,9.73 L 0.86,9.77 L 0.06,9.35 L 0.00,9.35 L 0.00,12.66 L 0.86,13.11 L 0.89,13.11 L 0.89,9.83 L 0.92,9.80 L 1.72,10.21 L 1.78,10.21 L 1.78,8.05 Z" fill="#68696e" stroke="none" /><path d="M 0.89,21.98 L 0.89,23.09 L 2.67,23.98 L 2.67,22.87 Z" fill="#6e7176" stroke="none" /><path d="M 13.55,13.96 L 13.55,15.01 L 14.35,15.43 L 14.41,15.43 L 14.41,14.38 L 13.61,13.96 Z" fill="#6e7176" stroke="none" /><path d="M 1.78,8.08 L 1.78,9.13 L 3.53,10.02 L 3.59,10.02 L 3.59,8.97 L 1.84,8.08 Z" fill="#6e7176" stroke="none" /><path d="M 0.00,7.19 L 0.00,9.35 L 0.83,9.77 L 0.89,9.77 L 0.89,7.60 L 0.06,7.19 Z" fill="#6e7176" stroke="none" /><path d="M 12.60,12.60 L 12.60,12.63 L 14.38,13.52 L 14.44,13.52 L 16.22,12.63 L 16.22,12.60 L 15.33,12.15 L 14.44,12.60 L 14.38,12.60 L 13.52,12.15 Z" fill="#7d7d7d" stroke="none" /><path d="M 10.82,11.67 L 10.82,11.74 L 11.64,12.15 L 11.74,12.15 L 12.56,11.74 L 12.56,11.67 L 11.74,11.26 L 11.64,11.26 Z" fill="#7d7d7d" stroke="none" /><path d="M 20.74,10.34 L 19.82,9.89 L 18.04,10.78 L 18.04,10.82 L 18.89,11.26 L 18.96,11.26 L 20.74,10.37 Z" fill="#7d7d7d" stroke="none" /><path d="M 8.08,10.34 L 8.08,10.37 L 9.86,11.26 L 9.92,11.26 L 10.78,10.82 L 10.78,10.78 L 9.00,9.89 Z" fill="#7d7d7d" stroke="none" /><path d="M 20.77,9.42 L 20.77,9.48 L 21.60,9.89 L 21.69,9.89 L 22.52,9.48 L 22.52,9.42 L 21.69,9.00 L 21.60,9.00 Z" fill="#7d7d7d" stroke="none" /><path d="M 4.45,8.52 L 4.45,8.56 L 5.34,9.00 L 6.27,8.56 L 6.27,8.52 L 5.38,8.08 Z" fill="#7d7d7d" stroke="none" /><path d="M 23.48,6.27 L 23.48,6.30 L 25.16,7.13 L 25.22,7.19 L 23.48,8.08 L 23.48,8.11 L 24.30,8.52 L 24.43,8.52 L 27.07,7.19 L 27.07,7.16 L 24.40,5.82 L 24.33,5.82 Z" fill="#7d7d7d" stroke="none" /><path d="M 5.34,6.27 L 4.49,5.82 L 4.42,5.82 L 1.75,7.16 L 1.75,7.19 L 3.50,8.08 L 3.59,8.08 L 4.42,7.67 L 4.42,7.60 L 3.59,7.19 L 3.66,7.13 L 5.34,6.30 Z" fill="#7d7d7d" stroke="none" /><path d="M 21.69,5.34 L 21.69,5.41 L 22.52,5.82 L 22.58,5.82 L 23.44,5.38 L 23.44,5.34 L 22.62,4.93 L 22.52,4.93 Z" fill="#7d7d7d" stroke="none" /><path d="M 9.00,8.11 L 9.83,8.52 L 9.96,8.52 L 10.75,8.11 L 10.85,8.11 L 11.61,8.49 L 11.64,8.56 L 10.82,8.97 L 10.82,9.00 L 12.56,9.89 L 12.66,9.89 L 13.52,9.45 L 14.38,9.89 L 14.44,9.89 L 15.27,9.48 L 15.27,9.42 L 14.44,9.00 L 15.33,8.56 L 16.10,8.94 L 16.16,9.00 L 15.33,9.42 L 15.33,9.48 L 16.16,9.89 L 16.25,9.89 L 17.08,9.48 L 17.08,9.42 L 16.29,9.03 L 16.25,9.00 L 16.32,8.94 L 18.93,7.63 L 19.79,8.08 L 19.88,8.08 L 20.71,7.67 L 20.71,7.60 L 18.99,6.74 L 19.05,6.68 L 19.85,6.30 L 19.85,6.27 L 18.96,5.82 L 18.07,6.27 L 18.00,6.27 L 17.24,5.88 L 17.18,5.82 L 17.21,5.79 L 18.00,5.41 L 18.00,5.34 L 17.18,4.93 L 17.08,4.93 L 16.22,5.38 L 15.36,4.93 L 15.27,4.93 L 14.41,5.38 L 13.55,4.93 L 13.46,4.93 L 12.63,5.34 L 12.63,5.41 L 13.46,5.82 L 13.39,5.88 L 12.63,6.27 L 12.56,6.27 L 11.80,5.88 L 11.74,5.82 L 12.56,5.41 L 12.56,5.34 L 11.74,4.93 L 11.64,4.93 L 9.89,5.82 L 9.89,5.85 L 10.72,6.27 L 10.69,6.33 L 9.89,6.71 L 9.89,6.74 L 10.75,7.19 L 9.03,8.05 Z" fill="#7d7d7d" stroke="none" /><path d="M 5.38,5.34 L 5.41,5.41 L 6.23,5.82 L 6.30,5.82 L 7.13,5.41 L 7.13,5.34 L 6.30,4.93 L 6.20,4.93 Z" fill="#7d7d7d" stroke="none" /><path d="M 8.08,4.01 L 8.08,4.04 L 8.91,4.45 L 9.03,4.45 L 9.86,4.04 L 9.83,3.98 L 9.00,3.56 L 8.94,3.56 Z" fill="#7d7d7d" stroke="none" /><path d="M 18.07,3.53 L 18.07,3.59 L 19.79,4.45 L 19.91,4.45 L 20.74,4.04 L 20.71,3.98 L 18.99,3.12 L 18.89,3.12 Z" fill="#7d7d7d" stroke="none" /><path d="M 16.22,2.64 L 16.22,2.67 L 17.11,3.12 L 18.04,2.67 L 18.04,2.64 L 17.15,2.19 Z" fill="#7d7d7d" stroke="none" /><path d="M 12.63,1.72 L 12.63,1.78 L 13.46,2.19 L 13.55,2.19 L 14.41,1.75 L 15.27,2.19 L 15.36,2.19 L 16.19,1.78 L 16.19,1.72 L 14.47,0.86 L 14.35,0.86 Z" fill="#7d7d7d" stroke="none" /><path d="M 10.82,9.89 L 10.82,9.92 L 12.53,10.78 L 12.66,10.78 L 14.38,9.92 L 14.38,9.86 L 13.55,9.45 L 13.49,9.45 L 12.63,9.89 L 11.74,9.45 L 11.67,9.45 Z" fill="#8d8d8d" stroke="none" /><path d="M 11.71,8.52 L 10.78,8.08 L 9.00,8.97 L 9.00,9.00 L 9.86,9.45 L 9.92,9.45 L 11.71,8.56 Z" fill="#8d8d8d" stroke="none" /><path d="M 10.82,7.16 L 10.82,7.22 L 11.64,7.63 L 11.74,7.63 L 12.56,7.22 L 12.56,7.16 L 11.74,6.74 L 11.64,6.74 Z" fill="#8d8d8d" stroke="none" /><path d="M 7.19,6.27 L 7.19,6.30 L 8.02,6.71 L 7.98,6.78 L 7.19,7.16 L 7.19,7.19 L 8.05,7.63 L 7.22,8.05 L 7.19,8.11 L 8.02,8.52 L 8.14,8.52 L 10.75,7.22 L 10.75,7.16 L 9.92,6.74 L 9.99,6.68 L 10.78,6.30 L 10.78,6.27 L 9.99,5.88 L 9.92,5.82 L 11.67,4.93 L 12.56,5.38 L 11.71,5.82 L 11.71,5.85 L 12.53,6.27 L 12.66,6.27 L 13.49,5.85 L 13.46,5.79 L 12.63,5.38 L 13.49,4.93 L 14.38,5.38 L 14.44,5.38 L 15.30,4.93 L 16.19,5.38 L 16.25,5.38 L 17.11,4.93 L 17.97,5.34 L 18.00,5.38 L 17.97,5.41 L 17.15,5.82 L 17.15,5.85 L 17.97,6.27 L 17.94,6.33 L 17.15,6.71 L 17.18,6.78 L 18.00,7.19 L 18.07,7.19 L 18.96,6.74 L 20.71,7.63 L 19.85,8.08 L 18.96,7.63 L 18.89,7.63 L 18.07,8.05 L 18.04,8.11 L 18.86,8.52 L 18.83,8.59 L 18.07,8.97 L 17.97,8.97 L 17.18,8.56 L 17.05,8.56 L 16.25,8.97 L 16.16,8.97 L 15.36,8.56 L 15.27,8.56 L 14.44,8.97 L 14.44,9.03 L 15.27,9.45 L 14.44,9.86 L 14.44,9.92 L 15.27,10.34 L 15.20,10.40 L 14.41,10.78 L 14.41,10.82 L 15.30,11.26 L 16.22,10.82 L 16.22,10.78 L 15.43,10.40 L 15.36,10.34 L 16.16,9.92 L 16.25,9.92 L 17.05,10.34 L 17.18,10.34 L 18.00,9.92 L 17.97,9.86 L 17.15,9.45 L 18.00,9.00 L 18.89,9.45 L 18.96,9.45 L 19.79,9.03 L 19.82,8.97 L 18.99,8.56 L 19.02,8.49 L 19.79,8.11 L 19.88,8.11 L 20.68,8.52 L 20.80,8.52 L 21.63,8.11 L 21.60,8.05 L 20.77,7.63 L 21.63,7.19 L 21.63,7.16 L 20.80,6.74 L 20.83,6.68 L 21.63,6.30 L 21.60,6.23 L 18.10,4.49 L 17.97,4.49 L 17.18,4.90 L 17.08,4.90 L 16.32,4.52 L 16.29,4.45 L 17.11,4.04 L 17.11,4.01 L 16.25,3.56 L 16.19,3.56 L 15.33,4.01 L 14.44,3.56 L 14.38,3.56 L 13.52,4.01 L 12.63,3.56 L 12.56,3.56 L 9.00,5.34 L 9.00,5.41 L 9.80,5.79 L 9.83,5.82 L 9.77,5.88 L 9.00,6.27 L 8.94,6.27 L 8.05,5.82 Z" fill="#8d8d8d" stroke="none" /><path d="M 10.85,12.56 L 10.88,12.63 L 12.60,13.49 L 12.69,13.49 L 13.49,13.07 L 13.49,13.04 L 11.71,12.15 Z" fill="#a0a2aa" stroke="none" /><path d="M 18.89,12.12 L 18.07,11.71 L 18.00,11.71 L 16.22,12.60 L 16.22,12.63 L 17.05,13.04 L 17.11,13.04 L 18.89,12.15 Z" fill="#a0a2aa" stroke="none" /><path d="M 9.03,11.67 L 9.03,11.71 L 9.86,12.12 L 9.99,12.12 L 10.75,11.74 L 10.75,11.67 L 9.92,11.26 L 9.86,11.26 Z" fill="#a0a2aa" stroke="none" /><path d="M 11.71,11.26 L 12.56,11.71 L 12.63,11.71 L 13.49,11.26 L 14.38,11.71 L 14.44,11.71 L 15.30,11.26 L 15.30,11.23 L 14.47,10.82 L 14.50,10.75 L 15.27,10.37 L 15.36,10.37 L 17.11,11.26 L 17.97,10.85 L 18.00,10.78 L 16.22,9.89 L 15.33,10.34 L 14.44,9.89 L 14.38,9.89 L 11.71,11.23 Z" fill="#a0a2aa" stroke="none" /><path d="M 24.30,9.42 L 23.51,9.00 L 23.41,9.00 L 21.69,9.86 L 21.66,9.92 L 22.52,10.34 L 24.30,9.45 Z" fill="#a0a2aa" stroke="none" /><path d="M 11.71,10.37 L 11.71,10.34 L 10.91,9.96 L 10.85,9.89 L 11.67,9.48 L 11.67,9.42 L 10.85,9.00 L 10.75,9.00 L 9.00,9.89 L 9.00,9.92 L 10.78,10.82 Z" fill="#a0a2aa" stroke="none" /><path d="M 4.52,9.42 L 4.52,9.45 L 5.34,9.86 L 5.47,9.86 L 6.23,9.48 L 6.23,9.42 L 5.41,9.00 L 5.31,9.00 Z" fill="#a0a2aa" stroke="none" /><path d="M 17.11,8.52 L 17.11,8.56 L 17.91,8.94 L 17.97,9.00 L 17.15,9.42 L 17.15,9.48 L 17.97,9.89 L 18.07,9.89 L 18.89,9.48 L 18.89,9.42 L 18.07,9.00 L 18.13,8.94 L 18.89,8.56 L 18.96,8.56 L 20.71,9.45 L 20.77,9.45 L 21.63,9.00 L 21.63,8.97 L 19.85,8.08 L 18.96,8.52 L 18.89,8.52 L 18.04,8.08 Z" fill="#a0a2aa" stroke="none" /><path d="M 8.08,8.52 L 8.08,8.56 L 8.97,9.00 L 9.89,8.56 L 9.89,8.52 L 9.00,8.08 Z" fill="#a0a2aa" stroke="none" /><path d="M 26.21,7.60 L 26.21,7.67 L 26.97,8.05 L 27.10,8.05 L 27.93,7.63 L 27.90,7.57 L 27.13,7.19 L 27.04,7.19 Z" fill="#a0a2aa" stroke="none" /><path d="M 21.63,5.38 L 20.77,5.82 L 20.77,5.85 L 21.60,6.27 L 21.53,6.33 L 20.74,6.71 L 20.74,6.74 L 21.53,7.13 L 21.60,7.19 L 20.77,7.60 L 20.77,7.67 L 21.60,8.08 L 21.69,8.08 L 23.41,7.22 L 23.44,7.16 L 21.76,6.33 L 21.69,6.27 L 21.73,6.23 L 22.52,5.85 L 22.52,5.79 L 21.69,5.38 Z" fill="#a0a2aa" stroke="none" /><path d="M 9.86,5.82 L 9.00,5.38 L 8.94,5.38 L 8.08,5.82 L 7.19,5.38 L 7.13,5.38 L 6.30,5.79 L 6.30,5.85 L 7.13,6.27 L 7.06,6.33 L 5.38,7.16 L 5.41,7.22 L 6.23,7.63 L 5.41,8.05 L 5.38,8.11 L 6.20,8.52 L 6.33,8.52 L 8.05,7.67 L 8.05,7.60 L 7.25,7.22 L 7.22,7.19 L 7.28,7.13 L 8.05,6.74 L 8.11,6.74 L 9.00,7.19 L 9.83,6.78 L 9.86,6.71 L 9.07,6.33 L 9.03,6.27 L 9.86,5.85 Z" fill="#a0a2aa" stroke="none" /><path d="M 23.48,5.34 L 23.51,5.41 L 24.33,5.82 L 24.40,5.82 L 25.22,5.41 L 25.22,5.38 L 24.33,4.93 Z" fill="#a0a2aa" stroke="none" /><path d="M 5.34,5.34 L 4.49,4.93 L 3.59,5.38 L 3.59,5.41 L 4.42,5.82 L 4.49,5.82 L 5.31,5.41 Z" fill="#a0a2aa" stroke="none" /><path d="M 11.67,4.01 L 10.82,3.56 L 10.75,3.56 L 8.97,4.45 L 8.97,4.49 L 9.89,4.93 L 11.67,4.04 Z" fill="#a0a2aa" stroke="none" /><path d="M 16.22,4.49 L 17.15,4.93 L 18.93,4.04 L 18.93,4.01 L 17.18,3.12 L 17.08,3.12 L 16.25,3.53 L 16.25,3.59 L 17.08,4.01 L 17.02,4.07 L 16.22,4.45 Z" fill="#a0a2aa" stroke="none" /><path d="M 18.96,3.09 L 18.99,3.15 L 20.71,4.01 L 20.80,4.01 L 21.60,3.59 L 21.60,3.56 L 19.82,2.67 Z" fill="#a0a2aa" stroke="none" /><path d="M 16.19,3.53 L 14.47,2.67 L 14.35,2.67 L 12.63,3.53 L 12.63,3.59 L 13.46,4.01 L 13.39,4.07 L 12.60,4.45 L 12.60,4.49 L 13.52,4.93 L 14.41,4.49 L 14.41,4.45 L 13.61,4.07 L 13.55,4.01 L 13.58,3.98 L 14.41,3.56 L 15.27,4.01 L 15.36,4.01 L 16.19,3.59 Z" fill="#a0a2aa" stroke="none" /><path d="M 17.15,2.19 L 17.15,2.23 L 17.97,2.64 L 18.10,2.64 L 18.86,2.26 L 18.86,2.19 L 18.04,1.78 L 17.94,1.78 Z" fill="#a0a2aa" stroke="none" /><path d="M 12.56,1.72 L 11.80,1.34 L 11.67,1.34 L 6.33,4.01 L 6.33,4.07 L 7.09,4.45 L 7.22,4.45 L 12.56,1.78 Z" fill="#a0a2aa" stroke="none" /><path d="M 17.05,13.01 L 16.29,12.63 L 16.16,12.63 L 14.41,13.52 L 13.55,13.07 L 13.46,13.07 L 12.69,13.46 L 12.66,13.52 L 14.38,14.38 L 14.44,14.38 L 17.05,13.07 Z" fill="#a9afb6" stroke="none" /><path d="M 9.92,12.12 L 9.92,12.15 L 10.82,12.60 L 11.67,12.18 L 11.64,12.12 L 10.82,11.71 L 10.75,11.71 Z" fill="#a9afb6" stroke="none" /><path d="M 17.11,11.23 L 16.29,10.82 L 16.16,10.82 L 14.41,11.71 L 13.55,11.26 L 13.46,11.26 L 12.63,11.67 L 12.63,11.74 L 14.35,12.60 L 14.47,12.60 L 17.08,11.29 Z" fill="#a9afb6" stroke="none" /><path d="M 10.82,10.78 L 10.85,10.85 L 11.67,11.26 L 12.60,10.82 L 12.60,10.78 L 11.77,10.37 L 11.64,10.37 Z" fill="#a9afb6" stroke="none" /><path d="M 22.49,10.31 L 21.63,9.89 L 18.07,11.67 L 18.07,11.74 L 18.83,12.12 L 18.96,12.12 L 22.46,10.37 Z" fill="#a9afb6" stroke="none" /><path d="M 5.41,9.86 L 5.41,9.89 L 8.97,11.67 L 9.10,11.67 L 9.86,11.29 L 9.86,11.23 L 6.30,9.45 L 6.23,9.45 Z" fill="#a9afb6" stroke="none" /><path d="M 20.71,9.42 L 19.88,9.00 L 19.79,9.00 L 17.11,10.34 L 17.11,10.37 L 18.04,10.82 L 20.71,9.48 Z" fill="#a9afb6" stroke="none" /><path d="M 6.27,8.52 L 6.27,8.56 L 8.94,9.89 L 9.03,9.89 L 9.86,9.48 L 9.86,9.42 L 7.19,8.08 Z" fill="#a9afb6" stroke="none" /><path d="M 27.04,8.05 L 26.21,7.63 L 26.15,7.63 L 23.48,8.97 L 23.48,9.00 L 24.27,9.42 L 24.37,9.42 L 27.04,8.08 Z" fill="#a9afb6" stroke="none" /><path d="M 25.26,7.16 L 22.58,5.82 L 22.52,5.82 L 21.69,6.23 L 21.66,6.30 L 23.35,7.13 L 23.41,7.19 L 20.74,8.52 L 20.74,8.56 L 21.66,9.00 L 25.22,7.22 Z" fill="#a9afb6" stroke="none" /><path d="M 7.16,6.27 L 6.30,5.82 L 6.23,5.82 L 3.56,7.16 L 3.56,7.19 L 5.31,8.08 L 5.41,8.08 L 6.23,7.67 L 6.23,7.60 L 5.41,7.19 L 5.47,7.13 L 7.16,6.30 Z" fill="#a9afb6" stroke="none" /><path d="M 24.40,5.79 L 24.40,5.85 L 27.90,7.60 L 27.99,7.60 L 28.79,7.19 L 28.79,7.16 L 25.29,5.41 L 25.16,5.41 Z" fill="#a9afb6" stroke="none" /><path d="M 0.03,7.16 L 0.06,7.22 L 4.45,9.42 L 4.55,9.42 L 5.34,9.00 L 5.34,8.97 L 1.78,7.19 L 1.84,7.13 L 4.42,5.85 L 4.42,5.79 L 3.66,5.41 L 3.53,5.41 Z" fill="#a9afb6" stroke="none" /><path d="M 9.86,4.90 L 9.03,4.49 L 8.91,4.49 L 7.19,5.34 L 7.19,5.41 L 8.02,5.82 L 8.11,5.82 L 9.83,4.96 Z" fill="#a9afb6" stroke="none" /><path d="M 7.16,4.45 L 6.33,4.04 L 6.27,4.04 L 4.55,4.90 L 4.52,4.96 L 5.38,5.38 L 7.16,4.49 Z" fill="#a9afb6" stroke="none" /><path d="M 18.04,4.45 L 18.04,4.49 L 20.71,5.82 L 20.80,5.82 L 21.63,5.41 L 21.63,5.34 L 18.96,4.01 Z" fill="#a9afb6" stroke="none" /><path d="M 20.77,4.01 L 20.77,4.04 L 23.44,5.38 L 24.30,4.96 L 24.27,4.90 L 21.66,3.59 L 21.57,3.59 Z" fill="#a9afb6" stroke="none" /><path d="M 18.04,2.64 L 18.04,2.67 L 18.93,3.12 L 19.79,2.70 L 19.75,2.64 L 18.93,2.23 L 18.86,2.23 Z" fill="#a9afb6" stroke="none" /><path d="M 17.11,3.09 L 14.44,1.75 L 14.38,1.75 L 10.82,3.53 L 10.82,3.59 L 11.64,4.01 L 11.74,4.01 L 14.38,2.67 L 14.44,2.67 L 16.19,3.56 L 16.25,3.56 L 17.08,3.15 Z" fill="#a9afb6" stroke="none" /><path d="M 11.74,1.30 L 11.74,1.34 L 12.56,1.75 L 12.63,1.75 L 14.38,0.86 L 14.44,0.86 L 17.08,2.19 L 17.18,2.19 L 17.97,1.78 L 17.97,1.75 L 14.47,0.00 L 14.35,0.00 Z" fill="#a9afb6" stroke="none" /></svg>