<svg height="32" width="32" viewBox="0 0 32 32"><defs /><path d="M 21.60,26.27 L 21.53,26.27 L 19.82,27.13 L 19.79,27.10 L 19.79,26.05 L 19.75,26.05 L 17.97,26.94 L 17.97,28.06 L 17.08,28.50 L 17.08,29.61 L 18.89,28.72 L 18.89,27.64 L 18.96,27.58 L 19.72,27.20 L 19.79,27.23 L 19.79,28.25 L 19.85,28.25 L 21.57,27.39 L 21.60,27.36 Z" fill="#1b150d" stroke="none" /><path d="M 25.22,24.46 L 25.16,24.46 L 24.33,24.87 L 24.33,25.99 L 25.22,25.54 Z" fill="#1b150d" stroke="none" /><path d="M 16.19,23.41 L 14.41,24.30 L 14.41,25.42 L 16.19,24.52 Z" fill="#1b150d" stroke="none" /><path d="M 22.52,22.49 L 22.46,22.49 L 20.71,23.38 L 20.71,24.46 L 20.77,24.46 L 22.52,23.57 Z" fill="#1b150d" stroke="none" /><path d="M 17.97,19.21 L 17.91,19.21 L 14.41,20.96 L 14.41,22.08 L 14.47,22.08 L 15.24,21.69 L 15.27,21.73 L 15.27,22.78 L 16.19,22.33 L 16.19,21.22 L 17.97,20.33 Z" fill="#1b150d" stroke="none" /><path d="M 27.93,18.67 L 27.86,18.67 L 26.15,19.53 L 26.15,20.64 L 26.21,20.64 L 27.93,19.79 Z" fill="#1b150d" stroke="none" /><path d="M 23.41,17.59 L 20.71,18.93 L 20.71,20.04 L 20.77,20.04 L 23.38,18.74 L 23.41,18.70 Z" fill="#1b150d" stroke="none" /><path d="M 17.08,17.43 L 15.27,18.32 L 15.27,19.44 L 17.08,18.54 Z" fill="#1b150d" stroke="none" /><path d="M 16.19,14.57 L 16.13,14.57 L 15.27,15.01 L 15.27,16.10 L 15.33,16.10 L 16.19,15.65 Z" fill="#1b150d" stroke="none" /><path d="M 21.60,14.06 L 18.89,15.40 L 18.89,16.51 L 18.96,16.51 L 21.57,15.20 L 21.60,15.17 Z" fill="#1b150d" stroke="none" /><path d="M 28.82,13.77 L 27.93,14.22 L 27.93,15.30 L 27.86,15.36 L 27.07,15.75 L 27.04,15.71 L 27.04,14.66 L 26.15,15.11 L 26.15,16.19 L 26.08,16.25 L 25.22,16.67 L 25.22,17.78 L 25.29,17.78 L 26.12,17.37 L 26.15,17.40 L 26.15,18.42 L 26.21,18.42 L 27.93,17.56 L 27.93,15.36 L 27.99,15.30 L 28.82,14.89 Z" fill="#1b150d" stroke="none" /><path d="M 28.82,10.47 L 28.76,10.47 L 27.04,11.32 L 27.04,12.44 L 27.10,12.44 L 28.82,11.58 Z" fill="#1b150d" stroke="none" /><path d="M 25.22,10.05 L 25.16,10.05 L 23.41,10.94 L 23.41,12.02 L 23.48,12.02 L 25.22,11.13 Z" fill="#1b150d" stroke="none" /><path d="M 28.82,8.24 L 27.04,9.13 L 27.04,10.21 L 27.10,10.21 L 28.82,9.35 Z" fill="#1b150d" stroke="none" /><path d="M 24.33,24.91 L 24.27,24.91 L 21.60,26.24 L 21.60,27.36 L 24.30,26.02 L 24.33,25.99 Z" fill="#18130e" stroke="none" /><path d="M 17.08,24.08 L 14.44,25.38 L 14.41,25.42 L 14.41,26.53 L 17.05,25.22 L 17.08,25.19 Z" fill="#18130e" stroke="none" /><path d="M 15.27,21.66 L 14.41,22.08 L 14.41,23.19 L 14.47,23.19 L 15.27,22.78 Z" fill="#18130e" stroke="none" /><path d="M 28.82,17.11 L 28.76,17.11 L 27.04,17.97 L 27.04,19.09 L 27.10,19.09 L 27.90,18.67 L 27.93,18.70 L 27.93,19.75 L 27.99,19.75 L 28.82,19.34 Z" fill="#18130e" stroke="none" /><path d="M 28.82,14.89 L 27.93,15.33 L 27.93,16.45 L 28.82,16.00 Z" fill="#18130e" stroke="none" /><path d="M 27.04,9.13 L 25.22,10.02 L 25.22,11.13 L 27.04,10.24 Z" fill="#18130e" stroke="none" /><path d="M 23.41,26.47 L 23.35,26.47 L 21.60,27.36 L 21.60,28.41 L 21.66,28.41 L 23.41,27.51 Z" fill="#1f190f" stroke="none" /><path d="M 23.41,24.24 L 22.55,24.65 L 22.52,24.62 L 22.52,23.57 L 22.49,23.57 L 17.97,25.83 L 17.97,26.94 L 17.08,27.39 L 17.08,28.50 L 15.27,29.42 L 15.27,30.50 L 14.41,30.95 L 14.41,32.00 L 14.47,32.00 L 16.19,31.14 L 16.19,30.09 L 16.25,30.03 L 17.08,29.61 L 17.08,28.53 L 17.97,28.09 L 17.97,26.97 L 18.00,26.94 L 19.72,26.08 L 19.79,26.12 L 19.79,27.13 L 19.72,27.20 L 18.89,27.61 L 18.89,28.69 L 17.97,29.17 L 17.97,30.22 L 18.04,30.22 L 18.89,29.77 L 18.89,28.72 L 19.79,28.28 L 19.79,27.20 L 19.85,27.13 L 23.41,25.35 Z" fill="#1f190f" stroke="none" /><path d="M 24.33,22.65 L 24.33,24.87 L 24.40,24.87 L 26.12,24.02 L 26.15,24.05 L 26.15,25.07 L 26.21,25.07 L 27.01,24.65 L 27.04,24.68 L 27.04,25.70 L 27.07,25.70 L 28.82,24.81 L 28.82,23.76 L 28.76,23.76 L 27.96,24.17 L 27.93,24.14 L 27.93,23.09 L 27.10,23.51 L 27.04,23.48 L 27.04,22.43 L 25.26,23.32 L 25.22,23.28 L 25.22,22.23 L 25.16,22.23 Z" fill="#1f190f" stroke="none" /><path d="M 19.79,22.74 L 19.72,22.74 L 18.93,23.16 L 18.89,23.13 L 18.89,22.08 L 18.83,22.08 L 16.22,23.38 L 16.19,23.41 L 16.19,24.52 L 17.05,24.11 L 17.08,24.14 L 17.08,25.16 L 17.02,25.22 L 14.44,26.50 L 14.41,26.53 L 14.41,27.61 L 14.47,27.61 L 17.08,26.31 L 17.08,25.22 L 17.15,25.16 L 19.79,23.86 Z" fill="#1f190f" stroke="none" /><path d="M 26.15,19.56 L 26.08,19.56 L 25.22,20.01 L 25.22,21.12 L 26.15,20.68 Z" fill="#1f190f" stroke="none" /><path d="M 20.64,18.96 L 19.79,19.40 L 19.79,20.52 L 20.68,20.07 L 20.71,20.10 L 20.71,21.15 L 20.74,21.15 L 21.60,20.71 L 21.60,19.63 L 21.53,19.63 L 20.74,20.04 L 20.71,20.01 L 20.71,18.96 Z" fill="#1f190f" stroke="none" /><path d="M 28.82,16.00 L 27.93,16.45 L 27.93,17.53 L 27.99,17.53 L 28.82,17.11 Z" fill="#1f190f" stroke="none" /><path d="M 27.93,13.11 L 26.18,13.96 L 26.15,14.00 L 26.15,15.08 L 26.08,15.14 L 25.22,15.55 L 25.22,16.67 L 23.41,17.59 L 23.41,18.70 L 24.30,18.26 L 24.33,18.29 L 24.33,19.34 L 26.15,18.45 L 26.15,17.37 L 26.21,17.30 L 27.04,16.89 L 27.04,15.81 L 27.10,15.75 L 27.93,15.33 Z" fill="#1f190f" stroke="none" /><path d="M 27.04,11.36 L 26.97,11.36 L 26.15,11.77 L 26.15,12.88 L 26.21,12.88 L 27.04,12.47 Z" fill="#1f190f" stroke="none" /><path d="M 25.22,11.13 L 24.33,11.58 L 24.33,12.69 L 25.22,12.25 Z" fill="#1f190f" stroke="none" /><path d="M 23.41,10.94 L 21.60,11.83 L 21.60,12.91 L 21.53,12.98 L 20.71,13.39 L 20.71,14.50 L 21.57,14.09 L 21.60,14.12 L 21.60,15.14 L 21.53,15.20 L 18.93,16.51 L 18.89,16.48 L 18.89,15.43 L 18.83,15.43 L 17.15,16.29 L 17.08,16.25 L 17.08,15.24 L 17.15,15.17 L 18.89,14.31 L 18.89,13.20 L 17.11,14.09 L 17.08,14.06 L 17.08,13.04 L 17.05,13.04 L 14.44,14.35 L 14.41,14.38 L 14.41,16.54 L 15.24,16.13 L 15.27,16.16 L 15.27,17.21 L 14.41,17.65 L 14.41,19.85 L 14.47,19.85 L 15.27,19.44 L 15.27,18.35 L 15.30,18.32 L 17.05,17.46 L 17.08,17.50 L 17.08,19.63 L 17.15,19.63 L 17.94,19.21 L 17.97,19.24 L 17.97,20.29 L 18.04,20.29 L 18.89,19.85 L 18.89,18.74 L 18.00,19.18 L 17.97,19.15 L 17.97,18.10 L 18.00,18.07 L 20.68,16.73 L 20.71,16.76 L 20.71,17.81 L 20.77,17.81 L 24.33,16.03 L 24.33,14.92 L 24.27,14.92 L 21.63,16.25 L 21.60,16.22 L 21.60,15.20 L 21.66,15.14 L 22.52,14.73 L 22.52,13.61 L 22.46,13.61 L 21.63,14.03 L 21.60,14.00 L 21.60,12.98 L 21.66,12.91 L 23.41,12.06 Z" fill="#1f190f" stroke="none" /><path d="M 28.82,7.19 L 28.76,7.19 L 27.93,7.60 L 27.93,8.68 L 28.82,8.24 Z" fill="#1f190f" stroke="none" /><path d="M 15.27,29.42 L 14.41,29.84 L 14.41,30.95 L 15.27,30.54 Z" fill="#241c11" stroke="none" /><path d="M 17.97,29.17 L 17.08,29.61 L 17.08,30.66 L 17.15,30.66 L 17.97,30.25 Z" fill="#241c11" stroke="none" /><path d="M 21.60,27.36 L 18.89,28.69 L 18.89,29.77 L 21.60,28.44 Z" fill="#241c11" stroke="none" /><path d="M 27.04,24.65 L 26.97,24.65 L 26.18,25.07 L 26.15,25.03 L 26.15,23.98 L 25.22,24.43 L 25.22,25.51 L 25.16,25.57 L 23.41,26.43 L 23.41,27.51 L 27.01,25.73 L 27.04,25.70 Z" fill="#241c11" stroke="none" /><path d="M 28.82,21.53 L 27.04,22.43 L 27.04,23.54 L 27.90,23.13 L 27.93,23.16 L 27.93,24.17 L 27.99,24.17 L 28.82,23.76 Z" fill="#241c11" stroke="none" /><path d="M 17.08,18.54 L 17.02,18.54 L 16.19,18.96 L 16.19,20.07 L 16.25,20.07 L 17.08,19.66 Z" fill="#241c11" stroke="none" /><path d="M 28.82,19.34 L 28.76,19.34 L 25.29,21.09 L 25.22,21.06 L 25.22,20.04 L 25.29,19.98 L 27.04,19.12 L 27.04,18.00 L 26.97,18.00 L 24.40,19.31 L 24.33,19.28 L 24.33,18.26 L 24.27,18.26 L 21.60,19.59 L 21.60,20.71 L 21.63,20.71 L 24.27,19.37 L 24.33,19.40 L 24.33,20.42 L 24.27,20.49 L 22.52,21.34 L 22.52,24.68 L 24.33,23.79 L 24.33,21.60 L 24.40,21.53 L 25.16,21.15 L 25.22,21.18 L 25.22,23.32 L 25.29,23.32 L 26.15,22.87 L 26.15,21.79 L 26.21,21.73 L 28.82,20.42 Z" fill="#241c11" stroke="none" /><path d="M 20.71,16.73 L 20.64,16.73 L 17.97,18.07 L 17.97,19.18 L 18.04,19.18 L 18.86,18.77 L 18.89,18.80 L 18.89,19.82 L 18.83,19.88 L 16.19,21.18 L 16.19,22.30 L 14.41,23.19 L 14.41,24.30 L 14.44,24.30 L 17.05,23.00 L 17.08,22.97 L 17.08,21.88 L 18.83,20.99 L 18.89,21.03 L 18.89,23.16 L 18.96,23.16 L 19.75,22.74 L 19.79,22.78 L 19.79,23.83 L 19.75,23.86 L 17.08,25.19 L 17.08,27.39 L 16.19,27.83 L 16.19,28.95 L 16.25,28.95 L 17.08,28.53 L 17.08,27.42 L 17.97,26.97 L 17.97,25.86 L 19.75,24.97 L 19.79,24.94 L 19.79,23.86 L 20.71,23.38 L 20.71,22.27 L 19.82,22.71 L 19.79,22.68 L 19.79,21.63 L 20.71,21.15 L 20.71,20.07 L 20.64,20.07 L 19.82,20.49 L 19.79,20.45 L 19.79,19.44 L 19.85,19.37 L 21.60,18.51 L 21.60,17.40 L 21.53,17.40 L 20.74,17.81 L 20.71,17.78 Z" fill="#241c11" stroke="none" /><path d="M 15.27,16.13 L 15.20,16.13 L 14.41,16.54 L 14.41,17.65 L 15.27,17.24 Z" fill="#241c11" stroke="none" /><path d="M 17.97,14.76 L 17.08,15.20 L 17.08,16.32 L 17.97,15.87 Z" fill="#241c11" stroke="none" /><path d="M 19.75,12.76 L 18.89,13.20 L 18.89,14.28 L 18.96,14.28 L 19.75,13.87 L 19.79,13.90 L 19.79,14.95 L 19.85,14.95 L 20.71,14.50 L 20.71,13.39 L 19.82,13.84 L 19.79,13.81 L 19.79,12.76 Z" fill="#241c11" stroke="none" /><path d="M 17.97,12.60 L 17.08,13.04 L 17.08,14.09 L 17.15,14.09 L 17.97,13.68 Z" fill="#241c11" stroke="none" /><path d="M 28.82,11.58 L 28.76,11.58 L 26.18,12.88 L 26.15,12.85 L 26.15,11.80 L 26.08,11.80 L 25.22,12.25 L 25.22,13.33 L 25.16,13.39 L 23.44,14.25 L 23.41,14.22 L 23.41,13.17 L 24.33,12.69 L 24.33,11.58 L 21.63,12.91 L 21.60,12.95 L 21.60,14.06 L 22.49,13.61 L 22.52,13.65 L 22.52,14.70 L 21.60,15.17 L 21.60,16.25 L 21.66,16.25 L 27.86,13.14 L 27.93,13.17 L 27.93,14.22 L 28.79,13.81 L 28.82,13.77 Z" fill="#241c11" stroke="none" /><path d="M 28.82,9.35 L 28.76,9.35 L 27.93,9.77 L 27.93,10.88 L 27.99,10.88 L 28.82,10.47 Z" fill="#241c11" stroke="none" /><path d="M 25.22,8.97 L 22.52,10.31 L 22.52,11.39 L 25.22,10.05 Z" fill="#241c11" stroke="none" /><path d="M 27.93,7.63 L 27.86,7.63 L 27.04,8.05 L 27.04,9.13 L 27.93,8.68 Z" fill="#241c11" stroke="none" /><path d="M 17.08,29.61 L 16.19,30.06 L 16.19,31.11 L 16.25,31.11 L 17.08,30.70 Z" fill="#292013" stroke="none" /><path d="M 17.08,26.31 L 17.02,26.31 L 14.41,27.61 L 14.41,29.84 L 14.47,29.84 L 16.19,28.98 L 16.19,27.86 L 17.08,27.42 Z" fill="#292013" stroke="none" /><path d="M 24.33,23.79 L 24.27,23.79 L 23.41,24.24 L 23.41,25.35 L 24.33,24.91 Z" fill="#292013" stroke="none" /><path d="M 25.22,21.12 L 24.33,21.57 L 24.33,22.65 L 24.40,22.65 L 25.22,22.23 Z" fill="#292013" stroke="none" /><path d="M 18.89,20.96 L 17.08,21.85 L 17.08,22.97 L 18.89,22.08 Z" fill="#292013" stroke="none" /><path d="M 28.82,20.42 L 26.18,21.73 L 26.15,21.76 L 26.15,22.87 L 28.79,21.57 L 28.82,21.53 Z" fill="#292013" stroke="none" /><path d="M 24.33,19.34 L 19.79,21.60 L 19.79,22.71 L 19.85,22.71 L 20.64,22.30 L 20.71,22.33 L 20.71,23.35 L 20.64,23.41 L 19.79,23.83 L 19.79,24.94 L 20.71,24.49 L 20.71,23.41 L 20.77,23.35 L 22.52,22.49 L 22.52,21.38 L 22.55,21.34 L 24.33,20.45 Z" fill="#292013" stroke="none" /><path d="M 16.19,18.99 L 16.13,18.99 L 14.41,19.85 L 14.41,20.96 L 14.47,20.96 L 16.19,20.10 Z" fill="#292013" stroke="none" /><path d="M 26.15,14.00 L 24.33,14.89 L 24.33,16.00 L 24.30,16.03 L 21.60,17.37 L 21.60,18.48 L 21.66,18.48 L 25.22,16.70 L 25.22,15.59 L 26.15,15.11 Z" fill="#292013" stroke="none" /><path d="M 22.52,10.34 L 22.46,10.34 L 17.97,12.60 L 17.97,13.65 L 18.04,13.65 L 19.72,12.79 L 19.79,12.82 L 19.79,13.84 L 17.97,14.76 L 17.97,15.87 L 19.79,14.98 L 19.79,13.87 L 21.60,12.95 L 21.60,11.86 L 22.52,11.39 Z" fill="#292013" stroke="none" /><path d="M 27.93,9.80 L 27.86,9.80 L 25.26,11.10 L 25.22,11.13 L 25.22,12.21 L 25.16,12.28 L 23.41,13.14 L 23.41,14.25 L 23.48,14.25 L 25.22,13.36 L 25.22,12.28 L 25.29,12.21 L 27.93,10.91 Z" fill="#292013" stroke="none" /><path d="M 27.04,8.08 L 26.97,8.08 L 25.22,8.97 L 25.22,10.02 L 25.29,10.02 L 27.04,9.13 Z" fill="#292013" stroke="none" /><path d="M 7.22,26.27 L 7.22,27.36 L 7.25,27.39 L 9.86,28.69 L 9.92,28.69 L 9.92,27.61 L 9.89,27.58 L 7.28,26.27 Z" fill="#261e16" stroke="none" /><path d="M 12.63,23.41 L 12.63,24.52 L 13.55,25.00 L 13.55,26.12 L 14.41,26.53 L 14.41,24.30 Z" fill="#261e16" stroke="none" /><path d="M 13.55,21.66 L 13.55,22.78 L 14.35,23.19 L 14.41,23.19 L 14.41,22.08 Z" fill="#261e16" stroke="none" /><path d="M 0.00,18.23 L 0.00,19.34 L 2.61,20.64 L 2.67,20.64 L 2.67,19.53 L 0.06,18.23 Z" fill="#261e16" stroke="none" /><path d="M 0.00,14.89 L 0.00,16.00 L 0.89,16.45 L 0.89,15.33 Z" fill="#261e16" stroke="none" /><path d="M 10.85,13.68 L 10.85,14.76 L 12.63,15.65 L 12.63,14.54 L 10.91,13.68 Z" fill="#261e16" stroke="none" /><path d="M 9.92,27.61 L 9.92,28.72 L 10.85,29.17 L 10.85,28.06 Z" fill="#2c2216" stroke="none" /><path d="M 11.74,24.08 L 11.74,25.19 L 13.49,26.08 L 13.55,26.08 L 13.55,24.97 Z" fill="#2c2216" stroke="none" /><path d="M 2.67,23.98 L 2.67,25.10 L 4.49,25.99 L 4.49,24.94 L 4.52,24.91 L 5.34,25.32 L 5.41,25.38 L 5.41,26.47 L 7.22,27.36 L 7.22,26.24 L 5.47,25.38 L 5.41,25.32 L 5.41,24.24 L 5.38,24.21 L 3.66,23.35 L 3.59,23.35 L 3.59,24.40 L 3.56,24.43 Z" fill="#2c2216" stroke="none" /><path d="M 6.30,22.49 L 6.30,23.57 L 8.05,24.46 L 8.11,24.46 L 8.11,23.38 L 6.36,22.49 Z" fill="#2c2216" stroke="none" /><path d="M 11.74,19.66 L 11.74,20.71 L 11.71,20.74 L 10.91,20.33 L 10.85,20.33 L 10.85,21.44 L 11.74,21.88 L 11.74,22.97 L 11.77,23.00 L 13.49,23.86 L 13.55,23.86 L 13.55,21.73 L 13.61,21.69 L 14.35,22.08 L 14.41,22.08 L 14.41,20.96 L 13.55,20.55 L 13.55,21.60 L 13.49,21.63 L 12.63,21.18 L 12.63,20.07 L 11.80,19.66 Z" fill="#2c2216" stroke="none" /><path d="M 6.30,18.04 L 6.30,19.15 L 6.33,19.18 L 9.03,20.52 L 9.03,19.40 L 9.00,19.37 Z" fill="#2c2216" stroke="none" /><path d="M 0.00,17.11 L 0.00,18.23 L 1.72,19.09 L 1.78,19.09 L 1.78,17.97 L 0.06,17.11 Z" fill="#2c2216" stroke="none" /><path d="M 12.63,16.76 L 12.63,17.88 L 14.41,18.77 L 14.41,17.65 Z" fill="#2c2216" stroke="none" /><path d="M 12.63,14.57 L 12.63,15.65 L 14.41,16.54 L 14.41,15.43 L 12.69,14.57 Z" fill="#2c2216" stroke="none" /><path d="M 0.00,13.77 L 0.00,14.89 L 0.83,15.30 L 0.89,15.36 L 0.89,16.45 L 0.92,16.48 L 1.78,16.89 L 1.78,15.84 L 1.84,15.81 L 3.53,16.67 L 3.59,16.67 L 3.59,15.55 Z" fill="#2c2216" stroke="none" /><path d="M 9.03,12.76 L 9.03,13.87 L 10.85,14.76 L 10.85,13.65 Z" fill="#2c2216" stroke="none" /><path d="M 4.49,12.69 L 4.49,13.81 L 4.52,13.84 L 7.22,15.17 L 7.22,14.06 L 7.19,14.03 Z" fill="#2c2216" stroke="none" /><path d="M 0.89,12.02 L 0.89,13.11 L 2.67,14.00 L 2.67,12.88 L 0.95,12.02 Z" fill="#2c2216" stroke="none" /><path d="M 0.89,8.68 L 0.89,9.80 L 1.72,10.21 L 1.78,10.21 L 1.78,9.13 Z" fill="#2c2216" stroke="none" /><path d="M 7.22,27.36 L 7.22,28.44 L 9.03,29.33 L 9.03,28.25 Z" fill="#322819" stroke="none" /><path d="M 9.92,25.38 L 9.92,27.61 L 11.74,28.53 L 11.74,29.61 L 12.56,30.03 L 12.63,30.09 L 12.63,31.14 L 14.35,32.00 L 14.41,32.00 L 14.41,30.95 L 13.55,30.50 L 13.55,29.42 L 12.63,28.95 L 12.63,27.83 L 10.88,26.97 L 10.85,26.94 L 10.85,25.83 Z" fill="#322819" stroke="none" /><path d="M 10.85,23.63 L 10.85,24.75 L 11.74,25.19 L 11.74,24.08 Z" fill="#322819" stroke="none" /><path d="M 13.55,22.78 L 13.55,23.89 L 14.41,24.30 L 14.41,23.19 Z" fill="#322819" stroke="none" /><path d="M 0.00,23.76 L 0.00,24.81 L 1.78,25.70 L 1.78,24.68 L 1.81,24.65 L 2.61,25.07 L 2.67,25.07 L 2.67,24.05 L 2.70,24.02 L 3.53,24.43 L 3.59,24.43 L 3.59,23.38 L 3.63,23.35 L 5.34,24.21 L 5.41,24.27 L 5.41,25.29 L 5.34,25.32 L 4.55,24.91 L 4.49,24.91 L 4.49,25.92 L 4.45,25.96 L 3.59,25.54 L 3.59,26.62 L 4.42,27.04 L 4.49,27.04 L 4.49,26.05 L 4.52,26.02 L 5.34,26.43 L 5.41,26.43 L 5.41,25.42 L 5.47,25.38 L 9.03,27.17 L 9.03,26.05 L 8.11,25.57 L 8.11,24.46 L 3.66,22.23 L 3.59,22.23 L 3.59,23.28 L 3.56,23.32 L 2.67,22.87 L 2.67,23.92 L 2.64,23.95 L 0.92,23.09 L 0.89,23.09 L 0.89,24.14 L 0.86,24.17 L 0.06,23.76 Z" fill="#322819" stroke="none" /><path d="M 9.03,19.40 L 9.03,20.52 L 9.86,20.93 L 9.92,20.99 L 9.92,22.08 L 11.74,22.97 L 11.74,21.92 L 11.77,21.88 L 12.56,22.30 L 12.63,22.30 L 12.63,21.25 L 12.66,21.22 L 13.55,21.66 L 13.55,19.44 L 13.52,19.40 L 11.80,18.54 L 11.74,18.54 L 11.74,19.59 L 11.71,19.63 L 10.91,19.21 L 10.85,19.21 L 10.85,20.26 L 10.82,20.29 Z" fill="#322819" stroke="none" /><path d="M 0.00,19.34 L 0.00,20.42 L 0.03,20.45 L 2.64,21.76 L 2.67,21.76 L 2.67,20.71 L 2.70,20.68 L 5.34,22.01 L 5.41,22.01 L 5.41,20.90 L 4.55,20.49 L 4.49,20.42 L 4.49,19.34 L 1.84,18.00 L 1.78,18.00 L 1.78,19.12 L 2.67,19.56 L 2.67,20.61 L 2.64,20.64 L 0.06,19.34 Z" fill="#322819" stroke="none" /><path d="M 5.41,17.59 L 5.41,18.70 L 6.23,19.12 L 6.30,19.18 L 6.30,20.26 L 7.22,20.71 L 7.22,19.59 L 6.36,19.18 L 6.30,19.12 L 6.30,18.04 Z" fill="#322819" stroke="none" /><path d="M 11.74,16.32 L 11.74,17.43 L 12.63,17.88 L 12.63,16.76 Z" fill="#322819" stroke="none" /><path d="M 9.92,14.31 L 9.92,15.43 L 10.85,15.87 L 10.85,14.76 L 9.99,14.31 Z" fill="#322819" stroke="none" /><path d="M 13.55,13.96 L 13.55,15.01 L 14.35,15.43 L 14.41,15.43 L 14.41,14.38 L 13.61,13.96 Z" fill="#322819" stroke="none" /><path d="M 0.00,7.19 L 0.00,9.35 L 0.89,9.80 L 0.89,10.85 L 0.86,10.88 L 0.06,10.47 L 0.00,10.47 L 0.00,12.66 L 0.89,13.11 L 0.89,12.06 L 0.92,12.02 L 2.67,12.91 L 2.67,15.11 L 3.59,15.59 L 3.59,16.70 L 4.42,17.11 L 4.49,17.11 L 4.49,16.00 L 3.59,15.55 L 3.59,14.50 L 3.63,14.47 L 6.23,15.78 L 6.30,15.84 L 6.30,16.92 L 6.33,16.95 L 9.92,18.74 L 9.92,17.62 L 9.89,17.59 L 7.22,16.25 L 7.22,15.24 L 7.25,15.20 L 8.11,15.62 L 8.11,14.50 L 7.28,14.09 L 7.22,14.03 L 7.22,13.01 L 7.28,12.98 L 8.97,13.84 L 9.03,13.84 L 9.03,12.76 L 7.28,11.86 L 7.22,11.86 L 7.22,12.88 L 7.19,12.91 L 6.36,12.50 L 6.30,12.50 L 6.30,13.61 L 7.16,14.03 L 7.22,14.09 L 7.22,15.11 L 7.19,15.14 L 4.55,13.84 L 4.49,13.77 L 4.49,12.69 L 2.67,11.77 L 2.67,10.72 L 2.70,10.69 L 4.49,11.58 L 4.49,10.47 L 2.74,9.61 L 2.67,9.54 L 2.67,8.49 L 0.06,7.19 Z" fill="#322819" stroke="none" /><path d="M 9.03,28.28 L 9.03,29.33 L 9.07,29.36 L 12.56,31.11 L 12.63,31.11 L 12.63,30.06 L 11.80,29.65 L 11.74,29.58 L 11.74,28.50 L 10.91,28.09 L 10.85,28.09 L 10.85,29.11 L 10.78,29.14 L 9.10,28.28 Z" fill="#3a2e1c" stroke="none" /><path d="M 12.63,27.86 L 12.63,28.98 L 13.49,29.39 L 13.55,29.46 L 13.55,30.54 L 14.41,30.95 L 14.41,28.72 L 12.69,27.86 Z" fill="#3a2e1c" stroke="none" /><path d="M 4.49,25.99 L 4.49,27.07 L 7.16,28.41 L 7.22,28.41 L 7.22,27.36 L 7.19,27.32 Z" fill="#3a2e1c" stroke="none" /><path d="M 2.67,25.10 L 2.67,26.15 L 3.53,26.59 L 3.59,26.59 L 3.59,25.54 L 2.74,25.10 Z" fill="#3a2e1c" stroke="none" /><path d="M 0.00,22.65 L 0.00,23.76 L 0.83,24.17 L 0.89,24.17 L 0.89,23.09 Z" fill="#3a2e1c" stroke="none" /><path d="M 7.22,19.63 L 7.22,20.71 L 7.25,20.74 L 9.92,22.08 L 9.92,23.13 L 9.89,23.16 L 8.11,22.27 L 8.11,25.61 L 9.92,26.50 L 9.92,24.33 L 9.96,24.30 L 10.78,24.72 L 10.85,24.78 L 10.85,26.97 L 11.67,27.39 L 11.74,27.39 L 11.74,26.34 L 11.77,26.31 L 14.35,27.61 L 14.41,27.61 L 14.41,26.53 L 14.38,26.50 L 10.91,24.78 L 10.85,24.72 L 10.85,23.70 L 10.88,23.67 L 12.63,24.52 L 12.63,23.41 L 9.96,22.08 L 9.92,22.04 L 9.92,20.96 L 9.89,20.93 L 7.28,19.63 Z" fill="#3a2e1c" stroke="none" /><path d="M 13.55,16.13 L 13.55,17.24 L 14.41,17.65 L 14.41,16.54 L 13.61,16.13 Z" fill="#3a2e1c" stroke="none" /><path d="M 3.66,14.47 L 3.59,14.47 L 3.59,15.59 L 4.49,16.03 L 4.49,17.08 L 4.45,17.11 L 1.81,15.78 L 1.78,15.78 L 1.78,16.83 L 1.75,16.86 L 0.00,16.00 L 0.00,17.11 L 2.61,18.42 L 2.67,18.42 L 2.67,17.40 L 2.70,17.37 L 4.45,18.23 L 4.49,18.26 L 4.49,20.45 L 5.41,20.93 L 5.41,21.98 L 5.38,22.01 L 2.74,20.68 L 2.67,20.68 L 2.67,22.81 L 2.61,22.84 L 1.78,22.43 L 1.78,23.54 L 2.64,23.98 L 2.67,23.98 L 2.67,22.93 L 2.70,22.90 L 3.53,23.32 L 3.59,23.32 L 3.59,22.27 L 3.63,22.23 L 5.38,23.13 L 5.41,23.13 L 5.41,22.08 L 5.44,22.04 L 6.23,22.46 L 6.30,22.46 L 6.30,21.34 L 5.41,20.90 L 5.41,19.85 L 5.44,19.82 L 6.23,20.23 L 6.30,20.23 L 6.30,19.15 L 5.47,18.74 L 5.41,18.67 L 5.41,17.65 L 5.47,17.62 L 7.16,18.48 L 7.22,18.48 L 7.22,17.37 L 6.36,16.95 L 6.30,16.89 L 6.30,15.81 Z" fill="#3a2e1c" stroke="none" /><path d="M 1.78,13.55 L 1.78,14.66 L 2.67,15.11 L 2.67,14.00 Z" fill="#3a2e1c" stroke="none" /><path d="M 12.63,13.49 L 12.63,14.57 L 13.55,15.01 L 13.55,13.93 Z" fill="#3a2e1c" stroke="none" /><path d="M 7.22,12.95 L 7.22,14.06 L 8.05,14.47 L 8.11,14.54 L 8.11,15.55 L 8.08,15.59 L 7.22,15.17 L 7.22,16.29 L 13.49,19.40 L 13.55,19.47 L 13.55,20.55 L 14.35,20.96 L 14.41,20.96 L 14.41,18.77 L 11.80,17.46 L 11.74,17.40 L 11.74,16.32 L 11.71,16.29 L 10.85,15.87 L 10.85,16.92 L 10.78,16.95 L 9.07,16.10 L 9.03,16.06 L 9.03,15.01 L 9.07,14.98 L 9.86,15.40 L 9.92,15.40 L 9.92,14.28 Z" fill="#3a2e1c" stroke="none" /><path d="M 8.11,11.23 L 8.11,12.31 L 10.78,13.65 L 10.85,13.65 L 10.85,12.60 L 10.82,12.56 Z" fill="#3a2e1c" stroke="none" /><path d="M 2.67,10.69 L 2.67,11.80 L 3.59,12.25 L 3.59,11.13 L 2.74,10.69 Z" fill="#3a2e1c" stroke="none" /><path d="M 4.49,10.50 L 4.49,11.58 L 5.41,12.06 L 5.41,13.17 L 6.23,13.58 L 6.30,13.58 L 6.30,12.47 L 5.41,12.02 L 5.41,10.94 L 4.55,10.50 Z" fill="#3a2e1c" stroke="none" /><path d="M 0.00,9.35 L 0.00,10.47 L 0.83,10.88 L 0.89,10.88 L 0.89,9.77 L 0.06,9.35 Z" fill="#3a2e1c" stroke="none" /><path d="M 2.67,8.52 L 2.67,9.57 L 3.53,10.02 L 3.59,10.02 L 3.59,8.97 L 2.74,8.52 Z" fill="#3a2e1c" stroke="none" /><path d="M 12.63,11.67 L 12.63,11.74 L 14.35,12.60 L 14.47,12.60 L 16.19,11.74 L 16.19,11.67 L 15.36,11.26 L 15.27,11.26 L 14.41,11.71 L 13.55,11.26 L 13.46,11.26 Z" fill="#5c1c1e" stroke="none" /><path d="M 9.89,10.34 L 9.89,10.37 L 11.67,11.26 L 12.60,10.82 L 12.60,10.78 L 10.82,9.89 Z" fill="#5c1c1e" stroke="none" /><path d="M 18.96,9.42 L 18.96,9.48 L 19.79,9.89 L 19.88,9.89 L 20.71,9.48 L 20.71,9.42 L 19.88,9.00 L 19.79,9.00 Z" fill="#5c1c1e" stroke="none" /><path d="M 12.63,8.97 L 12.66,9.03 L 14.38,9.89 L 14.44,9.89 L 16.19,9.00 L 16.19,8.97 L 15.36,8.56 L 15.27,8.56 L 14.41,9.00 L 13.55,8.56 L 13.46,8.56 Z" fill="#5c1c1e" stroke="none" /><path d="M 7.19,8.97 L 7.22,9.03 L 8.94,9.89 L 9.03,9.89 L 9.86,9.48 L 9.86,9.42 L 8.14,8.56 L 8.02,8.56 Z" fill="#5c1c1e" stroke="none" /><path d="M 10.82,8.08 L 10.82,8.11 L 11.64,8.52 L 11.77,8.52 L 12.60,8.11 L 12.60,8.08 L 11.71,7.63 Z" fill="#5c1c1e" stroke="none" /><path d="M 12.63,7.16 L 12.63,7.22 L 13.46,7.63 L 13.55,7.63 L 14.38,7.22 L 14.38,7.16 L 13.55,6.74 L 13.46,6.74 Z" fill="#5c1c1e" stroke="none" /><path d="M 25.26,7.16 L 22.58,5.82 L 22.52,5.82 L 21.69,6.23 L 21.66,6.30 L 23.35,7.13 L 23.41,7.19 L 20.74,8.52 L 20.74,8.56 L 21.66,9.00 L 25.22,7.22 Z" fill="#5c1c1e" stroke="none" /><path d="M 19.88,5.34 L 19.88,5.41 L 20.71,5.82 L 20.80,5.82 L 21.63,5.41 L 21.63,5.34 L 20.80,4.93 L 20.71,4.93 Z" fill="#5c1c1e" stroke="none" /><path d="M 10.78,6.27 L 10.78,6.30 L 11.71,6.74 L 14.41,5.38 L 17.97,7.16 L 18.00,7.19 L 17.97,7.22 L 17.15,7.63 L 17.15,7.67 L 17.97,8.08 L 18.07,8.08 L 19.82,7.19 L 19.82,7.16 L 14.47,4.49 L 14.35,4.49 Z" fill="#5c1c1e" stroke="none" /><path d="M 16.25,3.53 L 16.25,3.59 L 17.08,4.01 L 17.18,4.01 L 18.00,3.59 L 18.00,3.53 L 17.18,3.12 L 17.08,3.12 Z" fill="#5c1c1e" stroke="none" /><path d="M 12.56,3.53 L 11.74,3.12 L 11.64,3.12 L 3.56,7.16 L 3.56,7.19 L 6.20,8.52 L 6.33,8.52 L 7.16,8.11 L 7.16,8.08 L 5.44,7.22 L 5.41,7.19 L 5.47,7.13 L 12.56,3.59 Z" fill="#5c1c1e" stroke="none" /><path d="M 12.60,2.64 L 12.60,2.67 L 13.49,3.12 L 14.41,2.67 L 14.41,2.64 L 13.52,2.19 Z" fill="#5c1c1e" stroke="none" /><path d="M 11.74,26.31 L 11.74,27.42 L 14.35,28.72 L 14.41,28.72 L 14.41,27.61 L 11.80,26.31 Z" fill="#42351f" stroke="none" /><path d="M 9.03,26.05 L 9.03,27.17 L 9.92,27.61 L 9.92,26.50 Z" fill="#42351f" stroke="none" /><path d="M 1.78,24.65 L 1.78,25.70 L 2.67,26.15 L 2.67,25.07 L 1.84,24.65 Z" fill="#42351f" stroke="none" /><path d="M 9.92,24.30 L 9.92,25.38 L 10.78,25.83 L 10.85,25.83 L 10.85,24.75 L 9.99,24.30 Z" fill="#42351f" stroke="none" /><path d="M 0.00,20.42 L 0.00,22.65 L 0.03,22.68 L 1.75,23.54 L 1.78,23.54 L 1.78,22.49 L 1.81,22.46 L 2.67,22.87 L 2.67,21.76 L 2.64,21.73 Z" fill="#42351f" stroke="none" /><path d="M 5.41,19.82 L 5.41,20.93 L 6.30,21.38 L 6.30,22.43 L 6.27,22.46 L 5.47,22.04 L 5.41,22.04 L 5.41,23.13 L 5.44,23.16 L 6.30,23.57 L 6.30,22.52 L 6.33,22.49 L 8.11,23.38 L 8.11,22.33 L 8.14,22.30 L 9.86,23.16 L 9.92,23.16 L 9.92,22.04 L 5.47,19.82 Z" fill="#42351f" stroke="none" /><path d="M 7.22,17.40 L 7.22,18.51 L 10.78,20.29 L 10.85,20.29 L 10.85,19.24 L 10.88,19.21 L 11.67,19.63 L 11.74,19.63 L 11.74,18.51 L 9.96,17.62 L 9.92,17.62 L 9.92,18.67 L 9.86,18.70 L 7.28,17.40 Z" fill="#42351f" stroke="none" /><path d="M 2.67,17.34 L 2.67,18.45 L 4.49,19.34 L 4.49,18.23 Z" fill="#42351f" stroke="none" /><path d="M 9.03,14.98 L 9.03,16.10 L 10.82,16.99 L 10.85,16.99 L 10.85,15.94 L 10.91,15.90 L 13.49,17.21 L 13.55,17.21 L 13.55,16.10 L 10.88,14.76 L 10.85,14.76 L 10.85,15.81 L 10.82,15.84 L 9.10,14.98 Z" fill="#42351f" stroke="none" /><path d="M 0.00,12.66 L 0.00,13.77 L 1.78,14.66 L 1.78,13.55 Z" fill="#42351f" stroke="none" /><path d="M 10.85,12.60 L 10.85,13.68 L 12.56,14.54 L 12.63,14.54 L 12.63,13.49 Z" fill="#42351f" stroke="none" /><path d="M 3.59,8.97 L 3.59,10.05 L 5.34,10.91 L 5.41,10.97 L 5.41,11.99 L 5.38,12.02 L 3.59,11.13 L 3.59,12.25 L 3.63,12.28 L 5.34,13.14 L 5.41,13.14 L 5.41,12.09 L 5.44,12.06 L 7.19,12.95 L 7.22,12.95 L 7.22,11.90 L 7.25,11.86 L 8.05,12.28 L 8.11,12.28 L 8.11,11.23 L 8.08,11.20 Z" fill="#42351f" stroke="none" /><path d="M 21.66,9.92 L 22.52,10.34 L 23.41,9.89 L 23.41,9.86 L 22.58,9.45 L 22.52,9.45 L 21.69,9.86 Z" fill="#433422" stroke="none" /><path d="M 26.12,8.49 L 25.26,8.08 L 24.37,8.52 L 24.37,8.56 L 25.19,8.97 L 25.26,8.97 L 26.08,8.56 Z" fill="#433422" stroke="none" /><path d="M 26.21,7.60 L 26.21,7.67 L 26.97,8.05 L 27.10,8.05 L 27.93,7.63 L 27.90,7.57 L 27.13,7.19 L 27.04,7.19 Z" fill="#433422" stroke="none" /><path d="M 5.41,4.52 L 6.27,4.93 L 7.16,4.49 L 7.16,4.45 L 6.33,4.04 L 6.27,4.04 L 5.44,4.45 Z" fill="#433422" stroke="none" /><path d="M 9.86,3.09 L 9.00,2.67 L 8.11,3.12 L 8.11,3.15 L 8.94,3.56 L 9.00,3.56 L 9.83,3.15 Z" fill="#433422" stroke="none" /><path d="M 11.71,11.23 L 11.74,11.29 L 12.56,11.71 L 12.63,11.71 L 13.49,11.26 L 13.49,11.23 L 12.66,10.82 L 12.53,10.82 Z" fill="#632423" stroke="none" /><path d="M 19.82,9.89 L 18.96,9.45 L 18.89,9.45 L 15.33,11.23 L 15.33,11.26 L 16.19,11.71 L 16.25,11.71 L 19.82,9.92 Z" fill="#632423" stroke="none" /><path d="M 9.00,9.89 L 9.00,9.92 L 9.83,10.34 L 9.96,10.34 L 10.78,9.92 L 10.75,9.86 L 9.92,9.45 L 9.86,9.45 Z" fill="#632423" stroke="none" /><path d="M 19.85,8.97 L 19.88,9.03 L 20.71,9.45 L 20.77,9.45 L 21.63,9.00 L 21.63,8.97 L 20.80,8.56 L 20.68,8.56 Z" fill="#632423" stroke="none" /><path d="M 11.71,8.52 L 11.71,8.56 L 12.60,9.00 L 13.49,8.56 L 13.49,8.52 L 12.66,8.11 L 12.53,8.11 Z" fill="#632423" stroke="none" /><path d="M 6.27,8.52 L 6.27,8.56 L 7.16,9.00 L 8.08,8.56 L 8.08,8.52 L 7.19,8.08 Z" fill="#632423" stroke="none" /><path d="M 18.00,8.08 L 17.11,7.63 L 15.33,8.52 L 15.33,8.56 L 16.22,9.00 L 18.00,8.11 Z" fill="#632423" stroke="none" /><path d="M 13.52,6.71 L 13.55,6.78 L 14.38,7.19 L 13.55,7.60 L 13.52,7.67 L 14.35,8.08 L 14.47,8.08 L 16.19,7.22 L 16.19,7.16 L 14.47,6.30 L 14.35,6.30 Z" fill="#632423" stroke="none" /><path d="M 11.67,7.67 L 11.64,7.60 L 10.82,7.19 L 11.64,6.78 L 11.67,6.71 L 10.85,6.30 L 10.72,6.30 L 9.00,7.16 L 9.03,7.22 L 10.75,8.08 L 10.85,8.08 Z" fill="#632423" stroke="none" /><path d="M 20.77,5.82 L 20.77,5.85 L 21.60,6.27 L 21.69,6.27 L 22.52,5.85 L 22.52,5.79 L 21.69,5.38 L 21.63,5.38 Z" fill="#632423" stroke="none" /><path d="M 17.15,4.01 L 17.15,4.04 L 19.82,5.38 L 19.88,5.38 L 20.74,4.93 L 20.74,4.90 L 18.07,3.56 L 18.00,3.56 Z" fill="#632423" stroke="none" /><path d="M 11.71,3.09 L 11.74,3.15 L 12.56,3.56 L 12.63,3.56 L 13.49,3.12 L 13.49,3.09 L 12.66,2.67 L 12.53,2.67 Z" fill="#632423" stroke="none" /><path d="M 13.52,2.19 L 13.52,2.23 L 16.19,3.56 L 16.25,3.56 L 17.11,3.12 L 17.11,3.09 L 14.44,1.75 L 14.38,1.75 Z" fill="#632423" stroke="none" /><path d="M 20.68,11.23 L 19.88,10.82 L 19.79,10.82 L 18.07,11.67 L 18.07,11.74 L 18.83,12.12 L 18.96,12.12 L 20.68,11.26 Z" fill="#3b2e23" stroke="none" /><path d="M 22.49,10.31 L 21.63,9.89 L 20.74,10.34 L 20.74,10.37 L 21.57,10.78 L 21.63,10.78 L 22.46,10.37 Z" fill="#3b2e23" stroke="none" /><path d="M 6.23,4.90 L 5.38,4.49 L 4.55,4.90 L 4.52,4.96 L 5.38,5.38 L 6.20,4.96 Z" fill="#3b2e23" stroke="none" /><path d="M 7.22,3.56 L 7.25,3.63 L 8.02,4.01 L 8.11,4.01 L 8.94,3.59 L 8.94,3.53 L 8.17,3.15 L 8.05,3.15 Z" fill="#3b2e23" stroke="none" /><path d="M 12.66,13.49 L 12.66,13.52 L 14.38,14.38 L 14.44,14.38 L 15.27,13.96 L 15.27,13.93 L 13.55,13.07 L 13.46,13.07 Z" fill="#4d3e27" stroke="none" /><path d="M 19.85,10.78 L 19.88,10.85 L 20.64,11.23 L 20.74,11.23 L 21.57,10.82 L 21.57,10.75 L 20.80,10.37 L 20.68,10.37 Z" fill="#4d3e27" stroke="none" /><path d="M 7.25,10.75 L 7.25,10.82 L 8.97,11.67 L 9.10,11.67 L 9.86,11.29 L 9.86,11.23 L 8.14,10.37 L 8.02,10.37 Z" fill="#4d3e27" stroke="none" /><path d="M 3.63,8.94 L 3.63,9.00 L 4.45,9.42 L 4.55,9.42 L 5.34,9.00 L 5.34,8.97 L 4.52,8.56 L 4.39,8.56 Z" fill="#4d3e27" stroke="none" /><path d="M 27.10,7.16 L 27.13,7.22 L 27.90,7.60 L 27.99,7.60 L 28.79,7.19 L 28.79,7.16 L 27.96,6.74 Z" fill="#4d3e27" stroke="none" /><path d="M 0.03,7.16 L 0.06,7.22 L 1.72,8.05 L 1.84,8.05 L 2.61,7.67 L 2.61,7.60 L 0.89,6.74 Z" fill="#4d3e27" stroke="none" /><path d="M 5.34,5.34 L 4.49,4.93 L 3.59,5.38 L 3.59,5.41 L 4.42,5.82 L 4.49,5.82 L 5.31,5.41 Z" fill="#4d3e27" stroke="none" /><path d="M 12.56,1.72 L 11.80,1.34 L 11.67,1.34 L 9.96,2.19 L 9.96,2.26 L 10.72,2.64 L 10.85,2.64 L 12.56,1.78 Z" fill="#4d3e27" stroke="none" /><path d="M 12.66,0.86 L 12.66,0.89 L 13.49,1.30 L 14.38,0.86 L 14.44,0.86 L 16.19,1.75 L 16.25,1.75 L 17.08,1.34 L 17.08,1.30 L 14.47,0.00 L 14.35,0.00 Z" fill="#4d3e27" stroke="none" /><path d="M 17.05,13.01 L 16.29,12.63 L 16.16,12.63 L 14.44,13.49 L 14.44,13.55 L 15.20,13.93 L 15.33,13.93 L 17.05,13.07 Z" fill="#59472b" stroke="none" /><path d="M 17.15,12.18 L 18.00,12.60 L 18.89,12.15 L 18.89,12.12 L 18.07,11.71 L 18.00,11.71 L 17.18,12.12 Z" fill="#59472b" stroke="none" /><path d="M 9.03,11.67 L 9.03,11.71 L 12.60,13.49 L 12.69,13.49 L 13.49,13.07 L 13.49,13.04 L 9.92,11.26 L 9.86,11.26 Z" fill="#59472b" stroke="none" /><path d="M 4.52,9.42 L 4.52,9.45 L 7.19,10.78 L 7.25,10.78 L 8.08,10.37 L 8.08,10.34 L 5.41,9.00 L 5.31,9.00 Z" fill="#59472b" stroke="none" /><path d="M 25.19,8.94 L 24.43,8.56 L 24.30,8.56 L 22.58,9.42 L 22.58,9.48 L 23.35,9.86 L 23.48,9.86 L 25.19,9.00 Z" fill="#59472b" stroke="none" /><path d="M 2.70,8.49 L 2.74,8.56 L 3.56,8.97 L 3.63,8.97 L 4.45,8.56 L 4.45,8.52 L 3.56,8.08 Z" fill="#59472b" stroke="none" /><path d="M 25.29,8.11 L 26.15,8.52 L 27.04,8.08 L 27.04,8.05 L 26.21,7.63 L 26.15,7.63 L 25.32,8.05 Z" fill="#59472b" stroke="none" /><path d="M 26.18,6.71 L 26.18,6.74 L 27.07,7.19 L 27.93,6.78 L 27.90,6.71 L 27.07,6.30 L 27.01,6.30 Z" fill="#59472b" stroke="none" /><path d="M 0.89,6.78 L 1.75,7.19 L 2.64,6.74 L 2.64,6.71 L 1.81,6.30 L 1.75,6.30 L 0.92,6.71 Z" fill="#59472b" stroke="none" /><path d="M 21.66,4.45 L 21.66,4.49 L 24.33,5.82 L 24.40,5.82 L 25.22,5.41 L 25.22,5.38 L 22.55,4.04 L 22.49,4.04 Z" fill="#59472b" stroke="none" /><path d="M 6.33,4.01 L 6.33,4.07 L 7.09,4.45 L 7.22,4.45 L 8.05,4.04 L 8.02,3.98 L 7.25,3.59 L 7.16,3.59 Z" fill="#59472b" stroke="none" /><path d="M 16.25,1.72 L 16.25,1.78 L 17.08,2.19 L 17.18,2.19 L 17.97,1.78 L 17.97,1.75 L 17.15,1.34 L 17.02,1.34 Z" fill="#59472b" stroke="none" /><path d="M 13.49,1.27 L 12.63,0.86 L 11.74,1.30 L 11.74,1.34 L 12.56,1.75 L 12.63,1.75 L 13.46,1.34 Z" fill="#59472b" stroke="none" /><path d="M 9.92,11.23 L 9.92,11.29 L 11.64,12.15 L 11.74,12.15 L 12.56,11.74 L 12.56,11.67 L 10.85,10.82 L 10.75,10.82 Z" fill="#6e292c" stroke="none" /><path d="M 19.82,10.78 L 18.99,10.37 L 18.86,10.37 L 17.15,11.23 L 17.15,11.26 L 18.00,11.71 L 18.07,11.71 L 19.79,10.85 Z" fill="#6e292c" stroke="none" /><path d="M 19.85,9.89 L 19.85,9.92 L 20.68,10.34 L 20.80,10.34 L 21.63,9.92 L 21.60,9.86 L 20.77,9.45 L 20.71,9.45 Z" fill="#6e292c" stroke="none" /><path d="M 21.66,8.97 L 21.69,9.03 L 22.52,9.45 L 22.58,9.45 L 23.44,9.00 L 23.44,8.97 L 22.62,8.56 L 22.49,8.56 Z" fill="#6e292c" stroke="none" /><path d="M 3.56,8.08 L 3.56,8.11 L 8.97,10.82 L 9.89,10.37 L 9.89,10.34 L 4.49,7.63 L 4.42,7.63 Z" fill="#6e292c" stroke="none" /><path d="M 22.58,5.79 L 22.58,5.85 L 23.41,6.27 L 23.51,6.27 L 24.33,5.85 L 24.33,5.79 L 23.51,5.38 L 23.41,5.38 Z" fill="#6e292c" stroke="none" /><path d="M 7.13,5.34 L 6.30,4.93 L 6.20,4.93 L 4.49,5.79 L 4.49,5.85 L 5.31,6.27 L 5.41,6.27 L 7.13,5.41 Z" fill="#6e292c" stroke="none" /><path d="M 7.19,7.16 L 7.22,7.22 L 8.94,8.08 L 8.87,8.14 L 8.08,8.52 L 8.08,8.56 L 8.97,9.00 L 9.86,8.56 L 9.92,8.56 L 11.67,9.45 L 10.85,9.86 L 10.82,9.92 L 11.64,10.34 L 11.77,10.34 L 12.56,9.92 L 12.66,9.92 L 14.35,10.78 L 14.47,10.78 L 16.16,9.92 L 16.25,9.92 L 17.05,10.34 L 17.18,10.34 L 18.00,9.92 L 17.97,9.86 L 17.18,9.48 L 17.15,9.45 L 17.18,9.42 L 21.63,7.19 L 21.63,7.16 L 19.91,6.30 L 19.94,6.23 L 20.74,5.85 L 20.71,5.79 L 19.88,5.38 L 19.82,5.38 L 18.93,5.82 L 14.44,3.56 L 14.38,3.56 L 13.52,4.01 L 12.63,3.56 L 12.56,3.56 L 11.71,4.01 L 11.71,4.04 L 12.50,4.42 L 12.53,4.45 L 12.50,4.52 Z" fill="#6e292c" stroke="none" /><path d="M 9.86,4.01 L 9.00,3.56 L 8.94,3.56 L 7.16,4.45 L 7.16,4.49 L 8.08,4.93 L 9.86,4.04 Z" fill="#6e292c" stroke="none" /><path d="M 16.22,2.64 L 16.22,2.67 L 21.63,5.38 L 21.69,5.38 L 22.55,4.93 L 22.55,4.90 L 17.15,2.19 Z" fill="#6e292c" stroke="none" /><path d="M 12.60,2.64 L 11.67,2.19 L 9.89,3.09 L 9.89,3.12 L 10.75,3.56 L 10.82,3.56 L 12.60,2.67 Z" fill="#6e292c" stroke="none" /><path d="M 17.97,12.56 L 17.11,12.15 L 16.22,12.60 L 16.22,12.63 L 17.05,13.04 L 17.11,13.04 L 17.94,12.63 Z" fill="#66512f" stroke="none" /><path d="M 1.78,8.05 L 1.78,8.08 L 2.67,8.52 L 3.53,8.11 L 3.50,8.05 L 2.67,7.63 L 2.61,7.63 Z" fill="#66512f" stroke="none" /><path d="M 24.40,5.79 L 24.40,5.85 L 26.12,6.71 L 26.24,6.71 L 27.01,6.33 L 27.01,6.27 L 25.29,5.41 L 25.16,5.41 Z" fill="#66512f" stroke="none" /><path d="M 4.42,5.79 L 3.66,5.41 L 3.53,5.41 L 1.81,6.27 L 1.81,6.33 L 2.58,6.71 L 2.70,6.71 L 4.42,5.85 Z" fill="#66512f" stroke="none" /><path d="M 9.03,2.70 L 9.89,3.12 L 10.78,2.67 L 10.78,2.64 L 9.96,2.23 L 9.89,2.23 L 9.07,2.64 Z" fill="#66512f" stroke="none" /><path d="M 17.15,2.19 L 17.15,2.23 L 21.60,4.45 L 21.73,4.45 L 22.49,4.07 L 22.49,4.01 L 18.04,1.78 L 17.94,1.78 Z" fill="#66512f" stroke="none" /><path d="M 11.71,12.15 L 11.71,12.18 L 12.53,12.60 L 12.66,12.60 L 13.49,12.18 L 13.46,12.12 L 12.63,11.71 L 12.56,11.71 Z" fill="#763833" stroke="none" /><path d="M 18.00,11.67 L 17.18,11.26 L 17.08,11.26 L 13.52,13.04 L 13.52,13.07 L 14.38,13.52 L 14.44,13.52 L 18.00,11.74 Z" fill="#763833" stroke="none" /><path d="M 9.00,10.78 L 9.03,10.85 L 9.86,11.26 L 9.92,11.26 L 10.78,10.82 L 10.78,10.78 L 9.96,10.37 L 9.83,10.37 Z" fill="#763833" stroke="none" /><path d="M 11.71,10.34 L 11.71,10.37 L 14.38,11.71 L 14.44,11.71 L 17.11,10.37 L 17.11,10.34 L 16.22,9.89 L 14.44,10.78 L 14.38,10.78 L 12.63,9.89 Z" fill="#763833" stroke="none" /><path d="M 20.77,9.42 L 20.77,9.48 L 21.60,9.89 L 21.69,9.89 L 22.52,9.48 L 22.52,9.42 L 21.69,9.00 L 21.60,9.00 Z" fill="#763833" stroke="none" /><path d="M 9.00,8.97 L 9.03,9.03 L 10.75,9.89 L 10.85,9.89 L 11.67,9.48 L 11.67,9.42 L 9.96,8.56 L 9.83,8.56 Z" fill="#763833" stroke="none" /><path d="M 21.63,8.08 L 20.77,7.63 L 20.71,7.63 L 17.15,9.42 L 17.15,9.48 L 17.97,9.89 L 18.07,9.89 L 21.63,8.11 Z" fill="#763833" stroke="none" /><path d="M 5.38,7.16 L 5.41,7.22 L 8.02,8.52 L 8.14,8.52 L 8.97,8.11 L 8.94,8.05 L 6.33,6.74 L 6.20,6.74 Z" fill="#763833" stroke="none" /><path d="M 27.07,7.16 L 24.40,5.82 L 24.33,5.82 L 23.51,6.23 L 23.48,6.30 L 25.16,7.13 L 25.22,7.19 L 22.55,8.52 L 22.55,8.56 L 23.48,9.00 L 27.04,7.22 Z" fill="#763833" stroke="none" /><path d="M 19.85,6.27 L 19.85,6.30 L 21.63,7.19 L 22.55,6.74 L 22.55,6.71 L 20.77,5.82 Z" fill="#763833" stroke="none" /><path d="M 5.34,6.27 L 4.49,5.82 L 4.42,5.82 L 1.75,7.16 L 1.75,7.19 L 3.50,8.08 L 3.59,8.08 L 4.42,7.67 L 4.42,7.60 L 3.59,7.19 L 3.66,7.13 L 5.34,6.30 Z" fill="#763833" stroke="none" /><path d="M 21.69,5.34 L 21.69,5.41 L 22.52,5.82 L 22.58,5.82 L 23.44,5.38 L 23.44,5.34 L 22.62,4.93 L 22.52,4.93 Z" fill="#763833" stroke="none" /><path d="M 12.60,4.45 L 11.67,4.01 L 7.22,6.23 L 7.19,6.30 L 8.02,6.71 L 8.14,6.71 L 12.60,4.49 Z" fill="#763833" stroke="none" /><path d="M 9.00,3.53 L 9.00,3.59 L 9.83,4.01 L 9.92,4.01 L 10.75,3.59 L 10.75,3.53 L 9.92,3.12 L 9.83,3.12 Z" fill="#763833" stroke="none" /><path d="M 12.63,3.53 L 12.63,3.59 L 13.46,4.01 L 13.55,4.01 L 14.41,3.56 L 18.89,5.82 L 18.99,5.82 L 19.82,5.41 L 19.82,5.34 L 14.47,2.67 L 14.35,2.67 Z" fill="#763833" stroke="none" /><path d="M 11.71,2.19 L 11.71,2.23 L 12.53,2.64 L 12.66,2.64 L 14.41,1.75 L 16.16,2.64 L 16.29,2.64 L 17.11,2.23 L 17.08,2.16 L 14.47,0.86 L 14.35,0.86 Z" fill="#763833" stroke="none" /><path d="M 12.60,12.60 L 12.60,12.63 L 13.49,13.07 L 14.41,12.63 L 14.41,12.60 L 13.52,12.15 Z" fill="#7d4133" stroke="none" /><path d="M 18.93,10.34 L 18.93,10.37 L 19.82,10.82 L 20.74,10.37 L 20.74,10.34 L 19.85,9.89 Z" fill="#7d4133" stroke="none" /><path d="M 23.44,7.16 L 22.62,6.74 L 22.49,6.74 L 20.77,7.60 L 20.77,7.67 L 21.60,8.08 L 21.69,8.08 L 23.41,7.22 Z" fill="#7d4133" stroke="none" /><path d="M 6.27,6.71 L 6.27,6.74 L 7.16,7.19 L 8.08,6.74 L 8.08,6.71 L 7.19,6.27 Z" fill="#7d4133" stroke="none" /><path d="M 6.27,4.90 L 6.30,4.96 L 7.13,5.38 L 7.19,5.38 L 8.05,4.93 L 8.05,4.90 L 7.22,4.49 L 7.09,4.49 Z" fill="#7d4133" stroke="none" /></svg>