<svg height="32" width="32" viewBox="0 0 32 32"><defs /><path d="M 32.00,18.27 L 28.82,19.86 L 28.82,23.72 L 29.05,23.72 L 32.00,22.24 Z" fill="#250b0c" stroke="none" /><path d="M 16.00,26.33 L 15.77,26.33 L 12.82,27.80 L 12.82,31.77 L 16.00,30.18 Z" fill="#270e0e" stroke="none" /><path d="M 28.82,19.86 L 25.65,21.45 L 25.65,25.30 L 25.87,25.30 L 28.82,23.83 Z" fill="#270e0e" stroke="none" /><path d="M 25.65,21.45 L 22.58,22.92 L 22.47,22.81 L 22.47,19.06 L 19.18,20.65 L 19.18,24.62 L 16.00,26.21 L 16.00,30.18 L 25.65,25.42 Z" fill="#2c1112" stroke="none" /><path d="M 22.47,11.23 L 19.18,12.82 L 19.18,20.65 L 19.06,20.77 L 16.11,22.24 L 16.00,22.13 L 16.00,18.38 L 15.77,18.38 L 12.82,19.86 L 12.82,23.83 L 13.05,23.83 L 15.89,22.35 L 16.00,22.47 L 16.00,26.21 L 16.23,26.21 L 19.18,24.74 L 19.18,20.77 L 19.29,20.65 L 25.65,17.48 L 25.65,13.50 L 22.58,14.98 L 22.47,14.87 Z" fill="#2e1315" stroke="none" /><path d="M 19.18,16.79 L 18.95,16.79 L 16.00,18.27 L 16.00,22.24 L 12.82,23.83 L 12.82,27.80 L 13.05,27.80 L 16.00,26.33 L 16.00,22.35 L 19.18,20.77 Z" fill="#2f1615" stroke="none" /><path d="M 32.00,14.30 L 28.82,15.89 L 28.82,19.86 L 32.00,18.27 Z" fill="#2f1615" stroke="none" /><path d="M 19.18,12.94 L 18.95,12.94 L 12.82,16.00 L 12.82,19.86 L 13.05,19.86 L 19.18,16.79 Z" fill="#321a15" stroke="none" /><path d="M 32.00,10.33 L 25.65,13.50 L 25.65,17.36 L 25.42,17.59 L 22.47,19.06 L 22.47,23.04 L 28.82,19.86 L 28.82,16.00 L 29.05,15.77 L 32.00,14.30 Z" fill="#321a15" stroke="none" /><path d="M 9.65,26.33 L 9.65,30.18 L 12.82,31.77 L 12.82,27.80 L 9.87,26.33 Z" fill="#401716" stroke="none" /><path d="M 32.00,6.47 L 22.58,11.12 L 22.47,11.23 L 22.47,15.09 L 31.89,10.44 L 32.00,10.33 Z" fill="#371e17" stroke="none" /><path d="M 0.00,21.45 L 0.00,25.42 L 9.65,30.18 L 9.65,26.21 L 6.58,24.74 L 6.35,24.51 L 6.35,20.65 L 3.40,19.18 L 3.18,19.18 L 3.18,22.81 L 3.06,22.92 Z" fill="#471b1d" stroke="none" /><path d="M 22.35,4.77 L 19.18,3.18 L 6.47,9.53 L 6.47,9.76 L 9.42,11.23 L 9.65,11.23 L 22.35,4.88 Z" fill="#5c1c1e" stroke="none" /><path d="M 0.00,13.62 L 0.00,17.59 L 2.95,19.06 L 3.18,19.06 L 3.18,15.09 L 0.23,13.62 Z" fill="#4c2521" stroke="none" /><path d="M 9.65,18.38 L 9.65,22.13 L 9.53,22.24 L 6.58,20.77 L 6.35,20.77 L 6.35,24.62 L 12.60,27.80 L 12.82,27.80 L 12.82,19.97 Z" fill="#512a21" stroke="none" /><path d="M 0.00,9.65 L 0.00,13.62 L 2.95,15.09 L 3.18,15.09 L 3.18,11.23 Z" fill="#512a21" stroke="none" /><path d="M 3.18,11.23 L 3.18,18.95 L 3.06,19.06 L 0.23,17.59 L 0.00,17.59 L 0.00,21.45 L 3.18,23.04 L 3.18,19.29 L 3.29,19.18 L 9.65,22.35 L 9.65,18.38 L 6.35,16.68 L 6.35,12.82 Z" fill="#4b1f23" stroke="none" /><path d="M 3.29,11.12 L 3.29,11.35 L 6.24,12.82 L 6.47,12.82 L 9.42,11.35 L 9.42,11.12 L 6.47,9.65 L 6.24,9.65 Z" fill="#632423" stroke="none" /><path d="M 19.29,3.18 L 19.29,3.29 L 22.24,4.77 L 22.58,4.77 L 25.53,3.29 L 25.42,3.06 L 22.47,1.59 Z" fill="#632423" stroke="none" /><path d="M 6.35,12.82 L 6.35,16.79 L 12.82,19.97 L 12.82,16.00 Z" fill="#593125" stroke="none" /><path d="M 9.65,4.77 L 9.65,4.88 L 12.60,6.35 L 13.05,6.35 L 16.00,4.88 L 16.00,4.77 L 12.82,3.18 Z" fill="#6e292c" stroke="none" /><path d="M 9.65,14.41 L 9.65,14.52 L 12.60,16.00 L 13.05,16.00 L 16.00,14.52 L 16.00,14.41 L 12.82,12.82 Z" fill="#763833" stroke="none" /><path d="M 25.53,3.18 L 22.47,4.77 L 22.47,4.88 L 25.42,6.35 L 25.30,6.58 L 22.47,7.94 L 22.47,8.06 L 25.53,9.65 L 25.76,9.65 L 28.82,8.06 L 28.82,7.94 L 25.87,6.47 L 25.99,6.24 L 28.82,4.88 L 28.82,4.77 Z" fill="#763833" stroke="none" /><path d="M 22.35,1.59 L 19.29,0.00 L 19.06,0.00 L 12.94,3.06 L 12.82,3.29 L 15.77,4.77 L 16.23,4.77 L 22.35,1.70 Z" fill="#763833" stroke="none" /><path d="M 25.65,6.35 L 25.65,6.47 L 28.82,8.06 L 32.00,6.47 L 32.00,6.35 L 29.05,4.88 L 28.60,4.88 Z" fill="#7d4133" stroke="none" /><path d="M 12.82,6.35 L 9.53,4.77 L 0.00,9.53 L 0.00,9.65 L 3.06,11.23 L 3.29,11.23 L 12.82,6.47 Z" fill="#7d4133" stroke="none" /><path d="M 25.53,9.53 L 22.58,8.06 L 22.24,8.06 L 12.94,12.71 L 12.82,12.94 L 15.77,14.41 L 16.23,14.41 L 25.53,9.76 Z" fill="#743035" stroke="none" /><path d="M 25.65,6.35 L 22.35,4.77 L 6.47,12.71 L 6.47,12.94 L 9.42,14.41 L 9.76,14.41 L 25.65,6.47 Z" fill="#894c39" stroke="none" /></svg>