<svg height="32" width="32" viewBox="0 0 32 32"><defs /><path d="M 17.97,24.75 L 17.08,25.19 L 17.08,27.39 L 17.15,27.39 L 17.97,26.97 Z" fill="#111608" stroke="none" /><path d="M 16.19,24.52 L 15.27,24.97 L 15.27,27.20 L 16.19,26.75 Z" fill="#111608" stroke="none" /><path d="M 20.71,24.49 L 20.64,24.49 L 19.79,24.94 L 19.79,26.05 L 20.71,25.61 Z" fill="#111608" stroke="none" /><path d="M 27.93,23.09 L 27.04,23.54 L 27.04,25.70 L 27.93,25.26 Z" fill="#111608" stroke="none" /><path d="M 19.79,22.74 L 19.72,22.74 L 18.89,23.16 L 18.89,24.27 L 18.96,24.27 L 19.79,23.86 Z" fill="#111608" stroke="none" /><path d="M 24.33,20.45 L 23.41,20.90 L 23.41,22.01 L 22.52,22.46 L 22.52,23.57 L 23.38,23.16 L 23.41,23.19 L 23.41,24.24 L 24.33,23.79 Z" fill="#111608" stroke="none" /><path d="M 15.27,19.44 L 14.41,19.85 L 14.41,20.96 L 14.47,20.96 L 15.27,20.55 Z" fill="#111608" stroke="none" /><path d="M 20.71,17.84 L 20.64,17.84 L 19.79,18.29 L 19.79,21.60 L 19.85,21.60 L 20.71,21.15 Z" fill="#111608" stroke="none" /><path d="M 26.15,16.22 L 25.22,16.67 L 25.22,18.89 L 26.15,18.45 Z" fill="#111608" stroke="none" /><path d="M 22.52,15.81 L 21.60,16.25 L 21.60,18.48 L 21.66,18.48 L 22.52,18.04 Z" fill="#111608" stroke="none" /><path d="M 15.27,13.96 L 15.20,13.96 L 14.41,14.38 L 14.41,18.77 L 15.27,18.35 L 15.27,16.13 L 16.19,15.65 L 16.19,14.57 L 16.13,14.57 L 15.30,14.98 L 15.27,14.95 Z" fill="#111608" stroke="none" /><path d="M 24.33,12.69 L 23.41,13.14 L 23.41,15.36 L 24.33,14.92 Z" fill="#111608" stroke="none" /><path d="M 18.89,12.15 L 18.83,12.15 L 17.97,12.60 L 17.97,15.87 L 18.89,15.43 Z" fill="#111608" stroke="none" /><path d="M 23.41,9.89 L 23.35,9.89 L 22.52,10.31 L 22.52,12.47 L 22.58,12.47 L 23.41,12.06 Z" fill="#111608" stroke="none" /><path d="M 28.82,7.19 L 28.76,7.19 L 27.04,8.05 L 27.04,11.32 L 27.10,11.32 L 27.93,10.91 L 27.93,8.72 L 27.99,8.65 L 28.82,8.24 Z" fill="#111608" stroke="none" /><path d="M 16.19,26.75 L 16.13,26.75 L 15.27,27.20 L 15.27,29.42 L 16.19,28.98 Z" fill="#19200c" stroke="none" /><path d="M 18.89,26.50 L 17.97,26.94 L 17.97,30.22 L 18.04,30.22 L 18.89,29.77 Z" fill="#19200c" stroke="none" /><path d="M 20.71,25.61 L 20.64,25.61 L 19.79,26.05 L 19.79,28.25 L 19.85,28.25 L 20.71,27.80 Z" fill="#19200c" stroke="none" /><path d="M 17.08,24.08 L 16.19,24.52 L 16.19,25.64 L 17.08,25.19 Z" fill="#19200c" stroke="none" /><path d="M 24.33,23.79 L 24.27,23.79 L 23.41,24.24 L 23.41,26.43 L 23.48,26.43 L 24.33,25.99 Z" fill="#19200c" stroke="none" /><path d="M 26.15,21.76 L 25.22,22.20 L 25.22,26.59 L 25.29,26.59 L 26.15,26.15 L 26.15,24.02 L 26.21,23.95 L 27.04,23.54 L 27.04,22.43 L 26.18,22.84 L 26.15,22.81 Z" fill="#19200c" stroke="none" /><path d="M 15.27,21.66 L 14.41,22.08 L 14.41,23.19 L 14.47,23.19 L 15.27,22.78 Z" fill="#19200c" stroke="none" /><path d="M 26.15,18.45 L 26.08,18.45 L 25.22,18.89 L 25.22,21.12 L 26.15,20.68 Z" fill="#19200c" stroke="none" /><path d="M 19.75,18.29 L 18.89,18.74 L 18.89,23.16 L 18.96,23.16 L 19.75,22.74 L 19.79,22.78 L 19.79,24.94 L 19.82,24.94 L 20.71,24.49 L 20.71,21.15 L 19.82,21.60 L 19.79,21.57 L 19.79,18.29 Z" fill="#19200c" stroke="none" /><path d="M 22.52,18.04 L 20.71,18.93 L 20.71,20.04 L 20.77,20.04 L 21.57,19.63 L 21.60,19.66 L 21.60,21.82 L 22.52,21.38 Z" fill="#19200c" stroke="none" /><path d="M 21.60,16.29 L 21.53,16.29 L 20.71,16.70 L 20.71,17.81 L 20.77,17.81 L 21.60,17.40 Z" fill="#19200c" stroke="none" /><path d="M 16.16,15.65 L 15.27,16.10 L 15.27,18.32 L 14.41,18.77 L 14.41,19.85 L 14.47,19.85 L 16.16,18.99 L 16.19,19.02 L 16.19,20.07 L 16.25,20.07 L 17.05,19.66 L 17.08,19.69 L 17.08,20.74 L 17.15,20.74 L 17.97,20.33 L 17.97,19.21 L 17.91,19.21 L 17.11,19.63 L 17.08,19.59 L 17.08,18.54 L 17.02,18.54 L 16.22,18.96 L 16.19,18.93 L 16.19,15.65 Z" fill="#19200c" stroke="none" /><path d="M 28.82,14.89 L 27.93,15.33 L 27.93,16.41 L 27.86,16.48 L 27.07,16.86 L 27.04,16.83 L 27.04,15.78 L 26.15,16.22 L 26.15,17.34 L 26.97,16.92 L 27.04,16.95 L 27.04,19.09 L 27.10,19.09 L 27.93,18.67 L 27.93,16.48 L 27.99,16.41 L 28.82,16.00 Z" fill="#19200c" stroke="none" /><path d="M 17.91,13.68 L 17.08,14.09 L 17.08,16.32 L 17.91,15.90 L 17.97,15.94 L 17.97,18.07 L 18.04,18.07 L 18.89,17.62 L 18.89,15.43 L 18.83,15.43 L 18.04,15.84 L 17.97,15.81 L 17.97,13.68 Z" fill="#19200c" stroke="none" /><path d="M 25.22,13.36 L 24.33,13.81 L 24.33,14.89 L 23.41,15.36 L 23.41,18.70 L 24.33,18.26 L 24.33,16.03 L 25.22,15.59 Z" fill="#19200c" stroke="none" /><path d="M 19.79,12.76 L 18.89,13.20 L 18.89,14.28 L 18.96,14.28 L 19.79,13.87 Z" fill="#19200c" stroke="none" /><path d="M 23.41,12.06 L 23.35,12.06 L 22.52,12.47 L 22.52,13.58 L 22.58,13.58 L 23.41,13.17 Z" fill="#19200c" stroke="none" /><path d="M 28.82,8.24 L 27.93,8.68 L 27.93,10.88 L 27.90,10.91 L 27.07,11.32 L 27.04,11.29 L 27.04,10.24 L 26.97,10.24 L 26.15,10.66 L 26.15,12.88 L 26.21,12.88 L 27.01,12.47 L 27.04,12.50 L 27.04,14.66 L 27.93,14.22 L 27.93,10.91 L 28.82,10.47 Z" fill="#19200c" stroke="none" /><path d="M 12.63,28.98 L 12.63,31.14 L 13.55,31.59 L 13.55,29.42 L 12.69,28.98 Z" fill="#1b240d" stroke="none" /><path d="M 5.41,23.13 L 5.41,24.24 L 6.30,24.68 L 6.30,23.57 Z" fill="#1b240d" stroke="none" /><path d="M 9.03,22.74 L 9.03,23.79 L 9.00,23.83 L 8.11,23.38 L 8.11,24.49 L 8.97,24.91 L 9.03,24.97 L 9.03,26.05 L 9.92,26.50 L 9.92,23.16 L 9.10,22.74 Z" fill="#1b240d" stroke="none" /><path d="M 2.67,20.68 L 2.67,22.87 L 3.53,23.32 L 3.59,23.32 L 3.59,21.12 L 2.74,20.68 Z" fill="#1b240d" stroke="none" /><path d="M 4.49,20.45 L 4.49,21.57 L 5.34,22.01 L 5.41,22.01 L 5.41,20.90 Z" fill="#1b240d" stroke="none" /><path d="M 10.85,20.33 L 10.85,22.52 L 11.74,22.97 L 11.74,20.74 L 10.91,20.33 Z" fill="#1b240d" stroke="none" /><path d="M 0.89,18.67 L 0.89,20.87 L 1.78,21.31 L 1.78,19.09 L 0.95,18.67 Z" fill="#1b240d" stroke="none" /><path d="M 5.41,16.48 L 5.41,19.82 L 6.23,20.23 L 6.30,20.23 L 6.30,16.92 Z" fill="#1b240d" stroke="none" /><path d="M 7.22,16.29 L 7.22,18.51 L 8.05,18.93 L 8.11,18.93 L 8.11,16.70 L 7.28,16.29 Z" fill="#1b240d" stroke="none" /><path d="M 9.03,14.98 L 9.03,17.18 L 9.92,17.62 L 9.92,15.40 L 9.10,14.98 Z" fill="#1b240d" stroke="none" /><path d="M 12.63,13.49 L 12.63,16.76 L 13.49,17.21 L 13.55,17.21 L 13.55,15.08 L 13.61,15.05 L 14.35,15.43 L 14.41,15.43 L 14.41,14.38 Z" fill="#1b240d" stroke="none" /><path d="M 0.00,12.66 L 0.00,13.77 L 0.89,14.22 L 0.89,13.11 Z" fill="#1b240d" stroke="none" /><path d="M 8.11,11.23 L 8.11,13.39 L 8.97,13.84 L 9.03,13.84 L 9.03,11.67 Z" fill="#1b240d" stroke="none" /><path d="M 3.59,8.97 L 3.59,12.25 L 4.49,12.69 L 4.49,9.42 Z" fill="#1b240d" stroke="none" /><path d="M 0.00,7.19 L 0.00,11.58 L 0.83,11.99 L 0.89,11.99 L 0.89,9.83 L 0.92,9.80 L 1.72,10.21 L 1.78,10.21 L 1.78,9.13 L 0.95,8.72 L 0.89,8.65 L 0.89,7.60 L 0.06,7.19 Z" fill="#1b240d" stroke="none" /><path d="M 17.08,25.19 L 16.19,25.64 L 16.19,27.83 L 16.25,27.83 L 17.08,27.42 Z" fill="#1f290f" stroke="none" /><path d="M 25.22,23.35 L 25.16,23.35 L 24.33,23.76 L 24.33,25.96 L 24.27,26.02 L 23.41,26.43 L 23.41,27.51 L 24.33,27.07 L 24.33,26.02 L 24.40,25.96 L 25.22,25.54 Z" fill="#1f290f" stroke="none" /><path d="M 15.27,22.78 L 14.41,23.19 L 14.41,24.30 L 15.27,23.89 Z" fill="#1f290f" stroke="none" /><path d="M 25.22,20.01 L 24.33,20.45 L 24.33,21.57 L 25.22,21.12 Z" fill="#1f290f" stroke="none" /><path d="M 18.89,19.85 L 17.08,20.74 L 17.08,22.97 L 17.97,22.52 L 17.97,21.44 L 18.89,20.96 Z" fill="#1f290f" stroke="none" /><path d="M 21.60,19.63 L 21.53,19.63 L 20.71,20.04 L 20.71,23.38 L 21.53,22.97 L 21.60,23.00 L 21.60,24.02 L 20.71,24.46 L 20.71,26.69 L 20.77,26.69 L 21.60,26.27 L 21.60,24.05 L 22.46,23.60 L 22.52,23.63 L 22.52,25.80 L 23.41,25.35 L 23.41,23.13 L 22.58,23.54 L 22.52,23.51 L 22.52,22.49 L 23.41,22.04 L 23.41,20.93 L 23.35,20.93 L 21.63,21.79 L 21.60,21.76 Z" fill="#1f290f" stroke="none" /><path d="M 27.93,18.67 L 27.86,18.67 L 27.04,19.09 L 27.04,21.31 L 27.93,20.87 Z" fill="#1f290f" stroke="none" /><path d="M 21.60,17.40 L 21.53,17.40 L 20.71,17.81 L 20.71,18.93 L 20.77,18.93 L 21.60,18.51 Z" fill="#1f290f" stroke="none" /><path d="M 27.04,16.89 L 26.15,17.34 L 26.15,18.42 L 26.21,18.42 L 27.04,18.00 Z" fill="#1f290f" stroke="none" /><path d="M 28.82,16.00 L 27.93,16.45 L 27.93,17.53 L 27.99,17.53 L 28.82,17.11 Z" fill="#1f290f" stroke="none" /><path d="M 17.97,15.87 L 17.08,16.32 L 17.08,19.63 L 17.15,19.63 L 17.97,19.21 Z" fill="#1f290f" stroke="none" /><path d="M 25.22,15.59 L 25.16,15.59 L 24.33,16.00 L 24.33,19.34 L 25.22,18.89 Z" fill="#1f290f" stroke="none" /><path d="M 23.41,15.36 L 22.52,15.81 L 22.52,16.92 L 23.41,16.48 Z" fill="#1f290f" stroke="none" /><path d="M 19.79,13.87 L 19.72,13.87 L 18.89,14.28 L 18.89,16.51 L 18.96,16.51 L 19.79,16.10 Z" fill="#1f290f" stroke="none" /><path d="M 23.41,13.17 L 23.35,13.17 L 22.52,13.58 L 22.52,14.70 L 22.58,14.70 L 23.41,14.28 Z" fill="#1f290f" stroke="none" /><path d="M 28.82,10.47 L 28.76,10.47 L 27.93,10.88 L 27.93,13.11 L 28.82,12.66 Z" fill="#1f290f" stroke="none" /><path d="M 22.52,10.34 L 22.46,10.34 L 21.60,10.78 L 21.60,12.95 L 22.52,12.50 Z" fill="#1f290f" stroke="none" /><path d="M 24.33,9.42 L 23.41,9.86 L 23.41,12.02 L 23.48,12.02 L 24.33,11.58 Z" fill="#1f290f" stroke="none" /><path d="M 15.27,30.54 L 15.20,30.54 L 14.41,30.95 L 14.41,32.00 L 14.47,32.00 L 15.27,31.59 Z" fill="#243012" stroke="none" /><path d="M 17.08,29.61 L 16.19,30.06 L 16.19,31.11 L 16.25,31.11 L 17.08,30.70 Z" fill="#243012" stroke="none" /><path d="M 17.08,27.42 L 17.02,27.42 L 16.19,27.83 L 16.19,28.95 L 16.25,28.95 L 17.08,28.53 Z" fill="#243012" stroke="none" /><path d="M 25.22,25.54 L 24.33,25.99 L 24.33,27.04 L 24.40,27.04 L 25.22,26.62 Z" fill="#243012" stroke="none" /><path d="M 23.41,25.35 L 22.52,25.80 L 22.52,27.96 L 23.41,27.51 Z" fill="#243012" stroke="none" /><path d="M 19.75,24.94 L 18.89,25.38 L 18.89,28.69 L 18.96,28.69 L 19.75,28.28 L 19.79,28.31 L 19.79,29.33 L 19.82,29.33 L 20.71,28.88 L 20.71,27.83 L 20.77,27.77 L 21.60,27.36 L 21.60,26.27 L 21.53,26.27 L 20.71,26.69 L 20.71,27.77 L 20.64,27.83 L 19.82,28.25 L 19.79,28.21 L 19.79,24.94 Z" fill="#243012" stroke="none" /><path d="M 15.27,23.89 L 15.20,23.89 L 14.41,24.30 L 14.41,28.72 L 14.47,28.72 L 15.27,28.31 Z" fill="#243012" stroke="none" /><path d="M 27.04,23.54 L 26.15,23.98 L 26.15,26.15 L 27.04,25.70 Z" fill="#243012" stroke="none" /><path d="M 17.08,19.66 L 17.02,19.66 L 16.19,20.07 L 16.19,24.52 L 17.08,24.08 Z" fill="#243012" stroke="none" /><path d="M 24.27,18.26 L 23.41,18.70 L 23.41,19.79 L 23.48,19.79 L 24.30,19.37 L 24.33,19.40 L 24.33,20.45 L 24.37,20.45 L 25.22,20.01 L 25.22,18.89 L 24.37,19.31 L 24.33,19.28 L 24.33,18.26 Z" fill="#243012" stroke="none" /><path d="M 27.04,18.00 L 26.97,18.00 L 26.15,18.42 L 26.15,20.64 L 24.33,21.57 L 24.33,23.76 L 24.40,23.76 L 25.22,23.35 L 25.22,22.23 L 26.15,21.76 L 26.15,20.68 L 27.04,20.23 Z" fill="#243012" stroke="none" /><path d="M 28.82,17.11 L 28.76,17.11 L 27.93,17.53 L 27.93,18.64 L 27.99,18.64 L 28.82,18.23 Z" fill="#243012" stroke="none" /><path d="M 23.41,16.48 L 22.52,16.92 L 22.52,18.04 L 23.41,17.59 Z" fill="#243012" stroke="none" /><path d="M 19.79,16.10 L 19.72,16.10 L 18.89,16.51 L 18.89,17.59 L 18.83,17.65 L 17.97,18.07 L 17.97,20.29 L 18.04,20.29 L 18.89,19.85 L 18.89,18.77 L 18.96,18.70 L 19.79,18.29 Z" fill="#243012" stroke="none" /><path d="M 28.82,12.66 L 27.93,13.11 L 27.93,15.33 L 28.82,14.89 Z" fill="#243012" stroke="none" /><path d="M 22.52,12.50 L 22.46,12.50 L 21.60,12.95 L 21.60,16.25 L 21.66,16.25 L 23.41,15.36 L 23.41,14.28 L 23.35,14.28 L 22.55,14.70 L 22.52,14.66 Z" fill="#243012" stroke="none" /><path d="M 27.04,12.47 L 26.97,12.47 L 26.15,12.88 L 26.15,14.00 L 27.04,13.55 Z" fill="#243012" stroke="none" /><path d="M 24.33,11.58 L 23.41,12.02 L 23.41,13.14 L 23.48,13.14 L 24.33,12.69 Z" fill="#243012" stroke="none" /><path d="M 26.15,8.52 L 26.08,8.52 L 25.22,8.97 L 25.22,10.02 L 25.29,10.02 L 26.15,9.57 Z" fill="#243012" stroke="none" /><path d="M 9.03,26.05 L 9.03,28.28 L 9.86,28.69 L 9.92,28.69 L 9.92,26.50 Z" fill="#283513" stroke="none" /><path d="M 10.85,25.86 L 10.85,30.25 L 11.67,30.66 L 11.74,30.66 L 11.74,28.56 L 11.77,28.53 L 12.56,28.95 L 12.63,28.95 L 12.63,27.83 L 11.74,27.39 L 11.74,26.27 L 10.91,25.86 Z" fill="#283513" stroke="none" /><path d="M 5.41,24.24 L 5.41,26.47 L 6.23,26.88 L 6.30,26.88 L 6.30,24.68 Z" fill="#283513" stroke="none" /><path d="M 3.59,23.35 L 3.59,26.62 L 4.42,27.04 L 4.49,27.04 L 4.49,23.76 L 3.66,23.35 Z" fill="#283513" stroke="none" /><path d="M 10.85,22.52 L 10.85,24.75 L 11.74,25.19 L 11.74,22.97 Z" fill="#283513" stroke="none" /><path d="M 0.89,20.87 L 0.89,23.09 L 1.78,23.54 L 1.78,21.31 Z" fill="#283513" stroke="none" /><path d="M 11.74,20.77 L 11.74,21.88 L 12.63,22.33 L 12.63,24.52 L 13.49,24.97 L 13.55,24.97 L 13.55,22.84 L 13.61,22.81 L 14.35,23.19 L 14.41,23.19 L 14.41,22.08 L 13.55,21.66 L 13.55,22.71 L 13.49,22.74 L 12.63,22.30 L 12.63,21.18 L 11.80,20.77 Z" fill="#283513" stroke="none" /><path d="M 1.78,19.12 L 1.78,20.23 L 2.61,20.64 L 2.67,20.64 L 2.67,19.53 L 1.84,19.12 Z" fill="#283513" stroke="none" /><path d="M 6.30,18.04 L 6.30,19.15 L 7.22,19.63 L 7.22,21.82 L 8.11,22.27 L 8.11,18.93 Z" fill="#283513" stroke="none" /><path d="M 9.99,16.54 L 9.92,16.54 L 9.92,17.56 L 9.89,17.59 L 9.03,17.18 L 9.03,20.52 L 9.89,20.96 L 9.92,20.96 L 9.92,18.80 L 9.99,18.77 L 10.78,19.18 L 10.85,19.18 L 10.85,16.99 Z" fill="#283513" stroke="none" /><path d="M 4.49,16.03 L 4.49,20.45 L 5.41,20.93 L 5.41,23.13 L 6.30,23.57 L 6.30,20.23 L 5.41,19.79 L 5.41,16.48 L 4.55,16.03 Z" fill="#283513" stroke="none" /><path d="M 6.30,15.81 L 6.30,16.92 L 7.16,17.37 L 7.22,17.37 L 7.22,16.25 Z" fill="#283513" stroke="none" /><path d="M 11.74,15.20 L 11.74,17.43 L 12.56,17.84 L 12.63,17.91 L 12.63,20.10 L 13.55,20.55 L 13.55,17.27 L 13.58,17.24 L 14.41,17.65 L 14.41,15.43 L 13.55,15.01 L 13.55,17.18 L 13.52,17.21 L 12.69,16.80 L 12.63,16.73 L 12.63,15.65 Z" fill="#283513" stroke="none" /><path d="M 0.00,14.89 L 0.00,16.00 L 0.89,16.45 L 0.89,15.33 Z" fill="#283513" stroke="none" /><path d="M 8.11,13.39 L 8.11,14.50 L 8.97,14.95 L 9.03,14.95 L 9.03,13.84 Z" fill="#283513" stroke="none" /><path d="M 4.49,10.50 L 4.49,11.58 L 5.34,12.02 L 5.41,12.02 L 5.41,10.94 L 4.55,10.50 Z" fill="#283513" stroke="none" /><path d="M 0.89,9.80 L 0.89,11.96 L 0.86,11.99 L 0.06,11.58 L 0.00,11.58 L 0.00,12.66 L 1.72,13.52 L 1.78,13.58 L 1.78,14.66 L 2.61,15.08 L 2.67,15.14 L 2.67,16.22 L 3.53,16.67 L 3.59,16.67 L 3.59,15.55 L 2.74,15.14 L 2.67,15.08 L 2.67,14.00 L 1.84,13.58 L 1.78,13.52 L 1.78,10.21 L 0.95,9.80 Z" fill="#283513" stroke="none" /><path d="M 2.67,9.57 L 2.67,11.80 L 3.53,12.21 L 3.59,12.28 L 3.59,14.47 L 4.42,14.89 L 4.49,14.89 L 4.49,12.69 L 3.66,12.28 L 3.59,12.21 L 3.59,10.02 Z" fill="#283513" stroke="none" /><path d="M 17.08,28.53 L 17.02,28.53 L 15.33,29.39 L 15.27,29.36 L 15.27,28.31 L 14.41,28.72 L 14.41,30.95 L 15.24,30.54 L 15.27,30.57 L 15.27,31.59 L 16.19,31.14 L 16.19,30.09 L 16.25,30.03 L 17.08,29.61 Z" fill="#293814" stroke="none" /><path d="M 19.79,28.28 L 19.72,28.28 L 18.89,28.69 L 18.89,29.77 L 19.79,29.33 Z" fill="#293814" stroke="none" /><path d="M 21.60,27.36 L 20.71,27.80 L 20.71,28.85 L 20.77,28.85 L 21.60,28.44 Z" fill="#293814" stroke="none" /><path d="M 18.89,20.96 L 17.97,21.41 L 17.97,22.49 L 17.91,22.55 L 17.08,22.97 L 17.08,25.19 L 17.97,24.75 L 17.97,23.67 L 18.04,23.60 L 18.89,23.19 Z" fill="#293814" stroke="none" /><path d="M 28.82,18.23 L 28.76,18.23 L 27.93,18.64 L 27.93,20.83 L 27.86,20.90 L 27.07,21.28 L 27.04,21.25 L 27.04,20.23 L 26.97,20.23 L 26.15,20.64 L 26.15,21.76 L 27.01,21.34 L 27.04,21.38 L 27.04,22.43 L 27.93,21.98 L 27.93,20.90 L 27.99,20.83 L 28.82,20.42 Z" fill="#293814" stroke="none" /><path d="M 23.41,17.59 L 22.52,18.04 L 22.52,21.34 L 22.58,21.34 L 24.33,20.45 L 24.33,19.34 L 23.44,19.79 L 23.41,19.75 Z" fill="#293814" stroke="none" /><path d="M 27.01,13.55 L 26.15,14.00 L 26.15,16.22 L 27.01,15.81 L 27.04,15.84 L 27.04,16.89 L 27.07,16.89 L 27.93,16.45 L 27.93,14.22 L 27.07,14.63 L 27.04,14.60 L 27.04,13.55 Z" fill="#293814" stroke="none" /><path d="M 16.19,13.49 L 15.27,13.93 L 15.27,15.01 L 16.19,14.57 Z" fill="#293814" stroke="none" /><path d="M 21.60,10.78 L 18.89,12.12 L 18.89,13.20 L 19.75,12.79 L 19.79,12.82 L 19.79,13.84 L 19.85,13.84 L 20.68,13.42 L 20.71,13.39 L 20.71,12.31 L 21.60,11.86 Z" fill="#293814" stroke="none" /><path d="M 27.04,8.08 L 26.97,8.08 L 26.15,8.49 L 26.15,9.54 L 26.08,9.61 L 25.26,10.02 L 25.22,9.99 L 25.22,8.97 L 24.33,9.42 L 24.33,11.58 L 25.19,11.17 L 25.22,11.20 L 25.22,12.25 L 26.15,11.80 L 26.15,10.69 L 27.04,10.24 Z" fill="#293814" stroke="none" /><path d="M 12.60,12.60 L 12.60,12.63 L 14.35,13.49 L 14.38,13.52 L 14.35,13.55 L 13.55,13.93 L 13.55,13.96 L 14.38,14.38 L 14.44,14.38 L 16.16,13.52 L 16.13,13.46 L 13.52,12.15 Z" fill="#2a3814" stroke="none" /><path d="M 18.04,10.78 L 18.07,10.85 L 19.72,11.67 L 19.85,11.67 L 20.68,11.26 L 20.64,11.20 L 18.99,10.37 L 18.86,10.37 Z" fill="#2a3814" stroke="none" /><path d="M 14.44,9.86 L 14.44,9.92 L 16.16,10.78 L 16.29,10.78 L 17.11,10.37 L 17.11,10.34 L 15.33,9.45 L 15.27,9.45 Z" fill="#2a3814" stroke="none" /><path d="M 9.00,8.97 L 9.03,9.03 L 10.75,9.89 L 10.85,9.89 L 11.67,9.48 L 11.67,9.42 L 9.96,8.56 L 9.83,8.56 Z" fill="#2a3814" stroke="none" /><path d="M 21.66,8.08 L 21.66,8.11 L 24.27,9.42 L 24.37,9.42 L 25.19,9.00 L 25.19,8.94 L 22.58,7.63 L 22.52,7.63 Z" fill="#2a3814" stroke="none" /><path d="M 14.41,8.08 L 14.41,8.11 L 16.19,9.00 L 17.11,8.56 L 17.11,8.52 L 15.33,7.63 Z" fill="#2a3814" stroke="none" /><path d="M 0.89,6.74 L 0.89,6.78 L 2.61,7.63 L 2.67,7.63 L 3.53,7.19 L 3.53,7.16 L 1.81,6.30 L 1.75,6.30 Z" fill="#2a3814" stroke="none" /><path d="M 14.41,6.27 L 14.41,6.30 L 17.08,7.63 L 17.18,7.63 L 18.00,7.22 L 18.00,7.16 L 15.33,5.82 Z" fill="#2a3814" stroke="none" /><path d="M 7.19,6.27 L 7.19,6.30 L 9.86,7.63 L 9.92,7.63 L 10.75,7.22 L 10.75,7.16 L 9.92,6.74 L 9.99,6.68 L 10.78,6.30 L 10.78,6.27 L 9.89,5.82 L 9.00,6.27 L 8.94,6.27 L 8.05,5.82 Z" fill="#2a3814" stroke="none" /><path d="M 24.40,5.79 L 24.40,5.85 L 26.12,6.71 L 26.08,6.78 L 25.29,7.16 L 25.29,7.19 L 26.15,7.63 L 26.21,7.63 L 27.07,7.19 L 27.90,7.60 L 27.99,7.60 L 28.79,7.19 L 28.79,7.16 L 25.29,5.41 L 25.16,5.41 Z" fill="#2a3814" stroke="none" /><path d="M 22.58,4.90 L 22.62,4.96 L 23.44,5.38 L 24.30,4.96 L 24.27,4.90 L 23.44,4.49 Z" fill="#2a3814" stroke="none" /><path d="M 13.52,4.90 L 13.55,4.96 L 14.38,5.38 L 14.44,5.38 L 15.30,4.93 L 15.30,4.90 L 14.47,4.49 L 14.35,4.49 Z" fill="#2a3814" stroke="none" /><path d="M 10.78,4.45 L 10.78,4.49 L 11.67,4.93 L 12.60,4.49 L 12.60,4.45 L 11.71,4.01 Z" fill="#2a3814" stroke="none" /><path d="M 13.52,3.09 L 13.55,3.15 L 15.27,4.01 L 15.36,4.01 L 16.19,3.59 L 16.19,3.53 L 14.47,2.67 L 14.35,2.67 Z" fill="#2a3814" stroke="none" /><path d="M 16.22,2.64 L 16.22,2.67 L 18.00,3.56 L 18.07,3.56 L 18.93,3.12 L 18.93,3.09 L 17.15,2.19 Z" fill="#2a3814" stroke="none" /><path d="M 9.96,26.50 L 9.92,26.50 L 9.92,28.66 L 9.89,28.69 L 9.10,28.28 L 9.03,28.28 L 9.03,29.33 L 9.89,29.77 L 9.92,29.77 L 9.92,28.76 L 9.96,28.72 L 10.85,29.17 L 10.85,26.94 Z" fill="#324318" stroke="none" /><path d="M 12.63,24.52 L 12.63,26.75 L 13.55,27.20 L 13.55,24.97 Z" fill="#324318" stroke="none" /><path d="M 9.92,23.19 L 9.92,24.30 L 10.85,24.75 L 10.85,23.63 L 9.99,23.19 Z" fill="#324318" stroke="none" /><path d="M 13.55,22.78 L 13.55,23.89 L 14.41,24.30 L 14.41,23.19 Z" fill="#324318" stroke="none" /><path d="M 11.74,21.88 L 11.74,22.97 L 12.63,23.41 L 12.63,22.30 L 11.80,21.88 Z" fill="#324318" stroke="none" /><path d="M 1.78,20.23 L 1.78,22.43 L 2.67,22.87 L 2.67,20.64 L 1.84,20.23 Z" fill="#324318" stroke="none" /><path d="M 6.30,19.15 L 6.30,22.49 L 7.16,22.90 L 7.22,22.97 L 7.22,23.98 L 7.19,24.02 L 6.30,23.57 L 6.30,25.80 L 7.16,26.24 L 7.22,26.24 L 7.22,24.08 L 7.25,24.05 L 8.11,24.49 L 8.11,26.72 L 9.03,27.17 L 9.03,24.94 L 8.11,24.46 L 8.11,23.44 L 8.14,23.41 L 8.97,23.83 L 9.03,23.83 L 9.03,22.71 L 7.28,21.85 L 7.22,21.79 L 7.22,19.59 Z" fill="#324318" stroke="none" /><path d="M 9.92,18.74 L 9.92,22.08 L 10.85,22.52 L 10.85,19.18 Z" fill="#324318" stroke="none" /><path d="M 13.55,17.24 L 13.55,19.44 L 14.35,19.85 L 14.41,19.85 L 14.41,17.65 L 13.61,17.24 Z" fill="#324318" stroke="none" /><path d="M 6.30,16.92 L 6.30,18.04 L 7.16,18.48 L 7.22,18.48 L 7.22,17.37 Z" fill="#324318" stroke="none" /><path d="M 8.11,16.73 L 8.11,17.84 L 9.03,18.29 L 9.03,17.18 L 8.17,16.73 Z" fill="#324318" stroke="none" /><path d="M 2.67,16.22 L 2.67,18.45 L 3.59,18.89 L 3.59,17.84 L 3.63,17.81 L 4.42,18.23 L 4.49,18.23 L 4.49,17.11 Z" fill="#324318" stroke="none" /><path d="M 0.00,16.00 L 0.00,17.11 L 0.83,17.53 L 0.89,17.53 L 0.89,16.45 Z" fill="#324318" stroke="none" /><path d="M 8.11,14.50 L 8.11,15.62 L 8.97,16.06 L 9.03,16.06 L 9.03,14.95 Z" fill="#324318" stroke="none" /><path d="M 2.67,11.80 L 2.67,15.11 L 3.53,15.55 L 3.59,15.55 L 3.59,12.25 L 2.74,11.80 Z" fill="#324318" stroke="none" /><path d="M 9.03,11.71 L 9.03,13.87 L 9.86,14.28 L 9.92,14.28 L 9.92,12.12 L 9.10,11.71 Z" fill="#324318" stroke="none" /><path d="M 4.49,11.58 L 4.49,13.81 L 5.34,14.25 L 5.41,14.25 L 5.41,12.02 Z" fill="#324318" stroke="none" /><path d="M 7.22,10.78 L 7.22,12.95 L 8.11,13.39 L 8.11,11.23 Z" fill="#324318" stroke="none" /><path d="M 9.92,28.72 L 9.92,29.77 L 10.78,30.22 L 10.85,30.22 L 10.85,29.17 L 9.99,28.72 Z" fill="#3a4f1d" stroke="none" /><path d="M 11.74,28.53 L 11.74,30.70 L 12.56,31.11 L 12.63,31.11 L 12.63,28.95 L 11.80,28.53 Z" fill="#3a4f1d" stroke="none" /><path d="M 8.11,26.72 L 8.11,28.88 L 9.03,29.33 L 9.03,27.17 L 8.17,26.72 Z" fill="#3a4f1d" stroke="none" /><path d="M 1.78,24.65 L 1.78,25.70 L 2.67,26.15 L 2.67,25.07 L 1.84,24.65 Z" fill="#3a4f1d" stroke="none" /><path d="M 13.55,23.89 L 13.55,25.00 L 14.41,25.42 L 14.41,24.30 L 13.61,23.89 Z" fill="#3a4f1d" stroke="none" /><path d="M 0.00,23.76 L 0.00,24.81 L 0.89,25.26 L 0.89,24.17 L 0.06,23.76 Z" fill="#3a4f1d" stroke="none" /><path d="M 11.77,22.97 L 11.74,22.97 L 11.74,25.13 L 11.71,25.16 L 9.99,24.30 L 9.92,24.30 L 9.92,26.50 L 10.78,26.94 L 10.85,26.94 L 10.85,25.89 L 10.88,25.86 L 11.67,26.27 L 11.74,26.27 L 11.74,25.26 L 11.77,25.22 L 12.63,25.64 L 12.63,23.41 Z" fill="#3a4f1d" stroke="none" /><path d="M 4.49,22.68 L 4.49,25.99 L 5.41,26.47 L 5.41,27.51 L 6.30,27.96 L 6.30,26.94 L 6.33,26.91 L 7.22,27.36 L 7.22,26.24 L 6.30,25.80 L 6.30,26.85 L 6.27,26.88 L 5.41,26.43 L 5.41,23.13 L 4.55,22.68 Z" fill="#3a4f1d" stroke="none" /><path d="M 1.78,22.43 L 1.78,23.54 L 2.67,23.98 L 2.67,22.87 Z" fill="#3a4f1d" stroke="none" /><path d="M 9.03,20.52 L 9.03,21.63 L 9.92,22.08 L 9.92,23.19 L 10.85,23.63 L 10.85,22.52 L 9.92,22.04 L 9.92,20.96 Z" fill="#3a4f1d" stroke="none" /><path d="M 13.55,19.44 L 13.55,21.66 L 14.35,22.08 L 14.41,22.08 L 14.41,19.85 Z" fill="#3a4f1d" stroke="none" /><path d="M 8.11,17.84 L 8.11,18.96 L 9.03,19.40 L 9.03,18.29 L 8.17,17.84 Z" fill="#3a4f1d" stroke="none" /><path d="M 11.74,17.43 L 11.74,18.54 L 12.56,18.96 L 12.63,18.96 L 12.63,17.88 Z" fill="#3a4f1d" stroke="none" /><path d="M 0.00,17.11 L 0.00,21.53 L 0.89,21.98 L 0.89,17.53 L 0.06,17.11 Z" fill="#3a4f1d" stroke="none" /><path d="M 1.78,14.66 L 1.78,19.12 L 2.61,19.53 L 2.67,19.53 L 2.67,15.11 Z" fill="#3a4f1d" stroke="none" /><path d="M 9.03,13.87 L 9.03,14.98 L 9.86,15.40 L 9.92,15.40 L 9.92,14.28 L 9.10,13.87 Z" fill="#3a4f1d" stroke="none" /><path d="M 4.52,13.81 L 4.49,13.81 L 4.49,14.85 L 4.45,14.89 L 3.66,14.47 L 3.59,14.47 L 3.59,16.70 L 4.42,17.11 L 4.49,17.11 L 4.49,16.06 L 4.52,16.03 L 5.41,16.48 L 5.41,14.25 Z" fill="#3a4f1d" stroke="none" /><path d="M 7.22,12.95 L 7.22,16.29 L 9.03,17.18 L 9.03,16.06 L 8.17,15.65 L 8.11,15.59 L 8.11,13.39 Z" fill="#3a4f1d" stroke="none" /><path d="M 10.85,12.60 L 10.85,13.68 L 11.67,14.09 L 11.74,14.09 L 11.74,13.04 Z" fill="#3a4f1d" stroke="none" /><path d="M 9.92,11.23 L 9.92,11.29 L 12.50,12.56 L 12.53,12.60 L 12.50,12.66 L 11.77,13.01 L 11.77,13.07 L 13.49,13.93 L 13.61,13.93 L 14.38,13.55 L 14.38,13.49 L 12.69,12.66 L 12.66,12.63 L 12.69,12.56 L 13.46,12.18 L 13.55,12.18 L 14.35,12.60 L 14.47,12.60 L 15.30,12.18 L 15.27,12.12 L 13.55,11.26 L 13.46,11.26 L 12.60,11.71 L 10.85,10.82 L 10.75,10.82 Z" fill="#3e511e" stroke="none" /><path d="M 17.11,10.34 L 17.11,10.37 L 18.00,10.82 L 18.93,10.37 L 18.93,10.34 L 18.04,9.89 Z" fill="#3e511e" stroke="none" /><path d="M 6.30,9.42 L 6.30,9.48 L 8.02,10.34 L 7.98,10.40 L 7.25,10.75 L 7.25,10.82 L 8.08,11.23 L 8.17,11.23 L 8.97,10.82 L 8.97,10.78 L 8.14,10.37 L 8.17,10.31 L 8.94,9.92 L 9.03,9.92 L 9.83,10.34 L 9.96,10.34 L 10.78,9.92 L 10.75,9.86 L 9.92,9.45 L 9.86,9.45 L 8.97,9.89 L 7.22,9.00 L 7.13,9.00 Z" fill="#3e511e" stroke="none" /><path d="M 21.66,8.97 L 21.69,9.03 L 22.52,9.45 L 22.58,9.45 L 23.44,9.00 L 23.44,8.97 L 22.62,8.56 L 22.49,8.56 Z" fill="#3e511e" stroke="none" /><path d="M 11.71,8.52 L 11.71,8.56 L 13.49,9.45 L 12.66,9.86 L 12.63,9.92 L 14.35,10.78 L 14.47,10.78 L 15.30,10.37 L 15.27,10.31 L 14.44,9.89 L 15.27,9.48 L 15.27,9.42 L 12.66,8.11 L 12.53,8.11 Z" fill="#3e511e" stroke="none" /><path d="M 18.00,8.08 L 17.11,7.63 L 16.22,8.08 L 16.22,8.11 L 17.05,8.52 L 17.18,8.52 L 18.00,8.11 Z" fill="#3e511e" stroke="none" /><path d="M 7.19,8.08 L 7.19,8.11 L 8.97,9.00 L 9.89,8.56 L 9.89,8.52 L 8.11,7.63 L 8.05,7.63 Z" fill="#3e511e" stroke="none" /><path d="M 22.58,7.60 L 22.58,7.67 L 24.30,8.52 L 24.43,8.52 L 25.26,8.11 L 25.22,8.05 L 23.51,7.19 L 23.41,7.19 Z" fill="#3e511e" stroke="none" /><path d="M 19.85,7.16 L 19.88,7.22 L 21.60,8.08 L 21.69,8.08 L 22.52,7.67 L 22.52,7.60 L 20.80,6.74 L 20.68,6.74 Z" fill="#3e511e" stroke="none" /><path d="M 11.71,6.71 L 11.74,6.78 L 14.35,8.08 L 14.47,8.08 L 16.19,7.22 L 16.19,7.16 L 15.36,6.74 L 15.27,6.74 L 14.41,7.19 L 12.66,6.30 L 12.53,6.30 Z" fill="#3e511e" stroke="none" /><path d="M 2.70,5.82 L 2.74,5.88 L 4.39,6.71 L 4.36,6.78 L 3.56,7.16 L 3.56,7.19 L 4.42,7.63 L 4.49,7.63 L 5.34,7.19 L 6.23,7.63 L 6.30,7.63 L 7.16,7.19 L 7.16,7.16 L 3.66,5.41 L 3.53,5.41 Z" fill="#3e511e" stroke="none" /><path d="M 18.96,5.82 L 18.96,5.85 L 19.79,6.27 L 19.91,6.27 L 20.71,5.85 L 20.80,5.85 L 21.60,6.27 L 21.69,6.27 L 22.52,5.85 L 22.52,5.79 L 21.69,5.38 L 21.63,5.38 L 20.77,5.82 L 19.88,5.38 L 19.82,5.38 Z" fill="#3e511e" stroke="none" /><path d="M 22.58,5.79 L 22.58,5.85 L 25.26,7.19 L 26.18,6.74 L 26.18,6.71 L 24.43,5.85 L 24.40,5.82 L 24.43,5.79 L 25.22,5.41 L 25.22,5.38 L 24.33,4.93 Z" fill="#3e511e" stroke="none" /><path d="M 5.38,5.34 L 5.41,5.41 L 7.13,6.27 L 7.22,6.27 L 8.05,5.85 L 8.02,5.79 L 6.30,4.93 L 6.20,4.93 Z" fill="#3e511e" stroke="none" /><path d="M 11.71,4.90 L 11.74,4.96 L 14.35,6.27 L 14.47,6.27 L 15.27,5.85 L 15.36,5.85 L 18.00,7.19 L 18.07,7.19 L 18.93,6.74 L 18.93,6.71 L 15.36,4.93 L 15.27,4.93 L 14.41,5.38 L 12.66,4.49 L 12.53,4.49 Z" fill="#3e511e" stroke="none" /><path d="M 20.77,4.01 L 20.77,4.04 L 21.60,4.45 L 21.73,4.45 L 22.49,4.07 L 22.49,4.01 L 21.66,3.59 L 21.57,3.59 Z" fill="#3e511e" stroke="none" /><path d="M 16.25,3.53 L 16.25,3.59 L 17.08,4.01 L 17.18,4.01 L 18.00,3.59 L 18.00,3.53 L 17.18,3.12 L 17.08,3.12 Z" fill="#3e511e" stroke="none" /><path d="M 9.00,3.53 L 9.00,3.59 L 10.72,4.45 L 10.85,4.45 L 11.67,4.04 L 11.64,3.98 L 9.92,3.12 L 9.83,3.12 Z" fill="#3e511e" stroke="none" /><path d="M 9.96,2.19 L 9.96,2.26 L 12.56,3.56 L 12.63,3.56 L 13.49,3.12 L 13.49,3.09 L 10.88,1.78 L 10.78,1.78 Z" fill="#3e511e" stroke="none" /><path d="M 14.44,1.72 L 14.44,1.78 L 16.16,2.64 L 16.29,2.64 L 17.11,2.23 L 17.08,2.16 L 15.36,1.30 L 15.27,1.30 Z" fill="#3e511e" stroke="none" /><path d="M 6.30,26.91 L 6.30,27.96 L 7.16,28.41 L 7.22,28.41 L 7.22,27.36 L 6.36,26.91 Z" fill="#425a21" stroke="none" /><path d="M 4.49,25.99 L 4.49,27.07 L 5.41,27.51 L 5.41,26.43 Z" fill="#425a21" stroke="none" /><path d="M 11.74,25.19 L 11.74,26.31 L 12.63,26.75 L 12.63,27.86 L 13.55,28.31 L 13.55,27.26 L 13.58,27.23 L 14.35,27.61 L 14.41,27.61 L 14.41,25.42 L 13.61,25.00 L 13.55,25.00 L 13.55,27.13 L 13.49,27.17 L 12.63,26.72 L 12.63,25.64 Z" fill="#425a21" stroke="none" /><path d="M 0.00,21.53 L 0.00,23.76 L 0.89,24.21 L 0.89,25.26 L 1.78,25.70 L 1.78,24.68 L 1.81,24.65 L 2.61,25.07 L 2.67,25.07 L 2.67,23.98 L 0.95,23.13 L 0.89,23.06 L 0.89,21.98 Z" fill="#425a21" stroke="none" /><path d="M 8.11,18.96 L 8.11,22.27 L 9.86,23.16 L 9.92,23.16 L 9.92,22.04 L 9.03,21.60 L 9.03,19.40 L 8.17,18.96 Z" fill="#425a21" stroke="none" /><path d="M 11.74,18.54 L 11.74,20.77 L 12.63,21.22 L 12.63,22.33 L 13.55,22.78 L 13.55,20.55 L 12.63,20.07 L 12.63,18.96 L 11.80,18.54 Z" fill="#425a21" stroke="none" /><path d="M 3.66,17.81 L 3.59,17.81 L 3.59,18.83 L 3.56,18.86 L 2.74,18.45 L 2.67,18.45 L 2.67,20.68 L 3.56,21.12 L 3.59,21.12 L 3.59,20.07 L 3.63,20.04 L 4.49,20.45 L 4.49,18.23 Z" fill="#425a21" stroke="none" /><path d="M 9.92,12.15 L 9.92,14.31 L 10.78,14.73 L 10.85,14.79 L 10.85,15.87 L 11.74,16.32 L 11.74,15.27 L 11.77,15.24 L 12.63,15.65 L 12.63,13.49 L 11.74,13.04 L 11.74,14.06 L 11.71,14.09 L 10.85,13.65 L 10.85,12.60 L 9.99,12.15 Z" fill="#425a21" stroke="none" /><path d="M 4.49,9.42 L 4.49,10.50 L 5.34,10.91 L 5.41,10.97 L 5.41,12.06 L 6.23,12.47 L 6.30,12.47 L 6.30,11.45 L 6.33,11.42 L 7.16,11.83 L 7.22,11.83 L 7.22,10.78 L 7.19,10.75 Z" fill="#425a21" stroke="none" /><path d="M 0.89,7.63 L 0.89,8.68 L 1.78,9.13 L 1.78,8.05 L 0.95,7.63 Z" fill="#425a21" stroke="none" /><path d="M 9.92,12.12 L 9.92,12.15 L 11.71,13.04 L 11.77,13.04 L 12.60,12.63 L 12.60,12.60 L 10.82,11.71 L 10.75,11.71 Z" fill="#4d6826" stroke="none" /><path d="M 17.15,11.23 L 17.18,11.29 L 18.83,12.12 L 18.96,12.12 L 19.79,11.71 L 19.79,11.67 L 18.07,10.82 L 17.97,10.82 Z" fill="#4d6826" stroke="none" /><path d="M 18.93,10.34 L 18.93,10.37 L 20.64,11.23 L 20.74,11.23 L 21.57,10.82 L 21.57,10.75 L 19.85,9.89 Z" fill="#4d6826" stroke="none" /><path d="M 6.33,10.31 L 6.36,10.37 L 7.19,10.78 L 7.25,10.78 L 8.08,10.37 L 8.08,10.34 L 7.19,9.89 Z" fill="#4d6826" stroke="none" /><path d="M 16.22,9.89 L 16.22,9.92 L 17.05,10.34 L 17.18,10.34 L 18.00,9.92 L 17.97,9.86 L 17.15,9.45 L 17.08,9.45 Z" fill="#4d6826" stroke="none" /><path d="M 8.11,9.42 L 8.11,9.48 L 8.94,9.89 L 9.03,9.89 L 9.86,9.48 L 9.86,9.42 L 9.03,9.00 L 8.94,9.00 Z" fill="#4d6826" stroke="none" /><path d="M 14.44,8.97 L 14.44,9.03 L 15.27,9.45 L 15.33,9.45 L 16.19,9.00 L 16.19,8.97 L 15.36,8.56 L 15.27,8.56 Z" fill="#4d6826" stroke="none" /><path d="M 9.89,8.52 L 9.89,8.56 L 12.56,9.89 L 12.66,9.89 L 13.49,9.48 L 13.49,9.42 L 10.82,8.08 Z" fill="#4d6826" stroke="none" /><path d="M 4.45,8.52 L 4.45,8.56 L 6.23,9.45 L 6.30,9.45 L 7.16,9.00 L 7.16,8.97 L 5.38,8.08 Z" fill="#4d6826" stroke="none" /><path d="M 19.85,8.08 L 19.85,8.11 L 21.63,9.00 L 22.55,8.56 L 22.55,8.52 L 20.77,7.63 L 20.71,7.63 Z" fill="#4d6826" stroke="none" /><path d="M 15.33,7.63 L 15.33,7.67 L 16.16,8.08 L 16.29,8.08 L 17.11,7.67 L 17.08,7.60 L 16.25,7.19 L 16.19,7.19 Z" fill="#4d6826" stroke="none" /><path d="M 8.11,7.60 L 8.11,7.67 L 8.94,8.08 L 9.03,8.08 L 9.86,7.67 L 9.86,7.60 L 9.03,7.19 L 8.94,7.19 Z" fill="#4d6826" stroke="none" /><path d="M 19.85,6.27 L 19.85,6.30 L 22.52,7.63 L 22.58,7.63 L 23.44,7.19 L 23.44,7.16 L 20.77,5.82 Z" fill="#4d6826" stroke="none" /><path d="M 17.15,4.90 L 17.18,4.96 L 18.00,5.38 L 17.18,5.79 L 17.15,5.85 L 17.97,6.27 L 18.10,6.27 L 19.82,5.41 L 19.82,5.34 L 18.10,4.49 L 17.97,4.49 Z" fill="#4d6826" stroke="none" /><path d="M 4.52,4.93 L 4.52,4.96 L 5.25,5.31 L 5.31,5.38 L 4.49,5.79 L 4.49,5.85 L 6.20,6.71 L 6.33,6.71 L 7.16,6.30 L 7.13,6.23 L 5.41,5.38 L 5.47,5.31 L 6.20,4.96 L 6.23,4.90 L 5.38,4.49 Z" fill="#4d6826" stroke="none" /><path d="M 7.19,5.34 L 7.19,5.41 L 8.91,6.27 L 9.03,6.27 L 9.83,5.85 L 9.92,5.85 L 10.69,6.23 L 10.72,6.27 L 10.69,6.33 L 9.89,6.71 L 9.89,6.74 L 10.75,7.19 L 10.82,7.19 L 12.56,6.30 L 12.63,6.30 L 14.38,7.19 L 14.44,7.19 L 15.30,6.74 L 15.30,6.71 L 12.63,5.38 L 12.56,5.38 L 11.71,5.82 L 10.85,5.41 L 10.82,5.38 L 10.85,5.34 L 11.64,4.96 L 11.67,4.90 L 9.89,4.01 L 8.97,4.45 L 8.97,4.49 L 10.75,5.38 L 9.89,5.82 L 8.11,4.93 L 8.02,4.93 Z" fill="#4d6826" stroke="none" /><path d="M 19.88,3.53 L 19.88,3.59 L 20.71,4.01 L 20.80,4.01 L 21.60,3.59 L 21.60,3.56 L 20.77,3.15 L 20.64,3.15 Z" fill="#4d6826" stroke="none" /><path d="M 14.41,2.64 L 14.41,2.67 L 16.19,3.56 L 16.25,3.56 L 17.11,3.12 L 17.11,3.09 L 15.33,2.19 Z" fill="#4d6826" stroke="none" /><path d="M 17.97,12.56 L 17.11,12.15 L 16.22,12.60 L 16.22,12.63 L 17.05,13.04 L 17.11,13.04 L 17.94,12.63 Z" fill="#59792c" stroke="none" /><path d="M 11.71,11.23 L 11.74,11.29 L 12.56,11.71 L 12.63,11.71 L 13.49,11.26 L 13.49,11.23 L 12.66,10.82 L 12.53,10.82 Z" fill="#59792c" stroke="none" /><path d="M 8.14,11.23 L 8.14,11.26 L 9.86,12.12 L 9.99,12.12 L 10.75,11.74 L 10.75,11.67 L 9.03,10.82 L 8.94,10.82 Z" fill="#59792c" stroke="none" /><path d="M 16.22,10.78 L 16.22,10.82 L 17.11,11.26 L 18.00,10.82 L 18.00,10.78 L 17.18,10.37 L 17.05,10.37 Z" fill="#59792c" stroke="none" /><path d="M 5.41,9.86 L 5.41,9.89 L 6.30,10.34 L 7.16,9.92 L 7.13,9.86 L 6.30,9.45 L 6.23,9.45 Z" fill="#59792c" stroke="none" /><path d="M 15.33,9.42 L 15.33,9.48 L 16.16,9.89 L 16.25,9.89 L 17.11,9.45 L 18.86,10.34 L 18.99,10.34 L 19.82,9.92 L 19.79,9.86 L 17.18,8.56 L 17.05,8.56 Z" fill="#59792c" stroke="none" /><path d="M 13.52,8.52 L 13.55,8.59 L 14.38,9.00 L 14.44,9.00 L 15.30,8.56 L 15.30,8.52 L 14.47,8.11 L 14.35,8.11 Z" fill="#59792c" stroke="none" /><path d="M 9.00,8.08 L 9.00,8.11 L 9.83,8.52 L 9.96,8.52 L 10.75,8.11 L 10.85,8.11 L 11.64,8.52 L 11.77,8.52 L 12.60,8.11 L 12.60,8.08 L 11.71,7.63 L 10.82,8.08 L 9.92,7.63 L 9.86,7.63 Z" fill="#59792c" stroke="none" /><path d="M 7.16,6.27 L 6.27,6.71 L 6.27,6.74 L 7.06,7.13 L 7.13,7.19 L 6.30,7.60 L 6.30,7.67 L 7.13,8.08 L 7.06,8.14 L 6.27,8.52 L 6.27,8.56 L 8.05,9.45 L 8.11,9.45 L 8.94,9.03 L 8.97,8.97 L 7.28,8.14 L 7.22,8.08 L 8.94,7.22 L 8.97,7.16 Z" fill="#59792c" stroke="none" /><path d="M 1.81,6.27 L 1.81,6.33 L 3.53,7.19 L 4.45,6.74 L 4.45,6.71 L 2.74,5.85 L 2.64,5.85 Z" fill="#59792c" stroke="none" /><path d="M 18.04,6.27 L 18.04,6.30 L 18.83,6.68 L 18.89,6.74 L 18.07,7.16 L 18.07,7.22 L 19.79,8.08 L 19.88,8.08 L 20.71,7.67 L 20.71,7.60 L 19.88,7.19 L 19.94,7.13 L 20.74,6.74 L 20.74,6.71 L 18.96,5.82 Z" fill="#59792c" stroke="none" /><path d="M 5.34,5.34 L 4.49,4.93 L 3.59,5.38 L 3.59,5.41 L 4.42,5.82 L 4.49,5.82 L 5.31,5.41 Z" fill="#59792c" stroke="none" /><path d="M 5.41,4.49 L 5.41,4.52 L 7.13,5.38 L 7.19,5.38 L 8.05,4.93 L 8.05,4.90 L 6.33,4.04 L 6.27,4.04 Z" fill="#59792c" stroke="none" /><path d="M 17.15,4.01 L 17.15,4.04 L 20.71,5.82 L 20.80,5.82 L 21.63,5.41 L 21.63,5.34 L 18.07,3.56 L 18.00,3.56 Z" fill="#59792c" stroke="none" /><path d="M 8.11,3.12 L 8.11,3.15 L 8.94,3.56 L 8.11,3.98 L 8.08,4.04 L 8.91,4.45 L 9.03,4.45 L 9.86,4.04 L 9.83,3.98 L 9.00,3.56 L 9.86,3.12 L 12.53,4.45 L 12.66,4.45 L 13.49,4.04 L 13.46,3.98 L 10.85,2.67 L 10.72,2.67 L 9.92,3.09 L 9.83,3.09 L 9.00,2.67 Z" fill="#59792c" stroke="none" /><path d="M 13.52,2.19 L 13.52,2.23 L 14.35,2.64 L 14.47,2.64 L 15.30,2.23 L 15.27,2.16 L 14.44,1.75 L 14.38,1.75 Z" fill="#59792c" stroke="none" /><path d="M 16.25,1.72 L 16.25,1.78 L 19.82,3.56 L 19.88,3.56 L 20.71,3.15 L 20.71,3.12 L 17.15,1.34 L 17.02,1.34 Z" fill="#59792c" stroke="none" /><path d="M 13.49,1.27 L 12.63,0.86 L 11.74,1.30 L 11.74,1.34 L 12.56,1.75 L 12.63,1.75 L 13.46,1.34 Z" fill="#59792c" stroke="none" /><path d="M 13.58,0.38 L 13.58,0.45 L 14.35,0.83 L 14.47,0.83 L 15.24,0.45 L 15.24,0.38 L 14.47,0.00 L 14.35,0.00 Z" fill="#59792c" stroke="none" /><path d="M 14.41,12.63 L 16.13,13.49 L 16.22,13.49 L 17.05,13.07 L 17.05,13.01 L 16.32,12.66 L 16.29,12.63 L 16.32,12.56 L 17.08,12.18 L 17.18,12.18 L 18.00,12.60 L 18.89,12.15 L 18.89,12.12 L 17.18,11.26 L 17.08,11.26 L 16.22,11.71 L 15.36,11.26 L 15.27,11.26 L 14.44,11.67 L 14.44,11.74 L 15.27,12.15 L 15.20,12.21 L 14.41,12.60 Z" fill="#668b32" stroke="none" /><path d="M 8.08,10.34 L 8.08,10.37 L 9.86,11.26 L 9.92,11.26 L 10.78,10.82 L 11.71,11.26 L 12.60,10.82 L 12.60,10.78 L 10.82,9.89 L 9.92,10.34 L 9.86,10.34 L 9.00,9.89 Z" fill="#668b32" stroke="none" /><path d="M 20.74,10.37 L 21.57,10.78 L 21.63,10.78 L 24.30,9.45 L 24.30,9.42 L 23.51,9.00 L 23.41,9.00 L 22.55,9.45 L 21.69,9.00 L 21.60,9.00 L 20.77,9.42 L 20.77,9.48 L 21.60,9.89 L 21.53,9.96 L 20.74,10.34 Z" fill="#668b32" stroke="none" /><path d="M 3.63,9.00 L 5.34,9.86 L 5.47,9.86 L 6.23,9.48 L 6.23,9.42 L 4.55,8.59 L 4.52,8.52 L 5.31,8.11 L 5.41,8.11 L 6.20,8.52 L 6.33,8.52 L 7.16,8.11 L 7.16,8.08 L 6.30,7.63 L 6.23,7.63 L 5.38,8.08 L 4.49,7.63 L 4.42,7.63 L 3.56,8.08 L 3.56,8.11 L 4.39,8.52 L 4.36,8.59 L 3.63,8.94 Z" fill="#668b32" stroke="none" /><path d="M 26.21,7.60 L 26.21,7.67 L 26.97,8.05 L 27.10,8.05 L 27.93,7.63 L 27.90,7.57 L 27.13,7.19 L 27.04,7.19 Z" fill="#668b32" stroke="none" /><path d="M 9.92,7.60 L 9.92,7.67 L 10.75,8.08 L 10.85,8.08 L 11.64,7.67 L 11.74,7.67 L 13.49,8.56 L 14.41,8.11 L 14.41,8.08 L 11.74,6.74 L 11.64,6.74 Z" fill="#668b32" stroke="none" /><path d="M 15.33,4.01 L 15.33,4.04 L 16.16,4.45 L 16.13,4.52 L 15.33,4.90 L 15.36,4.96 L 17.08,5.82 L 17.18,5.82 L 18.00,5.41 L 18.00,5.34 L 17.18,4.93 L 17.24,4.87 L 18.04,4.49 L 18.04,4.45 L 16.25,3.56 L 16.19,3.56 Z" fill="#668b32" stroke="none" /><path d="M 7.22,3.56 L 7.25,3.63 L 8.02,4.01 L 8.11,4.01 L 8.94,3.59 L 8.94,3.53 L 8.17,3.15 L 8.05,3.15 Z" fill="#668b32" stroke="none" /><path d="M 9.03,2.70 L 9.89,3.12 L 10.78,2.67 L 10.78,2.64 L 9.96,2.23 L 9.89,2.23 L 9.07,2.64 Z" fill="#668b32" stroke="none" /><path d="M 12.63,1.78 L 13.46,2.19 L 13.55,2.19 L 15.30,1.30 L 16.19,1.75 L 16.25,1.75 L 17.08,1.34 L 17.08,1.30 L 15.30,0.41 L 15.24,0.41 L 14.44,0.83 L 14.38,0.83 L 13.58,0.41 L 13.52,0.41 L 12.66,0.86 L 12.66,0.89 L 13.39,1.24 L 13.46,1.30 L 12.63,1.72 Z" fill="#668b32" stroke="none" /></svg>