<svg height="32" width="32" viewBox="0 0 32 32"><defs /><path d="M 19.75,28.28 L 19.69,28.28 L 18.86,28.69 L 18.86,29.77 L 19.75,29.33 Z" fill="#1b150d" stroke="none" /><path d="M 12.56,24.68 L 12.50,24.68 L 11.71,25.10 L 11.71,26.15 L 12.56,25.73 Z" fill="#1b150d" stroke="none" /><path d="M 20.68,24.49 L 20.61,24.49 L 18.86,25.38 L 18.86,26.50 L 19.72,26.08 L 19.75,26.12 L 19.75,27.17 L 20.68,26.72 Z" fill="#1b150d" stroke="none" /><path d="M 12.56,23.41 L 12.56,23.54 L 12.60,23.54 L 12.60,23.41 Z" fill="#1b150d" stroke="none" /><path d="M 25.13,23.35 L 24.30,23.76 L 24.30,24.87 L 24.37,24.87 L 25.16,24.46 L 25.19,24.49 L 25.19,26.59 L 25.26,26.59 L 26.12,26.15 L 26.12,23.98 L 25.22,24.43 L 25.19,24.40 L 25.19,23.35 Z" fill="#1b150d" stroke="none" /><path d="M 17.94,22.52 L 17.05,22.97 L 17.05,25.19 L 17.94,24.75 Z" fill="#1b150d" stroke="none" /><path d="M 11.67,21.79 L 11.67,22.87 L 11.71,22.87 L 11.71,21.79 Z" fill="#1b150d" stroke="none" /><path d="M 2.74,21.79 L 2.67,21.79 L 2.67,23.48 L 3.56,23.03 L 3.56,22.20 Z" fill="#1b150d" stroke="none" /><path d="M 0.86,21.12 L 0.80,21.12 L 0.00,21.53 L 0.00,23.73 L 0.06,23.73 L 0.86,23.32 Z" fill="#1b150d" stroke="none" /><path d="M 27.86,20.87 L 27.01,21.31 L 27.01,22.43 L 27.83,22.01 L 27.90,22.04 L 27.90,24.17 L 27.96,24.17 L 28.79,23.76 L 28.79,21.53 L 27.93,21.95 L 27.90,21.92 L 27.90,20.87 Z" fill="#1b150d" stroke="none" /><path d="M 18.89,20.39 L 18.86,20.39 L 18.83,20.45 L 18.89,20.45 Z" fill="#1b150d" stroke="none" /><path d="M 24.30,19.34 L 23.38,19.79 L 23.38,20.90 L 23.44,20.90 L 24.30,20.45 Z" fill="#1b150d" stroke="none" /><path d="M 4.45,19.31 L 3.56,19.75 L 3.56,20.87 L 4.45,20.42 Z" fill="#1b150d" stroke="none" /><path d="M 21.57,18.51 L 21.50,18.51 L 20.68,18.93 L 20.68,21.15 L 21.57,20.71 Z" fill="#1b150d" stroke="none" /><path d="M 25.19,15.59 L 25.13,15.59 L 23.38,16.48 L 23.38,18.70 L 24.30,18.26 L 24.30,17.15 L 25.19,16.70 Z" fill="#1b150d" stroke="none" /><path d="M 18.86,15.43 L 18.80,15.43 L 17.94,15.87 L 17.94,16.95 L 17.88,17.02 L 17.05,17.43 L 17.05,18.51 L 16.16,18.96 L 16.16,21.18 L 16.22,21.18 L 17.05,20.77 L 17.05,19.66 L 17.94,19.21 L 17.94,17.02 L 18.00,16.95 L 18.86,16.54 Z" fill="#1b150d" stroke="none" /><path d="M 9.00,15.36 L 8.94,15.40 L 8.94,17.59 L 9.00,17.59 Z" fill="#1b150d" stroke="none" /><path d="M 27.90,15.33 L 27.01,15.78 L 27.01,16.86 L 26.94,16.92 L 26.12,17.34 L 26.12,18.42 L 26.18,18.42 L 27.90,17.56 Z" fill="#1b150d" stroke="none" /><path d="M 13.87,15.17 L 13.77,15.17 L 13.52,15.30 L 13.52,17.53 L 13.58,17.53 L 14.38,17.11 L 14.38,15.43 Z" fill="#1b150d" stroke="none" /><path d="M 5.38,14.41 L 4.45,14.85 L 4.45,15.97 L 4.52,15.97 L 5.38,15.52 Z" fill="#1b150d" stroke="none" /><path d="M 1.75,14.03 L 1.69,14.03 L 0.86,14.44 L 0.86,16.67 L 1.75,16.22 Z" fill="#1b150d" stroke="none" /><path d="M 19.75,12.76 L 18.86,13.20 L 18.86,14.28 L 18.93,14.28 L 19.75,13.87 Z" fill="#1b150d" stroke="none" /><path d="M 11.67,12.15 L 10.82,12.56 L 10.82,13.90 L 10.88,13.90 L 11.71,13.49 L 11.71,12.18 Z" fill="#1b150d" stroke="none" /><path d="M 4.45,11.58 L 4.45,13.77 L 4.49,13.77 L 5.38,13.33 L 5.38,12.02 Z" fill="#1b150d" stroke="none" /><path d="M 27.01,11.36 L 26.94,11.36 L 26.12,11.77 L 26.12,12.88 L 26.18,12.88 L 26.97,12.47 L 27.01,12.50 L 27.01,13.52 L 26.94,13.58 L 26.12,14.00 L 26.12,15.11 L 27.01,14.66 L 27.01,13.58 L 27.07,13.52 L 27.90,13.11 L 27.90,12.02 L 27.83,12.02 L 27.04,12.44 L 27.01,12.41 Z" fill="#1b150d" stroke="none" /><path d="M 1.75,11.32 L 1.11,11.01 L 0.89,11.10 L 0.86,11.13 L 0.86,12.21 L 0.92,12.21 L 1.75,11.80 Z" fill="#1b150d" stroke="none" /><path d="M 7.73,11.01 L 7.73,11.07 L 7.98,11.20 L 8.05,11.20 L 8.05,10.88 L 7.98,10.88 Z" fill="#1b150d" stroke="none" /><path d="M 21.57,10.78 L 20.68,11.23 L 20.68,13.39 L 21.57,12.95 Z" fill="#1b150d" stroke="none" /><path d="M 24.30,10.50 L 24.24,10.50 L 23.38,10.94 L 23.38,12.02 L 23.44,12.02 L 24.30,11.58 Z" fill="#1b150d" stroke="none" /><path d="M 12.56,9.92 L 12.50,9.92 L 11.67,10.34 L 11.67,10.69 L 11.74,10.69 L 12.56,10.27 Z" fill="#1b150d" stroke="none" /><path d="M 2.64,9.13 L 2.64,10.24 L 2.67,10.24 L 2.67,9.13 Z" fill="#1b150d" stroke="none" /><path d="M 12.56,8.11 L 12.56,8.59 L 12.60,8.59 L 12.60,8.11 Z" fill="#1b150d" stroke="none" /><path d="M 11.71,8.02 L 11.71,8.52 L 12.18,8.30 L 12.18,8.24 Z" fill="#1b150d" stroke="none" /><path d="M 18.89,8.21 L 18.89,9.29 L 18.96,9.29 L 19.79,8.87 L 19.82,8.91 L 19.82,9.00 L 19.85,9.03 L 20.71,9.45 L 20.71,8.40 L 19.85,8.81 L 19.82,8.78 L 19.82,8.08 L 19.50,7.92 L 19.44,7.92 Z" fill="#1b150d" stroke="none" /><path d="M 17.08,6.90 L 17.02,6.90 L 16.19,7.32 L 16.19,8.08 L 16.25,8.08 L 17.08,7.67 Z" fill="#1b150d" stroke="none" /><path d="M 11.55,6.78 L 11.55,6.84 L 11.67,6.87 L 11.67,6.74 Z" fill="#1b150d" stroke="none" /><path d="M 5.31,6.27 L 4.64,5.92 L 4.49,5.98 L 4.45,6.01 L 4.45,6.71 L 5.31,6.30 Z" fill="#1b150d" stroke="none" /><path d="M 11.58,5.76 L 11.61,5.82 L 11.71,5.82 L 11.71,5.73 Z" fill="#1b150d" stroke="none" /><path d="M 7.19,5.41 L 7.19,5.73 L 7.25,5.73 L 7.51,5.60 L 7.48,5.53 Z" fill="#1b150d" stroke="none" /><path d="M 10.78,5.34 L 10.78,5.41 L 10.82,5.41 L 10.82,5.34 Z" fill="#1b150d" stroke="none" /><path d="M 16.16,28.98 L 16.10,28.98 L 15.24,29.42 L 15.24,31.59 L 17.05,30.70 L 17.05,29.61 L 16.19,30.03 L 16.16,30.00 Z" fill="#18130e" stroke="none" /><path d="M 19.72,26.05 L 18.86,26.50 L 18.86,28.69 L 18.93,28.69 L 19.72,28.28 L 19.75,28.31 L 19.75,29.33 L 19.79,29.33 L 21.57,28.44 L 21.57,27.36 L 20.71,27.77 L 20.68,27.74 L 20.68,26.72 L 20.61,26.72 L 19.79,27.13 L 19.75,27.10 L 19.75,26.05 Z" fill="#18130e" stroke="none" /><path d="M 8.94,25.38 L 8.87,25.38 L 8.05,25.80 L 8.05,27.96 L 8.11,27.96 L 9.86,27.07 L 9.86,26.02 L 8.97,26.47 L 8.94,26.43 Z" fill="#18130e" stroke="none" /><path d="M 17.94,24.75 L 17.05,25.19 L 17.05,26.27 L 17.11,26.27 L 17.94,25.86 Z" fill="#18130e" stroke="none" /><path d="M 16.16,24.52 L 15.24,24.97 L 15.24,26.08 L 15.30,26.08 L 16.16,25.64 Z" fill="#18130e" stroke="none" /><path d="M 25.19,24.46 L 25.13,24.46 L 24.30,24.87 L 24.30,27.04 L 24.37,27.04 L 25.19,26.62 Z" fill="#18130e" stroke="none" /><path d="M 27.90,24.21 L 27.83,24.21 L 27.01,24.62 L 27.01,25.70 L 27.90,25.26 Z" fill="#18130e" stroke="none" /><path d="M 11.67,22.87 L 11.67,24.08 L 11.71,24.11 L 11.71,25.10 L 12.53,24.68 L 12.56,24.72 L 12.56,25.70 L 12.60,25.70 L 12.60,23.54 L 12.56,23.51 L 12.56,23.38 L 11.77,23.00 L 11.71,22.93 L 11.71,22.87 Z" fill="#18130e" stroke="none" /><path d="M 8.94,20.93 L 8.05,21.38 L 8.05,22.49 L 8.94,22.04 Z" fill="#18130e" stroke="none" /><path d="M 21.57,20.71 L 20.68,21.15 L 20.68,22.27 L 21.57,21.82 Z" fill="#18130e" stroke="none" /><path d="M 4.45,20.42 L 3.56,20.87 L 3.56,23.03 L 4.45,22.58 Z" fill="#18130e" stroke="none" /><path d="M 8.05,19.72 L 7.19,20.14 L 7.19,21.22 L 8.05,20.80 Z" fill="#18130e" stroke="none" /><path d="M 14.38,17.11 L 13.52,17.53 L 13.52,18.64 L 14.38,18.23 Z" fill="#18130e" stroke="none" /><path d="M 20.68,16.73 L 20.61,16.73 L 19.75,17.18 L 19.75,18.29 L 20.68,17.84 Z" fill="#18130e" stroke="none" /><path d="M 25.19,16.70 L 25.13,16.70 L 24.30,17.11 L 24.30,18.23 L 23.38,18.70 L 23.38,19.79 L 23.44,19.79 L 25.19,18.89 Z" fill="#18130e" stroke="none" /><path d="M 22.49,14.73 L 22.43,14.73 L 21.57,15.17 L 21.57,16.25 L 21.63,16.25 L 22.49,15.81 Z" fill="#18130e" stroke="none" /><path d="M 11.71,13.49 L 11.64,13.49 L 10.82,13.90 L 10.82,15.01 L 11.71,14.57 Z" fill="#18130e" stroke="none" /><path d="M 5.38,13.33 L 5.31,13.33 L 4.45,13.77 L 4.39,13.77 L 3.56,13.36 L 3.56,15.30 L 3.63,15.30 L 5.38,14.41 Z" fill="#18130e" stroke="none" /><path d="M 18.86,13.20 L 17.94,13.65 L 17.94,15.87 L 18.86,15.43 Z" fill="#18130e" stroke="none" /><path d="M 17.05,13.04 L 15.24,13.93 L 15.24,15.01 L 17.05,14.12 Z" fill="#18130e" stroke="none" /><path d="M 27.01,12.47 L 26.94,12.47 L 26.12,12.88 L 26.12,14.00 L 26.94,13.58 L 27.01,13.61 L 27.01,14.63 L 26.94,14.70 L 26.12,15.11 L 26.12,17.34 L 27.01,16.89 L 27.01,15.81 L 27.07,15.75 L 27.90,15.33 L 27.90,13.11 L 27.04,13.52 L 27.01,13.49 Z" fill="#18130e" stroke="none" /><path d="M 1.75,11.80 L 1.69,11.80 L 0.86,12.21 L 0.86,14.44 L 0.92,14.44 L 1.75,14.03 Z" fill="#18130e" stroke="none" /><path d="M 8.05,10.37 L 8.05,11.23 L 8.08,11.26 L 8.08,11.39 L 9.07,10.91 L 9.07,10.85 L 8.11,10.37 Z" fill="#18130e" stroke="none" /><path d="M 2.64,10.24 L 2.64,10.69 L 2.67,10.69 L 2.67,10.24 Z" fill="#18130e" stroke="none" /><path d="M 10.97,9.99 L 10.85,9.99 L 10.75,10.05 L 10.75,11.71 L 11.67,11.26 L 11.67,10.34 Z" fill="#18130e" stroke="none" /><path d="M 6.27,9.48 L 6.27,9.51 L 6.33,9.51 L 6.33,9.48 Z" fill="#18130e" stroke="none" /><path d="M 19.82,8.84 L 18.89,9.29 L 18.89,9.45 L 19.82,9.00 Z" fill="#18130e" stroke="none" /><path d="M 8.94,8.21 L 8.87,8.21 L 8.17,8.56 L 8.17,8.62 L 8.87,8.97 L 8.94,8.97 Z" fill="#18130e" stroke="none" /><path d="M 7.19,8.08 L 7.00,8.05 L 6.30,8.40 L 6.27,8.43 L 6.27,8.52 L 7.09,8.11 L 7.19,8.11 Z" fill="#18130e" stroke="none" /><path d="M 28.79,7.19 L 28.72,7.19 L 27.90,7.60 L 27.90,8.68 L 28.79,8.24 Z" fill="#18130e" stroke="none" /><path d="M 0.86,6.74 L 0.00,7.16 L 0.00,8.24 L 0.86,7.83 Z" fill="#18130e" stroke="none" /><path d="M 20.71,4.01 L 20.71,4.93 L 21.57,4.52 L 21.57,4.42 Z" fill="#18130e" stroke="none" /><path d="M 17.05,27.42 L 16.99,27.42 L 15.24,28.31 L 15.24,29.42 L 16.13,28.98 L 16.16,29.01 L 16.16,30.06 L 17.05,29.61 Z" fill="#1f190f" stroke="none" /><path d="M 16.16,25.64 L 15.24,26.08 L 15.24,27.20 L 16.16,26.75 Z" fill="#1f190f" stroke="none" /><path d="M 8.94,24.24 L 8.05,24.68 L 8.05,25.80 L 8.11,25.80 L 8.91,25.38 L 8.94,25.42 L 8.94,26.47 L 9.00,26.47 L 9.86,26.02 L 9.86,25.35 L 9.07,24.97 L 9.00,24.91 L 9.00,24.24 Z" fill="#1f190f" stroke="none" /><path d="M 19.75,23.86 L 19.69,23.86 L 18.86,24.27 L 18.86,25.38 L 19.75,24.94 Z" fill="#1f190f" stroke="none" /><path d="M 28.79,23.76 L 28.72,23.76 L 27.90,24.17 L 27.90,25.26 L 28.79,24.81 Z" fill="#1f190f" stroke="none" /><path d="M 0.86,23.32 L 0.00,23.73 L 0.00,24.81 L 0.86,24.40 Z" fill="#1f190f" stroke="none" /><path d="M 8.94,22.04 L 8.05,22.49 L 8.05,23.60 L 8.94,23.16 Z" fill="#1f190f" stroke="none" /><path d="M 11.67,20.68 L 11.67,21.79 L 11.71,21.79 L 11.71,20.68 Z" fill="#1f190f" stroke="none" /><path d="M 19.75,20.52 L 18.86,20.96 L 18.86,22.04 L 18.93,22.04 L 19.75,21.63 Z" fill="#1f190f" stroke="none" /><path d="M 28.79,20.42 L 27.90,20.87 L 27.90,21.98 L 28.79,21.53 Z" fill="#1f190f" stroke="none" /><path d="M 0.86,20.01 L 0.80,20.01 L 0.00,20.42 L 0.00,21.53 L 0.86,21.12 Z" fill="#1f190f" stroke="none" /><path d="M 17.94,19.21 L 17.88,19.21 L 17.05,19.63 L 17.05,20.74 L 16.16,21.18 L 16.16,22.30 L 16.22,22.30 L 17.02,21.88 L 17.05,21.92 L 17.05,22.97 L 17.94,22.52 Z" fill="#1f190f" stroke="none" /><path d="M 25.16,18.89 L 24.30,19.34 L 24.30,20.42 L 24.24,20.49 L 23.38,20.90 L 23.38,23.13 L 24.27,22.68 L 24.30,22.71 L 24.30,23.76 L 24.37,23.76 L 25.16,23.35 L 25.19,23.38 L 25.19,24.43 L 25.26,24.43 L 26.12,23.98 L 26.12,21.76 L 24.33,22.65 L 24.30,22.62 L 24.30,20.49 L 24.37,20.42 L 25.16,20.04 L 25.19,20.07 L 25.19,21.12 L 26.12,20.68 L 26.12,19.56 L 26.05,19.56 L 25.22,19.98 L 25.19,19.94 L 25.19,18.89 Z" fill="#1f190f" stroke="none" /><path d="M 18.89,18.19 L 18.83,18.19 L 18.00,18.61 L 18.00,20.04 L 18.77,20.42 L 18.86,20.42 L 18.89,20.39 Z" fill="#1f190f" stroke="none" /><path d="M 8.94,17.59 L 8.94,18.70 L 9.00,18.70 L 9.00,17.59 Z" fill="#1f190f" stroke="none" /><path d="M 11.67,17.34 L 11.67,18.45 L 11.71,18.45 L 11.71,17.34 Z" fill="#1f190f" stroke="none" /><path d="M 21.57,16.29 L 21.50,16.29 L 20.68,16.70 L 20.68,17.81 L 19.75,18.29 L 19.75,19.40 L 21.57,18.51 Z" fill="#1f190f" stroke="none" /><path d="M 28.79,16.00 L 27.90,16.45 L 27.90,17.53 L 27.01,17.97 L 27.01,19.09 L 27.07,19.09 L 27.90,18.67 L 27.90,17.56 L 28.79,17.11 Z" fill="#1f190f" stroke="none" /><path d="M 18.89,15.97 L 18.86,15.97 L 18.86,16.51 L 18.00,16.95 L 18.00,17.50 L 18.07,17.50 L 18.89,17.08 Z" fill="#1f190f" stroke="none" /><path d="M 17.94,15.87 L 17.05,16.32 L 17.05,17.40 L 16.99,17.46 L 16.16,17.88 L 16.16,18.96 L 16.22,18.96 L 17.05,18.54 L 17.05,17.46 L 17.11,17.40 L 17.94,16.99 Z" fill="#1f190f" stroke="none" /><path d="M 0.80,15.59 L 0.00,16.00 L 0.00,17.08 L 0.06,17.08 L 0.83,16.70 L 0.86,16.73 L 0.86,17.78 L 0.89,17.78 L 1.75,17.34 L 1.75,16.22 L 0.89,16.64 L 0.86,16.60 L 0.86,15.59 Z" fill="#1f190f" stroke="none" /><path d="M 13.52,15.01 L 13.52,15.30 L 13.58,15.30 L 13.81,15.17 L 13.81,15.14 Z" fill="#1f190f" stroke="none" /><path d="M 4.45,14.89 L 4.39,14.89 L 3.56,15.30 L 3.56,16.41 L 3.63,16.41 L 4.42,16.00 L 4.45,16.03 L 4.45,18.16 L 4.39,18.23 L 3.56,18.64 L 3.56,19.75 L 4.45,19.31 L 4.45,18.23 L 4.52,18.16 L 5.38,17.75 L 5.38,15.52 L 4.49,15.97 L 4.45,15.94 Z" fill="#1f190f" stroke="none" /><path d="M 16.16,14.57 L 16.10,14.57 L 15.24,15.01 L 15.24,16.10 L 15.30,16.10 L 16.16,15.65 Z" fill="#1f190f" stroke="none" /><path d="M 9.00,14.25 L 8.94,14.28 L 8.94,15.40 L 9.00,15.36 Z" fill="#1f190f" stroke="none" /><path d="M 22.49,13.61 L 22.43,13.61 L 21.57,14.06 L 21.57,15.17 L 22.49,14.73 Z" fill="#1f190f" stroke="none" /><path d="M 14.38,13.52 L 13.52,13.93 L 13.52,13.96 L 14.38,14.38 Z" fill="#1f190f" stroke="none" /><path d="M 25.19,13.36 L 24.30,13.81 L 24.30,14.89 L 23.38,15.36 L 23.38,16.48 L 25.19,15.59 Z" fill="#1f190f" stroke="none" /><path d="M 9.86,12.72 L 9.86,13.20 L 9.89,13.20 L 9.89,12.72 Z" fill="#1f190f" stroke="none" /><path d="M 19.75,11.71 L 19.69,11.71 L 18.86,12.12 L 18.86,13.20 L 19.75,12.76 Z" fill="#1f190f" stroke="none" /><path d="M 24.30,11.58 L 23.38,12.02 L 23.38,13.14 L 23.44,13.14 L 24.30,12.69 Z" fill="#1f190f" stroke="none" /><path d="M 8.94,10.97 L 8.87,10.97 L 8.08,11.39 L 8.08,12.50 L 8.94,12.09 Z" fill="#1f190f" stroke="none" /><path d="M 0.86,10.91 L 0.86,11.13 L 1.08,11.04 L 1.05,10.97 L 0.92,10.91 Z" fill="#1f190f" stroke="none" /><path d="M 11.67,10.69 L 11.67,11.26 L 11.71,11.26 L 11.71,10.69 Z" fill="#1f190f" stroke="none" /><path d="M 8.05,10.37 L 7.98,10.37 L 7.22,10.75 L 7.22,10.82 L 7.67,11.04 L 7.73,11.04 L 8.05,10.88 Z" fill="#1f190f" stroke="none" /><path d="M 22.49,10.34 L 22.43,10.34 L 21.57,10.78 L 21.57,11.83 L 21.63,11.83 L 22.49,11.39 Z" fill="#1f190f" stroke="none" /><path d="M 26.94,10.24 L 26.12,10.66 L 26.12,11.77 L 26.18,11.77 L 26.97,11.36 L 27.01,11.39 L 27.01,12.44 L 27.07,12.44 L 27.90,12.02 L 27.90,10.91 L 27.83,10.91 L 27.04,11.32 L 27.01,11.29 L 27.01,10.24 Z" fill="#1f190f" stroke="none" /><path d="M 10.82,9.92 L 10.82,10.02 L 10.91,9.99 L 10.91,9.96 Z" fill="#1f190f" stroke="none" /><path d="M 3.56,9.77 L 3.56,10.05 L 4.39,10.47 L 4.45,10.47 L 4.45,9.42 L 4.42,9.38 L 4.33,9.38 Z" fill="#1f190f" stroke="none" /><path d="M 25.19,8.97 L 24.30,9.42 L 24.30,10.47 L 24.37,10.47 L 25.19,10.05 Z" fill="#1f190f" stroke="none" /><path d="M 17.08,8.56 L 17.02,8.56 L 16.19,8.97 L 16.19,9.16 L 16.57,9.35 L 16.64,9.35 L 17.08,9.13 Z" fill="#1f190f" stroke="none" /><path d="M 2.64,8.52 L 2.64,9.13 L 2.67,9.13 L 2.67,8.52 Z" fill="#1f190f" stroke="none" /><path d="M 11.67,8.02 L 11.67,8.56 L 12.60,9.00 L 12.56,8.11 L 12.50,8.11 L 11.74,8.49 L 11.71,8.46 L 11.71,8.02 Z" fill="#1f190f" stroke="none" /><path d="M 6.27,7.67 L 6.27,8.43 L 7.03,8.05 L 7.03,8.02 L 6.33,7.67 Z" fill="#1f190f" stroke="none" /><path d="M 27.90,7.63 L 27.83,7.63 L 27.01,8.05 L 27.01,9.13 L 27.90,8.68 Z" fill="#1f190f" stroke="none" /><path d="M 20.71,7.63 L 19.82,8.08 L 19.82,8.84 L 20.71,8.40 Z" fill="#1f190f" stroke="none" /><path d="M 18.89,7.63 L 18.89,8.21 L 19.44,7.95 L 19.44,7.89 Z" fill="#1f190f" stroke="none" /><path d="M 5.38,7.19 L 5.28,7.19 L 4.45,7.60 L 4.45,7.67 L 4.96,7.92 L 5.09,7.92 L 5.34,7.79 L 5.38,7.76 Z" fill="#1f190f" stroke="none" /><path d="M 0.86,6.78 L 0.86,7.63 L 0.99,7.70 L 1.11,7.70 L 1.75,7.38 L 1.75,7.19 L 0.92,6.78 Z" fill="#1f190f" stroke="none" /><path d="M 15.27,6.74 L 14.41,7.16 L 14.41,7.22 L 15.27,7.63 Z" fill="#1f190f" stroke="none" /><path d="M 3.56,5.41 L 3.56,6.30 L 3.66,6.36 L 3.79,6.36 L 4.45,6.01 L 4.45,5.82 L 3.63,5.41 Z" fill="#1f190f" stroke="none" /><path d="M 18.00,5.38 L 17.11,5.82 L 17.11,5.85 L 17.91,6.23 L 17.94,6.30 L 17.11,6.71 L 17.08,6.74 L 17.08,6.87 L 17.15,6.87 L 18.00,6.43 Z" fill="#1f190f" stroke="none" /><path d="M 10.82,5.34 L 10.82,5.41 L 10.85,5.44 L 11.55,5.79 L 11.67,5.73 L 11.71,5.79 L 11.77,5.79 L 12.60,5.38 L 12.60,5.28 L 12.53,5.28 L 11.74,5.69 L 11.71,5.66 L 11.71,4.90 L 11.67,4.90 Z" fill="#1f190f" stroke="none" /><path d="M 20.71,4.04 L 20.64,4.04 L 19.82,4.45 L 19.82,5.50 L 19.94,5.47 L 19.94,5.44 L 19.85,5.38 L 19.88,5.34 L 20.71,4.93 Z" fill="#1f190f" stroke="none" /><path d="M 6.27,4.04 L 6.27,4.90 L 7.13,4.49 L 7.13,4.45 Z" fill="#1f190f" stroke="none" /><path d="M 9.00,2.70 L 9.00,3.53 L 9.83,3.12 L 9.83,3.09 L 9.07,2.70 Z" fill="#1f190f" stroke="none" /><path d="M 17.05,21.88 L 16.99,21.88 L 16.16,22.30 L 16.16,26.72 L 15.24,27.20 L 15.24,28.31 L 17.05,27.42 Z" fill="#241c11" stroke="none" /><path d="M 25.19,20.01 L 24.30,20.45 L 24.30,22.65 L 24.37,22.65 L 26.12,21.76 L 26.12,20.68 L 26.05,20.68 L 25.22,21.09 L 25.19,21.06 Z" fill="#241c11" stroke="none" /><path d="M 20.68,18.96 L 20.61,18.96 L 19.75,19.40 L 19.75,21.60 L 18.86,22.04 L 18.86,24.27 L 18.93,24.27 L 19.72,23.86 L 19.75,23.89 L 19.75,24.94 L 20.68,24.49 Z" fill="#241c11" stroke="none" /><path d="M 9.00,18.70 L 8.94,18.70 L 8.94,23.13 L 8.87,23.19 L 8.05,23.60 L 8.05,24.68 L 8.11,24.68 L 9.00,24.24 Z" fill="#241c11" stroke="none" /><path d="M 11.67,18.45 L 11.67,20.68 L 11.71,20.68 L 11.71,18.45 Z" fill="#241c11" stroke="none" /><path d="M 28.79,17.11 L 28.72,17.11 L 27.90,17.53 L 27.90,18.64 L 27.01,19.09 L 27.01,21.31 L 28.79,20.42 Z" fill="#241c11" stroke="none" /><path d="M 18.89,17.08 L 18.83,17.08 L 18.00,17.50 L 18.00,18.61 L 18.07,18.61 L 18.89,18.19 Z" fill="#241c11" stroke="none" /><path d="M 0.86,16.67 L 0.00,17.08 L 0.00,20.42 L 0.86,20.01 L 0.86,18.70 L 0.89,18.67 L 1.69,19.09 L 1.75,19.09 L 1.75,17.34 L 0.89,17.75 L 0.86,17.72 Z" fill="#241c11" stroke="none" /><path d="M 4.45,16.00 L 4.39,16.00 L 3.56,16.41 L 3.56,18.64 L 4.45,18.19 Z" fill="#241c11" stroke="none" /><path d="M 17.05,14.12 L 16.99,14.12 L 16.16,14.54 L 16.16,15.62 L 16.10,15.68 L 15.24,16.10 L 15.24,17.21 L 15.30,17.21 L 16.13,16.80 L 16.16,16.83 L 16.16,17.88 L 17.05,17.43 L 17.05,16.35 L 17.11,16.29 L 17.94,15.87 L 17.94,14.76 L 17.08,15.17 L 17.05,15.14 Z" fill="#241c11" stroke="none" /><path d="M 11.71,12.18 L 11.71,13.04 L 12.56,12.63 L 12.56,12.60 Z" fill="#241c11" stroke="none" /><path d="M 22.49,11.39 L 21.57,11.83 L 21.57,12.91 L 21.50,12.98 L 20.68,13.39 L 20.68,16.70 L 20.74,16.70 L 21.57,16.29 L 21.57,14.09 L 21.63,14.03 L 22.49,13.61 Z" fill="#241c11" stroke="none" /><path d="M 10.75,11.17 L 10.21,11.42 L 10.21,11.45 L 10.75,11.71 Z" fill="#241c11" stroke="none" /><path d="M 9.13,10.88 L 9.07,10.88 L 8.94,10.94 L 8.94,12.06 L 8.08,12.50 L 8.08,15.08 L 8.91,15.49 L 8.94,15.49 L 8.94,14.31 L 9.00,14.25 L 9.00,12.82 L 9.07,12.79 L 9.80,13.17 L 9.86,13.17 L 9.86,12.76 L 9.89,12.72 L 9.89,12.12 L 9.07,11.71 L 9.10,11.64 L 9.83,11.29 L 9.83,11.23 Z" fill="#241c11" stroke="none" /><path d="M 13.49,10.37 L 13.49,11.23 L 13.55,11.23 L 14.38,10.82 L 14.38,10.78 L 13.55,10.37 Z" fill="#241c11" stroke="none" /><path d="M 25.19,10.05 L 25.13,10.05 L 24.30,10.47 L 24.30,12.66 L 24.24,12.72 L 23.38,13.14 L 23.38,15.36 L 24.30,14.92 L 24.30,13.84 L 24.37,13.77 L 25.19,13.36 Z" fill="#241c11" stroke="none" /><path d="M 12.60,9.89 L 12.56,9.89 L 12.56,10.24 L 12.53,10.27 L 11.71,10.69 L 11.71,11.29 L 12.53,11.71 L 12.60,11.71 Z" fill="#241c11" stroke="none" /><path d="M 17.08,9.13 L 17.02,9.13 L 16.64,9.32 L 16.64,9.38 L 16.89,9.51 L 16.99,9.51 L 17.08,9.45 Z" fill="#241c11" stroke="none" /><path d="M 3.56,8.97 L 3.56,9.77 L 3.63,9.77 L 4.36,9.38 L 4.36,9.35 Z" fill="#241c11" stroke="none" /><path d="M 26.94,8.08 L 26.12,8.49 L 26.12,10.66 L 26.18,10.66 L 26.97,10.24 L 27.01,10.27 L 27.01,11.32 L 27.07,11.32 L 27.90,10.91 L 27.90,8.68 L 27.04,9.10 L 27.01,9.07 L 27.01,8.08 Z" fill="#241c11" stroke="none" /><path d="M 5.38,7.76 L 5.03,7.92 L 5.03,7.95 L 5.38,8.11 Z" fill="#241c11" stroke="none" /><path d="M 8.08,7.63 L 8.02,7.63 L 7.19,8.05 L 7.19,8.11 L 8.08,8.56 Z" fill="#241c11" stroke="none" /><path d="M 1.05,7.73 L 1.69,8.05 L 1.81,8.05 L 2.58,7.67 L 2.58,7.60 L 1.81,7.22 L 1.75,7.22 L 1.75,7.35 L 1.72,7.38 L 1.05,7.70 Z" fill="#241c11" stroke="none" /><path d="M 18.00,6.43 L 17.08,6.87 L 17.08,7.63 L 17.94,8.08 L 18.00,8.08 Z" fill="#241c11" stroke="none" /><path d="M 4.45,6.01 L 3.72,6.36 L 3.72,6.39 L 4.36,6.71 L 4.45,6.71 Z" fill="#241c11" stroke="none" /><path d="M 6.27,5.79 L 6.27,5.85 L 7.98,6.71 L 8.05,6.71 L 8.05,5.82 L 7.54,5.57 L 7.22,5.73 L 7.19,5.69 L 7.19,5.41 L 7.16,5.38 L 7.09,5.38 Z" fill="#241c11" stroke="none" /><path d="M 19.82,4.49 L 19.75,4.49 L 18.93,4.90 L 18.96,4.96 L 19.79,5.38 L 18.89,5.82 L 18.89,6.74 L 20.71,5.85 L 20.68,5.79 L 19.98,5.44 L 19.85,5.50 L 19.82,5.47 Z" fill="#241c11" stroke="none" /><path d="M 12.60,4.49 L 12.50,4.49 L 11.71,4.90 L 11.71,5.69 L 11.77,5.69 L 12.60,5.28 Z" fill="#241c11" stroke="none" /><path d="M 13.49,3.09 L 13.49,3.12 L 13.52,3.12 L 13.52,3.09 Z" fill="#241c11" stroke="none" /><path d="M 12.60,30.06 L 12.60,31.14 L 13.52,31.59 L 13.52,30.50 Z" fill="#261e16" stroke="none" /><path d="M 9.89,27.61 L 9.89,29.77 L 10.75,30.22 L 10.82,30.22 L 10.82,28.06 Z" fill="#261e16" stroke="none" /><path d="M 20.68,26.91 L 20.68,27.80 L 20.71,27.80 L 20.71,26.91 Z" fill="#261e16" stroke="none" /><path d="M 17.94,24.43 L 17.94,25.83 L 17.24,26.18 L 17.21,26.24 L 18.00,26.62 L 18.00,24.46 Z" fill="#261e16" stroke="none" /><path d="M 4.45,23.79 L 4.45,25.99 L 5.38,26.47 L 5.38,27.51 L 5.41,27.55 L 7.13,28.41 L 7.19,28.41 L 7.19,27.36 L 6.27,26.88 L 6.27,25.80 L 5.44,25.38 L 5.38,25.32 L 5.38,24.24 L 4.52,23.79 Z" fill="#261e16" stroke="none" /><path d="M 0.86,23.09 L 0.86,25.26 L 2.64,26.15 L 2.64,25.07 L 1.75,24.62 L 1.75,23.54 Z" fill="#261e16" stroke="none" /><path d="M 26.12,22.43 L 26.12,23.51 L 27.64,24.27 L 27.77,24.27 L 27.90,24.21 L 27.90,22.20 L 27.71,22.11 L 27.61,22.11 L 27.04,22.39 L 27.01,22.43 L 27.01,22.81 L 26.97,22.84 Z" fill="#261e16" stroke="none" /><path d="M 2.64,20.68 L 2.64,21.76 L 3.50,22.20 L 3.56,22.20 L 3.56,21.12 L 2.70,20.68 Z" fill="#261e16" stroke="none" /><path d="M 6.27,20.26 L 6.27,21.38 L 7.19,21.82 L 7.19,20.71 L 6.33,20.26 Z" fill="#261e16" stroke="none" /><path d="M 9.89,19.85 L 9.89,20.90 L 9.86,20.93 L 9.00,20.52 L 9.00,21.63 L 10.82,22.52 L 10.82,20.29 Z" fill="#261e16" stroke="none" /><path d="M 22.49,19.53 L 22.49,20.55 L 22.46,20.58 L 21.63,20.17 L 21.57,20.17 L 21.57,21.22 L 23.32,22.11 L 23.38,22.11 L 23.38,19.94 L 22.55,19.53 Z" fill="#261e16" stroke="none" /><path d="M 8.11,19.50 L 8.05,19.50 L 8.05,21.38 L 8.94,20.93 L 8.94,19.91 Z" fill="#261e16" stroke="none" /><path d="M 0.86,18.67 L 0.86,19.79 L 1.69,20.20 L 1.75,20.20 L 1.75,19.09 L 0.92,18.67 Z" fill="#261e16" stroke="none" /><path d="M 25.19,17.56 L 25.19,18.64 L 26.08,19.09 L 26.08,17.97 L 25.26,17.56 Z" fill="#261e16" stroke="none" /><path d="M 11.71,17.43 L 11.71,18.54 L 12.60,18.99 L 12.60,20.04 L 12.56,20.07 L 11.77,19.66 L 11.71,19.66 L 11.71,21.88 L 12.53,22.30 L 12.60,22.30 L 12.60,21.25 L 12.63,21.22 L 13.52,21.66 L 13.52,19.44 L 12.60,18.96 L 12.60,17.88 Z" fill="#261e16" stroke="none" /><path d="M 15.24,17.21 L 15.24,18.07 L 16.16,18.51 L 16.16,17.43 L 15.52,17.11 L 15.43,17.11 Z" fill="#261e16" stroke="none" /><path d="M 17.97,16.95 L 17.94,16.99 L 17.94,18.89 L 18.00,18.93 L 18.00,16.95 Z" fill="#261e16" stroke="none" /><path d="M 5.38,15.36 L 5.38,16.48 L 6.27,16.92 L 6.27,15.81 Z" fill="#261e16" stroke="none" /><path d="M 7.19,15.17 L 7.19,16.29 L 8.02,16.70 L 8.08,16.70 L 8.08,16.22 L 8.11,16.19 L 8.94,16.60 L 8.94,15.49 L 8.91,15.46 L 8.14,15.08 L 8.08,15.08 L 8.08,15.55 L 8.02,15.59 Z" fill="#261e16" stroke="none" /><path d="M 19.31,14.06 L 18.89,14.28 L 18.89,14.95 L 19.75,15.36 L 19.82,15.43 L 19.82,16.45 L 19.75,16.48 L 18.96,16.06 L 18.89,16.06 L 18.89,18.26 L 19.69,18.67 L 19.75,18.67 L 19.75,17.21 L 19.82,17.15 L 20.68,16.73 L 20.68,15.81 L 19.88,15.43 L 19.82,15.36 L 19.82,14.28 L 19.40,14.06 Z" fill="#261e16" stroke="none" /><path d="M 13.52,13.96 L 13.52,15.01 L 14.31,15.43 L 14.38,15.43 L 14.38,14.38 L 13.58,13.96 Z" fill="#261e16" stroke="none" /><path d="M 18.00,10.82 L 18.00,11.71 L 18.80,12.12 L 18.89,12.12 L 18.89,11.26 Z" fill="#261e16" stroke="none" /><path d="M 3.56,10.05 L 3.56,12.25 L 4.45,12.69 L 4.45,10.47 L 3.63,10.05 Z" fill="#261e16" stroke="none" /><path d="M 22.49,9.54 L 22.49,10.66 L 23.32,11.07 L 23.38,11.07 L 23.38,9.96 L 22.55,9.54 Z" fill="#261e16" stroke="none" /><path d="M 18.00,9.51 L 18.00,9.89 L 18.35,9.73 L 18.35,9.67 Z" fill="#261e16" stroke="none" /><path d="M 16.16,9.00 L 16.16,9.70 L 16.19,9.70 L 16.19,9.00 Z" fill="#261e16" stroke="none" /><path d="M 24.30,7.63 L 24.30,8.24 L 25.13,8.65 L 25.19,8.65 L 25.19,8.05 L 24.37,7.63 Z" fill="#261e16" stroke="none" /><path d="M 20.71,7.63 L 20.71,8.65 L 21.47,9.03 L 21.57,9.03 L 21.57,8.97 L 21.53,8.94 L 20.77,8.56 L 20.80,8.49 L 21.53,8.14 L 21.57,8.11 L 21.57,8.05 Z" fill="#261e16" stroke="none" /><path d="M 0.86,7.63 L 0.86,8.68 L 2.64,9.57 L 2.64,8.49 L 0.92,7.63 Z" fill="#261e16" stroke="none" /><path d="M 11.55,6.81 L 11.48,6.81 L 10.75,7.19 L 10.75,8.65 L 11.04,8.81 L 11.17,8.81 L 11.67,8.56 L 11.67,6.87 Z" fill="#261e16" stroke="none" /><path d="M 27.90,7.60 L 27.90,6.78 L 27.83,6.78 L 27.07,7.16 L 27.10,7.22 Z" fill="#261e16" stroke="none" /><path d="M 17.02,6.78 L 17.02,6.81 L 17.05,6.81 L 17.05,6.78 Z" fill="#261e16" stroke="none" /><path d="M 15.27,6.74 L 15.27,7.63 L 16.13,8.08 L 16.19,8.08 L 16.19,7.48 L 16.16,7.44 L 16.16,7.16 L 15.33,6.74 Z" fill="#261e16" stroke="none" /><path d="M 24.30,6.71 L 24.30,6.74 L 24.33,6.74 L 24.33,6.71 Z" fill="#261e16" stroke="none" /><path d="M 8.81,5.44 L 8.81,5.47 L 9.64,5.88 L 9.77,5.88 L 9.83,5.85 L 9.80,5.79 L 8.97,5.38 L 8.91,5.38 Z" fill="#261e16" stroke="none" /><path d="M 15.11,1.37 L 15.11,1.43 L 15.24,1.46 L 15.24,1.34 Z" fill="#261e16" stroke="none" /><path d="M 14.38,0.00 L 14.38,0.86 L 15.24,1.27 L 15.24,0.41 L 14.44,0.00 Z" fill="#261e16" stroke="none" /><path d="M 12.60,26.75 L 12.60,27.86 L 13.46,28.28 L 13.52,28.34 L 13.52,30.54 L 14.38,30.95 L 14.38,28.72 L 13.58,28.34 L 13.52,28.28 L 13.52,27.20 L 12.66,26.75 Z" fill="#2c2216" stroke="none" /><path d="M 9.89,26.50 L 9.89,27.61 L 10.82,28.09 L 10.82,30.25 L 11.64,30.66 L 11.71,30.66 L 11.71,28.50 L 10.82,28.06 L 10.82,26.94 Z" fill="#2c2216" stroke="none" /><path d="M 4.45,25.99 L 4.45,27.07 L 5.38,27.51 L 5.38,26.43 Z" fill="#2c2216" stroke="none" /><path d="M 20.68,23.60 L 20.68,24.68 L 20.71,24.72 L 20.71,26.94 L 21.57,27.36 L 21.57,25.13 L 20.71,24.68 L 20.71,23.60 Z" fill="#2c2216" stroke="none" /><path d="M 17.94,23.32 L 17.94,24.43 L 18.00,24.49 L 18.00,26.62 L 18.80,27.04 L 18.86,27.04 L 18.86,24.87 L 18.07,24.49 L 18.00,24.43 L 18.00,23.35 Z" fill="#2c2216" stroke="none" /><path d="M 4.45,22.68 L 4.45,23.79 L 5.31,24.21 L 5.38,24.27 L 5.38,25.35 L 6.27,25.80 L 6.27,23.57 L 4.52,22.68 Z" fill="#2c2216" stroke="none" /><path d="M 9.00,21.63 L 9.00,22.74 L 9.83,23.16 L 9.89,23.16 L 9.89,22.04 L 9.07,21.63 Z" fill="#2c2216" stroke="none" /><path d="M 12.60,21.22 L 12.60,22.27 L 12.56,22.30 L 11.77,21.88 L 11.71,21.88 L 11.71,22.97 L 13.46,23.86 L 13.52,23.86 L 13.52,21.66 L 12.66,21.22 Z" fill="#2c2216" stroke="none" /><path d="M 2.64,18.45 L 2.64,20.68 L 3.56,21.12 L 3.56,18.89 L 2.70,18.45 Z" fill="#2c2216" stroke="none" /><path d="M 9.00,18.29 L 9.00,20.52 L 9.89,20.96 L 9.89,19.91 L 9.92,19.88 L 10.75,20.29 L 10.82,20.29 L 10.82,19.18 Z" fill="#2c2216" stroke="none" /><path d="M 18.89,18.26 L 18.89,19.37 L 19.69,19.79 L 19.75,19.79 L 19.75,18.67 Z" fill="#2c2216" stroke="none" /><path d="M 6.27,18.04 L 6.27,20.26 L 7.19,20.71 L 7.19,18.48 Z" fill="#2c2216" stroke="none" /><path d="M 22.49,17.30 L 22.49,19.53 L 23.32,19.94 L 23.38,19.94 L 23.38,17.72 L 22.55,17.30 Z" fill="#2c2216" stroke="none" /><path d="M 11.71,16.32 L 11.71,17.43 L 12.53,17.84 L 12.60,17.91 L 12.60,18.93 L 12.56,18.96 L 11.77,18.54 L 11.71,18.54 L 11.71,19.66 L 12.53,20.07 L 12.60,20.07 L 12.60,19.02 L 12.63,18.99 L 13.52,19.44 L 13.52,18.32 L 12.66,17.91 L 12.60,17.84 L 12.60,16.76 Z" fill="#2c2216" stroke="none" /><path d="M 25.19,15.33 L 25.19,17.56 L 26.02,17.97 L 26.08,17.97 L 26.08,15.75 L 25.26,15.33 Z" fill="#2c2216" stroke="none" /><path d="M 17.11,15.14 L 17.05,15.14 L 17.05,15.20 L 17.08,15.20 Z" fill="#2c2216" stroke="none" /><path d="M 14.38,14.35 L 14.38,16.57 L 15.24,16.99 L 15.24,14.76 Z" fill="#2c2216" stroke="none" /><path d="M 19.75,13.17 L 19.75,13.84 L 19.37,14.03 L 19.37,14.06 L 19.75,14.25 L 19.82,14.31 L 19.82,15.33 L 19.75,15.36 L 18.96,14.95 L 18.89,14.95 L 18.89,16.06 L 19.82,16.51 L 19.82,15.46 L 19.85,15.43 L 20.61,15.81 L 20.68,15.81 L 20.68,14.70 L 19.88,14.31 L 19.82,14.25 L 19.82,13.17 Z" fill="#2c2216" stroke="none" /><path d="M 9.00,12.76 L 9.00,13.87 L 9.83,14.28 L 9.89,14.28 L 9.89,13.20 Z" fill="#2c2216" stroke="none" /><path d="M 3.59,12.25 L 3.56,12.25 L 3.56,13.30 L 3.53,13.33 L 2.70,12.91 L 2.64,12.91 L 2.64,13.93 L 2.61,13.96 L 1.75,13.55 L 1.75,15.78 L 2.61,16.22 L 2.64,16.22 L 2.64,15.17 L 2.67,15.14 L 3.50,15.55 L 3.56,15.55 L 3.56,13.42 L 3.63,13.39 L 4.45,13.81 L 4.45,12.69 Z" fill="#2c2216" stroke="none" /><path d="M 4.45,10.50 L 4.45,11.58 L 5.31,12.02 L 5.38,12.02 L 5.38,10.94 L 4.52,10.50 Z" fill="#2c2216" stroke="none" /><path d="M 6.27,10.34 L 6.27,12.50 L 7.19,12.95 L 7.19,10.78 L 6.33,10.34 Z" fill="#2c2216" stroke="none" /><path d="M 10.75,9.92 L 10.69,9.92 L 9.86,10.34 L 9.86,10.37 L 10.66,10.75 L 10.72,10.82 L 9.89,11.23 L 9.89,11.29 L 10.15,11.42 L 10.27,11.42 L 10.75,11.17 Z" fill="#2c2216" stroke="none" /><path d="M 25.19,9.80 L 25.19,11.99 L 26.02,12.41 L 26.08,12.47 L 26.08,13.55 L 26.12,13.55 L 26.12,11.32 L 26.08,11.29 L 26.08,10.21 L 25.26,9.80 Z" fill="#2c2216" stroke="none" /><path d="M 15.30,9.42 L 15.30,9.48 L 16.13,9.89 L 16.22,9.89 L 16.92,9.54 L 16.89,9.48 L 16.25,9.16 L 16.19,9.16 L 16.16,9.13 L 16.16,9.00 Z" fill="#2c2216" stroke="none" /><path d="M 18.61,8.68 L 18.00,8.97 L 18.00,9.51 L 18.35,9.70 L 18.42,9.70 L 18.89,9.45 L 18.89,8.84 Z" fill="#2c2216" stroke="none" /><path d="M 10.75,8.65 L 10.75,9.00 L 11.10,8.84 L 11.10,8.81 Z" fill="#2c2216" stroke="none" /><path d="M 24.30,8.24 L 24.30,9.35 L 24.40,9.38 L 25.19,8.97 L 25.19,8.65 L 24.37,8.24 Z" fill="#2c2216" stroke="none" /><path d="M 11.67,6.90 L 11.67,8.02 L 12.18,8.27 L 12.25,8.27 L 12.56,8.11 L 12.56,8.08 L 11.77,7.70 L 11.71,7.63 L 12.41,7.28 L 12.41,7.25 L 11.74,6.90 Z" fill="#2c2216" stroke="none" /><path d="M 17.05,6.81 L 16.99,6.78 L 16.16,7.19 L 16.16,7.48 L 16.19,7.48 L 16.19,7.35 L 16.22,7.32 L 17.02,6.93 L 17.05,6.90 Z" fill="#2c2216" stroke="none" /><path d="M 23.38,5.57 L 23.38,6.65 L 23.92,6.93 L 24.27,6.78 L 24.30,6.74 L 24.27,6.68 L 23.54,6.33 L 23.48,6.27 L 24.11,5.95 L 24.11,5.92 L 23.44,5.57 Z" fill="#2c2216" stroke="none" /><path d="M 15.24,4.90 L 15.24,5.82 L 15.33,5.82 L 16.16,5.41 L 16.16,5.34 Z" fill="#2c2216" stroke="none" /><path d="M 21.57,4.45 L 21.57,4.49 L 21.63,4.49 L 21.63,4.45 Z" fill="#2c2216" stroke="none" /><path d="M 16.16,4.17 L 16.16,4.45 L 16.19,4.49 L 17.05,4.90 L 17.05,4.58 L 16.22,4.17 Z" fill="#2c2216" stroke="none" /><path d="M 13.52,30.54 L 13.52,31.59 L 14.31,32.00 L 14.38,32.00 L 14.38,30.95 L 13.58,30.54 Z" fill="#322819" stroke="none" /><path d="M 13.52,27.20 L 13.52,28.31 L 14.31,28.72 L 14.38,28.72 L 14.38,27.61 Z" fill="#322819" stroke="none" /><path d="M 20.71,26.94 L 20.71,27.77 L 20.77,27.77 L 21.53,27.39 L 21.53,27.32 L 20.77,26.94 Z" fill="#322819" stroke="none" /><path d="M 20.71,23.60 L 20.71,24.72 L 21.57,25.13 L 21.57,24.02 Z" fill="#322819" stroke="none" /><path d="M 13.55,22.78 L 13.52,22.78 L 13.52,23.83 L 13.49,23.86 L 12.60,23.41 L 12.60,24.52 L 13.46,24.97 L 13.52,24.97 L 13.52,23.92 L 13.55,23.89 L 14.38,24.30 L 14.38,23.19 Z" fill="#322819" stroke="none" /><path d="M 17.94,22.23 L 17.94,23.32 L 18.00,23.38 L 18.00,24.46 L 18.80,24.87 L 18.86,24.87 L 18.86,22.68 L 18.00,22.23 Z" fill="#322819" stroke="none" /><path d="M 9.89,22.08 L 9.89,23.13 L 9.86,23.16 L 9.07,22.74 L 9.00,22.74 L 9.00,24.94 L 9.83,25.35 L 9.89,25.42 L 9.89,26.50 L 10.82,26.97 L 10.82,28.09 L 11.64,28.50 L 11.71,28.50 L 11.71,26.27 L 9.96,25.42 L 9.89,25.35 L 9.89,23.22 L 9.92,23.19 L 10.75,23.60 L 10.82,23.67 L 10.82,24.75 L 10.85,24.78 L 11.71,25.19 L 11.71,24.08 L 10.88,23.67 L 10.82,23.60 L 10.82,22.52 L 9.96,22.08 Z" fill="#322819" stroke="none" /><path d="M 27.90,21.98 L 27.67,22.08 L 27.67,22.11 L 27.83,22.20 L 27.90,22.20 Z" fill="#322819" stroke="none" /><path d="M 0.86,21.98 L 0.86,23.09 L 1.69,23.51 L 1.75,23.57 L 1.75,24.65 L 2.58,25.07 L 2.64,25.07 L 2.64,22.87 Z" fill="#322819" stroke="none" /><path d="M 4.45,21.57 L 4.45,22.68 L 5.38,23.13 L 5.38,22.01 Z" fill="#322819" stroke="none" /><path d="M 26.12,20.23 L 26.12,22.43 L 27.01,22.87 L 27.01,20.64 L 26.18,20.23 Z" fill="#322819" stroke="none" /><path d="M 0.86,19.79 L 0.86,20.87 L 1.75,21.31 L 1.75,20.20 L 0.92,19.79 Z" fill="#322819" stroke="none" /><path d="M 17.94,18.89 L 17.94,20.01 L 18.00,20.04 L 18.00,21.15 L 18.86,21.57 L 18.86,20.99 L 18.89,20.96 L 18.89,20.45 L 18.00,20.01 L 18.00,18.93 Z" fill="#322819" stroke="none" /><path d="M 8.05,18.39 L 8.05,19.50 L 8.87,19.91 L 8.94,19.91 L 8.94,18.80 L 8.11,18.39 Z" fill="#322819" stroke="none" /><path d="M 4.45,18.26 L 4.45,19.34 L 5.31,19.79 L 5.38,19.79 L 5.38,18.70 L 4.52,18.26 Z" fill="#322819" stroke="none" /><path d="M 14.38,16.57 L 14.38,17.62 L 15.17,18.04 L 15.24,18.04 L 15.24,16.99 L 14.44,16.57 Z" fill="#322819" stroke="none" /><path d="M 9.89,16.54 L 9.89,17.56 L 9.86,17.59 L 9.00,17.18 L 9.00,18.29 L 10.75,19.18 L 10.82,19.18 L 10.82,16.99 L 9.96,16.54 Z" fill="#322819" stroke="none" /><path d="M 8.08,16.19 L 8.08,16.67 L 8.05,16.70 L 8.05,17.27 L 8.94,17.72 L 8.94,16.60 L 8.14,16.19 Z" fill="#322819" stroke="none" /><path d="M 6.27,15.81 L 6.27,16.86 L 6.23,16.89 L 5.38,16.48 L 5.38,17.59 L 7.13,18.48 L 7.19,18.48 L 7.19,16.25 Z" fill="#322819" stroke="none" /><path d="M 2.64,15.11 L 2.64,16.16 L 2.61,16.19 L 1.75,15.78 L 1.75,16.89 L 2.58,17.30 L 2.64,17.37 L 2.64,18.45 L 3.56,18.89 L 3.56,15.55 Z" fill="#322819" stroke="none" /><path d="M 11.67,14.66 L 11.67,15.78 L 11.71,15.81 L 11.71,16.32 L 12.53,16.73 L 12.60,16.80 L 12.60,17.88 L 13.46,18.32 L 13.52,18.32 L 13.52,17.21 L 12.66,16.80 L 12.60,16.73 L 12.60,15.65 L 11.77,15.24 L 11.71,15.17 L 11.71,14.66 Z" fill="#322819" stroke="none" /><path d="M 18.86,14.28 L 18.86,15.49 L 18.89,15.49 L 18.89,14.28 Z" fill="#322819" stroke="none" /><path d="M 7.19,14.06 L 7.19,15.17 L 8.08,15.62 L 8.08,14.50 Z" fill="#322819" stroke="none" /><path d="M 9.00,13.87 L 9.00,14.98 L 9.83,15.40 L 9.89,15.40 L 9.89,14.28 L 9.07,13.87 Z" fill="#322819" stroke="none" /><path d="M 14.38,13.52 L 14.38,14.35 L 15.17,14.76 L 15.24,14.76 L 15.24,13.93 Z" fill="#322819" stroke="none" /><path d="M 12.60,13.49 L 12.60,14.57 L 13.52,15.01 L 13.52,13.93 Z" fill="#322819" stroke="none" /><path d="M 17.24,12.98 L 17.15,12.98 L 17.08,13.01 L 17.08,14.00 L 17.05,14.03 L 17.05,15.14 L 17.11,15.17 L 17.94,14.76 L 17.94,13.68 L 18.00,13.65 L 18.00,13.36 Z" fill="#322819" stroke="none" /><path d="M 9.89,12.15 L 9.89,13.20 L 10.75,13.65 L 10.82,13.65 L 10.82,12.60 L 9.96,12.15 Z" fill="#322819" stroke="none" /><path d="M 19.75,12.06 L 19.75,13.17 L 19.82,13.20 L 19.82,14.28 L 20.61,14.70 L 20.68,14.70 L 20.68,13.61 L 19.82,13.17 L 19.82,12.06 Z" fill="#322819" stroke="none" /><path d="M 25.19,11.99 L 25.19,15.33 L 26.02,15.75 L 26.08,15.75 L 26.08,14.70 L 26.12,14.66 L 26.08,12.44 Z" fill="#322819" stroke="none" /><path d="M 2.70,11.80 L 2.64,11.80 L 2.64,12.85 L 2.61,12.88 L 1.81,12.47 L 1.75,12.47 L 1.75,13.55 L 2.61,14.00 L 2.64,14.00 L 2.64,12.95 L 2.67,12.91 L 3.56,13.36 L 3.56,12.25 Z" fill="#322819" stroke="none" /><path d="M 18.93,11.61 L 18.89,11.61 L 18.89,12.12 L 18.00,12.56 L 18.00,12.85 L 18.77,13.23 L 18.83,13.23 L 18.86,13.20 L 18.86,12.15 L 19.37,11.90 L 19.37,11.83 Z" fill="#322819" stroke="none" /><path d="M 17.08,11.26 L 16.54,11.51 L 16.54,11.55 L 17.02,11.80 L 17.08,11.80 Z" fill="#322819" stroke="none" /><path d="M 19.82,10.82 L 19.82,10.97 L 20.68,11.39 L 20.68,11.23 Z" fill="#322819" stroke="none" /><path d="M 7.19,10.78 L 7.19,11.86 L 8.02,12.28 L 8.08,12.28 L 8.08,11.23 Z" fill="#322819" stroke="none" /><path d="M 22.49,10.66 L 22.49,11.77 L 23.32,12.18 L 23.38,12.18 L 23.38,11.07 L 22.55,10.66 Z" fill="#322819" stroke="none" /><path d="M 22.49,10.34 L 22.49,9.51 L 22.36,9.51 L 21.63,9.89 L 21.63,9.92 Z" fill="#322819" stroke="none" /><path d="M 4.45,9.42 L 4.45,10.50 L 5.38,10.94 L 5.38,9.86 Z" fill="#322819" stroke="none" /><path d="M 8.94,8.84 L 8.94,9.00 L 9.10,8.94 L 9.10,8.91 Z" fill="#322819" stroke="none" /><path d="M 25.19,8.68 L 25.19,9.80 L 26.08,10.24 L 26.08,11.32 L 26.12,11.32 L 26.08,9.10 L 25.26,8.68 Z" fill="#322819" stroke="none" /><path d="M 0.86,8.68 L 0.86,9.80 L 1.69,10.21 L 1.75,10.21 L 1.75,9.13 Z" fill="#322819" stroke="none" /><path d="M 17.08,8.56 L 17.08,9.45 L 17.94,9.89 L 18.00,9.89 L 18.00,9.00 L 17.15,8.56 Z" fill="#322819" stroke="none" /><path d="M 9.86,8.21 L 9.86,8.56 L 10.69,8.97 L 10.75,8.97 L 10.75,8.65 L 10.72,8.62 Z" fill="#322819" stroke="none" /><path d="M 11.67,6.74 L 11.67,6.90 L 12.37,7.25 L 12.47,7.25 L 12.53,7.22 L 12.53,7.16 Z" fill="#322819" stroke="none" /><path d="M 18.00,6.20 L 18.00,8.11 L 18.80,8.49 L 18.83,8.56 L 18.64,8.65 L 18.61,8.72 L 18.89,8.84 L 18.89,7.73 L 18.86,7.70 L 18.86,7.60 L 18.04,7.19 L 18.86,6.78 L 18.86,6.62 L 18.07,6.20 Z" fill="#322819" stroke="none" /><path d="M 8.05,5.82 L 8.05,6.20 L 8.87,6.62 L 8.94,6.62 L 8.94,5.50 L 8.78,5.44 Z" fill="#322819" stroke="none" /><path d="M 24.30,4.93 L 23.38,5.38 L 23.38,5.57 L 24.08,5.92 L 24.17,5.92 L 24.30,5.85 Z" fill="#322819" stroke="none" /><path d="M 17.05,3.47 L 16.73,3.31 L 16.67,3.31 L 16.16,3.56 L 16.16,4.10 L 16.13,4.14 L 15.65,3.88 L 15.52,3.88 L 15.33,3.98 L 15.30,4.04 L 16.13,4.45 L 16.16,4.45 L 16.16,4.20 L 16.19,4.17 L 16.99,4.58 L 17.05,4.58 Z" fill="#322819" stroke="none" /><path d="M 18.86,2.23 L 18.00,2.64 L 18.00,2.67 L 18.86,3.09 Z" fill="#322819" stroke="none" /><path d="M 15.24,0.41 L 15.24,1.50 L 15.94,1.84 L 16.03,1.84 L 16.16,1.78 L 16.16,0.86 Z" fill="#322819" stroke="none" /><path d="M 13.52,23.89 L 13.52,24.94 L 13.49,24.97 L 12.60,24.52 L 12.60,26.75 L 14.31,27.61 L 14.38,27.61 L 14.38,24.30 L 13.58,23.89 Z" fill="#3a2e1c" stroke="none" /><path d="M 9.89,23.19 L 9.89,25.38 L 11.64,26.27 L 11.71,26.27 L 11.71,25.19 L 10.88,24.78 L 10.82,24.72 L 10.82,23.63 L 9.96,23.19 Z" fill="#3a2e1c" stroke="none" /><path d="M 21.57,21.82 L 20.68,22.27 L 20.68,23.60 L 21.50,24.02 L 21.57,24.02 Z" fill="#3a2e1c" stroke="none" /><path d="M 17.94,20.01 L 17.94,22.23 L 18.86,22.68 L 18.86,21.57 L 18.00,21.12 L 18.00,20.01 Z" fill="#3a2e1c" stroke="none" /><path d="M 5.38,17.59 L 5.38,19.75 L 5.34,19.79 L 4.45,19.34 L 4.45,21.57 L 5.38,22.04 L 5.38,23.13 L 6.27,23.57 L 6.27,18.04 Z" fill="#3a2e1c" stroke="none" /><path d="M 8.05,17.27 L 8.05,18.39 L 8.87,18.80 L 8.94,18.80 L 8.94,17.72 Z" fill="#3a2e1c" stroke="none" /><path d="M 1.75,16.89 L 1.75,21.25 L 1.69,21.28 L 0.86,20.87 L 0.86,21.98 L 2.64,22.87 L 2.64,17.34 Z" fill="#3a2e1c" stroke="none" /><path d="M 11.67,15.78 L 11.67,17.34 L 11.71,17.34 L 11.71,15.78 Z" fill="#3a2e1c" stroke="none" /><path d="M 26.08,14.66 L 26.08,19.56 L 26.12,19.59 L 26.12,20.23 L 26.94,20.64 L 27.01,20.64 L 27.01,18.00 L 26.94,18.00 L 26.15,18.42 L 26.12,18.39 L 26.12,14.66 Z" fill="#3a2e1c" stroke="none" /><path d="M 9.92,13.20 L 9.89,13.20 L 9.89,15.36 L 9.86,15.40 L 9.07,14.98 L 9.00,14.98 L 9.00,17.18 L 9.86,17.62 L 9.89,17.62 L 9.89,16.57 L 9.92,16.54 L 10.82,16.99 L 10.82,13.65 Z" fill="#3a2e1c" stroke="none" /><path d="M 17.05,13.04 L 17.05,14.03 L 17.08,14.03 L 17.08,13.04 Z" fill="#3a2e1c" stroke="none" /><path d="M 11.71,13.04 L 11.71,15.20 L 12.53,15.62 L 12.60,15.68 L 12.60,16.76 L 13.46,17.21 L 13.52,17.21 L 13.52,15.01 L 12.60,14.54 L 12.60,13.49 Z" fill="#3a2e1c" stroke="none" /><path d="M 17.21,12.95 L 17.24,13.01 L 17.97,13.36 L 18.00,13.39 L 18.00,13.61 L 18.07,13.61 L 18.77,13.26 L 18.77,13.20 L 18.04,12.85 L 18.00,12.82 L 18.00,12.56 Z" fill="#3a2e1c" stroke="none" /><path d="M 7.25,11.86 L 7.19,11.86 L 7.19,12.88 L 7.16,12.91 L 6.33,12.50 L 6.27,12.50 L 6.27,15.81 L 7.13,16.25 L 7.19,16.25 L 7.19,14.12 L 7.25,14.09 L 8.08,14.50 L 8.08,12.28 Z" fill="#3a2e1c" stroke="none" /><path d="M 22.49,11.77 L 22.49,17.30 L 23.32,17.72 L 23.38,17.72 L 23.38,12.18 L 22.55,11.77 Z" fill="#3a2e1c" stroke="none" /><path d="M 18.93,11.23 L 18.89,11.26 L 18.89,11.61 L 18.93,11.64 L 19.37,11.86 L 19.44,11.86 L 19.72,11.71 L 19.75,11.74 L 19.75,12.06 L 19.82,12.09 L 19.82,13.20 L 20.68,13.61 L 20.68,11.39 L 19.85,10.97 L 19.82,10.94 L 19.82,10.82 L 19.75,10.82 Z" fill="#3a2e1c" stroke="none" /><path d="M 18.00,10.82 L 17.94,10.82 L 17.08,11.26 L 17.08,11.77 L 17.05,11.80 L 16.57,11.55 L 16.48,11.55 L 16.22,11.67 L 16.22,11.74 L 17.05,12.15 L 17.15,12.15 L 17.97,11.74 L 18.00,11.71 Z" fill="#3a2e1c" stroke="none" /><path d="M 22.43,9.48 L 22.43,9.51 L 22.49,9.51 L 22.49,9.48 Z" fill="#3a2e1c" stroke="none" /><path d="M 1.75,9.13 L 1.75,10.18 L 1.72,10.21 L 0.92,9.80 L 0.86,9.80 L 0.86,10.91 L 1.75,11.36 L 1.75,12.47 L 2.58,12.88 L 2.64,12.88 L 2.64,11.83 L 2.67,11.80 L 3.56,12.25 L 3.56,11.13 L 2.64,10.66 L 2.64,9.57 Z" fill="#3a2e1c" stroke="none" /><path d="M 21.57,8.97 L 21.57,9.00 L 21.60,9.00 L 21.60,8.97 Z" fill="#3a2e1c" stroke="none" /><path d="M 25.19,8.08 L 25.19,8.68 L 26.08,9.13 L 26.08,10.24 L 26.12,10.24 L 26.12,8.52 L 25.26,8.08 Z" fill="#3a2e1c" stroke="none" /><path d="M 21.57,8.08 L 21.57,8.11 L 21.60,8.11 L 21.60,8.08 Z" fill="#3a2e1c" stroke="none" /><path d="M 18.86,7.63 L 18.86,7.73 L 18.89,7.73 L 18.89,7.63 Z" fill="#3a2e1c" stroke="none" /><path d="M 8.05,6.20 L 8.05,6.74 L 9.83,7.63 L 8.94,8.08 L 8.94,8.84 L 9.03,8.91 L 9.16,8.91 L 9.86,8.56 L 9.86,8.27 L 9.89,8.24 L 10.75,8.65 L 10.75,7.54 L 9.92,7.13 L 9.86,7.06 L 9.86,6.74 L 9.83,6.71 L 9.00,6.30 L 9.03,6.23 L 9.70,5.92 L 9.70,5.88 L 9.00,5.53 L 8.94,5.53 L 8.94,6.58 L 8.91,6.62 L 8.11,6.20 Z" fill="#3a2e1c" stroke="none" /><path d="M 18.00,5.38 L 18.00,6.20 L 18.80,6.58 L 18.86,6.65 L 18.86,6.74 L 18.89,6.74 L 18.89,5.82 Z" fill="#3a2e1c" stroke="none" /><path d="M 17.94,4.45 L 17.94,4.49 L 18.00,4.49 L 18.00,4.45 Z" fill="#3a2e1c" stroke="none" /><path d="M 16.16,3.59 L 16.10,3.59 L 15.59,3.85 L 15.59,3.88 L 16.10,4.14 L 16.16,4.14 Z" fill="#3a2e1c" stroke="none" /><path d="M 17.94,3.53 L 17.94,3.59 L 17.97,3.59 L 17.97,3.53 Z" fill="#3a2e1c" stroke="none" /><path d="M 16.73,3.28 L 16.73,3.34 L 16.99,3.47 L 17.05,3.47 L 17.05,3.15 L 16.99,3.15 Z" fill="#3a2e1c" stroke="none" /><path d="M 15.24,3.09 L 15.24,3.12 L 15.27,3.12 L 15.27,3.09 Z" fill="#3a2e1c" stroke="none" /><path d="M 15.24,1.50 L 15.24,2.19 L 15.33,2.19 L 15.97,1.88 L 15.94,1.81 L 15.30,1.50 Z" fill="#3a2e1c" stroke="none" /><path d="M 16.16,0.89 L 16.16,1.75 L 16.22,1.75 L 17.05,1.34 L 17.05,1.30 L 16.22,0.89 Z" fill="#3a2e1c" stroke="none" /><path d="M 11.71,29.81 L 11.71,30.66 L 11.77,30.66 L 12.56,30.25 L 12.56,30.22 Z" fill="#433422" stroke="none" /><path d="M 9.89,27.10 L 9.83,27.07 L 8.94,27.51 L 8.94,27.55 L 9.86,27.99 L 9.89,27.96 Z" fill="#433422" stroke="none" /><path d="M 8.05,27.07 L 7.19,27.48 L 7.19,27.55 L 7.98,27.96 L 8.05,27.96 Z" fill="#433422" stroke="none" /><path d="M 21.57,24.81 L 21.57,24.84 L 21.60,24.84 L 21.60,24.81 Z" fill="#433422" stroke="none" /><path d="M 20.68,24.68 L 20.68,25.29 L 20.71,25.29 L 20.71,24.68 Z" fill="#433422" stroke="none" /><path d="M 24.30,24.40 L 24.24,24.40 L 22.52,25.26 L 22.52,25.29 L 23.44,25.73 L 24.30,25.29 Z" fill="#433422" stroke="none" /><path d="M 6.27,23.44 L 6.30,23.51 L 8.05,24.37 L 8.05,23.44 L 7.16,23.00 Z" fill="#433422" stroke="none" /><path d="M 13.52,22.52 L 13.52,22.58 L 14.35,23.00 L 14.41,23.00 L 15.27,22.55 L 15.27,22.52 L 14.44,22.11 L 14.31,22.11 Z" fill="#433422" stroke="none" /><path d="M 18.89,20.74 L 18.89,20.93 L 18.96,20.93 L 19.09,20.87 L 19.05,20.80 Z" fill="#433422" stroke="none" /><path d="M 11.67,20.74 L 10.82,21.15 L 10.82,21.22 L 11.61,21.63 L 11.67,21.63 Z" fill="#433422" stroke="none" /><path d="M 17.97,9.89 L 17.11,9.45 L 17.05,9.45 L 15.33,10.31 L 15.30,10.37 L 17.11,11.26 L 17.97,10.82 L 17.97,10.78 L 17.15,10.37 L 17.18,10.31 L 17.97,9.92 Z" fill="#433422" stroke="none" /><path d="M 22.55,9.42 L 22.55,9.48 L 23.32,9.86 L 23.44,9.86 L 24.27,9.45 L 24.24,9.38 L 23.48,9.00 L 23.38,9.00 Z" fill="#433422" stroke="none" /><path d="M 8.05,10.37 L 8.97,10.82 L 10.75,9.92 L 10.75,9.89 L 9.00,9.00 L 8.91,9.00 L 8.08,9.42 L 8.08,9.48 L 8.91,9.89 L 8.84,9.96 L 8.05,10.34 Z" fill="#433422" stroke="none" /><path d="M 13.49,8.52 L 13.52,8.59 L 14.35,9.00 L 14.41,9.00 L 15.27,8.56 L 15.27,8.52 L 14.44,8.11 L 14.31,8.11 Z" fill="#433422" stroke="none" /><path d="M 20.71,8.52 L 20.71,8.56 L 21.60,9.00 L 22.52,8.56 L 22.52,8.52 L 21.63,8.08 Z" fill="#433422" stroke="none" /><path d="M 2.67,8.49 L 2.70,8.56 L 4.42,9.42 L 4.52,9.42 L 5.31,9.00 L 5.31,8.97 L 3.53,8.08 Z" fill="#433422" stroke="none" /><path d="M 18.04,7.16 L 18.04,7.22 L 18.86,7.63 L 18.93,7.63 L 19.79,7.19 L 19.79,7.16 L 18.96,6.74 L 18.86,6.74 Z" fill="#433422" stroke="none" /><path d="M 20.74,4.90 L 20.77,4.96 L 21.60,5.38 L 21.66,5.38 L 22.52,4.93 L 22.52,4.90 L 21.69,4.49 L 21.57,4.49 Z" fill="#433422" stroke="none" /><path d="M 12.56,4.45 L 12.56,4.49 L 13.46,4.93 L 14.35,4.49 L 14.41,4.49 L 15.27,4.93 L 16.19,4.49 L 16.19,4.45 L 14.41,3.56 L 14.35,3.56 Z" fill="#433422" stroke="none" /><path d="M 16.22,1.72 L 16.22,1.78 L 17.05,2.19 L 17.15,2.19 L 17.94,1.78 L 17.94,1.75 L 17.11,1.34 L 16.99,1.34 Z" fill="#433422" stroke="none" /><path d="M 12.56,2.67 L 13.49,3.12 L 15.27,2.23 L 15.27,2.19 L 13.52,1.30 L 13.42,1.30 L 12.60,1.72 L 12.60,1.78 L 13.42,2.19 L 13.36,2.26 L 12.56,2.64 Z" fill="#433422" stroke="none" /><path d="M 12.50,29.36 L 11.74,29.74 L 11.71,29.81 L 12.47,30.19 L 12.53,30.25 L 11.71,30.66 L 11.71,30.70 L 12.53,31.11 L 12.60,31.11 L 12.60,30.12 L 12.66,30.09 L 13.46,30.50 L 13.52,30.50 L 13.52,29.81 L 12.63,29.36 Z" fill="#3b2e23" stroke="none" /><path d="M 11.71,28.02 L 11.71,28.85 L 11.77,28.85 L 12.53,28.47 L 12.53,28.41 L 11.77,28.02 Z" fill="#3b2e23" stroke="none" /><path d="M 7.19,28.41 L 7.19,28.44 L 8.02,28.85 L 8.14,28.85 L 8.94,28.44 L 8.94,28.41 L 8.11,27.99 L 7.98,27.99 Z" fill="#3b2e23" stroke="none" /><path d="M 21.57,27.55 L 21.57,28.41 L 21.63,28.41 L 22.46,27.99 L 22.46,27.93 L 21.63,27.51 Z" fill="#3b2e23" stroke="none" /><path d="M 9.86,27.07 L 9.86,27.10 L 9.89,27.10 L 9.89,27.07 Z" fill="#3b2e23" stroke="none" /><path d="M 17.05,27.07 L 17.05,27.10 L 17.15,27.10 L 17.94,27.51 L 17.91,27.58 L 17.11,27.96 L 17.15,28.02 L 18.80,28.85 L 18.86,28.85 L 18.86,27.96 L 18.07,27.55 L 18.10,27.48 L 18.83,27.13 L 18.86,27.10 L 18.86,27.04 L 18.04,26.62 L 17.97,26.62 L 17.11,27.07 Z" fill="#3b2e23" stroke="none" /><path d="M 6.46,26.94 L 6.46,27.01 L 7.13,27.32 L 7.19,27.39 L 7.19,27.48 L 7.25,27.48 L 8.02,27.10 L 7.98,27.04 L 7.16,26.62 L 7.09,26.62 Z" fill="#3b2e23" stroke="none" /><path d="M 9.86,26.15 L 9.86,26.18 L 9.89,26.18 L 9.89,26.15 Z" fill="#3b2e23" stroke="none" /><path d="M 12.56,25.70 L 12.56,25.73 L 12.60,25.73 L 12.60,25.70 Z" fill="#3b2e23" stroke="none" /><path d="M 4.45,25.26 L 3.53,25.70 L 3.53,25.73 L 4.33,26.12 L 4.39,26.18 L 3.56,26.59 L 3.56,26.62 L 4.39,27.04 L 4.45,27.04 Z" fill="#3b2e23" stroke="none" /><path d="M 26.12,24.37 L 26.12,25.26 L 27.01,25.70 L 27.01,24.78 L 26.18,24.37 Z" fill="#3b2e23" stroke="none" /><path d="M 6.27,23.48 L 6.27,24.40 L 7.09,24.81 L 7.19,24.81 L 8.02,24.40 L 8.02,24.33 Z" fill="#3b2e23" stroke="none" /><path d="M 16.16,23.89 L 15.27,23.44 L 14.38,23.89 L 14.38,23.92 L 15.30,24.37 L 16.13,23.95 Z" fill="#3b2e23" stroke="none" /><path d="M 21.57,23.00 L 21.57,23.03 L 21.60,23.03 L 21.60,23.00 Z" fill="#3b2e23" stroke="none" /><path d="M 4.45,22.58 L 2.70,23.44 L 2.67,23.51 L 3.53,23.92 L 4.42,23.48 L 4.45,23.44 Z" fill="#3b2e23" stroke="none" /><path d="M 11.67,22.55 L 10.82,22.97 L 10.82,23.03 L 10.85,23.06 L 11.61,23.44 L 11.55,23.51 L 11.07,23.73 L 11.10,23.79 L 11.61,24.05 L 11.67,24.05 Z" fill="#3b2e23" stroke="none" /><path d="M 6.27,22.52 L 6.27,22.58 L 7.09,23.00 L 7.19,23.00 L 8.02,22.58 L 8.02,22.52 L 7.19,22.11 L 7.09,22.11 Z" fill="#3b2e23" stroke="none" /><path d="M 13.52,21.66 L 13.52,22.52 L 14.38,22.11 L 14.38,22.08 Z" fill="#3b2e23" stroke="none" /><path d="M 19.75,20.33 L 19.69,20.33 L 18.93,20.71 L 18.93,20.77 L 19.05,20.83 L 19.15,20.83 L 19.72,20.55 L 19.75,20.52 Z" fill="#3b2e23" stroke="none" /><path d="M 16.16,20.33 L 16.10,20.33 L 15.33,20.71 L 15.30,20.77 L 16.16,21.18 Z" fill="#3b2e23" stroke="none" /><path d="M 10.82,20.33 L 10.82,21.15 L 10.88,21.15 L 11.64,20.77 L 11.64,20.71 L 10.88,20.33 Z" fill="#3b2e23" stroke="none" /><path d="M 13.52,19.82 L 13.52,20.71 L 13.58,20.71 L 15.27,19.85 L 16.10,20.26 L 16.16,20.26 L 16.16,19.40 L 15.33,19.82 L 15.24,19.82 L 14.44,19.40 L 14.31,19.40 Z" fill="#3b2e23" stroke="none" /><path d="M 14.41,13.49 L 14.41,13.55 L 15.17,13.93 L 15.30,13.93 L 16.13,13.52 L 16.10,13.46 L 15.33,13.07 L 15.24,13.07 Z" fill="#3b2e23" stroke="none" /><path d="M 12.63,13.49 L 12.63,13.52 L 13.46,13.93 L 13.58,13.93 L 14.35,13.55 L 14.35,13.49 L 13.52,13.07 L 13.42,13.07 Z" fill="#3b2e23" stroke="none" /><path d="M 18.86,12.12 L 18.04,11.71 L 17.97,11.71 L 16.19,12.60 L 16.19,12.63 L 17.02,13.04 L 17.08,13.04 L 18.86,12.15 Z" fill="#3b2e23" stroke="none" /><path d="M 18.00,10.78 L 18.04,10.85 L 18.86,11.26 L 18.93,11.26 L 19.79,10.82 L 19.79,10.78 L 18.96,10.37 L 18.83,10.37 Z" fill="#3b2e23" stroke="none" /><path d="M 8.97,10.78 L 9.00,10.85 L 9.83,11.26 L 9.00,11.67 L 9.00,11.71 L 10.78,12.60 L 11.61,12.18 L 11.71,12.18 L 12.50,12.60 L 12.63,12.60 L 14.35,11.74 L 14.35,11.67 L 13.52,11.26 L 13.42,11.26 L 12.56,11.71 L 11.71,11.26 L 11.61,11.26 L 10.75,11.71 L 9.89,11.26 L 10.72,10.85 L 10.75,10.78 L 9.92,10.37 L 9.80,10.37 Z" fill="#3b2e23" stroke="none" /><path d="M 6.30,10.31 L 6.33,10.37 L 7.16,10.78 L 7.22,10.78 L 8.05,10.37 L 8.05,10.34 L 7.16,9.89 Z" fill="#3b2e23" stroke="none" /><path d="M 14.41,9.86 L 14.41,9.92 L 15.24,10.34 L 15.17,10.40 L 14.38,10.78 L 14.38,10.82 L 16.16,11.71 L 16.22,11.71 L 17.08,11.26 L 17.08,11.23 L 15.40,10.40 L 15.33,10.34 L 16.16,9.92 L 16.13,9.86 L 15.30,9.45 L 15.24,9.45 Z" fill="#3b2e23" stroke="none" /><path d="M 23.41,8.97 L 22.58,8.56 L 22.46,8.56 L 20.74,9.42 L 20.74,9.48 L 21.57,9.89 L 21.66,9.89 L 23.38,9.03 Z" fill="#3b2e23" stroke="none" /><path d="M 8.97,8.97 L 9.00,9.03 L 9.83,9.45 L 9.89,9.45 L 10.75,9.00 L 11.61,9.42 L 11.64,9.45 L 11.61,9.48 L 10.78,9.89 L 10.78,9.92 L 11.61,10.34 L 11.74,10.34 L 12.56,9.92 L 12.53,9.86 L 11.71,9.45 L 12.53,9.03 L 12.56,8.97 L 11.74,8.56 L 11.61,8.56 L 10.82,8.97 L 10.72,8.97 L 9.92,8.56 L 9.80,8.56 Z" fill="#3b2e23" stroke="none" /><path d="M 6.23,8.52 L 6.23,8.56 L 7.13,9.00 L 8.05,8.56 L 8.05,8.52 L 7.16,8.08 Z" fill="#3b2e23" stroke="none" /><path d="M 25.26,8.11 L 26.12,8.52 L 27.01,8.08 L 27.01,8.05 L 26.18,7.63 L 26.12,7.63 L 25.29,8.05 Z" fill="#3b2e23" stroke="none" /><path d="M 15.30,8.52 L 15.33,8.59 L 16.16,9.00 L 17.05,8.56 L 17.11,8.56 L 17.97,9.00 L 18.89,8.56 L 18.89,8.52 L 17.11,7.63 Z" fill="#3b2e23" stroke="none" /><path d="M 18.93,7.60 L 18.93,7.67 L 19.75,8.08 L 19.85,8.08 L 20.68,7.67 L 20.68,7.60 L 19.85,7.19 L 19.75,7.19 Z" fill="#3b2e23" stroke="none" /><path d="M 11.67,7.63 L 11.67,7.67 L 12.50,8.08 L 12.63,8.08 L 13.46,7.67 L 13.42,7.60 L 12.60,7.19 L 12.53,7.19 Z" fill="#3b2e23" stroke="none" /><path d="M 1.75,8.05 L 1.75,8.08 L 2.64,8.52 L 3.47,8.11 L 3.56,8.11 L 4.36,8.52 L 4.49,8.52 L 5.31,8.11 L 5.28,8.05 L 3.56,7.19 L 3.47,7.19 Z" fill="#3b2e23" stroke="none" /><path d="M 15.30,6.71 L 15.33,6.78 L 16.16,7.19 L 16.22,7.19 L 17.08,6.74 L 17.08,6.71 L 16.25,6.30 L 16.13,6.30 Z" fill="#3b2e23" stroke="none" /><path d="M 26.08,5.82 L 25.26,5.41 L 25.13,5.41 L 23.44,6.27 L 22.55,5.82 L 22.49,5.82 L 21.66,6.23 L 21.63,6.30 L 22.46,6.71 L 22.58,6.71 L 23.38,6.30 L 23.48,6.30 L 24.24,6.68 L 24.27,6.71 L 24.24,6.78 L 22.55,7.60 L 22.55,7.67 L 23.38,8.08 L 23.48,8.08 L 25.19,7.22 L 25.22,7.16 L 24.43,6.78 L 24.40,6.71 L 26.05,5.88 Z" fill="#3b2e23" stroke="none" /><path d="M 11.67,5.82 L 11.67,5.85 L 12.50,6.27 L 12.63,6.27 L 13.46,5.85 L 13.42,5.79 L 12.60,5.38 L 12.53,5.38 Z" fill="#3b2e23" stroke="none" /><path d="M 19.85,5.34 L 19.85,5.41 L 20.68,5.82 L 20.77,5.82 L 21.60,5.41 L 21.60,5.34 L 20.77,4.93 L 20.68,4.93 Z" fill="#3b2e23" stroke="none" /><path d="M 9.80,4.93 L 8.97,5.34 L 8.97,5.41 L 9.80,5.82 L 9.73,5.88 L 8.94,6.27 L 8.94,6.30 L 9.86,6.74 L 10.75,6.30 L 10.75,6.27 L 9.96,5.88 L 9.89,5.82 L 10.72,5.41 L 10.72,5.34 L 9.89,4.93 Z" fill="#3b2e23" stroke="none" /><path d="M 6.23,4.90 L 6.27,4.96 L 7.98,5.82 L 8.08,5.82 L 8.91,5.41 L 8.91,5.34 L 7.19,4.49 L 7.06,4.49 Z" fill="#3b2e23" stroke="none" /><path d="M 20.74,4.01 L 20.74,4.04 L 22.52,4.93 L 23.38,4.52 L 23.35,4.45 L 21.63,3.59 L 21.53,3.59 Z" fill="#3b2e23" stroke="none" /><path d="M 19.79,5.41 L 19.79,5.34 L 18.07,4.49 L 18.10,4.42 L 18.89,4.04 L 18.89,4.01 L 18.04,3.56 L 17.97,3.56 L 17.11,4.01 L 17.11,4.04 L 17.94,4.45 L 17.91,4.52 L 17.15,4.90 L 17.05,4.90 L 16.25,4.49 L 16.13,4.49 L 15.30,4.90 L 15.33,4.96 L 16.16,5.38 L 16.22,5.38 L 17.11,4.93 L 18.86,5.82 L 18.96,5.82 Z" fill="#3b2e23" stroke="none" /><path d="M 7.19,3.56 L 7.22,3.63 L 7.98,4.01 L 8.08,4.01 L 8.91,3.59 L 8.91,3.53 L 8.14,3.15 L 8.02,3.15 Z" fill="#3b2e23" stroke="none" /><path d="M 10.82,1.75 L 10.85,1.81 L 11.61,2.19 L 11.71,2.19 L 12.53,1.78 L 12.53,1.72 L 11.77,1.34 L 11.64,1.34 Z" fill="#3b2e23" stroke="none" /><path d="M 12.63,0.86 L 12.63,0.89 L 14.35,1.75 L 14.41,1.75 L 15.27,1.30 L 15.27,1.27 L 13.55,0.41 L 13.49,0.41 Z" fill="#3b2e23" stroke="none" /><path d="M 13.49,29.77 L 13.49,29.81 L 13.52,29.81 L 13.52,29.77 Z" fill="#4d3e27" stroke="none" /><path d="M 15.24,28.91 L 14.38,29.33 L 14.38,31.14 L 15.17,31.55 L 15.24,31.55 L 15.24,30.66 L 14.41,30.25 L 15.24,29.84 Z" fill="#4d3e27" stroke="none" /><path d="M 11.71,28.91 L 11.71,29.77 L 12.56,29.36 L 12.56,29.33 Z" fill="#4d3e27" stroke="none" /><path d="M 9.89,29.77 L 9.89,28.88 L 9.83,28.88 L 9.00,29.30 L 9.03,29.36 Z" fill="#4d3e27" stroke="none" /><path d="M 18.04,28.44 L 17.97,28.44 L 17.05,28.91 L 17.05,29.77 L 17.91,30.22 L 18.00,30.22 L 18.83,29.81 L 18.83,29.74 L 18.10,29.39 L 18.04,29.33 L 18.86,28.91 L 18.86,28.85 Z" fill="#4d3e27" stroke="none" /><path d="M 12.60,28.41 L 12.60,28.47 L 13.42,28.88 L 13.52,28.88 L 13.52,28.31 L 13.49,28.28 L 13.23,28.15 L 13.11,28.15 Z" fill="#4d3e27" stroke="none" /><path d="M 8.05,27.96 L 8.05,27.99 L 8.94,28.44 L 9.83,27.99 L 9.89,27.99 L 9.89,27.96 L 9.80,27.96 L 9.00,27.55 L 8.87,27.55 Z" fill="#4d3e27" stroke="none" /><path d="M 12.56,27.51 L 12.56,27.55 L 12.60,27.55 L 12.60,27.51 Z" fill="#4d3e27" stroke="none" /><path d="M 18.86,27.10 L 18.00,27.51 L 18.00,27.55 L 18.86,27.96 Z" fill="#4d3e27" stroke="none" /><path d="M 17.05,27.07 L 17.15,27.07 L 17.97,26.66 L 17.97,26.59 L 17.21,26.21 L 17.05,26.27 Z" fill="#4d3e27" stroke="none" /><path d="M 15.24,26.21 L 15.17,26.21 L 14.41,26.59 L 14.41,26.66 L 15.17,27.04 L 15.24,27.04 Z" fill="#4d3e27" stroke="none" /><path d="M 9.86,26.18 L 9.86,27.07 L 9.89,27.07 L 9.89,26.18 Z" fill="#4d3e27" stroke="none" /><path d="M 24.30,25.29 L 21.66,26.59 L 21.66,26.66 L 23.38,27.51 L 24.30,27.07 L 24.30,27.04 L 23.48,26.62 L 23.54,26.56 L 24.30,26.18 Z" fill="#4d3e27" stroke="none" /><path d="M 26.12,25.26 L 26.12,26.15 L 26.97,25.73 L 26.97,25.67 Z" fill="#4d3e27" stroke="none" /><path d="M 2.64,24.40 L 2.64,26.15 L 2.70,26.15 L 3.53,25.73 L 3.53,25.70 L 2.74,25.32 L 2.67,25.26 L 3.50,24.84 L 3.50,24.81 L 2.70,24.40 Z" fill="#4d3e27" stroke="none" /><path d="M 8.05,24.37 L 7.16,24.81 L 6.33,24.40 L 6.27,24.40 L 6.27,25.26 L 7.09,24.84 L 7.19,24.84 L 7.98,25.26 L 8.05,25.26 Z" fill="#4d3e27" stroke="none" /><path d="M 22.55,24.33 L 22.55,24.40 L 23.38,24.81 L 23.48,24.81 L 24.30,24.40 L 24.30,24.33 L 23.48,23.92 L 23.38,23.92 Z" fill="#4d3e27" stroke="none" /><path d="M 21.57,23.92 L 21.57,25.70 L 21.69,25.70 L 22.52,25.29 L 22.52,25.26 L 21.73,24.87 L 21.66,24.81 L 22.49,24.40 L 22.49,24.33 L 21.66,23.92 Z" fill="#4d3e27" stroke="none" /><path d="M 2.64,23.48 L 2.64,24.33 L 2.70,24.33 L 3.53,23.92 L 4.39,24.37 L 4.45,24.37 L 4.45,23.48 L 4.36,23.48 L 3.56,23.89 L 3.47,23.89 Z" fill="#4d3e27" stroke="none" /><path d="M 16.16,23.03 L 16.10,23.03 L 15.33,23.41 L 15.30,23.48 L 16.16,23.89 Z" fill="#4d3e27" stroke="none" /><path d="M 21.63,23.00 L 21.63,23.03 L 22.46,23.44 L 22.58,23.44 L 23.38,23.03 L 23.38,22.97 L 22.55,22.55 L 22.49,22.55 Z" fill="#4d3e27" stroke="none" /><path d="M 8.05,22.55 L 7.19,22.97 L 7.16,23.03 L 7.98,23.44 L 8.05,23.44 Z" fill="#4d3e27" stroke="none" /><path d="M 21.57,22.08 L 21.57,22.11 L 21.60,22.11 L 21.60,22.08 Z" fill="#4d3e27" stroke="none" /><path d="M 14.38,22.08 L 14.38,22.11 L 15.27,22.55 L 16.16,22.11 L 16.16,22.08 L 15.33,21.66 L 15.20,21.66 Z" fill="#4d3e27" stroke="none" /><path d="M 8.05,20.80 L 7.98,20.80 L 7.19,21.22 L 7.19,21.76 L 7.16,21.79 L 6.65,21.53 L 6.52,21.53 L 6.33,21.63 L 6.30,21.69 L 7.16,22.11 L 8.05,21.66 Z" fill="#4d3e27" stroke="none" /><path d="M 15.27,20.74 L 14.41,20.29 L 14.35,20.29 L 13.52,20.71 L 13.52,21.63 L 15.27,20.77 Z" fill="#4d3e27" stroke="none" /><path d="M 18.89,19.88 L 18.89,20.74 L 19.75,20.33 L 19.75,20.29 Z" fill="#4d3e27" stroke="none" /><path d="M 16.16,19.37 L 15.30,18.93 L 14.41,19.37 L 14.35,19.37 L 13.52,18.96 L 13.52,19.82 L 14.35,19.40 L 14.41,19.40 L 15.30,19.85 L 16.13,19.44 Z" fill="#4d3e27" stroke="none" /><path d="M 14.35,18.45 L 14.16,18.35 L 14.06,18.35 L 13.55,18.61 L 13.52,18.64 L 13.52,18.89 L 13.58,18.89 L 14.35,18.51 Z" fill="#4d3e27" stroke="none" /><path d="M 17.08,12.15 L 16.22,11.71 L 16.16,11.71 L 15.30,12.15 L 15.30,12.18 L 16.13,12.60 L 16.10,12.66 L 15.33,13.04 L 15.24,13.04 L 14.44,12.63 L 14.31,12.63 L 13.52,13.04 L 13.42,13.04 L 12.63,12.63 L 12.50,12.63 L 11.74,13.01 L 11.74,13.07 L 12.56,13.49 L 12.66,13.49 L 13.46,13.07 L 14.35,13.52 L 14.41,13.52 L 15.27,13.07 L 16.10,13.49 L 16.19,13.49 L 17.02,13.07 L 17.02,13.01 L 16.29,12.66 L 16.25,12.60 L 17.08,12.18 Z" fill="#4d3e27" stroke="none" /><path d="M 22.46,10.31 L 21.60,9.89 L 19.82,10.78 L 19.82,10.82 L 20.61,11.23 L 20.71,11.23 L 22.43,10.37 Z" fill="#4d3e27" stroke="none" /><path d="M 19.79,9.89 L 18.93,9.45 L 18.86,9.45 L 17.08,10.34 L 17.08,10.37 L 18.00,10.82 L 19.79,9.92 Z" fill="#4d3e27" stroke="none" /><path d="M 12.60,9.89 L 12.60,9.92 L 14.31,10.78 L 14.28,10.85 L 13.49,11.23 L 13.52,11.29 L 14.35,11.71 L 14.41,11.71 L 15.27,11.26 L 15.27,11.23 L 14.44,10.82 L 14.47,10.75 L 15.27,10.37 L 15.24,10.31 L 13.52,9.45 L 13.46,9.45 Z" fill="#4d3e27" stroke="none" /><path d="M 9.89,9.42 L 9.89,9.48 L 10.72,9.89 L 10.82,9.89 L 11.64,9.48 L 11.64,9.42 L 10.82,9.00 L 10.72,9.00 Z" fill="#4d3e27" stroke="none" /><path d="M 4.42,8.52 L 4.42,8.56 L 5.22,8.94 L 5.28,9.00 L 4.52,9.38 L 4.49,9.45 L 5.31,9.86 L 5.44,9.86 L 7.16,9.00 L 8.02,9.45 L 7.19,9.86 L 7.16,9.92 L 7.98,10.34 L 8.11,10.34 L 8.94,9.92 L 8.91,9.86 L 8.08,9.45 L 8.91,9.03 L 8.94,8.97 L 8.11,8.56 L 7.98,8.56 L 7.19,8.97 L 7.09,8.97 L 5.34,8.08 Z" fill="#4d3e27" stroke="none" /><path d="M 12.56,8.08 L 12.56,8.11 L 13.46,8.56 L 14.35,8.11 L 14.41,8.11 L 15.17,8.49 L 15.24,8.56 L 15.20,8.59 L 14.41,8.97 L 14.41,9.03 L 15.24,9.45 L 15.30,9.45 L 16.16,9.00 L 16.16,8.97 L 15.33,8.56 L 15.40,8.49 L 16.19,8.11 L 16.19,8.08 L 15.30,7.63 L 14.41,8.08 L 14.35,8.08 L 13.49,7.63 Z" fill="#4d3e27" stroke="none" /><path d="M 26.18,7.60 L 26.18,7.67 L 26.94,8.05 L 27.07,8.05 L 27.90,7.63 L 27.86,7.57 L 27.10,7.19 L 27.01,7.19 Z" fill="#4d3e27" stroke="none" /><path d="M 8.08,7.60 L 8.08,7.67 L 8.91,8.08 L 9.00,8.08 L 9.83,7.67 L 9.83,7.60 L 9.00,7.19 L 8.91,7.19 Z" fill="#4d3e27" stroke="none" /><path d="M 6.27,7.60 L 6.27,7.67 L 7.09,8.08 L 7.19,8.08 L 8.02,7.67 L 8.02,7.60 L 7.19,7.19 L 7.09,7.19 Z" fill="#4d3e27" stroke="none" /><path d="M 23.41,7.16 L 22.58,6.74 L 22.46,6.74 L 20.74,7.60 L 20.74,7.67 L 22.46,8.52 L 22.58,8.52 L 23.41,8.11 L 23.38,8.05 L 22.55,7.63 L 23.38,7.22 Z" fill="#4d3e27" stroke="none" /><path d="M 18.93,6.71 L 18.96,6.78 L 19.79,7.19 L 20.71,6.74 L 20.71,6.71 L 19.88,6.30 L 19.75,6.30 Z" fill="#4d3e27" stroke="none" /><path d="M 25.22,6.27 L 24.33,6.71 L 24.33,6.74 L 25.13,7.13 L 25.19,7.19 L 24.37,7.60 L 24.37,7.67 L 25.19,8.08 L 25.29,8.08 L 26.12,7.67 L 26.12,7.60 L 25.29,7.19 L 25.35,7.13 L 26.15,6.74 L 26.15,6.71 Z" fill="#4d3e27" stroke="none" /><path d="M 18.00,6.30 L 18.00,6.27 L 17.21,5.88 L 17.15,5.82 L 17.97,5.41 L 17.97,5.34 L 17.15,4.93 L 17.05,4.93 L 15.30,5.82 L 14.41,5.38 L 14.35,5.38 L 13.49,5.82 L 13.49,5.85 L 14.31,6.27 L 14.44,6.27 L 15.24,5.85 L 15.33,5.85 L 17.08,6.74 Z" fill="#4d3e27" stroke="none" /><path d="M 7.09,5.34 L 6.27,4.93 L 6.17,4.93 L 5.38,5.34 L 5.28,5.34 L 4.45,4.93 L 3.56,5.38 L 3.56,5.41 L 5.25,6.23 L 5.28,6.27 L 5.22,6.33 L 3.56,7.16 L 3.47,7.16 L 2.70,6.78 L 2.67,6.71 L 3.50,6.30 L 3.50,6.27 L 2.70,5.85 L 2.61,5.85 L 0.89,6.71 L 0.86,6.78 L 2.58,7.63 L 2.64,7.63 L 3.50,7.19 L 4.39,7.63 L 4.45,7.63 L 6.23,6.74 L 6.23,6.71 L 5.44,6.33 L 5.38,6.27 L 7.09,5.41 Z" fill="#4d3e27" stroke="none" /><path d="M 24.27,4.93 L 23.38,4.49 L 21.66,5.34 L 21.66,5.41 L 22.49,5.82 L 22.55,5.82 L 24.27,4.96 Z" fill="#4d3e27" stroke="none" /><path d="M 6.30,4.01 L 6.30,4.07 L 8.91,5.38 L 8.97,5.38 L 9.83,4.93 L 10.69,5.34 L 10.72,5.38 L 10.69,5.41 L 9.86,5.82 L 9.86,5.85 L 10.66,6.23 L 10.69,6.30 L 9.86,6.71 L 9.86,6.74 L 10.72,7.19 L 10.78,7.19 L 12.56,6.30 L 12.56,6.27 L 10.78,5.38 L 11.64,4.93 L 11.64,4.90 L 10.82,4.49 L 10.69,4.49 L 9.89,4.90 L 9.80,4.90 L 7.22,3.59 L 7.13,3.59 Z" fill="#4d3e27" stroke="none" /><path d="M 20.71,4.01 L 19.85,3.56 L 19.79,3.56 L 18.00,4.45 L 18.00,4.49 L 18.93,4.93 L 20.71,4.04 Z" fill="#4d3e27" stroke="none" /><path d="M 12.60,3.53 L 12.60,3.59 L 13.42,4.01 L 13.52,4.01 L 14.35,3.59 L 14.35,3.53 L 13.52,3.12 L 13.42,3.12 Z" fill="#4d3e27" stroke="none" /><path d="M 17.11,3.09 L 17.15,3.15 L 17.97,3.56 L 18.04,3.56 L 18.89,3.12 L 18.89,3.09 L 18.07,2.67 L 17.94,2.67 Z" fill="#4d3e27" stroke="none" /><path d="M 15.27,2.19 L 14.38,2.64 L 14.38,2.67 L 15.17,3.05 L 15.24,3.12 L 14.41,3.53 L 14.41,3.59 L 15.24,4.01 L 15.33,4.01 L 16.16,3.59 L 16.16,3.53 L 15.33,3.12 L 15.40,3.05 L 16.19,2.67 L 16.19,2.64 Z" fill="#4d3e27" stroke="none" /><path d="M 13.46,1.27 L 12.60,0.86 L 11.71,1.30 L 11.71,1.34 L 12.50,1.72 L 12.53,1.75 L 12.50,1.78 L 10.78,2.64 L 10.72,2.64 L 9.92,2.23 L 9.86,2.23 L 9.03,2.64 L 9.00,2.70 L 10.72,3.56 L 10.78,3.56 L 13.46,2.23 L 13.42,2.16 L 12.60,1.75 L 13.42,1.34 Z" fill="#4d3e27" stroke="none" /><path d="M 15.24,29.84 L 15.17,29.84 L 14.41,30.22 L 14.41,30.28 L 15.17,30.66 L 15.24,30.66 Z" fill="#59472b" stroke="none" /><path d="M 17.05,28.88 L 17.05,28.91 L 17.08,28.91 L 17.08,28.88 Z" fill="#59472b" stroke="none" /><path d="M 13.49,28.88 L 13.49,28.91 L 13.52,28.91 L 13.52,28.88 Z" fill="#59472b" stroke="none" /><path d="M 9.89,28.88 L 9.89,27.99 L 9.80,27.99 L 8.97,28.41 L 9.00,28.47 L 9.83,28.88 Z" fill="#59472b" stroke="none" /><path d="M 14.38,27.55 L 14.38,29.33 L 14.44,29.33 L 15.24,28.91 L 15.24,27.96 L 14.44,27.55 Z" fill="#59472b" stroke="none" /><path d="M 9.86,25.38 L 9.86,26.15 L 9.89,26.15 L 9.89,25.38 Z" fill="#59472b" stroke="none" /><path d="M 23.41,25.70 L 22.58,25.29 L 22.46,25.29 L 21.66,25.70 L 21.57,25.70 L 21.57,26.59 L 21.60,26.62 L 21.57,26.66 L 21.57,27.55 L 22.49,27.10 L 22.49,27.04 L 21.66,26.62 L 23.38,25.77 Z" fill="#59472b" stroke="none" /><path d="M 20.68,25.29 L 20.68,26.18 L 20.71,26.18 L 20.71,25.29 Z" fill="#59472b" stroke="none" /><path d="M 14.38,24.81 L 14.38,25.73 L 15.24,26.15 L 15.24,25.22 Z" fill="#59472b" stroke="none" /><path d="M 16.16,23.92 L 15.30,24.33 L 15.30,24.37 L 15.84,24.65 L 15.94,24.65 L 16.13,24.56 L 16.16,24.52 Z" fill="#59472b" stroke="none" /><path d="M 2.64,24.33 L 2.64,24.40 L 4.36,25.26 L 4.45,25.26 L 4.45,24.37 L 3.56,23.92 L 3.47,23.92 Z" fill="#59472b" stroke="none" /><path d="M 24.30,22.68 L 24.24,22.68 L 23.44,23.09 L 23.41,23.09 L 23.38,23.03 L 23.35,23.03 L 21.63,23.89 L 21.63,23.92 L 22.49,24.37 L 22.55,24.37 L 23.41,23.92 L 24.24,24.33 L 24.30,24.33 Z" fill="#59472b" stroke="none" /><path d="M 8.05,22.55 L 8.05,21.66 L 7.98,21.66 L 7.16,22.08 L 7.19,22.14 Z" fill="#59472b" stroke="none" /><path d="M 21.57,21.22 L 21.57,23.00 L 21.66,23.00 L 23.38,22.14 L 23.38,22.11 Z" fill="#59472b" stroke="none" /><path d="M 16.16,21.18 L 15.27,20.74 L 13.55,21.60 L 13.52,21.66 L 14.31,22.08 L 14.44,22.08 L 15.24,21.66 L 15.30,21.66 L 16.10,22.08 L 16.16,22.08 Z" fill="#59472b" stroke="none" /><path d="M 16.16,18.51 L 15.30,18.07 L 15.17,18.07 L 13.52,18.89 L 13.52,18.96 L 14.31,19.37 L 14.44,19.37 L 15.24,18.96 L 15.33,18.96 L 16.16,19.37 Z" fill="#59472b" stroke="none" /><path d="M 16.19,12.63 L 16.19,12.60 L 15.40,12.21 L 15.33,12.15 L 16.16,11.74 L 16.16,11.67 L 15.33,11.26 L 15.24,11.26 L 13.49,12.15 L 13.49,12.18 L 15.27,13.07 Z" fill="#59472b" stroke="none" /><path d="M 18.89,10.37 L 19.82,10.82 L 21.60,9.92 L 21.60,9.89 L 19.85,9.00 L 19.75,9.00 L 18.93,9.42 L 18.93,9.48 L 19.75,9.89 L 19.69,9.96 L 18.89,10.34 Z" fill="#59472b" stroke="none" /><path d="M 6.27,9.42 L 6.27,9.48 L 7.09,9.89 L 7.19,9.89 L 8.02,9.48 L 8.02,9.42 L 7.19,9.00 L 7.09,9.00 Z" fill="#59472b" stroke="none" /><path d="M 11.71,9.42 L 11.71,9.48 L 12.53,9.89 L 12.63,9.89 L 13.49,9.45 L 14.35,9.89 L 14.41,9.89 L 15.24,9.48 L 15.24,9.42 L 13.52,8.56 L 13.42,8.56 Z" fill="#59472b" stroke="none" /><path d="M 2.61,6.71 L 2.61,6.74 L 3.50,7.19 L 4.42,6.74 L 4.42,6.71 L 3.53,6.27 Z" fill="#59472b" stroke="none" /><path d="M 25.26,6.27 L 25.26,6.30 L 26.08,6.71 L 26.05,6.78 L 25.26,7.16 L 25.26,7.19 L 26.12,7.63 L 26.18,7.63 L 27.90,6.78 L 27.86,6.71 L 26.15,5.85 L 26.05,5.85 Z" fill="#59472b" stroke="none" /><path d="M 11.67,6.74 L 14.31,8.08 L 14.44,8.08 L 15.27,7.67 L 15.27,7.63 L 13.52,6.74 L 13.58,6.68 L 14.35,6.30 L 14.41,6.30 L 15.30,6.74 L 16.19,6.30 L 16.19,6.27 L 15.30,5.82 L 14.41,6.27 L 14.35,6.27 L 13.46,5.82 L 11.67,6.71 Z" fill="#59472b" stroke="none" /><path d="M 5.34,6.27 L 5.34,6.30 L 6.17,6.71 L 6.14,6.78 L 5.34,7.16 L 5.34,7.19 L 6.20,7.63 L 6.27,7.63 L 7.13,7.19 L 8.02,7.63 L 8.08,7.63 L 8.94,7.19 L 8.94,7.16 L 6.27,5.82 L 6.20,5.82 Z" fill="#59472b" stroke="none" /><path d="M 22.49,5.79 L 21.66,5.38 L 21.60,5.38 L 19.82,6.27 L 19.82,6.30 L 20.64,6.71 L 20.61,6.78 L 19.82,7.16 L 19.82,7.19 L 20.68,7.63 L 20.74,7.63 L 22.52,6.74 L 22.52,6.71 L 21.73,6.33 L 21.66,6.27 L 22.49,5.85 Z" fill="#59472b" stroke="none" /><path d="M 18.04,3.53 L 18.04,3.59 L 18.86,4.01 L 18.96,4.01 L 19.82,3.56 L 20.68,4.01 L 20.77,4.01 L 21.57,3.59 L 21.57,3.56 L 19.79,2.67 Z" fill="#59472b" stroke="none" /><path d="M 13.46,3.09 L 12.63,2.67 L 12.50,2.67 L 10.78,3.53 L 10.78,3.59 L 11.61,4.01 L 11.55,4.07 L 10.78,4.45 L 10.72,4.45 L 9.96,4.07 L 9.89,4.01 L 10.72,3.59 L 10.72,3.53 L 9.89,3.12 L 9.80,3.12 L 8.08,3.98 L 8.05,4.04 L 9.83,4.93 L 10.72,4.49 L 10.78,4.49 L 11.67,4.93 L 13.46,4.04 L 13.42,3.98 L 12.60,3.56 L 13.42,3.15 Z" fill="#59472b" stroke="none" /><path d="M 15.30,3.12 L 16.16,3.56 L 16.22,3.56 L 18.83,2.26 L 18.83,2.19 L 18.00,1.78 L 17.91,1.78 L 17.08,2.19 L 16.22,1.75 L 16.16,1.75 L 15.30,2.19 L 15.30,2.23 L 16.13,2.64 L 16.10,2.70 L 15.30,3.09 Z" fill="#59472b" stroke="none" /><path d="M 21.57,26.59 L 21.57,26.66 L 21.60,26.66 L 21.60,26.59 Z" fill="#655133" stroke="none" /><path d="M 20.68,26.18 L 20.68,26.91 L 20.71,26.91 L 20.71,26.18 Z" fill="#655133" stroke="none" /><path d="M 2.64,25.26 L 2.64,25.29 L 3.47,25.70 L 3.59,25.70 L 4.42,25.29 L 4.42,25.26 L 3.53,24.81 Z" fill="#655133" stroke="none" /><path d="M 15.87,24.65 L 15.33,24.37 L 15.24,24.37 L 14.41,24.78 L 14.41,24.84 L 15.17,25.22 L 15.24,25.22 L 15.24,25.00 L 15.27,24.97 L 15.87,24.68 Z" fill="#655133" stroke="none" /><path d="M 12.56,12.60 L 12.56,12.63 L 13.46,13.07 L 14.38,12.63 L 14.38,12.60 L 13.49,12.15 Z" fill="#655133" stroke="none" /><path d="M 13.49,6.71 L 13.52,6.78 L 14.35,7.19 L 14.41,7.19 L 15.27,6.74 L 15.27,6.71 L 14.44,6.30 L 14.31,6.30 Z" fill="#655133" stroke="none" /><path d="M 9.86,4.01 L 9.86,4.04 L 10.69,4.45 L 10.82,4.45 L 11.64,4.04 L 11.61,3.98 L 10.78,3.56 L 10.72,3.56 Z" fill="#655133" stroke="none" /></svg>