<svg height="32" width="32" viewBox="0 0 32 32"><defs /><path d="M 8.75,29.63 L 8.67,29.63 L 6.61,30.68 L 6.61,31.96 L 6.69,31.96 L 8.75,30.91 Z" fill="#251c1a" stroke="none" /><path d="M 13.18,27.14 L 12.09,27.68 L 12.09,30.33 L 12.17,30.33 L 13.18,29.82 Z" fill="#251c1a" stroke="none" /><path d="M 10.96,27.14 L 10.96,29.78 L 11.00,29.78 L 11.00,27.14 Z" fill="#251c1a" stroke="none" /><path d="M 18.70,25.74 L 15.40,27.37 L 15.40,28.70 L 18.70,27.06 Z" fill="#251c1a" stroke="none" /><path d="M 20.88,22.16 L 20.88,24.85 L 20.92,24.85 L 22.05,24.26 L 22.05,22.98 L 21.97,22.98 L 20.96,23.48 L 20.92,23.45 L 20.92,22.16 Z" fill="#251c1a" stroke="none" /><path d="M 24.18,21.89 L 23.13,22.40 L 23.13,23.72 L 24.18,23.21 Z" fill="#251c1a" stroke="none" /><path d="M 9.88,18.20 L 6.65,19.79 L 6.61,19.83 L 6.61,21.19 L 9.84,19.60 L 9.88,19.56 Z" fill="#251c1a" stroke="none" /><path d="M 13.18,17.69 L 13.10,17.69 L 12.09,18.20 L 12.09,20.92 L 13.18,20.37 Z" fill="#251c1a" stroke="none" /><path d="M 10.96,17.65 L 10.96,20.37 L 11.00,20.37 L 11.00,17.65 Z" fill="#251c1a" stroke="none" /><path d="M 18.70,14.93 L 18.62,14.93 L 17.65,15.44 L 17.61,15.40 L 17.61,14.11 L 17.54,14.11 L 16.52,14.62 L 16.49,14.66 L 16.49,15.98 L 16.41,16.06 L 15.40,16.56 L 15.40,17.89 L 15.48,17.89 L 18.66,16.29 L 18.70,16.25 Z" fill="#251c1a" stroke="none" /><path d="M 22.05,12.13 L 21.97,12.13 L 20.88,12.68 L 20.88,14.04 L 20.96,14.04 L 22.05,13.49 Z" fill="#251c1a" stroke="none" /><path d="M 24.18,11.04 L 23.13,11.55 L 23.13,12.91 L 23.21,12.91 L 24.18,12.40 Z" fill="#251c1a" stroke="none" /><path d="M 17.61,6.03 L 16.49,6.57 L 16.49,7.85 L 16.56,7.85 L 17.61,7.31 Z" fill="#251c1a" stroke="none" /><path d="M 10.96,28.50 L 8.75,29.59 L 8.75,30.91 L 10.96,29.82 Z" fill="#29201c" stroke="none" /><path d="M 13.10,25.82 L 12.09,26.32 L 12.09,27.68 L 13.10,27.18 L 13.18,27.22 L 13.18,29.78 L 13.26,29.78 L 15.40,28.70 L 15.40,27.41 L 15.32,27.41 L 14.31,27.92 L 14.27,27.88 L 14.27,26.60 L 13.22,27.10 L 13.18,27.06 L 13.18,25.82 Z" fill="#29201c" stroke="none" /><path d="M 10.96,25.78 L 10.96,27.14 L 11.00,27.14 L 11.00,25.78 Z" fill="#29201c" stroke="none" /><path d="M 20.88,24.65 L 18.70,25.74 L 18.70,27.02 L 18.78,27.02 L 20.88,25.97 Z" fill="#29201c" stroke="none" /><path d="M 23.13,22.43 L 23.06,22.43 L 22.05,22.94 L 22.05,24.26 L 23.13,23.72 Z" fill="#29201c" stroke="none" /><path d="M 20.88,20.84 L 20.88,22.16 L 20.92,22.16 L 20.92,20.84 Z" fill="#29201c" stroke="none" /><path d="M 13.18,20.37 L 12.09,20.92 L 12.09,22.28 L 13.18,21.74 Z" fill="#29201c" stroke="none" /><path d="M 10.96,20.37 L 10.96,21.70 L 11.00,21.70 L 11.00,20.37 Z" fill="#29201c" stroke="none" /><path d="M 7.66,17.96 L 6.61,18.47 L 6.61,19.83 L 7.66,19.32 Z" fill="#29201c" stroke="none" /><path d="M 10.96,17.65 L 9.88,18.20 L 9.88,19.56 L 10.96,19.01 Z" fill="#29201c" stroke="none" /><path d="M 20.88,13.84 L 20.80,13.84 L 18.70,14.89 L 18.70,16.25 L 20.80,15.20 L 20.88,15.24 L 20.88,15.40 L 20.92,15.40 L 20.92,14.04 L 20.88,14.00 Z" fill="#29201c" stroke="none" /><path d="M 17.61,12.75 L 17.54,12.75 L 16.49,13.30 L 16.49,14.62 L 16.41,14.70 L 15.40,15.20 L 15.40,16.52 L 15.32,16.60 L 13.18,17.65 L 13.18,19.01 L 15.40,17.92 L 15.40,16.60 L 15.48,16.52 L 16.49,16.02 L 16.49,14.70 L 16.56,14.62 L 17.61,14.11 Z" fill="#29201c" stroke="none" /><path d="M 23.13,11.59 L 23.06,11.59 L 22.05,12.09 L 22.05,13.45 L 22.12,13.45 L 23.13,12.95 Z" fill="#29201c" stroke="none" /><path d="M 17.61,7.31 L 16.49,7.85 L 16.49,9.22 L 16.56,9.22 L 17.61,8.67 Z" fill="#29201c" stroke="none" /><path d="M 11.00,21.70 L 10.96,21.70 L 10.96,25.78 L 9.88,26.32 L 9.88,27.65 L 9.80,27.72 L 6.61,29.32 L 6.61,30.68 L 10.96,28.50 L 10.96,25.82 L 11.00,25.78 Z" fill="#32251c" stroke="none" /><path d="M 24.18,20.53 L 20.96,22.12 L 20.92,22.16 L 20.92,23.25 L 20.88,23.29 L 14.35,26.56 L 14.27,26.52 L 14.27,25.27 L 14.19,25.27 L 13.22,25.78 L 13.18,25.74 L 13.18,21.74 L 13.14,21.74 L 12.09,22.28 L 12.09,26.32 L 12.17,26.32 L 13.14,25.82 L 13.18,25.86 L 13.18,27.14 L 14.23,26.63 L 14.27,26.67 L 14.27,27.96 L 14.31,27.96 L 20.84,24.69 L 20.88,24.65 L 20.88,23.56 L 20.92,23.52 L 24.18,21.89 Z" fill="#32251c" stroke="none" /><path d="M 20.88,15.40 L 20.88,20.84 L 20.92,20.84 L 20.92,15.40 Z" fill="#32251c" stroke="none" /><path d="M 7.58,13.96 L 6.61,14.46 L 6.61,18.47 L 6.69,18.47 L 7.62,18.00 L 7.66,18.04 L 7.66,19.29 L 7.74,19.29 L 11.00,17.65 L 11.00,16.29 L 7.70,17.92 L 7.66,17.89 L 7.66,13.96 Z" fill="#32251c" stroke="none" /><path d="M 17.61,8.67 L 16.49,9.22 L 16.49,13.26 L 16.41,13.34 L 15.40,13.84 L 15.40,15.16 L 15.32,15.24 L 14.31,15.75 L 14.27,15.71 L 14.27,14.43 L 14.19,14.43 L 13.18,14.93 L 13.18,16.29 L 12.09,16.84 L 12.09,18.20 L 12.17,18.20 L 15.36,16.60 L 15.40,16.56 L 15.40,15.24 L 15.48,15.16 L 16.49,14.66 L 16.49,13.34 L 16.56,13.26 L 17.61,12.75 Z" fill="#32251c" stroke="none" /><path d="M 24.18,8.36 L 24.11,8.36 L 23.13,8.87 L 23.13,10.19 L 23.06,10.26 L 20.88,11.35 L 20.88,12.44 L 20.84,12.48 L 17.61,14.08 L 17.61,15.44 L 17.69,15.44 L 20.88,13.84 L 20.88,12.71 L 20.92,12.68 L 24.18,11.04 Z" fill="#32251c" stroke="none" /><path d="M 15.40,24.69 L 14.27,25.23 L 14.27,26.60 L 15.40,26.05 Z" fill="#37291f" stroke="none" /><path d="M 17.61,23.60 L 17.54,23.60 L 16.49,24.15 L 16.49,25.47 L 16.56,25.47 L 17.61,24.92 Z" fill="#37291f" stroke="none" /><path d="M 10.96,23.10 L 10.89,23.10 L 9.88,23.60 L 9.88,26.32 L 9.84,26.36 L 8.79,26.87 L 8.75,26.83 L 8.75,25.55 L 7.66,26.09 L 7.66,27.45 L 8.71,26.95 L 8.75,26.98 L 8.75,28.23 L 8.83,28.23 L 9.88,27.68 L 9.88,26.36 L 10.96,25.82 Z" fill="#37291f" stroke="none" /><path d="M 15.40,21.97 L 14.27,22.51 L 14.27,23.87 L 14.35,23.87 L 15.40,23.33 Z" fill="#37291f" stroke="none" /><path d="M 23.13,19.71 L 20.92,20.80 L 20.92,21.93 L 19.79,22.47 L 19.79,23.83 L 20.88,23.29 L 20.88,22.20 L 20.92,22.16 L 23.13,21.07 Z" fill="#37291f" stroke="none" /><path d="M 10.96,19.01 L 9.88,19.56 L 9.88,20.88 L 9.80,20.96 L 8.75,21.46 L 8.75,22.82 L 9.88,22.28 L 9.88,20.96 L 9.95,20.88 L 10.96,20.37 Z" fill="#37291f" stroke="none" /><path d="M 19.79,18.43 L 18.70,18.97 L 18.70,20.30 L 18.78,20.30 L 19.79,19.79 Z" fill="#37291f" stroke="none" /><path d="M 24.18,16.49 L 24.11,16.49 L 23.13,16.99 L 23.13,18.35 L 24.18,17.85 Z" fill="#37291f" stroke="none" /><path d="M 13.18,14.97 L 13.10,14.97 L 12.09,15.48 L 12.09,16.84 L 12.17,16.84 L 13.18,16.33 Z" fill="#37291f" stroke="none" /><path d="M 10.96,13.61 L 10.89,13.61 L 9.88,14.11 L 9.88,15.48 L 9.84,15.51 L 7.66,16.60 L 7.66,17.96 L 9.88,16.87 L 9.88,15.51 L 9.91,15.48 L 10.93,14.97 L 10.96,15.01 L 10.96,16.29 L 11.00,16.29 L 11.00,14.93 L 10.96,14.89 Z" fill="#37291f" stroke="none" /><path d="M 19.79,11.66 L 19.71,11.66 L 17.61,12.71 L 17.61,14.08 L 17.69,14.08 L 19.79,13.03 Z" fill="#37291f" stroke="none" /><path d="M 16.49,10.61 L 16.41,10.61 L 15.40,11.12 L 15.40,12.48 L 14.27,13.06 L 14.27,15.75 L 14.35,15.75 L 15.40,15.20 L 15.40,13.88 L 15.48,13.80 L 16.49,13.30 Z" fill="#37291f" stroke="none" /><path d="M 14.27,10.34 L 13.18,10.89 L 13.18,12.25 L 14.27,11.70 Z" fill="#37291f" stroke="none" /><path d="M 19.79,8.94 L 18.70,9.49 L 18.70,10.85 L 19.79,10.30 Z" fill="#37291f" stroke="none" /><path d="M 24.18,7.00 L 24.11,7.00 L 23.13,7.50 L 23.13,8.83 L 23.06,8.90 L 22.12,9.37 L 22.05,9.33 L 22.05,8.05 L 20.92,8.59 L 20.92,9.95 L 21.00,9.95 L 22.01,9.45 L 22.05,9.49 L 22.05,10.77 L 23.10,10.26 L 23.13,10.23 L 23.13,8.90 L 23.21,8.83 L 24.18,8.36 Z" fill="#37291f" stroke="none" /><path d="M 8.75,21.50 L 8.67,21.50 L 7.66,22.01 L 7.66,23.33 L 7.58,23.41 L 6.61,23.87 L 6.61,25.23 L 6.69,25.23 L 7.66,24.73 L 7.66,23.41 L 7.74,23.33 L 8.75,22.82 Z" fill="#3b2d20" stroke="none" /><path d="M 10.96,20.37 L 9.88,20.92 L 9.88,23.60 L 8.75,24.18 L 8.75,26.87 L 8.67,26.95 L 7.70,27.41 L 7.66,27.37 L 7.66,26.09 L 6.61,26.60 L 6.61,29.32 L 8.75,28.27 L 8.75,26.95 L 8.83,26.87 L 9.88,26.36 L 9.88,23.64 L 10.96,23.10 Z" fill="#3b2d20" stroke="none" /><path d="M 18.70,18.97 L 17.61,19.52 L 17.61,20.84 L 17.69,20.84 L 18.70,20.34 Z" fill="#3b2d20" stroke="none" /><path d="M 24.18,13.76 L 23.13,14.27 L 23.13,15.63 L 24.18,15.13 Z" fill="#3b2d20" stroke="none" /><path d="M 22.05,13.49 L 21.97,13.49 L 20.96,14.00 L 20.92,14.04 L 20.92,15.13 L 19.79,15.71 L 19.79,21.11 L 19.75,21.15 L 16.52,22.75 L 16.49,22.71 L 16.49,20.10 L 16.41,20.10 L 15.44,20.61 L 15.40,20.57 L 15.40,19.29 L 15.32,19.29 L 14.31,19.79 L 14.27,19.75 L 14.27,18.47 L 13.18,19.01 L 13.18,20.37 L 14.19,19.87 L 14.27,19.91 L 14.27,21.15 L 14.19,21.23 L 13.18,21.74 L 13.18,23.06 L 13.26,23.06 L 15.32,22.01 L 15.40,22.05 L 15.40,23.29 L 15.32,23.37 L 13.18,24.42 L 13.18,25.78 L 13.26,25.78 L 15.36,24.73 L 15.40,24.77 L 15.40,26.01 L 15.48,26.01 L 16.49,25.51 L 16.49,24.18 L 16.56,24.11 L 17.57,23.60 L 17.61,23.64 L 17.61,24.92 L 19.75,23.87 L 19.79,23.83 L 19.79,22.51 L 20.88,21.97 L 20.88,20.84 L 24.18,19.21 L 24.18,17.85 L 24.11,17.85 L 22.12,18.86 L 22.05,18.82 L 22.05,16.17 L 20.96,16.72 L 20.88,16.68 L 20.88,15.44 L 22.05,14.85 Z" fill="#3b2d20" stroke="none" /><path d="M 10.96,12.29 L 9.88,12.83 L 9.88,14.11 L 8.83,14.66 L 8.75,14.62 L 8.75,13.41 L 8.67,13.41 L 7.66,13.92 L 7.66,16.60 L 9.84,15.51 L 9.88,15.55 L 9.88,16.84 L 9.95,16.84 L 10.96,16.33 L 10.96,14.97 L 11.00,14.93 L 11.00,13.57 L 10.96,13.53 Z" fill="#3b2d20" stroke="none" /><path d="M 16.49,6.61 L 16.41,6.61 L 15.40,7.12 L 15.40,8.40 L 15.36,8.44 L 13.18,9.53 L 13.18,10.85 L 13.10,10.93 L 12.09,11.43 L 12.09,12.79 L 13.10,12.29 L 13.18,12.33 L 13.18,13.57 L 13.10,13.65 L 12.09,14.15 L 12.09,15.48 L 12.17,15.48 L 14.27,14.43 L 14.27,13.10 L 14.35,13.03 L 15.40,12.52 L 15.40,11.16 L 16.49,10.61 Z" fill="#3b2d20" stroke="none" /><path d="M 24.18,5.68 L 22.05,6.73 L 22.05,9.37 L 21.97,9.45 L 20.96,9.95 L 20.88,9.91 L 20.88,8.67 L 20.92,8.63 L 20.92,7.31 L 20.88,7.31 L 20.88,8.36 L 20.80,8.44 L 19.83,8.90 L 19.79,8.87 L 19.79,6.22 L 18.74,6.73 L 18.70,6.69 L 18.70,5.48 L 17.61,6.03 L 17.61,7.31 L 18.62,6.80 L 18.70,6.84 L 18.70,8.09 L 18.62,8.17 L 17.61,8.67 L 17.61,12.71 L 17.69,12.71 L 20.84,11.12 L 20.88,11.16 L 20.88,11.35 L 20.92,11.35 L 22.05,10.77 L 22.05,9.45 L 22.12,9.37 L 23.13,8.87 L 23.13,7.54 L 23.21,7.47 L 24.18,7.00 Z" fill="#3b2d20" stroke="none" /><path d="M 14.27,22.55 L 14.19,22.55 L 13.18,23.06 L 13.18,24.42 L 13.26,24.42 L 14.27,23.91 Z" fill="#3e2f24" stroke="none" /><path d="M 9.88,22.28 L 9.80,22.28 L 7.74,23.33 L 7.66,23.29 L 7.66,22.05 L 7.58,22.05 L 6.61,22.55 L 6.61,23.87 L 6.69,23.87 L 7.58,23.41 L 7.66,23.45 L 7.66,24.69 L 7.58,24.77 L 6.61,25.23 L 6.61,26.60 L 6.69,26.60 L 8.75,25.55 L 8.75,24.22 L 8.83,24.15 L 9.88,23.64 Z" fill="#3e2f24" stroke="none" /><path d="M 19.79,19.79 L 19.71,19.79 L 18.70,20.30 L 18.70,21.66 L 18.78,21.66 L 19.79,21.15 Z" fill="#3e2f24" stroke="none" /><path d="M 9.88,19.56 L 8.75,20.10 L 8.75,21.46 L 8.83,21.46 L 9.88,20.92 Z" fill="#3e2f24" stroke="none" /><path d="M 24.18,19.21 L 24.11,19.21 L 23.13,19.71 L 23.13,21.04 L 23.21,21.04 L 24.18,20.53 Z" fill="#3e2f24" stroke="none" /><path d="M 19.79,15.71 L 18.70,16.25 L 18.70,17.57 L 18.62,17.65 L 15.44,19.25 L 15.40,19.21 L 15.40,17.92 L 15.32,17.92 L 14.31,18.43 L 14.27,18.47 L 14.27,19.79 L 14.19,19.87 L 13.18,20.37 L 13.18,21.74 L 13.22,21.74 L 14.27,21.19 L 14.27,19.87 L 14.35,19.79 L 15.36,19.29 L 15.40,19.32 L 15.40,20.61 L 15.48,20.61 L 16.45,20.10 L 16.49,20.14 L 16.49,22.75 L 16.41,22.82 L 15.40,23.33 L 15.40,24.69 L 16.49,24.15 L 16.49,22.82 L 16.56,22.75 L 17.61,22.24 L 17.61,19.56 L 17.69,19.48 L 19.79,18.43 Z" fill="#3e2f24" stroke="none" /><path d="M 23.13,12.95 L 23.06,12.95 L 22.05,13.45 L 22.05,14.81 L 20.92,15.40 L 20.92,16.72 L 21.00,16.72 L 23.06,15.67 L 23.13,15.71 L 23.13,16.95 L 23.06,17.03 L 22.05,17.54 L 22.05,18.90 L 23.13,18.35 L 23.13,17.03 L 23.21,16.95 L 24.18,16.49 L 24.18,15.13 L 24.11,15.13 L 23.21,15.59 L 23.13,15.55 Z" fill="#3e2f24" stroke="none" /><path d="M 9.88,12.83 L 8.75,13.38 L 8.75,14.70 L 9.88,14.15 Z" fill="#3e2f24" stroke="none" /><path d="M 10.96,12.29 L 10.96,13.57 L 11.00,13.57 L 11.00,12.29 Z" fill="#3e2f24" stroke="none" /><path d="M 13.18,12.25 L 12.09,12.79 L 12.09,14.15 L 13.18,13.61 Z" fill="#3e2f24" stroke="none" /><path d="M 20.88,11.12 L 20.80,11.12 L 19.79,11.63 L 19.79,12.99 L 19.87,12.99 L 20.88,12.48 Z" fill="#3e2f24" stroke="none" /><path d="M 15.40,9.80 L 15.32,9.80 L 14.27,10.34 L 14.27,11.70 L 15.40,11.16 Z" fill="#3e2f24" stroke="none" /><path d="M 13.18,9.53 L 12.09,10.07 L 12.09,11.43 L 13.18,10.89 Z" fill="#3e2f24" stroke="none" /><path d="M 15.40,7.15 L 15.32,7.15 L 14.27,7.70 L 14.27,8.98 L 15.40,8.44 Z" fill="#3e2f24" stroke="none" /><path d="M 19.75,4.94 L 18.70,5.48 L 18.70,6.73 L 18.62,6.80 L 17.61,7.31 L 17.61,8.67 L 18.70,8.13 L 18.70,6.80 L 18.78,6.73 L 19.75,6.26 L 19.79,6.30 L 19.79,8.94 L 20.88,8.40 L 20.92,8.44 L 20.92,8.59 L 20.88,8.63 L 20.88,9.99 L 20.92,9.99 L 20.92,8.63 L 22.05,8.05 L 22.05,6.77 L 21.97,6.77 L 20.92,7.31 L 20.88,7.27 L 20.88,5.68 L 19.83,6.18 L 19.79,6.14 L 19.79,4.94 Z" fill="#3e2f24" stroke="none" /><path d="M 18.70,20.34 L 18.62,20.34 L 17.61,20.84 L 17.61,22.20 L 17.69,22.20 L 18.70,21.70 Z" fill="#443526" stroke="none" /><path d="M 8.75,20.14 L 8.67,20.14 L 6.61,21.19 L 6.61,22.55 L 8.75,21.50 Z" fill="#443526" stroke="none" /><path d="M 18.70,16.25 L 15.40,17.89 L 15.40,19.25 L 15.48,19.25 L 18.66,17.65 L 18.70,17.61 Z" fill="#443526" stroke="none" /><path d="M 23.13,15.63 L 22.05,16.17 L 22.05,17.54 L 23.13,16.99 Z" fill="#443526" stroke="none" /><path d="M 24.18,12.40 L 23.13,12.91 L 23.13,14.27 L 23.21,14.27 L 24.18,13.76 Z" fill="#443526" stroke="none" /><path d="M 14.27,7.70 L 12.09,8.79 L 12.09,10.07 L 14.27,8.98 Z" fill="#443526" stroke="none" /><path d="M 20.88,4.39 L 19.79,4.94 L 19.79,6.22 L 20.88,5.68 Z" fill="#443526" stroke="none" /><path d="M 2.18,28.50 L 2.18,29.78 L 2.22,29.82 L 5.52,31.46 L 5.52,30.13 L 2.26,28.50 Z" fill="#3c2e2a" stroke="none" /><path d="M 2.18,17.65 L 2.18,19.01 L 5.44,20.65 L 5.52,20.65 L 5.52,19.29 L 4.47,18.78 L 4.39,18.70 L 4.39,17.38 L 3.38,16.87 L 3.30,16.87 L 3.30,18.12 L 3.27,18.16 L 2.26,17.65 Z" fill="#3c2e2a" stroke="none" /><path d="M 7.70,6.61 L 7.70,7.89 L 8.71,8.40 L 8.79,8.40 L 8.79,7.12 L 7.78,6.61 Z" fill="#3c2e2a" stroke="none" /><path d="M 5.52,30.17 L 5.52,31.46 L 6.61,32.00 L 6.61,30.68 L 5.60,30.17 Z" fill="#43342d" stroke="none" /><path d="M 11.00,28.50 L 11.00,29.82 L 12.01,30.33 L 12.09,30.33 L 12.09,29.04 Z" fill="#43342d" stroke="none" /><path d="M 0.00,26.05 L 0.00,28.70 L 2.18,29.78 L 2.18,28.46 L 1.09,27.92 L 1.09,26.56 L 0.08,26.05 Z" fill="#43342d" stroke="none" /><path d="M 5.52,19.32 L 5.52,20.69 L 6.53,21.19 L 6.61,21.19 L 6.61,19.83 L 5.60,19.32 Z" fill="#43342d" stroke="none" /><path d="M 11.00,17.69 L 11.00,19.01 L 12.09,19.56 L 12.09,18.20 L 11.08,17.69 Z" fill="#43342d" stroke="none" /><path d="M 4.39,16.02 L 3.38,15.51 L 3.30,15.51 L 3.30,16.80 L 3.27,16.84 L 2.18,16.29 L 2.18,17.57 L 2.14,17.61 L 0.08,16.56 L 0.00,16.56 L 0.00,17.92 L 2.10,18.97 L 2.18,18.97 L 2.18,17.69 L 2.22,17.65 L 3.30,18.20 L 3.30,16.91 L 3.34,16.87 L 4.32,17.38 L 4.39,17.38 Z" fill="#43342d" stroke="none" /><path d="M 7.70,7.89 L 7.70,9.25 L 8.71,9.76 L 8.79,9.76 L 8.79,8.40 L 7.78,7.89 Z" fill="#43342d" stroke="none" /><path d="M 11.00,27.14 L 11.00,28.50 L 12.09,29.04 L 12.09,27.68 Z" fill="#513c2e" stroke="none" /><path d="M 0.00,24.69 L 0.00,26.05 L 1.09,26.60 L 1.09,27.96 L 6.53,30.68 L 6.61,30.68 L 6.61,29.32 L 1.13,26.60 L 1.09,26.56 L 1.09,25.20 L 0.08,24.69 Z" fill="#513c2e" stroke="none" /><path d="M 4.39,17.42 L 4.39,18.74 L 6.53,19.83 L 6.61,19.83 L 6.61,18.51 L 4.47,17.42 Z" fill="#513c2e" stroke="none" /><path d="M 11.00,16.33 L 11.00,17.69 L 12.01,18.20 L 12.09,18.20 L 12.09,16.84 L 11.08,16.33 Z" fill="#513c2e" stroke="none" /><path d="M 4.39,13.38 L 3.30,12.83 L 3.30,15.44 L 3.27,15.48 L 2.18,14.93 L 2.18,16.21 L 2.14,16.25 L 1.17,15.79 L 1.09,15.71 L 1.09,14.39 L 0.00,13.84 L 0.00,16.56 L 2.10,17.61 L 2.18,17.61 L 2.18,16.37 L 2.22,16.33 L 3.23,16.84 L 3.30,16.84 L 3.30,15.55 L 3.34,15.51 L 4.32,16.02 L 4.39,16.02 Z" fill="#513c2e" stroke="none" /><path d="M 7.70,9.25 L 7.70,10.65 L 8.71,11.16 L 8.79,11.16 L 8.79,9.76 L 7.78,9.25 Z" fill="#513c2e" stroke="none" /><path d="M 3.30,26.32 L 3.30,27.68 L 4.39,28.23 L 4.39,26.87 Z" fill="#5a4233" stroke="none" /><path d="M 11.00,25.82 L 11.00,27.14 L 12.09,27.68 L 12.09,26.32 L 11.08,25.82 Z" fill="#5a4233" stroke="none" /><path d="M 1.09,25.23 L 1.09,26.60 L 2.10,27.10 L 2.18,27.10 L 2.18,25.74 L 1.17,25.23 Z" fill="#5a4233" stroke="none" /><path d="M 5.52,23.37 L 5.52,24.73 L 6.61,25.27 L 6.61,23.91 Z" fill="#5a4233" stroke="none" /><path d="M 1.09,22.51 L 1.09,23.87 L 2.18,24.42 L 2.18,23.06 Z" fill="#5a4233" stroke="none" /><path d="M 4.39,16.06 L 4.39,17.42 L 6.61,18.51 L 6.61,17.15 L 4.47,16.06 Z" fill="#5a4233" stroke="none" /><path d="M 5.52,13.96 L 5.52,15.24 L 6.61,15.79 L 6.61,14.46 L 5.60,13.96 Z" fill="#5a4233" stroke="none" /><path d="M 2.26,12.29 L 2.18,12.29 L 2.18,13.49 L 2.14,13.53 L 1.09,13.03 L 1.09,15.75 L 2.14,16.29 L 2.18,16.29 L 2.18,15.01 L 2.22,14.97 L 3.23,15.48 L 3.30,15.48 L 3.30,12.83 Z" fill="#5a4233" stroke="none" /><path d="M 9.91,11.70 L 9.95,11.78 L 11.00,12.29 L 10.96,12.21 Z" fill="#5a4233" stroke="none" /><path d="M 6.57,10.03 L 6.61,10.11 L 7.62,10.61 L 7.70,10.61 L 7.70,10.58 Z" fill="#5a4233" stroke="none" /><path d="M 4.39,7.58 L 4.39,8.94 L 5.48,9.49 L 5.48,8.13 Z" fill="#5a4233" stroke="none" /><path d="M 4.39,22.82 L 4.39,24.18 L 5.52,24.73 L 5.52,23.37 L 4.47,22.82 Z" fill="#604833" stroke="none" /><path d="M 11.00,19.01 L 11.00,25.82 L 12.01,26.32 L 12.09,26.32 L 12.09,19.56 Z" fill="#604833" stroke="none" /><path d="M 0.00,17.92 L 0.00,19.29 L 1.09,19.83 L 1.09,21.07 L 1.05,21.11 L 0.00,20.61 L 0.00,21.97 L 2.10,23.02 L 2.18,23.10 L 2.18,24.34 L 2.14,24.38 L 0.00,23.33 L 0.00,24.69 L 2.18,25.78 L 2.18,27.14 L 3.30,27.68 L 3.30,26.40 L 3.38,26.36 L 4.32,26.83 L 4.39,26.91 L 4.39,28.23 L 4.43,28.27 L 6.53,29.32 L 6.61,29.32 L 6.61,26.63 L 3.30,24.96 L 3.30,22.24 L 2.26,21.74 L 2.18,21.66 L 2.18,20.34 L 1.09,19.79 L 1.09,18.43 L 0.08,17.92 Z" fill="#604833" stroke="none" /><path d="M 4.39,13.38 L 4.39,16.06 L 6.61,17.15 L 6.61,15.79 L 5.60,15.28 L 5.52,15.20 L 5.52,13.92 Z" fill="#604833" stroke="none" /><path d="M 0.00,11.20 L 0.00,13.84 L 1.09,14.39 L 1.09,13.10 L 1.13,13.06 L 2.18,13.57 L 2.18,12.25 L 0.08,11.20 Z" fill="#604833" stroke="none" /><path d="M 8.79,7.15 L 8.79,8.44 L 9.84,8.94 L 9.91,9.02 L 9.91,10.26 L 9.88,10.30 L 8.87,9.80 L 8.79,9.80 L 8.79,11.20 L 9.88,11.74 L 9.99,11.74 L 10.93,12.21 L 11.00,12.29 L 11.00,14.97 L 12.01,15.48 L 12.09,15.48 L 12.09,12.79 L 11.08,12.29 L 11.00,12.21 L 11.00,9.53 L 9.99,9.02 L 9.91,8.94 L 9.91,7.70 L 8.87,7.15 Z" fill="#604833" stroke="none" /><path d="M 3.30,7.04 L 3.30,8.40 L 3.34,8.44 L 4.32,8.90 L 4.43,9.02 L 6.53,10.07 L 6.65,10.07 L 7.62,10.58 L 7.70,10.58 L 7.70,6.57 L 6.57,6.03 L 6.57,7.23 L 6.49,7.27 L 4.39,6.22 L 4.39,7.50 L 4.35,7.54 Z" fill="#604833" stroke="none" /><path d="M 5.52,24.73 L 5.52,26.09 L 6.61,26.63 L 6.61,25.27 Z" fill="#654d3b" stroke="none" /><path d="M 0.00,21.97 L 0.00,23.33 L 1.09,23.87 L 1.09,22.51 Z" fill="#654d3b" stroke="none" /><path d="M 1.09,18.47 L 1.09,19.75 L 1.05,19.79 L 0.08,19.29 L 0.00,19.29 L 0.00,20.61 L 1.09,21.15 L 1.09,19.87 L 1.13,19.83 L 2.14,20.34 L 2.18,20.37 L 2.18,21.70 L 3.30,22.28 L 3.30,24.92 L 3.27,24.96 L 2.18,24.42 L 2.18,25.78 L 3.30,26.32 L 3.30,25.04 L 3.34,25.00 L 4.32,25.51 L 4.39,25.51 L 4.39,22.86 L 4.43,22.82 L 6.61,23.91 L 6.61,21.19 L 5.60,20.69 L 5.52,20.69 L 5.52,21.97 L 5.48,22.01 L 2.22,20.37 L 2.18,20.34 L 2.18,18.97 L 1.17,18.47 Z" fill="#654d3b" stroke="none" /><path d="M 11.00,14.97 L 11.00,16.33 L 12.01,16.84 L 12.09,16.84 L 12.09,15.48 L 11.08,14.97 Z" fill="#654d3b" stroke="none" /><path d="M 3.30,8.40 L 3.30,9.53 L 4.39,8.98 L 4.35,8.90 Z" fill="#654d3b" stroke="none" /><path d="M 5.48,8.13 L 5.48,9.49 L 6.57,10.03 L 6.57,8.67 Z" fill="#654d3b" stroke="none" /><path d="M 9.91,7.70 L 9.91,8.90 L 9.88,8.94 L 8.87,8.44 L 8.79,8.44 L 8.79,9.80 L 9.91,10.34 L 9.91,9.06 L 9.95,9.02 L 10.93,9.49 L 11.00,9.57 L 11.00,12.25 L 12.09,12.79 L 12.09,10.07 L 11.08,9.57 L 11.00,9.49 L 11.00,8.24 Z" fill="#654d3b" stroke="none" /><path d="M 3.30,5.68 L 3.30,7.04 L 4.39,7.58 L 4.39,6.22 Z" fill="#654d3b" stroke="none" /><path d="M 5.48,5.48 L 5.48,6.77 L 6.57,7.31 L 6.57,6.03 Z" fill="#654d3b" stroke="none" /><path d="M 4.39,24.18 L 4.39,25.55 L 5.52,26.09 L 5.52,24.73 L 4.47,24.18 Z" fill="#6e563e" stroke="none" /><path d="M 2.18,19.01 L 2.18,20.37 L 5.44,22.01 L 5.52,22.01 L 5.52,20.65 L 2.26,19.01 Z" fill="#6e563e" stroke="none" /><path d="M 11.00,8.24 L 11.00,9.53 L 12.09,10.07 L 12.09,8.79 Z" fill="#6e563e" stroke="none" /><path d="M 3.30,4.39 L 3.30,5.68 L 5.48,6.77 L 5.48,5.48 Z" fill="#6e563e" stroke="none" /><path d="M 2.22,12.25 L 2.26,12.33 L 3.27,12.83 L 3.34,12.83 L 4.35,12.33 L 4.35,12.29 L 3.27,11.74 Z" fill="#5d4740" stroke="none" /><path d="M 17.57,6.03 L 16.49,5.48 L 14.31,6.57 L 14.31,6.61 L 15.40,7.15 L 17.57,6.07 Z" fill="#5d4740" stroke="none" /><path d="M 8.79,3.81 L 8.83,3.89 L 9.84,4.39 L 8.83,4.90 L 8.79,4.98 L 9.80,5.48 L 9.95,5.48 L 10.93,4.98 L 11.04,4.98 L 12.01,5.48 L 12.17,5.48 L 13.18,4.98 L 13.14,4.90 L 9.95,3.30 L 9.80,3.30 Z" fill="#5d4740" stroke="none" /><path d="M 18.35,3.07 L 18.39,3.15 L 20.84,4.35 L 20.88,4.39 L 20.88,5.09 L 21.00,5.09 L 21.97,4.59 L 21.97,4.55 L 18.70,2.92 Z" fill="#5d4740" stroke="none" /><path d="M 3.27,11.74 L 3.27,11.78 L 4.28,12.29 L 4.43,12.29 L 5.44,11.78 L 5.40,11.70 L 4.39,11.20 L 4.32,11.20 Z" fill="#685045" stroke="none" /><path d="M 16.52,5.48 L 16.52,5.52 L 17.54,6.03 L 17.65,6.03 L 18.66,5.52 L 18.66,5.44 L 17.65,4.94 L 17.57,4.94 Z" fill="#685045" stroke="none" /><path d="M 7.70,5.48 L 7.70,5.52 L 8.71,6.03 L 8.87,6.03 L 9.84,5.52 L 9.91,5.52 L 10.96,6.07 L 12.05,5.52 L 12.13,5.52 L 14.27,6.61 L 15.40,6.07 L 15.40,6.03 L 13.22,4.94 L 12.13,5.48 L 12.05,5.48 L 11.00,4.94 L 9.91,5.48 L 9.84,5.48 L 8.75,4.94 Z" fill="#685045" stroke="none" /><path d="M 20.96,5.09 L 20.96,5.13 L 21.97,5.64 L 21.93,5.72 L 20.96,6.18 L 20.96,6.22 L 22.01,6.77 L 24.15,5.72 L 24.15,5.64 L 22.05,4.59 L 21.93,4.59 Z" fill="#685045" stroke="none" /><path d="M 17.26,2.53 L 17.30,2.61 L 18.31,3.11 L 18.66,2.96 L 18.62,2.88 L 17.61,2.37 Z" fill="#685045" stroke="none" /><path d="M 6.57,2.72 L 6.57,2.76 L 8.75,3.85 L 9.88,3.30 L 9.88,3.27 L 7.70,2.18 Z" fill="#685045" stroke="none" /><path d="M 7.70,10.61 L 6.57,10.07 L 4.39,11.16 L 4.39,11.24 L 5.40,11.74 L 5.52,11.74 L 7.70,10.65 Z" fill="#7d5c47" stroke="none" /><path d="M 6.61,6.03 L 6.61,6.07 L 7.62,6.57 L 7.78,6.57 L 8.75,6.07 L 8.83,6.07 L 9.88,6.61 L 11.00,6.07 L 12.05,6.61 L 11.04,7.12 L 11.04,7.19 L 12.05,7.70 L 12.13,7.70 L 13.18,7.15 L 14.23,7.70 L 14.31,7.70 L 15.36,7.15 L 15.36,7.12 L 12.17,5.52 L 12.01,5.52 L 11.04,6.03 L 10.93,6.03 L 9.95,5.52 L 9.80,5.52 L 8.83,6.03 L 8.75,6.03 L 7.66,5.48 Z" fill="#7d5c47" stroke="none" /><path d="M 20.88,5.09 L 20.88,7.31 L 20.96,7.31 L 22.01,6.77 L 22.01,6.73 L 21.00,6.22 L 21.07,6.14 L 22.05,5.68 L 22.05,5.64 L 20.96,5.09 Z" fill="#7d5c47" stroke="none" /><path d="M 20.88,4.35 L 19.87,3.85 L 19.75,3.85 L 17.65,4.90 L 17.65,4.98 L 18.66,5.48 L 18.74,5.48 L 20.84,4.43 Z" fill="#7d5c47" stroke="none" /><path d="M 5.48,3.27 L 5.52,3.34 L 8.71,4.94 L 8.83,4.94 L 9.84,4.43 L 9.84,4.35 L 6.65,2.76 L 6.49,2.76 Z" fill="#7d5c47" stroke="none" /><path d="M 9.84,12.83 L 8.75,12.29 L 7.66,12.83 L 7.66,12.87 L 8.67,13.38 L 8.83,13.38 L 9.84,12.87 Z" fill="#8a664e" stroke="none" /><path d="M 6.61,11.16 L 6.61,11.24 L 7.62,11.74 L 7.70,11.74 L 8.75,11.20 L 9.88,11.74 L 9.88,11.70 L 7.78,10.65 L 7.62,10.65 Z" fill="#8a664e" stroke="none" /><path d="M 5.44,9.53 L 4.35,8.98 L 3.27,9.53 L 3.27,9.57 L 4.28,10.07 L 4.43,10.07 L 5.44,9.57 Z" fill="#8a664e" stroke="none" /><path d="M 12.13,7.66 L 12.13,7.74 L 13.14,8.24 L 13.22,8.24 L 14.23,7.74 L 14.23,7.66 L 13.22,7.15 L 13.14,7.15 Z" fill="#8a664e" stroke="none" /><path d="M 20.88,6.18 L 20.88,6.22 L 20.92,6.22 L 20.92,6.18 Z" fill="#8a664e" stroke="none" /><path d="M 7.70,6.57 L 7.70,6.61 L 9.88,7.70 L 9.95,7.70 L 12.05,6.65 L 12.05,6.57 L 11.04,6.07 L 10.93,6.07 L 9.95,6.57 L 9.84,6.57 L 8.87,6.07 L 8.71,6.07 Z" fill="#8a664e" stroke="none" /><path d="M 5.48,4.35 L 5.52,4.43 L 7.62,5.48 L 7.74,5.48 L 8.75,4.98 L 8.71,4.90 L 6.61,3.85 L 6.49,3.85 Z" fill="#8a664e" stroke="none" /><path d="M 16.52,3.27 L 16.52,3.30 L 17.61,3.85 L 18.70,3.30 L 18.70,3.27 L 17.69,2.76 L 17.54,2.76 Z" fill="#8a664e" stroke="none" /><path d="M 11.00,1.59 L 11.04,1.67 L 12.05,2.18 L 12.13,2.18 L 13.18,1.63 L 13.18,1.59 L 12.17,1.09 L 12.01,1.09 Z" fill="#8a664e" stroke="none" /><path d="M 7.70,11.70 L 7.70,11.78 L 9.80,12.83 L 9.91,12.83 L 10.96,12.29 L 10.96,12.25 L 9.95,11.74 L 9.88,11.74 L 8.83,11.20 L 8.71,11.20 Z" fill="#93704f" stroke="none" /><path d="M 8.75,13.41 L 8.75,13.38 L 6.69,12.36 L 6.61,12.29 L 7.62,11.78 L 7.62,11.70 L 6.61,11.20 L 6.53,11.20 L 3.34,12.79 L 3.34,12.87 L 4.35,13.38 L 4.43,13.38 L 5.40,12.87 L 5.48,12.87 L 7.62,13.96 Z" fill="#93704f" stroke="none" /><path d="M 6.57,10.07 L 4.39,8.98 L 4.39,9.02 L 5.37,9.49 L 5.40,9.53 L 5.33,9.60 L 4.39,10.07 L 4.32,10.07 L 3.34,9.57 L 3.19,9.57 L 1.09,10.61 L 1.09,10.69 L 2.10,11.20 L 1.09,11.70 L 1.09,11.74 L 2.22,12.29 L 3.23,11.78 L 3.19,11.70 L 2.22,11.24 L 2.18,11.20 L 2.22,11.16 L 3.27,10.65 L 4.32,11.20 L 4.39,11.20 L 6.57,10.11 Z" fill="#93704f" stroke="none" /><path d="M 9.95,7.66 L 9.95,7.74 L 12.05,8.79 L 12.13,8.79 L 13.14,8.28 L 13.14,8.20 L 11.04,7.15 L 10.96,7.15 Z" fill="#93704f" stroke="none" /><path d="M 3.30,4.35 L 3.34,4.43 L 6.53,6.03 L 6.65,6.03 L 7.66,5.52 L 7.62,5.44 L 4.43,3.85 L 4.32,3.85 Z" fill="#93704f" stroke="none" /><path d="M 16.52,2.18 L 14.31,3.27 L 14.31,3.30 L 15.28,3.77 L 15.36,3.85 L 14.35,4.35 L 14.35,4.43 L 15.36,4.94 L 15.28,5.02 L 14.31,5.48 L 14.31,5.52 L 15.32,6.03 L 15.48,6.03 L 16.49,5.52 L 16.45,5.44 L 15.55,5.02 L 15.48,4.94 L 16.52,4.39 L 17.57,4.94 L 17.65,4.94 L 18.70,4.39 L 18.70,4.35 L 16.60,3.30 L 16.64,3.23 L 17.61,2.76 L 17.61,2.72 Z" fill="#93704f" stroke="none" /><path d="M 12.13,2.14 L 12.13,2.22 L 13.14,2.72 L 13.26,2.72 L 14.27,2.22 L 14.27,2.14 L 13.26,1.63 L 13.14,1.63 Z" fill="#93704f" stroke="none" /><path d="M 13.18,0.51 L 12.17,0.00 L 12.01,0.00 L 7.74,2.14 L 7.70,2.22 L 8.71,2.72 L 8.83,2.72 L 13.18,0.54 Z" fill="#93704f" stroke="none" /><path d="M 4.43,13.34 L 4.43,13.41 L 5.44,13.92 L 5.56,13.92 L 6.53,13.41 L 6.53,13.38 L 5.52,12.87 L 5.37,12.87 Z" fill="#9b775b" stroke="none" /><path d="M 6.57,12.29 L 6.57,12.33 L 7.58,12.83 L 7.74,12.83 L 8.75,12.33 L 8.71,12.25 L 7.70,11.74 L 7.62,11.74 Z" fill="#9b775b" stroke="none" /><path d="M 2.18,11.16 L 2.18,11.24 L 3.19,11.74 L 3.30,11.74 L 4.32,11.24 L 4.32,11.16 L 3.30,10.65 L 3.19,10.65 Z" fill="#9b775b" stroke="none" /><path d="M 0.00,11.16 L 0.00,11.20 L 1.01,11.70 L 1.17,11.70 L 2.10,11.24 L 2.10,11.16 L 1.09,10.65 L 1.01,10.65 Z" fill="#9b775b" stroke="none" /><path d="M 17.65,3.81 L 17.69,3.89 L 18.70,4.39 L 19.79,3.85 L 19.79,3.81 L 18.78,3.30 L 18.66,3.30 Z" fill="#9b775b" stroke="none" /><path d="M 4.39,3.81 L 4.43,3.89 L 5.44,4.39 L 6.53,3.85 L 6.53,3.81 L 5.52,3.30 L 5.40,3.30 Z" fill="#9b775b" stroke="none" /><path d="M 8.79,2.72 L 8.79,2.76 L 9.80,3.27 L 9.95,3.27 L 10.93,2.76 L 11.04,2.76 L 14.23,4.35 L 14.27,4.39 L 14.23,4.43 L 13.22,4.94 L 13.22,4.98 L 14.23,5.48 L 14.39,5.48 L 15.36,4.98 L 15.48,4.98 L 16.45,5.48 L 16.56,5.48 L 17.57,4.98 L 17.57,4.90 L 16.56,4.39 L 16.49,4.39 L 15.44,4.94 L 14.35,4.39 L 15.40,3.85 L 15.40,3.81 L 14.43,3.34 L 14.39,3.27 L 16.49,2.22 L 16.45,2.14 L 15.44,1.63 L 15.36,1.63 L 13.22,2.72 L 11.04,1.63 L 10.93,1.63 Z" fill="#9b775b" stroke="none" /><path d="M 12.09,1.05 L 12.09,1.09 L 13.18,1.63 L 14.27,1.09 L 14.27,1.05 L 13.26,0.54 L 13.10,0.54 Z" fill="#9b775b" stroke="none" /><path d="M 5.52,13.92 L 5.52,13.96 L 6.53,14.46 L 6.65,14.46 L 7.62,13.96 L 7.62,13.92 L 6.61,13.41 L 6.49,13.41 Z" fill="#a98460" stroke="none" /><path d="M 9.88,3.27 L 9.88,3.30 L 13.14,4.94 L 13.26,4.94 L 14.27,4.43 L 14.27,4.35 L 11.00,2.72 Z" fill="#a98460" stroke="none" /><path d="M 13.22,1.59 L 13.26,1.67 L 14.27,2.18 L 14.35,2.18 L 15.36,1.67 L 15.36,1.59 L 14.35,1.09 L 14.23,1.09 Z" fill="#a98460" stroke="none" /></svg>