<svg height="32" width="32" viewBox="0 0 32 32"><defs /><path d="M 18.89,28.72 L 18.83,28.72 L 15.27,30.50 L 15.27,31.59 L 18.86,29.81 L 18.89,29.77 Z" fill="#0e0c0c" stroke="none" /><path d="M 23.41,26.47 L 23.35,26.47 L 20.74,27.77 L 20.71,27.80 L 20.71,28.85 L 20.77,28.85 L 23.38,27.55 L 23.41,27.51 Z" fill="#0e0c0c" stroke="none" /><path d="M 28.82,22.65 L 27.93,23.09 L 27.93,24.17 L 27.90,24.21 L 25.22,25.54 L 25.22,26.59 L 25.29,26.59 L 28.82,24.81 Z" fill="#0e0c0c" stroke="none" /><path d="M 28.82,18.23 L 28.76,18.23 L 27.93,18.64 L 27.93,21.98 L 28.82,21.53 Z" fill="#0e0c0c" stroke="none" /><path d="M 28.82,13.77 L 27.93,14.22 L 27.93,16.45 L 28.82,16.00 Z" fill="#0e0c0c" stroke="none" /><path d="M 28.82,7.19 L 28.76,7.19 L 27.93,7.60 L 27.93,13.11 L 28.82,12.66 Z" fill="#0e0c0c" stroke="none" /><path d="M 27.04,20.23 L 26.97,20.23 L 26.15,20.64 L 26.15,21.73 L 26.08,21.79 L 25.22,22.20 L 25.22,23.32 L 25.19,23.35 L 21.60,25.13 L 21.60,26.24 L 21.66,26.24 L 26.15,23.98 L 26.15,22.90 L 26.21,22.84 L 27.04,22.43 Z" fill="#131010" stroke="none" /><path d="M 20.71,27.80 L 18.89,28.69 L 18.89,29.77 L 20.71,28.88 Z" fill="#131011" stroke="none" /><path d="M 15.27,27.20 L 14.41,27.61 L 14.41,32.00 L 14.47,32.00 L 15.27,31.59 Z" fill="#131011" stroke="none" /><path d="M 25.22,25.54 L 23.41,26.43 L 23.41,27.51 L 25.22,26.62 Z" fill="#131011" stroke="none" /><path d="M 15.27,25.00 L 15.20,25.00 L 14.41,25.42 L 14.41,26.53 L 15.27,26.12 Z" fill="#131011" stroke="none" /><path d="M 28.82,21.53 L 27.93,21.98 L 27.93,23.09 L 28.82,22.65 Z" fill="#131011" stroke="none" /><path d="M 28.82,16.00 L 27.93,16.45 L 27.93,18.64 L 27.99,18.64 L 28.82,18.23 Z" fill="#131011" stroke="none" /><path d="M 16.19,13.49 L 15.27,13.93 L 15.27,14.98 L 15.20,15.05 L 14.41,15.43 L 14.41,16.54 L 15.27,16.13 L 15.27,15.05 L 15.33,14.98 L 16.19,14.57 Z" fill="#131011" stroke="none" /><path d="M 28.82,12.66 L 27.93,13.11 L 27.93,14.22 L 28.82,13.77 Z" fill="#131011" stroke="none" /><path d="M 25.22,8.97 L 24.33,9.42 L 24.33,10.47 L 24.40,10.47 L 25.22,10.05 Z" fill="#131011" stroke="none" /><path d="M 27.93,7.63 L 27.86,7.63 L 27.04,8.05 L 27.04,9.13 L 27.93,8.68 Z" fill="#131011" stroke="none" /><path d="M 10.85,29.17 L 10.85,30.25 L 14.35,32.00 L 14.41,32.00 L 14.41,29.84 L 13.55,29.42 L 13.55,30.47 L 13.52,30.50 Z" fill="#171314" stroke="none" /><path d="M 6.30,26.91 L 6.30,27.96 L 6.33,27.99 L 9.03,29.33 L 9.03,28.25 L 6.36,26.91 Z" fill="#171314" stroke="none" /><path d="M 13.55,25.00 L 13.55,28.31 L 14.35,28.72 L 14.41,28.72 L 14.41,25.42 L 13.61,25.00 Z" fill="#171314" stroke="none" /><path d="M 0.89,24.21 L 0.89,25.26 L 0.92,25.29 L 4.42,27.04 L 4.49,27.04 L 4.49,25.99 L 4.45,25.96 L 0.95,24.21 Z" fill="#171314" stroke="none" /><path d="M 13.55,20.55 L 13.55,22.78 L 14.35,23.19 L 14.41,23.19 L 14.41,20.96 Z" fill="#171314" stroke="none" /><path d="M 13.55,13.96 L 13.55,19.44 L 14.35,19.85 L 14.41,19.85 L 14.41,14.38 L 13.61,13.96 Z" fill="#171314" stroke="none" /><path d="M 17.97,26.97 L 17.91,26.97 L 17.08,27.39 L 17.08,28.50 L 17.15,28.50 L 17.97,28.09 Z" fill="#181414" stroke="none" /><path d="M 15.27,26.12 L 15.20,26.12 L 14.41,26.53 L 14.41,27.61 L 14.47,27.61 L 15.27,27.20 Z" fill="#181414" stroke="none" /><path d="M 21.60,25.16 L 21.53,25.16 L 20.71,25.57 L 20.71,26.69 L 20.77,26.69 L 21.60,26.27 Z" fill="#181414" stroke="none" /><path d="M 27.04,22.43 L 26.15,22.87 L 26.15,23.98 L 27.04,23.54 Z" fill="#181414" stroke="none" /><path d="M 27.04,19.12 L 26.97,19.12 L 25.22,20.01 L 25.22,22.20 L 24.33,22.65 L 24.33,23.76 L 24.40,23.76 L 25.22,23.35 L 25.22,22.23 L 26.15,21.76 L 26.15,20.68 L 27.04,20.23 Z" fill="#181414" stroke="none" /><path d="M 15.27,16.13 L 15.20,16.13 L 14.41,16.54 L 14.41,25.42 L 15.27,25.00 Z" fill="#181414" stroke="none" /><path d="M 15.27,13.96 L 15.20,13.96 L 14.41,14.38 L 14.41,15.43 L 14.47,15.43 L 15.27,15.01 Z" fill="#181414" stroke="none" /><path d="M 27.04,12.47 L 26.97,12.47 L 26.15,12.88 L 26.15,15.11 L 27.04,14.66 Z" fill="#181414" stroke="none" /><path d="M 24.33,9.42 L 16.22,13.46 L 16.19,13.49 L 16.19,14.54 L 16.25,14.54 L 24.33,10.50 Z" fill="#181414" stroke="none" /><path d="M 27.04,8.08 L 26.97,8.08 L 25.22,8.97 L 25.22,10.02 L 25.29,10.02 L 27.04,9.13 Z" fill="#181414" stroke="none" /><path d="M 17.08,26.31 L 17.02,26.31 L 16.19,26.72 L 16.19,28.95 L 16.25,28.95 L 17.08,28.53 Z" fill="#171617" stroke="none" /><path d="M 22.52,22.49 L 22.46,22.49 L 20.71,23.38 L 20.71,25.57 L 17.97,26.94 L 17.97,28.06 L 18.04,28.06 L 20.71,26.72 L 20.71,25.61 L 22.52,24.68 Z" fill="#171617" stroke="none" /><path d="M 25.22,20.01 L 23.41,20.90 L 23.41,24.24 L 24.33,23.79 L 24.33,22.68 L 25.22,22.23 Z" fill="#171617" stroke="none" /><path d="M 18.89,19.85 L 17.97,20.29 L 17.97,21.41 L 18.04,21.41 L 18.89,20.96 Z" fill="#171617" stroke="none" /><path d="M 17.08,15.20 L 16.19,15.65 L 16.19,16.76 L 17.08,16.32 Z" fill="#171617" stroke="none" /><path d="M 27.04,14.66 L 26.15,15.11 L 26.15,19.53 L 26.21,19.53 L 27.04,19.12 Z" fill="#171617" stroke="none" /><path d="M 27.04,11.36 L 26.97,11.36 L 26.15,11.77 L 26.15,12.88 L 26.21,12.88 L 27.04,12.47 Z" fill="#171617" stroke="none" /><path d="M 20.71,24.49 L 20.64,24.49 L 19.79,24.94 L 19.79,26.05 L 20.71,25.61 Z" fill="#1a191a" stroke="none" /><path d="M 26.15,17.34 L 25.26,17.78 L 25.22,17.75 L 25.22,16.70 L 25.16,16.70 L 24.33,17.11 L 24.33,18.23 L 23.41,18.70 L 23.41,20.90 L 23.38,20.93 L 22.55,21.34 L 22.52,21.31 L 22.52,20.26 L 22.46,20.26 L 19.79,21.60 L 19.79,23.83 L 19.85,23.83 L 22.49,22.49 L 22.52,22.52 L 22.52,24.68 L 23.41,24.24 L 23.41,20.93 L 25.22,20.01 L 25.22,18.93 L 25.29,18.86 L 26.15,18.45 Z" fill="#1a191a" stroke="none" /><path d="M 17.05,16.32 L 16.19,16.76 L 16.19,17.88 L 17.02,17.46 L 17.08,17.50 L 17.08,18.51 L 16.19,18.96 L 16.19,21.18 L 16.25,21.18 L 17.05,20.77 L 17.08,20.80 L 17.08,21.85 L 17.15,21.85 L 17.97,21.44 L 17.97,20.33 L 18.89,19.85 L 18.89,17.62 L 18.00,18.07 L 17.97,18.04 L 17.97,16.99 L 17.11,17.40 L 17.08,17.37 L 17.08,16.32 Z" fill="#1a191a" stroke="none" /><path d="M 22.52,12.50 L 22.46,12.50 L 21.60,12.95 L 21.60,14.06 L 22.52,13.61 Z" fill="#1a191a" stroke="none" /><path d="M 26.15,11.80 L 26.08,11.80 L 25.22,12.25 L 25.22,15.55 L 25.29,15.55 L 26.15,15.11 Z" fill="#1a191a" stroke="none" /><path d="M 7.22,25.16 L 7.22,26.27 L 11.67,28.50 L 11.74,28.50 L 11.74,27.45 L 11.77,27.42 L 12.56,27.83 L 12.63,27.83 L 12.63,25.64 L 11.77,25.19 L 11.74,25.19 L 11.74,26.24 L 11.71,26.27 L 10.91,25.86 L 10.85,25.86 L 10.85,26.91 L 10.82,26.94 L 7.28,25.16 Z" fill="#1e1a1a" stroke="none" /><path d="M 19.79,23.86 L 19.72,23.86 L 18.93,24.27 L 18.89,24.24 L 18.89,23.19 L 18.83,23.19 L 18.00,23.60 L 17.97,23.63 L 17.97,24.72 L 17.91,24.78 L 17.08,25.19 L 17.08,26.27 L 17.15,26.27 L 17.97,25.86 L 17.97,24.78 L 18.04,24.72 L 18.86,24.30 L 18.89,24.33 L 18.89,25.38 L 19.75,24.97 L 19.79,24.94 Z" fill="#1e1a1a" stroke="none" /><path d="M 19.79,14.98 L 19.72,14.98 L 17.97,15.87 L 17.97,18.07 L 18.04,18.07 L 18.86,17.65 L 18.89,17.69 L 18.89,18.74 L 19.79,18.29 L 19.79,17.21 L 19.85,17.15 L 20.71,16.73 L 20.71,15.62 L 19.82,16.06 L 19.79,16.03 Z" fill="#1e1a1a" stroke="none" /><path d="M 25.22,11.13 L 23.41,12.02 L 23.41,13.14 L 23.48,13.14 L 24.30,12.72 L 24.33,12.76 L 24.33,13.81 L 25.22,13.36 Z" fill="#1e1a1a" stroke="none" /><path d="M 13.55,28.31 L 13.55,29.42 L 14.35,29.84 L 14.41,29.84 L 14.41,28.72 Z" fill="#1f1a1b" stroke="none" /><path d="M 9.03,28.28 L 9.03,29.33 L 10.78,30.22 L 10.85,30.22 L 10.85,29.17 L 9.10,28.28 Z" fill="#1f1a1b" stroke="none" /><path d="M 4.49,25.99 L 4.49,27.07 L 6.30,27.96 L 6.30,26.88 Z" fill="#1f1a1b" stroke="none" /><path d="M 13.55,22.78 L 13.55,25.00 L 14.41,25.42 L 14.41,23.19 Z" fill="#1f1a1b" stroke="none" /><path d="M 0.00,20.42 L 0.00,24.81 L 0.89,25.26 L 0.89,20.87 Z" fill="#1f1a1b" stroke="none" /><path d="M 13.55,19.44 L 13.55,20.55 L 14.35,20.96 L 14.41,20.96 L 14.41,19.85 Z" fill="#1f1a1b" stroke="none" /><path d="M 0.00,18.23 L 0.00,19.34 L 0.83,19.75 L 0.89,19.75 L 0.89,18.64 L 0.06,18.23 Z" fill="#1f1a1b" stroke="none" /><path d="M 12.63,13.49 L 12.63,14.57 L 13.55,15.01 L 13.55,13.93 Z" fill="#1f1a1b" stroke="none" /><path d="M 9.92,12.15 L 9.92,13.20 L 10.78,13.65 L 10.85,13.65 L 10.85,12.60 L 9.99,12.15 Z" fill="#1f1a1b" stroke="none" /><path d="M 0.95,7.63 L 0.89,7.63 L 0.89,8.62 L 0.86,8.65 L 0.00,8.24 L 0.00,9.35 L 0.83,9.77 L 0.89,9.77 L 0.89,8.75 L 0.92,8.72 L 1.78,9.13 L 1.78,8.05 Z" fill="#1f1a1b" stroke="none" /><path d="M 18.89,27.61 L 16.19,28.95 L 16.19,30.06 L 18.89,28.72 Z" fill="#1c1b1c" stroke="none" /><path d="M 22.52,25.80 L 21.60,26.24 L 21.60,27.36 L 22.52,26.91 Z" fill="#1c1b1c" stroke="none" /><path d="M 20.71,23.38 L 19.79,23.83 L 19.79,24.91 L 19.72,24.97 L 17.08,26.27 L 17.08,27.39 L 17.15,27.39 L 19.79,26.05 L 19.79,24.97 L 19.85,24.91 L 20.71,24.49 Z" fill="#1c1b1c" stroke="none" /><path d="M 27.93,23.09 L 27.04,23.54 L 27.04,24.62 L 27.10,24.62 L 27.93,24.21 Z" fill="#1c1b1c" stroke="none" /><path d="M 17.08,20.77 L 17.02,20.77 L 16.19,21.18 L 16.19,23.41 L 17.08,22.97 Z" fill="#1c1b1c" stroke="none" /><path d="M 23.41,19.82 L 23.35,19.82 L 22.55,20.23 L 22.52,20.20 L 22.52,19.15 L 22.49,19.15 L 20.71,20.04 L 20.71,21.15 L 22.49,20.26 L 22.52,20.29 L 22.52,21.34 L 22.58,21.34 L 23.41,20.93 Z" fill="#1c1b1c" stroke="none" /><path d="M 20.71,16.73 L 20.64,16.73 L 19.79,17.18 L 19.79,18.26 L 19.72,18.32 L 18.89,18.74 L 18.89,19.85 L 19.79,19.40 L 19.79,18.32 L 19.85,18.26 L 20.71,17.84 Z" fill="#1c1b1c" stroke="none" /><path d="M 27.93,16.45 L 27.04,16.89 L 27.04,19.09 L 27.10,19.09 L 27.93,18.67 Z" fill="#1c1b1c" stroke="none" /><path d="M 26.15,15.11 L 23.41,16.48 L 23.41,18.70 L 24.30,18.26 L 24.33,18.29 L 24.33,19.34 L 25.16,18.93 L 25.22,18.96 L 25.22,20.01 L 26.15,19.56 L 26.15,18.45 L 26.08,18.45 L 25.29,18.86 L 25.22,18.83 L 25.22,17.81 L 26.15,17.34 Z" fill="#1c1b1c" stroke="none" /><path d="M 16.19,14.57 L 16.13,14.57 L 15.27,15.01 L 15.27,16.10 L 15.33,16.10 L 16.19,15.65 Z" fill="#1c1b1c" stroke="none" /><path d="M 18.89,14.31 L 18.83,14.31 L 17.08,15.20 L 17.08,17.40 L 17.02,17.46 L 16.19,17.88 L 16.19,18.96 L 16.25,18.96 L 17.05,18.54 L 17.08,18.58 L 17.08,19.63 L 17.15,19.63 L 17.97,19.21 L 17.97,18.10 L 17.91,18.10 L 17.11,18.51 L 17.08,18.48 L 17.08,17.46 L 17.15,17.40 L 17.97,16.99 L 17.97,15.90 L 18.04,15.84 L 18.89,15.43 Z" fill="#1c1b1c" stroke="none" /><path d="M 25.22,13.36 L 24.33,13.81 L 24.33,14.89 L 24.40,14.89 L 25.22,14.47 Z" fill="#1c1b1c" stroke="none" /><path d="M 23.41,12.06 L 23.35,12.06 L 22.52,12.47 L 22.52,13.58 L 21.60,14.06 L 21.60,15.17 L 22.52,14.73 L 22.52,13.61 L 23.41,13.17 Z" fill="#1c1b1c" stroke="none" /><path d="M 27.93,12.02 L 27.86,12.02 L 27.04,12.44 L 27.04,15.78 L 27.93,15.33 Z" fill="#1c1b1c" stroke="none" /><path d="M 27.04,10.24 L 26.97,10.24 L 25.22,11.13 L 25.22,12.25 L 27.04,11.36 Z" fill="#1c1b1c" stroke="none" /><path d="M 21.60,26.27 L 21.53,26.27 L 18.93,27.58 L 18.89,27.61 L 18.89,28.69 L 18.96,28.69 L 21.57,27.39 L 21.60,27.36 Z" fill="#1e1d1e" stroke="none" /><path d="M 27.93,18.67 L 27.86,18.67 L 27.04,19.09 L 27.04,23.51 L 26.97,23.57 L 22.55,25.77 L 22.52,25.80 L 22.52,26.88 L 22.58,26.88 L 27.04,24.65 L 27.04,23.57 L 27.10,23.51 L 27.93,23.09 Z" fill="#1e1d1e" stroke="none" /><path d="M 27.93,15.33 L 27.04,15.78 L 27.04,16.89 L 27.93,16.45 Z" fill="#1e1d1e" stroke="none" /><path d="M 24.33,12.69 L 22.52,13.58 L 22.52,14.70 L 21.66,15.14 L 21.60,15.11 L 21.60,12.95 L 18.89,14.28 L 18.89,15.40 L 18.96,15.40 L 19.75,14.98 L 19.79,15.01 L 19.79,16.06 L 18.89,16.51 L 18.89,17.62 L 19.79,17.18 L 19.79,16.10 L 20.68,15.65 L 20.71,15.68 L 20.71,17.81 L 19.79,18.29 L 19.79,19.37 L 19.72,19.44 L 18.89,19.85 L 18.89,20.93 L 18.83,20.99 L 17.08,21.85 L 17.08,22.93 L 17.02,23.00 L 16.19,23.41 L 16.19,24.49 L 16.13,24.56 L 15.27,24.97 L 15.27,26.08 L 15.33,26.08 L 16.13,25.67 L 16.19,25.70 L 16.19,26.72 L 15.27,27.20 L 15.27,30.50 L 15.33,30.50 L 16.19,30.06 L 16.19,26.75 L 17.08,26.31 L 17.08,25.22 L 17.15,25.16 L 17.94,24.78 L 17.97,24.81 L 17.97,25.83 L 18.04,25.83 L 18.86,25.42 L 18.89,25.38 L 18.89,24.30 L 19.79,23.86 L 19.79,21.63 L 20.71,21.15 L 20.71,20.07 L 22.46,19.18 L 22.52,19.21 L 22.52,20.23 L 22.58,20.23 L 23.41,19.82 L 23.41,17.59 L 22.55,18.00 L 22.52,17.97 L 22.52,16.95 L 22.58,16.89 L 25.22,15.59 L 25.22,14.47 L 25.16,14.47 L 24.37,14.89 L 24.33,14.85 Z" fill="#1e1d1e" stroke="none" /><path d="M 25.22,10.05 L 25.16,10.05 L 24.33,10.47 L 24.33,11.58 L 25.22,11.13 Z" fill="#1e1d1e" stroke="none" /><path d="M 27.93,8.68 L 27.04,9.13 L 27.04,12.44 L 27.10,12.44 L 27.93,12.02 Z" fill="#1e1d1e" stroke="none" /><path d="M 9.92,12.12 L 9.92,12.15 L 14.38,14.38 L 14.44,14.38 L 15.27,13.96 L 15.27,13.93 L 10.82,11.71 L 10.75,11.71 Z" fill="#241e1f" stroke="none" /><path d="M 7.25,10.75 L 7.25,10.82 L 8.97,11.67 L 9.10,11.67 L 9.86,11.29 L 9.86,11.23 L 8.14,10.37 L 8.02,10.37 Z" fill="#241e1f" stroke="none" /><path d="M 2.70,8.49 L 2.74,8.56 L 5.34,9.86 L 5.47,9.86 L 6.23,9.48 L 6.23,9.42 L 3.56,8.08 Z" fill="#241e1f" stroke="none" /><path d="M 4.42,5.79 L 3.66,5.41 L 3.53,5.41 L 0.03,7.16 L 0.03,7.19 L 1.72,8.05 L 1.84,8.05 L 2.61,7.67 L 2.61,7.60 L 1.81,7.22 L 1.78,7.19 L 1.84,7.13 L 4.42,5.85 Z" fill="#241e1f" stroke="none" /><path d="M 8.94,3.53 L 8.17,3.15 L 8.05,3.15 L 5.44,4.45 L 5.41,4.52 L 6.27,4.93 L 8.94,3.59 Z" fill="#241e1f" stroke="none" /><path d="M 14.41,0.83 L 13.58,0.41 L 13.52,0.41 L 9.96,2.19 L 9.96,2.26 L 10.72,2.64 L 10.85,2.64 L 14.41,0.86 Z" fill="#241e1f" stroke="none" /><path d="M 11.74,27.42 L 11.74,28.53 L 12.56,28.95 L 12.63,28.95 L 12.63,27.83 L 11.80,27.42 Z" fill="#262020" stroke="none" /><path d="M 6.30,24.68 L 6.30,25.80 L 7.16,26.24 L 7.22,26.24 L 7.22,25.13 Z" fill="#262020" stroke="none" /><path d="M 10.88,23.63 L 10.85,23.63 L 10.85,25.80 L 10.82,25.83 L 9.92,25.38 L 9.92,26.50 L 10.78,26.94 L 10.85,26.94 L 10.85,25.89 L 10.88,25.86 L 11.67,26.27 L 11.74,26.27 L 11.74,25.26 L 11.77,25.22 L 12.63,25.64 L 12.63,24.52 Z" fill="#262020" stroke="none" /><path d="M 2.67,22.87 L 2.67,23.98 L 3.53,24.43 L 3.59,24.43 L 3.59,23.32 Z" fill="#262020" stroke="none" /><path d="M 0.00,19.34 L 0.00,20.42 L 0.89,20.87 L 0.89,19.75 L 0.06,19.34 Z" fill="#262020" stroke="none" /><path d="M 11.74,17.43 L 11.74,19.66 L 12.56,20.07 L 12.63,20.07 L 12.63,17.88 Z" fill="#262020" stroke="none" /><path d="M 10.85,12.60 L 10.85,13.68 L 12.56,14.54 L 12.63,14.54 L 12.63,13.49 Z" fill="#262020" stroke="none" /><path d="M 0.00,9.35 L 0.00,18.23 L 0.83,18.64 L 0.89,18.64 L 0.89,9.77 L 0.06,9.35 Z" fill="#262020" stroke="none" /><path d="M 1.78,8.08 L 1.78,9.13 L 1.81,9.16 L 9.92,13.20 L 9.92,12.12 L 1.84,8.08 Z" fill="#262020" stroke="none" /><path d="M 0.00,7.19 L 0.00,8.24 L 0.89,8.68 L 0.89,7.60 L 0.06,7.19 Z" fill="#262020" stroke="none" /><path d="M 16.19,25.64 L 15.27,26.08 L 15.27,27.20 L 16.19,26.75 Z" fill="#242224" stroke="none" /><path d="M 18.89,22.08 L 18.83,22.08 L 17.97,22.52 L 17.97,23.63 L 18.89,23.19 Z" fill="#242224" stroke="none" /><path d="M 22.49,15.81 L 21.60,16.25 L 21.60,17.37 L 21.66,17.37 L 22.49,16.95 L 22.52,16.99 L 22.52,18.04 L 22.55,18.04 L 23.41,17.59 L 23.41,16.48 L 22.55,16.89 L 22.52,16.86 L 22.52,15.81 Z" fill="#242224" stroke="none" /><path d="M 24.33,10.50 L 24.27,10.50 L 16.19,14.54 L 16.19,15.62 L 16.13,15.68 L 15.27,16.10 L 15.27,24.97 L 15.33,24.97 L 16.19,24.52 L 16.19,15.68 L 16.25,15.62 L 24.30,11.61 L 24.33,11.58 Z" fill="#242224" stroke="none" /><path d="M 27.04,9.13 L 25.22,10.02 L 25.22,11.13 L 27.04,10.24 Z" fill="#242224" stroke="none" /><path d="M 9.03,22.74 L 9.03,26.05 L 9.92,26.50 L 9.92,25.45 L 9.96,25.42 L 10.78,25.83 L 10.85,25.83 L 10.85,23.63 L 9.10,22.74 Z" fill="#262526" stroke="none" /><path d="M 3.59,23.35 L 3.59,24.46 L 6.27,25.80 L 6.30,25.80 L 6.30,24.75 L 6.33,24.72 L 8.05,25.57 L 8.11,25.57 L 8.11,23.38 L 6.36,22.49 L 6.30,22.49 L 6.30,24.62 L 6.27,24.65 L 3.66,23.35 Z" fill="#262526" stroke="none" /><path d="M 1.78,21.31 L 1.78,23.54 L 2.67,23.98 L 2.67,21.76 Z" fill="#262526" stroke="none" /><path d="M 11.74,19.66 L 11.74,24.08 L 12.63,24.52 L 12.63,20.07 L 11.80,19.66 Z" fill="#262526" stroke="none" /><path d="M 3.59,16.70 L 3.59,17.81 L 4.42,18.23 L 4.49,18.23 L 4.49,17.11 L 3.66,16.70 Z" fill="#262526" stroke="none" /><path d="M 11.74,16.32 L 11.74,17.43 L 12.63,17.88 L 12.63,16.76 Z" fill="#262526" stroke="none" /><path d="M 1.78,10.24 L 1.78,11.36 L 2.61,11.77 L 2.67,11.77 L 2.67,10.66 L 1.84,10.24 Z" fill="#262526" stroke="none" /><path d="M 9.86,4.90 L 9.03,4.49 L 8.91,4.49 L 4.45,6.71 L 4.45,6.74 L 5.25,7.13 L 5.31,7.19 L 4.49,7.60 L 4.49,7.67 L 6.20,8.52 L 6.33,8.52 L 7.16,8.11 L 7.13,8.05 L 6.30,7.63 L 7.16,7.19 L 7.16,7.16 L 6.36,6.78 L 6.33,6.71 L 9.83,4.96 Z" fill="#2e2728" stroke="none" /><path d="M 14.44,13.49 L 14.44,13.55 L 15.20,13.93 L 15.33,13.93 L 16.16,13.52 L 16.13,13.46 L 15.36,13.07 L 15.27,13.07 Z" fill="#302829" stroke="none" /><path d="M 17.15,12.18 L 18.00,12.60 L 18.89,12.15 L 18.89,12.12 L 18.07,11.71 L 18.00,11.71 L 17.18,12.12 Z" fill="#302829" stroke="none" /><path d="M 9.03,11.67 L 9.03,11.71 L 9.86,12.12 L 9.99,12.12 L 10.75,11.74 L 10.75,11.67 L 9.92,11.26 L 9.86,11.26 Z" fill="#302829" stroke="none" /><path d="M 5.41,9.86 L 5.41,9.89 L 7.19,10.78 L 7.25,10.78 L 8.08,10.37 L 8.08,10.34 L 6.30,9.45 L 6.23,9.45 Z" fill="#302829" stroke="none" /><path d="M 1.78,8.05 L 1.78,8.08 L 2.67,8.52 L 3.53,8.11 L 3.50,8.05 L 2.67,7.63 L 2.61,7.63 Z" fill="#302829" stroke="none" /><path d="M 27.01,6.30 L 26.18,6.71 L 26.18,6.74 L 26.97,7.13 L 27.04,7.19 L 26.21,7.60 L 26.21,7.67 L 26.97,8.05 L 27.10,8.05 L 27.93,7.63 L 27.90,7.57 L 27.13,7.19 L 27.20,7.13 L 27.93,6.78 L 27.93,6.74 L 27.07,6.30 Z" fill="#302829" stroke="none" /><path d="M 6.23,4.90 L 5.38,4.49 L 3.59,5.38 L 3.59,5.41 L 4.42,5.82 L 4.49,5.82 L 6.20,4.96 Z" fill="#302829" stroke="none" /><path d="M 18.04,2.64 L 18.04,2.67 L 18.93,3.12 L 19.79,2.70 L 19.75,2.64 L 18.93,2.23 L 18.86,2.23 Z" fill="#302829" stroke="none" /><path d="M 10.78,2.64 L 9.96,2.23 L 9.89,2.23 L 8.11,3.12 L 8.11,3.15 L 8.94,3.56 L 9.00,3.56 L 10.78,2.67 Z" fill="#302829" stroke="none" /><path d="M 13.58,0.38 L 13.58,0.45 L 17.08,2.19 L 17.18,2.19 L 17.97,1.78 L 17.97,1.75 L 14.47,0.00 L 14.35,0.00 Z" fill="#302829" stroke="none" /><path d="M 5.41,23.13 L 5.41,24.24 L 6.30,24.68 L 6.30,23.57 Z" fill="#2b292b" stroke="none" /><path d="M 5.41,19.82 L 5.41,22.04 L 8.05,23.35 L 8.11,23.41 L 8.11,25.61 L 9.03,26.05 L 9.03,22.78 L 9.07,22.74 L 10.82,23.63 L 10.85,23.63 L 10.85,22.58 L 10.88,22.55 L 11.74,22.97 L 11.74,21.85 L 10.85,21.41 L 10.85,20.29 L 9.92,19.85 L 9.92,20.90 L 9.89,20.93 L 9.03,20.52 L 9.03,22.68 L 9.00,22.71 L 8.17,22.30 L 8.11,22.23 L 8.11,21.15 L 8.08,21.12 L 5.47,19.82 Z" fill="#2b292b" stroke="none" /><path d="M 10.85,15.87 L 10.85,19.21 L 11.67,19.63 L 11.74,19.63 L 11.74,16.32 Z" fill="#2b292b" stroke="none" /><path d="M 7.22,12.95 L 7.22,14.06 L 8.11,14.50 L 8.11,13.39 Z" fill="#2b292b" stroke="none" /><path d="M 1.78,11.36 L 1.78,12.47 L 2.67,12.91 L 2.67,13.93 L 2.64,13.96 L 1.78,13.55 L 1.78,15.78 L 2.61,16.19 L 2.67,16.25 L 2.67,17.34 L 3.53,17.78 L 3.59,17.78 L 3.59,16.73 L 3.63,16.70 L 4.42,17.11 L 4.49,17.11 L 4.49,14.89 L 3.59,14.44 L 3.59,13.36 L 2.67,12.88 L 2.67,11.77 L 1.84,11.36 Z" fill="#2b292b" stroke="none" /><path d="M 2.67,20.68 L 2.67,21.76 L 2.70,21.79 L 3.53,22.20 L 3.59,22.20 L 3.59,21.18 L 3.66,21.15 L 4.42,21.53 L 4.49,21.60 L 4.49,22.68 L 5.41,23.13 L 5.41,22.01 L 4.55,21.60 L 4.49,21.53 L 4.49,20.45 L 4.45,20.42 L 3.59,20.01 L 3.59,21.06 L 3.56,21.09 L 2.74,20.68 Z" fill="#312a2b" stroke="none" /><path d="M 9.03,13.87 L 9.03,14.98 L 9.92,15.43 L 9.92,16.54 L 10.85,16.99 L 10.85,14.76 L 9.10,13.87 Z" fill="#312a2b" stroke="none" /><path d="M 3.59,12.25 L 3.59,14.47 L 4.49,14.92 L 4.49,16.03 L 5.41,16.48 L 5.41,15.43 L 5.44,15.40 L 6.30,15.81 L 6.30,14.70 L 5.41,14.25 L 5.41,13.14 Z" fill="#312a2b" stroke="none" /><path d="M 12.63,28.98 L 12.63,30.06 L 13.49,30.50 L 13.55,30.50 L 13.55,29.42 L 12.69,28.98 Z" fill="#2e2c2e" stroke="none" /><path d="M 7.22,26.27 L 7.22,27.36 L 8.11,27.80 L 8.11,26.69 L 7.28,26.27 Z" fill="#2e2c2e" stroke="none" /><path d="M 1.78,23.54 L 1.78,24.65 L 4.49,25.99 L 4.49,24.87 Z" fill="#2e2c2e" stroke="none" /><path d="M 12.63,22.33 L 12.63,24.52 L 13.49,24.97 L 13.55,24.97 L 13.55,22.78 L 12.69,22.33 Z" fill="#2e2c2e" stroke="none" /><path d="M 2.67,21.76 L 2.67,22.87 L 2.70,22.90 L 5.38,24.24 L 5.41,24.24 L 5.41,23.19 L 5.44,23.16 L 6.30,23.57 L 6.30,22.46 L 5.47,22.04 L 5.41,22.04 L 5.41,23.06 L 5.34,23.09 Z" fill="#2e2c2e" stroke="none" /><path d="M 6.30,19.15 L 6.30,20.26 L 8.05,21.12 L 8.11,21.18 L 8.11,22.27 L 8.97,22.71 L 9.03,22.71 L 9.03,21.60 L 8.17,21.18 L 8.11,21.12 L 8.11,20.04 Z" fill="#2e2c2e" stroke="none" /><path d="M 9.03,18.29 L 9.03,20.52 L 9.86,20.93 L 9.92,20.99 L 9.92,22.08 L 10.78,22.49 L 10.85,22.55 L 10.85,23.63 L 11.74,24.08 L 11.74,22.97 L 10.91,22.55 L 10.85,22.49 L 10.85,21.47 L 10.88,21.44 L 11.67,21.85 L 11.74,21.85 L 11.74,19.63 Z" fill="#2e2c2e" stroke="none" /><path d="M 12.63,17.88 L 12.63,21.22 L 13.55,21.66 L 13.55,18.32 Z" fill="#2e2c2e" stroke="none" /><path d="M 9.92,16.54 L 9.92,17.62 L 10.78,18.07 L 10.85,18.07 L 10.85,16.99 L 9.99,16.54 Z" fill="#2e2c2e" stroke="none" /><path d="M 1.78,15.78 L 1.78,18.00 L 2.61,18.42 L 2.67,18.42 L 2.67,16.22 Z" fill="#2e2c2e" stroke="none" /><path d="M 5.44,15.36 L 5.41,15.36 L 5.41,16.41 L 5.38,16.45 L 4.55,16.03 L 4.49,16.03 L 4.49,17.15 L 5.38,17.59 L 5.41,17.59 L 5.41,16.54 L 5.44,16.51 L 6.30,16.92 L 6.30,15.81 Z" fill="#2e2c2e" stroke="none" /><path d="M 10.85,14.76 L 10.85,15.87 L 12.63,16.76 L 12.63,15.65 Z" fill="#2e2c2e" stroke="none" /><path d="M 8.14,13.39 L 8.11,13.39 L 8.11,14.44 L 8.08,14.47 L 7.22,14.06 L 7.22,15.17 L 8.08,15.62 L 8.11,15.62 L 8.11,14.57 L 8.14,14.54 L 8.97,14.95 L 9.03,14.95 L 9.03,13.84 Z" fill="#2e2c2e" stroke="none" /><path d="M 2.67,10.69 L 2.67,12.85 L 2.64,12.88 L 1.84,12.47 L 1.78,12.47 L 1.78,13.55 L 2.61,13.96 L 2.67,14.03 L 2.67,15.11 L 3.53,15.55 L 3.59,15.55 L 3.59,14.44 L 2.74,14.03 L 2.67,13.96 L 2.67,12.95 L 2.70,12.91 L 3.59,13.36 L 3.59,12.31 L 3.63,12.28 L 4.49,12.69 L 4.49,11.58 L 2.74,10.69 Z" fill="#2e2c2e" stroke="none" /><path d="M 0.89,8.68 L 0.89,9.80 L 1.72,10.21 L 1.78,10.21 L 1.78,9.13 Z" fill="#2e2c2e" stroke="none" /><path d="M 4.49,24.91 L 4.49,25.99 L 4.52,26.02 L 7.22,27.36 L 7.22,26.24 L 4.55,24.91 Z" fill="#312f31" stroke="none" /><path d="M 13.55,24.97 L 12.63,24.52 L 12.63,28.91 L 12.60,28.95 L 8.17,26.72 L 8.11,26.72 L 8.11,27.80 L 12.63,30.06 L 12.63,29.01 L 12.66,28.98 L 13.55,29.42 Z" fill="#312f31" stroke="none" /><path d="M 12.63,21.22 L 12.63,22.33 L 13.55,22.78 L 13.55,21.66 L 12.69,21.22 Z" fill="#312f31" stroke="none" /><path d="M 12.63,14.57 L 12.63,17.88 L 13.49,18.32 L 13.55,18.32 L 13.55,15.01 L 12.69,14.57 Z" fill="#312f31" stroke="none" /><path d="M 9.92,13.20 L 9.92,14.31 L 10.85,14.76 L 10.85,13.65 Z" fill="#312f31" stroke="none" /><path d="M 4.52,11.58 L 4.49,11.58 L 4.49,12.69 L 5.41,13.17 L 5.41,14.22 L 5.38,14.25 L 4.49,13.81 L 4.49,14.92 L 5.41,15.36 L 5.41,14.31 L 5.44,14.28 L 6.30,14.73 L 6.30,16.86 L 6.23,16.89 L 5.41,16.48 L 5.41,17.53 L 5.38,17.56 L 4.55,17.15 L 4.49,17.15 L 4.49,18.19 L 4.45,18.23 L 2.67,17.34 L 2.67,18.39 L 2.64,18.42 L 1.84,18.00 L 1.78,18.00 L 1.78,19.05 L 1.75,19.09 L 0.95,18.67 L 0.89,18.67 L 0.89,19.79 L 1.78,20.23 L 1.78,21.25 L 1.75,21.28 L 0.89,20.87 L 0.89,24.21 L 1.72,24.62 L 1.78,24.62 L 1.78,21.38 L 1.84,21.34 L 2.67,21.76 L 2.67,20.71 L 2.70,20.68 L 3.53,21.09 L 3.59,21.15 L 3.59,22.23 L 4.42,22.65 L 4.49,22.65 L 4.49,21.63 L 4.52,21.60 L 5.34,22.01 L 5.41,22.01 L 5.41,19.85 L 5.44,19.82 L 6.23,20.23 L 6.30,20.23 L 6.30,19.21 L 6.33,19.18 L 8.08,20.04 L 8.11,20.07 L 8.11,21.15 L 8.97,21.60 L 9.03,21.60 L 9.03,19.40 L 8.11,18.93 L 8.11,17.88 L 8.14,17.84 L 10.78,19.18 L 10.85,19.18 L 10.85,18.07 L 9.99,17.65 L 9.92,17.59 L 9.92,15.40 L 8.14,14.50 L 8.11,14.50 L 8.11,15.55 L 8.08,15.59 L 7.28,15.20 L 7.22,15.14 L 7.22,12.95 Z" fill="#312f31" stroke="none" /><path d="M 17.97,12.56 L 17.11,12.15 L 15.33,13.04 L 15.33,13.07 L 16.13,13.49 L 16.22,13.49 L 17.94,12.63 Z" fill="#3b3131" stroke="none" /><path d="M 10.82,10.78 L 10.85,10.85 L 12.56,11.71 L 12.63,11.71 L 13.49,11.26 L 13.49,11.23 L 11.77,10.37 L 11.64,10.37 Z" fill="#3b3131" stroke="none" /><path d="M 27.04,8.05 L 26.21,7.63 L 26.15,7.63 L 18.07,11.67 L 18.07,11.74 L 18.83,12.12 L 18.96,12.12 L 27.04,8.08 Z" fill="#3b3131" stroke="none" /><path d="M 27.10,7.16 L 27.13,7.22 L 27.90,7.60 L 27.99,7.60 L 28.79,7.19 L 28.79,7.16 L 27.96,6.74 Z" fill="#3b3131" stroke="none" /><path d="M 3.56,7.16 L 3.59,7.22 L 4.42,7.63 L 4.49,7.63 L 5.34,7.19 L 5.34,7.16 L 4.52,6.74 L 4.39,6.74 Z" fill="#3b3131" stroke="none" /><path d="M 7.16,6.27 L 6.27,6.71 L 6.27,6.74 L 7.06,7.13 L 7.13,7.19 L 6.30,7.60 L 6.30,7.67 L 7.13,8.08 L 7.06,8.14 L 6.27,8.52 L 6.27,8.56 L 7.19,9.00 L 8.97,8.11 L 8.97,8.08 L 7.25,7.22 L 7.22,7.19 L 7.28,7.13 L 8.08,6.74 L 8.08,6.71 Z" fill="#3b3131" stroke="none" /><path d="M 8.97,4.45 L 8.97,4.49 L 9.86,4.93 L 10.78,4.49 L 10.78,4.45 L 9.89,4.01 Z" fill="#3b3131" stroke="none" /><path d="M 18.96,3.09 L 18.99,3.15 L 26.12,6.71 L 26.24,6.71 L 27.01,6.33 L 27.01,6.27 L 19.82,2.67 Z" fill="#3b3131" stroke="none" /><path d="M 12.60,2.64 L 12.60,2.67 L 13.49,3.12 L 14.41,2.67 L 14.41,2.64 L 13.52,2.19 Z" fill="#3b3131" stroke="none" /><path d="M 17.15,2.19 L 17.15,2.23 L 17.97,2.64 L 18.10,2.64 L 18.86,2.26 L 18.86,2.19 L 18.04,1.78 L 17.94,1.78 Z" fill="#3b3131" stroke="none" /><path d="M 0.89,19.79 L 0.89,20.87 L 1.78,21.31 L 1.78,20.20 L 0.95,19.79 Z" fill="#3a383a" stroke="none" /><path d="M 3.59,18.89 L 3.59,20.01 L 4.49,20.45 L 4.49,19.34 Z" fill="#3a383a" stroke="none" /><path d="M 7.22,16.29 L 7.22,17.40 L 8.11,17.84 L 8.11,18.96 L 9.03,19.40 L 9.03,18.29 L 8.11,17.81 L 8.11,16.70 L 7.28,16.29 Z" fill="#3a383a" stroke="none" /><path d="M 10.85,13.68 L 10.85,14.76 L 12.63,15.65 L 12.63,14.54 L 10.91,13.68 Z" fill="#3a383a" stroke="none" /><path d="M 12.63,11.67 L 12.63,11.74 L 13.46,12.15 L 13.55,12.15 L 14.38,11.74 L 14.38,11.67 L 13.55,11.26 L 13.46,11.26 Z" fill="#3a383a" stroke="none" /><path d="M 9.92,13.20 L 1.78,9.13 L 1.78,10.18 L 1.75,10.21 L 0.95,9.80 L 0.89,9.80 L 0.89,18.67 L 1.72,19.09 L 1.78,19.09 L 1.78,10.27 L 1.81,10.24 L 9.86,14.28 L 9.92,14.28 Z" fill="#3a383a" stroke="none" /><path d="M 7.19,8.97 L 7.22,9.03 L 10.78,10.82 L 11.71,10.37 L 11.71,10.34 L 8.14,8.56 L 8.02,8.56 Z" fill="#3a383a" stroke="none" /><path d="M 23.48,7.16 L 23.51,7.22 L 24.33,7.63 L 24.40,7.63 L 25.26,7.19 L 25.26,7.16 L 24.43,6.74 L 24.30,6.74 Z" fill="#3a383a" stroke="none" /><path d="M 7.19,6.27 L 7.19,6.30 L 8.02,6.71 L 7.98,6.78 L 7.19,7.16 L 7.19,7.19 L 8.94,8.08 L 9.03,8.08 L 10.75,7.22 L 10.75,7.16 L 8.08,5.82 Z" fill="#3a383a" stroke="none" /><path d="M 17.15,5.82 L 17.15,5.85 L 17.97,6.27 L 18.10,6.27 L 18.93,5.85 L 18.89,5.79 L 18.07,5.38 L 18.00,5.38 Z" fill="#3a383a" stroke="none" /><path d="M 13.49,3.09 L 12.66,2.67 L 12.53,2.67 L 9.92,3.98 L 9.89,4.04 L 10.69,4.42 L 10.72,4.49 L 9.00,5.34 L 9.00,5.41 L 10.72,6.27 L 10.85,6.27 L 12.56,5.41 L 12.56,5.34 L 10.88,4.52 L 10.85,4.45 L 13.46,3.15 Z" fill="#3a383a" stroke="none" /><path d="M 13.52,2.19 L 13.52,2.23 L 15.30,3.12 L 16.22,2.67 L 16.22,2.64 L 14.44,1.75 L 14.38,1.75 Z" fill="#3a383a" stroke="none" /><path d="M 11.71,10.34 L 11.71,10.37 L 14.38,11.71 L 14.44,11.71 L 15.30,11.26 L 15.30,11.23 L 12.63,9.89 Z" fill="#423f42" stroke="none" /><path d="M 18.04,9.89 L 18.04,9.92 L 18.86,10.34 L 18.99,10.34 L 19.82,9.92 L 19.79,9.86 L 18.96,9.45 L 18.89,9.45 Z" fill="#423f42" stroke="none" /><path d="M 18.07,5.34 L 18.07,5.41 L 18.89,5.82 L 18.83,5.88 L 18.04,6.27 L 18.04,6.30 L 19.82,7.19 L 20.71,6.74 L 20.77,6.74 L 21.63,7.19 L 22.52,6.74 L 22.58,6.74 L 23.44,7.19 L 24.37,6.74 L 24.37,6.71 L 23.48,6.27 L 22.58,6.71 L 22.52,6.71 L 21.76,6.33 L 21.69,6.27 L 21.73,6.23 L 22.52,5.85 L 22.52,5.79 L 20.80,4.93 L 20.71,4.93 L 19.85,5.38 L 18.99,4.93 L 18.89,4.93 Z" fill="#423f42" stroke="none" /><path d="M 15.30,5.82 L 13.55,4.93 L 13.46,4.93 L 10.82,6.27 L 10.75,6.27 L 9.00,5.38 L 8.94,5.38 L 8.11,5.79 L 8.08,5.85 L 10.75,7.19 L 9.00,8.08 L 9.00,8.11 L 9.83,8.52 L 9.80,8.59 L 9.00,8.97 L 9.03,9.03 L 9.86,9.45 L 9.92,9.45 L 10.82,9.00 L 11.67,9.45 L 11.74,9.45 L 12.60,9.00 L 12.60,8.97 L 11.77,8.56 L 11.80,8.49 L 12.60,8.11 L 12.60,8.08 L 10.82,7.19 L 11.67,6.74 L 12.56,7.19 L 12.63,7.19 L 15.30,5.85 Z" fill="#423f42" stroke="none" /><path d="M 10.78,4.45 L 10.78,4.49 L 11.67,4.93 L 12.60,4.49 L 12.60,4.45 L 11.71,4.01 Z" fill="#423f42" stroke="none" /><path d="M 14.41,10.78 L 14.41,10.82 L 16.19,11.71 L 16.25,11.71 L 18.00,10.82 L 18.00,10.78 L 17.18,10.37 L 17.05,10.37 L 16.25,10.78 L 16.19,10.78 L 15.33,10.34 Z" fill="#4b4042" stroke="none" /><path d="M 18.04,8.11 L 18.86,8.52 L 18.99,8.52 L 19.79,8.11 L 19.88,8.11 L 20.68,8.52 L 20.80,8.52 L 22.52,7.67 L 22.52,7.60 L 20.80,6.74 L 20.68,6.74 L 19.88,7.16 L 19.79,7.16 L 18.99,6.74 L 18.89,6.74 L 18.07,7.16 L 18.07,7.22 L 18.89,7.63 L 18.07,8.05 Z" fill="#4b4042" stroke="none" /><path d="M 16.19,3.53 L 15.36,3.12 L 15.27,3.12 L 14.44,3.53 L 14.44,3.59 L 15.24,3.98 L 15.27,4.01 L 15.20,4.07 L 14.44,4.45 L 14.38,4.45 L 13.49,4.01 L 12.60,4.45 L 12.60,4.49 L 13.49,4.93 L 14.38,4.49 L 14.44,4.49 L 15.33,4.93 L 16.22,4.49 L 16.22,4.45 L 15.43,4.07 L 15.36,4.01 L 16.19,3.59 Z" fill="#4b4042" stroke="none" /><path d="M 16.19,11.67 L 15.36,11.26 L 15.27,11.26 L 13.55,12.12 L 13.52,12.18 L 14.35,12.60 L 14.47,12.60 L 16.19,11.74 Z" fill="#474447" stroke="none" /><path d="M 9.00,10.78 L 9.03,10.85 L 11.64,12.15 L 11.74,12.15 L 12.56,11.74 L 12.56,11.67 L 9.96,10.37 L 9.83,10.37 Z" fill="#474447" stroke="none" /><path d="M 13.52,10.34 L 13.52,10.37 L 14.35,10.78 L 14.47,10.78 L 15.30,10.37 L 15.27,10.31 L 14.44,9.89 L 14.38,9.89 Z" fill="#474447" stroke="none" /><path d="M 17.97,9.00 L 17.15,9.42 L 17.15,9.48 L 17.97,9.89 L 17.91,9.96 L 17.11,10.34 L 17.11,10.37 L 18.04,10.82 L 18.93,10.37 L 18.93,10.34 L 18.13,9.96 L 18.07,9.89 L 18.89,9.48 L 18.89,9.42 L 18.07,9.00 Z" fill="#474447" stroke="none" /><path d="M 6.30,9.42 L 6.30,9.48 L 8.02,10.34 L 8.14,10.34 L 8.97,9.92 L 8.94,9.86 L 7.22,9.00 L 7.13,9.00 Z" fill="#474447" stroke="none" /><path d="M 8.08,8.52 L 8.08,8.56 L 8.97,9.00 L 9.86,8.56 L 9.92,8.56 L 10.69,8.94 L 10.75,9.00 L 10.72,9.03 L 9.92,9.42 L 9.92,9.48 L 11.64,10.34 L 11.77,10.34 L 14.38,9.03 L 14.38,8.97 L 12.66,8.11 L 12.53,8.11 L 11.74,8.52 L 11.67,8.52 L 10.78,8.08 L 9.92,8.52 L 9.86,8.52 L 8.97,8.08 Z" fill="#474447" stroke="none" /><path d="M 25.29,7.16 L 25.32,7.22 L 26.15,7.63 L 26.21,7.63 L 27.07,7.19 L 27.07,7.16 L 26.24,6.74 L 26.12,6.74 Z" fill="#474447" stroke="none" /><path d="M 10.82,7.16 L 10.82,7.22 L 11.64,7.63 L 11.74,7.63 L 12.56,7.22 L 12.56,7.16 L 11.74,6.74 L 11.64,6.74 Z" fill="#474447" stroke="none" /><path d="M 1.75,7.16 L 1.78,7.22 L 2.61,7.63 L 2.67,7.63 L 3.53,7.19 L 3.53,7.16 L 2.70,6.74 L 2.58,6.74 Z" fill="#474447" stroke="none" /><path d="M 17.97,6.30 L 17.15,6.71 L 17.18,6.78 L 18.00,7.19 L 17.18,7.60 L 17.15,7.67 L 17.97,8.08 L 18.07,8.08 L 18.89,7.67 L 18.89,7.60 L 18.07,7.19 L 18.89,6.78 L 18.93,6.71 L 18.10,6.30 Z" fill="#474447" stroke="none" /><path d="M 15.30,6.71 L 14.47,6.30 L 14.35,6.30 L 12.63,7.16 L 12.63,7.22 L 13.46,7.63 L 13.55,7.63 L 15.27,6.78 Z" fill="#474447" stroke="none" /><path d="M 19.85,6.27 L 19.85,6.30 L 20.68,6.71 L 20.80,6.71 L 21.60,6.30 L 21.69,6.30 L 22.46,6.68 L 22.49,6.71 L 22.46,6.78 L 21.66,7.16 L 21.66,7.19 L 22.52,7.63 L 21.69,8.05 L 21.66,8.11 L 22.49,8.52 L 22.62,8.52 L 24.33,7.67 L 24.33,7.60 L 22.62,6.74 L 22.65,6.68 L 23.44,6.30 L 23.44,6.27 L 22.58,5.82 L 22.52,5.82 L 21.66,6.27 L 20.74,5.82 Z" fill="#474447" stroke="none" /><path d="M 18.04,4.45 L 18.04,4.49 L 19.82,5.38 L 19.88,5.38 L 20.74,4.93 L 20.74,4.90 L 18.96,4.01 Z" fill="#474447" stroke="none" /><path d="M 7.16,4.45 L 7.16,4.49 L 8.05,4.93 L 8.97,4.49 L 8.97,4.45 L 8.08,4.01 Z" fill="#474447" stroke="none" /><path d="M 15.30,3.09 L 14.47,2.67 L 14.35,2.67 L 11.74,3.98 L 11.71,4.04 L 12.50,4.42 L 12.53,4.49 L 11.71,4.90 L 11.71,4.93 L 12.56,5.38 L 12.63,5.38 L 13.46,4.96 L 13.49,4.90 L 12.69,4.52 L 12.66,4.45 L 15.27,3.15 Z" fill="#474447" stroke="none" /><path d="M 14.38,1.72 L 13.55,1.30 L 13.46,1.30 L 10.78,2.64 L 10.78,2.67 L 11.71,3.12 L 14.38,1.78 Z" fill="#474447" stroke="none" /><path d="M 11.71,12.15 L 11.71,12.18 L 14.38,13.52 L 14.44,13.52 L 15.30,13.07 L 15.30,13.04 L 12.63,11.71 L 12.56,11.71 Z" fill="#4c484c" stroke="none" /><path d="M 16.25,11.67 L 16.25,11.74 L 17.08,12.15 L 17.18,12.15 L 18.00,11.74 L 18.00,11.67 L 17.18,11.26 L 17.08,11.26 Z" fill="#4c484c" stroke="none" /><path d="M 8.08,10.34 L 8.08,10.37 L 8.97,10.82 L 9.89,10.37 L 9.89,10.34 L 9.00,9.89 Z" fill="#4c484c" stroke="none" /><path d="M 8.05,4.90 L 7.22,4.49 L 7.09,4.49 L 2.64,6.71 L 2.64,6.74 L 3.44,7.13 L 3.50,7.19 L 2.67,7.60 L 2.67,7.67 L 6.23,9.45 L 6.30,9.45 L 7.13,9.03 L 7.16,8.97 L 3.59,7.19 L 3.66,7.13 L 8.02,4.96 Z" fill="#4c484c" stroke="none" /><path d="M 11.67,3.09 L 10.85,2.67 L 10.72,2.67 L 8.11,3.98 L 8.08,4.04 L 8.91,4.45 L 9.03,4.45 L 11.64,3.15 Z" fill="#4c484c" stroke="none" /><path d="M 13.52,1.27 L 13.55,1.34 L 16.13,2.61 L 16.16,2.64 L 16.13,2.70 L 15.33,3.09 L 15.33,3.12 L 16.19,3.56 L 15.33,4.01 L 14.44,3.56 L 14.38,3.56 L 13.52,4.01 L 13.52,4.04 L 14.35,4.45 L 14.31,4.52 L 13.52,4.90 L 13.52,4.93 L 15.27,5.82 L 15.20,5.88 L 14.41,6.27 L 14.41,6.30 L 15.20,6.68 L 15.27,6.74 L 13.52,7.63 L 12.63,7.19 L 12.56,7.19 L 11.74,7.60 L 11.71,7.67 L 13.49,8.56 L 14.38,8.11 L 14.44,8.11 L 15.20,8.49 L 15.27,8.56 L 12.66,9.86 L 12.63,9.92 L 13.46,10.34 L 13.55,10.34 L 14.41,9.89 L 16.16,10.78 L 16.29,10.78 L 18.00,9.92 L 17.97,9.86 L 17.15,9.45 L 18.00,9.00 L 19.79,9.89 L 19.88,9.89 L 22.55,8.56 L 22.55,8.52 L 21.66,8.08 L 20.77,8.52 L 20.71,8.52 L 19.94,8.14 L 19.88,8.08 L 19.91,8.05 L 20.71,7.67 L 20.71,7.60 L 19.88,7.19 L 19.79,7.19 L 18.96,7.60 L 18.96,7.67 L 19.79,8.08 L 19.72,8.14 L 18.96,8.52 L 18.89,8.52 L 17.24,7.70 L 17.18,7.63 L 17.21,7.60 L 18.00,7.22 L 18.00,7.16 L 17.18,6.74 L 17.24,6.68 L 18.04,6.30 L 18.04,6.27 L 17.24,5.88 L 17.18,5.82 L 18.93,4.93 L 18.93,4.90 L 18.10,4.49 L 18.13,4.42 L 18.93,4.04 L 18.93,4.01 L 18.07,3.56 L 18.89,3.15 L 18.93,3.09 L 18.10,2.67 L 17.97,2.67 L 17.18,3.09 L 17.08,3.09 L 16.29,2.67 L 16.32,2.61 L 17.11,2.23 L 17.08,2.16 L 14.47,0.86 L 14.35,0.86 Z" fill="#4c484c" stroke="none" /><path d="M 17.11,12.15 L 16.25,11.71 L 16.19,11.71 L 14.41,12.60 L 14.41,12.63 L 15.33,13.07 L 17.11,12.18 Z" fill="#595659" stroke="none" /><path d="M 13.52,8.52 L 13.55,8.59 L 14.38,9.00 L 14.44,9.00 L 15.30,8.56 L 16.22,9.00 L 17.11,8.56 L 17.11,8.52 L 16.29,8.11 L 16.16,8.11 L 15.36,8.52 L 15.27,8.52 L 14.47,8.11 L 14.35,8.11 Z" fill="#595659" stroke="none" /><path d="M 15.33,4.90 L 15.36,4.96 L 16.19,5.38 L 16.25,5.38 L 17.11,4.93 L 17.11,4.90 L 16.29,4.49 L 16.16,4.49 Z" fill="#595659" stroke="none" /><path d="M 26.18,6.71 L 18.99,3.12 L 18.89,3.12 L 18.07,3.53 L 18.07,3.59 L 25.16,7.13 L 25.22,7.19 L 17.15,11.23 L 17.15,11.26 L 18.00,11.71 L 18.07,11.71 L 26.15,7.67 L 26.15,7.60 L 25.32,7.19 L 25.38,7.13 L 26.18,6.74 Z" fill="#595659" stroke="none" /><path d="M 16.22,2.64 L 16.22,2.67 L 17.11,3.12 L 18.04,2.67 L 18.04,2.64 L 17.15,2.19 Z" fill="#595659" stroke="none" /></svg>