<svg height="32" width="32" viewBox="0 0 32 32"><defs /><path d="M 6.47,26.22 L 5.40,26.76 L 5.40,28.10 L 6.47,27.56 Z" fill="#0a0506" stroke="none" /><path d="M 8.65,22.47 L 7.58,23.00 L 7.58,24.31 L 7.66,24.31 L 8.65,23.81 Z" fill="#0a0506" stroke="none" /><path d="M 19.48,22.39 L 19.41,22.39 L 18.41,22.89 L 18.41,25.49 L 18.49,25.49 L 19.48,25.00 Z" fill="#0a0506" stroke="none" /><path d="M 3.25,21.40 L 2.14,21.93 L 2.14,23.27 L 2.22,23.27 L 3.25,22.74 Z" fill="#0a0506" stroke="none" /><path d="M 19.48,19.71 L 18.41,20.25 L 18.41,21.59 L 19.48,21.05 Z" fill="#0a0506" stroke="none" /><path d="M 6.47,18.22 L 5.40,18.76 L 5.40,20.06 L 5.47,20.06 L 6.47,19.56 Z" fill="#0a0506" stroke="none" /><path d="M 11.90,17.07 L 9.72,18.14 L 9.72,19.22 L 9.65,19.29 L 7.58,20.33 L 7.58,21.67 L 9.68,20.63 L 9.72,20.59 L 9.72,19.52 L 11.90,18.41 Z" fill="#0a0506" stroke="none" /><path d="M 21.67,15.96 L 20.56,16.50 L 20.56,17.84 L 21.67,17.30 Z" fill="#0a0506" stroke="none" /><path d="M 8.65,14.47 L 8.57,14.47 L 5.44,16.04 L 5.40,16.08 L 5.40,17.42 L 8.65,15.81 Z" fill="#0a0506" stroke="none" /><path d="M 17.30,14.39 L 17.22,14.39 L 15.16,15.43 L 15.16,16.77 L 15.23,16.77 L 17.30,15.73 Z" fill="#0a0506" stroke="none" /><path d="M 21.67,13.28 L 18.41,14.89 L 18.41,16.23 L 18.49,16.23 L 21.63,14.66 L 21.67,14.62 Z" fill="#0a0506" stroke="none" /><path d="M 9.72,8.65 L 5.40,10.79 L 5.40,12.06 L 5.47,12.06 L 9.68,9.95 L 9.72,9.91 Z" fill="#0a0506" stroke="none" /><path d="M 22.74,7.43 L 22.66,7.43 L 20.56,8.50 L 20.56,9.84 L 22.74,8.77 Z" fill="#0a0506" stroke="none" /><path d="M 19.48,6.39 L 19.41,6.39 L 18.41,6.89 L 18.41,8.23 L 18.49,8.23 L 19.48,7.73 Z" fill="#0a0506" stroke="none" /><path d="M 22.74,2.14 L 18.41,4.29 L 18.41,5.55 L 18.49,5.55 L 22.70,3.44 L 22.74,3.41 Z" fill="#0a0506" stroke="none" /><path d="M 9.72,24.61 L 9.65,24.61 L 8.69,25.11 L 8.65,25.07 L 8.65,23.81 L 8.57,23.81 L 7.58,24.31 L 7.58,25.65 L 6.47,26.22 L 6.47,27.56 L 9.72,25.95 Z" fill="#0d0708" stroke="none" /><path d="M 4.33,20.86 L 3.25,21.40 L 3.25,22.70 L 3.18,22.78 L 2.14,23.27 L 2.14,24.61 L 3.25,24.08 L 3.25,22.78 L 3.33,22.70 L 4.33,22.20 Z" fill="#0d0708" stroke="none" /><path d="M 5.40,20.06 L 5.40,22.74 L 5.47,22.74 L 7.50,21.70 L 7.58,21.74 L 7.58,23.00 L 8.65,22.47 L 8.65,21.13 L 7.62,21.63 L 7.58,21.59 L 7.58,20.33 L 6.51,20.86 L 6.47,20.82 L 6.47,19.56 L 6.39,19.56 Z" fill="#0d0708" stroke="none" /><path d="M 21.67,17.30 L 21.59,17.30 L 20.56,17.84 L 20.56,19.14 L 20.48,19.22 L 19.48,19.71 L 19.48,21.01 L 19.41,21.09 L 18.41,21.59 L 18.41,22.89 L 18.49,22.89 L 19.48,22.39 L 19.48,21.09 L 19.56,21.01 L 22.74,19.44 L 22.74,18.11 L 22.66,18.11 L 21.70,18.60 L 21.67,18.56 Z" fill="#0d0708" stroke="none" /><path d="M 6.47,16.88 L 5.40,17.42 L 5.40,18.76 L 6.47,18.22 Z" fill="#0d0708" stroke="none" /><path d="M 16.27,16.23 L 15.20,16.77 L 15.16,16.73 L 15.16,15.46 L 15.08,15.46 L 14.12,15.96 L 14.09,15.92 L 14.09,14.66 L 12.98,15.20 L 12.98,16.50 L 12.90,16.57 L 11.90,17.07 L 11.90,18.37 L 11.83,18.45 L 10.79,18.95 L 10.79,20.29 L 11.90,19.75 L 11.90,18.45 L 11.98,18.37 L 15.12,16.80 L 15.16,16.84 L 15.16,18.11 L 16.27,17.57 Z" fill="#0d0708" stroke="none" /><path d="M 9.72,13.93 L 9.65,13.93 L 8.65,14.43 L 8.65,15.77 L 8.73,15.77 L 9.72,15.27 Z" fill="#0d0708" stroke="none" /><path d="M 23.81,11.14 L 23.73,11.14 L 22.74,11.64 L 22.74,12.71 L 22.66,12.78 L 21.67,13.28 L 21.67,14.58 L 21.59,14.66 L 20.56,15.16 L 20.56,16.50 L 20.63,16.50 L 21.67,15.96 L 21.67,14.66 L 21.74,14.58 L 22.74,14.09 L 22.74,13.01 L 23.81,12.48 Z" fill="#0d0708" stroke="none" /><path d="M 19.48,7.73 L 19.41,7.73 L 18.41,8.23 L 18.41,10.91 L 20.56,9.84 L 20.56,8.50 L 19.52,9.00 L 19.48,8.96 Z" fill="#0d0708" stroke="none" /><path d="M 19.48,5.05 L 19.41,5.05 L 18.41,5.55 L 18.41,6.89 L 18.49,6.89 L 19.48,6.39 Z" fill="#0d0708" stroke="none" /><path d="M 9.72,28.59 L 7.58,29.67 L 7.58,30.93 L 9.72,29.86 Z" fill="#10080a" stroke="none" /><path d="M 3.25,25.68 L 3.25,27.02 L 4.25,27.52 L 4.33,27.52 L 4.33,26.18 L 3.33,25.68 Z" fill="#10080a" stroke="none" /><path d="M 6.47,24.88 L 5.40,25.42 L 5.40,26.76 L 6.47,26.22 Z" fill="#10080a" stroke="none" /><path d="M 16.23,19.18 L 16.23,20.52 L 17.34,21.05 L 17.34,19.71 L 16.31,19.18 Z" fill="#10080a" stroke="none" /><path d="M 3.33,17.68 L 3.25,17.68 L 3.25,19.02 L 4.21,19.48 L 4.25,19.56 L 3.25,20.06 L 3.25,21.40 L 4.33,20.86 L 4.33,18.18 Z" fill="#10080a" stroke="none" /><path d="M 3.02,16.19 L 3.02,16.23 L 5.32,17.38 L 5.40,17.38 L 5.40,16.08 L 5.36,16.04 L 4.33,15.54 Z" fill="#10080a" stroke="none" /><path d="M 12.98,15.23 L 12.90,15.23 L 10.79,16.31 L 10.79,17.61 L 10.87,17.61 L 12.98,16.54 Z" fill="#10080a" stroke="none" /><path d="M 19.48,13.05 L 19.41,13.05 L 18.41,13.55 L 18.41,14.89 L 18.49,14.89 L 19.48,14.39 Z" fill="#10080a" stroke="none" /><path d="M 9.72,12.59 L 8.65,13.13 L 8.65,14.43 L 8.73,14.43 L 9.72,13.93 Z" fill="#10080a" stroke="none" /><path d="M 7.58,12.33 L 6.47,12.86 L 6.47,14.20 L 6.55,14.20 L 7.58,13.67 Z" fill="#10080a" stroke="none" /><path d="M 22.74,11.41 L 21.67,11.94 L 21.67,13.28 L 22.74,12.75 Z" fill="#10080a" stroke="none" /><path d="M 16.23,11.18 L 16.23,12.52 L 17.34,13.05 L 17.34,11.71 L 16.31,11.18 Z" fill="#10080a" stroke="none" /><path d="M 14.09,9.38 L 14.01,9.38 L 11.90,10.45 L 11.90,11.75 L 11.98,11.75 L 14.09,10.68 Z" fill="#10080a" stroke="none" /><path d="M 1.07,8.65 L 1.07,9.91 L 1.11,9.95 L 5.32,12.06 L 5.40,12.06 L 5.40,10.79 L 5.36,10.76 L 1.15,8.65 Z" fill="#10080a" stroke="none" /><path d="M 16.31,8.23 L 16.27,8.27 L 16.27,9.57 L 16.04,9.68 L 16.04,9.76 L 18.33,10.91 L 18.41,10.91 L 18.41,9.57 L 17.38,9.07 L 17.30,9.00 L 17.30,7.77 L 17.22,7.77 Z" fill="#10080a" stroke="none" /><path d="M 23.81,3.18 L 22.74,3.71 L 22.74,5.01 L 22.81,5.01 L 23.81,4.52 Z" fill="#10080a" stroke="none" /><path d="M 14.09,2.14 L 14.09,3.44 L 18.41,5.59 L 18.41,4.29 Z" fill="#10080a" stroke="none" /><path d="M 9.72,27.25 L 5.40,29.40 L 5.40,32.00 L 5.47,32.00 L 7.54,30.97 L 7.58,30.93 L 7.58,29.70 L 7.66,29.63 L 9.72,28.59 Z" fill="#13090b" stroke="none" /><path d="M 7.58,23.00 L 5.40,24.08 L 5.40,25.42 L 6.43,24.92 L 6.47,24.96 L 6.47,26.22 L 7.58,25.68 Z" fill="#13090b" stroke="none" /><path d="M 22.74,20.75 L 19.48,22.35 L 19.48,24.96 L 19.56,24.96 L 22.74,23.35 Z" fill="#13090b" stroke="none" /><path d="M 3.25,20.10 L 3.18,20.10 L 2.14,20.63 L 2.14,21.93 L 2.22,21.93 L 3.25,21.40 Z" fill="#13090b" stroke="none" /><path d="M 20.56,16.54 L 20.48,16.54 L 18.41,17.57 L 18.41,20.25 L 20.56,19.18 Z" fill="#13090b" stroke="none" /><path d="M 10.79,16.31 L 9.80,16.80 L 9.72,16.77 L 9.72,16.61 L 9.65,16.61 L 8.65,17.11 L 8.65,18.41 L 8.57,18.49 L 7.58,18.99 L 7.58,20.33 L 9.72,19.25 L 9.72,18.18 L 10.79,17.65 Z" fill="#13090b" stroke="none" /><path d="M 17.30,13.05 L 15.16,14.12 L 15.16,15.43 L 15.23,15.43 L 17.30,14.39 Z" fill="#13090b" stroke="none" /><path d="M 4.33,12.94 L 4.25,12.94 L 2.14,14.01 L 2.14,16.65 L 4.33,15.58 Z" fill="#13090b" stroke="none" /><path d="M 6.47,12.90 L 6.39,12.90 L 5.40,13.40 L 5.40,16.08 L 6.47,15.54 Z" fill="#13090b" stroke="none" /><path d="M 8.65,11.79 L 7.58,12.33 L 7.58,14.97 L 7.66,14.97 L 8.65,14.47 Z" fill="#13090b" stroke="none" /><path d="M 22.74,10.11 L 22.66,10.11 L 18.45,12.21 L 18.41,12.25 L 18.41,13.55 L 18.49,13.55 L 20.52,12.52 L 20.56,12.56 L 20.56,13.82 L 20.63,13.82 L 21.63,13.32 L 21.67,13.28 L 21.67,11.98 L 21.74,11.90 L 22.74,11.41 Z" fill="#13090b" stroke="none" /><path d="M 16.27,6.97 L 16.19,6.97 L 10.83,9.65 L 10.79,9.68 L 10.79,10.99 L 9.72,11.52 L 9.72,12.86 L 11.90,11.79 L 11.90,10.49 L 11.98,10.41 L 14.05,9.38 L 14.09,9.42 L 14.09,10.68 L 16.27,9.61 Z" fill="#13090b" stroke="none" /><path d="M 22.74,4.75 L 20.56,5.82 L 20.56,7.16 L 19.48,7.69 L 19.48,9.03 L 22.74,7.43 Z" fill="#13090b" stroke="none" /><path d="M 6.47,27.56 L 5.40,28.10 L 5.40,29.40 L 5.47,29.40 L 6.47,28.90 Z" fill="#16090c" stroke="none" /><path d="M 9.72,25.95 L 9.65,25.95 L 7.58,26.99 L 7.58,28.33 L 9.72,27.25 Z" fill="#16090c" stroke="none" /><path d="M 4.33,22.20 L 3.25,22.74 L 3.25,24.04 L 3.33,24.04 L 4.33,23.54 Z" fill="#16090c" stroke="none" /><path d="M 9.72,21.93 L 8.65,22.47 L 8.65,25.11 L 8.73,25.11 L 9.72,24.61 Z" fill="#16090c" stroke="none" /><path d="M 7.58,21.67 L 5.40,22.74 L 5.40,24.08 L 5.47,24.08 L 7.58,23.00 Z" fill="#16090c" stroke="none" /><path d="M 22.74,19.44 L 22.66,19.44 L 21.67,19.94 L 21.67,21.28 L 22.74,20.75 Z" fill="#16090c" stroke="none" /><path d="M 10.79,18.99 L 10.72,18.99 L 9.72,19.48 L 9.72,20.82 L 10.79,20.29 Z" fill="#16090c" stroke="none" /><path d="M 8.65,17.15 L 8.57,17.15 L 7.58,17.65 L 7.58,18.95 L 7.50,19.02 L 6.47,19.52 L 6.47,20.86 L 6.55,20.86 L 7.58,20.33 L 7.58,19.02 L 7.66,18.95 L 8.65,18.45 Z" fill="#16090c" stroke="none" /><path d="M 15.16,16.80 L 15.08,16.80 L 12.98,17.88 L 12.98,19.18 L 13.05,19.18 L 15.16,18.11 Z" fill="#16090c" stroke="none" /><path d="M 20.56,15.20 L 20.48,15.20 L 18.41,16.23 L 18.41,17.57 L 18.49,17.57 L 20.56,16.54 Z" fill="#16090c" stroke="none" /><path d="M 15.16,14.12 L 14.09,14.66 L 14.09,15.96 L 14.16,15.96 L 15.16,15.46 Z" fill="#16090c" stroke="none" /><path d="M 7.58,13.67 L 6.47,14.20 L 6.47,15.54 L 7.58,15.00 Z" fill="#16090c" stroke="none" /><path d="M 20.56,12.52 L 20.48,12.52 L 19.48,13.01 L 19.48,14.35 L 19.56,14.35 L 20.56,13.86 Z" fill="#16090c" stroke="none" /><path d="M 23.81,12.48 L 23.73,12.48 L 22.74,12.98 L 22.74,14.05 L 22.66,14.12 L 21.67,14.62 L 21.67,18.60 L 21.74,18.60 L 22.74,18.11 L 22.74,14.35 L 22.81,14.28 L 23.81,13.78 Z" fill="#16090c" stroke="none" /><path d="M 19.48,10.37 L 18.41,10.91 L 18.41,12.25 L 19.48,11.71 Z" fill="#16090c" stroke="none" /><path d="M 23.81,9.80 L 22.74,10.33 L 22.74,11.64 L 22.81,11.64 L 23.81,11.14 Z" fill="#16090c" stroke="none" /><path d="M 10.79,9.68 L 9.76,10.18 L 9.72,10.22 L 9.72,11.22 L 9.65,11.29 L 8.65,11.79 L 8.65,13.13 L 9.68,12.63 L 9.72,12.59 L 9.72,11.56 L 10.79,11.02 Z" fill="#16090c" stroke="none" /><path d="M 22.74,8.77 L 22.66,8.77 L 21.67,9.26 L 21.67,10.60 L 21.74,10.60 L 22.74,10.11 Z" fill="#16090c" stroke="none" /><path d="M 17.30,6.43 L 16.27,6.93 L 16.27,8.27 L 17.30,7.77 Z" fill="#16090c" stroke="none" /><path d="M 23.81,4.52 L 23.73,4.52 L 22.74,5.01 L 22.74,6.35 L 23.81,5.82 Z" fill="#16090c" stroke="none" /><path d="M 4.33,26.22 L 4.33,27.56 L 5.32,28.06 L 5.40,28.06 L 5.40,26.72 L 4.40,26.22 Z" fill="#150b0d" stroke="none" /><path d="M 1.07,24.08 L 1.07,25.91 L 3.18,26.99 L 3.25,26.99 L 3.25,25.65 L 2.22,25.15 L 2.14,25.07 L 2.14,24.57 L 1.15,24.08 Z" fill="#150b0d" stroke="none" /><path d="M 4.33,20.90 L 4.33,22.20 L 5.40,22.74 L 5.40,21.40 L 4.40,20.90 Z" fill="#150b0d" stroke="none" /><path d="M 1.07,20.10 L 1.07,21.32 L 1.03,21.36 L 0.00,20.86 L 0.00,22.20 L 2.14,23.27 L 2.14,20.59 L 1.15,20.10 Z" fill="#150b0d" stroke="none" /><path d="M 17.34,19.71 L 17.34,21.05 L 18.41,21.59 L 18.41,20.25 Z" fill="#150b0d" stroke="none" /><path d="M 14.09,18.64 L 14.09,19.44 L 16.15,20.48 L 16.23,20.48 L 16.23,19.14 L 15.20,18.64 L 15.16,18.60 L 15.16,18.11 Z" fill="#150b0d" stroke="none" /><path d="M 3.25,16.34 L 3.25,17.68 L 4.25,18.18 L 4.33,18.18 L 4.33,16.84 L 3.33,16.34 Z" fill="#150b0d" stroke="none" /><path d="M 17.30,13.05 L 17.30,15.69 L 18.33,16.23 L 18.41,16.23 L 18.41,14.93 L 17.42,14.43 L 17.34,14.35 L 17.34,13.05 Z" fill="#150b0d" stroke="none" /><path d="M 16.23,9.84 L 16.23,11.18 L 17.34,11.71 L 17.34,10.37 Z" fill="#150b0d" stroke="none" /><path d="M 7.58,16.34 L 7.50,16.34 L 6.47,16.88 L 6.47,19.52 L 6.55,19.52 L 7.58,18.99 Z" fill="#180c0e" stroke="none" /><path d="M 4.33,11.60 L 2.14,12.67 L 2.14,14.01 L 4.33,12.94 Z" fill="#180c0e" stroke="none" /><path d="M 7.58,10.99 L 5.40,12.06 L 5.40,13.40 L 5.47,13.40 L 7.58,12.33 Z" fill="#180c0e" stroke="none" /><path d="M 21.67,9.30 L 21.59,9.30 L 19.48,10.37 L 19.48,11.71 L 21.67,10.64 Z" fill="#180c0e" stroke="none" /><path d="M 10.79,8.38 L 10.72,8.38 L 9.72,8.88 L 9.72,9.88 L 9.65,9.95 L 8.65,10.45 L 8.65,11.79 L 9.68,11.29 L 9.72,11.25 L 9.72,10.26 L 9.80,10.18 L 10.79,9.68 Z" fill="#180c0e" stroke="none" /><path d="M 17.30,5.13 L 17.22,5.13 L 14.09,6.70 L 14.09,8.04 L 17.26,6.47 L 17.30,6.43 Z" fill="#180c0e" stroke="none" /><path d="M 23.81,1.88 L 23.73,1.88 L 22.74,2.37 L 22.74,3.37 L 22.66,3.44 L 20.56,4.48 L 20.56,5.82 L 19.48,6.35 L 19.48,7.69 L 19.56,7.69 L 20.56,7.20 L 20.56,5.86 L 20.59,5.82 L 22.74,4.75 L 22.74,3.75 L 22.81,3.67 L 23.81,3.18 Z" fill="#180c0e" stroke="none" /><path d="M 9.72,14.70 L 9.72,15.77 L 10.79,15.23 L 10.79,15.20 L 9.80,14.70 Z" fill="#190d10" stroke="none" /><path d="M 1.11,8.61 L 1.15,8.69 L 5.36,10.79 L 5.47,10.79 L 6.47,10.30 L 6.43,10.22 L 2.22,8.11 L 2.11,8.11 Z" fill="#190d10" stroke="none" /><path d="M 8.65,7.23 L 8.69,7.31 L 9.68,7.81 L 9.76,7.81 L 10.79,7.27 L 10.79,7.23 L 9.80,6.74 L 9.65,6.74 Z" fill="#190d10" stroke="none" /><path d="M 15.20,2.64 L 15.20,2.72 L 16.19,3.22 L 16.31,3.22 L 17.30,2.72 L 17.26,2.64 L 16.27,2.14 L 16.19,2.14 Z" fill="#190d10" stroke="none" /><path d="M 4.33,24.88 L 4.33,26.22 L 5.32,26.72 L 5.40,26.72 L 5.40,25.42 Z" fill="#1a0d10" stroke="none" /><path d="M 0.00,19.56 L 0.00,20.86 L 1.07,21.40 L 1.07,20.06 L 0.08,19.56 Z" fill="#1a0d10" stroke="none" /><path d="M 17.34,18.41 L 17.34,19.71 L 18.41,20.25 L 18.41,18.91 L 17.42,18.41 Z" fill="#1a0d10" stroke="none" /><path d="M 1.07,17.91 L 1.07,18.99 L 1.15,18.99 L 2.14,18.49 L 2.11,18.41 Z" fill="#1a0d10" stroke="none" /><path d="M 0.00,14.24 L 0.00,15.58 L 2.14,16.65 L 2.14,15.31 Z" fill="#1a0d10" stroke="none" /><path d="M 14.09,11.44 L 14.09,12.48 L 14.16,12.48 L 15.16,11.98 L 15.16,11.94 L 14.16,11.44 Z" fill="#1a0d10" stroke="none" /><path d="M 17.30,7.69 L 17.30,9.03 L 17.34,9.03 L 17.34,7.69 Z" fill="#1a0d10" stroke="none" /><path d="M 7.58,27.02 L 7.50,27.02 L 6.47,27.56 L 6.47,28.86 L 6.55,28.86 L 7.58,28.33 Z" fill="#1b0e11" stroke="none" /><path d="M 9.72,20.59 L 8.65,21.13 L 8.65,22.47 L 9.72,21.93 Z" fill="#1b0e11" stroke="none" /><path d="M 21.67,19.98 L 21.59,19.98 L 19.48,21.05 L 19.48,22.35 L 19.56,22.35 L 21.67,21.28 Z" fill="#1b0e11" stroke="none" /><path d="M 12.98,17.88 L 11.90,18.41 L 11.90,19.71 L 11.98,19.71 L 12.98,19.22 Z" fill="#1b0e11" stroke="none" /><path d="M 17.30,15.73 L 17.22,15.73 L 16.27,16.23 L 16.27,17.53 L 16.34,17.53 L 17.30,17.03 Z" fill="#1b0e11" stroke="none" /><path d="M 9.72,15.27 L 9.65,15.27 L 7.58,16.31 L 7.58,17.65 L 7.66,17.65 L 9.72,16.61 Z" fill="#1b0e11" stroke="none" /><path d="M 8.65,10.45 L 7.58,10.99 L 7.58,12.33 L 8.65,11.79 Z" fill="#1b0e11" stroke="none" /><path d="M 14.09,6.74 L 14.01,6.74 L 10.79,8.34 L 10.79,9.68 L 14.05,8.08 L 14.09,8.04 Z" fill="#1b0e11" stroke="none" /><path d="M 20.56,4.52 L 20.48,4.52 L 19.48,5.01 L 19.48,6.35 L 19.56,6.35 L 20.56,5.86 Z" fill="#1b0e11" stroke="none" /><path d="M 1.07,27.25 L 1.07,29.86 L 5.32,32.00 L 5.40,32.00 L 5.40,30.74 L 4.40,30.24 L 4.33,30.16 L 4.33,28.86 Z" fill="#1f0f12" stroke="none" /><path d="M 4.25,23.54 L 3.25,24.04 L 3.25,25.68 L 4.25,26.18 L 4.33,26.18 L 4.33,24.96 L 4.36,24.92 L 5.40,25.42 L 5.40,24.08 L 4.36,23.54 Z" fill="#1f0f12" stroke="none" /><path d="M 14.09,20.78 L 14.09,23.39 L 18.41,25.53 L 18.41,24.27 L 17.42,23.77 L 17.34,23.69 L 17.34,22.39 L 14.16,20.78 Z" fill="#1f0f12" stroke="none" /><path d="M 17.26,17.03 L 16.23,17.57 L 16.23,19.18 L 17.34,19.71 L 17.34,18.45 L 17.38,18.41 L 18.33,18.91 L 18.41,18.91 L 18.41,17.57 L 17.34,17.03 Z" fill="#1f0f12" stroke="none" /><path d="M 1.07,16.57 L 1.07,17.91 L 3.18,18.99 L 3.25,18.99 L 3.25,17.65 Z" fill="#1f0f12" stroke="none" /><path d="M 0.00,12.94 L 0.00,14.24 L 2.14,15.31 L 2.14,13.97 L 0.08,12.94 Z" fill="#1f0f12" stroke="none" /><path d="M 4.33,12.86 L 4.33,15.54 L 5.40,16.08 L 5.40,13.40 Z" fill="#1f0f12" stroke="none" /><path d="M 14.09,10.68 L 14.09,11.44 L 16.15,12.48 L 16.23,12.48 L 16.23,11.14 L 14.70,10.37 Z" fill="#1f0f12" stroke="none" /><path d="M 17.30,6.39 L 17.34,9.07 L 18.33,9.57 L 18.41,9.57 L 18.41,6.93 L 17.38,6.39 Z" fill="#1f0f12" stroke="none" /><path d="M 4.33,28.90 L 4.33,30.20 L 5.40,30.74 L 5.40,29.40 L 4.40,28.90 Z" fill="#240f13" stroke="none" /><path d="M 1.07,22.74 L 1.07,24.08 L 2.11,24.57 L 2.14,24.61 L 2.14,25.11 L 2.18,25.15 L 3.18,25.65 L 3.25,25.65 L 3.25,24.34 L 2.95,24.19 L 2.18,24.57 L 2.14,24.54 L 2.14,23.27 Z" fill="#240f13" stroke="none" /><path d="M 17.34,22.39 L 17.34,23.73 L 18.41,24.27 L 18.41,22.93 Z" fill="#240f13" stroke="none" /><path d="M 4.33,22.20 L 4.33,23.54 L 5.40,24.08 L 5.40,22.74 Z" fill="#240f13" stroke="none" /><path d="M 4.33,19.56 L 4.33,20.90 L 5.32,21.40 L 5.40,21.40 L 5.40,20.06 L 4.40,19.56 Z" fill="#240f13" stroke="none" /><path d="M 15.20,18.07 L 15.16,18.11 L 15.16,18.64 L 16.15,19.14 L 16.23,19.14 L 16.23,17.84 L 16.04,17.72 L 15.89,17.72 Z" fill="#240f13" stroke="none" /><path d="M 1.07,16.11 L 1.07,16.57 L 1.11,16.61 L 3.18,17.65 L 3.25,17.65 L 3.25,16.31 L 3.10,16.23 L 2.95,16.23 L 2.14,16.65 Z" fill="#240f13" stroke="none" /><path d="M 17.30,15.69 L 17.30,17.03 L 18.33,17.57 L 18.41,17.57 L 18.41,16.23 Z" fill="#240f13" stroke="none" /><path d="M 17.34,13.05 L 17.34,14.39 L 18.41,14.93 L 18.41,13.59 Z" fill="#240f13" stroke="none" /><path d="M 14.70,10.37 L 14.70,10.41 L 16.15,11.14 L 16.23,11.14 L 16.23,9.84 L 16.04,9.72 L 15.96,9.72 Z" fill="#240f13" stroke="none" /><path d="M 9.72,14.66 L 9.72,14.70 L 10.79,15.23 L 11.87,14.70 L 11.94,14.70 L 12.90,15.20 L 13.05,15.20 L 14.05,14.70 L 14.01,14.62 L 11.94,13.59 L 11.87,13.59 Z" fill="#211114" stroke="none" /><path d="M 7.81,7.66 L 7.81,7.69 L 8.88,8.23 L 9.68,7.85 L 9.68,7.77 L 8.69,7.27 L 8.57,7.27 Z" fill="#211114" stroke="none" /><path d="M 9.72,6.70 L 9.72,6.74 L 10.79,7.27 L 11.87,6.74 L 11.94,6.74 L 12.98,7.27 L 14.09,6.74 L 14.09,6.70 L 11.94,5.63 L 11.87,5.63 Z" fill="#211114" stroke="none" /><path d="M 16.27,3.22 L 16.27,3.25 L 18.33,4.29 L 18.49,4.29 L 19.48,3.79 L 19.48,3.75 L 17.34,2.68 Z" fill="#211114" stroke="none" /><path d="M 14.12,2.11 L 14.12,2.18 L 15.12,2.68 L 15.20,2.68 L 16.19,2.18 L 16.19,2.11 L 15.20,1.61 L 15.12,1.61 Z" fill="#211114" stroke="none" /><path d="M 4.33,16.88 L 4.33,18.22 L 5.32,18.72 L 5.40,18.72 L 5.40,17.38 L 4.40,16.88 Z" fill="#281317" stroke="none" /><path d="M 4.33,11.56 L 4.33,12.86 L 5.40,13.40 L 5.40,12.06 L 4.40,11.56 Z" fill="#281317" stroke="none" /><path d="M 17.34,10.41 L 17.34,11.71 L 18.41,12.25 L 18.41,10.91 L 17.42,10.41 Z" fill="#281317" stroke="none" /><path d="M 17.34,5.05 L 17.34,6.39 L 18.41,6.93 L 18.41,5.59 Z" fill="#281317" stroke="none" /><path d="M 10.83,15.20 L 10.87,15.27 L 11.87,15.77 L 12.98,15.23 L 12.98,15.20 L 11.98,14.70 L 11.83,14.70 Z" fill="#281519" stroke="none" /><path d="M 5.44,7.54 L 5.44,7.58 L 7.58,8.65 L 8.65,8.11 L 8.65,8.08 L 6.51,7.00 Z" fill="#281519" stroke="none" /><path d="M 10.83,7.23 L 10.87,7.31 L 11.87,7.81 L 11.94,7.81 L 12.98,7.27 L 12.98,7.23 L 11.98,6.74 L 11.83,6.74 Z" fill="#281519" stroke="none" /><path d="M 1.07,25.91 L 1.07,27.25 L 1.11,27.29 L 5.32,29.40 L 5.40,29.40 L 5.40,28.06 Z" fill="#2c171b" stroke="none" /><path d="M 2.99,24.19 L 2.99,24.23 L 3.25,24.34 L 3.25,24.08 L 3.18,24.08 Z" fill="#2c171b" stroke="none" /><path d="M 0.00,22.20 L 0.00,23.54 L 1.00,24.04 L 1.07,24.04 L 1.07,22.74 Z" fill="#2c171b" stroke="none" /><path d="M 14.09,19.44 L 14.09,20.78 L 18.41,22.93 L 18.41,21.59 L 18.37,21.55 L 14.16,19.44 Z" fill="#2c171b" stroke="none" /><path d="M 4.33,18.22 L 4.33,19.56 L 5.32,20.06 L 5.40,20.06 L 5.40,18.72 L 4.40,18.22 Z" fill="#2c171b" stroke="none" /><path d="M 16.23,17.57 L 15.96,17.68 L 15.96,17.72 L 16.23,17.84 Z" fill="#2c171b" stroke="none" /><path d="M 17.34,11.71 L 17.34,13.05 L 18.41,13.59 L 18.41,12.25 Z" fill="#2c171b" stroke="none" /><path d="M 0.00,11.60 L 0.00,12.94 L 2.07,13.97 L 2.14,13.97 L 2.14,12.67 Z" fill="#2c171b" stroke="none" /><path d="M 1.07,9.91 L 1.07,11.02 L 1.15,11.02 L 2.11,10.53 L 2.18,10.53 L 4.33,11.60 L 4.33,11.52 Z" fill="#2c171b" stroke="none" /><path d="M 14.09,3.44 L 14.09,4.52 L 14.16,4.52 L 15.16,4.02 L 17.22,5.05 L 17.30,5.13 L 17.30,6.39 L 17.34,6.39 L 17.34,5.05 L 17.30,5.01 L 14.16,3.44 Z" fill="#2c171b" stroke="none" /><path d="M 0.00,19.52 L 0.00,19.56 L 2.14,20.63 L 4.33,19.56 L 4.33,19.52 L 2.18,18.45 Z" fill="#2f181c" stroke="none" /><path d="M 9.76,15.73 L 9.76,15.81 L 10.76,16.31 L 10.83,16.31 L 11.87,15.77 L 11.87,15.73 L 10.87,15.23 L 10.76,15.23 Z" fill="#2f181c" stroke="none" /><path d="M 16.23,12.48 L 15.23,11.98 L 15.08,11.98 L 13.01,13.01 L 13.01,13.05 L 14.05,13.59 L 14.12,13.59 L 16.19,12.56 Z" fill="#2f181c" stroke="none" /><path d="M 0.00,11.56 L 0.04,11.64 L 2.11,12.67 L 2.22,12.67 L 4.29,11.64 L 4.29,11.56 L 2.22,10.53 L 2.07,10.53 Z" fill="#2f181c" stroke="none" /><path d="M 9.76,7.77 L 9.76,7.85 L 10.76,8.34 L 10.87,8.34 L 11.87,7.85 L 11.87,7.77 L 10.87,7.27 L 10.76,7.27 Z" fill="#2f181c" stroke="none" /><path d="M 3.25,7.54 L 3.25,7.58 L 7.54,9.72 L 7.62,9.72 L 9.72,8.65 L 9.72,8.61 L 8.73,8.11 L 8.61,8.11 L 7.66,8.61 L 7.54,8.61 L 5.55,7.62 L 5.47,7.54 L 5.51,7.50 L 6.47,7.04 L 6.47,7.00 L 5.44,6.47 Z" fill="#2f181c" stroke="none" /><path d="M 16.19,4.52 L 15.20,4.02 L 15.08,4.02 L 13.01,5.05 L 13.01,5.09 L 14.05,5.63 L 14.12,5.63 L 16.19,4.59 Z" fill="#2f181c" stroke="none" /><path d="M 17.34,0.50 L 17.34,0.54 L 18.33,1.03 L 18.30,1.11 L 17.34,1.57 L 17.38,1.65 L 20.52,3.22 L 20.63,3.22 L 22.70,2.18 L 22.70,2.11 L 18.49,0.00 L 18.33,0.00 Z" fill="#2f181c" stroke="none" /><path d="M 9.72,15.77 L 9.72,16.84 L 10.76,16.34 L 10.76,16.27 Z" fill="#37181e" stroke="none" /><path d="M 11.94,13.55 L 11.94,13.63 L 12.94,14.12 L 13.05,14.12 L 14.05,13.63 L 14.05,13.55 L 13.05,13.05 L 12.94,13.05 Z" fill="#37181e" stroke="none" /><path d="M 15.20,13.01 L 15.23,13.09 L 16.23,13.59 L 17.30,13.05 L 17.30,13.01 L 16.31,12.52 L 16.19,12.52 Z" fill="#37181e" stroke="none" /><path d="M 8.92,8.19 L 8.96,8.27 L 9.68,8.61 L 9.72,8.65 L 9.72,8.88 L 9.80,8.88 L 10.79,8.38 L 10.76,8.31 L 9.76,7.81 L 9.68,7.81 Z" fill="#37181e" stroke="none" /><path d="M 11.94,5.59 L 11.94,5.67 L 12.94,6.16 L 13.05,6.16 L 14.05,5.67 L 14.05,5.59 L 13.05,5.09 L 12.94,5.09 Z" fill="#37181e" stroke="none" /><path d="M 15.20,5.05 L 15.23,5.13 L 16.23,5.63 L 16.31,5.63 L 17.30,5.13 L 17.26,5.05 L 16.27,4.56 L 16.19,4.56 Z" fill="#37181e" stroke="none" /><path d="M 16.27,1.03 L 16.31,1.11 L 17.30,1.61 L 18.41,1.07 L 18.41,1.03 L 17.42,0.54 L 17.26,0.54 Z" fill="#37181e" stroke="none" /><path d="M 2.18,8.08 L 2.22,8.15 L 3.22,8.65 L 4.33,8.11 L 4.33,8.08 L 3.33,7.58 L 3.18,7.58 Z" fill="#3d1e24" stroke="none" /><path d="M 16.23,13.55 L 15.23,13.05 L 15.12,13.05 L 13.05,14.09 L 13.01,14.16 L 14.01,14.66 L 14.12,14.66 L 16.19,13.63 Z" fill="#432429" stroke="none" /><path d="M 22.74,9.26 L 22.74,10.33 L 23.77,9.84 L 23.77,9.76 Z" fill="#432429" stroke="none" /><path d="M 3.25,8.61 L 3.29,8.69 L 6.43,10.26 L 6.55,10.26 L 7.54,9.76 L 7.54,9.68 L 4.40,8.11 L 4.25,8.11 Z" fill="#432429" stroke="none" /><path d="M 16.23,5.59 L 15.23,5.09 L 15.12,5.09 L 13.05,6.12 L 13.01,6.20 L 14.01,6.70 L 14.16,6.70 L 16.23,5.67 Z" fill="#432429" stroke="none" /><path d="M 15.20,1.57 L 15.20,1.65 L 19.41,3.75 L 19.56,3.75 L 20.56,3.25 L 20.52,3.18 L 16.31,1.07 L 16.19,1.07 Z" fill="#432429" stroke="none" /><path d="M 20.82,1.15 L 20.86,1.22 L 22.66,2.11 L 22.74,2.18 L 22.74,2.37 L 22.81,2.37 L 23.81,1.88 L 23.77,1.80 L 21.70,0.77 L 21.59,0.77 Z" fill="#432429" stroke="none" /></svg>