<svg height="32" width="32" viewBox="0 0 32 32"><defs /><path d="M 0.00,25.17 L 0.00,32.00 L 22.88,32.00 L 22.88,29.75 L 2.32,29.75 L 2.29,29.71 L 2.29,25.17 Z" fill="#695433" stroke="none" /><path d="M 0.00,16.02 L 0.00,22.88 L 2.29,22.88 L 2.29,16.02 Z" fill="#695433" stroke="none" /><path d="M 0.00,6.86 L 0.00,13.73 L 2.29,13.73 L 2.29,6.86 Z" fill="#695433" stroke="none" /><path d="M 0.00,0.00 L 0.00,4.58 L 2.29,4.58 L 2.29,0.00 Z" fill="#695433" stroke="none" /><path d="M 13.73,22.88 L 13.73,27.46 L 16.02,27.46 L 16.02,25.21 L 16.05,25.17 L 20.59,25.17 L 20.59,22.88 Z" fill="#7e6237" stroke="none" /><path d="M 4.58,22.88 L 4.58,27.46 L 6.86,27.46 L 6.86,25.21 L 6.90,25.17 L 11.44,25.17 L 11.44,22.88 Z" fill="#7e6237" stroke="none" /><path d="M 13.73,16.02 L 13.73,20.59 L 16.02,20.59 L 16.02,18.34 L 16.05,18.31 L 20.59,18.31 L 20.59,16.02 Z" fill="#7e6237" stroke="none" /><path d="M 4.58,16.02 L 4.58,20.59 L 6.86,20.59 L 6.86,18.34 L 6.90,18.31 L 11.44,18.31 L 11.44,16.02 Z" fill="#7e6237" stroke="none" /><path d="M 16.02,25.17 L 16.02,27.46 L 20.59,27.46 L 20.59,25.17 Z" fill="#967441" stroke="none" /><path d="M 6.86,25.17 L 6.86,27.46 L 11.44,27.46 L 11.44,25.17 Z" fill="#967441" stroke="none" /><path d="M 16.02,18.31 L 16.02,20.59 L 20.59,20.59 L 20.59,18.31 Z" fill="#967441" stroke="none" /><path d="M 6.86,18.31 L 6.86,20.59 L 11.44,20.59 L 11.44,18.31 Z" fill="#967441" stroke="none" /><path d="M 2.29,0.00 L 2.29,29.75 L 22.88,29.75 L 22.88,0.00 Z" fill="#9f844d" stroke="none" /><path d="M 0.00,22.88 L 0.00,25.17 L 2.29,25.17 L 2.29,22.88 Z" fill="#6b6f7a" stroke="none" /><path d="M 18.31,13.73 L 18.31,16.02 L 20.59,16.02 L 20.59,13.73 Z" fill="#6b6f7a" stroke="none" /><path d="M 0.00,13.73 L 0.00,16.02 L 2.29,16.02 L 2.29,13.73 Z" fill="#6b6f7a" stroke="none" /><path d="M 0.00,4.58 L 0.00,6.86 L 2.29,6.86 L 2.29,4.58 Z" fill="#6b6f7a" stroke="none" /><path d="M 16.02,13.73 L 16.02,16.02 L 18.31,16.02 L 18.31,13.73 Z" fill="#808b95" stroke="none" /></svg>