<svg height="32" width="32" viewBox="0 0 32 32"><defs /><path d="M 32.00,7.98 L 16.00,15.96 L 16.00,17.20 L 32.00,9.22 Z" fill="#1d180d" stroke="none" /><path d="M 16.95,16.74 L 16.88,16.74 L 16.00,17.20 L 16.00,19.64 L 16.07,19.64 L 16.95,19.18 Z" fill="#272010" stroke="none" /><path d="M 32.00,9.22 L 31.93,9.22 L 31.01,9.68 L 31.01,12.15 L 32.00,11.66 Z" fill="#272010" stroke="none" /><path d="M 18.97,16.95 L 17.98,17.45 L 17.98,18.65 L 18.05,18.65 L 18.97,18.19 Z" fill="#2d2513" stroke="none" /><path d="M 26.00,13.46 L 25.92,13.46 L 25.01,13.92 L 25.01,15.15 L 26.00,14.66 Z" fill="#2d2513" stroke="none" /><path d="M 0.00,7.98 L 0.00,9.22 L 16.00,17.20 L 16.00,15.96 Z" fill="#2f2614" stroke="none" /><path d="M 17.98,16.21 L 16.95,16.71 L 16.95,17.94 L 17.02,17.94 L 17.98,17.45 Z" fill="#372d1a" stroke="none" /><path d="M 22.99,13.70 L 21.97,14.20 L 21.97,15.43 L 22.04,15.43 L 22.99,14.94 Z" fill="#372d1a" stroke="none" /><path d="M 25.01,12.72 L 24.94,12.72 L 23.98,13.21 L 23.98,15.65 L 24.05,15.65 L 25.01,15.15 Z" fill="#372d1a" stroke="none" /><path d="M 31.01,9.71 L 30.94,9.71 L 30.02,10.17 L 30.02,12.64 L 31.01,12.15 Z" fill="#372d1a" stroke="none" /><path d="M 15.05,16.74 L 15.05,19.18 L 15.93,19.64 L 16.00,19.64 L 16.00,17.20 L 15.12,16.74 Z" fill="#3f331a" stroke="none" /><path d="M 0.00,9.22 L 0.00,11.66 L 0.99,12.15 L 0.99,9.68 L 0.07,9.22 Z" fill="#3f331a" stroke="none" /><path d="M 23.98,13.21 L 22.99,13.70 L 22.99,14.91 L 22.92,14.98 L 22.00,15.43 L 21.97,15.40 L 21.97,14.23 L 21.90,14.23 L 18.01,16.18 L 17.98,16.21 L 17.98,17.41 L 17.91,17.48 L 16.95,17.94 L 16.95,19.18 L 17.98,18.68 L 17.98,17.48 L 18.05,17.41 L 18.93,16.99 L 18.97,17.02 L 18.97,18.15 L 19.04,18.15 L 19.96,17.70 L 19.96,16.49 L 20.03,16.42 L 21.93,15.47 L 21.97,15.51 L 21.97,16.67 L 23.98,15.68 Z" fill="#3e301d" stroke="none" /><path d="M 30.02,10.21 L 29.95,10.21 L 25.01,12.68 L 25.01,13.92 L 25.08,13.92 L 25.96,13.46 L 26.00,13.49 L 26.00,14.66 L 27.02,14.16 L 27.02,12.96 L 27.09,12.89 L 30.02,11.44 Z" fill="#3e301d" stroke="none" /><path d="M 9.01,14.94 L 9.01,16.18 L 10.03,16.67 L 10.03,15.43 Z" fill="#4a3c1f" stroke="none" /><path d="M 1.98,11.44 L 1.98,12.64 L 2.97,13.14 L 2.97,11.90 L 2.05,11.44 Z" fill="#4a3c1f" stroke="none" /><path d="M 21.97,15.47 L 21.90,15.47 L 19.96,16.46 L 19.96,17.66 L 20.03,17.66 L 21.97,16.67 Z" fill="#473720" stroke="none" /><path d="M 30.02,11.44 L 29.95,11.44 L 27.06,12.89 L 27.02,12.93 L 27.02,14.13 L 27.09,14.13 L 29.99,12.68 L 30.02,12.64 Z" fill="#473720" stroke="none" /><path d="M 13.03,14.48 L 13.03,14.52 L 14.02,15.01 L 14.98,14.55 L 14.94,14.48 L 14.02,14.02 L 13.95,14.02 Z" fill="#493b20" stroke="none" /><path d="M 9.01,12.47 L 9.01,12.50 L 10.00,13.00 L 10.95,12.54 L 10.91,12.47 L 10.00,12.01 L 9.92,12.01 Z" fill="#493b20" stroke="none" /><path d="M 19.04,11.48 L 19.07,11.55 L 19.99,12.01 L 20.06,12.01 L 21.02,11.51 L 21.02,11.48 L 20.10,11.02 L 19.96,11.02 Z" fill="#493b20" stroke="none" /><path d="M 3.99,9.96 L 3.99,10.00 L 4.98,10.49 L 5.93,10.03 L 5.90,9.96 L 4.98,9.50 L 4.91,9.50 Z" fill="#493b20" stroke="none" /><path d="M 31.96,7.98 L 31.08,7.52 L 30.98,7.52 L 15.08,15.47 L 15.08,15.54 L 15.93,15.96 L 16.07,15.96 L 31.96,8.02 Z" fill="#493b20" stroke="none" /><path d="M 26.07,7.98 L 26.07,8.02 L 26.98,8.48 L 27.13,8.48 L 28.04,8.02 L 28.01,7.95 L 27.09,7.49 L 27.02,7.49 Z" fill="#493b20" stroke="none" /><path d="M 12.01,7.98 L 12.01,8.02 L 12.93,8.48 L 13.07,8.48 L 13.99,8.02 L 13.95,7.95 L 13.03,7.49 L 12.96,7.49 Z" fill="#493b20" stroke="none" /><path d="M 28.08,6.96 L 28.11,7.03 L 29.03,7.49 L 29.10,7.49 L 30.02,7.03 L 30.02,6.99 L 29.03,6.50 Z" fill="#493b20" stroke="none" /><path d="M 24.05,4.94 L 24.09,5.02 L 25.01,5.47 L 25.08,5.47 L 26.00,5.02 L 26.00,4.98 L 25.01,4.49 Z" fill="#493b20" stroke="none" /><path d="M 19.04,4.45 L 19.07,4.52 L 19.99,4.98 L 20.06,4.98 L 21.02,4.49 L 21.02,4.45 L 20.10,3.99 L 19.96,3.99 Z" fill="#493b20" stroke="none" /><path d="M 17.02,3.46 L 17.02,3.50 L 17.94,3.96 L 18.08,3.96 L 19.00,3.50 L 18.97,3.43 L 18.05,2.97 L 17.98,2.97 Z" fill="#493b20" stroke="none" /><path d="M 19.04,2.44 L 19.07,2.51 L 19.99,2.97 L 20.06,2.97 L 20.98,2.51 L 20.98,2.47 L 19.99,1.98 Z" fill="#493b20" stroke="none" /><path d="M 16.95,0.46 L 16.04,0.00 L 15.96,0.00 L 0.07,7.95 L 0.04,8.02 L 0.99,8.48 L 16.95,0.49 Z" fill="#493b20" stroke="none" /><path d="M 14.06,14.98 L 14.09,15.05 L 15.01,15.51 L 15.08,15.51 L 16.00,15.05 L 16.00,15.01 L 15.01,14.52 Z" fill="#614f28" stroke="none" /><path d="M 10.00,11.97 L 10.00,12.04 L 10.91,12.50 L 10.84,12.57 L 10.03,12.96 L 10.07,13.03 L 12.96,14.48 L 13.10,14.48 L 13.95,14.06 L 13.95,13.99 L 11.09,12.57 L 11.02,12.50 L 11.94,12.04 L 11.94,11.97 L 11.02,11.51 L 10.91,11.51 Z" fill="#614f28" stroke="none" /><path d="M 5.02,10.45 L 5.05,10.53 L 8.94,12.47 L 9.08,12.47 L 9.92,12.04 L 9.92,11.97 L 5.97,10.00 Z" fill="#614f28" stroke="none" /><path d="M 16.95,9.50 L 16.04,9.96 L 16.04,10.03 L 18.90,11.44 L 18.97,11.51 L 16.00,13.00 L 16.00,13.03 L 17.02,13.53 L 19.99,12.04 L 19.99,11.97 L 19.07,11.51 L 19.14,11.44 L 20.03,11.02 L 20.03,10.98 L 17.06,9.50 Z" fill="#614f28" stroke="none" /><path d="M 0.99,8.44 L 1.02,8.51 L 3.92,9.96 L 4.06,9.96 L 4.91,9.54 L 4.91,9.47 L 1.94,7.98 Z" fill="#614f28" stroke="none" /><path d="M 29.10,7.45 L 29.10,7.52 L 30.02,7.98 L 30.13,7.98 L 31.01,7.52 L 31.01,7.49 L 30.09,7.03 L 29.95,7.03 Z" fill="#614f28" stroke="none" /><path d="M 9.96,5.97 L 8.97,6.46 L 8.97,6.50 L 11.94,7.98 L 11.87,8.05 L 9.01,9.47 L 9.01,9.54 L 9.92,10.00 L 10.03,10.00 L 13.00,8.51 L 13.00,8.48 L 12.11,8.05 L 12.04,7.98 L 12.96,7.52 L 12.96,7.45 Z" fill="#614f28" stroke="none" /><path d="M 25.08,5.44 L 25.08,5.51 L 28.04,6.99 L 29.00,6.53 L 28.96,6.46 L 26.07,5.02 L 25.92,5.02 Z" fill="#614f28" stroke="none" /><path d="M 20.03,3.96 L 19.04,3.46 L 18.01,3.96 L 18.01,3.99 L 18.90,4.42 L 18.97,4.49 L 16.00,5.97 L 16.00,6.00 L 17.02,6.50 L 19.99,5.02 L 19.99,4.94 L 19.07,4.49 L 19.14,4.42 L 20.03,3.99 Z" fill="#614f28" stroke="none" /><path d="M 20.06,2.93 L 20.06,3.00 L 23.91,4.91 L 23.98,4.98 L 23.95,5.02 L 23.06,5.44 L 23.06,5.51 L 23.98,5.97 L 23.91,6.04 L 23.03,6.46 L 23.03,6.50 L 26.00,7.98 L 25.92,8.05 L 23.06,9.47 L 23.06,9.54 L 23.98,10.00 L 24.09,10.00 L 27.06,8.51 L 27.06,8.48 L 26.17,8.05 L 26.10,7.98 L 27.02,7.52 L 27.02,7.45 L 24.16,6.04 L 24.09,5.97 L 25.01,5.51 L 25.01,5.44 L 24.09,4.98 L 24.16,4.91 L 24.97,4.52 L 24.94,4.45 L 21.05,2.51 L 20.91,2.51 Z" fill="#614f28" stroke="none" /><path d="M 16.04,2.93 L 16.04,3.00 L 16.95,3.46 L 17.06,3.46 L 17.98,3.00 L 17.98,2.93 L 17.06,2.47 L 16.95,2.47 Z" fill="#614f28" stroke="none" /><path d="M 16.04,0.92 L 16.04,0.99 L 19.00,2.47 L 19.96,2.01 L 19.92,1.94 L 17.02,0.49 L 16.88,0.49 Z" fill="#614f28" stroke="none" /><path d="M 14.02,16.21 L 14.02,18.68 L 15.05,19.18 L 15.05,16.71 Z" fill="#59482a" stroke="none" /><path d="M 8.02,13.21 L 8.02,15.68 L 8.94,16.14 L 9.01,16.14 L 9.01,13.70 Z" fill="#59482a" stroke="none" /><path d="M 6.00,12.22 L 6.00,13.46 L 6.92,13.92 L 6.99,13.92 L 6.99,12.68 L 6.08,12.22 Z" fill="#59482a" stroke="none" /><path d="M 0.99,9.71 L 0.99,10.95 L 1.91,11.41 L 1.98,11.41 L 1.98,10.17 L 1.06,9.71 Z" fill="#59482a" stroke="none" /><path d="M 9.01,13.70 L 9.01,14.94 L 10.03,15.47 L 10.03,16.67 L 10.07,16.71 L 11.02,17.17 L 11.02,16.00 L 11.06,15.96 L 14.02,17.45 L 14.02,16.21 L 13.99,16.18 Z" fill="#644e2f" stroke="none" /><path d="M 0.99,10.95 L 0.99,12.15 L 1.02,12.19 L 1.98,12.64 L 1.98,11.48 L 2.01,11.44 L 2.97,11.94 L 2.97,13.14 L 3.00,13.17 L 3.92,13.63 L 3.99,13.63 L 3.99,12.50 L 4.06,12.47 L 6.00,13.46 L 6.00,14.66 L 6.04,14.69 L 7.95,15.65 L 8.02,15.65 L 8.02,13.21 L 7.98,13.17 L 7.06,12.72 L 6.99,12.72 L 6.99,13.88 L 6.96,13.92 L 6.00,13.42 L 6.00,12.19 L 2.05,10.21 L 1.98,10.21 L 1.98,11.37 L 1.94,11.41 L 1.06,10.95 Z" fill="#644e2f" stroke="none" /><path d="M 15.01,13.49 L 15.05,13.56 L 15.96,14.02 L 16.04,14.02 L 16.99,13.53 L 16.99,13.49 L 16.07,13.03 L 15.93,13.03 Z" fill="#725c30" stroke="none" /><path d="M 22.04,10.00 L 22.04,10.03 L 22.96,10.49 L 23.10,10.49 L 24.02,10.03 L 23.98,9.96 L 23.06,9.50 L 22.99,9.50 Z" fill="#725c30" stroke="none" /><path d="M 7.98,10.00 L 7.98,10.03 L 8.90,10.49 L 9.04,10.49 L 9.96,10.03 L 9.92,9.96 L 9.01,9.50 L 8.94,9.50 Z" fill="#725c30" stroke="none" /><path d="M 15.01,9.47 L 15.05,9.54 L 15.96,10.00 L 16.04,10.00 L 16.99,9.50 L 16.99,9.47 L 16.07,9.01 L 15.93,9.01 Z" fill="#725c30" stroke="none" /><path d="M 27.09,7.45 L 27.09,7.52 L 28.01,7.98 L 28.11,7.98 L 29.03,7.52 L 29.03,7.45 L 28.11,6.99 L 28.01,6.99 Z" fill="#725c30" stroke="none" /><path d="M 15.01,6.46 L 15.05,6.53 L 15.96,6.99 L 16.04,6.99 L 16.99,6.50 L 16.99,6.46 L 16.07,6.00 L 15.93,6.00 Z" fill="#725c30" stroke="none" /><path d="M 22.04,5.97 L 22.04,6.00 L 22.96,6.46 L 23.10,6.46 L 24.02,6.00 L 23.98,5.93 L 23.06,5.47 L 22.99,5.47 Z" fill="#725c30" stroke="none" /><path d="M 7.98,5.97 L 7.98,6.00 L 8.90,6.46 L 9.04,6.46 L 9.96,6.00 L 9.92,5.93 L 9.01,5.47 L 8.94,5.47 Z" fill="#725c30" stroke="none" /><path d="M 15.01,2.44 L 15.05,2.51 L 15.96,2.97 L 16.04,2.97 L 16.99,2.47 L 16.99,2.44 L 16.07,1.98 L 15.93,1.98 Z" fill="#725c30" stroke="none" /><path d="M 11.02,15.96 L 11.02,17.17 L 11.06,17.20 L 13.95,18.65 L 14.02,18.65 L 14.02,17.45 L 13.99,17.41 L 11.09,15.96 Z" fill="#735a34" stroke="none" /><path d="M 3.99,12.43 L 3.99,13.67 L 6.00,14.66 L 6.00,13.42 Z" fill="#735a34" stroke="none" /><path d="M 16.04,13.99 L 16.04,14.06 L 16.95,14.52 L 17.06,14.52 L 17.98,14.06 L 17.98,13.99 L 17.06,13.53 L 16.95,13.53 Z" fill="#897040" stroke="none" /><path d="M 11.97,13.00 L 11.97,13.03 L 14.94,14.52 L 15.05,14.52 L 15.96,14.06 L 15.96,13.99 L 13.00,12.50 Z" fill="#897040" stroke="none" /><path d="M 21.02,12.50 L 20.06,12.01 L 19.99,12.01 L 18.01,13.00 L 18.01,13.03 L 19.04,13.53 L 21.02,12.54 Z" fill="#897040" stroke="none" /><path d="M 21.05,11.48 L 21.09,11.55 L 22.00,12.01 L 22.08,12.01 L 23.03,11.51 L 23.03,11.48 L 22.11,11.02 L 21.97,11.02 Z" fill="#897040" stroke="none" /><path d="M 10.98,11.48 L 11.02,11.55 L 11.94,12.01 L 12.01,12.01 L 12.96,11.51 L 12.96,11.48 L 12.04,11.02 L 11.90,11.02 Z" fill="#897040" stroke="none" /><path d="M 10.95,10.49 L 9.96,10.00 L 7.98,10.98 L 7.98,11.02 L 8.97,11.51 L 10.95,10.53 Z" fill="#897040" stroke="none" /><path d="M 11.02,9.47 L 11.02,9.54 L 11.94,10.00 L 12.01,10.00 L 12.96,9.50 L 12.96,9.47 L 12.04,9.01 L 11.94,9.01 Z" fill="#897040" stroke="none" /><path d="M 4.98,9.47 L 4.98,9.54 L 5.90,10.00 L 6.00,10.00 L 6.92,9.54 L 6.92,9.47 L 6.00,9.01 L 5.90,9.01 Z" fill="#897040" stroke="none" /><path d="M 28.04,8.97 L 27.13,8.51 L 26.98,8.51 L 25.08,9.47 L 25.08,9.54 L 26.00,10.00 L 26.10,10.00 L 28.01,9.04 Z" fill="#897040" stroke="none" /><path d="M 28.08,7.98 L 28.08,8.02 L 29.00,8.48 L 29.14,8.48 L 30.06,8.02 L 30.02,7.95 L 29.10,7.49 L 29.03,7.49 Z" fill="#897040" stroke="none" /><path d="M 1.94,7.98 L 1.94,8.02 L 3.92,9.01 L 4.94,8.51 L 4.94,8.48 L 2.97,7.49 L 2.90,7.49 Z" fill="#897040" stroke="none" /><path d="M 13.03,7.45 L 13.03,7.52 L 13.95,7.98 L 13.88,8.05 L 13.00,8.48 L 13.00,8.51 L 13.92,8.97 L 14.06,8.97 L 14.94,8.51 L 15.05,8.51 L 19.96,10.98 L 20.10,10.98 L 21.02,10.53 L 20.98,10.45 L 16.04,7.98 L 15.96,7.98 L 15.01,8.48 L 14.13,8.05 L 14.06,7.98 L 14.09,7.95 L 14.98,7.52 L 14.98,7.45 L 14.06,6.99 L 13.95,6.99 Z" fill="#897040" stroke="none" /><path d="M 24.05,5.97 L 24.05,6.00 L 26.03,6.99 L 27.06,6.50 L 27.06,6.46 L 25.08,5.47 L 25.01,5.47 Z" fill="#897040" stroke="none" /><path d="M 19.99,5.97 L 19.00,5.47 L 16.04,6.96 L 16.04,7.03 L 17.94,7.98 L 18.05,7.98 L 18.97,7.52 L 18.97,7.45 L 18.05,6.99 L 18.12,6.92 L 19.99,6.00 Z" fill="#897040" stroke="none" /><path d="M 21.05,5.44 L 21.05,5.51 L 21.97,5.97 L 22.08,5.97 L 22.99,5.51 L 22.99,5.44 L 22.08,4.98 L 21.97,4.98 Z" fill="#897040" stroke="none" /><path d="M 7.98,4.94 L 8.02,5.02 L 11.97,6.99 L 13.00,6.50 L 13.00,6.46 L 9.04,4.49 L 8.90,4.49 Z" fill="#897040" stroke="none" /><path d="M 20.03,3.96 L 20.03,3.99 L 21.02,4.49 L 22.04,3.99 L 22.04,3.96 L 21.05,3.46 Z" fill="#897040" stroke="none" /><path d="M 9.96,3.96 L 9.96,3.99 L 10.95,4.49 L 11.97,3.99 L 11.97,3.96 L 10.98,3.46 Z" fill="#897040" stroke="none" /><path d="M 17.02,2.44 L 17.06,2.51 L 18.97,3.46 L 19.07,3.46 L 19.99,3.00 L 19.99,2.93 L 18.08,1.98 L 17.94,1.98 Z" fill="#897040" stroke="none" /><path d="M 15.01,1.45 L 15.01,1.48 L 15.93,1.94 L 16.07,1.94 L 16.99,1.48 L 16.95,1.41 L 16.04,0.95 L 15.96,0.95 Z" fill="#897040" stroke="none" /><path d="M 15.01,14.52 L 15.01,14.55 L 15.93,15.01 L 16.07,15.01 L 16.99,14.55 L 16.95,14.48 L 16.04,14.02 L 15.96,14.02 Z" fill="#9a7849" stroke="none" /><path d="M 17.02,13.49 L 17.06,13.56 L 17.98,14.02 L 18.05,14.02 L 19.00,13.53 L 19.00,13.49 L 18.08,13.03 L 17.94,13.03 Z" fill="#9a7849" stroke="none" /><path d="M 10.98,12.50 L 10.98,12.54 L 11.90,13.00 L 12.04,13.00 L 12.96,12.54 L 12.93,12.47 L 12.01,12.01 L 11.94,12.01 Z" fill="#9a7849" stroke="none" /><path d="M 3.96,8.97 L 3.99,9.04 L 4.91,9.50 L 4.98,9.50 L 5.93,9.01 L 6.89,9.47 L 6.92,9.50 L 6.89,9.54 L 6.00,9.96 L 5.97,10.03 L 7.95,11.02 L 8.97,10.53 L 8.97,10.49 L 6.99,9.50 L 7.95,9.01 L 7.95,8.97 L 7.03,8.51 L 6.89,8.51 L 6.00,8.97 L 5.90,8.97 L 5.02,8.51 L 4.87,8.51 Z" fill="#9a7849" stroke="none" /><path d="M 27.06,8.48 L 27.06,8.51 L 28.04,9.01 L 29.07,8.51 L 29.07,8.48 L 28.08,7.98 Z" fill="#9a7849" stroke="none" /><path d="M 26.07,6.96 L 26.10,7.03 L 27.02,7.49 L 27.09,7.49 L 28.04,6.99 L 28.04,6.96 L 27.13,6.50 L 26.98,6.50 Z" fill="#9a7849" stroke="none" /><path d="M 8.94,5.44 L 8.02,4.98 L 7.91,4.98 L 2.97,7.45 L 2.97,7.52 L 3.89,7.98 L 3.99,7.98 L 6.92,6.50 L 6.99,6.50 L 7.98,6.99 L 8.97,6.50 L 8.97,6.46 L 8.09,6.04 L 8.02,5.97 L 8.94,5.51 Z" fill="#9a7849" stroke="none" /><path d="M 19.04,3.46 L 19.04,3.50 L 19.96,3.96 L 20.10,3.96 L 21.02,3.50 L 20.98,3.43 L 20.06,2.97 L 19.99,2.97 Z" fill="#9a7849" stroke="none" /><path d="M 8.97,4.45 L 8.97,4.49 L 12.89,6.43 L 12.93,6.46 L 12.89,6.53 L 12.01,6.96 L 12.04,7.03 L 12.96,7.49 L 13.03,7.49 L 14.02,6.99 L 14.98,7.49 L 14.02,7.98 L 14.02,8.02 L 14.91,8.44 L 14.94,8.48 L 14.87,8.55 L 14.02,8.97 L 13.95,8.97 L 13.07,8.51 L 12.93,8.51 L 12.01,8.97 L 12.04,9.04 L 12.86,9.43 L 12.93,9.50 L 12.89,9.54 L 11.97,10.00 L 11.02,9.50 L 10.95,9.50 L 10.03,9.96 L 10.00,10.03 L 10.91,10.49 L 10.84,10.56 L 8.97,11.48 L 9.01,11.55 L 9.92,12.01 L 10.00,12.01 L 16.00,9.01 L 16.00,8.97 L 15.12,8.55 L 15.05,8.48 L 16.00,7.98 L 20.94,10.45 L 20.98,10.49 L 20.91,10.56 L 20.03,10.98 L 20.03,11.02 L 20.91,11.44 L 20.98,11.51 L 20.06,11.97 L 20.06,12.04 L 20.98,12.50 L 21.09,12.50 L 22.00,12.04 L 22.00,11.97 L 21.09,11.51 L 21.16,11.44 L 22.00,11.02 L 22.08,11.02 L 23.06,11.51 L 26.03,10.03 L 26.00,9.96 L 25.08,9.50 L 25.01,9.50 L 23.06,10.49 L 22.99,10.49 L 19.07,8.51 L 19.11,8.44 L 19.99,8.02 L 19.96,7.95 L 19.07,7.52 L 19.04,7.49 L 19.07,7.45 L 20.03,6.99 L 20.98,7.49 L 21.05,7.49 L 22.00,6.99 L 22.00,6.96 L 21.09,6.50 L 21.12,6.43 L 22.00,6.00 L 21.97,5.93 L 21.09,5.51 L 21.05,5.47 L 21.09,5.44 L 22.04,4.98 L 22.99,5.47 L 23.06,5.47 L 24.02,4.98 L 24.02,4.94 L 22.11,3.99 L 21.97,3.99 L 19.07,5.44 L 19.04,5.51 L 19.96,5.97 L 19.89,6.04 L 18.01,6.96 L 18.05,7.03 L 18.97,7.49 L 18.01,7.98 L 14.09,6.04 L 14.06,6.00 L 14.09,5.93 L 14.98,5.51 L 14.98,5.47 L 14.02,4.98 L 13.95,4.98 L 13.00,5.47 L 12.04,5.02 L 12.01,4.98 L 12.04,4.94 L 12.96,4.49 L 12.96,4.45 L 12.08,4.03 L 12.04,3.99 L 12.08,3.92 L 13.99,2.97 L 14.94,3.46 L 15.05,3.46 L 15.96,3.00 L 15.96,2.93 L 15.05,2.47 L 15.12,2.40 L 15.96,1.98 L 16.04,1.98 L 16.99,2.47 L 18.01,1.98 L 18.01,1.94 L 17.02,1.45 L 16.04,1.94 L 15.96,1.94 L 14.98,1.45 L 11.02,3.43 L 10.98,3.50 L 11.87,3.92 L 11.90,3.96 L 11.87,4.03 L 11.02,4.45 L 10.91,4.45 L 10.03,3.99 L 9.89,3.99 Z" fill="#9a7849" stroke="none" /><path d="M 14.94,9.50 L 11.97,10.98 L 11.97,11.02 L 12.86,11.44 L 12.93,11.51 L 12.01,11.97 L 12.01,12.04 L 15.01,13.53 L 16.00,13.03 L 16.00,13.00 L 13.03,11.51 L 13.10,11.44 L 15.96,10.03 L 15.96,9.96 L 15.05,9.50 Z" fill="#b18a50" stroke="none" /><path d="M 6.99,9.47 L 6.99,9.54 L 7.91,10.00 L 8.02,10.00 L 8.94,9.54 L 8.94,9.47 L 8.02,9.01 L 7.91,9.01 Z" fill="#b18a50" stroke="none" /><path d="M 19.04,7.45 L 19.04,7.52 L 19.96,7.98 L 19.89,8.05 L 19.00,8.48 L 19.00,8.51 L 21.97,10.00 L 22.08,10.00 L 22.99,9.54 L 22.99,9.47 L 20.13,8.05 L 20.06,7.98 L 20.98,7.52 L 20.98,7.45 L 20.06,6.99 L 19.96,6.99 Z" fill="#b18a50" stroke="none" /><path d="M 7.95,6.96 L 7.03,6.50 L 6.89,6.50 L 3.99,7.95 L 3.96,8.02 L 5.97,9.01 L 6.96,8.51 L 6.96,8.48 L 6.08,8.05 L 6.00,7.98 L 7.91,7.03 Z" fill="#b18a50" stroke="none" /><path d="M 21.02,6.46 L 21.02,6.50 L 22.00,6.99 L 23.03,6.50 L 23.03,6.46 L 22.04,5.97 Z" fill="#b18a50" stroke="none" /><path d="M 13.99,5.97 L 13.99,6.00 L 14.98,6.50 L 16.00,6.00 L 16.00,5.97 L 15.01,5.47 Z" fill="#b18a50" stroke="none" /><path d="M 14.98,3.46 L 14.02,2.97 L 13.95,2.97 L 11.97,3.96 L 11.97,3.99 L 12.86,4.42 L 12.93,4.49 L 12.01,4.94 L 12.01,5.02 L 12.93,5.47 L 13.03,5.47 L 13.95,5.02 L 13.95,4.94 L 13.03,4.49 L 13.10,4.42 L 14.98,3.50 Z" fill="#b18a50" stroke="none" /></svg>