<svg height="32" width="32" viewBox="0 0 32 32"><defs /><path d="M 21.99,12.99 L 20.99,13.47 L 20.99,14.70 L 21.06,14.70 L 21.99,14.21 Z" fill="#1f362d" stroke="none" /><path d="M 27.01,10.49 L 26.94,10.49 L 23.00,12.47 L 23.00,13.69 L 23.07,13.69 L 27.01,11.72 Z" fill="#1f362d" stroke="none" /><path d="M 32.00,10.46 L 31.93,10.46 L 31.00,10.94 L 31.00,12.13 L 31.07,12.13 L 32.00,11.65 Z" fill="#1f362d" stroke="none" /><path d="M 29.99,9.00 L 29.92,9.00 L 28.99,9.49 L 28.99,10.72 L 29.99,10.23 Z" fill="#1f362d" stroke="none" /><path d="M 20.99,13.51 L 20.91,13.51 L 17.04,15.44 L 17.00,15.48 L 17.00,16.71 L 20.99,14.73 Z" fill="#1e3a2f" stroke="none" /><path d="M 23.00,12.50 L 22.92,12.50 L 21.99,12.99 L 21.99,14.21 L 23.00,13.73 Z" fill="#1e3a2f" stroke="none" /><path d="M 28.99,9.49 L 27.01,10.46 L 27.01,11.68 L 27.09,11.68 L 28.99,10.72 Z" fill="#1e3a2f" stroke="none" /><path d="M 32.00,8.00 L 31.93,8.00 L 29.99,8.97 L 29.99,10.20 L 30.07,10.20 L 30.96,9.75 L 31.00,9.79 L 31.00,10.94 L 32.00,10.46 Z" fill="#1e3a2f" stroke="none" /><path d="M 19.98,16.45 L 19.01,16.93 L 19.01,18.12 L 19.09,18.12 L 19.98,17.67 Z" fill="#214439" stroke="none" /><path d="M 29.99,11.46 L 29.92,11.46 L 28.99,11.94 L 28.99,13.13 L 29.06,13.13 L 29.99,12.65 Z" fill="#214439" stroke="none" /><path d="M 20.99,14.73 L 20.91,14.73 L 19.98,15.22 L 19.98,17.64 L 20.06,17.64 L 20.99,17.15 Z" fill="#2c5540" stroke="none" /><path d="M 19.98,15.22 L 19.01,15.70 L 19.01,16.89 L 18.94,16.97 L 17.00,17.93 L 17.00,19.13 L 17.08,19.13 L 19.01,18.16 L 19.01,16.97 L 19.09,16.89 L 19.98,16.45 Z" fill="#284e46" stroke="none" /><path d="M 23.00,13.73 L 22.92,13.73 L 20.99,14.70 L 20.99,15.93 L 21.06,15.93 L 23.00,14.96 Z" fill="#284e46" stroke="none" /><path d="M 28.99,11.94 L 27.98,12.43 L 27.98,13.66 L 28.99,13.17 Z" fill="#284e46" stroke="none" /><path d="M 27.01,11.72 L 26.94,11.72 L 24.04,13.17 L 24.00,13.21 L 24.00,14.44 L 27.01,12.95 Z" fill="#284e46" stroke="none" /><path d="M 19.01,15.70 L 17.00,16.71 L 17.00,17.93 L 19.01,16.93 Z" fill="#2a5b4c" stroke="none" /><path d="M 24.00,13.21 L 23.00,13.69 L 23.00,14.92 L 23.07,14.92 L 24.00,14.44 Z" fill="#2a5b4c" stroke="none" /><path d="M 31.00,9.71 L 27.98,11.20 L 27.98,12.43 L 28.06,12.43 L 29.95,11.46 L 29.99,11.50 L 29.99,12.65 L 31.00,12.17 Z" fill="#2a5b4c" stroke="none" /><path d="M 17.00,17.93 L 16.00,18.42 L 16.00,19.65 L 17.00,19.16 Z" fill="#2f5e4d" stroke="none" /><path d="M 17.00,15.48 L 16.00,15.96 L 16.00,17.19 L 16.07,17.19 L 17.00,16.71 Z" fill="#2f5e4d" stroke="none" /><path d="M 21.99,15.44 L 20.99,15.93 L 20.99,17.15 L 21.99,16.67 Z" fill="#2f5e4d" stroke="none" /><path d="M 27.98,11.24 L 27.91,11.24 L 27.01,11.68 L 27.01,12.91 L 26.01,13.43 L 26.01,14.62 L 26.08,14.62 L 27.98,13.66 Z" fill="#2f5e4d" stroke="none" /><path d="M 15.00,17.93 L 15.00,19.16 L 16.00,19.65 L 16.00,18.42 Z" fill="#3a6554" stroke="none" /><path d="M 7.00,11.46 L 7.00,12.73 L 10.94,14.70 L 11.01,14.70 L 11.01,13.54 L 11.05,13.51 L 12.91,14.44 L 12.99,14.51 L 12.99,15.70 L 13.92,16.19 L 13.99,16.19 L 13.99,14.96 L 13.13,14.55 L 13.06,14.47 L 13.95,14.03 L 13.99,13.95 L 8.04,10.98 L 7.96,10.98 Z" fill="#3a6554" stroke="none" /><path d="M 4.99,10.49 L 4.99,11.72 L 5.99,12.20 L 5.99,10.98 L 5.06,10.49 Z" fill="#3a6554" stroke="none" /><path d="M 2.01,8.97 L 2.01,9.00 L 3.94,9.97 L 4.06,9.97 L 4.99,9.49 L 4.99,9.45 L 3.05,8.48 L 2.98,8.48 Z" fill="#3a6554" stroke="none" /><path d="M 2.01,6.96 L 2.05,7.03 L 2.94,7.48 L 3.05,7.48 L 3.98,7.00 L 3.98,6.96 L 3.01,6.47 Z" fill="#3a6554" stroke="none" /><path d="M 9.97,3.94 L 9.08,3.50 L 8.93,3.50 L 5.06,5.43 L 5.02,5.51 L 6.03,5.99 L 9.97,4.02 Z" fill="#3a6554" stroke="none" /><path d="M 10.01,2.98 L 10.01,3.01 L 10.98,3.50 L 11.98,3.01 L 11.94,2.94 L 11.05,2.49 L 10.94,2.49 Z" fill="#3a6554" stroke="none" /><path d="M 17.00,16.71 L 16.00,17.19 L 16.00,18.42 L 16.07,18.42 L 17.00,17.93 Z" fill="#3a6854" stroke="none" /><path d="M 26.01,13.43 L 22.03,15.40 L 21.99,15.44 L 21.99,16.63 L 22.07,16.63 L 26.01,14.66 Z" fill="#3a6854" stroke="none" /><path d="M 11.01,13.51 L 11.01,14.73 L 12.95,15.70 L 12.99,15.70 L 12.99,14.55 L 13.02,14.51 L 13.95,14.96 L 13.99,15.00 L 13.99,16.22 L 14.92,16.67 L 15.00,16.74 L 15.00,17.93 L 15.93,18.42 L 16.00,18.42 L 16.00,15.96 L 15.03,15.48 L 16.00,15.00 L 16.00,14.96 L 14.07,13.99 L 13.95,13.99 L 12.99,14.47 L 11.09,13.51 Z" fill="#386d58" stroke="none" /><path d="M 0.00,7.96 L 0.00,8.00 L 0.93,8.45 L 1.00,8.52 L 1.00,9.71 L 1.04,9.75 L 4.91,11.68 L 4.99,11.68 L 4.99,10.53 L 5.02,10.49 L 5.92,10.94 L 5.99,11.01 L 5.99,12.20 L 6.92,12.69 L 7.00,12.69 L 7.00,11.50 L 7.96,11.01 L 7.96,10.94 L 5.06,9.49 L 4.95,9.49 L 3.98,9.97 L 2.12,9.04 L 2.08,9.00 L 2.12,8.93 L 2.98,8.52 L 2.98,8.45 L 2.12,8.04 L 2.08,7.96 L 2.98,7.52 L 2.98,7.48 L 2.05,7.00 L 1.93,7.00 Z" fill="#386d58" stroke="none" /><path d="M 5.99,5.95 L 4.99,5.47 L 3.05,6.44 L 3.01,6.51 L 4.02,7.00 L 5.95,6.03 Z" fill="#386d58" stroke="none" /><path d="M 9.00,3.46 L 9.00,3.50 L 9.97,3.98 L 10.05,3.98 L 10.98,3.50 L 10.98,3.46 L 10.01,2.98 Z" fill="#386d58" stroke="none" /><path d="M 16.00,0.97 L 15.03,0.48 L 14.96,0.48 L 11.01,2.46 L 11.01,2.49 L 11.94,2.98 L 12.06,2.98 L 16.00,1.00 Z" fill="#386d58" stroke="none" /><path d="M 12.99,16.93 L 12.99,18.16 L 13.99,18.64 L 13.99,17.41 Z" fill="#3d7f6a" stroke="none" /><path d="M 15.03,15.44 L 15.03,15.52 L 15.93,15.96 L 16.07,15.96 L 16.97,15.52 L 16.97,15.44 L 16.07,15.00 L 15.93,15.00 Z" fill="#3d7f6a" stroke="none" /><path d="M 14.03,12.95 L 14.03,13.02 L 14.92,13.47 L 15.07,13.47 L 15.96,13.02 L 15.96,12.95 L 15.07,12.50 L 14.92,12.50 Z" fill="#3d7f6a" stroke="none" /><path d="M 3.01,11.94 L 3.01,13.17 L 4.02,13.66 L 4.02,12.43 Z" fill="#3d7f6a" stroke="none" /><path d="M 24.00,7.96 L 24.00,8.00 L 24.97,8.48 L 25.04,8.48 L 26.01,8.00 L 26.01,7.96 L 25.04,7.48 L 24.97,7.48 Z" fill="#3d7f6a" stroke="none" /><path d="M 4.02,7.96 L 4.06,8.04 L 4.95,8.48 L 5.02,8.48 L 5.99,8.00 L 5.99,7.96 L 5.02,7.48 Z" fill="#3d7f6a" stroke="none" /><path d="M 14.03,2.98 L 14.03,3.01 L 14.92,3.46 L 15.07,3.46 L 15.96,3.01 L 15.96,2.94 L 15.07,2.49 L 14.96,2.49 Z" fill="#3d7f6a" stroke="none" /><path d="M 11.01,12.47 L 11.01,12.50 L 13.99,13.99 L 15.00,13.51 L 15.00,13.47 L 14.03,12.99 L 15.00,12.50 L 15.00,12.47 L 14.03,11.98 L 13.95,11.98 L 13.02,12.47 L 12.95,12.47 L 11.98,11.98 Z" fill="#529f77" stroke="none" /><path d="M 19.98,11.98 L 19.05,11.50 L 18.94,11.50 L 17.00,12.47 L 17.00,12.50 L 17.97,12.99 L 16.04,13.95 L 16.04,14.03 L 16.93,14.47 L 16.86,14.55 L 16.00,14.96 L 16.00,15.00 L 16.97,15.48 L 17.04,15.48 L 17.93,15.03 L 17.97,14.96 L 17.12,14.55 L 17.04,14.47 L 18.98,13.51 L 18.94,13.43 L 18.05,12.99 L 19.98,12.02 Z" fill="#529f77" stroke="none" /><path d="M 4.02,11.24 L 4.02,13.66 L 4.99,14.14 L 4.99,11.68 L 4.09,11.24 Z" fill="#529f77" stroke="none" /><path d="M 15.03,10.46 L 15.07,10.53 L 15.96,10.98 L 16.04,10.98 L 16.97,10.49 L 16.97,10.46 L 16.07,10.01 L 15.93,10.01 Z" fill="#529f77" stroke="none" /><path d="M 22.03,9.97 L 22.03,10.01 L 23.00,10.49 L 23.96,10.01 L 24.04,10.01 L 24.97,10.49 L 25.97,10.01 L 25.93,9.93 L 24.07,9.00 L 23.93,9.00 Z" fill="#529f77" stroke="none" /><path d="M 5.99,8.97 L 5.99,9.00 L 6.96,9.49 L 6.07,9.93 L 6.03,10.01 L 9.97,11.98 L 10.05,11.98 L 10.98,11.50 L 10.98,11.46 L 7.07,9.53 L 7.03,9.49 L 7.07,9.45 L 8.00,9.00 L 8.00,8.97 L 7.03,8.48 L 6.96,8.48 Z" fill="#529f77" stroke="none" /><path d="M 13.02,8.45 L 13.02,8.52 L 14.96,9.49 L 15.03,9.49 L 16.00,9.00 L 16.00,8.97 L 14.07,8.00 L 13.92,8.00 Z" fill="#529f77" stroke="none" /><path d="M 19.01,7.48 L 19.01,7.52 L 19.98,8.00 L 20.95,7.52 L 21.06,7.52 L 21.92,7.96 L 22.07,7.96 L 22.96,7.52 L 22.96,7.44 L 22.07,7.00 L 21.95,7.00 L 21.02,7.48 L 20.06,7.00 L 19.94,7.00 Z" fill="#529f77" stroke="none" /><path d="M 22.03,5.95 L 22.07,6.03 L 23.93,6.96 L 23.89,7.03 L 23.03,7.44 L 23.03,7.52 L 23.93,7.96 L 24.07,7.96 L 25.97,7.00 L 25.97,6.96 L 25.12,6.55 L 25.04,6.47 L 25.93,6.03 L 25.97,5.95 L 25.08,5.51 L 24.93,5.51 L 24.00,5.99 L 23.07,5.51 L 22.92,5.51 Z" fill="#529f77" stroke="none" /><path d="M 12.02,2.98 L 12.02,3.01 L 13.95,3.98 L 14.03,3.98 L 15.00,3.50 L 15.00,3.46 L 13.06,2.49 L 12.95,2.49 Z" fill="#529f77" stroke="none" /><path d="M 17.00,2.46 L 17.04,2.53 L 17.93,2.98 L 17.86,3.05 L 17.00,3.46 L 17.00,3.50 L 18.94,4.47 L 19.09,4.47 L 19.98,4.02 L 19.94,3.94 L 19.05,3.50 L 19.13,3.42 L 19.98,3.01 L 19.94,2.94 L 18.01,1.97 Z" fill="#529f77" stroke="none" /><path d="M 12.02,16.45 L 12.02,17.67 L 12.91,18.12 L 12.99,18.12 L 12.99,16.93 Z" fill="#4b9282" stroke="none" /><path d="M 8.00,13.21 L 8.00,14.44 L 8.04,14.47 L 10.94,15.93 L 11.01,15.93 L 11.01,14.70 Z" fill="#4b9282" stroke="none" /><path d="M 4.99,11.72 L 4.99,12.95 L 6.92,13.92 L 7.00,13.92 L 7.00,12.69 L 5.06,11.72 Z" fill="#4b9282" stroke="none" /><path d="M 10.05,11.94 L 10.05,12.02 L 10.94,12.47 L 11.09,12.47 L 11.98,12.02 L 11.94,11.94 L 11.05,11.50 L 10.94,11.50 Z" fill="#4b9282" stroke="none" /><path d="M 4.02,11.20 L 3.01,10.72 L 3.01,11.87 L 2.94,11.91 L 1.00,10.94 L 1.00,12.17 L 2.94,13.13 L 3.01,13.13 L 3.01,12.02 L 3.05,11.98 L 3.94,12.43 L 4.02,12.43 Z" fill="#4b9282" stroke="none" /><path d="M 24.97,10.46 L 24.07,10.01 L 23.93,10.01 L 23.07,10.46 L 22.96,10.46 L 21.99,9.97 L 19.01,11.46 L 19.01,11.50 L 19.94,11.98 L 20.06,11.98 L 21.95,11.01 L 22.07,11.01 L 22.92,11.46 L 23.07,11.46 L 24.93,10.53 Z" fill="#4b9282" stroke="none" /><path d="M 14.96,9.49 L 14.03,9.97 L 14.03,10.01 L 14.88,10.42 L 14.96,10.49 L 14.03,10.98 L 14.03,11.01 L 14.92,11.46 L 14.88,11.53 L 14.03,11.94 L 14.03,12.02 L 15.96,12.99 L 14.03,13.95 L 14.03,13.99 L 15.93,14.96 L 16.07,14.96 L 16.97,14.51 L 16.97,14.47 L 16.04,13.99 L 17.00,13.51 L 17.00,13.47 L 16.04,12.99 L 17.00,12.50 L 17.00,12.47 L 16.04,11.98 L 17.00,11.50 L 17.00,11.46 L 15.11,10.53 L 15.07,10.49 L 15.14,10.42 L 16.00,10.01 L 16.00,9.97 L 15.03,9.49 Z" fill="#4b9282" stroke="none" /><path d="M 25.93,7.00 L 25.04,7.44 L 25.04,7.52 L 25.93,7.96 L 25.90,8.04 L 25.04,8.45 L 25.04,8.52 L 25.93,8.97 L 26.08,8.97 L 26.98,8.52 L 26.98,8.45 L 26.08,8.00 L 26.12,7.93 L 26.98,7.52 L 26.98,7.48 L 26.05,7.00 Z" fill="#4b9282" stroke="none" /><path d="M 7.03,7.44 L 7.03,7.52 L 8.97,8.48 L 9.04,8.48 L 10.94,7.52 L 11.05,7.52 L 11.98,8.00 L 12.99,7.52 L 12.95,7.44 L 12.06,7.00 L 11.94,7.00 L 11.01,7.48 L 10.05,7.00 L 9.93,7.00 L 9.00,7.48 L 8.07,7.00 L 7.93,7.00 Z" fill="#4b9282" stroke="none" /><path d="M 5.95,7.00 L 5.02,7.48 L 5.02,7.52 L 5.92,7.96 L 5.88,8.04 L 5.02,8.45 L 5.02,8.52 L 5.92,8.97 L 6.07,8.97 L 6.96,8.52 L 6.96,8.45 L 6.07,8.00 L 6.10,7.93 L 6.96,7.52 L 6.96,7.44 L 6.07,7.00 Z" fill="#4b9282" stroke="none" /><path d="M 9.97,4.95 L 9.08,4.50 L 8.93,4.50 L 6.03,5.95 L 6.03,5.99 L 6.96,6.47 L 7.07,6.47 L 9.97,5.02 Z" fill="#4b9282" stroke="none" /><path d="M 19.01,4.47 L 19.01,4.50 L 21.99,5.99 L 23.00,5.51 L 23.00,5.47 L 20.02,3.98 Z" fill="#4b9282" stroke="none" /><path d="M 12.99,3.46 L 11.98,2.98 L 10.05,3.94 L 10.05,4.02 L 10.94,4.47 L 11.09,4.47 L 12.95,3.53 Z" fill="#4b9282" stroke="none" /><path d="M 17.93,1.93 L 17.04,1.49 L 16.97,1.49 L 15.07,2.46 L 14.96,2.46 L 14.03,1.97 L 13.02,2.46 L 13.06,2.53 L 13.95,2.98 L 14.07,2.98 L 15.00,2.49 L 15.96,2.98 L 14.03,3.94 L 14.03,4.02 L 14.92,4.47 L 14.88,4.54 L 14.03,4.95 L 14.03,5.02 L 14.92,5.47 L 14.88,5.54 L 14.03,5.95 L 14.07,6.03 L 14.96,6.47 L 15.07,6.47 L 15.96,6.03 L 15.96,5.95 L 15.07,5.51 L 15.11,5.43 L 15.96,5.02 L 15.96,4.95 L 15.11,4.54 L 15.07,4.47 L 17.00,3.50 L 17.00,3.46 L 16.04,2.98 L 17.97,2.01 Z" fill="#4b9282" stroke="none" /><path d="M 12.02,15.22 L 12.02,16.45 L 13.95,17.41 L 13.99,17.45 L 13.99,18.64 L 14.92,19.13 L 15.00,19.13 L 15.00,16.71 Z" fill="#4ea98e" stroke="none" /><path d="M 17.00,14.47 L 17.00,14.51 L 17.97,15.00 L 18.98,14.51 L 18.94,14.44 L 18.05,13.99 L 17.93,13.99 Z" fill="#4ea98e" stroke="none" /><path d="M 7.00,12.73 L 7.00,13.95 L 8.00,14.44 L 8.00,13.21 L 7.07,12.73 Z" fill="#4ea98e" stroke="none" /><path d="M 18.05,12.95 L 18.05,13.02 L 18.94,13.47 L 19.05,13.47 L 19.98,12.99 L 19.98,12.95 L 19.09,12.50 L 18.94,12.50 Z" fill="#4ea98e" stroke="none" /><path d="M 1.00,9.71 L 1.00,10.94 L 3.01,11.94 L 3.01,10.72 Z" fill="#4ea98e" stroke="none" /><path d="M 25.04,9.45 L 25.04,9.53 L 25.93,9.97 L 26.05,9.97 L 26.98,9.49 L 26.98,9.45 L 26.08,9.00 L 25.93,9.00 Z" fill="#4ea98e" stroke="none" /><path d="M 21.99,7.96 L 21.99,8.00 L 22.96,8.48 L 23.03,8.48 L 24.00,8.00 L 24.00,7.96 L 23.03,7.48 L 22.96,7.48 Z" fill="#4ea98e" stroke="none" /><path d="M 10.01,7.96 L 10.01,8.00 L 10.98,8.48 L 11.05,8.48 L 11.98,8.00 L 11.98,7.96 L 11.01,7.48 Z" fill="#4ea98e" stroke="none" /><path d="M 14.03,6.96 L 14.07,7.03 L 14.96,7.48 L 15.03,7.48 L 15.96,7.00 L 16.04,7.00 L 16.97,7.48 L 17.04,7.48 L 17.97,7.00 L 17.97,6.96 L 17.00,6.47 L 16.04,6.96 L 15.96,6.96 L 15.03,6.47 Z" fill="#4ea98e" stroke="none" /><path d="M 5.99,6.96 L 4.99,6.47 L 2.01,7.96 L 2.01,8.00 L 5.02,9.49 L 5.99,9.00 L 5.99,8.97 L 4.06,8.00 L 4.13,7.93 L 5.95,7.03 Z" fill="#4ea98e" stroke="none" /><path d="M 25.00,6.47 L 25.00,6.51 L 25.97,7.00 L 26.98,6.51 L 26.94,6.44 L 26.05,5.99 L 25.93,5.99 Z" fill="#4ea98e" stroke="none" /><path d="M 15.96,3.98 L 15.00,4.47 L 15.00,4.50 L 15.96,4.99 L 15.00,5.47 L 15.00,5.51 L 15.96,5.99 L 16.04,5.99 L 17.00,5.51 L 17.00,5.47 L 16.04,4.99 L 17.00,4.50 L 17.00,4.47 L 16.04,3.98 Z" fill="#4ea98e" stroke="none" /><path d="M 9.00,4.47 L 9.00,4.50 L 9.97,4.99 L 10.05,4.99 L 11.01,4.50 L 11.01,4.47 L 10.05,3.98 L 9.97,3.98 Z" fill="#4ea98e" stroke="none" /><path d="M 19.01,3.46 L 19.05,3.53 L 19.94,3.98 L 20.06,3.98 L 20.99,3.50 L 20.99,3.46 L 20.02,2.98 Z" fill="#4ea98e" stroke="none" /><path d="M 16.97,1.45 L 16.07,1.00 L 15.93,1.00 L 14.07,1.93 L 14.03,2.01 L 15.03,2.49 L 16.97,1.53 Z" fill="#4ea98e" stroke="none" /><path d="M 11.01,14.73 L 11.01,15.89 L 10.98,15.93 L 10.01,15.44 L 10.01,16.67 L 11.94,17.64 L 12.02,17.64 L 12.02,15.22 L 11.09,14.73 Z" fill="#58b090" stroke="none" /><path d="M 18.01,13.95 L 18.05,14.03 L 18.94,14.47 L 19.05,14.47 L 19.98,13.99 L 19.98,13.95 L 19.01,13.47 Z" fill="#58b090" stroke="none" /><path d="M 4.99,12.95 L 4.99,14.14 L 5.92,14.62 L 5.99,14.62 L 5.99,13.43 L 5.06,12.95 Z" fill="#58b090" stroke="none" /><path d="M 16.04,11.94 L 16.04,12.02 L 16.93,12.47 L 17.08,12.47 L 17.97,12.02 L 17.97,11.94 L 17.08,11.50 L 16.93,11.50 Z" fill="#58b090" stroke="none" /><path d="M 12.02,11.98 L 12.02,12.02 L 12.91,12.47 L 13.06,12.47 L 13.95,12.02 L 13.95,11.94 L 13.06,11.50 L 12.95,11.50 Z" fill="#58b090" stroke="none" /><path d="M 23.00,11.46 L 21.99,10.98 L 19.01,12.47 L 19.01,12.50 L 20.02,12.99 L 23.00,11.50 Z" fill="#58b090" stroke="none" /><path d="M 24.04,10.94 L 24.04,11.01 L 24.93,11.46 L 25.08,11.46 L 25.97,11.01 L 25.93,10.94 L 25.04,10.49 L 24.93,10.49 Z" fill="#58b090" stroke="none" /><path d="M 0.00,10.46 L 0.00,11.65 L 0.93,12.13 L 1.00,12.13 L 1.00,10.94 L 0.07,10.46 Z" fill="#58b090" stroke="none" /><path d="M 15.03,9.45 L 15.03,9.53 L 15.93,9.97 L 16.07,9.97 L 16.97,9.53 L 16.97,9.45 L 16.07,9.00 L 15.93,9.00 Z" fill="#58b090" stroke="none" /><path d="M 5.02,9.45 L 5.06,9.53 L 5.95,9.97 L 6.07,9.97 L 6.96,9.53 L 6.96,9.45 L 6.07,9.00 L 5.92,9.00 Z" fill="#58b090" stroke="none" /><path d="M 9.04,8.45 L 9.04,8.52 L 9.93,8.97 L 10.08,8.97 L 10.98,8.52 L 10.98,8.45 L 10.08,8.00 L 9.93,8.00 Z" fill="#58b090" stroke="none" /><path d="M 7.93,8.00 L 7.03,8.45 L 7.03,8.52 L 7.93,8.97 L 7.89,9.04 L 7.03,9.45 L 7.03,9.53 L 7.93,9.97 L 8.07,9.97 L 8.97,9.53 L 8.97,9.45 L 8.07,9.00 L 8.11,8.93 L 8.97,8.52 L 8.97,8.45 L 8.07,8.00 Z" fill="#58b090" stroke="none" /><path d="M 0.00,8.00 L 0.00,9.23 L 1.00,9.71 L 1.00,8.48 L 0.07,8.00 Z" fill="#58b090" stroke="none" /><path d="M 17.04,7.44 L 17.04,7.52 L 17.93,7.96 L 17.90,8.04 L 17.04,8.45 L 17.04,8.52 L 17.93,8.97 L 18.08,8.97 L 19.01,8.48 L 19.94,8.97 L 20.06,8.97 L 20.99,8.48 L 21.92,8.97 L 22.07,8.97 L 22.96,8.52 L 22.96,8.45 L 21.02,7.48 L 20.06,7.96 L 19.94,7.96 L 18.05,7.00 L 17.93,7.00 Z" fill="#58b090" stroke="none" /><path d="M 14.96,7.44 L 14.07,7.00 L 13.95,7.00 L 11.05,8.45 L 11.05,8.52 L 11.94,8.97 L 12.06,8.97 L 14.96,7.52 Z" fill="#58b090" stroke="none" /><path d="M 29.99,7.96 L 26.98,6.47 L 26.01,6.96 L 26.01,7.00 L 27.87,7.93 L 27.94,8.00 L 27.91,8.04 L 26.05,8.97 L 25.97,8.97 L 24.07,8.00 L 23.93,8.00 L 23.03,8.45 L 23.03,8.52 L 24.97,9.49 L 25.04,9.49 L 25.97,9.00 L 26.05,9.00 L 27.94,9.97 L 28.06,9.97 L 28.99,9.49 L 28.99,9.45 L 28.13,9.04 L 28.06,8.97 L 29.99,8.00 Z" fill="#58b090" stroke="none" /><path d="M 5.02,6.47 L 5.02,6.51 L 6.96,7.48 L 7.03,7.48 L 8.97,6.51 L 8.93,6.44 L 8.04,5.99 L 7.96,5.99 L 7.03,6.47 L 6.07,5.99 L 5.95,5.99 Z" fill="#58b090" stroke="none" /><path d="M 17.97,5.95 L 17.08,5.51 L 16.93,5.51 L 15.07,6.44 L 15.03,6.51 L 15.93,6.96 L 16.07,6.96 L 17.93,6.03 Z" fill="#58b090" stroke="none" /><path d="M 20.02,3.98 L 20.02,4.02 L 23.96,5.99 L 24.04,5.99 L 25.00,5.51 L 25.00,5.47 L 21.06,3.50 L 20.95,3.50 Z" fill="#58b090" stroke="none" /><path d="M 16.04,3.94 L 16.04,4.02 L 16.93,4.47 L 17.08,4.47 L 17.97,4.02 L 17.97,3.94 L 17.08,3.50 L 16.93,3.50 Z" fill="#58b090" stroke="none" /><path d="M 12.02,3.98 L 12.02,4.02 L 12.91,4.47 L 13.06,4.47 L 13.95,4.02 L 13.95,3.94 L 13.06,3.50 L 12.95,3.50 Z" fill="#58b090" stroke="none" /><path d="M 17.04,1.45 L 17.04,1.53 L 18.98,2.49 L 19.98,2.01 L 19.94,1.93 L 18.08,1.00 L 17.93,1.00 Z" fill="#58b090" stroke="none" /><path d="M 15.03,0.45 L 15.03,0.52 L 15.93,0.97 L 16.07,0.97 L 16.97,0.52 L 16.97,0.45 L 16.07,0.00 L 15.93,0.00 Z" fill="#58b090" stroke="none" /><path d="M 5.99,13.43 L 5.99,14.66 L 9.93,16.63 L 10.01,16.63 L 10.01,15.44 L 9.97,15.40 Z" fill="#6dc39d" stroke="none" /><path d="M 16.04,12.95 L 16.04,13.02 L 16.93,13.47 L 17.08,13.47 L 17.97,13.02 L 17.97,12.95 L 17.08,12.50 L 16.93,12.50 Z" fill="#6dc39d" stroke="none" /><path d="M 25.00,11.46 L 24.04,10.98 L 23.96,10.98 L 19.05,13.43 L 19.01,13.51 L 20.02,13.99 L 25.00,11.50 Z" fill="#6dc39d" stroke="none" /><path d="M 27.98,9.97 L 27.05,9.49 L 26.94,9.49 L 25.00,10.46 L 25.00,10.49 L 25.93,10.98 L 26.05,10.98 L 27.98,10.01 Z" fill="#6dc39d" stroke="none" /><path d="M 8.00,9.97 L 8.00,10.01 L 11.94,11.98 L 12.06,11.98 L 12.99,11.50 L 12.99,11.46 L 9.04,9.49 L 8.97,9.49 Z" fill="#6dc39d" stroke="none" /><path d="M 0.00,9.23 L 0.00,10.46 L 1.00,10.94 L 1.00,9.71 L 0.07,9.23 Z" fill="#6dc39d" stroke="none" /><path d="M 16.97,8.48 L 16.00,8.97 L 16.00,9.00 L 16.97,9.49 L 16.00,9.97 L 16.00,10.01 L 16.86,10.42 L 16.93,10.49 L 16.04,10.94 L 16.04,11.01 L 16.93,11.46 L 17.08,11.46 L 17.97,11.01 L 17.93,10.94 L 17.04,10.49 L 17.12,10.42 L 17.97,10.01 L 17.97,9.97 L 17.04,9.49 L 18.01,9.00 L 18.01,8.97 L 17.04,8.48 Z" fill="#6dc39d" stroke="none" /><path d="M 26.01,7.96 L 26.01,8.00 L 26.98,8.48 L 27.05,8.48 L 27.98,8.00 L 27.98,7.96 L 27.01,7.48 Z" fill="#6dc39d" stroke="none" /><path d="M 5.99,7.96 L 5.99,8.00 L 6.96,8.48 L 7.03,8.48 L 8.00,8.00 L 8.00,7.96 L 7.03,7.48 L 6.96,7.48 Z" fill="#6dc39d" stroke="none" /><path d="M 16.04,4.95 L 16.04,5.02 L 16.93,5.47 L 17.08,5.47 L 17.97,5.02 L 17.97,4.95 L 17.08,4.50 L 16.93,4.50 Z" fill="#6dc39d" stroke="none" /><path d="M 12.99,4.47 L 11.98,3.98 L 8.04,5.95 L 8.04,6.03 L 8.93,6.47 L 9.04,6.47 L 12.99,4.50 Z" fill="#6dc39d" stroke="none" /><path d="M 16.04,2.94 L 16.04,3.01 L 16.93,3.46 L 17.08,3.46 L 17.97,3.01 L 17.93,2.94 L 17.04,2.49 L 16.93,2.49 Z" fill="#6dc39d" stroke="none" /><path d="M 19.01,2.46 L 19.05,2.53 L 29.88,7.93 L 29.92,7.96 L 29.88,8.04 L 28.02,8.97 L 28.02,9.00 L 28.99,9.49 L 32.00,8.00 L 32.00,7.96 L 20.02,1.97 Z" fill="#6dc39d" stroke="none" /><path d="M 16.00,0.97 L 16.00,1.00 L 16.97,1.49 L 17.04,1.49 L 18.01,1.00 L 18.01,0.97 L 17.04,0.48 L 16.97,0.48 Z" fill="#6dc39d" stroke="none" /></svg>