<svg height="32" width="32" viewBox="0 0 32 32"><defs /><path d="M 20.69,26.68 L 20.62,26.68 L 18.01,27.98 L 17.97,28.02 L 17.97,29.12 L 20.69,27.78 Z" fill="#1a2d25" stroke="none" /><path d="M 20.69,21.15 L 15.30,23.83 L 15.30,27.15 L 16.20,26.71 L 16.20,24.54 L 16.27,24.47 L 20.65,22.29 L 20.69,22.26 Z" fill="#1a2d25" stroke="none" /><path d="M 27.88,17.57 L 27.82,17.57 L 22.49,20.25 L 22.49,26.85 L 22.56,26.85 L 25.17,25.54 L 25.17,24.44 L 25.10,24.44 L 23.46,25.27 L 23.40,25.24 L 23.40,20.92 L 27.88,18.68 Z" fill="#1a2d25" stroke="none" /><path d="M 17.97,17.00 L 15.30,18.34 L 15.30,21.62 L 15.36,21.62 L 16.20,21.19 L 16.20,19.01 L 16.27,18.95 L 17.97,18.11 Z" fill="#1a2d25" stroke="none" /><path d="M 20.69,12.35 L 20.62,12.35 L 18.01,13.66 L 17.97,13.69 L 17.97,14.79 L 20.69,13.46 Z" fill="#1a2d25" stroke="none" /><path d="M 27.88,12.05 L 25.17,13.39 L 25.17,14.49 L 26.91,13.62 L 26.98,13.66 L 26.98,15.80 L 27.88,15.36 Z" fill="#1a2d25" stroke="none" /><path d="M 25.17,10.11 L 25.10,10.11 L 22.49,11.41 L 22.49,18.04 L 23.40,17.61 L 23.40,12.12 L 23.46,12.05 L 25.17,11.21 Z" fill="#1a2d25" stroke="none" /><path d="M 19.78,28.22 L 18.88,28.65 L 18.88,29.76 L 19.78,29.32 Z" fill="#1f362d" stroke="none" /><path d="M 24.30,25.97 L 24.23,25.97 L 20.69,27.75 L 20.69,28.85 L 24.27,27.08 L 24.30,27.05 Z" fill="#1f362d" stroke="none" /><path d="M 26.98,24.64 L 26.91,24.64 L 26.08,25.07 L 26.08,26.14 L 26.14,26.14 L 26.98,25.71 Z" fill="#1f362d" stroke="none" /><path d="M 17.04,24.07 L 16.20,24.50 L 16.20,26.68 L 16.27,26.68 L 17.94,25.84 L 17.97,25.87 L 17.97,28.02 L 18.01,28.02 L 18.88,27.58 L 18.88,25.37 L 18.81,25.37 L 18.01,25.77 L 17.97,25.74 L 17.97,24.70 L 17.14,25.10 L 17.10,25.07 L 17.10,24.07 Z" fill="#1f362d" stroke="none" /><path d="M 20.69,22.26 L 19.78,22.69 L 19.78,27.11 L 20.69,26.68 Z" fill="#1f362d" stroke="none" /><path d="M 24.30,20.45 L 23.40,20.89 L 23.40,21.99 L 24.30,21.56 Z" fill="#1f362d" stroke="none" /><path d="M 27.88,18.68 L 27.82,18.68 L 26.08,19.55 L 26.08,20.62 L 26.01,20.69 L 25.17,21.09 L 25.17,22.19 L 24.30,22.63 L 24.30,24.84 L 24.37,24.84 L 25.17,24.44 L 25.17,22.23 L 27.82,20.89 L 27.88,20.92 L 27.88,23.06 L 28.79,22.63 L 28.79,20.42 L 28.72,20.42 L 27.95,20.82 L 27.88,20.79 Z" fill="#1f362d" stroke="none" /><path d="M 20.69,16.74 L 19.78,17.17 L 19.78,18.28 L 19.75,18.31 L 17.14,19.62 L 17.10,19.58 L 17.10,18.54 L 17.04,18.54 L 16.23,18.95 L 16.20,18.98 L 16.20,21.19 L 20.65,18.98 L 20.69,18.95 Z" fill="#1f362d" stroke="none" /><path d="M 18.88,14.36 L 18.81,14.36 L 17.97,14.79 L 17.97,18.08 L 18.04,18.08 L 18.88,17.64 Z" fill="#1f362d" stroke="none" /><path d="M 26.98,13.59 L 26.08,14.03 L 26.08,15.13 L 26.04,15.16 L 23.40,16.47 L 23.40,17.57 L 23.46,17.57 L 26.98,15.80 Z" fill="#1f362d" stroke="none" /><path d="M 20.69,13.46 L 20.62,13.46 L 19.78,13.89 L 19.78,15.00 L 20.69,14.56 Z" fill="#1f362d" stroke="none" /><path d="M 25.17,11.21 L 25.10,11.21 L 24.30,11.62 L 24.30,14.93 L 25.17,14.49 Z" fill="#1f362d" stroke="none" /><path d="M 28.79,10.51 L 28.72,10.51 L 27.88,10.95 L 27.88,17.54 L 27.95,17.54 L 28.79,17.10 Z" fill="#1f362d" stroke="none" /><path d="M 18.88,28.69 L 18.81,28.69 L 15.33,30.43 L 15.30,30.46 L 15.30,31.53 L 15.36,31.53 L 18.85,29.79 L 18.88,29.76 Z" fill="#1e3a2f" stroke="none" /><path d="M 20.69,27.78 L 20.62,27.78 L 19.78,28.22 L 19.78,29.29 L 19.85,29.29 L 20.69,28.85 Z" fill="#1e3a2f" stroke="none" /><path d="M 26.08,25.07 L 24.30,25.94 L 24.30,27.05 L 26.08,26.18 Z" fill="#1e3a2f" stroke="none" /><path d="M 19.78,22.73 L 19.72,22.73 L 17.10,24.03 L 17.10,25.14 L 17.94,24.74 L 17.97,24.77 L 17.97,25.81 L 18.85,25.37 L 18.88,25.41 L 18.88,27.55 L 18.95,27.55 L 19.78,27.11 Z" fill="#1e3a2f" stroke="none" /><path d="M 28.79,22.63 L 28.72,22.63 L 27.88,23.06 L 27.88,24.13 L 27.82,24.20 L 26.98,24.60 L 26.98,25.71 L 28.79,24.80 Z" fill="#1e3a2f" stroke="none" /><path d="M 26.08,19.58 L 26.01,19.58 L 24.33,20.42 L 24.30,20.45 L 24.30,21.52 L 23.40,21.99 L 23.40,25.31 L 24.30,24.87 L 24.30,22.66 L 25.17,22.23 L 25.17,21.12 L 26.08,20.65 Z" fill="#1e3a2f" stroke="none" /><path d="M 28.79,17.10 L 27.88,17.54 L 27.88,20.85 L 28.79,20.42 Z" fill="#1e3a2f" stroke="none" /><path d="M 19.78,13.89 L 18.88,14.33 L 18.88,17.61 L 18.81,17.67 L 17.10,18.51 L 17.10,19.62 L 17.17,19.62 L 19.78,18.31 L 19.78,17.21 L 20.69,16.74 L 20.69,14.56 L 20.62,14.56 L 19.82,14.96 L 19.78,14.93 Z" fill="#1e3a2f" stroke="none" /><path d="M 24.30,11.65 L 24.23,11.65 L 23.40,12.08 L 23.40,16.47 L 23.46,16.47 L 26.08,15.16 L 26.08,14.06 L 26.01,14.06 L 24.37,14.90 L 24.30,14.86 Z" fill="#1e3a2f" stroke="none" /><path d="M 28.79,8.30 L 28.72,8.30 L 27.88,8.74 L 27.88,10.95 L 28.79,10.51 Z" fill="#1e3a2f" stroke="none" /><path d="M 22.49,18.04 L 20.69,18.95 L 20.69,21.15 L 22.49,20.25 Z" fill="#204236" stroke="none" /><path d="M 17.97,26.91 L 17.10,27.35 L 17.10,28.45 L 17.97,28.02 Z" fill="#214439" stroke="none" /><path d="M 26.98,22.43 L 26.91,22.43 L 26.08,22.86 L 26.08,23.97 L 26.98,23.53 Z" fill="#214439" stroke="none" /><path d="M 17.97,15.90 L 17.10,16.33 L 17.10,17.44 L 17.97,17.00 Z" fill="#214439" stroke="none" /><path d="M 26.98,11.41 L 26.91,11.41 L 26.08,11.85 L 26.08,12.95 L 26.98,12.52 Z" fill="#214439" stroke="none" /><path d="M 28.79,7.20 L 28.72,7.20 L 27.88,7.63 L 27.88,8.74 L 28.79,8.30 Z" fill="#214439" stroke="none" /><path d="M 16.20,26.71 L 16.13,26.71 L 15.30,27.15 L 15.30,28.25 L 16.20,27.82 Z" fill="#2c5540" stroke="none" /><path d="M 22.49,24.67 L 22.43,24.67 L 21.59,25.10 L 21.59,26.21 L 22.49,25.77 Z" fill="#2c5540" stroke="none" /><path d="M 27.88,15.36 L 27.82,15.36 L 26.98,15.80 L 26.98,16.87 L 26.91,16.94 L 26.08,17.34 L 26.08,18.44 L 26.14,18.44 L 27.88,17.57 Z" fill="#2c5540" stroke="none" /><path d="M 27.88,10.95 L 26.98,11.38 L 26.98,12.49 L 27.05,12.49 L 27.88,12.05 Z" fill="#2c5540" stroke="none" /><path d="M 27.88,7.63 L 26.98,8.07 L 26.98,9.17 L 26.95,9.21 L 25.17,10.08 L 25.17,11.18 L 25.24,11.18 L 26.98,10.31 L 26.98,9.21 L 27.88,8.74 Z" fill="#2c5540" stroke="none" /><path d="M 3.62,24.44 L 3.62,25.54 L 6.23,26.85 L 6.29,26.85 L 6.29,25.74 L 3.68,24.44 Z" fill="#305345" stroke="none" /><path d="M 8.10,21.15 L 8.10,27.78 L 10.81,29.12 L 10.81,28.02 L 9.07,27.15 L 9.00,27.08 L 9.00,22.76 L 9.04,22.73 L 13.42,24.94 L 13.49,24.94 L 13.49,23.83 Z" fill="#305345" stroke="none" /><path d="M 0.90,17.57 L 0.90,20.85 L 0.94,20.89 L 1.74,21.29 L 1.81,21.29 L 1.81,19.18 L 1.87,19.15 L 6.29,21.36 L 6.29,20.25 L 6.26,20.22 L 0.97,17.57 Z" fill="#305345" stroke="none" /><path d="M 10.81,17.00 L 10.81,18.11 L 12.52,18.95 L 12.59,19.01 L 12.59,21.19 L 13.42,21.62 L 13.49,21.62 L 13.49,18.34 Z" fill="#305345" stroke="none" /><path d="M 8.10,12.35 L 8.10,18.95 L 8.94,19.38 L 9.00,19.38 L 9.00,13.96 L 9.07,13.92 L 10.81,14.79 L 10.81,13.69 L 8.17,12.35 Z" fill="#305345" stroke="none" /><path d="M 0.90,12.05 L 0.90,15.36 L 1.81,15.80 L 1.81,13.66 L 1.87,13.62 L 3.62,14.49 L 3.62,13.39 Z" fill="#305345" stroke="none" /><path d="M 9.00,10.78 L 9.00,10.81 L 11.62,12.12 L 11.75,12.12 L 14.36,10.81 L 14.36,10.74 L 13.56,10.34 L 13.46,10.34 L 11.75,11.21 L 11.65,11.21 L 9.94,10.34 L 9.84,10.34 Z" fill="#305345" stroke="none" /><path d="M 3.62,10.11 L 3.62,11.21 L 6.23,12.52 L 6.29,12.52 L 6.29,11.41 L 3.68,10.11 Z" fill="#305345" stroke="none" /><path d="M 24.27,8.50 L 23.46,8.10 L 23.33,8.10 L 20.72,9.41 L 20.72,9.47 L 21.52,9.87 L 21.66,9.87 L 24.27,8.57 Z" fill="#305345" stroke="none" /><path d="M 13.52,8.50 L 13.52,8.57 L 17.94,10.78 L 17.87,10.85 L 16.23,11.65 L 16.23,11.72 L 17.04,12.12 L 17.17,12.12 L 19.78,10.81 L 19.75,10.74 L 14.46,8.10 L 14.33,8.10 Z" fill="#305345" stroke="none" /><path d="M 20.69,4.92 L 20.69,4.95 L 22.43,5.82 L 22.39,5.89 L 20.72,6.73 L 20.72,6.76 L 21.52,7.16 L 21.66,7.16 L 24.27,5.86 L 24.23,5.79 L 21.62,4.49 L 21.56,4.49 Z" fill="#305345" stroke="none" /><path d="M 4.52,5.82 L 4.52,5.86 L 5.42,6.29 L 7.20,5.39 L 10.68,7.13 L 10.74,7.20 L 6.33,9.41 L 6.33,9.47 L 7.13,9.87 L 7.26,9.87 L 12.59,7.20 L 12.59,7.16 L 7.23,4.49 L 7.16,4.49 Z" fill="#305345" stroke="none" /><path d="M 19.78,3.58 L 17.14,2.24 L 17.04,2.24 L 16.23,2.64 L 16.20,2.71 L 17.94,3.58 L 17.87,3.65 L 13.49,5.82 L 13.49,5.86 L 14.36,6.29 L 14.43,6.29 L 19.78,3.62 Z" fill="#305345" stroke="none" /><path d="M 12.59,2.68 L 11.75,2.24 L 11.65,2.24 L 9.04,3.55 L 9.00,3.62 L 9.91,4.05 L 12.59,2.71 Z" fill="#305345" stroke="none" /><path d="M 17.97,25.81 L 17.10,26.24 L 17.10,27.31 L 17.04,27.38 L 15.30,28.25 L 15.30,29.36 L 17.04,28.49 L 17.10,28.52 L 17.10,29.56 L 17.97,29.12 L 17.97,28.02 L 17.17,28.42 L 17.10,28.38 L 17.10,27.38 L 17.17,27.31 L 17.97,26.91 Z" fill="#284e46" stroke="none" /><path d="M 22.49,25.77 L 22.43,25.77 L 21.59,26.21 L 21.59,27.31 L 22.49,26.88 Z" fill="#284e46" stroke="none" /><path d="M 26.98,21.32 L 26.91,21.32 L 26.08,21.76 L 26.08,22.83 L 26.01,22.90 L 25.17,23.30 L 25.17,24.40 L 25.24,24.40 L 26.08,23.97 L 26.08,22.90 L 26.14,22.83 L 26.98,22.43 Z" fill="#284e46" stroke="none" /><path d="M 22.49,16.94 L 20.72,17.81 L 20.69,17.84 L 20.69,18.91 L 20.62,18.98 L 19.78,19.38 L 19.78,21.59 L 19.85,21.59 L 20.69,21.15 L 20.69,18.98 L 20.75,18.91 L 22.49,18.04 Z" fill="#284e46" stroke="none" /><path d="M 26.98,15.80 L 26.08,16.23 L 26.08,17.34 L 26.14,17.34 L 26.98,16.90 Z" fill="#284e46" stroke="none" /><path d="M 17.97,14.79 L 17.10,15.23 L 17.10,16.30 L 17.04,16.37 L 16.20,16.77 L 16.20,17.87 L 16.27,17.87 L 17.10,17.44 L 17.10,16.37 L 17.17,16.30 L 17.97,15.90 Z" fill="#284e46" stroke="none" /><path d="M 21.59,11.88 L 20.69,12.32 L 20.69,13.42 L 20.75,13.42 L 21.59,12.99 Z" fill="#284e46" stroke="none" /><path d="M 27.88,8.74 L 26.98,9.17 L 26.98,10.28 L 26.08,10.74 L 26.08,11.82 L 26.01,11.88 L 25.17,12.28 L 25.17,13.39 L 25.24,13.39 L 26.08,12.95 L 26.08,11.88 L 26.14,11.82 L 27.88,10.95 Z" fill="#284e46" stroke="none" /><path d="M 17.10,28.45 L 15.30,29.36 L 15.30,30.46 L 17.10,29.56 Z" fill="#2a5b4c" stroke="none" /><path d="M 21.59,26.21 L 20.69,26.64 L 20.69,27.75 L 20.75,27.75 L 21.59,27.31 Z" fill="#2a5b4c" stroke="none" /><path d="M 22.49,22.46 L 22.43,22.46 L 21.59,22.90 L 21.59,25.10 L 22.49,24.67 Z" fill="#2a5b4c" stroke="none" /><path d="M 27.88,20.85 L 26.98,21.29 L 26.98,23.50 L 25.17,24.40 L 25.17,25.51 L 25.24,25.51 L 27.88,24.17 Z" fill="#2a5b4c" stroke="none" /><path d="M 17.10,20.75 L 17.04,20.75 L 16.20,21.19 L 16.20,22.29 L 17.10,21.86 Z" fill="#2a5b4c" stroke="none" /><path d="M 19.78,19.41 L 19.72,19.41 L 17.97,20.28 L 17.97,22.49 L 18.04,22.49 L 19.78,21.62 Z" fill="#2a5b4c" stroke="none" /><path d="M 26.08,16.27 L 26.01,16.27 L 23.40,17.57 L 23.40,19.78 L 23.46,19.78 L 24.30,19.35 L 24.30,18.28 L 24.37,18.21 L 26.08,17.37 Z" fill="#2a5b4c" stroke="none" /><path d="M 22.49,14.76 L 22.43,14.76 L 21.59,15.20 L 21.59,16.27 L 21.66,16.27 L 22.49,15.83 Z" fill="#2a5b4c" stroke="none" /><path d="M 21.59,12.99 L 20.69,13.42 L 20.69,14.53 L 20.75,14.53 L 21.59,14.09 Z" fill="#2a5b4c" stroke="none" /><path d="M 26.98,8.10 L 26.91,8.10 L 26.08,8.54 L 26.08,9.64 L 26.98,9.21 Z" fill="#2a5b4c" stroke="none" /><path d="M 15.30,30.46 L 14.39,30.90 L 14.39,32.00 L 15.30,31.56 Z" fill="#2f5e4d" stroke="none" /><path d="M 15.30,27.15 L 14.39,27.58 L 14.39,29.79 L 14.46,29.79 L 15.30,29.36 Z" fill="#2f5e4d" stroke="none" /><path d="M 22.49,21.36 L 20.69,22.26 L 20.69,26.64 L 20.75,26.64 L 21.59,26.21 L 21.59,22.93 L 21.66,22.86 L 22.49,22.46 Z" fill="#2f5e4d" stroke="none" /><path d="M 17.97,20.32 L 17.91,20.32 L 17.10,20.72 L 17.10,21.82 L 16.27,22.26 L 16.20,22.23 L 16.20,21.19 L 15.30,21.62 L 15.30,23.83 L 15.36,23.83 L 17.97,22.53 Z" fill="#2f5e4d" stroke="none" /><path d="M 26.08,17.37 L 26.01,17.37 L 24.30,18.24 L 24.30,19.35 L 26.08,18.48 Z" fill="#2f5e4d" stroke="none" /><path d="M 17.97,12.59 L 17.10,13.02 L 17.10,14.09 L 17.04,14.16 L 15.30,15.03 L 15.30,18.34 L 16.20,17.91 L 16.20,15.70 L 17.97,14.79 Z" fill="#2f5e4d" stroke="none" /><path d="M 22.49,11.45 L 22.43,11.45 L 21.59,11.88 L 21.59,14.06 L 21.52,14.13 L 20.69,14.53 L 20.69,17.84 L 22.49,16.94 L 22.49,15.83 L 21.62,16.27 L 21.59,16.23 L 21.59,15.23 L 21.66,15.16 L 22.49,14.76 Z" fill="#2f5e4d" stroke="none" /><path d="M 20.69,11.25 L 20.62,11.25 L 19.78,11.68 L 19.78,12.79 L 20.69,12.35 Z" fill="#2f5e4d" stroke="none" /><path d="M 26.08,8.54 L 25.17,8.97 L 25.17,10.08 L 25.24,10.08 L 26.08,9.64 Z" fill="#2f5e4d" stroke="none" /><path d="M 23.40,17.61 L 23.33,17.61 L 22.49,18.04 L 22.49,20.22 L 22.43,20.28 L 20.69,21.15 L 20.69,22.26 L 22.46,21.39 L 22.49,21.36 L 22.49,20.28 L 22.56,20.22 L 23.40,19.82 Z" fill="#376653" stroke="none" /><path d="M 11.68,29.56 L 11.68,30.66 L 12.59,31.10 L 12.59,29.99 Z" fill="#3a6554" stroke="none" /><path d="M 6.29,26.88 L 6.29,27.95 L 6.33,27.98 L 9.91,29.76 L 9.91,28.65 L 6.36,26.88 Z" fill="#3a6554" stroke="none" /><path d="M 4.49,25.97 L 4.49,27.05 L 5.32,27.48 L 5.39,27.48 L 5.39,26.41 L 4.55,25.97 Z" fill="#3a6554" stroke="none" /><path d="M 11.68,24.07 L 11.68,25.07 L 11.65,25.10 L 10.81,24.70 L 10.81,25.74 L 10.78,25.77 L 9.97,25.37 L 9.91,25.37 L 9.91,27.58 L 10.81,28.02 L 10.81,25.87 L 10.88,25.84 L 13.42,27.11 L 13.49,27.18 L 13.49,29.36 L 14.33,29.79 L 14.39,29.79 L 14.39,27.58 L 13.56,27.18 L 13.49,27.11 L 13.49,24.94 L 11.75,24.07 Z" fill="#3a6554" stroke="none" /><path d="M 9.00,22.73 L 9.00,23.80 L 9.84,24.23 L 9.91,24.23 L 9.91,23.16 L 9.07,22.73 Z" fill="#3a6554" stroke="none" /><path d="M 5.39,20.92 L 5.39,25.31 L 6.23,25.74 L 6.29,25.74 L 6.29,21.36 L 5.46,20.92 Z" fill="#3a6554" stroke="none" /><path d="M 1.81,19.11 L 1.81,21.32 L 3.62,22.23 L 3.62,24.44 L 4.42,24.84 L 4.49,24.84 L 4.49,22.63 L 3.62,22.19 L 3.62,21.09 L 2.78,20.69 L 2.71,20.62 L 2.71,19.55 Z" fill="#3a6554" stroke="none" /><path d="M 9.00,18.31 L 9.00,19.41 L 12.59,21.19 L 12.59,18.98 L 12.55,18.95 L 11.75,18.54 L 11.68,18.54 L 11.68,19.58 L 11.65,19.62 L 9.07,18.31 Z" fill="#3a6554" stroke="none" /><path d="M 13.49,17.24 L 13.49,23.87 L 14.39,24.30 L 14.39,17.67 Z" fill="#3a6554" stroke="none" /><path d="M 9.91,14.36 L 9.91,17.64 L 10.74,18.08 L 10.81,18.08 L 10.81,14.79 L 9.97,14.36 Z" fill="#3a6554" stroke="none" /><path d="M 1.81,13.59 L 1.81,15.80 L 1.84,15.83 L 6.29,18.04 L 6.29,15.83 L 6.26,15.80 L 5.46,15.40 L 5.39,15.40 L 5.39,16.44 L 5.36,16.47 L 2.74,15.16 L 2.71,15.13 L 2.71,14.03 Z" fill="#3a6554" stroke="none" /><path d="M 5.39,12.08 L 5.39,13.19 L 6.23,13.62 L 6.29,13.62 L 6.29,12.52 Z" fill="#3a6554" stroke="none" /><path d="M 3.62,11.21 L 3.62,14.49 L 4.49,14.93 L 4.49,11.62 L 3.68,11.21 Z" fill="#3a6554" stroke="none" /><path d="M 13.52,10.31 L 13.56,10.38 L 16.17,11.68 L 16.23,11.68 L 17.07,11.25 L 17.07,11.21 L 14.46,9.91 L 14.33,9.91 Z" fill="#3a6554" stroke="none" /><path d="M 6.33,10.31 L 6.36,10.38 L 11.65,13.02 L 11.75,13.02 L 12.55,12.62 L 12.55,12.55 L 7.26,9.91 L 7.13,9.91 Z" fill="#3a6554" stroke="none" /><path d="M 19.78,8.97 L 19.78,9.00 L 20.65,9.44 L 20.72,9.44 L 21.59,9.00 L 21.59,8.97 L 20.72,8.54 L 20.65,8.54 Z" fill="#3a6554" stroke="none" /><path d="M 14.39,8.97 L 13.52,8.54 L 13.46,8.54 L 9.91,10.31 L 9.91,10.34 L 11.72,11.25 L 12.59,10.81 L 12.55,10.74 L 11.78,10.38 L 11.75,10.34 L 11.82,10.28 L 14.39,9.00 Z" fill="#3a6554" stroke="none" /><path d="M 1.81,8.07 L 1.81,8.10 L 3.55,8.97 L 3.65,8.97 L 4.45,8.57 L 4.45,8.50 L 2.71,7.63 Z" fill="#3a6554" stroke="none" /><path d="M 19.82,7.16 L 19.85,7.23 L 22.46,8.54 L 22.53,8.54 L 23.40,8.10 L 23.40,8.07 L 20.72,6.73 Z" fill="#3a6554" stroke="none" /><path d="M 9.00,7.16 L 9.04,7.23 L 9.84,7.63 L 9.94,7.63 L 10.78,7.20 L 10.78,7.16 L 9.91,6.73 Z" fill="#3a6554" stroke="none" /><path d="M 6.23,5.86 L 5.42,6.26 L 5.42,6.29 L 7.10,7.13 L 7.13,7.20 L 4.52,8.50 L 4.52,8.57 L 6.26,9.44 L 6.33,9.44 L 8.07,8.57 L 8.07,8.50 L 7.26,8.10 L 7.30,8.03 L 8.07,7.67 L 8.07,7.60 L 7.26,7.20 L 7.30,7.13 L 8.07,6.76 L 8.07,6.73 L 6.36,5.86 Z" fill="#3a6554" stroke="none" /><path d="M 1.84,6.26 L 1.84,6.33 L 2.64,6.73 L 2.74,6.73 L 3.58,6.29 L 3.58,6.26 L 2.78,5.86 L 2.64,5.86 Z" fill="#3a6554" stroke="none" /><path d="M 22.49,5.82 L 20.75,4.95 L 20.62,4.95 L 16.20,7.16 L 16.20,7.20 L 18.01,8.10 L 18.88,7.67 L 18.85,7.60 L 18.08,7.23 L 18.04,7.20 L 18.11,7.13 L 20.65,5.86 L 20.72,5.86 L 21.56,6.29 L 21.62,6.29 L 22.49,5.86 Z" fill="#3a6554" stroke="none" /><path d="M 9.91,4.02 L 9.94,4.08 L 13.42,5.82 L 13.56,5.82 L 14.36,5.42 L 14.36,5.36 L 10.81,3.58 Z" fill="#3a6554" stroke="none" /><path d="M 8.97,3.58 L 8.13,3.15 L 8.07,3.15 L 4.52,4.92 L 4.52,4.95 L 5.36,5.39 L 5.42,5.39 L 8.97,3.62 Z" fill="#3a6554" stroke="none" /><path d="M 14.43,3.55 L 14.43,3.62 L 15.23,4.02 L 15.36,4.02 L 16.13,3.62 L 16.23,3.62 L 17.10,4.05 L 17.97,3.62 L 17.94,3.55 L 16.20,2.68 Z" fill="#3a6554" stroke="none" /><path d="M 11.72,3.11 L 11.75,3.18 L 13.42,4.02 L 13.56,4.02 L 14.36,3.62 L 14.36,3.55 L 12.62,2.68 Z" fill="#3a6554" stroke="none" /><path d="M 9.00,2.68 L 9.00,2.71 L 9.87,3.15 L 10.78,2.71 L 10.74,2.64 L 9.94,2.24 L 9.87,2.24 Z" fill="#3a6554" stroke="none" /><path d="M 15.30,29.36 L 14.39,29.79 L 14.39,30.90 L 14.46,30.90 L 15.30,30.46 Z" fill="#3a6854" stroke="none" /><path d="M 17.10,26.24 L 16.20,26.68 L 16.20,27.78 L 16.27,27.78 L 17.10,27.35 Z" fill="#3a6854" stroke="none" /><path d="M 26.08,21.76 L 25.17,22.19 L 25.17,23.30 L 25.24,23.30 L 26.08,22.86 Z" fill="#3a6854" stroke="none" /><path d="M 17.10,15.23 L 16.20,15.67 L 16.20,16.77 L 16.27,16.77 L 17.10,16.33 Z" fill="#3a6854" stroke="none" /><path d="M 17.10,13.02 L 14.39,14.36 L 14.39,27.58 L 14.46,27.58 L 15.30,27.15 L 15.30,15.06 L 15.36,15.00 L 17.10,14.13 Z" fill="#3a6854" stroke="none" /><path d="M 19.78,11.68 L 17.97,12.59 L 17.97,13.69 L 19.78,12.79 Z" fill="#3a6854" stroke="none" /><path d="M 26.08,10.74 L 25.17,11.18 L 25.17,12.28 L 25.24,12.28 L 26.08,11.85 Z" fill="#3a6854" stroke="none" /><path d="M 25.17,9.00 L 25.10,9.00 L 20.69,11.21 L 20.69,12.32 L 20.75,12.32 L 25.17,10.11 Z" fill="#3a6854" stroke="none" /><path d="M 13.49,29.36 L 13.49,30.39 L 13.46,30.43 L 12.65,30.03 L 12.59,30.03 L 12.59,31.10 L 14.39,32.00 L 14.39,29.79 Z" fill="#386d58" stroke="none" /><path d="M 9.91,28.69 L 9.91,29.76 L 11.62,30.63 L 11.68,30.63 L 11.68,29.56 L 9.97,28.69 Z" fill="#386d58" stroke="none" /><path d="M 5.39,26.41 L 5.39,27.51 L 6.29,27.95 L 6.29,26.85 Z" fill="#386d58" stroke="none" /><path d="M 0.90,24.17 L 0.90,25.27 L 4.49,27.05 L 4.49,25.94 Z" fill="#386d58" stroke="none" /><path d="M 13.49,23.87 L 13.49,27.15 L 14.33,27.58 L 14.39,27.58 L 14.39,24.30 L 13.56,23.87 Z" fill="#386d58" stroke="none" /><path d="M 9.94,23.16 L 9.91,23.16 L 9.91,24.20 L 9.87,24.23 L 9.00,23.80 L 9.00,27.11 L 9.84,27.55 L 9.91,27.55 L 9.91,25.41 L 9.94,25.37 L 10.81,25.81 L 10.81,24.77 L 10.85,24.74 L 11.68,25.14 L 11.68,24.03 Z" fill="#386d58" stroke="none" /><path d="M 2.71,19.58 L 2.71,20.65 L 3.62,21.12 L 3.62,22.23 L 4.49,22.66 L 4.49,24.87 L 5.39,25.31 L 5.39,20.89 L 2.78,19.58 Z" fill="#386d58" stroke="none" /><path d="M 13.49,15.03 L 13.49,17.24 L 14.33,17.67 L 14.39,17.67 L 14.39,15.46 Z" fill="#386d58" stroke="none" /><path d="M 9.00,13.89 L 9.00,18.31 L 11.62,19.62 L 11.68,19.62 L 11.68,18.51 L 9.97,17.67 L 9.91,17.61 L 9.91,14.33 Z" fill="#386d58" stroke="none" /><path d="M 11.72,13.02 L 11.72,13.05 L 13.46,13.92 L 13.56,13.92 L 14.36,13.52 L 14.36,13.46 L 12.62,12.59 L 12.55,12.59 Z" fill="#386d58" stroke="none" /><path d="M 4.49,11.65 L 4.49,14.86 L 4.42,14.90 L 2.78,14.06 L 2.71,14.06 L 2.71,15.16 L 5.32,16.47 L 5.39,16.47 L 5.39,15.43 L 5.42,15.40 L 6.29,15.83 L 6.29,13.62 L 5.46,13.22 L 5.39,13.15 L 5.39,12.08 L 4.55,11.65 Z" fill="#386d58" stroke="none" /><path d="M 11.72,10.31 L 11.75,10.38 L 12.55,10.78 L 12.65,10.78 L 14.36,9.91 L 14.43,9.91 L 17.07,11.25 L 17.97,10.81 L 17.94,10.74 L 14.46,9.00 L 14.33,9.00 Z" fill="#386d58" stroke="none" /><path d="M 3.62,8.97 L 3.62,9.00 L 6.29,10.34 L 7.20,9.91 L 7.20,9.87 L 4.52,8.54 L 4.45,8.54 Z" fill="#386d58" stroke="none" /><path d="M 2.68,7.67 L 2.64,7.60 L 1.84,7.20 L 1.91,7.13 L 2.68,6.76 L 2.68,6.73 L 1.84,6.29 L 1.77,6.29 L 0.03,7.16 L 0.07,7.23 L 1.74,8.07 L 1.87,8.07 Z" fill="#386d58" stroke="none" /><path d="M 22.46,8.57 L 22.46,8.50 L 19.85,7.20 L 19.92,7.13 L 21.56,6.33 L 21.56,6.26 L 20.75,5.86 L 20.62,5.86 L 18.01,7.16 L 18.04,7.23 L 18.85,7.63 L 18.78,7.70 L 18.01,8.07 L 18.01,8.10 L 19.72,8.97 L 19.85,8.97 L 20.69,8.54 L 21.52,8.97 L 21.66,8.97 Z" fill="#386d58" stroke="none" /><path d="M 6.29,5.82 L 6.29,5.86 L 8.03,6.73 L 7.97,6.79 L 7.20,7.16 L 7.20,7.20 L 8.07,7.63 L 7.20,8.07 L 7.20,8.10 L 8.07,8.54 L 8.13,8.54 L 9.87,7.67 L 9.84,7.60 L 9.04,7.20 L 9.10,7.13 L 9.87,6.76 L 9.84,6.69 L 7.23,5.39 L 7.16,5.39 Z" fill="#386d58" stroke="none" /><path d="M 5.36,5.36 L 4.55,4.95 L 4.45,4.95 L 2.71,5.82 L 2.71,5.86 L 3.62,6.29 L 5.36,5.42 Z" fill="#386d58" stroke="none" /><path d="M 10.81,3.58 L 10.81,3.62 L 14.36,5.39 L 14.43,5.39 L 17.07,4.05 L 17.07,4.02 L 16.20,3.58 L 15.33,4.02 L 15.26,4.02 L 14.43,3.58 L 14.36,3.58 L 13.52,4.02 L 13.46,4.02 L 11.75,3.15 L 11.65,3.15 Z" fill="#386d58" stroke="none" /><path d="M 8.13,3.11 L 8.13,3.18 L 8.94,3.58 L 9.04,3.58 L 9.87,3.15 L 9.87,3.11 L 9.07,2.71 L 8.94,2.71 Z" fill="#386d58" stroke="none" /><path d="M 14.39,0.87 L 13.49,0.44 L 9.94,2.21 L 9.94,2.28 L 10.74,2.68 L 10.85,2.68 L 14.39,0.90 Z" fill="#386d58" stroke="none" /><path d="M 6.29,18.04 L 6.29,20.25 L 8.10,21.15 L 8.10,18.95 Z" fill="#3c7b65" stroke="none" /><path d="M 12.62,7.16 L 12.65,7.23 L 14.33,8.07 L 14.46,8.07 L 16.17,7.20 L 16.17,7.16 L 14.43,6.29 L 14.36,6.29 Z" fill="#3c7b65" stroke="none" /><path d="M 11.68,27.35 L 11.68,28.45 L 12.52,28.89 L 12.59,28.89 L 12.59,27.78 Z" fill="#3d7f6a" stroke="none" /><path d="M 2.71,22.86 L 2.71,23.97 L 3.55,24.40 L 3.62,24.40 L 3.62,23.30 Z" fill="#3d7f6a" stroke="none" /><path d="M 11.68,16.33 L 11.68,17.44 L 12.52,17.87 L 12.59,17.87 L 12.59,16.77 Z" fill="#3d7f6a" stroke="none" /><path d="M 14.43,13.49 L 14.36,13.49 L 13.49,13.92 L 13.49,15.03 L 14.33,15.46 L 14.39,15.46 L 14.39,14.39 L 15.26,13.96 L 15.23,13.89 Z" fill="#3d7f6a" stroke="none" /><path d="M 2.71,11.85 L 2.71,12.95 L 3.55,13.39 L 3.62,13.39 L 3.62,12.28 Z" fill="#3d7f6a" stroke="none" /><path d="M 12.62,11.65 L 12.62,11.72 L 13.42,12.12 L 13.56,12.12 L 14.36,11.72 L 14.36,11.65 L 13.56,11.25 L 13.42,11.25 Z" fill="#3d7f6a" stroke="none" /><path d="M 21.59,7.16 L 21.59,7.20 L 22.46,7.63 L 22.53,7.63 L 23.36,7.20 L 23.36,7.16 L 22.49,6.73 Z" fill="#3d7f6a" stroke="none" /><path d="M 3.62,7.16 L 3.65,7.23 L 4.45,7.63 L 4.55,7.63 L 5.39,7.20 L 5.39,7.16 L 4.52,6.73 Z" fill="#3d7f6a" stroke="none" /><path d="M 12.62,2.68 L 12.62,2.71 L 13.49,3.15 L 14.39,2.71 L 14.39,2.68 L 13.52,2.24 L 13.46,2.24 Z" fill="#3d7f6a" stroke="none" /><path d="M 7.20,25.10 L 7.20,26.21 L 8.03,26.64 L 8.10,26.64 L 8.10,25.54 Z" fill="#529f77" stroke="none" /><path d="M 12.59,21.19 L 12.59,22.23 L 12.55,22.26 L 11.75,21.86 L 11.68,21.86 L 11.68,22.96 L 13.42,23.83 L 13.49,23.83 L 13.49,21.62 Z" fill="#529f77" stroke="none" /><path d="M 0.90,20.85 L 0.90,21.96 L 1.74,22.39 L 1.81,22.39 L 1.81,21.29 Z" fill="#529f77" stroke="none" /><path d="M 12.59,16.80 L 12.59,17.91 L 13.49,18.34 L 13.49,17.24 L 12.65,16.80 Z" fill="#529f77" stroke="none" /><path d="M 13.49,13.92 L 12.65,13.49 L 12.59,13.49 L 12.59,14.53 L 12.55,14.56 L 10.81,13.69 L 10.81,14.79 L 12.52,15.67 L 12.59,15.67 L 12.59,14.63 L 12.62,14.59 L 13.49,15.03 Z" fill="#529f77" stroke="none" /><path d="M 17.10,12.12 L 16.23,11.68 L 16.17,11.68 L 14.43,12.55 L 14.43,12.62 L 15.23,13.02 L 15.20,13.09 L 14.43,13.46 L 14.43,13.52 L 15.23,13.92 L 15.33,13.92 L 16.13,13.52 L 16.17,13.46 L 15.40,13.09 L 15.36,13.02 L 17.10,12.15 Z" fill="#529f77" stroke="none" /><path d="M 11.68,12.12 L 11.68,12.15 L 12.55,12.59 L 12.62,12.59 L 13.49,12.15 L 13.49,12.12 L 12.62,11.68 L 12.55,11.68 Z" fill="#529f77" stroke="none" /><path d="M 9.87,9.41 L 9.07,9.00 L 8.94,9.00 L 7.20,9.87 L 7.20,9.91 L 8.94,10.78 L 9.04,10.78 L 9.87,10.34 L 9.87,10.31 L 9.10,9.94 L 9.04,9.87 L 9.84,9.47 Z" fill="#529f77" stroke="none" /><path d="M 8.10,4.92 L 8.10,4.95 L 8.97,5.39 L 9.04,5.39 L 9.91,4.95 L 9.91,4.92 L 9.04,4.49 L 8.97,4.49 Z" fill="#529f77" stroke="none" /><path d="M 15.33,2.21 L 15.33,2.28 L 16.13,2.68 L 16.23,2.68 L 17.07,2.24 L 17.07,2.21 L 16.27,1.81 L 16.13,1.81 Z" fill="#529f77" stroke="none" /><path d="M 11.72,26.24 L 11.68,26.24 L 11.68,27.28 L 11.65,27.31 L 10.81,26.91 L 10.81,28.02 L 11.65,28.45 L 11.68,28.45 L 11.68,27.41 L 11.72,27.38 L 12.52,27.78 L 12.59,27.78 L 12.59,26.68 Z" fill="#4b9282" stroke="none" /><path d="M 7.20,26.21 L 7.20,27.31 L 8.03,27.75 L 8.10,27.75 L 8.10,26.64 Z" fill="#4b9282" stroke="none" /><path d="M 0.90,21.96 L 0.90,23.06 L 2.64,23.93 L 2.71,24.00 L 2.71,25.07 L 3.55,25.51 L 3.62,25.51 L 3.62,24.40 L 2.78,24.00 L 2.71,23.93 L 2.71,22.93 L 2.74,22.90 L 3.55,23.30 L 3.62,23.30 L 3.62,22.19 L 2.71,21.76 L 2.71,22.79 L 2.64,22.83 Z" fill="#4b9282" stroke="none" /><path d="M 11.68,20.75 L 11.68,21.86 L 12.59,22.29 L 12.59,21.19 L 11.75,20.75 Z" fill="#4b9282" stroke="none" /><path d="M 6.33,16.94 L 6.29,16.94 L 6.29,17.97 L 6.26,18.01 L 5.46,17.61 L 5.39,17.61 L 5.39,19.82 L 6.26,20.25 L 6.29,20.25 L 6.29,18.11 L 6.33,18.08 L 8.10,18.95 L 8.10,17.84 Z" fill="#4b9282" stroke="none" /><path d="M 13.49,15.03 L 12.65,14.59 L 12.59,14.59 L 12.59,15.63 L 12.55,15.67 L 11.68,15.23 L 11.68,16.27 L 11.65,16.30 L 10.81,15.90 L 10.81,17.00 L 11.68,17.44 L 11.68,16.40 L 11.75,16.37 L 13.49,17.24 Z" fill="#4b9282" stroke="none" /><path d="M 6.29,11.45 L 6.29,12.55 L 7.20,12.99 L 7.20,11.88 L 6.36,11.45 Z" fill="#4b9282" stroke="none" /><path d="M 14.36,10.78 L 13.49,11.21 L 13.49,11.25 L 14.36,11.68 L 12.62,12.55 L 12.62,12.62 L 14.36,13.49 L 14.43,13.49 L 15.30,13.05 L 15.30,13.02 L 14.43,12.59 L 15.30,12.15 L 15.30,12.12 L 14.43,11.68 L 15.30,11.25 L 15.30,11.21 L 14.43,10.78 Z" fill="#4b9282" stroke="none" /><path d="M 2.74,10.74 L 2.71,10.74 L 2.71,11.78 L 2.68,11.82 L 1.87,11.41 L 1.81,11.41 L 1.81,12.52 L 2.68,12.95 L 2.71,12.95 L 2.71,11.92 L 2.74,11.88 L 3.55,12.28 L 3.62,12.28 L 3.62,11.18 Z" fill="#4b9282" stroke="none" /><path d="M 19.82,9.87 L 19.82,9.91 L 20.69,10.34 L 21.59,9.91 L 21.59,9.87 L 20.72,9.44 L 20.65,9.44 Z" fill="#4b9282" stroke="none" /><path d="M 9.00,9.87 L 9.00,9.91 L 9.87,10.34 L 10.78,9.91 L 10.74,9.84 L 9.94,9.44 L 9.84,9.44 Z" fill="#4b9282" stroke="none" /><path d="M 23.33,6.29 L 22.49,6.73 L 22.49,6.76 L 23.26,7.13 L 23.33,7.20 L 22.53,7.60 L 22.53,7.67 L 23.33,8.07 L 23.46,8.07 L 24.27,7.67 L 24.23,7.60 L 23.43,7.20 L 23.50,7.13 L 24.27,6.76 L 24.27,6.73 L 23.43,6.29 Z" fill="#4b9282" stroke="none" /><path d="M 5.36,6.29 L 4.52,6.73 L 4.52,6.76 L 5.29,7.13 L 5.36,7.20 L 4.55,7.60 L 4.52,7.67 L 5.32,8.07 L 5.46,8.07 L 6.26,7.67 L 6.26,7.60 L 5.46,7.20 L 5.52,7.13 L 6.29,6.76 L 6.29,6.73 L 5.46,6.29 Z" fill="#4b9282" stroke="none" /><path d="M 15.23,5.86 L 14.43,6.26 L 14.43,6.33 L 16.07,7.13 L 16.13,7.20 L 14.39,8.07 L 14.39,8.10 L 15.26,8.54 L 15.33,8.54 L 17.07,7.67 L 17.04,7.60 L 16.23,7.20 L 16.30,7.13 L 17.07,6.76 L 17.07,6.73 L 15.36,5.86 Z" fill="#4b9282" stroke="none" /><path d="M 7.23,4.45 L 7.23,4.52 L 8.03,4.92 L 8.17,4.92 L 8.97,4.52 L 8.97,4.45 L 8.17,4.05 L 8.03,4.05 Z" fill="#4b9282" stroke="none" /><path d="M 11.72,2.21 L 11.75,2.28 L 12.55,2.68 L 12.65,2.68 L 13.46,2.28 L 13.46,2.21 L 12.65,1.81 L 12.52,1.81 Z" fill="#4b9282" stroke="none" /><path d="M 16.20,1.77 L 15.33,1.34 L 15.26,1.34 L 13.52,2.21 L 13.52,2.28 L 14.33,2.68 L 14.29,2.74 L 13.52,3.11 L 13.52,3.15 L 14.36,3.58 L 14.43,3.58 L 15.23,3.18 L 15.26,3.11 L 14.49,2.74 L 14.46,2.68 L 16.20,1.81 Z" fill="#4b9282" stroke="none" /><path d="M 12.59,26.71 L 12.59,28.85 L 12.55,28.89 L 10.81,28.02 L 10.81,29.12 L 13.49,30.46 L 13.49,27.15 L 12.65,26.71 Z" fill="#4ea98e" stroke="none" /><path d="M 6.29,25.77 L 6.29,26.88 L 7.20,27.31 L 7.20,26.21 L 6.36,25.77 Z" fill="#4ea98e" stroke="none" /><path d="M 0.90,23.06 L 0.90,24.17 L 2.71,25.07 L 2.71,23.97 Z" fill="#4ea98e" stroke="none" /><path d="M 7.20,22.90 L 7.20,25.10 L 8.03,25.54 L 8.10,25.54 L 8.10,23.33 Z" fill="#4ea98e" stroke="none" /><path d="M 9.00,19.41 L 9.00,21.62 L 9.91,22.06 L 9.91,21.02 L 9.97,20.99 L 11.62,21.82 L 11.68,21.82 L 11.68,20.72 L 9.07,19.41 Z" fill="#4ea98e" stroke="none" /><path d="M 3.62,16.70 L 3.62,18.91 L 5.32,19.78 L 5.39,19.78 L 5.39,17.57 Z" fill="#4ea98e" stroke="none" /><path d="M 1.81,15.80 L 1.81,16.90 L 2.64,17.34 L 2.71,17.34 L 2.71,16.23 Z" fill="#4ea98e" stroke="none" /><path d="M 7.20,15.20 L 7.20,16.30 L 8.10,16.74 L 8.10,15.63 Z" fill="#4ea98e" stroke="none" /><path d="M 11.68,13.02 L 11.68,14.13 L 12.52,14.56 L 12.59,14.56 L 12.59,13.46 Z" fill="#4ea98e" stroke="none" /><path d="M 15.30,13.02 L 15.30,13.05 L 16.17,13.49 L 17.07,13.05 L 17.04,12.99 L 16.23,12.59 L 16.17,12.59 Z" fill="#4ea98e" stroke="none" /><path d="M 6.29,12.55 L 6.29,13.66 L 7.20,14.09 L 7.20,12.99 L 6.36,12.55 Z" fill="#4ea98e" stroke="none" /><path d="M 18.91,9.41 L 18.95,9.47 L 19.75,9.87 L 19.85,9.87 L 20.65,9.47 L 20.65,9.41 L 19.85,9.00 L 19.72,9.00 Z" fill="#4ea98e" stroke="none" /><path d="M 16.20,8.97 L 16.20,9.00 L 17.07,9.44 L 17.97,9.00 L 17.94,8.94 L 17.14,8.54 L 17.07,8.54 Z" fill="#4ea98e" stroke="none" /><path d="M 13.46,8.50 L 11.68,7.63 L 10.81,8.07 L 10.85,8.13 L 11.65,8.54 L 9.91,9.41 L 9.91,9.44 L 10.74,9.87 L 10.85,9.87 L 13.46,8.57 Z" fill="#4ea98e" stroke="none" /><path d="M 5.39,6.26 L 4.49,5.82 L 1.81,7.16 L 1.81,7.20 L 4.45,8.54 L 4.52,8.54 L 5.39,8.10 L 5.39,8.07 L 3.65,7.20 L 3.72,7.13 L 5.36,6.33 Z" fill="#4ea98e" stroke="none" /><path d="M 15.30,5.82 L 15.30,5.86 L 17.04,6.73 L 17.14,6.73 L 18.88,5.86 L 18.85,5.79 L 17.17,4.95 L 17.04,4.95 Z" fill="#4ea98e" stroke="none" /><path d="M 9.04,5.36 L 9.04,5.42 L 10.78,6.29 L 11.68,5.86 L 11.65,5.79 L 9.97,4.95 L 9.84,4.95 Z" fill="#4ea98e" stroke="none" /><path d="M 18.88,4.92 L 18.88,4.95 L 19.75,5.39 L 19.82,5.39 L 20.69,4.95 L 20.69,4.92 L 19.82,4.49 L 19.75,4.49 Z" fill="#4ea98e" stroke="none" /><path d="M 8.10,4.02 L 8.10,4.05 L 8.97,4.49 L 9.04,4.49 L 9.87,4.05 L 9.87,4.02 L 9.00,3.58 Z" fill="#4ea98e" stroke="none" /><path d="M 15.26,1.31 L 14.46,0.90 L 14.33,0.90 L 12.59,1.77 L 12.59,1.81 L 13.46,2.24 L 13.52,2.24 L 15.26,1.37 Z" fill="#4ea98e" stroke="none" /><path d="M 0.00,23.73 L 0.00,24.80 L 0.84,25.24 L 0.90,25.24 L 0.90,24.17 L 0.07,23.73 Z" fill="#58b090" stroke="none" /><path d="M 6.29,21.36 L 6.29,25.77 L 7.20,26.21 L 7.20,22.96 L 7.26,22.93 L 8.03,23.33 L 8.10,23.33 L 8.10,22.26 Z" fill="#58b090" stroke="none" /><path d="M 9.91,20.95 L 9.91,22.06 L 11.62,22.93 L 11.68,22.93 L 11.68,21.82 Z" fill="#58b090" stroke="none" /><path d="M 0.00,20.42 L 0.00,22.63 L 0.90,23.06 L 0.90,20.85 L 0.07,20.42 Z" fill="#58b090" stroke="none" /><path d="M 0.90,15.36 L 0.90,17.57 L 3.62,18.91 L 3.62,16.70 L 2.78,16.27 L 2.71,16.27 L 2.71,17.31 L 2.68,17.34 L 1.87,16.94 L 1.81,16.87 L 1.81,15.80 L 0.97,15.36 Z" fill="#58b090" stroke="none" /><path d="M 10.81,12.59 L 10.81,13.69 L 11.68,14.13 L 11.68,13.02 Z" fill="#58b090" stroke="none" /><path d="M 16.23,12.55 L 16.23,12.62 L 17.04,13.02 L 17.14,13.02 L 17.97,12.59 L 17.97,12.55 L 17.17,12.15 L 17.04,12.15 Z" fill="#58b090" stroke="none" /><path d="M 7.20,11.88 L 7.20,14.03 L 7.13,14.06 L 6.36,13.66 L 6.29,13.66 L 6.29,16.94 L 8.10,17.84 L 8.10,16.74 L 7.20,16.27 L 7.20,15.26 L 7.23,15.23 L 8.03,15.63 L 8.10,15.63 L 8.10,12.32 Z" fill="#58b090" stroke="none" /><path d="M 5.39,9.87 L 5.39,10.98 L 6.23,11.41 L 6.29,11.41 L 6.29,10.31 Z" fill="#58b090" stroke="none" /><path d="M 21.59,9.87 L 21.59,9.91 L 22.46,10.34 L 23.36,9.91 L 23.33,9.84 L 22.53,9.44 L 22.46,9.44 Z" fill="#58b090" stroke="none" /><path d="M 2.74,8.54 L 2.71,8.54 L 2.71,9.57 L 2.68,9.61 L 0.90,8.74 L 0.90,12.05 L 1.74,12.49 L 1.81,12.49 L 1.81,10.34 L 1.84,10.31 L 3.55,11.18 L 3.62,11.18 L 3.62,8.97 Z" fill="#58b090" stroke="none" /><path d="M 11.65,8.50 L 10.85,8.10 L 10.74,8.10 L 9.00,8.97 L 9.00,9.00 L 9.91,9.44 L 11.65,8.57 Z" fill="#58b090" stroke="none" /><path d="M 15.33,8.50 L 15.33,8.57 L 16.13,8.97 L 16.27,8.97 L 17.10,8.54 L 17.91,8.94 L 17.94,8.97 L 17.87,9.04 L 17.10,9.41 L 17.10,9.44 L 19.75,10.78 L 19.85,10.78 L 20.69,10.34 L 20.69,10.31 L 18.95,9.44 L 19.01,9.37 L 19.78,9.00 L 19.78,8.97 L 17.10,7.63 Z" fill="#58b090" stroke="none" /><path d="M 24.27,5.82 L 23.40,6.26 L 23.40,6.29 L 25.07,7.13 L 25.14,7.20 L 23.40,8.07 L 23.40,8.10 L 25.14,8.97 L 25.24,8.97 L 26.04,8.57 L 26.04,8.50 L 25.24,8.10 L 25.31,8.03 L 26.95,7.23 L 26.98,7.16 Z" fill="#58b090" stroke="none" /><path d="M 9.04,4.45 L 9.04,4.52 L 11.62,5.79 L 11.65,5.82 L 11.58,5.89 L 10.81,6.26 L 10.81,6.29 L 11.65,6.73 L 11.75,6.73 L 13.49,5.86 L 13.49,5.82 L 9.94,4.05 L 9.84,4.05 Z" fill="#58b090" stroke="none" /><path d="M 21.56,4.45 L 19.78,3.58 L 17.10,4.92 L 17.10,4.95 L 18.85,5.82 L 18.95,5.82 L 19.75,5.42 L 19.75,5.36 L 18.98,4.99 L 18.95,4.95 L 18.98,4.89 L 19.78,4.49 L 20.62,4.92 L 20.75,4.92 L 21.56,4.52 Z" fill="#58b090" stroke="none" /><path d="M 15.33,1.31 L 15.33,1.37 L 17.07,2.24 L 17.97,1.81 L 17.97,1.77 L 16.23,0.90 L 16.13,0.90 Z" fill="#58b090" stroke="none" /><path d="M 13.52,0.44 L 13.52,0.47 L 14.33,0.87 L 14.46,0.87 L 15.26,0.47 L 15.23,0.40 L 14.43,0.00 L 14.36,0.00 Z" fill="#58b090" stroke="none" /><path d="M 8.13,18.95 L 8.10,18.95 L 8.10,21.09 L 8.07,21.12 L 6.29,20.25 L 6.29,21.36 L 8.07,22.26 L 8.10,22.26 L 8.10,21.22 L 8.13,21.19 L 8.94,21.59 L 9.00,21.59 L 9.00,19.38 Z" fill="#67be9a" stroke="none" /><path d="M 13.42,5.86 L 11.72,6.73 L 11.72,6.76 L 12.49,7.13 L 12.55,7.20 L 11.75,7.60 L 11.72,7.67 L 13.46,8.54 L 13.52,8.54 L 14.39,8.10 L 14.39,8.07 L 12.65,7.20 L 12.72,7.13 L 14.36,6.33 L 14.36,6.26 L 13.56,5.86 Z" fill="#67be9a" stroke="none" /><path d="M 10.81,25.81 L 10.81,26.91 L 11.68,27.35 L 11.68,26.24 Z" fill="#6dc39d" stroke="none" /><path d="M 0.00,22.63 L 0.00,23.73 L 0.90,24.17 L 0.90,23.06 L 0.07,22.63 Z" fill="#6dc39d" stroke="none" /><path d="M 1.81,21.32 L 1.81,22.43 L 2.71,22.86 L 2.71,21.76 L 1.87,21.32 Z" fill="#6dc39d" stroke="none" /><path d="M 10.81,14.79 L 10.81,15.90 L 11.68,16.33 L 11.68,15.23 Z" fill="#6dc39d" stroke="none" /><path d="M 14.43,11.65 L 14.43,11.72 L 15.23,12.12 L 15.36,12.12 L 16.17,11.72 L 16.17,11.65 L 15.36,11.25 L 15.23,11.25 Z" fill="#6dc39d" stroke="none" /><path d="M 6.29,10.34 L 6.29,11.45 L 10.81,13.69 L 10.81,12.59 L 10.78,12.55 L 6.36,10.34 Z" fill="#6dc39d" stroke="none" /><path d="M 1.81,10.31 L 1.81,11.41 L 2.71,11.85 L 2.71,10.74 L 1.87,10.31 Z" fill="#6dc39d" stroke="none" /><path d="M 22.46,10.31 L 21.66,9.91 L 21.52,9.91 L 17.10,12.12 L 17.10,12.15 L 18.01,12.59 L 22.43,10.38 Z" fill="#6dc39d" stroke="none" /><path d="M 3.62,9.00 L 3.62,10.11 L 5.39,10.98 L 5.39,9.87 L 3.68,9.00 Z" fill="#6dc39d" stroke="none" /><path d="M 25.17,8.97 L 24.33,8.54 L 24.27,8.54 L 22.53,9.41 L 22.53,9.47 L 23.33,9.87 L 23.43,9.87 L 25.17,9.00 Z" fill="#6dc39d" stroke="none" /><path d="M 0.00,7.20 L 0.00,20.42 L 0.90,20.85 L 0.90,8.80 L 0.97,8.77 L 2.71,9.64 L 2.71,8.54 L 0.07,7.20 Z" fill="#6dc39d" stroke="none" /><path d="M 23.40,7.16 L 23.43,7.23 L 24.23,7.63 L 24.33,7.63 L 25.17,7.20 L 25.17,7.16 L 24.30,6.73 Z" fill="#6dc39d" stroke="none" /><path d="M 5.42,7.16 L 5.46,7.23 L 6.26,7.63 L 6.33,7.63 L 7.20,7.20 L 7.20,7.16 L 6.33,6.73 Z" fill="#6dc39d" stroke="none" /><path d="M 14.39,2.68 L 14.39,2.71 L 15.26,3.15 L 16.17,2.71 L 16.13,2.64 L 15.33,2.24 L 15.26,2.24 Z" fill="#6dc39d" stroke="none" /><path d="M 17.10,2.21 L 17.14,2.28 L 26.88,7.13 L 26.95,7.20 L 26.91,7.23 L 25.21,8.07 L 25.24,8.13 L 26.04,8.54 L 26.11,8.54 L 28.75,7.20 L 28.75,7.16 L 18.04,1.81 L 17.91,1.81 Z" fill="#6dc39d" stroke="none" /><path d="M 14.39,0.87 L 14.39,0.90 L 15.26,1.34 L 15.33,1.34 L 16.17,0.90 L 16.17,0.87 L 15.30,0.44 Z" fill="#6dc39d" stroke="none" /></svg>