<svg height="32" width="32" viewBox="0 0 32 32"><defs /><path d="M 28.30,15.24 L 27.86,15.24 L 27.86,15.56 L 27.76,15.67 L 27.10,15.67 L 27.10,15.89 L 26.99,16.00 L 26.45,16.00 L 26.45,16.22 L 26.34,16.33 L 25.69,16.33 L 25.69,16.65 L 25.58,16.76 L 24.93,16.76 L 24.93,21.22 L 25.69,21.22 L 25.69,20.90 L 25.80,20.79 L 26.45,20.79 L 26.45,20.57 L 26.56,20.46 L 27.10,20.46 L 27.10,20.24 L 27.21,20.14 L 27.86,20.14 L 27.86,19.81 L 27.97,19.70 L 28.30,19.70 Z" fill="#756c6c" stroke="none" /><path d="M 24.93,17.09 L 24.16,17.09 L 24.16,17.41 L 24.05,17.52 L 23.40,17.52 L 23.40,17.74 L 23.29,17.85 L 22.75,17.85 L 22.75,18.07 L 22.64,18.18 L 21.99,18.18 L 21.99,18.50 L 21.88,18.61 L 21.22,18.61 L 21.22,23.07 L 21.99,23.07 L 21.99,22.75 L 22.10,22.64 L 22.75,22.64 L 22.75,22.42 L 22.86,22.31 L 23.40,22.31 L 23.40,22.10 L 23.51,21.99 L 24.16,21.99 L 24.16,21.66 L 24.27,21.55 L 24.93,21.55 Z" fill="#797070" stroke="none" /><path d="M 28.30,24.16 L 27.54,24.16 L 27.54,24.49 L 27.43,24.60 L 26.78,24.60 L 26.78,24.82 L 26.67,24.93 L 26.01,24.93 L 26.01,25.14 L 25.90,25.25 L 25.25,25.25 L 25.25,25.58 L 25.14,25.69 L 24.93,25.69 L 24.93,30.15 L 25.25,30.15 L 25.25,29.82 L 25.36,29.71 L 26.01,29.71 L 26.01,29.50 L 26.12,29.39 L 26.78,29.39 L 26.78,29.06 L 26.88,28.95 L 27.54,28.95 L 27.54,28.73 L 27.65,28.63 L 28.30,28.63 Z" fill="#807879" stroke="none" /><path d="M 28.30,19.70 L 27.86,19.70 L 27.86,20.03 L 27.76,20.14 L 27.10,20.14 L 27.10,20.35 L 26.99,20.46 L 26.45,20.46 L 26.45,20.68 L 26.34,20.79 L 25.69,20.79 L 25.69,21.12 L 25.58,21.22 L 24.93,21.22 L 24.93,25.58 L 24.82,25.69 L 24.60,25.69 L 24.60,25.90 L 24.49,26.01 L 23.84,26.01 L 23.84,26.34 L 23.73,26.45 L 23.07,26.45 L 23.07,26.67 L 22.97,26.78 L 22.31,26.78 L 22.31,26.99 L 22.20,27.10 L 21.55,27.10 L 21.55,27.43 L 21.44,27.54 L 21.22,27.54 L 21.22,32.00 L 21.55,32.00 L 21.55,31.67 L 21.66,31.56 L 22.31,31.56 L 22.31,31.35 L 22.42,31.24 L 23.07,31.24 L 23.07,31.02 L 23.18,30.91 L 23.84,30.91 L 23.84,30.59 L 23.95,30.48 L 24.60,30.48 L 24.60,30.26 L 24.71,30.15 L 24.93,30.15 L 24.93,25.80 L 25.03,25.69 L 25.25,25.69 L 25.25,25.36 L 25.36,25.25 L 26.01,25.25 L 26.01,25.03 L 26.12,24.93 L 26.78,24.93 L 26.78,24.71 L 26.88,24.60 L 27.54,24.60 L 27.54,24.27 L 27.65,24.16 L 28.30,24.16 Z" fill="#867d7d" stroke="none" /><path d="M 28.30,11.21 L 27.54,11.21 L 27.54,11.43 L 27.43,11.54 L 26.78,11.54 L 26.78,11.76 L 26.67,11.86 L 26.01,11.86 L 26.01,12.19 L 25.90,12.30 L 25.25,12.30 L 25.25,12.52 L 25.14,12.63 L 24.60,12.63 L 24.60,12.95 L 24.49,13.06 L 23.84,13.06 L 23.84,13.28 L 23.73,13.39 L 23.07,13.39 L 23.07,13.71 L 22.97,13.82 L 22.31,13.82 L 22.31,14.04 L 22.20,14.15 L 21.55,14.15 L 21.55,14.37 L 21.44,14.48 L 21.22,14.48 L 21.22,18.61 L 21.99,18.61 L 21.99,18.29 L 22.10,18.18 L 22.75,18.18 L 22.75,17.96 L 22.86,17.85 L 23.40,17.85 L 23.40,17.63 L 23.51,17.52 L 24.16,17.52 L 24.16,17.20 L 24.27,17.09 L 24.93,17.09 L 24.93,16.87 L 25.03,16.76 L 25.69,16.76 L 25.69,16.44 L 25.80,16.33 L 26.45,16.33 L 26.45,16.11 L 26.56,16.00 L 27.10,16.00 L 27.10,15.78 L 27.21,15.67 L 27.86,15.67 L 27.86,15.35 L 27.97,15.24 L 28.30,15.24 Z" fill="#867d7d" stroke="none" /><path d="M 3.37,10.01 L 3.37,14.15 L 3.59,14.15 L 3.70,14.26 L 3.70,14.48 L 4.35,14.48 L 4.46,14.59 L 4.46,14.91 L 5.12,14.91 L 5.22,15.02 L 5.22,15.24 L 5.88,15.24 L 5.99,15.35 L 5.99,15.67 L 6.64,15.67 L 6.75,15.78 L 6.75,16.00 L 7.40,16.00 L 7.51,16.11 L 7.51,16.33 L 8.05,16.33 L 8.16,16.44 L 8.16,16.76 L 8.82,16.76 L 8.93,16.87 L 8.93,17.09 L 9.58,17.09 L 9.69,17.20 L 9.69,17.52 L 10.34,17.52 L 10.45,17.63 L 10.45,17.85 L 11.10,17.85 L 11.21,17.96 L 11.21,18.18 L 11.86,18.18 L 11.97,18.29 L 11.97,18.61 L 12.52,18.61 L 12.63,18.72 L 12.63,18.94 L 13.28,18.94 L 13.39,19.05 L 13.39,19.37 L 14.04,19.37 L 14.15,19.48 L 14.15,19.70 L 14.80,19.70 L 14.91,19.81 L 14.91,20.14 L 15.56,20.14 L 15.67,20.24 L 15.67,20.46 L 16.22,20.46 L 16.33,20.57 L 16.33,20.79 L 16.98,20.79 L 17.09,20.90 L 17.09,21.22 L 17.85,21.22 L 17.85,17.09 L 17.63,17.09 L 17.52,16.98 L 17.52,16.76 L 16.87,16.76 L 16.76,16.65 L 16.76,16.33 L 16.11,16.33 L 16.00,16.22 L 16.00,16.00 L 15.35,16.00 L 15.24,15.89 L 15.24,15.67 L 14.59,15.67 L 14.48,15.56 L 14.48,15.24 L 13.93,15.24 L 13.82,15.13 L 13.82,14.91 L 13.17,14.91 L 13.06,14.80 L 13.06,14.48 L 12.41,14.48 L 12.30,14.37 L 12.30,14.15 L 11.65,14.15 L 11.54,14.04 L 11.54,13.82 L 10.88,13.82 L 10.78,13.71 L 10.78,13.39 L 10.12,13.39 L 10.01,13.28 L 10.01,13.06 L 9.47,13.06 L 9.36,12.95 L 9.36,12.63 L 8.71,12.63 L 8.60,12.52 L 8.60,12.30 L 7.95,12.30 L 7.84,12.19 L 7.84,11.86 L 7.18,11.86 L 7.07,11.76 L 7.07,11.54 L 6.42,11.54 L 6.31,11.43 L 6.31,11.21 L 5.66,11.21 L 5.55,11.10 L 5.55,10.78 L 5.01,10.78 L 4.90,10.67 L 4.90,10.45 L 4.24,10.45 L 4.14,10.34 L 4.14,10.01 Z" fill="#9a8e8e" stroke="none" /><path d="M 24.93,21.55 L 24.16,21.55 L 24.16,21.88 L 24.05,21.99 L 23.40,21.99 L 23.40,22.20 L 23.29,22.31 L 22.75,22.31 L 22.75,22.53 L 22.64,22.64 L 21.99,22.64 L 21.99,22.97 L 21.88,23.07 L 21.22,23.07 L 21.22,27.54 L 21.55,27.54 L 21.55,27.21 L 21.66,27.10 L 22.31,27.10 L 22.31,26.88 L 22.42,26.78 L 23.07,26.78 L 23.07,26.56 L 23.18,26.45 L 23.84,26.45 L 23.84,26.12 L 23.95,26.01 L 24.60,26.01 L 24.60,25.80 L 24.71,25.69 L 24.93,25.69 Z" fill="#989191" stroke="none" /><path d="M 17.85,17.09 L 17.85,21.55 L 18.50,21.55 L 18.61,21.66 L 18.61,21.99 L 19.27,21.99 L 19.37,22.10 L 19.37,22.31 L 20.03,22.31 L 20.14,22.42 L 20.14,22.64 L 20.68,22.64 L 20.79,22.75 L 20.79,23.07 L 21.22,23.07 L 21.22,18.61 L 20.57,18.61 L 20.46,18.50 L 20.46,18.18 L 19.81,18.18 L 19.70,18.07 L 19.70,17.85 L 19.05,17.85 L 18.94,17.74 L 18.94,17.52 L 18.39,17.52 L 18.29,17.41 L 18.29,17.09 Z" fill="#9f9393" stroke="none" /><path d="M 0.00,8.16 L 0.00,12.63 L 0.65,12.63 L 0.76,12.73 L 0.76,13.06 L 1.41,13.06 L 1.52,13.17 L 1.52,13.39 L 2.18,13.39 L 2.29,13.50 L 2.29,13.82 L 2.94,13.82 L 3.05,13.93 L 3.05,14.15 L 3.37,14.15 L 3.37,9.69 L 2.72,9.69 L 2.61,9.58 L 2.61,9.36 L 1.96,9.36 L 1.85,9.25 L 1.85,8.93 L 1.31,8.93 L 1.20,8.82 L 1.20,8.60 L 0.54,8.60 L 0.44,8.49 L 0.44,8.16 Z" fill="#9f9393" stroke="none" /><path d="M 7.07,7.40 L 7.07,11.86 L 7.73,11.86 L 7.84,11.97 L 7.84,12.30 L 8.49,12.30 L 8.60,12.41 L 8.60,12.63 L 9.25,12.63 L 9.36,12.73 L 9.36,13.06 L 9.90,13.06 L 10.01,13.17 L 10.01,13.39 L 10.45,13.39 L 10.45,8.93 L 10.12,8.93 L 10.01,8.82 L 10.01,8.60 L 9.47,8.60 L 9.36,8.49 L 9.36,8.16 L 8.71,8.16 L 8.60,8.05 L 8.60,7.84 L 7.95,7.84 L 7.84,7.73 L 7.84,7.40 Z" fill="#a89e9f" stroke="none" /><path d="M 7.07,20.46 L 7.07,24.93 L 7.73,24.93 L 7.84,25.03 L 7.84,25.25 L 8.49,25.25 L 8.60,25.36 L 8.60,25.69 L 9.25,25.69 L 9.36,25.80 L 9.36,26.01 L 9.90,26.01 L 10.01,26.12 L 10.01,26.45 L 10.67,26.45 L 10.78,26.56 L 10.78,26.78 L 11.43,26.78 L 11.54,26.88 L 11.54,27.10 L 12.19,27.10 L 12.30,27.21 L 12.30,27.54 L 12.95,27.54 L 13.06,27.65 L 13.06,27.86 L 13.71,27.86 L 13.82,27.97 L 13.82,28.30 L 14.37,28.30 L 14.48,28.41 L 14.48,28.63 L 15.13,28.63 L 15.24,28.73 L 15.24,28.95 L 15.89,28.95 L 16.00,29.06 L 16.00,29.39 L 16.65,29.39 L 16.76,29.50 L 16.76,29.71 L 17.41,29.71 L 17.52,29.82 L 17.52,30.15 L 17.85,30.15 L 17.85,25.69 L 17.20,25.69 L 17.09,25.58 L 17.09,25.25 L 16.44,25.25 L 16.33,25.14 L 16.33,24.93 L 15.78,24.93 L 15.67,24.82 L 15.67,24.60 L 15.02,24.60 L 14.91,24.49 L 14.91,24.16 L 14.26,24.16 L 14.15,24.05 L 14.15,23.84 L 13.50,23.84 L 13.39,23.73 L 13.39,23.40 L 12.73,23.40 L 12.63,23.29 L 12.63,23.07 L 12.08,23.07 L 11.97,22.97 L 11.97,22.64 L 11.32,22.64 L 11.21,22.53 L 11.21,22.31 L 10.56,22.31 L 10.45,22.20 L 10.45,21.99 L 9.80,21.99 L 9.69,21.88 L 9.69,21.55 L 9.03,21.55 L 8.93,21.44 L 8.93,21.22 L 8.27,21.22 L 8.16,21.12 L 8.16,20.79 L 7.62,20.79 L 7.51,20.68 L 7.51,20.46 Z" fill="#b1a5a4" stroke="none" /><path d="M 17.85,26.01 L 17.85,30.15 L 18.18,30.15 L 18.29,30.26 L 18.29,30.48 L 18.83,30.48 L 18.94,30.59 L 18.94,30.91 L 19.59,30.91 L 19.70,31.02 L 19.70,31.24 L 20.35,31.24 L 20.46,31.35 L 20.46,31.56 L 21.22,31.56 L 21.22,27.54 L 20.90,27.54 L 20.79,27.43 L 20.79,27.10 L 20.24,27.10 L 20.14,26.99 L 20.14,26.78 L 19.48,26.78 L 19.37,26.67 L 19.37,26.45 L 18.72,26.45 L 18.61,26.34 L 18.61,26.01 Z" fill="#b9b6b4" stroke="none" /><path d="M 0.00,12.63 L 0.00,17.09 L 0.65,17.09 L 0.76,17.20 L 0.76,17.52 L 1.41,17.52 L 1.52,17.63 L 1.52,17.85 L 2.18,17.85 L 2.29,17.96 L 2.29,18.18 L 2.94,18.18 L 3.05,18.29 L 3.05,18.61 L 3.27,18.61 L 3.37,18.72 L 3.37,23.07 L 4.03,23.07 L 4.14,23.18 L 4.14,23.40 L 4.79,23.40 L 4.90,23.51 L 4.90,23.84 L 5.44,23.84 L 5.55,23.95 L 5.55,24.16 L 6.20,24.16 L 6.31,24.27 L 6.31,24.60 L 7.07,24.60 L 7.07,20.46 L 6.86,20.46 L 6.75,20.35 L 6.75,20.14 L 6.10,20.14 L 5.99,20.03 L 5.99,19.70 L 5.33,19.70 L 5.22,19.59 L 5.22,19.37 L 4.57,19.37 L 4.46,19.27 L 4.46,18.94 L 3.81,18.94 L 3.70,18.83 L 3.70,18.61 L 3.48,18.61 L 3.37,18.50 L 3.37,14.15 L 3.16,14.15 L 3.05,14.04 L 3.05,13.82 L 2.39,13.82 L 2.29,13.71 L 2.29,13.39 L 1.63,13.39 L 1.52,13.28 L 1.52,13.06 L 0.87,13.06 L 0.76,12.95 L 0.76,12.63 Z" fill="#b9b6b4" stroke="none" /><path d="M 0.00,3.70 L 0.00,8.16 L 0.33,8.16 L 0.44,8.27 L 0.44,8.60 L 1.09,8.60 L 1.20,8.71 L 1.20,8.93 L 1.74,8.93 L 1.85,9.03 L 1.85,9.36 L 2.50,9.36 L 2.61,9.47 L 2.61,9.69 L 3.27,9.69 L 3.37,9.80 L 3.37,10.01 L 4.03,10.01 L 4.14,10.12 L 4.14,10.45 L 4.79,10.45 L 4.90,10.56 L 4.90,10.78 L 5.44,10.78 L 5.55,10.88 L 5.55,11.21 L 6.20,11.21 L 6.31,11.32 L 6.31,11.54 L 7.07,11.54 L 7.07,7.07 L 6.42,7.07 L 6.31,6.97 L 6.31,6.75 L 5.66,6.75 L 5.55,6.64 L 5.55,6.31 L 5.01,6.31 L 4.90,6.20 L 4.90,5.99 L 4.24,5.99 L 4.14,5.88 L 4.14,5.55 L 3.48,5.55 L 3.37,5.44 L 3.37,5.22 L 2.72,5.22 L 2.61,5.12 L 2.61,4.90 L 1.96,4.90 L 1.85,4.79 L 1.85,4.46 L 1.31,4.46 L 1.20,4.35 L 1.20,4.14 L 0.54,4.14 L 0.44,4.03 L 0.44,3.70 Z" fill="#b9b6b4" stroke="none" /><path d="M 0.00,17.09 L 0.00,21.22 L 0.33,21.22 L 0.44,21.33 L 0.44,21.55 L 1.09,21.55 L 1.20,21.66 L 1.20,21.99 L 1.74,21.99 L 1.85,22.10 L 1.85,22.31 L 2.50,22.31 L 2.61,22.42 L 2.61,22.64 L 3.37,22.64 L 3.37,18.61 L 3.16,18.61 L 3.05,18.50 L 3.05,18.18 L 2.39,18.18 L 2.29,18.07 L 2.29,17.85 L 1.63,17.85 L 1.52,17.74 L 1.52,17.52 L 0.87,17.52 L 0.76,17.41 L 0.76,17.09 Z" fill="#c8bfbe" stroke="none" /><path d="M 10.45,8.93 L 10.45,13.39 L 10.67,13.39 L 10.78,13.50 L 10.78,13.82 L 11.43,13.82 L 11.54,13.93 L 11.54,14.15 L 12.19,14.15 L 12.30,14.26 L 12.30,14.48 L 12.95,14.48 L 13.06,14.59 L 13.06,14.91 L 13.71,14.91 L 13.82,15.02 L 13.82,15.24 L 14.37,15.24 L 14.48,15.35 L 14.48,15.67 L 15.13,15.67 L 15.24,15.78 L 15.24,16.00 L 15.89,16.00 L 16.00,16.11 L 16.00,16.33 L 16.65,16.33 L 16.76,16.44 L 16.76,16.76 L 17.41,16.76 L 17.52,16.87 L 17.52,17.09 L 18.18,17.09 L 18.29,17.20 L 18.29,17.52 L 18.83,17.52 L 18.94,17.63 L 18.94,17.85 L 19.59,17.85 L 19.70,17.96 L 19.70,18.18 L 20.35,18.18 L 20.46,18.29 L 20.46,18.61 L 21.22,18.61 L 21.22,14.15 L 20.57,14.15 L 20.46,14.04 L 20.46,13.82 L 19.81,13.82 L 19.70,13.71 L 19.70,13.39 L 19.05,13.39 L 18.94,13.28 L 18.94,13.06 L 18.39,13.06 L 18.29,12.95 L 18.29,12.63 L 17.63,12.63 L 17.52,12.52 L 17.52,12.30 L 16.87,12.30 L 16.76,12.19 L 16.76,11.86 L 16.11,11.86 L 16.00,11.76 L 16.00,11.54 L 15.35,11.54 L 15.24,11.43 L 15.24,11.21 L 14.59,11.21 L 14.48,11.10 L 14.48,10.78 L 13.93,10.78 L 13.82,10.67 L 13.82,10.45 L 13.17,10.45 L 13.06,10.34 L 13.06,10.01 L 12.41,10.01 L 12.30,9.90 L 12.30,9.69 L 11.65,9.69 L 11.54,9.58 L 11.54,9.36 L 10.88,9.36 L 10.78,9.25 L 10.78,8.93 Z" fill="#c8bfbe" stroke="none" /><path d="M 3.37,14.15 L 3.37,18.61 L 3.59,18.61 L 3.70,18.72 L 3.70,18.94 L 4.35,18.94 L 4.46,19.05 L 4.46,19.37 L 5.12,19.37 L 5.22,19.48 L 5.22,19.70 L 5.88,19.70 L 5.99,19.81 L 5.99,20.14 L 6.64,20.14 L 6.75,20.24 L 6.75,20.46 L 7.40,20.46 L 7.51,20.57 L 7.51,20.79 L 8.05,20.79 L 8.16,20.90 L 8.16,21.22 L 8.82,21.22 L 8.93,21.33 L 8.93,21.55 L 9.58,21.55 L 9.69,21.66 L 9.69,21.99 L 10.34,21.99 L 10.45,22.10 L 10.45,22.31 L 11.10,22.31 L 11.21,22.42 L 11.21,22.64 L 11.86,22.64 L 11.97,22.75 L 11.97,23.07 L 12.52,23.07 L 12.63,23.18 L 12.63,23.40 L 13.28,23.40 L 13.39,23.51 L 13.39,23.84 L 14.04,23.84 L 14.15,23.95 L 14.15,24.16 L 14.80,24.16 L 14.91,24.27 L 14.91,24.60 L 15.56,24.60 L 15.67,24.71 L 15.67,24.93 L 16.22,24.93 L 16.33,25.03 L 16.33,25.25 L 16.98,25.25 L 17.09,25.36 L 17.09,25.69 L 17.74,25.69 L 17.85,25.80 L 17.85,26.01 L 18.50,26.01 L 18.61,26.12 L 18.61,26.45 L 19.27,26.45 L 19.37,26.56 L 19.37,26.78 L 20.03,26.78 L 20.14,26.88 L 20.14,27.10 L 20.68,27.10 L 20.79,27.21 L 20.79,27.54 L 21.22,27.54 L 21.22,23.07 L 20.90,23.07 L 20.79,22.97 L 20.79,22.64 L 20.24,22.64 L 20.14,22.53 L 20.14,22.31 L 19.48,22.31 L 19.37,22.20 L 19.37,21.99 L 18.72,21.99 L 18.61,21.88 L 18.61,21.55 L 17.96,21.55 L 17.85,21.44 L 17.85,21.22 L 17.20,21.22 L 17.09,21.12 L 17.09,20.79 L 16.44,20.79 L 16.33,20.68 L 16.33,20.46 L 15.78,20.46 L 15.67,20.35 L 15.67,20.14 L 15.02,20.14 L 14.91,20.03 L 14.91,19.70 L 14.26,19.70 L 14.15,19.59 L 14.15,19.37 L 13.50,19.37 L 13.39,19.27 L 13.39,18.94 L 12.73,18.94 L 12.63,18.83 L 12.63,18.61 L 12.08,18.61 L 11.97,18.50 L 11.97,18.18 L 11.32,18.18 L 11.21,18.07 L 11.21,17.85 L 10.56,17.85 L 10.45,17.74 L 10.45,17.52 L 9.80,17.52 L 9.69,17.41 L 9.69,17.09 L 9.03,17.09 L 8.93,16.98 L 8.93,16.76 L 8.27,16.76 L 8.16,16.65 L 8.16,16.33 L 7.62,16.33 L 7.51,16.22 L 7.51,16.00 L 6.86,16.00 L 6.75,15.89 L 6.75,15.67 L 6.10,15.67 L 5.99,15.56 L 5.99,15.24 L 5.33,15.24 L 5.22,15.13 L 5.22,14.91 L 4.57,14.91 L 4.46,14.80 L 4.46,14.48 L 3.81,14.48 L 3.70,14.37 L 3.70,14.15 Z" fill="#ccc9c6" stroke="none" /><path d="M 0.00,3.37 L 0.00,3.70 L 0.33,3.70 L 0.44,3.81 L 0.44,4.14 L 1.09,4.14 L 1.20,4.24 L 1.20,4.46 L 1.74,4.46 L 1.85,4.57 L 1.85,4.90 L 2.50,4.90 L 2.61,5.01 L 2.61,5.22 L 3.27,5.22 L 3.37,5.33 L 3.37,5.55 L 3.70,5.55 L 3.70,5.33 L 3.81,5.22 L 4.46,5.22 L 4.46,5.01 L 4.57,4.90 L 5.22,4.90 L 5.22,4.57 L 5.33,4.46 L 5.99,4.46 L 5.99,4.24 L 6.10,4.14 L 6.75,4.14 L 6.75,3.37 L 6.10,3.37 L 5.99,3.27 L 5.99,3.05 L 5.33,3.05 L 5.22,2.94 L 5.22,2.61 L 4.57,2.61 L 4.46,2.50 L 4.46,2.29 L 3.81,2.29 L 3.70,2.18 L 3.70,1.85 L 3.05,1.85 L 3.05,2.18 L 2.94,2.29 L 2.29,2.29 L 2.29,2.50 L 2.18,2.61 L 1.52,2.61 L 1.52,2.94 L 1.41,3.05 L 0.76,3.05 L 0.76,3.27 L 0.65,3.37 Z" fill="#d9cac9" stroke="none" /><path d="M 17.85,12.30 L 17.85,12.63 L 18.18,12.63 L 18.29,12.73 L 18.29,13.06 L 18.83,13.06 L 18.94,13.17 L 18.94,13.39 L 19.59,13.39 L 19.70,13.50 L 19.70,13.82 L 20.35,13.82 L 20.46,13.93 L 20.46,14.15 L 21.12,14.15 L 21.22,14.26 L 21.22,14.48 L 21.55,14.48 L 21.55,14.26 L 21.66,14.15 L 22.31,14.15 L 22.31,13.93 L 22.42,13.82 L 23.07,13.82 L 23.07,13.50 L 23.18,13.39 L 23.84,13.39 L 23.84,13.17 L 23.95,13.06 L 24.60,13.06 L 24.60,12.30 L 23.95,12.30 L 23.84,12.19 L 23.84,11.86 L 23.18,11.86 L 23.07,11.76 L 23.07,11.54 L 22.42,11.54 L 22.31,11.43 L 22.31,11.21 L 21.66,11.21 L 21.55,11.10 L 21.55,10.78 L 20.79,10.78 L 20.79,11.10 L 20.68,11.21 L 20.14,11.21 L 20.14,11.43 L 20.03,11.54 L 19.37,11.54 L 19.37,11.76 L 19.27,11.86 L 18.61,11.86 L 18.61,12.19 L 18.50,12.30 Z" fill="#e2dedd" stroke="none" /><path d="M 3.70,5.22 L 3.70,5.55 L 4.03,5.55 L 4.14,5.66 L 4.14,5.99 L 4.79,5.99 L 4.90,6.10 L 4.90,6.31 L 5.44,6.31 L 5.55,6.42 L 5.55,6.75 L 6.20,6.75 L 6.31,6.86 L 6.31,7.07 L 7.84,7.07 L 7.84,6.86 L 7.95,6.75 L 8.60,6.75 L 8.60,6.42 L 8.71,6.31 L 9.36,6.31 L 9.36,6.10 L 9.47,5.99 L 10.01,5.99 L 10.01,5.66 L 10.12,5.55 L 10.45,5.55 L 10.45,5.22 L 9.80,5.22 L 9.69,5.12 L 9.69,4.90 L 9.03,4.90 L 8.93,4.79 L 8.93,4.46 L 8.27,4.46 L 8.16,4.35 L 8.16,4.14 L 7.62,4.14 L 7.51,4.03 L 7.51,3.70 L 6.75,3.70 L 6.75,4.03 L 6.64,4.14 L 5.99,4.14 L 5.99,4.35 L 5.88,4.46 L 5.22,4.46 L 5.22,4.79 L 5.12,4.90 L 4.46,4.90 L 4.46,5.12 L 4.35,5.22 Z" fill="#e2dedd" stroke="none" /><path d="M 7.07,7.07 L 7.07,7.40 L 7.73,7.40 L 7.84,7.51 L 7.84,7.84 L 8.49,7.84 L 8.60,7.95 L 8.60,8.16 L 9.25,8.16 L 9.36,8.27 L 9.36,8.60 L 9.90,8.60 L 10.01,8.71 L 10.01,8.93 L 10.67,8.93 L 10.78,9.03 L 10.78,9.36 L 11.43,9.36 L 11.54,9.47 L 11.54,9.69 L 12.19,9.69 L 12.30,9.80 L 12.30,10.01 L 12.95,10.01 L 13.06,10.12 L 13.06,10.45 L 13.71,10.45 L 13.82,10.56 L 13.82,10.78 L 14.37,10.78 L 14.48,10.88 L 14.48,11.21 L 15.13,11.21 L 15.24,11.32 L 15.24,11.54 L 15.89,11.54 L 16.00,11.65 L 16.00,11.86 L 16.65,11.86 L 16.76,11.97 L 16.76,12.30 L 17.41,12.30 L 17.52,12.41 L 17.52,12.63 L 17.85,12.63 L 17.85,12.41 L 17.96,12.30 L 18.61,12.30 L 18.61,11.97 L 18.72,11.86 L 19.37,11.86 L 19.37,11.65 L 19.48,11.54 L 20.14,11.54 L 20.14,11.32 L 20.24,11.21 L 20.79,11.21 L 20.79,10.45 L 20.24,10.45 L 20.14,10.34 L 20.14,10.01 L 19.48,10.01 L 19.37,9.90 L 19.37,9.69 L 18.72,9.69 L 18.61,9.58 L 18.61,9.36 L 17.96,9.36 L 17.85,9.25 L 17.85,9.03 L 17.96,8.93 L 18.29,8.93 L 18.29,8.71 L 18.39,8.60 L 18.94,8.60 L 18.94,8.27 L 19.05,8.16 L 19.70,8.16 L 19.70,7.95 L 19.81,7.84 L 20.46,7.84 L 20.46,7.51 L 20.57,7.40 L 21.22,7.40 L 21.22,7.07 L 20.57,7.07 L 20.46,6.97 L 20.46,6.75 L 19.81,6.75 L 19.70,6.64 L 19.70,6.31 L 19.05,6.31 L 18.94,6.20 L 18.94,5.99 L 18.39,5.99 L 18.29,5.88 L 18.29,5.55 L 17.09,5.55 L 17.09,5.88 L 16.98,5.99 L 16.33,5.99 L 16.33,6.20 L 16.22,6.31 L 15.67,6.31 L 15.67,6.64 L 15.56,6.75 L 14.91,6.75 L 14.91,6.97 L 14.80,7.07 L 13.50,7.07 L 13.39,6.97 L 13.39,6.75 L 12.73,6.75 L 12.63,6.64 L 12.63,6.31 L 12.08,6.31 L 11.97,6.20 L 11.97,5.99 L 11.32,5.99 L 11.21,5.88 L 11.21,5.55 L 10.01,5.55 L 10.01,5.88 L 9.90,5.99 L 9.36,5.99 L 9.36,6.20 L 9.25,6.31 L 8.60,6.31 L 8.60,6.64 L 8.49,6.75 L 7.84,6.75 L 7.84,6.97 L 7.73,7.07 Z" fill="#f5eae9" stroke="none" /><path d="M 17.85,8.93 L 17.85,9.36 L 18.50,9.36 L 18.61,9.47 L 18.61,9.69 L 19.27,9.69 L 19.37,9.80 L 19.37,10.01 L 20.03,10.01 L 20.14,10.12 L 20.14,10.45 L 20.68,10.45 L 20.79,10.56 L 20.79,10.78 L 21.44,10.78 L 21.55,10.88 L 21.55,11.21 L 22.20,11.21 L 22.31,11.32 L 22.31,11.54 L 22.97,11.54 L 23.07,11.65 L 23.07,11.86 L 23.73,11.86 L 23.84,11.97 L 23.84,12.30 L 24.49,12.30 L 24.60,12.41 L 24.60,12.63 L 25.25,12.63 L 25.25,12.41 L 25.36,12.30 L 26.01,12.30 L 26.01,11.97 L 26.12,11.86 L 26.78,11.86 L 26.78,11.65 L 26.88,11.54 L 27.54,11.54 L 27.54,11.32 L 27.65,11.21 L 28.30,11.21 L 28.30,10.78 L 27.97,10.78 L 27.86,10.67 L 27.86,10.45 L 27.21,10.45 L 27.10,10.34 L 27.10,10.01 L 26.56,10.01 L 26.45,9.90 L 26.45,9.69 L 25.80,9.69 L 25.69,9.58 L 25.69,9.36 L 25.03,9.36 L 24.93,9.25 L 24.93,8.93 L 24.27,8.93 L 24.16,8.82 L 24.16,8.60 L 23.51,8.60 L 23.40,8.49 L 23.40,8.16 L 22.86,8.16 L 22.75,8.05 L 22.75,7.84 L 22.10,7.84 L 21.99,7.73 L 21.99,7.40 L 20.46,7.40 L 20.46,7.73 L 20.35,7.84 L 19.70,7.84 L 19.70,8.05 L 19.59,8.16 L 18.94,8.16 L 18.94,8.49 L 18.83,8.60 L 18.29,8.60 L 18.29,8.82 L 18.18,8.93 Z" fill="#faf6f3" stroke="none" /><path d="M 3.70,1.52 L 3.70,2.29 L 4.35,2.29 L 4.46,2.39 L 4.46,2.61 L 5.12,2.61 L 5.22,2.72 L 5.22,3.05 L 5.88,3.05 L 5.99,3.16 L 5.99,3.37 L 6.64,3.37 L 6.75,3.48 L 6.75,3.70 L 7.40,3.70 L 7.51,3.81 L 7.51,4.14 L 8.05,4.14 L 8.16,4.24 L 8.16,4.46 L 8.82,4.46 L 8.93,4.57 L 8.93,4.90 L 9.58,4.90 L 9.69,5.01 L 9.69,5.22 L 10.34,5.22 L 10.45,5.33 L 10.45,5.55 L 11.10,5.55 L 11.21,5.66 L 11.21,5.99 L 11.86,5.99 L 11.97,6.10 L 11.97,6.31 L 12.52,6.31 L 12.63,6.42 L 12.63,6.75 L 13.28,6.75 L 13.39,6.86 L 13.39,7.07 L 14.91,7.07 L 14.91,6.86 L 15.02,6.75 L 15.67,6.75 L 15.67,6.42 L 15.78,6.31 L 16.33,6.31 L 16.33,6.10 L 16.44,5.99 L 17.09,5.99 L 17.09,5.66 L 17.20,5.55 L 17.52,5.55 L 17.52,5.22 L 16.87,5.22 L 16.76,5.12 L 16.76,4.90 L 16.11,4.90 L 16.00,4.79 L 16.00,4.46 L 15.35,4.46 L 15.24,4.35 L 15.24,4.14 L 14.59,4.14 L 14.48,4.03 L 14.48,3.70 L 13.93,3.70 L 13.82,3.59 L 13.82,3.37 L 13.17,3.37 L 13.06,3.27 L 13.06,3.05 L 12.41,3.05 L 12.30,2.94 L 12.30,2.61 L 11.65,2.61 L 11.54,2.50 L 11.54,2.29 L 10.88,2.29 L 10.78,2.18 L 10.78,1.85 L 10.12,1.85 L 10.01,1.74 L 10.01,1.52 L 9.47,1.52 L 9.36,1.41 L 9.36,1.09 L 8.71,1.09 L 8.60,0.98 L 8.60,0.76 L 7.95,0.76 L 7.84,0.65 L 7.84,0.44 L 7.18,0.44 L 7.07,0.33 L 7.07,0.00 L 6.75,0.00 L 6.75,0.33 L 6.64,0.44 L 5.99,0.44 L 5.99,0.65 L 5.88,0.76 L 5.22,0.76 L 5.22,0.98 L 5.12,1.09 L 4.46,1.09 L 4.46,1.41 L 4.35,1.52 Z" fill="#faf6f3" stroke="none" /></svg>