<svg height="32" width="32" viewBox="0 0 32 32"><defs /><path d="M 16.18,15.70 L 14.39,16.58 L 14.39,18.80 L 16.18,17.93 Z" fill="#0e0903" stroke="none" /><path d="M 19.80,27.11 L 17.97,28.02 L 17.97,30.21 L 18.05,30.21 L 19.80,29.34 Z" fill="#1a0b04" stroke="none" /><path d="M 25.16,22.22 L 23.37,23.10 L 23.37,25.28 L 23.29,25.36 L 21.59,26.20 L 21.59,28.42 L 23.37,27.55 L 23.37,25.36 L 23.45,25.28 L 25.16,24.45 Z" fill="#1a0b04" stroke="none" /><path d="M 16.18,17.93 L 16.10,17.93 L 14.39,18.80 L 14.39,20.99 L 14.47,20.99 L 16.18,20.11 Z" fill="#110c05" stroke="none" /><path d="M 28.78,7.20 L 26.99,8.07 L 26.99,10.30 L 28.78,9.42 Z" fill="#110c05" stroke="none" /><path d="M 12.60,22.30 L 12.60,24.53 L 14.39,25.40 L 14.39,23.18 Z" fill="#170f05" stroke="none" /><path d="M 3.62,22.22 L 3.62,24.45 L 5.41,25.32 L 5.41,23.10 Z" fill="#170f05" stroke="none" /><path d="M 7.20,21.82 L 7.20,24.01 L 8.90,24.88 L 8.98,24.88 L 8.98,22.70 L 7.27,21.82 Z" fill="#170f05" stroke="none" /><path d="M 0.00,20.43 L 0.00,22.62 L 1.71,23.49 L 1.79,23.49 L 1.79,21.31 L 0.08,20.43 Z" fill="#170f05" stroke="none" /><path d="M 8.98,18.33 L 8.98,20.51 L 10.73,21.39 L 10.81,21.39 L 10.81,19.20 L 9.06,18.33 Z" fill="#170f05" stroke="none" /><path d="M 1.79,14.71 L 1.79,16.89 L 3.62,17.81 L 3.62,15.62 Z" fill="#170f05" stroke="none" /><path d="M 8.98,11.69 L 8.98,13.83 L 8.94,13.87 L 7.20,13.00 L 7.20,15.22 L 10.81,17.01 L 10.81,12.60 Z" fill="#170f05" stroke="none" /><path d="M 19.72,24.92 L 17.97,25.80 L 17.97,28.02 L 19.76,27.15 L 19.80,27.19 L 19.80,29.30 L 19.88,29.30 L 21.59,28.42 L 21.59,26.24 L 21.51,26.24 L 19.84,27.07 L 19.80,27.03 L 19.80,24.92 Z" fill="#1d0f06" stroke="none" /><path d="M 25.16,24.45 L 25.08,24.45 L 23.37,25.32 L 23.37,27.51 L 23.45,27.51 L 25.16,26.63 Z" fill="#1d0f06" stroke="none" /><path d="M 17.97,12.60 L 14.39,14.39 L 14.39,16.58 L 14.47,16.58 L 16.14,15.74 L 16.18,15.78 L 16.18,17.89 L 16.26,17.89 L 19.80,16.10 L 19.80,13.91 L 19.72,13.91 L 18.01,14.79 L 17.97,14.75 Z" fill="#140e07" stroke="none" /><path d="M 28.78,9.42 L 28.70,9.42 L 27.03,10.26 L 26.99,10.22 L 26.99,8.11 L 26.91,8.11 L 25.16,8.98 L 25.16,11.17 L 25.08,11.25 L 23.37,12.08 L 23.37,14.31 L 25.16,13.44 L 25.16,11.25 L 25.24,11.17 L 26.91,10.34 L 26.99,10.38 L 26.99,12.48 L 27.07,12.48 L 28.74,11.65 L 28.78,11.61 Z" fill="#140e07" stroke="none" /><path d="M 28.78,11.61 L 26.99,12.48 L 26.99,14.71 L 28.78,13.83 Z" fill="#150f07" stroke="none" /><path d="M 26.99,10.30 L 25.20,11.17 L 25.16,11.13 L 25.16,9.02 L 25.08,9.02 L 18.01,12.56 L 17.97,12.60 L 17.97,14.79 L 18.05,14.79 L 19.76,13.91 L 19.80,13.95 L 19.80,16.10 L 19.84,16.10 L 23.37,14.31 L 23.37,12.12 L 23.41,12.08 L 25.12,11.25 L 25.16,11.29 L 25.16,13.40 L 25.24,13.40 L 26.99,12.52 Z" fill="#191108" stroke="none" /><path d="M 7.20,19.60 L 7.20,21.82 L 8.98,22.70 L 8.98,20.47 Z" fill="#1c1308" stroke="none" /><path d="M 10.81,19.24 L 10.81,21.43 L 14.31,23.18 L 14.39,23.18 L 14.39,20.99 L 10.89,19.24 Z" fill="#1c1308" stroke="none" /><path d="M 0.00,13.83 L 0.00,18.21 L 1.71,19.08 L 1.79,19.08 L 1.79,14.71 L 0.08,13.83 Z" fill="#1c1308" stroke="none" /><path d="M 10.81,12.60 L 10.81,14.83 L 14.31,16.58 L 14.39,16.58 L 14.39,14.39 Z" fill="#1c1308" stroke="none" /><path d="M 0.00,7.20 L 0.00,11.61 L 1.71,12.48 L 1.79,12.48 L 1.79,10.38 L 1.83,10.34 L 3.54,11.17 L 3.62,11.25 L 3.62,13.44 L 5.33,14.27 L 5.41,14.35 L 5.41,16.46 L 5.37,16.50 L 3.62,15.62 L 3.62,22.14 L 3.54,22.18 L 1.79,21.31 L 1.79,23.53 L 3.54,24.41 L 3.62,24.41 L 3.62,22.30 L 3.66,22.26 L 5.33,23.10 L 5.41,23.10 L 5.41,16.58 L 5.45,16.54 L 8.90,18.29 L 8.98,18.29 L 8.98,16.10 L 7.20,15.19 L 7.20,13.08 L 7.23,13.04 L 8.90,13.87 L 8.98,13.87 L 8.98,11.69 L 7.27,10.81 L 7.20,10.81 L 7.20,12.92 L 7.12,12.96 L 3.70,11.25 L 3.62,11.17 L 3.62,8.98 Z" fill="#1c1308" stroke="none" /><path d="M 1.79,16.89 L 1.79,19.04 L 1.75,19.08 L 0.00,18.21 L 0.00,20.43 L 3.62,22.22 L 3.62,17.81 Z" fill="#21170b" stroke="none" /><path d="M 0.00,11.61 L 0.00,13.83 L 1.79,14.71 L 1.79,12.56 L 1.83,12.52 L 3.62,13.44 L 3.62,15.62 L 5.41,16.54 L 5.41,23.14 L 7.20,24.01 L 7.20,19.68 L 7.27,19.64 L 8.90,20.47 L 8.98,20.47 L 8.98,18.37 L 9.02,18.33 L 10.73,19.20 L 10.81,19.20 L 10.81,17.09 L 10.85,17.05 L 12.60,17.93 L 12.60,20.11 L 14.31,20.99 L 14.39,20.99 L 14.39,16.58 L 10.89,14.83 L 10.81,14.83 L 10.81,16.93 L 10.77,16.97 L 8.98,16.10 L 8.98,18.25 L 8.94,18.29 L 5.41,16.50 L 5.41,14.31 L 3.62,13.40 L 3.62,11.29 L 3.70,11.25 L 7.20,13.00 L 7.20,10.77 L 3.70,9.02 L 3.62,9.02 L 3.62,11.13 L 3.58,11.17 L 1.79,10.30 L 1.79,12.44 L 1.75,12.48 Z" fill="#21170b" stroke="none" /><path d="M 10.81,17.01 L 10.81,19.24 L 12.60,20.11 L 12.60,17.89 Z" fill="#281b0d" stroke="none" /><path d="M 1.79,12.52 L 1.79,14.71 L 3.62,15.62 L 3.62,13.40 L 1.87,12.52 Z" fill="#281b0d" stroke="none" /><path d="M 12.60,13.48 L 12.60,13.52 L 14.35,14.39 L 14.43,14.39 L 16.18,13.52 L 16.18,13.48 L 14.43,12.60 L 14.35,12.60 Z" fill="#2a1e0d" stroke="none" /><path d="M 28.74,7.16 L 27.07,6.32 L 26.91,6.32 L 23.41,8.07 L 23.41,8.11 L 25.12,8.98 L 25.24,8.98 L 28.74,7.23 Z" fill="#2a1e0d" stroke="none" /><path d="M 0.04,7.16 L 0.04,7.23 L 8.94,11.69 L 9.06,11.69 L 12.60,9.90 L 14.31,10.77 L 14.47,10.77 L 16.18,9.90 L 19.72,11.69 L 19.84,11.69 L 21.59,10.81 L 21.59,10.77 L 16.26,8.11 L 16.14,8.11 L 14.43,8.98 L 14.35,8.98 L 10.93,7.27 L 10.85,7.20 L 10.89,7.16 L 12.60,6.32 L 12.60,6.28 L 9.14,4.57 L 9.06,4.49 L 9.10,4.45 L 10.73,3.66 L 10.77,3.58 L 9.02,2.70 L 8.94,2.70 L 5.41,4.49 L 5.41,4.53 L 10.73,7.20 L 10.65,7.27 L 9.02,8.07 L 9.06,8.15 L 10.73,8.98 L 10.65,9.06 L 8.98,9.90 L 3.74,7.27 L 3.66,7.20 L 3.70,7.16 L 5.41,6.32 L 5.41,6.28 L 3.66,5.41 L 3.54,5.41 Z" fill="#2a1e0d" stroke="none" /><path d="M 12.60,0.87 L 12.64,0.95 L 17.85,3.54 L 17.93,3.62 L 16.22,4.49 L 14.47,3.62 L 14.31,3.62 L 12.64,4.45 L 12.60,4.53 L 14.35,5.41 L 14.43,5.41 L 16.14,4.53 L 16.26,4.53 L 17.85,5.33 L 17.93,5.41 L 16.18,6.28 L 16.18,6.32 L 19.76,8.11 L 21.55,7.23 L 21.55,7.16 L 18.05,5.41 L 18.13,5.33 L 19.76,4.53 L 19.72,4.45 L 18.05,3.62 L 18.13,3.54 L 19.76,2.74 L 19.76,2.66 L 14.43,0.00 L 14.35,0.00 Z" fill="#2a1e0d" stroke="none" /><path d="M 9.02,11.69 L 9.02,11.73 L 12.52,13.48 L 12.68,13.48 L 14.35,12.64 L 14.35,12.56 L 12.72,11.77 L 12.64,11.69 L 14.35,10.81 L 14.43,10.81 L 16.14,11.69 L 16.06,11.77 L 14.43,12.56 L 14.43,12.64 L 16.10,13.48 L 16.26,13.48 L 19.76,11.73 L 19.72,11.65 L 16.22,9.90 L 16.14,9.90 L 14.43,10.77 L 14.35,10.77 L 12.64,9.90 L 12.56,9.90 Z" fill="#322411" stroke="none" /><path d="M 5.37,4.49 L 3.62,5.37 L 3.66,5.45 L 5.33,6.28 L 5.29,6.36 L 3.66,7.16 L 3.62,7.23 L 5.41,8.11 L 7.16,7.23 L 7.16,7.16 L 5.49,6.32 L 5.53,6.24 L 7.16,5.45 L 7.16,5.37 Z" fill="#322411" stroke="none" /><path d="M 7.20,9.02 L 8.94,9.90 L 9.02,9.90 L 10.77,9.02 L 10.73,8.94 L 9.06,8.11 L 9.14,8.03 L 10.73,7.23 L 10.85,7.23 L 14.31,8.98 L 14.47,8.98 L 16.22,8.11 L 19.76,9.90 L 19.84,9.90 L 21.55,9.02 L 21.62,9.02 L 23.33,9.90 L 23.41,9.90 L 25.16,9.02 L 25.12,8.94 L 23.45,8.11 L 23.53,8.03 L 26.99,6.32 L 26.99,6.28 L 25.24,5.41 L 25.12,5.41 L 19.84,8.07 L 19.72,8.07 L 18.01,7.20 L 16.26,8.07 L 16.14,8.07 L 14.47,7.23 L 14.43,7.20 L 14.47,7.16 L 17.97,5.41 L 19.72,6.28 L 19.88,6.28 L 21.55,5.45 L 21.55,5.37 L 19.92,4.57 L 19.84,4.49 L 21.59,3.62 L 21.59,3.58 L 19.84,2.70 L 19.76,2.70 L 18.05,3.58 L 17.93,3.58 L 12.64,0.91 L 12.52,0.91 L 9.02,2.66 L 9.02,2.74 L 10.65,3.54 L 10.73,3.62 L 9.06,4.45 L 9.02,4.53 L 12.48,6.24 L 12.52,6.32 L 10.81,7.20 L 9.06,6.32 L 8.90,6.32 L 7.23,7.16 L 7.23,7.23 L 8.86,8.03 L 8.94,8.11 L 7.20,8.98 Z" fill="#322411" stroke="none" /><path d="M 23.37,20.91 L 19.80,22.70 L 19.80,24.88 L 19.88,24.88 L 23.37,23.14 Z" fill="#2a1913" stroke="none" /><path d="M 23.37,23.14 L 23.29,23.14 L 19.80,24.88 L 19.80,27.11 L 23.37,25.32 Z" fill="#2f1a15" stroke="none" /><path d="M 12.60,11.69 L 12.60,11.73 L 14.35,12.60 L 14.43,12.60 L 16.18,11.73 L 16.14,11.65 L 14.47,10.81 L 14.31,10.81 Z" fill="#3e2915" stroke="none" /><path d="M 19.84,9.86 L 19.84,9.94 L 21.51,10.77 L 21.66,10.77 L 23.33,9.94 L 23.33,9.86 L 21.66,9.02 L 21.51,9.02 Z" fill="#3e2915" stroke="none" /><path d="M 14.43,7.16 L 14.43,7.23 L 16.18,8.11 L 17.97,7.23 L 17.93,7.16 L 16.26,6.32 L 16.10,6.32 Z" fill="#3e2915" stroke="none" /><path d="M 7.16,5.41 L 5.41,6.28 L 5.41,6.32 L 7.16,7.20 L 5.41,8.07 L 5.41,8.11 L 7.12,8.98 L 7.27,8.98 L 8.94,8.15 L 8.98,8.07 L 7.23,7.20 L 8.98,6.32 L 8.98,6.28 L 7.23,5.41 Z" fill="#3e2915" stroke="none" /><path d="M 19.80,4.49 L 19.80,4.53 L 21.55,5.41 L 19.80,6.28 L 19.80,6.32 L 21.55,7.20 L 21.62,7.20 L 25.16,5.41 L 25.16,5.37 L 21.66,3.62 L 21.51,3.62 Z" fill="#3e2915" stroke="none" /><path d="M 10.81,3.58 L 10.85,3.66 L 12.52,4.49 L 12.64,4.49 L 14.39,3.62 L 14.39,3.58 L 12.64,2.70 L 12.56,2.70 Z" fill="#3e2915" stroke="none" /><path d="M 17.97,28.02 L 16.18,28.90 L 16.18,31.13 L 17.97,30.25 Z" fill="#332116" stroke="none" /><path d="M 28.78,20.43 L 28.70,20.43 L 26.99,21.31 L 26.99,23.49 L 25.16,24.41 L 25.16,26.63 L 26.99,25.72 L 26.99,23.53 L 28.78,22.62 Z" fill="#332116" stroke="none" /><path d="M 17.97,25.84 L 17.89,25.84 L 16.18,26.71 L 16.18,28.90 L 16.26,28.90 L 17.97,28.02 Z" fill="#382518" stroke="none" /><path d="M 26.95,21.31 L 25.16,22.22 L 25.16,24.41 L 25.24,24.41 L 26.95,23.53 L 26.99,23.57 L 26.99,25.72 L 27.03,25.72 L 28.78,24.84 L 28.78,22.62 L 27.03,23.49 L 26.99,23.45 L 26.99,21.31 Z" fill="#382518" stroke="none" /><path d="M 16.18,28.94 L 16.10,28.94 L 14.39,29.81 L 14.39,32.00 L 14.47,32.00 L 16.18,31.13 Z" fill="#3a2618" stroke="none" /><path d="M 16.18,26.71 L 14.39,27.59 L 14.39,29.81 L 16.18,28.94 Z" fill="#392319" stroke="none" /><path d="M 16.18,24.53 L 16.10,24.53 L 14.39,25.40 L 14.39,27.59 L 14.47,27.59 L 16.18,26.71 Z" fill="#3d271d" stroke="none" /><path d="M 23.37,18.72 L 23.29,18.72 L 21.59,19.60 L 21.59,21.78 L 21.66,21.78 L 23.37,20.91 Z" fill="#3d271d" stroke="none" /><path d="M 28.78,18.21 L 26.99,19.08 L 26.99,21.31 L 28.78,20.43 Z" fill="#3d271d" stroke="none" /><path d="M 17.97,17.01 L 16.18,17.89 L 16.18,20.07 L 16.10,20.15 L 14.39,20.99 L 14.39,23.18 L 14.47,23.18 L 16.18,22.30 L 16.18,20.15 L 16.26,20.07 L 17.97,19.24 Z" fill="#3d271d" stroke="none" /><path d="M 26.91,12.52 L 25.16,13.40 L 25.16,15.62 L 26.95,14.75 L 26.99,14.79 L 26.99,16.89 L 27.03,16.89 L 28.78,16.02 L 28.78,13.83 L 28.70,13.83 L 27.03,14.67 L 26.99,14.63 L 26.99,12.52 Z" fill="#3d271d" stroke="none" /><path d="M 28.78,16.02 L 28.70,16.02 L 27.03,16.85 L 26.99,16.81 L 26.99,14.71 L 25.20,15.58 L 25.16,15.54 L 25.16,13.44 L 25.08,13.44 L 23.41,14.27 L 23.37,14.31 L 23.37,16.50 L 21.59,17.41 L 21.59,19.56 L 21.51,19.64 L 19.80,20.47 L 19.80,22.66 L 19.72,22.74 L 16.22,24.49 L 16.18,24.45 L 16.18,22.34 L 16.26,22.26 L 17.97,21.43 L 17.97,19.24 L 17.89,19.24 L 16.22,20.07 L 16.18,20.11 L 16.18,22.26 L 16.10,22.34 L 14.39,23.18 L 14.39,25.40 L 16.14,24.53 L 16.18,24.57 L 16.18,26.71 L 16.22,26.71 L 19.80,24.92 L 19.80,22.74 L 19.88,22.66 L 21.59,21.82 L 21.59,19.64 L 21.66,19.56 L 26.91,16.93 L 26.99,16.97 L 26.99,19.08 L 23.37,20.91 L 23.37,23.10 L 23.45,23.10 L 26.95,21.35 L 26.99,21.31 L 26.99,19.12 L 28.78,18.21 Z" fill="#432d23" stroke="none" /><path d="M 23.37,14.31 L 21.59,15.19 L 21.59,17.37 L 21.51,17.45 L 19.84,18.29 L 19.80,18.25 L 19.80,16.10 L 17.97,17.01 L 17.97,21.39 L 18.05,21.39 L 21.59,19.60 L 21.59,17.45 L 21.66,17.37 L 23.37,16.54 Z" fill="#473025" stroke="none" /><path d="M 10.81,25.84 L 10.81,28.02 L 12.60,28.94 L 12.60,31.13 L 14.31,32.00 L 14.39,32.00 L 14.39,29.81 L 12.60,28.90 L 12.60,26.71 L 10.89,25.84 Z" fill="#533525" stroke="none" /><path d="M 0.00,22.62 L 0.00,24.84 L 1.79,25.72 L 1.79,23.49 Z" fill="#533525" stroke="none" /><path d="M 7.20,24.01 L 5.49,23.14 L 5.41,23.14 L 5.41,25.24 L 5.33,25.28 L 1.87,23.53 L 1.79,23.53 L 1.79,25.72 L 5.33,27.51 L 5.41,27.51 L 5.41,25.40 L 5.45,25.36 L 7.12,26.20 L 7.20,26.20 Z" fill="#5c3928" stroke="none" /><path d="M 8.98,20.51 L 8.98,22.70 L 10.81,23.61 L 10.81,21.39 L 9.06,20.51 Z" fill="#5c3928" stroke="none" /><path d="M 7.20,26.24 L 7.20,28.42 L 7.23,28.46 L 8.90,29.30 L 8.98,29.30 L 8.98,27.19 L 9.06,27.15 L 10.73,27.99 L 10.81,28.06 L 10.81,30.25 L 12.60,31.13 L 12.60,28.90 L 10.89,28.06 L 10.81,27.99 L 10.81,25.80 L 9.06,24.92 L 8.98,24.92 L 8.98,27.03 L 8.94,27.07 L 7.27,26.24 Z" fill="#5c3c28" stroke="none" /><path d="M 12.60,26.71 L 12.60,28.94 L 14.39,29.81 L 14.39,27.59 Z" fill="#5f3e28" stroke="none" /><path d="M 21.59,15.22 L 21.51,15.22 L 19.80,16.10 L 19.80,18.29 L 19.88,18.29 L 21.59,17.41 Z" fill="#48342a" stroke="none" /><path d="M 10.89,21.43 L 10.81,21.43 L 10.81,23.53 L 10.77,23.57 L 8.98,22.70 L 8.98,24.84 L 8.94,24.88 L 7.20,24.01 L 7.20,26.16 L 7.16,26.20 L 5.41,25.32 L 5.41,27.55 L 7.20,28.42 L 7.20,26.28 L 7.23,26.24 L 8.90,27.07 L 8.98,27.15 L 8.98,29.34 L 10.73,30.21 L 10.81,30.21 L 10.81,28.02 L 9.06,27.15 L 8.98,27.07 L 8.98,24.96 L 9.02,24.92 L 14.31,27.59 L 14.39,27.59 L 14.39,25.40 L 12.60,24.49 L 12.60,22.30 Z" fill="#633f2f" stroke="none" /><path d="M 19.80,20.51 L 19.72,20.51 L 17.97,21.39 L 17.97,23.61 L 19.80,22.70 Z" fill="#201836" stroke="none" /><path d="M 25.16,17.81 L 23.37,18.68 L 23.37,20.91 L 25.16,20.03 Z" fill="#201836" stroke="none" /><path d="M 17.97,21.43 L 17.89,21.43 L 16.18,22.30 L 16.18,24.49 L 16.26,24.49 L 17.97,23.61 Z" fill="#656565" stroke="none" /><path d="M 26.99,16.89 L 25.16,17.81 L 25.16,20.00 L 25.24,20.00 L 26.99,19.12 Z" fill="#656565" stroke="none" /></svg>