<svg height="32" width="32" viewBox="0 0 32 32"><defs /><path d="M 8.75,29.63 L 8.67,29.63 L 7.66,30.13 L 7.66,31.46 L 8.75,30.91 Z" fill="#090606" stroke="none" /><path d="M 11.00,28.50 L 10.93,28.50 L 9.88,29.04 L 9.88,30.33 L 9.95,30.33 L 11.00,29.78 Z" fill="#090606" stroke="none" /><path d="M 14.27,27.96 L 12.09,29.04 L 12.09,30.33 L 12.17,30.33 L 14.27,29.28 Z" fill="#090606" stroke="none" /><path d="M 20.92,23.52 L 20.88,23.52 L 20.88,24.61 L 20.80,24.69 L 17.61,26.28 L 17.61,27.57 L 17.69,27.57 L 20.88,25.97 L 20.88,24.88 L 20.92,24.85 Z" fill="#090606" stroke="none" /><path d="M 16.49,20.10 L 16.41,20.10 L 15.40,20.61 L 15.40,24.69 L 16.49,24.15 Z" fill="#090606" stroke="none" /><path d="M 10.96,17.65 L 8.75,18.74 L 8.75,20.10 L 8.83,20.10 L 10.96,19.01 Z" fill="#090606" stroke="none" /><path d="M 20.88,13.84 L 20.80,13.84 L 18.70,14.89 L 18.70,16.25 L 20.88,15.16 Z" fill="#090606" stroke="none" /><path d="M 24.18,9.72 L 24.11,9.72 L 23.13,10.23 L 23.13,11.55 L 22.05,12.09 L 22.05,13.45 L 22.12,13.45 L 24.18,12.40 Z" fill="#090606" stroke="none" /><path d="M 24.18,5.68 L 23.13,6.18 L 23.13,8.87 L 24.18,8.36 Z" fill="#090606" stroke="none" /><path d="M 4.39,29.59 L 4.39,30.91 L 6.61,32.00 L 6.61,30.68 Z" fill="#0e0a0a" stroke="none" /><path d="M 11.00,28.50 L 11.00,29.82 L 12.01,30.33 L 12.09,30.33 L 12.09,29.04 Z" fill="#0e0a0a" stroke="none" /><path d="M 0.00,27.41 L 0.00,28.70 L 1.09,29.24 L 1.09,27.92 L 0.08,27.41 Z" fill="#0e0a0a" stroke="none" /><path d="M 2.18,21.70 L 2.18,25.78 L 3.30,26.32 L 3.30,22.24 Z" fill="#0e0a0a" stroke="none" /><path d="M 5.52,19.32 L 5.52,20.69 L 6.53,21.19 L 6.61,21.19 L 6.61,19.83 L 5.60,19.32 Z" fill="#0e0a0a" stroke="none" /><path d="M 11.00,17.69 L 11.00,19.01 L 12.09,19.56 L 12.09,18.20 L 11.08,17.69 Z" fill="#0e0a0a" stroke="none" /><path d="M 7.66,28.81 L 7.58,28.81 L 6.61,29.32 L 6.61,30.68 L 7.66,30.17 Z" fill="#0f0d0b" stroke="none" /><path d="M 17.61,24.92 L 16.49,25.47 L 16.49,26.83 L 16.56,26.83 L 17.61,26.28 Z" fill="#0f0d0b" stroke="none" /><path d="M 15.40,24.69 L 14.27,25.23 L 14.27,26.60 L 15.40,26.05 Z" fill="#0f0d0b" stroke="none" /><path d="M 13.18,24.46 L 13.10,24.46 L 12.09,24.96 L 12.09,27.68 L 13.18,27.14 Z" fill="#0f0d0b" stroke="none" /><path d="M 11.00,24.42 L 10.96,24.42 L 10.96,25.78 L 8.75,26.91 L 8.75,29.59 L 8.83,29.59 L 9.88,29.04 L 9.88,27.72 L 9.95,27.65 L 11.00,27.14 Z" fill="#0f0d0b" stroke="none" /><path d="M 8.75,21.50 L 8.67,21.50 L 7.66,22.01 L 7.66,23.33 L 7.58,23.41 L 6.61,23.87 L 6.61,25.23 L 6.69,25.23 L 7.66,24.73 L 7.66,23.41 L 7.74,23.33 L 8.75,22.82 Z" fill="#0f0d0b" stroke="none" /><path d="M 22.05,18.90 L 20.92,19.44 L 20.92,20.80 L 20.88,20.84 L 20.92,23.52 L 24.18,21.89 L 24.18,20.53 L 23.17,21.04 L 23.13,21.00 L 23.13,19.71 L 22.09,20.22 L 22.05,20.18 Z" fill="#0f0d0b" stroke="none" /><path d="M 17.61,16.80 L 16.49,17.34 L 16.49,20.06 L 16.56,20.06 L 17.61,19.52 Z" fill="#0f0d0b" stroke="none" /><path d="M 11.00,14.93 L 10.96,14.93 L 10.96,16.29 L 9.88,16.84 L 9.88,18.20 L 11.00,17.65 Z" fill="#0f0d0b" stroke="none" /><path d="M 9.88,14.15 L 9.80,14.15 L 7.66,15.24 L 7.66,16.56 L 7.58,16.64 L 6.61,17.11 L 6.61,19.83 L 7.66,19.32 L 7.66,18.00 L 7.74,17.92 L 8.75,17.42 L 8.75,16.10 L 8.83,16.02 L 9.88,15.51 Z" fill="#0f0d0b" stroke="none" /><path d="M 16.49,11.98 L 16.41,11.98 L 15.40,12.48 L 15.40,13.80 L 15.32,13.88 L 12.09,15.48 L 12.09,18.20 L 12.17,18.20 L 13.18,17.69 L 13.18,16.33 L 14.23,15.79 L 14.27,15.83 L 14.27,17.11 L 14.35,17.11 L 15.40,16.56 L 15.40,13.88 L 15.48,13.80 L 16.49,13.30 Z" fill="#0f0d0b" stroke="none" /><path d="M 15.40,9.80 L 15.32,9.80 L 14.27,10.34 L 14.27,11.70 L 15.40,11.16 Z" fill="#0f0d0b" stroke="none" /><path d="M 23.13,8.87 L 22.05,9.41 L 22.05,10.73 L 21.97,10.81 L 20.96,11.31 L 20.92,11.28 L 20.92,9.99 L 20.88,9.99 L 20.88,11.35 L 20.92,11.39 L 20.92,12.44 L 19.83,12.99 L 19.79,12.95 L 19.79,11.66 L 19.71,11.66 L 18.74,12.17 L 18.70,12.13 L 18.70,10.85 L 17.61,11.39 L 17.61,14.08 L 16.49,14.66 L 16.49,16.02 L 17.61,15.48 L 17.61,14.11 L 18.66,13.57 L 18.70,13.61 L 18.70,14.89 L 18.78,14.89 L 20.88,13.84 L 20.88,12.71 L 22.05,12.13 L 22.05,10.81 L 22.12,10.73 L 23.13,10.23 Z" fill="#0f0d0b" stroke="none" /><path d="M 22.05,6.77 L 21.97,6.77 L 20.92,7.31 L 20.92,8.59 L 21.00,8.59 L 22.05,8.05 Z" fill="#0f0d0b" stroke="none" /><path d="M 19.79,6.22 L 17.61,7.31 L 17.61,8.63 L 17.54,8.71 L 16.49,9.22 L 16.49,10.58 L 16.56,10.58 L 18.70,9.49 L 18.70,8.17 L 18.78,8.09 L 19.79,7.58 Z" fill="#0f0d0b" stroke="none" /><path d="M 11.00,27.14 L 10.93,27.14 L 9.88,27.68 L 9.88,29.01 L 9.80,29.08 L 8.79,29.59 L 8.75,29.55 L 8.75,28.27 L 8.67,28.27 L 7.66,28.77 L 7.66,30.13 L 6.61,30.68 L 6.61,31.96 L 6.69,31.96 L 7.66,31.46 L 7.66,30.17 L 8.71,29.63 L 8.75,29.67 L 8.75,30.91 L 9.88,30.37 L 9.88,29.08 L 9.95,29.01 L 11.00,28.50 Z" fill="#0e090c" stroke="none" /><path d="M 24.18,21.89 L 20.96,23.48 L 20.92,23.45 L 20.92,22.20 L 21.00,22.12 L 22.05,21.62 L 22.05,20.26 L 20.92,20.80 L 20.92,22.12 L 20.88,22.16 L 20.88,23.25 L 20.80,23.33 L 17.65,24.88 L 17.61,24.92 L 17.61,26.25 L 17.54,26.32 L 16.52,26.83 L 16.49,26.79 L 16.49,24.15 L 15.44,24.65 L 15.40,24.69 L 15.40,26.01 L 15.36,26.05 L 12.09,27.68 L 12.09,29.04 L 14.23,28.00 L 14.27,28.03 L 14.27,29.24 L 14.35,29.24 L 17.61,27.61 L 17.61,26.32 L 17.69,26.25 L 20.88,24.65 L 20.92,24.69 L 20.92,24.81 L 21.00,24.81 L 24.18,23.21 Z" fill="#0e090c" stroke="none" /><path d="M 10.96,17.65 L 10.96,19.01 L 11.00,19.01 L 11.00,17.65 Z" fill="#0e090c" stroke="none" /><path d="M 9.88,16.87 L 9.80,16.87 L 7.66,17.96 L 7.66,19.29 L 6.61,19.83 L 6.61,21.19 L 8.75,20.14 L 8.75,18.78 L 9.88,18.20 Z" fill="#0e090c" stroke="none" /><path d="M 18.70,13.57 L 18.62,13.57 L 17.61,14.08 L 17.61,15.44 L 17.57,15.48 L 14.31,17.11 L 14.27,17.07 L 14.27,15.79 L 14.19,15.79 L 13.18,16.29 L 13.18,17.65 L 12.09,18.20 L 12.09,19.56 L 15.36,17.92 L 15.40,17.96 L 15.40,20.61 L 15.48,20.61 L 16.49,20.10 L 16.49,17.38 L 18.70,16.25 Z" fill="#0e090c" stroke="none" /><path d="M 24.18,8.36 L 24.11,8.36 L 23.13,8.87 L 23.13,10.19 L 23.06,10.26 L 22.05,10.77 L 22.05,12.09 L 22.01,12.13 L 20.96,12.64 L 20.92,12.60 L 20.92,11.35 L 20.88,11.35 L 20.88,14.04 L 20.96,14.04 L 22.05,13.49 L 22.05,12.13 L 23.13,11.59 L 23.13,10.26 L 23.21,10.19 L 24.18,9.72 Z" fill="#0e090c" stroke="none" /><path d="M 22.05,5.64 L 22.05,5.68 L 23.06,6.18 L 23.21,6.18 L 24.15,5.72 L 24.15,5.64 L 23.13,5.13 L 23.06,5.13 Z" fill="#160f10" stroke="none" /><path d="M 14.31,3.27 L 14.31,3.30 L 15.44,3.85 L 17.57,2.76 L 17.65,2.76 L 19.40,3.65 L 19.48,3.65 L 19.79,3.50 L 19.79,3.46 L 17.61,2.37 L 17.30,2.53 L 17.19,2.53 L 16.52,2.18 Z" fill="#160f10" stroke="none" /><path d="M 6.57,2.72 L 6.57,2.76 L 8.75,3.85 L 9.88,3.30 L 9.88,3.27 L 7.70,2.18 Z" fill="#160f10" stroke="none" /><path d="M 3.30,27.68 L 3.30,29.04 L 4.39,29.59 L 4.39,28.23 Z" fill="#191612" stroke="none" /><path d="M 1.09,25.23 L 1.09,26.60 L 2.10,27.10 L 2.18,27.10 L 2.18,25.74 L 1.17,25.23 Z" fill="#191612" stroke="none" /><path d="M 3.30,19.56 L 3.30,22.28 L 4.32,22.78 L 4.39,22.78 L 4.39,20.10 Z" fill="#191612" stroke="none" /><path d="M 11.00,16.33 L 11.00,17.69 L 12.01,18.20 L 12.09,18.20 L 12.09,16.84 L 11.08,16.33 Z" fill="#191612" stroke="none" /><path d="M 4.39,14.70 L 4.39,17.34 L 4.35,17.38 L 3.38,16.87 L 3.30,16.87 L 3.30,18.20 L 4.39,18.74 L 4.39,17.46 L 4.43,17.42 L 5.44,17.92 L 5.52,18.00 L 5.52,19.32 L 6.53,19.83 L 6.61,19.83 L 6.61,17.15 L 5.60,16.64 L 5.52,16.56 L 5.52,15.24 L 4.47,14.70 Z" fill="#191612" stroke="none" /><path d="M 0.00,13.84 L 0.00,15.20 L 1.01,15.71 L 1.09,15.79 L 1.09,17.11 L 2.10,17.61 L 2.18,17.61 L 2.18,15.01 L 2.26,14.97 L 3.23,15.48 L 3.30,15.48 L 3.30,14.11 L 2.18,13.57 L 2.18,14.85 L 2.10,14.89 Z" fill="#191612" stroke="none" /><path d="M 8.79,8.44 L 8.79,9.72 L 8.75,9.76 L 7.78,9.25 L 7.70,9.25 L 7.70,10.61 L 9.91,11.70 L 9.91,10.42 L 9.95,10.38 L 11.00,10.89 L 11.00,9.53 L 8.87,8.44 Z" fill="#191612" stroke="none" /><path d="M 5.48,8.13 L 5.48,9.49 L 6.57,10.03 L 6.57,8.67 Z" fill="#191612" stroke="none" /><path d="M 11.00,27.14 L 11.00,28.50 L 12.09,29.04 L 12.09,27.68 Z" fill="#160e14" stroke="none" /><path d="M 0.00,26.05 L 0.00,27.41 L 1.09,27.96 L 1.09,29.24 L 1.13,29.28 L 4.32,30.87 L 4.39,30.87 L 4.39,29.67 L 4.43,29.63 L 6.53,30.68 L 6.61,30.68 L 6.61,29.32 L 4.43,28.23 L 4.39,28.23 L 4.39,29.51 L 4.35,29.55 L 3.38,29.08 L 3.30,29.01 L 3.30,26.32 L 3.27,26.28 L 2.26,25.78 L 2.18,25.78 L 2.18,27.06 L 2.14,27.10 L 0.08,26.05 Z" fill="#160e14" stroke="none" /><path d="M 0.00,15.20 L 0.00,17.92 L 2.18,19.01 L 2.18,21.70 L 3.23,22.24 L 3.30,22.24 L 3.30,19.64 L 3.34,19.60 L 5.44,20.65 L 5.52,20.65 L 5.52,17.96 L 4.47,17.42 L 4.39,17.42 L 4.39,18.66 L 4.32,18.70 L 1.13,17.11 L 1.09,17.07 L 1.09,15.75 Z" fill="#160e14" stroke="none" /><path d="M 11.00,23.06 L 10.96,23.06 L 10.96,24.42 L 9.91,24.96 L 9.88,24.92 L 9.88,23.64 L 9.80,23.64 L 8.79,24.15 L 8.75,24.11 L 8.75,22.82 L 7.70,23.33 L 7.66,23.29 L 7.66,22.05 L 7.58,22.05 L 6.61,22.55 L 6.61,23.87 L 6.69,23.87 L 7.62,23.41 L 7.66,23.45 L 7.66,24.73 L 8.67,24.22 L 8.75,24.26 L 8.75,25.51 L 8.67,25.58 L 7.66,26.09 L 7.66,27.41 L 7.58,27.49 L 6.61,27.96 L 6.61,29.32 L 8.75,28.27 L 8.75,26.95 L 8.83,26.87 L 10.96,25.82 Z" fill="#131115" stroke="none" /><path d="M 15.40,21.97 L 14.27,22.51 L 14.27,23.87 L 13.22,24.42 L 13.18,24.38 L 13.18,23.10 L 13.10,23.10 L 12.09,23.60 L 12.09,24.96 L 12.17,24.96 L 13.14,24.46 L 13.18,24.50 L 13.18,27.14 L 14.27,26.60 L 14.27,25.27 L 15.40,24.69 Z" fill="#131115" stroke="none" /><path d="M 10.96,20.37 L 9.88,20.92 L 9.88,22.24 L 9.95,22.24 L 10.96,21.74 Z" fill="#131115" stroke="none" /><path d="M 14.27,19.83 L 13.18,20.37 L 13.18,21.74 L 14.27,21.19 Z" fill="#131115" stroke="none" /><path d="M 17.61,19.52 L 16.49,20.06 L 16.49,21.42 L 17.61,20.88 Z" fill="#131115" stroke="none" /><path d="M 24.18,17.85 L 24.11,17.85 L 23.13,18.35 L 23.13,21.04 L 23.21,21.04 L 24.18,20.53 Z" fill="#131115" stroke="none" /><path d="M 18.66,16.25 L 17.61,16.80 L 17.61,18.16 L 18.66,17.65 L 18.70,17.69 L 18.70,18.97 L 18.74,18.97 L 19.79,18.43 L 19.79,17.07 L 18.74,17.57 L 18.70,17.54 L 18.70,16.25 Z" fill="#131115" stroke="none" /><path d="M 24.18,13.76 L 23.13,14.27 L 23.13,15.59 L 23.06,15.67 L 22.05,16.17 L 22.05,17.50 L 21.97,17.57 L 20.92,18.08 L 20.92,19.44 L 20.88,19.48 L 20.88,20.57 L 19.83,21.11 L 19.79,21.07 L 19.79,19.79 L 19.71,19.79 L 18.70,20.30 L 18.70,21.66 L 18.78,21.66 L 19.75,21.15 L 19.79,21.19 L 19.79,22.47 L 18.70,23.02 L 18.70,24.38 L 20.88,23.29 L 20.88,20.88 L 20.92,20.84 L 20.92,19.48 L 22.05,18.90 L 22.05,17.57 L 22.12,17.50 L 24.18,16.49 Z" fill="#131115" stroke="none" /><path d="M 8.75,13.41 L 8.67,13.41 L 7.66,13.92 L 7.66,15.24 L 8.75,14.70 Z" fill="#131115" stroke="none" /><path d="M 17.61,12.75 L 17.54,12.75 L 15.40,13.84 L 15.40,16.56 L 16.49,16.02 L 16.49,14.70 L 16.56,14.62 L 17.61,14.11 Z" fill="#131115" stroke="none" /><path d="M 10.96,12.29 L 9.88,12.83 L 9.88,15.48 L 8.75,16.06 L 8.75,17.42 L 10.96,16.33 L 10.96,14.97 L 11.00,14.93 L 11.00,13.57 L 10.96,13.53 Z" fill="#131115" stroke="none" /><path d="M 14.27,11.70 L 13.18,12.25 L 13.18,13.57 L 13.10,13.65 L 12.09,14.15 L 12.09,15.48 L 12.17,15.48 L 14.27,14.43 Z" fill="#131115" stroke="none" /><path d="M 13.18,9.53 L 12.09,10.07 L 12.09,11.43 L 13.18,10.89 Z" fill="#131115" stroke="none" /><path d="M 17.61,7.31 L 16.49,7.85 L 16.49,9.22 L 15.40,9.76 L 15.40,11.12 L 15.48,11.12 L 16.49,10.61 L 16.49,9.25 L 17.61,8.67 Z" fill="#131115" stroke="none" /><path d="M 23.13,6.22 L 23.06,6.22 L 22.05,6.73 L 22.05,8.01 L 21.97,8.09 L 20.96,8.59 L 20.88,8.55 L 20.88,8.40 L 20.84,8.40 L 19.83,8.90 L 19.79,8.87 L 19.79,7.62 L 19.87,7.54 L 20.88,7.04 L 20.88,5.68 L 19.83,6.18 L 19.79,6.22 L 19.79,7.54 L 19.71,7.62 L 18.70,8.13 L 18.70,9.45 L 18.62,9.53 L 17.61,10.03 L 17.61,11.39 L 18.70,10.85 L 18.70,9.53 L 18.78,9.45 L 19.75,8.98 L 19.79,9.02 L 19.79,10.30 L 20.88,9.76 L 20.92,9.80 L 20.92,11.08 L 19.79,11.63 L 19.79,12.99 L 19.87,12.99 L 20.88,12.48 L 20.88,11.35 L 22.05,10.77 L 22.05,9.45 L 22.12,9.37 L 23.13,8.87 Z" fill="#131115" stroke="none" /><path d="M 11.00,19.01 L 10.96,19.01 L 10.96,23.06 L 9.91,23.60 L 9.88,23.56 L 9.88,20.92 L 8.79,21.46 L 8.75,21.42 L 8.75,20.14 L 8.67,20.14 L 7.66,20.65 L 7.66,22.01 L 7.74,22.01 L 8.71,21.50 L 8.75,21.54 L 8.75,24.15 L 8.67,24.22 L 6.61,25.23 L 6.61,27.96 L 6.69,27.96 L 7.66,27.45 L 7.66,26.13 L 7.74,26.05 L 8.75,25.55 L 8.75,24.22 L 8.83,24.15 L 9.84,23.64 L 9.88,23.68 L 9.88,24.96 L 9.95,24.96 L 10.96,24.46 L 10.96,23.10 L 11.00,23.06 Z" fill="#18161c" stroke="none" /><path d="M 15.40,17.92 L 15.32,17.92 L 12.09,19.56 L 12.09,23.60 L 12.17,23.60 L 13.14,23.10 L 13.18,23.13 L 13.18,24.42 L 13.26,24.42 L 14.27,23.91 L 14.27,22.55 L 15.40,21.97 Z" fill="#18161c" stroke="none" /><path d="M 7.66,13.96 L 7.58,13.96 L 6.61,14.46 L 6.61,17.11 L 6.69,17.11 L 7.66,16.60 Z" fill="#18161c" stroke="none" /><path d="M 23.13,12.95 L 23.06,12.95 L 22.05,13.45 L 22.05,16.14 L 21.97,16.21 L 20.96,16.72 L 20.92,16.68 L 20.92,15.40 L 20.88,15.40 L 20.88,16.49 L 20.80,16.56 L 19.83,17.03 L 19.79,16.99 L 19.79,15.71 L 19.75,15.71 L 18.70,16.25 L 18.70,17.57 L 18.62,17.65 L 17.61,18.16 L 17.61,20.84 L 17.69,20.84 L 19.75,19.79 L 19.79,19.83 L 19.79,21.11 L 18.70,21.66 L 18.70,23.02 L 18.66,23.06 L 17.65,23.56 L 17.61,23.52 L 17.61,22.24 L 17.54,22.24 L 16.49,22.78 L 16.49,25.47 L 16.56,25.47 L 18.70,24.38 L 18.70,23.06 L 19.79,22.51 L 19.79,21.15 L 20.88,20.61 L 20.88,19.52 L 20.92,19.48 L 20.92,18.12 L 20.96,18.08 L 21.97,17.57 L 22.05,17.61 L 22.05,20.26 L 22.09,20.26 L 23.13,19.71 L 23.13,18.39 L 23.21,18.31 L 24.18,17.85 L 24.18,16.49 L 24.11,16.49 L 22.12,17.50 L 22.05,17.46 L 22.05,16.21 L 22.12,16.14 L 23.13,15.63 Z" fill="#18161c" stroke="none" /><path d="M 9.88,12.83 L 8.75,13.38 L 8.75,14.70 L 9.88,14.15 Z" fill="#18161c" stroke="none" /><path d="M 10.96,12.29 L 10.96,13.57 L 11.00,13.57 L 11.00,12.29 Z" fill="#18161c" stroke="none" /><path d="M 15.40,7.15 L 15.32,7.15 L 14.27,7.70 L 14.27,10.30 L 14.19,10.38 L 12.09,11.43 L 12.09,14.15 L 13.18,13.61 L 13.18,12.29 L 13.26,12.21 L 14.19,11.74 L 14.27,11.78 L 14.27,14.39 L 14.35,14.39 L 15.40,13.84 L 15.40,12.52 L 16.45,11.98 L 16.49,12.01 L 16.49,13.30 L 17.61,12.75 L 17.61,10.03 L 14.35,11.66 L 14.27,11.63 L 14.27,10.38 L 14.35,10.30 L 16.49,9.25 L 16.49,7.89 L 16.41,7.89 L 15.44,8.40 L 15.40,8.36 Z" fill="#18161c" stroke="none" /><path d="M 20.88,7.04 L 19.79,7.58 L 19.79,8.90 L 19.71,8.98 L 18.70,9.49 L 18.70,12.17 L 18.78,12.17 L 20.88,11.12 L 20.88,10.03 L 20.92,9.99 L 20.92,7.31 L 20.88,7.27 Z" fill="#18161c" stroke="none" /><path d="M 18.70,5.48 L 17.61,6.03 L 17.61,7.31 L 18.70,6.77 Z" fill="#18161c" stroke="none" /><path d="M 6.57,12.29 L 6.57,12.33 L 7.58,12.83 L 7.74,12.83 L 8.75,12.33 L 8.71,12.25 L 7.70,11.74 L 7.62,11.74 Z" fill="#27221c" stroke="none" /><path d="M 7.74,10.65 L 7.74,10.69 L 8.79,11.20 L 8.79,11.16 Z" fill="#27221c" stroke="none" /><path d="M 1.09,10.61 L 1.09,10.69 L 3.19,11.74 L 3.30,11.74 L 4.35,11.20 L 5.40,11.74 L 5.52,11.74 L 6.53,11.24 L 6.53,11.16 L 4.43,10.11 L 4.28,10.11 L 3.30,10.61 L 3.19,10.61 L 2.22,10.11 L 2.10,10.11 Z" fill="#27221c" stroke="none" /><path d="M 5.48,9.53 L 5.48,9.57 L 6.53,10.07 L 6.53,10.03 Z" fill="#27221c" stroke="none" /><path d="M 20.88,6.18 L 20.88,6.22 L 20.92,6.22 L 20.92,6.18 Z" fill="#27221c" stroke="none" /><path d="M 15.36,7.15 L 15.36,7.12 L 14.35,6.61 L 14.23,6.61 L 13.18,7.15 L 12.17,6.65 L 12.13,6.61 L 12.17,6.57 L 13.18,6.07 L 13.18,6.03 L 12.17,5.52 L 12.01,5.52 L 9.95,6.57 L 9.84,6.57 L 8.87,6.07 L 8.71,6.07 L 7.70,6.57 L 7.70,6.61 L 8.79,7.15 L 9.91,6.61 L 13.14,8.24 L 13.22,8.24 Z" fill="#27221c" stroke="none" /><path d="M 5.48,3.27 L 5.52,3.34 L 6.42,3.77 L 6.49,3.85 L 5.48,4.35 L 5.48,4.39 L 6.53,4.94 L 5.52,5.44 L 5.52,5.52 L 6.53,6.03 L 6.65,6.03 L 8.71,4.98 L 8.83,4.98 L 9.80,5.48 L 9.95,5.48 L 10.96,4.98 L 10.93,4.90 L 9.91,4.39 L 9.84,4.39 L 8.79,4.94 L 7.74,4.43 L 7.70,4.39 L 7.74,4.35 L 8.71,3.89 L 8.75,3.81 L 6.65,2.76 L 6.49,2.76 Z" fill="#27221c" stroke="none" /><path d="M 14.31,3.27 L 13.18,2.72 L 11.00,3.81 L 11.00,3.85 L 12.05,4.39 L 12.13,4.39 L 14.31,3.30 Z" fill="#27221c" stroke="none" /><path d="M 19.48,3.62 L 19.48,3.69 L 20.88,4.39 L 20.88,6.18 L 20.92,6.22 L 22.01,6.77 L 23.13,6.22 L 23.13,6.18 L 22.12,5.68 L 22.16,5.60 L 23.06,5.17 L 23.06,5.09 L 19.87,3.50 L 19.71,3.50 Z" fill="#23161f" stroke="none" /><path d="M 7.70,4.35 L 7.70,4.43 L 8.71,4.94 L 8.83,4.94 L 9.88,4.39 L 13.06,5.99 L 13.14,6.07 L 13.10,6.10 L 12.13,6.57 L 12.13,6.65 L 13.14,7.15 L 13.22,7.15 L 14.27,6.61 L 15.40,7.15 L 16.49,6.61 L 16.49,6.57 L 13.34,5.02 L 13.26,4.94 L 15.40,3.85 L 15.40,3.81 L 14.39,3.30 L 14.23,3.30 L 12.09,4.39 L 9.95,3.30 L 9.80,3.30 Z" fill="#23161f" stroke="none" /><path d="M 10.96,21.74 L 10.89,21.74 L 9.88,22.24 L 9.88,23.60 L 9.95,23.60 L 10.96,23.10 Z" fill="#1f1e21" stroke="none" /><path d="M 7.66,20.69 L 7.58,20.69 L 6.61,21.19 L 6.61,22.55 L 7.66,22.05 Z" fill="#1f1e21" stroke="none" /><path d="M 18.70,20.34 L 18.62,20.34 L 16.49,21.42 L 16.49,22.78 L 17.57,22.24 L 17.61,22.28 L 17.61,23.56 L 17.69,23.56 L 18.70,23.06 Z" fill="#1f1e21" stroke="none" /><path d="M 10.96,19.01 L 8.75,20.10 L 8.75,21.46 L 8.83,21.46 L 10.96,20.37 Z" fill="#1f1e21" stroke="none" /><path d="M 20.88,17.89 L 19.79,18.43 L 19.79,19.75 L 19.87,19.75 L 20.88,19.25 Z" fill="#1f1e21" stroke="none" /><path d="M 22.05,13.49 L 21.97,13.49 L 20.88,14.04 L 20.88,15.13 L 20.80,15.20 L 19.79,15.71 L 19.79,17.07 L 20.88,16.52 L 20.92,16.56 L 20.92,16.72 L 21.00,16.72 L 22.05,16.17 Z" fill="#1f1e21" stroke="none" /><path d="M 24.18,12.40 L 23.13,12.91 L 23.13,14.27 L 23.21,14.27 L 24.18,13.76 Z" fill="#1f1e21" stroke="none" /><path d="M 14.27,7.70 L 12.09,8.79 L 12.09,10.07 L 13.14,9.57 L 13.18,9.60 L 13.18,10.89 L 14.27,10.34 Z" fill="#1f1e21" stroke="none" /><path d="M 17.61,6.03 L 15.40,7.12 L 15.40,8.40 L 15.48,8.40 L 17.61,7.31 Z" fill="#1f1e21" stroke="none" /><path d="M 20.88,4.39 L 18.70,5.48 L 18.70,6.77 L 20.88,5.68 Z" fill="#1f1e21" stroke="none" /><path d="M 5.52,27.45 L 5.52,28.81 L 6.53,29.32 L 6.61,29.32 L 6.61,27.96 L 5.60,27.45 Z" fill="#1f1c23" stroke="none" /><path d="M 5.52,24.73 L 5.52,26.09 L 6.61,26.63 L 6.61,25.27 Z" fill="#1f1c23" stroke="none" /><path d="M 11.00,24.46 L 11.00,27.14 L 12.09,27.68 L 12.09,24.96 L 11.08,24.46 Z" fill="#1f1c23" stroke="none" /><path d="M 1.13,22.51 L 1.09,22.51 L 1.09,23.80 L 1.05,23.83 L 0.00,23.33 L 0.00,26.05 L 1.01,26.56 L 1.09,26.56 L 1.09,25.27 L 1.13,25.23 L 2.10,25.74 L 2.18,25.74 L 2.18,23.06 Z" fill="#1f1c23" stroke="none" /><path d="M 3.30,22.28 L 3.30,23.64 L 4.32,24.15 L 4.39,24.15 L 4.39,22.78 L 3.38,22.28 Z" fill="#1f1c23" stroke="none" /><path d="M 4.39,20.10 L 4.39,21.46 L 5.52,22.05 L 5.52,23.37 L 6.61,23.91 L 6.61,22.55 L 5.52,22.01 L 5.52,20.65 Z" fill="#1f1c23" stroke="none" /><path d="M 0.00,19.29 L 0.00,20.61 L 1.09,21.15 L 1.09,19.79 L 0.08,19.29 Z" fill="#1f1c23" stroke="none" /><path d="M 11.00,14.97 L 11.00,16.33 L 12.01,16.84 L 12.09,16.84 L 12.09,15.48 L 11.08,14.97 Z" fill="#1f1c23" stroke="none" /><path d="M 2.18,14.93 L 2.18,17.65 L 3.30,18.20 L 3.30,16.91 L 3.34,16.87 L 4.32,17.38 L 4.39,17.38 L 4.39,16.02 Z" fill="#1f1c23" stroke="none" /><path d="M 4.39,13.38 L 4.39,14.70 L 5.52,15.24 L 5.52,13.92 Z" fill="#1f1c23" stroke="none" /><path d="M 0.00,11.20 L 0.00,13.84 L 1.09,14.39 L 1.09,11.70 L 0.08,11.20 Z" fill="#1f1c23" stroke="none" /><path d="M 11.00,9.53 L 11.00,10.81 L 10.96,10.85 L 9.91,10.34 L 9.91,11.63 L 9.88,11.66 L 8.87,11.16 L 8.79,11.16 L 8.79,11.20 L 9.88,11.74 L 9.99,11.74 L 10.93,12.21 L 11.00,12.29 L 11.00,13.61 L 12.09,14.15 L 12.09,12.79 L 11.08,12.29 L 11.00,12.21 L 11.00,10.96 L 11.04,10.93 L 12.09,11.43 L 12.09,10.07 Z" fill="#1f1c23" stroke="none" /><path d="M 4.39,8.94 L 4.43,9.02 L 5.48,9.53 L 5.44,9.45 Z" fill="#1f1c23" stroke="none" /><path d="M 7.78,7.89 L 7.70,7.89 L 7.70,9.18 L 7.66,9.22 L 6.57,8.67 L 6.57,10.03 L 7.62,10.58 L 7.70,10.58 L 7.70,9.29 L 7.74,9.25 L 8.71,9.76 L 8.79,9.76 L 8.79,8.40 Z" fill="#1f1c23" stroke="none" /><path d="M 3.30,5.68 L 3.30,7.04 L 4.39,7.58 L 4.39,6.22 Z" fill="#1f1c23" stroke="none" /><path d="M 3.30,25.00 L 3.30,27.68 L 3.34,27.72 L 5.44,28.77 L 5.52,28.77 L 5.52,27.49 L 5.56,27.45 L 6.53,27.96 L 6.61,27.96 L 6.61,26.63 L 6.57,26.60 L 5.52,26.09 L 5.52,27.37 L 5.48,27.41 L 4.47,26.91 L 4.39,26.83 L 4.39,25.51 L 3.38,25.00 Z" fill="#26252e" stroke="none" /><path d="M 11.00,23.10 L 11.00,24.46 L 12.01,24.96 L 12.09,24.96 L 12.09,23.60 L 11.08,23.10 Z" fill="#26252e" stroke="none" /><path d="M 5.52,20.69 L 5.52,21.97 L 5.48,22.01 L 4.39,21.46 L 4.39,24.18 L 6.61,25.27 L 6.61,23.91 L 5.60,23.41 L 5.52,23.33 L 5.52,22.09 L 5.56,22.05 L 6.53,22.55 L 6.61,22.55 L 6.61,21.19 L 5.60,20.69 Z" fill="#26252e" stroke="none" /><path d="M 11.00,20.37 L 11.00,21.74 L 12.09,22.28 L 12.09,20.92 Z" fill="#26252e" stroke="none" /><path d="M 0.00,17.92 L 0.00,19.29 L 1.09,19.83 L 1.09,21.07 L 1.05,21.11 L 0.00,20.61 L 0.00,23.33 L 1.09,23.87 L 1.09,22.59 L 1.13,22.55 L 2.18,23.06 L 2.18,18.97 L 0.08,17.92 Z" fill="#26252e" stroke="none" /><path d="M 5.52,13.96 L 5.52,16.60 L 6.61,17.15 L 6.61,14.46 L 5.60,13.96 Z" fill="#26252e" stroke="none" /><path d="M 11.00,13.61 L 11.00,14.97 L 12.01,15.48 L 12.09,15.48 L 12.09,14.15 Z" fill="#26252e" stroke="none" /><path d="M 1.09,11.74 L 1.09,14.39 L 2.18,14.93 L 2.18,13.65 L 2.26,13.61 L 3.30,14.15 L 3.30,15.51 L 4.32,16.02 L 4.39,16.02 L 4.39,13.38 L 1.17,11.74 Z" fill="#26252e" stroke="none" /><path d="M 9.91,11.70 L 9.95,11.78 L 10.96,12.29 L 11.08,12.29 L 12.09,12.79 L 12.09,11.43 L 12.05,11.39 L 11.00,10.89 L 11.00,12.17 L 10.96,12.21 Z" fill="#26252e" stroke="none" /><path d="M 8.79,7.15 L 8.79,8.44 L 9.91,8.98 L 9.91,7.70 L 8.87,7.15 Z" fill="#26252e" stroke="none" /><path d="M 3.30,7.04 L 3.30,9.53 L 4.39,8.98 L 4.47,8.98 L 5.40,9.45 L 5.52,9.57 L 8.71,11.16 L 8.79,11.16 L 8.79,11.12 L 5.56,9.53 L 5.48,9.45 L 5.48,8.20 L 5.52,8.17 L 7.62,9.22 L 7.70,9.22 L 7.70,7.85 L 6.65,7.35 L 6.57,7.27 L 6.57,6.03 L 6.53,5.99 L 5.48,5.48 L 5.48,8.05 L 5.44,8.09 Z" fill="#26252e" stroke="none" /><path d="M 8.79,12.33 L 9.80,12.83 L 9.91,12.83 L 10.93,12.33 L 10.96,12.25 L 9.95,11.74 L 9.84,11.74 L 8.83,12.25 Z" fill="#302b35" stroke="none" /><path d="M 3.27,11.74 L 3.27,11.78 L 4.28,12.29 L 4.43,12.29 L 5.40,11.78 L 5.52,11.78 L 6.49,12.29 L 6.61,12.29 L 7.62,11.78 L 7.62,11.70 L 6.61,11.20 L 6.53,11.20 L 5.48,11.74 L 4.39,11.20 L 4.32,11.20 Z" fill="#302b35" stroke="none" /><path d="M 6.57,10.07 L 5.44,9.53 L 4.39,10.07 L 4.32,10.07 L 3.34,9.57 L 3.19,9.57 L 2.18,10.07 L 2.18,10.11 L 3.23,10.65 L 4.32,10.11 L 4.39,10.11 L 5.48,10.65 L 6.57,10.11 Z" fill="#302b35" stroke="none" /><path d="M 9.95,7.66 L 9.95,7.74 L 12.05,8.79 L 12.13,8.79 L 13.14,8.28 L 13.14,8.20 L 11.04,7.15 L 10.96,7.15 Z" fill="#302b35" stroke="none" /><path d="M 20.88,6.22 L 20.88,7.31 L 20.96,7.31 L 22.01,6.77 L 22.01,6.73 L 21.00,6.22 Z" fill="#302b35" stroke="none" /><path d="M 7.70,5.48 L 7.70,5.52 L 9.88,6.61 L 12.09,5.52 L 12.09,5.48 L 11.00,4.94 L 9.91,5.48 L 9.84,5.48 L 8.75,4.94 Z" fill="#302b35" stroke="none" /><path d="M 15.44,4.94 L 15.44,4.98 L 16.45,5.48 L 16.56,5.48 L 17.57,4.98 L 17.57,4.90 L 16.56,4.39 L 16.49,4.39 Z" fill="#302b35" stroke="none" /><path d="M 18.74,4.35 L 18.78,4.43 L 19.79,4.94 L 20.88,4.39 L 20.88,4.35 L 19.87,3.85 L 19.75,3.85 Z" fill="#302b35" stroke="none" /><path d="M 4.39,3.81 L 4.43,3.89 L 5.44,4.39 L 6.53,3.85 L 6.53,3.81 L 5.52,3.30 L 5.40,3.30 Z" fill="#302b35" stroke="none" /><path d="M 16.52,3.27 L 16.52,3.30 L 17.61,3.85 L 18.70,3.30 L 18.70,3.27 L 17.69,2.76 L 17.54,2.76 Z" fill="#302b35" stroke="none" /><path d="M 13.22,2.72 L 13.22,2.76 L 14.23,3.27 L 14.39,3.27 L 15.40,2.76 L 15.36,2.68 L 14.35,2.18 L 14.27,2.18 Z" fill="#302b35" stroke="none" /><path d="M 10.93,1.63 L 9.91,2.14 L 9.91,2.22 L 10.93,2.72 L 10.85,2.80 L 9.88,3.27 L 9.88,3.30 L 11.00,3.85 L 12.09,3.30 L 12.09,3.27 L 11.12,2.80 L 11.04,2.72 L 12.05,2.22 L 12.05,2.14 L 11.04,1.63 Z" fill="#302b35" stroke="none" /><path d="M 12.09,1.05 L 12.09,1.09 L 13.18,1.63 L 14.27,1.09 L 14.27,1.05 L 13.26,0.54 L 13.10,0.54 Z" fill="#302b35" stroke="none" /><path d="M 3.30,23.64 L 3.30,25.00 L 4.39,25.55 L 4.39,26.87 L 5.44,27.41 L 5.52,27.41 L 5.52,24.73 L 3.38,23.64 Z" fill="#323036" stroke="none" /><path d="M 11.00,21.74 L 11.00,23.10 L 12.01,23.60 L 12.09,23.60 L 12.09,22.28 Z" fill="#323036" stroke="none" /><path d="M 11.00,19.01 L 11.00,20.37 L 12.09,20.92 L 12.09,19.56 Z" fill="#323036" stroke="none" /><path d="M 9.91,7.70 L 9.91,8.98 L 12.09,10.07 L 12.09,8.79 Z" fill="#323036" stroke="none" /><path d="M 6.57,6.03 L 6.57,7.31 L 8.71,8.40 L 8.79,8.40 L 8.79,7.12 Z" fill="#323036" stroke="none" /><path d="M 3.30,4.39 L 3.30,5.68 L 4.32,6.18 L 4.39,6.26 L 4.39,7.58 L 5.48,8.13 L 5.48,5.48 Z" fill="#323036" stroke="none" /><path d="M 1.09,11.70 L 1.09,11.74 L 2.18,12.29 L 3.23,11.78 L 3.19,11.70 L 2.18,11.20 L 2.10,11.20 Z" fill="#3b3846" stroke="none" /><path d="M 4.35,12.29 L 4.35,12.33 L 5.37,12.83 L 5.33,12.91 L 4.43,13.34 L 4.43,13.41 L 5.44,13.92 L 5.56,13.92 L 7.62,12.87 L 7.70,12.87 L 8.67,13.38 L 8.83,13.38 L 9.84,12.87 L 9.80,12.79 L 8.90,12.36 L 8.83,12.29 L 9.84,11.78 L 9.88,11.70 L 8.87,11.20 L 8.79,11.20 L 7.78,10.69 L 7.70,10.61 L 6.57,10.07 L 5.48,10.61 L 5.48,10.65 L 8.71,12.29 L 8.63,12.36 L 7.70,12.83 L 7.62,12.83 L 5.48,11.74 Z" fill="#3b3846" stroke="none" /><path d="M 5.44,9.49 L 4.43,8.98 L 4.35,8.98 L 3.27,9.53 L 3.27,9.57 L 4.28,10.07 L 4.43,10.07 L 5.44,9.57 Z" fill="#3b3846" stroke="none" /><path d="M 8.83,7.12 L 8.87,7.19 L 9.88,7.70 L 9.95,7.70 L 10.96,7.19 L 10.96,7.12 L 9.95,6.61 L 9.84,6.61 Z" fill="#3b3846" stroke="none" /><path d="M 6.61,6.03 L 6.61,6.07 L 7.62,6.57 L 7.78,6.57 L 8.79,6.07 L 8.79,6.03 L 7.70,5.48 Z" fill="#3b3846" stroke="none" /><path d="M 3.30,4.35 L 3.34,4.43 L 5.44,5.48 L 5.52,5.48 L 6.53,4.98 L 6.53,4.90 L 4.43,3.85 L 4.32,3.85 Z" fill="#3b3846" stroke="none" /><path d="M 13.22,4.98 L 16.41,6.57 L 16.56,6.57 L 19.75,4.98 L 19.79,4.90 L 18.78,4.39 L 18.86,4.32 L 19.75,3.89 L 19.79,3.81 L 18.78,3.30 L 18.66,3.30 L 17.69,3.81 L 17.57,3.81 L 16.60,3.30 L 16.45,3.30 L 13.26,4.90 Z" fill="#3b3846" stroke="none" /><path d="M 14.27,2.14 L 12.21,1.13 L 12.17,1.09 L 12.21,1.01 L 13.18,0.54 L 13.18,0.51 L 12.17,0.00 L 12.01,0.00 L 11.00,0.51 L 11.00,0.54 L 11.98,1.01 L 12.01,1.05 L 11.98,1.13 L 11.04,1.59 L 10.93,1.59 L 9.95,1.09 L 9.84,1.09 L 8.83,1.59 L 8.83,1.67 L 9.84,2.18 L 8.83,2.68 L 8.79,2.76 L 9.80,3.27 L 9.95,3.27 L 10.93,2.76 L 11.04,2.76 L 12.01,3.27 L 12.17,3.27 L 14.27,2.22 Z" fill="#3b3846" stroke="none" /><path d="M 8.75,13.38 L 7.74,12.87 L 7.58,12.87 L 5.56,13.88 L 5.52,13.96 L 6.53,14.46 L 6.65,14.46 L 8.75,13.41 Z" fill="#4d4a53" stroke="none" /><path d="M 2.22,12.25 L 2.26,12.33 L 4.35,13.38 L 4.43,13.38 L 5.44,12.87 L 5.44,12.83 L 3.27,11.74 Z" fill="#4d4a53" stroke="none" /><path d="M 0.00,11.16 L 0.00,11.20 L 1.01,11.70 L 1.17,11.70 L 2.10,11.24 L 2.10,11.16 L 1.09,10.65 L 1.01,10.65 Z" fill="#4d4a53" stroke="none" /><path d="M 7.70,2.18 L 7.70,2.22 L 8.71,2.72 L 8.83,2.72 L 9.84,2.22 L 9.84,2.14 L 8.83,1.63 L 8.75,1.63 Z" fill="#4d4a53" stroke="none" /><path d="M 13.22,1.59 L 13.26,1.67 L 15.36,2.72 L 15.48,2.72 L 16.49,2.22 L 16.45,2.14 L 14.35,1.09 L 14.23,1.09 Z" fill="#4d4a53" stroke="none" /><path d="M 9.91,1.05 L 9.95,1.13 L 10.96,1.63 L 12.09,1.09 L 12.09,1.05 L 11.08,0.54 L 10.93,0.54 Z" fill="#4d4a53" stroke="none" /></svg>