<svg height="32" width="32" viewBox="0 0 32 32"><defs /><path d="M 16.19,30.06 L 15.27,30.50 L 15.27,31.59 L 16.19,31.14 Z" fill="#090606" stroke="none" /><path d="M 19.79,28.28 L 19.72,28.28 L 17.11,29.58 L 17.08,29.61 L 17.08,30.66 L 17.15,30.66 L 19.75,29.36 L 19.79,29.33 Z" fill="#090606" stroke="none" /><path d="M 26.15,25.10 L 26.08,25.10 L 22.52,26.88 L 22.52,27.96 L 26.12,26.18 L 26.15,26.15 Z" fill="#090606" stroke="none" /><path d="M 21.60,21.82 L 20.71,22.27 L 20.71,25.57 L 20.77,25.57 L 21.60,25.16 Z" fill="#090606" stroke="none" /><path d="M 17.97,20.33 L 17.91,20.33 L 16.19,21.18 L 16.19,22.30 L 16.25,22.30 L 17.97,21.44 Z" fill="#090606" stroke="none" /><path d="M 25.22,16.70 L 25.16,16.70 L 23.41,17.59 L 23.41,18.70 L 25.22,17.81 Z" fill="#090606" stroke="none" /><path d="M 28.82,13.77 L 27.93,14.22 L 27.93,15.30 L 27.86,15.36 L 27.04,15.78 L 27.04,16.89 L 28.82,16.00 Z" fill="#090606" stroke="none" /><path d="M 28.82,9.35 L 28.76,9.35 L 27.93,9.77 L 27.93,13.11 L 28.82,12.66 Z" fill="#090606" stroke="none" /><path d="M 8.11,27.80 L 8.11,28.88 L 11.67,30.66 L 11.74,30.66 L 11.74,29.61 L 11.71,29.58 Z" fill="#0e0a0a" stroke="none" /><path d="M 2.67,25.10 L 2.67,26.15 L 2.70,26.18 L 5.41,27.51 L 5.41,26.43 L 2.74,25.10 Z" fill="#0e0a0a" stroke="none" /><path d="M 0.89,24.21 L 0.89,25.26 L 1.78,25.70 L 1.78,24.62 L 0.95,24.21 Z" fill="#0e0a0a" stroke="none" /><path d="M 6.30,21.38 L 6.30,24.68 L 7.16,25.13 L 7.22,25.13 L 7.22,21.82 L 6.36,21.38 Z" fill="#0e0a0a" stroke="none" /><path d="M 13.55,20.55 L 13.55,21.60 L 13.52,21.63 L 12.69,21.22 L 12.63,21.22 L 12.63,22.33 L 14.35,23.19 L 14.41,23.19 L 14.41,20.96 Z" fill="#0e0a0a" stroke="none" /><path d="M 9.03,19.40 L 9.03,20.52 L 10.78,21.41 L 10.85,21.41 L 10.85,20.29 Z" fill="#0e0a0a" stroke="none" /><path d="M 13.55,16.13 L 13.55,19.44 L 14.35,19.85 L 14.41,19.85 L 14.41,16.54 L 13.61,16.13 Z" fill="#0e0a0a" stroke="none" /><path d="M 1.78,15.78 L 1.78,16.89 L 3.53,17.78 L 3.59,17.78 L 3.59,16.67 Z" fill="#0e0a0a" stroke="none" /><path d="M 15.27,29.42 L 14.41,29.84 L 14.41,30.95 L 15.27,30.54 Z" fill="#0f0d0b" stroke="none" /><path d="M 22.52,25.80 L 21.60,26.24 L 21.60,27.36 L 22.52,26.91 Z" fill="#0f0d0b" stroke="none" /><path d="M 20.71,25.61 L 20.64,25.61 L 19.79,26.05 L 19.79,27.17 L 20.71,26.72 Z" fill="#0f0d0b" stroke="none" /><path d="M 18.89,25.38 L 17.97,25.83 L 17.97,26.94 L 17.94,26.97 L 16.19,27.83 L 16.19,30.06 L 17.08,29.61 L 17.08,28.53 L 17.11,28.50 L 18.89,27.61 Z" fill="#0f0d0b" stroke="none" /><path d="M 16.19,23.41 L 15.27,23.86 L 15.27,24.97 L 14.41,25.42 L 14.41,26.53 L 15.27,26.12 L 15.27,25.00 L 16.19,24.52 Z" fill="#0f0d0b" stroke="none" /><path d="M 27.04,21.31 L 26.15,21.76 L 26.15,22.84 L 26.08,22.90 L 25.22,23.32 L 25.22,24.43 L 25.29,24.43 L 26.12,24.02 L 26.15,24.05 L 26.15,25.07 L 26.21,25.07 L 28.82,23.76 L 28.82,22.65 L 27.96,23.06 L 27.93,23.03 L 27.93,21.98 L 27.10,22.39 L 27.04,22.36 Z" fill="#0f0d0b" stroke="none" /><path d="M 22.52,19.15 L 21.60,19.59 L 21.60,21.82 L 22.52,21.38 Z" fill="#0f0d0b" stroke="none" /><path d="M 17.08,17.43 L 15.27,18.32 L 15.27,19.40 L 15.20,19.47 L 14.41,19.85 L 14.41,22.08 L 14.47,22.08 L 15.27,21.66 L 15.27,20.58 L 15.33,20.52 L 16.19,20.10 L 16.19,18.99 L 17.08,18.54 Z" fill="#0f0d0b" stroke="none" /><path d="M 21.60,15.17 L 20.71,15.62 L 20.71,16.70 L 20.68,16.73 L 17.97,18.07 L 17.97,19.18 L 17.08,19.63 L 17.08,20.74 L 17.15,20.74 L 18.86,19.88 L 18.89,19.85 L 18.89,18.77 L 18.96,18.70 L 19.72,18.32 L 19.79,18.35 L 19.79,19.40 L 20.71,18.96 L 20.71,16.73 L 21.60,16.29 Z" fill="#0f0d0b" stroke="none" /><path d="M 20.71,13.39 L 19.79,13.84 L 19.79,14.95 L 19.85,14.95 L 20.71,14.50 Z" fill="#0f0d0b" stroke="none" /><path d="M 27.93,13.11 L 27.04,13.55 L 27.04,14.63 L 26.97,14.70 L 26.21,15.08 L 26.15,15.05 L 26.15,14.00 L 25.22,14.44 L 25.22,15.55 L 24.37,16.00 L 24.33,15.97 L 24.33,14.92 L 24.27,14.92 L 23.44,15.33 L 23.41,15.30 L 23.41,14.28 L 23.35,14.28 L 22.52,14.70 L 22.52,16.89 L 22.46,16.95 L 21.60,17.37 L 21.60,18.48 L 21.66,18.48 L 22.52,18.04 L 22.52,16.95 L 22.58,16.89 L 23.35,16.51 L 23.41,16.54 L 23.41,17.59 L 25.22,16.70 L 25.22,15.59 L 26.08,15.14 L 26.15,15.17 L 26.15,16.22 L 27.01,15.81 L 27.04,15.78 L 27.04,14.70 L 27.10,14.63 L 27.93,14.22 Z" fill="#0f0d0b" stroke="none" /><path d="M 27.04,11.36 L 26.97,11.36 L 26.15,11.77 L 26.15,12.88 L 26.21,12.88 L 27.04,12.47 Z" fill="#0f0d0b" stroke="none" /><path d="M 24.33,10.50 L 24.27,10.50 L 22.52,11.39 L 22.52,12.47 L 21.60,12.95 L 21.60,14.06 L 23.41,13.17 L 23.41,12.06 L 24.33,11.58 Z" fill="#0f0d0b" stroke="none" /><path d="M 28.82,23.76 L 28.76,23.76 L 26.18,25.07 L 26.15,25.03 L 26.15,24.02 L 26.21,23.95 L 27.04,23.54 L 27.04,22.43 L 27.01,22.43 L 26.15,22.87 L 26.15,23.95 L 26.08,24.02 L 22.55,25.77 L 22.52,25.80 L 22.52,26.88 L 21.66,27.32 L 21.60,27.29 L 21.60,25.16 L 21.53,25.16 L 20.71,25.57 L 20.71,26.69 L 17.08,28.50 L 17.08,29.58 L 17.02,29.65 L 16.22,30.03 L 16.19,30.00 L 16.19,28.98 L 16.13,28.98 L 15.27,29.42 L 15.27,30.50 L 14.41,30.95 L 14.41,32.00 L 14.47,32.00 L 15.27,31.59 L 15.27,30.54 L 15.30,30.50 L 16.16,30.09 L 16.19,30.12 L 16.19,31.11 L 16.25,31.11 L 17.08,30.70 L 17.08,29.65 L 17.15,29.58 L 19.75,28.28 L 19.79,28.31 L 19.79,29.33 L 19.82,29.33 L 22.49,27.99 L 22.52,27.96 L 22.52,26.91 L 22.55,26.88 L 26.12,25.10 L 26.15,25.13 L 26.15,26.15 L 26.18,26.15 L 28.79,24.84 L 28.82,24.81 Z" fill="#0e090c" stroke="none" /><path d="M 17.08,19.66 L 17.02,19.66 L 15.27,20.55 L 15.27,21.63 L 15.20,21.69 L 14.41,22.08 L 14.41,23.19 L 14.47,23.19 L 16.19,22.33 L 16.19,21.22 L 17.08,20.77 Z" fill="#0e090c" stroke="none" /><path d="M 23.41,16.48 L 22.52,16.92 L 22.52,18.00 L 22.46,18.07 L 19.85,19.37 L 19.79,19.34 L 19.79,18.29 L 18.93,18.70 L 18.89,18.74 L 18.89,19.82 L 18.83,19.88 L 17.97,20.29 L 17.97,21.41 L 18.04,21.41 L 20.68,20.07 L 20.71,20.10 L 20.71,22.27 L 21.57,21.85 L 21.60,21.82 L 21.60,19.63 L 23.41,18.70 Z" fill="#0e090c" stroke="none" /><path d="M 28.82,12.66 L 27.93,13.11 L 27.93,14.19 L 27.86,14.25 L 27.04,14.66 L 27.04,15.75 L 26.97,15.81 L 26.18,16.19 L 26.15,16.16 L 26.15,15.11 L 25.22,15.55 L 25.22,17.78 L 25.29,17.78 L 27.04,16.89 L 27.04,15.81 L 27.10,15.75 L 27.93,15.33 L 27.93,14.25 L 27.99,14.19 L 28.82,13.77 Z" fill="#0e090c" stroke="none" /><path d="M 28.82,7.19 L 28.76,7.19 L 27.93,7.60 L 27.93,9.77 L 27.99,9.77 L 28.82,9.35 Z" fill="#0e090c" stroke="none" /><path d="M 9.92,12.12 L 9.92,12.15 L 12.60,13.49 L 12.69,13.49 L 13.49,13.07 L 13.49,13.04 L 10.82,11.71 L 10.75,11.71 Z" fill="#160f10" stroke="none" /><path d="M 9.89,10.34 L 8.97,9.89 L 7.25,10.75 L 7.25,10.82 L 8.97,11.67 L 9.10,11.67 L 9.86,11.29 L 9.86,11.23 L 9.03,10.82 L 9.10,10.75 L 9.89,10.37 Z" fill="#160f10" stroke="none" /><path d="M 13.49,8.52 L 12.66,8.11 L 12.53,8.11 L 10.82,8.97 L 10.82,9.00 L 11.67,9.45 L 11.74,9.45 L 13.46,8.59 Z" fill="#160f10" stroke="none" /><path d="M 20.74,4.90 L 19.91,4.49 L 19.79,4.49 L 18.07,5.34 L 18.07,5.41 L 18.89,5.82 L 18.99,5.82 L 20.71,4.96 Z" fill="#160f10" stroke="none" /><path d="M 9.89,4.90 L 9.92,4.96 L 12.53,6.27 L 12.66,6.27 L 13.49,5.85 L 13.46,5.79 L 10.85,4.49 L 10.72,4.49 Z" fill="#160f10" stroke="none" /><path d="M 7.16,4.45 L 6.33,4.04 L 6.27,4.04 L 2.70,5.82 L 2.70,5.85 L 3.50,6.27 L 3.59,6.27 L 7.16,4.49 Z" fill="#160f10" stroke="none" /><path d="M 12.56,1.72 L 11.80,1.34 L 11.67,1.34 L 9.07,2.64 L 9.03,2.70 L 9.89,3.12 L 12.56,1.78 Z" fill="#160f10" stroke="none" /><path d="M 12.66,0.89 L 13.52,1.30 L 14.41,0.86 L 14.41,0.83 L 13.58,0.41 L 13.52,0.41 L 12.69,0.83 Z" fill="#160f10" stroke="none" /><path d="M 11.74,26.31 L 11.74,27.36 L 11.71,27.39 L 10.91,26.97 L 10.85,26.97 L 10.85,28.09 L 11.74,28.53 L 11.74,29.61 L 11.77,29.65 L 14.41,30.95 L 14.41,29.84 L 13.61,29.46 L 13.55,29.39 L 13.55,28.31 L 12.63,27.83 L 12.63,26.72 L 11.80,26.31 Z" fill="#191612" stroke="none" /><path d="M 7.22,26.27 L 7.22,27.36 L 8.11,27.80 L 8.11,26.69 L 7.28,26.27 Z" fill="#191612" stroke="none" /><path d="M 5.41,24.24 L 5.41,25.35 L 6.30,25.80 L 6.30,24.68 Z" fill="#191612" stroke="none" /><path d="M 0.00,22.65 L 0.00,23.76 L 0.83,24.17 L 0.89,24.17 L 0.89,23.09 Z" fill="#191612" stroke="none" /><path d="M 4.49,22.65 L 3.66,22.23 L 3.59,22.23 L 3.59,23.28 L 3.56,23.32 L 1.78,22.43 L 1.78,24.65 L 2.61,25.07 L 2.67,25.07 L 2.67,24.05 L 2.74,24.02 L 4.42,24.87 L 4.49,24.87 Z" fill="#191612" stroke="none" /><path d="M 7.22,19.63 L 7.22,21.82 L 8.11,22.27 L 8.11,20.04 L 7.28,19.63 Z" fill="#191612" stroke="none" /><path d="M 0.95,17.56 L 0.89,17.56 L 0.89,18.61 L 0.86,18.64 L 0.06,18.23 L 0.00,18.23 L 0.00,19.34 L 0.83,19.75 L 0.89,19.75 L 0.89,18.70 L 0.92,18.67 L 1.72,19.09 L 1.78,19.09 L 1.78,17.97 Z" fill="#191612" stroke="none" /><path d="M 11.74,16.32 L 11.74,17.43 L 12.63,17.88 L 12.63,16.76 Z" fill="#191612" stroke="none" /><path d="M 8.11,15.62 L 8.11,17.78 L 8.08,17.81 L 7.28,17.40 L 7.22,17.40 L 7.22,18.51 L 8.05,18.93 L 8.11,18.93 L 8.11,17.88 L 8.14,17.84 L 8.97,18.26 L 9.03,18.32 L 9.03,19.40 L 9.07,19.44 L 10.78,20.29 L 10.85,20.29 L 10.85,19.24 L 10.88,19.21 L 11.74,19.66 L 11.74,20.77 L 12.56,21.18 L 12.63,21.18 L 12.63,20.14 L 12.66,20.10 L 13.55,20.55 L 13.55,19.44 L 13.52,19.40 L 12.69,18.99 L 12.63,18.99 L 12.63,20.04 L 12.60,20.07 L 11.74,19.63 L 11.74,18.51 L 10.91,18.10 L 10.85,18.10 L 10.85,19.15 L 10.82,19.18 L 9.99,18.77 L 9.92,18.70 L 9.92,17.62 L 9.10,17.21 L 9.03,17.15 L 9.03,16.06 Z" fill="#191612" stroke="none" /><path d="M 2.67,15.11 L 2.67,16.22 L 2.70,16.25 L 4.42,17.11 L 4.49,17.11 L 4.49,16.06 L 4.52,16.03 L 5.34,16.45 L 5.41,16.51 L 5.41,17.59 L 6.27,18.04 L 6.30,18.04 L 6.30,15.87 L 6.36,15.84 L 7.16,16.25 L 7.22,16.25 L 7.22,15.17 L 6.36,14.73 L 6.30,14.73 L 6.30,15.75 L 6.27,15.78 L 3.66,14.47 L 3.59,14.47 L 3.59,15.52 L 3.56,15.55 Z" fill="#191612" stroke="none" /><path d="M 8.11,12.31 L 8.11,13.33 L 8.08,13.36 L 7.22,12.95 L 7.22,14.06 L 8.97,14.95 L 9.03,14.95 L 9.03,13.90 L 9.07,13.87 L 9.86,14.28 L 9.92,14.28 L 9.92,13.20 L 8.17,12.31 Z" fill="#191612" stroke="none" /><path d="M 5.41,12.06 L 5.41,13.17 L 6.23,13.58 L 6.30,13.58 L 6.30,12.47 L 5.47,12.06 Z" fill="#191612" stroke="none" /><path d="M 0.95,12.02 L 0.89,12.02 L 0.89,13.04 L 0.86,13.07 L 0.00,12.66 L 0.00,14.89 L 0.86,15.33 L 0.89,15.33 L 0.89,14.28 L 0.92,14.25 L 1.78,14.66 L 1.78,13.61 L 1.81,13.58 L 2.67,14.00 L 2.67,12.88 Z" fill="#191612" stroke="none" /><path d="M 0.00,23.76 L 0.00,24.81 L 0.03,24.84 L 0.89,25.26 L 0.89,24.24 L 0.92,24.21 L 1.78,24.65 L 1.78,25.70 L 1.81,25.73 L 2.67,26.15 L 2.67,25.13 L 2.70,25.10 L 5.38,26.43 L 5.41,26.47 L 5.41,27.51 L 5.44,27.55 L 8.05,28.85 L 8.11,28.85 L 8.11,27.86 L 8.17,27.83 L 11.67,29.58 L 11.74,29.65 L 11.74,30.70 L 14.35,32.00 L 14.41,32.00 L 14.41,30.95 L 14.38,30.92 L 11.80,29.65 L 11.74,29.58 L 11.74,28.56 L 11.77,28.53 L 12.56,28.95 L 12.63,28.95 L 12.63,27.83 L 11.80,27.42 L 11.74,27.42 L 11.74,28.47 L 11.71,28.50 L 8.17,26.72 L 8.11,26.72 L 8.11,27.74 L 8.05,27.77 L 7.28,27.39 L 7.22,27.32 L 7.22,25.13 L 6.33,24.68 L 6.30,24.68 L 6.30,25.73 L 6.23,25.77 L 2.70,23.98 L 2.67,23.98 L 2.67,25.03 L 2.64,25.07 L 1.81,24.65 L 1.78,24.62 L 1.78,23.54 L 0.92,23.09 L 0.89,23.09 L 0.89,24.14 L 0.86,24.17 L 0.06,23.76 Z" fill="#160e14" stroke="none" /><path d="M 10.85,19.21 L 10.85,21.44 L 12.56,22.30 L 12.63,22.30 L 12.63,21.25 L 12.66,21.22 L 13.55,21.66 L 13.55,20.61 L 13.58,20.58 L 14.35,20.96 L 14.41,20.96 L 14.41,19.85 L 13.58,19.44 L 13.55,19.44 L 13.55,20.49 L 13.52,20.52 L 12.69,20.10 L 12.63,20.10 L 12.63,21.15 L 12.60,21.18 L 11.74,20.74 L 11.74,19.63 L 10.91,19.21 Z" fill="#160e14" stroke="none" /><path d="M 4.49,16.03 L 4.49,17.08 L 4.45,17.11 L 3.66,16.70 L 3.59,16.70 L 3.59,17.81 L 6.23,19.12 L 6.30,19.18 L 6.30,21.38 L 7.22,21.82 L 7.22,19.66 L 7.25,19.63 L 9.03,20.52 L 9.03,18.29 L 8.17,17.84 L 8.11,17.84 L 8.11,18.89 L 8.08,18.93 L 5.47,17.62 L 5.41,17.56 L 5.41,16.48 L 4.55,16.03 Z" fill="#160e14" stroke="none" /><path d="M 0.89,14.22 L 0.89,15.27 L 0.86,15.30 L 0.00,14.89 L 0.00,16.00 L 1.78,16.89 L 1.78,15.84 L 1.81,15.81 L 2.67,16.22 L 2.67,15.11 Z" fill="#160e14" stroke="none" /><path d="M 13.55,13.96 L 13.55,16.13 L 14.41,16.54 L 14.41,14.38 L 13.61,13.96 Z" fill="#160e14" stroke="none" /><path d="M 20.71,23.38 L 19.79,23.83 L 19.79,24.91 L 19.72,24.97 L 18.96,25.35 L 18.89,25.32 L 18.89,24.30 L 18.83,24.30 L 18.00,24.72 L 17.97,24.75 L 17.97,25.83 L 17.11,26.27 L 17.08,26.24 L 17.08,25.19 L 16.25,25.61 L 16.19,25.57 L 16.19,24.52 L 15.30,24.97 L 15.27,24.94 L 15.27,23.89 L 15.20,23.89 L 14.41,24.30 L 14.41,25.42 L 15.24,25.00 L 15.27,25.03 L 15.27,26.08 L 15.33,26.08 L 16.13,25.67 L 16.19,25.70 L 16.19,26.72 L 15.27,27.20 L 15.27,28.28 L 15.20,28.34 L 14.41,28.72 L 14.41,29.84 L 14.47,29.84 L 16.19,28.98 L 16.19,27.86 L 17.97,26.97 L 17.97,25.86 L 18.83,25.42 L 18.89,25.45 L 18.89,27.61 L 19.79,27.17 L 19.79,26.08 L 19.85,26.02 L 20.71,25.61 Z" fill="#131115" stroke="none" /><path d="M 17.97,22.52 L 17.08,22.97 L 17.08,24.08 L 17.97,23.63 Z" fill="#131115" stroke="none" /><path d="M 19.79,21.63 L 19.72,21.63 L 18.89,22.04 L 18.89,23.16 L 18.96,23.16 L 19.79,22.74 Z" fill="#131115" stroke="none" /><path d="M 22.52,21.38 L 22.46,21.38 L 21.60,21.82 L 21.60,22.93 L 22.52,22.49 Z" fill="#131115" stroke="none" /><path d="M 28.82,20.42 L 27.93,20.87 L 27.93,23.09 L 28.82,22.65 Z" fill="#131115" stroke="none" /><path d="M 23.38,18.70 L 22.52,19.15 L 22.52,20.23 L 22.58,20.23 L 23.38,19.82 L 23.41,19.85 L 23.41,20.90 L 23.48,20.90 L 24.33,20.45 L 24.33,19.34 L 23.44,19.79 L 23.41,19.75 L 23.41,18.70 Z" fill="#131115" stroke="none" /><path d="M 28.82,17.11 L 28.76,17.11 L 27.93,17.53 L 27.93,18.64 L 27.04,19.09 L 27.04,20.20 L 26.15,20.64 L 26.15,21.73 L 26.08,21.79 L 24.37,22.65 L 24.33,22.62 L 24.33,21.57 L 23.41,22.01 L 23.41,23.13 L 24.30,22.68 L 24.33,22.71 L 24.33,23.76 L 23.41,24.24 L 23.41,25.35 L 25.22,24.46 L 25.22,23.35 L 26.15,22.87 L 26.15,21.79 L 26.21,21.73 L 27.04,21.31 L 27.04,20.23 L 28.82,19.34 Z" fill="#131115" stroke="none" /><path d="M 22.52,15.81 L 20.71,16.70 L 20.71,18.93 L 20.77,18.93 L 21.60,18.51 L 21.60,17.40 L 22.52,16.92 Z" fill="#131115" stroke="none" /><path d="M 19.79,14.98 L 19.72,14.98 L 18.89,15.40 L 18.89,16.51 L 18.04,16.95 L 17.97,16.92 L 17.97,15.87 L 17.08,16.32 L 17.08,18.51 L 16.19,18.96 L 16.19,20.07 L 16.25,20.07 L 17.97,19.21 L 17.97,18.10 L 19.79,17.18 Z" fill="#131115" stroke="none" /><path d="M 25.22,14.47 L 25.16,14.47 L 24.33,14.89 L 24.33,16.00 L 24.40,16.00 L 25.22,15.59 Z" fill="#131115" stroke="none" /><path d="M 17.08,14.12 L 17.02,14.12 L 16.19,14.54 L 16.19,15.65 L 17.08,15.20 Z" fill="#131115" stroke="none" /><path d="M 15.20,13.96 L 14.41,14.38 L 14.41,17.65 L 15.24,17.24 L 15.27,17.27 L 15.27,18.32 L 15.33,18.32 L 16.19,17.88 L 16.19,16.76 L 15.30,17.21 L 15.27,17.18 L 15.27,13.96 Z" fill="#131115" stroke="none" /><path d="M 18.89,13.20 L 17.97,13.65 L 17.97,14.76 L 18.89,14.31 Z" fill="#131115" stroke="none" /><path d="M 22.52,11.39 L 21.60,11.83 L 21.60,12.91 L 21.53,12.98 L 20.71,13.39 L 20.71,14.50 L 21.60,14.06 L 21.60,12.98 L 21.66,12.91 L 22.52,12.50 Z" fill="#131115" stroke="none" /><path d="M 27.93,10.91 L 27.86,10.91 L 27.04,11.32 L 27.04,12.44 L 26.15,12.88 L 26.15,15.11 L 27.04,14.66 L 27.04,13.58 L 27.10,13.52 L 27.93,13.11 Z" fill="#131115" stroke="none" /><path d="M 27.93,7.63 L 27.86,7.63 L 27.04,8.05 L 27.04,9.10 L 26.97,9.16 L 24.33,10.47 L 24.33,11.55 L 24.27,11.61 L 23.41,12.02 L 23.41,13.14 L 22.52,13.58 L 22.52,14.70 L 22.58,14.70 L 23.41,14.28 L 23.41,13.17 L 24.27,12.72 L 24.33,12.76 L 24.33,13.81 L 25.22,13.36 L 25.22,12.25 L 24.37,12.66 L 24.33,12.63 L 24.33,11.61 L 24.40,11.55 L 27.04,10.24 L 27.04,9.16 L 27.10,9.10 L 27.93,8.68 Z" fill="#131115" stroke="none" /><path d="M 20.71,20.07 L 20.64,20.07 L 17.97,21.41 L 17.97,24.72 L 17.91,24.78 L 17.15,25.16 L 17.08,25.13 L 17.08,22.97 L 16.22,23.38 L 16.19,23.35 L 16.19,22.33 L 16.13,22.33 L 15.27,22.78 L 15.27,23.86 L 15.33,23.86 L 16.13,23.44 L 16.19,23.48 L 16.19,25.61 L 16.13,25.67 L 14.41,26.53 L 14.41,28.72 L 14.47,28.72 L 15.27,28.31 L 15.27,27.23 L 15.33,27.17 L 16.19,26.75 L 16.19,25.67 L 16.25,25.61 L 17.05,25.22 L 17.08,25.26 L 17.08,26.27 L 17.15,26.27 L 17.97,25.86 L 17.97,24.78 L 18.04,24.72 L 18.86,24.30 L 18.89,24.33 L 18.89,25.38 L 19.79,24.94 L 19.79,23.86 L 20.71,23.38 Z" fill="#18161c" stroke="none" /><path d="M 27.93,16.45 L 27.04,16.89 L 27.04,19.09 L 27.01,19.12 L 26.18,19.53 L 26.15,19.50 L 26.15,18.45 L 26.08,18.45 L 24.40,19.31 L 24.33,19.28 L 24.33,18.26 L 24.27,18.26 L 23.41,18.70 L 23.41,19.79 L 22.52,20.23 L 22.52,22.46 L 22.58,22.46 L 24.30,21.60 L 24.33,21.63 L 24.33,22.65 L 23.41,23.13 L 23.41,24.21 L 23.35,24.27 L 22.55,24.65 L 22.52,24.62 L 22.52,23.57 L 21.60,24.02 L 21.60,26.24 L 21.66,26.24 L 23.41,25.35 L 23.41,24.27 L 23.48,24.21 L 24.33,23.79 L 24.33,22.68 L 26.15,21.76 L 26.15,20.68 L 26.18,20.64 L 27.01,20.23 L 27.04,20.26 L 27.04,22.43 L 27.93,21.98 L 27.93,20.90 L 27.99,20.83 L 28.82,20.42 L 28.82,19.34 L 28.76,19.34 L 27.07,20.20 L 27.04,20.17 L 27.04,19.12 L 27.93,18.67 Z" fill="#18161c" stroke="none" /><path d="M 21.60,11.86 L 21.53,11.86 L 20.74,12.28 L 20.71,12.25 L 20.71,11.23 L 19.79,11.67 L 19.79,13.84 L 18.04,14.73 L 17.97,14.70 L 17.97,12.60 L 17.11,13.01 L 17.08,13.04 L 17.08,16.29 L 17.02,16.35 L 16.25,16.73 L 16.19,16.70 L 16.19,14.57 L 16.13,14.57 L 15.27,15.01 L 15.27,17.21 L 14.41,17.65 L 14.41,19.85 L 14.47,19.85 L 15.27,19.44 L 15.27,17.24 L 15.30,17.21 L 16.16,16.80 L 16.19,16.83 L 16.19,17.88 L 16.22,17.88 L 17.08,17.43 L 17.08,16.35 L 17.15,16.29 L 17.94,15.90 L 17.97,15.94 L 17.97,16.99 L 18.89,16.54 L 18.89,15.43 L 19.75,14.98 L 19.79,15.01 L 19.79,17.18 L 20.71,16.73 L 20.71,15.65 L 20.77,15.59 L 21.57,15.20 L 21.60,15.24 L 21.60,16.25 L 21.66,16.25 L 22.52,15.81 L 22.52,13.61 L 22.46,13.61 L 19.82,14.95 L 19.79,14.92 L 19.79,13.87 L 21.60,12.95 Z" fill="#18161c" stroke="none" /><path d="M 23.41,9.89 L 23.35,9.89 L 22.52,10.31 L 22.52,11.39 L 23.41,10.94 Z" fill="#18161c" stroke="none" /><path d="M 27.04,8.08 L 26.97,8.08 L 25.22,8.97 L 25.22,10.02 L 25.29,10.02 L 27.01,9.16 L 27.04,9.19 L 27.04,10.21 L 24.33,11.58 L 24.33,12.66 L 24.27,12.72 L 23.41,13.14 L 23.41,15.36 L 26.12,14.03 L 26.15,14.00 L 26.15,11.80 L 27.93,10.91 L 27.93,8.68 L 27.07,9.10 L 27.04,9.07 Z" fill="#18161c" stroke="none" /><path d="M 12.63,11.67 L 12.63,11.74 L 13.46,12.15 L 13.55,12.15 L 14.38,11.74 L 14.38,11.67 L 13.55,11.26 L 13.46,11.26 Z" fill="#27221c" stroke="none" /><path d="M 19.82,9.89 L 18.96,9.45 L 18.89,9.45 L 17.11,10.34 L 17.11,10.37 L 17.91,10.75 L 17.97,10.82 L 17.15,11.23 L 17.15,11.26 L 18.00,11.71 L 18.07,11.71 L 19.79,10.85 L 19.82,10.78 L 19.02,10.40 L 18.99,10.34 L 19.82,9.92 Z" fill="#27221c" stroke="none" /><path d="M 19.85,8.97 L 19.88,9.03 L 20.71,9.45 L 20.77,9.45 L 21.63,9.00 L 21.63,8.97 L 20.80,8.56 L 20.68,8.56 Z" fill="#27221c" stroke="none" /><path d="M 17.08,9.42 L 15.40,8.59 L 15.36,8.56 L 15.43,8.49 L 16.22,8.11 L 16.22,8.08 L 15.30,7.63 L 14.41,8.08 L 14.41,8.11 L 15.20,8.49 L 15.27,8.56 L 15.24,8.59 L 14.41,9.00 L 13.55,8.56 L 13.46,8.56 L 11.74,9.42 L 11.74,9.48 L 12.53,9.86 L 12.56,9.89 L 12.50,9.96 L 11.74,10.34 L 11.67,10.34 L 10.78,9.89 L 9.89,10.34 L 9.89,10.37 L 10.69,10.75 L 10.75,10.82 L 9.92,11.23 L 9.92,11.29 L 10.75,11.71 L 10.82,11.71 L 11.67,11.26 L 11.67,11.23 L 10.88,10.85 L 10.85,10.82 L 10.91,10.75 L 11.67,10.37 L 11.74,10.37 L 12.53,10.78 L 12.66,10.78 L 13.49,10.37 L 13.46,10.31 L 12.72,9.96 L 12.66,9.89 L 13.52,9.45 L 14.38,9.89 L 14.44,9.89 L 15.30,9.45 L 16.16,9.89 L 16.25,9.89 L 17.08,9.48 Z" fill="#27221c" stroke="none" /><path d="M 11.71,6.71 L 11.74,6.78 L 13.46,7.63 L 13.55,7.63 L 14.38,7.22 L 14.38,7.16 L 12.66,6.30 L 12.53,6.30 Z" fill="#27221c" stroke="none" /><path d="M 0.89,7.60 L 0.89,7.63 L 1.72,8.05 L 1.84,8.05 L 2.64,7.63 L 3.50,8.08 L 3.59,8.08 L 4.42,7.67 L 4.42,7.60 L 3.59,7.19 L 3.66,7.13 L 4.42,6.74 L 4.49,6.74 L 5.25,7.13 L 5.31,7.19 L 4.49,7.60 L 4.49,7.67 L 5.31,8.08 L 5.41,8.08 L 6.23,7.67 L 6.23,7.60 L 5.41,7.19 L 5.47,7.13 L 6.27,6.74 L 6.27,6.71 L 5.38,6.27 L 4.49,6.71 L 4.42,6.71 L 3.53,6.27 Z" fill="#27221c" stroke="none" /><path d="M 20.74,5.82 L 19.88,5.38 L 19.82,5.38 L 18.04,6.27 L 18.04,6.30 L 18.83,6.68 L 18.89,6.74 L 18.86,6.78 L 18.04,7.19 L 17.18,6.74 L 17.08,6.74 L 16.25,7.16 L 16.25,7.22 L 17.94,8.05 L 17.97,8.08 L 17.91,8.14 L 17.11,8.52 L 17.11,8.56 L 18.04,9.00 L 18.93,8.56 L 18.93,8.52 L 18.13,8.14 L 18.07,8.08 L 18.10,8.05 L 20.74,6.74 L 20.74,6.71 L 19.91,6.30 L 19.94,6.23 L 20.74,5.85 Z" fill="#27221c" stroke="none" /><path d="M 22.49,4.04 L 21.66,4.45 L 21.66,4.49 L 22.46,4.87 L 22.52,4.93 L 21.69,5.34 L 21.69,5.41 L 22.52,5.82 L 21.69,6.23 L 21.66,6.30 L 22.49,6.71 L 22.62,6.71 L 24.33,5.85 L 24.33,5.79 L 23.51,5.38 L 23.57,5.31 L 24.30,4.96 L 24.30,4.93 L 22.55,4.04 Z" fill="#27221c" stroke="none" /><path d="M 7.16,4.45 L 7.16,4.49 L 8.05,4.93 L 8.97,4.49 L 8.97,4.45 L 8.08,4.01 Z" fill="#27221c" stroke="none" /><path d="M 9.89,4.01 L 9.89,4.04 L 10.72,4.45 L 10.85,4.45 L 11.67,4.04 L 11.64,3.98 L 10.82,3.56 L 10.75,3.56 Z" fill="#27221c" stroke="none" /><path d="M 18.86,2.23 L 18.04,2.64 L 18.04,2.67 L 18.83,3.05 L 18.89,3.12 L 18.07,3.53 L 18.07,3.59 L 18.89,4.01 L 18.99,4.01 L 19.82,3.59 L 19.82,3.53 L 18.99,3.12 L 19.05,3.05 L 19.79,2.70 L 19.79,2.67 L 18.93,2.23 Z" fill="#27221c" stroke="none" /><path d="M 13.46,1.30 L 12.63,1.72 L 12.63,1.78 L 13.46,2.19 L 13.39,2.26 L 11.71,3.09 L 11.71,3.12 L 13.46,4.01 L 13.55,4.01 L 14.38,3.59 L 14.38,3.53 L 13.55,3.12 L 13.61,3.05 L 15.30,2.23 L 15.30,2.19 L 13.55,1.30 Z" fill="#27221c" stroke="none" /><path d="M 14.41,0.83 L 14.41,0.86 L 15.30,1.30 L 16.16,0.89 L 16.13,0.83 L 15.30,0.41 L 15.24,0.41 Z" fill="#27221c" stroke="none" /><path d="M 12.66,13.49 L 12.66,13.52 L 14.38,14.38 L 14.44,14.38 L 15.27,13.96 L 15.27,13.93 L 13.55,13.07 L 13.46,13.07 Z" fill="#23161f" stroke="none" /><path d="M 12.60,9.89 L 10.85,9.00 L 10.75,9.00 L 9.03,9.86 L 9.00,9.92 L 9.80,10.31 L 9.83,10.37 L 9.00,10.78 L 9.00,10.82 L 9.86,11.26 L 9.03,11.67 L 9.03,11.71 L 9.86,12.12 L 9.99,12.12 L 10.75,11.74 L 10.75,11.67 L 9.92,11.26 L 10.78,10.82 L 10.78,10.78 L 9.99,10.40 L 9.96,10.37 L 9.99,10.31 L 10.75,9.92 L 10.85,9.92 L 11.64,10.34 L 11.77,10.34 L 12.60,9.92 Z" fill="#23161f" stroke="none" /><path d="M 18.93,5.82 L 18.07,5.38 L 18.00,5.38 L 15.36,6.71 L 15.27,6.71 L 13.49,5.82 L 12.60,6.27 L 12.60,6.30 L 14.38,7.19 L 12.60,8.08 L 12.60,8.11 L 14.38,9.00 L 14.44,9.00 L 15.30,8.56 L 15.30,8.52 L 14.50,8.14 L 14.47,8.11 L 14.50,8.05 L 17.11,6.74 L 18.00,7.19 L 18.07,7.19 L 18.89,6.78 L 18.93,6.71 L 18.13,6.33 L 18.10,6.27 L 18.93,5.85 Z" fill="#23161f" stroke="none" /><path d="M 22.49,4.01 L 21.66,3.59 L 21.57,3.59 L 19.85,4.45 L 19.85,4.49 L 20.64,4.87 L 20.71,4.93 L 19.88,5.34 L 19.88,5.41 L 20.71,5.82 L 20.80,5.82 L 22.52,4.96 L 22.55,4.90 L 21.73,4.49 L 21.76,4.42 L 22.49,4.07 Z" fill="#23161f" stroke="none" /><path d="M 15.24,0.38 L 14.47,0.00 L 14.35,0.00 L 13.58,0.38 L 13.58,0.45 L 14.31,0.80 L 14.35,0.83 L 14.31,0.89 L 13.55,1.27 L 13.46,1.27 L 12.63,0.86 L 11.74,1.30 L 11.74,1.34 L 12.53,1.72 L 12.56,1.75 L 12.53,1.78 L 9.92,3.09 L 9.83,3.09 L 9.00,2.67 L 6.33,4.01 L 6.33,4.07 L 7.06,4.42 L 7.09,4.45 L 7.06,4.52 L 3.56,6.27 L 2.74,5.85 L 2.64,5.85 L 0.03,7.16 L 0.03,7.19 L 0.83,7.60 L 0.92,7.60 L 3.50,6.30 L 3.59,6.30 L 4.36,6.68 L 4.39,6.74 L 3.56,7.16 L 3.56,7.19 L 4.42,7.63 L 4.49,7.63 L 5.34,7.19 L 5.34,7.16 L 4.55,6.78 L 4.52,6.74 L 4.55,6.68 L 8.05,4.93 L 8.05,4.90 L 7.25,4.52 L 7.22,4.49 L 7.25,4.42 L 8.02,4.04 L 8.11,4.04 L 9.86,4.93 L 10.78,4.49 L 10.78,4.45 L 9.99,4.07 L 9.92,4.01 L 9.96,3.98 L 13.49,2.23 L 13.46,2.16 L 12.63,1.75 L 13.49,1.30 L 14.38,1.75 L 14.44,1.75 L 15.27,1.34 L 15.30,1.27 L 14.47,0.86 L 14.50,0.80 L 15.24,0.45 Z" fill="#23161f" stroke="none" /><path d="M 17.97,23.63 L 17.08,24.08 L 17.08,25.19 L 17.97,24.75 Z" fill="#1f1e21" stroke="none" /><path d="M 15.27,22.78 L 14.41,23.19 L 14.41,24.30 L 15.27,23.89 Z" fill="#1f1e21" stroke="none" /><path d="M 23.41,22.04 L 23.35,22.04 L 21.60,22.93 L 21.60,24.02 L 21.66,24.02 L 22.49,23.60 L 22.52,23.63 L 22.52,24.68 L 23.41,24.24 Z" fill="#1f1e21" stroke="none" /><path d="M 17.97,21.44 L 17.91,21.44 L 16.19,22.30 L 16.19,23.41 L 17.97,22.52 Z" fill="#1f1e21" stroke="none" /><path d="M 25.22,20.01 L 24.33,20.45 L 24.33,21.57 L 25.22,21.12 Z" fill="#1f1e21" stroke="none" /><path d="M 27.04,16.89 L 24.33,18.23 L 24.33,19.34 L 26.12,18.45 L 26.15,18.48 L 26.15,19.53 L 26.21,19.53 L 27.04,19.12 Z" fill="#1f1e21" stroke="none" /><path d="M 28.82,16.00 L 27.93,16.45 L 27.93,17.53 L 27.99,17.53 L 28.82,17.11 Z" fill="#1f1e21" stroke="none" /><path d="M 17.08,15.20 L 16.19,15.65 L 16.19,16.76 L 17.08,16.32 Z" fill="#1f1e21" stroke="none" /><path d="M 17.08,13.04 L 15.27,13.93 L 15.27,15.01 L 17.08,14.12 Z" fill="#1f1e21" stroke="none" /><path d="M 19.79,11.71 L 19.72,11.71 L 17.97,12.60 L 17.97,13.65 L 18.04,13.65 L 18.86,13.23 L 18.89,13.26 L 18.89,14.28 L 18.96,14.28 L 19.79,13.87 Z" fill="#1f1e21" stroke="none" /><path d="M 22.52,10.34 L 22.46,10.34 L 20.71,11.23 L 20.71,12.28 L 20.77,12.28 L 22.52,11.39 Z" fill="#1f1e21" stroke="none" /><path d="M 25.22,8.97 L 23.41,9.86 L 23.41,10.94 L 25.22,10.05 Z" fill="#1f1e21" stroke="none" /><path d="M 13.55,27.20 L 13.55,29.42 L 14.35,29.84 L 14.41,29.84 L 14.41,27.61 Z" fill="#1f1c23" stroke="none" /><path d="M 9.03,23.86 L 9.03,24.94 L 9.86,25.35 L 9.92,25.42 L 9.92,26.43 L 9.89,26.47 L 9.03,26.05 L 9.03,27.17 L 10.78,28.06 L 10.85,28.06 L 10.85,27.01 L 10.88,26.97 L 11.67,27.39 L 11.74,27.39 L 11.74,26.34 L 11.77,26.31 L 12.56,26.72 L 12.63,26.72 L 12.63,25.70 L 12.66,25.67 L 14.41,26.53 L 14.41,24.30 L 13.61,23.89 L 13.55,23.89 L 13.55,24.94 L 13.52,24.97 L 12.63,24.52 L 12.63,25.57 L 12.60,25.61 L 11.74,25.19 L 11.74,26.24 L 11.71,26.27 L 9.99,25.42 L 9.92,25.35 L 9.92,24.27 L 9.10,23.86 Z" fill="#1f1c23" stroke="none" /><path d="M 7.22,21.82 L 7.22,22.93 L 8.11,23.38 L 8.11,22.27 Z" fill="#1f1c23" stroke="none" /><path d="M 8.11,20.07 L 8.11,21.15 L 9.03,21.63 L 9.03,22.74 L 9.86,23.16 L 9.92,23.16 L 9.92,22.04 L 9.03,21.60 L 9.03,20.52 L 8.17,20.07 Z" fill="#1f1c23" stroke="none" /><path d="M 4.49,19.34 L 4.49,20.45 L 5.34,20.90 L 5.41,20.90 L 5.41,19.79 Z" fill="#1f1c23" stroke="none" /><path d="M 2.67,18.45 L 2.67,19.56 L 3.59,20.01 L 3.59,18.89 L 2.74,18.45 Z" fill="#1f1c23" stroke="none" /><path d="M 9.92,17.62 L 9.92,18.74 L 10.78,19.18 L 10.85,19.18 L 10.85,18.07 Z" fill="#1f1c23" stroke="none" /><path d="M 0.00,17.11 L 0.00,18.23 L 0.89,18.67 L 0.89,19.79 L 1.78,20.23 L 1.78,21.25 L 1.75,21.28 L 0.89,20.87 L 0.89,21.92 L 0.86,21.95 L 0.00,21.53 L 0.00,22.65 L 1.78,23.54 L 1.78,22.49 L 1.81,22.46 L 3.53,23.32 L 3.59,23.32 L 3.59,22.27 L 3.63,22.23 L 4.49,22.68 L 4.49,24.91 L 5.41,25.35 L 5.41,24.30 L 5.44,24.27 L 6.30,24.68 L 6.30,22.46 L 5.47,22.04 L 5.41,22.04 L 5.41,23.06 L 5.34,23.09 L 4.49,22.65 L 4.49,21.57 L 3.63,21.12 L 3.59,21.12 L 3.59,22.17 L 3.56,22.20 L 2.74,21.79 L 2.67,21.73 L 2.67,20.64 L 1.78,20.20 L 1.78,19.09 L 0.89,18.64 L 0.89,17.53 L 0.06,17.11 Z" fill="#1f1c23" stroke="none" /><path d="M 12.66,16.76 L 12.63,16.76 L 12.63,17.81 L 12.60,17.84 L 11.74,17.43 L 11.74,19.66 L 12.56,20.07 L 12.63,20.07 L 12.63,19.02 L 12.66,18.99 L 13.55,19.44 L 13.55,17.21 Z" fill="#1f1c23" stroke="none" /><path d="M 6.30,15.81 L 6.30,18.04 L 7.16,18.48 L 7.22,18.48 L 7.22,17.43 L 7.25,17.40 L 8.05,17.81 L 8.11,17.81 L 8.11,16.70 Z" fill="#1f1c23" stroke="none" /><path d="M 8.11,15.62 L 8.97,16.06 L 9.03,16.06 L 9.03,15.01 L 9.07,14.98 L 9.92,15.43 L 9.92,16.54 L 10.85,16.99 L 10.85,15.87 L 9.92,15.40 L 9.92,14.35 L 9.96,14.31 L 12.63,15.65 L 12.63,14.60 L 12.66,14.57 L 13.55,15.01 L 13.55,13.93 L 12.63,13.49 L 12.63,14.50 L 12.60,14.54 L 9.92,13.20 L 9.92,14.25 L 9.89,14.28 L 9.10,13.87 L 9.03,13.87 L 9.03,14.92 L 9.00,14.95 L 8.11,14.50 Z" fill="#1f1c23" stroke="none" /><path d="M 7.28,11.86 L 7.22,11.86 L 7.22,12.88 L 7.19,12.91 L 6.36,12.50 L 6.30,12.50 L 6.30,13.61 L 7.19,14.06 L 7.22,14.06 L 7.22,13.01 L 7.25,12.98 L 8.11,13.39 L 8.11,12.28 Z" fill="#1f1c23" stroke="none" /><path d="M 2.67,11.80 L 2.67,13.93 L 2.61,13.96 L 1.78,13.55 L 1.78,14.66 L 3.53,15.55 L 3.59,15.55 L 3.59,14.50 L 3.63,14.47 L 5.41,15.36 L 5.41,13.14 L 4.49,12.69 L 4.49,13.74 L 4.42,13.77 L 3.66,13.39 L 3.59,13.33 L 3.59,12.25 L 2.74,11.80 Z" fill="#1f1c23" stroke="none" /><path d="M 3.59,10.05 L 3.59,11.13 L 4.49,11.58 L 4.49,10.47 L 3.66,10.05 Z" fill="#1f1c23" stroke="none" /><path d="M 1.78,9.13 L 1.78,10.24 L 2.61,10.66 L 2.67,10.66 L 2.67,9.57 Z" fill="#1f1c23" stroke="none" /><path d="M 0.00,7.19 L 0.00,10.47 L 0.89,10.91 L 0.89,12.02 L 1.72,12.44 L 1.78,12.44 L 1.78,11.32 L 0.89,10.88 L 0.89,7.60 L 0.06,7.19 Z" fill="#1f1c23" stroke="none" /><path d="M 9.03,20.52 L 9.03,21.57 L 9.00,21.60 L 8.11,21.15 L 8.11,23.38 L 9.92,24.30 L 9.92,25.32 L 9.86,25.35 L 9.03,24.94 L 9.03,25.99 L 8.97,26.02 L 8.11,25.57 L 8.11,24.46 L 7.28,24.05 L 7.22,24.05 L 7.22,26.27 L 9.03,27.17 L 9.03,26.12 L 9.10,26.08 L 9.92,26.50 L 9.92,25.45 L 9.96,25.42 L 11.67,26.27 L 11.74,26.27 L 11.74,25.26 L 11.80,25.22 L 12.56,25.61 L 12.63,25.67 L 12.63,27.86 L 13.55,28.31 L 13.55,27.26 L 13.58,27.23 L 14.35,27.61 L 14.41,27.61 L 14.41,26.53 L 12.69,25.67 L 12.63,25.61 L 12.63,24.59 L 12.66,24.56 L 13.49,24.97 L 13.55,24.97 L 13.55,22.78 L 12.69,22.33 L 12.63,22.33 L 12.63,24.46 L 12.56,24.49 L 11.80,24.11 L 11.74,24.05 L 11.74,22.97 L 9.96,22.08 L 9.92,22.04 L 9.92,20.96 Z" fill="#26252e" stroke="none" /><path d="M 0.89,16.45 L 0.89,17.56 L 1.78,18.00 L 1.78,20.17 L 1.75,20.20 L 0.06,19.34 L 0.00,19.34 L 0.00,21.53 L 0.89,21.98 L 0.89,20.93 L 0.95,20.90 L 1.78,21.31 L 1.78,20.26 L 1.81,20.23 L 2.67,20.68 L 2.67,21.76 L 2.70,21.79 L 3.53,22.20 L 3.59,22.20 L 3.59,21.18 L 3.66,21.15 L 4.42,21.53 L 4.49,21.60 L 4.49,22.68 L 5.38,23.13 L 5.41,23.13 L 5.41,22.08 L 5.44,22.04 L 6.23,22.46 L 6.30,22.46 L 6.30,19.15 L 3.66,17.81 L 3.59,17.81 L 3.59,21.06 L 3.53,21.09 L 2.67,20.64 L 2.67,18.42 L 1.78,17.97 L 1.78,16.89 Z" fill="#26252e" stroke="none" /><path d="M 10.85,12.60 L 10.85,13.68 L 12.63,14.57 L 12.63,15.59 L 12.56,15.62 L 9.99,14.31 L 9.92,14.31 L 9.92,15.36 L 9.89,15.40 L 9.10,14.98 L 9.03,14.98 L 9.03,17.18 L 11.67,18.51 L 11.74,18.51 L 11.74,16.38 L 11.77,16.35 L 13.49,17.21 L 13.55,17.21 L 13.55,15.01 L 12.63,14.54 L 12.63,13.49 L 12.60,13.46 Z" fill="#26252e" stroke="none" /><path d="M 8.11,11.23 L 8.11,12.31 L 9.03,12.76 L 9.03,11.67 Z" fill="#26252e" stroke="none" /><path d="M 0.89,8.68 L 0.89,10.85 L 0.86,10.88 L 0.06,10.47 L 0.00,10.47 L 0.00,12.66 L 0.89,13.11 L 0.89,10.94 L 0.92,10.91 L 1.78,11.36 L 1.78,12.47 L 2.61,12.88 L 2.67,12.88 L 2.67,11.83 L 2.70,11.80 L 3.53,12.21 L 3.59,12.28 L 3.59,13.36 L 3.63,13.39 L 4.49,13.81 L 4.49,12.76 L 4.52,12.72 L 5.38,13.14 L 5.41,13.17 L 5.41,15.36 L 6.30,15.81 L 6.30,14.76 L 6.33,14.73 L 7.16,15.14 L 7.22,15.20 L 7.22,16.29 L 8.05,16.70 L 8.11,16.70 L 8.11,14.50 L 5.41,13.14 L 5.41,12.09 L 5.44,12.06 L 7.22,12.95 L 7.22,11.83 L 6.36,11.42 L 6.30,11.36 L 6.30,10.31 L 5.47,9.89 L 5.41,9.89 L 5.41,11.99 L 5.38,12.02 L 3.66,11.17 L 3.59,11.10 L 3.59,8.97 L 2.74,8.52 L 2.67,8.52 L 2.67,11.74 L 2.64,11.77 L 1.78,11.32 L 1.78,9.13 Z" fill="#26252e" stroke="none" /><path d="M 10.82,10.78 L 10.85,10.85 L 11.58,11.20 L 11.64,11.26 L 10.82,11.67 L 10.82,11.74 L 12.53,12.60 L 12.66,12.60 L 13.49,12.18 L 13.46,12.12 L 12.63,11.71 L 13.46,11.29 L 13.49,11.23 L 11.77,10.37 L 11.64,10.37 Z" fill="#302b35" stroke="none" /><path d="M 17.97,9.86 L 17.15,9.45 L 17.08,9.45 L 16.22,9.89 L 16.22,9.92 L 17.02,10.31 L 17.05,10.34 L 17.02,10.40 L 16.25,10.78 L 16.19,10.78 L 15.30,10.34 L 14.41,10.78 L 14.41,10.82 L 15.30,11.26 L 16.19,10.82 L 16.25,10.82 L 17.02,11.20 L 17.08,11.26 L 14.41,12.60 L 14.41,12.63 L 15.20,13.01 L 15.27,13.07 L 14.44,13.49 L 14.44,13.55 L 15.20,13.93 L 15.33,13.93 L 16.16,13.52 L 16.13,13.46 L 15.40,13.11 L 15.36,13.07 L 15.43,13.01 L 18.00,11.74 L 18.00,11.67 L 17.18,11.26 L 17.24,11.20 L 18.00,10.82 L 18.00,10.78 L 17.18,10.37 L 17.21,10.31 L 18.00,9.92 Z" fill="#302b35" stroke="none" /><path d="M 12.63,9.89 L 12.63,9.92 L 13.46,10.34 L 13.55,10.34 L 14.38,9.92 L 14.38,9.86 L 13.55,9.45 L 13.49,9.45 Z" fill="#302b35" stroke="none" /><path d="M 19.79,9.00 L 18.96,9.42 L 18.96,9.48 L 19.79,9.89 L 19.72,9.96 L 18.93,10.34 L 18.93,10.37 L 19.85,10.82 L 20.74,10.37 L 20.74,10.34 L 19.94,9.96 L 19.88,9.89 L 20.71,9.48 L 20.71,9.42 L 19.88,9.00 Z" fill="#302b35" stroke="none" /><path d="M 22.55,8.52 L 22.55,8.56 L 23.44,9.00 L 24.37,8.56 L 24.37,8.52 L 23.48,8.08 Z" fill="#302b35" stroke="none" /><path d="M 1.78,8.05 L 1.78,8.08 L 3.56,8.97 L 3.63,8.97 L 4.45,8.56 L 4.45,8.52 L 2.67,7.63 L 2.61,7.63 Z" fill="#302b35" stroke="none" /><path d="M 24.40,7.60 L 24.40,7.67 L 25.22,8.08 L 25.32,8.08 L 26.15,7.67 L 26.15,7.60 L 25.32,7.19 L 25.22,7.19 Z" fill="#302b35" stroke="none" /><path d="M 15.33,7.63 L 15.33,7.67 L 16.16,8.08 L 16.13,8.14 L 15.33,8.52 L 15.33,8.56 L 16.19,9.00 L 18.00,8.11 L 17.97,8.05 L 16.25,7.19 L 16.19,7.19 Z" fill="#302b35" stroke="none" /><path d="M 9.92,7.60 L 9.92,7.67 L 10.75,8.08 L 10.85,8.08 L 11.64,7.67 L 11.74,7.67 L 12.53,8.08 L 12.66,8.08 L 13.49,7.67 L 13.46,7.60 L 12.63,7.19 L 12.56,7.19 L 11.71,7.63 L 10.82,7.19 L 10.75,7.19 Z" fill="#302b35" stroke="none" /><path d="M 23.48,6.27 L 23.48,6.30 L 24.30,6.71 L 24.43,6.71 L 25.22,6.30 L 25.32,6.30 L 27.90,7.60 L 27.99,7.60 L 28.79,7.19 L 28.79,7.16 L 26.18,5.85 L 26.08,5.85 L 25.26,6.27 L 24.40,5.82 L 24.33,5.82 Z" fill="#302b35" stroke="none" /><path d="M 10.78,6.27 L 10.78,6.30 L 11.67,6.74 L 12.60,6.30 L 12.60,6.27 L 11.71,5.82 Z" fill="#302b35" stroke="none" /><path d="M 23.44,7.16 L 21.76,6.33 L 21.69,6.27 L 21.73,6.23 L 22.52,5.85 L 22.52,5.79 L 21.69,5.38 L 21.63,5.38 L 19.85,6.27 L 19.85,6.30 L 20.64,6.68 L 20.68,6.74 L 18.96,7.60 L 18.96,7.67 L 20.68,8.52 L 20.80,8.52 L 21.63,8.11 L 21.60,8.05 L 20.80,7.67 L 20.77,7.63 L 20.80,7.60 L 21.66,7.19 L 22.52,7.63 L 22.58,7.63 L 23.41,7.22 Z" fill="#302b35" stroke="none" /><path d="M 9.86,6.71 L 9.03,6.30 L 8.91,6.30 L 8.11,6.71 L 8.05,6.71 L 7.28,6.33 L 7.22,6.27 L 8.05,5.85 L 8.05,5.82 L 7.19,5.38 L 7.13,5.38 L 5.41,6.23 L 5.38,6.30 L 6.17,6.68 L 6.20,6.74 L 5.38,7.16 L 5.38,7.19 L 6.23,7.63 L 5.41,8.05 L 5.38,8.11 L 6.17,8.49 L 6.20,8.56 L 4.55,9.38 L 4.52,9.45 L 6.30,10.34 L 7.16,9.92 L 7.13,9.86 L 6.30,9.45 L 7.16,9.00 L 7.16,8.97 L 6.33,8.56 L 6.36,8.49 L 7.16,8.11 L 7.16,8.08 L 6.30,7.63 L 8.05,6.74 L 8.11,6.74 L 9.00,7.19 L 9.83,6.78 Z" fill="#302b35" stroke="none" /><path d="M 14.44,5.34 L 14.44,5.41 L 15.27,5.82 L 15.36,5.82 L 16.19,5.41 L 16.19,5.34 L 15.36,4.93 L 15.27,4.93 Z" fill="#302b35" stroke="none" /><path d="M 16.22,4.45 L 16.22,4.49 L 17.11,4.93 L 18.04,4.49 L 18.04,4.45 L 17.15,4.01 Z" fill="#302b35" stroke="none" /><path d="M 20.71,3.12 L 19.82,2.67 L 18.99,3.09 L 18.89,3.09 L 18.10,2.67 L 17.97,2.67 L 17.18,3.09 L 17.08,3.09 L 16.32,2.70 L 16.29,2.64 L 17.11,2.23 L 17.11,2.19 L 16.25,1.75 L 17.08,1.34 L 17.08,1.30 L 16.16,0.86 L 14.44,1.72 L 14.44,1.78 L 15.24,2.16 L 15.27,2.19 L 15.20,2.26 L 13.52,3.09 L 13.55,3.15 L 14.35,3.53 L 14.38,3.56 L 14.35,3.59 L 13.49,4.01 L 11.74,3.12 L 11.64,3.12 L 10.82,3.53 L 10.82,3.59 L 11.64,4.01 L 11.58,4.07 L 10.78,4.45 L 10.78,4.49 L 12.56,5.38 L 12.63,5.38 L 13.49,4.93 L 13.49,4.90 L 12.69,4.52 L 12.66,4.49 L 12.69,4.42 L 13.46,4.04 L 13.55,4.04 L 14.35,4.45 L 14.47,4.45 L 15.30,4.04 L 15.27,3.98 L 14.44,3.56 L 15.30,3.12 L 16.19,3.56 L 16.25,3.56 L 17.11,3.12 L 18.00,3.56 L 18.07,3.56 L 18.93,3.12 L 19.82,3.56 L 19.88,3.56 L 20.71,3.15 Z" fill="#302b35" stroke="none" /><path d="M 9.92,23.19 L 9.92,24.30 L 10.85,24.75 L 10.85,23.63 L 9.99,23.19 Z" fill="#323036" stroke="none" /><path d="M 7.22,22.93 L 7.22,24.05 L 8.11,24.49 L 8.11,25.61 L 9.03,26.05 L 9.03,23.83 Z" fill="#323036" stroke="none" /><path d="M 13.55,22.78 L 13.55,23.89 L 14.41,24.30 L 14.41,23.19 Z" fill="#323036" stroke="none" /><path d="M 9.92,20.96 L 9.92,22.08 L 11.67,22.93 L 11.74,23.00 L 11.74,24.08 L 12.63,24.52 L 12.63,22.30 Z" fill="#323036" stroke="none" /><path d="M 2.67,19.56 L 2.67,20.68 L 3.59,21.12 L 3.59,20.01 L 2.74,19.56 Z" fill="#323036" stroke="none" /><path d="M 1.78,16.89 L 1.78,18.00 L 3.59,18.89 L 3.59,17.78 Z" fill="#323036" stroke="none" /><path d="M 0.00,16.00 L 0.00,17.11 L 0.83,17.53 L 0.89,17.53 L 0.89,16.45 Z" fill="#323036" stroke="none" /><path d="M 9.03,11.71 L 9.03,12.76 L 10.78,13.65 L 10.85,13.65 L 10.85,12.60 L 9.10,11.71 Z" fill="#323036" stroke="none" /><path d="M 6.30,10.34 L 6.30,11.39 L 8.05,12.28 L 8.11,12.28 L 8.11,11.23 L 6.36,10.34 Z" fill="#323036" stroke="none" /><path d="M 1.78,10.24 L 1.78,11.36 L 2.61,11.77 L 2.67,11.77 L 2.67,10.66 L 1.84,10.24 Z" fill="#323036" stroke="none" /><path d="M 3.59,8.97 L 3.59,10.05 L 4.49,10.50 L 4.49,11.58 L 5.34,12.02 L 5.41,12.02 L 5.41,9.86 Z" fill="#323036" stroke="none" /><path d="M 0.89,7.63 L 0.89,8.68 L 2.67,9.57 L 2.67,8.49 L 0.95,7.63 Z" fill="#323036" stroke="none" /><path d="M 18.96,11.23 L 18.96,11.29 L 19.72,11.67 L 19.85,11.67 L 20.68,11.26 L 20.64,11.20 L 19.88,10.82 L 19.79,10.82 Z" fill="#3b3846" stroke="none" /><path d="M 17.11,10.34 L 15.33,9.45 L 15.27,9.45 L 12.60,10.78 L 12.60,10.82 L 14.38,11.71 L 12.60,12.60 L 12.60,12.63 L 14.38,13.52 L 14.44,13.52 L 15.30,13.07 L 16.13,13.49 L 16.22,13.49 L 17.94,12.63 L 17.97,12.56 L 17.15,12.15 L 15.36,13.04 L 15.27,13.04 L 14.47,12.63 L 14.50,12.56 L 17.08,11.29 L 17.11,11.23 L 16.32,10.85 L 16.29,10.78 L 17.11,10.37 Z" fill="#3b3846" stroke="none" /><path d="M 27.07,7.16 L 25.38,6.33 L 25.32,6.27 L 26.08,5.88 L 26.12,5.82 L 24.30,4.93 L 23.48,5.34 L 23.48,5.38 L 25.19,6.23 L 25.22,6.27 L 25.16,6.33 L 24.40,6.71 L 24.33,6.71 L 23.44,6.27 L 22.55,6.71 L 22.55,6.74 L 23.35,7.13 L 23.41,7.19 L 23.38,7.22 L 22.55,7.63 L 21.69,7.19 L 21.60,7.19 L 20.77,7.60 L 20.77,7.67 L 21.60,8.08 L 21.53,8.14 L 20.77,8.52 L 20.71,8.52 L 18.96,7.63 L 18.89,7.63 L 18.04,8.08 L 18.04,8.11 L 18.83,8.49 L 18.86,8.52 L 18.83,8.59 L 18.07,8.97 L 17.97,8.97 L 17.18,8.56 L 17.05,8.56 L 16.22,8.97 L 16.22,9.00 L 17.97,9.89 L 18.07,9.89 L 20.71,8.56 L 20.77,8.56 L 21.53,8.94 L 21.60,9.00 L 19.88,9.86 L 19.85,9.92 L 20.68,10.34 L 20.80,10.34 L 21.60,9.92 L 21.69,9.92 L 22.52,10.34 L 23.41,9.89 L 23.41,9.86 L 21.73,9.03 L 21.69,9.00 L 21.76,8.94 L 23.41,8.11 L 23.51,8.11 L 25.19,8.97 L 25.26,8.97 L 26.12,8.52 L 26.12,8.49 L 23.54,7.22 L 23.51,7.19 L 23.57,7.13 L 24.33,6.74 L 24.40,6.74 L 26.15,7.63 L 26.21,7.63 L 27.04,7.22 Z" fill="#3b3846" stroke="none" /><path d="M 12.56,7.16 L 10.85,6.30 L 10.72,6.30 L 9.03,7.16 L 8.94,7.16 L 8.17,6.78 L 8.14,6.74 L 8.17,6.68 L 8.97,6.30 L 8.97,6.27 L 8.17,5.88 L 8.11,5.82 L 8.14,5.79 L 8.97,5.38 L 9.83,5.82 L 9.92,5.82 L 10.75,5.41 L 10.75,5.34 L 9.03,4.49 L 8.91,4.49 L 7.19,5.34 L 7.19,5.41 L 8.02,5.82 L 7.95,5.88 L 7.22,6.23 L 7.19,6.30 L 7.98,6.68 L 8.02,6.74 L 6.30,7.60 L 6.30,7.67 L 7.09,8.05 L 7.13,8.08 L 7.06,8.14 L 6.30,8.52 L 6.23,8.52 L 4.49,7.63 L 4.42,7.63 L 3.56,8.08 L 3.56,8.11 L 4.39,8.52 L 4.36,8.59 L 3.63,8.94 L 3.63,9.00 L 4.45,9.42 L 4.55,9.42 L 6.23,8.56 L 6.30,8.56 L 7.06,8.94 L 7.13,9.00 L 6.30,9.42 L 6.30,9.48 L 8.02,10.34 L 8.14,10.34 L 8.97,9.92 L 8.97,9.89 L 7.25,9.03 L 7.22,9.00 L 7.28,8.94 L 8.05,8.56 L 8.11,8.56 L 9.00,9.00 L 10.75,8.11 L 10.85,8.11 L 11.64,8.52 L 11.77,8.52 L 12.60,8.11 L 12.60,8.08 L 11.80,7.70 L 11.74,7.63 L 12.56,7.22 Z" fill="#3b3846" stroke="none" /><path d="M 15.27,3.12 L 14.44,3.53 L 14.44,3.59 L 15.24,3.98 L 15.27,4.01 L 15.20,4.07 L 14.44,4.45 L 14.38,4.45 L 13.49,4.01 L 12.60,4.45 L 12.60,4.49 L 13.39,4.87 L 13.46,4.93 L 12.63,5.34 L 12.63,5.41 L 15.33,6.74 L 18.00,5.41 L 18.00,5.34 L 15.43,4.07 L 15.36,4.01 L 15.40,3.98 L 16.19,3.59 L 16.19,3.53 L 15.36,3.12 Z" fill="#3b3846" stroke="none" /><path d="M 16.25,1.72 L 16.25,1.78 L 17.08,2.19 L 17.02,2.26 L 16.22,2.64 L 16.22,2.67 L 17.02,3.05 L 17.08,3.12 L 16.25,3.53 L 16.25,3.59 L 17.97,4.45 L 18.10,4.45 L 18.89,4.04 L 18.99,4.04 L 19.79,4.45 L 19.91,4.45 L 20.74,4.04 L 20.71,3.98 L 19.88,3.56 L 19.82,3.56 L 18.93,4.01 L 17.21,3.15 L 17.18,3.12 L 17.24,3.05 L 18.86,2.26 L 18.86,2.19 L 17.15,1.34 L 17.02,1.34 Z" fill="#3b3846" stroke="none" /><path d="M 19.79,11.67 L 18.96,11.26 L 18.89,11.26 L 17.18,12.12 L 17.15,12.18 L 18.00,12.60 L 19.79,11.71 Z" fill="#4d4a53" stroke="none" /><path d="M 22.49,10.31 L 21.63,9.89 L 19.85,10.78 L 19.85,10.82 L 20.64,11.23 L 20.74,11.23 L 22.46,10.37 Z" fill="#4d4a53" stroke="none" /><path d="M 6.33,10.31 L 6.36,10.37 L 7.19,10.78 L 7.25,10.78 L 8.08,10.37 L 8.08,10.34 L 7.19,9.89 Z" fill="#4d4a53" stroke="none" /><path d="M 21.66,8.97 L 21.69,9.03 L 23.35,9.86 L 23.48,9.86 L 25.19,9.00 L 25.19,8.94 L 24.43,8.56 L 24.30,8.56 L 23.51,8.97 L 23.41,8.97 L 22.62,8.56 L 22.49,8.56 Z" fill="#4d4a53" stroke="none" /><path d="M 11.71,8.52 L 10.78,8.08 L 9.03,8.97 L 8.94,8.97 L 8.14,8.56 L 8.02,8.56 L 7.19,8.97 L 7.19,9.00 L 8.94,9.89 L 9.03,9.89 L 11.71,8.56 Z" fill="#4d4a53" stroke="none" /><path d="M 27.93,7.60 L 27.13,7.19 L 27.04,7.19 L 25.32,8.05 L 25.29,8.11 L 26.15,8.52 L 27.93,7.63 Z" fill="#4d4a53" stroke="none" /><path d="M 8.11,7.60 L 8.11,7.67 L 8.94,8.08 L 9.03,8.08 L 9.86,7.67 L 9.86,7.60 L 9.03,7.19 L 8.94,7.19 Z" fill="#4d4a53" stroke="none" /><path d="M 23.48,7.16 L 23.51,7.22 L 24.33,7.63 L 24.40,7.63 L 25.26,7.19 L 25.26,7.16 L 24.43,6.74 L 24.30,6.74 Z" fill="#4d4a53" stroke="none" /><path d="M 8.08,5.82 L 8.08,5.85 L 9.86,6.74 L 11.67,5.85 L 11.64,5.79 L 10.82,5.38 L 10.75,5.38 L 9.89,5.82 L 9.00,5.38 L 8.94,5.38 Z" fill="#4d4a53" stroke="none" /><path d="M 19.85,4.45 L 18.93,4.01 L 17.15,4.90 L 17.15,4.93 L 18.00,5.38 L 18.07,5.38 L 19.85,4.49 Z" fill="#4d4a53" stroke="none" /><path d="M 15.33,4.01 L 15.33,4.04 L 16.16,4.45 L 16.29,4.45 L 17.11,4.04 L 17.08,3.98 L 16.25,3.56 L 16.19,3.56 Z" fill="#4d4a53" stroke="none" /><path d="M 19.88,3.53 L 19.88,3.59 L 20.71,4.01 L 20.80,4.01 L 21.60,3.59 L 21.60,3.56 L 20.77,3.15 L 20.64,3.15 Z" fill="#4d4a53" stroke="none" /></svg>