<svg height="32" width="32" viewBox="0 0 32 32"><defs /><path d="M 23.00,21.10 L 22.92,21.10 L 21.99,21.58 L 21.99,22.77 L 22.07,22.77 L 23.00,22.29 Z" fill="#252723" stroke="none" /><path d="M 32.00,14.14 L 31.93,14.14 L 31.00,14.62 L 31.00,17.04 L 30.92,17.12 L 27.98,18.57 L 27.98,19.80 L 32.00,17.79 Z" fill="#252723" stroke="none" /><path d="M 21.99,21.58 L 19.98,22.59 L 19.98,23.78 L 20.06,23.78 L 21.99,22.81 Z" fill="#282b25" stroke="none" /><path d="M 25.00,20.09 L 24.93,20.09 L 23.00,21.06 L 23.00,22.29 L 25.00,21.28 Z" fill="#282b25" stroke="none" /><path d="M 27.98,18.60 L 27.91,18.60 L 27.01,19.05 L 27.01,20.28 L 27.98,19.80 Z" fill="#282b25" stroke="none" /><path d="M 32.00,11.68 L 31.93,11.68 L 31.00,12.17 L 31.00,14.62 L 32.00,14.14 Z" fill="#282b25" stroke="none" /><path d="M 20.99,20.87 L 20.91,20.87 L 19.98,21.36 L 19.98,22.55 L 19.91,22.62 L 17.00,24.07 L 17.00,25.27 L 17.08,25.27 L 19.98,23.81 L 19.98,22.62 L 20.06,22.55 L 20.99,22.10 Z" fill="#2b302b" stroke="none" /><path d="M 26.01,18.34 L 24.00,19.35 L 24.00,20.58 L 24.97,20.09 L 25.00,20.13 L 25.00,21.28 L 27.01,20.28 L 27.01,19.09 L 26.94,19.09 L 26.05,19.53 L 26.01,19.50 Z" fill="#2b302b" stroke="none" /><path d="M 24.00,16.89 L 21.99,17.90 L 21.99,19.13 L 24.00,18.12 Z" fill="#2b302b" stroke="none" /><path d="M 31.00,15.85 L 29.99,16.33 L 29.99,17.56 L 30.07,17.56 L 31.00,17.08 Z" fill="#2b302b" stroke="none" /><path d="M 28.99,14.40 L 27.98,14.88 L 27.98,16.11 L 27.01,16.60 L 27.01,17.82 L 27.09,17.82 L 27.98,17.38 L 27.98,16.15 L 28.99,15.63 Z" fill="#2b302b" stroke="none" /><path d="M 32.00,8.00 L 29.99,9.00 L 29.99,10.23 L 30.96,9.75 L 31.00,9.79 L 31.00,12.17 L 32.00,11.68 Z" fill="#2b302b" stroke="none" /><path d="M 19.98,21.36 L 18.01,22.33 L 18.01,23.55 L 18.08,23.55 L 19.98,22.59 Z" fill="#303432" stroke="none" /><path d="M 21.99,20.35 L 20.99,20.84 L 20.99,22.07 L 21.06,22.07 L 21.99,21.58 Z" fill="#303432" stroke="none" /><path d="M 20.99,13.51 L 19.98,13.99 L 19.98,15.22 L 19.94,15.26 L 18.01,16.22 L 18.01,18.64 L 18.08,18.64 L 19.01,18.16 L 19.01,16.97 L 19.98,16.48 L 19.98,15.26 L 20.99,14.73 Z" fill="#303432" stroke="none" /><path d="M 29.99,12.69 L 29.92,12.69 L 27.98,13.66 L 27.98,14.88 L 26.05,15.85 L 26.01,15.89 L 26.01,17.08 L 25.93,17.15 L 25.04,17.60 L 25.00,17.56 L 25.00,16.41 L 24.93,16.41 L 24.04,16.86 L 24.00,16.82 L 24.00,15.70 L 24.07,15.63 L 26.01,14.66 L 26.01,13.47 L 25.93,13.47 L 24.00,14.44 L 24.00,15.63 L 23.93,15.70 L 21.99,16.67 L 21.99,17.86 L 21.92,17.93 L 19.98,18.90 L 19.98,20.13 L 21.95,19.16 L 21.99,19.13 L 21.99,17.93 L 22.07,17.86 L 23.93,16.93 L 24.00,16.97 L 24.00,18.12 L 24.97,17.64 L 25.00,17.67 L 25.00,18.83 L 25.08,18.83 L 25.93,18.38 L 26.01,18.42 L 26.01,19.57 L 29.99,17.60 L 29.99,16.37 L 31.00,15.85 L 31.00,14.62 L 30.96,14.62 L 29.99,15.11 L 29.99,16.33 L 29.95,16.37 L 27.05,17.82 L 27.01,17.79 L 27.01,16.63 L 27.98,16.15 L 27.98,14.92 L 29.99,13.92 Z" fill="#303432" stroke="none" /><path d="M 24.00,12.02 L 23.93,12.02 L 21.99,12.99 L 21.99,14.21 L 22.07,14.21 L 24.00,13.25 Z" fill="#303432" stroke="none" /><path d="M 31.00,9.75 L 30.92,9.75 L 30.03,10.20 L 29.99,10.16 L 29.99,9.00 L 29.95,9.00 L 26.01,10.98 L 26.01,12.20 L 26.08,12.20 L 29.92,10.27 L 29.99,10.31 L 29.99,11.46 L 30.03,11.46 L 31.00,10.98 Z" fill="#303432" stroke="none" /><path d="M 17.00,20.39 L 16.00,20.87 L 16.00,23.33 L 16.07,23.33 L 17.00,22.85 Z" fill="#393c39" stroke="none" /><path d="M 23.00,18.64 L 22.92,18.64 L 19.05,20.58 L 19.01,20.61 L 19.01,21.84 L 23.00,19.87 Z" fill="#393c39" stroke="none" /><path d="M 18.01,16.22 L 17.00,16.71 L 17.00,17.93 L 17.08,17.93 L 18.01,17.45 Z" fill="#393c39" stroke="none" /><path d="M 23.00,14.96 L 19.98,16.45 L 19.98,17.64 L 19.91,17.71 L 18.01,18.64 L 18.01,19.87 L 18.08,19.87 L 20.99,18.42 L 20.99,17.19 L 23.00,16.19 Z" fill="#393c39" stroke="none" /><path d="M 19.98,14.03 L 19.91,14.03 L 19.01,14.47 L 19.01,15.70 L 19.09,15.70 L 19.98,15.26 Z" fill="#393c39" stroke="none" /><path d="M 28.99,11.98 L 28.91,11.98 L 28.02,12.43 L 27.98,12.39 L 27.98,11.24 L 27.94,11.24 L 25.04,12.69 L 25.00,12.73 L 25.00,13.95 L 26.98,12.99 L 27.01,13.02 L 27.01,14.14 L 27.09,14.14 L 28.99,13.17 Z" fill="#393c39" stroke="none" /><path d="M 18.01,17.45 L 17.00,17.93 L 17.00,22.81 L 16.93,22.88 L 16.00,23.33 L 16.00,25.79 L 17.00,25.30 L 17.00,24.11 L 17.08,24.04 L 18.01,23.59 L 18.01,22.36 L 19.01,21.84 L 19.01,20.65 L 19.09,20.58 L 19.98,20.13 L 19.98,18.90 L 18.05,19.87 L 18.01,19.83 Z" fill="#34393a" stroke="none" /><path d="M 21.99,16.67 L 20.99,17.15 L 20.99,18.38 L 21.06,18.38 L 21.99,17.90 Z" fill="#34393a" stroke="none" /><path d="M 26.01,11.01 L 25.93,11.01 L 24.00,11.98 L 24.00,13.21 L 22.03,14.21 L 21.99,14.18 L 21.99,13.02 L 21.92,13.02 L 21.02,13.47 L 20.99,13.51 L 20.99,14.70 L 20.91,14.77 L 19.98,15.22 L 19.98,16.45 L 19.01,16.93 L 19.01,18.16 L 19.05,18.16 L 19.98,17.67 L 19.98,16.48 L 20.02,16.45 L 22.92,15.00 L 23.00,15.03 L 23.00,16.15 L 23.07,16.15 L 23.93,15.70 L 24.00,15.74 L 24.00,16.89 L 24.97,16.41 L 25.00,16.45 L 25.00,17.60 L 23.00,18.60 L 23.00,19.83 L 21.99,20.35 L 21.99,21.58 L 24.00,20.58 L 24.00,19.39 L 24.07,19.31 L 25.00,18.87 L 25.00,17.64 L 26.01,17.12 L 26.01,15.93 L 26.08,15.85 L 27.98,14.92 L 27.98,13.69 L 27.91,13.69 L 27.05,14.14 L 27.01,14.10 L 27.01,12.95 L 26.98,12.95 L 26.01,13.43 L 26.01,14.62 L 25.93,14.70 L 24.07,15.63 L 24.00,15.59 L 24.00,14.47 L 25.00,13.95 L 25.00,12.76 L 25.08,12.69 L 26.01,12.24 Z" fill="#34393a" stroke="none" /><path d="M 29.99,10.23 L 27.98,11.24 L 27.98,12.47 L 28.95,11.98 L 28.99,12.02 L 28.99,13.17 L 29.95,12.69 L 29.99,12.73 L 29.99,13.88 L 28.99,14.40 L 28.99,15.59 L 28.91,15.67 L 27.98,16.11 L 27.98,17.34 L 28.06,17.34 L 29.99,16.37 L 29.99,15.14 L 31.00,14.62 L 31.00,10.98 L 30.92,10.98 L 30.03,11.42 L 29.99,11.39 Z" fill="#34393a" stroke="none" /><path d="M 17.00,19.16 L 16.00,19.65 L 16.00,20.87 L 16.07,20.87 L 17.00,20.39 Z" fill="#3f3f3b" stroke="none" /><path d="M 19.01,14.51 L 18.94,14.51 L 17.00,15.48 L 17.00,16.71 L 16.00,17.23 L 16.00,18.46 L 17.00,17.97 L 17.00,16.74 L 17.04,16.71 L 19.01,15.74 Z" fill="#3f3f3b" stroke="none" /><path d="M 17.00,17.97 L 16.93,17.97 L 16.00,18.46 L 16.00,19.65 L 16.07,19.65 L 17.00,19.16 Z" fill="#464541" stroke="none" /><path d="M 17.00,15.52 L 16.93,15.52 L 16.00,16.00 L 16.00,17.23 L 17.00,16.74 Z" fill="#464541" stroke="none" /><path d="M 12.02,22.59 L 12.02,23.81 L 16.00,25.79 L 16.00,22.10 L 15.00,21.62 L 15.00,24.00 L 14.96,24.04 Z" fill="#444941" stroke="none" /><path d="M 5.99,19.57 L 5.99,20.80 L 7.00,21.28 L 7.00,20.06 Z" fill="#444941" stroke="none" /><path d="M 4.99,6.47 L 3.98,5.99 L 0.04,7.96 L 0.04,8.04 L 2.94,9.49 L 3.05,9.49 L 3.94,9.04 L 3.98,8.97 L 2.05,8.00 L 4.95,6.55 Z" fill="#444941" stroke="none" /><path d="M 9.04,3.46 L 9.04,3.53 L 9.93,3.98 L 10.08,3.98 L 10.98,3.53 L 10.94,3.46 L 10.05,3.01 L 9.93,3.01 Z" fill="#444941" stroke="none" /><path d="M 11.01,22.10 L 11.01,23.29 L 11.94,23.78 L 12.02,23.78 L 12.02,22.59 L 11.09,22.10 Z" fill="#4a5044" stroke="none" /><path d="M 7.00,20.09 L 7.00,21.28 L 9.00,22.29 L 9.00,21.06 L 7.07,20.09 Z" fill="#4a5044" stroke="none" /><path d="M 15.00,19.16 L 15.00,21.62 L 15.93,22.10 L 16.00,22.10 L 16.00,19.65 Z" fill="#4a5044" stroke="none" /><path d="M 4.02,18.60 L 4.02,19.80 L 5.92,20.76 L 5.99,20.76 L 5.99,19.57 L 4.09,18.60 Z" fill="#4a5044" stroke="none" /><path d="M 9.04,12.47 L 9.04,12.54 L 11.94,13.99 L 12.06,13.99 L 12.99,13.51 L 12.99,13.47 L 10.08,12.02 L 9.93,12.02 Z" fill="#4a5044" stroke="none" /><path d="M 3.01,9.49 L 3.01,9.53 L 4.95,10.49 L 5.06,10.49 L 5.99,10.01 L 5.99,9.97 L 4.06,9.00 L 3.94,9.00 Z" fill="#4a5044" stroke="none" /><path d="M 4.02,5.99 L 4.02,6.03 L 4.99,6.51 L 5.99,6.03 L 5.95,5.95 L 5.06,5.51 L 4.95,5.51 Z" fill="#4a5044" stroke="none" /><path d="M 10.01,3.98 L 9.04,3.50 L 8.97,3.50 L 7.03,4.47 L 7.03,4.54 L 7.93,4.99 L 8.07,4.99 L 10.01,4.02 Z" fill="#4a5044" stroke="none" /><path d="M 12.99,2.49 L 12.06,2.01 L 11.94,2.01 L 10.01,2.98 L 10.01,3.01 L 10.94,3.50 L 11.05,3.50 L 12.99,2.53 Z" fill="#4a5044" stroke="none" /><path d="M 13.99,22.36 L 13.99,23.59 L 15.00,24.07 L 15.00,22.85 L 14.07,22.36 Z" fill="#515950" stroke="none" /><path d="M 8.00,19.35 L 8.00,20.58 L 9.00,21.10 L 9.00,22.29 L 11.01,23.29 L 11.01,22.07 L 10.08,21.62 L 10.01,21.54 L 10.01,20.35 Z" fill="#515950" stroke="none" /><path d="M 12.06,18.90 L 12.02,18.90 L 12.02,20.06 L 11.98,20.09 L 11.09,19.65 L 11.01,19.65 L 11.01,20.87 L 11.98,21.36 L 12.02,21.36 L 12.02,20.20 L 12.06,20.17 L 12.99,20.61 L 12.99,19.39 Z" fill="#515950" stroke="none" /><path d="M 1.00,17.08 L 1.00,18.31 L 3.98,19.80 L 4.02,19.80 L 4.02,18.64 L 4.06,18.60 L 4.91,19.05 L 4.99,19.05 L 4.99,17.82 L 4.09,17.38 L 4.02,17.38 L 4.02,18.53 L 3.98,18.57 Z" fill="#515950" stroke="none" /><path d="M 5.99,15.89 L 5.99,17.12 L 8.00,18.12 L 8.00,16.89 Z" fill="#515950" stroke="none" /><path d="M 13.99,12.99 L 12.06,13.95 L 12.02,14.03 L 13.92,14.96 L 13.99,15.03 L 13.99,16.22 L 15.00,16.74 L 15.00,19.16 L 15.93,19.65 L 16.00,19.65 L 16.00,16.00 L 15.07,15.52 L 15.11,15.44 L 15.96,15.03 L 15.96,14.96 L 15.07,14.51 L 15.11,14.44 L 15.96,14.03 L 15.96,13.95 Z" fill="#515950" stroke="none" /><path d="M 5.02,10.49 L 5.02,10.53 L 8.97,12.50 L 9.04,12.50 L 9.97,12.02 L 10.05,12.02 L 11.01,12.50 L 11.98,12.02 L 11.94,11.94 L 9.04,10.49 L 8.97,10.49 L 8.04,10.98 L 7.96,10.98 L 6.07,10.01 L 5.95,10.01 Z" fill="#515950" stroke="none" /><path d="M 15.96,8.97 L 15.07,8.52 L 14.92,8.52 L 13.06,9.45 L 13.02,9.53 L 14.03,10.01 L 15.96,9.04 Z" fill="#515950" stroke="none" /><path d="M 23.96,7.96 L 23.07,7.52 L 22.92,7.52 L 20.99,8.48 L 20.99,8.52 L 21.95,9.00 L 22.03,9.00 L 23.96,8.04 Z" fill="#515950" stroke="none" /><path d="M 2.05,7.96 L 2.05,8.04 L 2.94,8.48 L 3.09,8.48 L 3.98,8.04 L 3.98,7.96 L 3.09,7.52 L 2.94,7.52 Z" fill="#515950" stroke="none" /><path d="M 6.96,6.51 L 6.03,7.00 L 6.03,7.03 L 6.92,7.48 L 6.88,7.55 L 6.03,7.96 L 6.03,8.04 L 6.92,8.48 L 7.07,8.48 L 7.96,8.04 L 7.96,7.96 L 7.07,7.52 L 7.11,7.44 L 7.96,7.03 L 7.96,6.96 L 7.07,6.51 Z" fill="#515950" stroke="none" /><path d="M 13.99,4.99 L 13.02,4.50 L 12.95,4.50 L 11.01,5.47 L 11.01,5.51 L 11.94,5.99 L 12.06,5.99 L 13.99,5.02 Z" fill="#515950" stroke="none" /><path d="M 5.02,5.51 L 5.95,5.99 L 6.07,5.99 L 7.00,5.51 L 7.96,5.99 L 8.07,5.99 L 10.01,5.02 L 10.01,4.99 L 9.04,4.50 L 8.97,4.50 L 8.04,4.99 L 7.96,4.99 L 7.03,4.50 L 6.96,4.50 L 5.02,5.47 Z" fill="#515950" stroke="none" /><path d="M 15.96,0.97 L 15.07,0.52 L 14.92,0.52 L 12.02,1.97 L 12.06,2.05 L 12.95,2.49 L 12.87,2.57 L 12.02,2.98 L 12.02,3.01 L 12.95,3.50 L 13.06,3.50 L 13.95,3.05 L 13.99,2.98 L 13.13,2.57 L 13.06,2.49 L 15.96,1.04 Z" fill="#515950" stroke="none" /><path d="M 4.99,17.86 L 4.99,19.09 L 5.99,19.57 L 5.99,18.34 L 5.06,17.86 Z" fill="#5a615d" stroke="none" /><path d="M 2.01,16.37 L 2.01,17.60 L 3.94,18.57 L 4.02,18.57 L 4.02,17.34 L 2.08,16.37 Z" fill="#5a615d" stroke="none" /><path d="M 4.02,14.92 L 4.02,16.15 L 5.99,17.12 L 5.99,15.96 L 6.07,15.93 L 7.93,16.86 L 8.00,16.93 L 8.00,18.12 L 9.00,18.64 L 9.00,19.87 L 9.93,20.32 L 10.01,20.39 L 10.01,21.58 L 10.05,21.62 L 13.92,23.55 L 13.99,23.55 L 13.99,22.40 L 14.03,22.36 L 15.00,22.85 L 15.00,21.62 L 14.96,21.58 L 14.07,21.13 L 13.99,21.13 L 13.99,22.29 L 13.95,22.33 L 11.01,20.84 L 11.01,19.68 L 11.05,19.65 L 12.02,20.13 L 12.02,18.98 L 12.06,18.94 L 13.92,19.87 L 13.99,19.87 L 13.99,18.64 L 12.06,17.67 L 12.02,17.67 L 12.02,18.83 L 11.98,18.87 L 10.05,17.90 L 10.01,17.90 L 10.01,19.05 L 9.97,19.09 L 9.00,18.60 L 9.00,17.38 L 8.07,16.93 L 8.00,16.86 L 8.00,15.74 L 8.07,15.70 L 10.01,16.67 L 10.01,15.44 L 8.07,14.47 L 8.00,14.47 L 8.00,15.59 L 7.96,15.63 L 5.99,14.66 L 5.99,15.81 L 5.95,15.85 L 4.09,14.92 Z" fill="#5a615d" stroke="none" /><path d="M 10.01,13.02 L 10.01,14.25 L 13.92,16.19 L 13.99,16.26 L 13.99,17.45 L 14.92,17.93 L 15.00,17.93 L 15.00,16.71 L 14.07,16.26 L 13.99,16.19 L 13.99,15.00 L 13.95,14.96 L 10.08,13.02 Z" fill="#5a615d" stroke="none" /><path d="M 22.96,11.46 L 22.07,11.01 L 21.92,11.01 L 20.02,11.98 L 19.05,11.50 L 18.98,11.50 L 16.04,12.99 L 15.96,12.99 L 15.03,12.50 L 16.00,12.02 L 16.00,11.98 L 15.03,11.50 L 14.96,11.50 L 12.06,12.95 L 12.02,13.02 L 12.99,13.51 L 13.95,13.02 L 14.07,13.02 L 15.00,13.51 L 15.96,13.02 L 16.04,13.02 L 17.00,13.51 L 18.98,12.50 L 19.94,12.99 L 20.06,12.99 L 22.96,11.53 Z" fill="#5a615d" stroke="none" /><path d="M 5.99,11.01 L 5.99,12.24 L 7.93,13.21 L 8.00,13.21 L 8.00,11.98 L 6.07,11.01 Z" fill="#5a615d" stroke="none" /><path d="M 7.03,10.49 L 7.03,10.53 L 7.93,10.98 L 8.07,10.98 L 8.97,10.53 L 8.97,10.46 L 8.07,10.01 L 7.96,10.01 Z" fill="#5a615d" stroke="none" /><path d="M 4.99,10.49 L 4.02,10.01 L 4.02,11.16 L 3.94,11.20 L 2.01,10.23 L 2.01,12.69 L 3.01,13.17 L 3.01,12.02 L 3.05,11.98 L 4.02,12.47 L 4.02,11.31 L 4.06,11.27 L 4.99,11.72 Z" fill="#5a615d" stroke="none" /><path d="M 19.01,10.53 L 20.02,11.01 L 22.96,9.53 L 23.03,9.53 L 24.00,10.01 L 25.93,9.04 L 25.97,8.97 L 25.08,8.52 L 24.93,8.52 L 24.00,9.00 L 23.07,8.52 L 22.92,8.52 L 21.99,9.00 L 21.06,8.52 L 20.91,8.52 L 20.02,8.97 L 20.02,9.00 L 20.95,9.49 L 20.87,9.56 L 19.05,10.46 Z" fill="#5a615d" stroke="none" /><path d="M 16.00,9.97 L 15.03,9.49 L 14.07,9.97 L 13.95,9.97 L 13.13,9.56 L 13.06,9.49 L 13.95,9.04 L 13.99,8.97 L 12.99,8.48 L 9.04,10.46 L 9.04,10.53 L 9.93,10.98 L 10.08,10.98 L 12.02,10.01 L 12.95,10.49 L 12.87,10.57 L 12.02,10.98 L 12.02,11.01 L 12.95,11.50 L 13.02,11.50 L 16.00,10.01 Z" fill="#5a615d" stroke="none" /><path d="M 17.97,7.00 L 17.04,6.51 L 16.93,6.51 L 15.00,7.48 L 15.00,7.52 L 15.96,8.00 L 15.00,8.48 L 15.00,8.52 L 15.96,9.00 L 16.04,9.00 L 17.97,8.04 L 17.97,7.96 L 17.08,7.52 L 17.12,7.44 L 17.97,7.03 Z" fill="#5a615d" stroke="none" /><path d="M 26.98,6.47 L 25.97,5.99 L 24.00,7.00 L 23.07,6.51 L 23.11,6.44 L 23.96,6.03 L 23.96,5.99 L 23.03,5.51 L 22.96,5.51 L 19.01,7.48 L 19.01,7.52 L 19.94,8.00 L 20.02,8.00 L 20.95,7.52 L 21.02,7.52 L 21.95,8.00 L 22.03,8.00 L 22.96,7.52 L 23.03,7.52 L 23.96,8.00 L 24.04,8.00 L 26.94,6.55 Z" fill="#5a615d" stroke="none" /><path d="M 18.98,3.50 L 18.01,3.98 L 18.01,4.02 L 18.98,4.50 L 18.01,4.99 L 18.01,5.02 L 18.87,5.43 L 18.94,5.51 L 18.05,5.95 L 18.01,6.03 L 19.01,6.51 L 19.98,6.03 L 19.94,5.95 L 19.05,5.51 L 19.13,5.43 L 20.95,4.54 L 20.95,4.47 Z" fill="#5a615d" stroke="none" /><path d="M 16.00,3.98 L 15.03,3.50 L 14.96,3.50 L 13.02,4.47 L 13.02,4.54 L 13.88,4.95 L 13.92,5.02 L 12.02,5.99 L 11.05,5.51 L 10.94,5.51 L 10.01,5.99 L 9.04,5.51 L 8.97,5.51 L 8.04,5.99 L 7.07,5.51 L 6.96,5.51 L 3.01,7.48 L 3.01,7.52 L 3.98,8.00 L 3.01,8.48 L 3.01,8.52 L 4.02,9.00 L 4.99,8.52 L 4.95,8.45 L 4.09,8.04 L 4.06,8.00 L 4.09,7.96 L 7.03,6.51 L 7.96,7.00 L 7.00,7.48 L 7.00,7.52 L 7.96,8.00 L 6.03,8.97 L 6.03,9.00 L 6.96,9.49 L 7.07,9.49 L 9.00,8.52 L 9.00,8.48 L 8.04,8.00 L 9.97,7.03 L 9.97,6.96 L 9.08,6.51 L 9.12,6.44 L 9.93,6.03 L 10.05,6.03 L 10.98,6.51 L 11.94,6.03 L 12.06,6.03 L 12.87,6.44 L 12.95,6.51 L 12.91,6.55 L 11.01,7.48 L 11.01,7.52 L 11.98,8.00 L 12.06,8.00 L 13.99,7.03 L 13.95,6.96 L 13.06,6.51 L 13.13,6.44 L 14.96,5.54 L 14.96,5.47 L 14.10,5.06 L 14.07,4.99 L 16.00,4.02 Z" fill="#5a615d" stroke="none" /><path d="M 11.01,3.50 L 11.01,3.53 L 11.98,4.02 L 12.99,3.53 L 12.95,3.46 L 12.06,3.01 L 11.94,3.01 Z" fill="#5a615d" stroke="none" /><path d="M 15.96,1.97 L 15.07,1.53 L 14.92,1.53 L 13.06,2.46 L 13.02,2.53 L 14.03,3.01 L 15.96,2.05 Z" fill="#5a615d" stroke="none" /><path d="M 3.01,15.63 L 3.01,16.86 L 3.05,16.89 L 6.92,18.83 L 7.00,18.83 L 7.00,17.60 Z" fill="#6b706a" stroke="none" /><path d="M 9.00,13.73 L 9.00,14.96 L 10.94,15.93 L 11.01,16.00 L 11.01,17.19 L 12.99,18.16 L 12.99,16.93 L 12.02,16.45 L 12.02,15.22 Z" fill="#6b706a" stroke="none" /><path d="M 18.98,13.47 L 17.97,12.99 L 16.04,13.95 L 16.04,14.03 L 16.93,14.47 L 16.89,14.55 L 16.04,14.96 L 16.04,15.03 L 16.93,15.48 L 17.08,15.48 L 18.94,14.55 L 18.98,14.47 L 18.12,14.07 L 18.05,13.99 L 18.94,13.54 Z" fill="#6b706a" stroke="none" /><path d="M 0.00,12.91 L 0.00,15.37 L 1.00,15.85 L 1.00,13.40 L 0.07,12.91 Z" fill="#6b706a" stroke="none" /><path d="M 2.01,12.69 L 2.01,13.92 L 4.91,15.37 L 4.99,15.37 L 4.99,14.21 L 5.02,14.18 L 6.92,15.14 L 7.00,15.14 L 7.00,13.95 L 6.96,13.92 L 4.06,12.47 L 4.02,12.47 L 4.02,13.62 L 3.98,13.66 L 2.08,12.69 Z" fill="#6b706a" stroke="none" /><path d="M 22.96,12.47 L 22.07,12.02 L 21.92,12.02 L 20.06,12.95 L 20.02,13.02 L 21.02,13.51 L 22.96,12.54 Z" fill="#6b706a" stroke="none" /><path d="M 22.96,10.46 L 22.07,10.01 L 21.95,10.01 L 20.02,10.98 L 20.02,11.01 L 20.95,11.50 L 21.02,11.50 L 22.96,10.53 Z" fill="#6b706a" stroke="none" /><path d="M 1.00,9.75 L 1.00,10.98 L 2.01,11.46 L 2.01,10.23 L 1.08,9.75 Z" fill="#6b706a" stroke="none" /><path d="M 3.01,9.53 L 3.01,10.75 L 4.02,11.24 L 4.02,10.01 L 3.09,9.53 Z" fill="#6b706a" stroke="none" /><path d="M 25.97,9.97 L 24.97,9.49 L 23.03,10.46 L 23.03,10.53 L 23.93,10.98 L 24.07,10.98 L 25.93,10.05 Z" fill="#6b706a" stroke="none" /><path d="M 26.01,8.97 L 26.05,9.04 L 26.94,9.49 L 27.05,9.49 L 27.98,9.00 L 27.98,8.97 L 27.01,8.48 Z" fill="#6b706a" stroke="none" /><path d="M 19.94,7.96 L 19.05,7.52 L 18.94,7.52 L 16.04,8.97 L 16.04,9.04 L 16.93,9.49 L 16.86,9.56 L 15.03,10.46 L 15.03,10.53 L 15.93,10.98 L 16.07,10.98 L 19.94,9.04 L 19.98,8.97 L 19.13,8.56 L 19.05,8.48 L 19.94,8.04 Z" fill="#6b706a" stroke="none" /><path d="M 13.95,7.96 L 13.06,7.52 L 12.95,7.52 L 11.05,8.48 L 10.98,8.48 L 10.05,8.00 L 9.97,8.00 L 8.04,8.97 L 8.04,9.04 L 8.93,9.49 L 9.08,9.49 L 10.01,9.00 L 10.94,9.49 L 11.05,9.49 L 13.95,8.04 Z" fill="#6b706a" stroke="none" /><path d="M 24.04,8.04 L 24.93,8.48 L 25.08,8.48 L 26.98,7.52 L 27.94,8.00 L 28.02,8.00 L 28.99,7.52 L 28.99,7.48 L 28.02,7.00 L 27.05,7.48 L 26.94,7.48 L 25.97,7.00 L 24.04,7.96 Z" fill="#6b706a" stroke="none" /><path d="M 19.01,5.47 L 19.05,5.54 L 19.94,5.99 L 20.06,5.99 L 20.99,5.51 L 20.99,5.47 L 20.02,4.99 Z" fill="#6b706a" stroke="none" /><path d="M 21.99,4.99 L 21.99,5.02 L 22.96,5.51 L 23.03,5.51 L 24.00,5.02 L 24.00,4.99 L 23.03,4.50 L 22.96,4.50 Z" fill="#6b706a" stroke="none" /><path d="M 20.02,3.98 L 20.06,4.06 L 20.95,4.50 L 21.02,4.50 L 21.99,4.02 L 21.99,3.98 L 21.02,3.50 Z" fill="#6b706a" stroke="none" /><path d="M 18.98,3.50 L 18.05,3.01 L 17.93,3.01 L 15.03,4.47 L 15.03,4.54 L 15.89,4.95 L 15.93,5.02 L 14.07,5.95 L 14.03,6.03 L 15.03,6.51 L 18.01,5.02 L 18.01,4.99 L 17.04,4.50 L 18.98,3.53 Z" fill="#6b706a" stroke="none" /><path d="M 16.00,2.98 L 15.00,2.49 L 11.05,4.47 L 11.05,4.54 L 11.94,4.99 L 12.06,4.99 L 16.00,3.01 Z" fill="#6b706a" stroke="none" /><path d="M 17.00,1.49 L 17.00,1.53 L 18.94,2.49 L 19.05,2.49 L 19.98,2.01 L 19.98,1.97 L 18.05,1.00 L 17.97,1.00 Z" fill="#6b706a" stroke="none" /><path d="M 12.02,15.26 L 12.02,16.48 L 12.99,16.97 L 12.99,18.16 L 13.99,18.68 L 13.99,19.83 L 13.95,19.87 L 12.99,19.39 L 12.99,20.54 L 12.95,20.58 L 12.02,20.13 L 12.02,21.36 L 13.92,22.33 L 13.99,22.33 L 13.99,21.17 L 14.03,21.13 L 15.00,21.62 L 15.00,17.93 L 14.07,17.49 L 13.99,17.41 L 13.99,16.22 L 13.95,16.19 L 12.09,15.26 Z" fill="#626b6c" stroke="none" /><path d="M 4.99,14.18 L 4.99,15.40 L 5.99,15.89 L 5.99,14.66 L 5.06,14.18 Z" fill="#626b6c" stroke="none" /><path d="M 18.01,12.99 L 18.01,13.02 L 18.98,13.51 L 19.98,13.02 L 19.94,12.95 L 19.05,12.50 L 18.94,12.50 Z" fill="#626b6c" stroke="none" /><path d="M 1.08,10.98 L 1.00,10.98 L 1.00,15.78 L 0.93,15.81 L 0.07,15.37 L 0.00,15.37 L 0.00,17.79 L 0.93,18.27 L 1.00,18.27 L 1.00,17.15 L 1.04,17.12 L 1.93,17.56 L 2.01,17.56 L 2.01,16.41 L 2.05,16.37 L 3.01,16.86 L 3.01,15.70 L 3.05,15.67 L 3.94,16.11 L 4.02,16.11 L 4.02,14.88 L 2.01,13.88 L 2.01,11.46 Z" fill="#626b6c" stroke="none" /><path d="M 3.01,11.98 L 3.01,13.17 L 3.94,13.66 L 4.02,13.66 L 4.02,12.54 L 4.09,12.50 L 6.92,13.92 L 7.00,13.99 L 7.00,15.18 L 7.93,15.63 L 8.00,15.70 L 8.00,16.89 L 9.00,17.41 L 9.00,18.57 L 8.97,18.60 L 7.07,17.64 L 7.00,17.64 L 7.00,18.79 L 6.96,18.83 L 5.99,18.34 L 5.99,19.57 L 6.03,19.61 L 8.00,20.58 L 8.00,19.42 L 8.07,19.39 L 8.93,19.83 L 9.00,19.83 L 9.00,18.68 L 9.04,18.64 L 10.01,19.13 L 10.01,17.97 L 10.05,17.93 L 12.02,18.90 L 12.02,17.67 L 11.01,17.15 L 11.01,15.96 L 10.98,15.93 L 10.08,15.48 L 10.01,15.48 L 10.01,16.60 L 9.93,16.63 L 8.07,15.70 L 8.00,15.63 L 8.00,14.51 L 8.04,14.47 L 9.00,14.96 L 9.00,13.80 L 9.04,13.77 L 9.93,14.21 L 10.01,14.21 L 10.01,12.99 L 8.07,12.02 L 8.00,12.02 L 8.00,13.17 L 7.96,13.21 L 6.03,12.24 L 5.99,12.20 L 5.99,10.98 L 5.02,10.49 L 4.99,10.49 L 4.99,11.65 L 4.95,11.68 L 4.02,11.24 L 4.02,12.39 L 3.98,12.43 L 3.09,11.98 Z" fill="#626b6c" stroke="none" /><path d="M 22.92,9.53 L 22.03,9.97 L 22.03,10.01 L 22.96,10.49 L 21.99,10.98 L 21.99,11.01 L 22.96,11.50 L 23.03,11.50 L 24.00,11.01 L 24.00,10.98 L 23.03,10.49 L 23.93,10.05 L 23.96,9.97 L 23.07,9.53 Z" fill="#626b6c" stroke="none" /><path d="M 15.03,9.49 L 15.03,9.53 L 15.93,9.97 L 16.07,9.97 L 16.97,9.53 L 16.93,9.45 L 16.04,9.00 L 15.96,9.00 Z" fill="#626b6c" stroke="none" /><path d="M 27.94,7.96 L 27.05,7.52 L 26.94,7.52 L 25.04,8.48 L 24.97,8.48 L 24.04,8.00 L 23.96,8.00 L 23.00,8.48 L 23.00,8.52 L 23.96,9.00 L 24.04,9.00 L 24.97,8.52 L 25.04,8.52 L 25.86,8.93 L 25.93,9.00 L 25.04,9.45 L 25.00,9.53 L 26.01,10.01 L 26.98,9.53 L 26.94,9.45 L 26.05,9.00 L 26.12,8.93 L 27.94,8.04 Z" fill="#626b6c" stroke="none" /><path d="M 21.95,7.96 L 21.06,7.52 L 20.91,7.52 L 19.05,8.45 L 19.01,8.52 L 19.87,8.93 L 19.94,9.00 L 19.91,9.04 L 16.04,10.98 L 15.96,10.98 L 15.03,10.49 L 14.96,10.49 L 12.99,11.50 L 12.06,11.01 L 12.13,10.94 L 12.99,10.53 L 12.99,10.49 L 12.06,10.01 L 11.94,10.01 L 10.01,10.98 L 10.01,11.01 L 11.94,11.98 L 11.87,12.06 L 11.01,12.47 L 11.05,12.54 L 11.94,12.99 L 12.06,12.99 L 15.00,11.50 L 15.89,11.94 L 15.93,11.98 L 15.89,12.06 L 15.03,12.47 L 15.03,12.54 L 15.89,12.95 L 15.93,13.02 L 15.03,13.47 L 15.03,13.51 L 15.96,13.99 L 15.00,14.47 L 15.00,14.51 L 15.96,15.00 L 15.00,15.48 L 15.00,15.52 L 15.96,16.00 L 16.04,16.00 L 17.00,15.52 L 17.00,15.48 L 16.04,15.00 L 17.00,14.51 L 17.00,14.47 L 16.04,13.99 L 16.97,13.51 L 16.97,13.47 L 16.11,13.06 L 16.07,12.99 L 19.01,11.50 L 19.94,11.98 L 20.06,11.98 L 20.95,11.53 L 20.95,11.46 L 19.13,10.57 L 19.05,10.49 L 20.99,9.53 L 20.95,9.45 L 20.06,9.00 L 20.13,8.93 L 21.95,8.04 Z" fill="#626b6c" stroke="none" /><path d="M 4.06,7.96 L 4.06,8.04 L 4.95,8.48 L 4.87,8.56 L 4.02,8.97 L 4.06,9.04 L 6.96,10.49 L 7.07,10.49 L 8.00,10.01 L 8.97,10.49 L 9.04,10.49 L 10.98,9.53 L 10.94,9.45 L 10.05,9.00 L 9.97,9.00 L 9.04,9.49 L 8.97,9.49 L 8.04,9.00 L 7.96,9.00 L 7.03,9.49 L 6.10,9.04 L 6.07,9.00 L 6.14,8.93 L 7.00,8.52 L 7.00,8.48 L 6.03,8.00 L 7.00,7.52 L 7.00,7.48 L 6.03,7.00 Z" fill="#626b6c" stroke="none" /><path d="M 23.00,6.51 L 23.96,7.00 L 24.04,7.00 L 25.97,6.03 L 25.97,5.99 L 24.07,5.02 L 23.93,5.02 L 23.03,5.47 L 23.03,5.54 L 23.93,5.99 L 23.85,6.07 L 23.00,6.47 Z" fill="#626b6c" stroke="none" /><path d="M 13.99,4.99 L 13.99,5.02 L 14.96,5.51 L 15.03,5.51 L 16.00,5.02 L 16.00,4.99 L 15.03,4.50 L 14.96,4.50 Z" fill="#626b6c" stroke="none" /><path d="M 8.04,8.04 L 8.93,8.48 L 9.08,8.48 L 10.01,8.00 L 10.94,8.48 L 11.09,8.48 L 11.98,8.04 L 11.98,7.96 L 11.13,7.55 L 11.09,7.48 L 13.02,6.51 L 13.95,7.00 L 13.88,7.07 L 13.02,7.48 L 13.06,7.55 L 13.95,8.00 L 13.06,8.45 L 13.02,8.52 L 14.03,9.00 L 15.96,8.04 L 15.96,7.96 L 15.11,7.55 L 15.07,7.48 L 16.97,6.51 L 17.93,7.00 L 17.86,7.07 L 17.00,7.48 L 17.00,7.52 L 17.97,8.00 L 18.05,8.00 L 22.96,5.54 L 22.96,5.47 L 22.07,5.02 L 21.92,5.02 L 19.05,6.47 L 18.94,6.47 L 18.12,6.07 L 18.05,5.99 L 18.98,5.51 L 18.98,5.47 L 18.08,5.02 L 18.12,4.95 L 18.98,4.54 L 18.98,4.47 L 18.08,4.02 L 17.93,4.02 L 17.04,4.47 L 17.04,4.54 L 17.90,4.95 L 17.93,4.99 L 17.90,5.06 L 15.07,6.47 L 14.96,6.47 L 14.03,5.99 L 13.06,6.47 L 12.95,6.47 L 12.02,5.99 L 11.05,6.47 L 10.94,6.47 L 10.12,6.07 L 10.05,5.99 L 11.98,5.02 L 11.94,4.95 L 11.05,4.50 L 11.94,4.06 L 11.98,3.98 L 10.98,3.50 L 9.04,4.47 L 9.04,4.54 L 9.93,4.99 L 9.90,5.06 L 9.04,5.47 L 9.04,5.54 L 9.93,5.99 L 9.86,6.07 L 9.00,6.47 L 9.00,6.51 L 9.97,7.00 L 8.04,7.96 Z" fill="#626b6c" stroke="none" /><path d="M 15.00,0.48 L 15.00,0.52 L 15.96,1.00 L 15.00,1.49 L 15.00,1.53 L 15.96,2.01 L 15.03,2.49 L 15.03,2.53 L 15.93,2.98 L 15.89,3.05 L 15.03,3.46 L 15.03,3.53 L 15.93,3.98 L 16.07,3.98 L 17.97,3.01 L 19.98,4.02 L 20.99,3.53 L 20.95,3.46 L 17.12,1.56 L 17.08,1.53 L 17.12,1.45 L 17.97,1.04 L 17.97,0.97 L 16.04,0.00 L 15.96,0.00 Z" fill="#626b6c" stroke="none" /><path d="M 20.99,13.47 L 19.98,12.99 L 18.05,13.95 L 18.01,14.03 L 19.01,14.51 L 20.95,13.54 Z" fill="#75766e" stroke="none" /><path d="M 0.00,11.68 L 0.00,12.91 L 1.00,13.40 L 1.00,12.17 L 0.07,11.68 Z" fill="#75766e" stroke="none" /><path d="M 21.99,11.98 L 21.99,12.02 L 22.96,12.50 L 23.03,12.50 L 24.00,12.02 L 24.00,11.98 L 23.03,11.50 L 22.96,11.50 Z" fill="#75766e" stroke="none" /><path d="M 24.00,10.98 L 24.00,11.01 L 24.97,11.50 L 25.04,11.50 L 25.97,11.01 L 25.97,10.98 L 25.00,10.49 Z" fill="#75766e" stroke="none" /><path d="M 0.00,9.23 L 0.00,10.46 L 0.93,10.94 L 1.00,10.94 L 1.00,9.79 L 1.04,9.75 L 2.94,10.72 L 3.01,10.72 L 3.01,9.49 L 1.08,8.52 L 1.00,8.52 L 1.00,9.67 L 0.97,9.71 Z" fill="#75766e" stroke="none" /><path d="M 30.03,7.96 L 30.03,8.04 L 30.92,8.48 L 31.07,8.48 L 31.96,8.04 L 31.96,7.96 L 31.07,7.52 L 30.92,7.52 Z" fill="#75766e" stroke="none" /><path d="M 29.95,7.96 L 29.06,7.52 L 28.91,7.52 L 27.05,8.45 L 27.01,8.52 L 28.02,9.00 L 29.95,8.04 Z" fill="#75766e" stroke="none" /><path d="M 26.01,7.00 L 26.01,7.03 L 26.98,7.52 L 27.98,7.03 L 27.94,6.96 L 27.05,6.51 L 26.94,6.51 Z" fill="#75766e" stroke="none" /><path d="M 22.96,3.46 L 22.07,3.01 L 21.95,3.01 L 21.06,3.46 L 21.02,3.53 L 21.88,3.94 L 21.92,4.02 L 20.06,4.95 L 20.02,5.02 L 21.02,5.51 L 22.96,4.54 L 22.96,4.47 L 22.07,4.02 L 22.10,3.94 L 22.96,3.53 Z" fill="#75766e" stroke="none" /><path d="M 19.01,2.49 L 19.01,2.53 L 19.98,3.01 L 20.99,2.53 L 20.95,2.46 L 20.06,2.01 L 19.94,2.01 Z" fill="#75766e" stroke="none" /><path d="M 23.03,11.46 L 23.03,11.53 L 23.93,11.98 L 24.07,11.98 L 24.97,11.53 L 24.97,11.46 L 24.07,11.01 L 23.93,11.01 Z" fill="#838179" stroke="none" /><path d="M 0.00,10.46 L 0.00,11.68 L 1.00,12.17 L 1.00,10.94 Z" fill="#838179" stroke="none" /><path d="M 0.00,8.00 L 0.00,9.23 L 0.93,9.71 L 1.00,9.71 L 1.00,8.48 Z" fill="#838179" stroke="none" /><path d="M 21.99,3.98 L 21.99,4.02 L 29.95,8.00 L 25.04,10.46 L 25.00,10.53 L 26.01,11.01 L 31.00,8.52 L 31.00,8.48 L 30.03,8.00 L 31.00,7.52 L 31.00,7.48 L 23.03,3.50 L 22.96,3.50 Z" fill="#838179" stroke="none" /><path d="M 20.02,2.98 L 20.06,3.05 L 20.95,3.50 L 21.06,3.50 L 21.99,3.01 L 21.99,2.98 L 21.02,2.49 Z" fill="#838179" stroke="none" /></svg>