<svg height="32" width="32" viewBox="0 0 32 32"><defs /><path d="M 24.18,12.40 L 23.13,12.91 L 23.13,14.27 L 23.21,14.27 L 24.18,13.76 Z" fill="#090606" stroke="none" /><path d="M 15.40,27.41 L 15.32,27.41 L 14.27,27.96 L 14.27,29.24 L 14.35,29.24 L 15.40,28.70 Z" fill="#0c070b" stroke="none" /><path d="M 13.18,25.82 L 13.10,25.82 L 12.09,26.32 L 12.09,27.68 L 13.18,27.14 Z" fill="#0c070b" stroke="none" /><path d="M 10.96,25.78 L 10.96,27.14 L 11.00,27.14 L 11.00,25.78 Z" fill="#0c070b" stroke="none" /><path d="M 19.79,23.83 L 17.61,24.92 L 17.61,26.28 L 19.79,25.20 Z" fill="#0c070b" stroke="none" /><path d="M 23.13,22.43 L 23.06,22.43 L 22.05,22.94 L 22.05,24.26 L 23.13,23.72 Z" fill="#0c070b" stroke="none" /><path d="M 18.70,18.97 L 17.61,19.52 L 17.61,20.84 L 17.69,20.84 L 18.70,20.34 Z" fill="#0c070b" stroke="none" /><path d="M 24.18,17.85 L 24.11,17.85 L 23.13,18.35 L 23.13,21.04 L 23.21,21.04 L 24.18,20.53 Z" fill="#0c070b" stroke="none" /><path d="M 22.05,17.54 L 20.92,18.08 L 20.92,19.44 L 20.88,19.48 L 20.88,22.16 L 20.92,22.16 L 20.92,19.48 L 22.05,18.90 Z" fill="#0c070b" stroke="none" /><path d="M 24.18,13.76 L 23.13,14.27 L 23.13,15.63 L 24.18,15.13 Z" fill="#0c070b" stroke="none" /><path d="M 24.18,11.04 L 23.13,11.55 L 23.13,12.91 L 23.21,12.91 L 24.18,12.40 Z" fill="#0c070b" stroke="none" /><path d="M 24.18,5.68 L 23.13,6.18 L 23.13,7.50 L 24.18,7.00 Z" fill="#0c070b" stroke="none" /><path d="M 11.00,27.14 L 10.96,27.14 L 10.96,28.46 L 10.89,28.54 L 7.66,30.13 L 7.66,31.46 L 11.00,29.78 Z" fill="#0f0d0b" stroke="none" /><path d="M 22.05,22.98 L 21.97,22.98 L 20.88,23.52 L 20.88,24.61 L 20.80,24.69 L 17.69,26.25 L 17.61,26.21 L 17.61,24.92 L 14.35,26.56 L 14.27,26.52 L 14.27,25.27 L 14.19,25.27 L 13.18,25.78 L 13.18,27.10 L 13.10,27.18 L 12.09,27.68 L 12.09,30.33 L 12.17,30.33 L 14.27,29.28 L 14.27,28.00 L 14.35,27.92 L 15.36,27.41 L 15.40,27.45 L 15.40,28.70 L 15.44,28.70 L 20.88,25.97 L 20.88,24.88 L 20.96,24.81 L 22.05,24.26 Z" fill="#0f0d0b" stroke="none" /><path d="M 15.40,20.65 L 15.32,20.65 L 14.27,21.19 L 14.27,22.51 L 14.35,22.51 L 15.40,21.97 Z" fill="#0f0d0b" stroke="none" /><path d="M 20.88,20.61 L 20.80,20.61 L 19.79,21.11 L 19.79,22.47 L 19.87,22.47 L 20.88,21.97 Z" fill="#0f0d0b" stroke="none" /><path d="M 24.18,20.53 L 23.13,21.04 L 23.13,23.72 L 24.18,23.21 Z" fill="#0f0d0b" stroke="none" /><path d="M 20.88,16.76 L 20.88,19.48 L 20.92,19.48 L 20.92,16.76 Z" fill="#0f0d0b" stroke="none" /><path d="M 16.49,16.02 L 15.40,16.56 L 15.40,17.89 L 14.27,18.47 L 14.27,19.83 L 16.49,18.74 Z" fill="#0f0d0b" stroke="none" /><path d="M 24.18,15.13 L 24.11,15.13 L 23.13,15.63 L 23.13,18.35 L 24.18,17.85 Z" fill="#0f0d0b" stroke="none" /><path d="M 13.18,13.61 L 12.09,14.15 L 12.09,15.48 L 12.17,15.48 L 13.18,14.97 Z" fill="#0f0d0b" stroke="none" /><path d="M 10.96,13.57 L 10.96,14.93 L 11.00,14.93 L 11.00,13.57 Z" fill="#0f0d0b" stroke="none" /><path d="M 17.61,12.75 L 17.54,12.75 L 16.49,13.30 L 16.49,14.66 L 17.61,14.11 Z" fill="#0f0d0b" stroke="none" /><path d="M 15.40,12.52 L 15.32,12.52 L 14.27,13.06 L 14.27,14.39 L 14.35,14.39 L 15.40,13.84 Z" fill="#0f0d0b" stroke="none" /><path d="M 23.13,10.23 L 22.05,10.77 L 22.05,12.09 L 20.92,12.68 L 20.92,13.80 L 19.79,14.35 L 19.79,17.03 L 19.71,17.11 L 17.65,18.12 L 17.61,18.16 L 17.61,19.48 L 17.54,19.56 L 16.49,20.06 L 16.49,21.42 L 17.57,20.88 L 17.61,20.92 L 17.61,23.56 L 17.69,23.56 L 18.70,23.06 L 18.70,20.34 L 18.62,20.34 L 17.65,20.84 L 17.61,20.80 L 17.61,19.56 L 17.69,19.48 L 19.79,18.43 L 19.79,17.11 L 19.87,17.03 L 20.88,16.52 L 20.88,15.44 L 22.05,14.85 L 22.05,13.49 L 23.13,12.95 Z" fill="#0f0d0b" stroke="none" /><path d="M 17.61,8.67 L 16.49,9.22 L 16.49,10.58 L 16.56,10.58 L 17.61,10.03 Z" fill="#0f0d0b" stroke="none" /><path d="M 20.88,8.63 L 20.88,9.99 L 20.92,9.99 L 20.92,8.63 Z" fill="#0f0d0b" stroke="none" /><path d="M 23.13,6.22 L 23.06,6.22 L 22.05,6.73 L 22.05,9.41 L 23.13,8.87 Z" fill="#0f0d0b" stroke="none" /><path d="M 4.39,28.23 L 4.39,29.59 L 6.53,30.68 L 6.61,30.68 L 6.61,29.32 Z" fill="#140c11" stroke="none" /><path d="M 1.09,27.96 L 1.09,29.24 L 2.18,29.78 L 2.18,28.46 L 1.17,27.96 Z" fill="#140c11" stroke="none" /><path d="M 4.39,22.82 L 4.39,24.18 L 5.52,24.73 L 5.52,23.37 L 4.47,22.82 Z" fill="#140c11" stroke="none" /><path d="M 11.00,28.50 L 11.00,29.82 L 12.01,30.33 L 12.09,30.33 L 12.09,29.04 Z" fill="#191612" stroke="none" /><path d="M 0.00,24.69 L 0.00,26.05 L 1.09,26.60 L 1.09,27.88 L 1.05,27.92 L 0.08,27.41 L 0.00,27.41 L 0.00,28.70 L 1.09,29.24 L 1.09,28.00 L 1.13,27.96 L 2.18,28.50 L 2.18,29.78 L 2.22,29.82 L 6.61,32.00 L 6.61,30.68 L 4.47,29.63 L 4.39,29.55 L 4.39,28.23 L 1.13,26.60 L 1.09,26.56 L 1.09,25.20 L 0.08,24.69 Z" fill="#191612" stroke="none" /><path d="M 11.00,24.46 L 11.00,25.82 L 12.01,26.32 L 12.09,26.32 L 12.09,24.96 L 11.08,24.46 Z" fill="#191612" stroke="none" /><path d="M 4.39,21.46 L 4.39,22.75 L 4.35,22.78 L 3.38,22.28 L 3.30,22.28 L 3.30,23.64 L 4.39,24.18 L 4.39,26.87 L 5.44,27.41 L 5.52,27.41 L 5.52,24.73 L 4.39,24.15 L 4.39,22.86 L 4.43,22.82 L 6.61,23.91 L 6.61,22.55 Z" fill="#191612" stroke="none" /><path d="M 1.09,21.15 L 1.09,22.51 L 2.18,23.06 L 2.18,21.70 Z" fill="#191612" stroke="none" /><path d="M 11.00,17.69 L 11.00,20.37 L 12.09,20.92 L 12.09,18.20 L 11.08,17.69 Z" fill="#191612" stroke="none" /><path d="M 2.18,17.65 L 2.18,18.94 L 2.14,18.97 L 1.17,18.47 L 1.09,18.47 L 1.09,19.83 L 3.30,20.92 L 3.30,18.20 L 2.26,17.65 Z" fill="#191612" stroke="none" /><path d="M 3.30,15.51 L 3.30,16.87 L 4.32,17.38 L 4.39,17.38 L 4.39,16.02 L 3.38,15.51 Z" fill="#191612" stroke="none" /><path d="M 1.09,13.03 L 1.09,14.39 L 2.18,14.93 L 2.18,13.57 Z" fill="#191612" stroke="none" /><path d="M 7.70,9.25 L 7.70,10.61 L 8.71,11.12 L 8.79,11.12 L 8.79,9.76 L 7.78,9.25 Z" fill="#191612" stroke="none" /><path d="M 10.96,27.14 L 9.88,27.68 L 9.88,29.04 L 10.96,28.50 Z" fill="#131115" stroke="none" /><path d="M 10.96,23.10 L 10.89,23.10 L 9.88,23.60 L 9.88,24.96 L 8.83,25.51 L 8.75,25.47 L 8.75,24.18 L 7.66,24.73 L 7.66,26.09 L 8.71,25.58 L 8.75,25.62 L 8.75,26.87 L 8.67,26.95 L 7.66,27.45 L 7.66,30.13 L 6.61,30.68 L 6.61,31.96 L 6.69,31.96 L 7.66,31.46 L 7.66,30.17 L 8.75,29.63 L 8.75,26.95 L 8.83,26.87 L 11.00,25.78 L 11.00,24.42 L 10.96,24.38 Z" fill="#131115" stroke="none" /><path d="M 23.13,21.07 L 23.06,21.07 L 22.05,21.58 L 22.05,22.94 L 22.12,22.94 L 23.13,22.43 Z" fill="#131115" stroke="none" /><path d="M 9.88,20.92 L 8.75,21.46 L 8.75,22.82 L 9.88,22.28 Z" fill="#131115" stroke="none" /><path d="M 13.18,19.01 L 12.09,19.56 L 12.09,22.28 L 13.18,21.74 Z" fill="#131115" stroke="none" /><path d="M 10.96,19.01 L 10.96,21.70 L 11.00,21.70 L 11.00,19.01 Z" fill="#131115" stroke="none" /><path d="M 17.61,18.16 L 16.49,18.70 L 16.49,20.06 L 15.40,20.61 L 15.40,21.93 L 15.32,22.01 L 13.18,23.06 L 13.18,24.42 L 12.09,24.96 L 12.09,26.32 L 12.17,26.32 L 14.23,25.27 L 14.27,25.31 L 14.27,26.56 L 14.19,26.63 L 13.18,27.14 L 13.18,28.50 L 14.27,27.96 L 14.27,26.63 L 14.35,26.56 L 16.49,25.51 L 16.49,22.82 L 16.56,22.75 L 17.61,22.24 L 17.61,20.88 L 17.54,20.88 L 16.52,21.39 L 16.49,21.35 L 16.49,20.10 L 17.61,19.52 Z" fill="#131115" stroke="none" /><path d="M 23.13,16.99 L 22.05,17.54 L 22.05,18.86 L 21.97,18.94 L 20.96,19.44 L 20.88,19.40 L 20.88,19.25 L 20.80,19.25 L 19.79,19.75 L 19.79,21.11 L 18.70,21.66 L 18.70,23.02 L 17.61,23.56 L 17.61,24.92 L 19.71,23.87 L 19.79,23.91 L 19.79,25.20 L 20.88,24.65 L 20.88,23.56 L 20.92,23.52 L 20.92,22.16 L 20.88,22.16 L 20.88,23.25 L 20.80,23.33 L 19.83,23.80 L 19.79,23.76 L 19.79,21.15 L 20.84,20.61 L 20.92,20.65 L 20.92,20.80 L 21.00,20.80 L 23.13,19.71 Z" fill="#131115" stroke="none" /><path d="M 8.71,16.06 L 7.66,16.60 L 7.66,17.96 L 8.67,17.46 L 8.75,17.50 L 8.75,20.10 L 8.83,20.10 L 9.88,19.56 L 9.88,16.87 L 9.80,16.87 L 8.79,17.38 L 8.75,17.34 L 8.75,16.06 Z" fill="#131115" stroke="none" /><path d="M 9.84,12.83 L 8.75,13.38 L 8.75,14.70 L 9.84,14.15 L 9.88,14.19 L 9.88,15.48 L 9.95,15.48 L 10.96,14.97 L 10.96,13.61 L 10.89,13.61 L 9.91,14.11 L 9.88,14.08 L 9.88,12.83 Z" fill="#131115" stroke="none" /><path d="M 20.92,11.35 L 20.88,11.35 L 20.88,16.49 L 20.80,16.56 L 19.83,17.03 L 19.79,16.99 L 19.79,15.71 L 18.70,16.25 L 18.70,17.61 L 19.75,17.11 L 19.79,17.15 L 19.79,18.43 L 20.84,17.92 L 20.88,17.89 L 20.88,16.80 L 20.96,16.72 L 22.05,16.17 L 22.05,14.85 L 21.97,14.85 L 21.00,15.36 L 20.92,15.32 Z" fill="#131115" stroke="none" /><path d="M 24.18,7.00 L 24.11,7.00 L 23.13,7.50 L 23.13,8.83 L 23.06,8.90 L 22.12,9.37 L 22.05,9.33 L 22.05,8.05 L 20.96,8.59 L 20.92,8.55 L 20.92,7.31 L 20.88,7.31 L 20.88,8.63 L 20.92,8.67 L 20.92,9.72 L 19.87,10.26 L 19.79,10.23 L 19.79,8.94 L 18.78,9.45 L 18.70,9.41 L 18.70,6.77 L 16.49,7.85 L 16.49,9.22 L 15.44,9.76 L 15.40,9.72 L 15.40,8.44 L 15.32,8.44 L 14.31,8.94 L 14.27,8.98 L 14.27,10.30 L 14.19,10.38 L 13.18,10.89 L 13.18,14.93 L 13.26,14.93 L 14.27,14.43 L 14.27,13.10 L 14.35,13.03 L 15.36,12.52 L 15.40,12.56 L 15.40,15.16 L 15.32,15.24 L 13.18,16.29 L 13.18,17.65 L 13.26,17.65 L 14.23,17.15 L 14.27,17.19 L 14.27,18.47 L 15.40,17.92 L 15.40,15.24 L 15.48,15.16 L 16.49,14.66 L 16.49,11.98 L 16.41,11.98 L 15.44,12.48 L 15.40,12.44 L 15.40,11.16 L 16.49,10.61 L 16.49,9.25 L 16.52,9.22 L 17.54,8.71 L 17.61,8.75 L 17.61,15.44 L 17.69,15.44 L 19.79,14.39 L 19.79,13.03 L 19.71,13.03 L 18.74,13.53 L 18.70,13.49 L 18.70,10.89 L 18.78,10.81 L 19.75,10.34 L 19.79,10.38 L 19.79,11.63 L 19.87,11.63 L 20.88,11.12 L 20.88,9.99 L 22.01,9.45 L 22.05,9.49 L 22.05,10.77 L 23.10,10.26 L 23.13,10.30 L 23.13,11.55 L 23.21,11.55 L 24.18,11.04 Z" fill="#131115" stroke="none" /><path d="M 20.88,5.68 L 19.79,6.22 L 19.79,7.58 L 20.88,7.04 Z" fill="#131115" stroke="none" /><path d="M 20.96,5.09 L 20.96,5.13 L 21.97,5.64 L 22.12,5.64 L 23.06,5.17 L 23.06,5.09 L 22.05,4.59 L 21.93,4.59 Z" fill="#1f121b" stroke="none" /><path d="M 12.13,2.14 L 12.13,2.22 L 13.14,2.72 L 13.26,2.72 L 14.27,2.22 L 14.27,2.14 L 13.26,1.63 L 13.14,1.63 Z" fill="#1f121b" stroke="none" /><path d="M 7.66,28.81 L 7.58,28.81 L 6.61,29.32 L 6.61,30.68 L 7.66,30.17 Z" fill="#18161c" stroke="none" /><path d="M 17.61,22.24 L 17.54,22.24 L 16.52,22.75 L 16.49,22.71 L 16.49,21.42 L 15.44,21.93 L 15.40,21.97 L 15.40,23.29 L 15.32,23.37 L 14.27,23.87 L 14.27,25.23 L 14.35,25.23 L 15.40,24.69 L 15.40,23.37 L 15.48,23.29 L 16.41,22.82 L 16.49,22.86 L 16.49,25.47 L 16.56,25.47 L 17.57,24.96 L 17.61,24.92 Z" fill="#18161c" stroke="none" /><path d="M 23.13,19.71 L 20.92,20.80 L 20.92,21.93 L 19.79,22.47 L 19.79,23.83 L 20.88,23.29 L 20.92,23.33 L 20.92,23.52 L 20.96,23.52 L 22.05,22.98 L 22.05,21.62 L 23.13,21.07 Z" fill="#18161c" stroke="none" /><path d="M 9.88,19.56 L 8.75,20.10 L 8.75,21.46 L 8.71,21.50 L 6.61,22.55 L 6.61,23.87 L 6.69,23.87 L 7.62,23.41 L 7.66,23.45 L 7.66,24.73 L 8.67,24.22 L 8.75,24.26 L 8.75,25.51 L 8.67,25.58 L 7.66,26.09 L 7.66,27.45 L 8.67,26.95 L 8.75,26.98 L 8.75,29.59 L 8.83,29.59 L 9.88,29.04 L 9.88,27.72 L 9.95,27.65 L 10.96,27.14 L 10.96,25.82 L 10.89,25.82 L 8.83,26.87 L 8.75,26.83 L 8.75,25.58 L 8.83,25.51 L 9.88,25.00 L 9.88,23.64 L 10.93,23.10 L 10.96,23.13 L 10.96,24.42 L 11.00,24.42 L 11.00,21.70 L 10.96,21.66 L 10.96,20.37 L 9.91,20.88 L 9.88,20.84 Z" fill="#18161c" stroke="none" /><path d="M 8.75,17.42 L 6.61,18.47 L 6.61,21.19 L 7.66,20.69 L 7.66,19.32 L 8.75,18.78 Z" fill="#18161c" stroke="none" /><path d="M 10.96,14.93 L 10.96,16.29 L 9.88,16.84 L 9.88,18.20 L 10.93,17.69 L 10.96,17.73 L 10.96,19.01 L 11.00,19.01 L 11.00,14.93 Z" fill="#18161c" stroke="none" /><path d="M 23.13,12.95 L 23.06,12.95 L 22.05,13.45 L 22.05,16.14 L 21.97,16.21 L 20.92,16.72 L 20.92,17.85 L 18.70,18.97 L 18.70,21.66 L 18.78,21.66 L 19.79,21.15 L 19.79,19.79 L 20.88,19.25 L 20.88,18.12 L 23.13,16.99 Z" fill="#18161c" stroke="none" /><path d="M 11.00,12.29 L 10.93,12.29 L 9.88,12.83 L 9.88,14.11 L 8.75,14.70 L 8.75,16.06 L 9.88,15.51 L 9.88,14.15 L 11.00,13.57 Z" fill="#18161c" stroke="none" /><path d="M 17.61,10.03 L 15.40,11.12 L 15.40,12.48 L 15.48,12.48 L 16.45,11.98 L 16.49,12.01 L 16.49,13.30 L 17.61,12.75 Z" fill="#18161c" stroke="none" /><path d="M 13.18,9.53 L 12.09,10.07 L 12.09,14.15 L 13.18,13.61 Z" fill="#18161c" stroke="none" /><path d="M 15.32,7.15 L 14.27,7.70 L 14.27,8.98 L 15.36,8.44 L 15.40,8.48 L 15.40,9.76 L 15.48,9.76 L 16.49,9.25 L 16.49,7.89 L 16.41,7.89 L 15.44,8.40 L 15.40,8.36 L 15.40,7.15 Z" fill="#18161c" stroke="none" /><path d="M 22.05,6.77 L 21.97,6.77 L 20.96,7.27 L 20.92,7.31 L 20.92,8.36 L 19.83,8.90 L 19.79,8.87 L 19.79,6.22 L 18.74,6.73 L 18.70,6.69 L 18.70,5.48 L 17.61,6.03 L 17.61,7.31 L 18.62,6.80 L 18.70,6.84 L 18.70,9.49 L 19.71,8.98 L 19.79,9.02 L 19.79,10.26 L 19.71,10.34 L 18.70,10.85 L 18.70,13.53 L 18.78,13.53 L 19.75,13.03 L 19.79,13.06 L 19.79,14.35 L 19.75,14.39 L 17.65,15.44 L 17.61,15.40 L 17.61,14.11 L 17.54,14.11 L 15.44,15.16 L 15.40,15.13 L 15.40,13.84 L 15.36,13.84 L 12.09,15.48 L 12.09,19.56 L 13.14,19.05 L 13.18,19.09 L 13.18,20.37 L 14.19,19.87 L 14.27,19.91 L 14.27,21.15 L 14.19,21.23 L 12.09,22.28 L 12.09,24.96 L 12.17,24.96 L 13.18,24.46 L 13.18,23.10 L 14.27,22.55 L 14.27,21.23 L 14.35,21.15 L 16.49,20.10 L 16.49,18.74 L 18.70,17.61 L 18.70,16.29 L 18.78,16.21 L 19.79,15.71 L 19.79,14.39 L 20.88,13.84 L 20.88,12.71 L 22.05,12.13 L 22.05,9.41 L 22.01,9.41 L 20.88,9.99 L 20.88,11.35 L 20.92,11.39 L 20.92,12.44 L 19.83,12.99 L 19.79,12.95 L 19.79,10.34 L 19.87,10.26 L 20.88,9.76 L 20.88,8.63 L 22.05,8.05 Z" fill="#18161c" stroke="none" /><path d="M 8.83,11.20 L 8.83,11.24 L 9.88,11.74 L 9.88,11.70 Z" fill="#27221c" stroke="none" /><path d="M 4.39,11.16 L 4.39,11.24 L 5.40,11.74 L 5.52,11.74 L 6.53,11.24 L 6.53,11.16 L 5.52,10.65 L 5.40,10.65 Z" fill="#27221c" stroke="none" /><path d="M 11.04,8.20 L 11.04,8.28 L 12.05,8.79 L 12.13,8.79 L 13.14,8.28 L 13.14,8.20 L 12.13,7.70 L 12.05,7.70 Z" fill="#27221c" stroke="none" /><path d="M 8.83,7.12 L 8.87,7.19 L 9.88,7.70 L 9.95,7.70 L 10.96,7.19 L 10.96,7.12 L 9.95,6.61 L 9.84,6.61 Z" fill="#27221c" stroke="none" /><path d="M 7.70,5.48 L 7.70,5.52 L 8.71,6.03 L 8.87,6.03 L 9.88,5.52 L 9.88,5.48 L 8.79,4.94 Z" fill="#27221c" stroke="none" /><path d="M 11.00,4.94 L 11.00,4.98 L 12.01,5.48 L 12.17,5.48 L 13.14,4.98 L 13.26,4.98 L 14.23,5.48 L 14.39,5.48 L 15.40,4.98 L 15.36,4.90 L 13.26,3.85 L 13.14,3.85 Z" fill="#27221c" stroke="none" /><path d="M 15.44,3.81 L 15.48,3.89 L 16.49,4.39 L 16.56,4.39 L 17.61,3.85 L 17.61,3.81 L 16.60,3.30 L 16.45,3.30 Z" fill="#27221c" stroke="none" /><path d="M 17.26,2.53 L 17.30,2.61 L 20.88,4.39 L 20.88,7.31 L 20.96,7.31 L 22.01,6.77 L 22.01,6.73 L 21.00,6.22 L 21.07,6.14 L 22.01,5.68 L 22.09,5.68 L 23.06,6.18 L 23.21,6.18 L 24.15,5.72 L 24.15,5.64 L 23.13,5.13 L 23.06,5.13 L 22.09,5.64 L 22.01,5.64 L 21.07,5.17 L 21.00,5.09 L 21.93,4.63 L 21.97,4.55 L 17.61,2.37 Z" fill="#27221c" stroke="none" /><path d="M 9.84,2.14 L 8.83,1.63 L 8.75,1.63 L 6.57,2.72 L 6.57,2.76 L 7.58,3.27 L 7.74,3.27 L 9.84,2.22 Z" fill="#27221c" stroke="none" /><path d="M 15.40,2.76 L 15.36,2.68 L 14.35,2.18 L 15.36,1.67 L 15.36,1.59 L 14.35,1.09 L 14.23,1.09 L 13.22,1.59 L 13.26,1.67 L 14.27,2.18 L 13.22,2.72 L 11.04,1.63 L 10.93,1.63 L 9.91,2.14 L 9.91,2.22 L 12.01,3.27 L 12.17,3.27 L 13.14,2.76 L 13.26,2.76 L 14.23,3.27 L 14.39,3.27 Z" fill="#27221c" stroke="none" /><path d="M 7.66,23.37 L 6.61,23.87 L 6.61,29.32 L 7.66,28.81 Z" fill="#1f1e21" stroke="none" /><path d="M 9.88,22.28 L 9.80,22.28 L 8.75,22.82 L 8.75,24.18 L 9.88,23.64 Z" fill="#1f1e21" stroke="none" /><path d="M 14.27,19.83 L 13.18,20.37 L 13.18,21.74 L 14.27,21.19 Z" fill="#1f1e21" stroke="none" /><path d="M 8.75,18.78 L 8.67,18.78 L 7.66,19.29 L 7.66,20.65 L 6.61,21.19 L 6.61,22.55 L 8.75,21.50 Z" fill="#1f1e21" stroke="none" /><path d="M 10.96,17.65 L 9.88,18.20 L 9.88,20.92 L 10.96,20.37 Z" fill="#1f1e21" stroke="none" /><path d="M 17.61,15.48 L 17.54,15.48 L 16.49,16.02 L 16.49,17.34 L 16.56,17.34 L 17.61,16.80 Z" fill="#1f1e21" stroke="none" /><path d="M 10.96,14.97 L 10.89,14.97 L 8.79,16.02 L 8.75,15.98 L 8.75,13.41 L 8.67,13.41 L 6.65,14.43 L 6.61,14.46 L 6.61,18.47 L 6.69,18.47 L 7.66,17.96 L 7.66,16.64 L 7.74,16.56 L 8.67,16.10 L 8.75,16.14 L 8.75,17.42 L 10.96,16.33 Z" fill="#1f1e21" stroke="none" /><path d="M 20.88,11.12 L 20.80,11.12 L 19.79,11.63 L 19.79,12.99 L 19.87,12.99 L 20.88,12.48 Z" fill="#1f1e21" stroke="none" /><path d="M 14.27,7.70 L 12.09,8.79 L 12.09,10.07 L 13.14,9.57 L 13.18,9.60 L 13.18,10.89 L 14.27,10.34 Z" fill="#1f1e21" stroke="none" /><path d="M 20.88,7.04 L 19.79,7.58 L 19.79,8.94 L 20.88,8.40 Z" fill="#1f1e21" stroke="none" /><path d="M 17.61,6.03 L 15.40,7.12 L 15.40,8.40 L 15.48,8.40 L 17.61,7.31 Z" fill="#1f1e21" stroke="none" /><path d="M 20.88,4.39 L 18.70,5.48 L 18.70,6.77 L 20.88,5.68 Z" fill="#1f1e21" stroke="none" /><path d="M 11.00,27.14 L 11.00,28.50 L 12.09,29.04 L 12.09,27.68 Z" fill="#1f1c23" stroke="none" /><path d="M 5.52,26.09 L 5.52,27.37 L 5.48,27.41 L 4.39,26.87 L 4.39,28.23 L 6.53,29.32 L 6.61,29.32 L 6.61,26.63 Z" fill="#1f1c23" stroke="none" /><path d="M 11.00,23.10 L 11.00,24.46 L 12.01,24.96 L 12.09,24.96 L 12.09,23.60 L 11.08,23.10 Z" fill="#1f1c23" stroke="none" /><path d="M 3.34,20.92 L 3.30,20.92 L 3.30,22.20 L 3.27,22.24 L 2.18,21.70 L 2.18,22.98 L 2.14,23.02 L 0.00,21.97 L 0.00,24.69 L 1.09,25.23 L 1.09,26.52 L 1.05,26.56 L 0.08,26.05 L 0.00,26.05 L 0.00,27.41 L 1.01,27.92 L 1.09,27.92 L 1.09,26.63 L 1.13,26.60 L 3.30,27.68 L 3.30,25.04 L 3.34,25.00 L 4.32,25.51 L 4.39,25.51 L 4.39,24.15 L 3.30,23.60 L 3.30,22.32 L 3.34,22.28 L 4.32,22.78 L 4.39,22.78 L 4.39,21.46 Z" fill="#1f1c23" stroke="none" /><path d="M 5.52,20.69 L 5.52,22.05 L 6.53,22.55 L 6.61,22.55 L 6.61,21.19 L 5.60,20.69 Z" fill="#1f1c23" stroke="none" /><path d="M 11.00,20.37 L 11.00,21.74 L 12.09,22.28 L 12.09,20.92 Z" fill="#1f1c23" stroke="none" /><path d="M 11.00,13.61 L 11.00,14.97 L 12.01,15.48 L 12.09,15.48 L 12.09,14.15 Z" fill="#1f1c23" stroke="none" /><path d="M 4.39,13.38 L 4.39,18.74 L 6.53,19.83 L 6.61,19.83 L 6.61,18.51 L 5.60,18.00 L 5.52,17.92 L 5.52,15.32 L 5.60,15.28 L 6.61,15.79 L 6.61,14.46 Z" fill="#1f1c23" stroke="none" /><path d="M 0.00,11.20 L 0.00,13.84 L 1.09,14.39 L 1.09,13.10 L 1.13,13.06 L 2.10,13.53 L 2.18,13.61 L 2.18,16.21 L 2.14,16.25 L 0.00,15.20 L 0.00,16.56 L 1.09,17.11 L 1.09,18.47 L 2.10,18.97 L 2.18,18.97 L 2.18,16.37 L 2.26,16.33 L 3.23,16.84 L 3.30,16.84 L 3.30,14.11 L 2.26,13.61 L 2.18,13.53 L 2.18,12.25 L 0.08,11.20 Z" fill="#1f1c23" stroke="none" /><path d="M 11.00,9.53 L 11.00,10.89 L 12.09,11.43 L 12.09,10.07 Z" fill="#1f1c23" stroke="none" /><path d="M 4.39,7.58 L 4.39,8.98 L 4.43,9.02 L 6.53,10.07 L 6.65,10.07 L 7.62,10.58 L 7.70,10.58 L 7.70,9.29 L 7.74,9.25 L 8.79,9.80 L 8.79,11.20 L 11.00,12.29 L 10.96,12.21 L 9.99,11.74 L 9.91,11.66 L 9.91,8.98 L 9.88,8.94 L 7.78,7.89 L 7.70,7.89 L 7.70,9.18 L 7.66,9.22 L 6.65,8.71 L 6.57,8.63 L 6.57,7.31 L 5.52,6.77 L 5.48,6.77 L 5.48,8.05 L 5.44,8.09 Z" fill="#1f1c23" stroke="none" /><path d="M 11.00,25.82 L 11.00,27.14 L 12.09,27.68 L 12.09,26.32 L 11.08,25.82 Z" fill="#26252e" stroke="none" /><path d="M 5.52,23.37 L 5.52,26.09 L 6.61,26.63 L 6.61,23.91 Z" fill="#26252e" stroke="none" /><path d="M 2.18,23.06 L 2.18,24.34 L 2.14,24.38 L 1.09,23.87 L 1.09,25.23 L 2.10,25.74 L 2.18,25.74 L 2.18,24.50 L 2.22,24.46 L 3.27,24.96 L 3.30,25.00 L 3.30,27.68 L 4.39,28.23 L 4.39,25.51 L 3.30,24.96 L 3.30,23.60 Z" fill="#26252e" stroke="none" /><path d="M 11.00,21.74 L 11.00,23.10 L 12.01,23.60 L 12.09,23.60 L 12.09,22.28 Z" fill="#26252e" stroke="none" /><path d="M 11.00,16.33 L 11.00,17.69 L 12.01,18.20 L 12.09,18.20 L 12.09,16.84 L 11.08,16.33 Z" fill="#26252e" stroke="none" /><path d="M 5.52,15.24 L 5.52,17.96 L 6.61,18.51 L 6.61,15.79 Z" fill="#26252e" stroke="none" /><path d="M 0.00,13.84 L 0.00,15.20 L 2.10,16.25 L 2.18,16.33 L 2.18,17.65 L 4.32,18.70 L 4.39,18.78 L 4.39,20.02 L 4.35,20.06 L 3.30,19.56 L 3.30,20.84 L 3.27,20.88 L 1.13,19.83 L 1.09,19.79 L 1.09,17.07 L 0.08,16.56 L 0.00,16.56 L 0.00,19.29 L 1.09,19.83 L 1.09,21.07 L 1.05,21.11 L 0.00,20.61 L 0.00,21.97 L 1.09,22.51 L 1.09,21.23 L 1.17,21.19 L 3.23,22.24 L 3.30,22.24 L 3.30,21.00 L 3.38,20.96 L 5.44,22.01 L 5.52,22.01 L 5.52,20.72 L 5.56,20.69 L 6.53,21.19 L 6.61,21.19 L 6.61,19.83 L 4.47,18.78 L 4.39,18.70 L 4.39,17.38 L 2.26,16.33 L 2.18,16.25 L 2.18,14.93 Z" fill="#26252e" stroke="none" /><path d="M 2.18,12.29 L 2.18,13.57 L 3.30,14.15 L 3.30,15.51 L 4.32,16.02 L 4.39,16.02 L 4.39,13.38 L 2.26,12.29 Z" fill="#26252e" stroke="none" /><path d="M 6.57,10.03 L 6.61,10.11 L 8.71,11.16 L 8.79,11.16 L 8.79,11.12 Z" fill="#26252e" stroke="none" /><path d="M 8.79,7.15 L 8.79,8.44 L 9.84,8.94 L 9.91,9.02 L 9.91,11.70 L 10.93,12.21 L 11.00,12.29 L 11.00,13.61 L 12.09,14.15 L 12.09,12.79 L 11.08,12.29 L 11.00,12.21 L 11.00,9.53 L 9.99,9.02 L 9.91,8.94 L 9.91,7.70 L 8.87,7.15 Z" fill="#26252e" stroke="none" /><path d="M 3.30,5.68 L 3.30,9.53 L 3.34,9.53 L 4.39,8.98 L 4.39,6.22 Z" fill="#26252e" stroke="none" /><path d="M 5.48,5.48 L 5.48,6.77 L 6.49,7.27 L 6.57,7.35 L 6.57,8.67 L 7.62,9.22 L 7.70,9.22 L 7.70,7.85 L 6.65,7.35 L 6.57,7.27 L 6.57,6.03 Z" fill="#26252e" stroke="none" /><path d="M 2.18,11.16 L 2.18,11.24 L 4.28,12.29 L 4.43,12.29 L 5.40,11.78 L 5.52,11.78 L 6.45,12.25 L 6.49,12.29 L 6.42,12.36 L 5.44,12.83 L 5.44,12.87 L 6.53,13.41 L 7.62,12.87 L 7.70,12.87 L 8.67,13.38 L 8.83,13.38 L 10.96,12.29 L 10.96,12.25 L 9.95,11.74 L 9.88,11.74 L 7.78,10.65 L 7.74,10.65 L 7.74,10.69 L 8.63,11.12 L 8.71,11.20 L 7.66,11.74 L 6.61,11.20 L 6.53,11.20 L 5.48,11.74 L 4.43,11.24 L 4.39,11.20 L 4.43,11.16 L 6.57,10.11 L 6.57,10.07 L 4.39,8.98 L 3.27,9.53 L 3.27,9.57 L 4.24,10.03 L 4.28,10.07 L 4.24,10.15 Z" fill="#302b35" stroke="none" /><path d="M 9.95,7.66 L 9.95,7.74 L 10.96,8.24 L 11.04,8.24 L 12.05,7.74 L 12.05,7.66 L 11.04,7.15 L 10.96,7.15 Z" fill="#302b35" stroke="none" /><path d="M 20.88,6.18 L 20.88,6.22 L 20.96,6.22 L 22.01,6.77 L 23.13,6.22 L 23.13,6.18 L 22.12,5.68 L 21.97,5.68 L 21.00,6.18 Z" fill="#302b35" stroke="none" /><path d="M 18.66,5.44 L 17.65,4.94 L 17.57,4.94 L 15.40,6.03 L 15.40,6.07 L 16.41,6.57 L 16.56,6.57 L 18.66,5.52 Z" fill="#302b35" stroke="none" /><path d="M 14.31,5.48 L 13.18,4.94 L 11.04,6.03 L 10.93,6.03 L 9.95,5.52 L 9.80,5.52 L 7.70,6.57 L 7.70,6.61 L 8.83,7.15 L 11.00,6.07 L 13.14,7.15 L 13.22,7.15 L 14.27,6.61 L 14.27,6.57 L 13.26,6.07 L 13.34,5.99 L 14.31,5.52 Z" fill="#302b35" stroke="none" /><path d="M 3.30,4.35 L 3.34,4.43 L 4.35,4.94 L 5.44,4.39 L 5.44,4.35 L 4.43,3.85 L 4.32,3.85 Z" fill="#302b35" stroke="none" /><path d="M 9.84,4.35 L 7.74,3.30 L 7.58,3.30 L 6.57,3.81 L 6.57,3.85 L 7.62,4.39 L 5.52,5.44 L 5.52,5.52 L 6.53,6.03 L 6.65,6.03 L 9.84,4.43 Z" fill="#302b35" stroke="none" /><path d="M 12.09,3.27 L 12.09,3.30 L 13.18,3.85 L 14.27,3.30 L 14.35,3.30 L 15.40,3.85 L 16.49,3.30 L 16.56,3.30 L 18.70,4.39 L 19.79,3.85 L 19.79,3.81 L 17.69,2.76 L 17.54,2.76 L 16.56,3.27 L 16.49,3.27 L 15.55,2.80 L 15.48,2.72 L 15.51,2.68 L 16.49,2.22 L 16.49,2.18 L 15.44,1.63 L 15.36,1.63 L 14.35,2.14 L 14.35,2.22 L 15.36,2.72 L 15.28,2.80 L 14.35,3.27 L 14.27,3.27 L 13.22,2.72 Z" fill="#302b35" stroke="none" /><path d="M 9.84,1.09 L 8.83,1.59 L 8.83,1.67 L 9.84,2.18 L 8.83,2.68 L 8.79,2.76 L 9.80,3.27 L 9.95,3.27 L 10.96,2.76 L 10.93,2.68 L 9.91,2.18 L 10.93,1.67 L 10.96,1.59 L 9.95,1.09 Z" fill="#302b35" stroke="none" /><path d="M 11.00,0.51 L 11.00,0.54 L 12.01,1.05 L 12.17,1.05 L 13.18,0.54 L 13.18,0.51 L 12.17,0.00 L 12.01,0.00 Z" fill="#302b35" stroke="none" /><path d="M 0.00,19.29 L 0.00,20.61 L 1.09,21.15 L 1.09,19.79 L 0.08,19.29 Z" fill="#323036" stroke="none" /><path d="M 3.30,18.20 L 3.30,19.56 L 4.39,20.10 L 4.39,18.74 Z" fill="#323036" stroke="none" /><path d="M 11.00,14.97 L 11.00,16.33 L 12.01,16.84 L 12.09,16.84 L 12.09,15.48 L 11.08,14.97 Z" fill="#323036" stroke="none" /><path d="M 11.00,10.89 L 11.00,12.25 L 12.09,12.79 L 12.09,11.43 Z" fill="#323036" stroke="none" /><path d="M 9.91,7.70 L 9.91,8.98 L 12.09,10.07 L 12.09,8.79 Z" fill="#323036" stroke="none" /><path d="M 6.57,6.03 L 6.57,7.31 L 8.71,8.40 L 8.79,8.40 L 8.79,7.12 Z" fill="#323036" stroke="none" /><path d="M 3.30,4.39 L 3.30,5.68 L 4.32,6.18 L 4.39,6.26 L 4.39,7.58 L 5.48,8.13 L 5.48,5.48 Z" fill="#323036" stroke="none" /><path d="M 5.44,11.74 L 4.35,12.29 L 4.35,12.33 L 5.37,12.83 L 5.33,12.91 L 4.43,13.34 L 4.43,13.41 L 5.44,13.92 L 5.56,13.92 L 6.49,13.45 L 6.53,13.38 L 5.56,12.91 L 5.52,12.83 L 6.53,12.33 L 6.53,12.29 Z" fill="#3b3846" stroke="none" /><path d="M 5.48,10.61 L 5.52,10.69 L 7.62,11.74 L 7.70,11.74 L 8.75,11.20 L 8.75,11.16 L 7.78,10.69 L 7.70,10.61 L 6.61,10.07 Z" fill="#3b3846" stroke="none" /><path d="M 4.35,10.07 L 3.34,9.57 L 3.19,9.57 L 1.09,10.61 L 1.09,10.69 L 2.10,11.20 L 1.09,11.70 L 1.09,11.74 L 2.18,12.29 L 3.23,11.78 L 3.19,11.70 L 2.18,11.20 L 4.35,10.11 Z" fill="#3b3846" stroke="none" /><path d="M 4.39,8.98 L 4.39,9.02 L 5.44,9.53 L 5.44,9.49 Z" fill="#3b3846" stroke="none" /><path d="M 6.61,6.03 L 6.61,6.07 L 7.62,6.57 L 7.78,6.57 L 8.79,6.07 L 8.79,6.03 L 7.70,5.48 Z" fill="#3b3846" stroke="none" /><path d="M 16.56,4.35 L 16.56,4.43 L 18.66,5.48 L 18.74,5.48 L 20.88,4.39 L 20.88,4.35 L 19.87,3.85 L 19.75,3.85 L 18.78,4.35 L 18.66,4.35 L 17.69,3.85 L 17.57,3.85 Z" fill="#3b3846" stroke="none" /><path d="M 4.39,4.90 L 4.43,4.98 L 5.44,5.48 L 5.52,5.48 L 7.62,4.43 L 7.62,4.35 L 6.61,3.85 L 6.69,3.77 L 7.62,3.30 L 7.70,3.30 L 9.84,4.39 L 8.83,4.90 L 8.79,4.98 L 10.85,5.99 L 10.93,6.07 L 9.91,6.57 L 9.95,6.65 L 13.14,8.24 L 13.22,8.24 L 16.49,6.61 L 16.49,6.57 L 15.48,6.07 L 15.51,5.99 L 16.49,5.52 L 16.45,5.44 L 15.55,5.02 L 15.48,4.94 L 16.49,4.43 L 16.49,4.35 L 14.39,3.30 L 14.23,3.30 L 13.26,3.81 L 13.14,3.81 L 11.00,2.72 L 9.91,3.27 L 9.84,3.27 L 8.79,2.72 L 7.70,3.27 L 7.62,3.27 L 6.65,2.76 L 6.49,2.76 L 5.48,3.27 L 5.52,3.34 L 6.42,3.77 L 6.49,3.85 Z" fill="#3b3846" stroke="none" /><path d="M 15.44,2.72 L 15.44,2.76 L 16.45,3.27 L 16.60,3.27 L 17.61,2.76 L 17.61,2.72 L 16.52,2.18 Z" fill="#3b3846" stroke="none" /><path d="M 9.91,1.05 L 9.95,1.13 L 12.05,2.18 L 12.13,2.18 L 14.27,1.09 L 14.27,1.05 L 13.26,0.54 L 13.10,0.54 L 12.13,1.05 L 12.05,1.05 L 11.08,0.54 L 10.93,0.54 Z" fill="#3b3846" stroke="none" /><path d="M 8.75,13.38 L 7.74,12.87 L 7.58,12.87 L 5.56,13.88 L 5.52,13.96 L 6.53,14.46 L 6.65,14.46 L 8.75,13.41 Z" fill="#4d4a53" stroke="none" /><path d="M 2.22,12.25 L 2.26,12.33 L 4.35,13.38 L 4.43,13.38 L 5.44,12.87 L 5.44,12.83 L 3.27,11.74 Z" fill="#4d4a53" stroke="none" /><path d="M 0.00,11.16 L 0.00,11.20 L 1.01,11.70 L 1.17,11.70 L 2.10,11.24 L 2.10,11.16 L 1.09,10.65 L 1.01,10.65 Z" fill="#4d4a53" stroke="none" /><path d="M 15.44,4.94 L 15.44,4.98 L 16.45,5.48 L 16.56,5.48 L 17.57,4.98 L 17.57,4.90 L 16.56,4.39 L 16.49,4.39 Z" fill="#4d4a53" stroke="none" /><path d="M 9.91,4.35 L 9.91,4.43 L 10.93,4.94 L 11.04,4.94 L 12.05,4.43 L 12.05,4.35 L 11.04,3.85 L 10.93,3.85 Z" fill="#4d4a53" stroke="none" /><path d="M 4.39,3.81 L 4.43,3.89 L 5.44,4.39 L 6.53,3.85 L 6.53,3.81 L 5.52,3.30 L 5.40,3.30 Z" fill="#4d4a53" stroke="none" /></svg>