<svg height="32" width="32" viewBox="0 0 32 32"><defs /><path d="M 20.69,27.78 L 20.62,27.78 L 19.78,28.22 L 19.78,29.29 L 19.85,29.29 L 20.69,28.85 Z" fill="#252723" stroke="none" /><path d="M 28.79,21.52 L 28.72,21.52 L 27.88,21.96 L 27.88,24.13 L 27.82,24.20 L 25.17,25.51 L 25.17,26.61 L 28.79,24.80 Z" fill="#252723" stroke="none" /><path d="M 19.78,28.22 L 17.97,29.12 L 17.97,30.19 L 18.04,30.19 L 19.78,29.32 Z" fill="#282b25" stroke="none" /><path d="M 22.49,26.88 L 22.43,26.88 L 20.69,27.75 L 20.69,28.85 L 22.49,27.95 Z" fill="#282b25" stroke="none" /><path d="M 25.17,25.54 L 25.10,25.54 L 24.30,25.94 L 24.30,27.05 L 25.17,26.61 Z" fill="#282b25" stroke="none" /><path d="M 28.79,19.31 L 28.72,19.31 L 27.88,19.75 L 27.88,21.96 L 28.79,21.52 Z" fill="#282b25" stroke="none" /><path d="M 21.59,8.00 L 20.69,8.44 L 20.69,11.75 L 21.59,11.31 Z" fill="#282b25" stroke="none" /><path d="M 18.88,27.58 L 18.81,27.58 L 17.97,28.02 L 17.97,29.09 L 17.91,29.15 L 15.30,30.46 L 15.30,31.53 L 15.36,31.53 L 17.97,30.23 L 17.97,29.15 L 18.04,29.09 L 18.88,28.69 Z" fill="#2b302b" stroke="none" /><path d="M 23.40,25.31 L 21.59,26.21 L 21.59,27.31 L 22.46,26.88 L 22.49,26.91 L 22.49,27.95 L 24.30,27.05 L 24.30,25.97 L 24.23,25.97 L 23.43,26.38 L 23.40,26.34 Z" fill="#2b302b" stroke="none" /><path d="M 21.59,24.00 L 19.78,24.90 L 19.78,26.01 L 21.59,25.10 Z" fill="#2b302b" stroke="none" /><path d="M 27.88,23.06 L 26.98,23.50 L 26.98,24.60 L 27.05,24.60 L 27.88,24.17 Z" fill="#2b302b" stroke="none" /><path d="M 26.08,21.76 L 25.17,22.19 L 25.17,23.30 L 24.30,23.73 L 24.30,24.84 L 24.37,24.84 L 25.17,24.44 L 25.17,23.33 L 26.08,22.86 Z" fill="#2b302b" stroke="none" /><path d="M 28.79,16.00 L 26.98,16.90 L 26.98,18.01 L 27.85,17.57 L 27.88,17.61 L 27.88,19.75 L 28.79,19.31 Z" fill="#2b302b" stroke="none" /><path d="M 17.10,13.56 L 17.04,13.56 L 15.30,14.43 L 15.30,15.53 L 15.36,15.53 L 17.10,14.66 Z" fill="#2b302b" stroke="none" /><path d="M 12.59,12.52 L 12.52,12.52 L 10.81,13.39 L 10.81,14.49 L 12.59,13.62 Z" fill="#2b302b" stroke="none" /><path d="M 20.69,10.64 L 19.78,11.08 L 19.78,13.29 L 19.85,13.29 L 21.59,12.42 L 21.59,11.31 L 21.52,11.31 L 20.72,11.72 L 20.69,11.68 Z" fill="#2b302b" stroke="none" /><path d="M 21.59,4.69 L 20.69,5.12 L 20.69,6.23 L 19.78,6.69 L 19.78,8.90 L 21.59,8.00 Z" fill="#2b302b" stroke="none" /><path d="M 17.97,28.02 L 16.20,28.89 L 16.20,29.99 L 16.27,29.99 L 17.97,29.12 Z" fill="#303432" stroke="none" /><path d="M 19.78,27.11 L 18.88,27.55 L 18.88,28.65 L 18.95,28.65 L 19.78,28.22 Z" fill="#303432" stroke="none" /><path d="M 18.88,20.95 L 17.97,21.39 L 17.97,22.49 L 17.94,22.53 L 16.20,23.40 L 16.20,25.57 L 16.27,25.57 L 17.10,25.14 L 17.10,24.07 L 17.97,23.63 L 17.97,22.53 L 18.88,22.06 Z" fill="#303432" stroke="none" /><path d="M 26.98,20.22 L 26.91,20.22 L 25.17,21.09 L 25.17,22.19 L 23.43,23.06 L 23.40,23.10 L 23.40,24.17 L 23.33,24.23 L 22.53,24.64 L 22.49,24.60 L 22.49,23.56 L 22.43,23.56 L 21.62,23.97 L 21.59,23.93 L 21.59,22.93 L 21.66,22.86 L 23.40,21.99 L 23.40,20.92 L 23.33,20.92 L 21.59,21.79 L 21.59,22.86 L 21.52,22.93 L 19.78,23.80 L 19.78,24.87 L 19.72,24.94 L 17.97,25.81 L 17.97,26.91 L 19.75,26.04 L 19.78,26.01 L 19.78,24.94 L 19.85,24.87 L 21.52,24.03 L 21.59,24.07 L 21.59,25.10 L 22.46,24.67 L 22.49,24.70 L 22.49,25.74 L 22.56,25.74 L 23.33,25.34 L 23.40,25.37 L 23.40,26.41 L 26.98,24.64 L 26.98,23.53 L 27.88,23.06 L 27.88,21.96 L 27.85,21.96 L 26.98,22.39 L 26.98,23.50 L 26.95,23.53 L 24.33,24.84 L 24.30,24.80 L 24.30,23.77 L 25.17,23.33 L 25.17,22.23 L 26.98,21.32 Z" fill="#303432" stroke="none" /><path d="M 21.59,19.62 L 21.52,19.62 L 19.78,20.49 L 19.78,21.59 L 19.85,21.59 L 21.59,20.72 Z" fill="#303432" stroke="none" /><path d="M 27.88,17.57 L 27.82,17.57 L 27.01,17.97 L 26.98,17.94 L 26.98,16.90 L 26.95,16.90 L 23.40,18.68 L 23.40,19.78 L 23.46,19.78 L 26.91,18.04 L 26.98,18.08 L 26.98,19.11 L 27.01,19.11 L 27.88,18.68 Z" fill="#303432" stroke="none" /><path d="M 15.30,14.46 L 15.23,14.46 L 13.49,15.33 L 13.49,16.44 L 13.56,16.44 L 15.30,15.56 Z" fill="#303432" stroke="none" /><path d="M 12.59,14.69 L 11.72,15.13 L 11.68,15.10 L 11.68,14.06 L 10.85,14.46 L 10.81,14.43 L 10.81,13.39 L 10.78,13.39 L 8.10,14.73 L 8.10,15.83 L 8.17,15.83 L 9.87,14.96 L 9.91,15.00 L 9.91,16.00 L 9.84,16.07 L 9.00,16.47 L 9.00,17.57 L 9.07,17.57 L 12.55,15.83 L 12.59,15.80 Z" fill="#303432" stroke="none" /><path d="M 18.88,11.55 L 16.23,12.85 L 16.20,12.89 L 16.20,13.99 L 17.07,13.56 L 17.10,13.59 L 17.10,14.63 L 17.17,14.63 L 17.97,14.23 L 17.97,13.12 L 18.88,12.65 Z" fill="#303432" stroke="none" /><path d="M 15.30,10.04 L 12.62,11.38 L 12.59,11.35 L 12.59,10.31 L 12.52,10.31 L 10.81,11.18 L 10.81,12.28 L 11.65,11.88 L 11.68,11.92 L 11.68,12.95 L 12.55,12.52 L 12.59,12.55 L 12.59,13.59 L 12.65,13.59 L 13.49,13.15 L 13.49,12.08 L 13.56,12.02 L 15.30,11.15 Z" fill="#303432" stroke="none" /><path d="M 14.39,8.27 L 14.39,9.37 L 14.46,9.37 L 16.17,8.50 L 16.20,8.54 L 16.20,9.57 L 16.27,9.57 L 18.85,8.27 L 18.88,8.30 L 18.88,9.34 L 17.97,9.81 L 17.97,10.91 L 20.69,9.57 L 20.69,8.47 L 20.62,8.47 L 19.82,8.87 L 19.78,8.84 L 19.78,7.80 L 18.91,8.23 L 18.88,8.20 L 18.88,7.16 L 18.81,7.16 L 17.14,8.00 L 17.10,7.97 L 17.10,6.93 L 17.07,6.93 Z" fill="#303432" stroke="none" /><path d="M 15.30,27.15 L 14.39,27.58 L 14.39,29.79 L 14.46,29.79 L 15.30,29.36 Z" fill="#393c39" stroke="none" /><path d="M 20.69,25.57 L 20.62,25.57 L 17.14,27.31 L 17.10,27.35 L 17.10,28.45 L 20.69,26.68 Z" fill="#393c39" stroke="none" /><path d="M 16.20,23.40 L 15.30,23.83 L 15.30,24.94 L 15.36,24.94 L 16.20,24.50 Z" fill="#393c39" stroke="none" /><path d="M 20.69,22.26 L 17.97,23.60 L 17.97,24.67 L 17.91,24.74 L 16.20,25.57 L 16.20,26.68 L 16.27,26.68 L 18.88,25.37 L 18.88,24.27 L 20.69,23.36 Z" fill="#393c39" stroke="none" /><path d="M 17.97,21.42 L 17.91,21.42 L 17.10,21.82 L 17.10,22.93 L 17.17,22.93 L 17.97,22.53 Z" fill="#393c39" stroke="none" /><path d="M 26.08,19.58 L 26.01,19.58 L 25.21,19.98 L 25.17,19.95 L 25.17,18.91 L 25.14,18.91 L 22.53,20.22 L 22.49,20.25 L 22.49,21.36 L 24.27,20.49 L 24.30,20.52 L 24.30,21.52 L 24.37,21.52 L 26.08,20.65 Z" fill="#393c39" stroke="none" /><path d="M 9.00,17.61 L 8.94,17.61 L 8.10,18.04 L 8.10,19.15 L 9.00,18.71 Z" fill="#393c39" stroke="none" /><path d="M 8.10,12.52 L 8.10,13.62 L 8.17,13.62 L 8.97,13.22 L 9.00,13.26 L 9.00,14.29 L 10.81,13.39 L 10.81,12.28 L 9.07,13.15 L 9.00,13.12 L 9.00,12.08 Z" fill="#393c39" stroke="none" /><path d="M 17.10,11.35 L 13.52,13.12 L 13.49,13.15 L 13.49,14.23 L 12.59,14.69 L 12.59,15.80 L 15.30,14.46 L 15.30,13.36 L 17.10,12.45 Z" fill="#393c39" stroke="none" /><path d="M 10.81,10.08 L 9.91,10.51 L 9.91,11.62 L 9.97,11.62 L 10.81,11.18 Z" fill="#393c39" stroke="none" /><path d="M 15.30,8.94 L 13.52,9.81 L 13.49,9.77 L 13.49,8.74 L 13.46,8.74 L 11.68,9.64 L 11.68,10.74 L 13.46,9.87 L 13.49,9.91 L 13.49,10.95 L 13.52,10.95 L 15.30,10.04 Z" fill="#393c39" stroke="none" /><path d="M 17.10,5.82 L 15.30,6.73 L 15.30,7.83 L 17.10,6.93 Z" fill="#393c39" stroke="none" /><path d="M 20.69,4.05 L 20.62,4.05 L 18.88,4.92 L 18.88,6.03 L 17.97,6.49 L 17.97,7.60 L 19.78,6.69 L 19.78,5.62 L 19.85,5.56 L 20.69,5.15 Z" fill="#393c39" stroke="none" /><path d="M 16.20,24.50 L 15.30,24.94 L 15.30,29.32 L 15.23,29.39 L 14.39,29.79 L 14.39,32.00 L 15.30,31.56 L 15.30,30.49 L 15.36,30.43 L 16.20,30.03 L 16.20,28.92 L 17.10,28.45 L 17.10,27.38 L 17.17,27.31 L 17.97,26.91 L 17.97,25.81 L 16.23,26.68 L 16.20,26.64 Z" fill="#34393a" stroke="none" /><path d="M 19.78,23.80 L 18.88,24.23 L 18.88,25.34 L 18.95,25.34 L 19.78,24.90 Z" fill="#34393a" stroke="none" /><path d="M 23.40,18.71 L 23.33,18.71 L 21.59,19.58 L 21.59,20.69 L 19.82,21.59 L 19.78,21.56 L 19.78,20.52 L 19.72,20.52 L 18.91,20.92 L 18.88,20.95 L 18.88,22.03 L 18.81,22.09 L 17.97,22.49 L 17.97,23.60 L 17.10,24.03 L 17.10,25.14 L 17.14,25.14 L 17.97,24.70 L 17.97,23.63 L 18.01,23.60 L 20.62,22.29 L 20.69,22.33 L 20.69,23.33 L 20.75,23.33 L 21.52,22.93 L 21.59,22.96 L 21.59,24.00 L 22.46,23.56 L 22.49,23.60 L 22.49,24.64 L 20.69,25.54 L 20.69,26.64 L 19.78,27.11 L 19.78,28.22 L 21.59,27.31 L 21.59,26.24 L 21.66,26.18 L 22.49,25.77 L 22.49,24.67 L 23.40,24.20 L 23.40,23.13 L 23.46,23.06 L 25.17,22.23 L 25.17,21.12 L 25.10,21.12 L 24.33,21.52 L 24.30,21.49 L 24.30,20.45 L 24.27,20.45 L 23.40,20.89 L 23.40,21.96 L 23.33,22.03 L 21.66,22.86 L 21.59,22.83 L 21.59,21.82 L 22.49,21.36 L 22.49,20.28 L 22.56,20.22 L 23.40,19.82 Z" fill="#34393a" stroke="none" /><path d="M 26.98,18.01 L 25.17,18.91 L 25.17,20.02 L 26.04,19.58 L 26.08,19.62 L 26.08,20.65 L 26.95,20.22 L 26.98,20.25 L 26.98,21.29 L 26.08,21.76 L 26.08,22.83 L 26.01,22.90 L 25.17,23.30 L 25.17,24.40 L 25.24,24.40 L 26.98,23.53 L 26.98,22.43 L 27.88,21.96 L 27.88,18.68 L 27.82,18.68 L 27.01,19.08 L 26.98,19.05 Z" fill="#34393a" stroke="none" /><path d="M 8.10,18.04 L 8.97,17.61 L 9.00,17.64 L 9.00,18.68 L 9.07,18.68 L 13.49,16.47 L 13.49,15.36 L 13.42,15.36 L 9.04,17.57 L 9.00,17.54 L 9.00,16.50 L 9.91,16.03 L 9.91,14.96 L 9.84,14.96 L 8.10,15.83 Z" fill="#34393a" stroke="none" /><path d="M 16.20,12.89 L 15.30,13.32 L 15.30,14.43 L 15.36,14.43 L 16.20,13.99 Z" fill="#34393a" stroke="none" /><path d="M 11.68,9.64 L 10.81,10.08 L 10.81,11.15 L 10.74,11.21 L 9.00,12.08 L 9.00,13.19 L 10.74,12.32 L 10.81,12.35 L 10.81,13.39 L 11.68,12.95 L 11.68,11.85 L 10.88,12.25 L 10.81,12.22 L 10.81,11.21 L 10.88,11.15 L 11.68,10.74 Z" fill="#34393a" stroke="none" /><path d="M 14.39,8.30 L 14.33,8.30 L 13.49,8.74 L 13.49,9.81 L 13.42,9.87 L 12.59,10.28 L 12.59,11.38 L 12.65,11.38 L 13.49,10.95 L 13.49,9.87 L 13.56,9.81 L 14.39,9.41 Z" fill="#34393a" stroke="none" /><path d="M 17.97,6.49 L 17.10,6.93 L 17.10,8.03 L 17.97,7.60 Z" fill="#34393a" stroke="none" /><path d="M 21.59,3.58 L 20.69,4.02 L 20.69,5.12 L 19.78,5.59 L 19.78,6.66 L 19.72,6.73 L 18.88,7.13 L 18.88,8.23 L 18.85,8.27 L 16.23,9.57 L 16.20,9.54 L 16.20,8.50 L 16.13,8.50 L 15.30,8.94 L 15.30,11.11 L 15.23,11.18 L 13.49,12.05 L 13.49,13.12 L 13.42,13.19 L 11.68,14.06 L 11.68,15.13 L 11.75,15.13 L 13.49,14.26 L 13.49,13.19 L 13.56,13.12 L 17.04,11.38 L 17.10,11.41 L 17.10,12.42 L 17.17,12.42 L 18.81,11.58 L 18.88,11.62 L 18.88,12.62 L 18.81,12.69 L 17.97,13.09 L 17.97,14.19 L 18.04,14.19 L 19.78,13.32 L 19.78,11.11 L 20.69,10.64 L 20.69,9.57 L 20.62,9.57 L 18.04,10.88 L 17.97,10.85 L 17.97,9.84 L 18.04,9.77 L 18.88,9.37 L 18.88,8.27 L 19.78,7.80 L 19.78,6.73 L 19.85,6.66 L 20.69,6.26 L 20.69,5.15 L 21.59,4.69 Z" fill="#34393a" stroke="none" /><path d="M 15.30,26.04 L 14.39,26.48 L 14.39,27.58 L 14.46,27.58 L 15.30,27.15 Z" fill="#3f3f3b" stroke="none" /><path d="M 17.10,21.86 L 17.04,21.86 L 15.30,22.73 L 15.30,23.83 L 14.39,24.30 L 14.39,25.41 L 15.30,24.97 L 15.30,23.87 L 15.33,23.83 L 17.10,22.96 Z" fill="#3f3f3b" stroke="none" /><path d="M 9.00,13.19 L 8.10,13.62 L 8.10,14.73 L 8.17,14.73 L 9.00,14.29 Z" fill="#3f3f3b" stroke="none" /><path d="M 7.20,10.78 L 7.20,11.88 L 8.07,11.45 L 8.10,11.48 L 8.10,12.52 L 8.17,12.52 L 9.91,11.65 L 9.91,10.54 L 9.84,10.54 L 8.13,11.41 L 8.10,11.38 L 8.10,10.34 L 8.03,10.34 Z" fill="#3f3f3b" stroke="none" /><path d="M 13.49,7.63 L 12.59,8.07 L 12.59,9.17 L 12.65,9.17 L 13.49,8.74 Z" fill="#3f3f3b" stroke="none" /><path d="M 15.30,6.73 L 14.39,7.16 L 14.39,8.27 L 14.46,8.27 L 15.30,7.83 Z" fill="#3f3f3b" stroke="none" /><path d="M 18.88,4.95 L 18.81,4.95 L 17.10,5.82 L 17.10,6.93 L 18.88,6.06 Z" fill="#3f3f3b" stroke="none" /><path d="M 15.30,24.97 L 15.23,24.97 L 14.39,25.41 L 14.39,26.48 L 14.46,26.48 L 15.30,26.04 Z" fill="#464541" stroke="none" /><path d="M 15.30,22.76 L 15.23,22.76 L 14.39,23.20 L 14.39,24.30 L 15.30,23.87 Z" fill="#464541" stroke="none" /><path d="M 12.59,8.10 L 12.52,8.10 L 8.10,10.31 L 8.10,11.41 L 7.20,11.88 L 7.20,19.58 L 7.26,19.58 L 8.10,19.15 L 8.10,11.45 L 12.59,9.21 Z" fill="#464541" stroke="none" /><path d="M 14.39,7.20 L 14.33,7.20 L 13.49,7.63 L 13.49,8.74 L 14.39,8.30 Z" fill="#464541" stroke="none" /><path d="M 10.81,29.12 L 10.81,30.23 L 14.39,32.00 L 14.39,28.69 L 13.49,28.25 L 13.49,30.39 L 13.46,30.43 Z" fill="#444941" stroke="none" /><path d="M 5.39,26.41 L 5.39,27.51 L 6.29,27.95 L 6.29,26.85 Z" fill="#444941" stroke="none" /><path d="M 21.59,13.29 L 21.59,13.32 L 22.46,13.76 L 23.36,13.32 L 23.33,13.26 L 22.53,12.85 L 22.46,12.85 Z" fill="#444941" stroke="none" /><path d="M 11.72,1.34 L 11.72,1.37 L 12.52,1.77 L 12.65,1.77 L 14.36,0.90 L 14.43,0.90 L 17.07,2.24 L 17.97,1.81 L 17.97,1.77 L 14.43,0.00 L 14.36,0.00 Z" fill="#444941" stroke="none" /><path d="M 9.91,28.69 L 9.91,29.76 L 10.74,30.19 L 10.81,30.19 L 10.81,29.12 L 9.97,28.69 Z" fill="#4a5044" stroke="none" /><path d="M 6.29,26.88 L 6.29,27.95 L 8.10,28.85 L 8.10,27.75 L 6.36,26.88 Z" fill="#4a5044" stroke="none" /><path d="M 13.49,26.04 L 13.49,28.25 L 14.33,28.69 L 14.39,28.69 L 14.39,26.48 Z" fill="#4a5044" stroke="none" /><path d="M 3.62,25.54 L 3.62,26.61 L 5.32,27.48 L 5.39,27.48 L 5.39,26.41 L 3.68,25.54 Z" fill="#4a5044" stroke="none" /><path d="M 22.49,13.72 L 22.53,13.79 L 24.27,14.66 L 25.17,14.23 L 25.14,14.16 L 23.40,13.29 Z" fill="#4a5044" stroke="none" /><path d="M 20.72,12.82 L 20.72,12.89 L 21.52,13.29 L 21.66,13.29 L 22.46,12.89 L 22.46,12.82 L 21.66,12.42 L 21.52,12.42 Z" fill="#4a5044" stroke="none" /><path d="M 7.16,4.45 L 6.36,4.05 L 6.26,4.05 L 3.65,5.36 L 3.65,5.42 L 4.45,5.82 L 4.55,5.82 L 7.16,4.52 Z" fill="#4a5044" stroke="none" /><path d="M 19.82,3.58 L 19.82,3.62 L 20.62,4.02 L 20.75,4.02 L 21.56,3.62 L 21.52,3.55 L 20.72,3.15 L 20.65,3.15 Z" fill="#4a5044" stroke="none" /><path d="M 17.10,2.21 L 17.14,2.28 L 17.94,2.68 L 18.04,2.68 L 18.85,2.28 L 18.85,2.21 L 18.04,1.81 L 17.91,1.81 Z" fill="#4a5044" stroke="none" /><path d="M 12.59,1.77 L 11.68,1.34 L 9.94,2.21 L 9.94,2.28 L 10.74,2.68 L 10.85,2.68 L 12.59,1.81 Z" fill="#4a5044" stroke="none" /><path d="M 12.59,28.92 L 12.59,30.03 L 13.49,30.46 L 13.49,29.36 L 12.65,28.92 Z" fill="#515950" stroke="none" /><path d="M 7.20,26.21 L 7.20,27.31 L 8.10,27.78 L 8.10,28.85 L 9.91,29.76 L 9.91,28.65 L 9.07,28.25 L 9.00,28.18 L 9.00,27.11 Z" fill="#515950" stroke="none" /><path d="M 10.85,25.81 L 10.81,25.81 L 10.81,26.85 L 10.78,26.88 L 9.97,26.48 L 9.91,26.48 L 9.91,27.58 L 10.78,28.02 L 10.81,28.02 L 10.81,26.98 L 10.85,26.95 L 11.68,27.35 L 11.68,26.24 Z" fill="#515950" stroke="none" /><path d="M 0.90,24.17 L 0.90,25.27 L 3.58,26.61 L 3.62,26.61 L 3.62,25.57 L 3.65,25.54 L 4.42,25.94 L 4.49,25.94 L 4.49,24.84 L 3.68,24.44 L 3.62,24.44 L 3.62,25.47 L 3.58,25.51 Z" fill="#515950" stroke="none" /><path d="M 5.39,23.10 L 5.39,24.20 L 7.20,25.10 L 7.20,24.00 Z" fill="#515950" stroke="none" /><path d="M 12.59,22.29 L 12.59,23.40 L 13.49,23.87 L 13.49,26.04 L 14.33,26.48 L 14.39,26.48 L 14.39,23.20 Z" fill="#515950" stroke="none" /><path d="M 12.59,18.68 L 12.59,18.71 L 14.33,19.58 L 14.46,19.58 L 15.26,19.18 L 15.26,19.11 L 13.52,18.24 L 13.46,18.24 Z" fill="#515950" stroke="none" /><path d="M 22.49,14.63 L 22.53,14.69 L 23.33,15.10 L 23.43,15.10 L 24.30,14.66 L 26.95,16.00 L 27.01,16.00 L 27.88,15.56 L 27.88,15.53 L 25.21,14.19 L 24.33,14.63 L 24.23,14.63 L 23.40,14.19 Z" fill="#515950" stroke="none" /><path d="M 18.01,14.19 L 18.01,14.23 L 19.75,15.10 L 19.82,15.10 L 20.69,14.66 L 20.69,14.63 L 18.95,13.76 L 18.85,13.76 Z" fill="#515950" stroke="none" /><path d="M 3.62,13.42 L 3.62,14.49 L 5.32,15.36 L 5.39,15.36 L 5.39,14.29 L 3.68,13.42 Z" fill="#515950" stroke="none" /><path d="M 10.81,6.26 L 10.85,6.33 L 12.59,7.20 L 13.49,6.76 L 13.46,6.69 L 11.72,5.82 Z" fill="#515950" stroke="none" /><path d="M 5.39,6.26 L 3.65,5.39 L 3.58,5.39 L 0.90,6.73 L 0.90,6.76 L 1.77,7.20 L 2.64,6.76 L 2.74,6.76 L 3.62,7.20 L 5.36,6.33 Z" fill="#515950" stroke="none" /><path d="M 17.07,3.11 L 16.17,2.68 L 15.33,3.11 L 15.23,3.11 L 14.46,2.71 L 14.33,2.71 L 13.52,3.11 L 13.52,3.15 L 14.36,3.58 L 14.43,3.58 L 15.26,3.15 L 16.13,3.58 L 16.23,3.58 L 17.04,3.18 Z" fill="#515950" stroke="none" /><path d="M 18.01,2.68 L 18.01,2.71 L 18.78,3.08 L 18.85,3.15 L 18.04,3.55 L 18.01,3.62 L 19.75,4.49 L 19.82,4.49 L 20.69,4.05 L 20.69,4.02 L 19.92,3.65 L 19.85,3.58 L 20.65,3.18 L 20.65,3.11 L 18.91,2.24 L 18.85,2.24 Z" fill="#515950" stroke="none" /><path d="M 10.78,2.68 L 9.94,2.24 L 9.87,2.24 L 6.33,4.02 L 6.36,4.08 L 7.16,4.49 L 6.29,4.92 L 6.29,4.95 L 7.16,5.39 L 7.23,5.39 L 9.84,4.08 L 9.87,4.02 L 9.10,3.65 L 9.04,3.58 L 10.78,2.71 Z" fill="#515950" stroke="none" /><path d="M 13.52,1.31 L 13.52,1.37 L 14.33,1.77 L 14.46,1.77 L 15.26,1.37 L 15.26,1.31 L 14.46,0.90 L 14.33,0.90 Z" fill="#515950" stroke="none" /><path d="M 4.49,24.87 L 4.49,25.97 L 5.39,26.41 L 5.39,25.31 L 4.55,24.87 Z" fill="#5a615d" stroke="none" /><path d="M 1.81,23.53 L 1.81,24.64 L 3.55,25.51 L 3.62,25.51 L 3.62,24.40 L 1.87,23.53 Z" fill="#5a615d" stroke="none" /><path d="M 3.62,22.23 L 3.62,23.33 L 5.39,24.20 L 5.39,23.16 L 5.46,23.13 L 7.13,23.97 L 7.20,24.03 L 7.20,25.10 L 8.10,25.57 L 8.10,26.68 L 8.94,27.08 L 9.00,27.15 L 9.00,28.22 L 9.04,28.25 L 12.52,29.99 L 12.59,29.99 L 12.59,28.95 L 12.62,28.92 L 13.49,29.36 L 13.49,28.25 L 13.46,28.22 L 12.65,27.82 L 12.59,27.82 L 12.59,28.85 L 12.55,28.89 L 9.91,27.55 L 9.91,26.51 L 9.94,26.48 L 10.81,26.91 L 10.81,25.87 L 10.85,25.84 L 12.52,26.68 L 12.59,26.68 L 12.59,25.57 L 10.85,24.70 L 10.81,24.70 L 10.81,25.74 L 10.78,25.77 L 9.04,24.90 L 9.00,24.90 L 9.00,25.94 L 8.97,25.97 L 8.10,25.54 L 8.10,24.44 L 7.26,24.03 L 7.20,23.97 L 7.20,22.96 L 7.26,22.93 L 9.00,23.80 L 9.00,22.69 L 7.26,21.82 L 7.20,21.82 L 7.20,22.83 L 7.16,22.86 L 5.39,21.99 L 5.39,23.03 L 5.36,23.06 L 3.68,22.23 Z" fill="#5a615d" stroke="none" /><path d="M 9.00,20.52 L 9.00,21.62 L 12.52,23.36 L 12.59,23.43 L 12.59,24.50 L 13.42,24.94 L 13.49,24.94 L 13.49,23.83 L 12.65,23.43 L 12.59,23.36 L 12.59,22.29 L 12.55,22.26 L 9.07,20.52 Z" fill="#5a615d" stroke="none" /><path d="M 6.29,18.04 L 6.29,19.08 L 6.26,19.11 L 5.46,18.71 L 5.39,18.71 L 5.39,19.82 L 7.13,20.69 L 7.20,20.69 L 7.20,18.48 Z" fill="#5a615d" stroke="none" /><path d="M 9.91,18.24 L 9.91,18.28 L 11.65,19.15 L 10.85,19.55 L 10.81,19.62 L 12.55,20.49 L 12.65,20.49 L 13.46,20.08 L 13.46,20.02 L 12.65,19.62 L 12.69,19.55 L 13.46,19.18 L 13.46,19.11 L 12.65,18.71 L 12.69,18.64 L 13.46,18.28 L 13.46,18.21 L 12.65,17.81 L 12.55,17.81 L 11.68,18.24 L 10.85,17.81 L 10.74,17.81 Z" fill="#5a615d" stroke="none" /><path d="M 4.49,18.24 L 3.62,17.81 L 3.62,18.85 L 3.55,18.88 L 1.81,18.01 L 1.81,20.22 L 2.71,20.65 L 2.71,19.62 L 2.74,19.58 L 3.62,20.02 L 3.62,18.98 L 3.65,18.95 L 4.49,19.35 Z" fill="#5a615d" stroke="none" /><path d="M 14.39,17.77 L 14.39,17.81 L 15.26,18.24 L 14.39,18.68 L 14.39,18.71 L 15.26,19.15 L 14.39,19.58 L 14.39,19.62 L 17.07,20.95 L 17.97,20.52 L 17.97,20.49 L 16.30,19.65 L 16.27,19.58 L 17.10,19.15 L 17.94,19.58 L 18.04,19.58 L 18.85,19.18 L 18.85,19.11 L 15.30,17.34 Z" fill="#5a615d" stroke="none" /><path d="M 17.10,17.34 L 17.10,17.37 L 17.97,17.81 L 18.85,17.37 L 18.95,17.37 L 20.65,18.24 L 20.72,18.24 L 22.46,17.37 L 22.43,17.31 L 21.62,16.90 L 21.56,16.90 L 20.72,17.34 L 20.65,17.34 L 19.82,16.90 L 19.75,16.90 L 18.91,17.34 L 18.04,16.90 L 17.94,16.90 Z" fill="#5a615d" stroke="none" /><path d="M 13.49,16.44 L 13.49,16.47 L 14.36,16.90 L 14.43,16.90 L 15.26,16.47 L 15.33,16.47 L 16.20,16.90 L 17.07,16.47 L 17.04,16.40 L 15.36,15.56 L 15.23,15.56 Z" fill="#5a615d" stroke="none" /><path d="M 23.40,15.10 L 23.40,15.13 L 25.14,16.00 L 25.21,16.00 L 26.08,15.56 L 26.08,15.53 L 24.33,14.66 L 24.23,14.66 Z" fill="#5a615d" stroke="none" /><path d="M 19.82,15.06 L 19.82,15.13 L 21.56,16.00 L 21.62,16.00 L 22.49,15.56 L 22.49,15.53 L 20.75,14.66 L 20.62,14.66 Z" fill="#5a615d" stroke="none" /><path d="M 17.10,14.63 L 17.14,14.69 L 18.81,15.53 L 18.95,15.53 L 19.75,15.13 L 19.75,15.06 L 18.01,14.19 Z" fill="#5a615d" stroke="none" /><path d="M 21.59,14.19 L 21.59,14.23 L 22.46,14.66 L 23.36,14.23 L 23.33,14.16 L 22.53,13.76 L 22.43,13.76 Z" fill="#5a615d" stroke="none" /><path d="M 0.90,12.05 L 0.90,13.15 L 2.71,14.06 L 2.71,15.10 L 2.68,15.13 L 1.81,14.69 L 1.81,15.80 L 5.32,17.57 L 5.39,17.57 L 5.39,16.47 L 4.55,16.07 L 4.49,16.00 L 4.49,14.93 L 3.68,14.53 L 3.62,14.46 L 3.62,13.39 Z" fill="#5a615d" stroke="none" /><path d="M 3.62,11.21 L 3.62,12.32 L 4.49,12.75 L 4.49,13.86 L 5.32,14.26 L 5.39,14.33 L 5.39,15.40 L 6.29,15.83 L 6.29,14.79 L 6.33,14.76 L 7.20,15.20 L 7.20,14.09 L 5.46,13.22 L 5.39,13.15 L 5.39,12.08 L 5.36,12.05 L 3.68,11.21 Z" fill="#5a615d" stroke="none" /><path d="M 9.00,8.97 L 9.00,9.00 L 9.87,9.44 L 10.78,9.00 L 10.74,8.94 L 9.94,8.54 L 9.87,8.54 Z" fill="#5a615d" stroke="none" /><path d="M 12.62,7.16 L 12.65,7.23 L 13.46,7.63 L 13.52,7.63 L 14.39,7.20 L 14.39,7.16 L 13.52,6.73 Z" fill="#5a615d" stroke="none" /><path d="M 4.52,5.82 L 4.52,5.86 L 5.29,6.23 L 5.36,6.29 L 4.52,6.73 L 4.52,6.76 L 5.29,7.13 L 5.36,7.20 L 4.55,7.60 L 4.52,7.67 L 6.26,8.54 L 5.39,8.97 L 5.39,9.00 L 8.07,10.34 L 8.97,9.91 L 8.94,9.84 L 7.26,9.00 L 7.30,8.94 L 8.07,8.57 L 8.07,8.50 L 5.46,7.20 L 5.52,7.13 L 6.26,6.76 L 6.36,6.76 L 7.13,7.16 L 7.26,7.16 L 8.07,6.76 L 8.03,6.69 L 5.42,5.39 L 5.36,5.39 Z" fill="#5a615d" stroke="none" /><path d="M 14.43,5.36 L 14.43,5.42 L 16.17,6.29 L 17.07,5.86 L 17.04,5.79 L 15.36,4.95 L 15.23,4.95 Z" fill="#5a615d" stroke="none" /><path d="M 8.10,5.82 L 8.10,5.86 L 10.78,7.20 L 11.68,6.76 L 11.65,6.69 L 10.85,6.29 L 10.91,6.23 L 11.65,5.86 L 11.75,5.86 L 12.59,6.29 L 13.49,5.86 L 13.49,5.82 L 9.97,4.08 L 9.94,4.05 L 10.01,3.98 L 10.78,3.62 L 10.78,3.58 L 9.94,3.15 L 9.84,3.15 L 9.00,3.58 L 9.00,3.62 L 9.77,3.98 L 9.84,4.05 L 9.04,4.45 L 9.04,4.52 L 10.68,5.32 L 10.74,5.39 L 9.91,5.82 L 9.04,5.39 L 8.97,5.39 Z" fill="#5a615d" stroke="none" /><path d="M 11.72,3.11 L 11.75,3.18 L 13.42,4.02 L 13.56,4.02 L 14.36,3.62 L 14.36,3.55 L 12.62,2.68 Z" fill="#5a615d" stroke="none" /><path d="M 12.59,1.77 L 12.59,1.81 L 13.46,2.24 L 13.52,2.24 L 14.36,1.81 L 14.43,1.81 L 16.97,3.08 L 17.04,3.15 L 17.00,3.18 L 16.20,3.58 L 15.33,3.15 L 15.23,3.15 L 14.43,3.55 L 14.43,3.62 L 16.17,4.49 L 16.23,4.49 L 17.10,4.05 L 17.94,4.49 L 17.87,4.55 L 17.10,4.92 L 17.10,4.95 L 17.97,5.39 L 18.88,4.95 L 18.88,4.92 L 18.11,4.55 L 18.04,4.49 L 18.88,4.05 L 18.88,4.02 L 18.11,3.65 L 18.04,3.58 L 18.85,3.18 L 18.88,3.11 L 15.33,1.34 L 15.26,1.34 L 14.43,1.77 L 14.36,1.77 L 13.52,1.34 L 13.46,1.34 Z" fill="#5a615d" stroke="none" /><path d="M 2.71,22.86 L 2.71,23.97 L 2.74,24.00 L 6.23,25.74 L 6.29,25.74 L 6.29,24.64 Z" fill="#6b706a" stroke="none" /><path d="M 8.10,21.15 L 8.10,22.26 L 9.84,23.13 L 9.91,23.20 L 9.91,24.27 L 11.68,25.14 L 11.68,24.03 L 10.81,23.60 L 10.81,22.49 Z" fill="#6b706a" stroke="none" /><path d="M 11.72,20.92 L 11.75,20.99 L 12.55,21.39 L 12.65,21.39 L 13.49,20.95 L 13.49,20.92 L 12.62,20.49 Z" fill="#6b706a" stroke="none" /><path d="M 0.00,20.42 L 0.00,22.63 L 0.90,23.06 L 0.90,20.85 L 0.07,20.42 Z" fill="#6b706a" stroke="none" /><path d="M 1.81,20.22 L 1.81,21.32 L 4.42,22.63 L 4.49,22.63 L 4.49,21.59 L 4.52,21.56 L 6.23,22.43 L 6.29,22.43 L 6.29,21.36 L 6.26,21.32 L 3.65,20.02 L 3.62,20.02 L 3.62,21.05 L 3.58,21.09 L 1.87,20.22 Z" fill="#6b706a" stroke="none" /><path d="M 13.52,20.02 L 13.52,20.08 L 15.16,20.89 L 15.23,20.95 L 14.43,21.36 L 14.43,21.42 L 15.23,21.82 L 15.36,21.82 L 16.17,21.42 L 16.13,21.36 L 15.33,20.95 L 15.40,20.89 L 16.17,20.52 L 16.13,20.45 L 14.46,19.62 L 14.33,19.62 Z" fill="#6b706a" stroke="none" /><path d="M 18.91,19.11 L 18.91,19.18 L 19.72,19.58 L 19.85,19.58 L 20.65,19.18 L 20.65,19.11 L 19.85,18.71 L 19.72,18.71 Z" fill="#6b706a" stroke="none" /><path d="M 9.00,18.68 L 9.00,18.71 L 9.87,19.15 L 9.00,19.58 L 9.00,19.62 L 10.74,20.49 L 10.85,20.49 L 11.68,20.05 L 11.68,20.02 L 9.94,19.15 L 10.74,18.74 L 10.78,18.68 L 9.91,18.24 Z" fill="#6b706a" stroke="none" /><path d="M 20.72,18.21 L 20.72,18.28 L 21.52,18.68 L 21.66,18.68 L 22.46,18.28 L 22.43,18.21 L 21.62,17.81 L 21.52,17.81 Z" fill="#6b706a" stroke="none" /><path d="M 0.90,17.57 L 0.90,18.68 L 1.81,19.11 L 1.81,18.01 L 0.97,17.57 Z" fill="#6b706a" stroke="none" /><path d="M 2.71,17.37 L 2.71,18.48 L 3.62,18.91 L 3.62,17.81 L 2.78,17.37 Z" fill="#6b706a" stroke="none" /><path d="M 18.01,17.77 L 18.04,17.84 L 18.85,18.24 L 18.95,18.24 L 19.78,17.81 L 19.78,17.77 L 18.91,17.34 Z" fill="#6b706a" stroke="none" /><path d="M 26.95,16.87 L 26.14,16.47 L 26.01,16.47 L 24.33,17.31 L 24.30,17.37 L 25.21,17.81 L 26.95,16.94 Z" fill="#6b706a" stroke="none" /><path d="M 11.72,17.34 L 11.72,17.37 L 12.59,17.81 L 13.46,17.37 L 13.56,17.37 L 14.33,17.77 L 14.46,17.77 L 15.26,17.37 L 15.23,17.31 L 13.56,16.47 L 13.42,16.47 Z" fill="#6b706a" stroke="none" /><path d="M 6.29,15.83 L 6.29,16.87 L 6.26,16.90 L 5.46,16.50 L 5.39,16.50 L 5.39,17.61 L 7.13,18.48 L 7.20,18.48 L 7.20,16.27 Z" fill="#6b706a" stroke="none" /><path d="M 0.90,15.36 L 0.90,16.47 L 1.81,16.90 L 1.81,15.80 L 0.97,15.36 Z" fill="#6b706a" stroke="none" /><path d="M 17.10,15.53 L 17.14,15.60 L 19.75,16.90 L 19.82,16.90 L 20.65,16.47 L 20.72,16.47 L 22.43,17.34 L 22.53,17.34 L 23.36,16.90 L 23.36,16.87 L 20.75,15.56 L 20.62,15.56 L 19.78,16.00 L 18.01,15.10 Z" fill="#6b706a" stroke="none" /><path d="M 19.82,14.19 L 19.82,14.23 L 23.36,16.00 L 23.43,16.00 L 24.27,15.56 L 24.27,15.53 L 20.72,13.76 L 20.65,13.76 Z" fill="#6b706a" stroke="none" /><path d="M 4.49,10.54 L 4.49,11.65 L 6.26,12.52 L 6.29,12.55 L 6.29,13.66 L 7.20,14.09 L 7.20,12.99 L 6.29,12.52 L 6.29,11.41 L 4.55,10.54 Z" fill="#6b706a" stroke="none" /><path d="M 0.90,9.84 L 0.90,10.95 L 1.81,11.41 L 1.81,12.52 L 3.55,13.39 L 3.62,13.39 L 3.62,12.28 L 1.84,11.41 L 1.81,11.38 L 1.81,10.28 Z" fill="#6b706a" stroke="none" /><path d="M 2.71,9.64 L 2.71,10.74 L 3.55,11.18 L 3.62,11.18 L 3.62,10.08 Z" fill="#6b706a" stroke="none" /><path d="M 8.13,9.41 L 8.13,9.47 L 8.94,9.87 L 9.04,9.87 L 9.87,9.44 L 9.87,9.41 L 9.07,9.00 L 8.94,9.00 Z" fill="#6b706a" stroke="none" /><path d="M 4.52,9.41 L 4.55,9.47 L 6.29,10.34 L 7.20,9.91 L 7.20,9.87 L 5.46,9.00 L 5.32,9.00 Z" fill="#6b706a" stroke="none" /><path d="M 0.94,7.60 L 0.94,7.67 L 2.68,8.54 L 2.74,8.54 L 3.58,8.10 L 4.45,8.54 L 4.52,8.54 L 5.39,8.10 L 5.39,8.07 L 3.65,7.20 L 3.55,7.20 L 2.71,7.63 L 1.84,7.20 L 1.74,7.20 Z" fill="#6b706a" stroke="none" /><path d="M 9.00,7.16 L 9.04,7.23 L 11.65,8.54 L 11.72,8.54 L 13.46,7.67 L 13.46,7.60 L 12.65,7.20 L 12.55,7.20 L 11.68,7.63 L 9.91,6.73 Z" fill="#6b706a" stroke="none" /><path d="M 11.72,4.02 L 11.75,4.08 L 12.55,4.49 L 11.68,4.92 L 11.68,4.95 L 14.36,6.29 L 14.43,6.29 L 15.30,5.86 L 15.30,5.82 L 13.56,4.95 L 13.59,4.89 L 14.36,4.52 L 14.36,4.45 L 12.62,3.58 Z" fill="#6b706a" stroke="none" /><path d="M 10.81,22.53 L 10.81,23.63 L 11.68,24.07 L 11.68,25.14 L 12.59,25.61 L 12.59,26.64 L 12.55,26.68 L 11.68,26.24 L 11.68,27.28 L 11.65,27.31 L 10.81,26.91 L 10.81,28.02 L 12.52,28.89 L 12.59,28.89 L 12.59,27.85 L 12.62,27.82 L 13.49,28.25 L 13.49,24.94 L 12.65,24.54 L 12.59,24.47 L 12.59,23.40 L 12.55,23.36 L 10.88,22.53 Z" fill="#626b6c" stroke="none" /><path d="M 4.49,21.56 L 4.49,22.66 L 5.39,23.10 L 5.39,21.99 L 4.55,21.56 Z" fill="#626b6c" stroke="none" /><path d="M 15.26,20.95 L 15.26,20.92 L 13.52,20.05 L 14.39,19.62 L 14.39,19.58 L 13.52,19.15 L 13.46,19.15 L 12.59,19.58 L 12.59,19.62 L 13.46,20.05 L 12.62,20.49 L 11.75,20.05 L 11.65,20.05 L 10.81,20.49 L 10.81,20.52 L 11.68,20.95 L 12.55,20.52 L 12.65,20.52 L 14.36,21.39 L 14.43,21.39 Z" fill="#626b6c" stroke="none" /><path d="M 9.94,19.11 L 9.94,19.18 L 10.74,19.58 L 10.85,19.58 L 11.65,19.18 L 11.65,19.11 L 10.85,18.71 L 10.74,18.71 Z" fill="#626b6c" stroke="none" /><path d="M 8.13,19.11 L 8.13,19.18 L 8.94,19.58 L 9.07,19.58 L 9.87,19.18 L 9.87,19.11 L 9.07,18.71 L 8.94,18.71 Z" fill="#626b6c" stroke="none" /><path d="M 0.97,18.68 L 0.90,18.68 L 0.90,23.00 L 0.84,23.03 L 0.07,22.63 L 0.00,22.63 L 0.00,24.80 L 0.84,25.24 L 0.90,25.24 L 0.90,24.23 L 0.94,24.20 L 1.74,24.60 L 1.81,24.60 L 1.81,23.56 L 1.84,23.53 L 2.71,23.97 L 2.71,22.93 L 2.74,22.90 L 3.55,23.30 L 3.62,23.30 L 3.62,22.19 L 1.81,21.29 L 1.81,19.11 Z" fill="#626b6c" stroke="none" /><path d="M 10.81,17.77 L 10.85,17.84 L 11.65,18.24 L 11.75,18.24 L 12.62,17.81 L 14.33,18.68 L 14.46,18.68 L 15.26,18.28 L 15.26,18.21 L 13.52,17.34 L 12.65,17.77 L 12.55,17.77 L 11.72,17.34 Z" fill="#626b6c" stroke="none" /><path d="M 19.82,16.87 L 19.82,16.94 L 20.62,17.34 L 20.75,17.34 L 21.56,16.94 L 21.56,16.87 L 20.75,16.47 L 20.62,16.47 Z" fill="#626b6c" stroke="none" /><path d="M 21.59,17.81 L 22.43,18.24 L 22.53,18.24 L 26.04,16.47 L 26.11,16.47 L 26.95,16.90 L 27.01,16.90 L 28.75,16.03 L 28.75,15.97 L 27.95,15.56 L 27.82,15.56 L 26.98,16.00 L 26.14,15.56 L 26.01,15.56 L 25.17,16.00 L 24.33,15.56 L 24.23,15.56 L 23.40,16.00 L 22.56,15.56 L 22.43,15.56 L 21.62,15.97 L 21.62,16.03 L 23.26,16.84 L 23.33,16.90 L 21.59,17.77 Z" fill="#626b6c" stroke="none" /><path d="M 18.88,15.53 L 18.88,15.56 L 19.75,16.00 L 19.82,16.00 L 20.69,15.56 L 20.69,15.53 L 19.82,15.10 L 19.75,15.10 Z" fill="#626b6c" stroke="none" /><path d="M 7.20,15.20 L 6.36,14.76 L 6.29,14.76 L 6.29,15.77 L 6.23,15.80 L 4.49,14.93 L 4.49,16.03 L 6.29,16.94 L 6.29,15.90 L 6.33,15.87 L 7.13,16.27 L 7.20,16.27 Z" fill="#626b6c" stroke="none" /><path d="M 17.04,14.66 L 15.30,15.53 L 15.30,15.56 L 17.00,16.40 L 17.04,16.44 L 16.97,16.50 L 16.23,16.87 L 16.13,16.87 L 15.36,16.47 L 15.23,16.47 L 14.43,16.87 L 14.43,16.94 L 18.81,19.11 L 18.85,19.15 L 18.81,19.18 L 18.01,19.58 L 17.14,19.15 L 17.07,19.15 L 16.20,19.58 L 16.20,19.62 L 17.94,20.49 L 18.04,20.49 L 19.78,19.62 L 19.78,19.58 L 18.91,19.15 L 19.78,18.71 L 19.78,18.68 L 17.21,17.41 L 17.14,17.34 L 17.97,16.90 L 18.85,17.34 L 18.95,17.34 L 19.75,16.94 L 19.75,16.87 L 17.17,15.60 L 17.14,15.56 L 17.21,15.50 L 17.97,15.13 L 17.97,15.10 L 17.14,14.66 Z" fill="#626b6c" stroke="none" /><path d="M 0.90,13.15 L 0.90,15.36 L 1.74,15.77 L 1.81,15.83 L 1.81,16.90 L 4.42,18.21 L 4.49,18.28 L 4.49,19.28 L 4.45,19.31 L 3.62,18.91 L 3.62,19.95 L 3.58,19.98 L 2.78,19.58 L 2.71,19.58 L 2.71,20.65 L 3.55,21.09 L 3.62,21.09 L 3.62,20.08 L 3.68,20.05 L 6.23,21.32 L 6.29,21.39 L 6.29,22.46 L 7.13,22.86 L 7.20,22.93 L 7.20,24.00 L 8.10,24.47 L 8.10,25.51 L 8.07,25.54 L 6.36,24.67 L 6.29,24.67 L 6.29,25.71 L 6.26,25.74 L 5.39,25.31 L 5.39,26.41 L 7.20,27.31 L 7.20,26.28 L 7.26,26.24 L 8.03,26.64 L 8.10,26.64 L 8.10,25.61 L 8.13,25.57 L 9.00,26.01 L 9.00,24.97 L 9.04,24.94 L 10.81,25.81 L 10.81,24.70 L 9.91,24.23 L 9.91,23.16 L 9.87,23.13 L 9.07,22.73 L 9.00,22.73 L 9.00,23.73 L 8.94,23.77 L 7.26,22.93 L 7.20,22.86 L 7.20,21.86 L 7.23,21.82 L 8.10,22.26 L 8.10,21.22 L 8.13,21.19 L 8.94,21.59 L 9.00,21.59 L 9.00,20.49 L 7.26,19.62 L 7.20,19.62 L 7.20,20.65 L 7.16,20.69 L 5.42,19.82 L 5.39,19.78 L 5.39,18.74 L 5.42,18.71 L 6.29,19.15 L 6.29,18.04 L 1.87,15.83 L 1.81,15.77 L 1.81,14.76 L 1.87,14.73 L 2.64,15.13 L 2.71,15.13 L 2.71,14.03 L 0.97,13.15 Z" fill="#626b6c" stroke="none" /><path d="M 18.91,13.72 L 18.95,13.79 L 19.75,14.19 L 19.85,14.19 L 20.69,13.76 L 21.52,14.19 L 21.62,14.19 L 22.46,13.76 L 22.46,13.72 L 20.72,12.85 L 20.65,12.85 Z" fill="#626b6c" stroke="none" /><path d="M 6.36,11.45 L 6.29,11.45 L 6.29,12.49 L 6.26,12.52 L 5.39,12.08 L 5.39,13.19 L 6.23,13.62 L 6.29,13.62 L 6.29,12.59 L 6.33,12.55 L 7.20,12.99 L 7.20,11.88 Z" fill="#626b6c" stroke="none" /><path d="M 1.81,10.31 L 1.81,11.41 L 3.58,12.28 L 3.62,12.32 L 3.62,13.42 L 4.42,13.82 L 4.49,13.82 L 4.49,12.72 L 3.62,12.28 L 3.62,11.25 L 3.65,11.21 L 4.42,11.62 L 4.49,11.62 L 4.49,10.51 L 3.68,10.11 L 3.62,10.11 L 3.62,11.15 L 3.58,11.18 L 1.87,10.31 Z" fill="#626b6c" stroke="none" /><path d="M 4.52,8.50 L 4.52,8.57 L 5.32,8.97 L 5.46,8.97 L 6.26,8.57 L 6.26,8.50 L 5.46,8.10 L 5.32,8.10 Z" fill="#626b6c" stroke="none" /><path d="M 10.81,7.16 L 10.85,7.23 L 11.65,7.63 L 11.75,7.63 L 12.59,7.20 L 12.59,7.16 L 11.72,6.73 Z" fill="#626b6c" stroke="none" /><path d="M 12.62,6.26 L 12.65,6.33 L 14.33,7.16 L 14.46,7.16 L 16.17,6.29 L 16.17,6.26 L 15.36,5.86 L 15.23,5.86 L 14.39,6.29 L 13.56,5.86 L 13.42,5.86 Z" fill="#626b6c" stroke="none" /><path d="M 11.65,8.57 L 11.65,8.50 L 9.07,7.23 L 9.04,7.20 L 9.10,7.13 L 9.87,6.76 L 9.87,6.73 L 8.17,5.86 L 8.20,5.79 L 9.00,5.39 L 9.84,5.82 L 9.94,5.82 L 10.78,5.39 L 10.78,5.36 L 9.04,4.49 L 8.97,4.49 L 7.20,5.39 L 6.36,4.95 L 6.23,4.95 L 5.42,5.36 L 5.42,5.42 L 8.00,6.69 L 8.03,6.73 L 7.97,6.79 L 7.23,7.16 L 7.16,7.16 L 6.33,6.73 L 5.46,7.16 L 5.36,7.16 L 4.52,6.73 L 3.65,7.16 L 3.55,7.16 L 2.71,6.73 L 1.84,7.16 L 1.74,7.16 L 0.97,6.76 L 0.84,6.76 L 0.03,7.16 L 0.07,7.23 L 0.87,7.63 L 0.94,7.63 L 1.77,7.20 L 2.64,7.63 L 2.74,7.63 L 3.58,7.20 L 4.45,7.63 L 4.55,7.63 L 5.42,7.20 L 8.03,8.50 L 8.07,8.54 L 8.03,8.57 L 7.20,8.97 L 7.20,9.00 L 8.07,9.44 L 8.13,9.44 L 9.91,8.54 L 10.74,8.97 L 10.85,8.97 Z" fill="#626b6c" stroke="none" /><path d="M 13.49,4.02 L 13.49,4.05 L 14.36,4.49 L 13.49,4.92 L 13.49,4.95 L 14.36,5.39 L 14.43,5.39 L 15.26,4.95 L 15.33,4.95 L 17.04,5.82 L 17.14,5.82 L 17.97,5.39 L 17.97,5.36 L 17.17,4.95 L 17.21,4.89 L 17.94,4.52 L 18.04,4.52 L 18.81,4.92 L 18.95,4.92 L 19.75,4.52 L 19.75,4.45 L 18.95,4.05 L 18.85,4.05 L 18.01,4.49 L 17.14,4.05 L 17.04,4.05 L 16.20,4.49 L 14.43,3.58 L 14.36,3.58 Z" fill="#626b6c" stroke="none" /><path d="M 9.91,4.05 L 11.62,4.92 L 11.75,4.92 L 12.55,4.52 L 12.55,4.45 L 11.75,4.05 L 11.82,3.98 L 12.59,3.62 L 12.55,3.55 L 11.78,3.18 L 11.75,3.15 L 11.82,3.08 L 12.55,2.71 L 12.65,2.71 L 13.52,3.15 L 14.36,2.71 L 14.43,2.71 L 15.30,3.15 L 16.17,2.71 L 16.17,2.68 L 14.46,1.81 L 14.33,1.81 L 13.49,2.24 L 12.65,1.81 L 12.52,1.81 L 9.91,3.11 L 9.94,3.18 L 10.74,3.58 L 10.68,3.65 L 9.91,4.02 Z" fill="#626b6c" stroke="none" /><path d="M 12.62,21.39 L 12.62,21.42 L 14.36,22.29 L 13.49,22.73 L 13.49,22.76 L 14.36,23.20 L 14.43,23.20 L 15.30,22.76 L 15.30,22.73 L 14.43,22.29 L 15.30,21.86 L 15.30,21.82 L 13.56,20.95 L 13.46,20.95 Z" fill="#75766e" stroke="none" /><path d="M 15.30,20.92 L 15.33,20.99 L 16.13,21.39 L 16.23,21.39 L 17.07,20.95 L 17.07,20.92 L 16.20,20.49 Z" fill="#75766e" stroke="none" /><path d="M 8.13,20.02 L 8.13,20.08 L 8.94,20.49 L 9.04,20.49 L 9.87,20.05 L 9.87,20.02 L 9.07,19.62 L 8.94,19.62 Z" fill="#75766e" stroke="none" /><path d="M 0.00,19.31 L 0.00,20.42 L 0.90,20.85 L 0.90,19.75 L 0.07,19.31 Z" fill="#75766e" stroke="none" /><path d="M 18.91,18.24 L 18.91,18.28 L 20.65,19.15 L 20.72,19.15 L 21.56,18.71 L 21.62,18.71 L 22.46,19.15 L 22.53,19.15 L 23.36,18.71 L 23.36,18.68 L 22.49,18.24 L 21.62,18.68 L 21.56,18.68 L 19.85,17.81 L 19.75,17.81 Z" fill="#75766e" stroke="none" /><path d="M 23.40,17.77 L 23.43,17.84 L 24.23,18.24 L 24.33,18.24 L 25.17,17.81 L 25.17,17.77 L 24.30,17.34 Z" fill="#75766e" stroke="none" /><path d="M 0.00,17.10 L 0.00,18.21 L 0.84,18.64 L 0.90,18.64 L 0.90,17.61 L 0.94,17.57 L 2.64,18.44 L 2.71,18.44 L 2.71,17.34 L 0.97,16.47 L 0.90,16.47 L 0.90,17.51 L 0.87,17.54 Z" fill="#75766e" stroke="none" /><path d="M 0.90,10.95 L 0.90,12.05 L 1.74,12.49 L 1.81,12.49 L 1.81,11.38 Z" fill="#75766e" stroke="none" /><path d="M 5.39,10.98 L 6.23,11.41 L 6.29,11.41 L 6.29,10.38 L 6.33,10.34 L 7.16,10.78 L 7.23,10.78 L 8.03,10.38 L 8.07,10.31 L 7.26,9.91 L 7.13,9.91 L 6.36,10.31 L 6.26,10.31 L 5.39,9.87 Z" fill="#75766e" stroke="none" /><path d="M 2.74,8.50 L 2.74,8.57 L 4.49,9.44 L 5.39,9.00 L 5.39,8.97 L 3.65,8.10 L 3.55,8.10 Z" fill="#75766e" stroke="none" /><path d="M 0.00,7.20 L 0.00,8.30 L 0.84,8.70 L 0.90,8.77 L 0.90,9.84 L 2.71,10.74 L 2.71,9.64 L 0.97,8.77 L 0.90,8.70 L 0.90,7.63 L 0.07,7.20 Z" fill="#75766e" stroke="none" /><path d="M 9.00,20.49 L 9.00,20.52 L 13.42,22.73 L 13.56,22.73 L 14.36,22.33 L 14.36,22.26 L 9.94,20.05 L 9.84,20.05 Z" fill="#838179" stroke="none" /><path d="M 7.20,19.58 L 7.20,19.62 L 8.07,20.05 L 8.13,20.05 L 9.00,19.62 L 9.00,19.58 L 8.13,19.15 L 8.07,19.15 Z" fill="#838179" stroke="none" /><path d="M 22.46,19.11 L 21.66,18.71 L 21.52,18.71 L 14.43,22.26 L 14.43,22.33 L 15.23,22.73 L 15.36,22.73 L 22.46,19.18 Z" fill="#838179" stroke="none" /><path d="M 0.00,18.21 L 0.00,19.31 L 0.90,19.75 L 0.90,18.64 Z" fill="#838179" stroke="none" /><path d="M 22.49,18.24 L 22.49,18.28 L 23.36,18.71 L 24.27,18.28 L 24.23,18.21 L 23.43,17.81 L 23.33,17.81 Z" fill="#838179" stroke="none" /><path d="M 6.29,10.34 L 6.29,11.45 L 7.20,11.88 L 7.20,10.78 L 6.36,10.34 Z" fill="#838179" stroke="none" /><path d="M 0.94,7.63 L 0.90,7.63 L 0.90,8.67 L 0.87,8.70 L 0.07,8.30 L 0.00,8.30 L 0.00,17.10 L 0.84,17.54 L 0.90,17.54 L 0.90,8.80 L 0.97,8.77 L 5.39,10.98 L 5.39,9.87 L 5.36,9.84 Z" fill="#838179" stroke="none" /></svg>