<svg height="32" width="32" viewBox="0 0 32 32"><defs /><path d="M 15.43,27.38 L 15.35,27.38 L 14.32,27.91 L 14.32,29.26 L 15.43,28.73 Z" fill="#252723" stroke="none" /><path d="M 24.23,19.15 L 23.12,19.68 L 23.12,22.38 L 20.91,23.49 L 20.91,24.84 L 20.99,24.84 L 24.23,23.20 Z" fill="#252723" stroke="none" /><path d="M 14.32,27.91 L 12.11,29.01 L 12.11,30.36 L 14.32,29.26 Z" fill="#282b25" stroke="none" /><path d="M 17.60,26.27 L 15.43,27.34 L 15.43,28.69 L 15.51,28.69 L 17.60,27.62 Z" fill="#282b25" stroke="none" /><path d="M 20.91,24.63 L 20.83,24.63 L 19.81,25.17 L 19.81,26.52 L 20.91,25.98 Z" fill="#282b25" stroke="none" /><path d="M 24.23,16.49 L 24.14,16.49 L 23.12,17.02 L 23.12,19.68 L 23.20,19.68 L 24.23,19.15 Z" fill="#282b25" stroke="none" /><path d="M 24.23,7.04 L 23.12,7.57 L 23.12,11.62 L 24.23,11.09 Z" fill="#282b25" stroke="none" /><path d="M 11.01,28.48 L 10.93,28.48 L 7.73,30.08 L 7.73,31.43 L 7.82,31.43 L 11.01,29.83 Z" fill="#2b302b" stroke="none" /><path d="M 13.22,27.13 L 13.14,27.13 L 12.11,27.66 L 12.11,29.01 L 13.22,28.48 Z" fill="#2b302b" stroke="none" /><path d="M 18.70,24.39 L 18.62,24.39 L 16.49,25.45 L 16.49,26.80 L 16.57,26.80 L 17.55,26.31 L 17.60,26.35 L 17.60,27.62 L 19.81,26.52 L 19.81,25.17 L 18.74,25.70 L 18.70,25.66 Z" fill="#2b302b" stroke="none" /><path d="M 16.49,22.79 L 16.41,22.79 L 14.32,23.86 L 14.32,25.21 L 16.49,24.14 Z" fill="#2b302b" stroke="none" /><path d="M 20.91,21.93 L 20.83,21.93 L 19.81,22.47 L 19.81,23.82 L 20.91,23.28 Z" fill="#2b302b" stroke="none" /><path d="M 23.12,21.07 L 23.04,21.07 L 22.02,21.61 L 22.02,22.96 L 23.12,22.42 Z" fill="#2b302b" stroke="none" /><path d="M 19.81,14.40 L 19.72,14.40 L 17.60,15.47 L 17.60,16.82 L 17.68,16.82 L 19.81,15.75 Z" fill="#2b302b" stroke="none" /><path d="M 14.32,13.09 L 12.11,14.20 L 12.11,15.55 L 14.32,14.45 Z" fill="#2b302b" stroke="none" /><path d="M 23.04,10.31 L 22.02,10.84 L 22.02,14.85 L 22.10,14.85 L 23.04,14.36 L 23.12,14.40 L 23.12,17.02 L 23.16,17.02 L 24.23,16.49 L 24.23,11.09 L 24.14,11.09 L 23.16,11.58 L 23.12,11.54 L 23.12,10.31 Z" fill="#2b302b" stroke="none" /><path d="M 24.23,5.69 L 22.02,6.79 L 22.02,8.14 L 24.23,7.04 Z" fill="#2b302b" stroke="none" /><path d="M 11.01,27.13 L 10.93,27.13 L 8.80,28.19 L 8.80,29.54 L 8.88,29.54 L 11.01,28.48 Z" fill="#303432" stroke="none" /><path d="M 14.32,26.56 L 13.22,27.09 L 13.22,28.44 L 13.30,28.44 L 14.32,27.91 Z" fill="#303432" stroke="none" /><path d="M 11.01,20.38 L 8.80,21.48 L 8.80,24.18 L 9.90,23.65 L 9.90,22.30 L 11.01,21.73 Z" fill="#303432" stroke="none" /><path d="M 13.22,19.03 L 12.11,19.56 L 12.11,20.91 L 12.19,20.91 L 13.22,20.38 Z" fill="#303432" stroke="none" /><path d="M 23.12,19.72 L 23.04,19.72 L 22.02,20.26 L 22.02,21.57 L 21.93,21.65 L 20.91,22.14 L 20.91,23.24 L 19.89,23.77 L 19.81,23.73 L 19.81,22.51 L 19.89,22.42 L 20.91,21.93 L 20.91,20.58 L 20.83,20.58 L 18.70,21.65 L 18.70,23.00 L 17.64,23.53 L 17.60,23.49 L 17.60,22.22 L 16.53,22.75 L 16.49,22.71 L 16.49,21.44 L 18.70,20.34 L 18.70,18.99 L 16.53,20.05 L 16.49,20.09 L 16.49,21.40 L 14.32,22.51 L 14.32,23.82 L 14.24,23.90 L 12.11,24.96 L 12.11,26.31 L 14.28,25.25 L 14.32,25.21 L 14.32,23.90 L 14.40,23.82 L 16.45,22.79 L 16.49,22.83 L 16.49,24.10 L 16.57,24.10 L 17.51,23.61 L 17.60,23.65 L 17.60,24.92 L 18.66,24.39 L 18.70,24.43 L 18.70,25.70 L 18.78,25.70 L 20.91,24.63 L 20.91,23.53 L 22.02,22.96 L 22.02,21.65 L 22.10,21.57 L 23.12,21.07 Z" fill="#303432" stroke="none" /><path d="M 22.02,17.60 L 21.93,17.60 L 20.91,18.13 L 20.91,19.44 L 20.99,19.44 L 22.02,18.91 Z" fill="#303432" stroke="none" /><path d="M 17.60,15.51 L 17.51,15.51 L 15.43,16.57 L 15.43,17.88 L 15.35,17.96 L 14.32,18.46 L 14.32,19.81 L 14.40,19.81 L 16.49,18.74 L 16.49,17.43 L 16.57,17.35 L 17.60,16.86 Z" fill="#303432" stroke="none" /><path d="M 13.22,15.02 L 13.14,15.02 L 12.11,15.55 L 12.11,18.21 L 12.19,18.21 L 14.32,17.15 L 14.32,15.80 L 14.24,15.80 L 13.26,16.29 L 13.22,16.25 Z" fill="#303432" stroke="none" /><path d="M 11.01,13.67 L 10.93,13.67 L 7.73,15.26 L 7.73,16.61 L 7.82,16.61 L 9.82,15.59 L 9.90,15.63 L 9.90,16.86 L 9.82,16.94 L 8.80,17.43 L 8.80,18.78 L 11.01,17.68 Z" fill="#303432" stroke="none" /><path d="M 20.91,12.48 L 18.70,13.59 L 18.70,14.94 L 19.76,14.40 L 19.81,14.45 L 19.81,15.71 L 18.70,16.29 L 18.70,17.64 L 20.87,16.57 L 20.91,16.53 L 20.91,15.47 L 20.99,15.39 L 21.97,14.90 L 22.02,14.94 L 22.02,16.20 L 22.10,16.20 L 23.12,15.67 L 23.12,14.32 L 22.06,14.85 L 22.02,14.81 L 22.02,13.54 L 21.93,13.54 L 20.99,14.04 L 20.91,13.99 Z" fill="#303432" stroke="none" /><path d="M 17.60,10.11 L 14.40,11.70 L 14.32,11.66 L 14.32,10.39 L 14.28,10.39 L 12.11,11.50 L 12.11,12.85 L 13.18,12.32 L 13.22,12.36 L 13.22,13.63 L 13.30,13.63 L 14.28,13.14 L 14.32,13.18 L 14.32,14.45 L 14.36,14.45 L 15.43,13.91 L 15.43,12.56 L 15.47,12.52 L 17.60,11.46 Z" fill="#303432" stroke="none" /><path d="M 23.12,7.61 L 23.04,7.61 L 22.06,8.10 L 22.02,8.06 L 22.02,6.79 L 20.95,7.32 L 20.91,7.28 L 20.91,7.12 L 20.83,7.12 L 19.85,7.61 L 19.81,7.57 L 19.81,6.30 L 19.76,6.30 L 16.49,7.94 L 16.49,9.29 L 16.57,9.29 L 18.66,8.23 L 18.70,8.27 L 18.70,9.53 L 18.78,9.53 L 20.87,8.47 L 20.91,8.51 L 20.91,10.03 L 20.99,10.03 L 23.12,8.96 Z" fill="#303432" stroke="none" /><path d="M 7.73,26.07 L 7.65,26.07 L 6.63,26.60 L 6.63,29.30 L 7.73,28.77 Z" fill="#393c39" stroke="none" /><path d="M 11.01,25.78 L 10.93,25.78 L 9.90,26.31 L 9.90,27.66 L 11.01,27.13 Z" fill="#393c39" stroke="none" /><path d="M 15.43,24.68 L 15.35,24.68 L 12.15,26.27 L 12.11,26.31 L 12.11,27.66 L 15.43,26.03 Z" fill="#393c39" stroke="none" /><path d="M 11.01,23.08 L 8.80,24.18 L 8.80,25.49 L 8.88,25.49 L 11.01,24.43 Z" fill="#393c39" stroke="none" /><path d="M 8.80,21.48 L 7.73,22.02 L 7.73,23.37 L 8.80,22.83 Z" fill="#393c39" stroke="none" /><path d="M 15.43,20.62 L 12.11,22.26 L 12.11,24.96 L 13.22,24.43 L 13.22,23.08 L 13.26,23.04 L 15.43,21.97 Z" fill="#393c39" stroke="none" /><path d="M 11.01,19.03 L 9.90,19.56 L 9.90,20.91 L 9.98,20.91 L 11.01,20.38 Z" fill="#393c39" stroke="none" /><path d="M 8.80,18.78 L 7.73,19.31 L 7.73,20.66 L 8.80,20.13 Z" fill="#393c39" stroke="none" /><path d="M 20.91,16.53 L 17.60,18.17 L 17.60,19.52 L 17.68,19.52 L 19.76,18.46 L 19.81,18.50 L 19.81,19.76 L 20.91,19.23 Z" fill="#393c39" stroke="none" /><path d="M 11.01,12.32 L 10.93,12.32 L 8.80,13.38 L 8.80,14.73 L 8.88,14.73 L 11.01,13.67 Z" fill="#393c39" stroke="none" /><path d="M 19.81,11.70 L 15.43,13.87 L 15.43,15.18 L 15.35,15.26 L 14.32,15.75 L 14.32,17.10 L 14.40,17.10 L 17.60,15.51 L 17.60,14.16 L 19.81,13.05 Z" fill="#393c39" stroke="none" /><path d="M 17.60,8.76 L 15.47,9.82 L 15.43,9.78 L 15.43,8.51 L 15.35,8.51 L 13.22,9.58 L 13.22,10.93 L 13.30,10.93 L 15.39,9.86 L 15.43,9.90 L 15.43,11.17 L 15.51,11.17 L 17.60,10.11 Z" fill="#393c39" stroke="none" /><path d="M 19.81,4.95 L 17.60,6.06 L 17.60,7.41 L 19.81,6.30 Z" fill="#393c39" stroke="none" /><path d="M 8.80,22.83 L 7.73,23.37 L 7.73,28.73 L 6.63,29.30 L 6.63,32.00 L 7.73,31.47 L 7.73,30.12 L 8.80,29.59 L 8.80,28.24 L 9.90,27.66 L 9.90,26.35 L 9.98,26.27 L 11.01,25.78 L 11.01,24.43 L 10.93,24.43 L 8.84,25.49 L 8.80,25.45 Z" fill="#34393a" stroke="none" /><path d="M 14.32,22.51 L 13.22,23.04 L 13.22,24.39 L 13.30,24.39 L 14.32,23.86 Z" fill="#34393a" stroke="none" /><path d="M 11.01,21.73 L 9.90,22.26 L 9.90,23.61 L 9.98,23.61 L 11.01,23.08 Z" fill="#34393a" stroke="none" /><path d="M 9.90,15.55 L 7.73,16.61 L 7.73,19.31 L 8.76,18.82 L 8.80,18.86 L 8.80,20.13 L 11.01,19.03 L 11.01,17.68 L 8.88,18.74 L 8.80,18.70 L 8.80,17.47 L 9.90,16.90 Z" fill="#34393a" stroke="none" /><path d="M 22.02,14.90 L 21.93,14.90 L 20.91,15.43 L 20.91,18.13 L 21.97,17.60 L 22.02,17.64 L 22.02,18.86 L 21.93,18.95 L 20.95,19.44 L 20.91,19.40 L 20.91,19.23 L 20.83,19.23 L 19.85,19.72 L 19.81,19.68 L 19.81,18.46 L 19.72,18.46 L 18.70,18.99 L 18.70,20.30 L 18.66,20.34 L 16.53,21.40 L 16.49,21.36 L 16.49,20.13 L 16.57,20.05 L 17.60,19.56 L 17.60,18.21 L 18.70,17.64 L 18.70,16.29 L 16.53,17.35 L 16.49,17.39 L 16.49,18.70 L 16.41,18.78 L 14.36,19.81 L 14.32,19.76 L 14.32,18.50 L 15.43,17.92 L 15.43,16.57 L 12.11,18.21 L 12.11,19.56 L 12.19,19.56 L 13.14,19.07 L 13.22,19.11 L 13.22,20.34 L 13.14,20.42 L 12.11,20.91 L 12.11,22.26 L 12.19,22.26 L 15.39,20.66 L 15.43,20.71 L 15.43,21.93 L 15.51,21.93 L 16.45,21.44 L 16.49,21.48 L 16.49,22.75 L 16.57,22.75 L 17.51,22.26 L 17.60,22.30 L 17.60,23.53 L 17.51,23.61 L 15.43,24.63 L 15.43,25.98 L 14.32,26.56 L 14.32,27.91 L 16.49,26.84 L 16.49,25.49 L 17.60,24.92 L 17.60,23.61 L 17.68,23.53 L 18.70,23.04 L 18.70,21.69 L 18.74,21.65 L 20.87,20.58 L 20.91,20.62 L 20.91,22.14 L 20.99,22.14 L 22.02,21.61 L 22.02,20.30 L 22.10,20.21 L 23.12,19.72 L 23.12,15.67 L 22.06,16.20 L 22.02,16.16 Z" fill="#34393a" stroke="none" /><path d="M 18.70,13.59 L 17.60,14.12 L 17.60,15.47 L 17.68,15.47 L 18.70,14.94 Z" fill="#34393a" stroke="none" /><path d="M 13.22,12.32 L 13.14,12.32 L 12.11,12.85 L 12.11,14.20 L 13.22,13.67 Z" fill="#34393a" stroke="none" /><path d="M 13.22,9.62 L 13.14,9.62 L 12.11,10.15 L 12.11,11.50 L 13.22,10.97 Z" fill="#34393a" stroke="none" /><path d="M 23.12,8.96 L 23.04,8.96 L 20.95,10.03 L 20.91,9.98 L 20.91,8.47 L 20.83,8.47 L 18.74,9.53 L 18.70,9.49 L 18.70,8.23 L 18.62,8.23 L 17.64,8.72 L 17.60,8.76 L 17.60,11.42 L 17.51,11.50 L 15.43,12.52 L 15.43,13.87 L 15.39,13.91 L 13.22,14.98 L 13.22,16.33 L 15.43,15.22 L 15.43,13.91 L 15.47,13.87 L 19.72,11.74 L 19.81,11.79 L 19.81,13.01 L 19.89,13.01 L 20.83,12.52 L 20.91,12.56 L 20.91,14.08 L 22.02,13.54 L 22.02,10.88 L 22.10,10.80 L 23.12,10.31 Z" fill="#34393a" stroke="none" /><path d="M 16.49,7.98 L 16.41,7.98 L 15.43,8.47 L 15.43,9.82 L 14.32,10.39 L 14.32,11.74 L 15.43,11.21 L 15.43,9.86 L 16.49,9.33 Z" fill="#34393a" stroke="none" /><path d="M 20.91,5.77 L 20.83,5.77 L 19.81,6.30 L 19.81,7.65 L 20.91,7.12 Z" fill="#34393a" stroke="none" /><path d="M 7.73,24.72 L 6.63,25.25 L 6.63,26.60 L 7.73,26.07 Z" fill="#3f3f3b" stroke="none" /><path d="M 9.90,19.60 L 9.82,19.60 L 7.73,20.66 L 7.73,21.97 L 7.65,22.06 L 6.63,22.55 L 6.63,23.90 L 6.71,23.90 L 7.73,23.37 L 7.73,22.06 L 7.82,21.97 L 9.90,20.95 Z" fill="#3f3f3b" stroke="none" /><path d="M 8.80,13.42 L 8.72,13.42 L 7.73,13.91 L 7.73,15.26 L 7.82,15.26 L 8.80,14.77 Z" fill="#3f3f3b" stroke="none" /><path d="M 15.43,7.16 L 15.35,7.16 L 14.32,7.69 L 14.32,9.04 L 15.43,8.51 Z" fill="#3f3f3b" stroke="none" /><path d="M 17.60,6.06 L 16.49,6.59 L 16.49,7.94 L 16.57,7.94 L 17.60,7.41 Z" fill="#3f3f3b" stroke="none" /><path d="M 20.91,4.42 L 20.83,4.42 L 19.81,4.95 L 19.81,6.30 L 20.91,5.77 Z" fill="#3f3f3b" stroke="none" /><path d="M 7.73,23.37 L 6.63,23.90 L 6.63,25.25 L 6.71,25.25 L 7.73,24.72 Z" fill="#464541" stroke="none" /><path d="M 7.73,13.95 L 7.65,13.95 L 6.63,14.49 L 6.63,22.55 L 6.71,22.55 L 7.73,22.02 Z" fill="#464541" stroke="none" /><path d="M 14.32,7.69 L 12.11,8.80 L 12.11,10.15 L 14.32,9.04 Z" fill="#464541" stroke="none" /><path d="M 16.49,6.63 L 16.41,6.63 L 15.43,7.12 L 15.43,8.47 L 15.51,8.47 L 16.49,7.98 Z" fill="#464541" stroke="none" /><path d="M 1.10,27.91 L 1.10,29.26 L 2.21,29.79 L 2.21,28.44 Z" fill="#444941" stroke="none" /><path d="M 20.95,5.12 L 20.95,5.20 L 21.93,5.69 L 22.06,5.69 L 23.08,5.16 L 23.08,5.12 L 22.10,4.62 L 21.93,4.62 Z" fill="#444941" stroke="none" /><path d="M 11.01,28.48 L 11.01,29.83 L 12.11,30.36 L 12.11,29.01 L 11.09,28.48 Z" fill="#4a5044" stroke="none" /><path d="M 2.21,28.48 L 2.21,29.79 L 4.42,30.90 L 4.42,29.54 L 2.29,28.48 Z" fill="#4a5044" stroke="none" /><path d="M 0.00,27.38 L 0.00,28.69 L 1.02,29.22 L 1.10,29.22 L 1.10,27.91 L 0.08,27.38 Z" fill="#4a5044" stroke="none" /><path d="M 22.02,5.69 L 22.02,5.73 L 23.08,6.26 L 24.18,5.73 L 24.14,5.65 L 23.16,5.16 L 23.04,5.16 Z" fill="#4a5044" stroke="none" /><path d="M 19.48,3.64 L 19.52,3.72 L 20.91,4.42 L 20.91,5.16 L 22.02,4.62 L 22.02,4.58 L 19.89,3.52 L 19.72,3.52 Z" fill="#4a5044" stroke="none" /><path d="M 3.31,27.66 L 3.31,29.01 L 4.42,29.59 L 4.42,30.90 L 6.63,32.00 L 6.63,30.65 L 5.61,30.16 L 5.52,30.08 L 5.52,28.77 Z" fill="#515950" stroke="none" /><path d="M 11.01,25.78 L 11.01,27.13 L 12.11,27.66 L 12.11,26.31 L 11.09,25.78 Z" fill="#515950" stroke="none" /><path d="M 1.10,23.86 L 1.10,25.21 L 3.31,26.31 L 3.31,24.96 Z" fill="#515950" stroke="none" /><path d="M 4.42,18.78 L 4.42,20.13 L 6.63,21.24 L 6.63,19.89 Z" fill="#515950" stroke="none" /><path d="M 0.00,12.56 L 0.00,13.87 L 1.02,14.40 L 1.10,14.40 L 1.10,13.09 L 0.08,12.56 Z" fill="#515950" stroke="none" /><path d="M 9.94,7.69 L 9.94,7.73 L 12.07,8.80 L 12.15,8.80 L 13.18,8.27 L 13.18,8.23 L 11.05,7.16 L 10.97,7.16 Z" fill="#515950" stroke="none" /><path d="M 7.73,3.27 L 7.77,3.36 L 9.90,4.42 L 11.01,3.89 L 10.97,3.81 L 8.84,2.74 Z" fill="#515950" stroke="none" /><path d="M 17.31,2.54 L 17.31,2.62 L 19.44,3.68 L 19.81,3.52 L 19.81,3.48 L 17.68,2.41 L 17.55,2.41 Z" fill="#515950" stroke="none" /><path d="M 11.01,27.13 L 11.01,28.48 L 12.11,29.01 L 12.11,27.66 L 11.09,27.13 Z" fill="#5a615d" stroke="none" /><path d="M 0.00,26.03 L 0.00,27.38 L 1.10,27.91 L 1.10,26.56 L 0.08,26.03 Z" fill="#5a615d" stroke="none" /><path d="M 11.01,24.43 L 11.01,25.78 L 12.11,26.31 L 12.11,24.96 L 11.09,24.43 Z" fill="#5a615d" stroke="none" /><path d="M 0.00,23.32 L 0.00,24.68 L 1.10,25.21 L 1.10,23.94 L 1.19,23.90 L 3.23,24.92 L 3.31,25.00 L 3.31,26.31 L 4.42,26.88 L 4.42,28.24 L 5.44,28.73 L 5.52,28.81 L 5.52,30.12 L 6.55,30.65 L 6.63,30.65 L 6.63,26.60 L 5.52,26.07 L 5.52,27.34 L 5.48,27.38 L 4.46,26.88 L 4.42,26.84 L 4.42,25.49 L 3.40,25.00 L 3.31,24.92 L 3.31,23.69 L 3.36,23.65 L 5.52,24.72 L 5.52,23.37 L 3.40,22.30 L 3.31,22.30 L 3.31,23.53 L 3.27,23.57 L 1.15,22.51 L 1.10,22.51 L 1.10,23.77 L 1.06,23.82 L 0.08,23.32 Z" fill="#5a615d" stroke="none" /><path d="M 5.52,20.71 L 5.52,22.06 L 6.63,22.59 L 6.63,21.24 L 5.61,20.71 Z" fill="#5a615d" stroke="none" /><path d="M 5.52,18.01 L 5.52,19.36 L 6.63,19.89 L 6.63,18.54 L 5.61,18.01 Z" fill="#5a615d" stroke="none" /><path d="M 2.21,17.68 L 2.21,18.95 L 2.17,18.99 L 1.19,18.50 L 1.10,18.50 L 1.10,19.85 L 3.23,20.91 L 3.31,20.91 L 3.31,19.64 L 3.36,19.60 L 4.42,20.13 L 4.42,18.78 Z" fill="#5a615d" stroke="none" /><path d="M 11.01,16.33 L 11.01,20.38 L 12.03,20.91 L 12.11,20.91 L 12.11,16.86 Z" fill="#5a615d" stroke="none" /><path d="M 0.00,15.22 L 0.00,16.57 L 1.02,17.10 L 1.10,17.10 L 1.10,15.75 Z" fill="#5a615d" stroke="none" /><path d="M 0.00,11.21 L 0.00,12.56 L 1.02,13.05 L 1.10,13.14 L 1.10,14.45 L 2.21,14.98 L 2.21,13.71 L 2.25,13.67 L 4.34,14.73 L 4.42,14.73 L 4.42,13.38 L 0.08,11.21 Z" fill="#5a615d" stroke="none" /><path d="M 1.15,10.64 L 1.15,10.68 L 4.34,12.28 L 4.50,12.28 L 5.48,11.79 L 5.48,11.70 L 3.36,10.64 L 4.38,10.11 L 4.38,10.07 L 3.40,9.58 L 3.23,9.58 Z" fill="#5a615d" stroke="none" /><path d="M 5.52,10.64 L 5.52,10.68 L 8.68,12.24 L 8.72,12.28 L 8.68,12.36 L 7.73,12.81 L 7.73,12.85 L 8.76,13.38 L 8.88,13.38 L 10.97,12.32 L 11.05,12.32 L 12.11,12.85 L 12.11,11.50 L 11.01,10.93 L 11.01,9.58 L 7.82,7.98 L 7.73,7.98 L 7.73,9.33 L 9.82,10.35 L 9.90,10.43 L 9.90,11.66 L 9.82,11.70 L 6.67,10.11 L 6.55,10.11 Z" fill="#5a615d" stroke="none" /><path d="M 3.31,7.12 L 3.31,8.47 L 5.44,9.53 L 5.52,9.53 L 5.52,8.18 L 3.40,7.12 Z" fill="#5a615d" stroke="none" /><path d="M 8.84,7.12 L 8.88,7.20 L 9.86,7.69 L 9.98,7.69 L 10.97,7.20 L 10.97,7.12 L 9.98,6.63 L 9.82,6.63 Z" fill="#5a615d" stroke="none" /><path d="M 12.11,6.59 L 12.11,6.63 L 13.18,7.16 L 12.11,7.69 L 12.11,7.73 L 13.18,8.27 L 15.39,7.16 L 15.39,7.12 L 13.26,6.06 L 13.18,6.06 Z" fill="#5a615d" stroke="none" /><path d="M 20.91,6.22 L 20.91,6.26 L 21.97,6.79 L 22.06,6.79 L 23.08,6.26 L 23.08,6.22 L 22.02,5.69 Z" fill="#5a615d" stroke="none" /><path d="M 15.47,6.02 L 15.47,6.10 L 16.45,6.59 L 16.57,6.59 L 17.55,6.10 L 17.55,6.02 L 16.57,5.52 L 16.45,5.52 Z" fill="#5a615d" stroke="none" /><path d="M 9.94,4.38 L 9.98,4.46 L 12.03,5.48 L 12.19,5.48 L 13.22,4.95 L 14.24,5.48 L 14.40,5.48 L 15.39,4.99 L 15.35,4.91 L 13.22,3.85 L 12.15,4.38 L 12.07,4.38 L 11.05,3.85 Z" fill="#5a615d" stroke="none" /><path d="M 12.15,2.17 L 12.15,2.25 L 14.28,3.31 L 15.35,2.78 L 15.47,2.78 L 17.55,3.85 L 17.68,3.85 L 18.70,3.31 L 18.70,3.27 L 16.57,2.21 L 16.45,2.21 L 15.39,2.74 L 13.30,1.68 L 13.14,1.68 Z" fill="#5a615d" stroke="none" /><path d="M 11.01,2.74 L 8.88,1.68 L 8.72,1.68 L 5.52,3.27 L 5.52,3.31 L 7.73,4.42 L 8.80,3.89 L 8.76,3.81 L 7.82,3.36 L 7.77,3.31 L 7.86,3.23 L 8.76,2.78 L 8.88,2.78 L 9.94,3.31 L 11.01,2.78 Z" fill="#5a615d" stroke="none" /><path d="M 0.00,24.68 L 0.00,26.03 L 2.13,27.09 L 2.21,27.09 L 2.21,25.74 L 0.08,24.68 Z" fill="#6b706a" stroke="none" /><path d="M 4.42,21.48 L 4.42,22.83 L 6.63,23.94 L 6.63,22.59 Z" fill="#6b706a" stroke="none" /><path d="M 0.00,20.62 L 0.00,21.97 L 2.13,23.04 L 2.21,23.04 L 2.21,21.73 Z" fill="#6b706a" stroke="none" /><path d="M 11.01,20.38 L 11.01,23.08 L 12.11,23.61 L 12.11,20.91 Z" fill="#6b706a" stroke="none" /><path d="M 1.10,15.80 L 1.10,17.15 L 4.38,18.78 L 4.42,18.78 L 4.42,17.51 L 4.46,17.47 L 6.63,18.54 L 6.63,17.19 L 6.59,17.15 L 2.25,14.98 L 2.21,14.98 L 2.21,16.25 L 2.17,16.29 L 1.19,15.80 Z" fill="#6b706a" stroke="none" /><path d="M 4.42,11.17 L 4.42,11.21 L 6.55,12.28 L 6.51,12.36 L 5.57,12.81 L 5.57,12.89 L 7.69,13.95 L 8.80,13.42 L 8.76,13.34 L 6.71,12.32 L 6.75,12.24 L 7.69,11.79 L 7.65,11.70 L 5.52,10.64 Z" fill="#6b706a" stroke="none" /><path d="M 0.04,11.17 L 0.08,11.25 L 2.13,12.28 L 2.29,12.28 L 3.27,11.79 L 3.27,11.70 L 1.15,10.64 Z" fill="#6b706a" stroke="none" /><path d="M 8.80,7.16 L 8.80,8.51 L 10.93,9.58 L 11.01,9.58 L 11.01,8.23 L 8.88,7.16 Z" fill="#6b706a" stroke="none" /><path d="M 4.42,6.30 L 4.42,7.65 L 6.55,8.72 L 6.63,8.80 L 6.63,10.11 L 6.67,10.15 L 8.72,11.17 L 8.80,11.17 L 8.80,9.82 L 6.71,8.80 L 6.63,8.72 L 6.63,7.41 Z" fill="#6b706a" stroke="none" /><path d="M 20.91,6.26 L 20.91,7.32 L 20.99,7.32 L 21.97,6.83 L 21.97,6.75 L 20.99,6.26 Z" fill="#6b706a" stroke="none" /><path d="M 5.52,4.38 L 5.57,4.46 L 9.82,6.59 L 9.98,6.59 L 11.01,6.06 L 12.03,6.59 L 12.19,6.59 L 13.18,6.10 L 13.18,6.02 L 9.98,4.42 L 9.86,4.42 L 8.80,4.95 L 6.63,3.85 Z" fill="#6b706a" stroke="none" /><path d="M 15.43,3.85 L 15.43,3.89 L 18.62,5.48 L 18.78,5.48 L 20.91,4.42 L 20.91,4.38 L 19.85,3.85 L 18.78,4.38 L 18.66,4.38 L 16.57,3.31 L 16.45,3.31 Z" fill="#6b706a" stroke="none" /><path d="M 8.80,1.64 L 8.80,1.68 L 12.07,3.31 L 12.15,3.31 L 13.22,2.78 L 13.22,2.74 L 11.09,1.68 L 11.13,1.60 L 12.07,1.15 L 12.07,1.06 L 11.09,0.57 L 10.93,0.57 Z" fill="#6b706a" stroke="none" /><path d="M 11.01,23.08 L 11.01,24.43 L 12.11,24.96 L 12.11,23.61 L 11.09,23.08 Z" fill="#626b6c" stroke="none" /><path d="M 0.00,21.97 L 0.00,23.32 L 1.10,23.86 L 1.10,22.51 L 0.08,21.97 Z" fill="#626b6c" stroke="none" /><path d="M 4.42,17.43 L 4.42,18.78 L 5.44,19.31 L 5.52,19.31 L 5.52,17.96 Z" fill="#626b6c" stroke="none" /><path d="M 0.00,16.57 L 0.00,20.62 L 2.13,21.69 L 2.21,21.77 L 2.21,23.08 L 3.23,23.57 L 3.31,23.65 L 3.31,24.96 L 4.42,25.53 L 4.42,26.80 L 4.38,26.84 L 2.29,25.78 L 2.21,25.78 L 2.21,27.05 L 2.17,27.09 L 1.10,26.56 L 1.10,27.91 L 3.31,29.01 L 3.31,27.74 L 3.40,27.70 L 4.34,28.19 L 4.42,28.19 L 4.42,26.93 L 4.46,26.88 L 5.52,27.42 L 5.52,26.15 L 5.57,26.11 L 6.55,26.60 L 6.63,26.60 L 6.63,23.94 L 5.61,23.41 L 5.52,23.41 L 5.52,24.63 L 5.44,24.68 L 3.40,23.65 L 3.31,23.57 L 3.31,22.34 L 3.36,22.30 L 4.42,22.83 L 4.42,21.57 L 4.46,21.52 L 5.44,22.02 L 5.52,22.02 L 5.52,20.66 L 3.40,19.60 L 3.31,19.60 L 3.31,20.87 L 3.27,20.91 L 1.15,19.85 L 1.10,19.81 L 1.10,18.54 L 1.15,18.50 L 2.21,19.03 L 2.21,17.68 Z" fill="#626b6c" stroke="none" /><path d="M 6.63,17.19 L 6.63,14.49 L 4.50,13.42 L 4.42,13.42 L 4.42,14.69 L 4.38,14.73 L 2.29,13.67 L 2.21,13.67 L 2.21,14.90 L 2.17,14.94 L 0.00,13.87 L 0.00,15.22 L 0.04,15.26 L 2.21,16.33 L 2.21,15.06 L 2.29,15.02 Z" fill="#626b6c" stroke="none" /><path d="M 11.01,12.32 L 11.01,16.33 L 12.03,16.86 L 12.11,16.86 L 12.11,12.85 L 11.09,12.32 Z" fill="#626b6c" stroke="none" /><path d="M 4.42,12.28 L 4.42,12.32 L 5.48,12.85 L 5.57,12.85 L 6.59,12.32 L 6.67,12.32 L 7.73,12.85 L 8.80,12.32 L 8.80,12.28 L 7.73,11.74 L 6.67,12.28 L 6.59,12.28 L 5.57,11.74 L 5.48,11.74 Z" fill="#626b6c" stroke="none" /><path d="M 8.80,9.86 L 8.80,11.21 L 9.90,11.74 L 9.90,10.39 L 8.88,9.86 Z" fill="#626b6c" stroke="none" /><path d="M 11.01,9.62 L 11.01,10.97 L 12.11,11.50 L 12.11,10.15 L 11.09,9.62 Z" fill="#626b6c" stroke="none" /><path d="M 7.73,7.94 L 6.63,7.41 L 6.63,8.68 L 6.55,8.72 L 5.61,8.23 L 5.52,8.23 L 5.52,9.49 L 5.48,9.53 L 3.40,8.47 L 3.31,8.47 L 3.31,9.58 L 4.26,10.03 L 4.34,10.11 L 3.36,10.60 L 3.36,10.68 L 4.34,11.17 L 4.50,11.17 L 6.63,10.11 L 6.63,8.84 L 6.67,8.80 L 7.65,9.29 L 7.73,9.29 Z" fill="#626b6c" stroke="none" /><path d="M 3.31,5.77 L 3.31,7.12 L 4.42,7.65 L 4.42,6.30 L 3.40,5.77 Z" fill="#626b6c" stroke="none" /><path d="M 20.91,5.16 L 20.91,6.22 L 20.99,6.22 L 21.97,5.73 L 21.93,5.65 Z" fill="#626b6c" stroke="none" /><path d="M 7.73,4.38 L 7.77,4.46 L 8.76,4.95 L 8.88,4.95 L 9.90,4.42 L 9.90,4.38 L 8.84,3.85 Z" fill="#626b6c" stroke="none" /><path d="M 17.64,3.85 L 17.64,3.89 L 18.70,4.42 L 19.81,3.89 L 19.76,3.81 L 18.78,3.31 L 18.66,3.31 Z" fill="#626b6c" stroke="none" /><path d="M 3.31,4.38 L 3.31,4.42 L 8.80,7.16 L 9.86,6.63 L 9.94,6.63 L 12.03,7.69 L 12.19,7.69 L 13.18,7.20 L 13.18,7.12 L 11.05,6.06 L 10.97,6.06 L 9.94,6.59 L 9.86,6.59 L 5.61,4.46 L 5.57,4.42 L 5.65,4.34 L 6.59,3.89 L 6.59,3.85 L 5.57,3.31 L 5.44,3.31 Z" fill="#626b6c" stroke="none" /><path d="M 11.01,0.53 L 11.01,0.57 L 12.07,1.10 L 11.01,1.64 L 11.01,1.68 L 12.07,2.21 L 12.15,2.21 L 13.18,1.68 L 13.26,1.68 L 15.35,2.74 L 15.26,2.82 L 14.36,3.27 L 14.24,3.27 L 13.30,2.78 L 13.14,2.78 L 12.11,3.31 L 11.09,2.78 L 10.93,2.78 L 9.94,3.27 L 9.98,3.36 L 12.03,4.38 L 12.19,4.38 L 13.14,3.89 L 13.26,3.89 L 15.35,4.95 L 15.26,5.03 L 14.36,5.48 L 14.28,5.48 L 13.26,4.95 L 13.18,4.95 L 12.11,5.48 L 12.11,5.52 L 15.39,7.16 L 16.49,6.63 L 16.45,6.55 L 15.47,6.06 L 16.49,5.52 L 17.55,6.06 L 17.64,6.06 L 18.70,5.52 L 18.70,5.48 L 15.55,3.93 L 15.47,3.85 L 16.49,3.31 L 16.49,3.27 L 15.55,2.82 L 15.47,2.74 L 16.45,2.25 L 16.49,2.17 L 12.15,0.00 L 12.07,0.00 Z" fill="#626b6c" stroke="none" /><path d="M 4.42,13.38 L 4.42,13.42 L 5.48,13.95 L 6.59,13.42 L 6.55,13.34 L 5.57,12.85 L 5.48,12.85 Z" fill="#75766e" stroke="none" /><path d="M 2.21,12.28 L 2.21,12.32 L 3.27,12.85 L 3.36,12.85 L 4.42,12.32 L 4.42,12.28 L 3.36,11.74 L 3.27,11.74 Z" fill="#75766e" stroke="none" /><path d="M 11.01,8.27 L 11.01,9.62 L 12.11,10.15 L 12.11,8.80 L 11.09,8.27 Z" fill="#75766e" stroke="none" /><path d="M 7.73,6.63 L 7.73,7.98 L 8.72,8.47 L 8.80,8.47 L 8.80,7.12 L 7.82,6.63 Z" fill="#75766e" stroke="none" /><path d="M 5.52,5.52 L 5.52,6.87 L 6.63,7.41 L 6.63,6.06 L 5.61,5.52 Z" fill="#75766e" stroke="none" /><path d="M 5.52,13.91 L 5.57,13.99 L 6.55,14.49 L 6.67,14.49 L 7.69,13.95 L 7.69,13.91 L 6.63,13.38 Z" fill="#838179" stroke="none" /><path d="M 3.36,12.81 L 3.36,12.89 L 4.34,13.38 L 4.50,13.38 L 5.48,12.89 L 5.48,12.81 L 4.50,12.32 L 4.34,12.32 Z" fill="#838179" stroke="none" /><path d="M 6.63,6.06 L 6.63,7.41 L 7.65,7.94 L 7.73,7.94 L 7.73,6.59 Z" fill="#838179" stroke="none" /><path d="M 3.31,4.42 L 3.31,5.77 L 5.44,6.83 L 5.52,6.83 L 5.52,5.48 L 3.40,4.42 Z" fill="#838179" stroke="none" /></svg>