<svg height="32" width="32" viewBox="0 0 32 32"><defs /><path d="M 19.18,24.74 L 18.95,24.74 L 16.00,26.21 L 16.00,30.18 L 19.18,28.60 Z" fill="#0c070b" stroke="none" /><path d="M 32.00,14.30 L 25.65,17.48 L 25.65,21.45 L 32.00,18.27 Z" fill="#0c070b" stroke="none" /><path d="M 32.00,18.27 L 25.76,21.33 L 25.65,21.22 L 25.65,17.48 L 25.53,17.48 L 16.11,22.24 L 16.00,22.13 L 16.00,18.38 L 15.77,18.38 L 12.82,19.86 L 12.82,23.83 L 13.05,23.83 L 15.89,22.35 L 16.00,22.47 L 16.00,26.21 L 12.82,27.80 L 12.82,31.77 L 16.00,30.18 L 16.00,26.33 L 19.06,24.74 L 19.18,24.85 L 19.18,28.60 L 19.29,28.60 L 32.00,22.24 Z" fill="#0f0d0b" stroke="none" /><path d="M 28.82,8.06 L 25.65,9.65 L 25.65,13.50 L 28.82,11.91 Z" fill="#0f0d0b" stroke="none" /><path d="M 9.65,22.35 L 9.65,26.33 L 12.60,27.80 L 12.82,27.80 L 12.82,23.94 Z" fill="#140c11" stroke="none" /><path d="M 0.00,21.45 L 0.00,25.42 L 2.95,26.89 L 3.18,26.89 L 3.18,23.04 Z" fill="#140c11" stroke="none" /><path d="M 0.00,17.59 L 0.00,21.45 L 2.95,22.92 L 3.18,23.15 L 3.18,27.01 L 12.82,31.77 L 12.82,27.80 L 9.65,26.21 L 9.65,22.35 L 0.23,17.59 Z" fill="#191612" stroke="none" /><path d="M 9.65,14.52 L 9.65,18.38 L 12.82,19.97 L 12.82,16.00 L 9.87,14.52 Z" fill="#191612" stroke="none" /><path d="M 22.47,11.23 L 19.18,12.82 L 19.18,16.68 L 16.11,18.27 L 16.00,18.16 L 16.00,14.52 L 15.77,14.52 L 12.82,16.00 L 12.82,19.86 L 13.05,19.86 L 15.89,18.38 L 16.00,18.50 L 16.00,22.24 L 12.82,23.83 L 12.82,27.80 L 13.05,27.80 L 16.00,26.33 L 16.00,22.35 L 16.11,22.24 L 22.47,19.06 Z" fill="#131115" stroke="none" /><path d="M 32.00,6.47 L 28.82,8.06 L 28.82,11.80 L 28.60,12.03 L 25.65,13.50 L 25.65,17.48 L 32.00,14.30 Z" fill="#131115" stroke="none" /><path d="M 19.18,12.94 L 18.95,12.94 L 16.00,14.41 L 16.00,18.27 L 16.23,18.27 L 19.18,16.79 Z" fill="#18161c" stroke="none" /><path d="M 25.65,9.65 L 22.47,11.23 L 22.47,19.06 L 25.65,17.48 Z" fill="#18161c" stroke="none" /><path d="M 19.18,12.82 L 16.11,11.23 L 15.89,11.23 L 9.76,14.30 L 9.65,14.52 L 12.60,16.00 L 13.05,16.00 L 19.18,12.94 Z" fill="#27221c" stroke="none" /><path d="M 25.65,6.35 L 22.35,4.77 L 19.29,6.35 L 19.06,6.35 L 16.23,4.88 L 15.77,4.88 L 12.82,6.35 L 12.82,6.47 L 19.29,9.65 L 25.65,6.47 Z" fill="#27221c" stroke="none" /><path d="M 9.65,18.38 L 9.65,22.35 L 12.82,23.94 L 12.82,19.97 Z" fill="#1f1c23" stroke="none" /><path d="M 3.18,11.23 L 3.18,14.98 L 3.06,15.09 L 0.23,13.62 L 0.00,13.62 L 0.00,17.59 L 6.13,20.65 L 6.35,20.65 L 6.35,12.82 Z" fill="#1f1c23" stroke="none" /><path d="M 6.35,12.82 L 6.35,20.77 L 9.65,22.35 L 9.65,14.41 Z" fill="#26252e" stroke="none" /><path d="M 0.00,9.65 L 0.00,13.62 L 2.95,15.09 L 3.18,15.09 L 3.18,11.23 Z" fill="#26252e" stroke="none" /><path d="M 6.47,12.71 L 6.47,12.94 L 9.42,14.41 L 9.76,14.41 L 12.71,12.94 L 12.60,12.71 L 9.65,11.23 L 9.42,11.23 Z" fill="#302b35" stroke="none" /><path d="M 16.11,11.12 L 16.11,11.35 L 19.06,12.82 L 19.40,12.82 L 22.35,11.35 L 22.35,11.12 L 19.40,9.65 L 19.06,9.65 Z" fill="#302b35" stroke="none" /><path d="M 9.53,7.94 L 6.58,6.47 L 6.13,6.47 L 0.00,9.53 L 0.00,9.65 L 3.06,11.23 L 3.29,11.23 L 9.42,8.17 Z" fill="#302b35" stroke="none" /><path d="M 22.35,1.59 L 19.29,0.00 L 19.06,0.00 L 12.94,3.06 L 12.82,3.29 L 18.95,6.35 L 19.40,6.35 L 22.35,4.88 L 22.24,4.65 L 19.63,3.40 L 19.40,3.18 L 22.35,1.70 Z" fill="#302b35" stroke="none" /><path d="M 28.82,4.77 L 22.35,1.59 L 19.40,3.06 L 19.29,3.29 L 25.30,6.24 L 25.42,6.35 L 25.30,6.58 L 19.40,9.53 L 19.06,9.53 L 16.23,8.06 L 15.77,8.06 L 12.94,9.53 L 12.60,9.53 L 9.76,8.06 L 9.99,7.83 L 16.00,4.88 L 16.00,4.77 L 12.71,3.18 L 6.35,6.35 L 6.35,6.47 L 9.19,7.83 L 9.42,8.06 L 3.29,11.12 L 3.29,11.35 L 6.24,12.82 L 6.47,12.82 L 9.53,11.23 L 12.60,12.82 L 12.94,12.82 L 19.18,9.65 L 22.35,11.23 L 22.58,11.23 L 28.82,8.06 L 28.82,7.94 L 25.87,6.47 L 25.99,6.24 L 28.82,4.88 Z" fill="#3b3846" stroke="none" /><path d="M 9.65,7.94 L 9.76,8.17 L 12.71,9.65 L 16.00,8.06 L 16.00,7.94 L 13.05,6.47 L 12.60,6.47 Z" fill="#4d4a53" stroke="none" /><path d="M 25.65,6.35 L 25.65,6.47 L 28.82,8.06 L 32.00,6.47 L 32.00,6.35 L 29.05,4.88 L 28.60,4.88 Z" fill="#4d4a53" stroke="none" /></svg>