<svg height="32" width="32" viewBox="0 0 32 32"><defs /><path d="M 15.27,22.78 L 14.41,23.19 L 14.41,26.53 L 15.27,26.12 Z" fill="#0b0f14" stroke="none" /><path d="M 28.82,17.11 L 28.76,17.11 L 27.93,17.53 L 27.93,20.87 L 28.82,20.42 Z" fill="#0b0f14" stroke="none" /><path d="M 15.27,15.01 L 14.41,15.43 L 14.41,17.65 L 15.27,17.24 Z" fill="#0b0f14" stroke="none" /><path d="M 15.27,20.55 L 14.41,20.96 L 14.41,23.19 L 14.47,23.19 L 15.20,22.81 L 15.27,22.84 L 15.27,26.08 L 14.41,26.53 L 14.41,28.72 L 14.47,28.72 L 15.27,28.31 L 15.27,26.12 L 16.19,25.64 L 16.19,21.22 L 16.13,21.22 L 15.30,21.63 L 15.27,21.60 Z" fill="#141418" stroke="none" /><path d="M 27.86,18.67 L 27.04,19.09 L 27.04,21.31 L 27.86,20.90 L 27.93,20.93 L 27.93,24.17 L 27.99,24.17 L 28.82,23.76 L 28.82,20.42 L 27.99,20.83 L 27.93,20.80 L 27.93,18.67 Z" fill="#141418" stroke="none" /><path d="M 15.27,17.24 L 15.20,17.24 L 14.41,17.65 L 14.41,19.85 L 14.47,19.85 L 15.27,19.44 Z" fill="#141418" stroke="none" /><path d="M 15.27,13.96 L 15.20,13.96 L 14.41,14.38 L 14.41,15.43 L 14.47,15.43 L 15.27,15.01 Z" fill="#141418" stroke="none" /><path d="M 28.82,13.77 L 27.93,14.22 L 27.93,17.53 L 27.99,17.53 L 28.82,17.11 Z" fill="#141418" stroke="none" /><path d="M 28.82,7.19 L 28.76,7.19 L 27.93,7.60 L 27.93,8.68 L 28.82,8.24 Z" fill="#141418" stroke="none" /><path d="M 15.27,28.31 L 14.41,28.72 L 14.41,32.00 L 14.47,32.00 L 15.27,31.59 Z" fill="#17171c" stroke="none" /><path d="M 16.19,25.64 L 15.27,26.08 L 15.27,27.20 L 16.19,26.75 Z" fill="#17171c" stroke="none" /><path d="M 28.82,23.76 L 28.76,23.76 L 27.93,24.17 L 27.93,25.26 L 28.82,24.81 Z" fill="#17171c" stroke="none" /><path d="M 27.93,20.87 L 27.04,21.31 L 27.04,22.43 L 27.93,21.98 Z" fill="#17171c" stroke="none" /><path d="M 16.19,17.88 L 15.27,18.32 L 15.27,19.40 L 15.20,19.47 L 14.41,19.85 L 14.41,20.96 L 14.47,20.96 L 15.24,20.58 L 15.27,20.61 L 15.27,21.66 L 16.19,21.22 Z" fill="#17171c" stroke="none" /><path d="M 16.19,13.49 L 15.27,13.93 L 15.27,17.21 L 15.33,17.21 L 16.19,16.76 Z" fill="#17171c" stroke="none" /><path d="M 27.93,7.63 L 27.86,7.63 L 27.04,8.05 L 27.04,12.44 L 27.10,12.44 L 27.90,12.02 L 27.93,12.06 L 27.93,14.19 L 27.86,14.25 L 27.04,14.66 L 27.04,19.09 L 27.10,19.09 L 27.93,18.67 L 27.93,14.25 L 27.99,14.19 L 28.82,13.77 L 28.82,8.24 L 27.96,8.65 L 27.93,8.62 Z" fill="#17171c" stroke="none" /><path d="M 16.19,26.75 L 16.13,26.75 L 15.27,27.20 L 15.27,31.59 L 16.19,31.14 Z" fill="#1f1e1f" stroke="none" /><path d="M 20.71,24.49 L 20.64,24.49 L 19.79,24.94 L 19.79,29.33 L 20.71,28.88 Z" fill="#1f1e1f" stroke="none" /><path d="M 25.22,17.81 L 25.16,17.81 L 24.33,18.23 L 24.33,19.34 L 25.22,18.89 Z" fill="#1f1e1f" stroke="none" /><path d="M 23.41,16.48 L 22.52,16.92 L 22.52,19.15 L 23.41,18.70 Z" fill="#1f1e1f" stroke="none" /><path d="M 17.08,13.04 L 16.19,13.49 L 16.19,16.73 L 16.13,16.80 L 15.27,17.21 L 15.27,18.32 L 15.33,18.32 L 16.13,17.91 L 16.19,17.94 L 16.19,24.52 L 17.08,24.08 L 17.08,21.88 L 17.94,21.44 L 17.97,21.47 L 17.97,23.63 L 18.89,23.19 L 18.89,18.74 L 17.97,19.18 L 17.97,20.29 L 17.11,20.74 L 17.08,20.71 Z" fill="#1f1e1f" stroke="none" /><path d="M 27.93,12.02 L 27.86,12.02 L 26.15,12.88 L 26.15,21.73 L 26.08,21.79 L 25.22,22.20 L 25.22,23.32 L 25.29,23.32 L 26.08,22.90 L 26.15,22.93 L 26.15,25.07 L 26.21,25.07 L 27.01,24.65 L 27.04,24.68 L 27.04,25.70 L 27.93,25.26 L 27.93,21.98 L 27.10,22.39 L 27.04,22.36 L 27.04,14.70 L 27.10,14.63 L 27.93,14.22 Z" fill="#1f1e1f" stroke="none" /><path d="M 20.71,11.23 L 19.79,11.67 L 19.79,13.84 L 19.85,13.84 L 20.71,13.39 Z" fill="#1f1e1f" stroke="none" /><path d="M 25.19,8.97 L 23.41,9.86 L 23.41,10.94 L 24.30,10.50 L 24.33,10.53 L 24.33,11.58 L 25.19,11.17 L 25.22,11.20 L 25.22,12.25 L 25.26,12.25 L 26.15,11.80 L 26.15,9.57 L 25.26,10.02 L 25.22,9.99 L 25.22,8.97 Z" fill="#1f1e1f" stroke="none" /><path d="M 13.55,23.89 L 13.55,27.20 L 14.35,27.61 L 14.41,27.61 L 14.41,24.30 L 13.61,23.89 Z" fill="#111820" stroke="none" /><path d="M 0.00,16.00 L 0.00,19.34 L 0.83,19.75 L 0.89,19.75 L 0.89,16.45 Z" fill="#111820" stroke="none" /><path d="M 0.00,8.24 L 0.00,10.47 L 0.83,10.88 L 0.89,10.88 L 0.89,8.68 Z" fill="#111820" stroke="none" /><path d="M 22.52,25.80 L 21.60,26.24 L 21.60,28.41 L 21.66,28.41 L 22.52,27.96 Z" fill="#242424" stroke="none" /><path d="M 18.89,23.19 L 18.83,23.19 L 17.97,23.63 L 17.97,24.72 L 17.91,24.78 L 17.15,25.16 L 17.08,25.13 L 17.08,24.08 L 16.19,24.52 L 16.19,31.11 L 16.25,31.11 L 17.08,30.70 L 17.08,26.31 L 17.94,25.86 L 17.97,25.89 L 17.97,30.22 L 18.04,30.22 L 19.79,29.33 L 19.79,28.28 L 19.72,28.28 L 18.93,28.69 L 18.89,28.66 Z" fill="#242424" stroke="none" /><path d="M 26.15,22.87 L 25.22,23.32 L 25.22,25.51 L 25.16,25.57 L 24.40,25.96 L 24.33,25.92 L 24.33,22.68 L 24.27,22.68 L 23.41,23.13 L 23.41,27.51 L 27.04,25.70 L 27.04,24.65 L 26.97,24.65 L 26.18,25.07 L 26.15,25.03 Z" fill="#242424" stroke="none" /><path d="M 20.71,20.07 L 20.64,20.07 L 19.79,20.52 L 19.79,24.94 L 20.71,24.49 Z" fill="#242424" stroke="none" /><path d="M 25.19,18.89 L 24.33,19.34 L 24.33,21.57 L 25.19,21.15 L 25.22,21.18 L 25.22,22.20 L 25.29,22.20 L 26.15,21.76 L 26.15,19.56 L 26.08,19.56 L 25.26,19.98 L 25.22,19.94 L 25.22,18.89 Z" fill="#242424" stroke="none" /><path d="M 23.41,18.70 L 22.52,19.15 L 22.52,20.23 L 22.58,20.23 L 23.41,19.82 Z" fill="#242424" stroke="none" /><path d="M 17.97,16.99 L 17.08,17.43 L 17.08,20.74 L 17.15,20.74 L 17.97,20.33 L 17.97,19.21 L 18.89,18.74 L 18.89,17.62 L 18.00,18.07 L 17.97,18.04 Z" fill="#242424" stroke="none" /><path d="M 20.71,15.62 L 19.79,16.06 L 19.79,18.29 L 20.71,17.84 Z" fill="#242424" stroke="none" /><path d="M 20.71,13.39 L 19.79,13.84 L 19.79,14.95 L 19.85,14.95 L 20.71,14.50 Z" fill="#242424" stroke="none" /><path d="M 19.79,11.71 L 19.72,11.71 L 17.97,12.60 L 17.97,15.87 L 18.89,15.43 L 18.89,13.23 L 18.96,13.17 L 19.79,12.76 Z" fill="#242424" stroke="none" /><path d="M 23.41,9.89 L 23.35,9.89 L 21.60,10.78 L 21.60,18.48 L 21.66,18.48 L 22.52,18.04 L 22.52,11.42 L 22.58,11.36 L 23.35,10.97 L 23.41,11.01 L 23.41,13.14 L 23.48,13.14 L 24.33,12.69 L 24.33,10.50 L 24.27,10.50 L 23.44,10.91 L 23.41,10.88 Z" fill="#242424" stroke="none" /><path d="M 27.04,8.08 L 26.97,8.08 L 25.22,8.97 L 25.22,10.02 L 25.29,10.02 L 26.08,9.61 L 26.15,9.64 L 26.15,11.77 L 25.22,12.25 L 25.22,15.55 L 24.33,16.00 L 24.33,18.23 L 24.40,18.23 L 26.15,17.34 L 26.15,12.91 L 27.04,12.47 Z" fill="#242424" stroke="none" /><path d="M 12.63,24.52 L 12.63,26.75 L 13.49,27.17 L 13.55,27.23 L 13.55,30.54 L 14.41,30.95 L 14.41,27.61 L 13.61,27.23 L 13.55,27.17 L 13.55,24.97 Z" fill="#202127" stroke="none" /><path d="M 13.55,20.55 L 13.55,23.89 L 14.41,24.30 L 14.41,20.96 Z" fill="#202127" stroke="none" /><path d="M 13.55,13.96 L 13.55,15.01 L 14.35,15.43 L 14.41,15.43 L 14.41,14.38 L 13.61,13.96 Z" fill="#202127" stroke="none" /><path d="M 0.00,13.77 L 0.00,16.00 L 0.83,16.41 L 0.89,16.48 L 0.89,19.72 L 0.86,19.75 L 0.06,19.34 L 0.00,19.34 L 0.00,21.53 L 0.89,21.98 L 0.89,19.82 L 0.92,19.79 L 1.72,20.20 L 1.78,20.20 L 1.78,15.78 L 0.95,15.36 L 0.89,15.30 L 0.89,14.22 Z" fill="#202127" stroke="none" /><path d="M 0.00,10.47 L 0.00,12.66 L 0.89,13.11 L 0.89,10.88 L 0.06,10.47 Z" fill="#202127" stroke="none" /><path d="M 0.00,7.19 L 0.00,8.24 L 0.89,8.68 L 0.89,7.60 L 0.06,7.19 Z" fill="#202127" stroke="none" /><path d="M 13.55,30.54 L 13.55,31.59 L 14.35,32.00 L 14.41,32.00 L 14.41,30.95 L 13.61,30.54 Z" fill="#25262e" stroke="none" /><path d="M 12.63,26.75 L 12.63,27.86 L 13.55,28.31 L 13.55,27.20 L 12.69,26.75 Z" fill="#25262e" stroke="none" /><path d="M 0.00,21.53 L 0.00,24.81 L 0.89,25.26 L 0.89,21.98 Z" fill="#25262e" stroke="none" /><path d="M 0.89,19.79 L 0.89,20.87 L 1.78,21.31 L 1.78,20.20 L 0.95,19.79 Z" fill="#25262e" stroke="none" /><path d="M 12.63,13.49 L 12.63,17.88 L 13.55,18.35 L 13.55,20.49 L 13.49,20.52 L 12.69,20.10 L 12.63,20.10 L 12.63,24.52 L 13.49,24.97 L 13.55,24.97 L 13.55,20.61 L 13.61,20.58 L 14.35,20.96 L 14.41,20.96 L 14.41,15.43 L 13.61,15.05 L 13.55,14.98 L 13.55,13.93 Z" fill="#25262e" stroke="none" /><path d="M 0.89,12.02 L 0.89,13.04 L 0.86,13.07 L 0.00,12.66 L 0.00,13.77 L 0.83,14.19 L 0.89,14.25 L 0.89,15.33 L 1.78,15.78 L 1.78,12.44 L 0.95,12.02 Z" fill="#25262e" stroke="none" /><path d="M 0.89,7.63 L 0.89,10.91 L 1.72,11.32 L 1.78,11.32 L 1.78,8.05 L 0.95,7.63 Z" fill="#25262e" stroke="none" /><path d="M 17.97,25.86 L 17.91,25.86 L 17.08,26.27 L 17.08,30.66 L 17.15,30.66 L 17.97,30.25 Z" fill="#2e2e2e" stroke="none" /><path d="M 17.97,21.44 L 17.91,21.44 L 17.08,21.85 L 17.08,25.19 L 17.97,24.75 Z" fill="#2e2e2e" stroke="none" /><path d="M 26.15,17.34 L 25.22,17.78 L 25.22,20.01 L 26.15,19.56 Z" fill="#2e2e2e" stroke="none" /><path d="M 25.22,11.13 L 24.33,11.58 L 24.33,12.66 L 24.27,12.72 L 23.44,13.14 L 23.41,13.11 L 23.41,10.94 L 22.52,11.39 L 22.52,16.92 L 23.35,16.51 L 23.41,16.54 L 23.41,19.79 L 22.55,20.23 L 22.52,20.20 L 22.52,18.04 L 21.63,18.48 L 21.60,18.45 L 21.60,10.78 L 20.71,11.23 L 20.71,14.47 L 20.64,14.54 L 19.82,14.95 L 19.79,14.92 L 19.79,12.76 L 19.75,12.76 L 18.89,13.20 L 18.89,15.40 L 18.00,15.84 L 17.97,15.81 L 17.97,12.60 L 17.08,13.04 L 17.08,17.43 L 17.94,17.02 L 17.97,17.05 L 17.97,18.07 L 18.04,18.07 L 18.83,17.65 L 18.89,17.69 L 18.89,28.69 L 18.96,28.69 L 19.79,28.28 L 19.79,20.55 L 19.85,20.49 L 20.68,20.07 L 20.71,20.10 L 20.71,28.85 L 20.77,28.85 L 21.60,28.44 L 21.60,26.27 L 22.46,25.83 L 22.52,25.86 L 22.52,27.96 L 23.41,27.51 L 23.41,23.16 L 23.48,23.09 L 24.30,22.68 L 24.33,22.71 L 24.33,25.99 L 25.22,25.54 L 25.22,21.12 L 24.40,21.53 L 24.33,21.50 L 24.33,16.03 L 25.22,15.59 Z" fill="#2e2e2e" stroke="none" /><path d="M 5.41,23.13 L 5.41,27.51 L 6.30,27.96 L 6.30,23.57 Z" fill="#333033" stroke="none" /><path d="M 9.92,20.96 L 9.92,22.08 L 10.85,22.52 L 10.85,21.41 Z" fill="#333033" stroke="none" /><path d="M 0.89,20.87 L 0.89,25.26 L 1.78,25.70 L 1.78,21.31 Z" fill="#333033" stroke="none" /><path d="M 8.11,17.84 L 8.11,20.07 L 9.03,20.52 L 9.03,18.29 L 8.17,17.84 Z" fill="#333033" stroke="none" /><path d="M 11.74,17.43 L 11.74,26.24 L 11.71,26.27 L 10.91,25.86 L 10.85,25.86 L 10.85,26.97 L 11.74,27.42 L 11.74,29.61 L 12.56,30.03 L 12.63,30.09 L 12.63,31.14 L 13.55,31.59 L 13.55,28.31 L 12.63,27.83 L 12.63,20.14 L 12.66,20.10 L 13.55,20.55 L 13.55,18.32 Z" fill="#333033" stroke="none" /><path d="M 9.03,11.71 L 9.03,12.76 L 9.86,13.17 L 9.92,13.23 L 9.92,14.31 L 10.78,14.73 L 10.85,14.79 L 10.85,15.87 L 11.74,16.32 L 11.74,14.09 L 10.85,13.65 L 10.85,12.60 L 10.82,12.56 L 9.10,11.71 Z" fill="#333033" stroke="none" /><path d="M 5.41,9.89 L 5.41,12.06 L 6.23,12.47 L 6.30,12.47 L 6.30,10.31 L 5.47,9.89 Z" fill="#333033" stroke="none" /><path d="M 1.78,8.08 L 1.78,11.29 L 1.75,11.32 L 0.95,10.91 L 0.89,10.91 L 0.89,12.02 L 1.78,12.47 L 1.78,19.12 L 2.61,19.53 L 2.67,19.53 L 2.67,17.40 L 2.74,17.37 L 3.59,17.81 L 3.59,20.01 L 4.49,20.45 L 4.49,16.00 L 3.66,15.59 L 3.59,15.59 L 3.59,16.64 L 3.56,16.67 L 2.74,16.25 L 2.67,16.19 L 2.67,8.49 L 1.84,8.08 Z" fill="#333033" stroke="none" /><path d="M 7.22,26.27 L 7.22,28.44 L 8.05,28.85 L 8.11,28.85 L 8.11,26.69 L 7.28,26.27 Z" fill="#3b3b3b" stroke="none" /><path d="M 9.03,24.94 L 9.03,29.33 L 12.56,31.11 L 12.63,31.11 L 12.63,30.06 L 11.80,29.65 L 11.74,29.58 L 11.74,27.39 L 10.91,26.97 L 10.85,26.97 L 10.85,29.11 L 10.82,29.14 L 9.92,28.69 L 9.92,25.38 Z" fill="#3b3b3b" stroke="none" /><path d="M 9.92,22.08 L 9.92,24.30 L 10.78,24.72 L 10.85,24.78 L 10.85,25.86 L 11.67,26.27 L 11.74,26.27 L 11.74,24.08 L 10.91,23.67 L 10.85,23.60 L 10.85,22.52 L 9.99,22.08 Z" fill="#3b3b3b" stroke="none" /><path d="M 8.11,20.07 L 8.11,21.15 L 8.97,21.60 L 9.03,21.60 L 9.03,20.52 L 8.17,20.07 Z" fill="#3b3b3b" stroke="none" /><path d="M 1.78,19.12 L 1.78,25.70 L 2.67,26.15 L 2.67,21.82 L 2.74,21.79 L 3.59,22.23 L 3.59,26.62 L 5.41,27.51 L 5.41,26.43 L 4.55,26.02 L 4.49,25.96 L 4.49,20.45 L 3.59,20.01 L 3.59,21.06 L 3.53,21.09 L 2.67,20.64 L 2.67,19.53 L 1.84,19.12 Z" fill="#3b3b3b" stroke="none" /><path d="M 5.41,18.70 L 5.41,23.13 L 6.30,23.57 L 6.30,19.15 Z" fill="#3b3b3b" stroke="none" /><path d="M 5.41,14.28 L 5.41,16.48 L 6.30,16.92 L 6.30,14.70 L 5.47,14.28 Z" fill="#3b3b3b" stroke="none" /><path d="M 2.67,12.91 L 2.67,16.22 L 3.53,16.67 L 3.59,16.67 L 3.59,15.62 L 3.63,15.59 L 4.42,16.00 L 4.49,16.00 L 4.49,14.89 L 3.59,14.44 L 3.59,13.36 L 2.74,12.91 Z" fill="#3b3b3b" stroke="none" /><path d="M 10.85,12.60 L 10.85,13.68 L 11.74,14.12 L 11.74,16.25 L 11.67,16.29 L 10.85,15.87 L 10.85,19.15 L 10.82,19.18 L 9.92,18.74 L 9.92,20.96 L 11.67,21.85 L 11.74,21.85 L 11.74,17.50 L 11.80,17.46 L 12.63,17.88 L 12.63,13.49 Z" fill="#3b3b3b" stroke="none" /><path d="M 5.41,12.06 L 5.41,13.17 L 6.23,13.58 L 6.30,13.58 L 6.30,12.47 L 5.47,12.06 Z" fill="#3b3b3b" stroke="none" /><path d="M 7.22,10.78 L 7.22,18.51 L 8.05,18.93 L 8.11,18.93 L 8.11,12.34 L 8.14,12.31 L 8.97,12.72 L 9.03,12.79 L 9.03,14.98 L 9.86,15.40 L 9.92,15.40 L 9.92,13.20 L 9.10,12.79 L 9.03,12.72 L 9.03,11.67 Z" fill="#3b3b3b" stroke="none" /><path d="M 3.59,8.97 L 3.59,12.25 L 4.49,12.69 L 4.49,10.53 L 4.52,10.50 L 5.41,10.94 L 5.41,9.86 Z" fill="#3b3b3b" stroke="none" /><path d="M 13.55,13.93 L 13.55,13.96 L 14.38,14.38 L 14.44,14.38 L 15.27,13.96 L 15.27,13.93 L 14.44,13.52 L 14.38,13.52 Z" fill="#31323c" stroke="none" /><path d="M 0.03,7.16 L 0.06,7.22 L 0.83,7.60 L 0.92,7.60 L 1.72,7.19 L 1.72,7.16 L 0.89,6.74 Z" fill="#31323c" stroke="none" /><path d="M 26.18,6.71 L 26.18,6.74 L 27.90,7.60 L 27.99,7.60 L 28.79,7.19 L 28.79,7.16 L 27.07,6.30 L 27.01,6.30 Z" fill="#31323c" stroke="none" /><path d="M 13.58,0.38 L 13.58,0.45 L 14.35,0.83 L 14.47,0.83 L 15.24,0.45 L 15.24,0.38 L 14.47,0.00 L 14.35,0.00 Z" fill="#31323c" stroke="none" /><path d="M 17.97,12.56 L 17.11,12.15 L 16.22,12.60 L 16.22,12.63 L 17.05,13.04 L 17.11,13.04 L 17.94,12.63 Z" fill="#343540" stroke="none" /><path d="M 23.41,9.86 L 22.58,9.45 L 22.52,9.45 L 20.74,10.34 L 20.74,10.37 L 21.57,10.78 L 21.63,10.78 L 23.41,9.89 Z" fill="#343540" stroke="none" /><path d="M 2.67,21.76 L 2.67,26.15 L 3.53,26.59 L 3.59,26.59 L 3.59,22.20 Z" fill="#4a4a4a" stroke="none" /><path d="M 10.85,21.44 L 10.85,23.63 L 11.74,24.08 L 11.74,21.85 L 10.91,21.44 Z" fill="#4a4a4a" stroke="none" /><path d="M 2.67,17.34 L 2.67,20.68 L 3.59,21.12 L 3.59,17.78 Z" fill="#4a4a4a" stroke="none" /><path d="M 2.67,8.52 L 2.67,12.91 L 3.53,13.33 L 3.59,13.39 L 3.59,14.47 L 4.49,14.92 L 4.49,25.99 L 5.34,26.43 L 5.41,26.43 L 5.41,18.77 L 5.47,18.74 L 6.23,19.12 L 6.30,19.18 L 6.30,27.96 L 7.16,28.41 L 7.22,28.41 L 7.22,26.31 L 7.25,26.27 L 8.11,26.72 L 8.11,28.88 L 9.03,29.33 L 9.03,25.00 L 9.10,24.97 L 9.86,25.35 L 9.92,25.42 L 9.92,28.72 L 10.85,29.17 L 10.85,24.75 L 9.92,24.27 L 9.92,18.80 L 9.99,18.77 L 10.78,19.18 L 10.85,19.18 L 10.85,14.76 L 9.99,14.31 L 9.92,14.31 L 9.92,15.36 L 9.89,15.40 L 9.07,14.98 L 9.03,14.95 L 9.03,12.76 L 8.17,12.31 L 8.11,12.31 L 8.11,17.84 L 8.97,18.26 L 9.03,18.32 L 9.03,21.57 L 9.00,21.60 L 8.17,21.18 L 8.11,21.12 L 8.11,18.93 L 7.22,18.48 L 7.22,10.78 L 6.36,10.34 L 6.30,10.34 L 6.30,13.55 L 6.27,13.58 L 5.41,13.14 L 5.41,10.94 L 5.38,10.91 L 4.55,10.50 L 4.49,10.50 L 4.49,12.63 L 4.45,12.66 L 3.66,12.28 L 3.59,12.21 L 3.59,8.97 L 2.74,8.52 Z" fill="#4a4a4a" stroke="none" /><path d="M 14.44,13.49 L 14.44,13.55 L 15.20,13.93 L 15.33,13.93 L 16.16,13.52 L 16.13,13.46 L 15.36,13.07 L 15.27,13.07 Z" fill="#3c3d4b" stroke="none" /><path d="M 12.66,13.49 L 12.66,13.52 L 13.49,13.93 L 13.61,13.93 L 14.38,13.55 L 14.38,13.49 L 13.55,13.07 L 13.46,13.07 Z" fill="#3c3d4b" stroke="none" /><path d="M 9.92,12.12 L 9.92,12.15 L 10.82,12.60 L 11.67,12.18 L 11.64,12.12 L 10.82,11.71 L 10.75,11.71 Z" fill="#3c3d4b" stroke="none" /><path d="M 3.63,8.94 L 3.63,9.00 L 4.45,9.42 L 4.55,9.42 L 5.34,9.00 L 5.34,8.97 L 4.52,8.56 L 4.39,8.56 Z" fill="#3c3d4b" stroke="none" /><path d="M 26.21,7.60 L 26.21,7.67 L 26.97,8.05 L 27.10,8.05 L 27.93,7.63 L 27.90,7.57 L 27.13,7.19 L 27.04,7.19 Z" fill="#3c3d4b" stroke="none" /><path d="M 0.89,6.74 L 0.89,6.78 L 1.62,7.13 L 1.69,7.19 L 0.92,7.57 L 0.89,7.63 L 2.67,8.52 L 3.53,8.11 L 3.50,8.05 L 1.78,7.19 L 1.84,7.13 L 2.64,6.74 L 2.64,6.71 L 1.81,6.30 L 1.75,6.30 Z" fill="#3c3d4b" stroke="none" /><path d="M 25.29,6.27 L 25.29,6.30 L 26.12,6.71 L 26.24,6.71 L 27.01,6.33 L 27.01,6.27 L 26.18,5.85 L 26.08,5.85 Z" fill="#3c3d4b" stroke="none" /><path d="M 21.66,4.45 L 21.66,4.49 L 24.33,5.82 L 24.40,5.82 L 25.22,5.41 L 25.22,5.38 L 22.55,4.04 L 22.49,4.04 Z" fill="#3c3d4b" stroke="none" /><path d="M 18.96,3.09 L 18.99,3.15 L 19.82,3.56 L 19.88,3.56 L 20.71,3.15 L 20.71,3.12 L 19.82,2.67 Z" fill="#3c3d4b" stroke="none" /><path d="M 12.66,0.86 L 12.66,0.89 L 13.49,1.30 L 14.38,0.86 L 14.44,0.86 L 16.19,1.75 L 16.25,1.75 L 17.08,1.34 L 17.08,1.30 L 15.30,0.41 L 15.24,0.41 L 14.44,0.83 L 14.38,0.83 L 13.58,0.41 L 13.52,0.41 Z" fill="#3c3d4b" stroke="none" /><path d="M 18.89,12.12 L 18.07,11.71 L 18.00,11.71 L 17.11,12.15 L 16.25,11.71 L 16.19,11.71 L 15.33,12.15 L 15.33,12.18 L 16.13,12.56 L 16.16,12.60 L 16.13,12.66 L 15.36,13.04 L 15.27,13.04 L 14.47,12.63 L 14.35,12.63 L 13.52,13.04 L 13.52,13.07 L 14.38,13.52 L 14.44,13.52 L 15.30,13.07 L 16.13,13.49 L 16.22,13.49 L 17.05,13.07 L 17.05,13.01 L 16.32,12.66 L 16.29,12.63 L 16.32,12.56 L 17.08,12.18 L 17.18,12.18 L 18.00,12.60 L 18.89,12.15 Z" fill="#4e4a4e" stroke="none" /><path d="M 6.33,10.31 L 6.36,10.37 L 7.19,10.78 L 7.25,10.78 L 8.08,10.37 L 8.08,10.34 L 7.19,9.89 Z" fill="#4e4a4e" stroke="none" /><path d="M 19.85,9.89 L 19.85,9.92 L 20.68,10.34 L 20.80,10.34 L 21.63,9.92 L 21.60,9.86 L 20.77,9.45 L 20.71,9.45 Z" fill="#4e4a4e" stroke="none" /><path d="M 18.89,9.42 L 18.07,9.00 L 17.97,9.00 L 14.44,10.78 L 14.38,10.78 L 12.60,9.89 L 11.71,10.34 L 11.71,10.37 L 12.50,10.75 L 12.53,10.82 L 10.82,11.67 L 10.82,11.74 L 11.64,12.15 L 11.58,12.21 L 10.85,12.56 L 10.85,12.60 L 11.71,13.04 L 11.77,13.04 L 12.60,12.63 L 12.60,12.60 L 11.80,12.21 L 11.74,12.15 L 11.77,12.12 L 13.49,11.26 L 14.38,11.71 L 14.44,11.71 L 18.89,9.48 Z" fill="#4e4a4e" stroke="none" /><path d="M 25.19,8.94 L 24.43,8.56 L 24.30,8.56 L 22.58,9.42 L 22.58,9.48 L 23.35,9.86 L 23.48,9.86 L 25.19,9.00 Z" fill="#4e4a4e" stroke="none" /><path d="M 14.44,8.97 L 14.44,9.03 L 15.27,9.45 L 15.33,9.45 L 16.19,9.00 L 16.19,8.97 L 15.36,8.56 L 15.27,8.56 Z" fill="#4e4a4e" stroke="none" /><path d="M 12.63,8.97 L 12.66,9.03 L 13.49,9.45 L 13.55,9.45 L 14.38,9.03 L 14.38,8.97 L 13.55,8.56 L 13.46,8.56 Z" fill="#4e4a4e" stroke="none" /><path d="M 9.00,8.97 L 9.03,9.03 L 10.75,9.89 L 10.85,9.89 L 11.67,9.48 L 11.67,9.42 L 9.96,8.56 L 9.83,8.56 Z" fill="#4e4a4e" stroke="none" /><path d="M 2.70,8.49 L 2.74,8.56 L 3.56,8.97 L 3.63,8.97 L 4.45,8.56 L 4.45,8.52 L 3.56,8.08 Z" fill="#4e4a4e" stroke="none" /><path d="M 19.85,8.08 L 19.85,8.11 L 20.68,8.52 L 20.80,8.52 L 21.63,8.11 L 21.60,8.05 L 20.77,7.63 L 20.71,7.63 Z" fill="#4e4a4e" stroke="none" /><path d="M 14.44,7.16 L 14.44,7.22 L 15.27,7.63 L 15.36,7.63 L 16.19,7.22 L 16.19,7.16 L 15.36,6.74 L 15.27,6.74 Z" fill="#4e4a4e" stroke="none" /><path d="M 12.63,7.16 L 12.63,7.22 L 13.46,7.63 L 13.55,7.63 L 14.38,7.22 L 14.38,7.16 L 13.55,6.74 L 13.46,6.74 Z" fill="#4e4a4e" stroke="none" /><path d="M 20.74,6.71 L 20.74,6.74 L 22.52,7.63 L 22.58,7.63 L 23.44,7.19 L 23.44,7.16 L 21.66,6.27 Z" fill="#4e4a4e" stroke="none" /><path d="M 11.67,5.82 L 9.89,6.71 L 9.92,6.78 L 10.75,7.19 L 9.92,7.60 L 9.92,7.67 L 11.64,8.52 L 11.77,8.52 L 12.60,8.11 L 12.60,8.08 L 10.82,7.19 L 12.60,6.30 L 12.60,6.27 Z" fill="#4e4a4e" stroke="none" /><path d="M 8.97,8.11 L 8.94,8.05 L 7.22,7.19 L 7.28,7.13 L 8.97,6.30 L 8.97,6.27 L 8.08,5.82 L 5.38,7.16 L 5.41,7.22 L 8.02,8.52 L 8.14,8.52 Z" fill="#4e4a4e" stroke="none" /><path d="M 24.40,5.79 L 24.40,5.85 L 25.22,6.27 L 25.32,6.27 L 26.12,5.85 L 26.12,5.82 L 25.29,5.41 L 25.16,5.41 Z" fill="#4e4a4e" stroke="none" /><path d="M 15.33,5.82 L 15.33,5.85 L 18.00,7.19 L 17.18,7.60 L 17.15,7.67 L 17.97,8.08 L 18.07,8.08 L 18.89,7.67 L 18.89,7.60 L 18.07,7.19 L 18.89,6.78 L 18.93,6.71 L 16.25,5.38 L 16.19,5.38 Z" fill="#4e4a4e" stroke="none" /><path d="M 12.63,5.34 L 12.63,5.41 L 13.46,5.82 L 13.55,5.82 L 14.38,5.41 L 14.38,5.34 L 13.55,4.93 L 13.46,4.93 Z" fill="#4e4a4e" stroke="none" /><path d="M 9.00,5.34 L 9.00,5.41 L 9.83,5.82 L 9.92,5.82 L 10.75,5.41 L 10.75,5.34 L 9.92,4.93 L 9.83,4.93 Z" fill="#4e4a4e" stroke="none" /><path d="M 5.34,5.34 L 4.49,4.93 L 3.59,5.38 L 3.59,5.41 L 4.42,5.82 L 4.49,5.82 L 5.31,5.41 Z" fill="#4e4a4e" stroke="none" /><path d="M 14.44,3.53 L 14.44,3.59 L 19.79,6.27 L 19.91,6.27 L 21.63,5.41 L 21.63,5.34 L 20.80,4.93 L 20.71,4.93 L 19.85,5.38 L 15.36,3.12 L 15.27,3.12 Z" fill="#4e4a4e" stroke="none" /><path d="M 10.78,4.49 L 11.71,4.93 L 14.38,3.59 L 14.38,3.53 L 13.55,3.12 L 13.46,3.12 L 12.60,3.56 L 11.74,3.12 L 11.64,3.12 L 10.82,3.53 L 10.82,3.59 L 11.64,4.01 L 11.58,4.07 L 10.78,4.45 Z" fill="#4e4a4e" stroke="none" /><path d="M 9.86,3.09 L 9.00,2.67 L 8.11,3.12 L 8.11,3.15 L 8.94,3.56 L 9.00,3.56 L 9.83,3.15 Z" fill="#4e4a4e" stroke="none" /><path d="M 18.04,2.64 L 18.04,2.67 L 18.93,3.12 L 19.79,2.70 L 19.75,2.64 L 18.93,2.23 L 18.86,2.23 Z" fill="#4e4a4e" stroke="none" /><path d="M 16.25,1.72 L 16.25,1.78 L 17.08,2.19 L 17.18,2.19 L 17.97,1.78 L 17.97,1.75 L 17.15,1.34 L 17.02,1.34 Z" fill="#4e4a4e" stroke="none" /><path d="M 16.22,12.60 L 14.44,11.71 L 14.38,11.71 L 11.77,13.01 L 11.77,13.07 L 12.60,13.49 L 12.69,13.49 L 14.38,12.63 L 14.44,12.63 L 15.33,13.07 L 16.22,12.63 Z" fill="#5b5b5b" stroke="none" /><path d="M 19.82,10.78 L 18.99,10.37 L 18.86,10.37 L 17.15,11.23 L 17.15,11.26 L 18.83,12.12 L 18.96,12.12 L 19.79,11.71 L 19.79,11.67 L 18.96,11.26 L 19.79,10.85 Z" fill="#5b5b5b" stroke="none" /><path d="M 7.25,10.75 L 7.25,10.82 L 9.86,12.12 L 9.99,12.12 L 11.67,11.26 L 11.67,11.23 L 10.85,10.82 L 10.75,10.82 L 9.89,11.26 L 9.07,10.85 L 9.03,10.82 L 9.10,10.75 L 9.89,10.37 L 9.89,10.34 L 9.00,9.89 Z" fill="#5b5b5b" stroke="none" /><path d="M 10.82,9.89 L 10.82,9.92 L 11.64,10.34 L 11.77,10.34 L 12.60,9.92 L 12.56,9.86 L 11.74,9.45 L 11.67,9.45 Z" fill="#5b5b5b" stroke="none" /><path d="M 13.55,9.42 L 13.55,9.48 L 14.38,9.89 L 14.44,9.89 L 15.27,9.48 L 15.27,9.42 L 14.44,9.00 L 14.38,9.00 Z" fill="#5b5b5b" stroke="none" /><path d="M 23.44,8.97 L 22.62,8.56 L 22.49,8.56 L 20.77,9.42 L 20.77,9.48 L 21.60,9.89 L 21.69,9.89 L 23.41,9.03 Z" fill="#5b5b5b" stroke="none" /><path d="M 7.16,8.97 L 6.33,8.56 L 6.20,8.56 L 4.55,9.38 L 4.52,9.45 L 5.34,9.86 L 5.47,9.86 L 7.13,9.03 Z" fill="#5b5b5b" stroke="none" /><path d="M 11.71,8.52 L 11.71,8.56 L 12.60,9.00 L 13.49,8.56 L 13.49,8.52 L 12.66,8.11 L 12.53,8.11 Z" fill="#5b5b5b" stroke="none" /><path d="M 20.74,8.52 L 19.82,8.08 L 18.04,8.97 L 18.04,9.00 L 19.79,9.89 L 19.88,9.89 L 20.71,9.48 L 20.71,9.42 L 19.88,9.00 L 19.94,8.94 L 20.74,8.56 Z" fill="#5b5b5b" stroke="none" /><path d="M 8.08,8.52 L 8.08,8.56 L 8.97,9.00 L 9.89,8.56 L 9.89,8.52 L 9.00,8.08 Z" fill="#5b5b5b" stroke="none" /><path d="M 18.00,8.08 L 17.11,7.63 L 15.33,8.52 L 15.33,8.56 L 16.22,9.00 L 18.00,8.11 Z" fill="#5b5b5b" stroke="none" /><path d="M 26.15,7.60 L 25.32,7.19 L 25.22,7.19 L 23.51,8.05 L 23.48,8.11 L 24.30,8.52 L 24.43,8.52 L 26.15,7.67 Z" fill="#5b5b5b" stroke="none" /><path d="M 20.77,7.60 L 20.77,7.67 L 21.60,8.08 L 21.69,8.08 L 22.52,7.67 L 22.52,7.60 L 21.69,7.19 L 21.60,7.19 Z" fill="#5b5b5b" stroke="none" /><path d="M 18.07,7.16 L 18.07,7.22 L 18.89,7.63 L 18.96,7.63 L 19.82,7.19 L 19.82,7.16 L 18.99,6.74 L 18.89,6.74 Z" fill="#5b5b5b" stroke="none" /><path d="M 9.00,7.16 L 9.03,7.22 L 9.86,7.63 L 9.92,7.63 L 10.75,7.22 L 10.75,7.16 L 9.92,6.74 L 9.83,6.74 Z" fill="#5b5b5b" stroke="none" /><path d="M 1.75,7.16 L 1.78,7.22 L 2.61,7.63 L 2.67,7.63 L 3.53,7.19 L 3.53,7.16 L 2.70,6.74 L 2.58,6.74 Z" fill="#5b5b5b" stroke="none" /><path d="M 14.35,6.30 L 13.52,6.71 L 13.55,6.78 L 14.38,7.19 L 13.55,7.60 L 13.52,7.67 L 14.35,8.08 L 14.47,8.08 L 15.30,7.67 L 15.27,7.60 L 14.44,7.19 L 15.27,6.78 L 15.30,6.71 L 14.47,6.30 Z" fill="#5b5b5b" stroke="none" /><path d="M 25.26,6.27 L 23.51,5.38 L 23.41,5.38 L 21.66,6.27 L 20.74,5.82 L 19.85,6.27 L 19.85,6.30 L 20.68,6.71 L 20.80,6.71 L 21.60,6.30 L 21.69,6.30 L 22.49,6.71 L 22.62,6.71 L 23.41,6.30 L 23.51,6.30 L 24.30,6.71 L 24.43,6.71 L 25.26,6.30 Z" fill="#5b5b5b" stroke="none" /><path d="M 11.71,5.82 L 11.71,5.85 L 12.53,6.27 L 12.66,6.27 L 13.49,5.85 L 13.46,5.79 L 12.63,5.38 L 12.56,5.38 Z" fill="#5b5b5b" stroke="none" /><path d="M 20.77,4.90 L 20.80,4.96 L 21.63,5.38 L 21.69,5.38 L 22.55,4.93 L 22.55,4.90 L 21.73,4.49 L 21.60,4.49 Z" fill="#5b5b5b" stroke="none" /><path d="M 13.52,4.90 L 13.55,4.96 L 15.27,5.82 L 15.36,5.82 L 16.19,5.41 L 16.19,5.34 L 14.47,4.49 L 14.35,4.49 Z" fill="#5b5b5b" stroke="none" /><path d="M 2.70,5.82 L 2.74,5.88 L 4.39,6.71 L 4.52,6.71 L 5.31,6.30 L 5.41,6.30 L 6.20,6.71 L 6.33,6.71 L 8.02,5.85 L 8.11,5.85 L 8.91,6.27 L 9.03,6.27 L 9.86,5.85 L 9.83,5.79 L 9.00,5.38 L 8.94,5.38 L 8.05,5.82 L 5.41,4.49 L 4.52,4.93 L 4.52,4.96 L 6.23,5.82 L 5.38,6.27 L 3.66,5.41 L 3.53,5.41 Z" fill="#5b5b5b" stroke="none" /><path d="M 8.97,4.45 L 8.97,4.49 L 10.75,5.38 L 10.82,5.38 L 11.67,4.93 L 11.67,4.90 L 9.89,4.01 Z" fill="#5b5b5b" stroke="none" /><path d="M 21.60,3.56 L 20.77,3.15 L 20.64,3.15 L 18.04,4.45 L 18.04,4.49 L 18.96,4.93 L 21.57,3.63 Z" fill="#5b5b5b" stroke="none" /><path d="M 13.52,3.09 L 13.55,3.15 L 14.38,3.56 L 14.44,3.56 L 15.30,3.12 L 15.30,3.09 L 14.47,2.67 L 14.35,2.67 Z" fill="#5b5b5b" stroke="none" /><path d="M 18.93,3.12 L 18.93,3.09 L 18.10,2.67 L 18.13,2.61 L 18.86,2.26 L 18.86,2.19 L 18.04,1.78 L 17.94,1.78 L 16.22,2.64 L 16.22,2.67 L 18.00,3.56 L 18.07,3.56 Z" fill="#5b5b5b" stroke="none" /><path d="M 11.67,2.19 L 10.88,1.78 L 10.78,1.78 L 9.07,2.64 L 9.03,2.70 L 10.75,3.56 L 10.82,3.56 L 11.67,3.12 L 11.67,3.09 L 10.85,2.67 L 10.88,2.61 L 11.67,2.23 Z" fill="#5b5b5b" stroke="none" /><path d="M 14.44,1.72 L 14.44,1.78 L 15.27,2.19 L 15.36,2.19 L 16.19,1.78 L 16.19,1.72 L 15.36,1.30 L 15.27,1.30 Z" fill="#5b5b5b" stroke="none" /><path d="M 13.49,1.27 L 12.63,0.86 L 11.74,1.30 L 11.74,1.34 L 12.56,1.75 L 12.63,1.75 L 13.46,1.34 Z" fill="#5b5b5b" stroke="none" /><path d="M 14.44,11.67 L 14.44,11.74 L 15.27,12.15 L 15.36,12.15 L 16.19,11.74 L 16.19,11.67 L 15.36,11.26 L 15.27,11.26 Z" fill="#737373" stroke="none" /><path d="M 14.38,11.67 L 13.55,11.26 L 13.46,11.26 L 11.74,12.12 L 11.71,12.18 L 12.53,12.60 L 12.66,12.60 L 14.38,11.74 Z" fill="#737373" stroke="none" /><path d="M 21.57,10.75 L 20.80,10.37 L 20.68,10.37 L 18.96,11.23 L 18.96,11.29 L 19.72,11.67 L 19.85,11.67 L 21.57,10.82 Z" fill="#737373" stroke="none" /><path d="M 10.82,10.78 L 10.85,10.85 L 11.67,11.26 L 12.60,10.82 L 12.60,10.78 L 11.77,10.37 L 11.64,10.37 Z" fill="#737373" stroke="none" /><path d="M 18.93,10.34 L 18.00,9.89 L 16.22,10.78 L 16.22,10.82 L 17.02,11.20 L 17.08,11.26 L 16.25,11.67 L 16.25,11.74 L 17.08,12.15 L 17.18,12.15 L 18.00,11.74 L 18.00,11.67 L 17.18,11.26 L 17.24,11.20 L 18.93,10.37 Z" fill="#737373" stroke="none" /><path d="M 5.41,9.86 L 5.41,9.89 L 6.30,10.34 L 7.13,9.92 L 7.22,9.92 L 8.02,10.34 L 8.14,10.34 L 8.94,9.92 L 9.03,9.92 L 9.83,10.34 L 9.96,10.34 L 10.78,9.92 L 10.75,9.86 L 9.92,9.45 L 9.86,9.45 L 9.00,9.89 L 8.11,9.45 L 8.05,9.45 L 7.19,9.89 L 6.30,9.45 L 6.23,9.45 Z" fill="#737373" stroke="none" /><path d="M 10.82,8.97 L 10.85,9.03 L 14.35,10.78 L 14.47,10.78 L 18.00,9.00 L 18.00,8.97 L 17.18,8.56 L 17.05,8.56 L 14.41,9.89 L 11.77,8.56 L 11.64,8.56 Z" fill="#737373" stroke="none" /><path d="M 22.55,8.52 L 21.63,8.08 L 19.85,8.97 L 19.85,9.00 L 20.71,9.45 L 20.77,9.45 L 22.55,8.56 Z" fill="#737373" stroke="none" /><path d="M 15.33,7.63 L 15.33,7.67 L 16.16,8.08 L 16.29,8.08 L 17.11,7.67 L 17.08,7.60 L 16.25,7.19 L 16.19,7.19 Z" fill="#737373" stroke="none" /><path d="M 22.55,6.71 L 22.55,6.74 L 23.35,7.13 L 23.41,7.19 L 22.58,7.60 L 22.58,7.67 L 23.41,8.08 L 23.51,8.08 L 24.33,7.67 L 24.33,7.60 L 23.51,7.19 L 23.57,7.13 L 24.33,6.74 L 24.40,6.74 L 26.12,7.60 L 26.15,7.63 L 26.12,7.67 L 24.37,8.52 L 24.37,8.56 L 25.19,8.97 L 25.26,8.97 L 27.04,8.08 L 27.04,8.05 L 26.21,7.63 L 27.04,7.22 L 27.07,7.16 L 25.29,6.27 L 24.40,6.71 L 24.33,6.71 L 23.48,6.27 Z" fill="#737373" stroke="none" /><path d="M 20.77,5.82 L 20.77,5.85 L 21.60,6.27 L 21.69,6.27 L 22.52,5.85 L 22.52,5.79 L 21.69,5.38 L 21.63,5.38 Z" fill="#737373" stroke="none" /><path d="M 15.30,5.82 L 14.44,5.38 L 14.38,5.38 L 10.82,7.16 L 10.82,7.22 L 14.38,9.00 L 14.44,9.00 L 15.27,8.59 L 15.30,8.52 L 12.63,7.19 L 15.30,5.85 Z" fill="#737373" stroke="none" /><path d="M 1.81,6.27 L 1.81,6.33 L 3.44,7.13 L 3.50,7.19 L 2.67,7.60 L 2.67,7.67 L 5.34,9.00 L 6.23,8.56 L 6.30,8.56 L 7.16,9.00 L 8.08,8.56 L 8.08,8.52 L 6.30,7.63 L 6.23,7.63 L 5.38,8.08 L 4.49,7.63 L 6.27,6.74 L 6.27,6.71 L 5.47,6.33 L 5.41,6.27 L 6.23,5.85 L 6.23,5.79 L 5.41,5.38 L 5.31,5.38 L 4.49,5.79 L 4.49,5.85 L 5.31,6.27 L 5.25,6.33 L 4.49,6.71 L 4.42,6.71 L 2.74,5.85 L 2.64,5.85 Z" fill="#737373" stroke="none" /><path d="M 20.77,4.01 L 20.77,4.04 L 21.60,4.45 L 21.73,4.45 L 22.49,4.07 L 22.49,4.01 L 21.66,3.59 L 21.57,3.59 Z" fill="#737373" stroke="none" /><path d="M 18.00,5.34 L 14.44,3.56 L 14.38,3.56 L 9.92,5.79 L 9.89,5.85 L 10.72,6.27 L 10.85,6.27 L 14.38,4.49 L 14.44,4.49 L 17.08,5.82 L 17.18,5.82 L 18.00,5.41 Z" fill="#737373" stroke="none" /><path d="M 18.07,3.53 L 18.07,3.59 L 18.89,4.01 L 18.99,4.01 L 19.82,3.59 L 19.82,3.53 L 18.99,3.12 L 18.89,3.12 Z" fill="#737373" stroke="none" /><path d="M 10.75,3.53 L 9.92,3.12 L 9.83,3.12 L 8.97,3.56 L 8.17,3.15 L 8.05,3.15 L 5.44,4.45 L 5.41,4.52 L 6.27,4.93 L 7.13,4.49 L 7.19,4.49 L 8.94,5.38 L 9.00,5.38 L 9.86,4.93 L 9.86,4.90 L 9.07,4.52 L 9.03,4.45 L 10.75,3.59 Z" fill="#737373" stroke="none" /><path d="M 14.41,2.64 L 14.41,2.67 L 17.08,4.01 L 17.18,4.01 L 18.00,3.59 L 18.00,3.53 L 16.29,2.67 L 16.32,2.61 L 17.11,2.23 L 17.11,2.19 L 16.25,1.75 L 16.19,1.75 Z" fill="#737373" stroke="none" /><path d="M 10.85,1.75 L 10.88,1.81 L 11.64,2.19 L 11.58,2.26 L 10.78,2.64 L 10.78,2.67 L 12.56,3.56 L 12.63,3.56 L 13.49,3.12 L 13.49,3.09 L 11.80,2.26 L 11.74,2.19 L 12.56,1.78 L 12.56,1.72 L 11.80,1.34 L 11.67,1.34 Z" fill="#737373" stroke="none" /><path d="M 15.30,1.27 L 14.47,0.86 L 14.35,0.86 L 12.63,1.72 L 12.63,1.78 L 13.46,2.19 L 13.55,2.19 L 15.27,1.34 Z" fill="#737373" stroke="none" /><path d="M 15.33,11.23 L 15.36,11.29 L 16.19,11.71 L 16.25,11.71 L 17.11,11.26 L 17.11,11.23 L 16.29,10.82 L 16.16,10.82 Z" fill="#878787" stroke="none" /><path d="M 11.71,10.34 L 10.78,9.89 L 9.00,10.78 L 9.00,10.82 L 9.86,11.26 L 9.92,11.26 L 11.71,10.37 Z" fill="#878787" stroke="none" /><path d="M 18.04,9.89 L 18.04,9.92 L 19.82,10.82 L 20.74,10.37 L 20.74,10.34 L 18.96,9.45 L 18.89,9.45 Z" fill="#878787" stroke="none" /><path d="M 6.30,9.42 L 6.30,9.48 L 7.13,9.89 L 7.22,9.89 L 8.08,9.45 L 8.94,9.89 L 9.03,9.89 L 9.86,9.48 L 9.86,9.42 L 8.14,8.56 L 8.02,8.56 Z" fill="#878787" stroke="none" /><path d="M 21.66,8.08 L 21.66,8.11 L 23.44,9.00 L 24.37,8.56 L 24.37,8.52 L 22.58,7.63 L 22.52,7.63 Z" fill="#878787" stroke="none" /><path d="M 14.41,8.08 L 14.41,8.11 L 15.30,8.56 L 16.22,8.11 L 16.22,8.08 L 15.33,7.63 Z" fill="#878787" stroke="none" /><path d="M 4.49,7.60 L 4.49,7.67 L 5.31,8.08 L 5.41,8.08 L 6.23,7.67 L 6.23,7.60 L 5.41,7.19 L 5.31,7.19 Z" fill="#878787" stroke="none" /><path d="M 23.48,7.16 L 23.51,7.22 L 24.33,7.63 L 24.40,7.63 L 25.26,7.19 L 25.26,7.16 L 24.43,6.74 L 24.30,6.74 Z" fill="#878787" stroke="none" /><path d="M 14.41,6.27 L 14.41,6.30 L 17.08,7.63 L 17.18,7.63 L 18.00,7.22 L 18.00,7.16 L 15.33,5.82 Z" fill="#878787" stroke="none" /><path d="M 7.19,7.16 L 7.22,7.22 L 10.78,9.00 L 11.71,8.56 L 11.71,8.52 L 9.03,7.19 L 9.10,7.13 L 10.78,6.30 L 10.78,6.27 L 9.89,5.82 Z" fill="#878787" stroke="none" /><path d="M 17.11,8.56 L 18.04,9.00 L 21.60,7.22 L 21.63,7.16 L 18.07,5.38 L 18.00,5.38 L 17.18,5.79 L 17.15,5.85 L 19.72,7.13 L 19.79,7.19 L 17.11,8.52 Z" fill="#878787" stroke="none" /><path d="M 21.69,5.34 L 21.69,5.41 L 22.52,5.82 L 22.58,5.82 L 23.44,5.38 L 23.44,5.34 L 22.62,4.93 L 22.52,4.93 Z" fill="#878787" stroke="none" /><path d="M 6.27,4.90 L 6.30,4.96 L 8.02,5.82 L 8.11,5.82 L 8.94,5.41 L 8.94,5.34 L 7.22,4.49 L 7.09,4.49 Z" fill="#878787" stroke="none" /><path d="M 21.66,4.45 L 20.74,4.01 L 18.96,4.90 L 18.96,4.93 L 19.82,5.38 L 19.88,5.38 L 21.66,4.49 Z" fill="#878787" stroke="none" /><path d="M 17.15,4.01 L 17.15,4.04 L 17.97,4.45 L 18.10,4.45 L 18.93,4.04 L 18.89,3.98 L 18.07,3.56 L 18.00,3.56 Z" fill="#878787" stroke="none" /><path d="M 9.89,4.01 L 9.89,4.04 L 10.72,4.45 L 10.85,4.45 L 11.67,4.04 L 11.64,3.98 L 10.82,3.56 L 10.75,3.56 Z" fill="#878787" stroke="none" /><path d="M 11.71,2.19 L 11.71,2.23 L 13.49,3.12 L 15.30,2.23 L 15.27,2.16 L 14.44,1.75 L 14.38,1.75 L 13.52,2.19 L 12.63,1.75 L 12.56,1.75 Z" fill="#878787" stroke="none" /></svg>