<svg height="32" width="32" viewBox="0 0 32 32"><defs /><path d="M 21.60,19.63 L 21.53,19.63 L 20.71,20.04 L 20.71,23.35 L 21.60,22.90 Z" fill="#392839" stroke="none" /><path d="M 8.08,18.10 L 8.02,18.10 L 7.22,18.51 L 7.22,19.59 L 8.08,19.18 Z" fill="#392839" stroke="none" /><path d="M 11.71,16.29 L 11.64,16.29 L 10.78,16.73 L 10.78,17.81 L 11.71,17.37 Z" fill="#392839" stroke="none" /><path d="M 28.82,16.00 L 27.93,16.45 L 27.93,24.14 L 27.86,24.21 L 21.63,27.32 L 21.60,27.29 L 21.60,26.24 L 21.53,26.24 L 20.71,26.66 L 20.71,27.77 L 20.68,27.80 L 14.41,30.92 L 14.41,32.00 L 14.47,32.00 L 28.82,24.81 Z" fill="#392839" stroke="none" /><path d="M 15.30,14.47 L 12.60,15.81 L 12.60,16.89 L 12.66,16.89 L 15.27,15.59 L 15.30,15.55 Z" fill="#392839" stroke="none" /><path d="M 17.11,13.58 L 17.05,13.58 L 16.22,14.00 L 16.22,15.08 L 16.29,15.08 L 17.11,14.66 Z" fill="#392839" stroke="none" /><path d="M 14.41,11.61 L 14.35,11.61 L 13.52,12.02 L 13.52,14.25 L 14.41,13.81 Z" fill="#392839" stroke="none" /><path d="M 14.41,7.19 L 13.52,7.63 L 13.52,8.72 L 14.41,8.27 Z" fill="#392839" stroke="none" /><path d="M 21.60,3.59 L 20.74,4.01 L 20.74,11.74 L 19.85,12.18 L 19.85,13.26 L 19.91,13.26 L 21.60,12.41 Z" fill="#392839" stroke="none" /><path d="M 21.60,22.90 L 20.71,23.35 L 20.71,26.66 L 20.77,26.66 L 21.60,26.24 Z" fill="#3e2c3e" stroke="none" /><path d="M 10.78,16.73 L 8.08,18.07 L 8.08,19.15 L 8.14,19.15 L 10.75,17.84 L 10.78,17.81 Z" fill="#3e2c3e" stroke="none" /><path d="M 12.60,15.84 L 12.53,15.84 L 11.71,16.25 L 11.71,17.34 L 11.77,17.34 L 12.60,16.92 Z" fill="#3e2c3e" stroke="none" /><path d="M 16.22,14.03 L 16.16,14.03 L 15.30,14.47 L 15.30,15.55 L 16.22,15.11 Z" fill="#3e2c3e" stroke="none" /><path d="M 14.41,13.81 L 13.52,14.25 L 13.52,15.36 L 14.41,14.92 Z" fill="#3e2c3e" stroke="none" /><path d="M 19.85,12.21 L 19.79,12.21 L 17.11,13.55 L 17.11,14.63 L 17.18,14.63 L 19.85,13.30 Z" fill="#3e2c3e" stroke="none" /><path d="M 14.41,8.27 L 13.52,8.72 L 13.52,12.02 L 13.58,12.02 L 14.41,11.61 Z" fill="#3e2c3e" stroke="none" /><path d="M 20.71,25.57 L 20.64,25.57 L 19.82,25.99 L 19.79,25.96 L 19.79,24.94 L 19.72,24.94 L 18.89,25.35 L 18.89,27.55 L 18.83,27.61 L 18.00,28.02 L 17.97,27.99 L 17.97,26.94 L 17.91,26.94 L 17.11,27.36 L 17.08,27.32 L 17.08,25.16 L 16.22,25.57 L 16.19,25.61 L 16.19,26.69 L 16.13,26.75 L 15.27,27.17 L 15.27,30.50 L 20.71,27.80 Z" fill="#412d40" stroke="none" /><path d="M 27.04,20.20 L 26.97,20.20 L 26.15,20.61 L 26.15,23.92 L 26.08,23.98 L 25.26,24.40 L 25.22,24.37 L 25.22,23.32 L 25.16,23.32 L 24.33,23.73 L 24.33,25.96 L 24.40,25.96 L 27.93,24.17 L 27.93,20.87 L 27.86,20.87 L 27.07,21.28 L 27.04,21.25 Z" fill="#412d40" stroke="none" /><path d="M 13.52,12.06 L 13.46,12.06 L 12.60,12.50 L 12.60,13.58 L 12.53,13.65 L 9.89,14.95 L 9.89,16.03 L 9.83,16.10 L 8.08,16.95 L 8.08,18.07 L 8.14,18.07 L 13.52,15.36 Z" fill="#412d40" stroke="none" /><path d="M 20.74,8.43 L 19.85,8.87 L 19.85,9.96 L 19.79,10.02 L 18.93,10.43 L 18.93,11.51 L 18.86,11.58 L 17.15,12.44 L 17.11,12.41 L 17.11,11.36 L 16.22,11.80 L 16.22,12.88 L 15.30,13.36 L 15.30,14.47 L 20.74,11.77 Z" fill="#412d40" stroke="none" /><path d="M 20.71,23.35 L 18.89,24.24 L 18.89,25.35 L 18.04,25.80 L 17.97,25.77 L 17.97,24.72 L 17.15,25.13 L 17.08,25.10 L 17.08,24.05 L 16.22,24.46 L 16.19,24.49 L 16.19,25.57 L 16.13,25.64 L 15.27,26.05 L 15.27,27.17 L 15.33,27.17 L 16.19,26.72 L 16.19,25.64 L 16.25,25.57 L 17.05,25.19 L 17.08,25.22 L 17.08,27.36 L 17.15,27.36 L 17.94,26.94 L 17.97,26.97 L 17.97,28.02 L 18.04,28.02 L 18.86,27.61 L 18.89,27.58 L 18.89,25.38 L 19.75,24.94 L 19.79,24.97 L 19.79,26.02 L 20.71,25.57 Z" fill="#443144" stroke="none" /><path d="M 20.71,21.15 L 20.64,21.15 L 19.79,21.60 L 19.79,22.68 L 19.85,22.68 L 20.71,22.23 Z" fill="#443144" stroke="none" /><path d="M 25.22,21.09 L 24.33,21.53 L 24.33,23.73 L 23.48,24.17 L 23.41,24.14 L 23.41,22.01 L 23.35,22.01 L 22.52,22.43 L 22.52,26.88 L 24.33,25.99 L 24.33,23.76 L 24.37,23.73 L 25.19,23.32 L 25.22,23.35 L 25.22,24.40 L 25.29,24.40 L 26.15,23.95 L 26.15,21.76 L 26.08,21.76 L 25.26,22.17 L 25.22,22.14 Z" fill="#443144" stroke="none" /><path d="M 26.97,19.09 L 26.15,19.50 L 26.15,20.61 L 26.21,20.61 L 27.01,20.20 L 27.04,20.23 L 27.04,21.28 L 27.10,21.28 L 27.93,20.87 L 27.93,19.75 L 27.86,19.75 L 27.07,20.17 L 27.04,20.14 L 27.04,19.09 Z" fill="#443144" stroke="none" /><path d="M 13.52,10.94 L 13.46,10.94 L 12.63,11.36 L 12.60,11.32 L 12.60,10.27 L 11.74,10.69 L 11.71,10.72 L 11.71,12.91 L 11.64,12.98 L 10.82,13.39 L 10.78,13.36 L 10.78,12.31 L 10.72,12.31 L 9.89,12.72 L 9.89,14.95 L 9.03,15.40 L 8.97,15.36 L 8.97,12.09 L 8.08,12.53 L 8.08,16.95 L 8.14,16.95 L 9.89,16.06 L 9.89,14.98 L 9.92,14.95 L 12.60,13.61 L 12.60,12.53 L 12.66,12.47 L 13.52,12.06 Z" fill="#443144" stroke="none" /><path d="M 20.74,6.20 L 19.85,6.65 L 19.85,8.84 L 19.79,8.91 L 18.96,9.32 L 18.93,9.29 L 18.93,8.24 L 18.86,8.24 L 18.04,8.65 L 18.04,10.88 L 18.00,10.91 L 17.18,11.32 L 17.11,11.29 L 17.11,8.02 L 16.22,8.46 L 16.22,9.54 L 16.16,9.61 L 15.30,10.02 L 15.30,13.36 L 16.22,12.91 L 16.22,11.83 L 16.29,11.77 L 17.08,11.39 L 17.11,11.42 L 17.11,12.44 L 17.18,12.44 L 18.93,11.55 L 18.93,10.47 L 19.85,9.99 L 19.85,8.91 L 19.91,8.84 L 20.74,8.43 Z" fill="#443144" stroke="none" /><path d="M 20.71,22.23 L 19.82,22.68 L 19.79,22.65 L 19.79,21.60 L 19.75,21.60 L 15.30,23.83 L 15.27,23.86 L 15.27,26.05 L 15.33,26.05 L 16.19,25.61 L 16.19,24.52 L 16.25,24.46 L 17.02,24.08 L 17.08,24.11 L 17.08,25.16 L 17.91,24.75 L 17.97,24.78 L 17.97,25.83 L 18.89,25.38 L 18.89,24.27 L 20.71,23.35 Z" fill="#463546" stroke="none" /><path d="M 27.93,17.53 L 22.52,20.23 L 22.52,22.43 L 22.58,22.43 L 23.38,22.01 L 23.41,22.04 L 23.41,24.21 L 24.33,23.76 L 24.33,21.57 L 24.40,21.50 L 25.19,21.12 L 25.22,21.15 L 25.22,22.20 L 26.15,21.76 L 26.15,19.53 L 26.18,19.50 L 27.01,19.09 L 27.04,19.12 L 27.04,20.17 L 27.10,20.17 L 27.93,19.75 Z" fill="#463546" stroke="none" /><path d="M 13.52,8.72 L 8.08,11.42 L 8.08,12.53 L 8.91,12.12 L 8.97,12.15 L 8.97,15.43 L 9.89,14.98 L 9.89,12.76 L 9.92,12.72 L 10.75,12.31 L 10.78,12.34 L 10.78,13.39 L 10.85,13.39 L 11.71,12.95 L 11.71,10.75 L 11.77,10.69 L 12.56,10.31 L 12.60,10.34 L 12.60,11.39 L 13.52,10.94 Z" fill="#463546" stroke="none" /><path d="M 20.74,5.12 L 20.68,5.12 L 15.33,7.79 L 15.30,7.83 L 15.30,10.02 L 15.36,10.02 L 16.22,9.57 L 16.22,8.49 L 16.29,8.43 L 17.08,8.05 L 17.11,8.08 L 17.11,11.36 L 18.04,10.91 L 18.04,8.68 L 18.89,8.24 L 18.93,8.27 L 18.93,9.32 L 18.99,9.32 L 19.85,8.87 L 19.85,6.68 L 19.91,6.62 L 20.74,6.20 Z" fill="#463546" stroke="none" /><path d="M 15.27,27.20 L 15.20,27.20 L 14.41,27.61 L 14.41,30.92 L 14.47,30.92 L 15.27,30.50 Z" fill="#4a3b4a" stroke="none" /><path d="M 22.52,25.77 L 21.60,26.21 L 21.60,27.32 L 21.66,27.32 L 22.52,26.88 Z" fill="#4a3b4a" stroke="none" /><path d="M 15.27,23.86 L 14.41,24.27 L 14.41,25.38 L 15.27,24.97 Z" fill="#4a3b4a" stroke="none" /><path d="M 17.08,21.88 L 17.02,21.88 L 16.19,22.30 L 16.19,23.38 L 16.25,23.38 L 17.08,22.97 Z" fill="#4a3b4a" stroke="none" /><path d="M 19.79,20.52 L 17.97,21.41 L 17.97,22.49 L 18.04,22.49 L 19.79,21.60 Z" fill="#4a3b4a" stroke="none" /><path d="M 24.33,18.26 L 24.27,18.26 L 22.55,19.12 L 22.52,19.15 L 22.52,20.20 L 22.46,20.26 L 21.60,20.68 L 21.60,25.10 L 21.66,25.10 L 22.52,24.65 L 22.52,20.26 L 22.58,20.20 L 24.33,19.34 Z" fill="#4a3b4a" stroke="none" /><path d="M 27.93,16.45 L 26.15,17.34 L 26.15,18.42 L 27.93,17.53 Z" fill="#4a3b4a" stroke="none" /><path d="M 8.08,15.87 L 7.22,16.29 L 7.22,18.51 L 8.08,18.10 Z" fill="#4a3b4a" stroke="none" /><path d="M 15.30,12.28 L 15.24,12.28 L 14.41,12.69 L 14.41,14.92 L 15.30,14.47 Z" fill="#4a3b4a" stroke="none" /><path d="M 8.97,9.92 L 8.91,9.92 L 8.08,10.34 L 8.08,11.42 L 7.22,11.86 L 7.22,14.06 L 7.28,14.06 L 8.08,13.65 L 8.08,11.45 L 8.97,11.01 Z" fill="#4a3b4a" stroke="none" /><path d="M 11.71,8.56 L 11.64,8.56 L 10.78,9.00 L 10.78,10.08 L 11.71,9.64 Z" fill="#4a3b4a" stroke="none" /><path d="M 13.52,7.63 L 12.60,8.08 L 12.60,9.16 L 12.66,9.16 L 13.52,8.72 Z" fill="#4a3b4a" stroke="none" /><path d="M 18.04,5.38 L 15.30,6.74 L 15.30,7.79 L 15.24,7.86 L 14.41,8.27 L 14.41,10.47 L 14.47,10.47 L 15.30,10.05 L 15.30,7.86 L 15.36,7.79 L 18.00,6.49 L 18.04,6.46 Z" fill="#4a3b4a" stroke="none" /><path d="M 15.27,24.97 L 15.20,24.97 L 14.41,25.38 L 14.41,27.61 L 15.27,27.20 Z" fill="#4f424f" stroke="none" /><path d="M 22.52,24.65 L 21.60,25.10 L 21.60,26.21 L 21.66,26.21 L 22.52,25.77 Z" fill="#4f424f" stroke="none" /><path d="M 16.19,22.33 L 16.13,22.33 L 14.41,23.19 L 14.41,24.27 L 14.47,24.27 L 16.19,23.41 Z" fill="#4f424f" stroke="none" /><path d="M 17.97,21.44 L 17.91,21.44 L 17.08,21.85 L 17.08,22.93 L 17.15,22.93 L 17.97,22.52 Z" fill="#4f424f" stroke="none" /><path d="M 20.71,20.07 L 20.64,20.07 L 19.79,20.52 L 19.79,21.60 L 20.71,21.15 Z" fill="#4f424f" stroke="none" /><path d="M 22.52,19.15 L 21.60,19.59 L 21.60,20.68 L 21.66,20.68 L 22.52,20.23 Z" fill="#4f424f" stroke="none" /><path d="M 26.15,17.34 L 24.33,18.23 L 24.33,19.31 L 24.40,19.31 L 26.15,18.42 Z" fill="#4f424f" stroke="none" /><path d="M 8.08,13.65 L 7.22,14.06 L 7.22,16.29 L 7.28,16.29 L 8.08,15.87 Z" fill="#4f424f" stroke="none" /><path d="M 8.08,10.37 L 8.02,10.37 L 7.22,10.78 L 7.22,11.86 L 8.08,11.45 Z" fill="#4f424f" stroke="none" /><path d="M 15.30,10.05 L 15.24,10.05 L 14.41,10.47 L 14.41,12.69 L 14.47,12.69 L 15.30,12.28 Z" fill="#4f424f" stroke="none" /><path d="M 10.78,9.00 L 8.97,9.89 L 8.97,10.97 L 9.03,10.97 L 10.78,10.08 Z" fill="#4f424f" stroke="none" /><path d="M 12.60,8.11 L 12.53,8.11 L 11.71,8.52 L 11.71,9.61 L 11.77,9.61 L 12.60,9.19 Z" fill="#4f424f" stroke="none" /><path d="M 15.30,6.74 L 14.41,7.19 L 14.41,8.27 L 15.30,7.83 Z" fill="#4f424f" stroke="none" /><path d="M 20.74,4.04 L 20.68,4.04 L 18.07,5.34 L 18.04,5.38 L 18.04,6.46 L 20.74,5.12 Z" fill="#4f424f" stroke="none" /><path d="M 14.41,32.00 L 14.41,23.19 L 13.55,22.78 L 13.55,30.44 L 13.52,30.47 L 7.25,27.36 L 7.22,27.32 L 7.22,26.21 L 6.33,25.77 L 6.30,25.77 L 6.30,26.82 L 6.23,26.85 L 0.00,23.73 L 0.00,24.81 L 0.03,24.84 L 14.35,32.00 Z" fill="#5c415c" stroke="none" /><path d="M 5.41,17.62 L 5.41,18.70 L 5.44,18.70 L 5.50,18.77 L 5.57,18.77 L 5.69,18.86 L 5.76,18.86 L 5.82,18.93 L 5.88,18.93 L 6.01,19.02 L 6.08,19.02 L 6.14,19.09 L 6.20,19.09 L 6.30,19.18 L 6.30,22.46 L 7.22,22.90 L 7.22,18.51 L 5.47,17.62 Z" fill="#5c415c" stroke="none" /><path d="M 3.63,16.73 L 3.63,17.81 L 3.79,17.91 L 3.85,17.91 L 3.91,17.97 L 4.10,18.07 L 4.17,18.07 L 4.23,18.13 L 4.42,18.23 L 4.52,18.23 L 4.52,17.15 L 3.69,16.73 Z" fill="#5c415c" stroke="none" /><path d="M 0.00,14.92 L 0.00,16.00 L 0.89,16.45 L 0.89,15.33 L 0.06,14.92 Z" fill="#5c415c" stroke="none" /><path d="M 6.33,14.76 L 6.33,16.99 L 7.16,17.40 L 7.22,17.40 L 7.22,15.17 L 6.39,14.76 Z" fill="#5c415c" stroke="none" /><path d="M 6.33,10.34 L 6.33,11.42 L 7.22,11.86 L 7.22,10.78 Z" fill="#5c415c" stroke="none" /><path d="M 6.30,22.46 L 6.30,25.77 L 7.16,26.21 L 7.22,26.21 L 7.22,22.90 L 6.36,22.46 Z" fill="#654764" stroke="none" /><path d="M 4.52,17.18 L 4.52,18.26 L 5.41,18.70 L 5.41,17.59 L 4.58,17.18 Z" fill="#654764" stroke="none" /><path d="M 6.33,16.99 L 6.33,18.07 L 7.22,18.51 L 7.22,17.40 L 6.39,16.99 Z" fill="#654764" stroke="none" /><path d="M 0.89,15.36 L 0.89,16.45 L 0.92,16.48 L 3.63,17.81 L 3.63,16.70 L 0.95,15.36 Z" fill="#654764" stroke="none" /><path d="M 6.33,11.42 L 6.33,14.76 L 7.16,15.17 L 7.22,15.17 L 7.22,11.86 Z" fill="#654764" stroke="none" /><path d="M 11.74,25.16 L 11.74,28.44 L 11.71,28.47 L 10.85,28.02 L 10.85,26.91 L 9.92,26.47 L 9.92,28.69 L 13.55,30.50 L 13.55,27.17 L 12.69,26.75 L 12.63,26.69 L 12.63,25.61 Z" fill="#694969" stroke="none" /><path d="M 0.89,20.87 L 0.89,24.17 L 6.30,26.88 L 6.30,24.65 L 5.47,24.24 L 5.41,24.17 L 5.41,23.09 L 4.49,22.65 L 4.49,24.81 L 4.45,24.84 L 3.59,24.40 L 3.59,23.28 L 2.74,22.87 L 2.67,22.81 L 2.67,20.61 L 1.84,20.20 L 1.78,20.20 L 1.78,21.25 L 1.75,21.28 L 0.95,20.87 Z" fill="#694969" stroke="none" /><path d="M 0.89,14.25 L 0.89,15.36 L 6.33,18.07 L 6.33,14.73 L 5.41,14.28 L 5.41,15.33 L 5.34,15.36 L 2.77,14.06 L 2.70,14.06 L 2.70,15.11 L 2.67,15.14 Z" fill="#694969" stroke="none" /><path d="M 11.74,24.05 L 11.74,25.16 L 12.56,25.57 L 12.63,25.64 L 12.63,26.72 L 13.49,27.17 L 13.55,27.17 L 13.55,26.05 L 12.69,25.64 L 12.63,25.57 L 12.63,24.49 Z" fill="#6e4f6e" stroke="none" /><path d="M 8.11,23.35 L 8.11,27.80 L 9.92,28.69 L 9.92,26.53 L 9.99,26.50 L 10.85,26.94 L 10.85,28.06 L 11.67,28.47 L 11.74,28.47 L 11.74,26.27 L 10.91,25.86 L 10.85,25.80 L 10.85,24.72 L 9.99,24.27 L 9.92,24.27 L 9.92,26.40 L 9.86,26.43 L 9.10,26.05 L 9.03,25.99 L 9.03,23.79 Z" fill="#6e4f6e" stroke="none" /><path d="M 5.41,19.79 L 5.41,20.90 L 6.23,21.31 L 6.30,21.31 L 6.30,20.23 Z" fill="#6e4f6e" stroke="none" /><path d="M 0.89,19.75 L 0.89,20.87 L 1.72,21.28 L 1.78,21.28 L 1.78,20.23 L 1.81,20.20 L 2.67,20.64 L 2.67,22.84 L 3.59,23.32 L 3.59,24.43 L 4.42,24.84 L 4.49,24.84 L 4.49,22.71 L 4.55,22.68 L 5.41,23.13 L 5.41,24.21 L 6.30,24.65 L 6.30,22.43 L 4.52,21.53 L 4.49,21.53 L 4.49,22.58 L 4.45,22.62 L 3.66,22.23 L 3.59,22.17 L 3.59,21.09 L 2.67,20.61 L 2.67,19.50 L 1.84,19.09 L 1.78,19.09 L 1.78,20.14 L 1.75,20.17 L 0.95,19.75 Z" fill="#6e4f6e" stroke="none" /><path d="M 0.89,9.83 L 0.89,14.25 L 0.92,14.28 L 2.64,15.14 L 2.70,15.14 L 2.70,14.09 L 2.74,14.06 L 5.38,15.40 L 5.41,15.40 L 5.41,14.35 L 5.44,14.31 L 6.27,14.73 L 6.33,14.73 L 6.33,13.65 L 5.41,13.17 L 5.41,12.06 L 4.58,11.64 L 4.52,11.64 L 4.52,13.77 L 4.49,13.81 L 3.69,13.42 L 3.63,13.36 L 3.63,12.28 L 2.74,11.83 L 2.70,11.83 L 2.70,14.00 L 2.67,14.03 L 1.84,13.61 L 1.81,13.58 L 1.81,10.27 L 0.95,9.83 Z" fill="#6e4f6e" stroke="none" /><path d="M 8.11,21.15 L 8.11,23.35 L 9.03,23.83 L 9.03,26.02 L 9.07,26.05 L 9.92,26.47 L 9.92,24.30 L 9.96,24.27 L 10.78,24.68 L 10.85,24.75 L 10.85,25.83 L 11.74,26.27 L 11.74,24.11 L 11.77,24.08 L 12.56,24.46 L 12.63,24.52 L 12.63,25.61 L 13.49,26.05 L 13.55,26.05 L 13.55,23.86 L 13.52,23.83 L 8.17,21.15 Z" fill="#725672" stroke="none" /><path d="M 0.89,17.53 L 0.89,19.75 L 1.72,20.17 L 1.78,20.17 L 1.78,19.12 L 1.81,19.09 L 2.64,19.50 L 2.67,19.53 L 2.67,20.64 L 3.53,21.06 L 3.59,21.12 L 3.59,22.20 L 3.63,22.23 L 4.49,22.65 L 4.49,21.60 L 4.55,21.57 L 6.23,22.43 L 6.30,22.43 L 6.30,21.31 L 5.41,20.87 L 5.41,19.79 L 5.38,19.75 Z" fill="#725672" stroke="none" /><path d="M 0.89,8.72 L 0.89,9.83 L 1.75,10.24 L 1.81,10.31 L 1.81,13.61 L 2.64,14.03 L 2.70,14.03 L 2.70,11.90 L 2.77,11.86 L 3.63,12.31 L 3.63,13.39 L 4.52,13.84 L 4.52,11.67 L 4.55,11.64 L 5.41,12.09 L 5.41,13.20 L 6.33,13.65 L 6.33,11.42 L 6.30,11.39 L 0.95,8.72 Z" fill="#725672" stroke="none" /><path d="M 7.22,26.24 L 7.22,27.36 L 8.05,27.77 L 8.11,27.77 L 8.11,26.66 L 7.28,26.24 Z" fill="#776077" stroke="none" /><path d="M 11.74,21.88 L 11.74,22.97 L 13.55,23.86 L 13.55,22.78 L 11.80,21.88 Z" fill="#776077" stroke="none" /><path d="M 0.00,20.42 L 0.00,23.73 L 0.89,24.17 L 0.89,20.83 L 0.06,20.42 Z" fill="#776077" stroke="none" /><path d="M 8.17,20.07 L 8.11,20.07 L 8.11,21.09 L 8.08,21.12 L 7.28,20.71 L 7.22,20.71 L 7.22,25.13 L 8.05,25.54 L 8.11,25.54 L 8.11,21.18 L 8.14,21.15 L 9.92,22.04 L 9.92,20.96 Z" fill="#776077" stroke="none" /><path d="M 3.59,17.81 L 3.59,18.89 L 5.41,19.79 L 5.41,18.70 L 3.66,17.81 Z" fill="#776077" stroke="none" /><path d="M 0.00,17.08 L 0.00,18.19 L 0.83,18.61 L 0.89,18.61 L 0.89,17.53 Z" fill="#776077" stroke="none" /><path d="M 1.78,16.89 L 1.78,17.97 L 2.67,18.42 L 2.67,17.34 Z" fill="#776077" stroke="none" /><path d="M 0.00,12.69 L 0.00,14.92 L 0.83,15.33 L 0.89,15.33 L 0.89,13.14 Z" fill="#776077" stroke="none" /><path d="M 5.41,9.89 L 5.41,10.97 L 6.33,11.42 L 6.33,10.34 L 5.47,9.89 Z" fill="#776077" stroke="none" /><path d="M 3.63,9.00 L 3.63,10.08 L 4.45,10.50 L 4.52,10.50 L 4.52,9.42 L 3.69,9.00 Z" fill="#776077" stroke="none" /><path d="M 0.95,7.63 L 0.89,7.63 L 0.89,8.65 L 0.86,8.68 L 0.06,8.27 L 0.00,8.27 L 0.00,10.50 L 0.83,10.91 L 0.89,10.91 L 0.89,8.75 L 0.92,8.72 L 1.81,9.16 L 1.81,8.08 Z" fill="#776077" stroke="none" /><path d="M 7.22,25.13 L 7.22,26.24 L 8.05,26.66 L 8.11,26.66 L 8.11,25.54 L 7.28,25.13 Z" fill="#806c80" stroke="none" /><path d="M 9.92,20.96 L 9.92,22.04 L 11.67,22.93 L 11.74,22.93 L 11.74,21.85 Z" fill="#806c80" stroke="none" /><path d="M 7.22,19.63 L 7.22,20.71 L 8.05,21.12 L 8.11,21.12 L 8.11,20.04 L 7.28,19.63 Z" fill="#806c80" stroke="none" /><path d="M 5.41,18.70 L 5.41,19.79 L 6.30,20.23 L 6.30,19.15 Z" fill="#806c80" stroke="none" /><path d="M 0.00,18.19 L 0.00,20.42 L 0.83,20.83 L 0.89,20.83 L 0.89,18.61 L 0.06,18.19 Z" fill="#806c80" stroke="none" /><path d="M 2.67,17.34 L 2.67,18.42 L 3.53,18.86 L 3.59,18.86 L 3.59,17.78 Z" fill="#806c80" stroke="none" /><path d="M 0.00,16.00 L 0.00,17.08 L 1.78,17.97 L 1.78,16.89 Z" fill="#806c80" stroke="none" /><path d="M 0.00,10.50 L 0.00,12.69 L 0.89,13.14 L 0.89,10.91 L 0.06,10.50 Z" fill="#806c80" stroke="none" /><path d="M 4.52,9.45 L 4.52,10.53 L 5.34,10.94 L 5.41,10.94 L 5.41,9.86 L 4.58,9.45 Z" fill="#806c80" stroke="none" /><path d="M 1.81,8.08 L 1.81,9.16 L 3.56,10.05 L 3.63,10.05 L 3.63,8.97 Z" fill="#806c80" stroke="none" /><path d="M 0.00,7.19 L 0.00,8.27 L 0.83,8.68 L 0.89,8.68 L 0.89,7.60 L 0.06,7.19 Z" fill="#806c80" stroke="none" /><path d="M 19.85,19.59 L 19.88,19.66 L 20.64,20.04 L 20.77,20.04 L 21.60,19.63 L 21.57,19.56 L 20.80,19.18 L 20.68,19.18 Z" fill="#8e648e" stroke="none" /><path d="M 7.22,19.59 L 7.22,19.63 L 8.05,20.04 L 8.17,20.04 L 8.97,19.63 L 8.97,19.59 L 8.14,19.18 L 8.02,19.18 Z" fill="#8e648e" stroke="none" /><path d="M 16.25,17.78 L 16.25,17.84 L 17.08,18.26 L 17.18,18.26 L 18.00,17.84 L 18.00,17.78 L 17.18,17.37 L 17.08,17.37 Z" fill="#8e648e" stroke="none" /><path d="M 13.49,17.34 L 12.66,16.92 L 12.53,16.92 L 10.82,17.78 L 10.82,17.84 L 11.64,18.26 L 11.74,18.26 L 13.46,17.40 Z" fill="#8e648e" stroke="none" /><path d="M 18.04,15.08 L 17.11,14.63 L 13.55,16.41 L 13.52,16.48 L 15.33,17.37 L 16.22,16.92 L 16.22,16.89 L 15.43,16.51 L 15.36,16.45 L 15.40,16.41 L 18.04,15.11 Z" fill="#8e648e" stroke="none" /><path d="M 19.85,13.26 L 19.88,13.33 L 20.71,13.74 L 20.77,13.74 L 21.66,13.30 L 27.93,16.45 L 28.79,16.03 L 28.79,15.97 L 21.66,12.41 L 21.57,12.41 Z" fill="#8e648e" stroke="none" /><path d="M 12.63,7.19 L 12.63,7.22 L 13.46,7.63 L 13.55,7.63 L 14.38,7.22 L 14.38,7.16 L 13.55,6.74 L 13.49,6.74 Z" fill="#8e648e" stroke="none" /><path d="M 10.82,6.27 L 10.85,6.33 L 11.67,6.74 L 11.74,6.74 L 12.60,6.30 L 12.60,6.27 L 11.77,5.85 L 11.64,5.85 Z" fill="#8e648e" stroke="none" /><path d="M 21.60,3.56 L 14.47,0.00 L 14.35,0.00 L 0.03,7.16 L 0.03,7.19 L 0.92,7.63 L 7.19,4.49 L 8.05,4.93 L 8.14,4.93 L 8.97,4.52 L 8.97,4.45 L 8.17,4.07 L 8.14,4.04 L 8.21,3.98 L 14.44,0.86 L 20.71,4.01 L 20.80,4.01 L 21.57,3.63 Z" fill="#8e648e" stroke="none" /><path d="M 17.15,18.26 L 17.15,18.29 L 19.82,19.63 L 20.74,19.18 L 20.74,19.15 L 18.07,17.81 L 18.00,17.81 Z" fill="#9b6e9a" stroke="none" /><path d="M 11.67,18.26 L 10.82,17.81 L 10.75,17.81 L 8.08,19.15 L 8.08,19.18 L 9.00,19.63 L 11.67,18.29 Z" fill="#9b6e9a" stroke="none" /><path d="M 15.33,17.34 L 15.36,17.40 L 16.19,17.81 L 16.25,17.81 L 17.11,17.37 L 17.11,17.34 L 16.29,16.92 L 16.16,16.92 Z" fill="#9b6e9a" stroke="none" /><path d="M 12.60,16.89 L 12.60,16.92 L 13.49,17.37 L 14.41,16.92 L 14.41,16.89 L 13.52,16.45 Z" fill="#9b6e9a" stroke="none" /><path d="M 20.71,13.71 L 19.88,13.30 L 19.79,13.30 L 17.18,14.60 L 17.15,14.66 L 17.97,15.08 L 18.10,15.08 L 20.71,13.77 Z" fill="#9b6e9a" stroke="none" /><path d="M 11.74,6.71 L 11.74,6.78 L 12.56,7.19 L 12.66,7.19 L 13.49,6.78 L 13.49,6.71 L 12.66,6.30 L 12.56,6.30 Z" fill="#9b6e9a" stroke="none" /><path d="M 8.11,4.93 L 8.11,4.96 L 10.78,6.30 L 11.71,5.85 L 11.71,5.82 L 9.03,4.49 L 8.97,4.49 Z" fill="#9b6e9a" stroke="none" /><path d="M 11.71,18.26 L 11.71,18.29 L 12.53,18.70 L 12.66,18.70 L 13.46,18.29 L 13.55,18.29 L 16.19,19.63 L 16.25,19.63 L 17.11,19.18 L 18.89,20.07 L 18.96,20.07 L 19.82,19.63 L 19.82,19.59 L 14.47,16.92 L 14.35,16.92 Z" fill="#a271a1" stroke="none" /><path d="M 19.88,14.16 L 19.88,14.22 L 20.71,14.63 L 20.64,14.70 L 19.85,15.08 L 19.85,15.11 L 20.74,15.55 L 22.52,14.66 L 22.58,14.66 L 23.35,15.05 L 23.41,15.11 L 22.58,15.52 L 22.58,15.55 L 23.44,16.00 L 21.66,16.89 L 21.66,16.92 L 22.49,17.34 L 22.62,17.34 L 23.41,16.92 L 23.51,16.92 L 24.30,17.34 L 24.43,17.34 L 27.04,16.03 L 27.04,15.97 L 21.69,13.30 L 21.60,13.30 Z" fill="#a271a1" stroke="none" /><path d="M 4.49,5.82 L 4.49,5.85 L 5.38,6.30 L 6.27,5.85 L 6.33,5.85 L 7.19,6.30 L 8.11,5.85 L 9.86,6.74 L 9.03,7.16 L 9.03,7.22 L 9.86,7.63 L 9.96,7.63 L 10.75,7.22 L 10.85,7.22 L 11.64,7.63 L 11.77,7.63 L 12.60,7.22 L 12.56,7.16 L 7.22,4.49 L 7.16,4.49 Z" fill="#a271a1" stroke="none" /><path d="M 11.74,2.19 L 11.77,2.26 L 12.60,2.67 L 11.77,3.09 L 11.74,3.15 L 12.56,3.56 L 12.69,3.56 L 15.33,2.23 L 16.13,2.61 L 16.19,2.67 L 15.36,3.09 L 15.36,3.15 L 16.19,3.56 L 16.29,3.56 L 18.04,2.67 L 18.04,2.64 L 14.47,0.86 L 14.41,0.86 Z" fill="#a271a1" stroke="none" /><path d="M 18.89,20.04 L 17.18,19.18 L 17.08,19.18 L 16.25,19.59 L 16.25,19.66 L 17.05,20.04 L 17.08,20.07 L 17.05,20.10 L 14.41,21.41 L 14.41,21.44 L 15.33,21.88 L 18.89,20.10 Z" fill="#aa7aaa" stroke="none" /><path d="M 10.78,18.70 L 10.78,18.74 L 11.58,19.12 L 11.64,19.18 L 10.82,19.59 L 10.82,19.63 L 11.67,20.07 L 11.74,20.07 L 13.49,19.18 L 14.38,19.63 L 13.52,20.07 L 13.52,20.10 L 14.35,20.52 L 14.47,20.52 L 16.19,19.66 L 16.19,19.59 L 13.52,18.26 L 12.63,18.70 L 12.56,18.70 L 11.71,18.26 Z" fill="#aa7aaa" stroke="none" /><path d="M 16.25,15.97 L 16.25,16.03 L 17.08,16.45 L 17.18,16.45 L 18.00,16.03 L 18.00,15.97 L 17.18,15.55 L 17.08,15.55 Z" fill="#aa7aaa" stroke="none" /><path d="M 18.04,15.08 L 18.04,15.11 L 19.82,16.00 L 19.88,16.00 L 20.74,15.55 L 21.60,15.97 L 21.63,16.00 L 21.60,16.03 L 20.77,16.45 L 20.77,16.48 L 21.57,16.86 L 21.60,16.92 L 20.77,17.34 L 20.77,17.37 L 21.63,17.81 L 22.52,17.37 L 22.58,17.37 L 23.44,17.81 L 24.37,17.37 L 24.37,17.34 L 23.48,16.89 L 22.58,17.34 L 22.52,17.34 L 21.73,16.92 L 21.76,16.86 L 23.44,16.03 L 23.44,15.97 L 22.62,15.55 L 22.68,15.49 L 23.41,15.14 L 23.44,15.08 L 22.62,14.66 L 22.49,14.66 L 20.80,15.52 L 20.71,15.52 L 19.94,15.14 L 19.91,15.08 L 20.74,14.66 L 20.74,14.63 L 19.88,14.19 L 19.82,14.19 Z" fill="#aa7aaa" stroke="none" /><path d="M 2.70,6.71 L 2.70,6.78 L 3.53,7.19 L 3.63,7.19 L 5.41,6.30 L 6.27,6.74 L 5.41,7.19 L 5.41,7.22 L 6.23,7.63 L 6.33,7.63 L 8.08,6.74 L 8.94,7.16 L 8.97,7.19 L 8.94,7.22 L 6.30,8.52 L 6.33,8.59 L 7.16,9.00 L 7.22,9.00 L 8.08,8.56 L 8.97,9.00 L 9.03,9.00 L 11.71,7.67 L 11.71,7.63 L 10.82,7.19 L 9.92,7.63 L 9.07,7.22 L 9.03,7.19 L 9.07,7.16 L 9.86,6.78 L 9.86,6.71 L 8.14,5.85 L 8.05,5.85 L 7.25,6.27 L 7.16,6.27 L 6.36,5.85 L 6.23,5.85 L 5.44,6.27 L 5.34,6.27 L 4.55,5.85 L 4.42,5.85 Z" fill="#aa7aaa" stroke="none" /><path d="M 13.52,4.04 L 14.44,4.49 L 16.19,3.59 L 16.29,3.59 L 17.05,3.98 L 17.08,4.04 L 15.36,4.90 L 15.36,4.96 L 16.19,5.38 L 16.29,5.38 L 19.85,3.59 L 19.85,3.56 L 18.10,2.67 L 18.00,2.67 L 16.22,3.56 L 15.36,3.12 L 16.19,2.70 L 16.22,2.64 L 15.40,2.23 L 15.30,2.23 L 13.55,3.12 L 13.55,3.15 L 14.38,3.56 L 14.31,3.63 L 13.52,4.01 Z" fill="#aa7aaa" stroke="none" /><path d="M 11.67,2.23 L 10.85,2.64 L 10.85,2.70 L 11.67,3.12 L 11.61,3.18 L 10.82,3.56 L 10.82,3.59 L 11.74,4.04 L 12.63,3.59 L 12.63,3.56 L 11.83,3.18 L 11.77,3.12 L 12.60,2.70 L 12.60,2.64 L 11.77,2.23 Z" fill="#aa7aaa" stroke="none" /><path d="M 9.00,19.59 L 9.03,19.66 L 14.38,22.33 L 14.44,22.33 L 15.30,21.88 L 15.30,21.85 L 14.50,21.47 L 14.47,21.44 L 14.50,21.38 L 17.08,20.10 L 17.08,20.04 L 16.25,19.63 L 16.19,19.63 L 14.44,20.52 L 14.38,20.52 L 13.61,20.14 L 13.55,20.07 L 14.38,19.66 L 14.38,19.59 L 13.55,19.18 L 13.46,19.18 L 11.71,20.07 L 10.85,19.63 L 10.91,19.56 L 11.67,19.18 L 11.67,19.15 L 10.85,18.74 L 10.72,18.74 Z" fill="#b084b0" stroke="none" /><path d="M 17.15,15.52 L 17.18,15.59 L 18.00,16.00 L 17.18,16.41 L 17.15,16.48 L 21.60,18.70 L 21.69,18.70 L 23.44,17.81 L 23.44,17.78 L 22.62,17.37 L 22.49,17.37 L 21.69,17.78 L 21.60,17.78 L 20.83,17.40 L 20.80,17.37 L 20.87,17.30 L 21.66,16.92 L 21.66,16.89 L 20.87,16.51 L 20.80,16.45 L 21.63,16.03 L 21.63,15.97 L 20.80,15.55 L 20.71,15.55 L 19.85,16.00 L 18.10,15.11 L 17.97,15.11 Z" fill="#b084b0" stroke="none" /><path d="M 1.78,7.19 L 1.78,7.22 L 7.13,9.89 L 7.25,9.89 L 8.97,9.03 L 8.97,8.97 L 8.14,8.56 L 8.05,8.56 L 7.19,9.00 L 6.33,8.56 L 6.39,8.49 L 8.97,7.22 L 8.97,7.16 L 8.14,6.74 L 8.05,6.74 L 6.30,7.63 L 5.50,7.25 L 5.44,7.19 L 6.27,6.78 L 6.27,6.71 L 5.44,6.30 L 5.34,6.30 L 3.59,7.19 L 2.70,6.74 L 2.64,6.74 Z" fill="#b084b0" stroke="none" /><path d="M 9.00,3.56 L 9.00,3.59 L 14.41,6.30 L 16.22,5.41 L 16.19,5.34 L 15.36,4.93 L 17.15,4.04 L 17.15,4.01 L 16.22,3.56 L 14.47,4.45 L 14.38,4.45 L 13.61,4.07 L 13.58,4.01 L 14.41,3.59 L 14.41,3.56 L 13.55,3.12 L 11.77,4.01 L 11.67,4.01 L 10.91,3.63 L 10.88,3.56 L 11.71,3.15 L 11.71,3.12 L 10.85,2.67 L 10.78,2.67 Z" fill="#b084b0" stroke="none" /><path d="M 12.63,22.30 L 12.63,22.33 L 13.52,22.78 L 14.38,22.36 L 14.38,22.30 L 13.55,21.88 L 13.46,21.88 Z" fill="#b893b8" stroke="none" /><path d="M 17.08,21.85 L 16.25,21.44 L 16.16,21.44 L 14.44,22.30 L 14.44,22.36 L 15.30,22.78 L 17.08,21.88 Z" fill="#b893b8" stroke="none" /><path d="M 9.96,20.93 L 9.96,20.99 L 10.78,21.41 L 10.88,21.41 L 11.71,20.99 L 11.71,20.96 L 10.82,20.52 Z" fill="#b893b8" stroke="none" /><path d="M 20.71,20.04 L 19.88,19.63 L 19.79,19.63 L 18.07,20.49 L 18.04,20.55 L 18.86,20.96 L 18.93,20.96 L 20.71,20.07 Z" fill="#b893b8" stroke="none" /><path d="M 8.11,20.04 L 8.11,20.07 L 9.00,20.52 L 9.86,20.10 L 9.86,20.04 L 9.03,19.63 L 8.94,19.63 Z" fill="#b893b8" stroke="none" /><path d="M 6.20,19.09 L 6.20,19.12 L 6.23,19.12 L 6.23,19.09 Z" fill="#b893b8" stroke="none" /><path d="M 6.08,19.02 L 6.08,19.05 L 6.11,19.05 L 6.11,19.02 Z" fill="#b893b8" stroke="none" /><path d="M 5.88,18.93 L 5.88,18.96 L 5.92,18.96 L 5.92,18.93 Z" fill="#b893b8" stroke="none" /><path d="M 5.76,18.86 L 5.76,18.89 L 5.79,18.89 L 5.79,18.86 Z" fill="#b893b8" stroke="none" /><path d="M 5.57,18.77 L 5.57,18.80 L 5.60,18.80 L 5.60,18.77 Z" fill="#b893b8" stroke="none" /><path d="M 5.44,18.70 L 5.44,18.74 L 5.47,18.74 L 5.47,18.70 Z" fill="#b893b8" stroke="none" /><path d="M 5.25,18.61 L 5.25,18.64 L 5.28,18.64 L 5.28,18.61 Z" fill="#b893b8" stroke="none" /><path d="M 5.12,18.54 L 5.12,18.58 L 5.15,18.58 L 5.15,18.54 Z" fill="#b893b8" stroke="none" /><path d="M 4.80,18.39 L 4.80,18.42 L 4.83,18.42 L 4.83,18.39 Z" fill="#b893b8" stroke="none" /><path d="M 21.66,18.74 L 22.49,19.15 L 22.55,19.15 L 23.38,18.74 L 23.41,18.67 L 22.58,18.26 L 22.52,18.26 L 21.69,18.67 Z" fill="#b893b8" stroke="none" /><path d="M 4.49,18.23 L 4.49,18.26 L 4.52,18.26 L 4.52,18.23 Z" fill="#b893b8" stroke="none" /><path d="M 4.17,18.07 L 4.17,18.10 L 4.20,18.10 L 4.20,18.07 Z" fill="#b893b8" stroke="none" /><path d="M 3.85,17.91 L 3.85,17.94 L 3.88,17.94 L 3.88,17.91 Z" fill="#b893b8" stroke="none" /><path d="M 18.96,18.26 L 18.96,18.29 L 19.79,18.70 L 19.88,18.70 L 20.71,18.29 L 20.71,18.23 L 19.88,17.81 L 19.82,17.81 Z" fill="#b893b8" stroke="none" /><path d="M 16.22,16.89 L 16.22,16.92 L 18.00,17.81 L 18.07,17.81 L 18.93,17.37 L 18.93,17.34 L 17.15,16.45 Z" fill="#b893b8" stroke="none" /><path d="M 27.93,16.41 L 27.10,16.00 L 27.04,16.00 L 24.37,17.34 L 24.37,17.37 L 25.19,17.78 L 25.29,17.78 L 27.90,16.48 Z" fill="#b893b8" stroke="none" /><path d="M 3.63,8.97 L 3.63,9.00 L 6.30,10.34 L 6.36,10.34 L 7.16,9.92 L 7.22,9.92 L 8.02,10.34 L 8.14,10.34 L 9.86,9.48 L 9.86,9.42 L 9.03,9.00 L 8.97,9.00 L 7.22,9.89 L 7.16,9.89 L 4.52,8.56 L 4.42,8.56 Z" fill="#b893b8" stroke="none" /><path d="M 13.49,7.63 L 12.60,7.19 L 10.82,8.08 L 10.82,8.11 L 11.64,8.52 L 11.77,8.52 L 13.49,7.67 Z" fill="#b893b8" stroke="none" /><path d="M 18.93,4.90 L 18.10,4.49 L 18.00,4.49 L 14.47,6.27 L 14.38,6.27 L 12.63,5.38 L 11.71,5.82 L 11.71,5.85 L 13.49,6.74 L 13.55,6.74 L 14.41,6.30 L 15.33,6.74 L 18.89,4.96 Z" fill="#b893b8" stroke="none" /><path d="M 8.11,4.01 L 8.14,4.07 L 9.86,4.93 L 9.96,4.93 L 10.78,4.52 L 10.78,4.45 L 9.07,3.59 L 8.94,3.59 Z" fill="#b893b8" stroke="none" /><path d="M 20.74,4.01 L 19.85,3.56 L 18.96,4.01 L 18.96,4.04 L 19.79,4.45 L 19.91,4.45 L 20.74,4.04 Z" fill="#b893b8" stroke="none" /><path d="M 13.55,22.74 L 13.58,22.81 L 14.35,23.19 L 14.47,23.19 L 15.27,22.78 L 15.27,22.74 L 14.44,22.33 L 14.38,22.33 Z" fill="#c5a6c5" stroke="none" /><path d="M 10.85,21.41 L 10.85,21.44 L 12.56,22.30 L 12.69,22.30 L 13.49,21.88 L 13.49,21.85 L 11.77,20.99 L 11.64,20.99 Z" fill="#c5a6c5" stroke="none" /><path d="M 18.86,20.93 L 18.00,20.52 L 16.22,21.41 L 16.22,21.44 L 17.02,21.85 L 17.15,21.85 L 18.86,20.99 Z" fill="#c5a6c5" stroke="none" /><path d="M 9.03,20.49 L 9.07,20.55 L 9.89,20.96 L 9.96,20.96 L 10.78,20.55 L 10.75,20.49 L 9.92,20.07 L 9.86,20.07 Z" fill="#c5a6c5" stroke="none" /><path d="M 7.16,19.56 L 7.16,19.59 L 7.19,19.59 L 7.19,19.56 Z" fill="#c5a6c5" stroke="none" /><path d="M 7.03,19.50 L 7.03,19.53 L 7.06,19.53 L 7.06,19.50 Z" fill="#c5a6c5" stroke="none" /><path d="M 6.84,19.40 L 6.84,19.44 L 6.87,19.44 L 6.87,19.40 Z" fill="#c5a6c5" stroke="none" /><path d="M 6.71,19.34 L 6.71,19.37 L 6.74,19.37 L 6.74,19.34 Z" fill="#c5a6c5" stroke="none" /><path d="M 6.52,19.24 L 6.52,19.28 L 6.55,19.28 L 6.55,19.24 Z" fill="#c5a6c5" stroke="none" /><path d="M 6.39,19.18 L 6.39,19.21 L 6.43,19.21 L 6.43,19.18 Z" fill="#c5a6c5" stroke="none" /><path d="M 19.85,18.70 L 19.85,18.74 L 21.57,19.59 L 21.66,19.59 L 22.49,19.18 L 22.49,19.12 L 20.77,18.26 L 20.71,18.26 Z" fill="#c5a6c5" stroke="none" /><path d="M 25.22,17.78 L 24.43,17.37 L 24.30,17.37 L 22.58,18.23 L 22.58,18.29 L 23.44,18.70 L 25.22,17.81 Z" fill="#c5a6c5" stroke="none" /><path d="M 18.07,17.78 L 18.07,17.84 L 18.89,18.26 L 18.99,18.26 L 19.82,17.84 L 19.82,17.78 L 18.99,17.37 L 18.89,17.37 Z" fill="#c5a6c5" stroke="none" /><path d="M 15.33,16.45 L 15.33,16.48 L 16.16,16.89 L 16.29,16.89 L 17.11,16.48 L 17.08,16.41 L 16.25,16.00 L 16.19,16.00 Z" fill="#c5a6c5" stroke="none" /><path d="M 6.36,10.31 L 6.36,10.37 L 7.19,10.78 L 7.25,10.78 L 8.08,10.37 L 8.08,10.34 L 7.25,9.92 L 7.13,9.92 Z" fill="#c5a6c5" stroke="none" /><path d="M 11.71,8.52 L 10.88,8.11 L 10.75,8.11 L 9.03,8.97 L 9.03,9.03 L 9.86,9.45 L 9.92,9.45 L 11.71,8.56 Z" fill="#c5a6c5" stroke="none" /><path d="M 0.92,7.60 L 0.95,7.67 L 3.56,8.97 L 3.66,8.97 L 4.45,8.56 L 4.45,8.52 L 1.78,7.19 Z" fill="#c5a6c5" stroke="none" /><path d="M 13.55,6.71 L 13.55,6.78 L 14.38,7.19 L 14.44,7.19 L 15.30,6.74 L 15.30,6.71 L 14.47,6.30 L 14.38,6.30 Z" fill="#c5a6c5" stroke="none" /><path d="M 9.92,4.93 L 9.92,4.96 L 11.64,5.82 L 11.77,5.82 L 12.60,5.41 L 12.56,5.34 L 10.85,4.49 L 10.78,4.49 Z" fill="#c5a6c5" stroke="none" /><path d="M 18.07,4.45 L 18.10,4.52 L 18.93,4.93 L 19.85,4.49 L 19.85,4.45 L 19.02,4.04 L 18.89,4.04 Z" fill="#c5a6c5" stroke="none" /></svg>