<svg height="32" width="32" viewBox="0 0 32 32"><defs /><path d="M 23.98,12.01 L 23.91,12.01 L 22.99,12.47 L 22.99,16.14 L 23.98,15.65 Z" fill="#392839" stroke="none" /><path d="M 32.00,7.98 L 31.01,8.48 L 31.01,17.02 L 30.94,17.09 L 24.02,20.56 L 23.98,20.52 L 23.98,19.36 L 23.91,19.36 L 22.99,19.81 L 22.99,21.05 L 22.96,21.09 L 16.00,24.55 L 16.00,25.75 L 16.07,25.75 L 32.00,17.77 Z" fill="#392839" stroke="none" /><path d="M 23.98,15.65 L 22.99,16.14 L 22.99,19.81 L 23.06,19.81 L 23.98,19.36 Z" fill="#3e2c3e" stroke="none" /><path d="M 22.99,18.61 L 22.92,18.61 L 22.00,19.07 L 21.97,19.04 L 21.97,17.91 L 21.90,17.91 L 20.98,18.37 L 20.98,20.80 L 20.91,20.87 L 19.99,21.33 L 19.96,21.30 L 19.96,20.13 L 19.89,20.13 L 19.00,20.59 L 18.97,20.56 L 18.97,18.15 L 18.01,18.61 L 17.98,18.65 L 17.98,19.85 L 17.91,19.92 L 16.95,20.38 L 16.95,24.09 L 22.99,21.09 Z" fill="#412d40" stroke="none" /><path d="M 30.02,12.64 L 29.95,12.64 L 29.03,13.10 L 29.03,16.78 L 28.96,16.85 L 28.04,17.31 L 28.01,17.27 L 28.01,16.11 L 27.94,16.11 L 27.02,16.57 L 27.02,19.04 L 27.09,19.04 L 31.01,17.06 L 31.01,13.39 L 30.94,13.39 L 30.06,13.85 L 30.02,13.81 Z" fill="#412d40" stroke="none" /><path d="M 22.99,16.14 L 20.98,17.13 L 20.98,18.37 L 20.03,18.86 L 19.96,18.83 L 19.96,17.66 L 19.04,18.12 L 18.97,18.08 L 18.97,16.92 L 18.01,17.38 L 17.98,17.41 L 17.98,18.61 L 17.91,18.68 L 16.95,19.14 L 16.95,20.38 L 17.02,20.38 L 17.98,19.89 L 17.98,18.68 L 18.05,18.61 L 18.93,18.19 L 18.97,18.23 L 18.97,20.59 L 19.04,20.59 L 19.92,20.13 L 19.96,20.17 L 19.96,21.33 L 20.03,21.33 L 20.94,20.87 L 20.98,20.84 L 20.98,18.40 L 21.93,17.91 L 21.97,17.94 L 21.97,19.11 L 22.99,18.61 Z" fill="#443144" stroke="none" /><path d="M 22.99,13.70 L 22.92,13.70 L 21.97,14.20 L 21.97,15.40 L 22.04,15.40 L 22.99,14.91 Z" fill="#443144" stroke="none" /><path d="M 28.01,13.63 L 27.02,14.13 L 27.02,16.57 L 26.07,17.06 L 26.00,17.02 L 26.00,14.66 L 25.92,14.66 L 25.01,15.12 L 25.01,20.06 L 27.02,19.07 L 27.02,16.60 L 27.06,16.57 L 27.97,16.11 L 28.01,16.14 L 28.01,17.31 L 28.08,17.31 L 29.03,16.81 L 29.03,14.38 L 28.96,14.38 L 28.04,14.83 L 28.01,14.80 Z" fill="#443144" stroke="none" /><path d="M 29.95,11.41 L 29.03,11.87 L 29.03,13.10 L 29.10,13.10 L 29.99,12.64 L 30.02,12.68 L 30.02,13.85 L 30.09,13.85 L 31.01,13.39 L 31.01,12.15 L 30.94,12.15 L 30.06,12.61 L 30.02,12.57 L 30.02,11.41 Z" fill="#443144" stroke="none" /><path d="M 22.99,14.91 L 22.00,15.40 L 21.97,15.36 L 21.97,14.20 L 21.93,14.20 L 16.99,16.67 L 16.95,16.71 L 16.95,19.14 L 17.02,19.14 L 17.98,18.65 L 17.98,17.45 L 18.05,17.38 L 18.90,16.95 L 18.97,16.99 L 18.97,18.15 L 19.89,17.70 L 19.96,17.73 L 19.96,18.90 L 20.98,18.40 L 20.98,17.17 L 22.99,16.14 Z" fill="#463546" stroke="none" /><path d="M 31.01,9.68 L 25.01,12.68 L 25.01,15.12 L 25.08,15.12 L 25.96,14.66 L 26.00,14.69 L 26.00,17.09 L 27.02,16.60 L 27.02,14.16 L 27.09,14.09 L 27.97,13.67 L 28.01,13.70 L 28.01,14.87 L 29.03,14.38 L 29.03,11.90 L 29.07,11.87 L 29.99,11.41 L 30.02,11.44 L 30.02,12.61 L 30.09,12.61 L 31.01,12.15 Z" fill="#463546" stroke="none" /><path d="M 16.95,20.42 L 16.88,20.42 L 16.00,20.87 L 16.00,24.55 L 16.07,24.55 L 16.95,24.09 Z" fill="#4a3b4a" stroke="none" /><path d="M 25.01,18.83 L 23.98,19.32 L 23.98,20.56 L 24.05,20.56 L 25.01,20.06 Z" fill="#4a3b4a" stroke="none" /><path d="M 16.95,16.71 L 16.00,17.17 L 16.00,18.40 L 16.95,17.94 Z" fill="#4a3b4a" stroke="none" /><path d="M 18.97,14.52 L 18.90,14.52 L 17.98,14.98 L 17.98,16.18 L 18.05,16.18 L 18.97,15.72 Z" fill="#4a3b4a" stroke="none" /><path d="M 21.97,13.00 L 19.96,13.99 L 19.96,15.19 L 20.03,15.19 L 21.97,14.20 Z" fill="#4a3b4a" stroke="none" /><path d="M 27.02,10.49 L 26.95,10.49 L 25.04,11.44 L 25.01,11.48 L 25.01,12.64 L 24.94,12.72 L 23.98,13.17 L 23.98,18.08 L 24.05,18.08 L 25.01,17.59 L 25.01,12.72 L 25.08,12.64 L 27.02,11.69 Z" fill="#4a3b4a" stroke="none" /><path d="M 31.01,8.48 L 29.03,9.47 L 29.03,10.67 L 31.01,9.68 Z" fill="#4a3b4a" stroke="none" /><path d="M 16.95,17.94 L 16.88,17.94 L 16.00,18.40 L 16.00,20.87 L 16.95,20.42 Z" fill="#4f424f" stroke="none" /><path d="M 25.01,17.59 L 23.98,18.08 L 23.98,19.32 L 24.05,19.32 L 25.01,18.83 Z" fill="#4f424f" stroke="none" /><path d="M 17.98,15.01 L 17.91,15.01 L 16.00,15.96 L 16.00,17.17 L 16.07,17.17 L 17.98,16.21 Z" fill="#4f424f" stroke="none" /><path d="M 19.96,14.02 L 19.89,14.02 L 18.97,14.48 L 18.97,15.68 L 19.04,15.68 L 19.96,15.22 Z" fill="#4f424f" stroke="none" /><path d="M 22.99,12.50 L 22.92,12.50 L 21.97,13.00 L 21.97,14.20 L 22.99,13.70 Z" fill="#4f424f" stroke="none" /><path d="M 25.01,11.48 L 23.98,11.97 L 23.98,13.17 L 24.05,13.17 L 25.01,12.68 Z" fill="#4f424f" stroke="none" /><path d="M 29.03,9.47 L 27.02,10.45 L 27.02,11.66 L 27.09,11.66 L 29.03,10.67 Z" fill="#4f424f" stroke="none" /><path d="M 16.00,25.75 L 16.00,15.96 L 15.05,15.51 L 15.05,24.02 L 15.01,24.05 L 8.05,20.59 L 8.02,20.56 L 8.02,19.32 L 7.03,18.83 L 6.99,18.83 L 6.99,19.99 L 6.92,20.03 L 0.00,16.57 L 0.00,17.77 L 0.04,17.80 L 15.93,25.75 Z" fill="#5c415c" stroke="none" /><path d="M 6.99,11.48 L 6.99,15.15 L 8.02,15.65 L 8.02,11.97 Z" fill="#5c415c" stroke="none" /><path d="M 6.99,15.15 L 6.99,18.83 L 7.95,19.32 L 8.02,19.32 L 8.02,15.65 L 7.06,15.15 Z" fill="#654764" stroke="none" /><path d="M 13.03,18.15 L 13.03,21.79 L 13.00,21.83 L 12.04,21.33 L 12.04,20.10 L 11.02,19.60 L 11.02,22.08 L 15.05,24.09 L 15.05,20.38 L 14.09,19.92 L 14.02,19.85 L 14.02,18.65 Z" fill="#694969" stroke="none" /><path d="M 0.99,13.39 L 0.99,17.06 L 6.99,20.06 L 6.99,17.59 L 6.08,17.13 L 6.00,17.06 L 6.00,15.86 L 4.98,15.36 L 4.98,17.77 L 4.94,17.80 L 3.99,17.31 L 3.99,16.07 L 3.04,15.61 L 2.97,15.54 L 2.97,13.10 L 2.05,12.64 L 1.98,12.64 L 1.98,13.81 L 1.94,13.85 L 1.06,13.39 Z" fill="#694969" stroke="none" /><path d="M 13.03,16.92 L 13.03,18.15 L 13.95,18.61 L 14.02,18.68 L 14.02,19.89 L 14.98,20.38 L 15.05,20.38 L 15.05,19.14 L 14.09,18.68 L 14.02,18.61 L 14.02,17.41 Z" fill="#6e4f6e" stroke="none" /><path d="M 9.01,16.14 L 9.01,21.09 L 11.02,22.08 L 11.02,19.67 L 11.09,19.64 L 12.04,20.13 L 12.04,21.37 L 12.96,21.83 L 13.03,21.83 L 13.03,19.39 L 12.11,18.93 L 12.04,18.86 L 12.04,17.66 L 11.09,17.17 L 11.02,17.17 L 11.02,19.53 L 10.95,19.57 L 10.10,19.14 L 10.03,19.07 L 10.03,16.64 Z" fill="#6e4f6e" stroke="none" /><path d="M 6.00,12.19 L 6.00,13.42 L 6.92,13.88 L 6.99,13.88 L 6.99,12.68 Z" fill="#6e4f6e" stroke="none" /><path d="M 0.99,12.15 L 0.99,13.39 L 1.91,13.85 L 1.98,13.85 L 1.98,12.68 L 2.01,12.64 L 2.97,13.14 L 2.97,15.58 L 3.99,16.11 L 3.99,17.34 L 4.91,17.80 L 4.98,17.80 L 4.98,15.43 L 5.05,15.40 L 6.00,15.89 L 6.00,17.09 L 6.99,17.59 L 6.99,15.12 L 5.02,14.13 L 4.98,14.13 L 4.98,15.29 L 4.94,15.33 L 4.06,14.91 L 3.99,14.83 L 3.99,13.63 L 2.97,13.10 L 2.97,11.87 L 2.05,11.41 L 1.98,11.41 L 1.98,12.57 L 1.94,12.61 L 1.06,12.15 Z" fill="#6e4f6e" stroke="none" /><path d="M 9.01,13.70 L 9.01,16.14 L 10.03,16.67 L 10.03,19.11 L 10.07,19.14 L 11.02,19.60 L 11.02,17.20 L 11.06,17.17 L 11.97,17.62 L 12.04,17.70 L 12.04,18.90 L 13.03,19.39 L 13.03,16.99 L 13.07,16.95 L 13.95,17.38 L 14.02,17.45 L 14.02,18.65 L 14.98,19.14 L 15.05,19.14 L 15.05,16.71 L 15.01,16.67 L 9.08,13.70 Z" fill="#725672" stroke="none" /><path d="M 0.99,9.68 L 0.99,12.15 L 1.91,12.61 L 1.98,12.61 L 1.98,11.44 L 2.01,11.41 L 2.93,11.87 L 2.97,11.90 L 2.97,13.14 L 3.92,13.60 L 3.99,13.67 L 3.99,14.87 L 4.03,14.91 L 4.98,15.36 L 4.98,14.20 L 5.05,14.16 L 6.92,15.12 L 6.99,15.12 L 6.99,13.88 L 6.00,13.39 L 6.00,12.19 L 5.97,12.15 Z" fill="#725672" stroke="none" /><path d="M 8.02,19.36 L 8.02,20.59 L 8.94,21.05 L 9.01,21.05 L 9.01,19.81 L 8.09,19.36 Z" fill="#776077" stroke="none" /><path d="M 13.03,14.52 L 13.03,15.72 L 15.05,16.71 L 15.05,15.51 L 13.10,14.52 Z" fill="#776077" stroke="none" /><path d="M 0.00,12.89 L 0.00,16.57 L 0.99,17.06 L 0.99,13.35 L 0.07,12.89 Z" fill="#776077" stroke="none" /><path d="M 9.08,12.50 L 9.01,12.50 L 9.01,13.63 L 8.97,13.67 L 8.09,13.21 L 8.02,13.21 L 8.02,18.12 L 8.94,18.58 L 9.01,18.58 L 9.01,13.74 L 9.04,13.70 L 11.02,14.69 L 11.02,13.49 Z" fill="#776077" stroke="none" /><path d="M 3.99,10.00 L 3.99,11.20 L 6.00,12.19 L 6.00,10.98 L 4.06,10.00 Z" fill="#776077" stroke="none" /><path d="M 0.00,9.18 L 0.00,10.42 L 0.92,10.88 L 0.99,10.88 L 0.99,9.68 Z" fill="#776077" stroke="none" /><path d="M 1.98,8.97 L 1.98,10.17 L 2.97,10.67 L 2.97,9.47 Z" fill="#776077" stroke="none" /><path d="M 8.02,18.12 L 8.02,19.36 L 8.94,19.81 L 9.01,19.81 L 9.01,18.58 L 8.09,18.12 Z" fill="#806c80" stroke="none" /><path d="M 11.02,13.49 L 11.02,14.69 L 12.96,15.68 L 13.03,15.68 L 13.03,14.48 Z" fill="#806c80" stroke="none" /><path d="M 8.02,12.01 L 8.02,13.21 L 8.94,13.67 L 9.01,13.67 L 9.01,12.47 L 8.09,12.01 Z" fill="#806c80" stroke="none" /><path d="M 6.00,10.98 L 6.00,12.19 L 6.99,12.68 L 6.99,11.48 Z" fill="#806c80" stroke="none" /><path d="M 0.00,10.42 L 0.00,12.89 L 0.92,13.35 L 0.99,13.35 L 0.99,10.88 L 0.07,10.42 Z" fill="#806c80" stroke="none" /><path d="M 2.97,9.47 L 2.97,10.67 L 3.92,11.16 L 3.99,11.16 L 3.99,9.96 Z" fill="#806c80" stroke="none" /><path d="M 0.00,7.98 L 0.00,9.18 L 1.98,10.17 L 1.98,8.97 Z" fill="#806c80" stroke="none" /><path d="M 24.97,11.44 L 24.02,10.98 L 23.03,11.48 L 23.03,11.51 L 23.95,11.97 L 24.05,11.97 L 24.97,11.51 Z" fill="#8e648e" stroke="none" /><path d="M 13.00,9.47 L 13.03,9.54 L 13.95,10.00 L 14.02,10.00 L 14.98,9.50 L 14.98,9.47 L 14.06,9.01 L 13.92,9.01 Z" fill="#8e648e" stroke="none" /><path d="M 18.01,8.97 L 18.01,9.01 L 19.99,10.00 L 20.06,10.00 L 21.02,9.50 L 21.02,9.47 L 19.04,8.48 Z" fill="#8e648e" stroke="none" /><path d="M 19.04,6.46 L 19.04,6.50 L 19.96,6.96 L 20.10,6.96 L 21.02,6.50 L 20.98,6.43 L 20.06,5.97 L 19.99,5.97 Z" fill="#8e648e" stroke="none" /><path d="M 13.00,6.46 L 13.00,6.50 L 15.93,7.95 L 15.96,7.98 L 15.93,8.02 L 15.01,8.48 L 15.01,8.51 L 15.93,8.97 L 16.07,8.97 L 19.00,7.49 L 19.00,7.45 L 18.08,6.99 L 17.94,6.99 L 17.06,7.45 L 16.95,7.45 L 14.02,5.97 L 13.95,5.97 Z" fill="#8e648e" stroke="none" /><path d="M 23.03,4.45 L 23.03,4.49 L 24.02,4.98 L 24.97,4.52 L 24.97,4.45 L 24.05,3.99 L 23.95,3.99 Z" fill="#8e648e" stroke="none" /><path d="M 16.95,0.46 L 16.07,0.00 L 15.93,0.00 L 0.04,7.95 L 0.04,8.02 L 15.93,15.96 L 16.07,15.96 L 16.92,15.54 L 16.95,15.47 L 10.07,12.04 L 10.03,12.01 L 10.10,11.94 L 10.98,11.51 L 10.98,11.48 L 10.00,10.98 L 9.01,11.48 L 8.94,11.48 L 1.98,7.98 L 8.94,4.49 L 9.01,4.49 L 9.96,4.98 L 10.98,4.49 L 10.98,4.45 L 10.10,4.03 L 10.03,3.96 L 10.07,3.92 L 16.95,0.49 Z" fill="#8e648e" stroke="none" /><path d="M 20.06,9.96 L 20.06,10.03 L 22.96,11.48 L 23.10,11.48 L 24.02,11.02 L 23.98,10.95 L 21.09,9.50 L 20.98,9.50 Z" fill="#9b6e9a" stroke="none" /><path d="M 13.95,9.96 L 13.03,9.50 L 12.93,9.50 L 10.03,10.95 L 10.00,11.02 L 10.91,11.48 L 11.06,11.48 L 13.95,10.03 Z" fill="#9b6e9a" stroke="none" /><path d="M 13.99,8.97 L 13.99,9.01 L 14.98,9.50 L 16.00,9.01 L 16.00,8.97 L 15.01,8.48 Z" fill="#9b6e9a" stroke="none" /><path d="M 17.02,8.48 L 17.02,8.51 L 17.94,8.97 L 18.08,8.97 L 19.00,8.51 L 18.97,8.44 L 18.05,7.98 L 17.98,7.98 Z" fill="#9b6e9a" stroke="none" /><path d="M 18.01,6.96 L 18.01,6.99 L 19.00,7.49 L 20.03,6.99 L 20.03,6.96 L 19.04,6.46 Z" fill="#9b6e9a" stroke="none" /><path d="M 24.02,4.94 L 23.10,4.49 L 22.96,4.49 L 20.06,5.93 L 20.06,6.00 L 20.98,6.46 L 21.09,6.46 L 23.98,5.02 Z" fill="#9b6e9a" stroke="none" /><path d="M 10.00,4.94 L 10.03,5.02 L 12.93,6.46 L 13.03,6.46 L 13.95,6.00 L 13.95,5.93 L 11.06,4.49 L 10.91,4.49 Z" fill="#9b6e9a" stroke="none" /><path d="M 16.99,9.47 L 16.07,9.01 L 15.93,9.01 L 10.00,11.97 L 10.00,12.01 L 12.93,13.49 L 13.07,13.49 L 13.99,13.03 L 13.99,13.00 L 13.03,12.50 L 13.95,12.04 L 13.95,11.97 L 13.03,11.51 L 13.10,11.44 L 14.94,10.53 L 15.05,10.53 L 15.93,10.98 L 16.07,10.98 L 16.99,10.53 L 16.95,10.45 L 16.04,10.00 L 16.95,9.54 Z" fill="#a271a1" stroke="none" /><path d="M 7.95,6.96 L 5.93,5.97 L 1.98,7.95 L 1.98,8.02 L 4.87,9.47 L 5.02,9.47 L 5.90,9.01 L 6.00,9.01 L 6.89,9.47 L 7.03,9.47 L 7.95,9.01 L 7.95,8.97 L 4.98,7.49 L 5.93,6.99 L 6.96,7.49 L 7.95,6.99 Z" fill="#a271a1" stroke="none" /><path d="M 25.01,5.44 L 24.09,4.98 L 23.98,4.98 L 18.05,7.95 L 18.05,8.02 L 21.05,9.50 L 22.04,9.01 L 22.04,8.97 L 21.16,8.55 L 21.09,8.48 L 24.05,6.99 L 24.05,6.96 L 23.17,6.53 L 23.10,6.46 L 25.01,5.51 Z" fill="#a271a1" stroke="none" /><path d="M 19.00,2.44 L 16.04,0.95 L 15.96,0.95 L 10.03,3.92 L 10.00,3.99 L 11.90,4.94 L 12.04,4.94 L 12.93,4.49 L 13.03,4.49 L 13.92,4.94 L 14.06,4.94 L 14.98,4.49 L 14.98,4.45 L 13.07,3.50 L 13.03,3.46 L 13.07,3.43 L 14.02,2.97 L 15.01,3.46 L 15.96,2.97 L 16.04,2.97 L 17.98,3.96 L 18.05,3.96 L 18.97,3.50 L 18.97,3.43 L 18.05,2.97 L 18.12,2.90 L 19.00,2.47 Z" fill="#a271a1" stroke="none" /><path d="M 20.03,10.98 L 17.06,9.50 L 16.95,9.50 L 16.04,9.96 L 16.04,10.03 L 16.92,10.45 L 16.95,10.49 L 16.88,10.56 L 16.04,10.98 L 15.96,10.98 L 14.98,10.49 L 13.00,11.48 L 13.03,11.55 L 13.95,12.01 L 13.03,12.47 L 13.03,12.54 L 13.95,13.00 L 13.88,13.07 L 13.00,13.49 L 13.00,13.53 L 15.01,14.52 L 16.00,14.02 L 16.00,13.99 L 14.13,13.07 L 14.06,13.00 L 14.94,12.54 L 15.05,12.54 L 15.93,13.00 L 16.07,13.00 L 16.99,12.54 L 16.95,12.47 L 15.08,11.55 L 15.05,11.51 L 15.12,11.44 L 15.96,11.02 L 16.04,11.02 L 18.97,12.50 L 19.04,12.50 L 19.99,12.01 L 19.99,11.97 L 19.07,11.51 L 19.14,11.44 L 20.03,11.02 Z" fill="#aa7aaa" stroke="none" /><path d="M 4.94,9.47 L 4.94,9.50 L 5.93,10.00 L 6.92,9.50 L 6.99,9.50 L 7.98,10.00 L 8.94,9.50 L 8.94,9.47 L 8.02,9.01 L 7.88,9.01 L 6.99,9.47 L 6.92,9.47 L 5.97,8.97 Z" fill="#aa7aaa" stroke="none" /><path d="M 15.01,6.46 L 15.01,6.50 L 15.93,6.96 L 16.07,6.96 L 16.99,6.50 L 16.95,6.43 L 16.04,5.97 L 15.96,5.97 Z" fill="#aa7aaa" stroke="none" /><path d="M 29.03,7.45 L 25.08,5.47 L 25.01,5.47 L 23.06,6.46 L 23.06,6.50 L 23.95,6.92 L 23.98,6.96 L 23.95,7.03 L 21.05,8.48 L 21.05,8.51 L 21.97,8.97 L 21.93,9.04 L 21.05,9.47 L 21.05,9.50 L 22.00,10.00 L 22.08,10.00 L 23.03,9.50 L 24.05,10.00 L 25.04,9.50 L 25.04,9.47 L 23.17,8.55 L 23.10,8.48 L 24.05,7.98 L 25.01,8.48 L 25.11,8.48 L 26.03,8.02 L 26.03,7.95 L 24.12,6.99 L 24.16,6.92 L 25.01,6.50 L 25.08,6.50 L 28.01,7.98 L 28.08,7.98 L 29.00,7.52 Z" fill="#aa7aaa" stroke="none" /><path d="M 4.98,7.52 L 6.89,8.48 L 6.99,8.48 L 7.95,7.98 L 8.90,8.48 L 9.01,8.48 L 9.92,8.02 L 9.92,7.95 L 8.05,7.03 L 8.02,6.99 L 8.05,6.92 L 8.90,6.50 L 9.01,6.50 L 10.95,7.49 L 11.97,6.99 L 11.97,6.96 L 8.02,4.98 L 7.91,4.98 L 5.97,5.97 L 5.97,6.00 L 7.84,6.92 L 7.88,6.96 L 7.84,7.03 L 6.99,7.45 L 6.89,7.45 L 6.00,6.99 L 5.90,6.99 L 4.98,7.45 Z" fill="#aa7aaa" stroke="none" /><path d="M 11.97,4.98 L 13.95,5.97 L 14.02,5.97 L 16.00,4.98 L 16.00,4.94 L 15.12,4.52 L 15.05,4.45 L 15.08,4.42 L 16.00,3.96 L 16.95,4.45 L 17.06,4.45 L 17.98,3.99 L 17.98,3.92 L 16.07,2.97 L 15.93,2.97 L 15.05,3.43 L 14.94,3.43 L 14.06,2.97 L 13.95,2.97 L 13.03,3.43 L 13.03,3.50 L 14.94,4.45 L 14.87,4.52 L 14.02,4.94 L 13.95,4.94 L 12.96,4.45 L 11.97,4.94 Z" fill="#aa7aaa" stroke="none" /><path d="M 18.93,2.47 L 18.01,2.93 L 18.05,3.00 L 18.97,3.46 L 18.05,3.92 L 18.05,3.99 L 18.97,4.45 L 19.07,4.45 L 19.99,3.99 L 19.96,3.92 L 19.04,3.46 L 19.96,3.00 L 19.99,2.93 L 19.07,2.47 Z" fill="#aa7aaa" stroke="none" /><path d="M 14.02,13.03 L 15.89,13.95 L 15.93,13.99 L 15.89,14.06 L 15.01,14.48 L 15.01,14.52 L 15.96,15.01 L 16.04,15.01 L 21.97,12.04 L 22.00,11.97 L 20.10,11.02 L 19.96,11.02 L 19.04,11.48 L 19.07,11.55 L 19.89,11.94 L 19.96,12.01 L 19.00,12.50 L 16.07,11.02 L 15.93,11.02 L 15.01,11.48 L 15.01,11.51 L 16.95,12.50 L 16.88,12.57 L 16.04,13.00 L 15.96,13.00 L 14.98,12.50 L 14.06,12.96 Z" fill="#b084b0" stroke="none" /><path d="M 22.08,10.03 L 23.98,10.98 L 24.09,10.98 L 30.02,8.02 L 30.02,7.95 L 29.10,7.49 L 29.00,7.49 L 28.04,7.98 L 25.11,6.50 L 24.97,6.50 L 24.05,6.96 L 24.05,6.99 L 26.03,7.98 L 25.08,8.48 L 24.09,7.98 L 24.02,7.98 L 23.06,8.48 L 23.06,8.51 L 24.94,9.43 L 24.97,9.50 L 24.09,9.96 L 23.98,9.96 L 23.10,9.50 L 22.99,9.50 L 22.08,9.96 Z" fill="#b084b0" stroke="none" /><path d="M 5.97,10.00 L 7.91,10.98 L 8.02,10.98 L 13.95,8.02 L 13.95,7.95 L 12.04,6.99 L 11.90,6.99 L 11.02,7.45 L 10.91,7.45 L 8.94,6.46 L 7.95,6.96 L 7.95,6.99 L 9.92,7.98 L 8.97,8.48 L 7.98,7.98 L 7.91,7.98 L 6.96,8.48 L 6.96,8.51 L 8.83,9.43 L 8.90,9.50 L 8.02,9.96 L 7.91,9.96 L 7.03,9.50 L 6.89,9.50 L 5.97,9.96 Z" fill="#b084b0" stroke="none" /><path d="M 22.00,3.96 L 20.06,2.97 L 19.96,2.97 L 19.04,3.43 L 19.04,3.50 L 19.96,3.96 L 19.89,4.03 L 19.04,4.45 L 18.05,3.96 L 17.98,3.96 L 17.02,4.45 L 16.04,3.96 L 15.96,3.96 L 15.01,4.45 L 15.01,4.49 L 15.89,4.91 L 15.93,4.98 L 14.02,5.93 L 14.02,6.00 L 14.94,6.46 L 15.05,6.46 L 16.00,5.97 L 16.95,6.46 L 17.06,6.46 L 22.00,3.99 Z" fill="#b084b0" stroke="none" /><path d="M 24.05,11.02 L 24.97,11.48 L 25.04,11.48 L 25.96,11.02 L 26.00,10.95 L 25.08,10.49 L 25.01,10.49 L 24.09,10.95 Z" fill="#b893b8" stroke="none" /><path d="M 23.03,11.48 L 21.05,10.49 L 20.03,10.98 L 20.03,11.02 L 21.90,11.94 L 21.97,12.01 L 19.00,13.49 L 19.00,13.53 L 19.92,13.99 L 20.03,13.99 L 22.99,12.50 L 22.99,12.47 L 22.08,12.01 L 22.15,11.94 L 23.03,11.51 Z" fill="#b893b8" stroke="none" /><path d="M 10.95,10.49 L 10.00,10.00 L 9.92,10.00 L 8.02,10.95 L 7.98,11.02 L 8.90,11.48 L 9.04,11.48 L 10.95,10.53 Z" fill="#b893b8" stroke="none" /><path d="M 26.07,9.96 L 26.10,10.03 L 26.95,10.45 L 27.09,10.45 L 28.01,10.00 L 27.97,9.92 L 27.13,9.50 L 26.98,9.50 Z" fill="#b893b8" stroke="none" /><path d="M 16.00,8.97 L 16.00,9.01 L 17.98,10.00 L 18.05,10.00 L 19.00,9.50 L 19.00,9.47 L 17.02,8.48 Z" fill="#b893b8" stroke="none" /><path d="M 28.08,6.96 L 28.11,7.03 L 30.02,7.98 L 29.10,8.44 L 29.07,8.51 L 29.99,8.97 L 30.06,8.97 L 31.01,8.48 L 31.01,8.44 L 30.09,7.98 L 31.01,7.52 L 30.98,7.45 L 29.07,6.50 L 29.00,6.50 Z" fill="#b893b8" stroke="none" /><path d="M 19.99,5.93 L 19.07,5.47 L 18.97,5.47 L 17.06,6.43 L 17.02,6.50 L 17.94,6.96 L 18.08,6.96 L 19.99,6.00 Z" fill="#b893b8" stroke="none" /><path d="M 10.00,5.93 L 10.00,6.00 L 13.95,7.98 L 11.97,8.97 L 11.97,9.01 L 13.00,9.50 L 14.98,8.51 L 14.94,8.44 L 14.02,7.98 L 14.94,7.52 L 14.98,7.45 L 11.02,5.47 L 10.91,5.47 Z" fill="#b893b8" stroke="none" /><path d="M 24.05,4.94 L 24.09,5.02 L 26.00,5.97 L 26.10,5.97 L 27.02,5.51 L 27.02,5.47 L 25.04,4.49 L 24.97,4.49 Z" fill="#b893b8" stroke="none" /><path d="M 20.03,4.94 L 20.03,4.98 L 21.02,5.47 L 22.00,4.98 L 22.00,4.94 L 21.09,4.49 L 20.94,4.49 Z" fill="#b893b8" stroke="none" /><path d="M 7.98,4.94 L 8.02,5.02 L 8.94,5.47 L 9.01,5.47 L 9.96,4.98 L 9.96,4.94 L 9.04,4.49 L 8.90,4.49 Z" fill="#b893b8" stroke="none" /><path d="M 21.05,3.43 L 21.05,3.50 L 21.97,3.96 L 22.08,3.96 L 22.99,3.50 L 22.99,3.46 L 22.00,2.97 Z" fill="#b893b8" stroke="none" /><path d="M 16.04,0.92 L 16.04,0.99 L 18.93,2.44 L 19.07,2.44 L 19.96,1.98 L 19.96,1.94 L 16.99,0.46 Z" fill="#b893b8" stroke="none" /><path d="M 19.96,13.99 L 19.07,13.53 L 18.93,13.53 L 16.04,14.98 L 16.04,15.05 L 16.99,15.51 L 19.96,14.02 Z" fill="#c5a6c5" stroke="none" /><path d="M 22.04,11.97 L 22.08,12.04 L 22.92,12.47 L 23.06,12.47 L 23.98,12.01 L 23.95,11.94 L 23.10,11.51 L 22.96,11.51 Z" fill="#c5a6c5" stroke="none" /><path d="M 25.08,10.45 L 25.08,10.53 L 26.00,10.98 L 27.02,10.49 L 27.02,10.45 L 26.10,10.00 L 26.00,10.00 Z" fill="#c5a6c5" stroke="none" /><path d="M 18.05,9.96 L 18.05,10.03 L 19.96,10.98 L 20.10,10.98 L 21.02,10.53 L 20.98,10.45 L 19.07,9.50 L 18.97,9.50 Z" fill="#c5a6c5" stroke="none" /><path d="M 12.96,9.47 L 12.04,9.01 L 11.90,9.01 L 10.00,9.96 L 10.00,10.03 L 10.91,10.49 L 11.02,10.49 L 12.93,9.54 Z" fill="#c5a6c5" stroke="none" /><path d="M 29.99,8.94 L 29.03,8.48 L 27.06,9.47 L 27.06,9.50 L 27.97,9.96 L 28.08,9.96 L 29.99,9.01 Z" fill="#c5a6c5" stroke="none" /><path d="M 30.09,7.95 L 30.09,8.02 L 31.01,8.48 L 31.96,8.02 L 31.96,7.95 L 31.05,7.49 Z" fill="#c5a6c5" stroke="none" /><path d="M 14.02,7.95 L 14.02,8.02 L 14.94,8.48 L 15.05,8.48 L 15.96,8.02 L 15.96,7.95 L 15.05,7.49 L 14.94,7.49 Z" fill="#c5a6c5" stroke="none" /><path d="M 16.00,6.96 L 16.00,6.99 L 16.99,7.49 L 18.01,6.99 L 18.01,6.96 L 17.02,6.46 Z" fill="#c5a6c5" stroke="none" /><path d="M 26.07,5.97 L 26.07,6.00 L 28.04,6.99 L 29.00,6.53 L 29.00,6.46 L 27.09,5.51 L 26.95,5.51 Z" fill="#c5a6c5" stroke="none" /><path d="M 19.04,5.44 L 19.07,5.51 L 19.99,5.97 L 20.06,5.97 L 21.02,5.47 L 21.02,5.44 L 20.10,4.98 L 19.96,4.98 Z" fill="#c5a6c5" stroke="none" /><path d="M 9.01,5.44 L 9.01,5.51 L 9.92,5.97 L 10.00,5.97 L 10.95,5.47 L 10.95,5.44 L 10.03,4.98 L 9.92,4.98 Z" fill="#c5a6c5" stroke="none" /><path d="M 23.98,3.96 L 23.06,3.50 L 22.92,3.50 L 21.02,4.45 L 21.02,4.49 L 22.04,4.98 L 23.95,4.03 Z" fill="#c5a6c5" stroke="none" /><path d="M 19.00,2.44 L 19.00,2.47 L 20.98,3.46 L 21.05,3.46 L 21.97,3.00 L 21.93,2.93 L 20.03,1.98 L 19.92,1.98 Z" fill="#c5a6c5" stroke="none" /></svg>