<svg height="32" width="32" viewBox="0 0 32 32"><defs /><path d="M 15.27,29.42 L 14.41,29.84 L 14.41,32.00 L 14.47,32.00 L 15.27,31.59 Z" fill="#595852" stroke="none" /><path d="M 18.89,26.50 L 17.97,26.94 L 17.97,29.17 L 18.89,28.72 Z" fill="#595852" stroke="none" /><path d="M 17.08,25.19 L 16.19,25.64 L 16.19,28.95 L 16.25,28.95 L 17.08,28.53 Z" fill="#595852" stroke="none" /><path d="M 22.52,24.68 L 21.60,25.13 L 21.60,28.41 L 21.66,28.41 L 22.52,27.96 Z" fill="#595852" stroke="none" /><path d="M 20.71,24.49 L 20.64,24.49 L 19.79,24.94 L 19.79,26.05 L 20.71,25.61 Z" fill="#595852" stroke="none" /><path d="M 27.93,24.21 L 27.86,24.21 L 27.04,24.62 L 27.04,25.70 L 27.93,25.26 Z" fill="#595852" stroke="none" /><path d="M 15.27,23.89 L 15.20,23.89 L 14.41,24.30 L 14.41,25.42 L 15.27,25.00 Z" fill="#595852" stroke="none" /><path d="M 18.89,20.96 L 17.97,21.41 L 17.97,22.52 L 18.89,22.08 Z" fill="#595852" stroke="none" /><path d="M 26.15,20.68 L 26.08,20.68 L 25.22,21.12 L 25.22,22.20 L 25.29,22.20 L 26.15,21.76 Z" fill="#595852" stroke="none" /><path d="M 24.33,20.45 L 23.41,20.90 L 23.41,25.35 L 24.33,24.91 Z" fill="#595852" stroke="none" /><path d="M 22.52,20.26 L 22.46,20.26 L 21.60,20.71 L 21.60,22.93 L 22.52,22.49 Z" fill="#595852" stroke="none" /><path d="M 20.71,18.96 L 20.64,18.96 L 19.79,19.40 L 19.79,21.60 L 19.85,21.60 L 20.71,21.15 Z" fill="#595852" stroke="none" /><path d="M 27.93,18.67 L 27.86,18.67 L 27.04,19.09 L 27.04,22.43 L 27.93,21.98 Z" fill="#595852" stroke="none" /><path d="M 17.08,18.54 L 17.02,18.54 L 16.19,18.96 L 16.19,22.30 L 16.25,22.30 L 17.08,21.88 Z" fill="#595852" stroke="none" /><path d="M 26.15,17.34 L 25.22,17.78 L 25.22,18.89 L 26.15,18.45 Z" fill="#595852" stroke="none" /><path d="M 18.89,16.54 L 18.83,16.54 L 17.97,16.99 L 17.97,19.18 L 18.04,19.18 L 18.89,18.74 Z" fill="#595852" stroke="none" /><path d="M 24.33,16.03 L 24.27,16.03 L 23.41,16.48 L 23.41,18.70 L 24.33,18.26 Z" fill="#595852" stroke="none" /><path d="M 22.52,14.73 L 22.46,14.73 L 21.60,15.17 L 21.60,17.37 L 21.66,17.37 L 22.52,16.92 Z" fill="#595852" stroke="none" /><path d="M 20.71,14.50 L 19.79,14.95 L 19.79,16.06 L 19.85,16.06 L 20.71,15.62 Z" fill="#595852" stroke="none" /><path d="M 27.93,14.22 L 27.04,14.66 L 27.04,16.89 L 27.93,16.45 Z" fill="#595852" stroke="none" /><path d="M 26.15,14.00 L 25.22,14.44 L 25.22,16.67 L 25.29,16.67 L 26.15,16.22 Z" fill="#595852" stroke="none" /><path d="M 15.27,13.96 L 15.20,13.96 L 14.41,14.38 L 14.41,18.77 L 15.27,18.35 Z" fill="#595852" stroke="none" /><path d="M 17.08,13.04 L 16.19,13.49 L 16.19,15.65 L 17.08,15.20 Z" fill="#595852" stroke="none" /><path d="M 18.89,12.15 L 18.83,12.15 L 17.97,12.60 L 17.97,14.76 L 18.89,14.31 Z" fill="#595852" stroke="none" /><path d="M 24.33,11.58 L 23.41,12.02 L 23.41,15.36 L 24.33,14.92 Z" fill="#595852" stroke="none" /><path d="M 22.52,11.39 L 21.60,11.83 L 21.60,12.95 L 22.52,12.50 Z" fill="#595852" stroke="none" /><path d="M 27.93,9.80 L 27.86,9.80 L 27.04,10.21 L 27.04,11.32 L 27.10,11.32 L 27.93,10.91 Z" fill="#595852" stroke="none" /><path d="M 26.15,8.52 L 26.08,8.52 L 25.22,8.97 L 25.22,11.13 L 26.15,10.69 Z" fill="#595852" stroke="none" /><path d="M 18.89,28.72 L 18.83,28.72 L 17.97,29.17 L 17.97,30.22 L 18.04,30.22 L 18.89,29.77 Z" fill="#5c5956" stroke="none" /><path d="M 17.08,28.53 L 17.02,28.53 L 16.19,28.95 L 16.19,31.11 L 16.25,31.11 L 17.08,30.70 Z" fill="#5c5956" stroke="none" /><path d="M 20.71,25.61 L 20.64,25.61 L 19.79,26.05 L 19.79,29.33 L 20.71,28.88 Z" fill="#5c5956" stroke="none" /><path d="M 15.27,25.00 L 15.20,25.00 L 14.41,25.42 L 14.41,29.84 L 14.47,29.84 L 15.27,29.42 Z" fill="#5c5956" stroke="none" /><path d="M 24.33,24.91 L 24.27,24.91 L 23.41,25.35 L 23.41,27.51 L 24.33,27.07 Z" fill="#5c5956" stroke="none" /><path d="M 22.52,22.49 L 22.46,22.49 L 21.60,22.93 L 21.60,25.13 L 21.66,25.13 L 22.52,24.68 Z" fill="#5c5956" stroke="none" /><path d="M 18.89,22.08 L 18.83,22.08 L 17.97,22.52 L 17.97,26.94 L 18.04,26.94 L 18.89,26.50 Z" fill="#5c5956" stroke="none" /><path d="M 27.93,21.98 L 27.04,22.43 L 27.04,24.62 L 27.10,24.62 L 27.93,24.21 Z" fill="#5c5956" stroke="none" /><path d="M 17.08,21.88 L 17.02,21.88 L 16.19,22.30 L 16.19,25.64 L 17.08,25.19 Z" fill="#5c5956" stroke="none" /><path d="M 26.15,21.76 L 25.22,22.20 L 25.22,26.59 L 25.29,26.59 L 26.15,26.15 Z" fill="#5c5956" stroke="none" /><path d="M 20.71,21.15 L 19.79,21.60 L 19.79,24.94 L 20.71,24.49 Z" fill="#5c5956" stroke="none" /><path d="M 18.89,18.74 L 17.97,19.18 L 17.97,21.41 L 18.04,21.41 L 18.89,20.96 Z" fill="#5c5956" stroke="none" /><path d="M 26.15,18.45 L 26.08,18.45 L 25.22,18.89 L 25.22,21.12 L 26.15,20.68 Z" fill="#5c5956" stroke="none" /><path d="M 15.27,18.35 L 15.20,18.35 L 14.41,18.77 L 14.41,24.30 L 15.27,23.89 Z" fill="#5c5956" stroke="none" /><path d="M 24.33,18.26 L 24.27,18.26 L 23.41,18.70 L 23.41,20.90 L 23.48,20.90 L 24.33,20.45 Z" fill="#5c5956" stroke="none" /><path d="M 22.52,16.92 L 21.60,17.37 L 21.60,20.71 L 22.52,20.26 Z" fill="#5c5956" stroke="none" /><path d="M 27.93,16.45 L 27.04,16.89 L 27.04,19.09 L 27.10,19.09 L 27.93,18.67 Z" fill="#5c5956" stroke="none" /><path d="M 26.15,16.22 L 25.22,16.67 L 25.22,17.78 L 25.29,17.78 L 26.15,17.34 Z" fill="#5c5956" stroke="none" /><path d="M 20.71,15.62 L 19.79,16.06 L 19.79,19.40 L 20.71,18.96 Z" fill="#5c5956" stroke="none" /><path d="M 17.08,15.20 L 16.19,15.65 L 16.19,18.96 L 16.25,18.96 L 17.08,18.54 Z" fill="#5c5956" stroke="none" /><path d="M 24.33,14.92 L 24.27,14.92 L 23.41,15.36 L 23.41,16.48 L 24.33,16.03 Z" fill="#5c5956" stroke="none" /><path d="M 18.89,14.31 L 18.83,14.31 L 17.97,14.76 L 17.97,16.99 L 18.89,16.54 Z" fill="#5c5956" stroke="none" /><path d="M 22.52,12.50 L 22.46,12.50 L 21.60,12.95 L 21.60,15.17 L 22.52,14.73 Z" fill="#5c5956" stroke="none" /><path d="M 20.71,11.23 L 19.79,11.67 L 19.79,14.95 L 19.85,14.95 L 20.71,14.50 Z" fill="#5c5956" stroke="none" /><path d="M 27.93,10.91 L 27.86,10.91 L 27.04,11.32 L 27.04,14.66 L 27.93,14.22 Z" fill="#5c5956" stroke="none" /><path d="M 26.15,10.69 L 26.08,10.69 L 25.22,11.13 L 25.22,14.44 L 25.29,14.44 L 26.15,14.00 Z" fill="#5c5956" stroke="none" /><path d="M 22.52,10.34 L 22.46,10.34 L 21.60,10.78 L 21.60,11.83 L 21.66,11.83 L 22.52,11.39 Z" fill="#5c5956" stroke="none" /><path d="M 24.33,9.42 L 23.41,9.86 L 23.41,12.02 L 23.48,12.02 L 24.33,11.58 Z" fill="#5c5956" stroke="none" /><path d="M 27.93,7.63 L 27.86,7.63 L 27.04,8.05 L 27.04,10.21 L 27.10,10.21 L 27.93,9.80 Z" fill="#5c5956" stroke="none" /><path d="M 16.19,30.06 L 15.27,30.50 L 15.27,31.59 L 16.19,31.14 Z" fill="#5e5c5b" stroke="none" /><path d="M 23.41,26.47 L 23.35,26.47 L 22.52,26.88 L 22.52,27.96 L 23.41,27.51 Z" fill="#5e5c5b" stroke="none" /><path d="M 17.97,24.75 L 17.08,25.19 L 17.08,30.66 L 17.15,30.66 L 17.97,30.25 Z" fill="#5e5c5b" stroke="none" /><path d="M 27.04,24.65 L 26.97,24.65 L 26.15,25.07 L 26.15,26.15 L 27.04,25.70 Z" fill="#5e5c5b" stroke="none" /><path d="M 25.22,24.46 L 25.16,24.46 L 24.33,24.87 L 24.33,27.04 L 24.40,27.04 L 25.22,26.62 Z" fill="#5e5c5b" stroke="none" /><path d="M 19.79,22.74 L 19.72,22.74 L 18.89,23.16 L 18.89,27.61 L 19.79,27.17 Z" fill="#5e5c5b" stroke="none" /><path d="M 28.82,22.65 L 27.93,23.09 L 27.93,25.26 L 28.82,24.81 Z" fill="#5e5c5b" stroke="none" /><path d="M 16.19,21.22 L 16.13,21.22 L 15.27,21.66 L 15.27,24.97 L 15.33,24.97 L 16.19,24.52 Z" fill="#5e5c5b" stroke="none" /><path d="M 25.22,20.01 L 24.33,20.45 L 24.33,21.57 L 25.22,21.12 Z" fill="#5e5c5b" stroke="none" /><path d="M 23.41,19.82 L 23.35,19.82 L 22.52,20.23 L 22.52,23.57 L 23.41,23.13 Z" fill="#5e5c5b" stroke="none" /><path d="M 17.97,18.10 L 17.91,18.10 L 17.08,18.51 L 17.08,20.74 L 17.15,20.74 L 17.97,20.33 Z" fill="#5e5c5b" stroke="none" /><path d="M 27.04,18.00 L 26.97,18.00 L 26.15,18.42 L 26.15,21.76 L 27.04,21.31 Z" fill="#5e5c5b" stroke="none" /><path d="M 28.82,16.00 L 27.93,16.45 L 27.93,18.64 L 27.99,18.64 L 28.82,18.23 Z" fill="#5e5c5b" stroke="none" /><path d="M 21.60,14.06 L 20.71,14.50 L 20.71,17.81 L 20.77,17.81 L 21.60,17.40 Z" fill="#5e5c5b" stroke="none" /><path d="M 16.19,13.49 L 15.27,13.93 L 15.27,17.21 L 15.33,17.21 L 16.19,16.76 Z" fill="#5e5c5b" stroke="none" /><path d="M 25.22,13.36 L 24.33,13.81 L 24.33,17.11 L 24.40,17.11 L 25.22,16.70 Z" fill="#5e5c5b" stroke="none" /><path d="M 19.79,12.76 L 18.89,13.20 L 18.89,14.28 L 18.96,14.28 L 19.79,13.87 Z" fill="#5e5c5b" stroke="none" /><path d="M 17.97,12.60 L 17.08,13.04 L 17.08,14.09 L 17.15,14.09 L 17.97,13.68 Z" fill="#5e5c5b" stroke="none" /><path d="M 27.04,12.47 L 26.97,12.47 L 26.15,12.88 L 26.15,14.00 L 27.04,13.55 Z" fill="#5e5c5b" stroke="none" /><path d="M 23.41,12.06 L 23.35,12.06 L 22.52,12.47 L 22.52,13.58 L 22.58,13.58 L 23.41,13.17 Z" fill="#5e5c5b" stroke="none" /><path d="M 23.41,9.89 L 23.35,9.89 L 22.52,10.31 L 22.52,11.39 L 23.41,10.94 Z" fill="#5e5c5b" stroke="none" /><path d="M 27.04,8.08 L 26.97,8.08 L 26.15,8.49 L 26.15,9.57 L 27.04,9.13 Z" fill="#5e5c5b" stroke="none" /><path d="M 28.82,7.19 L 28.76,7.19 L 27.93,7.60 L 27.93,10.88 L 27.99,10.88 L 28.82,10.47 Z" fill="#5e5c5b" stroke="none" /><path d="M 19.79,27.17 L 18.89,27.61 L 18.89,29.77 L 19.79,29.33 Z" fill="#605e5e" stroke="none" /><path d="M 16.19,24.52 L 15.27,24.97 L 15.27,30.50 L 15.33,30.50 L 16.19,30.06 Z" fill="#605e5e" stroke="none" /><path d="M 23.41,23.13 L 22.52,23.57 L 22.52,26.88 L 22.58,26.88 L 23.41,26.47 Z" fill="#605e5e" stroke="none" /><path d="M 27.04,21.31 L 26.15,21.76 L 26.15,25.07 L 26.21,25.07 L 27.04,24.65 Z" fill="#605e5e" stroke="none" /><path d="M 25.22,21.12 L 24.33,21.57 L 24.33,24.87 L 24.40,24.87 L 25.22,24.46 Z" fill="#605e5e" stroke="none" /><path d="M 17.97,20.33 L 17.91,20.33 L 17.08,20.74 L 17.08,25.19 L 17.97,24.75 Z" fill="#605e5e" stroke="none" /><path d="M 28.82,18.23 L 28.76,18.23 L 27.93,18.64 L 27.93,23.09 L 28.82,22.65 Z" fill="#605e5e" stroke="none" /><path d="M 21.60,17.40 L 21.53,17.40 L 20.71,17.81 L 20.71,28.85 L 20.77,28.85 L 21.60,28.44 Z" fill="#605e5e" stroke="none" /><path d="M 16.19,16.76 L 15.27,17.21 L 15.27,21.66 L 16.19,21.22 Z" fill="#605e5e" stroke="none" /><path d="M 25.22,16.70 L 25.16,16.70 L 24.33,17.11 L 24.33,20.45 L 25.22,20.01 Z" fill="#605e5e" stroke="none" /><path d="M 19.79,13.87 L 19.72,13.87 L 18.89,14.28 L 18.89,23.16 L 18.96,23.16 L 19.79,22.74 Z" fill="#605e5e" stroke="none" /><path d="M 17.97,13.68 L 17.91,13.68 L 17.08,14.09 L 17.08,18.51 L 17.15,18.51 L 17.97,18.10 Z" fill="#605e5e" stroke="none" /><path d="M 27.04,13.55 L 26.15,14.00 L 26.15,18.42 L 26.21,18.42 L 27.04,18.00 Z" fill="#605e5e" stroke="none" /><path d="M 23.41,13.17 L 23.35,13.17 L 22.52,13.58 L 22.52,20.23 L 22.58,20.23 L 23.41,19.82 Z" fill="#605e5e" stroke="none" /><path d="M 19.79,11.71 L 19.72,11.71 L 18.89,12.12 L 18.89,13.20 L 19.79,12.76 Z" fill="#605e5e" stroke="none" /><path d="M 23.41,10.94 L 22.52,11.39 L 22.52,12.47 L 22.58,12.47 L 23.41,12.06 Z" fill="#605e5e" stroke="none" /><path d="M 21.60,10.78 L 20.71,11.23 L 20.71,14.50 L 21.60,14.06 Z" fill="#605e5e" stroke="none" /><path d="M 28.82,10.47 L 28.76,10.47 L 27.93,10.88 L 27.93,16.45 L 28.82,16.00 Z" fill="#605e5e" stroke="none" /><path d="M 27.04,9.13 L 26.15,9.57 L 26.15,12.88 L 26.21,12.88 L 27.04,12.47 Z" fill="#605e5e" stroke="none" /><path d="M 25.22,8.97 L 24.33,9.42 L 24.33,13.81 L 25.22,13.36 Z" fill="#605e5e" stroke="none" /><path d="M 12.63,30.06 L 12.63,31.14 L 13.55,31.59 L 13.55,30.50 Z" fill="#918e85" stroke="none" /><path d="M 7.22,25.16 L 7.22,28.44 L 8.05,28.85 L 8.11,28.85 L 8.11,25.57 L 7.28,25.16 Z" fill="#918e85" stroke="none" /><path d="M 10.85,24.75 L 10.85,25.86 L 11.67,26.27 L 11.74,26.27 L 11.74,25.19 Z" fill="#918e85" stroke="none" /><path d="M 12.63,24.52 L 12.63,27.86 L 13.55,28.31 L 13.55,24.97 Z" fill="#918e85" stroke="none" /><path d="M 3.59,23.35 L 3.59,25.54 L 4.49,25.99 L 4.49,23.76 L 3.66,23.35 Z" fill="#918e85" stroke="none" /><path d="M 5.41,23.13 L 5.41,24.24 L 6.30,24.68 L 6.30,23.57 Z" fill="#918e85" stroke="none" /><path d="M 9.03,22.74 L 9.03,27.17 L 9.92,27.61 L 9.92,23.16 L 9.10,22.74 Z" fill="#918e85" stroke="none" /><path d="M 0.00,22.65 L 0.00,24.81 L 0.89,25.26 L 0.89,23.09 Z" fill="#918e85" stroke="none" /><path d="M 10.85,21.44 L 10.85,22.52 L 11.74,22.97 L 11.74,21.85 L 10.91,21.44 Z" fill="#918e85" stroke="none" /><path d="M 7.22,20.71 L 7.22,22.93 L 8.11,23.38 L 8.11,21.15 Z" fill="#918e85" stroke="none" /><path d="M 1.78,20.23 L 1.78,23.54 L 2.67,23.98 L 2.67,20.64 L 1.84,20.23 Z" fill="#918e85" stroke="none" /><path d="M 12.63,20.10 L 12.63,22.33 L 13.55,22.78 L 13.55,20.55 L 12.69,20.10 Z" fill="#918e85" stroke="none" /><path d="M 9.03,18.29 L 9.03,20.52 L 9.92,20.96 L 9.92,18.74 Z" fill="#918e85" stroke="none" /><path d="M 10.85,18.10 L 10.85,20.33 L 11.67,20.74 L 11.74,20.74 L 11.74,18.51 L 10.91,18.10 Z" fill="#918e85" stroke="none" /><path d="M 3.59,17.81 L 3.59,18.89 L 4.49,19.34 L 4.49,18.23 L 3.66,17.81 Z" fill="#918e85" stroke="none" /><path d="M 5.41,17.59 L 5.41,19.82 L 6.23,20.23 L 6.30,20.23 L 6.30,18.04 Z" fill="#918e85" stroke="none" /><path d="M 0.00,17.11 L 0.00,18.23 L 0.83,18.64 L 0.89,18.64 L 0.89,17.53 L 0.06,17.11 Z" fill="#918e85" stroke="none" /><path d="M 12.63,15.65 L 12.63,16.76 L 13.49,17.21 L 13.55,17.21 L 13.55,16.10 Z" fill="#918e85" stroke="none" /><path d="M 7.22,15.17 L 7.22,17.40 L 8.05,17.81 L 8.11,17.81 L 8.11,15.62 Z" fill="#918e85" stroke="none" /><path d="M 9.03,13.87 L 9.03,17.18 L 9.92,17.62 L 9.92,14.28 L 9.10,13.87 Z" fill="#918e85" stroke="none" /><path d="M 1.78,13.55 L 1.78,16.89 L 2.67,17.34 L 2.67,14.00 Z" fill="#918e85" stroke="none" /><path d="M 3.59,13.36 L 3.59,15.59 L 4.42,16.00 L 4.49,16.00 L 4.49,13.81 Z" fill="#918e85" stroke="none" /><path d="M 5.41,13.17 L 5.41,14.28 L 6.23,14.70 L 6.30,14.70 L 6.30,13.58 L 5.47,13.17 Z" fill="#918e85" stroke="none" /><path d="M 10.85,12.60 L 10.85,14.76 L 11.74,15.20 L 11.74,13.04 Z" fill="#918e85" stroke="none" /><path d="M 7.22,11.86 L 7.22,12.95 L 8.11,13.39 L 8.11,12.28 L 7.28,11.86 Z" fill="#918e85" stroke="none" /><path d="M 3.59,8.97 L 3.59,11.13 L 4.49,11.58 L 4.49,9.42 Z" fill="#918e85" stroke="none" /><path d="M 1.78,8.08 L 1.78,10.24 L 2.61,10.66 L 2.67,10.66 L 2.67,8.49 L 1.84,8.08 Z" fill="#918e85" stroke="none" /><path d="M 0.00,7.19 L 0.00,11.58 L 0.83,11.99 L 0.89,11.99 L 0.89,7.60 L 0.06,7.19 Z" fill="#918e85" stroke="none" /><path d="M 12.63,27.86 L 12.63,30.06 L 13.49,30.50 L 13.55,30.50 L 13.55,28.31 L 12.69,27.86 Z" fill="#96918c" stroke="none" /><path d="M 9.03,27.17 L 9.03,29.33 L 9.92,29.77 L 9.92,27.61 Z" fill="#96918c" stroke="none" /><path d="M 10.85,25.86 L 10.85,30.25 L 11.67,30.66 L 11.74,30.66 L 11.74,26.27 L 10.91,25.86 Z" fill="#96918c" stroke="none" /><path d="M 3.59,25.54 L 3.59,26.62 L 4.42,27.04 L 4.49,27.04 L 4.49,25.99 Z" fill="#96918c" stroke="none" /><path d="M 5.41,24.24 L 5.41,27.51 L 6.30,27.96 L 6.30,24.68 Z" fill="#96918c" stroke="none" /><path d="M 1.78,23.54 L 1.78,25.70 L 2.67,26.15 L 2.67,23.98 Z" fill="#96918c" stroke="none" /><path d="M 7.22,22.93 L 7.22,25.16 L 8.05,25.57 L 8.11,25.57 L 8.11,23.38 Z" fill="#96918c" stroke="none" /><path d="M 10.85,22.52 L 10.85,24.75 L 11.74,25.19 L 11.74,22.97 Z" fill="#96918c" stroke="none" /><path d="M 12.63,22.33 L 12.63,24.52 L 13.49,24.97 L 13.55,24.97 L 13.55,22.78 L 12.69,22.33 Z" fill="#96918c" stroke="none" /><path d="M 9.03,20.52 L 9.03,22.74 L 9.86,23.16 L 9.92,23.16 L 9.92,20.96 Z" fill="#96918c" stroke="none" /><path d="M 10.85,20.33 L 10.85,21.44 L 11.67,21.85 L 11.74,21.85 L 11.74,20.74 L 10.91,20.33 Z" fill="#96918c" stroke="none" /><path d="M 5.41,19.82 L 5.41,23.13 L 6.30,23.57 L 6.30,20.23 L 5.47,19.82 Z" fill="#96918c" stroke="none" /><path d="M 3.59,18.89 L 3.59,23.35 L 4.42,23.76 L 4.49,23.76 L 4.49,19.34 Z" fill="#96918c" stroke="none" /><path d="M 0.00,18.23 L 0.00,22.65 L 0.89,23.09 L 0.89,18.64 L 0.06,18.23 Z" fill="#96918c" stroke="none" /><path d="M 7.22,17.40 L 7.22,20.71 L 8.11,21.15 L 8.11,17.81 L 7.28,17.40 Z" fill="#96918c" stroke="none" /><path d="M 9.03,17.18 L 9.03,18.29 L 9.92,18.74 L 9.92,17.62 Z" fill="#96918c" stroke="none" /><path d="M 1.78,16.89 L 1.78,20.23 L 2.61,20.64 L 2.67,20.64 L 2.67,17.34 Z" fill="#96918c" stroke="none" /><path d="M 12.63,16.76 L 12.63,20.10 L 13.55,20.55 L 13.55,17.21 Z" fill="#96918c" stroke="none" /><path d="M 3.59,15.59 L 3.59,17.81 L 4.42,18.23 L 4.49,18.23 L 4.49,16.00 L 3.66,15.59 Z" fill="#96918c" stroke="none" /><path d="M 10.85,14.76 L 10.85,18.10 L 11.67,18.51 L 11.74,18.51 L 11.74,15.20 Z" fill="#96918c" stroke="none" /><path d="M 5.41,14.28 L 5.41,17.59 L 6.30,18.04 L 6.30,14.70 L 5.47,14.28 Z" fill="#96918c" stroke="none" /><path d="M 12.63,13.49 L 12.63,15.65 L 13.49,16.10 L 13.55,16.10 L 13.55,13.93 Z" fill="#96918c" stroke="none" /><path d="M 7.22,12.95 L 7.22,15.17 L 8.11,15.62 L 8.11,13.39 Z" fill="#96918c" stroke="none" /><path d="M 9.03,11.71 L 9.03,13.87 L 9.86,14.28 L 9.92,14.28 L 9.92,12.12 L 9.10,11.71 Z" fill="#96918c" stroke="none" /><path d="M 0.00,11.58 L 0.00,17.11 L 0.83,17.53 L 0.89,17.53 L 0.89,11.99 L 0.06,11.58 Z" fill="#96918c" stroke="none" /><path d="M 3.59,11.13 L 3.59,13.36 L 4.49,13.81 L 4.49,11.58 Z" fill="#96918c" stroke="none" /><path d="M 7.22,10.78 L 7.22,11.86 L 8.05,12.28 L 8.11,12.28 L 8.11,11.23 Z" fill="#96918c" stroke="none" /><path d="M 1.78,10.24 L 1.78,13.55 L 2.67,14.00 L 2.67,10.66 L 1.84,10.24 Z" fill="#96918c" stroke="none" /><path d="M 5.41,9.89 L 5.41,13.17 L 6.23,13.58 L 6.30,13.58 L 6.30,10.31 L 5.47,9.89 Z" fill="#96918c" stroke="none" /><path d="M 11.74,29.61 L 11.74,30.70 L 12.56,31.11 L 12.63,31.11 L 12.63,30.06 Z" fill="#999693" stroke="none" /><path d="M 13.55,29.42 L 13.55,31.59 L 14.35,32.00 L 14.41,32.00 L 14.41,29.84 Z" fill="#999693" stroke="none" /><path d="M 8.11,27.80 L 8.11,28.88 L 9.03,29.33 L 9.03,28.25 Z" fill="#999693" stroke="none" /><path d="M 9.92,27.61 L 9.92,29.77 L 10.78,30.22 L 10.85,30.22 L 10.85,28.06 Z" fill="#999693" stroke="none" /><path d="M 0.89,24.21 L 0.89,25.26 L 1.78,25.70 L 1.78,24.62 L 0.95,24.21 Z" fill="#999693" stroke="none" /><path d="M 9.92,23.19 L 9.92,24.30 L 10.85,24.75 L 10.85,23.63 L 9.99,23.19 Z" fill="#999693" stroke="none" /><path d="M 11.74,22.97 L 11.74,26.31 L 12.56,26.72 L 12.63,26.72 L 12.63,23.41 Z" fill="#999693" stroke="none" /><path d="M 13.55,22.78 L 13.55,25.00 L 14.41,25.42 L 14.41,23.19 Z" fill="#999693" stroke="none" /><path d="M 8.11,21.15 L 8.11,24.49 L 9.03,24.94 L 9.03,21.60 Z" fill="#999693" stroke="none" /><path d="M 2.67,20.68 L 2.67,26.15 L 3.53,26.59 L 3.59,26.59 L 3.59,21.12 L 2.74,20.68 Z" fill="#999693" stroke="none" /><path d="M 4.49,20.45 L 4.49,24.91 L 5.41,25.35 L 5.41,20.90 Z" fill="#999693" stroke="none" /><path d="M 11.74,17.43 L 11.74,18.54 L 12.56,18.96 L 12.63,18.96 L 12.63,17.88 Z" fill="#999693" stroke="none" /><path d="M 9.92,16.54 L 9.92,19.85 L 10.78,20.29 L 10.85,20.29 L 10.85,16.99 L 9.99,16.54 Z" fill="#999693" stroke="none" /><path d="M 0.89,15.33 L 0.89,18.67 L 1.72,19.09 L 1.78,19.09 L 1.78,15.78 Z" fill="#999693" stroke="none" /><path d="M 2.67,14.00 L 2.67,16.22 L 3.53,16.67 L 3.59,16.67 L 3.59,14.44 Z" fill="#999693" stroke="none" /><path d="M 13.55,13.96 L 13.55,17.24 L 14.41,17.65 L 14.41,14.38 L 13.61,13.96 Z" fill="#999693" stroke="none" /><path d="M 6.30,13.61 L 6.30,16.92 L 7.16,17.37 L 7.22,17.37 L 7.22,14.06 L 6.36,13.61 Z" fill="#999693" stroke="none" /><path d="M 8.11,13.39 L 8.11,14.50 L 8.97,14.95 L 9.03,14.95 L 9.03,13.84 Z" fill="#999693" stroke="none" /><path d="M 11.74,13.04 L 11.74,14.12 L 12.56,14.54 L 12.63,14.54 L 12.63,13.49 Z" fill="#999693" stroke="none" /><path d="M 8.11,11.23 L 8.11,12.31 L 9.03,12.76 L 9.03,11.67 Z" fill="#999693" stroke="none" /><path d="M 4.49,10.50 L 4.49,11.58 L 5.34,12.02 L 5.41,12.02 L 5.41,10.94 L 4.55,10.50 Z" fill="#999693" stroke="none" /><path d="M 2.67,8.52 L 2.67,9.57 L 3.53,10.02 L 3.59,10.02 L 3.59,8.97 L 2.74,8.52 Z" fill="#999693" stroke="none" /><path d="M 0.89,7.63 L 0.89,10.91 L 1.72,11.32 L 1.78,11.32 L 1.78,8.05 L 0.95,7.63 Z" fill="#999693" stroke="none" /><path d="M 11.74,26.31 L 11.74,29.61 L 12.63,30.06 L 12.63,26.72 L 11.80,26.31 Z" fill="#9b9998" stroke="none" /><path d="M 13.55,25.00 L 13.55,29.42 L 14.35,29.84 L 14.41,29.84 L 14.41,25.42 L 13.61,25.00 Z" fill="#9b9998" stroke="none" /><path d="M 4.49,24.91 L 4.49,27.07 L 5.41,27.51 L 5.41,25.35 L 4.55,24.91 Z" fill="#9b9998" stroke="none" /><path d="M 8.11,24.49 L 8.11,27.80 L 8.97,28.25 L 9.03,28.25 L 9.03,24.94 L 8.17,24.49 Z" fill="#9b9998" stroke="none" /><path d="M 9.92,24.30 L 9.92,27.61 L 10.78,28.06 L 10.85,28.06 L 10.85,24.75 L 9.99,24.30 Z" fill="#9b9998" stroke="none" /><path d="M 9.92,19.85 L 9.92,23.19 L 10.85,23.63 L 10.85,20.29 Z" fill="#9b9998" stroke="none" /><path d="M 0.89,18.67 L 0.89,24.21 L 1.72,24.62 L 1.78,24.62 L 1.78,19.09 L 0.95,18.67 Z" fill="#9b9998" stroke="none" /><path d="M 11.74,18.54 L 11.74,22.97 L 12.63,23.41 L 12.63,18.96 L 11.80,18.54 Z" fill="#9b9998" stroke="none" /><path d="M 13.55,17.24 L 13.55,22.78 L 14.35,23.19 L 14.41,23.19 L 14.41,17.65 L 13.61,17.24 Z" fill="#9b9998" stroke="none" /><path d="M 6.30,16.92 L 6.30,27.96 L 7.16,28.41 L 7.22,28.41 L 7.22,17.37 Z" fill="#9b9998" stroke="none" /><path d="M 2.67,16.22 L 2.67,20.68 L 3.59,21.12 L 3.59,16.67 Z" fill="#9b9998" stroke="none" /><path d="M 8.11,14.50 L 8.11,21.15 L 8.97,21.60 L 9.03,21.60 L 9.03,14.95 Z" fill="#9b9998" stroke="none" /><path d="M 11.74,14.12 L 11.74,17.43 L 12.63,17.88 L 12.63,14.54 L 11.80,14.12 Z" fill="#9b9998" stroke="none" /><path d="M 8.11,12.31 L 8.11,13.39 L 8.97,13.84 L 9.03,13.84 L 9.03,12.76 L 8.17,12.31 Z" fill="#9b9998" stroke="none" /><path d="M 9.92,12.15 L 9.92,16.54 L 10.85,16.99 L 10.85,12.60 L 9.99,12.15 Z" fill="#9b9998" stroke="none" /><path d="M 4.49,11.58 L 4.49,20.45 L 5.34,20.90 L 5.41,20.90 L 5.41,12.02 Z" fill="#9b9998" stroke="none" /><path d="M 0.89,10.91 L 0.89,15.33 L 1.78,15.78 L 1.78,11.32 L 0.95,10.91 Z" fill="#9b9998" stroke="none" /><path d="M 6.30,10.34 L 6.30,13.61 L 7.22,14.06 L 7.22,10.78 L 6.36,10.34 Z" fill="#9b9998" stroke="none" /><path d="M 2.67,9.57 L 2.67,14.00 L 3.53,14.44 L 3.59,14.44 L 3.59,10.02 Z" fill="#9b9998" stroke="none" /><path d="M 4.49,9.42 L 4.49,10.50 L 5.41,10.94 L 5.41,9.86 Z" fill="#9b9998" stroke="none" /><path d="M 12.66,13.49 L 12.66,13.52 L 14.38,14.38 L 14.44,14.38 L 15.27,13.96 L 15.27,13.93 L 13.55,13.07 L 13.46,13.07 Z" fill="#dad6c9" stroke="none" /><path d="M 15.33,13.04 L 15.36,13.11 L 16.13,13.49 L 16.22,13.49 L 17.05,13.07 L 17.05,13.01 L 16.29,12.63 L 16.16,12.63 Z" fill="#dad6c9" stroke="none" /><path d="M 1.78,8.05 L 1.78,8.08 L 2.67,8.52 L 3.53,8.11 L 3.50,8.05 L 2.67,7.63 L 2.61,7.63 Z" fill="#dad6c9" stroke="none" /><path d="M 26.21,7.60 L 26.21,7.67 L 26.97,8.05 L 27.10,8.05 L 27.93,7.63 L 27.90,7.57 L 27.13,7.19 L 27.04,7.19 Z" fill="#dad6c9" stroke="none" /><path d="M 2.64,6.71 L 1.81,6.30 L 1.75,6.30 L 0.03,7.16 L 0.03,7.19 L 0.83,7.60 L 0.92,7.60 L 2.64,6.74 Z" fill="#dad6c9" stroke="none" /><path d="M 25.29,6.27 L 25.29,6.30 L 26.12,6.71 L 26.24,6.71 L 27.01,6.33 L 27.01,6.27 L 26.18,5.85 L 26.08,5.85 Z" fill="#dad6c9" stroke="none" /><path d="M 2.70,5.82 L 2.74,5.88 L 3.50,6.27 L 3.59,6.27 L 4.42,5.85 L 4.42,5.79 L 3.66,5.41 L 3.53,5.41 Z" fill="#dad6c9" stroke="none" /><path d="M 13.49,1.27 L 12.63,0.86 L 11.74,1.30 L 11.74,1.34 L 12.56,1.75 L 12.63,1.75 L 13.46,1.34 Z" fill="#dad6c9" stroke="none" /><path d="M 14.41,0.83 L 14.41,0.86 L 15.30,1.30 L 16.16,0.89 L 16.13,0.83 L 15.30,0.41 L 15.24,0.41 Z" fill="#dad6c9" stroke="none" /><path d="M 15.33,12.18 L 16.16,12.60 L 16.29,12.60 L 17.08,12.18 L 17.18,12.18 L 18.00,12.60 L 18.89,12.15 L 18.89,12.12 L 17.18,11.26 L 17.08,11.26 L 15.36,12.12 Z" fill="#dfdbce" stroke="none" /><path d="M 10.82,11.67 L 10.82,11.74 L 11.64,12.15 L 11.58,12.21 L 10.85,12.56 L 10.85,12.60 L 11.71,13.04 L 11.77,13.04 L 13.49,12.18 L 13.46,12.12 L 11.74,11.26 L 11.64,11.26 Z" fill="#dfdbce" stroke="none" /><path d="M 13.52,10.34 L 13.52,10.37 L 14.35,10.78 L 14.47,10.78 L 15.30,10.37 L 15.27,10.31 L 14.44,9.89 L 14.38,9.89 Z" fill="#dfdbce" stroke="none" /><path d="M 21.63,9.89 L 20.77,9.45 L 20.71,9.45 L 18.93,10.34 L 18.93,10.37 L 19.85,10.82 L 21.63,9.92 Z" fill="#dfdbce" stroke="none" /><path d="M 7.19,9.89 L 7.19,9.92 L 8.97,10.82 L 9.89,10.37 L 9.89,10.34 L 8.11,9.45 L 8.05,9.45 Z" fill="#dfdbce" stroke="none" /><path d="M 23.48,8.08 L 23.48,8.11 L 25.19,8.97 L 25.26,8.97 L 26.12,8.52 L 26.12,8.49 L 24.40,7.63 L 24.33,7.63 Z" fill="#dfdbce" stroke="none" /><path d="M 12.60,8.08 L 12.60,8.11 L 13.49,8.56 L 14.41,8.11 L 14.41,8.08 L 13.52,7.63 Z" fill="#dfdbce" stroke="none" /><path d="M 3.56,8.08 L 3.56,8.11 L 4.39,8.52 L 4.36,8.59 L 3.63,8.94 L 3.63,9.00 L 4.45,9.42 L 4.55,9.42 L 6.27,8.56 L 6.27,8.52 L 4.49,7.63 L 4.42,7.63 Z" fill="#dfdbce" stroke="none" /><path d="M 27.10,7.16 L 27.13,7.22 L 27.90,7.60 L 27.99,7.60 L 28.79,7.19 L 28.79,7.16 L 27.96,6.74 Z" fill="#dfdbce" stroke="none" /><path d="M 19.85,7.16 L 19.88,7.22 L 20.71,7.63 L 20.77,7.63 L 21.63,7.19 L 21.63,7.16 L 20.80,6.74 L 20.68,6.74 Z" fill="#dfdbce" stroke="none" /><path d="M 7.19,7.16 L 7.22,7.22 L 8.05,7.63 L 8.11,7.63 L 8.97,7.19 L 8.97,7.16 L 8.14,6.74 L 8.02,6.74 Z" fill="#dfdbce" stroke="none" /><path d="M 13.49,6.71 L 12.66,6.30 L 12.53,6.30 L 10.82,7.16 L 10.82,7.22 L 11.64,7.63 L 11.74,7.63 L 13.46,6.78 Z" fill="#dfdbce" stroke="none" /><path d="M 6.23,5.79 L 5.41,5.38 L 5.31,5.38 L 3.59,6.23 L 3.56,6.30 L 4.39,6.71 L 4.52,6.71 L 6.23,5.85 Z" fill="#dfdbce" stroke="none" /><path d="M 25.26,6.30 L 25.22,6.23 L 24.40,5.82 L 25.22,5.41 L 25.22,5.38 L 24.33,4.93 L 22.58,5.79 L 22.58,5.85 L 24.30,6.71 L 24.43,6.71 Z" fill="#dfdbce" stroke="none" /><path d="M 7.16,4.45 L 7.16,4.49 L 8.05,4.93 L 8.97,4.49 L 8.97,4.45 L 8.08,4.01 Z" fill="#dfdbce" stroke="none" /><path d="M 13.52,4.01 L 13.52,4.04 L 14.35,4.45 L 14.47,4.45 L 15.30,4.04 L 15.27,3.98 L 14.44,3.56 L 14.38,3.56 Z" fill="#dfdbce" stroke="none" /><path d="M 13.49,2.19 L 12.63,1.75 L 12.56,1.75 L 11.71,2.19 L 10.88,1.78 L 10.78,1.78 L 9.96,2.19 L 9.96,2.26 L 11.71,3.12 L 13.49,2.23 Z" fill="#dfdbce" stroke="none" /><path d="M 18.04,2.67 L 18.04,2.64 L 17.24,2.26 L 17.18,2.19 L 17.94,1.81 L 17.97,1.75 L 17.15,1.34 L 17.02,1.34 L 15.33,2.19 L 15.33,2.23 L 17.11,3.12 Z" fill="#dfdbce" stroke="none" /><path d="M 13.58,0.38 L 13.58,0.45 L 14.35,0.83 L 14.47,0.83 L 15.24,0.45 L 15.24,0.38 L 14.47,0.00 L 14.35,0.00 Z" fill="#dfdbce" stroke="none" /><path d="M 11.77,13.01 L 11.77,13.07 L 12.60,13.49 L 12.69,13.49 L 13.52,13.07 L 15.20,13.93 L 15.33,13.93 L 16.16,13.52 L 16.13,13.46 L 15.36,13.07 L 15.43,13.01 L 16.22,12.63 L 16.22,12.60 L 15.43,12.21 L 15.36,12.15 L 16.19,11.74 L 16.19,11.67 L 15.36,11.26 L 15.27,11.26 L 14.41,11.71 L 13.55,11.26 L 13.46,11.26 L 12.63,11.67 L 12.63,11.74 L 13.46,12.15 L 13.39,12.21 Z" fill="#e7dfd7" stroke="none" /><path d="M 17.15,11.23 L 17.18,11.29 L 18.00,11.71 L 18.07,11.71 L 18.93,11.26 L 19.72,11.67 L 19.85,11.67 L 20.68,11.26 L 20.64,11.20 L 18.99,10.37 L 18.86,10.37 Z" fill="#e7dfd7" stroke="none" /><path d="M 7.25,10.75 L 7.25,10.82 L 8.08,11.23 L 8.17,11.23 L 8.97,10.82 L 9.83,11.23 L 9.86,11.26 L 9.83,11.29 L 9.03,11.67 L 9.03,11.71 L 10.82,12.60 L 11.67,12.18 L 11.64,12.12 L 10.82,11.71 L 11.64,11.29 L 11.67,11.23 L 9.96,10.37 L 9.83,10.37 L 9.03,10.78 L 8.94,10.78 L 8.14,10.37 L 8.02,10.37 Z" fill="#e7dfd7" stroke="none" /><path d="M 5.38,8.97 L 5.41,9.03 L 6.23,9.45 L 5.41,9.86 L 5.41,9.89 L 6.30,10.34 L 8.05,9.48 L 8.05,9.42 L 6.33,8.56 L 6.20,8.56 Z" fill="#e7dfd7" stroke="none" /><path d="M 11.71,7.63 L 11.71,7.67 L 12.53,8.08 L 12.66,8.08 L 13.49,7.67 L 13.46,7.60 L 12.63,7.19 L 12.56,7.19 Z" fill="#e7dfd7" stroke="none" /><path d="M 27.93,6.74 L 27.07,6.30 L 27.01,6.30 L 26.21,6.71 L 26.15,6.71 L 25.29,6.27 L 24.40,6.71 L 24.33,6.71 L 23.48,6.27 L 22.55,6.71 L 22.55,6.74 L 23.35,7.13 L 23.41,7.19 L 22.58,7.60 L 22.58,7.67 L 23.41,8.08 L 23.35,8.14 L 20.77,9.42 L 20.77,9.48 L 21.60,9.89 L 21.53,9.96 L 20.74,10.34 L 20.74,10.37 L 21.57,10.78 L 21.63,10.78 L 22.49,10.34 L 22.49,10.31 L 21.76,9.96 L 21.69,9.89 L 21.73,9.86 L 22.55,9.45 L 23.35,9.86 L 23.48,9.86 L 25.19,9.00 L 25.19,8.94 L 23.57,8.14 L 23.51,8.08 L 23.54,8.05 L 24.37,7.63 L 26.15,8.52 L 27.04,8.08 L 27.04,8.05 L 26.21,7.63 L 27.93,6.78 Z" fill="#e7dfd7" stroke="none" /><path d="M 0.89,7.60 L 0.89,7.63 L 1.72,8.05 L 1.84,8.05 L 2.64,7.63 L 3.50,8.08 L 3.59,8.08 L 4.45,7.63 L 5.31,8.08 L 5.41,8.08 L 6.23,7.67 L 6.23,7.60 L 5.41,7.19 L 5.47,7.13 L 6.27,6.74 L 6.27,6.71 L 5.38,6.27 L 4.49,6.71 L 4.42,6.71 L 2.74,5.85 L 2.64,5.85 L 1.81,6.27 L 1.81,6.33 L 2.54,6.68 L 2.58,6.74 Z" fill="#e7dfd7" stroke="none" /><path d="M 12.60,6.27 L 12.60,6.30 L 13.49,6.74 L 14.38,6.30 L 14.44,6.30 L 16.19,7.19 L 13.52,8.52 L 13.55,8.59 L 14.38,9.00 L 14.44,9.00 L 18.00,7.22 L 18.00,7.16 L 14.44,5.38 L 14.38,5.38 Z" fill="#e7dfd7" stroke="none" /><path d="M 8.08,6.71 L 8.08,6.74 L 8.87,7.13 L 8.94,7.19 L 8.11,7.60 L 8.11,7.67 L 13.46,10.34 L 13.55,10.34 L 14.38,9.92 L 14.38,9.86 L 9.03,7.19 L 9.10,7.13 L 14.38,4.49 L 14.44,4.49 L 19.72,7.13 L 19.79,7.19 L 14.44,9.86 L 14.44,9.92 L 15.27,10.34 L 15.36,10.34 L 20.71,7.67 L 20.71,7.60 L 19.88,7.19 L 19.94,7.13 L 20.74,6.74 L 20.74,6.71 L 15.33,4.01 L 14.44,4.45 L 14.38,4.45 L 13.49,4.01 Z" fill="#e7dfd7" stroke="none" /><path d="M 11.67,3.09 L 10.85,2.67 L 10.72,2.67 L 9.92,3.09 L 9.83,3.09 L 9.00,2.67 L 8.11,3.12 L 8.11,3.15 L 8.91,3.53 L 8.94,3.56 L 8.91,3.59 L 8.08,4.01 L 7.25,3.59 L 7.16,3.59 L 6.33,4.01 L 6.33,4.07 L 7.06,4.42 L 7.09,4.45 L 7.06,4.52 L 6.30,4.90 L 6.20,4.90 L 5.38,4.49 L 3.59,5.38 L 3.59,5.41 L 4.42,5.82 L 4.49,5.82 L 5.38,5.38 L 6.23,5.82 L 6.30,5.82 L 8.05,4.93 L 8.05,4.90 L 7.25,4.52 L 7.22,4.49 L 7.25,4.42 L 8.02,4.04 L 8.11,4.04 L 8.91,4.45 L 9.03,4.45 L 11.64,3.15 Z" fill="#e7dfd7" stroke="none" /><path d="M 17.15,2.19 L 17.15,2.23 L 17.97,2.64 L 17.94,2.70 L 17.15,3.09 L 17.18,3.15 L 22.52,5.82 L 22.58,5.82 L 23.44,5.38 L 23.44,5.34 L 22.62,4.93 L 22.68,4.87 L 23.41,4.52 L 23.38,4.45 L 22.55,4.04 L 22.49,4.04 L 21.69,4.45 L 21.63,4.45 L 20.87,4.07 L 20.80,4.01 L 21.57,3.63 L 21.60,3.56 L 20.77,3.15 L 20.64,3.15 L 19.85,3.56 L 18.99,3.12 L 19.05,3.05 L 19.79,2.70 L 19.75,2.64 L 18.04,1.78 L 17.94,1.78 Z" fill="#e7dfd7" stroke="none" /><path d="M 12.60,2.67 L 13.49,3.12 L 14.38,2.67 L 14.44,2.67 L 15.33,3.12 L 16.22,2.67 L 16.22,2.64 L 15.43,2.26 L 15.36,2.19 L 17.08,1.34 L 17.08,1.30 L 16.19,0.86 L 15.36,1.27 L 15.27,1.27 L 13.58,0.41 L 13.52,0.41 L 12.66,0.86 L 12.66,0.89 L 13.39,1.24 L 13.46,1.30 L 12.63,1.72 L 12.63,1.78 L 13.46,2.19 L 13.39,2.26 L 12.60,2.64 Z" fill="#e7dfd7" stroke="none" /><path d="M 17.97,12.56 L 17.11,12.15 L 16.22,12.60 L 16.22,12.63 L 17.05,13.04 L 17.11,13.04 L 17.94,12.63 Z" fill="#ebe7e3" stroke="none" /><path d="M 11.71,11.23 L 11.74,11.29 L 12.56,11.71 L 12.63,11.71 L 13.49,11.26 L 14.38,11.71 L 14.44,11.71 L 15.30,11.26 L 16.19,11.71 L 16.25,11.71 L 17.11,11.26 L 17.11,11.23 L 16.29,10.82 L 16.16,10.82 L 15.36,11.23 L 15.27,11.23 L 14.47,10.82 L 14.35,10.82 L 13.55,11.23 L 13.46,11.23 L 12.66,10.82 L 12.53,10.82 Z" fill="#ebe7e3" stroke="none" /><path d="M 8.14,11.23 L 8.14,11.26 L 8.97,11.67 L 9.10,11.67 L 9.86,11.29 L 9.86,11.23 L 9.03,10.82 L 8.94,10.82 Z" fill="#ebe7e3" stroke="none" /><path d="M 17.11,10.34 L 17.11,10.37 L 18.00,10.82 L 18.93,10.37 L 18.93,10.34 L 18.04,9.89 Z" fill="#ebe7e3" stroke="none" /><path d="M 21.66,9.92 L 22.52,10.34 L 23.41,9.89 L 23.41,9.86 L 22.58,9.45 L 22.52,9.45 L 21.69,9.86 Z" fill="#ebe7e3" stroke="none" /><path d="M 13.55,9.42 L 13.55,9.48 L 14.38,9.89 L 14.44,9.89 L 15.27,9.48 L 15.27,9.42 L 14.44,9.00 L 14.38,9.00 Z" fill="#ebe7e3" stroke="none" /><path d="M 18.04,8.97 L 18.07,9.03 L 18.89,9.45 L 18.96,9.45 L 19.82,9.00 L 20.71,9.45 L 20.77,9.45 L 21.63,9.00 L 21.63,8.97 L 19.85,8.08 Z" fill="#ebe7e3" stroke="none" /><path d="M 7.19,8.97 L 7.22,9.03 L 8.05,9.45 L 8.11,9.45 L 8.97,9.00 L 9.86,9.45 L 9.92,9.45 L 10.78,9.00 L 10.78,8.97 L 9.00,8.08 Z" fill="#ebe7e3" stroke="none" /><path d="M 2.70,8.49 L 2.74,8.56 L 3.56,8.97 L 3.63,8.97 L 4.45,8.56 L 4.45,8.52 L 3.56,8.08 Z" fill="#ebe7e3" stroke="none" /><path d="M 18.07,7.16 L 18.07,7.22 L 18.89,7.63 L 18.96,7.63 L 19.82,7.19 L 19.82,7.16 L 18.99,6.74 L 18.89,6.74 Z" fill="#ebe7e3" stroke="none" /><path d="M 12.63,7.16 L 12.63,7.22 L 13.46,7.63 L 13.55,7.63 L 14.38,7.22 L 14.38,7.16 L 13.55,6.74 L 13.46,6.74 Z" fill="#ebe7e3" stroke="none" /><path d="M 9.00,7.16 L 9.03,7.22 L 9.86,7.63 L 9.92,7.63 L 10.75,7.22 L 10.75,7.16 L 9.92,6.74 L 9.83,6.74 Z" fill="#ebe7e3" stroke="none" /><path d="M 22.52,5.82 L 21.66,6.27 L 21.66,6.30 L 22.49,6.71 L 22.46,6.78 L 21.66,7.16 L 21.66,7.19 L 22.52,7.63 L 21.69,8.05 L 21.66,8.11 L 22.49,8.52 L 22.62,8.52 L 23.44,8.11 L 23.41,8.05 L 22.58,7.63 L 23.44,7.19 L 23.44,7.16 L 22.62,6.74 L 22.65,6.68 L 23.44,6.30 L 23.44,6.27 L 22.58,5.82 Z" fill="#ebe7e3" stroke="none" /><path d="M 6.23,5.82 L 5.38,6.27 L 5.38,6.30 L 6.20,6.71 L 6.17,6.78 L 5.38,7.16 L 5.38,7.19 L 6.23,7.63 L 5.41,8.05 L 5.38,8.11 L 6.20,8.52 L 6.33,8.52 L 7.16,8.11 L 7.13,8.05 L 6.30,7.63 L 7.16,7.19 L 7.16,7.16 L 6.33,6.74 L 6.36,6.68 L 7.16,6.30 L 7.16,6.27 L 6.30,5.82 Z" fill="#ebe7e3" stroke="none" /><path d="M 24.40,5.79 L 24.40,5.85 L 25.22,6.27 L 25.32,6.27 L 26.12,5.85 L 26.12,5.82 L 25.29,5.41 L 25.16,5.41 Z" fill="#ebe7e3" stroke="none" /><path d="M 20.74,4.90 L 19.91,4.49 L 19.79,4.49 L 18.07,5.34 L 18.07,5.41 L 19.79,6.27 L 19.91,6.27 L 20.74,5.85 L 20.71,5.79 L 19.88,5.38 L 20.71,4.96 Z" fill="#ebe7e3" stroke="none" /><path d="M 15.30,4.90 L 14.47,4.49 L 14.35,4.49 L 11.74,5.79 L 11.71,5.85 L 12.53,6.27 L 12.66,6.27 L 15.27,4.96 Z" fill="#ebe7e3" stroke="none" /><path d="M 5.41,4.52 L 6.27,4.93 L 7.16,4.49 L 7.16,4.45 L 6.33,4.04 L 6.27,4.04 L 5.44,4.45 Z" fill="#ebe7e3" stroke="none" /><path d="M 18.96,3.09 L 18.99,3.15 L 19.82,3.56 L 19.88,3.56 L 20.71,3.15 L 20.71,3.12 L 19.82,2.67 Z" fill="#ebe7e3" stroke="none" /><path d="M 11.71,3.09 L 11.74,3.15 L 12.56,3.56 L 12.63,3.56 L 13.49,3.12 L 14.38,3.56 L 14.44,3.56 L 15.30,3.12 L 16.19,3.56 L 16.25,3.56 L 17.11,3.12 L 17.11,3.09 L 16.29,2.67 L 16.16,2.67 L 15.36,3.09 L 15.27,3.09 L 14.47,2.67 L 14.35,2.67 L 13.55,3.09 L 13.46,3.09 L 12.66,2.67 L 12.53,2.67 Z" fill="#ebe7e3" stroke="none" /><path d="M 10.85,1.75 L 10.88,1.81 L 11.64,2.19 L 11.74,2.19 L 12.56,1.78 L 12.56,1.72 L 11.80,1.34 L 11.67,1.34 Z" fill="#ebe7e3" stroke="none" /><path d="M 18.07,11.67 L 18.07,11.74 L 18.83,12.12 L 18.96,12.12 L 19.79,11.71 L 19.79,11.67 L 18.96,11.26 L 18.89,11.26 Z" fill="#efecea" stroke="none" /><path d="M 19.85,10.78 L 19.88,10.85 L 20.64,11.23 L 20.74,11.23 L 21.57,10.82 L 21.57,10.75 L 20.80,10.37 L 20.68,10.37 Z" fill="#efecea" stroke="none" /><path d="M 6.33,10.31 L 6.36,10.37 L 7.19,10.78 L 7.25,10.78 L 8.08,10.37 L 8.08,10.34 L 7.19,9.89 Z" fill="#efecea" stroke="none" /><path d="M 8.11,9.42 L 8.11,9.48 L 11.67,11.26 L 12.56,10.82 L 12.63,10.82 L 13.49,11.26 L 14.38,10.82 L 14.44,10.82 L 15.30,11.26 L 16.19,10.82 L 16.25,10.82 L 17.15,11.26 L 18.00,10.82 L 18.00,10.78 L 17.21,10.40 L 17.18,10.37 L 17.21,10.31 L 17.97,9.92 L 18.07,9.92 L 18.86,10.34 L 18.99,10.34 L 20.71,9.48 L 20.71,9.42 L 19.88,9.00 L 19.79,9.00 L 18.93,9.45 L 18.07,9.00 L 17.97,9.00 L 14.44,10.78 L 14.38,10.78 L 10.85,9.00 L 10.75,9.00 L 9.89,9.45 L 9.03,9.00 L 8.94,9.00 Z" fill="#efecea" stroke="none" /><path d="M 4.52,9.42 L 4.52,9.45 L 5.34,9.86 L 5.47,9.86 L 6.23,9.48 L 6.23,9.42 L 5.41,9.00 L 5.31,9.00 Z" fill="#efecea" stroke="none" /><path d="M 13.52,6.71 L 13.55,6.78 L 14.38,7.19 L 13.55,7.60 L 13.52,7.67 L 14.35,8.08 L 14.47,8.08 L 16.19,7.22 L 16.19,7.16 L 14.47,6.30 L 14.35,6.30 Z" fill="#efecea" stroke="none" /><path d="M 9.89,6.71 L 9.92,6.78 L 10.75,7.19 L 9.92,7.60 L 9.92,7.67 L 13.49,9.45 L 13.55,9.45 L 14.38,9.03 L 14.38,8.97 L 10.82,7.19 L 12.60,6.30 L 12.60,6.27 L 11.67,5.82 Z" fill="#efecea" stroke="none" /><path d="M 20.71,4.93 L 19.88,5.34 L 19.88,5.41 L 20.71,5.82 L 20.64,5.88 L 19.85,6.27 L 19.85,6.30 L 21.53,7.13 L 21.60,7.19 L 19.88,8.05 L 19.85,8.11 L 21.66,9.00 L 22.55,8.56 L 22.55,8.52 L 21.76,8.14 L 21.69,8.08 L 22.52,7.67 L 22.52,7.60 L 21.69,7.19 L 21.76,7.13 L 22.55,6.74 L 22.55,6.71 L 21.76,6.33 L 21.69,6.27 L 22.52,5.85 L 22.52,5.79 L 20.80,4.93 Z" fill="#efecea" stroke="none" /><path d="M 14.44,5.34 L 14.44,5.41 L 18.00,7.19 L 14.44,8.97 L 14.44,9.03 L 15.27,9.45 L 15.33,9.45 L 18.89,7.67 L 18.89,7.60 L 18.07,7.19 L 18.89,6.78 L 18.93,6.71 L 15.36,4.93 L 15.27,4.93 Z" fill="#efecea" stroke="none" /><path d="M 22.58,4.90 L 22.62,4.96 L 23.44,5.38 L 24.30,4.96 L 24.27,4.90 L 23.44,4.49 Z" fill="#efecea" stroke="none" /><path d="M 20.77,4.01 L 20.77,4.04 L 21.60,4.45 L 21.73,4.45 L 22.49,4.07 L 22.49,4.01 L 21.66,3.59 L 21.57,3.59 Z" fill="#efecea" stroke="none" /><path d="M 7.22,3.56 L 7.25,3.63 L 8.02,4.01 L 8.11,4.01 L 8.94,3.59 L 8.94,3.53 L 8.17,3.15 L 8.05,3.15 Z" fill="#efecea" stroke="none" /><path d="M 14.44,3.53 L 14.44,3.59 L 18.00,5.38 L 18.07,5.38 L 19.85,4.49 L 19.85,4.45 L 17.18,3.12 L 17.08,3.12 L 16.22,3.56 L 15.36,3.12 L 15.27,3.12 Z" fill="#efecea" stroke="none" /><path d="M 14.38,3.53 L 13.55,3.12 L 13.46,3.12 L 12.60,3.56 L 11.74,3.12 L 11.64,3.12 L 6.30,5.79 L 6.30,5.85 L 7.13,6.27 L 7.06,6.33 L 6.27,6.71 L 6.27,6.74 L 7.06,7.13 L 7.13,7.19 L 6.30,7.60 L 6.30,7.67 L 7.13,8.08 L 7.06,8.14 L 6.27,8.52 L 6.27,8.56 L 7.19,9.00 L 8.97,8.11 L 8.94,8.05 L 7.25,7.22 L 7.22,7.19 L 7.28,7.13 L 14.38,3.59 Z" fill="#efecea" stroke="none" /><path d="M 9.03,2.70 L 9.89,3.12 L 10.78,2.67 L 10.78,2.64 L 9.96,2.23 L 9.89,2.23 L 9.07,2.64 Z" fill="#efecea" stroke="none" /></svg>