<svg height="32" width="32" viewBox="0 0 32 32"><defs /><path d="M 18.89,28.72 L 18.83,28.72 L 16.22,30.03 L 16.19,30.06 L 16.19,31.11 L 16.25,31.11 L 18.86,29.81 L 18.89,29.77 Z" fill="#575650" stroke="none" /><path d="M 28.82,23.76 L 28.76,23.76 L 25.26,25.51 L 25.22,25.54 L 25.22,26.59 L 25.29,26.59 L 28.79,24.84 L 28.82,24.81 Z" fill="#575650" stroke="none" /><path d="M 28.82,19.34 L 28.76,19.34 L 27.93,19.75 L 27.93,23.09 L 28.82,22.65 Z" fill="#575650" stroke="none" /><path d="M 28.82,13.77 L 27.93,14.22 L 27.93,18.64 L 27.99,18.64 L 28.82,18.23 Z" fill="#575650" stroke="none" /><path d="M 28.82,9.35 L 28.76,9.35 L 27.93,9.77 L 27.93,11.99 L 27.99,11.99 L 28.82,11.58 Z" fill="#575650" stroke="none" /><path d="M 16.19,30.06 L 14.41,30.95 L 14.41,32.00 L 14.47,32.00 L 16.19,31.14 Z" fill="#595852" stroke="none" /><path d="M 25.22,25.54 L 18.89,28.69 L 18.89,29.77 L 25.22,26.62 Z" fill="#595852" stroke="none" /><path d="M 28.82,22.65 L 27.93,23.09 L 27.93,24.17 L 27.99,24.17 L 28.82,23.76 Z" fill="#595852" stroke="none" /><path d="M 28.82,18.23 L 28.76,18.23 L 27.93,18.64 L 27.93,19.75 L 27.99,19.75 L 28.82,19.34 Z" fill="#595852" stroke="none" /><path d="M 28.82,11.58 L 28.76,11.58 L 27.93,11.99 L 27.93,14.22 L 28.82,13.77 Z" fill="#595852" stroke="none" /><path d="M 28.82,8.24 L 27.93,8.68 L 27.93,9.77 L 27.99,9.77 L 28.82,9.35 Z" fill="#595852" stroke="none" /><path d="M 16.19,28.98 L 16.13,28.98 L 15.27,29.42 L 15.27,30.50 L 15.33,30.50 L 16.19,30.06 Z" fill="#5c5956" stroke="none" /><path d="M 20.71,24.49 L 20.64,24.49 L 19.79,24.94 L 19.79,26.02 L 19.72,26.08 L 17.97,26.94 L 17.97,28.06 L 17.08,28.50 L 17.08,29.61 L 17.97,29.17 L 17.97,28.09 L 18.00,28.06 L 19.79,27.17 L 19.79,26.08 L 19.85,26.02 L 20.71,25.61 Z" fill="#5c5956" stroke="none" /><path d="M 21.60,19.63 L 21.53,19.63 L 18.93,20.93 L 18.89,20.96 L 18.89,22.04 L 17.08,22.97 L 17.08,24.08 L 18.89,23.19 L 18.89,22.08 L 18.93,22.04 L 21.57,20.74 L 21.60,20.71 Z" fill="#5c5956" stroke="none" /><path d="M 27.93,18.67 L 27.86,18.67 L 24.37,20.42 L 24.33,20.45 L 24.33,21.53 L 24.27,21.60 L 21.60,22.93 L 21.60,24.02 L 21.66,24.02 L 22.49,23.60 L 22.52,23.63 L 22.52,24.68 L 22.55,24.68 L 23.41,24.24 L 23.41,23.16 L 23.48,23.09 L 27.01,21.34 L 27.04,21.31 L 27.04,20.23 L 27.93,19.79 Z" fill="#5c5956" stroke="none" /><path d="M 27.93,12.02 L 27.86,12.02 L 24.37,13.77 L 24.33,13.81 L 24.33,14.89 L 23.41,15.36 L 23.41,16.45 L 23.35,16.51 L 21.63,17.37 L 21.60,17.34 L 21.60,16.29 L 22.52,15.81 L 22.52,14.73 L 22.46,14.73 L 19.82,16.06 L 19.79,16.03 L 19.79,14.98 L 22.52,13.61 L 22.52,12.50 L 24.33,11.58 L 24.33,10.50 L 24.27,10.50 L 19.82,12.72 L 19.79,12.76 L 19.79,13.84 L 19.75,13.87 L 17.11,15.17 L 17.08,15.20 L 17.08,16.29 L 17.02,16.35 L 15.27,17.21 L 15.27,19.44 L 16.19,18.99 L 16.19,17.91 L 16.25,17.84 L 19.75,16.10 L 19.79,16.13 L 19.79,17.15 L 19.72,17.21 L 17.08,18.51 L 17.08,19.63 L 17.15,19.63 L 21.57,17.40 L 21.60,17.43 L 21.60,18.48 L 21.66,18.48 L 25.22,16.70 L 25.22,15.59 L 25.26,15.55 L 27.93,14.22 Z" fill="#5c5956" stroke="none" /><path d="M 22.52,23.57 L 21.63,24.02 L 21.60,23.98 L 21.60,22.93 L 21.57,22.93 L 19.79,23.83 L 19.79,24.91 L 19.72,24.97 L 17.97,25.83 L 17.97,26.94 L 17.94,26.97 L 15.27,28.31 L 15.27,29.42 L 16.16,28.98 L 16.19,29.01 L 16.19,30.06 L 16.22,30.06 L 17.08,29.61 L 17.08,28.53 L 17.11,28.50 L 17.94,28.09 L 17.97,28.12 L 17.97,29.17 L 18.00,29.17 L 19.79,28.28 L 19.79,27.20 L 19.85,27.13 L 21.60,26.27 L 21.60,25.16 L 22.52,24.68 Z" fill="#5e5b58" stroke="none" /><path d="M 25.22,22.23 L 25.16,22.23 L 23.41,23.13 L 23.41,24.24 L 25.22,23.35 Z" fill="#5e5b58" stroke="none" /><path d="M 27.93,21.98 L 27.04,22.43 L 27.04,23.51 L 26.97,23.57 L 24.33,24.87 L 24.33,25.99 L 27.93,24.21 Z" fill="#5e5b58" stroke="none" /><path d="M 19.79,21.63 L 19.72,21.63 L 18.93,22.04 L 18.89,22.01 L 18.89,20.96 L 18.86,20.96 L 17.08,21.85 L 17.08,22.93 L 17.02,23.00 L 15.27,23.86 L 15.27,24.97 L 15.33,24.97 L 17.05,24.11 L 17.08,24.08 L 17.08,23.00 L 17.15,22.93 L 18.86,22.08 L 18.89,22.11 L 18.89,23.16 L 18.96,23.16 L 19.79,22.74 Z" fill="#5e5b58" stroke="none" /><path d="M 24.33,20.45 L 23.41,20.90 L 23.41,22.01 L 23.48,22.01 L 24.33,21.57 Z" fill="#5e5b58" stroke="none" /><path d="M 27.93,17.56 L 27.86,17.56 L 27.04,17.97 L 27.04,19.09 L 27.10,19.09 L 27.93,18.67 Z" fill="#5e5b58" stroke="none" /><path d="M 27.93,14.22 L 25.22,15.55 L 25.22,16.67 L 25.19,16.70 L 20.71,18.93 L 20.71,20.04 L 20.77,20.04 L 21.57,19.63 L 21.60,19.66 L 21.60,20.71 L 21.63,20.71 L 23.41,19.82 L 23.41,18.74 L 23.48,18.67 L 27.90,16.48 L 27.93,16.45 Z" fill="#5e5b58" stroke="none" /><path d="M 21.60,14.06 L 19.79,14.95 L 19.79,16.06 L 19.75,16.10 L 16.19,17.88 L 16.19,18.96 L 15.27,19.44 L 15.27,21.66 L 17.97,20.33 L 17.97,19.21 L 17.91,19.21 L 17.11,19.63 L 17.08,19.59 L 17.08,18.54 L 19.75,17.21 L 19.79,17.18 L 19.79,16.10 L 21.60,15.17 Z" fill="#5e5b58" stroke="none" /><path d="M 19.79,12.76 L 16.19,14.54 L 16.19,15.62 L 16.13,15.68 L 15.27,16.10 L 15.27,17.21 L 15.33,17.21 L 17.08,16.32 L 17.08,15.24 L 17.15,15.17 L 19.79,13.87 Z" fill="#5e5b58" stroke="none" /><path d="M 23.41,12.06 L 23.35,12.06 L 22.52,12.47 L 22.52,13.58 L 22.58,13.58 L 23.41,13.17 Z" fill="#5e5b58" stroke="none" /><path d="M 27.93,9.80 L 27.86,9.80 L 27.04,10.21 L 27.04,11.32 L 27.01,11.36 L 24.33,12.69 L 24.33,13.77 L 24.27,13.84 L 22.52,14.70 L 22.52,15.78 L 22.46,15.84 L 21.60,16.25 L 21.60,17.37 L 21.66,17.37 L 23.41,16.48 L 23.41,15.40 L 23.48,15.33 L 24.33,14.92 L 24.33,13.84 L 24.40,13.77 L 27.93,12.02 Z" fill="#5e5b58" stroke="none" /><path d="M 15.27,29.42 L 14.41,29.84 L 14.41,30.95 L 15.27,30.54 Z" fill="#5e5c5b" stroke="none" /><path d="M 27.93,19.79 L 27.86,19.79 L 27.04,20.20 L 27.04,21.28 L 26.97,21.34 L 25.22,22.20 L 25.22,23.32 L 25.19,23.35 L 21.60,25.13 L 21.60,26.24 L 19.79,27.17 L 19.79,28.25 L 19.85,28.25 L 24.30,26.02 L 24.33,25.99 L 24.33,24.91 L 24.37,24.87 L 27.04,23.54 L 27.04,22.46 L 27.10,22.39 L 27.93,21.98 Z" fill="#5e5c5b" stroke="none" /><path d="M 21.60,17.40 L 21.53,17.40 L 17.97,19.18 L 17.97,20.29 L 17.94,20.33 L 15.27,21.66 L 15.27,23.86 L 15.33,23.86 L 17.08,22.97 L 17.08,21.88 L 17.11,21.85 L 20.71,20.07 L 20.71,18.96 L 21.60,18.51 Z" fill="#5e5c5b" stroke="none" /><path d="M 15.27,17.24 L 15.20,17.24 L 14.41,17.65 L 14.41,19.85 L 14.47,19.85 L 15.27,19.44 Z" fill="#5e5c5b" stroke="none" /><path d="M 27.93,16.45 L 23.44,18.67 L 23.41,18.70 L 23.41,19.79 L 23.38,19.82 L 19.79,21.60 L 19.79,22.71 L 19.75,22.74 L 15.27,24.97 L 15.27,28.31 L 17.97,26.97 L 17.97,25.86 L 19.79,24.94 L 19.79,23.86 L 19.82,23.83 L 23.41,22.04 L 23.41,20.93 L 23.44,20.90 L 27.04,19.12 L 27.04,18.00 L 27.93,17.56 Z" fill="#5e5c5b" stroke="none" /><path d="M 16.19,14.57 L 16.13,14.57 L 15.27,15.01 L 15.27,16.10 L 15.33,16.10 L 16.19,15.65 Z" fill="#5e5c5b" stroke="none" /><path d="M 27.93,8.68 L 24.33,10.47 L 24.33,11.55 L 24.27,11.61 L 23.41,12.02 L 23.41,13.14 L 21.60,14.06 L 21.60,15.17 L 24.30,13.84 L 24.33,13.81 L 24.33,12.72 L 24.40,12.66 L 27.04,11.36 L 27.04,10.24 L 27.93,9.80 Z" fill="#5e5c5b" stroke="none" /><path d="M 15.27,19.44 L 14.41,19.85 L 14.41,29.84 L 14.47,29.84 L 15.27,29.42 Z" fill="#605e5e" stroke="none" /><path d="M 28.82,7.19 L 28.76,7.19 L 14.44,14.35 L 14.41,14.38 L 14.41,17.65 L 15.27,17.24 L 15.27,15.05 L 15.33,14.98 L 28.79,8.27 L 28.82,8.24 Z" fill="#605e5e" stroke="none" /><path d="M 10.85,29.17 L 10.85,30.25 L 14.35,32.00 L 14.41,32.00 L 14.41,30.95 L 14.38,30.92 Z" fill="#8e8b82" stroke="none" /><path d="M 13.55,26.12 L 13.55,29.42 L 14.35,29.84 L 14.41,29.84 L 14.41,26.53 L 13.61,26.12 Z" fill="#8e8b82" stroke="none" /><path d="M 1.78,24.65 L 1.78,25.70 L 1.81,25.73 L 4.42,27.04 L 4.49,27.04 L 4.49,25.99 L 4.45,25.96 L 1.84,24.65 Z" fill="#8e8b82" stroke="none" /><path d="M 13.55,20.55 L 13.55,25.00 L 14.41,25.42 L 14.41,20.96 Z" fill="#8e8b82" stroke="none" /><path d="M 13.55,16.13 L 13.55,18.35 L 14.41,18.77 L 14.41,16.54 L 13.61,16.13 Z" fill="#8e8b82" stroke="none" /><path d="M 13.55,29.42 L 13.55,30.54 L 14.41,30.95 L 14.41,29.84 Z" fill="#918e85" stroke="none" /><path d="M 4.49,25.99 L 4.49,27.07 L 10.78,30.22 L 10.85,30.22 L 10.85,29.17 L 10.82,29.14 Z" fill="#918e85" stroke="none" /><path d="M 13.55,25.00 L 13.55,26.12 L 14.41,26.53 L 14.41,25.42 L 13.61,25.00 Z" fill="#918e85" stroke="none" /><path d="M 0.00,23.76 L 0.00,24.81 L 1.78,25.70 L 1.78,24.62 L 0.06,23.76 Z" fill="#918e85" stroke="none" /><path d="M 13.55,18.35 L 13.55,20.55 L 14.35,20.96 L 14.41,20.96 L 14.41,18.77 L 13.61,18.35 Z" fill="#918e85" stroke="none" /><path d="M 13.55,15.01 L 13.55,16.13 L 14.41,16.54 L 14.41,15.43 Z" fill="#918e85" stroke="none" /><path d="M 6.30,23.57 L 5.41,23.13 L 5.41,24.17 L 5.34,24.21 L 3.66,23.35 L 3.59,23.35 L 3.59,24.40 L 3.56,24.43 L 2.67,23.98 L 2.67,25.10 L 3.59,25.54 L 3.59,24.49 L 3.63,24.46 L 5.41,25.35 L 5.41,24.30 L 5.44,24.27 L 6.30,24.68 Z" fill="#96918c" stroke="none" /><path d="M 0.89,23.09 L 0.89,24.21 L 1.72,24.62 L 1.78,24.62 L 1.78,23.54 Z" fill="#96918c" stroke="none" /><path d="M 7.22,22.93 L 7.22,24.05 L 8.11,24.49 L 8.11,25.61 L 9.00,26.05 L 9.03,26.05 L 9.03,25.00 L 9.10,24.97 L 12.56,26.72 L 12.63,26.72 L 12.63,25.70 L 12.66,25.67 L 13.49,26.08 L 13.55,26.08 L 13.55,24.97 L 9.99,23.19 L 9.92,23.19 L 9.92,24.24 L 9.89,24.27 Z" fill="#96918c" stroke="none" /><path d="M 2.67,18.45 L 2.67,19.56 L 4.45,20.45 L 4.49,20.45 L 4.49,19.40 L 4.55,19.37 L 7.22,20.71 L 7.22,19.59 L 4.55,18.26 L 4.49,18.26 L 4.49,19.28 L 4.45,19.31 L 2.74,18.45 Z" fill="#96918c" stroke="none" /><path d="M 0.89,10.91 L 0.89,13.11 L 0.92,13.14 L 1.78,13.55 L 1.78,12.50 L 1.81,12.47 L 5.41,14.28 L 5.41,15.30 L 5.34,15.33 L 2.67,14.00 L 2.67,15.11 L 2.70,15.14 L 7.19,17.37 L 7.22,17.40 L 7.22,18.51 L 10.78,20.29 L 10.85,20.29 L 10.85,19.24 L 10.88,19.21 L 13.55,20.55 L 13.55,18.32 L 9.99,16.54 L 9.92,16.54 L 9.92,17.56 L 9.89,17.59 L 9.03,17.18 L 9.03,18.23 L 8.97,18.26 L 7.22,17.37 L 7.22,16.32 L 7.25,16.29 L 8.05,16.70 L 8.11,16.70 L 8.11,15.62 L 5.41,14.25 L 5.41,13.20 L 5.44,13.17 L 8.08,14.50 L 8.11,14.50 L 8.11,13.46 L 8.14,13.42 L 9.86,14.28 L 9.92,14.28 L 9.92,13.20 L 9.89,13.17 L 5.44,10.94 L 5.41,10.94 L 5.41,11.99 L 5.38,12.02 L 2.74,10.69 L 2.67,10.69 L 2.67,11.74 L 2.64,11.77 L 0.95,10.91 Z" fill="#96918c" stroke="none" /><path d="M 9.92,27.61 L 9.92,28.72 L 13.49,30.50 L 13.55,30.50 L 13.55,28.31 L 13.52,28.28 L 12.69,27.86 L 12.63,27.86 L 12.63,28.91 L 12.60,28.95 Z" fill="#99938e" stroke="none" /><path d="M 9.03,24.94 L 9.03,26.05 L 10.78,26.94 L 10.85,26.94 L 10.85,25.83 Z" fill="#99938e" stroke="none" /><path d="M 12.63,23.41 L 12.63,24.52 L 13.49,24.97 L 13.55,24.97 L 13.55,23.86 Z" fill="#99938e" stroke="none" /><path d="M 9.03,22.74 L 9.03,23.86 L 9.86,24.27 L 9.92,24.27 L 9.92,23.16 L 9.10,22.74 Z" fill="#99938e" stroke="none" /><path d="M 0.89,21.98 L 0.89,23.09 L 1.72,23.51 L 1.78,23.57 L 1.78,24.65 L 2.61,25.07 L 2.67,25.07 L 2.67,24.05 L 2.74,24.02 L 3.59,24.46 L 3.59,25.54 L 3.63,25.57 L 5.34,26.43 L 5.41,26.43 L 5.41,25.42 L 5.44,25.38 L 7.16,26.24 L 7.22,26.24 L 7.22,25.19 L 7.25,25.16 L 8.05,25.57 L 8.11,25.57 L 8.11,24.46 L 7.22,24.02 L 7.22,22.93 L 5.47,22.04 L 5.41,22.04 L 5.41,23.06 L 5.38,23.09 L 3.66,22.23 L 3.59,22.23 L 3.59,23.28 L 3.56,23.32 Z" fill="#99938e" stroke="none" /><path d="M 6.30,18.04 L 6.30,19.15 L 7.22,19.63 L 7.22,20.71 L 7.25,20.74 L 8.97,21.60 L 9.03,21.60 L 9.03,20.58 L 9.10,20.55 L 13.55,22.78 L 13.55,20.55 L 13.52,20.52 L 10.91,19.21 L 10.85,19.21 L 10.85,20.26 L 10.82,20.29 Z" fill="#99938e" stroke="none" /><path d="M 0.89,17.56 L 0.89,18.67 L 2.61,19.53 L 2.67,19.53 L 2.67,18.48 L 2.70,18.45 L 4.42,19.31 L 4.49,19.37 L 4.49,20.45 L 5.34,20.90 L 5.41,20.90 L 5.41,19.79 L 4.55,19.37 L 4.49,19.31 L 4.49,18.23 L 2.70,17.34 L 2.67,17.34 L 2.67,18.39 L 2.64,18.42 L 0.95,17.56 Z" fill="#99938e" stroke="none" /><path d="M 7.22,16.29 L 7.22,17.40 L 9.00,18.29 L 9.03,18.29 L 9.03,17.24 L 9.07,17.21 L 9.92,17.62 L 9.92,16.57 L 9.96,16.54 L 13.49,18.32 L 13.55,18.32 L 13.55,16.10 L 12.66,15.65 L 12.63,15.65 L 12.63,16.70 L 12.60,16.73 L 9.99,15.43 L 9.92,15.43 L 9.92,16.48 L 9.89,16.51 L 8.14,15.62 L 8.11,15.62 L 8.11,16.67 L 8.08,16.70 L 7.28,16.29 Z" fill="#99938e" stroke="none" /><path d="M 8.11,13.39 L 8.11,14.50 L 8.97,14.95 L 9.03,14.95 L 9.03,13.84 Z" fill="#99938e" stroke="none" /><path d="M 0.89,13.11 L 0.89,15.33 L 3.53,16.67 L 3.59,16.67 L 3.59,15.55 L 2.74,15.14 L 2.67,15.08 L 2.67,14.06 L 2.70,14.03 L 5.38,15.36 L 5.41,15.36 L 5.41,14.31 L 5.44,14.28 L 7.22,15.17 L 7.22,14.06 L 5.47,13.17 L 5.41,13.17 L 5.41,14.22 L 5.38,14.25 L 1.84,12.47 L 1.78,12.47 L 1.78,13.49 L 1.75,13.52 Z" fill="#99938e" stroke="none" /><path d="M 0.89,9.80 L 0.89,10.91 L 2.61,11.77 L 2.67,11.77 L 2.67,10.72 L 2.70,10.69 L 5.34,12.02 L 5.41,12.02 L 5.41,10.94 L 5.38,10.91 L 1.81,9.13 L 1.78,9.13 L 1.78,10.18 L 1.75,10.21 L 0.95,9.80 Z" fill="#99938e" stroke="none" /><path d="M 5.41,25.35 L 5.41,26.47 L 9.86,28.69 L 9.92,28.69 L 9.92,27.67 L 9.96,27.64 L 12.56,28.95 L 12.63,28.95 L 12.63,27.90 L 12.66,27.86 L 13.55,28.31 L 13.55,26.08 L 12.66,25.64 L 12.63,25.64 L 12.63,26.69 L 12.60,26.72 L 10.91,25.86 L 10.85,25.86 L 10.85,26.91 L 10.82,26.94 L 7.28,25.16 L 7.22,25.16 L 7.22,26.21 L 7.19,26.24 Z" fill="#999693" stroke="none" /><path d="M 0.00,22.65 L 0.00,23.76 L 0.83,24.17 L 0.89,24.17 L 0.89,23.09 Z" fill="#999693" stroke="none" /><path d="M 0.89,18.67 L 0.89,21.98 L 3.53,23.32 L 3.59,23.32 L 3.59,22.27 L 3.63,22.23 L 5.41,23.13 L 5.41,22.08 L 5.44,22.04 L 8.97,23.83 L 9.03,23.83 L 9.03,22.78 L 9.07,22.74 L 12.60,24.52 L 12.63,24.52 L 12.63,23.48 L 12.66,23.44 L 13.49,23.86 L 13.55,23.86 L 13.55,22.78 L 13.52,22.74 L 9.07,20.52 L 9.03,20.52 L 9.03,21.57 L 9.00,21.60 L 5.47,19.82 L 5.41,19.82 L 5.41,20.87 L 5.38,20.90 L 0.95,18.67 Z" fill="#999693" stroke="none" /><path d="M 0.89,15.33 L 0.89,17.56 L 2.61,18.42 L 2.67,18.42 L 2.67,17.40 L 2.74,17.37 L 6.27,19.15 L 6.30,19.15 L 6.30,18.10 L 6.33,18.07 L 7.16,18.48 L 7.22,18.48 L 7.22,17.37 L 3.66,15.59 L 3.59,15.59 L 3.59,16.64 L 3.56,16.67 Z" fill="#999693" stroke="none" /><path d="M 7.22,14.06 L 7.22,15.17 L 7.25,15.20 L 9.86,16.51 L 9.92,16.51 L 9.92,15.46 L 9.96,15.43 L 12.60,16.76 L 12.63,16.76 L 12.63,15.71 L 12.66,15.68 L 13.49,16.10 L 13.55,16.10 L 13.55,15.01 L 13.52,14.98 L 9.96,13.20 L 9.92,13.20 L 9.92,14.25 L 9.89,14.28 L 9.10,13.87 L 9.03,13.87 L 9.03,14.92 L 9.00,14.95 Z" fill="#999693" stroke="none" /><path d="M 0.00,10.47 L 0.00,12.66 L 0.89,13.11 L 0.89,10.88 L 0.06,10.47 Z" fill="#999693" stroke="none" /><path d="M 0.89,8.68 L 0.89,9.80 L 1.72,10.21 L 1.78,10.21 L 1.78,9.13 Z" fill="#999693" stroke="none" /><path d="M 0.00,12.66 L 0.00,22.65 L 0.89,23.09 L 0.89,13.11 Z" fill="#9b9998" stroke="none" /><path d="M 0.00,7.19 L 0.00,10.47 L 0.83,10.88 L 0.89,10.88 L 0.89,8.75 L 0.95,8.72 L 14.35,15.43 L 14.41,15.43 L 14.41,14.38 L 14.38,14.35 L 0.06,7.19 Z" fill="#9b9998" stroke="none" /><path d="M 10.85,12.56 L 10.88,12.63 L 12.60,13.49 L 12.69,13.49 L 13.49,13.07 L 13.49,13.04 L 11.71,12.15 Z" fill="#dad6c9" stroke="none" /><path d="M 5.41,9.86 L 5.41,9.89 L 8.97,11.67 L 9.10,11.67 L 9.86,11.29 L 9.86,11.23 L 6.30,9.45 L 6.23,9.45 Z" fill="#dad6c9" stroke="none" /><path d="M 1.78,8.05 L 1.78,8.08 L 4.45,9.42 L 4.55,9.42 L 5.34,9.00 L 5.34,8.97 L 2.67,7.63 L 2.61,7.63 Z" fill="#dad6c9" stroke="none" /><path d="M 4.42,5.79 L 3.66,5.41 L 3.53,5.41 L 0.03,7.16 L 0.03,7.19 L 0.83,7.60 L 0.92,7.60 L 4.42,5.85 Z" fill="#dad6c9" stroke="none" /><path d="M 13.49,1.27 L 12.63,0.86 L 9.96,2.19 L 9.96,2.26 L 10.72,2.64 L 10.85,2.64 L 13.46,1.34 Z" fill="#dad6c9" stroke="none" /><path d="M 12.66,13.49 L 12.66,13.52 L 13.49,13.93 L 13.61,13.93 L 14.38,13.55 L 14.38,13.49 L 13.55,13.07 L 13.46,13.07 Z" fill="#dfdbce" stroke="none" /><path d="M 9.03,11.67 L 9.03,11.71 L 10.82,12.60 L 11.67,12.18 L 11.64,12.12 L 9.92,11.26 L 9.86,11.26 Z" fill="#dfdbce" stroke="none" /><path d="M 4.52,9.42 L 4.52,9.45 L 5.34,9.86 L 5.47,9.86 L 6.23,9.48 L 6.23,9.42 L 5.41,9.00 L 5.31,9.00 Z" fill="#dfdbce" stroke="none" /><path d="M 0.89,7.60 L 0.89,7.63 L 1.72,8.05 L 1.84,8.05 L 2.61,7.67 L 2.61,7.60 L 1.78,7.19 L 1.69,7.19 Z" fill="#dfdbce" stroke="none" /><path d="M 10.78,2.64 L 9.96,2.23 L 9.89,2.23 L 3.59,5.38 L 3.59,5.41 L 4.42,5.82 L 4.49,5.82 L 10.78,2.67 Z" fill="#dfdbce" stroke="none" /><path d="M 15.24,0.38 L 14.47,0.00 L 14.35,0.00 L 12.69,0.83 L 12.66,0.89 L 13.52,1.30 L 15.24,0.45 Z" fill="#dfdbce" stroke="none" /><path d="M 25.26,6.27 L 23.51,5.38 L 23.41,5.38 L 22.58,5.79 L 22.58,5.85 L 23.38,6.23 L 23.41,6.27 L 23.35,6.33 L 19.82,8.08 L 18.99,7.67 L 18.96,7.63 L 18.99,7.60 L 21.63,6.30 L 21.60,6.23 L 20.74,5.82 L 16.25,8.08 L 16.19,8.08 L 15.30,7.63 L 11.74,9.42 L 11.74,9.48 L 12.56,9.89 L 12.50,9.96 L 9.92,11.23 L 9.92,11.29 L 11.64,12.15 L 11.74,12.15 L 15.30,10.37 L 15.27,10.31 L 14.44,9.89 L 15.27,9.48 L 15.27,9.42 L 14.44,9.00 L 16.19,8.11 L 16.25,8.11 L 17.05,8.52 L 17.02,8.59 L 16.22,8.97 L 16.22,9.00 L 17.08,9.45 L 17.15,9.45 L 19.79,8.11 L 19.88,8.11 L 20.64,8.49 L 20.68,8.56 L 18.07,9.86 L 18.04,9.92 L 18.83,10.31 L 18.86,10.37 L 17.15,11.23 L 17.18,11.29 L 18.00,11.71 L 18.07,11.71 L 22.52,9.48 L 22.52,9.42 L 21.69,9.00 L 21.76,8.94 L 24.33,7.67 L 24.33,7.60 L 23.51,7.19 L 23.57,7.13 L 25.26,6.30 Z" fill="#e7dfd7" stroke="none" /><path d="M 11.67,5.82 L 10.82,5.38 L 10.75,5.38 L 9.89,5.82 L 9.00,5.38 L 8.94,5.38 L 8.11,5.79 L 8.08,5.85 L 8.87,6.23 L 8.91,6.30 L 5.41,8.05 L 5.38,8.11 L 6.17,8.49 L 6.20,8.56 L 5.38,8.97 L 5.38,9.00 L 6.23,9.45 L 6.30,9.45 L 9.86,7.67 L 9.86,7.60 L 9.03,7.19 L 9.10,7.13 L 11.67,5.85 Z" fill="#e7dfd7" stroke="none" /><path d="M 18.04,4.45 L 17.11,4.01 L 15.33,4.90 L 15.36,4.96 L 16.19,5.38 L 13.52,6.71 L 13.52,6.74 L 14.38,7.19 L 14.44,7.19 L 17.11,5.85 L 17.08,5.79 L 16.25,5.38 L 18.04,4.49 Z" fill="#e7dfd7" stroke="none" /><path d="M 12.63,1.75 L 12.56,1.75 L 11.71,2.19 L 11.71,2.23 L 12.50,2.61 L 12.53,2.64 L 12.50,2.70 L 10.82,3.53 L 10.82,3.59 L 11.64,4.01 L 11.58,4.07 L 10.78,4.45 L 10.78,4.49 L 11.67,4.93 L 12.60,4.49 L 12.60,4.45 L 11.80,4.07 L 11.74,4.01 L 13.49,3.12 L 13.49,3.09 L 12.66,2.67 L 12.69,2.61 L 13.49,2.23 L 13.49,2.19 Z" fill="#e7dfd7" stroke="none" /><path d="M 13.52,1.27 L 13.55,1.34 L 14.38,1.75 L 14.44,1.75 L 15.30,1.30 L 15.30,1.27 L 14.47,0.86 L 14.35,0.86 Z" fill="#e7dfd7" stroke="none" /><path d="M 17.11,10.34 L 17.11,10.37 L 18.00,10.82 L 18.93,10.37 L 18.93,10.34 L 18.04,9.89 Z" fill="#ebe3db" stroke="none" /><path d="M 6.30,9.42 L 6.30,9.48 L 7.13,9.89 L 7.22,9.89 L 8.05,9.48 L 8.05,9.42 L 7.22,9.00 L 7.13,9.00 Z" fill="#ebe3db" stroke="none" /><path d="M 17.11,8.52 L 16.29,8.11 L 16.16,8.11 L 14.44,8.97 L 14.44,9.03 L 15.27,9.45 L 14.44,9.86 L 14.44,9.92 L 15.27,10.34 L 15.20,10.40 L 11.74,12.12 L 11.71,12.18 L 13.49,13.07 L 14.41,12.63 L 14.41,12.60 L 13.61,12.21 L 13.55,12.15 L 16.22,10.82 L 16.22,10.78 L 15.43,10.40 L 15.36,10.34 L 17.08,9.48 L 17.08,9.42 L 16.25,9.00 L 16.32,8.94 L 17.11,8.56 Z" fill="#ebe3db" stroke="none" /><path d="M 16.19,7.16 L 15.36,6.74 L 15.27,6.74 L 14.41,7.19 L 13.55,6.74 L 13.46,6.74 L 11.71,7.63 L 11.71,7.67 L 12.50,8.05 L 12.53,8.08 L 12.50,8.14 L 8.08,10.34 L 8.08,10.37 L 9.86,11.26 L 9.92,11.26 L 12.60,9.92 L 12.56,9.86 L 11.77,9.48 L 11.74,9.45 L 11.77,9.42 L 16.19,7.22 Z" fill="#ebe3db" stroke="none" /><path d="M 9.00,7.16 L 9.03,7.22 L 9.86,7.63 L 9.92,7.63 L 10.75,7.22 L 10.75,7.16 L 9.92,6.74 L 9.83,6.74 Z" fill="#ebe3db" stroke="none" /><path d="M 26.18,6.71 L 25.26,6.27 L 23.48,7.16 L 23.51,7.22 L 24.33,7.63 L 21.66,8.97 L 21.66,9.00 L 22.52,9.45 L 22.58,9.45 L 26.15,7.67 L 26.15,7.60 L 25.32,7.19 L 25.38,7.13 L 26.18,6.74 Z" fill="#ebe3db" stroke="none" /><path d="M 8.97,6.27 L 8.05,5.82 L 6.27,6.71 L 6.27,6.74 L 7.19,7.19 L 8.97,6.30 Z" fill="#ebe3db" stroke="none" /><path d="M 6.23,5.79 L 5.41,5.38 L 5.31,5.38 L 1.75,7.16 L 1.75,7.19 L 3.50,8.08 L 3.59,8.08 L 4.42,7.67 L 4.42,7.60 L 3.63,7.22 L 3.59,7.19 L 3.66,7.13 L 6.23,5.85 Z" fill="#ebe3db" stroke="none" /><path d="M 14.44,5.34 L 14.44,5.41 L 15.27,5.82 L 15.36,5.82 L 16.19,5.41 L 16.19,5.34 L 15.36,4.93 L 15.27,4.93 Z" fill="#ebe3db" stroke="none" /><path d="M 23.44,5.34 L 21.73,4.49 L 21.60,4.49 L 18.99,5.79 L 18.96,5.85 L 19.79,6.27 L 19.91,6.27 L 20.71,5.85 L 20.80,5.85 L 21.60,6.27 L 21.53,6.33 L 18.96,7.60 L 18.96,7.67 L 19.79,8.08 L 19.72,8.14 L 18.04,8.97 L 18.04,9.00 L 18.89,9.45 L 18.96,9.45 L 20.74,8.56 L 20.74,8.52 L 19.94,8.14 L 19.88,8.08 L 23.44,6.30 L 23.41,6.23 L 22.58,5.82 L 23.41,5.41 Z" fill="#ebe3db" stroke="none" /><path d="M 19.82,3.53 L 18.99,3.12 L 18.89,3.12 L 17.18,3.98 L 17.15,4.04 L 17.94,4.42 L 17.97,4.49 L 16.25,5.34 L 16.25,5.41 L 17.08,5.82 L 17.18,5.82 L 18.89,4.96 L 18.93,4.90 L 18.13,4.52 L 18.10,4.45 L 19.82,3.59 Z" fill="#ebe3db" stroke="none" /><path d="M 16.19,1.72 L 15.36,1.30 L 15.27,1.30 L 14.41,1.75 L 13.55,1.30 L 13.46,1.30 L 12.63,1.72 L 12.63,1.78 L 13.42,2.16 L 13.46,2.19 L 13.39,2.26 L 12.63,2.64 L 12.56,2.64 L 11.67,2.19 L 9.89,3.09 L 9.92,3.15 L 10.75,3.56 L 8.97,4.45 L 8.97,4.49 L 9.77,4.87 L 9.83,4.93 L 9.00,5.34 L 9.00,5.41 L 9.83,5.82 L 9.92,5.82 L 10.78,5.38 L 11.64,5.82 L 11.74,5.82 L 13.46,4.96 L 13.49,4.90 L 12.69,4.52 L 12.66,4.45 L 14.38,3.59 L 14.38,3.53 L 13.55,3.12 L 13.61,3.05 L 16.19,1.78 Z" fill="#ebe3db" stroke="none" /><path d="M 18.89,9.42 L 18.07,9.00 L 17.97,9.00 L 15.36,10.31 L 15.33,10.37 L 16.13,10.75 L 16.16,10.82 L 13.55,12.12 L 13.52,12.18 L 14.31,12.56 L 14.35,12.63 L 13.52,13.04 L 13.52,13.07 L 14.38,13.52 L 14.44,13.52 L 18.00,11.74 L 18.00,11.67 L 17.18,11.26 L 17.24,11.20 L 17.97,10.85 L 18.00,10.78 L 17.21,10.40 L 17.18,10.34 L 18.89,9.48 Z" fill="#ebe7e3" stroke="none" /><path d="M 25.29,7.16 L 25.32,7.22 L 26.15,7.63 L 26.21,7.63 L 27.07,7.19 L 27.07,7.16 L 26.24,6.74 L 26.12,6.74 Z" fill="#ebe7e3" stroke="none" /><path d="M 23.48,5.34 L 23.51,5.41 L 25.22,6.27 L 25.32,6.27 L 26.12,5.85 L 26.12,5.82 L 24.33,4.93 Z" fill="#ebe7e3" stroke="none" /><path d="M 21.66,4.45 L 19.88,3.56 L 19.82,3.56 L 18.04,4.45 L 18.04,4.49 L 18.83,4.87 L 18.89,4.93 L 15.33,6.71 L 15.36,6.78 L 16.19,7.19 L 15.36,7.60 L 15.33,7.67 L 16.16,8.08 L 16.29,8.08 L 19.85,6.30 L 19.85,6.27 L 19.05,5.88 L 18.99,5.82 L 21.66,4.49 Z" fill="#ebe7e3" stroke="none" /><path d="M 10.75,3.53 L 9.92,3.12 L 9.83,3.12 L 5.38,5.34 L 5.41,5.41 L 6.23,5.82 L 3.56,7.16 L 3.59,7.22 L 4.42,7.63 L 3.59,8.05 L 3.56,8.11 L 5.34,9.00 L 6.27,8.56 L 6.27,8.52 L 5.47,8.14 L 5.41,8.08 L 7.16,7.19 L 7.16,7.16 L 6.36,6.78 L 6.33,6.71 L 9.83,4.96 L 9.86,4.90 L 9.07,4.52 L 9.03,4.45 L 10.75,3.59 Z" fill="#ebe7e3" stroke="none" /><path d="M 18.93,3.09 L 16.25,1.75 L 16.19,1.75 L 13.52,3.09 L 13.55,3.15 L 14.38,3.56 L 12.60,4.45 L 12.60,4.49 L 13.39,4.87 L 13.46,4.93 L 9.89,6.71 L 9.92,6.78 L 10.75,7.19 L 7.19,8.97 L 7.22,9.03 L 8.05,9.45 L 7.22,9.86 L 7.19,9.92 L 8.02,10.34 L 8.14,10.34 L 12.60,8.11 L 12.60,8.08 L 11.80,7.70 L 11.74,7.63 L 15.30,5.85 L 15.27,5.79 L 14.47,5.41 L 14.44,5.38 L 14.47,5.34 L 18.89,3.15 Z" fill="#ebe7e3" stroke="none" /><path d="M 14.41,0.83 L 14.41,0.86 L 15.30,1.30 L 16.16,0.89 L 16.13,0.83 L 15.30,0.41 L 15.24,0.41 Z" fill="#ebe7e3" stroke="none" /><path d="M 28.79,7.16 L 26.18,5.85 L 26.08,5.85 L 25.32,6.23 L 25.29,6.30 L 26.97,7.13 L 27.04,7.19 L 27.01,7.22 L 13.55,13.93 L 13.55,13.96 L 14.38,14.38 L 14.44,14.38 L 28.76,7.22 Z" fill="#efecea" stroke="none" /><path d="M 15.33,1.27 L 15.36,1.34 L 23.44,5.38 L 24.30,4.96 L 24.27,4.90 L 16.19,0.86 Z" fill="#efecea" stroke="none" /></svg>