<svg height="32" width="32" viewBox="0 0 32 32"><defs /><path d="M 14.27,26.60 L 13.18,27.14 L 13.18,28.50 L 14.27,27.96 Z" fill="#3f1f04" stroke="none" /><path d="M 10.96,23.10 L 10.89,23.10 L 9.88,23.60 L 9.88,24.96 L 9.95,24.96 L 10.96,24.46 Z" fill="#3f1f04" stroke="none" /><path d="M 14.19,22.55 L 13.18,23.06 L 13.18,24.42 L 13.26,24.42 L 14.23,23.91 L 14.27,23.95 L 14.27,25.23 L 14.35,25.23 L 15.40,24.69 L 15.40,23.33 L 14.31,23.87 L 14.27,23.83 L 14.27,22.55 Z" fill="#3f1f04" stroke="none" /><path d="M 20.92,22.16 L 20.88,22.16 L 20.88,23.25 L 20.80,23.33 L 18.70,24.38 L 18.70,25.74 L 20.88,24.65 L 20.88,23.56 L 20.92,23.52 Z" fill="#3f1f04" stroke="none" /><path d="M 9.88,19.56 L 8.75,20.10 L 8.75,21.46 L 7.66,22.01 L 7.66,23.37 L 9.88,22.28 Z" fill="#3f1f04" stroke="none" /><path d="M 10.96,17.65 L 10.96,19.01 L 11.00,19.01 L 11.00,17.65 Z" fill="#3f1f04" stroke="none" /><path d="M 18.70,17.61 L 16.49,18.70 L 16.49,20.06 L 16.56,20.06 L 18.70,18.97 Z" fill="#3f1f04" stroke="none" /><path d="M 23.13,16.99 L 22.05,17.54 L 22.05,18.86 L 21.97,18.94 L 20.96,19.44 L 20.92,19.40 L 20.92,18.12 L 20.88,18.12 L 20.88,19.48 L 20.92,19.52 L 20.92,20.80 L 21.00,20.80 L 22.05,20.26 L 22.05,18.94 L 22.12,18.86 L 23.13,18.35 Z" fill="#3f1f04" stroke="none" /><path d="M 8.75,13.41 L 8.67,13.41 L 7.66,13.92 L 7.66,15.24 L 8.75,14.70 Z" fill="#3f1f04" stroke="none" /><path d="M 16.49,13.30 L 15.40,13.84 L 15.40,15.16 L 15.32,15.24 L 13.18,16.29 L 13.18,17.65 L 12.09,18.20 L 12.09,19.56 L 13.18,19.01 L 13.18,17.69 L 13.22,17.65 L 16.49,16.02 Z" fill="#3f1f04" stroke="none" /><path d="M 22.01,9.41 L 20.92,9.95 L 20.92,12.68 L 23.10,11.59 L 23.13,11.63 L 23.13,14.27 L 23.21,14.27 L 24.18,13.76 L 24.18,11.04 L 23.17,11.55 L 23.13,11.51 L 23.13,10.23 L 22.09,10.73 L 22.05,10.69 L 22.05,9.41 Z" fill="#3f1f04" stroke="none" /><path d="M 17.61,8.67 L 14.31,10.30 L 14.27,10.34 L 14.27,11.70 L 17.57,10.07 L 17.61,10.03 Z" fill="#3f1f04" stroke="none" /><path d="M 22.05,6.77 L 21.97,6.77 L 20.92,7.31 L 20.88,7.27 L 20.88,7.04 L 20.84,7.04 L 19.83,7.54 L 19.79,7.58 L 19.79,8.94 L 20.88,8.40 L 20.92,8.44 L 20.92,8.59 L 21.00,8.59 L 22.01,8.09 L 22.05,8.05 Z" fill="#3f1f04" stroke="none" /><path d="M 13.18,28.50 L 12.09,29.04 L 12.09,30.33 L 12.17,30.33 L 13.18,29.82 Z" fill="#442207" stroke="none" /><path d="M 9.88,25.00 L 9.80,25.00 L 8.75,25.55 L 8.75,26.87 L 8.67,26.95 L 7.74,27.41 L 7.66,27.37 L 7.66,26.09 L 6.61,26.60 L 6.61,27.96 L 6.69,27.96 L 7.58,27.49 L 7.66,27.53 L 7.66,30.13 L 7.74,30.13 L 8.71,29.63 L 8.75,29.67 L 8.75,30.91 L 11.00,29.78 L 11.00,28.50 L 10.93,28.50 L 8.79,29.59 L 8.75,29.55 L 8.75,26.95 L 8.83,26.87 L 9.88,26.36 Z" fill="#442207" stroke="none" /><path d="M 20.88,24.65 L 19.79,25.20 L 19.79,26.48 L 19.87,26.48 L 20.88,25.97 Z" fill="#442207" stroke="none" /><path d="M 18.70,24.38 L 17.61,24.92 L 17.61,26.25 L 17.54,26.32 L 15.44,27.37 L 15.40,27.33 L 15.40,26.05 L 15.32,26.05 L 14.31,26.56 L 14.27,26.52 L 14.27,25.27 L 14.19,25.27 L 13.18,25.78 L 13.18,27.14 L 14.23,26.63 L 14.27,26.67 L 14.27,27.96 L 15.36,27.41 L 15.40,27.45 L 15.40,28.70 L 15.44,28.70 L 17.61,27.61 L 17.61,26.32 L 17.69,26.25 L 18.70,25.74 Z" fill="#442207" stroke="none" /><path d="M 13.18,23.10 L 13.10,23.10 L 12.09,23.60 L 12.09,24.96 L 12.17,24.96 L 13.18,24.46 Z" fill="#442207" stroke="none" /><path d="M 10.96,23.06 L 10.96,24.42 L 11.00,24.42 L 11.00,23.06 Z" fill="#442207" stroke="none" /><path d="M 20.88,20.84 L 20.92,23.52 L 22.01,22.98 L 22.05,23.02 L 22.05,24.26 L 22.09,24.26 L 24.18,23.21 L 24.18,21.89 L 22.09,22.94 L 22.05,22.90 L 22.05,21.62 L 21.97,21.62 L 20.96,22.12 L 20.92,22.09 L 20.92,20.84 Z" fill="#442207" stroke="none" /><path d="M 7.66,20.69 L 7.58,20.69 L 6.61,21.19 L 6.61,23.87 L 6.69,23.87 L 7.66,23.37 Z" fill="#442207" stroke="none" /><path d="M 16.49,20.10 L 16.41,20.10 L 15.40,20.61 L 15.40,21.93 L 15.32,22.01 L 14.27,22.51 L 14.27,23.87 L 14.35,23.87 L 15.40,23.33 L 15.40,22.01 L 15.48,21.93 L 16.49,21.42 Z" fill="#442207" stroke="none" /><path d="M 10.96,19.01 L 9.88,19.56 L 9.88,20.92 L 10.96,20.37 Z" fill="#442207" stroke="none" /><path d="M 19.75,18.43 L 18.70,18.97 L 18.70,20.30 L 18.78,20.30 L 19.75,19.79 L 19.79,19.83 L 19.79,21.11 L 19.87,21.11 L 20.88,20.61 L 20.88,19.25 L 20.80,19.25 L 19.83,19.75 L 19.79,19.71 L 19.79,18.43 Z" fill="#442207" stroke="none" /><path d="M 13.18,16.33 L 13.10,16.33 L 12.09,16.84 L 12.09,18.20 L 12.17,18.20 L 13.18,17.69 Z" fill="#442207" stroke="none" /><path d="M 24.18,15.13 L 24.11,15.13 L 23.13,15.63 L 23.13,18.35 L 24.18,17.85 Z" fill="#442207" stroke="none" /><path d="M 19.79,14.39 L 19.71,14.39 L 18.70,14.89 L 18.70,16.21 L 18.62,16.29 L 17.69,16.76 L 17.61,16.72 L 17.61,14.11 L 17.54,14.11 L 16.52,14.62 L 16.49,14.66 L 16.49,17.34 L 16.56,17.34 L 17.57,16.84 L 17.61,16.87 L 17.61,18.16 L 18.66,17.65 L 18.70,17.61 L 18.70,16.29 L 18.78,16.21 L 19.79,15.71 Z" fill="#442207" stroke="none" /><path d="M 9.84,12.83 L 8.75,13.38 L 8.75,14.66 L 8.67,14.74 L 7.66,15.24 L 7.66,16.60 L 8.71,16.10 L 8.75,16.14 L 8.75,17.42 L 9.84,16.87 L 9.88,16.91 L 9.88,18.20 L 9.91,18.20 L 11.00,17.65 L 11.00,16.29 L 10.96,16.25 L 10.96,14.97 L 10.89,14.97 L 8.83,16.02 L 8.75,15.98 L 8.75,14.74 L 8.83,14.66 L 9.88,14.15 L 9.88,12.83 Z" fill="#442207" stroke="none" /><path d="M 23.13,11.59 L 23.06,11.59 L 22.05,12.09 L 22.05,13.45 L 22.12,13.45 L 23.13,12.95 Z" fill="#442207" stroke="none" /><path d="M 20.88,11.35 L 20.88,12.68 L 20.92,12.68 L 20.92,11.35 Z" fill="#442207" stroke="none" /><path d="M 14.27,10.34 L 12.09,11.43 L 12.09,12.79 L 14.27,11.70 Z" fill="#442207" stroke="none" /><path d="M 19.79,7.58 L 17.61,8.67 L 17.61,9.99 L 17.54,10.07 L 16.49,10.58 L 16.49,11.94 L 15.40,12.48 L 15.40,13.80 L 15.32,13.88 L 14.27,14.39 L 14.27,15.75 L 14.35,15.75 L 15.40,15.20 L 15.40,13.88 L 15.48,13.80 L 16.49,13.30 L 16.49,11.98 L 17.61,11.39 L 17.61,10.07 L 17.69,9.99 L 19.79,8.94 Z" fill="#442207" stroke="none" /><path d="M 23.13,6.22 L 23.06,6.22 L 22.05,6.73 L 22.05,8.01 L 21.97,8.09 L 20.96,8.59 L 20.92,8.55 L 20.92,7.31 L 20.88,7.31 L 20.92,9.95 L 21.00,9.95 L 22.05,9.41 L 22.05,8.09 L 22.12,8.01 L 23.13,7.50 Z" fill="#442207" stroke="none" /><path d="M 5.52,28.81 L 5.52,30.17 L 6.53,30.68 L 6.61,30.68 L 6.61,29.32 L 5.60,28.81 Z" fill="#663207" stroke="none" /><path d="M 11.00,27.14 L 11.00,28.50 L 12.09,29.04 L 12.09,27.68 Z" fill="#663207" stroke="none" /><path d="M 0.00,26.05 L 0.00,27.41 L 1.01,27.92 L 1.09,27.92 L 1.09,26.56 L 0.08,26.05 Z" fill="#663207" stroke="none" /><path d="M 0.00,21.97 L 0.00,23.33 L 1.01,23.83 L 1.09,23.91 L 1.09,25.23 L 2.10,25.74 L 2.18,25.74 L 2.18,24.42 L 1.17,23.91 L 1.09,23.83 L 1.09,22.51 Z" fill="#663207" stroke="none" /><path d="M 3.30,20.92 L 3.30,22.28 L 5.52,23.37 L 5.52,22.01 Z" fill="#663207" stroke="none" /><path d="M 0.00,15.20 L 0.00,16.56 L 3.30,18.20 L 3.30,15.48 L 2.18,14.93 L 2.18,16.21 L 2.10,16.25 Z" fill="#663207" stroke="none" /><path d="M 11.00,10.89 L 11.00,12.25 L 12.09,12.79 L 12.09,11.43 Z" fill="#663207" stroke="none" /><path d="M 5.48,8.13 L 5.48,9.49 L 5.52,9.53 L 8.71,11.12 L 8.79,11.12 L 8.79,9.76 Z" fill="#663207" stroke="none" /><path d="M 4.39,11.16 L 4.39,11.24 L 7.58,12.83 L 7.74,12.83 L 8.75,12.33 L 8.71,12.25 L 5.52,10.65 L 5.40,10.65 Z" fill="#9d4d0b" stroke="none" /><path d="M 20.96,6.18 L 21.00,6.26 L 22.01,6.77 L 23.13,6.22 L 23.13,6.18 L 22.12,5.68 L 21.97,5.68 Z" fill="#9d4d0b" stroke="none" /><path d="M 8.79,6.03 L 8.79,6.07 L 9.88,6.61 L 11.00,6.07 L 13.14,7.15 L 13.22,7.15 L 14.27,6.61 L 15.40,7.15 L 16.49,6.61 L 16.49,6.57 L 15.48,6.07 L 15.32,6.07 L 14.35,6.57 L 14.23,6.57 L 11.00,4.94 Z" fill="#9d4d0b" stroke="none" /><path d="M 17.65,3.81 L 17.69,3.89 L 18.70,4.39 L 19.79,3.85 L 19.79,3.81 L 18.78,3.30 L 18.66,3.30 Z" fill="#9d4d0b" stroke="none" /><path d="M 11.00,2.72 L 11.00,2.76 L 13.18,3.85 L 14.31,3.30 L 14.31,3.27 L 12.13,2.18 L 12.05,2.18 Z" fill="#9d4d0b" stroke="none" /><path d="M 13.18,27.14 L 12.09,27.68 L 12.09,29.04 L 13.18,28.50 Z" fill="#46260c" stroke="none" /><path d="M 10.96,27.14 L 10.96,28.50 L 11.00,28.50 L 11.00,27.14 Z" fill="#46260c" stroke="none" /><path d="M 22.05,22.98 L 21.97,22.98 L 20.88,23.52 L 20.88,24.85 L 22.05,24.26 Z" fill="#46260c" stroke="none" /><path d="M 19.79,22.51 L 19.71,22.51 L 18.70,23.02 L 18.70,24.38 L 19.79,23.83 Z" fill="#46260c" stroke="none" /><path d="M 10.96,20.37 L 9.88,20.92 L 9.88,23.60 L 9.95,23.60 L 10.96,23.10 Z" fill="#46260c" stroke="none" /><path d="M 18.70,20.34 L 18.62,20.34 L 17.61,20.84 L 17.61,22.20 L 16.49,22.78 L 16.49,24.15 L 17.61,23.60 L 17.61,22.24 L 18.70,21.70 Z" fill="#46260c" stroke="none" /><path d="M 23.10,18.35 L 22.05,18.90 L 22.05,20.26 L 23.10,19.75 L 23.13,19.79 L 23.13,21.04 L 23.21,21.04 L 24.18,20.53 L 24.18,19.21 L 24.11,19.21 L 23.17,19.67 L 23.13,19.64 L 23.13,18.35 Z" fill="#46260c" stroke="none" /><path d="M 20.88,16.52 L 19.79,17.07 L 19.79,18.43 L 20.88,17.89 Z" fill="#46260c" stroke="none" /><path d="M 18.70,14.93 L 18.62,14.93 L 17.61,15.44 L 17.61,16.80 L 18.70,16.25 Z" fill="#46260c" stroke="none" /><path d="M 10.96,13.61 L 10.89,13.61 L 9.88,14.11 L 9.88,15.48 L 9.95,15.48 L 10.96,14.97 Z" fill="#46260c" stroke="none" /><path d="M 14.27,13.06 L 13.18,13.61 L 13.18,14.93 L 13.26,14.93 L 14.27,14.43 Z" fill="#46260c" stroke="none" /><path d="M 20.88,12.48 L 20.80,12.48 L 19.79,12.99 L 19.79,14.35 L 19.87,14.35 L 20.88,13.84 Z" fill="#46260c" stroke="none" /><path d="M 16.49,7.89 L 16.41,7.89 L 12.13,10.03 L 12.09,10.07 L 12.09,11.43 L 16.49,9.25 Z" fill="#46260c" stroke="none" /><path d="M 19.79,6.22 L 18.70,6.77 L 18.70,8.13 L 19.79,7.58 Z" fill="#46260c" stroke="none" /><path d="M 11.00,28.50 L 11.00,29.82 L 12.01,30.33 L 12.09,30.33 L 12.09,29.04 Z" fill="#6e380c" stroke="none" /><path d="M 0.00,24.69 L 0.00,26.05 L 1.09,26.60 L 1.09,27.96 L 2.18,28.50 L 2.18,29.78 L 2.22,29.82 L 4.32,30.87 L 4.39,30.87 L 4.39,29.67 L 4.43,29.63 L 5.44,30.13 L 5.52,30.13 L 5.52,28.77 L 4.43,28.23 L 4.39,28.23 L 4.39,29.51 L 4.35,29.55 L 2.22,28.50 L 2.18,28.46 L 2.18,27.10 L 1.09,26.56 L 1.09,25.20 L 0.08,24.69 Z" fill="#6e380c" stroke="none" /><path d="M 5.52,23.37 L 5.52,24.73 L 6.61,25.27 L 6.61,23.91 Z" fill="#6e380c" stroke="none" /><path d="M 11.00,23.10 L 11.00,24.46 L 12.01,24.96 L 12.09,24.96 L 12.09,23.60 L 11.08,23.10 Z" fill="#6e380c" stroke="none" /><path d="M 2.22,21.70 L 2.18,21.70 L 2.18,22.98 L 2.14,23.02 L 1.09,22.51 L 1.09,23.87 L 2.14,24.42 L 2.18,24.42 L 2.18,23.13 L 2.22,23.10 L 3.23,23.60 L 3.30,23.60 L 3.30,22.24 Z" fill="#6e380c" stroke="none" /><path d="M 3.30,16.87 L 3.30,19.56 L 4.32,20.06 L 4.39,20.14 L 4.39,21.46 L 5.44,22.01 L 5.52,22.01 L 5.52,20.72 L 5.56,20.69 L 6.53,21.19 L 6.61,21.19 L 6.61,19.83 L 5.60,19.32 L 5.52,19.32 L 5.52,20.61 L 5.48,20.65 L 4.47,20.14 L 4.39,20.06 L 4.39,17.38 L 3.38,16.87 Z" fill="#6e380c" stroke="none" /><path d="M 4.39,13.38 L 3.30,12.83 L 3.30,14.08 L 3.27,14.11 L 2.18,13.57 L 2.18,14.85 L 2.14,14.89 L 1.09,14.39 L 1.09,15.75 L 2.18,16.29 L 2.18,15.01 L 2.26,14.97 L 3.23,15.48 L 3.30,15.48 L 3.30,14.19 L 3.34,14.15 L 4.32,14.66 L 4.39,14.66 Z" fill="#6e380c" stroke="none" /><path d="M 7.70,10.61 L 7.70,10.65 L 8.71,11.16 L 8.83,11.16 L 11.00,12.25 L 11.00,10.89 L 8.87,9.80 L 8.79,9.80 L 8.79,11.08 L 8.75,11.12 L 7.78,10.61 Z" fill="#6e380c" stroke="none" /><path d="M 3.30,7.04 L 3.30,8.40 L 5.48,9.49 L 5.48,8.13 Z" fill="#6e380c" stroke="none" /><path d="M 7.66,28.81 L 7.58,28.81 L 6.61,29.32 L 6.61,31.96 L 6.69,31.96 L 8.75,30.91 L 8.75,29.63 L 8.67,29.63 L 7.70,30.13 L 7.66,30.09 Z" fill="#4c290d" stroke="none" /><path d="M 14.27,23.91 L 14.19,23.91 L 13.18,24.42 L 13.18,25.78 L 13.26,25.78 L 14.27,25.27 Z" fill="#4c290d" stroke="none" /><path d="M 9.88,23.64 L 9.80,23.64 L 7.74,24.69 L 7.66,24.65 L 7.66,23.37 L 6.61,23.87 L 6.61,26.60 L 6.69,26.60 L 7.62,26.13 L 7.66,26.17 L 7.66,27.45 L 8.75,26.91 L 8.75,25.58 L 8.83,25.51 L 9.88,25.00 Z" fill="#4c290d" stroke="none" /><path d="M 10.96,20.37 L 10.96,21.70 L 11.00,21.70 L 11.00,20.37 Z" fill="#4c290d" stroke="none" /><path d="M 24.18,20.53 L 22.09,21.58 L 22.05,21.54 L 22.05,20.26 L 20.96,20.80 L 20.92,20.76 L 20.92,19.48 L 20.88,19.48 L 20.88,20.57 L 20.84,20.61 L 17.65,22.20 L 17.61,22.16 L 17.61,20.88 L 17.54,20.88 L 16.52,21.39 L 16.49,21.42 L 16.49,22.75 L 16.41,22.82 L 15.40,23.33 L 15.40,26.01 L 15.48,26.01 L 18.66,24.42 L 18.70,24.38 L 18.70,23.06 L 20.84,21.97 L 20.92,22.01 L 20.92,22.16 L 20.96,22.16 L 22.01,21.62 L 22.05,21.66 L 22.05,22.94 L 22.12,22.94 L 24.15,21.93 L 24.18,21.89 Z" fill="#4c290d" stroke="none" /><path d="M 16.49,17.38 L 16.41,17.38 L 13.18,19.01 L 13.18,20.34 L 13.10,20.41 L 12.09,20.92 L 12.09,22.28 L 13.14,21.77 L 13.18,21.81 L 13.18,23.06 L 13.26,23.06 L 15.40,21.97 L 15.40,20.65 L 16.49,20.10 Z" fill="#4c290d" stroke="none" /><path d="M 7.62,15.24 L 6.61,15.75 L 6.61,21.19 L 7.62,20.69 L 7.66,20.72 L 7.66,22.01 L 7.74,22.01 L 8.75,21.50 L 8.75,20.14 L 9.88,19.56 L 9.88,16.87 L 9.80,16.87 L 7.70,17.92 L 7.66,17.89 L 7.66,15.24 Z" fill="#4c290d" stroke="none" /><path d="M 9.88,14.15 L 9.80,14.15 L 8.75,14.70 L 8.75,16.06 L 9.88,15.51 Z" fill="#4c290d" stroke="none" /><path d="M 13.18,13.61 L 12.09,14.15 L 12.09,15.48 L 12.17,15.48 L 13.18,14.97 Z" fill="#4c290d" stroke="none" /><path d="M 10.96,13.57 L 10.96,14.93 L 11.00,14.93 L 11.00,13.57 Z" fill="#4c290d" stroke="none" /><path d="M 23.13,14.31 L 23.06,14.31 L 22.09,14.81 L 22.05,14.78 L 22.05,13.49 L 21.97,13.49 L 20.92,14.04 L 20.92,15.13 L 19.79,15.71 L 19.79,17.03 L 19.71,17.11 L 18.70,17.61 L 18.70,18.97 L 19.79,18.43 L 19.79,17.11 L 19.87,17.03 L 20.80,16.56 L 20.88,16.60 L 20.88,16.76 L 20.92,16.80 L 20.92,18.08 L 21.00,18.08 L 23.13,16.99 Z" fill="#4c290d" stroke="none" /><path d="M 20.92,8.63 L 20.88,8.63 L 20.88,9.72 L 20.80,9.80 L 18.74,10.81 L 18.70,10.85 L 18.70,12.17 L 17.61,12.71 L 17.61,15.44 L 17.69,15.44 L 19.79,14.39 L 19.79,13.03 L 20.88,12.48 L 20.88,10.03 L 20.92,9.99 Z" fill="#4c290d" stroke="none" /><path d="M 24.18,7.00 L 24.11,7.00 L 22.05,8.05 L 22.05,9.41 L 23.06,8.90 L 23.13,8.94 L 23.13,11.55 L 23.21,11.55 L 24.18,11.04 Z" fill="#4c290d" stroke="none" /><path d="M 18.70,6.77 L 16.49,7.85 L 16.49,9.22 L 16.56,9.22 L 18.70,8.13 Z" fill="#4c290d" stroke="none" /><path d="M 20.88,5.68 L 19.79,6.22 L 19.79,7.58 L 20.88,7.04 Z" fill="#4c290d" stroke="none" /><path d="M 14.27,27.96 L 13.18,28.50 L 13.18,29.78 L 13.26,29.78 L 14.27,29.28 Z" fill="#502b0e" stroke="none" /><path d="M 7.66,27.45 L 6.61,27.96 L 6.61,29.32 L 7.66,28.81 Z" fill="#502b0e" stroke="none" /><path d="M 13.18,25.82 L 13.10,25.82 L 12.09,26.32 L 12.09,27.68 L 13.18,27.14 Z" fill="#502b0e" stroke="none" /><path d="M 11.00,25.78 L 9.88,26.32 L 9.88,27.65 L 9.80,27.72 L 8.75,28.23 L 8.75,29.59 L 8.83,29.59 L 10.96,28.50 Z" fill="#502b0e" stroke="none" /><path d="M 17.57,24.92 L 16.49,25.47 L 16.49,26.83 L 16.56,26.83 L 17.57,26.32 L 17.61,26.36 L 17.61,27.57 L 17.69,27.57 L 18.70,27.06 L 18.70,25.74 L 17.65,26.25 L 17.61,26.21 L 17.61,24.92 Z" fill="#502b0e" stroke="none" /><path d="M 9.88,22.28 L 9.80,22.28 L 7.66,23.37 L 7.66,24.73 L 9.88,23.64 Z" fill="#502b0e" stroke="none" /><path d="M 20.88,21.97 L 20.80,21.97 L 19.79,22.47 L 19.79,23.83 L 20.88,23.29 Z" fill="#502b0e" stroke="none" /><path d="M 10.96,19.01 L 10.96,20.37 L 11.00,20.37 L 11.00,19.01 Z" fill="#502b0e" stroke="none" /><path d="M 24.18,17.85 L 24.11,17.85 L 23.13,18.35 L 23.13,19.71 L 24.18,19.21 Z" fill="#502b0e" stroke="none" /><path d="M 14.27,17.15 L 14.19,17.15 L 13.18,17.65 L 13.18,18.97 L 13.10,19.05 L 12.09,19.56 L 12.09,20.92 L 13.18,20.37 L 13.18,19.05 L 13.26,18.97 L 14.27,18.47 Z" fill="#502b0e" stroke="none" /><path d="M 17.61,16.80 L 16.49,17.34 L 16.49,18.70 L 16.56,18.70 L 17.61,18.16 Z" fill="#502b0e" stroke="none" /><path d="M 20.92,16.76 L 20.88,16.76 L 20.88,17.85 L 20.80,17.92 L 19.79,18.43 L 19.79,19.75 L 19.87,19.75 L 20.84,19.25 L 20.92,19.29 L 20.92,19.44 L 21.00,19.44 L 22.05,18.90 L 22.05,17.54 L 20.96,18.08 L 20.92,18.04 Z" fill="#502b0e" stroke="none" /><path d="M 10.96,14.93 L 10.96,16.29 L 11.00,16.29 L 11.00,14.93 Z" fill="#502b0e" stroke="none" /><path d="M 14.27,14.43 L 14.19,14.43 L 12.09,15.48 L 12.09,16.84 L 12.17,16.84 L 14.27,15.79 Z" fill="#502b0e" stroke="none" /><path d="M 20.88,13.84 L 20.80,13.84 L 19.79,14.35 L 19.79,15.67 L 19.71,15.75 L 18.70,16.25 L 18.70,17.61 L 19.79,17.07 L 19.79,15.75 L 19.87,15.67 L 20.80,15.20 L 20.88,15.24 L 20.88,15.40 L 20.92,15.40 L 20.92,14.04 L 20.88,14.00 Z" fill="#502b0e" stroke="none" /><path d="M 24.18,13.76 L 23.13,14.27 L 23.13,15.63 L 24.18,15.13 Z" fill="#502b0e" stroke="none" /><path d="M 10.96,12.29 L 9.88,12.83 L 9.88,14.11 L 9.95,14.11 L 10.96,13.61 Z" fill="#502b0e" stroke="none" /><path d="M 19.79,11.66 L 19.71,11.66 L 18.74,12.17 L 18.70,12.13 L 18.70,10.85 L 18.66,10.85 L 16.49,11.94 L 16.49,14.66 L 17.61,14.11 L 17.61,12.75 L 18.66,12.21 L 18.70,12.25 L 18.70,13.53 L 18.78,13.53 L 19.79,13.03 Z" fill="#502b0e" stroke="none" /><path d="M 20.88,9.99 L 20.88,11.35 L 20.92,11.35 L 20.92,9.99 Z" fill="#502b0e" stroke="none" /><path d="M 19.79,25.20 L 18.70,25.74 L 18.70,27.02 L 18.78,27.02 L 19.79,26.52 Z" fill="#532e11" stroke="none" /><path d="M 15.40,24.69 L 14.27,25.23 L 14.27,26.60 L 15.36,26.05 L 15.40,26.09 L 15.40,27.37 L 14.27,27.96 L 14.27,29.24 L 14.35,29.24 L 15.40,28.70 L 15.40,27.41 L 16.49,26.87 L 16.49,25.51 L 16.41,25.51 L 15.44,26.01 L 15.40,25.97 Z" fill="#532e11" stroke="none" /><path d="M 13.18,24.46 L 13.10,24.46 L 12.09,24.96 L 12.09,26.32 L 12.17,26.32 L 13.18,25.82 Z" fill="#532e11" stroke="none" /><path d="M 11.00,24.42 L 9.88,24.96 L 9.88,26.32 L 8.75,26.91 L 8.75,28.23 L 8.83,28.23 L 9.88,27.68 L 9.88,26.36 L 11.00,25.78 Z" fill="#532e11" stroke="none" /><path d="M 13.18,21.74 L 12.09,22.28 L 12.09,23.60 L 12.17,23.60 L 13.18,23.10 Z" fill="#532e11" stroke="none" /><path d="M 10.96,21.70 L 10.96,23.06 L 11.00,23.06 L 11.00,21.70 Z" fill="#532e11" stroke="none" /><path d="M 23.13,19.71 L 22.05,20.26 L 22.05,21.58 L 22.12,21.58 L 23.13,21.07 Z" fill="#532e11" stroke="none" /><path d="M 15.40,19.29 L 15.32,19.29 L 14.27,19.83 L 14.27,21.19 L 15.40,20.65 Z" fill="#532e11" stroke="none" /><path d="M 19.79,19.79 L 19.71,19.79 L 18.74,20.30 L 18.70,20.26 L 18.70,18.97 L 18.66,18.97 L 16.49,20.06 L 16.49,21.39 L 16.41,21.46 L 15.40,21.97 L 15.40,23.33 L 16.49,22.78 L 16.49,21.46 L 16.56,21.39 L 18.66,20.34 L 18.70,20.37 L 18.70,21.66 L 18.78,21.66 L 19.79,21.15 Z" fill="#532e11" stroke="none" /><path d="M 10.96,17.65 L 9.88,18.20 L 9.88,19.56 L 10.96,19.01 Z" fill="#532e11" stroke="none" /><path d="M 8.75,16.06 L 7.66,16.60 L 7.66,17.96 L 8.75,17.42 Z" fill="#532e11" stroke="none" /><path d="M 16.49,16.02 L 14.27,17.11 L 14.27,18.47 L 16.49,17.38 Z" fill="#532e11" stroke="none" /><path d="M 7.66,13.96 L 7.58,13.96 L 6.61,14.46 L 6.61,15.75 L 6.69,15.75 L 7.66,15.24 Z" fill="#532e11" stroke="none" /><path d="M 10.96,12.29 L 10.96,13.57 L 11.00,13.57 L 11.00,12.29 Z" fill="#532e11" stroke="none" /><path d="M 21.97,12.13 L 20.88,12.68 L 20.88,14.04 L 20.96,14.04 L 22.01,13.49 L 22.05,13.53 L 22.05,14.81 L 22.12,14.81 L 23.13,14.31 L 23.13,12.95 L 23.06,12.95 L 22.09,13.45 L 22.05,13.41 L 22.05,12.13 Z" fill="#532e11" stroke="none" /><path d="M 16.49,10.61 L 16.41,10.61 L 12.13,12.75 L 12.09,12.79 L 12.09,14.15 L 14.19,13.10 L 14.27,13.14 L 14.27,14.39 L 14.35,14.39 L 15.36,13.88 L 15.40,13.84 L 15.40,12.52 L 16.49,11.98 Z" fill="#532e11" stroke="none" /><path d="M 23.13,8.87 L 22.05,9.41 L 22.05,10.77 L 23.13,10.23 Z" fill="#532e11" stroke="none" /><path d="M 20.88,8.40 L 17.65,9.99 L 17.61,10.03 L 17.61,11.39 L 20.84,9.80 L 20.88,9.76 Z" fill="#532e11" stroke="none" /><path d="M 14.27,7.70 L 13.18,8.24 L 13.18,9.53 L 14.27,8.98 Z" fill="#532e11" stroke="none" /><path d="M 24.18,5.68 L 23.13,6.18 L 23.13,7.50 L 24.18,7.00 Z" fill="#532e11" stroke="none" /><path d="M 20.88,4.39 L 15.40,7.12 L 15.40,8.40 L 15.48,8.40 L 20.84,5.72 L 20.88,5.68 Z" fill="#532e11" stroke="none" /><path d="M 9.84,12.83 L 8.75,12.29 L 7.66,12.83 L 7.66,12.87 L 8.67,13.38 L 8.83,13.38 L 9.84,12.87 Z" fill="#aa5612" stroke="none" /><path d="M 7.74,10.65 L 7.74,10.69 L 8.79,11.20 L 8.79,11.16 Z" fill="#aa5612" stroke="none" /><path d="M 2.18,10.07 L 2.22,10.15 L 4.32,11.20 L 4.39,11.20 L 5.44,10.65 L 6.53,11.20 L 6.61,11.20 L 7.66,10.65 L 7.66,10.61 L 6.65,10.11 L 6.49,10.11 L 5.52,10.61 L 5.40,10.61 L 3.34,9.57 L 3.19,9.57 Z" fill="#aa5612" stroke="none" /><path d="M 13.22,7.12 L 13.22,7.19 L 14.23,7.70 L 14.31,7.70 L 15.36,7.15 L 15.36,7.12 L 14.35,6.61 L 14.23,6.61 Z" fill="#aa5612" stroke="none" /><path d="M 7.70,6.57 L 7.70,6.61 L 8.79,7.15 L 9.88,6.61 L 10.96,7.15 L 11.04,7.15 L 12.05,6.65 L 12.05,6.57 L 11.04,6.07 L 10.93,6.07 L 9.95,6.57 L 9.84,6.57 L 8.87,6.07 L 8.71,6.07 Z" fill="#aa5612" stroke="none" /><path d="M 19.71,3.50 L 19.48,3.62 L 19.48,3.69 L 19.67,3.77 L 19.75,3.85 L 19.71,3.89 L 18.74,4.35 L 18.74,4.39 L 19.79,4.94 L 20.80,4.43 L 20.88,4.47 L 20.88,7.31 L 20.96,7.31 L 22.01,6.77 L 22.01,6.73 L 21.00,6.22 L 21.07,6.14 L 22.05,5.68 L 22.05,5.64 L 21.07,5.17 L 21.00,5.09 L 21.93,4.63 L 21.97,4.55 L 19.87,3.50 Z" fill="#aa5612" stroke="none" /><path d="M 14.31,3.27 L 14.31,3.30 L 15.40,3.85 L 16.49,3.30 L 16.56,3.30 L 17.65,3.85 L 18.70,3.30 L 18.70,3.27 L 17.69,2.76 L 17.54,2.76 L 16.56,3.27 L 16.49,3.27 L 15.44,2.72 Z" fill="#aa5612" stroke="none" /><path d="M 7.66,3.27 L 7.66,3.30 L 8.75,3.85 L 9.84,3.30 L 9.91,3.30 L 10.85,3.77 L 10.93,3.85 L 8.79,4.94 L 8.79,4.98 L 9.80,5.48 L 9.95,5.48 L 12.05,4.43 L 12.05,4.35 L 11.04,3.85 L 11.12,3.77 L 12.09,3.30 L 12.09,3.27 L 11.00,2.72 L 9.91,3.27 L 9.84,3.27 L 8.79,2.72 Z" fill="#aa5612" stroke="none" /><path d="M 12.01,0.00 L 11.00,0.51 L 11.00,0.54 L 12.01,1.05 L 11.98,1.13 L 11.00,1.59 L 11.00,1.63 L 12.05,2.18 L 12.13,2.18 L 13.18,1.63 L 13.18,1.59 L 12.17,1.09 L 12.21,1.01 L 13.18,0.54 L 13.18,0.51 L 12.17,0.00 Z" fill="#aa5612" stroke="none" /><path d="M 13.18,8.24 L 12.09,8.79 L 12.09,10.07 L 13.18,9.53 Z" fill="#563113" stroke="none" /><path d="M 15.40,7.15 L 15.32,7.15 L 14.27,7.70 L 14.27,8.98 L 15.40,8.44 Z" fill="#563113" stroke="none" /><path d="M 5.52,27.45 L 5.52,28.81 L 6.53,29.32 L 6.61,29.32 L 6.61,27.96 L 5.60,27.45 Z" fill="#723e14" stroke="none" /><path d="M 4.47,24.18 L 4.39,24.18 L 4.39,25.47 L 4.35,25.51 L 3.38,25.00 L 3.30,25.00 L 3.30,26.32 L 4.35,26.87 L 4.39,26.87 L 4.39,25.58 L 4.43,25.55 L 5.52,26.09 L 5.52,24.73 Z" fill="#723e14" stroke="none" /><path d="M 11.00,20.37 L 11.00,21.74 L 12.09,22.28 L 12.09,20.92 Z" fill="#723e14" stroke="none" /><path d="M 4.39,18.74 L 4.39,20.10 L 5.44,20.65 L 5.52,20.65 L 5.52,19.29 Z" fill="#723e14" stroke="none" /><path d="M 11.00,16.33 L 11.00,17.69 L 12.01,18.20 L 12.09,18.20 L 12.09,16.84 L 11.08,16.33 Z" fill="#723e14" stroke="none" /><path d="M 0.00,12.48 L 0.00,13.84 L 1.09,14.39 L 1.09,13.03 Z" fill="#723e14" stroke="none" /><path d="M 9.91,8.98 L 9.91,10.34 L 11.00,10.89 L 11.00,9.53 Z" fill="#723e14" stroke="none" /><path d="M 3.30,5.68 L 3.30,7.04 L 3.34,7.08 L 7.62,9.22 L 7.70,9.22 L 7.70,7.85 Z" fill="#723e14" stroke="none" /><path d="M 11.00,24.46 L 11.00,25.82 L 12.01,26.32 L 12.09,26.32 L 12.09,24.96 L 11.08,24.46 Z" fill="#7b4316" stroke="none" /><path d="M 3.30,23.64 L 3.30,24.92 L 3.27,24.96 L 2.18,24.42 L 2.18,27.14 L 5.44,28.77 L 5.52,28.77 L 5.52,27.49 L 5.56,27.45 L 6.53,27.96 L 6.61,27.96 L 6.61,26.63 L 4.43,25.55 L 4.39,25.51 L 4.39,24.15 L 3.38,23.64 Z" fill="#7b4316" stroke="none" /><path d="M 0.00,23.33 L 0.00,24.69 L 1.01,25.20 L 1.09,25.20 L 1.09,23.87 Z" fill="#7b4316" stroke="none" /><path d="M 5.52,22.05 L 5.52,23.37 L 6.61,23.91 L 6.61,22.55 L 5.60,22.05 Z" fill="#7b4316" stroke="none" /><path d="M 11.00,19.01 L 11.00,20.37 L 12.09,20.92 L 12.09,19.56 Z" fill="#7b4316" stroke="none" /><path d="M 0.00,17.92 L 0.00,21.97 L 2.18,23.06 L 2.18,21.77 L 2.22,21.74 L 3.23,22.24 L 3.30,22.24 L 3.30,19.56 L 0.08,17.92 Z" fill="#7b4316" stroke="none" /><path d="M 5.52,15.24 L 5.52,16.52 L 5.48,16.56 L 4.47,16.06 L 4.39,16.06 L 4.39,18.74 L 6.53,19.83 L 6.61,19.83 L 6.61,18.51 L 5.60,18.00 L 5.52,17.92 L 5.52,16.68 L 5.56,16.64 L 6.61,17.15 L 6.61,15.79 Z" fill="#7b4316" stroke="none" /><path d="M 11.00,13.61 L 11.00,16.33 L 12.01,16.84 L 12.09,16.84 L 12.09,14.15 Z" fill="#7b4316" stroke="none" /><path d="M 11.00,9.53 L 11.00,10.89 L 12.09,11.43 L 12.09,10.07 Z" fill="#7b4316" stroke="none" /><path d="M 7.70,7.89 L 7.70,9.25 L 9.91,10.34 L 9.91,8.98 L 7.78,7.89 Z" fill="#7b4316" stroke="none" /><path d="M 3.30,27.68 L 3.30,29.04 L 4.32,29.55 L 4.39,29.63 L 4.39,30.91 L 5.52,31.46 L 5.52,30.13 L 4.47,29.63 L 4.39,29.55 L 4.39,28.23 Z" fill="#824717" stroke="none" /><path d="M 0.00,27.41 L 0.00,28.70 L 1.09,29.24 L 1.09,27.92 L 0.08,27.41 Z" fill="#824717" stroke="none" /><path d="M 11.00,25.82 L 11.00,27.14 L 12.09,27.68 L 12.09,26.32 L 11.08,25.82 Z" fill="#824717" stroke="none" /><path d="M 11.00,21.74 L 11.00,23.10 L 12.01,23.60 L 12.09,23.60 L 12.09,22.28 Z" fill="#824717" stroke="none" /><path d="M 5.52,20.69 L 5.52,22.05 L 6.53,22.55 L 6.61,22.55 L 6.61,21.19 L 5.60,20.69 Z" fill="#824717" stroke="none" /><path d="M 3.30,19.56 L 3.30,20.92 L 4.39,21.46 L 4.39,20.10 Z" fill="#824717" stroke="none" /><path d="M 11.00,17.69 L 11.00,19.01 L 12.09,19.56 L 12.09,18.20 L 11.08,17.69 Z" fill="#824717" stroke="none" /><path d="M 0.00,16.56 L 0.00,17.92 L 1.01,18.43 L 1.09,18.43 L 1.09,17.07 L 0.08,16.56 Z" fill="#824717" stroke="none" /><path d="M 3.30,14.15 L 3.30,16.87 L 4.32,17.38 L 4.39,17.38 L 4.39,16.10 L 4.43,16.06 L 5.44,16.56 L 5.52,16.64 L 5.52,17.96 L 6.61,18.51 L 6.61,17.15 L 5.60,16.64 L 5.52,16.56 L 5.52,15.24 L 3.38,14.15 Z" fill="#824717" stroke="none" /><path d="M 0.00,13.84 L 0.00,15.20 L 1.09,15.75 L 1.09,14.39 Z" fill="#824717" stroke="none" /><path d="M 5.52,30.17 L 5.52,31.46 L 6.61,32.00 L 6.61,30.68 L 5.60,30.17 Z" fill="#874b1c" stroke="none" /><path d="M 1.09,25.23 L 1.09,26.60 L 2.18,27.14 L 2.18,28.42 L 2.14,28.46 L 1.17,27.96 L 1.09,27.96 L 1.09,29.24 L 2.18,29.78 L 2.18,28.54 L 2.22,28.50 L 3.30,29.04 L 3.30,27.68 L 2.18,27.10 L 2.18,25.74 L 1.17,25.23 Z" fill="#874b1c" stroke="none" /><path d="M 2.18,23.06 L 2.18,24.42 L 2.22,24.46 L 3.23,24.96 L 3.30,24.96 L 3.30,23.68 L 3.34,23.64 L 5.44,24.69 L 5.52,24.77 L 5.52,26.09 L 6.61,26.63 L 6.61,25.27 L 5.60,24.77 L 5.52,24.69 L 5.52,23.37 L 5.48,23.33 L 3.38,22.28 L 3.30,22.28 L 3.30,23.56 L 3.27,23.60 Z" fill="#874b1c" stroke="none" /><path d="M 1.09,19.83 L 1.09,21.15 L 2.18,21.70 L 2.18,20.34 L 1.17,19.83 Z" fill="#874b1c" stroke="none" /><path d="M 1.09,17.11 L 1.09,18.47 L 3.30,19.56 L 3.30,18.20 L 1.17,17.11 Z" fill="#874b1c" stroke="none" /><path d="M 4.39,13.38 L 4.39,14.70 L 6.61,15.79 L 6.61,14.46 Z" fill="#874b1c" stroke="none" /><path d="M 0.00,11.20 L 0.00,12.48 L 1.01,12.99 L 1.09,13.06 L 1.09,14.39 L 1.13,14.43 L 2.18,14.93 L 2.18,13.65 L 2.22,13.61 L 3.23,14.11 L 3.30,14.11 L 3.30,12.83 L 3.27,12.79 L 0.08,11.20 Z" fill="#874b1c" stroke="none" /><path d="M 8.79,11.16 L 8.79,11.20 L 10.93,12.25 L 11.00,12.33 L 11.00,13.61 L 12.09,14.15 L 12.09,12.79 L 12.05,12.75 L 8.87,11.16 Z" fill="#874b1c" stroke="none" /><path d="M 3.30,8.40 L 3.30,9.53 L 4.39,8.98 L 7.62,10.61 L 7.70,10.61 L 7.70,10.58 Z" fill="#874b1c" stroke="none" /><path d="M 6.57,6.03 L 6.57,7.31 L 6.61,7.35 L 12.09,10.07 L 12.09,8.79 L 12.05,8.75 Z" fill="#874b1c" stroke="none" /><path d="M 4.39,4.94 L 4.39,6.22 L 5.48,6.77 L 5.48,5.48 Z" fill="#874b1c" stroke="none" /><path d="M 5.48,5.48 L 5.48,6.77 L 6.57,7.31 L 6.57,6.03 Z" fill="#8b4f1f" stroke="none" /><path d="M 3.30,4.39 L 3.30,5.68 L 4.39,6.22 L 4.39,4.94 Z" fill="#8b4f1f" stroke="none" /><path d="M 9.91,11.74 L 9.91,11.78 L 10.96,12.29 L 10.96,12.25 Z" fill="#b05f1f" stroke="none" /><path d="M 4.35,12.29 L 4.35,12.33 L 7.62,13.96 L 8.75,13.41 L 8.75,13.38 L 5.48,11.74 Z" fill="#b05f1f" stroke="none" /><path d="M 1.09,10.61 L 1.09,10.69 L 2.10,11.20 L 2.18,11.20 L 3.23,10.65 L 3.23,10.61 L 2.22,10.11 L 2.10,10.11 Z" fill="#b05f1f" stroke="none" /><path d="M 9.95,7.66 L 9.95,7.74 L 10.96,8.24 L 11.04,8.24 L 12.05,7.74 L 12.05,7.66 L 11.04,7.15 L 10.96,7.15 Z" fill="#b05f1f" stroke="none" /><path d="M 8.79,3.81 L 8.83,3.89 L 9.84,4.39 L 9.91,4.39 L 10.96,3.85 L 10.96,3.81 L 9.95,3.30 L 9.80,3.30 Z" fill="#b05f1f" stroke="none" /><path d="M 5.48,3.27 L 5.52,3.34 L 6.53,3.85 L 7.66,3.30 L 7.66,3.27 L 6.65,2.76 L 6.49,2.76 Z" fill="#b05f1f" stroke="none" /><path d="M 13.22,1.59 L 13.26,1.67 L 14.27,2.18 L 14.35,2.18 L 15.36,1.67 L 15.36,1.59 L 14.35,1.09 L 14.23,1.09 Z" fill="#b05f1f" stroke="none" /><path d="M 8.83,1.59 L 8.83,1.67 L 9.84,2.18 L 9.91,2.18 L 10.96,1.63 L 10.96,1.59 L 9.95,1.09 L 9.84,1.09 Z" fill="#b05f1f" stroke="none" /><path d="M 2.18,11.16 L 2.18,11.24 L 4.28,12.29 L 4.43,12.29 L 5.44,11.78 L 5.40,11.70 L 3.30,10.65 L 3.19,10.65 Z" fill="#be6722" stroke="none" /><path d="M 4.39,8.98 L 4.39,9.02 L 5.44,9.53 L 5.44,9.49 Z" fill="#be6722" stroke="none" /><path d="M 11.04,8.20 L 11.04,8.28 L 12.05,8.79 L 12.13,8.79 L 13.14,8.28 L 13.14,8.20 L 12.13,7.70 L 12.05,7.70 Z" fill="#be6722" stroke="none" /><path d="M 12.13,4.35 L 12.13,4.43 L 15.32,6.03 L 15.48,6.03 L 16.45,5.52 L 16.56,5.52 L 17.54,6.03 L 17.65,6.03 L 18.66,5.52 L 18.66,5.44 L 17.65,4.94 L 18.66,4.43 L 18.70,4.35 L 16.60,3.30 L 16.45,3.30 L 15.48,3.81 L 15.36,3.81 L 14.39,3.30 L 14.23,3.30 Z" fill="#be6722" stroke="none" /><path d="M 3.30,4.35 L 3.34,4.43 L 5.44,5.48 L 5.52,5.48 L 6.53,4.98 L 6.53,4.90 L 5.52,4.39 L 5.60,4.32 L 6.53,3.85 L 7.62,4.39 L 6.61,4.90 L 6.61,4.98 L 7.62,5.48 L 7.74,5.48 L 9.84,4.43 L 9.84,4.35 L 7.74,3.30 L 7.58,3.30 L 6.61,3.81 L 6.49,3.81 L 5.52,3.30 L 5.40,3.30 Z" fill="#be6722" stroke="none" /><path d="M 14.35,2.14 L 14.35,2.22 L 15.36,2.72 L 15.48,2.72 L 16.49,2.22 L 16.45,2.14 L 15.44,1.63 L 15.36,1.63 Z" fill="#be6722" stroke="none" /><path d="M 9.91,2.14 L 9.91,2.22 L 10.93,2.72 L 11.04,2.72 L 12.05,2.22 L 12.05,2.14 L 11.04,1.63 L 10.93,1.63 Z" fill="#be6722" stroke="none" /><path d="M 7.70,2.18 L 7.70,2.22 L 8.71,2.72 L 8.83,2.72 L 9.84,2.22 L 9.84,2.14 L 8.83,1.63 L 8.75,1.63 Z" fill="#be6722" stroke="none" /><path d="M 5.48,9.53 L 5.48,9.57 L 7.70,10.65 L 7.70,10.61 Z" fill="#c96d24" stroke="none" /><path d="M 11.04,7.12 L 11.04,7.19 L 13.14,8.24 L 13.22,8.24 L 14.23,7.74 L 14.23,7.66 L 12.13,6.61 L 12.05,6.61 Z" fill="#c96d24" stroke="none" /><path d="M 17.57,6.03 L 16.49,5.48 L 15.44,6.03 L 15.36,6.03 L 14.39,5.52 L 14.23,5.52 L 13.22,6.03 L 13.22,6.07 L 14.31,6.61 L 15.36,6.07 L 15.44,6.07 L 16.41,6.57 L 16.56,6.57 L 17.57,6.07 Z" fill="#c96d24" stroke="none" /><path d="M 22.05,5.64 L 22.05,5.68 L 23.06,6.18 L 23.21,6.18 L 24.15,5.72 L 24.15,5.64 L 23.13,5.13 L 23.06,5.13 Z" fill="#c96d24" stroke="none" /><path d="M 5.48,4.35 L 5.52,4.43 L 6.53,4.94 L 5.52,5.44 L 5.52,5.52 L 7.62,6.57 L 7.78,6.57 L 9.88,5.52 L 9.88,5.48 L 8.79,4.94 L 7.70,5.48 L 6.65,4.98 L 6.61,4.94 L 6.65,4.90 L 7.62,4.43 L 7.62,4.35 L 6.61,3.85 L 6.49,3.85 Z" fill="#c96d24" stroke="none" /><path d="M 11.00,3.81 L 11.04,3.89 L 12.05,4.39 L 12.13,4.39 L 13.18,3.85 L 13.18,3.81 L 12.17,3.30 L 12.01,3.30 Z" fill="#c96d24" stroke="none" /><path d="M 18.35,3.07 L 18.39,3.15 L 19.40,3.65 L 19.48,3.65 L 19.79,3.50 L 19.79,3.46 L 18.70,2.92 Z" fill="#c96d24" stroke="none" /><path d="M 6.57,2.72 L 6.57,2.76 L 7.58,3.27 L 7.74,3.27 L 8.71,2.76 L 8.83,2.76 L 9.80,3.27 L 9.95,3.27 L 10.96,2.76 L 10.93,2.68 L 9.91,2.18 L 9.84,2.18 L 8.79,2.72 L 7.66,2.18 Z" fill="#c96d24" stroke="none" /><path d="M 9.91,1.05 L 9.95,1.13 L 10.96,1.63 L 12.09,1.09 L 12.09,1.05 L 11.08,0.54 L 10.93,0.54 Z" fill="#c96d24" stroke="none" /><path d="M 5.52,13.92 L 5.52,13.96 L 6.53,14.46 L 6.65,14.46 L 7.62,13.96 L 7.62,13.92 L 6.61,13.41 L 6.49,13.41 Z" fill="#cf742a" stroke="none" /><path d="M 6.61,11.16 L 6.61,11.24 L 9.80,12.83 L 9.91,12.83 L 10.93,12.33 L 10.93,12.25 L 7.74,10.65 L 7.62,10.65 Z" fill="#cf742a" stroke="none" /><path d="M 0.00,11.16 L 0.00,11.20 L 4.35,13.38 L 4.43,13.38 L 5.44,12.87 L 5.44,12.83 L 1.09,10.65 L 1.01,10.65 Z" fill="#cf742a" stroke="none" /><path d="M 3.27,9.53 L 3.27,9.57 L 5.44,10.65 L 6.57,10.11 L 6.57,10.07 L 4.39,8.98 Z" fill="#cf742a" stroke="none" /><path d="M 8.83,7.12 L 8.87,7.19 L 9.88,7.70 L 9.95,7.70 L 10.96,7.19 L 10.96,7.12 L 9.95,6.61 L 9.84,6.61 Z" fill="#cf742a" stroke="none" /><path d="M 20.88,6.18 L 20.88,6.22 L 20.92,6.22 L 20.92,6.18 Z" fill="#cf742a" stroke="none" /><path d="M 20.88,5.09 L 20.88,5.13 L 21.00,5.13 L 21.97,5.64 L 22.12,5.64 L 23.06,5.17 L 23.06,5.09 L 22.05,4.59 L 21.93,4.59 L 20.96,5.09 Z" fill="#cf742a" stroke="none" /><path d="M 17.65,4.90 L 17.65,4.98 L 18.66,5.48 L 18.74,5.48 L 19.79,4.94 L 19.79,4.90 L 18.78,4.39 L 18.66,4.39 Z" fill="#cf742a" stroke="none" /><path d="M 11.00,4.94 L 11.00,4.98 L 13.18,6.07 L 14.31,5.52 L 14.31,5.48 L 12.13,4.39 L 12.05,4.39 Z" fill="#cf742a" stroke="none" /><path d="M 14.35,4.35 L 14.35,4.43 L 15.36,4.94 L 15.48,4.94 L 16.49,4.43 L 16.49,4.35 L 15.48,3.85 L 15.36,3.85 Z" fill="#cf742a" stroke="none" /><path d="M 12.09,1.05 L 12.09,1.09 L 13.06,1.56 L 13.14,1.63 L 12.13,2.14 L 12.13,2.22 L 14.23,3.27 L 14.39,3.27 L 15.36,2.76 L 15.48,2.76 L 16.45,3.27 L 16.60,3.27 L 17.57,2.76 L 17.65,2.76 L 18.31,3.11 L 18.66,2.96 L 18.62,2.88 L 17.61,2.37 L 17.30,2.53 L 17.19,2.53 L 16.52,2.18 L 15.40,2.72 L 13.26,1.63 L 13.34,1.56 L 14.27,1.09 L 14.27,1.05 L 13.26,0.54 L 13.10,0.54 Z" fill="#cf742a" stroke="none" /><path d="M 4.43,13.34 L 4.43,13.41 L 5.44,13.92 L 5.56,13.92 L 6.53,13.41 L 6.53,13.38 L 5.52,12.87 L 5.37,12.87 Z" fill="#d67a2f" stroke="none" /></svg>