<svg height="32" width="32" viewBox="0 0 32 32"><defs /><path d="M 31.44,20.55 L 30.51,21.00 L 30.47,20.96 L 30.47,19.85 L 30.40,19.85 L 28.53,20.79 L 28.53,21.97 L 28.46,22.04 L 27.52,22.49 L 27.52,24.92 L 26.59,25.41 L 26.55,25.37 L 26.55,23.01 L 26.48,23.01 L 25.58,23.46 L 25.54,23.43 L 25.54,22.32 L 25.48,22.32 L 19.64,25.23 L 19.61,25.27 L 19.61,26.45 L 19.57,26.48 L 17.70,27.42 L 17.67,27.38 L 17.67,26.24 L 16.66,26.72 L 16.66,29.12 L 16.59,29.19 L 15.72,29.61 L 15.72,32.00 L 15.79,32.00 L 31.41,24.19 L 31.44,24.16 Z" fill="#050709" stroke="none" /><path d="M 19.61,24.05 L 18.64,24.54 L 18.64,25.72 L 18.57,25.79 L 17.74,26.20 L 17.67,26.17 L 17.67,25.02 L 15.76,25.96 L 15.72,26.00 L 15.72,27.21 L 17.60,26.27 L 17.67,26.31 L 17.67,27.42 L 17.74,27.42 L 19.61,26.48 Z" fill="#070b0d" stroke="none" /><path d="M 23.57,22.07 L 22.59,22.56 L 22.59,23.77 L 23.57,23.29 Z" fill="#070b0d" stroke="none" /><path d="M 28.53,19.61 L 28.46,19.61 L 27.52,20.10 L 27.52,21.28 L 27.45,21.34 L 26.62,21.76 L 26.55,21.73 L 26.55,20.58 L 24.57,21.55 L 24.57,22.77 L 24.64,22.77 L 25.51,22.32 L 25.54,22.35 L 25.54,23.50 L 26.52,23.01 L 26.55,23.05 L 26.55,24.19 L 26.62,24.19 L 27.52,23.74 L 27.52,22.52 L 28.53,22.00 Z" fill="#070b0d" stroke="none" /><path d="M 30.40,18.64 L 29.50,19.09 L 29.50,20.30 L 29.57,20.30 L 30.44,19.85 L 30.47,19.89 L 30.47,21.03 L 30.51,21.03 L 31.44,20.55 L 31.44,19.37 L 31.38,19.37 L 30.51,19.82 L 30.47,19.78 L 30.47,18.64 Z" fill="#070b0d" stroke="none" /><path d="M 0.97,19.85 L 0.97,22.18 L 0.90,22.21 L 0.00,21.76 L 0.00,24.16 L 0.03,24.19 L 15.65,32.00 L 15.72,32.00 L 15.72,28.39 L 14.85,27.97 L 14.79,27.90 L 14.79,26.72 L 12.81,25.75 L 12.81,26.90 L 12.77,26.93 L 11.90,26.48 L 11.84,26.48 L 11.84,28.84 L 11.80,28.88 L 10.90,28.43 L 10.83,28.36 L 10.83,25.96 L 9.93,25.51 L 9.86,25.44 L 9.86,24.26 L 3.96,21.31 L 3.92,21.31 L 3.92,22.46 L 3.89,22.49 L 2.01,21.55 L 1.94,21.48 L 1.94,20.30 L 1.04,19.85 Z" fill="#080c0f" stroke="none" /><path d="M 19.61,27.70 L 19.54,27.70 L 17.67,28.63 L 17.67,29.85 L 17.74,29.85 L 19.61,28.91 Z" fill="#040d11" stroke="none" /><path d="M 16.66,26.76 L 16.59,26.76 L 15.72,27.21 L 15.72,29.61 L 15.79,29.61 L 16.66,29.15 Z" fill="#040d11" stroke="none" /><path d="M 21.59,25.48 L 20.62,25.96 L 20.62,27.18 L 21.59,26.69 Z" fill="#040d11" stroke="none" /><path d="M 18.64,24.54 L 17.67,25.02 L 17.67,26.24 L 18.64,25.75 Z" fill="#040d11" stroke="none" /><path d="M 24.54,23.98 L 23.57,24.47 L 23.57,25.68 L 23.64,25.68 L 24.54,25.23 L 24.57,25.27 L 24.57,26.41 L 24.61,26.41 L 25.54,25.93 L 25.54,24.71 L 24.61,25.16 L 24.57,25.13 L 24.57,23.98 Z" fill="#040d11" stroke="none" /><path d="M 27.52,23.74 L 27.45,23.74 L 26.55,24.19 L 26.55,25.41 L 26.62,25.41 L 27.52,24.95 Z" fill="#040d11" stroke="none" /><path d="M 29.50,21.52 L 28.53,22.00 L 28.53,23.22 L 29.50,22.73 Z" fill="#040d11" stroke="none" /><path d="M 27.52,20.10 L 26.59,20.55 L 26.55,20.51 L 26.55,19.37 L 26.52,19.37 L 22.63,21.31 L 22.59,21.34 L 22.59,22.52 L 22.52,22.59 L 20.62,23.53 L 20.62,24.75 L 20.69,24.75 L 22.56,23.81 L 22.59,23.77 L 22.59,22.59 L 22.66,22.52 L 23.50,22.11 L 23.57,22.14 L 23.57,23.29 L 24.57,22.80 L 24.57,21.59 L 26.48,20.62 L 26.55,20.65 L 26.55,21.80 L 27.49,21.34 L 27.52,21.31 Z" fill="#040d11" stroke="none" /><path d="M 29.50,19.12 L 29.43,19.12 L 28.53,19.57 L 28.53,20.79 L 28.60,20.79 L 29.50,20.34 Z" fill="#040d11" stroke="none" /><path d="M 31.44,18.15 L 31.38,18.15 L 30.47,18.60 L 30.47,19.82 L 30.54,19.82 L 31.44,19.37 Z" fill="#040d11" stroke="none" /><path d="M 13.78,25.02 L 13.78,26.24 L 14.79,26.76 L 14.79,27.94 L 15.65,28.39 L 15.72,28.39 L 15.72,27.21 L 14.79,26.72 L 14.79,25.51 Z" fill="#0b1115" stroke="none" /><path d="M 8.85,22.56 L 8.85,23.77 L 9.86,24.30 L 9.86,25.48 L 10.76,25.93 L 10.83,26.00 L 10.83,27.18 L 11.77,27.66 L 11.84,27.66 L 11.84,26.52 L 11.87,26.48 L 12.74,26.93 L 12.81,26.93 L 12.81,24.54 L 11.84,24.05 L 11.84,25.20 L 11.77,25.23 L 10.83,24.75 L 10.83,23.53 Z" fill="#0b1115" stroke="none" /><path d="M 6.87,21.59 L 6.87,22.80 L 7.88,23.29 L 7.88,22.07 L 6.94,21.59 Z" fill="#0b1115" stroke="none" /><path d="M 0.00,18.15 L 0.00,19.37 L 1.94,20.34 L 1.94,21.52 L 3.85,22.49 L 3.92,22.49 L 3.92,20.10 L 2.98,19.61 L 2.92,19.61 L 2.92,20.75 L 2.88,20.79 L 1.94,20.30 L 1.94,19.09 L 0.07,18.15 Z" fill="#0b1115" stroke="none" /><path d="M 23.57,19.68 L 23.50,19.68 L 21.62,20.62 L 21.59,20.65 L 21.59,21.83 L 20.65,22.32 L 20.62,22.28 L 20.62,21.14 L 18.64,22.11 L 18.64,23.29 L 18.57,23.36 L 17.74,23.77 L 17.67,23.74 L 17.67,22.63 L 17.60,22.63 L 16.69,23.08 L 16.66,23.11 L 16.66,24.30 L 15.72,24.78 L 15.72,26.00 L 16.66,25.54 L 16.66,24.33 L 17.60,23.84 L 17.67,23.88 L 17.67,25.02 L 17.70,25.02 L 22.56,22.59 L 22.59,22.56 L 22.59,21.38 L 22.66,21.31 L 23.57,20.86 Z" fill="#021216" stroke="none" /><path d="M 31.44,16.94 L 31.38,16.94 L 30.51,17.39 L 30.47,17.35 L 30.47,16.21 L 30.44,16.21 L 25.58,18.64 L 25.54,18.67 L 25.54,19.85 L 25.61,19.85 L 26.52,19.40 L 26.55,19.44 L 26.55,20.58 L 26.59,20.58 L 28.53,19.61 L 28.53,18.39 L 28.56,18.36 L 29.47,17.91 L 29.50,17.94 L 29.50,19.09 L 29.57,19.09 L 31.44,18.15 Z" fill="#021216" stroke="none" /><path d="M 10.83,27.18 L 10.83,28.39 L 11.77,28.88 L 11.84,28.88 L 11.84,27.66 Z" fill="#07151b" stroke="none" /><path d="M 12.81,26.97 L 12.81,28.18 L 13.71,28.63 L 13.78,28.63 L 13.78,27.42 L 12.88,26.97 Z" fill="#07151b" stroke="none" /><path d="M 14.79,25.54 L 14.79,26.76 L 15.72,27.21 L 15.72,26.00 L 14.85,25.54 Z" fill="#07151b" stroke="none" /><path d="M 12.81,24.54 L 12.81,25.75 L 13.78,26.24 L 13.78,25.02 Z" fill="#07151b" stroke="none" /><path d="M 7.88,24.50 L 7.88,25.72 L 8.85,26.20 L 8.85,27.42 L 9.86,27.90 L 9.86,26.69 L 8.85,26.17 L 8.85,24.95 L 7.95,24.50 Z" fill="#07151b" stroke="none" /><path d="M 4.89,23.01 L 4.89,24.23 L 5.90,24.71 L 5.90,23.50 L 4.96,23.01 Z" fill="#07151b" stroke="none" /><path d="M 1.94,22.73 L 1.94,23.95 L 3.85,24.92 L 3.92,24.92 L 3.92,23.70 Z" fill="#07151b" stroke="none" /><path d="M 4.89,20.58 L 4.89,21.80 L 4.93,21.83 L 6.80,22.77 L 6.87,22.77 L 6.87,21.62 L 6.91,21.59 L 7.81,22.04 L 7.88,22.11 L 7.88,23.29 L 7.91,23.32 L 8.85,23.77 L 8.85,22.63 L 8.92,22.59 L 10.79,23.53 L 10.83,23.57 L 10.83,24.78 L 11.84,25.27 L 11.84,24.05 L 10.83,23.53 L 10.83,22.32 L 6.94,20.37 L 6.87,20.37 L 6.87,21.52 L 6.84,21.55 Z" fill="#07151b" stroke="none" /><path d="M 0.00,19.37 L 0.00,21.76 L 0.97,22.25 L 0.97,19.82 L 0.07,19.37 Z" fill="#07151b" stroke="none" /><path d="M 1.94,19.12 L 1.94,20.34 L 2.85,20.79 L 2.92,20.79 L 2.92,19.57 L 2.01,19.12 Z" fill="#07151b" stroke="none" /><path d="M 17.11,9.82 L 15.72,9.82 L 15.72,12.18 L 15.69,12.22 L 14.33,12.22 L 14.33,13.43 L 15.69,13.43 L 15.72,13.47 L 15.72,17.04 L 15.69,17.08 L 14.33,17.08 L 14.33,18.26 L 15.72,18.26 L 15.72,17.11 L 15.76,17.08 L 17.11,17.08 L 17.11,15.90 L 17.15,15.86 L 18.46,15.86 L 18.50,15.90 L 18.50,17.08 L 19.92,17.08 L 19.92,13.43 L 17.15,13.43 L 17.11,13.40 Z" fill="#04181d" stroke="none" /><path d="M 14.33,0.00 L 14.33,3.57 L 14.30,3.61 L 11.52,3.61 L 11.52,7.25 L 12.95,7.25 L 12.95,6.07 L 12.98,6.04 L 14.30,6.04 L 14.33,6.07 L 14.33,7.25 L 15.69,7.25 L 15.72,7.29 L 15.72,8.47 L 17.11,8.47 L 17.11,7.25 L 15.76,7.25 L 15.72,7.22 L 15.72,3.64 L 15.76,3.61 L 17.11,3.61 L 17.11,2.39 L 15.76,2.39 L 15.72,2.36 L 15.72,0.00 Z" fill="#04181d" stroke="none" /><path d="M 20.62,23.57 L 20.55,23.57 L 19.61,24.05 L 19.61,25.27 L 20.62,24.78 Z" fill="#011a20" stroke="none" /><path d="M 25.54,23.50 L 24.57,23.98 L 24.57,25.20 L 25.54,24.71 Z" fill="#011a20" stroke="none" /><path d="M 18.64,22.14 L 18.57,22.14 L 17.67,22.59 L 17.67,23.77 L 17.60,23.84 L 16.69,24.30 L 16.66,24.26 L 16.66,21.93 L 15.72,22.39 L 15.72,24.78 L 16.62,24.33 L 16.66,24.36 L 16.66,25.51 L 16.73,25.51 L 17.63,25.06 L 17.67,25.02 L 17.67,23.84 L 17.74,23.77 L 18.64,23.32 Z" fill="#011a20" stroke="none" /><path d="M 20.62,19.96 L 19.61,20.44 L 19.61,21.62 L 19.68,21.62 L 20.62,21.14 Z" fill="#011a20" stroke="none" /><path d="M 24.57,19.16 L 23.57,19.64 L 23.57,20.86 L 24.57,20.37 Z" fill="#011a20" stroke="none" /><path d="M 22.59,18.98 L 22.52,18.98 L 21.59,19.47 L 21.59,20.65 L 22.59,20.16 Z" fill="#011a20" stroke="none" /><path d="M 29.50,17.91 L 29.43,17.91 L 28.53,18.36 L 28.53,19.57 L 28.60,19.57 L 29.50,19.12 Z" fill="#011a20" stroke="none" /><path d="M 28.53,16.00 L 25.58,17.46 L 25.54,17.49 L 25.54,18.67 L 28.49,17.21 L 28.53,17.18 Z" fill="#011a20" stroke="none" /><path d="M 31.44,14.54 L 29.50,15.51 L 29.50,16.69 L 30.44,16.24 L 30.47,16.28 L 30.47,17.39 L 30.54,17.39 L 31.44,16.94 Z" fill="#011a20" stroke="none" /><path d="M 19.61,20.48 L 19.54,20.48 L 16.69,21.90 L 16.66,21.93 L 16.66,23.11 L 19.61,21.66 Z" fill="#031c22" stroke="none" /><path d="M 21.59,19.47 L 20.62,19.96 L 20.62,22.32 L 20.69,22.32 L 21.59,21.87 Z" fill="#031c22" stroke="none" /><path d="M 25.54,17.49 L 22.59,18.95 L 22.59,20.13 L 22.66,20.13 L 25.51,18.71 L 25.54,18.67 Z" fill="#031c22" stroke="none" /><path d="M 29.50,15.51 L 28.53,16.00 L 28.53,17.18 L 29.50,16.69 Z" fill="#031c22" stroke="none" /><path d="M 9.86,20.65 L 9.86,21.87 L 10.83,22.35 L 10.83,23.57 L 12.81,24.54 L 12.81,23.39 L 12.88,23.36 L 13.71,23.77 L 13.78,23.84 L 13.78,25.02 L 13.81,25.06 L 15.72,26.00 L 15.72,24.78 L 14.79,24.30 L 14.79,23.11 L 14.75,23.08 Z" fill="#041d23" stroke="none" /><path d="M 0.00,16.94 L 0.00,18.15 L 0.90,18.60 L 0.97,18.60 L 0.97,17.46 L 1.01,17.42 L 1.94,17.91 L 1.94,19.12 L 6.80,21.55 L 6.87,21.55 L 6.87,20.41 L 6.91,20.37 L 7.88,20.86 L 7.88,19.64 L 5.90,18.67 L 5.90,19.82 L 5.87,19.85 L 4.96,19.40 L 4.89,19.33 L 4.89,18.15 L 2.92,17.18 L 2.92,18.33 L 2.88,18.36 L 1.94,17.87 L 1.94,16.69 L 1.01,16.21 L 0.97,16.21 L 0.97,17.35 L 0.94,17.39 L 0.07,16.94 Z" fill="#041d23" stroke="none" /><path d="M 17.11,15.86 L 17.11,17.08 L 18.50,17.08 L 18.50,15.86 Z" fill="#042026" stroke="none" /><path d="M 14.33,13.43 L 14.33,17.08 L 15.72,17.08 L 15.72,13.43 Z" fill="#042026" stroke="none" /><path d="M 17.11,12.22 L 17.11,13.43 L 18.50,13.43 L 18.50,12.22 Z" fill="#042026" stroke="none" /><path d="M 14.33,11.00 L 14.33,12.22 L 15.72,12.22 L 15.72,11.00 Z" fill="#042026" stroke="none" /><path d="M 12.95,6.04 L 12.95,7.25 L 14.33,7.25 L 14.33,6.04 Z" fill="#042026" stroke="none" /><path d="M 15.72,3.61 L 15.72,7.25 L 17.11,7.25 L 17.11,3.61 Z" fill="#042026" stroke="none" /><path d="M 12.95,2.39 L 12.95,3.61 L 14.33,3.61 L 14.33,2.39 Z" fill="#042026" stroke="none" /><path d="M 15.72,1.18 L 15.72,2.39 L 17.11,2.39 L 17.11,1.18 Z" fill="#042026" stroke="none" /><path d="M 24.54,17.94 L 23.60,17.49 L 22.63,17.98 L 22.63,18.01 L 23.53,18.46 L 23.64,18.46 L 24.54,18.01 Z" fill="#052931" stroke="none" /><path d="M 7.84,17.49 L 7.84,17.53 L 8.75,17.98 L 8.89,17.98 L 9.79,17.53 L 9.75,17.46 L 8.85,17.01 L 8.78,17.01 Z" fill="#052931" stroke="none" /><path d="M 14.33,13.26 L 13.74,13.54 L 13.74,13.57 L 14.33,13.85 Z" fill="#052931" stroke="none" /><path d="M 24.61,13.05 L 24.61,13.08 L 25.58,13.57 L 26.59,13.08 L 26.59,13.05 L 25.61,12.56 Z" fill="#052931" stroke="none" /><path d="M 8.82,13.05 L 8.82,13.08 L 9.72,13.54 L 9.86,13.54 L 10.76,13.08 L 10.72,13.02 L 9.82,12.56 L 9.75,12.56 Z" fill="#052931" stroke="none" /><path d="M 8.85,24.99 L 8.85,26.20 L 9.86,26.69 L 9.86,25.48 L 8.92,24.99 Z" fill="#022a33" stroke="none" /><path d="M 12.81,23.32 L 12.81,24.54 L 13.78,25.02 L 13.78,23.81 Z" fill="#022a33" stroke="none" /><path d="M 13.78,21.45 L 13.78,22.63 L 14.72,23.08 L 14.79,23.15 L 14.79,24.33 L 15.72,24.78 L 15.72,22.39 L 13.85,21.45 Z" fill="#022a33" stroke="none" /><path d="M 3.92,20.10 L 3.92,21.31 L 4.89,21.80 L 4.89,20.58 Z" fill="#022a33" stroke="none" /><path d="M 7.88,19.68 L 7.88,20.86 L 8.85,21.34 L 8.85,20.13 L 7.95,19.68 Z" fill="#022a33" stroke="none" /><path d="M 9.86,19.47 L 9.86,20.65 L 9.89,20.69 L 12.74,22.11 L 12.81,22.11 L 12.81,20.93 Z" fill="#022a33" stroke="none" /><path d="M 5.90,17.49 L 5.90,18.67 L 6.87,19.16 L 6.87,17.98 Z" fill="#022a33" stroke="none" /><path d="M 3.92,16.52 L 3.92,17.70 L 4.82,18.15 L 4.89,18.15 L 4.89,16.97 L 3.99,16.52 Z" fill="#022a33" stroke="none" /><path d="M 0.00,14.54 L 0.00,16.94 L 0.97,17.42 L 0.97,18.64 L 1.87,19.09 L 1.94,19.09 L 1.94,17.94 L 1.98,17.91 L 2.85,18.36 L 2.92,18.36 L 2.92,17.18 L 1.94,16.69 L 1.94,17.84 L 1.91,17.87 L 1.01,17.42 L 0.97,17.39 L 0.97,15.03 Z" fill="#022a33" stroke="none" /><path d="M 12.81,20.96 L 12.81,22.14 L 13.71,22.59 L 13.78,22.59 L 13.78,21.41 L 12.88,20.96 Z" fill="#042e38" stroke="none" /><path d="M 6.87,17.98 L 6.87,19.16 L 6.91,19.19 L 9.86,20.65 L 9.86,19.47 L 9.82,19.44 Z" fill="#042e38" stroke="none" /><path d="M 4.89,17.01 L 4.89,19.37 L 5.83,19.85 L 5.90,19.85 L 5.90,17.49 L 4.96,17.01 Z" fill="#042e38" stroke="none" /><path d="M 0.97,15.03 L 0.97,16.21 L 1.01,16.24 L 3.85,17.67 L 3.92,17.67 L 3.92,16.49 Z" fill="#042e38" stroke="none" /><path d="M 14.33,19.44 L 17.11,19.44 L 17.11,18.29 L 17.15,18.26 L 18.50,18.26 L 18.50,17.08 L 15.72,17.08 L 15.72,18.22 L 15.69,18.26 L 14.33,18.26 Z" fill="#0e2f38" stroke="none" /><path d="M 12.95,7.25 L 12.95,8.47 L 14.30,8.47 L 14.33,8.50 L 14.33,9.65 L 17.11,9.65 L 17.11,8.47 L 15.76,8.47 L 15.72,8.43 L 15.72,7.25 Z" fill="#0e2f38" stroke="none" /><path d="M 22.59,26.20 L 22.52,26.20 L 21.59,26.69 L 21.59,27.90 L 22.59,27.42 Z" fill="#003a3b" stroke="none" /><path d="M 25.54,18.67 L 24.57,19.16 L 24.57,20.34 L 24.64,20.34 L 25.54,19.89 Z" fill="#003a3b" stroke="none" /><path d="M 12.95,16.94 L 12.88,16.94 L 12.67,17.04 L 12.67,17.08 L 12.95,17.08 Z" fill="#03404f" stroke="none" /><path d="M 12.95,15.93 L 12.77,16.00 L 12.77,16.03 L 12.88,16.10 L 12.95,16.10 Z" fill="#03404f" stroke="none" /><path d="M 2.95,15.97 L 2.95,16.03 L 4.82,16.97 L 4.96,16.97 L 5.83,16.52 L 5.83,16.49 L 3.89,15.51 Z" fill="#03404f" stroke="none" /><path d="M 14.33,15.24 L 13.12,15.83 L 13.12,15.86 L 14.33,15.86 Z" fill="#03404f" stroke="none" /><path d="M 0.03,14.51 L 0.03,14.58 L 1.91,15.51 L 1.98,15.51 L 2.88,15.06 L 2.85,14.99 L 0.97,14.06 Z" fill="#03404f" stroke="none" /><path d="M 1.98,13.54 L 1.98,13.61 L 2.88,14.06 L 3.85,13.57 L 3.85,13.54 L 2.95,13.08 L 2.88,13.08 Z" fill="#03404f" stroke="none" /><path d="M 4.89,12.08 L 4.89,12.11 L 5.80,12.56 L 5.73,12.63 L 4.86,13.05 L 4.86,13.08 L 6.70,13.99 L 6.77,14.06 L 5.87,14.51 L 5.87,14.58 L 6.77,15.03 L 6.70,15.10 L 5.90,15.48 L 5.87,15.55 L 6.77,16.00 L 6.91,16.00 L 7.77,15.55 L 7.84,15.55 L 8.68,15.97 L 8.75,16.03 L 7.84,16.49 L 7.84,16.52 L 9.75,17.49 L 9.68,17.56 L 8.85,17.98 L 8.78,17.98 L 7.81,17.49 L 6.91,17.94 L 6.91,18.01 L 13.71,21.41 L 13.85,21.41 L 14.75,20.96 L 15.69,21.45 L 14.79,21.90 L 14.82,21.97 L 15.65,22.39 L 15.79,22.39 L 19.61,20.48 L 19.57,20.41 L 17.80,19.54 L 17.74,19.47 L 17.74,19.44 L 17.63,19.44 L 17.63,19.47 L 17.56,19.54 L 16.73,19.96 L 16.66,19.96 L 15.83,19.54 L 15.79,19.51 L 15.79,19.44 L 13.81,19.44 L 13.78,19.47 L 13.71,19.44 L 11.56,19.44 L 11.52,19.40 L 11.52,18.64 L 11.45,18.64 L 10.79,18.98 L 9.89,18.53 L 9.86,18.50 L 9.93,18.43 L 10.79,18.01 L 10.79,17.98 L 9.93,17.56 L 9.86,17.49 L 10.76,17.04 L 10.72,16.97 L 9.82,16.52 L 10.76,16.03 L 10.76,16.00 L 9.89,15.58 L 9.86,15.51 L 10.76,15.06 L 10.76,15.03 L 9.82,14.54 L 10.72,14.09 L 10.76,14.02 L 5.90,11.59 Z" fill="#03404f" stroke="none" /><path d="M 6.91,11.07 L 6.91,11.14 L 7.81,11.59 L 8.82,11.11 L 8.82,11.07 L 7.91,10.62 L 7.81,10.62 Z" fill="#03404f" stroke="none" /><path d="M 15.72,10.59 L 13.88,9.65 L 13.64,9.65 L 12.81,10.07 L 12.81,10.13 L 13.71,10.59 L 12.77,11.07 L 12.77,11.11 L 13.64,11.52 L 13.67,11.56 L 13.64,11.63 L 11.77,12.56 L 10.83,12.08 L 10.90,12.01 L 11.77,11.59 L 11.77,11.56 L 10.86,11.11 L 10.72,11.11 L 8.85,12.04 L 8.85,12.11 L 14.26,14.82 L 14.33,14.82 L 14.33,13.85 L 13.81,13.57 L 13.85,13.50 L 14.33,13.26 L 14.33,11.04 L 14.37,11.00 L 15.72,11.00 Z" fill="#03404f" stroke="none" /><path d="M 17.11,11.28 L 17.11,12.22 L 18.43,12.22 L 18.71,12.08 L 19.61,12.53 L 19.64,12.56 L 19.61,12.60 L 18.74,13.02 L 18.71,13.08 L 19.40,13.43 L 19.89,13.43 L 19.92,13.47 L 19.92,13.67 L 19.96,13.71 L 20.65,14.06 L 22.59,13.08 L 22.70,13.08 L 24.50,13.99 L 24.57,14.06 L 22.66,15.03 L 22.66,15.06 L 24.50,15.97 L 24.54,16.00 L 24.50,16.07 L 22.63,17.01 L 21.69,16.52 L 21.62,16.52 L 20.69,17.01 L 20.69,17.04 L 21.59,17.49 L 21.52,17.56 L 20.65,17.98 L 20.65,18.01 L 21.52,18.43 L 21.59,18.50 L 20.69,18.95 L 20.69,19.02 L 21.59,19.47 L 23.57,18.50 L 23.53,18.43 L 22.73,18.05 L 22.70,18.01 L 22.73,17.94 L 23.57,17.53 L 23.67,17.53 L 24.54,17.98 L 24.61,17.98 L 25.54,17.49 L 25.54,17.46 L 24.64,17.01 L 25.58,16.52 L 25.58,16.49 L 24.68,16.03 L 24.71,15.97 L 25.58,15.55 L 25.54,15.48 L 24.75,15.10 L 24.68,15.03 L 25.61,14.54 L 27.52,15.51 L 27.45,15.58 L 26.59,16.00 L 26.59,16.03 L 27.49,16.49 L 27.59,16.49 L 29.47,15.55 L 29.47,15.48 L 26.62,14.06 L 27.56,13.57 L 27.56,13.54 L 26.66,13.08 L 26.69,13.02 L 27.49,12.63 L 27.52,12.56 L 19.96,8.78 L 19.92,8.78 L 19.92,9.61 L 19.89,9.65 L 19.78,9.65 L 19.78,9.68 L 20.58,10.07 L 20.62,10.10 L 20.58,10.13 L 17.74,11.56 L 17.67,11.56 Z" fill="#03404f" stroke="none" /><path d="M 12.74,10.13 L 12.74,10.07 L 11.90,9.65 L 11.56,9.65 L 11.52,9.61 L 11.52,8.78 L 9.86,9.61 L 9.86,9.65 L 11.73,10.59 L 11.84,10.59 Z" fill="#03404f" stroke="none" /><path d="M 14.68,19.99 L 13.78,20.44 L 13.81,20.51 L 14.61,20.89 L 14.68,20.96 L 13.78,21.41 L 13.78,21.45 L 14.79,21.93 L 15.69,21.48 L 15.69,21.41 L 14.79,20.96 L 14.85,20.89 L 15.72,20.48 L 15.72,20.44 L 14.82,19.99 Z" fill="#074756" stroke="none" /><path d="M 13.71,19.44 L 13.71,19.47 L 13.81,19.47 L 13.81,19.44 Z" fill="#074756" stroke="none" /><path d="M 27.56,15.51 L 26.62,15.03 L 26.55,15.03 L 24.64,16.00 L 24.57,16.00 L 22.77,15.10 L 22.70,15.03 L 22.73,14.99 L 24.57,14.09 L 24.61,14.02 L 22.66,13.05 L 21.66,13.54 L 21.66,13.57 L 22.52,13.99 L 22.59,14.06 L 21.66,14.54 L 19.92,13.67 L 19.92,19.40 L 19.89,19.44 L 17.74,19.44 L 17.70,19.51 L 19.57,20.44 L 19.68,20.44 L 21.59,19.47 L 21.59,19.44 L 20.69,18.98 L 21.62,18.50 L 21.62,18.46 L 20.72,18.01 L 20.75,17.94 L 21.62,17.53 L 21.59,17.46 L 20.79,17.08 L 20.72,17.01 L 20.75,16.97 L 21.66,16.52 L 22.59,17.01 L 22.66,17.01 L 24.57,16.03 L 24.64,16.03 L 25.48,16.45 L 25.54,16.52 L 24.64,16.97 L 24.64,17.04 L 25.58,17.49 L 27.52,16.52 L 27.49,16.45 L 26.69,16.07 L 26.66,16.00 L 27.56,15.55 Z" fill="#074756" stroke="none" /><path d="M 10.76,13.05 L 9.79,13.54 L 9.79,13.57 L 10.66,13.99 L 10.72,14.06 L 9.82,14.51 L 9.82,14.58 L 10.72,15.03 L 10.66,15.10 L 9.79,15.51 L 9.79,15.55 L 10.66,15.97 L 10.72,16.03 L 9.82,16.49 L 9.82,16.56 L 10.72,17.01 L 10.66,17.08 L 9.86,17.46 L 9.82,17.53 L 11.52,18.36 L 11.52,17.11 L 11.56,17.08 L 12.67,17.08 L 12.95,16.94 L 12.95,16.10 L 12.81,16.03 L 12.88,15.97 L 12.91,15.97 L 12.98,15.86 L 13.12,15.86 L 14.30,15.27 L 14.33,15.24 L 14.33,14.82 Z" fill="#074756" stroke="none" /><path d="M 26.59,13.05 L 26.59,13.08 L 27.45,13.50 L 27.52,13.57 L 26.62,14.02 L 26.62,14.09 L 29.47,15.51 L 29.54,15.51 L 31.41,14.58 L 31.41,14.51 L 27.59,12.60 L 27.49,12.60 Z" fill="#074756" stroke="none" /><path d="M 1.94,14.51 L 1.94,14.58 L 2.85,15.03 L 2.78,15.10 L 1.98,15.48 L 1.98,15.55 L 2.88,16.00 L 2.95,16.00 L 3.82,15.55 L 3.92,15.55 L 5.73,16.45 L 5.80,16.52 L 4.89,16.97 L 4.89,17.01 L 6.84,17.98 L 6.91,17.98 L 8.78,17.04 L 8.78,16.97 L 7.88,16.52 L 7.95,16.45 L 8.75,16.07 L 8.78,16.00 L 7.88,15.55 L 7.74,15.55 L 6.87,16.00 L 6.80,16.00 L 5.97,15.58 L 5.90,15.51 L 6.80,15.06 L 6.77,14.99 L 5.87,14.54 L 6.77,14.09 L 6.80,14.02 L 4.93,13.08 L 4.96,13.02 L 5.83,12.60 L 5.80,12.53 L 4.96,12.11 L 4.82,12.11 L 2.95,13.05 L 2.95,13.12 L 3.75,13.50 L 3.82,13.57 Z" fill="#074756" stroke="none" /><path d="M 18.43,12.18 L 18.43,12.22 L 18.50,12.25 L 18.50,13.43 L 19.40,13.43 L 19.40,13.40 L 18.81,13.12 L 18.74,13.05 L 19.64,12.60 L 19.64,12.53 L 18.74,12.08 L 18.64,12.08 Z" fill="#074756" stroke="none" /><path d="M 13.88,9.65 L 13.88,9.68 L 15.69,10.59 L 15.72,10.59 L 15.72,9.86 L 15.76,9.82 L 17.08,9.82 L 17.11,9.86 L 17.11,10.31 L 17.67,10.59 L 17.11,10.86 L 17.11,11.28 L 17.63,11.56 L 17.77,11.56 L 20.62,10.13 L 20.62,10.07 L 19.78,9.65 Z" fill="#074756" stroke="none" /><path d="M 6.87,12.11 L 8.75,13.05 L 8.85,13.05 L 9.75,12.60 L 9.75,12.53 L 8.89,12.11 L 8.85,12.08 L 8.89,12.04 L 10.76,11.11 L 10.83,11.11 L 11.66,11.52 L 11.70,11.59 L 10.79,12.04 L 10.79,12.08 L 11.73,12.56 L 11.80,12.56 L 13.74,11.59 L 13.74,11.56 L 12.88,11.14 L 12.81,11.07 L 13.71,10.62 L 13.71,10.55 L 12.81,10.10 L 12.74,10.10 L 11.77,10.59 L 9.82,9.61 L 7.88,10.59 L 7.91,10.66 L 8.71,11.04 L 8.75,11.11 L 6.87,12.04 Z" fill="#074756" stroke="none" /><path d="M 17.11,18.26 L 17.11,19.44 L 19.92,19.44 L 19.92,17.08 L 18.50,17.08 L 18.50,18.22 L 18.46,18.26 Z" fill="#134b58" stroke="none" /><path d="M 14.33,15.86 L 12.95,15.86 L 12.95,17.04 L 12.91,17.08 L 11.52,17.08 L 11.52,19.44 L 14.33,19.44 Z" fill="#134b58" stroke="none" /><path d="M 11.52,7.25 L 11.52,9.65 L 14.33,9.65 L 14.33,8.47 L 12.98,8.47 L 12.95,8.43 L 12.95,7.25 Z" fill="#134b58" stroke="none" /><path d="M 17.11,6.04 L 17.11,9.65 L 19.92,9.65 L 19.92,7.25 L 18.53,7.25 L 18.50,7.22 L 18.50,6.04 Z" fill="#134b58" stroke="none" /><path d="M 30.47,21.03 L 29.50,21.52 L 29.50,22.73 L 30.47,22.25 Z" fill="#10585d" stroke="none" /><path d="M 5.90,24.71 L 5.90,25.93 L 6.87,26.41 L 6.87,25.20 Z" fill="#005e60" stroke="none" /><path d="M 8.85,20.16 L 8.85,21.34 L 9.79,21.83 L 9.86,21.83 L 9.86,20.65 L 8.92,20.16 Z" fill="#005e60" stroke="none" /><path d="M 15.72,19.47 L 15.72,19.51 L 16.62,19.96 L 16.76,19.96 L 17.67,19.51 L 17.63,19.44 L 15.79,19.44 Z" fill="#6d747a" stroke="none" /><path d="M 11.52,18.64 L 11.52,18.36 L 11.49,18.33 L 10.86,18.01 L 10.72,18.01 L 9.82,18.46 L 9.86,18.53 L 10.76,18.98 L 10.83,18.98 Z" fill="#6d747a" stroke="none" /><path d="M 6.84,15.03 L 6.84,15.06 L 7.74,15.51 L 7.88,15.51 L 8.78,15.06 L 8.75,14.99 L 7.84,14.54 L 7.77,14.54 Z" fill="#6d747a" stroke="none" /><path d="M 20.69,14.02 L 20.72,14.09 L 21.62,14.54 L 21.69,14.54 L 22.63,14.06 L 22.63,14.02 L 21.73,13.57 L 21.59,13.57 Z" fill="#6d747a" stroke="none" /><path d="M 0.97,14.09 L 1.87,14.54 L 1.94,14.54 L 2.85,14.09 L 2.88,14.02 L 1.98,13.57 L 1.91,13.57 L 1.01,14.02 Z" fill="#6d747a" stroke="none" /><path d="M 11.90,9.65 L 11.90,9.68 L 12.74,10.10 L 12.81,10.10 L 13.64,9.68 L 13.64,9.65 Z" fill="#6d747a" stroke="none" /><path d="M 24.64,15.03 L 24.64,15.06 L 25.54,15.51 L 25.65,15.51 L 26.55,15.06 L 26.55,14.99 L 25.65,14.54 L 25.58,14.54 Z" fill="#009093" stroke="none" /><path d="M 19.68,11.56 L 19.68,11.59 L 20.65,12.08 L 21.62,11.59 L 21.62,11.56 L 20.72,11.11 L 20.58,11.11 Z" fill="#009093" stroke="none" /><path d="M 5.90,11.63 L 6.80,12.08 L 6.87,12.08 L 7.77,11.63 L 7.81,11.56 L 6.91,11.11 L 6.84,11.11 L 5.93,11.56 Z" fill="#009093" stroke="none" /><path d="M 17.11,10.31 L 17.11,10.86 L 17.18,10.86 L 17.67,10.62 L 17.67,10.55 L 17.18,10.31 Z" fill="#009093" stroke="none" /><path d="M 13.78,27.45 L 13.78,28.67 L 14.79,29.15 L 14.79,27.94 L 13.85,27.45 Z" fill="#1a8f97" stroke="none" /></svg>