<svg height="32" width="32" viewBox="0 0 32 32"><defs /><path d="M 22.09,25.15 L 22.02,25.15 L 21.11,25.62 L 21.11,26.77 L 21.04,26.84 L 20.16,27.28 L 20.16,29.62 L 22.09,28.67 Z" fill="#050709" stroke="none" /><path d="M 24.98,23.69 L 24.03,24.16 L 24.03,27.69 L 25.96,26.74 L 25.96,24.40 L 25.89,24.40 L 25.01,24.84 L 24.98,24.81 Z" fill="#050709" stroke="none" /><path d="M 23.04,18.80 L 22.97,18.80 L 22.09,19.24 L 22.09,20.39 L 22.16,20.39 L 23.04,19.95 Z" fill="#050709" stroke="none" /><path d="M 22.09,22.77 L 21.11,23.24 L 21.11,25.59 L 21.04,25.65 L 20.19,26.06 L 20.16,26.03 L 20.16,24.94 L 20.09,24.94 L 19.21,25.38 L 19.17,25.42 L 19.17,26.57 L 18.22,27.05 L 18.22,28.23 L 17.27,28.71 L 17.27,31.05 L 17.34,31.05 L 20.16,29.62 L 20.16,27.32 L 20.22,27.25 L 21.11,26.81 L 21.11,25.65 L 21.17,25.59 L 22.09,25.15 Z" fill="#070b0d" stroke="none" /><path d="M 24.03,21.79 L 24.03,24.16 L 24.94,23.72 L 24.98,23.75 L 24.98,24.87 L 25.93,24.40 L 25.96,24.43 L 25.96,26.71 L 26.03,26.71 L 26.91,26.27 L 26.91,25.11 L 27.83,24.64 L 27.89,24.67 L 27.89,25.76 L 28.84,25.28 L 28.84,22.94 L 27.93,23.38 L 27.89,23.35 L 27.89,22.23 L 26.94,22.70 L 26.91,22.67 L 26.91,21.55 L 26.88,21.55 L 25.96,22.02 L 25.96,23.18 L 25.01,23.65 L 24.98,23.62 L 24.98,21.34 L 24.91,21.34 Z" fill="#070b0d" stroke="none" /><path d="M 24.03,18.29 L 23.04,18.77 L 23.04,19.92 L 22.09,20.39 L 22.09,21.58 L 24.03,20.63 Z" fill="#070b0d" stroke="none" /><path d="M 8.65,25.15 L 8.65,28.67 L 10.59,29.62 L 10.59,27.28 L 9.71,26.84 L 9.64,26.77 L 9.64,25.62 L 8.72,25.15 Z" fill="#080c0f" stroke="none" /><path d="M 5.77,23.69 L 5.77,24.81 L 5.73,24.84 L 4.85,24.40 L 4.78,24.40 L 4.78,26.74 L 6.72,27.69 L 6.72,24.16 Z" fill="#080c0f" stroke="none" /><path d="M 6.72,18.29 L 6.72,19.44 L 7.64,19.92 L 7.70,19.92 L 7.70,18.77 Z" fill="#080c0f" stroke="none" /><path d="M 8.65,22.77 L 8.65,25.15 L 9.57,25.59 L 9.64,25.65 L 9.64,26.81 L 10.52,27.25 L 10.59,27.32 L 10.59,29.62 L 11.50,30.10 L 11.57,30.10 L 11.57,29.01 L 11.61,28.98 L 12.52,29.45 L 12.52,30.61 L 13.40,31.05 L 13.47,31.05 L 13.47,28.71 L 12.52,28.23 L 12.52,27.05 L 11.57,26.57 L 11.57,25.42 L 11.54,25.38 L 10.66,24.94 L 10.59,24.94 L 10.59,26.03 L 10.55,26.06 L 9.71,25.65 L 9.64,25.59 L 9.64,23.24 Z" fill="#0b1115" stroke="none" /><path d="M 6.72,21.79 L 5.84,21.34 L 5.77,21.34 L 5.77,23.62 L 5.73,23.65 L 4.78,23.18 L 4.78,22.02 L 3.87,21.55 L 3.83,21.55 L 3.83,22.67 L 3.80,22.70 L 2.85,22.23 L 2.85,23.35 L 2.82,23.38 L 1.90,22.94 L 1.90,25.28 L 4.72,26.71 L 4.78,26.71 L 4.78,24.43 L 4.82,24.40 L 5.77,24.87 L 5.77,23.75 L 5.80,23.72 L 6.72,24.16 Z" fill="#0b1115" stroke="none" /><path d="M 7.70,18.80 L 7.70,19.89 L 7.67,19.92 L 6.72,19.44 L 6.72,20.63 L 8.65,21.58 L 8.65,19.24 L 7.77,18.80 Z" fill="#0b1115" stroke="none" /><path d="M 24.03,26.54 L 23.04,27.01 L 23.04,28.17 L 23.11,28.17 L 24.03,27.69 Z" fill="#021216" stroke="none" /><path d="M 27.89,24.60 L 26.91,25.08 L 26.91,26.23 L 26.98,26.23 L 27.89,25.76 Z" fill="#021216" stroke="none" /><path d="M 21.11,20.90 L 19.17,21.85 L 19.17,23.01 L 19.10,23.08 L 17.27,23.99 L 17.27,25.15 L 17.20,25.21 L 15.37,26.13 L 15.37,28.47 L 15.44,28.47 L 16.22,28.06 L 16.29,28.10 L 16.29,29.18 L 16.22,29.25 L 15.37,29.66 L 15.37,32.00 L 15.44,32.00 L 16.29,31.56 L 16.29,30.44 L 16.36,30.37 L 17.27,29.93 L 17.27,28.74 L 17.31,28.71 L 18.19,28.27 L 18.22,28.30 L 18.22,29.42 L 18.29,29.42 L 19.17,28.98 L 19.17,27.79 L 19.10,27.79 L 18.26,28.23 L 18.22,28.20 L 18.22,27.08 L 19.17,26.60 L 19.17,25.45 L 19.24,25.38 L 20.12,24.94 L 20.16,24.98 L 20.16,26.10 L 21.11,25.62 Z" fill="#021216" stroke="none" /><path d="M 26.84,18.02 L 24.98,18.97 L 24.98,23.69 L 25.93,23.21 L 25.96,23.24 L 25.96,24.36 L 26.03,24.36 L 26.91,23.92 L 26.91,22.74 L 26.94,22.70 L 28.81,21.79 L 28.84,21.82 L 28.84,25.28 L 28.88,25.28 L 29.79,24.81 L 29.79,23.69 L 29.86,23.62 L 30.74,23.18 L 30.74,20.80 L 29.86,21.24 L 29.79,21.21 L 29.79,20.12 L 30.74,19.65 L 30.74,18.46 L 30.68,18.46 L 28.88,19.38 L 28.84,19.34 L 28.84,18.22 L 28.78,18.22 L 26.94,19.14 L 26.91,19.10 L 26.91,18.02 Z" fill="#021216" stroke="none" /><path d="M 26.94,15.88 L 26.88,15.88 L 17.31,20.67 L 17.27,20.73 L 21.14,18.80 L 22.02,19.24 L 22.16,19.24 L 23.99,18.32 L 23.99,18.26 L 23.21,17.88 L 23.14,17.82 L 23.18,17.78 L 26.94,15.92 Z" fill="#0d1217" stroke="none" /><path d="M 3.80,15.88 L 3.80,15.92 L 7.57,17.78 L 7.60,17.82 L 7.53,17.88 L 6.75,18.26 L 6.75,18.32 L 8.59,19.24 L 8.72,19.24 L 9.60,18.80 L 13.47,20.73 L 13.44,20.67 L 3.87,15.88 Z" fill="#0d1217" stroke="none" /><path d="M 18.22,12.49 L 18.22,12.52 L 18.26,12.52 L 18.26,12.49 Z" fill="#0d1217" stroke="none" /><path d="M 5.77,13.03 L 5.77,13.34 L 6.72,13.81 L 6.72,16.19 L 7.70,16.66 L 7.70,15.54 L 7.77,15.51 L 8.11,15.68 L 8.59,15.44 L 8.59,15.41 L 7.67,14.93 L 9.54,13.98 L 9.60,13.98 L 11.44,14.90 L 11.47,14.93 L 11.44,14.97 L 10.59,15.37 L 10.55,15.44 L 11.44,15.88 L 11.54,15.88 L 11.54,13.95 L 11.47,13.95 L 10.66,13.54 L 10.59,13.47 L 11.47,13.03 L 11.47,12.96 L 10.59,12.52 L 10.66,12.45 L 11.50,12.05 L 11.50,12.01 L 10.66,11.61 L 10.62,11.57 L 10.66,11.50 L 13.44,10.11 L 14.29,10.52 L 14.35,10.59 L 14.32,10.62 L 13.95,10.79 L 13.95,10.83 L 14.39,11.06 L 14.86,10.83 L 14.86,10.79 L 14.46,10.59 L 14.52,10.52 L 15.34,10.11 L 15.41,10.11 L 16.80,10.83 L 17.27,10.59 L 17.34,10.59 L 17.82,10.83 L 18.26,10.59 L 23.04,13.00 L 22.97,13.06 L 22.16,13.47 L 22.16,13.51 L 23.04,13.95 L 23.01,14.01 L 22.16,14.42 L 22.16,14.46 L 23.08,14.93 L 21.21,15.88 L 21.14,15.88 L 19.31,14.97 L 19.27,14.93 L 19.31,14.90 L 20.16,14.49 L 20.19,14.42 L 19.31,13.98 L 19.21,13.98 L 19.21,15.92 L 19.27,15.92 L 19.55,16.05 L 20.12,15.75 L 20.16,15.78 L 20.16,18.09 L 20.22,18.09 L 21.14,17.61 L 21.14,16.46 L 21.21,16.39 L 22.97,15.51 L 23.04,15.54 L 23.04,16.66 L 24.03,16.19 L 24.03,13.81 L 24.98,13.34 L 24.98,13.03 L 24.94,13.00 L 17.27,9.16 L 17.20,9.16 L 16.36,9.60 L 16.29,9.60 L 15.44,9.16 L 15.30,9.16 L 14.46,9.60 L 14.39,9.60 L 13.54,9.16 L 13.47,9.16 Z" fill="#0d1217" stroke="none" /><path d="M 20.16,16.36 L 20.16,16.39 L 20.19,16.39 L 20.19,16.36 Z" fill="#071419" stroke="none" /><path d="M 19.21,15.92 L 19.21,16.19 L 19.27,16.19 L 19.51,16.05 L 19.51,16.02 L 19.31,15.92 Z" fill="#071419" stroke="none" /><path d="M 11.54,13.00 L 11.47,13.00 L 10.59,13.44 L 10.55,13.51 L 11.44,13.95 L 11.54,13.95 Z" fill="#071419" stroke="none" /><path d="M 21.21,12.96 L 21.21,13.03 L 22.09,13.47 L 22.19,13.47 L 23.08,13.03 L 23.04,12.96 L 22.16,12.52 L 22.09,12.52 Z" fill="#071419" stroke="none" /><path d="M 12.52,13.13 L 12.52,12.52 L 12.42,12.52 L 11.88,12.79 L 11.91,12.86 L 12.45,13.13 Z" fill="#071419" stroke="none" /><path d="M 12.93,10.79 L 12.52,10.59 L 12.45,10.59 L 10.55,11.54 L 10.55,11.57 L 11.44,12.01 L 11.57,12.01 L 12.05,11.78 L 12.05,11.74 L 11.67,11.57 L 11.61,11.50 L 11.64,11.47 L 12.90,10.86 Z" fill="#071419" stroke="none" /><path d="M 20.16,17.34 L 20.16,17.37 L 20.19,17.37 L 20.19,17.34 Z" fill="#03191e" stroke="none" /><path d="M 9.60,16.90 L 9.60,17.61 L 9.77,17.71 L 9.84,17.71 L 10.52,17.37 L 10.49,17.31 L 9.67,16.90 Z" fill="#03191e" stroke="none" /><path d="M 11.50,15.88 L 11.50,15.92 L 11.54,15.92 L 11.54,15.88 Z" fill="#03191e" stroke="none" /><path d="M 7.64,15.88 L 7.64,15.92 L 7.70,15.92 L 7.70,15.88 Z" fill="#03191e" stroke="none" /><path d="M 19.27,14.90 L 19.27,14.97 L 20.16,15.41 L 20.26,15.41 L 21.14,14.97 L 21.14,14.90 L 20.26,14.46 L 20.16,14.46 Z" fill="#03191e" stroke="none" /><path d="M 9.60,14.90 L 9.60,14.97 L 10.49,15.41 L 10.59,15.41 L 11.47,14.97 L 11.47,14.90 L 10.59,14.46 L 10.49,14.46 Z" fill="#03191e" stroke="none" /><path d="M 7.67,14.90 L 7.67,14.97 L 8.55,15.41 L 8.48,15.47 L 8.11,15.64 L 8.14,15.71 L 9.03,16.15 L 9.09,16.15 L 9.57,15.92 L 9.57,15.88 L 8.72,15.47 L 8.65,15.41 L 9.54,14.97 L 9.54,14.90 L 8.65,14.46 L 8.55,14.46 Z" fill="#03191e" stroke="none" /><path d="M 19.21,13.95 L 19.21,13.98 L 19.24,13.98 L 19.24,13.95 Z" fill="#03191e" stroke="none" /><path d="M 22.13,13.47 L 21.17,13.95 L 21.17,13.98 L 22.02,14.39 L 22.09,14.46 L 21.21,14.90 L 21.21,14.97 L 22.09,15.41 L 22.19,15.41 L 23.08,14.97 L 23.08,14.90 L 22.19,14.46 L 22.26,14.39 L 23.11,13.98 L 23.11,13.95 Z" fill="#03191e" stroke="none" /><path d="M 20.22,12.49 L 20.26,12.56 L 21.14,13.00 L 21.21,13.00 L 22.09,12.56 L 22.09,12.49 L 21.21,12.05 L 21.11,12.05 Z" fill="#03191e" stroke="none" /><path d="M 10.55,12.49 L 10.59,12.56 L 11.47,13.00 L 11.54,13.00 L 11.54,12.73 L 11.57,12.69 L 11.88,12.83 L 12.45,12.52 L 12.45,12.49 L 11.57,12.05 L 11.44,12.05 Z" fill="#03191e" stroke="none" /><path d="M 17.82,10.79 L 17.85,10.86 L 18.73,11.30 L 18.80,11.30 L 19.21,11.10 L 19.17,11.03 L 18.29,10.59 L 18.22,10.59 Z" fill="#03191e" stroke="none" /><path d="M 12.52,10.55 L 12.52,10.62 L 12.93,10.83 L 13.40,10.59 L 13.47,10.59 L 13.91,10.83 L 14.39,10.59 L 14.86,10.83 L 15.34,10.59 L 15.41,10.59 L 15.88,10.83 L 16.32,10.59 L 16.32,10.55 L 15.44,10.11 L 15.30,10.11 L 14.46,10.55 L 14.35,10.55 L 13.51,10.11 L 13.40,10.11 Z" fill="#03191e" stroke="none" /><path d="M 17.27,29.93 L 17.20,29.93 L 16.29,30.41 L 16.29,31.56 L 17.27,31.08 Z" fill="#011a20" stroke="none" /><path d="M 16.29,28.03 L 15.37,28.47 L 15.37,29.66 L 15.44,29.66 L 16.29,29.22 Z" fill="#011a20" stroke="none" /><path d="M 24.03,25.35 L 22.09,26.30 L 22.09,28.64 L 22.16,28.64 L 23.04,28.20 L 23.04,27.05 L 24.03,26.54 Z" fill="#011a20" stroke="none" /><path d="M 16.29,24.50 L 16.22,24.50 L 15.37,24.94 L 15.37,26.13 L 16.29,25.69 Z" fill="#011a20" stroke="none" /><path d="M 30.74,23.18 L 29.79,23.65 L 29.79,24.81 L 30.74,24.33 Z" fill="#011a20" stroke="none" /><path d="M 28.84,21.75 L 27.89,22.23 L 27.89,23.41 L 28.84,22.94 Z" fill="#011a20" stroke="none" /><path d="M 21.11,19.75 L 19.17,20.70 L 19.17,21.85 L 19.24,21.85 L 21.11,20.90 Z" fill="#011a20" stroke="none" /><path d="M 26.91,19.17 L 25.96,19.65 L 25.96,20.84 L 26.91,20.36 Z" fill="#011a20" stroke="none" /><path d="M 25.96,17.34 L 25.89,17.34 L 24.98,17.82 L 24.98,18.97 L 25.96,18.49 Z" fill="#011a20" stroke="none" /><path d="M 30.74,17.27 L 30.68,17.27 L 29.79,17.71 L 29.79,18.90 L 29.86,18.90 L 30.74,18.46 Z" fill="#011a20" stroke="none" /><path d="M 24.03,16.19 L 23.96,16.19 L 23.08,16.63 L 23.04,16.59 L 23.04,15.47 L 23.01,15.47 L 21.17,16.39 L 21.14,16.42 L 21.14,17.58 L 21.07,17.65 L 20.16,18.09 L 20.16,19.24 L 20.22,19.24 L 21.14,18.77 L 21.14,17.65 L 21.21,17.58 L 22.97,16.70 L 23.04,16.73 L 23.04,17.82 L 24.03,17.34 Z" fill="#011a20" stroke="none" /><path d="M 10.59,9.47 L 9.67,9.91 L 9.64,9.87 L 9.64,8.76 L 9.60,8.76 L 7.70,9.71 L 7.70,10.89 L 6.75,11.37 L 6.75,12.52 L 6.82,12.52 L 7.70,12.08 L 7.70,10.93 L 7.74,10.89 L 9.57,9.98 L 9.64,10.01 L 9.64,11.10 L 10.55,10.66 L 10.59,10.62 Z" fill="#011a20" stroke="none" /><path d="M 19.17,21.89 L 19.10,21.89 L 17.27,22.80 L 17.27,23.96 L 17.20,24.03 L 16.29,24.47 L 16.29,25.65 L 16.36,25.65 L 17.27,25.18 L 17.27,24.03 L 17.34,23.96 L 19.17,23.04 Z" fill="#031c22" stroke="none" /><path d="M 25.96,17.31 L 25.96,18.46 L 26.03,18.46 L 26.88,18.02 L 26.91,18.05 L 26.91,19.17 L 28.81,18.22 L 28.84,18.26 L 28.84,19.38 L 28.91,19.38 L 29.79,18.94 L 29.79,17.75 L 29.73,17.75 L 28.88,18.19 L 28.84,18.15 L 28.84,17.03 L 26.94,17.99 L 26.91,17.95 L 26.91,16.87 L 26.84,16.87 Z" fill="#031c22" stroke="none" /><path d="M 11.57,28.98 L 11.57,30.13 L 12.45,30.57 L 12.52,30.57 L 12.52,29.42 L 11.64,28.98 Z" fill="#041d23" stroke="none" /><path d="M 7.70,27.05 L 7.70,28.20 L 8.59,28.64 L 8.65,28.64 L 8.65,27.49 L 7.77,27.05 Z" fill="#041d23" stroke="none" /><path d="M 9.64,20.90 L 9.64,25.62 L 10.52,26.06 L 10.59,26.13 L 10.59,27.28 L 10.62,27.32 L 11.50,27.76 L 11.57,27.76 L 11.57,26.64 L 11.61,26.60 L 13.47,27.55 L 13.47,31.08 L 14.46,31.56 L 14.46,30.47 L 14.49,30.44 L 15.30,30.85 L 15.37,30.85 L 15.37,28.47 L 14.52,28.06 L 14.46,28.00 L 14.46,26.91 L 14.49,26.88 L 15.37,27.32 L 15.37,26.13 L 13.54,25.21 L 13.47,25.15 L 13.47,23.99 L 11.64,23.08 L 11.57,23.01 L 11.57,21.85 Z" fill="#041d23" stroke="none" /><path d="M 5.77,18.97 L 3.90,18.02 L 3.83,18.02 L 3.83,19.10 L 3.80,19.14 L 1.97,18.22 L 1.90,18.22 L 1.90,19.34 L 1.87,19.38 L 0.07,18.46 L 0.00,18.46 L 0.00,20.80 L 0.88,21.24 L 0.95,21.31 L 0.95,22.40 L 0.92,22.43 L 0.00,21.99 L 0.00,24.33 L 0.95,24.81 L 0.95,23.72 L 1.02,23.69 L 1.90,24.13 L 1.90,23.01 L 1.97,22.97 L 2.78,23.38 L 2.85,23.45 L 2.85,24.60 L 3.77,25.08 L 3.83,25.08 L 3.83,23.89 L 2.92,23.45 L 2.85,23.38 L 2.85,22.29 L 2.92,22.26 L 3.77,22.70 L 3.83,22.70 L 3.83,21.62 L 3.87,21.58 L 4.72,21.99 L 4.78,22.06 L 4.78,23.21 L 5.77,23.69 Z" fill="#041d23" stroke="none" /><path d="M 17.27,20.70 L 16.36,21.14 L 16.32,21.21 L 17.24,20.77 Z" fill="#0b2129" stroke="none" /><path d="M 13.47,20.70 L 13.51,20.77 L 14.42,21.21 L 14.39,21.14 Z" fill="#0b2129" stroke="none" /><path d="M 27.89,15.41 L 27.83,15.41 L 26.94,15.85 L 26.94,15.88 L 27.01,15.88 L 27.89,15.44 Z" fill="#0b2129" stroke="none" /><path d="M 2.85,15.41 L 2.85,15.44 L 3.73,15.88 L 3.80,15.88 L 3.80,15.85 L 2.92,15.41 Z" fill="#0b2129" stroke="none" /><path d="M 13.54,9.13 L 13.54,9.20 L 14.35,9.60 L 14.49,9.60 L 15.34,9.16 L 15.41,9.16 L 16.25,9.60 L 16.39,9.60 L 17.20,9.20 L 17.20,9.13 L 16.32,8.69 L 16.25,8.69 L 15.41,9.13 L 15.34,9.13 L 14.49,8.69 L 14.42,8.69 Z" fill="#0b2129" stroke="none" /><path d="M 18.22,25.89 L 17.27,26.37 L 17.27,27.52 L 17.34,27.52 L 18.22,27.08 Z" fill="#19222b" stroke="none" /><path d="M 24.03,23.01 L 23.96,23.01 L 23.04,23.48 L 23.04,24.64 L 22.09,25.11 L 22.09,26.30 L 22.16,26.30 L 24.03,25.35 Z" fill="#19222b" stroke="none" /><path d="M 17.27,22.84 L 17.20,22.84 L 16.29,23.31 L 16.29,24.47 L 16.36,24.47 L 17.27,23.99 Z" fill="#19222b" stroke="none" /><path d="M 19.17,20.73 L 19.10,20.73 L 18.22,21.17 L 18.22,22.33 L 18.29,22.33 L 19.17,21.89 Z" fill="#19222b" stroke="none" /><path d="M 19.21,18.60 L 19.14,18.60 L 18.22,19.07 L 18.22,20.22 L 19.21,19.75 Z" fill="#19222b" stroke="none" /><path d="M 29.79,16.56 L 28.84,17.03 L 28.84,18.19 L 28.91,18.19 L 29.79,17.75 Z" fill="#19222b" stroke="none" /><path d="M 27.89,16.36 L 26.91,16.83 L 26.91,17.99 L 26.98,17.99 L 27.89,17.51 Z" fill="#19222b" stroke="none" /><path d="M 25.96,15.20 L 24.98,15.68 L 24.98,16.83 L 25.04,16.83 L 25.96,16.36 Z" fill="#19222b" stroke="none" /><path d="M 12.52,8.52 L 12.45,8.52 L 11.57,8.96 L 11.57,10.11 L 11.64,10.11 L 12.52,9.67 Z" fill="#19222b" stroke="none" /><path d="M 16.29,23.31 L 15.37,23.75 L 15.37,24.94 L 16.29,24.50 Z" fill="#2b2e31" stroke="none" /><path d="M 24.03,21.82 L 23.96,21.82 L 23.04,22.29 L 23.04,23.45 L 22.97,23.52 L 22.09,23.96 L 22.09,25.11 L 22.16,25.11 L 23.04,24.67 L 23.04,23.52 L 23.11,23.45 L 24.03,23.01 Z" fill="#2b2e31" stroke="none" /><path d="M 19.21,17.41 L 19.14,17.41 L 18.22,17.88 L 18.22,19.07 L 19.21,18.60 Z" fill="#2b2e31" stroke="none" /><path d="M 30.74,16.08 L 29.79,16.56 L 29.79,17.71 L 29.86,17.71 L 30.74,17.27 Z" fill="#2b2e31" stroke="none" /><path d="M 25.96,14.01 L 24.98,14.49 L 24.98,15.68 L 25.04,15.68 L 25.96,15.20 Z" fill="#2b2e31" stroke="none" /><path d="M 18.22,13.17 L 18.15,13.17 L 17.27,13.61 L 17.27,14.80 L 17.34,14.80 L 18.22,14.35 Z" fill="#2b2e31" stroke="none" /><path d="M 26.91,8.82 L 26.84,8.82 L 25.96,9.26 L 25.96,10.45 L 26.03,10.45 L 26.91,10.01 Z" fill="#2b2e31" stroke="none" /><path d="M 12.52,7.33 L 12.45,7.33 L 11.57,7.77 L 11.57,8.96 L 11.64,8.96 L 12.52,8.52 Z" fill="#2b2e31" stroke="none" /><path d="M 13.51,2.82 L 13.40,2.82 L 12.76,2.48 L 12.69,2.48 L 12.52,2.58 L 12.52,3.77 L 13.51,3.29 Z" fill="#2b2e31" stroke="none" /><path d="M 14.46,30.41 L 14.46,31.56 L 15.30,32.00 L 15.37,32.00 L 15.37,30.85 Z" fill="#022a33" stroke="none" /><path d="M 12.52,27.08 L 12.52,28.27 L 13.40,28.71 L 13.47,28.71 L 13.47,27.52 L 12.59,27.08 Z" fill="#022a33" stroke="none" /><path d="M 6.72,25.35 L 6.72,27.69 L 7.64,28.17 L 7.70,28.17 L 7.70,27.08 L 7.74,27.05 L 8.59,27.49 L 8.65,27.49 L 8.65,26.30 Z" fill="#022a33" stroke="none" /><path d="M 14.46,24.50 L 14.46,25.69 L 15.37,26.13 L 15.37,24.94 L 14.52,24.50 Z" fill="#022a33" stroke="none" /><path d="M 0.95,23.65 L 0.95,24.81 L 1.90,25.28 L 1.90,24.13 Z" fill="#022a33" stroke="none" /><path d="M 10.59,22.57 L 10.59,23.75 L 11.57,24.23 L 11.57,23.04 L 10.66,22.57 Z" fill="#022a33" stroke="none" /><path d="M 0.00,20.80 L 0.00,21.99 L 0.95,22.46 L 0.95,21.28 Z" fill="#022a33" stroke="none" /><path d="M 9.64,19.75 L 9.64,20.90 L 10.59,21.38 L 10.59,20.22 Z" fill="#022a33" stroke="none" /><path d="M 0.00,17.27 L 0.00,18.46 L 0.88,18.90 L 0.95,18.90 L 0.95,17.71 L 0.07,17.27 Z" fill="#022a33" stroke="none" /><path d="M 3.83,16.87 L 3.83,18.02 L 5.77,18.97 L 5.77,17.82 L 3.90,16.87 Z" fill="#022a33" stroke="none" /><path d="M 6.72,16.19 L 6.72,17.34 L 7.70,17.82 L 7.70,16.73 L 7.77,16.70 L 9.54,17.58 L 9.60,17.65 L 9.60,18.77 L 10.52,19.24 L 10.59,19.24 L 10.59,18.09 L 9.67,17.65 L 9.60,17.58 L 9.60,16.42 L 9.57,16.39 L 7.74,15.47 L 7.70,15.47 L 7.70,16.59 L 7.67,16.63 L 6.79,16.19 Z" fill="#022a33" stroke="none" /><path d="M 20.16,9.47 L 20.16,10.62 L 20.19,10.66 L 21.11,11.10 L 21.11,10.01 L 21.17,9.98 L 23.01,10.89 L 23.04,10.93 L 23.04,12.08 L 23.92,12.52 L 23.99,12.52 L 23.99,11.37 L 23.04,10.89 L 23.04,9.71 L 21.14,8.76 L 21.11,8.76 L 21.11,9.87 L 21.07,9.91 Z" fill="#022a33" stroke="none" /><path d="M 18.22,21.21 L 18.15,21.21 L 17.27,21.65 L 17.27,22.80 L 17.34,22.80 L 18.22,22.36 Z" fill="#404535" stroke="none" /><path d="M 22.09,20.43 L 22.02,20.43 L 21.11,20.90 L 21.11,22.06 L 21.17,22.06 L 22.09,21.58 Z" fill="#404535" stroke="none" /><path d="M 16.29,18.87 L 16.22,18.87 L 15.37,19.31 L 15.37,21.65 L 16.29,21.21 Z" fill="#404535" stroke="none" /><path d="M 24.98,17.82 L 24.03,18.29 L 24.03,19.44 L 24.98,18.97 Z" fill="#404535" stroke="none" /><path d="M 18.22,16.70 L 17.27,17.17 L 17.27,18.36 L 18.22,17.88 Z" fill="#404535" stroke="none" /><path d="M 28.84,15.88 L 27.89,16.36 L 27.89,17.51 L 28.84,17.03 Z" fill="#404535" stroke="none" /><path d="M 17.27,14.83 L 17.20,14.83 L 16.29,15.30 L 16.29,16.49 L 17.27,16.02 Z" fill="#404535" stroke="none" /><path d="M 28.81,12.59 L 27.89,13.03 L 27.89,15.37 L 27.96,15.37 L 28.81,14.93 Z" fill="#404535" stroke="none" /><path d="M 26.91,12.35 L 25.96,12.83 L 25.96,14.01 L 26.91,13.54 Z" fill="#404535" stroke="none" /><path d="M 27.89,9.50 L 26.91,9.98 L 26.91,11.16 L 26.98,11.16 L 27.89,10.69 Z" fill="#404535" stroke="none" /><path d="M 15.37,5.90 L 15.30,5.90 L 14.46,6.35 L 14.46,8.69 L 15.37,8.25 Z" fill="#404535" stroke="none" /><path d="M 13.51,5.67 L 13.44,5.67 L 12.52,6.14 L 12.52,7.30 L 12.59,7.30 L 13.51,6.82 Z" fill="#404535" stroke="none" /><path d="M 14.46,2.82 L 14.39,2.82 L 13.51,3.26 L 13.51,4.45 L 13.57,4.45 L 14.46,4.00 Z" fill="#404535" stroke="none" /><path d="M 17.27,21.68 L 17.20,21.68 L 16.29,22.16 L 16.29,23.31 L 17.27,22.84 Z" fill="#333c36" stroke="none" /><path d="M 22.06,21.58 L 21.11,22.06 L 21.11,23.24 L 21.17,23.24 L 22.06,22.80 L 22.09,22.84 L 22.09,23.96 L 22.13,23.96 L 23.04,23.48 L 23.04,22.29 L 22.13,22.74 L 22.09,22.70 L 22.09,21.58 Z" fill="#333c36" stroke="none" /><path d="M 24.98,20.16 L 24.91,20.16 L 24.03,20.60 L 24.03,21.79 L 24.09,21.79 L 24.98,21.34 Z" fill="#333c36" stroke="none" /><path d="M 18.22,19.07 L 17.27,19.55 L 17.27,20.70 L 18.22,20.22 Z" fill="#333c36" stroke="none" /><path d="M 20.16,18.12 L 20.09,18.12 L 19.21,18.56 L 19.21,19.72 L 19.27,19.72 L 20.16,19.27 Z" fill="#333c36" stroke="none" /><path d="M 24.98,15.71 L 24.91,15.71 L 24.03,16.15 L 24.03,17.31 L 24.09,17.31 L 24.98,16.87 Z" fill="#333c36" stroke="none" /><path d="M 29.79,15.41 L 28.84,15.88 L 28.84,17.03 L 29.79,16.56 Z" fill="#333c36" stroke="none" /><path d="M 26.91,14.73 L 25.96,15.20 L 25.96,16.36 L 26.91,15.88 Z" fill="#333c36" stroke="none" /><path d="M 15.37,14.56 L 15.37,15.75 L 15.44,15.75 L 17.24,14.83 L 17.27,14.86 L 17.27,17.17 L 18.19,16.73 L 18.22,16.76 L 18.22,17.88 L 19.21,17.41 L 19.21,16.22 L 19.14,16.22 L 18.29,16.66 L 18.22,16.63 L 18.22,14.35 L 18.15,14.35 L 17.31,14.80 L 17.27,14.76 L 17.27,13.64 L 17.20,13.64 Z" fill="#333c36" stroke="none" /><path d="M 6.75,11.40 L 6.69,11.40 L 5.77,11.88 L 5.77,13.03 L 6.75,12.56 Z" fill="#333c36" stroke="none" /><path d="M 5.53,9.64 L 5.53,9.67 L 5.77,9.77 L 5.77,9.54 L 5.70,9.54 Z" fill="#333c36" stroke="none" /><path d="M 11.57,8.99 L 11.50,8.99 L 10.59,9.47 L 10.59,10.62 L 11.57,10.15 Z" fill="#333c36" stroke="none" /><path d="M 4.78,8.14 L 4.78,9.30 L 4.82,9.30 L 4.82,8.14 Z" fill="#333c36" stroke="none" /><path d="M 13.51,8.01 L 12.52,8.48 L 12.52,9.64 L 12.59,9.64 L 13.51,9.16 Z" fill="#333c36" stroke="none" /><path d="M 28.81,7.87 L 28.74,7.87 L 26.91,8.79 L 26.91,9.98 L 25.96,10.45 L 25.96,12.79 L 25.89,12.86 L 24.98,13.30 L 24.98,14.49 L 25.04,14.49 L 25.96,14.01 L 25.96,12.86 L 26.03,12.79 L 26.91,12.35 L 26.91,10.01 L 28.81,9.06 Z" fill="#333c36" stroke="none" /><path d="M 14.83,2.55 L 14.49,2.38 L 14.35,2.38 L 13.54,2.78 L 13.51,2.82 L 13.51,3.26 L 13.47,3.29 L 12.52,3.77 L 12.52,6.11 L 12.45,6.18 L 11.57,6.62 L 11.57,7.77 L 11.64,7.77 L 12.52,7.33 L 12.52,6.18 L 12.59,6.11 L 13.51,5.67 L 13.51,3.29 L 14.86,2.61 Z" fill="#333c36" stroke="none" /><path d="M 10.59,17.37 L 10.52,17.34 L 9.84,17.68 L 9.84,17.75 L 10.52,18.09 L 10.59,18.09 Z" fill="#033a37" stroke="none" /><path d="M 9.50,13.98 L 8.62,14.42 L 8.65,14.49 L 9.54,14.93 L 8.65,15.37 L 8.62,15.44 L 9.50,15.88 L 9.47,15.95 L 9.09,16.12 L 9.09,16.19 L 9.54,16.39 L 9.60,16.46 L 9.60,16.83 L 9.67,16.83 L 10.59,16.36 L 10.59,15.78 L 10.62,15.75 L 11.20,16.05 L 11.50,15.92 L 11.50,15.88 L 9.64,14.97 L 9.60,14.93 L 9.64,14.90 L 10.49,14.49 L 10.52,14.42 L 9.64,13.98 Z" fill="#033a37" stroke="none" /><path d="M 21.14,13.00 L 19.24,13.95 L 19.24,13.98 L 21.11,14.90 L 21.14,14.93 L 21.11,14.97 L 20.26,15.37 L 20.22,15.44 L 21.11,15.88 L 21.24,15.88 L 22.13,15.44 L 22.09,15.37 L 21.21,14.93 L 22.13,14.46 L 22.13,14.42 L 21.24,13.98 L 21.28,13.91 L 22.13,13.51 L 22.13,13.47 L 21.21,13.00 Z" fill="#033a37" stroke="none" /><path d="M 11.50,12.01 L 11.50,12.05 L 12.45,12.52 L 12.52,12.52 L 12.52,11.98 L 12.11,11.78 L 11.98,11.78 Z" fill="#033a37" stroke="none" /><path d="M 18.80,11.27 L 18.80,11.33 L 19.14,11.50 L 19.07,11.57 L 18.70,11.74 L 18.70,11.78 L 20.19,12.52 L 21.14,12.05 L 21.14,12.01 L 19.24,11.06 Z" fill="#033a37" stroke="none" /><path d="M 15.88,10.79 L 15.92,10.86 L 16.32,11.06 L 16.80,10.83 L 16.80,10.79 L 16.39,10.59 L 16.29,10.59 Z" fill="#033a37" stroke="none" /><path d="M 10.59,20.22 L 10.59,21.38 L 11.57,21.89 L 11.57,23.04 L 13.40,23.96 L 13.47,24.03 L 13.47,25.18 L 14.39,25.65 L 14.46,25.65 L 14.46,24.47 L 13.54,24.03 L 13.47,23.96 L 13.47,22.80 L 11.61,21.89 L 11.57,21.85 L 11.57,20.70 Z" fill="#042e38" stroke="none" /><path d="M 0.95,17.75 L 0.95,18.94 L 1.83,19.38 L 1.90,19.38 L 1.90,18.26 L 1.93,18.22 L 3.83,19.17 L 3.83,17.99 L 1.93,17.03 L 1.90,17.03 L 1.90,18.15 L 1.87,18.19 L 1.02,17.75 Z" fill="#042e38" stroke="none" /><path d="M 20.16,22.57 L 20.09,22.57 L 19.17,23.04 L 19.17,24.23 L 20.16,23.75 Z" fill="#003a3b" stroke="none" /><path d="M 30.74,19.65 L 30.68,19.65 L 29.79,20.09 L 29.79,21.28 L 30.74,20.80 Z" fill="#003a3b" stroke="none" /><path d="M 16.29,22.16 L 15.37,22.60 L 15.37,23.75 L 15.44,23.75 L 16.29,23.31 Z" fill="#4a4d3d" stroke="none" /><path d="M 22.09,19.27 L 22.02,19.27 L 21.11,19.75 L 21.11,20.90 L 22.09,20.43 Z" fill="#4a4d3d" stroke="none" /><path d="M 24.98,18.97 L 24.03,19.44 L 24.03,20.60 L 23.99,20.63 L 22.09,21.58 L 22.09,22.77 L 24.03,21.82 L 24.03,20.63 L 24.98,20.16 Z" fill="#4a4d3d" stroke="none" /><path d="M 18.22,17.88 L 17.27,18.36 L 17.27,19.51 L 17.20,19.58 L 16.29,20.02 L 16.29,21.17 L 16.36,21.17 L 17.27,20.70 L 17.27,19.58 L 17.34,19.51 L 18.22,19.07 Z" fill="#4a4d3d" stroke="none" /><path d="M 23.04,16.66 L 21.14,17.61 L 21.14,18.77 L 23.04,17.82 Z" fill="#4a4d3d" stroke="none" /><path d="M 16.29,15.30 L 15.37,15.75 L 15.37,19.31 L 16.29,18.87 Z" fill="#4a4d3d" stroke="none" /><path d="M 30.74,14.93 L 29.79,15.41 L 29.79,16.56 L 30.74,16.08 Z" fill="#4a4d3d" stroke="none" /><path d="M 19.17,13.85 L 18.22,14.32 L 18.22,16.70 L 19.17,16.22 L 19.21,16.25 L 19.21,18.56 L 19.27,18.56 L 20.16,18.12 L 20.16,15.75 L 20.09,15.75 L 19.24,16.19 L 19.21,16.15 L 19.21,13.85 Z" fill="#4a4d3d" stroke="none" /><path d="M 26.88,13.54 L 25.96,14.01 L 25.96,15.20 L 26.88,14.76 L 26.91,14.80 L 26.91,15.88 L 26.94,15.88 L 27.89,15.41 L 27.89,14.25 L 27.83,14.25 L 26.94,14.69 L 26.91,14.66 L 26.91,13.54 Z" fill="#4a4d3d" stroke="none" /><path d="M 17.27,12.49 L 17.20,12.49 L 16.29,12.96 L 16.29,14.12 L 17.27,13.64 Z" fill="#4a4d3d" stroke="none" /><path d="M 25.96,10.49 L 25.89,10.49 L 24.98,10.96 L 24.98,13.30 L 24.03,13.78 L 24.03,16.15 L 24.09,16.15 L 24.98,15.71 L 24.98,13.34 L 25.96,12.83 Z" fill="#4a4d3d" stroke="none" /><path d="M 9.64,9.94 L 7.70,10.89 L 7.70,12.05 L 7.77,12.05 L 9.64,11.10 Z" fill="#4a4d3d" stroke="none" /><path d="M 28.81,9.06 L 28.74,9.06 L 27.89,9.50 L 27.89,13.03 L 27.96,13.03 L 28.81,12.59 Z" fill="#4a4d3d" stroke="none" /><path d="M 4.82,8.14 L 4.82,9.30 L 5.46,9.64 L 5.57,9.64 L 5.73,9.54 L 5.77,9.57 L 5.77,11.88 L 5.80,11.88 L 6.75,11.40 L 6.75,9.03 L 5.80,9.50 L 5.77,9.47 L 5.77,8.62 Z" fill="#4a4d3d" stroke="none" /><path d="M 27.89,7.16 L 26.91,7.64 L 26.91,8.79 L 26.98,8.79 L 27.89,8.31 Z" fill="#4a4d3d" stroke="none" /><path d="M 13.47,6.82 L 12.52,7.30 L 12.52,8.48 L 12.59,8.48 L 13.47,8.04 L 13.51,8.08 L 13.51,9.16 L 13.54,9.16 L 14.46,8.69 L 14.46,7.53 L 13.54,7.97 L 13.51,7.94 L 13.51,6.82 Z" fill="#4a4d3d" stroke="none" /><path d="M 12.52,3.77 L 11.57,4.24 L 11.57,6.58 L 11.50,6.65 L 10.59,7.09 L 10.59,9.47 L 11.57,8.99 L 11.57,6.65 L 11.64,6.58 L 12.52,6.14 Z" fill="#4a4d3d" stroke="none" /><path d="M 14.90,2.58 L 14.46,2.78 L 14.46,6.35 L 15.37,5.90 L 15.37,2.82 Z" fill="#4a4d3d" stroke="none" /><path d="M 7.70,23.48 L 7.70,24.60 L 7.67,24.64 L 6.72,24.16 L 6.72,25.35 L 8.59,26.30 L 8.65,26.30 L 8.65,23.96 Z" fill="#293845" stroke="none" /><path d="M 13.47,22.84 L 13.47,23.99 L 14.39,24.47 L 14.46,24.47 L 14.46,23.31 L 13.54,22.84 Z" fill="#293845" stroke="none" /><path d="M 11.57,20.73 L 11.57,21.89 L 12.45,22.33 L 12.52,22.33 L 12.52,21.17 L 11.64,20.73 Z" fill="#293845" stroke="none" /><path d="M 1.90,20.60 L 1.90,21.75 L 2.85,22.23 L 2.85,21.04 L 1.97,20.60 Z" fill="#293845" stroke="none" /><path d="M 11.54,18.60 L 11.54,19.75 L 12.52,20.22 L 12.52,19.07 L 11.61,18.60 Z" fill="#293845" stroke="none" /><path d="M 0.95,16.56 L 0.95,17.75 L 1.83,18.19 L 1.90,18.19 L 1.90,17.03 Z" fill="#293845" stroke="none" /><path d="M 2.85,16.36 L 2.85,17.51 L 3.77,17.99 L 3.83,17.99 L 3.83,16.83 Z" fill="#293845" stroke="none" /><path d="M 4.78,15.20 L 4.78,16.36 L 5.70,16.83 L 5.77,16.83 L 5.77,15.68 Z" fill="#293845" stroke="none" /><path d="M 18.22,8.52 L 18.22,9.67 L 19.10,10.11 L 19.17,10.11 L 19.17,8.96 L 18.29,8.52 Z" fill="#293845" stroke="none" /><path d="M 17.27,16.02 L 17.20,16.02 L 16.29,16.49 L 16.29,20.02 L 16.36,20.02 L 17.27,19.55 Z" fill="#535548" stroke="none" /><path d="M 16.29,12.96 L 15.37,13.40 L 15.37,14.56 L 15.44,14.56 L 16.29,14.12 Z" fill="#535548" stroke="none" /><path d="M 18.15,12.01 L 17.27,12.45 L 17.27,13.61 L 17.34,13.61 L 18.19,13.17 L 18.22,13.20 L 18.22,14.32 L 18.29,14.32 L 19.21,13.85 L 19.21,12.66 L 18.26,13.13 L 18.22,13.10 L 18.22,12.01 Z" fill="#535548" stroke="none" /><path d="M 27.89,10.69 L 26.91,11.16 L 26.91,14.73 L 27.89,14.25 Z" fill="#535548" stroke="none" /><path d="M 26.91,7.67 L 26.84,7.67 L 25.96,8.11 L 25.96,9.26 L 24.98,9.77 L 24.98,10.96 L 25.96,10.49 L 25.96,9.30 L 26.91,8.82 Z" fill="#535548" stroke="none" /><path d="M 28.81,6.72 L 28.74,6.72 L 27.89,7.16 L 27.89,8.31 L 28.81,7.87 Z" fill="#535548" stroke="none" /><path d="M 14.46,4.00 L 14.39,4.00 L 13.51,4.45 L 13.51,8.01 L 14.46,7.53 Z" fill="#535548" stroke="none" /><path d="M 12.69,2.44 L 12.52,2.38 L 12.52,2.55 L 12.45,2.61 L 11.57,3.05 L 11.57,4.24 L 12.52,3.77 L 12.52,2.61 L 12.59,2.55 L 12.69,2.51 Z" fill="#535548" stroke="none" /><path d="M 14.42,21.17 L 14.46,21.24 L 15.34,21.68 L 15.41,21.68 L 16.32,21.21 L 16.32,21.17 L 16.29,21.17 L 15.37,21.65 Z" fill="#03404f" stroke="none" /><path d="M 21.11,19.72 L 20.22,19.27 L 20.16,19.27 L 18.26,20.22 L 18.26,20.26 L 19.14,20.70 L 19.24,20.70 L 21.07,19.78 Z" fill="#03404f" stroke="none" /><path d="M 9.64,19.72 L 9.67,19.78 L 11.50,20.70 L 11.61,20.70 L 12.49,20.26 L 12.49,20.22 L 10.59,19.27 L 10.52,19.27 Z" fill="#03404f" stroke="none" /><path d="M 26.91,16.83 L 26.06,16.39 L 25.93,16.39 L 24.09,17.31 L 24.09,17.37 L 25.01,17.82 L 26.91,16.87 Z" fill="#03404f" stroke="none" /><path d="M 3.83,16.83 L 3.83,16.87 L 5.73,17.82 L 6.65,17.37 L 6.65,17.31 L 4.82,16.39 L 4.68,16.39 Z" fill="#03404f" stroke="none" /><path d="M 28.84,14.90 L 27.89,15.37 L 27.89,15.41 L 27.96,15.41 L 28.84,14.97 Z" fill="#03404f" stroke="none" /><path d="M 1.90,14.90 L 1.90,14.97 L 2.78,15.41 L 2.85,15.41 L 2.85,15.37 Z" fill="#03404f" stroke="none" /><path d="M 14.49,8.65 L 14.49,8.72 L 15.30,9.13 L 15.44,9.13 L 16.25,8.72 L 16.25,8.65 L 15.44,8.25 L 15.30,8.25 Z" fill="#03404f" stroke="none" /><path d="M 14.46,23.31 L 14.46,24.50 L 15.37,24.94 L 15.37,23.75 Z" fill="#474b4f" stroke="none" /><path d="M 7.74,22.29 L 7.70,22.29 L 7.70,23.41 L 7.67,23.45 L 6.79,23.01 L 6.72,23.01 L 6.72,24.16 L 7.64,24.64 L 7.70,24.64 L 7.70,23.55 L 7.74,23.52 L 8.65,23.96 L 8.65,22.77 Z" fill="#474b4f" stroke="none" /><path d="M 11.54,17.41 L 11.54,18.60 L 12.52,19.07 L 12.52,17.88 L 11.61,17.41 Z" fill="#474b4f" stroke="none" /><path d="M 0.00,16.08 L 0.00,17.27 L 0.88,17.71 L 0.95,17.71 L 0.95,16.56 Z" fill="#474b4f" stroke="none" /><path d="M 4.78,14.01 L 4.78,15.20 L 5.70,15.68 L 5.77,15.68 L 5.77,14.49 Z" fill="#474b4f" stroke="none" /><path d="M 12.52,13.17 L 12.52,14.35 L 13.40,14.80 L 13.47,14.80 L 13.47,13.61 L 12.59,13.17 Z" fill="#474b4f" stroke="none" /><path d="M 3.83,8.82 L 3.83,10.01 L 4.72,10.45 L 4.78,10.45 L 4.78,9.26 L 3.90,8.82 Z" fill="#474b4f" stroke="none" /><path d="M 18.22,7.33 L 18.22,8.52 L 19.10,8.96 L 19.17,8.96 L 19.17,7.77 L 18.29,7.33 Z" fill="#474b4f" stroke="none" /><path d="M 17.24,2.82 L 17.24,3.29 L 18.22,3.77 L 18.22,2.58 L 18.05,2.48 L 17.99,2.48 L 17.34,2.82 Z" fill="#474b4f" stroke="none" /><path d="M 12.52,21.21 L 12.52,22.36 L 13.40,22.80 L 13.47,22.80 L 13.47,21.65 L 12.59,21.21 Z" fill="#687056" stroke="none" /><path d="M 8.65,19.27 L 8.65,20.43 L 9.64,20.90 L 9.64,19.75 L 8.72,19.27 Z" fill="#687056" stroke="none" /><path d="M 5.77,18.97 L 5.77,20.16 L 6.65,20.60 L 6.72,20.60 L 6.72,19.44 Z" fill="#687056" stroke="none" /><path d="M 14.46,18.87 L 14.46,21.21 L 15.37,21.65 L 15.37,19.31 L 14.52,18.87 Z" fill="#687056" stroke="none" /><path d="M 12.52,16.70 L 12.52,17.88 L 13.47,18.36 L 13.47,17.17 Z" fill="#687056" stroke="none" /><path d="M 1.90,15.88 L 1.90,17.03 L 2.85,17.51 L 2.85,16.36 Z" fill="#687056" stroke="none" /><path d="M 13.47,14.83 L 13.47,16.02 L 14.46,16.49 L 14.46,15.30 L 13.54,14.83 Z" fill="#687056" stroke="none" /><path d="M 1.93,12.59 L 1.93,14.93 L 2.78,15.37 L 2.85,15.37 L 2.85,13.03 Z" fill="#687056" stroke="none" /><path d="M 3.83,12.35 L 3.83,13.54 L 4.78,14.01 L 4.78,12.83 Z" fill="#687056" stroke="none" /><path d="M 2.85,9.50 L 2.85,10.69 L 3.77,11.16 L 3.83,11.16 L 3.83,9.98 Z" fill="#687056" stroke="none" /><path d="M 15.37,5.90 L 15.37,8.25 L 16.29,8.69 L 16.29,6.35 L 15.44,5.90 Z" fill="#687056" stroke="none" /><path d="M 17.24,5.67 L 17.24,6.82 L 18.15,7.30 L 18.22,7.30 L 18.22,6.14 L 17.31,5.67 Z" fill="#687056" stroke="none" /><path d="M 16.29,2.82 L 16.29,4.00 L 17.17,4.45 L 17.24,4.45 L 17.24,3.26 L 16.36,2.82 Z" fill="#687056" stroke="none" /><path d="M 13.47,21.68 L 13.47,22.84 L 14.46,23.31 L 14.46,22.16 L 13.54,21.68 Z" fill="#536257" stroke="none" /><path d="M 8.65,21.58 L 8.65,22.77 L 9.57,23.24 L 9.64,23.24 L 9.64,22.06 Z" fill="#536257" stroke="none" /><path d="M 5.77,20.16 L 5.77,21.34 L 6.72,21.82 L 6.72,23.01 L 7.70,23.48 L 7.70,22.29 L 6.72,21.79 L 6.72,20.60 L 5.84,20.16 Z" fill="#536257" stroke="none" /><path d="M 12.52,19.07 L 12.52,20.22 L 13.47,20.70 L 13.47,19.55 Z" fill="#536257" stroke="none" /><path d="M 10.59,18.12 L 10.59,19.27 L 11.47,19.72 L 11.54,19.72 L 11.54,18.56 L 10.66,18.12 Z" fill="#536257" stroke="none" /><path d="M 5.77,15.71 L 5.77,16.87 L 6.65,17.31 L 6.72,17.31 L 6.72,16.15 L 5.84,15.71 Z" fill="#536257" stroke="none" /><path d="M 0.95,15.41 L 0.95,16.56 L 1.90,17.03 L 1.90,15.88 Z" fill="#536257" stroke="none" /><path d="M 3.83,14.73 L 3.83,15.88 L 4.78,16.36 L 4.78,15.20 Z" fill="#536257" stroke="none" /><path d="M 15.37,14.56 L 13.54,13.64 L 13.47,13.64 L 13.47,14.76 L 13.44,14.80 L 12.59,14.35 L 12.52,14.35 L 12.52,16.63 L 12.45,16.66 L 11.61,16.22 L 11.54,16.22 L 11.54,17.41 L 12.52,17.88 L 12.52,16.76 L 12.56,16.73 L 13.47,17.17 L 13.47,14.86 L 13.51,14.83 L 15.30,15.75 L 15.37,15.75 Z" fill="#536257" stroke="none" /><path d="M 23.99,11.40 L 23.99,12.56 L 24.98,13.03 L 24.98,11.88 L 24.06,11.40 Z" fill="#536257" stroke="none" /><path d="M 24.98,9.54 L 24.98,9.77 L 25.21,9.67 L 25.18,9.60 L 25.04,9.54 Z" fill="#536257" stroke="none" /><path d="M 19.17,8.99 L 19.17,10.15 L 20.16,10.62 L 20.16,9.47 L 19.24,8.99 Z" fill="#536257" stroke="none" /><path d="M 25.93,8.14 L 25.93,9.30 L 25.96,9.30 L 25.96,8.14 Z" fill="#536257" stroke="none" /><path d="M 17.24,8.01 L 17.24,9.16 L 18.15,9.64 L 18.22,9.64 L 18.22,8.48 Z" fill="#536257" stroke="none" /><path d="M 1.93,7.87 L 1.93,9.06 L 3.83,10.01 L 3.83,12.35 L 4.72,12.79 L 4.78,12.86 L 4.78,14.01 L 5.70,14.49 L 5.77,14.49 L 5.77,13.30 L 4.85,12.86 L 4.78,12.79 L 4.78,10.45 L 3.83,9.98 L 3.83,8.79 L 2.00,7.87 Z" fill="#536257" stroke="none" /><path d="M 15.92,2.55 L 15.88,2.61 L 17.24,3.29 L 17.24,5.67 L 18.15,6.11 L 18.22,6.18 L 18.22,7.33 L 19.10,7.77 L 19.17,7.77 L 19.17,6.62 L 18.29,6.18 L 18.22,6.11 L 18.22,3.77 L 17.27,3.29 L 17.24,3.26 L 17.24,2.82 L 17.20,2.78 L 16.39,2.38 L 16.25,2.38 Z" fill="#536257" stroke="none" /><path d="M 10.59,16.36 L 9.60,16.83 L 9.60,16.90 L 10.59,17.37 Z" fill="#005758" stroke="none" /><path d="M 11.23,16.02 L 11.27,16.08 L 11.47,16.19 L 11.54,16.19 L 11.54,15.92 L 11.44,15.92 Z" fill="#005758" stroke="none" /><path d="M 18.22,11.98 L 18.22,13.13 L 18.29,13.13 L 19.14,12.69 L 19.21,12.73 L 19.21,13.95 L 19.31,13.95 L 21.14,13.03 L 21.14,12.96 L 18.77,11.78 L 18.63,11.78 Z" fill="#005758" stroke="none" /><path d="M 14.46,26.88 L 14.46,28.03 L 15.30,28.47 L 15.37,28.47 L 15.37,27.32 L 14.52,26.88 Z" fill="#005e60" stroke="none" /><path d="M 3.83,19.17 L 3.83,20.36 L 4.78,20.84 L 4.78,19.65 Z" fill="#005e60" stroke="none" /><path d="M 14.46,22.16 L 14.46,23.31 L 15.30,23.75 L 15.37,23.75 L 15.37,22.60 Z" fill="#787d63" stroke="none" /><path d="M 9.64,20.90 L 8.72,20.43 L 8.65,20.43 L 8.65,21.51 L 8.59,21.55 L 6.79,20.63 L 6.72,20.63 L 6.72,21.82 L 8.65,22.77 L 8.65,21.65 L 8.69,21.62 L 9.57,22.06 L 9.64,22.06 Z" fill="#787d63" stroke="none" /><path d="M 12.52,17.88 L 12.52,19.07 L 13.40,19.51 L 13.47,19.58 L 13.47,20.70 L 14.39,21.17 L 14.46,21.17 L 14.46,20.02 L 13.54,19.58 L 13.47,19.51 L 13.47,18.36 Z" fill="#787d63" stroke="none" /><path d="M 5.77,17.82 L 5.77,18.97 L 6.72,19.44 L 6.72,18.29 Z" fill="#787d63" stroke="none" /><path d="M 7.70,16.66 L 7.70,17.82 L 9.60,18.77 L 9.60,17.61 Z" fill="#787d63" stroke="none" /><path d="M 14.46,15.30 L 14.46,18.87 L 15.37,19.31 L 15.37,15.75 Z" fill="#787d63" stroke="none" /><path d="M 0.00,14.93 L 0.00,16.08 L 0.95,16.56 L 0.95,15.41 Z" fill="#787d63" stroke="none" /><path d="M 11.57,13.85 L 11.54,13.85 L 11.54,16.15 L 11.50,16.19 L 10.66,15.75 L 10.59,15.75 L 10.59,18.12 L 11.47,18.56 L 11.54,18.56 L 11.54,16.25 L 11.57,16.22 L 12.52,16.70 L 12.52,14.32 Z" fill="#787d63" stroke="none" /><path d="M 3.87,13.54 L 3.83,13.54 L 3.83,14.66 L 3.80,14.69 L 2.92,14.25 L 2.85,14.25 L 2.85,15.41 L 3.80,15.88 L 3.83,15.88 L 3.83,14.80 L 3.87,14.76 L 4.78,15.20 L 4.78,14.01 Z" fill="#787d63" stroke="none" /><path d="M 13.47,12.49 L 13.47,13.64 L 14.46,14.12 L 14.46,12.96 L 13.54,12.49 Z" fill="#787d63" stroke="none" /><path d="M 4.78,10.49 L 4.78,12.83 L 5.77,13.34 L 5.77,15.71 L 6.65,16.15 L 6.72,16.15 L 6.72,13.78 L 5.77,13.30 L 5.77,10.96 L 4.85,10.49 Z" fill="#787d63" stroke="none" /><path d="M 21.11,9.94 L 21.11,11.10 L 22.97,12.05 L 23.04,12.05 L 23.04,10.89 Z" fill="#787d63" stroke="none" /><path d="M 1.93,9.06 L 1.93,12.59 L 2.78,13.03 L 2.85,13.03 L 2.85,9.50 L 2.00,9.06 Z" fill="#787d63" stroke="none" /><path d="M 25.93,8.14 L 24.98,8.62 L 24.98,9.47 L 24.94,9.50 L 23.99,9.03 L 23.99,11.40 L 24.94,11.88 L 24.98,11.88 L 24.98,9.57 L 25.01,9.54 L 25.18,9.64 L 25.28,9.64 L 25.93,9.30 Z" fill="#787d63" stroke="none" /><path d="M 2.85,7.16 L 2.85,8.31 L 3.77,8.79 L 3.83,8.79 L 3.83,7.64 Z" fill="#787d63" stroke="none" /><path d="M 17.27,6.82 L 17.24,6.82 L 17.24,7.94 L 17.20,7.97 L 16.29,7.53 L 16.29,8.69 L 17.20,9.16 L 17.24,9.16 L 17.24,8.08 L 17.27,8.04 L 18.15,8.48 L 18.22,8.48 L 18.22,7.30 Z" fill="#787d63" stroke="none" /><path d="M 18.22,3.77 L 18.22,6.14 L 19.10,6.58 L 19.17,6.65 L 19.17,8.99 L 20.16,9.47 L 20.16,7.09 L 19.24,6.65 L 19.17,6.58 L 19.17,4.24 Z" fill="#787d63" stroke="none" /><path d="M 15.85,2.58 L 15.37,2.82 L 15.37,5.90 L 16.29,6.35 L 16.29,2.78 Z" fill="#787d63" stroke="none" /><path d="M 13.47,16.02 L 13.47,19.55 L 14.39,20.02 L 14.46,20.02 L 14.46,16.49 L 13.54,16.02 Z" fill="#868975" stroke="none" /><path d="M 14.46,12.96 L 14.46,14.12 L 15.30,14.56 L 15.37,14.56 L 15.37,13.40 Z" fill="#868975" stroke="none" /><path d="M 12.59,12.01 L 12.52,12.01 L 12.52,13.10 L 12.49,13.13 L 11.54,12.66 L 11.54,13.85 L 12.45,14.32 L 12.52,14.32 L 12.52,13.20 L 12.56,13.17 L 13.40,13.61 L 13.47,13.61 L 13.47,12.45 Z" fill="#868975" stroke="none" /><path d="M 2.85,10.69 L 2.85,14.25 L 3.83,14.73 L 3.83,11.16 Z" fill="#868975" stroke="none" /><path d="M 3.83,7.67 L 3.83,8.82 L 4.78,9.30 L 4.78,10.49 L 5.77,10.96 L 5.77,9.77 L 4.78,9.26 L 4.78,8.11 L 3.90,7.67 Z" fill="#868975" stroke="none" /><path d="M 1.93,6.72 L 1.93,7.87 L 2.85,8.31 L 2.85,7.16 L 2.00,6.72 Z" fill="#868975" stroke="none" /><path d="M 16.29,4.00 L 16.29,7.53 L 17.24,8.01 L 17.24,4.45 L 16.36,4.00 Z" fill="#868975" stroke="none" /><path d="M 18.05,2.44 L 18.05,2.51 L 18.15,2.55 L 18.22,2.61 L 18.22,3.77 L 19.17,4.24 L 19.17,3.05 L 18.29,2.61 L 18.22,2.55 L 18.22,2.38 Z" fill="#868975" stroke="none" /><path d="M 17.31,20.70 L 17.34,20.77 L 18.15,21.17 L 18.29,21.17 L 19.17,20.73 L 19.14,20.67 L 18.32,20.26 L 18.19,20.26 Z" fill="#6d747a" stroke="none" /><path d="M 11.57,20.70 L 11.57,20.73 L 12.45,21.17 L 12.59,21.17 L 13.44,20.73 L 13.44,20.70 L 12.56,20.26 L 12.42,20.26 Z" fill="#6d747a" stroke="none" /><path d="M 27.86,16.32 L 26.94,15.88 L 25.99,16.36 L 25.99,16.39 L 26.88,16.83 L 26.98,16.83 L 27.86,16.39 Z" fill="#6d747a" stroke="none" /><path d="M 2.88,16.32 L 2.88,16.39 L 3.77,16.83 L 3.87,16.83 L 4.75,16.39 L 4.75,16.36 L 3.80,15.88 Z" fill="#6d747a" stroke="none" /><path d="M 16.36,21.17 L 16.39,21.24 L 17.20,21.65 L 17.34,21.65 L 18.22,21.21 L 18.22,21.17 L 17.34,20.73 L 17.24,20.73 Z" fill="#7f9786" stroke="none" /><path d="M 12.52,21.17 L 12.52,21.21 L 13.40,21.65 L 13.54,21.65 L 14.39,21.21 L 14.39,21.17 L 13.51,20.73 L 13.40,20.73 Z" fill="#7f9786" stroke="none" /><path d="M 28.81,15.85 L 27.89,15.41 L 27.01,15.85 L 26.98,15.92 L 27.86,16.36 L 27.93,16.36 L 28.81,15.92 Z" fill="#7f9786" stroke="none" /><path d="M 1.93,15.85 L 1.93,15.92 L 2.82,16.36 L 2.88,16.36 L 3.77,15.92 L 3.73,15.85 L 2.85,15.41 Z" fill="#7f9786" stroke="none" /><path d="M 13.47,21.65 L 13.47,21.68 L 15.30,22.60 L 15.44,22.60 L 17.27,21.68 L 17.27,21.65 L 16.39,21.21 L 16.29,21.21 L 15.37,21.68 L 14.46,21.21 L 14.35,21.21 Z" fill="#b9c199" stroke="none" /><path d="M 27.93,15.44 L 28.81,15.88 L 28.88,15.88 L 30.71,14.97 L 30.71,14.90 L 28.88,13.98 L 28.81,13.98 L 28.81,14.90 L 28.84,14.93 L 27.96,15.37 Z" fill="#b9c199" stroke="none" /><path d="M 2.82,15.44 L 2.78,15.37 L 1.90,14.93 L 1.93,14.90 L 1.93,13.98 L 1.87,13.98 L 0.03,14.90 L 0.03,14.97 L 1.87,15.88 L 1.93,15.88 Z" fill="#b9c199" stroke="none" /><path d="M 12.52,11.98 L 12.52,12.01 L 15.30,13.40 L 15.44,13.40 L 18.22,12.01 L 18.22,11.98 L 17.34,11.54 L 17.24,11.54 L 16.32,12.01 L 15.41,11.54 L 15.34,11.54 L 14.42,12.01 L 13.51,11.54 L 13.40,11.54 Z" fill="#b9c199" stroke="none" /><path d="M 25.04,5.73 L 25.04,5.77 L 25.93,6.21 L 25.89,6.28 L 25.04,6.69 L 25.08,6.75 L 25.86,7.13 L 25.93,7.19 L 25.04,7.64 L 25.04,7.67 L 25.89,8.11 L 26.03,8.11 L 28.81,6.72 L 28.81,6.69 L 26.03,5.29 L 25.89,5.29 Z" fill="#b9c199" stroke="none" /><path d="M 5.70,5.73 L 4.85,5.29 L 4.72,5.29 L 1.93,6.69 L 1.93,6.72 L 4.72,8.11 L 4.85,8.11 L 5.70,7.67 L 5.70,7.64 L 4.82,7.19 L 4.89,7.13 L 5.67,6.75 L 5.70,6.69 L 4.85,6.28 L 4.82,6.21 L 5.70,5.77 Z" fill="#b9c199" stroke="none" /><path d="M 12.52,1.39 L 12.52,1.43 L 13.40,1.87 L 13.51,1.87 L 14.35,1.43 L 14.46,1.43 L 15.30,1.87 L 15.44,1.87 L 16.29,1.43 L 16.39,1.43 L 17.24,1.87 L 17.34,1.87 L 18.22,1.43 L 18.22,1.39 L 15.44,0.00 L 15.30,0.00 Z" fill="#b9c199" stroke="none" /><path d="M 20.22,19.24 L 20.22,19.31 L 21.11,19.75 L 22.09,19.27 L 22.09,19.24 L 21.21,18.80 L 21.11,18.80 Z" fill="#cfd3b4" stroke="none" /><path d="M 8.65,19.24 L 8.65,19.27 L 9.60,19.75 L 10.52,19.31 L 10.52,19.24 L 9.64,18.80 L 9.54,18.80 Z" fill="#cfd3b4" stroke="none" /><path d="M 23.11,17.85 L 23.99,18.29 L 24.06,18.29 L 24.94,17.85 L 24.98,17.78 L 24.09,17.34 L 24.03,17.34 L 23.14,17.78 Z" fill="#cfd3b4" stroke="none" /><path d="M 5.77,17.78 L 5.80,17.85 L 6.69,18.29 L 6.75,18.29 L 7.64,17.85 L 7.60,17.78 L 6.72,17.34 L 6.65,17.34 Z" fill="#cfd3b4" stroke="none" /><path d="M 11.57,11.50 L 11.57,11.54 L 12.45,11.98 L 12.59,11.98 L 13.47,11.54 L 14.39,12.01 L 14.46,12.01 L 15.37,11.54 L 16.29,12.01 L 16.36,12.01 L 17.27,11.54 L 18.15,11.98 L 18.29,11.98 L 19.17,11.54 L 19.14,11.47 L 17.37,10.59 L 17.24,10.59 L 16.39,11.03 L 16.29,11.03 L 15.44,10.59 L 15.30,10.59 L 14.46,11.03 L 14.35,11.03 L 13.51,10.59 L 13.37,10.59 Z" fill="#cfd3b4" stroke="none" /><path d="M 24.98,4.78 L 23.11,5.73 L 23.11,5.77 L 23.99,6.21 L 23.96,6.28 L 23.11,6.69 L 23.11,6.72 L 23.96,7.13 L 24.03,7.19 L 23.14,7.64 L 23.14,7.70 L 25.01,8.62 L 25.96,8.14 L 25.96,8.11 L 25.08,7.67 L 25.15,7.60 L 25.93,7.23 L 25.96,7.16 L 25.08,6.72 L 25.15,6.65 L 25.99,6.24 L 25.99,6.21 L 25.15,5.80 L 25.08,5.73 L 25.96,5.29 L 25.96,5.26 Z" fill="#cfd3b4" stroke="none" /><path d="M 5.73,4.78 L 4.78,5.26 L 4.78,5.29 L 5.67,5.73 L 5.60,5.80 L 4.75,6.21 L 4.75,6.24 L 5.60,6.65 L 5.67,6.72 L 4.78,7.16 L 4.82,7.23 L 5.60,7.60 L 5.67,7.67 L 4.78,8.11 L 4.78,8.14 L 5.77,8.62 L 7.60,7.70 L 7.60,7.64 L 6.72,7.19 L 6.79,7.13 L 7.64,6.72 L 7.64,6.69 L 6.75,6.24 L 6.79,6.18 L 7.64,5.77 L 7.64,5.73 Z" fill="#cfd3b4" stroke="none" /><path d="M 11.57,1.87 L 11.61,1.93 L 13.44,2.85 L 14.39,2.38 L 14.46,2.38 L 15.30,2.82 L 15.44,2.82 L 16.29,2.38 L 16.36,2.38 L 17.31,2.85 L 19.17,1.90 L 19.17,1.87 L 18.29,1.43 L 18.15,1.43 L 17.27,1.87 L 16.36,1.39 L 15.41,1.87 L 15.34,1.87 L 14.42,1.39 L 13.47,1.87 L 12.59,1.43 L 12.45,1.43 Z" fill="#cfd3b4" stroke="none" /></svg>