<svg height="32" width="32" viewBox="0 0 32 32"><defs /><path d="M 15.27,19.44 L 14.41,19.85 L 14.41,23.19 L 14.47,23.19 L 16.19,22.33 L 16.19,20.10 L 16.13,20.10 L 15.30,20.52 L 15.27,20.49 Z" fill="#050709" stroke="none" /><path d="M 25.22,8.97 L 23.41,9.86 L 23.41,10.94 L 24.30,10.50 L 24.33,10.53 L 24.33,11.55 L 24.27,11.61 L 23.41,12.02 L 23.41,13.14 L 23.48,13.14 L 24.27,12.72 L 24.33,12.76 L 24.33,13.77 L 24.27,13.84 L 23.41,14.25 L 23.41,15.36 L 25.19,14.47 L 25.22,14.50 L 25.22,15.55 L 24.33,16.00 L 24.33,18.23 L 23.41,18.70 L 23.41,19.79 L 23.48,19.79 L 24.27,19.37 L 24.33,19.40 L 24.33,21.53 L 24.27,21.60 L 23.44,22.01 L 23.41,21.98 L 23.41,20.93 L 23.35,20.93 L 22.52,21.34 L 22.52,23.57 L 23.38,23.16 L 23.41,23.19 L 23.41,24.21 L 23.35,24.27 L 22.52,24.68 L 22.52,25.77 L 22.46,25.83 L 21.63,26.24 L 21.60,26.21 L 21.60,25.16 L 21.53,25.16 L 20.74,25.57 L 20.71,25.54 L 20.71,24.49 L 20.64,24.49 L 19.85,24.91 L 19.79,24.87 L 19.79,23.86 L 20.71,23.38 L 20.71,22.27 L 19.82,22.71 L 19.79,22.68 L 19.79,21.63 L 20.71,21.15 L 20.71,20.07 L 21.57,19.63 L 21.60,19.66 L 21.60,20.71 L 22.52,20.26 L 22.52,19.15 L 21.63,19.59 L 21.60,19.56 L 21.60,17.40 L 22.52,16.92 L 22.52,14.73 L 22.46,14.73 L 21.66,15.14 L 21.60,15.11 L 21.60,12.95 L 20.74,13.36 L 20.71,13.33 L 20.71,12.31 L 20.64,12.31 L 18.00,13.65 L 17.97,13.61 L 17.97,12.60 L 17.94,12.60 L 14.41,14.38 L 14.41,17.65 L 16.13,16.80 L 16.19,16.83 L 16.19,17.88 L 17.08,17.43 L 17.08,16.32 L 16.25,16.73 L 16.19,16.70 L 16.19,14.57 L 17.94,13.68 L 17.97,13.71 L 17.97,14.76 L 18.86,14.31 L 18.89,14.35 L 18.89,15.40 L 18.96,15.40 L 19.75,14.98 L 19.79,15.01 L 19.79,16.06 L 19.85,16.06 L 20.68,15.65 L 20.71,15.68 L 20.71,16.70 L 20.77,16.70 L 21.57,16.29 L 21.60,16.32 L 21.60,17.37 L 20.71,17.81 L 20.71,20.04 L 20.68,20.07 L 19.82,20.49 L 19.79,20.45 L 19.79,19.40 L 19.75,19.40 L 17.08,20.74 L 17.08,21.85 L 17.15,21.85 L 17.94,21.44 L 17.97,21.47 L 17.97,22.52 L 18.86,22.08 L 18.89,22.11 L 18.89,23.16 L 17.97,23.63 L 17.97,24.75 L 18.86,24.30 L 18.89,24.33 L 18.89,25.35 L 18.83,25.42 L 17.97,25.83 L 17.97,26.94 L 17.11,27.39 L 17.08,27.36 L 17.08,26.31 L 17.02,26.31 L 16.22,26.72 L 16.19,26.69 L 16.19,25.64 L 15.30,26.08 L 15.27,26.05 L 15.27,23.89 L 15.20,23.89 L 14.41,24.30 L 14.41,26.53 L 15.24,26.12 L 15.27,26.15 L 15.27,27.20 L 16.16,26.75 L 16.19,26.78 L 16.19,27.83 L 16.25,27.83 L 17.05,27.42 L 17.08,27.45 L 17.08,28.50 L 16.19,28.95 L 16.19,30.03 L 16.13,30.09 L 15.30,30.50 L 15.27,30.47 L 15.27,29.42 L 14.41,29.84 L 14.41,32.00 L 14.47,32.00 L 17.97,30.25 L 17.97,29.20 L 18.04,29.14 L 18.89,28.72 L 18.89,27.64 L 18.96,27.58 L 19.75,27.20 L 19.79,27.23 L 19.79,28.25 L 19.85,28.25 L 20.71,27.80 L 20.71,26.72 L 20.74,26.69 L 21.57,26.27 L 21.60,26.31 L 21.60,27.36 L 22.52,26.91 L 22.52,25.83 L 22.58,25.77 L 23.35,25.38 L 23.41,25.42 L 23.41,26.43 L 23.48,26.43 L 24.30,26.02 L 24.33,26.05 L 24.33,27.04 L 24.40,27.04 L 25.22,26.62 L 25.22,25.57 L 25.29,25.51 L 27.04,24.65 L 27.04,23.57 L 27.10,23.51 L 28.82,22.65 L 28.82,19.34 L 28.76,19.34 L 27.96,19.75 L 27.93,19.72 L 27.93,18.67 L 28.82,18.23 L 28.82,16.00 L 27.93,16.45 L 27.93,18.64 L 26.18,19.53 L 26.15,19.50 L 26.15,18.45 L 27.04,18.00 L 27.04,16.89 L 26.21,17.30 L 26.15,17.27 L 26.15,15.14 L 26.21,15.08 L 27.04,14.66 L 27.04,13.58 L 27.10,13.52 L 27.90,13.14 L 27.93,13.17 L 27.93,14.22 L 28.79,13.81 L 28.82,13.77 L 28.82,12.66 L 27.96,13.07 L 27.93,13.04 L 27.93,12.02 L 27.86,12.02 L 27.07,12.44 L 27.04,12.41 L 27.04,11.36 L 26.97,11.36 L 26.15,11.77 L 26.15,12.88 L 25.29,13.33 L 25.22,13.30 L 25.22,12.25 L 24.40,12.66 L 24.33,12.63 L 24.33,11.61 L 24.40,11.55 L 25.22,11.13 Z" fill="#050709" stroke="none" /><path d="M 28.82,7.19 L 28.76,7.19 L 27.93,7.60 L 27.93,8.68 L 28.82,8.24 Z" fill="#050709" stroke="none" /><path d="M 21.60,26.27 L 21.53,26.27 L 20.71,26.69 L 20.71,27.77 L 20.64,27.83 L 19.82,28.25 L 19.79,28.21 L 19.79,27.17 L 18.89,27.61 L 18.89,28.69 L 17.97,29.17 L 17.97,30.22 L 18.04,30.22 L 18.89,29.77 L 18.89,28.72 L 19.75,28.28 L 19.79,28.31 L 19.79,29.33 L 21.60,28.44 Z" fill="#070b0d" stroke="none" /><path d="M 26.15,25.10 L 26.08,25.10 L 25.22,25.54 L 25.22,26.59 L 25.29,26.59 L 26.15,26.15 Z" fill="#070b0d" stroke="none" /><path d="M 15.24,22.78 L 14.41,23.19 L 14.41,24.30 L 15.24,23.89 L 15.27,23.92 L 15.27,26.08 L 14.41,26.53 L 14.41,29.84 L 14.47,29.84 L 15.24,29.46 L 15.27,29.49 L 15.27,30.50 L 15.33,30.50 L 16.19,30.06 L 16.19,28.98 L 17.08,28.53 L 17.08,27.42 L 17.02,27.42 L 16.22,27.83 L 16.19,27.80 L 16.19,26.75 L 16.13,26.75 L 15.30,27.17 L 15.27,27.13 L 15.27,26.12 L 17.08,25.19 L 17.08,24.08 L 16.22,24.49 L 16.19,24.46 L 16.19,23.41 L 15.30,23.86 L 15.27,23.83 L 15.27,22.78 Z" fill="#070b0d" stroke="none" /><path d="M 28.82,22.65 L 27.93,23.09 L 27.93,24.17 L 27.99,24.17 L 28.82,23.76 Z" fill="#070b0d" stroke="none" /><path d="M 18.89,22.08 L 18.83,22.08 L 17.97,22.52 L 17.97,23.63 L 18.89,23.19 Z" fill="#070b0d" stroke="none" /><path d="M 27.93,20.87 L 26.15,21.76 L 26.15,23.98 L 27.04,23.54 L 27.04,22.46 L 27.10,22.39 L 27.93,21.98 Z" fill="#070b0d" stroke="none" /><path d="M 19.72,14.98 L 17.97,15.87 L 17.97,16.95 L 17.91,17.02 L 16.22,17.84 L 16.19,17.81 L 16.19,16.76 L 16.16,16.76 L 14.44,17.62 L 14.41,17.65 L 14.41,19.85 L 14.47,19.85 L 15.24,19.47 L 15.27,19.50 L 15.27,20.55 L 15.30,20.55 L 17.05,19.66 L 17.08,19.69 L 17.08,20.74 L 17.15,20.74 L 19.72,19.44 L 19.79,19.47 L 19.79,20.52 L 20.68,20.07 L 20.71,20.10 L 20.71,21.12 L 20.64,21.18 L 19.79,21.60 L 19.79,22.71 L 19.85,22.71 L 20.64,22.30 L 20.71,22.33 L 20.71,23.35 L 20.64,23.41 L 19.79,23.83 L 19.79,24.94 L 19.82,24.94 L 21.60,24.05 L 21.60,22.97 L 21.66,22.90 L 22.52,22.49 L 22.52,21.38 L 22.55,21.34 L 23.38,20.93 L 23.41,20.96 L 23.41,22.01 L 23.48,22.01 L 24.33,21.57 L 24.33,19.34 L 23.44,19.79 L 23.41,19.75 L 23.41,18.74 L 23.48,18.67 L 24.33,18.26 L 24.33,17.15 L 24.27,17.15 L 23.41,17.59 L 23.41,18.67 L 23.35,18.74 L 22.58,19.12 L 22.52,19.09 L 22.52,18.04 L 21.60,18.48 L 21.60,19.59 L 20.74,20.04 L 20.71,20.01 L 20.71,17.84 L 21.60,17.40 L 21.60,16.29 L 21.53,16.29 L 20.74,16.70 L 20.71,16.67 L 20.71,15.62 L 19.82,16.06 L 19.79,16.03 L 19.79,14.98 Z" fill="#070b0d" stroke="none" /><path d="M 17.08,14.12 L 17.02,14.12 L 16.19,14.54 L 16.19,15.65 L 17.08,15.20 Z" fill="#070b0d" stroke="none" /><path d="M 17.97,12.60 L 17.97,13.65 L 18.04,13.65 L 20.68,12.31 L 20.71,12.34 L 20.71,13.39 L 21.53,12.98 L 21.60,13.01 L 21.60,15.17 L 22.49,14.73 L 22.52,14.76 L 22.52,15.81 L 23.35,15.40 L 23.41,15.43 L 23.41,16.48 L 25.22,15.59 L 25.22,14.47 L 25.16,14.47 L 23.48,15.33 L 23.41,15.30 L 23.41,14.28 L 24.33,13.81 L 24.33,12.69 L 23.44,13.14 L 23.41,13.11 L 23.41,12.06 L 24.33,11.58 L 24.33,10.50 L 24.27,10.50 L 22.55,11.36 L 22.52,11.32 L 22.52,10.34 L 22.46,10.34 L 21.60,10.78 L 21.60,11.83 L 21.57,11.86 L 20.74,12.28 L 20.71,12.25 L 20.71,11.23 L 20.68,11.23 Z" fill="#070b0d" stroke="none" /><path d="M 26.97,8.08 L 25.22,8.97 L 25.22,10.02 L 25.29,10.02 L 26.12,9.61 L 26.15,9.64 L 26.15,10.66 L 26.21,10.66 L 27.01,10.24 L 27.04,10.27 L 27.04,12.44 L 27.10,12.44 L 27.90,12.02 L 27.93,12.06 L 27.93,13.07 L 27.86,13.14 L 27.04,13.55 L 27.04,14.63 L 26.97,14.70 L 26.15,15.11 L 26.15,17.30 L 26.08,17.37 L 25.22,17.78 L 25.22,18.89 L 26.12,18.45 L 26.15,18.48 L 26.15,19.53 L 26.21,19.53 L 27.90,18.67 L 27.93,18.70 L 27.93,19.75 L 27.99,19.75 L 28.82,19.34 L 28.82,18.23 L 28.76,18.23 L 27.96,18.64 L 27.93,18.61 L 27.93,17.56 L 27.86,17.56 L 26.18,18.42 L 26.15,18.39 L 26.15,17.37 L 26.21,17.30 L 28.82,16.00 L 28.82,13.77 L 27.99,14.19 L 27.93,14.16 L 27.93,13.14 L 27.99,13.07 L 28.82,12.66 L 28.82,11.58 L 28.76,11.58 L 27.96,11.99 L 27.93,11.96 L 27.93,10.91 L 28.82,10.47 L 28.82,8.24 L 27.07,9.10 L 27.04,9.07 L 27.04,8.08 Z" fill="#070b0d" stroke="none" /><path d="M 13.55,13.96 L 13.55,15.01 L 14.35,15.43 L 14.41,15.43 L 14.41,14.38 L 13.61,13.96 Z" fill="#080c0f" stroke="none" /><path d="M 0.00,12.66 L 0.00,16.00 L 1.78,16.89 L 1.78,14.66 L 0.95,14.25 L 0.89,14.19 L 0.89,13.11 Z" fill="#080c0f" stroke="none" /><path d="M 0.00,7.19 L 0.00,10.47 L 1.75,11.32 L 1.78,11.36 L 1.78,12.47 L 2.61,12.88 L 2.67,12.88 L 2.67,11.77 L 1.78,11.32 L 1.78,9.19 L 1.84,9.16 L 3.56,10.02 L 3.59,10.05 L 3.59,11.13 L 4.42,11.55 L 4.49,11.61 L 4.49,12.69 L 5.41,13.17 L 5.41,14.28 L 6.30,14.73 L 6.30,15.81 L 7.22,16.29 L 7.22,17.34 L 7.19,17.37 L 6.30,16.92 L 6.30,19.09 L 6.23,19.12 L 5.47,18.74 L 5.41,18.67 L 5.41,17.59 L 5.38,17.56 L 2.67,16.22 L 2.67,17.34 L 3.59,17.81 L 3.59,18.89 L 4.42,19.31 L 4.49,19.37 L 4.49,20.39 L 4.45,20.42 L 3.59,20.01 L 3.59,21.12 L 4.42,21.53 L 4.49,21.60 L 4.49,22.62 L 4.45,22.65 L 3.66,22.23 L 3.59,22.23 L 3.59,23.28 L 3.56,23.32 L 2.74,22.90 L 2.67,22.84 L 2.67,21.76 L 1.84,21.34 L 1.78,21.28 L 1.78,20.20 L 0.89,19.75 L 0.89,17.53 L 0.06,17.11 L 0.00,17.11 L 0.00,19.34 L 0.89,19.79 L 0.89,20.87 L 1.72,21.28 L 1.78,21.34 L 1.78,22.43 L 2.61,22.84 L 2.67,22.90 L 2.67,23.92 L 2.64,23.95 L 1.78,23.54 L 1.78,24.59 L 1.75,24.62 L 0.89,24.17 L 0.89,23.09 L 0.00,22.65 L 0.00,24.81 L 3.53,26.59 L 3.59,26.59 L 3.59,25.61 L 3.63,25.57 L 4.49,25.99 L 4.49,24.94 L 4.52,24.91 L 5.34,25.32 L 5.41,25.38 L 5.41,26.47 L 6.23,26.88 L 6.30,26.88 L 6.30,25.86 L 6.36,25.83 L 7.22,26.27 L 7.22,27.36 L 8.08,27.80 L 8.11,27.80 L 8.11,26.75 L 8.14,26.72 L 8.97,27.13 L 9.03,27.20 L 9.03,28.28 L 9.92,28.72 L 9.92,29.77 L 10.78,30.22 L 10.85,30.22 L 10.85,29.23 L 10.88,29.20 L 12.63,30.06 L 12.63,29.01 L 12.66,28.98 L 14.35,29.84 L 14.41,29.84 L 14.41,26.53 L 13.55,26.08 L 13.55,25.03 L 13.58,25.00 L 14.41,25.42 L 14.41,23.19 L 13.55,22.78 L 13.55,24.94 L 13.52,24.97 L 11.80,24.11 L 11.74,24.05 L 11.74,23.03 L 11.77,23.00 L 12.63,23.41 L 12.63,22.30 L 11.74,21.85 L 11.74,19.69 L 11.77,19.66 L 12.56,20.07 L 12.63,20.07 L 12.63,19.02 L 12.66,18.99 L 13.49,19.40 L 13.55,19.47 L 13.55,20.55 L 14.35,20.96 L 14.41,20.96 L 14.41,19.85 L 13.61,19.47 L 13.55,19.40 L 13.55,18.32 L 12.69,17.91 L 12.63,17.84 L 12.63,16.76 L 12.60,16.73 L 11.74,16.32 L 11.74,17.37 L 11.67,17.40 L 10.91,17.02 L 10.85,16.95 L 10.85,15.87 L 9.92,15.40 L 9.92,14.35 L 9.96,14.31 L 10.85,14.76 L 10.85,12.60 L 9.10,11.71 L 9.03,11.71 L 9.03,12.76 L 9.86,13.17 L 9.92,13.23 L 9.92,14.25 L 9.89,14.28 L 9.10,13.87 L 9.03,13.87 L 9.03,14.98 L 9.92,15.43 L 9.92,16.48 L 9.89,16.51 L 9.10,16.10 L 9.03,16.10 L 9.03,17.18 L 10.85,18.10 L 10.85,19.15 L 10.82,19.18 L 9.92,18.74 L 9.92,20.90 L 9.86,20.93 L 9.03,20.52 L 9.03,21.63 L 9.92,22.08 L 9.92,24.24 L 9.89,24.27 L 9.03,23.83 L 9.03,22.71 L 8.11,22.27 L 8.11,24.49 L 8.97,24.91 L 9.03,24.97 L 9.03,25.99 L 8.97,26.02 L 8.17,25.61 L 8.11,25.61 L 8.11,26.66 L 8.08,26.69 L 7.22,26.24 L 7.22,25.13 L 6.36,24.72 L 6.30,24.65 L 6.30,23.57 L 5.47,23.16 L 5.41,23.09 L 5.41,22.08 L 5.44,22.04 L 6.23,22.46 L 6.30,22.46 L 6.30,21.34 L 5.41,20.90 L 5.41,19.85 L 5.44,19.82 L 6.23,20.23 L 6.30,20.23 L 6.30,19.21 L 6.36,19.18 L 7.22,19.63 L 7.22,20.71 L 8.11,21.15 L 8.11,20.04 L 7.22,19.59 L 7.22,17.43 L 7.25,17.40 L 8.05,17.81 L 8.11,17.81 L 8.11,15.62 L 7.28,15.20 L 7.22,15.14 L 7.22,12.95 L 6.30,12.47 L 6.30,11.39 L 6.27,11.36 L 3.59,10.02 L 3.59,8.97 L 3.56,8.94 L 0.06,7.19 Z" fill="#080c0f" stroke="none" /><path d="M 17.97,22.52 L 17.08,22.97 L 17.08,24.08 L 17.97,23.63 Z" fill="#030f11" stroke="none" /><path d="M 22.52,22.49 L 22.46,22.49 L 21.60,22.93 L 21.60,24.02 L 20.71,24.46 L 20.71,25.57 L 20.77,25.57 L 21.57,25.16 L 21.60,25.19 L 21.60,26.24 L 21.66,26.24 L 22.52,25.80 L 22.52,24.72 L 22.58,24.65 L 23.41,24.24 L 23.41,23.13 L 22.55,23.54 L 22.52,23.51 Z" fill="#030f11" stroke="none" /><path d="M 16.19,27.86 L 16.13,27.86 L 15.27,28.31 L 15.27,29.42 L 16.19,28.98 Z" fill="#021114" stroke="none" /><path d="M 24.33,25.99 L 23.44,26.43 L 23.41,26.40 L 23.41,25.35 L 22.55,25.77 L 22.52,25.80 L 22.52,26.88 L 21.60,27.36 L 21.60,28.41 L 21.66,28.41 L 22.52,27.96 L 22.52,26.91 L 23.38,26.47 L 23.41,26.50 L 23.41,27.51 L 24.33,27.07 Z" fill="#021114" stroke="none" /><path d="M 17.97,23.63 L 17.08,24.08 L 17.08,25.16 L 17.02,25.22 L 16.19,25.64 L 16.19,26.72 L 16.25,26.72 L 17.05,26.31 L 17.08,26.34 L 17.08,27.39 L 17.15,27.39 L 17.97,26.97 L 17.97,25.86 L 18.89,25.38 L 18.89,24.30 L 18.83,24.30 L 18.00,24.72 L 17.97,24.68 Z" fill="#021114" stroke="none" /><path d="M 28.82,23.76 L 28.76,23.76 L 27.96,24.17 L 27.93,24.14 L 27.93,23.09 L 27.07,23.51 L 27.04,23.54 L 27.04,24.62 L 26.15,25.07 L 26.15,26.15 L 27.04,25.70 L 27.04,24.65 L 27.90,24.21 L 27.93,24.24 L 27.93,25.26 L 28.79,24.84 L 28.82,24.81 Z" fill="#021114" stroke="none" /><path d="M 21.60,20.71 L 20.71,21.15 L 20.71,22.27 L 21.60,21.82 Z" fill="#021114" stroke="none" /><path d="M 17.08,19.66 L 17.02,19.66 L 16.19,20.07 L 16.19,21.18 L 16.25,21.18 L 17.08,20.77 Z" fill="#021114" stroke="none" /><path d="M 26.15,19.56 L 26.08,19.56 L 25.22,20.01 L 25.22,21.09 L 25.16,21.15 L 24.33,21.57 L 24.33,22.65 L 24.40,22.65 L 25.19,22.23 L 25.22,22.27 L 25.22,23.32 L 25.29,23.32 L 26.15,22.87 L 26.15,21.79 L 26.21,21.73 L 27.04,21.31 L 27.04,20.23 L 26.97,20.23 L 26.18,20.64 L 26.15,20.61 Z" fill="#021114" stroke="none" /><path d="M 16.19,17.88 L 15.27,18.32 L 15.27,19.44 L 16.19,18.99 Z" fill="#021114" stroke="none" /><path d="M 19.79,17.18 L 18.89,17.62 L 18.89,18.74 L 19.79,18.29 Z" fill="#021114" stroke="none" /><path d="M 27.93,16.45 L 27.04,16.89 L 27.04,17.97 L 27.10,17.97 L 27.93,17.56 Z" fill="#021114" stroke="none" /><path d="M 23.41,15.36 L 22.52,15.81 L 22.52,16.89 L 22.46,16.95 L 21.60,17.37 L 21.60,18.48 L 21.66,18.48 L 22.49,18.07 L 22.52,18.10 L 22.52,19.15 L 23.41,18.70 L 23.41,17.62 L 23.48,17.56 L 24.33,17.15 L 24.33,16.03 L 24.27,16.03 L 23.44,16.45 L 23.41,16.41 Z" fill="#021114" stroke="none" /><path d="M 17.97,13.68 L 17.91,13.68 L 17.08,14.09 L 17.08,15.17 L 17.02,15.24 L 16.19,15.65 L 16.19,16.76 L 17.05,16.35 L 17.08,16.38 L 17.08,17.43 L 17.97,16.99 L 17.97,15.90 L 18.04,15.84 L 18.89,15.43 L 18.89,14.31 L 18.83,14.31 L 18.00,14.73 L 17.97,14.70 Z" fill="#021114" stroke="none" /><path d="M 23.41,13.17 L 23.35,13.17 L 22.52,13.58 L 22.52,14.70 L 22.58,14.70 L 23.41,14.28 Z" fill="#021114" stroke="none" /><path d="M 21.60,10.78 L 20.71,11.23 L 20.71,12.28 L 20.77,12.28 L 21.60,11.86 Z" fill="#021114" stroke="none" /><path d="M 28.82,10.47 L 28.76,10.47 L 27.93,10.88 L 27.93,11.99 L 27.99,11.99 L 28.82,11.58 Z" fill="#021114" stroke="none" /><path d="M 23.41,9.89 L 23.35,9.89 L 22.52,10.31 L 22.52,11.39 L 23.41,10.94 Z" fill="#021114" stroke="none" /><path d="M 26.15,9.57 L 25.22,10.02 L 25.22,11.10 L 25.16,11.17 L 24.33,11.58 L 24.33,12.69 L 25.19,12.28 L 25.22,12.31 L 25.22,13.36 L 26.15,12.91 L 26.15,11.80 L 27.04,11.36 L 27.04,10.24 L 26.97,10.24 L 26.18,10.66 L 26.15,10.62 Z" fill="#021114" stroke="none" /><path d="M 27.93,7.63 L 27.86,7.63 L 27.04,8.05 L 27.04,9.13 L 27.93,8.68 Z" fill="#021114" stroke="none" /><path d="M 13.55,29.42 L 13.55,30.54 L 14.41,30.95 L 14.41,29.84 Z" fill="#0b1115" stroke="none" /><path d="M 10.85,29.17 L 10.85,30.25 L 11.67,30.66 L 11.74,30.66 L 11.74,29.61 Z" fill="#0b1115" stroke="none" /><path d="M 11.74,26.31 L 11.74,28.53 L 12.56,28.95 L 12.63,28.95 L 12.63,27.90 L 12.66,27.86 L 13.55,28.31 L 13.55,27.20 L 11.80,26.31 Z" fill="#0b1115" stroke="none" /><path d="M 3.59,25.54 L 3.59,26.62 L 4.42,27.04 L 4.49,27.04 L 4.49,26.05 L 4.55,26.02 L 5.41,26.47 L 5.41,27.51 L 5.44,27.55 L 7.16,28.41 L 7.22,28.41 L 7.22,26.24 L 6.30,25.80 L 6.30,26.85 L 6.27,26.88 L 5.41,26.43 L 5.41,25.35 L 5.38,25.32 L 4.55,24.91 L 4.49,24.91 L 4.49,25.92 L 4.45,25.96 Z" fill="#0b1115" stroke="none" /><path d="M 3.59,18.89 L 3.59,20.01 L 4.49,20.45 L 4.49,19.34 Z" fill="#0b1115" stroke="none" /><path d="M 0.00,16.00 L 0.00,17.11 L 0.89,17.56 L 0.89,19.72 L 0.86,19.75 L 0.06,19.34 L 0.00,19.34 L 0.00,22.65 L 0.83,23.06 L 0.89,23.13 L 0.89,24.21 L 1.72,24.62 L 1.78,24.62 L 1.78,23.60 L 1.81,23.57 L 2.67,23.98 L 2.67,22.87 L 1.84,22.46 L 1.78,22.39 L 1.78,21.31 L 0.95,20.90 L 0.89,20.83 L 0.89,19.82 L 0.92,19.79 L 2.61,20.64 L 2.67,20.64 L 2.67,19.53 L 1.78,19.09 L 1.78,17.97 L 0.89,17.53 L 0.89,16.45 Z" fill="#0b1115" stroke="none" /><path d="M 10.85,12.60 L 10.85,13.68 L 11.74,14.12 L 11.74,15.20 L 12.56,15.62 L 12.63,15.68 L 12.63,17.88 L 13.55,18.35 L 13.55,19.37 L 13.52,19.40 L 12.69,18.99 L 12.63,18.99 L 12.63,20.04 L 12.60,20.07 L 11.80,19.66 L 11.74,19.66 L 11.74,21.82 L 11.71,21.85 L 10.91,21.44 L 10.85,21.44 L 10.85,22.52 L 11.67,22.93 L 11.74,23.00 L 11.74,24.08 L 11.77,24.11 L 13.55,25.00 L 13.55,26.12 L 14.41,26.53 L 14.41,25.42 L 13.55,24.97 L 13.55,23.86 L 11.80,23.00 L 11.74,22.93 L 11.74,21.92 L 11.77,21.88 L 14.35,23.19 L 14.41,23.19 L 14.41,20.96 L 13.61,20.58 L 13.55,20.52 L 13.55,19.50 L 13.58,19.47 L 14.35,19.85 L 14.41,19.85 L 14.41,18.77 L 13.55,18.32 L 13.55,17.27 L 13.58,17.24 L 14.41,17.65 L 14.41,15.43 L 12.66,14.57 L 12.63,14.54 L 12.63,13.49 Z" fill="#0b1115" stroke="none" /><path d="M 0.00,10.47 L 0.00,12.66 L 0.83,13.07 L 0.89,13.14 L 0.89,14.22 L 2.61,15.08 L 2.67,15.14 L 2.67,16.22 L 2.70,16.25 L 5.34,17.56 L 5.41,17.62 L 5.41,18.70 L 6.23,19.12 L 6.30,19.18 L 6.30,20.20 L 6.27,20.23 L 5.47,19.82 L 5.41,19.82 L 5.41,20.93 L 6.30,21.38 L 6.30,22.43 L 6.27,22.46 L 5.47,22.04 L 5.41,22.04 L 5.41,23.13 L 7.16,24.02 L 7.22,24.02 L 7.22,23.00 L 7.28,22.97 L 8.11,23.38 L 8.11,22.33 L 8.17,22.30 L 9.03,22.74 L 9.03,23.86 L 9.86,24.27 L 9.92,24.27 L 9.92,22.04 L 9.03,21.60 L 9.03,20.58 L 9.07,20.55 L 9.92,20.96 L 9.92,19.85 L 9.03,19.40 L 9.03,20.45 L 8.97,20.49 L 8.11,20.04 L 8.11,18.93 L 7.28,18.51 L 7.22,18.51 L 7.22,19.56 L 7.19,19.59 L 6.36,19.18 L 6.30,19.12 L 6.30,16.99 L 6.36,16.95 L 7.16,17.37 L 7.22,17.37 L 7.22,16.25 L 6.36,15.84 L 6.30,15.78 L 6.30,14.70 L 5.41,14.25 L 5.41,13.14 L 3.59,12.25 L 3.59,13.30 L 3.53,13.33 L 1.78,12.44 L 1.78,11.32 L 0.06,10.47 Z" fill="#0b1115" stroke="none" /><path d="M 1.78,9.13 L 1.78,10.24 L 2.61,10.66 L 2.67,10.66 L 2.67,9.57 Z" fill="#0b1115" stroke="none" /><path d="M 3.59,8.97 L 3.59,10.05 L 6.23,11.36 L 6.30,11.42 L 6.30,12.50 L 7.16,12.91 L 7.22,12.98 L 7.22,15.17 L 8.05,15.59 L 8.11,15.65 L 8.11,16.73 L 8.97,17.15 L 9.03,17.21 L 9.03,18.29 L 10.78,19.18 L 10.85,19.18 L 10.85,18.07 L 9.10,17.21 L 9.03,17.15 L 9.03,16.13 L 9.07,16.10 L 9.86,16.51 L 9.92,16.51 L 9.92,15.40 L 9.03,14.95 L 9.03,13.90 L 9.07,13.87 L 9.86,14.28 L 9.92,14.28 L 9.92,13.20 L 8.11,12.28 L 8.11,11.23 L 8.08,11.20 L 7.22,10.78 L 7.22,11.80 L 7.19,11.83 L 6.36,11.42 L 6.30,11.36 L 6.30,10.31 Z" fill="#0b1115" stroke="none" /><path d="M 13.55,13.93 L 13.55,13.96 L 14.38,14.38 L 14.44,14.38 L 15.27,13.96 L 15.27,13.93 L 14.44,13.52 L 14.38,13.52 Z" fill="#0d1217" stroke="none" /><path d="M 9.03,11.67 L 9.03,11.71 L 9.86,12.12 L 9.99,12.12 L 10.75,11.74 L 10.75,11.67 L 9.92,11.26 L 9.86,11.26 Z" fill="#0d1217" stroke="none" /><path d="M 12.63,7.16 L 12.63,7.22 L 13.46,7.63 L 13.55,7.63 L 14.38,7.22 L 14.38,7.16 L 13.55,6.74 L 13.46,6.74 Z" fill="#0d1217" stroke="none" /><path d="M 19.85,4.45 L 19.85,4.49 L 21.63,5.38 L 21.69,5.38 L 22.55,4.93 L 23.44,5.38 L 24.30,4.96 L 24.27,4.90 L 21.66,3.59 L 21.57,3.59 Z" fill="#0d1217" stroke="none" /><path d="M 1.78,8.08 L 4.45,9.42 L 4.55,9.42 L 5.38,9.00 L 6.23,9.45 L 5.41,9.86 L 5.41,9.89 L 7.19,10.78 L 7.25,10.78 L 8.08,10.37 L 8.08,10.34 L 6.33,9.48 L 6.30,9.45 L 6.33,9.42 L 8.05,8.56 L 8.11,8.56 L 8.87,8.94 L 8.94,9.00 L 8.11,9.42 L 8.11,9.48 L 8.94,9.89 L 9.03,9.89 L 9.86,9.48 L 9.86,9.42 L 9.03,9.00 L 9.10,8.94 L 9.86,8.56 L 9.92,8.56 L 10.69,8.94 L 10.75,9.00 L 9.92,9.42 L 9.92,9.48 L 11.64,10.34 L 11.61,10.40 L 10.82,10.78 L 10.85,10.85 L 11.58,11.20 L 11.64,11.26 L 10.82,11.67 L 10.82,11.74 L 11.64,12.15 L 11.74,12.15 L 12.60,11.71 L 13.46,12.15 L 13.55,12.15 L 14.38,11.74 L 14.38,11.67 L 13.55,11.26 L 13.61,11.20 L 14.38,10.82 L 14.44,10.82 L 15.30,11.26 L 16.19,10.82 L 16.25,10.82 L 17.02,11.20 L 17.08,11.26 L 16.25,11.67 L 16.25,11.74 L 18.00,12.60 L 19.79,11.71 L 19.79,11.67 L 18.96,11.26 L 18.89,11.26 L 18.04,11.71 L 17.18,11.26 L 17.24,11.20 L 17.97,10.85 L 18.00,10.78 L 17.18,10.37 L 17.05,10.37 L 16.25,10.78 L 16.19,10.78 L 15.43,10.40 L 15.36,10.34 L 16.19,9.92 L 16.19,9.89 L 15.33,9.45 L 15.27,9.45 L 13.52,10.34 L 12.72,9.96 L 12.66,9.89 L 12.69,9.86 L 13.49,9.48 L 13.49,9.42 L 11.77,8.56 L 11.80,8.49 L 12.60,8.11 L 12.60,8.08 L 11.71,7.63 L 10.78,8.08 L 9.03,7.19 L 9.10,7.13 L 9.86,6.74 L 10.75,7.19 L 10.82,7.19 L 11.64,6.78 L 11.67,6.71 L 9.89,5.82 L 9.00,6.27 L 8.94,6.27 L 8.17,5.88 L 8.11,5.82 L 8.14,5.79 L 8.94,5.41 L 8.94,5.34 L 8.14,4.96 L 8.11,4.93 L 8.17,4.87 L 8.94,4.49 L 9.00,4.49 L 9.89,4.93 L 10.75,4.49 L 10.82,4.49 L 11.71,4.93 L 12.56,4.49 L 12.63,4.49 L 13.39,4.87 L 13.46,4.93 L 12.63,5.34 L 12.63,5.41 L 13.46,5.82 L 13.55,5.82 L 14.41,5.38 L 15.27,5.82 L 15.20,5.88 L 14.41,6.27 L 14.41,6.30 L 15.20,6.68 L 15.27,6.74 L 14.44,7.16 L 14.44,7.22 L 16.16,8.08 L 16.13,8.14 L 15.33,8.52 L 15.36,8.59 L 17.08,9.45 L 17.15,9.45 L 18.04,9.00 L 19.79,9.89 L 19.88,9.89 L 20.74,9.45 L 21.60,9.89 L 21.69,9.89 L 24.33,8.56 L 24.40,8.56 L 25.19,8.97 L 25.26,8.97 L 28.76,7.22 L 28.79,7.16 L 26.18,5.85 L 26.08,5.85 L 24.40,6.71 L 24.33,6.71 L 23.48,6.27 L 22.55,6.71 L 22.55,6.74 L 23.44,7.19 L 24.33,6.74 L 24.40,6.74 L 26.12,7.60 L 26.15,7.63 L 26.12,7.67 L 24.40,8.52 L 24.33,8.52 L 23.48,8.08 L 22.58,8.52 L 22.52,8.52 L 21.66,8.08 L 20.77,8.52 L 20.71,8.52 L 19.85,8.08 L 18.96,8.52 L 18.89,8.52 L 18.04,8.08 L 17.15,8.52 L 17.08,8.52 L 16.32,8.14 L 16.29,8.08 L 17.11,7.67 L 17.11,7.63 L 15.36,6.74 L 15.43,6.68 L 16.19,6.30 L 16.25,6.30 L 17.15,6.74 L 19.82,5.41 L 19.82,5.34 L 18.99,4.93 L 18.89,4.93 L 18.04,5.38 L 17.18,4.93 L 17.08,4.93 L 16.22,5.38 L 15.36,4.93 L 15.43,4.87 L 16.22,4.49 L 16.22,4.45 L 15.33,4.01 L 14.44,4.45 L 14.38,4.45 L 13.61,4.07 L 13.55,4.01 L 14.38,3.59 L 14.38,3.53 L 13.55,3.12 L 13.61,3.05 L 14.38,2.67 L 14.44,2.67 L 15.30,3.12 L 16.19,2.67 L 16.25,2.67 L 17.11,3.12 L 18.00,2.67 L 18.07,2.67 L 19.82,3.56 L 19.88,3.56 L 20.71,3.15 L 20.71,3.12 L 18.93,2.23 L 18.86,2.23 L 18.07,2.64 L 18.00,2.64 L 17.11,2.19 L 16.25,2.64 L 16.19,2.64 L 15.30,2.19 L 14.44,2.64 L 14.38,2.64 L 13.61,2.26 L 13.55,2.19 L 14.38,1.78 L 14.38,1.72 L 13.55,1.30 L 13.61,1.24 L 14.38,0.86 L 14.44,0.86 L 15.30,1.30 L 16.16,0.89 L 16.16,0.86 L 14.47,0.00 L 14.35,0.00 L 10.85,1.75 L 10.88,1.81 L 11.64,2.19 L 11.58,2.26 L 10.78,2.64 L 10.78,2.67 L 11.58,3.05 L 11.64,3.12 L 11.61,3.15 L 10.78,3.56 L 9.92,3.12 L 9.83,3.12 L 9.00,3.53 L 9.00,3.59 L 9.80,3.98 L 9.83,4.01 L 9.77,4.07 L 9.00,4.45 L 8.94,4.45 L 8.05,4.01 L 7.16,4.45 L 7.16,4.49 L 7.95,4.87 L 8.02,4.93 L 7.16,5.38 L 6.30,4.93 L 6.20,4.93 L 5.41,5.34 L 5.31,5.34 L 4.49,4.93 L 3.59,5.38 L 3.59,5.41 L 4.42,5.82 L 2.64,6.71 L 2.64,6.74 L 3.44,7.13 L 3.50,7.19 L 1.78,8.05 Z" fill="#0d1217" stroke="none" /><path d="M 17.08,20.77 L 17.02,20.77 L 16.19,21.18 L 16.19,22.30 L 15.27,22.78 L 15.27,23.86 L 15.33,23.86 L 16.16,23.44 L 16.19,23.48 L 16.19,24.52 L 17.08,24.08 L 17.08,23.00 L 17.15,22.93 L 17.97,22.52 L 17.97,21.44 L 17.91,21.44 L 17.11,21.85 L 17.08,21.82 Z" fill="#01171c" stroke="none" /><path d="M 7.22,22.93 L 7.22,23.98 L 7.19,24.02 L 6.30,23.57 L 6.30,24.68 L 7.22,25.16 L 7.22,26.27 L 8.05,26.69 L 8.11,26.69 L 8.11,25.64 L 8.14,25.61 L 9.03,26.05 L 9.03,24.94 L 8.11,24.46 L 8.11,23.38 Z" fill="#05181c" stroke="none" /><path d="M 2.67,18.45 L 2.67,19.56 L 3.59,20.01 L 3.59,18.89 L 2.74,18.45 Z" fill="#05181c" stroke="none" /><path d="M 19.79,28.28 L 19.72,28.28 L 18.89,28.69 L 18.89,29.77 L 19.79,29.33 Z" fill="#011a20" stroke="none" /><path d="M 27.93,24.21 L 27.86,24.21 L 27.04,24.62 L 27.04,25.70 L 27.93,25.26 Z" fill="#011a20" stroke="none" /><path d="M 26.15,20.68 L 26.08,20.68 L 25.22,21.12 L 25.22,22.20 L 25.29,22.20 L 26.15,21.76 Z" fill="#011a20" stroke="none" /><path d="M 20.71,16.73 L 20.64,16.73 L 19.79,17.18 L 19.79,18.29 L 20.71,17.84 Z" fill="#011a20" stroke="none" /><path d="M 27.93,14.22 L 27.04,14.66 L 27.04,15.78 L 27.93,15.33 Z" fill="#011a20" stroke="none" /><path d="M 11.74,29.61 L 11.74,30.70 L 12.56,31.11 L 12.63,31.11 L 12.63,30.12 L 12.69,30.09 L 13.55,30.54 L 13.55,31.59 L 14.35,32.00 L 14.41,32.00 L 14.41,30.95 L 13.55,30.50 L 13.55,29.42 L 13.52,29.39 L 12.69,28.98 L 12.63,28.98 L 12.63,30.00 L 12.60,30.03 Z" fill="#031b20" stroke="none" /><path d="M 7.22,27.36 L 7.22,28.44 L 8.05,28.85 L 8.11,28.85 L 8.11,27.86 L 8.17,27.83 L 9.03,28.28 L 9.03,29.33 L 9.92,29.77 L 9.92,28.69 L 9.03,28.25 L 9.03,27.17 L 9.00,27.13 L 8.17,26.72 L 8.11,26.72 L 8.11,27.74 L 8.08,27.77 Z" fill="#031b20" stroke="none" /><path d="M 10.85,23.63 L 10.85,24.68 L 10.82,24.72 L 9.99,24.30 L 9.92,24.30 L 9.92,25.38 L 10.85,25.86 L 10.85,26.97 L 11.67,27.39 L 11.74,27.39 L 11.74,26.34 L 11.77,26.31 L 12.56,26.72 L 12.63,26.72 L 12.63,25.64 L 11.80,25.22 L 11.74,25.16 L 11.74,24.08 Z" fill="#031b20" stroke="none" /><path d="M 12.63,22.33 L 12.63,23.41 L 13.49,23.86 L 13.55,23.86 L 13.55,22.78 L 12.69,22.33 Z" fill="#031b20" stroke="none" /><path d="M 0.89,21.98 L 0.89,23.09 L 1.78,23.54 L 1.78,22.43 Z" fill="#031b20" stroke="none" /><path d="M 6.30,20.26 L 6.30,21.38 L 7.22,21.82 L 7.22,20.71 L 6.36,20.26 Z" fill="#031b20" stroke="none" /><path d="M 2.67,19.56 L 2.67,20.61 L 2.64,20.64 L 1.84,20.23 L 1.78,20.23 L 1.78,21.31 L 2.61,21.73 L 2.67,21.79 L 2.67,22.87 L 3.53,23.32 L 3.59,23.32 L 3.59,22.27 L 3.63,22.23 L 4.42,22.65 L 4.49,22.65 L 4.49,21.57 L 3.66,21.15 L 3.59,21.09 L 3.59,20.01 L 2.74,19.56 Z" fill="#031b20" stroke="none" /><path d="M 13.55,17.24 L 13.55,18.35 L 14.41,18.77 L 14.41,17.65 L 13.61,17.24 Z" fill="#031b20" stroke="none" /><path d="M 8.11,16.73 L 8.11,17.78 L 8.08,17.81 L 7.28,17.40 L 7.22,17.40 L 7.22,18.51 L 8.11,18.96 L 8.11,20.07 L 9.03,20.52 L 9.03,19.47 L 9.07,19.44 L 9.92,19.85 L 9.92,18.74 L 9.10,18.32 L 9.03,18.26 L 9.03,17.18 L 8.17,16.73 Z" fill="#031b20" stroke="none" /><path d="M 4.49,14.92 L 4.49,16.03 L 5.41,16.48 L 5.41,15.36 L 4.55,14.92 Z" fill="#031b20" stroke="none" /><path d="M 1.78,14.66 L 1.78,15.78 L 2.67,16.22 L 2.67,15.11 Z" fill="#031b20" stroke="none" /><path d="M 8.11,14.50 L 8.11,15.62 L 8.97,16.06 L 9.03,16.06 L 9.03,14.95 Z" fill="#031b20" stroke="none" /><path d="M 10.85,13.68 L 10.85,14.70 L 10.82,14.73 L 9.99,14.31 L 9.92,14.31 L 9.92,15.43 L 10.78,15.84 L 10.85,15.90 L 10.85,16.99 L 11.74,17.43 L 11.74,16.38 L 11.77,16.35 L 12.63,16.76 L 12.63,15.65 L 11.80,15.24 L 11.74,15.17 L 11.74,14.09 L 10.91,13.68 Z" fill="#031b20" stroke="none" /><path d="M 12.63,13.49 L 12.63,14.57 L 13.55,15.01 L 13.55,13.93 Z" fill="#031b20" stroke="none" /><path d="M 0.89,12.02 L 0.89,13.11 L 1.78,13.55 L 1.78,12.44 L 0.95,12.02 Z" fill="#031b20" stroke="none" /><path d="M 8.11,11.23 L 8.11,12.31 L 9.03,12.76 L 9.03,11.67 Z" fill="#031b20" stroke="none" /><path d="M 6.30,10.34 L 6.30,11.39 L 7.16,11.83 L 7.22,11.83 L 7.22,10.78 L 6.36,10.34 Z" fill="#031b20" stroke="none" /><path d="M 2.67,9.57 L 2.67,10.62 L 2.64,10.66 L 1.84,10.24 L 1.78,10.24 L 1.78,11.36 L 2.67,11.80 L 2.67,12.91 L 3.59,13.36 L 3.59,12.31 L 3.63,12.28 L 4.49,12.69 L 4.49,11.58 L 3.66,11.17 L 3.59,11.10 L 3.59,10.02 Z" fill="#031b20" stroke="none" /><path d="M 15.27,9.42 L 14.44,9.00 L 14.38,9.00 L 12.66,9.86 L 12.63,9.92 L 13.46,10.34 L 13.55,10.34 L 15.27,9.48 Z" fill="#111b21" stroke="none" /><path d="M 4.52,9.42 L 4.52,9.45 L 5.34,9.86 L 5.47,9.86 L 6.23,9.48 L 6.23,9.42 L 5.41,9.00 L 5.31,9.00 Z" fill="#111b21" stroke="none" /><path d="M 25.19,8.94 L 24.43,8.56 L 24.30,8.56 L 21.66,9.89 L 20.77,9.45 L 20.71,9.45 L 19.82,9.89 L 18.07,9.00 L 17.97,9.00 L 17.15,9.42 L 17.15,9.48 L 17.97,9.89 L 17.91,9.96 L 17.15,10.34 L 17.08,10.34 L 16.32,9.96 L 16.25,9.89 L 17.08,9.48 L 17.08,9.42 L 16.25,9.00 L 16.16,9.00 L 15.33,9.42 L 15.33,9.48 L 16.16,9.89 L 16.10,9.96 L 15.36,10.31 L 15.33,10.37 L 16.16,10.78 L 16.29,10.78 L 17.08,10.37 L 17.15,10.37 L 17.91,10.75 L 17.97,10.82 L 17.15,11.23 L 17.15,11.26 L 18.00,11.71 L 18.07,11.71 L 19.82,10.82 L 20.64,11.23 L 20.74,11.23 L 21.57,10.82 L 21.57,10.75 L 20.83,10.40 L 20.80,10.37 L 20.83,10.31 L 21.60,9.92 L 21.69,9.92 L 22.52,10.34 L 25.19,9.00 Z" fill="#111b21" stroke="none" /><path d="M 6.30,9.42 L 6.30,9.48 L 7.13,9.89 L 7.22,9.89 L 8.97,9.00 L 9.83,9.42 L 9.86,9.45 L 9.83,9.48 L 7.25,10.75 L 7.25,10.82 L 8.97,11.67 L 9.10,11.67 L 9.86,11.29 L 9.86,11.23 L 9.03,10.82 L 9.10,10.75 L 9.86,10.37 L 9.92,10.37 L 10.69,10.75 L 10.75,10.82 L 9.92,11.23 L 9.92,11.29 L 10.75,11.71 L 9.92,12.12 L 9.92,12.15 L 10.82,12.60 L 11.64,12.18 L 11.74,12.18 L 12.53,12.60 L 12.50,12.66 L 11.77,13.01 L 11.77,13.07 L 13.49,13.93 L 13.61,13.93 L 15.30,13.07 L 16.13,13.49 L 16.22,13.49 L 17.97,12.60 L 17.97,12.56 L 17.15,12.15 L 16.25,12.60 L 16.19,12.60 L 15.33,12.15 L 14.44,12.60 L 14.38,12.60 L 12.63,11.71 L 12.56,11.71 L 11.71,12.15 L 10.85,11.74 L 10.82,11.71 L 10.85,11.67 L 11.67,11.26 L 11.67,11.23 L 10.85,10.82 L 10.91,10.75 L 11.71,10.37 L 11.71,10.34 L 9.92,9.45 L 10.78,9.00 L 10.78,8.97 L 9.96,8.56 L 9.83,8.56 L 9.03,8.97 L 8.94,8.97 L 8.14,8.56 L 8.02,8.56 Z" fill="#111b21" stroke="none" /><path d="M 24.40,7.60 L 24.40,7.67 L 25.22,8.08 L 25.32,8.08 L 26.15,7.67 L 26.15,7.60 L 25.32,7.19 L 25.22,7.19 Z" fill="#111b21" stroke="none" /><path d="M 0.89,7.60 L 0.89,7.63 L 1.72,8.05 L 1.84,8.05 L 2.61,7.67 L 2.61,7.60 L 1.78,7.19 L 1.69,7.19 Z" fill="#111b21" stroke="none" /><path d="M 3.56,7.16 L 3.59,7.22 L 4.42,7.63 L 3.59,8.05 L 3.56,8.11 L 4.39,8.52 L 4.52,8.52 L 6.23,7.67 L 6.23,7.60 L 4.52,6.74 L 4.39,6.74 Z" fill="#111b21" stroke="none" /><path d="M 2.70,5.82 L 2.74,5.88 L 3.50,6.27 L 3.59,6.27 L 4.42,5.85 L 4.42,5.79 L 3.66,5.41 L 3.53,5.41 Z" fill="#111b21" stroke="none" /><path d="M 15.33,4.90 L 15.36,4.96 L 16.19,5.38 L 16.25,5.38 L 17.11,4.93 L 17.11,4.90 L 16.29,4.49 L 16.16,4.49 Z" fill="#111b21" stroke="none" /><path d="M 9.00,7.19 L 10.75,8.08 L 10.85,8.08 L 11.64,7.67 L 11.74,7.67 L 12.50,8.05 L 12.53,8.08 L 12.50,8.14 L 11.71,8.52 L 11.71,8.56 L 12.60,9.00 L 13.49,8.56 L 13.49,8.52 L 12.66,8.11 L 12.69,8.05 L 13.46,7.67 L 13.55,7.67 L 14.35,8.08 L 14.47,8.08 L 15.30,7.67 L 15.27,7.60 L 14.44,7.19 L 15.30,6.74 L 17.08,7.63 L 17.02,7.70 L 16.22,8.08 L 16.22,8.11 L 17.05,8.52 L 17.18,8.52 L 17.97,8.11 L 18.07,8.11 L 18.86,8.52 L 18.99,8.52 L 19.79,8.11 L 19.88,8.11 L 20.68,8.52 L 20.80,8.52 L 22.52,7.67 L 22.52,7.60 L 21.73,7.22 L 21.69,7.19 L 21.76,7.13 L 23.41,6.30 L 23.51,6.30 L 24.30,6.71 L 24.43,6.71 L 26.08,5.88 L 26.12,5.82 L 24.33,4.93 L 23.51,5.34 L 23.41,5.34 L 22.62,4.93 L 22.52,4.93 L 20.77,5.82 L 19.88,5.38 L 19.82,5.38 L 17.18,6.71 L 17.08,6.71 L 16.29,6.30 L 16.16,6.30 L 15.36,6.71 L 15.27,6.71 L 14.47,6.30 L 14.50,6.23 L 15.30,5.85 L 15.27,5.79 L 14.44,5.38 L 14.38,5.38 L 13.49,5.82 L 12.63,5.38 L 13.46,4.96 L 13.49,4.90 L 12.66,4.49 L 12.53,4.49 L 10.82,5.34 L 10.82,5.41 L 11.64,5.82 L 11.58,5.88 L 10.78,6.27 L 10.78,6.30 L 11.58,6.68 L 11.64,6.74 L 11.61,6.78 L 10.78,7.19 L 9.92,6.74 L 9.83,6.74 L 9.00,7.16 Z" fill="#111b21" stroke="none" /><path d="M 19.88,3.53 L 19.88,3.59 L 20.71,4.01 L 20.80,4.01 L 21.60,3.59 L 21.60,3.56 L 20.77,3.15 L 20.64,3.15 Z" fill="#111b21" stroke="none" /><path d="M 11.67,2.19 L 10.88,1.78 L 10.78,1.78 L 9.96,2.19 L 9.96,2.26 L 10.69,2.61 L 10.72,2.64 L 10.69,2.70 L 9.92,3.09 L 9.83,3.09 L 9.00,2.67 L 7.22,3.56 L 7.22,3.59 L 8.91,4.45 L 9.03,4.45 L 9.86,4.04 L 9.83,3.98 L 9.03,3.59 L 9.00,3.56 L 9.03,3.53 L 9.86,3.12 L 10.75,3.56 L 10.82,3.56 L 11.64,3.15 L 11.67,3.09 L 10.88,2.70 L 10.85,2.64 L 11.67,2.23 Z" fill="#111b21" stroke="none" /><path d="M 13.52,1.27 L 13.55,1.34 L 14.38,1.75 L 13.55,2.16 L 13.52,2.23 L 14.35,2.64 L 14.47,2.64 L 15.27,2.23 L 15.36,2.23 L 16.16,2.64 L 16.29,2.64 L 17.08,2.23 L 17.18,2.23 L 17.94,2.61 L 17.97,2.64 L 17.94,2.70 L 16.25,3.53 L 16.25,3.59 L 17.08,4.01 L 17.18,4.01 L 18.04,3.56 L 18.89,4.01 L 18.99,4.01 L 19.82,3.59 L 19.82,3.53 L 18.10,2.67 L 18.13,2.61 L 18.86,2.26 L 18.86,2.19 L 16.19,0.86 L 15.36,1.27 L 15.27,1.27 L 14.47,0.86 L 14.35,0.86 Z" fill="#111b21" stroke="none" /><path d="M 23.41,26.47 L 23.35,26.47 L 22.52,26.88 L 22.52,27.96 L 23.41,27.51 Z" fill="#022725" stroke="none" /><path d="M 23.41,16.48 L 22.52,16.92 L 22.52,18.04 L 23.41,17.59 Z" fill="#022725" stroke="none" /><path d="M 8.08,4.90 L 8.11,4.96 L 8.94,5.38 L 8.11,5.79 L 8.08,5.85 L 8.91,6.27 L 9.03,6.27 L 9.83,5.85 L 9.92,5.85 L 10.72,6.27 L 10.85,6.27 L 11.67,5.85 L 11.64,5.79 L 10.82,5.38 L 11.64,4.96 L 11.67,4.90 L 10.85,4.49 L 10.72,4.49 L 9.92,4.90 L 9.83,4.90 L 9.03,4.49 L 8.91,4.49 Z" fill="#08252b" stroke="none" /><path d="M 16.22,4.45 L 16.22,4.49 L 17.11,4.93 L 18.04,4.49 L 18.04,4.45 L 17.15,4.01 Z" fill="#08252b" stroke="none" /><path d="M 1.78,15.78 L 1.78,16.83 L 1.75,16.86 L 0.89,16.45 L 0.89,17.56 L 1.78,18.00 L 1.78,19.12 L 2.61,19.53 L 2.67,19.53 L 2.67,18.48 L 2.70,18.45 L 3.59,18.89 L 3.59,17.78 L 2.74,17.37 L 2.67,17.30 L 2.67,16.22 Z" fill="#02252e" stroke="none" /><path d="M 14.44,13.49 L 14.44,13.55 L 15.20,13.93 L 15.33,13.93 L 16.16,13.52 L 16.13,13.46 L 15.36,13.07 L 15.27,13.07 Z" fill="#052931" stroke="none" /><path d="M 10.85,12.56 L 10.88,12.63 L 11.71,13.04 L 11.77,13.04 L 12.60,12.63 L 12.60,12.60 L 11.71,12.15 Z" fill="#052931" stroke="none" /><path d="M 18.96,11.23 L 18.96,11.29 L 19.72,11.67 L 19.85,11.67 L 20.68,11.26 L 20.64,11.20 L 19.88,10.82 L 19.79,10.82 Z" fill="#052931" stroke="none" /><path d="M 13.52,11.23 L 13.55,11.29 L 14.38,11.71 L 13.55,12.12 L 13.52,12.18 L 14.35,12.60 L 14.47,12.60 L 15.27,12.18 L 15.36,12.18 L 16.16,12.60 L 16.29,12.60 L 17.11,12.18 L 17.08,12.12 L 16.25,11.71 L 17.08,11.29 L 17.11,11.23 L 16.29,10.82 L 16.16,10.82 L 15.36,11.23 L 15.27,11.23 L 14.47,10.82 L 14.35,10.82 Z" fill="#052931" stroke="none" /><path d="M 22.49,10.31 L 21.63,9.89 L 20.74,10.34 L 20.74,10.37 L 21.57,10.78 L 21.63,10.78 L 22.46,10.37 Z" fill="#052931" stroke="none" /><path d="M 16.22,9.89 L 16.22,9.92 L 17.05,10.34 L 17.18,10.34 L 18.00,9.92 L 17.97,9.86 L 17.15,9.45 L 17.08,9.45 Z" fill="#052931" stroke="none" /><path d="M 7.19,9.89 L 7.19,9.92 L 8.02,10.34 L 8.14,10.34 L 8.97,9.92 L 8.94,9.86 L 8.11,9.45 L 8.05,9.45 Z" fill="#052931" stroke="none" /><path d="M 12.60,8.08 L 12.60,8.11 L 13.39,8.49 L 13.46,8.56 L 12.63,8.97 L 12.63,9.00 L 13.49,9.45 L 13.55,9.45 L 14.38,9.03 L 14.38,8.97 L 13.55,8.56 L 13.61,8.49 L 14.38,8.11 L 14.44,8.11 L 15.20,8.49 L 15.27,8.56 L 14.44,8.97 L 14.44,9.03 L 15.27,9.45 L 15.33,9.45 L 16.19,9.00 L 16.19,8.97 L 15.36,8.56 L 15.43,8.49 L 16.22,8.11 L 16.22,8.08 L 15.33,7.63 L 14.44,8.08 L 14.38,8.08 L 13.52,7.63 Z" fill="#052931" stroke="none" /><path d="M 21.66,7.16 L 21.69,7.22 L 22.52,7.63 L 21.69,8.05 L 21.66,8.11 L 22.49,8.52 L 22.62,8.52 L 23.41,8.11 L 23.51,8.11 L 24.30,8.52 L 24.43,8.52 L 25.26,8.11 L 25.22,8.05 L 24.40,7.63 L 25.22,7.22 L 25.26,7.16 L 24.43,6.74 L 24.30,6.74 L 23.51,7.16 L 23.41,7.16 L 22.62,6.74 L 22.49,6.74 Z" fill="#052931" stroke="none" /><path d="M 18.07,7.16 L 18.07,7.22 L 18.89,7.63 L 18.96,7.63 L 19.82,7.19 L 19.82,7.16 L 18.99,6.74 L 18.89,6.74 Z" fill="#052931" stroke="none" /><path d="M 5.38,7.16 L 5.41,7.22 L 6.23,7.63 L 5.41,8.05 L 5.38,8.11 L 6.20,8.52 L 6.33,8.52 L 7.13,8.11 L 7.22,8.11 L 8.02,8.52 L 8.14,8.52 L 8.97,8.11 L 8.94,8.05 L 8.11,7.63 L 8.94,7.22 L 8.97,7.16 L 8.14,6.74 L 8.02,6.74 L 7.22,7.16 L 7.13,7.16 L 6.33,6.74 L 6.20,6.74 Z" fill="#052931" stroke="none" /><path d="M 3.53,6.27 L 2.74,5.85 L 2.64,5.85 L 1.81,6.27 L 1.81,6.33 L 2.54,6.68 L 2.58,6.71 L 2.54,6.78 L 1.78,7.16 L 1.69,7.16 L 0.86,6.74 L 0.03,7.16 L 0.03,7.19 L 0.83,7.60 L 0.92,7.60 L 1.75,7.19 L 2.61,7.63 L 2.67,7.63 L 3.53,7.19 L 3.53,7.16 L 2.70,6.74 L 2.74,6.68 L 3.53,6.30 Z" fill="#052931" stroke="none" /><path d="M 12.60,6.27 L 12.60,6.30 L 13.49,6.74 L 14.41,6.30 L 14.41,6.27 L 13.52,5.82 Z" fill="#052931" stroke="none" /><path d="M 22.58,5.79 L 22.58,5.85 L 23.41,6.27 L 23.51,6.27 L 24.33,5.85 L 24.33,5.79 L 23.51,5.38 L 23.41,5.38 Z" fill="#052931" stroke="none" /><path d="M 19.88,5.34 L 19.88,5.41 L 20.71,5.82 L 20.80,5.82 L 21.63,5.41 L 21.63,5.34 L 20.80,4.93 L 20.71,4.93 Z" fill="#052931" stroke="none" /><path d="M 8.05,4.01 L 7.25,3.59 L 7.16,3.59 L 6.33,4.01 L 6.33,4.07 L 7.06,4.42 L 7.09,4.45 L 7.06,4.52 L 6.30,4.90 L 6.20,4.90 L 5.38,4.49 L 4.55,4.90 L 4.52,4.96 L 5.38,5.38 L 6.27,4.93 L 7.13,5.38 L 7.19,5.38 L 8.05,4.93 L 8.05,4.90 L 7.22,4.49 L 7.25,4.42 L 8.05,4.04 Z" fill="#052931" stroke="none" /><path d="M 13.52,3.09 L 13.55,3.15 L 14.38,3.56 L 13.55,3.98 L 13.52,4.04 L 14.35,4.45 L 14.47,4.45 L 15.27,4.04 L 15.36,4.04 L 16.16,4.45 L 16.29,4.45 L 17.11,4.04 L 17.08,3.98 L 16.25,3.56 L 17.08,3.15 L 17.11,3.09 L 16.29,2.67 L 16.16,2.67 L 15.36,3.09 L 15.27,3.09 L 14.47,2.67 L 14.35,2.67 Z" fill="#052931" stroke="none" /><path d="M 14.44,1.72 L 14.44,1.78 L 15.27,2.19 L 15.36,2.19 L 16.19,1.78 L 16.19,1.72 L 15.36,1.30 L 15.27,1.30 Z" fill="#052931" stroke="none" /><path d="M 17.97,24.75 L 17.08,25.19 L 17.08,26.27 L 17.15,26.27 L 17.97,25.86 Z" fill="#033131" stroke="none" /><path d="M 22.52,23.57 L 21.60,24.02 L 21.60,25.13 L 21.66,25.13 L 22.52,24.68 Z" fill="#033131" stroke="none" /><path d="M 12.63,30.06 L 12.63,31.14 L 13.55,31.59 L 13.55,30.50 Z" fill="#022a33" stroke="none" /><path d="M 4.49,25.99 L 4.49,27.07 L 5.41,27.51 L 5.41,26.43 Z" fill="#022a33" stroke="none" /><path d="M 10.85,24.75 L 10.85,25.86 L 11.67,26.27 L 11.74,26.27 L 11.74,25.19 Z" fill="#022a33" stroke="none" /><path d="M 12.63,20.10 L 12.63,21.22 L 13.55,21.66 L 13.55,20.55 L 12.69,20.10 Z" fill="#022a33" stroke="none" /><path d="M 5.41,15.36 L 5.41,16.48 L 6.30,16.92 L 6.30,15.81 Z" fill="#022a33" stroke="none" /><path d="M 26.15,10.69 L 26.08,10.69 L 25.22,11.13 L 25.22,12.25 L 26.15,11.80 Z" fill="#003434" stroke="none" /><path d="M 8.11,27.80 L 8.11,28.88 L 9.03,29.33 L 9.03,28.25 Z" fill="#033f3c" stroke="none" /><path d="M 8.11,17.84 L 8.11,18.96 L 9.03,19.40 L 9.03,18.29 L 8.17,17.84 Z" fill="#033f3c" stroke="none" /><path d="M 17.15,4.01 L 17.15,4.04 L 17.97,4.45 L 17.94,4.52 L 17.15,4.90 L 17.15,4.93 L 18.00,5.38 L 18.07,5.38 L 18.93,4.93 L 19.82,5.38 L 19.88,5.38 L 20.74,4.93 L 20.74,4.90 L 19.91,4.49 L 19.94,4.42 L 20.74,4.04 L 20.74,4.01 L 19.88,3.56 L 19.82,3.56 L 18.96,4.01 L 18.07,3.56 L 18.00,3.56 Z" fill="#033946" stroke="none" /><path d="M 17.97,14.76 L 17.08,15.20 L 17.08,16.32 L 17.97,15.87 Z" fill="#0e464a" stroke="none" /><path d="M 17.08,21.88 L 17.02,21.88 L 16.19,22.30 L 16.19,23.41 L 17.08,22.97 Z" fill="#0c494c" stroke="none" /><path d="M 9.00,10.78 L 9.03,10.85 L 9.86,11.26 L 9.92,11.26 L 10.78,10.82 L 10.78,10.78 L 9.96,10.37 L 9.83,10.37 Z" fill="#03404f" stroke="none" /><path d="M 17.15,7.63 L 17.15,7.67 L 17.97,8.08 L 18.07,8.08 L 18.89,7.67 L 18.89,7.60 L 18.07,7.19 L 18.00,7.19 Z" fill="#03404f" stroke="none" /><path d="M 6.30,7.60 L 6.30,7.67 L 7.13,8.08 L 7.22,8.08 L 8.05,7.67 L 8.05,7.60 L 7.22,7.19 L 7.13,7.19 Z" fill="#03404f" stroke="none" /><path d="M 0.89,6.78 L 1.75,7.19 L 2.64,6.74 L 2.64,6.71 L 1.81,6.30 L 1.75,6.30 L 0.92,6.71 Z" fill="#03404f" stroke="none" /><path d="M 9.03,2.70 L 9.89,3.12 L 10.78,2.67 L 10.78,2.64 L 9.96,2.23 L 9.89,2.23 L 9.07,2.64 Z" fill="#03404f" stroke="none" /><path d="M 7.22,24.05 L 7.22,25.16 L 8.05,25.57 L 8.11,25.57 L 8.11,24.46 L 7.28,24.05 Z" fill="#044f50" stroke="none" /><path d="M 2.67,20.68 L 2.67,21.76 L 3.53,22.20 L 3.59,22.20 L 3.59,21.12 L 2.74,20.68 Z" fill="#044f50" stroke="none" /><path d="M 10.85,14.76 L 10.85,15.87 L 11.74,16.32 L 11.74,15.20 Z" fill="#015455" stroke="none" /><path d="M 13.52,8.52 L 13.55,8.59 L 14.38,9.00 L 14.44,9.00 L 15.30,8.56 L 15.30,8.52 L 14.47,8.11 L 14.35,8.11 Z" fill="#05615c" stroke="none" /><path d="M 5.41,4.52 L 6.27,4.93 L 7.16,4.49 L 7.16,4.45 L 6.33,4.04 L 6.27,4.04 L 5.44,4.45 Z" fill="#05615c" stroke="none" /><path d="M 2.67,10.69 L 2.67,11.80 L 3.59,12.25 L 3.59,11.13 L 2.74,10.69 Z" fill="#177177" stroke="none" /><path d="M 1.78,16.89 L 1.78,18.00 L 2.61,18.42 L 2.67,18.42 L 2.67,17.34 Z" fill="#13777b" stroke="none" /><path d="M 9.00,5.34 L 9.00,5.41 L 9.83,5.82 L 9.92,5.82 L 10.75,5.41 L 10.75,5.34 L 9.92,4.93 L 9.83,4.93 Z" fill="#077a7c" stroke="none" /><path d="M 14.44,3.53 L 14.44,3.59 L 15.27,4.01 L 15.36,4.01 L 16.19,3.59 L 16.19,3.53 L 15.36,3.12 L 15.27,3.12 Z" fill="#077a7c" stroke="none" /><path d="M 14.44,11.67 L 14.44,11.74 L 15.27,12.15 L 15.36,12.15 L 16.19,11.74 L 16.19,11.67 L 15.36,11.26 L 15.27,11.26 Z" fill="#018182" stroke="none" /><path d="M 22.58,7.60 L 22.58,7.67 L 23.41,8.08 L 23.51,8.08 L 24.33,7.67 L 24.33,7.60 L 23.51,7.19 L 23.41,7.19 Z" fill="#24afb8" stroke="none" /><path d="M 18.04,4.45 L 18.04,4.49 L 18.93,4.93 L 19.85,4.49 L 19.85,4.45 L 18.96,4.01 Z" fill="#1eb7be" stroke="none" /></svg>