<svg height="32" width="32" viewBox="0 0 32 32"><defs /><path d="M 17.10,27.35 L 15.30,28.25 L 15.30,30.46 L 16.20,30.03 L 16.20,28.92 L 17.10,28.45 Z" fill="#2c5220" stroke="none" /><path d="M 21.59,24.00 L 20.69,24.44 L 20.69,25.54 L 20.75,25.54 L 21.59,25.10 Z" fill="#2c5220" stroke="none" /><path d="M 26.08,20.65 L 24.30,21.52 L 24.30,23.73 L 24.37,23.73 L 25.17,23.33 L 25.17,22.23 L 26.08,21.76 Z" fill="#2c5220" stroke="none" /><path d="M 24.30,19.35 L 23.40,19.78 L 23.40,20.89 L 23.46,20.89 L 24.30,20.45 Z" fill="#2c5220" stroke="none" /><path d="M 26.98,16.90 L 26.08,17.34 L 26.08,18.44 L 26.14,18.44 L 26.98,18.01 Z" fill="#2c5220" stroke="none" /><path d="M 25.17,13.42 L 25.10,13.42 L 23.40,14.29 L 23.40,16.47 L 23.46,16.47 L 24.30,16.03 L 24.30,14.96 L 24.37,14.90 L 25.17,14.49 Z" fill="#2c5220" stroke="none" /><path d="M 27.88,8.74 L 26.98,9.17 L 26.98,10.28 L 27.05,10.28 L 27.88,9.84 Z" fill="#2c5220" stroke="none" /><path d="M 21.59,27.31 L 19.78,28.22 L 19.78,29.29 L 19.85,29.29 L 21.59,28.42 Z" fill="#305824" stroke="none" /><path d="M 18.88,26.48 L 18.81,26.48 L 17.10,27.35 L 17.10,28.42 L 17.04,28.49 L 16.20,28.89 L 16.20,29.99 L 16.27,29.99 L 17.10,29.56 L 17.10,28.49 L 17.17,28.42 L 18.88,27.58 Z" fill="#305824" stroke="none" /><path d="M 15.30,25.57 L 15.23,25.57 L 14.39,26.01 L 14.39,27.58 L 14.46,27.58 L 15.30,27.15 Z" fill="#305824" stroke="none" /><path d="M 26.98,24.64 L 26.91,24.64 L 26.08,25.07 L 26.08,26.14 L 26.14,26.14 L 26.98,25.71 Z" fill="#305824" stroke="none" /><path d="M 17.97,24.23 L 17.91,24.23 L 17.10,24.64 L 17.10,25.14 L 17.97,24.70 Z" fill="#305824" stroke="none" /><path d="M 26.08,21.76 L 25.17,22.19 L 25.17,23.30 L 25.24,23.30 L 26.08,22.86 Z" fill="#305824" stroke="none" /><path d="M 26.08,18.48 L 26.01,18.48 L 24.30,19.35 L 24.30,20.42 L 24.23,20.49 L 23.40,20.89 L 23.40,21.49 L 23.36,21.52 L 22.49,21.96 L 22.49,22.43 L 22.56,22.43 L 23.33,22.03 L 23.40,22.06 L 23.40,23.06 L 23.33,23.13 L 22.49,23.53 L 22.49,24.64 L 19.82,25.97 L 19.78,26.01 L 19.78,27.11 L 22.49,25.77 L 22.49,24.67 L 24.30,23.77 L 24.30,21.56 L 25.17,21.12 L 25.17,20.05 L 25.24,19.98 L 26.08,19.58 Z" fill="#305824" stroke="none" /><path d="M 28.79,18.21 L 27.88,18.64 L 27.88,20.85 L 28.79,20.42 Z" fill="#305824" stroke="none" /><path d="M 26.98,14.69 L 26.08,15.13 L 26.08,17.34 L 26.14,17.34 L 26.98,16.90 Z" fill="#305824" stroke="none" /><path d="M 25.17,14.49 L 24.30,14.93 L 24.30,16.03 L 25.17,15.60 Z" fill="#305824" stroke="none" /><path d="M 28.79,10.51 L 28.72,10.51 L 27.88,10.95 L 27.88,12.05 L 28.79,11.62 Z" fill="#305824" stroke="none" /><path d="M 26.98,10.31 L 26.91,10.31 L 26.08,10.74 L 26.08,14.03 L 26.14,14.03 L 26.98,13.59 Z" fill="#305824" stroke="none" /><path d="M 25.17,9.00 L 25.10,9.00 L 24.30,9.41 L 24.30,10.51 L 24.37,10.51 L 25.17,10.11 Z" fill="#305824" stroke="none" /><path d="M 19.78,19.41 L 19.72,19.41 L 18.88,19.85 L 18.88,20.92 L 18.81,20.99 L 17.97,21.39 L 17.97,22.49 L 18.04,22.49 L 19.78,21.62 Z" fill="#315a24" stroke="none" /><path d="M 18.88,15.46 L 18.81,15.46 L 17.97,15.90 L 17.97,16.97 L 17.91,17.04 L 17.10,17.44 L 17.10,18.51 L 17.17,18.51 L 18.88,17.64 Z" fill="#315a24" stroke="none" /><path d="M 17.10,18.04 L 16.20,18.48 L 16.20,18.98 L 17.10,18.54 Z" fill="#335f26" stroke="none" /><path d="M 22.49,12.55 L 22.43,12.55 L 20.69,13.42 L 20.69,14.53 L 20.75,14.53 L 21.56,14.13 L 21.59,14.09 L 21.59,13.62 L 21.66,13.56 L 22.49,13.15 Z" fill="#335f26" stroke="none" /><path d="M 23.40,20.92 L 23.33,20.92 L 22.49,21.36 L 22.49,21.96 L 23.40,21.52 Z" fill="#345f27" stroke="none" /><path d="M 15.30,17.24 L 14.39,17.67 L 14.39,18.78 L 14.46,18.78 L 15.30,18.34 Z" fill="#345f27" stroke="none" /><path d="M 17.10,13.66 L 17.04,13.66 L 16.23,14.06 L 16.20,14.09 L 16.20,14.56 L 16.27,14.56 L 17.07,14.16 L 17.10,14.13 Z" fill="#345f27" stroke="none" /><path d="M 22.49,13.15 L 22.43,13.15 L 21.59,13.59 L 21.59,14.09 L 22.49,13.66 Z" fill="#345f27" stroke="none" /><path d="M 17.04,20.75 L 16.20,21.19 L 16.20,24.50 L 17.07,24.07 L 17.10,24.10 L 17.10,24.64 L 17.17,24.64 L 17.97,24.23 L 17.97,23.63 L 17.91,23.63 L 17.14,24.03 L 17.10,24.00 L 17.10,20.75 Z" fill="#346028" stroke="none" /><path d="M 18.88,19.85 L 17.97,20.28 L 17.97,21.39 L 18.04,21.39 L 18.88,20.95 Z" fill="#346028" stroke="none" /><path d="M 19.78,17.21 L 19.72,17.21 L 17.10,18.51 L 17.10,20.25 L 17.97,19.82 L 17.97,19.21 L 18.01,19.18 L 19.78,18.31 Z" fill="#346028" stroke="none" /><path d="M 22.49,14.76 L 22.43,14.76 L 21.59,15.20 L 21.59,16.27 L 21.66,16.27 L 22.49,15.83 Z" fill="#346028" stroke="none" /><path d="M 18.88,14.36 L 18.81,14.36 L 17.97,14.79 L 17.97,15.87 L 17.91,15.93 L 17.10,16.33 L 17.10,17.41 L 17.04,17.47 L 16.20,17.87 L 16.20,18.48 L 16.27,18.48 L 17.07,18.08 L 17.10,18.04 L 17.10,17.47 L 17.17,17.41 L 17.97,17.00 L 17.97,15.93 L 18.04,15.87 L 18.88,15.46 Z" fill="#346028" stroke="none" /><path d="M 23.40,12.08 L 22.49,12.52 L 22.49,13.62 L 22.56,13.62 L 23.40,13.19 Z" fill="#346028" stroke="none" /><path d="M 21.59,11.41 L 21.52,11.41 L 19.78,12.28 L 19.78,12.79 L 21.56,11.92 L 21.59,11.88 Z" fill="#346028" stroke="none" /><path d="M 15.30,24.97 L 15.23,24.97 L 14.39,25.41 L 14.39,26.01 L 15.30,25.57 Z" fill="#356028" stroke="none" /><path d="M 17.97,19.82 L 17.10,20.25 L 17.10,20.72 L 17.17,20.72 L 17.97,20.32 Z" fill="#356028" stroke="none" /><path d="M 19.78,15.00 L 18.88,15.43 L 18.88,16.54 L 18.95,16.54 L 19.78,16.10 Z" fill="#356028" stroke="none" /><path d="M 21.59,10.78 L 21.02,11.05 L 20.99,11.11 L 21.52,11.38 L 21.59,11.38 Z" fill="#376529" stroke="none" /><path d="M 21.59,11.38 L 20.95,11.08 L 20.08,11.51 L 20.08,11.55 L 20.72,11.85 L 21.59,11.41 Z" fill="#376629" stroke="none" /><path d="M 17.10,13.02 L 16.20,13.46 L 16.20,14.09 L 17.10,13.66 Z" fill="#38672b" stroke="none" /><path d="M 20.69,11.82 L 20.15,11.55 L 20.02,11.55 L 19.82,11.65 L 19.78,11.68 L 19.78,12.28 L 19.85,12.28 L 20.65,11.88 Z" fill="#39682b" stroke="none" /><path d="M 15.30,30.46 L 14.39,30.90 L 14.39,32.00 L 15.30,31.56 Z" fill="#385e30" stroke="none" /><path d="M 19.78,28.22 L 18.04,29.09 L 17.97,29.05 L 17.97,28.02 L 17.14,28.42 L 17.10,28.45 L 17.10,30.63 L 17.17,30.63 L 19.78,29.32 Z" fill="#385e30" stroke="none" /><path d="M 26.08,25.07 L 21.62,27.28 L 21.59,27.31 L 21.59,28.38 L 21.66,28.38 L 26.08,26.18 Z" fill="#385e30" stroke="none" /><path d="M 25.17,23.33 L 25.10,23.33 L 22.53,24.64 L 22.49,24.60 L 22.49,23.56 L 23.40,23.10 L 23.40,21.99 L 22.53,22.43 L 22.49,22.39 L 22.49,21.96 L 22.46,21.96 L 17.97,24.20 L 17.97,24.67 L 17.91,24.74 L 17.14,25.10 L 17.10,25.07 L 17.10,24.67 L 17.04,24.67 L 15.30,25.54 L 15.30,28.25 L 17.07,27.38 L 17.10,27.35 L 17.10,26.28 L 17.17,26.21 L 18.85,25.37 L 18.88,25.41 L 18.88,27.55 L 18.95,27.55 L 19.78,27.11 L 19.78,26.04 L 19.85,25.97 L 20.69,25.57 L 20.69,24.47 L 20.72,24.44 L 21.56,24.03 L 21.59,24.07 L 21.59,25.10 L 22.46,24.67 L 22.49,24.70 L 22.49,25.74 L 22.56,25.74 L 25.17,24.44 Z" fill="#385e30" stroke="none" /><path d="M 24.23,9.44 L 22.79,10.18 L 22.79,10.21 L 23.40,10.51 L 23.40,14.29 L 25.14,13.42 L 25.17,13.46 L 25.17,15.56 L 25.10,15.63 L 23.40,16.47 L 23.40,19.78 L 23.46,19.78 L 26.04,18.48 L 26.08,18.51 L 26.08,19.55 L 25.17,20.02 L 25.17,21.09 L 25.24,21.09 L 26.08,20.65 L 26.08,19.58 L 26.91,19.15 L 26.98,19.18 L 26.98,21.29 L 27.05,21.29 L 27.82,20.89 L 27.88,20.92 L 27.88,24.13 L 27.82,24.20 L 26.98,24.60 L 26.98,25.71 L 27.01,25.71 L 28.79,24.80 L 28.79,20.42 L 28.72,20.42 L 27.95,20.82 L 27.88,20.79 L 27.88,18.68 L 28.79,18.21 L 28.79,11.62 L 28.72,11.62 L 27.95,12.02 L 27.88,11.98 L 27.88,9.84 L 27.01,10.28 L 26.98,10.24 L 26.98,9.21 L 26.91,9.21 L 24.33,10.51 L 24.30,10.48 L 24.30,9.44 Z" fill="#385e30" stroke="none" /><path d="M 28.79,7.20 L 28.72,7.20 L 27.88,7.63 L 27.88,8.74 L 28.79,8.30 Z" fill="#385e30" stroke="none" /><path d="M 17.10,29.56 L 16.20,29.99 L 16.20,31.10 L 17.10,30.66 Z" fill="#3b6230" stroke="none" /><path d="M 15.30,27.15 L 14.39,27.58 L 14.39,29.79 L 14.46,29.79 L 15.30,29.36 Z" fill="#3b6230" stroke="none" /><path d="M 21.59,26.21 L 18.01,27.98 L 17.97,28.02 L 17.97,29.12 L 21.56,27.35 L 21.59,27.31 Z" fill="#3b6230" stroke="none" /><path d="M 18.88,25.37 L 18.81,25.37 L 17.97,25.81 L 17.97,26.91 L 18.88,26.48 Z" fill="#3b6230" stroke="none" /><path d="M 17.10,25.14 L 16.20,25.57 L 16.20,26.68 L 16.27,26.68 L 17.10,26.24 Z" fill="#3b6230" stroke="none" /><path d="M 27.88,15.36 L 27.82,15.36 L 26.98,15.80 L 26.98,19.08 L 26.91,19.15 L 26.08,19.55 L 26.08,22.83 L 26.01,22.90 L 25.17,23.30 L 25.17,24.40 L 25.24,24.40 L 26.98,23.53 L 26.98,19.15 L 27.05,19.08 L 27.88,18.68 Z" fill="#3b6230" stroke="none" /><path d="M 25.17,11.21 L 25.10,11.21 L 24.30,11.62 L 24.30,12.72 L 24.37,12.72 L 25.17,12.32 Z" fill="#3b6230" stroke="none" /><path d="M 28.79,9.41 L 28.72,9.41 L 27.88,9.84 L 27.88,10.95 L 28.79,10.51 Z" fill="#3b6230" stroke="none" /><path d="M 26.98,8.10 L 26.91,8.10 L 25.17,8.97 L 25.17,10.08 L 25.24,10.08 L 26.98,9.21 Z" fill="#3b6230" stroke="none" /><path d="M 18.88,22.66 L 17.97,23.10 L 17.97,24.20 L 18.04,24.20 L 18.88,23.77 Z" fill="#3c6532" stroke="none" /><path d="M 23.40,19.31 L 23.33,19.31 L 21.59,20.18 L 21.59,22.39 L 21.66,22.39 L 22.49,21.96 L 22.49,20.89 L 22.56,20.82 L 23.40,20.42 Z" fill="#3c6532" stroke="none" /><path d="M 17.10,18.54 L 17.04,18.54 L 16.20,18.98 L 16.20,20.69 L 16.27,20.69 L 17.10,20.25 Z" fill="#3c6532" stroke="none" /><path d="M 21.59,18.01 L 20.69,18.44 L 20.69,19.55 L 21.59,19.11 Z" fill="#3c6532" stroke="none" /><path d="M 15.30,15.63 L 14.39,16.07 L 14.39,16.57 L 14.46,16.57 L 15.30,16.13 Z" fill="#3c6532" stroke="none" /><path d="M 21.59,14.09 L 20.69,14.53 L 20.69,15.13 L 20.75,15.13 L 21.59,14.69 Z" fill="#3c6532" stroke="none" /><path d="M 16.20,14.09 L 15.30,14.53 L 15.30,15.03 L 16.20,14.59 Z" fill="#3c6532" stroke="none" /><path d="M 21.59,12.49 L 20.69,12.92 L 20.69,13.42 L 20.75,13.42 L 21.59,12.99 Z" fill="#3c6532" stroke="none" /><path d="M 16.20,19.62 L 16.13,19.62 L 15.30,20.05 L 15.30,21.15 L 16.20,20.72 Z" fill="#3f6932" stroke="none" /><path d="M 15.30,16.13 L 14.39,16.57 L 14.39,17.17 L 14.46,17.17 L 15.30,16.74 Z" fill="#3f6932" stroke="none" /><path d="M 22.49,12.05 L 22.43,12.05 L 21.59,12.49 L 21.59,12.99 L 22.49,12.55 Z" fill="#3f6932" stroke="none" /><path d="M 15.26,29.36 L 14.39,29.79 L 14.39,30.90 L 14.46,30.90 L 15.26,30.49 L 15.30,30.53 L 15.30,31.53 L 15.36,31.53 L 16.20,31.10 L 16.20,30.03 L 16.13,30.03 L 15.33,30.43 L 15.30,30.39 L 15.30,29.36 Z" fill="#3b6433" stroke="none" /><path d="M 17.97,25.81 L 17.10,26.24 L 17.10,27.35 L 17.97,26.91 Z" fill="#3b6433" stroke="none" /><path d="M 27.88,20.85 L 26.98,21.29 L 26.98,23.50 L 21.62,26.18 L 21.59,26.21 L 21.59,27.31 L 27.88,24.17 Z" fill="#3b6433" stroke="none" /><path d="M 27.85,7.63 L 26.98,8.07 L 26.98,9.17 L 27.05,9.17 L 27.85,8.77 L 27.88,8.80 L 27.88,9.84 L 27.92,9.84 L 28.79,9.41 L 28.79,8.30 L 28.72,8.30 L 27.92,8.70 L 27.88,8.67 L 27.88,7.63 Z" fill="#3b6433" stroke="none" /><path d="M 15.30,22.26 L 15.23,22.26 L 14.39,22.69 L 14.39,23.80 L 15.30,23.36 Z" fill="#3c6633" stroke="none" /><path d="M 23.40,20.42 L 23.33,20.42 L 22.49,20.85 L 22.49,21.36 L 23.40,20.92 Z" fill="#3c6633" stroke="none" /><path d="M 15.30,18.34 L 14.39,18.78 L 14.39,19.38 L 14.46,19.38 L 15.30,18.95 Z" fill="#3c6633" stroke="none" /><path d="M 23.40,17.61 L 23.33,17.61 L 21.59,18.48 L 21.59,19.08 L 21.56,19.11 L 19.78,19.98 L 19.78,21.09 L 19.85,21.09 L 20.62,20.69 L 20.69,20.72 L 20.69,22.23 L 20.62,22.29 L 19.78,22.69 L 19.78,23.30 L 19.85,23.30 L 21.59,22.43 L 21.59,20.22 L 22.49,19.75 L 22.49,18.68 L 22.56,18.61 L 23.40,18.21 Z" fill="#3c6633" stroke="none" /><path d="M 17.10,16.33 L 16.20,16.77 L 16.20,17.37 L 16.27,17.37 L 17.10,16.94 Z" fill="#3c6633" stroke="none" /><path d="M 15.30,14.56 L 15.23,14.56 L 14.39,15.00 L 14.39,16.07 L 14.46,16.07 L 15.30,15.63 Z" fill="#3c6633" stroke="none" /><path d="M 19.78,13.89 L 18.88,14.33 L 18.88,14.93 L 18.95,14.93 L 19.78,14.49 Z" fill="#3c6633" stroke="none" /><path d="M 22.49,13.66 L 22.43,13.66 L 21.59,14.09 L 21.59,14.69 L 22.49,14.26 Z" fill="#3c6633" stroke="none" /><path d="M 20.69,21.76 L 19.78,22.19 L 19.78,22.69 L 19.85,22.69 L 20.69,22.26 Z" fill="#406933" stroke="none" /><path d="M 16.20,18.98 L 15.30,19.41 L 15.30,20.05 L 16.20,19.62 Z" fill="#406933" stroke="none" /><path d="M 23.40,17.10 L 21.62,17.97 L 21.59,18.01 L 21.59,18.48 L 21.66,18.48 L 23.40,17.61 Z" fill="#406933" stroke="none" /><path d="M 15.30,16.74 L 14.39,17.17 L 14.39,17.67 L 14.46,17.67 L 15.30,17.24 Z" fill="#406933" stroke="none" /><path d="M 17.10,15.83 L 16.20,16.27 L 16.20,16.77 L 16.27,16.77 L 17.10,16.33 Z" fill="#406933" stroke="none" /><path d="M 16.20,23.40 L 15.33,23.83 L 15.30,23.80 L 15.30,23.36 L 15.23,23.36 L 14.43,23.77 L 14.39,23.80 L 14.39,24.90 L 16.17,24.03 L 16.20,24.00 Z" fill="#3d6634" stroke="none" /><path d="M 20.69,20.65 L 19.78,21.09 L 19.78,21.59 L 19.75,21.62 L 18.01,22.49 L 17.97,22.46 L 17.97,20.92 L 17.91,20.92 L 17.10,21.32 L 17.10,24.03 L 16.20,24.50 L 16.20,25.10 L 17.10,24.67 L 17.10,24.07 L 17.97,23.63 L 17.97,23.13 L 18.81,22.69 L 18.88,22.73 L 18.88,23.77 L 19.78,23.33 L 19.78,21.62 L 20.69,21.15 Z" fill="#3d6634" stroke="none" /><path d="M 17.10,20.25 L 16.20,20.69 L 16.20,21.19 L 17.10,20.75 Z" fill="#3d6634" stroke="none" /><path d="M 15.30,18.95 L 14.39,19.38 L 14.39,22.69 L 15.30,22.26 Z" fill="#3d6634" stroke="none" /><path d="M 23.40,18.21 L 23.33,18.21 L 22.49,18.64 L 22.49,19.75 L 23.40,19.31 Z" fill="#3d6634" stroke="none" /><path d="M 17.10,16.94 L 16.20,17.37 L 16.20,17.87 L 16.27,17.87 L 17.10,17.44 Z" fill="#3d6634" stroke="none" /><path d="M 17.97,14.79 L 17.10,15.23 L 17.10,16.33 L 17.97,15.90 Z" fill="#3d6634" stroke="none" /><path d="M 23.40,13.19 L 22.49,13.62 L 22.49,14.23 L 22.46,14.26 L 20.69,15.13 L 20.69,16.23 L 20.65,16.27 L 18.88,17.14 L 18.88,17.64 L 19.75,17.21 L 19.78,17.24 L 19.78,18.28 L 17.97,19.18 L 17.97,20.28 L 18.04,20.28 L 19.75,19.41 L 19.78,19.45 L 19.78,19.98 L 19.85,19.98 L 20.69,19.55 L 20.69,18.48 L 21.59,18.01 L 21.59,15.23 L 21.66,15.16 L 22.46,14.76 L 22.49,14.79 L 22.49,15.83 L 23.40,15.40 Z" fill="#3d6634" stroke="none" /><path d="M 23.40,10.51 L 23.33,10.51 L 21.59,11.38 L 21.59,11.85 L 21.52,11.92 L 19.85,12.75 L 19.78,12.72 L 19.78,12.32 L 19.72,12.32 L 18.88,12.75 L 18.88,13.22 L 18.95,13.22 L 19.72,12.82 L 19.78,12.85 L 19.78,14.49 L 20.69,14.06 L 20.69,12.95 L 21.59,12.49 L 21.59,11.92 L 21.66,11.85 L 22.46,11.45 L 22.49,11.48 L 22.49,12.52 L 22.56,12.52 L 23.40,12.08 Z" fill="#3d6634" stroke="none" /><path d="M 16.20,24.00 L 14.43,24.87 L 14.39,24.90 L 14.39,25.41 L 15.26,24.97 L 15.30,25.00 L 15.30,25.54 L 15.36,25.54 L 16.17,25.14 L 16.20,25.10 Z" fill="#3d6734" stroke="none" /><path d="M 17.97,20.32 L 17.91,20.32 L 17.10,20.72 L 17.10,21.32 L 17.17,21.32 L 17.97,20.92 Z" fill="#3d6734" stroke="none" /><path d="M 20.69,15.67 L 20.62,15.67 L 18.88,16.54 L 18.88,17.14 L 18.95,17.14 L 20.69,16.27 Z" fill="#3d6734" stroke="none" /><path d="M 20.69,14.06 L 20.62,14.06 L 18.88,14.93 L 18.88,15.43 L 18.95,15.43 L 20.69,14.56 Z" fill="#3d6734" stroke="none" /><path d="M 20.69,21.15 L 19.78,21.59 L 19.78,22.19 L 19.85,22.19 L 20.69,21.76 Z" fill="#406a34" stroke="none" /><path d="M 16.20,20.72 L 16.13,20.72 L 15.30,21.15 L 15.30,23.83 L 15.36,23.83 L 16.20,23.40 Z" fill="#406a34" stroke="none" /><path d="M 22.49,15.83 L 21.59,16.27 L 21.59,18.01 L 23.40,17.10 L 23.40,16.50 L 23.33,16.50 L 22.56,16.90 L 22.49,16.87 Z" fill="#406a34" stroke="none" /><path d="M 17.10,15.23 L 16.20,15.67 L 16.20,16.27 L 16.27,16.27 L 17.10,15.83 Z" fill="#406a34" stroke="none" /><path d="M 20.69,14.56 L 20.62,14.56 L 19.78,15.00 L 19.78,16.10 L 20.69,15.67 Z" fill="#406a34" stroke="none" /><path d="M 18.88,12.75 L 17.10,13.62 L 17.10,14.13 L 18.88,13.26 Z" fill="#406a34" stroke="none" /><path d="M 22.49,11.45 L 22.43,11.45 L 21.59,11.88 L 21.59,12.49 L 22.49,12.05 Z" fill="#406a34" stroke="none" /><path d="M 22.46,10.91 L 21.92,10.64 L 21.82,10.64 L 21.62,10.74 L 21.59,10.78 L 21.59,11.38 L 21.66,11.38 L 22.46,10.98 Z" fill="#3f6b35" stroke="none" /><path d="M 23.40,10.48 L 22.76,10.18 L 21.89,10.61 L 21.89,10.64 L 22.46,10.95 L 22.53,10.95 L 23.40,10.51 Z" fill="#3f6c35" stroke="none" /><path d="M 16.20,14.59 L 16.13,14.59 L 15.30,15.03 L 15.30,16.74 L 16.20,16.30 Z" fill="#3f6b36" stroke="none" /><path d="M 16.20,18.51 L 16.13,18.51 L 15.33,18.91 L 15.30,18.95 L 15.30,19.41 L 15.36,19.41 L 16.17,19.01 L 16.20,18.98 Z" fill="#406b36" stroke="none" /><path d="M 16.20,16.30 L 16.13,16.30 L 15.30,16.74 L 15.30,17.84 L 16.20,17.41 Z" fill="#406b36" stroke="none" /><path d="M 17.10,14.13 L 16.20,14.56 L 16.20,15.16 L 16.27,15.16 L 17.10,14.73 Z" fill="#406b36" stroke="none" /><path d="M 19.78,13.39 L 18.88,13.82 L 18.88,14.33 L 18.95,14.33 L 19.78,13.89 Z" fill="#406b36" stroke="none" /><path d="M 16.20,17.41 L 16.13,17.41 L 15.30,17.84 L 15.30,18.95 L 16.20,18.51 Z" fill="#406c37" stroke="none" /><path d="M 23.40,15.40 L 23.33,15.40 L 22.49,15.83 L 22.49,16.94 L 23.40,16.50 Z" fill="#406c37" stroke="none" /><path d="M 19.78,12.79 L 17.14,14.09 L 17.10,14.13 L 17.10,14.69 L 17.04,14.76 L 16.20,15.16 L 16.20,15.67 L 16.27,15.67 L 18.88,14.36 L 18.88,13.86 L 19.78,13.39 Z" fill="#406c37" stroke="none" /><path d="M 16.20,13.49 L 16.13,13.49 L 14.39,14.36 L 14.39,15.00 L 16.17,14.13 L 16.20,14.09 Z" fill="#416d37" stroke="none" /><path d="M 19.78,12.28 L 19.21,11.98 L 19.15,11.98 L 18.88,12.12 L 18.88,12.75 L 19.78,12.32 Z" fill="#416d37" stroke="none" /><path d="M 19.78,11.68 L 19.21,11.95 L 19.21,12.02 L 19.78,12.28 Z" fill="#416e37" stroke="none" /><path d="M 18.88,12.15 L 18.81,12.15 L 17.14,12.99 L 17.10,13.02 L 17.10,13.62 L 17.17,13.62 L 18.85,12.79 L 18.88,12.75 Z" fill="#447137" stroke="none" /><path d="M 9.91,24.27 L 9.91,26.48 L 10.81,26.91 L 10.81,25.87 L 10.85,25.84 L 11.68,26.24 L 11.68,25.14 L 9.97,24.27 Z" fill="#519a3c" stroke="none" /><path d="M 6.29,23.56 L 6.29,24.67 L 7.20,25.10 L 7.20,24.00 L 6.36,23.56 Z" fill="#519a3c" stroke="none" /><path d="M 0.90,21.96 L 0.90,24.17 L 1.74,24.60 L 1.81,24.60 L 1.81,23.56 L 1.84,23.53 L 2.71,23.97 L 2.71,22.86 Z" fill="#519a3c" stroke="none" /><path d="M 4.49,17.14 L 4.49,18.18 L 4.45,18.21 L 3.62,17.81 L 3.62,18.91 L 5.32,19.78 L 5.39,19.78 L 5.39,17.57 Z" fill="#519a3c" stroke="none" /><path d="M 3.62,12.32 L 3.62,13.36 L 3.58,13.39 L 2.71,12.95 L 2.71,14.06 L 4.49,14.93 L 4.49,12.72 L 3.68,12.32 Z" fill="#519a3c" stroke="none" /><path d="M 11.38,7.46 L 10.85,7.20 L 10.74,7.20 L 9.94,7.60 L 9.91,7.67 L 10.44,7.93 L 10.54,7.93 L 11.35,7.53 Z" fill="#519a3c" stroke="none" /><path d="M 22.46,7.67 L 22.46,7.60 L 21.66,7.20 L 21.69,7.13 L 22.46,6.76 L 22.46,6.73 L 21.62,6.29 L 21.56,6.29 L 19.82,7.16 L 19.85,7.23 L 21.52,8.07 L 21.66,8.07 Z" fill="#519a3c" stroke="none" /><path d="M 6.33,6.73 L 6.33,6.76 L 7.13,7.16 L 7.10,7.23 L 6.33,7.60 L 6.33,7.67 L 7.13,8.07 L 7.26,8.07 L 8.97,7.20 L 8.97,7.16 L 7.23,6.29 L 7.16,6.29 Z" fill="#519a3c" stroke="none" /><path d="M 17.97,5.36 L 17.17,4.95 L 17.04,4.95 L 15.30,5.82 L 15.30,5.86 L 17.04,6.73 L 17.14,6.73 L 17.97,6.29 L 17.97,6.26 L 17.21,5.89 L 17.14,5.82 L 17.94,5.42 Z" fill="#519a3c" stroke="none" /><path d="M 9.91,4.92 L 9.91,4.95 L 10.78,5.39 L 11.68,4.95 L 11.68,4.92 L 10.81,4.49 Z" fill="#519a3c" stroke="none" /><path d="M 13.52,1.31 L 13.52,1.37 L 14.33,1.77 L 14.29,1.84 L 13.52,2.21 L 13.52,2.28 L 14.33,2.68 L 14.46,2.68 L 16.20,1.81 L 16.20,1.77 L 14.46,0.90 L 14.33,0.90 Z" fill="#519a3c" stroke="none" /><path d="M 9.00,22.23 L 9.00,22.73 L 9.91,23.16 L 9.91,22.66 L 9.07,22.23 Z" fill="#58a741" stroke="none" /><path d="M 12.59,15.20 L 12.59,15.70 L 13.49,16.13 L 13.49,15.63 L 12.65,15.20 Z" fill="#58a741" stroke="none" /><path d="M 13.82,12.85 L 13.82,12.92 L 14.36,13.19 L 14.09,13.32 L 14.09,13.36 L 14.36,13.49 L 14.43,13.49 L 15.30,13.05 L 15.30,13.02 L 14.43,12.59 L 14.36,12.59 Z" fill="#58a741" stroke="none" /><path d="M 10.51,7.93 L 10.51,7.97 L 10.78,8.10 L 11.08,7.97 L 11.05,7.90 L 10.85,7.80 L 10.74,7.80 Z" fill="#58a741" stroke="none" /><path d="M 11.68,21.86 L 11.68,22.96 L 12.59,23.40 L 12.59,22.29 L 11.75,21.86 Z" fill="#59a842" stroke="none" /><path d="M 13.49,13.02 L 13.49,13.05 L 14.03,13.32 L 14.16,13.32 L 14.36,13.22 L 14.36,13.15 L 13.82,12.89 L 13.76,12.89 Z" fill="#59a842" stroke="none" /><path d="M 9.61,9.27 L 9.07,9.00 L 8.94,9.00 L 8.13,9.41 L 8.13,9.47 L 8.94,9.87 L 9.04,9.87 L 9.27,9.74 L 9.27,9.71 L 9.10,9.64 L 9.07,9.57 L 9.61,9.31 Z" fill="#59a842" stroke="none" /><path d="M 11.68,29.56 L 11.68,30.66 L 12.59,31.10 L 12.59,29.99 Z" fill="#58a443" stroke="none" /><path d="M 5.39,26.41 L 5.39,27.51 L 7.13,28.38 L 7.20,28.38 L 7.20,27.31 Z" fill="#58a443" stroke="none" /><path d="M 10.81,25.81 L 10.81,26.91 L 11.68,27.35 L 11.68,26.24 Z" fill="#58a443" stroke="none" /><path d="M 13.49,25.57 L 13.49,27.15 L 14.33,27.58 L 14.39,27.58 L 14.39,26.01 L 13.56,25.57 Z" fill="#58a443" stroke="none" /><path d="M 5.39,24.20 L 5.39,25.31 L 5.42,25.34 L 8.03,26.64 L 8.10,26.64 L 8.10,25.61 L 8.13,25.57 L 9.84,26.44 L 9.91,26.44 L 9.91,24.30 L 9.94,24.27 L 10.81,24.70 L 10.81,24.20 L 8.13,22.86 L 8.10,22.86 L 8.10,23.36 L 8.94,23.77 L 9.00,23.83 L 9.00,24.84 L 8.94,24.87 L 8.17,24.47 L 8.10,24.47 L 8.10,25.51 L 8.07,25.54 Z" fill="#58a443" stroke="none" /><path d="M 1.81,23.53 L 1.81,24.64 L 2.68,25.07 L 2.71,25.07 L 2.71,24.03 L 2.74,24.00 L 4.42,24.84 L 4.49,24.84 L 4.49,23.73 L 2.74,22.86 L 2.71,22.86 L 2.71,23.90 L 2.68,23.93 L 1.87,23.53 Z" fill="#58a443" stroke="none" /><path d="M 0.00,18.21 L 0.00,20.42 L 0.90,20.85 L 0.90,18.64 Z" fill="#58a443" stroke="none" /><path d="M 3.68,11.21 L 3.62,11.21 L 3.62,12.25 L 3.58,12.28 L 2.71,11.85 L 2.71,12.89 L 2.68,12.92 L 1.87,12.52 L 1.81,12.52 L 1.81,13.59 L 2.71,14.06 L 2.71,16.20 L 2.68,16.23 L 1.81,15.80 L 1.81,19.11 L 2.71,19.58 L 2.71,20.65 L 3.55,21.09 L 3.62,21.09 L 3.62,20.02 L 2.71,19.55 L 2.71,16.30 L 2.74,16.27 L 3.55,16.67 L 3.62,16.74 L 3.62,17.81 L 4.45,18.24 L 4.49,18.24 L 4.49,17.14 L 3.68,16.74 L 3.62,16.67 L 3.62,15.67 L 3.68,15.63 L 5.32,16.47 L 5.39,16.47 L 5.39,15.36 L 2.71,14.03 L 2.71,13.02 L 2.74,12.99 L 3.55,13.39 L 3.62,13.39 L 3.62,12.35 L 3.65,12.32 L 4.49,12.75 L 4.49,13.86 L 5.39,14.29 L 5.39,13.19 L 4.49,12.72 L 4.49,11.62 Z" fill="#58a443" stroke="none" /><path d="M 0.00,10.51 L 0.00,11.62 L 0.90,12.05 L 0.90,10.95 L 0.07,10.51 Z" fill="#58a443" stroke="none" /><path d="M 21.92,9.71 L 21.92,9.77 L 22.73,10.18 L 22.83,10.18 L 23.36,9.91 L 23.33,9.84 L 22.53,9.44 L 22.46,9.44 Z" fill="#58a443" stroke="none" /><path d="M 3.62,8.97 L 3.62,9.00 L 5.32,9.84 L 5.39,9.91 L 5.39,10.48 L 5.46,10.48 L 5.99,10.21 L 5.96,10.14 L 5.52,9.94 L 5.46,9.87 L 6.26,9.47 L 6.26,9.41 L 4.52,8.54 L 4.45,8.54 Z" fill="#58a443" stroke="none" /><path d="M 1.81,8.10 L 1.81,9.21 L 2.71,9.64 L 2.71,8.54 L 1.87,8.10 Z" fill="#58a443" stroke="none" /><path d="M 25.21,8.07 L 25.24,8.13 L 26.04,8.54 L 26.11,8.54 L 26.98,8.10 L 26.98,8.07 L 26.11,7.63 Z" fill="#58a443" stroke="none" /><path d="M 5.42,7.16 L 5.46,7.23 L 6.26,7.63 L 6.33,7.63 L 7.20,7.20 L 7.20,7.16 L 6.33,6.73 Z" fill="#58a443" stroke="none" /><path d="M 23.36,6.26 L 22.56,5.86 L 22.43,5.86 L 21.62,6.26 L 21.62,6.33 L 22.43,6.73 L 22.36,6.79 L 21.59,7.16 L 21.59,7.20 L 22.43,7.60 L 22.46,7.63 L 22.43,7.67 L 21.62,8.07 L 21.56,8.07 L 20.72,7.63 L 20.65,7.63 L 19.78,8.07 L 19.78,8.10 L 20.65,8.54 L 20.72,8.54 L 21.56,8.10 L 21.62,8.10 L 22.46,8.54 L 22.53,8.54 L 23.40,8.10 L 23.40,8.07 L 22.53,7.63 L 23.36,7.20 L 23.36,7.16 L 22.59,6.79 L 22.53,6.73 L 23.33,6.33 Z" fill="#58a443" stroke="none" /><path d="M 1.84,6.26 L 1.84,6.33 L 2.64,6.73 L 2.74,6.73 L 3.58,6.29 L 3.58,6.26 L 2.78,5.86 L 2.64,5.86 Z" fill="#58a443" stroke="none" /><path d="M 24.30,5.82 L 24.30,5.86 L 25.17,6.29 L 26.08,5.86 L 26.08,5.82 L 25.21,5.39 L 25.14,5.39 Z" fill="#58a443" stroke="none" /><path d="M 15.30,4.02 L 15.33,4.08 L 16.13,4.49 L 16.23,4.49 L 17.10,4.05 L 19.75,5.39 L 18.91,5.82 L 18.04,5.39 L 17.94,5.39 L 17.10,5.82 L 17.10,5.86 L 17.97,6.29 L 18.85,5.86 L 18.95,5.86 L 19.68,6.23 L 19.75,6.29 L 18.01,7.16 L 18.04,7.23 L 18.85,7.63 L 18.95,7.63 L 21.56,6.33 L 21.56,6.26 L 19.82,5.39 L 20.69,4.95 L 20.69,4.92 L 18.01,3.58 L 17.14,4.02 L 17.04,4.02 L 16.20,3.58 Z" fill="#58a443" stroke="none" /><path d="M 11.68,4.02 L 10.78,3.58 L 8.10,4.92 L 8.10,4.95 L 8.97,5.39 L 7.23,6.26 L 7.23,6.33 L 8.87,7.13 L 8.94,7.20 L 8.13,7.60 L 8.13,7.67 L 8.94,8.07 L 8.90,8.13 L 8.13,8.50 L 8.13,8.57 L 8.67,8.84 L 8.74,8.84 L 10.48,7.97 L 10.44,7.90 L 10.01,7.70 L 9.94,7.63 L 11.68,6.76 L 11.65,6.69 L 10.85,6.29 L 10.74,6.29 L 9.91,6.73 L 9.04,6.29 L 9.10,6.23 L 9.87,5.86 L 9.84,5.79 L 9.07,5.42 L 9.04,5.39 L 9.07,5.36 L 11.65,4.08 Z" fill="#58a443" stroke="none" /><path d="M 9.87,3.11 L 9.07,2.71 L 8.94,2.71 L 7.26,3.55 L 7.23,3.62 L 8.03,4.02 L 8.17,4.02 L 9.84,3.18 Z" fill="#58a443" stroke="none" /><path d="M 17.10,2.21 L 17.14,2.28 L 18.88,3.15 L 19.78,2.71 L 19.78,2.68 L 18.04,1.81 L 17.91,1.81 Z" fill="#58a443" stroke="none" /><path d="M 14.39,1.77 L 13.52,1.34 L 13.46,1.34 L 12.59,1.77 L 12.59,1.81 L 13.46,2.24 L 11.72,3.11 L 11.72,3.15 L 12.55,3.58 L 12.65,3.58 L 14.39,2.71 L 14.39,2.68 L 13.52,2.24 L 14.39,1.81 Z" fill="#58a443" stroke="none" /><path d="M 9.00,21.62 L 9.00,22.23 L 9.91,22.66 L 9.91,22.06 L 9.07,21.62 Z" fill="#5aa944" stroke="none" /><path d="M 9.00,16.10 L 9.00,18.31 L 9.91,18.74 L 9.91,17.71 L 9.97,17.67 L 10.74,18.08 L 10.81,18.08 L 10.81,17.61 L 9.91,17.14 L 9.91,16.54 Z" fill="#5aa944" stroke="none" /><path d="M 12.59,14.59 L 12.59,15.20 L 13.49,15.63 L 13.49,15.03 L 12.65,14.59 Z" fill="#5aa944" stroke="none" /><path d="M 13.52,9.41 L 13.52,9.47 L 14.33,9.87 L 14.29,9.94 L 13.52,10.31 L 13.52,10.34 L 14.36,10.78 L 14.43,10.78 L 16.17,9.91 L 16.13,9.84 L 15.06,9.31 L 14.93,9.31 L 14.43,9.57 L 14.36,9.57 L 13.86,9.31 L 13.72,9.31 Z" fill="#5aa944" stroke="none" /><path d="M 9.87,9.41 L 9.67,9.31 L 9.54,9.31 L 9.00,9.57 L 9.00,9.61 L 9.31,9.74 L 9.84,9.47 Z" fill="#5aa944" stroke="none" /><path d="M 11.68,7.63 L 11.45,7.50 L 11.35,7.50 L 10.81,7.77 L 10.81,7.80 L 11.05,7.93 L 11.15,7.93 L 11.68,7.67 Z" fill="#5aa944" stroke="none" /><path d="M 9.91,16.57 L 9.91,17.17 L 10.81,17.61 L 10.81,17.00 L 9.97,16.57 Z" fill="#5ba944" stroke="none" /><path d="M 13.79,9.27 L 13.79,9.31 L 14.33,9.57 L 14.46,9.57 L 15.00,9.31 L 15.00,9.27 L 14.46,9.00 L 14.33,9.00 Z" fill="#5ba944" stroke="none" /><path d="M 9.00,22.73 L 9.00,23.33 L 9.91,23.77 L 9.91,23.16 L 9.07,22.73 Z" fill="#60b248" stroke="none" /><path d="M 11.68,20.25 L 11.68,21.36 L 12.59,21.79 L 12.59,20.69 Z" fill="#60b248" stroke="none" /><path d="M 7.20,15.80 L 7.20,16.30 L 8.10,16.74 L 8.10,16.23 Z" fill="#60b248" stroke="none" /><path d="M 11.68,15.23 L 11.68,16.94 L 12.52,17.37 L 12.59,17.37 L 12.59,15.67 Z" fill="#60b248" stroke="none" /><path d="M 6.29,12.55 L 6.29,13.15 L 7.20,13.59 L 7.20,12.99 L 6.36,12.55 Z" fill="#60b248" stroke="none" /><path d="M 14.09,12.42 L 14.09,12.45 L 14.36,12.59 L 14.43,12.59 L 14.69,12.45 L 14.69,12.42 L 14.43,12.28 L 14.36,12.28 Z" fill="#60b248" stroke="none" /><path d="M 6.33,10.91 L 6.29,10.95 L 6.29,11.45 L 7.20,11.88 L 7.20,10.78 L 6.96,10.64 L 6.86,10.64 Z" fill="#60b248" stroke="none" /><path d="M 10.51,10.61 L 10.54,10.68 L 10.74,10.78 L 10.85,10.78 L 11.08,10.64 L 11.08,10.61 L 10.81,10.48 Z" fill="#60b248" stroke="none" /><path d="M 22.46,10.01 L 21.92,9.74 L 21.86,9.74 L 20.72,10.31 L 20.72,10.34 L 21.56,10.78 L 21.62,10.78 L 21.86,10.64 L 21.86,10.61 L 21.66,10.51 L 21.69,10.44 L 22.46,10.08 Z" fill="#60b248" stroke="none" /><path d="M 17.67,8.80 L 17.14,8.54 L 17.07,8.54 L 16.20,8.97 L 16.20,9.00 L 17.10,9.44 L 17.37,9.31 L 17.37,9.27 L 17.21,9.21 L 17.14,9.14 L 17.67,8.87 Z" fill="#60b248" stroke="none" /><path d="M 10.78,8.07 L 10.48,7.93 L 9.94,8.20 L 9.91,8.27 L 10.21,8.40 L 10.74,8.13 Z" fill="#60b248" stroke="none" /><path d="M 13.49,24.97 L 13.49,25.57 L 14.39,26.01 L 14.39,25.41 L 13.56,24.97 Z" fill="#60b348" stroke="none" /><path d="M 10.81,23.13 L 10.81,23.63 L 11.62,24.03 L 11.68,24.03 L 11.68,23.53 L 10.88,23.13 Z" fill="#60b348" stroke="none" /><path d="M 11.68,21.36 L 11.68,21.86 L 12.59,22.29 L 12.59,21.79 L 11.75,21.36 Z" fill="#60b348" stroke="none" /><path d="M 6.29,13.15 L 6.29,13.66 L 8.03,14.53 L 8.10,14.53 L 8.10,14.03 L 6.36,13.15 Z" fill="#60b348" stroke="none" /><path d="M 17.10,12.12 L 17.10,12.15 L 17.64,12.42 L 17.77,12.42 L 17.97,12.32 L 17.94,12.25 L 17.41,11.98 Z" fill="#60b348" stroke="none" /><path d="M 5.39,10.48 L 5.39,10.98 L 6.23,11.41 L 6.29,11.41 L 6.29,10.98 L 6.36,10.91 L 6.90,10.64 L 6.90,10.61 L 6.03,10.18 Z" fill="#60b348" stroke="none" /><path d="M 22.76,10.18 L 22.53,10.04 L 22.46,10.04 L 21.59,10.48 L 21.59,10.51 L 21.89,10.64 L 22.76,10.21 Z" fill="#60b348" stroke="none" /><path d="M 9.00,9.87 L 9.00,9.91 L 10.48,10.64 L 11.38,10.21 L 11.35,10.14 L 10.54,9.74 L 10.48,9.74 L 9.91,10.04 L 9.34,9.74 L 9.24,9.74 Z" fill="#60b348" stroke="none" /><path d="M 20.65,9.41 L 19.85,9.00 L 19.72,9.00 L 19.18,9.27 L 19.18,9.31 L 19.68,9.54 L 19.72,9.57 L 19.68,9.64 L 18.04,10.44 L 18.01,10.51 L 18.31,10.64 L 20.65,9.47 Z" fill="#60b348" stroke="none" /><path d="M 17.97,8.97 L 17.74,8.84 L 17.67,8.84 L 17.14,9.10 L 17.10,9.17 L 17.31,9.27 L 17.44,9.27 L 17.97,9.00 Z" fill="#60b348" stroke="none" /><path d="M 8.74,8.80 L 8.74,8.87 L 8.94,8.97 L 9.07,8.97 L 9.27,8.87 L 9.24,8.80 L 9.04,8.70 L 8.94,8.70 Z" fill="#60b348" stroke="none" /><path d="M 8.10,22.26 L 8.10,22.86 L 8.94,23.30 L 9.00,23.30 L 9.00,22.69 Z" fill="#62b44a" stroke="none" /><path d="M 9.91,22.06 L 9.91,23.77 L 10.74,24.20 L 10.81,24.20 L 10.81,23.16 L 10.85,23.13 L 11.62,23.53 L 11.68,23.53 L 11.68,22.93 Z" fill="#62b44a" stroke="none" /><path d="M 11.68,19.65 L 11.68,20.25 L 12.52,20.69 L 12.59,20.69 L 12.59,20.08 L 11.75,19.65 Z" fill="#62b44a" stroke="none" /><path d="M 9.91,17.64 L 9.91,18.74 L 10.74,19.18 L 10.81,19.18 L 10.81,18.08 Z" fill="#62b44a" stroke="none" /><path d="M 13.49,17.24 L 13.49,18.34 L 14.33,18.78 L 14.39,18.78 L 14.39,17.67 Z" fill="#62b44a" stroke="none" /><path d="M 11.68,16.94 L 11.68,18.54 L 12.59,18.98 L 12.59,17.37 Z" fill="#62b44a" stroke="none" /><path d="M 7.20,15.20 L 7.20,15.80 L 8.03,16.23 L 8.10,16.23 L 8.10,15.63 Z" fill="#62b44a" stroke="none" /><path d="M 7.20,12.99 L 7.20,13.59 L 8.10,14.06 L 8.10,14.56 L 9.00,15.00 L 9.00,13.89 Z" fill="#62b44a" stroke="none" /><path d="M 9.91,13.26 L 10.81,13.69 L 10.81,12.65 L 10.85,12.62 L 11.65,13.02 L 11.75,13.02 L 12.55,12.62 L 12.55,12.55 L 11.75,12.15 L 11.62,12.15 L 10.85,12.55 L 10.74,12.55 L 9.97,12.15 L 9.91,12.15 Z" fill="#62b44a" stroke="none" /><path d="M 17.41,11.98 L 17.41,12.02 L 17.94,12.28 L 17.87,12.35 L 17.71,12.42 L 17.71,12.45 L 17.97,12.59 L 18.88,12.15 L 18.88,12.12 L 18.01,11.68 Z" fill="#62b44a" stroke="none" /><path d="M 11.72,11.21 L 11.75,11.28 L 14.03,12.42 L 14.16,12.42 L 14.96,12.02 L 14.96,11.95 L 12.62,10.78 Z" fill="#62b44a" stroke="none" /><path d="M 11.68,10.31 L 11.38,10.18 L 10.85,10.44 L 10.81,10.51 L 11.11,10.64 L 11.65,10.38 Z" fill="#62b44a" stroke="none" /><path d="M 12.62,9.87 L 12.62,9.91 L 13.49,10.34 L 14.39,9.91 L 14.39,9.87 L 13.52,9.44 L 13.46,9.44 Z" fill="#62b44a" stroke="none" /><path d="M 9.31,9.71 L 9.34,9.77 L 9.87,10.04 L 9.94,10.04 L 10.48,9.77 L 10.48,9.71 L 9.94,9.44 L 9.84,9.44 Z" fill="#62b44a" stroke="none" /><path d="M 19.78,9.57 L 19.25,9.31 L 19.11,9.31 L 17.10,10.31 L 17.10,10.34 L 17.94,10.78 L 18.04,10.78 L 18.28,10.64 L 18.28,10.61 L 18.11,10.54 L 18.04,10.48 L 18.08,10.44 L 19.78,9.61 Z" fill="#62b44a" stroke="none" /><path d="M 10.18,8.37 L 9.87,8.23 L 9.00,8.67 L 9.00,8.70 L 9.24,8.84 L 9.34,8.84 L 10.14,8.44 Z" fill="#62b44a" stroke="none" /><path d="M 15.30,12.12 L 15.03,11.98 L 14.96,11.98 L 14.43,12.25 L 14.43,12.32 L 14.63,12.42 L 14.76,12.42 L 15.30,12.15 Z" fill="#62b54b" stroke="none" /><path d="M 7.20,27.31 L 7.20,28.42 L 11.62,30.63 L 11.68,30.63 L 11.68,29.56 L 11.65,29.52 Z" fill="#68b058" stroke="none" /><path d="M 12.59,25.10 L 12.59,26.71 L 13.42,27.11 L 13.49,27.18 L 13.49,30.39 L 13.42,30.43 L 12.65,30.03 L 12.59,30.03 L 12.59,31.10 L 14.39,32.00 L 14.39,27.58 L 13.56,27.18 L 13.49,27.11 L 13.49,25.54 Z" fill="#68b058" stroke="none" /><path d="M 10.81,24.23 L 10.81,24.70 L 11.68,25.14 L 11.68,24.64 L 10.88,24.23 Z" fill="#68b058" stroke="none" /><path d="M 2.71,23.97 L 2.71,26.18 L 5.32,27.48 L 5.39,27.48 L 5.39,26.41 L 3.65,25.54 L 3.62,25.51 L 3.62,24.40 Z" fill="#68b058" stroke="none" /><path d="M 0.00,23.73 L 0.00,24.80 L 0.84,25.24 L 0.90,25.24 L 0.90,24.17 L 0.07,23.73 Z" fill="#68b058" stroke="none" /><path d="M 4.49,13.86 L 4.49,14.93 L 5.32,15.36 L 5.39,15.36 L 5.39,14.29 L 4.55,13.86 Z" fill="#68b058" stroke="none" /><path d="M 4.49,11.65 L 4.49,12.75 L 5.39,13.19 L 5.39,12.08 L 4.55,11.65 Z" fill="#68b058" stroke="none" /><path d="M 0.00,11.62 L 0.00,18.21 L 0.90,18.68 L 0.90,21.96 L 2.68,22.86 L 2.71,22.86 L 2.71,21.82 L 2.74,21.79 L 4.45,22.63 L 4.49,22.66 L 4.49,24.87 L 5.36,25.31 L 5.39,25.31 L 5.39,24.27 L 5.42,24.23 L 6.23,24.64 L 6.29,24.64 L 6.29,23.60 L 6.33,23.56 L 7.13,23.97 L 7.20,24.03 L 7.20,25.10 L 8.10,25.57 L 8.10,26.68 L 10.81,28.02 L 10.81,26.91 L 10.78,26.88 L 8.10,25.54 L 8.10,24.50 L 8.13,24.47 L 9.00,24.90 L 9.00,23.80 L 8.10,23.33 L 8.10,22.86 L 8.07,22.83 L 5.42,21.52 L 5.39,21.49 L 5.39,19.78 L 3.68,18.95 L 3.62,18.88 L 3.62,16.77 L 3.68,16.74 L 5.32,17.57 L 5.39,17.57 L 5.39,16.47 L 3.65,15.60 L 3.62,15.60 L 3.62,16.64 L 3.58,16.67 L 2.74,16.27 L 2.71,16.23 L 2.71,14.03 L 1.81,13.59 L 1.81,15.80 L 2.71,16.27 L 2.71,19.51 L 2.68,19.55 L 1.87,19.15 L 1.81,19.08 L 1.81,18.01 L 0.90,17.54 L 0.90,12.05 L 0.07,11.62 Z" fill="#68b058" stroke="none" /><path d="M 2.74,10.74 L 2.71,10.74 L 2.71,11.78 L 2.68,11.82 L 1.87,11.41 L 1.81,11.41 L 1.81,12.52 L 2.68,12.95 L 2.71,12.95 L 2.71,11.92 L 2.74,11.88 L 3.55,12.28 L 3.62,12.28 L 3.62,11.18 Z" fill="#68b058" stroke="none" /><path d="M 22.53,9.41 L 22.53,9.47 L 23.33,9.87 L 23.43,9.87 L 24.27,9.44 L 24.27,9.41 L 23.46,9.00 L 23.33,9.00 Z" fill="#68b058" stroke="none" /><path d="M 20.12,8.80 L 20.12,8.87 L 21.86,9.74 L 21.92,9.74 L 22.46,9.47 L 22.46,9.41 L 21.66,9.00 L 21.69,8.94 L 22.46,8.57 L 22.46,8.50 L 21.66,8.10 L 21.52,8.10 Z" fill="#68b058" stroke="none" /><path d="M 9.00,8.07 L 8.13,7.63 L 8.07,7.63 L 7.20,8.07 L 7.20,8.10 L 8.07,8.54 L 7.23,8.97 L 7.16,8.97 L 5.46,8.10 L 5.32,8.10 L 4.52,8.50 L 4.52,8.57 L 6.26,9.44 L 5.42,9.87 L 4.55,9.44 L 4.49,9.44 L 4.49,10.54 L 5.39,10.98 L 5.39,9.94 L 5.42,9.91 L 5.96,10.18 L 6.06,10.18 L 6.86,9.77 L 6.86,9.71 L 6.36,9.47 L 6.33,9.44 L 6.36,9.41 L 7.16,9.00 L 7.23,9.00 L 7.73,9.27 L 7.87,9.27 L 8.67,8.87 L 8.67,8.80 L 8.13,8.54 L 9.00,8.10 Z" fill="#68b058" stroke="none" /><path d="M 26.11,6.73 L 26.11,6.76 L 26.88,7.13 L 26.95,7.20 L 26.14,7.60 L 26.11,7.67 L 26.91,8.07 L 27.05,8.07 L 28.75,7.20 L 28.75,7.16 L 27.01,6.29 L 26.95,6.29 Z" fill="#68b058" stroke="none" /><path d="M 23.33,6.29 L 22.49,6.73 L 22.49,6.76 L 23.26,7.13 L 23.33,7.20 L 22.53,7.60 L 22.53,7.67 L 23.33,8.07 L 23.46,8.07 L 24.27,7.67 L 24.23,7.60 L 23.43,7.20 L 23.50,7.13 L 24.27,6.76 L 24.27,6.73 L 23.43,6.29 Z" fill="#68b058" stroke="none" /><path d="M 4.45,8.50 L 1.87,7.23 L 1.84,7.20 L 1.91,7.13 L 2.68,6.76 L 2.68,6.73 L 1.84,6.29 L 1.77,6.29 L 0.00,7.20 L 0.00,9.41 L 0.87,9.84 L 0.90,9.84 L 0.90,8.80 L 0.94,8.77 L 1.74,9.17 L 1.81,9.17 L 1.81,8.13 L 1.84,8.10 L 3.55,8.97 L 3.65,8.97 L 4.45,8.57 Z" fill="#68b058" stroke="none" /><path d="M 19.82,5.36 L 19.82,5.42 L 21.56,6.29 L 21.62,6.29 L 22.49,5.86 L 22.49,5.82 L 20.75,4.95 L 20.62,4.95 Z" fill="#68b058" stroke="none" /><path d="M 8.97,5.36 L 8.17,4.95 L 8.03,4.95 L 5.42,6.26 L 5.42,6.29 L 6.26,6.73 L 6.36,6.73 L 8.97,5.42 Z" fill="#68b058" stroke="none" /><path d="M 8.10,4.02 L 7.20,3.58 L 2.71,5.82 L 2.71,5.86 L 3.62,6.29 L 8.10,4.05 Z" fill="#68b058" stroke="none" /><path d="M 9.00,6.29 L 9.84,6.73 L 9.94,6.73 L 10.81,6.29 L 11.65,6.73 L 11.58,6.79 L 10.81,7.16 L 10.85,7.23 L 11.41,7.50 L 14.09,6.16 L 14.09,6.13 L 13.59,5.89 L 13.56,5.82 L 14.39,5.39 L 15.23,5.82 L 15.20,5.89 L 14.69,6.13 L 14.69,6.16 L 19.11,8.37 L 19.25,8.37 L 20.65,7.67 L 20.65,7.60 L 19.85,7.20 L 19.75,7.20 L 18.88,7.63 L 18.04,7.20 L 18.11,7.13 L 19.78,6.29 L 19.78,6.26 L 19.01,5.89 L 18.95,5.82 L 19.75,5.42 L 19.75,5.36 L 17.17,4.08 L 17.14,4.05 L 17.21,3.98 L 17.94,3.62 L 18.04,3.62 L 18.91,4.05 L 19.75,3.62 L 19.85,3.62 L 24.23,5.82 L 24.33,5.82 L 25.14,5.42 L 25.14,5.36 L 19.85,2.71 L 19.72,2.71 L 18.95,3.11 L 18.85,3.11 L 16.27,1.81 L 16.13,1.81 L 14.39,2.68 L 14.39,2.71 L 15.16,3.08 L 15.23,3.15 L 13.52,4.02 L 13.46,4.02 L 11.75,3.15 L 11.65,3.15 L 10.85,3.55 L 10.81,3.62 L 11.58,3.98 L 11.65,4.05 L 10.85,4.45 L 10.81,4.52 L 11.58,4.89 L 11.62,4.95 L 10.85,5.36 L 10.74,5.36 L 9.97,4.95 L 9.84,4.95 L 9.04,5.36 L 9.04,5.42 L 9.84,5.82 L 9.77,5.89 L 9.00,6.26 Z" fill="#68b058" stroke="none" /><path d="M 13.46,2.21 L 11.68,1.34 L 9.00,2.68 L 9.00,2.71 L 9.91,3.15 L 11.68,2.24 L 12.52,2.68 L 12.65,2.68 L 13.46,2.28 Z" fill="#68b058" stroke="none" /><path d="M 13.52,0.44 L 13.52,0.47 L 14.33,0.87 L 14.46,0.87 L 15.26,0.47 L 15.23,0.40 L 14.43,0.00 L 14.36,0.00 Z" fill="#68b058" stroke="none" /><path d="M 11.68,24.67 L 11.68,27.28 L 11.62,27.31 L 10.81,26.91 L 10.81,28.02 L 12.52,28.89 L 12.59,28.89 L 12.59,25.10 L 11.75,24.67 Z" fill="#6fb758" stroke="none" /><path d="M 1.81,24.64 L 1.81,25.71 L 2.64,26.14 L 2.71,26.14 L 2.71,25.07 L 1.87,24.64 Z" fill="#6fb758" stroke="none" /><path d="M 3.62,24.44 L 3.62,25.54 L 7.20,27.31 L 7.20,26.21 L 7.16,26.18 L 3.68,24.44 Z" fill="#6fb758" stroke="none" /><path d="M 3.62,22.23 L 3.62,23.33 L 4.42,23.73 L 4.49,23.73 L 4.49,22.63 L 3.68,22.23 Z" fill="#6fb758" stroke="none" /><path d="M 0.00,20.42 L 0.00,22.63 L 0.90,23.06 L 0.90,20.85 L 0.07,20.42 Z" fill="#6fb758" stroke="none" /><path d="M 1.81,20.22 L 1.81,21.32 L 2.71,21.76 L 2.71,20.65 L 1.87,20.22 Z" fill="#6fb758" stroke="none" /><path d="M 0.90,13.15 L 0.90,17.57 L 1.81,18.01 L 1.81,13.59 L 0.97,13.15 Z" fill="#6fb758" stroke="none" /><path d="M 1.81,10.31 L 1.81,11.41 L 2.71,11.85 L 2.71,10.74 L 1.87,10.31 Z" fill="#6fb758" stroke="none" /><path d="M 0.00,9.41 L 0.00,10.51 L 0.90,10.95 L 0.90,9.84 L 0.07,9.41 Z" fill="#6fb758" stroke="none" /><path d="M 2.71,8.54 L 2.71,9.64 L 4.42,10.51 L 4.49,10.51 L 4.49,9.41 Z" fill="#6fb758" stroke="none" /><path d="M 26.04,8.50 L 25.24,8.10 L 25.14,8.10 L 23.40,8.97 L 23.40,9.00 L 24.30,9.44 L 26.04,8.57 Z" fill="#6fb758" stroke="none" /><path d="M 19.18,8.37 L 19.18,8.40 L 20.05,8.84 L 20.12,8.84 L 20.65,8.57 L 20.65,8.50 L 19.85,8.10 L 19.72,8.10 Z" fill="#6fb758" stroke="none" /><path d="M 23.40,7.16 L 23.43,7.23 L 24.23,7.63 L 24.33,7.63 L 25.17,7.20 L 25.17,7.16 L 24.30,6.73 Z" fill="#6fb758" stroke="none" /><path d="M 3.62,7.16 L 3.65,7.23 L 7.10,8.94 L 7.13,8.97 L 7.10,9.04 L 6.33,9.41 L 6.33,9.47 L 6.86,9.74 L 6.93,9.74 L 7.80,9.31 L 7.80,9.27 L 7.30,9.04 L 7.26,8.97 L 8.07,8.57 L 8.07,8.50 L 5.46,7.20 L 5.52,7.13 L 6.29,6.76 L 6.26,6.69 L 5.46,6.29 L 5.36,6.29 Z" fill="#6fb758" stroke="none" /><path d="M 25.21,6.26 L 25.24,6.33 L 26.04,6.73 L 26.14,6.73 L 26.95,6.33 L 26.95,6.26 L 26.14,5.86 L 26.01,5.86 Z" fill="#6fb758" stroke="none" /><path d="M 13.49,5.82 L 13.49,5.86 L 14.03,6.13 L 14.16,6.13 L 14.39,5.99 L 14.63,6.13 L 14.76,6.13 L 15.30,5.86 L 15.30,5.82 L 14.43,5.39 L 14.36,5.39 Z" fill="#6fb758" stroke="none" /><path d="M 18.91,4.02 L 18.95,4.08 L 22.43,5.82 L 22.56,5.82 L 23.36,5.42 L 23.36,5.36 L 19.82,3.58 Z" fill="#6fb758" stroke="none" /><path d="M 12.62,3.58 L 12.62,3.62 L 13.42,4.02 L 13.56,4.02 L 14.36,3.62 L 14.33,3.55 L 13.52,3.15 L 13.46,3.15 Z" fill="#6fb758" stroke="none" /><path d="M 15.30,3.11 L 15.33,3.18 L 16.13,3.58 L 16.23,3.58 L 17.07,3.15 L 17.07,3.11 L 16.20,2.68 Z" fill="#6fb758" stroke="none" /><path d="M 12.59,2.68 L 11.72,2.24 L 11.65,2.24 L 8.10,4.02 L 8.10,4.05 L 8.97,4.49 L 9.04,4.49 L 12.59,2.71 Z" fill="#6fb758" stroke="none" /><path d="M 15.33,1.31 L 15.33,1.37 L 17.07,2.24 L 17.97,1.81 L 17.97,1.77 L 16.23,0.90 L 16.13,0.90 Z" fill="#6fb758" stroke="none" /><path d="M 11.72,1.34 L 11.72,1.37 L 12.52,1.77 L 12.65,1.77 L 13.46,1.37 L 13.46,1.31 L 12.65,0.90 L 12.55,0.90 Z" fill="#6fb758" stroke="none" /><path d="M 12.59,24.50 L 12.59,25.10 L 13.42,25.54 L 13.49,25.54 L 13.49,24.94 Z" fill="#6fbd5e" stroke="none" /><path d="M 13.49,23.36 L 13.49,24.47 L 14.39,24.90 L 14.39,23.80 L 13.56,23.36 Z" fill="#6fbd5e" stroke="none" /><path d="M 6.29,16.47 L 6.29,17.57 L 7.20,18.01 L 7.20,16.90 L 6.36,16.47 Z" fill="#6fbd5e" stroke="none" /><path d="M 11.68,14.73 L 11.68,15.23 L 12.59,15.70 L 12.59,16.30 L 13.49,16.74 L 13.49,16.13 L 12.59,15.67 L 12.59,15.16 Z" fill="#6fbd5e" stroke="none" /><path d="M 13.82,13.76 L 13.82,13.82 L 14.36,14.09 L 14.43,14.09 L 14.96,13.82 L 14.96,13.76 L 14.43,13.49 L 14.36,13.49 Z" fill="#6fbd5e" stroke="none" /><path d="M 14.43,12.55 L 14.43,12.62 L 15.23,13.02 L 15.36,13.02 L 15.56,12.92 L 15.56,12.85 L 14.76,12.45 L 14.63,12.45 Z" fill="#6fbd5e" stroke="none" /><path d="M 14.36,12.55 L 14.16,12.45 L 14.03,12.45 L 13.49,12.72 L 13.49,12.75 L 13.76,12.89 L 13.82,12.89 L 14.36,12.62 Z" fill="#6fbd5e" stroke="none" /><path d="M 5.39,11.58 L 5.39,12.69 L 5.42,12.72 L 6.23,13.12 L 6.29,13.12 L 6.29,12.59 L 6.33,12.55 L 7.20,12.99 L 7.20,11.88 L 7.16,11.85 L 6.36,11.45 L 6.29,11.45 L 6.29,11.98 L 6.26,12.02 Z" fill="#6fbd5e" stroke="none" /><path d="M 9.91,10.91 L 9.94,10.98 L 10.74,11.38 L 10.85,11.38 L 11.68,10.95 L 11.68,10.91 L 11.15,10.64 L 11.05,10.64 L 10.81,10.78 L 10.54,10.64 L 10.44,10.64 Z" fill="#6fbd5e" stroke="none" /><path d="M 6.33,10.01 L 6.33,10.08 L 7.13,10.48 L 7.10,10.54 L 6.93,10.61 L 6.93,10.64 L 7.13,10.74 L 7.20,10.81 L 7.20,11.38 L 7.26,11.38 L 8.67,10.68 L 8.67,10.61 L 6.93,9.74 L 6.86,9.74 Z" fill="#6fbd5e" stroke="none" /><path d="M 21.86,9.71 L 21.66,9.61 L 21.52,9.61 L 20.45,10.14 L 20.42,10.21 L 20.59,10.28 L 20.65,10.34 L 20.12,10.61 L 20.12,10.68 L 20.92,11.08 L 21.02,11.08 L 21.56,10.81 L 21.56,10.74 L 20.75,10.34 L 20.82,10.28 L 21.86,9.77 Z" fill="#6fbd5e" stroke="none" /><path d="M 15.60,9.27 L 15.60,9.31 L 17.07,10.04 L 17.14,10.04 L 17.97,9.61 L 17.97,9.57 L 17.44,9.31 L 17.31,9.31 L 17.14,9.41 L 17.04,9.41 L 16.27,9.00 L 16.13,9.00 Z" fill="#6fbd5e" stroke="none" /><path d="M 16.80,8.37 L 16.80,8.40 L 17.67,8.84 L 17.74,8.84 L 17.97,8.70 L 17.97,8.67 L 17.10,8.23 Z" fill="#6fbd5e" stroke="none" /><path d="M 11.68,8.23 L 11.08,7.93 L 10.21,8.37 L 10.21,8.40 L 10.81,8.70 L 11.68,8.27 Z" fill="#6fbd5e" stroke="none" /><path d="M 13.49,24.47 L 13.49,24.97 L 14.39,25.41 L 14.39,24.90 L 13.56,24.47 Z" fill="#70be5e" stroke="none" /><path d="M 10.81,23.63 L 10.81,24.23 L 11.62,24.64 L 11.68,24.64 L 11.68,24.10 L 11.72,24.07 L 12.59,24.50 L 12.59,23.40 L 11.75,22.96 L 11.68,22.96 L 11.68,24.00 L 11.65,24.03 L 10.88,23.63 Z" fill="#70be5e" stroke="none" /><path d="M 10.81,20.92 L 10.81,22.03 L 11.62,22.43 L 11.68,22.43 L 11.68,21.32 L 10.88,20.92 Z" fill="#70be5e" stroke="none" /><path d="M 12.59,20.72 L 12.59,21.19 L 13.49,21.66 L 13.49,22.26 L 14.39,22.69 L 14.39,21.59 L 12.65,20.72 Z" fill="#70be5e" stroke="none" /><path d="M 5.39,18.21 L 5.39,19.31 L 6.29,19.75 L 6.29,18.64 L 5.46,18.21 Z" fill="#70be5e" stroke="none" /><path d="M 12.59,16.30 L 12.59,17.41 L 13.49,17.84 L 13.49,16.74 L 12.65,16.30 Z" fill="#70be5e" stroke="none" /><path d="M 5.39,14.29 L 5.39,14.90 L 6.29,15.36 L 6.29,16.47 L 7.20,16.90 L 7.20,15.80 L 6.29,15.33 L 6.29,14.73 Z" fill="#70be5e" stroke="none" /><path d="M 9.91,13.86 L 9.91,14.36 L 10.81,14.79 L 10.81,14.29 L 9.97,13.86 Z" fill="#70be5e" stroke="none" /><path d="M 13.22,12.85 L 13.22,12.92 L 13.42,13.02 L 13.56,13.02 L 13.76,12.92 L 13.76,12.85 L 13.56,12.75 L 13.42,12.75 Z" fill="#70be5e" stroke="none" /><path d="M 5.39,12.69 L 5.39,13.19 L 6.29,13.66 L 6.29,14.26 L 8.03,15.13 L 8.10,15.13 L 8.10,14.53 L 6.33,13.66 L 6.29,13.62 L 6.29,13.12 Z" fill="#70be5e" stroke="none" /><path d="M 17.37,11.98 L 17.14,11.85 L 17.04,11.85 L 16.23,12.25 L 16.20,12.32 L 16.50,12.45 L 17.37,12.02 Z" fill="#70be5e" stroke="none" /><path d="M 5.39,10.98 L 5.39,11.58 L 6.23,12.02 L 6.29,12.02 L 6.29,11.41 Z" fill="#70be5e" stroke="none" /><path d="M 20.95,11.08 L 20.72,10.95 L 20.65,10.95 L 19.85,11.35 L 19.82,11.41 L 20.02,11.51 L 20.15,11.51 L 20.95,11.11 Z" fill="#70be5e" stroke="none" /><path d="M 18.31,10.61 L 18.34,10.68 L 18.88,10.95 L 19.48,10.64 L 19.48,10.61 L 18.95,10.34 L 18.85,10.34 Z" fill="#70be5e" stroke="none" /><path d="M 10.78,11.38 L 9.94,10.95 L 10.01,10.88 L 10.44,10.68 L 10.48,10.61 L 9.94,10.34 L 9.84,10.34 L 9.00,10.78 L 8.74,10.64 L 8.67,10.64 L 8.13,10.91 L 8.13,10.98 L 8.90,11.35 L 8.94,11.38 L 8.87,11.45 L 8.13,11.82 L 8.03,11.82 L 7.26,11.41 L 7.20,11.41 L 7.20,11.88 L 8.03,12.32 L 8.10,12.32 L 8.10,11.92 L 8.13,11.88 L 8.94,12.28 L 9.04,12.28 L 10.78,11.41 Z" fill="#70be5e" stroke="none" /><path d="M 6.03,10.18 L 6.03,10.21 L 6.90,10.64 L 7.20,10.51 L 7.20,10.48 L 6.33,10.04 L 6.26,10.04 Z" fill="#70be5e" stroke="none" /><path d="M 10.54,9.71 L 10.54,9.77 L 11.35,10.18 L 11.45,10.18 L 11.65,10.08 L 11.65,10.01 L 10.85,9.61 L 10.74,9.61 Z" fill="#70be5e" stroke="none" /><path d="M 7.80,9.31 L 8.07,9.44 L 8.13,9.44 L 8.97,9.00 L 9.04,9.00 L 9.54,9.27 L 9.67,9.27 L 9.87,9.17 L 9.87,9.14 L 9.31,8.84 L 9.04,8.97 L 8.97,8.97 L 8.74,8.84 L 8.67,8.84 L 7.80,9.27 Z" fill="#70be5e" stroke="none" /><path d="M 17.37,9.27 L 17.37,9.31 L 18.01,9.61 L 18.85,9.17 L 18.95,9.17 L 19.11,9.27 L 19.25,9.27 L 19.75,9.00 L 19.82,9.00 L 20.65,9.44 L 19.82,9.87 L 19.82,9.91 L 20.35,10.18 L 20.45,10.18 L 21.59,9.61 L 21.59,9.57 L 20.12,8.84 L 20.05,8.84 L 19.82,8.97 L 19.75,8.97 L 19.48,8.84 L 18.88,9.14 L 18.04,8.70 L 17.94,8.70 L 17.74,8.80 L 17.74,8.87 L 17.94,8.97 L 17.87,9.04 Z" fill="#70be5e" stroke="none" /><path d="M 15.30,7.33 L 15.30,7.36 L 16.17,7.80 L 17.07,7.36 L 17.04,7.30 L 16.23,6.90 L 16.17,6.90 Z" fill="#70be5e" stroke="none" /><path d="M 12.59,22.90 L 12.59,24.50 L 13.42,24.94 L 13.49,24.94 L 13.49,23.33 Z" fill="#76c45e" stroke="none" /><path d="M 7.20,16.30 L 7.20,18.01 L 8.03,18.44 L 8.10,18.44 L 8.10,16.74 L 7.26,16.30 Z" fill="#76c45e" stroke="none" /><path d="M 15.30,13.02 L 15.30,13.05 L 15.83,13.32 L 15.97,13.32 L 16.17,13.22 L 16.17,13.15 L 15.63,12.89 L 15.56,12.89 Z" fill="#76c45e" stroke="none" /><path d="M 20.69,10.31 L 20.38,10.18 L 19.78,10.48 L 19.78,10.51 L 20.05,10.64 L 20.12,10.64 L 20.65,10.38 Z" fill="#76c45e" stroke="none" /><path d="M 6.93,9.71 L 6.93,9.77 L 8.67,10.64 L 8.74,10.64 L 9.00,10.51 L 9.00,10.48 L 7.26,9.61 L 7.13,9.61 Z" fill="#76c45e" stroke="none" /><path d="M 17.07,8.50 L 16.87,8.40 L 16.74,8.40 L 15.93,8.80 L 15.93,8.87 L 16.13,8.97 L 16.27,8.97 L 17.07,8.57 Z" fill="#76c45e" stroke="none" /><path d="M 11.68,24.07 L 11.68,24.67 L 12.59,25.10 L 12.59,24.50 L 11.75,24.07 Z" fill="#77c55e" stroke="none" /><path d="M 12.59,21.19 L 12.59,22.90 L 13.42,23.33 L 13.49,23.33 L 13.49,21.62 Z" fill="#77c55e" stroke="none" /><path d="M 9.91,14.36 L 9.91,14.96 L 10.81,15.40 L 10.81,14.79 L 9.97,14.36 Z" fill="#77c55e" stroke="none" /><path d="M 5.39,13.19 L 5.39,14.29 L 6.23,14.73 L 6.29,14.73 L 6.29,13.62 Z" fill="#77c55e" stroke="none" /><path d="M 13.49,13.02 L 13.22,12.89 L 13.15,12.89 L 12.62,13.15 L 12.62,13.22 L 12.82,13.32 L 12.95,13.32 L 13.49,13.05 Z" fill="#77c55e" stroke="none" /><path d="M 16.50,12.42 L 16.54,12.49 L 17.07,12.75 L 17.71,12.45 L 17.71,12.42 L 17.17,12.15 L 17.04,12.15 Z" fill="#77c55e" stroke="none" /><path d="M 7.20,11.88 L 7.20,12.49 L 8.03,12.92 L 8.10,12.92 L 8.10,12.32 Z" fill="#77c55e" stroke="none" /><path d="M 20.38,10.18 L 19.78,9.87 L 18.91,10.31 L 18.91,10.34 L 19.51,10.64 L 20.38,10.21 Z" fill="#77c55e" stroke="none" /><path d="M 7.20,9.57 L 7.20,9.61 L 8.90,10.44 L 8.94,10.51 L 8.74,10.61 L 8.74,10.68 L 8.94,10.78 L 9.04,10.78 L 9.87,10.34 L 9.87,10.31 L 7.87,9.31 L 7.73,9.31 Z" fill="#77c55e" stroke="none" /><path d="M 19.51,8.84 L 19.51,8.87 L 19.72,8.97 L 19.85,8.97 L 20.05,8.87 L 20.05,8.80 L 19.85,8.70 L 19.75,8.70 Z" fill="#77c55e" stroke="none" /><path d="M 7.20,26.21 L 7.20,27.31 L 7.23,27.35 L 13.49,30.46 L 13.49,27.15 L 13.46,27.11 L 12.65,26.71 L 12.59,26.71 L 12.59,28.85 L 12.55,28.89 Z" fill="#6fba60" stroke="none" /><path d="M 0.00,22.63 L 0.00,23.73 L 0.84,24.13 L 0.90,24.20 L 0.90,25.27 L 1.81,25.71 L 1.81,24.60 L 0.97,24.20 L 0.90,24.13 L 0.90,23.06 L 0.07,22.63 Z" fill="#6fba60" stroke="none" /><path d="M 2.71,21.76 L 2.71,22.86 L 3.55,23.30 L 3.62,23.30 L 3.62,22.19 Z" fill="#6fba60" stroke="none" /><path d="M 0.90,8.74 L 0.90,13.15 L 1.81,13.59 L 1.81,10.34 L 1.84,10.31 L 5.39,12.08 L 5.39,10.98 L 5.36,10.95 Z" fill="#6fba60" stroke="none" /><path d="M 26.98,7.16 L 23.43,5.39 L 23.36,5.39 L 22.49,5.82 L 22.49,5.86 L 25.07,7.13 L 25.14,7.20 L 21.59,8.97 L 21.59,9.00 L 22.46,9.44 L 22.53,9.44 L 26.95,7.23 Z" fill="#6fba60" stroke="none" /><path d="M 8.97,4.45 L 8.17,4.05 L 8.03,4.05 L 1.81,7.16 L 1.81,7.20 L 4.45,8.54 L 4.52,8.54 L 5.39,8.10 L 5.39,8.07 L 3.68,7.23 L 3.65,7.20 L 3.72,7.13 L 8.97,4.52 Z" fill="#6fba60" stroke="none" /><path d="M 13.52,3.11 L 13.52,3.18 L 14.33,3.58 L 14.43,3.58 L 15.26,3.15 L 15.26,3.11 L 14.46,2.71 L 14.33,2.71 Z" fill="#6fba60" stroke="none" /><path d="M 12.62,0.87 L 12.65,0.94 L 13.46,1.34 L 13.52,1.34 L 14.36,0.90 L 14.43,0.90 L 15.26,1.34 L 15.33,1.34 L 16.17,0.90 L 16.17,0.87 L 15.30,0.44 L 14.43,0.87 L 14.36,0.87 L 13.52,0.44 Z" fill="#6fba60" stroke="none" /><path d="M 13.49,22.26 L 13.49,23.36 L 14.39,23.80 L 14.39,22.69 L 13.56,22.26 Z" fill="#71bf60" stroke="none" /><path d="M 15.03,13.79 L 14.96,13.79 L 14.39,14.09 L 13.82,13.79 L 13.76,13.79 L 13.49,13.92 L 13.49,15.03 L 14.33,15.46 L 14.39,15.46 L 14.39,14.39 L 15.26,13.96 L 15.23,13.89 Z" fill="#71bf60" stroke="none" /><path d="M 16.47,12.42 L 16.17,12.28 L 15.30,12.72 L 15.30,12.75 L 15.56,12.89 L 15.63,12.89 L 16.44,12.49 Z" fill="#71bf60" stroke="none" /><path d="M 7.20,11.38 L 7.20,11.41 L 8.07,11.85 L 8.97,11.41 L 8.94,11.35 L 8.13,10.95 L 8.07,10.95 Z" fill="#71bf60" stroke="none" /><path d="M 19.18,8.37 L 17.10,7.33 L 16.23,7.77 L 16.13,7.77 L 15.40,7.40 L 15.36,7.33 L 16.17,6.93 L 16.17,6.86 L 15.36,6.46 L 15.23,6.46 L 13.52,7.33 L 13.46,7.33 L 12.62,6.90 L 12.55,6.90 L 11.41,7.46 L 11.45,7.53 L 11.65,7.63 L 11.58,7.70 L 11.15,7.90 L 11.11,7.97 L 11.62,8.20 L 11.65,8.23 L 11.58,8.30 L 10.85,8.67 L 10.74,8.67 L 10.24,8.40 L 10.14,8.40 L 9.31,8.84 L 9.31,8.87 L 9.84,9.14 L 9.77,9.21 L 9.61,9.27 L 9.61,9.31 L 10.48,9.74 L 10.54,9.74 L 10.81,9.61 L 11.62,10.01 L 11.65,10.04 L 11.45,10.14 L 11.41,10.21 L 11.58,10.28 L 11.65,10.34 L 11.11,10.61 L 11.11,10.64 L 11.58,10.88 L 11.65,10.95 L 9.04,12.25 L 9.00,12.28 L 9.00,13.32 L 8.97,13.36 L 8.17,12.95 L 8.10,12.95 L 8.10,13.46 L 8.94,13.86 L 9.00,13.92 L 9.00,14.93 L 8.97,14.96 L 8.17,14.56 L 8.10,14.56 L 8.10,15.10 L 8.07,15.13 L 6.36,14.26 L 6.29,14.26 L 6.29,15.30 L 6.26,15.33 L 5.39,14.90 L 5.39,18.21 L 6.23,18.61 L 6.29,18.68 L 6.29,19.68 L 6.23,19.72 L 5.46,19.31 L 5.39,19.31 L 5.39,19.82 L 6.23,20.22 L 6.29,20.28 L 6.29,20.85 L 7.20,21.32 L 7.20,22.43 L 8.07,22.86 L 8.10,22.86 L 8.10,22.33 L 8.13,22.29 L 8.94,22.69 L 9.00,22.69 L 9.00,21.66 L 9.04,21.62 L 11.62,22.93 L 11.68,22.93 L 11.68,22.43 L 10.81,21.99 L 10.81,20.95 L 10.85,20.92 L 11.62,21.32 L 11.68,21.32 L 11.68,19.68 L 11.72,19.65 L 12.52,20.05 L 12.59,20.12 L 12.59,20.72 L 14.33,21.59 L 14.39,21.59 L 14.39,18.78 L 13.56,18.38 L 13.49,18.31 L 13.49,17.84 L 12.65,17.41 L 12.59,17.41 L 12.59,18.91 L 12.55,18.95 L 11.72,18.54 L 11.68,18.51 L 11.68,18.04 L 10.81,17.61 L 10.81,19.15 L 10.78,19.18 L 9.07,18.31 L 9.00,18.31 L 9.00,19.95 L 8.97,19.98 L 8.17,19.58 L 8.10,19.51 L 8.10,18.95 L 7.20,18.48 L 7.20,18.01 L 7.16,17.97 L 6.29,17.54 L 6.29,15.40 L 6.33,15.36 L 7.20,15.80 L 7.20,15.26 L 7.26,15.23 L 8.07,15.63 L 8.10,15.67 L 8.10,16.74 L 8.94,17.17 L 9.00,17.17 L 9.00,16.17 L 9.04,16.13 L 9.84,16.54 L 9.91,16.54 L 9.91,13.89 L 9.94,13.86 L 10.74,14.26 L 10.81,14.33 L 10.81,15.40 L 11.68,15.83 L 11.68,14.79 L 11.75,14.76 L 12.52,15.16 L 12.59,15.16 L 12.59,14.56 L 9.94,13.26 L 9.91,13.22 L 9.91,12.18 L 9.94,12.15 L 10.81,12.59 L 11.65,12.15 L 11.72,12.15 L 13.15,12.89 L 13.22,12.89 L 14.09,12.45 L 14.09,12.42 L 11.75,11.25 L 11.82,11.18 L 12.55,10.81 L 12.65,10.81 L 14.09,11.55 L 15.30,10.95 L 15.53,11.08 L 15.63,11.08 L 16.13,10.81 L 16.23,10.81 L 16.97,11.18 L 17.04,11.25 L 16.50,11.51 L 16.50,11.55 L 17.34,11.98 L 17.44,11.98 L 17.94,11.72 L 18.04,11.72 L 18.81,12.12 L 18.95,12.12 L 19.15,12.02 L 19.15,11.95 L 18.95,11.85 L 19.01,11.78 L 20.65,10.98 L 20.65,10.91 L 20.12,10.64 L 20.05,10.64 L 19.82,10.78 L 19.55,10.64 L 19.45,10.64 L 18.95,10.91 L 18.85,10.91 L 18.34,10.64 L 18.24,10.64 L 17.97,10.78 L 17.14,10.34 L 17.21,10.28 L 19.18,9.31 L 19.18,9.27 L 19.01,9.21 L 18.95,9.14 L 19.48,8.87 L 19.45,8.80 L 18.91,8.54 L 19.18,8.40 Z" fill="#71bf60" stroke="none" /><path d="M 6.29,20.85 L 6.29,21.96 L 7.13,22.39 L 7.20,22.39 L 7.20,21.29 Z" fill="#72bf60" stroke="none" /><path d="M 8.10,18.95 L 8.10,19.55 L 8.94,19.98 L 9.00,19.98 L 9.00,19.38 Z" fill="#72bf60" stroke="none" /><path d="M 9.91,15.46 L 9.91,16.57 L 10.74,16.97 L 10.81,17.04 L 10.81,17.61 L 11.68,18.04 L 11.68,16.94 L 10.88,16.54 L 10.81,16.47 L 10.81,15.90 L 10.78,15.87 L 9.97,15.46 Z" fill="#72bf60" stroke="none" /><path d="M 8.10,11.85 L 8.10,12.95 L 9.00,13.39 L 9.00,12.28 Z" fill="#72bf60" stroke="none" /><path d="M 20.08,11.51 L 19.78,11.38 L 18.91,11.82 L 18.91,11.85 L 19.15,11.98 L 19.21,11.98 L 20.08,11.55 Z" fill="#72bf60" stroke="none" /><path d="M 14.13,11.51 L 14.16,11.58 L 14.96,11.98 L 15.03,11.98 L 15.30,11.85 L 16.13,12.28 L 16.23,12.28 L 17.07,11.85 L 17.07,11.82 L 16.54,11.55 L 16.44,11.55 L 16.20,11.68 L 15.40,11.28 L 15.36,11.21 L 15.56,11.11 L 15.56,11.08 L 15.33,10.95 L 15.26,10.95 Z" fill="#72bf60" stroke="none" /><path d="M 14.39,8.97 L 14.13,8.84 L 14.06,8.84 L 13.52,9.10 L 13.52,9.17 L 13.72,9.27 L 13.86,9.27 L 14.39,9.00 Z" fill="#72bf60" stroke="none" /><path d="M 12.62,6.86 L 12.62,6.93 L 13.42,7.33 L 13.56,7.33 L 14.36,6.93 L 14.36,6.86 L 13.56,6.46 L 13.42,6.46 Z" fill="#72bf60" stroke="none" /><path d="M 5.39,19.82 L 5.39,20.42 L 6.29,20.85 L 6.29,20.25 L 5.46,19.82 Z" fill="#79c660" stroke="none" /><path d="M 7.20,18.01 L 7.20,18.51 L 8.07,18.95 L 8.10,18.95 L 8.10,18.51 L 8.13,18.48 L 9.00,18.91 L 9.00,18.28 L 8.13,17.84 L 8.10,17.84 L 8.10,18.41 L 8.07,18.44 Z" fill="#79c660" stroke="none" /><path d="M 13.49,16.13 L 13.49,17.24 L 14.33,17.67 L 14.39,17.67 L 14.39,16.57 Z" fill="#79c660" stroke="none" /><path d="M 10.81,12.59 L 10.81,13.69 L 12.52,14.56 L 12.59,14.56 L 12.59,13.52 L 12.65,13.46 L 12.89,13.36 L 12.89,13.32 L 12.62,13.19 L 13.15,12.92 L 13.15,12.85 L 12.62,12.59 L 12.55,12.59 L 11.68,13.02 Z" fill="#79c660" stroke="none" /><path d="M 7.20,12.49 L 7.20,12.99 L 8.03,13.42 L 8.10,13.42 L 8.10,12.92 Z" fill="#79c660" stroke="none" /><path d="M 15.63,12.92 L 16.13,13.15 L 16.17,13.19 L 16.13,13.22 L 15.90,13.32 L 15.90,13.36 L 16.20,13.49 L 17.94,12.62 L 17.97,12.55 L 17.77,12.45 L 17.64,12.45 L 17.14,12.72 L 17.04,12.72 L 16.54,12.45 L 16.44,12.45 L 15.63,12.85 Z" fill="#79c660" stroke="none" /><path d="M 15.60,11.08 L 15.60,11.11 L 16.47,11.55 L 17.07,11.25 L 17.07,11.21 L 16.20,10.78 Z" fill="#79c660" stroke="none" /><path d="M 19.51,10.61 L 19.55,10.68 L 19.75,10.78 L 19.85,10.78 L 20.05,10.68 L 20.05,10.61 L 19.85,10.51 L 19.72,10.51 Z" fill="#79c660" stroke="none" /><path d="M 18.91,8.50 L 18.91,8.57 L 19.45,8.84 L 19.55,8.84 L 19.78,8.70 L 19.78,8.67 L 19.25,8.40 L 19.11,8.40 Z" fill="#79c660" stroke="none" /><path d="M 16.80,8.37 L 15.33,7.63 L 15.26,7.63 L 13.52,8.50 L 13.52,8.57 L 14.06,8.84 L 14.13,8.84 L 14.36,8.70 L 14.43,8.70 L 14.66,8.84 L 14.73,8.84 L 15.30,8.54 L 15.87,8.84 L 15.93,8.84 L 16.80,8.40 Z" fill="#79c660" stroke="none" /><path d="M 8.10,18.48 L 8.10,18.95 L 8.94,19.38 L 9.00,19.38 L 9.00,18.91 L 8.17,18.48 Z" fill="#79c760" stroke="none" /><path d="M 9.91,14.96 L 9.91,15.46 L 10.81,15.90 L 10.81,15.40 L 9.97,14.96 Z" fill="#79c760" stroke="none" /><path d="M 15.30,11.21 L 15.30,11.25 L 16.17,11.68 L 16.23,11.68 L 16.47,11.55 L 16.47,11.51 L 15.60,11.08 Z" fill="#79c760" stroke="none" /><path d="M 14.13,8.80 L 14.13,8.87 L 14.33,8.97 L 14.46,8.97 L 14.66,8.87 L 14.66,8.80 L 14.46,8.70 L 14.33,8.70 Z" fill="#79c760" stroke="none" /><path d="M 5.39,20.92 L 5.39,21.52 L 6.29,21.96 L 6.29,21.36 L 5.46,20.92 Z" fill="#72bf61" stroke="none" /><path d="M 10.81,15.40 L 10.81,16.50 L 11.68,16.94 L 11.68,15.83 Z" fill="#72bf61" stroke="none" /><path d="M 14.69,12.45 L 15.23,12.72 L 15.36,12.72 L 16.17,12.32 L 16.17,12.28 L 15.33,11.85 L 15.23,11.85 L 15.03,11.95 L 15.03,12.02 L 15.20,12.08 L 15.23,12.15 L 14.69,12.42 Z" fill="#72bf61" stroke="none" /><path d="M 13.49,6.43 L 13.49,6.46 L 14.36,6.90 L 14.43,6.90 L 15.30,6.46 L 15.30,6.43 L 14.76,6.16 L 14.63,6.16 L 14.39,6.29 L 14.16,6.16 L 14.03,6.16 Z" fill="#72bf61" stroke="none" /><path d="M 5.39,20.42 L 5.39,20.92 L 6.29,21.36 L 6.29,20.85 L 5.46,20.42 Z" fill="#79c761" stroke="none" /><path d="M 14.09,6.13 L 14.09,6.16 L 14.36,6.29 L 14.43,6.29 L 14.69,6.16 L 14.69,6.13 L 14.43,5.99 L 14.36,5.99 Z" fill="#79c761" stroke="none" /><path d="M 14.36,13.46 L 14.16,13.36 L 14.03,13.36 L 13.49,13.62 L 13.49,13.66 L 13.76,13.79 L 13.82,13.79 L 14.36,13.52 Z" fill="#76c865" stroke="none" /><path d="M 15.90,13.32 L 15.36,13.05 L 15.23,13.05 L 14.43,13.46 L 14.43,13.52 L 14.96,13.79 L 15.03,13.79 L 15.90,13.36 Z" fill="#76c865" stroke="none" /><path d="M 16.20,8.97 L 15.93,8.84 L 15.87,8.84 L 15.33,9.10 L 15.33,9.17 L 15.53,9.27 L 15.67,9.27 L 16.20,9.00 Z" fill="#76c865" stroke="none" /><path d="M 12.89,13.32 L 12.89,13.36 L 13.42,13.62 L 13.56,13.62 L 14.09,13.36 L 14.09,13.32 L 13.56,13.05 L 13.42,13.05 Z" fill="#77c866" stroke="none" /><path d="M 8.10,16.74 L 8.10,17.84 L 8.94,18.28 L 9.00,18.28 L 9.00,17.17 Z" fill="#79ca68" stroke="none" /><path d="M 16.17,13.46 L 15.97,13.36 L 15.83,13.36 L 15.03,13.76 L 15.03,13.82 L 15.23,13.92 L 15.33,13.92 L 16.13,13.52 Z" fill="#79ca68" stroke="none" /><path d="M 12.62,13.46 L 12.59,13.49 L 12.59,14.59 L 13.42,15.00 L 13.49,15.06 L 13.49,16.13 L 14.33,16.57 L 14.39,16.57 L 14.39,15.46 L 13.56,15.06 L 13.49,15.00 L 13.49,13.96 L 13.76,13.82 L 13.76,13.76 L 12.95,13.36 L 12.82,13.36 Z" fill="#79ca68" stroke="none" /><path d="M 15.87,8.80 L 15.33,8.54 L 15.26,8.54 L 14.39,8.97 L 14.39,9.00 L 15.26,9.44 L 15.33,9.44 L 15.60,9.31 L 15.60,9.27 L 15.33,9.14 L 15.87,8.87 Z" fill="#79ca68" stroke="none" /></svg>