<svg height="32" width="32" viewBox="0 0 32 32"><defs /><path d="M 21.60,26.27 L 21.53,26.27 L 20.71,26.69 L 20.71,27.80 L 21.60,27.36 Z" fill="#120903" stroke="none" /><path d="M 21.60,21.82 L 20.71,22.27 L 20.71,25.57 L 20.77,25.57 L 21.60,25.16 Z" fill="#120903" stroke="none" /><path d="M 25.22,21.12 L 24.33,21.57 L 24.33,23.76 L 24.40,23.76 L 25.22,23.35 Z" fill="#120903" stroke="none" /><path d="M 17.08,20.77 L 17.02,20.77 L 16.19,21.18 L 16.19,23.41 L 17.08,22.97 Z" fill="#120903" stroke="none" /><path d="M 27.93,17.56 L 27.86,17.56 L 27.04,17.97 L 27.04,20.20 L 27.10,20.20 L 27.93,19.79 Z" fill="#120903" stroke="none" /><path d="M 19.79,16.10 L 19.72,16.10 L 18.89,16.51 L 18.89,17.62 L 19.79,17.18 Z" fill="#120903" stroke="none" /><path d="M 16.19,15.65 L 15.27,16.10 L 15.27,18.32 L 15.33,18.32 L 16.19,17.88 Z" fill="#120903" stroke="none" /><path d="M 25.22,12.25 L 24.33,12.69 L 24.33,13.81 L 25.22,13.36 Z" fill="#120903" stroke="none" /><path d="M 19.79,11.71 L 19.72,11.71 L 18.89,12.12 L 18.89,15.40 L 18.96,15.40 L 19.79,14.98 Z" fill="#120903" stroke="none" /><path d="M 23.41,9.89 L 23.35,9.89 L 22.52,10.31 L 22.52,12.47 L 22.58,12.47 L 23.41,12.06 Z" fill="#120903" stroke="none" /><path d="M 28.82,23.76 L 28.76,23.76 L 27.93,24.17 L 27.93,25.26 L 28.82,24.81 Z" fill="#120b04" stroke="none" /><path d="M 23.41,23.13 L 22.52,23.57 L 22.52,25.80 L 23.41,25.35 Z" fill="#120b04" stroke="none" /><path d="M 27.93,20.87 L 27.04,21.31 L 27.04,22.43 L 27.93,21.98 Z" fill="#120b04" stroke="none" /><path d="M 15.27,20.55 L 14.41,20.96 L 14.41,23.19 L 14.47,23.19 L 15.27,22.78 Z" fill="#120b04" stroke="none" /><path d="M 23.41,18.70 L 22.52,19.15 L 22.52,22.46 L 22.58,22.46 L 23.41,22.04 Z" fill="#120b04" stroke="none" /><path d="M 20.71,17.84 L 20.64,17.84 L 18.89,18.74 L 18.89,19.85 L 19.72,19.44 L 19.79,19.47 L 19.79,22.71 L 18.89,23.16 L 18.89,26.50 L 19.79,26.05 L 19.79,22.74 L 20.71,22.27 Z" fill="#120b04" stroke="none" /><path d="M 25.22,16.70 L 25.16,16.70 L 24.33,17.11 L 24.33,19.34 L 25.22,18.89 Z" fill="#120b04" stroke="none" /><path d="M 27.04,15.78 L 26.15,16.22 L 26.15,18.42 L 26.21,18.42 L 27.04,18.00 Z" fill="#120b04" stroke="none" /><path d="M 17.97,13.68 L 17.91,13.68 L 17.08,14.09 L 17.08,15.17 L 17.02,15.24 L 16.19,15.65 L 16.19,16.76 L 17.02,16.35 L 17.08,16.38 L 17.08,18.51 L 17.15,18.51 L 17.97,18.10 Z" fill="#120b04" stroke="none" /><path d="M 25.22,13.36 L 24.33,13.81 L 24.33,14.89 L 24.40,14.89 L 25.22,14.47 Z" fill="#120b04" stroke="none" /><path d="M 23.41,13.17 L 23.35,13.17 L 22.52,13.58 L 22.52,16.92 L 23.41,16.48 Z" fill="#120b04" stroke="none" /><path d="M 21.60,11.86 L 21.53,11.86 L 20.71,12.28 L 20.71,16.70 L 20.77,16.70 L 21.60,16.29 Z" fill="#120b04" stroke="none" /><path d="M 28.82,7.19 L 28.76,7.19 L 27.93,7.60 L 27.93,11.99 L 27.99,11.99 L 28.82,11.58 Z" fill="#120b04" stroke="none" /><path d="M 18.89,28.72 L 18.83,28.72 L 17.97,29.17 L 17.97,30.22 L 18.04,30.22 L 18.89,29.77 Z" fill="#130c04" stroke="none" /><path d="M 21.60,27.36 L 20.71,27.80 L 20.71,28.85 L 20.77,28.85 L 21.60,28.44 Z" fill="#130c04" stroke="none" /><path d="M 16.16,25.64 L 15.27,26.08 L 15.27,28.31 L 16.16,27.86 L 16.19,27.90 L 16.19,31.11 L 16.25,31.11 L 17.08,30.70 L 17.08,27.42 L 17.02,27.42 L 16.22,27.83 L 16.19,27.80 L 16.19,25.64 Z" fill="#130c04" stroke="none" /><path d="M 23.41,25.35 L 22.52,25.80 L 22.52,27.96 L 23.41,27.51 Z" fill="#130c04" stroke="none" /><path d="M 21.60,25.16 L 21.53,25.16 L 20.71,25.57 L 20.71,26.69 L 20.77,26.69 L 21.60,26.27 Z" fill="#130c04" stroke="none" /><path d="M 25.16,23.35 L 24.33,23.76 L 24.33,25.99 L 25.19,25.57 L 25.22,25.61 L 25.22,26.59 L 25.29,26.59 L 26.15,26.15 L 26.15,23.98 L 25.26,24.43 L 25.22,24.40 L 25.22,23.35 Z" fill="#130c04" stroke="none" /><path d="M 16.13,22.33 L 15.27,22.78 L 15.27,23.86 L 15.33,23.86 L 16.16,23.44 L 16.19,23.48 L 16.19,24.52 L 16.22,24.52 L 17.08,24.08 L 17.08,22.97 L 16.22,23.38 L 16.19,23.35 L 16.19,22.33 Z" fill="#130c04" stroke="none" /><path d="M 27.93,19.79 L 27.86,19.79 L 27.04,20.20 L 27.04,21.31 L 27.93,20.87 Z" fill="#130c04" stroke="none" /><path d="M 25.22,18.89 L 24.33,19.34 L 24.33,21.57 L 25.22,21.12 Z" fill="#130c04" stroke="none" /><path d="M 16.16,17.88 L 15.27,18.32 L 15.27,19.44 L 16.16,18.99 L 16.19,19.02 L 16.19,21.18 L 16.25,21.18 L 17.08,20.77 L 17.08,18.54 L 17.02,18.54 L 16.22,18.96 L 16.19,18.93 L 16.19,17.88 Z" fill="#130c04" stroke="none" /><path d="M 19.79,17.18 L 18.89,17.62 L 18.89,18.74 L 19.79,18.29 Z" fill="#130c04" stroke="none" /><path d="M 21.60,16.29 L 21.53,16.29 L 20.71,16.70 L 20.71,17.81 L 20.77,17.81 L 21.60,17.40 Z" fill="#130c04" stroke="none" /><path d="M 19.79,14.98 L 19.72,14.98 L 18.89,15.40 L 18.89,16.51 L 18.96,16.51 L 19.79,16.10 Z" fill="#130c04" stroke="none" /><path d="M 25.22,14.47 L 25.16,14.47 L 24.33,14.89 L 24.33,16.00 L 24.40,16.00 L 25.22,15.59 Z" fill="#130c04" stroke="none" /><path d="M 16.19,13.49 L 15.27,13.93 L 15.27,16.10 L 15.33,16.10 L 16.19,15.65 Z" fill="#130c04" stroke="none" /><path d="M 23.41,12.06 L 23.35,12.06 L 22.52,12.47 L 22.52,13.58 L 22.58,13.58 L 23.41,13.17 Z" fill="#130c04" stroke="none" /><path d="M 26.08,8.52 L 25.22,8.97 L 25.22,11.10 L 25.16,11.17 L 24.33,11.58 L 24.33,12.69 L 25.19,12.28 L 25.22,12.31 L 25.22,13.36 L 26.12,12.91 L 26.15,12.95 L 26.15,16.22 L 26.18,16.22 L 27.04,15.78 L 27.04,12.47 L 26.97,12.47 L 26.18,12.88 L 26.15,12.85 L 26.15,8.52 Z" fill="#130c04" stroke="none" /><path d="M 6.30,25.80 L 6.30,26.91 L 7.22,27.36 L 7.22,26.24 Z" fill="#1d0e05" stroke="none" /><path d="M 9.92,24.30 L 9.92,26.50 L 10.78,26.94 L 10.85,26.94 L 10.85,24.75 L 9.99,24.30 Z" fill="#1d0e05" stroke="none" /><path d="M 12.63,23.41 L 12.63,25.64 L 13.49,26.08 L 13.55,26.08 L 13.55,23.86 Z" fill="#1d0e05" stroke="none" /><path d="M 6.30,21.38 L 6.30,24.68 L 7.16,25.13 L 7.22,25.13 L 7.22,21.82 L 6.36,21.38 Z" fill="#1d0e05" stroke="none" /><path d="M 1.78,15.78 L 1.78,18.00 L 2.61,18.42 L 2.67,18.42 L 2.67,16.22 Z" fill="#1d0e05" stroke="none" /><path d="M 9.92,15.43 L 9.92,16.54 L 10.85,16.99 L 10.85,15.87 L 9.99,15.43 Z" fill="#1d0e05" stroke="none" /><path d="M 4.49,13.81 L 4.49,14.92 L 5.41,15.36 L 5.41,14.25 Z" fill="#1d0e05" stroke="none" /><path d="M 8.11,11.23 L 8.11,13.39 L 8.97,13.84 L 9.03,13.84 L 9.03,11.67 Z" fill="#1d0e05" stroke="none" /><path d="M 0.89,9.80 L 0.89,12.02 L 1.72,12.44 L 1.78,12.44 L 1.78,10.21 L 0.95,9.80 Z" fill="#1d0e05" stroke="none" /><path d="M 4.49,9.42 L 4.49,12.69 L 5.34,13.14 L 5.41,13.14 L 5.41,9.86 Z" fill="#1d0e05" stroke="none" /><path d="M 13.55,30.54 L 13.55,31.59 L 14.35,32.00 L 14.41,32.00 L 14.41,30.95 L 13.61,30.54 Z" fill="#1d1206" stroke="none" /><path d="M 12.63,26.75 L 12.63,27.86 L 13.55,28.31 L 13.55,27.20 L 12.69,26.75 Z" fill="#1d1206" stroke="none" /><path d="M 8.11,24.49 L 8.11,26.72 L 9.03,27.17 L 9.03,24.94 L 8.17,24.49 Z" fill="#1d1206" stroke="none" /><path d="M 11.74,20.77 L 11.74,22.97 L 12.63,23.41 L 12.63,21.18 L 11.80,20.77 Z" fill="#1d1206" stroke="none" /><path d="M 8.11,20.07 L 8.11,23.38 L 8.97,23.83 L 9.03,23.83 L 9.03,20.52 L 8.17,20.07 Z" fill="#1d1206" stroke="none" /><path d="M 9.92,19.85 L 9.92,22.08 L 10.85,22.52 L 10.85,20.29 Z" fill="#1d1206" stroke="none" /><path d="M 9.92,16.54 L 9.92,17.62 L 10.78,18.07 L 10.85,18.07 L 10.85,16.99 L 9.99,16.54 Z" fill="#1d1206" stroke="none" /><path d="M 4.49,16.03 L 4.49,17.15 L 5.34,17.56 L 5.41,17.62 L 5.41,20.87 L 5.38,20.90 L 4.49,20.45 L 4.49,23.79 L 5.41,24.24 L 5.41,20.96 L 5.44,20.93 L 6.23,21.34 L 6.30,21.34 L 6.30,16.92 L 4.55,16.03 Z" fill="#1d1206" stroke="none" /><path d="M 8.11,14.50 L 8.11,17.84 L 9.03,18.29 L 9.03,14.95 Z" fill="#1d1206" stroke="none" /><path d="M 13.55,13.96 L 13.55,18.35 L 14.41,18.77 L 14.41,14.38 L 13.61,13.96 Z" fill="#1d1206" stroke="none" /><path d="M 0.00,13.77 L 0.00,16.00 L 0.89,16.45 L 0.89,14.22 Z" fill="#1d1206" stroke="none" /><path d="M 6.30,11.39 L 6.30,15.81 L 7.16,16.25 L 7.22,16.25 L 7.22,11.83 Z" fill="#1d1206" stroke="none" /><path d="M 2.67,9.57 L 2.67,10.62 L 2.64,10.66 L 1.84,10.24 L 1.78,10.24 L 1.78,11.36 L 2.67,11.80 L 2.67,14.00 L 3.53,14.44 L 3.59,14.44 L 3.59,10.02 Z" fill="#1d1206" stroke="none" /><path d="M 22.52,25.80 L 21.60,26.24 L 21.60,28.41 L 21.66,28.41 L 22.52,27.96 Z" fill="#170f07" stroke="none" /><path d="M 15.27,13.96 L 15.20,13.96 L 14.41,14.38 L 14.41,17.65 L 15.27,17.24 Z" fill="#170f07" stroke="none" /><path d="M 18.89,12.15 L 18.83,12.15 L 17.08,13.04 L 17.08,14.09 L 17.15,14.09 L 17.94,13.68 L 17.97,13.71 L 17.97,18.07 L 17.11,18.51 L 17.08,18.48 L 17.08,16.32 L 16.19,16.76 L 16.19,18.96 L 15.27,19.44 L 15.27,22.74 L 15.20,22.81 L 14.41,23.19 L 14.41,27.61 L 14.47,27.61 L 15.27,27.20 L 15.27,26.12 L 16.13,25.67 L 16.19,25.70 L 16.19,27.83 L 15.27,28.31 L 15.27,31.59 L 16.19,31.14 L 16.19,27.86 L 16.22,27.83 L 17.05,27.42 L 17.08,27.45 L 17.08,28.50 L 17.15,28.50 L 17.94,28.09 L 17.97,28.12 L 17.97,29.17 L 18.86,28.72 L 18.89,28.76 L 18.89,29.77 L 19.79,29.33 L 19.79,27.20 L 19.85,27.13 L 20.71,26.72 L 20.71,25.61 L 20.64,25.61 L 18.93,26.47 L 18.89,26.50 L 18.89,27.58 L 18.83,27.64 L 18.00,28.06 L 17.97,28.02 L 17.97,25.86 L 18.89,25.38 L 18.89,23.19 L 18.93,23.16 L 19.75,22.74 L 19.79,22.78 L 19.79,24.94 L 20.71,24.49 L 20.71,22.30 L 20.77,22.23 L 21.53,21.85 L 21.60,21.88 L 21.60,22.93 L 22.49,22.49 L 22.52,22.52 L 22.52,23.57 L 23.35,23.16 L 23.41,23.19 L 23.41,27.51 L 25.22,26.62 L 25.22,25.54 L 24.40,25.96 L 24.33,25.92 L 24.33,20.45 L 23.41,20.90 L 23.41,22.01 L 22.55,22.46 L 22.52,22.43 L 22.52,19.18 L 22.58,19.12 L 23.41,18.70 L 23.41,16.48 L 22.52,16.92 L 22.52,18.00 L 22.46,18.07 L 21.63,18.48 L 21.60,18.45 L 21.60,17.40 L 21.53,17.40 L 20.74,17.81 L 20.71,17.78 L 20.71,14.50 L 19.79,14.95 L 19.79,18.29 L 20.68,17.84 L 20.71,17.88 L 20.71,18.93 L 20.77,18.93 L 21.57,18.51 L 21.60,18.54 L 21.60,20.68 L 21.53,20.74 L 20.71,21.15 L 20.71,22.23 L 20.64,22.30 L 19.82,22.71 L 19.79,22.68 L 19.79,19.40 L 18.89,19.85 L 18.89,20.93 L 18.83,20.99 L 18.00,21.41 L 17.97,21.38 L 17.97,18.10 L 18.89,17.62 Z" fill="#170f07" stroke="none" /><path d="M 28.82,11.58 L 28.76,11.58 L 27.93,11.99 L 27.93,21.95 L 27.86,22.01 L 27.10,22.39 L 27.04,22.36 L 27.04,18.00 L 26.97,18.00 L 26.15,18.42 L 26.15,21.73 L 26.08,21.79 L 25.22,22.20 L 25.22,24.43 L 25.29,24.43 L 27.01,23.57 L 27.04,23.60 L 27.04,25.70 L 27.93,25.26 L 27.93,24.21 L 28.82,23.76 Z" fill="#170f07" stroke="none" /><path d="M 22.52,10.34 L 22.46,10.34 L 20.71,11.23 L 20.71,12.28 L 20.77,12.28 L 21.57,11.86 L 21.60,11.90 L 21.60,15.17 L 22.52,14.73 Z" fill="#170f07" stroke="none" /><path d="M 24.33,9.42 L 23.41,9.86 L 23.41,15.36 L 24.33,14.92 Z" fill="#170f07" stroke="none" /><path d="M 27.93,7.63 L 27.86,7.63 L 27.04,8.05 L 27.04,9.10 L 26.97,9.16 L 26.15,9.57 L 26.15,12.88 L 25.22,13.36 L 25.22,15.55 L 24.33,16.00 L 24.33,17.11 L 24.40,17.11 L 25.19,16.70 L 25.22,16.73 L 25.22,17.78 L 25.29,17.78 L 26.15,17.34 L 26.15,12.91 L 27.04,12.47 L 27.04,11.36 L 27.93,10.91 Z" fill="#170f07" stroke="none" /><path d="M 6.30,26.91 L 6.30,27.96 L 7.16,28.41 L 7.22,28.41 L 7.22,27.36 L 6.36,26.91 Z" fill="#1f1307" stroke="none" /><path d="M 8.11,26.72 L 8.11,28.88 L 9.03,29.33 L 9.03,27.17 L 8.17,26.72 Z" fill="#1f1307" stroke="none" /><path d="M 9.92,26.50 L 9.92,28.72 L 10.78,29.14 L 10.85,29.20 L 10.85,30.25 L 11.67,30.66 L 11.74,30.66 L 11.74,28.50 L 10.85,28.06 L 10.85,26.94 Z" fill="#1f1307" stroke="none" /><path d="M 12.63,25.64 L 12.63,26.75 L 13.55,27.20 L 13.55,26.08 Z" fill="#1f1307" stroke="none" /><path d="M 3.59,25.54 L 3.59,26.62 L 4.42,27.04 L 4.49,27.04 L 4.49,25.99 Z" fill="#1f1307" stroke="none" /><path d="M 6.30,24.68 L 6.30,25.80 L 7.16,26.24 L 7.22,26.24 L 7.22,25.13 Z" fill="#1f1307" stroke="none" /><path d="M 9.92,22.08 L 9.92,24.30 L 10.85,24.75 L 10.85,22.52 L 9.99,22.08 Z" fill="#1f1307" stroke="none" /><path d="M 0.89,19.79 L 0.89,21.98 L 1.72,22.39 L 1.78,22.46 L 1.78,25.70 L 2.67,26.15 L 2.67,22.87 L 1.84,22.46 L 1.78,22.39 L 1.78,20.20 L 0.95,19.79 Z" fill="#1f1307" stroke="none" /><path d="M 9.92,17.62 L 9.92,18.74 L 10.78,19.18 L 10.85,19.18 L 10.85,18.07 Z" fill="#1f1307" stroke="none" /><path d="M 0.89,16.45 L 0.89,17.56 L 1.78,18.00 L 1.78,19.12 L 2.61,19.53 L 2.67,19.53 L 2.67,18.42 L 1.78,17.97 L 1.78,16.89 Z" fill="#1f1307" stroke="none" /><path d="M 6.30,15.81 L 6.30,16.92 L 7.16,17.37 L 7.22,17.37 L 7.22,16.25 Z" fill="#1f1307" stroke="none" /><path d="M 4.49,14.92 L 4.49,16.03 L 5.41,16.48 L 5.41,15.36 L 4.55,14.92 Z" fill="#1f1307" stroke="none" /><path d="M 8.11,13.39 L 8.11,14.50 L 8.97,14.95 L 9.03,14.95 L 9.03,13.84 Z" fill="#1f1307" stroke="none" /><path d="M 4.49,12.69 L 4.49,13.81 L 5.34,14.25 L 5.41,14.25 L 5.41,13.14 Z" fill="#1f1307" stroke="none" /><path d="M 10.85,12.60 L 10.85,14.70 L 10.78,14.73 L 9.99,14.31 L 9.92,14.31 L 9.92,15.43 L 10.78,15.84 L 10.85,15.90 L 10.85,16.99 L 11.67,17.40 L 11.74,17.46 L 11.74,20.77 L 12.56,21.18 L 12.63,21.18 L 12.63,17.88 L 11.80,17.46 L 11.74,17.40 L 11.74,13.04 Z" fill="#1f1307" stroke="none" /><path d="M 0.89,12.02 L 0.89,13.11 L 1.72,13.52 L 1.78,13.58 L 1.78,15.78 L 2.67,16.22 L 2.67,14.00 L 1.84,13.58 L 1.78,13.52 L 1.78,12.44 L 0.95,12.02 Z" fill="#1f1307" stroke="none" /><path d="M 0.89,7.63 L 0.89,9.80 L 1.72,10.21 L 1.78,10.21 L 1.78,8.05 L 0.95,7.63 Z" fill="#1f1307" stroke="none" /><path d="M 18.04,10.78 L 18.07,10.85 L 19.72,11.67 L 19.85,11.67 L 20.68,11.26 L 20.64,11.20 L 18.99,10.37 L 18.86,10.37 Z" fill="#2d1608" stroke="none" /><path d="M 14.41,10.78 L 14.41,10.82 L 15.30,11.26 L 16.22,10.82 L 16.22,10.78 L 15.33,10.34 Z" fill="#2d1608" stroke="none" /><path d="M 5.38,8.97 L 5.41,9.03 L 7.13,9.89 L 7.22,9.89 L 8.05,9.48 L 8.05,9.42 L 6.33,8.56 L 6.20,8.56 Z" fill="#2d1608" stroke="none" /><path d="M 20.74,8.52 L 20.74,8.56 L 23.35,9.86 L 23.48,9.86 L 24.30,9.45 L 24.27,9.38 L 21.66,8.08 Z" fill="#2d1608" stroke="none" /><path d="M 18.96,7.60 L 18.96,7.67 L 19.79,8.08 L 19.88,8.08 L 20.71,7.67 L 20.71,7.60 L 19.88,7.19 L 19.79,7.19 Z" fill="#2d1608" stroke="none" /><path d="M 6.27,6.71 L 6.27,6.74 L 8.05,7.63 L 8.11,7.63 L 8.97,7.19 L 8.97,7.16 L 7.19,6.27 Z" fill="#2d1608" stroke="none" /><path d="M 23.48,6.27 L 23.48,6.30 L 25.26,7.19 L 26.18,6.74 L 26.18,6.71 L 24.40,5.82 L 24.33,5.82 Z" fill="#2d1608" stroke="none" /><path d="M 9.89,4.90 L 9.92,4.96 L 12.53,6.27 L 12.66,6.27 L 13.49,5.85 L 13.46,5.79 L 10.85,4.49 L 10.72,4.49 Z" fill="#2d1608" stroke="none" /><path d="M 18.04,4.45 L 18.04,4.49 L 19.82,5.38 L 19.88,5.38 L 20.74,4.93 L 20.74,4.90 L 18.96,4.01 Z" fill="#2d1608" stroke="none" /><path d="M 8.08,4.01 L 8.08,4.04 L 8.91,4.45 L 9.03,4.45 L 9.86,4.04 L 9.83,3.98 L 9.00,3.56 L 8.94,3.56 Z" fill="#2d1608" stroke="none" /><path d="M 15.27,29.42 L 14.41,29.84 L 14.41,32.00 L 14.47,32.00 L 15.27,31.59 Z" fill="#1e1409" stroke="none" /><path d="M 20.71,26.72 L 20.64,26.72 L 19.79,27.17 L 19.79,29.33 L 20.71,28.88 Z" fill="#1e1409" stroke="none" /><path d="M 22.52,24.68 L 21.60,25.13 L 21.60,26.24 L 21.66,26.24 L 22.52,25.80 Z" fill="#1e1409" stroke="none" /><path d="M 20.71,24.49 L 20.64,24.49 L 19.79,24.94 L 19.79,26.05 L 20.71,25.61 Z" fill="#1e1409" stroke="none" /><path d="M 17.97,23.63 L 17.08,24.08 L 17.08,26.27 L 17.15,26.27 L 17.94,25.86 L 17.97,25.89 L 17.97,28.06 L 17.08,28.50 L 17.08,30.66 L 17.15,30.66 L 17.97,30.25 L 17.97,28.09 L 18.89,27.61 L 18.89,25.38 L 18.00,25.83 L 17.97,25.80 Z" fill="#1e1409" stroke="none" /><path d="M 27.04,23.54 L 26.15,23.98 L 26.15,26.15 L 27.04,25.70 Z" fill="#1e1409" stroke="none" /><path d="M 18.89,17.62 L 17.97,18.07 L 17.97,21.41 L 18.04,21.41 L 18.89,20.96 Z" fill="#1e1409" stroke="none" /><path d="M 26.15,17.34 L 25.22,17.78 L 25.22,21.12 L 26.15,20.68 Z" fill="#1e1409" stroke="none" /><path d="M 15.27,17.24 L 15.20,17.24 L 14.41,17.65 L 14.41,20.96 L 14.47,20.96 L 15.27,20.55 Z" fill="#1e1409" stroke="none" /><path d="M 22.52,16.92 L 21.60,17.37 L 21.60,18.48 L 20.71,18.93 L 20.71,21.15 L 21.60,20.71 L 21.60,18.51 L 22.52,18.04 Z" fill="#1e1409" stroke="none" /><path d="M 24.33,14.92 L 24.27,14.92 L 23.41,15.36 L 23.41,20.90 L 23.48,20.90 L 24.33,20.45 Z" fill="#1e1409" stroke="none" /><path d="M 17.08,13.04 L 16.19,13.49 L 16.19,14.54 L 16.25,14.54 L 17.08,14.12 Z" fill="#1e1409" stroke="none" /><path d="M 20.71,11.23 L 19.79,11.67 L 19.79,12.76 L 20.71,12.31 Z" fill="#1e1409" stroke="none" /><path d="M 27.93,10.91 L 27.86,10.91 L 27.04,11.32 L 27.04,17.97 L 27.10,17.97 L 27.93,17.56 Z" fill="#1e1409" stroke="none" /><path d="M 25.22,8.97 L 24.33,9.42 L 24.33,11.58 L 25.22,11.13 Z" fill="#1e1409" stroke="none" /><path d="M 27.04,8.08 L 26.97,8.08 L 26.15,8.49 L 26.15,9.57 L 27.04,9.13 Z" fill="#1e1409" stroke="none" /><path d="M 10.85,12.56 L 10.88,12.63 L 14.38,14.38 L 14.44,14.38 L 15.27,13.96 L 15.27,13.93 L 11.71,12.15 Z" fill="#2d1c0a" stroke="none" /><path d="M 13.52,10.34 L 13.52,10.37 L 14.35,10.78 L 14.47,10.78 L 15.30,10.37 L 15.27,10.31 L 14.44,9.89 L 14.38,9.89 Z" fill="#2d1c0a" stroke="none" /><path d="M 8.11,9.42 L 8.11,9.48 L 9.83,10.34 L 9.96,10.34 L 10.78,9.92 L 10.75,9.86 L 9.03,9.00 L 8.94,9.00 Z" fill="#2d1c0a" stroke="none" /><path d="M 14.44,8.97 L 14.44,9.03 L 17.05,10.34 L 17.18,10.34 L 18.00,9.92 L 17.97,9.86 L 15.36,8.56 L 15.27,8.56 Z" fill="#2d1c0a" stroke="none" /><path d="M 17.11,8.52 L 17.11,8.56 L 20.68,10.34 L 20.80,10.34 L 21.63,9.92 L 21.60,9.86 L 18.04,8.08 Z" fill="#2d1c0a" stroke="none" /><path d="M 9.89,8.52 L 9.89,8.56 L 11.67,9.45 L 11.74,9.45 L 12.60,9.00 L 12.60,8.97 L 10.82,8.08 Z" fill="#2d1c0a" stroke="none" /><path d="M 3.56,8.08 L 3.56,8.11 L 4.39,8.52 L 4.52,8.52 L 5.34,8.11 L 5.31,8.05 L 4.49,7.63 L 4.42,7.63 Z" fill="#2d1c0a" stroke="none" /><path d="M 0.03,7.16 L 0.06,7.22 L 0.83,7.60 L 0.92,7.60 L 1.72,7.19 L 1.72,7.16 L 0.89,6.74 Z" fill="#2d1c0a" stroke="none" /><path d="M 9.89,6.71 L 9.92,6.78 L 12.53,8.08 L 12.66,8.08 L 13.49,7.67 L 13.46,7.60 L 10.85,6.30 L 10.72,6.30 Z" fill="#2d1c0a" stroke="none" /><path d="M 20.74,6.71 L 20.74,6.74 L 24.30,8.52 L 24.43,8.52 L 25.26,8.11 L 25.22,8.05 L 24.40,7.63 L 25.22,7.22 L 25.26,7.16 L 24.43,6.74 L 24.30,6.74 L 23.51,7.16 L 23.41,7.16 L 21.66,6.27 Z" fill="#2d1c0a" stroke="none" /><path d="M 7.19,5.34 L 7.19,5.41 L 8.91,6.27 L 9.03,6.27 L 9.86,5.85 L 9.83,5.79 L 8.11,4.93 L 8.02,4.93 Z" fill="#2d1c0a" stroke="none" /><path d="M 20.77,4.01 L 20.77,4.04 L 22.55,4.93 L 23.41,4.52 L 23.38,4.45 L 21.66,3.59 L 21.57,3.59 Z" fill="#2d1c0a" stroke="none" /><path d="M 11.71,4.01 L 11.71,4.04 L 14.38,5.38 L 13.55,5.79 L 13.52,5.85 L 17.08,7.63 L 17.18,7.63 L 18.93,6.74 L 18.93,6.71 L 18.10,6.30 L 17.97,6.30 L 17.18,6.71 L 17.08,6.71 L 14.47,5.41 L 14.44,5.38 L 14.47,5.34 L 15.27,4.96 L 15.30,4.90 L 12.63,3.56 L 12.56,3.56 Z" fill="#2d1c0a" stroke="none" /><path d="M 17.11,10.34 L 17.11,10.37 L 18.00,10.82 L 18.93,10.37 L 18.93,10.34 L 18.04,9.89 Z" fill="#301e0b" stroke="none" /><path d="M 9.89,10.34 L 9.89,10.37 L 12.56,11.71 L 12.63,11.71 L 13.52,11.26 L 17.05,13.04 L 17.11,13.04 L 17.97,12.60 L 17.97,12.56 L 16.25,11.71 L 17.11,11.26 L 17.11,11.23 L 16.29,10.82 L 16.16,10.82 L 15.36,11.23 L 15.27,11.23 L 14.47,10.82 L 14.35,10.82 L 13.55,11.23 L 13.46,11.23 L 10.82,9.89 Z" fill="#301e0b" stroke="none" /><path d="M 12.63,9.89 L 12.63,9.92 L 13.46,10.34 L 13.55,10.34 L 14.38,9.92 L 14.38,9.86 L 13.55,9.45 L 13.49,9.45 Z" fill="#301e0b" stroke="none" /><path d="M 4.45,8.52 L 4.45,8.56 L 5.34,9.00 L 6.27,8.56 L 6.27,8.52 L 5.38,8.08 Z" fill="#301e0b" stroke="none" /><path d="M 19.85,8.08 L 19.85,8.11 L 20.68,8.52 L 20.80,8.52 L 21.63,8.11 L 21.60,8.05 L 20.77,7.63 L 20.71,7.63 Z" fill="#301e0b" stroke="none" /><path d="M 18.00,8.08 L 17.11,7.63 L 16.22,8.08 L 16.22,8.11 L 17.05,8.52 L 17.18,8.52 L 18.00,8.11 Z" fill="#301e0b" stroke="none" /><path d="M 8.11,7.60 L 8.11,7.67 L 9.83,8.52 L 9.96,8.52 L 10.78,8.11 L 10.75,8.05 L 9.03,7.19 L 8.94,7.19 Z" fill="#301e0b" stroke="none" /><path d="M 25.29,7.16 L 25.32,7.22 L 26.97,8.05 L 27.10,8.05 L 27.93,7.63 L 27.90,7.57 L 26.24,6.74 L 26.12,6.74 Z" fill="#301e0b" stroke="none" /><path d="M 18.07,7.16 L 18.07,7.22 L 18.89,7.63 L 18.96,7.63 L 19.82,7.19 L 19.82,7.16 L 18.99,6.74 L 18.89,6.74 Z" fill="#301e0b" stroke="none" /><path d="M 22.58,5.79 L 22.58,5.85 L 23.41,6.27 L 23.51,6.27 L 24.33,5.85 L 24.33,5.79 L 23.51,5.38 L 23.41,5.38 Z" fill="#301e0b" stroke="none" /><path d="M 7.16,6.30 L 7.13,6.23 L 5.41,5.38 L 5.31,5.38 L 4.45,5.82 L 3.66,5.41 L 3.53,5.41 L 2.70,5.82 L 2.74,5.88 L 4.39,6.71 L 4.52,6.71 L 5.31,6.30 L 5.41,6.30 L 6.20,6.71 L 6.33,6.71 Z" fill="#301e0b" stroke="none" /><path d="M 19.88,5.34 L 19.88,5.41 L 21.60,6.27 L 21.69,6.27 L 22.52,5.85 L 22.52,5.79 L 20.80,4.93 L 20.71,4.93 Z" fill="#301e0b" stroke="none" /><path d="M 5.41,4.49 L 5.41,4.52 L 7.13,5.38 L 7.19,5.38 L 8.05,4.93 L 8.05,4.90 L 6.33,4.04 L 6.27,4.04 Z" fill="#301e0b" stroke="none" /><path d="M 8.97,4.45 L 8.97,4.49 L 9.86,4.93 L 10.78,4.49 L 10.78,4.45 L 9.89,4.01 Z" fill="#301e0b" stroke="none" /><path d="M 17.15,4.01 L 17.15,4.04 L 17.97,4.45 L 18.10,4.45 L 18.89,4.04 L 18.99,4.04 L 19.79,4.45 L 19.91,4.45 L 20.74,4.04 L 20.71,3.98 L 19.88,3.56 L 19.82,3.56 L 18.96,4.01 L 18.07,3.56 L 18.00,3.56 Z" fill="#301e0b" stroke="none" /><path d="M 7.22,3.56 L 7.25,3.63 L 8.02,4.01 L 8.11,4.01 L 8.94,3.59 L 8.94,3.53 L 8.17,3.15 L 8.05,3.15 Z" fill="#301e0b" stroke="none" /><path d="M 9.96,2.19 L 9.96,2.26 L 10.72,2.64 L 10.85,2.64 L 11.67,2.23 L 11.64,2.16 L 10.88,1.78 L 10.78,1.78 Z" fill="#301e0b" stroke="none" /><path d="M 11.74,1.30 L 11.74,1.34 L 14.35,2.64 L 14.47,2.64 L 15.27,2.23 L 15.36,2.23 L 17.11,3.12 L 18.04,2.67 L 18.04,2.64 L 16.25,1.75 L 16.19,1.75 L 15.30,2.19 L 12.66,0.86 Z" fill="#301e0b" stroke="none" /><path d="M 15.27,27.20 L 14.41,27.61 L 14.41,29.84 L 14.47,29.84 L 15.27,29.42 Z" fill="#22170c" stroke="none" /><path d="M 22.52,22.49 L 22.46,22.49 L 21.60,22.93 L 21.60,25.13 L 21.66,25.13 L 22.52,24.68 Z" fill="#22170c" stroke="none" /><path d="M 17.97,21.44 L 17.91,21.44 L 17.08,21.85 L 17.08,24.08 L 17.97,23.63 Z" fill="#22170c" stroke="none" /><path d="M 26.15,20.68 L 26.08,20.68 L 25.22,21.12 L 25.22,22.20 L 25.29,22.20 L 26.15,21.76 Z" fill="#22170c" stroke="none" /><path d="M 22.52,14.73 L 22.46,14.73 L 21.60,15.17 L 21.60,17.37 L 21.66,17.37 L 22.52,16.92 Z" fill="#22170c" stroke="none" /><path d="M 17.08,14.12 L 17.02,14.12 L 16.19,14.54 L 16.19,15.65 L 17.08,15.20 Z" fill="#22170c" stroke="none" /><path d="M 20.71,12.31 L 20.64,12.31 L 19.79,12.76 L 19.79,14.95 L 19.85,14.95 L 20.71,14.50 Z" fill="#22170c" stroke="none" /><path d="M 7.22,26.27 L 7.22,28.44 L 8.05,28.85 L 8.11,28.85 L 8.11,26.69 L 7.28,26.27 Z" fill="#26190c" stroke="none" /><path d="M 13.61,18.35 L 13.55,18.35 L 13.55,28.25 L 13.49,28.28 L 12.63,27.83 L 12.63,23.41 L 12.60,23.38 L 11.74,22.97 L 11.74,26.24 L 11.71,26.27 L 10.91,25.86 L 10.85,25.86 L 10.85,28.09 L 12.63,28.98 L 12.63,31.14 L 13.52,31.59 L 13.55,31.59 L 13.55,30.57 L 13.58,30.54 L 14.41,30.95 L 14.41,18.77 Z" fill="#26190c" stroke="none" /><path d="M 12.66,13.49 L 12.63,13.49 L 12.63,14.50 L 12.60,14.54 L 11.80,14.12 L 11.74,14.12 L 11.74,17.37 L 11.67,17.40 L 10.85,16.99 L 10.85,19.15 L 10.82,19.18 L 9.92,18.74 L 9.92,19.85 L 10.85,20.33 L 10.85,21.44 L 11.67,21.85 L 11.74,21.85 L 11.74,17.50 L 11.80,17.46 L 12.63,17.88 L 12.63,16.83 L 12.66,16.80 L 13.49,17.21 L 13.55,17.21 L 13.55,13.93 Z" fill="#26190c" stroke="none" /><path d="M 9.03,11.71 L 9.03,17.18 L 9.92,17.62 L 9.92,12.12 L 9.10,11.71 Z" fill="#26190c" stroke="none" /><path d="M 6.30,10.34 L 6.30,11.39 L 7.22,11.86 L 7.22,15.17 L 8.11,15.62 L 8.11,11.23 L 6.36,10.34 Z" fill="#26190c" stroke="none" /><path d="M 2.67,8.52 L 2.67,9.57 L 3.59,10.05 L 3.59,14.41 L 3.56,14.44 L 2.74,14.03 L 2.67,13.96 L 2.67,11.77 L 1.84,11.36 L 1.78,11.36 L 1.78,13.49 L 1.72,13.52 L 0.89,13.11 L 0.89,16.38 L 0.83,16.41 L 0.00,16.00 L 0.00,20.42 L 0.89,20.87 L 0.89,19.82 L 0.92,19.79 L 1.78,20.23 L 1.78,22.36 L 1.72,22.39 L 0.89,21.98 L 0.89,25.26 L 1.78,25.70 L 1.78,22.49 L 1.84,22.46 L 2.61,22.84 L 2.67,22.90 L 2.67,23.98 L 3.59,24.46 L 3.59,25.54 L 4.42,25.96 L 4.49,26.02 L 4.49,27.07 L 5.41,27.51 L 5.41,25.42 L 5.47,25.38 L 6.30,25.80 L 6.30,24.68 L 4.55,23.79 L 4.49,23.79 L 4.49,24.84 L 4.45,24.87 L 3.59,24.43 L 3.59,22.27 L 3.63,22.23 L 4.42,22.65 L 4.49,22.65 L 4.49,20.52 L 4.55,20.49 L 5.41,20.93 L 5.41,23.13 L 5.44,23.16 L 6.30,23.57 L 6.30,21.41 L 6.33,21.38 L 7.16,21.79 L 7.22,21.85 L 7.22,22.93 L 8.05,23.35 L 8.11,23.41 L 8.11,24.49 L 8.97,24.91 L 9.03,24.97 L 9.03,29.33 L 10.78,30.22 L 10.85,30.22 L 10.85,29.17 L 9.92,28.69 L 9.92,23.16 L 9.10,22.74 L 9.03,22.74 L 9.03,23.79 L 9.00,23.83 L 8.17,23.41 L 8.11,23.35 L 8.11,20.10 L 8.14,20.07 L 9.03,20.52 L 9.03,18.29 L 8.17,17.84 L 8.11,17.84 L 8.11,18.89 L 8.08,18.93 L 7.22,18.48 L 7.22,17.37 L 6.36,16.95 L 6.30,16.89 L 6.30,13.58 L 5.47,13.17 L 5.41,13.17 L 5.41,16.48 L 6.23,16.89 L 6.30,16.95 L 6.30,18.04 L 7.22,18.51 L 7.22,20.64 L 7.16,20.68 L 6.36,20.26 L 6.30,20.26 L 6.30,21.31 L 6.27,21.34 L 5.41,20.90 L 5.41,17.59 L 4.55,17.15 L 4.49,17.15 L 4.49,18.19 L 4.45,18.23 L 3.59,17.78 L 3.59,14.50 L 3.63,14.47 L 4.42,14.89 L 4.49,14.89 L 4.49,9.42 L 2.74,8.52 Z" fill="#26190c" stroke="none" /><path d="M 0.00,7.19 L 0.00,10.47 L 0.83,10.88 L 0.89,10.88 L 0.89,7.60 L 0.06,7.19 Z" fill="#26190c" stroke="none" /><path d="M 11.74,28.53 L 11.74,30.70 L 12.56,31.11 L 12.63,31.11 L 12.63,28.95 L 11.80,28.53 Z" fill="#31210f" stroke="none" /><path d="M 5.41,25.35 L 5.41,27.51 L 6.30,27.96 L 6.30,25.80 Z" fill="#31210f" stroke="none" /><path d="M 7.22,25.16 L 7.22,26.27 L 8.05,26.69 L 8.11,26.69 L 8.11,25.57 L 7.28,25.16 Z" fill="#31210f" stroke="none" /><path d="M 5.41,23.13 L 5.41,24.24 L 6.30,24.68 L 6.30,23.57 Z" fill="#31210f" stroke="none" /><path d="M 0.00,22.65 L 0.00,24.81 L 0.89,25.26 L 0.89,23.09 Z" fill="#31210f" stroke="none" /><path d="M 10.85,21.44 L 10.85,24.75 L 11.74,25.19 L 11.74,21.85 L 10.91,21.44 Z" fill="#31210f" stroke="none" /><path d="M 2.67,19.56 L 2.67,21.76 L 3.59,22.23 L 3.59,24.40 L 3.56,24.43 L 2.67,23.98 L 2.67,26.15 L 3.53,26.59 L 3.59,26.59 L 3.59,24.49 L 3.63,24.46 L 4.42,24.87 L 4.49,24.87 L 4.49,22.65 L 3.59,22.20 L 3.59,20.01 L 2.74,19.56 Z" fill="#31210f" stroke="none" /><path d="M 7.28,17.40 L 7.22,17.40 L 7.22,18.45 L 7.19,18.48 L 6.30,18.04 L 6.30,20.26 L 7.19,20.71 L 7.22,20.71 L 7.22,18.54 L 7.25,18.51 L 8.05,18.93 L 8.11,18.93 L 8.11,17.81 Z" fill="#31210f" stroke="none" /><path d="M 9.03,17.18 L 9.03,22.74 L 9.86,23.16 L 9.92,23.16 L 9.92,17.62 Z" fill="#31210f" stroke="none" /><path d="M 12.63,16.76 L 12.63,23.41 L 13.49,23.86 L 13.55,23.86 L 13.55,17.21 Z" fill="#31210f" stroke="none" /><path d="M 3.59,14.47 L 3.59,17.81 L 4.42,18.23 L 4.49,18.23 L 4.49,14.89 L 3.66,14.47 Z" fill="#31210f" stroke="none" /><path d="M 11.74,13.04 L 11.74,14.12 L 12.56,14.54 L 12.63,14.54 L 12.63,13.49 Z" fill="#31210f" stroke="none" /><path d="M 9.92,12.15 L 9.92,14.31 L 10.85,14.76 L 10.85,12.60 L 9.99,12.15 Z" fill="#31210f" stroke="none" /><path d="M 0.00,10.47 L 0.00,13.77 L 0.89,14.22 L 0.89,10.88 L 0.06,10.47 Z" fill="#31210f" stroke="none" /><path d="M 5.41,9.89 L 5.41,10.94 L 6.30,11.39 L 6.30,10.31 L 5.47,9.89 Z" fill="#31210f" stroke="none" /><path d="M 1.78,8.08 L 1.78,9.13 L 2.67,9.57 L 2.67,8.49 L 1.84,8.08 Z" fill="#31210f" stroke="none" /><path d="M 14.44,9.86 L 14.44,9.92 L 18.83,12.12 L 18.96,12.12 L 19.79,11.71 L 19.79,11.67 L 15.33,9.45 L 15.27,9.45 Z" fill="#3a2713" stroke="none" /><path d="M 17.15,9.42 L 17.15,9.48 L 20.64,11.23 L 20.74,11.23 L 22.49,10.34 L 22.49,10.31 L 21.66,9.89 L 20.77,10.34 L 20.71,10.34 L 18.07,9.00 L 17.97,9.00 Z" fill="#3a2713" stroke="none" /><path d="M 9.92,9.42 L 9.92,9.48 L 13.39,11.20 L 13.46,11.26 L 12.63,11.67 L 12.63,11.74 L 13.46,12.15 L 13.39,12.21 L 12.60,12.60 L 12.60,12.63 L 15.20,13.93 L 15.33,13.93 L 16.16,13.52 L 16.13,13.46 L 15.36,13.07 L 15.43,13.01 L 16.22,12.63 L 16.22,12.60 L 13.55,11.26 L 13.61,11.20 L 14.41,10.82 L 14.41,10.78 L 12.72,9.96 L 12.66,9.89 L 13.49,9.48 L 13.49,9.42 L 12.66,9.00 L 12.56,9.00 L 11.71,9.45 L 10.85,9.00 L 10.75,9.00 Z" fill="#3a2713" stroke="none" /><path d="M 0.89,6.74 L 0.89,6.78 L 1.62,7.13 L 1.69,7.19 L 0.92,7.57 L 0.89,7.63 L 10.82,12.60 L 11.67,12.18 L 11.64,12.12 L 3.66,8.14 L 3.59,8.08 L 4.45,7.63 L 8.05,9.45 L 8.11,9.45 L 8.94,9.03 L 8.97,8.97 L 6.33,7.67 L 6.30,7.63 L 6.33,7.60 L 7.13,7.22 L 7.16,7.16 L 5.38,6.27 L 3.59,7.16 L 3.50,7.16 L 1.81,6.30 L 1.75,6.30 Z" fill="#3a2713" stroke="none" /><path d="M 25.29,6.27 L 25.29,6.30 L 27.90,7.60 L 27.99,7.60 L 28.79,7.19 L 28.79,7.16 L 26.18,5.85 L 26.08,5.85 Z" fill="#3a2713" stroke="none" /><path d="M 3.59,5.38 L 3.59,5.41 L 4.42,5.82 L 4.49,5.82 L 5.38,5.38 L 9.86,7.63 L 9.92,7.63 L 10.75,7.22 L 10.75,7.16 L 9.92,6.74 L 9.99,6.68 L 10.75,6.30 L 10.82,6.30 L 13.42,7.60 L 13.46,7.63 L 13.39,7.70 L 12.60,8.08 L 12.60,8.11 L 14.38,9.00 L 14.44,9.00 L 15.30,8.56 L 15.30,8.52 L 14.47,8.11 L 14.50,8.05 L 15.27,7.67 L 15.36,7.67 L 16.16,8.08 L 16.29,8.08 L 17.08,7.67 L 17.18,7.67 L 19.82,9.00 L 20.74,8.56 L 20.74,8.52 L 18.07,7.19 L 18.00,7.19 L 17.15,7.63 L 16.25,7.19 L 16.19,7.19 L 15.30,7.63 L 13.58,6.78 L 13.55,6.74 L 13.61,6.68 L 14.41,6.30 L 14.41,6.27 L 13.61,5.88 L 13.55,5.82 L 14.38,5.41 L 14.38,5.34 L 12.66,4.49 L 12.53,4.49 L 11.71,4.90 L 11.74,4.96 L 13.46,5.82 L 13.39,5.88 L 12.63,6.27 L 12.56,6.27 L 11.71,5.82 L 10.82,6.27 L 10.75,6.27 L 9.89,5.82 L 9.00,6.27 L 8.94,6.27 L 5.41,4.49 Z" fill="#3a2713" stroke="none" /><path d="M 6.33,4.01 L 6.33,4.07 L 8.05,4.93 L 8.97,4.49 L 8.97,4.45 L 7.25,3.59 L 7.16,3.59 Z" fill="#3a2713" stroke="none" /><path d="M 9.03,2.67 L 9.03,2.70 L 10.75,3.56 L 9.89,4.01 L 9.89,4.04 L 10.72,4.45 L 10.85,4.45 L 12.56,3.59 L 12.56,3.53 L 11.74,3.12 L 11.80,3.05 L 12.56,2.67 L 12.63,2.67 L 14.35,3.53 L 14.38,3.56 L 14.35,3.59 L 13.55,3.98 L 13.52,4.04 L 15.20,4.87 L 15.27,4.93 L 14.44,5.34 L 14.44,5.41 L 17.11,6.74 L 18.04,6.30 L 18.04,6.27 L 17.24,5.88 L 17.18,5.82 L 18.00,5.41 L 18.00,5.34 L 14.44,3.56 L 15.30,3.12 L 17.08,4.01 L 17.18,4.01 L 18.04,3.56 L 18.89,4.01 L 18.99,4.01 L 19.85,3.56 L 20.71,4.01 L 20.64,4.07 L 19.85,4.45 L 19.85,4.49 L 22.52,5.82 L 21.63,6.27 L 18.99,4.93 L 18.89,4.93 L 18.07,5.34 L 18.07,5.41 L 20.68,6.71 L 20.64,6.78 L 19.85,7.16 L 19.88,7.22 L 24.27,9.42 L 24.37,9.42 L 26.12,8.52 L 26.12,8.49 L 25.29,8.08 L 24.40,8.52 L 24.33,8.52 L 20.83,6.78 L 20.80,6.74 L 20.83,6.68 L 21.60,6.30 L 21.69,6.30 L 23.44,7.19 L 24.37,6.74 L 24.37,6.71 L 22.58,5.82 L 23.41,5.41 L 23.44,5.34 L 20.87,4.07 L 20.80,4.01 L 21.57,3.63 L 21.60,3.56 L 18.04,1.78 L 17.94,1.78 L 17.15,2.19 L 17.15,2.23 L 17.94,2.61 L 17.97,2.67 L 17.18,3.09 L 17.08,3.09 L 15.43,2.26 L 15.36,2.19 L 16.19,1.78 L 16.19,1.72 L 13.58,0.41 L 13.52,0.41 L 12.69,0.83 L 12.66,0.89 L 15.24,2.16 L 15.27,2.19 L 15.20,2.26 L 14.44,2.64 L 14.38,2.64 L 13.49,2.19 L 12.63,2.64 L 12.56,2.64 L 11.67,2.19 L 10.82,2.64 L 10.75,2.64 L 9.96,2.23 L 9.89,2.23 Z" fill="#3a2713" stroke="none" /><path d="M 10.85,24.75 L 10.85,25.86 L 11.67,26.27 L 11.74,26.27 L 11.74,25.19 Z" fill="#362514" stroke="none" /><path d="M 7.22,22.93 L 7.22,25.16 L 8.05,25.57 L 8.11,25.57 L 8.11,23.38 Z" fill="#362514" stroke="none" /><path d="M 0.00,20.42 L 0.00,22.65 L 0.89,23.09 L 0.89,20.87 Z" fill="#362514" stroke="none" /><path d="M 2.67,17.34 L 2.67,19.56 L 3.59,20.01 L 3.59,17.78 Z" fill="#362514" stroke="none" /><path d="M 7.22,15.17 L 7.22,17.40 L 8.05,17.81 L 8.11,17.81 L 8.11,15.62 Z" fill="#362514" stroke="none" /><path d="M 5.41,10.94 L 5.41,13.17 L 6.23,13.58 L 6.30,13.58 L 6.30,11.39 Z" fill="#362514" stroke="none" /><path d="M 1.78,9.13 L 1.78,10.24 L 2.61,10.66 L 2.67,10.66 L 2.67,9.57 Z" fill="#362514" stroke="none" /><path d="M 15.33,13.04 L 15.36,13.11 L 16.13,13.49 L 16.22,13.49 L 17.05,13.07 L 17.05,13.01 L 16.29,12.63 L 16.16,12.63 Z" fill="#4c3217" stroke="none" /><path d="M 16.25,11.67 L 16.25,11.74 L 17.97,12.60 L 18.89,12.15 L 18.89,12.12 L 17.18,11.26 L 17.08,11.26 Z" fill="#4c3217" stroke="none" /><path d="M 21.66,9.92 L 22.52,10.34 L 23.41,9.89 L 23.41,9.86 L 22.58,9.45 L 22.52,9.45 L 21.69,9.86 Z" fill="#4c3217" stroke="none" /><path d="M 7.19,9.89 L 7.19,9.92 L 12.53,12.60 L 12.66,12.60 L 13.49,12.18 L 13.46,12.12 L 8.11,9.45 L 8.05,9.45 Z" fill="#4c3217" stroke="none" /><path d="M 25.29,8.11 L 26.15,8.52 L 27.04,8.08 L 27.04,8.05 L 26.21,7.63 L 26.15,7.63 L 25.32,8.05 Z" fill="#4c3217" stroke="none" /><path d="M 7.19,8.08 L 7.19,8.11 L 9.86,9.45 L 9.92,9.45 L 10.78,9.00 L 10.78,8.97 L 8.11,7.63 L 8.05,7.63 Z" fill="#4c3217" stroke="none" /><path d="M 9.92,7.60 L 9.92,7.67 L 14.38,9.89 L 14.44,9.89 L 15.27,9.48 L 15.27,9.42 L 10.82,7.19 L 10.75,7.19 Z" fill="#4c3217" stroke="none" /><path d="M 13.52,6.71 L 13.55,6.78 L 15.27,7.63 L 15.20,7.70 L 14.41,8.08 L 14.41,8.11 L 15.30,8.56 L 16.22,8.11 L 16.22,8.08 L 15.43,7.70 L 15.36,7.63 L 16.19,7.22 L 16.19,7.16 L 14.47,6.30 L 14.35,6.30 Z" fill="#4c3217" stroke="none" /><path d="M 1.81,6.27 L 1.81,6.33 L 3.53,7.19 L 4.45,6.74 L 4.45,6.71 L 2.74,5.85 L 2.64,5.85 Z" fill="#4c3217" stroke="none" /><path d="M 17.15,5.82 L 17.15,5.85 L 19.82,7.19 L 20.74,6.74 L 20.74,6.71 L 18.07,5.38 L 18.00,5.38 Z" fill="#4c3217" stroke="none" /><path d="M 22.58,4.90 L 22.62,4.96 L 25.22,6.27 L 25.32,6.27 L 26.12,5.85 L 26.12,5.82 L 23.44,4.49 Z" fill="#4c3217" stroke="none" /><path d="M 8.08,4.90 L 8.11,4.96 L 8.94,5.38 L 9.00,5.38 L 9.86,4.93 L 9.86,4.90 L 9.03,4.49 L 8.91,4.49 Z" fill="#4c3217" stroke="none" /><path d="M 10.78,4.45 L 10.78,4.49 L 11.67,4.93 L 12.60,4.49 L 12.60,4.45 L 11.71,4.01 Z" fill="#4c3217" stroke="none" /><path d="M 14.44,3.53 L 14.44,3.59 L 16.16,4.45 L 16.29,4.45 L 17.11,4.04 L 17.08,3.98 L 15.36,3.12 L 15.27,3.12 Z" fill="#4c3217" stroke="none" /><path d="M 8.11,3.12 L 8.11,3.15 L 9.83,4.01 L 9.92,4.01 L 10.75,3.59 L 10.75,3.53 L 9.03,2.67 Z" fill="#4c3217" stroke="none" /><path d="M 10.85,1.75 L 10.88,1.81 L 12.53,2.64 L 12.50,2.70 L 11.71,3.09 L 11.74,3.15 L 13.46,4.01 L 13.55,4.01 L 14.38,3.59 L 14.38,3.53 L 12.66,2.67 L 12.69,2.61 L 13.49,2.23 L 13.46,2.16 L 11.80,1.34 L 11.67,1.34 Z" fill="#4c3217" stroke="none" /><path d="M 13.58,0.38 L 13.58,0.45 L 15.30,1.30 L 16.16,0.89 L 16.13,0.83 L 14.47,0.00 L 14.35,0.00 Z" fill="#4c3217" stroke="none" /><path d="M 19.85,8.97 L 19.88,9.03 L 21.60,9.89 L 21.69,9.89 L 22.52,9.48 L 22.52,9.42 L 20.80,8.56 L 20.68,8.56 Z" fill="#54391f" stroke="none" /><path d="M 15.33,8.52 L 15.36,8.59 L 17.08,9.45 L 17.15,9.45 L 18.00,9.00 L 18.00,8.97 L 16.29,8.11 L 16.16,8.11 Z" fill="#54391f" stroke="none" /><path d="M 24.40,7.60 L 24.40,7.67 L 25.22,8.08 L 25.32,8.08 L 26.15,7.67 L 26.15,7.60 L 25.32,7.19 L 25.22,7.19 Z" fill="#54391f" stroke="none" /><path d="M 6.30,7.60 L 6.30,7.67 L 7.13,8.08 L 7.22,8.08 L 8.05,7.67 L 8.05,7.60 L 7.22,7.19 L 7.13,7.19 Z" fill="#54391f" stroke="none" /><path d="M 9.00,5.34 L 9.00,5.41 L 10.72,6.27 L 10.85,6.27 L 11.67,5.85 L 11.64,5.79 L 9.92,4.93 L 9.83,4.93 Z" fill="#54391f" stroke="none" /><path d="M 16.22,4.45 L 16.22,4.49 L 18.00,5.38 L 18.07,5.38 L 18.93,4.93 L 18.93,4.90 L 17.15,4.01 Z" fill="#54391f" stroke="none" /><path d="M 15.33,1.27 L 15.36,1.34 L 17.08,2.19 L 17.18,2.19 L 17.97,1.78 L 17.97,1.75 L 16.19,0.86 Z" fill="#54391f" stroke="none" /></svg>