<svg height="32" width="32" viewBox="0 0 32 32"><defs /><path d="M 22.47,23.04 L 16.00,26.21 L 16.00,30.18 L 22.47,27.01 Z" fill="#2e2e2e" stroke="none" /><path d="M 28.82,11.91 L 25.76,13.39 L 25.65,13.28 L 25.65,9.65 L 25.53,9.65 L 19.18,12.82 L 19.18,20.65 L 19.40,20.65 L 28.71,16.00 L 28.82,15.89 Z" fill="#2e2e2e" stroke="none" /><path d="M 32.00,6.47 L 25.65,9.65 L 25.65,13.50 L 28.71,12.03 L 28.82,12.14 L 28.82,15.77 L 28.60,16.00 L 19.29,20.65 L 19.18,20.54 L 19.18,12.94 L 18.95,12.94 L 16.00,14.41 L 16.00,18.27 L 12.82,19.86 L 12.82,31.77 L 16.00,30.18 L 16.00,26.33 L 16.11,26.21 L 22.35,23.15 L 22.47,23.26 L 22.47,26.89 L 22.70,26.89 L 25.65,25.42 L 25.65,21.56 L 25.87,21.33 L 32.00,18.27 Z" fill="#323232" stroke="none" /><path d="M 32.00,18.27 L 25.65,21.45 L 25.65,25.30 L 25.87,25.30 L 32.00,22.24 Z" fill="#383838" stroke="none" /><path d="M 16.00,14.52 L 15.77,14.52 L 12.82,16.00 L 12.82,19.86 L 13.05,19.86 L 16.00,18.38 Z" fill="#383838" stroke="none" /><path d="M 0.00,21.45 L 0.00,25.42 L 6.13,28.48 L 6.35,28.48 L 6.35,24.62 Z" fill="#4a4a4a" stroke="none" /><path d="M 3.18,11.23 L 3.18,19.18 L 12.82,23.94 L 12.82,19.97 L 9.87,18.50 L 9.65,18.27 L 9.65,14.41 Z" fill="#4a4a4a" stroke="none" /><path d="M 9.65,14.52 L 9.65,18.38 L 12.82,19.97 L 12.82,16.00 L 9.87,14.52 Z" fill="#515151" stroke="none" /><path d="M 0.00,9.65 L 0.00,21.45 L 6.13,24.51 L 6.35,24.74 L 6.35,28.60 L 9.65,30.18 L 9.65,26.44 L 9.76,26.33 L 12.60,27.80 L 12.82,27.80 L 12.82,23.94 L 3.18,19.06 L 3.18,11.23 Z" fill="#515151" stroke="none" /><path d="M 9.65,26.33 L 9.65,30.18 L 12.82,31.77 L 12.82,27.80 L 9.87,26.33 Z" fill="#5c5c5c" stroke="none" /><path d="M 19.29,3.18 L 19.29,3.29 L 22.24,4.77 L 22.58,4.77 L 25.53,3.29 L 25.42,3.06 L 22.47,1.59 Z" fill="#676767" stroke="none" /><path d="M 9.53,7.94 L 6.58,6.47 L 6.13,6.47 L 0.00,9.53 L 0.00,9.65 L 6.24,12.82 L 6.47,12.82 L 9.42,11.35 L 9.42,11.12 L 6.47,9.65 L 9.42,8.17 Z" fill="#737373" stroke="none" /><path d="M 12.82,3.18 L 12.82,3.29 L 15.77,4.77 L 15.66,4.99 L 12.82,6.35 L 12.82,6.47 L 15.77,7.94 L 16.23,7.94 L 22.35,4.88 L 22.24,4.65 L 16.11,1.59 L 15.89,1.59 Z" fill="#737373" stroke="none" /><path d="M 12.60,6.47 L 6.47,9.53 L 6.47,9.76 L 9.42,11.23 L 6.47,12.71 L 6.47,12.94 L 12.60,16.00 L 13.05,16.00 L 19.18,12.94 L 19.18,12.82 L 16.11,11.23 L 15.89,11.23 L 12.82,12.82 L 9.76,11.35 L 9.65,11.23 L 9.76,11.12 L 16.00,8.06 L 16.00,7.94 L 13.05,6.47 Z" fill="#7d7d7d" stroke="none" /><path d="M 19.18,6.35 L 19.18,6.47 L 22.35,8.06 L 25.53,6.47 L 25.76,6.47 L 28.94,8.06 L 32.00,6.47 L 32.00,6.35 L 25.65,3.18 Z" fill="#7d7d7d" stroke="none" /><path d="M 28.82,7.94 L 25.87,6.47 L 25.42,6.47 L 22.58,7.94 L 22.24,7.94 L 19.40,6.47 L 18.95,6.47 L 9.65,11.12 L 9.65,11.35 L 12.60,12.82 L 12.94,12.82 L 16.00,11.23 L 19.06,12.82 L 19.40,12.82 L 28.71,8.17 Z" fill="#8d8d8d" stroke="none" /><path d="M 16.00,4.77 L 12.71,3.18 L 6.35,6.35 L 6.35,6.47 L 9.65,8.06 L 16.00,4.88 Z" fill="#8d8d8d" stroke="none" /><path d="M 16.11,1.48 L 16.11,1.70 L 19.06,3.18 L 19.40,3.18 L 22.35,1.70 L 22.24,1.48 L 19.29,0.00 L 19.06,0.00 Z" fill="#8d8d8d" stroke="none" /></svg>