<svg height="32" width="32" viewBox="0 0 32 32"><defs /><path d="M 15.27,24.97 L 15.20,24.97 L 14.41,25.38 L 14.41,26.50 L 15.27,26.08 Z" fill="#292929" stroke="none" /><path d="M 21.60,21.79 L 19.79,22.68 L 19.79,23.79 L 19.85,23.79 L 21.60,22.90 Z" fill="#292929" stroke="none" /><path d="M 26.15,21.76 L 26.08,21.76 L 24.33,22.65 L 24.33,23.73 L 24.40,23.73 L 26.15,22.84 Z" fill="#292929" stroke="none" /><path d="M 27.93,20.87 L 27.86,20.87 L 27.04,21.28 L 27.04,22.39 L 27.93,21.95 Z" fill="#292929" stroke="none" /><path d="M 10.78,16.73 L 8.97,17.62 L 8.97,18.70 L 9.03,18.70 L 10.78,17.81 Z" fill="#292929" stroke="none" /><path d="M 12.60,15.84 L 12.53,15.84 L 11.71,16.25 L 11.71,17.34 L 11.77,17.34 L 12.60,16.92 Z" fill="#292929" stroke="none" /><path d="M 10.78,11.20 L 10.72,11.20 L 8.97,12.09 L 8.97,13.20 L 10.78,12.31 Z" fill="#292929" stroke="none" /><path d="M 18.04,10.91 L 17.97,10.91 L 17.11,11.36 L 17.11,12.44 L 17.18,12.44 L 18.04,11.99 Z" fill="#292929" stroke="none" /><path d="M 19.85,9.99 L 18.93,10.43 L 18.93,11.55 L 19.85,11.10 Z" fill="#292929" stroke="none" /><path d="M 14.41,9.38 L 14.35,9.38 L 13.52,9.80 L 13.52,10.91 L 13.58,10.91 L 14.41,10.50 Z" fill="#292929" stroke="none" /><path d="M 16.22,6.30 L 16.16,6.30 L 15.30,6.74 L 15.30,7.83 L 16.22,7.38 Z" fill="#292929" stroke="none" /><path d="M 18.93,6.01 L 17.11,6.90 L 17.11,8.02 L 18.93,7.13 Z" fill="#292929" stroke="none" /><path d="M 21.60,27.36 L 21.53,27.36 L 19.79,28.25 L 19.79,29.33 L 21.60,28.44 Z" fill="#2e2e2e" stroke="none" /><path d="M 18.89,26.47 L 18.00,26.91 L 17.97,26.88 L 17.97,25.83 L 17.94,25.83 L 15.27,27.17 L 15.27,28.28 L 17.05,27.39 L 17.08,27.42 L 17.08,28.47 L 15.27,29.39 L 15.27,30.50 L 17.08,29.61 L 17.08,28.50 L 18.89,27.58 Z" fill="#2e2e2e" stroke="none" /><path d="M 27.04,24.62 L 26.15,25.07 L 26.15,26.15 L 27.04,25.70 Z" fill="#2e2e2e" stroke="none" /><path d="M 17.08,24.05 L 16.19,24.49 L 16.19,25.61 L 17.08,25.16 Z" fill="#2e2e2e" stroke="none" /><path d="M 23.41,24.21 L 22.55,24.62 L 22.52,24.59 L 22.52,23.57 L 22.46,23.57 L 20.74,24.43 L 20.71,24.46 L 20.71,26.66 L 20.77,26.66 L 23.38,25.35 L 23.41,25.32 Z" fill="#2e2e2e" stroke="none" /><path d="M 19.79,22.71 L 19.72,22.71 L 17.97,23.60 L 17.97,24.72 L 19.79,23.83 Z" fill="#2e2e2e" stroke="none" /><path d="M 22.52,21.34 L 22.46,21.34 L 21.60,21.79 L 21.60,22.90 L 22.52,22.46 Z" fill="#2e2e2e" stroke="none" /><path d="M 28.82,20.42 L 28.76,20.42 L 27.93,20.83 L 27.93,21.92 L 27.86,21.98 L 27.10,22.36 L 27.04,22.33 L 27.04,21.31 L 26.97,21.31 L 26.15,21.73 L 26.15,22.81 L 26.08,22.87 L 25.22,23.28 L 25.22,24.40 L 25.29,24.40 L 27.93,23.06 L 27.93,21.98 L 27.99,21.92 L 28.82,21.50 Z" fill="#2e2e2e" stroke="none" /><path d="M 24.33,20.42 L 23.41,20.87 L 23.41,21.98 L 23.48,21.98 L 24.33,21.53 Z" fill="#2e2e2e" stroke="none" /><path d="M 28.82,18.19 L 28.76,18.19 L 26.15,19.50 L 26.15,20.61 L 26.21,20.61 L 28.82,19.31 Z" fill="#2e2e2e" stroke="none" /><path d="M 8.08,16.99 L 8.02,16.99 L 7.22,17.40 L 7.22,19.59 L 8.97,18.74 L 8.97,17.65 L 8.91,17.65 L 8.11,18.07 L 8.08,18.04 Z" fill="#2e2e2e" stroke="none" /><path d="M 11.71,16.29 L 11.64,16.29 L 10.78,16.73 L 10.78,17.81 L 11.71,17.37 Z" fill="#2e2e2e" stroke="none" /><path d="M 28.82,16.00 L 27.93,16.45 L 27.93,17.53 L 28.82,17.08 Z" fill="#2e2e2e" stroke="none" /><path d="M 8.08,14.76 L 7.22,15.17 L 7.22,16.29 L 7.28,16.29 L 8.08,15.87 Z" fill="#2e2e2e" stroke="none" /><path d="M 13.52,14.25 L 12.60,14.70 L 12.60,16.89 L 12.66,16.89 L 14.41,16.00 L 14.41,14.92 L 13.55,15.33 L 13.52,15.30 Z" fill="#2e2e2e" stroke="none" /><path d="M 12.60,12.50 L 9.89,13.84 L 9.89,14.95 L 9.96,14.95 L 12.56,13.65 L 12.60,13.61 Z" fill="#2e2e2e" stroke="none" /><path d="M 14.41,11.61 L 14.35,11.61 L 13.52,12.02 L 13.52,13.14 L 13.58,13.14 L 14.41,12.72 Z" fill="#2e2e2e" stroke="none" /><path d="M 9.89,10.53 L 8.97,10.97 L 8.97,12.06 L 8.91,12.12 L 8.08,12.53 L 8.08,13.65 L 8.97,13.20 L 8.97,12.12 L 9.03,12.06 L 9.89,11.64 Z" fill="#2e2e2e" stroke="none" /><path d="M 17.11,8.02 L 14.41,9.35 L 14.41,10.47 L 14.47,10.47 L 17.08,9.16 L 17.11,9.13 Z" fill="#2e2e2e" stroke="none" /><path d="M 13.52,7.63 L 11.71,8.52 L 11.71,9.61 L 10.78,10.08 L 10.78,12.28 L 10.85,12.28 L 13.52,10.94 L 13.52,9.83 L 13.46,9.83 L 11.77,10.69 L 11.71,10.66 L 11.71,9.64 L 13.52,8.72 Z" fill="#2e2e2e" stroke="none" /><path d="M 21.60,6.90 L 21.53,6.90 L 18.93,8.21 L 18.93,10.43 L 18.04,10.88 L 18.04,11.96 L 17.97,12.02 L 17.15,12.44 L 17.11,12.41 L 17.11,11.36 L 17.08,11.36 L 15.30,12.25 L 15.30,14.47 L 16.19,14.03 L 16.22,14.06 L 16.22,15.08 L 16.29,15.08 L 18.93,13.74 L 18.93,12.66 L 18.07,13.07 L 18.04,13.04 L 18.04,12.02 L 18.10,11.96 L 18.93,11.55 L 18.93,10.47 L 18.96,10.43 L 19.82,10.02 L 19.85,10.05 L 19.85,11.07 L 19.91,11.07 L 20.74,10.66 L 20.74,9.54 L 19.88,9.96 L 19.85,9.92 L 19.85,8.91 L 19.91,8.84 L 21.60,8.02 Z" fill="#2e2e2e" stroke="none" /><path d="M 15.30,6.74 L 14.41,7.19 L 14.41,8.27 L 15.30,7.83 Z" fill="#2e2e2e" stroke="none" /><path d="M 19.85,5.57 L 19.79,5.57 L 18.93,6.01 L 18.93,7.09 L 18.99,7.09 L 19.85,6.65 Z" fill="#2e2e2e" stroke="none" /><path d="M 18.04,5.38 L 16.22,6.27 L 16.22,7.35 L 16.29,7.35 L 18.04,6.46 Z" fill="#2e2e2e" stroke="none" /><path d="M 21.60,4.68 L 20.74,5.09 L 20.74,6.20 L 21.60,5.79 Z" fill="#2e2e2e" stroke="none" /><path d="M 28.82,23.73 L 27.04,24.62 L 27.04,25.70 L 28.82,24.81 Z" fill="#323232" stroke="none" /><path d="M 27.93,19.75 L 27.86,19.75 L 27.04,20.17 L 27.04,21.28 L 27.10,21.28 L 27.93,20.87 Z" fill="#323232" stroke="none" /><path d="M 28.82,17.08 L 27.96,17.50 L 27.93,17.46 L 27.93,16.45 L 27.90,16.45 L 23.44,18.67 L 23.41,18.70 L 23.41,19.75 L 23.35,19.82 L 22.52,20.23 L 22.52,22.43 L 20.71,23.35 L 20.71,24.43 L 20.64,24.49 L 19.79,24.91 L 19.79,25.99 L 19.72,26.05 L 18.96,26.43 L 18.89,26.40 L 18.89,24.27 L 18.83,24.27 L 18.00,24.68 L 17.97,24.65 L 17.97,23.63 L 18.04,23.57 L 19.79,22.71 L 19.79,21.63 L 19.85,21.57 L 20.71,21.15 L 20.71,20.07 L 20.64,20.07 L 18.93,20.93 L 18.89,20.96 L 18.89,22.01 L 18.83,22.08 L 18.00,22.49 L 17.97,22.46 L 17.97,21.44 L 17.91,21.44 L 17.08,21.85 L 17.08,25.13 L 17.02,25.19 L 16.25,25.57 L 16.19,25.54 L 16.19,23.41 L 16.13,23.41 L 14.41,24.27 L 14.41,25.38 L 15.24,24.97 L 15.27,25.00 L 15.27,26.05 L 14.41,26.50 L 14.41,28.69 L 14.47,28.69 L 15.27,28.28 L 15.27,27.20 L 15.30,27.17 L 17.91,25.86 L 17.97,25.89 L 17.97,26.91 L 18.04,26.91 L 18.83,26.50 L 18.89,26.53 L 18.89,27.55 L 18.83,27.61 L 17.11,28.47 L 17.08,28.44 L 17.08,27.39 L 17.02,27.39 L 16.19,27.80 L 16.19,28.91 L 16.25,28.91 L 17.05,28.50 L 17.08,28.53 L 17.08,29.58 L 17.05,29.61 L 15.33,30.47 L 15.27,30.44 L 15.27,29.39 L 14.41,29.81 L 14.41,32.00 L 14.47,32.00 L 19.75,29.36 L 19.79,29.33 L 19.79,28.28 L 19.85,28.21 L 21.57,27.36 L 21.60,27.39 L 21.60,28.41 L 21.66,28.41 L 22.49,27.99 L 22.52,27.96 L 22.52,26.91 L 22.58,26.85 L 24.30,25.99 L 24.33,26.02 L 24.33,27.04 L 24.40,27.04 L 26.15,26.15 L 26.15,25.07 L 25.26,25.51 L 25.22,25.48 L 25.22,23.32 L 25.16,23.32 L 24.37,23.73 L 24.33,23.70 L 24.33,22.68 L 24.40,22.62 L 25.22,22.20 L 25.22,21.12 L 25.29,21.06 L 26.15,20.64 L 26.15,19.53 L 26.08,19.53 L 24.37,20.39 L 24.33,20.36 L 24.33,19.34 L 27.86,17.56 L 27.93,17.59 L 27.93,18.61 L 27.99,18.61 L 28.82,18.19 Z" fill="#323232" stroke="none" /><path d="M 16.22,14.03 L 16.16,14.03 L 14.41,14.92 L 14.41,16.00 L 16.22,15.11 Z" fill="#323232" stroke="none" /><path d="M 11.71,11.83 L 10.78,12.28 L 10.78,13.39 L 10.85,13.39 L 11.71,12.95 Z" fill="#323232" stroke="none" /><path d="M 15.30,11.17 L 15.24,11.17 L 14.44,11.58 L 14.41,11.55 L 14.41,10.50 L 14.35,10.50 L 12.63,11.36 L 12.60,11.39 L 12.60,13.58 L 12.53,13.65 L 9.92,14.95 L 9.89,14.92 L 9.89,13.87 L 9.83,13.87 L 9.00,14.28 L 8.97,14.25 L 8.97,13.20 L 8.14,13.61 L 8.08,13.58 L 8.08,12.56 L 8.14,12.50 L 8.97,12.09 L 8.97,11.01 L 8.91,11.01 L 7.25,11.83 L 7.22,11.86 L 7.22,15.17 L 7.28,15.17 L 8.05,14.79 L 8.08,14.82 L 8.08,15.84 L 8.02,15.90 L 7.22,16.29 L 7.22,17.40 L 8.05,16.99 L 8.08,17.02 L 8.08,18.07 L 8.14,18.07 L 9.89,17.18 L 9.89,16.10 L 9.96,16.03 L 15.27,13.39 L 15.30,13.36 Z" fill="#323232" stroke="none" /><path d="M 21.60,10.21 L 18.07,11.96 L 18.04,11.99 L 18.04,13.11 L 18.89,12.69 L 18.93,12.72 L 18.93,13.74 L 18.96,13.74 L 21.57,12.44 L 21.60,12.41 Z" fill="#323232" stroke="none" /><path d="M 21.60,8.02 L 21.53,8.02 L 19.85,8.87 L 19.85,9.99 L 21.60,9.13 Z" fill="#323232" stroke="none" /><path d="M 21.60,3.59 L 18.07,5.34 L 18.04,5.38 L 18.04,6.46 L 19.82,5.57 L 19.85,5.60 L 19.85,6.62 L 19.79,6.68 L 17.18,7.98 L 17.11,7.95 L 17.11,6.93 L 17.05,6.93 L 14.47,8.24 L 14.41,8.21 L 14.41,7.19 L 14.38,7.19 L 13.52,7.63 L 13.52,8.68 L 13.46,8.75 L 11.74,9.61 L 11.71,9.57 L 11.71,8.56 L 11.64,8.56 L 10.82,8.97 L 10.78,9.00 L 10.78,10.05 L 10.72,10.12 L 9.89,10.53 L 9.89,11.61 L 9.96,11.61 L 10.78,11.20 L 10.78,10.12 L 10.85,10.05 L 11.67,9.64 L 11.71,9.67 L 11.71,10.72 L 11.74,10.72 L 17.05,8.05 L 17.11,8.08 L 17.11,9.10 L 17.05,9.16 L 16.22,9.57 L 16.22,10.69 L 18.93,9.35 L 18.93,8.24 L 18.96,8.21 L 21.60,6.90 L 21.60,5.79 L 21.53,5.79 L 20.80,6.17 L 20.74,6.14 L 20.74,5.12 L 21.60,4.68 Z" fill="#323232" stroke="none" /><path d="M 16.19,27.83 L 16.13,27.83 L 14.41,28.69 L 14.41,29.81 L 14.47,29.81 L 16.19,28.95 Z" fill="#383838" stroke="none" /><path d="M 24.33,25.99 L 24.27,25.99 L 22.52,26.88 L 22.52,27.96 L 24.33,27.07 Z" fill="#383838" stroke="none" /><path d="M 20.71,23.35 L 18.89,24.24 L 18.89,26.47 L 19.79,26.02 L 19.79,24.94 L 20.71,24.46 Z" fill="#383838" stroke="none" /><path d="M 17.08,21.88 L 17.02,21.88 L 14.41,23.19 L 14.41,24.27 L 14.47,24.27 L 16.16,23.41 L 16.19,23.44 L 16.19,24.49 L 17.05,24.08 L 17.08,24.05 Z" fill="#383838" stroke="none" /><path d="M 28.82,21.50 L 27.93,21.95 L 27.93,23.03 L 27.86,23.09 L 25.22,24.40 L 25.22,25.51 L 25.29,25.51 L 28.82,23.73 Z" fill="#383838" stroke="none" /><path d="M 18.89,20.96 L 17.97,21.41 L 17.97,22.49 L 18.04,22.49 L 18.89,22.04 Z" fill="#383838" stroke="none" /><path d="M 27.04,20.20 L 26.97,20.20 L 25.22,21.09 L 25.22,22.20 L 27.04,21.31 Z" fill="#383838" stroke="none" /><path d="M 28.82,19.31 L 28.76,19.31 L 27.93,19.72 L 27.93,20.83 L 27.99,20.83 L 28.82,20.42 Z" fill="#383838" stroke="none" /><path d="M 23.41,18.70 L 20.71,20.04 L 20.71,21.12 L 19.79,21.60 L 19.79,22.68 L 19.85,22.68 L 22.52,21.34 L 22.52,20.26 L 22.58,20.20 L 23.41,19.79 Z" fill="#383838" stroke="none" /><path d="M 27.93,17.53 L 24.33,19.31 L 24.33,20.42 L 27.93,18.64 Z" fill="#383838" stroke="none" /><path d="M 8.97,15.43 L 8.08,15.87 L 8.08,16.95 L 8.14,16.95 L 8.97,16.54 Z" fill="#383838" stroke="none" /><path d="M 12.60,14.73 L 12.53,14.73 L 9.92,16.03 L 9.89,16.06 L 9.89,17.18 L 12.60,15.84 Z" fill="#383838" stroke="none" /><path d="M 15.30,13.36 L 13.52,14.25 L 13.52,15.36 L 15.30,14.47 Z" fill="#383838" stroke="none" /><path d="M 10.78,12.31 L 10.72,12.31 L 8.97,13.20 L 8.97,14.31 L 10.78,13.42 Z" fill="#383838" stroke="none" /><path d="M 12.60,11.39 L 11.71,11.83 L 11.71,12.95 L 12.60,12.50 Z" fill="#383838" stroke="none" /><path d="M 18.93,9.35 L 18.86,9.35 L 16.29,10.66 L 16.22,10.62 L 16.22,9.57 L 16.19,9.57 L 14.41,10.47 L 14.41,11.58 L 14.47,11.58 L 15.27,11.17 L 15.30,11.20 L 15.30,12.25 L 15.36,12.25 L 18.93,10.47 Z" fill="#383838" stroke="none" /><path d="M 21.60,9.13 L 21.53,9.13 L 20.74,9.54 L 20.74,10.62 L 20.80,10.62 L 21.60,10.21 Z" fill="#383838" stroke="none" /><path d="M 10.78,9.00 L 7.25,10.75 L 7.22,10.78 L 7.22,11.86 L 10.75,10.12 L 10.78,10.08 Z" fill="#383838" stroke="none" /><path d="M 12.63,26.72 L 12.63,27.83 L 13.55,28.28 L 13.55,27.17 Z" fill="#434343" stroke="none" /><path d="M 9.92,25.38 L 9.92,26.47 L 11.67,27.36 L 11.74,27.36 L 11.74,26.27 L 9.99,25.38 Z" fill="#434343" stroke="none" /><path d="M 5.41,20.90 L 5.41,22.01 L 7.22,22.90 L 7.22,21.79 L 5.47,20.90 Z" fill="#434343" stroke="none" /><path d="M 0.00,18.19 L 0.00,19.31 L 0.83,19.72 L 0.89,19.72 L 0.89,18.61 L 0.06,18.19 Z" fill="#434343" stroke="none" /><path d="M 4.52,17.18 L 4.52,18.26 L 5.41,18.70 L 5.41,17.59 L 4.58,17.18 Z" fill="#434343" stroke="none" /><path d="M 1.81,15.81 L 1.81,16.92 L 3.63,17.81 L 3.63,16.70 Z" fill="#434343" stroke="none" /><path d="M 6.33,12.53 L 6.33,13.65 L 7.22,14.09 L 7.22,12.98 Z" fill="#434343" stroke="none" /><path d="M 1.81,10.27 L 1.81,11.39 L 3.56,12.28 L 3.63,12.28 L 3.63,11.17 Z" fill="#434343" stroke="none" /><path d="M 11.74,29.61 L 11.74,30.70 L 12.56,31.11 L 12.63,31.11 L 12.63,30.03 L 11.80,29.61 Z" fill="#4a4a4a" stroke="none" /><path d="M 5.41,26.43 L 5.41,27.51 L 7.16,28.41 L 7.22,28.41 L 7.22,27.32 Z" fill="#4a4a4a" stroke="none" /><path d="M 10.85,26.94 L 10.85,28.06 L 13.52,29.39 L 13.55,29.39 L 13.55,28.34 L 13.58,28.31 L 14.35,28.69 L 14.41,28.69 L 14.41,27.61 L 14.38,27.58 L 13.61,27.20 L 13.55,27.20 L 13.55,28.21 L 13.49,28.25 L 12.63,27.80 L 12.63,26.72 L 11.77,26.27 L 11.74,26.27 L 11.74,27.32 L 11.71,27.36 L 10.91,26.94 Z" fill="#4a4a4a" stroke="none" /><path d="M 11.74,24.05 L 11.74,25.16 L 11.77,25.19 L 14.41,26.50 L 14.41,25.38 L 14.38,25.35 Z" fill="#4a4a4a" stroke="none" /><path d="M 6.30,23.57 L 6.30,25.77 L 9.03,27.13 L 9.03,26.02 L 8.11,25.54 L 8.11,24.46 L 6.36,23.57 Z" fill="#4a4a4a" stroke="none" /><path d="M 13.55,22.78 L 13.55,23.86 L 14.35,24.27 L 14.41,24.27 L 14.41,23.19 Z" fill="#4a4a4a" stroke="none" /><path d="M 9.03,22.71 L 9.03,23.83 L 9.86,24.24 L 9.92,24.24 L 9.92,23.13 L 9.10,22.71 Z" fill="#4a4a4a" stroke="none" /><path d="M 7.22,21.79 L 7.22,22.90 L 8.11,23.35 L 8.11,22.23 Z" fill="#4a4a4a" stroke="none" /><path d="M 0.89,20.87 L 0.89,21.95 L 2.61,22.81 L 2.67,22.87 L 2.67,23.89 L 2.64,23.92 L 0.89,23.06 L 0.89,24.17 L 2.64,25.07 L 2.67,25.07 L 2.67,24.02 L 2.70,23.98 L 4.42,24.84 L 4.49,24.84 L 4.49,23.73 L 3.59,23.28 L 3.59,22.20 L 0.95,20.87 Z" fill="#4a4a4a" stroke="none" /><path d="M 3.59,19.98 L 3.59,21.09 L 5.34,21.98 L 5.41,21.98 L 5.41,20.87 Z" fill="#4a4a4a" stroke="none" /><path d="M 1.78,19.09 L 1.78,20.20 L 2.61,20.61 L 2.67,20.61 L 2.67,19.50 L 1.84,19.09 Z" fill="#4a4a4a" stroke="none" /><path d="M 3.63,16.73 L 3.63,17.81 L 3.79,17.91 L 3.85,17.91 L 3.91,17.97 L 4.10,18.07 L 4.17,18.07 L 4.23,18.13 L 4.42,18.23 L 4.52,18.23 L 4.52,17.15 L 3.69,16.73 Z" fill="#4a4a4a" stroke="none" /><path d="M 5.41,16.51 L 5.41,18.70 L 5.44,18.70 L 5.50,18.77 L 5.57,18.77 L 5.69,18.86 L 5.76,18.86 L 5.82,18.93 L 5.88,18.93 L 6.01,19.02 L 6.08,19.02 L 6.14,19.09 L 6.20,19.09 L 6.33,19.18 L 6.39,19.18 L 6.46,19.24 L 6.52,19.24 L 6.65,19.34 L 6.71,19.34 L 6.78,19.40 L 6.84,19.40 L 6.97,19.50 L 7.03,19.50 L 7.09,19.56 L 7.22,19.59 L 7.22,18.51 L 6.39,18.10 L 6.33,18.04 L 6.33,16.95 Z" fill="#4a4a4a" stroke="none" /><path d="M 6.33,14.76 L 6.33,15.87 L 7.16,16.29 L 7.22,16.29 L 7.22,15.17 L 6.39,14.76 Z" fill="#4a4a4a" stroke="none" /><path d="M 0.00,13.81 L 0.00,16.00 L 1.75,16.89 L 1.81,16.89 L 1.81,15.81 L 0.89,15.33 L 0.89,14.25 Z" fill="#4a4a4a" stroke="none" /><path d="M 2.70,12.95 L 2.70,14.06 L 5.41,15.40 L 5.41,14.28 L 5.38,14.25 L 2.77,12.95 Z" fill="#4a4a4a" stroke="none" /><path d="M 0.00,11.58 L 0.00,12.69 L 0.89,13.14 L 0.89,12.02 Z" fill="#4a4a4a" stroke="none" /><path d="M 4.52,9.45 L 4.52,10.47 L 4.49,10.50 L 3.69,10.08 L 3.63,10.08 L 3.63,12.31 L 6.33,13.65 L 6.33,12.53 L 4.52,11.61 L 4.52,10.56 L 4.55,10.53 L 6.33,11.42 L 6.33,10.34 L 4.58,9.45 Z" fill="#4a4a4a" stroke="none" /><path d="M 1.84,9.16 L 1.81,9.16 L 1.81,10.21 L 1.78,10.24 L 0.95,9.83 L 0.89,9.83 L 0.89,10.94 L 1.78,11.39 L 1.81,11.39 L 1.81,10.34 L 1.84,10.31 L 2.70,10.72 L 2.70,9.61 Z" fill="#4a4a4a" stroke="none" /><path d="M 12.63,30.06 L 12.63,31.14 L 14.35,32.00 L 14.41,32.00 L 14.41,30.92 L 12.69,30.06 Z" fill="#515151" stroke="none" /><path d="M 12.63,25.61 L 12.63,26.72 L 13.49,27.17 L 13.55,27.17 L 13.55,26.05 Z" fill="#515151" stroke="none" /><path d="M 0.00,17.08 L 0.00,18.19 L 0.89,18.64 L 0.89,19.69 L 0.86,19.72 L 0.06,19.31 L 0.00,19.31 L 0.00,21.50 L 0.89,21.95 L 0.89,20.90 L 0.92,20.87 L 3.53,22.17 L 3.59,22.23 L 3.59,23.32 L 4.49,23.76 L 4.49,24.81 L 4.45,24.84 L 2.74,23.98 L 2.67,23.92 L 2.67,22.84 L 1.78,22.39 L 1.78,23.51 L 2.61,23.92 L 2.67,23.98 L 2.67,25.00 L 2.61,25.03 L 0.95,24.21 L 0.89,24.14 L 0.89,23.06 L 0.00,22.62 L 0.00,24.81 L 5.38,27.51 L 5.41,27.51 L 5.41,26.50 L 5.47,26.47 L 7.22,27.36 L 7.22,28.44 L 8.05,28.85 L 8.11,28.85 L 8.11,27.83 L 8.14,27.80 L 9.86,28.66 L 9.92,28.72 L 9.92,29.77 L 9.96,29.81 L 11.67,30.66 L 11.74,30.66 L 11.74,29.58 L 10.85,29.14 L 10.85,26.91 L 9.99,26.50 L 9.92,26.43 L 9.92,25.42 L 9.96,25.38 L 10.85,25.83 L 10.85,24.78 L 10.88,24.75 L 11.74,25.16 L 11.74,24.05 L 9.92,23.13 L 9.92,22.11 L 9.99,22.08 L 13.49,23.83 L 13.55,23.89 L 13.55,24.97 L 14.38,25.38 L 14.41,25.38 L 14.41,24.27 L 13.61,23.89 L 13.55,23.83 L 13.55,22.78 L 9.03,20.52 L 9.03,21.53 L 9.00,21.57 L 8.17,21.15 L 8.11,21.15 L 8.11,23.28 L 8.08,23.32 L 6.36,22.46 L 6.30,22.46 L 6.30,23.51 L 6.27,23.54 L 5.47,23.13 L 5.41,23.13 L 5.41,24.14 L 5.34,24.17 L 4.49,23.73 L 4.49,21.53 L 3.66,21.12 L 3.59,21.06 L 3.59,20.04 L 3.66,20.01 L 5.34,20.87 L 5.41,20.87 L 5.41,19.85 L 5.44,19.82 L 6.30,20.23 L 6.30,19.15 L 4.55,18.26 L 4.49,18.26 L 4.49,19.28 L 4.45,19.31 L 3.59,18.86 L 3.59,17.78 L 2.67,17.34 L 2.67,20.58 L 2.64,20.61 L 1.78,20.17 L 1.78,17.97 Z" fill="#515151" stroke="none" /><path d="M 3.63,12.31 L 3.63,13.39 L 4.52,13.84 L 4.52,12.72 L 3.69,12.31 Z" fill="#515151" stroke="none" /><path d="M 2.70,9.61 L 2.70,10.72 L 2.74,10.75 L 3.56,11.17 L 3.63,11.17 L 3.63,10.12 L 3.66,10.08 L 4.52,10.53 L 4.52,11.64 L 7.22,12.98 L 7.22,10.78 L 7.19,10.75 L 6.33,10.34 L 6.33,11.36 L 6.27,11.39 L 4.52,10.50 L 4.52,9.42 L 3.69,9.00 L 3.63,9.00 L 3.63,10.02 L 3.59,10.05 Z" fill="#515151" stroke="none" /><path d="M 0.00,8.27 L 0.00,11.58 L 0.83,11.99 L 0.89,12.06 L 0.89,13.07 L 0.86,13.11 L 0.00,12.69 L 0.00,13.81 L 0.83,14.22 L 0.89,14.28 L 0.89,15.36 L 2.70,16.25 L 2.70,15.20 L 2.74,15.17 L 7.16,17.40 L 7.22,17.40 L 7.22,16.29 L 6.33,15.84 L 6.33,14.79 L 6.36,14.76 L 7.16,15.17 L 7.22,15.17 L 7.22,14.09 L 5.47,13.20 L 5.41,13.20 L 5.41,15.33 L 5.34,15.36 L 2.74,14.06 L 2.70,14.03 L 2.70,12.91 L 1.81,12.47 L 1.81,11.39 L 0.89,10.91 L 0.89,9.86 L 0.92,9.83 L 1.81,10.27 L 1.81,9.16 L 0.06,8.27 Z" fill="#515151" stroke="none" /><path d="M 10.85,28.06 L 10.85,29.17 L 14.35,30.92 L 14.41,30.92 L 14.41,28.69 L 13.55,28.28 L 13.55,29.33 L 13.49,29.36 L 10.91,28.06 Z" fill="#5c5c5c" stroke="none" /><path d="M 8.11,27.80 L 8.11,28.88 L 9.92,29.77 L 9.92,28.69 L 8.17,27.80 Z" fill="#5c5c5c" stroke="none" /><path d="M 13.55,26.08 L 13.55,27.20 L 14.41,27.61 L 14.41,26.50 L 13.61,26.08 Z" fill="#5c5c5c" stroke="none" /><path d="M 10.85,24.72 L 10.85,25.83 L 12.63,26.72 L 12.63,25.61 Z" fill="#5c5c5c" stroke="none" /><path d="M 9.92,22.04 L 9.92,23.16 L 13.49,24.94 L 13.55,24.94 L 13.55,23.86 L 13.52,23.83 Z" fill="#5c5c5c" stroke="none" /><path d="M 4.49,21.53 L 4.49,23.76 L 5.41,24.21 L 5.41,23.16 L 5.44,23.13 L 6.23,23.54 L 6.30,23.54 L 6.30,22.43 Z" fill="#5c5c5c" stroke="none" /><path d="M 0.00,21.50 L 0.00,22.62 L 1.78,23.51 L 1.78,22.39 Z" fill="#5c5c5c" stroke="none" /><path d="M 5.41,19.79 L 5.41,20.90 L 8.08,22.23 L 8.11,22.23 L 8.11,21.18 L 8.14,21.15 L 9.03,21.60 L 9.03,20.52 L 9.00,20.49 L 6.33,19.15 L 6.30,19.15 L 6.30,20.17 L 6.27,20.20 Z" fill="#5c5c5c" stroke="none" /><path d="M 3.59,17.81 L 3.59,18.89 L 4.42,19.31 L 4.49,19.31 L 4.49,18.23 L 3.66,17.81 Z" fill="#5c5c5c" stroke="none" /><path d="M 6.33,16.99 L 6.33,18.07 L 7.22,18.51 L 7.22,17.40 L 6.39,16.99 Z" fill="#5c5c5c" stroke="none" /><path d="M 0.00,16.00 L 0.00,17.08 L 1.72,17.94 L 1.78,18.00 L 1.78,19.09 L 2.61,19.50 L 2.67,19.50 L 2.67,17.34 Z" fill="#5c5c5c" stroke="none" /><path d="M 2.70,15.17 L 2.70,16.25 L 2.74,16.29 L 5.34,17.59 L 5.41,17.59 L 5.41,16.51 L 5.38,16.48 L 2.77,15.17 Z" fill="#5c5c5c" stroke="none" /><path d="M 0.89,13.14 L 0.89,14.25 L 1.75,14.70 L 1.81,14.70 L 1.81,13.58 Z" fill="#5c5c5c" stroke="none" /><path d="M 4.52,12.76 L 4.52,13.84 L 5.41,14.28 L 5.41,13.17 L 4.58,12.76 Z" fill="#5c5c5c" stroke="none" /><path d="M 1.81,11.39 L 1.81,12.50 L 3.63,13.39 L 3.63,12.28 Z" fill="#5c5c5c" stroke="none" /><path d="M 0.00,7.19 L 0.00,8.27 L 3.56,10.05 L 3.63,10.05 L 3.63,8.97 L 0.06,7.19 Z" fill="#5c5c5c" stroke="none" /><path d="M 12.63,20.52 L 12.63,20.55 L 14.35,21.41 L 14.47,21.41 L 15.30,20.99 L 15.30,20.96 L 13.52,20.07 Z" fill="#676767" stroke="none" /><path d="M 6.20,19.09 L 6.20,19.12 L 6.23,19.12 L 6.23,19.09 Z" fill="#676767" stroke="none" /><path d="M 6.08,19.02 L 6.08,19.05 L 6.11,19.05 L 6.11,19.02 Z" fill="#676767" stroke="none" /><path d="M 5.88,18.93 L 5.88,18.96 L 5.92,18.96 L 5.92,18.93 Z" fill="#676767" stroke="none" /><path d="M 5.76,18.86 L 5.76,18.89 L 5.79,18.89 L 5.79,18.86 Z" fill="#676767" stroke="none" /><path d="M 5.57,18.77 L 5.57,18.80 L 5.60,18.80 L 5.60,18.77 Z" fill="#676767" stroke="none" /><path d="M 5.44,18.70 L 5.44,18.74 L 5.47,18.74 L 5.47,18.70 Z" fill="#676767" stroke="none" /><path d="M 9.00,18.70 L 9.00,18.74 L 9.83,19.15 L 9.96,19.15 L 10.78,18.74 L 10.78,18.70 L 9.89,18.26 Z" fill="#676767" stroke="none" /><path d="M 22.58,18.23 L 22.58,18.29 L 23.41,18.70 L 24.33,18.26 L 24.33,18.23 L 23.51,17.81 L 23.41,17.81 Z" fill="#676767" stroke="none" /><path d="M 17.15,18.26 L 17.15,18.29 L 18.86,19.15 L 18.99,19.15 L 19.82,18.74 L 19.79,18.67 L 18.07,17.81 L 18.00,17.81 Z" fill="#676767" stroke="none" /><path d="M 15.33,17.34 L 15.36,17.40 L 16.19,17.81 L 16.25,17.81 L 17.11,17.37 L 17.11,17.34 L 16.29,16.92 L 16.16,16.92 Z" fill="#676767" stroke="none" /><path d="M 16.22,15.08 L 16.22,15.11 L 18.00,16.00 L 18.07,16.00 L 18.93,15.55 L 18.93,15.52 L 17.15,14.63 Z" fill="#676767" stroke="none" /><path d="M 5.44,9.86 L 5.47,9.92 L 6.30,10.34 L 6.36,10.34 L 7.19,9.92 L 7.19,9.89 L 6.30,9.45 Z" fill="#676767" stroke="none" /><path d="M 3.59,8.08 L 3.63,8.14 L 5.34,9.00 L 5.41,9.00 L 6.27,8.56 L 6.27,8.52 L 4.55,7.67 L 4.42,7.67 Z" fill="#676767" stroke="none" /><path d="M 8.11,6.71 L 8.14,6.78 L 8.97,7.19 L 9.03,7.19 L 9.86,6.78 L 9.86,6.71 L 9.03,6.30 L 8.94,6.30 Z" fill="#676767" stroke="none" /><path d="M 6.30,5.82 L 6.30,5.85 L 7.19,6.30 L 8.08,5.85 L 8.08,5.82 L 7.25,5.41 L 7.13,5.41 Z" fill="#676767" stroke="none" /><path d="M 13.55,3.12 L 13.55,3.15 L 15.27,4.01 L 15.40,4.01 L 16.22,3.59 L 16.19,3.53 L 14.47,2.67 L 14.41,2.67 Z" fill="#676767" stroke="none" /><path d="M 11.74,2.19 L 11.77,2.26 L 12.60,2.67 L 12.66,2.67 L 13.52,2.23 L 13.52,2.19 L 12.69,1.78 L 12.56,1.78 Z" fill="#676767" stroke="none" /><path d="M 12.63,21.41 L 12.66,21.47 L 13.49,21.88 L 14.38,21.44 L 14.44,21.44 L 15.33,21.88 L 16.19,21.44 L 16.19,21.41 L 15.36,20.99 L 15.24,20.99 L 14.44,21.41 L 14.38,21.41 L 13.58,20.99 L 13.46,20.99 Z" fill="#737373" stroke="none" /><path d="M 18.86,20.93 L 18.00,20.52 L 17.11,20.96 L 17.11,20.99 L 17.94,21.41 L 18.04,21.41 L 18.86,20.99 Z" fill="#737373" stroke="none" /><path d="M 7.16,19.56 L 7.16,19.59 L 7.19,19.59 L 7.19,19.56 Z" fill="#737373" stroke="none" /><path d="M 7.03,19.50 L 7.03,19.53 L 7.06,19.53 L 7.06,19.50 Z" fill="#737373" stroke="none" /><path d="M 6.84,19.40 L 6.84,19.44 L 6.87,19.44 L 6.87,19.40 Z" fill="#737373" stroke="none" /><path d="M 6.71,19.34 L 6.71,19.37 L 6.74,19.37 L 6.74,19.34 Z" fill="#737373" stroke="none" /><path d="M 6.52,19.24 L 6.52,19.28 L 6.55,19.28 L 6.55,19.24 Z" fill="#737373" stroke="none" /><path d="M 6.39,19.18 L 6.39,19.21 L 6.43,19.21 L 6.43,19.18 Z" fill="#737373" stroke="none" /><path d="M 8.11,20.04 L 8.11,20.07 L 9.89,20.96 L 9.96,20.96 L 10.75,20.55 L 10.85,20.55 L 11.64,20.96 L 11.77,20.96 L 13.49,20.10 L 13.46,20.04 L 10.85,18.74 L 10.72,18.74 L 9.89,19.15 L 9.89,19.18 L 11.67,20.07 L 10.82,20.52 L 9.03,19.63 L 8.94,19.63 Z" fill="#737373" stroke="none" /><path d="M 18.93,19.15 L 18.93,19.18 L 19.72,19.56 L 19.79,19.63 L 18.96,20.04 L 18.96,20.10 L 19.79,20.52 L 21.60,19.63 L 21.57,19.56 L 19.85,18.70 Z" fill="#737373" stroke="none" /><path d="M 5.25,18.61 L 5.25,18.64 L 5.28,18.64 L 5.28,18.61 Z" fill="#737373" stroke="none" /><path d="M 5.12,18.54 L 5.12,18.58 L 5.15,18.58 L 5.15,18.54 Z" fill="#737373" stroke="none" /><path d="M 4.80,18.39 L 4.80,18.42 L 4.83,18.42 L 4.83,18.39 Z" fill="#737373" stroke="none" /><path d="M 12.60,18.70 L 12.60,18.74 L 15.27,20.07 L 15.36,20.07 L 16.19,19.66 L 16.19,19.59 L 13.52,18.26 Z" fill="#737373" stroke="none" /><path d="M 4.49,18.23 L 4.49,18.26 L 4.52,18.26 L 4.52,18.23 Z" fill="#737373" stroke="none" /><path d="M 4.17,18.07 L 4.17,18.10 L 4.20,18.10 L 4.20,18.07 Z" fill="#737373" stroke="none" /><path d="M 3.85,17.91 L 3.85,17.94 L 3.88,17.94 L 3.88,17.91 Z" fill="#737373" stroke="none" /><path d="M 16.25,17.78 L 16.25,17.84 L 17.08,18.26 L 17.18,18.26 L 18.00,17.84 L 18.00,17.78 L 17.18,17.37 L 17.08,17.37 Z" fill="#737373" stroke="none" /><path d="M 10.82,17.78 L 10.82,17.84 L 11.64,18.26 L 11.74,18.26 L 12.56,17.84 L 12.56,17.78 L 11.74,17.37 L 11.64,17.37 Z" fill="#737373" stroke="none" /><path d="M 20.77,17.34 L 20.80,17.40 L 21.63,17.81 L 22.55,17.37 L 22.55,17.34 L 21.73,16.92 L 21.60,16.92 Z" fill="#737373" stroke="none" /><path d="M 13.52,16.45 L 13.52,16.48 L 14.35,16.89 L 14.31,16.95 L 13.52,17.34 L 13.52,17.37 L 14.38,17.81 L 14.44,17.81 L 16.22,16.92 L 16.22,16.89 L 14.44,16.00 L 14.38,16.00 Z" fill="#737373" stroke="none" /><path d="M 18.07,15.97 L 18.07,16.03 L 19.79,16.89 L 19.91,16.89 L 20.74,16.48 L 20.71,16.41 L 18.99,15.55 L 18.89,15.55 Z" fill="#737373" stroke="none" /><path d="M 24.40,15.52 L 24.40,15.59 L 26.12,16.45 L 26.21,16.45 L 27.04,16.03 L 27.04,15.97 L 25.32,15.11 L 25.22,15.11 Z" fill="#737373" stroke="none" /><path d="M 21.66,15.08 L 21.66,15.11 L 22.46,15.49 L 22.52,15.55 L 21.69,15.97 L 21.69,16.03 L 24.30,17.34 L 24.43,17.34 L 25.26,16.92 L 25.22,16.86 L 23.51,16.00 L 24.33,15.59 L 24.33,15.52 L 22.62,14.66 L 22.49,14.66 Z" fill="#737373" stroke="none" /><path d="M 20.71,13.71 L 19.88,13.30 L 19.79,13.30 L 18.07,14.16 L 18.07,14.22 L 18.89,14.63 L 18.99,14.63 L 20.71,13.77 Z" fill="#737373" stroke="none" /><path d="M 20.74,12.82 L 20.74,12.85 L 22.52,13.74 L 22.58,13.74 L 23.41,13.33 L 23.38,13.26 L 21.66,12.41 L 21.57,12.41 Z" fill="#737373" stroke="none" /><path d="M 6.36,10.31 L 6.36,10.37 L 7.19,10.78 L 7.25,10.78 L 8.08,10.37 L 8.08,10.34 L 7.25,9.92 L 7.13,9.92 Z" fill="#737373" stroke="none" /><path d="M 3.63,8.97 L 3.63,9.00 L 5.41,9.89 L 6.27,9.48 L 6.23,9.42 L 4.52,8.56 L 4.42,8.56 Z" fill="#737373" stroke="none" /><path d="M 6.30,8.52 L 6.33,8.59 L 8.94,9.89 L 9.03,9.89 L 9.86,9.48 L 9.86,9.42 L 7.25,8.11 L 7.13,8.11 Z" fill="#737373" stroke="none" /><path d="M 2.67,7.63 L 2.67,7.67 L 3.56,8.11 L 4.49,7.67 L 4.49,7.63 L 3.59,7.19 Z" fill="#737373" stroke="none" /><path d="M 0.89,6.74 L 0.89,6.78 L 1.72,7.19 L 1.81,7.19 L 2.64,6.78 L 2.64,6.71 L 1.81,6.30 L 1.75,6.30 Z" fill="#737373" stroke="none" /><path d="M 17.11,5.82 L 16.22,5.38 L 15.33,5.82 L 15.33,5.85 L 16.16,6.27 L 16.29,6.27 L 17.11,5.85 Z" fill="#737373" stroke="none" /><path d="M 2.70,5.82 L 2.74,5.88 L 5.34,7.19 L 5.44,7.19 L 7.19,6.30 L 8.08,6.74 L 9.00,6.30 L 9.86,6.74 L 9.03,7.16 L 9.03,7.22 L 10.75,8.08 L 10.88,8.08 L 12.60,7.22 L 12.56,7.16 L 11.74,6.74 L 12.56,6.33 L 12.60,6.27 L 9.92,4.93 L 9.00,5.38 L 9.00,5.41 L 9.83,5.82 L 9.80,5.88 L 9.03,6.27 L 8.94,6.27 L 8.14,5.85 L 8.05,5.85 L 7.25,6.27 L 7.16,6.27 L 6.39,5.88 L 6.36,5.82 L 7.19,5.41 L 7.19,5.38 L 6.30,4.93 L 5.41,5.38 L 5.41,5.41 L 6.23,5.82 L 6.20,5.88 L 5.44,6.27 L 5.34,6.27 L 3.66,5.41 L 3.53,5.41 Z" fill="#737373" stroke="none" /><path d="M 13.55,4.90 L 13.55,4.96 L 14.38,5.38 L 14.47,5.38 L 15.30,4.96 L 15.30,4.90 L 14.47,4.49 L 14.38,4.49 Z" fill="#737373" stroke="none" /><path d="M 17.15,4.01 L 17.15,4.04 L 17.94,4.42 L 18.00,4.49 L 17.18,4.90 L 17.18,4.96 L 18.00,5.38 L 18.07,5.38 L 19.85,4.49 L 19.85,4.45 L 18.07,3.56 Z" fill="#737373" stroke="none" /><path d="M 7.22,3.56 L 7.25,3.63 L 8.08,4.04 L 9.00,3.59 L 9.00,3.56 L 8.17,3.15 L 8.05,3.15 Z" fill="#737373" stroke="none" /><path d="M 9.03,2.67 L 9.03,2.70 L 11.71,4.04 L 12.63,3.59 L 12.63,3.56 L 9.96,2.23 L 9.89,2.23 Z" fill="#737373" stroke="none" /><path d="M 10.85,1.75 L 10.88,1.81 L 11.71,2.23 L 12.60,1.78 L 12.66,1.78 L 13.42,2.16 L 13.49,2.23 L 13.46,2.26 L 12.66,2.64 L 12.66,2.70 L 13.49,3.12 L 13.58,3.12 L 14.44,2.67 L 15.30,3.12 L 15.36,3.12 L 16.22,2.67 L 16.22,2.64 L 13.55,1.30 L 12.66,1.75 L 12.60,1.75 L 11.80,1.34 L 11.67,1.34 Z" fill="#737373" stroke="none" /><path d="M 15.36,1.30 L 15.36,1.34 L 16.19,1.75 L 16.32,1.75 L 17.08,1.37 L 17.08,1.30 L 16.25,0.89 L 16.16,0.89 Z" fill="#737373" stroke="none" /><path d="M 12.63,19.59 L 12.63,19.66 L 13.46,20.07 L 13.55,20.07 L 14.38,19.66 L 14.38,19.59 L 13.55,19.18 L 13.46,19.18 Z" fill="#7d7d7d" stroke="none" /><path d="M 7.22,19.59 L 7.22,19.63 L 8.05,20.04 L 8.17,20.04 L 9.00,19.63 L 10.72,20.49 L 10.75,20.52 L 10.69,20.58 L 9.96,20.93 L 9.96,20.99 L 10.78,21.41 L 10.88,21.41 L 11.67,20.99 L 11.74,20.99 L 12.63,21.44 L 13.52,20.99 L 13.52,20.96 L 12.63,20.52 L 11.74,20.96 L 11.67,20.96 L 10.91,20.58 L 10.85,20.52 L 10.88,20.49 L 11.67,20.10 L 11.67,20.04 L 9.00,18.70 Z" fill="#7d7d7d" stroke="none" /><path d="M 9.89,18.26 L 9.89,18.29 L 11.67,19.18 L 13.46,18.29 L 13.55,18.29 L 16.16,19.59 L 16.19,19.63 L 16.16,19.66 L 15.33,20.07 L 15.33,20.10 L 16.16,20.52 L 16.10,20.58 L 15.30,20.96 L 15.30,20.99 L 16.10,21.38 L 16.16,21.44 L 16.13,21.47 L 15.36,21.85 L 15.27,21.85 L 14.47,21.44 L 14.35,21.44 L 13.52,21.85 L 13.55,21.92 L 15.27,22.78 L 17.97,21.44 L 17.94,21.38 L 17.21,21.03 L 17.18,20.99 L 17.21,20.93 L 17.97,20.55 L 18.07,20.55 L 18.86,20.96 L 18.93,20.96 L 19.79,20.52 L 19.79,20.49 L 18.96,20.07 L 19.79,19.66 L 19.82,19.59 L 18.10,18.74 L 17.97,18.74 L 17.18,19.15 L 17.08,19.15 L 12.66,16.92 L 12.53,16.92 L 11.71,17.34 L 11.74,17.40 L 12.56,17.81 L 11.71,18.26 L 10.82,17.81 L 10.75,17.81 Z" fill="#7d7d7d" stroke="none" /><path d="M 15.33,16.48 L 17.11,17.37 L 18.00,16.92 L 18.07,16.92 L 18.83,17.30 L 18.89,17.37 L 18.07,17.78 L 18.07,17.84 L 18.89,18.26 L 18.99,18.26 L 21.63,16.92 L 21.69,16.92 L 22.46,17.30 L 22.49,17.37 L 20.77,18.23 L 20.77,18.29 L 22.49,19.15 L 22.55,19.15 L 23.41,18.70 L 23.41,18.67 L 22.62,18.29 L 22.58,18.26 L 22.62,18.23 L 23.44,17.81 L 24.27,18.23 L 24.40,18.23 L 26.12,17.37 L 26.12,17.30 L 25.26,16.89 L 24.40,17.34 L 24.33,17.34 L 21.73,16.03 L 21.69,16.00 L 21.73,15.97 L 22.55,15.55 L 22.55,15.52 L 21.76,15.14 L 21.73,15.11 L 21.76,15.05 L 22.52,14.66 L 22.58,14.66 L 24.30,15.52 L 24.33,15.55 L 24.30,15.59 L 23.51,15.97 L 23.51,16.03 L 24.33,16.45 L 24.40,16.45 L 25.22,16.03 L 25.22,15.97 L 24.40,15.55 L 25.29,15.11 L 27.04,16.00 L 26.18,16.45 L 26.18,16.48 L 27.01,16.89 L 27.07,16.89 L 28.79,16.03 L 28.79,15.97 L 23.44,13.30 L 22.55,13.74 L 20.80,12.85 L 20.68,12.85 L 19.85,13.26 L 19.88,13.33 L 20.68,13.71 L 20.71,13.74 L 20.68,13.77 L 18.96,14.63 L 18.07,14.19 L 18.00,14.19 L 17.15,14.63 L 17.15,14.66 L 17.97,15.08 L 18.10,15.08 L 18.89,14.66 L 18.99,14.66 L 19.79,15.08 L 19.91,15.08 L 20.71,14.66 L 20.80,14.66 L 21.57,15.05 L 21.60,15.08 L 21.57,15.14 L 19.88,15.97 L 19.88,16.03 L 20.68,16.41 L 20.71,16.45 L 20.64,16.51 L 19.88,16.89 L 19.82,16.89 L 18.07,16.00 L 18.00,16.00 L 17.15,16.45 L 16.25,16.00 L 16.19,16.00 L 15.36,16.41 Z" fill="#7d7d7d" stroke="none" /><path d="M 12.60,8.08 L 11.77,7.67 L 11.64,7.67 L 9.92,8.52 L 9.92,8.56 L 10.82,9.00 L 12.60,8.11 Z" fill="#7d7d7d" stroke="none" /><path d="M 0.03,7.16 L 0.06,7.22 L 3.56,8.97 L 3.66,8.97 L 4.45,8.56 L 4.45,8.52 L 2.74,7.67 L 2.77,7.60 L 3.53,7.22 L 3.63,7.22 L 6.17,8.49 L 6.23,8.56 L 5.41,8.97 L 5.41,9.03 L 8.02,10.34 L 8.14,10.34 L 8.97,9.92 L 8.94,9.86 L 6.33,8.56 L 6.39,8.49 L 7.16,8.11 L 7.22,8.11 L 8.11,8.56 L 9.00,8.11 L 9.00,8.08 L 6.33,6.74 L 6.27,6.74 L 5.38,7.19 L 2.74,5.85 L 2.64,5.85 L 1.81,6.27 L 1.81,6.33 L 2.61,6.71 L 2.64,6.74 L 2.61,6.78 L 1.78,7.19 L 0.89,6.74 Z" fill="#7d7d7d" stroke="none" /><path d="M 3.59,5.38 L 3.59,5.41 L 5.38,6.30 L 6.30,5.85 L 6.30,5.82 L 4.52,4.93 Z" fill="#7d7d7d" stroke="none" /><path d="M 10.85,2.64 L 10.85,2.70 L 11.67,3.12 L 11.77,3.12 L 12.60,2.70 L 12.60,2.64 L 11.77,2.23 L 11.67,2.23 Z" fill="#7d7d7d" stroke="none" /><path d="M 21.60,3.56 L 20.77,3.15 L 20.68,3.15 L 19.85,3.56 L 18.10,2.67 L 18.16,2.61 L 18.89,2.26 L 18.86,2.19 L 17.15,1.34 L 17.08,1.34 L 16.25,1.75 L 16.25,1.78 L 17.05,2.16 L 17.08,2.23 L 15.36,3.09 L 15.36,3.15 L 16.16,3.53 L 16.19,3.56 L 16.13,3.63 L 15.36,4.01 L 15.30,4.01 L 14.41,3.56 L 13.55,4.01 L 13.49,4.01 L 12.69,3.59 L 12.56,3.59 L 11.74,4.01 L 11.77,4.07 L 13.49,4.93 L 12.63,5.38 L 9.10,3.63 L 9.07,3.59 L 9.10,3.53 L 9.89,3.15 L 9.89,3.12 L 9.03,2.67 L 8.11,3.12 L 8.11,3.15 L 8.91,3.53 L 8.94,3.56 L 8.91,3.63 L 8.14,4.01 L 8.05,4.01 L 7.25,3.59 L 7.16,3.59 L 5.44,4.45 L 5.41,4.52 L 8.97,6.30 L 9.89,5.85 L 9.89,5.82 L 9.10,5.44 L 9.07,5.38 L 9.86,4.96 L 9.96,4.96 L 12.50,6.23 L 12.56,6.30 L 12.53,6.33 L 11.74,6.71 L 11.74,6.78 L 13.46,7.63 L 13.55,7.63 L 14.38,7.22 L 14.38,7.16 L 12.69,6.33 L 12.66,6.30 L 12.72,6.23 L 13.49,5.85 L 13.55,5.85 L 14.44,6.30 L 16.19,5.41 L 16.29,5.41 L 17.08,5.82 L 17.18,5.82 L 18.00,5.41 L 18.00,5.34 L 17.18,4.93 L 18.04,4.49 L 18.04,4.45 L 17.21,4.04 L 17.24,3.98 L 18.00,3.59 L 18.10,3.59 L 19.79,4.45 L 19.91,4.45 L 21.57,3.63 Z" fill="#7d7d7d" stroke="none" /><path d="M 13.58,0.38 L 13.58,0.45 L 15.30,1.30 L 15.40,1.30 L 16.19,0.89 L 16.19,0.86 L 14.47,0.00 L 14.35,0.00 Z" fill="#7d7d7d" stroke="none" /><path d="M 10.85,21.41 L 10.85,21.44 L 14.35,23.19 L 14.47,23.19 L 15.27,22.78 L 15.27,22.74 L 11.77,20.99 L 11.64,20.99 Z" fill="#8d8d8d" stroke="none" /><path d="M 17.15,20.04 L 17.15,20.10 L 17.97,20.52 L 18.07,20.52 L 18.89,20.10 L 18.89,20.04 L 18.07,19.63 L 17.97,19.63 Z" fill="#8d8d8d" stroke="none" /><path d="M 13.52,20.07 L 13.52,20.10 L 15.24,20.96 L 15.36,20.96 L 16.19,20.55 L 16.16,20.49 L 14.44,19.63 L 14.38,19.63 Z" fill="#8d8d8d" stroke="none" /><path d="M 11.71,19.15 L 11.74,19.21 L 12.56,19.63 L 12.63,19.63 L 13.49,19.18 L 13.49,19.15 L 12.66,18.74 L 12.53,18.74 Z" fill="#8d8d8d" stroke="none" /><path d="M 18.96,18.26 L 18.96,18.29 L 21.57,19.59 L 21.66,19.59 L 22.49,19.18 L 22.49,19.12 L 20.77,18.26 L 21.63,17.81 L 21.63,17.78 L 20.80,17.37 L 20.71,17.37 Z" fill="#8d8d8d" stroke="none" /><path d="M 14.44,17.78 L 14.44,17.84 L 17.11,19.18 L 18.04,18.74 L 18.04,18.70 L 15.36,17.37 L 15.27,17.37 Z" fill="#8d8d8d" stroke="none" /><path d="M 17.15,17.34 L 17.18,17.40 L 18.00,17.81 L 18.07,17.81 L 18.93,17.37 L 18.93,17.34 L 18.10,16.92 L 17.97,16.92 Z" fill="#8d8d8d" stroke="none" /><path d="M 12.60,16.89 L 12.60,16.92 L 13.49,17.37 L 14.41,16.92 L 14.41,16.89 L 13.52,16.45 Z" fill="#8d8d8d" stroke="none" /><path d="M 24.40,16.41 L 24.40,16.48 L 26.12,17.34 L 26.18,17.34 L 27.01,16.92 L 27.01,16.86 L 25.29,16.00 L 25.22,16.00 Z" fill="#8d8d8d" stroke="none" /><path d="M 14.44,15.97 L 14.44,16.03 L 15.27,16.45 L 15.36,16.45 L 16.22,16.00 L 17.08,16.45 L 17.18,16.45 L 18.00,16.03 L 18.00,15.97 L 16.29,15.11 L 16.16,15.11 Z" fill="#8d8d8d" stroke="none" /><path d="M 18.04,15.08 L 18.04,15.11 L 19.82,16.00 L 19.88,16.00 L 21.66,15.11 L 21.66,15.08 L 20.77,14.63 L 19.88,15.08 L 19.82,15.08 L 18.96,14.63 Z" fill="#8d8d8d" stroke="none" /><path d="M 13.49,7.63 L 12.60,7.19 L 11.71,7.63 L 11.71,7.67 L 12.53,8.08 L 12.66,8.08 L 13.49,7.67 Z" fill="#8d8d8d" stroke="none" /><path d="M 6.33,6.71 L 6.33,6.78 L 8.94,8.08 L 8.91,8.14 L 8.11,8.52 L 8.14,8.59 L 9.86,9.45 L 9.92,9.45 L 10.78,9.00 L 10.78,8.97 L 9.96,8.56 L 10.02,8.49 L 10.82,8.11 L 10.82,8.08 L 7.25,6.30 L 7.16,6.30 Z" fill="#8d8d8d" stroke="none" /><path d="M 12.63,6.27 L 12.66,6.33 L 14.38,7.19 L 14.44,7.19 L 16.22,6.30 L 16.22,6.27 L 15.40,5.85 L 15.27,5.85 L 14.47,6.27 L 14.38,6.27 L 13.58,5.85 L 13.46,5.85 Z" fill="#8d8d8d" stroke="none" /><path d="M 4.52,4.93 L 4.52,4.96 L 5.34,5.38 L 5.44,5.38 L 6.27,4.96 L 6.23,4.90 L 5.41,4.49 Z" fill="#8d8d8d" stroke="none" /><path d="M 9.00,3.56 L 9.00,3.59 L 12.56,5.38 L 12.66,5.38 L 13.49,4.96 L 13.49,4.90 L 9.92,3.12 Z" fill="#8d8d8d" stroke="none" /><path d="M 11.74,3.12 L 11.74,3.15 L 13.46,4.01 L 13.58,4.01 L 14.41,3.59 L 14.38,3.53 L 12.66,2.67 L 12.60,2.67 Z" fill="#8d8d8d" stroke="none" /><path d="M 18.07,2.64 L 18.10,2.70 L 19.82,3.56 L 19.91,3.56 L 20.71,3.15 L 20.71,3.12 L 18.93,2.23 Z" fill="#8d8d8d" stroke="none" /><path d="M 9.96,2.19 L 9.96,2.26 L 10.78,2.67 L 10.85,2.67 L 11.71,2.23 L 11.71,2.19 L 10.88,1.78 L 10.78,1.78 Z" fill="#8d8d8d" stroke="none" /><path d="M 11.74,1.30 L 11.74,1.34 L 12.56,1.75 L 12.69,1.75 L 13.49,1.34 L 13.58,1.34 L 16.22,2.67 L 17.15,2.23 L 17.15,2.19 L 13.58,0.41 L 13.52,0.41 Z" fill="#8d8d8d" stroke="none" /></svg>