<svg height="32" width="32" viewBox="0 0 32 32"><defs /><path d="M 18.97,26.38 L 18.90,26.38 L 17.98,26.84 L 17.98,28.04 L 18.05,28.04 L 18.97,27.58 Z" fill="#1e130b" stroke="none" /><path d="M 16.95,26.14 L 16.00,26.60 L 16.00,27.83 L 16.07,27.83 L 16.95,27.37 Z" fill="#1e130b" stroke="none" /><path d="M 18.97,23.91 L 17.98,24.41 L 17.98,25.61 L 18.05,25.61 L 18.97,25.15 Z" fill="#1e130b" stroke="none" /><path d="M 16.92,19.99 L 16.00,20.45 L 16.00,22.92 L 16.92,22.46 L 16.95,22.50 L 16.95,23.66 L 17.02,23.66 L 17.98,23.17 L 17.98,21.93 L 16.99,22.43 L 16.95,22.39 L 16.95,19.99 Z" fill="#1e130b" stroke="none" /><path d="M 32.00,19.85 L 31.01,20.34 L 31.01,21.55 L 32.00,21.05 Z" fill="#1e130b" stroke="none" /><path d="M 19.96,18.51 L 19.89,18.51 L 18.97,18.97 L 18.97,21.44 L 19.96,20.94 Z" fill="#1e130b" stroke="none" /><path d="M 22.99,18.19 L 20.98,19.18 L 20.98,20.42 L 21.05,20.42 L 22.99,19.43 Z" fill="#1e130b" stroke="none" /><path d="M 18.97,16.57 L 18.90,16.57 L 17.98,17.02 L 17.98,18.23 L 18.05,18.23 L 18.97,17.77 Z" fill="#1e130b" stroke="none" /><path d="M 27.02,16.18 L 26.00,16.67 L 26.00,17.91 L 26.07,17.91 L 27.02,17.41 Z" fill="#1e130b" stroke="none" /><path d="M 31.01,15.43 L 30.94,15.43 L 30.02,15.89 L 30.02,18.37 L 29.03,18.86 L 29.03,21.33 L 30.02,20.84 L 30.02,18.40 L 31.01,17.91 Z" fill="#1e130b" stroke="none" /><path d="M 29.03,13.95 L 28.01,14.45 L 28.01,16.92 L 29.03,16.42 Z" fill="#1e130b" stroke="none" /><path d="M 32.00,10.03 L 31.01,10.53 L 31.01,11.73 L 32.00,11.23 Z" fill="#1e130b" stroke="none" /><path d="M 16.95,27.37 L 16.00,27.83 L 16.00,29.03 L 16.07,29.03 L 16.95,28.57 Z" fill="#23170e" stroke="none" /><path d="M 30.02,20.84 L 29.03,21.33 L 29.03,22.53 L 30.02,22.04 Z" fill="#23170e" stroke="none" /><path d="M 17.94,20.70 L 16.95,21.19 L 16.95,22.43 L 16.00,22.92 L 16.00,24.16 L 16.92,23.70 L 16.95,23.74 L 16.95,26.14 L 17.94,25.64 L 17.98,25.68 L 17.98,26.84 L 18.05,26.84 L 18.97,26.38 L 18.97,25.15 L 18.90,25.15 L 18.01,25.61 L 17.98,25.57 L 17.98,23.17 L 16.99,23.66 L 16.95,23.63 L 16.95,22.46 L 17.98,21.93 L 17.98,20.70 Z" fill="#23170e" stroke="none" /><path d="M 21.97,17.48 L 19.96,18.47 L 19.96,19.71 L 21.97,18.72 Z" fill="#23170e" stroke="none" /><path d="M 32.00,17.41 L 31.93,17.41 L 30.02,18.37 L 30.02,19.60 L 30.98,19.14 L 31.01,19.18 L 31.01,20.34 L 32.00,19.85 Z" fill="#23170e" stroke="none" /><path d="M 18.97,17.77 L 18.90,17.77 L 18.01,18.23 L 17.98,18.19 L 17.98,17.06 L 17.91,17.06 L 16.99,17.52 L 16.95,17.55 L 16.95,18.72 L 16.88,18.79 L 16.00,19.21 L 16.00,20.45 L 16.07,20.45 L 16.95,19.99 L 16.95,18.79 L 17.02,18.72 L 17.94,18.26 L 17.98,18.30 L 17.98,19.46 L 18.05,19.46 L 18.97,19.00 Z" fill="#23170e" stroke="none" /><path d="M 26.00,15.47 L 25.01,15.96 L 25.01,17.17 L 24.97,17.20 L 22.99,18.19 L 22.99,19.43 L 26.00,17.94 Z" fill="#23170e" stroke="none" /><path d="M 28.01,14.48 L 27.94,14.48 L 27.02,14.94 L 27.02,17.41 L 28.01,16.92 Z" fill="#23170e" stroke="none" /><path d="M 31.01,10.53 L 30.02,11.02 L 30.02,12.19 L 29.95,12.26 L 29.03,12.72 L 29.03,13.95 L 29.07,13.95 L 30.02,13.46 L 30.02,12.26 L 30.09,12.19 L 30.94,11.76 L 31.01,11.80 L 31.01,14.16 L 30.02,14.66 L 30.02,15.89 L 29.03,16.39 L 29.03,17.62 L 29.10,17.62 L 30.02,17.17 L 30.02,15.93 L 31.01,15.43 L 31.01,14.20 L 32.00,13.70 L 32.00,11.23 L 31.05,11.69 L 31.01,11.66 Z" fill="#23170e" stroke="none" /><path d="M 16.88,23.70 L 16.00,24.16 L 16.00,26.60 L 16.07,26.60 L 16.88,26.17 L 16.95,26.21 L 16.95,28.57 L 16.99,28.57 L 17.98,28.08 L 17.98,25.64 L 17.91,25.64 L 17.02,26.10 L 16.95,26.07 L 16.95,23.70 Z" fill="#281a0f" stroke="none" /><path d="M 20.98,19.21 L 20.91,19.21 L 19.96,19.71 L 19.96,20.94 L 20.98,20.45 Z" fill="#281a0f" stroke="none" /><path d="M 31.01,19.11 L 30.02,19.60 L 30.02,22.04 L 31.01,21.55 Z" fill="#281a0f" stroke="none" /><path d="M 16.92,17.55 L 16.00,18.01 L 16.00,19.21 L 16.07,19.21 L 16.88,18.79 L 16.95,18.83 L 16.95,21.19 L 17.02,21.19 L 17.91,20.73 L 17.98,20.77 L 17.98,24.41 L 18.01,24.41 L 18.97,23.91 L 18.97,19.00 L 18.90,19.00 L 18.01,19.46 L 17.98,19.43 L 17.98,18.26 L 17.91,18.26 L 16.99,18.72 L 16.95,18.68 L 16.95,17.55 Z" fill="#281a0f" stroke="none" /><path d="M 30.02,17.17 L 29.95,17.17 L 29.03,17.62 L 29.03,18.86 L 29.10,18.86 L 30.02,18.40 Z" fill="#281a0f" stroke="none" /><path d="M 25.01,15.96 L 22.00,17.45 L 21.97,17.48 L 21.97,18.68 L 22.04,18.68 L 25.01,17.20 Z" fill="#281a0f" stroke="none" /><path d="M 27.02,14.98 L 26.95,14.98 L 26.00,15.47 L 26.00,16.67 L 26.07,16.67 L 27.02,16.18 Z" fill="#281a0f" stroke="none" /><path d="M 29.99,11.02 L 29.03,11.51 L 29.03,12.72 L 29.95,12.26 L 30.02,12.29 L 30.02,13.42 L 29.95,13.49 L 29.03,13.95 L 29.03,16.39 L 29.10,16.39 L 30.02,15.93 L 30.02,14.69 L 30.98,14.20 L 31.01,14.23 L 31.01,17.87 L 31.08,17.87 L 32.00,17.41 L 32.00,13.70 L 31.93,13.70 L 31.05,14.16 L 31.01,14.13 L 31.01,11.73 L 30.06,12.19 L 30.02,12.15 L 30.02,11.02 Z" fill="#281a0f" stroke="none" /><path d="M 15.05,27.37 L 15.05,28.57 L 15.93,29.03 L 16.00,29.03 L 16.00,27.83 Z" fill="#311f12" stroke="none" /><path d="M 14.06,21.93 L 14.02,21.93 L 14.02,24.34 L 13.95,24.37 L 13.03,23.91 L 13.03,26.38 L 13.95,26.84 L 14.02,26.84 L 14.02,24.48 L 14.09,24.44 L 14.98,24.90 L 15.05,24.90 L 15.05,22.43 Z" fill="#311f12" stroke="none" /><path d="M 1.98,20.84 L 1.98,22.04 L 2.97,22.53 L 2.97,21.33 Z" fill="#311f12" stroke="none" /><path d="M 10.03,18.72 L 10.03,19.96 L 10.95,20.42 L 11.02,20.42 L 11.02,19.18 L 10.10,18.72 Z" fill="#311f12" stroke="none" /><path d="M 0.00,18.61 L 0.00,19.85 L 0.99,20.34 L 0.99,19.11 Z" fill="#311f12" stroke="none" /><path d="M 12.04,18.51 L 12.04,20.94 L 13.03,21.44 L 13.03,18.97 L 12.11,18.51 Z" fill="#311f12" stroke="none" /><path d="M 1.98,18.40 L 1.98,19.60 L 2.97,20.10 L 2.97,18.86 L 2.05,18.40 Z" fill="#311f12" stroke="none" /><path d="M 15.05,17.55 L 15.05,18.75 L 15.93,19.21 L 16.00,19.21 L 16.00,18.01 Z" fill="#311f12" stroke="none" /><path d="M 4.98,16.18 L 4.98,17.41 L 6.92,18.40 L 6.99,18.40 L 6.99,17.17 Z" fill="#311f12" stroke="none" /><path d="M 2.97,13.95 L 2.97,16.42 L 3.99,16.92 L 3.99,14.45 Z" fill="#311f12" stroke="none" /><path d="M 0.00,12.47 L 0.00,14.94 L 0.99,15.43 L 0.99,16.67 L 1.91,17.13 L 1.98,17.13 L 1.98,15.89 L 0.99,15.40 L 0.99,12.96 Z" fill="#311f12" stroke="none" /><path d="M 1.98,11.02 L 1.98,12.22 L 2.97,12.72 L 2.97,11.51 Z" fill="#311f12" stroke="none" /><path d="M 14.02,16.04 L 14.02,16.11 L 14.94,16.57 L 15.05,16.57 L 16.00,16.07 L 16.95,16.57 L 17.06,16.57 L 17.98,16.11 L 17.98,16.04 L 16.07,15.08 L 15.93,15.08 Z" fill="#674714" stroke="none" /><path d="M 29.07,10.56 L 29.07,10.53 L 28.19,10.10 L 28.11,10.03 L 29.03,9.57 L 29.03,9.50 L 28.11,9.04 L 28.01,9.04 L 26.07,10.03 L 26.07,10.07 L 28.04,11.06 Z" fill="#674714" stroke="none" /><path d="M 2.93,10.56 L 3.96,11.06 L 5.93,10.07 L 5.93,10.03 L 3.99,9.04 L 3.89,9.04 L 2.97,9.50 L 2.97,9.57 L 3.89,10.03 L 3.81,10.10 L 2.93,10.53 Z" fill="#674714" stroke="none" /><path d="M 13.03,26.38 L 13.03,27.58 L 13.95,28.04 L 14.02,28.04 L 14.02,26.84 L 13.10,26.38 Z" fill="#392617" stroke="none" /><path d="M 14.02,24.41 L 14.02,25.64 L 14.98,26.10 L 15.05,26.17 L 15.05,27.37 L 15.93,27.83 L 16.00,27.83 L 16.00,25.40 Z" fill="#392617" stroke="none" /><path d="M 0.00,19.85 L 0.00,21.05 L 0.99,21.55 L 0.99,20.34 Z" fill="#392617" stroke="none" /><path d="M 11.02,17.98 L 11.02,20.45 L 12.04,20.94 L 12.04,18.47 Z" fill="#392617" stroke="none" /><path d="M 14.09,17.06 L 14.02,17.06 L 14.02,18.19 L 13.99,18.23 L 13.10,17.77 L 13.03,17.77 L 13.03,19.00 L 13.95,19.46 L 14.02,19.46 L 14.02,18.30 L 14.06,18.26 L 14.98,18.72 L 15.05,18.79 L 15.05,21.16 L 15.01,21.19 L 14.02,20.70 L 14.02,21.86 L 13.99,21.90 L 13.03,21.44 L 13.03,22.68 L 13.99,23.17 L 14.02,23.17 L 14.02,22.00 L 14.06,21.97 L 14.98,22.43 L 15.05,22.43 L 15.05,21.26 L 15.08,21.23 L 16.00,21.69 L 16.00,19.21 L 15.12,18.79 L 15.05,18.72 L 15.05,17.55 Z" fill="#392617" stroke="none" /><path d="M 6.99,17.20 L 6.99,18.44 L 9.96,19.92 L 10.03,19.92 L 10.03,17.48 L 10.00,17.45 L 9.08,16.99 L 9.01,16.99 L 9.01,18.12 L 8.94,18.15 L 7.06,17.20 Z" fill="#392617" stroke="none" /><path d="M 3.99,14.48 L 3.99,15.68 L 5.93,16.67 L 6.00,16.67 L 6.00,15.47 L 4.06,14.48 Z" fill="#392617" stroke="none" /><path d="M 0.99,14.20 L 0.99,15.36 L 0.95,15.40 L 0.07,14.94 L 0.00,14.94 L 0.00,16.18 L 0.99,16.67 L 0.99,19.11 L 1.91,19.57 L 1.98,19.64 L 1.98,20.84 L 2.97,21.33 L 2.97,20.10 L 2.05,19.64 L 1.98,19.57 L 1.98,17.13 L 0.99,16.64 L 0.99,15.47 L 1.02,15.43 L 1.91,15.89 L 1.98,15.89 L 1.98,14.66 L 1.06,14.20 Z" fill="#392617" stroke="none" /><path d="M 0.00,11.23 L 0.00,12.47 L 0.04,12.50 L 0.99,12.96 L 0.99,11.80 L 1.06,11.76 L 1.91,12.19 L 1.98,12.26 L 1.98,13.46 L 2.97,13.95 L 2.97,12.72 L 2.05,12.26 L 1.98,12.19 L 1.98,11.02 L 1.94,10.98 L 0.99,10.53 L 0.99,11.66 L 0.95,11.69 Z" fill="#392617" stroke="none" /><path d="M 14.02,25.64 L 14.02,28.08 L 15.05,28.57 L 15.05,26.14 L 14.09,25.64 Z" fill="#412a19" stroke="none" /><path d="M 13.03,22.68 L 13.03,23.91 L 14.02,24.41 L 14.02,23.17 Z" fill="#412a19" stroke="none" /><path d="M 10.03,17.48 L 10.03,18.72 L 10.95,19.18 L 11.02,19.18 L 11.02,17.98 Z" fill="#412a19" stroke="none" /><path d="M 13.03,16.57 L 13.03,17.77 L 14.02,18.26 L 14.02,19.43 L 13.99,19.46 L 13.10,19.00 L 13.03,19.00 L 13.03,21.44 L 14.02,21.93 L 14.02,20.77 L 14.06,20.73 L 15.05,21.23 L 15.05,24.94 L 16.00,25.40 L 16.00,21.69 L 15.05,21.19 L 15.05,18.75 L 14.02,18.23 L 14.02,17.02 L 13.10,16.57 Z" fill="#412a19" stroke="none" /><path d="M 0.00,16.18 L 0.00,18.61 L 0.92,19.07 L 0.99,19.14 L 0.99,21.55 L 1.98,22.04 L 1.98,19.60 L 1.06,19.14 L 0.99,19.07 L 0.99,16.64 L 0.07,16.18 Z" fill="#412a19" stroke="none" /><path d="M 3.99,15.68 L 3.99,16.92 L 4.98,17.41 L 4.98,16.18 Z" fill="#412a19" stroke="none" /><path d="M 6.00,15.47 L 6.00,16.71 L 9.01,18.19 L 9.01,16.95 Z" fill="#412a19" stroke="none" /><path d="M 0.00,10.03 L 0.00,11.23 L 0.92,11.69 L 0.99,11.76 L 0.99,14.20 L 1.98,14.69 L 1.98,18.40 L 2.90,18.86 L 2.97,18.86 L 2.97,13.95 L 2.05,13.49 L 1.98,13.42 L 1.98,12.22 L 1.06,11.76 L 0.99,11.69 L 0.99,10.53 Z" fill="#412a19" stroke="none" /><path d="M 29.03,16.42 L 28.96,16.42 L 19.00,21.40 L 18.97,21.44 L 18.97,23.91 L 19.96,23.42 L 19.96,22.22 L 20.03,22.15 L 27.94,18.19 L 28.01,18.23 L 28.01,19.39 L 29.03,18.90 Z" fill="#292929" stroke="none" /><path d="M 19.96,16.07 L 19.89,16.07 L 18.97,16.53 L 18.97,17.73 L 19.04,17.73 L 19.96,17.27 Z" fill="#292929" stroke="none" /><path d="M 21.97,15.05 L 20.98,15.54 L 20.98,16.74 L 21.97,16.25 Z" fill="#292929" stroke="none" /><path d="M 17.02,16.60 L 17.98,17.06 L 18.97,16.57 L 18.97,16.53 L 18.05,16.07 L 17.98,16.07 L 17.06,16.53 Z" fill="#775929" stroke="none" /><path d="M 13.03,16.53 L 13.03,16.57 L 14.02,17.06 L 14.98,16.60 L 14.94,16.53 L 14.02,16.07 L 13.95,16.07 Z" fill="#775929" stroke="none" /><path d="M 28.08,11.02 L 28.11,11.09 L 28.96,11.51 L 29.07,11.51 L 29.99,11.06 L 29.99,10.98 L 29.14,10.56 L 29.00,10.56 Z" fill="#775929" stroke="none" /><path d="M 2.01,10.98 L 2.01,11.06 L 2.93,11.51 L 3.04,11.51 L 3.92,11.06 L 3.92,11.02 L 3.00,10.56 L 2.86,10.56 Z" fill="#775929" stroke="none" /><path d="M 28.08,9.01 L 28.11,9.08 L 29.03,9.54 L 29.10,9.54 L 30.02,9.08 L 30.02,9.04 L 29.03,8.55 Z" fill="#775929" stroke="none" /><path d="M 3.92,9.01 L 2.97,8.55 L 1.98,9.04 L 1.98,9.08 L 2.90,9.54 L 2.97,9.54 L 3.89,9.08 Z" fill="#775929" stroke="none" /><path d="M 16.99,8.34 L 15.01,9.32 L 15.01,10.53 L 15.08,10.53 L 16.99,9.57 Z" fill="#2d2d2d" stroke="none" /><path d="M 23.98,23.88 L 23.91,23.88 L 21.97,24.87 L 21.97,26.07 L 23.98,25.08 Z" fill="#2e2e2e" stroke="none" /><path d="M 20.98,22.92 L 20.91,22.92 L 18.97,23.91 L 18.97,25.11 L 19.04,25.11 L 20.98,24.12 Z" fill="#2e2e2e" stroke="none" /><path d="M 25.01,19.67 L 24.94,19.67 L 22.99,20.66 L 22.99,21.90 L 25.01,20.91 Z" fill="#2e2e2e" stroke="none" /><path d="M 27.97,18.15 L 27.02,18.65 L 27.02,19.89 L 27.97,19.43 L 28.01,19.46 L 28.01,20.59 L 28.08,20.59 L 29.03,20.10 L 29.03,18.90 L 28.96,18.90 L 28.04,19.36 L 28.01,19.32 L 28.01,18.15 Z" fill="#2e2e2e" stroke="none" /><path d="M 20.98,15.54 L 19.96,16.04 L 19.96,17.24 L 20.03,17.24 L 20.98,16.74 Z" fill="#2e2e2e" stroke="none" /><path d="M 23.98,14.06 L 23.91,14.06 L 21.97,15.05 L 21.97,16.25 L 23.98,15.26 Z" fill="#2e2e2e" stroke="none" /><path d="M 29.03,11.51 L 26.03,13.00 L 26.00,13.03 L 26.00,14.23 L 29.00,12.75 L 29.03,12.72 Z" fill="#2e2e2e" stroke="none" /><path d="M 28.01,19.39 L 27.06,19.85 L 27.02,19.81 L 27.02,18.65 L 26.98,18.65 L 25.01,19.64 L 25.01,20.87 L 25.08,20.87 L 26.98,19.92 L 27.02,19.96 L 27.02,21.09 L 23.03,23.10 L 22.99,23.06 L 22.99,20.66 L 21.97,21.16 L 21.97,22.39 L 21.02,22.89 L 20.98,22.85 L 20.98,21.69 L 20.91,21.69 L 19.99,22.15 L 19.96,22.18 L 19.96,23.42 L 20.94,22.92 L 20.98,22.96 L 20.98,24.12 L 21.93,23.66 L 21.97,23.70 L 21.97,24.83 L 21.90,24.90 L 18.97,26.35 L 18.97,27.55 L 19.04,27.55 L 21.93,26.10 L 21.97,26.07 L 21.97,24.90 L 22.04,24.83 L 23.95,23.88 L 23.98,23.91 L 23.98,25.04 L 24.05,25.04 L 24.97,24.58 L 25.01,24.55 L 25.01,23.38 L 25.08,23.31 L 26.98,22.36 L 27.02,22.39 L 27.02,23.52 L 27.09,23.52 L 29.00,22.57 L 29.03,22.53 L 29.03,21.33 L 28.04,21.83 L 28.01,21.79 Z" fill="#323232" stroke="none" /><path d="M 19.96,17.27 L 19.89,17.27 L 18.97,17.73 L 18.97,18.97 L 19.04,18.97 L 19.96,18.51 Z" fill="#323232" stroke="none" /><path d="M 22.99,15.75 L 22.92,15.75 L 20.98,16.74 L 20.98,17.98 L 22.99,16.99 Z" fill="#323232" stroke="none" /><path d="M 29.03,12.72 L 26.07,14.20 L 26.00,14.16 L 26.00,13.03 L 25.96,13.03 L 23.98,14.02 L 23.98,15.22 L 24.05,15.22 L 25.96,14.27 L 26.00,14.30 L 26.00,15.47 L 26.03,15.47 L 29.00,13.99 L 29.03,13.95 Z" fill="#323232" stroke="none" /><path d="M 15.01,9.32 L 13.99,9.82 L 13.99,11.06 L 15.01,10.56 Z" fill="#333333" stroke="none" /><path d="M 18.01,7.84 L 17.94,7.84 L 16.99,8.34 L 16.99,9.54 L 17.06,9.54 L 18.01,9.04 Z" fill="#333333" stroke="none" /><path d="M 14.06,17.02 L 14.09,17.09 L 15.93,18.01 L 16.07,18.01 L 17.94,17.06 L 17.94,17.02 L 17.02,16.57 L 16.04,17.06 L 15.96,17.06 L 15.01,16.57 Z" fill="#947033" stroke="none" /><path d="M 29.07,10.56 L 29.99,11.02 L 30.06,11.02 L 31.96,10.07 L 31.96,10.03 L 30.09,9.08 L 29.95,9.08 L 29.10,9.50 L 29.10,9.57 L 30.02,10.03 L 29.95,10.10 L 29.07,10.53 Z" fill="#947033" stroke="none" /><path d="M 2.93,10.56 L 2.93,10.53 L 2.05,10.10 L 1.98,10.03 L 2.90,9.57 L 2.90,9.50 L 2.05,9.08 L 1.91,9.08 L 0.04,10.03 L 0.04,10.07 L 1.94,11.02 L 2.01,11.02 Z" fill="#947033" stroke="none" /><path d="M 21.97,23.63 L 18.97,25.11 L 18.97,26.35 L 19.04,26.35 L 21.93,24.90 L 21.97,24.87 Z" fill="#383838" stroke="none" /><path d="M 27.02,22.36 L 26.95,22.36 L 25.01,23.35 L 25.01,24.55 L 27.02,23.56 Z" fill="#383838" stroke="none" /><path d="M 21.97,21.19 L 21.90,21.19 L 20.98,21.65 L 20.98,22.89 L 21.05,22.89 L 21.97,22.43 Z" fill="#383838" stroke="none" /><path d="M 29.03,20.10 L 28.01,20.59 L 28.01,21.83 L 28.08,21.83 L 29.03,21.33 Z" fill="#383838" stroke="none" /><path d="M 27.02,19.89 L 23.03,21.86 L 22.99,21.90 L 22.99,23.10 L 23.06,23.10 L 27.02,21.12 Z" fill="#383838" stroke="none" /><path d="M 20.98,16.74 L 19.96,17.24 L 19.96,18.47 L 20.03,18.47 L 20.98,17.98 Z" fill="#383838" stroke="none" /><path d="M 26.00,14.23 L 22.99,15.72 L 22.99,16.95 L 23.06,16.95 L 25.96,15.51 L 26.00,15.47 Z" fill="#383838" stroke="none" /><path d="M 15.01,16.57 L 15.01,16.60 L 15.93,17.06 L 16.07,17.06 L 16.99,16.60 L 16.95,16.53 L 16.04,16.07 L 15.96,16.07 Z" fill="#806538" stroke="none" /><path d="M 28.08,10.03 L 28.08,10.07 L 29.00,10.53 L 29.14,10.53 L 30.06,10.07 L 30.02,10.00 L 29.10,9.54 L 29.03,9.54 Z" fill="#806538" stroke="none" /><path d="M 1.94,10.03 L 1.94,10.07 L 2.86,10.53 L 3.00,10.53 L 3.92,10.07 L 3.89,10.00 L 2.97,9.54 L 2.90,9.54 Z" fill="#806538" stroke="none" /><path d="M 9.96,9.40 L 9.01,9.85 L 9.01,11.09 L 9.08,11.09 L 9.96,10.63 Z" fill="#424242" stroke="none" /><path d="M 16.00,7.63 L 15.93,7.63 L 15.01,8.09 L 15.01,9.32 L 16.00,8.83 Z" fill="#424242" stroke="none" /><path d="M 11.97,4.70 L 10.98,5.19 L 10.98,6.43 L 11.97,5.93 Z" fill="#424242" stroke="none" /><path d="M 22.99,2.90 L 22.92,2.90 L 22.04,3.36 L 22.04,4.59 L 22.99,4.13 Z" fill="#424242" stroke="none" /><path d="M 15.01,1.98 L 13.99,2.47 L 13.99,3.67 L 14.06,3.67 L 15.01,3.18 Z" fill="#424242" stroke="none" /><path d="M 18.01,0.49 L 17.94,0.49 L 16.99,0.99 L 16.99,2.19 L 18.01,1.70 Z" fill="#424242" stroke="none" /><path d="M 21.02,0.18 L 20.03,0.67 L 20.03,1.91 L 21.02,1.41 Z" fill="#424242" stroke="none" /><path d="M 2.97,16.42 L 2.97,18.90 L 3.99,19.39 L 3.99,18.23 L 4.06,18.19 L 11.97,22.15 L 12.04,22.22 L 12.04,23.42 L 13.03,23.91 L 13.03,21.44 L 13.00,21.40 L 3.04,16.42 Z" fill="#434343" stroke="none" /><path d="M 4.98,12.54 L 4.98,13.74 L 6.00,14.23 L 6.00,13.03 L 5.05,12.54 Z" fill="#434343" stroke="none" /><path d="M 2.97,11.51 L 2.97,12.72 L 3.92,13.21 L 3.99,13.21 L 3.99,12.01 Z" fill="#434343" stroke="none" /><path d="M 6.00,22.85 L 6.00,24.05 L 7.95,25.04 L 8.02,25.04 L 8.02,23.84 Z" fill="#4a4a4a" stroke="none" /><path d="M 11.02,21.69 L 11.02,22.92 L 11.97,23.38 L 12.04,23.45 L 12.04,24.65 L 12.96,25.11 L 13.03,25.11 L 13.03,23.91 L 12.11,23.45 L 12.04,23.38 L 12.04,22.18 L 11.09,21.69 Z" fill="#4a4a4a" stroke="none" /><path d="M 6.99,19.67 L 6.99,20.91 L 9.01,21.90 L 9.01,20.66 L 7.06,19.67 Z" fill="#4a4a4a" stroke="none" /><path d="M 2.97,18.90 L 2.97,20.10 L 4.91,21.09 L 4.98,21.09 L 4.98,19.89 L 3.04,18.90 Z" fill="#4a4a4a" stroke="none" /><path d="M 10.03,15.05 L 10.03,16.25 L 10.07,16.28 L 12.96,17.73 L 13.03,17.73 L 13.03,16.53 Z" fill="#4a4a4a" stroke="none" /><path d="M 6.00,13.03 L 6.00,14.23 L 7.95,15.22 L 8.02,15.22 L 8.02,14.02 Z" fill="#4a4a4a" stroke="none" /><path d="M 3.99,12.04 L 3.99,13.25 L 4.91,13.70 L 4.98,13.70 L 4.98,12.50 L 4.06,12.04 Z" fill="#4a4a4a" stroke="none" /><path d="M 3.99,18.15 L 3.99,19.39 L 4.91,19.85 L 4.98,19.92 L 4.98,21.12 L 5.93,21.58 L 6.00,21.65 L 6.00,22.78 L 5.93,22.82 L 3.00,21.33 L 2.97,21.33 L 2.97,22.53 L 5.97,24.05 L 6.00,24.05 L 6.00,22.92 L 6.08,22.89 L 8.02,23.88 L 8.02,25.08 L 8.94,25.54 L 9.01,25.54 L 9.01,24.41 L 9.04,24.37 L 10.95,25.32 L 11.02,25.40 L 11.02,26.56 L 11.06,26.60 L 12.96,27.55 L 13.03,27.55 L 13.03,26.35 L 12.04,25.85 L 12.04,23.42 L 11.02,22.89 L 11.02,21.65 L 9.01,20.66 L 9.01,21.90 L 11.02,22.92 L 11.02,24.05 L 10.95,24.09 L 7.06,22.15 L 6.99,22.08 L 6.99,19.64 L 6.08,19.18 L 6.00,19.18 L 6.00,20.34 L 5.97,20.38 L 5.05,19.92 L 4.98,19.85 L 4.98,18.65 Z" fill="#515151" stroke="none" /><path d="M 8.02,14.06 L 8.02,15.26 L 9.96,16.21 L 10.03,16.28 L 10.03,17.48 L 10.07,17.52 L 12.96,18.97 L 13.03,18.97 L 13.03,17.73 L 10.10,16.28 L 10.03,16.21 L 10.03,15.05 L 8.09,14.06 Z" fill="#515151" stroke="none" /><path d="M 4.98,13.74 L 4.98,14.98 L 6.99,15.96 L 6.99,14.73 L 5.05,13.74 Z" fill="#515151" stroke="none" /><path d="M 2.97,12.72 L 2.97,13.95 L 3.92,14.45 L 3.99,14.45 L 3.99,13.21 Z" fill="#515151" stroke="none" /><path d="M 16.99,7.13 L 16.92,7.13 L 16.00,7.59 L 16.00,8.83 L 16.99,8.34 Z" fill="#555555" stroke="none" /><path d="M 22.04,0.92 L 21.97,0.92 L 21.02,1.41 L 21.02,2.61 L 20.03,3.11 L 20.03,4.34 L 19.00,4.87 L 19.00,6.08 L 18.93,6.15 L 18.01,6.60 L 18.01,9.04 L 19.00,8.55 L 19.00,7.35 L 19.04,7.31 L 19.99,6.85 L 20.03,6.89 L 20.03,8.02 L 20.10,8.02 L 22.04,7.03 L 22.04,4.59 L 21.05,5.09 L 21.02,5.05 L 21.02,2.65 L 22.04,2.12 Z" fill="#555555" stroke="none" /><path d="M 19.00,0.00 L 18.93,0.00 L 18.01,0.46 L 18.01,1.66 L 16.99,2.19 L 16.99,3.39 L 16.92,3.46 L 16.04,3.89 L 16.00,3.85 L 16.00,2.68 L 15.96,2.68 L 14.02,3.67 L 13.99,3.64 L 13.99,2.51 L 13.92,2.51 L 13.00,2.97 L 13.00,4.17 L 13.07,4.17 L 13.95,3.71 L 13.99,3.74 L 13.99,4.91 L 11.97,5.93 L 11.97,7.13 L 11.94,7.17 L 11.02,7.63 L 10.98,7.59 L 10.98,6.43 L 9.96,6.92 L 9.96,8.16 L 10.95,7.66 L 10.98,7.70 L 10.98,10.10 L 9.96,10.63 L 9.96,13.07 L 10.98,12.57 L 10.98,11.37 L 11.06,11.30 L 11.94,10.88 L 11.97,10.91 L 11.97,12.04 L 12.04,12.04 L 13.99,11.06 L 13.99,9.85 L 15.01,9.32 L 15.01,6.89 L 16.00,6.39 L 16.00,5.16 L 16.99,4.66 L 16.99,3.46 L 17.06,3.39 L 18.01,2.93 L 18.01,1.70 L 19.00,1.20 Z" fill="#555555" stroke="none" /><path d="M 12.04,24.65 L 12.04,25.89 L 12.96,26.35 L 13.03,26.35 L 13.03,25.11 L 12.11,24.65 Z" fill="#5c5c5c" stroke="none" /><path d="M 9.01,24.37 L 9.01,25.57 L 11.02,26.56 L 11.02,25.36 L 9.08,24.37 Z" fill="#5c5c5c" stroke="none" /><path d="M 6.99,20.91 L 6.99,22.11 L 7.03,22.15 L 11.02,24.12 L 11.02,22.89 L 7.06,20.91 Z" fill="#5c5c5c" stroke="none" /><path d="M 2.97,20.10 L 2.97,21.33 L 3.00,21.37 L 6.00,22.85 L 6.00,21.62 L 5.97,21.58 Z" fill="#5c5c5c" stroke="none" /><path d="M 4.98,18.65 L 4.98,19.89 L 5.93,20.38 L 6.00,20.38 L 6.00,19.14 Z" fill="#5c5c5c" stroke="none" /><path d="M 6.99,14.73 L 6.99,15.96 L 7.03,16.00 L 10.03,17.48 L 10.03,16.25 L 10.00,16.21 Z" fill="#5c5c5c" stroke="none" /><path d="M 3.99,13.25 L 3.99,14.48 L 4.91,14.94 L 4.98,14.94 L 4.98,13.70 L 4.06,13.25 Z" fill="#5c5c5c" stroke="none" /><path d="M 20.03,3.14 L 19.96,3.14 L 19.00,3.64 L 19.00,4.84 L 18.93,4.91 L 18.01,5.37 L 18.01,6.57 L 17.94,6.64 L 16.99,7.10 L 16.99,8.34 L 18.01,7.84 L 18.01,6.64 L 18.08,6.57 L 19.00,6.11 L 19.00,4.91 L 19.07,4.84 L 20.03,4.38 Z" fill="#5c5c5c" stroke="none" /><path d="M 22.04,8.02 L 21.02,7.52 L 10.98,12.54 L 10.98,12.57 L 12.01,13.07 L 22.04,8.05 Z" fill="#5e5e5e" stroke="none" /><path d="M 13.99,3.71 L 13.92,3.71 L 11.97,4.70 L 11.97,5.90 L 11.90,5.97 L 10.98,6.43 L 10.98,7.63 L 9.96,8.16 L 9.96,10.60 L 9.89,10.67 L 9.01,11.09 L 9.01,13.53 L 9.08,13.53 L 9.96,13.07 L 9.96,10.67 L 10.03,10.60 L 10.98,10.14 L 10.98,7.66 L 11.97,7.17 L 11.97,5.97 L 12.04,5.90 L 13.99,4.94 Z" fill="#656565" stroke="none" /><path d="M 22.04,2.12 L 21.05,2.61 L 21.02,2.58 L 21.02,1.41 L 20.06,1.87 L 20.03,1.84 L 20.03,0.67 L 19.99,0.67 L 18.01,1.66 L 18.01,2.90 L 17.02,3.39 L 16.99,3.36 L 16.99,0.99 L 15.05,1.94 L 15.01,1.98 L 15.01,3.18 L 15.96,2.72 L 16.00,2.75 L 16.00,3.89 L 15.93,3.96 L 15.01,4.42 L 15.01,5.62 L 13.99,6.15 L 13.99,7.35 L 13.92,7.42 L 13.00,7.88 L 13.00,9.08 L 12.93,9.15 L 11.97,9.61 L 11.97,10.81 L 11.90,10.88 L 10.98,11.34 L 10.98,12.54 L 11.06,12.54 L 11.97,12.08 L 11.97,10.88 L 12.04,10.81 L 13.00,10.35 L 13.00,9.15 L 13.07,9.08 L 13.99,8.62 L 13.99,7.42 L 14.06,7.35 L 14.98,6.89 L 15.01,6.92 L 15.01,8.09 L 15.08,8.09 L 17.98,6.64 L 18.01,6.60 L 18.01,5.40 L 18.08,5.33 L 19.00,4.87 L 19.00,3.67 L 19.07,3.60 L 20.98,2.65 L 21.02,2.68 L 21.02,5.09 L 20.03,5.58 L 20.03,6.78 L 19.96,6.85 L 19.00,7.31 L 19.00,8.55 L 20.03,8.05 L 20.03,6.85 L 20.10,6.78 L 21.02,6.32 L 21.02,5.12 L 21.97,4.63 L 22.04,4.66 L 22.04,7.03 L 22.99,6.57 L 22.99,4.13 L 22.92,4.13 L 22.11,4.56 L 22.04,4.52 Z" fill="#656565" stroke="none" /><path d="M 20.03,15.05 L 19.00,14.55 L 17.02,15.54 L 17.02,15.58 L 17.98,16.07 L 18.05,16.07 L 20.03,15.08 Z" fill="#676767" stroke="none" /><path d="M 16.00,15.05 L 14.98,14.55 L 13.00,15.54 L 13.00,15.58 L 13.95,16.07 L 14.02,16.07 L 16.00,15.08 Z" fill="#676767" stroke="none" /><path d="M 12.01,14.06 L 12.01,14.09 L 12.93,14.55 L 13.03,14.55 L 13.95,14.09 L 13.95,14.02 L 13.03,13.56 L 12.96,13.56 Z" fill="#676767" stroke="none" /><path d="M 14.02,13.03 L 14.06,13.10 L 14.98,13.56 L 16.00,13.07 L 16.00,13.03 L 15.08,12.57 L 14.94,12.57 Z" fill="#676767" stroke="none" /><path d="M 10.00,13.03 L 10.03,13.10 L 10.95,13.56 L 11.02,13.56 L 11.97,13.07 L 11.97,13.03 L 11.06,12.57 L 10.91,12.57 Z" fill="#676767" stroke="none" /><path d="M 8.97,12.54 L 8.97,12.57 L 9.01,12.57 L 9.01,12.54 Z" fill="#676767" stroke="none" /><path d="M 21.02,12.54 L 21.02,12.57 L 22.00,13.07 L 23.03,12.57 L 23.03,12.54 L 22.04,12.04 Z" fill="#676767" stroke="none" /><path d="M 3.96,11.02 L 3.99,11.09 L 4.91,11.55 L 4.98,11.55 L 5.93,11.06 L 5.93,11.02 L 5.02,10.56 L 4.87,10.56 Z" fill="#676767" stroke="none" /><path d="M 25.04,10.53 L 25.04,10.56 L 27.02,11.55 L 27.09,11.55 L 28.04,11.06 L 28.04,11.02 L 26.07,10.03 Z" fill="#676767" stroke="none" /><path d="M 8.94,9.50 L 8.02,9.04 L 7.91,9.04 L 6.00,10.00 L 5.97,10.07 L 6.89,10.53 L 7.03,10.53 L 8.94,9.57 Z" fill="#676767" stroke="none" /><path d="M 26.07,9.01 L 26.10,9.08 L 27.02,9.54 L 27.09,9.54 L 28.04,9.04 L 28.04,9.01 L 27.13,8.55 L 26.98,8.55 Z" fill="#676767" stroke="none" /><path d="M 3.96,9.01 L 3.99,9.08 L 4.91,9.54 L 4.98,9.54 L 5.93,9.04 L 5.93,9.01 L 5.02,8.55 L 4.87,8.55 Z" fill="#676767" stroke="none" /><path d="M 21.05,7.52 L 21.05,7.56 L 21.97,8.02 L 22.11,8.02 L 23.03,7.56 L 22.99,7.49 L 22.08,7.03 L 22.00,7.03 Z" fill="#676767" stroke="none" /><path d="M 18.05,16.04 L 18.05,16.11 L 18.90,16.53 L 19.04,16.53 L 19.96,16.07 L 19.92,16.00 L 19.07,15.58 L 18.97,15.58 Z" fill="#737373" stroke="none" /><path d="M 12.04,16.04 L 12.04,16.07 L 12.96,16.53 L 13.10,16.53 L 13.95,16.11 L 13.95,16.04 L 13.03,15.58 L 12.93,15.58 Z" fill="#737373" stroke="none" /><path d="M 22.00,13.03 L 21.09,12.57 L 20.94,12.57 L 18.05,14.02 L 18.05,14.09 L 18.97,14.55 L 19.07,14.55 L 21.97,13.10 Z" fill="#737373" stroke="none" /><path d="M 27.09,11.51 L 27.09,11.58 L 27.94,12.01 L 28.08,12.01 L 29.00,11.55 L 28.96,11.48 L 28.11,11.06 L 28.01,11.06 Z" fill="#737373" stroke="none" /><path d="M 19.04,11.51 L 19.04,11.58 L 19.96,12.04 L 20.06,12.04 L 20.98,11.58 L 20.98,11.51 L 20.06,11.06 L 19.96,11.06 Z" fill="#737373" stroke="none" /><path d="M 17.98,12.04 L 16.04,11.06 L 15.96,11.06 L 13.00,12.54 L 13.00,12.57 L 13.88,13.00 L 13.95,13.07 L 13.03,13.53 L 13.03,13.60 L 13.92,14.02 L 13.95,14.06 L 13.92,14.09 L 12.96,14.55 L 11.97,14.06 L 10.98,14.55 L 10.98,14.59 L 11.90,15.05 L 12.04,15.05 L 12.93,14.59 L 13.03,14.59 L 13.92,15.05 L 14.06,15.05 L 14.94,14.59 L 15.05,14.59 L 17.02,15.58 L 18.01,15.08 L 18.01,15.05 L 16.04,14.06 L 15.96,14.06 L 14.98,14.55 L 14.02,14.06 L 14.98,13.56 L 14.98,13.53 L 14.06,13.07 L 14.13,13.00 L 14.98,12.57 L 15.05,12.57 L 15.93,13.03 L 16.07,13.03 L 17.98,12.08 Z" fill="#737373" stroke="none" /><path d="M 8.94,11.51 L 8.02,11.06 L 7.91,11.06 L 6.00,12.01 L 5.97,12.08 L 6.89,12.54 L 7.03,12.54 L 8.94,11.58 Z" fill="#737373" stroke="none" /><path d="M 3.00,11.51 L 3.00,11.55 L 3.92,12.01 L 4.06,12.01 L 4.91,11.58 L 4.91,11.51 L 3.99,11.06 L 3.89,11.06 Z" fill="#737373" stroke="none" /><path d="M 18.01,10.03 L 18.01,10.07 L 19.00,10.56 L 20.03,10.07 L 20.03,10.03 L 19.04,9.54 Z" fill="#737373" stroke="none" /><path d="M 21.02,10.53 L 21.02,10.56 L 22.00,11.06 L 23.98,10.07 L 24.09,10.07 L 24.97,10.53 L 24.94,10.60 L 22.08,12.01 L 22.04,12.08 L 22.96,12.54 L 23.10,12.54 L 25.04,11.55 L 26.00,12.04 L 26.10,12.04 L 27.02,11.58 L 27.02,11.51 L 25.11,10.56 L 25.15,10.49 L 27.02,9.57 L 27.02,9.50 L 26.10,9.04 L 26.00,9.04 L 25.04,9.54 L 24.09,9.04 L 23.98,9.04 Z" fill="#737373" stroke="none" /><path d="M 5.90,9.04 L 4.98,9.50 L 4.98,9.57 L 5.90,10.03 L 5.83,10.10 L 4.94,10.53 L 4.94,10.56 L 5.97,11.06 L 6.96,10.56 L 6.96,10.53 L 6.08,10.10 L 6.00,10.03 L 6.92,9.57 L 6.92,9.50 L 6.00,9.04 Z" fill="#737373" stroke="none" /><path d="M 27.06,8.51 L 27.06,8.55 L 28.04,9.04 L 29.00,8.58 L 28.96,8.51 L 28.04,8.05 L 27.97,8.05 Z" fill="#737373" stroke="none" /><path d="M 3.00,8.58 L 3.96,9.04 L 4.94,8.55 L 4.94,8.51 L 4.03,8.05 L 3.96,8.05 L 3.04,8.51 Z" fill="#737373" stroke="none" /><path d="M 9.96,7.03 L 7.95,8.02 L 7.95,8.05 L 8.94,8.55 L 9.96,8.05 Z" fill="#737373" stroke="none" /><path d="M 22.08,6.99 L 22.08,7.06 L 22.99,7.52 L 23.10,7.52 L 24.02,7.06 L 24.02,6.99 L 23.10,6.53 L 22.99,6.53 Z" fill="#737373" stroke="none" /><path d="M 13.00,3.57 L 12.93,3.57 L 12.08,3.99 L 12.04,4.06 L 12.61,4.34 L 12.72,4.34 L 13.00,4.20 Z" fill="#737373" stroke="none" /><path d="M 11.97,15.05 L 11.97,15.08 L 12.96,15.58 L 13.99,15.08 L 13.99,15.05 L 13.00,14.55 Z" fill="#7d7d7d" stroke="none" /><path d="M 7.98,13.03 L 8.02,13.10 L 10.91,14.55 L 11.06,14.55 L 13.99,13.07 L 13.99,13.03 L 13.07,12.57 L 12.93,12.57 L 10.98,13.56 L 10.03,13.07 L 9.92,13.07 L 9.04,13.53 L 9.01,13.49 L 9.01,12.57 L 8.90,12.57 Z" fill="#7d7d7d" stroke="none" /><path d="M 26.03,12.04 L 25.08,11.55 L 25.01,11.55 L 19.04,14.55 L 18.05,14.06 L 18.97,13.60 L 18.97,13.53 L 18.05,13.07 L 17.94,13.07 L 16.04,14.02 L 16.04,14.09 L 17.94,15.05 L 18.08,15.05 L 18.97,14.59 L 19.07,14.59 L 19.96,15.05 L 20.10,15.05 L 26.03,12.08 Z" fill="#7d7d7d" stroke="none" /><path d="M 4.98,11.51 L 4.98,11.58 L 5.90,12.04 L 6.00,12.04 L 6.92,11.58 L 6.92,11.51 L 6.00,11.06 L 5.90,11.06 Z" fill="#7d7d7d" stroke="none" /><path d="M 23.03,10.53 L 23.03,10.56 L 24.02,11.06 L 25.04,10.56 L 25.04,10.53 L 24.05,10.03 Z" fill="#7d7d7d" stroke="none" /><path d="M 27.06,8.51 L 26.07,8.02 L 25.08,8.51 L 25.01,8.51 L 24.16,8.09 L 24.12,8.02 L 25.04,7.56 L 25.04,7.52 L 24.09,7.03 L 24.02,7.03 L 22.04,8.02 L 22.04,8.05 L 22.92,8.48 L 22.99,8.55 L 22.96,8.58 L 17.06,11.51 L 17.02,11.58 L 18.93,12.54 L 19.07,12.54 L 19.96,12.08 L 20.06,12.08 L 20.94,12.54 L 21.09,12.54 L 22.99,11.58 L 22.99,11.51 L 21.12,10.60 L 21.09,10.56 L 21.12,10.49 L 24.02,9.04 L 25.01,9.54 L 25.08,9.54 L 27.06,8.55 Z" fill="#7d7d7d" stroke="none" /><path d="M 10.98,5.51 L 4.94,8.51 L 4.94,8.55 L 6.92,9.54 L 6.99,9.54 L 7.95,9.04 L 8.90,9.50 L 8.94,9.54 L 8.90,9.57 L 7.98,10.03 L 7.98,10.07 L 8.87,10.49 L 8.90,10.56 L 7.98,11.02 L 7.98,11.06 L 8.94,11.55 L 9.01,11.55 L 9.01,9.89 L 9.96,9.40 L 9.96,8.05 L 9.89,8.05 L 9.01,8.51 L 8.90,8.51 L 8.05,8.09 L 8.02,8.02 L 9.92,7.06 L 10.00,6.92 L 10.95,6.46 L 10.98,6.43 Z" fill="#7d7d7d" stroke="none" /><path d="M 21.02,12.54 L 20.03,12.04 L 19.04,12.54 L 18.97,12.54 L 17.98,12.04 L 14.02,14.02 L 14.02,14.09 L 14.94,14.55 L 15.05,14.55 L 17.98,13.07 L 18.97,13.56 L 19.04,13.56 L 21.02,12.57 Z" fill="#8d8d8d" stroke="none" /><path d="M 28.01,12.01 L 27.09,11.55 L 27.02,11.55 L 19.04,15.54 L 19.04,15.58 L 19.92,16.04 L 20.03,16.04 L 28.01,12.04 Z" fill="#8d8d8d" stroke="none" /><path d="M 3.99,12.01 L 3.99,12.04 L 11.97,16.04 L 12.08,16.04 L 12.96,15.58 L 12.96,15.54 L 8.02,13.07 L 8.09,13.00 L 9.01,12.54 L 9.01,11.55 L 8.94,11.55 L 6.99,12.54 L 6.92,12.54 L 4.98,11.55 L 4.91,11.55 Z" fill="#8d8d8d" stroke="none" /><path d="M 22.04,11.02 L 22.08,11.09 L 22.99,11.55 L 23.06,11.55 L 24.02,11.06 L 24.02,11.02 L 23.10,10.56 L 22.96,10.56 Z" fill="#8d8d8d" stroke="none" /><path d="M 19.00,10.53 L 18.08,10.07 L 17.94,10.07 L 16.04,11.02 L 16.04,11.09 L 16.95,11.55 L 17.06,11.55 L 18.97,10.60 Z" fill="#8d8d8d" stroke="none" /><path d="M 8.97,10.53 L 7.95,10.03 L 5.97,11.02 L 5.97,11.06 L 6.92,11.55 L 6.99,11.55 L 8.97,10.56 Z" fill="#8d8d8d" stroke="none" /><path d="M 23.03,8.51 L 22.11,8.05 L 21.97,8.05 L 19.07,9.50 L 19.04,9.57 L 19.96,10.03 L 20.10,10.03 L 22.99,8.58 Z" fill="#8d8d8d" stroke="none" /><path d="M 22.99,5.55 L 22.99,6.53 L 23.06,6.53 L 25.01,7.52 L 24.94,7.59 L 24.05,8.02 L 24.05,8.05 L 24.97,8.51 L 25.11,8.51 L 26.00,8.05 L 26.10,8.05 L 26.98,8.51 L 27.13,8.51 L 27.97,8.09 L 27.97,8.02 Z" fill="#8d8d8d" stroke="none" /><path d="M 12.64,4.34 L 12.01,4.03 L 4.03,8.02 L 4.03,8.09 L 4.87,8.51 L 5.02,8.51 L 10.95,5.55 L 10.98,5.51 L 10.98,5.23 L 11.06,5.16 L 12.64,4.38 Z" fill="#8d8d8d" stroke="none" /></svg>