<svg height="32" width="32" viewBox="0 0 32 32"><defs /><path d="M 15.27,28.31 L 14.41,28.72 L 14.41,30.95 L 15.27,30.54 Z" fill="#392e1a" stroke="none" /><path d="M 15.27,25.00 L 15.20,25.00 L 14.41,25.42 L 14.41,26.53 L 15.27,26.12 Z" fill="#392e1a" stroke="none" /><path d="M 28.82,11.58 L 28.76,11.58 L 27.93,11.99 L 27.93,14.22 L 28.82,13.77 Z" fill="#392e1a" stroke="none" /><path d="M 28.82,17.11 L 28.76,17.11 L 27.93,17.53 L 27.93,19.75 L 27.99,19.75 L 28.82,19.34 Z" fill="#3c311a" stroke="none" /><path d="M 28.82,14.89 L 27.93,15.33 L 27.93,16.45 L 28.82,16.00 Z" fill="#3c311a" stroke="none" /><path d="M 15.27,30.54 L 15.20,30.54 L 14.41,30.95 L 14.41,32.00 L 14.47,32.00 L 15.27,31.59 Z" fill="#3a2e1b" stroke="none" /><path d="M 15.27,23.89 L 15.20,23.89 L 14.41,24.30 L 14.41,25.42 L 15.27,25.00 Z" fill="#3a2e1b" stroke="none" /><path d="M 15.27,19.44 L 14.41,19.85 L 14.41,23.19 L 14.47,23.19 L 15.27,22.78 Z" fill="#3a2e1b" stroke="none" /><path d="M 15.27,13.96 L 15.20,13.96 L 14.41,14.38 L 14.41,16.54 L 15.27,16.13 Z" fill="#3a2e1b" stroke="none" /><path d="M 16.19,20.10 L 16.13,20.10 L 15.27,20.55 L 15.27,22.78 L 16.19,22.33 Z" fill="#3c301b" stroke="none" /><path d="M 16.19,28.98 L 16.13,28.98 L 15.27,29.42 L 15.27,30.50 L 15.33,30.50 L 16.19,30.06 Z" fill="#3d301b" stroke="none" /><path d="M 16.19,16.76 L 15.27,17.21 L 15.27,19.44 L 16.19,18.99 Z" fill="#3d301b" stroke="none" /><path d="M 27.90,20.87 L 27.04,21.31 L 27.04,23.54 L 27.86,23.13 L 27.93,23.16 L 27.93,25.26 L 27.96,25.26 L 28.82,24.81 L 28.82,22.65 L 27.99,23.06 L 27.93,23.03 L 27.93,20.87 Z" fill="#3c311b" stroke="none" /><path d="M 15.27,26.12 L 15.20,26.12 L 14.41,26.53 L 14.41,28.72 L 14.47,28.72 L 15.27,28.31 Z" fill="#3d311b" stroke="none" /><path d="M 15.27,22.78 L 14.41,23.19 L 14.41,24.30 L 15.27,23.89 Z" fill="#3d311c" stroke="none" /><path d="M 15.27,16.13 L 15.20,16.13 L 14.41,16.54 L 14.41,18.77 L 15.27,18.35 Z" fill="#3d311c" stroke="none" /><path d="M 28.82,19.34 L 28.76,19.34 L 27.93,19.75 L 27.93,20.87 L 28.82,20.42 Z" fill="#3e331c" stroke="none" /><path d="M 28.82,9.35 L 28.76,9.35 L 27.93,9.77 L 27.93,10.88 L 27.99,10.88 L 28.82,10.47 Z" fill="#3f331c" stroke="none" /><path d="M 16.19,30.06 L 15.27,30.50 L 15.27,31.59 L 16.19,31.14 Z" fill="#40331d" stroke="none" /><path d="M 17.08,27.42 L 17.02,27.42 L 16.19,27.83 L 16.19,28.95 L 16.25,28.95 L 17.08,28.53 Z" fill="#40331d" stroke="none" /><path d="M 16.19,24.52 L 15.27,24.97 L 15.27,26.08 L 15.33,26.08 L 16.19,25.64 Z" fill="#40331d" stroke="none" /><path d="M 16.19,22.33 L 16.13,22.33 L 15.27,22.78 L 15.27,23.86 L 15.33,23.86 L 16.19,23.41 Z" fill="#40331d" stroke="none" /><path d="M 28.82,21.53 L 27.93,21.98 L 27.93,23.09 L 28.82,22.65 Z" fill="#40331d" stroke="none" /><path d="M 15.20,18.35 L 14.41,18.77 L 14.41,19.85 L 14.47,19.85 L 15.24,19.47 L 15.27,19.50 L 15.27,20.55 L 15.30,20.55 L 16.19,20.10 L 16.19,18.99 L 16.13,18.99 L 15.30,19.40 L 15.27,19.37 L 15.27,18.35 Z" fill="#40331d" stroke="none" /><path d="M 16.19,13.49 L 15.27,13.93 L 15.27,17.21 L 15.33,17.21 L 16.19,16.76 Z" fill="#40331d" stroke="none" /><path d="M 16.19,27.86 L 16.13,27.86 L 15.27,28.31 L 15.27,29.42 L 16.19,28.98 Z" fill="#40341d" stroke="none" /><path d="M 17.08,26.31 L 17.02,26.31 L 16.19,26.72 L 16.19,27.83 L 16.25,27.83 L 17.08,27.42 Z" fill="#40331e" stroke="none" /><path d="M 27.04,21.31 L 26.15,21.76 L 26.15,22.84 L 26.08,22.90 L 25.22,23.32 L 25.22,25.54 L 26.15,25.10 L 26.15,24.02 L 26.21,23.95 L 27.04,23.54 Z" fill="#40331e" stroke="none" /><path d="M 28.82,20.42 L 27.93,20.87 L 27.93,21.98 L 28.82,21.53 Z" fill="#40331e" stroke="none" /><path d="M 28.82,16.00 L 27.93,16.45 L 27.93,17.53 L 27.04,17.97 L 27.04,20.20 L 27.10,20.20 L 27.93,19.79 L 27.93,17.56 L 28.82,17.11 Z" fill="#40331e" stroke="none" /><path d="M 17.97,14.76 L 17.08,15.20 L 17.08,18.51 L 17.15,18.51 L 17.97,18.10 Z" fill="#40331e" stroke="none" /><path d="M 28.82,13.77 L 27.93,14.22 L 27.93,15.33 L 28.82,14.89 Z" fill="#40331e" stroke="none" /><path d="M 27.04,10.24 L 26.97,10.24 L 26.15,10.66 L 26.15,12.88 L 26.21,12.88 L 27.04,12.47 Z" fill="#40331e" stroke="none" /><path d="M 28.82,8.24 L 27.93,8.68 L 27.93,9.77 L 27.99,9.77 L 28.82,9.35 Z" fill="#40331e" stroke="none" /><path d="M 17.97,22.52 L 17.08,22.97 L 17.08,25.19 L 17.97,24.75 Z" fill="#42361f" stroke="none" /><path d="M 27.01,14.66 L 26.15,15.11 L 26.15,17.34 L 27.01,16.92 L 27.04,16.95 L 27.04,17.97 L 27.10,17.97 L 27.93,17.56 L 27.93,16.45 L 27.10,16.86 L 27.04,16.83 L 27.04,14.66 Z" fill="#42361f" stroke="none" /><path d="M 17.08,21.88 L 17.02,21.88 L 16.19,22.30 L 16.19,23.41 L 17.08,22.97 Z" fill="#443720" stroke="none" /><path d="M 16.19,26.75 L 16.13,26.75 L 15.27,27.20 L 15.27,28.31 L 16.19,27.86 Z" fill="#443820" stroke="none" /><path d="M 16.19,23.41 L 15.27,23.86 L 15.27,24.97 L 15.33,24.97 L 16.19,24.52 Z" fill="#453820" stroke="none" /><path d="M 25.22,21.12 L 24.33,21.57 L 24.33,23.76 L 23.48,24.21 L 23.41,24.17 L 23.41,22.04 L 23.35,22.04 L 22.55,22.46 L 22.52,22.43 L 22.52,21.38 L 22.46,21.38 L 21.60,21.82 L 21.60,24.02 L 21.66,24.02 L 22.49,23.60 L 22.52,23.63 L 22.52,24.68 L 23.35,24.27 L 23.41,24.30 L 23.41,26.43 L 23.48,26.43 L 24.33,25.99 L 24.33,23.79 L 25.22,23.35 Z" fill="#453820" stroke="none" /><path d="M 25.22,16.70 L 25.16,16.70 L 24.33,17.11 L 24.33,19.34 L 25.22,18.89 Z" fill="#453820" stroke="none" /><path d="M 17.08,14.12 L 17.02,14.12 L 16.19,14.54 L 16.19,18.96 L 16.25,18.96 L 17.05,18.54 L 17.08,18.58 L 17.08,20.74 L 16.19,21.18 L 16.19,22.30 L 16.25,22.30 L 17.08,21.88 L 17.08,20.77 L 17.97,20.33 L 17.97,18.10 L 18.89,17.62 L 18.89,15.43 L 18.83,15.43 L 17.97,15.87 L 17.97,18.07 L 17.11,18.51 L 17.08,18.48 Z" fill="#453820" stroke="none" /><path d="M 19.79,11.71 L 19.72,11.71 L 18.89,12.12 L 18.89,14.28 L 18.96,14.28 L 19.79,13.87 Z" fill="#453820" stroke="none" /><path d="M 27.93,23.09 L 26.15,23.98 L 26.15,25.07 L 26.21,25.07 L 27.01,24.65 L 27.04,24.68 L 27.04,25.70 L 27.93,25.26 Z" fill="#443822" stroke="none" /><path d="M 27.93,19.79 L 27.86,19.79 L 26.15,20.64 L 26.15,21.73 L 26.08,21.79 L 25.22,22.20 L 25.22,23.32 L 25.29,23.32 L 26.15,22.87 L 26.15,21.79 L 26.21,21.73 L 27.93,20.87 Z" fill="#443822" stroke="none" /><path d="M 27.93,9.80 L 27.86,9.80 L 27.04,10.21 L 27.04,13.52 L 26.97,13.58 L 26.15,14.00 L 26.15,15.11 L 26.97,14.70 L 27.04,14.73 L 27.04,16.89 L 27.93,16.45 Z" fill="#443822" stroke="none" /><path d="M 17.08,28.53 L 17.02,28.53 L 16.19,28.95 L 16.19,30.06 L 17.08,29.61 Z" fill="#463822" stroke="none" /><path d="M 17.97,20.33 L 17.91,20.33 L 17.08,20.74 L 17.08,22.97 L 17.97,22.52 Z" fill="#463822" stroke="none" /><path d="M 19.79,13.87 L 19.72,13.87 L 18.89,14.28 L 18.89,16.51 L 18.96,16.51 L 19.79,16.10 Z" fill="#463822" stroke="none" /><path d="M 28.82,10.47 L 28.76,10.47 L 27.93,10.88 L 27.93,11.99 L 27.99,11.99 L 28.82,11.58 Z" fill="#463822" stroke="none" /><path d="M 28.82,7.19 L 28.76,7.19 L 27.93,7.60 L 27.93,8.65 L 27.86,8.72 L 27.10,9.10 L 27.04,9.07 L 27.04,8.08 L 26.97,8.08 L 26.15,8.49 L 26.15,10.66 L 26.21,10.66 L 27.93,9.80 L 27.93,8.72 L 27.99,8.65 L 28.82,8.24 Z" fill="#463822" stroke="none" /><path d="M 18.89,23.19 L 18.83,23.19 L 17.97,23.63 L 17.97,25.83 L 18.04,25.83 L 18.89,25.38 Z" fill="#473922" stroke="none" /><path d="M 24.33,22.68 L 24.27,22.68 L 23.41,23.13 L 23.41,24.24 L 24.33,23.79 Z" fill="#483a22" stroke="none" /><path d="M 17.97,28.09 L 17.91,28.09 L 17.08,28.50 L 17.08,29.61 L 17.97,29.17 Z" fill="#473923" stroke="none" /><path d="M 26.15,19.56 L 26.08,19.56 L 25.22,20.01 L 25.22,21.12 L 26.15,20.68 Z" fill="#473923" stroke="none" /><path d="M 17.05,22.97 L 16.19,23.41 L 16.19,26.72 L 16.25,26.72 L 17.05,26.31 L 17.08,26.34 L 17.08,28.50 L 17.15,28.50 L 17.97,28.09 L 17.97,24.75 L 17.15,25.16 L 17.08,25.13 L 17.08,22.97 Z" fill="#473a23" stroke="none" /><path d="M 23.41,19.82 L 23.35,19.82 L 22.52,20.23 L 22.52,21.34 L 22.58,21.34 L 23.41,20.93 Z" fill="#473a23" stroke="none" /><path d="M 20.71,15.62 L 19.79,16.06 L 19.79,22.71 L 19.85,22.71 L 20.71,22.27 Z" fill="#473a23" stroke="none" /><path d="M 26.15,15.11 L 25.22,15.55 L 25.22,20.01 L 26.15,19.56 Z" fill="#473a23" stroke="none" /><path d="M 24.33,11.58 L 23.41,12.02 L 23.41,15.36 L 24.33,14.92 Z" fill="#473a23" stroke="none" /><path d="M 16.19,25.64 L 15.27,26.08 L 15.27,27.20 L 16.19,26.75 Z" fill="#483a23" stroke="none" /><path d="M 25.22,23.35 L 25.16,23.35 L 24.33,23.76 L 24.33,27.04 L 24.40,27.04 L 26.15,26.15 L 26.15,25.10 L 26.08,25.10 L 25.29,25.51 L 25.22,25.48 Z" fill="#493b23" stroke="none" /><path d="M 20.71,22.27 L 18.89,23.16 L 18.89,26.47 L 18.83,26.53 L 17.97,26.94 L 17.97,30.22 L 18.04,30.22 L 19.79,29.33 L 19.79,28.28 L 20.71,27.80 L 20.71,26.72 L 21.57,26.27 L 21.60,26.31 L 21.60,28.41 L 21.66,28.41 L 22.52,27.96 L 22.52,23.57 L 21.60,24.02 L 21.60,25.13 L 20.71,25.57 L 20.71,26.69 L 19.85,27.13 L 19.79,27.10 L 19.79,24.97 L 19.85,24.91 L 20.71,24.49 Z" fill="#493b23" stroke="none" /><path d="M 22.49,19.15 L 21.60,19.59 L 21.60,21.82 L 22.49,21.38 L 22.52,21.41 L 22.52,22.46 L 22.58,22.46 L 23.41,22.04 L 23.41,20.93 L 23.35,20.93 L 22.55,21.34 L 22.52,21.31 L 22.52,19.15 Z" fill="#493b23" stroke="none" /><path d="M 27.04,19.12 L 26.97,19.12 L 26.15,19.53 L 26.15,20.64 L 25.22,21.12 L 25.22,22.20 L 25.29,22.20 L 26.15,21.76 L 26.15,20.68 L 27.04,20.23 Z" fill="#493b23" stroke="none" /><path d="M 17.08,18.54 L 17.02,18.54 L 16.19,18.96 L 16.19,21.18 L 16.25,21.18 L 17.08,20.77 Z" fill="#493b23" stroke="none" /><path d="M 24.33,14.92 L 24.27,14.92 L 23.41,15.36 L 23.41,17.59 L 25.22,16.70 L 25.22,15.59 L 25.16,15.59 L 24.37,16.00 L 24.33,15.97 Z" fill="#493b23" stroke="none" /><path d="M 17.97,12.60 L 16.19,13.49 L 16.19,14.54 L 16.25,14.54 L 17.05,14.12 L 17.08,14.16 L 17.08,15.20 L 17.97,14.76 Z" fill="#493b23" stroke="none" /><path d="M 23.41,9.89 L 23.35,9.89 L 22.52,10.31 L 22.52,11.36 L 22.46,11.42 L 21.60,11.83 L 21.60,12.91 L 21.53,12.98 L 20.71,13.39 L 20.71,17.81 L 20.77,17.81 L 21.60,17.40 L 21.60,15.20 L 21.66,15.14 L 22.52,14.73 L 22.52,11.42 L 22.58,11.36 L 23.41,10.94 Z" fill="#493b23" stroke="none" /><path d="M 26.15,8.52 L 26.08,8.52 L 25.22,8.97 L 25.22,12.25 L 26.15,11.80 Z" fill="#493b23" stroke="none" /><path d="M 27.93,7.63 L 27.86,7.63 L 27.04,8.05 L 27.04,9.13 L 27.93,8.68 Z" fill="#493b23" stroke="none" /><path d="M 18.89,25.38 L 17.97,25.83 L 17.97,26.94 L 18.04,26.94 L 18.89,26.50 Z" fill="#4a3c24" stroke="none" /><path d="M 19.79,21.63 L 19.72,21.63 L 18.89,22.04 L 18.89,23.16 L 18.96,23.16 L 19.79,22.74 Z" fill="#4a3c24" stroke="none" /><path d="M 21.60,17.40 L 21.53,17.40 L 20.71,17.81 L 20.71,18.93 L 20.77,18.93 L 21.60,18.51 Z" fill="#4a3d25" stroke="none" /><path d="M 22.52,14.73 L 22.46,14.73 L 21.60,15.17 L 21.60,16.25 L 21.66,16.25 L 22.52,15.81 Z" fill="#4a3d25" stroke="none" /><path d="M 21.60,24.05 L 21.53,24.05 L 20.71,24.46 L 20.71,25.57 L 19.79,26.05 L 19.79,27.17 L 20.71,26.72 L 20.71,25.61 L 21.60,25.16 Z" fill="#4b3e26" stroke="none" /><path d="M 19.79,20.52 L 17.97,21.41 L 17.97,23.63 L 18.89,23.19 L 18.89,22.08 L 19.79,21.63 Z" fill="#4b3e26" stroke="none" /><path d="M 25.22,18.89 L 24.33,19.34 L 24.33,21.57 L 25.22,21.12 Z" fill="#4b3e26" stroke="none" /><path d="M 21.60,18.51 L 21.53,18.51 L 20.71,18.93 L 20.71,20.04 L 20.77,20.04 L 21.60,19.63 Z" fill="#4b3e26" stroke="none" /><path d="M 18.89,17.62 L 17.97,18.07 L 17.97,19.18 L 18.04,19.18 L 18.89,18.74 Z" fill="#4b3e26" stroke="none" /><path d="M 24.33,17.15 L 24.27,17.15 L 23.41,17.59 L 23.41,18.70 L 24.33,18.26 Z" fill="#4b3e26" stroke="none" /><path d="M 22.52,15.81 L 21.60,16.25 L 21.60,17.37 L 21.66,17.37 L 22.52,16.92 Z" fill="#4b3e26" stroke="none" /><path d="M 18.89,14.31 L 18.83,14.31 L 17.97,14.76 L 17.97,15.87 L 18.89,15.43 Z" fill="#4b3e26" stroke="none" /><path d="M 21.60,11.86 L 21.53,11.86 L 20.71,12.28 L 20.71,13.39 L 21.60,12.95 Z" fill="#4b3e26" stroke="none" /><path d="M 26.15,11.80 L 26.08,11.80 L 25.22,12.25 L 25.22,13.36 L 26.15,12.91 Z" fill="#4b3e26" stroke="none" /><path d="M 23.41,10.94 L 22.52,11.39 L 22.52,12.47 L 22.58,12.47 L 23.41,12.06 Z" fill="#4b3e26" stroke="none" /><path d="M 20.71,14.50 L 19.79,14.95 L 19.79,16.06 L 19.85,16.06 L 20.71,15.62 Z" fill="#4b3e27" stroke="none" /><path d="M 17.97,29.17 L 16.19,30.06 L 16.19,31.11 L 16.25,31.11 L 17.97,30.25 Z" fill="#4c3e27" stroke="none" /><path d="M 21.60,26.27 L 21.53,26.27 L 20.71,26.69 L 20.71,27.77 L 20.64,27.83 L 19.79,28.25 L 19.79,29.33 L 21.60,28.44 Z" fill="#4c3e27" stroke="none" /><path d="M 23.41,25.35 L 22.52,25.80 L 22.52,27.96 L 24.33,27.07 L 24.33,25.99 L 23.44,26.43 L 23.41,26.40 Z" fill="#4c3e27" stroke="none" /><path d="M 27.04,24.65 L 26.97,24.65 L 26.15,25.07 L 26.15,26.15 L 27.04,25.70 Z" fill="#4c3e27" stroke="none" /><path d="M 21.60,21.82 L 20.71,22.27 L 20.71,24.46 L 19.79,24.94 L 19.79,26.05 L 20.71,25.61 L 20.71,24.49 L 21.60,24.05 Z" fill="#4c3e27" stroke="none" /><path d="M 18.89,18.74 L 17.97,19.18 L 17.97,21.41 L 18.04,21.41 L 19.79,20.52 L 19.79,19.40 L 18.93,19.82 L 18.89,19.79 Z" fill="#4c3e27" stroke="none" /><path d="M 22.49,16.92 L 21.60,17.37 L 21.60,19.59 L 21.66,19.59 L 23.38,18.74 L 23.41,18.77 L 23.41,20.90 L 23.48,20.90 L 24.33,20.45 L 24.33,18.26 L 24.27,18.26 L 23.44,18.67 L 23.41,18.64 L 23.41,17.59 L 22.55,18.00 L 22.52,17.97 L 22.52,16.92 Z" fill="#4c3e27" stroke="none" /><path d="M 27.04,16.89 L 26.15,17.34 L 26.15,19.53 L 26.21,19.53 L 27.04,19.12 Z" fill="#4c3e27" stroke="none" /><path d="M 19.79,16.10 L 19.72,16.10 L 18.89,16.51 L 18.89,17.62 L 19.79,17.18 Z" fill="#4c3e27" stroke="none" /><path d="M 27.04,12.47 L 26.97,12.47 L 24.37,13.77 L 24.33,13.81 L 24.33,14.89 L 24.40,14.89 L 25.19,14.47 L 25.22,14.50 L 25.22,15.55 L 25.29,15.55 L 26.12,15.14 L 26.15,15.11 L 26.15,14.03 L 26.21,13.96 L 27.04,13.55 Z" fill="#4c3e27" stroke="none" /><path d="M 18.89,12.15 L 18.83,12.15 L 17.97,12.60 L 17.97,14.76 L 18.89,14.31 Z" fill="#4c3e27" stroke="none" /><path d="M 22.52,10.34 L 22.46,10.34 L 19.79,11.67 L 19.79,14.95 L 19.85,14.95 L 20.71,14.50 L 20.71,12.31 L 22.52,11.39 Z" fill="#4c3e27" stroke="none" /><path d="M 25.22,8.97 L 23.41,9.86 L 23.41,12.02 L 22.52,12.47 L 22.52,15.81 L 23.41,15.36 L 23.41,12.06 L 24.33,11.58 L 24.33,10.50 L 25.22,10.05 Z" fill="#4c3e27" stroke="none" /><path d="M 24.33,20.45 L 23.41,20.90 L 23.41,23.13 L 24.33,22.68 Z" fill="#4b3f27" stroke="none" /><path d="M 25.22,14.47 L 25.16,14.47 L 24.33,14.89 L 24.33,16.00 L 24.40,16.00 L 25.22,15.59 Z" fill="#4c4028" stroke="none" /><path d="M 23.41,24.24 L 22.52,24.68 L 22.52,25.80 L 23.41,25.35 Z" fill="#4d4028" stroke="none" /><path d="M 21.60,19.63 L 21.53,19.63 L 20.71,20.04 L 20.71,22.27 L 21.60,21.82 Z" fill="#4d4028" stroke="none" /><path d="M 23.41,18.70 L 22.52,19.15 L 22.52,20.23 L 22.58,20.23 L 23.41,19.82 Z" fill="#4d4028" stroke="none" /><path d="M 19.79,17.18 L 18.89,17.62 L 18.89,19.85 L 19.79,19.40 Z" fill="#4d4028" stroke="none" /><path d="M 23.41,15.36 L 22.52,15.81 L 22.52,18.04 L 23.41,17.59 Z" fill="#4d4028" stroke="none" /><path d="M 25.22,10.05 L 25.16,10.05 L 24.33,10.47 L 24.33,13.81 L 25.22,13.36 Z" fill="#4d4028" stroke="none" /><path d="M 0.00,21.53 L 0.00,23.76 L 0.83,24.17 L 0.89,24.17 L 0.89,21.98 Z" fill="#5d4b2a" stroke="none" /><path d="M 13.55,18.35 L 13.55,20.55 L 14.35,20.96 L 14.41,20.96 L 14.41,18.77 L 13.61,18.35 Z" fill="#5d4b2a" stroke="none" /><path d="M 0.00,18.23 L 0.00,19.34 L 0.83,19.75 L 0.89,19.75 L 0.89,18.64 L 0.06,18.23 Z" fill="#5d4b2a" stroke="none" /><path d="M 13.55,23.89 L 13.55,26.12 L 14.41,26.53 L 14.41,24.30 L 13.61,23.89 Z" fill="#62502b" stroke="none" /><path d="M 13.55,21.66 L 13.55,22.78 L 14.35,23.19 L 14.41,23.19 L 14.41,22.08 Z" fill="#62502b" stroke="none" /><path d="M 0.00,23.76 L 0.00,24.81 L 0.89,25.26 L 0.89,24.17 L 0.06,23.76 Z" fill="#5e4b2c" stroke="none" /><path d="M 0.00,17.11 L 0.00,18.23 L 0.83,18.64 L 0.89,18.64 L 0.89,17.53 L 0.06,17.11 Z" fill="#5e4b2c" stroke="none" /><path d="M 0.00,12.66 L 0.00,16.00 L 0.89,16.45 L 0.89,13.11 Z" fill="#5e4b2c" stroke="none" /><path d="M 0.00,7.19 L 0.00,9.35 L 0.83,9.77 L 0.89,9.77 L 0.89,7.60 L 0.06,7.19 Z" fill="#5e4b2c" stroke="none" /><path d="M 0.89,14.22 L 0.89,16.45 L 1.78,16.89 L 1.78,14.66 Z" fill="#614e2c" stroke="none" /><path d="M 0.89,23.09 L 0.89,24.21 L 1.72,24.62 L 1.78,24.62 L 1.78,23.54 Z" fill="#634e2c" stroke="none" /><path d="M 0.89,10.91 L 0.89,13.11 L 1.78,13.55 L 1.78,11.32 L 0.95,10.91 Z" fill="#634e2c" stroke="none" /><path d="M 12.63,26.75 L 12.63,28.98 L 13.49,29.39 L 13.55,29.46 L 13.55,31.59 L 14.35,32.00 L 14.41,32.00 L 14.41,29.84 L 13.61,29.46 L 13.55,29.39 L 13.55,27.20 L 12.69,26.75 Z" fill="#614f2c" stroke="none" /><path d="M 0.00,19.34 L 0.00,21.53 L 0.89,21.98 L 0.89,19.75 L 0.06,19.34 Z" fill="#63502c" stroke="none" /><path d="M 0.00,16.00 L 0.00,17.11 L 0.83,17.53 L 0.89,17.53 L 0.89,16.45 Z" fill="#63502e" stroke="none" /><path d="M 0.00,9.35 L 0.00,11.58 L 0.83,11.99 L 0.89,11.99 L 0.89,9.77 L 0.06,9.35 Z" fill="#63502e" stroke="none" /><path d="M 13.55,26.12 L 13.55,27.20 L 14.35,27.61 L 14.41,27.61 L 14.41,26.53 L 13.61,26.12 Z" fill="#65522e" stroke="none" /><path d="M 13.55,16.13 L 13.55,17.24 L 14.41,17.65 L 14.41,16.54 L 13.61,16.13 Z" fill="#67522e" stroke="none" /><path d="M 0.00,11.58 L 0.00,12.66 L 0.89,13.11 L 0.89,11.99 L 0.06,11.58 Z" fill="#68532f" stroke="none" /><path d="M 13.55,28.31 L 13.55,29.42 L 14.35,29.84 L 14.41,29.84 L 14.41,28.72 Z" fill="#69532f" stroke="none" /><path d="M 0.89,24.21 L 0.89,25.26 L 1.78,25.70 L 1.78,24.62 L 0.95,24.21 Z" fill="#69532f" stroke="none" /><path d="M 1.78,22.43 L 1.78,23.54 L 2.67,23.98 L 2.67,22.87 Z" fill="#69532f" stroke="none" /><path d="M 0.89,18.67 L 0.89,19.79 L 1.72,20.20 L 1.78,20.20 L 1.78,19.09 L 0.95,18.67 Z" fill="#69532f" stroke="none" /><path d="M 0.89,16.45 L 0.89,17.56 L 1.72,17.97 L 1.78,17.97 L 1.78,16.89 Z" fill="#69532f" stroke="none" /><path d="M 0.89,13.11 L 0.89,14.22 L 1.78,14.66 L 1.78,13.55 Z" fill="#69532f" stroke="none" /><path d="M 0.89,7.63 L 0.89,10.91 L 1.72,11.32 L 1.78,11.32 L 1.78,8.05 L 0.95,7.63 Z" fill="#69532f" stroke="none" /><path d="M 0.89,21.98 L 0.89,23.09 L 1.78,23.54 L 1.78,22.43 Z" fill="#69542f" stroke="none" /><path d="M 13.55,27.20 L 13.55,28.31 L 14.35,28.72 L 14.41,28.72 L 14.41,27.61 Z" fill="#685230" stroke="none" /><path d="M 11.80,26.31 L 11.74,26.31 L 11.74,27.36 L 11.71,27.39 L 10.91,26.97 L 10.85,26.97 L 10.85,29.17 L 11.71,29.61 L 11.74,29.61 L 11.74,28.56 L 11.77,28.53 L 12.56,28.95 L 12.63,28.95 L 12.63,26.72 Z" fill="#685230" stroke="none" /><path d="M 13.58,22.78 L 13.55,22.78 L 13.55,23.83 L 13.52,23.86 L 12.63,23.41 L 12.63,25.64 L 13.49,26.08 L 13.55,26.08 L 13.55,23.92 L 13.58,23.89 L 14.41,24.30 L 14.41,23.19 Z" fill="#685230" stroke="none" /><path d="M 1.78,21.31 L 1.78,22.43 L 2.67,22.87 L 2.67,21.76 Z" fill="#685230" stroke="none" /><path d="M 13.55,20.55 L 13.55,21.66 L 14.35,22.08 L 14.41,22.08 L 14.41,20.96 Z" fill="#685230" stroke="none" /><path d="M 11.74,15.20 L 11.74,17.43 L 12.63,17.88 L 12.63,15.65 Z" fill="#685230" stroke="none" /><path d="M 13.55,15.01 L 13.55,16.13 L 14.41,16.54 L 14.41,15.43 Z" fill="#685230" stroke="none" /><path d="M 2.67,10.69 L 2.67,14.00 L 3.53,14.44 L 3.59,14.44 L 3.59,11.13 L 2.74,10.69 Z" fill="#685230" stroke="none" /><path d="M 11.74,19.66 L 11.74,21.88 L 12.63,22.33 L 12.63,23.41 L 13.49,23.86 L 13.55,23.86 L 13.55,22.78 L 12.63,22.30 L 12.63,20.07 L 11.80,19.66 Z" fill="#6b5833" stroke="none" /><path d="M 2.67,18.45 L 2.67,20.68 L 3.59,21.12 L 3.59,18.89 L 2.74,18.45 Z" fill="#6b5833" stroke="none" /><path d="M 1.78,16.89 L 1.78,18.00 L 2.61,18.42 L 2.67,18.42 L 2.67,17.34 Z" fill="#6e5935" stroke="none" /><path d="M 0.89,20.87 L 0.89,21.98 L 1.78,22.43 L 1.78,21.31 Z" fill="#6f5a35" stroke="none" /><path d="M 7.22,21.82 L 7.22,24.05 L 8.11,24.49 L 8.11,25.61 L 8.97,26.02 L 9.03,26.08 L 9.03,28.28 L 9.86,28.69 L 9.92,28.69 L 9.92,26.56 L 9.99,26.53 L 10.78,26.94 L 10.85,26.94 L 10.85,24.75 L 9.99,24.30 L 9.92,24.30 L 9.92,26.43 L 9.86,26.47 L 9.10,26.08 L 9.03,26.02 L 9.03,23.83 L 8.17,23.41 L 8.11,23.35 L 8.11,22.27 Z" fill="#705b35" stroke="none" /><path d="M 9.92,19.85 L 9.92,22.08 L 10.85,22.52 L 10.85,20.29 Z" fill="#705b35" stroke="none" /><path d="M 0.89,17.56 L 0.89,18.67 L 1.72,19.09 L 1.78,19.09 L 1.78,17.97 L 0.95,17.56 Z" fill="#705b35" stroke="none" /><path d="M 4.49,9.42 L 4.49,11.58 L 5.34,12.02 L 5.41,12.02 L 5.41,9.86 Z" fill="#705b35" stroke="none" /><path d="M 1.78,9.13 L 1.78,13.55 L 2.61,13.96 L 2.67,14.03 L 2.67,16.16 L 2.61,16.19 L 1.78,15.78 L 1.78,16.89 L 2.67,17.34 L 2.67,16.29 L 2.70,16.25 L 3.53,16.67 L 3.59,16.67 L 3.59,14.50 L 3.63,14.47 L 4.42,14.89 L 4.49,14.89 L 4.49,12.69 L 3.59,12.25 L 3.59,14.41 L 3.56,14.44 L 2.74,14.03 L 2.67,13.96 L 2.67,9.57 Z" fill="#705b35" stroke="none" /><path d="M 1.78,23.54 L 1.78,24.65 L 2.61,25.07 L 2.67,25.07 L 2.67,23.98 Z" fill="#715b36" stroke="none" /><path d="M 13.55,17.24 L 13.55,18.35 L 14.41,18.77 L 14.41,17.65 L 13.61,17.24 Z" fill="#715b36" stroke="none" /><path d="M 2.67,16.22 L 2.67,18.45 L 3.59,18.89 L 3.59,16.67 Z" fill="#715b36" stroke="none" /><path d="M 11.74,13.04 L 11.74,15.20 L 11.77,15.24 L 13.49,16.10 L 13.55,16.10 L 13.55,15.08 L 13.58,15.05 L 14.35,15.43 L 14.41,15.43 L 14.41,14.38 L 14.38,14.35 L 13.61,13.96 L 13.55,13.96 L 13.55,14.95 L 13.49,14.98 L 12.63,14.54 L 12.63,13.49 Z" fill="#715b36" stroke="none" /><path d="M 4.49,11.58 L 4.49,13.81 L 5.34,14.25 L 5.41,14.25 L 5.41,12.02 Z" fill="#715b36" stroke="none" /><path d="M 9.03,24.94 L 9.03,26.05 L 9.92,26.50 L 9.92,25.38 Z" fill="#755e36" stroke="none" /><path d="M 17.15,6.71 L 17.18,6.78 L 18.00,7.19 L 18.07,7.19 L 18.93,6.74 L 18.93,6.71 L 18.10,6.30 L 17.97,6.30 Z" fill="#7d6136" stroke="none" /><path d="M 22.55,6.71 L 22.55,6.74 L 23.35,7.13 L 23.41,7.19 L 22.58,7.60 L 22.58,7.67 L 23.41,8.08 L 23.51,8.08 L 25.26,7.19 L 25.26,7.16 L 23.48,6.27 Z" fill="#7d6136" stroke="none" /><path d="M 11.71,5.82 L 11.71,5.85 L 12.53,6.27 L 12.66,6.27 L 13.49,5.85 L 13.46,5.79 L 12.63,5.38 L 12.56,5.38 Z" fill="#7d6136" stroke="none" /><path d="M 11.74,28.53 L 11.74,29.61 L 12.56,30.03 L 12.63,30.09 L 12.63,31.14 L 13.55,31.59 L 13.55,29.42 L 11.80,28.53 Z" fill="#6f5a38" stroke="none" /><path d="M 10.85,25.86 L 10.85,26.97 L 11.67,27.39 L 11.74,27.39 L 11.74,26.34 L 11.77,26.31 L 13.55,27.20 L 13.55,26.08 L 11.77,25.19 L 11.74,25.19 L 11.74,26.24 L 11.71,26.27 L 10.91,25.86 Z" fill="#6f5a38" stroke="none" /><path d="M 12.63,15.65 L 12.63,18.93 L 12.60,18.96 L 11.80,18.54 L 11.74,18.54 L 11.74,19.66 L 12.63,20.10 L 12.63,22.33 L 13.55,22.78 L 13.55,16.10 Z" fill="#6f5a38" stroke="none" /><path d="M 3.59,20.01 L 3.59,22.23 L 4.42,22.65 L 4.49,22.65 L 4.49,20.45 Z" fill="#735c38" stroke="none" /><path d="M 2.67,23.98 L 2.67,25.10 L 3.59,25.54 L 3.59,24.43 Z" fill="#735d38" stroke="none" /><path d="M 10.85,23.63 L 10.85,24.75 L 11.74,25.19 L 11.74,24.08 Z" fill="#735d38" stroke="none" /><path d="M 8.11,21.15 L 8.11,22.27 L 8.97,22.71 L 9.03,22.71 L 9.03,21.60 Z" fill="#735e38" stroke="none" /><path d="M 10.85,19.21 L 10.85,23.63 L 11.74,24.08 L 11.74,19.63 L 10.91,19.21 Z" fill="#735e38" stroke="none" /><path d="M 1.78,18.00 L 1.78,21.31 L 2.61,21.73 L 2.67,21.79 L 2.67,23.98 L 3.53,24.43 L 3.59,24.43 L 3.59,21.12 L 2.67,20.64 L 2.67,18.42 L 1.84,18.00 Z" fill="#735e38" stroke="none" /><path d="M 5.41,14.28 L 5.41,20.93 L 6.23,21.34 L 6.30,21.34 L 6.30,14.70 L 5.47,14.28 Z" fill="#735e38" stroke="none" /><path d="M 9.03,13.87 L 9.03,17.18 L 9.92,17.62 L 9.92,14.28 L 9.10,13.87 Z" fill="#735e38" stroke="none" /><path d="M 0.89,19.79 L 0.89,20.87 L 1.78,21.31 L 1.78,20.20 L 0.95,19.79 Z" fill="#755e38" stroke="none" /><path d="M 9.92,26.50 L 9.92,29.77 L 11.67,30.66 L 11.74,30.66 L 11.74,29.61 L 10.91,29.20 L 10.85,29.14 L 10.85,26.94 Z" fill="#776038" stroke="none" /><path d="M 11.77,24.08 L 11.74,24.08 L 11.74,25.13 L 11.71,25.16 L 10.85,24.75 L 10.85,25.86 L 11.67,26.27 L 11.74,26.27 L 11.74,25.26 L 11.77,25.22 L 12.63,25.64 L 12.63,24.52 Z" fill="#776038" stroke="none" /><path d="M 4.49,20.45 L 4.49,23.73 L 4.45,23.76 L 3.66,23.35 L 3.59,23.35 L 3.59,26.62 L 5.41,27.51 L 5.41,26.50 L 5.44,26.47 L 6.23,26.88 L 6.30,26.88 L 6.30,25.86 L 6.36,25.83 L 7.22,26.27 L 7.22,28.44 L 8.05,28.85 L 8.11,28.85 L 8.11,24.46 L 7.28,24.05 L 7.22,24.05 L 7.22,25.10 L 7.19,25.13 L 6.30,24.68 L 6.30,25.73 L 6.27,25.77 L 5.47,25.38 L 5.41,25.32 L 5.41,23.19 L 5.47,23.16 L 6.30,23.57 L 6.30,21.34 Z" fill="#776038" stroke="none" /><path d="M 7.22,19.63 L 7.22,21.82 L 8.05,22.23 L 8.11,22.30 L 8.11,23.38 L 8.97,23.83 L 9.03,23.83 L 9.03,22.71 L 8.17,22.30 L 8.11,22.23 L 8.11,20.04 L 7.28,19.63 Z" fill="#776038" stroke="none" /><path d="M 9.03,17.18 L 9.03,19.40 L 10.78,20.29 L 10.85,20.29 L 10.85,19.18 L 9.99,18.77 L 9.92,18.70 L 9.92,17.62 Z" fill="#776038" stroke="none" /><path d="M 1.78,13.55 L 1.78,15.78 L 2.67,16.22 L 2.67,14.00 Z" fill="#776038" stroke="none" /><path d="M 12.63,13.49 L 12.63,14.57 L 13.55,15.01 L 13.55,13.93 Z" fill="#776038" stroke="none" /><path d="M 10.85,12.60 L 10.85,15.87 L 11.74,16.32 L 11.74,13.04 Z" fill="#776038" stroke="none" /><path d="M 8.14,11.23 L 8.11,11.23 L 8.11,12.25 L 8.08,12.28 L 7.28,11.86 L 7.22,11.86 L 7.22,12.88 L 7.19,12.91 L 6.36,12.50 L 6.30,12.50 L 6.30,16.92 L 7.16,17.37 L 7.22,17.37 L 7.22,15.24 L 7.28,15.20 L 8.11,15.62 L 8.11,12.34 L 8.14,12.31 L 9.03,12.76 L 9.03,11.67 Z" fill="#776038" stroke="none" /><path d="M 1.78,8.08 L 1.78,9.13 L 2.61,9.54 L 2.67,9.61 L 2.67,10.69 L 3.59,11.13 L 3.59,8.97 L 1.84,8.08 Z" fill="#776038" stroke="none" /><path d="M 14.44,13.49 L 14.44,13.55 L 15.20,13.93 L 15.33,13.93 L 16.16,13.52 L 16.13,13.46 L 15.36,13.07 L 15.27,13.07 Z" fill="#7c6638" stroke="none" /><path d="M 12.66,13.49 L 12.66,13.52 L 13.49,13.93 L 13.61,13.93 L 14.38,13.55 L 14.38,13.49 L 13.55,13.07 L 13.46,13.07 Z" fill="#7c6638" stroke="none" /><path d="M 9.92,12.12 L 9.92,12.15 L 11.71,13.04 L 11.77,13.04 L 12.60,12.63 L 12.60,12.60 L 10.82,11.71 L 10.75,11.71 Z" fill="#7c6638" stroke="none" /><path d="M 6.33,10.31 L 6.36,10.37 L 7.19,10.78 L 7.25,10.78 L 8.08,10.37 L 8.08,10.34 L 7.19,9.89 Z" fill="#7c6638" stroke="none" /><path d="M 24.30,9.42 L 23.51,9.00 L 23.41,9.00 L 20.74,10.34 L 20.74,10.37 L 21.57,10.78 L 21.63,10.78 L 24.30,9.45 Z" fill="#7c6638" stroke="none" /><path d="M 26.12,8.49 L 25.26,8.08 L 24.37,8.52 L 24.37,8.56 L 25.19,8.97 L 25.26,8.97 L 26.08,8.56 Z" fill="#7c6638" stroke="none" /><path d="M 1.78,8.05 L 1.78,8.08 L 3.56,8.97 L 3.63,8.97 L 4.45,8.56 L 4.45,8.52 L 2.67,7.63 L 2.61,7.63 Z" fill="#7c6638" stroke="none" /><path d="M 23.48,5.34 L 23.51,5.41 L 27.90,7.60 L 27.99,7.60 L 28.79,7.19 L 28.79,7.16 L 24.33,4.93 Z" fill="#7c6638" stroke="none" /><path d="M 18.96,3.09 L 18.99,3.15 L 22.55,4.93 L 23.41,4.52 L 23.38,4.45 L 19.82,2.67 Z" fill="#7c6638" stroke="none" /><path d="M 12.56,1.72 L 11.80,1.34 L 11.67,1.34 L 0.03,7.16 L 0.03,7.19 L 0.83,7.60 L 0.92,7.60 L 12.56,1.78 Z" fill="#7c6638" stroke="none" /><path d="M 12.66,0.86 L 12.66,0.89 L 13.49,1.30 L 14.38,0.86 L 14.44,0.86 L 17.97,2.64 L 18.10,2.64 L 18.86,2.26 L 18.86,2.19 L 14.47,0.00 L 14.35,0.00 Z" fill="#7c6638" stroke="none" /><path d="M 3.59,22.23 L 3.59,23.35 L 4.42,23.76 L 4.49,23.76 L 4.49,22.65 L 3.66,22.23 Z" fill="#77613a" stroke="none" /><path d="M 4.49,19.34 L 4.49,20.45 L 5.34,20.90 L 5.41,20.90 L 5.41,19.79 Z" fill="#77613a" stroke="none" /><path d="M 6.30,16.92 L 6.30,18.04 L 7.16,18.48 L 7.22,18.48 L 7.22,17.37 Z" fill="#79633c" stroke="none" /><path d="M 7.22,15.17 L 7.22,16.29 L 8.05,16.70 L 8.11,16.70 L 8.11,15.62 Z" fill="#79633c" stroke="none" /><path d="M 6.30,18.04 L 6.30,19.15 L 7.16,19.59 L 7.22,19.59 L 7.22,18.48 Z" fill="#79643d" stroke="none" /><path d="M 7.22,16.29 L 7.22,17.40 L 8.05,17.81 L 8.11,17.81 L 8.11,16.70 L 7.28,16.29 Z" fill="#79643d" stroke="none" /><path d="M 8.11,12.31 L 8.11,13.39 L 8.97,13.84 L 9.03,13.84 L 9.03,12.76 L 8.17,12.31 Z" fill="#79643d" stroke="none" /><path d="M 6.33,23.57 L 6.30,23.57 L 6.30,24.62 L 6.27,24.65 L 5.41,24.24 L 5.41,25.35 L 6.27,25.80 L 6.30,25.80 L 6.30,24.75 L 6.33,24.72 L 7.16,25.13 L 7.22,25.13 L 7.22,24.02 Z" fill="#7a653d" stroke="none" /><path d="M 9.92,22.08 L 9.92,24.30 L 10.85,24.75 L 10.85,22.52 L 9.99,22.08 Z" fill="#7a653d" stroke="none" /><path d="M 9.03,19.40 L 9.03,20.52 L 9.92,20.96 L 9.92,19.85 Z" fill="#7a653d" stroke="none" /><path d="M 4.55,18.26 L 4.49,18.26 L 4.49,19.28 L 4.45,19.31 L 3.59,18.89 L 3.59,20.01 L 4.45,20.45 L 4.49,20.45 L 4.49,19.40 L 4.52,19.37 L 5.34,19.79 L 5.41,19.79 L 5.41,18.70 Z" fill="#7a653d" stroke="none" /><path d="M 10.85,15.87 L 10.85,16.99 L 11.74,17.43 L 11.74,16.32 Z" fill="#7a653d" stroke="none" /><path d="M 3.59,14.47 L 3.59,15.59 L 4.42,16.00 L 4.49,16.00 L 4.49,14.89 L 3.66,14.47 Z" fill="#7a653d" stroke="none" /><path d="M 6.30,11.39 L 6.30,12.50 L 7.22,12.95 L 7.22,11.83 Z" fill="#7a653d" stroke="none" /><path d="M 3.59,11.13 L 3.59,12.25 L 4.49,12.69 L 4.49,11.58 Z" fill="#7a653d" stroke="none" /><path d="M 3.59,17.81 L 3.59,18.89 L 4.49,19.34 L 4.49,18.23 L 3.66,17.81 Z" fill="#7a653e" stroke="none" /><path d="M 5.41,13.17 L 5.41,14.28 L 6.23,14.70 L 6.30,14.70 L 6.30,13.58 L 5.47,13.17 Z" fill="#7a653f" stroke="none" /><path d="M 11.74,29.61 L 11.74,30.70 L 12.56,31.11 L 12.63,31.11 L 12.63,30.06 Z" fill="#7b653f" stroke="none" /><path d="M 8.11,26.72 L 8.11,28.88 L 9.92,29.77 L 9.92,28.69 L 9.03,28.25 L 9.03,27.17 L 8.17,26.72 Z" fill="#7b653f" stroke="none" /><path d="M 6.30,25.80 L 6.30,26.85 L 6.27,26.88 L 5.47,26.47 L 5.41,26.47 L 5.41,27.51 L 7.16,28.41 L 7.22,28.41 L 7.22,26.24 Z" fill="#7b653f" stroke="none" /><path d="M 1.78,24.65 L 1.78,25.70 L 3.53,26.59 L 3.59,26.59 L 3.59,25.54 L 1.84,24.65 Z" fill="#7b653f" stroke="none" /><path d="M 11.74,21.88 L 11.74,24.08 L 12.63,24.52 L 12.63,22.30 L 11.80,21.88 Z" fill="#7b653f" stroke="none" /><path d="M 6.36,21.38 L 6.30,21.38 L 6.30,23.51 L 6.23,23.54 L 5.41,23.13 L 5.41,24.24 L 6.27,24.68 L 6.30,24.68 L 6.30,23.63 L 6.33,23.60 L 7.16,24.02 L 7.22,24.02 L 7.22,21.82 Z" fill="#7b653f" stroke="none" /><path d="M 7.22,17.40 L 7.22,19.63 L 8.97,20.49 L 9.03,20.55 L 9.03,22.74 L 9.86,23.16 L 9.92,23.16 L 9.92,20.96 L 9.10,20.55 L 9.03,20.49 L 9.03,19.40 L 8.11,18.93 L 8.11,17.81 L 7.28,17.40 Z" fill="#7b653f" stroke="none" /><path d="M 9.92,16.54 L 9.92,17.62 L 10.85,18.10 L 10.85,19.21 L 11.67,19.63 L 11.74,19.63 L 11.74,18.58 L 11.77,18.54 L 12.56,18.96 L 12.63,18.96 L 12.63,17.88 L 12.60,17.84 L 9.99,16.54 Z" fill="#7b653f" stroke="none" /><path d="M 3.59,15.59 L 3.59,17.81 L 5.41,18.70 L 5.41,17.59 L 4.49,17.11 L 4.49,16.00 L 3.66,15.59 Z" fill="#7b653f" stroke="none" /><path d="M 4.49,13.81 L 4.49,14.92 L 5.41,15.36 L 5.41,14.25 Z" fill="#7b653f" stroke="none" /><path d="M 9.10,11.71 L 9.03,11.71 L 9.03,13.81 L 9.00,13.84 L 8.11,13.39 L 8.11,16.73 L 9.00,17.18 L 9.03,17.18 L 9.03,13.90 L 9.07,13.87 L 9.86,14.28 L 9.92,14.28 L 9.92,13.26 L 9.96,13.23 L 10.78,13.65 L 10.85,13.65 L 10.85,12.60 Z" fill="#7b653f" stroke="none" /><path d="M 5.41,9.89 L 5.41,13.17 L 6.23,13.58 L 6.30,13.58 L 6.30,11.45 L 6.36,11.42 L 8.05,12.28 L 8.11,12.28 L 8.11,11.23 L 5.47,9.89 Z" fill="#7b653f" stroke="none" /><path d="M 3.59,8.97 L 3.59,11.13 L 4.49,11.58 L 4.49,9.42 Z" fill="#7b653f" stroke="none" /><path d="M 9.03,22.74 L 9.03,24.94 L 9.92,25.38 L 9.92,23.16 L 9.10,22.74 Z" fill="#7a663f" stroke="none" /><path d="M 13.55,13.93 L 13.55,13.96 L 14.38,14.38 L 14.44,14.38 L 15.27,13.96 L 15.27,13.93 L 14.44,13.52 L 14.38,13.52 Z" fill="#826c3f" stroke="none" /><path d="M 21.57,10.75 L 20.80,10.37 L 20.68,10.37 L 18.07,11.67 L 18.07,11.74 L 18.83,12.12 L 18.96,12.12 L 21.57,10.82 Z" fill="#826c3f" stroke="none" /><path d="M 23.48,8.97 L 23.51,9.03 L 24.27,9.42 L 24.37,9.42 L 25.19,9.00 L 25.19,8.94 L 24.43,8.56 L 24.30,8.56 Z" fill="#826c3f" stroke="none" /><path d="M 3.63,8.94 L 3.63,9.00 L 6.30,10.34 L 7.16,9.92 L 7.13,9.86 L 4.52,8.56 L 4.39,8.56 Z" fill="#826c3f" stroke="none" /><path d="M 22.58,4.90 L 22.62,4.96 L 23.44,5.38 L 24.30,4.96 L 24.27,4.90 L 23.44,4.49 Z" fill="#826c3f" stroke="none" /><path d="M 12.63,11.67 L 12.63,11.74 L 14.35,12.60 L 14.47,12.60 L 16.19,11.74 L 16.19,11.67 L 15.36,11.26 L 15.27,11.26 L 14.41,11.71 L 13.55,11.26 L 13.46,11.26 Z" fill="#947340" stroke="none" /><path d="M 9.89,10.34 L 9.89,10.37 L 11.67,11.26 L 12.60,10.82 L 12.60,10.78 L 10.82,9.89 Z" fill="#947340" stroke="none" /><path d="M 18.96,9.42 L 18.96,9.48 L 19.79,9.89 L 19.88,9.89 L 20.71,9.48 L 20.71,9.42 L 19.88,9.00 L 19.79,9.00 Z" fill="#947340" stroke="none" /><path d="M 12.63,8.97 L 12.66,9.03 L 14.38,9.89 L 14.44,9.89 L 16.19,9.00 L 16.19,8.97 L 15.36,8.56 L 15.27,8.56 L 14.41,9.00 L 13.55,8.56 L 13.46,8.56 Z" fill="#947340" stroke="none" /><path d="M 7.19,8.97 L 7.22,9.03 L 8.94,9.89 L 9.03,9.89 L 9.86,9.48 L 9.86,9.42 L 8.14,8.56 L 8.02,8.56 Z" fill="#947340" stroke="none" /><path d="M 23.44,8.08 L 22.58,7.63 L 22.52,7.63 L 20.74,8.52 L 20.74,8.56 L 21.66,9.00 L 23.44,8.11 Z" fill="#947340" stroke="none" /><path d="M 10.82,8.08 L 10.82,8.11 L 11.64,8.52 L 11.77,8.52 L 12.60,8.11 L 12.60,8.08 L 11.71,7.63 Z" fill="#947340" stroke="none" /><path d="M 19.82,7.16 L 18.99,6.74 L 18.89,6.74 L 17.18,7.60 L 17.15,7.67 L 17.97,8.08 L 18.07,8.08 L 19.79,7.22 Z" fill="#947340" stroke="none" /><path d="M 12.63,7.16 L 12.63,7.22 L 13.46,7.63 L 13.55,7.63 L 14.38,7.22 L 14.38,7.16 L 13.55,6.74 L 13.46,6.74 Z" fill="#947340" stroke="none" /><path d="M 21.66,6.27 L 21.66,6.30 L 22.49,6.71 L 22.62,6.71 L 23.44,6.30 L 23.41,6.23 L 22.58,5.82 L 22.52,5.82 Z" fill="#947340" stroke="none" /><path d="M 10.78,6.27 L 10.78,6.30 L 11.67,6.74 L 12.60,6.30 L 12.60,6.27 L 11.71,5.82 Z" fill="#947340" stroke="none" /><path d="M 19.88,5.34 L 19.88,5.41 L 20.71,5.82 L 20.80,5.82 L 21.63,5.41 L 21.63,5.34 L 20.80,4.93 L 20.71,4.93 Z" fill="#947340" stroke="none" /><path d="M 12.63,5.34 L 12.63,5.41 L 13.46,5.82 L 13.55,5.82 L 14.41,5.38 L 17.11,6.74 L 18.04,6.30 L 18.04,6.27 L 14.47,4.49 L 14.35,4.49 Z" fill="#947340" stroke="none" /><path d="M 16.25,3.53 L 16.25,3.59 L 17.08,4.01 L 17.18,4.01 L 18.00,3.59 L 18.00,3.53 L 17.18,3.12 L 17.08,3.12 Z" fill="#947340" stroke="none" /><path d="M 12.56,3.53 L 11.74,3.12 L 11.64,3.12 L 3.56,7.16 L 3.56,7.19 L 6.20,8.52 L 6.33,8.52 L 7.16,8.11 L 7.16,8.08 L 5.44,7.22 L 5.41,7.19 L 5.47,7.13 L 12.56,3.59 Z" fill="#947340" stroke="none" /><path d="M 12.60,2.64 L 12.60,2.67 L 13.49,3.12 L 14.41,2.67 L 14.41,2.64 L 13.52,2.19 Z" fill="#947340" stroke="none" /><path d="M 8.11,25.61 L 8.11,26.72 L 9.03,27.17 L 9.03,26.05 L 8.17,25.61 Z" fill="#7c6741" stroke="none" /><path d="M 8.11,20.07 L 8.11,21.15 L 8.97,21.60 L 9.03,21.60 L 9.03,20.52 L 8.17,20.07 Z" fill="#7c6741" stroke="none" /><path d="M 6.30,19.15 L 6.30,21.38 L 7.22,21.82 L 7.22,19.59 Z" fill="#7c6741" stroke="none" /><path d="M 8.11,16.73 L 8.11,18.96 L 9.03,19.40 L 9.03,17.18 L 8.17,16.73 Z" fill="#7c6741" stroke="none" /><path d="M 4.49,14.92 L 4.49,17.15 L 5.41,17.59 L 5.41,15.36 L 4.55,14.92 Z" fill="#7c6741" stroke="none" /><path d="M 9.92,13.20 L 9.92,16.54 L 10.85,16.99 L 10.85,13.65 Z" fill="#7c6741" stroke="none" /><path d="M 9.92,17.62 L 9.92,18.74 L 10.78,19.18 L 10.85,19.18 L 10.85,18.07 Z" fill="#7c6841" stroke="none" /><path d="M 11.77,13.01 L 11.77,13.07 L 12.60,13.49 L 12.69,13.49 L 13.49,13.07 L 13.49,13.04 L 12.66,12.63 L 12.53,12.63 Z" fill="#867042" stroke="none" /><path d="M 18.89,12.12 L 18.07,11.71 L 18.00,11.71 L 15.33,13.04 L 15.33,13.07 L 16.13,13.49 L 16.22,13.49 L 18.89,12.15 Z" fill="#867042" stroke="none" /><path d="M 7.25,10.75 L 7.25,10.82 L 9.86,12.12 L 9.99,12.12 L 10.75,11.74 L 10.75,11.67 L 8.14,10.37 L 8.02,10.37 Z" fill="#867042" stroke="none" /><path d="M 27.93,7.60 L 27.13,7.19 L 27.04,7.19 L 25.32,8.05 L 25.29,8.11 L 26.15,8.52 L 27.93,7.63 Z" fill="#867042" stroke="none" /><path d="M 0.89,7.60 L 0.89,7.63 L 1.72,8.05 L 1.84,8.05 L 2.61,7.67 L 2.61,7.60 L 1.78,7.19 L 1.69,7.19 Z" fill="#867042" stroke="none" /><path d="M 18.04,2.64 L 18.04,2.67 L 18.93,3.12 L 19.79,2.70 L 19.75,2.64 L 18.93,2.23 L 18.86,2.23 Z" fill="#867042" stroke="none" /><path d="M 13.49,1.27 L 12.63,0.86 L 11.74,1.30 L 11.74,1.34 L 12.56,1.75 L 12.63,1.75 L 13.46,1.34 Z" fill="#867042" stroke="none" /><path d="M 11.71,11.23 L 11.74,11.29 L 12.56,11.71 L 12.63,11.71 L 13.49,11.26 L 13.49,11.23 L 12.66,10.82 L 12.53,10.82 Z" fill="#9d824c" stroke="none" /><path d="M 19.82,9.89 L 18.96,9.45 L 18.89,9.45 L 15.33,11.23 L 15.33,11.26 L 16.19,11.71 L 16.25,11.71 L 19.82,9.92 Z" fill="#9d824c" stroke="none" /><path d="M 9.00,9.89 L 9.00,9.92 L 9.83,10.34 L 9.96,10.34 L 10.78,9.92 L 10.75,9.86 L 9.92,9.45 L 9.86,9.45 Z" fill="#9d824c" stroke="none" /><path d="M 19.85,8.97 L 19.88,9.03 L 20.71,9.45 L 20.77,9.45 L 21.63,9.00 L 21.63,8.97 L 20.80,8.56 L 20.68,8.56 Z" fill="#9d824c" stroke="none" /><path d="M 11.71,8.52 L 11.71,8.56 L 12.60,9.00 L 13.49,8.56 L 13.49,8.52 L 12.66,8.11 L 12.53,8.11 Z" fill="#9d824c" stroke="none" /><path d="M 6.27,8.52 L 6.27,8.56 L 7.16,9.00 L 8.08,8.56 L 8.08,8.52 L 7.19,8.08 Z" fill="#9d824c" stroke="none" /><path d="M 18.00,8.08 L 17.11,7.63 L 15.33,8.52 L 15.33,8.56 L 16.22,9.00 L 18.00,8.11 Z" fill="#9d824c" stroke="none" /><path d="M 13.52,6.71 L 13.55,6.78 L 14.38,7.19 L 13.55,7.60 L 13.52,7.67 L 14.35,8.08 L 14.47,8.08 L 16.19,7.22 L 16.19,7.16 L 14.47,6.30 L 14.35,6.30 Z" fill="#9d824c" stroke="none" /><path d="M 11.67,7.67 L 11.64,7.60 L 10.82,7.19 L 11.64,6.78 L 11.67,6.71 L 10.85,6.30 L 10.72,6.30 L 9.00,7.16 L 9.03,7.22 L 10.75,8.08 L 10.85,8.08 Z" fill="#9d824c" stroke="none" /><path d="M 20.77,5.82 L 20.77,5.85 L 21.60,6.27 L 21.69,6.27 L 22.52,5.85 L 22.52,5.79 L 21.69,5.38 L 21.63,5.38 Z" fill="#9d824c" stroke="none" /><path d="M 17.15,4.01 L 17.15,4.04 L 19.82,5.38 L 19.88,5.38 L 20.74,4.93 L 20.74,4.90 L 18.07,3.56 L 18.00,3.56 Z" fill="#9d824c" stroke="none" /><path d="M 11.71,3.09 L 11.74,3.15 L 12.56,3.56 L 12.63,3.56 L 13.49,3.12 L 13.49,3.09 L 12.66,2.67 L 12.53,2.67 Z" fill="#9d824c" stroke="none" /><path d="M 13.52,2.19 L 13.52,2.23 L 16.19,3.56 L 16.25,3.56 L 17.11,3.12 L 17.11,3.09 L 14.44,1.75 L 14.38,1.75 Z" fill="#9d824c" stroke="none" /><path d="M 9.92,11.23 L 9.92,11.29 L 11.64,12.15 L 11.74,12.15 L 12.56,11.74 L 12.56,11.67 L 10.85,10.82 L 10.75,10.82 Z" fill="#ad8d54" stroke="none" /><path d="M 19.82,10.78 L 18.99,10.37 L 18.86,10.37 L 17.15,11.23 L 17.15,11.26 L 18.00,11.71 L 18.07,11.71 L 19.79,10.85 Z" fill="#ad8d54" stroke="none" /><path d="M 19.85,9.89 L 19.85,9.92 L 20.68,10.34 L 20.80,10.34 L 21.63,9.92 L 21.60,9.86 L 20.77,9.45 L 20.71,9.45 Z" fill="#ad8d54" stroke="none" /><path d="M 21.66,8.97 L 21.69,9.03 L 22.52,9.45 L 22.58,9.45 L 23.44,9.00 L 23.44,8.97 L 22.62,8.56 L 22.49,8.56 Z" fill="#ad8d54" stroke="none" /><path d="M 3.56,8.08 L 3.56,8.11 L 8.97,10.82 L 9.89,10.37 L 9.89,10.34 L 4.49,7.63 L 4.42,7.63 Z" fill="#ad8d54" stroke="none" /><path d="M 22.58,5.79 L 22.58,5.85 L 23.41,6.27 L 23.51,6.27 L 24.33,5.85 L 24.33,5.79 L 23.51,5.38 L 23.41,5.38 Z" fill="#ad8d54" stroke="none" /><path d="M 7.13,5.34 L 6.30,4.93 L 6.20,4.93 L 4.49,5.79 L 4.49,5.85 L 5.31,6.27 L 5.41,6.27 L 7.13,5.41 Z" fill="#ad8d54" stroke="none" /><path d="M 7.19,7.16 L 7.22,7.22 L 8.94,8.08 L 8.87,8.14 L 8.08,8.52 L 8.08,8.56 L 8.97,9.00 L 9.86,8.56 L 9.92,8.56 L 11.67,9.45 L 10.85,9.86 L 10.82,9.92 L 11.64,10.34 L 11.77,10.34 L 12.56,9.92 L 12.66,9.92 L 14.35,10.78 L 14.47,10.78 L 16.16,9.92 L 16.25,9.92 L 17.05,10.34 L 17.18,10.34 L 18.00,9.92 L 17.97,9.86 L 17.18,9.48 L 17.15,9.45 L 17.18,9.42 L 21.63,7.19 L 21.63,7.16 L 19.91,6.30 L 19.94,6.23 L 20.74,5.85 L 20.71,5.79 L 19.88,5.38 L 19.82,5.38 L 18.93,5.82 L 14.44,3.56 L 14.38,3.56 L 13.52,4.01 L 12.63,3.56 L 12.56,3.56 L 11.71,4.01 L 11.71,4.04 L 12.50,4.42 L 12.53,4.45 L 12.50,4.52 Z" fill="#ad8d54" stroke="none" /><path d="M 9.86,4.01 L 9.00,3.56 L 8.94,3.56 L 7.16,4.45 L 7.16,4.49 L 8.08,4.93 L 9.86,4.04 Z" fill="#ad8d54" stroke="none" /><path d="M 16.22,2.64 L 16.22,2.67 L 21.63,5.38 L 21.69,5.38 L 22.55,4.93 L 22.55,4.90 L 17.15,2.19 Z" fill="#ad8d54" stroke="none" /><path d="M 12.60,2.64 L 11.67,2.19 L 9.89,3.09 L 9.89,3.12 L 10.75,3.56 L 10.82,3.56 L 12.60,2.67 Z" fill="#ad8d54" stroke="none" /><path d="M 11.71,12.15 L 11.71,12.18 L 12.53,12.60 L 12.66,12.60 L 13.49,12.18 L 13.46,12.12 L 12.63,11.71 L 12.56,11.71 Z" fill="#b6925e" stroke="none" /><path d="M 18.00,11.67 L 17.18,11.26 L 17.08,11.26 L 13.52,13.04 L 13.52,13.07 L 14.38,13.52 L 14.44,13.52 L 18.00,11.74 Z" fill="#b6925e" stroke="none" /><path d="M 9.00,10.78 L 9.03,10.85 L 9.86,11.26 L 9.92,11.26 L 10.78,10.82 L 10.78,10.78 L 9.96,10.37 L 9.83,10.37 Z" fill="#b6925e" stroke="none" /><path d="M 11.71,10.34 L 11.71,10.37 L 14.38,11.71 L 14.44,11.71 L 17.11,10.37 L 17.11,10.34 L 16.22,9.89 L 14.44,10.78 L 14.38,10.78 L 12.63,9.89 Z" fill="#b6925e" stroke="none" /><path d="M 20.77,9.42 L 20.77,9.48 L 21.60,9.89 L 21.69,9.89 L 22.52,9.48 L 22.52,9.42 L 21.69,9.00 L 21.60,9.00 Z" fill="#b6925e" stroke="none" /><path d="M 9.00,8.97 L 9.03,9.03 L 10.75,9.89 L 10.85,9.89 L 11.67,9.48 L 11.67,9.42 L 9.96,8.56 L 9.83,8.56 Z" fill="#b6925e" stroke="none" /><path d="M 21.63,8.08 L 20.77,7.63 L 20.71,7.63 L 17.15,9.42 L 17.15,9.48 L 17.97,9.89 L 18.07,9.89 L 21.63,8.11 Z" fill="#b6925e" stroke="none" /><path d="M 5.38,7.16 L 5.41,7.22 L 8.02,8.52 L 8.14,8.52 L 8.97,8.11 L 8.94,8.05 L 6.33,6.74 L 6.20,6.74 Z" fill="#b6925e" stroke="none" /><path d="M 27.07,7.16 L 24.40,5.82 L 24.33,5.82 L 23.51,6.23 L 23.48,6.30 L 25.16,7.13 L 25.22,7.19 L 22.55,8.52 L 22.55,8.56 L 23.48,9.00 L 27.04,7.22 Z" fill="#b6925e" stroke="none" /><path d="M 19.85,6.27 L 19.85,6.30 L 21.63,7.19 L 22.55,6.74 L 22.55,6.71 L 20.77,5.82 Z" fill="#b6925e" stroke="none" /><path d="M 5.34,6.27 L 4.49,5.82 L 4.42,5.82 L 1.75,7.16 L 1.75,7.19 L 3.50,8.08 L 3.59,8.08 L 4.42,7.67 L 4.42,7.60 L 3.59,7.19 L 3.66,7.13 L 5.34,6.30 Z" fill="#b6925e" stroke="none" /><path d="M 21.69,5.34 L 21.69,5.41 L 22.52,5.82 L 22.58,5.82 L 23.44,5.38 L 23.44,5.34 L 22.62,4.93 L 22.52,4.93 Z" fill="#b6925e" stroke="none" /><path d="M 12.60,4.45 L 11.67,4.01 L 7.22,6.23 L 7.19,6.30 L 8.02,6.71 L 8.14,6.71 L 12.60,4.49 Z" fill="#b6925e" stroke="none" /><path d="M 9.00,3.53 L 9.00,3.59 L 9.83,4.01 L 9.92,4.01 L 10.75,3.59 L 10.75,3.53 L 9.92,3.12 L 9.83,3.12 Z" fill="#b6925e" stroke="none" /><path d="M 12.63,3.53 L 12.63,3.59 L 13.46,4.01 L 13.55,4.01 L 14.41,3.56 L 18.89,5.82 L 18.99,5.82 L 19.82,5.41 L 19.82,5.34 L 14.47,2.67 L 14.35,2.67 Z" fill="#b6925e" stroke="none" /><path d="M 11.71,2.19 L 11.71,2.23 L 12.53,2.64 L 12.66,2.64 L 14.41,1.75 L 16.16,2.64 L 16.29,2.64 L 17.11,2.23 L 17.08,2.16 L 14.47,0.86 L 14.35,0.86 Z" fill="#b6925e" stroke="none" /><path d="M 12.60,12.60 L 12.60,12.63 L 13.49,13.07 L 14.41,12.63 L 14.41,12.60 L 13.52,12.15 Z" fill="#c09b61" stroke="none" /><path d="M 18.93,10.34 L 18.93,10.37 L 19.82,10.82 L 20.74,10.37 L 20.74,10.34 L 19.85,9.89 Z" fill="#c09b61" stroke="none" /><path d="M 23.44,7.16 L 22.62,6.74 L 22.49,6.74 L 20.77,7.60 L 20.77,7.67 L 21.60,8.08 L 21.69,8.08 L 23.41,7.22 Z" fill="#c09b61" stroke="none" /><path d="M 6.27,6.71 L 6.27,6.74 L 7.16,7.19 L 8.08,6.74 L 8.08,6.71 L 7.19,6.27 Z" fill="#c09b61" stroke="none" /><path d="M 6.27,4.90 L 6.30,4.96 L 7.13,5.38 L 7.19,5.38 L 8.05,4.93 L 8.05,4.90 L 7.22,4.49 L 7.09,4.49 Z" fill="#c09b61" stroke="none" /></svg>