<svg height="32" width="32" viewBox="0 0 32 32"><defs /><path d="M 22.49,24.67 L 22.43,24.67 L 20.69,25.54 L 20.69,26.64 L 20.75,26.64 L 22.49,25.77 Z" fill="#080808" stroke="none" /><path d="M 16.20,24.50 L 15.30,24.94 L 15.30,30.46 L 19.78,28.22 L 19.78,27.11 L 18.01,27.98 L 17.97,27.95 L 17.97,26.91 L 17.17,27.31 L 17.10,27.28 L 17.10,26.24 L 16.23,26.68 L 16.20,26.64 Z" fill="#080808" stroke="none" /><path d="M 17.10,20.75 L 17.04,20.75 L 16.20,21.19 L 16.20,23.40 L 17.10,22.96 Z" fill="#080808" stroke="none" /><path d="M 27.88,19.75 L 26.98,20.18 L 26.98,21.29 L 26.08,21.76 L 26.08,22.83 L 26.01,22.90 L 25.17,23.30 L 25.17,24.40 L 23.40,25.31 L 23.40,26.41 L 27.88,24.17 Z" fill="#080808" stroke="none" /><path d="M 23.40,16.50 L 23.33,16.50 L 19.78,18.28 L 19.78,22.69 L 19.85,22.69 L 23.40,20.92 Z" fill="#080808" stroke="none" /><path d="M 26.98,15.80 L 26.08,16.23 L 26.08,18.44 L 26.14,18.44 L 26.98,18.01 Z" fill="#080808" stroke="none" /><path d="M 19.78,12.79 L 15.30,15.03 L 15.30,20.52 L 15.36,20.52 L 16.20,20.08 L 16.20,17.91 L 17.10,17.44 L 17.10,16.37 L 17.17,16.30 L 17.97,15.90 L 17.97,14.83 L 18.04,14.76 L 19.78,13.89 Z" fill="#080808" stroke="none" /><path d="M 22.49,12.55 L 22.43,12.55 L 20.69,13.42 L 20.69,14.53 L 20.75,14.53 L 22.49,13.66 Z" fill="#080808" stroke="none" /><path d="M 27.88,8.74 L 23.43,10.95 L 23.40,10.98 L 23.40,12.08 L 25.14,11.21 L 25.17,11.25 L 25.17,12.28 L 25.24,12.28 L 26.01,11.88 L 26.08,11.92 L 26.08,12.95 L 26.95,12.52 L 26.98,12.55 L 26.98,13.59 L 27.88,13.15 Z" fill="#080808" stroke="none" /><path d="M 9.00,27.11 L 9.00,28.22 L 9.04,28.25 L 13.49,30.46 L 13.49,26.04 L 13.46,26.01 L 12.65,25.61 L 12.59,25.61 L 12.59,26.64 L 12.55,26.68 L 11.68,26.24 L 11.68,27.28 L 11.62,27.31 L 10.81,26.91 L 10.81,27.95 L 10.78,27.98 Z" fill="#101010" stroke="none" /><path d="M 6.29,24.67 L 6.29,25.77 L 8.03,26.64 L 8.10,26.64 L 8.10,25.54 L 6.36,24.67 Z" fill="#101010" stroke="none" /><path d="M 11.68,20.75 L 11.68,22.96 L 12.59,23.40 L 12.59,21.19 L 11.75,20.75 Z" fill="#101010" stroke="none" /><path d="M 0.90,18.68 L 0.90,24.17 L 5.39,26.41 L 5.39,25.31 L 3.62,24.40 L 3.62,23.30 L 2.78,22.90 L 2.71,22.83 L 2.71,21.76 L 1.81,21.29 L 1.81,19.11 L 0.97,18.68 Z" fill="#101010" stroke="none" /><path d="M 5.39,16.50 L 5.39,20.92 L 8.94,22.69 L 9.00,22.69 L 9.00,18.28 L 5.46,16.50 Z" fill="#101010" stroke="none" /><path d="M 1.81,15.80 L 1.81,18.01 L 2.64,18.44 L 2.71,18.44 L 2.71,16.23 Z" fill="#101010" stroke="none" /><path d="M 9.00,12.79 L 9.00,13.89 L 10.74,14.76 L 10.81,14.83 L 10.81,15.90 L 11.62,16.30 L 11.68,16.37 L 11.68,17.44 L 12.59,17.91 L 12.59,18.98 L 13.42,19.41 L 13.49,19.41 L 13.49,15.03 Z" fill="#101010" stroke="none" /><path d="M 6.29,12.55 L 6.29,13.66 L 8.03,14.53 L 8.10,14.53 L 8.10,13.42 L 6.36,12.55 Z" fill="#101010" stroke="none" /><path d="M 18.88,11.21 L 17.97,10.78 L 16.20,11.68 L 15.36,11.25 L 15.23,11.25 L 14.43,11.65 L 14.43,11.72 L 15.20,12.08 L 15.23,12.15 L 14.39,12.59 L 13.56,12.15 L 13.59,12.08 L 14.36,11.72 L 14.36,11.65 L 13.56,11.25 L 13.42,11.25 L 12.59,11.68 L 11.75,11.25 L 11.65,11.25 L 10.85,11.65 L 10.81,11.72 L 14.36,13.49 L 14.43,13.49 L 18.85,11.28 Z" fill="#101010" stroke="none" /><path d="M 20.65,9.41 L 19.85,9.00 L 19.72,9.00 L 18.04,9.84 L 18.01,9.91 L 18.91,10.34 L 20.65,9.47 Z" fill="#101010" stroke="none" /><path d="M 8.13,9.41 L 8.13,9.47 L 9.87,10.34 L 10.78,9.91 L 10.74,9.84 L 9.07,9.00 L 8.94,9.00 Z" fill="#101010" stroke="none" /><path d="M 0.90,8.74 L 0.90,14.26 L 1.81,14.69 L 1.81,12.55 L 1.84,12.52 L 2.71,12.95 L 2.71,11.92 L 2.78,11.88 L 3.55,12.28 L 3.62,12.28 L 3.62,11.25 L 3.65,11.21 L 5.39,12.08 L 5.39,10.98 Z" fill="#101010" stroke="none" /><path d="M 10.81,7.16 L 10.85,7.23 L 14.33,8.97 L 14.46,8.97 L 17.97,7.20 L 17.97,7.16 L 14.43,5.39 L 14.36,5.39 Z" fill="#101010" stroke="none" /><path d="M 21.59,9.00 L 22.46,9.44 L 22.53,9.44 L 26.95,7.23 L 26.98,7.16 L 22.56,4.95 L 22.43,4.95 L 21.62,5.36 L 21.62,5.42 L 23.26,6.23 L 23.33,6.29 L 22.49,6.73 L 22.49,6.76 L 23.26,7.13 L 23.33,7.20 L 22.53,7.60 L 22.53,7.67 L 23.30,8.03 L 23.33,8.10 L 21.59,8.97 Z" fill="#101010" stroke="none" /><path d="M 7.16,5.36 L 6.36,4.95 L 6.23,4.95 L 1.81,7.16 L 1.81,7.20 L 5.32,8.97 L 5.46,8.97 L 6.26,8.57 L 6.26,8.50 L 5.46,8.10 L 5.49,8.03 L 6.26,7.67 L 6.26,7.60 L 5.46,7.20 L 5.52,7.13 L 6.29,6.76 L 6.26,6.69 L 5.46,6.29 L 5.52,6.23 L 7.16,5.42 Z" fill="#101010" stroke="none" /><path d="M 18.01,4.49 L 18.01,4.52 L 19.75,5.39 L 19.82,5.39 L 20.69,4.95 L 20.69,4.92 L 18.95,4.05 L 18.85,4.05 Z" fill="#101010" stroke="none" /><path d="M 10.78,4.49 L 9.94,4.05 L 9.84,4.05 L 8.10,4.92 L 8.10,4.95 L 8.97,5.39 L 9.04,5.39 L 10.78,4.52 Z" fill="#101010" stroke="none" /><path d="M 9.91,3.11 L 9.94,3.18 L 10.74,3.58 L 10.85,3.58 L 12.55,2.71 L 12.65,2.71 L 13.49,3.15 L 14.36,2.71 L 14.43,2.71 L 15.26,3.15 L 16.13,2.71 L 16.23,2.71 L 17.94,3.58 L 18.04,3.58 L 18.88,3.15 L 18.88,3.11 L 14.46,0.90 L 14.33,0.90 Z" fill="#101010" stroke="none" /><path d="M 17.10,27.35 L 16.20,27.78 L 16.20,28.89 L 16.27,28.89 L 17.10,28.45 Z" fill="#140f16" stroke="none" /><path d="M 26.98,24.64 L 26.91,24.64 L 16.20,29.99 L 16.20,31.10 L 26.95,25.74 L 26.98,25.71 Z" fill="#140f16" stroke="none" /><path d="M 20.69,24.47 L 20.62,24.47 L 19.78,24.90 L 19.78,27.11 L 20.69,26.68 Z" fill="#140f16" stroke="none" /><path d="M 23.40,23.10 L 22.49,23.53 L 22.49,25.74 L 22.56,25.74 L 23.40,25.31 Z" fill="#140f16" stroke="none" /><path d="M 17.97,22.53 L 17.91,22.53 L 16.20,23.40 L 16.20,24.50 L 17.97,23.63 Z" fill="#140f16" stroke="none" /><path d="M 26.98,22.43 L 26.91,22.43 L 26.08,22.86 L 26.08,23.97 L 26.98,23.53 Z" fill="#140f16" stroke="none" /><path d="M 22.49,21.36 L 20.69,22.26 L 20.69,23.33 L 20.75,23.33 L 22.49,22.46 Z" fill="#140f16" stroke="none" /><path d="M 19.78,19.41 L 19.72,19.41 L 18.88,19.85 L 18.88,22.06 L 19.78,21.62 Z" fill="#140f16" stroke="none" /><path d="M 17.97,19.21 L 17.91,19.21 L 16.20,20.08 L 16.20,21.19 L 17.97,20.32 Z" fill="#140f16" stroke="none" /><path d="M 26.98,18.01 L 25.17,18.91 L 25.17,20.02 L 26.98,19.11 Z" fill="#140f16" stroke="none" /><path d="M 24.30,17.14 L 23.40,17.57 L 23.40,19.78 L 23.46,19.78 L 24.30,19.35 Z" fill="#140f16" stroke="none" /><path d="M 15.30,16.13 L 14.39,16.57 L 14.39,29.79 L 14.46,29.79 L 15.30,29.36 Z" fill="#140f16" stroke="none" /><path d="M 22.49,15.83 L 20.69,16.74 L 20.69,17.84 L 22.49,16.94 Z" fill="#140f16" stroke="none" /><path d="M 17.10,15.23 L 16.20,15.67 L 16.20,16.77 L 16.27,16.77 L 17.10,16.33 Z" fill="#140f16" stroke="none" /><path d="M 26.98,14.69 L 25.17,15.60 L 25.17,16.70 L 26.98,15.80 Z" fill="#140f16" stroke="none" /><path d="M 20.69,13.46 L 20.62,13.46 L 19.78,13.89 L 19.78,16.10 L 20.69,15.67 Z" fill="#140f16" stroke="none" /><path d="M 23.40,12.08 L 22.49,12.52 L 22.49,14.73 L 22.56,14.73 L 23.40,14.29 Z" fill="#140f16" stroke="none" /><path d="M 26.98,10.31 L 26.91,10.31 L 26.08,10.74 L 26.08,11.85 L 26.98,11.41 Z" fill="#140f16" stroke="none" /><path d="M 28.79,9.41 L 28.72,9.41 L 27.88,9.84 L 27.88,23.06 L 28.79,22.63 Z" fill="#140f16" stroke="none" /><path d="M 26.98,8.10 L 26.91,8.10 L 16.20,13.46 L 16.20,14.56 L 16.27,14.56 L 26.98,9.21 Z" fill="#140f16" stroke="none" /><path d="M 15.30,30.46 L 14.39,30.90 L 14.39,32.00 L 15.30,31.56 Z" fill="#1b1b1b" stroke="none" /><path d="M 28.79,23.73 L 28.72,23.73 L 27.88,24.17 L 27.88,25.24 L 27.95,25.24 L 28.79,24.80 Z" fill="#1b1b1b" stroke="none" /><path d="M 15.30,13.92 L 14.39,14.36 L 14.39,15.46 L 14.46,15.46 L 15.30,15.03 Z" fill="#1b1b1b" stroke="none" /><path d="M 15.26,29.36 L 14.39,29.79 L 14.39,30.90 L 14.46,30.90 L 15.26,30.49 L 15.30,30.53 L 15.30,31.53 L 15.36,31.53 L 16.20,31.10 L 16.20,30.03 L 16.13,30.03 L 15.33,30.43 L 15.30,30.39 L 15.30,29.36 Z" fill="#1c1d1c" stroke="none" /><path d="M 28.79,22.63 L 28.72,22.63 L 27.88,23.06 L 27.88,24.13 L 27.82,24.20 L 26.98,24.60 L 26.98,25.71 L 27.88,25.27 L 27.88,24.20 L 27.95,24.13 L 28.79,23.73 Z" fill="#1c1d1c" stroke="none" /><path d="M 16.20,13.49 L 16.13,13.49 L 15.30,13.92 L 15.30,15.00 L 15.23,15.06 L 14.39,15.46 L 14.39,16.57 L 14.46,16.57 L 15.30,16.13 L 15.30,15.06 L 15.36,15.00 L 16.20,14.59 Z" fill="#1c1d1c" stroke="none" /><path d="M 28.79,7.20 L 28.72,7.20 L 26.98,8.07 L 26.98,9.17 L 27.05,9.17 L 27.85,8.77 L 27.88,8.80 L 27.88,9.84 L 28.79,9.41 Z" fill="#1c1d1c" stroke="none" /><path d="M 11.68,27.35 L 11.68,28.45 L 12.52,28.89 L 12.59,28.89 L 12.59,27.78 Z" fill="#261d29" stroke="none" /><path d="M 1.81,24.64 L 1.81,25.71 L 1.84,25.74 L 12.59,31.10 L 12.59,29.99 L 1.87,24.64 Z" fill="#261d29" stroke="none" /><path d="M 8.10,24.47 L 8.10,26.68 L 9.00,27.11 L 9.00,24.90 L 8.17,24.47 Z" fill="#261d29" stroke="none" /><path d="M 5.39,23.10 L 5.39,25.31 L 6.23,25.74 L 6.29,25.74 L 6.29,23.53 Z" fill="#261d29" stroke="none" /><path d="M 10.81,22.53 L 10.81,23.63 L 12.59,24.50 L 12.59,23.40 L 10.88,22.53 Z" fill="#261d29" stroke="none" /><path d="M 1.81,22.43 L 1.81,23.53 L 2.71,23.97 L 2.71,22.86 L 1.87,22.43 Z" fill="#261d29" stroke="none" /><path d="M 6.29,21.36 L 6.29,22.46 L 8.03,23.33 L 8.10,23.33 L 8.10,22.26 Z" fill="#261d29" stroke="none" /><path d="M 9.00,19.41 L 9.00,21.62 L 9.91,22.06 L 9.91,19.85 L 9.07,19.41 Z" fill="#261d29" stroke="none" /><path d="M 10.81,19.21 L 10.81,20.32 L 12.59,21.19 L 12.59,20.08 L 10.88,19.21 Z" fill="#261d29" stroke="none" /><path d="M 1.81,18.01 L 1.81,19.11 L 3.62,20.02 L 3.62,18.91 Z" fill="#261d29" stroke="none" /><path d="M 4.49,17.14 L 4.49,19.35 L 5.32,19.78 L 5.39,19.78 L 5.39,17.57 Z" fill="#261d29" stroke="none" /><path d="M 13.49,16.13 L 13.49,29.36 L 14.33,29.79 L 14.39,29.79 L 14.39,16.57 Z" fill="#261d29" stroke="none" /><path d="M 6.29,15.83 L 6.29,16.94 L 8.10,17.84 L 8.10,16.74 Z" fill="#261d29" stroke="none" /><path d="M 11.68,15.23 L 11.68,16.33 L 12.52,16.77 L 12.59,16.77 L 12.59,15.67 Z" fill="#261d29" stroke="none" /><path d="M 1.81,14.69 L 1.81,15.80 L 3.62,16.70 L 3.62,15.60 Z" fill="#261d29" stroke="none" /><path d="M 8.10,13.46 L 8.10,15.67 L 9.00,16.10 L 9.00,13.89 L 8.17,13.46 Z" fill="#261d29" stroke="none" /><path d="M 5.39,12.08 L 5.39,14.29 L 6.23,14.73 L 6.29,14.73 L 6.29,12.52 Z" fill="#261d29" stroke="none" /><path d="M 13.49,12.12 L 13.49,12.15 L 14.36,12.59 L 14.43,12.59 L 15.30,12.15 L 15.30,12.12 L 14.43,11.68 L 14.36,11.68 Z" fill="#261d29" stroke="none" /><path d="M 1.81,10.31 L 1.81,11.41 L 2.71,11.85 L 2.71,10.74 L 1.87,10.31 Z" fill="#261d29" stroke="none" /><path d="M 16.20,9.87 L 16.20,9.91 L 17.94,10.78 L 18.04,10.78 L 18.88,10.34 L 18.88,10.31 L 17.14,9.44 L 17.04,9.44 Z" fill="#261d29" stroke="none" /><path d="M 12.59,9.87 L 11.75,9.44 L 11.65,9.44 L 9.91,10.31 L 9.91,10.34 L 10.74,10.78 L 10.85,10.78 L 12.59,9.91 Z" fill="#261d29" stroke="none" /><path d="M 0.00,9.41 L 0.00,22.63 L 0.90,23.06 L 0.90,9.84 L 0.07,9.41 Z" fill="#261d29" stroke="none" /><path d="M 18.91,8.50 L 18.91,8.57 L 20.65,9.44 L 20.72,9.44 L 21.59,9.00 L 21.59,8.97 L 19.85,8.10 L 19.72,8.10 Z" fill="#261d29" stroke="none" /><path d="M 9.87,8.50 L 9.07,8.10 L 8.94,8.10 L 7.20,8.97 L 7.20,9.00 L 8.07,9.44 L 8.13,9.44 L 9.87,8.57 Z" fill="#261d29" stroke="none" /><path d="M 26.98,8.07 L 26.08,7.63 L 15.30,13.02 L 15.30,13.05 L 16.20,13.49 L 26.98,8.10 Z" fill="#261d29" stroke="none" /><path d="M 17.97,8.07 L 17.07,7.63 L 15.33,8.50 L 15.33,8.57 L 16.13,8.97 L 16.27,8.97 L 17.94,8.13 Z" fill="#261d29" stroke="none" /><path d="M 10.81,8.07 L 10.85,8.13 L 12.52,8.97 L 12.65,8.97 L 13.46,8.57 L 13.46,8.50 L 11.72,7.63 Z" fill="#261d29" stroke="none" /><path d="M 1.81,8.07 L 1.81,9.21 L 12.52,14.56 L 12.59,14.56 L 12.59,13.52 L 12.65,13.46 L 13.49,13.05 L 13.49,13.02 L 2.71,7.63 Z" fill="#261d29" stroke="none" /><path d="M 23.40,7.16 L 23.43,7.23 L 24.23,7.63 L 24.33,7.63 L 25.17,7.20 L 25.17,7.16 L 24.30,6.73 Z" fill="#261d29" stroke="none" /><path d="M 3.62,7.16 L 3.65,7.23 L 4.45,7.63 L 4.55,7.63 L 5.39,7.20 L 5.39,7.16 L 4.52,6.73 Z" fill="#261d29" stroke="none" /><path d="M 15.30,5.82 L 15.30,5.86 L 17.04,6.73 L 17.14,6.73 L 17.97,6.29 L 17.97,6.26 L 16.23,5.39 L 16.17,5.39 Z" fill="#261d29" stroke="none" /><path d="M 13.49,5.82 L 12.62,5.39 L 12.55,5.39 L 10.81,6.26 L 10.81,6.29 L 11.65,6.73 L 11.75,6.73 L 13.49,5.86 Z" fill="#261d29" stroke="none" /><path d="M 21.56,5.36 L 20.75,4.95 L 20.62,4.95 L 18.95,5.79 L 18.91,5.86 L 19.82,6.29 L 21.56,5.42 Z" fill="#261d29" stroke="none" /><path d="M 7.23,5.36 L 7.23,5.42 L 8.97,6.29 L 9.87,5.86 L 9.84,5.79 L 8.17,4.95 L 8.03,4.95 Z" fill="#261d29" stroke="none" /><path d="M 18.88,4.02 L 17.97,3.58 L 16.23,4.45 L 16.23,4.52 L 17.04,4.92 L 17.17,4.92 L 18.85,4.08 Z" fill="#261d29" stroke="none" /><path d="M 9.91,4.02 L 9.94,4.08 L 11.62,4.92 L 11.75,4.92 L 12.55,4.52 L 12.55,4.45 L 10.81,3.58 Z" fill="#261d29" stroke="none" /><path d="M 13.52,2.21 L 13.52,2.28 L 14.33,2.68 L 14.46,2.68 L 15.26,2.28 L 15.26,2.21 L 14.46,1.81 L 14.33,1.81 Z" fill="#261d29" stroke="none" /><path d="M 15.33,1.31 L 15.33,1.37 L 26.04,6.73 L 26.14,6.73 L 26.95,6.33 L 26.95,6.26 L 16.23,0.90 L 16.13,0.90 Z" fill="#261d29" stroke="none" /><path d="M 13.46,1.31 L 12.65,0.90 L 12.55,0.90 L 1.84,6.26 L 1.84,6.33 L 2.64,6.73 L 2.74,6.73 L 13.46,1.37 Z" fill="#261d29" stroke="none" /><path d="M 13.49,30.46 L 13.49,31.56 L 14.39,32.00 L 14.39,30.90 Z" fill="#323232" stroke="none" /><path d="M 0.00,23.73 L 0.00,24.80 L 0.84,25.24 L 0.90,25.24 L 0.90,24.17 L 0.07,23.73 Z" fill="#323232" stroke="none" /><path d="M 27.01,7.16 L 27.05,7.23 L 27.85,7.63 L 27.92,7.63 L 28.75,7.20 L 28.75,7.16 L 27.95,6.76 L 27.82,6.76 Z" fill="#323232" stroke="none" /><path d="M 0.97,6.76 L 0.84,6.76 L 0.00,7.20 L 0.00,8.30 L 0.87,8.74 L 0.90,8.74 L 0.90,7.67 L 0.97,7.60 L 1.77,7.20 L 1.77,7.16 Z" fill="#323232" stroke="none" /><path d="M 13.52,0.44 L 13.52,0.47 L 14.33,0.87 L 14.46,0.87 L 15.26,0.47 L 15.23,0.40 L 14.43,0.00 L 14.36,0.00 Z" fill="#323232" stroke="none" /><path d="M 13.52,29.36 L 13.49,29.36 L 13.49,30.39 L 13.46,30.43 L 12.65,30.03 L 12.59,30.03 L 12.59,31.10 L 13.42,31.53 L 13.49,31.53 L 13.49,30.53 L 13.52,30.49 L 14.33,30.90 L 14.39,30.90 L 14.39,29.79 Z" fill="#343534" stroke="none" /><path d="M 0.00,22.63 L 0.00,23.73 L 0.84,24.13 L 0.90,24.20 L 0.90,25.27 L 1.81,25.71 L 1.81,24.60 L 0.97,24.20 L 0.90,24.13 L 0.90,23.06 L 0.07,22.63 Z" fill="#343534" stroke="none" /><path d="M 15.36,13.05 L 15.23,13.05 L 14.39,13.49 L 13.56,13.05 L 13.42,13.05 L 12.59,13.49 L 12.59,14.59 L 13.42,15.00 L 13.49,15.06 L 13.49,16.13 L 14.33,16.57 L 14.39,16.57 L 14.39,14.39 L 16.17,13.49 L 16.17,13.46 Z" fill="#343534" stroke="none" /><path d="M 26.95,6.29 L 26.11,6.73 L 26.11,6.76 L 26.88,7.13 L 26.95,7.20 L 26.14,7.60 L 26.11,7.67 L 26.91,8.07 L 27.05,8.07 L 27.85,7.67 L 27.85,7.60 L 27.05,7.20 L 27.11,7.13 L 27.88,6.76 L 27.88,6.73 L 27.01,6.29 Z" fill="#343534" stroke="none" /><path d="M 1.84,6.29 L 1.77,6.29 L 0.90,6.73 L 0.90,6.76 L 1.67,7.13 L 1.74,7.20 L 0.90,7.63 L 0.90,8.67 L 0.84,8.70 L 0.07,8.30 L 0.00,8.30 L 0.00,9.41 L 0.87,9.84 L 0.90,9.84 L 0.90,8.80 L 0.97,8.77 L 1.74,9.17 L 1.81,9.17 L 1.81,8.10 L 2.68,7.67 L 2.64,7.60 L 1.84,7.20 L 1.91,7.13 L 2.68,6.76 L 2.68,6.73 Z" fill="#343534" stroke="none" /><path d="M 12.62,0.87 L 12.65,0.94 L 13.46,1.34 L 13.52,1.34 L 14.36,0.90 L 14.43,0.90 L 15.26,1.34 L 15.33,1.34 L 16.17,0.90 L 16.17,0.87 L 15.30,0.44 L 14.43,0.87 L 14.36,0.87 L 13.52,0.44 Z" fill="#343534" stroke="none" /><path d="M 27.88,18.68 L 27.82,18.68 L 26.98,19.11 L 26.98,20.18 L 27.05,20.18 L 27.88,19.75 Z" fill="#403540" stroke="none" /><path d="M 27.88,13.15 L 27.82,13.15 L 26.98,13.59 L 26.98,14.69 L 27.88,14.26 Z" fill="#403540" stroke="none" /><path d="M 15.30,23.83 L 15.30,24.94 L 15.36,24.94 L 16.13,24.54 L 16.20,24.57 L 16.20,26.68 L 16.27,26.68 L 17.07,26.28 L 17.10,26.31 L 17.10,27.35 L 17.91,26.95 L 17.97,26.98 L 17.97,28.02 L 19.72,27.15 L 19.78,27.18 L 19.78,28.22 L 20.69,27.78 L 20.69,26.68 L 20.62,26.68 L 19.82,27.08 L 19.78,27.05 L 19.78,26.01 L 18.01,26.88 L 17.97,26.85 L 17.97,25.81 L 17.17,26.21 L 17.10,26.18 L 17.10,24.07 L 17.04,24.07 L 16.23,24.47 L 16.20,24.44 L 16.20,23.40 Z" fill="#504050" stroke="none" /><path d="M 23.40,21.99 L 22.49,22.43 L 22.49,23.53 L 22.46,23.56 L 20.72,24.44 L 20.69,24.40 L 20.69,23.36 L 20.62,23.36 L 19.82,23.77 L 19.78,23.80 L 19.78,24.90 L 20.65,24.47 L 20.69,24.50 L 20.69,25.54 L 20.75,25.54 L 22.49,24.67 L 22.49,23.56 L 23.40,23.10 Z" fill="#504050" stroke="none" /><path d="M 18.88,18.74 L 17.97,19.18 L 17.97,20.28 L 17.10,20.72 L 17.10,22.93 L 17.17,22.93 L 17.94,22.53 L 17.97,22.56 L 17.97,23.60 L 18.04,23.60 L 18.88,23.16 L 18.88,22.06 L 18.01,22.49 L 17.97,22.46 L 17.97,20.32 L 18.88,19.85 Z" fill="#504050" stroke="none" /><path d="M 27.88,17.57 L 27.82,17.57 L 26.98,18.01 L 26.98,19.08 L 26.91,19.15 L 26.08,19.55 L 26.08,21.72 L 26.01,21.79 L 25.17,22.19 L 25.17,23.30 L 25.14,23.33 L 23.40,24.20 L 23.40,25.27 L 23.33,25.34 L 22.49,25.74 L 22.49,26.85 L 22.56,26.85 L 23.40,26.41 L 23.40,25.34 L 23.46,25.27 L 25.17,24.44 L 25.17,23.33 L 26.08,22.86 L 26.08,21.79 L 26.14,21.72 L 26.98,21.32 L 26.98,19.15 L 27.05,19.08 L 27.88,18.68 Z" fill="#504050" stroke="none" /><path d="M 25.17,15.60 L 24.30,16.03 L 24.30,17.14 L 25.10,16.74 L 25.17,16.77 L 25.17,18.88 L 25.10,18.95 L 24.30,19.35 L 24.30,20.45 L 25.17,20.02 L 25.17,18.95 L 25.24,18.88 L 26.08,18.48 L 26.08,16.27 L 26.01,16.27 L 25.21,16.67 L 25.17,16.64 Z" fill="#504050" stroke="none" /><path d="M 23.40,14.29 L 22.53,14.73 L 22.49,14.69 L 22.49,13.66 L 22.43,13.66 L 20.69,14.53 L 20.69,15.63 L 19.78,16.10 L 19.78,17.17 L 19.85,17.17 L 20.69,16.74 L 20.69,15.67 L 20.72,15.63 L 22.46,14.76 L 22.49,14.79 L 22.49,15.83 L 23.40,15.40 Z" fill="#504050" stroke="none" /><path d="M 20.69,12.35 L 20.62,12.35 L 19.78,12.79 L 19.78,13.86 L 19.72,13.92 L 17.97,14.79 L 17.97,15.87 L 17.91,15.93 L 17.10,16.33 L 17.10,17.41 L 17.04,17.47 L 16.20,17.87 L 16.20,20.05 L 16.13,20.12 L 15.30,20.52 L 15.30,21.62 L 15.36,21.62 L 16.20,21.19 L 16.20,20.12 L 16.27,20.05 L 17.10,19.65 L 17.10,17.47 L 17.17,17.41 L 17.97,17.00 L 17.97,15.93 L 18.04,15.87 L 19.78,15.00 L 19.78,13.92 L 19.85,13.86 L 20.69,13.46 Z" fill="#504050" stroke="none" /><path d="M 22.49,11.41 L 22.49,12.52 L 22.56,12.52 L 23.36,12.12 L 23.40,12.15 L 23.40,13.19 L 25.14,12.32 L 25.17,12.35 L 25.17,13.39 L 25.24,13.39 L 26.01,12.99 L 26.08,13.02 L 26.08,15.13 L 26.14,15.13 L 26.95,14.73 L 26.98,14.76 L 26.98,15.80 L 27.88,15.36 L 27.88,14.26 L 27.82,14.26 L 27.05,14.66 L 26.98,14.63 L 26.98,12.52 L 26.91,12.52 L 26.11,12.92 L 26.08,12.89 L 26.08,11.85 L 25.21,12.28 L 25.17,12.25 L 25.17,11.21 L 25.10,11.21 L 23.43,12.05 L 23.40,12.02 L 23.40,10.98 Z" fill="#504050" stroke="none" /><path d="M 22.49,25.77 L 22.43,25.77 L 20.69,26.64 L 20.69,27.75 L 20.75,27.75 L 22.49,26.88 Z" fill="#5f4e5f" stroke="none" /><path d="M 16.20,21.19 L 15.30,21.62 L 15.30,23.83 L 15.36,23.83 L 16.20,23.40 Z" fill="#5f4e5f" stroke="none" /><path d="M 27.88,15.36 L 27.82,15.36 L 26.98,15.80 L 26.98,18.01 L 27.88,17.57 Z" fill="#5f4e5f" stroke="none" /><path d="M 22.49,11.45 L 22.43,11.45 L 20.69,12.32 L 20.69,13.42 L 20.75,13.42 L 22.49,12.55 Z" fill="#5f4e5f" stroke="none" /><path d="M 17.91,23.63 L 17.10,24.03 L 17.10,26.24 L 17.94,25.84 L 17.97,25.87 L 17.97,26.91 L 18.01,26.91 L 19.78,26.01 L 19.78,24.90 L 18.01,25.77 L 17.97,25.74 L 17.97,23.63 Z" fill="#675567" stroke="none" /><path d="M 18.88,19.85 L 17.97,20.28 L 17.97,22.49 L 18.04,22.49 L 18.88,22.06 Z" fill="#675567" stroke="none" /><path d="M 26.08,19.58 L 26.01,19.58 L 25.17,20.02 L 25.17,22.19 L 23.40,23.10 L 23.40,24.20 L 25.17,23.33 L 25.17,22.23 L 26.08,21.76 Z" fill="#675567" stroke="none" /><path d="M 25.17,16.70 L 24.30,17.14 L 24.30,19.35 L 25.17,18.91 Z" fill="#675567" stroke="none" /><path d="M 19.78,15.00 L 17.97,15.90 L 17.97,16.97 L 17.91,17.04 L 17.10,17.44 L 17.10,19.62 L 17.17,19.62 L 17.97,19.21 L 17.97,17.04 L 18.04,16.97 L 19.78,16.10 Z" fill="#675567" stroke="none" /><path d="M 25.10,12.32 L 23.40,13.19 L 23.40,14.29 L 25.14,13.42 L 25.17,13.46 L 25.17,15.60 L 25.21,15.60 L 26.08,15.16 L 26.08,12.95 L 25.21,13.39 L 25.17,13.36 L 25.17,12.32 Z" fill="#675567" stroke="none" /><path d="M 18.85,23.16 L 17.97,23.60 L 17.97,24.70 L 18.85,24.27 L 18.88,24.30 L 18.88,25.34 L 18.95,25.34 L 19.78,24.90 L 19.78,23.80 L 18.91,24.23 L 18.88,24.20 L 18.88,23.16 Z" fill="#725f72" stroke="none" /><path d="M 24.30,19.35 L 23.40,19.78 L 23.40,20.89 L 23.46,20.89 L 24.23,20.49 L 24.30,20.52 L 24.30,21.52 L 23.40,21.99 L 23.40,23.10 L 24.30,22.66 L 24.30,21.56 L 25.17,21.12 L 25.17,20.02 L 24.33,20.42 L 24.30,20.38 Z" fill="#725f72" stroke="none" /><path d="M 19.78,16.10 L 18.88,16.54 L 18.88,17.61 L 18.81,17.67 L 17.97,18.08 L 17.97,19.18 L 18.04,19.18 L 18.85,18.78 L 18.88,18.81 L 18.88,19.85 L 19.78,19.41 L 19.78,18.31 L 19.72,18.31 L 18.95,18.71 L 18.88,18.68 L 18.88,17.67 L 18.95,17.61 L 19.78,17.21 Z" fill="#725f72" stroke="none" /><path d="M 24.23,13.86 L 23.40,14.29 L 23.40,15.36 L 23.46,15.36 L 24.27,14.96 L 24.30,15.00 L 24.30,16.03 L 24.33,16.03 L 25.17,15.60 L 25.17,14.49 L 24.33,14.90 L 24.30,14.86 L 24.30,13.86 Z" fill="#725f72" stroke="none" /><path d="M 25.17,21.12 L 25.10,21.12 L 24.33,21.52 L 24.30,21.49 L 24.30,20.45 L 24.27,20.45 L 22.53,21.32 L 22.49,21.36 L 22.49,22.43 L 20.72,23.33 L 20.69,23.30 L 20.69,22.26 L 19.82,22.69 L 19.78,22.66 L 19.78,21.62 L 19.72,21.62 L 18.91,22.03 L 18.88,22.06 L 18.88,24.23 L 17.97,24.70 L 17.97,25.81 L 18.88,25.37 L 18.88,24.27 L 18.91,24.23 L 20.65,23.36 L 20.69,23.40 L 20.69,24.44 L 20.75,24.44 L 22.49,23.56 L 22.49,22.46 L 24.27,21.56 L 24.30,21.59 L 24.30,22.63 L 24.37,22.63 L 25.17,22.23 Z" fill="#726772" stroke="none" /><path d="M 25.17,13.42 L 25.10,13.42 L 24.30,13.82 L 24.30,14.90 L 24.23,14.96 L 22.53,15.80 L 22.49,15.77 L 22.49,14.76 L 22.43,14.76 L 20.69,15.63 L 20.69,16.70 L 20.62,16.77 L 18.95,17.61 L 18.88,17.57 L 18.88,16.57 L 18.81,16.57 L 18.01,16.97 L 17.97,17.00 L 17.97,18.08 L 18.04,18.08 L 18.85,17.67 L 18.88,17.71 L 18.88,18.74 L 18.91,18.74 L 20.65,17.87 L 20.69,17.84 L 20.69,16.77 L 20.75,16.70 L 22.43,15.87 L 22.49,15.90 L 22.49,16.94 L 23.36,16.50 L 23.40,16.54 L 23.40,17.57 L 23.46,17.57 L 24.27,17.17 L 24.30,17.14 L 24.30,14.96 L 24.37,14.90 L 25.17,14.49 Z" fill="#726772" stroke="none" /><path d="M 12.59,24.50 L 12.59,25.61 L 13.49,26.04 L 13.49,24.94 Z" fill="#776377" stroke="none" /><path d="M 12.59,18.98 L 12.59,20.08 L 13.42,20.52 L 13.49,20.52 L 13.49,19.41 Z" fill="#776377" stroke="none" /><path d="M 9.91,11.21 L 9.94,11.28 L 10.74,11.68 L 10.85,11.68 L 11.68,11.25 L 11.68,11.21 L 10.81,10.78 Z" fill="#776377" stroke="none" /><path d="M 5.39,8.97 L 5.39,9.00 L 6.26,9.44 L 6.33,9.44 L 7.20,9.00 L 7.20,8.97 L 6.33,8.54 L 6.26,8.54 Z" fill="#776377" stroke="none" /><path d="M 13.49,23.83 L 12.59,23.40 L 12.59,24.44 L 12.55,24.47 L 11.75,24.07 L 11.68,24.07 L 11.68,26.18 L 11.62,26.21 L 10.81,25.81 L 10.81,26.85 L 10.78,26.88 L 9.00,26.01 L 9.00,27.05 L 8.97,27.08 L 8.17,26.68 L 8.10,26.68 L 8.10,27.78 L 9.00,28.22 L 9.00,27.18 L 9.07,27.15 L 10.81,28.02 L 10.81,26.98 L 10.88,26.95 L 11.68,27.35 L 11.68,26.31 L 11.72,26.28 L 12.52,26.68 L 12.59,26.68 L 12.59,24.57 L 12.65,24.54 L 13.42,24.94 L 13.49,24.94 Z" fill="#947794" stroke="none" /><path d="M 5.39,21.99 L 5.39,23.10 L 6.29,23.56 L 6.29,24.67 L 8.03,25.54 L 8.10,25.54 L 8.10,24.50 L 8.13,24.47 L 9.00,24.90 L 9.00,23.80 L 8.97,23.77 L 8.17,23.36 L 8.10,23.36 L 8.10,24.40 L 8.07,24.44 L 6.33,23.56 L 6.29,23.53 L 6.29,22.43 Z" fill="#947794" stroke="none" /><path d="M 9.91,18.74 L 9.91,19.85 L 10.81,20.32 L 10.81,22.46 L 10.78,22.49 L 9.91,22.06 L 9.91,23.16 L 10.74,23.60 L 10.81,23.60 L 10.81,22.56 L 10.85,22.53 L 11.62,22.93 L 11.68,22.93 L 11.68,20.72 L 10.81,20.28 L 10.81,19.18 Z" fill="#947794" stroke="none" /><path d="M 0.90,17.57 L 0.90,18.68 L 1.74,19.08 L 1.81,19.15 L 1.81,21.32 L 2.64,21.72 L 2.71,21.79 L 2.71,22.86 L 3.62,23.33 L 3.62,24.44 L 5.32,25.27 L 5.39,25.34 L 5.39,26.41 L 6.23,26.85 L 6.29,26.85 L 6.29,25.74 L 5.46,25.34 L 5.39,25.27 L 5.39,24.20 L 3.65,23.33 L 3.62,23.30 L 3.62,22.19 L 2.78,21.79 L 2.71,21.72 L 2.71,19.55 L 1.87,19.15 L 1.81,19.08 L 1.81,18.01 L 0.97,17.57 Z" fill="#947794" stroke="none" /><path d="M 3.62,15.60 L 3.62,16.64 L 3.58,16.67 L 2.78,16.27 L 2.71,16.27 L 2.71,18.48 L 3.55,18.88 L 3.62,18.95 L 3.62,20.02 L 4.49,20.45 L 4.49,19.35 L 3.68,18.95 L 3.62,18.88 L 3.62,16.77 L 3.68,16.74 L 4.49,17.14 L 4.49,16.03 Z" fill="#947794" stroke="none" /><path d="M 5.39,14.29 L 5.39,15.40 L 6.29,15.83 L 6.29,14.79 L 6.33,14.76 L 8.07,15.63 L 8.10,15.67 L 8.10,16.74 L 8.94,17.17 L 9.00,17.17 L 9.00,16.10 L 8.10,15.63 L 8.10,14.53 L 6.36,13.66 L 6.29,13.66 L 6.29,14.69 L 6.26,14.73 Z" fill="#947794" stroke="none" /><path d="M 8.10,12.35 L 8.10,13.46 L 8.94,13.86 L 9.00,13.92 L 9.00,15.00 L 10.74,15.87 L 10.81,15.93 L 10.81,17.00 L 11.62,17.41 L 11.68,17.47 L 11.68,19.65 L 12.52,20.05 L 12.59,20.12 L 12.59,21.19 L 13.42,21.62 L 13.49,21.62 L 13.49,20.52 L 12.65,20.12 L 12.59,20.05 L 12.59,17.87 L 11.75,17.47 L 11.68,17.41 L 11.68,16.33 L 10.88,15.93 L 10.81,15.87 L 10.81,14.79 L 9.07,13.92 L 9.00,13.86 L 9.00,12.79 L 8.17,12.35 Z" fill="#947794" stroke="none" /><path d="M 6.29,11.41 L 5.39,10.98 L 5.39,12.02 L 5.36,12.05 L 3.68,11.21 L 3.62,11.21 L 3.62,12.25 L 3.58,12.28 L 2.71,11.85 L 2.71,12.89 L 2.68,12.92 L 1.87,12.52 L 1.81,12.52 L 1.81,14.63 L 1.74,14.66 L 0.97,14.26 L 0.90,14.26 L 0.90,15.36 L 1.81,15.80 L 1.81,14.76 L 1.84,14.73 L 2.64,15.13 L 2.71,15.13 L 2.71,13.02 L 2.78,12.99 L 3.55,13.39 L 3.62,13.39 L 3.62,12.35 L 3.65,12.32 L 5.39,13.19 L 5.39,12.15 L 5.42,12.12 L 6.23,12.52 L 6.29,12.52 Z" fill="#947794" stroke="none" /><path d="M 9.00,10.78 L 9.00,10.81 L 9.87,11.25 L 10.74,10.81 L 10.85,10.81 L 12.55,11.68 L 12.62,11.68 L 13.46,11.25 L 13.52,11.25 L 14.36,11.68 L 14.43,11.68 L 15.26,11.25 L 15.33,11.25 L 16.17,11.68 L 16.23,11.68 L 17.94,10.81 L 18.04,10.81 L 18.88,11.25 L 19.78,10.81 L 19.75,10.74 L 18.95,10.34 L 18.85,10.34 L 18.01,10.78 L 17.14,10.34 L 17.04,10.34 L 15.33,11.21 L 15.26,11.21 L 14.43,10.78 L 14.36,10.78 L 13.52,11.21 L 13.46,11.21 L 11.75,10.34 L 11.65,10.34 L 10.81,10.78 L 9.94,10.34 L 9.84,10.34 Z" fill="#947794" stroke="none" /><path d="M 19.78,8.07 L 18.88,7.63 L 18.01,8.07 L 18.04,8.13 L 18.81,8.50 L 18.85,8.54 L 18.81,8.57 L 17.14,9.41 L 17.04,9.41 L 16.27,9.00 L 16.13,9.00 L 15.33,9.41 L 15.33,9.47 L 16.13,9.87 L 16.23,9.87 L 17.10,9.44 L 17.94,9.87 L 18.04,9.87 L 19.78,9.00 L 19.78,8.97 L 18.91,8.54 L 19.78,8.10 Z" fill="#947794" stroke="none" /><path d="M 9.00,8.07 L 9.00,8.10 L 9.87,8.54 L 9.00,8.97 L 9.00,9.00 L 10.74,9.87 L 10.85,9.87 L 11.68,9.44 L 12.55,9.87 L 12.65,9.87 L 13.46,9.47 L 13.46,9.41 L 12.65,9.00 L 12.52,9.00 L 11.75,9.41 L 11.65,9.41 L 9.97,8.57 L 9.94,8.54 L 9.97,8.50 L 10.74,8.13 L 10.78,8.07 L 9.91,7.63 Z" fill="#947794" stroke="none" /><path d="M 21.56,4.49 L 20.69,4.92 L 20.69,4.95 L 21.56,5.39 L 20.69,5.82 L 20.69,5.86 L 22.39,6.69 L 22.43,6.73 L 22.36,6.79 L 21.59,7.16 L 21.59,7.20 L 22.46,7.63 L 20.72,8.50 L 20.72,8.57 L 21.52,8.97 L 21.49,9.04 L 20.72,9.41 L 20.72,9.47 L 21.52,9.87 L 21.66,9.87 L 22.46,9.47 L 22.46,9.41 L 21.69,9.04 L 21.66,8.97 L 23.40,8.10 L 23.40,8.07 L 22.53,7.63 L 23.36,7.20 L 23.36,7.16 L 22.59,6.79 L 22.53,6.73 L 23.33,6.33 L 23.36,6.26 L 21.66,5.42 L 21.62,5.39 L 21.66,5.36 L 22.49,4.95 L 22.49,4.92 L 21.62,4.49 Z" fill="#947794" stroke="none" /><path d="M 15.30,4.92 L 15.30,4.95 L 16.17,5.39 L 16.23,5.39 L 17.07,4.95 L 17.14,4.95 L 18.81,5.79 L 18.85,5.82 L 18.78,5.89 L 18.01,6.26 L 18.01,6.29 L 18.85,6.73 L 18.95,6.73 L 19.78,6.29 L 19.78,6.26 L 19.01,5.89 L 18.95,5.82 L 19.75,5.42 L 19.75,5.36 L 18.01,4.49 L 17.14,4.92 L 17.07,4.92 L 16.23,4.49 L 16.17,4.49 Z" fill="#947794" stroke="none" /><path d="M 9.00,6.29 L 9.84,6.73 L 9.94,6.73 L 10.78,6.29 L 10.78,6.26 L 10.01,5.89 L 9.94,5.82 L 9.97,5.79 L 11.65,4.95 L 11.72,4.95 L 12.55,5.39 L 12.62,5.39 L 13.49,4.95 L 13.49,4.92 L 12.62,4.49 L 12.55,4.49 L 11.72,4.92 L 11.65,4.92 L 10.78,4.49 L 9.04,5.36 L 9.04,5.42 L 9.84,5.82 L 9.77,5.89 L 9.00,6.26 Z" fill="#947794" stroke="none" /><path d="M 7.16,4.49 L 6.29,4.92 L 6.29,4.95 L 7.16,5.39 L 5.42,6.26 L 5.46,6.33 L 6.26,6.73 L 6.19,6.79 L 5.42,7.16 L 5.42,7.20 L 6.26,7.63 L 5.39,8.07 L 5.39,8.10 L 7.10,8.94 L 7.13,8.97 L 7.10,9.04 L 6.33,9.41 L 6.33,9.47 L 7.13,9.87 L 7.26,9.87 L 8.07,9.47 L 8.07,9.41 L 7.26,9.00 L 7.30,8.94 L 8.07,8.57 L 8.07,8.50 L 6.33,7.63 L 7.20,7.20 L 7.20,7.16 L 6.43,6.79 L 6.36,6.73 L 8.10,5.86 L 8.10,5.82 L 7.23,5.39 L 8.10,4.95 L 8.10,4.92 L 7.23,4.49 Z" fill="#947794" stroke="none" /><path d="M 9.00,3.58 L 9.00,3.62 L 9.87,4.05 L 10.74,3.62 L 10.85,3.62 L 11.72,4.05 L 13.49,3.15 L 14.36,3.58 L 14.43,3.58 L 15.30,3.15 L 17.07,4.05 L 17.94,3.62 L 18.04,3.62 L 18.88,4.05 L 19.78,3.62 L 19.75,3.55 L 18.95,3.15 L 18.85,3.15 L 17.97,3.58 L 16.20,2.68 L 15.33,3.11 L 15.23,3.11 L 14.46,2.71 L 14.33,2.71 L 13.56,3.11 L 13.46,3.11 L 12.59,2.68 L 10.81,3.58 L 9.94,3.15 L 9.84,3.15 Z" fill="#947794" stroke="none" /><path d="M 6.29,25.77 L 6.29,26.88 L 8.03,27.75 L 8.10,27.75 L 8.10,26.64 L 6.36,25.77 Z" fill="#b291b2" stroke="none" /><path d="M 12.59,21.19 L 12.59,23.40 L 13.42,23.83 L 13.49,23.83 L 13.49,21.62 Z" fill="#b291b2" stroke="none" /><path d="M 0.90,15.36 L 0.90,17.57 L 1.81,18.01 L 1.81,15.80 L 0.97,15.36 Z" fill="#b291b2" stroke="none" /><path d="M 6.29,11.45 L 6.29,12.55 L 8.03,13.42 L 8.10,13.42 L 8.10,12.32 L 6.36,11.45 Z" fill="#b291b2" stroke="none" /><path d="M 21.59,9.87 L 20.72,9.44 L 20.65,9.44 L 18.91,10.31 L 18.91,10.34 L 19.75,10.78 L 19.85,10.78 L 21.59,9.91 Z" fill="#b291b2" stroke="none" /><path d="M 7.20,9.87 L 7.20,9.91 L 8.94,10.78 L 9.04,10.78 L 9.87,10.34 L 9.87,10.31 L 8.13,9.44 L 8.07,9.44 Z" fill="#b291b2" stroke="none" /><path d="M 18.91,4.02 L 18.95,4.08 L 20.62,4.92 L 20.75,4.92 L 21.56,4.52 L 21.56,4.45 L 19.82,3.58 Z" fill="#b291b2" stroke="none" /><path d="M 9.87,4.02 L 8.97,3.58 L 7.23,4.45 L 7.23,4.52 L 8.03,4.92 L 8.17,4.92 L 9.84,4.08 Z" fill="#b291b2" stroke="none" /><path d="M 10.88,23.63 L 10.81,23.63 L 10.81,25.74 L 10.78,25.77 L 9.00,24.90 L 9.00,26.01 L 10.78,26.91 L 10.81,26.91 L 10.81,25.87 L 10.85,25.84 L 11.68,26.24 L 11.68,24.03 Z" fill="#c09ec0" stroke="none" /><path d="M 9.91,19.85 L 9.91,22.06 L 10.74,22.49 L 10.81,22.49 L 10.81,20.28 Z" fill="#c09ec0" stroke="none" /><path d="M 2.71,19.58 L 2.71,21.76 L 3.62,22.23 L 3.62,23.33 L 5.39,24.20 L 5.39,23.10 L 3.62,22.19 L 3.62,20.02 L 2.78,19.58 Z" fill="#c09ec0" stroke="none" /><path d="M 3.62,16.70 L 3.62,18.91 L 4.49,19.35 L 4.49,17.14 Z" fill="#c09ec0" stroke="none" /><path d="M 9.00,15.00 L 9.00,16.10 L 10.74,16.97 L 10.81,17.04 L 10.81,19.21 L 11.62,19.62 L 11.68,19.62 L 11.68,17.44 L 10.88,17.04 L 10.81,16.97 L 10.81,15.90 Z" fill="#c09ec0" stroke="none" /><path d="M 3.68,12.32 L 3.62,12.32 L 3.62,13.36 L 3.58,13.39 L 2.71,12.95 L 2.71,15.16 L 3.58,15.60 L 3.62,15.60 L 3.62,13.46 L 3.65,13.42 L 5.39,14.29 L 5.39,13.19 Z" fill="#c09ec0" stroke="none" /><path d="M 17.07,10.31 L 16.17,9.87 L 14.43,10.74 L 14.43,10.81 L 15.23,11.21 L 15.36,11.21 L 17.04,10.38 Z" fill="#c09ec0" stroke="none" /><path d="M 11.72,10.31 L 11.75,10.38 L 13.42,11.21 L 13.56,11.21 L 14.36,10.81 L 14.36,10.74 L 12.62,9.87 Z" fill="#c09ec0" stroke="none" /><path d="M 9.94,8.50 L 9.94,8.57 L 11.68,9.44 L 12.59,9.00 L 12.59,8.97 L 10.85,8.10 L 10.74,8.10 Z" fill="#c09ec0" stroke="none" /><path d="M 20.62,5.86 L 19.82,6.26 L 19.82,6.29 L 21.49,7.13 L 21.52,7.20 L 19.78,8.07 L 19.78,8.10 L 20.65,8.54 L 20.72,8.54 L 22.46,7.67 L 22.46,7.60 L 21.66,7.20 L 21.69,7.13 L 22.46,6.76 L 22.46,6.73 L 20.75,5.86 Z" fill="#c09ec0" stroke="none" /><path d="M 8.03,5.86 L 6.33,6.73 L 6.33,6.76 L 7.13,7.16 L 7.10,7.23 L 6.33,7.60 L 6.33,7.67 L 8.07,8.54 L 8.13,8.54 L 9.00,8.10 L 9.00,8.07 L 7.30,7.23 L 7.26,7.16 L 8.94,6.33 L 8.97,6.26 L 8.17,5.86 Z" fill="#c09ec0" stroke="none" /><path d="M 16.23,5.36 L 16.23,5.42 L 17.97,6.29 L 18.88,5.86 L 18.85,5.79 L 17.17,4.95 L 17.04,4.95 Z" fill="#c09ec0" stroke="none" /><path d="M 14.43,3.55 L 14.43,3.62 L 16.17,4.49 L 16.23,4.49 L 17.07,4.05 L 17.07,4.02 L 15.33,3.15 L 15.23,3.15 Z" fill="#c09ec0" stroke="none" /><path d="M 14.36,3.55 L 13.56,3.15 L 13.46,3.15 L 11.72,4.02 L 11.72,4.05 L 12.55,4.49 L 12.62,4.49 L 14.36,3.62 Z" fill="#c09ec0" stroke="none" /><path d="M 9.00,21.62 L 9.00,22.73 L 9.84,23.13 L 9.91,23.20 L 9.91,24.20 L 9.87,24.23 L 9.00,23.80 L 9.00,24.90 L 9.84,25.34 L 9.91,25.34 L 9.91,24.30 L 9.94,24.27 L 10.81,24.70 L 10.81,23.60 L 9.97,23.20 L 9.91,23.13 L 9.91,22.06 L 9.07,21.62 Z" fill="#d4b1d4" stroke="none" /><path d="M 3.62,20.02 L 3.62,21.12 L 4.49,21.56 L 4.49,22.66 L 5.39,23.10 L 5.39,21.99 L 4.49,21.52 L 4.49,20.45 Z" fill="#d4b1d4" stroke="none" /><path d="M 9.00,16.10 L 9.00,17.21 L 9.84,17.61 L 9.91,17.67 L 9.91,18.74 L 10.74,19.18 L 10.81,19.18 L 10.81,18.08 L 9.97,17.67 L 9.91,17.61 L 9.91,16.54 Z" fill="#d4b1d4" stroke="none" /><path d="M 4.49,13.86 L 4.49,14.86 L 4.45,14.90 L 3.62,14.49 L 3.62,15.60 L 4.42,16.00 L 4.49,16.07 L 4.49,17.14 L 5.32,17.57 L 5.39,17.57 L 5.39,16.47 L 4.55,16.07 L 4.49,16.00 L 4.49,15.00 L 4.52,14.96 L 5.32,15.36 L 5.39,15.36 L 5.39,14.29 L 4.55,13.86 Z" fill="#d4b1d4" stroke="none" /><path d="M 12.62,9.87 L 12.62,9.91 L 13.49,10.34 L 14.36,9.91 L 14.43,9.91 L 15.26,10.34 L 16.17,9.91 L 16.13,9.84 L 15.33,9.44 L 15.26,9.44 L 14.43,9.87 L 14.36,9.87 L 13.52,9.44 L 13.46,9.44 Z" fill="#d4b1d4" stroke="none" /><path d="M 17.10,6.73 L 17.10,6.76 L 17.97,7.20 L 18.85,6.76 L 18.95,6.76 L 19.68,7.13 L 19.75,7.20 L 19.72,7.23 L 18.95,7.60 L 18.91,7.67 L 19.72,8.07 L 19.85,8.07 L 20.65,7.67 L 20.65,7.60 L 19.85,7.20 L 19.92,7.13 L 20.69,6.76 L 20.69,6.73 L 19.85,6.29 L 19.75,6.29 L 18.91,6.73 L 18.04,6.29 L 17.94,6.29 Z" fill="#d4b1d4" stroke="none" /><path d="M 8.10,6.73 L 8.10,6.76 L 8.87,7.13 L 8.94,7.20 L 8.13,7.60 L 8.13,7.67 L 8.94,8.07 L 9.07,8.07 L 9.84,7.67 L 9.94,7.67 L 10.81,8.10 L 11.68,7.67 L 11.65,7.60 L 10.85,7.20 L 10.74,7.20 L 9.91,7.63 L 9.07,7.23 L 9.04,7.20 L 9.10,7.13 L 9.87,6.76 L 9.87,6.73 L 9.04,6.29 L 8.94,6.29 Z" fill="#d4b1d4" stroke="none" /><path d="M 14.43,4.45 L 14.43,4.52 L 15.23,4.92 L 15.36,4.92 L 16.17,4.52 L 16.17,4.45 L 15.36,4.05 L 15.23,4.05 Z" fill="#d4b1d4" stroke="none" /><path d="M 12.62,4.45 L 12.62,4.52 L 13.42,4.92 L 13.56,4.92 L 14.36,4.52 L 14.36,4.45 L 13.56,4.05 L 13.42,4.05 Z" fill="#d4b1d4" stroke="none" /><path d="M 4.49,19.35 L 4.49,21.49 L 4.45,21.52 L 3.68,21.12 L 3.62,21.12 L 3.62,22.23 L 4.42,22.63 L 4.49,22.63 L 4.49,21.59 L 4.52,21.56 L 6.29,22.46 L 6.29,23.56 L 8.03,24.44 L 8.10,24.44 L 8.10,23.40 L 8.13,23.36 L 9.87,24.23 L 9.91,24.27 L 9.91,25.37 L 10.81,25.81 L 10.81,24.70 L 9.91,24.23 L 9.91,23.16 L 8.13,22.26 L 8.10,22.26 L 8.10,23.30 L 8.07,23.33 L 6.33,22.46 L 6.29,22.43 L 6.29,21.36 L 5.39,20.89 L 5.39,19.78 Z" fill="#d4c0d4" stroke="none" /><path d="M 3.62,13.42 L 3.62,14.49 L 4.42,14.90 L 4.49,14.96 L 4.49,16.03 L 6.26,16.94 L 6.29,16.94 L 6.29,15.90 L 6.33,15.87 L 8.03,16.70 L 8.10,16.77 L 8.10,17.84 L 9.00,18.31 L 9.00,19.41 L 9.91,19.85 L 9.91,17.71 L 9.97,17.67 L 10.74,18.08 L 10.81,18.08 L 10.81,17.00 L 9.97,16.57 L 9.91,16.57 L 9.91,17.57 L 9.84,17.61 L 8.17,16.77 L 8.10,16.70 L 8.10,15.63 L 6.36,14.76 L 6.29,14.76 L 6.29,15.77 L 6.26,15.80 L 4.55,14.96 L 4.49,14.90 L 4.49,13.82 L 3.68,13.42 Z" fill="#d4c0d4" stroke="none" /><path d="M 21.59,7.16 L 20.72,6.73 L 19.85,7.16 L 19.75,7.16 L 18.88,6.73 L 17.14,7.60 L 17.10,7.67 L 17.87,8.03 L 17.94,8.10 L 16.23,8.97 L 16.17,8.97 L 15.33,8.54 L 15.26,8.54 L 14.43,8.97 L 14.36,8.97 L 13.52,8.54 L 13.46,8.54 L 12.59,8.97 L 12.59,9.00 L 14.29,9.84 L 14.33,9.87 L 14.29,9.94 L 13.52,10.31 L 13.52,10.34 L 14.36,10.78 L 14.43,10.78 L 15.26,10.34 L 15.26,10.31 L 14.49,9.94 L 14.46,9.91 L 14.49,9.84 L 16.17,9.00 L 16.23,9.00 L 17.10,9.44 L 18.85,8.57 L 18.85,8.50 L 18.04,8.10 L 18.11,8.03 L 19.78,7.20 L 20.65,7.63 L 20.72,7.63 L 21.59,7.20 Z" fill="#d4c0d4" stroke="none" /><path d="M 12.55,5.36 L 11.75,4.95 L 11.62,4.95 L 9.91,5.82 L 9.91,5.86 L 10.68,6.23 L 10.74,6.29 L 10.71,6.33 L 9.04,7.16 L 8.94,7.16 L 8.07,6.73 L 7.20,7.16 L 7.20,7.20 L 8.07,7.63 L 8.13,7.63 L 8.97,7.20 L 9.84,7.63 L 9.94,7.63 L 11.68,6.76 L 11.65,6.69 L 10.85,6.29 L 10.91,6.23 L 12.55,5.42 Z" fill="#d4c0d4" stroke="none" /><path d="M 12.62,5.36 L 12.62,5.42 L 13.42,5.82 L 13.56,5.82 L 14.39,5.39 L 15.23,5.82 L 15.36,5.82 L 16.17,5.42 L 16.17,5.36 L 14.43,4.49 L 15.30,4.05 L 15.30,4.02 L 14.43,3.58 L 14.36,3.58 L 13.49,4.02 L 13.49,4.05 L 14.33,4.45 L 14.36,4.49 L 14.33,4.52 Z" fill="#d4c0d4" stroke="none" /></svg>