<svg height="32" width="32" viewBox="0 0 32 32"><defs /><path d="M 18.02,28.03 L 18.02,32.00 L 22.02,32.00 L 22.02,30.03 L 20.05,30.03 L 20.02,30.00 L 20.02,28.03 Z" fill="#a37d48" stroke="none" /><path d="M 14.01,26.03 L 14.01,32.00 L 16.02,32.00 L 16.02,26.03 Z" fill="#a37d48" stroke="none" /><path d="M 8.01,24.02 L 8.01,26.03 L 9.98,26.03 L 10.01,26.06 L 10.01,30.00 L 9.98,30.03 L 8.04,30.03 L 8.01,30.00 L 8.01,28.03 L 6.01,28.03 L 6.01,30.03 L 7.98,30.03 L 8.01,30.06 L 8.01,32.00 L 12.01,32.00 L 12.01,26.03 L 10.04,26.03 L 10.01,25.99 L 10.01,24.02 Z" fill="#a37d48" stroke="none" /><path d="M 20.02,22.02 L 20.02,24.02 L 22.02,24.02 L 22.02,22.02 Z" fill="#a37d48" stroke="none" /><path d="M 12.01,12.01 L 12.01,18.02 L 13.98,18.02 L 14.01,18.05 L 14.01,22.02 L 16.02,22.02 L 16.02,18.02 L 14.04,18.02 L 14.01,17.99 L 14.01,12.01 Z" fill="#a37d48" stroke="none" /><path d="M 16.02,30.03 L 16.02,32.00 L 18.02,32.00 L 18.02,30.03 Z" fill="#ba9c68" stroke="none" /><path d="M 12.01,28.03 L 12.01,32.00 L 14.01,32.00 L 14.01,28.03 Z" fill="#ba9c68" stroke="none" /><path d="M 20.02,20.02 L 20.02,22.02 L 21.99,22.02 L 22.02,22.05 L 22.02,24.02 L 24.02,24.02 L 24.02,22.05 L 24.05,22.02 L 28.03,22.02 L 28.03,20.02 L 24.05,20.02 L 24.02,19.99 L 24.02,18.02 L 22.02,18.02 L 22.02,19.99 L 21.99,20.02 Z" fill="#ba9c68" stroke="none" /><path d="M 2.00,22.02 L 2.00,24.02 L 5.97,24.02 L 6.01,24.05 L 6.01,25.99 L 5.97,26.03 L 4.00,26.03 L 4.00,28.03 L 6.01,28.03 L 6.01,26.06 L 6.04,26.03 L 7.98,26.03 L 8.01,26.06 L 8.01,28.03 L 10.01,28.03 L 10.01,26.06 L 10.04,26.03 L 12.01,26.03 L 12.01,22.05 L 12.04,22.02 L 13.98,22.02 L 14.01,22.05 L 14.01,26.03 L 17.99,26.03 L 18.02,26.06 L 18.02,28.03 L 21.99,28.03 L 22.02,28.06 L 22.02,30.03 L 24.02,30.03 L 24.02,28.03 L 22.05,28.03 L 22.02,28.00 L 22.02,26.03 L 20.05,26.03 L 20.02,25.99 L 20.02,24.02 L 18.05,24.02 L 18.02,23.99 L 18.02,20.02 L 16.02,20.02 L 16.02,21.99 L 15.98,22.02 L 14.04,22.02 L 14.01,21.99 L 14.01,18.05 L 14.04,18.02 L 16.02,18.02 L 16.02,16.05 L 16.05,16.02 L 18.02,16.02 L 18.02,14.01 L 16.02,14.01 L 16.02,15.98 L 15.98,16.02 L 14.01,16.02 L 14.01,17.99 L 13.98,18.02 L 12.04,18.02 L 12.01,17.99 L 12.01,14.01 L 10.01,14.01 L 10.01,17.99 L 9.98,18.02 L 8.01,18.02 L 8.01,22.02 L 9.98,22.02 L 10.01,22.05 L 10.01,25.99 L 9.98,26.03 L 8.04,26.03 L 8.01,25.99 L 8.01,24.02 L 6.04,24.02 L 6.01,23.99 L 6.01,22.02 Z" fill="#ba9c68" stroke="none" /><path d="M 16.02,26.03 L 16.02,30.03 L 18.02,30.03 L 18.02,26.03 Z" fill="#d1ba8a" stroke="none" /><path d="M 18.02,22.02 L 18.02,24.02 L 19.99,24.02 L 20.02,24.05 L 20.02,26.03 L 22.02,26.03 L 22.02,24.02 L 20.05,24.02 L 20.02,23.99 L 20.02,22.02 Z" fill="#d1ba8a" stroke="none" /><path d="M 26.03,18.02 L 24.02,18.02 L 24.02,19.99 L 23.99,20.02 L 22.02,20.02 L 22.02,22.02 L 24.02,22.02 L 24.02,20.05 L 24.05,20.02 L 26.03,20.02 Z" fill="#d1ba8a" stroke="none" /><path d="M 2.00,16.02 L 2.00,18.02 L 3.97,18.02 L 4.00,18.05 L 4.00,22.02 L 5.97,22.02 L 6.01,22.05 L 6.01,24.02 L 8.01,24.02 L 8.01,22.02 L 6.04,22.02 L 6.01,21.99 L 6.01,18.02 L 4.04,18.02 L 4.00,17.99 L 4.00,16.02 Z" fill="#d1ba8a" stroke="none" /><path d="M 6.01,14.01 L 6.01,16.02 L 7.98,16.02 L 8.01,16.05 L 8.01,18.02 L 9.98,18.02 L 10.01,18.05 L 10.01,22.02 L 11.98,22.02 L 12.01,22.05 L 12.01,28.03 L 14.01,28.03 L 14.01,22.02 L 12.04,22.02 L 12.01,21.99 L 12.01,18.02 L 10.04,18.02 L 10.01,17.99 L 10.01,16.02 L 8.04,16.02 L 8.01,15.98 L 8.01,14.01 Z" fill="#d1ba8a" stroke="none" /><path d="M 14.01,10.01 L 14.01,16.02 L 15.98,16.02 L 16.02,16.05 L 16.02,20.02 L 18.02,20.02 L 18.02,16.02 L 16.05,16.02 L 16.02,15.98 L 16.02,10.01 Z" fill="#d1ba8a" stroke="none" /><path d="M 18.02,8.01 L 18.02,14.01 L 19.99,14.01 L 20.02,14.04 L 20.02,16.02 L 22.02,16.02 L 22.02,14.04 L 22.05,14.01 L 24.02,14.01 L 24.02,12.01 L 22.02,12.01 L 22.02,13.98 L 21.99,14.01 L 20.05,14.01 L 20.02,13.98 L 20.02,8.01 Z" fill="#d1ba8a" stroke="none" /><path d="M 8.01,8.01 L 8.01,12.01 L 9.98,12.01 L 10.01,12.04 L 10.01,14.01 L 12.01,14.01 L 12.01,12.01 L 10.04,12.01 L 10.01,11.98 L 10.01,8.01 Z" fill="#d1ba8a" stroke="none" /><path d="M 14.01,6.01 L 14.01,8.01 L 16.02,8.01 L 16.02,6.01 Z" fill="#d1ba8a" stroke="none" /><path d="M 26.03,16.02 L 26.03,18.02 L 28.03,18.02 L 28.03,16.02 Z" fill="#dacfa3" stroke="none" /><path d="M 22.02,16.02 L 20.02,16.02 L 20.02,17.99 L 19.99,18.02 L 18.02,18.02 L 18.02,22.02 L 20.02,22.02 L 20.02,18.05 L 20.05,18.02 L 22.02,18.02 Z" fill="#dacfa3" stroke="none" /><path d="M 0.00,12.01 L 0.00,14.01 L 1.97,14.01 L 2.00,14.04 L 2.00,16.02 L 4.00,16.02 L 4.00,14.01 L 2.03,14.01 L 2.00,13.98 L 2.00,12.01 Z" fill="#dacfa3" stroke="none" /><path d="M 14.01,8.01 L 14.01,10.01 L 16.02,10.01 L 16.02,8.01 Z" fill="#dacfa3" stroke="none" /><path d="M 26.03,6.01 L 24.02,6.01 L 24.02,7.98 L 23.99,8.01 L 22.02,8.01 L 22.02,12.01 L 24.02,12.01 L 24.02,8.04 L 24.05,8.01 L 26.03,8.01 Z" fill="#dacfa3" stroke="none" /><path d="M 2.00,6.01 L 2.00,8.01 L 3.97,8.01 L 4.00,8.04 L 4.00,10.01 L 5.97,10.01 L 6.01,10.04 L 6.01,14.01 L 8.01,14.01 L 8.01,10.01 L 6.04,10.01 L 6.01,9.98 L 6.01,8.04 L 6.04,8.01 L 8.01,8.01 L 8.01,6.01 L 6.01,6.01 L 6.01,7.98 L 5.97,8.01 L 4.04,8.01 L 4.00,7.98 L 4.00,6.01 Z" fill="#dacfa3" stroke="none" /><path d="M 22.02,2.00 L 20.02,2.00 L 20.02,5.97 L 19.99,6.01 L 18.02,6.01 L 18.02,8.01 L 20.02,8.01 L 20.02,6.04 L 20.05,6.01 L 22.02,6.01 Z" fill="#dacfa3" stroke="none" /><path d="M 10.01,2.00 L 10.01,12.01 L 12.01,12.01 L 12.01,2.00 Z" fill="#dacfa3" stroke="none" /><path d="M 14.01,0.00 L 14.01,6.01 L 16.02,6.01 L 16.02,0.00 Z" fill="#dacfa3" stroke="none" /></svg>