<svg height="32" width="32" viewBox="0 0 32 32"><defs /><path d="M 18.89,28.72 L 18.83,28.72 L 17.97,29.17 L 17.97,30.22 L 18.04,30.22 L 18.89,29.77 Z" fill="#3a241a" stroke="none" /><path d="M 15.27,26.12 L 15.20,26.12 L 14.41,26.53 L 14.41,27.61 L 14.47,27.61 L 15.27,27.20 Z" fill="#3a241a" stroke="none" /><path d="M 19.79,24.94 L 17.08,26.27 L 17.08,27.39 L 17.15,27.39 L 19.75,26.08 L 19.79,26.05 Z" fill="#3a241a" stroke="none" /><path d="M 24.33,23.79 L 24.27,23.79 L 23.41,24.24 L 23.41,25.35 L 24.33,24.91 Z" fill="#3a241a" stroke="none" /><path d="M 17.97,21.44 L 17.91,21.44 L 17.08,21.85 L 17.08,22.97 L 17.97,22.52 Z" fill="#3a241a" stroke="none" /><path d="M 22.52,21.38 L 22.46,21.38 L 21.60,21.82 L 21.60,22.93 L 22.52,22.49 Z" fill="#3a241a" stroke="none" /><path d="M 28.82,19.34 L 28.76,19.34 L 27.93,19.75 L 27.93,20.87 L 28.82,20.42 Z" fill="#3a241a" stroke="none" /><path d="M 24.33,17.15 L 24.27,17.15 L 21.60,18.48 L 21.60,19.59 L 21.66,19.59 L 24.33,18.26 Z" fill="#3a241a" stroke="none" /><path d="M 16.19,15.65 L 15.27,16.10 L 15.27,17.21 L 15.33,17.21 L 16.19,16.76 Z" fill="#3a241a" stroke="none" /><path d="M 23.41,15.36 L 22.52,15.81 L 22.52,16.92 L 23.41,16.48 Z" fill="#3a241a" stroke="none" /><path d="M 18.83,14.31 L 17.97,14.76 L 17.97,15.87 L 18.86,15.43 L 18.89,15.46 L 18.89,16.51 L 18.96,16.51 L 19.79,16.10 L 19.79,14.98 L 19.72,14.98 L 18.93,15.40 L 18.89,15.36 L 18.89,14.31 Z" fill="#3a241a" stroke="none" /><path d="M 28.82,13.77 L 27.93,14.22 L 27.93,15.33 L 28.82,14.89 Z" fill="#3a241a" stroke="none" /><path d="M 22.52,10.34 L 22.46,10.34 L 21.60,10.78 L 21.60,11.83 L 21.66,11.83 L 22.52,11.39 Z" fill="#3a241a" stroke="none" /><path d="M 26.15,9.57 L 25.22,10.02 L 25.22,11.13 L 26.15,10.69 Z" fill="#3a241a" stroke="none" /><path d="M 17.08,26.31 L 17.02,26.31 L 15.27,27.20 L 15.27,28.31 L 17.08,27.42 Z" fill="#3b251a" stroke="none" /><path d="M 18.89,24.30 L 18.83,24.30 L 17.97,24.75 L 17.97,25.83 L 18.04,25.83 L 18.89,25.38 Z" fill="#3b251a" stroke="none" /><path d="M 16.19,23.41 L 15.27,23.86 L 15.27,24.97 L 15.33,24.97 L 16.19,24.52 Z" fill="#3b251a" stroke="none" /><path d="M 27.93,23.09 L 26.15,23.98 L 26.15,25.07 L 24.33,25.99 L 24.33,27.04 L 24.40,27.04 L 27.04,25.70 L 27.04,24.65 L 27.93,24.21 Z" fill="#3b251a" stroke="none" /><path d="M 16.19,21.22 L 16.13,21.22 L 14.41,22.08 L 14.41,23.19 L 14.47,23.19 L 16.19,22.33 Z" fill="#3b251a" stroke="none" /><path d="M 27.93,20.87 L 23.44,23.09 L 23.41,23.13 L 23.41,24.21 L 23.35,24.27 L 21.63,25.13 L 21.60,25.10 L 21.60,24.05 L 21.53,24.05 L 19.82,24.91 L 19.79,24.94 L 19.79,26.05 L 20.68,25.61 L 20.71,25.64 L 20.71,26.69 L 17.08,28.50 L 17.08,29.58 L 17.02,29.65 L 14.44,30.92 L 14.41,30.95 L 14.41,32.00 L 14.47,32.00 L 17.97,30.25 L 17.97,29.20 L 18.04,29.14 L 21.57,27.39 L 21.60,27.36 L 21.60,26.27 L 23.41,25.35 L 23.41,24.27 L 23.48,24.21 L 24.30,23.79 L 24.33,23.83 L 24.33,24.87 L 24.40,24.87 L 25.22,24.46 L 25.22,23.35 L 27.90,22.01 L 27.93,21.98 Z" fill="#3b251a" stroke="none" /><path d="M 23.41,20.93 L 23.35,20.93 L 22.55,21.34 L 22.52,21.31 L 22.52,20.26 L 22.46,20.26 L 21.60,20.71 L 21.60,21.79 L 21.53,21.85 L 20.74,22.23 L 20.71,22.20 L 20.71,21.15 L 20.68,21.15 L 18.00,22.49 L 17.97,22.52 L 17.97,23.63 L 20.64,22.30 L 20.71,22.33 L 20.71,23.38 L 20.74,23.38 L 21.60,22.93 L 21.60,21.85 L 21.66,21.79 L 22.49,21.38 L 22.52,21.41 L 22.52,22.46 L 22.58,22.46 L 23.41,22.04 Z" fill="#3b251a" stroke="none" /><path d="M 16.19,18.99 L 16.13,18.99 L 14.41,19.85 L 14.41,20.96 L 14.47,20.96 L 16.19,20.10 Z" fill="#3b251a" stroke="none" /><path d="M 27.04,18.00 L 26.97,18.00 L 24.37,19.31 L 24.33,19.34 L 24.33,20.45 L 27.04,19.12 Z" fill="#3b251a" stroke="none" /><path d="M 26.15,16.22 L 24.33,17.11 L 24.33,18.23 L 24.40,18.23 L 26.15,17.34 Z" fill="#3b251a" stroke="none" /><path d="M 17.97,14.76 L 16.19,15.65 L 16.19,16.76 L 17.97,15.87 Z" fill="#3b251a" stroke="none" /><path d="M 28.82,12.66 L 25.22,14.44 L 25.22,15.55 L 25.29,15.55 L 26.97,14.70 L 27.04,14.73 L 27.04,15.78 L 27.90,15.36 L 27.93,15.33 L 27.93,14.25 L 27.99,14.19 L 28.82,13.77 Z" fill="#3b251a" stroke="none" /><path d="M 18.89,12.15 L 18.83,12.15 L 15.27,13.93 L 15.27,15.01 L 18.86,13.23 L 18.89,13.20 Z" fill="#3b251a" stroke="none" /><path d="M 27.93,10.91 L 27.86,10.91 L 23.44,13.14 L 23.41,13.11 L 23.41,12.06 L 23.35,12.06 L 22.55,12.47 L 22.52,12.44 L 22.52,11.39 L 20.71,12.28 L 20.71,13.36 L 20.64,13.42 L 18.89,14.28 L 18.89,15.40 L 18.96,15.40 L 21.57,14.09 L 21.60,14.06 L 21.60,12.98 L 21.66,12.91 L 22.49,12.50 L 22.52,12.53 L 22.52,13.58 L 22.58,13.58 L 23.38,13.17 L 23.41,13.20 L 23.41,14.25 L 17.08,17.43 L 17.08,18.51 L 17.15,18.51 L 18.83,17.65 L 18.89,17.69 L 18.89,19.82 L 18.83,19.88 L 17.08,20.74 L 17.08,21.85 L 17.15,21.85 L 21.60,19.63 L 21.60,18.51 L 21.53,18.51 L 19.82,19.37 L 19.79,19.34 L 19.79,18.32 L 19.85,18.26 L 21.60,17.40 L 21.60,16.29 L 23.41,15.36 L 23.41,14.28 L 23.44,14.25 L 27.93,12.02 Z" fill="#3b251a" stroke="none" /><path d="M 28.82,8.24 L 27.96,8.65 L 27.93,8.62 L 27.93,7.63 L 27.86,7.63 L 24.37,9.38 L 24.33,9.42 L 24.33,10.47 L 24.40,10.47 L 27.86,8.72 L 27.93,8.75 L 27.93,9.77 L 27.99,9.77 L 28.82,9.35 Z" fill="#3b251a" stroke="none" /><path d="M 17.08,28.53 L 17.02,28.53 L 16.19,28.95 L 16.19,30.06 L 17.08,29.61 Z" fill="#3e251a" stroke="none" /><path d="M 21.60,27.36 L 20.71,27.80 L 20.71,28.85 L 20.77,28.85 L 21.60,28.44 Z" fill="#3e251a" stroke="none" /><path d="M 20.71,25.61 L 20.64,25.61 L 18.89,26.50 L 18.89,27.61 L 20.71,26.72 Z" fill="#3e251a" stroke="none" /><path d="M 23.41,25.35 L 22.52,25.80 L 22.52,26.88 L 22.58,26.88 L 23.41,26.47 Z" fill="#3e251a" stroke="none" /><path d="M 17.08,25.19 L 15.27,26.08 L 15.27,27.20 L 17.08,26.31 Z" fill="#3e251a" stroke="none" /><path d="M 19.79,23.86 L 19.72,23.86 L 18.89,24.27 L 18.89,25.38 L 19.79,24.94 Z" fill="#3e251a" stroke="none" /><path d="M 15.27,22.78 L 14.41,23.19 L 14.41,24.30 L 15.27,23.89 Z" fill="#3e251a" stroke="none" /><path d="M 27.04,22.43 L 26.15,22.87 L 26.15,23.95 L 26.08,24.02 L 25.22,24.43 L 25.22,25.54 L 26.15,25.10 L 26.15,24.02 L 26.21,23.95 L 27.04,23.54 Z" fill="#3e251a" stroke="none" /><path d="M 25.22,21.12 L 23.41,22.01 L 23.41,23.13 L 25.22,22.23 Z" fill="#3e251a" stroke="none" /><path d="M 28.82,20.42 L 27.93,20.87 L 27.93,21.98 L 28.82,21.53 Z" fill="#3e251a" stroke="none" /><path d="M 22.52,19.15 L 18.93,20.93 L 18.89,20.96 L 18.89,22.04 L 18.96,22.04 L 22.52,20.26 Z" fill="#3e251a" stroke="none" /><path d="M 18.89,15.43 L 18.83,15.43 L 17.08,16.32 L 17.08,17.43 L 18.89,16.54 Z" fill="#3e251a" stroke="none" /><path d="M 26.15,15.11 L 25.22,15.55 L 25.22,16.67 L 25.29,16.67 L 26.15,16.22 Z" fill="#3e251a" stroke="none" /><path d="M 16.19,14.57 L 16.13,14.57 L 15.27,15.01 L 15.27,16.10 L 15.33,16.10 L 16.19,15.65 Z" fill="#3e251a" stroke="none" /><path d="M 23.35,13.17 L 22.52,13.58 L 22.52,14.70 L 22.58,14.70 L 23.38,14.28 L 23.41,14.31 L 23.41,15.36 L 23.44,15.36 L 24.33,14.92 L 24.33,13.81 L 23.44,14.25 L 23.41,14.22 L 23.41,13.17 Z" fill="#3e251a" stroke="none" /><path d="M 20.71,12.31 L 20.64,12.31 L 19.79,12.76 L 19.79,13.84 L 19.85,13.84 L 20.71,13.39 Z" fill="#3e251a" stroke="none" /><path d="M 28.82,11.58 L 28.76,11.58 L 27.93,11.99 L 27.93,13.11 L 28.82,12.66 Z" fill="#3e251a" stroke="none" /><path d="M 26.15,10.69 L 26.08,10.69 L 25.22,11.13 L 25.22,12.25 L 26.15,11.80 Z" fill="#3e251a" stroke="none" /><path d="M 23.41,9.89 L 23.35,9.89 L 22.52,10.31 L 22.52,11.39 L 23.41,10.94 Z" fill="#3e251a" stroke="none" /><path d="M 27.93,9.80 L 27.86,9.80 L 27.04,10.21 L 27.04,11.32 L 27.10,11.32 L 27.93,10.91 Z" fill="#3e251a" stroke="none" /><path d="M 15.27,27.20 L 14.41,27.61 L 14.41,30.95 L 16.19,30.06 L 16.19,28.98 L 16.13,28.98 L 15.33,29.39 L 15.27,29.36 Z" fill="#3c261b" stroke="none" /><path d="M 24.33,25.99 L 22.55,26.88 L 22.52,26.85 L 22.52,25.80 L 21.60,26.24 L 21.60,28.41 L 21.66,28.41 L 24.33,27.07 Z" fill="#3c261b" stroke="none" /><path d="M 17.97,24.75 L 17.08,25.19 L 17.08,26.27 L 17.15,26.27 L 17.97,25.86 Z" fill="#3c261b" stroke="none" /><path d="M 23.41,23.13 L 21.63,24.02 L 21.60,23.98 L 21.60,22.93 L 21.57,22.93 L 19.79,23.83 L 19.79,24.94 L 21.57,24.05 L 21.60,24.08 L 21.60,25.13 L 21.66,25.13 L 23.41,24.24 Z" fill="#3c261b" stroke="none" /><path d="M 26.15,22.87 L 25.22,23.32 L 25.22,24.43 L 25.29,24.43 L 26.15,23.98 Z" fill="#3c261b" stroke="none" /><path d="M 28.82,22.65 L 27.93,23.09 L 27.93,24.17 L 27.04,24.62 L 27.04,25.70 L 28.82,24.81 Z" fill="#3c261b" stroke="none" /><path d="M 17.97,22.52 L 16.19,23.41 L 16.19,24.49 L 16.13,24.56 L 15.30,24.97 L 15.27,24.94 L 15.27,23.89 L 15.20,23.89 L 14.41,24.30 L 14.41,26.53 L 16.19,25.64 L 16.19,24.56 L 16.25,24.49 L 17.97,23.63 Z" fill="#3c261b" stroke="none" /><path d="M 21.60,20.71 L 20.71,21.15 L 20.71,22.27 L 21.60,21.82 Z" fill="#3c261b" stroke="none" /><path d="M 24.33,19.34 L 22.52,20.23 L 22.52,21.34 L 22.58,21.34 L 24.33,20.45 Z" fill="#3c261b" stroke="none" /><path d="M 20.71,17.84 L 20.64,17.84 L 19.79,18.29 L 19.79,19.40 L 20.71,18.96 Z" fill="#3c261b" stroke="none" /><path d="M 18.89,17.62 L 16.19,18.96 L 16.19,20.07 L 14.41,20.96 L 14.41,22.08 L 14.47,22.08 L 16.16,21.22 L 16.19,21.25 L 16.19,22.30 L 16.25,22.30 L 17.08,21.88 L 17.08,19.66 L 18.89,18.74 Z" fill="#3c261b" stroke="none" /><path d="M 28.82,17.11 L 28.76,17.11 L 27.93,17.53 L 27.93,18.64 L 27.90,18.67 L 26.15,19.53 L 26.15,20.64 L 25.22,21.12 L 25.22,22.20 L 25.29,22.20 L 26.15,21.76 L 26.15,20.68 L 26.18,20.64 L 28.82,19.34 Z" fill="#3c261b" stroke="none" /><path d="M 22.52,15.81 L 21.60,16.25 L 21.60,17.37 L 21.66,17.37 L 22.52,16.92 Z" fill="#3c261b" stroke="none" /><path d="M 28.82,14.89 L 27.10,15.75 L 27.04,15.71 L 27.04,14.66 L 26.15,15.11 L 26.15,17.30 L 26.08,17.37 L 25.22,17.78 L 25.22,18.89 L 26.15,18.45 L 26.15,17.37 L 26.21,17.30 L 28.82,16.00 Z" fill="#3c261b" stroke="none" /><path d="M 20.71,14.50 L 19.79,14.95 L 19.79,16.06 L 19.85,16.06 L 20.71,15.62 Z" fill="#3c261b" stroke="none" /><path d="M 25.22,14.47 L 25.16,14.47 L 23.41,15.36 L 23.41,16.48 L 25.22,15.59 Z" fill="#3c261b" stroke="none" /><path d="M 15.27,13.96 L 15.20,13.96 L 14.41,14.38 L 14.41,18.77 L 17.08,17.43 L 17.08,16.32 L 15.30,17.21 L 15.27,17.18 Z" fill="#3c261b" stroke="none" /><path d="M 22.52,12.50 L 22.46,12.50 L 21.60,12.95 L 21.60,14.06 L 22.52,13.61 Z" fill="#3c261b" stroke="none" /><path d="M 25.22,11.13 L 23.41,12.02 L 23.41,13.14 L 23.48,13.14 L 25.22,12.25 Z" fill="#3c261b" stroke="none" /><path d="M 21.60,10.78 L 18.89,12.12 L 18.89,13.20 L 21.60,11.86 Z" fill="#3c261b" stroke="none" /><path d="M 24.33,9.42 L 23.41,9.86 L 23.41,10.94 L 24.33,10.50 Z" fill="#3c261b" stroke="none" /><path d="M 28.82,7.19 L 28.76,7.19 L 27.93,7.60 L 27.93,8.65 L 27.86,8.72 L 26.15,9.57 L 26.15,10.66 L 26.21,10.66 L 27.90,9.80 L 27.93,9.83 L 27.93,11.99 L 27.99,11.99 L 28.82,11.58 L 28.82,9.35 L 28.76,9.35 L 27.96,9.77 L 27.93,9.73 L 27.93,8.72 L 27.99,8.65 L 28.82,8.24 Z" fill="#3c261b" stroke="none" /><path d="M 20.71,27.80 L 18.89,28.69 L 18.89,29.77 L 20.71,28.88 Z" fill="#3d261b" stroke="none" /><path d="M 18.89,26.50 L 15.30,28.28 L 15.27,28.31 L 15.27,29.42 L 18.86,27.64 L 18.89,27.61 Z" fill="#3d261b" stroke="none" /><path d="M 25.22,24.46 L 25.16,24.46 L 23.41,25.35 L 23.41,26.43 L 23.48,26.43 L 25.22,25.54 Z" fill="#3d261b" stroke="none" /><path d="M 20.71,22.27 L 16.22,24.49 L 16.19,24.52 L 16.19,25.64 L 20.68,23.41 L 20.71,23.38 Z" fill="#3d261b" stroke="none" /><path d="M 17.08,21.88 L 17.02,21.88 L 15.27,22.78 L 15.27,23.86 L 15.33,23.86 L 17.08,22.97 Z" fill="#3d261b" stroke="none" /><path d="M 28.82,21.53 L 27.04,22.43 L 27.04,23.54 L 28.82,22.65 Z" fill="#3d261b" stroke="none" /><path d="M 18.89,20.96 L 17.97,21.41 L 17.97,22.52 L 18.89,22.08 Z" fill="#3d261b" stroke="none" /><path d="M 27.93,19.79 L 27.86,19.79 L 26.18,20.64 L 26.15,20.61 L 26.15,19.56 L 26.08,19.56 L 23.41,20.90 L 23.41,22.01 L 21.60,22.93 L 21.60,24.02 L 21.66,24.02 L 23.41,23.13 L 23.41,22.04 L 23.44,22.01 L 26.12,20.68 L 26.15,20.71 L 26.15,21.76 L 27.90,20.90 L 27.93,20.87 Z" fill="#3d261b" stroke="none" /><path d="M 18.89,18.74 L 17.08,19.63 L 17.08,20.74 L 17.15,20.74 L 18.89,19.85 Z" fill="#3d261b" stroke="none" /><path d="M 25.22,17.81 L 25.16,17.81 L 22.55,19.12 L 22.52,19.15 L 22.52,20.23 L 22.58,20.23 L 25.19,18.93 L 25.22,18.89 Z" fill="#3d261b" stroke="none" /><path d="M 17.08,17.43 L 14.44,18.74 L 14.41,18.77 L 14.41,19.85 L 14.47,19.85 L 17.08,18.54 Z" fill="#3d261b" stroke="none" /><path d="M 28.82,16.00 L 26.18,17.30 L 26.15,17.34 L 26.15,18.42 L 26.21,18.42 L 27.01,18.00 L 27.04,18.04 L 27.04,19.09 L 27.10,19.09 L 27.93,18.67 L 27.93,17.56 L 28.82,17.11 Z" fill="#3d261b" stroke="none" /><path d="M 25.22,15.59 L 25.16,15.59 L 20.71,17.81 L 20.71,18.93 L 20.77,18.93 L 25.22,16.70 Z" fill="#3d261b" stroke="none" /><path d="M 22.52,13.61 L 22.46,13.61 L 20.71,14.50 L 20.71,15.62 L 22.52,14.73 Z" fill="#3d261b" stroke="none" /><path d="M 19.79,12.76 L 16.19,14.54 L 16.19,15.65 L 19.79,13.87 Z" fill="#3d261b" stroke="none" /><path d="M 27.93,12.02 L 27.86,12.02 L 24.37,13.77 L 24.33,13.81 L 24.33,14.89 L 24.40,14.89 L 27.90,13.14 L 27.93,13.11 Z" fill="#3d261b" stroke="none" /><path d="M 27.04,10.24 L 26.97,10.24 L 26.15,10.66 L 26.15,11.77 L 26.21,11.77 L 27.04,11.36 Z" fill="#3d261b" stroke="none" /><path d="M 25.22,10.05 L 25.16,10.05 L 22.55,11.36 L 22.52,11.39 L 22.52,12.47 L 22.58,12.47 L 25.19,11.17 L 25.22,11.13 Z" fill="#3d261b" stroke="none" /><path d="M 11.80,27.42 L 11.74,27.42 L 11.74,28.47 L 11.71,28.50 L 10.91,28.09 L 10.85,28.09 L 10.85,29.17 L 11.71,29.61 L 11.74,29.61 L 11.74,28.56 L 11.77,28.53 L 12.56,28.95 L 12.63,28.95 L 12.63,27.83 Z" fill="#643c2a" stroke="none" /><path d="M 13.55,27.20 L 13.55,28.31 L 14.35,28.72 L 14.41,28.72 L 14.41,27.61 Z" fill="#643c2a" stroke="none" /><path d="M 6.30,26.91 L 6.30,27.96 L 7.16,28.41 L 7.22,28.41 L 7.22,27.36 L 6.36,26.91 Z" fill="#643c2a" stroke="none" /><path d="M 8.11,26.72 L 8.11,27.80 L 8.97,28.25 L 9.03,28.25 L 9.03,27.17 L 8.17,26.72 Z" fill="#643c2a" stroke="none" /><path d="M 9.03,23.86 L 9.03,24.94 L 10.78,25.83 L 10.85,25.83 L 10.85,24.75 L 9.10,23.86 Z" fill="#643c2a" stroke="none" /><path d="M 4.49,23.79 L 4.49,24.91 L 6.30,25.80 L 6.30,24.68 L 4.55,23.79 Z" fill="#643c2a" stroke="none" /><path d="M 1.78,23.54 L 1.78,24.65 L 2.61,25.07 L 2.67,25.07 L 2.67,23.98 Z" fill="#643c2a" stroke="none" /><path d="M 4.49,21.57 L 4.49,22.68 L 5.41,23.13 L 5.41,22.01 Z" fill="#643c2a" stroke="none" /><path d="M 0.89,19.79 L 0.89,20.87 L 2.67,21.76 L 2.67,20.64 L 0.95,19.79 Z" fill="#643c2a" stroke="none" /><path d="M 10.85,19.21 L 10.85,20.33 L 11.67,20.74 L 11.74,20.74 L 11.74,19.63 L 10.91,19.21 Z" fill="#643c2a" stroke="none" /><path d="M 13.55,18.35 L 13.55,19.44 L 14.35,19.85 L 14.41,19.85 L 14.41,18.77 L 13.61,18.35 Z" fill="#643c2a" stroke="none" /><path d="M 4.49,18.26 L 4.49,19.34 L 4.52,19.37 L 8.11,21.15 L 8.11,20.04 L 4.55,18.26 Z" fill="#643c2a" stroke="none" /><path d="M 0.00,16.00 L 0.00,17.11 L 0.83,17.53 L 0.89,17.53 L 0.89,16.45 Z" fill="#643c2a" stroke="none" /><path d="M 12.63,15.65 L 12.63,16.76 L 13.49,17.21 L 13.55,17.21 L 13.55,16.10 Z" fill="#643c2a" stroke="none" /><path d="M 10.85,14.76 L 10.85,15.87 L 11.74,16.32 L 11.74,15.20 Z" fill="#643c2a" stroke="none" /><path d="M 8.11,14.50 L 8.11,15.62 L 9.03,16.10 L 9.03,17.18 L 9.92,17.62 L 9.92,16.51 L 9.03,16.06 L 9.03,14.95 Z" fill="#643c2a" stroke="none" /><path d="M 2.67,11.80 L 2.67,12.91 L 4.49,13.81 L 4.49,12.69 L 2.74,11.80 Z" fill="#643c2a" stroke="none" /><path d="M 8.11,11.23 L 8.11,12.31 L 9.03,12.76 L 9.03,11.67 Z" fill="#643c2a" stroke="none" /><path d="M 5.41,10.94 L 5.41,12.06 L 6.23,12.47 L 6.30,12.47 L 6.30,11.39 Z" fill="#643c2a" stroke="none" /><path d="M 0.89,8.68 L 0.89,9.80 L 1.72,10.21 L 1.78,10.21 L 1.78,9.13 Z" fill="#643c2a" stroke="none" /><path d="M 13.55,26.12 L 13.55,27.20 L 14.35,27.61 L 14.41,27.61 L 14.41,26.53 L 13.61,26.12 Z" fill="#5f3a2b" stroke="none" /><path d="M 9.03,26.05 L 9.03,27.17 L 9.92,27.61 L 9.92,26.50 Z" fill="#5f3a2b" stroke="none" /><path d="M 3.59,25.54 L 3.59,26.62 L 4.42,27.04 L 4.49,27.04 L 4.49,25.99 Z" fill="#5f3a2b" stroke="none" /><path d="M 7.22,21.82 L 7.22,22.93 L 8.11,23.38 L 8.11,22.27 Z" fill="#5f3a2b" stroke="none" /><path d="M 2.67,21.76 L 2.67,22.87 L 2.70,22.90 L 5.41,24.24 L 5.41,23.13 L 5.38,23.09 Z" fill="#5f3a2b" stroke="none" /><path d="M 13.55,20.55 L 13.55,21.66 L 14.35,22.08 L 14.41,22.08 L 14.41,20.96 Z" fill="#5f3a2b" stroke="none" /><path d="M 0.00,19.34 L 0.00,20.42 L 0.89,20.87 L 0.89,19.75 L 0.06,19.34 Z" fill="#5f3a2b" stroke="none" /><path d="M 7.22,18.51 L 7.22,19.63 L 9.92,20.96 L 9.92,19.85 L 9.89,19.82 L 7.28,18.51 Z" fill="#5f3a2b" stroke="none" /><path d="M 2.67,17.34 L 2.67,18.45 L 3.59,18.89 L 3.59,17.78 Z" fill="#5f3a2b" stroke="none" /><path d="M 8.11,16.73 L 8.11,17.84 L 9.03,18.29 L 9.03,17.18 L 8.17,16.73 Z" fill="#5f3a2b" stroke="none" /><path d="M 10.85,13.68 L 10.85,14.76 L 11.74,15.20 L 11.74,14.09 L 10.91,13.68 Z" fill="#5f3a2b" stroke="none" /><path d="M 3.59,11.13 L 3.59,12.25 L 4.42,12.66 L 4.49,12.72 L 4.49,13.81 L 5.34,14.25 L 5.41,14.25 L 5.41,13.14 L 4.55,12.72 L 4.49,12.66 L 4.49,11.58 Z" fill="#5f3a2b" stroke="none" /><path d="M 7.22,10.78 L 7.22,11.86 L 8.05,12.28 L 8.11,12.28 L 8.11,11.23 Z" fill="#5f3a2b" stroke="none" /><path d="M 0.89,9.80 L 0.89,10.91 L 1.72,11.32 L 1.78,11.32 L 1.78,10.21 L 0.95,9.80 Z" fill="#5f3a2b" stroke="none" /><path d="M 9.92,28.72 L 9.92,29.77 L 9.96,29.81 L 12.56,31.11 L 12.63,31.11 L 12.63,30.12 L 12.66,30.09 L 13.49,30.50 L 13.55,30.50 L 13.55,29.42 L 11.80,28.53 L 11.74,28.53 L 11.74,29.55 L 11.71,29.58 L 9.99,28.72 Z" fill="#603c2b" stroke="none" /><path d="M 0.00,23.76 L 0.00,24.81 L 0.03,24.84 L 3.53,26.59 L 3.59,26.59 L 3.59,25.61 L 3.66,25.57 L 7.22,27.36 L 7.22,26.31 L 7.25,26.27 L 9.03,27.17 L 9.03,26.12 L 9.10,26.08 L 9.86,26.47 L 9.92,26.53 L 9.92,27.61 L 9.96,27.64 L 10.78,28.06 L 10.85,28.06 L 10.85,27.01 L 10.88,26.97 L 13.55,28.31 L 13.55,27.20 L 13.52,27.17 L 9.07,24.94 L 9.03,24.94 L 9.03,25.99 L 8.97,26.02 L 7.22,25.13 L 7.22,24.02 L 5.44,23.13 L 5.41,23.13 L 5.41,24.24 L 6.23,24.65 L 6.30,24.72 L 6.30,25.73 L 6.27,25.77 L 2.70,23.98 L 2.67,23.98 L 2.67,25.03 L 2.64,25.07 L 0.06,23.76 Z" fill="#603c2b" stroke="none" /><path d="M 9.92,22.08 L 9.92,23.19 L 12.63,24.52 L 12.63,23.41 L 12.60,23.38 L 9.99,22.08 Z" fill="#603c2b" stroke="none" /><path d="M 3.59,21.12 L 3.59,22.23 L 4.42,22.65 L 4.49,22.65 L 4.49,21.57 Z" fill="#603c2b" stroke="none" /><path d="M 0.89,20.87 L 0.89,21.98 L 2.67,22.87 L 2.67,21.76 Z" fill="#603c2b" stroke="none" /><path d="M 9.92,19.85 L 9.92,20.96 L 11.67,21.85 L 11.74,21.85 L 11.74,20.74 Z" fill="#603c2b" stroke="none" /><path d="M 3.59,18.89 L 3.59,20.01 L 6.27,21.34 L 6.30,21.38 L 6.30,22.49 L 7.22,22.93 L 7.22,21.88 L 7.28,21.85 L 8.05,22.23 L 8.11,22.30 L 8.11,23.38 L 8.97,23.83 L 9.03,23.83 L 9.03,22.71 L 8.17,22.30 L 8.11,22.23 L 8.11,21.15 L 8.08,21.12 L 7.22,20.71 L 7.22,21.76 L 7.16,21.79 L 6.30,21.34 L 6.30,20.23 Z" fill="#603c2b" stroke="none" /><path d="M 10.85,18.10 L 10.85,19.21 L 12.63,20.10 L 12.63,21.22 L 13.55,21.66 L 13.55,20.61 L 13.58,20.58 L 14.35,20.96 L 14.41,20.96 L 14.41,19.85 L 10.91,18.10 Z" fill="#603c2b" stroke="none" /><path d="M 0.89,17.56 L 0.89,18.67 L 1.72,19.09 L 1.78,19.09 L 1.78,17.97 L 0.95,17.56 Z" fill="#603c2b" stroke="none" /><path d="M 0.00,14.89 L 0.00,16.00 L 1.78,16.89 L 1.78,15.78 Z" fill="#603c2b" stroke="none" /><path d="M 0.00,12.66 L 0.00,13.77 L 1.78,14.66 L 1.78,13.55 Z" fill="#603c2b" stroke="none" /><path d="M 9.92,12.15 L 9.92,13.20 L 9.96,13.23 L 13.49,14.98 L 13.55,15.05 L 13.55,16.13 L 14.41,16.54 L 14.41,15.43 L 13.61,15.05 L 13.55,14.98 L 13.55,13.93 L 9.99,12.15 Z" fill="#603c2b" stroke="none" /><path d="M 2.67,12.91 L 2.67,14.00 L 4.49,14.92 L 4.49,17.08 L 4.45,17.11 L 2.67,16.22 L 2.67,17.34 L 7.16,19.59 L 7.22,19.59 L 7.22,18.48 L 5.47,17.62 L 5.41,17.56 L 5.41,16.54 L 5.44,16.51 L 7.16,17.37 L 7.22,17.37 L 7.22,16.32 L 7.25,16.29 L 9.03,17.18 L 9.03,16.13 L 9.07,16.10 L 13.49,18.32 L 13.55,18.32 L 13.55,17.21 L 9.07,14.98 L 9.03,14.95 L 9.03,13.84 L 8.17,13.42 L 8.11,13.36 L 8.11,12.28 L 6.33,11.39 L 6.30,11.39 L 6.30,12.44 L 6.27,12.47 L 4.49,11.58 L 4.49,12.69 L 7.19,14.06 L 7.22,14.06 L 7.22,13.01 L 7.25,12.98 L 8.05,13.36 L 8.11,13.42 L 8.11,14.50 L 9.03,14.98 L 9.03,16.03 L 9.00,16.06 L 2.74,12.91 Z" fill="#603c2b" stroke="none" /><path d="M 1.78,10.24 L 1.78,11.36 L 3.59,12.25 L 3.59,11.13 L 1.84,10.24 Z" fill="#603c2b" stroke="none" /><path d="M 0.89,7.63 L 0.89,8.68 L 0.92,8.72 L 4.42,10.47 L 4.49,10.47 L 4.49,9.42 L 4.45,9.38 L 0.95,7.63 Z" fill="#603c2b" stroke="none" /><path d="M 13.55,29.42 L 13.55,30.47 L 13.52,30.50 L 12.63,30.06 L 12.63,31.14 L 14.35,32.00 L 14.41,32.00 L 14.41,29.84 Z" fill="#613d2c" stroke="none" /><path d="M 10.85,26.97 L 10.85,28.09 L 11.67,28.50 L 11.74,28.50 L 11.74,27.39 L 10.91,26.97 Z" fill="#613d2c" stroke="none" /><path d="M 7.22,26.27 L 7.22,28.44 L 9.92,29.77 L 9.92,28.69 L 8.17,27.83 L 8.11,27.77 L 8.11,26.69 L 7.28,26.27 Z" fill="#613d2c" stroke="none" /><path d="M 14.41,24.30 L 13.61,23.89 L 13.55,23.89 L 13.55,24.94 L 13.52,24.97 L 11.74,24.08 L 11.74,25.13 L 11.71,25.16 L 10.85,24.75 L 10.85,25.86 L 11.67,26.27 L 11.74,26.27 L 11.74,25.26 L 11.80,25.22 L 14.41,26.53 Z" fill="#613d2c" stroke="none" /><path d="M 5.41,22.04 L 5.41,23.13 L 7.22,24.05 L 7.22,25.16 L 9.03,26.05 L 9.03,24.94 L 7.22,24.02 L 7.22,22.93 L 7.19,22.90 L 5.47,22.04 Z" fill="#613d2c" stroke="none" /><path d="M 8.11,21.15 L 8.11,22.27 L 9.86,23.16 L 9.92,23.16 L 9.92,22.04 Z" fill="#613d2c" stroke="none" /><path d="M 2.67,20.68 L 2.67,21.76 L 3.53,22.20 L 3.59,22.20 L 3.59,21.12 L 2.74,20.68 Z" fill="#613d2c" stroke="none" /><path d="M 0.00,20.42 L 0.00,23.76 L 1.72,24.62 L 1.78,24.62 L 1.78,23.54 L 0.95,23.13 L 0.89,23.06 L 0.89,20.87 Z" fill="#613d2c" stroke="none" /><path d="M 6.30,20.26 L 6.30,21.38 L 7.22,21.82 L 7.22,20.71 L 6.36,20.26 Z" fill="#613d2c" stroke="none" /><path d="M 11.74,19.66 L 11.74,21.82 L 11.71,21.85 L 10.91,21.44 L 10.85,21.44 L 10.85,22.52 L 11.74,22.97 L 11.74,21.92 L 11.77,21.88 L 14.35,23.19 L 14.41,23.19 L 14.41,22.08 L 12.66,21.22 L 12.63,21.18 L 12.63,20.07 L 11.80,19.66 Z" fill="#613d2c" stroke="none" /><path d="M 9.03,17.18 L 9.03,18.29 L 10.78,19.18 L 10.85,19.18 L 10.85,18.07 Z" fill="#613d2c" stroke="none" /><path d="M 0.00,17.11 L 0.00,19.34 L 1.72,20.20 L 1.78,20.20 L 1.78,19.15 L 1.81,19.12 L 3.59,20.01 L 3.59,18.89 L 3.56,18.86 L 1.84,18.00 L 1.78,18.00 L 1.78,19.05 L 1.75,19.09 L 0.89,18.64 L 0.89,17.53 L 0.06,17.11 Z" fill="#613d2c" stroke="none" /><path d="M 5.41,16.48 L 5.41,17.59 L 6.30,18.04 L 6.30,16.92 Z" fill="#613d2c" stroke="none" /><path d="M 7.22,16.29 L 7.22,17.40 L 8.05,17.81 L 8.11,17.81 L 8.11,16.70 L 7.28,16.29 Z" fill="#613d2c" stroke="none" /><path d="M 11.74,14.12 L 11.74,15.20 L 13.55,16.13 L 13.55,18.35 L 14.41,18.77 L 14.41,16.54 L 13.55,16.10 L 13.55,15.08 L 13.58,15.05 L 14.35,15.43 L 14.41,15.43 L 14.41,14.38 L 13.61,13.96 L 13.55,13.96 L 13.55,14.95 L 13.49,14.98 L 11.80,14.12 Z" fill="#613d2c" stroke="none" /><path d="M 9.03,13.87 L 9.03,14.98 L 10.85,15.87 L 10.85,14.76 L 9.10,13.87 Z" fill="#613d2c" stroke="none" /><path d="M 0.00,13.77 L 0.00,14.89 L 1.72,15.75 L 1.78,15.81 L 1.78,16.89 L 2.64,17.34 L 2.67,17.34 L 2.67,15.17 L 2.70,15.14 L 4.42,16.00 L 4.49,16.00 L 4.49,14.89 L 1.81,13.55 L 1.78,13.55 L 1.78,14.60 L 1.75,14.63 Z" fill="#613d2c" stroke="none" /><path d="M 5.41,13.17 L 5.41,14.28 L 6.23,14.70 L 6.30,14.70 L 6.30,13.58 L 5.47,13.17 Z" fill="#613d2c" stroke="none" /><path d="M 7.22,12.95 L 7.22,14.06 L 8.11,14.50 L 8.11,13.39 Z" fill="#613d2c" stroke="none" /><path d="M 9.03,11.71 L 9.03,12.76 L 9.92,13.20 L 9.92,12.12 L 9.10,11.71 Z" fill="#613d2c" stroke="none" /><path d="M 4.49,9.42 L 4.49,10.50 L 7.16,11.83 L 7.22,11.83 L 7.22,10.78 L 7.19,10.75 Z" fill="#613d2c" stroke="none" /><path d="M 0.00,7.19 L 0.00,11.58 L 2.61,12.88 L 2.67,12.88 L 2.67,11.77 L 0.89,10.88 L 0.89,7.60 L 0.06,7.19 Z" fill="#613d2c" stroke="none" /><path d="M 12.63,27.86 L 12.63,28.98 L 14.35,29.84 L 14.41,29.84 L 14.41,28.72 L 12.69,27.86 Z" fill="#633e2c" stroke="none" /><path d="M 9.03,27.17 L 9.03,28.28 L 10.85,29.17 L 10.85,28.06 Z" fill="#633e2c" stroke="none" /><path d="M 4.49,25.99 L 4.49,27.07 L 6.30,27.96 L 6.30,26.88 Z" fill="#633e2c" stroke="none" /><path d="M 7.22,22.93 L 7.22,24.05 L 9.03,24.94 L 9.03,23.89 L 9.07,23.86 L 11.67,25.16 L 11.74,25.22 L 11.74,26.31 L 13.55,27.20 L 13.55,26.08 L 11.80,25.22 L 11.74,25.16 L 11.74,24.08 L 11.71,24.05 L 9.10,22.74 L 9.03,22.74 L 9.03,23.79 L 9.00,23.83 Z" fill="#633e2c" stroke="none" /><path d="M 0.89,21.98 L 0.89,23.09 L 0.92,23.13 L 4.42,24.87 L 4.49,24.87 L 4.49,23.76 Z" fill="#633e2c" stroke="none" /><path d="M 11.74,21.88 L 11.74,22.97 L 12.56,23.38 L 12.63,23.44 L 12.63,24.52 L 12.66,24.56 L 13.49,24.97 L 13.55,24.97 L 13.55,23.92 L 13.58,23.89 L 14.41,24.30 L 14.41,23.19 L 11.80,21.88 Z" fill="#633e2c" stroke="none" /><path d="M 8.11,20.07 L 8.11,21.15 L 8.14,21.18 L 10.85,22.52 L 10.85,21.41 L 8.17,20.07 Z" fill="#633e2c" stroke="none" /><path d="M 1.78,19.12 L 1.78,20.23 L 6.23,22.46 L 6.30,22.46 L 6.30,21.34 L 1.84,19.12 Z" fill="#633e2c" stroke="none" /><path d="M 3.59,17.81 L 3.59,18.89 L 4.49,19.34 L 4.49,18.23 L 3.66,17.81 Z" fill="#633e2c" stroke="none" /><path d="M 6.30,16.92 L 6.30,18.04 L 6.33,18.07 L 10.78,20.29 L 10.85,20.29 L 10.85,19.18 Z" fill="#633e2c" stroke="none" /><path d="M 9.92,16.54 L 9.92,17.62 L 9.96,17.65 L 13.55,19.44 L 13.55,18.32 L 9.99,16.54 Z" fill="#633e2c" stroke="none" /><path d="M 0.89,16.45 L 0.89,17.56 L 2.61,18.42 L 2.67,18.42 L 2.67,17.34 Z" fill="#633e2c" stroke="none" /><path d="M 11.74,15.20 L 11.74,16.32 L 12.63,16.76 L 12.63,15.65 Z" fill="#633e2c" stroke="none" /><path d="M 2.67,15.11 L 2.67,16.22 L 4.42,17.11 L 4.49,17.11 L 4.49,16.00 Z" fill="#633e2c" stroke="none" /><path d="M 6.30,13.61 L 6.30,14.73 L 8.11,15.62 L 8.11,14.50 L 6.36,13.61 Z" fill="#633e2c" stroke="none" /><path d="M 8.11,12.31 L 8.11,13.39 L 8.14,13.42 L 10.85,14.76 L 10.85,13.65 L 8.17,12.31 Z" fill="#633e2c" stroke="none" /><path d="M 0.00,11.58 L 0.00,12.66 L 0.03,12.69 L 2.67,14.00 L 2.67,12.88 L 0.06,11.58 Z" fill="#633e2c" stroke="none" /><path d="M 1.78,9.13 L 1.78,10.24 L 5.34,12.02 L 5.41,12.02 L 5.41,10.94 L 5.38,10.91 Z" fill="#633e2c" stroke="none" /><path d="M 12.60,12.60 L 12.60,12.63 L 13.49,13.07 L 14.41,12.63 L 14.41,12.60 L 13.52,12.15 Z" fill="#9a5c40" stroke="none" /><path d="M 9.92,12.12 L 9.92,12.15 L 10.82,12.60 L 11.67,12.18 L 11.64,12.12 L 10.82,11.71 L 10.75,11.71 Z" fill="#9a5c40" stroke="none" /><path d="M 14.44,11.67 L 14.44,11.74 L 15.27,12.15 L 15.36,12.15 L 16.19,11.74 L 16.19,11.67 L 15.36,11.26 L 15.27,11.26 Z" fill="#9a5c40" stroke="none" /><path d="M 18.96,11.23 L 18.96,11.29 L 19.72,11.67 L 19.85,11.67 L 20.68,11.26 L 20.64,11.20 L 19.88,10.82 L 19.79,10.82 Z" fill="#9a5c40" stroke="none" /><path d="M 14.44,9.86 L 14.44,9.92 L 15.27,10.34 L 15.36,10.34 L 16.16,9.92 L 16.25,9.92 L 17.05,10.34 L 17.18,10.34 L 18.00,9.92 L 17.97,9.86 L 17.15,9.45 L 17.08,9.45 L 16.22,9.89 L 15.33,9.45 L 15.27,9.45 Z" fill="#9a5c40" stroke="none" /><path d="M 10.82,9.89 L 10.82,9.92 L 11.64,10.34 L 11.77,10.34 L 12.60,9.92 L 12.56,9.86 L 11.74,9.45 L 11.67,9.45 Z" fill="#9a5c40" stroke="none" /><path d="M 20.77,9.42 L 20.77,9.48 L 21.60,9.89 L 21.69,9.89 L 22.52,9.48 L 22.52,9.42 L 21.69,9.00 L 21.60,9.00 Z" fill="#9a5c40" stroke="none" /><path d="M 2.70,8.49 L 2.74,8.56 L 3.56,8.97 L 3.63,8.97 L 4.45,8.56 L 4.45,8.52 L 3.56,8.08 Z" fill="#9a5c40" stroke="none" /><path d="M 25.29,7.16 L 25.32,7.22 L 26.15,7.63 L 26.21,7.63 L 27.07,7.19 L 27.07,7.16 L 26.24,6.74 L 26.12,6.74 Z" fill="#9a5c40" stroke="none" /><path d="M 23.44,7.16 L 22.62,6.74 L 22.49,6.74 L 20.77,7.60 L 20.77,7.67 L 21.60,8.08 L 21.69,8.08 L 23.41,7.22 Z" fill="#9a5c40" stroke="none" /><path d="M 9.86,6.71 L 9.03,6.30 L 8.91,6.30 L 7.19,7.16 L 7.19,7.19 L 8.05,7.63 L 8.11,7.63 L 9.83,6.78 Z" fill="#9a5c40" stroke="none" /><path d="M 4.42,5.82 L 3.56,6.27 L 3.56,6.30 L 4.39,6.71 L 4.36,6.78 L 3.56,7.16 L 3.56,7.19 L 4.42,7.63 L 4.49,7.63 L 5.34,7.19 L 5.34,7.16 L 4.52,6.74 L 4.55,6.68 L 5.34,6.30 L 5.34,6.27 L 4.49,5.82 Z" fill="#9a5c40" stroke="none" /><path d="M 17.11,5.82 L 16.25,5.38 L 16.19,5.38 L 12.63,7.16 L 12.63,7.22 L 13.46,7.63 L 13.55,7.63 L 17.11,5.85 Z" fill="#9a5c40" stroke="none" /><path d="M 6.27,4.90 L 6.30,4.96 L 7.13,5.38 L 7.19,5.38 L 8.05,4.93 L 8.05,4.90 L 7.22,4.49 L 7.09,4.49 Z" fill="#9a5c40" stroke="none" /><path d="M 12.60,4.45 L 12.60,4.49 L 13.49,4.93 L 14.41,4.49 L 14.41,4.45 L 13.52,4.01 Z" fill="#9a5c40" stroke="none" /><path d="M 19.88,3.53 L 19.88,3.59 L 20.71,4.01 L 20.80,4.01 L 21.60,3.59 L 21.60,3.56 L 20.77,3.15 L 20.64,3.15 Z" fill="#9a5c40" stroke="none" /><path d="M 7.22,3.56 L 7.25,3.63 L 8.02,4.01 L 8.11,4.01 L 8.94,3.59 L 8.94,3.53 L 8.17,3.15 L 8.05,3.15 Z" fill="#9a5c40" stroke="none" /><path d="M 12.56,3.53 L 11.74,3.12 L 11.64,3.12 L 9.92,3.98 L 9.89,4.04 L 10.72,4.45 L 10.85,4.45 L 12.56,3.59 Z" fill="#9a5c40" stroke="none" /><path d="M 18.04,2.64 L 17.11,2.19 L 15.33,3.09 L 15.33,3.12 L 16.19,3.56 L 16.25,3.56 L 18.04,2.67 Z" fill="#9a5c40" stroke="none" /><path d="M 12.63,1.72 L 12.63,1.78 L 13.46,2.19 L 13.55,2.19 L 14.38,1.78 L 14.38,1.72 L 13.55,1.30 L 13.46,1.30 Z" fill="#9a5c40" stroke="none" /><path d="M 15.33,12.15 L 15.33,12.18 L 16.16,12.60 L 16.29,12.60 L 17.11,12.18 L 17.08,12.12 L 16.25,11.71 L 16.19,11.71 Z" fill="#925a42" stroke="none" /><path d="M 8.14,11.23 L 8.14,11.26 L 8.97,11.67 L 9.10,11.67 L 9.86,11.29 L 9.86,11.23 L 9.03,10.82 L 8.94,10.82 Z" fill="#925a42" stroke="none" /><path d="M 19.85,10.78 L 19.88,10.85 L 20.64,11.23 L 20.74,11.23 L 21.57,10.82 L 21.57,10.75 L 20.80,10.37 L 20.68,10.37 Z" fill="#925a42" stroke="none" /><path d="M 14.44,8.97 L 14.44,9.03 L 15.27,9.45 L 15.33,9.45 L 16.19,9.00 L 16.19,8.97 L 15.36,8.56 L 15.27,8.56 Z" fill="#925a42" stroke="none" /><path d="M 3.63,8.94 L 3.63,9.00 L 4.45,9.42 L 4.55,9.42 L 5.34,9.00 L 5.34,8.97 L 4.52,8.56 L 4.39,8.56 Z" fill="#925a42" stroke="none" /><path d="M 19.85,8.08 L 19.85,8.11 L 20.68,8.52 L 20.80,8.52 L 21.60,8.11 L 21.69,8.11 L 22.49,8.52 L 22.62,8.52 L 23.44,8.11 L 23.41,8.05 L 22.58,7.63 L 22.52,7.63 L 21.66,8.08 L 20.77,7.63 L 20.71,7.63 Z" fill="#925a42" stroke="none" /><path d="M 15.30,7.63 L 14.44,7.19 L 14.38,7.19 L 11.71,8.52 L 11.71,8.56 L 12.63,9.00 L 15.30,7.67 Z" fill="#925a42" stroke="none" /><path d="M 24.37,6.71 L 24.37,6.74 L 25.26,7.19 L 26.18,6.74 L 26.18,6.71 L 25.29,6.27 Z" fill="#925a42" stroke="none" /><path d="M 10.78,6.27 L 10.78,6.30 L 11.67,6.74 L 12.60,6.30 L 12.60,6.27 L 11.71,5.82 Z" fill="#925a42" stroke="none" /><path d="M 6.30,5.79 L 6.30,5.85 L 7.13,6.27 L 7.22,6.27 L 8.05,5.85 L 8.02,5.79 L 7.19,5.38 L 7.13,5.38 Z" fill="#925a42" stroke="none" /><path d="M 17.15,4.90 L 17.18,4.96 L 18.00,5.38 L 18.07,5.38 L 18.93,4.93 L 18.93,4.90 L 18.10,4.49 L 17.97,4.49 Z" fill="#925a42" stroke="none" /><path d="M 15.30,3.09 L 14.47,2.67 L 14.35,2.67 L 11.74,3.98 L 11.71,4.04 L 12.53,4.45 L 12.66,4.45 L 15.27,3.15 Z" fill="#925a42" stroke="none" /><path d="M 17.15,2.19 L 17.15,2.23 L 17.97,2.64 L 18.10,2.64 L 18.86,2.26 L 18.86,2.19 L 18.04,1.78 L 17.94,1.78 Z" fill="#925a42" stroke="none" /><path d="M 9.96,2.19 L 9.96,2.26 L 10.72,2.64 L 10.85,2.64 L 11.67,2.23 L 11.64,2.16 L 10.88,1.78 L 10.78,1.78 Z" fill="#925a42" stroke="none" /><path d="M 12.66,13.49 L 12.66,13.52 L 13.49,13.93 L 13.61,13.93 L 14.38,13.55 L 14.38,13.49 L 13.55,13.07 L 13.46,13.07 Z" fill="#945c42" stroke="none" /><path d="M 18.89,12.12 L 18.07,11.71 L 18.00,11.71 L 14.44,13.49 L 14.44,13.55 L 15.20,13.93 L 15.33,13.93 L 18.89,12.15 Z" fill="#945c42" stroke="none" /><path d="M 13.49,10.34 L 12.60,9.89 L 10.85,10.78 L 10.75,10.78 L 9.96,10.37 L 9.83,10.37 L 9.00,10.78 L 9.03,10.85 L 9.86,11.26 L 9.03,11.67 L 9.03,11.71 L 9.86,12.12 L 9.99,12.12 L 13.49,10.37 Z" fill="#945c42" stroke="none" /><path d="M 12.60,8.97 L 11.77,8.56 L 11.64,8.56 L 9.92,9.42 L 9.92,9.48 L 10.75,9.89 L 10.85,9.89 L 12.56,9.03 Z" fill="#945c42" stroke="none" /><path d="M 10.78,8.08 L 9.92,7.63 L 9.86,7.63 L 7.19,8.97 L 7.19,9.00 L 8.05,9.45 L 8.11,9.45 L 10.78,8.11 Z" fill="#945c42" stroke="none" /><path d="M 27.93,7.60 L 27.13,7.19 L 27.04,7.19 L 23.48,8.97 L 23.48,9.00 L 24.27,9.42 L 24.37,9.42 L 27.93,7.63 Z" fill="#945c42" stroke="none" /><path d="M 25.26,7.16 L 24.43,6.74 L 24.30,6.74 L 22.58,7.60 L 22.58,7.67 L 23.41,8.08 L 23.51,8.08 L 25.22,7.22 Z" fill="#945c42" stroke="none" /><path d="M 22.55,6.71 L 21.63,6.27 L 19.88,7.16 L 19.79,7.16 L 18.10,6.30 L 18.13,6.23 L 19.82,5.41 L 19.82,5.34 L 18.99,4.93 L 18.89,4.93 L 14.44,7.16 L 14.44,7.22 L 15.27,7.63 L 15.36,7.63 L 17.11,6.74 L 18.00,7.19 L 16.22,8.08 L 16.22,8.11 L 17.02,8.49 L 17.05,8.56 L 15.33,9.42 L 15.33,9.48 L 16.13,9.86 L 16.16,9.89 L 16.10,9.96 L 11.74,12.12 L 11.71,12.18 L 12.53,12.60 L 12.66,12.60 L 17.08,10.37 L 17.15,10.37 L 18.00,10.82 L 18.89,10.37 L 18.96,10.37 L 19.85,10.82 L 21.63,9.92 L 21.60,9.86 L 20.77,9.45 L 22.55,8.56 L 22.55,8.52 L 21.66,8.08 L 18.96,9.42 L 18.96,9.48 L 19.79,9.89 L 19.72,9.96 L 18.96,10.34 L 18.89,10.34 L 18.04,9.89 L 17.15,10.34 L 17.08,10.34 L 16.32,9.96 L 16.25,9.89 L 22.55,6.74 Z" fill="#945c42" stroke="none" /><path d="M 5.34,5.34 L 4.49,4.93 L 1.81,6.27 L 1.81,6.33 L 2.54,6.68 L 2.58,6.74 L 1.75,7.16 L 1.75,7.19 L 2.61,7.63 L 2.67,7.63 L 4.45,6.74 L 4.45,6.71 L 3.66,6.33 L 3.59,6.27 L 5.31,5.41 Z" fill="#945c42" stroke="none" /><path d="M 24.30,4.93 L 23.41,4.49 L 21.69,5.34 L 21.69,5.41 L 22.52,5.82 L 22.58,5.82 L 24.30,4.96 Z" fill="#945c42" stroke="none" /><path d="M 17.11,4.90 L 16.29,4.49 L 16.16,4.49 L 13.52,5.82 L 12.63,5.38 L 12.56,5.38 L 11.71,5.82 L 11.71,5.85 L 12.50,6.23 L 12.53,6.27 L 12.50,6.33 L 11.74,6.71 L 11.64,6.71 L 10.85,6.30 L 10.72,6.30 L 9.89,6.71 L 9.89,6.74 L 10.75,7.19 L 10.82,7.19 L 11.67,6.74 L 12.56,7.19 L 12.63,7.19 L 13.49,6.74 L 13.49,6.71 L 12.69,6.33 L 12.66,6.30 L 12.69,6.23 L 13.46,5.85 L 13.55,5.85 L 14.35,6.27 L 14.47,6.27 L 17.08,4.96 Z" fill="#945c42" stroke="none" /><path d="M 22.49,4.01 L 21.66,3.59 L 21.57,3.59 L 19.85,4.45 L 19.85,4.49 L 20.77,4.93 L 22.49,4.07 Z" fill="#945c42" stroke="none" /><path d="M 13.52,4.01 L 13.52,4.04 L 14.35,4.45 L 14.47,4.45 L 15.30,4.04 L 15.27,3.98 L 14.44,3.56 L 14.38,3.56 Z" fill="#945c42" stroke="none" /><path d="M 18.07,3.53 L 18.07,3.59 L 18.89,4.01 L 18.99,4.01 L 19.82,3.59 L 19.82,3.53 L 18.99,3.12 L 18.89,3.12 Z" fill="#945c42" stroke="none" /><path d="M 17.11,2.19 L 16.25,1.75 L 16.19,1.75 L 14.41,2.64 L 14.41,2.67 L 15.33,3.12 L 17.11,2.23 Z" fill="#945c42" stroke="none" /><path d="M 15.24,0.38 L 14.47,0.00 L 14.35,0.00 L 10.85,1.75 L 10.88,1.81 L 11.61,2.16 L 11.64,2.19 L 11.58,2.26 L 8.08,4.01 L 8.08,4.04 L 8.87,4.42 L 8.91,4.49 L 7.19,5.34 L 7.19,5.41 L 7.98,5.79 L 8.02,5.82 L 7.95,5.88 L 7.16,6.27 L 6.30,5.82 L 6.23,5.82 L 5.41,6.23 L 5.38,6.30 L 6.17,6.68 L 6.20,6.74 L 3.59,8.05 L 3.56,8.11 L 4.39,8.52 L 4.52,8.52 L 8.97,6.30 L 8.97,6.27 L 8.17,5.88 L 8.11,5.82 L 8.14,5.79 L 9.86,4.93 L 10.75,5.38 L 10.82,5.38 L 12.60,4.49 L 12.60,4.45 L 11.71,4.01 L 10.82,4.45 L 10.75,4.45 L 9.99,4.07 L 9.92,4.01 L 13.49,2.23 L 13.46,2.16 L 12.63,1.75 L 15.24,0.45 Z" fill="#945c42" stroke="none" /><path d="M 10.85,12.56 L 10.88,12.63 L 12.60,13.49 L 12.69,13.49 L 13.49,13.07 L 14.35,13.49 L 14.38,13.52 L 14.35,13.55 L 13.55,13.93 L 13.55,13.96 L 14.38,14.38 L 14.44,14.38 L 15.27,13.96 L 15.27,13.93 L 14.47,13.55 L 14.44,13.52 L 14.47,13.49 L 16.22,12.63 L 16.22,12.60 L 15.33,12.15 L 13.55,13.04 L 13.46,13.04 L 11.71,12.15 Z" fill="#965e44" stroke="none" /><path d="M 18.07,11.67 L 18.07,11.74 L 18.83,12.12 L 18.96,12.12 L 19.79,11.71 L 19.79,11.67 L 18.96,11.26 L 18.89,11.26 Z" fill="#965e44" stroke="none" /><path d="M 18.00,10.78 L 17.18,10.37 L 17.05,10.37 L 15.33,11.23 L 15.33,11.26 L 16.19,11.71 L 16.25,11.71 L 17.97,10.85 Z" fill="#965e44" stroke="none" /><path d="M 18.04,9.89 L 18.04,9.92 L 18.86,10.34 L 18.99,10.34 L 19.82,9.92 L 19.79,9.86 L 18.96,9.45 L 18.89,9.45 Z" fill="#965e44" stroke="none" /><path d="M 24.30,9.42 L 23.51,9.00 L 23.41,9.00 L 20.74,10.34 L 20.74,10.37 L 21.57,10.78 L 21.63,10.78 L 24.30,9.45 Z" fill="#965e44" stroke="none" /><path d="M 15.27,9.42 L 14.44,9.00 L 14.38,9.00 L 12.66,9.86 L 12.63,9.92 L 13.46,10.34 L 13.55,10.34 L 15.27,9.48 Z" fill="#965e44" stroke="none" /><path d="M 11.71,10.34 L 9.96,9.48 L 9.92,9.45 L 9.96,9.42 L 10.75,9.03 L 10.78,8.97 L 9.96,8.56 L 9.83,8.56 L 9.00,8.97 L 9.03,9.03 L 9.83,9.42 L 9.86,9.45 L 9.83,9.48 L 7.25,10.75 L 7.25,10.82 L 8.08,11.23 L 8.17,11.23 L 9.86,10.37 L 9.92,10.37 L 10.82,10.82 L 11.71,10.37 Z" fill="#965e44" stroke="none" /><path d="M 15.33,8.52 L 15.36,8.59 L 16.19,9.00 L 17.11,8.56 L 17.11,8.52 L 16.29,8.11 L 16.16,8.11 Z" fill="#965e44" stroke="none" /><path d="M 18.93,8.52 L 18.93,8.56 L 19.82,9.00 L 20.74,8.56 L 20.74,8.52 L 19.85,8.08 Z" fill="#965e44" stroke="none" /><path d="M 8.05,7.60 L 7.22,7.19 L 7.13,7.19 L 6.30,7.60 L 6.30,7.67 L 7.13,8.08 L 7.06,8.14 L 4.55,9.38 L 4.52,9.45 L 6.30,10.34 L 7.16,9.92 L 7.13,9.86 L 6.30,9.45 L 8.08,8.56 L 8.08,8.52 L 7.28,8.14 L 7.22,8.08 L 8.05,7.67 Z" fill="#965e44" stroke="none" /><path d="M 16.25,7.16 L 16.25,7.22 L 17.08,7.63 L 17.18,7.63 L 18.00,7.22 L 18.00,7.16 L 17.18,6.74 L 17.08,6.74 Z" fill="#965e44" stroke="none" /><path d="M 12.56,7.16 L 11.74,6.74 L 11.64,6.74 L 9.92,7.60 L 9.92,7.67 L 10.75,8.08 L 10.85,8.08 L 12.56,7.22 Z" fill="#965e44" stroke="none" /><path d="M 2.64,6.71 L 1.81,6.30 L 1.75,6.30 L 0.03,7.16 L 0.03,7.19 L 1.72,8.05 L 1.84,8.05 L 2.61,7.67 L 2.61,7.60 L 1.78,7.19 L 1.84,7.13 L 2.64,6.74 Z" fill="#965e44" stroke="none" /><path d="M 4.45,6.71 L 4.45,6.74 L 5.34,7.19 L 6.27,6.74 L 6.27,6.71 L 5.38,6.27 Z" fill="#965e44" stroke="none" /><path d="M 12.60,6.27 L 12.60,6.30 L 13.49,6.74 L 14.41,6.30 L 14.41,6.27 L 13.52,5.82 Z" fill="#965e44" stroke="none" /><path d="M 22.55,6.71 L 22.55,6.74 L 23.48,7.19 L 25.22,6.30 L 25.32,6.30 L 27.90,7.60 L 27.99,7.60 L 28.79,7.19 L 28.79,7.16 L 25.29,5.41 L 25.16,5.41 Z" fill="#965e44" stroke="none" /><path d="M 10.75,5.34 L 9.92,4.93 L 9.83,4.93 L 8.11,5.79 L 8.08,5.85 L 8.91,6.27 L 9.03,6.27 L 10.75,5.41 Z" fill="#965e44" stroke="none" /><path d="M 13.49,4.90 L 12.66,4.49 L 12.53,4.49 L 10.82,5.34 L 10.82,5.41 L 11.64,5.82 L 11.74,5.82 L 13.46,4.96 Z" fill="#965e44" stroke="none" /><path d="M 23.41,4.49 L 22.55,4.04 L 22.49,4.04 L 20.80,4.90 L 20.71,4.90 L 19.91,4.49 L 19.79,4.49 L 18.96,4.90 L 18.99,4.96 L 20.71,5.82 L 20.64,5.88 L 18.96,6.71 L 18.96,6.74 L 19.85,7.19 L 22.52,5.85 L 22.52,5.79 L 21.69,5.38 L 23.41,4.52 Z" fill="#965e44" stroke="none" /><path d="M 8.97,4.45 L 7.25,3.59 L 7.16,3.59 L 4.55,4.90 L 4.52,4.96 L 5.38,5.38 L 7.13,4.49 L 7.19,4.49 L 8.08,4.93 L 8.97,4.49 Z" fill="#965e44" stroke="none" /><path d="M 14.44,3.53 L 14.44,3.59 L 15.27,4.01 L 15.36,4.01 L 16.19,3.59 L 16.19,3.53 L 15.36,3.12 L 15.27,3.12 Z" fill="#965e44" stroke="none" /><path d="M 20.71,3.12 L 18.93,2.23 L 18.86,2.23 L 17.15,3.09 L 17.18,3.15 L 18.00,3.56 L 16.22,4.45 L 16.22,4.49 L 17.15,4.93 L 18.93,4.04 L 18.89,3.98 L 18.10,3.59 L 18.07,3.56 L 18.10,3.53 L 18.96,3.12 L 19.82,3.56 L 19.88,3.56 L 20.71,3.15 Z" fill="#965e44" stroke="none" /><path d="M 13.52,1.27 L 13.55,1.34 L 14.38,1.75 L 14.44,1.75 L 15.33,1.30 L 17.08,2.19 L 17.18,2.19 L 17.97,1.78 L 17.97,1.75 L 15.30,0.41 L 15.24,0.41 Z" fill="#965e44" stroke="none" /><path d="M 13.52,12.15 L 13.52,12.18 L 14.35,12.60 L 14.47,12.60 L 15.30,12.18 L 15.27,12.12 L 14.44,11.71 L 14.38,11.71 Z" fill="#995f44" stroke="none" /><path d="M 19.82,10.78 L 18.99,10.37 L 18.86,10.37 L 16.25,11.67 L 16.25,11.74 L 17.08,12.15 L 17.18,12.15 L 19.79,10.85 Z" fill="#995f44" stroke="none" /><path d="M 15.30,10.34 L 14.44,9.89 L 14.38,9.89 L 10.82,11.67 L 10.82,11.74 L 11.64,12.15 L 11.74,12.15 L 15.30,10.37 Z" fill="#995f44" stroke="none" /><path d="M 6.33,10.34 L 7.19,10.78 L 7.25,10.78 L 9.86,9.48 L 9.86,9.42 L 9.03,9.00 L 8.94,9.00 L 8.08,9.45 L 7.22,9.00 L 7.13,9.00 L 6.30,9.42 L 6.30,9.48 L 7.13,9.89 L 7.06,9.96 L 6.33,10.31 Z" fill="#995f44" stroke="none" /><path d="M 19.82,8.97 L 18.99,8.56 L 18.86,8.56 L 17.15,9.42 L 17.15,9.48 L 17.97,9.89 L 18.07,9.89 L 19.79,9.03 Z" fill="#995f44" stroke="none" /><path d="M 26.15,7.60 L 25.32,7.19 L 25.22,7.19 L 21.66,8.97 L 21.66,9.00 L 22.52,9.45 L 22.58,9.45 L 26.15,7.67 Z" fill="#995f44" stroke="none" /><path d="M 17.11,7.63 L 16.25,7.19 L 16.19,7.19 L 11.74,9.42 L 11.74,9.48 L 12.56,9.89 L 12.66,9.89 L 17.11,7.67 Z" fill="#995f44" stroke="none" /><path d="M 13.49,7.63 L 12.63,7.19 L 12.56,7.19 L 9.89,8.52 L 9.89,8.56 L 10.82,9.00 L 13.49,7.67 Z" fill="#995f44" stroke="none" /><path d="M 4.42,7.60 L 3.59,7.19 L 3.50,7.19 L 1.78,8.05 L 1.78,8.08 L 2.70,8.52 L 4.42,7.67 Z" fill="#995f44" stroke="none" /><path d="M 20.74,5.82 L 19.88,5.38 L 19.82,5.38 L 18.04,6.27 L 18.04,6.30 L 18.96,6.74 L 20.74,5.85 Z" fill="#995f44" stroke="none" /><path d="M 11.67,5.82 L 10.82,5.38 L 10.75,5.38 L 8.97,6.27 L 8.97,6.30 L 9.77,6.68 L 9.83,6.74 L 9.80,6.78 L 7.19,8.08 L 6.30,7.63 L 6.23,7.63 L 4.45,8.52 L 4.45,8.56 L 5.38,9.00 L 7.13,8.11 L 7.22,8.11 L 8.02,8.52 L 8.14,8.52 L 10.75,7.22 L 10.75,7.16 L 9.92,6.74 L 9.99,6.68 L 11.67,5.85 Z" fill="#995f44" stroke="none" /><path d="M 25.22,5.38 L 24.30,4.93 L 21.69,6.23 L 21.66,6.30 L 22.49,6.71 L 22.62,6.71 L 25.22,5.41 Z" fill="#995f44" stroke="none" /><path d="M 16.25,5.34 L 16.25,5.41 L 17.08,5.82 L 17.18,5.82 L 18.00,5.41 L 18.00,5.34 L 17.18,4.93 L 17.08,4.93 Z" fill="#995f44" stroke="none" /><path d="M 7.13,5.34 L 6.30,4.93 L 6.20,4.93 L 4.49,5.79 L 4.49,5.85 L 5.31,6.27 L 5.41,6.27 L 7.13,5.41 Z" fill="#995f44" stroke="none" /><path d="M 20.74,4.01 L 19.88,3.56 L 19.82,3.56 L 18.04,4.45 L 18.04,4.49 L 18.96,4.93 L 20.74,4.04 Z" fill="#995f44" stroke="none" /><path d="M 18.00,3.53 L 17.18,3.12 L 17.08,3.12 L 12.63,5.34 L 12.63,5.41 L 13.46,5.82 L 13.55,5.82 L 18.00,3.59 Z" fill="#995f44" stroke="none" /><path d="M 10.78,2.64 L 9.96,2.23 L 9.89,2.23 L 8.11,3.12 L 8.11,3.15 L 8.94,3.56 L 9.00,3.56 L 10.78,2.67 Z" fill="#995f44" stroke="none" /><path d="M 16.19,1.72 L 15.36,1.30 L 15.27,1.30 L 11.71,3.09 L 11.71,3.12 L 12.56,3.56 L 12.63,3.56 L 16.19,1.78 Z" fill="#995f44" stroke="none" /></svg>