<svg height="32" width="32" viewBox="0 0 32 32"><defs /><path d="M 23.65,13.55 L 23.57,13.55 L 22.63,14.02 L 22.59,13.98 L 22.59,12.82 L 22.52,12.82 L 20.56,13.80 L 20.56,15.07 L 22.59,14.06 L 23.57,14.57 L 23.65,14.57 Z" fill="#271607" stroke="none" /><path d="M 28.77,12.24 L 28.69,12.24 L 27.75,12.71 L 27.75,13.98 L 27.82,13.98 L 28.77,13.51 Z" fill="#0c0b09" stroke="none" /><path d="M 28.77,23.57 L 28.69,23.57 L 27.75,24.05 L 27.75,25.32 L 28.77,24.81 Z" fill="#0d0b09" stroke="none" /><path d="M 20.56,13.84 L 20.49,13.84 L 19.51,14.35 L 19.51,15.58 L 19.58,15.58 L 20.56,15.07 Z" fill="#3a2009" stroke="none" /><path d="M 23.65,12.28 L 22.59,12.79 L 22.59,14.06 L 23.65,13.55 Z" fill="#3a2009" stroke="none" /><path d="M 20.56,20.12 L 20.49,20.12 L 19.51,20.63 L 19.51,21.90 L 20.56,21.39 Z" fill="#3a250a" stroke="none" /><path d="M 28.77,16.02 L 28.69,16.02 L 27.75,16.49 L 27.75,20.27 L 27.82,20.27 L 28.77,19.80 Z" fill="#100e0b" stroke="none" /><path d="M 28.77,8.46 L 27.75,8.97 L 27.75,10.21 L 27.82,10.21 L 28.77,9.73 Z" fill="#100e0b" stroke="none" /><path d="M 20.56,16.35 L 20.49,16.35 L 19.51,16.85 L 19.51,18.12 L 20.56,17.62 Z" fill="#190e0b" stroke="none" /><path d="M 17.47,29.20 L 14.38,30.73 L 14.38,32.00 L 17.47,30.47 Z" fill="#110f0b" stroke="none" /><path d="M 20.56,27.68 L 20.49,27.68 L 19.51,28.19 L 19.51,29.42 L 19.58,29.42 L 20.56,28.91 Z" fill="#110f0b" stroke="none" /><path d="M 24.66,25.61 L 21.58,27.13 L 21.58,28.40 L 24.66,26.88 Z" fill="#110f0b" stroke="none" /><path d="M 28.77,19.80 L 28.69,19.80 L 27.75,20.27 L 27.75,21.54 L 28.77,21.03 Z" fill="#110f0b" stroke="none" /><path d="M 28.77,14.75 L 27.75,15.26 L 27.75,16.49 L 27.82,16.49 L 28.77,16.02 Z" fill="#110f0b" stroke="none" /><path d="M 28.77,9.73 L 28.69,9.73 L 27.75,10.21 L 27.75,11.48 L 28.77,10.97 Z" fill="#110f0b" stroke="none" /><path d="M 20.56,18.85 L 19.51,19.36 L 19.51,20.63 L 20.56,20.12 Z" fill="#2f1c0b" stroke="none" /><path d="M 19.51,25.68 L 19.43,25.68 L 18.49,26.15 L 18.49,27.42 L 18.56,27.42 L 19.51,26.95 Z" fill="#38290b" stroke="none" /><path d="M 25.68,22.59 L 25.61,22.59 L 20.59,25.10 L 20.56,25.14 L 20.56,26.41 L 25.68,23.86 Z" fill="#38290b" stroke="none" /><path d="M 18.49,22.41 L 15.40,23.94 L 15.40,25.21 L 18.49,23.68 Z" fill="#38290b" stroke="none" /><path d="M 24.66,19.32 L 21.58,20.85 L 21.58,22.08 L 21.50,22.16 L 19.51,23.14 L 19.51,24.41 L 23.61,22.37 L 23.65,22.34 L 23.65,21.10 L 24.66,20.59 Z" fill="#38290b" stroke="none" /><path d="M 19.51,13.11 L 19.43,13.11 L 16.45,14.60 L 16.45,15.87 L 19.47,14.38 L 19.51,14.35 Z" fill="#38290b" stroke="none" /><path d="M 26.70,24.59 L 25.68,25.10 L 25.68,26.33 L 25.75,26.33 L 26.70,25.86 Z" fill="#0f0e0c" stroke="none" /><path d="M 19.51,28.19 L 17.47,29.20 L 17.47,30.44 L 17.54,30.44 L 19.51,29.46 Z" fill="#110f0c" stroke="none" /><path d="M 21.58,27.17 L 21.50,27.17 L 20.56,27.64 L 20.56,28.91 L 21.58,28.40 Z" fill="#110f0c" stroke="none" /><path d="M 25.68,25.10 L 24.66,25.61 L 24.66,26.84 L 24.74,26.84 L 25.68,26.37 Z" fill="#110f0c" stroke="none" /><path d="M 28.77,21.03 L 27.75,21.54 L 27.75,24.05 L 26.70,24.59 L 26.70,25.83 L 26.77,25.83 L 27.75,25.32 L 27.75,24.08 L 28.77,23.57 Z" fill="#110f0c" stroke="none" /><path d="M 28.77,13.51 L 28.69,13.51 L 27.75,13.98 L 27.75,15.26 L 28.77,14.75 Z" fill="#110f0c" stroke="none" /><path d="M 28.77,10.97 L 27.75,11.48 L 27.75,12.71 L 27.82,12.71 L 28.77,12.24 Z" fill="#110f0c" stroke="none" /><path d="M 21.58,12.06 L 20.56,12.57 L 20.56,13.80 L 20.63,13.80 L 21.58,13.33 Z" fill="#35240c" stroke="none" /><path d="M 17.47,25.43 L 16.45,25.93 L 16.45,27.17 L 16.53,27.17 L 17.47,26.70 Z" fill="#422b0c" stroke="none" /><path d="M 25.68,21.32 L 20.56,23.86 L 20.56,25.14 L 25.68,22.59 Z" fill="#422b0c" stroke="none" /><path d="M 19.51,20.63 L 18.49,21.14 L 18.49,22.41 L 19.51,21.90 Z" fill="#422b0c" stroke="none" /><path d="M 25.68,18.81 L 24.66,19.32 L 24.66,20.56 L 24.74,20.56 L 25.68,20.09 Z" fill="#422b0c" stroke="none" /><path d="M 19.51,14.35 L 16.49,15.84 L 16.45,15.87 L 16.45,17.11 L 16.53,17.11 L 19.51,15.62 Z" fill="#422b0c" stroke="none" /><path d="M 26.62,9.52 L 25.68,9.99 L 25.68,11.26 L 26.66,10.79 L 26.70,10.82 L 26.70,11.99 L 26.77,11.99 L 27.75,11.48 L 27.75,10.24 L 27.68,10.24 L 26.73,10.72 L 26.70,10.68 L 26.70,9.52 Z" fill="#422b0c" stroke="none" /><path d="M 20.56,15.07 L 19.51,15.58 L 19.51,16.85 L 20.56,16.35 Z" fill="#351f0d" stroke="none" /><path d="M 18.49,27.46 L 18.42,27.46 L 16.45,28.44 L 16.45,29.71 L 18.49,28.69 Z" fill="#32260d" stroke="none" /><path d="M 21.58,25.90 L 20.56,26.41 L 20.56,27.64 L 20.63,27.64 L 21.58,27.17 Z" fill="#32260d" stroke="none" /><path d="M 24.66,24.37 L 24.59,24.37 L 23.65,24.84 L 23.65,26.12 L 24.66,25.61 Z" fill="#32260d" stroke="none" /><path d="M 27.75,17.80 L 27.68,17.80 L 26.70,18.31 L 26.70,19.54 L 26.77,19.54 L 27.75,19.03 Z" fill="#32260d" stroke="none" /><path d="M 18.49,16.13 L 18.42,16.13 L 15.44,17.62 L 15.40,17.65 L 15.40,18.89 L 15.47,18.89 L 18.45,17.40 L 18.49,17.36 Z" fill="#32260d" stroke="none" /><path d="M 24.66,13.04 L 24.59,13.04 L 23.65,13.51 L 23.65,14.78 L 24.66,14.27 Z" fill="#32260d" stroke="none" /><path d="M 20.56,17.62 L 20.49,17.62 L 19.51,18.12 L 19.51,19.36 L 19.58,19.36 L 20.56,18.85 Z" fill="#291a0e" stroke="none" /><path d="M 22.59,11.55 L 21.58,12.06 L 21.58,13.29 L 21.65,13.29 L 22.59,12.82 Z" fill="#37270e" stroke="none" /><path d="M 16.45,20.92 L 16.38,20.92 L 15.40,21.43 L 15.40,22.67 L 15.47,22.67 L 16.45,22.16 Z" fill="#3a270e" stroke="none" /><path d="M 25.68,12.53 L 25.61,12.53 L 24.66,13.00 L 24.66,14.27 L 25.68,13.77 Z" fill="#3a270e" stroke="none" /><path d="M 23.65,19.61 L 23.57,19.61 L 22.63,20.09 L 22.59,20.12 L 22.59,20.34 L 22.67,20.34 L 23.61,19.87 L 23.65,19.83 Z" fill="#41280e" stroke="none" /><path d="M 16.45,25.93 L 15.40,26.44 L 15.40,27.71 L 16.45,27.21 Z" fill="#402a0e" stroke="none" /><path d="M 20.56,23.90 L 20.49,23.90 L 17.51,25.39 L 17.47,25.43 L 17.47,26.66 L 17.54,26.66 L 20.52,25.17 L 20.56,25.14 Z" fill="#402a0e" stroke="none" /><path d="M 26.70,20.81 L 25.68,21.32 L 25.68,22.56 L 25.75,22.56 L 26.70,22.08 Z" fill="#402a0e" stroke="none" /><path d="M 16.45,15.87 L 15.40,16.38 L 15.40,17.65 L 16.45,17.14 Z" fill="#402a0e" stroke="none" /><path d="M 26.70,10.75 L 23.68,12.24 L 23.65,12.28 L 23.65,13.51 L 23.72,13.51 L 26.70,12.02 Z" fill="#402a0e" stroke="none" /><path d="M 13.37,18.92 L 13.37,20.20 L 14.31,20.67 L 14.38,20.67 L 14.38,19.40 L 13.44,18.92 Z" fill="#14120f" stroke="none" /><path d="M 16.45,18.38 L 15.40,18.89 L 15.40,20.16 L 15.47,20.16 L 16.45,19.65 Z" fill="#14120f" stroke="none" /><path d="M 27.75,12.75 L 27.68,12.75 L 25.68,13.77 L 25.68,15.04 L 27.75,14.02 Z" fill="#14120f" stroke="none" /><path d="M 28.77,7.19 L 27.75,7.70 L 27.75,8.97 L 28.77,8.46 Z" fill="#14120f" stroke="none" /><path d="M 13.37,30.26 L 13.37,31.49 L 14.38,32.00 L 14.38,30.73 L 13.44,30.26 Z" fill="#15130f" stroke="none" /><path d="M 19.51,16.85 L 16.49,18.34 L 16.45,18.38 L 16.45,19.65 L 19.47,18.16 L 19.51,18.12 Z" fill="#15130f" stroke="none" /><path d="M 25.68,13.77 L 23.65,14.78 L 23.65,16.05 L 25.68,15.04 Z" fill="#15130f" stroke="none" /><path d="M 27.75,15.26 L 26.70,15.76 L 26.70,17.04 L 27.75,16.53 Z" fill="#33240f" stroke="none" /><path d="M 27.75,20.30 L 27.68,20.30 L 26.70,20.81 L 26.70,22.05 L 26.77,22.05 L 27.75,21.54 Z" fill="#38260f" stroke="none" /><path d="M 19.51,19.40 L 19.43,19.40 L 16.45,20.89 L 16.45,22.16 L 19.47,20.67 L 19.51,20.63 Z" fill="#38260f" stroke="none" /><path d="M 26.70,15.80 L 26.62,15.80 L 23.65,17.29 L 23.65,18.56 L 26.66,17.07 L 26.70,17.04 Z" fill="#38260f" stroke="none" /><path d="M 17.47,24.19 L 17.40,24.19 L 15.40,25.21 L 15.40,26.44 L 15.47,26.44 L 17.47,25.43 Z" fill="#412d0f" stroke="none" /><path d="M 26.70,22.08 L 26.62,22.08 L 25.68,22.56 L 25.68,23.83 L 25.75,23.83 L 26.70,23.36 Z" fill="#412d0f" stroke="none" /><path d="M 21.58,20.89 L 21.50,20.89 L 19.51,21.90 L 19.51,23.14 L 19.58,23.14 L 21.58,22.12 Z" fill="#412d0f" stroke="none" /><path d="M 26.70,19.58 L 26.62,19.58 L 23.65,21.07 L 23.65,22.34 L 26.66,20.85 L 26.70,20.81 Z" fill="#412d0f" stroke="none" /><path d="M 25.68,17.54 L 23.65,18.56 L 23.65,19.83 L 25.68,18.81 Z" fill="#412d0f" stroke="none" /><path d="M 20.56,12.57 L 19.51,13.08 L 19.51,14.35 L 20.56,13.84 Z" fill="#412d0f" stroke="none" /><path d="M 25.68,10.02 L 25.61,10.02 L 24.66,10.50 L 24.66,11.77 L 25.68,11.26 Z" fill="#412d0f" stroke="none" /><path d="M 24.66,15.55 L 23.65,16.05 L 23.65,17.29 L 23.72,17.29 L 24.66,16.82 Z" fill="#2e2110" stroke="none" /><path d="M 20.56,21.36 L 20.63,21.36 L 22.59,20.38 L 22.59,20.12 L 21.58,20.63 L 20.56,20.12 Z" fill="#442b10" stroke="none" /><path d="M 25.68,23.86 L 25.61,23.86 L 24.66,24.34 L 24.66,25.61 L 25.68,25.10 Z" fill="#392811" stroke="none" /><path d="M 27.75,19.03 L 26.70,19.54 L 26.70,20.81 L 27.75,20.30 Z" fill="#392811" stroke="none" /><path d="M 27.75,11.48 L 25.68,12.49 L 25.68,13.77 L 27.75,12.75 Z" fill="#392811" stroke="none" /><path d="M 17.47,19.14 L 16.45,19.65 L 16.45,20.89 L 16.53,20.89 L 17.47,20.41 Z" fill="#2d2212" stroke="none" /><path d="M 16.45,28.48 L 16.38,28.48 L 15.40,28.99 L 15.40,30.22 L 15.47,30.22 L 16.45,29.71 Z" fill="#3b2b12" stroke="none" /><path d="M 20.56,26.41 L 18.49,27.42 L 18.49,28.69 L 20.56,27.68 Z" fill="#3b2b12" stroke="none" /><path d="M 23.65,24.88 L 23.57,24.88 L 21.58,25.90 L 21.58,27.13 L 21.65,27.13 L 23.65,26.12 Z" fill="#3b2b12" stroke="none" /><path d="M 27.75,21.54 L 26.70,22.05 L 26.70,23.32 L 25.68,23.83 L 25.68,25.10 L 26.70,24.59 L 26.70,23.36 L 27.75,22.81 Z" fill="#3b2b12" stroke="none" /><path d="M 27.75,16.53 L 27.68,16.53 L 26.70,17.04 L 26.70,18.31 L 27.75,17.80 Z" fill="#3b2b12" stroke="none" /><path d="M 19.51,15.62 L 19.43,15.62 L 18.49,16.09 L 18.49,17.36 L 19.51,16.85 Z" fill="#3b2b12" stroke="none" /><path d="M 18.49,26.19 L 18.42,26.19 L 15.44,27.68 L 15.40,27.71 L 15.40,28.99 L 18.49,27.46 Z" fill="#443012" stroke="none" /><path d="M 20.56,25.14 L 19.51,25.64 L 19.51,26.91 L 19.58,26.91 L 20.56,26.41 Z" fill="#443012" stroke="none" /><path d="M 18.49,21.14 L 15.40,22.67 L 15.40,23.94 L 15.47,23.94 L 18.42,22.45 L 18.49,22.48 L 18.49,23.65 L 17.47,24.15 L 17.47,25.43 L 19.51,24.41 L 19.51,21.90 L 18.52,22.37 L 18.49,22.34 Z" fill="#443012" stroke="none" /><path d="M 26.70,17.04 L 25.68,17.54 L 25.68,20.05 L 25.75,20.05 L 26.70,19.58 Z" fill="#443012" stroke="none" /><path d="M 16.45,14.64 L 16.38,14.64 L 15.40,15.15 L 15.40,16.38 L 15.47,16.38 L 16.45,15.87 Z" fill="#443012" stroke="none" /><path d="M 24.66,10.53 L 24.59,10.53 L 22.59,11.55 L 22.59,12.79 L 22.67,12.79 L 24.66,11.77 Z" fill="#443012" stroke="none" /><path d="M 27.75,8.97 L 26.70,9.48 L 26.70,10.75 L 27.75,10.24 Z" fill="#443012" stroke="none" /><path d="M 11.30,29.20 L 11.30,30.47 L 12.24,30.95 L 12.31,30.95 L 12.31,29.71 Z" fill="#191613" stroke="none" /><path d="M 13.37,22.70 L 13.37,26.48 L 14.31,26.95 L 14.38,26.95 L 14.38,25.75 L 14.46,25.68 L 15.40,25.21 L 15.40,23.97 L 15.33,23.97 L 14.42,24.44 L 14.38,24.41 L 14.38,23.17 L 13.44,22.70 Z" fill="#1a1713" stroke="none" /><path d="M 15.40,18.92 L 15.33,18.92 L 14.38,19.40 L 14.38,20.67 L 14.46,20.67 L 15.40,20.20 Z" fill="#1a1713" stroke="none" /><path d="M 13.37,15.15 L 13.37,16.42 L 14.31,16.89 L 14.38,16.89 L 14.38,15.65 Z" fill="#1a1713" stroke="none" /><path d="M 18.49,12.35 L 18.42,12.35 L 15.44,13.84 L 15.40,13.88 L 15.40,15.15 L 18.49,13.62 Z" fill="#1a1713" stroke="none" /><path d="M 22.59,10.28 L 21.58,10.79 L 21.58,12.06 L 22.59,11.55 Z" fill="#1a1713" stroke="none" /><path d="M 12.31,29.71 L 12.31,30.98 L 13.37,31.49 L 13.37,30.22 Z" fill="#1b1813" stroke="none" /><path d="M 6.17,26.66 L 6.17,27.90 L 6.21,27.93 L 11.22,30.44 L 11.30,30.44 L 11.30,29.20 L 11.26,29.17 L 6.25,26.66 Z" fill="#1b1813" stroke="none" /><path d="M 13.37,26.48 L 13.37,27.71 L 13.40,27.75 L 14.35,28.22 L 14.42,28.22 L 15.40,27.71 L 15.40,26.48 L 15.33,26.48 L 14.42,26.95 L 14.35,26.95 L 13.44,26.48 Z" fill="#1b1813" stroke="none" /><path d="M 3.09,25.10 L 3.09,26.37 L 5.05,27.35 L 5.12,27.35 L 5.12,26.12 Z" fill="#1b1813" stroke="none" /><path d="M 0.00,23.57 L 0.00,24.81 L 2.00,25.83 L 2.07,25.83 L 2.07,24.59 L 0.07,23.57 Z" fill="#1b1813" stroke="none" /><path d="M 13.37,21.43 L 13.37,22.70 L 14.31,23.17 L 14.46,23.17 L 15.40,22.70 L 15.40,21.43 L 14.38,21.94 Z" fill="#1b1813" stroke="none" /><path d="M 13.37,16.42 L 13.37,17.65 L 13.40,17.69 L 14.35,18.16 L 14.42,18.16 L 15.40,17.65 L 15.40,16.42 L 15.33,16.42 L 14.42,16.89 L 14.35,16.89 L 13.44,16.42 Z" fill="#1b1813" stroke="none" /><path d="M 21.58,10.79 L 20.56,11.30 L 20.56,12.57 L 21.58,12.06 Z" fill="#1b1813" stroke="none" /><path d="M 5.12,26.12 L 5.12,27.39 L 6.17,27.90 L 6.17,26.62 Z" fill="#1c1813" stroke="none" /><path d="M 2.07,24.59 L 2.07,25.86 L 3.01,26.33 L 3.09,26.33 L 3.09,25.10 Z" fill="#1c1813" stroke="none" /><path d="M 16.45,19.65 L 15.40,20.16 L 15.40,21.43 L 16.45,20.92 Z" fill="#2f2413" stroke="none" /><path d="M 19.51,18.12 L 17.47,19.14 L 17.47,20.38 L 17.54,20.38 L 19.51,19.40 Z" fill="#2f2413" stroke="none" /><path d="M 27.75,14.02 L 27.68,14.02 L 24.70,15.51 L 24.66,15.55 L 24.66,16.78 L 24.74,16.78 L 27.71,15.29 L 27.75,15.26 Z" fill="#2f2413" stroke="none" /><path d="M 27.75,22.81 L 26.70,23.32 L 26.70,24.59 L 27.75,24.08 Z" fill="#342713" stroke="none" /><path d="M 6.17,24.12 L 6.17,25.39 L 6.21,25.43 L 11.22,27.93 L 11.30,27.93 L 11.30,26.66 Z" fill="#5c4313" stroke="none" /><path d="M 4.10,23.10 L 4.10,24.37 L 5.05,24.84 L 5.12,24.84 L 5.12,23.57 L 4.18,23.10 Z" fill="#5c4313" stroke="none" /><path d="M 5.12,21.10 L 5.12,22.34 L 5.16,22.37 L 9.23,24.41 L 9.26,24.41 L 9.26,23.21 L 9.30,23.17 L 10.21,23.65 L 10.28,23.65 L 10.28,22.41 L 10.24,22.37 L 7.26,20.89 L 7.19,20.89 L 7.19,22.05 L 7.16,22.08 L 5.19,21.10 Z" fill="#5c4313" stroke="none" /><path d="M 5.12,18.56 L 5.12,19.83 L 6.10,20.34 L 6.17,20.34 L 6.17,19.07 Z" fill="#5c4313" stroke="none" /><path d="M 1.02,17.80 L 1.02,19.03 L 1.05,19.07 L 4.03,20.56 L 4.10,20.56 L 4.10,19.32 L 4.07,19.29 L 1.09,17.80 Z" fill="#5c4313" stroke="none" /><path d="M 1.02,8.97 L 1.02,10.24 L 5.12,12.28 L 5.12,11.01 Z" fill="#5c4313" stroke="none" /><path d="M 13.37,27.71 L 13.37,30.26 L 14.31,30.73 L 14.46,30.73 L 15.40,30.26 L 15.40,27.71 L 14.38,28.22 Z" fill="#1c1814" stroke="none" /><path d="M 15.40,25.21 L 14.38,25.72 L 14.38,26.95 L 14.46,26.95 L 15.40,26.48 Z" fill="#1c1814" stroke="none" /><path d="M 15.40,22.70 L 15.33,22.70 L 14.38,23.17 L 14.38,24.44 L 14.46,24.44 L 15.40,23.97 Z" fill="#1c1814" stroke="none" /><path d="M 13.37,20.20 L 13.37,21.43 L 13.40,21.47 L 14.35,21.94 L 14.42,21.94 L 15.40,21.43 L 15.40,20.20 L 15.33,20.20 L 14.42,20.67 L 14.35,20.67 L 13.44,20.20 Z" fill="#1c1814" stroke="none" /><path d="M 13.37,17.65 L 13.37,18.92 L 14.31,19.40 L 14.46,19.40 L 15.40,18.92 L 15.40,17.65 L 14.38,18.16 Z" fill="#1c1814" stroke="none" /><path d="M 15.40,13.88 L 14.38,14.38 L 14.38,16.89 L 14.46,16.89 L 15.40,16.42 Z" fill="#1c1814" stroke="none" /><path d="M 20.56,11.30 L 18.49,12.31 L 18.49,13.58 L 18.56,13.58 L 20.56,12.57 Z" fill="#1c1814" stroke="none" /><path d="M 27.75,7.70 L 22.63,10.24 L 22.59,10.28 L 22.59,11.55 L 27.71,9.01 L 27.75,8.97 Z" fill="#1c1814" stroke="none" /><path d="M 6.17,22.88 L 6.17,24.12 L 6.21,24.15 L 11.22,26.66 L 11.30,26.66 L 11.30,25.43 L 11.26,25.39 L 6.25,22.88 Z" fill="#6b4714" stroke="none" /><path d="M 10.28,22.41 L 10.28,23.68 L 11.22,24.15 L 11.30,24.15 L 11.30,22.92 Z" fill="#6b4714" stroke="none" /><path d="M 1.02,20.30 L 1.02,21.54 L 3.01,22.56 L 3.09,22.56 L 3.09,21.32 L 1.09,20.30 Z" fill="#6b4714" stroke="none" /><path d="M 4.10,18.05 L 4.10,19.32 L 5.12,19.83 L 5.12,18.56 Z" fill="#6b4714" stroke="none" /><path d="M 11.30,14.13 L 11.30,15.36 L 12.24,15.84 L 12.31,15.91 L 12.31,17.14 L 13.37,17.65 L 13.37,16.38 L 12.39,15.91 L 12.31,15.84 L 12.31,14.60 L 11.37,14.13 Z" fill="#6b4714" stroke="none" /><path d="M 2.07,10.75 L 2.07,12.02 L 9.19,15.58 L 9.26,15.58 L 9.26,14.35 L 9.23,14.31 Z" fill="#6b4714" stroke="none" /><path d="M 9.26,26.95 L 9.26,28.19 L 10.28,28.69 L 10.28,27.42 L 9.33,26.95 Z" fill="#513d16" stroke="none" /><path d="M 6.17,25.39 L 6.17,26.66 L 7.12,27.13 L 7.19,27.13 L 7.19,25.90 Z" fill="#513d16" stroke="none" /><path d="M 12.31,23.43 L 12.31,24.70 L 13.37,25.21 L 13.37,23.94 Z" fill="#513d16" stroke="none" /><path d="M 1.02,22.81 L 1.02,24.08 L 4.10,25.61 L 4.10,24.34 Z" fill="#513d16" stroke="none" /><path d="M 8.21,15.07 L 8.21,16.35 L 10.28,17.36 L 10.28,16.09 Z" fill="#513d16" stroke="none" /><path d="M 6.17,14.06 L 6.17,15.33 L 7.12,15.80 L 7.19,15.80 L 7.19,14.57 Z" fill="#513d16" stroke="none" /><path d="M 1.02,11.48 L 1.02,12.75 L 4.10,14.27 L 4.10,13.00 Z" fill="#513d16" stroke="none" /><path d="M 6.17,17.83 L 6.17,19.11 L 9.26,20.63 L 9.26,19.36 Z" fill="#5e3f16" stroke="none" /><path d="M 10.28,16.13 L 10.28,17.36 L 11.30,17.87 L 11.30,16.60 L 10.35,16.13 Z" fill="#5e3f16" stroke="none" /><path d="M 11.30,25.43 L 11.30,26.70 L 12.24,27.17 L 12.31,27.17 L 12.31,25.93 Z" fill="#684516" stroke="none" /><path d="M 3.09,21.32 L 3.09,22.59 L 6.17,24.12 L 6.17,22.85 Z" fill="#684516" stroke="none" /><path d="M 9.26,14.35 L 9.26,15.62 L 12.24,17.11 L 12.31,17.11 L 12.31,15.87 L 12.28,15.84 Z" fill="#684516" stroke="none" /><path d="M 1.02,10.24 L 1.02,11.48 L 2.00,11.99 L 2.07,11.99 L 2.07,10.75 L 1.09,10.24 Z" fill="#684516" stroke="none" /><path d="M 11.30,17.87 L 11.30,19.14 L 13.29,20.16 L 13.37,20.16 L 13.37,18.89 Z" fill="#211d18" stroke="none" /><path d="M 6.17,15.33 L 6.17,16.60 L 7.12,17.07 L 7.19,17.07 L 7.19,15.80 L 6.25,15.33 Z" fill="#211d18" stroke="none" /><path d="M 13.37,13.88 L 13.37,15.15 L 14.38,15.65 L 14.38,14.38 Z" fill="#211d18" stroke="none" /><path d="M 1.02,12.75 L 1.02,14.02 L 2.07,14.53 L 2.07,13.26 L 1.09,12.75 Z" fill="#231e18" stroke="none" /><path d="M 7.19,15.84 L 7.19,17.11 L 11.30,19.14 L 11.30,17.87 L 11.26,17.83 L 7.26,15.84 Z" fill="#231f18" stroke="none" /><path d="M 2.07,13.26 L 2.07,14.53 L 2.11,14.57 L 5.12,16.05 L 5.12,14.78 L 5.09,14.75 Z" fill="#231f18" stroke="none" /><path d="M 12.31,20.92 L 12.31,22.16 L 13.29,22.67 L 13.37,22.67 L 13.37,21.43 L 12.39,20.92 Z" fill="#533a18" stroke="none" /><path d="M 12.31,25.93 L 12.31,27.21 L 13.37,27.71 L 13.37,26.44 Z" fill="#5b3e18" stroke="none" /><path d="M 9.26,19.40 L 9.26,20.63 L 9.30,20.67 L 12.31,22.16 L 12.31,20.89 L 9.33,19.40 Z" fill="#5b3e18" stroke="none" /><path d="M 1.02,15.26 L 1.02,16.53 L 6.10,19.07 L 6.17,19.07 L 6.17,17.83 L 6.14,17.80 Z" fill="#5b3e18" stroke="none" /><path d="M 5.12,14.78 L 5.12,16.05 L 6.10,16.56 L 6.17,16.56 L 6.17,15.29 Z" fill="#231f19" stroke="none" /><path d="M 11.30,26.70 L 11.30,27.97 L 12.24,28.44 L 12.31,28.44 L 12.31,27.17 L 11.37,26.70 Z" fill="#694919" stroke="none" /><path d="M 9.26,23.17 L 9.26,24.41 L 9.30,24.44 L 12.31,25.93 L 12.31,24.66 L 9.33,23.17 Z" fill="#694919" stroke="none" /><path d="M 8.21,20.12 L 8.21,21.39 L 11.30,22.92 L 11.30,21.65 L 11.26,21.61 L 8.28,20.12 Z" fill="#694919" stroke="none" /><path d="M 5.12,19.83 L 5.12,21.10 L 7.19,22.12 L 7.19,20.85 Z" fill="#694919" stroke="none" /><path d="M 1.02,19.03 L 1.02,20.30 L 3.09,21.32 L 3.09,20.05 Z" fill="#694919" stroke="none" /><path d="M 10.28,13.62 L 10.28,14.86 L 11.30,15.36 L 11.30,14.09 L 10.35,13.62 Z" fill="#694919" stroke="none" /><path d="M 5.12,11.04 L 5.12,12.28 L 7.12,13.29 L 7.19,13.29 L 7.19,12.06 L 5.19,11.04 Z" fill="#694919" stroke="none" /><path d="M 6.17,16.60 L 6.17,17.83 L 6.21,17.87 L 9.19,19.36 L 9.26,19.36 L 9.26,18.12 L 9.23,18.09 L 6.25,16.60 Z" fill="#43351a" stroke="none" /><path d="M 9.26,18.12 L 9.26,19.40 L 10.21,19.87 L 10.28,19.87 L 10.28,18.63 Z" fill="#4b361a" stroke="none" /><path d="M 10.28,27.46 L 10.28,28.69 L 11.30,29.20 L 11.30,27.93 L 10.35,27.46 Z" fill="#5c411b" stroke="none" /><path d="M 12.31,24.70 L 12.31,25.93 L 13.29,26.44 L 13.37,26.44 L 13.37,25.21 L 12.39,24.70 Z" fill="#5c411b" stroke="none" /><path d="M 11.30,16.64 L 11.30,17.87 L 13.29,18.89 L 13.37,18.89 L 13.37,17.65 L 11.37,16.64 Z" fill="#5c411b" stroke="none" /><path d="M 13.37,0.51 L 13.37,0.54 L 14.31,1.02 L 14.46,1.02 L 15.40,0.54 L 15.36,0.47 L 14.42,0.00 L 14.35,0.00 Z" fill="#27241d" stroke="none" /><path d="M 13.40,13.84 L 13.40,13.91 L 14.35,14.38 L 14.42,14.38 L 15.36,13.91 L 15.36,13.84 L 14.42,13.37 L 14.35,13.37 Z" fill="#29251d" stroke="none" /><path d="M 2.07,14.53 L 2.07,15.80 L 3.01,16.27 L 3.09,16.27 L 3.09,15.04 Z" fill="#4a371d" stroke="none" /><path d="M 12.39,27.21 L 12.31,27.21 L 12.31,28.40 L 12.28,28.44 L 11.37,27.97 L 11.30,27.97 L 11.30,29.20 L 12.28,29.71 L 12.31,29.71 L 12.31,28.51 L 12.35,28.48 L 13.37,28.99 L 13.37,27.71 Z" fill="#60451d" stroke="none" /><path d="M 7.19,25.90 L 7.19,27.17 L 9.26,28.19 L 9.26,26.91 Z" fill="#60451d" stroke="none" /><path d="M 4.10,24.37 L 4.10,25.61 L 6.10,26.62 L 6.17,26.62 L 6.17,25.39 L 4.18,24.37 Z" fill="#60451d" stroke="none" /><path d="M 12.31,22.16 L 12.31,23.43 L 13.29,23.94 L 13.37,23.94 L 13.37,22.67 Z" fill="#60451d" stroke="none" /><path d="M 7.19,14.57 L 7.19,15.84 L 8.14,16.31 L 8.21,16.31 L 8.21,15.07 Z" fill="#60451d" stroke="none" /><path d="M 4.10,13.04 L 4.10,14.27 L 6.10,15.29 L 6.17,15.29 L 6.17,14.06 L 4.18,13.04 Z" fill="#60451d" stroke="none" /><path d="M 5.12,23.61 L 5.12,24.88 L 6.17,25.39 L 6.17,24.12 L 5.19,23.61 Z" fill="#6e4e1d" stroke="none" /><path d="M 11.30,21.65 L 11.30,24.19 L 12.24,24.66 L 12.31,24.66 L 12.31,22.16 Z" fill="#6e4e1d" stroke="none" /><path d="M 1.02,21.54 L 1.02,22.81 L 1.05,22.85 L 4.03,24.34 L 4.10,24.34 L 4.10,23.06 Z" fill="#6e4e1d" stroke="none" /><path d="M 6.17,19.11 L 6.17,20.38 L 8.14,21.36 L 8.21,21.36 L 8.21,20.09 L 6.25,19.11 Z" fill="#6e4e1d" stroke="none" /><path d="M 1.02,16.53 L 1.02,17.80 L 4.03,19.29 L 4.10,19.36 L 4.10,20.52 L 4.07,20.56 L 3.16,20.09 L 3.09,20.09 L 3.09,21.32 L 5.12,22.34 L 5.12,19.83 L 4.18,19.36 L 4.10,19.29 L 4.10,18.05 L 1.09,16.53 Z" fill="#6e4e1d" stroke="none" /><path d="M 12.31,14.64 L 12.31,15.87 L 13.29,16.38 L 13.37,16.38 L 13.37,15.15 L 12.39,14.64 Z" fill="#6e4e1d" stroke="none" /><path d="M 7.19,12.06 L 7.19,13.33 L 10.28,14.86 L 10.28,13.58 Z" fill="#6e4e1d" stroke="none" /><path d="M 15.44,10.79 L 15.44,10.82 L 16.38,11.30 L 16.49,11.30 L 17.43,10.82 L 17.43,10.75 L 16.49,10.28 L 16.42,10.28 Z" fill="#8d681d" stroke="none" /><path d="M 13.33,9.73 L 12.39,9.26 L 12.28,9.26 L 10.32,10.24 L 10.32,10.32 L 11.26,10.79 L 11.33,10.79 L 13.29,9.81 Z" fill="#8d681d" stroke="none" /><path d="M 12.35,8.21 L 12.35,8.25 L 13.29,8.72 L 13.44,8.72 L 14.38,8.25 L 14.38,8.21 L 13.37,7.70 Z" fill="#8d681d" stroke="none" /><path d="M 23.61,7.70 L 22.59,7.19 L 17.51,9.73 L 17.51,9.81 L 18.45,10.28 L 18.52,10.28 L 23.61,7.74 Z" fill="#8d681d" stroke="none" /><path d="M 8.21,7.19 L 7.23,6.68 L 7.16,6.68 L 5.19,7.66 L 5.16,7.74 L 6.10,8.21 L 6.25,8.21 L 8.21,7.23 Z" fill="#8d681d" stroke="none" /><path d="M 19.47,6.65 L 18.52,6.17 L 18.45,6.17 L 15.47,7.66 L 15.44,7.74 L 16.38,8.21 L 16.31,8.28 L 14.38,9.23 L 14.38,9.26 L 15.44,9.77 L 19.51,7.74 L 19.47,7.66 L 18.52,7.19 L 19.47,6.72 Z" fill="#8d681d" stroke="none" /><path d="M 9.26,5.63 L 9.30,5.70 L 12.28,7.19 L 12.39,7.19 L 15.40,5.67 L 15.40,5.63 L 14.46,5.16 L 14.31,5.16 L 12.39,6.14 L 12.28,6.14 L 10.35,5.16 L 10.21,5.16 Z" fill="#8d681d" stroke="none" /><path d="M 14.38,4.10 L 13.33,3.60 L 11.30,4.61 L 11.30,4.65 L 12.35,5.16 L 14.38,4.14 Z" fill="#8d681d" stroke="none" /><path d="M 15.44,3.60 L 15.44,3.63 L 16.38,4.10 L 16.49,4.10 L 17.43,3.63 L 17.43,3.56 L 16.49,3.09 L 16.42,3.09 Z" fill="#8d681d" stroke="none" /><path d="M 0.00,17.29 L 0.00,18.52 L 1.02,19.03 L 1.02,17.76 L 0.07,17.29 Z" fill="#2a261e" stroke="none" /><path d="M 0.00,12.24 L 0.00,13.51 L 0.94,13.98 L 1.02,13.98 L 1.02,12.71 L 0.07,12.24 Z" fill="#2a261e" stroke="none" /><path d="M 7.19,10.79 L 7.19,12.06 L 8.21,12.57 L 8.21,11.30 Z" fill="#2a261e" stroke="none" /><path d="M 1.02,7.70 L 1.02,8.97 L 1.05,9.01 L 4.03,10.50 L 4.10,10.50 L 4.10,9.23 Z" fill="#2a261e" stroke="none" /><path d="M 0.00,19.80 L 0.00,21.03 L 1.02,21.54 L 1.02,20.27 L 0.07,19.80 Z" fill="#2c261e" stroke="none" /><path d="M 0.00,14.75 L 0.00,16.02 L 0.94,16.49 L 1.02,16.49 L 1.02,15.26 Z" fill="#2c261e" stroke="none" /><path d="M 12.31,28.48 L 12.31,29.71 L 13.29,30.22 L 13.37,30.22 L 13.37,28.99 L 12.39,28.48 Z" fill="#553f1e" stroke="none" /><path d="M 0.04,7.16 L 0.04,7.23 L 0.98,7.70 L 1.09,7.70 L 2.03,7.23 L 2.00,7.16 L 1.05,6.68 L 0.98,6.68 Z" fill="#2a261f" stroke="none" /><path d="M 0.00,9.73 L 0.00,10.97 L 1.02,11.48 L 1.02,10.21 L 0.07,9.73 Z" fill="#2c261f" stroke="none" /><path d="M 6.17,10.28 L 6.17,11.55 L 7.19,12.06 L 7.19,10.79 Z" fill="#2c271f" stroke="none" /><path d="M 10.28,18.63 L 10.28,19.90 L 13.37,21.43 L 13.37,20.16 Z" fill="#4c3a1f" stroke="none" /><path d="M 3.09,15.04 L 3.09,16.31 L 6.17,17.83 L 6.17,16.56 Z" fill="#4c3a1f" stroke="none" /><path d="M 1.02,14.02 L 1.02,15.26 L 2.00,15.76 L 2.07,15.76 L 2.07,14.53 L 1.09,14.02 Z" fill="#4c3a1f" stroke="none" /><path d="M 12.35,11.30 L 12.35,11.33 L 13.29,11.80 L 13.44,11.80 L 14.38,11.33 L 14.38,11.30 L 13.37,10.79 Z" fill="#a56d1f" stroke="none" /><path d="M 11.30,8.72 L 11.30,8.75 L 12.31,9.26 L 13.37,8.75 L 13.37,8.72 L 12.35,8.21 Z" fill="#a56d1f" stroke="none" /><path d="M 22.59,7.19 L 21.61,6.68 L 21.54,6.68 L 16.45,9.23 L 16.45,9.26 L 17.43,9.77 L 17.51,9.77 L 22.59,7.23 Z" fill="#a56d1f" stroke="none" /><path d="M 18.52,6.14 L 18.52,6.21 L 19.47,6.68 L 19.54,6.68 L 20.52,6.17 L 20.52,6.14 L 19.58,5.67 L 19.47,5.67 Z" fill="#a56d1f" stroke="none" /><path d="M 16.42,5.12 L 15.47,4.65 L 15.33,4.65 L 14.38,5.12 L 14.38,5.16 L 15.29,5.59 L 15.36,5.67 L 12.39,7.16 L 12.35,7.23 L 13.29,7.70 L 13.40,7.70 L 16.38,6.21 L 16.42,6.14 L 15.47,5.67 L 15.55,5.59 L 16.38,5.19 Z" fill="#a56d1f" stroke="none" /><path d="M 12.31,4.10 L 11.33,3.60 L 11.26,3.60 L 4.14,7.16 L 4.14,7.23 L 5.09,7.70 L 5.19,7.70 L 12.31,4.14 Z" fill="#a56d1f" stroke="none" /><path d="M 13.37,3.60 L 13.37,3.63 L 14.31,4.10 L 14.46,4.10 L 15.40,3.63 L 15.36,3.56 L 14.42,3.09 L 14.35,3.09 Z" fill="#a56d1f" stroke="none" /><path d="M 0.00,21.03 L 0.00,23.57 L 0.94,24.05 L 1.02,24.05 L 1.02,21.54 Z" fill="#2d2820" stroke="none" /><path d="M 0.00,18.52 L 0.00,19.80 L 0.94,20.27 L 1.02,20.27 L 1.02,19.03 Z" fill="#2d2820" stroke="none" /><path d="M 0.00,16.02 L 0.00,17.29 L 0.94,17.76 L 1.02,17.76 L 1.02,16.49 L 0.07,16.02 Z" fill="#2d2820" stroke="none" /><path d="M 0.00,13.51 L 0.00,14.75 L 1.02,15.26 L 1.02,13.98 L 0.07,13.51 Z" fill="#2d2820" stroke="none" /><path d="M 8.21,11.30 L 8.21,12.57 L 8.25,12.60 L 13.37,15.15 L 13.37,13.88 L 13.33,13.84 Z" fill="#2d2820" stroke="none" /><path d="M 0.00,10.97 L 0.00,12.24 L 0.94,12.71 L 1.02,12.71 L 1.02,11.48 Z" fill="#2d2820" stroke="none" /><path d="M 4.10,9.26 L 4.10,10.53 L 6.17,11.55 L 6.17,10.28 L 4.18,9.26 Z" fill="#2d2820" stroke="none" /><path d="M 0.00,7.19 L 0.00,9.73 L 0.94,10.21 L 1.02,10.21 L 1.02,7.70 Z" fill="#2d2820" stroke="none" /><path d="M 17.47,11.80 L 16.42,11.30 L 14.38,12.31 L 14.38,12.35 L 15.44,12.86 L 17.47,11.84 Z" fill="#7d5e22" stroke="none" /><path d="M 9.26,10.79 L 9.26,10.82 L 10.21,11.30 L 10.32,11.30 L 11.26,10.82 L 11.26,10.75 L 10.32,10.28 L 10.24,10.28 Z" fill="#7d5e22" stroke="none" /><path d="M 18.52,10.24 L 18.52,10.32 L 19.47,10.79 L 19.58,10.79 L 20.52,10.32 L 20.52,10.24 L 19.58,9.77 L 19.47,9.77 Z" fill="#7d5e22" stroke="none" /><path d="M 21.58,8.72 L 21.58,8.75 L 22.59,9.26 L 23.61,8.75 L 23.61,8.72 L 22.67,8.25 L 22.52,8.25 Z" fill="#7d5e22" stroke="none" /><path d="M 4.10,8.21 L 4.10,8.25 L 6.14,9.26 L 7.19,8.75 L 7.19,8.72 L 5.16,7.70 Z" fill="#7d5e22" stroke="none" /><path d="M 20.56,5.12 L 20.56,5.16 L 21.50,5.63 L 21.65,5.63 L 22.59,5.16 L 22.59,5.12 L 21.65,4.65 L 21.50,4.65 Z" fill="#7d5e22" stroke="none" /><path d="M 16.49,3.05 L 16.49,3.12 L 17.43,3.60 L 17.51,3.60 L 18.45,3.12 L 18.45,3.05 L 17.51,2.58 L 17.43,2.58 Z" fill="#7d5e22" stroke="none" /><path d="M 12.28,3.05 L 11.33,2.58 L 11.26,2.58 L 6.17,5.12 L 6.17,5.16 L 7.12,5.63 L 7.26,5.63 L 12.28,3.12 Z" fill="#7d5e22" stroke="none" /><path d="M 12.35,2.03 L 12.39,2.11 L 13.33,2.58 L 14.38,2.07 L 14.38,2.03 L 13.44,1.56 L 13.29,1.56 Z" fill="#7d5e22" stroke="none" /><path d="M 7.23,9.73 L 7.23,9.81 L 8.17,10.28 L 8.25,10.28 L 9.23,9.77 L 9.23,9.73 L 8.28,9.26 L 8.17,9.26 Z" fill="#906223" stroke="none" /><path d="M 3.12,6.65 L 3.12,6.72 L 4.07,7.19 L 4.14,7.19 L 5.09,6.72 L 5.09,6.65 L 4.14,6.17 L 4.07,6.17 Z" fill="#906223" stroke="none" /><path d="M 18.52,4.10 L 18.52,4.14 L 19.47,4.61 L 19.58,4.61 L 20.52,4.14 L 20.49,4.07 L 19.54,3.60 Z" fill="#906223" stroke="none" /><path d="M 14.38,2.03 L 14.38,2.07 L 15.40,2.58 L 16.42,2.07 L 16.42,2.03 L 15.47,1.56 L 15.33,1.56 Z" fill="#906223" stroke="none" /><path d="M 17.43,9.73 L 16.49,9.26 L 16.38,9.26 L 13.40,10.75 L 13.37,10.82 L 14.31,11.30 L 14.46,11.30 L 17.43,9.81 Z" fill="#a06a23" stroke="none" /><path d="M 13.33,7.70 L 12.31,7.19 L 8.25,9.23 L 8.25,9.26 L 9.26,9.77 L 13.33,7.74 Z" fill="#a06a23" stroke="none" /><path d="M 21.61,6.65 L 21.61,6.72 L 22.56,7.19 L 22.67,7.19 L 23.61,6.72 L 23.61,6.65 L 22.67,6.17 L 22.56,6.17 Z" fill="#a06a23" stroke="none" /><path d="M 19.51,4.61 L 18.49,4.10 L 15.44,5.63 L 15.44,5.67 L 16.45,6.17 L 19.51,4.65 Z" fill="#a06a23" stroke="none" /><path d="M 15.40,2.54 L 14.46,2.07 L 14.31,2.07 L 11.33,3.56 L 11.33,3.63 L 12.28,4.10 L 12.39,4.10 L 15.36,2.62 Z" fill="#a06a23" stroke="none" /><path d="M 8.25,11.30 L 8.25,11.33 L 9.19,11.80 L 9.30,11.80 L 10.24,11.33 L 10.21,11.26 L 9.26,10.79 Z" fill="#322d25" stroke="none" /><path d="M 4.14,9.23 L 4.18,9.30 L 5.12,9.77 L 6.14,9.26 L 6.14,9.23 L 5.19,8.75 L 5.09,8.75 Z" fill="#322d25" stroke="none" /><path d="M 26.73,7.19 L 26.73,7.23 L 27.68,7.70 L 27.79,7.70 L 28.73,7.23 L 28.73,7.16 L 27.79,6.68 L 27.71,6.68 Z" fill="#322d25" stroke="none" /><path d="M 5.12,5.63 L 4.18,5.16 L 4.03,5.16 L 1.05,6.65 L 1.05,6.72 L 2.00,7.19 L 2.11,7.19 L 5.09,5.70 Z" fill="#322d25" stroke="none" /><path d="M 20.56,4.10 L 20.56,4.14 L 23.61,5.67 L 24.66,5.16 L 24.66,5.12 L 21.61,3.60 L 21.54,3.60 Z" fill="#322d25" stroke="none" /><path d="M 7.23,3.56 L 7.23,3.63 L 8.17,4.10 L 8.28,4.10 L 9.23,3.63 L 9.19,3.56 L 8.25,3.09 L 8.17,3.09 Z" fill="#322d25" stroke="none" /><path d="M 17.51,2.54 L 17.51,2.62 L 18.45,3.09 L 18.52,3.09 L 19.51,2.58 L 19.51,2.54 L 18.56,2.07 L 18.45,2.07 Z" fill="#322d25" stroke="none" /><path d="M 16.42,1.02 L 15.40,0.51 L 14.38,1.02 L 14.38,1.05 L 15.33,1.53 L 15.47,1.53 L 16.42,1.05 Z" fill="#322d25" stroke="none" /><path d="M 14.42,13.33 L 14.42,13.40 L 15.36,13.88 L 15.44,13.88 L 16.42,13.37 L 16.42,13.33 L 15.47,12.86 L 15.36,12.86 Z" fill="#352e25" stroke="none" /><path d="M 10.28,12.31 L 10.28,12.35 L 11.30,12.86 L 12.31,12.35 L 12.31,12.31 L 11.37,11.84 L 11.22,11.84 Z" fill="#352e25" stroke="none" /><path d="M 6.21,10.24 L 6.21,10.32 L 7.16,10.79 L 7.23,10.79 L 8.17,10.32 L 8.17,10.24 L 7.23,9.77 L 7.16,9.77 Z" fill="#352e25" stroke="none" /><path d="M 24.63,9.23 L 23.68,8.75 L 23.57,8.75 L 20.59,10.24 L 20.59,10.32 L 21.54,10.79 L 21.61,10.79 L 24.59,9.30 Z" fill="#352e25" stroke="none" /><path d="M 23.65,5.63 L 23.68,5.70 L 24.63,6.17 L 24.70,6.17 L 25.68,5.67 L 25.68,5.63 L 24.74,5.16 L 24.59,5.16 Z" fill="#352e25" stroke="none" /><path d="M 19.54,3.60 L 19.54,3.63 L 20.49,4.10 L 20.59,4.10 L 21.54,3.63 L 21.54,3.56 L 20.59,3.09 L 20.52,3.09 Z" fill="#352e25" stroke="none" /><path d="M 15.40,1.53 L 15.40,1.56 L 16.42,2.07 L 17.47,1.56 L 17.47,1.53 L 16.45,1.02 Z" fill="#352e25" stroke="none" /><path d="M 15.44,12.82 L 15.47,12.89 L 16.42,13.37 L 17.43,12.86 L 17.43,12.82 L 16.49,12.35 L 16.38,12.35 Z" fill="#372e25" stroke="none" /><path d="M 18.52,11.30 L 18.52,11.33 L 19.47,11.80 L 19.58,11.80 L 20.52,11.33 L 20.49,11.26 L 19.54,10.79 Z" fill="#372e25" stroke="none" /><path d="M 26.70,8.21 L 25.68,7.70 L 24.66,8.21 L 24.66,8.25 L 25.61,8.72 L 25.75,8.72 L 26.70,8.25 Z" fill="#312c26" stroke="none" /><path d="M 19.51,11.80 L 18.49,11.30 L 16.45,12.31 L 16.45,12.35 L 17.47,12.86 L 19.51,11.84 Z" fill="#342e26" stroke="none" /><path d="M 19.54,10.79 L 19.54,10.82 L 20.49,11.30 L 20.59,11.30 L 21.54,10.82 L 21.54,10.75 L 20.59,10.28 L 20.52,10.28 Z" fill="#342e26" stroke="none" /><path d="M 23.65,8.72 L 23.68,8.79 L 24.63,9.26 L 25.68,8.75 L 25.68,8.72 L 24.74,8.25 L 24.59,8.25 Z" fill="#342e26" stroke="none" /><path d="M 2.07,8.21 L 2.07,8.25 L 3.01,8.72 L 3.16,8.72 L 4.10,8.25 L 4.10,8.21 L 3.09,7.70 Z" fill="#342e26" stroke="none" /><path d="M 25.72,7.70 L 25.72,7.74 L 26.66,8.21 L 26.77,8.21 L 27.71,7.74 L 27.68,7.66 L 26.73,7.19 Z" fill="#342e26" stroke="none" /><path d="M 6.17,4.10 L 6.17,4.14 L 7.12,4.61 L 7.26,4.61 L 8.21,4.14 L 8.17,4.07 L 7.23,3.60 L 7.16,3.60 Z" fill="#352f26" stroke="none" /><path d="M 11.30,11.80 L 11.30,11.84 L 12.31,12.35 L 13.37,11.84 L 13.37,11.80 L 12.35,11.30 Z" fill="#8c6026" stroke="none" /><path d="M 3.09,7.70 L 3.09,7.74 L 4.03,8.21 L 4.18,8.21 L 5.12,7.74 L 5.09,7.66 L 4.14,7.19 L 4.07,7.19 Z" fill="#8c6026" stroke="none" /><path d="M 22.63,6.14 L 22.67,6.21 L 23.61,6.68 L 23.68,6.68 L 24.63,6.21 L 24.63,6.14 L 23.68,5.67 L 23.57,5.67 Z" fill="#8c6026" stroke="none" /><path d="M 11.33,12.82 L 11.37,12.89 L 13.33,13.88 L 13.40,13.88 L 14.35,13.40 L 14.35,13.33 L 12.39,12.35 L 12.28,12.35 Z" fill="#363027" stroke="none" /><path d="M 9.26,11.80 L 9.26,11.84 L 10.21,12.31 L 10.35,12.31 L 11.30,11.84 L 11.30,11.80 L 10.28,11.30 Z" fill="#363027" stroke="none" /><path d="M 7.23,10.75 L 7.23,10.82 L 8.17,11.30 L 8.28,11.30 L 9.23,10.82 L 9.19,10.75 L 8.25,10.28 L 8.17,10.28 Z" fill="#363027" stroke="none" /><path d="M 5.16,9.73 L 5.19,9.81 L 6.14,10.28 L 6.21,10.28 L 7.16,9.81 L 7.16,9.73 L 6.21,9.26 L 6.10,9.26 Z" fill="#363027" stroke="none" /><path d="M 3.09,8.72 L 3.09,8.75 L 4.10,9.26 L 5.12,8.75 L 5.12,8.72 L 4.18,8.25 L 4.03,8.25 Z" fill="#363027" stroke="none" /><path d="M 1.05,7.70 L 1.05,7.74 L 2.00,8.21 L 2.11,8.21 L 3.05,7.74 L 3.01,7.66 L 2.07,7.19 Z" fill="#363027" stroke="none" /><path d="M 24.70,6.14 L 24.70,6.21 L 26.66,7.19 L 26.77,7.19 L 27.71,6.72 L 27.71,6.65 L 25.75,5.67 L 25.64,5.67 Z" fill="#363027" stroke="none" /><path d="M 7.19,4.61 L 6.14,4.10 L 4.10,5.12 L 4.10,5.16 L 5.16,5.67 L 7.19,4.65 Z" fill="#363027" stroke="none" /><path d="M 18.52,3.05 L 18.52,3.12 L 19.47,3.60 L 19.58,3.60 L 20.52,3.12 L 20.52,3.05 L 19.58,2.58 L 19.47,2.58 Z" fill="#363027" stroke="none" /><path d="M 16.45,2.03 L 16.49,2.11 L 17.43,2.58 L 17.51,2.58 L 18.49,2.07 L 18.49,2.03 L 17.54,1.56 L 17.40,1.56 Z" fill="#363027" stroke="none" /><path d="M 14.38,1.02 L 13.33,0.51 L 8.25,3.05 L 8.25,3.12 L 9.19,3.60 L 9.30,3.60 L 14.38,1.05 Z" fill="#363027" stroke="none" /><path d="M 11.33,10.75 L 11.33,10.82 L 12.28,11.30 L 12.39,11.30 L 13.33,10.82 L 13.29,10.75 L 12.35,10.28 L 12.28,10.28 Z" fill="#a27127" stroke="none" /><path d="M 16.42,8.21 L 15.40,7.70 L 13.37,8.72 L 13.37,8.75 L 14.31,9.23 L 14.46,9.23 L 16.42,8.25 Z" fill="#a27127" stroke="none" /><path d="M 22.63,7.19 L 22.63,7.23 L 23.57,7.70 L 23.68,7.70 L 24.63,7.23 L 24.63,7.16 L 23.68,6.68 L 23.61,6.68 Z" fill="#a27127" stroke="none" /><path d="M 10.24,7.16 L 9.30,6.68 L 9.23,6.68 L 6.17,8.21 L 6.17,8.25 L 8.25,9.26 L 9.23,8.75 L 9.23,8.72 L 8.32,8.28 L 8.28,8.21 L 10.24,7.23 Z" fill="#a27127" stroke="none" /><path d="M 22.59,6.14 L 21.65,5.67 L 21.50,5.67 L 18.52,7.16 L 18.52,7.23 L 19.47,7.70 L 19.58,7.70 L 22.56,6.21 Z" fill="#a27127" stroke="none" /><path d="M 19.51,5.63 L 18.56,5.16 L 18.42,5.16 L 15.44,6.65 L 15.44,6.72 L 16.38,7.19 L 16.49,7.19 L 19.47,5.70 Z" fill="#a27127" stroke="none" /><path d="M 16.42,3.05 L 15.47,2.58 L 15.36,2.58 L 14.42,3.05 L 14.42,3.12 L 15.33,3.56 L 15.36,3.60 L 15.29,3.67 L 11.33,5.63 L 11.33,5.67 L 12.35,6.17 L 16.42,4.14 L 16.38,4.07 L 15.55,3.67 L 15.47,3.60 L 16.42,3.12 Z" fill="#a27127" stroke="none" /><path d="M 10.28,11.30 L 10.28,11.33 L 11.22,11.80 L 11.37,11.80 L 12.31,11.33 L 12.28,11.26 L 11.33,10.79 L 11.26,10.79 Z" fill="#8e6529" stroke="none" /><path d="M 22.59,8.21 L 22.59,8.25 L 23.61,8.75 L 24.66,8.25 L 24.66,8.21 L 23.65,7.70 Z" fill="#8e6529" stroke="none" /><path d="M 21.58,5.63 L 21.58,5.67 L 22.59,6.17 L 23.61,5.67 L 23.61,5.63 L 22.67,5.16 L 22.52,5.16 Z" fill="#8e6529" stroke="none" /><path d="M 7.19,5.63 L 6.25,5.16 L 6.10,5.16 L 4.14,6.14 L 4.14,6.21 L 5.09,6.68 L 5.16,6.68 L 7.19,5.67 Z" fill="#8e6529" stroke="none" /><path d="M 15.44,2.54 L 15.47,2.62 L 16.42,3.09 L 16.49,3.09 L 17.43,2.62 L 17.43,2.54 L 16.49,2.07 L 16.38,2.07 Z" fill="#8e6529" stroke="none" /><path d="M 11.33,2.54 L 11.33,2.62 L 12.28,3.09 L 12.35,3.09 L 13.33,2.58 L 13.33,2.54 L 12.39,2.07 L 12.28,2.07 Z" fill="#8e6529" stroke="none" /><path d="M 16.42,11.30 L 15.40,10.79 L 13.37,11.80 L 13.37,11.84 L 14.31,12.31 L 14.46,12.31 L 16.42,11.33 Z" fill="#a9782c" stroke="none" /><path d="M 16.49,10.24 L 16.49,10.32 L 17.43,10.79 L 17.51,10.79 L 18.45,10.32 L 18.45,10.24 L 17.51,9.77 L 17.43,9.77 Z" fill="#a9782c" stroke="none" /><path d="M 9.26,9.73 L 9.30,9.81 L 10.24,10.28 L 10.32,10.28 L 12.35,9.26 L 13.22,9.70 L 13.29,9.77 L 12.35,10.24 L 12.35,10.32 L 13.29,10.79 L 13.40,10.79 L 15.40,9.77 L 15.40,9.73 L 13.44,8.75 L 13.29,8.75 L 12.39,9.23 L 12.28,9.23 L 11.37,8.75 L 11.22,8.75 Z" fill="#a9782c" stroke="none" /><path d="M 16.42,7.19 L 15.44,6.68 L 15.36,6.68 L 13.40,7.66 L 13.37,7.74 L 14.31,8.21 L 14.46,8.21 L 16.42,7.23 Z" fill="#a9782c" stroke="none" /><path d="M 7.23,6.65 L 7.23,6.72 L 8.17,7.19 L 8.28,7.19 L 9.26,6.68 L 10.24,7.19 L 8.21,8.21 L 8.21,8.25 L 9.23,8.75 L 12.31,7.23 L 12.28,7.16 L 9.30,5.67 L 9.19,5.67 Z" fill="#a9782c" stroke="none" /><path d="M 10.28,5.12 L 10.28,5.16 L 11.30,5.67 L 12.31,5.16 L 12.31,5.12 L 11.37,4.65 L 11.22,4.65 Z" fill="#a9782c" stroke="none" /><path d="M 18.49,5.12 L 18.49,5.16 L 20.52,6.17 L 21.58,5.67 L 21.58,5.63 L 19.54,4.61 Z" fill="#a9782c" stroke="none" /><path d="M 18.49,4.10 L 17.51,3.60 L 17.43,3.60 L 15.40,4.61 L 15.40,4.65 L 16.45,5.16 L 18.49,4.14 Z" fill="#a9782c" stroke="none" /><path d="M 12.35,12.31 L 12.39,12.39 L 13.33,12.86 L 14.38,12.35 L 14.38,12.31 L 13.44,11.84 L 13.29,11.84 Z" fill="#936b2d" stroke="none" /><path d="M 19.51,10.79 L 18.52,10.28 L 18.45,10.28 L 16.49,11.26 L 16.45,11.33 L 17.40,11.80 L 17.54,11.80 L 19.51,10.82 Z" fill="#936b2d" stroke="none" /><path d="M 8.25,10.24 L 8.25,10.32 L 9.19,10.79 L 9.30,10.79 L 10.24,10.32 L 10.24,10.24 L 9.30,9.77 L 9.19,9.77 Z" fill="#936b2d" stroke="none" /><path d="M 22.59,9.23 L 21.65,8.75 L 21.50,8.75 L 19.54,9.73 L 19.54,9.77 L 20.52,10.28 L 20.59,10.28 L 22.56,9.30 Z" fill="#936b2d" stroke="none" /><path d="M 6.17,9.23 L 6.21,9.30 L 7.16,9.77 L 7.23,9.77 L 8.21,9.26 L 8.21,9.23 L 7.26,8.75 L 7.12,8.75 Z" fill="#936b2d" stroke="none" /><path d="M 24.63,6.17 L 23.68,6.65 L 23.68,6.72 L 24.63,7.19 L 23.68,7.66 L 23.65,7.74 L 24.59,8.21 L 24.74,8.21 L 25.68,7.74 L 25.64,7.66 L 24.70,7.19 L 25.64,6.72 L 25.64,6.65 L 24.70,6.17 Z" fill="#936b2d" stroke="none" /><path d="M 19.54,4.61 L 19.54,4.65 L 20.49,5.12 L 20.63,5.12 L 21.58,4.65 L 21.58,4.61 L 20.56,4.10 Z" fill="#936b2d" stroke="none" /><path d="M 17.51,3.56 L 17.51,3.63 L 18.45,4.10 L 18.56,4.10 L 19.51,3.63 L 19.47,3.56 L 18.52,3.09 L 18.45,3.09 Z" fill="#936b2d" stroke="none" /><path d="M 13.37,12.82 L 13.40,12.89 L 14.35,13.37 L 14.42,13.37 L 15.40,12.86 L 15.40,12.82 L 14.46,12.35 L 14.31,12.35 Z" fill="#82612e" stroke="none" /><path d="M 24.70,7.16 L 24.70,7.23 L 25.64,7.70 L 25.75,7.70 L 26.70,7.23 L 26.66,7.16 L 25.72,6.68 L 25.64,6.68 Z" fill="#82612e" stroke="none" /><path d="M 2.07,7.19 L 2.07,7.23 L 3.01,7.70 L 3.12,7.70 L 4.07,7.23 L 4.07,7.16 L 3.12,6.68 L 3.05,6.68 Z" fill="#82612e" stroke="none" /><path d="M 13.37,1.53 L 13.37,1.56 L 14.31,2.03 L 14.46,2.03 L 15.40,1.56 L 15.40,1.53 L 14.46,1.05 L 14.31,1.05 Z" fill="#82612e" stroke="none" /><path d="M 23.65,17.07 L 22.59,17.58 L 22.59,20.12 L 23.65,19.61 Z" fill="#2f2f2f" stroke="none" /><path d="M 23.65,15.84 L 23.57,15.84 L 22.59,16.35 L 22.59,17.58 L 22.67,17.58 L 23.65,17.07 Z" fill="#353535" stroke="none" /><path d="M 22.59,18.89 L 22.52,18.89 L 21.58,19.36 L 21.58,20.63 L 22.59,20.12 Z" fill="#393939" stroke="none" /><path d="M 22.59,17.62 L 22.52,17.62 L 21.58,18.09 L 21.58,19.36 L 21.65,19.36 L 22.59,18.89 Z" fill="#414141" stroke="none" /><path d="M 23.65,14.57 L 22.59,15.07 L 22.59,16.35 L 23.65,15.84 Z" fill="#414141" stroke="none" /><path d="M 20.56,17.62 L 20.56,20.12 L 21.58,20.63 L 21.58,18.09 L 20.63,17.62 Z" fill="#4c4c4c" stroke="none" /><path d="M 22.59,16.35 L 21.58,16.85 L 21.58,18.09 L 21.65,18.09 L 22.59,17.62 Z" fill="#4d4d4d" stroke="none" /><path d="M 22.59,15.11 L 22.52,15.11 L 21.58,15.58 L 21.58,16.85 L 22.59,16.35 Z" fill="#515151" stroke="none" /><path d="M 20.56,16.35 L 20.56,17.62 L 21.50,18.09 L 21.58,18.09 L 21.58,16.85 Z" fill="#565656" stroke="none" /><path d="M 20.56,15.11 L 20.56,16.35 L 21.58,16.85 L 21.58,15.58 L 20.63,15.11 Z" fill="#6a6a6a" stroke="none" /><path d="M 21.61,14.53 L 21.61,14.60 L 22.56,15.07 L 22.67,15.07 L 23.61,14.60 L 23.57,14.53 L 22.63,14.06 L 22.56,14.06 Z" fill="#a3a3a3" stroke="none" /><path d="M 20.56,15.07 L 20.56,15.11 L 21.50,15.58 L 21.65,15.58 L 22.59,15.11 L 22.56,15.04 L 21.61,14.57 L 21.54,14.57 Z" fill="#cbcbcb" stroke="none" /></svg>