<svg height="32" width="32" viewBox="0 0 32 32"><defs /><path d="M 13.22,28.48 L 13.14,28.48 L 12.11,29.01 L 12.11,30.36 L 13.22,29.83 Z" fill="#20231d" stroke="none" /><path d="M 11.01,28.48 L 10.93,28.48 L 8.80,29.54 L 8.80,30.90 L 8.88,30.90 L 11.01,29.83 Z" fill="#20231d" stroke="none" /><path d="M 20.91,24.63 L 20.83,24.63 L 17.64,26.23 L 17.60,26.27 L 17.60,27.62 L 20.91,25.98 Z" fill="#20231d" stroke="none" /><path d="M 16.49,18.74 L 15.43,19.27 L 15.43,24.63 L 15.51,24.63 L 16.49,24.14 Z" fill="#20231d" stroke="none" /><path d="M 9.90,18.25 L 9.82,18.25 L 6.63,19.85 L 6.63,21.20 L 6.71,21.20 L 9.90,19.60 Z" fill="#20231d" stroke="none" /><path d="M 14.32,17.15 L 14.24,17.15 L 13.22,17.68 L 13.22,19.03 L 14.32,18.50 Z" fill="#20231d" stroke="none" /><path d="M 20.91,13.83 L 18.70,14.94 L 18.70,16.29 L 20.91,15.18 Z" fill="#20231d" stroke="none" /><path d="M 24.23,9.74 L 23.12,10.27 L 23.12,12.97 L 24.23,12.44 Z" fill="#20231d" stroke="none" /><path d="M 24.23,5.69 L 23.12,6.22 L 23.12,7.57 L 23.20,7.57 L 24.23,7.04 Z" fill="#20231d" stroke="none" /><path d="M 8.80,29.59 L 8.72,29.59 L 6.63,30.65 L 6.63,32.00 L 8.80,30.94 Z" fill="#252723" stroke="none" /><path d="M 16.49,24.14 L 16.41,24.14 L 15.43,24.63 L 15.43,27.34 L 13.22,28.44 L 13.22,29.79 L 13.30,29.79 L 17.60,27.62 L 17.60,26.27 L 16.53,26.80 L 16.49,26.76 Z" fill="#252723" stroke="none" /><path d="M 24.23,21.85 L 20.91,23.49 L 20.91,24.84 L 20.99,24.84 L 24.18,23.24 L 24.23,23.20 Z" fill="#252723" stroke="none" /><path d="M 13.22,17.68 L 12.11,18.21 L 12.11,19.56 L 12.19,19.56 L 13.22,19.03 Z" fill="#252723" stroke="none" /><path d="M 11.01,17.68 L 9.90,18.21 L 9.90,19.56 L 9.98,19.56 L 11.01,19.03 Z" fill="#252723" stroke="none" /><path d="M 18.70,14.94 L 14.32,17.10 L 14.32,18.46 L 14.40,18.46 L 15.39,17.96 L 15.43,18.01 L 15.43,19.27 L 16.45,18.78 L 16.49,18.74 L 16.49,17.43 L 16.57,17.35 L 18.70,16.29 Z" fill="#252723" stroke="none" /><path d="M 23.12,11.62 L 20.91,12.73 L 20.91,14.08 L 23.12,12.97 Z" fill="#252723" stroke="none" /><path d="M 24.23,7.04 L 23.12,7.57 L 23.12,10.27 L 23.20,10.27 L 24.23,9.74 Z" fill="#252723" stroke="none" /><path d="M 14.28,22.51 L 13.22,23.04 L 13.22,27.09 L 13.30,27.09 L 14.28,26.60 L 14.32,26.64 L 14.32,27.91 L 14.36,27.91 L 15.43,27.38 L 15.43,23.32 L 15.35,23.32 L 14.36,23.82 L 14.32,23.77 L 14.32,22.51 Z" fill="#282b25" stroke="none" /><path d="M 23.12,21.07 L 23.04,21.07 L 20.91,22.14 L 20.91,23.49 L 20.99,23.49 L 23.12,22.42 Z" fill="#282b25" stroke="none" /><path d="M 23.12,6.26 L 23.04,6.26 L 22.02,6.79 L 22.02,8.10 L 21.93,8.18 L 20.91,8.68 L 20.91,11.38 L 20.99,11.38 L 21.97,10.88 L 22.02,10.93 L 22.02,12.15 L 22.10,12.15 L 23.12,11.62 Z" fill="#282b25" stroke="none" /><path d="M 7.73,27.42 L 7.65,27.42 L 6.63,27.95 L 6.63,29.30 L 7.73,28.77 Z" fill="#2b302b" stroke="none" /><path d="M 13.22,27.13 L 13.14,27.13 L 12.11,27.66 L 12.11,29.01 L 13.22,28.48 Z" fill="#2b302b" stroke="none" /><path d="M 11.01,25.78 L 10.93,25.78 L 9.90,26.31 L 9.90,27.62 L 9.82,27.70 L 8.80,28.19 L 8.80,29.54 L 8.88,29.54 L 11.01,28.48 Z" fill="#2b302b" stroke="none" /><path d="M 15.43,19.27 L 14.32,19.81 L 14.32,21.16 L 13.22,21.73 L 13.22,23.04 L 13.30,23.04 L 14.28,22.55 L 14.32,22.59 L 14.32,23.86 L 15.43,23.32 Z" fill="#2b302b" stroke="none" /><path d="M 24.23,19.15 L 20.91,20.79 L 20.91,21.89 L 18.70,23.00 L 18.70,24.35 L 17.60,24.92 L 17.60,26.27 L 19.81,25.17 L 19.81,23.86 L 19.89,23.77 L 20.91,23.28 L 20.91,22.18 L 20.95,22.14 L 23.08,21.07 L 23.12,21.12 L 23.12,22.38 L 23.20,22.38 L 24.23,21.85 Z" fill="#2b302b" stroke="none" /><path d="M 11.01,15.02 L 10.93,15.02 L 8.80,16.08 L 8.80,17.43 L 7.73,17.96 L 7.73,19.31 L 9.90,18.25 L 9.90,16.94 L 9.98,16.86 L 11.01,16.37 Z" fill="#2b302b" stroke="none" /><path d="M 18.70,12.28 L 18.62,12.28 L 15.43,13.87 L 15.43,15.18 L 15.35,15.26 L 14.32,15.75 L 14.32,17.10 L 14.40,17.10 L 17.60,15.51 L 17.60,14.16 L 18.70,13.59 Z" fill="#2b302b" stroke="none" /><path d="M 22.02,10.84 L 20.91,11.38 L 20.91,12.73 L 22.02,12.19 Z" fill="#2b302b" stroke="none" /><path d="M 22.02,6.79 L 20.91,7.32 L 20.91,8.68 L 20.99,8.68 L 22.02,8.14 Z" fill="#2b302b" stroke="none" /><path d="M 9.90,26.31 L 7.73,27.38 L 7.73,28.73 L 6.63,29.30 L 6.63,30.65 L 8.80,29.59 L 8.80,28.24 L 9.90,27.66 Z" fill="#303432" stroke="none" /><path d="M 13.14,25.78 L 12.11,26.31 L 12.11,27.66 L 13.18,27.13 L 13.22,27.17 L 13.22,28.44 L 13.30,28.44 L 14.32,27.91 L 14.32,26.56 L 13.26,27.09 L 13.22,27.05 L 13.22,25.78 Z" fill="#303432" stroke="none" /><path d="M 20.91,23.28 L 20.83,23.28 L 19.81,23.82 L 19.81,25.17 L 20.91,24.63 Z" fill="#303432" stroke="none" /><path d="M 15.43,17.92 L 14.32,18.46 L 14.32,19.81 L 13.22,20.38 L 13.22,21.73 L 14.32,21.20 L 14.32,19.85 L 15.43,19.27 Z" fill="#303432" stroke="none" /><path d="M 11.01,16.37 L 10.93,16.37 L 9.90,16.90 L 9.90,18.21 L 9.98,18.21 L 11.01,17.68 Z" fill="#303432" stroke="none" /><path d="M 15.43,13.91 L 15.35,13.91 L 12.11,15.55 L 12.11,18.21 L 12.19,18.21 L 14.32,17.15 L 14.32,15.80 L 15.43,15.22 Z" fill="#303432" stroke="none" /><path d="M 20.91,11.17 L 20.83,11.17 L 18.70,12.24 L 18.70,13.54 L 18.62,13.63 L 17.60,14.12 L 17.60,15.47 L 17.68,15.47 L 20.91,13.83 Z" fill="#303432" stroke="none" /><path d="M 4.42,29.59 L 4.42,30.90 L 6.63,32.00 L 6.63,30.65 L 4.50,29.59 Z" fill="#3c4236" stroke="none" /><path d="M 11.01,28.48 L 11.01,29.83 L 12.11,30.36 L 12.11,29.01 L 11.09,28.48 Z" fill="#3c4236" stroke="none" /><path d="M 2.21,20.38 L 2.21,25.78 L 3.31,26.31 L 3.31,20.91 Z" fill="#3c4236" stroke="none" /><path d="M 5.52,19.36 L 5.52,20.71 L 6.63,21.24 L 6.63,19.89 L 5.61,19.36 Z" fill="#3c4236" stroke="none" /><path d="M 11.01,17.68 L 11.01,19.03 L 12.03,19.56 L 12.11,19.56 L 12.11,18.21 Z" fill="#3c4236" stroke="none" /><path d="M 0.00,16.57 L 0.00,17.92 L 1.02,18.46 L 1.10,18.46 L 1.10,17.10 Z" fill="#3c4236" stroke="none" /><path d="M 13.26,6.02 L 13.26,6.10 L 14.24,6.59 L 14.40,6.59 L 15.39,6.10 L 15.39,6.02 L 14.40,5.52 L 14.24,5.52 Z" fill="#3c4236" stroke="none" /><path d="M 19.81,3.48 L 17.68,2.41 L 17.55,2.41 L 17.27,2.58 L 16.57,2.21 L 16.45,2.21 L 13.26,3.81 L 13.22,3.89 L 14.32,4.42 L 17.55,2.78 L 17.68,2.78 L 19.44,3.68 L 19.81,3.52 Z" fill="#3c4236" stroke="none" /><path d="M 6.63,2.74 L 6.63,2.78 L 8.76,3.85 L 8.88,3.85 L 9.90,3.31 L 9.90,3.27 L 7.77,2.21 L 7.65,2.21 Z" fill="#3c4236" stroke="none" /><path d="M 7.73,24.72 L 6.63,25.25 L 6.63,26.60 L 7.73,26.07 Z" fill="#393c39" stroke="none" /><path d="M 11.01,23.08 L 9.90,23.61 L 9.90,24.92 L 9.82,25.00 L 8.80,25.49 L 8.80,26.84 L 8.88,26.84 L 9.90,26.31 L 9.90,25.00 L 9.98,24.92 L 11.01,24.43 Z" fill="#393c39" stroke="none" /><path d="M 13.22,21.73 L 12.11,22.26 L 12.11,23.61 L 13.22,23.08 Z" fill="#393c39" stroke="none" /><path d="M 20.91,20.58 L 20.83,20.58 L 18.70,21.65 L 18.70,23.00 L 17.60,23.57 L 17.60,24.92 L 18.70,24.39 L 18.70,23.04 L 18.74,23.00 L 20.91,21.93 Z" fill="#393c39" stroke="none" /><path d="M 11.01,19.03 L 9.90,19.56 L 9.90,20.91 L 8.80,21.48 L 8.80,22.83 L 11.01,21.73 Z" fill="#393c39" stroke="none" /><path d="M 19.81,18.46 L 19.72,18.46 L 18.70,18.99 L 18.70,20.30 L 18.78,20.30 L 19.81,19.76 Z" fill="#393c39" stroke="none" /><path d="M 18.70,16.29 L 17.60,16.82 L 17.60,18.17 L 17.68,18.17 L 18.70,17.64 Z" fill="#393c39" stroke="none" /><path d="M 24.23,15.14 L 24.14,15.14 L 20.91,16.78 L 20.91,19.44 L 20.99,19.44 L 21.97,18.95 L 22.02,18.99 L 22.02,20.26 L 24.23,19.15 Z" fill="#393c39" stroke="none" /><path d="M 9.90,14.20 L 8.80,14.73 L 8.80,16.08 L 7.73,16.61 L 7.73,17.96 L 6.63,18.54 L 6.63,19.85 L 6.71,19.85 L 7.73,19.31 L 7.73,18.01 L 8.80,17.47 L 8.80,16.12 L 9.90,15.55 Z" fill="#393c39" stroke="none" /><path d="M 13.22,12.32 L 13.14,12.32 L 12.11,12.85 L 12.11,15.55 L 14.32,14.45 L 14.32,13.09 L 13.26,13.63 L 13.22,13.59 Z" fill="#393c39" stroke="none" /><path d="M 20.91,7.12 L 20.83,7.12 L 19.81,7.65 L 19.81,8.96 L 19.72,9.04 L 18.74,9.53 L 18.70,9.49 L 18.70,8.23 L 18.62,8.23 L 14.36,10.35 L 14.32,10.39 L 14.32,11.74 L 18.66,9.58 L 18.70,9.62 L 18.70,10.88 L 17.60,11.46 L 17.60,12.81 L 18.70,12.28 L 18.70,10.93 L 19.81,10.35 L 19.81,9.04 L 19.89,8.96 L 20.91,8.47 Z" fill="#393c39" stroke="none" /><path d="M 17.60,24.92 L 16.49,25.45 L 16.49,26.80 L 16.57,26.80 L 17.60,26.27 Z" fill="#34393a" stroke="none" /><path d="M 11.01,21.73 L 6.63,23.90 L 6.63,25.25 L 6.71,25.25 L 7.65,24.76 L 7.73,24.80 L 7.73,26.03 L 6.63,26.60 L 6.63,27.95 L 8.80,26.88 L 8.80,25.53 L 9.90,24.96 L 9.90,23.65 L 11.01,23.08 Z" fill="#34393a" stroke="none" /><path d="M 20.91,17.88 L 19.81,18.41 L 19.81,19.72 L 19.72,19.81 L 18.70,20.30 L 18.70,21.65 L 18.78,21.65 L 20.87,20.58 L 20.91,20.62 L 20.91,20.79 L 20.99,20.79 L 22.02,20.26 L 22.02,18.91 L 20.95,19.44 L 20.91,19.40 Z" fill="#34393a" stroke="none" /><path d="M 17.60,16.86 L 17.51,16.86 L 16.49,17.39 L 16.49,18.74 L 17.60,18.21 Z" fill="#34393a" stroke="none" /><path d="M 11.01,12.32 L 10.93,12.32 L 8.80,13.38 L 8.80,14.73 L 8.88,14.73 L 9.86,14.24 L 9.90,14.28 L 9.90,15.55 L 11.01,15.02 Z" fill="#34393a" stroke="none" /><path d="M 12.11,11.50 L 12.11,12.85 L 13.18,12.32 L 13.22,12.36 L 13.22,13.63 L 13.30,13.63 L 14.24,13.14 L 14.32,13.18 L 14.32,14.45 L 17.60,12.81 L 17.60,11.46 L 16.53,11.99 L 16.49,11.95 L 16.49,10.68 L 16.41,10.68 L 14.36,11.70 L 14.32,11.66 L 14.32,10.39 L 14.28,10.39 Z" fill="#34393a" stroke="none" /><path d="M 19.81,7.65 L 18.70,8.18 L 18.70,9.53 L 18.78,9.53 L 19.81,9.00 Z" fill="#34393a" stroke="none" /><path d="M 11.01,24.43 L 10.93,24.43 L 9.90,24.96 L 9.90,26.31 L 11.01,25.78 Z" fill="#3f3f3b" stroke="none" /><path d="M 13.22,23.08 L 13.14,23.08 L 12.11,23.61 L 12.11,26.31 L 13.22,25.78 Z" fill="#3f3f3b" stroke="none" /><path d="M 17.60,20.87 L 16.49,21.40 L 16.49,25.45 L 16.57,25.45 L 17.60,24.92 Z" fill="#3f3f3b" stroke="none" /><path d="M 9.90,19.60 L 9.82,19.60 L 6.63,21.20 L 6.63,22.55 L 6.71,22.55 L 7.69,22.06 L 7.73,22.10 L 7.73,23.37 L 8.76,22.87 L 8.80,22.83 L 8.80,21.52 L 8.88,21.44 L 9.90,20.95 Z" fill="#3f3f3b" stroke="none" /><path d="M 13.22,19.03 L 12.11,19.56 L 12.11,20.91 L 12.19,20.91 L 13.22,20.38 Z" fill="#3f3f3b" stroke="none" /><path d="M 7.73,13.95 L 7.65,13.95 L 6.63,14.49 L 6.63,18.54 L 7.73,18.01 Z" fill="#3f3f3b" stroke="none" /><path d="M 22.02,13.54 L 21.93,13.54 L 20.91,14.08 L 20.91,16.78 L 23.12,15.67 L 23.12,14.32 L 22.06,14.85 L 22.02,14.81 Z" fill="#3f3f3b" stroke="none" /><path d="M 20.91,8.47 L 20.83,8.47 L 19.81,9.00 L 19.81,10.31 L 19.72,10.39 L 18.74,10.88 L 18.70,10.84 L 18.70,9.58 L 18.62,9.58 L 16.49,10.64 L 16.49,11.99 L 16.57,11.99 L 18.66,10.93 L 18.70,10.97 L 18.70,12.24 L 18.78,12.24 L 20.91,11.17 Z" fill="#3f3f3b" stroke="none" /><path d="M 16.49,7.98 L 16.41,7.98 L 15.43,8.47 L 15.43,9.82 L 15.51,9.82 L 16.49,9.33 Z" fill="#3f3f3b" stroke="none" /><path d="M 20.91,4.42 L 20.83,4.42 L 18.70,5.48 L 18.70,6.83 L 17.60,7.41 L 17.60,8.76 L 19.81,7.65 L 19.81,6.34 L 19.89,6.26 L 20.91,5.77 Z" fill="#3f3f3b" stroke="none" /><path d="M 7.73,22.02 L 6.63,22.55 L 6.63,23.90 L 6.71,23.90 L 7.73,23.37 Z" fill="#464541" stroke="none" /><path d="M 14.32,18.50 L 14.24,18.50 L 13.22,19.03 L 13.22,20.34 L 13.14,20.42 L 12.11,20.91 L 12.11,22.26 L 12.19,22.26 L 13.22,21.73 L 13.22,20.42 L 13.30,20.34 L 14.32,19.85 Z" fill="#464541" stroke="none" /><path d="M 17.51,18.21 L 16.49,18.74 L 16.49,21.40 L 16.57,21.40 L 17.51,20.91 L 17.60,20.95 L 17.60,23.57 L 17.64,23.57 L 18.70,23.04 L 18.70,18.99 L 17.64,19.52 L 17.60,19.48 L 17.60,18.21 Z" fill="#464541" stroke="none" /><path d="M 20.91,15.18 L 18.70,16.29 L 18.70,17.64 L 19.76,17.10 L 19.81,17.15 L 19.81,18.41 L 19.89,18.41 L 20.91,17.88 Z" fill="#464541" stroke="none" /><path d="M 8.80,13.42 L 8.72,13.42 L 7.73,13.91 L 7.73,16.61 L 7.82,16.61 L 8.80,16.12 Z" fill="#464541" stroke="none" /><path d="M 24.23,12.44 L 24.14,12.44 L 22.02,13.50 L 22.02,14.85 L 22.10,14.85 L 23.08,14.36 L 23.12,14.40 L 23.12,15.67 L 24.23,15.14 Z" fill="#464541" stroke="none" /><path d="M 20.91,5.77 L 20.83,5.77 L 19.81,6.30 L 19.81,7.65 L 20.91,7.12 Z" fill="#464541" stroke="none" /><path d="M 18.70,5.52 L 18.62,5.52 L 12.15,8.76 L 12.11,8.80 L 12.11,11.50 L 15.43,9.86 L 15.43,8.51 L 16.45,7.98 L 16.49,8.02 L 16.49,9.29 L 16.57,9.29 L 17.55,8.80 L 17.60,8.76 L 17.60,7.45 L 17.68,7.37 L 18.70,6.87 Z" fill="#464541" stroke="none" /><path d="M 0.00,27.38 L 0.00,28.69 L 0.04,28.73 L 4.42,30.90 L 4.42,29.54 L 3.40,29.05 L 3.31,28.97 L 3.31,26.31 L 3.27,26.27 L 2.29,25.78 L 2.21,25.78 L 2.21,28.40 L 2.17,28.44 L 0.08,27.38 Z" fill="#444941" stroke="none" /><path d="M 1.10,17.15 L 1.10,18.50 L 2.13,18.99 L 2.21,19.07 L 2.21,20.38 L 2.25,20.42 L 3.23,20.91 L 3.31,20.91 L 3.31,19.64 L 3.36,19.60 L 5.44,20.66 L 5.52,20.66 L 5.52,19.31 L 1.19,17.15 Z" fill="#444941" stroke="none" /><path d="M 14.32,6.59 L 14.32,6.63 L 15.39,7.16 L 16.49,6.63 L 16.45,6.55 L 15.47,6.06 L 15.39,6.06 Z" fill="#444941" stroke="none" /><path d="M 19.48,3.64 L 19.52,3.72 L 20.91,4.42 L 20.91,5.16 L 20.95,5.20 L 23.08,6.26 L 24.18,5.73 L 24.14,5.65 L 19.89,3.52 L 19.72,3.52 Z" fill="#444941" stroke="none" /><path d="M 8.84,3.85 L 8.84,3.89 L 13.18,6.06 L 13.26,6.06 L 14.32,5.52 L 14.32,5.48 L 13.26,4.95 L 14.24,4.46 L 14.28,4.38 L 13.22,3.85 L 12.15,4.38 L 12.07,4.38 L 9.98,3.31 L 9.86,3.31 Z" fill="#444941" stroke="none" /><path d="M 19.81,17.10 L 19.72,17.10 L 17.60,18.17 L 17.60,19.52 L 17.68,19.52 L 19.81,18.46 Z" fill="#4d4b44" stroke="none" /><path d="M 0.00,21.97 L 0.00,26.03 L 1.02,26.52 L 1.10,26.60 L 1.10,27.91 L 2.13,28.44 L 2.21,28.44 L 2.21,24.39 L 1.19,23.90 L 1.10,23.82 L 1.10,22.51 L 0.08,21.97 Z" fill="#4a5044" stroke="none" /><path d="M 20.91,5.16 L 20.91,7.32 L 20.99,7.32 L 21.97,6.83 L 21.97,6.75 L 20.99,6.26 L 21.03,6.18 L 21.97,5.73 L 21.97,5.69 Z" fill="#4a5044" stroke="none" /><path d="M 17.64,3.85 L 17.64,3.89 L 18.70,4.42 L 19.81,3.89 L 19.76,3.81 L 18.78,3.31 L 18.66,3.31 Z" fill="#4a5044" stroke="none" /><path d="M 5.52,27.42 L 5.52,28.69 L 5.48,28.73 L 4.50,28.24 L 4.42,28.24 L 4.42,29.59 L 6.55,30.65 L 6.63,30.65 L 6.63,27.95 Z" fill="#515950" stroke="none" /><path d="M 11.01,25.78 L 11.01,27.13 L 12.11,27.66 L 12.11,26.31 L 11.09,25.78 Z" fill="#515950" stroke="none" /><path d="M 1.10,19.85 L 1.10,21.12 L 1.06,21.16 L 0.00,20.62 L 0.00,21.97 L 1.02,22.47 L 1.10,22.55 L 1.10,23.86 L 2.13,24.39 L 2.21,24.39 L 2.21,20.38 L 1.19,19.85 Z" fill="#515950" stroke="none" /><path d="M 1.10,15.80 L 1.10,17.15 L 4.38,18.78 L 4.42,18.78 L 4.42,17.51 L 4.46,17.47 L 5.44,17.96 L 5.52,17.96 L 5.52,16.61 L 2.25,14.98 L 2.21,14.98 L 2.21,16.25 L 2.17,16.29 L 1.19,15.80 Z" fill="#515950" stroke="none" /><path d="M 6.63,4.95 L 6.63,4.99 L 9.82,6.59 L 9.98,6.59 L 11.01,6.06 L 12.03,6.59 L 12.19,6.59 L 13.18,6.10 L 13.18,6.02 L 9.98,4.42 L 9.86,4.42 L 8.84,4.95 L 7.77,4.42 L 7.65,4.42 Z" fill="#515950" stroke="none" /><path d="M 18.70,3.27 L 17.60,2.74 L 14.32,4.38 L 14.32,4.42 L 15.35,4.95 L 15.47,4.95 L 16.49,4.42 L 17.55,4.95 L 17.68,4.95 L 18.70,4.42 L 18.70,4.38 L 17.76,3.93 L 17.68,3.85 L 18.66,3.36 Z" fill="#515950" stroke="none" /><path d="M 11.01,27.13 L 11.01,28.48 L 12.11,29.01 L 12.11,27.66 L 11.09,27.13 Z" fill="#5a615d" stroke="none" /><path d="M 0.00,26.03 L 0.00,27.38 L 1.10,27.91 L 1.10,26.56 L 0.08,26.03 Z" fill="#5a615d" stroke="none" /><path d="M 1.19,18.50 L 1.10,18.50 L 1.10,19.76 L 1.06,19.81 L 0.00,19.27 L 0.00,20.62 L 1.02,21.16 L 1.10,21.16 L 1.10,19.89 L 1.15,19.85 L 2.21,20.38 L 2.21,19.03 Z" fill="#5a615d" stroke="none" /><path d="M 5.52,16.65 L 5.52,17.92 L 5.48,17.96 L 4.42,17.43 L 4.42,18.78 L 6.63,19.89 L 6.63,17.19 L 5.61,16.65 Z" fill="#5a615d" stroke="none" /><path d="M 11.01,15.02 L 11.01,17.68 L 12.03,18.21 L 12.11,18.21 L 12.11,15.55 L 11.09,15.02 Z" fill="#5a615d" stroke="none" /><path d="M 0.00,13.87 L 0.00,16.57 L 1.02,17.10 L 1.10,17.10 L 1.10,15.84 L 1.15,15.80 L 2.21,16.33 L 2.21,14.98 Z" fill="#5a615d" stroke="none" /><path d="M 9.90,6.59 L 9.90,6.63 L 13.18,8.27 L 15.39,7.16 L 15.39,7.12 L 13.26,6.06 L 13.18,6.06 L 12.15,6.59 L 12.07,6.59 L 11.05,6.06 L 10.97,6.06 Z" fill="#5a615d" stroke="none" /><path d="M 20.91,6.22 L 20.91,6.26 L 21.97,6.79 L 22.06,6.79 L 23.08,6.26 L 23.08,6.22 L 22.02,5.69 Z" fill="#5a615d" stroke="none" /><path d="M 13.26,4.91 L 13.26,4.99 L 14.24,5.48 L 14.40,5.48 L 15.35,4.99 L 15.47,4.99 L 16.53,5.52 L 17.60,4.99 L 17.55,4.91 L 16.57,4.42 L 16.45,4.42 L 15.43,4.95 L 14.36,4.42 L 14.24,4.42 Z" fill="#5a615d" stroke="none" /><path d="M 4.42,3.85 L 4.42,3.89 L 6.55,4.95 L 6.67,4.95 L 7.69,4.42 L 8.76,4.95 L 8.88,4.95 L 9.90,4.42 L 9.90,4.38 L 6.63,2.74 Z" fill="#5a615d" stroke="none" /><path d="M 5.57,26.07 L 5.52,26.07 L 5.52,27.34 L 5.48,27.38 L 4.50,26.88 L 4.42,26.88 L 4.42,28.24 L 5.48,28.77 L 5.52,28.77 L 5.52,27.50 L 5.57,27.46 L 6.55,27.95 L 6.63,27.95 L 6.63,26.60 Z" fill="#6b706a" stroke="none" /><path d="M 11.01,24.43 L 11.01,25.78 L 12.11,26.31 L 12.11,24.96 L 11.09,24.43 Z" fill="#6b706a" stroke="none" /><path d="M 5.52,23.41 L 5.52,24.72 L 6.55,25.25 L 6.63,25.25 L 6.63,23.94 L 5.61,23.41 Z" fill="#6b706a" stroke="none" /><path d="M 4.42,20.13 L 4.42,21.48 L 5.44,22.02 L 5.52,22.02 L 5.52,20.66 Z" fill="#6b706a" stroke="none" /><path d="M 5.57,13.95 L 5.52,13.95 L 5.52,15.22 L 5.48,15.26 L 4.50,14.77 L 4.42,14.77 L 4.42,16.08 L 5.44,16.61 L 5.52,16.61 L 5.52,15.39 L 5.57,15.35 L 6.55,15.84 L 6.63,15.84 L 6.63,14.49 Z" fill="#6b706a" stroke="none" /><path d="M 0.00,12.56 L 0.00,13.87 L 1.02,14.40 L 1.10,14.40 L 1.10,13.09 L 0.08,12.56 Z" fill="#6b706a" stroke="none" /><path d="M 11.01,10.97 L 11.01,12.32 L 12.11,12.85 L 12.11,11.50 L 11.09,10.97 Z" fill="#6b706a" stroke="none" /><path d="M 3.31,8.47 L 3.31,9.58 L 4.26,10.03 L 4.34,10.11 L 3.36,10.60 L 3.36,10.68 L 7.69,12.85 L 8.80,12.32 L 8.80,12.28 L 4.50,10.15 L 4.46,10.11 L 4.54,10.03 L 5.44,9.58 L 5.57,9.58 L 9.90,11.74 L 9.90,10.39 L 9.86,10.35 L 5.61,8.23 L 5.52,8.23 L 5.52,9.49 L 5.48,9.53 L 3.40,8.47 Z" fill="#6b706a" stroke="none" /><path d="M 9.94,7.69 L 9.94,7.73 L 12.07,8.80 L 12.15,8.80 L 13.18,8.27 L 13.18,8.23 L 11.05,7.16 L 10.97,7.16 Z" fill="#6b706a" stroke="none" /><path d="M 5.52,5.48 L 5.52,5.52 L 6.59,6.06 L 6.67,6.06 L 7.69,5.52 L 7.69,5.48 L 6.63,4.95 Z" fill="#6b706a" stroke="none" /><path d="M 17.64,4.95 L 17.64,4.99 L 18.62,5.48 L 18.78,5.48 L 19.76,4.99 L 19.76,4.91 L 18.78,4.42 L 18.66,4.42 Z" fill="#6b706a" stroke="none" /><path d="M 9.94,3.27 L 9.98,3.36 L 10.97,3.85 L 11.09,3.85 L 12.07,3.36 L 12.07,3.27 L 11.09,2.78 L 10.93,2.78 Z" fill="#6b706a" stroke="none" /><path d="M 11.01,1.64 L 11.01,1.68 L 12.07,2.21 L 12.15,2.21 L 13.22,1.68 L 13.22,1.64 L 12.15,1.10 L 12.07,1.10 Z" fill="#6b706a" stroke="none" /><path d="M 3.31,27.66 L 3.31,29.01 L 4.34,29.54 L 4.42,29.54 L 4.42,28.19 Z" fill="#626b6c" stroke="none" /><path d="M 5.52,24.72 L 5.52,26.07 L 6.55,26.60 L 6.63,26.60 L 6.63,25.25 Z" fill="#626b6c" stroke="none" /><path d="M 11.01,21.73 L 11.01,24.43 L 12.11,24.96 L 12.11,22.26 Z" fill="#626b6c" stroke="none" /><path d="M 3.31,19.60 L 3.31,20.95 L 4.42,21.48 L 4.42,20.13 L 3.40,19.60 Z" fill="#626b6c" stroke="none" /><path d="M 0.00,11.21 L 0.00,12.56 L 1.02,13.05 L 1.10,13.14 L 1.10,14.45 L 4.42,16.08 L 4.42,14.73 L 3.40,14.24 L 3.31,14.16 L 3.31,12.85 L 0.08,11.21 Z" fill="#626b6c" stroke="none" /><path d="M 11.01,12.32 L 11.01,10.93 L 9.94,10.39 L 9.90,10.39 L 9.90,11.66 L 9.86,11.70 L 7.73,10.64 L 6.63,11.17 L 6.67,11.25 L 8.72,12.28 L 8.68,12.36 L 7.73,12.81 L 7.73,12.85 L 8.76,13.38 L 8.88,13.38 Z" fill="#626b6c" stroke="none" /><path d="M 2.25,10.07 L 2.29,10.15 L 3.27,10.64 L 3.36,10.64 L 4.38,10.11 L 4.38,10.07 L 3.40,9.58 L 3.23,9.58 Z" fill="#626b6c" stroke="none" /><path d="M 3.31,7.12 L 3.31,8.47 L 5.44,9.53 L 5.52,9.53 L 5.52,8.18 L 3.40,7.12 Z" fill="#626b6c" stroke="none" /><path d="M 6.67,6.02 L 6.67,6.10 L 9.86,7.69 L 9.98,7.69 L 10.97,7.20 L 10.97,7.12 L 7.77,5.52 L 7.65,5.52 Z" fill="#626b6c" stroke="none" /><path d="M 11.05,3.85 L 11.05,3.89 L 12.03,4.38 L 12.19,4.38 L 13.18,3.89 L 13.14,3.81 L 12.15,3.31 L 12.07,3.31 Z" fill="#626b6c" stroke="none" /><path d="M 9.94,1.06 L 9.94,1.15 L 10.93,1.64 L 11.09,1.64 L 12.11,1.10 L 13.14,1.64 L 13.30,1.64 L 14.28,1.15 L 14.28,1.06 L 12.15,0.00 L 12.07,0.00 Z" fill="#626b6c" stroke="none" /><path d="M 3.31,23.61 L 3.31,27.66 L 4.34,28.19 L 4.42,28.19 L 4.42,24.14 Z" fill="#75766e" stroke="none" /><path d="M 3.31,12.85 L 3.31,14.20 L 5.44,15.26 L 5.52,15.35 L 5.52,16.65 L 6.63,17.19 L 6.63,15.84 L 5.61,15.35 L 5.52,15.26 L 5.52,13.95 Z" fill="#75766e" stroke="none" /><path d="M 11.01,12.32 L 11.01,15.02 L 12.11,15.55 L 12.11,12.85 L 11.09,12.32 Z" fill="#75766e" stroke="none" /><path d="M 4.42,12.28 L 4.42,12.32 L 5.48,12.85 L 5.57,12.85 L 6.63,12.32 L 6.63,12.28 L 5.57,11.74 L 5.48,11.74 Z" fill="#75766e" stroke="none" /><path d="M 0.04,11.17 L 0.08,11.25 L 1.06,11.74 L 1.15,11.74 L 2.17,11.21 L 2.25,11.21 L 3.27,11.74 L 3.36,11.74 L 4.42,11.21 L 4.42,11.17 L 2.29,10.11 L 2.17,10.11 Z" fill="#75766e" stroke="none" /><path d="M 4.42,10.07 L 4.46,10.15 L 6.59,11.21 L 7.69,10.68 L 7.65,10.60 L 5.52,9.53 Z" fill="#75766e" stroke="none" /><path d="M 9.90,7.69 L 9.90,8.96 L 9.86,9.00 L 8.88,8.51 L 8.80,8.51 L 8.80,9.86 L 10.93,10.93 L 11.01,10.93 L 11.01,9.66 L 11.05,9.62 L 12.11,10.15 L 12.11,8.80 Z" fill="#75766e" stroke="none" /><path d="M 6.63,7.41 L 6.63,8.76 L 7.65,9.29 L 7.73,9.29 L 7.73,7.94 Z" fill="#75766e" stroke="none" /><path d="M 15.47,6.02 L 15.47,6.10 L 16.45,6.59 L 16.57,6.59 L 17.55,6.10 L 17.55,6.02 L 16.57,5.52 L 16.45,5.52 Z" fill="#75766e" stroke="none" /><path d="M 18.74,4.38 L 18.78,4.46 L 19.76,4.95 L 19.85,4.95 L 20.91,4.42 L 20.91,4.38 L 19.85,3.85 Z" fill="#75766e" stroke="none" /><path d="M 3.31,4.38 L 3.31,4.42 L 5.44,5.48 L 5.61,5.48 L 6.59,4.99 L 6.55,4.91 L 4.42,3.85 Z" fill="#75766e" stroke="none" /><path d="M 14.36,2.17 L 14.36,2.25 L 15.35,2.74 L 15.47,2.74 L 16.49,2.21 L 16.49,2.17 L 15.51,1.68 L 15.35,1.68 Z" fill="#75766e" stroke="none" /><path d="M 3.31,20.95 L 3.31,23.61 L 4.42,24.18 L 4.42,26.88 L 5.52,27.42 L 5.52,23.37 L 4.50,22.87 L 4.42,22.79 L 4.42,21.48 L 3.40,20.95 Z" fill="#838179" stroke="none" /><path d="M 5.52,20.71 L 5.52,22.06 L 6.63,22.59 L 6.63,21.24 L 5.61,20.71 Z" fill="#838179" stroke="none" /><path d="M 11.01,19.03 L 11.01,21.73 L 12.03,22.26 L 12.11,22.26 L 12.11,19.56 Z" fill="#838179" stroke="none" /><path d="M 0.00,17.92 L 0.00,19.27 L 1.02,19.81 L 1.10,19.81 L 1.10,18.46 Z" fill="#838179" stroke="none" /><path d="M 1.15,11.70 L 1.15,11.79 L 6.55,14.49 L 6.67,14.49 L 8.80,13.42 L 8.76,13.34 L 6.71,12.32 L 6.55,12.32 L 5.52,12.85 L 4.54,12.36 L 4.50,12.32 L 4.54,12.24 L 5.48,11.79 L 5.48,11.70 L 4.50,11.21 L 4.34,11.21 L 3.31,11.74 L 2.29,11.21 L 2.13,11.21 Z" fill="#838179" stroke="none" /><path d="M 11.01,9.62 L 11.01,10.97 L 12.11,11.50 L 12.11,10.15 L 11.09,9.62 Z" fill="#838179" stroke="none" /><path d="M 14.32,5.48 L 14.32,5.52 L 15.39,6.06 L 15.47,6.06 L 16.49,5.52 L 17.55,6.06 L 17.64,6.06 L 18.70,5.52 L 18.70,5.48 L 17.64,4.95 L 16.57,5.48 L 16.45,5.48 L 15.43,4.95 Z" fill="#838179" stroke="none" /><path d="M 3.31,4.42 L 3.31,7.12 L 6.59,8.76 L 6.63,8.76 L 6.63,7.49 L 6.71,7.45 L 7.73,7.98 L 7.73,9.33 L 8.72,9.82 L 8.80,9.82 L 8.80,8.55 L 8.84,8.51 L 9.90,9.04 L 9.90,7.69 L 9.86,7.65 L 3.40,4.42 Z" fill="#838179" stroke="none" /><path d="M 15.43,1.64 L 14.36,1.10 L 14.28,1.10 L 12.15,2.17 L 12.15,2.25 L 13.14,2.74 L 13.09,2.82 L 12.15,3.27 L 12.15,3.36 L 13.14,3.85 L 13.26,3.85 L 15.39,2.78 L 15.35,2.70 L 14.36,2.21 L 15.43,1.68 Z" fill="#838179" stroke="none" /><path d="M 11.01,2.78 L 11.01,2.74 L 9.94,2.21 L 11.01,1.68 L 11.01,1.64 L 9.94,1.10 L 9.86,1.10 L 7.73,2.17 L 7.77,2.25 L 9.90,3.31 Z" fill="#838179" stroke="none" /><path d="M 4.42,21.48 L 4.42,22.83 L 6.63,23.94 L 6.63,22.59 Z" fill="#8f8c7e" stroke="none" /><path d="M 9.94,2.17 L 9.94,2.25 L 12.07,3.31 L 12.15,3.31 L 13.22,2.78 L 13.22,2.74 L 11.09,1.68 L 10.93,1.68 Z" fill="#8f8c7e" stroke="none" /></svg>