<svg height="32" width="32" viewBox="0 0 32 32"><defs /><path d="M 16.02,16.02 L 16.02,18.31 L 20.59,18.31 L 20.59,16.02 Z" fill="#113835" stroke="none" /><path d="M 0.00,25.17 L 0.00,27.46 L 2.29,27.46 L 2.29,25.17 Z" fill="#483f51" stroke="none" /><path d="M 0.00,16.02 L 0.00,18.31 L 2.29,18.31 L 2.29,16.02 Z" fill="#483f51" stroke="none" /><path d="M 0.00,6.86 L 0.00,9.15 L 2.29,9.15 L 2.29,6.86 Z" fill="#483f51" stroke="none" /><path d="M 0.00,29.75 L 0.00,32.00 L 22.88,32.00 L 22.88,29.75 Z" fill="#2e5f51" stroke="none" /><path d="M 0.00,18.31 L 0.00,20.59 L 2.29,20.59 L 2.29,18.31 Z" fill="#2e5f51" stroke="none" /><path d="M 0.00,9.15 L 0.00,11.44 L 2.29,11.44 L 2.29,9.15 Z" fill="#2e5f51" stroke="none" /><path d="M 0.00,0.00 L 0.00,4.58 L 2.29,4.58 L 2.29,0.00 Z" fill="#2e5f51" stroke="none" /><path d="M 20.59,25.17 L 20.59,27.46 L 22.88,27.46 L 22.88,25.17 Z" fill="#287067" stroke="none" /><path d="M 13.73,25.17 L 13.73,29.75 L 16.02,29.75 L 16.02,25.17 Z" fill="#287067" stroke="none" /><path d="M 6.86,22.88 L 6.86,27.46 L 9.15,27.46 L 9.15,22.88 Z" fill="#287067" stroke="none" /><path d="M 20.59,9.15 L 20.59,22.88 L 22.88,22.88 L 22.88,9.15 Z" fill="#287067" stroke="none" /><path d="M 13.73,9.15 L 13.73,22.88 L 16.02,22.88 L 16.02,9.15 Z" fill="#287067" stroke="none" /><path d="M 6.86,9.15 L 6.86,20.59 L 9.15,20.59 L 9.15,9.15 Z" fill="#287067" stroke="none" /><path d="M 20.59,0.00 L 20.59,4.58 L 22.88,4.58 L 22.88,0.00 Z" fill="#287067" stroke="none" /><path d="M 13.73,0.00 L 13.73,6.86 L 16.02,6.86 L 16.02,0.00 Z" fill="#287067" stroke="none" /><path d="M 6.86,0.00 L 6.86,2.29 L 9.15,2.29 L 9.15,0.00 Z" fill="#287067" stroke="none" /><path d="M 0.00,22.88 L 0.00,25.17 L 2.29,25.17 L 2.29,22.88 Z" fill="#5e596b" stroke="none" /><path d="M 0.00,13.73 L 0.00,16.02 L 2.29,16.02 L 2.29,13.73 Z" fill="#5e596b" stroke="none" /><path d="M 0.00,4.58 L 0.00,6.86 L 2.29,6.86 L 2.29,4.58 Z" fill="#5e596b" stroke="none" /><path d="M 2.29,27.46 L 2.29,29.75 L 6.86,29.75 L 6.86,27.46 Z" fill="#3a8e8c" stroke="none" /><path d="M 20.59,22.88 L 16.02,22.88 L 16.02,29.75 L 18.31,29.75 L 18.31,27.49 L 18.34,27.46 L 20.59,27.46 Z" fill="#3a8e8c" stroke="none" /><path d="M 2.29,20.59 L 2.29,25.17 L 6.86,25.17 L 6.86,20.59 Z" fill="#3a8e8c" stroke="none" /><path d="M 16.02,18.31 L 16.02,20.59 L 20.59,20.59 L 20.59,18.31 Z" fill="#3a8e8c" stroke="none" /><path d="M 16.02,11.44 L 16.02,13.73 L 20.59,13.73 L 20.59,11.44 Z" fill="#3a8e8c" stroke="none" /><path d="M 16.02,0.00 L 16.02,9.15 L 20.59,9.15 L 20.59,6.86 L 18.34,6.86 L 18.31,6.83 L 18.31,4.61 L 18.34,4.58 L 20.59,4.58 L 20.59,0.00 Z" fill="#3a8e8c" stroke="none" /><path d="M 11.44,0.00 L 11.44,2.25 L 11.41,2.29 L 9.15,2.29 L 9.15,16.02 L 11.41,16.02 L 11.44,16.05 L 11.44,20.56 L 11.41,20.59 L 9.15,20.59 L 9.15,27.46 L 11.41,27.46 L 11.44,27.49 L 11.44,29.75 L 13.73,29.75 L 13.73,27.46 L 11.48,27.46 L 11.44,27.42 L 11.44,25.21 L 11.48,25.17 L 13.73,25.17 L 13.73,16.02 L 11.48,16.02 L 11.44,15.98 L 11.44,9.19 L 11.48,9.15 L 13.73,9.15 L 13.73,0.00 Z" fill="#3a8e8c" stroke="none" /><path d="M 2.29,0.00 L 2.29,4.58 L 4.54,4.58 L 4.58,4.61 L 4.58,6.83 L 4.54,6.86 L 2.29,6.86 L 2.29,11.44 L 4.54,11.44 L 4.58,11.48 L 4.58,13.69 L 4.54,13.73 L 2.29,13.73 L 2.29,18.31 L 6.86,18.31 L 6.86,11.44 L 4.61,11.44 L 4.58,11.41 L 4.58,9.19 L 4.61,9.15 L 6.86,9.15 L 6.86,4.58 L 4.61,4.58 L 4.58,4.54 L 4.58,2.32 L 4.61,2.29 L 6.86,2.29 L 6.86,0.00 Z" fill="#3a8e8c" stroke="none" /><path d="M 18.31,20.59 L 16.02,20.59 L 16.02,22.85 L 15.98,22.88 L 13.73,22.88 L 13.73,25.14 L 13.69,25.17 L 11.44,25.17 L 11.44,27.42 L 11.41,27.46 L 9.15,27.46 L 9.15,29.75 L 11.44,29.75 L 11.44,27.49 L 11.48,27.46 L 13.73,27.46 L 13.73,25.21 L 13.77,25.17 L 16.02,25.17 L 16.02,22.92 L 16.05,22.88 L 18.31,22.88 Z" fill="#22b59e" stroke="none" /><path d="M 2.29,18.31 L 2.29,20.59 L 6.83,20.59 L 6.86,20.63 L 6.86,22.88 L 9.15,22.88 L 9.15,20.59 L 6.90,20.59 L 6.86,20.56 L 6.86,18.31 Z" fill="#22b59e" stroke="none" /><path d="M 11.44,9.15 L 11.44,11.44 L 13.73,11.44 L 13.73,9.19 L 13.77,9.15 L 15.98,9.15 L 16.02,9.19 L 16.02,11.44 L 18.31,11.44 L 18.31,9.15 L 16.05,9.15 L 16.02,9.12 L 16.02,6.86 L 13.73,6.86 L 13.73,9.12 L 13.69,9.15 Z" fill="#22b59e" stroke="none" /><path d="M 9.15,2.29 L 4.58,2.29 L 4.58,4.54 L 4.54,4.58 L 2.29,4.58 L 2.29,6.86 L 4.58,6.86 L 4.58,4.61 L 4.61,4.58 L 6.83,4.58 L 6.86,4.61 L 6.86,9.12 L 6.83,9.15 L 4.58,9.15 L 4.58,11.44 L 6.86,11.44 L 6.86,9.19 L 6.90,9.15 L 9.15,9.15 Z" fill="#22b59e" stroke="none" /><path d="M 18.31,27.46 L 18.31,29.75 L 22.88,29.75 L 22.88,27.46 Z" fill="#24a7ad" stroke="none" /><path d="M 0.00,27.46 L 0.00,29.75 L 2.29,29.75 L 2.29,27.49 L 2.32,27.46 L 6.83,27.46 L 6.86,27.49 L 6.86,29.75 L 9.15,29.75 L 9.15,27.46 L 6.90,27.46 L 6.86,27.42 L 6.86,25.17 L 2.29,25.17 L 2.29,27.42 L 2.25,27.46 Z" fill="#24a7ad" stroke="none" /><path d="M 18.31,20.59 L 18.31,22.88 L 20.56,22.88 L 20.59,22.92 L 20.59,25.17 L 22.88,25.17 L 22.88,22.88 L 20.63,22.88 L 20.59,22.85 L 20.59,20.59 Z" fill="#24a7ad" stroke="none" /><path d="M 0.00,20.59 L 0.00,22.88 L 2.29,22.88 L 2.29,20.59 Z" fill="#24a7ad" stroke="none" /><path d="M 16.02,13.73 L 16.02,16.02 L 20.59,16.02 L 20.59,13.73 Z" fill="#24a7ad" stroke="none" /><path d="M 13.73,11.44 L 11.44,11.44 L 11.44,15.98 L 11.41,16.02 L 9.15,16.02 L 9.15,20.59 L 11.44,20.59 L 11.44,16.05 L 11.48,16.02 L 13.73,16.02 Z" fill="#24a7ad" stroke="none" /><path d="M 0.00,11.44 L 0.00,13.73 L 4.58,13.73 L 4.58,11.44 Z" fill="#24a7ad" stroke="none" /><path d="M 22.88,4.58 L 18.31,4.58 L 18.31,6.86 L 20.56,6.86 L 20.59,6.90 L 20.59,9.12 L 20.56,9.15 L 18.31,9.15 L 18.31,11.44 L 20.59,11.44 L 20.59,9.19 L 20.63,9.15 L 22.88,9.15 Z" fill="#24a7ad" stroke="none" /><path d="M 9.15,0.00 L 9.15,2.29 L 11.44,2.29 L 11.44,0.00 Z" fill="#24a7ad" stroke="none" /></svg>