<svg height="32" width="32" viewBox="0 0 32 32"><defs /><path d="M 6.47,30.24 L 6.39,30.24 L 5.40,30.74 L 5.40,32.00 L 5.47,32.00 L 6.47,31.50 Z" fill="#071615" stroke="none" /><path d="M 9.72,28.59 L 8.65,29.13 L 8.65,30.39 L 9.72,29.86 Z" fill="#071615" stroke="none" /><path d="M 7.58,24.34 L 7.50,24.34 L 5.40,25.42 L 5.40,26.76 L 7.58,25.68 Z" fill="#071615" stroke="none" /><path d="M 22.74,22.09 L 18.41,24.23 L 18.41,25.49 L 18.49,25.49 L 22.70,23.39 L 22.74,23.35 Z" fill="#071615" stroke="none" /><path d="M 4.33,19.56 L 4.25,19.56 L 3.25,20.06 L 3.25,21.40 L 4.33,20.86 Z" fill="#071615" stroke="none" /><path d="M 7.58,18.99 L 5.40,20.06 L 5.40,21.40 L 5.47,21.40 L 7.58,20.33 Z" fill="#071615" stroke="none" /><path d="M 22.74,16.77 L 22.66,16.77 L 19.52,18.33 L 19.48,18.37 L 19.48,19.71 L 22.74,18.11 Z" fill="#071615" stroke="none" /><path d="M 4.33,14.24 L 3.25,14.78 L 3.25,16.08 L 3.33,16.08 L 4.33,15.58 Z" fill="#071615" stroke="none" /><path d="M 15.16,14.12 L 10.83,16.27 L 10.79,16.31 L 10.79,17.61 L 10.87,17.61 L 15.16,15.46 Z" fill="#071615" stroke="none" /><path d="M 12.98,9.91 L 10.79,10.99 L 10.79,12.33 L 12.98,11.25 Z" fill="#071615" stroke="none" /><path d="M 23.81,9.80 L 22.78,10.30 L 22.74,10.33 L 22.74,11.37 L 22.66,11.44 L 21.67,11.94 L 21.67,13.28 L 22.70,12.78 L 22.74,12.75 L 22.74,11.67 L 23.81,11.14 Z" fill="#071615" stroke="none" /><path d="M 16.27,8.27 L 15.16,8.80 L 15.16,10.14 L 16.27,9.61 Z" fill="#071615" stroke="none" /><path d="M 20.56,7.20 L 20.48,7.20 L 18.41,8.23 L 18.41,9.57 L 20.56,8.50 Z" fill="#071615" stroke="none" /><path d="M 22.74,6.09 L 21.67,6.62 L 21.67,7.92 L 21.74,7.92 L 22.74,7.43 Z" fill="#071615" stroke="none" /><path d="M 8.65,29.13 L 6.47,30.20 L 6.47,31.46 L 6.55,31.46 L 8.65,30.39 Z" fill="#0c1a19" stroke="none" /><path d="M 8.65,23.81 L 8.57,23.81 L 7.58,24.31 L 7.58,25.65 L 7.66,25.65 L 8.65,25.15 Z" fill="#0c1a19" stroke="none" /><path d="M 3.25,20.10 L 3.18,20.10 L 2.14,20.63 L 2.14,21.93 L 2.22,21.93 L 3.25,21.40 Z" fill="#0c1a19" stroke="none" /><path d="M 19.48,18.37 L 18.41,18.91 L 18.41,20.25 L 19.48,19.71 Z" fill="#0c1a19" stroke="none" /><path d="M 10.79,16.31 L 9.72,16.84 L 9.72,17.88 L 9.65,17.95 L 7.58,18.99 L 7.58,20.33 L 9.72,19.25 L 9.72,18.18 L 10.79,17.65 Z" fill="#0c1a19" stroke="none" /><path d="M 3.25,14.78 L 2.14,15.31 L 2.14,16.65 L 3.25,16.11 Z" fill="#0c1a19" stroke="none" /><path d="M 8.65,13.13 L 6.47,14.20 L 6.47,15.54 L 8.65,14.47 Z" fill="#0c1a19" stroke="none" /><path d="M 19.48,13.05 L 19.41,13.05 L 18.41,13.55 L 18.41,14.89 L 18.49,14.89 L 19.48,14.39 Z" fill="#0c1a19" stroke="none" /><path d="M 17.30,13.05 L 15.16,14.12 L 15.16,15.43 L 15.23,15.43 L 17.30,14.39 Z" fill="#0c1a19" stroke="none" /><path d="M 21.67,11.94 L 20.56,12.48 L 20.56,13.82 L 20.63,13.82 L 21.67,13.28 Z" fill="#0c1a19" stroke="none" /><path d="M 10.79,11.02 L 10.72,11.02 L 9.72,11.52 L 9.72,12.86 L 10.79,12.33 Z" fill="#0c1a19" stroke="none" /><path d="M 15.16,8.84 L 15.08,8.84 L 12.98,9.91 L 12.98,11.22 L 13.05,11.22 L 15.16,10.14 Z" fill="#0c1a19" stroke="none" /><path d="M 17.30,7.77 L 17.22,7.77 L 16.27,8.27 L 16.27,9.57 L 16.34,9.57 L 17.30,9.07 Z" fill="#0c1a19" stroke="none" /><path d="M 21.67,6.62 L 20.56,7.16 L 20.56,8.50 L 21.67,7.96 Z" fill="#0c1a19" stroke="none" /><path d="M 23.81,4.52 L 23.73,4.52 L 22.74,5.01 L 22.74,6.35 L 23.81,5.82 Z" fill="#0c1a19" stroke="none" /><path d="M 9.72,23.27 L 9.65,23.27 L 8.65,23.77 L 8.65,25.11 L 8.73,25.11 L 9.72,24.61 Z" fill="#0c2220" stroke="none" /><path d="M 4.33,22.20 L 3.25,22.74 L 3.25,24.04 L 3.33,24.04 L 4.33,23.54 Z" fill="#0c2220" stroke="none" /><path d="M 6.47,14.24 L 6.39,14.24 L 5.40,14.74 L 5.40,16.08 L 6.47,15.54 Z" fill="#0c2220" stroke="none" /><path d="M 22.74,14.09 L 21.67,14.62 L 21.67,15.96 L 22.74,15.43 Z" fill="#0c2220" stroke="none" /><path d="M 4.33,12.94 L 4.25,12.94 L 3.25,13.44 L 3.25,14.78 L 4.33,14.24 Z" fill="#0c2220" stroke="none" /><path d="M 9.72,12.59 L 8.65,13.13 L 8.65,14.43 L 8.73,14.43 L 9.72,13.93 Z" fill="#0c2220" stroke="none" /><path d="M 20.56,12.52 L 20.48,12.52 L 19.48,13.01 L 19.48,14.35 L 19.56,14.35 L 20.56,13.86 Z" fill="#0c2220" stroke="none" /><path d="M 22.74,4.75 L 21.67,5.28 L 21.67,6.62 L 22.74,6.09 Z" fill="#0c2220" stroke="none" /><path d="M 22.74,2.14 L 21.67,2.68 L 21.67,3.94 L 22.74,3.41 Z" fill="#0c2220" stroke="none" /><path d="M 8.65,27.79 L 6.47,28.86 L 6.47,30.20 L 6.55,30.20 L 8.65,29.13 Z" fill="#122620" stroke="none" /><path d="M 7.58,25.68 L 7.50,25.68 L 6.47,26.22 L 6.47,27.56 L 7.58,27.02 Z" fill="#122620" stroke="none" /><path d="M 4.33,20.86 L 3.25,21.40 L 3.25,22.70 L 3.18,22.78 L 2.14,23.27 L 2.14,24.61 L 3.25,24.08 L 3.25,22.78 L 3.33,22.70 L 4.33,22.20 Z" fill="#122620" stroke="none" /><path d="M 22.74,20.75 L 18.41,22.89 L 18.41,24.23 L 18.49,24.23 L 22.70,22.12 L 22.74,22.09 Z" fill="#122620" stroke="none" /><path d="M 7.58,17.68 L 7.50,17.68 L 5.40,18.76 L 5.40,20.06 L 5.47,20.06 L 7.58,18.99 Z" fill="#122620" stroke="none" /><path d="M 15.16,16.80 L 15.08,16.80 L 11.94,18.37 L 11.90,18.41 L 11.90,19.71 L 11.98,19.71 L 15.12,18.14 L 15.16,18.11 Z" fill="#122620" stroke="none" /><path d="M 17.30,15.73 L 17.22,15.73 L 16.27,16.23 L 16.27,17.53 L 16.34,17.53 L 17.30,17.03 Z" fill="#122620" stroke="none" /><path d="M 8.65,14.47 L 8.57,14.47 L 7.58,14.97 L 7.58,16.31 L 7.66,16.31 L 8.65,15.81 Z" fill="#122620" stroke="none" /><path d="M 22.74,12.75 L 21.67,13.28 L 21.67,14.58 L 21.59,14.66 L 19.48,15.69 L 19.48,17.03 L 18.41,17.57 L 18.41,18.91 L 20.52,17.88 L 20.56,17.84 L 20.56,16.54 L 21.59,16.00 L 21.67,16.04 L 21.67,17.26 L 21.74,17.26 L 22.74,16.77 L 22.74,15.43 L 21.74,15.92 L 21.67,15.89 L 21.67,14.66 L 21.74,14.58 L 22.74,14.09 Z" fill="#122620" stroke="none" /><path d="M 4.33,11.60 L 2.14,12.67 L 2.14,14.01 L 4.33,12.94 Z" fill="#122620" stroke="none" /><path d="M 22.74,10.11 L 22.66,10.11 L 19.52,11.67 L 19.48,11.71 L 19.48,13.01 L 19.56,13.01 L 22.70,11.44 L 22.74,11.41 Z" fill="#122620" stroke="none" /><path d="M 10.79,8.38 L 10.72,8.38 L 9.72,8.88 L 9.72,10.22 L 10.79,9.68 Z" fill="#122620" stroke="none" /><path d="M 21.67,7.96 L 21.59,7.96 L 20.56,8.50 L 20.56,9.84 L 21.67,9.30 Z" fill="#122620" stroke="none" /><path d="M 16.27,6.97 L 16.19,6.97 L 11.90,9.11 L 11.90,10.45 L 16.23,8.31 L 16.27,8.27 Z" fill="#122620" stroke="none" /><path d="M 22.74,3.41 L 20.56,4.48 L 20.56,5.82 L 20.63,5.82 L 22.74,4.75 Z" fill="#122620" stroke="none" /><path d="M 1.07,24.08 L 1.07,24.57 L 1.11,24.61 L 4.25,26.18 L 4.33,26.18 L 4.33,24.88 L 4.29,24.84 L 2.99,24.19 L 2.22,24.57 L 2.11,24.57 L 1.15,24.08 Z" fill="#0b2422" stroke="none" /><path d="M 4.33,19.56 L 4.33,20.90 L 5.32,21.40 L 5.40,21.40 L 5.40,20.06 L 4.40,19.56 Z" fill="#0b2422" stroke="none" /><path d="M 0.00,19.56 L 0.00,20.86 L 2.14,21.93 L 2.14,20.59 L 0.08,19.56 Z" fill="#0b2422" stroke="none" /><path d="M 1.07,17.91 L 1.07,18.99 L 1.15,18.99 L 2.14,18.49 L 2.11,18.41 Z" fill="#0b2422" stroke="none" /><path d="M 14.66,18.33 L 14.70,18.41 L 17.34,19.71 L 17.34,18.37 L 16.04,17.72 L 15.89,17.72 Z" fill="#0b2422" stroke="none" /><path d="M 0.00,14.24 L 0.00,15.58 L 1.07,16.11 L 1.07,14.78 Z" fill="#0b2422" stroke="none" /><path d="M 17.30,13.05 L 17.30,14.39 L 18.41,14.93 L 18.41,13.59 L 17.38,13.05 Z" fill="#0b2422" stroke="none" /><path d="M 14.09,11.44 L 14.09,12.48 L 14.16,12.48 L 15.16,11.98 L 15.16,11.94 L 14.16,11.44 Z" fill="#0b2422" stroke="none" /><path d="M 4.33,30.20 L 4.33,31.50 L 5.32,32.00 L 5.40,32.00 L 5.40,30.74 Z" fill="#132b29" stroke="none" /><path d="M 4.33,24.88 L 4.33,26.22 L 5.32,26.72 L 5.40,26.72 L 5.40,25.42 Z" fill="#132b29" stroke="none" /><path d="M 17.34,23.73 L 17.34,25.00 L 18.41,25.53 L 18.41,24.27 Z" fill="#132b29" stroke="none" /><path d="M 17.34,18.41 L 17.34,19.71 L 18.41,20.25 L 18.41,18.91 L 17.42,18.41 Z" fill="#132b29" stroke="none" /><path d="M 1.07,14.78 L 1.07,16.11 L 2.14,16.65 L 2.14,15.31 Z" fill="#132b29" stroke="none" /><path d="M 4.33,14.20 L 4.33,15.54 L 5.40,16.08 L 5.40,14.74 Z" fill="#132b29" stroke="none" /><path d="M 17.30,7.69 L 17.30,9.03 L 18.33,9.57 L 18.41,9.57 L 18.41,8.23 Z" fill="#132b29" stroke="none" /><path d="M 9.72,27.25 L 8.65,27.79 L 8.65,29.13 L 9.72,28.59 Z" fill="#102c29" stroke="none" /><path d="M 7.58,27.02 L 7.50,27.02 L 5.40,28.10 L 5.40,30.74 L 5.47,30.74 L 6.47,30.24 L 6.47,28.90 L 7.58,28.33 Z" fill="#102c29" stroke="none" /><path d="M 6.47,22.20 L 6.47,23.54 L 6.55,23.54 L 7.54,23.04 L 7.58,23.08 L 7.58,24.31 L 7.66,24.31 L 9.72,23.27 L 9.72,21.93 L 7.66,22.97 L 7.58,22.93 L 7.58,21.67 Z" fill="#102c29" stroke="none" /><path d="M 22.74,19.44 L 22.66,19.44 L 19.52,21.01 L 19.48,21.05 L 19.48,22.35 L 19.56,22.35 L 22.70,20.78 L 22.74,20.75 Z" fill="#102c29" stroke="none" /><path d="M 10.72,17.65 L 9.72,18.14 L 9.72,19.48 L 9.80,19.48 L 10.76,18.99 L 10.79,19.02 L 10.79,20.29 L 10.83,20.29 L 11.90,19.75 L 11.90,18.41 L 10.83,18.95 L 10.79,18.91 L 10.79,17.65 Z" fill="#102c29" stroke="none" /><path d="M 6.47,16.88 L 5.40,17.42 L 5.40,18.76 L 6.47,18.22 Z" fill="#102c29" stroke="none" /><path d="M 16.27,16.23 L 15.16,16.77 L 15.16,18.11 L 16.27,17.57 Z" fill="#102c29" stroke="none" /><path d="M 19.48,15.73 L 19.41,15.73 L 18.41,16.23 L 18.41,17.57 L 18.49,17.57 L 19.48,17.07 Z" fill="#102c29" stroke="none" /><path d="M 9.72,15.27 L 9.65,15.27 L 8.65,15.77 L 8.65,17.11 L 7.58,17.65 L 7.58,18.99 L 8.65,18.45 L 8.65,17.15 L 9.72,16.61 Z" fill="#102c29" stroke="none" /><path d="M 6.47,12.90 L 6.39,12.90 L 5.40,13.40 L 5.40,14.74 L 5.47,14.74 L 6.47,14.24 Z" fill="#102c29" stroke="none" /><path d="M 23.81,12.48 L 23.73,12.48 L 22.74,12.98 L 22.74,14.32 L 23.81,13.78 Z" fill="#102c29" stroke="none" /><path d="M 19.48,11.71 L 18.41,12.25 L 18.41,13.55 L 18.49,13.55 L 19.48,13.05 Z" fill="#102c29" stroke="none" /><path d="M 6.47,10.26 L 6.47,11.52 L 6.55,11.52 L 7.54,11.02 L 7.58,11.06 L 7.58,12.33 L 9.72,11.25 L 9.72,9.91 L 7.66,10.95 L 7.58,10.91 L 7.58,9.72 Z" fill="#102c29" stroke="none" /><path d="M 22.74,8.77 L 22.66,8.77 L 21.67,9.26 L 21.67,10.60 L 21.74,10.60 L 22.74,10.11 Z" fill="#102c29" stroke="none" /><path d="M 20.56,8.50 L 18.41,9.57 L 18.41,10.91 L 20.56,9.84 Z" fill="#102c29" stroke="none" /><path d="M 11.90,7.81 L 10.79,8.34 L 10.79,10.99 L 10.87,10.99 L 11.90,10.45 Z" fill="#102c29" stroke="none" /><path d="M 19.48,6.39 L 19.41,6.39 L 18.41,6.89 L 18.41,8.23 L 18.49,8.23 L 19.48,7.73 Z" fill="#102c29" stroke="none" /><path d="M 17.30,5.13 L 17.22,5.13 L 15.16,6.16 L 15.16,7.50 L 16.23,6.97 L 16.27,7.00 L 16.27,8.27 L 17.30,7.77 Z" fill="#102c29" stroke="none" /><path d="M 8.65,25.15 L 8.57,25.15 L 7.58,25.65 L 7.58,28.33 L 9.72,27.25 L 9.72,25.95 L 9.65,25.95 L 8.69,26.45 L 8.65,26.41 Z" fill="#163433" stroke="none" /><path d="M 3.25,21.40 L 2.14,21.93 L 2.14,23.27 L 2.22,23.27 L 3.25,22.74 Z" fill="#163433" stroke="none" /><path d="M 20.56,19.18 L 19.48,19.71 L 19.48,21.01 L 19.41,21.09 L 18.41,21.59 L 18.41,22.89 L 18.49,22.89 L 19.48,22.39 L 19.48,21.09 L 19.56,21.01 L 20.56,20.52 Z" fill="#163433" stroke="none" /><path d="M 10.79,18.99 L 10.72,18.99 L 9.76,19.48 L 9.72,19.44 L 9.72,19.25 L 9.68,19.25 L 8.65,19.79 L 8.65,21.09 L 8.57,21.17 L 7.58,21.67 L 7.58,22.97 L 7.50,23.04 L 6.51,23.54 L 6.47,23.50 L 6.47,20.90 L 6.39,20.90 L 5.40,21.40 L 5.40,24.08 L 5.47,24.08 L 6.43,23.58 L 6.47,23.62 L 6.47,24.88 L 7.58,24.34 L 7.58,23.04 L 7.66,22.97 L 9.72,21.93 L 9.72,20.86 L 9.80,20.78 L 10.79,20.29 Z" fill="#163433" stroke="none" /><path d="M 21.67,15.96 L 20.56,16.50 L 20.56,17.84 L 21.67,17.30 Z" fill="#163433" stroke="none" /><path d="M 5.40,16.08 L 5.40,17.42 L 6.43,16.92 L 6.47,16.96 L 6.47,18.22 L 8.61,17.15 L 8.65,17.19 L 8.65,18.45 L 9.72,17.91 L 9.72,16.61 L 9.65,16.61 L 8.69,17.11 L 8.65,17.07 L 8.65,15.81 L 8.57,15.81 L 6.55,16.84 L 6.47,16.80 L 6.47,15.54 Z" fill="#163433" stroke="none" /><path d="M 3.25,13.47 L 3.18,13.47 L 2.14,14.01 L 2.14,15.31 L 2.22,15.31 L 3.25,14.78 Z" fill="#163433" stroke="none" /><path d="M 21.67,13.28 L 20.56,13.82 L 20.56,15.16 L 20.63,15.16 L 21.67,14.62 Z" fill="#163433" stroke="none" /><path d="M 10.79,9.68 L 9.72,10.22 L 9.72,11.22 L 9.65,11.29 L 7.66,12.29 L 7.58,12.25 L 7.58,11.02 L 7.66,10.95 L 8.65,10.45 L 8.65,9.19 L 7.58,9.72 L 7.58,10.95 L 7.50,11.02 L 6.51,11.52 L 6.47,11.48 L 6.47,10.30 L 6.39,10.30 L 5.40,10.79 L 5.40,13.40 L 5.47,13.40 L 6.43,12.90 L 6.47,12.94 L 6.47,14.20 L 6.55,14.20 L 9.68,12.63 L 9.72,12.59 L 9.72,11.56 L 10.79,11.02 Z" fill="#163433" stroke="none" /><path d="M 22.74,7.43 L 22.66,7.43 L 21.67,7.92 L 21.67,9.26 L 21.63,9.30 L 18.41,10.91 L 18.41,12.25 L 21.67,10.64 L 21.67,9.30 L 22.74,8.77 Z" fill="#163433" stroke="none" /><path d="M 15.16,6.20 L 15.08,6.20 L 11.94,7.77 L 11.90,7.81 L 11.90,9.11 L 11.98,9.11 L 15.12,7.54 L 15.16,7.50 Z" fill="#163433" stroke="none" /><path d="M 21.67,2.68 L 20.56,3.22 L 20.56,4.48 L 20.52,4.52 L 18.41,5.55 L 18.41,6.89 L 18.49,6.89 L 19.44,6.39 L 19.48,6.43 L 19.48,7.69 L 19.56,7.69 L 21.67,6.62 L 21.67,5.28 L 20.59,5.82 L 20.56,5.78 L 20.56,4.52 L 21.67,3.94 Z" fill="#163433" stroke="none" /><path d="M 23.81,1.88 L 23.73,1.88 L 22.74,2.37 L 22.74,5.01 L 22.81,5.01 L 23.81,4.52 Z" fill="#163433" stroke="none" /><path d="M 9.72,14.66 L 9.72,14.70 L 11.87,15.77 L 12.98,15.23 L 12.98,15.20 L 10.83,14.12 Z" fill="#113734" stroke="none" /><path d="M 14.09,12.48 L 14.09,12.52 L 16.23,13.59 L 17.30,13.05 L 17.30,13.01 L 15.23,11.98 L 15.08,11.98 Z" fill="#113734" stroke="none" /><path d="M 6.51,8.08 L 6.51,8.11 L 8.65,9.19 L 9.72,8.65 L 9.72,8.61 L 7.66,7.58 L 7.50,7.58 Z" fill="#113734" stroke="none" /><path d="M 9.72,6.70 L 9.72,6.74 L 11.87,7.81 L 11.94,7.81 L 12.98,7.27 L 12.98,7.23 L 10.83,6.16 Z" fill="#113734" stroke="none" /><path d="M 14.09,4.52 L 14.09,4.56 L 16.23,5.63 L 16.31,5.63 L 17.30,5.13 L 17.26,5.05 L 15.20,4.02 L 15.08,4.02 Z" fill="#113734" stroke="none" /><path d="M 2.14,25.11 L 2.14,27.71 L 2.07,27.75 L 1.07,27.25 L 1.07,28.59 L 2.07,29.09 L 2.14,29.09 L 2.14,27.87 L 2.22,27.83 L 4.25,28.86 L 4.33,28.86 L 4.33,27.52 L 3.25,26.99 L 3.25,25.65 Z" fill="#1d3d34" stroke="none" /><path d="M 2.99,24.19 L 2.99,24.23 L 3.25,24.34 L 3.25,24.08 L 3.18,24.08 Z" fill="#1d3d34" stroke="none" /><path d="M 4.33,22.20 L 4.33,23.54 L 5.40,24.08 L 5.40,22.74 Z" fill="#1d3d34" stroke="none" /><path d="M 0.00,22.20 L 0.00,23.54 L 2.07,24.57 L 2.14,24.57 L 2.14,23.27 Z" fill="#1d3d34" stroke="none" /><path d="M 15.16,18.64 L 15.16,21.24 L 15.12,21.28 L 14.16,20.78 L 14.09,20.78 L 14.09,22.12 L 15.08,22.62 L 15.16,22.62 L 15.16,21.36 L 15.20,21.32 L 17.34,22.39 L 17.34,21.05 L 16.23,20.48 L 16.23,19.14 L 15.23,18.64 Z" fill="#1d3d34" stroke="none" /><path d="M 16.23,17.57 L 15.96,17.68 L 15.96,17.72 L 16.23,17.84 Z" fill="#1d3d34" stroke="none" /><path d="M 3.02,16.19 L 3.02,16.23 L 3.25,16.34 L 3.25,17.68 L 4.25,18.18 L 4.33,18.18 L 4.33,16.84 L 3.29,16.34 L 3.25,16.31 L 3.25,16.11 L 3.18,16.11 Z" fill="#1d3d34" stroke="none" /><path d="M 1.07,16.11 L 1.07,16.57 L 1.11,16.61 L 2.14,17.11 L 2.14,16.65 L 2.11,16.61 Z" fill="#1d3d34" stroke="none" /><path d="M 17.30,15.69 L 17.30,17.03 L 18.33,17.57 L 18.41,17.57 L 18.41,16.23 Z" fill="#1d3d34" stroke="none" /><path d="M 0.00,12.94 L 0.00,14.24 L 2.14,15.31 L 2.14,13.97 L 0.08,12.94 Z" fill="#1d3d34" stroke="none" /><path d="M 4.33,12.86 L 4.33,14.20 L 5.40,14.74 L 5.40,13.40 Z" fill="#1d3d34" stroke="none" /><path d="M 15.16,10.14 L 14.74,10.33 L 14.70,10.41 L 15.08,10.60 L 15.16,10.60 Z" fill="#1d3d34" stroke="none" /><path d="M 16.04,9.68 L 16.04,9.76 L 16.15,9.80 L 16.23,9.88 L 16.23,11.18 L 17.34,11.71 L 17.34,10.37 L 16.31,9.88 L 16.23,9.80 L 16.23,9.61 Z" fill="#1d3d34" stroke="none" /><path d="M 17.30,6.39 L 17.30,7.69 L 18.33,8.23 L 18.41,8.23 L 18.41,6.93 L 17.38,6.39 Z" fill="#1d3d34" stroke="none" /><path d="M 1.07,28.59 L 1.07,29.86 L 1.11,29.89 L 4.25,31.46 L 4.33,31.46 L 4.33,30.20 L 3.33,29.70 L 3.25,29.63 L 3.25,28.33 L 2.14,27.79 L 2.14,29.05 L 2.11,29.09 L 1.15,28.59 Z" fill="#143835" stroke="none" /><path d="M 14.09,22.12 L 14.09,23.39 L 17.34,25.00 L 17.34,23.73 L 16.23,23.16 L 16.23,21.82 L 15.23,21.32 L 15.16,21.32 L 15.16,22.58 L 15.12,22.62 L 14.16,22.12 Z" fill="#143835" stroke="none" /><path d="M 2.95,16.23 L 2.14,16.65 L 2.14,18.45 L 3.18,18.99 L 3.25,18.99 L 3.25,16.31 L 3.10,16.23 Z" fill="#143835" stroke="none" /><path d="M 15.96,9.72 L 15.16,10.14 L 15.16,11.98 L 16.15,12.48 L 16.23,12.48 L 16.23,9.84 L 16.04,9.72 Z" fill="#143835" stroke="none" /><path d="M 6.47,26.22 L 5.40,26.76 L 5.40,28.10 L 6.47,27.56 Z" fill="#173837" stroke="none" /><path d="M 9.72,24.61 L 9.65,24.61 L 8.65,25.11 L 8.65,26.45 L 8.73,26.45 L 9.72,25.95 Z" fill="#173837" stroke="none" /><path d="M 6.47,23.58 L 6.39,23.58 L 5.40,24.08 L 5.40,25.42 L 6.47,24.88 Z" fill="#173837" stroke="none" /><path d="M 8.65,19.79 L 6.47,20.86 L 6.47,22.20 L 6.55,22.20 L 8.65,21.13 Z" fill="#173837" stroke="none" /><path d="M 19.48,19.71 L 18.41,20.25 L 18.41,21.59 L 19.48,21.05 Z" fill="#173837" stroke="none" /><path d="M 22.74,18.11 L 22.66,18.11 L 20.56,19.18 L 20.56,20.52 L 22.74,19.44 Z" fill="#173837" stroke="none" /><path d="M 7.58,15.00 L 7.50,15.00 L 6.47,15.54 L 6.47,16.88 L 7.58,16.34 Z" fill="#173837" stroke="none" /><path d="M 17.30,14.39 L 17.22,14.39 L 10.79,17.61 L 10.79,18.95 L 10.87,18.95 L 17.30,15.73 Z" fill="#173837" stroke="none" /><path d="M 9.72,13.93 L 9.65,13.93 L 8.65,14.43 L 8.65,15.77 L 8.73,15.77 L 9.72,15.27 Z" fill="#173837" stroke="none" /><path d="M 20.56,13.86 L 20.48,13.86 L 18.41,14.89 L 18.41,16.23 L 18.49,16.23 L 20.56,15.20 Z" fill="#173837" stroke="none" /><path d="M 23.81,11.14 L 23.73,11.14 L 22.74,11.64 L 22.74,12.98 L 22.81,12.98 L 23.81,12.48 Z" fill="#173837" stroke="none" /><path d="M 9.72,8.65 L 8.65,9.19 L 8.65,10.45 L 9.72,9.91 Z" fill="#173837" stroke="none" /><path d="M 20.56,3.25 L 20.48,3.25 L 18.41,4.29 L 18.41,5.55 L 18.49,5.55 L 20.56,4.52 Z" fill="#173837" stroke="none" /><path d="M 4.36,7.00 L 4.36,7.04 L 6.43,8.08 L 6.58,8.08 L 7.58,7.58 L 7.58,7.54 L 5.44,6.47 Z" fill="#1e423f" stroke="none" /><path d="M 17.34,0.50 L 17.34,0.54 L 18.33,1.03 L 18.49,1.03 L 19.48,0.54 L 19.48,0.50 L 18.49,0.00 L 18.33,0.00 Z" fill="#1e423f" stroke="none" /><path d="M 1.07,25.91 L 1.07,27.25 L 2.14,27.79 L 2.14,26.45 Z" fill="#1a4842" stroke="none" /><path d="M 3.25,24.04 L 3.25,24.34 L 3.29,24.38 L 5.40,25.42 L 5.40,24.08 L 5.36,24.04 L 4.36,23.54 L 4.25,23.54 Z" fill="#1a4842" stroke="none" /><path d="M 14.09,19.44 L 14.09,20.78 L 15.08,21.28 L 15.16,21.28 L 15.16,19.94 L 14.16,19.44 Z" fill="#1a4842" stroke="none" /><path d="M 16.23,17.57 L 16.23,17.84 L 16.27,17.88 L 18.33,18.91 L 18.41,18.91 L 18.41,17.57 L 17.34,17.03 L 17.26,17.03 Z" fill="#1a4842" stroke="none" /><path d="M 4.33,16.88 L 4.33,18.22 L 5.32,18.72 L 5.40,18.72 L 5.40,17.38 L 4.40,16.88 Z" fill="#1a4842" stroke="none" /><path d="M 1.07,16.57 L 1.07,17.91 L 2.14,18.45 L 2.14,17.11 Z" fill="#1a4842" stroke="none" /><path d="M 17.34,10.41 L 17.34,11.71 L 18.41,12.25 L 18.41,10.91 L 17.42,10.41 Z" fill="#1a4842" stroke="none" /><path d="M 14.12,10.64 L 14.09,10.68 L 14.09,11.44 L 15.08,11.94 L 15.16,11.94 L 15.16,10.60 L 14.66,10.37 Z" fill="#1a4842" stroke="none" /><path d="M 1.07,9.91 L 1.07,11.02 L 1.15,11.02 L 2.14,10.53 L 2.14,10.45 L 2.11,10.41 Z" fill="#1a4842" stroke="none" /><path d="M 14.09,3.44 L 14.09,4.52 L 14.16,4.52 L 15.16,4.02 L 15.16,3.94 L 14.16,3.44 Z" fill="#1a4842" stroke="none" /><path d="M 11.94,13.55 L 11.94,13.63 L 14.01,14.66 L 14.12,14.66 L 16.23,13.59 L 16.23,13.55 L 15.23,13.05 L 15.12,13.05 L 14.09,13.59 L 13.05,13.05 L 12.94,13.05 Z" fill="#2d5e50" stroke="none" /><path d="M 7.81,7.66 L 7.81,7.69 L 8.88,8.23 L 9.68,7.85 L 9.68,7.77 L 8.69,7.27 L 8.57,7.27 Z" fill="#2d5e50" stroke="none" /><path d="M 3.25,7.54 L 3.25,7.58 L 6.47,9.19 L 6.55,9.19 L 7.58,8.65 L 7.58,8.61 L 4.36,7.00 Z" fill="#2d5e50" stroke="none" /><path d="M 11.94,5.59 L 11.94,5.67 L 14.01,6.70 L 14.16,6.70 L 16.23,5.67 L 16.23,5.59 L 15.23,5.09 L 15.12,5.09 L 14.09,5.63 L 13.05,5.09 L 12.94,5.09 Z" fill="#2d5e50" stroke="none" /><path d="M 16.27,2.11 L 16.27,2.18 L 17.26,2.68 L 17.19,2.76 L 16.31,3.18 L 16.27,3.25 L 17.26,3.75 L 17.42,3.75 L 19.44,2.72 L 19.56,2.72 L 20.52,3.22 L 20.63,3.22 L 21.63,2.72 L 21.63,2.64 L 20.63,2.14 L 20.56,2.14 L 19.48,2.68 L 17.38,1.61 L 17.26,1.61 Z" fill="#2d5e50" stroke="none" /><path d="M 1.07,18.99 L 1.07,19.02 L 2.03,19.48 L 2.11,19.56 L 1.11,20.06 L 1.11,20.10 L 2.14,20.63 L 4.33,19.56 L 4.33,19.52 L 2.18,18.45 Z" fill="#1f5651" stroke="none" /><path d="M 11.87,15.73 L 10.87,15.23 L 10.76,15.23 L 9.76,15.73 L 9.72,15.77 L 9.72,16.84 L 11.83,15.81 Z" fill="#1f5651" stroke="none" /><path d="M 1.07,11.02 L 1.07,11.06 L 2.03,11.52 L 2.11,11.60 L 1.11,12.10 L 1.11,12.17 L 2.11,12.67 L 2.22,12.67 L 4.29,11.64 L 4.29,11.56 L 2.22,10.53 L 2.07,10.53 Z" fill="#1f5651" stroke="none" /><path d="M 11.87,7.77 L 10.87,7.27 L 10.76,7.27 L 8.92,8.19 L 8.92,8.23 L 9.68,8.61 L 9.72,8.65 L 9.72,8.88 L 9.80,8.88 L 11.87,7.85 Z" fill="#1f5651" stroke="none" /><path d="M 18.41,1.03 L 18.41,1.07 L 19.37,1.53 L 19.44,1.61 L 18.45,2.11 L 18.45,2.18 L 19.44,2.68 L 19.56,2.68 L 20.59,2.14 L 21.63,2.68 L 21.70,2.68 L 22.70,2.18 L 22.70,2.11 L 19.56,0.54 L 19.41,0.54 Z" fill="#1f5651" stroke="none" /><path d="M 4.33,27.56 L 4.33,28.82 L 4.29,28.86 L 3.33,28.36 L 3.25,28.36 L 3.25,29.67 L 5.40,30.74 L 5.40,28.06 L 4.40,27.56 Z" fill="#255453" stroke="none" /><path d="M 1.07,24.57 L 1.07,25.91 L 2.14,26.45 L 2.14,25.11 Z" fill="#255453" stroke="none" /><path d="M 17.34,21.05 L 17.34,22.32 L 17.30,22.35 L 16.31,21.86 L 16.23,21.86 L 16.23,23.20 L 18.41,24.27 L 18.41,21.59 Z" fill="#255453" stroke="none" /><path d="M 14.12,18.60 L 14.09,18.64 L 14.09,19.44 L 15.08,19.94 L 15.16,19.94 L 15.16,18.60 L 14.70,18.37 L 14.58,18.37 Z" fill="#255453" stroke="none" /><path d="M 3.25,17.68 L 3.25,19.02 L 5.32,20.06 L 5.40,20.06 L 5.40,18.72 L 3.33,17.68 Z" fill="#255453" stroke="none" /><path d="M 0.00,11.60 L 0.00,12.94 L 2.07,13.97 L 2.14,13.97 L 2.14,12.67 Z" fill="#255453" stroke="none" /><path d="M 16.23,11.18 L 16.23,12.52 L 18.41,13.59 L 18.41,12.25 L 16.31,11.18 Z" fill="#255453" stroke="none" /><path d="M 2.14,10.45 L 2.14,10.53 L 4.25,11.56 L 4.33,11.64 L 4.33,12.86 L 5.40,13.40 L 5.40,12.06 L 4.33,11.52 L 4.33,10.26 L 4.29,10.22 L 3.25,9.72 L 3.25,10.95 L 3.22,10.99 Z" fill="#255453" stroke="none" /><path d="M 15.16,3.98 L 15.20,4.06 L 17.22,5.05 L 17.30,5.13 L 17.30,6.39 L 18.41,6.93 L 18.41,5.59 L 17.42,5.09 L 17.34,5.01 L 17.34,3.75 L 16.23,3.22 L 16.23,4.44 L 16.19,4.48 L 15.23,3.98 Z" fill="#255453" stroke="none" /><path d="M 3.25,25.68 L 3.25,27.02 L 5.32,28.06 L 5.40,28.06 L 5.40,26.72 L 3.33,25.68 Z" fill="#255b5a" stroke="none" /><path d="M 4.33,20.90 L 4.33,22.20 L 5.40,22.74 L 5.40,21.40 L 4.40,20.90 Z" fill="#255b5a" stroke="none" /><path d="M 0.00,20.86 L 0.00,22.20 L 2.14,23.27 L 2.14,21.93 Z" fill="#255b5a" stroke="none" /><path d="M 16.23,19.18 L 16.23,20.52 L 18.41,21.59 L 18.41,20.25 L 16.31,19.18 Z" fill="#255b5a" stroke="none" /><path d="M 3.25,16.08 L 3.25,16.34 L 5.32,17.38 L 5.40,17.38 L 5.40,16.08 L 5.36,16.04 L 4.33,15.54 Z" fill="#255b5a" stroke="none" /><path d="M 17.30,14.39 L 17.30,15.69 L 18.33,16.23 L 18.41,16.23 L 18.41,14.93 L 17.38,14.39 Z" fill="#255b5a" stroke="none" /><path d="M 4.33,10.26 L 4.33,11.56 L 5.32,12.06 L 5.40,12.06 L 5.40,10.79 Z" fill="#255b5a" stroke="none" /><path d="M 16.23,9.61 L 16.23,9.84 L 16.27,9.88 L 18.33,10.91 L 18.41,10.91 L 18.41,9.57 L 17.30,9.03 L 17.22,9.11 Z" fill="#255b5a" stroke="none" /><path d="M 1.07,8.65 L 1.07,9.91 L 3.18,10.99 L 3.25,10.99 L 3.25,9.72 L 1.15,8.65 Z" fill="#255b5a" stroke="none" /><path d="M 17.34,3.79 L 17.34,5.05 L 18.41,5.59 L 18.41,4.29 L 17.42,3.79 Z" fill="#255b5a" stroke="none" /><path d="M 14.09,2.14 L 14.09,3.44 L 16.15,4.48 L 16.23,4.48 L 16.23,3.22 Z" fill="#255b5a" stroke="none" /><path d="M 13.01,13.01 L 13.05,13.09 L 14.05,13.59 L 14.12,13.59 L 15.16,13.05 L 15.16,13.01 L 14.16,12.52 L 14.01,12.52 Z" fill="#276f66" stroke="none" /><path d="M 8.65,9.15 L 7.66,8.65 L 7.54,8.65 L 5.47,9.68 L 5.44,9.76 L 6.43,10.26 L 6.55,10.26 L 8.61,9.22 Z" fill="#276f66" stroke="none" /><path d="M 13.01,5.05 L 13.05,5.13 L 14.05,5.63 L 14.12,5.63 L 15.16,5.09 L 15.16,5.05 L 14.16,4.56 L 14.01,4.56 Z" fill="#276f66" stroke="none" /><path d="M 20.56,3.22 L 19.48,2.68 L 18.41,3.22 L 18.41,3.25 L 19.41,3.75 L 19.56,3.75 L 20.56,3.25 Z" fill="#276f66" stroke="none" /><path d="M 0.00,19.52 L 0.00,19.56 L 1.07,20.10 L 2.14,19.56 L 2.14,19.52 L 1.15,19.02 L 1.00,19.02 Z" fill="#388180" stroke="none" /><path d="M 9.72,14.70 L 9.72,15.77 L 10.79,15.23 L 10.79,15.20 L 9.80,14.70 Z" fill="#388180" stroke="none" /><path d="M 0.00,11.56 L 0.04,11.64 L 1.03,12.13 L 1.11,12.13 L 2.14,11.60 L 2.14,11.56 L 1.15,11.06 L 1.00,11.06 Z" fill="#388180" stroke="none" /><path d="M 22.74,9.26 L 22.74,10.33 L 23.77,9.84 L 23.77,9.76 Z" fill="#388180" stroke="none" /><path d="M 2.18,8.08 L 2.22,8.15 L 3.10,8.57 L 3.18,8.65 L 2.18,9.15 L 2.18,9.19 L 3.22,9.72 L 3.29,9.72 L 4.33,9.19 L 5.36,9.72 L 5.47,9.72 L 6.47,9.22 L 6.47,9.15 L 3.33,7.58 L 3.18,7.58 Z" fill="#388180" stroke="none" /><path d="M 8.65,7.23 L 8.69,7.31 L 9.68,7.81 L 9.76,7.81 L 10.79,7.27 L 10.79,7.23 L 9.80,6.74 L 9.65,6.74 Z" fill="#388180" stroke="none" /><path d="M 17.34,3.75 L 17.34,3.79 L 18.33,4.29 L 18.49,4.29 L 19.48,3.79 L 19.48,3.75 L 18.49,3.25 L 18.33,3.25 Z" fill="#388180" stroke="none" /><path d="M 20.82,1.15 L 20.86,1.22 L 22.66,2.11 L 22.74,2.18 L 22.74,2.37 L 22.81,2.37 L 23.81,1.88 L 23.77,1.80 L 21.70,0.77 L 21.59,0.77 Z" fill="#388180" stroke="none" /><path d="M 15.20,1.57 L 15.20,1.65 L 16.19,2.14 L 16.27,2.14 L 17.30,1.61 L 18.37,2.14 L 18.45,2.14 L 19.48,1.61 L 19.48,1.57 L 17.42,0.54 L 17.26,0.54 Z" fill="#388180" stroke="none" /><path d="M 10.83,14.12 L 10.83,14.16 L 12.90,15.20 L 13.05,15.20 L 14.05,14.70 L 14.01,14.62 L 11.94,13.59 L 11.87,13.59 Z" fill="#398c8a" stroke="none" /><path d="M 3.29,9.68 L 3.29,9.76 L 5.36,10.79 L 5.47,10.79 L 6.47,10.30 L 6.43,10.22 L 4.36,9.19 L 4.29,9.19 Z" fill="#398c8a" stroke="none" /><path d="M 1.11,8.61 L 1.15,8.69 L 2.14,9.19 L 3.22,8.65 L 3.22,8.61 L 2.22,8.11 L 2.11,8.11 Z" fill="#398c8a" stroke="none" /><path d="M 10.83,6.16 L 10.83,6.20 L 12.98,7.27 L 14.09,6.74 L 14.09,6.70 L 11.94,5.63 L 11.87,5.63 Z" fill="#398c8a" stroke="none" /><path d="M 14.12,2.11 L 14.12,2.18 L 16.19,3.22 L 16.31,3.22 L 17.30,2.72 L 17.26,2.64 L 15.20,1.61 L 15.12,1.61 Z" fill="#398c8a" stroke="none" /></svg>