<svg height="32" width="32" viewBox="0 0 32 32"><defs /><path d="M 25.16,22.22 L 17.97,25.80 L 17.97,28.02 L 25.16,24.45 Z" fill="#000000" stroke="none" /><path d="M 19.80,20.51 L 19.72,20.51 L 16.18,22.30 L 16.18,24.49 L 16.26,24.49 L 19.80,22.70 Z" fill="#000000" stroke="none" /><path d="M 26.99,16.89 L 23.37,18.68 L 23.37,20.91 L 26.99,19.12 Z" fill="#000000" stroke="none" /><path d="M 1.83,21.31 L 1.79,21.31 L 1.79,23.45 L 1.75,23.49 L 0.00,22.62 L 0.00,24.84 L 1.75,25.72 L 1.79,25.72 L 1.79,23.57 L 1.83,23.53 L 3.54,24.41 L 3.62,24.41 L 3.62,22.22 Z" fill="#090909" stroke="none" /><path d="M 17.97,25.84 L 17.89,25.84 L 16.18,26.71 L 16.18,28.90 L 16.26,28.90 L 17.97,28.02 Z" fill="#0c0c0c" stroke="none" /><path d="M 26.99,21.31 L 25.16,22.22 L 25.16,24.41 L 25.24,24.41 L 26.99,23.53 Z" fill="#0c0c0c" stroke="none" /><path d="M 19.76,11.69 L 17.97,12.60 L 17.97,14.79 L 18.05,14.79 L 19.76,13.91 L 19.80,13.95 L 19.80,16.10 L 19.84,16.10 L 21.59,15.22 L 21.59,13.00 L 19.84,13.87 L 19.80,13.83 L 19.80,11.69 Z" fill="#0c0c0c" stroke="none" /><path d="M 26.99,8.11 L 26.91,8.11 L 25.16,8.98 L 25.16,11.21 L 26.99,10.30 Z" fill="#0c0c0c" stroke="none" /><path d="M 8.98,24.92 L 8.98,27.11 L 10.81,28.02 L 10.81,25.80 L 9.06,24.92 Z" fill="#0d0d0d" stroke="none" /><path d="M 7.20,19.60 L 7.20,21.82 L 8.98,22.70 L 8.98,20.47 Z" fill="#0d0d0d" stroke="none" /><path d="M 0.00,18.21 L 0.00,22.62 L 1.79,23.53 L 1.79,25.72 L 3.62,26.63 L 3.62,24.49 L 3.66,24.45 L 5.41,25.32 L 5.41,23.10 L 3.62,22.22 L 3.62,24.37 L 3.58,24.41 L 1.83,23.53 L 1.79,23.49 L 1.79,19.08 Z" fill="#0d0d0d" stroke="none" /><path d="M 3.62,17.81 L 3.62,20.03 L 5.41,20.91 L 5.41,18.68 Z" fill="#0d0d0d" stroke="none" /><path d="M 16.18,26.71 L 14.39,27.59 L 14.39,29.81 L 16.18,28.94 Z" fill="#101010" stroke="none" /><path d="M 21.59,26.24 L 21.51,26.24 L 17.97,28.02 L 17.97,30.21 L 18.05,30.21 L 21.59,28.42 Z" fill="#101010" stroke="none" /><path d="M 21.59,21.82 L 21.51,21.82 L 19.80,22.70 L 19.80,24.88 L 19.88,24.88 L 21.59,24.01 Z" fill="#101010" stroke="none" /><path d="M 26.91,19.12 L 25.16,20.00 L 25.16,22.22 L 26.95,21.35 L 26.99,21.39 L 26.99,23.49 L 27.07,23.49 L 28.78,22.62 L 28.78,20.43 L 28.70,20.43 L 27.03,21.27 L 26.99,21.23 L 26.99,19.12 Z" fill="#101010" stroke="none" /><path d="M 19.80,16.10 L 17.97,17.01 L 17.97,19.20 L 16.26,20.07 L 16.18,20.03 L 16.18,17.93 L 16.10,17.93 L 14.43,18.76 L 14.39,18.80 L 14.39,20.99 L 14.47,20.99 L 16.14,20.15 L 16.18,20.19 L 16.18,22.30 L 17.97,21.43 L 17.97,19.24 L 19.80,18.33 Z" fill="#101010" stroke="none" /><path d="M 25.16,13.44 L 25.08,13.44 L 21.59,15.19 L 21.59,17.41 L 25.16,15.62 Z" fill="#101010" stroke="none" /><path d="M 28.78,11.61 L 26.99,12.48 L 26.99,14.71 L 28.78,13.83 Z" fill="#101010" stroke="none" /><path d="M 25.16,9.02 L 25.08,9.02 L 23.37,9.90 L 23.37,12.08 L 23.45,12.08 L 25.16,11.21 Z" fill="#101010" stroke="none" /><path d="M 5.41,14.31 L 5.41,16.54 L 10.73,19.20 L 10.81,19.20 L 10.81,17.01 L 10.77,16.97 Z" fill="#111111" stroke="none" /><path d="M 0.00,13.83 L 0.00,18.21 L 1.79,19.12 L 1.79,21.31 L 5.37,23.10 L 5.41,23.14 L 5.41,25.32 L 7.12,26.20 L 7.20,26.20 L 7.20,24.01 L 5.41,23.10 L 5.41,20.99 L 5.45,20.95 L 7.12,21.78 L 7.20,21.78 L 7.20,19.60 L 5.49,18.72 L 5.41,18.72 L 5.41,20.83 L 5.37,20.87 L 3.66,20.03 L 3.62,20.00 L 3.62,17.81 L 1.87,16.93 L 1.79,16.85 L 1.79,14.71 L 0.08,13.83 Z" fill="#111111" stroke="none" /><path d="M 8.98,22.70 L 8.98,24.92 L 10.81,25.84 L 10.81,28.02 L 12.52,28.90 L 12.60,28.90 L 12.60,26.71 L 10.81,25.80 L 10.81,23.61 Z" fill="#141414" stroke="none" /><path d="M 10.81,17.01 L 10.81,19.24 L 14.31,20.99 L 14.39,20.99 L 14.39,18.80 Z" fill="#141414" stroke="none" /><path d="M 0.00,7.20 L 0.00,13.83 L 5.33,16.50 L 5.41,16.50 L 5.41,14.31 L 3.62,13.40 L 3.62,11.29 L 3.70,11.25 L 10.73,14.79 L 10.81,14.79 L 10.81,12.60 L 10.77,12.56 Z" fill="#141414" stroke="none" /><path d="M 17.97,28.02 L 16.18,28.90 L 16.18,31.13 L 17.97,30.25 Z" fill="#151515" stroke="none" /><path d="M 23.37,25.32 L 21.59,26.20 L 21.59,28.42 L 23.37,27.55 Z" fill="#151515" stroke="none" /><path d="M 28.78,16.02 L 28.70,16.02 L 26.99,16.89 L 26.99,19.08 L 27.07,19.08 L 28.78,18.21 Z" fill="#151515" stroke="none" /><path d="M 28.78,7.20 L 26.99,8.07 L 26.99,10.26 L 26.91,10.34 L 23.41,12.08 L 23.37,12.04 L 23.37,9.90 L 23.33,9.90 L 19.80,11.69 L 19.80,13.87 L 19.76,13.91 L 18.01,14.79 L 17.97,14.75 L 17.97,12.60 L 17.93,12.60 L 14.39,14.39 L 14.39,16.58 L 14.47,16.58 L 17.93,14.83 L 17.97,14.87 L 17.97,16.97 L 17.89,17.05 L 16.18,17.89 L 16.18,20.07 L 16.10,20.15 L 14.39,20.99 L 14.39,25.40 L 16.18,24.53 L 16.18,20.15 L 16.26,20.07 L 17.93,19.24 L 17.97,19.28 L 17.97,21.39 L 18.05,21.39 L 19.76,20.51 L 19.80,20.55 L 19.80,22.66 L 19.72,22.74 L 17.97,23.61 L 17.97,25.80 L 18.05,25.80 L 19.80,24.92 L 19.80,22.74 L 19.88,22.66 L 21.55,21.82 L 21.59,21.86 L 21.59,24.01 L 25.16,22.22 L 25.16,20.03 L 25.08,20.03 L 23.45,20.87 L 23.37,20.83 L 23.37,16.54 L 23.29,16.54 L 21.62,17.37 L 21.59,17.33 L 21.59,15.22 L 25.12,13.44 L 25.16,13.48 L 25.16,15.62 L 26.99,14.71 L 26.99,10.34 L 27.07,10.26 L 28.78,9.42 Z" fill="#151515" stroke="none" /><path d="M 3.62,5.37 L 3.66,5.45 L 5.33,6.28 L 5.49,6.28 L 7.16,5.45 L 7.16,5.37 L 5.41,4.49 Z" fill="#151515" stroke="none" /><path d="M 16.18,28.94 L 16.10,28.94 L 14.39,29.81 L 14.39,32.00 L 14.47,32.00 L 16.18,31.13 Z" fill="#181a1a" stroke="none" /><path d="M 25.16,24.45 L 25.08,24.45 L 23.37,25.32 L 23.37,27.51 L 23.45,27.51 L 25.16,26.63 Z" fill="#181a1a" stroke="none" /><path d="M 28.78,18.21 L 26.99,19.08 L 26.99,21.31 L 28.78,20.43 Z" fill="#181a1a" stroke="none" /><path d="M 17.97,14.83 L 17.89,14.83 L 16.18,15.70 L 16.18,17.89 L 16.26,17.89 L 17.97,17.01 Z" fill="#181a1a" stroke="none" /><path d="M 26.99,14.71 L 23.37,16.50 L 23.37,18.68 L 23.45,18.68 L 26.99,16.89 Z" fill="#181a1a" stroke="none" /><path d="M 28.78,9.42 L 28.70,9.42 L 26.99,10.30 L 26.99,12.48 L 27.07,12.48 L 28.78,11.61 Z" fill="#181a1a" stroke="none" /><path d="M 12.60,26.71 L 12.60,28.94 L 14.39,29.81 L 14.39,27.59 Z" fill="#1a1a1a" stroke="none" /><path d="M 8.98,20.51 L 8.98,22.70 L 12.52,24.49 L 12.60,24.49 L 12.60,22.30 L 9.06,20.51 Z" fill="#1a1a1a" stroke="none" /><path d="M 10.81,12.60 L 10.81,14.83 L 14.31,16.58 L 14.39,16.58 L 14.39,14.39 Z" fill="#1a1a1a" stroke="none" /><path d="M 3.62,11.21 L 3.62,13.44 L 7.12,15.19 L 7.20,15.19 L 7.20,13.00 Z" fill="#1a1a1a" stroke="none" /><path d="M 16.22,8.07 L 16.26,8.15 L 17.93,8.98 L 18.05,8.98 L 19.76,8.11 L 19.76,8.07 L 18.01,7.20 Z" fill="#1b1b1b" stroke="none" /><path d="M 5.41,6.28 L 3.66,5.41 L 3.54,5.41 L 0.04,7.16 L 0.04,7.23 L 3.54,8.98 L 3.66,8.98 L 5.37,8.11 L 5.37,8.07 L 3.74,7.27 L 3.66,7.20 L 5.41,6.32 Z" fill="#1b1b1b" stroke="none" /><path d="M 5.41,4.49 L 5.41,4.53 L 7.16,5.41 L 7.23,5.41 L 8.98,4.53 L 8.94,4.45 L 7.27,3.62 L 7.12,3.62 Z" fill="#1b1b1b" stroke="none" /><path d="M 10.81,1.79 L 10.81,1.83 L 12.56,2.70 L 12.64,2.70 L 14.35,1.83 L 14.43,1.83 L 16.14,2.70 L 16.22,2.70 L 17.97,1.83 L 17.93,1.75 L 14.43,0.00 L 14.35,0.00 Z" fill="#1b1b1b" stroke="none" /><path d="M 17.97,23.61 L 14.39,25.40 L 14.39,27.59 L 14.47,27.59 L 17.97,25.84 Z" fill="#1e1e1e" stroke="none" /><path d="M 28.78,13.83 L 28.70,13.83 L 26.99,14.71 L 26.99,16.89 L 28.78,16.02 Z" fill="#1e1e1e" stroke="none" /><path d="M 17.97,8.98 L 16.22,9.86 L 16.22,9.94 L 17.85,10.73 L 17.93,10.81 L 16.26,11.65 L 16.22,11.73 L 18.01,12.60 L 19.76,11.73 L 19.72,11.65 L 18.05,10.81 L 18.13,10.73 L 19.76,9.94 L 19.76,9.86 Z" fill="#1f1f1f" stroke="none" /><path d="M 12.52,6.32 L 10.81,7.20 L 10.81,7.23 L 12.44,8.03 L 12.52,8.11 L 10.85,8.94 L 10.81,9.02 L 12.56,9.90 L 12.64,9.90 L 14.39,9.02 L 14.39,8.98 L 12.64,8.11 L 12.72,8.03 L 14.35,7.23 L 14.35,7.16 L 12.68,6.32 Z" fill="#1f1f1f" stroke="none" /><path d="M 16.18,4.49 L 14.43,5.37 L 14.43,5.45 L 16.10,6.28 L 16.06,6.36 L 14.43,7.16 L 14.43,7.23 L 16.22,8.11 L 17.97,7.23 L 17.93,7.16 L 16.26,6.32 L 16.30,6.24 L 17.93,5.45 L 17.97,5.37 Z" fill="#1f1f1f" stroke="none" /><path d="M 28.78,22.62 L 25.16,24.41 L 25.16,26.63 L 28.78,24.84 Z" fill="#202121" stroke="none" /><path d="M 16.18,15.70 L 14.39,16.58 L 14.39,18.80 L 16.18,17.93 Z" fill="#202121" stroke="none" /><path d="M 12.60,22.30 L 12.60,24.53 L 14.39,25.40 L 14.39,23.18 Z" fill="#212121" stroke="none" /><path d="M 5.41,20.91 L 5.41,23.14 L 7.12,23.97 L 7.20,24.05 L 7.20,26.24 L 8.98,27.11 L 8.98,24.88 L 7.27,24.05 L 7.20,23.97 L 7.20,21.78 Z" fill="#212121" stroke="none" /><path d="M 1.79,14.71 L 1.79,16.89 L 5.33,18.68 L 5.41,18.68 L 5.41,16.50 Z" fill="#212121" stroke="none" /><path d="M 7.20,13.00 L 7.20,15.22 L 8.98,16.10 L 8.98,13.87 Z" fill="#212121" stroke="none" /><path d="M 14.43,12.56 L 14.43,12.64 L 16.10,13.48 L 16.26,13.48 L 17.97,12.60 L 17.97,12.56 L 16.22,11.69 Z" fill="#282828" stroke="none" /><path d="M 10.81,12.56 L 10.85,12.64 L 12.52,13.48 L 12.68,13.48 L 14.35,12.64 L 14.35,12.56 L 12.60,11.69 Z" fill="#282828" stroke="none" /><path d="M 9.02,9.86 L 9.02,9.94 L 10.77,10.81 L 12.56,9.94 L 12.56,9.86 L 10.81,8.98 Z" fill="#282828" stroke="none" /><path d="M 14.39,8.98 L 14.39,9.02 L 16.14,9.90 L 16.22,9.90 L 17.97,9.02 L 17.93,8.94 L 16.26,8.11 L 16.14,8.11 Z" fill="#282828" stroke="none" /><path d="M 3.62,9.02 L 5.37,9.90 L 5.45,9.90 L 7.20,9.02 L 7.20,8.98 L 5.49,8.15 L 5.45,8.11 L 5.53,8.03 L 8.94,6.32 L 9.02,6.32 L 10.73,7.20 L 10.85,7.20 L 12.60,6.32 L 12.60,6.28 L 10.85,5.41 L 10.73,5.41 L 9.02,6.28 L 8.94,6.28 L 7.23,5.41 L 7.16,5.41 L 3.62,7.20 L 3.62,7.23 L 5.25,8.03 L 5.33,8.11 L 3.66,8.94 Z" fill="#282828" stroke="none" /><path d="M 16.22,2.66 L 16.22,2.74 L 17.85,3.54 L 17.93,3.62 L 16.26,4.45 L 16.22,4.53 L 17.97,5.41 L 19.72,4.53 L 19.84,4.53 L 21.55,5.41 L 19.80,6.28 L 19.80,6.32 L 21.55,7.20 L 19.80,8.07 L 19.84,8.15 L 21.51,8.98 L 21.66,8.98 L 23.37,8.11 L 25.12,8.98 L 25.24,8.98 L 28.74,7.23 L 28.74,7.16 L 25.24,5.41 L 25.12,5.41 L 23.41,6.28 L 23.33,6.28 L 21.66,5.45 L 21.62,5.41 L 21.66,5.37 L 23.37,4.53 L 23.33,4.45 L 21.66,3.62 L 21.51,3.62 L 19.80,4.49 L 18.09,3.66 L 18.05,3.62 L 18.13,3.54 L 19.76,2.74 L 19.76,2.66 L 18.01,1.79 Z" fill="#282828" stroke="none" /><path d="M 7.20,3.62 L 8.94,4.49 L 9.06,4.49 L 10.77,3.62 L 12.52,4.49 L 12.64,4.49 L 16.14,2.74 L 16.14,2.66 L 14.47,1.83 L 14.31,1.83 L 12.60,2.70 L 10.77,1.79 L 7.20,3.58 Z" fill="#282828" stroke="none" /><path d="M 3.62,24.45 L 3.62,26.63 L 3.66,26.67 L 8.90,29.30 L 8.98,29.30 L 8.98,27.11 L 8.94,27.07 L 3.70,24.45 Z" fill="#262a2a" stroke="none" /><path d="M 12.60,20.11 L 12.60,22.30 L 14.31,23.18 L 14.39,23.18 L 14.39,20.99 Z" fill="#262a2a" stroke="none" /><path d="M 5.41,16.54 L 5.41,18.72 L 7.20,19.60 L 7.20,17.41 L 5.49,16.54 Z" fill="#262a2a" stroke="none" /><path d="M 8.98,13.91 L 8.98,16.10 L 10.81,17.01 L 10.81,14.79 L 9.06,13.91 Z" fill="#262a2a" stroke="none" /><path d="M 7.20,21.82 L 7.20,24.01 L 8.90,24.88 L 8.98,24.88 L 8.98,22.70 L 7.27,21.82 Z" fill="#303131" stroke="none" /><path d="M 10.81,19.24 L 10.81,21.43 L 12.60,22.30 L 12.60,20.11 L 10.89,19.24 Z" fill="#303131" stroke="none" /><path d="M 7.20,17.41 L 7.20,19.60 L 8.90,20.47 L 8.98,20.47 L 8.98,18.29 Z" fill="#303131" stroke="none" /><path d="M 10.81,14.83 L 10.81,17.01 L 12.52,17.89 L 12.60,17.89 L 12.60,15.70 L 10.89,14.83 Z" fill="#303131" stroke="none" /><path d="M 25.16,5.37 L 23.41,4.49 L 21.62,5.37 L 21.62,5.45 L 23.29,6.28 L 23.25,6.36 L 21.62,7.16 L 21.62,7.23 L 23.25,8.03 L 23.33,8.11 L 21.62,8.98 L 21.55,8.98 L 19.84,8.11 L 19.92,8.03 L 21.55,7.23 L 21.55,7.16 L 19.88,6.32 L 19.92,6.24 L 21.55,5.45 L 21.55,5.37 L 19.92,4.57 L 19.84,4.49 L 21.59,3.62 L 21.59,3.58 L 19.84,2.70 L 19.76,2.70 L 18.05,3.58 L 17.93,3.58 L 16.22,2.70 L 16.14,2.70 L 12.60,4.49 L 10.85,3.62 L 10.73,3.62 L 7.23,5.37 L 7.23,5.45 L 8.86,6.24 L 8.90,6.32 L 5.41,8.07 L 5.45,8.15 L 7.12,8.98 L 7.08,9.06 L 5.45,9.86 L 5.45,9.94 L 10.77,12.60 L 12.52,11.73 L 12.64,11.73 L 14.35,12.60 L 12.60,13.48 L 12.60,13.52 L 14.35,14.39 L 14.43,14.39 L 16.18,13.52 L 16.18,13.48 L 14.47,12.64 L 14.43,12.60 L 14.47,12.56 L 17.97,10.81 L 19.72,11.69 L 19.84,11.69 L 25.16,9.02 L 25.12,8.94 L 23.45,8.11 L 23.53,8.03 L 25.16,7.23 L 25.12,7.16 L 23.45,6.32 L 23.49,6.24 L 25.12,5.45 Z" fill="#333333" stroke="none" /><path d="M 8.98,27.11 L 8.98,29.34 L 14.31,32.00 L 14.39,32.00 L 14.39,29.81 L 14.35,29.77 Z" fill="#343535" stroke="none" /><path d="M 10.81,23.61 L 10.81,25.84 L 14.31,27.59 L 14.39,27.59 L 14.39,25.40 Z" fill="#343535" stroke="none" /><path d="M 8.98,18.33 L 8.98,20.51 L 10.73,21.39 L 10.81,21.39 L 10.81,19.20 L 9.06,18.33 Z" fill="#343535" stroke="none" /><path d="M 12.60,15.70 L 12.60,17.93 L 14.39,18.80 L 14.39,16.58 Z" fill="#343535" stroke="none" /></svg>