<svg height="32" width="32" viewBox="0 0 32 32"><defs /><path d="M 21.60,21.82 L 20.71,22.27 L 20.71,23.38 L 21.60,22.93 Z" fill="#49330c" stroke="none" /><path d="M 17.97,28.09 L 17.91,28.09 L 17.08,28.50 L 17.08,29.61 L 17.97,29.17 Z" fill="#4a330c" stroke="none" /><path d="M 24.33,23.79 L 24.27,23.79 L 23.41,24.24 L 23.41,25.35 L 24.33,24.91 Z" fill="#47340c" stroke="none" /><path d="M 18.89,27.61 L 17.97,28.06 L 17.97,29.17 L 18.89,28.72 Z" fill="#48330d" stroke="none" /><path d="M 27.04,24.65 L 26.97,24.65 L 26.15,25.07 L 26.15,26.15 L 27.04,25.70 Z" fill="#48330d" stroke="none" /><path d="M 25.22,22.23 L 25.16,22.23 L 24.33,22.65 L 24.33,23.76 L 24.40,23.76 L 25.22,23.35 Z" fill="#48330d" stroke="none" /><path d="M 17.97,21.44 L 17.91,21.44 L 17.08,21.85 L 17.08,22.97 L 17.97,22.52 Z" fill="#48330d" stroke="none" /><path d="M 19.79,13.87 L 19.72,13.87 L 18.89,14.28 L 18.89,15.40 L 17.97,15.87 L 17.97,16.99 L 18.86,16.54 L 18.89,16.57 L 18.89,17.62 L 20.71,16.73 L 20.71,15.62 L 19.82,16.06 L 19.79,16.03 Z" fill="#48330d" stroke="none" /><path d="M 27.93,7.63 L 27.86,7.63 L 25.22,8.97 L 25.22,11.13 L 26.15,10.69 L 26.15,9.61 L 26.21,9.54 L 27.93,8.68 Z" fill="#48330d" stroke="none" /><path d="M 15.27,26.12 L 15.20,26.12 L 14.41,26.53 L 14.41,27.61 L 14.47,27.61 L 15.27,27.20 Z" fill="#49330d" stroke="none" /><path d="M 21.60,25.16 L 21.53,25.16 L 20.71,25.57 L 20.71,26.69 L 20.77,26.69 L 21.60,26.27 Z" fill="#49330d" stroke="none" /><path d="M 26.15,25.10 L 26.08,25.10 L 25.22,25.54 L 25.22,26.59 L 25.29,26.59 L 26.15,26.15 Z" fill="#49330d" stroke="none" /><path d="M 19.79,20.52 L 18.89,20.96 L 18.89,22.04 L 18.86,22.08 L 17.08,22.97 L 17.08,25.19 L 18.89,24.30 L 18.89,22.08 L 19.79,21.63 Z" fill="#49330d" stroke="none" /><path d="M 21.60,15.17 L 20.71,15.62 L 20.71,16.70 L 20.77,16.70 L 21.60,16.29 Z" fill="#49330d" stroke="none" /><path d="M 18.89,14.31 L 18.83,14.31 L 17.97,14.76 L 17.97,15.87 L 18.89,15.43 Z" fill="#49330d" stroke="none" /><path d="M 20.71,13.39 L 19.79,13.84 L 19.79,14.95 L 19.85,14.95 L 20.71,14.50 Z" fill="#49330d" stroke="none" /><path d="M 22.52,24.68 L 21.60,25.13 L 21.60,26.24 L 20.71,26.69 L 20.71,27.80 L 21.60,27.36 L 21.60,26.27 L 22.52,25.80 Z" fill="#49340d" stroke="none" /><path d="M 20.71,24.49 L 20.64,24.49 L 19.79,24.94 L 19.79,26.05 L 20.71,25.61 Z" fill="#49340d" stroke="none" /><path d="M 18.89,24.30 L 18.83,24.30 L 17.97,24.75 L 17.97,25.83 L 18.04,25.83 L 18.89,25.38 Z" fill="#49340d" stroke="none" /><path d="M 27.04,23.54 L 26.15,23.98 L 26.15,25.07 L 26.21,25.07 L 27.04,24.65 Z" fill="#49340d" stroke="none" /><path d="M 26.15,21.76 L 25.22,22.20 L 25.22,23.32 L 24.37,23.76 L 24.33,23.73 L 24.33,22.68 L 24.27,22.68 L 23.44,23.09 L 23.41,23.13 L 23.41,24.24 L 24.30,23.79 L 24.33,23.83 L 24.33,24.87 L 24.40,24.87 L 25.22,24.46 L 25.22,23.35 L 26.15,22.87 Z" fill="#49340d" stroke="none" /><path d="M 19.79,21.63 L 19.72,21.63 L 18.89,22.04 L 18.89,23.16 L 18.96,23.16 L 19.79,22.74 Z" fill="#49340d" stroke="none" /><path d="M 21.60,20.71 L 20.71,21.15 L 20.71,22.27 L 21.60,21.82 Z" fill="#49340d" stroke="none" /><path d="M 28.82,18.23 L 28.76,18.23 L 27.93,18.64 L 27.93,19.75 L 27.99,19.75 L 28.82,19.34 Z" fill="#49340d" stroke="none" /><path d="M 20.71,18.96 L 20.64,18.96 L 19.82,19.37 L 19.79,19.34 L 19.79,18.29 L 18.96,18.70 L 18.89,18.67 L 18.89,17.62 L 17.97,18.07 L 17.97,20.29 L 16.19,21.18 L 16.19,22.30 L 16.25,22.30 L 17.97,21.44 L 17.97,20.33 L 19.72,19.44 L 19.79,19.47 L 19.79,20.52 L 20.71,20.07 Z" fill="#49340d" stroke="none" /><path d="M 23.41,16.48 L 22.52,16.92 L 22.52,18.04 L 23.41,17.59 Z" fill="#49340d" stroke="none" /><path d="M 17.97,14.76 L 17.08,15.20 L 17.08,16.32 L 17.97,15.87 Z" fill="#49340d" stroke="none" /><path d="M 23.41,14.28 L 23.35,14.28 L 22.52,14.70 L 22.52,15.81 L 23.41,15.36 Z" fill="#49340d" stroke="none" /><path d="M 28.82,13.77 L 27.93,14.22 L 27.93,15.33 L 28.82,14.89 Z" fill="#49340d" stroke="none" /><path d="M 17.97,12.60 L 15.27,13.93 L 15.27,15.01 L 17.97,13.68 Z" fill="#49340d" stroke="none" /><path d="M 28.82,10.47 L 28.76,10.47 L 27.93,10.88 L 27.93,13.11 L 28.82,12.66 Z" fill="#49340d" stroke="none" /><path d="M 22.52,10.34 L 22.46,10.34 L 21.60,10.78 L 21.60,11.83 L 20.71,12.28 L 20.71,14.47 L 20.64,14.54 L 19.79,14.95 L 19.79,16.06 L 19.85,16.06 L 20.71,15.62 L 20.71,14.54 L 20.77,14.47 L 21.60,14.06 L 21.60,11.86 L 22.52,11.39 Z" fill="#49340d" stroke="none" /><path d="M 25.22,8.97 L 24.33,9.42 L 24.33,10.47 L 24.40,10.47 L 25.22,10.05 Z" fill="#49340d" stroke="none" /><path d="M 28.82,7.19 L 28.76,7.19 L 27.93,7.60 L 27.93,9.77 L 27.99,9.77 L 28.82,9.35 Z" fill="#49340d" stroke="none" /><path d="M 25.22,25.54 L 24.33,25.99 L 24.33,27.04 L 24.40,27.04 L 25.22,26.62 Z" fill="#4a340d" stroke="none" /><path d="M 15.27,25.00 L 15.20,25.00 L 14.41,25.42 L 14.41,26.53 L 15.27,26.12 Z" fill="#4a340d" stroke="none" /><path d="M 19.75,24.94 L 18.89,25.38 L 18.89,26.50 L 19.72,26.08 L 19.79,26.12 L 19.79,28.25 L 19.85,28.25 L 20.71,27.80 L 20.71,25.61 L 20.64,25.61 L 19.82,26.02 L 19.79,25.99 L 19.79,24.94 Z" fill="#4a340d" stroke="none" /><path d="M 23.41,24.24 L 22.52,24.68 L 22.52,25.80 L 23.41,25.35 Z" fill="#4a340d" stroke="none" /><path d="M 27.93,23.09 L 27.04,23.54 L 27.04,24.62 L 27.10,24.62 L 27.93,24.21 Z" fill="#4a340d" stroke="none" /><path d="M 26.15,22.87 L 25.22,23.32 L 25.22,24.43 L 25.29,24.43 L 26.15,23.98 Z" fill="#4a340d" stroke="none" /><path d="M 22.52,16.92 L 21.60,17.37 L 21.60,18.48 L 21.66,18.48 L 22.52,18.04 Z" fill="#4a340d" stroke="none" /><path d="M 17.97,15.87 L 17.08,16.32 L 17.08,17.43 L 17.97,16.99 Z" fill="#4a340d" stroke="none" /><path d="M 27.93,10.91 L 27.86,10.91 L 27.04,11.32 L 27.04,12.44 L 27.10,12.44 L 27.93,12.02 Z" fill="#4a340d" stroke="none" /><path d="M 18.89,25.38 L 17.97,25.83 L 17.97,26.94 L 18.04,26.94 L 18.89,26.50 Z" fill="#49350d" stroke="none" /><path d="M 23.41,19.82 L 23.35,19.82 L 22.52,20.23 L 22.52,21.34 L 22.58,21.34 L 23.41,20.93 Z" fill="#49350d" stroke="none" /><path d="M 22.52,11.39 L 21.60,11.83 L 21.60,12.95 L 22.52,12.50 Z" fill="#49350d" stroke="none" /><path d="M 28.82,9.35 L 28.76,9.35 L 27.93,9.77 L 27.93,10.88 L 27.99,10.88 L 28.82,10.47 Z" fill="#4a350d" stroke="none" /><path d="M 15.27,27.20 L 14.41,27.61 L 14.41,28.72 L 14.47,28.72 L 15.27,28.31 Z" fill="#49330e" stroke="none" /><path d="M 22.52,14.73 L 22.46,14.73 L 21.60,15.17 L 21.60,16.25 L 21.66,16.25 L 22.52,15.81 Z" fill="#49330e" stroke="none" /><path d="M 16.19,15.65 L 15.27,16.10 L 15.27,17.21 L 15.33,17.21 L 16.19,16.76 Z" fill="#47340e" stroke="none" /><path d="M 19.79,27.17 L 18.89,27.61 L 18.89,28.69 L 18.96,28.69 L 19.79,28.28 Z" fill="#49340e" stroke="none" /><path d="M 22.52,25.80 L 21.60,26.24 L 21.60,27.36 L 22.52,26.91 Z" fill="#49340e" stroke="none" /><path d="M 17.97,24.75 L 17.08,25.19 L 17.08,26.27 L 17.05,26.31 L 15.27,27.20 L 15.27,28.31 L 17.08,27.42 L 17.08,26.31 L 17.97,25.86 Z" fill="#49340e" stroke="none" /><path d="M 17.08,22.97 L 16.19,23.41 L 16.19,24.52 L 17.08,24.08 Z" fill="#49340e" stroke="none" /><path d="M 21.60,22.93 L 20.71,23.38 L 20.71,25.57 L 20.77,25.57 L 21.60,25.16 Z" fill="#49340e" stroke="none" /><path d="M 18.89,20.96 L 17.97,21.41 L 17.97,22.52 L 18.89,22.08 Z" fill="#49340e" stroke="none" /><path d="M 22.52,19.15 L 19.79,20.52 L 19.79,22.71 L 19.85,22.71 L 20.71,22.27 L 20.71,21.18 L 20.77,21.12 L 22.52,20.26 Z" fill="#49340e" stroke="none" /><path d="M 25.22,18.89 L 23.41,19.79 L 23.41,20.90 L 23.48,20.90 L 25.22,20.01 Z" fill="#49340e" stroke="none" /><path d="M 24.33,16.03 L 24.27,16.03 L 23.41,16.48 L 23.41,18.70 L 24.33,18.26 Z" fill="#49340e" stroke="none" /><path d="M 15.27,13.96 L 15.20,13.96 L 14.41,14.38 L 14.41,16.54 L 15.27,16.13 Z" fill="#49340e" stroke="none" /><path d="M 24.33,12.69 L 22.52,13.58 L 22.52,14.70 L 22.58,14.70 L 24.33,13.81 Z" fill="#49340e" stroke="none" /><path d="M 26.97,12.47 L 26.15,12.88 L 26.15,14.00 L 27.01,13.58 L 27.04,13.61 L 27.04,14.66 L 27.07,14.66 L 27.93,14.22 L 27.93,13.11 L 27.07,13.52 L 27.04,13.49 L 27.04,12.47 Z" fill="#49340e" stroke="none" /><path d="M 18.89,12.15 L 18.83,12.15 L 17.97,12.60 L 17.97,13.65 L 18.04,13.65 L 18.89,13.20 Z" fill="#49340e" stroke="none" /><path d="M 17.97,25.86 L 17.91,25.86 L 17.08,26.27 L 17.08,27.39 L 17.15,27.39 L 17.97,26.97 Z" fill="#4a340e" stroke="none" /><path d="M 16.19,25.64 L 15.27,26.08 L 15.27,27.20 L 16.19,26.75 Z" fill="#4a340e" stroke="none" /><path d="M 27.93,24.21 L 27.86,24.21 L 27.04,24.62 L 27.04,25.70 L 27.93,25.26 Z" fill="#4a340e" stroke="none" /><path d="M 26.15,23.98 L 25.22,24.43 L 25.22,25.54 L 26.15,25.10 Z" fill="#4a340e" stroke="none" /><path d="M 16.19,21.22 L 16.13,21.22 L 15.27,21.66 L 15.27,22.78 L 16.19,22.33 Z" fill="#4a340e" stroke="none" /><path d="M 27.93,18.67 L 27.86,18.67 L 27.04,19.09 L 27.04,20.20 L 27.10,20.20 L 27.93,19.79 Z" fill="#4a340e" stroke="none" /><path d="M 20.71,17.84 L 20.64,17.84 L 19.79,18.29 L 19.79,19.40 L 20.71,18.96 Z" fill="#4a340e" stroke="none" /><path d="M 16.19,14.57 L 16.13,14.57 L 15.27,15.01 L 15.27,16.10 L 15.33,16.10 L 16.19,15.65 Z" fill="#4a340e" stroke="none" /><path d="M 27.93,8.68 L 26.15,9.57 L 26.15,10.66 L 26.21,10.66 L 27.93,9.80 Z" fill="#4a340e" stroke="none" /><path d="M 18.89,28.72 L 18.83,28.72 L 17.11,29.58 L 17.08,29.55 L 17.08,28.53 L 17.02,28.53 L 15.30,29.39 L 15.27,29.42 L 15.27,30.50 L 14.41,30.95 L 14.41,32.00 L 14.47,32.00 L 15.27,31.59 L 15.27,30.54 L 15.30,30.50 L 17.02,29.65 L 17.08,29.68 L 17.08,30.66 L 17.15,30.66 L 18.86,29.81 L 18.89,29.77 Z" fill="#49350e" stroke="none" /><path d="M 18.89,26.50 L 17.97,26.94 L 17.97,28.06 L 18.04,28.06 L 18.89,27.61 Z" fill="#49350e" stroke="none" /><path d="M 23.41,25.35 L 22.52,25.80 L 22.52,26.88 L 21.60,27.36 L 21.60,28.41 L 21.66,28.41 L 22.52,27.96 L 22.52,26.91 L 23.41,26.47 Z" fill="#49350e" stroke="none" /><path d="M 17.08,24.08 L 16.19,24.52 L 16.19,25.64 L 17.08,25.19 Z" fill="#49350e" stroke="none" /><path d="M 17.97,18.10 L 17.91,18.10 L 17.08,18.51 L 17.08,20.74 L 17.15,20.74 L 17.97,20.33 Z" fill="#49350e" stroke="none" /><path d="M 15.27,16.13 L 15.20,16.13 L 14.41,16.54 L 14.41,17.65 L 15.27,17.24 Z" fill="#49350e" stroke="none" /><path d="M 17.08,15.20 L 16.19,15.65 L 16.19,16.76 L 17.08,16.32 Z" fill="#49350e" stroke="none" /><path d="M 20.71,12.31 L 20.64,12.31 L 19.79,12.76 L 19.79,13.84 L 19.85,13.84 L 20.71,13.39 Z" fill="#49350e" stroke="none" /><path d="M 26.15,10.69 L 26.08,10.69 L 25.22,11.13 L 25.22,12.21 L 25.16,12.28 L 24.33,12.69 L 24.33,13.81 L 25.22,13.36 L 25.22,12.28 L 25.29,12.21 L 26.15,11.80 Z" fill="#49350e" stroke="none" /><path d="M 17.08,27.42 L 17.02,27.42 L 14.41,28.72 L 14.41,30.95 L 15.24,30.54 L 15.27,30.57 L 15.27,31.59 L 17.08,30.70 L 17.08,29.61 L 15.30,30.50 L 15.27,30.47 L 15.27,29.46 L 15.33,29.39 L 17.08,28.53 Z" fill="#4a350e" stroke="none" /><path d="M 25.22,24.46 L 25.16,24.46 L 23.41,25.35 L 23.41,27.51 L 24.33,27.07 L 24.33,26.02 L 24.40,25.96 L 25.22,25.54 Z" fill="#4a350e" stroke="none" /><path d="M 28.82,23.76 L 28.76,23.76 L 27.93,24.17 L 27.93,25.26 L 28.82,24.81 Z" fill="#4a350e" stroke="none" /><path d="M 16.16,23.41 L 15.27,23.86 L 15.27,26.08 L 15.33,26.08 L 16.16,25.67 L 16.19,25.70 L 16.19,26.72 L 16.25,26.72 L 17.08,26.31 L 17.08,25.19 L 16.25,25.61 L 16.19,25.57 L 16.19,23.41 Z" fill="#4a350e" stroke="none" /><path d="M 20.71,23.38 L 18.89,24.27 L 18.89,25.38 L 20.71,24.49 Z" fill="#4a350e" stroke="none" /><path d="M 22.52,20.26 L 22.46,20.26 L 21.60,20.71 L 21.60,22.93 L 23.41,22.04 L 23.41,20.93 L 23.35,20.93 L 22.55,21.34 L 22.52,21.31 Z" fill="#4a350e" stroke="none" /><path d="M 27.04,18.00 L 26.97,18.00 L 25.22,18.89 L 25.22,21.09 L 25.16,21.15 L 24.33,21.57 L 24.33,22.65 L 24.40,22.65 L 26.08,21.79 L 26.15,21.82 L 26.15,23.98 L 27.04,23.54 L 27.04,22.46 L 27.10,22.39 L 28.82,21.53 L 28.82,19.34 L 28.76,19.34 L 27.93,19.75 L 27.93,20.83 L 27.86,20.90 L 26.21,21.73 L 26.15,21.69 L 26.15,20.68 L 27.04,20.23 Z" fill="#4a350e" stroke="none" /><path d="M 23.41,17.59 L 22.52,18.04 L 22.52,19.15 L 23.41,18.70 Z" fill="#4a350e" stroke="none" /><path d="M 15.20,17.24 L 14.41,17.65 L 14.41,19.85 L 14.47,19.85 L 15.24,19.47 L 15.27,19.50 L 15.27,20.55 L 15.30,20.55 L 16.19,20.10 L 16.19,18.99 L 16.13,18.99 L 15.33,19.40 L 15.27,19.37 L 15.27,17.24 Z" fill="#4a350e" stroke="none" /><path d="M 17.08,16.32 L 16.19,16.76 L 16.19,17.88 L 17.08,17.43 Z" fill="#4a350e" stroke="none" /><path d="M 28.82,16.00 L 27.93,16.45 L 27.93,17.53 L 27.99,17.53 L 28.82,17.11 Z" fill="#4a350e" stroke="none" /><path d="M 27.93,9.80 L 27.86,9.80 L 27.04,10.21 L 27.04,11.32 L 27.01,11.36 L 25.29,12.21 L 25.22,12.18 L 25.22,11.13 L 23.44,12.02 L 23.41,11.99 L 23.41,10.94 L 22.55,11.36 L 22.52,11.39 L 22.52,13.58 L 21.60,14.06 L 21.60,15.17 L 22.52,14.73 L 22.52,13.61 L 22.55,13.58 L 25.16,12.28 L 25.22,12.31 L 25.22,14.44 L 18.96,17.59 L 18.89,17.56 L 18.89,16.54 L 18.83,16.54 L 17.97,16.99 L 17.97,18.07 L 18.04,18.07 L 18.86,17.65 L 18.89,17.69 L 18.89,18.74 L 18.93,18.74 L 24.30,16.03 L 24.33,16.06 L 24.33,18.23 L 24.40,18.23 L 27.01,16.92 L 27.04,16.89 L 27.04,15.81 L 27.10,15.75 L 27.93,15.33 L 27.93,14.22 L 27.10,14.63 L 27.04,14.60 L 27.04,13.58 L 27.10,13.52 L 27.93,13.11 L 27.93,12.02 L 27.86,12.02 L 27.07,12.44 L 27.04,12.41 L 27.04,11.36 L 27.93,10.91 Z" fill="#4a350e" stroke="none" /><path d="M 28.82,22.65 L 27.93,23.09 L 27.93,24.17 L 27.99,24.17 L 28.82,23.76 Z" fill="#4b350e" stroke="none" /><path d="M 15.27,20.55 L 14.41,20.96 L 14.41,22.08 L 14.47,22.08 L 15.27,21.66 Z" fill="#4b350e" stroke="none" /><path d="M 19.79,19.40 L 17.97,20.29 L 17.97,21.41 L 18.04,21.41 L 19.79,20.52 Z" fill="#4b350e" stroke="none" /><path d="M 17.97,16.99 L 17.08,17.43 L 17.08,18.51 L 17.15,18.51 L 17.97,18.10 Z" fill="#4b350e" stroke="none" /><path d="M 22.52,12.50 L 22.46,12.50 L 21.60,12.95 L 21.60,14.03 L 21.53,14.09 L 20.71,14.50 L 20.71,15.62 L 21.60,15.17 L 21.60,14.09 L 21.66,14.03 L 22.52,13.61 Z" fill="#4b350e" stroke="none" /><path d="M 23.41,23.13 L 22.52,23.57 L 22.52,24.68 L 23.41,24.24 Z" fill="#4c350e" stroke="none" /><path d="M 21.60,18.51 L 21.53,18.51 L 20.71,18.93 L 20.71,20.04 L 20.77,20.04 L 21.60,19.63 Z" fill="#4b360e" stroke="none" /><path d="M 27.04,10.24 L 26.97,10.24 L 26.15,10.66 L 26.15,11.77 L 26.21,11.77 L 27.04,11.36 Z" fill="#4a370e" stroke="none" /><path d="M 19.79,28.28 L 19.72,28.28 L 18.89,28.69 L 18.89,29.77 L 19.79,29.33 Z" fill="#4a350f" stroke="none" /><path d="M 21.60,27.36 L 20.71,27.80 L 20.71,28.85 L 20.77,28.85 L 21.60,28.44 Z" fill="#4a350f" stroke="none" /><path d="M 23.41,26.47 L 23.35,26.47 L 22.52,26.88 L 22.52,27.96 L 23.41,27.51 Z" fill="#4a350f" stroke="none" /><path d="M 15.27,21.66 L 14.41,22.08 L 14.41,25.42 L 15.27,25.00 Z" fill="#4a350f" stroke="none" /><path d="M 24.33,21.57 L 23.41,22.01 L 23.41,23.13 L 24.33,22.68 Z" fill="#4a350f" stroke="none" /><path d="M 23.41,18.70 L 22.52,19.15 L 22.52,20.23 L 22.58,20.23 L 23.41,19.82 Z" fill="#4a350f" stroke="none" /><path d="M 17.08,18.54 L 17.02,18.54 L 16.19,18.96 L 16.19,21.18 L 16.25,21.18 L 17.08,20.77 Z" fill="#4a350f" stroke="none" /><path d="M 28.82,14.89 L 27.04,15.78 L 27.04,16.89 L 28.82,16.00 Z" fill="#4a350f" stroke="none" /><path d="M 19.79,11.71 L 19.72,11.71 L 18.89,12.12 L 18.89,13.20 L 19.79,12.76 Z" fill="#4a350f" stroke="none" /><path d="M 21.60,17.40 L 21.53,17.40 L 20.71,17.81 L 20.71,18.93 L 20.77,18.93 L 21.60,18.51 Z" fill="#4b350f" stroke="none" /><path d="M 18.89,13.20 L 17.97,13.65 L 17.97,14.76 L 18.89,14.31 Z" fill="#4b350f" stroke="none" /><path d="M 17.08,21.88 L 17.02,21.88 L 16.19,22.30 L 16.19,23.41 L 17.08,22.97 Z" fill="#4a360f" stroke="none" /><path d="M 16.19,20.10 L 16.13,20.10 L 15.27,20.55 L 15.27,21.66 L 16.19,21.22 Z" fill="#4a360f" stroke="none" /><path d="M 25.22,10.05 L 25.16,10.05 L 24.33,10.47 L 24.33,11.58 L 25.22,11.13 Z" fill="#4a360f" stroke="none" /><path d="M 20.71,27.80 L 19.79,28.25 L 19.79,29.33 L 20.71,28.88 Z" fill="#4b360f" stroke="none" /><path d="M 17.97,26.97 L 17.91,26.97 L 17.08,27.39 L 17.08,28.50 L 17.15,28.50 L 17.97,28.09 Z" fill="#4b360f" stroke="none" /><path d="M 22.52,22.49 L 22.46,22.49 L 21.60,22.93 L 21.60,24.02 L 21.66,24.02 L 22.52,23.57 Z" fill="#4b360f" stroke="none" /><path d="M 16.19,22.33 L 16.13,22.33 L 15.27,22.78 L 15.27,23.86 L 15.33,23.86 L 16.19,23.41 Z" fill="#4b360f" stroke="none" /><path d="M 28.82,21.53 L 27.93,21.98 L 27.93,23.09 L 28.82,22.65 Z" fill="#4b360f" stroke="none" /><path d="M 25.22,20.01 L 24.33,20.45 L 24.33,21.57 L 25.22,21.12 Z" fill="#4b360f" stroke="none" /><path d="M 27.93,19.79 L 27.86,19.79 L 26.15,20.64 L 26.15,21.76 L 27.93,20.87 Z" fill="#4b360f" stroke="none" /><path d="M 22.52,18.04 L 21.60,18.48 L 21.60,19.59 L 21.66,19.59 L 22.52,19.15 Z" fill="#4b360f" stroke="none" /><path d="M 28.82,17.11 L 28.76,17.11 L 27.93,17.53 L 27.93,18.64 L 27.99,18.64 L 28.82,18.23 Z" fill="#4b360f" stroke="none" /><path d="M 27.04,16.89 L 23.44,18.67 L 23.41,18.70 L 23.41,19.79 L 23.48,19.79 L 27.04,18.00 Z" fill="#4b360f" stroke="none" /><path d="M 16.19,16.76 L 15.27,17.21 L 15.27,19.40 L 15.20,19.47 L 14.41,19.85 L 14.41,20.96 L 14.47,20.96 L 15.27,20.55 L 15.27,19.47 L 15.33,19.40 L 17.08,18.54 L 17.08,17.43 L 16.22,17.84 L 16.19,17.81 Z" fill="#4b360f" stroke="none" /><path d="M 27.04,14.66 L 25.22,15.55 L 25.22,16.67 L 25.29,16.67 L 27.04,15.78 Z" fill="#4b360f" stroke="none" /><path d="M 17.97,13.68 L 17.91,13.68 L 16.19,14.54 L 16.19,15.65 L 17.97,14.76 Z" fill="#4b360f" stroke="none" /><path d="M 28.82,12.66 L 27.93,13.11 L 27.93,14.22 L 28.82,13.77 Z" fill="#4b360f" stroke="none" /><path d="M 21.60,10.78 L 20.71,11.23 L 20.71,12.28 L 20.77,12.28 L 21.60,11.86 Z" fill="#4b360f" stroke="none" /><path d="M 24.33,9.42 L 22.52,10.31 L 22.52,11.39 L 23.38,10.97 L 23.41,11.01 L 23.41,12.02 L 23.48,12.02 L 24.33,11.58 Z" fill="#4b360f" stroke="none" /><path d="M 19.79,22.74 L 19.72,22.74 L 18.89,23.16 L 18.89,24.27 L 18.96,24.27 L 19.79,23.86 Z" fill="#4c360f" stroke="none" /><path d="M 25.22,13.36 L 23.41,14.25 L 23.41,15.36 L 25.22,14.47 Z" fill="#4c360f" stroke="none" /><path d="M 19.79,26.05 L 18.89,26.50 L 18.89,27.61 L 19.79,27.17 Z" fill="#4a370f" stroke="none" /><path d="M 27.93,21.98 L 27.04,22.43 L 27.04,23.54 L 27.93,23.09 Z" fill="#4b370f" stroke="none" /><path d="M 24.33,20.45 L 23.41,20.90 L 23.41,22.01 L 22.52,22.46 L 22.52,23.57 L 23.41,23.13 L 23.41,22.04 L 24.33,21.57 Z" fill="#4b370f" stroke="none" /><path d="M 20.71,11.23 L 19.79,11.67 L 19.79,12.76 L 20.71,12.31 Z" fill="#4b370f" stroke="none" /><path d="M 20.71,22.27 L 19.79,22.71 L 19.79,23.83 L 19.85,23.83 L 20.71,23.38 Z" fill="#4c370f" stroke="none" /><path d="M 27.93,17.56 L 27.86,17.56 L 27.04,17.97 L 27.04,19.09 L 27.10,19.09 L 27.93,18.67 Z" fill="#4c370f" stroke="none" /><path d="M 19.79,12.76 L 18.89,13.20 L 18.89,14.28 L 18.96,14.28 L 19.79,13.87 Z" fill="#4a3510" stroke="none" /><path d="M 27.93,16.45 L 27.04,16.89 L 27.04,17.97 L 27.10,17.97 L 27.93,17.56 Z" fill="#4b3710" stroke="none" /><path d="M 22.52,23.57 L 21.60,24.02 L 21.60,25.13 L 21.66,25.13 L 22.52,24.68 Z" fill="#4c3710" stroke="none" /><path d="M 2.67,23.98 L 2.67,25.10 L 3.59,25.54 L 3.59,24.43 Z" fill="#775213" stroke="none" /><path d="M 9.03,26.05 L 9.03,27.17 L 9.92,27.61 L 9.92,26.50 Z" fill="#735413" stroke="none" /><path d="M 4.49,13.81 L 4.49,14.92 L 5.41,15.36 L 5.41,14.25 Z" fill="#745214" stroke="none" /><path d="M 2.67,17.34 L 2.67,18.45 L 3.59,18.89 L 3.59,17.78 Z" fill="#745314" stroke="none" /><path d="M 4.49,12.69 L 4.49,13.81 L 5.34,14.25 L 5.41,14.25 L 5.41,13.14 Z" fill="#745314" stroke="none" /><path d="M 11.74,29.61 L 11.74,30.70 L 12.56,31.11 L 12.63,31.11 L 12.63,30.06 Z" fill="#755314" stroke="none" /><path d="M 3.59,24.46 L 3.59,25.54 L 4.49,25.99 L 4.49,24.87 L 3.66,24.46 Z" fill="#755314" stroke="none" /><path d="M 5.41,14.28 L 5.41,15.36 L 6.30,15.81 L 6.30,14.70 L 5.47,14.28 Z" fill="#755314" stroke="none" /><path d="M 10.85,12.60 L 10.85,13.68 L 13.55,15.01 L 13.55,13.93 Z" fill="#755314" stroke="none" /><path d="M 10.85,29.17 L 10.85,30.25 L 11.67,30.66 L 11.74,30.66 L 11.74,29.61 Z" fill="#775314" stroke="none" /><path d="M 6.30,21.38 L 6.30,22.49 L 7.22,22.93 L 7.22,21.82 L 6.36,21.38 Z" fill="#775314" stroke="none" /><path d="M 6.30,14.73 L 6.30,15.81 L 7.16,16.25 L 7.22,16.25 L 7.22,15.17 L 6.36,14.73 Z" fill="#775314" stroke="none" /><path d="M 9.92,25.38 L 9.92,26.50 L 10.78,26.94 L 10.85,26.94 L 10.85,25.83 Z" fill="#755315" stroke="none" /><path d="M 10.85,13.68 L 10.85,14.76 L 11.74,15.20 L 11.74,14.09 L 10.91,13.68 Z" fill="#755315" stroke="none" /><path d="M 4.52,11.58 L 4.49,11.58 L 4.49,12.63 L 4.45,12.66 L 3.59,12.25 L 3.59,13.36 L 4.45,13.81 L 4.49,13.81 L 4.49,12.76 L 4.52,12.72 L 5.34,13.14 L 5.41,13.14 L 5.41,12.02 Z" fill="#755315" stroke="none" /><path d="M 6.30,24.68 L 6.30,25.80 L 7.16,26.24 L 7.22,26.24 L 7.22,25.13 Z" fill="#765315" stroke="none" /><path d="M 5.41,18.70 L 4.55,18.26 L 4.49,18.26 L 4.49,19.28 L 4.42,19.31 L 2.74,18.45 L 2.67,18.45 L 2.67,20.68 L 3.59,21.12 L 3.59,20.07 L 3.66,20.04 L 4.49,20.45 L 4.49,19.40 L 4.52,19.37 L 5.34,19.79 L 5.41,19.79 Z" fill="#765315" stroke="none" /><path d="M 5.41,12.06 L 5.41,13.17 L 6.23,13.58 L 6.30,13.58 L 6.30,12.47 L 5.47,12.06 Z" fill="#765315" stroke="none" /><path d="M 3.59,11.13 L 3.59,12.25 L 4.49,12.69 L 4.49,11.58 Z" fill="#765315" stroke="none" /><path d="M 11.74,28.53 L 11.74,29.61 L 12.63,30.06 L 12.63,28.95 L 11.80,28.53 Z" fill="#765415" stroke="none" /><path d="M 12.63,28.98 L 12.63,30.06 L 13.49,30.50 L 13.55,30.50 L 13.55,29.42 L 12.69,28.98 Z" fill="#775415" stroke="none" /><path d="M 9.92,28.72 L 9.92,29.77 L 10.78,30.22 L 10.85,30.22 L 10.85,29.17 L 9.99,28.72 Z" fill="#775415" stroke="none" /><path d="M 10.85,25.86 L 10.85,28.09 L 11.67,28.50 L 11.74,28.50 L 11.74,26.27 L 10.91,25.86 Z" fill="#775415" stroke="none" /><path d="M 8.11,25.61 L 8.11,26.72 L 9.03,27.17 L 9.03,26.05 L 8.17,25.61 Z" fill="#775415" stroke="none" /><path d="M 5.41,25.35 L 5.41,26.47 L 6.23,26.88 L 6.30,26.88 L 6.30,25.80 Z" fill="#775415" stroke="none" /><path d="M 4.49,22.68 L 4.49,23.79 L 5.41,24.24 L 5.41,23.13 L 4.55,22.68 Z" fill="#775415" stroke="none" /><path d="M 13.55,20.55 L 13.55,21.66 L 14.35,22.08 L 14.41,22.08 L 14.41,20.96 Z" fill="#775415" stroke="none" /><path d="M 7.22,17.40 L 7.22,18.51 L 8.05,18.93 L 8.11,18.93 L 8.11,17.81 L 7.28,17.40 Z" fill="#775415" stroke="none" /><path d="M 13.55,17.24 L 13.55,18.35 L 14.41,18.77 L 14.41,17.65 L 13.61,17.24 Z" fill="#775415" stroke="none" /><path d="M 3.59,14.47 L 3.59,15.59 L 4.42,16.00 L 4.49,16.00 L 4.49,14.89 L 3.66,14.47 Z" fill="#775415" stroke="none" /><path d="M 2.67,11.80 L 2.67,12.91 L 3.59,13.36 L 3.59,12.25 L 2.74,11.80 Z" fill="#775415" stroke="none" /><path d="M 5.41,24.24 L 5.41,25.35 L 6.30,25.80 L 6.30,24.68 Z" fill="#775515" stroke="none" /><path d="M 0.00,18.23 L 0.00,19.34 L 0.83,19.75 L 0.89,19.75 L 0.89,18.64 L 0.06,18.23 Z" fill="#775515" stroke="none" /><path d="M 12.63,16.76 L 12.63,17.88 L 13.49,18.32 L 13.55,18.32 L 13.55,17.21 Z" fill="#775515" stroke="none" /><path d="M 13.55,16.13 L 13.55,17.24 L 14.41,17.65 L 14.41,16.54 L 13.61,16.13 Z" fill="#775615" stroke="none" /><path d="M 3.59,20.01 L 3.59,21.12 L 4.49,21.57 L 4.49,20.45 Z" fill="#765316" stroke="none" /><path d="M 0.00,19.34 L 0.00,20.42 L 0.89,20.87 L 0.89,19.75 L 0.06,19.34 Z" fill="#765316" stroke="none" /><path d="M 0.00,20.42 L 0.00,21.53 L 0.89,21.98 L 0.89,20.87 Z" fill="#775316" stroke="none" /><path d="M 7.22,15.17 L 7.22,16.29 L 8.05,16.70 L 8.11,16.70 L 8.11,15.62 Z" fill="#775316" stroke="none" /><path d="M 0.89,9.80 L 0.89,10.91 L 1.72,11.32 L 1.78,11.32 L 1.78,10.21 L 0.95,9.80 Z" fill="#735416" stroke="none" /><path d="M 9.92,26.50 L 9.92,27.61 L 10.78,28.06 L 10.85,28.06 L 10.85,26.94 Z" fill="#765416" stroke="none" /><path d="M 6.30,25.80 L 6.30,26.91 L 7.22,27.36 L 7.22,26.24 Z" fill="#765416" stroke="none" /><path d="M 13.55,25.00 L 13.55,26.12 L 14.41,26.53 L 14.41,25.42 L 13.61,25.00 Z" fill="#765416" stroke="none" /><path d="M 5.41,23.13 L 5.41,24.24 L 6.30,24.68 L 6.30,23.57 Z" fill="#765416" stroke="none" /><path d="M 3.59,21.12 L 3.59,22.23 L 4.42,22.65 L 4.49,22.65 L 4.49,21.57 Z" fill="#765416" stroke="none" /><path d="M 6.30,20.26 L 6.30,21.38 L 7.22,21.82 L 7.22,20.71 L 6.36,20.26 Z" fill="#765416" stroke="none" /><path d="M 4.49,19.34 L 4.49,20.45 L 5.34,20.90 L 5.41,20.90 L 5.41,19.79 Z" fill="#765416" stroke="none" /><path d="M 8.11,17.84 L 8.11,18.96 L 9.03,19.40 L 9.03,18.29 L 8.17,17.84 Z" fill="#765416" stroke="none" /><path d="M 2.67,16.22 L 2.67,17.34 L 3.53,17.78 L 3.59,17.78 L 3.59,16.67 Z" fill="#765416" stroke="none" /><path d="M 4.49,16.03 L 4.49,17.15 L 5.34,17.56 L 5.41,17.62 L 5.41,18.70 L 6.30,19.15 L 6.30,18.04 L 5.47,17.62 L 5.41,17.56 L 5.41,16.48 L 4.55,16.03 Z" fill="#765416" stroke="none" /><path d="M 8.11,15.62 L 8.11,16.73 L 9.03,17.18 L 9.03,16.06 Z" fill="#765416" stroke="none" /><path d="M 13.55,15.01 L 13.55,16.13 L 14.41,16.54 L 14.41,15.43 Z" fill="#765416" stroke="none" /><path d="M 5.41,13.17 L 5.41,14.28 L 6.23,14.70 L 6.30,14.70 L 6.30,13.58 L 5.47,13.17 Z" fill="#765416" stroke="none" /><path d="M 0.89,7.63 L 0.89,8.68 L 0.92,8.72 L 3.53,10.02 L 3.59,10.02 L 3.59,8.97 L 3.56,8.94 L 0.95,7.63 Z" fill="#765416" stroke="none" /><path d="M 9.03,24.94 L 9.03,26.05 L 9.92,26.50 L 9.92,25.38 Z" fill="#775416" stroke="none" /><path d="M 6.30,23.57 L 6.30,24.68 L 7.22,25.16 L 7.22,26.27 L 8.05,26.69 L 8.11,26.69 L 8.11,25.57 L 7.22,25.13 L 7.22,24.02 Z" fill="#775416" stroke="none" /><path d="M 9.03,21.63 L 9.03,22.74 L 10.85,23.63 L 10.85,22.52 L 9.10,21.63 Z" fill="#775416" stroke="none" /><path d="M 0.89,20.87 L 0.89,21.98 L 1.78,22.43 L 1.78,21.31 Z" fill="#775416" stroke="none" /><path d="M 2.67,20.68 L 2.67,21.76 L 3.53,22.20 L 3.59,22.20 L 3.59,21.12 L 2.74,20.68 Z" fill="#775416" stroke="none" /><path d="M 5.41,18.70 L 5.41,20.93 L 6.23,21.34 L 6.30,21.34 L 6.30,20.29 L 6.33,20.26 L 7.22,20.71 L 7.22,19.59 Z" fill="#775416" stroke="none" /><path d="M 13.55,18.35 L 13.55,19.44 L 14.35,19.85 L 14.41,19.85 L 14.41,18.77 L 13.61,18.35 Z" fill="#775416" stroke="none" /><path d="M 1.78,18.00 L 1.78,19.12 L 2.61,19.53 L 2.67,19.53 L 2.67,18.42 L 1.84,18.00 Z" fill="#775416" stroke="none" /><path d="M 3.59,17.81 L 3.59,18.89 L 4.49,19.34 L 4.49,18.23 L 3.66,17.81 Z" fill="#775416" stroke="none" /><path d="M 1.78,15.78 L 1.78,16.89 L 2.67,17.34 L 2.67,16.22 Z" fill="#775416" stroke="none" /><path d="M 3.59,15.59 L 3.59,16.70 L 4.42,17.11 L 4.49,17.11 L 4.49,16.00 L 3.66,15.59 Z" fill="#775416" stroke="none" /><path d="M 13.55,13.96 L 13.55,15.01 L 14.35,15.43 L 14.41,15.43 L 14.41,14.38 L 13.61,13.96 Z" fill="#775416" stroke="none" /><path d="M 9.92,12.15 L 9.92,13.20 L 10.78,13.65 L 10.85,13.65 L 10.85,12.60 L 9.99,12.15 Z" fill="#775416" stroke="none" /><path d="M 6.30,11.39 L 6.30,13.61 L 7.22,14.06 L 7.22,11.83 Z" fill="#775416" stroke="none" /><path d="M 2.67,10.69 L 2.67,11.80 L 3.59,12.25 L 3.59,11.13 L 2.74,10.69 Z" fill="#775416" stroke="none" /><path d="M 3.59,8.97 L 3.59,10.05 L 4.42,10.47 L 4.49,10.47 L 4.49,9.42 Z" fill="#775416" stroke="none" /><path d="M 7.22,10.78 L 7.22,11.86 L 8.05,12.28 L 8.11,12.28 L 8.11,11.23 Z" fill="#765516" stroke="none" /><path d="M 12.63,30.06 L 12.63,31.14 L 13.55,31.59 L 13.55,30.50 Z" fill="#775516" stroke="none" /><path d="M 11.80,27.42 L 11.74,27.42 L 11.74,28.47 L 11.71,28.50 L 10.91,28.09 L 10.85,28.09 L 10.85,29.17 L 11.71,29.61 L 11.74,29.61 L 11.74,28.56 L 11.77,28.53 L 12.56,28.95 L 12.63,28.95 L 12.63,27.83 Z" fill="#775516" stroke="none" /><path d="M 7.22,26.27 L 7.22,27.36 L 8.11,27.80 L 8.11,26.69 L 7.28,26.27 Z" fill="#775516" stroke="none" /><path d="M 4.49,24.91 L 4.49,25.99 L 5.34,26.43 L 5.41,26.43 L 5.41,25.35 L 4.55,24.91 Z" fill="#775516" stroke="none" /><path d="M 12.63,24.52 L 12.63,25.64 L 13.49,26.08 L 13.55,26.08 L 13.55,24.97 Z" fill="#775516" stroke="none" /><path d="M 10.85,23.63 L 10.85,24.75 L 11.74,25.19 L 11.74,24.08 Z" fill="#775516" stroke="none" /><path d="M 7.22,19.63 L 7.22,20.71 L 8.05,21.12 L 8.11,21.18 L 8.11,22.27 L 8.97,22.71 L 9.03,22.71 L 9.03,21.60 L 8.17,21.18 L 8.11,21.12 L 8.11,20.04 L 7.28,19.63 Z" fill="#775516" stroke="none" /><path d="M 0.89,18.67 L 0.89,20.87 L 1.72,21.28 L 1.78,21.34 L 1.78,22.43 L 1.81,22.46 L 4.42,23.76 L 4.49,23.76 L 4.49,22.71 L 4.52,22.68 L 5.41,23.13 L 5.41,22.01 L 4.49,21.57 L 4.49,22.62 L 4.45,22.65 L 2.74,21.79 L 2.67,21.73 L 2.67,20.64 L 1.78,20.20 L 1.78,19.09 L 0.95,18.67 Z" fill="#775516" stroke="none" /><path d="M 9.03,18.29 L 9.03,20.52 L 9.92,20.96 L 9.92,18.74 Z" fill="#775516" stroke="none" /><path d="M 10.85,16.99 L 10.85,18.10 L 12.60,18.96 L 12.63,18.99 L 12.63,20.10 L 13.55,20.55 L 13.55,19.44 L 12.63,18.96 L 12.63,17.88 Z" fill="#775516" stroke="none" /><path d="M 0.89,15.33 L 0.89,16.45 L 1.78,16.89 L 1.78,15.78 Z" fill="#775516" stroke="none" /><path d="M 4.49,14.92 L 4.49,16.03 L 6.30,16.92 L 6.30,15.81 L 4.55,14.92 Z" fill="#775516" stroke="none" /><path d="M 8.11,14.50 L 8.11,15.62 L 9.86,16.51 L 9.92,16.51 L 9.92,15.40 Z" fill="#775516" stroke="none" /><path d="M 11.74,14.12 L 11.74,15.20 L 13.49,16.10 L 13.55,16.10 L 13.55,15.01 L 11.80,14.12 Z" fill="#775516" stroke="none" /><path d="M 7.22,11.86 L 7.22,12.95 L 8.11,13.39 L 8.11,12.28 L 7.28,11.86 Z" fill="#775516" stroke="none" /><path d="M 5.41,10.94 L 5.41,12.06 L 6.23,12.47 L 6.30,12.47 L 6.30,11.39 Z" fill="#775516" stroke="none" /><path d="M 0.00,7.19 L 0.00,9.35 L 1.75,10.21 L 1.78,10.24 L 1.78,11.36 L 2.61,11.77 L 2.67,11.77 L 2.67,10.66 L 1.78,10.21 L 1.78,9.13 L 0.95,8.72 L 0.89,8.65 L 0.89,7.60 L 0.06,7.19 Z" fill="#775516" stroke="none" /><path d="M 11.74,26.31 L 11.74,27.42 L 12.56,27.83 L 12.63,27.83 L 12.63,26.72 L 11.80,26.31 Z" fill="#775616" stroke="none" /><path d="M 11.74,24.08 L 11.74,25.19 L 12.63,25.64 L 12.63,24.52 Z" fill="#775616" stroke="none" /><path d="M 9.92,15.43 L 9.92,16.54 L 10.85,16.99 L 10.85,15.87 L 9.99,15.43 Z" fill="#775616" stroke="none" /><path d="M 8.11,12.31 L 8.11,13.39 L 8.97,13.84 L 9.03,13.84 L 9.03,12.76 L 8.17,12.31 Z" fill="#775616" stroke="none" /><path d="M 12.63,15.65 L 12.63,16.76 L 13.49,17.21 L 13.55,17.21 L 13.55,16.10 Z" fill="#785616" stroke="none" /><path d="M 5.41,16.48 L 5.41,17.59 L 6.30,18.04 L 6.30,16.92 Z" fill="#775417" stroke="none" /><path d="M 8.11,26.72 L 8.11,27.80 L 8.97,28.25 L 9.03,28.25 L 9.03,27.17 L 8.17,26.72 Z" fill="#775517" stroke="none" /><path d="M 13.61,26.12 L 13.55,26.12 L 13.55,27.13 L 13.52,27.17 L 12.69,26.75 L 12.63,26.75 L 12.63,27.86 L 13.52,28.31 L 13.55,28.31 L 13.55,27.26 L 13.58,27.23 L 14.35,27.61 L 14.41,27.61 L 14.41,26.53 Z" fill="#775517" stroke="none" /><path d="M 1.78,23.54 L 1.78,24.65 L 2.61,25.07 L 2.67,25.07 L 2.67,23.98 Z" fill="#775517" stroke="none" /><path d="M 13.55,22.78 L 13.55,23.89 L 14.41,24.30 L 14.41,23.19 Z" fill="#775517" stroke="none" /><path d="M 0.00,22.65 L 0.00,24.81 L 0.89,25.26 L 0.89,23.09 Z" fill="#775517" stroke="none" /><path d="M 6.30,22.49 L 6.30,23.57 L 7.16,24.02 L 7.22,24.02 L 7.22,22.93 L 6.36,22.49 Z" fill="#775517" stroke="none" /><path d="M 7.22,20.71 L 7.22,21.82 L 8.11,22.27 L 8.11,21.15 Z" fill="#775517" stroke="none" /><path d="M 9.92,19.85 L 9.92,20.96 L 11.67,21.85 L 11.74,21.85 L 11.74,20.74 Z" fill="#775517" stroke="none" /><path d="M 8.11,18.96 L 8.11,20.07 L 9.03,20.52 L 9.03,19.40 L 8.17,18.96 Z" fill="#775517" stroke="none" /><path d="M 0.89,17.56 L 0.89,18.67 L 1.78,19.12 L 1.78,20.23 L 2.61,20.64 L 2.67,20.64 L 2.67,19.53 L 1.78,19.09 L 1.78,17.97 L 0.95,17.56 Z" fill="#775517" stroke="none" /><path d="M 6.30,15.81 L 6.30,16.92 L 6.33,16.95 L 9.03,18.29 L 9.03,17.18 L 9.00,17.15 Z" fill="#775517" stroke="none" /><path d="M 10.85,14.76 L 10.85,16.99 L 12.63,17.88 L 12.63,16.76 L 11.80,16.35 L 11.74,16.29 L 11.74,15.20 Z" fill="#775517" stroke="none" /><path d="M 7.22,14.06 L 7.22,15.17 L 8.11,15.62 L 8.11,14.50 Z" fill="#775517" stroke="none" /><path d="M 2.67,14.00 L 2.67,16.22 L 3.53,16.67 L 3.59,16.67 L 3.59,14.44 Z" fill="#775517" stroke="none" /><path d="M 0.00,9.35 L 0.00,10.47 L 0.83,10.88 L 0.89,10.88 L 0.89,9.77 L 0.06,9.35 Z" fill="#775517" stroke="none" /><path d="M 6.30,13.61 L 6.30,14.73 L 7.22,15.17 L 7.22,14.06 L 6.36,13.61 Z" fill="#7a5517" stroke="none" /><path d="M 13.55,30.54 L 13.55,31.59 L 14.35,32.00 L 14.41,32.00 L 14.41,30.95 L 13.61,30.54 Z" fill="#775617" stroke="none" /><path d="M 9.03,28.28 L 9.03,29.33 L 9.92,29.77 L 9.92,28.69 L 9.10,28.28 Z" fill="#775617" stroke="none" /><path d="M 7.22,27.36 L 7.22,28.44 L 8.05,28.85 L 8.11,28.85 L 8.11,27.80 Z" fill="#775617" stroke="none" /><path d="M 13.55,27.20 L 13.55,28.31 L 14.35,28.72 L 14.41,28.72 L 14.41,27.61 Z" fill="#775617" stroke="none" /><path d="M 3.59,23.35 L 3.59,24.46 L 4.42,24.87 L 4.49,24.87 L 4.49,23.76 L 3.66,23.35 Z" fill="#775617" stroke="none" /><path d="M 5.41,22.04 L 5.41,23.13 L 6.30,23.57 L 6.30,22.46 L 5.47,22.04 Z" fill="#775617" stroke="none" /><path d="M 7.22,21.82 L 7.22,22.93 L 8.11,23.38 L 8.11,22.27 Z" fill="#775617" stroke="none" /><path d="M 0.00,21.53 L 0.00,22.65 L 0.83,23.06 L 0.89,23.13 L 0.89,25.26 L 4.42,27.04 L 4.49,27.04 L 4.49,25.99 L 1.81,24.65 L 1.78,24.62 L 1.78,23.54 L 0.95,23.13 L 0.89,23.06 L 0.89,21.98 Z" fill="#775617" stroke="none" /><path d="M 11.74,20.77 L 11.74,21.88 L 12.56,22.30 L 12.63,22.30 L 12.63,21.18 L 11.80,20.77 Z" fill="#775617" stroke="none" /><path d="M 12.66,17.88 L 12.63,17.88 L 12.63,18.93 L 12.60,18.96 L 11.80,18.54 L 11.74,18.54 L 11.74,19.66 L 12.56,20.07 L 12.63,20.07 L 12.63,19.02 L 12.66,18.99 L 13.55,19.44 L 13.55,18.32 Z" fill="#775617" stroke="none" /><path d="M 9.03,17.18 L 9.03,18.29 L 9.92,18.74 L 9.92,17.62 Z" fill="#775617" stroke="none" /><path d="M 9.92,14.31 L 9.92,15.43 L 10.85,15.87 L 10.85,14.76 L 9.99,14.31 Z" fill="#775617" stroke="none" /><path d="M 8.11,13.39 L 8.11,14.50 L 8.97,14.95 L 9.03,14.95 L 9.03,13.84 Z" fill="#775617" stroke="none" /><path d="M 0.00,11.58 L 0.00,12.66 L 0.83,13.07 L 0.89,13.14 L 0.89,14.22 L 1.78,14.66 L 1.78,13.55 L 0.95,13.14 L 0.89,13.07 L 0.89,11.99 L 0.06,11.58 Z" fill="#775617" stroke="none" /><path d="M 1.78,11.36 L 1.78,12.47 L 2.61,12.88 L 2.67,12.88 L 2.67,11.77 L 1.84,11.36 Z" fill="#775617" stroke="none" /><path d="M 9.03,27.17 L 9.03,28.28 L 9.86,28.69 L 9.92,28.69 L 9.92,27.61 Z" fill="#785617" stroke="none" /><path d="M 9.92,24.30 L 9.92,25.38 L 11.67,26.27 L 11.74,26.27 L 11.74,25.19 L 9.99,24.30 Z" fill="#785617" stroke="none" /><path d="M 8.11,22.27 L 8.11,23.38 L 8.97,23.83 L 9.03,23.83 L 9.03,22.71 Z" fill="#785617" stroke="none" /><path d="M 9.92,17.62 L 9.92,19.85 L 10.78,20.29 L 10.85,20.29 L 10.85,19.24 L 10.88,19.21 L 11.67,19.63 L 11.74,19.63 L 11.74,18.51 Z" fill="#785617" stroke="none" /><path d="M 3.59,13.36 L 3.59,14.47 L 4.42,14.89 L 4.49,14.89 L 4.49,13.81 Z" fill="#785617" stroke="none" /><path d="M 0.00,10.47 L 0.00,11.58 L 0.83,11.99 L 0.89,11.99 L 0.89,10.88 L 0.06,10.47 Z" fill="#785617" stroke="none" /><path d="M 9.92,27.61 L 9.92,28.72 L 10.85,29.17 L 10.85,28.06 Z" fill="#795617" stroke="none" /><path d="M 12.63,20.10 L 12.63,21.22 L 13.55,21.66 L 13.55,20.55 L 12.69,20.10 Z" fill="#795617" stroke="none" /><path d="M 10.85,22.52 L 10.85,23.63 L 12.63,24.52 L 12.63,23.41 Z" fill="#775717" stroke="none" /><path d="M 0.89,21.98 L 0.89,23.09 L 2.67,23.98 L 2.67,22.87 Z" fill="#775717" stroke="none" /><path d="M 9.03,13.87 L 9.03,14.98 L 9.86,15.40 L 9.92,15.40 L 9.92,14.28 L 9.10,13.87 Z" fill="#775717" stroke="none" /><path d="M 13.55,29.42 L 13.55,30.54 L 14.41,30.95 L 14.41,29.84 Z" fill="#795717" stroke="none" /><path d="M 6.30,18.04 L 6.30,19.15 L 7.16,19.59 L 7.22,19.59 L 7.22,18.48 Z" fill="#795717" stroke="none" /><path d="M 3.59,16.70 L 3.59,17.81 L 5.41,18.70 L 5.41,17.59 L 3.66,16.70 Z" fill="#795717" stroke="none" /><path d="M 0.00,13.77 L 0.00,14.89 L 0.89,15.33 L 0.89,14.22 Z" fill="#795717" stroke="none" /><path d="M 7.22,12.95 L 7.22,14.06 L 8.11,14.50 L 8.11,13.39 Z" fill="#795717" stroke="none" /><path d="M 2.67,12.91 L 2.67,14.00 L 3.53,14.44 L 3.59,14.44 L 3.59,13.36 L 2.74,12.91 Z" fill="#795717" stroke="none" /><path d="M 8.11,24.49 L 8.11,25.61 L 9.03,26.05 L 9.03,24.94 L 8.17,24.49 Z" fill="#7c5717" stroke="none" /><path d="M 11.74,15.20 L 11.74,16.32 L 12.63,16.76 L 12.63,15.65 Z" fill="#785817" stroke="none" /><path d="M 6.30,16.92 L 6.30,18.04 L 7.16,18.48 L 7.22,18.48 L 7.22,17.37 Z" fill="#7a5518" stroke="none" /><path d="M 8.11,27.80 L 8.11,28.88 L 9.03,29.33 L 9.03,28.25 Z" fill="#775618" stroke="none" /><path d="M 6.30,26.91 L 6.30,27.96 L 7.16,28.41 L 7.22,28.41 L 7.22,27.36 L 6.36,26.91 Z" fill="#775618" stroke="none" /><path d="M 8.11,20.07 L 8.11,21.15 L 8.97,21.60 L 9.03,21.60 L 9.03,20.52 L 8.17,20.07 Z" fill="#775618" stroke="none" /><path d="M 1.78,14.66 L 1.78,15.78 L 2.67,16.22 L 2.67,15.11 Z" fill="#775618" stroke="none" /><path d="M 4.49,9.42 L 4.49,10.50 L 5.41,10.94 L 5.41,9.86 Z" fill="#775618" stroke="none" /><path d="M 1.78,16.89 L 1.78,18.00 L 2.61,18.42 L 2.67,18.42 L 2.67,17.34 Z" fill="#775718" stroke="none" /><path d="M 4.49,25.99 L 4.49,27.07 L 5.41,27.51 L 5.41,26.43 Z" fill="#795718" stroke="none" /><path d="M 12.63,25.64 L 12.63,26.75 L 13.55,27.20 L 13.55,26.08 Z" fill="#795718" stroke="none" /><path d="M 9.03,23.86 L 9.03,24.94 L 9.92,25.38 L 9.92,24.27 L 9.10,23.86 Z" fill="#795718" stroke="none" /><path d="M 12.63,21.22 L 12.63,22.33 L 14.35,23.19 L 14.41,23.19 L 14.41,22.08 L 12.69,21.22 Z" fill="#795718" stroke="none" /><path d="M 1.81,13.55 L 1.78,13.55 L 1.78,14.60 L 1.75,14.63 L 0.89,14.22 L 0.89,15.27 L 0.86,15.30 L 0.00,14.89 L 0.00,18.23 L 0.83,18.64 L 0.89,18.64 L 0.89,17.59 L 0.92,17.56 L 1.72,17.97 L 1.78,17.97 L 1.78,16.89 L 0.95,16.48 L 0.89,16.41 L 0.89,15.40 L 0.95,15.36 L 1.78,15.78 L 1.78,14.73 L 1.81,14.70 L 2.67,15.11 L 2.67,14.00 Z" fill="#795718" stroke="none" /><path d="M 9.92,13.20 L 9.92,14.31 L 10.85,14.76 L 10.85,13.65 Z" fill="#795718" stroke="none" /><path d="M 6.30,10.34 L 6.30,11.39 L 7.16,11.83 L 7.22,11.83 L 7.22,10.78 L 6.36,10.34 Z" fill="#795718" stroke="none" /><path d="M 7.22,22.93 L 7.22,24.05 L 8.05,24.46 L 8.11,24.46 L 8.11,23.38 Z" fill="#7a5718" stroke="none" /><path d="M 10.85,21.44 L 10.85,22.52 L 11.74,22.97 L 11.74,21.85 L 10.91,21.44 Z" fill="#7a5718" stroke="none" /><path d="M 9.03,20.52 L 9.03,21.63 L 9.86,22.04 L 9.92,22.04 L 9.92,20.96 Z" fill="#7a5718" stroke="none" /><path d="M 11.74,19.66 L 11.74,20.77 L 12.56,21.18 L 12.63,21.18 L 12.63,20.07 L 11.80,19.66 Z" fill="#7a5718" stroke="none" /><path d="M 7.22,18.51 L 7.22,19.63 L 8.05,20.04 L 8.11,20.04 L 8.11,18.93 L 7.28,18.51 Z" fill="#7a5718" stroke="none" /><path d="M 1.78,12.47 L 1.78,13.55 L 2.67,14.00 L 2.67,12.88 L 1.84,12.47 Z" fill="#7a5718" stroke="none" /><path d="M 2.67,22.87 L 2.67,23.98 L 3.53,24.43 L 3.59,24.43 L 3.59,23.32 Z" fill="#795818" stroke="none" /><path d="M 10.85,19.21 L 10.85,20.33 L 11.67,20.74 L 11.74,20.74 L 11.74,19.63 L 10.91,19.21 Z" fill="#795818" stroke="none" /><path d="M 9.03,11.71 L 9.03,12.76 L 9.92,13.20 L 9.92,12.12 L 9.10,11.71 Z" fill="#795818" stroke="none" /><path d="M 0.89,10.91 L 0.89,12.02 L 1.72,12.44 L 1.78,12.44 L 1.78,11.32 L 0.95,10.91 Z" fill="#795818" stroke="none" /><path d="M 13.55,28.31 L 13.55,29.42 L 14.35,29.84 L 14.41,29.84 L 14.41,28.72 Z" fill="#7a5818" stroke="none" /><path d="M 5.41,26.47 L 5.41,27.51 L 6.30,27.96 L 6.30,26.88 L 5.47,26.47 Z" fill="#7a5818" stroke="none" /><path d="M 11.74,25.19 L 11.74,26.31 L 12.56,26.72 L 12.63,26.72 L 12.63,25.64 Z" fill="#7a5818" stroke="none" /><path d="M 8.11,23.38 L 8.11,24.49 L 9.03,24.94 L 9.03,23.89 L 9.07,23.86 L 10.85,24.75 L 10.85,23.63 L 10.82,23.60 L 9.10,22.74 L 9.03,22.74 L 9.03,23.79 L 9.00,23.83 Z" fill="#7a5818" stroke="none" /><path d="M 11.74,21.88 L 11.74,22.97 L 12.63,23.41 L 12.63,22.30 L 11.80,21.88 Z" fill="#7a5818" stroke="none" /><path d="M 9.92,20.96 L 9.92,22.08 L 10.85,22.52 L 10.85,21.41 Z" fill="#7a5818" stroke="none" /><path d="M 13.55,19.44 L 13.55,20.55 L 14.35,20.96 L 14.41,20.96 L 14.41,19.85 Z" fill="#7a5818" stroke="none" /><path d="M 0.95,12.02 L 0.89,12.02 L 0.89,13.04 L 0.86,13.07 L 0.00,12.66 L 0.00,13.77 L 0.86,14.22 L 0.89,14.22 L 0.89,13.17 L 0.92,13.14 L 1.78,13.55 L 1.78,12.44 Z" fill="#7a5818" stroke="none" /><path d="M 8.11,11.23 L 8.11,12.31 L 8.97,12.72 L 9.03,12.79 L 9.03,13.87 L 9.86,14.28 L 9.92,14.28 L 9.92,13.20 L 9.10,12.79 L 9.03,12.72 L 9.03,11.67 Z" fill="#7a5818" stroke="none" /><path d="M 5.41,9.89 L 5.41,10.94 L 6.30,11.39 L 6.30,10.31 L 5.47,9.89 Z" fill="#7a5818" stroke="none" /><path d="M 1.78,9.13 L 1.78,10.24 L 2.61,10.66 L 2.67,10.66 L 2.67,9.57 Z" fill="#7a5818" stroke="none" /><path d="M 4.49,20.45 L 4.49,21.57 L 5.34,22.01 L 5.41,22.01 L 5.41,20.90 Z" fill="#7b5818" stroke="none" /><path d="M 9.03,16.10 L 9.03,17.18 L 10.78,18.07 L 10.85,18.07 L 10.85,16.99 L 9.10,16.10 Z" fill="#7b5818" stroke="none" /><path d="M 12.63,27.86 L 12.63,28.98 L 13.55,29.42 L 13.55,28.31 L 12.69,27.86 Z" fill="#7a5918" stroke="none" /><path d="M 12.63,23.41 L 12.63,24.52 L 13.49,24.97 L 13.55,24.97 L 13.55,23.86 Z" fill="#7b5918" stroke="none" /><path d="M 3.59,10.05 L 3.59,11.13 L 4.49,11.58 L 4.49,10.47 L 3.66,10.05 Z" fill="#7a5619" stroke="none" /><path d="M 13.55,23.89 L 13.55,25.00 L 14.41,25.42 L 14.41,24.30 L 13.61,23.89 Z" fill="#7a5819" stroke="none" /><path d="M 2.67,9.57 L 2.67,10.69 L 3.59,11.13 L 3.59,10.02 Z" fill="#7a5819" stroke="none" /><path d="M 5.41,20.93 L 5.41,22.04 L 6.23,22.46 L 6.30,22.46 L 6.30,21.34 L 5.47,20.93 Z" fill="#7b5819" stroke="none" /><path d="M 4.49,23.79 L 4.49,24.91 L 5.41,25.35 L 5.41,24.24 L 4.55,23.79 Z" fill="#795919" stroke="none" /><path d="M 4.49,10.50 L 4.49,11.58 L 5.34,12.02 L 5.41,12.02 L 5.41,10.94 L 4.55,10.50 Z" fill="#77561a" stroke="none" /><path d="M 12.63,22.33 L 12.63,23.41 L 13.49,23.86 L 13.55,23.86 L 13.55,22.78 L 12.69,22.33 Z" fill="#7a581a" stroke="none" /><path d="M 7.22,24.05 L 7.22,25.16 L 8.05,25.57 L 8.11,25.57 L 8.11,24.46 L 7.28,24.05 Z" fill="#7b591a" stroke="none" /><path d="M 11.71,2.19 L 11.71,2.23 L 12.53,2.64 L 12.66,2.64 L 13.49,2.23 L 13.46,2.16 L 12.63,1.75 L 12.56,1.75 Z" fill="#b87e1e" stroke="none" /><path d="M 6.30,5.79 L 6.30,5.85 L 7.13,6.27 L 7.22,6.27 L 8.05,5.85 L 8.02,5.79 L 7.19,5.38 L 7.13,5.38 Z" fill="#b1811e" stroke="none" /><path d="M 11.71,5.82 L 11.71,5.85 L 12.53,6.27 L 12.66,6.27 L 13.49,5.85 L 13.46,5.79 L 12.63,5.38 L 12.56,5.38 Z" fill="#b7801f" stroke="none" /><path d="M 18.96,7.60 L 18.96,7.67 L 19.79,8.08 L 19.88,8.08 L 20.71,7.67 L 20.71,7.60 L 19.88,7.19 L 19.79,7.19 Z" fill="#b37e20" stroke="none" /><path d="M 19.85,8.08 L 19.85,8.11 L 20.68,8.52 L 20.80,8.52 L 21.63,8.11 L 21.60,8.05 L 20.77,7.63 L 20.71,7.63 Z" fill="#b37f20" stroke="none" /><path d="M 17.15,4.90 L 17.18,4.96 L 18.00,5.38 L 18.07,5.38 L 18.93,4.93 L 18.93,4.90 L 18.10,4.49 L 17.97,4.49 Z" fill="#b37f20" stroke="none" /><path d="M 17.97,12.56 L 17.11,12.15 L 15.33,13.04 L 15.33,13.07 L 16.13,13.49 L 16.22,13.49 L 17.94,12.63 Z" fill="#b57f20" stroke="none" /><path d="M 10.78,2.64 L 10.78,2.67 L 11.67,3.12 L 12.60,2.67 L 12.60,2.64 L 11.71,2.19 Z" fill="#b57f20" stroke="none" /><path d="M 14.44,13.49 L 14.44,13.55 L 15.20,13.93 L 15.33,13.93 L 16.16,13.52 L 16.13,13.46 L 15.36,13.07 L 15.27,13.07 Z" fill="#b58020" stroke="none" /><path d="M 18.04,8.08 L 18.04,8.11 L 18.86,8.52 L 18.99,8.52 L 19.82,8.11 L 19.79,8.05 L 18.96,7.63 L 18.89,7.63 Z" fill="#b58020" stroke="none" /><path d="M 1.81,6.27 L 1.81,6.33 L 2.58,6.71 L 2.70,6.71 L 3.53,6.30 L 3.50,6.23 L 2.74,5.85 L 2.64,5.85 Z" fill="#b58020" stroke="none" /><path d="M 17.11,8.52 L 17.11,8.56 L 18.00,9.00 L 18.93,8.56 L 18.93,8.52 L 18.04,8.08 Z" fill="#b78020" stroke="none" /><path d="M 2.70,5.82 L 2.74,5.88 L 3.50,6.27 L 3.59,6.27 L 4.42,5.85 L 4.42,5.79 L 3.66,5.41 L 3.53,5.41 Z" fill="#b78020" stroke="none" /><path d="M 15.33,12.15 L 15.33,12.18 L 16.16,12.60 L 16.29,12.60 L 17.11,12.18 L 17.08,12.12 L 16.25,11.71 L 16.19,11.71 Z" fill="#b58021" stroke="none" /><path d="M 21.60,7.19 L 20.77,7.60 L 20.77,7.67 L 21.60,8.08 L 21.53,8.14 L 20.74,8.52 L 20.74,8.56 L 21.66,9.00 L 22.55,8.56 L 22.55,8.52 L 21.76,8.14 L 21.69,8.08 L 22.52,7.67 L 22.52,7.60 L 21.69,7.19 Z" fill="#b58021" stroke="none" /><path d="M 6.27,6.71 L 6.27,6.74 L 7.16,7.19 L 8.08,6.74 L 8.08,6.71 L 7.19,6.27 Z" fill="#b58021" stroke="none" /><path d="M 19.85,8.97 L 19.88,9.03 L 20.71,9.45 L 20.77,9.45 L 21.63,9.00 L 21.63,8.97 L 20.80,8.56 L 20.68,8.56 Z" fill="#b68021" stroke="none" /><path d="M 21.66,8.08 L 21.66,8.11 L 22.49,8.52 L 22.62,8.52 L 23.44,8.11 L 23.41,8.05 L 22.58,7.63 L 22.52,7.63 Z" fill="#b68021" stroke="none" /><path d="M 8.97,4.45 L 8.97,4.49 L 9.86,4.93 L 10.78,4.49 L 10.78,4.45 L 9.89,4.01 Z" fill="#b68021" stroke="none" /><path d="M 16.19,3.56 L 15.33,4.01 L 15.33,4.04 L 16.16,4.45 L 16.13,4.52 L 15.33,4.90 L 15.33,4.93 L 16.19,5.38 L 15.36,5.79 L 15.33,5.85 L 16.16,6.27 L 16.29,6.27 L 17.11,5.85 L 17.11,5.82 L 16.25,5.38 L 18.04,4.49 L 18.04,4.45 L 16.25,3.56 Z" fill="#b68021" stroke="none" /><path d="M 2.64,6.71 L 2.64,6.74 L 3.53,7.19 L 4.45,6.74 L 4.45,6.71 L 3.56,6.27 Z" fill="#b68121" stroke="none" /><path d="M 10.85,12.56 L 10.88,12.63 L 11.71,13.04 L 11.77,13.04 L 12.60,12.63 L 12.60,12.60 L 11.71,12.15 Z" fill="#b78121" stroke="none" /><path d="M 8.14,11.23 L 8.14,11.26 L 8.97,11.67 L 9.10,11.67 L 9.86,11.29 L 9.86,11.23 L 9.03,10.82 L 8.94,10.82 Z" fill="#b78121" stroke="none" /><path d="M 5.38,7.16 L 5.41,7.22 L 6.23,7.63 L 6.30,7.63 L 7.16,7.19 L 7.16,7.16 L 6.33,6.74 L 6.20,6.74 Z" fill="#b78121" stroke="none" /><path d="M 18.96,6.71 L 18.99,6.78 L 19.82,7.19 L 20.74,6.74 L 20.74,6.71 L 19.91,6.30 L 19.79,6.30 Z" fill="#b78121" stroke="none" /><path d="M 14.41,8.08 L 14.41,8.11 L 15.30,8.56 L 16.22,8.11 L 16.22,8.08 L 15.33,7.63 Z" fill="#b88121" stroke="none" /><path d="M 21.66,7.16 L 21.69,7.22 L 22.52,7.63 L 22.58,7.63 L 23.44,7.19 L 23.44,7.16 L 22.62,6.74 L 22.49,6.74 Z" fill="#b88121" stroke="none" /><path d="M 1.75,7.16 L 1.78,7.22 L 2.61,7.63 L 2.67,7.63 L 3.53,7.19 L 3.53,7.16 L 2.70,6.74 L 2.58,6.74 Z" fill="#b88121" stroke="none" /><path d="M 4.45,6.71 L 4.45,6.74 L 5.34,7.19 L 6.27,6.74 L 6.27,6.71 L 5.38,6.27 Z" fill="#b88121" stroke="none" /><path d="M 7.19,5.34 L 7.19,5.41 L 8.02,5.82 L 8.11,5.82 L 8.94,5.41 L 8.94,5.34 L 8.11,4.93 L 8.02,4.93 Z" fill="#b88121" stroke="none" /><path d="M 5.34,5.34 L 4.49,4.93 L 3.59,5.38 L 3.59,5.41 L 4.42,5.82 L 4.49,5.82 L 5.31,5.41 Z" fill="#b88121" stroke="none" /><path d="M 11.71,4.01 L 11.71,4.04 L 12.53,4.45 L 12.66,4.45 L 13.49,4.04 L 13.46,3.98 L 12.63,3.56 L 12.56,3.56 Z" fill="#b88121" stroke="none" /><path d="M 9.00,3.53 L 9.00,3.59 L 9.83,4.01 L 9.92,4.01 L 10.75,3.59 L 10.75,3.53 L 9.92,3.12 L 9.83,3.12 Z" fill="#b88121" stroke="none" /><path d="M 11.71,12.15 L 11.71,12.18 L 12.53,12.60 L 12.66,12.60 L 13.49,12.18 L 13.46,12.12 L 12.63,11.71 L 12.56,11.71 Z" fill="#b88221" stroke="none" /><path d="M 9.89,4.01 L 9.89,4.04 L 10.72,4.45 L 10.85,4.45 L 11.67,4.04 L 11.64,3.98 L 10.82,3.56 L 10.75,3.56 Z" fill="#b88221" stroke="none" /><path d="M 18.04,2.64 L 18.04,2.67 L 18.93,3.12 L 19.79,2.70 L 19.75,2.64 L 18.93,2.23 L 18.86,2.23 Z" fill="#b88221" stroke="none" /><path d="M 11.77,13.01 L 11.77,13.07 L 12.60,13.49 L 12.69,13.49 L 13.49,13.07 L 13.49,13.04 L 12.66,12.63 L 12.53,12.63 Z" fill="#b88421" stroke="none" /><path d="M 14.41,4.45 L 14.41,4.49 L 15.30,4.93 L 16.22,4.49 L 16.22,4.45 L 15.33,4.01 Z" fill="#b68022" stroke="none" /><path d="M 17.15,2.19 L 17.15,2.23 L 17.97,2.64 L 18.10,2.64 L 18.86,2.26 L 18.86,2.19 L 18.04,1.78 L 17.94,1.78 Z" fill="#b68022" stroke="none" /><path d="M 12.66,13.49 L 12.66,13.52 L 13.49,13.93 L 13.61,13.93 L 14.38,13.55 L 14.38,13.49 L 13.55,13.07 L 13.46,13.07 Z" fill="#b68122" stroke="none" /><path d="M 15.33,9.42 L 15.33,9.48 L 16.16,9.89 L 16.25,9.89 L 17.08,9.48 L 17.08,9.42 L 16.25,9.00 L 16.16,9.00 Z" fill="#b68122" stroke="none" /><path d="M 4.52,9.42 L 4.52,9.45 L 5.34,9.86 L 5.47,9.86 L 6.23,9.48 L 6.23,9.42 L 5.41,9.00 L 5.31,9.00 Z" fill="#b68122" stroke="none" /><path d="M 13.52,8.52 L 13.55,8.59 L 14.38,9.00 L 14.44,9.00 L 15.30,8.56 L 15.30,8.52 L 14.47,8.11 L 14.35,8.11 Z" fill="#b68122" stroke="none" /><path d="M 18.93,8.52 L 18.93,8.56 L 19.82,9.00 L 20.74,8.56 L 20.74,8.52 L 19.85,8.08 Z" fill="#b68122" stroke="none" /><path d="M 27.93,7.60 L 27.13,7.19 L 27.04,7.19 L 24.37,8.52 L 24.37,8.56 L 25.19,8.97 L 25.26,8.97 L 27.93,7.63 Z" fill="#b68122" stroke="none" /><path d="M 15.33,6.71 L 15.36,6.78 L 16.19,7.19 L 16.25,7.19 L 17.11,6.74 L 18.00,7.19 L 18.07,7.19 L 18.93,6.74 L 18.93,6.71 L 18.10,6.30 L 17.97,6.30 L 17.18,6.71 L 17.08,6.71 L 16.29,6.30 L 16.16,6.30 Z" fill="#b68122" stroke="none" /><path d="M 12.60,6.27 L 12.60,6.30 L 13.49,6.74 L 14.41,6.30 L 14.41,6.27 L 13.52,5.82 Z" fill="#b68122" stroke="none" /><path d="M 5.38,6.27 L 5.38,6.30 L 6.20,6.71 L 6.33,6.71 L 7.16,6.30 L 7.13,6.23 L 6.30,5.82 L 6.23,5.82 Z" fill="#b68122" stroke="none" /><path d="M 18.07,5.34 L 18.07,5.41 L 18.89,5.82 L 18.99,5.82 L 19.82,5.41 L 19.82,5.34 L 18.99,4.93 L 18.89,4.93 Z" fill="#b68122" stroke="none" /><path d="M 14.44,5.34 L 14.44,5.41 L 15.27,5.82 L 15.36,5.82 L 16.19,5.41 L 16.19,5.34 L 15.36,4.93 L 15.27,4.93 Z" fill="#b68122" stroke="none" /><path d="M 10.78,4.45 L 10.78,4.49 L 11.67,4.93 L 12.60,4.49 L 12.60,4.45 L 11.71,4.01 Z" fill="#b68122" stroke="none" /><path d="M 13.52,4.01 L 13.52,4.04 L 14.35,4.45 L 14.47,4.45 L 15.30,4.04 L 15.27,3.98 L 14.44,3.56 L 14.38,3.56 Z" fill="#b68122" stroke="none" /><path d="M 8.08,4.01 L 8.08,4.04 L 8.91,4.45 L 9.03,4.45 L 9.86,4.04 L 9.83,3.98 L 9.00,3.56 L 8.94,3.56 Z" fill="#b68122" stroke="none" /><path d="M 13.55,13.93 L 13.55,13.96 L 14.38,14.38 L 14.44,14.38 L 15.27,13.96 L 15.27,13.93 L 14.44,13.52 L 14.38,13.52 Z" fill="#b78122" stroke="none" /><path d="M 17.15,12.18 L 18.00,12.60 L 18.89,12.15 L 18.89,12.12 L 18.07,11.71 L 18.00,11.71 L 17.18,12.12 Z" fill="#b78122" stroke="none" /><path d="M 9.92,12.12 L 9.92,12.15 L 10.82,12.60 L 11.67,12.18 L 11.64,12.12 L 10.82,11.71 L 10.75,11.71 Z" fill="#b78122" stroke="none" /><path d="M 18.96,9.42 L 18.96,9.48 L 20.68,10.34 L 20.80,10.34 L 21.63,9.92 L 21.60,9.86 L 19.88,9.00 L 19.79,9.00 Z" fill="#b78122" stroke="none" /><path d="M 22.58,7.60 L 22.58,7.67 L 23.41,8.08 L 23.51,8.08 L 24.33,7.67 L 24.33,7.60 L 23.51,7.19 L 23.41,7.19 Z" fill="#b78122" stroke="none" /><path d="M 18.04,6.27 L 18.04,6.30 L 18.93,6.74 L 19.85,6.30 L 19.85,6.27 L 18.96,5.82 Z" fill="#b78122" stroke="none" /><path d="M 7.19,6.27 L 7.19,6.30 L 8.02,6.71 L 8.14,6.71 L 8.97,6.30 L 8.97,6.27 L 8.08,5.82 Z" fill="#b78122" stroke="none" /><path d="M 18.96,4.90 L 18.99,4.96 L 19.82,5.38 L 19.88,5.38 L 20.74,4.93 L 20.74,4.90 L 19.91,4.49 L 19.79,4.49 Z" fill="#b78122" stroke="none" /><path d="M 8.08,4.90 L 8.11,4.96 L 8.94,5.38 L 9.00,5.38 L 9.86,4.93 L 9.86,4.90 L 9.03,4.49 L 8.91,4.49 Z" fill="#b78122" stroke="none" /><path d="M 19.85,10.78 L 19.88,10.85 L 20.64,11.23 L 20.74,11.23 L 21.57,10.82 L 21.57,10.75 L 20.80,10.37 L 20.68,10.37 Z" fill="#b68222" stroke="none" /><path d="M 18.93,10.34 L 18.93,10.37 L 19.82,10.82 L 20.74,10.37 L 20.74,10.34 L 19.85,9.89 Z" fill="#b78322" stroke="none" /><path d="M 10.82,7.16 L 10.82,7.22 L 11.64,7.63 L 11.74,7.63 L 12.56,7.22 L 12.56,7.16 L 11.74,6.74 L 11.64,6.74 Z" fill="#b78322" stroke="none" /><path d="M 12.63,3.53 L 12.63,3.59 L 13.46,4.01 L 13.55,4.01 L 14.38,3.59 L 14.38,3.53 L 13.55,3.12 L 13.46,3.12 Z" fill="#b78322" stroke="none" /><path d="M 16.22,8.97 L 16.25,9.03 L 17.08,9.45 L 17.15,9.45 L 18.00,9.00 L 18.00,8.97 L 17.18,8.56 L 17.05,8.56 Z" fill="#b78023" stroke="none" /><path d="M 16.25,1.72 L 16.25,1.78 L 17.08,2.19 L 17.18,2.19 L 17.97,1.78 L 17.97,1.75 L 17.15,1.34 L 17.02,1.34 Z" fill="#b78023" stroke="none" /><path d="M 24.37,6.71 L 24.37,6.74 L 25.26,7.19 L 26.18,6.74 L 26.18,6.71 L 25.29,6.27 Z" fill="#b28123" stroke="none" /><path d="M 23.48,8.97 L 23.51,9.03 L 24.27,9.42 L 24.37,9.42 L 25.19,9.00 L 25.19,8.94 L 24.43,8.56 L 24.30,8.56 Z" fill="#b78123" stroke="none" /><path d="M 11.67,7.63 L 10.82,7.19 L 10.75,7.19 L 9.03,8.05 L 9.00,8.11 L 9.83,8.52 L 9.96,8.52 L 11.67,7.67 Z" fill="#b78123" stroke="none" /><path d="M 13.52,5.82 L 13.52,5.85 L 14.35,6.27 L 14.31,6.33 L 13.52,6.71 L 13.52,6.74 L 14.38,7.19 L 14.44,7.19 L 16.22,6.30 L 16.22,6.27 L 14.44,5.38 L 14.38,5.38 Z" fill="#b78123" stroke="none" /><path d="M 16.25,5.34 L 16.25,5.41 L 17.08,5.82 L 17.18,5.82 L 18.00,5.41 L 18.00,5.34 L 17.18,4.93 L 17.08,4.93 Z" fill="#b78123" stroke="none" /><path d="M 9.89,4.90 L 9.92,4.96 L 10.75,5.38 L 10.82,5.38 L 11.67,4.93 L 11.67,4.90 L 10.85,4.49 L 10.72,4.49 Z" fill="#b78123" stroke="none" /><path d="M 17.15,4.01 L 17.15,4.04 L 17.97,4.45 L 18.10,4.45 L 18.93,4.04 L 18.89,3.98 L 18.07,3.56 L 18.00,3.56 Z" fill="#b78123" stroke="none" /><path d="M 14.44,3.53 L 14.44,3.59 L 15.27,4.01 L 15.36,4.01 L 16.19,3.59 L 16.19,3.53 L 15.36,3.12 L 15.27,3.12 Z" fill="#b78123" stroke="none" /><path d="M 15.33,2.19 L 15.33,2.23 L 16.16,2.64 L 16.29,2.64 L 17.11,2.23 L 17.08,2.16 L 16.25,1.75 L 16.19,1.75 Z" fill="#b78123" stroke="none" /><path d="M 9.92,11.23 L 9.92,11.29 L 10.75,11.71 L 10.82,11.71 L 11.67,11.26 L 12.56,11.71 L 12.63,11.71 L 13.49,11.26 L 13.49,11.23 L 12.66,10.82 L 12.53,10.82 L 11.74,11.23 L 11.64,11.23 L 10.85,10.82 L 10.75,10.82 Z" fill="#b78223" stroke="none" /><path d="M 18.00,9.89 L 17.15,9.45 L 17.08,9.45 L 15.36,10.31 L 15.33,10.37 L 16.16,10.78 L 16.29,10.78 L 18.00,9.92 Z" fill="#b78223" stroke="none" /><path d="M 11.71,8.52 L 11.71,8.56 L 13.49,9.45 L 13.55,9.45 L 14.38,9.03 L 14.38,8.97 L 12.66,8.11 L 12.53,8.11 Z" fill="#b78223" stroke="none" /><path d="M 12.63,7.16 L 12.63,7.22 L 13.46,7.63 L 13.55,7.63 L 14.38,7.22 L 14.38,7.16 L 13.55,6.74 L 13.46,6.74 Z" fill="#b78223" stroke="none" /><path d="M 26.18,6.71 L 26.18,6.74 L 27.90,7.60 L 27.99,7.60 L 28.79,7.19 L 28.79,7.16 L 27.07,6.30 L 27.01,6.30 Z" fill="#b78223" stroke="none" /><path d="M 7.16,4.45 L 7.16,4.49 L 8.05,4.93 L 8.97,4.49 L 8.97,4.45 L 8.08,4.01 Z" fill="#b78223" stroke="none" /><path d="M 9.89,3.09 L 9.92,3.15 L 10.75,3.56 L 10.82,3.56 L 11.67,3.12 L 11.67,3.09 L 10.85,2.67 L 10.72,2.67 Z" fill="#b78223" stroke="none" /><path d="M 14.41,2.64 L 14.41,2.67 L 15.30,3.12 L 16.22,2.67 L 16.22,2.64 L 15.33,2.19 Z" fill="#b78223" stroke="none" /><path d="M 16.22,12.60 L 15.30,12.15 L 13.52,13.04 L 13.52,13.07 L 14.38,13.52 L 14.44,13.52 L 16.22,12.63 Z" fill="#b88223" stroke="none" /><path d="M 5.38,8.97 L 5.41,9.03 L 6.23,9.45 L 6.30,9.45 L 7.16,9.00 L 7.16,8.97 L 6.33,8.56 L 6.20,8.56 Z" fill="#b88223" stroke="none" /><path d="M 25.29,7.16 L 25.32,7.22 L 26.15,7.63 L 26.21,7.63 L 27.07,7.19 L 27.07,7.16 L 26.24,6.74 L 26.12,6.74 Z" fill="#b88223" stroke="none" /><path d="M 0.89,6.78 L 1.75,7.19 L 2.64,6.74 L 2.64,6.71 L 1.81,6.30 L 1.75,6.30 L 0.92,6.71 Z" fill="#b88223" stroke="none" /><path d="M 3.56,6.27 L 3.56,6.30 L 4.39,6.71 L 4.52,6.71 L 5.34,6.30 L 5.31,6.23 L 4.49,5.82 L 4.42,5.82 Z" fill="#b88223" stroke="none" /><path d="M 19.85,4.45 L 19.85,4.49 L 20.74,4.93 L 21.66,4.49 L 21.66,4.45 L 20.77,4.01 Z" fill="#b88223" stroke="none" /><path d="M 13.52,3.09 L 13.55,3.15 L 14.38,3.56 L 14.44,3.56 L 15.30,3.12 L 15.30,3.09 L 14.47,2.67 L 14.35,2.67 Z" fill="#b88223" stroke="none" /><path d="M 16.22,2.64 L 16.22,2.67 L 17.11,3.12 L 18.04,2.67 L 18.04,2.64 L 17.15,2.19 Z" fill="#b88223" stroke="none" /><path d="M 20.77,9.42 L 20.77,9.48 L 21.60,9.89 L 21.69,9.89 L 22.52,9.48 L 22.52,9.42 L 21.69,9.00 L 21.60,9.00 Z" fill="#b78323" stroke="none" /><path d="M 23.48,7.16 L 23.51,7.22 L 24.33,7.63 L 24.40,7.63 L 25.26,7.19 L 25.26,7.16 L 24.43,6.74 L 24.30,6.74 Z" fill="#b78323" stroke="none" /><path d="M 12.60,10.78 L 12.60,10.82 L 13.49,11.26 L 14.41,10.82 L 14.41,10.78 L 13.52,10.34 Z" fill="#b88323" stroke="none" /><path d="M 7.19,8.08 L 7.19,8.11 L 8.02,8.52 L 8.14,8.52 L 8.97,8.11 L 8.94,8.05 L 8.11,7.63 L 8.05,7.63 Z" fill="#b88323" stroke="none" /><path d="M 19.82,7.16 L 18.99,6.74 L 18.89,6.74 L 17.18,7.60 L 17.15,7.67 L 17.97,8.08 L 18.07,8.08 L 19.79,7.22 Z" fill="#b88323" stroke="none" /><path d="M 3.56,7.16 L 3.59,7.22 L 4.42,7.63 L 4.49,7.63 L 5.34,7.19 L 5.34,7.16 L 4.52,6.74 L 4.39,6.74 Z" fill="#b88323" stroke="none" /><path d="M 12.60,4.45 L 12.60,4.49 L 13.49,4.93 L 14.41,4.49 L 14.41,4.45 L 13.52,4.01 Z" fill="#b88323" stroke="none" /><path d="M 15.33,3.09 L 15.36,3.15 L 16.19,3.56 L 16.25,3.56 L 17.11,3.12 L 18.00,3.56 L 18.07,3.56 L 18.93,3.12 L 18.93,3.09 L 18.10,2.67 L 17.97,2.67 L 17.18,3.09 L 17.08,3.09 L 16.29,2.67 L 16.16,2.67 Z" fill="#b88323" stroke="none" /><path d="M 14.41,10.78 L 14.41,10.82 L 15.30,11.26 L 16.22,10.82 L 16.22,10.78 L 15.33,10.34 Z" fill="#b78423" stroke="none" /><path d="M 18.04,10.78 L 18.07,10.85 L 18.89,11.26 L 18.96,11.26 L 19.82,10.82 L 19.82,10.78 L 18.99,10.37 L 18.86,10.37 Z" fill="#b88423" stroke="none" /><path d="M 6.27,8.52 L 6.27,8.56 L 7.16,9.00 L 8.08,8.56 L 8.08,8.52 L 7.19,8.08 Z" fill="#b88423" stroke="none" /><path d="M 4.49,7.60 L 4.49,7.67 L 5.31,8.08 L 5.41,8.08 L 6.23,7.67 L 6.23,7.60 L 5.41,7.19 L 5.31,7.19 Z" fill="#b88423" stroke="none" /><path d="M 12.60,12.60 L 12.60,12.63 L 13.49,13.07 L 14.41,12.63 L 14.41,12.60 L 13.52,12.15 Z" fill="#b98423" stroke="none" /><path d="M 16.25,7.16 L 16.25,7.22 L 17.08,7.63 L 17.18,7.63 L 18.00,7.22 L 18.00,7.16 L 17.18,6.74 L 17.08,6.74 Z" fill="#b88124" stroke="none" /><path d="M 10.82,5.34 L 10.82,5.41 L 11.64,5.82 L 11.74,5.82 L 12.56,5.41 L 12.56,5.34 L 11.74,4.93 L 11.64,4.93 Z" fill="#b78224" stroke="none" /><path d="M 14.44,11.67 L 14.44,11.74 L 15.27,12.15 L 15.36,12.15 L 16.19,11.74 L 16.19,11.67 L 15.36,11.26 L 15.27,11.26 Z" fill="#b78324" stroke="none" /><path d="M 25.29,6.27 L 25.29,6.30 L 26.12,6.71 L 26.24,6.71 L 27.01,6.33 L 27.01,6.27 L 26.18,5.85 L 26.08,5.85 Z" fill="#b78324" stroke="none" /><path d="M 18.96,5.82 L 18.96,5.85 L 20.68,6.71 L 20.80,6.71 L 21.63,6.30 L 21.60,6.23 L 19.88,5.38 L 19.82,5.38 Z" fill="#b78324" stroke="none" /><path d="M 6.27,4.90 L 6.30,4.96 L 7.13,5.38 L 7.19,5.38 L 8.05,4.93 L 8.05,4.90 L 7.22,4.49 L 7.09,4.49 Z" fill="#b78324" stroke="none" /><path d="M 16.25,3.53 L 16.25,3.59 L 17.08,4.01 L 17.18,4.01 L 18.00,3.59 L 18.00,3.53 L 17.18,3.12 L 17.08,3.12 Z" fill="#b78324" stroke="none" /><path d="M 12.63,1.72 L 12.63,1.78 L 13.46,2.19 L 13.55,2.19 L 14.38,1.78 L 14.38,1.72 L 13.55,1.30 L 13.46,1.30 Z" fill="#b78324" stroke="none" /><path d="M 13.58,0.38 L 13.58,0.45 L 14.35,0.83 L 14.47,0.83 L 15.24,0.45 L 15.24,0.38 L 14.47,0.00 L 14.35,0.00 Z" fill="#b78324" stroke="none" /><path d="M 15.30,11.23 L 14.47,10.82 L 14.35,10.82 L 12.63,11.67 L 12.63,11.74 L 13.46,12.15 L 13.55,12.15 L 15.27,11.29 Z" fill="#b88324" stroke="none" /><path d="M 6.33,10.31 L 6.36,10.37 L 7.19,10.78 L 7.25,10.78 L 8.08,10.37 L 8.08,10.34 L 7.19,9.89 Z" fill="#b88324" stroke="none" /><path d="M 17.15,9.42 L 17.15,9.48 L 17.97,9.89 L 18.07,9.89 L 18.89,9.48 L 18.89,9.42 L 18.07,9.00 L 17.97,9.00 Z" fill="#b88324" stroke="none" /><path d="M 12.60,8.97 L 11.77,8.56 L 11.64,8.56 L 9.92,9.42 L 9.92,9.48 L 10.75,9.89 L 10.85,9.89 L 12.56,9.03 Z" fill="#b88324" stroke="none" /><path d="M 18.00,8.08 L 17.11,7.63 L 14.44,8.97 L 14.44,9.03 L 15.27,9.45 L 15.33,9.45 L 18.00,8.11 Z" fill="#b88324" stroke="none" /><path d="M 12.60,8.08 L 12.60,8.11 L 13.49,8.56 L 14.41,8.11 L 14.41,8.08 L 13.52,7.63 Z" fill="#b88324" stroke="none" /><path d="M 4.42,7.63 L 3.59,8.05 L 3.56,8.11 L 4.39,8.52 L 4.36,8.59 L 3.63,8.94 L 3.63,9.00 L 4.45,9.42 L 4.55,9.42 L 5.31,9.03 L 5.34,8.97 L 4.55,8.59 L 4.52,8.52 L 5.34,8.11 L 5.34,8.08 L 4.49,7.63 Z" fill="#b88324" stroke="none" /><path d="M 11.71,6.71 L 11.74,6.78 L 12.56,7.19 L 12.63,7.19 L 13.49,6.74 L 13.49,6.71 L 12.66,6.30 L 12.53,6.30 Z" fill="#b88324" stroke="none" /><path d="M 18.07,3.53 L 18.07,3.59 L 18.89,4.01 L 18.99,4.01 L 19.82,3.59 L 19.82,3.53 L 18.99,3.12 L 18.89,3.12 Z" fill="#b88324" stroke="none" /><path d="M 14.41,0.83 L 14.41,0.86 L 15.30,1.30 L 16.16,0.89 L 16.13,0.83 L 15.30,0.41 L 15.24,0.41 Z" fill="#b88324" stroke="none" /><path d="M 18.04,8.97 L 18.07,9.03 L 18.89,9.45 L 18.96,9.45 L 19.82,9.00 L 19.82,8.97 L 18.99,8.56 L 18.86,8.56 Z" fill="#bc8324" stroke="none" /><path d="M 6.33,4.01 L 6.33,4.07 L 7.09,4.45 L 7.22,4.45 L 8.05,4.04 L 8.02,3.98 L 7.25,3.59 L 7.16,3.59 Z" fill="#b78424" stroke="none" /><path d="M 11.71,3.09 L 11.74,3.15 L 12.56,3.56 L 12.63,3.56 L 13.49,3.12 L 13.49,3.09 L 12.66,2.67 L 12.53,2.67 Z" fill="#b78424" stroke="none" /><path d="M 12.56,1.72 L 11.80,1.34 L 11.67,1.34 L 9.96,2.19 L 9.96,2.26 L 10.72,2.64 L 10.85,2.64 L 12.56,1.78 Z" fill="#b78424" stroke="none" /><path d="M 13.52,1.27 L 13.55,1.34 L 14.38,1.75 L 14.44,1.75 L 15.30,1.30 L 15.30,1.27 L 14.47,0.86 L 14.35,0.86 Z" fill="#b78424" stroke="none" /><path d="M 15.33,11.23 L 15.36,11.29 L 16.19,11.71 L 16.25,11.71 L 17.11,11.26 L 17.11,11.23 L 16.29,10.82 L 16.16,10.82 Z" fill="#b88424" stroke="none" /><path d="M 11.64,10.37 L 10.82,10.78 L 10.85,10.85 L 11.58,11.20 L 11.64,11.26 L 10.82,11.67 L 10.82,11.74 L 11.64,12.15 L 11.74,12.15 L 12.56,11.74 L 12.56,11.67 L 11.74,11.26 L 11.80,11.20 L 12.60,10.82 L 12.60,10.78 L 11.77,10.37 Z" fill="#b88424" stroke="none" /><path d="M 17.11,10.34 L 17.11,10.37 L 18.00,10.82 L 18.93,10.37 L 18.93,10.34 L 18.04,9.89 Z" fill="#b88424" stroke="none" /><path d="M 9.00,9.89 L 9.00,9.92 L 9.83,10.34 L 9.96,10.34 L 10.78,9.92 L 10.75,9.86 L 9.92,9.45 L 9.86,9.45 Z" fill="#b88424" stroke="none" /><path d="M 13.55,9.42 L 13.55,9.48 L 14.38,9.89 L 14.44,9.89 L 15.27,9.48 L 15.27,9.42 L 14.44,9.00 L 14.38,9.00 Z" fill="#b88424" stroke="none" /><path d="M 2.70,8.49 L 2.74,8.56 L 3.56,8.97 L 3.63,8.97 L 4.45,8.56 L 4.45,8.52 L 3.56,8.08 Z" fill="#b88424" stroke="none" /><path d="M 0.03,7.16 L 0.06,7.22 L 0.83,7.60 L 0.92,7.60 L 1.72,7.19 L 1.72,7.16 L 0.89,6.74 Z" fill="#b88424" stroke="none" /><path d="M 22.55,6.71 L 22.55,6.74 L 23.44,7.19 L 24.37,6.74 L 24.37,6.71 L 23.48,6.27 Z" fill="#b88424" stroke="none" /><path d="M 10.78,6.27 L 10.78,6.30 L 11.67,6.74 L 12.60,6.30 L 12.60,6.27 L 11.71,5.82 Z" fill="#b88424" stroke="none" /><path d="M 21.69,5.34 L 21.69,5.41 L 22.52,5.82 L 22.58,5.82 L 23.44,5.38 L 24.33,5.82 L 24.40,5.82 L 25.22,5.41 L 25.22,5.38 L 24.33,4.93 L 23.51,5.34 L 23.41,5.34 L 22.62,4.93 L 22.52,4.93 Z" fill="#b88424" stroke="none" /><path d="M 11.71,4.90 L 11.74,4.96 L 12.56,5.38 L 12.63,5.38 L 13.49,4.93 L 13.49,4.90 L 12.66,4.49 L 12.53,4.49 Z" fill="#b88424" stroke="none" /><path d="M 6.23,4.90 L 5.38,4.49 L 4.55,4.90 L 4.52,4.96 L 5.38,5.38 L 6.20,4.96 Z" fill="#b88424" stroke="none" /><path d="M 15.33,1.27 L 15.36,1.34 L 16.19,1.75 L 16.25,1.75 L 17.08,1.34 L 17.08,1.30 L 16.19,0.86 Z" fill="#b88424" stroke="none" /><path d="M 14.41,0.83 L 13.58,0.41 L 13.52,0.41 L 11.74,1.30 L 11.74,1.34 L 12.56,1.75 L 12.63,1.75 L 14.41,0.86 Z" fill="#b88424" stroke="none" /><path d="M 11.71,10.37 L 12.53,10.78 L 12.66,10.78 L 14.38,9.92 L 14.38,9.86 L 12.66,9.00 L 12.56,9.00 L 11.74,9.42 L 11.74,9.48 L 12.56,9.89 L 12.50,9.96 L 11.71,10.34 Z" fill="#b98424" stroke="none" /><path d="M 19.85,7.16 L 19.88,7.22 L 20.71,7.63 L 20.77,7.63 L 21.63,7.19 L 21.63,7.16 L 20.80,6.74 L 20.68,6.74 Z" fill="#b98424" stroke="none" /><path d="M 8.97,7.16 L 8.14,6.74 L 8.02,6.74 L 6.30,7.60 L 6.30,7.67 L 7.13,8.08 L 7.22,8.08 L 8.94,7.22 Z" fill="#b98424" stroke="none" /><path d="M 9.89,6.71 L 9.92,6.78 L 10.75,7.19 L 10.82,7.19 L 11.67,6.74 L 11.67,6.71 L 10.85,6.30 L 10.72,6.30 Z" fill="#b98424" stroke="none" /><path d="M 24.40,5.79 L 24.40,5.85 L 25.22,6.27 L 25.32,6.27 L 26.12,5.85 L 26.12,5.82 L 25.29,5.41 L 25.16,5.41 Z" fill="#b98424" stroke="none" /><path d="M 5.38,5.34 L 5.41,5.41 L 6.23,5.82 L 6.30,5.82 L 7.13,5.41 L 7.13,5.34 L 6.30,4.93 L 6.20,4.93 Z" fill="#b98424" stroke="none" /><path d="M 9.00,10.78 L 9.03,10.85 L 9.86,11.26 L 9.92,11.26 L 10.78,10.82 L 10.78,10.78 L 9.96,10.37 L 9.83,10.37 Z" fill="#ba8424" stroke="none" /><path d="M 4.49,5.79 L 4.49,5.85 L 5.31,6.27 L 5.41,6.27 L 6.23,5.85 L 6.23,5.79 L 5.41,5.38 L 5.31,5.38 Z" fill="#ba8424" stroke="none" /><path d="M 16.22,10.78 L 16.22,10.82 L 17.11,11.26 L 18.00,10.82 L 18.00,10.78 L 17.18,10.37 L 17.05,10.37 Z" fill="#b88524" stroke="none" /><path d="M 9.89,8.52 L 8.97,8.08 L 7.19,8.97 L 7.19,9.00 L 8.05,9.45 L 8.11,9.45 L 9.89,8.56 Z" fill="#b88524" stroke="none" /><path d="M 16.19,1.72 L 15.36,1.30 L 15.27,1.30 L 13.55,2.16 L 13.52,2.23 L 14.35,2.64 L 14.47,2.64 L 16.19,1.78 Z" fill="#b88524" stroke="none" /><path d="M 18.04,9.89 L 18.04,9.92 L 18.86,10.34 L 18.99,10.34 L 19.82,9.92 L 19.79,9.86 L 18.96,9.45 L 18.89,9.45 Z" fill="#bb8524" stroke="none" /><path d="M 0.89,7.60 L 0.89,7.63 L 1.72,8.05 L 1.84,8.05 L 2.61,7.67 L 2.61,7.60 L 1.78,7.19 L 1.69,7.19 Z" fill="#bb8524" stroke="none" /><path d="M 20.74,6.71 L 20.74,6.74 L 21.63,7.19 L 22.55,6.74 L 22.55,6.71 L 21.66,6.27 Z" fill="#bb8524" stroke="none" /><path d="M 18.93,5.82 L 18.07,5.38 L 18.00,5.38 L 16.22,6.27 L 16.22,6.30 L 17.15,6.74 L 18.93,5.85 Z" fill="#bb8524" stroke="none" /><path d="M 21.66,4.45 L 21.66,4.49 L 22.55,4.93 L 23.41,4.52 L 23.38,4.45 L 22.55,4.04 L 22.49,4.04 Z" fill="#bb8524" stroke="none" /><path d="M 8.08,5.82 L 8.08,5.85 L 8.91,6.27 L 9.03,6.27 L 9.86,5.85 L 9.83,5.79 L 9.00,5.38 L 8.94,5.38 Z" fill="#bf8524" stroke="none" /><path d="M 14.44,7.16 L 14.44,7.22 L 15.27,7.63 L 15.36,7.63 L 16.19,7.22 L 16.19,7.16 L 15.36,6.74 L 15.27,6.74 Z" fill="#bb8624" stroke="none" /><path d="M 13.52,12.15 L 13.52,12.18 L 14.35,12.60 L 14.47,12.60 L 15.30,12.18 L 15.27,12.12 L 14.44,11.71 L 14.38,11.71 Z" fill="#b98824" stroke="none" /><path d="M 22.58,9.42 L 22.58,9.48 L 23.35,9.86 L 23.48,9.86 L 24.30,9.45 L 24.27,9.38 L 23.51,9.00 L 23.41,9.00 Z" fill="#b88425" stroke="none" /><path d="M 11.71,7.63 L 11.71,7.67 L 12.53,8.08 L 12.66,8.08 L 13.49,7.67 L 13.46,7.60 L 12.63,7.19 L 12.56,7.19 Z" fill="#b88425" stroke="none" /><path d="M 19.88,5.34 L 19.88,5.41 L 20.71,5.82 L 20.80,5.82 L 21.63,5.41 L 21.63,5.34 L 20.80,4.93 L 20.71,4.93 Z" fill="#b88425" stroke="none" /><path d="M 5.41,4.52 L 6.27,4.93 L 7.16,4.49 L 7.16,4.45 L 6.33,4.04 L 6.27,4.04 L 5.44,4.45 Z" fill="#b88425" stroke="none" /><path d="M 7.22,3.56 L 7.25,3.63 L 8.02,4.01 L 8.11,4.01 L 8.94,3.59 L 8.94,3.53 L 8.17,3.15 L 8.05,3.15 Z" fill="#b88425" stroke="none" /><path d="M 9.89,10.34 L 8.97,9.89 L 7.25,10.75 L 7.25,10.82 L 8.08,11.23 L 8.17,11.23 L 9.89,10.37 Z" fill="#ba8525" stroke="none" /><path d="M 8.08,6.71 L 8.08,6.74 L 8.97,7.19 L 9.86,6.74 L 9.86,6.71 L 9.03,6.30 L 8.91,6.30 Z" fill="#ba8525" stroke="none" /><path d="M 20.77,5.82 L 20.77,5.85 L 21.60,6.27 L 21.69,6.27 L 22.52,5.85 L 22.52,5.79 L 21.69,5.38 L 21.63,5.38 Z" fill="#ba8525" stroke="none" /><path d="M 18.96,3.09 L 18.99,3.15 L 19.82,3.56 L 19.88,3.56 L 20.71,3.15 L 20.71,3.12 L 19.82,2.67 Z" fill="#ba8525" stroke="none" /><path d="M 9.03,2.70 L 9.89,3.12 L 10.78,2.67 L 10.78,2.64 L 9.96,2.23 L 9.89,2.23 L 9.07,2.64 Z" fill="#ba8525" stroke="none" /><path d="M 18.04,4.45 L 18.04,4.49 L 18.93,4.93 L 19.85,4.49 L 19.85,4.45 L 18.96,4.01 Z" fill="#b88625" stroke="none" /><path d="M 16.25,11.67 L 16.25,11.74 L 17.08,12.15 L 17.18,12.15 L 18.00,11.74 L 18.00,11.67 L 17.18,11.26 L 17.08,11.26 Z" fill="#ba8625" stroke="none" /><path d="M 20.77,4.90 L 20.80,4.96 L 21.63,5.38 L 21.69,5.38 L 22.55,4.93 L 22.55,4.90 L 21.73,4.49 L 21.60,4.49 Z" fill="#ba8625" stroke="none" /><path d="M 22.49,10.31 L 21.63,9.89 L 20.74,10.34 L 20.74,10.37 L 21.57,10.78 L 21.63,10.78 L 22.46,10.37 Z" fill="#bb8625" stroke="none" /><path d="M 4.45,8.52 L 4.45,8.56 L 5.34,9.00 L 6.27,8.56 L 6.27,8.52 L 5.38,8.08 Z" fill="#bb8625" stroke="none" /><path d="M 18.96,4.01 L 18.96,4.04 L 19.79,4.45 L 19.91,4.45 L 20.74,4.04 L 20.71,3.98 L 19.88,3.56 L 19.82,3.56 Z" fill="#bb8625" stroke="none" /><path d="M 9.89,10.34 L 9.89,10.37 L 10.78,10.82 L 11.71,10.37 L 11.71,10.34 L 10.82,9.89 Z" fill="#bc8625" stroke="none" /><path d="M 9.00,8.97 L 9.03,9.03 L 9.86,9.45 L 9.92,9.45 L 10.78,9.00 L 10.78,8.97 L 9.96,8.56 L 9.83,8.56 Z" fill="#bc8625" stroke="none" /><path d="M 10.82,8.08 L 10.82,8.11 L 11.64,8.52 L 11.77,8.52 L 12.60,8.11 L 12.60,8.08 L 11.71,7.63 Z" fill="#bc8625" stroke="none" /><path d="M 13.52,7.63 L 13.52,7.67 L 14.35,8.08 L 14.47,8.08 L 15.30,7.67 L 15.27,7.60 L 14.44,7.19 L 14.38,7.19 Z" fill="#bc8625" stroke="none" /><path d="M 9.89,5.82 L 9.89,5.85 L 10.72,6.27 L 10.85,6.27 L 11.67,5.85 L 11.64,5.79 L 10.82,5.38 L 10.75,5.38 Z" fill="#bc8625" stroke="none" /><path d="M 18.07,11.67 L 18.07,11.74 L 18.83,12.12 L 18.96,12.12 L 19.79,11.71 L 19.79,11.67 L 18.96,11.26 L 18.89,11.26 Z" fill="#bb8725" stroke="none" /><path d="M 10.82,9.89 L 10.82,9.92 L 11.64,10.34 L 11.77,10.34 L 12.60,9.92 L 12.56,9.86 L 11.74,9.45 L 11.67,9.45 Z" fill="#bb8725" stroke="none" /><path d="M 23.48,6.27 L 23.48,6.30 L 24.30,6.71 L 24.43,6.71 L 25.26,6.30 L 25.22,6.23 L 24.40,5.82 L 24.33,5.82 Z" fill="#bb8725" stroke="none" /><path d="M 12.60,2.64 L 12.60,2.67 L 13.49,3.12 L 14.41,2.67 L 14.41,2.64 L 13.52,2.19 Z" fill="#bb8725" stroke="none" /><path d="M 18.96,11.23 L 18.96,11.29 L 19.72,11.67 L 19.85,11.67 L 20.68,11.26 L 20.64,11.20 L 19.88,10.82 L 19.79,10.82 Z" fill="#bc8725" stroke="none" /><path d="M 9.89,8.52 L 9.89,8.56 L 10.78,9.00 L 11.71,8.56 L 11.71,8.52 L 10.82,8.08 Z" fill="#bc8725" stroke="none" /><path d="M 5.38,8.08 L 5.38,8.11 L 6.20,8.52 L 6.33,8.52 L 7.16,8.11 L 7.13,8.05 L 6.30,7.63 L 6.23,7.63 Z" fill="#bc8725" stroke="none" /><path d="M 2.67,7.60 L 2.67,7.67 L 3.50,8.08 L 3.59,8.08 L 4.42,7.67 L 4.42,7.60 L 3.59,7.19 L 3.50,7.19 Z" fill="#bc8925" stroke="none" /><path d="M 15.33,7.63 L 15.33,7.67 L 16.16,8.08 L 16.29,8.08 L 17.11,7.67 L 17.08,7.60 L 16.25,7.19 L 16.19,7.19 Z" fill="#bd8326" stroke="none" /><path d="M 19.88,3.53 L 19.88,3.59 L 21.60,4.45 L 21.73,4.45 L 22.49,4.07 L 22.49,4.01 L 20.77,3.15 L 20.64,3.15 Z" fill="#ba8526" stroke="none" /><path d="M 21.66,6.27 L 21.66,6.30 L 22.49,6.71 L 22.62,6.71 L 23.44,6.30 L 23.41,6.23 L 22.58,5.82 L 22.52,5.82 Z" fill="#bc8626" stroke="none" /><path d="M 17.15,11.23 L 17.18,11.29 L 18.00,11.71 L 18.07,11.71 L 18.89,11.29 L 18.89,11.23 L 18.07,10.82 L 17.97,10.82 Z" fill="#bc8726" stroke="none" /><path d="M 8.11,9.42 L 8.11,9.48 L 8.94,9.89 L 9.03,9.89 L 9.86,9.48 L 9.86,9.42 L 9.03,9.00 L 8.94,9.00 Z" fill="#bc8726" stroke="none" /><path d="M 24.40,7.60 L 24.40,7.67 L 25.22,8.08 L 25.32,8.08 L 26.15,7.67 L 26.15,7.60 L 25.32,7.19 L 25.22,7.19 Z" fill="#bc8726" stroke="none" /><path d="M 8.11,7.60 L 8.11,7.67 L 8.94,8.08 L 9.03,8.08 L 9.86,7.67 L 9.86,7.60 L 9.03,7.19 L 8.94,7.19 Z" fill="#bc8726" stroke="none" /><path d="M 9.03,11.67 L 9.03,11.71 L 9.86,12.12 L 9.99,12.12 L 10.75,11.74 L 10.75,11.67 L 9.92,11.26 L 9.86,11.26 Z" fill="#bd8726" stroke="none" /><path d="M 1.78,8.05 L 1.78,8.08 L 2.67,8.52 L 3.53,8.11 L 3.50,8.05 L 2.67,7.63 L 2.61,7.63 Z" fill="#bd8726" stroke="none" /><path d="M 23.41,4.49 L 22.58,4.90 L 22.62,4.96 L 23.35,5.31 L 23.41,5.38 L 22.58,5.79 L 22.58,5.85 L 23.41,6.27 L 23.51,6.27 L 24.33,5.85 L 24.33,5.79 L 23.51,5.38 L 23.57,5.31 L 24.30,4.96 L 24.30,4.93 Z" fill="#bd8726" stroke="none" /><path d="M 9.86,3.09 L 9.00,2.67 L 8.11,3.12 L 8.11,3.15 L 8.94,3.56 L 9.00,3.56 L 9.83,3.15 Z" fill="#bd8726" stroke="none" /><path d="M 16.19,9.89 L 15.33,9.45 L 15.27,9.45 L 13.55,10.31 L 13.52,10.37 L 14.35,10.78 L 14.47,10.78 L 16.19,9.92 Z" fill="#be8726" stroke="none" /><path d="M 13.52,4.90 L 13.55,4.96 L 14.38,5.38 L 14.44,5.38 L 15.30,4.93 L 15.30,4.90 L 14.47,4.49 L 14.35,4.49 Z" fill="#be8726" stroke="none" /><path d="M 21.66,9.92 L 22.52,10.34 L 23.41,9.89 L 23.41,9.86 L 22.58,9.45 L 22.52,9.45 L 21.69,9.86 Z" fill="#bc8826" stroke="none" /><path d="M 9.86,5.82 L 8.97,6.27 L 8.97,6.30 L 9.77,6.68 L 9.83,6.74 L 9.00,7.16 L 9.00,7.19 L 9.86,7.63 L 9.92,7.63 L 10.75,7.22 L 10.75,7.16 L 9.92,6.74 L 9.99,6.68 L 10.78,6.30 L 10.78,6.27 Z" fill="#bd8826" stroke="none" /><path d="M 6.30,9.42 L 6.30,9.48 L 7.13,9.89 L 7.22,9.89 L 8.05,9.48 L 8.05,9.42 L 7.22,9.00 L 7.13,9.00 Z" fill="#be8926" stroke="none" /><path d="M 21.66,8.97 L 21.69,9.03 L 22.52,9.45 L 22.58,9.45 L 23.44,9.00 L 23.44,8.97 L 22.62,8.56 L 22.49,8.56 Z" fill="#b88427" stroke="none" /><path d="M 22.55,8.52 L 22.55,8.56 L 23.44,9.00 L 24.37,8.56 L 24.37,8.52 L 23.48,8.08 Z" fill="#bd8427" stroke="none" /><path d="M 5.41,9.86 L 5.41,9.89 L 6.30,10.34 L 7.16,9.92 L 7.13,9.86 L 6.30,9.45 L 6.23,9.45 Z" fill="#bc8727" stroke="none" /><path d="M 23.48,8.08 L 23.48,8.11 L 24.30,8.52 L 24.43,8.52 L 25.26,8.11 L 25.22,8.05 L 24.40,7.63 L 24.33,7.63 Z" fill="#bd8727" stroke="none" /><path d="M 7.19,9.89 L 7.19,9.92 L 8.02,10.34 L 8.14,10.34 L 8.97,9.92 L 8.94,9.86 L 8.11,9.45 L 8.05,9.45 Z" fill="#bd8827" stroke="none" /><path d="M 12.63,5.34 L 12.63,5.41 L 13.46,5.82 L 13.55,5.82 L 14.38,5.41 L 14.38,5.34 L 13.55,4.93 L 13.46,4.93 Z" fill="#be8827" stroke="none" /><path d="M 10.82,3.53 L 10.82,3.59 L 11.64,4.01 L 11.74,4.01 L 12.56,3.59 L 12.56,3.53 L 11.74,3.12 L 11.64,3.12 Z" fill="#ba8927" stroke="none" /><path d="M 9.00,5.34 L 9.00,5.41 L 9.83,5.82 L 9.92,5.82 L 10.75,5.41 L 10.75,5.34 L 9.92,4.93 L 9.83,4.93 Z" fill="#be8928" stroke="none" /></svg>