<svg height="32" width="32" viewBox="0 0 32 32"><defs /><path d="M 27.88,8.74 L 15.30,15.03 L 15.30,30.46 L 27.88,24.17 Z" fill="#4d4d11" stroke="none" /><path d="M 26.98,21.32 L 26.91,21.32 L 26.08,21.76 L 26.08,22.83 L 26.01,22.90 L 25.17,23.30 L 25.17,24.40 L 25.24,24.40 L 26.08,23.97 L 26.08,22.90 L 26.14,22.83 L 26.98,22.43 Z" fill="#676717" stroke="none" /><path d="M 18.88,14.36 L 18.81,14.36 L 17.97,14.79 L 17.97,15.87 L 17.91,15.93 L 17.10,16.33 L 17.10,17.41 L 17.04,17.47 L 16.20,17.87 L 16.20,18.98 L 17.10,18.54 L 17.10,17.47 L 17.17,17.41 L 17.97,17.00 L 17.97,15.93 L 18.04,15.87 L 18.88,15.46 Z" fill="#676717" stroke="none" /><path d="M 28.79,7.20 L 28.72,7.20 L 14.39,14.36 L 14.39,32.00 L 28.79,24.80 Z" fill="#696917" stroke="none" /><path d="M 0.90,8.74 L 0.90,24.17 L 13.49,30.46 L 13.49,15.03 Z" fill="#909020" stroke="none" /><path d="M 1.81,7.16 L 1.84,7.23 L 14.36,13.49 L 14.43,13.49 L 26.98,7.20 L 26.98,7.16 L 14.46,0.90 L 14.33,0.90 Z" fill="#909020" stroke="none" /><path d="M 11.72,26.24 L 11.68,26.24 L 11.68,27.28 L 11.65,27.31 L 10.81,26.91 L 10.81,28.02 L 11.65,28.45 L 11.68,28.45 L 11.68,27.41 L 11.72,27.38 L 12.52,27.78 L 12.59,27.78 L 12.59,26.68 Z" fill="#bfbf2a" stroke="none" /><path d="M 4.49,11.62 L 3.68,11.21 L 3.62,11.21 L 3.62,12.25 L 3.58,12.28 L 2.71,11.85 L 2.71,12.89 L 2.68,12.92 L 1.87,12.52 L 1.81,12.52 L 1.81,13.59 L 2.64,14.03 L 2.71,14.03 L 2.71,13.02 L 2.74,12.99 L 3.55,13.39 L 3.62,13.39 L 3.62,12.35 L 3.65,12.32 L 4.42,12.72 L 4.49,12.72 Z" fill="#bfbf2a" stroke="none" /><path d="M 5.36,6.29 L 4.52,6.73 L 4.52,6.76 L 5.29,7.13 L 5.36,7.20 L 4.55,7.60 L 4.52,7.67 L 5.32,8.07 L 5.46,8.07 L 6.26,7.67 L 6.26,7.60 L 5.46,7.20 L 5.52,7.13 L 6.29,6.76 L 6.29,6.73 L 5.46,6.29 Z" fill="#bfbf2a" stroke="none" /><path d="M 22.43,5.86 L 21.62,6.26 L 21.62,6.33 L 22.43,6.73 L 22.36,6.79 L 21.59,7.16 L 21.59,7.20 L 22.46,7.63 L 21.59,8.07 L 21.59,8.10 L 22.46,8.54 L 22.53,8.54 L 23.40,8.10 L 23.40,8.07 L 22.53,7.63 L 23.36,7.20 L 23.36,7.16 L 22.59,6.79 L 22.53,6.73 L 23.33,6.33 L 23.36,6.26 L 22.56,5.86 Z" fill="#bfbf2a" stroke="none" /><path d="M 14.43,0.00 L 14.36,0.00 L 0.00,7.20 L 0.00,24.80 L 14.36,32.00 L 14.39,32.00 L 14.39,14.39 L 28.75,7.20 L 28.75,7.16 Z" fill="#c4c42c" stroke="none" /></svg>