<svg height="32" width="32" viewBox="0 0 32 32"><defs /><path d="M 19.80,20.51 L 19.72,20.51 L 16.18,22.30 L 16.18,24.49 L 16.26,24.49 L 19.80,22.70 Z" fill="#0a0a0a" stroke="none" /><path d="M 26.99,16.89 L 23.37,18.68 L 23.37,20.91 L 26.99,19.12 Z" fill="#0a0a0a" stroke="none" /><path d="M 21.59,26.24 L 21.51,26.24 L 17.97,28.02 L 17.97,30.21 L 18.05,30.21 L 21.59,28.42 Z" fill="#16200f" stroke="none" /><path d="M 25.16,24.45 L 25.08,24.45 L 23.37,25.32 L 23.37,27.51 L 23.45,27.51 L 25.16,26.63 Z" fill="#16200f" stroke="none" /><path d="M 16.18,26.71 L 14.39,27.59 L 14.39,29.81 L 16.18,28.94 Z" fill="#182912" stroke="none" /><path d="M 28.78,20.43 L 28.70,20.43 L 26.99,21.31 L 26.99,23.49 L 25.16,24.41 L 25.16,26.63 L 28.78,24.84 Z" fill="#182912" stroke="none" /><path d="M 17.97,12.60 L 14.39,14.39 L 14.39,18.80 L 16.18,17.93 L 16.18,15.74 L 16.26,15.66 L 17.97,14.83 Z" fill="#182912" stroke="none" /><path d="M 28.78,9.42 L 28.70,9.42 L 26.99,10.30 L 26.99,12.48 L 27.07,12.48 L 28.78,11.61 Z" fill="#182912" stroke="none" /><path d="M 23.37,23.14 L 23.29,23.14 L 19.80,24.88 L 19.80,27.11 L 23.37,25.32 Z" fill="#1d2912" stroke="none" /><path d="M 25.16,22.22 L 23.41,23.10 L 23.37,23.06 L 23.37,20.91 L 23.33,20.91 L 19.84,22.66 L 19.80,22.70 L 19.80,24.88 L 17.97,25.80 L 17.97,27.99 L 17.89,28.06 L 14.39,29.81 L 14.39,32.00 L 14.47,32.00 L 17.97,30.25 L 17.97,28.06 L 18.05,27.99 L 19.80,27.11 L 19.80,24.92 L 23.33,23.14 L 23.37,23.18 L 23.37,25.28 L 23.29,25.36 L 21.59,26.20 L 21.59,28.42 L 23.37,27.55 L 23.37,25.36 L 23.45,25.28 L 25.16,24.45 Z" fill="#172713" stroke="none" /><path d="M 26.99,8.11 L 26.91,8.11 L 18.01,12.56 L 17.97,12.60 L 17.97,14.79 L 16.18,15.70 L 16.18,17.89 L 16.26,17.89 L 17.97,17.01 L 17.97,14.83 L 18.01,14.79 L 25.08,11.25 L 25.16,11.29 L 25.16,13.40 L 25.24,13.40 L 26.99,12.52 Z" fill="#172713" stroke="none" /><path d="M 17.97,25.84 L 17.89,25.84 L 16.18,26.71 L 16.18,28.90 L 16.26,28.90 L 17.97,28.02 Z" fill="#1c2e14" stroke="none" /><path d="M 26.99,21.31 L 25.16,22.22 L 25.16,24.41 L 25.24,24.41 L 26.99,23.53 Z" fill="#1c2e14" stroke="none" /><path d="M 19.80,13.91 L 19.72,13.91 L 17.97,14.79 L 17.97,17.01 L 19.80,16.10 Z" fill="#1d2d15" stroke="none" /><path d="M 28.78,11.61 L 26.99,12.48 L 26.99,14.71 L 28.78,13.83 Z" fill="#1d2d15" stroke="none" /><path d="M 25.16,11.21 L 23.37,12.08 L 23.37,14.31 L 25.16,13.44 Z" fill="#1d2d15" stroke="none" /><path d="M 28.78,7.20 L 26.99,8.07 L 26.99,10.30 L 28.78,9.42 Z" fill="#1d2d15" stroke="none" /><path d="M 16.18,24.53 L 16.10,24.53 L 14.39,25.40 L 14.39,27.59 L 14.47,27.59 L 16.18,26.71 Z" fill="#1f3115" stroke="none" /><path d="M 28.78,18.21 L 26.99,19.08 L 26.99,21.31 L 28.78,20.43 Z" fill="#1f3115" stroke="none" /><path d="M 16.18,17.93 L 16.10,17.93 L 14.39,18.80 L 14.39,20.99 L 14.47,20.99 L 16.18,20.11 Z" fill="#1f3115" stroke="none" /><path d="M 5.41,23.14 L 5.41,25.32 L 7.12,26.20 L 7.20,26.20 L 7.20,24.01 L 5.49,23.14 Z" fill="#243518" stroke="none" /><path d="M 17.97,19.24 L 17.89,19.24 L 16.18,20.11 L 16.18,22.26 L 16.10,22.34 L 14.39,23.18 L 14.39,25.40 L 16.18,24.53 L 16.18,22.34 L 16.26,22.26 L 17.97,21.43 Z" fill="#24311c" stroke="none" /><path d="M 26.95,14.71 L 25.16,15.62 L 25.16,17.81 L 26.95,16.93 L 26.99,16.97 L 26.99,19.08 L 27.07,19.08 L 28.78,18.21 L 28.78,16.02 L 28.70,16.02 L 27.03,16.85 L 26.99,16.81 L 26.99,14.71 Z" fill="#24311c" stroke="none" /><path d="M 7.20,26.24 L 7.20,28.42 L 7.23,28.46 L 10.73,30.21 L 10.81,30.21 L 10.81,28.10 L 10.89,28.06 L 12.60,28.94 L 12.60,31.13 L 14.31,32.00 L 14.39,32.00 L 14.39,29.81 L 12.60,28.90 L 12.60,26.79 L 12.64,26.75 L 14.31,27.59 L 14.39,27.59 L 14.39,25.40 L 14.35,25.36 L 12.68,24.53 L 12.60,24.53 L 12.60,26.63 L 12.56,26.67 L 9.06,24.92 L 8.98,24.92 L 8.98,27.03 L 8.94,27.07 L 7.27,26.24 Z" fill="#28431d" stroke="none" /><path d="M 8.98,20.47 L 7.20,19.60 L 7.20,21.74 L 7.16,21.78 L 3.70,20.03 L 3.62,20.03 L 3.62,22.14 L 3.54,22.18 L 0.08,20.43 L 0.00,20.43 L 0.00,22.62 L 5.41,25.32 L 5.41,23.18 L 5.45,23.14 L 7.20,24.01 L 7.20,21.86 L 7.23,21.82 L 8.98,22.70 Z" fill="#28431d" stroke="none" /><path d="M 0.00,13.83 L 0.00,16.02 L 1.79,16.89 L 1.79,14.71 L 0.08,13.83 Z" fill="#28431d" stroke="none" /><path d="M 12.60,13.52 L 12.60,15.70 L 14.31,16.58 L 14.39,16.58 L 14.39,14.39 L 12.68,13.52 Z" fill="#28431d" stroke="none" /><path d="M 3.62,15.62 L 3.62,17.81 L 3.66,17.85 L 5.33,18.68 L 5.41,18.68 L 5.41,16.58 L 5.45,16.54 L 7.20,17.41 L 7.20,15.26 L 7.23,15.22 L 10.73,16.97 L 10.81,17.05 L 10.81,19.24 L 12.60,20.11 L 12.60,17.89 L 10.89,17.05 L 10.81,16.97 L 10.81,14.79 L 7.20,13.00 L 7.20,15.15 L 7.16,15.19 L 5.41,14.31 L 5.41,16.46 L 5.37,16.50 Z" fill="#28431d" stroke="none" /><path d="M 0.00,9.42 L 0.00,11.61 L 3.54,13.40 L 3.62,13.40 L 3.62,11.21 L 0.08,9.42 Z" fill="#28431d" stroke="none" /><path d="M 12.60,26.71 L 12.60,28.94 L 14.39,29.81 L 14.39,27.59 Z" fill="#263f1e" stroke="none" /><path d="M 0.00,22.62 L 0.00,24.84 L 3.62,26.63 L 3.62,24.41 Z" fill="#263f1e" stroke="none" /><path d="M 8.98,11.69 L 8.98,13.91 L 12.60,15.70 L 12.60,13.48 Z" fill="#263f1e" stroke="none" /><path d="M 0.00,7.20 L 0.00,9.42 L 3.54,11.17 L 3.62,11.25 L 3.62,13.36 L 3.58,13.40 L 0.00,11.61 L 0.00,13.83 L 1.71,14.67 L 1.79,14.75 L 1.79,16.81 L 1.75,16.85 L 0.08,16.02 L 0.00,16.02 L 0.00,20.43 L 3.62,22.22 L 3.62,20.00 L 1.79,19.08 L 1.79,16.97 L 1.87,16.93 L 3.62,17.81 L 3.62,13.48 L 3.66,13.44 L 7.20,15.22 L 7.20,17.33 L 7.16,17.37 L 5.49,16.54 L 5.41,16.54 L 5.41,18.72 L 7.20,19.60 L 7.20,17.49 L 7.27,17.45 L 10.73,19.20 L 10.81,19.20 L 10.81,17.01 L 7.20,15.19 L 7.20,13.00 L 3.70,11.25 L 3.62,11.17 L 3.62,8.98 Z" fill="#263f1e" stroke="none" /><path d="M 19.80,22.70 L 16.18,24.49 L 16.18,26.71 L 19.80,24.92 Z" fill="#293522" stroke="none" /><path d="M 16.18,20.11 L 14.39,20.99 L 14.39,23.18 L 14.47,23.18 L 16.18,22.30 Z" fill="#293522" stroke="none" /><path d="M 25.16,15.62 L 23.37,16.50 L 23.37,18.68 L 21.59,19.60 L 21.59,21.78 L 21.66,21.78 L 23.33,20.95 L 23.37,20.99 L 23.37,23.10 L 23.45,23.10 L 26.99,21.31 L 26.99,19.12 L 26.91,19.12 L 23.45,20.87 L 23.37,20.83 L 23.37,18.72 L 25.16,17.81 Z" fill="#293522" stroke="none" /><path d="M 28.78,13.83 L 28.70,13.83 L 26.99,14.71 L 26.99,16.89 L 28.78,16.02 Z" fill="#293522" stroke="none" /><path d="M 23.37,12.12 L 23.29,12.12 L 19.80,13.87 L 19.80,16.10 L 23.37,14.31 Z" fill="#293522" stroke="none" /><path d="M 17.97,17.01 L 16.18,17.89 L 16.18,20.11 L 17.97,19.24 Z" fill="#293922" stroke="none" /><path d="M 26.99,12.52 L 26.91,12.52 L 25.16,13.40 L 25.16,15.62 L 26.99,14.71 Z" fill="#293922" stroke="none" /><path d="M 10.81,28.02 L 10.81,30.25 L 12.60,31.13 L 12.60,28.90 Z" fill="#2f4822" stroke="none" /><path d="M 3.62,24.45 L 3.62,26.63 L 7.20,28.42 L 7.20,26.20 L 3.70,24.45 Z" fill="#2f4822" stroke="none" /><path d="M 1.79,16.89 L 1.79,19.12 L 3.54,20.00 L 3.62,20.00 L 3.62,17.81 Z" fill="#2f4822" stroke="none" /><path d="M 10.81,14.83 L 10.81,17.01 L 12.60,17.93 L 12.60,20.03 L 12.52,20.07 L 10.89,19.24 L 10.81,19.24 L 10.81,21.35 L 10.77,21.39 L 8.98,20.47 L 8.98,18.29 L 7.20,17.41 L 7.20,19.52 L 7.16,19.56 L 5.49,18.72 L 5.41,18.72 L 5.41,20.91 L 7.20,21.82 L 7.20,24.01 L 7.23,24.05 L 12.60,26.71 L 12.60,20.19 L 12.68,20.15 L 14.31,20.99 L 14.39,20.99 L 14.39,18.80 L 12.60,17.89 L 12.60,15.70 L 10.89,14.83 Z" fill="#2f4822" stroke="none" /><path d="M 3.62,13.44 L 3.62,15.62 L 5.33,16.50 L 5.41,16.50 L 5.41,14.31 L 3.70,13.44 Z" fill="#2f4822" stroke="none" /><path d="M 7.20,10.81 L 7.20,13.00 L 8.90,13.87 L 8.98,13.87 L 8.98,11.69 L 7.27,10.81 Z" fill="#2f4822" stroke="none" /><path d="M 3.62,9.02 L 3.62,11.21 L 5.33,12.08 L 5.41,12.08 L 5.41,9.90 L 3.70,9.02 Z" fill="#2f4822" stroke="none" /><path d="M 7.20,24.01 L 7.20,26.24 L 8.98,27.11 L 8.98,24.88 Z" fill="#324f23" stroke="none" /><path d="M 12.60,20.11 L 12.60,24.53 L 14.39,25.40 L 14.39,20.99 Z" fill="#324f23" stroke="none" /><path d="M 8.98,18.33 L 8.98,20.51 L 10.73,21.39 L 10.81,21.39 L 10.81,19.20 L 9.06,18.33 Z" fill="#324f23" stroke="none" /><path d="M 3.62,17.81 L 3.62,20.03 L 5.41,20.91 L 5.41,18.68 Z" fill="#324f23" stroke="none" /><path d="M 12.60,15.70 L 12.60,17.93 L 14.39,18.80 L 14.39,16.58 Z" fill="#324f23" stroke="none" /><path d="M 5.41,9.90 L 5.41,12.12 L 7.20,13.00 L 7.20,10.77 Z" fill="#324f23" stroke="none" /><path d="M 19.80,16.10 L 17.97,17.01 L 17.97,19.20 L 18.05,19.20 L 19.80,18.33 Z" fill="#2b3b24" stroke="none" /><path d="M 25.16,13.44 L 25.08,13.44 L 23.37,14.31 L 23.37,16.50 L 23.45,16.50 L 25.16,15.62 Z" fill="#2c3b24" stroke="none" /><path d="M 23.37,14.31 L 21.59,15.19 L 21.59,17.37 L 21.51,17.45 L 17.97,19.20 L 17.97,21.39 L 18.05,21.39 L 19.76,20.51 L 19.80,20.55 L 19.80,22.70 L 21.59,21.82 L 21.59,19.64 L 21.66,19.56 L 23.37,18.72 Z" fill="#2d3b24" stroke="none" /><path d="M 21.59,15.22 L 21.51,15.22 L 19.80,16.10 L 19.80,18.29 L 19.88,18.29 L 21.59,17.41 Z" fill="#303e28" stroke="none" /><path d="M 12.60,13.48 L 12.60,13.52 L 14.35,14.39 L 14.43,14.39 L 16.18,13.52 L 16.18,13.48 L 14.43,12.60 L 14.35,12.60 Z" fill="#3d682c" stroke="none" /><path d="M 10.81,10.77 L 10.85,10.85 L 12.52,11.69 L 12.64,11.69 L 14.39,10.81 L 14.39,10.77 L 12.64,9.90 L 12.56,9.90 Z" fill="#3d682c" stroke="none" /><path d="M 19.84,9.86 L 19.84,9.94 L 21.51,10.77 L 21.66,10.77 L 23.33,9.94 L 23.33,9.86 L 21.66,9.02 L 21.51,9.02 Z" fill="#3d682c" stroke="none" /><path d="M 10.81,5.37 L 10.85,5.45 L 17.93,8.98 L 17.85,9.06 L 16.22,9.86 L 16.22,9.94 L 17.85,10.73 L 17.93,10.81 L 16.26,11.65 L 16.22,11.73 L 17.97,12.60 L 19.76,11.73 L 19.72,11.65 L 18.05,10.81 L 18.13,10.73 L 19.76,9.94 L 19.76,9.86 L 18.13,9.06 L 18.05,8.98 L 19.72,8.15 L 19.76,8.07 L 12.60,4.49 Z" fill="#3d682c" stroke="none" /><path d="M 0.04,7.16 L 0.04,7.23 L 7.12,10.77 L 7.27,10.77 L 8.94,9.94 L 8.94,9.86 L 5.45,8.11 L 5.53,8.03 L 7.16,7.23 L 7.16,7.16 L 5.49,6.32 L 5.53,6.24 L 7.16,5.45 L 7.16,5.37 L 5.41,4.49 L 3.62,5.37 L 3.66,5.45 L 5.33,6.28 L 5.29,6.36 L 3.62,7.20 L 1.87,6.32 L 1.71,6.32 Z" fill="#3d682c" stroke="none" /><path d="M 18.01,3.58 L 18.05,3.66 L 21.55,5.41 L 19.80,6.28 L 19.80,6.32 L 25.12,8.98 L 25.24,8.98 L 26.95,8.11 L 26.95,8.07 L 21.62,5.41 L 23.37,4.53 L 23.33,4.45 L 19.84,2.70 L 19.76,2.70 Z" fill="#3d682c" stroke="none" /><path d="M 9.02,2.66 L 9.02,2.74 L 10.77,3.62 L 12.56,2.74 L 12.56,2.66 L 10.81,1.79 Z" fill="#3d682c" stroke="none" /><path d="M 12.60,0.87 L 12.64,0.95 L 16.14,2.70 L 16.22,2.70 L 17.97,1.83 L 17.93,1.75 L 14.43,0.00 L 14.35,0.00 Z" fill="#3d682c" stroke="none" /><path d="M 18.01,10.77 L 18.05,10.85 L 19.72,11.69 L 19.84,11.69 L 21.59,10.81 L 21.59,10.77 L 19.84,9.90 L 19.76,9.90 Z" fill="#3a612e" stroke="none" /><path d="M 7.20,10.77 L 7.20,10.81 L 10.77,12.60 L 12.52,11.73 L 12.64,11.73 L 16.10,13.48 L 16.26,13.48 L 17.97,12.60 L 17.97,12.56 L 14.47,10.81 L 14.31,10.81 L 12.56,11.69 L 9.02,9.90 L 8.94,9.90 Z" fill="#3a612e" stroke="none" /><path d="M 19.80,8.07 L 19.84,8.15 L 23.33,9.90 L 23.41,9.90 L 25.16,9.02 L 25.12,8.94 L 21.62,7.20 L 21.55,7.20 Z" fill="#3a612e" stroke="none" /><path d="M 1.79,6.28 L 1.79,6.32 L 3.54,7.20 L 3.66,7.20 L 5.41,6.32 L 5.41,6.28 L 3.66,5.41 L 3.54,5.41 Z" fill="#3a612e" stroke="none" /><path d="M 21.62,5.37 L 21.62,5.45 L 25.12,7.20 L 25.24,7.20 L 26.99,6.32 L 26.99,6.28 L 23.41,4.49 Z" fill="#3a612e" stroke="none" /><path d="M 5.41,4.49 L 5.41,4.53 L 12.56,8.11 L 14.35,7.23 L 14.35,7.16 L 10.85,5.41 L 10.93,5.33 L 12.56,4.53 L 12.52,4.45 L 9.02,2.70 L 8.94,2.70 Z" fill="#3a612e" stroke="none" /><path d="M 10.81,1.79 L 10.81,1.83 L 16.14,4.49 L 16.26,4.49 L 17.97,3.62 L 17.97,3.58 L 12.64,0.91 L 12.52,0.91 Z" fill="#3a612e" stroke="none" /><path d="M 10.81,12.56 L 10.85,12.64 L 12.52,13.48 L 12.68,13.48 L 14.35,12.64 L 14.35,12.56 L 12.60,11.69 Z" fill="#487034" stroke="none" /><path d="M 9.02,9.86 L 9.02,9.94 L 10.77,10.81 L 12.56,9.94 L 12.56,9.86 L 10.81,8.98 Z" fill="#487034" stroke="none" /><path d="M 12.60,8.07 L 12.64,8.15 L 14.31,8.98 L 14.27,9.06 L 12.64,9.86 L 12.64,9.94 L 16.14,11.69 L 16.26,11.69 L 17.97,10.81 L 17.97,10.77 L 16.22,9.90 L 17.93,9.02 L 18.05,9.02 L 19.76,9.90 L 19.84,9.90 L 21.59,9.02 L 21.59,8.98 L 19.84,8.11 L 19.72,8.11 L 17.97,8.98 L 14.43,7.20 L 14.35,7.20 Z" fill="#487034" stroke="none" /><path d="M 5.41,6.28 L 5.41,6.32 L 8.98,8.11 L 10.77,7.23 L 10.73,7.16 L 7.23,5.41 L 7.16,5.41 Z" fill="#487034" stroke="none" /><path d="M 21.55,5.45 L 21.55,5.37 L 18.05,3.62 L 18.13,3.54 L 19.76,2.74 L 19.76,2.66 L 18.01,1.79 L 16.22,2.66 L 16.22,2.74 L 17.85,3.54 L 17.93,3.62 L 16.22,4.49 L 12.64,2.70 L 12.56,2.70 L 10.81,3.58 L 10.85,3.66 L 16.10,6.28 L 16.26,6.28 L 17.97,5.41 L 19.72,6.28 L 19.88,6.28 Z" fill="#487034" stroke="none" /><path d="M 5.41,8.07 L 5.45,8.15 L 8.94,9.90 L 9.02,9.90 L 10.73,9.02 L 10.85,9.02 L 12.56,9.90 L 12.64,9.90 L 14.39,9.02 L 14.39,8.98 L 10.81,7.20 L 9.06,8.07 L 8.94,8.07 L 7.23,7.20 L 7.16,7.20 Z" fill="#4d7a35" stroke="none" /><path d="M 25.20,7.20 L 25.20,7.23 L 26.95,8.11 L 28.74,7.23 L 28.74,7.16 L 27.07,6.32 L 26.91,6.32 Z" fill="#4d7a35" stroke="none" /><path d="M 16.18,6.28 L 16.18,6.32 L 19.76,8.11 L 21.55,7.23 L 21.55,7.16 L 18.05,5.41 L 17.93,5.41 Z" fill="#4d7a35" stroke="none" /></svg>