<?xml version='1.0' encoding='utf-8'?>
<svg width="16" height="16" viewBox="0 0 16 16" xmlns="http://www.w3.org/2000/svg"> <rect x="7" y="0" width="1" height="1" fill="rgb(95,73,40)" fill-opacity="1.000" /><rect x="7" y="7" width="1" height="2" fill="rgb(95,73,40)" fill-opacity="1.000" /><rect x="7" y="12" width="1" height="2" fill="rgb(95,73,40)" fill-opacity="1.000" /><rect x="6" y="1" width="1" height="2" fill="rgb(95,73,40)" fill-opacity="1.000" /><rect x="7" y="1" width="1" height="1" fill="rgb(162,130,81)" fill-opacity="1.000" /><rect x="7" y="4" width="1" height="1" fill="rgb(162,130,81)" fill-opacity="1.000" /><rect x="7" y="9" width="1" height="1" fill="rgb(162,130,81)" fill-opacity="1.000" /><rect x="8" y="1" width="1" height="2" fill="rgb(61,48,30)" fill-opacity="1.000" /><rect x="7" y="2" width="1" height="1" fill="rgb(180,144,90)" fill-opacity="1.000" /><rect x="4" y="3" width="3" height="1" fill="rgb(95,73,40)" fill-opacity="1.000" /><rect x="7" y="3" width="1" height="1" fill="rgb(143,119,69)" fill-opacity="1.000" /><rect x="8" y="3" width="3" height="1" fill="rgb(95,73,40)" fill-opacity="1.000" /><rect x="3" y="4" width="1" height="1" fill="rgb(95,73,40)" fill-opacity="1.000" /><rect x="3" y="14" width="1" height="1" fill="rgb(95,73,40)" fill-opacity="1.000" /><rect x="4" y="4" width="2" height="1" fill="rgb(162,130,81)" fill-opacity="1.000" /><rect x="6" y="4" width="1" height="1" fill="rgb(180,144,90)" fill-opacity="1.000" /><rect x="6" y="7" width="1" height="1" fill="rgb(180,144,90)" fill-opacity="1.000" /><rect x="6" y="10" width="1" height="1" fill="rgb(180,144,90)" fill-opacity="1.000" /><rect x="6" y="13" width="1" height="1" fill="rgb(180,144,90)" fill-opacity="1.000" /><rect x="8" y="4" width="1" height="1" fill="rgb(180,144,90)" fill-opacity="1.000" /><rect x="8" y="7" width="1" height="1" fill="rgb(180,144,90)" fill-opacity="1.000" /><rect x="8" y="9" width="1" height="2" fill="rgb(180,144,90)" fill-opacity="1.000" /><rect x="8" y="12" width="1" height="1" fill="rgb(180,144,90)" fill-opacity="1.000" /><rect x="9" y="4" width="1" height="1" fill="rgb(143,119,69)" fill-opacity="1.000" /><rect x="9" y="9" width="1" height="1" fill="rgb(143,119,69)" fill-opacity="1.000" /><rect x="10" y="4" width="1" height="1" fill="rgb(180,144,90)" fill-opacity="1.000" /><rect x="11" y="4" width="1" height="1" fill="rgb(61,48,30)" fill-opacity="1.000" /><rect x="11" y="14" width="1" height="1" fill="rgb(61,48,30)" fill-opacity="1.000" /><rect x="4" y="5" width="2" height="1" fill="rgb(61,48,30)" fill-opacity="1.000" /><rect x="6" y="5" width="1" height="1" fill="rgb(143,119,69)" fill-opacity="1.000" /><rect x="6" y="11" width="1" height="1" fill="rgb(143,119,69)" fill-opacity="1.000" /><rect x="7" y="5" width="1" height="2" fill="rgb(61,48,30)" fill-opacity="1.000" /><rect x="7" y="10" width="1" height="2" fill="rgb(61,48,30)" fill-opacity="1.000" /><rect x="8" y="5" width="1" height="1" fill="rgb(143,119,69)" fill-opacity="1.000" /><rect x="8" y="13" width="1" height="1" fill="rgb(143,119,69)" fill-opacity="1.000" /><rect x="9" y="5" width="2" height="1" fill="rgb(61,48,30)" fill-opacity="1.000" /><rect x="5" y="6" width="1" height="3" fill="rgb(95,73,40)" fill-opacity="1.000" /><rect x="5" y="10" width="1" height="3" fill="rgb(95,73,40)" fill-opacity="1.000" /><rect x="6" y="6" width="1" height="1" fill="rgb(162,130,81)" fill-opacity="1.000" /><rect x="6" y="8" width="1" height="1" fill="rgb(162,130,81)" fill-opacity="1.000" /><rect x="6" y="12" width="1" height="1" fill="rgb(162,130,81)" fill-opacity="1.000" /><rect x="8" y="6" width="1" height="1" fill="rgb(162,130,81)" fill-opacity="1.000" /><rect x="8" y="8" width="1" height="1" fill="rgb(162,130,81)" fill-opacity="1.000" /><rect x="8" y="11" width="1" height="1" fill="rgb(162,130,81)" fill-opacity="1.000" /><rect x="9" y="6" width="1" height="3" fill="rgb(61,48,30)" fill-opacity="1.000" /><rect x="9" y="10" width="1" height="4" fill="rgb(61,48,30)" fill-opacity="1.000" /><rect x="4" y="9" width="1" height="1" fill="rgb(95,73,40)" fill-opacity="1.000" /><rect x="5" y="9" width="2" height="1" fill="rgb(143,119,69)" fill-opacity="1.000" /><rect x="10" y="9" width="1" height="1" fill="rgb(61,48,30)" fill-opacity="1.000" /><rect x="4" y="13" width="2" height="1" fill="rgb(95,73,40)" fill-opacity="1.000" /><rect x="10" y="13" width="1" height="1" fill="rgb(95,73,40)" fill-opacity="1.000" /><rect x="4" y="14" width="2" height="1" fill="rgb(168,168,168)" fill-opacity="1.000" /><rect x="6" y="14" width="1" height="1" fill="rgb(157,157,157)" fill-opacity="1.000" /><rect x="7" y="14" width="1" height="1" fill="rgb(168,168,168)" fill-opacity="1.000" /><rect x="8" y="14" width="1" height="1" fill="rgb(176,176,176)" fill-opacity="1.000" /><rect x="9" y="14" width="1" height="1" fill="rgb(168,168,168)" fill-opacity="1.000" /><rect x="10" y="14" width="1" height="1" fill="rgb(176,176,176)" fill-opacity="1.000" /><rect x="4" y="15" width="7" height="1" fill="rgb(61,48,30)" fill-opacity="1.000" /></svg>