<?xml version='1.0' encoding='utf-8'?>
<svg width="16" height="16" viewBox="0 0 16 16" xmlns="http://www.w3.org/2000/svg"> <rect x="4" y="0" width="1" height="1" fill="rgb(224,96,148)" fill-opacity="1.000" /><rect x="11" y="0" width="1" height="1" fill="rgb(224,96,148)" fill-opacity="1.000" /><rect x="2" y="1" width="1" height="1" fill="rgb(242,112,147)" fill-opacity="1.000" /><rect x="4" y="1" width="1" height="1" fill="rgb(242,112,147)" fill-opacity="1.000" /><rect x="5" y="1" width="1" height="1" fill="rgb(214,78,137)" fill-opacity="1.000" /><rect x="10" y="1" width="1" height="1" fill="rgb(214,78,137)" fill-opacity="1.000" /><rect x="11" y="1" width="1" height="1" fill="rgb(242,112,147)" fill-opacity="1.000" /><rect x="13" y="1" width="1" height="1" fill="rgb(242,112,147)" fill-opacity="1.000" /><rect x="2" y="2" width="1" height="1" fill="rgb(224,96,148)" fill-opacity="1.000" /><rect x="3" y="2" width="1" height="1" fill="rgb(242,112,147)" fill-opacity="1.000" /><rect x="4" y="2" width="1" height="1" fill="rgb(252,200,231)" fill-opacity="1.000" /><rect x="4" y="4" width="1" height="1" fill="rgb(252,200,231)" fill-opacity="1.000" /><rect x="5" y="2" width="6" height="1" fill="rgb(255,226,243)" fill-opacity="1.000" /><rect x="5" y="4" width="6" height="1" fill="rgb(255,226,243)" fill-opacity="1.000" /><rect x="11" y="2" width="1" height="1" fill="rgb(252,200,231)" fill-opacity="1.000" /><rect x="11" y="4" width="1" height="1" fill="rgb(252,200,231)" fill-opacity="1.000" /><rect x="12" y="2" width="1" height="1" fill="rgb(242,112,147)" fill-opacity="1.000" /><rect x="13" y="2" width="1" height="1" fill="rgb(224,96,148)" fill-opacity="1.000" /><rect x="3" y="3" width="1" height="1" fill="rgb(214,78,137)" fill-opacity="1.000" /><rect x="4" y="3" width="1" height="1" fill="rgb(58,0,108)" fill-opacity="1.000" /><rect x="5" y="3" width="2" height="1" fill="rgb(255,226,243)" fill-opacity="1.000" /><rect x="7" y="3" width="2" height="1" fill="rgb(252,200,231)" fill-opacity="1.000" /><rect x="9" y="3" width="2" height="1" fill="rgb(255,226,243)" fill-opacity="1.000" /><rect x="11" y="3" width="1" height="1" fill="rgb(58,0,108)" fill-opacity="1.000" /><rect x="12" y="3" width="1" height="1" fill="rgb(214,78,137)" fill-opacity="1.000" /><rect x="2" y="4" width="2" height="1" fill="rgb(242,112,147)" fill-opacity="1.000" /><rect x="12" y="4" width="2" height="1" fill="rgb(242,112,147)" fill-opacity="1.000" /><rect x="2" y="5" width="1" height="7" fill="rgb(53,53,53)" fill-opacity="1.000" /><rect x="3" y="5" width="1" height="1" fill="rgb(35,79,204)" fill-opacity="1.000" /><rect x="4" y="5" width="8" height="1" fill="rgb(233,142,213)" fill-opacity="1.000" /><rect x="12" y="5" width="1" height="1" fill="rgb(35,79,204)" fill-opacity="1.000" /><rect x="13" y="5" width="1" height="1" fill="rgb(53,53,53)" fill-opacity="1.000" /><rect x="13" y="7" width="1" height="5" fill="rgb(53,53,53)" fill-opacity="1.000" /><rect x="3" y="6" width="1" height="1" fill="rgb(52,95,218)" fill-opacity="1.000" /><rect x="4" y="6" width="1" height="1" fill="rgb(53,53,53)" fill-opacity="1.000" /><rect x="4" y="14" width="1" height="1" fill="rgb(53,53,53)" fill-opacity="1.000" /><rect x="5" y="6" width="1" height="1" fill="rgb(177,87,158)" fill-opacity="1.000" /><rect x="6" y="6" width="3" height="1" fill="rgb(52,95,218)" fill-opacity="1.000" /><rect x="9" y="6" width="1" height="1" fill="rgb(35,79,204)" fill-opacity="1.000" /><rect x="10" y="6" width="1" height="1" fill="rgb(177,87,158)" fill-opacity="1.000" /><rect x="11" y="6" width="3" height="1" fill="rgb(53,53,53)" fill-opacity="1.000" /><rect x="3" y="7" width="1" height="3" fill="rgb(216,216,216)" fill-opacity="1.000" /><rect x="4" y="7" width="1" height="1" fill="rgb(168,168,168)" fill-opacity="1.000" /><rect x="4" y="9" width="1" height="1" fill="rgb(168,168,168)" fill-opacity="1.000" /><rect x="4" y="13" width="1" height="1" fill="rgb(168,168,168)" fill-opacity="1.000" /><rect x="5" y="7" width="1" height="1" fill="rgb(233,142,213)" fill-opacity="1.000" /><rect x="6" y="7" width="1" height="1" fill="rgb(53,53,53)" fill-opacity="1.000" /><rect x="7" y="7" width="1" height="1" fill="rgb(35,79,204)" fill-opacity="1.000" /><rect x="8" y="7" width="1" height="1" fill="rgb(68,111,233)" fill-opacity="1.000" /><rect x="9" y="7" width="1" height="1" fill="rgb(53,53,53)" fill-opacity="1.000" /><rect x="10" y="7" width="1" height="1" fill="rgb(233,142,213)" fill-opacity="1.000" /><rect x="11" y="7" width="1" height="1" fill="rgb(114,114,114)" fill-opacity="1.000" /><rect x="11" y="9" width="1" height="1" fill="rgb(114,114,114)" fill-opacity="1.000" /><rect x="12" y="7" width="1" height="2" fill="rgb(150,150,150)" fill-opacity="1.000" /><rect x="12" y="11" width="1" height="1" fill="rgb(150,150,150)" fill-opacity="1.000" /><rect x="4" y="8" width="1" height="1" fill="rgb(209,54,116)" fill-opacity="1.000" /><rect x="5" y="8" width="1" height="1" fill="rgb(252,200,231)" fill-opacity="1.000" /><rect x="6" y="8" width="1" height="1" fill="rgb(209,54,116)" fill-opacity="1.000" /><rect x="7" y="8" width="1" height="1" fill="rgb(168,168,168)" fill-opacity="1.000" /><rect x="7" y="10" width="1" height="1" fill="rgb(168,168,168)" fill-opacity="1.000" /><rect x="7" y="13" width="1" height="2" fill="rgb(168,168,168)" fill-opacity="1.000" /><rect x="8" y="8" width="1" height="1" fill="rgb(52,95,218)" fill-opacity="1.000" /><rect x="8" y="10" width="1" height="1" fill="rgb(52,95,218)" fill-opacity="1.000" /><rect x="9" y="8" width="1" height="1" fill="rgb(209,54,116)" fill-opacity="1.000" /><rect x="10" y="8" width="1" height="1" fill="rgb(252,200,231)" fill-opacity="1.000" /><rect x="11" y="8" width="1" height="1" fill="rgb(209,54,116)" fill-opacity="1.000" /><rect x="5" y="9" width="1" height="1" fill="rgb(209,54,116)" fill-opacity="1.000" /><rect x="6" y="9" width="3" height="1" fill="rgb(168,168,168)" fill-opacity="1.000" /><rect x="9" y="9" width="1" height="1" fill="rgb(114,114,114)" fill-opacity="1.000" /><rect x="9" y="14" width="1" height="1" fill="rgb(114,114,114)" fill-opacity="1.000" /><rect x="10" y="9" width="1" height="1" fill="rgb(209,54,116)" fill-opacity="1.000" /><rect x="12" y="9" width="1" height="2" fill="rgb(168,168,168)" fill-opacity="1.000" /><rect x="3" y="10" width="1" height="1" fill="rgb(168,168,168)" fill-opacity="1.000" /><rect x="4" y="10" width="3" height="1" fill="rgb(216,216,216)" fill-opacity="1.000" /><rect x="9" y="10" width="1" height="3" fill="rgb(150,150,150)" fill-opacity="1.000" /><rect x="10" y="10" width="2" height="2" fill="rgb(114,114,114)" fill-opacity="1.000" /><rect x="3" y="11" width="1" height="1" fill="rgb(114,114,114)" fill-opacity="1.000" /><rect x="4" y="11" width="1" height="2" fill="rgb(216,216,216)" fill-opacity="1.000" /><rect x="5" y="11" width="1" height="2" fill="rgb(255,255,255)" fill-opacity="1.000" /><rect x="6" y="11" width="1" height="2" fill="rgb(216,216,216)" fill-opacity="1.000" /><rect x="6" y="14" width="1" height="1" fill="rgb(216,216,216)" fill-opacity="1.000" /><rect x="7" y="11" width="2" height="2" fill="rgb(168,168,168)" fill-opacity="1.000" /><rect x="3" y="12" width="1" height="2" fill="rgb(53,53,53)" fill-opacity="1.000" /><rect x="10" y="12" width="1" height="2" fill="rgb(114,114,114)" fill-opacity="1.000" /><rect x="11" y="12" width="1" height="2" fill="rgb(150,150,150)" fill-opacity="1.000" /><rect x="12" y="12" width="1" height="2" fill="rgb(53,53,53)" fill-opacity="1.000" /><rect x="5" y="13" width="2" height="1" fill="rgb(216,216,216)" fill-opacity="1.000" /><rect x="8" y="13" width="2" height="1" fill="rgb(150,150,150)" fill-opacity="1.000" /><rect x="5" y="14" width="1" height="1" fill="rgb(168,168,168)" fill-opacity="1.000" /><rect x="8" y="14" width="1" height="1" fill="rgb(150,150,150)" fill-opacity="1.000" /><rect x="10" y="14" width="1" height="1" fill="rgb(150,150,150)" fill-opacity="1.000" /><rect x="11" y="14" width="1" height="1" fill="rgb(53,53,53)" fill-opacity="1.000" /><rect x="5" y="15" width="6" height="1" fill="rgb(53,53,53)" fill-opacity="1.000" /></svg>