<?xml version='1.0' encoding='utf-8'?>
<svg width="16" height="16" viewBox="0 0 16 16" xmlns="http://www.w3.org/2000/svg"> <rect x="3" y="2" width="1" height="1" fill="rgb(146,128,59)" fill-opacity="1.000" /><rect x="3" y="15" width="1" height="1" fill="rgb(146,128,59)" fill-opacity="1.000" /><rect x="4" y="2" width="2" height="1" fill="rgb(200,177,77)" fill-opacity="1.000" /><rect x="6" y="2" width="2" height="1" fill="rgb(211,187,80)" fill-opacity="1.000" /><rect x="8" y="2" width="2" height="1" fill="rgb(200,177,77)" fill-opacity="1.000" /><rect x="10" y="2" width="1" height="1" fill="rgb(211,187,80)" fill-opacity="1.000" /><rect x="10" y="11" width="1" height="1" fill="rgb(211,187,80)" fill-opacity="1.000" /><rect x="10" y="14" width="1" height="1" fill="rgb(211,187,80)" fill-opacity="1.000" /><rect x="11" y="2" width="1" height="1" fill="rgb(200,177,77)" fill-opacity="1.000" /><rect x="12" y="2" width="1" height="2" fill="rgb(211,187,80)" fill-opacity="1.000" /><rect x="12" y="7" width="1" height="1" fill="rgb(211,187,80)" fill-opacity="1.000" /><rect x="12" y="10" width="1" height="1" fill="rgb(211,187,80)" fill-opacity="1.000" /><rect x="12" y="14" width="1" height="1" fill="rgb(211,187,80)" fill-opacity="1.000" /><rect x="3" y="3" width="1" height="1" fill="rgb(153,135,65)" fill-opacity="1.000" /><rect x="3" y="6" width="1" height="2" fill="rgb(153,135,65)" fill-opacity="1.000" /><rect x="3" y="10" width="1" height="2" fill="rgb(153,135,65)" fill-opacity="1.000" /><rect x="3" y="14" width="1" height="1" fill="rgb(153,135,65)" fill-opacity="1.000" /><rect x="4" y="3" width="1" height="1" fill="rgb(187,168,76)" fill-opacity="1.000" /><rect x="4" y="7" width="1" height="4" fill="rgb(187,168,76)" fill-opacity="1.000" /><rect x="5" y="3" width="7" height="1" fill="rgb(169,152,70)" fill-opacity="1.000" /><rect x="5" y="13" width="7" height="1" fill="rgb(169,152,70)" fill-opacity="1.000" /><rect x="3" y="4" width="1" height="1" fill="rgb(227,204,106)" fill-opacity="1.000" /><rect x="3" y="8" width="1" height="1" fill="rgb(227,204,106)" fill-opacity="1.000" /><rect x="3" y="12" width="1" height="1" fill="rgb(227,204,106)" fill-opacity="1.000" /><rect x="4" y="4" width="1" height="1" fill="rgb(217,194,94)" fill-opacity="1.000" /><rect x="6" y="4" width="1" height="1" fill="rgb(217,194,94)" fill-opacity="1.000" /><rect x="6" y="6" width="1" height="1" fill="rgb(217,194,94)" fill-opacity="1.000" /><rect x="6" y="9" width="1" height="1" fill="rgb(217,194,94)" fill-opacity="1.000" /><rect x="9" y="4" width="1" height="1" fill="rgb(217,194,94)" fill-opacity="1.000" /><rect x="9" y="6" width="1" height="1" fill="rgb(217,194,94)" fill-opacity="1.000" /><rect x="9" y="9" width="1" height="1" fill="rgb(217,194,94)" fill-opacity="1.000" /><rect x="11" y="4" width="1" height="7" fill="rgb(169,152,70)" fill-opacity="1.000" /><rect x="11" y="12" width="1" height="1" fill="rgb(169,152,70)" fill-opacity="1.000" /><rect x="11" y="14" width="1" height="1" fill="rgb(169,152,70)" fill-opacity="1.000" /><rect x="12" y="4" width="1" height="1" fill="rgb(217,194,94)" fill-opacity="1.000" /><rect x="12" y="8" width="1" height="2" fill="rgb(217,194,94)" fill-opacity="1.000" /><rect x="12" y="13" width="1" height="1" fill="rgb(217,194,94)" fill-opacity="1.000" /><rect x="3" y="5" width="1" height="1" fill="rgb(169,152,70)" fill-opacity="1.000" /><rect x="3" y="9" width="1" height="1" fill="rgb(169,152,70)" fill-opacity="1.000" /><rect x="3" y="13" width="1" height="1" fill="rgb(169,152,70)" fill-opacity="1.000" /><rect x="4" y="5" width="1" height="1" fill="rgb(227,204,106)" fill-opacity="1.000" /><rect x="4" y="11" width="1" height="1" fill="rgb(227,204,106)" fill-opacity="1.000" /><rect x="5" y="5" width="6" height="1" fill="rgb(183,171,73)" fill-opacity="1.000" /><rect x="5" y="8" width="6" height="1" fill="rgb(183,171,73)" fill-opacity="1.000" /><rect x="12" y="5" width="1" height="1" fill="rgb(227,204,106)" fill-opacity="1.000" /><rect x="12" y="11" width="1" height="1" fill="rgb(227,204,106)" fill-opacity="1.000" /><rect x="4" y="6" width="1" height="1" fill="rgb(194,181,78)" fill-opacity="1.000" /><rect x="4" y="12" width="1" height="1" fill="rgb(194,181,78)" fill-opacity="1.000" /><rect x="12" y="6" width="1" height="1" fill="rgb(194,181,78)" fill-opacity="1.000" /><rect x="12" y="12" width="1" height="1" fill="rgb(194,181,78)" fill-opacity="1.000" /><rect x="6" y="7" width="1" height="1" fill="rgb(227,204,106)" fill-opacity="1.000" /><rect x="9" y="7" width="1" height="1" fill="rgb(227,204,106)" fill-opacity="1.000" /><rect x="5" y="10" width="5" height="1" fill="rgb(169,152,70)" fill-opacity="1.000" /><rect x="10" y="10" width="1" height="1" fill="rgb(239,217,126)" fill-opacity="1.000" /><rect x="10" y="12" width="1" height="1" fill="rgb(239,217,126)" fill-opacity="1.000" /><rect x="5" y="11" width="1" height="2" fill="rgb(169,152,70)" fill-opacity="1.000" /><rect x="5" y="14" width="1" height="1" fill="rgb(169,152,70)" fill-opacity="1.000" /><rect x="6" y="11" width="3" height="1" fill="rgb(211,187,80)" fill-opacity="1.000" /><rect x="9" y="11" width="1" height="1" fill="rgb(239,217,126)" fill-opacity="1.000" /><rect x="11" y="11" width="1" height="1" fill="rgb(239,217,126)" fill-opacity="1.000" /><rect x="6" y="12" width="1" height="1" fill="rgb(211,187,80)" fill-opacity="1.000" /><rect x="6" y="14" width="1" height="1" fill="rgb(211,187,80)" fill-opacity="1.000" /><rect x="7" y="12" width="2" height="1" fill="rgb(217,194,94)" fill-opacity="1.000" /><rect x="9" y="12" width="1" height="1" fill="rgb(211,187,80)" fill-opacity="1.000" /><rect x="4" y="13" width="1" height="2" fill="rgb(211,187,80)" fill-opacity="1.000" /><rect x="7" y="14" width="3" height="1" fill="rgb(217,194,94)" fill-opacity="1.000" /><rect x="4" y="15" width="1" height="1" fill="rgb(153,135,65)" fill-opacity="1.000" /><rect x="5" y="15" width="2" height="1" fill="rgb(169,152,70)" fill-opacity="1.000" /><rect x="7" y="15" width="2" height="1" fill="rgb(153,135,65)" fill-opacity="1.000" /><rect x="9" y="15" width="3" height="1" fill="rgb(169,152,70)" fill-opacity="1.000" /><rect x="12" y="15" width="1" height="1" fill="rgb(153,135,65)" fill-opacity="1.000" /></svg>