<?xml version='1.0' encoding='utf-8'?>
<svg width="16" height="16" viewBox="0 0 16 16" xmlns="http://www.w3.org/2000/svg"> <rect x="9" y="2" width="1" height="1" fill="rgb(143,45,47)" fill-opacity="1.000" /><rect x="10" y="2" width="1" height="1" fill="rgb(113,22,13)" fill-opacity="1.000" /><rect x="10" y="3" width="1" height="2" fill="rgb(143,45,47)" fill-opacity="1.000" /><rect x="10" y="7" width="1" height="1" fill="rgb(143,45,47)" fill-opacity="1.000" /><rect x="10" y="9" width="1" height="1" fill="rgb(143,45,47)" fill-opacity="1.000" /><rect x="11" y="3" width="1" height="1" fill="rgb(113,22,13)" fill-opacity="1.000" /><rect x="12" y="3" width="1" height="1" fill="rgb(91,29,23)" fill-opacity="1.000" /><rect x="6" y="4" width="3" height="1" fill="rgb(113,22,13)" fill-opacity="1.000" /><rect x="11" y="4" width="1" height="1" fill="rgb(91,29,23)" fill-opacity="1.000" /><rect x="11" y="7" width="1" height="3" fill="rgb(91,29,23)" fill-opacity="1.000" /><rect x="5" y="5" width="1" height="1" fill="rgb(113,22,13)" fill-opacity="1.000" /><rect x="6" y="5" width="1" height="1" fill="rgb(182,72,76)" fill-opacity="1.000" /><rect x="6" y="8" width="1" height="1" fill="rgb(182,72,76)" fill-opacity="1.000" /><rect x="6" y="10" width="1" height="1" fill="rgb(182,72,76)" fill-opacity="1.000" /><rect x="7" y="5" width="1" height="1" fill="rgb(192,114,121)" fill-opacity="1.000" /><rect x="7" y="8" width="1" height="1" fill="rgb(192,114,121)" fill-opacity="1.000" /><rect x="8" y="5" width="1" height="1" fill="rgb(182,72,76)" fill-opacity="1.000" /><rect x="8" y="9" width="1" height="1" fill="rgb(182,72,76)" fill-opacity="1.000" /><rect x="9" y="5" width="2" height="1" fill="rgb(113,22,13)" fill-opacity="1.000" /><rect x="11" y="5" width="2" height="1" fill="rgb(91,29,23)" fill-opacity="1.000" /><rect x="4" y="6" width="1" height="3" fill="rgb(113,22,13)" fill-opacity="1.000" /><rect x="5" y="6" width="1" height="1" fill="rgb(164,39,44)" fill-opacity="1.000" /><rect x="5" y="8" width="1" height="1" fill="rgb(164,39,44)" fill-opacity="1.000" /><rect x="6" y="6" width="2" height="1" fill="rgb(182,72,76)" fill-opacity="1.000" /><rect x="8" y="6" width="1" height="1" fill="rgb(221,181,183)" fill-opacity="1.000" /><rect x="9" y="6" width="1" height="1" fill="rgb(164,39,44)" fill-opacity="1.000" /><rect x="9" y="9" width="1" height="1" fill="rgb(164,39,44)" fill-opacity="1.000" /><rect x="10" y="6" width="1" height="1" fill="rgb(91,29,23)" fill-opacity="1.000" /><rect x="10" y="10" width="1" height="1" fill="rgb(91,29,23)" fill-opacity="1.000" /><rect x="5" y="7" width="3" height="1" fill="rgb(182,72,76)" fill-opacity="1.000" /><rect x="8" y="7" width="1" height="1" fill="rgb(164,39,44)" fill-opacity="1.000" /><rect x="9" y="7" width="1" height="1" fill="rgb(182,72,76)" fill-opacity="1.000" /><rect x="8" y="8" width="3" height="1" fill="rgb(164,39,44)" fill-opacity="1.000" /><rect x="3" y="9" width="1" height="3" fill="rgb(113,22,13)" fill-opacity="1.000" /><rect x="4" y="9" width="1" height="1" fill="rgb(143,45,47)" fill-opacity="1.000" /><rect x="4" y="11" width="1" height="1" fill="rgb(143,45,47)" fill-opacity="1.000" /><rect x="5" y="9" width="1" height="1" fill="rgb(182,72,76)" fill-opacity="1.000" /><rect x="6" y="9" width="2" height="1" fill="rgb(164,39,44)" fill-opacity="1.000" /><rect x="4" y="10" width="2" height="1" fill="rgb(164,39,44)" fill-opacity="1.000" /><rect x="7" y="10" width="1" height="1" fill="rgb(164,39,44)" fill-opacity="1.000" /><rect x="8" y="10" width="2" height="1" fill="rgb(143,45,47)" fill-opacity="1.000" /><rect x="5" y="11" width="5" height="1" fill="rgb(91,29,23)" fill-opacity="1.000" /><rect x="3" y="12" width="2" height="1" fill="rgb(91,29,23)" fill-opacity="1.000" /><rect x="4" y="13" width="2" height="1" fill="rgb(91,29,23)" fill-opacity="1.000" /></svg>