<?xml version='1.0' encoding='utf-8'?>
<svg width="16" height="16" viewBox="0 0 16 16" xmlns="http://www.w3.org/2000/svg"> <rect x="8" y="1" width="1" height="2" fill="rgb(51,48,101)" fill-opacity="1.000" /><rect x="6" y="2" width="1" height="1" fill="rgb(53,71,154)" fill-opacity="1.000" /><rect x="6" y="13" width="1" height="1" fill="rgb(53,71,154)" fill-opacity="1.000" /><rect x="7" y="2" width="1" height="1" fill="rgb(58,77,165)" fill-opacity="1.000" /><rect x="9" y="2" width="1" height="1" fill="rgb(58,77,165)" fill-opacity="1.000" /><rect x="9" y="11" width="1" height="1" fill="rgb(58,77,165)" fill-opacity="1.000" /><rect x="10" y="2" width="1" height="1" fill="rgb(53,71,154)" fill-opacity="1.000" /><rect x="10" y="11" width="1" height="1" fill="rgb(53,71,154)" fill-opacity="1.000" /><rect x="5" y="3" width="1" height="8" fill="rgb(53,71,154)" fill-opacity="1.000" /><rect x="6" y="3" width="1" height="1" fill="rgb(69,90,190)" fill-opacity="1.000" /><rect x="6" y="8" width="1" height="2" fill="rgb(69,90,190)" fill-opacity="1.000" /><rect x="7" y="3" width="1" height="1" fill="rgb(69,115,199)" fill-opacity="1.000" /><rect x="7" y="9" width="1" height="1" fill="rgb(69,115,199)" fill-opacity="1.000" /><rect x="8" y="3" width="1" height="1" fill="rgb(33,32,52)" fill-opacity="1.000" /><rect x="9" y="3" width="1" height="1" fill="rgb(69,115,199)" fill-opacity="1.000" /><rect x="10" y="3" width="1" height="1" fill="rgb(69,90,190)" fill-opacity="1.000" /><rect x="10" y="5" width="1" height="1" fill="rgb(69,90,190)" fill-opacity="1.000" /><rect x="11" y="3" width="1" height="2" fill="rgb(53,71,154)" fill-opacity="1.000" /><rect x="6" y="4" width="2" height="1" fill="rgb(69,115,199)" fill-opacity="1.000" /><rect x="8" y="4" width="1" height="1" fill="rgb(69,90,190)" fill-opacity="1.000" /><rect x="8" y="8" width="1" height="2" fill="rgb(69,90,190)" fill-opacity="1.000" /><rect x="9" y="4" width="2" height="1" fill="rgb(69,115,199)" fill-opacity="1.000" /><rect x="6" y="5" width="1" height="1" fill="rgb(90,132,208)" fill-opacity="1.000" /><rect x="7" y="5" width="3" height="1" fill="rgb(69,115,199)" fill-opacity="1.000" /><rect x="11" y="5" width="1" height="9" fill="rgb(42,56,123)" fill-opacity="1.000" /><rect x="6" y="6" width="1" height="2" fill="rgb(69,115,199)" fill-opacity="1.000" /><rect x="7" y="6" width="2" height="1" fill="rgb(90,132,208)" fill-opacity="1.000" /><rect x="9" y="6" width="1" height="1" fill="rgb(69,90,190)" fill-opacity="1.000" /><rect x="10" y="6" width="1" height="1" fill="rgb(58,77,165)" fill-opacity="1.000" /><rect x="7" y="7" width="1" height="2" fill="rgb(90,132,208)" fill-opacity="1.000" /><rect x="8" y="7" width="1" height="1" fill="rgb(69,115,199)" fill-opacity="1.000" /><rect x="9" y="7" width="2" height="4" fill="rgb(58,77,165)" fill-opacity="1.000" /><rect x="6" y="10" width="3" height="2" fill="rgb(69,90,190)" fill-opacity="1.000" /><rect x="5" y="11" width="1" height="3" fill="rgb(42,56,123)" fill-opacity="1.000" /><rect x="6" y="12" width="1" height="1" fill="rgb(58,77,165)" fill-opacity="1.000" /><rect x="7" y="12" width="2" height="1" fill="rgb(69,90,190)" fill-opacity="1.000" /><rect x="9" y="12" width="2" height="2" fill="rgb(53,71,154)" fill-opacity="1.000" /><rect x="7" y="13" width="2" height="1" fill="rgb(58,77,165)" fill-opacity="1.000" /><rect x="6" y="14" width="1" height="1" fill="rgb(42,56,123)" fill-opacity="1.000" /><rect x="7" y="14" width="1" height="1" fill="rgb(53,71,154)" fill-opacity="1.000" /><rect x="8" y="14" width="1" height="1" fill="rgb(58,77,165)" fill-opacity="1.000" /><rect x="9" y="14" width="1" height="1" fill="rgb(53,71,154)" fill-opacity="1.000" /><rect x="10" y="14" width="1" height="1" fill="rgb(42,56,123)" fill-opacity="1.000" /><rect x="7" y="15" width="3" height="1" fill="rgb(42,56,123)" fill-opacity="1.000" /></svg>