<?xml version='1.0' encoding='utf-8'?>
<svg width="16" height="16" viewBox="0 0 16 16" xmlns="http://www.w3.org/2000/svg"> <rect x="11" y="1" width="1" height="1" fill="rgb(203,198,165)" fill-opacity="1.000" /><rect x="12" y="1" width="1" height="1" fill="rgb(232,229,210)" fill-opacity="1.000" /><rect x="13" y="1" width="1" height="1" fill="rgb(203,198,165)" fill-opacity="1.000" /><rect x="10" y="2" width="1" height="3" fill="rgb(203,198,165)" fill-opacity="1.000" /><rect x="11" y="2" width="1" height="1" fill="rgb(232,229,210)" fill-opacity="1.000" /><rect x="12" y="2" width="1" height="1" fill="rgb(252,251,237)" fill-opacity="1.000" /><rect x="13" y="2" width="2" height="1" fill="rgb(123,126,107)" fill-opacity="1.000" /><rect x="11" y="3" width="1" height="1" fill="rgb(252,251,237)" fill-opacity="1.000" /><rect x="12" y="3" width="1" height="1" fill="rgb(255,255,253)" fill-opacity="1.000" /><rect x="13" y="3" width="1" height="1" fill="rgb(252,251,237)" fill-opacity="1.000" /><rect x="14" y="3" width="1" height="1" fill="rgb(232,229,210)" fill-opacity="1.000" /><rect x="15" y="3" width="1" height="2" fill="rgb(123,126,107)" fill-opacity="1.000" /><rect x="11" y="4" width="2" height="1" fill="rgb(252,251,237)" fill-opacity="1.000" /><rect x="13" y="4" width="1" height="1" fill="rgb(232,229,210)" fill-opacity="1.000" /><rect x="14" y="4" width="1" height="1" fill="rgb(203,198,165)" fill-opacity="1.000" /><rect x="9" y="5" width="1" height="1" fill="rgb(203,198,165)" fill-opacity="1.000" /><rect x="10" y="5" width="2" height="1" fill="rgb(252,251,237)" fill-opacity="1.000" /><rect x="12" y="5" width="3" height="1" fill="rgb(123,126,107)" fill-opacity="1.000" /><rect x="8" y="6" width="1" height="1" fill="rgb(203,198,165)" fill-opacity="1.000" /><rect x="9" y="6" width="2" height="1" fill="rgb(252,251,237)" fill-opacity="1.000" /><rect x="11" y="6" width="1" height="1" fill="rgb(123,126,107)" fill-opacity="1.000" /><rect x="7" y="7" width="1" height="1" fill="rgb(203,198,165)" fill-opacity="1.000" /><rect x="8" y="7" width="2" height="1" fill="rgb(252,251,237)" fill-opacity="1.000" /><rect x="10" y="7" width="1" height="1" fill="rgb(123,126,107)" fill-opacity="1.000" /><rect x="6" y="8" width="1" height="1" fill="rgb(203,198,165)" fill-opacity="1.000" /><rect x="7" y="8" width="2" height="1" fill="rgb(252,251,237)" fill-opacity="1.000" /><rect x="9" y="8" width="1" height="1" fill="rgb(123,126,107)" fill-opacity="1.000" /><rect x="4" y="9" width="2" height="1" fill="rgb(203,198,165)" fill-opacity="1.000" /><rect x="6" y="9" width="2" height="1" fill="rgb(252,251,237)" fill-opacity="1.000" /><rect x="8" y="9" width="1" height="1" fill="rgb(123,126,107)" fill-opacity="1.000" /><rect x="2" y="10" width="2" height="1" fill="rgb(232,229,210)" fill-opacity="1.000" /><rect x="4" y="10" width="2" height="1" fill="rgb(255,255,253)" fill-opacity="1.000" /><rect x="6" y="10" width="1" height="1" fill="rgb(252,251,237)" fill-opacity="1.000" /><rect x="7" y="10" width="1" height="1" fill="rgb(123,126,107)" fill-opacity="1.000" /><rect x="1" y="11" width="1" height="1" fill="rgb(232,229,210)" fill-opacity="1.000" /><rect x="2" y="11" width="1" height="1" fill="rgb(252,251,237)" fill-opacity="1.000" /><rect x="3" y="11" width="3" height="1" fill="rgb(255,255,253)" fill-opacity="1.000" /><rect x="6" y="11" width="1" height="3" fill="rgb(123,126,107)" fill-opacity="1.000" /><rect x="1" y="12" width="1" height="1" fill="rgb(203,198,165)" fill-opacity="1.000" /><rect x="2" y="12" width="1" height="1" fill="rgb(232,229,210)" fill-opacity="1.000" /><rect x="3" y="12" width="1" height="1" fill="rgb(203,198,165)" fill-opacity="1.000" /><rect x="4" y="12" width="1" height="1" fill="rgb(255,255,253)" fill-opacity="1.000" /><rect x="5" y="12" width="1" height="1" fill="rgb(232,229,210)" fill-opacity="1.000" /><rect x="2" y="13" width="1" height="1" fill="rgb(203,198,165)" fill-opacity="1.000" /><rect x="3" y="13" width="1" height="1" fill="rgb(123,126,107)" fill-opacity="1.000" /><rect x="4" y="13" width="1" height="1" fill="rgb(232,229,210)" fill-opacity="1.000" /><rect x="5" y="13" width="1" height="1" fill="rgb(203,198,165)" fill-opacity="1.000" /><rect x="4" y="14" width="2" height="1" fill="rgb(123,126,107)" fill-opacity="1.000" /></svg>