<?xml version='1.0' encoding='utf-8'?>
<svg width="16" height="16" viewBox="0 0 16 16" xmlns="http://www.w3.org/2000/svg"> <rect x="4" y="3" width="1" height="1" fill="rgb(49,49,49)" fill-opacity="1.000" /><rect x="4" y="5" width="1" height="1" fill="rgb(49,49,49)" fill-opacity="1.000" /><rect x="7" y="3" width="2" height="1" fill="rgb(227,218,118)" fill-opacity="1.000" /><rect x="11" y="3" width="1" height="1" fill="rgb(49,49,49)" fill-opacity="1.000" /><rect x="11" y="5" width="1" height="1" fill="rgb(49,49,49)" fill-opacity="1.000" /><rect x="4" y="4" width="2" height="1" fill="rgb(49,49,49)" fill-opacity="1.000" /><rect x="7" y="4" width="2" height="1" fill="rgb(217,204,63)" fill-opacity="1.000" /><rect x="10" y="4" width="2" height="1" fill="rgb(49,49,49)" fill-opacity="1.000" /><rect x="3" y="5" width="1" height="1" fill="rgb(82,82,82)" fill-opacity="1.000" /><rect x="5" y="5" width="1" height="1" fill="rgb(82,82,82)" fill-opacity="1.000" /><rect x="6" y="5" width="1" height="1" fill="rgb(49,49,49)" fill-opacity="1.000" /><rect x="7" y="5" width="2" height="1" fill="rgb(82,82,82)" fill-opacity="1.000" /><rect x="9" y="5" width="1" height="1" fill="rgb(49,49,49)" fill-opacity="1.000" /><rect x="10" y="5" width="1" height="1" fill="rgb(82,82,82)" fill-opacity="1.000" /><rect x="12" y="5" width="1" height="1" fill="rgb(82,82,82)" fill-opacity="1.000" /><rect x="4" y="6" width="1" height="1" fill="rgb(82,82,82)" fill-opacity="1.000" /><rect x="7" y="6" width="1" height="1" fill="rgb(212,183,58)" fill-opacity="1.000" /><rect x="7" y="8" width="1" height="1" fill="rgb(212,183,58)" fill-opacity="1.000" /><rect x="8" y="6" width="1" height="1" fill="rgb(217,204,63)" fill-opacity="1.000" /><rect x="11" y="6" width="1" height="1" fill="rgb(82,82,82)" fill-opacity="1.000" /><rect x="6" y="7" width="1" height="2" fill="rgb(91,91,91)" fill-opacity="1.000" /><rect x="7" y="7" width="1" height="1" fill="rgb(210,131,51)" fill-opacity="1.000" /><rect x="7" y="9" width="1" height="1" fill="rgb(210,131,51)" fill-opacity="1.000" /><rect x="7" y="11" width="1" height="1" fill="rgb(210,131,51)" fill-opacity="1.000" /><rect x="8" y="7" width="1" height="1" fill="rgb(212,183,58)" fill-opacity="1.000" /><rect x="8" y="9" width="1" height="1" fill="rgb(212,183,58)" fill-opacity="1.000" /><rect x="9" y="7" width="1" height="2" fill="rgb(91,91,91)" fill-opacity="1.000" /><rect x="8" y="8" width="1" height="1" fill="rgb(210,131,51)" fill-opacity="1.000" /><rect x="8" y="10" width="1" height="1" fill="rgb(210,131,51)" fill-opacity="1.000" /><rect x="8" y="12" width="1" height="1" fill="rgb(210,131,51)" fill-opacity="1.000" /><rect x="5" y="9" width="1" height="3" fill="rgb(91,91,91)" fill-opacity="1.000" /><rect x="6" y="9" width="1" height="1" fill="rgb(102,102,102)" fill-opacity="1.000" /><rect x="9" y="9" width="1" height="1" fill="rgb(102,102,102)" fill-opacity="1.000" /><rect x="10" y="9" width="1" height="3" fill="rgb(91,91,91)" fill-opacity="1.000" /><rect x="6" y="10" width="1" height="2" fill="rgb(121,121,121)" fill-opacity="1.000" /><rect x="7" y="10" width="1" height="1" fill="rgb(202,99,42)" fill-opacity="1.000" /><rect x="7" y="12" width="1" height="1" fill="rgb(202,99,42)" fill-opacity="1.000" /><rect x="9" y="10" width="1" height="2" fill="rgb(121,121,121)" fill-opacity="1.000" /><rect x="8" y="11" width="1" height="1" fill="rgb(202,99,42)" fill-opacity="1.000" /><rect x="4" y="12" width="1" height="1" fill="rgb(91,91,91)" fill-opacity="1.000" /><rect x="5" y="12" width="1" height="1" fill="rgb(102,102,102)" fill-opacity="1.000" /><rect x="6" y="12" width="1" height="1" fill="rgb(147,147,147)" fill-opacity="1.000" /><rect x="9" y="12" width="1" height="1" fill="rgb(147,147,147)" fill-opacity="1.000" /><rect x="10" y="12" width="1" height="1" fill="rgb(102,102,102)" fill-opacity="1.000" /><rect x="11" y="12" width="1" height="1" fill="rgb(91,91,91)" fill-opacity="1.000" /><rect x="2" y="13" width="5" height="1" fill="rgb(86,86,86)" fill-opacity="1.000" /><rect x="7" y="13" width="2" height="1" fill="rgb(102,102,102)" fill-opacity="1.000" /><rect x="9" y="13" width="5" height="1" fill="rgb(86,86,86)" fill-opacity="1.000" /></svg>