<?xml version='1.0' encoding='utf-8'?>
<svg width="16" height="16" viewBox="0 0 16 16" xmlns="http://www.w3.org/2000/svg"> <rect x="4" y="1" width="8" height="1" fill="rgb(213,200,172)" fill-opacity="1.000" /><rect x="2" y="2" width="2" height="1" fill="rgb(213,200,172)" fill-opacity="1.000" /><rect x="4" y="2" width="1" height="1" fill="rgb(245,230,198)" fill-opacity="1.000" /><rect x="5" y="2" width="6" height="1" fill="rgb(255,248,226)" fill-opacity="1.000" /><rect x="11" y="2" width="1" height="1" fill="rgb(245,230,198)" fill-opacity="1.000" /><rect x="11" y="10" width="1" height="1" fill="rgb(245,230,198)" fill-opacity="1.000" /><rect x="12" y="2" width="2" height="1" fill="rgb(213,200,172)" fill-opacity="1.000" /><rect x="1" y="3" width="1" height="1" fill="rgb(213,200,172)" fill-opacity="1.000" /><rect x="2" y="3" width="1" height="1" fill="rgb(245,230,198)" fill-opacity="1.000" /><rect x="2" y="9" width="1" height="1" fill="rgb(245,230,198)" fill-opacity="1.000" /><rect x="3" y="3" width="2" height="1" fill="rgb(255,253,254)" fill-opacity="1.000" /><rect x="5" y="3" width="1" height="1" fill="rgb(176,33,50)" fill-opacity="1.000" /><rect x="6" y="3" width="1" height="1" fill="rgb(255,253,254)" fill-opacity="1.000" /><rect x="7" y="3" width="2" height="1" fill="rgb(211,33,45)" fill-opacity="1.000" /><rect x="9" y="3" width="4" height="1" fill="rgb(255,253,254)" fill-opacity="1.000" /><rect x="13" y="3" width="1" height="1" fill="rgb(245,230,198)" fill-opacity="1.000" /><rect x="14" y="3" width="1" height="1" fill="rgb(213,200,172)" fill-opacity="1.000" /><rect x="14" y="8" width="1" height="1" fill="rgb(213,200,172)" fill-opacity="1.000" /><rect x="0" y="4" width="1" height="4" fill="rgb(213,200,172)" fill-opacity="1.000" /><rect x="1" y="4" width="1" height="1" fill="rgb(245,230,198)" fill-opacity="1.000" /><rect x="1" y="6" width="1" height="3" fill="rgb(245,230,198)" fill-opacity="1.000" /><rect x="2" y="4" width="1" height="1" fill="rgb(255,253,254)" fill-opacity="1.000" /><rect x="3" y="4" width="1" height="1" fill="rgb(176,33,50)" fill-opacity="1.000" /><rect x="4" y="4" width="1" height="1" fill="rgb(255,253,254)" fill-opacity="1.000" /><rect x="5" y="4" width="1" height="1" fill="rgb(255,248,226)" fill-opacity="1.000" /><rect x="5" y="6" width="1" height="1" fill="rgb(255,248,226)" fill-opacity="1.000" /><rect x="6" y="4" width="1" height="1" fill="rgb(211,33,45)" fill-opacity="1.000" /><rect x="7" y="4" width="1" height="1" fill="rgb(240,115,90)" fill-opacity="1.000" /><rect x="8" y="4" width="1" height="1" fill="rgb(232,53,53)" fill-opacity="1.000" /><rect x="9" y="4" width="1" height="1" fill="rgb(211,33,45)" fill-opacity="1.000" /><rect x="10" y="4" width="1" height="2" fill="rgb(255,253,254)" fill-opacity="1.000" /><rect x="11" y="4" width="1" height="1" fill="rgb(176,33,50)" fill-opacity="1.000" /><rect x="12" y="4" width="2" height="1" fill="rgb(255,253,254)" fill-opacity="1.000" /><rect x="14" y="4" width="1" height="1" fill="rgb(245,230,198)" fill-opacity="1.000" /><rect x="14" y="6" width="1" height="1" fill="rgb(245,230,198)" fill-opacity="1.000" /><rect x="15" y="4" width="1" height="4" fill="rgb(213,200,172)" fill-opacity="1.000" /><rect x="1" y="5" width="1" height="1" fill="rgb(255,248,226)" fill-opacity="1.000" /><rect x="2" y="5" width="2" height="2" fill="rgb(255,253,254)" fill-opacity="1.000" /><rect x="4" y="5" width="1" height="1" fill="rgb(255,248,226)" fill-opacity="1.000" /><rect x="5" y="5" width="1" height="1" fill="rgb(255,253,254)" fill-opacity="1.000" /><rect x="6" y="5" width="1" height="1" fill="rgb(213,200,172)" fill-opacity="1.000" /><rect x="7" y="5" width="1" height="1" fill="rgb(232,53,53)" fill-opacity="1.000" /><rect x="8" y="5" width="1" height="1" fill="rgb(211,33,45)" fill-opacity="1.000" /><rect x="9" y="5" width="1" height="1" fill="rgb(213,200,172)" fill-opacity="1.000" /><rect x="11" y="5" width="1" height="1" fill="rgb(255,248,226)" fill-opacity="1.000" /><rect x="12" y="5" width="1" height="1" fill="rgb(255,253,254)" fill-opacity="1.000" /><rect x="13" y="5" width="1" height="1" fill="rgb(232,53,53)" fill-opacity="1.000" /><rect x="14" y="5" width="1" height="1" fill="rgb(255,248,226)" fill-opacity="1.000" /><rect x="4" y="6" width="1" height="1" fill="rgb(232,53,53)" fill-opacity="1.000" /><rect x="6" y="6" width="1" height="1" fill="rgb(245,230,198)" fill-opacity="1.000" /><rect x="7" y="6" width="2" height="1" fill="rgb(213,200,172)" fill-opacity="1.000" /><rect x="9" y="6" width="2" height="1" fill="rgb(255,248,226)" fill-opacity="1.000" /><rect x="11" y="6" width="2" height="1" fill="rgb(255,253,254)" fill-opacity="1.000" /><rect x="13" y="6" width="1" height="1" fill="rgb(255,248,226)" fill-opacity="1.000" /><rect x="2" y="7" width="2" height="1" fill="rgb(255,248,226)" fill-opacity="1.000" /><rect x="4" y="7" width="6" height="1" fill="rgb(255,253,254)" fill-opacity="1.000" /><rect x="10" y="7" width="1" height="1" fill="rgb(232,53,53)" fill-opacity="1.000" /><rect x="11" y="7" width="1" height="1" fill="rgb(255,253,254)" fill-opacity="1.000" /><rect x="12" y="7" width="1" height="1" fill="rgb(255,248,226)" fill-opacity="1.000" /><rect x="13" y="7" width="2" height="1" fill="rgb(245,230,198)" fill-opacity="1.000" /><rect x="0" y="8" width="1" height="4" fill="rgb(111,50,24)" fill-opacity="1.000" /><rect x="2" y="8" width="6" height="1" fill="rgb(255,248,226)" fill-opacity="1.000" /><rect x="8" y="8" width="1" height="1" fill="rgb(245,230,198)" fill-opacity="1.000" /><rect x="9" y="8" width="1" height="1" fill="rgb(255,248,226)" fill-opacity="1.000" /><rect x="10" y="8" width="4" height="1" fill="rgb(245,230,198)" fill-opacity="1.000" /><rect x="15" y="8" width="1" height="1" fill="rgb(111,50,24)" fill-opacity="1.000" /><rect x="1" y="9" width="1" height="1" fill="rgb(151,73,26)" fill-opacity="1.000" /><rect x="1" y="11" width="1" height="1" fill="rgb(151,73,26)" fill-opacity="1.000" /><rect x="3" y="9" width="5" height="1" fill="rgb(255,248,226)" fill-opacity="1.000" /><rect x="8" y="9" width="5" height="1" fill="rgb(245,230,198)" fill-opacity="1.000" /><rect x="13" y="9" width="1" height="1" fill="rgb(213,200,172)" fill-opacity="1.000" /><rect x="14" y="9" width="1" height="3" fill="rgb(111,50,24)" fill-opacity="1.000" /><rect x="15" y="9" width="1" height="3" fill="rgb(61,29,11)" fill-opacity="1.000" /><rect x="1" y="10" width="1" height="1" fill="rgb(141,67,36)" fill-opacity="1.000" /><rect x="2" y="10" width="1" height="1" fill="rgb(167,83,32)" fill-opacity="1.000" /><rect x="3" y="10" width="1" height="1" fill="rgb(245,230,198)" fill-opacity="1.000" /><rect x="4" y="10" width="3" height="1" fill="rgb(255,248,226)" fill-opacity="1.000" /><rect x="7" y="10" width="3" height="1" fill="rgb(245,230,198)" fill-opacity="1.000" /><rect x="10" y="10" width="1" height="1" fill="rgb(255,248,226)" fill-opacity="1.000" /><rect x="12" y="10" width="1" height="1" fill="rgb(167,83,32)" fill-opacity="1.000" /><rect x="13" y="10" width="1" height="1" fill="rgb(141,67,36)" fill-opacity="1.000" /><rect x="13" y="12" width="1" height="1" fill="rgb(141,67,36)" fill-opacity="1.000" /><rect x="2" y="11" width="2" height="1" fill="rgb(184,93,39)" fill-opacity="1.000" /><rect x="4" y="11" width="1" height="1" fill="rgb(167,83,32)" fill-opacity="1.000" /><rect x="5" y="11" width="1" height="1" fill="rgb(245,230,198)" fill-opacity="1.000" /><rect x="6" y="11" width="1" height="1" fill="rgb(167,83,32)" fill-opacity="1.000" /><rect x="7" y="11" width="1" height="1" fill="rgb(184,93,39)" fill-opacity="1.000" /><rect x="8" y="11" width="1" height="1" fill="rgb(167,83,32)" fill-opacity="1.000" /><rect x="9" y="11" width="1" height="1" fill="rgb(141,67,36)" fill-opacity="1.000" /><rect x="10" y="11" width="1" height="1" fill="rgb(245,230,198)" fill-opacity="1.000" /><rect x="11" y="11" width="1" height="1" fill="rgb(141,67,36)" fill-opacity="1.000" /><rect x="11" y="13" width="1" height="1" fill="rgb(141,67,36)" fill-opacity="1.000" /><rect x="12" y="11" width="2" height="1" fill="rgb(167,83,32)" fill-opacity="1.000" /><rect x="1" y="12" width="1" height="1" fill="rgb(111,50,24)" fill-opacity="1.000" /><rect x="2" y="12" width="1" height="1" fill="rgb(151,73,26)" fill-opacity="1.000" /><rect x="3" y="12" width="1" height="1" fill="rgb(199,97,36)" fill-opacity="1.000" /><rect x="4" y="12" width="1" height="2" fill="rgb(184,93,39)" fill-opacity="1.000" /><rect x="5" y="12" width="1" height="1" fill="rgb(199,97,36)" fill-opacity="1.000" /><rect x="6" y="12" width="1" height="1" fill="rgb(184,93,39)" fill-opacity="1.000" /><rect x="7" y="12" width="1" height="1" fill="rgb(199,97,36)" fill-opacity="1.000" /><rect x="8" y="12" width="1" height="2" fill="rgb(184,93,39)" fill-opacity="1.000" /><rect x="9" y="12" width="2" height="1" fill="rgb(175,88,35)" fill-opacity="1.000" /><rect x="11" y="12" width="2" height="1" fill="rgb(167,83,32)" fill-opacity="1.000" /><rect x="14" y="12" width="1" height="1" fill="rgb(61,29,11)" fill-opacity="1.000" /><rect x="2" y="13" width="2" height="1" fill="rgb(111,50,24)" fill-opacity="1.000" /><rect x="5" y="13" width="3" height="1" fill="rgb(199,97,36)" fill-opacity="1.000" /><rect x="9" y="13" width="1" height="1" fill="rgb(199,97,36)" fill-opacity="1.000" /><rect x="10" y="13" width="1" height="1" fill="rgb(167,83,32)" fill-opacity="1.000" /><rect x="12" y="13" width="2" height="1" fill="rgb(61,29,11)" fill-opacity="1.000" /><rect x="4" y="14" width="8" height="1" fill="rgb(61,29,11)" fill-opacity="1.000" /></svg>