<?xml version='1.0' encoding='utf-8'?>
<svg width="16" height="16" viewBox="0 0 16 16" xmlns="http://www.w3.org/2000/svg"> <rect x="5" y="3" width="5" height="1" fill="rgb(73,72,72)" fill-opacity="1.000" /><rect x="3" y="4" width="2" height="1" fill="rgb(73,72,72)" fill-opacity="1.000" /><rect x="5" y="4" width="1" height="1" fill="rgb(45,45,50)" fill-opacity="1.000" /><rect x="5" y="6" width="1" height="1" fill="rgb(45,45,50)" fill-opacity="1.000" /><rect x="6" y="4" width="3" height="1" fill="rgb(27,27,33)" fill-opacity="1.000" /><rect x="6" y="6" width="3" height="1" fill="rgb(27,27,33)" fill-opacity="1.000" /><rect x="9" y="4" width="1" height="1" fill="rgb(45,45,50)" fill-opacity="1.000" /><rect x="9" y="6" width="1" height="1" fill="rgb(45,45,50)" fill-opacity="1.000" /><rect x="10" y="4" width="2" height="1" fill="rgb(73,72,72)" fill-opacity="1.000" /><rect x="2" y="5" width="1" height="1" fill="rgb(89,88,88)" fill-opacity="1.000" /><rect x="3" y="5" width="1" height="1" fill="rgb(73,72,72)" fill-opacity="1.000" /><rect x="4" y="5" width="7" height="1" fill="rgb(27,27,33)" fill-opacity="1.000" /><rect x="11" y="5" width="1" height="1" fill="rgb(45,45,50)" fill-opacity="1.000" /><rect x="11" y="11" width="1" height="1" fill="rgb(45,45,50)" fill-opacity="1.000" /><rect x="12" y="5" width="1" height="1" fill="rgb(52,52,56)" fill-opacity="1.000" /><rect x="2" y="6" width="1" height="1" fill="rgb(52,52,56)" fill-opacity="1.000" /><rect x="2" y="10" width="1" height="1" fill="rgb(52,52,56)" fill-opacity="1.000" /><rect x="3" y="6" width="2" height="1" fill="rgb(89,88,88)" fill-opacity="1.000" /><rect x="10" y="6" width="1" height="1" fill="rgb(73,72,72)" fill-opacity="1.000" /><rect x="11" y="6" width="1" height="1" fill="rgb(63,62,66)" fill-opacity="1.000" /><rect x="12" y="6" width="1" height="1" fill="rgb(45,45,50)" fill-opacity="1.000" /><rect x="12" y="8" width="1" height="2" fill="rgb(45,45,50)" fill-opacity="1.000" /><rect x="12" y="12" width="1" height="1" fill="rgb(45,45,50)" fill-opacity="1.000" /><rect x="2" y="7" width="1" height="3" fill="rgb(73,72,72)" fill-opacity="1.000" /><rect x="2" y="11" width="1" height="1" fill="rgb(73,72,72)" fill-opacity="1.000" /><rect x="3" y="7" width="1" height="1" fill="rgb(52,52,56)" fill-opacity="1.000" /><rect x="4" y="7" width="2" height="1" fill="rgb(103,97,97)" fill-opacity="1.000" /><rect x="4" y="9" width="2" height="2" fill="rgb(103,97,97)" fill-opacity="1.000" /><rect x="6" y="7" width="1" height="1" fill="rgb(79,79,79)" fill-opacity="1.000" /><rect x="6" y="9" width="1" height="1" fill="rgb(79,79,79)" fill-opacity="1.000" /><rect x="7" y="7" width="3" height="1" fill="rgb(73,72,72)" fill-opacity="1.000" /><rect x="10" y="7" width="1" height="1" fill="rgb(52,52,56)" fill-opacity="1.000" /><rect x="10" y="11" width="1" height="1" fill="rgb(52,52,56)" fill-opacity="1.000" /><rect x="11" y="7" width="2" height="1" fill="rgb(45,45,50)" fill-opacity="1.000" /><rect x="11" y="10" width="2" height="1" fill="rgb(45,45,50)" fill-opacity="1.000" /><rect x="3" y="8" width="1" height="2" fill="rgb(89,88,88)" fill-opacity="1.000" /><rect x="4" y="8" width="1" height="1" fill="rgb(79,79,79)" fill-opacity="1.000" /><rect x="5" y="8" width="2" height="1" fill="rgb(52,52,56)" fill-opacity="1.000" /><rect x="7" y="8" width="1" height="1" fill="rgb(63,62,66)" fill-opacity="1.000" /><rect x="8" y="8" width="2" height="1" fill="rgb(52,52,56)" fill-opacity="1.000" /><rect x="10" y="8" width="2" height="1" fill="rgb(63,62,66)" fill-opacity="1.000" /><rect x="7" y="9" width="1" height="1" fill="rgb(45,45,50)" fill-opacity="1.000" /><rect x="8" y="9" width="4" height="1" fill="rgb(63,62,66)" fill-opacity="1.000" /><rect x="3" y="10" width="1" height="1" fill="rgb(79,79,79)" fill-opacity="1.000" /><rect x="6" y="10" width="1" height="1" fill="rgb(89,88,88)" fill-opacity="1.000" /><rect x="7" y="10" width="1" height="1" fill="rgb(79,79,79)" fill-opacity="1.000" /><rect x="8" y="10" width="1" height="1" fill="rgb(73,72,72)" fill-opacity="1.000" /><rect x="9" y="10" width="2" height="1" fill="rgb(63,62,66)" fill-opacity="1.000" /><rect x="3" y="11" width="1" height="1" fill="rgb(45,45,50)" fill-opacity="1.000" /><rect x="4" y="11" width="1" height="1" fill="rgb(63,62,66)" fill-opacity="1.000" /><rect x="5" y="11" width="2" height="1" fill="rgb(79,79,79)" fill-opacity="1.000" /><rect x="7" y="11" width="1" height="1" fill="rgb(73,72,72)" fill-opacity="1.000" /><rect x="7" y="13" width="1" height="1" fill="rgb(73,72,72)" fill-opacity="1.000" /><rect x="8" y="11" width="2" height="1" fill="rgb(63,62,66)" fill-opacity="1.000" /><rect x="12" y="11" width="1" height="1" fill="rgb(73,72,72)" fill-opacity="1.000" /><rect x="2" y="12" width="1" height="1" fill="rgb(45,45,50)" fill-opacity="1.000" /><rect x="4" y="12" width="2" height="1" fill="rgb(45,45,50)" fill-opacity="1.000" /><rect x="6" y="12" width="1" height="1" fill="rgb(63,62,66)" fill-opacity="1.000" /><rect x="7" y="12" width="1" height="1" fill="rgb(89,88,88)" fill-opacity="1.000" /><rect x="8" y="12" width="3" height="1" fill="rgb(45,45,50)" fill-opacity="1.000" /><rect x="6" y="13" width="1" height="1" fill="rgb(45,45,50)" fill-opacity="1.000" /><rect x="8" y="13" width="1" height="1" fill="rgb(45,45,50)" fill-opacity="1.000" /><rect x="7" y="14" width="1" height="1" fill="rgb(52,52,56)" fill-opacity="1.000" /></svg>