<?xml version='1.0' encoding='utf-8'?>
<svg width="16" height="16" viewBox="0 0 16 16" xmlns="http://www.w3.org/2000/svg"> <rect x="3" y="2" width="1" height="2" fill="rgb(203,129,124)" fill-opacity="1.000" /><rect x="3" y="5" width="1" height="3" fill="rgb(203,129,124)" fill-opacity="1.000" /><rect x="3" y="9" width="1" height="3" fill="rgb(203,129,124)" fill-opacity="1.000" /><rect x="3" y="13" width="1" height="2" fill="rgb(203,129,124)" fill-opacity="1.000" /><rect x="4" y="2" width="2" height="1" fill="rgb(231,186,180)" fill-opacity="1.000" /><rect x="6" y="2" width="3" height="1" fill="rgb(230,179,173)" fill-opacity="1.000" /><rect x="9" y="2" width="2" height="1" fill="rgb(231,186,180)" fill-opacity="1.000" /><rect x="11" y="2" width="2" height="1" fill="rgb(230,179,173)" fill-opacity="1.000" /><rect x="11" y="10" width="2" height="1" fill="rgb(230,179,173)" fill-opacity="1.000" /><rect x="4" y="3" width="9" height="1" fill="rgb(216,151,145)" fill-opacity="1.000" /><rect x="3" y="4" width="1" height="1" fill="rgb(238,230,222)" fill-opacity="1.000" /><rect x="4" y="4" width="1" height="1" fill="rgb(229,174,168)" fill-opacity="1.000" /><rect x="5" y="4" width="1" height="5" fill="rgb(216,151,145)" fill-opacity="1.000" /><rect x="5" y="12" width="1" height="3" fill="rgb(216,151,145)" fill-opacity="1.000" /><rect x="6" y="4" width="1" height="1" fill="rgb(230,179,173)" fill-opacity="1.000" /><rect x="6" y="7" width="1" height="1" fill="rgb(230,179,173)" fill-opacity="1.000" /><rect x="6" y="10" width="1" height="1" fill="rgb(230,179,173)" fill-opacity="1.000" /><rect x="6" y="12" width="1" height="1" fill="rgb(230,179,173)" fill-opacity="1.000" /><rect x="8" y="4" width="1" height="1" fill="rgb(205,133,128)" fill-opacity="1.000" /><rect x="8" y="8" width="1" height="1" fill="rgb(205,133,128)" fill-opacity="1.000" /><rect x="9" y="4" width="1" height="1" fill="rgb(230,179,173)" fill-opacity="1.000" /><rect x="9" y="7" width="1" height="1" fill="rgb(230,179,173)" fill-opacity="1.000" /><rect x="11" y="4" width="1" height="5" fill="rgb(216,151,145)" fill-opacity="1.000" /><rect x="11" y="12" width="1" height="3" fill="rgb(216,151,145)" fill-opacity="1.000" /><rect x="12" y="4" width="1" height="1" fill="rgb(229,174,168)" fill-opacity="1.000" /><rect x="4" y="5" width="1" height="6" fill="rgb(231,186,180)" fill-opacity="1.000" /><rect x="4" y="13" width="1" height="1" fill="rgb(231,186,180)" fill-opacity="1.000" /><rect x="7" y="5" width="1" height="1" fill="rgb(230,179,173)" fill-opacity="1.000" /><rect x="7" y="8" width="1" height="1" fill="rgb(230,179,173)" fill-opacity="1.000" /><rect x="10" y="5" width="1" height="1" fill="rgb(230,179,173)" fill-opacity="1.000" /><rect x="10" y="8" width="1" height="1" fill="rgb(230,179,173)" fill-opacity="1.000" /><rect x="10" y="12" width="1" height="1" fill="rgb(230,179,173)" fill-opacity="1.000" /><rect x="12" y="5" width="1" height="1" fill="rgb(230,179,173)" fill-opacity="1.000" /><rect x="12" y="11" width="1" height="1" fill="rgb(230,179,173)" fill-opacity="1.000" /><rect x="12" y="14" width="1" height="1" fill="rgb(230,179,173)" fill-opacity="1.000" /><rect x="6" y="6" width="1" height="1" fill="rgb(205,133,128)" fill-opacity="1.000" /><rect x="8" y="6" width="1" height="1" fill="rgb(230,179,173)" fill-opacity="1.000" /><rect x="8" y="12" width="1" height="1" fill="rgb(230,179,173)" fill-opacity="1.000" /><rect x="8" y="14" width="1" height="1" fill="rgb(230,179,173)" fill-opacity="1.000" /><rect x="10" y="6" width="1" height="1" fill="rgb(205,133,128)" fill-opacity="1.000" /><rect x="12" y="6" width="1" height="4" fill="rgb(231,186,180)" fill-opacity="1.000" /><rect x="12" y="12" width="1" height="2" fill="rgb(231,186,180)" fill-opacity="1.000" /><rect x="3" y="8" width="1" height="1" fill="rgb(221,217,203)" fill-opacity="1.000" /><rect x="3" y="12" width="1" height="1" fill="rgb(221,217,203)" fill-opacity="1.000" /><rect x="5" y="9" width="1" height="1" fill="rgb(231,202,197)" fill-opacity="1.000" /><rect x="6" y="9" width="5" height="1" fill="rgb(231,194,187)" fill-opacity="1.000" /><rect x="11" y="9" width="1" height="1" fill="rgb(230,179,173)" fill-opacity="1.000" /><rect x="5" y="10" width="1" height="1" fill="rgb(231,194,187)" fill-opacity="1.000" /><rect x="7" y="10" width="1" height="1" fill="rgb(221,217,203)" fill-opacity="1.000" /><rect x="8" y="10" width="1" height="1" fill="rgb(231,186,180)" fill-opacity="1.000" /><rect x="8" y="13" width="1" height="1" fill="rgb(231,186,180)" fill-opacity="1.000" /><rect x="9" y="10" width="1" height="2" fill="rgb(238,230,222)" fill-opacity="1.000" /><rect x="10" y="10" width="1" height="1" fill="rgb(231,186,180)" fill-opacity="1.000" /><rect x="10" y="13" width="1" height="2" fill="rgb(231,186,180)" fill-opacity="1.000" /><rect x="4" y="11" width="1" height="2" fill="rgb(230,179,173)" fill-opacity="1.000" /><rect x="4" y="14" width="1" height="1" fill="rgb(230,179,173)" fill-opacity="1.000" /><rect x="5" y="11" width="1" height="1" fill="rgb(221,157,151)" fill-opacity="1.000" /><rect x="6" y="11" width="1" height="1" fill="rgb(216,151,145)" fill-opacity="1.000" /><rect x="7" y="11" width="2" height="1" fill="rgb(221,217,203)" fill-opacity="1.000" /><rect x="10" y="11" width="1" height="1" fill="rgb(216,151,145)" fill-opacity="1.000" /><rect x="11" y="11" width="1" height="1" fill="rgb(221,157,151)" fill-opacity="1.000" /><rect x="7" y="12" width="1" height="1" fill="rgb(216,151,145)" fill-opacity="1.000" /><rect x="9" y="12" width="1" height="1" fill="rgb(216,151,145)" fill-opacity="1.000" /><rect x="6" y="13" width="1" height="2" fill="rgb(231,186,180)" fill-opacity="1.000" /><rect x="7" y="13" width="1" height="2" fill="rgb(223,163,155)" fill-opacity="1.000" /><rect x="9" y="13" width="1" height="2" fill="rgb(223,163,155)" fill-opacity="1.000" /><rect x="3" y="15" width="10" height="1" fill="rgb(203,129,124)" fill-opacity="1.000" /></svg>