<?xml version='1.0' encoding='utf-8'?>
<svg width="16" height="16" viewBox="0 0 16 16" xmlns="http://www.w3.org/2000/svg"> <rect x="6" y="0" width="4" height="1" fill="rgb(178,100,17)" fill-opacity="1.000" /><rect x="4" y="1" width="2" height="1" fill="rgb(178,100,17)" fill-opacity="1.000" /><rect x="6" y="1" width="2" height="1" fill="rgb(253,245,95)" fill-opacity="1.000" /><rect x="8" y="1" width="2" height="1" fill="rgb(250,214,74)" fill-opacity="1.000" /><rect x="10" y="1" width="2" height="1" fill="rgb(178,100,17)" fill-opacity="1.000" /><rect x="3" y="2" width="1" height="1" fill="rgb(178,100,17)" fill-opacity="1.000" /><rect x="3" y="5" width="1" height="1" fill="rgb(178,100,17)" fill-opacity="1.000" /><rect x="3" y="8" width="1" height="1" fill="rgb(178,100,17)" fill-opacity="1.000" /><rect x="3" y="12" width="1" height="1" fill="rgb(178,100,17)" fill-opacity="1.000" /><rect x="4" y="2" width="1" height="1" fill="rgb(233,177,21)" fill-opacity="1.000" /><rect x="5" y="2" width="1" height="1" fill="rgb(253,245,95)" fill-opacity="1.000" /><rect x="6" y="2" width="1" height="1" fill="rgb(178,100,17)" fill-opacity="1.000" /><rect x="6" y="14" width="1" height="1" fill="rgb(178,100,17)" fill-opacity="1.000" /><rect x="7" y="2" width="2" height="1" fill="rgb(24,22,22)" fill-opacity="1.000" /><rect x="9" y="2" width="1" height="1" fill="rgb(178,100,17)" fill-opacity="1.000" /><rect x="10" y="2" width="1" height="1" fill="rgb(250,214,74)" fill-opacity="1.000" /><rect x="11" y="2" width="1" height="1" fill="rgb(233,177,21)" fill-opacity="1.000" /><rect x="12" y="2" width="1" height="1" fill="rgb(178,100,17)" fill-opacity="1.000" /><rect x="2" y="3" width="1" height="2" fill="rgb(178,100,17)" fill-opacity="1.000" /><rect x="3" y="3" width="1" height="1" fill="rgb(233,177,21)" fill-opacity="1.000" /><rect x="4" y="3" width="1" height="1" fill="rgb(253,245,95)" fill-opacity="1.000" /><rect x="5" y="3" width="6" height="1" fill="rgb(24,22,22)" fill-opacity="1.000" /><rect x="11" y="3" width="1" height="1" fill="rgb(250,214,74)" fill-opacity="1.000" /><rect x="11" y="9" width="1" height="1" fill="rgb(250,214,74)" fill-opacity="1.000" /><rect x="12" y="3" width="1" height="1" fill="rgb(233,177,21)" fill-opacity="1.000" /><rect x="12" y="5" width="1" height="1" fill="rgb(233,177,21)" fill-opacity="1.000" /><rect x="12" y="9" width="1" height="1" fill="rgb(233,177,21)" fill-opacity="1.000" /><rect x="13" y="3" width="1" height="1" fill="rgb(178,100,17)" fill-opacity="1.000" /><rect x="3" y="4" width="1" height="1" fill="rgb(253,245,95)" fill-opacity="1.000" /><rect x="3" y="10" width="1" height="1" fill="rgb(253,245,95)" fill-opacity="1.000" /><rect x="4" y="4" width="2" height="1" fill="rgb(24,22,22)" fill-opacity="1.000" /><rect x="6" y="4" width="4" height="1" fill="rgb(30,28,28)" fill-opacity="1.000" /><rect x="10" y="4" width="1" height="1" fill="rgb(73,104,216)" fill-opacity="1.000" /><rect x="11" y="4" width="1" height="1" fill="rgb(58,83,172)" fill-opacity="1.000" /><rect x="12" y="4" width="1" height="1" fill="rgb(250,214,74)" fill-opacity="1.000" /><rect x="12" y="10" width="1" height="1" fill="rgb(250,214,74)" fill-opacity="1.000" /><rect x="13" y="4" width="1" height="1" fill="rgb(117,40,2)" fill-opacity="1.000" /><rect x="13" y="11" width="1" height="2" fill="rgb(117,40,2)" fill-opacity="1.000" /><rect x="1" y="5" width="1" height="4" fill="rgb(178,100,17)" fill-opacity="1.000" /><rect x="2" y="5" width="1" height="2" fill="rgb(253,245,95)" fill-opacity="1.000" /><rect x="2" y="9" width="1" height="1" fill="rgb(253,245,95)" fill-opacity="1.000" /><rect x="4" y="5" width="1" height="1" fill="rgb(86,86,109)" fill-opacity="1.000" /><rect x="5" y="5" width="2" height="1" fill="rgb(108,108,137)" fill-opacity="1.000" /><rect x="7" y="5" width="3" height="1" fill="rgb(30,28,28)" fill-opacity="1.000" /><rect x="10" y="5" width="2" height="1" fill="rgb(73,104,216)" fill-opacity="1.000" /><rect x="10" y="7" width="2" height="1" fill="rgb(73,104,216)" fill-opacity="1.000" /><rect x="13" y="5" width="1" height="5" fill="rgb(250,214,74)" fill-opacity="1.000" /><rect x="14" y="5" width="1" height="6" fill="rgb(117,40,2)" fill-opacity="1.000" /><rect x="3" y="6" width="2" height="2" fill="rgb(24,22,22)" fill-opacity="1.000" /><rect x="5" y="6" width="1" height="2" fill="rgb(30,28,28)" fill-opacity="1.000" /><rect x="6" y="6" width="1" height="2" fill="rgb(108,108,137)" fill-opacity="1.000" /><rect x="7" y="6" width="2" height="1" fill="rgb(30,28,28)" fill-opacity="1.000" /><rect x="9" y="6" width="3" height="1" fill="rgb(73,104,216)" fill-opacity="1.000" /><rect x="12" y="6" width="1" height="2" fill="rgb(58,83,172)" fill-opacity="1.000" /><rect x="2" y="7" width="1" height="2" fill="rgb(250,214,74)" fill-opacity="1.000" /><rect x="7" y="7" width="1" height="1" fill="rgb(251,247,183)" fill-opacity="1.000" /><rect x="8" y="7" width="1" height="1" fill="rgb(253,245,95)" fill-opacity="1.000" /><rect x="9" y="7" width="1" height="1" fill="rgb(58,83,172)" fill-opacity="1.000" /><rect x="4" y="8" width="3" height="1" fill="rgb(24,22,22)" fill-opacity="1.000" /><rect x="7" y="8" width="1" height="1" fill="rgb(253,245,95)" fill-opacity="1.000" /><rect x="8" y="8" width="1" height="1" fill="rgb(250,214,74)" fill-opacity="1.000" /><rect x="9" y="8" width="3" height="1" fill="rgb(204,204,0)" fill-opacity="1.000" /><rect x="12" y="8" width="1" height="1" fill="rgb(217,148,19)" fill-opacity="1.000" /><rect x="1" y="9" width="1" height="2" fill="rgb(117,40,2)" fill-opacity="1.000" /><rect x="3" y="9" width="1" height="1" fill="rgb(250,214,74)" fill-opacity="1.000" /><rect x="4" y="9" width="2" height="1" fill="rgb(251,247,183)" fill-opacity="1.000" /><rect x="6" y="9" width="1" height="1" fill="rgb(253,245,95)" fill-opacity="1.000" /><rect x="7" y="9" width="1" height="1" fill="rgb(250,214,74)" fill-opacity="1.000" /><rect x="8" y="9" width="1" height="1" fill="rgb(233,177,21)" fill-opacity="1.000" /><rect x="9" y="9" width="2" height="1" fill="rgb(253,245,95)" fill-opacity="1.000" /><rect x="2" y="10" width="1" height="1" fill="rgb(220,150,19)" fill-opacity="1.000" /><rect x="4" y="10" width="4" height="1" fill="rgb(250,214,74)" fill-opacity="1.000" /><rect x="8" y="10" width="4" height="1" fill="rgb(233,177,21)" fill-opacity="1.000" /><rect x="13" y="10" width="1" height="1" fill="rgb(220,150,19)" fill-opacity="1.000" /><rect x="2" y="11" width="1" height="2" fill="rgb(117,40,2)" fill-opacity="1.000" /><rect x="3" y="11" width="1" height="1" fill="rgb(220,150,19)" fill-opacity="1.000" /><rect x="4" y="11" width="2" height="1" fill="rgb(253,245,95)" fill-opacity="1.000" /><rect x="6" y="11" width="2" height="1" fill="rgb(250,214,74)" fill-opacity="1.000" /><rect x="8" y="11" width="2" height="1" fill="rgb(233,177,21)" fill-opacity="1.000" /><rect x="10" y="11" width="2" height="1" fill="rgb(250,214,74)" fill-opacity="1.000" /><rect x="12" y="11" width="1" height="1" fill="rgb(220,150,19)" fill-opacity="1.000" /><rect x="4" y="12" width="2" height="1" fill="rgb(220,150,19)" fill-opacity="1.000" /><rect x="6" y="12" width="3" height="1" fill="rgb(253,245,95)" fill-opacity="1.000" /><rect x="9" y="12" width="1" height="1" fill="rgb(250,214,74)" fill-opacity="1.000" /><rect x="10" y="12" width="1" height="1" fill="rgb(220,150,19)" fill-opacity="1.000" /><rect x="11" y="12" width="2" height="1" fill="rgb(178,100,17)" fill-opacity="1.000" /><rect x="3" y="13" width="1" height="1" fill="rgb(117,40,2)" fill-opacity="1.000" /><rect x="4" y="13" width="1" height="1" fill="rgb(178,100,17)" fill-opacity="1.000" /><rect x="5" y="13" width="3" height="1" fill="rgb(220,150,19)" fill-opacity="1.000" /><rect x="8" y="13" width="4" height="1" fill="rgb(178,100,17)" fill-opacity="1.000" /><rect x="12" y="13" width="1" height="1" fill="rgb(117,40,2)" fill-opacity="1.000" /><rect x="4" y="14" width="2" height="1" fill="rgb(117,40,2)" fill-opacity="1.000" /><rect x="7" y="14" width="1" height="1" fill="rgb(220,150,19)" fill-opacity="1.000" /><rect x="8" y="14" width="2" height="1" fill="rgb(178,100,17)" fill-opacity="1.000" /><rect x="10" y="14" width="2" height="1" fill="rgb(117,40,2)" fill-opacity="1.000" /><rect x="6" y="15" width="4" height="1" fill="rgb(117,40,2)" fill-opacity="1.000" /></svg>