<?xml version='1.0' encoding='utf-8'?>
<svg width="16" height="16" viewBox="0 0 16 16" xmlns="http://www.w3.org/2000/svg"> <rect x="11" y="1" width="1" height="1" fill="rgb(198,162,113)" fill-opacity="1.000" /><rect x="12" y="1" width="1" height="1" fill="rgb(177,137,83)" fill-opacity="1.000" /><rect x="11" y="2" width="2" height="1" fill="rgb(214,197,173)" fill-opacity="1.000" /><rect x="13" y="2" width="1" height="1" fill="rgb(152,109,78)" fill-opacity="1.000" /><rect x="10" y="3" width="2" height="1" fill="rgb(214,197,173)" fill-opacity="1.000" /><rect x="12" y="3" width="1" height="1" fill="rgb(198,162,113)" fill-opacity="1.000" /><rect x="13" y="3" width="1" height="1" fill="rgb(177,137,83)" fill-opacity="1.000" /><rect x="14" y="3" width="1" height="1" fill="rgb(152,109,78)" fill-opacity="1.000" /><rect x="5" y="4" width="2" height="1" fill="rgb(177,137,83)" fill-opacity="1.000" /><rect x="8" y="4" width="2" height="1" fill="rgb(152,109,78)" fill-opacity="1.000" /><rect x="8" y="10" width="2" height="1" fill="rgb(152,109,78)" fill-opacity="1.000" /><rect x="10" y="4" width="1" height="2" fill="rgb(198,162,113)" fill-opacity="1.000" /><rect x="11" y="4" width="2" height="1" fill="rgb(177,137,83)" fill-opacity="1.000" /><rect x="13" y="4" width="2" height="1" fill="rgb(152,109,78)" fill-opacity="1.000" /><rect x="4" y="5" width="1" height="2" fill="rgb(177,137,83)" fill-opacity="1.000" /><rect x="5" y="5" width="2" height="1" fill="rgb(214,197,173)" fill-opacity="1.000" /><rect x="7" y="5" width="1" height="1" fill="rgb(152,109,78)" fill-opacity="1.000" /><rect x="8" y="5" width="1" height="1" fill="rgb(198,162,113)" fill-opacity="1.000" /><rect x="8" y="7" width="1" height="1" fill="rgb(198,162,113)" fill-opacity="1.000" /><rect x="8" y="9" width="1" height="1" fill="rgb(198,162,113)" fill-opacity="1.000" /><rect x="9" y="5" width="1" height="1" fill="rgb(177,137,83)" fill-opacity="1.000" /><rect x="9" y="7" width="1" height="1" fill="rgb(177,137,83)" fill-opacity="1.000" /><rect x="11" y="5" width="2" height="1" fill="rgb(152,109,78)" fill-opacity="1.000" /><rect x="13" y="5" width="2" height="1" fill="rgb(107,68,43)" fill-opacity="1.000" /><rect x="5" y="6" width="1" height="1" fill="rgb(214,197,173)" fill-opacity="1.000" /><rect x="6" y="6" width="2" height="1" fill="rgb(198,162,113)" fill-opacity="1.000" /><rect x="8" y="6" width="1" height="1" fill="rgb(177,137,83)" fill-opacity="1.000" /><rect x="9" y="6" width="1" height="1" fill="rgb(198,162,113)" fill-opacity="1.000" /><rect x="9" y="8" width="1" height="1" fill="rgb(198,162,113)" fill-opacity="1.000" /><rect x="10" y="6" width="1" height="1" fill="rgb(177,137,83)" fill-opacity="1.000" /><rect x="11" y="6" width="1" height="3" fill="rgb(107,68,43)" fill-opacity="1.000" /><rect x="4" y="7" width="1" height="1" fill="rgb(152,109,78)" fill-opacity="1.000" /><rect x="5" y="7" width="1" height="1" fill="rgb(177,137,83)" fill-opacity="1.000" /><rect x="5" y="11" width="1" height="1" fill="rgb(177,137,83)" fill-opacity="1.000" /><rect x="6" y="7" width="1" height="1" fill="rgb(198,162,113)" fill-opacity="1.000" /><rect x="6" y="10" width="1" height="2" fill="rgb(198,162,113)" fill-opacity="1.000" /><rect x="7" y="7" width="1" height="1" fill="rgb(177,137,83)" fill-opacity="1.000" /><rect x="7" y="10" width="1" height="1" fill="rgb(177,137,83)" fill-opacity="1.000" /><rect x="10" y="7" width="1" height="2" fill="rgb(152,109,78)" fill-opacity="1.000" /><rect x="3" y="8" width="1" height="1" fill="rgb(152,109,78)" fill-opacity="1.000" /><rect x="4" y="8" width="2" height="1" fill="rgb(198,162,113)" fill-opacity="1.000" /><rect x="6" y="8" width="1" height="1" fill="rgb(177,137,83)" fill-opacity="1.000" /><rect x="7" y="8" width="2" height="1" fill="rgb(214,197,173)" fill-opacity="1.000" /><rect x="3" y="9" width="2" height="1" fill="rgb(152,109,78)" fill-opacity="1.000" /><rect x="5" y="9" width="1" height="1" fill="rgb(198,162,113)" fill-opacity="1.000" /><rect x="6" y="9" width="2" height="1" fill="rgb(214,197,173)" fill-opacity="1.000" /><rect x="9" y="9" width="1" height="1" fill="rgb(152,109,78)" fill-opacity="1.000" /><rect x="10" y="9" width="1" height="2" fill="rgb(107,68,43)" fill-opacity="1.000" /><rect x="2" y="10" width="1" height="3" fill="rgb(152,109,78)" fill-opacity="1.000" /><rect x="3" y="10" width="2" height="1" fill="rgb(198,162,113)" fill-opacity="1.000" /><rect x="5" y="10" width="1" height="1" fill="rgb(152,109,78)" fill-opacity="1.000" /><rect x="5" y="13" width="1" height="1" fill="rgb(152,109,78)" fill-opacity="1.000" /><rect x="3" y="11" width="1" height="1" fill="rgb(0,0,0)" fill-opacity="1.000" /><rect x="4" y="11" width="1" height="1" fill="rgb(198,162,113)" fill-opacity="1.000" /><rect x="7" y="11" width="2" height="1" fill="rgb(152,109,78)" fill-opacity="1.000" /><rect x="9" y="11" width="1" height="1" fill="rgb(107,68,43)" fill-opacity="1.000" /><rect x="3" y="12" width="3" height="1" fill="rgb(198,162,113)" fill-opacity="1.000" /><rect x="6" y="12" width="2" height="1" fill="rgb(152,109,78)" fill-opacity="1.000" /><rect x="8" y="12" width="1" height="1" fill="rgb(107,68,43)" fill-opacity="1.000" /><rect x="2" y="13" width="1" height="1" fill="rgb(107,68,43)" fill-opacity="1.000" /><rect x="3" y="13" width="2" height="1" fill="rgb(177,137,83)" fill-opacity="1.000" /><rect x="6" y="13" width="2" height="1" fill="rgb(107,68,43)" fill-opacity="1.000" /><rect x="3" y="14" width="3" height="1" fill="rgb(107,68,43)" fill-opacity="1.000" /></svg>