<?xml version='1.0' encoding='utf-8'?>
<svg width="16" height="16" viewBox="0 0 16 16" xmlns="http://www.w3.org/2000/svg"> <rect x="3" y="2" width="1" height="2" fill="rgb(68,33,49)" fill-opacity="1.000" /><rect x="3" y="6" width="1" height="2" fill="rgb(68,33,49)" fill-opacity="1.000" /><rect x="3" y="10" width="1" height="2" fill="rgb(68,33,49)" fill-opacity="1.000" /><rect x="3" y="14" width="1" height="1" fill="rgb(68,33,49)" fill-opacity="1.000" /><rect x="4" y="2" width="2" height="2" fill="rgb(134,62,90)" fill-opacity="1.000" /><rect x="4" y="7" width="2" height="5" fill="rgb(134,62,90)" fill-opacity="1.000" /><rect x="6" y="2" width="1" height="2" fill="rgb(92,48,66)" fill-opacity="1.000" /><rect x="6" y="7" width="1" height="5" fill="rgb(92,48,66)" fill-opacity="1.000" /><rect x="7" y="2" width="3" height="2" fill="rgb(134,62,90)" fill-opacity="1.000" /><rect x="7" y="7" width="3" height="5" fill="rgb(134,62,90)" fill-opacity="1.000" /><rect x="10" y="2" width="1" height="2" fill="rgb(92,48,66)" fill-opacity="1.000" /><rect x="10" y="7" width="1" height="1" fill="rgb(92,48,66)" fill-opacity="1.000" /><rect x="10" y="10" width="1" height="2" fill="rgb(92,48,66)" fill-opacity="1.000" /><rect x="11" y="2" width="2" height="2" fill="rgb(134,62,90)" fill-opacity="1.000" /><rect x="11" y="7" width="2" height="1" fill="rgb(134,62,90)" fill-opacity="1.000" /><rect x="11" y="10" width="2" height="2" fill="rgb(134,62,90)" fill-opacity="1.000" /><rect x="3" y="4" width="1" height="1" fill="rgb(107,89,97)" fill-opacity="1.000" /><rect x="3" y="8" width="1" height="1" fill="rgb(107,89,97)" fill-opacity="1.000" /><rect x="3" y="12" width="1" height="1" fill="rgb(107,89,97)" fill-opacity="1.000" /><rect x="4" y="4" width="9" height="1" fill="rgb(174,75,113)" fill-opacity="1.000" /><rect x="4" y="12" width="9" height="1" fill="rgb(174,75,113)" fill-opacity="1.000" /><rect x="3" y="5" width="1" height="1" fill="rgb(81,63,71)" fill-opacity="1.000" /><rect x="3" y="9" width="1" height="1" fill="rgb(81,63,71)" fill-opacity="1.000" /><rect x="3" y="13" width="1" height="1" fill="rgb(81,63,71)" fill-opacity="1.000" /><rect x="4" y="5" width="9" height="1" fill="rgb(134,62,90)" fill-opacity="1.000" /><rect x="4" y="13" width="9" height="1" fill="rgb(134,62,90)" fill-opacity="1.000" /><rect x="4" y="6" width="9" height="1" fill="rgb(92,48,66)" fill-opacity="1.000" /><rect x="4" y="14" width="9" height="1" fill="rgb(92,48,66)" fill-opacity="1.000" /><rect x="10" y="8" width="2" height="1" fill="rgb(174,75,113)" fill-opacity="1.000" /><rect x="12" y="8" width="1" height="2" fill="rgb(134,62,90)" fill-opacity="1.000" /><rect x="10" y="9" width="2" height="1" fill="rgb(68,33,49)" fill-opacity="1.000" /><rect x="3" y="15" width="10" height="1" fill="rgb(68,33,49)" fill-opacity="1.000" /></svg>