<?xml version='1.0' encoding='utf-8'?>
<svg width="16" height="16" viewBox="0 0 16 16" xmlns="http://www.w3.org/2000/svg"> <rect x="12" y="0" width="1" height="1" fill="rgb(77,46,17)" fill-opacity="1.000" /><rect x="8" y="1" width="3" height="1" fill="rgb(77,46,17)" fill-opacity="1.000" /><rect x="11" y="1" width="1" height="1" fill="rgb(42,26,9)" fill-opacity="1.000" /><rect x="12" y="1" width="1" height="1" fill="rgb(109,66,24)" fill-opacity="1.000" /><rect x="13" y="1" width="1" height="1" fill="rgb(77,46,17)" fill-opacity="1.000" /><rect x="13" y="13" width="1" height="1" fill="rgb(77,46,17)" fill-opacity="1.000" /><rect x="3" y="2" width="1" height="1" fill="rgb(151,151,151)" fill-opacity="1.000" /><rect x="4" y="2" width="1" height="1" fill="rgb(109,109,109)" fill-opacity="1.000" /><rect x="6" y="2" width="1" height="1" fill="rgb(77,46,17)" fill-opacity="1.000" /><rect x="6" y="8" width="1" height="1" fill="rgb(77,46,17)" fill-opacity="1.000" /><rect x="7" y="2" width="2" height="1" fill="rgb(144,88,31)" fill-opacity="1.000" /><rect x="9" y="2" width="3" height="1" fill="rgb(109,66,24)" fill-opacity="1.000" /><rect x="12" y="2" width="2" height="1" fill="rgb(77,46,17)" fill-opacity="1.000" /><rect x="2" y="3" width="1" height="1" fill="rgb(151,151,151)" fill-opacity="1.000" /><rect x="5" y="3" width="1" height="1" fill="rgb(68,68,68)" fill-opacity="1.000" /><rect x="6" y="3" width="1" height="1" fill="rgb(181,115,47)" fill-opacity="1.000" /><rect x="7" y="3" width="3" height="1" fill="rgb(59,36,13)" fill-opacity="1.000" /><rect x="10" y="3" width="1" height="1" fill="rgb(42,26,9)" fill-opacity="1.000" /><rect x="12" y="3" width="1" height="2" fill="rgb(68,68,68)" fill-opacity="1.000" /><rect x="2" y="4" width="1" height="1" fill="rgb(109,109,109)" fill-opacity="1.000" /><rect x="4" y="4" width="1" height="1" fill="rgb(77,46,17)" fill-opacity="1.000" /><rect x="5" y="4" width="1" height="1" fill="rgb(181,115,47)" fill-opacity="1.000" /><rect x="6" y="4" width="1" height="1" fill="rgb(59,36,13)" fill-opacity="1.000" /><rect x="7" y="4" width="1" height="1" fill="rgb(31,18,6)" fill-opacity="1.000" /><rect x="7" y="10" width="1" height="1" fill="rgb(31,18,6)" fill-opacity="1.000" /><rect x="3" y="5" width="1" height="1" fill="rgb(68,68,68)" fill-opacity="1.000" /><rect x="4" y="5" width="1" height="1" fill="rgb(144,88,31)" fill-opacity="1.000" /><rect x="5" y="5" width="1" height="1" fill="rgb(59,36,13)" fill-opacity="1.000" /><rect x="6" y="5" width="2" height="1" fill="rgb(77,46,17)" fill-opacity="1.000" /><rect x="8" y="5" width="1" height="1" fill="rgb(31,18,6)" fill-opacity="1.000" /><rect x="8" y="11" width="1" height="1" fill="rgb(31,18,6)" fill-opacity="1.000" /><rect x="12" y="5" width="1" height="4" fill="rgb(109,109,109)" fill-opacity="1.000" /><rect x="12" y="10" width="1" height="1" fill="rgb(109,109,109)" fill-opacity="1.000" /><rect x="12" y="12" width="1" height="1" fill="rgb(109,109,109)" fill-opacity="1.000" /><rect x="2" y="6" width="1" height="1" fill="rgb(77,46,17)" fill-opacity="1.000" /><rect x="2" y="12" width="1" height="1" fill="rgb(77,46,17)" fill-opacity="1.000" /><rect x="3" y="6" width="1" height="1" fill="rgb(144,88,31)" fill-opacity="1.000" /><rect x="4" y="6" width="1" height="1" fill="rgb(59,36,13)" fill-opacity="1.000" /><rect x="5" y="6" width="2" height="1" fill="rgb(77,46,17)" fill-opacity="1.000" /><rect x="7" y="6" width="1" height="1" fill="rgb(109,66,24)" fill-opacity="1.000" /><rect x="7" y="8" width="1" height="1" fill="rgb(109,66,24)" fill-opacity="1.000" /><rect x="8" y="6" width="1" height="1" fill="rgb(77,46,17)" fill-opacity="1.000" /><rect x="8" y="8" width="1" height="1" fill="rgb(77,46,17)" fill-opacity="1.000" /><rect x="8" y="10" width="1" height="1" fill="rgb(77,46,17)" fill-opacity="1.000" /><rect x="9" y="6" width="1" height="1" fill="rgb(31,18,6)" fill-opacity="1.000" /><rect x="2" y="7" width="1" height="1" fill="rgb(109,66,24)" fill-opacity="1.000" /><rect x="2" y="10" width="1" height="1" fill="rgb(109,66,24)" fill-opacity="1.000" /><rect x="3" y="7" width="1" height="1" fill="rgb(72,43,16)" fill-opacity="1.000" /><rect x="4" y="7" width="1" height="1" fill="rgb(31,18,6)" fill-opacity="1.000" /><rect x="5" y="7" width="1" height="1" fill="rgb(77,46,17)" fill-opacity="1.000" /><rect x="6" y="7" width="1" height="1" fill="rgb(109,66,24)" fill-opacity="1.000" /><rect x="7" y="7" width="1" height="1" fill="rgb(77,46,17)" fill-opacity="1.000" /><rect x="7" y="9" width="1" height="1" fill="rgb(77,46,17)" fill-opacity="1.000" /><rect x="8" y="7" width="1" height="1" fill="rgb(109,66,24)" fill-opacity="1.000" /><rect x="8" y="9" width="1" height="1" fill="rgb(109,66,24)" fill-opacity="1.000" /><rect x="9" y="7" width="1" height="1" fill="rgb(77,46,17)" fill-opacity="1.000" /><rect x="9" y="9" width="1" height="1" fill="rgb(77,46,17)" fill-opacity="1.000" /><rect x="9" y="11" width="1" height="1" fill="rgb(77,46,17)" fill-opacity="1.000" /><rect x="10" y="7" width="1" height="1" fill="rgb(31,18,6)" fill-opacity="1.000" /><rect x="1" y="8" width="1" height="3" fill="rgb(77,46,17)" fill-opacity="1.000" /><rect x="2" y="8" width="1" height="2" fill="rgb(144,88,31)" fill-opacity="1.000" /><rect x="2" y="11" width="1" height="1" fill="rgb(144,88,31)" fill-opacity="1.000" /><rect x="3" y="8" width="1" height="2" fill="rgb(42,26,9)" fill-opacity="1.000" /><rect x="5" y="8" width="1" height="1" fill="rgb(31,18,6)" fill-opacity="1.000" /><rect x="9" y="8" width="1" height="1" fill="rgb(109,66,24)" fill-opacity="1.000" /><rect x="9" y="10" width="1" height="1" fill="rgb(109,66,24)" fill-opacity="1.000" /><rect x="10" y="8" width="1" height="1" fill="rgb(77,46,17)" fill-opacity="1.000" /><rect x="10" y="10" width="1" height="1" fill="rgb(77,46,17)" fill-opacity="1.000" /><rect x="11" y="8" width="1" height="1" fill="rgb(31,18,6)" fill-opacity="1.000" /><rect x="11" y="13" width="1" height="1" fill="rgb(31,18,6)" fill-opacity="1.000" /><rect x="6" y="9" width="1" height="1" fill="rgb(31,18,6)" fill-opacity="1.000" /><rect x="10" y="9" width="1" height="1" fill="rgb(109,66,24)" fill-opacity="1.000" /><rect x="10" y="11" width="1" height="1" fill="rgb(109,66,24)" fill-opacity="1.000" /><rect x="11" y="9" width="1" height="1" fill="rgb(77,46,17)" fill-opacity="1.000" /><rect x="11" y="11" width="1" height="1" fill="rgb(77,46,17)" fill-opacity="1.000" /><rect x="12" y="9" width="1" height="1" fill="rgb(150,150,150)" fill-opacity="1.000" /><rect x="12" y="11" width="1" height="1" fill="rgb(150,150,150)" fill-opacity="1.000" /><rect x="11" y="10" width="1" height="1" fill="rgb(109,66,24)" fill-opacity="1.000" /><rect x="1" y="11" width="1" height="1" fill="rgb(42,26,9)" fill-opacity="1.000" /><rect x="13" y="11" width="1" height="1" fill="rgb(31,18,6)" fill-opacity="1.000" /><rect x="0" y="12" width="1" height="1" fill="rgb(77,46,17)" fill-opacity="1.000" /><rect x="1" y="12" width="1" height="1" fill="rgb(109,66,24)" fill-opacity="1.000" /><rect x="3" y="12" width="2" height="1" fill="rgb(68,68,68)" fill-opacity="1.000" /><rect x="5" y="12" width="4" height="1" fill="rgb(109,109,109)" fill-opacity="1.000" /><rect x="9" y="12" width="1" height="1" fill="rgb(150,150,150)" fill-opacity="1.000" /><rect x="10" y="12" width="1" height="1" fill="rgb(109,109,109)" fill-opacity="1.000" /><rect x="11" y="12" width="1" height="1" fill="rgb(150,150,150)" fill-opacity="1.000" /><rect x="13" y="12" width="1" height="1" fill="rgb(54,32,11)" fill-opacity="1.000" /><rect x="14" y="12" width="1" height="1" fill="rgb(31,18,6)" fill-opacity="1.000" /><rect x="1" y="13" width="2" height="1" fill="rgb(42,26,9)" fill-opacity="1.000" /><rect x="12" y="13" width="1" height="1" fill="rgb(54,32,11)" fill-opacity="1.000" /><rect x="14" y="13" width="1" height="1" fill="rgb(109,66,24)" fill-opacity="1.000" /><rect x="15" y="13" width="1" height="1" fill="rgb(31,18,6)" fill-opacity="1.000" /><rect x="12" y="14" width="1" height="1" fill="rgb(31,18,6)" fill-opacity="1.000" /><rect x="13" y="14" width="1" height="1" fill="rgb(109,66,24)" fill-opacity="1.000" /><rect x="14" y="14" width="2" height="1" fill="rgb(31,18,6)" fill-opacity="1.000" /><rect x="13" y="15" width="2" height="1" fill="rgb(31,18,6)" fill-opacity="1.000" /></svg>