<?xml version='1.0' encoding='utf-8'?>
<svg width="16" height="16" viewBox="0 0 16 16" xmlns="http://www.w3.org/2000/svg"> <rect x="3" y="2" width="1" height="2" fill="rgb(50,33,15)" fill-opacity="1.000" /><rect x="3" y="5" width="1" height="3" fill="rgb(50,33,15)" fill-opacity="1.000" /><rect x="3" y="9" width="1" height="3" fill="rgb(50,33,15)" fill-opacity="1.000" /><rect x="3" y="13" width="1" height="2" fill="rgb(50,33,15)" fill-opacity="1.000" /><rect x="4" y="2" width="9" height="1" fill="rgb(81,52,26)" fill-opacity="1.000" /><rect x="4" y="14" width="9" height="1" fill="rgb(81,52,26)" fill-opacity="1.000" /><rect x="4" y="3" width="1" height="5" fill="rgb(81,52,26)" fill-opacity="1.000" /><rect x="4" y="9" width="1" height="5" fill="rgb(81,52,26)" fill-opacity="1.000" /><rect x="5" y="3" width="3" height="1" fill="rgb(50,33,15)" fill-opacity="1.000" /><rect x="5" y="9" width="3" height="1" fill="rgb(50,33,15)" fill-opacity="1.000" /><rect x="8" y="3" width="1" height="5" fill="rgb(81,52,26)" fill-opacity="1.000" /><rect x="8" y="9" width="1" height="5" fill="rgb(81,52,26)" fill-opacity="1.000" /><rect x="9" y="3" width="3" height="1" fill="rgb(50,33,15)" fill-opacity="1.000" /><rect x="9" y="9" width="3" height="1" fill="rgb(50,33,15)" fill-opacity="1.000" /><rect x="12" y="3" width="1" height="11" fill="rgb(81,52,26)" fill-opacity="1.000" /><rect x="3" y="4" width="1" height="1" fill="rgb(111,111,111)" fill-opacity="1.000" /><rect x="3" y="8" width="1" height="1" fill="rgb(111,111,111)" fill-opacity="1.000" /><rect x="3" y="12" width="1" height="1" fill="rgb(111,111,111)" fill-opacity="1.000" /><rect x="5" y="4" width="1" height="4" fill="rgb(50,33,15)" fill-opacity="1.000" /><rect x="5" y="10" width="1" height="4" fill="rgb(50,33,15)" fill-opacity="1.000" /><rect x="6" y="4" width="2" height="4" fill="rgb(68,44,22)" fill-opacity="1.000" /><rect x="6" y="10" width="2" height="4" fill="rgb(68,44,22)" fill-opacity="1.000" /><rect x="9" y="4" width="1" height="4" fill="rgb(50,33,15)" fill-opacity="1.000" /><rect x="9" y="10" width="1" height="4" fill="rgb(50,33,15)" fill-opacity="1.000" /><rect x="10" y="4" width="2" height="4" fill="rgb(68,44,22)" fill-opacity="1.000" /><rect x="10" y="10" width="2" height="4" fill="rgb(68,44,22)" fill-opacity="1.000" /><rect x="4" y="8" width="6" height="1" fill="rgb(81,52,26)" fill-opacity="1.000" /><rect x="10" y="8" width="1" height="1" fill="rgb(255,219,89)" fill-opacity="1.000" /><rect x="11" y="8" width="1" height="1" fill="rgb(204,148,0)" fill-opacity="1.000" /><rect x="3" y="15" width="10" height="1" fill="rgb(50,33,15)" fill-opacity="1.000" /></svg>