<?xml version='1.0' encoding='utf-8'?>
<svg width="16" height="16" viewBox="0 0 16 16" xmlns="http://www.w3.org/2000/svg"> <rect x="6" y="0" width="2" height="1" fill="rgb(213,196,150)" fill-opacity="1.000" /><rect x="6" y="11" width="2" height="1" fill="rgb(213,196,150)" fill-opacity="1.000" /><rect x="8" y="0" width="1" height="1" fill="rgb(191,166,113)" fill-opacity="1.000" /><rect x="5" y="1" width="1" height="1" fill="rgb(191,166,113)" fill-opacity="1.000" /><rect x="5" y="8" width="1" height="1" fill="rgb(191,166,113)" fill-opacity="1.000" /><rect x="6" y="1" width="1" height="1" fill="rgb(213,196,150)" fill-opacity="1.000" /><rect x="7" y="1" width="1" height="1" fill="rgb(237,235,203)" fill-opacity="1.000" /><rect x="8" y="1" width="2" height="1" fill="rgb(227,219,176)" fill-opacity="1.000" /><rect x="10" y="1" width="1" height="1" fill="rgb(191,166,113)" fill-opacity="1.000" /><rect x="10" y="10" width="1" height="1" fill="rgb(191,166,113)" fill-opacity="1.000" /><rect x="5" y="2" width="1" height="1" fill="rgb(32,154,184)" fill-opacity="1.000" /><rect x="6" y="2" width="1" height="1" fill="rgb(75,201,201)" fill-opacity="1.000" /><rect x="7" y="2" width="1" height="1" fill="rgb(213,196,150)" fill-opacity="1.000" /><rect x="7" y="4" width="1" height="1" fill="rgb(213,196,150)" fill-opacity="1.000" /><rect x="7" y="6" width="1" height="1" fill="rgb(213,196,150)" fill-opacity="1.000" /><rect x="8" y="2" width="3" height="1" fill="rgb(227,219,176)" fill-opacity="1.000" /><rect x="8" y="6" width="3" height="1" fill="rgb(227,219,176)" fill-opacity="1.000" /><rect x="8" y="9" width="3" height="1" fill="rgb(227,219,176)" fill-opacity="1.000" /><rect x="11" y="2" width="1" height="1" fill="rgb(191,166,113)" fill-opacity="1.000" /><rect x="11" y="8" width="1" height="1" fill="rgb(191,166,113)" fill-opacity="1.000" /><rect x="12" y="2" width="1" height="1" fill="rgb(176,150,86)" fill-opacity="1.000" /><rect x="4" y="3" width="1" height="2" fill="rgb(191,166,113)" fill-opacity="1.000" /><rect x="5" y="3" width="1" height="1" fill="rgb(213,196,150)" fill-opacity="1.000" /><rect x="6" y="3" width="2" height="1" fill="rgb(131,248,248)" fill-opacity="1.000" /><rect x="6" y="12" width="2" height="1" fill="rgb(131,248,248)" fill-opacity="1.000" /><rect x="8" y="3" width="2" height="1" fill="rgb(213,196,150)" fill-opacity="1.000" /><rect x="10" y="3" width="2" height="1" fill="rgb(227,219,176)" fill-opacity="1.000" /><rect x="12" y="3" width="1" height="1" fill="rgb(191,166,113)" fill-opacity="1.000" /><rect x="13" y="3" width="1" height="1" fill="rgb(176,150,86)" fill-opacity="1.000" /><rect x="14" y="3" width="1" height="1" fill="rgb(133,111,55)" fill-opacity="1.000" /><rect x="14" y="7" width="1" height="2" fill="rgb(133,111,55)" fill-opacity="1.000" /><rect x="5" y="4" width="1" height="1" fill="rgb(227,219,176)" fill-opacity="1.000" /><rect x="5" y="9" width="1" height="1" fill="rgb(227,219,176)" fill-opacity="1.000" /><rect x="6" y="4" width="1" height="1" fill="rgb(237,235,203)" fill-opacity="1.000" /><rect x="6" y="9" width="1" height="1" fill="rgb(237,235,203)" fill-opacity="1.000" /><rect x="8" y="4" width="1" height="1" fill="rgb(184,255,255)" fill-opacity="1.000" /><rect x="9" y="4" width="1" height="1" fill="rgb(131,248,248)" fill-opacity="1.000" /><rect x="10" y="4" width="2" height="1" fill="rgb(213,196,150)" fill-opacity="1.000" /><rect x="12" y="4" width="1" height="1" fill="rgb(227,219,176)" fill-opacity="1.000" /><rect x="13" y="4" width="1" height="2" fill="rgb(191,166,113)" fill-opacity="1.000" /><rect x="14" y="4" width="1" height="2" fill="rgb(176,150,86)" fill-opacity="1.000" /><rect x="15" y="4" width="1" height="3" fill="rgb(133,111,55)" fill-opacity="1.000" /><rect x="3" y="5" width="1" height="1" fill="rgb(191,166,113)" fill-opacity="1.000" /><rect x="3" y="7" width="1" height="1" fill="rgb(191,166,113)" fill-opacity="1.000" /><rect x="3" y="11" width="1" height="1" fill="rgb(191,166,113)" fill-opacity="1.000" /><rect x="4" y="5" width="5" height="1" fill="rgb(227,219,176)" fill-opacity="1.000" /><rect x="9" y="5" width="1" height="1" fill="rgb(237,235,203)" fill-opacity="1.000" /><rect x="10" y="5" width="2" height="1" fill="rgb(75,201,201)" fill-opacity="1.000" /><rect x="12" y="5" width="1" height="1" fill="rgb(213,196,150)" fill-opacity="1.000" /><rect x="3" y="6" width="1" height="1" fill="rgb(176,150,86)" fill-opacity="1.000" /><rect x="4" y="6" width="2" height="1" fill="rgb(227,219,176)" fill-opacity="1.000" /><rect x="6" y="6" width="1" height="1" fill="rgb(191,166,113)" fill-opacity="1.000" /><rect x="11" y="6" width="1" height="1" fill="rgb(237,235,203)" fill-opacity="1.000" /><rect x="12" y="6" width="1" height="1" fill="rgb(75,201,201)" fill-opacity="1.000" /><rect x="13" y="6" width="2" height="1" fill="rgb(176,150,86)" fill-opacity="1.000" /><rect x="2" y="7" width="1" height="2" fill="rgb(176,150,86)" fill-opacity="1.000" /><rect x="4" y="7" width="1" height="2" fill="rgb(227,219,176)" fill-opacity="1.000" /><rect x="5" y="7" width="1" height="1" fill="rgb(176,150,86)" fill-opacity="1.000" /><rect x="6" y="7" width="1" height="1" fill="rgb(184,255,255)" fill-opacity="1.000" /><rect x="7" y="7" width="1" height="1" fill="rgb(131,248,248)" fill-opacity="1.000" /><rect x="8" y="7" width="1" height="2" fill="rgb(237,235,203)" fill-opacity="1.000" /><rect x="9" y="7" width="2" height="2" fill="rgb(227,219,176)" fill-opacity="1.000" /><rect x="11" y="7" width="2" height="1" fill="rgb(213,196,150)" fill-opacity="1.000" /><rect x="13" y="7" width="1" height="1" fill="rgb(32,154,184)" fill-opacity="1.000" /><rect x="3" y="8" width="1" height="1" fill="rgb(213,196,150)" fill-opacity="1.000" /><rect x="6" y="8" width="1" height="1" fill="rgb(131,248,248)" fill-opacity="1.000" /><rect x="7" y="8" width="1" height="1" fill="rgb(75,201,201)" fill-opacity="1.000" /><rect x="12" y="8" width="2" height="1" fill="rgb(176,150,86)" fill-opacity="1.000" /><rect x="1" y="9" width="2" height="1" fill="rgb(32,154,184)" fill-opacity="1.000" /><rect x="3" y="9" width="2" height="1" fill="rgb(213,196,150)" fill-opacity="1.000" /><rect x="7" y="9" width="1" height="1" fill="rgb(255,253,231)" fill-opacity="1.000" /><rect x="11" y="9" width="2" height="2" fill="rgb(176,150,86)" fill-opacity="1.000" /><rect x="13" y="9" width="1" height="2" fill="rgb(133,111,55)" fill-opacity="1.000" /><rect x="1" y="10" width="1" height="1" fill="rgb(176,150,86)" fill-opacity="1.000" /><rect x="2" y="10" width="2" height="1" fill="rgb(75,201,201)" fill-opacity="1.000" /><rect x="4" y="10" width="2" height="1" fill="rgb(213,196,150)" fill-opacity="1.000" /><rect x="6" y="10" width="3" height="1" fill="rgb(227,219,176)" fill-opacity="1.000" /><rect x="9" y="10" width="1" height="2" fill="rgb(213,196,150)" fill-opacity="1.000" /><rect x="1" y="11" width="2" height="1" fill="rgb(176,150,86)" fill-opacity="1.000" /><rect x="4" y="11" width="1" height="1" fill="rgb(131,248,248)" fill-opacity="1.000" /><rect x="5" y="11" width="1" height="1" fill="rgb(184,255,255)" fill-opacity="1.000" /><rect x="8" y="11" width="1" height="1" fill="rgb(227,219,176)" fill-opacity="1.000" /><rect x="10" y="11" width="2" height="2" fill="rgb(176,150,86)" fill-opacity="1.000" /><rect x="12" y="11" width="1" height="2" fill="rgb(133,111,55)" fill-opacity="1.000" /><rect x="1" y="12" width="1" height="1" fill="rgb(133,111,55)" fill-opacity="1.000" /><rect x="2" y="12" width="2" height="1" fill="rgb(176,150,86)" fill-opacity="1.000" /><rect x="4" y="12" width="2" height="1" fill="rgb(191,166,113)" fill-opacity="1.000" /><rect x="8" y="12" width="1" height="1" fill="rgb(213,196,150)" fill-opacity="1.000" /><rect x="9" y="12" width="1" height="1" fill="rgb(191,166,113)" fill-opacity="1.000" /><rect x="2" y="13" width="2" height="1" fill="rgb(133,111,55)" fill-opacity="1.000" /><rect x="4" y="13" width="1" height="1" fill="rgb(176,150,86)" fill-opacity="1.000" /><rect x="5" y="13" width="2" height="1" fill="rgb(191,166,113)" fill-opacity="1.000" /><rect x="7" y="13" width="1" height="1" fill="rgb(176,150,86)" fill-opacity="1.000" /><rect x="8" y="13" width="2" height="1" fill="rgb(75,201,201)" fill-opacity="1.000" /><rect x="10" y="13" width="1" height="1" fill="rgb(32,154,184)" fill-opacity="1.000" /><rect x="11" y="13" width="1" height="1" fill="rgb(133,111,55)" fill-opacity="1.000" /><rect x="4" y="14" width="2" height="1" fill="rgb(133,111,55)" fill-opacity="1.000" /><rect x="6" y="14" width="1" height="1" fill="rgb(176,150,86)" fill-opacity="1.000" /><rect x="7" y="14" width="1" height="1" fill="rgb(191,166,113)" fill-opacity="1.000" /><rect x="8" y="14" width="2" height="1" fill="rgb(176,150,86)" fill-opacity="1.000" /><rect x="10" y="14" width="2" height="1" fill="rgb(133,111,55)" fill-opacity="1.000" /><rect x="6" y="15" width="5" height="1" fill="rgb(133,111,55)" fill-opacity="1.000" /></svg>