<?xml version='1.0' encoding='utf-8'?>
<svg width="16" height="16" viewBox="0 0 16 16" xmlns="http://www.w3.org/2000/svg"> <rect x="4" y="2" width="3" height="1" fill="rgb(75,75,75)" fill-opacity="1.000" /><rect x="7" y="2" width="2" height="1" fill="rgb(53,53,53)" fill-opacity="1.000" /><rect x="9" y="2" width="3" height="1" fill="rgb(75,75,75)" fill-opacity="1.000" /><rect x="2" y="3" width="2" height="1" fill="rgb(75,75,75)" fill-opacity="1.000" /><rect x="4" y="3" width="1" height="1" fill="rgb(115,115,115)" fill-opacity="1.000" /><rect x="5" y="3" width="1" height="1" fill="rgb(127,127,152)" fill-opacity="1.000" /><rect x="6" y="3" width="4" height="1" fill="rgb(75,75,75)" fill-opacity="1.000" /><rect x="10" y="3" width="1" height="1" fill="rgb(127,127,152)" fill-opacity="1.000" /><rect x="11" y="3" width="1" height="1" fill="rgb(115,115,115)" fill-opacity="1.000" /><rect x="12" y="3" width="2" height="1" fill="rgb(75,75,75)" fill-opacity="1.000" /><rect x="1" y="4" width="1" height="6" fill="rgb(75,75,75)" fill-opacity="1.000" /><rect x="2" y="4" width="1" height="1" fill="rgb(115,115,115)" fill-opacity="1.000" /><rect x="2" y="7" width="1" height="1" fill="rgb(115,115,115)" fill-opacity="1.000" /><rect x="3" y="4" width="1" height="1" fill="rgb(127,127,152)" fill-opacity="1.000" /><rect x="4" y="4" width="2" height="1" fill="rgb(143,143,179)" fill-opacity="1.000" /><rect x="6" y="4" width="1" height="8" fill="rgb(53,53,53)" fill-opacity="1.000" /><rect x="9" y="4" width="1" height="6" fill="rgb(75,75,75)" fill-opacity="1.000" /><rect x="10" y="4" width="2" height="1" fill="rgb(143,143,179)" fill-opacity="1.000" /><rect x="12" y="4" width="1" height="1" fill="rgb(127,127,152)" fill-opacity="1.000" /><rect x="13" y="4" width="1" height="1" fill="rgb(115,115,115)" fill-opacity="1.000" /><rect x="13" y="7" width="1" height="1" fill="rgb(115,115,115)" fill-opacity="1.000" /><rect x="14" y="4" width="1" height="1" fill="rgb(75,75,75)" fill-opacity="1.000" /><rect x="2" y="5" width="1" height="1" fill="rgb(127,127,152)" fill-opacity="1.000" /><rect x="2" y="8" width="1" height="1" fill="rgb(127,127,152)" fill-opacity="1.000" /><rect x="3" y="5" width="2" height="1" fill="rgb(140,140,140)" fill-opacity="1.000" /><rect x="5" y="5" width="1" height="1" fill="rgb(143,143,179)" fill-opacity="1.000" /><rect x="10" y="5" width="1" height="1" fill="rgb(143,143,179)" fill-opacity="1.000" /><rect x="11" y="5" width="2" height="1" fill="rgb(140,140,140)" fill-opacity="1.000" /><rect x="13" y="5" width="1" height="1" fill="rgb(127,127,152)" fill-opacity="1.000" /><rect x="13" y="8" width="1" height="1" fill="rgb(127,127,152)" fill-opacity="1.000" /><rect x="14" y="5" width="1" height="5" fill="rgb(53,53,53)" fill-opacity="1.000" /><rect x="2" y="6" width="2" height="1" fill="rgb(140,140,140)" fill-opacity="1.000" /><rect x="4" y="6" width="2" height="1" fill="rgb(127,127,152)" fill-opacity="1.000" /><rect x="10" y="6" width="2" height="1" fill="rgb(127,127,152)" fill-opacity="1.000" /><rect x="12" y="6" width="2" height="1" fill="rgb(140,140,140)" fill-opacity="1.000" /><rect x="3" y="7" width="2" height="1" fill="rgb(127,127,152)" fill-opacity="1.000" /><rect x="5" y="7" width="1" height="2" fill="rgb(112,110,141)" fill-opacity="1.000" /><rect x="10" y="7" width="1" height="2" fill="rgb(112,110,141)" fill-opacity="1.000" /><rect x="11" y="7" width="2" height="1" fill="rgb(127,127,152)" fill-opacity="1.000" /><rect x="3" y="8" width="2" height="1" fill="rgb(115,115,115)" fill-opacity="1.000" /><rect x="11" y="8" width="2" height="1" fill="rgb(115,115,115)" fill-opacity="1.000" /><rect x="2" y="9" width="1" height="1" fill="rgb(105,105,105)" fill-opacity="1.000" /><rect x="3" y="9" width="1" height="1" fill="rgb(115,115,115)" fill-opacity="1.000" /><rect x="4" y="9" width="2" height="1" fill="rgb(112,110,141)" fill-opacity="1.000" /><rect x="10" y="9" width="2" height="1" fill="rgb(112,110,141)" fill-opacity="1.000" /><rect x="12" y="9" width="1" height="1" fill="rgb(115,115,115)" fill-opacity="1.000" /><rect x="13" y="9" width="1" height="1" fill="rgb(75,75,75)" fill-opacity="1.000" /><rect x="2" y="10" width="1" height="1" fill="rgb(75,75,75)" fill-opacity="1.000" /><rect x="3" y="10" width="1" height="2" fill="rgb(105,105,105)" fill-opacity="1.000" /><rect x="4" y="10" width="1" height="2" fill="rgb(112,110,141)" fill-opacity="1.000" /><rect x="5" y="10" width="1" height="1" fill="rgb(115,115,115)" fill-opacity="1.000" /><rect x="9" y="10" width="1" height="2" fill="rgb(53,53,53)" fill-opacity="1.000" /><rect x="10" y="10" width="1" height="1" fill="rgb(115,115,115)" fill-opacity="1.000" /><rect x="11" y="10" width="1" height="2" fill="rgb(112,110,141)" fill-opacity="1.000" /><rect x="12" y="10" width="1" height="2" fill="rgb(105,105,105)" fill-opacity="1.000" /><rect x="13" y="10" width="1" height="2" fill="rgb(53,53,53)" fill-opacity="1.000" /><rect x="2" y="11" width="1" height="1" fill="rgb(53,53,53)" fill-opacity="1.000" /><rect x="5" y="11" width="1" height="1" fill="rgb(105,105,105)" fill-opacity="1.000" /><rect x="10" y="11" width="1" height="1" fill="rgb(105,105,105)" fill-opacity="1.000" /><rect x="3" y="12" width="1" height="1" fill="rgb(53,53,53)" fill-opacity="1.000" /><rect x="4" y="12" width="1" height="1" fill="rgb(105,105,105)" fill-opacity="1.000" /><rect x="5" y="12" width="1" height="1" fill="rgb(53,53,53)" fill-opacity="1.000" /><rect x="10" y="12" width="1" height="1" fill="rgb(53,53,53)" fill-opacity="1.000" /><rect x="11" y="12" width="1" height="1" fill="rgb(105,105,105)" fill-opacity="1.000" /><rect x="12" y="12" width="1" height="1" fill="rgb(53,53,53)" fill-opacity="1.000" /><rect x="3" y="13" width="2" height="1" fill="rgb(53,53,53)" fill-opacity="1.000" /><rect x="11" y="13" width="2" height="1" fill="rgb(53,53,53)" fill-opacity="1.000" /></svg>