<?xml version='1.0' encoding='utf-8'?>
<svg width="16" height="16" viewBox="0 0 16 16" xmlns="http://www.w3.org/2000/svg"> <rect x="7" y="1" width="1" height="1" fill="rgb(245,255,143)" fill-opacity="1.000" /><rect x="8" y="1" width="2" height="1" fill="rgb(216,228,90)" fill-opacity="1.000" /><rect x="6" y="2" width="1" height="1" fill="rgb(245,255,143)" fill-opacity="1.000" /><rect x="6" y="6" width="1" height="1" fill="rgb(245,255,143)" fill-opacity="1.000" /><rect x="7" y="2" width="1" height="1" fill="rgb(81,60,3)" fill-opacity="1.000" /><rect x="7" y="6" width="1" height="1" fill="rgb(81,60,3)" fill-opacity="1.000" /><rect x="8" y="2" width="1" height="1" fill="rgb(45,33,2)" fill-opacity="1.000" /><rect x="9" y="2" width="1" height="1" fill="rgb(81,60,3)" fill-opacity="1.000" /><rect x="9" y="5" width="1" height="2" fill="rgb(81,60,3)" fill-opacity="1.000" /><rect x="10" y="2" width="1" height="1" fill="rgb(216,228,90)" fill-opacity="1.000" /><rect x="10" y="5" width="1" height="2" fill="rgb(216,228,90)" fill-opacity="1.000" /><rect x="5" y="3" width="1" height="1" fill="rgb(245,255,143)" fill-opacity="1.000" /><rect x="5" y="7" width="1" height="1" fill="rgb(245,255,143)" fill-opacity="1.000" /><rect x="6" y="3" width="3" height="2" fill="rgb(81,60,3)" fill-opacity="1.000" /><rect x="9" y="3" width="2" height="2" fill="rgb(45,33,2)" fill-opacity="1.000" /><rect x="11" y="3" width="1" height="2" fill="rgb(216,228,90)" fill-opacity="1.000" /><rect x="11" y="7" width="1" height="1" fill="rgb(216,228,90)" fill-opacity="1.000" /><rect x="5" y="4" width="1" height="1" fill="rgb(216,228,90)" fill-opacity="1.000" /><rect x="5" y="14" width="1" height="1" fill="rgb(216,228,90)" fill-opacity="1.000" /><rect x="6" y="5" width="1" height="1" fill="rgb(216,228,90)" fill-opacity="1.000" /><rect x="7" y="5" width="1" height="1" fill="rgb(45,33,2)" fill-opacity="1.000" /><rect x="8" y="5" width="1" height="1" fill="rgb(208,228,90)" fill-opacity="1.000" /><rect x="8" y="6" width="1" height="1" fill="rgb(184,228,90)" fill-opacity="1.000" /><rect x="6" y="7" width="1" height="1" fill="rgb(81,60,3)" fill-opacity="1.000" /><rect x="7" y="7" width="1" height="1" fill="rgb(184,228,90)" fill-opacity="1.000" /><rect x="8" y="7" width="1" height="1" fill="rgb(114,176,54)" fill-opacity="1.000" /><rect x="9" y="7" width="1" height="1" fill="rgb(170,228,90)" fill-opacity="1.000" /><rect x="10" y="7" width="1" height="1" fill="rgb(81,60,3)" fill-opacity="1.000" /><rect x="4" y="8" width="1" height="1" fill="rgb(245,255,143)" fill-opacity="1.000" /><rect x="5" y="8" width="1" height="1" fill="rgb(81,60,3)" fill-opacity="1.000" /><rect x="5" y="13" width="1" height="1" fill="rgb(81,60,3)" fill-opacity="1.000" /><rect x="6" y="8" width="1" height="1" fill="rgb(184,228,90)" fill-opacity="1.000" /><rect x="6" y="13" width="1" height="1" fill="rgb(184,228,90)" fill-opacity="1.000" /><rect x="7" y="8" width="1" height="1" fill="rgb(201,255,145)" fill-opacity="1.000" /><rect x="8" y="8" width="1" height="1" fill="rgb(89,176,87)" fill-opacity="1.000" /><rect x="9" y="8" width="1" height="1" fill="rgb(114,176,54)" fill-opacity="1.000" /><rect x="10" y="8" width="1" height="1" fill="rgb(184,228,90)" fill-opacity="1.000" /><rect x="10" y="13" width="1" height="1" fill="rgb(184,228,90)" fill-opacity="1.000" /><rect x="11" y="8" width="1" height="1" fill="rgb(81,60,3)" fill-opacity="1.000" /><rect x="12" y="8" width="1" height="1" fill="rgb(216,228,90)" fill-opacity="1.000" /><rect x="12" y="13" width="1" height="1" fill="rgb(216,228,90)" fill-opacity="1.000" /><rect x="3" y="9" width="1" height="2" fill="rgb(245,255,143)" fill-opacity="1.000" /><rect x="4" y="9" width="1" height="1" fill="rgb(45,33,2)" fill-opacity="1.000" /><rect x="5" y="9" width="1" height="1" fill="rgb(181,228,90)" fill-opacity="1.000" /><rect x="6" y="9" width="1" height="1" fill="rgb(203,255,143)" fill-opacity="1.000" /><rect x="7" y="9" width="1" height="1" fill="rgb(89,176,87)" fill-opacity="1.000" /><rect x="7" y="12" width="1" height="1" fill="rgb(89,176,87)" fill-opacity="1.000" /><rect x="8" y="9" width="1" height="1" fill="rgb(57,144,76)" fill-opacity="1.000" /><rect x="8" y="12" width="1" height="1" fill="rgb(57,144,76)" fill-opacity="1.000" /><rect x="9" y="9" width="1" height="1" fill="rgb(89,176,87)" fill-opacity="1.000" /><rect x="9" y="12" width="1" height="1" fill="rgb(89,176,87)" fill-opacity="1.000" /><rect x="10" y="9" width="1" height="2" fill="rgb(114,176,54)" fill-opacity="1.000" /><rect x="11" y="9" width="1" height="1" fill="rgb(192,228,90)" fill-opacity="1.000" /><rect x="12" y="9" width="1" height="1" fill="rgb(81,60,3)" fill-opacity="1.000" /><rect x="13" y="9" width="1" height="4" fill="rgb(216,228,90)" fill-opacity="1.000" /><rect x="4" y="10" width="1" height="3" fill="rgb(81,60,3)" fill-opacity="1.000" /><rect x="5" y="10" width="1" height="3" fill="rgb(184,228,90)" fill-opacity="1.000" /><rect x="6" y="10" width="1" height="1" fill="rgb(196,255,143)" fill-opacity="1.000" /><rect x="7" y="10" width="1" height="2" fill="rgb(57,144,76)" fill-opacity="1.000" /><rect x="8" y="10" width="1" height="2" fill="rgb(39,117,59)" fill-opacity="1.000" /><rect x="9" y="10" width="1" height="2" fill="rgb(57,144,76)" fill-opacity="1.000" /><rect x="11" y="10" width="1" height="1" fill="rgb(185,228,90)" fill-opacity="1.000" /><rect x="12" y="10" width="1" height="3" fill="rgb(45,33,2)" fill-opacity="1.000" /><rect x="3" y="11" width="1" height="2" fill="rgb(216,228,90)" fill-opacity="1.000" /><rect x="6" y="11" width="1" height="2" fill="rgb(114,176,54)" fill-opacity="1.000" /><rect x="10" y="11" width="1" height="1" fill="rgb(192,255,149)" fill-opacity="1.000" /><rect x="11" y="11" width="1" height="1" fill="rgb(183,228,90)" fill-opacity="1.000" /><rect x="10" y="12" width="1" height="1" fill="rgb(200,255,143)" fill-opacity="1.000" /><rect x="11" y="12" width="1" height="1" fill="rgb(186,228,90)" fill-opacity="1.000" /><rect x="4" y="13" width="1" height="1" fill="rgb(216,228,90)" fill-opacity="1.000" /><rect x="7" y="13" width="2" height="1" fill="rgb(114,176,54)" fill-opacity="1.000" /><rect x="9" y="13" width="1" height="1" fill="rgb(201,255,145)" fill-opacity="1.000" /><rect x="11" y="13" width="1" height="1" fill="rgb(45,33,2)" fill-opacity="1.000" /><rect x="6" y="14" width="2" height="1" fill="rgb(81,60,3)" fill-opacity="1.000" /><rect x="8" y="14" width="3" height="1" fill="rgb(45,33,2)" fill-opacity="1.000" /><rect x="11" y="14" width="1" height="1" fill="rgb(245,255,143)" fill-opacity="1.000" /><rect x="6" y="15" width="2" height="1" fill="rgb(216,228,90)" fill-opacity="1.000" /><rect x="8" y="15" width="3" height="1" fill="rgb(245,255,143)" fill-opacity="1.000" /></svg>