<?xml version='1.0' encoding='utf-8'?>
<svg width="16" height="16" viewBox="0 0 16 16" xmlns="http://www.w3.org/2000/svg"> <rect x="6" y="2" width="1" height="1" fill="rgb(51,22,16)" fill-opacity="1.000" /><rect x="7" y="2" width="2" height="1" fill="rgb(53,23,17)" fill-opacity="1.000" /><rect x="9" y="2" width="1" height="1" fill="rgb(58,24,17)" fill-opacity="1.000" /><rect x="4" y="3" width="1" height="1" fill="rgb(58,26,20)" fill-opacity="1.000" /><rect x="5" y="3" width="1" height="1" fill="rgb(56,25,18)" fill-opacity="1.000" /><rect x="6" y="3" width="1" height="1" fill="rgb(114,57,43)" fill-opacity="1.000" /><rect x="7" y="3" width="1" height="1" fill="rgb(121,64,48)" fill-opacity="1.000" /><rect x="8" y="3" width="1" height="1" fill="rgb(122,70,53)" fill-opacity="1.000" /><rect x="9" y="3" width="1" height="1" fill="rgb(114,57,43)" fill-opacity="1.000" /><rect x="10" y="3" width="1" height="1" fill="rgb(56,24,20)" fill-opacity="1.000" /><rect x="11" y="3" width="1" height="1" fill="rgb(56,24,16)" fill-opacity="1.000" /><rect x="3" y="4" width="1" height="1" fill="rgb(58,26,20)" fill-opacity="1.000" /><rect x="4" y="4" width="1" height="1" fill="rgb(114,57,43)" fill-opacity="1.000" /><rect x="5" y="4" width="1" height="1" fill="rgb(121,64,48)" fill-opacity="1.000" /><rect x="6" y="4" width="4" height="1" fill="rgb(106,49,35)" fill-opacity="1.000" /><rect x="10" y="4" width="1" height="1" fill="rgb(122,70,53)" fill-opacity="1.000" /><rect x="11" y="4" width="1" height="1" fill="rgb(114,57,43)" fill-opacity="1.000" /><rect x="12" y="4" width="1" height="1" fill="rgb(58,26,20)" fill-opacity="1.000" /><rect x="3" y="5" width="1" height="3" fill="rgb(84,33,22)" fill-opacity="1.000" /><rect x="4" y="5" width="1" height="1" fill="rgb(78,39,30)" fill-opacity="1.000" /><rect x="5" y="5" width="6" height="1" fill="rgb(106,49,35)" fill-opacity="1.000" /><rect x="11" y="5" width="1" height="1" fill="rgb(78,39,30)" fill-opacity="1.000" /><rect x="12" y="5" width="1" height="3" fill="rgb(83,32,23)" fill-opacity="1.000" /><rect x="4" y="6" width="1" height="1" fill="rgb(154,102,85)" fill-opacity="1.000" /><rect x="5" y="6" width="6" height="1" fill="rgb(78,39,30)" fill-opacity="1.000" /><rect x="11" y="6" width="1" height="1" fill="rgb(138,81,67)" fill-opacity="1.000" /><rect x="4" y="7" width="1" height="1" fill="rgb(122,65,49)" fill-opacity="1.000" /><rect x="5" y="7" width="1" height="1" fill="rgb(154,102,85)" fill-opacity="1.000" /><rect x="6" y="7" width="1" height="1" fill="rgb(165,111,94)" fill-opacity="1.000" /><rect x="7" y="7" width="2" height="1" fill="rgb(154,102,85)" fill-opacity="1.000" /><rect x="9" y="7" width="2" height="1" fill="rgb(138,81,67)" fill-opacity="1.000" /><rect x="11" y="7" width="1" height="1" fill="rgb(122,65,49)" fill-opacity="1.000" /><rect x="4" y="8" width="1" height="2" fill="rgb(83,32,23)" fill-opacity="1.000" /><rect x="5" y="8" width="6" height="1" fill="rgb(122,65,49)" fill-opacity="1.000" /><rect x="11" y="8" width="1" height="2" fill="rgb(83,32,23)" fill-opacity="1.000" /><rect x="5" y="9" width="1" height="1" fill="rgb(138,81,67)" fill-opacity="1.000" /><rect x="6" y="9" width="2" height="1" fill="rgb(154,102,85)" fill-opacity="1.000" /><rect x="8" y="9" width="2" height="1" fill="rgb(138,81,67)" fill-opacity="1.000" /><rect x="10" y="9" width="1" height="1" fill="rgb(122,65,49)" fill-opacity="1.000" /><rect x="5" y="10" width="1" height="1" fill="rgb(86,35,23)" fill-opacity="1.000" /><rect x="6" y="10" width="1" height="1" fill="rgb(154,102,85)" fill-opacity="1.000" /><rect x="7" y="10" width="1" height="1" fill="rgb(165,111,94)" fill-opacity="1.000" /><rect x="8" y="10" width="1" height="1" fill="rgb(154,102,85)" fill-opacity="1.000" /><rect x="9" y="10" width="1" height="1" fill="rgb(138,81,67)" fill-opacity="1.000" /><rect x="10" y="10" width="1" height="2" fill="rgb(83,32,23)" fill-opacity="1.000" /><rect x="5" y="11" width="1" height="1" fill="rgb(83,32,23)" fill-opacity="1.000" /><rect x="6" y="11" width="1" height="1" fill="rgb(138,81,67)" fill-opacity="1.000" /><rect x="7" y="11" width="1" height="1" fill="rgb(154,102,85)" fill-opacity="1.000" /><rect x="8" y="11" width="1" height="1" fill="rgb(138,81,67)" fill-opacity="1.000" /><rect x="9" y="11" width="1" height="1" fill="rgb(122,65,49)" fill-opacity="1.000" /><rect x="6" y="12" width="1" height="1" fill="rgb(83,31,21)" fill-opacity="1.000" /><rect x="7" y="12" width="3" height="1" fill="rgb(83,32,23)" fill-opacity="1.000" /></svg>