<?xml version='1.0' encoding='utf-8'?>
<svg width="16" height="16" viewBox="0 0 16 16" xmlns="http://www.w3.org/2000/svg"> <rect x="7" y="4" width="1" height="1" fill="rgb(56,88,88)" fill-opacity="1.000" /><rect x="8" y="4" width="1" height="1" fill="rgb(55,74,74)" fill-opacity="1.000" /><rect x="6" y="5" width="1" height="2" fill="rgb(56,88,88)" fill-opacity="1.000" /><rect x="7" y="5" width="1" height="1" fill="rgb(181,219,219)" fill-opacity="1.000" /><rect x="7" y="10" width="1" height="1" fill="rgb(181,219,219)" fill-opacity="1.000" /><rect x="8" y="5" width="1" height="1" fill="rgb(159,195,195)" fill-opacity="1.000" /><rect x="8" y="10" width="1" height="1" fill="rgb(159,195,195)" fill-opacity="1.000" /><rect x="9" y="5" width="1" height="2" fill="rgb(55,74,74)" fill-opacity="1.000" /><rect x="9" y="10" width="1" height="1" fill="rgb(55,74,74)" fill-opacity="1.000" /><rect x="7" y="6" width="1" height="1" fill="rgb(207,241,241)" fill-opacity="1.000" /><rect x="8" y="6" width="1" height="1" fill="rgb(181,219,219)" fill-opacity="1.000" /><rect x="8" y="9" width="1" height="1" fill="rgb(181,219,219)" fill-opacity="1.000" /><rect x="5" y="7" width="1" height="3" fill="rgb(56,88,88)" fill-opacity="1.000" /><rect x="6" y="7" width="1" height="1" fill="rgb(181,219,219)" fill-opacity="1.000" /><rect x="6" y="9" width="1" height="1" fill="rgb(181,219,219)" fill-opacity="1.000" /><rect x="7" y="7" width="2" height="1" fill="rgb(207,241,241)" fill-opacity="1.000" /><rect x="9" y="7" width="1" height="3" fill="rgb(159,195,195)" fill-opacity="1.000" /><rect x="10" y="7" width="1" height="3" fill="rgb(55,74,74)" fill-opacity="1.000" /><rect x="6" y="8" width="1" height="1" fill="rgb(207,241,241)" fill-opacity="1.000" /><rect x="7" y="8" width="1" height="2" fill="rgb(255,255,255)" fill-opacity="1.000" /><rect x="8" y="8" width="1" height="1" fill="rgb(207,241,241)" fill-opacity="1.000" /><rect x="6" y="10" width="1" height="1" fill="rgb(55,74,74)" fill-opacity="1.000" /><rect x="7" y="11" width="2" height="1" fill="rgb(55,74,74)" fill-opacity="1.000" /></svg>