<?xml version='1.0' encoding='utf-8'?>
<svg width="16" height="16" viewBox="0 0 16 16" xmlns="http://www.w3.org/2000/svg"> <rect x="4" y="2" width="1" height="1" fill="rgb(154,116,24)" fill-opacity="1.000" /><rect x="4" y="11" width="1" height="1" fill="rgb(154,116,24)" fill-opacity="1.000" /><rect x="5" y="2" width="1" height="1" fill="rgb(177,132,28)" fill-opacity="1.000" /><rect x="3" y="3" width="1" height="1" fill="rgb(154,116,24)" fill-opacity="1.000" /><rect x="4" y="3" width="1" height="1" fill="rgb(204,151,32)" fill-opacity="1.000" /><rect x="4" y="10" width="1" height="1" fill="rgb(204,151,32)" fill-opacity="1.000" /><rect x="5" y="3" width="1" height="1" fill="rgb(222,174,170)" fill-opacity="1.000" /><rect x="6" y="3" width="1" height="1" fill="rgb(191,49,35)" fill-opacity="1.000" /><rect x="6" y="10" width="1" height="1" fill="rgb(191,49,35)" fill-opacity="1.000" /><rect x="2" y="4" width="1" height="5" fill="rgb(154,116,24)" fill-opacity="1.000" /><rect x="3" y="4" width="1" height="1" fill="rgb(177,132,28)" fill-opacity="1.000" /><rect x="3" y="8" width="1" height="2" fill="rgb(177,132,28)" fill-opacity="1.000" /><rect x="4" y="4" width="1" height="1" fill="rgb(255,203,198)" fill-opacity="1.000" /><rect x="4" y="7" width="1" height="1" fill="rgb(255,203,198)" fill-opacity="1.000" /><rect x="5" y="4" width="1" height="1" fill="rgb(191,49,35)" fill-opacity="1.000" /><rect x="6" y="4" width="1" height="1" fill="rgb(201,73,8)" fill-opacity="1.000" /><rect x="7" y="4" width="1" height="1" fill="rgb(191,49,35)" fill-opacity="1.000" /><rect x="7" y="6" width="1" height="1" fill="rgb(191,49,35)" fill-opacity="1.000" /><rect x="3" y="5" width="1" height="1" fill="rgb(204,151,32)" fill-opacity="1.000" /><rect x="3" y="7" width="1" height="1" fill="rgb(204,151,32)" fill-opacity="1.000" /><rect x="4" y="5" width="1" height="2" fill="rgb(255,237,231)" fill-opacity="1.000" /><rect x="5" y="5" width="1" height="1" fill="rgb(215,126,21)" fill-opacity="1.000" /><rect x="6" y="5" width="1" height="1" fill="rgb(241,201,5)" fill-opacity="1.000" /><rect x="7" y="5" width="1" height="1" fill="rgb(175,22,11)" fill-opacity="1.000" /><rect x="7" y="10" width="1" height="1" fill="rgb(175,22,11)" fill-opacity="1.000" /><rect x="8" y="5" width="1" height="1" fill="rgb(191,49,35)" fill-opacity="1.000" /><rect x="8" y="8" width="1" height="1" fill="rgb(191,49,35)" fill-opacity="1.000" /><rect x="8" y="10" width="1" height="1" fill="rgb(191,49,35)" fill-opacity="1.000" /><rect x="3" y="6" width="1" height="1" fill="rgb(241,201,5)" fill-opacity="1.000" /><rect x="5" y="6" width="2" height="1" fill="rgb(175,22,11)" fill-opacity="1.000" /><rect x="8" y="6" width="1" height="1" fill="rgb(193,60,45)" fill-opacity="1.000" /><rect x="9" y="6" width="1" height="1" fill="rgb(191,49,35)" fill-opacity="1.000" /><rect x="5" y="7" width="1" height="1" fill="rgb(175,22,11)" fill-opacity="1.000" /><rect x="6" y="7" width="1" height="1" fill="rgb(215,126,21)" fill-opacity="1.000" /><rect x="7" y="7" width="1" height="1" fill="rgb(255,255,255)" fill-opacity="1.000" /><rect x="8" y="7" width="1" height="1" fill="rgb(201,73,8)" fill-opacity="1.000" /><rect x="8" y="9" width="1" height="1" fill="rgb(201,73,8)" fill-opacity="1.000" /><rect x="9" y="7" width="2" height="1" fill="rgb(191,49,35)" fill-opacity="1.000" /><rect x="4" y="8" width="1" height="2" fill="rgb(222,174,170)" fill-opacity="1.000" /><rect x="5" y="8" width="2" height="1" fill="rgb(191,49,35)" fill-opacity="1.000" /><rect x="7" y="8" width="1" height="1" fill="rgb(215,126,21)" fill-opacity="1.000" /><rect x="9" y="8" width="2" height="1" fill="rgb(175,22,11)" fill-opacity="1.000" /><rect x="11" y="8" width="1" height="1" fill="rgb(191,49,35)" fill-opacity="1.000" /><rect x="2" y="9" width="1" height="1" fill="rgb(94,84,11)" fill-opacity="1.000" /><rect x="5" y="9" width="1" height="1" fill="rgb(202,113,93)" fill-opacity="1.000" /><rect x="6" y="9" width="2" height="1" fill="rgb(175,22,11)" fill-opacity="1.000" /><rect x="9" y="9" width="1" height="1" fill="rgb(241,201,5)" fill-opacity="1.000" /><rect x="10" y="9" width="1" height="1" fill="rgb(191,49,35)" fill-opacity="1.000" /><rect x="11" y="9" width="1" height="1" fill="rgb(175,22,11)" fill-opacity="1.000" /><rect x="12" y="9" width="1" height="1" fill="rgb(191,49,35)" fill-opacity="1.000" /><rect x="12" y="11" width="1" height="1" fill="rgb(191,49,35)" fill-opacity="1.000" /><rect x="3" y="10" width="1" height="2" fill="rgb(94,84,11)" fill-opacity="1.000" /><rect x="5" y="10" width="1" height="1" fill="rgb(255,203,198)" fill-opacity="1.000" /><rect x="9" y="10" width="1" height="1" fill="rgb(201,73,8)" fill-opacity="1.000" /><rect x="10" y="10" width="1" height="1" fill="rgb(175,22,11)" fill-opacity="1.000" /><rect x="11" y="10" width="1" height="1" fill="rgb(241,201,5)" fill-opacity="1.000" /><rect x="12" y="10" width="1" height="1" fill="rgb(201,73,8)" fill-opacity="1.000" /><rect x="13" y="10" width="1" height="1" fill="rgb(191,49,35)" fill-opacity="1.000" /><rect x="5" y="11" width="1" height="1" fill="rgb(204,151,32)" fill-opacity="1.000" /><rect x="6" y="11" width="1" height="1" fill="rgb(255,203,198)" fill-opacity="1.000" /><rect x="7" y="11" width="1" height="1" fill="rgb(202,113,93)" fill-opacity="1.000" /><rect x="8" y="11" width="3" height="1" fill="rgb(191,49,35)" fill-opacity="1.000" /><rect x="11" y="11" width="1" height="1" fill="rgb(215,126,21)" fill-opacity="1.000" /><rect x="13" y="11" width="1" height="1" fill="rgb(222,174,170)" fill-opacity="1.000" /><rect x="14" y="11" width="1" height="1" fill="rgb(177,132,28)" fill-opacity="1.000" /><rect x="4" y="12" width="1" height="1" fill="rgb(94,84,11)" fill-opacity="1.000" /><rect x="5" y="12" width="1" height="1" fill="rgb(154,116,24)" fill-opacity="1.000" /><rect x="6" y="12" width="1" height="1" fill="rgb(177,132,28)" fill-opacity="1.000" /><rect x="7" y="12" width="2" height="1" fill="rgb(222,174,170)" fill-opacity="1.000" /><rect x="9" y="12" width="1" height="1" fill="rgb(255,203,198)" fill-opacity="1.000" /><rect x="10" y="12" width="2" height="1" fill="rgb(255,237,231)" fill-opacity="1.000" /><rect x="12" y="12" width="1" height="1" fill="rgb(255,203,198)" fill-opacity="1.000" /><rect x="13" y="12" width="1" height="1" fill="rgb(204,151,32)" fill-opacity="1.000" /><rect x="14" y="12" width="1" height="1" fill="rgb(94,84,11)" fill-opacity="1.000" /><rect x="5" y="13" width="2" height="1" fill="rgb(94,84,11)" fill-opacity="1.000" /><rect x="7" y="13" width="1" height="1" fill="rgb(154,116,24)" fill-opacity="1.000" /><rect x="8" y="13" width="2" height="1" fill="rgb(177,132,28)" fill-opacity="1.000" /><rect x="10" y="13" width="3" height="1" fill="rgb(204,151,32)" fill-opacity="1.000" /><rect x="13" y="13" width="1" height="1" fill="rgb(94,84,11)" fill-opacity="1.000" /><rect x="7" y="14" width="6" height="1" fill="rgb(94,84,11)" fill-opacity="1.000" /></svg>