<?xml version='1.0' encoding='utf-8'?>
<svg width="16" height="16" viewBox="0 0 16 16" xmlns="http://www.w3.org/2000/svg"> <rect x="8" y="1" width="1" height="1" fill="rgb(100,146,45)" fill-opacity="1.000" /><rect x="9" y="1" width="2" height="1" fill="rgb(82,123,33)" fill-opacity="1.000" /><rect x="7" y="2" width="1" height="1" fill="rgb(100,146,45)" fill-opacity="1.000" /><rect x="8" y="2" width="1" height="1" fill="rgb(79,50,20)" fill-opacity="1.000" /><rect x="9" y="2" width="1" height="1" fill="rgb(43,84,30)" fill-opacity="1.000" /><rect x="10" y="2" width="1" height="1" fill="rgb(47,101,43)" fill-opacity="1.000" /><rect x="11" y="2" width="1" height="1" fill="rgb(195,198,47)" fill-opacity="1.000" /><rect x="7" y="3" width="1" height="1" fill="rgb(79,50,20)" fill-opacity="1.000" /><rect x="8" y="3" width="1" height="2" fill="rgb(91,64,18)" fill-opacity="1.000" /><rect x="9" y="3" width="2" height="1" fill="rgb(43,84,30)" fill-opacity="1.000" /><rect x="11" y="3" width="1" height="1" fill="rgb(82,123,33)" fill-opacity="1.000" /><rect x="12" y="3" width="1" height="2" fill="rgb(195,198,47)" fill-opacity="1.000" /><rect x="6" y="4" width="1" height="1" fill="rgb(91,64,18)" fill-opacity="1.000" /><rect x="7" y="4" width="1" height="1" fill="rgb(112,82,29)" fill-opacity="1.000" /><rect x="9" y="4" width="3" height="1" fill="rgb(43,84,30)" fill-opacity="1.000" /><rect x="5" y="5" width="1" height="1" fill="rgb(91,64,18)" fill-opacity="1.000" /><rect x="6" y="5" width="1" height="1" fill="rgb(112,82,29)" fill-opacity="1.000" /><rect x="8" y="5" width="1" height="2" fill="rgb(112,82,29)" fill-opacity="1.000" /><rect x="10" y="5" width="2" height="1" fill="rgb(43,84,30)" fill-opacity="1.000" /><rect x="12" y="5" width="1" height="1" fill="rgb(100,146,45)" fill-opacity="1.000" /><rect x="13" y="5" width="1" height="3" fill="rgb(195,198,47)" fill-opacity="1.000" /><rect x="3" y="6" width="4" height="1" fill="rgb(191,103,23)" fill-opacity="1.000" /><rect x="11" y="6" width="1" height="1" fill="rgb(43,84,30)" fill-opacity="1.000" /><rect x="12" y="6" width="1" height="1" fill="rgb(47,101,43)" fill-opacity="1.000" /><rect x="2" y="7" width="1" height="1" fill="rgb(191,103,23)" fill-opacity="1.000" /><rect x="3" y="7" width="1" height="1" fill="rgb(241,150,69)" fill-opacity="1.000" /><rect x="4" y="7" width="2" height="1" fill="rgb(244,192,94)" fill-opacity="1.000" /><rect x="6" y="7" width="1" height="1" fill="rgb(241,150,69)" fill-opacity="1.000" /><rect x="6" y="11" width="1" height="1" fill="rgb(241,150,69)" fill-opacity="1.000" /><rect x="7" y="7" width="1" height="1" fill="rgb(191,103,23)" fill-opacity="1.000" /><rect x="7" y="13" width="1" height="1" fill="rgb(191,103,23)" fill-opacity="1.000" /><rect x="9" y="7" width="1" height="2" fill="rgb(112,82,29)" fill-opacity="1.000" /><rect x="11" y="7" width="2" height="1" fill="rgb(47,101,43)" fill-opacity="1.000" /><rect x="1" y="8" width="1" height="4" fill="rgb(191,103,23)" fill-opacity="1.000" /><rect x="2" y="8" width="1" height="2" fill="rgb(241,150,69)" fill-opacity="1.000" /><rect x="2" y="11" width="1" height="1" fill="rgb(241,150,69)" fill-opacity="1.000" /><rect x="3" y="8" width="2" height="1" fill="rgb(247,226,107)" fill-opacity="1.000" /><rect x="5" y="8" width="2" height="1" fill="rgb(213,114,25)" fill-opacity="1.000" /><rect x="7" y="8" width="1" height="1" fill="rgb(241,150,69)" fill-opacity="1.000" /><rect x="8" y="8" width="1" height="4" fill="rgb(146,68,26)" fill-opacity="1.000" /><rect x="11" y="8" width="1" height="1" fill="rgb(47,101,43)" fill-opacity="1.000" /><rect x="12" y="8" width="1" height="3" fill="rgb(56,114,51)" fill-opacity="1.000" /><rect x="13" y="8" width="1" height="2" fill="rgb(100,146,45)" fill-opacity="1.000" /><rect x="3" y="9" width="1" height="1" fill="rgb(247,226,107)" fill-opacity="1.000" /><rect x="4" y="9" width="1" height="1" fill="rgb(241,150,69)" fill-opacity="1.000" /><rect x="5" y="9" width="1" height="1" fill="rgb(213,114,25)" fill-opacity="1.000" /><rect x="5" y="12" width="1" height="1" fill="rgb(213,114,25)" fill-opacity="1.000" /><rect x="6" y="9" width="1" height="1" fill="rgb(191,103,23)" fill-opacity="1.000" /><rect x="7" y="9" width="1" height="2" fill="rgb(244,192,94)" fill-opacity="1.000" /><rect x="9" y="9" width="1" height="1" fill="rgb(91,64,18)" fill-opacity="1.000" /><rect x="2" y="10" width="2" height="1" fill="rgb(241,150,69)" fill-opacity="1.000" /><rect x="4" y="10" width="3" height="1" fill="rgb(191,103,23)" fill-opacity="1.000" /><rect x="9" y="10" width="2" height="1" fill="rgb(191,103,23)" fill-opacity="1.000" /><rect x="3" y="11" width="1" height="1" fill="rgb(213,114,25)" fill-opacity="1.000" /><rect x="4" y="11" width="2" height="1" fill="rgb(191,103,23)" fill-opacity="1.000" /><rect x="7" y="11" width="1" height="1" fill="rgb(247,226,107)" fill-opacity="1.000" /><rect x="9" y="11" width="1" height="1" fill="rgb(244,192,94)" fill-opacity="1.000" /><rect x="10" y="11" width="1" height="1" fill="rgb(241,150,69)" fill-opacity="1.000" /><rect x="11" y="11" width="1" height="3" fill="rgb(146,68,26)" fill-opacity="1.000" /><rect x="2" y="12" width="1" height="1" fill="rgb(146,68,26)" fill-opacity="1.000" /><rect x="3" y="12" width="2" height="1" fill="rgb(241,150,69)" fill-opacity="1.000" /><rect x="6" y="12" width="1" height="1" fill="rgb(247,226,107)" fill-opacity="1.000" /><rect x="7" y="12" width="1" height="1" fill="rgb(146,68,26)" fill-opacity="1.000" /><rect x="8" y="12" width="1" height="1" fill="rgb(191,103,23)" fill-opacity="1.000" /><rect x="9" y="12" width="2" height="1" fill="rgb(241,150,69)" fill-opacity="1.000" /><rect x="3" y="13" width="4" height="1" fill="rgb(146,68,26)" fill-opacity="1.000" /><rect x="8" y="13" width="2" height="1" fill="rgb(241,150,69)" fill-opacity="1.000" /><rect x="10" y="13" width="1" height="1" fill="rgb(213,114,25)" fill-opacity="1.000" /><rect x="8" y="14" width="3" height="1" fill="rgb(146,68,26)" fill-opacity="1.000" /></svg>