<?xml version='1.0' encoding='utf-8'?>
<svg width="16" height="16" viewBox="0 0 16 16" xmlns="http://www.w3.org/2000/svg"> <rect x="7" y="2" width="2" height="1" fill="rgb(38,38,38)" fill-opacity="1.000" /><rect x="1" y="3" width="1" height="1" fill="rgb(231,212,155)" fill-opacity="1.000" /><rect x="1" y="5" width="1" height="2" fill="rgb(231,212,155)" fill-opacity="1.000" /><rect x="1" y="8" width="1" height="1" fill="rgb(231,212,155)" fill-opacity="1.000" /><rect x="2" y="3" width="1" height="1" fill="rgb(213,193,132)" fill-opacity="1.000" /><rect x="3" y="3" width="4" height="1" fill="rgb(231,212,155)" fill-opacity="1.000" /><rect x="7" y="3" width="1" height="1" fill="rgb(213,193,132)" fill-opacity="1.000" /><rect x="8" y="3" width="2" height="1" fill="rgb(231,212,155)" fill-opacity="1.000" /><rect x="10" y="3" width="1" height="1" fill="rgb(213,193,132)" fill-opacity="1.000" /><rect x="11" y="3" width="1" height="1" fill="rgb(231,212,155)" fill-opacity="1.000" /><rect x="12" y="3" width="2" height="1" fill="rgb(213,193,132)" fill-opacity="1.000" /><rect x="14" y="3" width="1" height="1" fill="rgb(180,160,98)" fill-opacity="1.000" /><rect x="1" y="4" width="1" height="1" fill="rgb(213,193,132)" fill-opacity="1.000" /><rect x="1" y="7" width="1" height="1" fill="rgb(213,193,132)" fill-opacity="1.000" /><rect x="1" y="9" width="1" height="2" fill="rgb(213,193,132)" fill-opacity="1.000" /><rect x="2" y="4" width="11" height="1" fill="rgb(147,125,66)" fill-opacity="1.000" /><rect x="13" y="4" width="1" height="1" fill="rgb(180,160,98)" fill-opacity="1.000" /><rect x="13" y="6" width="1" height="1" fill="rgb(180,160,98)" fill-opacity="1.000" /><rect x="13" y="8" width="1" height="2" fill="rgb(180,160,98)" fill-opacity="1.000" /><rect x="13" y="12" width="1" height="1" fill="rgb(180,160,98)" fill-opacity="1.000" /><rect x="14" y="4" width="1" height="1" fill="rgb(147,125,66)" fill-opacity="1.000" /><rect x="14" y="6" width="1" height="1" fill="rgb(147,125,66)" fill-opacity="1.000" /><rect x="14" y="9" width="1" height="1" fill="rgb(147,125,66)" fill-opacity="1.000" /><rect x="2" y="5" width="1" height="8" fill="rgb(147,125,66)" fill-opacity="1.000" /><rect x="3" y="5" width="2" height="1" fill="rgb(131,72,41)" fill-opacity="1.000" /><rect x="5" y="5" width="1" height="1" fill="rgb(192,118,61)" fill-opacity="1.000" /><rect x="5" y="12" width="1" height="1" fill="rgb(192,118,61)" fill-opacity="1.000" /><rect x="6" y="5" width="2" height="1" fill="rgb(162,97,47)" fill-opacity="1.000" /><rect x="8" y="5" width="1" height="1" fill="rgb(123,68,41)" fill-opacity="1.000" /><rect x="9" y="5" width="1" height="1" fill="rgb(162,97,47)" fill-opacity="1.000" /><rect x="10" y="5" width="1" height="1" fill="rgb(192,118,61)" fill-opacity="1.000" /><rect x="10" y="12" width="1" height="1" fill="rgb(192,118,61)" fill-opacity="1.000" /><rect x="11" y="5" width="2" height="1" fill="rgb(131,72,41)" fill-opacity="1.000" /><rect x="13" y="5" width="1" height="1" fill="rgb(157,138,81)" fill-opacity="1.000" /><rect x="13" y="7" width="1" height="1" fill="rgb(157,138,81)" fill-opacity="1.000" /><rect x="13" y="10" width="1" height="2" fill="rgb(157,138,81)" fill-opacity="1.000" /><rect x="13" y="13" width="1" height="1" fill="rgb(157,138,81)" fill-opacity="1.000" /><rect x="14" y="5" width="1" height="1" fill="rgb(119,100,50)" fill-opacity="1.000" /><rect x="14" y="7" width="1" height="2" fill="rgb(119,100,50)" fill-opacity="1.000" /><rect x="14" y="10" width="1" height="4" fill="rgb(119,100,50)" fill-opacity="1.000" /><rect x="3" y="6" width="1" height="1" fill="rgb(162,97,47)" fill-opacity="1.000" /><rect x="3" y="11" width="1" height="1" fill="rgb(162,97,47)" fill-opacity="1.000" /><rect x="4" y="6" width="2" height="1" fill="rgb(192,118,61)" fill-opacity="1.000" /><rect x="6" y="6" width="1" height="1" fill="rgb(233,165,91)" fill-opacity="1.000" /><rect x="6" y="11" width="1" height="1" fill="rgb(233,165,91)" fill-opacity="1.000" /><rect x="7" y="6" width="2" height="1" fill="rgb(192,118,61)" fill-opacity="1.000" /><rect x="7" y="11" width="2" height="1" fill="rgb(192,118,61)" fill-opacity="1.000" /><rect x="9" y="6" width="1" height="1" fill="rgb(201,192,186)" fill-opacity="1.000" /><rect x="10" y="6" width="1" height="1" fill="rgb(255,255,255)" fill-opacity="1.000" /><rect x="11" y="6" width="1" height="1" fill="rgb(192,118,61)" fill-opacity="1.000" /><rect x="11" y="11" width="1" height="1" fill="rgb(192,118,61)" fill-opacity="1.000" /><rect x="12" y="6" width="1" height="1" fill="rgb(162,97,47)" fill-opacity="1.000" /><rect x="3" y="7" width="1" height="4" fill="rgb(192,118,61)" fill-opacity="1.000" /><rect x="4" y="7" width="2" height="1" fill="rgb(233,165,91)" fill-opacity="1.000" /><rect x="4" y="10" width="2" height="1" fill="rgb(233,165,91)" fill-opacity="1.000" /><rect x="6" y="7" width="1" height="1" fill="rgb(255,209,128)" fill-opacity="1.000" /><rect x="7" y="7" width="1" height="1" fill="rgb(255,251,168)" fill-opacity="1.000" /><rect x="8" y="7" width="1" height="1" fill="rgb(201,192,186)" fill-opacity="1.000" /><rect x="9" y="7" width="1" height="1" fill="rgb(255,255,255)" fill-opacity="1.000" /><rect x="10" y="7" width="1" height="1" fill="rgb(156,135,123)" fill-opacity="1.000" /><rect x="11" y="7" width="1" height="1" fill="rgb(233,165,91)" fill-opacity="1.000" /><rect x="11" y="9" width="1" height="2" fill="rgb(233,165,91)" fill-opacity="1.000" /><rect x="12" y="7" width="1" height="4" fill="rgb(192,118,61)" fill-opacity="1.000" /><rect x="4" y="8" width="1" height="2" fill="rgb(233,165,91)" fill-opacity="1.000" /><rect x="5" y="8" width="1" height="2" fill="rgb(255,209,128)" fill-opacity="1.000" /><rect x="6" y="8" width="1" height="2" fill="rgb(55,45,27)" fill-opacity="1.000" /><rect x="7" y="8" width="1" height="1" fill="rgb(201,192,186)" fill-opacity="1.000" /><rect x="8" y="8" width="1" height="1" fill="rgb(255,255,255)" fill-opacity="1.000" /><rect x="9" y="8" width="1" height="1" fill="rgb(156,135,123)" fill-opacity="1.000" /><rect x="10" y="8" width="2" height="1" fill="rgb(233,165,91)" fill-opacity="1.000" /><rect x="7" y="9" width="1" height="1" fill="rgb(255,255,255)" fill-opacity="1.000" /><rect x="8" y="9" width="1" height="1" fill="rgb(156,135,123)" fill-opacity="1.000" /><rect x="9" y="9" width="1" height="1" fill="rgb(233,165,91)" fill-opacity="1.000" /><rect x="10" y="9" width="1" height="1" fill="rgb(255,209,128)" fill-opacity="1.000" /><rect x="6" y="10" width="3" height="1" fill="rgb(55,45,27)" fill-opacity="1.000" /><rect x="9" y="10" width="2" height="1" fill="rgb(255,209,128)" fill-opacity="1.000" /><rect x="1" y="11" width="1" height="2" fill="rgb(202,181,119)" fill-opacity="1.000" /><rect x="4" y="11" width="1" height="1" fill="rgb(192,118,61)" fill-opacity="1.000" /><rect x="5" y="11" width="1" height="1" fill="rgb(55,45,27)" fill-opacity="1.000" /><rect x="9" y="11" width="2" height="1" fill="rgb(233,165,91)" fill-opacity="1.000" /><rect x="12" y="11" width="1" height="1" fill="rgb(131,72,41)" fill-opacity="1.000" /><rect x="3" y="12" width="1" height="1" fill="rgb(148,76,41)" fill-opacity="1.000" /><rect x="4" y="12" width="1" height="1" fill="rgb(162,97,47)" fill-opacity="1.000" /><rect x="6" y="12" width="1" height="1" fill="rgb(162,97,47)" fill-opacity="1.000" /><rect x="7" y="12" width="1" height="1" fill="rgb(123,68,41)" fill-opacity="1.000" /><rect x="8" y="12" width="2" height="1" fill="rgb(162,97,47)" fill-opacity="1.000" /><rect x="11" y="12" width="2" height="1" fill="rgb(148,76,41)" fill-opacity="1.000" /><rect x="1" y="13" width="1" height="1" fill="rgb(180,160,98)" fill-opacity="1.000" /><rect x="2" y="13" width="1" height="1" fill="rgb(157,138,81)" fill-opacity="1.000" /><rect x="3" y="13" width="2" height="1" fill="rgb(180,160,98)" fill-opacity="1.000" /><rect x="5" y="13" width="1" height="1" fill="rgb(157,138,81)" fill-opacity="1.000" /><rect x="6" y="13" width="1" height="1" fill="rgb(180,160,98)" fill-opacity="1.000" /><rect x="7" y="13" width="2" height="1" fill="rgb(157,138,81)" fill-opacity="1.000" /><rect x="9" y="13" width="4" height="1" fill="rgb(180,160,98)" fill-opacity="1.000" /><rect x="1" y="14" width="1" height="1" fill="rgb(147,125,66)" fill-opacity="1.000" /><rect x="2" y="14" width="1" height="1" fill="rgb(119,100,50)" fill-opacity="1.000" /><rect x="3" y="14" width="1" height="1" fill="rgb(147,125,66)" fill-opacity="1.000" /><rect x="4" y="14" width="1" height="1" fill="rgb(119,100,50)" fill-opacity="1.000" /><rect x="5" y="14" width="2" height="1" fill="rgb(147,125,66)" fill-opacity="1.000" /><rect x="7" y="14" width="3" height="1" fill="rgb(119,100,50)" fill-opacity="1.000" /><rect x="10" y="14" width="1" height="1" fill="rgb(147,125,66)" fill-opacity="1.000" /><rect x="11" y="14" width="4" height="1" fill="rgb(119,100,50)" fill-opacity="1.000" /></svg>