<?xml version='1.0' encoding='utf-8'?>
<svg width="16" height="16" viewBox="0 0 16 16" xmlns="http://www.w3.org/2000/svg"> <rect x="6" y="4" width="3" height="1" fill="rgb(127,82,12)" fill-opacity="1.000" /><rect x="5" y="5" width="1" height="4" fill="rgb(127,82,12)" fill-opacity="1.000" /><rect x="6" y="5" width="1" height="1" fill="rgb(248,210,106)" fill-opacity="1.000" /><rect x="7" y="5" width="1" height="1" fill="rgb(249,249,105)" fill-opacity="1.000" /><rect x="8" y="5" width="1" height="1" fill="rgb(248,210,106)" fill-opacity="1.000" /><rect x="9" y="5" width="1" height="1" fill="rgb(110,71,11)" fill-opacity="1.000" /><rect x="9" y="10" width="1" height="1" fill="rgb(110,71,11)" fill-opacity="1.000" /><rect x="6" y="6" width="3" height="1" fill="rgb(249,249,105)" fill-opacity="1.000" /><rect x="9" y="6" width="1" height="1" fill="rgb(255,255,255)" fill-opacity="1.000" /><rect x="10" y="6" width="1" height="4" fill="rgb(110,71,11)" fill-opacity="1.000" /><rect x="6" y="7" width="2" height="1" fill="rgb(249,249,105)" fill-opacity="1.000" /><rect x="8" y="7" width="1" height="1" fill="rgb(255,255,255)" fill-opacity="1.000" /><rect x="9" y="7" width="1" height="1" fill="rgb(233,177,21)" fill-opacity="1.000" /><rect x="6" y="8" width="2" height="1" fill="rgb(255,255,255)" fill-opacity="1.000" /><rect x="8" y="8" width="1" height="1" fill="rgb(233,177,21)" fill-opacity="1.000" /><rect x="9" y="8" width="1" height="1" fill="rgb(220,150,19)" fill-opacity="1.000" /><rect x="6" y="9" width="1" height="2" fill="rgb(127,82,12)" fill-opacity="1.000" /><rect x="7" y="9" width="1" height="2" fill="rgb(248,210,106)" fill-opacity="1.000" /><rect x="8" y="9" width="2" height="1" fill="rgb(220,150,19)" fill-opacity="1.000" /><rect x="8" y="10" width="1" height="1" fill="rgb(220,150,19)" fill-opacity="1.000" /><rect x="7" y="11" width="1" height="1" fill="rgb(127,82,12)" fill-opacity="1.000" /><rect x="8" y="11" width="1" height="1" fill="rgb(110,71,11)" fill-opacity="1.000" /></svg>