<?xml version='1.0' encoding='utf-8'?>
<svg width="16" height="16" viewBox="0 0 16 16" xmlns="http://www.w3.org/2000/svg"> <rect x="6" y="5" width="2" height="1" fill="rgb(88,95,104)" fill-opacity="1.000" /><rect x="5" y="6" width="1" height="1" fill="rgb(88,95,104)" fill-opacity="1.000" /><rect x="6" y="6" width="1" height="1" fill="rgb(186,200,218)" fill-opacity="1.000" /><rect x="7" y="6" width="1" height="1" fill="rgb(217,223,231)" fill-opacity="1.000" /><rect x="8" y="6" width="3" height="1" fill="rgb(88,95,104)" fill-opacity="1.000" /><rect x="4" y="7" width="1" height="3" fill="rgb(88,95,104)" fill-opacity="1.000" /><rect x="5" y="7" width="1" height="1" fill="rgb(217,223,231)" fill-opacity="1.000" /><rect x="6" y="7" width="2" height="1" fill="rgb(242,242,242)" fill-opacity="1.000" /><rect x="8" y="7" width="1" height="1" fill="rgb(217,223,231)" fill-opacity="1.000" /><rect x="9" y="7" width="2" height="1" fill="rgb(162,176,190)" fill-opacity="1.000" /><rect x="11" y="7" width="1" height="2" fill="rgb(57,60,64)" fill-opacity="1.000" /><rect x="5" y="8" width="1" height="1" fill="rgb(242,242,242)" fill-opacity="1.000" /><rect x="6" y="8" width="2" height="1" fill="rgb(217,223,231)" fill-opacity="1.000" /><rect x="8" y="8" width="1" height="1" fill="rgb(162,176,190)" fill-opacity="1.000" /><rect x="9" y="8" width="2" height="1" fill="rgb(115,141,141)" fill-opacity="1.000" /><rect x="5" y="9" width="1" height="1" fill="rgb(189,202,219)" fill-opacity="1.000" /><rect x="6" y="9" width="2" height="1" fill="rgb(186,200,218)" fill-opacity="1.000" /><rect x="8" y="9" width="3" height="1" fill="rgb(57,60,64)" fill-opacity="1.000" /><rect x="5" y="10" width="3" height="1" fill="rgb(57,60,64)" fill-opacity="1.000" /></svg>