<?xml version='1.0' encoding='utf-8'?>
<svg width="16" height="16" viewBox="0 0 16 16" xmlns="http://www.w3.org/2000/svg"> <rect x="3" y="2" width="1" height="2" fill="rgb(120,84,55)" fill-opacity="1.000" /><rect x="3" y="5" width="1" height="3" fill="rgb(120,84,55)" fill-opacity="1.000" /><rect x="3" y="9" width="1" height="3" fill="rgb(120,84,55)" fill-opacity="1.000" /><rect x="3" y="13" width="1" height="2" fill="rgb(120,84,55)" fill-opacity="1.000" /><rect x="4" y="2" width="9" height="1" fill="rgb(178,130,94)" fill-opacity="1.000" /><rect x="4" y="3" width="3" height="1" fill="rgb(178,130,94)" fill-opacity="1.000" /><rect x="7" y="3" width="3" height="1" fill="rgb(120,84,55)" fill-opacity="1.000" /><rect x="10" y="3" width="3" height="1" fill="rgb(178,130,94)" fill-opacity="1.000" /><rect x="3" y="4" width="1" height="1" fill="rgb(53,53,53)" fill-opacity="1.000" /><rect x="3" y="8" width="1" height="1" fill="rgb(53,53,53)" fill-opacity="1.000" /><rect x="3" y="12" width="1" height="1" fill="rgb(53,53,53)" fill-opacity="1.000" /><rect x="4" y="4" width="2" height="1" fill="rgb(178,130,94)" fill-opacity="1.000" /><rect x="4" y="6" width="2" height="7" fill="rgb(178,130,94)" fill-opacity="1.000" /><rect x="4" y="14" width="2" height="1" fill="rgb(178,130,94)" fill-opacity="1.000" /><rect x="6" y="4" width="1" height="1" fill="rgb(120,84,55)" fill-opacity="1.000" /><rect x="7" y="4" width="1" height="2" fill="rgb(160,116,85)" fill-opacity="1.000" /><rect x="9" y="4" width="1" height="2" fill="rgb(160,116,85)" fill-opacity="1.000" /><rect x="10" y="4" width="1" height="1" fill="rgb(120,84,55)" fill-opacity="1.000" /><rect x="11" y="4" width="2" height="1" fill="rgb(178,130,94)" fill-opacity="1.000" /><rect x="11" y="6" width="2" height="2" fill="rgb(178,130,94)" fill-opacity="1.000" /><rect x="11" y="9" width="2" height="4" fill="rgb(178,130,94)" fill-opacity="1.000" /><rect x="11" y="14" width="2" height="1" fill="rgb(178,130,94)" fill-opacity="1.000" /><rect x="4" y="5" width="2" height="1" fill="rgb(151,106,68)" fill-opacity="1.000" /><rect x="11" y="5" width="2" height="1" fill="rgb(151,106,68)" fill-opacity="1.000" /><rect x="6" y="6" width="1" height="5" fill="rgb(151,106,68)" fill-opacity="1.000" /><rect x="6" y="12" width="1" height="1" fill="rgb(151,106,68)" fill-opacity="1.000" /><rect x="6" y="14" width="1" height="1" fill="rgb(151,106,68)" fill-opacity="1.000" /><rect x="7" y="6" width="3" height="1" fill="rgb(178,130,94)" fill-opacity="1.000" /><rect x="7" y="8" width="3" height="3" fill="rgb(178,130,94)" fill-opacity="1.000" /><rect x="7" y="12" width="3" height="3" fill="rgb(178,130,94)" fill-opacity="1.000" /><rect x="10" y="6" width="1" height="2" fill="rgb(151,106,68)" fill-opacity="1.000" /><rect x="10" y="9" width="1" height="2" fill="rgb(151,106,68)" fill-opacity="1.000" /><rect x="10" y="12" width="1" height="1" fill="rgb(151,106,68)" fill-opacity="1.000" /><rect x="10" y="14" width="1" height="1" fill="rgb(151,106,68)" fill-opacity="1.000" /><rect x="10" y="8" width="1" height="1" fill="rgb(73,73,73)" fill-opacity="1.000" /><rect x="11" y="8" width="1" height="1" fill="rgb(51,51,51)" fill-opacity="1.000" /><rect x="12" y="8" width="1" height="1" fill="rgb(178,130,94)" fill-opacity="1.000" /><rect x="6" y="11" width="5" height="1" fill="rgb(151,106,68)" fill-opacity="1.000" /><rect x="4" y="13" width="3" height="1" fill="rgb(151,106,68)" fill-opacity="1.000" /><rect x="10" y="13" width="3" height="1" fill="rgb(151,106,68)" fill-opacity="1.000" /><rect x="3" y="15" width="10" height="1" fill="rgb(120,84,55)" fill-opacity="1.000" /></svg>