<?xml version='1.0' encoding='utf-8'?>
<svg width="16" height="16" viewBox="0 0 16 16" xmlns="http://www.w3.org/2000/svg"> <rect x="2" y="9" width="1" height="1" fill="rgb(52,33,21)" fill-opacity="1.000" /><rect x="5" y="9" width="1" height="1" fill="rgb(114,72,46)" fill-opacity="1.000" /><rect x="6" y="9" width="1" height="2" fill="rgb(33,21,13)" fill-opacity="1.000" /><rect x="9" y="9" width="1" height="2" fill="rgb(52,33,21)" fill-opacity="1.000" /><rect x="10" y="9" width="1" height="1" fill="rgb(114,72,46)" fill-opacity="1.000" /><rect x="13" y="9" width="1" height="1" fill="rgb(33,21,13)" fill-opacity="1.000" /><rect x="1" y="10" width="1" height="3" fill="rgb(52,33,21)" fill-opacity="1.000" /><rect x="2" y="10" width="2" height="1" fill="rgb(149,94,59)" fill-opacity="1.000" /><rect x="4" y="10" width="1" height="1" fill="rgb(114,72,46)" fill-opacity="1.000" /><rect x="5" y="10" width="1" height="1" fill="rgb(85,53,33)" fill-opacity="1.000" /><rect x="10" y="10" width="1" height="1" fill="rgb(85,53,33)" fill-opacity="1.000" /><rect x="11" y="10" width="1" height="1" fill="rgb(114,72,46)" fill-opacity="1.000" /><rect x="12" y="10" width="1" height="1" fill="rgb(149,94,59)" fill-opacity="1.000" /><rect x="13" y="10" width="1" height="1" fill="rgb(114,72,46)" fill-opacity="1.000" /><rect x="14" y="10" width="1" height="2" fill="rgb(33,21,13)" fill-opacity="1.000" /><rect x="2" y="11" width="2" height="1" fill="rgb(114,72,46)" fill-opacity="1.000" /><rect x="4" y="11" width="1" height="1" fill="rgb(85,53,33)" fill-opacity="1.000" /><rect x="5" y="11" width="2" height="1" fill="rgb(33,21,13)" fill-opacity="1.000" /><rect x="9" y="11" width="2" height="1" fill="rgb(33,21,13)" fill-opacity="1.000" /><rect x="11" y="11" width="2" height="1" fill="rgb(114,72,46)" fill-opacity="1.000" /><rect x="13" y="11" width="1" height="1" fill="rgb(85,53,33)" fill-opacity="1.000" /><rect x="2" y="12" width="3" height="1" fill="rgb(33,21,13)" fill-opacity="1.000" /><rect x="11" y="12" width="4" height="1" fill="rgb(33,21,13)" fill-opacity="1.000" /></svg>