<?xml version='1.0' encoding='utf-8'?>
<svg width="16" height="16" viewBox="0 0 16 16" xmlns="http://www.w3.org/2000/svg"> <rect x="1" y="2" width="5" height="1" fill="rgb(83,83,83)" fill-opacity="1.000" /><rect x="10" y="2" width="5" height="1" fill="rgb(83,83,83)" fill-opacity="1.000" /><rect x="1" y="3" width="1" height="4" fill="rgb(83,83,83)" fill-opacity="1.000" /><rect x="2" y="3" width="2" height="1" fill="rgb(207,207,207)" fill-opacity="1.000" /><rect x="4" y="3" width="1" height="1" fill="rgb(179,179,179)" fill-opacity="1.000" /><rect x="4" y="6" width="1" height="1" fill="rgb(179,179,179)" fill-opacity="1.000" /><rect x="4" y="9" width="1" height="1" fill="rgb(179,179,179)" fill-opacity="1.000" /><rect x="5" y="3" width="1" height="1" fill="rgb(83,83,83)" fill-opacity="1.000" /><rect x="10" y="3" width="1" height="1" fill="rgb(83,83,83)" fill-opacity="1.000" /><rect x="11" y="3" width="2" height="1" fill="rgb(207,207,207)" fill-opacity="1.000" /><rect x="13" y="3" width="1" height="1" fill="rgb(179,179,179)" fill-opacity="1.000" /><rect x="14" y="3" width="1" height="4" fill="rgb(83,83,83)" fill-opacity="1.000" /><rect x="2" y="4" width="1" height="1" fill="rgb(207,207,207)" fill-opacity="1.000" /><rect x="3" y="4" width="2" height="1" fill="rgb(179,179,179)" fill-opacity="1.000" /><rect x="5" y="4" width="1" height="1" fill="rgb(150,150,150)" fill-opacity="1.000" /><rect x="6" y="4" width="1" height="1" fill="rgb(83,83,83)" fill-opacity="1.000" /><rect x="9" y="4" width="1" height="1" fill="rgb(83,83,83)" fill-opacity="1.000" /><rect x="10" y="4" width="1" height="1" fill="rgb(150,150,150)" fill-opacity="1.000" /><rect x="11" y="4" width="1" height="1" fill="rgb(207,207,207)" fill-opacity="1.000" /><rect x="12" y="4" width="2" height="1" fill="rgb(179,179,179)" fill-opacity="1.000" /><rect x="2" y="5" width="3" height="1" fill="rgb(179,179,179)" fill-opacity="1.000" /><rect x="5" y="5" width="1" height="1" fill="rgb(207,207,207)" fill-opacity="1.000" /><rect x="5" y="9" width="1" height="1" fill="rgb(207,207,207)" fill-opacity="1.000" /><rect x="6" y="5" width="1" height="1" fill="rgb(150,150,150)" fill-opacity="1.000" /><rect x="6" y="13" width="1" height="1" fill="rgb(150,150,150)" fill-opacity="1.000" /><rect x="7" y="5" width="2" height="1" fill="rgb(83,83,83)" fill-opacity="1.000" /><rect x="9" y="5" width="1" height="1" fill="rgb(150,150,150)" fill-opacity="1.000" /><rect x="10" y="5" width="4" height="1" fill="rgb(179,179,179)" fill-opacity="1.000" /><rect x="2" y="6" width="1" height="1" fill="rgb(115,115,115)" fill-opacity="1.000" /><rect x="3" y="6" width="1" height="1" fill="rgb(150,150,150)" fill-opacity="1.000" /><rect x="5" y="6" width="2" height="1" fill="rgb(207,207,207)" fill-opacity="1.000" /><rect x="7" y="6" width="1" height="2" fill="rgb(150,150,150)" fill-opacity="1.000" /><rect x="7" y="9" width="1" height="1" fill="rgb(150,150,150)" fill-opacity="1.000" /><rect x="7" y="11" width="1" height="1" fill="rgb(150,150,150)" fill-opacity="1.000" /><rect x="8" y="6" width="1" height="1" fill="rgb(207,207,207)" fill-opacity="1.000" /><rect x="9" y="6" width="3" height="1" fill="rgb(179,179,179)" fill-opacity="1.000" /><rect x="9" y="8" width="3" height="1" fill="rgb(179,179,179)" fill-opacity="1.000" /><rect x="12" y="6" width="1" height="1" fill="rgb(150,150,150)" fill-opacity="1.000" /><rect x="13" y="6" width="1" height="1" fill="rgb(115,115,115)" fill-opacity="1.000" /><rect x="1" y="7" width="2" height="1" fill="rgb(53,53,53)" fill-opacity="1.000" /><rect x="3" y="7" width="1" height="1" fill="rgb(115,115,115)" fill-opacity="1.000" /><rect x="4" y="7" width="3" height="1" fill="rgb(207,207,207)" fill-opacity="1.000" /><rect x="8" y="7" width="4" height="1" fill="rgb(179,179,179)" fill-opacity="1.000" /><rect x="12" y="7" width="1" height="1" fill="rgb(115,115,115)" fill-opacity="1.000" /><rect x="13" y="7" width="2" height="1" fill="rgb(53,53,53)" fill-opacity="1.000" /><rect x="3" y="8" width="1" height="5" fill="rgb(53,53,53)" fill-opacity="1.000" /><rect x="4" y="8" width="2" height="1" fill="rgb(207,207,207)" fill-opacity="1.000" /><rect x="6" y="8" width="1" height="2" fill="rgb(179,179,179)" fill-opacity="1.000" /><rect x="7" y="8" width="1" height="1" fill="rgb(115,115,115)" fill-opacity="1.000" /><rect x="7" y="10" width="1" height="1" fill="rgb(115,115,115)" fill-opacity="1.000" /><rect x="7" y="12" width="1" height="2" fill="rgb(115,115,115)" fill-opacity="1.000" /><rect x="8" y="8" width="1" height="1" fill="rgb(150,150,150)" fill-opacity="1.000" /><rect x="8" y="10" width="1" height="1" fill="rgb(150,150,150)" fill-opacity="1.000" /><rect x="12" y="8" width="1" height="5" fill="rgb(53,53,53)" fill-opacity="1.000" /><rect x="8" y="9" width="3" height="1" fill="rgb(179,179,179)" fill-opacity="1.000" /><rect x="11" y="9" width="1" height="2" fill="rgb(150,150,150)" fill-opacity="1.000" /><rect x="4" y="10" width="3" height="1" fill="rgb(179,179,179)" fill-opacity="1.000" /><rect x="9" y="10" width="2" height="1" fill="rgb(179,179,179)" fill-opacity="1.000" /><rect x="4" y="11" width="1" height="1" fill="rgb(150,150,150)" fill-opacity="1.000" /><rect x="5" y="11" width="2" height="1" fill="rgb(179,179,179)" fill-opacity="1.000" /><rect x="8" y="11" width="2" height="1" fill="rgb(179,179,179)" fill-opacity="1.000" /><rect x="10" y="11" width="2" height="1" fill="rgb(150,150,150)" fill-opacity="1.000" /><rect x="4" y="12" width="1" height="1" fill="rgb(115,115,115)" fill-opacity="1.000" /><rect x="5" y="12" width="2" height="1" fill="rgb(150,150,150)" fill-opacity="1.000" /><rect x="8" y="12" width="3" height="1" fill="rgb(150,150,150)" fill-opacity="1.000" /><rect x="11" y="12" width="1" height="1" fill="rgb(115,115,115)" fill-opacity="1.000" /><rect x="4" y="13" width="1" height="1" fill="rgb(53,53,53)" fill-opacity="1.000" /><rect x="5" y="13" width="1" height="1" fill="rgb(115,115,115)" fill-opacity="1.000" /><rect x="8" y="13" width="2" height="1" fill="rgb(150,150,150)" fill-opacity="1.000" /><rect x="10" y="13" width="1" height="1" fill="rgb(115,115,115)" fill-opacity="1.000" /><rect x="11" y="13" width="1" height="1" fill="rgb(53,53,53)" fill-opacity="1.000" /><rect x="5" y="14" width="6" height="1" fill="rgb(53,53,53)" fill-opacity="1.000" /></svg>