<?xml version='1.0' encoding='utf-8'?>
<svg width="16" height="16" viewBox="0 0 16 16" xmlns="http://www.w3.org/2000/svg"> <rect x="7" y="2" width="2" height="1" fill="rgb(88,85,123)" fill-opacity="1.000" /><rect x="3" y="3" width="4" height="1" fill="rgb(88,85,123)" fill-opacity="1.000" /><rect x="7" y="3" width="1" height="1" fill="rgb(217,217,217)" fill-opacity="1.000" /><rect x="8" y="3" width="1" height="1" fill="rgb(186,186,193)" fill-opacity="1.000" /><rect x="9" y="3" width="1" height="1" fill="rgb(88,85,123)" fill-opacity="1.000" /><rect x="2" y="4" width="1" height="2" fill="rgb(88,85,123)" fill-opacity="1.000" /><rect x="2" y="7" width="1" height="3" fill="rgb(88,85,123)" fill-opacity="1.000" /><rect x="3" y="4" width="1" height="2" fill="rgb(217,217,217)" fill-opacity="1.000" /><rect x="4" y="4" width="1" height="1" fill="rgb(200,200,200)" fill-opacity="1.000" /><rect x="5" y="4" width="1" height="1" fill="rgb(159,159,179)" fill-opacity="1.000" /><rect x="5" y="8" width="1" height="1" fill="rgb(159,159,179)" fill-opacity="1.000" /><rect x="6" y="4" width="1" height="1" fill="rgb(200,200,200)" fill-opacity="1.000" /><rect x="6" y="8" width="1" height="1" fill="rgb(200,200,200)" fill-opacity="1.000" /><rect x="7" y="4" width="1" height="1" fill="rgb(186,186,193)" fill-opacity="1.000" /><rect x="8" y="4" width="1" height="1" fill="rgb(88,85,123)" fill-opacity="1.000" /><rect x="4" y="5" width="1" height="1" fill="rgb(159,159,179)" fill-opacity="1.000" /><rect x="5" y="5" width="1" height="1" fill="rgb(217,217,217)" fill-opacity="1.000" /><rect x="6" y="5" width="2" height="1" fill="rgb(186,186,193)" fill-opacity="1.000" /><rect x="8" y="5" width="1" height="2" fill="rgb(200,200,200)" fill-opacity="1.000" /><rect x="8" y="9" width="1" height="1" fill="rgb(200,200,200)" fill-opacity="1.000" /><rect x="9" y="5" width="1" height="1" fill="rgb(61,61,76)" fill-opacity="1.000" /><rect x="1" y="6" width="1" height="1" fill="rgb(88,85,123)" fill-opacity="1.000" /><rect x="2" y="6" width="1" height="1" fill="rgb(217,217,217)" fill-opacity="1.000" /><rect x="3" y="6" width="1" height="1" fill="rgb(200,200,200)" fill-opacity="1.000" /><rect x="4" y="6" width="1" height="1" fill="rgb(217,217,217)" fill-opacity="1.000" /><rect x="4" y="9" width="1" height="1" fill="rgb(217,217,217)" fill-opacity="1.000" /><rect x="5" y="6" width="1" height="1" fill="rgb(200,200,200)" fill-opacity="1.000" /><rect x="5" y="9" width="1" height="1" fill="rgb(200,200,200)" fill-opacity="1.000" /><rect x="6" y="6" width="1" height="1" fill="rgb(186,186,193)" fill-opacity="1.000" /><rect x="7" y="6" width="1" height="1" fill="rgb(159,159,179)" fill-opacity="1.000" /><rect x="9" y="6" width="1" height="1" fill="rgb(159,159,179)" fill-opacity="1.000" /><rect x="9" y="11" width="1" height="1" fill="rgb(159,159,179)" fill-opacity="1.000" /><rect x="10" y="6" width="3" height="1" fill="rgb(61,61,76)" fill-opacity="1.000" /><rect x="3" y="7" width="2" height="1" fill="rgb(200,200,200)" fill-opacity="1.000" /><rect x="5" y="7" width="1" height="1" fill="rgb(186,186,193)" fill-opacity="1.000" /><rect x="6" y="7" width="1" height="1" fill="rgb(159,159,179)" fill-opacity="1.000" /><rect x="6" y="11" width="1" height="1" fill="rgb(159,159,179)" fill-opacity="1.000" /><rect x="7" y="7" width="1" height="1" fill="rgb(200,200,200)" fill-opacity="1.000" /><rect x="8" y="7" width="2" height="1" fill="rgb(186,186,193)" fill-opacity="1.000" /><rect x="10" y="7" width="2" height="1" fill="rgb(200,200,200)" fill-opacity="1.000" /><rect x="12" y="7" width="1" height="1" fill="rgb(159,159,179)" fill-opacity="1.000" /><rect x="12" y="9" width="1" height="1" fill="rgb(159,159,179)" fill-opacity="1.000" /><rect x="13" y="7" width="1" height="3" fill="rgb(61,61,76)" fill-opacity="1.000" /><rect x="3" y="8" width="2" height="1" fill="rgb(186,186,193)" fill-opacity="1.000" /><rect x="7" y="8" width="2" height="1" fill="rgb(217,217,217)" fill-opacity="1.000" /><rect x="9" y="8" width="1" height="1" fill="rgb(200,200,200)" fill-opacity="1.000" /><rect x="10" y="8" width="1" height="1" fill="rgb(186,186,193)" fill-opacity="1.000" /><rect x="11" y="8" width="1" height="1" fill="rgb(217,217,217)" fill-opacity="1.000" /><rect x="12" y="8" width="1" height="1" fill="rgb(186,186,193)" fill-opacity="1.000" /><rect x="3" y="9" width="1" height="1" fill="rgb(186,186,193)" fill-opacity="1.000" /><rect x="6" y="9" width="2" height="1" fill="rgb(217,217,217)" fill-opacity="1.000" /><rect x="9" y="9" width="1" height="1" fill="rgb(217,217,217)" fill-opacity="1.000" /><rect x="10" y="9" width="1" height="1" fill="rgb(200,200,200)" fill-opacity="1.000" /><rect x="11" y="9" width="1" height="1" fill="rgb(186,186,193)" fill-opacity="1.000" /><rect x="3" y="10" width="1" height="1" fill="rgb(61,61,76)" fill-opacity="1.000" /><rect x="4" y="10" width="2" height="1" fill="rgb(186,186,193)" fill-opacity="1.000" /><rect x="6" y="10" width="3" height="1" fill="rgb(200,200,200)" fill-opacity="1.000" /><rect x="9" y="10" width="2" height="1" fill="rgb(186,186,193)" fill-opacity="1.000" /><rect x="11" y="10" width="1" height="1" fill="rgb(159,159,179)" fill-opacity="1.000" /><rect x="12" y="10" width="1" height="1" fill="rgb(61,61,76)" fill-opacity="1.000" /><rect x="4" y="11" width="2" height="1" fill="rgb(61,61,76)" fill-opacity="1.000" /><rect x="7" y="11" width="2" height="1" fill="rgb(186,186,193)" fill-opacity="1.000" /><rect x="10" y="11" width="2" height="1" fill="rgb(61,61,76)" fill-opacity="1.000" /><rect x="6" y="12" width="4" height="1" fill="rgb(61,61,76)" fill-opacity="1.000" /></svg>