<?xml version='1.0' encoding='utf-8'?>
<svg width="16" height="16" viewBox="0 0 16 16" xmlns="http://www.w3.org/2000/svg"> <rect x="0" y="0" width="3" height="1" fill="rgb(238,190,70)" fill-opacity="1.000" /><rect x="0" y="4" width="3" height="1" fill="rgb(238,190,70)" fill-opacity="1.000" /><rect x="3" y="0" width="1" height="5" fill="rgb(82,80,78)" fill-opacity="1.000" /><rect x="0" y="1" width="1" height="3" fill="rgb(238,190,70)" fill-opacity="1.000" /><rect x="1" y="1" width="1" height="3" fill="rgb(82,80,78)" fill-opacity="1.000" /><rect x="2" y="1" width="1" height="3" fill="rgb(238,190,70)" fill-opacity="1.000" /><rect x="8" y="1" width="4" height="1" fill="rgb(121,184,220)" fill-opacity="1.000" /><rect x="12" y="1" width="1" height="1" fill="rgb(98,156,189)" fill-opacity="1.000" /><rect x="7" y="2" width="1" height="1" fill="rgb(121,184,220)" fill-opacity="1.000" /><rect x="13" y="2" width="1" height="1" fill="rgb(98,156,189)" fill-opacity="1.000" /><rect x="6" y="3" width="1" height="2" fill="rgb(121,184,220)" fill-opacity="1.000" /><rect x="14" y="3" width="1" height="1" fill="rgb(98,156,189)" fill-opacity="1.000" /><rect x="14" y="4" width="1" height="3" fill="rgb(77,125,152)" fill-opacity="1.000" /><rect x="6" y="5" width="1" height="2" fill="rgb(98,156,189)" fill-opacity="1.000" /><rect x="9" y="6" width="1" height="1" fill="rgb(139,127,133)" fill-opacity="1.000" /><rect x="9" y="8" width="1" height="1" fill="rgb(139,127,133)" fill-opacity="1.000" /><rect x="9" y="12" width="1" height="1" fill="rgb(139,127,133)" fill-opacity="1.000" /><rect x="11" y="6" width="1" height="1" fill="rgb(139,127,133)" fill-opacity="1.000" /><rect x="11" y="8" width="1" height="1" fill="rgb(139,127,133)" fill-opacity="1.000" /><rect x="11" y="11" width="1" height="1" fill="rgb(139,127,133)" fill-opacity="1.000" /><rect x="7" y="7" width="1" height="1" fill="rgb(98,156,189)" fill-opacity="1.000" /><rect x="9" y="7" width="1" height="1" fill="rgb(204,202,202)" fill-opacity="1.000" /><rect x="9" y="13" width="1" height="1" fill="rgb(204,202,202)" fill-opacity="1.000" /><rect x="11" y="7" width="1" height="1" fill="rgb(204,202,202)" fill-opacity="1.000" /><rect x="13" y="7" width="1" height="1" fill="rgb(77,125,152)" fill-opacity="1.000" /><rect x="8" y="8" width="1" height="1" fill="rgb(77,125,152)" fill-opacity="1.000" /><rect x="12" y="8" width="1" height="1" fill="rgb(77,125,152)" fill-opacity="1.000" /><rect x="9" y="9" width="1" height="1" fill="rgb(77,125,152)" fill-opacity="1.000" /><rect x="10" y="9" width="1" height="1" fill="rgb(139,127,133)" fill-opacity="1.000" /><rect x="11" y="9" width="1" height="1" fill="rgb(77,125,152)" fill-opacity="1.000" /><rect x="9" y="10" width="1" height="1" fill="rgb(66,102,122)" fill-opacity="1.000" /><rect x="10" y="10" width="1" height="1" fill="rgb(89,89,89)" fill-opacity="1.000" /><rect x="10" y="14" width="1" height="1" fill="rgb(89,89,89)" fill-opacity="1.000" /><rect x="11" y="10" width="1" height="1" fill="rgb(66,102,122)" fill-opacity="1.000" /><rect x="9" y="11" width="2" height="1" fill="rgb(204,202,202)" fill-opacity="1.000" /><rect x="10" y="12" width="2" height="1" fill="rgb(89,89,89)" fill-opacity="1.000" /><rect x="10" y="13" width="2" height="1" fill="rgb(139,127,133)" fill-opacity="1.000" /></svg>