<?xml version='1.0' encoding='utf-8'?>
<svg width="16" height="16" viewBox="0 0 16 16" xmlns="http://www.w3.org/2000/svg"> <rect x="5" y="4" width="3" height="1" fill="rgb(61,102,154)" fill-opacity="1.000" /><rect x="9" y="4" width="2" height="1" fill="rgb(61,102,154)" fill-opacity="1.000" /><rect x="4" y="5" width="1" height="1" fill="rgb(61,102,154)" fill-opacity="1.000" /><rect x="5" y="5" width="1" height="1" fill="rgb(185,214,255)" fill-opacity="1.000" /><rect x="6" y="5" width="1" height="1" fill="rgb(143,185,244)" fill-opacity="1.000" /><rect x="6" y="8" width="1" height="1" fill="rgb(143,185,244)" fill-opacity="1.000" /><rect x="7" y="5" width="1" height="2" fill="rgb(80,130,206)" fill-opacity="1.000" /><rect x="8" y="5" width="1" height="1" fill="rgb(61,102,154)" fill-opacity="1.000" /><rect x="9" y="5" width="1" height="1" fill="rgb(143,185,244)" fill-opacity="1.000" /><rect x="9" y="8" width="1" height="1" fill="rgb(143,185,244)" fill-opacity="1.000" /><rect x="10" y="5" width="1" height="1" fill="rgb(111,155,219)" fill-opacity="1.000" /><rect x="11" y="5" width="1" height="1" fill="rgb(30,65,115)" fill-opacity="1.000" /><rect x="3" y="6" width="1" height="1" fill="rgb(61,102,154)" fill-opacity="1.000" /><rect x="4" y="6" width="1" height="2" fill="rgb(143,185,244)" fill-opacity="1.000" /><rect x="5" y="6" width="1" height="1" fill="rgb(80,130,206)" fill-opacity="1.000" /><rect x="5" y="8" width="1" height="1" fill="rgb(80,130,206)" fill-opacity="1.000" /><rect x="6" y="6" width="1" height="1" fill="rgb(111,155,219)" fill-opacity="1.000" /><rect x="8" y="6" width="1" height="1" fill="rgb(143,185,244)" fill-opacity="1.000" /><rect x="9" y="6" width="1" height="1" fill="rgb(185,214,255)" fill-opacity="1.000" /><rect x="10" y="6" width="1" height="1" fill="rgb(143,185,244)" fill-opacity="1.000" /><rect x="11" y="6" width="1" height="1" fill="rgb(80,130,206)" fill-opacity="1.000" /><rect x="12" y="6" width="1" height="1" fill="rgb(30,65,115)" fill-opacity="1.000" /><rect x="12" y="10" width="1" height="1" fill="rgb(30,65,115)" fill-opacity="1.000" /><rect x="2" y="7" width="1" height="3" fill="rgb(61,102,154)" fill-opacity="1.000" /><rect x="3" y="7" width="1" height="1" fill="rgb(185,214,255)" fill-opacity="1.000" /><rect x="5" y="7" width="1" height="1" fill="rgb(111,155,219)" fill-opacity="1.000" /><rect x="5" y="10" width="1" height="1" fill="rgb(111,155,219)" fill-opacity="1.000" /><rect x="6" y="7" width="1" height="1" fill="rgb(80,130,206)" fill-opacity="1.000" /><rect x="7" y="7" width="1" height="1" fill="rgb(143,185,244)" fill-opacity="1.000" /><rect x="7" y="10" width="1" height="1" fill="rgb(143,185,244)" fill-opacity="1.000" /><rect x="8" y="7" width="1" height="1" fill="rgb(130,172,231)" fill-opacity="1.000" /><rect x="9" y="7" width="2" height="1" fill="rgb(111,155,219)" fill-opacity="1.000" /><rect x="11" y="7" width="2" height="1" fill="rgb(80,130,206)" fill-opacity="1.000" /><rect x="13" y="7" width="1" height="3" fill="rgb(30,65,115)" fill-opacity="1.000" /><rect x="3" y="8" width="1" height="1" fill="rgb(143,185,244)" fill-opacity="1.000" /><rect x="4" y="8" width="1" height="2" fill="rgb(111,155,219)" fill-opacity="1.000" /><rect x="7" y="8" width="1" height="1" fill="rgb(130,172,231)" fill-opacity="1.000" /><rect x="8" y="8" width="1" height="1" fill="rgb(185,214,255)" fill-opacity="1.000" /><rect x="10" y="8" width="1" height="1" fill="rgb(80,130,206)" fill-opacity="1.000" /><rect x="11" y="8" width="1" height="1" fill="rgb(111,155,219)" fill-opacity="1.000" /><rect x="12" y="8" width="1" height="1" fill="rgb(80,130,206)" fill-opacity="1.000" /><rect x="3" y="9" width="1" height="1" fill="rgb(80,130,206)" fill-opacity="1.000" /><rect x="5" y="9" width="1" height="1" fill="rgb(143,185,244)" fill-opacity="1.000" /><rect x="6" y="9" width="1" height="1" fill="rgb(130,172,231)" fill-opacity="1.000" /><rect x="7" y="9" width="1" height="1" fill="rgb(111,155,219)" fill-opacity="1.000" /><rect x="8" y="9" width="1" height="1" fill="rgb(80,130,206)" fill-opacity="1.000" /><rect x="9" y="9" width="1" height="1" fill="rgb(111,155,219)" fill-opacity="1.000" /><rect x="10" y="9" width="3" height="1" fill="rgb(80,130,206)" fill-opacity="1.000" /><rect x="3" y="10" width="1" height="1" fill="rgb(30,65,115)" fill-opacity="1.000" /><rect x="4" y="10" width="1" height="1" fill="rgb(80,130,206)" fill-opacity="1.000" /><rect x="6" y="10" width="1" height="1" fill="rgb(185,214,255)" fill-opacity="1.000" /><rect x="8" y="10" width="1" height="1" fill="rgb(111,155,219)" fill-opacity="1.000" /><rect x="9" y="10" width="3" height="1" fill="rgb(80,130,206)" fill-opacity="1.000" /><rect x="4" y="11" width="2" height="1" fill="rgb(30,65,115)" fill-opacity="1.000" /><rect x="6" y="11" width="4" height="1" fill="rgb(80,130,206)" fill-opacity="1.000" /><rect x="10" y="11" width="2" height="1" fill="rgb(30,65,115)" fill-opacity="1.000" /><rect x="6" y="12" width="4" height="1" fill="rgb(30,65,115)" fill-opacity="1.000" /></svg>