<?xml version='1.0' encoding='utf-8'?>
<svg width="16" height="16" viewBox="0 0 16 16" xmlns="http://www.w3.org/2000/svg"> <rect x="9" y="0" width="2" height="1" fill="rgb(66,71,82)" fill-opacity="1.000" /><rect x="9" y="7" width="2" height="1" fill="rgb(66,71,82)" fill-opacity="1.000" /><rect x="8" y="1" width="1" height="1" fill="rgb(66,71,82)" fill-opacity="1.000" /><rect x="8" y="4" width="1" height="1" fill="rgb(66,71,82)" fill-opacity="1.000" /><rect x="9" y="1" width="1" height="1" fill="rgb(153,161,174)" fill-opacity="1.000" /><rect x="9" y="6" width="1" height="1" fill="rgb(153,161,174)" fill-opacity="1.000" /><rect x="10" y="1" width="1" height="1" fill="rgb(191,206,231)" fill-opacity="1.000" /><rect x="10" y="5" width="1" height="1" fill="rgb(191,206,231)" fill-opacity="1.000" /><rect x="11" y="1" width="1" height="1" fill="rgb(66,71,82)" fill-opacity="1.000" /><rect x="11" y="9" width="1" height="1" fill="rgb(66,71,82)" fill-opacity="1.000" /><rect x="13" y="1" width="1" height="1" fill="rgb(85,92,105)" fill-opacity="1.000" /><rect x="13" y="4" width="1" height="1" fill="rgb(85,92,105)" fill-opacity="1.000" /><rect x="14" y="1" width="1" height="1" fill="rgb(66,71,82)" fill-opacity="1.000" /><rect x="14" y="6" width="1" height="1" fill="rgb(66,71,82)" fill-opacity="1.000" /><rect x="7" y="2" width="1" height="1" fill="rgb(66,71,82)" fill-opacity="1.000" /><rect x="8" y="2" width="1" height="1" fill="rgb(153,161,174)" fill-opacity="1.000" /><rect x="9" y="2" width="1" height="1" fill="rgb(85,92,105)" fill-opacity="1.000" /><rect x="10" y="2" width="1" height="1" fill="rgb(153,161,174)" fill-opacity="1.000" /><rect x="10" y="4" width="1" height="1" fill="rgb(153,161,174)" fill-opacity="1.000" /><rect x="11" y="2" width="1" height="1" fill="rgb(191,206,231)" fill-opacity="1.000" /><rect x="11" y="4" width="1" height="1" fill="rgb(191,206,231)" fill-opacity="1.000" /><rect x="12" y="2" width="1" height="1" fill="rgb(30,34,41)" fill-opacity="1.000" /><rect x="12" y="6" width="1" height="1" fill="rgb(30,34,41)" fill-opacity="1.000" /><rect x="12" y="9" width="1" height="1" fill="rgb(30,34,41)" fill-opacity="1.000" /><rect x="13" y="2" width="1" height="1" fill="rgb(46,51,59)" fill-opacity="1.000" /><rect x="13" y="6" width="1" height="1" fill="rgb(46,51,59)" fill-opacity="1.000" /><rect x="14" y="2" width="1" height="1" fill="rgb(30,34,41)" fill-opacity="1.000" /><rect x="14" y="4" width="1" height="1" fill="rgb(30,34,41)" fill-opacity="1.000" /><rect x="14" y="7" width="1" height="1" fill="rgb(30,34,41)" fill-opacity="1.000" /><rect x="6" y="3" width="1" height="1" fill="rgb(66,71,82)" fill-opacity="1.000" /><rect x="6" y="6" width="1" height="1" fill="rgb(66,71,82)" fill-opacity="1.000" /><rect x="7" y="3" width="1" height="1" fill="rgb(153,161,174)" fill-opacity="1.000" /><rect x="8" y="3" width="1" height="1" fill="rgb(85,92,105)" fill-opacity="1.000" /><rect x="9" y="3" width="1" height="1" fill="rgb(46,51,59)" fill-opacity="1.000" /><rect x="9" y="8" width="1" height="1" fill="rgb(46,51,59)" fill-opacity="1.000" /><rect x="10" y="3" width="1" height="1" fill="rgb(124,132,145)" fill-opacity="1.000" /><rect x="11" y="3" width="1" height="1" fill="rgb(153,161,174)" fill-opacity="1.000" /><rect x="12" y="3" width="1" height="1" fill="rgb(191,206,231)" fill-opacity="1.000" /><rect x="13" y="3" width="1" height="1" fill="rgb(30,34,41)" fill-opacity="1.000" /><rect x="13" y="8" width="1" height="1" fill="rgb(30,34,41)" fill-opacity="1.000" /><rect x="5" y="4" width="1" height="2" fill="rgb(66,71,82)" fill-opacity="1.000" /><rect x="6" y="4" width="1" height="1" fill="rgb(153,161,174)" fill-opacity="1.000" /><rect x="7" y="4" width="1" height="1" fill="rgb(85,92,105)" fill-opacity="1.000" /><rect x="9" y="4" width="1" height="1" fill="rgb(124,132,145)" fill-opacity="1.000" /><rect x="12" y="4" width="1" height="1" fill="rgb(66,71,82)" fill-opacity="1.000" /><rect x="12" y="8" width="1" height="1" fill="rgb(66,71,82)" fill-opacity="1.000" /><rect x="6" y="5" width="1" height="1" fill="rgb(102,108,122)" fill-opacity="1.000" /><rect x="7" y="5" width="3" height="1" fill="rgb(124,132,145)" fill-opacity="1.000" /><rect x="11" y="5" width="3" height="1" fill="rgb(66,71,82)" fill-opacity="1.000" /><rect x="14" y="5" width="1" height="1" fill="rgb(85,92,105)" fill-opacity="1.000" /><rect x="15" y="5" width="1" height="2" fill="rgb(30,34,41)" fill-opacity="1.000" /><rect x="7" y="6" width="1" height="1" fill="rgb(102,108,122)" fill-opacity="1.000" /><rect x="8" y="6" width="1" height="1" fill="rgb(124,132,145)" fill-opacity="1.000" /><rect x="10" y="6" width="2" height="1" fill="rgb(66,71,82)" fill-opacity="1.000" /><rect x="7" y="7" width="1" height="1" fill="rgb(30,34,41)" fill-opacity="1.000" /><rect x="8" y="7" width="1" height="1" fill="rgb(102,108,122)" fill-opacity="1.000" /><rect x="11" y="7" width="1" height="1" fill="rgb(30,34,41)" fill-opacity="1.000" /><rect x="12" y="7" width="1" height="1" fill="rgb(46,51,59)" fill-opacity="1.000" /><rect x="13" y="7" width="1" height="1" fill="rgb(66,71,82)" fill-opacity="1.000" /><rect x="6" y="8" width="1" height="1" fill="rgb(80,99,144)" fill-opacity="1.000" /><rect x="7" y="8" width="1" height="1" fill="rgb(122,130,196)" fill-opacity="1.000" /><rect x="8" y="8" width="1" height="1" fill="rgb(30,34,41)" fill-opacity="1.000" /><rect x="10" y="8" width="1" height="1" fill="rgb(66,71,82)" fill-opacity="1.000" /><rect x="11" y="8" width="1" height="1" fill="rgb(46,51,59)" fill-opacity="1.000" /><rect x="5" y="9" width="1" height="1" fill="rgb(80,99,144)" fill-opacity="1.000" /><rect x="6" y="9" width="1" height="1" fill="rgb(122,130,196)" fill-opacity="1.000" /><rect x="7" y="9" width="1" height="1" fill="rgb(35,66,105)" fill-opacity="1.000" /><rect x="9" y="9" width="1" height="1" fill="rgb(30,34,41)" fill-opacity="1.000" /><rect x="10" y="9" width="1" height="1" fill="rgb(46,51,59)" fill-opacity="1.000" /><rect x="4" y="10" width="1" height="1" fill="rgb(80,99,144)" fill-opacity="1.000" /><rect x="5" y="10" width="1" height="1" fill="rgb(181,165,202)" fill-opacity="1.000" /><rect x="6" y="10" width="1" height="1" fill="rgb(35,66,105)" fill-opacity="1.000" /><rect x="10" y="10" width="2" height="1" fill="rgb(30,34,41)" fill-opacity="1.000" /><rect x="3" y="11" width="1" height="1" fill="rgb(80,99,144)" fill-opacity="1.000" /><rect x="4" y="11" width="1" height="1" fill="rgb(181,165,202)" fill-opacity="1.000" /><rect x="5" y="11" width="1" height="1" fill="rgb(35,66,105)" fill-opacity="1.000" /><rect x="2" y="12" width="1" height="1" fill="rgb(80,99,144)" fill-opacity="1.000" /><rect x="3" y="12" width="1" height="1" fill="rgb(181,165,202)" fill-opacity="1.000" /><rect x="4" y="12" width="1" height="1" fill="rgb(35,66,105)" fill-opacity="1.000" /><rect x="0" y="13" width="2" height="1" fill="rgb(66,71,82)" fill-opacity="1.000" /><rect x="2" y="13" width="1" height="1" fill="rgb(122,130,196)" fill-opacity="1.000" /><rect x="3" y="13" width="1" height="1" fill="rgb(35,66,105)" fill-opacity="1.000" /><rect x="0" y="14" width="1" height="1" fill="rgb(66,71,82)" fill-opacity="1.000" /><rect x="1" y="14" width="1" height="1" fill="rgb(102,108,122)" fill-opacity="1.000" /><rect x="2" y="14" width="1" height="1" fill="rgb(30,34,41)" fill-opacity="1.000" /><rect x="0" y="15" width="3" height="1" fill="rgb(30,34,41)" fill-opacity="1.000" /></svg>