<?xml version='1.0' encoding='utf-8'?>
<svg width="16" height="16" viewBox="0 0 16 16" xmlns="http://www.w3.org/2000/svg"> <rect x="6" y="2" width="4" height="1" fill="rgb(82,117,41)" fill-opacity="1.000" /><rect x="4" y="3" width="2" height="1" fill="rgb(82,117,41)" fill-opacity="1.000" /><rect x="6" y="3" width="1" height="1" fill="rgb(139,170,65)" fill-opacity="1.000" /><rect x="7" y="3" width="1" height="1" fill="rgb(164,198,74)" fill-opacity="1.000" /><rect x="8" y="3" width="1" height="1" fill="rgb(198,220,87)" fill-opacity="1.000" /><rect x="9" y="3" width="1" height="1" fill="rgb(164,198,74)" fill-opacity="1.000" /><rect x="10" y="3" width="1" height="1" fill="rgb(82,117,41)" fill-opacity="1.000" /><rect x="11" y="3" width="1" height="1" fill="rgb(97,24,26)" fill-opacity="1.000" /><rect x="3" y="4" width="2" height="1" fill="rgb(82,117,41)" fill-opacity="1.000" /><rect x="5" y="4" width="2" height="1" fill="rgb(244,233,78)" fill-opacity="1.000" /><rect x="5" y="7" width="2" height="1" fill="rgb(244,233,78)" fill-opacity="1.000" /><rect x="7" y="4" width="3" height="1" fill="rgb(198,220,87)" fill-opacity="1.000" /><rect x="10" y="4" width="1" height="1" fill="rgb(139,170,65)" fill-opacity="1.000" /><rect x="11" y="4" width="1" height="1" fill="rgb(82,117,41)" fill-opacity="1.000" /><rect x="12" y="4" width="1" height="2" fill="rgb(97,24,26)" fill-opacity="1.000" /><rect x="12" y="10" width="1" height="1" fill="rgb(97,24,26)" fill-opacity="1.000" /><rect x="3" y="5" width="1" height="1" fill="rgb(82,117,41)" fill-opacity="1.000" /><rect x="3" y="10" width="1" height="1" fill="rgb(82,117,41)" fill-opacity="1.000" /><rect x="4" y="5" width="1" height="1" fill="rgb(198,220,87)" fill-opacity="1.000" /><rect x="4" y="7" width="1" height="1" fill="rgb(198,220,87)" fill-opacity="1.000" /><rect x="5" y="5" width="2" height="2" fill="rgb(254,254,254)" fill-opacity="1.000" /><rect x="7" y="5" width="2" height="1" fill="rgb(244,233,78)" fill-opacity="1.000" /><rect x="9" y="5" width="2" height="1" fill="rgb(198,220,87)" fill-opacity="1.000" /><rect x="11" y="5" width="1" height="1" fill="rgb(230,203,47)" fill-opacity="1.000" /><rect x="2" y="6" width="1" height="4" fill="rgb(82,117,41)" fill-opacity="1.000" /><rect x="3" y="6" width="1" height="1" fill="rgb(139,170,65)" fill-opacity="1.000" /><rect x="4" y="6" width="1" height="1" fill="rgb(244,233,78)" fill-opacity="1.000" /><rect x="7" y="6" width="1" height="1" fill="rgb(244,233,78)" fill-opacity="1.000" /><rect x="7" y="8" width="1" height="1" fill="rgb(244,233,78)" fill-opacity="1.000" /><rect x="8" y="6" width="1" height="1" fill="rgb(234,167,39)" fill-opacity="1.000" /><rect x="8" y="8" width="1" height="1" fill="rgb(234,167,39)" fill-opacity="1.000" /><rect x="9" y="6" width="1" height="1" fill="rgb(198,220,87)" fill-opacity="1.000" /><rect x="10" y="6" width="1" height="1" fill="rgb(213,133,32)" fill-opacity="1.000" /><rect x="11" y="6" width="1" height="2" fill="rgb(189,64,24)" fill-opacity="1.000" /><rect x="11" y="10" width="1" height="1" fill="rgb(189,64,24)" fill-opacity="1.000" /><rect x="12" y="6" width="1" height="1" fill="rgb(180,24,58)" fill-opacity="1.000" /><rect x="12" y="9" width="1" height="1" fill="rgb(180,24,58)" fill-opacity="1.000" /><rect x="13" y="6" width="1" height="4" fill="rgb(97,24,26)" fill-opacity="1.000" /><rect x="3" y="7" width="1" height="1" fill="rgb(164,198,74)" fill-opacity="1.000" /><rect x="7" y="7" width="1" height="1" fill="rgb(198,220,87)" fill-opacity="1.000" /><rect x="8" y="7" width="1" height="1" fill="rgb(213,133,32)" fill-opacity="1.000" /><rect x="8" y="10" width="1" height="2" fill="rgb(213,133,32)" fill-opacity="1.000" /><rect x="9" y="7" width="1" height="1" fill="rgb(244,233,78)" fill-opacity="1.000" /><rect x="10" y="7" width="1" height="1" fill="rgb(230,203,47)" fill-opacity="1.000" /><rect x="12" y="7" width="1" height="1" fill="rgb(197,93,24)" fill-opacity="1.000" /><rect x="3" y="8" width="4" height="1" fill="rgb(198,220,87)" fill-opacity="1.000" /><rect x="9" y="8" width="1" height="1" fill="rgb(213,133,32)" fill-opacity="1.000" /><rect x="10" y="8" width="1" height="1" fill="rgb(189,64,24)" fill-opacity="1.000" /><rect x="11" y="8" width="1" height="1" fill="rgb(180,24,58)" fill-opacity="1.000" /><rect x="12" y="8" width="1" height="1" fill="rgb(189,64,24)" fill-opacity="1.000" /><rect x="3" y="9" width="1" height="1" fill="rgb(198,220,87)" fill-opacity="1.000" /><rect x="4" y="9" width="2" height="1" fill="rgb(244,233,78)" fill-opacity="1.000" /><rect x="6" y="9" width="1" height="1" fill="rgb(198,220,87)" fill-opacity="1.000" /><rect x="7" y="9" width="1" height="2" fill="rgb(234,167,39)" fill-opacity="1.000" /><rect x="8" y="9" width="1" height="1" fill="rgb(230,203,47)" fill-opacity="1.000" /><rect x="9" y="9" width="2" height="1" fill="rgb(213,133,32)" fill-opacity="1.000" /><rect x="11" y="9" width="1" height="1" fill="rgb(197,93,24)" fill-opacity="1.000" /><rect x="4" y="10" width="1" height="1" fill="rgb(230,203,47)" fill-opacity="1.000" /><rect x="5" y="10" width="1" height="1" fill="rgb(198,220,87)" fill-opacity="1.000" /><rect x="6" y="10" width="1" height="1" fill="rgb(230,203,47)" fill-opacity="1.000" /><rect x="9" y="10" width="1" height="1" fill="rgb(189,64,24)" fill-opacity="1.000" /><rect x="10" y="10" width="1" height="1" fill="rgb(197,93,24)" fill-opacity="1.000" /><rect x="3" y="11" width="1" height="1" fill="rgb(97,24,26)" fill-opacity="1.000" /><rect x="4" y="11" width="1" height="1" fill="rgb(82,117,41)" fill-opacity="1.000" /><rect x="5" y="11" width="2" height="1" fill="rgb(234,167,39)" fill-opacity="1.000" /><rect x="7" y="11" width="1" height="1" fill="rgb(189,64,24)" fill-opacity="1.000" /><rect x="9" y="11" width="1" height="1" fill="rgb(197,93,24)" fill-opacity="1.000" /><rect x="10" y="11" width="1" height="1" fill="rgb(180,24,58)" fill-opacity="1.000" /><rect x="11" y="11" width="2" height="1" fill="rgb(97,24,26)" fill-opacity="1.000" /><rect x="4" y="12" width="2" height="1" fill="rgb(97,24,26)" fill-opacity="1.000" /><rect x="6" y="12" width="1" height="1" fill="rgb(180,24,58)" fill-opacity="1.000" /><rect x="7" y="12" width="2" height="1" fill="rgb(197,93,24)" fill-opacity="1.000" /><rect x="9" y="12" width="1" height="1" fill="rgb(180,24,58)" fill-opacity="1.000" /><rect x="10" y="12" width="2" height="1" fill="rgb(97,24,26)" fill-opacity="1.000" /><rect x="6" y="13" width="4" height="1" fill="rgb(97,24,26)" fill-opacity="1.000" /></svg>