<?xml version='1.0' encoding='utf-8'?>
<svg width="16" height="16" viewBox="0 0 16 16" xmlns="http://www.w3.org/2000/svg"> <rect x="9" y="1" width="1" height="1" fill="rgb(115,198,118)" fill-opacity="1.000" /><rect x="10" y="1" width="1" height="1" fill="rgb(84,178,87)" fill-opacity="1.000" /><rect x="8" y="2" width="1" height="1" fill="rgb(115,198,118)" fill-opacity="1.000" /><rect x="9" y="2" width="1" height="1" fill="rgb(72,165,75)" fill-opacity="1.000" /><rect x="10" y="2" width="1" height="1" fill="rgb(72,130,56)" fill-opacity="1.000" /><rect x="5" y="3" width="1" height="1" fill="rgb(115,198,118)" fill-opacity="1.000" /><rect x="6" y="3" width="1" height="1" fill="rgb(84,178,87)" fill-opacity="1.000" /><rect x="6" y="8" width="1" height="1" fill="rgb(84,178,87)" fill-opacity="1.000" /><rect x="6" y="10" width="1" height="1" fill="rgb(84,178,87)" fill-opacity="1.000" /><rect x="8" y="3" width="1" height="1" fill="rgb(72,165,75)" fill-opacity="1.000" /><rect x="9" y="3" width="1" height="1" fill="rgb(72,130,56)" fill-opacity="1.000" /><rect x="4" y="4" width="1" height="1" fill="rgb(115,198,118)" fill-opacity="1.000" /><rect x="5" y="4" width="1" height="1" fill="rgb(72,130,56)" fill-opacity="1.000" /><rect x="6" y="4" width="1" height="1" fill="rgb(72,165,75)" fill-opacity="1.000" /><rect x="7" y="4" width="1" height="1" fill="rgb(127,191,86)" fill-opacity="1.000" /><rect x="7" y="11" width="1" height="1" fill="rgb(127,191,86)" fill-opacity="1.000" /><rect x="7" y="14" width="1" height="1" fill="rgb(127,191,86)" fill-opacity="1.000" /><rect x="7" y="5" width="1" height="1" fill="rgb(130,145,74)" fill-opacity="1.000" /><rect x="7" y="15" width="1" height="1" fill="rgb(130,145,74)" fill-opacity="1.000" /><rect x="7" y="6" width="1" height="1" fill="rgb(116,130,65)" fill-opacity="1.000" /><rect x="6" y="7" width="1" height="1" fill="rgb(79,195,83)" fill-opacity="1.000" /><rect x="6" y="9" width="1" height="1" fill="rgb(79,195,83)" fill-opacity="1.000" /><rect x="6" y="11" width="1" height="1" fill="rgb(79,195,83)" fill-opacity="1.000" /><rect x="7" y="7" width="1" height="1" fill="rgb(84,178,87)" fill-opacity="1.000" /><rect x="7" y="9" width="1" height="1" fill="rgb(84,178,87)" fill-opacity="1.000" /><rect x="8" y="7" width="1" height="1" fill="rgb(79,195,83)" fill-opacity="1.000" /><rect x="8" y="9" width="1" height="1" fill="rgb(79,195,83)" fill-opacity="1.000" /><rect x="8" y="11" width="1" height="1" fill="rgb(79,195,83)" fill-opacity="1.000" /><rect x="7" y="8" width="1" height="1" fill="rgb(72,165,75)" fill-opacity="1.000" /><rect x="8" y="8" width="1" height="1" fill="rgb(84,178,87)" fill-opacity="1.000" /><rect x="8" y="10" width="1" height="1" fill="rgb(84,178,87)" fill-opacity="1.000" /><rect x="7" y="10" width="1" height="1" fill="rgb(79,195,83)" fill-opacity="1.000" /><rect x="7" y="12" width="1" height="1" fill="rgb(79,195,83)" fill-opacity="1.000" /><rect x="6" y="12" width="1" height="1" fill="rgb(92,209,96)" fill-opacity="1.000" /><rect x="8" y="12" width="1" height="1" fill="rgb(92,209,96)" fill-opacity="1.000" /><rect x="6" y="13" width="1" height="1" fill="rgb(127,191,86)" fill-opacity="1.000" /><rect x="7" y="13" width="1" height="1" fill="rgb(92,209,96)" fill-opacity="1.000" /><rect x="8" y="13" width="1" height="1" fill="rgb(127,191,86)" fill-opacity="1.000" /><rect x="6" y="14" width="1" height="1" fill="rgb(130,145,74)" fill-opacity="1.000" /><rect x="8" y="14" width="1" height="1" fill="rgb(130,145,74)" fill-opacity="1.000" /><rect x="6" y="15" width="1" height="1" fill="rgb(116,130,65)" fill-opacity="1.000" /><rect x="8" y="15" width="1" height="1" fill="rgb(116,130,65)" fill-opacity="1.000" /></svg>