<?xml version='1.0' encoding='utf-8'?>
<svg width="16" height="16" viewBox="0 0 16 16" xmlns="http://www.w3.org/2000/svg"> <rect x="5" y="3" width="5" height="1" fill="rgb(71,37,29)" fill-opacity="1.000" /><rect x="2" y="4" width="3" height="1" fill="rgb(71,37,29)" fill-opacity="1.000" /><rect x="5" y="4" width="5" height="1" fill="rgb(117,66,54)" fill-opacity="1.000" /><rect x="5" y="10" width="5" height="1" fill="rgb(117,66,54)" fill-opacity="1.000" /><rect x="10" y="4" width="3" height="1" fill="rgb(71,37,29)" fill-opacity="1.000" /><rect x="1" y="5" width="1" height="1" fill="rgb(71,37,29)" fill-opacity="1.000" /><rect x="2" y="5" width="4" height="1" fill="rgb(117,66,54)" fill-opacity="1.000" /><rect x="6" y="5" width="1" height="1" fill="rgb(144,80,65)" fill-opacity="1.000" /><rect x="7" y="5" width="1" height="1" fill="rgb(117,66,54)" fill-opacity="1.000" /><rect x="7" y="9" width="1" height="1" fill="rgb(117,66,54)" fill-opacity="1.000" /><rect x="8" y="5" width="2" height="1" fill="rgb(144,80,65)" fill-opacity="1.000" /><rect x="10" y="5" width="3" height="1" fill="rgb(117,66,54)" fill-opacity="1.000" /><rect x="13" y="5" width="1" height="1" fill="rgb(71,37,29)" fill-opacity="1.000" /><rect x="0" y="6" width="1" height="4" fill="rgb(71,37,29)" fill-opacity="1.000" /><rect x="1" y="6" width="2" height="1" fill="rgb(117,66,54)" fill-opacity="1.000" /><rect x="1" y="8" width="2" height="1" fill="rgb(117,66,54)" fill-opacity="1.000" /><rect x="3" y="6" width="2" height="1" fill="rgb(144,80,65)" fill-opacity="1.000" /><rect x="5" y="6" width="1" height="1" fill="rgb(118,119,113)" fill-opacity="1.000" /><rect x="5" y="8" width="1" height="1" fill="rgb(118,119,113)" fill-opacity="1.000" /><rect x="6" y="6" width="3" height="1" fill="rgb(136,230,255)" fill-opacity="1.000" /><rect x="9" y="6" width="1" height="1" fill="rgb(118,119,113)" fill-opacity="1.000" /><rect x="9" y="8" width="1" height="1" fill="rgb(118,119,113)" fill-opacity="1.000" /><rect x="10" y="6" width="1" height="1" fill="rgb(117,66,54)" fill-opacity="1.000" /><rect x="11" y="6" width="1" height="1" fill="rgb(144,80,65)" fill-opacity="1.000" /><rect x="12" y="6" width="2" height="1" fill="rgb(117,66,54)" fill-opacity="1.000" /><rect x="12" y="8" width="2" height="1" fill="rgb(117,66,54)" fill-opacity="1.000" /><rect x="14" y="6" width="1" height="4" fill="rgb(71,37,29)" fill-opacity="1.000" /><rect x="1" y="7" width="1" height="1" fill="rgb(117,66,54)" fill-opacity="1.000" /><rect x="2" y="7" width="1" height="1" fill="rgb(144,80,65)" fill-opacity="1.000" /><rect x="3" y="7" width="2" height="1" fill="rgb(117,66,54)" fill-opacity="1.000" /><rect x="5" y="7" width="1" height="1" fill="rgb(136,230,255)" fill-opacity="1.000" /><rect x="6" y="7" width="1" height="1" fill="rgb(31,123,214)" fill-opacity="1.000" /><rect x="7" y="7" width="1" height="1" fill="rgb(94,55,47)" fill-opacity="1.000" /><rect x="8" y="7" width="1" height="1" fill="rgb(31,123,214)" fill-opacity="1.000" /><rect x="9" y="7" width="1" height="1" fill="rgb(49,174,254)" fill-opacity="1.000" /><rect x="10" y="7" width="2" height="1" fill="rgb(117,66,54)" fill-opacity="1.000" /><rect x="12" y="7" width="1" height="1" fill="rgb(144,80,65)" fill-opacity="1.000" /><rect x="13" y="7" width="1" height="1" fill="rgb(117,66,54)" fill-opacity="1.000" /><rect x="3" y="8" width="1" height="1" fill="rgb(144,80,65)" fill-opacity="1.000" /><rect x="4" y="8" width="1" height="1" fill="rgb(117,66,54)" fill-opacity="1.000" /><rect x="6" y="8" width="1" height="1" fill="rgb(49,174,254)" fill-opacity="1.000" /><rect x="7" y="8" width="1" height="1" fill="rgb(136,230,255)" fill-opacity="1.000" /><rect x="8" y="8" width="1" height="1" fill="rgb(49,174,254)" fill-opacity="1.000" /><rect x="10" y="8" width="2" height="1" fill="rgb(144,80,65)" fill-opacity="1.000" /><rect x="1" y="9" width="1" height="1" fill="rgb(149,90,68)" fill-opacity="1.000" /><rect x="2" y="9" width="3" height="1" fill="rgb(117,66,54)" fill-opacity="1.000" /><rect x="5" y="9" width="2" height="1" fill="rgb(144,80,65)" fill-opacity="1.000" /><rect x="8" y="9" width="1" height="1" fill="rgb(144,80,65)" fill-opacity="1.000" /><rect x="9" y="9" width="4" height="1" fill="rgb(117,66,54)" fill-opacity="1.000" /><rect x="13" y="9" width="1" height="1" fill="rgb(149,90,68)" fill-opacity="1.000" /><rect x="1" y="10" width="1" height="1" fill="rgb(51,26,21)" fill-opacity="1.000" /><rect x="2" y="10" width="1" height="1" fill="rgb(149,90,68)" fill-opacity="1.000" /><rect x="3" y="10" width="1" height="1" fill="rgb(159,101,71)" fill-opacity="1.000" /><rect x="4" y="10" width="1" height="1" fill="rgb(171,113,75)" fill-opacity="1.000" /><rect x="10" y="10" width="1" height="1" fill="rgb(171,113,75)" fill-opacity="1.000" /><rect x="11" y="10" width="1" height="1" fill="rgb(159,101,71)" fill-opacity="1.000" /><rect x="12" y="10" width="1" height="1" fill="rgb(149,90,68)" fill-opacity="1.000" /><rect x="13" y="10" width="1" height="1" fill="rgb(51,26,21)" fill-opacity="1.000" /><rect x="2" y="11" width="3" height="1" fill="rgb(51,26,21)" fill-opacity="1.000" /><rect x="5" y="11" width="1" height="1" fill="rgb(171,113,75)" fill-opacity="1.000" /><rect x="6" y="11" width="2" height="1" fill="rgb(185,128,83)" fill-opacity="1.000" /><rect x="8" y="11" width="2" height="1" fill="rgb(171,113,75)" fill-opacity="1.000" /><rect x="10" y="11" width="3" height="1" fill="rgb(51,26,21)" fill-opacity="1.000" /><rect x="5" y="12" width="5" height="1" fill="rgb(51,26,21)" fill-opacity="1.000" /></svg>