<?xml version='1.0' encoding='utf-8'?>
<svg width="16" height="16" viewBox="0 0 16 16" xmlns="http://www.w3.org/2000/svg"> <rect x="11" y="1" width="2" height="1" fill="rgb(150,33,27)" fill-opacity="1.000" /><rect x="10" y="2" width="1" height="2" fill="rgb(173,51,46)" fill-opacity="1.000" /><rect x="11" y="2" width="1" height="2" fill="rgb(226,98,90)" fill-opacity="1.000" /><rect x="12" y="2" width="1" height="1" fill="rgb(188,41,34)" fill-opacity="1.000" /><rect x="12" y="5" width="1" height="2" fill="rgb(188,41,34)" fill-opacity="1.000" /><rect x="13" y="2" width="1" height="3" fill="rgb(150,33,27)" fill-opacity="1.000" /><rect x="12" y="3" width="1" height="2" fill="rgb(209,46,38)" fill-opacity="1.000" /><rect x="9" y="4" width="1" height="2" fill="rgb(173,51,46)" fill-opacity="1.000" /><rect x="10" y="4" width="1" height="1" fill="rgb(226,98,90)" fill-opacity="1.000" /><rect x="11" y="4" width="1" height="1" fill="rgb(226,114,105)" fill-opacity="1.000" /><rect x="11" y="7" width="1" height="2" fill="rgb(226,114,105)" fill-opacity="1.000" /><rect x="10" y="5" width="1" height="1" fill="rgb(226,114,105)" fill-opacity="1.000" /><rect x="11" y="5" width="1" height="2" fill="rgb(232,138,130)" fill-opacity="1.000" /><rect x="13" y="5" width="1" height="3" fill="rgb(71,10,6)" fill-opacity="1.000" /><rect x="8" y="6" width="1" height="1" fill="rgb(173,51,46)" fill-opacity="1.000" /><rect x="9" y="6" width="1" height="1" fill="rgb(232,138,130)" fill-opacity="1.000" /><rect x="9" y="9" width="1" height="1" fill="rgb(232,138,130)" fill-opacity="1.000" /><rect x="10" y="6" width="1" height="1" fill="rgb(221,56,48)" fill-opacity="1.000" /><rect x="10" y="8" width="1" height="1" fill="rgb(221,56,48)" fill-opacity="1.000" /><rect x="7" y="7" width="1" height="1" fill="rgb(173,51,46)" fill-opacity="1.000" /><rect x="8" y="7" width="1" height="2" fill="rgb(232,138,130)" fill-opacity="1.000" /><rect x="9" y="7" width="1" height="1" fill="rgb(221,56,48)" fill-opacity="1.000" /><rect x="9" y="11" width="1" height="1" fill="rgb(221,56,48)" fill-opacity="1.000" /><rect x="10" y="7" width="1" height="1" fill="rgb(209,46,38)" fill-opacity="1.000" /><rect x="10" y="12" width="1" height="1" fill="rgb(209,46,38)" fill-opacity="1.000" /><rect x="12" y="7" width="1" height="3" fill="rgb(150,33,27)" fill-opacity="1.000" /><rect x="5" y="8" width="2" height="1" fill="rgb(173,51,46)" fill-opacity="1.000" /><rect x="7" y="8" width="1" height="2" fill="rgb(226,98,90)" fill-opacity="1.000" /><rect x="9" y="8" width="1" height="1" fill="rgb(226,114,105)" fill-opacity="1.000" /><rect x="4" y="9" width="1" height="1" fill="rgb(173,51,46)" fill-opacity="1.000" /><rect x="5" y="9" width="2" height="1" fill="rgb(232,138,130)" fill-opacity="1.000" /><rect x="8" y="9" width="1" height="1" fill="rgb(221,56,48)" fill-opacity="1.000" /><rect x="8" y="12" width="1" height="1" fill="rgb(221,56,48)" fill-opacity="1.000" /><rect x="10" y="9" width="2" height="1" fill="rgb(226,98,90)" fill-opacity="1.000" /><rect x="3" y="10" width="1" height="1" fill="rgb(173,51,46)" fill-opacity="1.000" /><rect x="4" y="10" width="1" height="1" fill="rgb(232,138,130)" fill-opacity="1.000" /><rect x="5" y="10" width="1" height="1" fill="rgb(226,98,90)" fill-opacity="1.000" /><rect x="6" y="10" width="3" height="1" fill="rgb(209,46,38)" fill-opacity="1.000" /><rect x="9" y="10" width="1" height="1" fill="rgb(226,98,90)" fill-opacity="1.000" /><rect x="9" y="12" width="1" height="1" fill="rgb(226,98,90)" fill-opacity="1.000" /><rect x="10" y="10" width="1" height="2" fill="rgb(232,138,130)" fill-opacity="1.000" /><rect x="11" y="10" width="1" height="1" fill="rgb(188,41,34)" fill-opacity="1.000" /><rect x="12" y="10" width="1" height="2" fill="rgb(71,10,6)" fill-opacity="1.000" /><rect x="2" y="11" width="1" height="2" fill="rgb(173,51,46)" fill-opacity="1.000" /><rect x="3" y="11" width="1" height="2" fill="rgb(232,138,130)" fill-opacity="1.000" /><rect x="4" y="11" width="1" height="1" fill="rgb(221,56,48)" fill-opacity="1.000" /><rect x="5" y="11" width="4" height="1" fill="rgb(209,46,38)" fill-opacity="1.000" /><rect x="11" y="11" width="1" height="2" fill="rgb(150,33,27)" fill-opacity="1.000" /><rect x="4" y="12" width="1" height="2" fill="rgb(226,98,90)" fill-opacity="1.000" /><rect x="5" y="12" width="1" height="1" fill="rgb(221,56,48)" fill-opacity="1.000" /><rect x="6" y="12" width="2" height="1" fill="rgb(209,46,38)" fill-opacity="1.000" /><rect x="2" y="13" width="1" height="1" fill="rgb(150,33,27)" fill-opacity="1.000" /><rect x="3" y="13" width="1" height="1" fill="rgb(188,41,34)" fill-opacity="1.000" /><rect x="5" y="13" width="1" height="1" fill="rgb(226,114,105)" fill-opacity="1.000" /><rect x="6" y="13" width="2" height="1" fill="rgb(232,138,130)" fill-opacity="1.000" /><rect x="8" y="13" width="1" height="1" fill="rgb(226,114,105)" fill-opacity="1.000" /><rect x="9" y="13" width="1" height="1" fill="rgb(188,41,34)" fill-opacity="1.000" /><rect x="10" y="13" width="1" height="1" fill="rgb(150,33,27)" fill-opacity="1.000" /><rect x="11" y="13" width="1" height="1" fill="rgb(71,10,6)" fill-opacity="1.000" /><rect x="2" y="14" width="1" height="1" fill="rgb(71,10,6)" fill-opacity="1.000" /><rect x="3" y="14" width="6" height="1" fill="rgb(150,33,27)" fill-opacity="1.000" /><rect x="9" y="14" width="2" height="1" fill="rgb(71,10,6)" fill-opacity="1.000" /><rect x="3" y="15" width="6" height="1" fill="rgb(71,10,6)" fill-opacity="1.000" /></svg>