<?xml version='1.0' encoding='utf-8'?>
<svg width="16" height="16" viewBox="0 0 16 16" xmlns="http://www.w3.org/2000/svg"> <rect x="5" y="1" width="5" height="1" fill="rgb(166,132,106)" fill-opacity="1.000" /><rect x="3" y="2" width="2" height="1" fill="rgb(166,132,106)" fill-opacity="1.000" /><rect x="5" y="2" width="1" height="1" fill="rgb(186,173,150)" fill-opacity="1.000" /><rect x="5" y="7" width="1" height="1" fill="rgb(186,173,150)" fill-opacity="1.000" /><rect x="6" y="2" width="1" height="1" fill="rgb(202,117,72)" fill-opacity="1.000" /><rect x="7" y="2" width="1" height="1" fill="rgb(212,128,128)" fill-opacity="1.000" /><rect x="8" y="2" width="2" height="1" fill="rgb(212,204,195)" fill-opacity="1.000" /><rect x="10" y="2" width="2" height="1" fill="rgb(166,132,106)" fill-opacity="1.000" /><rect x="2" y="3" width="1" height="1" fill="rgb(166,132,106)" fill-opacity="1.000" /><rect x="3" y="3" width="1" height="1" fill="rgb(186,173,150)" fill-opacity="1.000" /><rect x="3" y="9" width="1" height="1" fill="rgb(186,173,150)" fill-opacity="1.000" /><rect x="4" y="3" width="4" height="1" fill="rgb(212,204,195)" fill-opacity="1.000" /><rect x="8" y="3" width="1" height="1" fill="rgb(212,128,128)" fill-opacity="1.000" /><rect x="8" y="11" width="1" height="1" fill="rgb(212,128,128)" fill-opacity="1.000" /><rect x="9" y="3" width="2" height="1" fill="rgb(212,204,195)" fill-opacity="1.000" /><rect x="11" y="3" width="1" height="1" fill="rgb(186,173,150)" fill-opacity="1.000" /><rect x="12" y="3" width="1" height="1" fill="rgb(166,132,106)" fill-opacity="1.000" /><rect x="12" y="10" width="1" height="1" fill="rgb(166,132,106)" fill-opacity="1.000" /><rect x="1" y="4" width="1" height="3" fill="rgb(166,132,106)" fill-opacity="1.000" /><rect x="2" y="4" width="1" height="1" fill="rgb(186,173,150)" fill-opacity="1.000" /><rect x="2" y="8" width="1" height="1" fill="rgb(186,173,150)" fill-opacity="1.000" /><rect x="3" y="4" width="1" height="1" fill="rgb(212,128,128)" fill-opacity="1.000" /><rect x="4" y="4" width="3" height="1" fill="rgb(212,204,195)" fill-opacity="1.000" /><rect x="7" y="4" width="1" height="1" fill="rgb(186,173,150)" fill-opacity="1.000" /><rect x="7" y="6" width="1" height="1" fill="rgb(186,173,150)" fill-opacity="1.000" /><rect x="8" y="4" width="2" height="1" fill="rgb(166,132,106)" fill-opacity="1.000" /><rect x="8" y="9" width="2" height="1" fill="rgb(166,132,106)" fill-opacity="1.000" /><rect x="8" y="13" width="2" height="1" fill="rgb(166,132,106)" fill-opacity="1.000" /><rect x="10" y="4" width="1" height="1" fill="rgb(186,173,150)" fill-opacity="1.000" /><rect x="10" y="6" width="1" height="1" fill="rgb(186,173,150)" fill-opacity="1.000" /><rect x="10" y="10" width="1" height="2" fill="rgb(186,173,150)" fill-opacity="1.000" /><rect x="11" y="4" width="1" height="1" fill="rgb(202,117,72)" fill-opacity="1.000" /><rect x="12" y="4" width="1" height="1" fill="rgb(174,70,53)" fill-opacity="1.000" /><rect x="12" y="7" width="1" height="1" fill="rgb(174,70,53)" fill-opacity="1.000" /><rect x="13" y="4" width="1" height="1" fill="rgb(166,132,106)" fill-opacity="1.000" /><rect x="13" y="6" width="1" height="2" fill="rgb(166,132,106)" fill-opacity="1.000" /><rect x="13" y="9" width="1" height="1" fill="rgb(166,132,106)" fill-opacity="1.000" /><rect x="2" y="5" width="2" height="1" fill="rgb(212,204,195)" fill-opacity="1.000" /><rect x="4" y="5" width="1" height="1" fill="rgb(212,128,128)" fill-opacity="1.000" /><rect x="5" y="5" width="1" height="1" fill="rgb(202,117,72)" fill-opacity="1.000" /><rect x="6" y="5" width="1" height="1" fill="rgb(186,173,150)" fill-opacity="1.000" /><rect x="7" y="5" width="1" height="1" fill="rgb(166,132,106)" fill-opacity="1.000" /><rect x="8" y="5" width="2" height="1" fill="rgb(186,173,150)" fill-opacity="1.000" /><rect x="10" y="5" width="1" height="1" fill="rgb(166,132,106)" fill-opacity="1.000" /><rect x="10" y="7" width="1" height="1" fill="rgb(166,132,106)" fill-opacity="1.000" /><rect x="10" y="12" width="1" height="1" fill="rgb(166,132,106)" fill-opacity="1.000" /><rect x="11" y="5" width="2" height="1" fill="rgb(186,173,150)" fill-opacity="1.000" /><rect x="11" y="9" width="2" height="1" fill="rgb(186,173,150)" fill-opacity="1.000" /><rect x="13" y="5" width="1" height="1" fill="rgb(109,83,63)" fill-opacity="1.000" /><rect x="13" y="10" width="1" height="2" fill="rgb(109,83,63)" fill-opacity="1.000" /><rect x="2" y="6" width="4" height="1" fill="rgb(212,204,195)" fill-opacity="1.000" /><rect x="6" y="6" width="1" height="1" fill="rgb(166,132,106)" fill-opacity="1.000" /><rect x="6" y="8" width="1" height="1" fill="rgb(166,132,106)" fill-opacity="1.000" /><rect x="8" y="6" width="1" height="1" fill="rgb(109,83,63)" fill-opacity="1.000" /><rect x="8" y="8" width="1" height="1" fill="rgb(109,83,63)" fill-opacity="1.000" /><rect x="9" y="6" width="1" height="1" fill="rgb(138,106,83)" fill-opacity="1.000" /><rect x="11" y="6" width="1" height="1" fill="rgb(166,132,106)" fill-opacity="1.000" /><rect x="11" y="11" width="1" height="1" fill="rgb(166,132,106)" fill-opacity="1.000" /><rect x="12" y="6" width="1" height="1" fill="rgb(186,173,150)" fill-opacity="1.000" /><rect x="12" y="8" width="1" height="1" fill="rgb(186,173,150)" fill-opacity="1.000" /><rect x="14" y="6" width="1" height="4" fill="rgb(109,83,63)" fill-opacity="1.000" /><rect x="1" y="7" width="1" height="2" fill="rgb(138,106,83)" fill-opacity="1.000" /><rect x="2" y="7" width="1" height="1" fill="rgb(212,128,128)" fill-opacity="1.000" /><rect x="3" y="7" width="2" height="1" fill="rgb(212,204,195)" fill-opacity="1.000" /><rect x="6" y="7" width="1" height="1" fill="rgb(138,106,83)" fill-opacity="1.000" /><rect x="6" y="13" width="1" height="1" fill="rgb(138,106,83)" fill-opacity="1.000" /><rect x="7" y="7" width="2" height="1" fill="rgb(186,173,150)" fill-opacity="1.000" /><rect x="9" y="7" width="1" height="1" fill="rgb(109,83,63)" fill-opacity="1.000" /><rect x="11" y="7" width="1" height="2" fill="rgb(138,106,83)" fill-opacity="1.000" /><rect x="11" y="12" width="1" height="1" fill="rgb(138,106,83)" fill-opacity="1.000" /><rect x="3" y="8" width="2" height="1" fill="rgb(202,117,72)" fill-opacity="1.000" /><rect x="5" y="8" width="1" height="1" fill="rgb(174,70,53)" fill-opacity="1.000" /><rect x="7" y="8" width="1" height="1" fill="rgb(138,106,83)" fill-opacity="1.000" /><rect x="9" y="8" width="2" height="1" fill="rgb(166,132,106)" fill-opacity="1.000" /><rect x="13" y="8" width="1" height="1" fill="rgb(128,65,31)" fill-opacity="1.000" /><rect x="1" y="9" width="1" height="1" fill="rgb(109,83,63)" fill-opacity="1.000" /><rect x="2" y="9" width="1" height="1" fill="rgb(138,106,83)" fill-opacity="1.000" /><rect x="4" y="9" width="2" height="1" fill="rgb(212,204,195)" fill-opacity="1.000" /><rect x="6" y="9" width="2" height="1" fill="rgb(186,173,150)" fill-opacity="1.000" /><rect x="10" y="9" width="1" height="1" fill="rgb(138,106,83)" fill-opacity="1.000" /><rect x="2" y="10" width="1" height="1" fill="rgb(109,83,63)" fill-opacity="1.000" /><rect x="2" y="12" width="1" height="2" fill="rgb(109,83,63)" fill-opacity="1.000" /><rect x="3" y="10" width="1" height="1" fill="rgb(138,106,83)" fill-opacity="1.000" /><rect x="3" y="13" width="1" height="1" fill="rgb(138,106,83)" fill-opacity="1.000" /><rect x="4" y="10" width="1" height="1" fill="rgb(166,132,106)" fill-opacity="1.000" /><rect x="5" y="10" width="2" height="1" fill="rgb(186,173,150)" fill-opacity="1.000" /><rect x="7" y="10" width="3" height="1" fill="rgb(138,106,83)" fill-opacity="1.000" /><rect x="11" y="10" width="1" height="1" fill="rgb(174,70,53)" fill-opacity="1.000" /><rect x="3" y="11" width="1" height="1" fill="rgb(109,83,63)" fill-opacity="1.000" /><rect x="3" y="14" width="1" height="1" fill="rgb(109,83,63)" fill-opacity="1.000" /><rect x="4" y="11" width="3" height="1" fill="rgb(65,60,45)" fill-opacity="1.000" /><rect x="7" y="11" width="1" height="2" fill="rgb(212,204,195)" fill-opacity="1.000" /><rect x="9" y="11" width="1" height="1" fill="rgb(212,204,195)" fill-opacity="1.000" /><rect x="12" y="11" width="1" height="1" fill="rgb(128,65,31)" fill-opacity="1.000" /><rect x="3" y="12" width="3" height="1" fill="rgb(65,60,45)" fill-opacity="1.000" /><rect x="6" y="12" width="1" height="1" fill="rgb(109,83,63)" fill-opacity="1.000" /><rect x="8" y="12" width="1" height="1" fill="rgb(202,117,72)" fill-opacity="1.000" /><rect x="9" y="12" width="1" height="1" fill="rgb(186,173,150)" fill-opacity="1.000" /><rect x="12" y="12" width="1" height="1" fill="rgb(109,83,63)" fill-opacity="1.000" /><rect x="4" y="13" width="2" height="1" fill="rgb(109,83,63)" fill-opacity="1.000" /><rect x="7" y="13" width="1" height="1" fill="rgb(174,70,53)" fill-opacity="1.000" /><rect x="10" y="13" width="2" height="1" fill="rgb(109,83,63)" fill-opacity="1.000" /><rect x="4" y="14" width="2" height="1" fill="rgb(166,132,106)" fill-opacity="1.000" /><rect x="6" y="14" width="4" height="1" fill="rgb(109,83,63)" fill-opacity="1.000" /></svg>