<?xml version='1.0' encoding='utf-8'?>
<svg width="16" height="16" viewBox="0 0 16 16" xmlns="http://www.w3.org/2000/svg"> <rect x="7" y="5" width="1" height="3" fill="rgb(20,180,133)" fill-opacity="1.000" /><rect x="2" y="6" width="1" height="3" fill="rgb(17,155,133)" fill-opacity="1.000" /><rect x="4" y="6" width="1" height="2" fill="rgb(20,180,133)" fill-opacity="1.000" /><rect x="9" y="6" width="1" height="2" fill="rgb(17,155,133)" fill-opacity="1.000" /><rect x="12" y="6" width="1" height="3" fill="rgb(20,180,133)" fill-opacity="1.000" /><rect x="5" y="7" width="1" height="1" fill="rgb(17,155,133)" fill-opacity="1.000" /><rect x="11" y="7" width="1" height="1" fill="rgb(17,155,133)" fill-opacity="1.000" /><rect x="1" y="8" width="1" height="1" fill="rgb(22,126,134)" fill-opacity="1.000" /><rect x="4" y="8" width="1" height="2" fill="rgb(17,155,133)" fill-opacity="1.000" /><rect x="5" y="8" width="1" height="2" fill="rgb(22,126,134)" fill-opacity="1.000" /><rect x="7" y="8" width="1" height="1" fill="rgb(17,155,133)" fill-opacity="1.000" /><rect x="9" y="8" width="1" height="2" fill="rgb(22,126,134)" fill-opacity="1.000" /><rect x="11" y="8" width="1" height="2" fill="rgb(22,126,134)" fill-opacity="1.000" /><rect x="14" y="8" width="1" height="1" fill="rgb(17,155,133)" fill-opacity="1.000" /><rect x="1" y="9" width="2" height="1" fill="rgb(22,126,134)" fill-opacity="1.000" /><rect x="7" y="9" width="1" height="1" fill="rgb(22,126,134)" fill-opacity="1.000" /><rect x="12" y="9" width="1" height="1" fill="rgb(17,155,133)" fill-opacity="1.000" /><rect x="14" y="9" width="1" height="1" fill="rgb(22,126,134)" fill-opacity="1.000" /></svg>