<?xml version='1.0' encoding='utf-8'?>
<svg width="16" height="16" viewBox="0 0 16 16" xmlns="http://www.w3.org/2000/svg"> <rect x="4" y="1" width="9" height="1" fill="rgb(101,40,40)" fill-opacity="1.000" /><rect x="3" y="2" width="1" height="2" fill="rgb(101,40,40)" fill-opacity="1.000" /><rect x="4" y="2" width="1" height="1" fill="rgb(114,50,50)" fill-opacity="1.000" /><rect x="4" y="6" width="1" height="1" fill="rgb(114,50,50)" fill-opacity="1.000" /><rect x="4" y="8" width="1" height="1" fill="rgb(114,50,50)" fill-opacity="1.000" /><rect x="5" y="2" width="6" height="1" fill="rgb(133,66,66)" fill-opacity="1.000" /><rect x="11" y="2" width="1" height="1" fill="rgb(114,50,50)" fill-opacity="1.000" /><rect x="12" y="2" width="1" height="1" fill="rgb(133,66,66)" fill-opacity="1.000" /><rect x="13" y="2" width="1" height="1" fill="rgb(101,40,40)" fill-opacity="1.000" /><rect x="4" y="3" width="3" height="1" fill="rgb(133,66,66)" fill-opacity="1.000" /><rect x="7" y="3" width="1" height="1" fill="rgb(114,50,50)" fill-opacity="1.000" /><rect x="8" y="3" width="1" height="1" fill="rgb(133,66,66)" fill-opacity="1.000" /><rect x="9" y="3" width="4" height="1" fill="rgb(114,50,50)" fill-opacity="1.000" /><rect x="13" y="3" width="1" height="10" fill="rgb(52,14,14)" fill-opacity="1.000" /><rect x="3" y="4" width="1" height="9" fill="rgb(52,14,14)" fill-opacity="1.000" /><rect x="4" y="4" width="4" height="1" fill="rgb(114,50,50)" fill-opacity="1.000" /><rect x="8" y="4" width="1" height="1" fill="rgb(81,21,21)" fill-opacity="1.000" /><rect x="9" y="4" width="1" height="1" fill="rgb(101,40,40)" fill-opacity="1.000" /><rect x="10" y="4" width="3" height="1" fill="rgb(114,50,50)" fill-opacity="1.000" /><rect x="4" y="5" width="2" height="1" fill="rgb(114,50,50)" fill-opacity="1.000" /><rect x="6" y="5" width="1" height="1" fill="rgb(101,40,40)" fill-opacity="1.000" /><rect x="7" y="5" width="1" height="1" fill="rgb(81,21,21)" fill-opacity="1.000" /><rect x="8" y="5" width="1" height="1" fill="rgb(32,154,184)" fill-opacity="1.000" /><rect x="9" y="5" width="1" height="1" fill="rgb(81,21,21)" fill-opacity="1.000" /><rect x="9" y="13" width="1" height="1" fill="rgb(81,21,21)" fill-opacity="1.000" /><rect x="10" y="5" width="2" height="1" fill="rgb(114,50,50)" fill-opacity="1.000" /><rect x="10" y="11" width="2" height="1" fill="rgb(114,50,50)" fill-opacity="1.000" /><rect x="12" y="5" width="1" height="1" fill="rgb(101,40,40)" fill-opacity="1.000" /><rect x="12" y="7" width="1" height="1" fill="rgb(101,40,40)" fill-opacity="1.000" /><rect x="12" y="10" width="1" height="1" fill="rgb(101,40,40)" fill-opacity="1.000" /><rect x="5" y="6" width="1" height="1" fill="rgb(101,40,40)" fill-opacity="1.000" /><rect x="5" y="12" width="1" height="1" fill="rgb(101,40,40)" fill-opacity="1.000" /><rect x="6" y="6" width="1" height="1" fill="rgb(81,21,21)" fill-opacity="1.000" /><rect x="7" y="6" width="1" height="1" fill="rgb(32,154,184)" fill-opacity="1.000" /><rect x="7" y="9" width="1" height="1" fill="rgb(32,154,184)" fill-opacity="1.000" /><rect x="8" y="6" width="1" height="1" fill="rgb(96,232,232)" fill-opacity="1.000" /><rect x="9" y="6" width="1" height="1" fill="rgb(75,201,201)" fill-opacity="1.000" /><rect x="10" y="6" width="1" height="1" fill="rgb(81,21,21)" fill-opacity="1.000" /><rect x="11" y="6" width="1" height="1" fill="rgb(101,40,40)" fill-opacity="1.000" /><rect x="12" y="6" width="1" height="1" fill="rgb(81,21,21)" fill-opacity="1.000" /><rect x="12" y="11" width="1" height="2" fill="rgb(81,21,21)" fill-opacity="1.000" /><rect x="4" y="7" width="1" height="1" fill="rgb(101,40,40)" fill-opacity="1.000" /><rect x="4" y="11" width="1" height="1" fill="rgb(101,40,40)" fill-opacity="1.000" /><rect x="5" y="7" width="1" height="1" fill="rgb(81,21,21)" fill-opacity="1.000" /><rect x="6" y="7" width="1" height="1" fill="rgb(32,154,184)" fill-opacity="1.000" /><rect x="7" y="7" width="2" height="1" fill="rgb(96,232,232)" fill-opacity="1.000" /><rect x="9" y="7" width="2" height="1" fill="rgb(75,201,201)" fill-opacity="1.000" /><rect x="11" y="7" width="1" height="1" fill="rgb(81,21,21)" fill-opacity="1.000" /><rect x="5" y="8" width="2" height="1" fill="rgb(133,66,66)" fill-opacity="1.000" /><rect x="7" y="8" width="3" height="1" fill="rgb(75,201,201)" fill-opacity="1.000" /><rect x="10" y="8" width="2" height="1" fill="rgb(133,66,66)" fill-opacity="1.000" /><rect x="12" y="8" width="1" height="1" fill="rgb(114,50,50)" fill-opacity="1.000" /><rect x="4" y="9" width="1" height="1" fill="rgb(133,66,66)" fill-opacity="1.000" /><rect x="5" y="9" width="1" height="1" fill="rgb(114,50,50)" fill-opacity="1.000" /><rect x="6" y="9" width="1" height="1" fill="rgb(133,66,66)" fill-opacity="1.000" /><rect x="8" y="9" width="1" height="1" fill="rgb(75,201,201)" fill-opacity="1.000" /><rect x="9" y="9" width="1" height="1" fill="rgb(32,154,184)" fill-opacity="1.000" /><rect x="10" y="9" width="1" height="1" fill="rgb(133,66,66)" fill-opacity="1.000" /><rect x="11" y="9" width="2" height="1" fill="rgb(114,50,50)" fill-opacity="1.000" /><rect x="4" y="10" width="3" height="1" fill="rgb(114,50,50)" fill-opacity="1.000" /><rect x="7" y="10" width="3" height="1" fill="rgb(32,154,184)" fill-opacity="1.000" /><rect x="10" y="10" width="1" height="1" fill="rgb(114,50,50)" fill-opacity="1.000" /><rect x="11" y="10" width="1" height="1" fill="rgb(133,66,66)" fill-opacity="1.000" /><rect x="5" y="11" width="2" height="1" fill="rgb(114,50,50)" fill-opacity="1.000" /><rect x="7" y="11" width="3" height="1" fill="rgb(133,66,66)" fill-opacity="1.000" /><rect x="4" y="12" width="1" height="1" fill="rgb(81,21,21)" fill-opacity="1.000" /><rect x="6" y="12" width="2" height="1" fill="rgb(114,50,50)" fill-opacity="1.000" /><rect x="8" y="12" width="4" height="1" fill="rgb(101,40,40)" fill-opacity="1.000" /><rect x="4" y="13" width="1" height="1" fill="rgb(52,14,14)" fill-opacity="1.000" /><rect x="5" y="13" width="2" height="1" fill="rgb(81,21,21)" fill-opacity="1.000" /><rect x="7" y="13" width="2" height="1" fill="rgb(101,40,40)" fill-opacity="1.000" /><rect x="10" y="13" width="3" height="1" fill="rgb(52,14,14)" fill-opacity="1.000" /><rect x="5" y="14" width="5" height="1" fill="rgb(52,14,14)" fill-opacity="1.000" /></svg>