<?xml version='1.0' encoding='utf-8'?>
<svg width="16" height="16" viewBox="0 0 16 16" xmlns="http://www.w3.org/2000/svg"> <rect x="1" y="1" width="1" height="1" fill="rgb(194,157,98)" fill-opacity="1.000" /><rect x="2" y="1" width="1" height="1" fill="rgb(175,143,85)" fill-opacity="1.000" /><rect x="2" y="8" width="1" height="1" fill="rgb(175,143,85)" fill-opacity="1.000" /><rect x="2" y="11" width="1" height="1" fill="rgb(175,143,85)" fill-opacity="1.000" /><rect x="3" y="1" width="2" height="1" fill="rgb(111,111,111)" fill-opacity="1.000" /><rect x="5" y="1" width="1" height="1" fill="rgb(95,95,95)" fill-opacity="1.000" /><rect x="6" y="1" width="1" height="1" fill="rgb(175,143,85)" fill-opacity="1.000" /><rect x="7" y="1" width="2" height="1" fill="rgb(194,157,98)" fill-opacity="1.000" /><rect x="9" y="1" width="1" height="1" fill="rgb(175,143,85)" fill-opacity="1.000" /><rect x="10" y="1" width="2" height="1" fill="rgb(111,111,111)" fill-opacity="1.000" /><rect x="12" y="1" width="1" height="1" fill="rgb(95,95,95)" fill-opacity="1.000" /><rect x="13" y="1" width="1" height="1" fill="rgb(175,143,85)" fill-opacity="1.000" /><rect x="13" y="6" width="1" height="1" fill="rgb(175,143,85)" fill-opacity="1.000" /><rect x="14" y="1" width="1" height="1" fill="rgb(150,116,65)" fill-opacity="1.000" /><rect x="1" y="2" width="1" height="1" fill="rgb(126,98,55)" fill-opacity="1.000" /><rect x="2" y="2" width="1" height="1" fill="rgb(103,80,44)" fill-opacity="1.000" /><rect x="3" y="2" width="1" height="1" fill="rgb(74,74,74)" fill-opacity="1.000" /><rect x="4" y="2" width="1" height="1" fill="rgb(95,95,95)" fill-opacity="1.000" /><rect x="5" y="2" width="1" height="1" fill="rgb(74,74,74)" fill-opacity="1.000" /><rect x="6" y="2" width="4" height="1" fill="rgb(103,80,44)" fill-opacity="1.000" /><rect x="10" y="2" width="1" height="1" fill="rgb(74,74,74)" fill-opacity="1.000" /><rect x="11" y="2" width="1" height="1" fill="rgb(95,95,95)" fill-opacity="1.000" /><rect x="12" y="2" width="1" height="1" fill="rgb(74,74,74)" fill-opacity="1.000" /><rect x="13" y="2" width="1" height="1" fill="rgb(103,80,44)" fill-opacity="1.000" /><rect x="14" y="2" width="1" height="1" fill="rgb(126,98,55)" fill-opacity="1.000" /><rect x="4" y="3" width="1" height="2" fill="rgb(74,74,74)" fill-opacity="1.000" /><rect x="11" y="3" width="1" height="2" fill="rgb(74,74,74)" fill-opacity="1.000" /><rect x="3" y="4" width="1" height="2" fill="rgb(50,50,50)" fill-opacity="1.000" /><rect x="5" y="4" width="1" height="2" fill="rgb(50,50,50)" fill-opacity="1.000" /><rect x="10" y="4" width="1" height="2" fill="rgb(50,50,50)" fill-opacity="1.000" /><rect x="12" y="4" width="1" height="2" fill="rgb(50,50,50)" fill-opacity="1.000" /><rect x="2" y="6" width="2" height="1" fill="rgb(194,157,98)" fill-opacity="1.000" /><rect x="4" y="6" width="2" height="1" fill="rgb(184,148,95)" fill-opacity="1.000" /><rect x="6" y="6" width="5" height="1" fill="rgb(194,157,98)" fill-opacity="1.000" /><rect x="11" y="6" width="2" height="1" fill="rgb(184,148,95)" fill-opacity="1.000" /><rect x="2" y="7" width="1" height="1" fill="rgb(184,148,95)" fill-opacity="1.000" /><rect x="2" y="10" width="1" height="1" fill="rgb(184,148,95)" fill-opacity="1.000" /><rect x="2" y="12" width="1" height="1" fill="rgb(184,148,95)" fill-opacity="1.000" /><rect x="3" y="7" width="1" height="1" fill="rgb(103,80,44)" fill-opacity="1.000" /><rect x="4" y="7" width="5" height="1" fill="rgb(175,143,85)" fill-opacity="1.000" /><rect x="9" y="7" width="1" height="1" fill="rgb(126,98,55)" fill-opacity="1.000" /><rect x="9" y="11" width="1" height="1" fill="rgb(126,98,55)" fill-opacity="1.000" /><rect x="10" y="7" width="1" height="1" fill="rgb(103,80,44)" fill-opacity="1.000" /><rect x="11" y="7" width="2" height="1" fill="rgb(175,143,85)" fill-opacity="1.000" /><rect x="13" y="7" width="1" height="1" fill="rgb(150,116,65)" fill-opacity="1.000" /><rect x="13" y="10" width="1" height="1" fill="rgb(150,116,65)" fill-opacity="1.000" /><rect x="3" y="8" width="2" height="1" fill="rgb(126,98,55)" fill-opacity="1.000" /><rect x="3" y="11" width="2" height="1" fill="rgb(126,98,55)" fill-opacity="1.000" /><rect x="5" y="8" width="1" height="1" fill="rgb(175,143,85)" fill-opacity="1.000" /><rect x="5" y="10" width="1" height="2" fill="rgb(175,143,85)" fill-opacity="1.000" /><rect x="6" y="8" width="1" height="1" fill="rgb(126,98,55)" fill-opacity="1.000" /><rect x="7" y="8" width="1" height="1" fill="rgb(103,80,44)" fill-opacity="1.000" /><rect x="8" y="8" width="1" height="1" fill="rgb(175,143,85)" fill-opacity="1.000" /><rect x="8" y="10" width="1" height="1" fill="rgb(175,143,85)" fill-opacity="1.000" /><rect x="9" y="8" width="2" height="1" fill="rgb(126,98,55)" fill-opacity="1.000" /><rect x="11" y="8" width="1" height="1" fill="rgb(103,80,44)" fill-opacity="1.000" /><rect x="11" y="10" width="1" height="1" fill="rgb(103,80,44)" fill-opacity="1.000" /><rect x="12" y="8" width="1" height="1" fill="rgb(175,143,85)" fill-opacity="1.000" /><rect x="12" y="10" width="1" height="2" fill="rgb(175,143,85)" fill-opacity="1.000" /><rect x="13" y="8" width="1" height="1" fill="rgb(126,98,55)" fill-opacity="1.000" /><rect x="13" y="11" width="1" height="1" fill="rgb(126,98,55)" fill-opacity="1.000" /><rect x="2" y="9" width="1" height="1" fill="rgb(194,157,98)" fill-opacity="1.000" /><rect x="3" y="9" width="10" height="1" fill="rgb(175,143,85)" fill-opacity="1.000" /><rect x="3" y="12" width="10" height="1" fill="rgb(175,143,85)" fill-opacity="1.000" /><rect x="13" y="9" width="1" height="1" fill="rgb(159,132,77)" fill-opacity="1.000" /><rect x="13" y="12" width="1" height="1" fill="rgb(159,132,77)" fill-opacity="1.000" /><rect x="3" y="10" width="1" height="1" fill="rgb(175,143,85)" fill-opacity="1.000" /><rect x="4" y="10" width="1" height="1" fill="rgb(103,80,44)" fill-opacity="1.000" /><rect x="6" y="10" width="2" height="1" fill="rgb(103,80,44)" fill-opacity="1.000" /><rect x="9" y="10" width="1" height="1" fill="rgb(103,80,44)" fill-opacity="1.000" /><rect x="10" y="10" width="1" height="2" fill="rgb(175,143,85)" fill-opacity="1.000" /><rect x="6" y="11" width="2" height="1" fill="rgb(126,98,55)" fill-opacity="1.000" /><rect x="8" y="11" width="1" height="1" fill="rgb(103,80,44)" fill-opacity="1.000" /><rect x="11" y="11" width="1" height="1" fill="rgb(126,98,55)" fill-opacity="1.000" /><rect x="2" y="13" width="12" height="1" fill="rgb(150,116,65)" fill-opacity="1.000" /><rect x="2" y="14" width="12" height="1" fill="rgb(103,80,44)" fill-opacity="1.000" /></svg>