<?xml version='1.0' encoding='utf-8'?>
<svg width="16" height="16" viewBox="0 0 16 16" xmlns="http://www.w3.org/2000/svg"> <rect x="5" y="0" width="3" height="1" fill="rgb(69,74,66)" fill-opacity="1.000" /><rect x="8" y="0" width="2" height="1" fill="rgb(55,59,53)" fill-opacity="1.000" /><rect x="10" y="0" width="1" height="1" fill="rgb(41,40,40)" fill-opacity="1.000" /><rect x="10" y="6" width="1" height="1" fill="rgb(41,40,40)" fill-opacity="1.000" /><rect x="10" y="8" width="1" height="1" fill="rgb(41,40,40)" fill-opacity="1.000" /><rect x="4" y="1" width="1" height="1" fill="rgb(69,74,66)" fill-opacity="1.000" /><rect x="4" y="3" width="1" height="1" fill="rgb(69,74,66)" fill-opacity="1.000" /><rect x="4" y="5" width="1" height="2" fill="rgb(69,74,66)" fill-opacity="1.000" /><rect x="5" y="1" width="1" height="1" fill="rgb(82,90,81)" fill-opacity="1.000" /><rect x="6" y="1" width="2" height="1" fill="rgb(161,158,148)" fill-opacity="1.000" /><rect x="8" y="1" width="1" height="1" fill="rgb(133,131,122)" fill-opacity="1.000" /><rect x="9" y="1" width="1" height="1" fill="rgb(108,113,107)" fill-opacity="1.000" /><rect x="10" y="1" width="1" height="1" fill="rgb(82,90,81)" fill-opacity="1.000" /><rect x="11" y="1" width="1" height="1" fill="rgb(41,40,40)" fill-opacity="1.000" /><rect x="11" y="3" width="1" height="1" fill="rgb(41,40,40)" fill-opacity="1.000" /><rect x="3" y="2" width="1" height="1" fill="rgb(69,74,66)" fill-opacity="1.000" /><rect x="4" y="2" width="1" height="1" fill="rgb(55,59,53)" fill-opacity="1.000" /><rect x="4" y="7" width="1" height="1" fill="rgb(55,59,53)" fill-opacity="1.000" /><rect x="5" y="2" width="1" height="1" fill="rgb(133,131,122)" fill-opacity="1.000" /><rect x="6" y="2" width="5" height="1" fill="rgb(108,113,107)" fill-opacity="1.000" /><rect x="11" y="2" width="2" height="1" fill="rgb(41,40,40)" fill-opacity="1.000" /><rect x="2" y="3" width="1" height="1" fill="rgb(69,74,66)" fill-opacity="1.000" /><rect x="3" y="3" width="1" height="1" fill="rgb(108,113,107)" fill-opacity="1.000" /><rect x="5" y="3" width="1" height="1" fill="rgb(154,30,51)" fill-opacity="1.000" /><rect x="6" y="3" width="1" height="1" fill="rgb(222,64,88)" fill-opacity="1.000" /><rect x="7" y="3" width="2" height="1" fill="rgb(82,90,81)" fill-opacity="1.000" /><rect x="9" y="3" width="1" height="1" fill="rgb(222,64,88)" fill-opacity="1.000" /><rect x="10" y="3" width="1" height="1" fill="rgb(154,30,51)" fill-opacity="1.000" /><rect x="12" y="3" width="1" height="1" fill="rgb(108,113,107)" fill-opacity="1.000" /><rect x="13" y="3" width="1" height="4" fill="rgb(41,40,40)" fill-opacity="1.000" /><rect x="2" y="4" width="1" height="2" fill="rgb(55,59,53)" fill-opacity="1.000" /><rect x="3" y="4" width="2" height="1" fill="rgb(69,74,66)" fill-opacity="1.000" /><rect x="5" y="4" width="1" height="1" fill="rgb(108,113,107)" fill-opacity="1.000" /><rect x="6" y="4" width="1" height="2" fill="rgb(82,90,81)" fill-opacity="1.000" /><rect x="7" y="4" width="1" height="1" fill="rgb(161,158,148)" fill-opacity="1.000" /><rect x="8" y="4" width="1" height="1" fill="rgb(108,113,107)" fill-opacity="1.000" /><rect x="9" y="4" width="1" height="2" fill="rgb(82,90,81)" fill-opacity="1.000" /><rect x="10" y="4" width="1" height="1" fill="rgb(108,113,107)" fill-opacity="1.000" /><rect x="11" y="4" width="1" height="1" fill="rgb(55,59,53)" fill-opacity="1.000" /><rect x="11" y="7" width="1" height="1" fill="rgb(55,59,53)" fill-opacity="1.000" /><rect x="12" y="4" width="1" height="1" fill="rgb(69,74,66)" fill-opacity="1.000" /><rect x="3" y="5" width="1" height="1" fill="rgb(154,30,51)" fill-opacity="1.000" /><rect x="5" y="5" width="1" height="1" fill="rgb(55,59,53)" fill-opacity="1.000" /><rect x="7" y="5" width="2" height="1" fill="rgb(55,59,53)" fill-opacity="1.000" /><rect x="10" y="5" width="1" height="1" fill="rgb(55,59,53)" fill-opacity="1.000" /><rect x="11" y="5" width="1" height="2" fill="rgb(69,74,66)" fill-opacity="1.000" /><rect x="12" y="5" width="1" height="1" fill="rgb(154,30,51)" fill-opacity="1.000" /><rect x="2" y="6" width="1" height="1" fill="rgb(41,40,40)" fill-opacity="1.000" /><rect x="3" y="6" width="1" height="1" fill="rgb(55,59,53)" fill-opacity="1.000" /><rect x="5" y="6" width="1" height="1" fill="rgb(41,40,40)" fill-opacity="1.000" /><rect x="5" y="8" width="1" height="1" fill="rgb(41,40,40)" fill-opacity="1.000" /><rect x="6" y="6" width="1" height="1" fill="rgb(55,59,53)" fill-opacity="1.000" /><rect x="7" y="6" width="2" height="1" fill="rgb(57,110,89)" fill-opacity="1.000" /><rect x="9" y="6" width="1" height="1" fill="rgb(55,59,53)" fill-opacity="1.000" /><rect x="12" y="6" width="1" height="1" fill="rgb(55,59,53)" fill-opacity="1.000" /><rect x="3" y="7" width="1" height="1" fill="rgb(41,40,40)" fill-opacity="1.000" /><rect x="5" y="7" width="2" height="1" fill="rgb(41,40,40)" fill-opacity="1.000" /><rect x="7" y="7" width="1" height="1" fill="rgb(62,129,107)" fill-opacity="1.000" /><rect x="8" y="7" width="1" height="1" fill="rgb(57,110,89)" fill-opacity="1.000" /><rect x="9" y="7" width="2" height="1" fill="rgb(41,40,40)" fill-opacity="1.000" /><rect x="12" y="7" width="1" height="1" fill="rgb(41,40,40)" fill-opacity="1.000" /><rect x="3" y="8" width="2" height="1" fill="rgb(55,59,53)" fill-opacity="1.000" /><rect x="6" y="8" width="1" height="7" fill="rgb(54,89,77)" fill-opacity="1.000" /><rect x="7" y="8" width="2" height="1" fill="rgb(62,129,107)" fill-opacity="1.000" /><rect x="9" y="8" width="1" height="3" fill="rgb(47,74,66)" fill-opacity="1.000" /><rect x="11" y="8" width="2" height="1" fill="rgb(55,59,53)" fill-opacity="1.000" /><rect x="7" y="9" width="1" height="1" fill="rgb(85,163,134)" fill-opacity="1.000" /><rect x="8" y="9" width="1" height="1" fill="rgb(62,129,107)" fill-opacity="1.000" /><rect x="7" y="10" width="1" height="1" fill="rgb(105,192,156)" fill-opacity="1.000" /><rect x="8" y="10" width="1" height="2" fill="rgb(85,163,134)" fill-opacity="1.000" /><rect x="7" y="11" width="1" height="1" fill="rgb(123,219,176)" fill-opacity="1.000" /><rect x="7" y="13" width="1" height="1" fill="rgb(123,219,176)" fill-opacity="1.000" /><rect x="9" y="11" width="1" height="1" fill="rgb(62,129,107)" fill-opacity="1.000" /><rect x="10" y="11" width="2" height="1" fill="rgb(54,89,77)" fill-opacity="1.000" /><rect x="7" y="12" width="2" height="1" fill="rgb(123,219,176)" fill-opacity="1.000" /><rect x="9" y="12" width="2" height="1" fill="rgb(85,163,134)" fill-opacity="1.000" /><rect x="11" y="12" width="1" height="1" fill="rgb(47,74,66)" fill-opacity="1.000" /><rect x="8" y="13" width="1" height="1" fill="rgb(105,192,156)" fill-opacity="1.000" /><rect x="9" y="13" width="2" height="1" fill="rgb(47,74,66)" fill-opacity="1.000" /><rect x="7" y="14" width="3" height="1" fill="rgb(105,192,156)" fill-opacity="1.000" /><rect x="10" y="14" width="1" height="1" fill="rgb(85,163,134)" fill-opacity="1.000" /><rect x="11" y="14" width="1" height="1" fill="rgb(54,89,77)" fill-opacity="1.000" /><rect x="6" y="15" width="6" height="1" fill="rgb(47,74,66)" fill-opacity="1.000" /></svg>