<?xml version='1.0' encoding='utf-8'?>
<svg width="16" height="16" viewBox="0 0 16 16" xmlns="http://www.w3.org/2000/svg"> <rect x="8" y="1" width="1" height="1" fill="rgb(99,99,99)" fill-opacity="1.000" /><rect x="7" y="2" width="1" height="1" fill="rgb(99,99,99)" fill-opacity="1.000" /><rect x="8" y="2" width="2" height="1" fill="rgb(53,53,53)" fill-opacity="1.000" /><rect x="6" y="3" width="2" height="1" fill="rgb(53,53,53)" fill-opacity="1.000" /><rect x="9" y="3" width="1" height="1" fill="rgb(38,38,38)" fill-opacity="1.000" /><rect x="10" y="3" width="1" height="1" fill="rgb(53,53,53)" fill-opacity="1.000" /><rect x="2" y="4" width="1" height="1" fill="rgb(177,159,104)" fill-opacity="1.000" /><rect x="3" y="4" width="2" height="1" fill="rgb(147,114,74)" fill-opacity="1.000" /><rect x="5" y="4" width="1" height="1" fill="rgb(120,68,15)" fill-opacity="1.000" /><rect x="6" y="4" width="2" height="1" fill="rgb(147,114,74)" fill-opacity="1.000" /><rect x="8" y="4" width="6" height="1" fill="rgb(120,68,15)" fill-opacity="1.000" /><rect x="14" y="4" width="1" height="5" fill="rgb(99,60,21)" fill-opacity="1.000" /><rect x="2" y="5" width="1" height="2" fill="rgb(147,114,74)" fill-opacity="1.000" /><rect x="3" y="5" width="1" height="1" fill="rgb(150,138,120)" fill-opacity="1.000" /><rect x="3" y="12" width="1" height="1" fill="rgb(150,138,120)" fill-opacity="1.000" /><rect x="4" y="5" width="9" height="1" fill="rgb(158,150,139)" fill-opacity="1.000" /><rect x="4" y="12" width="9" height="1" fill="rgb(158,150,139)" fill-opacity="1.000" /><rect x="13" y="5" width="1" height="1" fill="rgb(150,138,120)" fill-opacity="1.000" /><rect x="13" y="12" width="1" height="1" fill="rgb(150,138,120)" fill-opacity="1.000" /><rect x="3" y="6" width="2" height="1" fill="rgb(158,150,139)" fill-opacity="1.000" /><rect x="3" y="11" width="2" height="1" fill="rgb(158,150,139)" fill-opacity="1.000" /><rect x="5" y="6" width="1" height="1" fill="rgb(179,174,159)" fill-opacity="1.000" /><rect x="5" y="11" width="1" height="1" fill="rgb(179,174,159)" fill-opacity="1.000" /><rect x="6" y="6" width="5" height="1" fill="rgb(200,197,189)" fill-opacity="1.000" /><rect x="6" y="11" width="5" height="1" fill="rgb(200,197,189)" fill-opacity="1.000" /><rect x="11" y="6" width="1" height="1" fill="rgb(179,174,159)" fill-opacity="1.000" /><rect x="11" y="11" width="1" height="1" fill="rgb(179,174,159)" fill-opacity="1.000" /><rect x="12" y="6" width="2" height="1" fill="rgb(158,150,139)" fill-opacity="1.000" /><rect x="12" y="11" width="2" height="1" fill="rgb(158,150,139)" fill-opacity="1.000" /><rect x="2" y="7" width="1" height="6" fill="rgb(120,68,15)" fill-opacity="1.000" /><rect x="3" y="7" width="1" height="4" fill="rgb(158,150,139)" fill-opacity="1.000" /><rect x="4" y="7" width="1" height="1" fill="rgb(179,174,159)" fill-opacity="1.000" /><rect x="4" y="10" width="1" height="1" fill="rgb(179,174,159)" fill-opacity="1.000" /><rect x="5" y="7" width="7" height="1" fill="rgb(200,197,189)" fill-opacity="1.000" /><rect x="5" y="10" width="7" height="1" fill="rgb(200,197,189)" fill-opacity="1.000" /><rect x="12" y="7" width="1" height="1" fill="rgb(179,174,159)" fill-opacity="1.000" /><rect x="12" y="10" width="1" height="1" fill="rgb(179,174,159)" fill-opacity="1.000" /><rect x="13" y="7" width="1" height="4" fill="rgb(158,150,139)" fill-opacity="1.000" /><rect x="4" y="8" width="9" height="2" fill="rgb(200,197,189)" fill-opacity="1.000" /><rect x="14" y="9" width="1" height="1" fill="rgb(147,114,74)" fill-opacity="1.000" /><rect x="14" y="11" width="1" height="2" fill="rgb(147,114,74)" fill-opacity="1.000" /><rect x="14" y="10" width="1" height="1" fill="rgb(120,68,15)" fill-opacity="1.000" /><rect x="14" y="13" width="1" height="1" fill="rgb(120,68,15)" fill-opacity="1.000" /><rect x="2" y="13" width="3" height="1" fill="rgb(99,60,21)" fill-opacity="1.000" /><rect x="5" y="13" width="2" height="1" fill="rgb(120,68,15)" fill-opacity="1.000" /><rect x="7" y="13" width="2" height="1" fill="rgb(147,114,74)" fill-opacity="1.000" /><rect x="9" y="13" width="1" height="1" fill="rgb(120,68,15)" fill-opacity="1.000" /><rect x="10" y="13" width="3" height="1" fill="rgb(147,114,74)" fill-opacity="1.000" /><rect x="13" y="13" width="1" height="1" fill="rgb(177,159,104)" fill-opacity="1.000" /><rect x="2" y="14" width="13" height="1" fill="rgb(38,28,9)" fill-opacity="1.000" /></svg>