<?xml version='1.0' encoding='utf-8'?>
<svg width="16" height="16" viewBox="0 0 16 16" xmlns="http://www.w3.org/2000/svg"> <rect x="6" y="1" width="2" height="1" fill="rgb(126,85,77)" fill-opacity="1.000" /><rect x="8" y="1" width="1" height="1" fill="rgb(101,63,51)" fill-opacity="1.000" /><rect x="8" y="10" width="1" height="1" fill="rgb(101,63,51)" fill-opacity="1.000" /><rect x="10" y="1" width="1" height="1" fill="rgb(101,63,51)" fill-opacity="1.000" /><rect x="10" y="6" width="1" height="1" fill="rgb(101,63,51)" fill-opacity="1.000" /><rect x="11" y="1" width="1" height="1" fill="rgb(77,48,38)" fill-opacity="1.000" /><rect x="5" y="2" width="2" height="1" fill="rgb(126,85,77)" fill-opacity="1.000" /><rect x="7" y="2" width="1" height="1" fill="rgb(101,63,51)" fill-opacity="1.000" /><rect x="7" y="7" width="1" height="1" fill="rgb(101,63,51)" fill-opacity="1.000" /><rect x="8" y="2" width="1" height="1" fill="rgb(209,153,98)" fill-opacity="1.000" /><rect x="9" y="2" width="2" height="1" fill="rgb(126,85,77)" fill-opacity="1.000" /><rect x="11" y="2" width="1" height="1" fill="rgb(101,63,51)" fill-opacity="1.000" /><rect x="11" y="7" width="1" height="1" fill="rgb(101,63,51)" fill-opacity="1.000" /><rect x="12" y="2" width="1" height="3" fill="rgb(77,48,38)" fill-opacity="1.000" /><rect x="12" y="6" width="1" height="2" fill="rgb(77,48,38)" fill-opacity="1.000" /><rect x="3" y="3" width="1" height="1" fill="rgb(101,63,51)" fill-opacity="1.000" /><rect x="3" y="6" width="1" height="1" fill="rgb(101,63,51)" fill-opacity="1.000" /><rect x="4" y="3" width="1" height="1" fill="rgb(126,85,77)" fill-opacity="1.000" /><rect x="5" y="3" width="1" height="1" fill="rgb(173,101,63)" fill-opacity="1.000" /><rect x="6" y="3" width="1" height="1" fill="rgb(209,153,98)" fill-opacity="1.000" /><rect x="7" y="3" width="1" height="2" fill="rgb(219,181,114)" fill-opacity="1.000" /><rect x="8" y="3" width="2" height="1" fill="rgb(173,101,63)" fill-opacity="1.000" /><rect x="10" y="3" width="1" height="1" fill="rgb(219,181,114)" fill-opacity="1.000" /><rect x="11" y="3" width="1" height="1" fill="rgb(126,85,77)" fill-opacity="1.000" /><rect x="11" y="6" width="1" height="1" fill="rgb(126,85,77)" fill-opacity="1.000" /><rect x="2" y="4" width="1" height="1" fill="rgb(77,48,38)" fill-opacity="1.000" /><rect x="3" y="4" width="2" height="1" fill="rgb(126,85,77)" fill-opacity="1.000" /><rect x="5" y="4" width="2" height="1" fill="rgb(101,63,51)" fill-opacity="1.000" /><rect x="8" y="4" width="1" height="1" fill="rgb(173,101,63)" fill-opacity="1.000" /><rect x="9" y="4" width="1" height="1" fill="rgb(123,67,36)" fill-opacity="1.000" /><rect x="10" y="4" width="1" height="1" fill="rgb(209,153,98)" fill-opacity="1.000" /><rect x="11" y="4" width="1" height="1" fill="rgb(173,101,63)" fill-opacity="1.000" /><rect x="2" y="5" width="1" height="3" fill="rgb(54,37,27)" fill-opacity="1.000" /><rect x="3" y="5" width="1" height="1" fill="rgb(126,85,77)" fill-opacity="1.000" /><rect x="4" y="5" width="1" height="1" fill="rgb(101,63,51)" fill-opacity="1.000" /><rect x="5" y="5" width="1" height="1" fill="rgb(77,48,38)" fill-opacity="1.000" /><rect x="5" y="7" width="1" height="1" fill="rgb(77,48,38)" fill-opacity="1.000" /><rect x="6" y="5" width="1" height="1" fill="rgb(173,101,63)" fill-opacity="1.000" /><rect x="7" y="5" width="2" height="1" fill="rgb(126,85,77)" fill-opacity="1.000" /><rect x="9" y="5" width="1" height="1" fill="rgb(209,153,98)" fill-opacity="1.000" /><rect x="10" y="5" width="2" height="1" fill="rgb(126,85,77)" fill-opacity="1.000" /><rect x="12" y="5" width="1" height="1" fill="rgb(101,63,51)" fill-opacity="1.000" /><rect x="13" y="5" width="1" height="1" fill="rgb(77,48,38)" fill-opacity="1.000" /><rect x="13" y="14" width="1" height="1" fill="rgb(77,48,38)" fill-opacity="1.000" /><rect x="4" y="6" width="1" height="1" fill="rgb(77,48,38)" fill-opacity="1.000" /><rect x="4" y="8" width="1" height="1" fill="rgb(77,48,38)" fill-opacity="1.000" /><rect x="5" y="6" width="1" height="1" fill="rgb(123,67,36)" fill-opacity="1.000" /><rect x="6" y="6" width="3" height="1" fill="rgb(126,85,77)" fill-opacity="1.000" /><rect x="9" y="6" width="1" height="1" fill="rgb(173,101,63)" fill-opacity="1.000" /><rect x="13" y="6" width="1" height="3" fill="rgb(54,37,27)" fill-opacity="1.000" /><rect x="3" y="7" width="1" height="1" fill="rgb(77,48,38)" fill-opacity="1.000" /><rect x="4" y="7" width="1" height="1" fill="rgb(123,67,36)" fill-opacity="1.000" /><rect x="6" y="7" width="1" height="1" fill="rgb(126,85,77)" fill-opacity="1.000" /><rect x="8" y="7" width="1" height="2" fill="rgb(126,85,77)" fill-opacity="1.000" /><rect x="9" y="7" width="1" height="2" fill="rgb(101,63,51)" fill-opacity="1.000" /><rect x="10" y="7" width="1" height="1" fill="rgb(173,101,63)" fill-opacity="1.000" /><rect x="3" y="8" width="1" height="1" fill="rgb(54,37,27)" fill-opacity="1.000" /><rect x="5" y="8" width="3" height="1" fill="rgb(101,63,51)" fill-opacity="1.000" /><rect x="10" y="8" width="1" height="2" fill="rgb(123,67,36)" fill-opacity="1.000" /><rect x="11" y="8" width="2" height="1" fill="rgb(77,48,38)" fill-opacity="1.000" /><rect x="4" y="9" width="1" height="2" fill="rgb(54,37,27)" fill-opacity="1.000" /><rect x="5" y="9" width="1" height="1" fill="rgb(101,63,51)" fill-opacity="1.000" /><rect x="6" y="9" width="2" height="1" fill="rgb(77,48,38)" fill-opacity="1.000" /><rect x="8" y="9" width="2" height="1" fill="rgb(101,63,51)" fill-opacity="1.000" /><rect x="11" y="9" width="2" height="1" fill="rgb(54,37,27)" fill-opacity="1.000" /><rect x="5" y="10" width="3" height="1" fill="rgb(77,48,38)" fill-opacity="1.000" /><rect x="9" y="10" width="1" height="1" fill="rgb(77,48,38)" fill-opacity="1.000" /><rect x="10" y="10" width="1" height="1" fill="rgb(54,37,27)" fill-opacity="1.000" /><rect x="5" y="11" width="2" height="1" fill="rgb(54,37,27)" fill-opacity="1.000" /><rect x="7" y="11" width="2" height="1" fill="rgb(77,48,38)" fill-opacity="1.000" /><rect x="9" y="11" width="1" height="1" fill="rgb(54,37,27)" fill-opacity="1.000" /><rect x="7" y="12" width="2" height="1" fill="rgb(54,37,27)" fill-opacity="1.000" /><rect x="9" y="12" width="3" height="1" fill="rgb(77,48,38)" fill-opacity="1.000" /><rect x="12" y="12" width="1" height="1" fill="rgb(54,37,27)" fill-opacity="1.000" /><rect x="10" y="13" width="2" height="1" fill="rgb(54,37,27)" fill-opacity="1.000" /><rect x="12" y="13" width="2" height="1" fill="rgb(101,63,51)" fill-opacity="1.000" /><rect x="14" y="13" width="1" height="1" fill="rgb(77,48,38)" fill-opacity="1.000" /><rect x="14" y="14" width="1" height="1" fill="rgb(54,37,27)" fill-opacity="1.000" /></svg>