<?xml version='1.0' encoding='utf-8'?>
<svg width="16" height="16" viewBox="0 0 16 16" xmlns="http://www.w3.org/2000/svg"> <rect x="5" y="1" width="2" height="1" fill="rgb(77,84,153)" fill-opacity="1.000" /><rect x="7" y="1" width="2" height="1" fill="rgb(111,108,204)" fill-opacity="1.000" /><rect x="9" y="1" width="1" height="1" fill="rgb(149,133,230)" fill-opacity="1.000" /><rect x="9" y="3" width="1" height="1" fill="rgb(149,133,230)" fill-opacity="1.000" /><rect x="4" y="2" width="1" height="1" fill="rgb(77,84,153)" fill-opacity="1.000" /><rect x="5" y="2" width="2" height="1" fill="rgb(111,108,204)" fill-opacity="1.000" /><rect x="7" y="2" width="1" height="1" fill="rgb(149,133,230)" fill-opacity="1.000" /><rect x="8" y="2" width="2" height="1" fill="rgb(111,108,204)" fill-opacity="1.000" /><rect x="8" y="9" width="2" height="1" fill="rgb(111,108,204)" fill-opacity="1.000" /><rect x="10" y="2" width="1" height="1" fill="rgb(190,156,255)" fill-opacity="1.000" /><rect x="4" y="3" width="2" height="1" fill="rgb(111,108,204)" fill-opacity="1.000" /><rect x="6" y="3" width="1" height="1" fill="rgb(149,133,230)" fill-opacity="1.000" /><rect x="7" y="3" width="2" height="1" fill="rgb(190,156,255)" fill-opacity="1.000" /><rect x="10" y="3" width="1" height="1" fill="rgb(111,108,204)" fill-opacity="1.000" /><rect x="10" y="7" width="1" height="2" fill="rgb(111,108,204)" fill-opacity="1.000" /><rect x="11" y="3" width="1" height="1" fill="rgb(190,156,255)" fill-opacity="1.000" /><rect x="5" y="4" width="3" height="1" fill="rgb(111,108,204)" fill-opacity="1.000" /><rect x="8" y="4" width="1" height="1" fill="rgb(149,133,230)" fill-opacity="1.000" /><rect x="9" y="4" width="2" height="1" fill="rgb(190,156,255)" fill-opacity="1.000" /><rect x="11" y="4" width="1" height="1" fill="rgb(149,133,230)" fill-opacity="1.000" /><rect x="12" y="4" width="1" height="1" fill="rgb(190,156,255)" fill-opacity="1.000" /><rect x="6" y="5" width="3" height="1" fill="rgb(127,67,108)" fill-opacity="1.000" /><rect x="9" y="5" width="1" height="1" fill="rgb(111,108,204)" fill-opacity="1.000" /><rect x="10" y="5" width="1" height="1" fill="rgb(149,133,230)" fill-opacity="1.000" /><rect x="11" y="5" width="2" height="1" fill="rgb(190,156,255)" fill-opacity="1.000" /><rect x="5" y="6" width="1" height="3" fill="rgb(111,108,204)" fill-opacity="1.000" /><rect x="6" y="6" width="1" height="1" fill="rgb(87,46,74)" fill-opacity="1.000" /><rect x="7" y="6" width="2" height="1" fill="rgb(127,67,108)" fill-opacity="1.000" /><rect x="9" y="6" width="1" height="1" fill="rgb(87,46,74)" fill-opacity="1.000" /><rect x="10" y="6" width="1" height="1" fill="rgb(77,84,153)" fill-opacity="1.000" /><rect x="6" y="7" width="4" height="1" fill="rgb(87,46,74)" fill-opacity="1.000" /><rect x="6" y="8" width="1" height="1" fill="rgb(77,84,153)" fill-opacity="1.000" /><rect x="7" y="8" width="2" height="1" fill="rgb(87,46,74)" fill-opacity="1.000" /><rect x="9" y="8" width="1" height="1" fill="rgb(77,84,153)" fill-opacity="1.000" /><rect x="4" y="9" width="1" height="2" fill="rgb(123,212,199)" fill-opacity="1.000" /><rect x="5" y="9" width="1" height="2" fill="rgb(112,134,181)" fill-opacity="1.000" /><rect x="6" y="9" width="1" height="1" fill="rgb(111,108,204)" fill-opacity="1.000" /><rect x="7" y="9" width="1" height="1" fill="rgb(77,84,153)" fill-opacity="1.000" /><rect x="10" y="9" width="1" height="1" fill="rgb(112,134,181)" fill-opacity="1.000" /><rect x="11" y="9" width="1" height="1" fill="rgb(123,174,199)" fill-opacity="1.000" /><rect x="11" y="11" width="1" height="2" fill="rgb(123,174,199)" fill-opacity="1.000" /><rect x="6" y="10" width="1" height="2" fill="rgb(123,212,199)" fill-opacity="1.000" /><rect x="6" y="14" width="1" height="1" fill="rgb(123,212,199)" fill-opacity="1.000" /><rect x="7" y="10" width="1" height="2" fill="rgb(112,134,181)" fill-opacity="1.000" /><rect x="7" y="14" width="1" height="2" fill="rgb(112,134,181)" fill-opacity="1.000" /><rect x="8" y="10" width="1" height="2" fill="rgb(123,174,199)" fill-opacity="1.000" /><rect x="8" y="14" width="1" height="1" fill="rgb(123,174,199)" fill-opacity="1.000" /><rect x="9" y="10" width="1" height="2" fill="rgb(123,212,199)" fill-opacity="1.000" /><rect x="9" y="14" width="1" height="1" fill="rgb(123,212,199)" fill-opacity="1.000" /><rect x="10" y="10" width="2" height="1" fill="rgb(123,174,199)" fill-opacity="1.000" /><rect x="3" y="11" width="1" height="1" fill="rgb(140,245,203)" fill-opacity="1.000" /><rect x="4" y="11" width="2" height="1" fill="rgb(123,174,199)" fill-opacity="1.000" /><rect x="10" y="11" width="1" height="1" fill="rgb(140,245,203)" fill-opacity="1.000" /><rect x="12" y="11" width="1" height="1" fill="rgb(140,245,203)" fill-opacity="1.000" /><rect x="3" y="12" width="1" height="1" fill="rgb(123,212,199)" fill-opacity="1.000" /><rect x="4" y="12" width="1" height="1" fill="rgb(123,174,199)" fill-opacity="1.000" /><rect x="5" y="12" width="2" height="1" fill="rgb(140,245,203)" fill-opacity="1.000" /><rect x="7" y="12" width="1" height="2" fill="rgb(123,174,199)" fill-opacity="1.000" /><rect x="8" y="12" width="1" height="1" fill="rgb(123,212,199)" fill-opacity="1.000" /><rect x="9" y="12" width="1" height="1" fill="rgb(140,245,203)" fill-opacity="1.000" /><rect x="10" y="12" width="1" height="1" fill="rgb(123,212,199)" fill-opacity="1.000" /><rect x="12" y="12" width="1" height="1" fill="rgb(123,212,199)" fill-opacity="1.000" /><rect x="3" y="13" width="1" height="2" fill="rgb(123,174,199)" fill-opacity="1.000" /><rect x="4" y="13" width="1" height="2" fill="rgb(112,134,181)" fill-opacity="1.000" /><rect x="5" y="13" width="2" height="1" fill="rgb(123,212,199)" fill-opacity="1.000" /><rect x="8" y="13" width="3" height="1" fill="rgb(123,212,199)" fill-opacity="1.000" /><rect x="11" y="13" width="1" height="3" fill="rgb(112,134,181)" fill-opacity="1.000" /><rect x="12" y="13" width="1" height="3" fill="rgb(123,174,199)" fill-opacity="1.000" /><rect x="5" y="14" width="1" height="1" fill="rgb(123,174,199)" fill-opacity="1.000" /><rect x="10" y="14" width="1" height="1" fill="rgb(123,174,199)" fill-opacity="1.000" /><rect x="3" y="15" width="2" height="1" fill="rgb(112,134,181)" fill-opacity="1.000" /><rect x="5" y="15" width="2" height="1" fill="rgb(123,174,199)" fill-opacity="1.000" /><rect x="8" y="15" width="3" height="1" fill="rgb(123,174,199)" fill-opacity="1.000" /></svg>