<?xml version='1.0' encoding='utf-8'?>
<svg width="16" height="16" viewBox="0 0 16 16" xmlns="http://www.w3.org/2000/svg"> <rect x="6" y="8" width="1" height="1" fill="rgb(255,255,255)" fill-opacity="1.000" /><rect x="8" y="8" width="2" height="1" fill="rgb(154,154,154)" fill-opacity="1.000" /><rect x="10" y="8" width="1" height="1" fill="rgb(99,99,99)" fill-opacity="1.000" /><rect x="10" y="13" width="1" height="1" fill="rgb(99,99,99)" fill-opacity="1.000" /><rect x="5" y="9" width="1" height="1" fill="rgb(99,99,99)" fill-opacity="1.000" /><rect x="5" y="12" width="1" height="1" fill="rgb(99,99,99)" fill-opacity="1.000" /><rect x="7" y="9" width="1" height="2" fill="rgb(255,255,255)" fill-opacity="1.000" /><rect x="8" y="9" width="2" height="1" fill="rgb(197,197,197)" fill-opacity="1.000" /><rect x="10" y="9" width="1" height="1" fill="rgb(154,154,154)" fill-opacity="1.000" /><rect x="11" y="9" width="1" height="1" fill="rgb(99,99,99)" fill-opacity="1.000" /><rect x="11" y="12" width="1" height="1" fill="rgb(99,99,99)" fill-opacity="1.000" /><rect x="5" y="10" width="1" height="2" fill="rgb(154,154,154)" fill-opacity="1.000" /><rect x="8" y="10" width="1" height="1" fill="rgb(170,170,170)" fill-opacity="1.000" /><rect x="9" y="10" width="2" height="1" fill="rgb(197,197,197)" fill-opacity="1.000" /><rect x="11" y="10" width="1" height="1" fill="rgb(154,154,154)" fill-opacity="1.000" /><rect x="6" y="11" width="2" height="1" fill="rgb(197,197,197)" fill-opacity="1.000" /><rect x="8" y="11" width="1" height="1" fill="rgb(148,148,148)" fill-opacity="1.000" /><rect x="9" y="11" width="1" height="1" fill="rgb(197,197,197)" fill-opacity="1.000" /><rect x="11" y="11" width="1" height="1" fill="rgb(166,166,166)" fill-opacity="1.000" /><rect x="6" y="12" width="1" height="1" fill="rgb(154,154,154)" fill-opacity="1.000" /><rect x="7" y="12" width="1" height="1" fill="rgb(197,197,197)" fill-opacity="1.000" /><rect x="8" y="12" width="1" height="1" fill="rgb(166,166,166)" fill-opacity="1.000" /><rect x="9" y="12" width="1" height="1" fill="rgb(154,154,154)" fill-opacity="1.000" /><rect x="6" y="13" width="1" height="1" fill="rgb(99,99,99)" fill-opacity="1.000" /><rect x="7" y="13" width="2" height="1" fill="rgb(154,154,154)" fill-opacity="1.000" /></svg>