<?xml version='1.0' encoding='utf-8'?>
<svg width="16" height="16" viewBox="0 0 16 16" xmlns="http://www.w3.org/2000/svg"> <rect x="9" y="0" width="3" height="1" fill="rgb(179,160,145)" fill-opacity="1.000" /><rect x="8" y="1" width="1" height="1" fill="rgb(179,160,145)" fill-opacity="1.000" /><rect x="9" y="1" width="2" height="1" fill="rgb(234,229,222)" fill-opacity="1.000" /><rect x="11" y="1" width="1" height="1" fill="rgb(179,160,145)" fill-opacity="1.000" /><rect x="11" y="10" width="1" height="1" fill="rgb(179,160,145)" fill-opacity="1.000" /><rect x="1" y="2" width="3" height="1" fill="rgb(179,160,145)" fill-opacity="1.000" /><rect x="7" y="2" width="1" height="1" fill="rgb(179,160,145)" fill-opacity="1.000" /><rect x="8" y="2" width="2" height="1" fill="rgb(234,229,222)" fill-opacity="1.000" /><rect x="10" y="2" width="1" height="1" fill="rgb(247,245,242)" fill-opacity="1.000" /><rect x="11" y="2" width="1" height="4" fill="rgb(137,123,115)" fill-opacity="1.000" /><rect x="1" y="3" width="1" height="3" fill="rgb(179,160,145)" fill-opacity="1.000" /><rect x="1" y="9" width="1" height="1" fill="rgb(179,160,145)" fill-opacity="1.000" /><rect x="2" y="3" width="2" height="2" fill="rgb(234,229,222)" fill-opacity="1.000" /><rect x="4" y="3" width="1" height="1" fill="rgb(137,123,115)" fill-opacity="1.000" /><rect x="4" y="9" width="1" height="2" fill="rgb(137,123,115)" fill-opacity="1.000" /><rect x="6" y="3" width="1" height="4" fill="rgb(179,160,145)" fill-opacity="1.000" /><rect x="7" y="3" width="2" height="1" fill="rgb(234,229,222)" fill-opacity="1.000" /><rect x="9" y="3" width="1" height="1" fill="rgb(247,245,242)" fill-opacity="1.000" /><rect x="10" y="3" width="1" height="1" fill="rgb(221,212,198)" fill-opacity="1.000" /><rect x="4" y="4" width="1" height="1" fill="rgb(247,245,242)" fill-opacity="1.000" /><rect x="5" y="4" width="1" height="1" fill="rgb(137,123,115)" fill-opacity="1.000" /><rect x="5" y="11" width="1" height="1" fill="rgb(137,123,115)" fill-opacity="1.000" /><rect x="7" y="4" width="2" height="1" fill="rgb(247,245,242)" fill-opacity="1.000" /><rect x="9" y="4" width="1" height="1" fill="rgb(229,223,214)" fill-opacity="1.000" /><rect x="10" y="4" width="1" height="1" fill="rgb(212,202,186)" fill-opacity="1.000" /><rect x="2" y="5" width="2" height="1" fill="rgb(247,245,242)" fill-opacity="1.000" /><rect x="4" y="5" width="1" height="1" fill="rgb(229,223,214)" fill-opacity="1.000" /><rect x="5" y="5" width="1" height="1" fill="rgb(212,202,186)" fill-opacity="1.000" /><rect x="7" y="5" width="2" height="1" fill="rgb(229,223,214)" fill-opacity="1.000" /><rect x="9" y="5" width="1" height="1" fill="rgb(221,212,198)" fill-opacity="1.000" /><rect x="10" y="5" width="1" height="1" fill="rgb(182,164,142)" fill-opacity="1.000" /><rect x="10" y="10" width="1" height="1" fill="rgb(182,164,142)" fill-opacity="1.000" /><rect x="10" y="12" width="1" height="1" fill="rgb(182,164,142)" fill-opacity="1.000" /><rect x="12" y="5" width="2" height="1" fill="rgb(179,160,145)" fill-opacity="1.000" /><rect x="2" y="6" width="1" height="1" fill="rgb(137,123,115)" fill-opacity="1.000" /><rect x="3" y="6" width="2" height="1" fill="rgb(229,223,214)" fill-opacity="1.000" /><rect x="5" y="6" width="1" height="1" fill="rgb(182,164,142)" fill-opacity="1.000" /><rect x="5" y="10" width="1" height="1" fill="rgb(182,164,142)" fill-opacity="1.000" /><rect x="7" y="6" width="1" height="1" fill="rgb(221,212,198)" fill-opacity="1.000" /><rect x="7" y="9" width="1" height="2" fill="rgb(221,212,198)" fill-opacity="1.000" /><rect x="8" y="6" width="1" height="2" fill="rgb(229,223,214)" fill-opacity="1.000" /><rect x="9" y="6" width="1" height="1" fill="rgb(212,202,186)" fill-opacity="1.000" /><rect x="10" y="6" width="1" height="2" fill="rgb(137,123,115)" fill-opacity="1.000" /><rect x="10" y="11" width="1" height="1" fill="rgb(137,123,115)" fill-opacity="1.000" /><rect x="11" y="6" width="1" height="1" fill="rgb(229,223,214)" fill-opacity="1.000" /><rect x="12" y="6" width="1" height="1" fill="rgb(247,245,242)" fill-opacity="1.000" /><rect x="12" y="11" width="1" height="1" fill="rgb(247,245,242)" fill-opacity="1.000" /><rect x="13" y="6" width="1" height="1" fill="rgb(179,160,145)" fill-opacity="1.000" /><rect x="3" y="7" width="1" height="2" fill="rgb(137,123,115)" fill-opacity="1.000" /><rect x="4" y="7" width="1" height="1" fill="rgb(212,202,186)" fill-opacity="1.000" /><rect x="5" y="7" width="1" height="3" fill="rgb(179,160,145)" fill-opacity="1.000" /><rect x="6" y="7" width="2" height="1" fill="rgb(221,212,198)" fill-opacity="1.000" /><rect x="9" y="7" width="1" height="3" fill="rgb(182,164,142)" fill-opacity="1.000" /><rect x="11" y="7" width="1" height="2" fill="rgb(212,202,186)" fill-opacity="1.000" /><rect x="11" y="11" width="1" height="2" fill="rgb(212,202,186)" fill-opacity="1.000" /><rect x="12" y="7" width="1" height="1" fill="rgb(229,223,214)" fill-opacity="1.000" /><rect x="13" y="7" width="1" height="1" fill="rgb(137,123,115)" fill-opacity="1.000" /><rect x="1" y="8" width="2" height="1" fill="rgb(179,160,145)" fill-opacity="1.000" /><rect x="4" y="8" width="1" height="1" fill="rgb(182,164,142)" fill-opacity="1.000" /><rect x="4" y="13" width="1" height="1" fill="rgb(182,164,142)" fill-opacity="1.000" /><rect x="6" y="8" width="3" height="1" fill="rgb(221,212,198)" fill-opacity="1.000" /><rect x="10" y="8" width="1" height="2" fill="rgb(111,93,90)" fill-opacity="1.000" /><rect x="12" y="8" width="1" height="1" fill="rgb(111,93,90)" fill-opacity="1.000" /><rect x="12" y="13" width="1" height="1" fill="rgb(111,93,90)" fill-opacity="1.000" /><rect x="2" y="9" width="1" height="1" fill="rgb(234,229,222)" fill-opacity="1.000" /><rect x="3" y="9" width="1" height="1" fill="rgb(179,160,145)" fill-opacity="1.000" /><rect x="6" y="9" width="1" height="2" fill="rgb(212,202,186)" fill-opacity="1.000" /><rect x="6" y="12" width="1" height="1" fill="rgb(212,202,186)" fill-opacity="1.000" /><rect x="8" y="9" width="1" height="1" fill="rgb(212,202,186)" fill-opacity="1.000" /><rect x="11" y="9" width="1" height="1" fill="rgb(182,164,142)" fill-opacity="1.000" /><rect x="12" y="9" width="3" height="1" fill="rgb(179,160,145)" fill-opacity="1.000" /><rect x="1" y="10" width="1" height="2" fill="rgb(137,123,115)" fill-opacity="1.000" /><rect x="2" y="10" width="1" height="1" fill="rgb(247,245,242)" fill-opacity="1.000" /><rect x="3" y="10" width="1" height="1" fill="rgb(234,229,222)" fill-opacity="1.000" /><rect x="8" y="10" width="1" height="2" fill="rgb(182,164,142)" fill-opacity="1.000" /><rect x="9" y="10" width="1" height="4" fill="rgb(111,93,90)" fill-opacity="1.000" /><rect x="12" y="10" width="2" height="1" fill="rgb(229,223,214)" fill-opacity="1.000" /><rect x="14" y="10" width="1" height="1" fill="rgb(179,160,145)" fill-opacity="1.000" /><rect x="2" y="11" width="1" height="1" fill="rgb(212,202,186)" fill-opacity="1.000" /><rect x="3" y="11" width="1" height="1" fill="rgb(247,245,242)" fill-opacity="1.000" /><rect x="4" y="11" width="1" height="1" fill="rgb(234,229,222)" fill-opacity="1.000" /><rect x="6" y="11" width="2" height="1" fill="rgb(212,202,186)" fill-opacity="1.000" /><rect x="13" y="11" width="1" height="1" fill="rgb(212,202,186)" fill-opacity="1.000" /><rect x="14" y="11" width="1" height="1" fill="rgb(137,123,115)" fill-opacity="1.000" /><rect x="1" y="12" width="1" height="1" fill="rgb(111,93,90)" fill-opacity="1.000" /><rect x="2" y="12" width="3" height="1" fill="rgb(212,202,186)" fill-opacity="1.000" /><rect x="5" y="12" width="1" height="1" fill="rgb(111,93,90)" fill-opacity="1.000" /><rect x="7" y="12" width="2" height="2" fill="rgb(182,164,142)" fill-opacity="1.000" /><rect x="12" y="12" width="1" height="1" fill="rgb(182,164,142)" fill-opacity="1.000" /><rect x="13" y="12" width="1" height="1" fill="rgb(111,93,90)" fill-opacity="1.000" /><rect x="2" y="13" width="1" height="1" fill="rgb(111,93,90)" fill-opacity="1.000" /><rect x="3" y="13" width="1" height="1" fill="rgb(212,202,186)" fill-opacity="1.000" /><rect x="5" y="13" width="2" height="1" fill="rgb(111,93,90)" fill-opacity="1.000" /><rect x="10" y="13" width="2" height="1" fill="rgb(182,164,142)" fill-opacity="1.000" /><rect x="3" y="14" width="2" height="1" fill="rgb(111,93,90)" fill-opacity="1.000" /><rect x="7" y="14" width="2" height="1" fill="rgb(111,93,90)" fill-opacity="1.000" /><rect x="10" y="14" width="2" height="1" fill="rgb(111,93,90)" fill-opacity="1.000" /></svg>