<?xml version='1.0' encoding='utf-8'?>
<svg width="16" height="16" viewBox="0 0 16 16" xmlns="http://www.w3.org/2000/svg"> <rect x="7" y="5" width="1" height="1" fill="rgb(164,80,48)" fill-opacity="1.000" /><rect x="8" y="5" width="1" height="3" fill="rgb(210,129,85)" fill-opacity="1.000" /><rect x="5" y="6" width="2" height="1" fill="rgb(152,74,44)" fill-opacity="1.000" /><rect x="7" y="6" width="1" height="2" fill="rgb(110,46,27)" fill-opacity="1.000" /><rect x="9" y="6" width="1" height="1" fill="rgb(255,167,63)" fill-opacity="1.000" /><rect x="10" y="6" width="1" height="1" fill="rgb(255,142,9)" fill-opacity="1.000" /><rect x="3" y="7" width="2" height="1" fill="rgb(152,74,44)" fill-opacity="1.000" /><rect x="5" y="7" width="1" height="1" fill="rgb(226,156,74)" fill-opacity="1.000" /><rect x="6" y="7" width="1" height="1" fill="rgb(210,129,85)" fill-opacity="1.000" /><rect x="9" y="7" width="1" height="1" fill="rgb(255,142,9)" fill-opacity="1.000" /><rect x="10" y="7" width="1" height="1" fill="rgb(211,106,13)" fill-opacity="1.000" /><rect x="11" y="7" width="2" height="1" fill="rgb(152,74,44)" fill-opacity="1.000" /><rect x="2" y="8" width="1" height="1" fill="rgb(152,74,44)" fill-opacity="1.000" /><rect x="3" y="8" width="1" height="1" fill="rgb(226,157,74)" fill-opacity="1.000" /><rect x="4" y="8" width="1" height="1" fill="rgb(242,175,91)" fill-opacity="1.000" /><rect x="5" y="8" width="1" height="1" fill="rgb(183,102,15)" fill-opacity="1.000" /><rect x="6" y="8" width="1" height="1" fill="rgb(255,142,9)" fill-opacity="1.000" /><rect x="7" y="8" width="1" height="1" fill="rgb(210,129,85)" fill-opacity="1.000" /><rect x="8" y="8" width="1" height="1" fill="rgb(110,46,27)" fill-opacity="1.000" /><rect x="9" y="8" width="1" height="1" fill="rgb(205,140,111)" fill-opacity="1.000" /><rect x="10" y="8" width="1" height="2" fill="rgb(210,129,85)" fill-opacity="1.000" /><rect x="11" y="8" width="1" height="1" fill="rgb(255,142,9)" fill-opacity="1.000" /><rect x="12" y="8" width="1" height="1" fill="rgb(205,140,111)" fill-opacity="1.000" /><rect x="13" y="8" width="1" height="1" fill="rgb(152,74,44)" fill-opacity="1.000" /><rect x="2" y="9" width="1" height="2" fill="rgb(63,43,11)" fill-opacity="1.000" /><rect x="3" y="9" width="2" height="1" fill="rgb(69,50,13)" fill-opacity="1.000" /><rect x="5" y="9" width="2" height="1" fill="rgb(210,129,85)" fill-opacity="1.000" /><rect x="7" y="9" width="2" height="1" fill="rgb(152,74,44)" fill-opacity="1.000" /><rect x="9" y="9" width="1" height="1" fill="rgb(210,127,83)" fill-opacity="1.000" /><rect x="11" y="9" width="2" height="1" fill="rgb(69,50,13)" fill-opacity="1.000" /><rect x="13" y="9" width="1" height="2" fill="rgb(31,21,2)" fill-opacity="1.000" /><rect x="3" y="10" width="1" height="1" fill="rgb(113,79,15)" fill-opacity="1.000" /><rect x="4" y="10" width="1" height="1" fill="rgb(83,57,9)" fill-opacity="1.000" /><rect x="5" y="10" width="6" height="1" fill="rgb(69,50,13)" fill-opacity="1.000" /><rect x="11" y="10" width="1" height="1" fill="rgb(83,57,9)" fill-opacity="1.000" /><rect x="12" y="10" width="1" height="1" fill="rgb(58,39,6)" fill-opacity="1.000" /><rect x="3" y="11" width="1" height="1" fill="rgb(48,33,9)" fill-opacity="1.000" /><rect x="4" y="11" width="6" height="1" fill="rgb(113,79,15)" fill-opacity="1.000" /><rect x="10" y="11" width="1" height="1" fill="rgb(83,57,9)" fill-opacity="1.000" /><rect x="11" y="11" width="1" height="1" fill="rgb(58,39,6)" fill-opacity="1.000" /><rect x="12" y="11" width="1" height="1" fill="rgb(31,21,2)" fill-opacity="1.000" /><rect x="4" y="12" width="2" height="1" fill="rgb(31,21,2)" fill-opacity="1.000" /><rect x="6" y="12" width="1" height="1" fill="rgb(83,57,9)" fill-opacity="1.000" /><rect x="7" y="12" width="2" height="1" fill="rgb(113,79,15)" fill-opacity="1.000" /><rect x="9" y="12" width="1" height="1" fill="rgb(83,57,9)" fill-opacity="1.000" /><rect x="10" y="12" width="2" height="1" fill="rgb(31,21,2)" fill-opacity="1.000" /><rect x="6" y="13" width="4" height="1" fill="rgb(31,21,2)" fill-opacity="1.000" /></svg>