<?xml version='1.0' encoding='utf-8'?>
<svg width="16" height="16" viewBox="0 0 16 16" xmlns="http://www.w3.org/2000/svg"> <rect x="3" y="2" width="3" height="1" fill="rgb(42,84,71)" fill-opacity="1.000" /><rect x="9" y="2" width="1" height="1" fill="rgb(42,84,71)" fill-opacity="1.000" /><rect x="10" y="2" width="4" height="1" fill="rgb(136,63,38)" fill-opacity="1.000" /><rect x="2" y="3" width="1" height="1" fill="rgb(42,84,71)" fill-opacity="1.000" /><rect x="3" y="3" width="1" height="1" fill="rgb(77,141,121)" fill-opacity="1.000" /><rect x="3" y="7" width="1" height="1" fill="rgb(77,141,121)" fill-opacity="1.000" /><rect x="4" y="3" width="2" height="1" fill="rgb(58,116,99)" fill-opacity="1.000" /><rect x="6" y="3" width="3" height="1" fill="rgb(42,84,71)" fill-opacity="1.000" /><rect x="9" y="3" width="1" height="1" fill="rgb(148,109,61)" fill-opacity="1.000" /><rect x="10" y="3" width="1" height="1" fill="rgb(233,122,82)" fill-opacity="1.000" /><rect x="11" y="3" width="2" height="1" fill="rgb(252,153,130)" fill-opacity="1.000" /><rect x="13" y="3" width="1" height="1" fill="rgb(201,94,53)" fill-opacity="1.000" /><rect x="14" y="3" width="1" height="1" fill="rgb(136,63,38)" fill-opacity="1.000" /><rect x="1" y="4" width="1" height="2" fill="rgb(42,84,71)" fill-opacity="1.000" /><rect x="2" y="4" width="2" height="1" fill="rgb(79,186,152)" fill-opacity="1.000" /><rect x="4" y="4" width="1" height="1" fill="rgb(77,141,121)" fill-opacity="1.000" /><rect x="4" y="6" width="1" height="1" fill="rgb(77,141,121)" fill-opacity="1.000" /><rect x="5" y="4" width="1" height="1" fill="rgb(79,186,152)" fill-opacity="1.000" /><rect x="6" y="4" width="1" height="1" fill="rgb(58,116,99)" fill-opacity="1.000" /><rect x="7" y="4" width="1" height="1" fill="rgb(77,141,121)" fill-opacity="1.000" /><rect x="8" y="4" width="1" height="1" fill="rgb(148,109,61)" fill-opacity="1.000" /><rect x="9" y="4" width="1" height="1" fill="rgb(233,122,82)" fill-opacity="1.000" /><rect x="9" y="11" width="1" height="1" fill="rgb(233,122,82)" fill-opacity="1.000" /><rect x="10" y="4" width="1" height="1" fill="rgb(252,153,130)" fill-opacity="1.000" /><rect x="10" y="9" width="1" height="1" fill="rgb(252,153,130)" fill-opacity="1.000" /><rect x="11" y="4" width="1" height="1" fill="rgb(254,195,182)" fill-opacity="1.000" /><rect x="12" y="4" width="1" height="1" fill="rgb(252,153,130)" fill-opacity="1.000" /><rect x="13" y="4" width="1" height="1" fill="rgb(233,122,82)" fill-opacity="1.000" /><rect x="14" y="4" width="1" height="2" fill="rgb(109,52,33)" fill-opacity="1.000" /><rect x="2" y="5" width="1" height="1" fill="rgb(132,226,197)" fill-opacity="1.000" /><rect x="3" y="5" width="1" height="1" fill="rgb(201,250,236)" fill-opacity="1.000" /><rect x="4" y="5" width="1" height="1" fill="rgb(132,226,197)" fill-opacity="1.000" /><rect x="5" y="5" width="2" height="1" fill="rgb(79,186,152)" fill-opacity="1.000" /><rect x="7" y="5" width="2" height="1" fill="rgb(148,109,61)" fill-opacity="1.000" /><rect x="9" y="5" width="2" height="1" fill="rgb(201,94,53)" fill-opacity="1.000" /><rect x="9" y="12" width="2" height="1" fill="rgb(201,94,53)" fill-opacity="1.000" /><rect x="11" y="5" width="1" height="1" fill="rgb(233,122,82)" fill-opacity="1.000" /><rect x="11" y="10" width="1" height="1" fill="rgb(233,122,82)" fill-opacity="1.000" /><rect x="12" y="5" width="1" height="2" fill="rgb(201,94,53)" fill-opacity="1.000" /><rect x="12" y="10" width="1" height="1" fill="rgb(201,94,53)" fill-opacity="1.000" /><rect x="13" y="5" width="1" height="1" fill="rgb(136,63,38)" fill-opacity="1.000" /><rect x="0" y="6" width="1" height="3" fill="rgb(136,63,38)" fill-opacity="1.000" /><rect x="1" y="6" width="1" height="1" fill="rgb(58,116,99)" fill-opacity="1.000" /><rect x="2" y="6" width="1" height="1" fill="rgb(148,109,61)" fill-opacity="1.000" /><rect x="3" y="6" width="1" height="1" fill="rgb(79,186,152)" fill-opacity="1.000" /><rect x="5" y="6" width="2" height="1" fill="rgb(58,116,99)" fill-opacity="1.000" /><rect x="7" y="6" width="1" height="1" fill="rgb(148,109,61)" fill-opacity="1.000" /><rect x="8" y="6" width="1" height="1" fill="rgb(165,73,38)" fill-opacity="1.000" /><rect x="9" y="6" width="2" height="1" fill="rgb(136,63,38)" fill-opacity="1.000" /><rect x="11" y="6" width="1" height="1" fill="rgb(165,73,38)" fill-opacity="1.000" /><rect x="11" y="12" width="1" height="1" fill="rgb(165,73,38)" fill-opacity="1.000" /><rect x="13" y="6" width="1" height="2" fill="rgb(109,52,33)" fill-opacity="1.000" /><rect x="1" y="7" width="1" height="1" fill="rgb(252,153,130)" fill-opacity="1.000" /><rect x="2" y="7" width="1" height="1" fill="rgb(233,122,82)" fill-opacity="1.000" /><rect x="2" y="10" width="1" height="1" fill="rgb(233,122,82)" fill-opacity="1.000" /><rect x="4" y="7" width="1" height="1" fill="rgb(148,109,61)" fill-opacity="1.000" /><rect x="5" y="7" width="1" height="1" fill="rgb(58,116,99)" fill-opacity="1.000" /><rect x="6" y="7" width="1" height="1" fill="rgb(148,109,61)" fill-opacity="1.000" /><rect x="7" y="7" width="1" height="2" fill="rgb(165,73,38)" fill-opacity="1.000" /><rect x="7" y="10" width="1" height="1" fill="rgb(165,73,38)" fill-opacity="1.000" /><rect x="8" y="7" width="2" height="2" fill="rgb(136,63,38)" fill-opacity="1.000" /><rect x="10" y="7" width="3" height="1" fill="rgb(165,73,38)" fill-opacity="1.000" /><rect x="1" y="8" width="2" height="1" fill="rgb(252,153,130)" fill-opacity="1.000" /><rect x="3" y="8" width="1" height="1" fill="rgb(233,122,82)" fill-opacity="1.000" /><rect x="4" y="8" width="1" height="1" fill="rgb(201,94,53)" fill-opacity="1.000" /><rect x="5" y="8" width="1" height="1" fill="rgb(148,109,61)" fill-opacity="1.000" /><rect x="6" y="8" width="1" height="1" fill="rgb(201,94,53)" fill-opacity="1.000" /><rect x="10" y="8" width="1" height="1" fill="rgb(165,73,38)" fill-opacity="1.000" /><rect x="11" y="8" width="1" height="1" fill="rgb(136,63,38)" fill-opacity="1.000" /><rect x="12" y="8" width="3" height="1" fill="rgb(109,52,33)" fill-opacity="1.000" /><rect x="0" y="9" width="1" height="1" fill="rgb(109,52,33)" fill-opacity="1.000" /><rect x="1" y="9" width="1" height="1" fill="rgb(233,122,82)" fill-opacity="1.000" /><rect x="2" y="9" width="1" height="1" fill="rgb(252,153,130)" fill-opacity="1.000" /><rect x="3" y="9" width="1" height="1" fill="rgb(201,94,53)" fill-opacity="1.000" /><rect x="4" y="9" width="1" height="1" fill="rgb(233,122,82)" fill-opacity="1.000" /><rect x="5" y="9" width="1" height="1" fill="rgb(201,94,53)" fill-opacity="1.000" /><rect x="6" y="9" width="1" height="1" fill="rgb(165,73,38)" fill-opacity="1.000" /><rect x="7" y="9" width="2" height="1" fill="rgb(136,63,38)" fill-opacity="1.000" /><rect x="9" y="9" width="1" height="1" fill="rgb(165,73,38)" fill-opacity="1.000" /><rect x="11" y="9" width="1" height="1" fill="rgb(201,94,53)" fill-opacity="1.000" /><rect x="12" y="9" width="1" height="1" fill="rgb(233,122,82)" fill-opacity="1.000" /><rect x="13" y="9" width="2" height="1" fill="rgb(165,73,38)" fill-opacity="1.000" /><rect x="15" y="9" width="1" height="1" fill="rgb(109,52,33)" fill-opacity="1.000" /><rect x="1" y="10" width="1" height="1" fill="rgb(109,52,33)" fill-opacity="1.000" /><rect x="3" y="10" width="2" height="1" fill="rgb(201,94,53)" fill-opacity="1.000" /><rect x="5" y="10" width="1" height="2" fill="rgb(165,73,38)" fill-opacity="1.000" /><rect x="6" y="10" width="1" height="1" fill="rgb(136,63,38)" fill-opacity="1.000" /><rect x="8" y="10" width="1" height="1" fill="rgb(136,63,38)" fill-opacity="1.000" /><rect x="9" y="10" width="1" height="1" fill="rgb(252,153,130)" fill-opacity="1.000" /><rect x="10" y="10" width="1" height="1" fill="rgb(254,195,182)" fill-opacity="1.000" /><rect x="13" y="10" width="1" height="1" fill="rgb(165,73,38)" fill-opacity="1.000" /><rect x="14" y="10" width="1" height="1" fill="rgb(99,91,64)" fill-opacity="1.000" /><rect x="15" y="10" width="1" height="3" fill="rgb(36,59,52)" fill-opacity="1.000" /><rect x="1" y="11" width="1" height="2" fill="rgb(36,59,52)" fill-opacity="1.000" /><rect x="2" y="11" width="1" height="1" fill="rgb(99,91,64)" fill-opacity="1.000" /><rect x="3" y="11" width="1" height="1" fill="rgb(165,73,38)" fill-opacity="1.000" /><rect x="4" y="11" width="1" height="1" fill="rgb(136,63,38)" fill-opacity="1.000" /><rect x="6" y="11" width="2" height="1" fill="rgb(136,63,38)" fill-opacity="1.000" /><rect x="8" y="11" width="1" height="1" fill="rgb(109,52,33)" fill-opacity="1.000" /><rect x="10" y="11" width="2" height="1" fill="rgb(252,153,130)" fill-opacity="1.000" /><rect x="12" y="11" width="1" height="1" fill="rgb(165,73,38)" fill-opacity="1.000" /><rect x="13" y="11" width="1" height="1" fill="rgb(99,91,64)" fill-opacity="1.000" /><rect x="14" y="11" width="1" height="1" fill="rgb(58,116,99)" fill-opacity="1.000" /><rect x="2" y="12" width="1" height="1" fill="rgb(77,141,121)" fill-opacity="1.000" /><rect x="3" y="12" width="1" height="1" fill="rgb(58,116,99)" fill-opacity="1.000" /><rect x="4" y="12" width="1" height="1" fill="rgb(99,91,64)" fill-opacity="1.000" /><rect x="5" y="12" width="1" height="1" fill="rgb(136,63,38)" fill-opacity="1.000" /><rect x="6" y="12" width="3" height="1" fill="rgb(109,52,33)" fill-opacity="1.000" /><rect x="12" y="12" width="1" height="1" fill="rgb(136,63,38)" fill-opacity="1.000" /><rect x="13" y="12" width="2" height="1" fill="rgb(58,116,99)" fill-opacity="1.000" /><rect x="2" y="13" width="3" height="1" fill="rgb(36,59,52)" fill-opacity="1.000" /><rect x="5" y="13" width="1" height="1" fill="rgb(109,52,33)" fill-opacity="1.000" /><rect x="9" y="13" width="1" height="1" fill="rgb(109,52,33)" fill-opacity="1.000" /><rect x="10" y="13" width="1" height="1" fill="rgb(201,94,53)" fill-opacity="1.000" /><rect x="11" y="13" width="2" height="1" fill="rgb(136,63,38)" fill-opacity="1.000" /><rect x="13" y="13" width="2" height="1" fill="rgb(36,59,52)" fill-opacity="1.000" /><rect x="10" y="14" width="3" height="1" fill="rgb(36,59,52)" fill-opacity="1.000" /></svg>