<?xml version='1.0' encoding='utf-8'?>
<svg width="16" height="16" viewBox="0 0 16 16" xmlns="http://www.w3.org/2000/svg"> <rect x="5" y="1" width="6" height="1" fill="rgb(33,46,43)" fill-opacity="1.000" /><rect x="3" y="2" width="2" height="1" fill="rgb(33,46,43)" fill-opacity="1.000" /><rect x="5" y="2" width="2" height="1" fill="rgb(168,168,168)" fill-opacity="1.000" /><rect x="7" y="2" width="1" height="1" fill="rgb(255,255,255)" fill-opacity="1.000" /><rect x="8" y="2" width="1" height="1" fill="rgb(168,168,168)" fill-opacity="1.000" /><rect x="9" y="2" width="1" height="1" fill="rgb(130,130,130)" fill-opacity="1.000" /><rect x="10" y="2" width="1" height="1" fill="rgb(94,94,94)" fill-opacity="1.000" /><rect x="11" y="2" width="2" height="1" fill="rgb(33,46,43)" fill-opacity="1.000" /><rect x="2" y="3" width="1" height="1" fill="rgb(33,46,43)" fill-opacity="1.000" /><rect x="2" y="6" width="1" height="1" fill="rgb(33,46,43)" fill-opacity="1.000" /><rect x="2" y="11" width="1" height="1" fill="rgb(33,46,43)" fill-opacity="1.000" /><rect x="3" y="3" width="1" height="1" fill="rgb(94,94,94)" fill-opacity="1.000" /><rect x="3" y="9" width="1" height="1" fill="rgb(94,94,94)" fill-opacity="1.000" /><rect x="4" y="3" width="1" height="1" fill="rgb(130,130,130)" fill-opacity="1.000" /><rect x="4" y="9" width="1" height="1" fill="rgb(130,130,130)" fill-opacity="1.000" /><rect x="5" y="3" width="1" height="1" fill="rgb(16,82,87)" fill-opacity="1.000" /><rect x="6" y="3" width="2" height="1" fill="rgb(19,142,153)" fill-opacity="1.000" /><rect x="8" y="3" width="3" height="1" fill="rgb(16,82,87)" fill-opacity="1.000" /><rect x="11" y="3" width="2" height="1" fill="rgb(94,94,94)" fill-opacity="1.000" /><rect x="13" y="3" width="1" height="1" fill="rgb(33,46,43)" fill-opacity="1.000" /><rect x="13" y="6" width="1" height="1" fill="rgb(33,46,43)" fill-opacity="1.000" /><rect x="13" y="11" width="1" height="1" fill="rgb(33,46,43)" fill-opacity="1.000" /><rect x="1" y="4" width="1" height="1" fill="rgb(33,46,43)" fill-opacity="1.000" /><rect x="1" y="10" width="1" height="1" fill="rgb(33,46,43)" fill-opacity="1.000" /><rect x="2" y="4" width="1" height="1" fill="rgb(94,94,94)" fill-opacity="1.000" /><rect x="3" y="4" width="1" height="1" fill="rgb(71,68,68)" fill-opacity="1.000" /><rect x="4" y="4" width="1" height="1" fill="rgb(16,82,87)" fill-opacity="1.000" /><rect x="5" y="4" width="6" height="1" fill="rgb(11,22,18)" fill-opacity="1.000" /><rect x="11" y="4" width="1" height="1" fill="rgb(16,82,87)" fill-opacity="1.000" /><rect x="12" y="4" width="1" height="1" fill="rgb(71,68,68)" fill-opacity="1.000" /><rect x="13" y="4" width="1" height="1" fill="rgb(130,130,130)" fill-opacity="1.000" /><rect x="14" y="4" width="1" height="1" fill="rgb(33,46,43)" fill-opacity="1.000" /><rect x="14" y="10" width="1" height="1" fill="rgb(33,46,43)" fill-opacity="1.000" /><rect x="0" y="5" width="1" height="3" fill="rgb(33,46,43)" fill-opacity="1.000" /><rect x="1" y="5" width="1" height="1" fill="rgb(130,130,130)" fill-opacity="1.000" /><rect x="1" y="7" width="1" height="1" fill="rgb(130,130,130)" fill-opacity="1.000" /><rect x="2" y="5" width="1" height="1" fill="rgb(71,68,68)" fill-opacity="1.000" /><rect x="2" y="9" width="1" height="1" fill="rgb(71,68,68)" fill-opacity="1.000" /><rect x="3" y="5" width="1" height="1" fill="rgb(16,82,87)" fill-opacity="1.000" /><rect x="4" y="5" width="4" height="1" fill="rgb(11,22,18)" fill-opacity="1.000" /><rect x="8" y="5" width="2" height="1" fill="rgb(0,102,148)" fill-opacity="1.000" /><rect x="10" y="5" width="2" height="1" fill="rgb(11,22,18)" fill-opacity="1.000" /><rect x="12" y="5" width="1" height="1" fill="rgb(16,82,87)" fill-opacity="1.000" /><rect x="13" y="5" width="1" height="1" fill="rgb(71,68,68)" fill-opacity="1.000" /><rect x="13" y="9" width="1" height="1" fill="rgb(71,68,68)" fill-opacity="1.000" /><rect x="14" y="5" width="1" height="2" fill="rgb(168,168,168)" fill-opacity="1.000" /><rect x="15" y="5" width="1" height="3" fill="rgb(33,46,43)" fill-opacity="1.000" /><rect x="1" y="6" width="1" height="1" fill="rgb(168,168,168)" fill-opacity="1.000" /><rect x="3" y="6" width="4" height="1" fill="rgb(11,22,18)" fill-opacity="1.000" /><rect x="7" y="6" width="1" height="1" fill="rgb(0,84,121)" fill-opacity="1.000" /><rect x="8" y="6" width="1" height="1" fill="rgb(41,223,235)" fill-opacity="1.000" /><rect x="9" y="6" width="1" height="1" fill="rgb(0,84,121)" fill-opacity="1.000" /><rect x="10" y="6" width="3" height="1" fill="rgb(11,22,18)" fill-opacity="1.000" /><rect x="2" y="7" width="1" height="1" fill="rgb(168,168,168)" fill-opacity="1.000" /><rect x="3" y="7" width="1" height="1" fill="rgb(33,46,43)" fill-opacity="1.000" /><rect x="3" y="12" width="1" height="1" fill="rgb(33,46,43)" fill-opacity="1.000" /><rect x="4" y="7" width="3" height="1" fill="rgb(11,22,18)" fill-opacity="1.000" /><rect x="7" y="7" width="1" height="1" fill="rgb(41,223,235)" fill-opacity="1.000" /><rect x="8" y="7" width="1" height="1" fill="rgb(20,187,198)" fill-opacity="1.000" /><rect x="9" y="7" width="3" height="1" fill="rgb(11,22,18)" fill-opacity="1.000" /><rect x="12" y="7" width="1" height="1" fill="rgb(33,46,43)" fill-opacity="1.000" /><rect x="12" y="12" width="1" height="1" fill="rgb(33,46,43)" fill-opacity="1.000" /><rect x="13" y="7" width="1" height="1" fill="rgb(168,168,168)" fill-opacity="1.000" /><rect x="14" y="7" width="1" height="1" fill="rgb(130,130,130)" fill-opacity="1.000" /><rect x="0" y="8" width="1" height="3" fill="rgb(13,13,13)" fill-opacity="1.000" /><rect x="1" y="8" width="1" height="1" fill="rgb(71,68,68)" fill-opacity="1.000" /><rect x="2" y="8" width="2" height="1" fill="rgb(130,130,130)" fill-opacity="1.000" /><rect x="4" y="8" width="1" height="1" fill="rgb(94,94,94)" fill-opacity="1.000" /><rect x="5" y="8" width="1" height="1" fill="rgb(11,22,18)" fill-opacity="1.000" /><rect x="6" y="8" width="1" height="1" fill="rgb(41,223,235)" fill-opacity="1.000" /><rect x="7" y="8" width="1" height="1" fill="rgb(20,187,198)" fill-opacity="1.000" /><rect x="8" y="8" width="3" height="1" fill="rgb(11,22,18)" fill-opacity="1.000" /><rect x="11" y="8" width="1" height="1" fill="rgb(94,94,94)" fill-opacity="1.000" /><rect x="12" y="8" width="2" height="1" fill="rgb(130,130,130)" fill-opacity="1.000" /><rect x="14" y="8" width="1" height="1" fill="rgb(71,68,68)" fill-opacity="1.000" /><rect x="15" y="8" width="1" height="3" fill="rgb(13,13,13)" fill-opacity="1.000" /><rect x="1" y="9" width="1" height="1" fill="rgb(16,82,87)" fill-opacity="1.000" /><rect x="5" y="9" width="1" height="1" fill="rgb(94,94,94)" fill-opacity="1.000" /><rect x="6" y="9" width="1" height="1" fill="rgb(130,130,130)" fill-opacity="1.000" /><rect x="7" y="9" width="4" height="1" fill="rgb(94,94,94)" fill-opacity="1.000" /><rect x="11" y="9" width="1" height="1" fill="rgb(130,130,130)" fill-opacity="1.000" /><rect x="12" y="9" width="1" height="1" fill="rgb(94,94,94)" fill-opacity="1.000" /><rect x="14" y="9" width="1" height="1" fill="rgb(16,82,87)" fill-opacity="1.000" /><rect x="2" y="10" width="1" height="1" fill="rgb(19,142,153)" fill-opacity="1.000" /><rect x="3" y="10" width="2" height="1" fill="rgb(71,68,68)" fill-opacity="1.000" /><rect x="5" y="10" width="1" height="1" fill="rgb(168,168,168)" fill-opacity="1.000" /><rect x="6" y="10" width="1" height="1" fill="rgb(255,255,255)" fill-opacity="1.000" /><rect x="7" y="10" width="2" height="1" fill="rgb(168,168,168)" fill-opacity="1.000" /><rect x="9" y="10" width="2" height="1" fill="rgb(130,130,130)" fill-opacity="1.000" /><rect x="11" y="10" width="2" height="1" fill="rgb(71,68,68)" fill-opacity="1.000" /><rect x="13" y="10" width="1" height="1" fill="rgb(19,142,153)" fill-opacity="1.000" /><rect x="1" y="11" width="1" height="1" fill="rgb(13,13,13)" fill-opacity="1.000" /><rect x="3" y="11" width="2" height="1" fill="rgb(41,223,235)" fill-opacity="1.000" /><rect x="5" y="11" width="5" height="1" fill="rgb(94,94,94)" fill-opacity="1.000" /><rect x="10" y="11" width="1" height="1" fill="rgb(71,68,68)" fill-opacity="1.000" /><rect x="11" y="11" width="2" height="1" fill="rgb(19,142,153)" fill-opacity="1.000" /><rect x="14" y="11" width="1" height="1" fill="rgb(13,13,13)" fill-opacity="1.000" /><rect x="2" y="12" width="1" height="1" fill="rgb(13,13,13)" fill-opacity="1.000" /><rect x="4" y="12" width="1" height="1" fill="rgb(71,68,68)" fill-opacity="1.000" /><rect x="5" y="12" width="4" height="1" fill="rgb(41,223,235)" fill-opacity="1.000" /><rect x="9" y="12" width="2" height="1" fill="rgb(19,142,153)" fill-opacity="1.000" /><rect x="11" y="12" width="1" height="1" fill="rgb(71,68,68)" fill-opacity="1.000" /><rect x="13" y="12" width="1" height="1" fill="rgb(13,13,13)" fill-opacity="1.000" /><rect x="3" y="13" width="2" height="1" fill="rgb(13,13,13)" fill-opacity="1.000" /><rect x="5" y="13" width="1" height="1" fill="rgb(33,46,43)" fill-opacity="1.000" /><rect x="6" y="13" width="4" height="1" fill="rgb(71,68,68)" fill-opacity="1.000" /><rect x="10" y="13" width="1" height="1" fill="rgb(33,46,43)" fill-opacity="1.000" /><rect x="11" y="13" width="2" height="1" fill="rgb(13,13,13)" fill-opacity="1.000" /><rect x="5" y="14" width="6" height="1" fill="rgb(13,13,13)" fill-opacity="1.000" /></svg>