<?xml version='1.0' encoding='utf-8'?>
<svg width="16" height="16" viewBox="0 0 16 16" xmlns="http://www.w3.org/2000/svg"> <rect x="12" y="2" width="1" height="2" fill="rgb(133,4,4)" fill-opacity="1.000" /><rect x="13" y="2" width="1" height="1" fill="rgb(101,2,2)" fill-opacity="1.000" /><rect x="13" y="3" width="1" height="1" fill="rgb(67,6,13)" fill-opacity="1.000" /><rect x="12" y="4" width="1" height="3" fill="rgb(149,117,70)" fill-opacity="1.000" /><rect x="13" y="4" width="1" height="1" fill="rgb(103,82,49)" fill-opacity="1.000" /><rect x="13" y="5" width="1" height="2" fill="rgb(66,53,34)" fill-opacity="1.000" /><rect x="2" y="7" width="1" height="2" fill="rgb(133,4,4)" fill-opacity="1.000" /><rect x="3" y="7" width="1" height="1" fill="rgb(101,2,2)" fill-opacity="1.000" /><rect x="8" y="7" width="2" height="1" fill="rgb(164,167,161)" fill-opacity="1.000" /><rect x="8" y="10" width="2" height="1" fill="rgb(164,167,161)" fill-opacity="1.000" /><rect x="10" y="7" width="1" height="1" fill="rgb(104,103,106)" fill-opacity="1.000" /><rect x="10" y="10" width="1" height="1" fill="rgb(104,103,106)" fill-opacity="1.000" /><rect x="12" y="7" width="1" height="1" fill="rgb(118,94,56)" fill-opacity="1.000" /><rect x="13" y="7" width="1" height="1" fill="rgb(55,42,23)" fill-opacity="1.000" /><rect x="3" y="8" width="1" height="1" fill="rgb(67,6,13)" fill-opacity="1.000" /><rect x="6" y="8" width="2" height="1" fill="rgb(164,167,161)" fill-opacity="1.000" /><rect x="8" y="8" width="2" height="1" fill="rgb(88,1,1)" fill-opacity="1.000" /><rect x="10" y="8" width="1" height="2" fill="rgb(164,167,161)" fill-opacity="1.000" /><rect x="2" y="9" width="1" height="3" fill="rgb(149,117,70)" fill-opacity="1.000" /><rect x="3" y="9" width="1" height="1" fill="rgb(103,82,49)" fill-opacity="1.000" /><rect x="4" y="9" width="1" height="1" fill="rgb(187,192,183)" fill-opacity="1.000" /><rect x="5" y="9" width="1" height="1" fill="rgb(164,167,161)" fill-opacity="1.000" /><rect x="6" y="9" width="2" height="1" fill="rgb(133,4,4)" fill-opacity="1.000" /><rect x="8" y="9" width="2" height="1" fill="rgb(40,0,0)" fill-opacity="1.000" /><rect x="3" y="10" width="1" height="2" fill="rgb(66,53,34)" fill-opacity="1.000" /><rect x="4" y="10" width="1" height="1" fill="rgb(88,1,1)" fill-opacity="1.000" /><rect x="5" y="10" width="1" height="1" fill="rgb(133,4,4)" fill-opacity="1.000" /><rect x="6" y="10" width="1" height="1" fill="rgb(101,2,2)" fill-opacity="1.000" /><rect x="7" y="10" width="1" height="1" fill="rgb(40,0,0)" fill-opacity="1.000" /><rect x="1" y="11" width="1" height="2" fill="rgb(187,192,183)" fill-opacity="1.000" /><rect x="4" y="11" width="2" height="1" fill="rgb(40,0,0)" fill-opacity="1.000" /><rect x="6" y="11" width="2" height="1" fill="rgb(187,192,183)" fill-opacity="1.000" /><rect x="8" y="11" width="1" height="1" fill="rgb(104,103,106)" fill-opacity="1.000" /><rect x="2" y="12" width="1" height="1" fill="rgb(118,94,56)" fill-opacity="1.000" /><rect x="3" y="12" width="1" height="1" fill="rgb(55,42,23)" fill-opacity="1.000" /><rect x="4" y="12" width="2" height="1" fill="rgb(187,192,183)" fill-opacity="1.000" /><rect x="6" y="12" width="1" height="1" fill="rgb(164,167,161)" fill-opacity="1.000" /><rect x="1" y="13" width="1" height="1" fill="rgb(164,167,161)" fill-opacity="1.000" /><rect x="2" y="13" width="2" height="1" fill="rgb(187,192,183)" fill-opacity="1.000" /><rect x="4" y="13" width="1" height="1" fill="rgb(164,167,161)" fill-opacity="1.000" /></svg>