<?xml version='1.0' encoding='utf-8'?>
<svg width="16" height="16" viewBox="0 0 16 16" xmlns="http://www.w3.org/2000/svg"> <rect x="3" y="4" width="1" height="1" fill="rgb(80,149,41)" fill-opacity="1.000" /><rect x="3" y="9" width="1" height="2" fill="rgb(80,149,41)" fill-opacity="1.000" /><rect x="3" y="12" width="1" height="1" fill="rgb(80,149,41)" fill-opacity="1.000" /><rect x="2" y="5" width="1" height="2" fill="rgb(80,149,41)" fill-opacity="1.000" /><rect x="2" y="11" width="1" height="1" fill="rgb(80,149,41)" fill-opacity="1.000" /><rect x="3" y="5" width="1" height="1" fill="rgb(56,147,6)" fill-opacity="1.000" /><rect x="3" y="13" width="1" height="1" fill="rgb(56,147,6)" fill-opacity="1.000" /><rect x="6" y="5" width="1" height="1" fill="rgb(80,149,41)" fill-opacity="1.000" /><rect x="3" y="6" width="1" height="2" fill="rgb(47,130,0)" fill-opacity="1.000" /><rect x="6" y="6" width="1" height="1" fill="rgb(56,147,6)" fill-opacity="1.000" /><rect x="6" y="15" width="1" height="1" fill="rgb(56,147,6)" fill-opacity="1.000" /><rect x="2" y="7" width="1" height="1" fill="rgb(56,147,6)" fill-opacity="1.000" /><rect x="4" y="7" width="1" height="1" fill="rgb(56,147,6)" fill-opacity="1.000" /><rect x="4" y="9" width="1" height="4" fill="rgb(56,147,6)" fill-opacity="1.000" /><rect x="7" y="7" width="1" height="1" fill="rgb(47,130,0)" fill-opacity="1.000" /><rect x="7" y="10" width="1" height="1" fill="rgb(47,130,0)" fill-opacity="1.000" /><rect x="7" y="13" width="1" height="1" fill="rgb(47,130,0)" fill-opacity="1.000" /><rect x="13" y="7" width="1" height="2" fill="rgb(80,149,41)" fill-opacity="1.000" /><rect x="3" y="8" width="2" height="1" fill="rgb(47,130,0)" fill-opacity="1.000" /><rect x="7" y="8" width="1" height="1" fill="rgb(80,149,41)" fill-opacity="1.000" /><rect x="5" y="9" width="1" height="1" fill="rgb(47,130,0)" fill-opacity="1.000" /><rect x="5" y="15" width="1" height="1" fill="rgb(47,130,0)" fill-opacity="1.000" /><rect x="7" y="9" width="1" height="1" fill="rgb(56,147,6)" fill-opacity="1.000" /><rect x="13" y="9" width="1" height="1" fill="rgb(56,147,6)" fill-opacity="1.000" /><rect x="13" y="14" width="1" height="1" fill="rgb(56,147,6)" fill-opacity="1.000" /><rect x="1" y="10" width="2" height="1" fill="rgb(56,147,6)" fill-opacity="1.000" /><rect x="10" y="10" width="1" height="2" fill="rgb(56,147,6)" fill-opacity="1.000" /><rect x="13" y="10" width="1" height="1" fill="rgb(47,130,0)" fill-opacity="1.000" /><rect x="1" y="11" width="1" height="1" fill="rgb(47,130,0)" fill-opacity="1.000" /><rect x="3" y="11" width="1" height="1" fill="rgb(33,88,0)" fill-opacity="1.000" /><rect x="3" y="14" width="1" height="1" fill="rgb(33,88,0)" fill-opacity="1.000" /><rect x="5" y="11" width="1" height="1" fill="rgb(80,149,41)" fill-opacity="1.000" /><rect x="6" y="11" width="1" height="1" fill="rgb(33,88,0)" fill-opacity="1.000" /><rect x="6" y="13" width="1" height="1" fill="rgb(33,88,0)" fill-opacity="1.000" /><rect x="13" y="11" width="2" height="1" fill="rgb(41,113,0)" fill-opacity="1.000" /><rect x="0" y="12" width="1" height="1" fill="rgb(47,130,0)" fill-opacity="1.000" /><rect x="1" y="12" width="1" height="1" fill="rgb(80,149,41)" fill-opacity="1.000" /><rect x="2" y="12" width="1" height="2" fill="rgb(33,88,0)" fill-opacity="1.000" /><rect x="5" y="12" width="1" height="1" fill="rgb(33,88,0)" fill-opacity="1.000" /><rect x="6" y="12" width="1" height="1" fill="rgb(47,130,0)" fill-opacity="1.000" /><rect x="10" y="12" width="1" height="1" fill="rgb(47,130,0)" fill-opacity="1.000" /><rect x="13" y="12" width="1" height="2" fill="rgb(41,113,0)" fill-opacity="1.000" /><rect x="14" y="12" width="1" height="1" fill="rgb(80,149,41)" fill-opacity="1.000" /><rect x="0" y="13" width="2" height="1" fill="rgb(41,113,0)" fill-opacity="1.000" /><rect x="4" y="13" width="1" height="2" fill="rgb(47,130,0)" fill-opacity="1.000" /><rect x="5" y="13" width="1" height="2" fill="rgb(56,147,6)" fill-opacity="1.000" /><rect x="9" y="13" width="1" height="2" fill="rgb(47,130,0)" fill-opacity="1.000" /><rect x="12" y="13" width="1" height="1" fill="rgb(33,88,0)" fill-opacity="1.000" /><rect x="14" y="13" width="1" height="1" fill="rgb(56,147,6)" fill-opacity="1.000" /><rect x="1" y="14" width="1" height="2" fill="rgb(41,113,0)" fill-opacity="1.000" /><rect x="2" y="14" width="1" height="2" fill="rgb(47,130,0)" fill-opacity="1.000" /><rect x="7" y="14" width="1" height="2" fill="rgb(33,88,0)" fill-opacity="1.000" /><rect x="11" y="14" width="2" height="1" fill="rgb(33,88,0)" fill-opacity="1.000" /><rect x="14" y="14" width="1" height="2" fill="rgb(47,130,0)" fill-opacity="1.000" /><rect x="3" y="15" width="2" height="1" fill="rgb(33,88,0)" fill-opacity="1.000" /><rect x="9" y="15" width="1" height="1" fill="rgb(33,88,0)" fill-opacity="1.000" /><rect x="11" y="15" width="1" height="1" fill="rgb(33,88,0)" fill-opacity="1.000" /><rect x="12" y="15" width="2" height="1" fill="rgb(41,113,0)" fill-opacity="1.000" /></svg>