<?xml version='1.0' encoding='utf-8'?>
<svg width="16" height="16" viewBox="0 0 16 16" xmlns="http://www.w3.org/2000/svg"> <rect x="8" y="1" width="1" height="1" fill="rgb(19,167,171)" fill-opacity="1.000" /><rect x="7" y="2" width="2" height="1" fill="rgb(19,167,171)" fill-opacity="1.000" /><rect x="9" y="2" width="1" height="1" fill="rgb(8,143,146)" fill-opacity="1.000" /><rect x="7" y="3" width="2" height="1" fill="rgb(37,198,205)" fill-opacity="1.000" /><rect x="9" y="3" width="1" height="1" fill="rgb(19,167,171)" fill-opacity="1.000" /><rect x="9" y="10" width="1" height="1" fill="rgb(19,167,171)" fill-opacity="1.000" /><rect x="5" y="4" width="1" height="1" fill="rgb(8,143,146)" fill-opacity="1.000" /><rect x="7" y="4" width="1" height="1" fill="rgb(91,227,232)" fill-opacity="1.000" /><rect x="8" y="4" width="2" height="1" fill="rgb(37,198,205)" fill-opacity="1.000" /><rect x="10" y="4" width="1" height="1" fill="rgb(8,143,146)" fill-opacity="1.000" /><rect x="5" y="5" width="1" height="2" fill="rgb(19,167,171)" fill-opacity="1.000" /><rect x="6" y="5" width="1" height="1" fill="rgb(37,198,205)" fill-opacity="1.000" /><rect x="6" y="9" width="1" height="1" fill="rgb(37,198,205)" fill-opacity="1.000" /><rect x="7" y="5" width="2" height="1" fill="rgb(91,227,232)" fill-opacity="1.000" /><rect x="9" y="5" width="1" height="1" fill="rgb(37,198,205)" fill-opacity="1.000" /><rect x="9" y="9" width="1" height="1" fill="rgb(37,198,205)" fill-opacity="1.000" /><rect x="10" y="5" width="1" height="2" fill="rgb(19,167,171)" fill-opacity="1.000" /><rect x="4" y="6" width="1" height="1" fill="rgb(8,143,146)" fill-opacity="1.000" /><rect x="4" y="8" width="1" height="1" fill="rgb(8,143,146)" fill-opacity="1.000" /><rect x="6" y="6" width="1" height="1" fill="rgb(91,227,232)" fill-opacity="1.000" /><rect x="6" y="8" width="1" height="1" fill="rgb(91,227,232)" fill-opacity="1.000" /><rect x="7" y="6" width="2" height="1" fill="rgb(124,242,245)" fill-opacity="1.000" /><rect x="9" y="6" width="1" height="1" fill="rgb(91,227,232)" fill-opacity="1.000" /><rect x="11" y="6" width="1" height="1" fill="rgb(8,143,146)" fill-opacity="1.000" /><rect x="11" y="8" width="1" height="1" fill="rgb(8,143,146)" fill-opacity="1.000" /><rect x="4" y="7" width="1" height="1" fill="rgb(19,167,171)" fill-opacity="1.000" /><rect x="5" y="7" width="1" height="1" fill="rgb(91,227,232)" fill-opacity="1.000" /><rect x="6" y="7" width="2" height="1" fill="rgb(124,242,245)" fill-opacity="1.000" /><rect x="8" y="7" width="1" height="1" fill="rgb(212,254,255)" fill-opacity="1.000" /><rect x="8" y="10" width="1" height="1" fill="rgb(212,254,255)" fill-opacity="1.000" /><rect x="9" y="7" width="1" height="2" fill="rgb(124,242,245)" fill-opacity="1.000" /><rect x="10" y="7" width="1" height="1" fill="rgb(91,227,232)" fill-opacity="1.000" /><rect x="11" y="7" width="1" height="1" fill="rgb(19,167,171)" fill-opacity="1.000" /><rect x="3" y="8" width="1" height="1" fill="rgb(76,61,38)" fill-opacity="1.000" /><rect x="5" y="8" width="1" height="1" fill="rgb(37,198,205)" fill-opacity="1.000" /><rect x="7" y="8" width="1" height="1" fill="rgb(212,254,255)" fill-opacity="1.000" /><rect x="8" y="8" width="1" height="1" fill="rgb(255,255,255)" fill-opacity="1.000" /><rect x="10" y="8" width="1" height="1" fill="rgb(37,198,205)" fill-opacity="1.000" /><rect x="12" y="8" width="1" height="1" fill="rgb(76,61,38)" fill-opacity="1.000" /><rect x="2" y="9" width="1" height="1" fill="rgb(76,61,38)" fill-opacity="1.000" /><rect x="3" y="9" width="1" height="2" fill="rgb(194,157,98)" fill-opacity="1.000" /><rect x="4" y="9" width="1" height="1" fill="rgb(184,148,95)" fill-opacity="1.000" /><rect x="5" y="9" width="1" height="1" fill="rgb(194,157,98)" fill-opacity="1.000" /><rect x="7" y="9" width="2" height="1" fill="rgb(255,255,255)" fill-opacity="1.000" /><rect x="10" y="9" width="1" height="2" fill="rgb(194,157,98)" fill-opacity="1.000" /><rect x="11" y="9" width="1" height="1" fill="rgb(184,148,95)" fill-opacity="1.000" /><rect x="12" y="9" width="1" height="1" fill="rgb(194,157,98)" fill-opacity="1.000" /><rect x="13" y="9" width="1" height="1" fill="rgb(54,43,27)" fill-opacity="1.000" /><rect x="1" y="10" width="2" height="1" fill="rgb(76,61,38)" fill-opacity="1.000" /><rect x="4" y="10" width="1" height="1" fill="rgb(159,132,77)" fill-opacity="1.000" /><rect x="5" y="10" width="1" height="1" fill="rgb(184,148,95)" fill-opacity="1.000" /><rect x="6" y="10" width="1" height="1" fill="rgb(19,167,171)" fill-opacity="1.000" /><rect x="7" y="10" width="1" height="1" fill="rgb(255,255,255)" fill-opacity="1.000" /><rect x="11" y="10" width="1" height="1" fill="rgb(159,132,77)" fill-opacity="1.000" /><rect x="12" y="10" width="1" height="1" fill="rgb(184,148,95)" fill-opacity="1.000" /><rect x="13" y="10" width="2" height="1" fill="rgb(54,43,27)" fill-opacity="1.000" /><rect x="1" y="11" width="1" height="3" fill="rgb(76,61,38)" fill-opacity="1.000" /><rect x="2" y="11" width="1" height="1" fill="rgb(95,74,43)" fill-opacity="1.000" /><rect x="3" y="11" width="2" height="1" fill="rgb(184,148,95)" fill-opacity="1.000" /><rect x="5" y="11" width="1" height="1" fill="rgb(150,116,65)" fill-opacity="1.000" /><rect x="6" y="11" width="1" height="1" fill="rgb(95,74,43)" fill-opacity="1.000" /><rect x="7" y="11" width="2" height="1" fill="rgb(116,90,54)" fill-opacity="1.000" /><rect x="9" y="11" width="1" height="1" fill="rgb(145,113,66)" fill-opacity="1.000" /><rect x="10" y="11" width="2" height="1" fill="rgb(184,148,95)" fill-opacity="1.000" /><rect x="12" y="11" width="1" height="1" fill="rgb(150,116,65)" fill-opacity="1.000" /><rect x="13" y="11" width="1" height="1" fill="rgb(95,74,43)" fill-opacity="1.000" /><rect x="14" y="11" width="1" height="3" fill="rgb(54,43,27)" fill-opacity="1.000" /><rect x="2" y="12" width="1" height="1" fill="rgb(116,90,54)" fill-opacity="1.000" /><rect x="3" y="12" width="1" height="1" fill="rgb(95,74,43)" fill-opacity="1.000" /><rect x="4" y="12" width="2" height="1" fill="rgb(76,61,38)" fill-opacity="1.000" /><rect x="6" y="12" width="1" height="1" fill="rgb(116,90,54)" fill-opacity="1.000" /><rect x="7" y="12" width="2" height="1" fill="rgb(145,113,66)" fill-opacity="1.000" /><rect x="9" y="12" width="1" height="1" fill="rgb(116,90,54)" fill-opacity="1.000" /><rect x="10" y="12" width="1" height="1" fill="rgb(95,74,43)" fill-opacity="1.000" /><rect x="11" y="12" width="2" height="1" fill="rgb(76,61,38)" fill-opacity="1.000" /><rect x="13" y="12" width="1" height="1" fill="rgb(116,90,54)" fill-opacity="1.000" /><rect x="2" y="13" width="2" height="1" fill="rgb(152,120,73)" fill-opacity="1.000" /><rect x="4" y="13" width="2" height="1" fill="rgb(116,90,54)" fill-opacity="1.000" /><rect x="6" y="13" width="1" height="1" fill="rgb(145,113,66)" fill-opacity="1.000" /><rect x="7" y="13" width="1" height="1" fill="rgb(116,90,54)" fill-opacity="1.000" /><rect x="8" y="13" width="3" height="1" fill="rgb(95,74,43)" fill-opacity="1.000" /><rect x="11" y="13" width="2" height="1" fill="rgb(116,90,54)" fill-opacity="1.000" /><rect x="13" y="13" width="1" height="1" fill="rgb(145,113,66)" fill-opacity="1.000" /><rect x="1" y="14" width="14" height="1" fill="rgb(54,43,27)" fill-opacity="1.000" /></svg>