<?xml version='1.0' encoding='utf-8'?>
<svg width="16" height="16" viewBox="0 0 16 16" xmlns="http://www.w3.org/2000/svg"> <rect x="7" y="2" width="1" height="1" fill="rgb(127,127,127)" fill-opacity="1.000" /><rect x="8" y="2" width="1" height="1" fill="rgb(108,108,108)" fill-opacity="1.000" /><rect x="7" y="3" width="1" height="1" fill="rgb(221,221,221)" fill-opacity="1.000" /><rect x="8" y="3" width="1" height="1" fill="rgb(202,202,202)" fill-opacity="1.000" /><rect x="9" y="3" width="1" height="1" fill="rgb(127,127,127)" fill-opacity="1.000" /><rect x="8" y="4" width="1" height="1" fill="rgb(233,233,233)" fill-opacity="1.000" /><rect x="9" y="4" width="1" height="1" fill="rgb(202,202,202)" fill-opacity="1.000" /><rect x="8" y="5" width="1" height="1" fill="rgb(242,242,242)" fill-opacity="1.000" /><rect x="9" y="5" width="1" height="1" fill="rgb(226,226,226)" fill-opacity="1.000" /><rect x="11" y="5" width="1" height="1" fill="rgb(108,108,108)" fill-opacity="1.000" /><rect x="3" y="6" width="1" height="2" fill="rgb(127,127,127)" fill-opacity="1.000" /><rect x="3" y="11" width="1" height="2" fill="rgb(127,127,127)" fill-opacity="1.000" /><rect x="4" y="6" width="1" height="1" fill="rgb(219,219,219)" fill-opacity="1.000" /><rect x="4" y="11" width="1" height="1" fill="rgb(219,219,219)" fill-opacity="1.000" /><rect x="7" y="6" width="1" height="1" fill="rgb(242,242,242)" fill-opacity="1.000" /><rect x="8" y="6" width="1" height="1" fill="rgb(238,238,238)" fill-opacity="1.000" /><rect x="9" y="6" width="1" height="1" fill="rgb(225,225,225)" fill-opacity="1.000" /><rect x="10" y="6" width="2" height="1" fill="rgb(201,201,201)" fill-opacity="1.000" /><rect x="10" y="10" width="2" height="1" fill="rgb(201,201,201)" fill-opacity="1.000" /><rect x="12" y="6" width="1" height="2" fill="rgb(108,108,108)" fill-opacity="1.000" /><rect x="4" y="7" width="1" height="1" fill="rgb(226,226,226)" fill-opacity="1.000" /><rect x="5" y="7" width="1" height="1" fill="rgb(239,239,239)" fill-opacity="1.000" /><rect x="6" y="7" width="1" height="1" fill="rgb(246,246,246)" fill-opacity="1.000" /><rect x="7" y="7" width="1" height="1" fill="rgb(239,239,239)" fill-opacity="1.000" /><rect x="8" y="7" width="1" height="1" fill="rgb(231,231,231)" fill-opacity="1.000" /><rect x="11" y="7" width="1" height="1" fill="rgb(201,201,201)" fill-opacity="1.000" /><rect x="2" y="8" width="1" height="1" fill="rgb(127,127,127)" fill-opacity="1.000" /><rect x="3" y="8" width="1" height="1" fill="rgb(221,221,221)" fill-opacity="1.000" /><rect x="4" y="8" width="1" height="1" fill="rgb(231,231,231)" fill-opacity="1.000" /><rect x="7" y="8" width="1" height="1" fill="rgb(232,232,232)" fill-opacity="1.000" /><rect x="8" y="8" width="1" height="1" fill="rgb(219,219,219)" fill-opacity="1.000" /><rect x="11" y="8" width="2" height="1" fill="rgb(201,201,201)" fill-opacity="1.000" /><rect x="13" y="8" width="1" height="1" fill="rgb(108,108,108)" fill-opacity="1.000" /><rect x="4" y="9" width="1" height="1" fill="rgb(229,229,229)" fill-opacity="1.000" /><rect x="6" y="9" width="1" height="1" fill="rgb(238,238,238)" fill-opacity="1.000" /><rect x="7" y="9" width="1" height="1" fill="rgb(223,223,223)" fill-opacity="1.000" /><rect x="8" y="9" width="2" height="2" fill="rgb(219,219,219)" fill-opacity="1.000" /><rect x="10" y="9" width="3" height="1" fill="rgb(201,201,201)" fill-opacity="1.000" /><rect x="13" y="9" width="1" height="1" fill="rgb(101,101,101)" fill-opacity="1.000" /><rect x="4" y="10" width="1" height="1" fill="rgb(224,224,224)" fill-opacity="1.000" /><rect x="5" y="10" width="1" height="1" fill="rgb(240,240,240)" fill-opacity="1.000" /><rect x="6" y="10" width="1" height="1" fill="rgb(233,233,233)" fill-opacity="1.000" /><rect x="13" y="10" width="1" height="1" fill="rgb(95,95,95)" fill-opacity="1.000" /><rect x="5" y="11" width="1" height="1" fill="rgb(223,223,223)" fill-opacity="1.000" /><rect x="9" y="11" width="1" height="2" fill="rgb(201,201,201)" fill-opacity="1.000" /><rect x="4" y="12" width="1" height="1" fill="rgb(196,196,196)" fill-opacity="1.000" /><rect x="5" y="12" width="1" height="1" fill="rgb(201,201,201)" fill-opacity="1.000" /><rect x="4" y="13" width="2" height="1" fill="rgb(108,108,108)" fill-opacity="1.000" /><rect x="6" y="13" width="3" height="1" fill="rgb(201,201,201)" fill-opacity="1.000" /><rect x="9" y="13" width="1" height="1" fill="rgb(200,200,200)" fill-opacity="1.000" /><rect x="10" y="13" width="1" height="1" fill="rgb(99,99,99)" fill-opacity="1.000" /><rect x="6" y="14" width="1" height="1" fill="rgb(108,108,108)" fill-opacity="1.000" /><rect x="9" y="14" width="1" height="1" fill="rgb(99,99,99)" fill-opacity="1.000" /></svg>