<?xml version='1.0' encoding='utf-8'?>
<svg width="16" height="16" viewBox="0 0 16 16" xmlns="http://www.w3.org/2000/svg"> <rect x="6" y="5" width="2" height="1" fill="rgb(123,13,39)" fill-opacity="1.000" /><rect x="8" y="5" width="2" height="1" fill="rgb(85,2,34)" fill-opacity="1.000" /><rect x="5" y="6" width="1" height="1" fill="rgb(123,13,39)" fill-opacity="1.000" /><rect x="6" y="6" width="1" height="1" fill="rgb(157,30,45)" fill-opacity="1.000" /><rect x="7" y="6" width="1" height="1" fill="rgb(224,201,204)" fill-opacity="1.000" /><rect x="8" y="6" width="1" height="2" fill="rgb(157,30,45)" fill-opacity="1.000" /><rect x="9" y="6" width="1" height="1" fill="rgb(123,13,39)" fill-opacity="1.000" /><rect x="10" y="6" width="1" height="4" fill="rgb(42,0,16)" fill-opacity="1.000" /><rect x="10" y="13" width="1" height="1" fill="rgb(42,0,16)" fill-opacity="1.000" /><rect x="5" y="7" width="1" height="3" fill="rgb(85,2,34)" fill-opacity="1.000" /><rect x="6" y="7" width="1" height="1" fill="rgb(224,174,180)" fill-opacity="1.000" /><rect x="7" y="7" width="1" height="1" fill="rgb(196,95,107)" fill-opacity="1.000" /><rect x="9" y="7" width="1" height="2" fill="rgb(101,6,43)" fill-opacity="1.000" /><rect x="9" y="13" width="1" height="1" fill="rgb(101,6,43)" fill-opacity="1.000" /><rect x="6" y="8" width="2" height="1" fill="rgb(157,30,45)" fill-opacity="1.000" /><rect x="8" y="8" width="1" height="1" fill="rgb(123,13,39)" fill-opacity="1.000" /><rect x="6" y="9" width="1" height="1" fill="rgb(123,13,39)" fill-opacity="1.000" /><rect x="7" y="9" width="2" height="1" fill="rgb(101,6,43)" fill-opacity="1.000" /><rect x="9" y="9" width="1" height="1" fill="rgb(85,2,34)" fill-opacity="1.000" /><rect x="9" y="11" width="1" height="1" fill="rgb(85,2,34)" fill-opacity="1.000" /><rect x="6" y="10" width="4" height="1" fill="rgb(42,0,16)" fill-opacity="1.000" /><rect x="10" y="10" width="1" height="1" fill="rgb(85,2,34)" fill-opacity="1.000" /><rect x="11" y="10" width="1" height="3" fill="rgb(42,0,16)" fill-opacity="1.000" /><rect x="10" y="11" width="1" height="1" fill="rgb(123,13,39)" fill-opacity="1.000" /><rect x="8" y="12" width="1" height="1" fill="rgb(85,2,34)" fill-opacity="1.000" /><rect x="9" y="12" width="1" height="1" fill="rgb(157,30,45)" fill-opacity="1.000" /><rect x="10" y="12" width="1" height="1" fill="rgb(101,6,43)" fill-opacity="1.000" /><rect x="8" y="13" width="1" height="1" fill="rgb(42,0,16)" fill-opacity="1.000" /><rect x="9" y="14" width="1" height="1" fill="rgb(42,0,16)" fill-opacity="1.000" /></svg>