<?xml version='1.0' encoding='utf-8'?>
<svg width="16" height="16" viewBox="0 0 16 16" xmlns="http://www.w3.org/2000/svg"> <rect x="11" y="2" width="2" height="1" fill="rgb(212,109,73)" fill-opacity="1.000" /><rect x="10" y="3" width="2" height="1" fill="rgb(212,109,73)" fill-opacity="1.000" /><rect x="12" y="3" width="1" height="1" fill="rgb(169,71,37)" fill-opacity="1.000" /><rect x="9" y="4" width="1" height="1" fill="rgb(93,143,194)" fill-opacity="1.000" /><rect x="10" y="4" width="1" height="1" fill="rgb(151,55,22)" fill-opacity="1.000" /><rect x="11" y="4" width="2" height="1" fill="rgb(169,71,37)" fill-opacity="1.000" /><rect x="8" y="5" width="1" height="1" fill="rgb(179,207,236)" fill-opacity="1.000" /><rect x="11" y="5" width="2" height="1" fill="rgb(151,55,22)" fill-opacity="1.000" /><rect x="7" y="6" width="1" height="1" fill="rgb(179,207,236)" fill-opacity="1.000" /><rect x="7" y="8" width="1" height="1" fill="rgb(179,207,236)" fill-opacity="1.000" /><rect x="10" y="6" width="1" height="2" fill="rgb(179,207,236)" fill-opacity="1.000" /><rect x="11" y="6" width="1" height="1" fill="rgb(151,55,22)" fill-opacity="1.000" /><rect x="6" y="7" width="1" height="1" fill="rgb(212,229,247)" fill-opacity="1.000" /><rect x="5" y="8" width="1" height="1" fill="rgb(212,229,247)" fill-opacity="1.000" /><rect x="11" y="8" width="1" height="1" fill="rgb(179,207,236)" fill-opacity="1.000" /><rect x="4" y="9" width="1" height="2" fill="rgb(212,229,247)" fill-opacity="1.000" /><rect x="6" y="9" width="1" height="2" fill="rgb(179,207,236)" fill-opacity="1.000" /><rect x="12" y="9" width="1" height="4" fill="rgb(93,143,194)" fill-opacity="1.000" /><rect x="4" y="11" width="1" height="2" fill="rgb(179,207,236)" fill-opacity="1.000" /><rect x="10" y="11" width="1" height="2" fill="rgb(139,173,208)" fill-opacity="1.000" /><rect x="5" y="13" width="1" height="1" fill="rgb(93,143,194)" fill-opacity="1.000" /><rect x="9" y="13" width="1" height="1" fill="rgb(139,173,208)" fill-opacity="1.000" /><rect x="11" y="13" width="1" height="1" fill="rgb(93,143,194)" fill-opacity="1.000" /><rect x="6" y="14" width="5" height="1" fill="rgb(93,143,194)" fill-opacity="1.000" /></svg>