<?xml version='1.0' encoding='utf-8'?>
<svg width="16" height="16" viewBox="0 0 16 16" xmlns="http://www.w3.org/2000/svg"> <rect x="7" y="0" width="3" height="1" fill="rgb(40,30,11)" fill-opacity="1.000" /><rect x="5" y="1" width="2" height="1" fill="rgb(40,30,11)" fill-opacity="1.000" /><rect x="7" y="1" width="1" height="1" fill="rgb(219,68,26)" fill-opacity="1.000" /><rect x="8" y="1" width="1" height="1" fill="rgb(217,131,120)" fill-opacity="1.000" /><rect x="8" y="4" width="1" height="1" fill="rgb(217,131,120)" fill-opacity="1.000" /><rect x="9" y="1" width="1" height="1" fill="rgb(145,45,17)" fill-opacity="1.000" /><rect x="9" y="6" width="1" height="2" fill="rgb(145,45,17)" fill-opacity="1.000" /><rect x="10" y="1" width="1" height="1" fill="rgb(40,30,11)" fill-opacity="1.000" /><rect x="3" y="2" width="2" height="1" fill="rgb(40,30,11)" fill-opacity="1.000" /><rect x="5" y="2" width="1" height="1" fill="rgb(219,68,26)" fill-opacity="1.000" /><rect x="5" y="5" width="1" height="4" fill="rgb(219,68,26)" fill-opacity="1.000" /><rect x="6" y="2" width="1" height="1" fill="rgb(217,131,120)" fill-opacity="1.000" /><rect x="6" y="5" width="1" height="1" fill="rgb(217,131,120)" fill-opacity="1.000" /><rect x="7" y="2" width="2" height="1" fill="rgb(27,38,50)" fill-opacity="1.000" /><rect x="7" y="5" width="2" height="1" fill="rgb(27,38,50)" fill-opacity="1.000" /><rect x="9" y="2" width="1" height="1" fill="rgb(217,131,120)" fill-opacity="1.000" /><rect x="9" y="5" width="1" height="1" fill="rgb(217,131,120)" fill-opacity="1.000" /><rect x="10" y="2" width="1" height="1" fill="rgb(219,68,26)" fill-opacity="1.000" /><rect x="10" y="5" width="1" height="1" fill="rgb(219,68,26)" fill-opacity="1.000" /><rect x="11" y="2" width="1" height="1" fill="rgb(40,30,11)" fill-opacity="1.000" /><rect x="2" y="3" width="1" height="3" fill="rgb(40,30,11)" fill-opacity="1.000" /><rect x="3" y="3" width="1" height="4" fill="rgb(219,68,26)" fill-opacity="1.000" /><rect x="4" y="3" width="1" height="1" fill="rgb(217,131,120)" fill-opacity="1.000" /><rect x="5" y="3" width="1" height="1" fill="rgb(145,45,17)" fill-opacity="1.000" /><rect x="6" y="3" width="1" height="1" fill="rgb(233,158,142)" fill-opacity="1.000" /><rect x="6" y="6" width="1" height="1" fill="rgb(233,158,142)" fill-opacity="1.000" /><rect x="7" y="3" width="1" height="1" fill="rgb(217,131,120)" fill-opacity="1.000" /><rect x="7" y="6" width="1" height="1" fill="rgb(217,131,120)" fill-opacity="1.000" /><rect x="8" y="3" width="1" height="1" fill="rgb(219,68,26)" fill-opacity="1.000" /><rect x="8" y="6" width="1" height="1" fill="rgb(219,68,26)" fill-opacity="1.000" /><rect x="9" y="3" width="1" height="1" fill="rgb(27,38,50)" fill-opacity="1.000" /><rect x="10" y="3" width="1" height="1" fill="rgb(217,131,120)" fill-opacity="1.000" /><rect x="11" y="3" width="1" height="1" fill="rgb(145,45,17)" fill-opacity="1.000" /><rect x="11" y="5" width="1" height="2" fill="rgb(145,45,17)" fill-opacity="1.000" /><rect x="12" y="3" width="1" height="1" fill="rgb(40,30,11)" fill-opacity="1.000" /><rect x="4" y="4" width="1" height="1" fill="rgb(233,158,142)" fill-opacity="1.000" /><rect x="5" y="4" width="1" height="1" fill="rgb(217,131,120)" fill-opacity="1.000" /><rect x="6" y="4" width="2" height="1" fill="rgb(27,38,50)" fill-opacity="1.000" /><rect x="9" y="4" width="2" height="1" fill="rgb(27,38,50)" fill-opacity="1.000" /><rect x="11" y="4" width="1" height="1" fill="rgb(217,131,120)" fill-opacity="1.000" /><rect x="12" y="4" width="1" height="1" fill="rgb(219,68,26)" fill-opacity="1.000" /><rect x="13" y="4" width="1" height="1" fill="rgb(40,30,11)" fill-opacity="1.000" /><rect x="1" y="5" width="1" height="1" fill="rgb(63,66,67)" fill-opacity="1.000" /><rect x="1" y="7" width="1" height="3" fill="rgb(63,66,67)" fill-opacity="1.000" /><rect x="4" y="5" width="1" height="2" fill="rgb(145,45,17)" fill-opacity="1.000" /><rect x="12" y="5" width="2" height="1" fill="rgb(97,31,12)" fill-opacity="1.000" /><rect x="14" y="5" width="1" height="1" fill="rgb(35,44,47)" fill-opacity="1.000" /><rect x="14" y="7" width="1" height="4" fill="rgb(35,44,47)" fill-opacity="1.000" /><rect x="1" y="6" width="2" height="1" fill="rgb(63,66,67)" fill-opacity="1.000" /><rect x="10" y="6" width="1" height="2" fill="rgb(97,31,12)" fill-opacity="1.000" /><rect x="12" y="6" width="1" height="1" fill="rgb(97,31,12)" fill-opacity="1.000" /><rect x="13" y="6" width="2" height="1" fill="rgb(35,44,47)" fill-opacity="1.000" /><rect x="2" y="7" width="1" height="1" fill="rgb(148,151,152)" fill-opacity="1.000" /><rect x="2" y="9" width="1" height="1" fill="rgb(148,151,152)" fill-opacity="1.000" /><rect x="3" y="7" width="1" height="1" fill="rgb(63,66,67)" fill-opacity="1.000" /><rect x="4" y="7" width="1" height="1" fill="rgb(97,31,12)" fill-opacity="1.000" /><rect x="6" y="7" width="1" height="2" fill="rgb(145,45,17)" fill-opacity="1.000" /><rect x="7" y="7" width="2" height="2" fill="rgb(97,31,12)" fill-opacity="1.000" /><rect x="11" y="7" width="2" height="1" fill="rgb(35,44,47)" fill-opacity="1.000" /><rect x="13" y="7" width="1" height="1" fill="rgb(128,131,137)" fill-opacity="1.000" /><rect x="13" y="9" width="1" height="1" fill="rgb(128,131,137)" fill-opacity="1.000" /><rect x="2" y="8" width="1" height="1" fill="rgb(103,111,115)" fill-opacity="1.000" /><rect x="2" y="10" width="1" height="1" fill="rgb(103,111,115)" fill-opacity="1.000" /><rect x="3" y="8" width="1" height="1" fill="rgb(169,174,175)" fill-opacity="1.000" /><rect x="3" y="10" width="1" height="1" fill="rgb(169,174,175)" fill-opacity="1.000" /><rect x="4" y="8" width="1" height="1" fill="rgb(63,66,67)" fill-opacity="1.000" /><rect x="9" y="8" width="2" height="1" fill="rgb(35,44,47)" fill-opacity="1.000" /><rect x="11" y="8" width="1" height="1" fill="rgb(128,131,137)" fill-opacity="1.000" /><rect x="11" y="11" width="1" height="1" fill="rgb(128,131,137)" fill-opacity="1.000" /><rect x="12" y="8" width="1" height="1" fill="rgb(169,174,175)" fill-opacity="1.000" /><rect x="13" y="8" width="1" height="1" fill="rgb(107,110,114)" fill-opacity="1.000" /><rect x="3" y="9" width="1" height="1" fill="rgb(128,131,137)" fill-opacity="1.000" /><rect x="4" y="9" width="1" height="1" fill="rgb(169,174,175)" fill-opacity="1.000" /><rect x="4" y="11" width="1" height="1" fill="rgb(169,174,175)" fill-opacity="1.000" /><rect x="5" y="9" width="1" height="1" fill="rgb(63,66,67)" fill-opacity="1.000" /><rect x="6" y="9" width="1" height="1" fill="rgb(97,31,12)" fill-opacity="1.000" /><rect x="7" y="9" width="2" height="1" fill="rgb(35,44,47)" fill-opacity="1.000" /><rect x="9" y="9" width="1" height="1" fill="rgb(169,174,175)" fill-opacity="1.000" /><rect x="10" y="9" width="1" height="1" fill="rgb(128,131,137)" fill-opacity="1.000" /><rect x="11" y="9" width="1" height="1" fill="rgb(169,174,175)" fill-opacity="1.000" /><rect x="12" y="9" width="1" height="1" fill="rgb(103,111,115)" fill-opacity="1.000" /><rect x="1" y="10" width="1" height="1" fill="rgb(35,44,47)" fill-opacity="1.000" /><rect x="4" y="10" width="1" height="1" fill="rgb(128,131,137)" fill-opacity="1.000" /><rect x="5" y="10" width="1" height="1" fill="rgb(148,151,152)" fill-opacity="1.000" /><rect x="5" y="12" width="1" height="1" fill="rgb(148,151,152)" fill-opacity="1.000" /><rect x="6" y="10" width="1" height="1" fill="rgb(63,66,67)" fill-opacity="1.000" /><rect x="7" y="10" width="1" height="1" fill="rgb(107,110,114)" fill-opacity="1.000" /><rect x="7" y="12" width="1" height="1" fill="rgb(107,110,114)" fill-opacity="1.000" /><rect x="8" y="10" width="1" height="1" fill="rgb(158,164,166)" fill-opacity="1.000" /><rect x="9" y="10" width="1" height="1" fill="rgb(128,131,137)" fill-opacity="1.000" /><rect x="10" y="10" width="1" height="1" fill="rgb(169,174,175)" fill-opacity="1.000" /><rect x="11" y="10" width="1" height="1" fill="rgb(103,111,115)" fill-opacity="1.000" /><rect x="12" y="10" width="1" height="1" fill="rgb(128,131,137)" fill-opacity="1.000" /><rect x="13" y="10" width="1" height="1" fill="rgb(103,111,115)" fill-opacity="1.000" /><rect x="2" y="11" width="1" height="1" fill="rgb(35,44,47)" fill-opacity="1.000" /><rect x="3" y="11" width="1" height="1" fill="rgb(103,111,115)" fill-opacity="1.000" /><rect x="5" y="11" width="1" height="1" fill="rgb(103,111,115)" fill-opacity="1.000" /><rect x="5" y="13" width="1" height="1" fill="rgb(103,111,115)" fill-opacity="1.000" /><rect x="6" y="11" width="1" height="3" fill="rgb(35,44,47)" fill-opacity="1.000" /><rect x="7" y="11" width="1" height="1" fill="rgb(169,174,175)" fill-opacity="1.000" /><rect x="8" y="11" width="1" height="1" fill="rgb(107,110,114)" fill-opacity="1.000" /><rect x="9" y="11" width="1" height="1" fill="rgb(158,164,166)" fill-opacity="1.000" /><rect x="10" y="11" width="1" height="1" fill="rgb(103,111,115)" fill-opacity="1.000" /><rect x="12" y="11" width="1" height="1" fill="rgb(63,66,67)" fill-opacity="1.000" /><rect x="13" y="11" width="1" height="1" fill="rgb(9,9,10)" fill-opacity="1.000" /><rect x="3" y="12" width="1" height="1" fill="rgb(35,44,47)" fill-opacity="1.000" /><rect x="4" y="12" width="1" height="1" fill="rgb(103,111,115)" fill-opacity="1.000" /><rect x="8" y="12" width="1" height="1" fill="rgb(128,131,137)" fill-opacity="1.000" /><rect x="9" y="12" width="1" height="1" fill="rgb(107,110,114)" fill-opacity="1.000" /><rect x="10" y="12" width="2" height="1" fill="rgb(35,44,47)" fill-opacity="1.000" /><rect x="12" y="12" width="1" height="1" fill="rgb(9,9,10)" fill-opacity="1.000" /><rect x="13" y="12" width="1" height="1" fill="rgb(35,44,47)" fill-opacity="1.000" /><rect x="4" y="13" width="1" height="1" fill="rgb(35,44,47)" fill-opacity="1.000" /><rect x="7" y="13" width="1" height="1" fill="rgb(128,131,137)" fill-opacity="1.000" /><rect x="8" y="13" width="1" height="1" fill="rgb(63,66,67)" fill-opacity="1.000" /><rect x="9" y="13" width="1" height="1" fill="rgb(9,9,10)" fill-opacity="1.000" /><rect x="5" y="14" width="3" height="1" fill="rgb(35,44,47)" fill-opacity="1.000" /><rect x="8" y="14" width="1" height="1" fill="rgb(9,9,10)" fill-opacity="1.000" /><rect x="9" y="14" width="1" height="1" fill="rgb(35,44,47)" fill-opacity="1.000" /></svg>