<?xml version='1.0' encoding='utf-8'?>
<svg width="16" height="16" viewBox="0 0 16 16" xmlns="http://www.w3.org/2000/svg"> <rect x="5" y="0" width="5" height="1" fill="rgb(69,74,66)" fill-opacity="1.000" /><rect x="10" y="0" width="1" height="1" fill="rgb(41,40,40)" fill-opacity="1.000" /><rect x="10" y="5" width="1" height="2" fill="rgb(41,40,40)" fill-opacity="1.000" /><rect x="4" y="1" width="1" height="4" fill="rgb(69,74,66)" fill-opacity="1.000" /><rect x="5" y="1" width="1" height="1" fill="rgb(82,90,81)" fill-opacity="1.000" /><rect x="6" y="1" width="2" height="1" fill="rgb(161,158,148)" fill-opacity="1.000" /><rect x="8" y="1" width="1" height="1" fill="rgb(133,131,122)" fill-opacity="1.000" /><rect x="9" y="1" width="1" height="1" fill="rgb(108,113,107)" fill-opacity="1.000" /><rect x="10" y="1" width="1" height="1" fill="rgb(82,90,81)" fill-opacity="1.000" /><rect x="10" y="3" width="1" height="1" fill="rgb(82,90,81)" fill-opacity="1.000" /><rect x="11" y="1" width="1" height="4" fill="rgb(41,40,40)" fill-opacity="1.000" /><rect x="5" y="2" width="1" height="1" fill="rgb(133,131,122)" fill-opacity="1.000" /><rect x="6" y="2" width="5" height="1" fill="rgb(108,113,107)" fill-opacity="1.000" /><rect x="5" y="3" width="1" height="2" fill="rgb(108,113,107)" fill-opacity="1.000" /><rect x="6" y="3" width="1" height="1" fill="rgb(255,153,81)" fill-opacity="1.000" /><rect x="7" y="3" width="2" height="1" fill="rgb(82,90,81)" fill-opacity="1.000" /><rect x="9" y="3" width="1" height="1" fill="rgb(255,153,81)" fill-opacity="1.000" /><rect x="6" y="4" width="1" height="2" fill="rgb(82,90,81)" fill-opacity="1.000" /><rect x="7" y="4" width="1" height="1" fill="rgb(161,158,148)" fill-opacity="1.000" /><rect x="8" y="4" width="1" height="1" fill="rgb(108,113,107)" fill-opacity="1.000" /><rect x="9" y="4" width="1" height="2" fill="rgb(82,90,81)" fill-opacity="1.000" /><rect x="10" y="4" width="1" height="1" fill="rgb(108,113,107)" fill-opacity="1.000" /><rect x="5" y="5" width="1" height="1" fill="rgb(55,59,53)" fill-opacity="1.000" /><rect x="5" y="7" width="1" height="1" fill="rgb(55,59,53)" fill-opacity="1.000" /><rect x="7" y="5" width="2" height="1" fill="rgb(55,59,53)" fill-opacity="1.000" /><rect x="5" y="6" width="1" height="1" fill="rgb(41,40,40)" fill-opacity="1.000" /><rect x="6" y="6" width="1" height="1" fill="rgb(55,59,53)" fill-opacity="1.000" /><rect x="7" y="6" width="2" height="1" fill="rgb(132,67,45)" fill-opacity="1.000" /><rect x="9" y="6" width="1" height="1" fill="rgb(55,59,53)" fill-opacity="1.000" /><rect x="6" y="7" width="1" height="1" fill="rgb(41,40,40)" fill-opacity="1.000" /><rect x="7" y="7" width="1" height="1" fill="rgb(154,80,56)" fill-opacity="1.000" /><rect x="8" y="7" width="1" height="1" fill="rgb(132,67,45)" fill-opacity="1.000" /><rect x="9" y="7" width="1" height="1" fill="rgb(41,40,40)" fill-opacity="1.000" /><rect x="10" y="7" width="1" height="1" fill="rgb(55,59,53)" fill-opacity="1.000" /><rect x="6" y="8" width="1" height="7" fill="rgb(109,52,33)" fill-opacity="1.000" /><rect x="7" y="8" width="2" height="1" fill="rgb(154,80,56)" fill-opacity="1.000" /><rect x="9" y="8" width="1" height="3" fill="rgb(84,40,26)" fill-opacity="1.000" /><rect x="7" y="9" width="1" height="1" fill="rgb(193,90,54)" fill-opacity="1.000" /><rect x="8" y="9" width="1" height="1" fill="rgb(154,80,56)" fill-opacity="1.000" /><rect x="7" y="10" width="1" height="1" fill="rgb(214,123,91)" fill-opacity="1.000" /><rect x="8" y="10" width="1" height="2" fill="rgb(193,90,54)" fill-opacity="1.000" /><rect x="7" y="11" width="1" height="1" fill="rgb(252,153,130)" fill-opacity="1.000" /><rect x="7" y="13" width="1" height="1" fill="rgb(252,153,130)" fill-opacity="1.000" /><rect x="9" y="11" width="1" height="1" fill="rgb(154,80,56)" fill-opacity="1.000" /><rect x="10" y="11" width="2" height="1" fill="rgb(109,52,33)" fill-opacity="1.000" /><rect x="7" y="12" width="2" height="1" fill="rgb(252,153,130)" fill-opacity="1.000" /><rect x="9" y="12" width="2" height="1" fill="rgb(214,123,91)" fill-opacity="1.000" /><rect x="11" y="12" width="1" height="1" fill="rgb(84,40,26)" fill-opacity="1.000" /><rect x="8" y="13" width="1" height="1" fill="rgb(214,123,91)" fill-opacity="1.000" /><rect x="9" y="13" width="2" height="1" fill="rgb(84,40,26)" fill-opacity="1.000" /><rect x="7" y="14" width="3" height="1" fill="rgb(214,123,91)" fill-opacity="1.000" /><rect x="10" y="14" width="1" height="1" fill="rgb(193,90,54)" fill-opacity="1.000" /><rect x="11" y="14" width="1" height="1" fill="rgb(109,52,33)" fill-opacity="1.000" /><rect x="6" y="15" width="6" height="1" fill="rgb(84,40,26)" fill-opacity="1.000" /></svg>