<?xml version='1.0' encoding='utf-8'?>
<svg width="16" height="16" viewBox="0 0 16 16" xmlns="http://www.w3.org/2000/svg"> <rect x="5" y="5" width="6" height="1" fill="rgb(41,125,73)" fill-opacity="1.000" /><rect x="4" y="6" width="1" height="1" fill="rgb(41,125,73)" fill-opacity="1.000" /><rect x="5" y="6" width="1" height="1" fill="rgb(56,141,58)" fill-opacity="1.000" /><rect x="5" y="10" width="1" height="1" fill="rgb(56,141,58)" fill-opacity="1.000" /><rect x="6" y="6" width="1" height="1" fill="rgb(63,164,66)" fill-opacity="1.000" /><rect x="6" y="10" width="1" height="1" fill="rgb(63,164,66)" fill-opacity="1.000" /><rect x="7" y="6" width="2" height="1" fill="rgb(71,191,74)" fill-opacity="1.000" /><rect x="7" y="10" width="2" height="1" fill="rgb(71,191,74)" fill-opacity="1.000" /><rect x="9" y="6" width="1" height="1" fill="rgb(63,164,66)" fill-opacity="1.000" /><rect x="9" y="10" width="1" height="1" fill="rgb(63,164,66)" fill-opacity="1.000" /><rect x="10" y="6" width="1" height="1" fill="rgb(56,141,58)" fill-opacity="1.000" /><rect x="10" y="10" width="1" height="1" fill="rgb(56,141,58)" fill-opacity="1.000" /><rect x="11" y="6" width="1" height="1" fill="rgb(32,106,67)" fill-opacity="1.000" /><rect x="3" y="7" width="1" height="1" fill="rgb(41,125,73)" fill-opacity="1.000" /><rect x="4" y="7" width="1" height="1" fill="rgb(56,141,58)" fill-opacity="1.000" /><rect x="5" y="7" width="1" height="1" fill="rgb(63,164,66)" fill-opacity="1.000" /><rect x="6" y="7" width="4" height="1" fill="rgb(71,191,74)" fill-opacity="1.000" /><rect x="6" y="9" width="4" height="1" fill="rgb(71,191,74)" fill-opacity="1.000" /><rect x="10" y="7" width="1" height="1" fill="rgb(63,164,66)" fill-opacity="1.000" /><rect x="11" y="7" width="1" height="1" fill="rgb(56,141,58)" fill-opacity="1.000" /><rect x="12" y="7" width="1" height="1" fill="rgb(32,106,67)" fill-opacity="1.000" /><rect x="2" y="8" width="1" height="2" fill="rgb(32,106,67)" fill-opacity="1.000" /><rect x="3" y="8" width="1" height="2" fill="rgb(56,141,58)" fill-opacity="1.000" /><rect x="4" y="8" width="1" height="1" fill="rgb(63,164,66)" fill-opacity="1.000" /><rect x="5" y="8" width="6" height="1" fill="rgb(71,191,74)" fill-opacity="1.000" /><rect x="11" y="8" width="1" height="1" fill="rgb(63,164,66)" fill-opacity="1.000" /><rect x="12" y="8" width="1" height="1" fill="rgb(56,141,58)" fill-opacity="1.000" /><rect x="13" y="8" width="1" height="2" fill="rgb(32,106,67)" fill-opacity="1.000" /><rect x="4" y="9" width="2" height="1" fill="rgb(63,164,66)" fill-opacity="1.000" /><rect x="10" y="9" width="2" height="1" fill="rgb(63,164,66)" fill-opacity="1.000" /><rect x="12" y="9" width="1" height="1" fill="rgb(41,125,73)" fill-opacity="1.000" /><rect x="3" y="10" width="2" height="1" fill="rgb(32,106,67)" fill-opacity="1.000" /><rect x="11" y="10" width="2" height="1" fill="rgb(32,106,67)" fill-opacity="1.000" /><rect x="5" y="11" width="6" height="1" fill="rgb(32,106,67)" fill-opacity="1.000" /></svg>