<?xml version='1.0' encoding='utf-8'?>
<svg width="16" height="16" viewBox="0 0 16 16" xmlns="http://www.w3.org/2000/svg"> <rect x="5" y="4" width="6" height="1" fill="rgb(27,91,49)" fill-opacity="1.000" /><rect x="4" y="5" width="1" height="1" fill="rgb(27,91,49)" fill-opacity="1.000" /><rect x="4" y="11" width="1" height="1" fill="rgb(27,91,49)" fill-opacity="1.000" /><rect x="5" y="5" width="1" height="1" fill="rgb(63,164,66)" fill-opacity="1.000" /><rect x="5" y="8" width="1" height="1" fill="rgb(63,164,66)" fill-opacity="1.000" /><rect x="6" y="5" width="4" height="1" fill="rgb(71,191,74)" fill-opacity="1.000" /><rect x="10" y="5" width="1" height="1" fill="rgb(63,164,66)" fill-opacity="1.000" /><rect x="10" y="8" width="1" height="1" fill="rgb(63,164,66)" fill-opacity="1.000" /><rect x="11" y="5" width="1" height="1" fill="rgb(10,49,24)" fill-opacity="1.000" /><rect x="3" y="6" width="1" height="5" fill="rgb(27,91,49)" fill-opacity="1.000" /><rect x="4" y="6" width="1" height="1" fill="rgb(63,164,66)" fill-opacity="1.000" /><rect x="4" y="10" width="1" height="1" fill="rgb(63,164,66)" fill-opacity="1.000" /><rect x="5" y="6" width="1" height="1" fill="rgb(48,114,63)" fill-opacity="1.000" /><rect x="6" y="6" width="1" height="1" fill="rgb(63,164,66)" fill-opacity="1.000" /><rect x="7" y="6" width="2" height="2" fill="rgb(71,191,74)" fill-opacity="1.000" /><rect x="9" y="6" width="1" height="1" fill="rgb(63,164,66)" fill-opacity="1.000" /><rect x="10" y="6" width="1" height="1" fill="rgb(48,114,63)" fill-opacity="1.000" /><rect x="11" y="6" width="1" height="1" fill="rgb(63,164,66)" fill-opacity="1.000" /><rect x="11" y="10" width="1" height="1" fill="rgb(63,164,66)" fill-opacity="1.000" /><rect x="12" y="6" width="1" height="5" fill="rgb(10,49,24)" fill-opacity="1.000" /><rect x="4" y="7" width="2" height="1" fill="rgb(71,191,74)" fill-opacity="1.000" /><rect x="6" y="7" width="1" height="1" fill="rgb(48,114,63)" fill-opacity="1.000" /><rect x="9" y="7" width="1" height="1" fill="rgb(48,114,63)" fill-opacity="1.000" /><rect x="10" y="7" width="2" height="1" fill="rgb(71,191,74)" fill-opacity="1.000" /><rect x="4" y="8" width="1" height="1" fill="rgb(71,191,74)" fill-opacity="1.000" /><rect x="6" y="8" width="3" height="1" fill="rgb(27,91,49)" fill-opacity="1.000" /><rect x="9" y="8" width="1" height="1" fill="rgb(10,49,24)" fill-opacity="1.000" /><rect x="11" y="8" width="1" height="1" fill="rgb(71,191,74)" fill-opacity="1.000" /><rect x="4" y="9" width="1" height="1" fill="rgb(48,114,63)" fill-opacity="1.000" /><rect x="5" y="9" width="1" height="1" fill="rgb(27,91,49)" fill-opacity="1.000" /><rect x="6" y="9" width="5" height="1" fill="rgb(10,49,24)" fill-opacity="1.000" /><rect x="11" y="9" width="1" height="1" fill="rgb(48,114,63)" fill-opacity="1.000" /><rect x="5" y="10" width="6" height="1" fill="rgb(10,49,24)" fill-opacity="1.000" /><rect x="5" y="11" width="1" height="1" fill="rgb(10,49,24)" fill-opacity="1.000" /><rect x="10" y="11" width="2" height="1" fill="rgb(10,49,24)" fill-opacity="1.000" /></svg>