<?xml version='1.0' encoding='utf-8'?>
<svg width="16" height="16" viewBox="0 0 16 16" xmlns="http://www.w3.org/2000/svg"> <rect x="6" y="2" width="4" height="1" fill="rgb(95,86,60)" fill-opacity="1.000" /><rect x="5" y="3" width="1" height="1" fill="rgb(95,86,60)" fill-opacity="1.000" /><rect x="6" y="3" width="1" height="2" fill="rgb(234,224,187)" fill-opacity="1.000" /><rect x="7" y="3" width="1" height="1" fill="rgb(89,209,177)" fill-opacity="1.000" /><rect x="8" y="3" width="2" height="1" fill="rgb(234,224,187)" fill-opacity="1.000" /><rect x="10" y="3" width="1" height="1" fill="rgb(95,86,60)" fill-opacity="1.000" /><rect x="4" y="4" width="1" height="1" fill="rgb(95,86,60)" fill-opacity="1.000" /><rect x="5" y="4" width="1" height="1" fill="rgb(89,209,177)" fill-opacity="1.000" /><rect x="7" y="4" width="2" height="1" fill="rgb(255,243,204)" fill-opacity="1.000" /><rect x="9" y="4" width="1" height="1" fill="rgb(234,224,187)" fill-opacity="1.000" /><rect x="9" y="8" width="1" height="1" fill="rgb(234,224,187)" fill-opacity="1.000" /><rect x="10" y="4" width="1" height="1" fill="rgb(64,150,127)" fill-opacity="1.000" /><rect x="11" y="4" width="1" height="1" fill="rgb(95,86,60)" fill-opacity="1.000" /><rect x="3" y="5" width="1" height="2" fill="rgb(95,86,60)" fill-opacity="1.000" /><rect x="4" y="5" width="2" height="1" fill="rgb(89,209,177)" fill-opacity="1.000" /><rect x="6" y="5" width="1" height="1" fill="rgb(75,175,149)" fill-opacity="1.000" /><rect x="7" y="5" width="3" height="1" fill="rgb(255,243,204)" fill-opacity="1.000" /><rect x="10" y="5" width="1" height="1" fill="rgb(234,224,187)" fill-opacity="1.000" /><rect x="10" y="9" width="1" height="1" fill="rgb(234,224,187)" fill-opacity="1.000" /><rect x="11" y="5" width="1" height="1" fill="rgb(183,190,133)" fill-opacity="1.000" /><rect x="12" y="5" width="1" height="2" fill="rgb(95,86,60)" fill-opacity="1.000" /><rect x="4" y="6" width="1" height="1" fill="rgb(234,224,187)" fill-opacity="1.000" /><rect x="5" y="6" width="1" height="1" fill="rgb(75,175,149)" fill-opacity="1.000" /><rect x="6" y="6" width="2" height="2" fill="rgb(255,254,249)" fill-opacity="1.000" /><rect x="8" y="6" width="2" height="1" fill="rgb(255,243,204)" fill-opacity="1.000" /><rect x="10" y="6" width="2" height="2" fill="rgb(234,224,187)" fill-opacity="1.000" /><rect x="2" y="7" width="1" height="3" fill="rgb(95,86,60)" fill-opacity="1.000" /><rect x="3" y="7" width="1" height="2" fill="rgb(234,224,187)" fill-opacity="1.000" /><rect x="3" y="10" width="1" height="1" fill="rgb(234,224,187)" fill-opacity="1.000" /><rect x="4" y="7" width="2" height="1" fill="rgb(255,243,204)" fill-opacity="1.000" /><rect x="8" y="7" width="1" height="1" fill="rgb(255,243,204)" fill-opacity="1.000" /><rect x="9" y="7" width="1" height="1" fill="rgb(75,175,149)" fill-opacity="1.000" /><rect x="12" y="7" width="1" height="1" fill="rgb(146,140,94)" fill-opacity="1.000" /><rect x="13" y="7" width="1" height="4" fill="rgb(58,56,44)" fill-opacity="1.000" /><rect x="4" y="8" width="4" height="1" fill="rgb(255,243,204)" fill-opacity="1.000" /><rect x="8" y="8" width="1" height="1" fill="rgb(75,175,149)" fill-opacity="1.000" /><rect x="10" y="8" width="1" height="1" fill="rgb(52,121,103)" fill-opacity="1.000" /><rect x="11" y="8" width="1" height="1" fill="rgb(234,224,187)" fill-opacity="1.000" /><rect x="12" y="8" width="1" height="1" fill="rgb(183,190,133)" fill-opacity="1.000" /><rect x="3" y="9" width="2" height="1" fill="rgb(234,224,187)" fill-opacity="1.000" /><rect x="5" y="9" width="2" height="1" fill="rgb(255,243,204)" fill-opacity="1.000" /><rect x="7" y="9" width="2" height="1" fill="rgb(234,224,187)" fill-opacity="1.000" /><rect x="9" y="9" width="1" height="1" fill="rgb(52,121,103)" fill-opacity="1.000" /><rect x="11" y="9" width="2" height="1" fill="rgb(183,190,133)" fill-opacity="1.000" /><rect x="2" y="10" width="1" height="1" fill="rgb(58,56,44)" fill-opacity="1.000" /><rect x="4" y="10" width="1" height="1" fill="rgb(52,121,103)" fill-opacity="1.000" /><rect x="5" y="10" width="5" height="1" fill="rgb(234,224,187)" fill-opacity="1.000" /><rect x="10" y="10" width="2" height="1" fill="rgb(183,190,133)" fill-opacity="1.000" /><rect x="12" y="10" width="1" height="1" fill="rgb(48,112,95)" fill-opacity="1.000" /><rect x="3" y="11" width="1" height="2" fill="rgb(58,56,44)" fill-opacity="1.000" /><rect x="4" y="11" width="1" height="1" fill="rgb(183,190,133)" fill-opacity="1.000" /><rect x="5" y="11" width="3" height="1" fill="rgb(234,224,187)" fill-opacity="1.000" /><rect x="8" y="11" width="4" height="1" fill="rgb(183,190,133)" fill-opacity="1.000" /><rect x="12" y="11" width="1" height="2" fill="rgb(58,56,44)" fill-opacity="1.000" /><rect x="4" y="12" width="1" height="1" fill="rgb(146,140,94)" fill-opacity="1.000" /><rect x="5" y="12" width="3" height="1" fill="rgb(183,190,133)" fill-opacity="1.000" /><rect x="8" y="12" width="1" height="1" fill="rgb(52,121,103)" fill-opacity="1.000" /><rect x="9" y="12" width="2" height="1" fill="rgb(183,190,133)" fill-opacity="1.000" /><rect x="11" y="12" width="1" height="1" fill="rgb(146,140,94)" fill-opacity="1.000" /><rect x="4" y="13" width="1" height="1" fill="rgb(58,56,44)" fill-opacity="1.000" /><rect x="5" y="13" width="2" height="1" fill="rgb(146,140,94)" fill-opacity="1.000" /><rect x="7" y="13" width="3" height="1" fill="rgb(183,190,133)" fill-opacity="1.000" /><rect x="10" y="13" width="1" height="1" fill="rgb(146,140,94)" fill-opacity="1.000" /><rect x="11" y="13" width="1" height="1" fill="rgb(58,56,44)" fill-opacity="1.000" /><rect x="5" y="14" width="6" height="1" fill="rgb(58,56,44)" fill-opacity="1.000" /></svg>