<?xml version='1.0' encoding='utf-8'?>
<svg width="16" height="16" viewBox="0 0 16 16" xmlns="http://www.w3.org/2000/svg"> <rect x="2" y="2" width="2" height="1" fill="rgb(54,157,145)" fill-opacity="1.000" /><rect x="4" y="2" width="2" height="1" fill="rgb(58,142,140)" fill-opacity="1.000" /><rect x="6" y="2" width="3" height="1" fill="rgb(57,131,130)" fill-opacity="1.000" /><rect x="9" y="2" width="2" height="1" fill="rgb(58,142,140)" fill-opacity="1.000" /><rect x="11" y="2" width="1" height="1" fill="rgb(54,157,145)" fill-opacity="1.000" /><rect x="12" y="2" width="1" height="1" fill="rgb(58,142,140)" fill-opacity="1.000" /><rect x="13" y="2" width="1" height="3" fill="rgb(57,131,130)" fill-opacity="1.000" /><rect x="13" y="6" width="1" height="2" fill="rgb(57,131,130)" fill-opacity="1.000" /><rect x="14" y="2" width="1" height="2" fill="rgb(40,112,103)" fill-opacity="1.000" /><rect x="14" y="6" width="1" height="1" fill="rgb(40,112,103)" fill-opacity="1.000" /><rect x="2" y="3" width="1" height="1" fill="rgb(58,142,140)" fill-opacity="1.000" /><rect x="2" y="6" width="1" height="1" fill="rgb(58,142,140)" fill-opacity="1.000" /><rect x="3" y="3" width="1" height="1" fill="rgb(10,52,49)" fill-opacity="1.000" /><rect x="4" y="3" width="5" height="1" fill="rgb(57,131,130)" fill-opacity="1.000" /><rect x="9" y="3" width="1" height="1" fill="rgb(16,86,81)" fill-opacity="1.000" /><rect x="10" y="3" width="1" height="1" fill="rgb(10,52,49)" fill-opacity="1.000" /><rect x="10" y="6" width="1" height="1" fill="rgb(10,52,49)" fill-opacity="1.000" /><rect x="11" y="3" width="1" height="1" fill="rgb(57,131,130)" fill-opacity="1.000" /><rect x="11" y="6" width="1" height="2" fill="rgb(57,131,130)" fill-opacity="1.000" /><rect x="12" y="3" width="1" height="1" fill="rgb(10,52,49)" fill-opacity="1.000" /><rect x="12" y="6" width="1" height="1" fill="rgb(10,52,49)" fill-opacity="1.000" /><rect x="2" y="4" width="1" height="1" fill="rgb(57,131,130)" fill-opacity="1.000" /><rect x="2" y="7" width="1" height="1" fill="rgb(57,131,130)" fill-opacity="1.000" /><rect x="3" y="4" width="2" height="1" fill="rgb(16,86,81)" fill-opacity="1.000" /><rect x="3" y="7" width="2" height="1" fill="rgb(16,86,81)" fill-opacity="1.000" /><rect x="5" y="4" width="1" height="1" fill="rgb(57,131,130)" fill-opacity="1.000" /><rect x="5" y="6" width="1" height="2" fill="rgb(57,131,130)" fill-opacity="1.000" /><rect x="6" y="4" width="1" height="1" fill="rgb(16,86,81)" fill-opacity="1.000" /><rect x="7" y="4" width="1" height="1" fill="rgb(10,52,49)" fill-opacity="1.000" /><rect x="8" y="4" width="1" height="1" fill="rgb(57,131,130)" fill-opacity="1.000" /><rect x="9" y="4" width="2" height="1" fill="rgb(16,86,81)" fill-opacity="1.000" /><rect x="9" y="7" width="2" height="1" fill="rgb(16,86,81)" fill-opacity="1.000" /><rect x="11" y="4" width="1" height="1" fill="rgb(10,52,49)" fill-opacity="1.000" /><rect x="12" y="4" width="1" height="1" fill="rgb(16,86,81)" fill-opacity="1.000" /><rect x="12" y="7" width="1" height="1" fill="rgb(16,86,81)" fill-opacity="1.000" /><rect x="14" y="4" width="1" height="1" fill="rgb(46,95,81)" fill-opacity="1.000" /><rect x="14" y="7" width="1" height="1" fill="rgb(46,95,81)" fill-opacity="1.000" /><rect x="2" y="5" width="1" height="1" fill="rgb(54,157,145)" fill-opacity="1.000" /><rect x="2" y="8" width="1" height="1" fill="rgb(54,157,145)" fill-opacity="1.000" /><rect x="3" y="5" width="11" height="1" fill="rgb(57,131,130)" fill-opacity="1.000" /><rect x="3" y="8" width="11" height="1" fill="rgb(57,131,130)" fill-opacity="1.000" /><rect x="14" y="5" width="1" height="1" fill="rgb(31,87,82)" fill-opacity="1.000" /><rect x="14" y="8" width="1" height="1" fill="rgb(31,87,82)" fill-opacity="1.000" /><rect x="3" y="6" width="1" height="1" fill="rgb(57,131,130)" fill-opacity="1.000" /><rect x="4" y="6" width="1" height="1" fill="rgb(10,52,49)" fill-opacity="1.000" /><rect x="6" y="6" width="2" height="1" fill="rgb(10,52,49)" fill-opacity="1.000" /><rect x="8" y="6" width="2" height="1" fill="rgb(57,131,130)" fill-opacity="1.000" /><rect x="6" y="7" width="2" height="1" fill="rgb(16,86,81)" fill-opacity="1.000" /><rect x="8" y="7" width="1" height="1" fill="rgb(10,52,49)" fill-opacity="1.000" /><rect x="2" y="9" width="13" height="1" fill="rgb(40,112,103)" fill-opacity="1.000" /><rect x="2" y="10" width="13" height="1" fill="rgb(17,56,53)" fill-opacity="1.000" /><rect x="7" y="11" width="1" height="1" fill="rgb(22,97,91)" fill-opacity="1.000" /><rect x="8" y="11" width="1" height="1" fill="rgb(69,45,92)" fill-opacity="1.000" /><rect x="8" y="15" width="1" height="1" fill="rgb(69,45,92)" fill-opacity="1.000" /><rect x="9" y="11" width="1" height="1" fill="rgb(63,30,45)" fill-opacity="1.000" /><rect x="9" y="14" width="1" height="2" fill="rgb(63,30,45)" fill-opacity="1.000" /><rect x="7" y="12" width="1" height="1" fill="rgb(69,45,92)" fill-opacity="1.000" /><rect x="7" y="14" width="1" height="1" fill="rgb(69,45,92)" fill-opacity="1.000" /><rect x="8" y="12" width="1" height="1" fill="rgb(17,155,133)" fill-opacity="1.000" /><rect x="9" y="12" width="1" height="1" fill="rgb(22,126,134)" fill-opacity="1.000" /><rect x="7" y="13" width="1" height="1" fill="rgb(86,44,62)" fill-opacity="1.000" /><rect x="8" y="13" width="2" height="1" fill="rgb(69,45,92)" fill-opacity="1.000" /><rect x="8" y="14" width="1" height="1" fill="rgb(75,39,55)" fill-opacity="1.000" /><rect x="7" y="15" width="1" height="1" fill="rgb(22,126,134)" fill-opacity="1.000" /></svg>