<?xml version='1.0' encoding='utf-8'?>
<svg width="16" height="16" viewBox="0 0 16 16" xmlns="http://www.w3.org/2000/svg"> <rect x="3" y="2" width="1" height="2" fill="rgb(106,113,71)" fill-opacity="1.000" /><rect x="3" y="5" width="1" height="3" fill="rgb(106,113,71)" fill-opacity="1.000" /><rect x="3" y="9" width="1" height="3" fill="rgb(106,113,71)" fill-opacity="1.000" /><rect x="3" y="13" width="1" height="2" fill="rgb(106,113,71)" fill-opacity="1.000" /><rect x="4" y="2" width="9" height="1" fill="rgb(102,169,119)" fill-opacity="1.000" /><rect x="4" y="3" width="1" height="5" fill="rgb(102,169,119)" fill-opacity="1.000" /><rect x="4" y="10" width="1" height="4" fill="rgb(102,169,119)" fill-opacity="1.000" /><rect x="6" y="3" width="1" height="1" fill="rgb(108,151,92)" fill-opacity="1.000" /><rect x="6" y="7" width="1" height="1" fill="rgb(108,151,92)" fill-opacity="1.000" /><rect x="10" y="3" width="1" height="1" fill="rgb(108,151,92)" fill-opacity="1.000" /><rect x="10" y="7" width="1" height="1" fill="rgb(108,151,92)" fill-opacity="1.000" /><rect x="12" y="3" width="1" height="1" fill="rgb(102,169,119)" fill-opacity="1.000" /><rect x="12" y="6" width="1" height="3" fill="rgb(102,169,119)" fill-opacity="1.000" /><rect x="12" y="10" width="1" height="3" fill="rgb(102,169,119)" fill-opacity="1.000" /><rect x="12" y="14" width="1" height="1" fill="rgb(102,169,119)" fill-opacity="1.000" /><rect x="3" y="4" width="1" height="1" fill="rgb(77,80,70)" fill-opacity="1.000" /><rect x="3" y="8" width="1" height="1" fill="rgb(77,80,70)" fill-opacity="1.000" /><rect x="3" y="12" width="1" height="1" fill="rgb(77,80,70)" fill-opacity="1.000" /><rect x="7" y="4" width="1" height="1" fill="rgb(102,169,119)" fill-opacity="1.000" /><rect x="7" y="6" width="1" height="1" fill="rgb(102,169,119)" fill-opacity="1.000" /><rect x="9" y="4" width="1" height="1" fill="rgb(102,169,119)" fill-opacity="1.000" /><rect x="9" y="6" width="1" height="1" fill="rgb(102,169,119)" fill-opacity="1.000" /><rect x="12" y="4" width="1" height="2" fill="rgb(154,148,123)" fill-opacity="1.000" /><rect x="12" y="9" width="1" height="1" fill="rgb(154,148,123)" fill-opacity="1.000" /><rect x="12" y="13" width="1" height="1" fill="rgb(154,148,123)" fill-opacity="1.000" /><rect x="8" y="5" width="1" height="1" fill="rgb(102,169,119)" fill-opacity="1.000" /><rect x="4" y="8" width="2" height="1" fill="rgb(154,148,123)" fill-opacity="1.000" /><rect x="6" y="8" width="4" height="1" fill="rgb(102,169,119)" fill-opacity="1.000" /><rect x="10" y="8" width="1" height="1" fill="rgb(67,67,67)" fill-opacity="1.000" /><rect x="11" y="8" width="1" height="1" fill="rgb(154,148,123)" fill-opacity="1.000" /><rect x="4" y="9" width="1" height="1" fill="rgb(154,148,123)" fill-opacity="1.000" /><rect x="5" y="9" width="1" height="1" fill="rgb(102,169,119)" fill-opacity="1.000" /><rect x="6" y="9" width="3" height="1" fill="rgb(112,128,80)" fill-opacity="1.000" /><rect x="9" y="9" width="1" height="1" fill="rgb(77,80,70)" fill-opacity="1.000" /><rect x="10" y="9" width="1" height="1" fill="rgb(112,128,80)" fill-opacity="1.000" /><rect x="11" y="9" width="1" height="1" fill="rgb(77,80,70)" fill-opacity="1.000" /><rect x="5" y="10" width="2" height="1" fill="rgb(112,128,80)" fill-opacity="1.000" /><rect x="7" y="10" width="2" height="1" fill="rgb(112,146,90)" fill-opacity="1.000" /><rect x="9" y="10" width="3" height="1" fill="rgb(77,80,70)" fill-opacity="1.000" /><rect x="5" y="11" width="1" height="3" fill="rgb(112,128,80)" fill-opacity="1.000" /><rect x="6" y="11" width="4" height="1" fill="rgb(112,146,90)" fill-opacity="1.000" /><rect x="10" y="11" width="2" height="1" fill="rgb(112,128,80)" fill-opacity="1.000" /><rect x="6" y="12" width="2" height="1" fill="rgb(112,146,90)" fill-opacity="1.000" /><rect x="8" y="12" width="1" height="1" fill="rgb(141,135,112)" fill-opacity="1.000" /><rect x="9" y="12" width="2" height="1" fill="rgb(112,146,90)" fill-opacity="1.000" /><rect x="11" y="12" width="1" height="1" fill="rgb(112,128,80)" fill-opacity="1.000" /><rect x="6" y="13" width="1" height="1" fill="rgb(112,146,90)" fill-opacity="1.000" /><rect x="7" y="13" width="1" height="1" fill="rgb(141,135,112)" fill-opacity="1.000" /><rect x="8" y="13" width="4" height="1" fill="rgb(112,146,90)" fill-opacity="1.000" /><rect x="4" y="14" width="6" height="1" fill="rgb(102,169,119)" fill-opacity="1.000" /><rect x="10" y="14" width="2" height="1" fill="rgb(154,148,123)" fill-opacity="1.000" /><rect x="3" y="15" width="10" height="1" fill="rgb(106,113,71)" fill-opacity="1.000" /></svg>