<?xml version='1.0' encoding='utf-8'?>
<svg width="16" height="16" viewBox="0 0 16 16" xmlns="http://www.w3.org/2000/svg"> <rect x="3" y="2" width="1" height="1" fill="rgb(130,72,72)" fill-opacity="1.000" /><rect x="3" y="5" width="1" height="1" fill="rgb(130,72,72)" fill-opacity="1.000" /><rect x="5" y="2" width="1" height="1" fill="rgb(173,113,109)" fill-opacity="1.000" /><rect x="6" y="2" width="1" height="1" fill="rgb(160,100,96)" fill-opacity="1.000" /><rect x="7" y="2" width="1" height="3" fill="rgb(182,123,118)" fill-opacity="1.000" /><rect x="8" y="2" width="1" height="1" fill="rgb(173,113,109)" fill-opacity="1.000" /><rect x="9" y="2" width="1" height="2" fill="rgb(182,123,118)" fill-opacity="1.000" /><rect x="1" y="3" width="1" height="1" fill="rgb(173,113,109)" fill-opacity="1.000" /><rect x="2" y="3" width="1" height="1" fill="rgb(182,123,118)" fill-opacity="1.000" /><rect x="3" y="3" width="1" height="1" fill="rgb(173,113,109)" fill-opacity="1.000" /><rect x="4" y="3" width="1" height="4" fill="rgb(92,45,48)" fill-opacity="1.000" /><rect x="5" y="3" width="1" height="2" fill="rgb(160,100,96)" fill-opacity="1.000" /><rect x="6" y="3" width="1" height="1" fill="rgb(150,89,84)" fill-opacity="1.000" /><rect x="8" y="3" width="1" height="1" fill="rgb(160,100,96)" fill-opacity="1.000" /><rect x="10" y="3" width="1" height="3" fill="rgb(92,45,48)" fill-opacity="1.000" /><rect x="11" y="3" width="1" height="1" fill="rgb(130,72,72)" fill-opacity="1.000" /><rect x="12" y="3" width="1" height="1" fill="rgb(182,123,118)" fill-opacity="1.000" /><rect x="13" y="3" width="1" height="1" fill="rgb(160,100,96)" fill-opacity="1.000" /><rect x="14" y="3" width="1" height="2" fill="rgb(198,136,132)" fill-opacity="1.000" /><rect x="1" y="4" width="1" height="1" fill="rgb(160,100,96)" fill-opacity="1.000" /><rect x="2" y="4" width="1" height="1" fill="rgb(173,113,109)" fill-opacity="1.000" /><rect x="3" y="4" width="1" height="1" fill="rgb(150,89,84)" fill-opacity="1.000" /><rect x="6" y="4" width="1" height="1" fill="rgb(130,72,72)" fill-opacity="1.000" /><rect x="8" y="4" width="1" height="2" fill="rgb(150,89,84)" fill-opacity="1.000" /><rect x="9" y="4" width="1" height="3" fill="rgb(160,100,96)" fill-opacity="1.000" /><rect x="11" y="4" width="1" height="2" fill="rgb(113,62,62)" fill-opacity="1.000" /><rect x="12" y="4" width="1" height="2" fill="rgb(160,100,96)" fill-opacity="1.000" /><rect x="13" y="4" width="1" height="2" fill="rgb(150,89,84)" fill-opacity="1.000" /><rect x="2" y="5" width="1" height="1" fill="rgb(150,89,84)" fill-opacity="1.000" /><rect x="5" y="5" width="1" height="1" fill="rgb(150,89,84)" fill-opacity="1.000" /><rect x="6" y="5" width="1" height="2" fill="rgb(92,45,48)" fill-opacity="1.000" /><rect x="7" y="5" width="1" height="2" fill="rgb(160,100,96)" fill-opacity="1.000" /><rect x="14" y="5" width="1" height="1" fill="rgb(182,123,118)" fill-opacity="1.000" /><rect x="3" y="6" width="1" height="1" fill="rgb(121,94,71)" fill-opacity="1.000" /><rect x="5" y="6" width="1" height="1" fill="rgb(130,72,72)" fill-opacity="1.000" /><rect x="8" y="6" width="1" height="1" fill="rgb(92,45,48)" fill-opacity="1.000" /><rect x="10" y="6" width="2" height="1" fill="rgb(92,45,48)" fill-opacity="1.000" /><rect x="12" y="6" width="1" height="1" fill="rgb(113,62,62)" fill-opacity="1.000" /><rect x="13" y="6" width="1" height="1" fill="rgb(92,45,48)" fill-opacity="1.000" /><rect x="14" y="6" width="1" height="1" fill="rgb(113,62,62)" fill-opacity="1.000" /><rect x="3" y="7" width="1" height="1" fill="rgb(153,123,96)" fill-opacity="1.000" /><rect x="5" y="7" width="5" height="1" fill="rgb(92,45,48)" fill-opacity="1.000" /><rect x="12" y="7" width="1" height="1" fill="rgb(121,94,71)" fill-opacity="1.000" /><rect x="7" y="8" width="1" height="1" fill="rgb(121,94,71)" fill-opacity="1.000" /><rect x="12" y="8" width="1" height="1" fill="rgb(153,123,96)" fill-opacity="1.000" /><rect x="4" y="10" width="1" height="1" fill="rgb(150,89,84)" fill-opacity="1.000" /><rect x="5" y="10" width="1" height="1" fill="rgb(121,94,71)" fill-opacity="1.000" /><rect x="12" y="10" width="1" height="1" fill="rgb(150,89,84)" fill-opacity="1.000" /><rect x="13" y="10" width="1" height="1" fill="rgb(121,94,71)" fill-opacity="1.000" /><rect x="4" y="11" width="1" height="1" fill="rgb(130,72,72)" fill-opacity="1.000" /><rect x="12" y="11" width="1" height="1" fill="rgb(130,72,72)" fill-opacity="1.000" /></svg>